<svg cache-id="e254cd86dfa0457a825dfdd8619aa1ca" id="eHvUQR6L4t01" xmlns="http://www.w3.org/2000/svg" xmlns:xlink="http://www.w3.org/1999/xlink" viewBox="0 0 630 364" shape-rendering="geometricPrecision" text-rendering="geometricPrecision"><style><![CDATA[#eHvUQR6L4t05_tr {animation: eHvUQR6L4t05_tr__tr 10000ms linear infinite normal forwards}@keyframes eHvUQR6L4t05_tr__tr { 0% {transform: translate(439px,68px) rotate(0deg)} 100% {transform: translate(439px,68px) rotate(360deg)}} #eHvUQR6L4t05_ts {animation: eHvUQR6L4t05_ts__ts 10000ms linear infinite normal forwards}@keyframes eHvUQR6L4t05_ts__ts { 0% {transform: scale(1,1)} 25% {transform: scale(1.351558,1.351558)} 50% {transform: scale(1,1)} 75% {transform: scale(1.351558,1.351558)} 100% {transform: scale(1,1)}} #eHvUQR6L4t08_tr {animation: eHvUQR6L4t08_tr__tr 10000ms linear infinite normal forwards}@keyframes eHvUQR6L4t08_tr__tr { 0% {transform: translate(186.216499px,48.648909px) rotate(0deg)} 100% {transform: translate(186.216499px,48.648909px) rotate(360deg)}} #eHvUQR6L4t08_ts {animation: eHvUQR6L4t08_ts__ts 10000ms linear infinite normal forwards}@keyframes eHvUQR6L4t08_ts__ts { 0% {transform: scale(1,1)} 25% {transform: scale(1.351558,1.351558)} 50% {transform: scale(1,1)} 75% {transform: scale(1.351558,1.351558)} 100% {transform: scale(1,1)}} #eHvUQR6L4t011_tr {animation: eHvUQR6L4t011_tr__tr 10000ms linear infinite normal forwards}@keyframes eHvUQR6L4t011_tr__tr { 0% {transform: translate(613.312073px,200.031059px) rotate(0deg)} 100% {transform: translate(613.312073px,200.031059px) rotate(360deg)}} #eHvUQR6L4t011_ts {animation: eHvUQR6L4t011_ts__ts 10000ms linear infinite normal forwards}@keyframes eHvUQR6L4t011_ts__ts { 0% {transform: scale(1,1)} 25% {transform: scale(1.351558,1.351558)} 50% {transform: scale(1,1)} 75% {transform: scale(1.351558,1.351558)} 100% {transform: scale(1,1)}} #eHvUQR6L4t014_ts {animation: eHvUQR6L4t014_ts__ts 10000ms linear infinite normal forwards}@keyframes eHvUQR6L4t014_ts__ts { 0% {transform: translate(13px,149px) scale(1,1)} 25% {transform: translate(13px,149px) scale(0.676686,0.676686)} 50% {transform: translate(13px,149px) scale(1,1)} 75% {transform: translate(13px,149px) scale(0.676686,0.676686)} 100% {transform: translate(13px,149px) scale(1,1)}} #eHvUQR6L4t015_ts {animation: eHvUQR6L4t015_ts__ts 10000ms linear infinite normal forwards}@keyframes eHvUQR6L4t015_ts__ts { 0% {transform: translate(344.000015px,25.000001px) scale(1,1)} 25% {transform: translate(344.000015px,25.000001px) scale(0.676686,0.676686)} 50% {transform: translate(344.000015px,25.000001px) scale(1,1)} 75% {transform: translate(344.000015px,25.000001px) scale(0.676686,0.676686)} 100% {transform: translate(344.000015px,25.000001px) scale(1,1)}} #eHvUQR6L4t016_tr {animation: eHvUQR6L4t016_tr__tr 10000ms linear infinite normal forwards}@keyframes eHvUQR6L4t016_tr__tr { 0% {transform: translate(598.471404px,81.471744px) rotate(24.838692deg)} 100% {transform: translate(598.471404px,81.471744px) rotate(-246.360000deg)}} #eHvUQR6L4t016_ts {animation: eHvUQR6L4t016_ts__ts 10000ms linear infinite normal forwards}@keyframes eHvUQR6L4t016_ts__ts { 0% {transform: scale(1,1)} 25% {transform: scale(0.676686,0.676686)} 50% {transform: scale(1,1)} 75% {transform: scale(0.676686,0.676686)} 100% {transform: scale(1,1)}} #eHvUQR6L4t017_tr {animation: eHvUQR6L4t017_tr__tr 10000ms linear infinite normal forwards}@keyframes eHvUQR6L4t017_tr__tr { 0% {transform: translate(47.591706px,47.591792px) rotate(54.856800deg)} 100% {transform: translate(47.591706px,47.591792px) rotate(-214.280000deg)}} #eHvUQR6L4t021_ts {animation: eHvUQR6L4t021_ts__ts 10000ms linear infinite normal forwards}@keyframes eHvUQR6L4t021_ts__ts { 0% {transform: translate(106.331209px,325.531982px) scale(1,1)} 10% {transform: translate(106.331209px,325.531982px) scale(1,1)} 12% {transform: translate(106.331209px,325.531982px) scale(1.085714,0.963168)} 14% {transform: translate(106.331209px,325.531982px) scale(0.988783,1.051593)} 16% {transform: translate(106.331209px,325.531982px) scale(1,1)} 60% {transform: translate(106.331209px,325.531982px) scale(1,1)} 62% {transform: translate(106.331209px,325.531982px) scale(1.085714,0.963168)} 64% {transform: translate(106.331209px,325.531982px) scale(0.988783,1.051593)} 66% {transform: translate(106.331209px,325.531982px) scale(1,1)} 100% {transform: translate(106.331209px,325.531982px) scale(1,1)}} #eHvUQR6L4t024_tk {animation: eHvUQR6L4t024_tk__tk 10000ms linear infinite normal forwards}@keyframes eHvUQR6L4t024_tk__tk { 0% {transform: translate(308.733109px,188.895851px) rotate(3.958710deg) skewX(0deg) skewY(0deg)} 25% {transform: translate(308.733109px,188.895851px) rotate(3.958710deg) skewX(-3deg) skewY(0deg)} 50% {transform: translate(308.733109px,188.895851px) rotate(3.958710deg) skewX(0deg) skewY(0deg)} 75% {transform: translate(308.733109px,188.895851px) rotate(3.958710deg) skewX(-3deg) skewY(0deg)} 100% {transform: translate(308.733109px,188.895851px) rotate(3.958710deg) skewX(0deg) skewY(0deg)}} #eHvUQR6L4t027_ts {animation: eHvUQR6L4t027_ts__ts 10000ms linear infinite normal forwards}@keyframes eHvUQR6L4t027_ts__ts { 0% {transform: translate(234.316582px,334.431000px) scale(1,1)} 25% {transform: translate(234.316582px,334.431000px) scale(1.040799,0.949020)} 50% {transform: translate(234.316582px,334.431000px) scale(1,1)} 75% {transform: translate(234.316582px,334.431000px) scale(1.040799,0.949020)} 100% {transform: translate(234.316582px,334.431000px) scale(1,1)}} #eHvUQR6L4t033_tr {animation: eHvUQR6L4t033_tr__tr 10000ms linear infinite normal forwards}@keyframes eHvUQR6L4t033_tr__tr { 0% {transform: translate(206.849304px,155.628418px) rotate(0deg)} 25% {transform: translate(206.849304px,155.628418px) rotate(16.346526deg)} 50% {transform: translate(206.849304px,155.628418px) rotate(0deg)} 75% {transform: translate(206.849304px,155.628418px) rotate(16.346526deg)} 100% {transform: translate(206.849304px,155.628418px) rotate(0deg)}} #eHvUQR6L4t055_ts {animation: eHvUQR6L4t055_ts__ts 10000ms linear infinite normal forwards}@keyframes eHvUQR6L4t055_ts__ts { 0% {transform: translate(371.563384px,334.431000px) scale(1,1)} 25% {transform: translate(371.563384px,334.431000px) scale(0.933491,1.029444)} 50% {transform: translate(371.563384px,334.431000px) scale(1,1)} 75% {transform: translate(371.563384px,334.431000px) scale(0.933491,1.029444)} 100% {transform: translate(371.563384px,334.431000px) scale(1,1)}} #eHvUQR6L4t061_tr {animation: eHvUQR6L4t061_tr__tr 10000ms linear infinite normal forwards}@keyframes eHvUQR6L4t061_tr__tr { 0% {transform: translate(418.916000px,170.545013px) rotate(0deg)} 25% {transform: translate(418.916000px,170.545013px) rotate(-20.917102deg)} 50% {transform: translate(418.916000px,170.545013px) rotate(0deg)} 75% {transform: translate(418.916000px,170.545013px) rotate(-20.917102deg)} 100% {transform: translate(418.916000px,170.545013px) rotate(0deg)}} #eHvUQR6L4t083_ts {animation: eHvUQR6L4t083_ts__ts 10000ms linear infinite normal forwards}@keyframes eHvUQR6L4t083_ts__ts { 0% {transform: translate(538.607829px,338.775006px) scale(1,1)} 35% {transform: translate(538.607829px,338.775006px) scale(1,1)} 37% {transform: translate(538.607829px,338.775006px) scale(1.085714,0.963168)} 39% {transform: translate(538.607829px,338.775006px) scale(0.988783,1.051593)} 41% {transform: translate(538.607829px,338.775006px) scale(1,1)} 88% {transform: translate(538.607829px,338.775006px) scale(1,1)} 90% {transform: translate(538.607829px,338.775006px) scale(1.085714,0.963168)} 92% {transform: translate(538.607829px,338.775006px) scale(0.988783,1.051593)} 94% {transform: translate(538.607829px,338.775006px) scale(1,1)} 100% {transform: translate(538.607829px,338.775006px) scale(1,1)}} #eHvUQR6L4t086_tk {animation: eHvUQR6L4t086_tk__tk 10000ms linear infinite normal forwards}@keyframes eHvUQR6L4t086_tk__tk { 0% {transform: translate(106.773426px,328.625000px) skewX(-7deg) skewY(0deg)} 25% {transform: translate(106.773426px,328.625000px) skewX(5deg) skewY(0deg)} 50% {transform: translate(106.773426px,328.625000px) skewX(-7deg) skewY(0deg)} 75% {transform: translate(106.773426px,328.625000px) skewX(10deg) skewY(0deg)} 100% {transform: translate(106.773426px,328.625000px) skewX(-7deg) skewY(0deg)}} #eHvUQR6L4t091_tk {animation: eHvUQR6L4t091_tk__tk 10000ms linear infinite normal forwards}@keyframes eHvUQR6L4t091_tk__tk { 0% {transform: translate(507.349500px,338.775006px) skewX(7deg) skewY(0deg)} 25% {transform: translate(507.349500px,338.775006px) skewX(-7deg) skewY(0deg)} 50% {transform: translate(507.349500px,338.775006px) skewX(7deg) skewY(0deg)} 75% {transform: translate(507.349500px,338.775006px) skewX(-7deg) skewY(0deg)} 100% {transform: translate(507.349500px,338.775006px) skewX(7deg) skewY(0deg)}}]]></style><defs><linearGradient id="eHvUQR6L4t03-fill" x1="309.502000" y1="-23.135300" x2="309.502000" y2="343.548000" spreadMethod="pad" gradientUnits="userSpaceOnUse"><stop id="eHvUQR6L4t03-fill-0" offset="0%" stop-color="rgb(223,224,224)"/><stop id="eHvUQR6L4t03-fill-1" offset="100%" stop-color="rgba(38,128,193,0)"/></linearGradient><linearGradient id="eHvUQR6L4t04-fill" x1="299.552000" y1="378.714000" x2="293.902000" y2="266.605000" spreadMethod="pad" gradientUnits="userSpaceOnUse"><stop id="eHvUQR6L4t04-fill-0" offset="0%" stop-color="rgb(38,128,193)"/><stop id="eHvUQR6L4t04-fill-1" offset="100%" stop-color="rgba(38,128,193,0)"/></linearGradient></defs><g id="eHvUQR6L4t02" transform="matrix(0.96073523671675 0 0 0.96073523671675 20.96313425055308 7.14618583148854)"><path id="eHvUQR6L4t03" d="M565.716000,76.989200C553.472000,47.693200,530.073000,22.540300,501.502000,9.273330C429.483000,-24.181200,381.657000,41.424400,323.799000,70.860000C297.051000,84.468300,268.386000,84.359700,239.987000,76.415000C210.653000,68.206600,184.746000,51.091400,154.275000,45.722600C125.423000,40.648500,92.833300,45.676000,73.967800,69.618600C55.382800,93.188800,46.783400,123.416000,44.462300,152.976000C41.377700,192.109000,53.809300,229.955000,79.357900,259.825000C110.141000,295.824000,152.281000,319.441000,195.417000,337.751000C265.380000,367.435000,341.496000,380.655000,405.882000,329.729000C424.934000,314.662000,440.341000,295.778000,456.839000,278.104000C473.648000,260.089000,492.186000,246.962000,511.846000,232.500000C547.739000,206.105000,575.733000,165.917000,574.985000,120.049000C574.752000,105.323000,571.449000,90.706100,565.716000,76.989200Z" transform="matrix(1 0 0 1 -2.26165777000000 0)" opacity="0.19" fill="url(#eHvUQR6L4t03-fill)" stroke="none" stroke-width="1"/><path id="eHvUQR6L4t04" d="M296.354000,338.775000C412.536000,338.775000,506.708000,328.294000,506.708000,315.387000C506.708000,302.481000,412.536000,292,296.354000,292C180.171000,292,86,302.481000,86,315.387000C86,328.294000,180.171000,338.775000,296.354000,338.775000Z" opacity="0.14" fill="url(#eHvUQR6L4t04-fill)" stroke="none" stroke-width="1"/><g id="eHvUQR6L4t05_tr" transform="translate(439,68) rotate(0)"><g id="eHvUQR6L4t05_ts" transform="scale(1,1)"><g id="eHvUQR6L4t05" transform="translate(-439,-68)"><rect id="eHvUQR6L4t06" width="3" height="16" rx="0" ry="0" transform="matrix(-1 0 0 1 440.50000000000000 60)" fill="rgb(133,133,181)" stroke="none" stroke-width="1"/><rect id="eHvUQR6L4t07" width="3" height="16" rx="0" ry="0" transform="matrix(-0 -1 -1 0 447 69.50000000000000)" fill="rgb(133,133,181)" stroke="none" stroke-width="1"/></g></g></g><g id="eHvUQR6L4t08_tr" transform="translate(186.216499,48.648909) rotate(0)"><g id="eHvUQR6L4t08_ts" transform="scale(1,1)"><g id="eHvUQR6L4t08" transform="translate(-186.216499,-48.648909)"><rect id="eHvUQR6L4t09" width="2.905410" height="15.495500" rx="0" ry="0" transform="matrix(-0.48612000000000 0.87389200000000 0.87389200000000 0.48612000000000 180.15199999999999 43.61300000000000)" fill="rgb(133,133,181)" stroke="none" stroke-width="1"/><rect id="eHvUQR6L4t010" width="2.905410" height="15.495500" rx="0" ry="0" transform="matrix(-0.87389200000000 -0.48612000000000 -0.48612000000000 0.87389200000000 191.25299999999999 42.58440000000000)" fill="rgb(133,133,181)" stroke="none" stroke-width="1"/></g></g></g><g id="eHvUQR6L4t011_tr" transform="translate(613.312073,200.031059) rotate(0)"><g id="eHvUQR6L4t011_ts" transform="scale(1,1)"><g id="eHvUQR6L4t011" transform="translate(-613.312073,-200.031059)"><rect id="eHvUQR6L4t012" width="3.105400" height="16.562100" rx="0" ry="0" transform="matrix(-0.50000000000000 -0.86602500000000 -0.86602500000000 0.50000000000000 621.25999999999999 197.23500000000001)" fill="rgb(133,133,181)" stroke="none" stroke-width="1"/><rect id="eHvUQR6L4t013" width="3.105400" height="16.562100" rx="0" ry="0" transform="matrix(0.86602500000000 -0.50000000000000 -0.50000000000000 -0.86602500000000 616.10799999999995 207.97900000000001)" fill="rgb(133,133,181)" stroke="none" stroke-width="1"/></g></g></g><g id="eHvUQR6L4t014_ts" transform="translate(13,149) scale(1,1)"><circle id="eHvUQR6L4t014" r="7.500000" transform="translate(0,0)" fill="none" stroke="rgb(133,133,181)" stroke-width="3"/></g><g id="eHvUQR6L4t015_ts" transform="translate(344.000015,25.000001) scale(1,1)"><circle id="eHvUQR6L4t015" r="4.800000" transform="translate(-0.000015,-0.000001)" fill="none" stroke="rgb(133,133,181)" stroke-width="2.400000"/></g><g id="eHvUQR6L4t016_tr" transform="translate(598.471404,81.471744) rotate(24.838692)"><g id="eHvUQR6L4t016_ts" transform="scale(1,1)"><rect id="eHvUQR6L4t016" width="9.943670" height="9.943670" rx="0" ry="0" transform="translate(-4.971835,-4.971835)" fill="none" stroke="rgb(133,133,181)" stroke-width="3"/></g></g><g id="eHvUQR6L4t017_tr" transform="translate(47.591706,47.591792) rotate(54.856800)"><rect id="eHvUQR6L4t017" width="9.943670" height="9.943670" rx="0" ry="0" transform="scale(1,1) translate(-4.971835,-4.971835)" fill="none" stroke="rgb(133,133,181)" stroke-width="3"/></g><g id="eHvUQR6L4t018"><path id="eHvUQR6L4t019" d="M342.211000,205.870000C342.211000,205.870000,335.184000,195.485000,349.131000,187.581000L352.823000,201.718000L342.211000,205.870000Z" fill="rgb(229,163,167)" stroke="none" stroke-width="1"/><path id="eHvUQR6L4t020" d="M232.018000,196.730000C228.299000,196.730000,224.839000,195.983000,221.647000,194.481000C206.208000,187.225000,204.492000,165.432000,204.429000,164.508000C204.197000,161.218000,206.691000,158.373000,209.990000,158.141000C213.289000,157.910000,216.149000,160.382000,216.391000,163.663000C216.721000,168.046000,219.243000,180.192000,226.797000,183.713000C233.028000,186.621000,242.692000,183.660000,254.752000,175.142000C257.452000,173.230000,261.198000,173.870000,263.111000,176.556000C265.033000,179.241000,264.389000,182.966000,261.689000,184.878000C250.523000,192.764000,240.582000,196.730000,232.018000,196.730000Z" fill="rgb(205,229,232)" stroke="none" stroke-width="1"/><g id="eHvUQR6L4t021_ts" transform="translate(106.331209,325.531982) scale(1,1)"><g id="eHvUQR6L4t021" transform="translate(-106.331209,-325.531982)"><path id="eHvUQR6L4t022" d="M15.340900,292.846000L15.340900,234.652000L109.594000,100.961000L185.190000,100.961000L185.190000,232.447000L207.960000,232.447000L207.960000,292.846000L185.190000,292.846000L185.190000,327.451000L114.342000,327.451000L114.342000,292.846000L15.340900,292.846000ZM120.036000,180.548000L85.876800,232.447000L120.036000,232.447000L120.036000,180.548000Z" fill="rgb(233,233,244)" stroke="none" stroke-width="1"/><path id="eHvUQR6L4t023" d="M1.341000,276.388000L1.341000,218.194000L95.594600,84.494100L171.191000,84.494100L171.191000,215.989000L193.960000,215.989000L193.960000,276.388000L171.191000,276.388000L171.191000,310.993000L100.342000,310.993000L100.342000,276.388000L1.341000,276.388000ZM106.036000,164.081000L71.877000,215.989000L106.036000,215.989000L106.036000,164.081000L106.036000,164.081000Z" fill="none" stroke="rgb(133,133,181)" stroke-width="3" stroke-linecap="round" stroke-miterlimit="10"/></g></g><g id="eHvUQR6L4t024_tk" transform="translate(308.733109,188.895851) rotate(3.958710) skewX(0) skewY(0)"><g id="eHvUQR6L4t024" transform="translate(-308.733109,-188.895851)"><path id="eHvUQR6L4t025" d="M239.617000,109.186000C249.075000,100.294000,261.448000,93.456700,276.735000,88.682000C292.022000,83.907300,306.103000,82.466900,318.976000,84.378500C331.850000,86.290200,343.078000,91.242700,352.680000,99.236100C362.281000,107.229000,370.595000,117.108000,377.622000,128.862000C384.658000,140.625000,390.701000,154.505000,395.752000,170.509000C400.812000,186.514000,403.834000,201.345000,404.835000,214.984000C405.837000,228.632000,404.692000,241.463000,401.420000,253.475000C398.139000,265.496000,391.774000,275.943000,382.316000,284.835000C372.857000,293.726000,360.484000,300.564000,345.197000,305.338000C329.910000,310.122000,315.829000,311.553000,302.956000,309.633000C290.082000,307.721000,278.854000,302.769000,269.252000,294.775000C259.651000,286.782000,251.337000,276.913000,244.310000,265.149000C237.274000,253.386000,231.231000,239.507000,226.180000,223.502000C221.120000,207.498000,218.098000,192.676000,217.097000,179.027000C216.105000,165.379000,217.240000,152.549000,220.521000,140.537000C223.793000,128.533000,230.158000,118.077000,239.617000,109.186000ZM308.239000,135.388000C303.188000,134.446000,297.744000,134.873000,291.906000,136.695000C286.068000,138.518000,281.357000,141.257000,277.763000,144.911000C274.161000,148.565000,271.747000,152.451000,270.504000,156.577000C269.261000,160.702000,268.823000,165.788000,269.190000,171.825000C269.547000,177.871000,270.352000,183.553000,271.595000,188.879000C272.837000,194.214000,274.599000,200.473000,276.869000,207.675000C279.140000,214.877000,281.303000,221.021000,283.351000,226.089000C285.398000,231.166000,288.008000,236.288000,291.191000,241.445000C294.365000,246.611000,297.655000,250.532000,301.043000,253.208000C304.431000,255.893000,308.651000,257.707000,313.702000,258.650000C318.753000,259.601000,324.197000,259.165000,330.026000,257.343000C335.855000,255.520000,340.575000,252.781000,344.178000,249.127000C347.772000,245.482000,350.194000,241.587000,351.437000,237.462000C352.671000,233.336000,353.109000,228.259000,352.751000,222.213000C352.385000,216.176000,351.589000,210.494000,350.346000,205.159000C349.104000,199.833000,347.343000,193.565000,345.072000,186.363000C342.801000,179.161000,340.638000,173.026000,338.590000,167.949000C336.543000,162.872000,333.933000,157.759000,330.750000,152.593000C327.568000,147.436000,324.287000,143.515000,320.898000,140.830000C317.501000,138.154000,313.291000,136.340000,308.239000,135.388000Z" fill="rgb(233,233,244)" stroke="none" stroke-width="1"/><path id="eHvUQR6L4t026" d="M235.147000,92.958700C244.605000,84.067300,256.978000,77.229800,272.265000,72.455200C287.552000,67.680500,301.633000,66.240100,314.506000,68.151700C327.380000,70.063400,338.608000,75.015900,348.210000,83.009200C357.811000,91.002600,366.125000,100.881000,373.152000,112.635000C380.188000,124.399000,386.231000,138.278000,391.282000,154.283000C396.342000,170.287000,399.364000,185.118000,400.365000,198.757000C401.367000,212.406000,400.222000,225.236000,396.950000,237.248000C393.669000,249.269000,387.304000,259.717000,377.846000,268.608000C368.387000,277.499000,356.014000,284.337000,340.727000,289.112000C325.440000,293.895000,311.359000,295.327000,298.486000,293.406000C285.613000,291.494000,274.384000,286.542000,264.783000,278.549000C255.181000,270.555000,246.867000,260.686000,239.840000,248.923000C232.804000,237.159000,226.761000,223.280000,221.710000,207.275000C216.650000,191.271000,213.628000,176.449000,212.627000,162.801000C211.635000,149.152000,212.770000,136.322000,216.051000,124.310000C219.323000,112.306000,225.688000,101.850000,235.147000,92.958700ZM303.770000,119.162000C298.718000,118.219000,293.274000,118.646000,287.436000,120.469000C281.598000,122.291000,276.887000,125.030000,273.293000,128.684000C269.691000,132.339000,267.277000,136.224000,266.034000,140.350000C264.791000,144.475000,264.353000,149.561000,264.720000,155.599000C265.078000,161.645000,265.882000,167.326000,267.125000,172.652000C268.367000,177.987000,270.129000,184.247000,272.399000,191.449000C274.670000,198.651000,276.834000,204.795000,278.881000,209.863000C280.928000,214.940000,283.538000,220.061000,286.721000,225.218000C289.895000,230.384000,293.185000,234.305000,296.573000,236.981000C299.961000,239.667000,304.181000,241.480000,309.232000,242.423000C314.283000,243.374000,319.727000,242.939000,325.556000,241.116000C331.385000,239.293000,336.105000,236.555000,339.708000,232.900000C343.302000,229.255000,345.725000,225.360000,346.967000,221.235000C348.201000,217.109000,348.639000,212.032000,348.281000,205.986000C347.915000,199.949000,347.119000,194.267000,345.877000,188.932000C344.634000,183.606000,342.873000,177.338000,340.602000,170.136000C338.331000,162.934000,336.168000,156.799000,334.121000,151.722000C332.073000,146.645000,329.463000,141.532000,326.280000,136.366000C323.098000,131.209000,319.817000,127.288000,316.428000,124.603000C313.031000,121.927000,308.821000,120.113000,303.770000,119.162000Z" fill="none" stroke="rgb(133,133,181)" stroke-width="3" stroke-linecap="round" stroke-miterlimit="10"/></g></g><g id="eHvUQR6L4t027_ts" transform="translate(234.316582,334.431000) scale(1,1)"><g id="eHvUQR6L4t027" transform="translate(-234.316582,-334.431000)"><g id="eHvUQR6L4t028"><path id="eHvUQR6L4t029" d="M213.342000,327.834000C213.342000,327.834000,215.524000,323.432000,217.231000,320.472000C215.953000,320.320000,210.231000,320.089000,207.880000,319.191000C205.672000,323.672000,200.862000,330.243000,197.465000,334.742000L229.219000,334.742000L213.342000,327.834000Z" fill="rgb(0,46,79)" stroke="none" stroke-width="1"/><path id="eHvUQR6L4t030" d="M262.512000,326.553000C262.512000,326.553000,261.484000,322.401000,261.171000,320.463000C257.541000,321.734000,255.422000,320.454000,251.685000,320.463000C252.249000,323.984000,251.829000,330.563000,252.159000,334.431000L282.269000,334.431000L262.512000,326.553000Z" fill="rgb(0,46,79)" stroke="none" stroke-width="1"/><path id="eHvUQR6L4t031" d="M202.748000,324.402000C212.100000,328.696000,214.549000,328.536000,215.175000,328.625000C221.272000,317.840000,243.210000,282.568000,226.511000,258.587000L202.883000,245.953000C202.874000,245.962000,228.147000,276.601000,202.748000,324.402000Z" fill="rgb(10,10,114)" stroke="none" stroke-width="1"/><path id="eHvUQR6L4t032" d="M252.624000,259.992000C248.673000,252.372000,219.994000,229.415000,217.392000,216.229000C217.160000,215.064000,216.963000,213.864000,216.793000,212.637000C212.189000,215.064000,206.208000,215.722000,201.470000,215.962000C196.097000,216.229000,192.888000,216.567000,187.685000,214.051000C188.123000,222.231000,186.782000,230.135000,191.582000,238.422000C201.112000,254.871000,232.760000,268.955000,236.291000,274.387000C243.255000,285.110000,248.262000,316.239000,250.631000,330.439000C254.359000,330.439000,260.956000,326.349000,264.586000,325.068000C263.370000,317.777000,264.997000,283.875000,252.624000,259.992000Z" fill="rgb(26,15,146)" stroke="none" stroke-width="1"/></g><g id="eHvUQR6L4t033_tr" transform="translate(206.849304,155.628418) rotate(0)"><g id="eHvUQR6L4t033" transform="translate(-206.849304,-155.628418)"><path id="eHvUQR6L4t034" d="M204.465000,162.472000C204.331000,162.472000,204.188000,162.463000,204.045000,162.454000C200.934000,162.231000,198.600000,159.537000,198.824000,156.443000C199.065000,153.207000,200.317000,149.508000,200.469000,149.099000C201.488000,146.165000,204.697000,144.609000,207.647000,145.622000C210.589000,146.636000,212.153000,149.828000,211.143000,152.753000C210.785000,153.785000,210.186000,155.927000,210.088000,157.261000C209.874000,160.213000,207.397000,162.463000,204.465000,162.472000Z" fill="rgb(245,172,173)" stroke="none" stroke-width="1"/><path id="eHvUQR6L4t035" d="M222.818000,141.915000C224.410000,147.899000,220.825000,154.043000,214.799000,155.625000C208.774000,157.208000,202.605000,153.642000,201.014000,147.650000L199.011000,140.119000C197.420000,134.135000,201.005000,127.991000,207.031000,126.408000C213.056000,124.825000,219.225000,128.391000,220.816000,134.384000L222.818000,141.915000Z" fill="rgb(254,183,182)" stroke="none" stroke-width="1"/><path id="eHvUQR6L4t036" d="M221.755000,137.931000C220.896000,140.305000,219.690000,142.662000,217.821000,144.262000C213.280000,148.156000,206.324000,149.206000,200.799000,146.876000L201.005000,147.650000C202.596000,153.634000,208.774000,157.208000,214.790000,155.625000C220.807000,154.043000,224.401000,147.907000,222.810000,141.915000L221.755000,137.931000Z" fill="rgb(0,57,106)" stroke="none" stroke-width="1"/><path id="eHvUQR6L4t037" d="M200.978000,147.232000C196.741000,144.529000,192.172000,134.250000,198.859000,132.001000C202.999000,130.605000,201.327000,143.293000,201.327000,146.885000L200.978000,147.232000Z" fill="rgb(0,57,106)" stroke="none" stroke-width="1"/><path id="eHvUQR6L4t038" d="M197.581000,132.845000C192.467000,129.156000,198.806000,118.726000,211.456000,118.726000C219.269000,118.726000,219.216000,124.683000,213.807000,127.893000C209.319000,130.560000,202.364000,128.996000,198.994000,133.548000L197.581000,132.845000Z" fill="rgb(22,40,95)" stroke="none" stroke-width="1"/><path id="eHvUQR6L4t039" d="M221.755000,140.234000C219.967000,137.531000,216.435000,132.054000,215.059000,128.978000C214.191000,127.022000,212.994000,123.678000,216.936000,126.052000C220.235000,128.035000,222.032000,135.033000,221.719000,138.580000L221.755000,140.234000Z" fill="rgb(0,57,106)" stroke="none" stroke-width="1"/></g></g><g id="eHvUQR6L4t040"><path id="eHvUQR6L4t041" d="M201.693000,220.266000C206.280000,220.052000,215.908000,218.790000,219.779000,214.940000C218.983000,208.680000,216.176000,198.606000,217.168000,190.506000C220.530000,163.032000,207.040000,154.789000,207.040000,154.789000C207.040000,154.789000,200.817000,150.468000,195.784000,155.634000C188.194000,163.405000,180.792000,185.394000,181.534000,217.892000C186.764000,220.577000,196.195000,220.515000,201.693000,220.266000Z" fill="rgb(45,248,180)" stroke="none" stroke-width="1"/><path id="eHvUQR6L4t042" d="M270.879000,228.935000C270.432000,228.935000,269.977000,228.890000,269.521000,228.784000C247.779000,223.769000,229.371000,210.814000,216.274000,191.315000C206.467000,176.707000,203.079000,163.601000,202.936000,163.049000C202.123000,159.857000,204.071000,156.612000,207.290000,155.812000C210.499000,155.003000,213.753000,156.941000,214.567000,160.133000C214.630000,160.373000,217.750000,172.163000,226.475000,185.029000C237.990000,202.003000,253.375000,212.815000,272.229000,217.162000C275.457000,217.909000,277.468000,221.110000,276.717000,224.320000C276.074000,227.076000,273.606000,228.935000,270.879000,228.935000Z" fill="rgb(245,172,173)" stroke="none" stroke-width="1"/><path id="eHvUQR6L4t043" d="M257.666000,211.010000C245.687000,205.373000,235.486000,196.428000,227.360000,184.433000C218.742000,171.728000,215.622000,159.982000,215.595000,159.866000C214.799000,156.746000,211.992000,154.567000,208.756000,154.567000C208.175000,154.567000,207.594000,154.638000,207.031000,154.781000C205.207000,155.234000,203.660000,156.381000,202.695000,157.981000C201.729000,159.591000,201.452000,161.476000,201.908000,163.298000L201.935000,163.432000C202.865000,167.451000,206.575000,181.570000,215.389000,194.703000C225.947000,210.423000,240.269000,222.195000,256.817000,228.739000C256.942000,228.784000,257.076000,228.810000,257.210000,228.810000C257.416000,228.810000,257.631000,228.748000,257.800000,228.623000C258.086000,228.428000,258.265000,228.099000,258.265000,227.752000L258.265000,211.952000C258.265000,211.552000,258.033000,211.187000,257.666000,211.010000Z" fill="rgb(36,226,158)" stroke="none" stroke-width="1"/><path id="eHvUQR6L4t044" d="M275.332000,229.361000C273.410000,229.361000,271.371000,229.148000,269.217000,228.721000C268.260000,228.535000,267.643000,227.610000,267.831000,226.658000C268.019000,225.707000,268.948000,225.094000,269.905000,225.280000C275.162000,226.321000,279.542000,225.947000,282.931000,224.151000C283.789000,223.698000,284.862000,224.018000,285.317000,224.871000C285.773000,225.725000,285.452000,226.792000,284.593000,227.245000C281.929000,228.659000,278.827000,229.361000,275.332000,229.361000Z" fill="rgb(245,172,173)" stroke="none" stroke-width="1"/><path id="eHvUQR6L4t045" d="M275.582000,225.431000C274.742000,225.431000,273.874000,225.378000,272.998000,225.245000C272.033000,225.102000,271.371000,224.213000,271.505000,223.253000C271.648000,222.293000,272.542000,221.635000,273.508000,221.768000C279.149000,222.586000,284.370000,219.679000,284.423000,219.643000C285.273000,219.163000,286.346000,219.456000,286.828000,220.292000C287.311000,221.137000,287.025000,222.204000,286.176000,222.684000C285.961000,222.826000,281.330000,225.431000,275.582000,225.431000Z" fill="rgb(245,172,173)" stroke="none" stroke-width="1"/><path id="eHvUQR6L4t046" d="M274.017000,221.982000C273.740000,221.982000,273.463000,221.973000,273.177000,221.955000C272.203000,221.893000,271.470000,221.066000,271.523000,220.097000C271.586000,219.127000,272.426000,218.398000,273.392000,218.452000C277.567000,218.710000,279.757000,216.184000,279.775000,216.167000C280.392000,215.411000,281.500000,215.295000,282.260000,215.909000C283.020000,216.513000,283.136000,217.625000,282.519000,218.372000C282.394000,218.532000,279.506000,221.982000,274.017000,221.982000Z" fill="rgb(245,172,173)" stroke="none" stroke-width="1"/><path id="eHvUQR6L4t047" d="M267.911000,219.021000C266.937000,219.021000,266.150000,218.238000,266.150000,217.269000C266.150000,216.300000,266.937000,215.518000,267.903000,215.518000C268.063000,215.518000,271.541000,215.438000,273.535000,212.583000C274.089000,211.783000,275.189000,211.588000,275.993000,212.139000C276.798000,212.690000,276.994000,213.784000,276.440000,214.584000C273.374000,218.976000,268.135000,219.021000,267.911000,219.021000Z" fill="rgb(245,172,173)" stroke="none" stroke-width="1"/></g><g id="eHvUQR6L4t048"><path id="eHvUQR6L4t049" d="M271.112000,180.085000C270.567000,180.085000,270.021000,179.836000,269.673000,179.356000C267.071000,175.755000,266.526000,172.723000,266.499000,172.599000C266.338000,171.647000,266.982000,170.741000,267.938000,170.572000C268.895000,170.403000,269.807000,171.043000,269.977000,172.003000C269.977000,172.012000,270.441000,174.404000,272.533000,177.311000C273.106000,178.103000,272.918000,179.196000,272.131000,179.756000C271.827000,179.979000,271.461000,180.085000,271.112000,180.085000Z" fill="rgb(245,172,173)" stroke="none" stroke-width="1"/><path id="eHvUQR6L4t050" d="M271.478000,180.859000C271.371000,180.859000,271.255000,180.850000,271.148000,180.832000C267.286000,180.094000,259.633000,180.085000,259.553000,180.085000C258.578000,180.085000,257.791000,179.303000,257.791000,178.334000C257.791000,177.365000,258.578000,176.582000,259.553000,176.582000C259.883000,176.582000,267.625000,176.591000,271.809000,177.391000C272.766000,177.569000,273.392000,178.494000,273.213000,179.445000C273.043000,180.272000,272.310000,180.859000,271.478000,180.859000Z" fill="rgb(245,172,173)" stroke="none" stroke-width="1"/><path id="eHvUQR6L4t051" d="M258.578000,184.513000C257.702000,184.513000,256.942000,183.864000,256.826000,182.975000C256.710000,182.015000,257.389000,181.135000,258.364000,181.019000C259.481000,180.877000,269.396000,179.676000,272.596000,180.245000C273.553000,180.414000,274.196000,181.321000,274.026000,182.282000C273.857000,183.233000,272.936000,183.873000,271.979000,183.704000C269.959000,183.348000,262.825000,184.006000,258.802000,184.504000C258.730000,184.504000,258.650000,184.513000,258.578000,184.513000Z" fill="rgb(245,172,173)" stroke="none" stroke-width="1"/><path id="eHvUQR6L4t052" d="M260.876000,188.479000C260.044000,188.479000,259.311000,187.901000,259.150000,187.056000C258.963000,186.105000,259.588000,185.180000,260.545000,185.002000C264.818000,184.184000,265.963000,183.820000,268.028000,183.162000C268.993000,182.851000,270.200000,182.468000,271.997000,181.944000C272.927000,181.677000,273.910000,182.210000,274.178000,183.144000C274.447000,184.078000,273.910000,185.047000,272.971000,185.314000C271.219000,185.820000,270.093000,186.185000,269.100000,186.496000C266.973000,187.181000,265.685000,187.590000,261.207000,188.443000C261.099000,188.470000,260.983000,188.479000,260.876000,188.479000Z" fill="rgb(245,172,173)" stroke="none" stroke-width="1"/><path id="eHvUQR6L4t053" d="M264.675000,191.271000C263.835000,191.271000,263.084000,190.666000,262.941000,189.813000C262.780000,188.852000,263.424000,187.945000,264.380000,187.785000C270.093000,186.807000,271.228000,184.691000,271.237000,184.673000C271.541000,183.749000,272.542000,183.251000,273.463000,183.553000C274.384000,183.855000,274.893000,184.851000,274.581000,185.767000C274.357000,186.443000,272.828000,189.901000,264.970000,191.244000C264.872000,191.262000,264.774000,191.271000,264.675000,191.271000Z" fill="rgb(245,172,173)" stroke="none" stroke-width="1"/><path id="eHvUQR6L4t054" d="M271.479000,189.155000L270.138000,174.857000C270.138000,174.857000,276.449000,175.311000,276.431000,181.890000C276.422000,184.078000,275.788000,186.523000,271.479000,189.155000Z" fill="rgb(245,172,173)" stroke="none" stroke-width="1"/></g></g></g><g id="eHvUQR6L4t055_ts" transform="translate(371.563384,334.431000) scale(1,1)"><g id="eHvUQR6L4t055" transform="translate(-371.563384,-334.431000)"><g id="eHvUQR6L4t056"><path id="eHvUQR6L4t057" d="M419.309000,315.590000C418.934000,315.297000,416.368000,314.105000,416.010000,313.812000C414.633000,315.866000,413.668000,316.995000,412.014000,318.702000C416.073000,322.223000,415.027000,326.500000,415.027000,326.500000C415.027000,326.500000,412.157000,328.954000,411.031000,329.514000C407.446000,331.266000,400.839000,333.711000,400.839000,333.711000L417.485000,335.009000L429.831000,322.436000C425.460000,319.991000,422.098000,317.777000,419.309000,315.590000Z" fill="rgb(0,46,79)" stroke="none" stroke-width="1"/><path id="eHvUQR6L4t058" d="M354.110000,316.479000C351.464000,316.017000,348.111000,318.035000,345.957000,316.479000C345.456000,321.085000,345.555000,323.592000,345.555000,323.592000L320.934000,333.693000L352.385000,333.693000C352.671000,330.359000,352.063000,327.158000,352.519000,324.073000C352.733000,322.490000,353.815000,318.009000,354.110000,316.479000Z" fill="rgb(0,46,79)" stroke="none" stroke-width="1"/><path id="eHvUQR6L4t059" d="M418.495000,322.570000C420.167000,320.872000,424.181000,321.965000,425.549000,319.911000C418.352000,313.776000,406.927000,301.773000,397.147000,290.890000C393.097000,286.391000,403.816000,260.606000,406.418000,256.285000C411.093000,248.514000,411.817000,242.876000,415.474000,229.575000L388.296000,239.667000C381.833000,262.713000,374.297000,285.760000,381.851000,296.749000C389.834000,308.370000,409.332000,320.365000,416.171000,325.042000C416.448000,325.237000,418.272000,322.401000,418.495000,322.570000Z" fill="rgb(10,10,114)" stroke="none" stroke-width="1"/><path id="eHvUQR6L4t060" d="M385.516000,226.018000C385.507000,226.018000,385.507000,226.018000,385.507000,226.009000C384.506000,228.010000,383.549000,229.922000,382.664000,231.709000L382.655000,231.709000C380.429000,235.630000,378.024000,239.258000,375.709000,242.743000C353.350000,276.272000,343.489000,312.407000,341.997000,325.051000C344.133000,326.704000,350.114000,326.491000,352.805000,326.953000C356.926000,305.987000,371.176000,284.346000,390.406000,268.537000C396.843000,263.247000,401.653000,256.525000,405.881000,250.941000C408.402000,247.615000,410.905000,242.281000,413.301000,235.825000C404.594000,231.291000,395.153000,228.152000,385.516000,226.018000Z" fill="rgb(26,15,146)" stroke="none" stroke-width="1"/></g><g id="eHvUQR6L4t061_tr" transform="translate(418.916000,170.545013) rotate(0)"><g id="eHvUQR6L4t061" transform="translate(-418.916000,-170.545013)"><path id="eHvUQR6L4t062" d="M420.426000,127.013000L409.565000,147.223000C409.565000,147.223000,412.756000,155.412000,420.677000,152.842000L430.484000,128.862000L420.426000,127.013000Z" fill="rgb(0,57,106)" stroke="none" stroke-width="1"/><path id="eHvUQR6L4t063" d="M420.382000,170.358000C420.507000,170.420000,420.641000,170.483000,420.784000,170.536000C423.815000,171.728000,427.623000,169.638000,429.286000,165.868000C431.020000,161.920000,432.093000,156.941000,432.209000,156.390000C433.032000,152.442000,430.985000,149.081000,427.632000,148.894000C424.280000,148.708000,420.891000,151.757000,420.060000,155.705000C419.765000,157.092000,419.032000,159.911000,418.317000,161.547000C416.716000,165.139000,417.655000,168.971000,420.382000,170.358000Z" fill="rgb(254,183,182)" stroke="none" stroke-width="1"/><path id="eHvUQR6L4t064" d="M423.886000,159.706000C422.411000,160.302000,420.918000,160.729000,419.398000,161.058000C419.354000,160.213000,419.497000,159.342000,419.845000,158.506000C420.391000,157.217000,420.847000,154.941000,421.008000,153.811000C421.455000,150.602000,424.432000,148.370000,427.659000,148.814000C430.332000,149.179000,432.335000,151.286000,432.683000,153.820000C430.699000,156.523000,426.568000,158.622000,423.886000,159.706000Z" fill="rgb(234,162,162)" stroke="none" stroke-width="1"/><path id="eHvUQR6L4t065" d="M416.126000,141.541000C413.462000,147.063000,415.805000,153.678000,421.347000,156.337000C426.899000,158.986000,433.559000,156.657000,436.223000,151.144000L439.576000,144.209000C442.240000,138.687000,439.898000,132.063000,434.355000,129.413000C428.803000,126.764000,422.143000,129.084000,419.479000,134.606000L416.126000,141.541000Z" fill="rgb(254,183,182)" stroke="none" stroke-width="1"/><path id="eHvUQR6L4t066" d="M443.974000,160.542000L428.830000,159.084000C428.830000,159.084000,436.733000,130.383000,442.642000,128.462000C442.642000,128.462000,457.402000,134.259000,443.974000,160.542000Z" fill="rgb(0,57,106)" stroke="none" stroke-width="1"/><path id="eHvUQR6L4t067" d="M439.603000,132.623000C438.816000,133.059000,425.692000,134.615000,418.916000,128.924000C418.916000,128.924000,426.103000,118.104000,443.214000,128.835000L439.603000,132.623000Z" fill="rgb(0,57,106)" stroke="none" stroke-width="1"/></g></g><g id="eHvUQR6L4t068"><path id="eHvUQR6L4t069" d="M406.480000,247.998000C405.246000,247.358000,422.170000,214.753000,423.636000,211.570000C426.702000,204.892000,429.348000,197.984000,430.931000,190.808000C432.907000,181.855000,433.997000,172.217000,428.168000,164.268000C426.228000,161.618000,421.303000,161.556000,418.549000,162.694000C414.732000,164.268000,413.507000,170.892000,411.871000,174.386000C405.693000,187.572000,398.541000,200.233000,392.024000,213.224000C391.345000,214.557000,384.702000,228.944000,384.104000,228.810000C393.723000,230.953000,397.782000,243.472000,406.480000,247.998000Z" fill="rgb(36,226,158)" stroke="none" stroke-width="1"/><path id="eHvUQR6L4t070" d="M363.828000,235.239000C361.235000,235.239000,358.804000,233.620000,357.910000,231.051000C356.774000,227.797000,358.303000,225.067000,361.575000,223.947000C369.174000,221.324000,381.037000,210.174000,388.895000,199.086000C404.844000,176.591000,416.046000,164.116000,416.511000,163.601000C418.817000,161.040000,422.787000,160.827000,425.361000,163.121000C427.936000,165.415000,428.151000,169.353000,425.844000,171.914000C425.737000,172.039000,414.624000,184.424000,399.141000,206.262000C391.381000,217.207000,377.667000,230.828000,365.884000,234.892000C365.196000,235.123000,364.507000,235.239000,363.828000,235.239000Z" fill="rgb(245,172,173)" stroke="none" stroke-width="1"/><path id="eHvUQR6L4t071" d="M354.977000,233.514000C352.403000,233.514000,349.461000,232.829000,346.172000,231.451000C345.233000,231.060000,344.795000,229.984000,345.188000,229.050000C345.581000,228.117000,346.663000,227.672000,347.602000,228.063000C352.456000,230.091000,356.309000,230.384000,358.768000,228.899000C359.644000,228.375000,360.770000,228.650000,361.298000,229.522000C361.825000,230.384000,361.548000,231.513000,360.672000,232.038000C359.054000,233.025000,357.150000,233.514000,354.977000,233.514000Z" fill="rgb(245,172,173)" stroke="none" stroke-width="1"/><path id="eHvUQR6L4t072" d="M357.185000,236.181000C354.253000,236.181000,351.902000,235.612000,349.220000,234.972000L348.389000,234.776000C347.396000,234.545000,346.788000,233.549000,347.030000,232.562000C347.262000,231.575000,348.263000,230.962000,349.247000,231.211000L350.087000,231.415000C354.557000,232.491000,357.507000,233.203000,364.042000,231.522000C365.035000,231.273000,366.036000,231.860000,366.286000,232.838000C366.537000,233.825000,365.947000,234.821000,364.963000,235.070000C361.816000,235.879000,359.349000,236.181000,357.185000,236.181000Z" fill="rgb(245,172,173)" stroke="none" stroke-width="1"/><path id="eHvUQR6L4t073" d="M354.852000,229.904000C349.068000,229.904000,345.108000,226.365000,344.911000,226.187000C344.160000,225.503000,344.106000,224.347000,344.795000,223.600000C345.483000,222.853000,346.645000,222.809000,347.396000,223.484000C347.584000,223.653000,351.821000,227.361000,357.516000,225.903000C358.509000,225.645000,359.510000,226.241000,359.760000,227.219000C360.010000,228.197000,359.420000,229.201000,358.437000,229.450000C357.185000,229.770000,355.979000,229.904000,354.852000,229.904000Z" fill="rgb(245,172,173)" stroke="none" stroke-width="1"/><path id="eHvUQR6L4t074" d="M358.714000,227.939000C358.643000,227.939000,358.571000,227.930000,358.500000,227.930000C352.224000,227.201000,349.676000,222.702000,349.569000,222.515000C349.077000,221.626000,349.408000,220.515000,350.302000,220.025000C351.187000,219.545000,352.304000,219.857000,352.796000,220.737000C352.885000,220.888000,354.620000,223.787000,358.929000,224.284000C359.939000,224.400000,360.663000,225.316000,360.547000,226.321000C360.431000,227.254000,359.635000,227.939000,358.714000,227.939000Z" fill="rgb(245,172,173)" stroke="none" stroke-width="1"/><path id="eHvUQR6L4t075" d="M427.328000,160.933000C425.638000,159.422000,423.448000,158.595000,421.177000,158.595000C418.567000,158.595000,416.064000,159.706000,414.321000,161.636000C413.847000,162.160000,402.582000,174.697000,386.491000,197.388000C385.436000,198.873000,384.282000,200.393000,383.040000,201.896000L365.178000,221.982000L370.738000,235.239000L396.476000,214.468000C398.327000,212.281000,400.026000,210.085000,401.545000,207.951000C416.931000,186.247000,427.927000,173.995000,428.034000,173.870000C431.423000,170.109000,431.101000,164.303000,427.328000,160.933000Z" fill="rgb(25,206,137)" stroke="none" stroke-width="1"/></g><g id="eHvUQR6L4t076"><path id="eHvUQR6L4t077" d="M346.806000,200.251000C346.493000,200.358000,346.145000,200.376000,345.805000,200.278000C344.938000,200.020000,344.437000,199.113000,344.696000,198.259000C345.635000,195.076000,345.304000,192.836000,345.304000,192.818000C345.170000,191.929000,345.769000,191.102000,346.663000,190.951000C347.548000,190.808000,348.389000,191.404000,348.541000,192.284000C348.558000,192.400000,349.014000,195.227000,347.843000,199.175000C347.682000,199.700000,347.289000,200.091000,346.806000,200.251000Z" fill="rgb(245,172,173)" stroke="none" stroke-width="1"/><path id="eHvUQR6L4t078" d="M358.705000,198.606000C358.625000,198.633000,358.535000,198.659000,358.446000,198.677000C355.737000,199.149000,348.353000,200.482000,346.726000,201.051000C345.868000,201.345000,344.938000,200.900000,344.634000,200.047000C344.339000,199.202000,344.786000,198.268000,345.644000,197.966000C347.816000,197.210000,356.864000,195.636000,357.883000,195.459000C358.777000,195.307000,359.626000,195.894000,359.778000,196.783000C359.921000,197.584000,359.447000,198.348000,358.705000,198.606000Z" fill="rgb(245,172,173)" stroke="none" stroke-width="1"/><path id="eHvUQR6L4t079" d="M358.848000,202.180000C358.714000,202.225000,358.571000,202.260000,358.419000,202.269000C358.339000,202.278000,350.284000,202.838000,346.797000,203.834000C345.930000,204.083000,345.018000,203.585000,344.768000,202.714000C344.518000,201.851000,345.018000,200.927000,345.894000,200.696000C349.712000,199.602000,357.847000,199.033000,358.196000,199.006000C359.099000,198.944000,359.876000,199.620000,359.939000,200.518000C360.001000,201.274000,359.537000,201.940000,358.848000,202.180000Z" fill="rgb(245,172,173)" stroke="none" stroke-width="1"/><path id="eHvUQR6L4t080" d="M359.295000,205.817000C359.134000,205.870000,358.965000,205.906000,358.795000,205.906000C351.044000,206.093000,349.283000,206.555000,348.335000,206.795000C347.924000,206.902000,347.539000,207,346.976000,207.044000C346.073000,207.115000,345.286000,206.448000,345.215000,205.550000C345.143000,204.652000,345.823000,203.870000,346.726000,203.799000C346.994000,203.781000,347.173000,203.728000,347.504000,203.648000C348.657000,203.345000,350.588000,202.847000,358.714000,202.652000C359.617000,202.634000,360.368000,203.345000,360.395000,204.243000C360.413000,204.972000,359.948000,205.595000,359.295000,205.817000Z" fill="rgb(245,172,173)" stroke="none" stroke-width="1"/><path id="eHvUQR6L4t081" d="M357.105000,209.347000C357.069000,209.356000,357.034000,209.374000,356.989000,209.383000C349.837000,211.312000,348.228000,207.649000,348.067000,207.222000L351.133000,206.075000C351.133000,206.075000,351.124000,206.039000,351.088000,205.977000C351.097000,205.995000,351.938000,207.373000,356.131000,206.235000C356.998000,205.995000,357.901000,206.511000,358.142000,207.382000C358.366000,208.209000,357.910000,209.071000,357.105000,209.347000Z" fill="rgb(245,172,173)" stroke="none" stroke-width="1"/><path id="eHvUQR6L4t082" d="M350.615000,209.534000C350.615000,209.534000,349.059000,209.383000,346.967000,210.112000C345.206000,210.725000,341.773000,208.582000,340.691000,205.506000C340.691000,205.506000,337.562000,199.015000,347.718000,197.477000L350.615000,209.534000Z" fill="rgb(245,172,173)" stroke="none" stroke-width="1"/></g></g></g><g id="eHvUQR6L4t083_ts" transform="translate(538.607829,338.775006) scale(1,1)"><g id="eHvUQR6L4t083" transform="translate(-538.607829,-338.775006)"><path id="eHvUQR6L4t084" d="M417.241000,303.999000L417.241000,245.805000L511.495000,112.114000L587.091000,112.114000L587.091000,243.600000L609.861000,243.600000L609.861000,303.999000L587.091000,303.999000L587.091000,338.605000L516.242000,338.605000L516.242000,303.999000L417.241000,303.999000ZM521.937000,191.701000L487.777000,243.609000L521.937000,243.609000L521.937000,191.701000Z" fill="rgb(233,233,244)" stroke="none" stroke-width="1"/><path id="eHvUQR6L4t085" d="M411.040000,286.818000L411.040000,228.623000L505.293000,94.932600L580.889000,94.932600L580.889000,226.427000L603.659000,226.427000L603.659000,286.827000L580.889000,286.827000L580.889000,321.432000L510.040000,321.432000L510.040000,286.827000L411.040000,286.827000L411.040000,286.818000ZM515.735000,174.519000L481.575000,226.427000L515.735000,226.427000L515.735000,174.519000Z" fill="none" stroke="rgb(133,133,181)" stroke-width="3" stroke-linecap="round" stroke-miterlimit="10"/></g></g></g><g id="eHvUQR6L4t086_tk" transform="translate(106.773426,328.625000) skewX(-7) skewY(0)"><g id="eHvUQR6L4t086" transform="translate(-107.153201,-328.625000)"><path id="eHvUQR6L4t087" d="M133.817000,325.204000C133.817000,325.204000,137.279000,278.347000,122.015000,276.040000C106.838000,273.733000,113.792000,292.361000,106.146000,289.564000C98.499400,286.796000,98.845600,261.565000,81.360100,263.064000C63.874600,264.564000,86.467300,284.575000,75.906700,284.575000C65.346200,284.575000,79.715400,296.600000,79.715400,306.087000C79.715400,315.573000,51.813700,295.562000,48.466600,308.393000C43.705700,326.790000,76.945500,325.522000,76.945500,325.522000L133.817000,325.204000Z" fill="rgb(86,77,159)" stroke="none" stroke-width="1"/><path id="eHvUQR6L4t088" d="M60.185000,323.584000C71.640000,321.047000,95.848400,317.788000,105.572000,324.046000C105.918000,324.507000,106.265000,324.853000,106.611000,325.430000L108.688000,325.430000C107.188000,323.411000,105.688000,321.278000,104.187000,319.201000C107.765000,308.561000,107.419000,296.306000,106.842000,289.962000C106.842000,289.962000,106.842000,289.962000,106.726000,289.962000C106.611000,289.962000,106.496000,289.962000,106.380000,289.674000C106.380000,289.674000,106.380000,289.674000,106.265000,289.674000C106.265000,289.674000,106.265000,289.674000,106.149000,289.674000C106.149000,289.674000,106.149000,289.674000,106.034000,289.674000C106.034000,289.674000,106.034000,289.674000,105.918000,289.674000C105.918000,289.674000,105.918000,289.674000,105.803000,289.674000L105.688000,289.616000C105.572000,289.616000,105.572000,289.530000,105.457000,289.530000C106.034000,295.326000,106.611000,307.235000,103.379000,317.904000C101.417000,314.905000,99.570600,311.906000,97.695100,308.763000C101.504000,305.303000,101.158000,291.173000,100.350000,281.225000C100.234000,280.879000,100.119000,280.649000,100.003000,280.303000C100.003000,280.187000,100.003000,280.187000,99.888000,280.072000C99.426300,278.803000,98.849200,277.534000,98.272200,276.266000C99.541700,288.175000,99.888000,303.688000,96.887200,307.148000C87.278800,290.020000,80.209600,272.084000,77.439600,264.558000C76.862600,264.904000,76.400900,265.135000,76.054600,265.597000C78.478400,272.200000,84.047200,286.300000,91.578000,300.660000C95.617600,308.532000,99.801400,315.482000,103.726000,321.249000C92.501400,315.799000,64.253400,320.211000,56.376300,322.518000C57.299600,322.662000,58.684600,323.123000,60.185000,323.584000Z" fill="rgb(235,237,245)" stroke="none" stroke-width="1"/><path id="eHvUQR6L4t089" d="M155.194000,281.587000C158.855000,283.170000,161.043000,287.839000,159.496000,291.540000C158.681000,293.491000,156.983000,295.120000,156.471000,297.182000C155.885000,299.522000,156.466000,302.299000,156.397000,304.694000C156.283000,308.740000,154.475000,312.455000,151.330000,314.992000C147.843000,317.811000,142.693000,317.179000,139.553000,320.284000C137.438000,322.379000,138.381000,325.752000,137.727000,328.386000C135.058000,339.072000,119.001000,334.763000,112.877000,330.103000C106.327000,325.120000,100.166000,311.970000,109.028000,306.189000C112.103000,304.182000,116.182000,304.883000,119.194000,302.751000C123.167000,299.937000,121.450000,294.732000,123.487000,290.967000C127.881000,282.847000,136.134000,287.904000,142.391000,284.868000C146.584000,282.838000,150.149000,279.405000,155.194000,281.587000Z" fill="rgb(80,188,141)" stroke="none" stroke-width="1"/><path id="eHvUQR6L4t090" d="M150.516000,305.426000C150.438000,305.311000,150.292000,305.283000,150.177000,305.362000C147.348000,307.276000,144.305000,307.489000,141.137000,305.989000C138.752000,304.863000,137.182000,303.138000,137.164000,303.119000C137.164000,303.119000,137.160000,303.119000,137.160000,303.115000C137.530000,302.750000,137.896000,302.386000,138.267000,302.026000C139.952000,300.383000,141.654000,298.750000,143.362000,297.130000C143.430000,297.135000,143.504000,297.107000,143.554000,297.052000C143.595000,297.006000,143.609000,296.950000,143.609000,296.895000C145.824000,294.796000,148.058000,292.715000,150.315000,290.666000C150.365000,290.620000,150.369000,290.546000,150.328000,290.496000C150.282000,290.445000,150.209000,290.440000,150.159000,290.482000C147.861000,292.466000,145.586000,294.482000,143.330000,296.512000C142.423000,295.635000,138.871000,291.907000,140.666000,288.918000C140.734000,288.802000,140.698000,288.650000,140.583000,288.581000C140.469000,288.512000,140.318000,288.548000,140.249000,288.664000C139.311000,290.223000,139.535000,292.184000,140.895000,294.325000C141.531000,295.326000,142.268000,296.138000,142.735000,296.614000C142.822000,296.701000,142.899000,296.775000,142.963000,296.840000C141.238000,298.399000,139.521000,299.963000,137.819000,301.546000C134.550000,304.582000,131.319000,307.669000,128.147000,310.815000C127.016000,309.007000,124.087000,303.562000,127.016000,299.580000C127.099000,299.470000,127.076000,299.317000,126.966000,299.239000C126.856000,299.160000,126.705000,299.179000,126.627000,299.290000C123.469000,303.576000,126.659000,309.376000,127.794000,311.171000C127.158000,311.803000,126.517000,312.435000,125.886000,313.076000C122.357000,316.657000,118.896000,320.315000,115.624000,324.163000C114.168000,322.119000,109.998000,315.517000,112.781000,310.377000C112.845000,310.257000,112.804000,310.109000,112.685000,310.045000C112.566000,309.980000,112.420000,310.022000,112.355000,310.142000C110.909000,312.809000,111.037000,316.246000,112.726000,320.085000C113.610000,322.092000,114.708000,323.734000,115.299000,324.551000C115.079000,324.809000,114.855000,325.068000,114.639000,325.331000C113.573000,326.623000,112.529000,327.938000,111.522000,329.290000C111.953000,329.622000,112.342000,330,112.680000,330.425000C113.669000,329.013000,114.713000,327.633000,115.779000,326.272000C116.914000,324.842000,118.077000,323.434000,119.267000,322.041000C121.006000,323.573000,126.787000,328.076000,132.230000,325.654000C132.353000,325.598000,132.408000,325.455000,132.353000,325.331000C132.298000,325.206000,132.157000,325.151000,132.033000,325.206000C126.838000,327.522000,121.249000,323.144000,119.583000,321.672000C121.872000,319.005000,124.243000,316.398000,126.650000,313.833000C129.964000,310.308000,133.360000,306.866000,136.812000,303.470000C136.830000,303.488000,136.871000,303.535000,136.940000,303.604000C137.915000,304.591000,143.911000,310.202000,150.447000,305.777000C150.562000,305.689000,150.589000,305.537000,150.516000,305.426000Z" fill="rgb(255,255,255)" stroke="none" stroke-width="1"/></g></g><g id="eHvUQR6L4t091_tk" transform="translate(507.349500,338.775006) skewX(7) skewY(0)"><g id="eHvUQR6L4t091" transform="translate(-494.576780,-339.150000)"><path id="eHvUQR6L4t092" d="M470.202000,335.984000C470.202000,335.984000,466.920000,291.567000,481.388000,289.380000C495.775000,287.194000,489.184000,304.851000,496.432000,302.200000C503.680000,299.576000,503.351000,275.659000,519.926000,277.080000C536.501000,278.502000,515.085000,297.471000,525.095000,297.471000C535.106000,297.471000,521.485000,308.869000,521.485000,317.862000C521.485000,326.854000,547.933000,307.885000,551.106000,320.048000C555.619000,337.487000,524.111000,336.285000,524.111000,336.285000L470.202000,335.984000Z" fill="rgb(86,77,159)" stroke="none" stroke-width="1"/><path id="eHvUQR6L4t093" d="M539.998000,334.448000C529.140000,332.043000,506.192000,328.954000,496.975000,334.886000C496.647000,335.323000,496.319000,335.651000,495.990000,336.198000L494.021000,336.198000C495.443000,334.284000,496.866000,332.262000,498.288000,330.294000C494.896000,320.208000,495.225000,308.591000,495.772000,302.578000C495.772000,302.578000,495.772000,302.578000,495.881000,302.578000C495.990000,302.578000,496.100000,302.578000,496.209000,302.304000C496.209000,302.304000,496.209000,302.304000,496.319000,302.304000C496.319000,302.304000,496.319000,302.304000,496.428000,302.304000C496.428000,302.304000,496.428000,302.304000,496.537000,302.304000C496.537000,302.304000,496.537000,302.304000,496.647000,302.304000C496.647000,302.304000,496.647000,302.304000,496.756000,302.304000L496.866000,302.250000C496.975000,302.250000,496.975000,302.168000,497.084000,302.168000C496.537000,307.662000,495.990000,318.950000,499.054000,329.064000C500.914000,326.221000,502.664000,323.378000,504.442000,320.399000C500.832000,317.119000,501.160000,303.725000,501.926000,294.295000C502.035000,293.967000,502.144000,293.749000,502.254000,293.421000C502.254000,293.311000,502.254000,293.311000,502.363000,293.202000C502.801000,291.999000,503.348000,290.797000,503.895000,289.594000C502.691000,300.883000,502.363000,315.588000,505.208000,318.868000C514.316000,302.632000,521.017000,285.631000,523.642000,278.497000C524.189000,278.825000,524.627000,279.043000,524.955000,279.481000C522.658000,285.740000,517.379000,299.106000,510.240000,312.718000C506.411000,320.180000,502.445000,326.768000,498.725000,332.234000C509.365000,327.068000,536.142000,331.250000,543.608000,333.437000C542.733000,333.574000,541.420000,334.011000,539.998000,334.448000Z" fill="rgb(235,237,245)" stroke="none" stroke-width="1"/><path id="eHvUQR6L4t094" d="M487.757000,338.131000C487.757000,338.131000,498.145000,313.349000,492.295000,308.902000C486.445000,304.455000,482.946000,309.435000,480.595000,307.628000C478.244000,305.799000,487.921000,292.435000,481.169000,287.270000C474.389000,282.175000,471.683000,292.852000,467.855000,289.911000C463.946000,286.946000,463.591000,263.554000,453.722000,266.009000C443.853000,268.464000,459.026000,290.281000,455.280000,290.490000C451.535000,290.698000,447.243000,284.236000,443.908000,290.791000C440.573000,297.345000,465.094000,311.126000,454.542000,311.635000C443.881000,312.122000,446.642000,318.190000,449.594000,322.938000C452.547000,327.662000,468.183000,339.150000,468.183000,339.150000L487.757000,338.131000Z" fill="rgb(80,188,141)" stroke="none" stroke-width="1"/><path id="eHvUQR6L4t095" d="M444.067000,290.491000C448.714000,295.262000,457.134000,303.183000,463.832000,306.009000C458.720000,288.221000,454.592000,271.129000,453.416000,266.103000C453.526000,266.033000,453.608000,266.056000,453.717000,265.987000C453.826000,265.917000,453.908000,265.941000,454.127000,265.894000C455.002000,269.646000,457.599000,280.370000,460.989000,293.062000C462.110000,288.893000,463.367000,283.936000,464.297000,280.208000C464.379000,280.694000,464.570000,281.134000,464.652000,281.644000C463.422000,286.762000,461.754000,293.015000,461.371000,294.405000C461.645000,295.331000,461.918000,296.258000,462.164000,297.277000L466.347000,287.318000C466.456000,287.665000,466.593000,287.920000,466.730000,288.175000L462.492000,298.296000C463.859000,303.345000,465.445000,308.579000,466.976000,313.814000C472.498000,309.459000,477.036000,293.988000,479.086000,285.928000C479.277000,285.951000,479.523000,286.067000,479.797000,286.206000C477.692000,294.498000,473.099000,310.201000,467.194000,314.485000C469.627000,322.429000,472.279000,330.258000,474.903000,336.951000C480.234000,333.454000,486.822000,315.643000,489.720000,307.236000C489.884000,307.352000,490.158000,307.375000,490.431000,307.514000C487.478000,316.153000,480.863000,334.195000,475.177000,337.553000C475.286000,337.901000,475.505000,338.248000,475.614000,338.596000L474.849000,338.642000C473.810000,335.978000,472.662000,333.060000,471.568000,329.818000C466.566000,327.988000,453.772000,319.604000,447.129000,315.157000C447.183000,314.925000,447.238000,314.694000,447.347000,314.555000C453.635000,318.770000,466.019000,326.923000,471.240000,329.123000C469.081000,322.916000,466.702000,315.597000,464.351000,307.259000C464.297000,307.097000,464.242000,306.842000,464.187000,306.680000C457.353000,304.063000,448.769000,296.026000,443.958000,291.093000C443.985000,290.931000,444.012000,290.861000,444.122000,290.722000C444.040000,290.630000,444.067000,290.560000,444.067000,290.491000Z" fill="rgb(255,255,255)" stroke="none" stroke-width="1"/></g></g></g></svg>