<svg width="617" height="662" viewBox="0 0 617 662" fill="none" xmlns="http://www.w3.org/2000/svg">
<g clip-path="url(#clip0)">
<path opacity="0.19" d="M595.967 157.81C587.873 128.066 567.772 100.444 540.618 83.2535C472.161 39.9133 413.515 94.3693 350.065 112.912C320.739 121.49 291.503 116.759 263.718 104.63C235.017 92.1118 211.165 71.71 180.873 61.6933C152.201 52.2216 118.198 51.7244 95.3458 71.3622C72.8676 90.6988 59.5638 117.962 52.7495 145.604C43.7263 182.197 50.7339 220.073 72.3068 252.514C98.3043 291.61 137.76 320.798 179.024 345.125C245.957 384.562 321.628 409.392 394.953 371.521C416.654 360.323 435.206 344.906 454.695 330.82C474.554 316.461 495.436 307.008 517.666 296.485C558.254 277.263 592.842 243.695 598.97 200.099C600.935 186.121 599.768 171.734 595.967 157.81Z" fill="url(#paint0_linear)"/>
<path d="M186.3 101.529L175.947 100.487C173.604 100.252 171.69 98.5513 171.103 96.2873C170.73 94.9013 170.318 93.5113 169.858 92.1754C169.104 89.9514 169.74 87.4763 171.571 85.9833L179.621 79.3944C181.997 77.4434 182.357 73.9398 180.406 71.5644L165.401 53.2263C163.45 50.8509 159.946 50.4901 157.571 52.4415L149.521 59.0308C147.69 60.5236 145.157 60.6705 143.117 59.4804C141.89 58.7579 140.616 58.0902 139.319 57.44C137.199 56.402 135.916 54.192 136.15 51.849L137.192 41.4964C137.498 38.4323 135.267 35.6974 132.203 35.3921L108.633 33.028C105.569 32.7227 102.834 34.9532 102.529 38.0173L101.487 48.3697C101.252 50.7127 99.551 52.6274 97.2869 53.2138C95.9015 53.5866 94.5111 53.9995 93.1755 54.4597C90.9512 55.2134 88.4764 54.5768 86.9836 52.746L80.3944 44.6958C78.4431 42.3205 74.9398 41.9598 72.5645 43.9112L54.2262 58.9162C51.8509 60.8675 51.4902 64.3709 53.4416 66.7462L60.0308 74.7964C61.5236 76.6274 61.6705 79.1604 60.4804 81.2004C59.7579 82.4274 59.0902 83.7013 58.4399 84.9983C57.402 87.1183 55.1921 88.4013 52.8491 88.1663L42.4965 87.1243C39.4324 86.8193 36.6974 89.0504 36.3921 92.1144L34.028 115.683C33.7226 118.747 35.9531 121.482 39.0172 121.788L49.3698 122.83C51.7128 123.064 53.6275 124.766 54.2139 127.03C54.5867 128.415 54.9995 129.806 55.4597 131.141C56.2133 133.366 55.5768 135.84 53.746 137.333L45.6958 143.922C43.3205 145.874 42.9598 149.377 44.9111 151.752L59.9163 170.091C61.8676 172.466 65.3709 172.827 67.7462 170.875L75.7964 164.286C77.6272 162.793 80.1603 162.646 82.2002 163.836C83.4272 164.559 84.7017 165.227 85.9986 165.877C88.1186 166.915 89.4014 169.125 89.1667 171.468L88.1247 181.82C87.8194 184.884 90.0499 187.619 93.114 187.925L116.684 190.289C119.748 190.594 122.483 188.364 122.788 185.3L123.83 174.947C124.065 172.604 125.766 170.689 128.03 170.103C129.416 169.73 130.806 169.317 132.142 168.857C134.366 168.103 136.841 168.74 138.334 170.571L144.923 178.621C146.874 180.996 150.377 181.357 152.753 179.406L171.091 164.401C173.466 162.449 173.827 158.946 171.876 156.571L165.286 148.52C163.794 146.69 163.647 144.157 164.837 142.117C165.559 140.89 166.227 139.615 166.877 138.318C167.915 136.198 170.125 134.915 172.468 135.15L182.821 136.192C185.885 136.497 188.62 134.267 188.925 131.203L191.289 107.633C191.594 104.569 189.344 101.832 186.3 101.529ZM110.258 135.761C96.9608 134.428 87.244 122.557 88.5762 109.26C89.9083 95.9634 101.76 86.2444 115.077 87.5784C128.374 88.9104 138.093 100.762 136.758 114.079C135.426 127.376 123.555 137.093 110.258 135.761Z" fill="url(#paint1_linear)"/>
<path d="M118.203 56.3586C87.6643 53.298 60.4167 75.5954 57.3761 106.136C54.3156 136.675 76.6128 163.923 107.154 166.963C137.695 170.004 164.94 147.726 167.981 117.185C171.021 86.6443 148.742 59.4191 118.203 56.3586ZM109.536 142.929C92.2743 141.198 79.6766 125.8 81.3875 108.536C83.0983 91.2713 98.5167 78.6764 115.781 80.3874C133.043 82.1184 145.641 97.5164 143.93 114.781C142.196 132.062 126.818 144.663 109.536 142.929Z" fill="url(#paint2_linear)"/>
<path d="M109.841 420.089C96.4268 420.089 85.518 409.219 85.518 395.868V151.403C85.518 139.942 93.6848 129.959 104.949 127.669C106.535 127.345 108.195 127.182 109.841 127.182H492.776C506.189 127.182 517.098 138.052 517.098 151.417V395.883C517.098 409.249 506.189 420.118 492.776 420.118H109.841V420.089Z" fill="#EFF0F0"/>
<path d="M498.705 407.876H115.769C105.616 407.876 97.3754 399.665 97.3754 389.548V145.097C97.3754 134.981 105.616 126.769 115.769 126.769H498.705C508.857 126.769 517.098 134.981 517.098 145.097V389.563C517.084 399.679 508.857 407.876 498.705 407.876Z" fill="white"/>
<path d="M498.704 126.769H115.769C105.616 126.769 97.3754 134.981 97.3754 145.097V161.136H517.083V145.097C517.083 134.981 508.857 126.769 498.704 126.769Z" fill="#3532BA"/>
<path d="M122.202 144.58C122.202 147.504 119.83 149.867 116.896 149.867C113.961 149.867 111.59 147.504 111.59 144.58C111.59 141.656 113.961 139.293 116.896 139.293C119.83 139.293 122.202 141.656 122.202 144.58Z" fill="white"/>
<path d="M143.827 144.58C143.827 147.504 141.455 149.867 138.521 149.867C135.586 149.867 133.214 147.504 133.214 144.58C133.214 141.656 135.586 139.293 138.521 139.293C141.441 139.293 143.827 141.656 143.827 144.58Z" fill="white"/>
<path d="M165.437 144.58C165.437 147.504 163.065 149.867 160.131 149.867C157.196 149.867 154.825 147.504 154.825 144.58C154.825 141.656 157.196 139.293 160.131 139.293C163.065 139.293 165.437 141.656 165.437 144.58Z" fill="white"/>
<path d="M230.835 277.295C221.933 285.157 210.305 289.889 197.548 289.889C169.764 289.889 147.17 267.39 147.17 239.692C147.17 213.041 168.077 191.214 194.395 189.624V210.623C179.665 212.175 168.155 224.64 168.155 239.692C168.155 255.842 181.34 268.98 197.548 268.98C204.517 268.98 210.941 266.549 215.976 262.502L230.835 277.295Z" fill="#2DF8B4"/>
<path d="M247.796 242.834C247.122 254.291 242.554 264.752 235.286 272.872L220.427 258.054C223.866 253.825 226.137 248.562 226.721 242.834H247.796Z" fill="#24E29E"/>
<path d="M247.796 236.562H226.721C225.294 222.92 214.38 212.046 200.689 210.623V189.624C225.969 191.137 246.278 211.373 247.796 236.562Z" fill="#5600E3"/>
<path d="M340.971 304.909H322.696V350.647H340.971V304.909Z" fill="#211E87"/>
<path d="M382.191 264.753H363.901V350.633H382.191V264.753Z" fill="#24E29E"/>
<path d="M423.38 273.629H405.105V350.633H423.38V273.629Z" fill="#211E87"/>
<path d="M464.585 230.165H446.295V350.647H464.585V230.165Z" fill="#24E29E"/>
<g opacity="0.15">
<g opacity="0.15">
<g opacity="0.15">
<path opacity="0.26" d="M372.29 264.753H363.901V350.633H372.29V264.753Z" fill="black"/>
</g>
</g>
</g>
<g opacity="0.6">
<g opacity="0.6">
<g opacity="0.6">
<path opacity="0.26" d="M331.085 304.909H322.696V350.647H331.085V304.909Z" fill="black"/>
</g>
</g>
</g>
<g opacity="0.62">
<g opacity="0.62">
<g opacity="0.62">
<path opacity="0.26" d="M454.684 230.165H446.295V350.647H454.684V230.165Z" fill="black"/>
</g>
</g>
</g>
<g opacity="0.15">
<g opacity="0.15">
<g opacity="0.15">
<path opacity="0.26" d="M413.494 273.629H405.105V350.633H413.494V273.629Z" fill="black"/>
</g>
</g>
</g>
<path d="M474.249 363.23H310.631V205.132H313.121V360.734H474.249V363.23Z" fill="#D5DBDA"/>
<path d="M327.439 283.479L325.764 281.633L368.569 243.338L408.218 251.919L451.141 204.29L453.009 205.959L409.107 254.651L369.296 246.041L327.439 283.479Z" fill="#D5DBDA"/>
<path d="M456.373 212.989L444.264 201.425L459.886 197.26L456.373 212.989Z" fill="#D5DBDA"/>
<path d="M294.416 322.292H114.228V325.555H294.416V322.292Z" fill="#EFEFEF"/>
<path d="M294.416 332.438H113.694V335.701H294.416V332.438Z" fill="#EFEFEF"/>
<path d="M294.416 312.131H113.694V315.395H294.416V312.131Z" fill="#EFEFEF"/>
<path d="M294.416 342.584H113.694V345.848H294.416V342.584Z" fill="#EFEFEF"/>
<path d="M294.416 352.744H113.694V356.008H294.416V352.744Z" fill="#EFEFEF"/>
<path opacity="0.14" d="M294.689 661.718C438.102 661.718 554.35 647.445 554.35 629.862C554.35 612.279 438.102 598.005 294.689 598.005C151.276 598.005 35.0285 612.279 35.0285 629.862C35.0285 647.445 151.276 661.718 294.689 661.718Z" fill="url(#paint3_linear)"/>
<path d="M142.438 625.515C142.438 625.515 146.308 573.259 129.284 570.692C112.353 568.124 120.112 588.885 111.591 585.779C103.069 582.691 103.441 554.563 83.943 556.219C64.4446 557.893 89.6362 580.198 77.859 580.198C66.0818 580.198 82.101 593.611 82.101 604.196C82.101 614.781 50.9743 592.457 47.2532 606.763C41.9507 627.282 79.0126 625.868 79.0126 625.868L142.438 625.515Z" fill="#564D9F"/>
<path d="M60.3142 623.71C73.0961 620.883 100.092 617.255 110.939 624.231C111.33 624.752 111.721 625.124 112.093 625.775H114.419C112.744 623.524 111.07 621.143 109.395 618.836C113.377 606.968 113.005 593.313 112.353 586.225C112.353 586.225 112.353 586.225 112.223 586.225C112.093 586.225 111.963 586.225 111.832 585.909C111.832 585.909 111.832 585.909 111.702 585.909C111.702 585.909 111.702 585.909 111.572 585.909C111.572 585.909 111.572 585.909 111.442 585.909C111.442 585.909 111.442 585.909 111.312 585.909C111.312 585.909 111.312 585.909 111.181 585.909L111.051 585.853C110.921 585.853 110.921 585.76 110.791 585.76C111.442 592.215 112.074 605.498 108.465 617.404C106.269 614.055 104.223 610.707 102.12 607.209C106.363 603.359 105.99 587.602 105.079 576.496C104.948 576.105 104.818 575.845 104.688 575.473C104.688 575.342 104.688 575.342 104.558 575.212C104.037 573.798 103.404 572.385 102.753 570.971C104.167 584.253 104.558 601.554 101.209 605.405C90.4921 586.3 82.6034 566.301 79.5149 557.911C78.8638 558.302 78.3614 558.562 77.9707 559.065C80.6685 566.432 86.8827 582.151 95.2923 598.168C99.7948 606.949 104.465 614.706 108.837 621.125C96.3156 615.041 64.8167 619.971 56.035 622.538C57.0955 622.669 58.6397 623.189 60.3142 623.71Z" fill="#EBEDF5"/>
<path d="M166.272 576.868C170.346 578.635 172.802 583.844 171.072 587.974C170.16 590.151 168.263 591.974 167.704 594.262C167.053 596.866 167.704 599.973 167.63 602.633C167.5 607.154 165.49 611.284 161.974 614.111C158.085 617.255 152.336 616.548 148.839 620.008C146.476 622.352 147.536 626.11 146.811 629.049C143.834 640.974 125.917 636.156 119.089 630.966C111.777 625.403 104.911 610.744 114.791 604.289C118.214 602.056 122.772 602.838 126.121 600.457C130.549 597.313 128.633 591.509 130.903 587.323C135.796 578.263 145.006 583.9 151.983 580.514C156.671 578.263 160.653 574.431 166.272 576.868Z" fill="#50BC8D"/>
<path d="M161.062 603.452C160.969 603.321 160.82 603.284 160.69 603.377C157.527 605.517 154.141 605.758 150.606 604.084C147.946 602.838 146.197 600.903 146.178 600.884C146.587 600.475 146.997 600.066 147.406 599.675C149.285 597.852 151.183 596.029 153.081 594.225C153.155 594.225 153.248 594.206 153.304 594.132C153.341 594.076 153.36 594.02 153.36 593.964C155.834 591.62 158.327 589.295 160.839 587.025C160.895 586.969 160.895 586.895 160.858 586.839C160.802 586.783 160.727 586.783 160.672 586.821C158.104 589.034 155.574 591.285 153.062 593.536C152.057 592.55 148.094 588.402 150.085 585.072C150.16 584.942 150.122 584.774 149.992 584.7C149.862 584.625 149.694 584.663 149.62 584.793C148.578 586.523 148.82 588.718 150.346 591.099C151.053 592.215 151.871 593.127 152.392 593.648C152.485 593.741 152.578 593.834 152.653 593.908C150.736 595.638 148.82 597.387 146.922 599.154C143.276 602.54 139.666 605.982 136.131 609.498C134.866 607.489 131.61 601.405 134.866 596.978C134.959 596.848 134.94 596.68 134.81 596.606C134.68 596.513 134.512 596.531 134.438 596.662C130.922 601.443 134.475 607.916 135.74 609.907C135.033 610.614 134.308 611.321 133.619 612.028C129.675 616.027 125.824 620.101 122.177 624.399C120.558 622.111 115.907 614.762 119.014 609.033C119.089 608.902 119.033 608.735 118.903 608.661C118.772 608.586 118.605 608.642 118.53 608.772C116.912 611.749 117.061 615.581 118.94 619.86C119.926 622.092 121.154 623.934 121.805 624.845C121.563 625.124 121.303 625.422 121.061 625.719C119.87 627.152 118.716 628.622 117.582 630.128C118.065 630.501 118.493 630.928 118.865 631.393C119.963 629.812 121.135 628.287 122.326 626.761C123.591 625.161 124.893 623.599 126.214 622.036C128.149 623.748 134.605 628.77 140.671 626.073C140.801 626.017 140.875 625.85 140.801 625.719C140.745 625.589 140.578 625.515 140.448 625.589C134.661 628.175 128.429 623.282 126.568 621.645C129.117 618.669 131.759 615.767 134.457 612.902C138.159 608.977 141.936 605.126 145.787 601.35C145.806 601.368 145.862 601.424 145.936 601.498C147.015 602.596 153.713 608.865 161.006 603.917C161.1 603.749 161.137 603.582 161.062 603.452Z" fill="white"/>
<path d="M570.079 279.728H431.236L447.872 267.315V190.688C447.872 185.633 451.924 181.545 456.936 181.545H570.079C575.091 181.545 579.143 185.633 579.143 190.688V270.563C579.143 275.64 575.091 279.728 570.079 279.728Z" fill="#F7F4FF"/>
<path d="M564.843 273.182H426L442.635 260.77V184.142C442.635 179.087 446.688 175 451.7 175H564.843C569.855 175 573.907 179.087 573.907 184.142V264.018C573.907 269.095 569.855 273.182 564.843 273.182Z" fill="#5600E3"/>
<path d="M489.073 197.254H463.727C460.966 197.254 458.727 199.493 458.727 202.254V227.6C458.727 230.361 460.966 232.6 463.727 232.6H489.073C491.834 232.6 494.073 230.361 494.073 227.6V202.254C494.073 199.493 491.834 197.254 489.073 197.254Z" fill="#24E29E"/>
<path fill-rule="evenodd" clip-rule="evenodd" d="M477.069 224.745C478.102 224.745 478.94 223.927 478.94 222.918C478.94 221.908 478.102 221.09 477.069 221.09C476.036 221.09 475.198 221.908 475.198 222.918C475.198 223.927 476.036 224.745 477.069 224.745ZM486.826 207.789C487.214 207.789 487.528 207.482 487.528 207.103C487.528 206.725 487.214 206.418 486.826 206.418H483.551C483.244 206.418 482.984 206.61 482.888 206.878L481.863 209.331L465.989 209.3C465.858 209.297 465.724 209.33 465.605 209.402C465.276 209.6 465.174 210.021 465.377 210.342L468.544 219.875C468.66 220.099 468.897 220.253 469.171 220.253H478.344V220.252C478.621 220.252 478.883 220.09 478.994 219.824L484.021 207.789H486.826ZM470.651 224.745C471.684 224.745 472.522 223.927 472.522 222.918C472.522 221.908 471.684 221.09 470.651 221.09C469.618 221.09 468.78 221.908 468.78 222.918C468.78 223.927 469.618 224.745 470.651 224.745Z" fill="white"/>
<path opacity="0.9" d="M564.403 203.347H500.954V197.216H564.403V203.347Z" fill="white"/>
<path opacity="0.9" d="M564.403 218.815H500.954V212.684H564.403V218.815Z" fill="white"/>
<path opacity="0.9" d="M564.403 234.262H500.954V228.131H564.403V234.262Z" fill="white"/>
<path opacity="0.9" d="M564.411 253.571H456.109V247.44H564.411V253.571Z" fill="white"/>
<path d="M606.637 440.321H482.044C472.627 440.321 465 434.018 465 426.235V323.266C465 315.483 472.627 309.18 482.044 309.18H606.637C616.054 309.18 623.682 315.483 623.682 323.266V426.235C623.682 434.018 616.054 440.321 606.637 440.321Z" fill="#F7F4FF"/>
<path d="M606.637 431.142H482.044C472.627 431.142 465 424.838 465 417.055V314.086C465 306.303 472.627 300 482.044 300H606.637C616.054 300 623.682 306.303 623.682 314.086V417.055C623.682 424.838 616.054 431.142 606.637 431.142Z" fill="white"/>
<path d="M606.981 317.879H481.706V391.51H606.981V317.879Z" fill="#5600E3"/>
<path d="M553.097 351.537L538.141 342.909C536.714 342.099 534.945 343.122 534.945 344.762V362.019C534.945 363.66 536.714 364.683 538.141 363.873L553.097 355.244C554.525 354.392 554.525 352.347 553.097 351.537Z" fill="#2DF8B4"/>
<path d="M489.991 405.567H598.691" stroke="#5600E3" stroke-width="2" stroke-miterlimit="10" stroke-linecap="round"/>
<path d="M489.991 405.567H524.229" stroke="#5600E3" stroke-width="2" stroke-miterlimit="10" stroke-linecap="round"/>
<path d="M510.083 412.619C513.978 412.619 517.135 409.462 517.135 405.567C517.135 401.673 513.978 398.515 510.083 398.515C506.189 398.515 503.031 401.673 503.031 405.567C503.031 409.462 506.189 412.619 510.083 412.619Z" fill="#2DFFB3"/>
<path d="M131.547 239.346H73.1949C59.304 239.346 48.0432 250.607 48.0432 264.498C48.0432 278.389 59.304 289.649 73.1949 289.649H131.547C145.437 289.649 156.698 278.389 156.698 264.498C156.698 250.607 145.437 239.346 131.547 239.346Z" fill="#5600E3"/>
<path d="M140.098 303.231V281.601L120.48 283.613L140.098 303.231Z" fill="#5600E3"/>
<path d="M74.7488 253.746L77.7335 259.807L84.4361 260.776L79.5924 265.502L80.7313 272.165L74.7488 269.023L68.7662 272.165L69.9051 265.502L65.0614 260.776L71.7509 259.807L74.7488 253.746Z" fill="white"/>
<path d="M103.143 253.746L106.128 259.807L112.817 260.776L107.987 265.502L109.126 272.165L103.143 269.023L97.1606 272.165L98.2995 265.502L93.4558 260.776L100.145 259.807L103.143 253.746Z" fill="white"/>
<path d="M131.04 253.746L134.025 259.807L140.714 260.776L135.884 265.502L137.023 272.165L131.04 269.023L125.058 272.165L126.196 265.502L121.353 260.776L128.042 259.807L131.04 253.746Z" fill="white"/>
<path d="M396.068 605.77C396.657 607.876 397.8 628.606 397.8 628.606C397.8 628.606 385.691 631.266 386.762 628.606C387.834 625.945 386.762 605.77 386.762 605.77H396.068Z" fill="#FEB7B6"/>
<path d="M397.604 623.16C397.604 623.16 393.728 624.731 389.406 624.07C389.406 624.07 388.316 621.767 386.584 621.767C384.851 621.767 382.726 624.213 381.565 624.767C380.386 625.32 358.078 632.462 365.615 633.891C365.883 634.212 392.192 633.962 397.979 633.908C398.658 633.908 399.247 633.444 399.39 632.766C399.801 630.766 400.247 626.445 397.604 623.16Z" fill="#2D2D49"/>
<path d="M429.825 605.77C430.414 607.876 431.557 628.606 431.557 628.606C431.557 628.606 419.448 631.266 420.519 628.606C421.591 625.945 420.519 605.77 420.519 605.77H429.825Z" fill="#FEB7B6"/>
<path d="M431.361 623.16C431.361 623.16 427.485 624.731 423.163 624.07C423.163 624.07 422.073 621.767 420.341 621.767C418.608 621.767 416.483 624.213 415.322 624.767C414.143 625.32 391.835 632.462 399.372 633.891C399.64 634.212 425.949 633.962 431.736 633.908C432.415 633.908 433.004 633.444 433.147 632.766C433.54 630.766 434.004 626.445 431.361 623.16Z" fill="#2D2D49"/>
<path d="M384.047 352.039C382.047 355.092 378.886 359.467 375.492 364.02C372.813 367.59 369.991 371.286 367.455 374.572C362.775 380.66 359.042 385.356 359.042 385.356C359.042 385.356 346.432 378.285 346.415 375.339C346.397 373.607 351.219 361.484 355.131 351.95C355.952 349.914 356.756 347.986 357.47 346.344C358.953 342.666 360.007 340.202 360.007 340.202L384.047 352.039Z" fill="#FEB7B6"/>
<path d="M346.397 375.339C346.397 375.339 337.859 377.857 332.715 380.749C329.5 382.553 318.659 390.391 310.657 395.604C305.852 398.729 301.762 400.568 301.762 400.568L303.816 405.085C303.816 405.085 320.927 401.264 335.412 397.05C349.897 392.837 354.559 391.016 359.024 385.338C363.49 379.678 351.666 373.59 346.397 375.339Z" fill="#FEB7B6"/>
<path d="M305.388 405.388C305.388 405.388 303.459 405.888 301.53 407.031C299.583 408.174 292.332 408.013 292.332 408.013L287.384 403.353C287.384 403.353 288.599 401.425 288.742 401.139C288.867 400.853 293.921 399.496 293.921 399.496C293.921 399.496 302.798 400.461 303.673 400.121C304.549 399.764 307.817 400.693 307.835 401.228C307.853 401.782 305.388 405.388 305.388 405.388Z" fill="#FEB7B6"/>
<path d="M372.956 508.998C365.222 465.308 368.759 426.975 368.759 426.975L414.339 420.6C412.071 447.775 394.675 495.036 401.944 523.3C403.73 530.209 404.462 538.69 404.552 547.528C404.837 574.739 398.122 617.929 398.122 617.929C389.066 619.446 386.084 618.446 386.084 618.446C382.511 587.594 378.511 540.458 372.956 508.998Z" fill="#0C0B51"/>
<path d="M373.652 312.706C373.652 312.706 351.166 343.237 347.415 350.486C344.646 355.842 372.241 363.859 372.241 363.859L373.652 312.706Z" fill="#24E29E"/>
<path d="M380.064 302.189C379.6 302.171 371.92 311.581 371.92 311.581L373.652 312.723L381.993 303.421L380.064 302.189Z" fill="#17C184"/>
<path d="M380.565 304.796C379.939 302.993 379.404 301.332 378.957 299.85C377.171 294.048 376.582 290.673 376.582 290.673L384.405 281.889L391.692 273.693C394.282 293.137 408.231 300.368 408.231 300.368C408.231 300.368 388.03 316.366 373.867 314.384C373.867 314.384 375.349 308.92 380.565 304.796Z" fill="#FEB7B6"/>
<path opacity="0.53" d="M376.582 290.673L384.405 281.889C388.03 282.889 394.317 283.71 394.317 283.71C394.317 283.71 390.585 296.012 378.957 299.85C377.207 294.066 376.599 290.691 376.582 290.673Z" fill="#BD99A2"/>
<path d="M364.365 260.785C365.276 255.607 367.848 249.733 382.779 251.179C397.711 252.607 395.246 262.999 396.05 278.657C396.872 294.315 373.545 293.083 373.545 293.083C367.455 292.351 363.472 265.98 364.365 260.785Z" fill="#FEB7B6"/>
<path d="M381.047 259.678C390.031 259.356 384.744 271.069 386.744 271.872C388.763 272.694 387.959 269.569 392.067 269.891C396.193 270.212 393.156 275.658 393.014 278.014C392.871 280.389 396.246 281.3 396.246 281.3C399.711 272.122 401.14 274.211 405.802 266.784C408.981 261.695 407.088 253.661 402.498 247.34C403.855 247.055 405.57 246.983 406.874 247.804C406.874 247.804 402.569 244.609 400.033 244.412C399.908 244.305 399.801 244.18 399.711 244.073C399.711 244.073 397.907 238.699 394.032 236.163C394.032 236.163 395.818 238.984 396.425 241.288C395.853 240.895 395.264 240.502 394.639 240.145C384.994 234.717 372.777 241.609 366.008 247.305C359.239 252.982 355.488 249.751 355.488 249.751C355.488 249.751 356.131 253.179 358.203 257.214C360.257 261.249 372.045 259.999 381.047 259.678Z" fill="#16285F"/>
<path d="M381.279 303.957C381.279 303.957 361.828 318.865 362.418 353.86C363.007 388.873 368.759 429.456 368.759 429.456L416.822 421.1L420.823 363.68C420.823 363.68 424.574 339.595 421.895 324.597C419.216 309.599 404.248 292.762 381.279 303.957Z" fill="#2DF8B4"/>
<path d="M379.672 304.385C383.512 301.422 405.48 295.173 405.48 295.173L412.643 306.028L378.243 315.741L379.672 304.385Z" fill="#17C184"/>
<path d="M392.567 511.908C389.531 499.142 386.209 486.698 383.029 475.521C375.474 448.936 368.759 429.474 368.759 429.474L417.429 420.708C417.269 427.099 420.251 435.366 420.609 443.615C420.787 447.918 419.859 460.041 420.18 464.612C421.877 488.698 423.824 507.195 429.539 525.067C431.718 531.87 432.951 540.279 433.558 549.117C435.433 576.274 432.575 617.375 432.575 617.375C422.484 617.929 417.019 617.786 417.019 617.786C417.251 582.237 399.944 542.993 392.567 511.908Z" fill="#140D6B"/>
<path d="M428.235 337.131C431.093 344.772 436.773 377.714 436.523 385.338C436.165 396.068 415.411 418.779 411.214 426.6C406.856 434.723 406.856 434.723 406.856 434.723C406.856 434.723 404.963 443.133 402.748 446.65C400.533 450.185 392.996 448.918 390.727 446.632C388.459 444.347 396.586 437.473 396.586 437.473L401.462 428.867C401.462 428.867 414.375 392.926 421.68 386.784C421.68 386.784 403.694 354.628 406.981 347.236C410.285 339.88 428.235 337.131 428.235 337.131Z" fill="#FEB7B6"/>
<path d="M405.016 355.824C410.517 351.95 422.18 344.719 430.879 339.398L423.663 316.848C421.645 308.867 414.965 303.885 406.981 305.903C398.997 307.921 394.121 316.098 396.139 324.061C396.139 324.061 404.123 354.485 405.016 355.824Z" fill="#24E29E"/>
<path d="M177.983 344C177.983 344 175 371.264 175 380.03C177.768 393.046 187.003 427.22 187.003 427.22L199.005 397.956L194.486 361.64" fill="#FEB7B6"/>
<path d="M190.488 480.306C190.488 480.306 188.827 511.891 188.649 517.908C188.47 523.925 182.147 529.085 178.2 542.261C174.253 555.438 168.912 611.394 168.912 611.394L176.182 612.412C176.182 612.412 199.865 545.118 204.741 527.674C209.617 510.212 218.155 484.502 218.155 484.502" fill="#F7ADAD"/>
<path d="M176.182 612.412C176.182 612.412 175.718 614.161 176.29 615.607C176.861 617.054 178.308 623.374 182.487 627.874L182.845 629.534L178.54 629.302C178.54 629.302 172.932 624.785 172.61 624.017C172.307 623.267 171.146 619.982 170.806 618.964C170.467 617.946 168.734 615.929 168.842 615.108C168.949 614.286 168.538 611.34 168.538 611.34C168.538 611.34 171.271 609.68 171.699 609.608C172.128 609.555 173.95 609.626 173.95 609.626L176.182 612.412Z" fill="#F7ADAD"/>
<path d="M168.967 609.733C168.967 609.733 165.252 613.626 165.091 618.036C164.984 620.767 165.43 626.142 164.877 629.998L165.877 630.141L168.717 621.624C168.717 621.624 174.825 630.57 176.397 631.195C177.969 631.819 184.559 632.73 184.916 632.784C185.274 632.837 190.56 632.391 182.505 627.891C182.505 627.891 182.327 629.588 179.183 627.374C176.04 625.16 173.378 621.214 171.61 618.071C170.681 616.393 169.056 612.876 168.967 609.733Z" fill="#2D2D49"/>
<path d="M218.138 481.931C218.138 481.931 216.316 496 214.387 510.587C214.351 510.784 214.333 510.962 214.315 511.159C213.601 516.479 212.887 521.836 212.244 526.603C209.832 544.547 200.116 613.822 200.116 613.822H192.775C192.775 613.822 186.542 556.866 188.632 543.279C190.739 529.674 192.186 525.424 191.561 519.425C191.454 518.3 191.239 516.283 191.007 513.712C190.882 512.373 190.739 510.891 190.614 509.302C189.578 497.946 188.203 481.931 188.203 481.931H218.138Z" fill="#FEB7B6"/>
<path d="M214.315 511.141C214.119 511.248 213.815 511.391 213.387 511.516C207.028 513.569 194.794 513.694 190.989 513.694C190.864 512.355 190.721 510.873 190.596 509.284C195.276 509.266 212.404 509.302 214.387 510.569C214.655 510.73 214.637 510.926 214.315 511.141Z" fill="#F9A7B9"/>
<path d="M200.116 613.804C200.116 613.804 199.902 615.608 200.67 616.964C201.438 618.321 203.724 624.374 208.493 628.266L209.082 629.855L204.778 630.212C204.778 630.212 198.598 626.499 198.187 625.802C197.776 625.088 196.187 621.999 195.722 621.053C195.258 620.107 193.257 618.339 193.257 617.518C193.257 616.697 192.436 613.84 192.436 613.84C192.436 613.84 194.901 611.822 195.329 611.697C195.74 611.572 197.562 611.412 197.562 611.412L200.116 613.804Z" fill="#FEB7B6"/>
<path d="M212.976 294.708C212.976 294.708 212.672 296.476 212.351 298.886C212.208 299.815 212.065 300.832 211.958 301.904C211.886 302.546 211.815 303.207 211.744 303.868C211.44 307.278 211.547 309.974 211.065 314.527L194.847 310.974C194.847 310.974 198.366 305.046 196.437 289.459L212.976 294.708Z" fill="#FEB7B6"/>
<path d="M212.351 298.904C212.208 299.833 212.065 300.85 211.958 301.922C208.189 299.993 204.813 296.422 204.813 296.422L212.351 298.904Z" fill="#FCB9C1"/>
<path d="M179.058 413.762C179.058 413.762 169.252 430.117 179.147 451.06C184.381 476.199 186.363 497.607 188.203 511.016C188.203 511.016 204.831 513.355 215.262 511.176C215.262 511.176 226.354 447.489 224.889 413.762" fill="#140D6B"/>
<path d="M223.71 401.96C224.693 412.048 224.943 414.244 224.943 414.244C224.943 414.244 209.689 421.154 178.29 414.851C178.29 414.851 180.273 411.709 182.309 397.461C184.738 380.553 178.826 353.575 179.451 339.005C180.076 324.49 189.346 311.188 195.901 308.171C195.901 308.171 202.902 312.92 211.386 311.831C211.386 311.831 222.621 332.256 227.157 342.112C231.194 350.932 225.05 358.842 222.656 366.18C222.371 367.073 222.121 367.93 221.978 368.805C221.71 370.215 221.656 372.733 221.746 375.911C221.924 382.91 222.817 393.105 223.71 401.96Z" fill="#2DF8B4"/>
<path opacity="0.38" d="M221.978 368.822C221.71 370.233 221.656 372.75 221.746 375.928C193.936 352.361 191.471 337.541 191.471 337.541L203.277 343.415L218.12 358.592L222.639 366.18C222.371 367.091 222.121 367.948 221.978 368.822Z" fill="#58595B"/>
<path d="M192.597 612.144C192.597 612.144 189.453 616.5 189.9 620.892C190.168 623.606 191.346 628.873 191.329 632.766H192.329L193.972 623.946C193.972 623.946 201.259 631.962 202.902 632.355C204.546 632.748 211.208 632.748 211.565 632.748C211.922 632.748 217.102 631.587 208.511 628.231C208.511 628.231 208.564 629.945 205.153 628.177C201.741 626.409 198.562 622.874 196.383 620C195.222 618.5 193.132 615.25 192.597 612.144Z" fill="#2D2D49"/>
<path d="M245.161 373.715C245.161 373.715 238.07 381.16 233.98 380.642C230.873 380.249 215.566 364.769 208.475 357.431C206.26 355.128 204.831 353.628 204.831 353.628L212.851 347.361L220.299 341.505L245.161 373.715Z" fill="#FEB7B6"/>
<path d="M218.12 345.772C218.12 345.772 214.405 351.646 208.046 355.931C206.082 353.842 204.831 352.485 204.831 352.485L211.922 346.79L218.12 345.772Z" fill="#FCB9C1"/>
<path d="M206.725 323.668C196.437 318.294 191.061 326.614 191.168 334.952C191.293 345.951 206.224 359.181 206.224 359.181C206.224 359.181 219.495 352.2 223.925 345.647C223.907 345.647 216.691 328.882 206.725 323.668Z" fill="#24E29E"/>
<path d="M241.768 371.804C241.768 371.804 249.716 374.929 254.86 379.249C260.004 383.57 285.277 401.8 285.277 401.8L282.741 407.031C282.741 407.031 250.805 396.765 231.087 378.339L241.768 371.804Z" fill="#FEB7B6"/>
<path d="M279.186 405.406C279.186 405.406 285.723 408.977 288.617 409.852C291.51 410.727 299.333 406.835 300.191 404.246C300.191 404.246 298.744 404.424 297.654 404.389C296.565 404.371 291.474 400.086 288.206 399.354C286.456 398.961 284.437 399.8 283.866 399.871C283.312 399.943 281.544 399.854 281.544 399.854" fill="#FEB7B6"/>
<path d="M201.348 293.03L211.618 305.796L212.547 297.297L201.348 293.03Z" fill="#E89292"/>
<path d="M218.513 300.065C217.53 300.832 216.369 301.368 215.03 301.547C209.868 302.225 205.242 297.672 201.67 294.619C198.973 292.298 196.383 289.888 193.775 287.477C185.81 280.139 196.169 253.911 219.602 257.91C224.139 258.678 224.996 268.551 225.193 271.801C225.657 279.282 225.246 287.816 222.246 294.78C221.388 296.762 220.192 298.743 218.513 300.065Z" fill="#FEB7B6"/>
<path d="M182.845 303.189C182.845 303.189 181.076 280.96 185.149 263.909C189.221 246.858 222.21 245.501 224.353 264.856C224.353 264.856 216.798 262.784 212.333 266.855C207.85 270.944 205.242 278.871 203.903 276.586C202.527 274.229 198.741 274.39 197.687 277.497C196.83 280.05 199.009 284.763 199.241 288.923C199.384 291.405 184.148 302.118 182.845 303.189Z" fill="#332F62"/>
<path d="M199.205 288.316C199.205 288.316 202.599 321.044 191.168 334.952C179.737 348.861 183.863 353.468 180.433 356.735C177.004 360.002 161.34 323.24 174.718 305.921C188.096 288.602 183.773 289.227 184.541 274.086L199.205 288.316Z" fill="#332F62"/>
<path d="M221.906 258.107C221.906 258.107 228.908 259.053 229.14 263.499C229.372 267.944 230.158 274.676 222.371 276.515C222.371 276.515 225.103 271.158 223.192 268.837C223.192 268.837 222.031 272.444 218.12 272.069C218.12 272.069 221.353 268.909 217.155 265.213C212.958 261.517 221.906 258.107 221.906 258.107Z" fill="#332F62"/>
<path d="M404.605 449.685L405.748 443.883C405.891 443.115 405.373 442.401 404.605 442.276L383.726 439.276L382.869 446.579L402.998 450.739C403.748 450.917 404.462 450.435 404.605 449.685Z" fill="#2E3190"/>
<path d="M375.903 480.699L376.314 478.699L364.472 476.217L364.061 478.217C363.472 481.074 365.651 483.948 368.919 484.627C372.188 485.323 375.313 483.556 375.903 480.699Z" fill="#2E347F"/>
<path d="M389.549 481.806L381.833 450.9L369.384 448.311L350.112 473.557L389.549 481.806Z" fill="#F8F8F8"/>
<path d="M389.173 479.77L381.833 450.9L376.867 449.864L376.135 477.056L389.173 479.77Z" fill="#EFF0F0"/>
<path d="M383.869 436.027C384.28 434.027 382.761 432.027 380.475 431.545L378.261 431.081C375.974 430.599 373.777 431.831 373.367 433.831C372.956 435.83 374.474 437.83 376.76 438.312L378.975 438.776C381.279 439.241 383.458 438.009 383.869 436.027Z" fill="#3245A0"/>
<path d="M376.778 438.294L378.993 438.759C381.279 439.241 383.476 438.009 383.887 436.009C384.297 434.009 382.779 432.01 380.493 431.527L378.278 431.063C378.118 431.028 377.939 431.01 377.778 430.992C379.779 431.635 381.065 433.491 380.672 435.33C380.297 437.187 378.386 438.366 376.296 438.151C376.439 438.223 376.599 438.259 376.778 438.294Z" fill="#1F2677"/>
<path d="M390.888 482.341C391.138 481.163 390.227 479.985 388.888 479.717L351.505 471.914C350.165 471.629 348.879 472.361 348.629 473.521C348.379 474.7 349.29 475.878 350.63 476.146L388.013 483.966C389.37 484.252 390.656 483.52 390.888 482.341Z" fill="#1F2677"/>
<path d="M348.987 472.771L380.118 479.27C381.458 479.556 382.351 480.734 382.118 481.895C382.065 482.163 381.94 482.413 381.779 482.627L388.03 483.93C389.37 484.216 390.656 483.484 390.906 482.324C391.156 481.145 390.245 479.967 388.906 479.699L351.523 471.896C350.487 471.7 349.504 472.075 348.987 472.771Z" fill="#262262"/>
<path d="M385.834 446.222L386.334 443.811C387.066 440.24 384.351 436.67 380.261 435.813L376.76 435.08C372.67 434.223 368.776 436.42 368.044 439.99L367.544 442.401C366.812 445.972 369.527 449.543 373.617 450.4L377.117 451.132C381.208 451.971 385.101 449.775 385.834 446.222Z" fill="#2B378E"/>
<path d="M376.921 451.078L382.172 452.167C383.458 452.435 384.708 451.739 384.941 450.614L387.245 439.383C387.477 438.259 386.619 437.116 385.316 436.848L380.064 435.759C381.35 436.027 382.226 437.169 381.993 438.294L379.689 449.525C379.457 450.667 378.225 451.346 376.921 451.078Z" fill="#1F2677"/>
<path d="M402.462 435.705C401.355 434.92 400.247 434.134 399.14 433.366C398.711 432.956 402.016 428.885 401.623 428.439C398.89 430.849 392.567 437.009 391.888 438.312C390.299 441.312 388.745 451.899 388.745 451.899L390.245 451.4L392.192 448.811L391.924 451.792L394.407 451.417L396.747 447.739L396.05 451.06L398.229 450.346L400.104 446.864L399.944 449.721L403.194 449.043L406.034 439.205L406.874 434.723C405.409 434.42 403.819 436.42 402.462 435.705Z" fill="#FEB7B6"/>
</g>
<defs>
<linearGradient id="paint0_linear" x1="349.594" y1="21.5057" x2="294.553" y2="369.056" gradientUnits="userSpaceOnUse">
<stop stop-color="#DFE0E0"/>
<stop offset="1" stop-color="#2680C1" stop-opacity="0"/>
</linearGradient>
<linearGradient id="paint1_linear" x1="128.87" y1="-50.5693" x2="104.132" y2="197.114" gradientUnits="userSpaceOnUse">
<stop stop-color="white"/>
<stop offset="0.3363" stop-color="#F2F4F8"/>
<stop offset="0.8977" stop-color="#D7DFEC"/>
<stop offset="0.9922" stop-color="#D2DBEA"/>
</linearGradient>
<linearGradient id="paint2_linear" x1="99.5791" y1="242.695" x2="123.477" y2="3.42606" gradientUnits="userSpaceOnUse">
<stop stop-color="white"/>
<stop offset="0.3248" stop-color="#F2F4F8"/>
<stop offset="0.8669" stop-color="#D7DFEC"/>
<stop offset="0.9581" stop-color="#D2DBEA"/>
</linearGradient>
<linearGradient id="paint3_linear" x1="298.992" y1="714.712" x2="291.474" y2="564.504" gradientUnits="userSpaceOnUse">
<stop stop-color="#2680C1"/>
<stop offset="1" stop-color="#2680C1" stop-opacity="0"/>
</linearGradient>
<clipPath id="clip0">
<rect width="617" height="662" fill="white"/>
</clipPath>
</defs>
</svg>
