<svg width="142" height="678" viewBox="0 0 142 678" fill="none" xmlns="http://www.w3.org/2000/svg">
<g style="mix-blend-mode:multiply">
<g opacity="0.7">
<path d="M4.81566 8.38956C6.04317 8.38956 7.03827 7.39528 7.03827 6.16878C7.03827 4.94227 6.04317 3.948 4.81566 3.948C3.58814 3.948 2.59305 4.94227 2.59305 6.16878C2.59305 7.39528 3.58814 8.38956 4.81566 8.38956Z" fill="#D1D1D1"/>
<path d="M4.81566 20.3571C6.04317 20.3571 7.03827 19.3628 7.03827 18.1363C7.03827 16.9098 6.04317 15.9155 4.81566 15.9155C3.58814 15.9155 2.59305 16.9098 2.59305 18.1363C2.59305 19.3628 3.58814 20.3571 4.81566 20.3571Z" fill="#D1D1D1"/>
<path d="M4.81566 32.3246C6.04317 32.3246 7.03827 31.3303 7.03827 30.1038C7.03827 28.8773 6.04317 27.8831 4.81566 27.8831C3.58814 27.8831 2.59305 28.8773 2.59305 30.1038C2.59305 31.3303 3.58814 32.3246 4.81566 32.3246Z" fill="#D1D1D1"/>
<path d="M4.81566 44.2921C6.04317 44.2921 7.03827 43.2979 7.03827 42.0714C7.03827 40.8449 6.04317 39.8506 4.81566 39.8506C3.58814 39.8506 2.59305 40.8449 2.59305 42.0714C2.59305 43.2979 3.58814 44.2921 4.81566 44.2921Z" fill="#D1D1D1"/>
<path d="M4.81566 56.2597C6.04317 56.2597 7.03827 55.2654 7.03827 54.0389C7.03827 52.8124 6.04317 51.8181 4.81566 51.8181C3.58814 51.8181 2.59305 52.8124 2.59305 54.0389C2.59305 55.2654 3.58814 56.2597 4.81566 56.2597Z" fill="#D1D1D1"/>
<path d="M4.81566 68.2272C6.04317 68.2272 7.03827 67.2329 7.03827 66.0064C7.03827 64.7799 6.04317 63.7856 4.81566 63.7856C3.58814 63.7856 2.59305 64.7799 2.59305 66.0064C2.59305 67.2329 3.58814 68.2272 4.81566 68.2272Z" fill="#D1D1D1"/>
<path d="M4.81566 80.1947C6.04317 80.1947 7.03827 79.2005 7.03827 77.974C7.03827 76.7475 6.04317 75.7532 4.81566 75.7532C3.58814 75.7532 2.59305 76.7475 2.59305 77.974C2.59305 79.2005 3.58814 80.1947 4.81566 80.1947Z" fill="#D1D1D1"/>
<path d="M4.81566 92.2856C6.04317 92.2856 7.03827 91.2913 7.03827 90.0648C7.03827 88.8383 6.04317 87.844 4.81566 87.844C3.58814 87.844 2.59305 88.8383 2.59305 90.0648C2.59305 91.2913 3.58814 92.2856 4.81566 92.2856Z" fill="#D1D1D1"/>
<path d="M4.81566 104.253C6.04317 104.253 7.03827 103.259 7.03827 102.032C7.03827 100.806 6.04317 99.8115 4.81566 99.8115C3.58814 99.8115 2.59305 100.806 2.59305 102.032C2.59305 103.259 3.58814 104.253 4.81566 104.253Z" fill="#D1D1D1"/>
<path d="M4.81566 116.221C6.04317 116.221 7.03827 115.226 7.03827 114C7.03827 112.773 6.04317 111.779 4.81566 111.779C3.58814 111.779 2.59305 112.773 2.59305 114C2.59305 115.226 3.58814 116.221 4.81566 116.221Z" fill="#D1D1D1"/>
<path d="M4.81566 128.188C6.04317 128.188 7.03827 127.194 7.03827 125.967C7.03827 124.741 6.04317 123.747 4.81566 123.747C3.58814 123.747 2.59305 124.741 2.59305 125.967C2.59305 127.194 3.58814 128.188 4.81566 128.188Z" fill="#D1D1D1"/>
<path d="M114.217 8.38956C115.445 8.38956 116.44 7.39528 116.44 6.16878C116.44 4.94227 115.445 3.948 114.217 3.948C112.99 3.948 111.995 4.94227 111.995 6.16878C111.995 7.39528 112.99 8.38956 114.217 8.38956Z" fill="#D1D1D1"/>
<path d="M114.217 20.3571C115.445 20.3571 116.44 19.3628 116.44 18.1363C116.44 16.9098 115.445 15.9155 114.217 15.9155C112.99 15.9155 111.995 16.9098 111.995 18.1363C111.995 19.3628 112.99 20.3571 114.217 20.3571Z" fill="#D1D1D1"/>
<path d="M114.217 32.3246C115.445 32.3246 116.44 31.3303 116.44 30.1038C116.44 28.8773 115.445 27.8831 114.217 27.8831C112.99 27.8831 111.995 28.8773 111.995 30.1038C111.995 31.3303 112.99 32.3246 114.217 32.3246Z" fill="#D1D1D1"/>
<path d="M114.217 44.2921C115.445 44.2921 116.44 43.2979 116.44 42.0714C116.44 40.8449 115.445 39.8506 114.217 39.8506C112.99 39.8506 111.995 40.8449 111.995 42.0714C111.995 43.2979 112.99 44.2921 114.217 44.2921Z" fill="#D1D1D1"/>
<path d="M114.217 56.2597C115.445 56.2597 116.44 55.2654 116.44 54.0389C116.44 52.8124 115.445 51.8181 114.217 51.8181C112.99 51.8181 111.995 52.8124 111.995 54.0389C111.995 55.2654 112.99 56.2597 114.217 56.2597Z" fill="#D1D1D1"/>
<path d="M114.217 68.2272C115.445 68.2272 116.44 67.2329 116.44 66.0064C116.44 64.7799 115.445 63.7856 114.217 63.7856C112.99 63.7856 111.995 64.7799 111.995 66.0064C111.995 67.2329 112.99 68.2272 114.217 68.2272Z" fill="#D1D1D1"/>
<path d="M114.217 80.1947C115.445 80.1947 116.44 79.2005 116.44 77.974C116.44 76.7475 115.445 75.7532 114.217 75.7532C112.99 75.7532 111.995 76.7475 111.995 77.974C111.995 79.2005 112.99 80.1947 114.217 80.1947Z" fill="#D1D1D1"/>
<path d="M114.217 92.2856C115.445 92.2856 116.44 91.2913 116.44 90.0648C116.44 88.8383 115.445 87.844 114.217 87.844C112.99 87.844 111.995 88.8383 111.995 90.0648C111.995 91.2913 112.99 92.2856 114.217 92.2856Z" fill="#D1D1D1"/>
<path d="M114.217 104.253C115.445 104.253 116.44 103.259 116.44 102.032C116.44 100.806 115.445 99.8115 114.217 99.8115C112.99 99.8115 111.995 100.806 111.995 102.032C111.995 103.259 112.99 104.253 114.217 104.253Z" fill="#D1D1D1"/>
<path d="M114.217 116.221C115.445 116.221 116.44 115.226 116.44 114C116.44 112.773 115.445 111.779 114.217 111.779C112.99 111.779 111.995 112.773 111.995 114C111.995 115.226 112.99 116.221 114.217 116.221Z" fill="#D1D1D1"/>
<path d="M114.217 128.188C115.445 128.188 116.44 127.194 116.44 125.967C116.44 124.741 115.445 123.747 114.217 123.747C112.99 123.747 111.995 124.741 111.995 125.967C111.995 127.194 112.99 128.188 114.217 128.188Z" fill="#D1D1D1"/>
<path d="M92.3618 8.38956C93.5893 8.38956 94.5844 7.39528 94.5844 6.16878C94.5844 4.94227 93.5893 3.948 92.3618 3.948C91.1343 3.948 90.1392 4.94227 90.1392 6.16878C90.1392 7.39528 91.1343 8.38956 92.3618 8.38956Z" fill="#D1D1D1"/>
<path d="M92.3618 20.3571C93.5893 20.3571 94.5844 19.3628 94.5844 18.1363C94.5844 16.9098 93.5893 15.9155 92.3618 15.9155C91.1343 15.9155 90.1392 16.9098 90.1392 18.1363C90.1392 19.3628 91.1343 20.3571 92.3618 20.3571Z" fill="#D1D1D1"/>
<path d="M92.3618 32.3246C93.5893 32.3246 94.5844 31.3303 94.5844 30.1038C94.5844 28.8773 93.5893 27.8831 92.3618 27.8831C91.1343 27.8831 90.1392 28.8773 90.1392 30.1038C90.1392 31.3303 91.1343 32.3246 92.3618 32.3246Z" fill="#D1D1D1"/>
<path d="M92.3618 44.2921C93.5893 44.2921 94.5844 43.2979 94.5844 42.0714C94.5844 40.8449 93.5893 39.8506 92.3618 39.8506C91.1343 39.8506 90.1392 40.8449 90.1392 42.0714C90.1392 43.2979 91.1343 44.2921 92.3618 44.2921Z" fill="#D1D1D1"/>
<path d="M92.3618 56.2597C93.5893 56.2597 94.5844 55.2654 94.5844 54.0389C94.5844 52.8124 93.5893 51.8181 92.3618 51.8181C91.1343 51.8181 90.1392 52.8124 90.1392 54.0389C90.1392 55.2654 91.1343 56.2597 92.3618 56.2597Z" fill="#D1D1D1"/>
<path d="M92.3618 68.2272C93.5893 68.2272 94.5844 67.2329 94.5844 66.0064C94.5844 64.7799 93.5893 63.7856 92.3618 63.7856C91.1343 63.7856 90.1392 64.7799 90.1392 66.0064C90.1392 67.2329 91.1343 68.2272 92.3618 68.2272Z" fill="#D1D1D1"/>
<path d="M92.3618 80.1947C93.5893 80.1947 94.5844 79.2005 94.5844 77.974C94.5844 76.7475 93.5893 75.7532 92.3618 75.7532C91.1343 75.7532 90.1392 76.7475 90.1392 77.974C90.1392 79.2005 91.1343 80.1947 92.3618 80.1947Z" fill="#D1D1D1"/>
<path d="M92.3618 92.2856C93.5893 92.2856 94.5844 91.2913 94.5844 90.0648C94.5844 88.8383 93.5893 87.844 92.3618 87.844C91.1343 87.844 90.1392 88.8383 90.1392 90.0648C90.1392 91.2913 91.1343 92.2856 92.3618 92.2856Z" fill="#D1D1D1"/>
<path d="M92.3618 104.253C93.5893 104.253 94.5844 103.259 94.5844 102.032C94.5844 100.806 93.5893 99.8115 92.3618 99.8115C91.1343 99.8115 90.1392 100.806 90.1392 102.032C90.1392 103.259 91.1343 104.253 92.3618 104.253Z" fill="#D1D1D1"/>
<path d="M92.3618 116.221C93.5893 116.221 94.5844 115.226 94.5844 114C94.5844 112.773 93.5893 111.779 92.3618 111.779C91.1343 111.779 90.1392 112.773 90.1392 114C90.1392 115.226 91.1343 116.221 92.3618 116.221Z" fill="#D1D1D1"/>
<path d="M92.3618 128.188C93.5893 128.188 94.5844 127.194 94.5844 125.967C94.5844 124.741 93.5893 123.747 92.3618 123.747C91.1343 123.747 90.1392 124.741 90.1392 125.967C90.1392 127.194 91.1343 128.188 92.3618 128.188Z" fill="#D1D1D1"/>
<path d="M136.073 8.38956C137.301 8.38956 138.296 7.39528 138.296 6.16878C138.296 4.94227 137.301 3.948 136.073 3.948C134.846 3.948 133.85 4.94227 133.85 6.16878C133.85 7.39528 134.846 8.38956 136.073 8.38956Z" fill="#D1D1D1"/>
<path d="M136.073 20.3571C137.301 20.3571 138.296 19.3628 138.296 18.1363C138.296 16.9098 137.301 15.9155 136.073 15.9155C134.846 15.9155 133.85 16.9098 133.85 18.1363C133.85 19.3628 134.846 20.3571 136.073 20.3571Z" fill="#D1D1D1"/>
<path d="M136.073 32.3246C137.301 32.3246 138.296 31.3303 138.296 30.1038C138.296 28.8773 137.301 27.8831 136.073 27.8831C134.846 27.8831 133.85 28.8773 133.85 30.1038C133.85 31.3303 134.846 32.3246 136.073 32.3246Z" fill="#D1D1D1"/>
<path d="M136.073 44.2921C137.301 44.2921 138.296 43.2979 138.296 42.0714C138.296 40.8449 137.301 39.8506 136.073 39.8506C134.846 39.8506 133.85 40.8449 133.85 42.0714C133.85 43.2979 134.846 44.2921 136.073 44.2921Z" fill="#D1D1D1"/>
<path d="M136.073 56.2597C137.301 56.2597 138.296 55.2654 138.296 54.0389C138.296 52.8124 137.301 51.8181 136.073 51.8181C134.846 51.8181 133.85 52.8124 133.85 54.0389C133.85 55.2654 134.846 56.2597 136.073 56.2597Z" fill="#D1D1D1"/>
<path d="M136.073 68.2272C137.301 68.2272 138.296 67.2329 138.296 66.0064C138.296 64.7799 137.301 63.7856 136.073 63.7856C134.846 63.7856 133.85 64.7799 133.85 66.0064C133.85 67.2329 134.846 68.2272 136.073 68.2272Z" fill="#D1D1D1"/>
<path d="M136.073 80.1947C137.301 80.1947 138.296 79.2005 138.296 77.974C138.296 76.7475 137.301 75.7532 136.073 75.7532C134.846 75.7532 133.85 76.7475 133.85 77.974C133.85 79.2005 134.846 80.1947 136.073 80.1947Z" fill="#D1D1D1"/>
<path d="M136.073 92.2856C137.301 92.2856 138.296 91.2913 138.296 90.0648C138.296 88.8383 137.301 87.844 136.073 87.844C134.846 87.844 133.85 88.8383 133.85 90.0648C133.85 91.2913 134.846 92.2856 136.073 92.2856Z" fill="#D1D1D1"/>
<path d="M136.073 104.253C137.301 104.253 138.296 103.259 138.296 102.032C138.296 100.806 137.301 99.8115 136.073 99.8115C134.846 99.8115 133.85 100.806 133.85 102.032C133.85 103.259 134.846 104.253 136.073 104.253Z" fill="#D1D1D1"/>
<path d="M136.073 116.221C137.301 116.221 138.296 115.226 138.296 114C138.296 112.773 137.301 111.779 136.073 111.779C134.846 111.779 133.85 112.773 133.85 114C133.85 115.226 134.846 116.221 136.073 116.221Z" fill="#D1D1D1"/>
<path d="M136.073 128.188C137.301 128.188 138.296 127.194 138.296 125.967C138.296 124.741 137.301 123.747 136.073 123.747C134.846 123.747 133.85 124.741 133.85 125.967C133.85 127.194 134.846 128.188 136.073 128.188Z" fill="#D1D1D1"/>
<path d="M70.3826 8.38956C71.6102 8.38956 72.6053 7.39528 72.6053 6.16878C72.6053 4.94227 71.6102 3.948 70.3826 3.948C69.1551 3.948 68.16 4.94227 68.16 6.16878C68.16 7.39528 69.1551 8.38956 70.3826 8.38956Z" fill="#D1D1D1"/>
<path d="M70.3826 20.3571C71.6102 20.3571 72.6053 19.3628 72.6053 18.1363C72.6053 16.9098 71.6102 15.9155 70.3826 15.9155C69.1551 15.9155 68.16 16.9098 68.16 18.1363C68.16 19.3628 69.1551 20.3571 70.3826 20.3571Z" fill="#D1D1D1"/>
<path d="M70.3826 32.3246C71.6102 32.3246 72.6053 31.3303 72.6053 30.1038C72.6053 28.8773 71.6102 27.8831 70.3826 27.8831C69.1551 27.8831 68.16 28.8773 68.16 30.1038C68.16 31.3303 69.1551 32.3246 70.3826 32.3246Z" fill="#D1D1D1"/>
<path d="M70.3826 44.2921C71.6102 44.2921 72.6053 43.2979 72.6053 42.0714C72.6053 40.8449 71.6102 39.8506 70.3826 39.8506C69.1551 39.8506 68.16 40.8449 68.16 42.0714C68.16 43.2979 69.1551 44.2921 70.3826 44.2921Z" fill="#D1D1D1"/>
<path d="M70.3826 56.2597C71.6102 56.2597 72.6053 55.2654 72.6053 54.0389C72.6053 52.8124 71.6102 51.8181 70.3826 51.8181C69.1551 51.8181 68.16 52.8124 68.16 54.0389C68.16 55.2654 69.1551 56.2597 70.3826 56.2597Z" fill="#D1D1D1"/>
<path d="M70.3826 68.2272C71.6102 68.2272 72.6053 67.2329 72.6053 66.0064C72.6053 64.7799 71.6102 63.7856 70.3826 63.7856C69.1551 63.7856 68.16 64.7799 68.16 66.0064C68.16 67.2329 69.1551 68.2272 70.3826 68.2272Z" fill="#D1D1D1"/>
<path d="M70.3826 80.1947C71.6102 80.1947 72.6053 79.2005 72.6053 77.974C72.6053 76.7475 71.6102 75.7532 70.3826 75.7532C69.1551 75.7532 68.16 76.7475 68.16 77.974C68.16 79.2005 69.1551 80.1947 70.3826 80.1947Z" fill="#D1D1D1"/>
<path d="M70.3826 92.2856C71.6102 92.2856 72.6053 91.2913 72.6053 90.0648C72.6053 88.8383 71.6102 87.844 70.3826 87.844C69.1551 87.844 68.16 88.8383 68.16 90.0648C68.16 91.2913 69.1551 92.2856 70.3826 92.2856Z" fill="#D1D1D1"/>
<path d="M70.3826 104.253C71.6102 104.253 72.6053 103.259 72.6053 102.032C72.6053 100.806 71.6102 99.8115 70.3826 99.8115C69.1551 99.8115 68.16 100.806 68.16 102.032C68.16 103.259 69.1551 104.253 70.3826 104.253Z" fill="#D1D1D1"/>
<path d="M70.3826 116.221C71.6102 116.221 72.6053 115.226 72.6053 114C72.6053 112.773 71.6102 111.779 70.3826 111.779C69.1551 111.779 68.16 112.773 68.16 114C68.16 115.226 69.1551 116.221 70.3826 116.221Z" fill="#D1D1D1"/>
<path d="M70.3826 128.188C71.6102 128.188 72.6053 127.194 72.6053 125.967C72.6053 124.741 71.6102 123.747 70.3826 123.747C69.1551 123.747 68.16 124.741 68.16 125.967C68.16 127.194 69.1551 128.188 70.3826 128.188Z" fill="#D1D1D1"/>
<path d="M48.5269 8.38956C49.7544 8.38956 50.7495 7.39528 50.7495 6.16878C50.7495 4.94227 49.7544 3.948 48.5269 3.948C47.2994 3.948 46.3043 4.94227 46.3043 6.16878C46.3043 7.39528 47.2994 8.38956 48.5269 8.38956Z" fill="#D1D1D1"/>
<path d="M48.5269 20.3571C49.7544 20.3571 50.7495 19.3628 50.7495 18.1363C50.7495 16.9098 49.7544 15.9155 48.5269 15.9155C47.2994 15.9155 46.3043 16.9098 46.3043 18.1363C46.3043 19.3628 47.2994 20.3571 48.5269 20.3571Z" fill="#D1D1D1"/>
<path d="M48.5269 32.3246C49.7544 32.3246 50.7495 31.3303 50.7495 30.1038C50.7495 28.8773 49.7544 27.8831 48.5269 27.8831C47.2994 27.8831 46.3043 28.8773 46.3043 30.1038C46.3043 31.3303 47.2994 32.3246 48.5269 32.3246Z" fill="#D1D1D1"/>
<path d="M48.5269 44.2921C49.7544 44.2921 50.7495 43.2979 50.7495 42.0714C50.7495 40.8449 49.7544 39.8506 48.5269 39.8506C47.2994 39.8506 46.3043 40.8449 46.3043 42.0714C46.3043 43.2979 47.2994 44.2921 48.5269 44.2921Z" fill="#D1D1D1"/>
<path d="M48.5269 56.2597C49.7544 56.2597 50.7495 55.2654 50.7495 54.0389C50.7495 52.8124 49.7544 51.8181 48.5269 51.8181C47.2994 51.8181 46.3043 52.8124 46.3043 54.0389C46.3043 55.2654 47.2994 56.2597 48.5269 56.2597Z" fill="#D1D1D1"/>
<path d="M48.5269 68.2272C49.7544 68.2272 50.7495 67.2329 50.7495 66.0064C50.7495 64.7799 49.7544 63.7856 48.5269 63.7856C47.2994 63.7856 46.3043 64.7799 46.3043 66.0064C46.3043 67.2329 47.2994 68.2272 48.5269 68.2272Z" fill="#D1D1D1"/>
<path d="M48.5269 80.1947C49.7544 80.1947 50.7495 79.2005 50.7495 77.974C50.7495 76.7475 49.7544 75.7532 48.5269 75.7532C47.2994 75.7532 46.3043 76.7475 46.3043 77.974C46.3043 79.2005 47.2994 80.1947 48.5269 80.1947Z" fill="#D1D1D1"/>
<path d="M48.5269 92.2856C49.7544 92.2856 50.7495 91.2913 50.7495 90.0648C50.7495 88.8383 49.7544 87.844 48.5269 87.844C47.2994 87.844 46.3043 88.8383 46.3043 90.0648C46.3043 91.2913 47.2994 92.2856 48.5269 92.2856Z" fill="#D1D1D1"/>
<path d="M48.5269 104.253C49.7544 104.253 50.7495 103.259 50.7495 102.032C50.7495 100.806 49.7544 99.8115 48.5269 99.8115C47.2994 99.8115 46.3043 100.806 46.3043 102.032C46.3043 103.259 47.2994 104.253 48.5269 104.253Z" fill="#D1D1D1"/>
<path d="M48.5269 116.221C49.7544 116.221 50.7495 115.226 50.7495 114C50.7495 112.773 49.7544 111.779 48.5269 111.779C47.2994 111.779 46.3043 112.773 46.3043 114C46.3043 115.226 47.2994 116.221 48.5269 116.221Z" fill="#D1D1D1"/>
<path d="M48.5269 128.188C49.7544 128.188 50.7495 127.194 50.7495 125.967C50.7495 124.741 49.7544 123.747 48.5269 123.747C47.2994 123.747 46.3043 124.741 46.3043 125.967C46.3043 127.194 47.2994 128.188 48.5269 128.188Z" fill="#D1D1D1"/>
<path d="M26.6713 8.38956C27.8988 8.38956 28.8939 7.39528 28.8939 6.16878C28.8939 4.94227 27.8988 3.948 26.6713 3.948C25.4438 3.948 24.4487 4.94227 24.4487 6.16878C24.4487 7.39528 25.4438 8.38956 26.6713 8.38956Z" fill="#D1D1D1"/>
<path d="M26.6713 20.3571C27.8988 20.3571 28.8939 19.3628 28.8939 18.1363C28.8939 16.9098 27.8988 15.9155 26.6713 15.9155C25.4438 15.9155 24.4487 16.9098 24.4487 18.1363C24.4487 19.3628 25.4438 20.3571 26.6713 20.3571Z" fill="#D1D1D1"/>
<path d="M26.6713 32.3246C27.8988 32.3246 28.8939 31.3303 28.8939 30.1038C28.8939 28.8773 27.8988 27.8831 26.6713 27.8831C25.4438 27.8831 24.4487 28.8773 24.4487 30.1038C24.4487 31.3303 25.4438 32.3246 26.6713 32.3246Z" fill="#D1D1D1"/>
<path d="M26.6713 44.2921C27.8988 44.2921 28.8939 43.2979 28.8939 42.0714C28.8939 40.8449 27.8988 39.8506 26.6713 39.8506C25.4438 39.8506 24.4487 40.8449 24.4487 42.0714C24.4487 43.2979 25.4438 44.2921 26.6713 44.2921Z" fill="#D1D1D1"/>
<path d="M26.6713 56.2597C27.8988 56.2597 28.8939 55.2654 28.8939 54.0389C28.8939 52.8124 27.8988 51.8181 26.6713 51.8181C25.4438 51.8181 24.4487 52.8124 24.4487 54.0389C24.4487 55.2654 25.4438 56.2597 26.6713 56.2597Z" fill="#D1D1D1"/>
<path d="M26.6713 68.2272C27.8988 68.2272 28.8939 67.2329 28.8939 66.0064C28.8939 64.7799 27.8988 63.7856 26.6713 63.7856C25.4438 63.7856 24.4487 64.7799 24.4487 66.0064C24.4487 67.2329 25.4438 68.2272 26.6713 68.2272Z" fill="#D1D1D1"/>
<path d="M26.6713 80.1947C27.8988 80.1947 28.8939 79.2005 28.8939 77.974C28.8939 76.7475 27.8988 75.7532 26.6713 75.7532C25.4438 75.7532 24.4487 76.7475 24.4487 77.974C24.4487 79.2005 25.4438 80.1947 26.6713 80.1947Z" fill="#D1D1D1"/>
<path d="M26.6713 92.2856C27.8988 92.2856 28.8939 91.2913 28.8939 90.0648C28.8939 88.8383 27.8988 87.844 26.6713 87.844C25.4438 87.844 24.4487 88.8383 24.4487 90.0648C24.4487 91.2913 25.4438 92.2856 26.6713 92.2856Z" fill="#D1D1D1"/>
<path d="M26.6713 104.253C27.8988 104.253 28.8939 103.259 28.8939 102.032C28.8939 100.806 27.8988 99.8115 26.6713 99.8115C25.4438 99.8115 24.4487 100.806 24.4487 102.032C24.4487 103.259 25.4438 104.253 26.6713 104.253Z" fill="#D1D1D1"/>
<path d="M26.6713 116.221C27.8988 116.221 28.8939 115.226 28.8939 114C28.8939 112.773 27.8988 111.779 26.6713 111.779C25.4438 111.779 24.4487 112.773 24.4487 114C24.4487 115.226 25.4438 116.221 26.6713 116.221Z" fill="#D1D1D1"/>
<path d="M26.6713 128.188C27.8988 128.188 28.8939 127.194 28.8939 125.967C28.8939 124.741 27.8988 123.747 26.6713 123.747C25.4438 123.747 24.4487 124.741 24.4487 125.967C24.4487 127.194 25.4438 128.188 26.6713 128.188Z" fill="#D1D1D1"/>
</g>
<g opacity="0.7">
<path d="M4.81566 143.39C6.04317 143.39 7.03827 142.395 7.03827 141.169C7.03827 139.942 6.04317 138.948 4.81566 138.948C3.58814 138.948 2.59305 139.942 2.59305 141.169C2.59305 142.395 3.58814 143.39 4.81566 143.39Z" fill="#D1D1D1"/>
<path d="M4.81566 155.357C6.04317 155.357 7.03827 154.363 7.03827 153.136C7.03827 151.91 6.04317 150.916 4.81566 150.916C3.58814 150.916 2.59305 151.91 2.59305 153.136C2.59305 154.363 3.58814 155.357 4.81566 155.357Z" fill="#D1D1D1"/>
<path d="M4.81566 167.325C6.04317 167.325 7.03827 166.33 7.03827 165.104C7.03827 163.877 6.04317 162.883 4.81566 162.883C3.58814 162.883 2.59305 163.877 2.59305 165.104C2.59305 166.33 3.58814 167.325 4.81566 167.325Z" fill="#D1D1D1"/>
<path d="M4.81566 179.292C6.04317 179.292 7.03827 178.298 7.03827 177.071C7.03827 175.845 6.04317 174.851 4.81566 174.851C3.58814 174.851 2.59305 175.845 2.59305 177.071C2.59305 178.298 3.58814 179.292 4.81566 179.292Z" fill="#D1D1D1"/>
<path d="M4.81566 191.26C6.04317 191.26 7.03827 190.265 7.03827 189.039C7.03827 187.812 6.04317 186.818 4.81566 186.818C3.58814 186.818 2.59305 187.812 2.59305 189.039C2.59305 190.265 3.58814 191.26 4.81566 191.26Z" fill="#D1D1D1"/>
<path d="M4.81566 203.227C6.04317 203.227 7.03827 202.233 7.03827 201.006C7.03827 199.78 6.04317 198.786 4.81566 198.786C3.58814 198.786 2.59305 199.78 2.59305 201.006C2.59305 202.233 3.58814 203.227 4.81566 203.227Z" fill="#D1D1D1"/>
<path d="M4.81566 215.195C6.04317 215.195 7.03827 214.2 7.03827 212.974C7.03827 211.747 6.04317 210.753 4.81566 210.753C3.58814 210.753 2.59305 211.747 2.59305 212.974C2.59305 214.2 3.58814 215.195 4.81566 215.195Z" fill="#D1D1D1"/>
<path d="M4.81566 227.286C6.04317 227.286 7.03827 226.291 7.03827 225.065C7.03827 223.838 6.04317 222.844 4.81566 222.844C3.58814 222.844 2.59305 223.838 2.59305 225.065C2.59305 226.291 3.58814 227.286 4.81566 227.286Z" fill="#D1D1D1"/>
<path d="M4.81566 239.253C6.04317 239.253 7.03827 238.259 7.03827 237.032C7.03827 235.806 6.04317 234.812 4.81566 234.812C3.58814 234.812 2.59305 235.806 2.59305 237.032C2.59305 238.259 3.58814 239.253 4.81566 239.253Z" fill="#D1D1D1"/>
<path d="M4.81566 251.221C6.04317 251.221 7.03827 250.226 7.03827 249C7.03827 247.773 6.04317 246.779 4.81566 246.779C3.58814 246.779 2.59305 247.773 2.59305 249C2.59305 250.226 3.58814 251.221 4.81566 251.221Z" fill="#D1D1D1"/>
<path d="M4.81566 263.188C6.04317 263.188 7.03827 262.194 7.03827 260.967C7.03827 259.741 6.04317 258.747 4.81566 258.747C3.58814 258.747 2.59305 259.741 2.59305 260.967C2.59305 262.194 3.58814 263.188 4.81566 263.188Z" fill="#D1D1D1"/>
<path d="M114.217 143.39C115.445 143.39 116.44 142.395 116.44 141.169C116.44 139.942 115.445 138.948 114.217 138.948C112.99 138.948 111.995 139.942 111.995 141.169C111.995 142.395 112.99 143.39 114.217 143.39Z" fill="#D1D1D1"/>
<path d="M114.217 155.357C115.445 155.357 116.44 154.363 116.44 153.136C116.44 151.91 115.445 150.916 114.217 150.916C112.99 150.916 111.995 151.91 111.995 153.136C111.995 154.363 112.99 155.357 114.217 155.357Z" fill="#D1D1D1"/>
<path d="M114.217 167.325C115.445 167.325 116.44 166.33 116.44 165.104C116.44 163.877 115.445 162.883 114.217 162.883C112.99 162.883 111.995 163.877 111.995 165.104C111.995 166.33 112.99 167.325 114.217 167.325Z" fill="#D1D1D1"/>
<path d="M114.217 179.292C115.445 179.292 116.44 178.298 116.44 177.071C116.44 175.845 115.445 174.851 114.217 174.851C112.99 174.851 111.995 175.845 111.995 177.071C111.995 178.298 112.99 179.292 114.217 179.292Z" fill="#D1D1D1"/>
<path d="M114.217 191.26C115.445 191.26 116.44 190.265 116.44 189.039C116.44 187.812 115.445 186.818 114.217 186.818C112.99 186.818 111.995 187.812 111.995 189.039C111.995 190.265 112.99 191.26 114.217 191.26Z" fill="#D1D1D1"/>
<path d="M114.217 203.227C115.445 203.227 116.44 202.233 116.44 201.006C116.44 199.78 115.445 198.786 114.217 198.786C112.99 198.786 111.995 199.78 111.995 201.006C111.995 202.233 112.99 203.227 114.217 203.227Z" fill="#D1D1D1"/>
<path d="M114.217 215.195C115.445 215.195 116.44 214.2 116.44 212.974C116.44 211.747 115.445 210.753 114.217 210.753C112.99 210.753 111.995 211.747 111.995 212.974C111.995 214.2 112.99 215.195 114.217 215.195Z" fill="#D1D1D1"/>
<path d="M114.217 227.286C115.445 227.286 116.44 226.291 116.44 225.065C116.44 223.838 115.445 222.844 114.217 222.844C112.99 222.844 111.995 223.838 111.995 225.065C111.995 226.291 112.99 227.286 114.217 227.286Z" fill="#D1D1D1"/>
<path d="M114.217 239.253C115.445 239.253 116.44 238.259 116.44 237.032C116.44 235.806 115.445 234.812 114.217 234.812C112.99 234.812 111.995 235.806 111.995 237.032C111.995 238.259 112.99 239.253 114.217 239.253Z" fill="#D1D1D1"/>
<path d="M114.217 251.221C115.445 251.221 116.44 250.226 116.44 249C116.44 247.773 115.445 246.779 114.217 246.779C112.99 246.779 111.995 247.773 111.995 249C111.995 250.226 112.99 251.221 114.217 251.221Z" fill="#D1D1D1"/>
<path d="M114.217 263.188C115.445 263.188 116.44 262.194 116.44 260.967C116.44 259.741 115.445 258.747 114.217 258.747C112.99 258.747 111.995 259.741 111.995 260.967C111.995 262.194 112.99 263.188 114.217 263.188Z" fill="#D1D1D1"/>
<path d="M92.3618 143.39C93.5893 143.39 94.5844 142.395 94.5844 141.169C94.5844 139.942 93.5893 138.948 92.3618 138.948C91.1343 138.948 90.1392 139.942 90.1392 141.169C90.1392 142.395 91.1343 143.39 92.3618 143.39Z" fill="#D1D1D1"/>
<path d="M92.3618 155.357C93.5893 155.357 94.5844 154.363 94.5844 153.136C94.5844 151.91 93.5893 150.916 92.3618 150.916C91.1343 150.916 90.1392 151.91 90.1392 153.136C90.1392 154.363 91.1343 155.357 92.3618 155.357Z" fill="#D1D1D1"/>
<path d="M92.3618 167.325C93.5893 167.325 94.5844 166.33 94.5844 165.104C94.5844 163.877 93.5893 162.883 92.3618 162.883C91.1343 162.883 90.1392 163.877 90.1392 165.104C90.1392 166.33 91.1343 167.325 92.3618 167.325Z" fill="#D1D1D1"/>
<path d="M92.3618 179.292C93.5893 179.292 94.5844 178.298 94.5844 177.071C94.5844 175.845 93.5893 174.851 92.3618 174.851C91.1343 174.851 90.1392 175.845 90.1392 177.071C90.1392 178.298 91.1343 179.292 92.3618 179.292Z" fill="#D1D1D1"/>
<path d="M92.3618 191.26C93.5893 191.26 94.5844 190.265 94.5844 189.039C94.5844 187.812 93.5893 186.818 92.3618 186.818C91.1343 186.818 90.1392 187.812 90.1392 189.039C90.1392 190.265 91.1343 191.26 92.3618 191.26Z" fill="#D1D1D1"/>
<path d="M92.3618 203.227C93.5893 203.227 94.5844 202.233 94.5844 201.006C94.5844 199.78 93.5893 198.786 92.3618 198.786C91.1343 198.786 90.1392 199.78 90.1392 201.006C90.1392 202.233 91.1343 203.227 92.3618 203.227Z" fill="#D1D1D1"/>
<path d="M92.3618 215.195C93.5893 215.195 94.5844 214.2 94.5844 212.974C94.5844 211.747 93.5893 210.753 92.3618 210.753C91.1343 210.753 90.1392 211.747 90.1392 212.974C90.1392 214.2 91.1343 215.195 92.3618 215.195Z" fill="#D1D1D1"/>
<path d="M92.3618 227.286C93.5893 227.286 94.5844 226.291 94.5844 225.065C94.5844 223.838 93.5893 222.844 92.3618 222.844C91.1343 222.844 90.1392 223.838 90.1392 225.065C90.1392 226.291 91.1343 227.286 92.3618 227.286Z" fill="#D1D1D1"/>
<path d="M92.3618 239.253C93.5893 239.253 94.5844 238.259 94.5844 237.032C94.5844 235.806 93.5893 234.812 92.3618 234.812C91.1343 234.812 90.1392 235.806 90.1392 237.032C90.1392 238.259 91.1343 239.253 92.3618 239.253Z" fill="#D1D1D1"/>
<path d="M92.3618 251.221C93.5893 251.221 94.5844 250.226 94.5844 249C94.5844 247.773 93.5893 246.779 92.3618 246.779C91.1343 246.779 90.1392 247.773 90.1392 249C90.1392 250.226 91.1343 251.221 92.3618 251.221Z" fill="#D1D1D1"/>
<path d="M92.3618 263.188C93.5893 263.188 94.5844 262.194 94.5844 260.967C94.5844 259.741 93.5893 258.747 92.3618 258.747C91.1343 258.747 90.1392 259.741 90.1392 260.967C90.1392 262.194 91.1343 263.188 92.3618 263.188Z" fill="#D1D1D1"/>
<path d="M136.073 143.39C137.301 143.39 138.296 142.395 138.296 141.169C138.296 139.942 137.301 138.948 136.073 138.948C134.846 138.948 133.85 139.942 133.85 141.169C133.85 142.395 134.846 143.39 136.073 143.39Z" fill="#D1D1D1"/>
<path d="M136.073 155.357C137.301 155.357 138.296 154.363 138.296 153.136C138.296 151.91 137.301 150.916 136.073 150.916C134.846 150.916 133.85 151.91 133.85 153.136C133.85 154.363 134.846 155.357 136.073 155.357Z" fill="#D1D1D1"/>
<path d="M136.073 167.325C137.301 167.325 138.296 166.33 138.296 165.104C138.296 163.877 137.301 162.883 136.073 162.883C134.846 162.883 133.85 163.877 133.85 165.104C133.85 166.33 134.846 167.325 136.073 167.325Z" fill="#D1D1D1"/>
<path d="M136.073 179.292C137.301 179.292 138.296 178.298 138.296 177.071C138.296 175.845 137.301 174.851 136.073 174.851C134.846 174.851 133.85 175.845 133.85 177.071C133.85 178.298 134.846 179.292 136.073 179.292Z" fill="#D1D1D1"/>
<path d="M136.073 191.26C137.301 191.26 138.296 190.265 138.296 189.039C138.296 187.812 137.301 186.818 136.073 186.818C134.846 186.818 133.85 187.812 133.85 189.039C133.85 190.265 134.846 191.26 136.073 191.26Z" fill="#D1D1D1"/>
<path d="M136.073 203.227C137.301 203.227 138.296 202.233 138.296 201.006C138.296 199.78 137.301 198.786 136.073 198.786C134.846 198.786 133.85 199.78 133.85 201.006C133.85 202.233 134.846 203.227 136.073 203.227Z" fill="#D1D1D1"/>
<path d="M136.073 215.195C137.301 215.195 138.296 214.2 138.296 212.974C138.296 211.747 137.301 210.753 136.073 210.753C134.846 210.753 133.85 211.747 133.85 212.974C133.85 214.2 134.846 215.195 136.073 215.195Z" fill="#D1D1D1"/>
<path d="M136.073 227.286C137.301 227.286 138.296 226.291 138.296 225.065C138.296 223.838 137.301 222.844 136.073 222.844C134.846 222.844 133.85 223.838 133.85 225.065C133.85 226.291 134.846 227.286 136.073 227.286Z" fill="#D1D1D1"/>
<path d="M136.073 239.253C137.301 239.253 138.296 238.259 138.296 237.032C138.296 235.806 137.301 234.812 136.073 234.812C134.846 234.812 133.85 235.806 133.85 237.032C133.85 238.259 134.846 239.253 136.073 239.253Z" fill="#D1D1D1"/>
<path d="M136.073 251.221C137.301 251.221 138.296 250.226 138.296 249C138.296 247.773 137.301 246.779 136.073 246.779C134.846 246.779 133.85 247.773 133.85 249C133.85 250.226 134.846 251.221 136.073 251.221Z" fill="#D1D1D1"/>
<path d="M136.073 263.188C137.301 263.188 138.296 262.194 138.296 260.967C138.296 259.741 137.301 258.747 136.073 258.747C134.846 258.747 133.85 259.741 133.85 260.967C133.85 262.194 134.846 263.188 136.073 263.188Z" fill="#D1D1D1"/>
<path d="M70.3826 143.39C71.6102 143.39 72.6053 142.395 72.6053 141.169C72.6053 139.942 71.6102 138.948 70.3826 138.948C69.1551 138.948 68.16 139.942 68.16 141.169C68.16 142.395 69.1551 143.39 70.3826 143.39Z" fill="#D1D1D1"/>
<path d="M70.3826 155.357C71.6102 155.357 72.6053 154.363 72.6053 153.136C72.6053 151.91 71.6102 150.916 70.3826 150.916C69.1551 150.916 68.16 151.91 68.16 153.136C68.16 154.363 69.1551 155.357 70.3826 155.357Z" fill="#D1D1D1"/>
<path d="M70.3826 167.325C71.6102 167.325 72.6053 166.33 72.6053 165.104C72.6053 163.877 71.6102 162.883 70.3826 162.883C69.1551 162.883 68.16 163.877 68.16 165.104C68.16 166.33 69.1551 167.325 70.3826 167.325Z" fill="#D1D1D1"/>
<path d="M70.3826 179.292C71.6102 179.292 72.6053 178.298 72.6053 177.071C72.6053 175.845 71.6102 174.851 70.3826 174.851C69.1551 174.851 68.16 175.845 68.16 177.071C68.16 178.298 69.1551 179.292 70.3826 179.292Z" fill="#D1D1D1"/>
<path d="M70.3826 191.26C71.6102 191.26 72.6053 190.265 72.6053 189.039C72.6053 187.812 71.6102 186.818 70.3826 186.818C69.1551 186.818 68.16 187.812 68.16 189.039C68.16 190.265 69.1551 191.26 70.3826 191.26Z" fill="#D1D1D1"/>
<path d="M70.3826 203.227C71.6102 203.227 72.6053 202.233 72.6053 201.006C72.6053 199.78 71.6102 198.786 70.3826 198.786C69.1551 198.786 68.16 199.78 68.16 201.006C68.16 202.233 69.1551 203.227 70.3826 203.227Z" fill="#D1D1D1"/>
<path d="M70.3826 215.195C71.6102 215.195 72.6053 214.2 72.6053 212.974C72.6053 211.747 71.6102 210.753 70.3826 210.753C69.1551 210.753 68.16 211.747 68.16 212.974C68.16 214.2 69.1551 215.195 70.3826 215.195Z" fill="#D1D1D1"/>
<path d="M70.3826 227.286C71.6102 227.286 72.6053 226.291 72.6053 225.065C72.6053 223.838 71.6102 222.844 70.3826 222.844C69.1551 222.844 68.16 223.838 68.16 225.065C68.16 226.291 69.1551 227.286 70.3826 227.286Z" fill="#D1D1D1"/>
<path d="M70.3826 239.253C71.6102 239.253 72.6053 238.259 72.6053 237.032C72.6053 235.806 71.6102 234.812 70.3826 234.812C69.1551 234.812 68.16 235.806 68.16 237.032C68.16 238.259 69.1551 239.253 70.3826 239.253Z" fill="#D1D1D1"/>
<path d="M70.3826 251.221C71.6102 251.221 72.6053 250.226 72.6053 249C72.6053 247.773 71.6102 246.779 70.3826 246.779C69.1551 246.779 68.16 247.773 68.16 249C68.16 250.226 69.1551 251.221 70.3826 251.221Z" fill="#D1D1D1"/>
<path d="M70.3826 263.188C71.6102 263.188 72.6053 262.194 72.6053 260.967C72.6053 259.741 71.6102 258.747 70.3826 258.747C69.1551 258.747 68.16 259.741 68.16 260.967C68.16 262.194 69.1551 263.188 70.3826 263.188Z" fill="#D1D1D1"/>
<path d="M48.5269 143.39C49.7544 143.39 50.7495 142.395 50.7495 141.169C50.7495 139.942 49.7544 138.948 48.5269 138.948C47.2994 138.948 46.3043 139.942 46.3043 141.169C46.3043 142.395 47.2994 143.39 48.5269 143.39Z" fill="#D1D1D1"/>
<path d="M48.5269 155.357C49.7544 155.357 50.7495 154.363 50.7495 153.136C50.7495 151.91 49.7544 150.916 48.5269 150.916C47.2994 150.916 46.3043 151.91 46.3043 153.136C46.3043 154.363 47.2994 155.357 48.5269 155.357Z" fill="#D1D1D1"/>
<path d="M48.5269 167.325C49.7544 167.325 50.7495 166.33 50.7495 165.104C50.7495 163.877 49.7544 162.883 48.5269 162.883C47.2994 162.883 46.3043 163.877 46.3043 165.104C46.3043 166.33 47.2994 167.325 48.5269 167.325Z" fill="#D1D1D1"/>
<path d="M48.5269 179.292C49.7544 179.292 50.7495 178.298 50.7495 177.071C50.7495 175.845 49.7544 174.851 48.5269 174.851C47.2994 174.851 46.3043 175.845 46.3043 177.071C46.3043 178.298 47.2994 179.292 48.5269 179.292Z" fill="#D1D1D1"/>
<path d="M48.5269 191.26C49.7544 191.26 50.7495 190.265 50.7495 189.039C50.7495 187.812 49.7544 186.818 48.5269 186.818C47.2994 186.818 46.3043 187.812 46.3043 189.039C46.3043 190.265 47.2994 191.26 48.5269 191.26Z" fill="#D1D1D1"/>
<path d="M48.5269 203.227C49.7544 203.227 50.7495 202.233 50.7495 201.006C50.7495 199.78 49.7544 198.786 48.5269 198.786C47.2994 198.786 46.3043 199.78 46.3043 201.006C46.3043 202.233 47.2994 203.227 48.5269 203.227Z" fill="#D1D1D1"/>
<path d="M48.5269 215.195C49.7544 215.195 50.7495 214.2 50.7495 212.974C50.7495 211.747 49.7544 210.753 48.5269 210.753C47.2994 210.753 46.3043 211.747 46.3043 212.974C46.3043 214.2 47.2994 215.195 48.5269 215.195Z" fill="#D1D1D1"/>
<path d="M48.5269 227.286C49.7544 227.286 50.7495 226.291 50.7495 225.065C50.7495 223.838 49.7544 222.844 48.5269 222.844C47.2994 222.844 46.3043 223.838 46.3043 225.065C46.3043 226.291 47.2994 227.286 48.5269 227.286Z" fill="#D1D1D1"/>
<path d="M48.5269 239.253C49.7544 239.253 50.7495 238.259 50.7495 237.032C50.7495 235.806 49.7544 234.812 48.5269 234.812C47.2994 234.812 46.3043 235.806 46.3043 237.032C46.3043 238.259 47.2994 239.253 48.5269 239.253Z" fill="#D1D1D1"/>
<path d="M48.5269 251.221C49.7544 251.221 50.7495 250.226 50.7495 249C50.7495 247.773 49.7544 246.779 48.5269 246.779C47.2994 246.779 46.3043 247.773 46.3043 249C46.3043 250.226 47.2994 251.221 48.5269 251.221Z" fill="#D1D1D1"/>
<path d="M48.5269 263.188C49.7544 263.188 50.7495 262.194 50.7495 260.967C50.7495 259.741 49.7544 258.747 48.5269 258.747C47.2994 258.747 46.3043 259.741 46.3043 260.967C46.3043 262.194 47.2994 263.188 48.5269 263.188Z" fill="#D1D1D1"/>
<path d="M26.6713 143.39C27.8988 143.39 28.8939 142.395 28.8939 141.169C28.8939 139.942 27.8988 138.948 26.6713 138.948C25.4438 138.948 24.4487 139.942 24.4487 141.169C24.4487 142.395 25.4438 143.39 26.6713 143.39Z" fill="#D1D1D1"/>
<path d="M26.6713 155.357C27.8988 155.357 28.8939 154.363 28.8939 153.136C28.8939 151.91 27.8988 150.916 26.6713 150.916C25.4438 150.916 24.4487 151.91 24.4487 153.136C24.4487 154.363 25.4438 155.357 26.6713 155.357Z" fill="#D1D1D1"/>
<path d="M26.6713 167.325C27.8988 167.325 28.8939 166.33 28.8939 165.104C28.8939 163.877 27.8988 162.883 26.6713 162.883C25.4438 162.883 24.4487 163.877 24.4487 165.104C24.4487 166.33 25.4438 167.325 26.6713 167.325Z" fill="#D1D1D1"/>
<path d="M26.6713 179.292C27.8988 179.292 28.8939 178.298 28.8939 177.071C28.8939 175.845 27.8988 174.851 26.6713 174.851C25.4438 174.851 24.4487 175.845 24.4487 177.071C24.4487 178.298 25.4438 179.292 26.6713 179.292Z" fill="#D1D1D1"/>
<path d="M26.6713 191.26C27.8988 191.26 28.8939 190.265 28.8939 189.039C28.8939 187.812 27.8988 186.818 26.6713 186.818C25.4438 186.818 24.4487 187.812 24.4487 189.039C24.4487 190.265 25.4438 191.26 26.6713 191.26Z" fill="#D1D1D1"/>
<path d="M26.6713 203.227C27.8988 203.227 28.8939 202.233 28.8939 201.006C28.8939 199.78 27.8988 198.786 26.6713 198.786C25.4438 198.786 24.4487 199.78 24.4487 201.006C24.4487 202.233 25.4438 203.227 26.6713 203.227Z" fill="#D1D1D1"/>
<path d="M26.6713 215.195C27.8988 215.195 28.8939 214.2 28.8939 212.974C28.8939 211.747 27.8988 210.753 26.6713 210.753C25.4438 210.753 24.4487 211.747 24.4487 212.974C24.4487 214.2 25.4438 215.195 26.6713 215.195Z" fill="#D1D1D1"/>
<path d="M26.6713 227.286C27.8988 227.286 28.8939 226.291 28.8939 225.065C28.8939 223.838 27.8988 222.844 26.6713 222.844C25.4438 222.844 24.4487 223.838 24.4487 225.065C24.4487 226.291 25.4438 227.286 26.6713 227.286Z" fill="#D1D1D1"/>
<path d="M26.6713 239.253C27.8988 239.253 28.8939 238.259 28.8939 237.032C28.8939 235.806 27.8988 234.812 26.6713 234.812C25.4438 234.812 24.4487 235.806 24.4487 237.032C24.4487 238.259 25.4438 239.253 26.6713 239.253Z" fill="#D1D1D1"/>
<path d="M26.6713 251.221C27.8988 251.221 28.8939 250.226 28.8939 249C28.8939 247.773 27.8988 246.779 26.6713 246.779C25.4438 246.779 24.4487 247.773 24.4487 249C24.4487 250.226 25.4438 251.221 26.6713 251.221Z" fill="#D1D1D1"/>
<path d="M26.6713 263.188C27.8988 263.188 28.8939 262.194 28.8939 260.967C28.8939 259.741 27.8988 258.747 26.6713 258.747C25.4438 258.747 24.4487 259.741 24.4487 260.967C24.4487 262.194 25.4438 263.188 26.6713 263.188Z" fill="#D1D1D1"/>
</g>
<g opacity="0.7">
<path d="M4.81566 279.39C6.04317 279.39 7.03827 278.395 7.03827 277.169C7.03827 275.942 6.04317 274.948 4.81566 274.948C3.58814 274.948 2.59305 275.942 2.59305 277.169C2.59305 278.395 3.58814 279.39 4.81566 279.39Z" fill="#D1D1D1"/>
<path d="M4.81566 291.357C6.04317 291.357 7.03827 290.363 7.03827 289.136C7.03827 287.91 6.04317 286.916 4.81566 286.916C3.58814 286.916 2.59305 287.91 2.59305 289.136C2.59305 290.363 3.58814 291.357 4.81566 291.357Z" fill="#D1D1D1"/>
<path d="M4.81566 303.325C6.04317 303.325 7.03827 302.33 7.03827 301.104C7.03827 299.877 6.04317 298.883 4.81566 298.883C3.58814 298.883 2.59305 299.877 2.59305 301.104C2.59305 302.33 3.58814 303.325 4.81566 303.325Z" fill="#D1D1D1"/>
<path d="M4.81566 315.292C6.04317 315.292 7.03827 314.298 7.03827 313.071C7.03827 311.845 6.04317 310.851 4.81566 310.851C3.58814 310.851 2.59305 311.845 2.59305 313.071C2.59305 314.298 3.58814 315.292 4.81566 315.292Z" fill="#D1D1D1"/>
<path d="M4.81566 327.26C6.04317 327.26 7.03827 326.265 7.03827 325.039C7.03827 323.812 6.04317 322.818 4.81566 322.818C3.58814 322.818 2.59305 323.812 2.59305 325.039C2.59305 326.265 3.58814 327.26 4.81566 327.26Z" fill="#D1D1D1"/>
<path d="M4.81566 339.227C6.04317 339.227 7.03827 338.233 7.03827 337.006C7.03827 335.78 6.04317 334.786 4.81566 334.786C3.58814 334.786 2.59305 335.78 2.59305 337.006C2.59305 338.233 3.58814 339.227 4.81566 339.227Z" fill="#D1D1D1"/>
<path d="M4.81566 351.195C6.04317 351.195 7.03827 350.2 7.03827 348.974C7.03827 347.747 6.04317 346.753 4.81566 346.753C3.58814 346.753 2.59305 347.747 2.59305 348.974C2.59305 350.2 3.58814 351.195 4.81566 351.195Z" fill="#D1D1D1"/>
<path d="M4.81566 363.286C6.04317 363.286 7.03827 362.291 7.03827 361.065C7.03827 359.838 6.04317 358.844 4.81566 358.844C3.58814 358.844 2.59305 359.838 2.59305 361.065C2.59305 362.291 3.58814 363.286 4.81566 363.286Z" fill="#D1D1D1"/>
<path d="M4.81566 375.253C6.04317 375.253 7.03827 374.259 7.03827 373.032C7.03827 371.806 6.04317 370.812 4.81566 370.812C3.58814 370.812 2.59305 371.806 2.59305 373.032C2.59305 374.259 3.58814 375.253 4.81566 375.253Z" fill="#D1D1D1"/>
<path d="M4.81566 387.221C6.04317 387.221 7.03827 386.226 7.03827 385C7.03827 383.773 6.04317 382.779 4.81566 382.779C3.58814 382.779 2.59305 383.773 2.59305 385C2.59305 386.226 3.58814 387.221 4.81566 387.221Z" fill="#D1D1D1"/>
<path d="M4.81566 399.188C6.04317 399.188 7.03827 398.194 7.03827 396.967C7.03827 395.741 6.04317 394.747 4.81566 394.747C3.58814 394.747 2.59305 395.741 2.59305 396.967C2.59305 398.194 3.58814 399.188 4.81566 399.188Z" fill="#D1D1D1"/>
<path d="M114.217 279.39C115.445 279.39 116.44 278.395 116.44 277.169C116.44 275.942 115.445 274.948 114.217 274.948C112.99 274.948 111.995 275.942 111.995 277.169C111.995 278.395 112.99 279.39 114.217 279.39Z" fill="#D1D1D1"/>
<path d="M114.217 291.357C115.445 291.357 116.44 290.363 116.44 289.136C116.44 287.91 115.445 286.916 114.217 286.916C112.99 286.916 111.995 287.91 111.995 289.136C111.995 290.363 112.99 291.357 114.217 291.357Z" fill="#D1D1D1"/>
<path d="M114.217 303.325C115.445 303.325 116.44 302.33 116.44 301.104C116.44 299.877 115.445 298.883 114.217 298.883C112.99 298.883 111.995 299.877 111.995 301.104C111.995 302.33 112.99 303.325 114.217 303.325Z" fill="#D1D1D1"/>
<path d="M114.217 315.292C115.445 315.292 116.44 314.298 116.44 313.071C116.44 311.845 115.445 310.851 114.217 310.851C112.99 310.851 111.995 311.845 111.995 313.071C111.995 314.298 112.99 315.292 114.217 315.292Z" fill="#D1D1D1"/>
<path d="M114.217 327.26C115.445 327.26 116.44 326.265 116.44 325.039C116.44 323.812 115.445 322.818 114.217 322.818C112.99 322.818 111.995 323.812 111.995 325.039C111.995 326.265 112.99 327.26 114.217 327.26Z" fill="#D1D1D1"/>
<path d="M114.217 339.227C115.445 339.227 116.44 338.233 116.44 337.006C116.44 335.78 115.445 334.786 114.217 334.786C112.99 334.786 111.995 335.78 111.995 337.006C111.995 338.233 112.99 339.227 114.217 339.227Z" fill="#D1D1D1"/>
<path d="M114.217 351.195C115.445 351.195 116.44 350.2 116.44 348.974C116.44 347.747 115.445 346.753 114.217 346.753C112.99 346.753 111.995 347.747 111.995 348.974C111.995 350.2 112.99 351.195 114.217 351.195Z" fill="#D1D1D1"/>
<path d="M114.217 363.286C115.445 363.286 116.44 362.291 116.44 361.065C116.44 359.838 115.445 358.844 114.217 358.844C112.99 358.844 111.995 359.838 111.995 361.065C111.995 362.291 112.99 363.286 114.217 363.286Z" fill="#D1D1D1"/>
<path d="M114.217 375.253C115.445 375.253 116.44 374.259 116.44 373.032C116.44 371.806 115.445 370.812 114.217 370.812C112.99 370.812 111.995 371.806 111.995 373.032C111.995 374.259 112.99 375.253 114.217 375.253Z" fill="#D1D1D1"/>
<path d="M114.217 387.221C115.445 387.221 116.44 386.226 116.44 385C116.44 383.773 115.445 382.779 114.217 382.779C112.99 382.779 111.995 383.773 111.995 385C111.995 386.226 112.99 387.221 114.217 387.221Z" fill="#D1D1D1"/>
<path d="M114.217 399.188C115.445 399.188 116.44 398.194 116.44 396.967C116.44 395.741 115.445 394.747 114.217 394.747C112.99 394.747 111.995 395.741 111.995 396.967C111.995 398.194 112.99 399.188 114.217 399.188Z" fill="#D1D1D1"/>
<path d="M92.3618 279.39C93.5893 279.39 94.5844 278.395 94.5844 277.169C94.5844 275.942 93.5893 274.948 92.3618 274.948C91.1343 274.948 90.1392 275.942 90.1392 277.169C90.1392 278.395 91.1343 279.39 92.3618 279.39Z" fill="#D1D1D1"/>
<path d="M92.3618 291.357C93.5893 291.357 94.5844 290.363 94.5844 289.136C94.5844 287.91 93.5893 286.916 92.3618 286.916C91.1343 286.916 90.1392 287.91 90.1392 289.136C90.1392 290.363 91.1343 291.357 92.3618 291.357Z" fill="#D1D1D1"/>
<path d="M92.3618 303.325C93.5893 303.325 94.5844 302.33 94.5844 301.104C94.5844 299.877 93.5893 298.883 92.3618 298.883C91.1343 298.883 90.1392 299.877 90.1392 301.104C90.1392 302.33 91.1343 303.325 92.3618 303.325Z" fill="#D1D1D1"/>
<path d="M92.3618 315.292C93.5893 315.292 94.5844 314.298 94.5844 313.071C94.5844 311.845 93.5893 310.851 92.3618 310.851C91.1343 310.851 90.1392 311.845 90.1392 313.071C90.1392 314.298 91.1343 315.292 92.3618 315.292Z" fill="#D1D1D1"/>
<path d="M92.3618 327.26C93.5893 327.26 94.5844 326.265 94.5844 325.039C94.5844 323.812 93.5893 322.818 92.3618 322.818C91.1343 322.818 90.1392 323.812 90.1392 325.039C90.1392 326.265 91.1343 327.26 92.3618 327.26Z" fill="#D1D1D1"/>
<path d="M92.3618 339.227C93.5893 339.227 94.5844 338.233 94.5844 337.006C94.5844 335.78 93.5893 334.786 92.3618 334.786C91.1343 334.786 90.1392 335.78 90.1392 337.006C90.1392 338.233 91.1343 339.227 92.3618 339.227Z" fill="#D1D1D1"/>
<path d="M92.3618 351.195C93.5893 351.195 94.5844 350.2 94.5844 348.974C94.5844 347.747 93.5893 346.753 92.3618 346.753C91.1343 346.753 90.1392 347.747 90.1392 348.974C90.1392 350.2 91.1343 351.195 92.3618 351.195Z" fill="#D1D1D1"/>
<path d="M92.3618 363.286C93.5893 363.286 94.5844 362.291 94.5844 361.065C94.5844 359.838 93.5893 358.844 92.3618 358.844C91.1343 358.844 90.1392 359.838 90.1392 361.065C90.1392 362.291 91.1343 363.286 92.3618 363.286Z" fill="#D1D1D1"/>
<path d="M92.3618 375.253C93.5893 375.253 94.5844 374.259 94.5844 373.032C94.5844 371.806 93.5893 370.812 92.3618 370.812C91.1343 370.812 90.1392 371.806 90.1392 373.032C90.1392 374.259 91.1343 375.253 92.3618 375.253Z" fill="#D1D1D1"/>
<path d="M92.3618 387.221C93.5893 387.221 94.5844 386.226 94.5844 385C94.5844 383.773 93.5893 382.779 92.3618 382.779C91.1343 382.779 90.1392 383.773 90.1392 385C90.1392 386.226 91.1343 387.221 92.3618 387.221Z" fill="#D1D1D1"/>
<path d="M92.3618 399.188C93.5893 399.188 94.5844 398.194 94.5844 396.967C94.5844 395.741 93.5893 394.747 92.3618 394.747C91.1343 394.747 90.1392 395.741 90.1392 396.967C90.1392 398.194 91.1343 399.188 92.3618 399.188Z" fill="#D1D1D1"/>
<path d="M136.073 279.39C137.301 279.39 138.296 278.395 138.296 277.169C138.296 275.942 137.301 274.948 136.073 274.948C134.846 274.948 133.85 275.942 133.85 277.169C133.85 278.395 134.846 279.39 136.073 279.39Z" fill="#D1D1D1"/>
<path d="M136.073 291.357C137.301 291.357 138.296 290.363 138.296 289.136C138.296 287.91 137.301 286.916 136.073 286.916C134.846 286.916 133.85 287.91 133.85 289.136C133.85 290.363 134.846 291.357 136.073 291.357Z" fill="#D1D1D1"/>
<path d="M136.073 303.325C137.301 303.325 138.296 302.33 138.296 301.104C138.296 299.877 137.301 298.883 136.073 298.883C134.846 298.883 133.85 299.877 133.85 301.104C133.85 302.33 134.846 303.325 136.073 303.325Z" fill="#D1D1D1"/>
<path d="M136.073 315.292C137.301 315.292 138.296 314.298 138.296 313.071C138.296 311.845 137.301 310.851 136.073 310.851C134.846 310.851 133.85 311.845 133.85 313.071C133.85 314.298 134.846 315.292 136.073 315.292Z" fill="#D1D1D1"/>
<path d="M136.073 327.26C137.301 327.26 138.296 326.265 138.296 325.039C138.296 323.812 137.301 322.818 136.073 322.818C134.846 322.818 133.85 323.812 133.85 325.039C133.85 326.265 134.846 327.26 136.073 327.26Z" fill="#D1D1D1"/>
<path d="M136.073 339.227C137.301 339.227 138.296 338.233 138.296 337.006C138.296 335.78 137.301 334.786 136.073 334.786C134.846 334.786 133.85 335.78 133.85 337.006C133.85 338.233 134.846 339.227 136.073 339.227Z" fill="#D1D1D1"/>
<path d="M136.073 351.195C137.301 351.195 138.296 350.2 138.296 348.974C138.296 347.747 137.301 346.753 136.073 346.753C134.846 346.753 133.85 347.747 133.85 348.974C133.85 350.2 134.846 351.195 136.073 351.195Z" fill="#D1D1D1"/>
<path d="M136.073 363.286C137.301 363.286 138.296 362.291 138.296 361.065C138.296 359.838 137.301 358.844 136.073 358.844C134.846 358.844 133.85 359.838 133.85 361.065C133.85 362.291 134.846 363.286 136.073 363.286Z" fill="#D1D1D1"/>
<path d="M136.073 375.253C137.301 375.253 138.296 374.259 138.296 373.032C138.296 371.806 137.301 370.812 136.073 370.812C134.846 370.812 133.85 371.806 133.85 373.032C133.85 374.259 134.846 375.253 136.073 375.253Z" fill="#D1D1D1"/>
<path d="M136.073 387.221C137.301 387.221 138.296 386.226 138.296 385C138.296 383.773 137.301 382.779 136.073 382.779C134.846 382.779 133.85 383.773 133.85 385C133.85 386.226 134.846 387.221 136.073 387.221Z" fill="#D1D1D1"/>
<path d="M136.073 399.188C137.301 399.188 138.296 398.194 138.296 396.967C138.296 395.741 137.301 394.747 136.073 394.747C134.846 394.747 133.85 395.741 133.85 396.967C133.85 398.194 134.846 399.188 136.073 399.188Z" fill="#D1D1D1"/>
<path d="M70.3826 279.39C71.6102 279.39 72.6053 278.395 72.6053 277.169C72.6053 275.942 71.6102 274.948 70.3826 274.948C69.1551 274.948 68.16 275.942 68.16 277.169C68.16 278.395 69.1551 279.39 70.3826 279.39Z" fill="#D1D1D1"/>
<path d="M70.3826 291.357C71.6102 291.357 72.6053 290.363 72.6053 289.136C72.6053 287.91 71.6102 286.916 70.3826 286.916C69.1551 286.916 68.16 287.91 68.16 289.136C68.16 290.363 69.1551 291.357 70.3826 291.357Z" fill="#D1D1D1"/>
<path d="M70.3826 303.325C71.6102 303.325 72.6053 302.33 72.6053 301.104C72.6053 299.877 71.6102 298.883 70.3826 298.883C69.1551 298.883 68.16 299.877 68.16 301.104C68.16 302.33 69.1551 303.325 70.3826 303.325Z" fill="#D1D1D1"/>
<path d="M70.3826 315.292C71.6102 315.292 72.6053 314.298 72.6053 313.071C72.6053 311.845 71.6102 310.851 70.3826 310.851C69.1551 310.851 68.16 311.845 68.16 313.071C68.16 314.298 69.1551 315.292 70.3826 315.292Z" fill="#D1D1D1"/>
<path d="M70.3826 327.26C71.6102 327.26 72.6053 326.265 72.6053 325.039C72.6053 323.812 71.6102 322.818 70.3826 322.818C69.1551 322.818 68.16 323.812 68.16 325.039C68.16 326.265 69.1551 327.26 70.3826 327.26Z" fill="#D1D1D1"/>
<path d="M70.3826 339.227C71.6102 339.227 72.6053 338.233 72.6053 337.006C72.6053 335.78 71.6102 334.786 70.3826 334.786C69.1551 334.786 68.16 335.78 68.16 337.006C68.16 338.233 69.1551 339.227 70.3826 339.227Z" fill="#D1D1D1"/>
<path d="M70.3826 351.195C71.6102 351.195 72.6053 350.2 72.6053 348.974C72.6053 347.747 71.6102 346.753 70.3826 346.753C69.1551 346.753 68.16 347.747 68.16 348.974C68.16 350.2 69.1551 351.195 70.3826 351.195Z" fill="#D1D1D1"/>
<path d="M70.3826 363.286C71.6102 363.286 72.6053 362.291 72.6053 361.065C72.6053 359.838 71.6102 358.844 70.3826 358.844C69.1551 358.844 68.16 359.838 68.16 361.065C68.16 362.291 69.1551 363.286 70.3826 363.286Z" fill="#D1D1D1"/>
<path d="M70.3826 375.253C71.6102 375.253 72.6053 374.259 72.6053 373.032C72.6053 371.806 71.6102 370.812 70.3826 370.812C69.1551 370.812 68.16 371.806 68.16 373.032C68.16 374.259 69.1551 375.253 70.3826 375.253Z" fill="#D1D1D1"/>
<path d="M70.3826 387.221C71.6102 387.221 72.6053 386.226 72.6053 385C72.6053 383.773 71.6102 382.779 70.3826 382.779C69.1551 382.779 68.16 383.773 68.16 385C68.16 386.226 69.1551 387.221 70.3826 387.221Z" fill="#D1D1D1"/>
<path d="M70.3826 399.188C71.6102 399.188 72.6053 398.194 72.6053 396.967C72.6053 395.741 71.6102 394.747 70.3826 394.747C69.1551 394.747 68.16 395.741 68.16 396.967C68.16 398.194 69.1551 399.188 70.3826 399.188Z" fill="#D1D1D1"/>
<path d="M48.5269 279.39C49.7544 279.39 50.7495 278.395 50.7495 277.169C50.7495 275.942 49.7544 274.948 48.5269 274.948C47.2994 274.948 46.3043 275.942 46.3043 277.169C46.3043 278.395 47.2994 279.39 48.5269 279.39Z" fill="#D1D1D1"/>
<path d="M48.5269 291.357C49.7544 291.357 50.7495 290.363 50.7495 289.136C50.7495 287.91 49.7544 286.916 48.5269 286.916C47.2994 286.916 46.3043 287.91 46.3043 289.136C46.3043 290.363 47.2994 291.357 48.5269 291.357Z" fill="#D1D1D1"/>
<path d="M48.5269 303.325C49.7544 303.325 50.7495 302.33 50.7495 301.104C50.7495 299.877 49.7544 298.883 48.5269 298.883C47.2994 298.883 46.3043 299.877 46.3043 301.104C46.3043 302.33 47.2994 303.325 48.5269 303.325Z" fill="#D1D1D1"/>
<path d="M48.5269 315.292C49.7544 315.292 50.7495 314.298 50.7495 313.071C50.7495 311.845 49.7544 310.851 48.5269 310.851C47.2994 310.851 46.3043 311.845 46.3043 313.071C46.3043 314.298 47.2994 315.292 48.5269 315.292Z" fill="#D1D1D1"/>
<path d="M48.5269 327.26C49.7544 327.26 50.7495 326.265 50.7495 325.039C50.7495 323.812 49.7544 322.818 48.5269 322.818C47.2994 322.818 46.3043 323.812 46.3043 325.039C46.3043 326.265 47.2994 327.26 48.5269 327.26Z" fill="#D1D1D1"/>
<path d="M48.5269 339.227C49.7544 339.227 50.7495 338.233 50.7495 337.006C50.7495 335.78 49.7544 334.786 48.5269 334.786C47.2994 334.786 46.3043 335.78 46.3043 337.006C46.3043 338.233 47.2994 339.227 48.5269 339.227Z" fill="#D1D1D1"/>
<path d="M48.5269 351.195C49.7544 351.195 50.7495 350.2 50.7495 348.974C50.7495 347.747 49.7544 346.753 48.5269 346.753C47.2994 346.753 46.3043 347.747 46.3043 348.974C46.3043 350.2 47.2994 351.195 48.5269 351.195Z" fill="#D1D1D1"/>
<path d="M48.5269 363.286C49.7544 363.286 50.7495 362.291 50.7495 361.065C50.7495 359.838 49.7544 358.844 48.5269 358.844C47.2994 358.844 46.3043 359.838 46.3043 361.065C46.3043 362.291 47.2994 363.286 48.5269 363.286Z" fill="#D1D1D1"/>
<path d="M48.5269 375.253C49.7544 375.253 50.7495 374.259 50.7495 373.032C50.7495 371.806 49.7544 370.812 48.5269 370.812C47.2994 370.812 46.3043 371.806 46.3043 373.032C46.3043 374.259 47.2994 375.253 48.5269 375.253Z" fill="#D1D1D1"/>
<path d="M48.5269 387.221C49.7544 387.221 50.7495 386.226 50.7495 385C50.7495 383.773 49.7544 382.779 48.5269 382.779C47.2994 382.779 46.3043 383.773 46.3043 385C46.3043 386.226 47.2994 387.221 48.5269 387.221Z" fill="#D1D1D1"/>
<path d="M48.5269 399.188C49.7544 399.188 50.7495 398.194 50.7495 396.967C50.7495 395.741 49.7544 394.747 48.5269 394.747C47.2994 394.747 46.3043 395.741 46.3043 396.967C46.3043 398.194 47.2994 399.188 48.5269 399.188Z" fill="#D1D1D1"/>
<path d="M26.6713 279.39C27.8988 279.39 28.8939 278.395 28.8939 277.169C28.8939 275.942 27.8988 274.948 26.6713 274.948C25.4438 274.948 24.4487 275.942 24.4487 277.169C24.4487 278.395 25.4438 279.39 26.6713 279.39Z" fill="#D1D1D1"/>
<path d="M26.6713 291.357C27.8988 291.357 28.8939 290.363 28.8939 289.136C28.8939 287.91 27.8988 286.916 26.6713 286.916C25.4438 286.916 24.4487 287.91 24.4487 289.136C24.4487 290.363 25.4438 291.357 26.6713 291.357Z" fill="#D1D1D1"/>
<path d="M26.6713 303.325C27.8988 303.325 28.8939 302.33 28.8939 301.104C28.8939 299.877 27.8988 298.883 26.6713 298.883C25.4438 298.883 24.4487 299.877 24.4487 301.104C24.4487 302.33 25.4438 303.325 26.6713 303.325Z" fill="#D1D1D1"/>
<path d="M26.6713 315.292C27.8988 315.292 28.8939 314.298 28.8939 313.071C28.8939 311.845 27.8988 310.851 26.6713 310.851C25.4438 310.851 24.4487 311.845 24.4487 313.071C24.4487 314.298 25.4438 315.292 26.6713 315.292Z" fill="#D1D1D1"/>
<path d="M26.6713 327.26C27.8988 327.26 28.8939 326.265 28.8939 325.039C28.8939 323.812 27.8988 322.818 26.6713 322.818C25.4438 322.818 24.4487 323.812 24.4487 325.039C24.4487 326.265 25.4438 327.26 26.6713 327.26Z" fill="#D1D1D1"/>
<path d="M26.6713 339.227C27.8988 339.227 28.8939 338.233 28.8939 337.006C28.8939 335.78 27.8988 334.786 26.6713 334.786C25.4438 334.786 24.4487 335.78 24.4487 337.006C24.4487 338.233 25.4438 339.227 26.6713 339.227Z" fill="#D1D1D1"/>
<path d="M26.6713 351.195C27.8988 351.195 28.8939 350.2 28.8939 348.974C28.8939 347.747 27.8988 346.753 26.6713 346.753C25.4438 346.753 24.4487 347.747 24.4487 348.974C24.4487 350.2 25.4438 351.195 26.6713 351.195Z" fill="#D1D1D1"/>
<path d="M26.6713 363.286C27.8988 363.286 28.8939 362.291 28.8939 361.065C28.8939 359.838 27.8988 358.844 26.6713 358.844C25.4438 358.844 24.4487 359.838 24.4487 361.065C24.4487 362.291 25.4438 363.286 26.6713 363.286Z" fill="#D1D1D1"/>
<path d="M26.6713 375.253C27.8988 375.253 28.8939 374.259 28.8939 373.032C28.8939 371.806 27.8988 370.812 26.6713 370.812C25.4438 370.812 24.4487 371.806 24.4487 373.032C24.4487 374.259 25.4438 375.253 26.6713 375.253Z" fill="#D1D1D1"/>
<path d="M26.6713 387.221C27.8988 387.221 28.8939 386.226 28.8939 385C28.8939 383.773 27.8988 382.779 26.6713 382.779C25.4438 382.779 24.4487 383.773 24.4487 385C24.4487 386.226 25.4438 387.221 26.6713 387.221Z" fill="#D1D1D1"/>
<path d="M26.6713 399.188C27.8988 399.188 28.8939 398.194 28.8939 396.967C28.8939 395.741 27.8988 394.747 26.6713 394.747C25.4438 394.747 24.4487 395.741 24.4487 396.967C24.4487 398.194 25.4438 399.188 26.6713 399.188Z" fill="#D1D1D1"/>
</g>
<g opacity="0.7">
<path d="M4.81566 416.39C6.04317 416.39 7.03827 415.395 7.03827 414.169C7.03827 412.942 6.04317 411.948 4.81566 411.948C3.58814 411.948 2.59305 412.942 2.59305 414.169C2.59305 415.395 3.58814 416.39 4.81566 416.39Z" fill="#D1D1D1"/>
<path d="M4.81566 428.357C6.04317 428.357 7.03827 427.363 7.03827 426.136C7.03827 424.91 6.04317 423.916 4.81566 423.916C3.58814 423.916 2.59305 424.91 2.59305 426.136C2.59305 427.363 3.58814 428.357 4.81566 428.357Z" fill="#D1D1D1"/>
<path d="M4.81566 440.325C6.04317 440.325 7.03827 439.33 7.03827 438.104C7.03827 436.877 6.04317 435.883 4.81566 435.883C3.58814 435.883 2.59305 436.877 2.59305 438.104C2.59305 439.33 3.58814 440.325 4.81566 440.325Z" fill="#D1D1D1"/>
<path d="M4.81566 452.292C6.04317 452.292 7.03827 451.298 7.03827 450.071C7.03827 448.845 6.04317 447.851 4.81566 447.851C3.58814 447.851 2.59305 448.845 2.59305 450.071C2.59305 451.298 3.58814 452.292 4.81566 452.292Z" fill="#D1D1D1"/>
<path d="M4.81566 464.26C6.04317 464.26 7.03827 463.265 7.03827 462.039C7.03827 460.812 6.04317 459.818 4.81566 459.818C3.58814 459.818 2.59305 460.812 2.59305 462.039C2.59305 463.265 3.58814 464.26 4.81566 464.26Z" fill="#D1D1D1"/>
<path d="M4.81566 476.227C6.04317 476.227 7.03827 475.233 7.03827 474.006C7.03827 472.78 6.04317 471.786 4.81566 471.786C3.58814 471.786 2.59305 472.78 2.59305 474.006C2.59305 475.233 3.58814 476.227 4.81566 476.227Z" fill="#D1D1D1"/>
<path d="M4.81566 488.195C6.04317 488.195 7.03827 487.2 7.03827 485.974C7.03827 484.747 6.04317 483.753 4.81566 483.753C3.58814 483.753 2.59305 484.747 2.59305 485.974C2.59305 487.2 3.58814 488.195 4.81566 488.195Z" fill="#D1D1D1"/>
<path d="M4.81566 500.286C6.04317 500.286 7.03827 499.291 7.03827 498.065C7.03827 496.838 6.04317 495.844 4.81566 495.844C3.58814 495.844 2.59305 496.838 2.59305 498.065C2.59305 499.291 3.58814 500.286 4.81566 500.286Z" fill="#D1D1D1"/>
<path d="M4.81566 512.253C6.04317 512.253 7.03827 511.259 7.03827 510.032C7.03827 508.806 6.04317 507.812 4.81566 507.812C3.58814 507.812 2.59305 508.806 2.59305 510.032C2.59305 511.259 3.58814 512.253 4.81566 512.253Z" fill="#D1D1D1"/>
<path d="M4.81566 524.221C6.04317 524.221 7.03827 523.226 7.03827 522C7.03827 520.773 6.04317 519.779 4.81566 519.779C3.58814 519.779 2.59305 520.773 2.59305 522C2.59305 523.226 3.58814 524.221 4.81566 524.221Z" fill="#D1D1D1"/>
<path d="M4.81566 536.188C6.04317 536.188 7.03827 535.194 7.03827 533.967C7.03827 532.741 6.04317 531.747 4.81566 531.747C3.58814 531.747 2.59305 532.741 2.59305 533.967C2.59305 535.194 3.58814 536.188 4.81566 536.188Z" fill="#D1D1D1"/>
<path d="M114.217 416.39C115.445 416.39 116.44 415.395 116.44 414.169C116.44 412.942 115.445 411.948 114.217 411.948C112.99 411.948 111.995 412.942 111.995 414.169C111.995 415.395 112.99 416.39 114.217 416.39Z" fill="#D1D1D1"/>
<path d="M114.217 428.357C115.445 428.357 116.44 427.363 116.44 426.136C116.44 424.91 115.445 423.916 114.217 423.916C112.99 423.916 111.995 424.91 111.995 426.136C111.995 427.363 112.99 428.357 114.217 428.357Z" fill="#D1D1D1"/>
<path d="M114.217 440.325C115.445 440.325 116.44 439.33 116.44 438.104C116.44 436.877 115.445 435.883 114.217 435.883C112.99 435.883 111.995 436.877 111.995 438.104C111.995 439.33 112.99 440.325 114.217 440.325Z" fill="#D1D1D1"/>
<path d="M114.217 452.292C115.445 452.292 116.44 451.298 116.44 450.071C116.44 448.845 115.445 447.851 114.217 447.851C112.99 447.851 111.995 448.845 111.995 450.071C111.995 451.298 112.99 452.292 114.217 452.292Z" fill="#D1D1D1"/>
<path d="M114.217 464.26C115.445 464.26 116.44 463.265 116.44 462.039C116.44 460.812 115.445 459.818 114.217 459.818C112.99 459.818 111.995 460.812 111.995 462.039C111.995 463.265 112.99 464.26 114.217 464.26Z" fill="#D1D1D1"/>
<path d="M114.217 476.227C115.445 476.227 116.44 475.233 116.44 474.006C116.44 472.78 115.445 471.786 114.217 471.786C112.99 471.786 111.995 472.78 111.995 474.006C111.995 475.233 112.99 476.227 114.217 476.227Z" fill="#D1D1D1"/>
<path d="M114.217 488.195C115.445 488.195 116.44 487.2 116.44 485.974C116.44 484.747 115.445 483.753 114.217 483.753C112.99 483.753 111.995 484.747 111.995 485.974C111.995 487.2 112.99 488.195 114.217 488.195Z" fill="#D1D1D1"/>
<path d="M114.217 500.286C115.445 500.286 116.44 499.291 116.44 498.065C116.44 496.838 115.445 495.844 114.217 495.844C112.99 495.844 111.995 496.838 111.995 498.065C111.995 499.291 112.99 500.286 114.217 500.286Z" fill="#D1D1D1"/>
<path d="M114.217 512.253C115.445 512.253 116.44 511.259 116.44 510.032C116.44 508.806 115.445 507.812 114.217 507.812C112.99 507.812 111.995 508.806 111.995 510.032C111.995 511.259 112.99 512.253 114.217 512.253Z" fill="#D1D1D1"/>
<path d="M114.217 524.221C115.445 524.221 116.44 523.226 116.44 522C116.44 520.773 115.445 519.779 114.217 519.779C112.99 519.779 111.995 520.773 111.995 522C111.995 523.226 112.99 524.221 114.217 524.221Z" fill="#D1D1D1"/>
<path d="M114.217 536.188C115.445 536.188 116.44 535.194 116.44 533.967C116.44 532.741 115.445 531.747 114.217 531.747C112.99 531.747 111.995 532.741 111.995 533.967C111.995 535.194 112.99 536.188 114.217 536.188Z" fill="#D1D1D1"/>
<path d="M92.3618 416.39C93.5893 416.39 94.5844 415.395 94.5844 414.169C94.5844 412.942 93.5893 411.948 92.3618 411.948C91.1343 411.948 90.1392 412.942 90.1392 414.169C90.1392 415.395 91.1343 416.39 92.3618 416.39Z" fill="#D1D1D1"/>
<path d="M92.3618 428.357C93.5893 428.357 94.5844 427.363 94.5844 426.136C94.5844 424.91 93.5893 423.916 92.3618 423.916C91.1343 423.916 90.1392 424.91 90.1392 426.136C90.1392 427.363 91.1343 428.357 92.3618 428.357Z" fill="#D1D1D1"/>
<path d="M92.3618 440.325C93.5893 440.325 94.5844 439.33 94.5844 438.104C94.5844 436.877 93.5893 435.883 92.3618 435.883C91.1343 435.883 90.1392 436.877 90.1392 438.104C90.1392 439.33 91.1343 440.325 92.3618 440.325Z" fill="#D1D1D1"/>
<path d="M92.3618 452.292C93.5893 452.292 94.5844 451.298 94.5844 450.071C94.5844 448.845 93.5893 447.851 92.3618 447.851C91.1343 447.851 90.1392 448.845 90.1392 450.071C90.1392 451.298 91.1343 452.292 92.3618 452.292Z" fill="#D1D1D1"/>
<path d="M92.3618 464.26C93.5893 464.26 94.5844 463.265 94.5844 462.039C94.5844 460.812 93.5893 459.818 92.3618 459.818C91.1343 459.818 90.1392 460.812 90.1392 462.039C90.1392 463.265 91.1343 464.26 92.3618 464.26Z" fill="#D1D1D1"/>
<path d="M92.3618 476.227C93.5893 476.227 94.5844 475.233 94.5844 474.006C94.5844 472.78 93.5893 471.786 92.3618 471.786C91.1343 471.786 90.1392 472.78 90.1392 474.006C90.1392 475.233 91.1343 476.227 92.3618 476.227Z" fill="#D1D1D1"/>
<path d="M92.3618 488.195C93.5893 488.195 94.5844 487.2 94.5844 485.974C94.5844 484.747 93.5893 483.753 92.3618 483.753C91.1343 483.753 90.1392 484.747 90.1392 485.974C90.1392 487.2 91.1343 488.195 92.3618 488.195Z" fill="#D1D1D1"/>
<path d="M92.3618 500.286C93.5893 500.286 94.5844 499.291 94.5844 498.065C94.5844 496.838 93.5893 495.844 92.3618 495.844C91.1343 495.844 90.1392 496.838 90.1392 498.065C90.1392 499.291 91.1343 500.286 92.3618 500.286Z" fill="#D1D1D1"/>
<path d="M92.3618 512.253C93.5893 512.253 94.5844 511.259 94.5844 510.032C94.5844 508.806 93.5893 507.812 92.3618 507.812C91.1343 507.812 90.1392 508.806 90.1392 510.032C90.1392 511.259 91.1343 512.253 92.3618 512.253Z" fill="#D1D1D1"/>
<path d="M92.3618 524.221C93.5893 524.221 94.5844 523.226 94.5844 522C94.5844 520.773 93.5893 519.779 92.3618 519.779C91.1343 519.779 90.1392 520.773 90.1392 522C90.1392 523.226 91.1343 524.221 92.3618 524.221Z" fill="#D1D1D1"/>
<path d="M92.3618 536.188C93.5893 536.188 94.5844 535.194 94.5844 533.967C94.5844 532.741 93.5893 531.747 92.3618 531.747C91.1343 531.747 90.1392 532.741 90.1392 533.967C90.1392 535.194 91.1343 536.188 92.3618 536.188Z" fill="#D1D1D1"/>
<path d="M136.073 416.39C137.301 416.39 138.296 415.395 138.296 414.169C138.296 412.942 137.301 411.948 136.073 411.948C134.846 411.948 133.85 412.942 133.85 414.169C133.85 415.395 134.846 416.39 136.073 416.39Z" fill="#D1D1D1"/>
<path d="M136.073 428.357C137.301 428.357 138.296 427.363 138.296 426.136C138.296 424.91 137.301 423.916 136.073 423.916C134.846 423.916 133.85 424.91 133.85 426.136C133.85 427.363 134.846 428.357 136.073 428.357Z" fill="#D1D1D1"/>
<path d="M136.073 440.325C137.301 440.325 138.296 439.33 138.296 438.104C138.296 436.877 137.301 435.883 136.073 435.883C134.846 435.883 133.85 436.877 133.85 438.104C133.85 439.33 134.846 440.325 136.073 440.325Z" fill="#D1D1D1"/>
<path d="M136.073 452.292C137.301 452.292 138.296 451.298 138.296 450.071C138.296 448.845 137.301 447.851 136.073 447.851C134.846 447.851 133.85 448.845 133.85 450.071C133.85 451.298 134.846 452.292 136.073 452.292Z" fill="#D1D1D1"/>
<path d="M136.073 464.26C137.301 464.26 138.296 463.265 138.296 462.039C138.296 460.812 137.301 459.818 136.073 459.818C134.846 459.818 133.85 460.812 133.85 462.039C133.85 463.265 134.846 464.26 136.073 464.26Z" fill="#D1D1D1"/>
<path d="M136.073 476.227C137.301 476.227 138.296 475.233 138.296 474.006C138.296 472.78 137.301 471.786 136.073 471.786C134.846 471.786 133.85 472.78 133.85 474.006C133.85 475.233 134.846 476.227 136.073 476.227Z" fill="#D1D1D1"/>
<path d="M136.073 488.195C137.301 488.195 138.296 487.2 138.296 485.974C138.296 484.747 137.301 483.753 136.073 483.753C134.846 483.753 133.85 484.747 133.85 485.974C133.85 487.2 134.846 488.195 136.073 488.195Z" fill="#D1D1D1"/>
<path d="M136.073 500.286C137.301 500.286 138.296 499.291 138.296 498.065C138.296 496.838 137.301 495.844 136.073 495.844C134.846 495.844 133.85 496.838 133.85 498.065C133.85 499.291 134.846 500.286 136.073 500.286Z" fill="#D1D1D1"/>
<path d="M136.073 512.253C137.301 512.253 138.296 511.259 138.296 510.032C138.296 508.806 137.301 507.812 136.073 507.812C134.846 507.812 133.85 508.806 133.85 510.032C133.85 511.259 134.846 512.253 136.073 512.253Z" fill="#D1D1D1"/>
<path d="M136.073 524.221C137.301 524.221 138.296 523.226 138.296 522C138.296 520.773 137.301 519.779 136.073 519.779C134.846 519.779 133.85 520.773 133.85 522C133.85 523.226 134.846 524.221 136.073 524.221Z" fill="#D1D1D1"/>
<path d="M136.073 536.188C137.301 536.188 138.296 535.194 138.296 533.967C138.296 532.741 137.301 531.747 136.073 531.747C134.846 531.747 133.85 532.741 133.85 533.967C133.85 535.194 134.846 536.188 136.073 536.188Z" fill="#D1D1D1"/>
<path d="M70.3826 416.39C71.6102 416.39 72.6053 415.395 72.6053 414.169C72.6053 412.942 71.6102 411.948 70.3826 411.948C69.1551 411.948 68.16 412.942 68.16 414.169C68.16 415.395 69.1551 416.39 70.3826 416.39Z" fill="#D1D1D1"/>
<path d="M70.3826 428.357C71.6102 428.357 72.6053 427.363 72.6053 426.136C72.6053 424.91 71.6102 423.916 70.3826 423.916C69.1551 423.916 68.16 424.91 68.16 426.136C68.16 427.363 69.1551 428.357 70.3826 428.357Z" fill="#D1D1D1"/>
<path d="M70.3826 440.325C71.6102 440.325 72.6053 439.33 72.6053 438.104C72.6053 436.877 71.6102 435.883 70.3826 435.883C69.1551 435.883 68.16 436.877 68.16 438.104C68.16 439.33 69.1551 440.325 70.3826 440.325Z" fill="#D1D1D1"/>
<path d="M70.3826 452.292C71.6102 452.292 72.6053 451.298 72.6053 450.071C72.6053 448.845 71.6102 447.851 70.3826 447.851C69.1551 447.851 68.16 448.845 68.16 450.071C68.16 451.298 69.1551 452.292 70.3826 452.292Z" fill="#D1D1D1"/>
<path d="M70.3826 464.26C71.6102 464.26 72.6053 463.265 72.6053 462.039C72.6053 460.812 71.6102 459.818 70.3826 459.818C69.1551 459.818 68.16 460.812 68.16 462.039C68.16 463.265 69.1551 464.26 70.3826 464.26Z" fill="#D1D1D1"/>
<path d="M70.3826 476.227C71.6102 476.227 72.6053 475.233 72.6053 474.006C72.6053 472.78 71.6102 471.786 70.3826 471.786C69.1551 471.786 68.16 472.78 68.16 474.006C68.16 475.233 69.1551 476.227 70.3826 476.227Z" fill="#D1D1D1"/>
<path d="M70.3826 488.195C71.6102 488.195 72.6053 487.2 72.6053 485.974C72.6053 484.747 71.6102 483.753 70.3826 483.753C69.1551 483.753 68.16 484.747 68.16 485.974C68.16 487.2 69.1551 488.195 70.3826 488.195Z" fill="#D1D1D1"/>
<path d="M70.3826 500.286C71.6102 500.286 72.6053 499.291 72.6053 498.065C72.6053 496.838 71.6102 495.844 70.3826 495.844C69.1551 495.844 68.16 496.838 68.16 498.065C68.16 499.291 69.1551 500.286 70.3826 500.286Z" fill="#D1D1D1"/>
<path d="M70.3826 512.253C71.6102 512.253 72.6053 511.259 72.6053 510.032C72.6053 508.806 71.6102 507.812 70.3826 507.812C69.1551 507.812 68.16 508.806 68.16 510.032C68.16 511.259 69.1551 512.253 70.3826 512.253Z" fill="#D1D1D1"/>
<path d="M70.3826 524.221C71.6102 524.221 72.6053 523.226 72.6053 522C72.6053 520.773 71.6102 519.779 70.3826 519.779C69.1551 519.779 68.16 520.773 68.16 522C68.16 523.226 69.1551 524.221 70.3826 524.221Z" fill="#D1D1D1"/>
<path d="M70.3826 536.188C71.6102 536.188 72.6053 535.194 72.6053 533.967C72.6053 532.741 71.6102 531.747 70.3826 531.747C69.1551 531.747 68.16 532.741 68.16 533.967C68.16 535.194 69.1551 536.188 70.3826 536.188Z" fill="#D1D1D1"/>
<path d="M48.5269 416.39C49.7544 416.39 50.7495 415.395 50.7495 414.169C50.7495 412.942 49.7544 411.948 48.5269 411.948C47.2994 411.948 46.3043 412.942 46.3043 414.169C46.3043 415.395 47.2994 416.39 48.5269 416.39Z" fill="#D1D1D1"/>
<path d="M48.5269 428.357C49.7544 428.357 50.7495 427.363 50.7495 426.136C50.7495 424.91 49.7544 423.916 48.5269 423.916C47.2994 423.916 46.3043 424.91 46.3043 426.136C46.3043 427.363 47.2994 428.357 48.5269 428.357Z" fill="#D1D1D1"/>
<path d="M48.5269 440.325C49.7544 440.325 50.7495 439.33 50.7495 438.104C50.7495 436.877 49.7544 435.883 48.5269 435.883C47.2994 435.883 46.3043 436.877 46.3043 438.104C46.3043 439.33 47.2994 440.325 48.5269 440.325Z" fill="#D1D1D1"/>
<path d="M48.5269 452.292C49.7544 452.292 50.7495 451.298 50.7495 450.071C50.7495 448.845 49.7544 447.851 48.5269 447.851C47.2994 447.851 46.3043 448.845 46.3043 450.071C46.3043 451.298 47.2994 452.292 48.5269 452.292Z" fill="#D1D1D1"/>
<path d="M48.5269 464.26C49.7544 464.26 50.7495 463.265 50.7495 462.039C50.7495 460.812 49.7544 459.818 48.5269 459.818C47.2994 459.818 46.3043 460.812 46.3043 462.039C46.3043 463.265 47.2994 464.26 48.5269 464.26Z" fill="#D1D1D1"/>
<path d="M48.5269 476.227C49.7544 476.227 50.7495 475.233 50.7495 474.006C50.7495 472.78 49.7544 471.786 48.5269 471.786C47.2994 471.786 46.3043 472.78 46.3043 474.006C46.3043 475.233 47.2994 476.227 48.5269 476.227Z" fill="#D1D1D1"/>
<path d="M48.5269 488.195C49.7544 488.195 50.7495 487.2 50.7495 485.974C50.7495 484.747 49.7544 483.753 48.5269 483.753C47.2994 483.753 46.3043 484.747 46.3043 485.974C46.3043 487.2 47.2994 488.195 48.5269 488.195Z" fill="#D1D1D1"/>
<path d="M48.5269 500.286C49.7544 500.286 50.7495 499.291 50.7495 498.065C50.7495 496.838 49.7544 495.844 48.5269 495.844C47.2994 495.844 46.3043 496.838 46.3043 498.065C46.3043 499.291 47.2994 500.286 48.5269 500.286Z" fill="#D1D1D1"/>
<path d="M48.5269 512.253C49.7544 512.253 50.7495 511.259 50.7495 510.032C50.7495 508.806 49.7544 507.812 48.5269 507.812C47.2994 507.812 46.3043 508.806 46.3043 510.032C46.3043 511.259 47.2994 512.253 48.5269 512.253Z" fill="#D1D1D1"/>
<path d="M48.5269 524.221C49.7544 524.221 50.7495 523.226 50.7495 522C50.7495 520.773 49.7544 519.779 48.5269 519.779C47.2994 519.779 46.3043 520.773 46.3043 522C46.3043 523.226 47.2994 524.221 48.5269 524.221Z" fill="#D1D1D1"/>
<path d="M48.5269 536.188C49.7544 536.188 50.7495 535.194 50.7495 533.967C50.7495 532.741 49.7544 531.747 48.5269 531.747C47.2994 531.747 46.3043 532.741 46.3043 533.967C46.3043 535.194 47.2994 536.188 48.5269 536.188Z" fill="#D1D1D1"/>
<path d="M26.6713 416.39C27.8988 416.39 28.8939 415.395 28.8939 414.169C28.8939 412.942 27.8988 411.948 26.6713 411.948C25.4438 411.948 24.4487 412.942 24.4487 414.169C24.4487 415.395 25.4438 416.39 26.6713 416.39Z" fill="#D1D1D1"/>
<path d="M26.6713 428.357C27.8988 428.357 28.8939 427.363 28.8939 426.136C28.8939 424.91 27.8988 423.916 26.6713 423.916C25.4438 423.916 24.4487 424.91 24.4487 426.136C24.4487 427.363 25.4438 428.357 26.6713 428.357Z" fill="#D1D1D1"/>
<path d="M26.6713 440.325C27.8988 440.325 28.8939 439.33 28.8939 438.104C28.8939 436.877 27.8988 435.883 26.6713 435.883C25.4438 435.883 24.4487 436.877 24.4487 438.104C24.4487 439.33 25.4438 440.325 26.6713 440.325Z" fill="#D1D1D1"/>
<path d="M26.6713 452.292C27.8988 452.292 28.8939 451.298 28.8939 450.071C28.8939 448.845 27.8988 447.851 26.6713 447.851C25.4438 447.851 24.4487 448.845 24.4487 450.071C24.4487 451.298 25.4438 452.292 26.6713 452.292Z" fill="#D1D1D1"/>
<path d="M26.6713 464.26C27.8988 464.26 28.8939 463.265 28.8939 462.039C28.8939 460.812 27.8988 459.818 26.6713 459.818C25.4438 459.818 24.4487 460.812 24.4487 462.039C24.4487 463.265 25.4438 464.26 26.6713 464.26Z" fill="#D1D1D1"/>
<path d="M26.6713 476.227C27.8988 476.227 28.8939 475.233 28.8939 474.006C28.8939 472.78 27.8988 471.786 26.6713 471.786C25.4438 471.786 24.4487 472.78 24.4487 474.006C24.4487 475.233 25.4438 476.227 26.6713 476.227Z" fill="#D1D1D1"/>
<path d="M26.6713 488.195C27.8988 488.195 28.8939 487.2 28.8939 485.974C28.8939 484.747 27.8988 483.753 26.6713 483.753C25.4438 483.753 24.4487 484.747 24.4487 485.974C24.4487 487.2 25.4438 488.195 26.6713 488.195Z" fill="#D1D1D1"/>
<path d="M26.6713 500.286C27.8988 500.286 28.8939 499.291 28.8939 498.065C28.8939 496.838 27.8988 495.844 26.6713 495.844C25.4438 495.844 24.4487 496.838 24.4487 498.065C24.4487 499.291 25.4438 500.286 26.6713 500.286Z" fill="#D1D1D1"/>
<path d="M26.6713 512.253C27.8988 512.253 28.8939 511.259 28.8939 510.032C28.8939 508.806 27.8988 507.812 26.6713 507.812C25.4438 507.812 24.4487 508.806 24.4487 510.032C24.4487 511.259 25.4438 512.253 26.6713 512.253Z" fill="#D1D1D1"/>
<path d="M26.6713 524.221C27.8988 524.221 28.8939 523.226 28.8939 522C28.8939 520.773 27.8988 519.779 26.6713 519.779C25.4438 519.779 24.4487 520.773 24.4487 522C24.4487 523.226 25.4438 524.221 26.6713 524.221Z" fill="#D1D1D1"/>
<path d="M26.6713 536.188C27.8988 536.188 28.8939 535.194 28.8939 533.967C28.8939 532.741 27.8988 531.747 26.6713 531.747C25.4438 531.747 24.4487 532.741 24.4487 533.967C24.4487 535.194 25.4438 536.188 26.6713 536.188Z" fill="#D1D1D1"/>
</g>
<g opacity="0.7">
<path d="M4.81566 553.39C6.04317 553.39 7.03827 552.395 7.03827 551.169C7.03827 549.942 6.04317 548.948 4.81566 548.948C3.58814 548.948 2.59305 549.942 2.59305 551.169C2.59305 552.395 3.58814 553.39 4.81566 553.39Z" fill="#D1D1D1"/>
<path d="M4.81566 565.357C6.04317 565.357 7.03827 564.363 7.03827 563.136C7.03827 561.91 6.04317 560.916 4.81566 560.916C3.58814 560.916 2.59305 561.91 2.59305 563.136C2.59305 564.363 3.58814 565.357 4.81566 565.357Z" fill="#D1D1D1"/>
<path d="M4.81566 577.325C6.04317 577.325 7.03827 576.33 7.03827 575.104C7.03827 573.877 6.04317 572.883 4.81566 572.883C3.58814 572.883 2.59305 573.877 2.59305 575.104C2.59305 576.33 3.58814 577.325 4.81566 577.325Z" fill="#D1D1D1"/>
<path d="M4.81566 589.292C6.04317 589.292 7.03827 588.298 7.03827 587.071C7.03827 585.845 6.04317 584.851 4.81566 584.851C3.58814 584.851 2.59305 585.845 2.59305 587.071C2.59305 588.298 3.58814 589.292 4.81566 589.292Z" fill="#D1D1D1"/>
<path d="M4.81566 601.26C6.04317 601.26 7.03827 600.265 7.03827 599.039C7.03827 597.812 6.04317 596.818 4.81566 596.818C3.58814 596.818 2.59305 597.812 2.59305 599.039C2.59305 600.265 3.58814 601.26 4.81566 601.26Z" fill="#D1D1D1"/>
<path d="M4.81566 613.227C6.04317 613.227 7.03827 612.233 7.03827 611.006C7.03827 609.78 6.04317 608.786 4.81566 608.786C3.58814 608.786 2.59305 609.78 2.59305 611.006C2.59305 612.233 3.58814 613.227 4.81566 613.227Z" fill="#D1D1D1"/>
<path d="M4.81566 625.195C6.04317 625.195 7.03827 624.2 7.03827 622.974C7.03827 621.747 6.04317 620.753 4.81566 620.753C3.58814 620.753 2.59305 621.747 2.59305 622.974C2.59305 624.2 3.58814 625.195 4.81566 625.195Z" fill="#D1D1D1"/>
<path d="M4.81566 637.286C6.04317 637.286 7.03827 636.291 7.03827 635.065C7.03827 633.838 6.04317 632.844 4.81566 632.844C3.58814 632.844 2.59305 633.838 2.59305 635.065C2.59305 636.291 3.58814 637.286 4.81566 637.286Z" fill="#D1D1D1"/>
<path d="M114.217 553.39C115.445 553.39 116.44 552.395 116.44 551.169C116.44 549.942 115.445 548.948 114.217 548.948C112.99 548.948 111.995 549.942 111.995 551.169C111.995 552.395 112.99 553.39 114.217 553.39Z" fill="#D1D1D1"/>
<path d="M114.217 565.357C115.445 565.357 116.44 564.363 116.44 563.136C116.44 561.91 115.445 560.916 114.217 560.916C112.99 560.916 111.995 561.91 111.995 563.136C111.995 564.363 112.99 565.357 114.217 565.357Z" fill="#D1D1D1"/>
<path d="M114.217 577.325C115.445 577.325 116.44 576.33 116.44 575.104C116.44 573.877 115.445 572.883 114.217 572.883C112.99 572.883 111.995 573.877 111.995 575.104C111.995 576.33 112.99 577.325 114.217 577.325Z" fill="#D1D1D1"/>
<path d="M114.217 589.292C115.445 589.292 116.44 588.298 116.44 587.071C116.44 585.845 115.445 584.851 114.217 584.851C112.99 584.851 111.995 585.845 111.995 587.071C111.995 588.298 112.99 589.292 114.217 589.292Z" fill="#D1D1D1"/>
<path d="M114.217 601.26C115.445 601.26 116.44 600.265 116.44 599.039C116.44 597.812 115.445 596.818 114.217 596.818C112.99 596.818 111.995 597.812 111.995 599.039C111.995 600.265 112.99 601.26 114.217 601.26Z" fill="#D1D1D1"/>
<path d="M114.217 613.227C115.445 613.227 116.44 612.233 116.44 611.006C116.44 609.78 115.445 608.786 114.217 608.786C112.99 608.786 111.995 609.78 111.995 611.006C111.995 612.233 112.99 613.227 114.217 613.227Z" fill="#D1D1D1"/>
<path d="M114.217 625.195C115.445 625.195 116.44 624.2 116.44 622.974C116.44 621.747 115.445 620.753 114.217 620.753C112.99 620.753 111.995 621.747 111.995 622.974C111.995 624.2 112.99 625.195 114.217 625.195Z" fill="#D1D1D1"/>
<path d="M114.217 637.286C115.445 637.286 116.44 636.291 116.44 635.065C116.44 633.838 115.445 632.844 114.217 632.844C112.99 632.844 111.995 633.838 111.995 635.065C111.995 636.291 112.99 637.286 114.217 637.286Z" fill="#D1D1D1"/>
<path d="M92.3618 553.39C93.5893 553.39 94.5844 552.395 94.5844 551.169C94.5844 549.942 93.5893 548.948 92.3618 548.948C91.1343 548.948 90.1392 549.942 90.1392 551.169C90.1392 552.395 91.1343 553.39 92.3618 553.39Z" fill="#D1D1D1"/>
<path d="M92.3618 565.357C93.5893 565.357 94.5844 564.363 94.5844 563.136C94.5844 561.91 93.5893 560.916 92.3618 560.916C91.1343 560.916 90.1392 561.91 90.1392 563.136C90.1392 564.363 91.1343 565.357 92.3618 565.357Z" fill="#D1D1D1"/>
<path d="M92.3618 577.325C93.5893 577.325 94.5844 576.33 94.5844 575.104C94.5844 573.877 93.5893 572.883 92.3618 572.883C91.1343 572.883 90.1392 573.877 90.1392 575.104C90.1392 576.33 91.1343 577.325 92.3618 577.325Z" fill="#D1D1D1"/>
<path d="M92.3618 589.292C93.5893 589.292 94.5844 588.298 94.5844 587.071C94.5844 585.845 93.5893 584.851 92.3618 584.851C91.1343 584.851 90.1392 585.845 90.1392 587.071C90.1392 588.298 91.1343 589.292 92.3618 589.292Z" fill="#D1D1D1"/>
<path d="M92.3618 601.26C93.5893 601.26 94.5844 600.265 94.5844 599.039C94.5844 597.812 93.5893 596.818 92.3618 596.818C91.1343 596.818 90.1392 597.812 90.1392 599.039C90.1392 600.265 91.1343 601.26 92.3618 601.26Z" fill="#D1D1D1"/>
<path d="M92.3618 613.227C93.5893 613.227 94.5844 612.233 94.5844 611.006C94.5844 609.78 93.5893 608.786 92.3618 608.786C91.1343 608.786 90.1392 609.78 90.1392 611.006C90.1392 612.233 91.1343 613.227 92.3618 613.227Z" fill="#D1D1D1"/>
<path d="M92.3618 625.195C93.5893 625.195 94.5844 624.2 94.5844 622.974C94.5844 621.747 93.5893 620.753 92.3618 620.753C91.1343 620.753 90.1392 621.747 90.1392 622.974C90.1392 624.2 91.1343 625.195 92.3618 625.195Z" fill="#D1D1D1"/>
<path d="M92.3618 637.286C93.5893 637.286 94.5844 636.291 94.5844 635.065C94.5844 633.838 93.5893 632.844 92.3618 632.844C91.1343 632.844 90.1392 633.838 90.1392 635.065C90.1392 636.291 91.1343 637.286 92.3618 637.286Z" fill="#D1D1D1"/>
<path d="M136.073 553.39C137.301 553.39 138.296 552.395 138.296 551.169C138.296 549.942 137.301 548.948 136.073 548.948C134.846 548.948 133.85 549.942 133.85 551.169C133.85 552.395 134.846 553.39 136.073 553.39Z" fill="#D1D1D1"/>
<path d="M136.073 565.357C137.301 565.357 138.296 564.363 138.296 563.136C138.296 561.91 137.301 560.916 136.073 560.916C134.846 560.916 133.85 561.91 133.85 563.136C133.85 564.363 134.846 565.357 136.073 565.357Z" fill="#D1D1D1"/>
<path d="M136.073 577.325C137.301 577.325 138.296 576.33 138.296 575.104C138.296 573.877 137.301 572.883 136.073 572.883C134.846 572.883 133.85 573.877 133.85 575.104C133.85 576.33 134.846 577.325 136.073 577.325Z" fill="#D1D1D1"/>
<path d="M136.073 589.292C137.301 589.292 138.296 588.298 138.296 587.071C138.296 585.845 137.301 584.851 136.073 584.851C134.846 584.851 133.85 585.845 133.85 587.071C133.85 588.298 134.846 589.292 136.073 589.292Z" fill="#D1D1D1"/>
<path d="M136.073 601.26C137.301 601.26 138.296 600.265 138.296 599.039C138.296 597.812 137.301 596.818 136.073 596.818C134.846 596.818 133.85 597.812 133.85 599.039C133.85 600.265 134.846 601.26 136.073 601.26Z" fill="#D1D1D1"/>
<path d="M136.073 613.227C137.301 613.227 138.296 612.233 138.296 611.006C138.296 609.78 137.301 608.786 136.073 608.786C134.846 608.786 133.85 609.78 133.85 611.006C133.85 612.233 134.846 613.227 136.073 613.227Z" fill="#D1D1D1"/>
<path d="M136.073 625.195C137.301 625.195 138.296 624.2 138.296 622.974C138.296 621.747 137.301 620.753 136.073 620.753C134.846 620.753 133.85 621.747 133.85 622.974C133.85 624.2 134.846 625.195 136.073 625.195Z" fill="#D1D1D1"/>
<path d="M136.073 637.286C137.301 637.286 138.296 636.291 138.296 635.065C138.296 633.838 137.301 632.844 136.073 632.844C134.846 632.844 133.85 633.838 133.85 635.065C133.85 636.291 134.846 637.286 136.073 637.286Z" fill="#D1D1D1"/>
<path d="M70.3826 553.39C71.6102 553.39 72.6053 552.395 72.6053 551.169C72.6053 549.942 71.6102 548.948 70.3826 548.948C69.1551 548.948 68.16 549.942 68.16 551.169C68.16 552.395 69.1551 553.39 70.3826 553.39Z" fill="#D1D1D1"/>
<path d="M70.3826 565.357C71.6102 565.357 72.6053 564.363 72.6053 563.136C72.6053 561.91 71.6102 560.916 70.3826 560.916C69.1551 560.916 68.16 561.91 68.16 563.136C68.16 564.363 69.1551 565.357 70.3826 565.357Z" fill="#D1D1D1"/>
<path d="M70.3826 577.325C71.6102 577.325 72.6053 576.33 72.6053 575.104C72.6053 573.877 71.6102 572.883 70.3826 572.883C69.1551 572.883 68.16 573.877 68.16 575.104C68.16 576.33 69.1551 577.325 70.3826 577.325Z" fill="#D1D1D1"/>
<path d="M70.3826 589.292C71.6102 589.292 72.6053 588.298 72.6053 587.071C72.6053 585.845 71.6102 584.851 70.3826 584.851C69.1551 584.851 68.16 585.845 68.16 587.071C68.16 588.298 69.1551 589.292 70.3826 589.292Z" fill="#D1D1D1"/>
<path d="M70.3826 601.26C71.6102 601.26 72.6053 600.265 72.6053 599.039C72.6053 597.812 71.6102 596.818 70.3826 596.818C69.1551 596.818 68.16 597.812 68.16 599.039C68.16 600.265 69.1551 601.26 70.3826 601.26Z" fill="#D1D1D1"/>
<path d="M70.3826 613.227C71.6102 613.227 72.6053 612.233 72.6053 611.006C72.6053 609.78 71.6102 608.786 70.3826 608.786C69.1551 608.786 68.16 609.78 68.16 611.006C68.16 612.233 69.1551 613.227 70.3826 613.227Z" fill="#D1D1D1"/>
<path d="M70.3826 625.195C71.6102 625.195 72.6053 624.2 72.6053 622.974C72.6053 621.747 71.6102 620.753 70.3826 620.753C69.1551 620.753 68.16 621.747 68.16 622.974C68.16 624.2 69.1551 625.195 70.3826 625.195Z" fill="#D1D1D1"/>
<path d="M70.3826 637.286C71.6102 637.286 72.6053 636.291 72.6053 635.065C72.6053 633.838 71.6102 632.844 70.3826 632.844C69.1551 632.844 68.16 633.838 68.16 635.065C68.16 636.291 69.1551 637.286 70.3826 637.286Z" fill="#D1D1D1"/>
<path d="M48.5269 553.39C49.7544 553.39 50.7495 552.395 50.7495 551.169C50.7495 549.942 49.7544 548.948 48.5269 548.948C47.2994 548.948 46.3043 549.942 46.3043 551.169C46.3043 552.395 47.2994 553.39 48.5269 553.39Z" fill="#D1D1D1"/>
<path d="M48.5269 565.357C49.7544 565.357 50.7495 564.363 50.7495 563.136C50.7495 561.91 49.7544 560.916 48.5269 560.916C47.2994 560.916 46.3043 561.91 46.3043 563.136C46.3043 564.363 47.2994 565.357 48.5269 565.357Z" fill="#D1D1D1"/>
<path d="M48.5269 577.325C49.7544 577.325 50.7495 576.33 50.7495 575.104C50.7495 573.877 49.7544 572.883 48.5269 572.883C47.2994 572.883 46.3043 573.877 46.3043 575.104C46.3043 576.33 47.2994 577.325 48.5269 577.325Z" fill="#D1D1D1"/>
<path d="M48.5269 589.292C49.7544 589.292 50.7495 588.298 50.7495 587.071C50.7495 585.845 49.7544 584.851 48.5269 584.851C47.2994 584.851 46.3043 585.845 46.3043 587.071C46.3043 588.298 47.2994 589.292 48.5269 589.292Z" fill="#D1D1D1"/>
<path d="M48.5269 601.26C49.7544 601.26 50.7495 600.265 50.7495 599.039C50.7495 597.812 49.7544 596.818 48.5269 596.818C47.2994 596.818 46.3043 597.812 46.3043 599.039C46.3043 600.265 47.2994 601.26 48.5269 601.26Z" fill="#D1D1D1"/>
<path d="M48.5269 613.227C49.7544 613.227 50.7495 612.233 50.7495 611.006C50.7495 609.78 49.7544 608.786 48.5269 608.786C47.2994 608.786 46.3043 609.78 46.3043 611.006C46.3043 612.233 47.2994 613.227 48.5269 613.227Z" fill="#D1D1D1"/>
<path d="M48.5269 625.195C49.7544 625.195 50.7495 624.2 50.7495 622.974C50.7495 621.747 49.7544 620.753 48.5269 620.753C47.2994 620.753 46.3043 621.747 46.3043 622.974C46.3043 624.2 47.2994 625.195 48.5269 625.195Z" fill="#D1D1D1"/>
<path d="M48.5269 637.286C49.7544 637.286 50.7495 636.291 50.7495 635.065C50.7495 633.838 49.7544 632.844 48.5269 632.844C47.2994 632.844 46.3043 633.838 46.3043 635.065C46.3043 636.291 47.2994 637.286 48.5269 637.286Z" fill="#D1D1D1"/>
<path d="M26.6713 553.39C27.8988 553.39 28.8939 552.395 28.8939 551.169C28.8939 549.942 27.8988 548.948 26.6713 548.948C25.4438 548.948 24.4487 549.942 24.4487 551.169C24.4487 552.395 25.4438 553.39 26.6713 553.39Z" fill="#D1D1D1"/>
<path d="M26.6713 565.357C27.8988 565.357 28.8939 564.363 28.8939 563.136C28.8939 561.91 27.8988 560.916 26.6713 560.916C25.4438 560.916 24.4487 561.91 24.4487 563.136C24.4487 564.363 25.4438 565.357 26.6713 565.357Z" fill="#D1D1D1"/>
<path d="M26.6713 577.325C27.8988 577.325 28.8939 576.33 28.8939 575.104C28.8939 573.877 27.8988 572.883 26.6713 572.883C25.4438 572.883 24.4487 573.877 24.4487 575.104C24.4487 576.33 25.4438 577.325 26.6713 577.325Z" fill="#D1D1D1"/>
<path d="M26.6713 589.292C27.8988 589.292 28.8939 588.298 28.8939 587.071C28.8939 585.845 27.8988 584.851 26.6713 584.851C25.4438 584.851 24.4487 585.845 24.4487 587.071C24.4487 588.298 25.4438 589.292 26.6713 589.292Z" fill="#D1D1D1"/>
<path d="M26.6713 601.26C27.8988 601.26 28.8939 600.265 28.8939 599.039C28.8939 597.812 27.8988 596.818 26.6713 596.818C25.4438 596.818 24.4487 597.812 24.4487 599.039C24.4487 600.265 25.4438 601.26 26.6713 601.26Z" fill="#D1D1D1"/>
<path d="M26.6713 613.227C27.8988 613.227 28.8939 612.233 28.8939 611.006C28.8939 609.78 27.8988 608.786 26.6713 608.786C25.4438 608.786 24.4487 609.78 24.4487 611.006C24.4487 612.233 25.4438 613.227 26.6713 613.227Z" fill="#D1D1D1"/>
<path d="M26.6713 625.195C27.8988 625.195 28.8939 624.2 28.8939 622.974C28.8939 621.747 27.8988 620.753 26.6713 620.753C25.4438 620.753 24.4487 621.747 24.4487 622.974C24.4487 624.2 25.4438 625.195 26.6713 625.195Z" fill="#D1D1D1"/>
<path d="M26.6713 637.286C27.8988 637.286 28.8939 636.291 28.8939 635.065C28.8939 633.838 27.8988 632.844 26.6713 632.844C25.4438 632.844 24.4487 633.838 24.4487 635.065C24.4487 636.291 25.4438 637.286 26.6713 637.286Z" fill="#D1D1D1"/>
</g>
</g>
</svg>
