<svg width="835" height="608" viewBox="0 0 835 608" fill="none" xmlns="http://www.w3.org/2000/svg">
<path opacity="0.15" d="M811.575 179.545C797.023 134.48 765.369 94.1788 724.541 70.896C621.626 12.1885 542.326 103.714 452.621 140.235C411.15 157.119 368.542 153.379 327.304 138.027C284.71 122.167 248.323 93.4976 203.684 81.7149C161.417 70.5726 112.33 73.9753 81.2904 107.201C50.7145 139.909 34.1565 183.755 27.0168 227.394C17.5476 285.165 31.3107 342.96 65.5733 390.539C106.854 447.88 166.567 488.238 228.425 520.834C328.752 573.681 440.283 602.83 542.375 535.186C572.585 515.174 597.851 489.034 624.587 464.828C651.829 440.155 681.032 422.961 712.07 403.923C768.734 369.18 815.374 312.95 819.985 244.692C821.475 222.78 818.388 200.645 811.575 179.545Z" fill="url(#paint0_linear)"/>
<mask id="mask0" mask-type="alpha" maskUnits="userSpaceOnUse" x="35" y="106" width="768" height="354">
<rect x="35.9929" y="106.115" width="767" height="353" fill="#260759"/>
</mask>
<g mask="url(#mask0)">
<g clip-path="url(#clip0)">
<path d="M379.123 411.425L383.723 399.195L441.623 270.335L412.203 279.335L382.183 399.195L379.123 411.425Z" fill="#444444"/>
<path d="M443.323 155.115L438.583 167.725L383.383 287.565L412.203 279.335L440.163 167.725L443.323 155.115Z" fill="#444444"/>
<path d="M414.483 200.245L389.563 244.795L380.853 206.865L334.993 215.895L359.153 317.485L396.853 310.065L463.553 190.585L414.483 200.245Z" fill="#444444"/>
<path d="M472.613 300.075L489.763 261.685L481.913 258.385C477.163 256.385 471.533 255.245 465.163 254.975C459.083 254.725 452.503 255.285 445.603 256.645C435.963 258.545 427.313 261.775 419.893 266.265C411.913 271.095 405.603 277.105 401.123 284.155C396.493 291.445 394.143 299.355 394.143 307.665C394.143 314.225 395.773 319.565 399.003 323.565L398.883 323.515L379.883 363.315L387.453 366.925C392.383 369.275 398.653 370.735 406.093 371.275C413.313 371.795 421.023 371.265 429.013 369.695C438.563 367.815 447.183 364.585 454.643 360.095C462.653 355.275 469.003 349.265 473.523 342.225C478.213 334.915 480.593 327.025 480.593 318.775C480.593 311.375 478.433 305.545 474.183 301.455C473.673 300.985 473.153 300.515 472.613 300.075Z" fill="#444444"/>
<path d="M449.413 199.295L395.473 295.925L371.513 300.635L351.973 218.475L376.923 213.565L389.203 267.055L424.353 204.235L449.413 199.295Z" fill="white"/>
<path d="M412.993 355.855C406.603 355.395 401.403 354.205 397.393 352.295L406.973 332.225C411.313 334.155 415.943 335.355 420.863 335.825C425.773 336.295 430.693 336.045 435.603 335.075C440.273 334.155 443.893 332.765 446.473 330.905C449.053 329.045 450.343 326.925 450.343 324.555C450.343 322.505 449.173 321.145 446.843 320.455C444.503 319.765 440.883 319.255 435.963 318.915C430.393 318.535 425.763 317.955 422.083 317.165C418.393 316.375 415.223 314.685 412.563 312.095C409.903 309.505 408.573 305.675 408.573 300.595C408.573 294.455 410.253 288.735 413.613 283.445C416.973 278.155 421.763 273.625 427.993 269.865C434.223 266.105 441.513 263.395 449.863 261.755C456.003 260.545 461.743 260.055 467.063 260.275C472.383 260.495 476.973 261.415 480.823 263.035L471.973 282.835C468.613 281.365 464.913 280.475 460.853 280.165C456.803 279.855 452.643 280.125 448.383 280.965C443.553 281.915 439.763 283.445 437.013 285.535C434.263 287.635 432.903 289.905 432.903 292.365C432.903 294.495 434.093 295.905 436.463 296.575C438.833 297.255 442.523 297.755 447.523 298.085C453.093 298.385 457.703 298.905 461.343 299.665C464.983 300.425 468.123 302.055 470.743 304.575C473.363 307.095 474.673 310.805 474.673 315.715C474.673 321.775 472.973 327.455 469.573 332.755C466.173 338.055 461.343 342.585 455.073 346.355C448.803 350.125 441.533 352.825 433.263 354.455C426.143 355.855 419.383 356.325 412.993 355.855Z" fill="white"/>
</g>
<g clip-path="url(#clip1)">
<path d="M735.213 316.065L767.103 299.915L778.093 341.405L750.673 356.615L735.213 316.065Z" fill="#FEB7B6"/>
<path d="M750.413 397.205L753.103 401.635C757.313 408.585 759.543 416.565 759.543 424.695V461.105L683.813 470.235L619.413 464.755L635.393 410.895L750.413 397.205Z" fill="#262262"/>
<path d="M735.963 426.315L713.023 430.625C695.793 433.865 678.073 433.475 660.993 429.475L645.613 425.875C640.523 424.685 636.203 421.475 633.553 417.075L635.383 410.895L750.403 397.205L753.093 401.635C754.543 404.025 755.743 406.535 756.713 409.125L756.383 409.895C752.753 418.445 745.083 424.595 735.963 426.315Z" fill="#161223"/>
<path d="M682.093 240.355L635.993 250.405L587.163 281.675L596.123 335.975L626.253 307.495L630.223 357.025C633.503 366.725 632.903 414.195 632.903 414.195C634.663 417.085 637.573 419.085 640.913 419.695C660.723 423.295 698.753 427.005 735.093 417.705C744.073 415.405 751.743 409.545 756.223 401.425C760.323 394.005 761.453 385.315 759.393 377.095C755.313 360.735 743.413 334.725 736.193 318.645L771.553 300.195L749.593 265.835C742.303 254.435 730.563 246.615 717.233 244.305L679.423 237.735" fill="#2DF8B4"/>
<path d="M651.943 271.525C655.583 272.145 659.753 272.265 663.983 271.475C668.203 270.695 672.453 269.025 675.993 266.465C679.533 263.895 682.353 260.455 684.253 256.805C686.173 253.145 687.153 249.305 687.473 245.815C688.323 249.215 688.233 253.515 686.693 257.765C685.183 262.005 682.213 266.165 678.133 269.125C674.043 272.085 669.023 273.695 664.313 273.965C659.583 274.245 655.183 273.195 651.943 271.525Z" fill="#1FDD99"/>
<path d="M701.033 324.085L761.293 330.545C773.213 333.695 785.273 344.895 782.503 356.265C782.503 356.265 774.843 377.465 755.433 368.825L709.703 350.535L709.723 349.665C709.873 343.045 701.033 324.085 701.033 324.085Z" fill="#F7B2B2"/>
<path d="M647.513 245.155C652.743 246.525 658.433 246.045 663.363 243.815C669.223 241.165 673.683 236.335 677.453 231.035L681.173 242.435C683.013 248.075 681.883 254.265 678.173 258.885C672.443 266.025 662.743 268.955 654.183 265.685C646.133 262.615 640.933 255.075 640.693 246.745L640.553 242.045C642.693 243.435 645.043 244.505 647.513 245.155Z" fill="#F2A5A5"/>
<path d="M628.973 348.085L636.953 347.435C640.083 347.175 642.923 349.255 643.633 352.315L647.613 369.585L645.223 369.855C640.113 370.425 635.433 366.945 634.503 361.885L633.663 357.315L628.973 348.085Z" fill="#FF8882"/>
<path d="M635.273 363.635L638.043 358.045C639.083 355.945 638.543 353.415 636.743 351.915L628.913 345.415C625.933 342.945 621.993 341.985 618.213 342.805L601.363 346.475L591.203 378.315L607.603 393.125C609.163 394.535 611.203 395.295 613.303 395.235L618.993 395.095C621.523 395.035 623.773 393.495 624.753 391.165L626.233 387.635L627.403 387.395C629.773 386.905 631.563 384.955 631.863 382.555L632.593 376.715C634.683 376.575 636.503 375.245 637.263 373.295L638.253 370.755C639.163 368.415 638.353 365.755 636.283 364.335L635.273 363.635Z" fill="#FFA687"/>
<path d="M635.273 363.635L619.853 351.445L624.863 353.775C628.813 355.605 632.133 358.565 634.423 362.265L635.273 363.635Z" fill="#FF8882"/>
<path d="M632.603 376.725L610.993 371.775L615.883 374.245C620.183 376.415 624.993 377.355 629.793 376.955L632.603 376.725Z" fill="#FF8882"/>
<path d="M626.253 387.645H610.993L613.533 388.355C617.643 389.505 622.003 389.285 625.983 387.755L626.253 387.645Z" fill="#FF8882"/>
<path d="M639.713 273.645C610.603 269.855 590.713 248.925 583.653 240.305C582.883 239.375 581.793 238.895 580.693 238.875V238.865L566.383 237.295L562.273 246.415L562.923 252.075C546.523 262.045 529.113 263.835 520.763 264.065C517.773 264.145 515.213 266.235 514.593 269.165C492.163 374.965 527.973 419.065 550.383 435.665L551.133 442.335L565.623 443.925C566.973 444.095 568.353 444.005 569.663 443.585C643.113 420.205 645.803 306.895 645.383 279.925C645.343 276.695 642.913 274.065 639.713 273.645Z" fill="#18A06C"/>
<path d="M569.173 238.725C576.233 247.335 596.113 268.275 625.233 272.065C628.433 272.485 630.863 275.115 630.913 278.335C631.333 305.305 628.643 418.615 555.193 441.995C552.823 442.745 550.263 442.485 548.013 441.425C532.123 433.925 472.743 396.695 500.123 267.595C500.743 264.665 503.313 262.575 506.293 262.495C517.253 262.205 543.823 259.225 563.233 238.555C564.853 236.815 567.653 236.875 569.173 238.725Z" fill="#21F9A1"/>
<path d="M565.783 249.945C575.613 260.545 594.663 277.055 620.993 281.475C621.053 296.205 619.963 327.755 611.183 358.795C599.863 398.775 580.063 423.565 552.333 432.465C552.313 432.455 552.273 432.445 552.243 432.425C545.583 429.285 528.793 419.415 516.693 395.595C509.743 381.915 505.373 365.645 503.713 347.255C501.733 325.275 503.603 300.065 509.283 272.295C521.563 271.615 545.953 267.835 565.783 249.945ZM566.133 237.295C565.073 237.295 564.013 237.715 563.223 238.555C543.813 259.225 517.253 262.195 506.283 262.495C503.293 262.575 500.733 264.665 500.113 267.595C472.733 396.705 532.113 433.935 548.003 441.425C549.383 442.075 550.883 442.425 552.383 442.425C553.333 442.425 554.273 442.285 555.193 441.995C628.643 418.615 631.333 305.305 630.913 278.335C630.863 275.115 628.433 272.475 625.233 272.065C596.123 268.275 576.233 247.345 569.173 238.725C568.383 237.765 567.263 237.295 566.133 237.295Z" fill="#25D893"/>
<path d="M697.913 184.285C698.933 205.685 673.253 224.925 657.883 225.035C636.463 225.175 618.303 209.535 617.283 188.135C616.263 166.735 632.783 148.555 654.183 147.535C675.593 146.505 696.753 159.945 697.913 184.285Z" fill="#B15737"/>
<path d="M637.873 208.645C637.913 215.605 632.333 220.195 625.373 220.235C618.413 220.275 612.773 213.155 612.723 206.195C612.683 199.235 618.243 196.165 625.193 196.115C632.153 196.075 637.833 201.685 637.873 208.645Z" fill="#F4ABAB"/>
<path d="M641.453 154.225C641.453 154.225 613.873 156.435 617.693 192.615C621.503 228.795 626.233 238.235 641.113 245.175C654.493 251.405 670.903 244.505 679.653 228.625C683.093 222.385 685.453 213.145 685.653 206.035L687.363 196.455C687.353 196.465 696.503 148.795 641.453 154.225Z" fill="#FEB7B6"/>
<path d="M682.223 163.155C682.223 163.155 615.423 187.635 605.503 165.935C595.583 144.235 631.913 136.165 646.623 149.645C646.623 149.645 672.283 149.455 682.223 163.155Z" fill="#16285F"/>
<path d="M678.163 160.015C677.873 159.775 669.163 174.065 681.293 186.415L679.733 206.495L684.373 208.185L691.343 195.505L690.183 171.235L678.163 160.015Z" fill="#16285F"/>
<path d="M639.163 147.095C639.163 147.095 660.993 132.655 684.293 144.405C702.623 153.655 682.653 174.225 682.653 174.225L675.663 159.855L653.173 154.895L639.163 147.095Z" fill="#16285F"/>
<path d="M684.913 156.265C684.913 156.265 703.113 152.045 706.453 170.445C709.793 188.845 686.393 217.025 686.393 217.025L684.913 156.265Z" fill="#16285F"/>
<path d="M678.553 213.845C680.363 220.565 683.773 222.985 692.623 220.755C699.373 219.055 702.883 210.565 701.073 203.855C699.263 197.145 693.623 195.795 686.663 198.375C681.823 200.165 676.743 207.135 678.553 213.845Z" fill="#FEB7B6"/>
<path d="M700.933 348.505C700.123 347.625 696.723 344.285 689.813 343.545C694.793 342.745 699.873 344.155 703.713 347.415L704.113 347.755L701.803 353.965C701.273 353.135 700.573 352.435 699.783 351.835L700.933 348.505Z" fill="#A99B95"/>
<path d="M699.783 351.835C700.573 352.425 701.273 353.135 701.803 353.965L700.803 356.645C700.463 355.695 699.833 354.835 699.003 354.065L699.783 351.835Z" fill="#A99B95"/>
<path d="M699.783 351.835L699.013 354.065C696.163 351.395 691.103 349.835 688.713 349.675C691.503 349.405 693.103 349.315 695.823 349.985C697.243 350.335 698.623 350.965 699.783 351.835Z" fill="#A99B95"/>
<path d="M700.933 348.505L699.783 351.835C698.613 350.965 697.233 350.335 695.823 349.985C693.103 349.315 691.493 349.405 688.713 349.675L689.813 343.535C696.723 344.285 700.133 347.615 700.933 348.505Z" fill="#D6CFBE"/>
<path d="M699.013 354.065L696.713 360.725C695.563 359.865 694.203 359.255 692.803 358.955C691.203 358.625 688.713 358.395 687.113 358.535L688.703 349.675C691.103 349.835 696.163 351.395 699.013 354.065Z" fill="#D6CFBE"/>
<path d="M696.723 360.725L695.973 362.905C693.733 360.695 690.143 359.035 687.123 358.535C688.723 358.395 691.213 358.625 692.813 358.955C694.213 359.255 695.563 359.865 696.723 360.725Z" fill="#A99B95"/>
<path d="M697.633 365.195L694.673 373.155L692.753 372.175L695.953 362.905C696.683 363.615 697.263 364.385 697.633 365.195Z" fill="#A99B95"/>
<path d="M687.123 358.535C690.143 359.025 693.733 360.685 695.973 362.905L692.773 372.175L685.353 368.395L687.123 358.535Z" fill="#D6CFBE"/>
<path d="M696.723 360.725C697.443 361.265 698.073 361.915 698.593 362.645L697.643 365.195C697.263 364.385 696.693 363.615 695.973 362.905L696.723 360.725Z" fill="#A99B95"/>
<path d="M699.013 354.065C699.833 354.835 700.473 355.695 700.813 356.645L698.583 362.645C698.073 361.915 697.443 361.265 696.713 360.725L699.013 354.065Z" fill="#A99B95"/>
<path d="M686.743 383.165C692.593 382.115 696.483 376.525 695.433 370.675C695.423 370.625 695.413 370.585 695.403 370.535C696.643 371.955 697.533 373.715 697.893 375.705C698.943 381.555 695.053 387.145 689.203 388.195C683.403 389.235 677.853 385.415 676.743 379.645C679.143 382.385 682.883 383.855 686.743 383.165Z" fill="#D6CFBE"/>
<path d="M686.743 383.165C682.883 383.855 679.143 382.395 676.743 379.635C676.733 379.585 676.723 379.545 676.713 379.495C675.663 373.645 679.553 368.055 685.403 367.005C689.263 366.315 693.003 367.775 695.403 370.535C695.413 370.585 695.423 370.625 695.433 370.675C696.483 376.515 692.593 382.115 686.743 383.165Z" fill="#E4E4E0"/>
<path d="M745.983 128.375L704.783 303.885L695.583 302.185L725.623 159.005L745.983 128.375Z" fill="#CECECE"/>
<path d="M745.983 128.375L746.153 128.115L755.163 162.075L714.383 305.655L704.783 303.885L745.983 128.375Z" fill="#D7D7D7"/>
<path d="M746.153 128.115L759.083 161.995L714.383 305.655L755.163 162.075L746.153 128.115Z" fill="white"/>
<path d="M725.623 159.005L695.583 302.185L723.273 158.265L745.993 128.325L745.983 128.375L725.623 159.005Z" fill="#D6CFBE"/>
<path d="M686.383 281.115L691.043 286.115C692.173 292.825 696.793 299.095 703.083 302.485C709.213 305.775 717.053 306.435 724.073 304.255C726.403 303.525 728.643 302.505 730.753 301.235L728.453 298.825L736.903 288.665L745.203 291.675L749.863 296.675C744.303 305.005 736.223 311.165 727.103 314.005C725.553 314.485 723.983 314.875 722.403 315.155C714.073 316.645 705.483 315.375 698.243 311.485C689.093 306.565 677.973 292.725 676.303 282.825L686.383 281.115Z" fill="#A99B95"/>
<path d="M717.753 310.155C719.333 309.875 720.903 309.485 722.453 309.005C731.573 306.165 739.653 300.015 745.213 291.675L736.713 286.005C732.453 292.395 726.303 297.105 719.413 299.255C712.393 301.435 704.553 300.775 698.423 297.485C692.133 294.105 687.513 287.825 686.383 281.115L676.313 282.815C677.983 292.715 684.443 301.555 693.593 306.475C700.833 310.375 709.423 311.645 717.753 310.155Z" fill="#D6CFBE"/>
<path d="M687.523 311.125C684.793 310.145 681.823 311.795 681.203 314.625L679.263 323.495C678.743 325.865 680.183 328.215 682.533 328.835C684.913 329.465 687.353 328.075 688.033 325.705L690.533 316.975C691.223 314.535 689.913 311.975 687.523 311.125Z" fill="#FEB7B6"/>
<path d="M715.463 311.445L705.413 305.955C702.243 304.225 698.333 304.655 695.623 307.035L691.013 311.085C689.583 312.335 688.623 314.035 688.273 315.895L683.433 341.505C683.103 343.265 683.713 345.065 685.043 346.255L688.713 349.665L689.813 343.525C694.793 342.725 699.873 344.135 703.713 347.395L704.113 347.735L701.803 353.945L707.543 351.545C711.053 350.135 713.593 347.025 714.283 343.305L718.873 318.645C719.433 315.775 718.043 312.855 715.463 311.445Z" fill="#FEB7B6"/>
<path d="M684.003 338.525L693.973 333.715C695.433 333.005 697.163 333.145 698.503 334.075L705.173 338.705L699.863 333.085C697.643 330.725 693.973 330.485 691.453 332.515L684.003 338.525Z" fill="#F4B0B0"/>
<path d="M684.873 333.025L694.913 325.625C697.013 324.075 699.933 324.295 701.783 326.145L706.863 331.235L702.903 325.325C700.683 322.005 695.963 321.585 693.183 324.445L684.873 333.025Z" fill="#F4B0B0"/>
<path d="M686.873 322.405L694.343 315.555C696.393 313.675 699.513 313.615 701.643 315.405L706.643 319.615L702.083 313.895C700.093 311.395 696.323 311.335 694.243 313.765L686.873 322.405Z" fill="#F4B0B0"/>
<path d="M529.013 345.645L528.273 345.115C523.423 341.645 522.303 334.835 525.773 329.995L552.303 292.935C555.773 288.085 562.583 286.965 567.423 290.435L568.163 290.965C573.013 294.435 574.133 301.245 570.663 306.085L544.133 343.145C540.673 347.985 533.863 349.115 529.013 345.645Z" fill="#FBBD04"/>
<path d="M584.893 350.485L584.063 350.865C578.633 353.325 572.173 350.905 569.713 345.475L550.883 303.965C548.423 298.535 550.843 292.075 556.273 289.615L557.103 289.235C562.533 286.775 568.993 289.195 571.453 294.625L590.283 336.135C592.743 341.565 590.323 348.025 584.893 350.485Z" fill="#438EDC"/>
<path d="M535.393 347.495C541.717 347.495 546.843 342.368 546.843 336.045C546.843 329.721 541.717 324.595 535.393 324.595C529.069 324.595 523.943 329.721 523.943 336.045C523.943 342.368 529.069 347.495 535.393 347.495Z" fill="#34A952"/>
<path d="M551.323 367.275C552.193 367.115 552.753 366.435 552.853 365.445C552.913 364.835 552.793 364.345 552.493 363.955C551.623 362.825 549.923 363.105 549.373 364.485C549.143 365.045 549.143 365.095 549.253 365.745C549.353 366.325 549.793 366.965 550.183 367.085C550.293 367.125 550.463 367.195 550.553 367.245C550.783 367.365 550.813 367.375 551.323 367.275ZM549.343 371.705C548.483 371.325 547.753 370.565 547.413 369.705C547.313 369.455 547.383 369.415 548.203 369.185C548.783 369.025 548.963 369.015 548.953 369.155C548.933 369.355 549.413 369.955 549.753 370.165C550.443 370.575 551.423 370.465 551.933 369.915C552.173 369.665 552.423 368.945 552.433 368.535V368.315L552.063 368.525C551.543 368.815 550.713 368.895 550.063 368.695C549.283 368.465 548.803 368.155 548.333 367.555C547.823 366.925 547.633 366.435 547.533 365.575C547.343 363.845 548.603 362.135 550.333 361.765C551.213 361.575 552.393 361.865 552.843 362.395L553.023 362.595L553.073 362.355L553.123 362.115L553.893 362.195L554.663 362.275L554.353 365.695C554.023 369.285 553.943 369.775 553.493 370.495C553.053 371.215 552.283 371.735 551.373 371.935C550.803 372.045 549.893 371.945 549.343 371.705Z" fill="#22206B"/>
<path d="M536.743 365.575C537.453 365.185 537.873 364.215 537.723 363.335C537.603 362.595 536.843 361.855 536.143 361.785C535.013 361.675 534.113 362.425 533.993 363.575C533.903 364.495 534.383 365.395 535.113 365.655C535.583 365.825 536.363 365.785 536.743 365.575ZM534.863 367.205C533.533 366.835 532.643 365.855 532.313 364.415C532.163 363.755 532.343 362.645 532.703 362.045C533.473 360.755 534.753 360.095 536.213 360.235C538.993 360.515 540.363 363.505 538.813 365.895C538.373 366.575 537.223 367.245 536.373 367.315C535.593 367.385 535.493 367.385 534.863 367.205Z" fill="#22206B"/>
<path d="M559.363 365.755C559.693 365.645 559.573 365.675 559.623 365.675C559.683 365.675 560.053 365.565 560.363 365.445C560.683 365.335 561.003 365.245 561.073 365.255C561.143 365.265 560.693 365.405 560.693 365.375C560.693 365.345 561.443 365.085 561.703 365.025C562.173 364.915 562.183 364.905 562.053 364.735C561.673 364.215 560.813 364.035 560.193 364.345C559.693 364.595 559.273 365.065 559.153 365.485C559.073 365.865 559.043 365.855 559.363 365.755ZM559.883 369.655C558.563 369.205 557.763 368.265 557.453 366.805C557.373 366.405 557.483 365.295 557.643 364.925C558.323 363.365 559.603 362.525 561.103 362.675C561.963 362.755 562.633 363.115 563.193 363.785C563.593 364.255 564.063 365.255 564.033 365.565C564.013 365.765 563.903 365.815 562.813 366.115C561.933 366.365 561.513 366.495 560.813 366.715C560.693 366.755 560.513 366.815 560.413 366.835C560.313 366.865 560.053 366.945 559.833 367.015C559.613 367.085 559.373 367.155 559.313 367.165C559.103 367.205 559.743 367.935 560.123 368.085C560.863 368.365 561.543 368.295 562.123 367.855C562.343 367.695 562.563 367.555 562.603 367.565C562.743 367.575 563.743 368.405 563.733 368.505C563.723 368.685 562.903 369.295 562.383 369.515C561.903 369.715 560.833 369.905 560.503 369.845C560.443 369.835 560.163 369.745 559.883 369.655Z" fill="#22206B"/>
<path d="M525.413 366.245C524.383 365.975 523.433 365.325 522.643 364.355C522.083 363.675 521.743 362.975 521.493 362.015C521.333 361.405 521.533 359.455 521.813 358.875C522.693 357.055 524.143 355.915 526.073 355.535C526.683 355.415 528.583 355.625 529.103 355.875C529.883 356.255 530.823 356.925 531.073 357.285C531.163 357.415 531.103 357.495 530.573 357.935C530.243 358.205 529.953 358.425 529.933 358.425C529.913 358.425 529.783 358.315 529.663 358.185C529.013 357.505 527.683 357.055 526.643 357.145C525.453 357.255 524.403 357.905 523.753 358.935C523.423 359.455 523.243 359.465 523.133 360.595C523.023 361.665 523.203 361.795 523.373 362.275C523.473 362.555 523.753 363.045 523.993 363.345C524.873 364.465 526.253 365.005 527.653 364.775C528.443 364.645 528.783 364.505 529.303 364.085C529.763 363.725 530.083 363.255 530.233 362.725L530.323 362.415L528.593 362.225L526.863 362.035L526.943 361.235L527.023 360.435L529.493 360.685C530.853 360.825 531.993 360.935 532.023 360.935C532.053 360.935 532.093 361.155 532.123 361.405C532.223 362.375 531.733 363.765 530.963 364.725C530.333 365.515 529.693 365.915 528.383 366.335C527.833 366.535 526.303 366.475 525.413 366.245Z" fill="#22206B"/>
<path d="M543.893 366.495C544.303 366.435 544.883 365.985 545.123 365.545C545.223 365.365 545.383 365.025 545.393 364.675C545.413 364.165 545.343 363.805 545.253 363.665C544.863 363.085 544.643 362.865 544.333 362.715C543.623 362.385 542.933 362.465 542.333 362.925C541.163 363.845 541.383 365.785 542.733 366.395C543.133 366.575 543.263 366.585 543.893 366.495ZM542.273 367.895C541.383 367.615 540.513 366.805 540.163 365.935C539.583 364.485 539.923 362.915 541.023 361.905C542.603 360.465 545.113 360.715 546.403 362.435C547.513 363.915 547.143 366.365 545.653 367.415C544.943 367.915 544.273 368.105 543.403 368.055C542.993 368.025 542.473 367.955 542.273 367.895Z" fill="#22206B"/>
<path d="M555.413 363.845L555.923 358.635L556.753 358.745L557.583 358.855L557.073 364.015L556.563 369.175L555.743 369.115L554.913 369.055L555.413 363.845Z" fill="#22206B"/>
<path d="M573.473 366.495C573.453 366.415 573.193 365.405 572.903 364.265C572.613 363.125 572.343 362.145 572.313 362.105C572.263 362.035 571.403 363.745 571.313 364.095C571.293 364.165 571.253 364.265 571.213 364.315C571.123 364.435 570.273 366.165 570.263 366.255C570.263 366.295 570.993 366.405 571.883 366.485C573.383 366.635 573.513 366.635 573.473 366.495ZM566.873 370.005C566.873 369.955 567.323 369.035 567.863 367.945C568.403 366.865 569.043 365.545 569.303 365.025C569.993 363.615 571.063 361.435 571.353 360.865C571.493 360.585 571.613 360.315 571.623 360.265C571.633 360.205 571.913 360.205 572.433 360.255C573.113 360.325 573.243 360.355 573.273 360.485C573.443 361.085 575.573 369.005 575.713 369.535C575.803 369.895 575.933 370.355 575.993 370.545C576.053 370.735 576.093 370.905 576.093 370.925C576.093 370.945 575.743 370.925 575.323 370.885L574.563 370.815L574.423 370.305C574.353 370.025 574.193 369.385 574.073 368.895L573.853 367.995L571.733 367.785L569.613 367.575L569.443 367.925C569.353 368.115 569.063 368.715 568.813 369.245L568.353 370.215L567.603 370.155C567.163 370.115 566.873 370.055 566.873 370.005ZM585.273 372.015C584.463 371.835 583.833 371.295 583.513 370.505C583.393 370.205 583.423 370.155 583.823 370.035C584.033 369.975 584.233 369.885 584.263 369.845C584.303 369.795 584.383 369.845 584.463 369.975C585.103 370.935 585.253 371.035 586.043 371.055C586.523 371.065 586.603 371.045 586.843 370.805C587.363 370.285 587.063 369.895 585.783 369.425C584.343 368.895 583.793 368.335 583.883 367.485C583.953 366.785 584.253 366.405 584.953 366.135C585.493 365.925 585.603 365.915 586.353 365.985C587.073 366.055 587.213 366.095 587.593 366.345C588.033 366.635 588.563 367.385 588.463 367.585C588.433 367.645 588.383 367.665 588.343 367.645C588.303 367.615 588.083 367.655 587.853 367.735C587.563 367.825 587.413 367.835 587.403 367.775C587.373 367.625 587.073 367.315 586.813 367.135C586.493 366.925 585.733 366.915 585.403 367.115C585.243 367.205 585.133 367.355 585.103 367.525C585.023 367.895 585.293 368.105 586.333 368.475C587.623 368.935 587.913 369.155 588.173 369.815C588.353 370.285 588.203 371.095 587.843 371.465C587.273 372.075 586.403 372.265 585.273 372.015ZM580.523 370.225C580.743 370.105 581.003 369.865 581.173 369.615C581.403 369.265 581.463 369.095 581.513 368.595C581.583 367.835 581.453 367.395 581.023 366.925C580.363 366.215 579.503 366.125 578.743 366.705C578.273 367.065 578.043 367.485 577.983 368.105C577.873 369.065 578.183 369.795 578.873 370.205C579.333 370.475 580.043 370.485 580.523 370.225ZM578.803 371.375C577.963 371.165 577.273 370.465 576.923 369.495C576.773 369.065 576.753 368.885 576.823 368.185C576.923 367.115 577.233 366.465 577.873 365.945C578.563 365.395 579.033 365.255 579.903 365.335C580.703 365.415 581.163 365.645 581.543 366.135L581.733 366.385L581.853 364.695L581.993 363.015L582.583 363.045C582.923 363.065 583.183 363.115 583.193 363.165C583.203 363.215 583.023 365.125 582.783 367.425L582.353 371.595L581.803 371.545L581.253 371.485L581.323 371.125L581.393 370.765L581.043 371.015C580.373 371.475 579.663 371.595 578.803 371.375Z" fill="#22206B"/>
</g>
<g clip-path="url(#clip2)">
<path d="M230.873 145.205C233.353 136.665 230.873 142.465 210.243 133.755C201.623 130.115 191.413 133.455 182.173 135.095C176.013 136.185 170.113 138.175 164.163 140.055C158.053 141.985 150.133 142.345 145.483 147.315C141.783 151.275 142.403 157.425 142.513 162.415C142.693 170.825 143.973 179.175 145.443 187.445C147.023 196.325 150.273 205.845 158.543 210.595C168.453 216.295 190.333 204.795 191.993 200.255C193.653 195.715 230.873 145.205 230.873 145.205Z" fill="#16285F"/>
<path d="M97.2428 311.505L63.8428 294.595L52.3428 338.045L81.0528 353.975L97.2428 311.505Z" fill="#FEB7B6"/>
<path d="M81.3228 396.475L78.5128 401.115C74.1028 408.395 71.7628 416.745 71.7628 425.265V463.395L151.063 472.955L218.503 467.215L201.773 410.815L81.3228 396.475Z" fill="#2B3990"/>
<path d="M96.4528 426.955L120.473 431.475C138.523 434.865 157.073 434.455 174.953 430.275L191.063 426.505C196.393 425.255 200.923 421.905 203.683 417.295L201.763 410.825L81.3228 396.475L78.5128 401.115C76.9928 403.615 75.7328 406.245 74.7228 408.955L75.0728 409.765C78.8728 418.705 86.9028 425.155 96.4528 426.955Z" fill="#161223"/>
<path d="M155.653 229.495L198.043 235.705L252.283 255.715L248.703 302.955L226.393 297.535L207.183 354.405C203.753 364.565 204.383 414.275 204.383 414.275C202.533 417.305 199.493 419.405 195.993 420.035C175.253 423.805 135.423 427.695 97.3729 417.955C87.9629 415.545 79.9429 409.405 75.2429 400.905C70.9529 393.135 69.7729 384.035 71.9229 375.435C76.2029 358.305 88.6529 331.065 96.2129 314.225L59.1729 294.905L82.1629 258.925C89.7929 246.985 102.093 238.805 116.053 236.375L155.653 229.495Z" fill="#5600E3"/>
<path d="M184.433 264.865C180.623 265.515 176.253 265.635 171.823 264.815C167.403 264.005 162.963 262.245 159.243 259.575C155.543 256.885 152.583 253.285 150.593 249.455C148.583 245.625 147.563 241.605 147.223 237.945C146.333 241.505 146.423 246.005 148.043 250.455C149.623 254.895 152.733 259.255 157.013 262.345C161.293 265.445 166.553 267.135 171.483 267.415C176.433 267.715 181.043 266.615 184.433 264.865Z" fill="#4508BC"/>
<path d="M142.963 351.615L78.8028 329.115C66.3728 325.625 55.8828 325.625 52.3428 337.355C52.3428 337.355 47.9828 360.555 70.0928 363.075L121.073 370.875L121.523 370.075C124.913 364.025 142.963 351.615 142.963 351.615Z" fill="#F7B2B2"/>
<path d="M173.413 235.355C177.863 238.855 183.533 240.765 189.193 240.685C191.863 240.645 194.523 240.155 197.053 239.265L200.743 225.985L162.983 217.715L162.293 218.825C164.793 225.165 168.113 231.195 173.413 235.355Z" fill="#D88F8F"/>
<path d="M189.193 240.685C183.533 240.765 177.863 238.845 173.413 235.355C168.123 231.195 164.793 225.165 162.293 218.835L155.653 229.495C152.373 234.765 151.973 241.345 154.583 246.975C158.623 255.675 167.753 261.075 177.263 259.895C186.213 258.785 193.383 252.425 195.723 244.015L197.043 239.265C194.523 240.155 191.863 240.655 189.193 240.685Z" fill="#FEB7B6"/>
<path d="M226.163 203.455L225.073 178.755C224.813 169.365 220.793 160.975 214.483 154.975C200.553 152.845 186.153 153.805 172.643 157.835C173.223 162.985 166.463 181.725 161.953 183.435L157.823 201.185L158.003 205.325C158.513 224.145 174.193 238.995 193.013 238.475C211.843 237.955 226.683 222.285 226.163 203.455Z" fill="#FEB7B6"/>
<path d="M155.833 217.725C162.168 217.725 167.303 212.589 167.303 206.255C167.303 199.92 162.168 194.785 155.833 194.785C149.498 194.785 144.363 199.92 144.363 206.255C144.363 212.589 149.498 217.725 155.833 217.725Z" fill="#FEB7B6"/>
<path d="M214.283 288.655L205.933 287.975C202.653 287.705 199.683 289.885 198.943 293.085L194.773 311.175L197.273 311.455C202.623 312.045 207.533 308.405 208.503 303.105L209.383 298.325L214.283 288.655Z" fill="#FF8882"/>
<path d="M207.693 304.945L204.783 299.095C203.693 296.895 204.253 294.245 206.143 292.675L214.343 285.875C217.463 283.295 221.593 282.285 225.553 283.145L243.193 286.985L253.823 320.325L236.653 335.835C235.023 337.315 232.883 338.105 230.683 338.045L224.723 337.905C222.073 337.845 219.713 336.225 218.693 333.785L217.143 330.085L215.923 329.835C213.443 329.315 211.573 327.285 211.253 324.775L210.493 318.665C208.303 318.515 206.403 317.125 205.603 315.075L204.563 312.415C203.603 309.965 204.463 307.185 206.633 305.695L207.693 304.945Z" fill="#FFA687"/>
<path d="M207.693 304.945L223.843 292.175L218.593 294.615C214.453 296.535 210.973 299.625 208.583 303.505L207.693 304.945Z" fill="#FF8882"/>
<path d="M210.493 318.645L233.113 313.465L227.993 316.045C223.493 318.315 218.453 319.295 213.423 318.885L210.493 318.645Z" fill="#FF8882"/>
<path d="M217.143 330.075H233.113L230.453 330.815C226.153 332.015 221.583 331.795 217.423 330.185L217.143 330.075Z" fill="#FF8882"/>
<path d="M205.873 346.485C203.463 381.695 215.183 414.905 236.233 432.525L252.243 445.935L266.193 446.885L266.883 436.735L269.923 434.825C293.173 420.235 309.303 388.925 311.713 353.715L317.433 270.005L211.583 262.775L205.873 346.485Z" fill="#431AA8"/>
<path d="M297.163 239.625L279.013 238.385L265.363 237.455L233.563 235.285C232.493 250.885 222.683 262.915 211.653 262.165L315.223 269.245C304.173 268.475 296.093 255.225 297.163 239.625Z" fill="#4208B2"/>
<path d="M312.953 240.705L247.943 236.265C246.853 252.205 236.823 264.505 225.553 263.735L219.833 347.445C217.423 382.655 229.143 415.865 250.193 433.485L266.203 446.895L283.893 435.795C307.143 421.205 323.273 389.895 325.683 354.685L331.403 270.975C320.123 270.195 311.863 256.645 312.953 240.705Z" fill="#5600E3"/>
<path d="M310.283 353.615L315.483 277.585C306.093 272.865 299.423 262.295 297.813 249.325L256.003 246.465C252.643 259.095 244.603 268.655 234.653 272.055L229.453 348.085C227.273 379.945 237.843 410.555 256.383 426.075L264.273 432.685L272.993 427.215C293.463 414.365 308.103 385.475 310.283 353.615Z" fill="#5C0FEF"/>
<path d="M301.643 249.385L295.993 248.995C297.563 261.685 304.093 272.025 313.283 276.645L318.933 277.035C309.743 272.425 303.223 262.075 301.643 249.385Z" fill="#4208B2"/>
<path d="M310.283 353.615C308.103 385.475 293.473 414.365 272.993 427.215L264.273 432.685L267.013 434.985L278.763 427.615C299.243 414.765 313.873 385.875 316.053 354.015L321.253 277.985L315.483 277.595L310.283 353.615Z" fill="#4208B2"/>
<path d="M127.553 377.715C128.773 377.975 133.593 379.285 137.923 385.135C136.013 380.215 132.033 376.375 127.053 374.635L126.543 374.455L122.153 379.835C123.183 379.875 124.193 380.135 125.143 380.535L127.553 377.715Z" fill="#A99B95"/>
<path d="M125.153 380.515C124.193 380.115 123.183 379.855 122.163 379.815L120.263 382.135C121.293 381.935 122.413 382.055 123.543 382.385L125.153 380.515Z" fill="#A99B95"/>
<path d="M125.153 380.515L123.543 382.395C127.463 383.555 131.563 387.295 132.963 389.375C131.723 386.715 130.963 385.215 128.913 383.115C127.853 382.025 126.563 381.105 125.153 380.515Z" fill="#A99B95"/>
<path d="M127.553 377.715L125.153 380.525C126.563 381.115 127.853 382.035 128.923 383.125C130.973 385.225 131.733 386.725 132.973 389.385L137.933 385.135C133.593 379.285 128.773 377.975 127.553 377.715Z" fill="#D6CFBE"/>
<path d="M123.543 382.395L118.743 388.005C120.133 388.585 121.403 389.495 122.413 390.605C123.563 391.865 125.083 393.995 125.813 395.515L132.973 389.385C131.563 387.295 127.463 383.555 123.543 382.395Z" fill="#D6CFBE"/>
<path d="M118.753 388.005L117.183 389.835C120.373 390.685 123.773 393.045 125.813 395.505C125.083 393.985 123.563 391.855 122.413 390.595C121.413 389.485 120.143 388.585 118.753 388.005Z" fill="#A99B95"/>
<path d="M114.223 389.545L108.603 396.435L110.503 397.645L117.183 389.835C116.153 389.565 115.153 389.455 114.223 389.545Z" fill="#A99B95"/>
<path d="M125.813 395.515C123.763 393.045 120.363 390.685 117.183 389.845L110.503 397.655L117.853 402.345L125.813 395.515Z" fill="#D6CFBE"/>
<path d="M118.753 388.005C117.883 387.635 116.963 387.415 116.033 387.335L114.233 389.545C115.163 389.455 116.163 389.565 117.193 389.835L118.753 388.005Z" fill="#A99B95"/>
<path d="M123.543 382.395C122.413 382.065 121.293 381.945 120.263 382.145L116.023 387.335C116.953 387.415 117.873 387.635 118.743 388.005L123.543 382.395Z" fill="#A99B95"/>
<path d="M103.773 408.905C101.623 403.065 104.613 396.585 110.443 394.435C110.493 394.415 110.543 394.405 110.583 394.385C108.643 394.015 106.583 394.145 104.593 394.875C98.7528 397.025 95.7628 403.505 97.9228 409.345C100.063 415.135 106.453 418.115 112.253 416.065C108.503 415.355 105.193 412.755 103.773 408.905Z" fill="#D6CFBE"/>
<path d="M103.773 408.905C105.193 412.755 108.503 415.355 112.263 416.065C112.313 416.045 112.363 416.035 112.403 416.015C118.243 413.865 121.233 407.385 119.073 401.545C117.653 397.695 114.343 395.095 110.583 394.385C110.533 394.405 110.483 394.415 110.443 394.435C104.613 396.585 101.623 403.065 103.773 408.905Z" fill="#E4E4E0"/>
<path d="M302.493 220.375L165.813 350.595L172.223 358.005L285.613 254.995L302.493 220.375Z" fill="#CECECE"/>
<path d="M302.493 220.375L302.633 220.085L267.183 229.935L159.123 342.865L165.813 350.595L302.493 220.375Z" fill="#D7D7D7"/>
<path d="M302.633 220.085L265.183 226.355L159.123 342.865L267.183 229.935L302.633 220.085Z" fill="white"/>
<path d="M285.613 254.995L172.223 358.005L287.523 256.725L302.523 220.335L302.493 220.375L285.613 254.995Z" fill="#D6CFBE"/>
<path d="M196.123 355.145L189.133 353.585C182.473 356.115 174.363 355.275 167.963 351.385C161.743 347.595 156.983 340.865 155.243 333.365C154.663 330.875 154.403 328.315 154.433 325.725L157.823 326.525L162.523 313.515L155.403 307.615L148.413 306.055C143.833 315.495 142.553 326.055 144.823 335.785C145.213 337.445 145.693 339.065 146.273 340.635C149.343 348.945 155.033 356.035 162.393 360.505C171.683 366.155 190.083 368.865 199.903 365.135L196.123 355.145Z" fill="#A99B95"/>
<path d="M153.273 342.205C152.693 340.625 152.203 339.005 151.823 337.355C149.553 327.615 150.833 317.055 155.413 307.625L165.033 312.295C161.513 319.535 160.523 327.575 162.233 334.935C163.983 342.425 168.733 349.165 174.953 352.955C181.343 356.845 189.453 357.695 196.113 355.155L199.913 365.155C190.083 368.895 178.673 367.745 169.383 362.095C162.043 357.605 156.343 350.515 153.273 342.205Z" fill="#D6CFBE"/>
<path d="M168.423 370.015C170.753 371.965 170.843 375.515 168.613 377.575L161.633 384.035C159.773 385.755 156.883 385.705 155.083 383.915C153.263 382.095 153.223 379.155 154.993 377.295L161.553 370.405C163.373 368.485 166.383 368.315 168.423 370.015Z" fill="#FEB7B6"/>
<path d="M153.323 344.955L163.603 351.115C166.843 353.055 168.523 356.825 167.813 360.535L166.593 366.845C166.213 368.795 165.203 370.565 163.703 371.875L143.133 389.815C141.723 391.045 139.773 391.445 137.993 390.875L132.973 389.365L137.933 385.115C136.023 380.195 132.053 376.355 127.063 374.615L126.553 374.435L122.163 379.815L121.293 373.355C120.713 369.435 122.163 365.495 125.163 362.895L145.003 345.675C147.313 343.665 150.673 343.375 153.323 344.955Z" fill="#FEB7B6"/>
<path d="M145.543 387.725L144.603 376.175C144.463 374.475 143.423 372.995 141.883 372.275L134.173 368.705L142.063 370.515C145.373 371.275 147.533 374.455 147.033 377.805L145.543 387.725Z" fill="#F4B0B0"/>
<path d="M150.043 384.025L151.413 371.035C151.703 368.315 149.953 365.795 147.303 365.105L140.013 363.215L147.443 363.655C151.613 363.905 154.503 367.935 153.383 371.965L150.043 384.025Z" fill="#F4B0B0"/>
<path d="M158.583 376.585L160.803 366.215C161.413 363.365 159.813 360.515 157.073 359.535L150.623 357.245L158.203 358.325C161.513 358.795 163.573 362.175 162.473 365.335L158.583 376.585Z" fill="#F4B0B0"/>
<path d="M170.223 160.475C170.223 160.475 224.263 187.575 232.403 141.975C232.403 141.975 235.603 134.365 222.883 141.275C210.163 148.185 173.013 152.775 173.013 152.775" fill="#16285F"/>
<path d="M187.503 140.595C187.503 140.595 168.733 130.655 148.933 138.395C133.353 144.485 150.583 158.545 150.583 158.545L156.433 148.905L175.593 145.745L187.503 140.595Z" fill="#16285F"/>
<path d="M276.243 288.135C265.203 288.425 255.563 298.775 254.343 312.025C253.193 324.455 259.853 335.175 269.653 337.735L271.443 318.265L266.343 317.965L266.993 310.955L272.093 311.255L272.563 306.085C273.093 300.425 276.133 297.355 280.263 297.245C280.503 297.235 280.753 297.245 281.003 297.255C283.153 297.385 284.993 297.675 285.513 297.785L284.933 304.055L281.813 303.875C281.643 303.865 281.493 303.865 281.343 303.865C279.293 303.915 278.753 305.225 278.573 307.115L278.163 311.585L284.003 311.925L282.593 318.885L277.523 318.585L275.713 338.225C286.293 337.325 295.363 327.225 296.543 314.415C297.823 300.575 289.413 288.805 277.753 288.135C277.253 288.125 276.743 288.115 276.243 288.135Z" fill="white"/>
<path d="M240.273 346.715L239.813 356.815L241.833 356.955L242.023 352.895L245.233 353.135L245.323 351.275L242.103 351.045L242.203 348.735L245.643 348.985L245.733 347.115L240.273 346.715Z" fill="white"/>
<path d="M250.443 353.265L248.473 353.125L249.093 351.025C249.263 350.445 249.433 349.695 249.593 349.105L249.613 349.115C249.723 349.715 249.853 350.475 249.983 351.095L250.443 353.265ZM248.453 347.315L245.263 357.205L247.363 357.355L248.123 354.815L250.683 354.995L251.253 357.635L253.433 357.795L251.113 347.495L248.453 347.315Z" fill="white"/>
<path d="M258.723 347.915C256.233 347.945 254.223 349.695 254.073 352.935C253.943 355.805 255.443 358.105 258.523 358.325C258.743 358.345 258.953 358.345 259.153 358.345C259.933 358.335 260.533 358.205 260.833 358.055L260.613 356.255C260.283 356.375 259.783 356.465 259.283 356.465C259.153 356.465 259.033 356.465 258.913 356.455C257.113 356.325 256.113 354.975 256.203 352.955C256.303 350.845 257.443 349.835 258.913 349.815C259.003 349.815 259.103 349.815 259.193 349.825C259.913 349.875 260.473 350.095 260.873 350.325L261.363 348.535C261.013 348.305 260.233 348.005 259.183 347.935C259.043 347.915 258.883 347.915 258.723 347.915Z" fill="white"/>
<path d="M262.613 348.335L262.153 358.435L267.863 358.845L267.943 356.975L264.263 356.715L264.383 354.315L267.663 354.555L267.753 352.695L264.463 352.455L264.563 350.355L268.043 350.615L268.133 348.735L262.613 348.335Z" fill="white"/>
<path d="M272.333 357.575C272.253 357.575 272.173 357.575 272.093 357.565C271.753 357.535 271.513 357.515 271.313 357.475L271.443 354.625L272.133 354.675C273.143 354.755 273.933 355.215 273.883 356.225C273.833 357.215 273.153 357.565 272.333 357.575ZM272.443 353.065C272.363 353.065 272.273 353.065 272.183 353.055L271.513 353.005L271.623 350.655C271.703 350.645 271.793 350.645 271.913 350.645C272.063 350.645 272.243 350.645 272.493 350.665C273.413 350.725 273.903 351.165 273.873 351.935C273.833 352.605 273.333 353.045 272.443 353.065ZM270.743 348.925C270.313 348.935 269.943 348.955 269.683 348.995L269.233 358.915C269.673 359.015 270.413 359.145 271.413 359.225C271.763 359.255 272.093 359.265 272.393 359.255C273.613 359.235 274.423 358.995 274.963 358.565C275.543 358.085 275.953 357.405 275.993 356.495C276.053 355.185 275.333 354.265 274.323 353.875L274.333 353.835C275.363 353.485 275.863 352.685 275.903 351.795C275.943 350.875 275.513 350.155 274.913 349.735C274.283 349.255 273.533 349.055 272.303 348.975C271.773 348.935 271.223 348.915 270.743 348.925Z" fill="white"/>
<path d="M281.373 358.175C281.323 358.175 281.263 358.175 281.213 358.175C279.863 358.075 279.103 356.625 279.193 354.645C279.273 352.755 280.073 351.385 281.353 351.375C281.403 351.375 281.463 351.375 281.513 351.375C282.903 351.475 283.603 353.085 283.523 354.905C283.433 356.785 282.653 358.155 281.373 358.175ZM281.263 349.545C278.833 349.575 277.193 351.645 277.053 354.525C276.923 357.405 278.373 359.775 281.033 359.965C281.173 359.975 281.313 359.975 281.453 359.975C283.843 359.945 285.513 358.095 285.663 354.965C285.783 352.185 284.393 349.755 281.643 349.555C281.513 349.555 281.383 349.545 281.263 349.545Z" fill="white"/>
<path d="M290.873 358.865C290.823 358.865 290.763 358.865 290.713 358.865C289.363 358.765 288.603 357.315 288.693 355.335C288.773 353.445 289.573 352.075 290.853 352.065C290.903 352.065 290.963 352.065 291.013 352.065C292.403 352.165 293.103 353.775 293.023 355.595C292.933 357.475 292.153 358.845 290.873 358.865ZM290.773 350.235C288.343 350.265 286.693 352.335 286.563 355.215C286.433 358.095 287.883 360.465 290.533 360.665C290.673 360.675 290.803 360.675 290.943 360.675C293.343 360.645 295.023 358.795 295.163 355.665C295.293 352.875 293.893 350.445 291.153 350.245C291.023 350.245 290.893 350.235 290.773 350.235Z" fill="white"/>
<path d="M296.703 350.825L296.253 360.915L298.253 361.065L298.403 357.765L299.213 356.755L301.203 361.275L303.563 361.455L300.713 355.425L303.863 351.345L301.383 351.155L299.203 354.365C298.983 354.705 298.753 355.055 298.543 355.425H298.503L298.713 350.955L296.703 350.825Z" fill="white"/>
<path d="M263.303 372.235L261.323 372.085L261.943 369.985C262.113 369.415 262.283 368.655 262.443 368.075H262.463C262.573 368.685 262.703 369.445 262.833 370.055L263.303 372.235ZM261.293 366.275L258.103 376.165L260.203 376.315L260.963 373.765L263.523 373.945L264.093 376.595L266.263 376.745L263.943 366.455L261.293 366.275Z" fill="white"/>
<path d="M270.633 375.385C270.513 375.385 270.383 375.385 270.253 375.375C270.003 375.365 269.723 375.335 269.563 375.275L269.853 368.675C269.953 368.655 270.093 368.635 270.283 368.635C270.423 368.635 270.583 368.635 270.773 368.655C272.503 368.775 273.543 369.965 273.433 372.055C273.333 374.295 272.253 375.365 270.633 375.385ZM269.003 366.825C268.593 366.835 268.223 366.855 267.893 366.885L267.443 376.805C267.943 376.915 268.683 377.045 269.733 377.115C270.023 377.135 270.303 377.145 270.573 377.145C271.943 377.125 273.093 376.785 273.913 376.115C274.813 375.355 275.493 374.075 275.573 372.135C275.653 370.355 275.123 369.075 274.243 368.215C273.413 367.425 272.323 366.995 270.633 366.875C270.073 366.835 269.513 366.815 269.003 366.825Z" fill="white"/>
<path d="M279.883 367.475C278.013 367.495 276.843 368.675 276.773 370.285C276.713 371.755 277.643 372.745 279.093 373.445C280.143 373.965 280.553 374.355 280.523 374.975C280.493 375.585 280.063 375.965 279.293 375.975C279.223 375.975 279.143 375.975 279.063 375.965C278.203 375.905 277.383 375.525 276.853 375.175L276.353 377.035C276.843 377.385 277.843 377.765 278.863 377.835C279.043 377.845 279.203 377.855 279.373 377.855C281.493 377.825 282.543 376.545 282.613 374.975C282.673 373.555 281.973 372.565 280.423 371.785C279.293 371.215 278.793 370.885 278.833 370.245C278.853 369.755 279.223 369.365 279.963 369.355C280.033 369.355 280.103 369.355 280.173 369.365C281.053 369.425 281.673 369.765 282.023 369.985L282.553 368.165C282.033 367.855 281.303 367.565 280.293 367.495C280.153 367.475 280.013 367.475 279.883 367.475Z" fill="white"/>
</g>
</g>
<defs>
<linearGradient id="paint0_linear" x1="443.09" y1="-1.23584" x2="397.34" y2="543.69" gradientUnits="userSpaceOnUse">
<stop stop-color="#DFE0E0"/>
<stop offset="1" stop-color="#2680C1" stop-opacity="0"/>
</linearGradient>
<clipPath id="clip0">
<rect width="154.77" height="256.31" fill="white" transform="translate(334.993 155.115)"/>
</clipPath>
<clipPath id="clip1">
<rect width="289.92" height="342.12" fill="white" transform="translate(492.993 128.115)"/>
</clipPath>
<clipPath id="clip2">
<rect width="279.4" height="340.83" fill="white" transform="translate(51.9929 132.115)"/>
</clipPath>
</defs>
</svg>
