<svg width="63" height="74" viewBox="0 0 63 74" fill="none" xmlns="http://www.w3.org/2000/svg">
<path d="M55.9217 17.0112C55.4748 16.751 54.9126 16.7221 54.4513 16.9678C53.9899 17.1991 53.6728 17.6616 53.6151 18.1819C53.5574 18.6877 53.4709 19.1936 53.37 19.7284C50.357 33.4299 44.3165 40.0928 34.8737 40.0928H21.0339C20.2986 40.0928 19.6787 40.6131 19.5346 41.3213L14.9213 63.001L14.0995 68.5077C13.6238 71.0225 15.2673 73.4362 17.7757 73.9131C18.0497 73.9709 18.338 73.9854 18.6119 73.9998H27.8673C29.9865 73.9998 31.8462 72.5545 32.3364 70.4877L36.0847 55.4998H44.1147C53.5863 55.4998 60.1314 47.9264 62.5389 34.1815C64.1247 27.6342 61.5009 20.7979 55.9217 17.0112Z" fill="#2DFFB3"/>
<path d="M53.025 5.49224C49.9831 2.03795 45.6293 0.0434153 41.0305 5.59065e-05H15.571C11.765 -0.0143972 8.5069 2.77506 7.95907 6.56178L0.0588422 59.4313C-0.315986 61.9606 1.41399 64.3165 3.93687 64.6923C4.16754 64.7212 4.3982 64.7501 4.62886 64.7501H16.436C17.1712 64.7501 17.7911 64.2298 17.9353 63.5215L22.289 43.1715H34.889C45.8312 43.1715 53.0682 35.4969 56.384 20.3501C56.5138 19.743 56.6147 19.136 56.6868 18.5145C57.4653 13.8462 56.1245 9.07662 53.025 5.49224Z" fill="#5600E3"/>
</svg>
