<svg width="75" height="75" viewBox="0 0 75 75" fill="none" xmlns="http://www.w3.org/2000/svg">
<path d="M57.833 33.5449H73.2521C74.1055 33.5449 74.7998 34.2387 74.7998 35.0914V72.0914C74.7998 72.9441 74.1055 73.6379 73.2521 73.6379H57.8186C56.9652 73.6379 56.2709 72.9441 56.2709 72.0914V35.0914C56.2853 34.2387 56.9796 33.5449 57.833 33.5449Z" fill="#5600E3"/>
<path d="M30.1194 0H45.5529C46.4063 0 47.1006 0.69375 47.1006 1.54648V72.468C47.1006 73.3207 46.4063 74.0145 45.5529 74.0145H30.1194C29.266 74.0145 28.5717 73.3207 28.5717 72.468V1.54648C28.5717 0.69375 29.266 0 30.1194 0Z" fill="#2DFFB3"/>
<path d="M2.34787 15.0449H17.7814C18.6348 15.0449 19.3291 15.7387 19.3291 16.5914V72.0914C19.3291 72.9441 18.6348 73.6379 17.7814 73.6379H2.34787C1.49446 73.6379 0.800171 72.9441 0.800171 72.0914V16.5914C0.800171 15.7387 1.49446 15.0449 2.34787 15.0449Z" fill="#2DFFB3"/>
</svg>
