<svg width="81" height="81" viewBox="0 0 81 81" fill="none" xmlns="http://www.w3.org/2000/svg">
<path d="M76.3736 40.4996L79.8453 31.4578C80.231 30.4549 79.9225 29.3285 79.0892 28.6496L71.575 22.5549L70.0475 12.9885C69.8777 11.9393 69.0445 11.1061 67.9953 10.9363L58.4289 9.40878L52.3496 1.90996C51.6707 1.07675 50.5289 0.783589 49.5568 1.1539L40.4996 4.64101L31.4578 1.16933C30.4549 0.783589 29.3285 1.09218 28.665 1.92539L22.5703 9.43964L13.0039 10.9672C11.9547 11.1215 11.1215 11.9547 10.9518 13.0039L9.42421 22.5703L1.90996 28.665C1.07675 29.3439 0.783589 30.4703 1.1539 31.4578L4.62558 40.4996L1.16933 49.5414C0.783589 50.5443 1.09218 51.6707 1.92539 52.3342L9.43964 58.4289L10.9672 67.9953C11.1369 69.0445 11.9547 69.8777 13.0193 70.0475L22.5857 71.575L28.6805 79.0893C29.3594 79.9225 30.4857 80.2311 31.4887 79.8453L40.5305 76.3891L49.5723 79.8607C49.8654 79.9688 50.1586 80.0305 50.4518 80.0305C51.1769 80.0305 51.8867 79.7065 52.365 79.1047L58.4598 71.5904L68.0262 70.0629C69.0754 69.8932 69.9086 69.06 70.0783 68.0107L71.6059 58.4443L79.1201 52.3496C79.9533 51.6707 80.2465 50.5443 79.8762 49.5568L76.3736 40.4996Z" fill="#5600E3"/>
<path d="M33.0957 34.9473C29.0068 34.9473 25.6895 31.6299 25.6895 27.541C25.6895 23.4521 29.0068 20.1348 33.0957 20.1348C37.1846 20.1348 40.502 23.4521 40.502 27.541C40.502 31.6299 37.1846 34.9473 33.0957 34.9473ZM33.0957 25.0723C31.7379 25.0723 30.627 26.1832 30.627 27.541C30.627 28.8988 31.7379 30.0098 33.0957 30.0098C34.4535 30.0098 35.5645 28.8988 35.5645 27.541C35.5645 26.1832 34.4535 25.0723 33.0957 25.0723Z" fill="#2DFFB3"/>
<path d="M47.9082 59.6328C43.8193 59.6328 40.502 56.3154 40.502 52.2266C40.502 48.1377 43.8193 44.8203 47.9082 44.8203C51.9971 44.8203 55.3145 48.1377 55.3145 52.2266C55.3145 56.3154 51.9971 59.6328 47.9082 59.6328ZM47.9082 49.7578C46.5504 49.7578 45.4395 50.8688 45.4395 52.2266C45.4395 53.5844 46.5504 54.6953 47.9082 54.6953C49.266 54.6953 50.377 53.5844 50.377 52.2266C50.377 50.8688 49.266 49.7578 47.9082 49.7578Z" fill="#2DFFB3"/>
<path d="M28.1572 59.6337C27.6634 59.6337 27.1543 59.4795 26.7222 59.1709C25.6113 58.3685 25.349 56.841 26.1513 55.73L50.8388 21.1675C51.6412 20.0566 53.1687 19.7943 54.2796 20.5966C55.3906 21.3835 55.6375 22.9265 54.8505 24.0375L30.163 58.6C29.6847 59.2789 28.9287 59.6337 28.1572 59.6337Z" fill="#2DFFB3"/>
</svg>
