<svg xmlns="http://www.w3.org/2000/svg" width="128" height="128" viewBox="0 0 128 128"><defs><style>.a{fill:#63ded8;}.b,.c{fill:#fff;}.b{opacity:0.5;}</style></defs><path class="a" d="M128,64A64,64,0,1,1,64,0,64,64,0,0,1,128,64Zm0,0"/><path class="b" d="M185.722,156.108a3.476,3.476,0,0,1,3.385-2.683h26.146a17.27,17.27,0,0,1,7.4,1.543,16.838,16.838,0,0,1,5.551,4.084,18.086,18.086,0,0,1,3.45,5.81,19.315,19.315,0,0,1,1.2,6.716,21.129,21.129,0,0,1-2.2,9.213,27.967,27.967,0,0,1-5.95,8.168,31.394,31.394,0,0,1-8.7,5.854,25.027,25.027,0,0,1-10.552,2.269h-11.3L189.4,216.344a3.476,3.476,0,0,1-3.375,2.643H175.371a3.477,3.477,0,0,1-3.385-4.27Zm0,0" transform="translate(-128.92 -115.069)"/><path class="c" d="M127.424,101.8a3.475,3.475,0,0,1,3.384-2.684h26.147a17.287,17.287,0,0,1,7.4,1.543,16.855,16.855,0,0,1,5.551,4.085,18.1,18.1,0,0,1,3.45,5.809,19.339,19.339,0,0,1,1.2,6.717,21.122,21.122,0,0,1-2.2,9.212,27.961,27.961,0,0,1-5.951,8.169,31.391,31.391,0,0,1-8.7,5.854,25.012,25.012,0,0,1-10.551,2.27H135.577L131.075,162a3.475,3.475,0,0,1-3.384,2.683H117.072a3.476,3.476,0,0,1-3.384-4.27Zm0,0" transform="translate(-85.196 -74.338)"/></svg>