<svg xmlns="http://www.w3.org/2000/svg" width="128" height="128" viewBox="0 0 128 128"><defs><style>.a{fill:#63ded8;}.b{fill:#fff;}</style></defs><path class="a" d="M128,64A64,64,0,0,1,18.745,109.255a64,64,0,1,1,90.509-90.509A63.571,63.571,0,0,1,128,64Z" transform="translate(0 0)"/><path class="b" d="M151.169,171.7V158.981q0-5.875,3.263-8.6t8.982-2.719q5.719,0,9.016,2.719t3.3,8.6V171.7q0,5.877-3.3,8.6t-9.016,2.719q-5.72,0-8.982-2.719T151.169,171.7Zm7.28,0q0,4.736,4.956,4.736,5.042,0,5.043-4.736V158.981q0-4.737-5.043-4.736-4.956,0-4.956,4.736Zm5.22,39.733a4.189,4.189,0,0,1,.347-1.491L195.242,146a3.257,3.257,0,0,1,3.122-1.842,4.661,4.661,0,0,1,3.052,1.14,3.623,3.623,0,0,1,1.025,4.385l-31.23,63.678q-.781,1.928-3.384,1.93a4.043,4.043,0,0,1-2.964-1.184A3.678,3.678,0,0,1,163.669,211.432Zm26.706-10.7V188.013q0-5.875,3.263-8.6t8.982-2.719q5.719,0,9.016,2.719t3.3,8.6v12.718q0,5.877-3.341,8.6t-8.982,2.719Q190.376,212.046,190.376,200.731Zm7.28,0q0,4.737,4.956,4.736,5.043,0,5.043-4.736V188.013q0-4.737-5.043-4.736-4.956,0-4.956,4.736Z" transform="translate(-120.107 -115.848)"/></svg>