<svg width="47" height="53" viewBox="0 0 47 53" fill="none" xmlns="http://www.w3.org/2000/svg">
<path d="M23.5328 0C10.5537 0 0.0655509 10.3518 0 23.0183V51.5662C0 52.402 0.589958 52.7235 0.852162 52.8521C1.04881 52.9807 1.70432 53.1736 2.35983 52.6592L10.0293 46.551C10.4226 46.2295 10.8815 46.1009 11.3403 46.1009H23.5328C36.5119 46.1009 47 35.6848 47 23.0183C47 10.3518 36.5119 0 23.5328 0Z" fill="#5600E3"/>
<path d="M29.924 15.0647C26.3974 15.0647 24.5685 17.7395 24.5685 20.9286C24.5685 25.1336 27.7805 26.1816 29.7863 26.3488C29.924 27.4676 28.4753 29.4351 26.712 30.5538L27.3675 32.3156C30.4091 31.9426 35.7646 28.1491 35.7646 21.7066C35.7646 17.1672 33.0704 15.0647 29.924 15.0647Z" fill="white"/>
<path d="M16.5909 15.0647C13.0643 15.0647 11.2354 17.7395 11.2354 20.9286C11.2354 25.1336 14.4474 26.1816 16.4533 26.3488C16.5909 27.4676 15.1423 29.4351 13.3789 30.5538L14.0344 32.3156C17.076 31.9426 22.4315 28.1491 22.4315 21.7066C22.4315 17.1672 19.7374 15.0647 16.5909 15.0647Z" fill="white"/>
</svg>
