<?xml version="1.0" encoding="UTF-8"?>
<svg width="750px" height="165px" viewBox="0 0 750 165" version="1.1" xmlns="http://www.w3.org/2000/svg" xmlns:xlink="http://www.w3.org/1999/xlink">
    <!-- Generator: Sketch 50.2 (55047) - http://www.bohemiancoding.com/sketch -->
    <title>Group</title>
    <desc>Created with Sketch.</desc>
    <defs></defs>
    <g id="Page-1" stroke="none" stroke-width="1" fill="none" fill-rule="evenodd">
        <g id="Spocket--logo-color" transform="translate(-226.000000, -521.000000)">
            <g id="Group" transform="translate(226.000000, 521.000000)">
                <path d="M227.98,125.485 C214.615,125.485 202.24,118.885 197.785,108.16 L213.625,102.385 C216.595,108.325 222.04,110.965 227.815,110.965 C234.25,110.965 238.87,107.665 238.87,102.385 C238.87,97.105 233.425,95.29 224.185,92.155 C211.81,87.865 201.085,82.09 201.085,68.065 C201.085,52.72 213.955,44.965 228.31,44.965 C239.2,44.965 249.1,49.915 253.72,58.66 L239.2,65.755 C236.725,61.465 232.435,58.99 227.65,58.99 C222.535,58.99 218.245,61.465 218.245,66.91 C218.245,72.355 222.7,73.84 232.27,77.14 C243.325,80.77 256.69,86.05 256.69,101.56 C256.69,117.895 242.005,125.485 227.98,125.485 Z M313.73,44.965 C334.52,44.965 352.01,62.785 352.01,85.225 C352.01,107.665 334.52,125.485 313.73,125.485 C303.17,125.485 294.59,121.69 288.32,115.42 L288.32,162.775 L269.84,162.775 L269.84,46.45 L288.32,46.45 L288.32,55.03 C294.59,48.76 303.17,44.965 313.73,44.965 Z M310.595,108.49 C323.465,108.49 333.695,98.26 333.695,85.225 C333.695,72.19 323.465,61.96 310.595,61.96 C297.56,61.96 287.165,72.19 287.165,85.225 C287.165,98.26 297.56,108.49 310.595,108.49 Z M402.45,125.485 C379.185,125.485 361.365,107.665 361.365,85.225 C361.365,62.785 379.185,44.965 402.45,44.965 C425.385,44.965 443.205,62.785 443.205,85.225 C443.205,107.665 425.385,125.485 402.45,125.485 Z M402.45,108.325 C414.99,108.325 425.385,98.095 425.385,85.225 C425.385,72.355 414.99,62.125 402.45,62.125 C389.415,62.125 379.185,72.355 379.185,85.225 C379.185,98.095 389.415,108.325 402.45,108.325 Z M493.645,125.485 C470.38,125.485 452.56,107.665 452.56,85.225 C452.56,62.785 470.38,44.965 493.645,44.965 C510.31,44.965 524.5,54.535 530.605,68.89 L514.765,75.82 C511.135,67.57 503.38,61.96 493.645,61.96 C480.28,61.96 470.38,72.025 470.38,85.225 C470.38,98.425 480.28,108.49 493.645,108.49 C503.38,108.49 511.135,102.88 514.765,94.63 L530.605,101.56 C524.5,115.915 510.31,125.485 493.645,125.485 Z M614.705,46.45 L578.9,85.225 L614.705,124 L590.945,124 L561.905,91 L561.905,124 L543.425,124 L543.425,0.25 L561.905,0.25 L561.905,79.45 L590.945,46.45 L614.705,46.45 Z M696.495,84.4 L696.33,88.36 L633.63,88.36 C634.95,101.56 644.685,110.305 656.895,110.305 C665.475,110.305 673.23,106.015 677.685,98.59 L692.535,104.695 C686.1,117.565 673.065,125.485 657.06,125.485 C632.805,125.485 615.645,107.665 615.645,85.225 C615.645,62.785 633.135,44.965 656.565,44.965 C678.84,44.965 696.165,61.135 696.495,84.4 Z M656.73,59.815 C646.17,59.815 638.085,65.92 634.95,75.49 L677.52,75.49 C674.385,65.92 667.125,59.815 656.73,59.815 Z M749.08,46.45 L749.08,61.63 L733.735,61.63 L733.735,124 L715.255,124 L715.255,61.63 L699.745,61.63 L699.745,46.45 L715.255,46.45 L715.255,18.565 L733.735,18.565 L733.735,46.45 L749.08,46.45 Z" id="spocket-copy" fill="#131A4C"></path>
                <path d="M143.474566,133.268932 L85.938756,162.756736 C80.0063383,165.747755 72.9936617,165.747755 67.061244,162.756736 L9.52543384,133.268932 C3.64959151,130.250353 0,124.63924 0,118.574887 L0,28.9421165 C0,19.58724 8.49442424,12 18.9687519,12 L134.031248,12 C144.5147,12 153,19.58724 153,28.9421165 L153,118.574887 C153,124.63924 149.368656,130.250353 143.474566,133.268932 Z M76.5,66.783871 C84.1322189,66.783871 90.3193548,60.5967351 90.3193548,52.9645161 C90.3193548,45.3322972 84.1322189,39.1451613 76.5,39.1451613 C68.8677811,39.1451613 62.6806452,45.3322972 62.6806452,52.9645161 C62.6806452,60.5967351 68.8677811,66.783871 76.5,66.783871 Z" id="Combined-Shape-Copy-4" fill="#8144E5" fill-rule="nonzero"></path>
            </g>
        </g>
    </g>
</svg>