<svg width="26" height="22" viewBox="0 0 26 22" fill="none" xmlns="http://www.w3.org/2000/svg">
<path d="M6.75782 0.441712C5.02155 0.441712 3.29458 1.07814 1.97844 2.35567C-0.653923 4.91067 -0.661484 9.01149 1.96783 11.5684L12.4996 21.8125C12.7546 22.0625 13.239 22.0625 13.494 21.8125C17.0072 18.4024 20.5125 14.9885 24.0258 11.5783C26.6581 9.02329 26.6581 4.92063 24.0258 2.36558C21.3934 -0.18946 17.0886 -0.189517 14.4563 2.36558L13.0021 3.76386L11.548 2.35567C10.1289 0.972926 8.37061 0.435016 6.75789 0.441712H6.75782ZM6.75782 1.69124C8.12607 1.69124 9.50151 2.20676 10.5642 3.23827L12.5102 5.13239C12.7652 5.38238 13.2496 5.38238 13.5046 5.13239L15.4399 3.24818C17.5653 1.18513 20.9166 1.18517 23.042 3.24818C25.1674 5.31119 25.1674 8.64264 23.042 10.7056C19.6959 13.9536 16.3482 17.2061 13.002 20.4539L2.96212 10.6957C0.838157 8.63019 0.836719 5.30123 2.96212 3.23827C4.0248 2.20676 5.38956 1.69124 6.75782 1.69124Z" fill="#444444"/>
</svg>
