<svg width="21" height="21" viewBox="0 0 21 21" fill="none" xmlns="http://www.w3.org/2000/svg">
<path d="M10.5 0C11.1883 0 11.8767 0.07 12.5533 0.198333C13.23 0.338333 13.8833 0.536667 14.525 0.793333C15.1667 1.06167 15.7617 1.37667 16.345 1.76167C16.9167 2.14667 17.4533 2.57833 17.9317 3.06833C18.4217 3.55833 18.8533 4.08333 19.2383 4.655C19.6233 5.22667 19.95 5.83333 20.2067 6.475C20.475 7.11667 20.6733 7.77 20.8017 8.44667C20.93 9.12333 21 9.81167 21 10.5C21 11.1883 20.93 11.8767 20.8017 12.5533C20.6617 13.23 20.4633 13.8833 20.2067 14.525C19.9383 15.1667 19.6233 15.7617 19.2383 16.345C18.8533 16.9167 18.4217 17.4533 17.9317 17.9317C17.4417 18.4217 16.9167 18.8533 16.345 19.2383C15.7733 19.6233 15.1667 19.95 14.525 20.2067C13.8833 20.475 13.23 20.6733 12.5533 20.8017C11.8767 20.93 11.1883 21 10.5 21C9.81167 21 9.12333 20.93 8.44667 20.8017C7.77 20.6617 7.11667 20.4633 6.475 20.2067C5.83333 19.9383 5.23833 19.6233 4.655 19.2383C4.08333 18.8533 3.54667 18.4217 3.06833 17.9317C2.59 17.4417 2.15833 16.905 1.77333 16.3333C1.38833 15.7617 1.06167 15.155 0.805 14.5133C0.536667 13.8717 0.338333 13.2183 0.21 12.5417C0.07 11.8767 0 11.1883 0 10.5C0 9.81167 0.07 9.12333 0.198333 8.44667C0.338333 7.77 0.536667 7.11667 0.805 6.48667C1.07333 5.85667 1.38833 5.23833 1.77333 4.66667C2.15833 4.095 2.59 3.55833 3.08 3.08C3.55833 2.59 4.095 2.15833 4.66667 1.77333C5.23833 1.38833 5.845 1.06167 6.48667 0.805C7.12833 0.536667 7.78167 0.338333 8.45833 0.21C9.12333 0.07 9.81167 0 10.5 0Z" fill="#DEE2E6"/>
<path d="M14.7467 9.50821C15.4817 9.96321 15.4817 11.0249 14.7467 11.4915L8.785 15.2249C8.00333 15.7032 7 15.1432 7 14.2332V6.76654C7 5.84488 8.00333 5.29654 8.785 5.77488L14.7467 9.50821Z" fill="white"/>
</svg>
