<svg width="18" height="19" viewBox="0 0 18 19" fill="none" xmlns="http://www.w3.org/2000/svg">
<g clip-path="url(#clip0)">
<path d="M13.0676 8.86987L6.88008 5.10815C6.32461 4.79878 5.625 5.19604 5.625 5.84644V13.1589C5.625 13.8058 6.32109 14.2066 6.88008 13.8972L13.0676 10.3464C13.6441 10.0265 13.6441 9.19331 13.0676 8.86987ZM17.7188 9.50269C17.7188 4.68628 13.8164 0.783936 9 0.783936C4.18359 0.783936 0.28125 4.68628 0.28125 9.50269C0.28125 14.3191 4.18359 18.2214 9 18.2214C13.8164 18.2214 17.7188 14.3191 17.7188 9.50269ZM1.96875 9.50269C1.96875 5.61792 5.11523 2.47144 9 2.47144C12.8848 2.47144 16.0312 5.61792 16.0312 9.50269C16.0312 13.3875 12.8848 16.5339 9 16.5339C5.11523 16.5339 1.96875 13.3875 1.96875 9.50269Z" fill="#6C757D"/>
</g>
<defs>
<clipPath id="clip0">
<rect width="18" height="18" fill="white" transform="translate(0 0.502686)"/>
</clipPath>
</defs>
</svg>
