<svg width="24" height="24" viewBox="0 0 24 24" fill="none" xmlns="http://www.w3.org/2000/svg">
<path fill-rule="evenodd" clip-rule="evenodd" d="M2.25 19.5C2.25 20.0967 2.48705 20.669 2.90901 21.091C3.33097 21.5129 3.90326 21.75 4.5 21.75H16.5C17.0967 21.75 17.669 21.5129 18.091 21.091C18.5129 20.669 18.75 20.0967 18.75 19.5V13.5C18.75 13.3011 18.671 13.1103 18.5303 12.9697C18.3897 12.829 18.1989 12.75 18 12.75C17.8011 12.75 17.6103 12.829 17.4697 12.9697C17.329 13.1103 17.25 13.3011 17.25 13.5V19.5C17.25 19.6989 17.171 19.8897 17.0303 20.0303C16.8897 20.171 16.6989 20.25 16.5 20.25H4.5C4.30109 20.25 4.11032 20.171 3.96967 20.0303C3.82902 19.8897 3.75 19.6989 3.75 19.5V7.5C3.75 7.30109 3.82902 7.11032 3.96967 6.96967C4.11032 6.82902 4.30109 6.75 4.5 6.75H10.5C10.6989 6.75 10.8897 6.67098 11.0303 6.53033C11.171 6.38968 11.25 6.19891 11.25 6C11.25 5.80109 11.171 5.61032 11.0303 5.46967C10.8897 5.32902 10.6989 5.25 10.5 5.25H4.5C3.90326 5.25 3.33097 5.48705 2.90901 5.90901C2.48705 6.33097 2.25 6.90326 2.25 7.5V19.5ZM12.75 3C12.75 2.80109 12.829 2.61032 12.9697 2.46967C13.1103 2.32902 13.3011 2.25 13.5 2.25H21C21.1989 2.25 21.3897 2.32902 21.5303 2.46967C21.671 2.61032 21.75 2.80109 21.75 3V10.5C21.75 10.6989 21.671 10.8897 21.5303 11.0303C21.3897 11.171 21.1989 11.25 21 11.25C20.8011 11.25 20.6103 11.171 20.4697 11.0303C20.329 10.8897 20.25 10.6989 20.25 10.5V3.75H13.5C13.3011 3.75 13.1103 3.67098 12.9697 3.53033C12.829 3.38968 12.75 3.19891 12.75 3Z" fill="#260759"/>
<path fill-rule="evenodd" clip-rule="evenodd" d="M21.531 2.46912C21.6008 2.53879 21.6562 2.62155 21.694 2.71267C21.7318 2.80379 21.7513 2.90147 21.7513 3.00012C21.7513 3.09877 21.7318 3.19645 21.694 3.28757C21.6562 3.37869 21.6008 3.46145 21.531 3.53112L9.53097 15.5311C9.46124 15.6009 9.37846 15.6562 9.28735 15.6939C9.19624 15.7316 9.09859 15.7511 8.99997 15.7511C8.90136 15.7511 8.8037 15.7316 8.7126 15.6939C8.62149 15.6562 8.5387 15.6009 8.46897 15.5311C8.39924 15.4614 8.34392 15.3786 8.30619 15.2875C8.26845 15.1964 8.24902 15.0987 8.24902 15.0001C8.24902 14.9015 8.26845 14.8039 8.30619 14.7127C8.34392 14.6216 8.39924 14.5389 8.46897 14.4691L20.469 2.46912C20.5386 2.39928 20.6214 2.34386 20.7125 2.30605C20.8036 2.26824 20.9013 2.24878 21 2.24878C21.0986 2.24878 21.1963 2.26824 21.2874 2.30605C21.3785 2.34386 21.4613 2.39928 21.531 2.46912Z" fill="#260759"/>
</svg>
