<svg width="24" height="25" viewBox="0 0 24 25" fill="none" xmlns="http://www.w3.org/2000/svg">
<g clip-path="url(#clip0)">
<path fill-rule="evenodd" clip-rule="evenodd" d="M15.663 16.4137C15.8023 16.2743 15.9678 16.1636 16.1499 16.0882C16.332 16.0127 16.5272 15.9738 16.7243 15.9738C16.9214 15.9738 17.1166 16.0127 17.2987 16.0882C17.4808 16.1636 17.6462 16.2743 17.7855 16.4137L23.5605 22.1887C23.842 22.47 24.0002 22.8516 24.0003 23.2495C24.0005 23.6474 23.8426 24.029 23.5613 24.3105C23.28 24.592 22.8985 24.7502 22.5006 24.7503C22.1027 24.7504 21.721 24.5925 21.4395 24.3112L15.6645 18.5362C15.5251 18.3969 15.4144 18.2315 15.339 18.0494C15.2635 17.8673 15.2246 17.6721 15.2246 17.475C15.2246 17.2779 15.2635 17.0827 15.339 16.9006C15.4144 16.7185 15.5251 16.5531 15.6645 16.4137H15.663Z" fill="#6C757D"/>
<path fill-rule="evenodd" clip-rule="evenodd" d="M9.75 18.7507C10.8334 18.7507 11.9062 18.5373 12.9071 18.1227C13.9081 17.7081 14.8175 17.1004 15.5836 16.3344C16.3497 15.5683 16.9574 14.6588 17.372 13.6579C17.7866 12.6569 18 11.5841 18 10.5007C18 9.41733 17.7866 8.34453 17.372 7.34359C16.9574 6.34266 16.3497 5.43318 15.5836 4.6671C14.8175 3.90102 13.9081 3.29333 12.9071 2.87873C11.9062 2.46412 10.8334 2.25073 9.75 2.25073C7.56196 2.25073 5.46354 3.11993 3.91637 4.6671C2.36919 6.21428 1.5 8.3127 1.5 10.5007C1.5 12.6888 2.36919 14.7872 3.91637 16.3344C5.46354 17.8815 7.56196 18.7507 9.75 18.7507ZM19.5 10.5007C19.5 13.0866 18.4728 15.5665 16.6443 17.395C14.8158 19.2235 12.3359 20.2507 9.75 20.2507C7.16414 20.2507 4.68419 19.2235 2.85571 17.395C1.02723 15.5665 0 13.0866 0 10.5007C0 7.91487 1.02723 5.43492 2.85571 3.60644C4.68419 1.77796 7.16414 0.750732 9.75 0.750732C12.3359 0.750732 14.8158 1.77796 16.6443 3.60644C18.4728 5.43492 19.5 7.91487 19.5 10.5007Z" fill="#6C757D"/>
</g>
<defs>
<clipPath id="clip0">
<rect width="24" height="24" fill="white" transform="translate(0 0.750732)"/>
</clipPath>
</defs>
</svg>
