<svg width="20" height="20" viewBox="0 0 20 20" fill="none" xmlns="http://www.w3.org/2000/svg">
<path fill-rule="evenodd" clip-rule="evenodd" d="M1.875 16.25C1.875 16.7473 2.07254 17.2242 2.42417 17.5758C2.77581 17.9275 3.25272 18.125 3.75 18.125H13.75C14.2473 18.125 14.7242 17.9275 15.0758 17.5758C15.4275 17.2242 15.625 16.7473 15.625 16.25V11.25C15.625 11.0842 15.5592 10.9253 15.4419 10.8081C15.3247 10.6908 15.1658 10.625 15 10.625C14.8342 10.625 14.6753 10.6908 14.5581 10.8081C14.4408 10.9253 14.375 11.0842 14.375 11.25V16.25C14.375 16.4158 14.3092 16.5747 14.1919 16.6919C14.0747 16.8092 13.9158 16.875 13.75 16.875H3.75C3.58424 16.875 3.42527 16.8092 3.30806 16.6919C3.19085 16.5747 3.125 16.4158 3.125 16.25V6.25C3.125 6.08424 3.19085 5.92527 3.30806 5.80806C3.42527 5.69085 3.58424 5.625 3.75 5.625H8.75C8.91576 5.625 9.07473 5.55915 9.19194 5.44194C9.30915 5.32473 9.375 5.16576 9.375 5C9.375 4.83424 9.30915 4.67527 9.19194 4.55806C9.07473 4.44085 8.91576 4.375 8.75 4.375H3.75C3.25272 4.375 2.77581 4.57254 2.42417 4.92417C2.07254 5.27581 1.875 5.75272 1.875 6.25V16.25ZM10.625 2.5C10.625 2.33424 10.6908 2.17527 10.8081 2.05806C10.9253 1.94085 11.0842 1.875 11.25 1.875H17.5C17.6658 1.875 17.8247 1.94085 17.9419 2.05806C18.0592 2.17527 18.125 2.33424 18.125 2.5V8.75C18.125 8.91576 18.0592 9.07473 17.9419 9.19194C17.8247 9.30915 17.6658 9.375 17.5 9.375C17.3342 9.375 17.1753 9.30915 17.0581 9.19194C16.9408 9.07473 16.875 8.91576 16.875 8.75V3.125H11.25C11.0842 3.125 10.9253 3.05915 10.8081 2.94194C10.6908 2.82473 10.625 2.66576 10.625 2.5Z" fill="#F7F4FF"/>
<path fill-rule="evenodd" clip-rule="evenodd" d="M17.9425 2.05764C18.0007 2.1157 18.0469 2.18467 18.0784 2.2606C18.1099 2.33653 18.1261 2.41793 18.1261 2.50014C18.1261 2.58235 18.1099 2.66375 18.0784 2.73968C18.0469 2.81561 18.0007 2.88458 17.9425 2.94264L7.9425 12.9426C7.88439 13.0007 7.8154 13.0468 7.73948 13.0783C7.66355 13.1097 7.58218 13.1259 7.5 13.1259C7.41782 13.1259 7.33644 13.1097 7.26052 13.0783C7.18459 13.0468 7.11561 13.0007 7.0575 12.9426C6.99939 12.8845 6.95329 12.8155 6.92184 12.7396C6.89039 12.6637 6.87421 12.5823 6.87421 12.5001C6.87421 12.418 6.89039 12.3366 6.92184 12.2607C6.95329 12.1847 6.99939 12.1157 7.0575 12.0576L17.0575 2.05764C17.1156 1.99944 17.1845 1.95326 17.2605 1.92175C17.3364 1.89024 17.4178 1.87402 17.5 1.87402C17.5822 1.87402 17.6636 1.89024 17.7395 1.92175C17.8155 1.95326 17.8844 1.99944 17.9425 2.05764Z" fill="#F7F4FF"/>
</svg>
