<svg width="16" height="18" viewBox="0 0 16 18" fill="none" xmlns="http://www.w3.org/2000/svg">
<path d="M7.17611 1.3698C7.45219 0.402339 8.82326 0.40234 9.09934 1.3698L9.99917 4.52309C10.1473 5.04207 10.6804 5.3499 11.2039 5.21867L14.3846 4.42133C15.3604 4.17671 16.046 5.36402 15.3462 6.08685L13.0653 8.44314C12.6899 8.83087 12.6899 9.44647 13.0653 9.8342L15.3462 12.1905C16.046 12.9133 15.3604 14.1006 14.3846 13.856L11.2039 13.0587C10.6804 12.9274 10.1473 13.2353 9.99917 13.7543L9.09934 16.9075C8.82326 17.875 7.45219 17.875 7.17611 16.9075L6.27628 13.7543C6.12818 13.2353 5.595 12.9274 5.07151 13.0587L1.89087 13.856C0.915028 14.1006 0.229489 12.9133 0.929221 12.1905L3.21019 9.8342C3.58553 9.44647 3.58553 8.83087 3.21019 8.44314L0.929221 6.08685C0.229489 5.36402 0.915031 4.17671 1.89088 4.42134L5.07151 5.21867C5.595 5.3499 6.12818 5.04207 6.27628 4.52309L7.17611 1.3698Z" fill="#FFCF3E"/>
</svg>
