<svg width="30" height="30" viewBox="0 0 30 30" fill="none" xmlns="http://www.w3.org/2000/svg">
<path d="M14.75 0C6.60505 0 0 6.60505 0 14.75C0 22.895 6.60505 29.5 14.75 29.5C22.895 29.5 29.5 22.895 29.5 14.75C29.5 6.60505 22.895 0 14.75 0ZM10.4638 22.2979H6.87152V11.4904H10.4638V22.2979ZM8.66779 10.0146H8.64438C7.43892 10.0146 6.65929 9.18476 6.65929 8.14766C6.65929 7.08714 7.46278 6.28027 8.69164 6.28027C9.92051 6.28027 10.6767 7.08714 10.7001 8.14766C10.7001 9.18476 9.92051 10.0146 8.66779 10.0146ZM23.4169 22.2979H19.825V16.5161C19.825 15.0631 19.3049 14.0721 18.0051 14.0721C17.0128 14.0721 16.4218 14.7405 16.1621 15.3858C16.0671 15.6167 16.0439 15.9395 16.0439 16.2625V22.2979H12.4518C12.4518 22.2979 12.4989 12.5043 12.4518 11.4904H16.0439V13.0206C16.5213 12.2842 17.3754 11.2367 19.2813 11.2367C21.6447 11.2367 23.4169 12.7813 23.4169 16.1009V22.2979Z" fill="#A9B0BA"/>
</svg>
