<svg width="30" height="30" viewBox="0 0 30 30" fill="none" xmlns="http://www.w3.org/2000/svg">
<path d="M14.7483 0C6.60394 0 0 6.60394 0 14.7483C0 22.8926 6.60394 29.4965 14.7483 29.4965C22.8926 29.4965 29.4965 22.8926 29.4965 14.7483C29.4965 6.60394 22.8926 0 14.7483 0ZM19.9593 17.2063C18.9761 18.4681 17.5832 19.1727 16.0428 19.1727C15.2562 19.1727 14.4041 18.845 13.8797 18.337L13.765 18.2223L13.7159 18.3862C13.5192 19.1891 13.257 20.2051 13.1751 20.5001C12.9457 21.3358 12.0936 23.7447 11.2251 23.7447C11.1923 23.7447 11.1431 23.7447 11.1104 23.7283C10.3074 23.5153 10.7007 20.6312 10.8973 19.8446C11.0448 19.2219 11.7494 16.2395 12.028 15.0596L12.1263 14.6335L12.11 14.6008C12.028 14.3877 11.815 13.8306 11.815 13.0768C11.815 11.5692 12.7163 10.3893 13.8634 10.3893C14.7483 10.3893 15.3382 11.0448 15.3382 12.0116C15.3382 12.6016 15.1088 13.3554 14.863 14.1419C14.7319 14.5844 14.5844 15.0432 14.4861 15.4857C14.3877 15.8953 14.4697 16.305 14.7155 16.6164C14.9777 16.9441 15.3873 17.1244 15.8298 17.1244C16.8622 17.1244 17.5176 16.3378 17.8945 15.6987C18.4189 14.781 18.7139 13.5192 18.7139 12.1755C18.7139 9.99604 17.2391 8.65231 14.8793 8.65231C11.9133 8.65231 10.3074 10.9465 10.3074 13.0932C10.3074 13.8306 10.504 14.3877 10.8973 14.8793C11.094 15.1252 11.1595 15.2562 11.0776 15.584V15.6168C11.0284 15.8134 10.9301 16.2067 10.8809 16.3706C10.8154 16.6164 10.6187 16.7802 10.3893 16.7802C10.3074 16.7802 10.2418 16.7638 10.1599 16.7311C8.84895 16.1903 8.06238 14.7483 8.06238 12.8801C8.06238 11.3725 8.71786 9.84856 9.84855 8.70147C10.7662 7.76741 12.4377 6.6531 15.1579 6.6531C16.9277 6.6531 18.55 7.2758 19.7299 8.39012C20.8278 9.43888 21.4669 10.8973 21.4669 12.3558C21.4341 14.2566 20.9097 15.9773 19.9593 17.2063Z" fill="#A9B0BA"/>
</svg>
