<svg width="30" height="30" viewBox="0 0 30 30" fill="none" xmlns="http://www.w3.org/2000/svg">
<path d="M14.7483 0C6.60394 0 0 6.60394 0 14.7483C0 22.8926 6.60394 29.4965 14.7483 29.4965C22.8926 29.4965 29.4965 22.8926 29.4965 14.7483C29.4965 6.60394 22.8926 0 14.7483 0ZM22.0568 13.7486C21.1228 13.7486 20.2215 13.5684 19.3694 13.2079C18.8286 12.9785 18.3042 12.6835 17.8454 12.323L17.8618 18.4025C17.8618 19.7627 17.321 21.0572 16.3378 22.0241C15.5348 22.8106 14.5352 23.3186 13.4373 23.4825C13.1751 23.5153 12.9129 23.548 12.6507 23.548C11.4872 23.548 10.3729 23.1711 9.45527 22.4665C9.2914 22.3354 9.12753 22.1879 8.96366 22.0404C7.89851 20.9917 7.35774 19.566 7.43967 18.0748C7.50522 16.9441 7.96406 15.8462 8.71786 14.9941C9.71746 13.8634 11.1267 13.2407 12.6343 13.2407C12.8965 13.2407 13.1587 13.257 13.4209 13.3062V14.0436V16.0756C13.1751 15.9937 12.9129 15.9445 12.6507 15.9445C11.2742 15.9445 10.1599 17.0588 10.1927 18.4353C10.2091 19.3202 10.6843 20.0904 11.3889 20.5001C11.7167 20.6967 12.11 20.8278 12.5196 20.8442C12.8474 20.8606 13.1423 20.8114 13.4373 20.7295C14.4205 20.4017 15.1252 19.4841 15.1252 18.4025V14.3386V6.86613H17.8454C17.8454 7.12832 17.8782 7.39051 17.9273 7.6527C18.1404 8.68508 18.7139 9.56998 19.5169 10.1927C20.2215 10.7171 21.1064 11.0448 22.0568 11.0448C22.0568 11.0448 22.0732 11.0448 22.0568 11.0448V11.7822V13.7486Z" fill="#A9B0BA"/>
</svg>
