<svg width="18" height="18" viewBox="0 0 18 18" fill="none" xmlns="http://www.w3.org/2000/svg">
<path d="M11.0565 4.5C10.1619 4.49951 9.30401 4.14383 8.6715 3.51113L7.73775 2.57963C7.52737 2.36918 7.24219 2.25066 6.94462 2.25H2.8125C2.5178 2.24995 2.23484 2.36553 2.02447 2.57191C1.81409 2.77829 1.6931 3.05898 1.6875 3.35362L1.73925 4.5H0.61425L0.5625 3.375C0.5625 2.77826 0.799553 2.20597 1.22151 1.78401C1.64347 1.36205 2.21576 1.125 2.8125 1.125H6.9435C7.54019 1.12513 8.11239 1.36226 8.53425 1.78425L9.46575 2.71575C9.88761 3.13774 10.4598 3.37487 11.0565 3.375V4.5Z" fill="#444444"/>
<path fill-rule="evenodd" clip-rule="evenodd" d="M15.5363 4.5H2.4638C2.30752 4.49999 2.15295 4.53254 2.00995 4.59558C1.86695 4.65861 1.73865 4.75075 1.63323 4.86612C1.52781 4.98149 1.44759 5.11756 1.39767 5.26565C1.34775 5.41374 1.32923 5.57061 1.3433 5.72625L2.05992 13.6012C2.08518 13.8808 2.21401 14.1408 2.42111 14.3302C2.62821 14.5196 2.89864 14.6247 3.1793 14.625H14.8208C15.1015 14.6247 15.3719 14.5196 15.579 14.3302C15.7861 14.1408 15.9149 13.8808 15.9402 13.6012L16.6568 5.72625C16.6709 5.57061 16.6523 5.41374 16.6024 5.26565C16.5525 5.11756 16.4723 4.98149 16.3669 4.86612C16.2614 4.75075 16.1331 4.65861 15.9901 4.59558C15.8471 4.53254 15.6926 4.49999 15.5363 4.5ZM2.4638 3.375C2.15114 3.37497 1.8419 3.4401 1.55581 3.56624C1.26973 3.69238 1.01307 3.87676 0.802217 4.10762C0.591362 4.33848 0.430937 4.61076 0.331174 4.90707C0.23141 5.20339 0.194499 5.51725 0.222795 5.82863L0.93942 13.7036C0.990221 14.2627 1.24815 14.7825 1.66257 15.1611C2.07699 15.5397 2.61796 15.7498 3.1793 15.75H14.8208C15.3821 15.7498 15.9231 15.5397 16.3375 15.1611C16.7519 14.7825 17.0099 14.2627 17.0607 13.7036L17.7773 5.82863C17.8056 5.51725 17.7687 5.20339 17.6689 4.90707C17.5692 4.61076 17.4087 4.33848 17.1979 4.10762C16.987 3.87676 16.7304 3.69238 16.4443 3.56624C16.1582 3.4401 15.849 3.37497 15.5363 3.375H2.4638Z" fill="#444444"/>
</svg>
