<svg width="22" height="19" viewBox="0 0 22 19" fill="none" xmlns="http://www.w3.org/2000/svg">
<path d="M18.9373 11.3161L17.4414 5.23213C17.2465 4.43862 16.7292 3.75727 16.023 3.36352C15.3158 2.97079 14.4736 2.8911 13.7077 3.15159L13.2047 3.32167C12.9279 3.41509 12.7785 3.71876 12.8709 3.99934L13.0378 4.50759C13.1298 4.78817 13.4286 4.93984 13.7051 4.84642L14.1398 4.69944C14.4984 4.57824 14.8985 4.57991 15.2336 4.75736C15.5731 4.93716 15.8132 5.24486 15.9056 5.62186L17.1742 10.772C16.4423 10.544 15.5318 10.3548 14.4957 10.3548C13.3488 10.3548 12.0554 10.5899 10.7073 11.2501H8.29337C6.94523 10.5892 5.65184 10.3545 4.50458 10.3545C3.46816 10.3545 2.55774 10.5437 1.82578 10.7717L3.09443 5.62119C3.18646 5.24452 3.42726 4.93649 3.76668 4.75703C4.10182 4.57958 4.50161 4.5779 4.86017 4.69911L5.2946 4.84609C5.57102 4.9395 5.86988 4.78783 5.96191 4.50726L6.12882 3.99901C6.22118 3.71843 6.07175 3.41475 5.795 3.32134L5.29196 3.15125C4.52602 2.89076 3.68389 2.97012 2.97667 3.36319C2.27043 3.75727 1.75321 4.43828 1.55826 5.23146L0.0626736 11.3161C0.021088 11.4857 4.14068e-05 11.6599 0 11.8347L0 14.1868C0 16.2928 1.70142 18 3.8 18H5.02444C7.01285 18 8.66512 16.4619 8.81389 14.472L8.91054 13.1787H10.0898L10.1864 14.472C10.3349 16.4619 11.9872 18 13.9756 18H15.2C17.2986 18 19 16.2928 19 14.1871V11.835C19 11.6599 18.9789 11.4858 18.9373 11.3161ZM6.70872 14.31C6.64373 15.1775 5.90385 15.8572 5.02444 15.8572H3.8C2.8688 15.8572 2.11111 15.1079 2.11111 14.1868V12.9299C2.70882 12.7126 3.54337 12.4973 4.50524 12.4973C5.29229 12.4973 6.06417 12.6423 6.81196 12.9299L6.70872 14.31ZM16.8889 14.1871C16.8889 15.1082 16.1312 15.8572 15.2 15.8572H13.9756C13.0958 15.8572 12.3559 15.1775 12.2913 14.31L12.188 12.9299C12.9358 12.6423 13.708 12.4973 14.4954 12.4973C15.456 12.4973 16.2909 12.7129 16.8886 12.9302V14.1871H16.8889Z" fill="#6C757D"/>
</svg>
