<svg width="184" height="46" viewBox="0 0 184 46" fill="none" xmlns="http://www.w3.org/2000/svg">
<g clip-path="url(#clip0)">
<path d="M55.3342 34.5168V36.476H57.4701V37.1067H55.3342V39.1248H57.7223V39.7553H54.5691V33.8861H57.7223V34.5168H55.3342ZM64.5476 35.0633C64.9063 35.0633 65.2258 35.1391 65.5062 35.2904C65.7864 35.4361 66.0078 35.6576 66.1704 35.9546C66.333 36.2518 66.4142 36.6133 66.4142 37.0394V39.7553H65.6575V37.1487C65.6575 36.6891 65.5426 36.3387 65.3127 36.0977C65.0885 35.8509 64.783 35.7276 64.3961 35.7276C63.9982 35.7276 63.6814 35.8566 63.446 36.1144C63.2106 36.3667 63.0929 36.7339 63.0929 37.216V39.7553H62.336V37.1487C62.336 36.6891 62.2211 36.3387 61.9913 36.0977C61.7671 35.8509 61.4616 35.7276 61.0748 35.7276C60.6767 35.7276 60.3601 35.8566 60.1246 36.1144C59.8892 36.3667 59.7714 36.7339 59.7714 37.216V39.7553H59.0063V35.1475H59.7714V35.8118C59.9227 35.5707 60.1246 35.3857 60.3768 35.2568C60.6347 35.1278 60.9178 35.0633 61.2261 35.0633C61.6129 35.0633 61.9548 35.1502 62.252 35.324C62.5491 35.4978 62.7705 35.7529 62.9163 36.0892C63.0452 35.764 63.2582 35.5118 63.5554 35.3324C63.8524 35.1531 64.1832 35.0633 64.5476 35.0633ZM68.5607 35.9967C68.7122 35.7332 68.9363 35.5146 69.2334 35.3408C69.5362 35.1615 69.8865 35.0718 70.2845 35.0718C70.6938 35.0718 71.0637 35.1699 71.3945 35.3661C71.7309 35.5623 71.9943 35.8398 72.1849 36.1985C72.3754 36.5517 72.4707 36.9637 72.4707 37.4346C72.4707 37.8999 72.3754 38.3147 72.1849 38.679C71.9943 39.0435 71.7309 39.3265 71.3945 39.5283C71.0637 39.7302 70.6938 39.8311 70.2845 39.8311C69.8921 39.8311 69.5446 39.7442 69.2418 39.5704C68.9448 39.391 68.7177 39.1695 68.5607 38.906V41.9416H67.7956V35.1475H68.5607V35.9967ZM71.6887 37.4346C71.6887 37.087 71.6187 36.7844 71.4785 36.5265C71.3384 36.2686 71.1478 36.0724 70.9067 35.9378C70.6714 35.8033 70.4106 35.736 70.1247 35.736C69.8445 35.736 69.5838 35.8062 69.3427 35.9462C69.1074 36.0808 68.9168 36.2798 68.771 36.5433C68.6309 36.8011 68.5607 37.101 68.5607 37.443C68.5607 37.7905 68.6309 38.096 68.771 38.3595C68.9168 38.6174 69.1074 38.8164 69.3427 38.9566C69.5838 39.0911 69.8445 39.1584 70.1247 39.1584C70.4106 39.1584 70.6714 39.0911 70.9067 38.9566C71.1478 38.8164 71.3384 38.6174 71.4785 38.3595C71.6187 38.096 71.6887 37.7877 71.6887 37.4346ZM75.6138 39.8311C75.1821 39.8311 74.7897 39.7329 74.4365 39.5367C74.089 39.3405 73.8143 39.0631 73.6125 38.7043C73.4163 38.3399 73.3182 37.9194 73.3182 37.443C73.3182 36.9721 73.4191 36.5573 73.6209 36.1985C73.8283 35.8342 74.1086 35.5567 74.4618 35.3661C74.8149 35.1699 75.2101 35.0718 75.6473 35.0718C76.0847 35.0718 76.4799 35.1699 76.833 35.3661C77.1862 35.5567 77.4637 35.8313 77.6654 36.1901C77.8729 36.5489 77.9766 36.9665 77.9766 37.443C77.9766 37.9194 77.87 38.3399 77.6571 38.7043C77.4497 39.0631 77.1666 39.3405 76.8078 39.5367C76.449 39.7329 76.051 39.8311 75.6138 39.8311ZM75.6138 39.1584C75.8884 39.1584 76.1463 39.0939 76.3873 38.9649C76.6284 38.836 76.8218 38.6426 76.9676 38.3848C77.1189 38.1269 77.1946 37.813 77.1946 37.443C77.1946 37.073 77.1217 36.7591 76.976 36.5012C76.8302 36.2434 76.6396 36.0528 76.4042 35.9295C76.1687 35.8005 75.9137 35.736 75.639 35.736C75.3587 35.736 75.1008 35.8005 74.8653 35.9295C74.6356 36.0528 74.4505 36.2434 74.3104 36.5012C74.1703 36.7591 74.1002 37.073 74.1002 37.443C74.1002 37.8186 74.1675 38.1353 74.302 38.3932C74.4421 38.651 74.6271 38.8444 74.857 38.9733C75.0868 39.0967 75.3391 39.1584 75.6138 39.1584ZM85.2471 35.1475L83.8093 39.7553H83.0188L81.9089 36.0977L80.7989 39.7553H80.0085L78.5622 35.1475H79.3442L80.4037 39.0154L81.5473 35.1475H82.3293L83.4476 39.0238L84.4903 35.1475H85.2471ZM90.3369 37.2749C90.3369 37.4206 90.3285 37.5748 90.3117 37.7373H86.6287C86.6567 38.1913 86.8109 38.5474 87.0912 38.8052C87.3771 39.0575 87.7219 39.1835 88.1255 39.1835C88.4562 39.1835 88.7309 39.1079 88.9495 38.9566C89.1737 38.7996 89.3307 38.5921 89.4204 38.3344H90.2445C90.1212 38.7772 89.8744 39.1388 89.5045 39.419C89.1345 39.6937 88.6748 39.8311 88.1255 39.8311C87.6882 39.8311 87.2958 39.7329 86.9483 39.5367C86.6063 39.3405 86.3372 39.0631 86.141 38.7043C85.9449 38.3399 85.8467 37.9194 85.8467 37.443C85.8467 36.9665 85.942 36.5489 86.1326 36.1901C86.3232 35.8313 86.5895 35.5567 86.9315 35.3661C87.279 35.1699 87.677 35.0718 88.1255 35.0718C88.5628 35.0718 88.9495 35.1671 89.2859 35.3577C89.6222 35.5483 89.88 35.8118 90.0595 36.1481C90.2445 36.4788 90.3369 36.8544 90.3369 37.2749ZM89.5465 37.115C89.5465 36.8235 89.4821 36.5741 89.3532 36.3667C89.2242 36.1537 89.0476 35.9939 88.8234 35.8874C88.6048 35.7753 88.3609 35.7192 88.0918 35.7192C87.705 35.7192 87.3743 35.8426 87.0996 36.0892C86.8306 36.3359 86.6764 36.6778 86.6371 37.115H89.5465ZM92.2383 35.8958C92.3728 35.6323 92.5634 35.4277 92.81 35.282C93.0623 35.1362 93.3678 35.0633 93.7266 35.0633V35.8538H93.5248C92.6671 35.8538 92.2383 36.319 92.2383 37.2496V39.7553H91.4731V35.1475H92.2383V35.8958ZM95.1312 34.3991C94.9854 34.3991 94.8621 34.3486 94.7612 34.2478C94.6604 34.1468 94.6099 34.0234 94.6099 33.8777C94.6099 33.732 94.6604 33.6086 94.7612 33.5078C94.8621 33.4069 94.9854 33.3564 95.1312 33.3564C95.2714 33.3564 95.3891 33.4069 95.4844 33.5078C95.5853 33.6086 95.6357 33.732 95.6357 33.8777C95.6357 34.0234 95.5853 34.1468 95.4844 34.2478C95.3891 34.3486 95.2714 34.3991 95.1312 34.3991ZM95.5012 35.1475V39.7553H94.736V35.1475H95.5012ZM99.1766 35.0633C99.7371 35.0633 100.191 35.2344 100.539 35.5763C100.886 35.9126 101.06 36.4003 101.06 37.0394V39.7553H100.303V37.1487C100.303 36.6891 100.188 36.3387 99.9586 36.0977C99.7288 35.8509 99.4148 35.7276 99.0168 35.7276C98.6132 35.7276 98.2908 35.8538 98.0498 36.106C97.8143 36.3583 97.6967 36.7255 97.6967 37.2076V39.7553H96.9314V35.1475H97.6967V35.8033C97.848 35.5679 98.0526 35.3857 98.3105 35.2568C98.5739 35.1278 98.8627 35.0633 99.1766 35.0633ZM104.337 35.0718C104.734 35.0718 105.082 35.1586 105.379 35.3324C105.682 35.5063 105.906 35.7249 106.052 35.9884V35.1475H106.825V39.8562C106.825 40.2767 106.736 40.6495 106.556 40.9746C106.377 41.3053 106.119 41.5632 105.783 41.7483C105.452 41.9332 105.065 42.0257 104.622 42.0257C104.017 42.0257 103.513 41.8827 103.109 41.5968C102.705 41.3109 102.467 40.9214 102.394 40.428H103.151C103.235 40.7084 103.409 40.9326 103.672 41.1007C103.936 41.2745 104.252 41.3615 104.622 41.3615C105.043 41.3615 105.385 41.2297 105.648 40.9663C105.917 40.7028 106.052 40.3327 106.052 39.8562V38.8893C105.901 39.1584 105.676 39.3826 105.379 39.562C105.082 39.7413 104.734 39.8311 104.337 39.8311C103.927 39.8311 103.555 39.7302 103.218 39.5283C102.887 39.3265 102.627 39.0435 102.436 38.679C102.246 38.3147 102.15 37.8999 102.15 37.4346C102.15 36.9637 102.246 36.5517 102.436 36.1985C102.627 35.8398 102.887 35.5623 103.218 35.3661C103.555 35.1699 103.927 35.0718 104.337 35.0718ZM106.052 37.443C106.052 37.0954 105.982 36.7928 105.842 36.5349C105.702 36.277 105.511 36.0808 105.27 35.9462C105.034 35.8062 104.774 35.736 104.488 35.736C104.202 35.736 103.941 35.8033 103.706 35.9378C103.47 36.0724 103.283 36.2686 103.142 36.5265C103.002 36.7844 102.932 37.087 102.932 37.4346C102.932 37.7877 103.002 38.096 103.142 38.3595C103.283 38.6174 103.47 38.8164 103.706 38.9566C103.941 39.0911 104.202 39.1584 104.488 39.1584C104.774 39.1584 105.034 39.0911 105.27 38.9566C105.511 38.8164 105.702 38.6174 105.842 38.3595C105.982 38.096 106.052 37.7905 106.052 37.443ZM111.378 34.5168V36.476H113.514V37.1067H111.378V39.1248H113.766V39.7553H110.613V33.8861H113.766V34.5168H111.378ZM114.764 37.443C114.764 36.9665 114.859 36.5517 115.05 36.1985C115.24 35.8398 115.503 35.5623 115.84 35.3661C116.182 35.1699 116.571 35.0718 117.009 35.0718C117.576 35.0718 118.04 35.2091 118.404 35.4838C118.775 35.7585 119.018 36.1397 119.137 36.6273H118.312C118.234 36.3471 118.08 36.1257 117.85 35.9631C117.626 35.8005 117.346 35.7192 117.009 35.7192C116.571 35.7192 116.218 35.8706 115.95 36.1733C115.681 36.4704 115.545 36.8937 115.545 37.443C115.545 37.998 115.681 38.4268 115.95 38.7296C116.218 39.0322 116.571 39.1835 117.009 39.1835C117.346 39.1835 117.626 39.1051 117.85 38.9482C118.074 38.7912 118.228 38.567 118.312 38.2755H119.137C119.012 38.7463 118.767 39.1248 118.396 39.4106C118.026 39.6909 117.564 39.8311 117.009 39.8311C116.571 39.8311 116.182 39.7329 115.84 39.5367C115.503 39.3405 115.24 39.0631 115.05 38.7043C114.859 38.3455 114.764 37.9251 114.764 37.443ZM122.293 39.8311C121.861 39.8311 121.47 39.7329 121.115 39.5367C120.768 39.3405 120.494 39.0631 120.292 38.7043C120.095 38.3399 119.997 37.9194 119.997 37.443C119.997 36.9721 120.099 36.5573 120.3 36.1985C120.507 35.8342 120.788 35.5567 121.142 35.3661C121.495 35.1699 121.89 35.0718 122.327 35.0718C122.764 35.0718 123.159 35.1699 123.512 35.3661C123.865 35.5567 124.143 35.8313 124.345 36.1901C124.552 36.5489 124.655 36.9665 124.655 37.443C124.655 37.9194 124.55 38.3399 124.337 38.7043C124.129 39.0631 123.846 39.3405 123.487 39.5367C123.129 39.7329 122.73 39.8311 122.293 39.8311ZM122.293 39.1584C122.568 39.1584 122.826 39.0939 123.067 38.9649C123.307 38.836 123.501 38.6426 123.647 38.3848C123.798 38.1269 123.874 37.813 123.874 37.443C123.874 37.073 123.801 36.7591 123.656 36.5012C123.51 36.2434 123.319 36.0528 123.083 35.9295C122.848 35.8005 122.593 35.736 122.318 35.736C122.038 35.736 121.78 35.8005 121.545 35.9295C121.315 36.0528 121.13 36.2434 120.99 36.5012C120.85 36.7591 120.78 37.073 120.78 37.443C120.78 37.8186 120.847 38.1353 120.981 38.3932C121.121 38.651 121.307 38.8444 121.537 38.9733C121.766 39.0967 122.018 39.1584 122.293 39.1584ZM131.33 35.0633C131.689 35.0633 132.007 35.1391 132.288 35.2904C132.569 35.4361 132.79 35.6576 132.953 35.9546C133.115 36.2518 133.196 36.6133 133.196 37.0394V39.7553H132.439V37.1487C132.439 36.6891 132.324 36.3387 132.095 36.0977C131.871 35.8509 131.565 35.7276 131.179 35.7276C130.78 35.7276 130.464 35.8566 130.228 36.1144C129.992 36.3667 129.875 36.7339 129.875 37.216V39.7553H129.118V37.1487C129.118 36.6891 129.003 36.3387 128.774 36.0977C128.549 35.8509 128.243 35.7276 127.857 35.7276C127.459 35.7276 127.142 35.8566 126.906 36.1144C126.671 36.3667 126.554 36.7339 126.554 37.216V39.7553H125.788V35.1475H126.554V35.8118C126.705 35.5707 126.906 35.3857 127.159 35.2568C127.417 35.1278 127.7 35.0633 128.008 35.0633C128.395 35.0633 128.737 35.1502 129.033 35.324C129.331 35.4978 129.553 35.7529 129.698 36.0892C129.827 35.764 130.04 35.5118 130.337 35.3324C130.634 35.1531 130.966 35.0633 131.33 35.0633ZM140.119 35.0633C140.478 35.0633 140.798 35.1391 141.078 35.2904C141.358 35.4361 141.579 35.6576 141.741 35.9546C141.904 36.2518 141.985 36.6133 141.985 37.0394V39.7553H141.229V37.1487C141.229 36.6891 141.114 36.3387 140.884 36.0977C140.66 35.8509 140.355 35.7276 139.968 35.7276C139.569 35.7276 139.252 35.8566 139.017 36.1144C138.782 36.3667 138.664 36.7339 138.664 37.216V39.7553H137.908V37.1487C137.908 36.6891 137.793 36.3387 137.563 36.0977C137.338 35.8509 137.033 35.7276 136.646 35.7276C136.248 35.7276 135.931 35.8566 135.695 36.1144C135.461 36.3667 135.342 36.7339 135.342 37.216V39.7553H134.577V35.1475H135.342V35.8118C135.494 35.5707 135.695 35.3857 135.948 35.2568C136.206 35.1278 136.489 35.0633 136.798 35.0633C137.184 35.0633 137.526 35.1502 137.824 35.324C138.121 35.4978 138.342 35.7529 138.487 36.0892C138.616 35.764 138.829 35.5118 139.126 35.3324C139.423 35.1531 139.755 35.0633 140.119 35.0633ZM147.571 37.2749C147.571 37.4206 147.563 37.5748 147.546 37.7373H143.863C143.891 38.1913 144.045 38.5474 144.325 38.8052C144.611 39.0575 144.956 39.1835 145.36 39.1835C145.69 39.1835 145.965 39.1079 146.183 38.9566C146.408 38.7996 146.565 38.5921 146.655 38.3344H147.479C147.355 38.7772 147.109 39.1388 146.739 39.419C146.369 39.6937 145.909 39.8311 145.36 39.8311C144.923 39.8311 144.53 39.7329 144.183 39.5367C143.84 39.3405 143.571 39.0631 143.375 38.7043C143.18 38.3399 143.08 37.9194 143.08 37.443C143.08 36.9665 143.176 36.5489 143.366 36.1901C143.558 35.8313 143.824 35.5567 144.166 35.3661C144.513 35.1699 144.911 35.0718 145.36 35.0718C145.797 35.0718 146.183 35.1671 146.52 35.3577C146.856 35.5483 147.115 35.8118 147.293 36.1481C147.479 36.4788 147.571 36.8544 147.571 37.2749ZM146.781 37.115C146.781 36.8235 146.716 36.5741 146.587 36.3667C146.459 36.1537 146.282 35.9939 146.058 35.8874C145.839 35.7753 145.595 35.7192 145.326 35.7192C144.939 35.7192 144.609 35.8426 144.334 36.0892C144.064 36.3359 143.911 36.6778 143.872 37.115H146.781ZM149.473 35.8958C149.607 35.6323 149.797 35.4277 150.044 35.282C150.297 35.1362 150.602 35.0633 150.961 35.0633V35.8538H150.759C149.901 35.8538 149.473 36.319 149.473 37.2496V39.7553H148.708V35.1475H149.473V35.8958ZM151.684 37.443C151.684 36.9665 151.78 36.5517 151.97 36.1985C152.161 35.8398 152.424 35.5623 152.761 35.3661C153.103 35.1699 153.492 35.0718 153.929 35.0718C154.495 35.0718 154.961 35.2091 155.325 35.4838C155.695 35.7585 155.939 36.1397 156.057 36.6273H155.233C155.154 36.3471 155.001 36.1257 154.771 35.9631C154.546 35.8005 154.266 35.7192 153.929 35.7192C153.492 35.7192 153.139 35.8706 152.87 36.1733C152.6 36.4704 152.466 36.8937 152.466 37.443C152.466 37.998 152.6 38.4268 152.87 38.7296C153.139 39.0322 153.492 39.1835 153.929 39.1835C154.266 39.1835 154.546 39.1051 154.771 38.9482C154.995 38.7912 155.149 38.567 155.233 38.2755H156.057C155.933 38.7463 155.687 39.1248 155.317 39.4106C154.947 39.6909 154.485 39.8311 153.929 39.8311C153.492 39.8311 153.103 39.7329 152.761 39.5367C152.424 39.3405 152.161 39.0631 151.97 38.7043C151.78 38.3455 151.684 37.9251 151.684 37.443ZM161.409 37.2749C161.409 37.4206 161.4 37.5748 161.383 37.7373H157.7C157.728 38.1913 157.882 38.5474 158.163 38.8052C158.448 39.0575 158.793 39.1835 159.196 39.1835C159.528 39.1835 159.802 39.1079 160.021 38.9566C160.245 38.7996 160.402 38.5921 160.492 38.3344H161.315C161.192 38.7772 160.945 39.1388 160.575 39.419C160.206 39.6937 159.746 39.8311 159.196 39.8311C158.759 39.8311 158.368 39.7329 158.019 39.5367C157.678 39.3405 157.409 39.0631 157.212 38.7043C157.016 38.3399 156.918 37.9194 156.918 37.443C156.918 36.9665 157.014 36.5489 157.204 36.1901C157.394 35.8313 157.66 35.5567 158.003 35.3661C158.35 35.1699 158.748 35.0718 159.196 35.0718C159.634 35.0718 160.021 35.1671 160.357 35.3577C160.694 35.5483 160.951 35.8118 161.131 36.1481C161.315 36.4788 161.409 36.8544 161.409 37.2749ZM160.617 37.115C160.617 36.8235 160.554 36.5741 160.425 36.3667C160.295 36.1537 160.119 35.9939 159.894 35.8874C159.676 35.7753 159.432 35.7192 159.163 35.7192C158.776 35.7192 158.446 35.8426 158.171 36.0892C157.902 36.3359 157.748 36.6778 157.708 37.115H160.617Z" fill="black"/>
<path d="M62.4251 9.4064C64.6261 9.4064 66.5496 9.84265 68.1955 10.7152C69.8413 11.5876 71.1105 12.8171 72.0029 14.4035C72.915 15.97 73.3711 17.7845 73.3711 19.8468C73.3711 21.8892 72.915 23.7037 72.0029 25.29C71.1105 26.8765 69.8314 28.106 68.1657 28.9785C66.5199 29.851 64.6063 30.2872 62.4251 30.2872H54.6021V9.4064H62.4251ZM62.0978 25.885C64.0213 25.885 65.5185 25.3595 66.5893 24.3084C67.6601 23.2575 68.1955 21.7703 68.1955 19.8468C68.1955 17.9233 67.6601 16.4262 66.5893 15.3553C65.5185 14.2845 64.0213 13.7492 62.0978 13.7492H59.6885V25.885H62.0978ZM91.8593 21.7207C91.8593 22.1967 91.8295 22.6924 91.7701 23.208H80.2588C80.3382 24.2391 80.6653 25.0323 81.2404 25.5876C81.8354 26.1229 82.5591 26.3906 83.4118 26.3906C84.6809 26.3906 85.5633 25.8553 86.059 24.7844H91.4726C91.195 25.8751 90.6893 26.8567 89.9556 27.7292C89.2417 28.6017 88.3395 29.2858 87.2489 29.7815C86.1582 30.2773 84.9387 30.5252 83.5903 30.5252C81.9643 30.5252 80.5166 30.1781 79.2475 29.4841C77.9784 28.79 76.9869 27.7985 76.273 26.5096C75.5592 25.2207 75.2022 23.7136 75.2022 21.9884C75.2022 20.2632 75.5493 18.7561 76.2433 17.4672C76.9572 16.1783 77.9487 15.1868 79.2178 14.4927C80.4869 13.7987 81.9443 13.4517 83.5903 13.4517C85.1964 13.4517 86.6243 13.7888 87.8735 14.463C89.1227 15.1373 90.0944 16.0989 90.7885 17.3482C91.5023 18.5975 91.8593 20.055 91.8593 21.7207ZM86.654 20.3822C86.654 19.5096 86.3566 18.8157 85.7616 18.3001C85.1667 17.7845 84.4231 17.5268 83.5308 17.5268C82.678 17.5268 81.9543 17.7746 81.3594 18.2704C80.7843 18.766 80.4274 19.47 80.2886 20.3822H86.654ZM99.6289 16.0395C100.105 15.2661 100.789 14.6415 101.681 14.1656C102.574 13.6896 103.595 13.4517 104.745 13.4517C106.113 13.4517 107.353 13.7987 108.463 14.4927C109.574 15.1868 110.446 16.1783 111.081 17.4672C111.735 18.7561 112.062 20.2533 112.062 21.9587C112.062 23.664 111.735 25.1711 111.081 26.4799C110.446 27.7688 109.574 28.7702 108.463 29.4841C107.353 30.1781 106.113 30.5252 104.745 30.5252C103.575 30.5252 102.554 30.2971 101.681 29.841C100.809 29.3651 100.125 28.7405 99.6289 27.9672V30.2872H94.5426V8.2761H99.6289V16.0395ZM106.887 21.9587C106.887 20.6896 106.53 19.6981 105.816 18.9842C105.122 18.2505 104.259 17.8836 103.228 17.8836C102.217 17.8836 101.354 18.2505 100.64 18.9842C99.9463 19.7179 99.5992 20.7193 99.5992 21.9884C99.5992 23.2575 99.9463 24.2589 100.64 24.9926C101.354 25.7264 102.217 26.0932 103.228 26.0932C104.239 26.0932 105.102 25.7264 105.816 24.9926C106.53 24.2391 106.887 23.2278 106.887 21.9587ZM131.12 13.6896V30.2872H126.033V28.0266C125.519 28.7603 124.814 29.3552 123.922 29.8113C123.049 30.2476 122.078 30.4656 121.007 30.4656C119.738 30.4656 118.617 30.188 117.646 29.6328C116.674 29.0577 115.92 28.2348 115.385 27.164C114.85 26.0932 114.582 24.834 114.582 23.3864V13.6896H119.639V22.7023C119.639 23.8128 119.926 24.6753 120.501 25.29C121.077 25.9048 121.85 26.2122 122.821 26.2122C123.813 26.2122 124.596 25.9048 125.171 25.29C125.746 24.6753 126.033 23.8128 126.033 22.7023V13.6896H131.12ZM144.024 25.9742V30.2872H141.436C139.592 30.2872 138.155 29.841 137.123 28.9486C136.092 28.0365 135.577 26.5591 135.577 24.5167V17.9134H133.554V13.6896H135.577V9.64436H140.663V13.6896H143.995V17.9134H140.663V24.5763C140.663 25.072 140.782 25.4288 141.02 25.647C141.258 25.8652 141.655 25.9742 142.209 25.9742H144.024ZM149.416 11.9644C148.523 11.9644 147.79 11.7066 147.215 11.1911C146.659 10.6557 146.381 10.0013 146.381 9.22793C146.381 8.43474 146.659 7.78034 147.215 7.26477C147.79 6.72937 148.523 6.46167 149.416 6.46167C150.288 6.46167 151.002 6.72937 151.557 7.26477C152.132 7.78034 152.419 8.43474 152.419 9.22793C152.419 10.0013 152.132 10.6557 151.557 11.1911C151.002 11.7066 150.288 11.9644 149.416 11.9644ZM151.943 13.6896V30.2872H146.857V13.6896H151.943ZM163.958 17.9134H161.222V30.2872H156.136V17.9134H154.291V13.6896H156.136V13.2137C156.136 11.1712 156.72 9.62452 157.89 8.57355C159.06 7.50273 160.776 6.96733 163.036 6.96733C163.413 6.96733 163.691 6.97725 163.869 6.99707V11.3101C162.897 11.2506 162.213 11.3894 161.816 11.7265C161.42 12.0636 161.222 12.6684 161.222 13.5409V13.6896H163.958V17.9134ZM183.303 13.6896L172.892 38.1696H167.419L171.226 29.7221L164.474 13.6896H170.156L173.993 24.0706L177.8 13.6896H183.303Z" fill="black"/>
<path d="M48.2989 18.8359C47.7495 21.7201 46.1074 24.3605 43.6759 26.2701C43.5753 26.349 43.4795 26.4213 43.3868 26.4903C43.8882 27.7776 44.1425 29.1386 44.1425 30.539C44.1425 36.6943 39.1344 41.7024 32.9784 41.7024C30.5456 41.7024 28.1865 40.906 26.2551 39.4451C26.3957 39.2776 26.5324 39.106 26.6652 38.9319C27.5582 37.757 28.2548 36.4572 28.7345 35.0686C29.8819 36.1444 31.3933 36.7503 32.9777 36.7503C36.4033 36.7503 39.1903 33.964 39.1903 30.539C39.1903 29.2627 38.8065 28.0372 38.0811 26.9956L36.4054 24.5905L39.0568 23.3406C39.6043 23.0823 40.1286 22.7577 40.617 22.3747C43.5911 20.0398 44.4434 16.1423 42.5168 13.6866C41.5534 12.461 40.0558 11.7855 38.2992 11.7855C35.2665 11.7855 33 13.6485 31.3919 15.8131C30.7723 16.6463 30.2505 17.5243 29.8194 18.3575C29.1011 19.748 28.4828 21.3101 27.9821 22.9996C27.2099 25.6031 26.767 28.3513 26.767 30.539C26.767 31.777 26.5647 32.9946 26.1651 34.1565C25.7794 35.2795 25.2168 36.331 24.4947 37.2819C24.0287 37.8943 23.5004 38.4589 22.9247 38.9595C20.8941 40.7286 18.2939 41.7024 15.6029 41.7024C14.5705 41.7024 13.5697 41.5618 12.6201 41.2976C7.90773 39.9899 4.43868 35.662 4.43868 30.539C4.43868 29.1386 4.693 27.7776 5.19505 26.4903C5.09451 26.4161 4.99923 26.3431 4.90591 26.2695C2.47383 24.3605 0.832292 21.7201 0.282922 18.8353C-0.290762 15.8249 0.379523 12.9105 2.16958 10.6296C4.06411 8.21719 7.02125 6.83325 10.282 6.83325C13.1583 6.83325 15.8078 7.79267 18.1578 9.68392C19.8992 11.085 21.4423 12.9795 22.7519 15.3222C22.3031 16.2297 21.8838 17.1938 21.504 18.1926C21.0347 19.4248 20.6274 20.6996 20.2863 22.0039C19.8487 20.695 19.338 19.472 18.7617 18.3569C17.2122 15.359 14.4831 11.7848 10.282 11.7848C8.52544 11.7848 7.02716 12.4603 6.06445 13.6866C4.13837 16.1417 4.99068 20.0392 7.9649 22.374C8.4525 22.757 8.97756 23.0818 9.52496 23.34L12.1766 24.5899L10.5008 26.9949C9.77532 28.0372 9.39155 29.2622 9.39155 30.5383C9.39155 32.8829 10.6979 34.9287 12.6207 35.9853C13.5066 36.4723 14.5231 36.7496 15.6036 36.7496C17.4264 36.7496 19.1521 35.9486 20.3383 34.5527C21.2911 33.431 21.8155 32.0051 21.8155 30.5383C21.8155 29.4777 21.9042 27.7271 22.3254 25.4067C22.7177 23.2428 23.2993 21.1425 24.053 19.1632C24.4302 18.1735 24.8482 17.2213 25.2957 16.3348L25.3141 16.298C25.3495 16.2264 25.3857 16.1555 25.4225 16.0838C25.8982 15.1632 26.4075 14.3069 26.9491 13.5157C27.9938 11.9879 29.1571 10.7051 30.4259 9.68392C32.7752 7.79201 35.4249 6.83325 38.3018 6.83325C41.5626 6.83325 44.5197 8.21653 46.4142 10.6289L46.4688 10.6999C48.2168 12.9703 48.8667 15.8558 48.2989 18.8359Z" fill="#5600E3"/>
</g>
<defs>
<clipPath id="clip0">
<rect width="183.431" height="46" fill="white"/>
</clipPath>
</defs>
</svg>
