<svg width="38" height="37" viewBox="0 0 38 37" fill="none" xmlns="http://www.w3.org/2000/svg">
<circle cx="19" cy="18.5" r="18.5" fill="#F7F4FF"/>
<path fill-rule="evenodd" clip-rule="evenodd" d="M9.125 11.5C9.125 11.0027 9.32254 10.5258 9.67417 10.1742C10.0258 9.82254 10.5027 9.625 11 9.625H16.7325C17.2296 9.62544 17.7062 9.82327 18.0575 10.175L26.8075 18.925C27.1586 19.2766 27.3559 19.7531 27.3559 20.25C27.3559 20.7469 27.1586 21.2234 26.8075 21.575L21.0763 27.3075C20.9021 27.4817 20.6954 27.62 20.4678 27.7143C20.2402 27.8086 19.9963 27.8571 19.75 27.8571C19.5037 27.8571 19.2598 27.8086 19.0322 27.7143C18.8046 27.62 18.5979 27.4817 18.4237 27.3075L9.67375 18.5575C9.32248 18.206 9.12511 17.7294 9.125 17.2325V11.5ZM11 10.875C10.8342 10.875 10.6753 10.9408 10.5581 11.0581C10.4408 11.1753 10.375 11.3342 10.375 11.5V17.2325C10.375 17.3979 10.4407 17.5566 10.5575 17.6738L19.3075 26.4238C19.3656 26.482 19.4345 26.5281 19.5105 26.5596C19.5864 26.5912 19.6678 26.6074 19.75 26.6074C19.8322 26.6074 19.9136 26.5912 19.9895 26.5596C20.0655 26.5281 20.1344 26.482 20.1925 26.4238L25.9237 20.6925C25.982 20.6344 26.0281 20.5655 26.0596 20.4895C26.0911 20.4136 26.1074 20.3322 26.1074 20.25C26.1074 20.1678 26.0911 20.0864 26.0596 20.0105C26.0281 19.9345 25.982 19.8656 25.9237 19.8075L17.1737 11.0575C17.0566 10.9407 16.8979 10.875 16.7325 10.875H11Z" fill="#5600E3"/>
<path fill-rule="evenodd" clip-rule="evenodd" d="M11.625 14.625C11.625 13.962 11.8884 13.3261 12.3572 12.8572C12.8261 12.3884 13.462 12.125 14.125 12.125C14.788 12.125 15.4239 12.3884 15.8928 12.8572C16.3616 13.3261 16.625 13.962 16.625 14.625C16.625 15.288 16.3616 15.9239 15.8928 16.3928C15.4239 16.8616 14.788 17.125 14.125 17.125C13.462 17.125 12.8261 16.8616 12.3572 16.3928C11.8884 15.9239 11.625 15.288 11.625 14.625ZM14.125 13.375C13.7935 13.375 13.4755 13.5067 13.2411 13.7411C13.0067 13.9755 12.875 14.2935 12.875 14.625C12.875 14.9565 13.0067 15.2745 13.2411 15.5089C13.4755 15.7433 13.7935 15.875 14.125 15.875C14.4565 15.875 14.7745 15.7433 15.0089 15.5089C15.2433 15.2745 15.375 14.9565 15.375 14.625C15.375 14.2935 15.2433 13.9755 15.0089 13.7411C14.7745 13.5067 14.4565 13.375 14.125 13.375Z" fill="#5600E3"/>
</svg>
