<svg width="16" height="16" viewBox="0 0 16 16" fill="none" xmlns="http://www.w3.org/2000/svg">
<path d="M15.59 12.9506L3.05057 0.411137C2.50369 -0.135744 1.61706 -0.135744 1.07103 0.411137L0.410161 1.07098C-0.13672 1.61804 -0.13672 2.50467 0.410161 3.05069L12.9496 15.5902C13.4967 16.137 14.3833 16.137 14.9293 15.5902L15.5892 14.9303C16.1371 14.3843 16.1371 13.4975 15.59 12.9506Z" fill="#D32424"/>
<path d="M12.9496 0.410033L0.41016 12.9495C-0.13672 13.4964 -0.13672 14.3832 0.41016 14.9292L1.07001 15.5891C1.61706 16.1359 2.50369 16.1359 3.04971 15.5891L15.59 3.05044C16.1371 2.50356 16.1371 1.61693 15.59 1.0709L14.9302 0.411058C14.3833 -0.136848 13.4967 -0.136848 12.9496 0.410033Z" fill="#D32424"/>
</svg>
