<svg width="30" height="30" viewBox="0 0 30 30" fill="none" xmlns="http://www.w3.org/2000/svg">
<path d="M12.7538 18.0154L17.7544 15.0997L12.7538 12.1841V18.0154Z" fill="#A9B0BA"/>
<path d="M14.6595 0C6.56406 0 -0.000244141 6.56431 -0.000244141 14.6597C-0.000244141 22.7552 6.56406 29.3195 14.6595 29.3195C22.7549 29.3195 29.3192 22.7552 29.3192 14.6597C29.3192 6.56431 22.7549 0 14.6595 0ZM24.2535 15.2787C24.2535 16.875 24.1069 18.4387 23.8463 19.7906V19.8069C23.6182 20.6051 22.9993 21.2403 22.1848 21.4847C20.67 21.8919 14.6595 21.8919 14.6595 21.8919C14.6595 21.8919 8.63271 21.8919 7.13416 21.4847H7.11787C6.31973 21.2566 5.70077 20.6214 5.45644 19.7906L5.48901 19.9535C4.90262 16.8261 4.90262 13.3241 5.45644 10.3921V10.3758C5.68448 9.5777 6.30344 8.94244 7.11787 8.69811C8.63271 8.2909 14.6432 8.2909 14.6432 8.2909C14.6432 8.2909 20.67 8.2909 22.1685 8.69811H22.1848C22.983 8.92615 23.6019 9.56141 23.8463 10.3921L23.83 10.2292C24.1069 11.7441 24.2535 13.3078 24.2535 14.9041C24.2535 14.9692 24.2535 15.0344 24.2535 15.0832C24.2535 15.1647 24.2535 15.2298 24.2535 15.2787Z" fill="#A9B0BA"/>
</svg>
