<svg width="20" height="20" viewBox="0 0 20 20" fill="none" xmlns="http://www.w3.org/2000/svg">
<g clip-path="url(#clip0)">
<path fill-rule="evenodd" clip-rule="evenodd" d="M17.5 3.75H2.5C2.16848 3.75 1.85054 3.8817 1.61612 4.11612C1.3817 4.35054 1.25 4.66848 1.25 5V15C1.25 15.3315 1.3817 15.6495 1.61612 15.8839C1.85054 16.1183 2.16848 16.25 2.5 16.25H17.5C17.8315 16.25 18.1495 16.1183 18.3839 15.8839C18.6183 15.6495 18.75 15.3315 18.75 15V5C18.75 4.66848 18.6183 4.35054 18.3839 4.11612C18.1495 3.8817 17.8315 3.75 17.5 3.75ZM2.5 2.5C1.83696 2.5 1.20107 2.76339 0.732233 3.23223C0.263392 3.70107 0 4.33696 0 5L0 15C0 15.663 0.263392 16.2989 0.732233 16.7678C1.20107 17.2366 1.83696 17.5 2.5 17.5H17.5C18.163 17.5 18.7989 17.2366 19.2678 16.7678C19.7366 16.2989 20 15.663 20 15V5C20 4.33696 19.7366 3.70107 19.2678 3.23223C18.7989 2.76339 18.163 2.5 17.5 2.5H2.5Z" fill="#6C757D"/>
<path fill-rule="evenodd" clip-rule="evenodd" d="M0.0889043 5.3039C0.131081 5.23347 0.18672 5.17204 0.252644 5.12311C0.318568 5.07419 0.393485 5.03873 0.473115 5.01877C0.552745 4.9988 0.635529 4.99472 0.716737 5.00675C0.797945 5.01879 0.875987 5.0467 0.946404 5.0889L10.0002 10.5214L19.0539 5.0889C19.1243 5.04672 19.2024 5.01881 19.2836 5.00679C19.3648 4.99476 19.4476 4.99885 19.5272 5.01881C19.6068 5.03877 19.6817 5.07423 19.7476 5.12314C19.8136 5.17206 19.8692 5.23348 19.9114 5.3039C19.9536 5.37433 19.9815 5.45237 19.9935 5.53357C20.0055 5.61478 20.0015 5.69756 19.9815 5.77718C19.9615 5.85681 19.9261 5.93172 19.8772 5.99765C19.8282 6.06357 19.7668 6.11922 19.6964 6.1614L10.0002 11.9789L0.303904 6.16265C0.233472 6.12048 0.172039 6.06484 0.123114 5.99891C0.0741886 5.93299 0.0387307 5.85807 0.0187651 5.77844C-0.00120054 5.69881 -0.0052826 5.61603 0.00675208 5.53482C0.0187868 5.45361 0.0467024 5.37557 0.0889043 5.30515V5.3039Z" fill="#6C757D"/>
<path d="M8.44055 11.1645L8.98055 10.8495L8.35055 9.76953L7.81055 10.0845L8.44055 11.1645ZM0.940547 15.5395L8.44055 11.1645L7.81055 10.0845L0.310547 14.4595L0.940547 15.5395ZM11.5605 11.1645L11.0205 10.8495L11.6505 9.76953L12.1905 10.0845L11.5605 11.1645ZM19.0605 15.5395L11.5605 11.1645L12.1905 10.0845L19.6905 14.4595L19.0605 15.5395Z" fill="#6C757D"/>
</g>
<defs>
<clipPath id="clip0">
<rect width="20" height="20" fill="white"/>
</clipPath>
</defs>
</svg>
