<svg width="37" height="32" viewBox="0 0 37 32" fill="none" xmlns="http://www.w3.org/2000/svg">
<path fill-rule="evenodd" clip-rule="evenodd" d="M18.7308 0.660959C18.9397 0.451444 19.1878 0.285216 19.4609 0.171798C19.734 0.0583792 20.0268 0 20.3226 0C20.6183 0 20.9111 0.0583792 21.1842 0.171798C21.4574 0.285216 21.7055 0.451444 21.9143 0.660959L35.4037 14.1597C35.6131 14.3687 35.7792 14.6169 35.8925 14.8903C36.0059 15.1636 36.0642 15.4566 36.0642 15.7525C36.0642 16.0485 36.0059 16.3415 35.8925 16.6148C35.7792 16.8881 35.6131 17.1364 35.4037 17.3454L21.9143 30.8441C21.4922 31.2666 20.9196 31.5039 20.3226 31.5039C19.7255 31.5039 19.153 31.2666 18.7308 30.8441C18.3087 30.4217 18.0715 29.8487 18.0715 29.2513C18.0715 28.6538 18.3087 28.0809 18.7308 27.6584L30.633 15.7525L18.7308 3.84666C18.5214 3.63767 18.3553 3.38941 18.242 3.11608C18.1287 2.84275 18.0703 2.54973 18.0703 2.25381C18.0703 1.95788 18.1287 1.66487 18.242 1.39154C18.3553 1.11821 18.5214 0.869945 18.7308 0.660959Z" fill="#5600E3"/>
<path fill-rule="evenodd" clip-rule="evenodd" d="M0.0898438 15.7532C0.0898437 15.1565 0.326712 14.5843 0.748339 14.1624C1.16997 13.7404 1.74181 13.5034 2.33809 13.5034H31.5652C32.1615 13.5034 32.7334 13.7404 33.155 14.1624C33.5766 14.5843 33.8135 15.1565 33.8135 15.7532C33.8135 16.3498 33.5766 16.9221 33.155 17.344C32.7334 17.7659 32.1615 18.0029 31.5652 18.0029H2.33809C1.74181 18.0029 1.16997 17.7659 0.748339 17.344C0.326712 16.9221 0.0898437 16.3498 0.0898438 15.7532Z" fill="#5600E3"/>
</svg>
