<svg width="14" height="13" viewBox="0 0 14 13" fill="none" xmlns="http://www.w3.org/2000/svg">
<path d="M0.202025 6.95045C0.0673418 7.11666 0 7.34935 0 7.58205C0.0336709 7.81474 0.134684 8.04744 0.303038 8.18041L4.74759 11.9368C4.91595 12.0697 5.11797 12.1362 5.32 12.1362C5.35367 12.1362 5.38734 12.1362 5.38734 12.1362C5.62304 12.103 5.85873 12.0033 5.99342 11.8038L13.6367 2.72869C13.8051 2.52923 13.8724 2.32978 13.8387 2.06384C13.8051 1.83115 13.704 1.59845 13.502 1.46548L12.1215 0.335246C11.7511 0.0360657 11.1787 0.0693079 10.842 0.468214L5.01696 7.48232L2.66 5.48779C2.28962 5.15537 1.71722 5.22185 1.38051 5.58752L0.202025 6.95045Z" fill="#6C757D"/>
</svg>
