<svg width="16" height="16" viewBox="0 0 16 16" fill="none" xmlns="http://www.w3.org/2000/svg">
<path fill-rule="evenodd" clip-rule="evenodd" d="M14.25 15.5C14.25 15.5 15.5 15.5 15.5 14.25C15.5 13 14.25 9.25 8 9.25C1.75 9.25 0.5 13 0.5 14.25C0.5 15.5 1.75 15.5 1.75 15.5H14.25ZM1.75625 14.32V14.3175V14.32ZM1.7775 14.25H14.2225C14.2284 14.2493 14.2342 14.2485 14.24 14.2475L14.25 14.245C14.2487 13.9375 14.0575 13.0125 13.21 12.165C12.395 11.35 10.8612 10.5 8 10.5C5.1375 10.5 3.605 11.35 2.79 12.165C1.9425 13.0125 1.7525 13.9375 1.75 14.245C1.75915 14.2468 1.76832 14.2484 1.7775 14.25ZM14.245 14.32V14.3175V14.32ZM8 6.75C8.66304 6.75 9.29893 6.48661 9.76777 6.01777C10.2366 5.54893 10.5 4.91304 10.5 4.25C10.5 3.58696 10.2366 2.95107 9.76777 2.48223C9.29893 2.01339 8.66304 1.75 8 1.75C7.33696 1.75 6.70107 2.01339 6.23223 2.48223C5.76339 2.95107 5.5 3.58696 5.5 4.25C5.5 4.91304 5.76339 5.54893 6.23223 6.01777C6.70107 6.48661 7.33696 6.75 8 6.75ZM11.75 4.25C11.75 5.24456 11.3549 6.19839 10.6517 6.90165C9.94839 7.60491 8.99456 8 8 8C7.00544 8 6.05161 7.60491 5.34835 6.90165C4.64509 6.19839 4.25 5.24456 4.25 4.25C4.25 3.25544 4.64509 2.30161 5.34835 1.59835C6.05161 0.895088 7.00544 0.5 8 0.5C8.99456 0.5 9.94839 0.895088 10.6517 1.59835C11.3549 2.30161 11.75 3.25544 11.75 4.25Z" fill="#6C757D"/>
</svg>
