<svg width="29" height="30" viewBox="0 0 29 30" fill="none" xmlns="http://www.w3.org/2000/svg">
<path d="M14.3601 0C6.43015 0 0 6.60394 0 14.7483C0 22.8926 6.43015 29.4965 14.3601 29.4965C22.2901 29.4965 28.7203 22.8926 28.7203 14.7483C28.7203 6.60394 22.2901 0 14.3601 0ZM20.8701 11.7658C20.8701 11.9133 20.886 12.0608 20.886 12.2083C20.886 16.7638 17.5034 22.0241 11.3286 22.0241C9.42982 22.0241 7.65874 21.4669 6.17486 20.4673C6.44611 20.5001 6.7014 20.5165 6.97265 20.5165C8.53631 20.5165 9.98828 19.9593 11.1371 19.0416C9.66916 19.0089 8.42461 18.0093 7.99381 16.6328C8.20123 16.6819 8.40866 16.6983 8.63204 16.6983C8.9352 16.6983 9.23836 16.6655 9.5096 16.5836C7.97785 16.2559 6.81309 14.863 6.81309 13.1915C6.81309 13.1751 6.81309 13.1587 6.81309 13.1587C7.25985 13.4045 7.78639 13.5684 8.32888 13.5848C7.43536 12.9785 6.82904 11.9133 6.82904 10.7171C6.82904 10.078 7.00456 9.48804 7.29176 8.98005C8.95115 11.0776 11.4243 12.4541 14.2165 12.5852C14.1687 12.3394 14.1368 12.0772 14.1368 11.7986C14.1368 9.89772 15.6366 8.34096 17.4875 8.34096C18.4448 8.34096 19.3224 8.75063 19.9446 9.43888C20.7105 9.27501 21.4285 8.99643 22.0827 8.60315C21.8274 9.40611 21.3009 10.078 20.5988 10.504C21.269 10.4221 21.9231 10.2255 22.5295 9.96326C22.0987 10.6679 21.5402 11.2742 20.8701 11.7658Z" fill="#A9B0BA"/>
</svg>
