<svg width="15" height="13" viewBox="0 0 15 13" fill="none" xmlns="http://www.w3.org/2000/svg">
<path fill-rule="evenodd" clip-rule="evenodd" d="M8.01606 0.408333C8.10018 0.323937 8.20012 0.256979 8.31014 0.211292C8.42017 0.165606 8.53812 0.14209 8.65724 0.14209C8.77636 0.14209 8.89431 0.165606 9.00433 0.211292C9.11436 0.256979 9.21429 0.323937 9.29842 0.408333L14.7321 5.8458C14.8165 5.92998 14.8834 6.02999 14.929 6.14009C14.9747 6.25019 14.9982 6.36822 14.9982 6.48742C14.9982 6.60662 14.9747 6.72465 14.929 6.83475C14.8834 6.94485 14.8165 7.04486 14.7321 7.12904L9.29842 12.5665C9.12837 12.7367 8.89773 12.8323 8.65724 12.8323C8.41675 12.8323 8.18611 12.7367 8.01606 12.5665C7.84601 12.3963 7.75047 12.1655 7.75047 11.9249C7.75047 11.6842 7.84601 11.4534 8.01606 11.2833L12.8104 6.48742L8.01606 1.69158C7.93172 1.60739 7.86481 1.50739 7.81916 1.39729C7.7735 1.28719 7.75 1.16916 7.75 1.04995C7.75 0.930751 7.7735 0.81272 7.81916 0.70262C7.86481 0.59252 7.93172 0.492515 8.01606 0.408333Z" fill="#5600E3"/>
<path fill-rule="evenodd" clip-rule="evenodd" d="M0.507812 6.48779C0.507812 6.24744 0.603226 6.01693 0.773062 5.84698C0.942899 5.67702 1.17325 5.58154 1.41343 5.58154H13.1865C13.4267 5.58154 13.657 5.67702 13.8269 5.84698C13.9967 6.01693 14.0921 6.24744 14.0921 6.48779C14.0921 6.72815 13.9967 6.95865 13.8269 7.12861C13.657 7.29856 13.4267 7.39404 13.1865 7.39404H1.41343C1.17325 7.39404 0.942899 7.29856 0.773062 7.12861C0.603226 6.95865 0.507812 6.72815 0.507812 6.48779Z" fill="#5600E3"/>
</svg>
