<svg width="17" height="16" viewBox="0 0 17 16" fill="none" xmlns="http://www.w3.org/2000/svg">
<path fill-rule="evenodd" clip-rule="evenodd" d="M8.35443 11.2001C8.14982 11.2001 7.9452 11.1217 7.78934 10.9657L3.79298 6.96565C3.48046 6.65285 3.48046 6.14725 3.79298 5.83445C4.1055 5.52165 4.61064 5.52165 4.92315 5.83445L8.35443 9.26885L11.7857 5.83445C12.0982 5.52165 12.6034 5.52165 12.9159 5.83445C13.2284 6.14725 13.2284 6.65285 12.9159 6.96565L8.91952 10.9657C8.76366 11.1217 8.55904 11.2001 8.35443 11.2001Z" fill="#212529"/>
<mask id="mask0" mask-type="alpha" maskUnits="userSpaceOnUse" x="3" y="5" width="11" height="7">
<path fill-rule="evenodd" clip-rule="evenodd" d="M8.35443 11.2001C8.14982 11.2001 7.9452 11.1217 7.78934 10.9657L3.79298 6.96565C3.48046 6.65285 3.48046 6.14725 3.79298 5.83445C4.1055 5.52165 4.61064 5.52165 4.92315 5.83445L8.35443 9.26885L11.7857 5.83445C12.0982 5.52165 12.6034 5.52165 12.9159 5.83445C13.2284 6.14725 13.2284 6.65285 12.9159 6.96565L8.91952 10.9657C8.76366 11.1217 8.55904 11.2001 8.35443 11.2001Z" fill="white"/>
</mask>
<g mask="url(#mask0)">
</g>
</svg>
