<svg width="25" height="25" viewBox="0 0 25 25" fill="none" xmlns="http://www.w3.org/2000/svg">
<path fill-rule="evenodd" clip-rule="evenodd" d="M7.469 2.59583C7.53867 2.52598 7.62143 2.47057 7.71255 2.43276C7.80366 2.39495 7.90135 2.37549 8 2.37549C8.09865 2.37549 8.19633 2.39495 8.28745 2.43276C8.37857 2.47057 8.46133 2.52598 8.531 2.59583L17.531 11.5958C17.6008 11.6655 17.6563 11.7483 17.6941 11.8394C17.7319 11.9305 17.7513 12.0282 17.7513 12.1268C17.7513 12.2255 17.7319 12.3232 17.6941 12.4143C17.6563 12.5054 17.6008 12.5882 17.531 12.6578L8.531 21.6578C8.39017 21.7987 8.19916 21.8778 8 21.8778C7.80083 21.8778 7.60983 21.7987 7.469 21.6578C7.32817 21.517 7.24905 21.326 7.24905 21.1268C7.24905 20.9277 7.32817 20.7367 7.469 20.5958L15.9395 12.1268L7.469 3.65783C7.39915 3.58816 7.34374 3.5054 7.30593 3.41428C7.26812 3.32316 7.24866 3.22548 7.24866 3.12683C7.24866 3.02818 7.26812 2.9305 7.30593 2.83938C7.34374 2.74826 7.39915 2.6655 7.469 2.59583Z" fill="#444444"/>
</svg>
