<svg width="16" height="18" viewBox="0 0 16 18" fill="none" xmlns="http://www.w3.org/2000/svg">
<g clip-path="url(#clip0)">
<path d="M14.4608 2.26168H12.5605V0.205607C12.5605 0.0934579 12.4655 0 12.3515 0H10.4323C10.3182 0 10.2232 0.0934579 10.2232 0.205607V2.28037H5.75768V0.205607C5.75768 0.0934579 5.66267 0 5.54865 0H3.62941C3.5154 0 3.42039 0.0934579 3.42039 0.205607V2.28037H1.52015C0.665043 2.28037 -0.019043 2.97196 -0.019043 3.79439V16.486C-0.019043 17.3271 0.684045 18 1.52015 18H14.4228C15.2779 18 15.962 17.3084 15.962 16.486V3.7757C16 2.95327 15.2969 2.26168 14.4608 2.26168ZM14.2897 16.2991H1.71017V5.62617H14.2897V16.2991Z" fill="#6C757D"/>
<path d="M3.57247 10.1309H5.51071C5.58672 10.1309 5.64373 10.0748 5.64373 10V8.09349C5.64373 8.01872 5.58672 7.96265 5.51071 7.96265H3.57247C3.49646 7.96265 3.43945 8.01872 3.43945 8.09349V10C3.43945 10.0748 3.49646 10.1309 3.57247 10.1309Z" fill="#6C757D"/>
<path d="M6.99288 10.1309H8.93112C9.00713 10.1309 9.06414 10.0748 9.06414 10V8.09349C9.06414 8.01872 9.00713 7.96265 8.93112 7.96265H6.99288C6.91687 7.96265 6.85986 8.01872 6.85986 8.09349V10C6.85986 10.0748 6.91687 10.1309 6.99288 10.1309Z" fill="#6C757D"/>
<path d="M10.4133 10.1309H12.3515C12.4275 10.1309 12.4845 10.0748 12.4845 10V8.09349C12.4845 8.01872 12.4275 7.96265 12.3515 7.96265H10.4133C10.3373 7.96265 10.2803 8.01872 10.2803 8.09349V10C10.2803 10.0748 10.3373 10.1309 10.4133 10.1309Z" fill="#6C757D"/>
<path d="M3.57247 13.4954H5.51071C5.58672 13.4954 5.64373 13.4393 5.64373 13.3645V11.458C5.64373 11.3832 5.58672 11.3271 5.51071 11.3271H3.57247C3.49646 11.3271 3.43945 11.3832 3.43945 11.458V13.3645C3.43945 13.4393 3.49646 13.4954 3.57247 13.4954Z" fill="#6C757D"/>
<path d="M6.99288 13.4954H8.93112C9.00713 13.4954 9.06414 13.4393 9.06414 13.3645V11.458C9.06414 11.3832 9.00713 11.3271 8.93112 11.3271H6.99288C6.91687 11.3271 6.85986 11.3832 6.85986 11.458V13.3645C6.85986 13.4393 6.91687 13.4954 6.99288 13.4954Z" fill="#6C757D"/>
<path d="M10.4133 13.4954H12.3515C12.4275 13.4954 12.4845 13.4393 12.4845 13.3645V11.458C12.4845 11.3832 12.4275 11.3271 12.3515 11.3271H10.4133C10.3373 11.3271 10.2803 11.3832 10.2803 11.458V13.3645C10.2803 13.4393 10.3373 13.4954 10.4133 13.4954Z" fill="#6C757D"/>
</g>
<defs>
<clipPath id="clip0">
<rect width="16" height="18" fill="white"/>
</clipPath>
</defs>
</svg>
