<svg width="25" height="24" viewBox="0 0 25 24" fill="none" xmlns="http://www.w3.org/2000/svg">
<path fill-rule="evenodd" clip-rule="evenodd" d="M4.37891 17.25C4.37891 17.0511 4.45792 16.8603 4.59858 16.7197C4.73923 16.579 4.92999 16.5 5.12891 16.5H20.1289C20.3278 16.5 20.5186 16.579 20.6592 16.7197C20.7999 16.8603 20.8789 17.0511 20.8789 17.25C20.8789 17.4489 20.7999 17.6397 20.6592 17.7803C20.5186 17.921 20.3278 18 20.1289 18H5.12891C4.92999 18 4.73923 17.921 4.59858 17.7803C4.45792 17.6397 4.37891 17.4489 4.37891 17.25ZM4.37891 11.25C4.37891 11.0511 4.45792 10.8603 4.59858 10.7197C4.73923 10.579 4.92999 10.5 5.12891 10.5H20.1289C20.3278 10.5 20.5186 10.579 20.6592 10.7197C20.7999 10.8603 20.8789 11.0511 20.8789 11.25C20.8789 11.4489 20.7999 11.6397 20.6592 11.7803C20.5186 11.921 20.3278 12 20.1289 12H5.12891C4.92999 12 4.73923 11.921 4.59858 11.7803C4.45792 11.6397 4.37891 11.4489 4.37891 11.25ZM4.37891 5.25C4.37891 5.05109 4.45792 4.86032 4.59858 4.71967C4.73923 4.57902 4.92999 4.5 5.12891 4.5H20.1289C20.3278 4.5 20.5186 4.57902 20.6592 4.71967C20.7999 4.86032 20.8789 5.05109 20.8789 5.25C20.8789 5.44891 20.7999 5.63968 20.6592 5.78033C20.5186 5.92098 20.3278 6 20.1289 6H5.12891C4.92999 6 4.73923 5.92098 4.59858 5.78033C4.45792 5.63968 4.37891 5.44891 4.37891 5.25Z" fill="#5600E3"/>
</svg>
