<svg width="25" height="25" viewBox="0 0 25 25" fill="none" xmlns="http://www.w3.org/2000/svg">
<path fill-rule="evenodd" clip-rule="evenodd" d="M17.531 2.59583C17.6008 2.6655 17.6563 2.74826 17.6941 2.83938C17.7319 2.9305 17.7513 3.02818 17.7513 3.12683C17.7513 3.22548 17.7319 3.32316 17.6941 3.41428C17.6563 3.5054 17.6008 3.58816 17.531 3.65783L9.0605 12.1268L17.531 20.5958C17.6718 20.7367 17.7509 20.9277 17.7509 21.1268C17.7509 21.326 17.6718 21.517 17.531 21.6578C17.3902 21.7987 17.1992 21.8778 17 21.8778C16.8008 21.8778 16.6098 21.7987 16.469 21.6578L7.469 12.6578C7.39915 12.5882 7.34374 12.5054 7.30593 12.4143C7.26812 12.3232 7.24866 12.2255 7.24866 12.1268C7.24866 12.0282 7.26812 11.9305 7.30593 11.8394C7.34374 11.7483 7.39915 11.6655 7.469 11.5958L16.469 2.59583C16.5387 2.52598 16.6214 2.47057 16.7125 2.43276C16.8037 2.39495 16.9013 2.37549 17 2.37549C17.0986 2.37549 17.1963 2.39495 17.2874 2.43276C17.3786 2.47057 17.4613 2.52598 17.531 2.59583Z" fill="#444444"/>
</svg>
