<svg width="29" height="30" viewBox="0 0 29 30" fill="none" xmlns="http://www.w3.org/2000/svg">
<path fill-rule="evenodd" clip-rule="evenodd" d="M14.7643 8.55714C14.8485 8.47274 14.9485 8.40578 15.0586 8.3601C15.1687 8.31441 15.2867 8.29089 15.4059 8.29089C15.5251 8.29089 15.6432 8.31441 15.7533 8.3601C15.8634 8.40578 15.9634 8.47274 16.0475 8.55714L21.485 13.9946C21.5694 14.0788 21.6364 14.1788 21.6821 14.2889C21.7278 14.399 21.7513 14.5171 21.7513 14.6363C21.7513 14.7555 21.7278 14.8735 21.6821 14.9836C21.6364 15.0937 21.5694 15.1937 21.485 15.2779L16.0475 20.7154C15.8774 20.8856 15.6466 20.9812 15.4059 20.9812C15.1653 20.9812 14.9345 20.8856 14.7643 20.7154C14.5941 20.5452 14.4985 20.3144 14.4985 20.0738C14.4985 19.8331 14.5941 19.6023 14.7643 19.4321L19.562 14.6363L14.7643 9.84039C14.6799 9.75621 14.6129 9.6562 14.5673 9.5461C14.5216 9.436 14.498 9.31797 14.498 9.19876C14.498 9.07956 14.5216 8.96153 14.5673 8.85143C14.6129 8.74133 14.6799 8.64132 14.7643 8.55714Z" fill="#F7F4FF"/>
<path fill-rule="evenodd" clip-rule="evenodd" d="M7.25 14.6362C7.25 14.3959 7.34548 14.1654 7.51543 13.9954C7.68539 13.8255 7.9159 13.73 8.15625 13.73H19.9375C20.1779 13.73 20.4084 13.8255 20.5783 13.9954C20.7483 14.1654 20.8438 14.3959 20.8438 14.6362C20.8438 14.8766 20.7483 15.1071 20.5783 15.277C20.4084 15.447 20.1779 15.5425 19.9375 15.5425H8.15625C7.9159 15.5425 7.68539 15.447 7.51543 15.277C7.34548 15.1071 7.25 14.8766 7.25 14.6362Z" fill="#F7F4FF"/>
</svg>
