<svg width="30" height="30" viewBox="0 0 30 30" fill="none" xmlns="http://www.w3.org/2000/svg">
<path d="M14.6599 10.3594C12.0374 10.3594 9.91992 12.4932 9.91992 15.0994C9.91992 17.7218 12.0537 19.8393 14.6599 19.8393C17.2661 19.8393 19.3999 17.7055 19.3999 15.0994C19.3999 12.4769 17.2824 10.3594 14.6599 10.3594ZM14.6599 18.2431C12.9333 18.2431 11.5162 16.8259 11.5162 15.0994C11.5162 13.3728 12.9333 11.9557 14.6599 11.9557C16.3865 11.9557 17.8036 13.3728 17.8036 15.0994C17.8036 16.8259 16.3865 18.2431 14.6599 18.2431Z" fill="#A9B0BA"/>
<path d="M19.5141 8.66602C18.7485 8.66602 18.1133 9.30127 18.1133 10.0668C18.1133 10.8324 18.7485 11.4677 19.5141 11.4677C20.2797 11.4677 20.9149 10.8324 20.9149 10.0668C20.9149 9.30127 20.296 8.66602 19.5141 8.66602ZM19.5141 10.6532C19.1883 10.6532 18.9277 10.3926 18.9277 10.0668C18.9277 9.74106 19.1883 9.48045 19.5141 9.48045C19.8399 9.48045 20.1005 9.74106 20.1005 10.0668C20.1005 10.3926 19.8399 10.6532 19.5141 10.6532Z" fill="#A9B0BA"/>
<path d="M14.6597 0C6.56431 0 0 6.56431 0 14.6597C0 22.7552 6.56431 29.3195 14.6597 29.3195C22.7552 29.3195 29.3195 22.7552 29.3195 14.6597C29.3195 6.56431 22.7552 0 14.6597 0ZM23.3416 19.0739C23.3416 21.6638 21.2403 23.7651 18.6504 23.7651H10.6853C8.09543 23.7651 5.9942 21.6638 5.9942 19.0739V11.1251C5.9942 8.53522 8.09543 6.434 10.6853 6.434H18.6342C21.224 6.434 23.3253 8.53522 23.3253 11.1251V19.0739H23.3416Z" fill="#A9B0BA"/>
</svg>
