<svg width="19" height="16" viewBox="0 0 19 16" fill="none" xmlns="http://www.w3.org/2000/svg">
<path d="M0.268613 9.06117C0.0895377 9.28216 0 9.59155 0 9.90095C0.0447689 10.2103 0.179075 10.5197 0.40292 10.6965L6.31241 15.691C6.53625 15.8678 6.80487 15.9562 7.07348 15.9562C7.11825 15.9562 7.16302 15.9562 7.16302 15.9562C7.4764 15.912 7.78978 15.7794 7.96886 15.5142L18.1314 3.44791C18.3552 3.18271 18.4448 2.91752 18.4 2.56393C18.3552 2.25454 18.2209 1.94515 17.9523 1.76835L16.1168 0.265587C15.6243 -0.132203 14.8633 -0.0880036 14.4156 0.442383L6.67056 9.76835L3.53674 7.11642C3.04428 6.67443 2.28321 6.76282 1.83552 7.24901L0.268613 9.06117Z" fill="#F6CB4D"/>
</svg>
