<svg width="13" height="18" viewBox="0 0 13 18" fill="none" xmlns="http://www.w3.org/2000/svg">
<path d="M6.5 12.375C4.54188 12.375 2.95455 10.864 2.95455 9V3.375C2.95455 1.51102 4.54188 0 6.5 0C8.45813 0 10.0455 1.51102 10.0455 3.375V9C10.0455 10.864 8.45813 12.375 6.5 12.375ZM0.59091 6.75H1.18182C1.5083 6.75 1.77273 7.00172 1.77273 7.3125V9C1.77273 11.6297 4.15446 13.7398 6.97236 13.4782C9.42832 13.25 11.2273 11.1484 11.2273 8.79961V7.3125C11.2273 7.00172 11.4917 6.75 11.8182 6.75H12.4091C12.7356 6.75 13 7.00172 13 7.3125V8.72437C13 11.8758 10.6375 14.6851 7.38636 15.1119V16.3125H9.45455C9.78102 16.3125 10.0455 16.5642 10.0455 16.875V17.4375C10.0455 17.7483 9.78102 18 9.45455 18H3.54545C3.21898 18 2.95455 17.7483 2.95455 17.4375V16.875C2.95455 16.5642 3.21898 16.3125 3.54545 16.3125H5.61364V15.1253C2.44821 14.7118 9.53674e-07 12.1254 9.53674e-07 9V7.3125C9.53674e-07 7.00172 0.264432 6.75 0.59091 6.75Z" fill="#6C757D"/>
</svg>
