<svg width="168" height="42" viewBox="0 0 168 42" fill="none" xmlns="http://www.w3.org/2000/svg">
<g clip-path="url(#clip0)">
<path d="M50.5228 31.5155V33.3044H52.4729V33.8802H50.5228V35.7228H52.7032V36.2985H49.8242V30.9397H52.7032V31.5155H50.5228ZM58.935 32.0145C59.2626 32.0145 59.5543 32.0837 59.8102 32.2218C60.0661 32.3549 60.2683 32.5571 60.4167 32.8283C60.5652 33.0997 60.6393 33.4297 60.6393 33.8188V36.2985H59.9484V33.9186C59.9484 33.4989 59.8435 33.179 59.6336 32.9589C59.4289 32.7336 59.15 32.621 58.7967 32.621C58.4334 32.621 58.1442 32.7388 57.9292 32.9742C57.7143 33.2046 57.6068 33.5398 57.6068 33.98V36.2985H56.9158V33.9186C56.9158 33.4989 56.8109 33.179 56.601 32.9589C56.3963 32.7336 56.1174 32.621 55.7642 32.621C55.4008 32.621 55.1116 32.7388 54.8967 32.9742C54.6817 33.2046 54.5742 33.5398 54.5742 33.98V36.2985H53.8756V32.0914H54.5742V32.6979C54.7123 32.4778 54.8967 32.3088 55.1269 32.1912C55.3624 32.0734 55.6208 32.0145 55.9024 32.0145C56.2555 32.0145 56.5677 32.0938 56.839 32.2525C57.1103 32.4112 57.3125 32.6441 57.4456 32.9512C57.5632 32.6543 57.7577 32.424 58.0291 32.2602C58.3003 32.0964 58.6023 32.0145 58.935 32.0145ZM62.5992 32.8667C62.7375 32.6261 62.9421 32.4265 63.2134 32.2679C63.4898 32.1041 63.8097 32.0222 64.173 32.0222C64.5468 32.0222 64.8845 32.1118 65.1866 32.291C65.4937 32.4701 65.7342 32.7234 65.9082 33.051C66.0822 33.3735 66.1692 33.7496 66.1692 34.1796C66.1692 34.6044 66.0822 34.9831 65.9082 35.3158C65.7342 35.6486 65.4937 35.907 65.1866 36.0912C64.8845 36.2755 64.5468 36.3677 64.173 36.3677C63.8148 36.3677 63.4975 36.2883 63.2211 36.1297C62.9498 35.9659 62.7425 35.7636 62.5992 35.5231V38.2947H61.9006V32.0914H62.5992V32.8667ZM65.4552 34.1796C65.4552 33.8622 65.3912 33.5859 65.2633 33.3504C65.1353 33.1149 64.9613 32.9358 64.7412 32.8129C64.5263 32.6902 64.2882 32.6287 64.0272 32.6287C63.7713 32.6287 63.5333 32.6928 63.3132 32.8206C63.0983 32.9435 62.9243 33.1252 62.7912 33.3658C62.6632 33.6012 62.5992 33.875 62.5992 34.1873C62.5992 34.5046 62.6632 34.7835 62.7912 35.0241C62.9243 35.2595 63.0983 35.4413 63.3132 35.5692C63.5333 35.692 63.7713 35.7535 64.0272 35.7535C64.2882 35.7535 64.5263 35.692 64.7412 35.5692C64.9613 35.4413 65.1353 35.2595 65.2633 35.0241C65.3912 34.7835 65.4552 34.502 65.4552 34.1796ZM69.0389 36.3677C68.6448 36.3677 68.2865 36.278 67.9641 36.0989C67.6468 35.9198 67.3959 35.6664 67.2117 35.3389C67.0326 35.0062 66.943 34.6223 66.943 34.1873C66.943 33.7573 67.0351 33.3786 67.2194 33.051C67.4087 32.7183 67.6647 32.465 67.9871 32.291C68.3095 32.1118 68.6704 32.0222 69.0696 32.0222C69.4689 32.0222 69.8297 32.1118 70.1521 32.291C70.4746 32.465 70.7279 32.7157 70.9122 33.0433C71.1016 33.3709 71.1963 33.7522 71.1963 34.1873C71.1963 34.6223 71.099 35.0062 70.9046 35.3389C70.7152 35.6664 70.4567 35.9198 70.1291 36.0989C69.8016 36.278 69.4381 36.3677 69.0389 36.3677ZM69.0389 35.7535C69.2897 35.7535 69.5251 35.6946 69.7452 35.5768C69.9653 35.4591 70.1419 35.2825 70.275 35.0472C70.4132 34.8117 70.4823 34.5251 70.4823 34.1873C70.4823 33.8494 70.4158 33.5628 70.2827 33.3273C70.1496 33.092 69.9756 32.9179 69.7606 32.8054C69.5456 32.6876 69.3127 32.6287 69.062 32.6287C68.806 32.6287 68.5706 32.6876 68.3556 32.8054C68.1458 32.9179 67.9768 33.092 67.8489 33.3273C67.721 33.5628 67.657 33.8494 67.657 34.1873C67.657 34.5302 67.7184 34.8194 67.8412 35.0548C67.9692 35.2902 68.1381 35.4668 68.348 35.5845C68.5578 35.6971 68.7882 35.7535 69.0389 35.7535ZM77.8346 32.0914L76.5218 36.2985H75.8001L74.7867 32.9589L73.7732 36.2985H73.0515L71.731 32.0914H72.445L73.4123 35.6229L74.4565 32.0914H75.1705L76.1916 35.6306L77.1436 32.0914H77.8346ZM82.4818 34.0337C82.4818 34.1668 82.4741 34.3076 82.4587 34.4559H79.096C79.1216 34.8705 79.2624 35.1956 79.5183 35.431C79.7794 35.6614 80.0942 35.7764 80.4627 35.7764C80.7646 35.7764 81.0155 35.7074 81.2151 35.5692C81.4198 35.4259 81.5631 35.2365 81.6449 35.0011H82.3974C82.2848 35.4054 82.0595 35.7356 81.7218 35.9914C81.3839 36.2423 80.9642 36.3677 80.4627 36.3677C80.0634 36.3677 79.7051 36.278 79.3879 36.0989C79.0756 35.9198 78.8299 35.6664 78.6508 35.3389C78.4717 35.0062 78.382 34.6223 78.382 34.1873C78.382 33.7522 78.469 33.3709 78.6431 33.0433C78.8171 32.7157 79.0603 32.465 79.3725 32.291C79.6898 32.1118 80.0532 32.0222 80.4627 32.0222C80.8619 32.0222 81.2151 32.1092 81.5222 32.2833C81.8293 32.4573 82.0646 32.6979 82.2285 33.005C82.3974 33.3069 82.4818 33.6498 82.4818 34.0337ZM81.7601 33.8878C81.7601 33.6216 81.7013 33.3939 81.5836 33.2046C81.4658 33.01 81.3046 32.8642 81.0999 32.7669C80.9003 32.6646 80.6776 32.6133 80.4319 32.6133C80.0788 32.6133 79.7768 32.726 79.526 32.9512C79.2804 33.1764 79.1396 33.4886 79.1037 33.8878H81.7601ZM84.2179 32.7746C84.3406 32.534 84.5147 32.3472 84.7398 32.2141C84.9702 32.0811 85.2491 32.0145 85.5767 32.0145V32.7362H85.3925C84.6094 32.7362 84.2179 33.161 84.2179 34.0107V36.2985H83.5191V32.0914H84.2179V32.7746ZM86.8592 31.408C86.7261 31.408 86.6135 31.362 86.5214 31.2699C86.4293 31.1776 86.3832 31.0651 86.3832 30.932C86.3832 30.7989 86.4293 30.6863 86.5214 30.5942C86.6135 30.5021 86.7261 30.4561 86.8592 30.4561C86.9871 30.4561 87.0946 30.5021 87.1817 30.5942C87.2738 30.6863 87.3198 30.7989 87.3198 30.932C87.3198 31.0651 87.2738 31.1776 87.1817 31.2699C87.0946 31.362 86.9871 31.408 86.8592 31.408ZM87.197 32.0914V36.2985H86.4983V32.0914H87.197ZM90.5528 32.0145C91.0646 32.0145 91.4792 32.1707 91.7966 32.4829C92.1138 32.79 92.2725 33.2352 92.2725 33.8188V36.2985H91.5816V33.9186C91.5816 33.4989 91.4767 33.179 91.2668 32.9589C91.057 32.7336 90.7703 32.621 90.4069 32.621C90.0384 32.621 89.7441 32.7362 89.524 32.9665C89.309 33.1969 89.2016 33.5321 89.2016 33.9723V36.2985H88.5029V32.0914H89.2016V32.6902C89.3398 32.4752 89.5266 32.3088 89.7621 32.1912C90.0025 32.0734 90.2662 32.0145 90.5528 32.0145ZM95.2641 32.0222C95.6274 32.0222 95.9448 32.1015 96.216 32.2602C96.4925 32.4189 96.6972 32.6185 96.8302 32.8591V32.0914H97.5365V36.3906C97.5365 36.7746 97.4547 37.1149 97.2909 37.4117C97.1271 37.7137 96.8917 37.9492 96.5846 38.1181C96.2826 38.287 95.9294 38.3715 95.5251 38.3715C94.9723 38.3715 94.5117 38.2409 94.1432 37.9799C93.7746 37.7188 93.5571 37.3632 93.4906 36.9127H94.1815C94.2582 37.1687 94.417 37.3734 94.6576 37.5269C94.8981 37.6856 95.1872 37.765 95.5251 37.765C95.9089 37.765 96.2211 37.6447 96.4617 37.4041C96.7074 37.1636 96.8302 36.8257 96.8302 36.3906V35.5078C96.6921 35.7535 96.4874 35.9582 96.216 36.122C95.9448 36.2857 95.6274 36.3677 95.2641 36.3677C94.8904 36.3677 94.5501 36.2755 94.243 36.0912C93.941 35.907 93.703 35.6486 93.529 35.3158C93.3549 34.9831 93.2679 34.6044 93.2679 34.1796C93.2679 33.7496 93.3549 33.3735 93.529 33.051C93.703 32.7234 93.941 32.4701 94.243 32.291C94.5501 32.1118 94.8904 32.0222 95.2641 32.0222ZM96.8302 34.1873C96.8302 33.8699 96.7663 33.5936 96.6383 33.3581C96.5103 33.1226 96.3363 32.9435 96.1162 32.8206C95.9012 32.6928 95.6633 32.6287 95.4022 32.6287C95.1412 32.6287 94.9032 32.6902 94.6882 32.8129C94.4732 32.9358 94.3018 33.1149 94.1738 33.3504C94.0458 33.5859 93.9819 33.8622 93.9819 34.1796C93.9819 34.502 94.0458 34.7835 94.1738 35.0241C94.3018 35.2595 94.4732 35.4413 94.6882 35.5692C94.9032 35.692 95.1412 35.7535 95.4022 35.7535C95.6633 35.7535 95.9012 35.692 96.1162 35.5692C96.3363 35.4413 96.5103 35.2595 96.6383 35.0241C96.7663 34.7835 96.8302 34.5046 96.8302 34.1873ZM101.693 31.5155V33.3044H103.643V33.8802H101.693V35.7228H103.873V36.2985H100.994V30.9397H103.873V31.5155H101.693ZM104.785 34.1873C104.785 33.7522 104.871 33.3735 105.046 33.051C105.22 32.7234 105.46 32.4701 105.767 32.291C106.079 32.1118 106.435 32.0222 106.834 32.0222C107.352 32.0222 107.776 32.1476 108.109 32.3984C108.447 32.6492 108.669 32.9973 108.777 33.4425H108.024C107.953 33.1867 107.812 32.9845 107.602 32.836C107.398 32.6876 107.142 32.6133 106.834 32.6133C106.435 32.6133 106.113 32.7516 105.867 33.0279C105.622 33.2993 105.498 33.6857 105.498 34.1873C105.498 34.694 105.622 35.0855 105.867 35.3619C106.113 35.6383 106.435 35.7764 106.834 35.7764C107.142 35.7764 107.398 35.7048 107.602 35.5615C107.807 35.4182 107.948 35.2135 108.024 34.9474H108.777C108.664 35.3772 108.439 35.7228 108.101 35.9837C107.764 36.2397 107.341 36.3677 106.834 36.3677C106.435 36.3677 106.079 36.278 105.767 36.0989C105.46 35.9198 105.22 35.6664 105.046 35.3389C104.871 35.0113 104.785 34.6275 104.785 34.1873ZM111.659 36.3677C111.265 36.3677 110.907 36.278 110.584 36.0989C110.267 35.9198 110.016 35.6664 109.832 35.3389C109.652 35.0062 109.563 34.6223 109.563 34.1873C109.563 33.7573 109.656 33.3786 109.84 33.051C110.029 32.7183 110.285 32.465 110.608 32.291C110.93 32.1118 111.291 32.0222 111.69 32.0222C112.089 32.0222 112.45 32.1118 112.772 32.291C113.095 32.465 113.348 32.7157 113.532 33.0433C113.721 33.3709 113.816 33.7522 113.816 34.1873C113.816 34.6223 113.719 35.0062 113.525 35.3389C113.336 35.6664 113.077 35.9198 112.749 36.0989C112.422 36.278 112.058 36.3677 111.659 36.3677ZM111.659 35.7535C111.911 35.7535 112.145 35.6946 112.366 35.5768C112.585 35.4591 112.762 35.2825 112.895 35.0472C113.033 34.8117 113.103 34.5251 113.103 34.1873C113.103 33.8494 113.036 33.5628 112.903 33.3273C112.77 33.092 112.596 32.9179 112.38 32.8054C112.166 32.6876 111.933 32.6287 111.682 32.6287C111.426 32.6287 111.191 32.6876 110.976 32.8054C110.766 32.9179 110.597 33.092 110.47 33.3273C110.342 33.5628 110.277 33.8494 110.277 34.1873C110.277 34.5302 110.339 34.8194 110.461 35.0548C110.589 35.2902 110.759 35.4668 110.969 35.5845C111.178 35.6971 111.408 35.7535 111.659 35.7535ZM119.91 32.0145C120.238 32.0145 120.529 32.0837 120.785 32.2218C121.041 32.3549 121.243 32.5571 121.392 32.8283C121.54 33.0997 121.614 33.4297 121.614 33.8188V36.2985H120.923V33.9186C120.923 33.4989 120.818 33.179 120.609 32.9589C120.404 32.7336 120.124 32.621 119.772 32.621C119.408 32.621 119.119 32.7388 118.904 32.9742C118.689 33.2046 118.582 33.5398 118.582 33.98V36.2985H117.89V33.9186C117.89 33.4989 117.785 33.179 117.576 32.9589C117.372 32.7336 117.092 32.621 116.739 32.621C116.376 32.621 116.087 32.7388 115.871 32.9742C115.656 33.2046 115.549 33.5398 115.549 33.98V36.2985H114.851V32.0914H115.549V32.6979C115.687 32.4778 115.871 32.3088 116.102 32.1912C116.337 32.0734 116.596 32.0145 116.877 32.0145C117.23 32.0145 117.543 32.0938 117.813 32.2525C118.085 32.4112 118.287 32.6441 118.421 32.9512C118.538 32.6543 118.732 32.424 119.004 32.2602C119.275 32.0964 119.578 32.0145 119.91 32.0145ZM127.935 32.0145C128.262 32.0145 128.555 32.0837 128.81 32.2218C129.066 32.3549 129.268 32.5571 129.416 32.8283C129.565 33.0997 129.639 33.4297 129.639 33.8188V36.2985H128.949V33.9186C128.949 33.4989 128.844 33.179 128.634 32.9589C128.429 32.7336 128.15 32.621 127.797 32.621C127.433 32.621 127.144 32.7388 126.929 32.9742C126.714 33.2046 126.606 33.5398 126.606 33.98V36.2985H125.916V33.9186C125.916 33.4989 125.811 33.179 125.601 32.9589C125.396 32.7336 125.118 32.621 124.764 32.621C124.4 32.621 124.111 32.7388 123.896 32.9742C123.682 33.2046 123.574 33.5398 123.574 33.98V36.2985H122.875V32.0914H123.574V32.6979C123.712 32.4778 123.896 32.3088 124.127 32.1912C124.362 32.0734 124.621 32.0145 124.902 32.0145C125.255 32.0145 125.568 32.0938 125.839 32.2525C126.11 32.4112 126.312 32.6441 126.445 32.9512C126.563 32.6543 126.757 32.424 127.028 32.2602C127.3 32.0964 127.602 32.0145 127.935 32.0145ZM134.739 34.0337C134.739 34.1668 134.732 34.3076 134.716 34.4559H131.353C131.379 34.8705 131.52 35.1956 131.775 35.431C132.036 35.6614 132.351 35.7764 132.72 35.7764C133.022 35.7764 133.272 35.7074 133.472 35.5692C133.677 35.4259 133.82 35.2365 133.902 35.0011H134.655C134.542 35.4054 134.317 35.7356 133.979 35.9914C133.641 36.2423 133.221 36.3677 132.72 36.3677C132.321 36.3677 131.962 36.278 131.645 36.0989C131.332 35.9198 131.087 35.6664 130.908 35.3389C130.729 35.0062 130.639 34.6223 130.639 34.1873C130.639 33.7522 130.726 33.3709 130.9 33.0433C131.075 32.7157 131.318 32.465 131.63 32.291C131.947 32.1118 132.311 32.0222 132.72 32.0222C133.119 32.0222 133.472 32.1092 133.78 32.2833C134.086 32.4573 134.322 32.6979 134.486 33.005C134.655 33.3069 134.739 33.6498 134.739 34.0337ZM134.018 33.8878C134.018 33.6216 133.958 33.3939 133.841 33.2046C133.723 33.01 133.562 32.8642 133.358 32.7669C133.158 32.6646 132.934 32.6133 132.689 32.6133C132.336 32.6133 132.034 32.726 131.784 32.9512C131.537 33.1764 131.397 33.4886 131.361 33.8878H134.018ZM136.475 32.7746C136.598 32.534 136.772 32.3472 136.997 32.2141C137.228 32.0811 137.507 32.0145 137.834 32.0145V32.7362H137.65C136.866 32.7362 136.475 33.161 136.475 34.0107V36.2985H135.777V32.0914H136.475V32.7746ZM138.494 34.1873C138.494 33.7522 138.582 33.3735 138.755 33.051C138.93 32.7234 139.17 32.4701 139.478 32.291C139.79 32.1118 140.145 32.0222 140.544 32.0222C141.061 32.0222 141.486 32.1476 141.819 32.3984C142.157 32.6492 142.379 32.9973 142.487 33.4425H141.735C141.663 33.1867 141.523 32.9845 141.313 32.836C141.108 32.6876 140.852 32.6133 140.544 32.6133C140.145 32.6133 139.823 32.7516 139.577 33.0279C139.331 33.2993 139.208 33.6857 139.208 34.1873C139.208 34.694 139.331 35.0855 139.577 35.3619C139.823 35.6383 140.145 35.7764 140.544 35.7764C140.852 35.7764 141.108 35.7048 141.313 35.5615C141.517 35.4182 141.658 35.2135 141.735 34.9474H142.487C142.374 35.3772 142.149 35.7228 141.812 35.9837C141.474 36.2397 141.052 36.3677 140.544 36.3677C140.145 36.3677 139.79 36.278 139.478 36.0989C139.17 35.9198 138.93 35.6664 138.755 35.3389C138.582 35.0113 138.494 34.6275 138.494 34.1873ZM147.373 34.0337C147.373 34.1668 147.365 34.3076 147.35 34.4559H143.987C144.012 34.8705 144.154 35.1956 144.41 35.431C144.671 35.6614 144.986 35.7764 145.354 35.7764C145.656 35.7764 145.907 35.7074 146.106 35.5692C146.311 35.4259 146.454 35.2365 146.537 35.0011H147.288C147.176 35.4054 146.95 35.7356 146.612 35.9914C146.276 36.2423 145.856 36.3677 145.354 36.3677C144.954 36.3677 144.597 36.278 144.279 36.0989C143.967 35.9198 143.721 35.6664 143.541 35.3389C143.363 35.0062 143.273 34.6223 143.273 34.1873C143.273 33.7522 143.361 33.3709 143.534 33.0433C143.708 32.7157 143.951 32.465 144.264 32.291C144.581 32.1118 144.944 32.0222 145.354 32.0222C145.753 32.0222 146.106 32.1092 146.413 32.2833C146.721 32.4573 146.956 32.6979 147.12 33.005C147.288 33.3069 147.373 33.6498 147.373 34.0337ZM146.651 33.8878C146.651 33.6216 146.593 33.3939 146.475 33.2046C146.357 33.01 146.196 32.8642 145.991 32.7669C145.791 32.6646 145.569 32.6133 145.323 32.6133C144.97 32.6133 144.668 32.726 144.417 32.9512C144.172 33.1764 144.031 33.4886 143.995 33.8878H146.651Z" fill="white"/>
<path d="M56.9962 8.58808C59.0059 8.58808 60.7621 8.98639 62.2648 9.78304C63.7676 10.5796 64.9264 11.7022 65.7412 13.1507C66.574 14.581 66.9905 16.2377 66.9905 18.1206C66.9905 19.9855 66.574 21.6422 65.7412 23.0905C64.9264 24.539 63.7585 25.6616 62.2377 26.4582C60.7349 27.2549 58.9878 27.6532 56.9962 27.6532H49.8535V8.58808H56.9962ZM56.6974 23.6337C58.4536 23.6337 59.8206 23.154 60.7984 22.1943C61.776 21.2347 62.2648 19.8768 62.2648 18.1206C62.2648 16.3644 61.776 14.9974 60.7984 14.0197C59.8206 13.042 58.4536 12.5532 56.6974 12.5532H54.4976V23.6337H56.6974ZM83.8709 19.8316C83.8709 20.2661 83.8438 20.7188 83.7895 21.1895H73.2792C73.3517 22.131 73.6504 22.8552 74.1755 23.3622C74.7187 23.851 75.3794 24.0954 76.158 24.0954C77.3167 24.0954 78.1224 23.6066 78.5751 22.6289H83.5179C83.2644 23.6247 82.8027 24.5209 82.1328 25.3176C81.481 26.1142 80.6572 26.7388 79.6615 27.1915C78.6656 27.6441 77.5521 27.8704 76.321 27.8704C74.8363 27.8704 73.5146 27.5536 72.3558 26.9199C71.1971 26.2862 70.2918 25.3809 69.64 24.2041C68.9883 23.0272 68.6623 21.6512 68.6623 20.076C68.6623 18.5008 68.9792 17.1248 69.6129 15.9479C70.2647 14.7711 71.17 13.8658 72.3287 13.2321C73.4875 12.5984 74.8181 12.2816 76.321 12.2816C77.7875 12.2816 79.0911 12.5894 80.2318 13.205C81.3723 13.8206 82.2595 14.6987 82.8933 15.8393C83.545 16.98 83.8709 18.3108 83.8709 19.8316ZM79.1183 18.6094C79.1183 17.8128 78.8467 17.1791 78.3035 16.7084C77.7603 16.2377 77.0814 16.0023 76.2666 16.0023C75.4881 16.0023 74.8273 16.2286 74.2841 16.6813C73.759 17.1338 73.4331 17.7766 73.3064 18.6094H79.1183ZM90.965 14.6444C91.3995 13.9383 92.0241 13.368 92.8388 12.9334C93.6536 12.4989 94.5861 12.2816 95.6362 12.2816C96.8855 12.2816 98.017 12.5984 99.0309 13.2321C100.045 13.8658 100.842 14.7711 101.421 15.9479C102.018 17.1248 102.317 18.4918 102.317 20.0489C102.317 21.6059 102.018 22.9819 101.421 24.1769C100.842 25.3538 100.045 26.2681 99.0309 26.9199C98.017 27.5536 96.8855 27.8704 95.6362 27.8704C94.5679 27.8704 93.6355 27.6622 92.8388 27.2457C92.0422 26.8113 91.4176 26.241 90.965 25.5349V27.6532H86.3209V7.55606H90.965V14.6444ZM97.5916 20.0489C97.5916 18.8901 97.2657 17.9848 96.6139 17.333C95.9802 16.6631 95.1926 16.3281 94.2512 16.3281C93.3278 16.3281 92.5402 16.6631 91.8883 17.333C91.2547 18.0029 90.9378 18.9173 90.9378 20.076C90.9378 21.2347 91.2547 22.1491 91.8883 22.819C92.5402 23.4889 93.3278 23.8239 94.2512 23.8239C95.1745 23.8239 95.9621 23.4889 96.6139 22.819C97.2657 22.131 97.5916 21.2076 97.5916 20.0489ZM119.718 12.4989V27.6532H115.073V25.5891C114.603 26.259 113.96 26.8022 113.146 27.2186C112.348 27.617 111.462 27.8161 110.484 27.8161C109.325 27.8161 108.302 27.5626 107.415 27.0557C106.528 26.5306 105.839 25.7793 105.351 24.8015C104.862 23.8239 104.618 22.6742 104.618 21.3524V12.4989H109.235V20.7278C109.235 21.7418 109.497 22.5293 110.022 23.0905C110.548 23.6518 111.254 23.9325 112.14 23.9325C113.046 23.9325 113.761 23.6518 114.286 23.0905C114.811 22.5293 115.073 21.7418 115.073 20.7278V12.4989H119.718ZM131.5 23.7152V27.6532H129.137C127.453 27.6532 126.141 27.2457 125.199 26.431C124.257 25.5982 123.787 24.2493 123.787 22.3844V16.3554H121.94V12.4989H123.787V8.80535H128.431V12.4989H131.473V16.3554H128.431V22.4388C128.431 22.8915 128.539 23.2173 128.756 23.4165C128.974 23.6156 129.337 23.7152 129.843 23.7152H131.5ZM136.422 10.9236C135.607 10.9236 134.938 10.6883 134.413 10.2176C133.906 9.72872 133.652 9.13124 133.652 8.42513C133.652 7.70091 133.906 7.10342 134.413 6.63268C134.938 6.14384 135.607 5.89941 136.422 5.89941C137.219 5.89941 137.871 6.14384 138.378 6.63268C138.903 7.10342 139.165 7.70091 139.165 8.42513C139.165 9.13124 138.903 9.72872 138.378 10.2176C137.871 10.6883 137.219 10.9236 136.422 10.9236ZM138.73 12.4989V27.6532H134.086V12.4989H138.73ZM149.7 16.3554H147.202V27.6532H142.558V16.3554H140.874V12.4989H142.558V12.0643C142.558 10.1995 143.092 8.78724 144.16 7.82765C145.228 6.84994 146.795 6.3611 148.858 6.3611C149.202 6.3611 149.456 6.37016 149.619 6.38826V10.3262C148.731 10.2719 148.107 10.3986 147.745 10.7065C147.383 11.0142 147.202 11.5664 147.202 12.3631V12.4989H149.7V16.3554ZM167.363 12.4989L157.857 34.8501H152.861L156.336 27.1372L150.171 12.4989H155.359L158.862 21.9771L162.339 12.4989H167.363Z" fill="white"/>
<path d="M44.0994 17.1982C43.5978 19.8316 42.0985 22.2424 39.8784 23.986C39.7866 24.058 39.6991 24.124 39.6144 24.187C40.0723 25.3624 40.3044 26.605 40.3044 27.8836C40.3044 33.5037 35.7318 38.0763 30.1111 38.0763C27.8899 38.0763 25.7359 37.3491 23.9725 36.0153C24.1008 35.8624 24.2257 35.7057 24.3469 35.5468C25.1623 34.474 25.7983 33.2872 26.2363 32.0194C27.2839 33.0016 28.6639 33.5548 30.1105 33.5548C33.2382 33.5548 35.7829 31.0108 35.7829 27.8836C35.7829 26.7183 35.4324 25.5994 34.7701 24.6484L33.2401 22.4524L35.661 21.3112C36.1609 21.0754 36.6396 20.779 37.0855 20.4293C39.801 18.2974 40.5792 14.7388 38.8201 12.4967C37.9405 11.3776 36.5731 10.7608 34.9693 10.7608C32.2003 10.7608 30.1309 12.4618 28.6626 14.4382C28.0969 15.199 27.6204 16.0007 27.2268 16.7614C26.571 18.031 26.0064 19.4572 25.5493 20.9998C24.8443 23.377 24.4399 25.8861 24.4399 27.8836C24.4399 29.014 24.2551 30.1258 23.8903 31.1866C23.5381 32.2119 23.0244 33.172 22.3651 34.0402C21.9397 34.5994 21.4573 35.1148 20.9317 35.5719C19.0777 37.1872 16.7035 38.0763 14.2465 38.0763C13.3039 38.0763 12.3901 37.9479 11.5231 37.7067C7.22054 36.5128 4.05314 32.5611 4.05314 27.8836C4.05314 26.605 4.28535 25.3624 4.74374 24.187C4.65194 24.1192 4.56495 24.0526 4.47974 23.9854C2.25915 22.2424 0.760356 19.8316 0.258758 17.1977C-0.265041 14.449 0.346959 11.7881 1.98136 9.70544C3.71114 7.50286 6.41114 6.23926 9.38833 6.23926C12.0145 6.23926 14.4337 7.11525 16.5793 8.84204C18.1693 10.1212 19.5782 11.8511 20.7739 13.9901C20.3641 14.8186 19.9813 15.6989 19.6345 16.6108C19.2061 17.7359 18.8341 18.8998 18.5227 20.0908C18.1231 18.8956 17.6569 17.779 17.1307 16.7608C15.7159 14.0236 13.2241 10.7602 9.38833 10.7602C7.78453 10.7602 6.41654 11.377 5.53754 12.4967C3.77895 14.7383 4.55714 18.2968 7.27273 20.4286C7.71793 20.7784 8.19734 21.0749 8.69714 21.3106L11.1182 22.4518L9.58813 24.6478C8.92573 25.5994 8.57533 26.7178 8.57533 27.883C8.57533 30.0238 9.76813 31.8916 11.5237 32.8564C12.3325 33.301 13.2607 33.5542 14.2472 33.5542C15.9115 33.5542 17.4871 32.8228 18.5702 31.5483C19.4401 30.5241 19.9189 29.2222 19.9189 27.883C19.9189 26.9146 19.9999 25.3162 20.3845 23.1976C20.7427 21.2219 21.2737 19.3042 21.9619 17.4971C22.3063 16.5934 22.6879 15.724 23.0965 14.9146L23.1133 14.881C23.1457 14.8156 23.1787 14.7508 23.2123 14.6854C23.6466 13.8448 24.1117 13.063 24.6061 12.3406C25.56 10.9457 26.6221 9.77444 27.7806 8.84204C29.9256 7.11465 32.3449 6.23926 34.9717 6.23926C37.9489 6.23926 40.6488 7.50225 42.3786 9.70484L42.4284 9.76964C44.0244 11.8427 44.6178 14.4772 44.0994 17.1982Z" fill="white"/>
</g>
<defs>
<clipPath id="clip0">
<rect width="167.48" height="42" fill="white"/>
</clipPath>
</defs>
</svg>
