<svg width="30" height="30" viewBox="0 0 30 30" fill="none" xmlns="http://www.w3.org/2000/svg">
<path d="M14.6597 0C6.56431 0 0 6.56431 0 14.6597C0 22.7552 6.56431 29.3195 14.6597 29.3195C22.7552 29.3195 29.3195 22.7552 29.3195 14.6597C29.3195 6.56431 22.7552 0 14.6597 0ZM17.9175 9.10533H16.4352C15.2624 9.10533 15.0344 9.65914 15.0344 10.4736V12.2653H17.836L17.4777 15.0832H15.0507V22.2991H12.1187V15.0995H9.708V12.2816H12.135V10.1967C12.135 7.78595 13.601 6.48286 15.7511 6.48286C16.7773 6.48286 17.6731 6.56431 17.9175 6.59688V9.10533Z" fill="#A9B0BA"/>
</svg>
