<svg xmlns="http://www.w3.org/2000/svg" viewBox="0 0 470 350" enable-background="new 0 0 470 350"><g><path fill="#E6E8F0" d="M243.99 112.09h-185.9l-1.25-79.4 189.65 2.72zM244.93 113.06l-46.61.24-46.72.15c-15.58.04-31.17.07-46.77.02l-46.73-.12h-1.25l-.02-1.24-.25-19.85-.31-19.85-.7-39.7-.02-1.31 1.32.02 47.41.58 47.41.76 47.41.77 47.41.58 1.33.02-.04 1.33-.59 19.42-.71 19.43-1.57 38.75zm-1.88-1.94l.85-37.96c.29-12.62.65-25.19 1.09-37.8l1.48 1.55-94.82-1.45-47.41-.69-47.41-.81 1.29-1.29.51 39.7c.15 13.23.4 26.47.62 39.7l-1.16-1.14 46.25-.04c15.41-.02 30.82.04 46.26.1l23.15.09 11.58.05 11.55-.01h46.17z"/><path fill="#D5DAEA" d="M66.22 74.61l3.07-3.26c1.02-1.1 2.09-2.2 3.19-3.29l3.29-3.25c1.13-1.06 2.28-2.08 3.41-3.1l2.34-2.11-.08 3.08-.16 5.96.1 5.96c.03 1.99.09 3.98.1 5.96l-.1 5.96-.05 3.01-2.12-2.08c-1.09-1.06-2.13-2.16-3.24-3.21-1.09-1.06-2.21-2.11-3.35-3.17-1.13-1.06-2.24-2.14-3.28-3.23-1.05-1.07-2.11-2.16-3.12-3.23zm2.71 0l3.23 2.7c1.07.89 2.08 1.77 3.06 2.68 1 .9 1.97 1.8 2.92 2.75.95.94 1.97 1.84 2.94 2.78l-2.39 1.02v-5.96l.15-5.96.14-5.96-.06-5.96 2 .86c-.98.96-1.95 1.91-2.95 2.84l-3.09 2.72-1.56 1.37-1.48 1.39c-.98.89-1.99 1.81-2.91 2.73zM230.52 74.61l-3.2-2.7c-1.07-.89-2.09-1.78-3.08-2.68l-2.97-2.71c-.96-.93-1.9-1.89-2.85-2.86l2.26-.97-.16 5.96.1 5.96c.03 1.99.09 3.98.1 5.96l-.1 5.96-2.17-.93c1-.92 2.05-1.81 3.03-2.75 1-.92 1.97-1.86 2.92-2.8.96-.93 1.94-1.83 2.98-2.73 1.02-.9 2.05-1.8 3.14-2.71zm2.7 0c-.98 1.08-2 2.17-3.04 3.27-1.02 1.1-2.1 2.2-3.2 3.29-1.09 1.09-2.2 2.17-3.35 3.22-1.14 1.05-2.21 2.13-3.32 3.18l-2.39 2.26v-9.24l.15-5.96.14-5.96-.06-5.96-.03-2.75 2.02 1.89c1.1 1.03 2.23 2.06 3.32 3.13l3.18 3.24 1.57 1.62 1.65 1.59 3.36 3.18z"/><path fill="#F4F6F8" d="M98.87 80.4l4.22-3.28c1.4-1.1 2.81-2.19 4.28-3.21 1.44-1.05 2.74-2.28 4.07-3.47 1.32-1.2 2.71-2.32 4.1-3.43 2.81-2.19 5.66-4.33 8.51-6.47 2.85-2.14 5.65-4.35 8.51-6.47l.05-.04c.52-.38 1.25-.28 1.64.24.06.08.11.17.14.26 1.31 3.21 2.68 6.39 3.95 9.62 1.21 3.25 2.77 6.35 4.09 9.56l2 4.8c.66 1.6 1.43 3.16 2.15 4.73l4.14 9.54-1.02-.2c1.28-1.19 2.35-2.59 3.56-3.84l3.68-3.72 7.38-7.42c1.21-1.26 2.45-2.49 3.68-3.72l3.84-3.56c1.3-1.17 2.52-2.41 3.76-3.64l3.71-3.69c.43-.43 1.14-.43 1.57 0 .08.08.14.17.19.26l.02.04c.83 1.56 1.51 3.19 2.21 4.82.71 1.62 1.53 3.18 2.31 4.77l4.89 9.4c.3.58.08 1.29-.5 1.59s-1.29.08-1.59-.5l-.01-.01-.02-.04-4.74-9.47c-.8-1.57-1.58-3.16-2.46-4.69-.86-1.55-1.74-3.08-2.46-4.7l2.42.42c-2.51 2.42-5.12 4.74-7.63 7.17l-3.78 3.62-3.89 3.51c-2.53 2.41-4.92 4.95-7.34 7.46-1.2 1.27-2.45 2.48-3.68 3.72-1.25 1.22-2.8 2.12-3.95 3.44-.36.42-.99.46-1.41.1-.11-.09-.19-.21-.25-.33l-.04-.1c-1.45-3.15-3.22-6.15-4.61-9.33-.67-1.6-1.18-3.27-1.94-4.83-.69-1.59-1.47-3.14-2.15-4.73-1.47-3.14-2.53-6.46-4.28-9.48-1.59-3.09-2.42-6.51-3.92-9.64l1.71.43c-2.81 2.19-5.9 4.02-8.67 6.27-2.79 2.21-5.5 4.53-8.24 6.81-1.38 1.13-2.76 2.26-4.21 3.29-1.44 1.05-2.92 2.05-4.27 3.22-1.32 1.2-2.71 2.31-4.1 3.43l-4.16 3.36c-.51.41-1.25.33-1.66-.18s-.33-1.25.18-1.66l.01-.01.01-.02z"/><path fill="#fff" d="M112.73 82.96c.86.46 1.76.82 2.71 1.02.95.18 1.93.25 2.93.19 2-.13 3.99-.74 5.94-1.53 3.89-1.61 7.62-4.05 11.25-6.42 1.81-1.22 3.58-2.5 5.31-3.84 1.75-1.35 3.31-2.78 5.12-4.25.91-.72 1.91-1.4 3.07-1.94 1.15-.54 2.52-.82 3.84-.68 1.33.12 2.59.62 3.65 1.28s1.96 1.46 2.8 2.28c1.66 1.65 3.03 3.43 4.44 5.12.7.85 1.4 1.67 2.12 2.45.71.79 1.44 1.54 2.23 2.18 1.56 1.3 3.3 2.1 5.17 2.02 1.88-.07 3.83-.88 5.7-1.9 1.87-1.03 3.73-2.3 5.56-3.49 1.81-1.25 3.57-2.53 5.22-3.91 3.31-2.75 6.25-5.89 8.18-9.65.34-.66 1.16-.93 1.82-.59.66.34.92 1.14.59 1.81l-.01.02c-2.09 4.18-5.23 7.77-8.79 10.63-1.78 1.44-3.65 2.72-5.53 3.95-1.9 1.2-3.76 2.36-5.76 3.52-2 1.12-4.25 2.17-6.86 2.32-1.29.07-2.64-.17-3.84-.65-1.2-.48-2.26-1.17-3.2-1.93-1.88-1.53-3.33-3.32-4.71-5.08-1.38-1.76-2.69-3.52-4.14-5.04-1.44-1.51-3.09-2.77-4.86-2.96-1.8-.26-3.57.7-5.2 2.07-1.62 1.36-3.3 2.95-5.04 4.34-1.73 1.43-3.52 2.79-5.35 4.09-1.83 1.31-3.74 2.5-5.69 3.62-1.94 1.11-3.96 2.2-6.1 3.04-1.07.43-2.17.79-3.29 1.12-1.13.31-2.3.51-3.5.61-1.2.07-2.43 0-3.64-.24-1.21-.25-2.39-.68-3.5-1.25-.66-.34-.92-1.16-.58-1.82.34-.66 1.16-.92 1.82-.58h.01l.11.07zM92.26 316.03l15.8-.3c5.25-.09 10.49-.22 15.69-.25l15.61-.11c5.21-.03 10.41-.03 15.63.04l-1.89 1.89.27-32c.07-5.33.02-10.67-.01-16l-.08-16 1.71 1.71-16 .1-8 .05-8-.03-32-.19 1.62-1.62.04 31.31c.03 5.19-.1 10.43-.15 15.66l-.24 15.74zm-2.54 2.55l-.32-16.19c-.09-5.42-.24-10.84-.26-16.31l-.09-16.4.07-16.37.01-1.87h33.87c5.33-.01 10.67 0 16 .06l16 .13 1.7.01-.01 1.67-.11 16c-.04 5.33-.09 10.67-.06 16l.1 32 .01 1.6-1.62.01c-5.43.04-10.87 0-16.3-.06l-16.27-.18c-5.4-.1-10.87-.04-16.31-.08l-8.17-.04-8.24.02z"/><path fill="#D5DAEA" d="M341.39 230.79l16.99-.23 16.9-.19c11.24-.05 22.46-.16 33.71-.05l-1.42 1.42.21-44.23c.05-7.37.01-14.74-.01-22.11l-.06-22.11 1.28 1.28-17.14.07c-5.71.04-11.43.03-17.14 0l-34.28-.14 1.22-1.22.03 43.71c.02 7.26-.07 14.57-.12 21.86l-.17 21.94zm-1.91 1.91l-.24-22.26c-.07-7.44-.18-14.87-.2-22.35l-.06-22.41.05-22.39v-1.41h35.68c11.43-.03 22.85.09 34.28.14h1.27v1.27c-.04 14.74-.17 29.49-.13 44.23l.08 44.23v1.21l-1.22.01c-5.79.03-11.58 0-17.36-.05l-17.35-.13c-5.76-.07-11.58-.03-17.37-.06l-17.43-.03z"/><path fill="#8891EA" stroke="#8891EA" stroke-width="3" stroke-linecap="round" stroke-linejoin="round" stroke-miterlimit="10" d="M126.49 96.62h218.15v185.1h-218.15z"/><path fill="#6C74C4" stroke="#6C74C4" stroke-width="3" stroke-linecap="round" stroke-linejoin="round" stroke-miterlimit="10" d="M345.64 96.62v185.1h-176.36c-2.68-8.46-3-17.67-.75-26.26.19-.71.39-1.45.63-2.16 4.08-12.9 13.94-23.88 26.39-29.26l39.12-10.55c12.19-5.29 21.86-15.77 27.06-28 5.2-12.21 6.13-26.06 3.65-39.12-2.39-12.45-7.77-24.96-4.98-37.3 1.01-4.49 3.06-8.63 5.63-12.45h79.61z"/><path fill="#F4F6F8" d="M274.74 142.52c4.17-.12 8.34-.19 12.51-.08 2.08.09 4.17.16 6.25.21 1.04.05 2.08.02 3.13 0l3.13-.06c4.17-.16 8.34-.08 12.51.05 1.04.03 2.08 0 3.13 0l3.13-.12c1.04-.05 2.08-.03 3.13-.03 1.04 0 2.08 0 3.13.03v2.7c-4.17.19-8.34.2-12.51.06-4.17.02-8.34.03-12.51-.14-2.08-.04-4.17-.16-6.25-.13l-6.25.08c-2.08.04-4.17-.09-6.25-.1-1.04-.05-2.08.05-3.13.07-1.04.03-2.08.07-3.13.17v-2.71zM274.74 156.81c3.3-.15 6.6-.17 9.9-.08 1.65.07 3.3.19 4.95.23 1.65.05 3.3-.01 4.95-.08 3.3-.16 6.6-.08 9.9.05.83.03 1.65 0 2.48 0l2.48-.12c.83-.05 1.65-.03 2.48-.03.83 0 1.65 0 2.48.03v2.7c-3.3.19-6.6.2-9.9.06-3.3.02-6.6.03-9.9-.14-1.65-.04-3.3-.16-4.95-.13l-4.95.08c-1.65.05-3.3-.1-4.95-.11-1.65 0-3.3.05-4.95.24v-2.7zM274.74 185.39c3.3-.15 6.6-.17 9.9-.08 1.65.07 3.3.19 4.95.23 1.65.05 3.3-.01 4.95-.08 3.3-.16 6.6-.08 9.9.05.83.03 1.65 0 2.48 0l2.48-.12c.83-.05 1.65-.03 2.48-.03.83 0 1.65 0 2.48.03v2.7c-3.3.19-6.6.2-9.9.06-3.3.02-6.6.03-9.9-.14-1.65-.04-3.3-.16-4.95-.13l-4.95.08c-1.65.05-3.3-.1-4.95-.11-1.65 0-3.3.05-4.95.24v-2.7zM274.74 171.1c2.87-.13 5.74-.22 8.6-.08 1.43.07 2.87.19 4.3.23 1.43.05 2.87-.01 4.3-.08 2.87-.18 5.74-.06 8.6.06.72.03 1.43 0 2.15 0l2.15-.12c.72-.05 1.43-.03 2.15-.03s1.43 0 2.15.03v2.7c-1.43.1-2.87.14-4.3.17-1.43.03-2.87-.09-4.3-.11-2.87.02-5.74.03-8.6-.14-1.43-.04-2.87-.16-4.3-.13l-4.3.08c-1.43.05-2.87-.1-4.3-.11-1.43 0-2.87.05-4.3.24v-2.71z"/><path fill="#0C1238" d="M254.8 217.95l-44.98.24-45.09.17c-15.04.02-30.08.1-45.13.05l-45.11-.11h-.01c-.72 0-1.29-.58-1.29-1.3.03-15.35.14-30.7.1-46.05l-.08-46.05c0-.71.57-1.28 1.27-1.28l44.84-.1 44.84.06 44.84.09 44.84-.04c.7 0 1.26.57 1.26 1.26.04 15.49.12 31.06.01 46.57l-.31 46.49zm-1.91-1.92l-.41-45.66c-.15-15.18-.12-30.3-.12-45.48l1.49 1.49-89.68-.08-44.84-.02-44.84-.12 1.27-1.27-.12 46.05.02 46.05-1.17-1.17 44.61-.03c14.86-.02 29.74.08 44.62.12 14.88.05 29.8.16 44.63.11l44.54.01zM254.46 126.1c-14.89 7.78-29.81 15.52-44.8 23.09l-22.52 11.32c-3.76 1.87-7.48 3.82-11.21 5.76l-11.18 5.81-11.18 5.82-5.59 2.91-5.62 2.85-22.48 11.39-11.21 5.76-11.16 5.86c-7.44 3.9-14.95 7.67-22.42 11.52l-1.23-2.4c7.45-3.88 14.87-7.82 22.35-11.65l11.22-5.73 11.25-5.69c14.94-7.68 29.87-15.39 44.9-22.9 7.49-3.8 15.02-7.53 22.48-11.4l22.38-11.58c7.45-3.87 14.99-7.6 22.46-11.42 3.76-1.88 7.45-3.88 11.18-5.81 3.72-1.94 7.44-3.9 11.13-5.91l1.25 2.4zM253.23 218.19c-15-7.57-29.98-15.18-44.87-22.96l-22.32-11.7c-3.71-1.96-7.46-3.86-11.21-5.76l-11.24-5.7-11.24-5.69-5.62-2.85-5.59-2.91-22.37-11.62-11.21-5.75-11.26-5.65c-7.5-3.78-14.95-7.67-22.42-11.51l1.23-2.4c7.5 3.79 15.02 7.53 22.49 11.37l11.2 5.78 11.17 5.83c14.95 7.67 29.91 15.31 44.77 23.15 7.46 3.87 14.87 7.82 22.36 11.62l22.46 11.44c7.49 3.8 14.91 7.75 22.37 11.6 3.72 1.96 7.49 3.79 11.24 5.7 3.75 1.9 7.5 3.78 11.29 5.61l-1.23 2.4z"/><path fill="#0C1238" stroke="#0C1238" stroke-width="2" stroke-linecap="round" stroke-linejoin="round" stroke-miterlimit="10" d="M126.49 78.91h220.5v25.94h-220.5z"/><circle fill="#fff" cx="138.54" cy="92.04" r="6.06"/><path fill="#fff" d="M151.67 85.98h12.12v12.12h-12.12zM183.98 98.1h-12.12l6.06-12.12z"/><path fill="#FFC04D" d="M145.06 240.05h138.71v57.85h-138.71zM282.5 241.32l-34.5.33c-11.49.13-22.9.15-34.34.21-11.44.06-22.86.09-34.27.01l-34.33-.17 1.66-1.66-.07 14.46c-.04 4.82.01 9.64.01 14.46l.1 28.93-1.71-1.71 34.68-.14 34.68.11 34.68.12 17.34-.02 17.34-.1-1.74 1.74-.06-14.12.11-14.11.42-28.34zm2.55-2.55l.53 29.45.18 14.83.02 14.84v2h-2c-11.56 0-23.12-.05-34.68-.12h-34.68l-34.68-.01-34.68-.18-1.69-.01.01-1.67.14-28.93c.01-4.82.07-9.64.04-14.46l-.03-14.46v-1.53h1.53l34.98-.05 17.5.01 17.47.13 17.46.12 8.72.06h8.76l35.1-.02z"/><path fill="#0C1238" d="M221.78 261.12c3.55-.17 7.1-.28 10.64-.11 1.77.07 3.55.28 5.32.31 1.77.07 3.55-.01 5.32-.1 1.77-.1 3.55-.17 5.32-.13 1.77.04 3.55.13 5.32.2.89.05 1.77 0 2.66 0l2.66-.16c.89-.07 1.77-.03 2.66-.04.89-.01 1.77 0 2.66.04v3.6c-.89.08-1.77.11-2.66.14-.89.03-1.77.09-2.66.08-.89.01-1.77-.02-2.66-.04-.89-.04-1.77-.12-2.66-.1-3.55.03-7.1.04-10.64-.19-1.77-.1-3.55-.2-5.32-.18-1.77.01-3.55.1-5.32.12-1.77.09-3.55-.13-5.32-.15-1.77 0-3.55.07-5.32.33v-3.62zM221.78 274.63c2.56-.17 5.12-.28 7.68-.11 1.28.07 2.56.28 3.84.31 1.28.07 2.56-.01 3.84-.1 1.28-.1 2.56-.17 3.84-.13 1.28.04 2.56.14 3.84.2 1.28.11 2.56-.07 3.84-.16.64-.07 1.28-.03 1.92-.04.64-.01 1.28 0 1.92.04v3.6c-.64.08-1.28.11-1.92.15-.64.03-1.28.09-1.92.08-.64.01-1.28-.02-1.92-.04-.64-.04-1.28-.12-1.92-.1-2.56.01-5.12.07-7.68-.19-1.28-.11-2.56-.2-3.84-.18-1.28-.01-2.56.12-3.84.13-1.28.07-2.56-.13-3.84-.16-1.28 0-2.56.07-3.84.33v-3.63z"/><path fill="#FFE0A9" stroke="#FFE0A9" stroke-width="2" stroke-linecap="round" stroke-linejoin="round" stroke-miterlimit="10" d="M156.85 251.84h47.16v33.02h-47.16z"/><g fill="#D5DAEA"><path d="M374.99 156.81c-12.43 0-22.5 10.42-22.5 23.28 0 12.85 22.5 38.09 22.5 38.09s22.5-25.23 22.5-38.09c0-12.86-10.07-23.28-22.5-23.28zm0 29.62c-3.96 0-7.16-3.31-7.16-7.41 0-4.09 3.2-7.41 7.16-7.41s7.16 3.31 7.16 7.41-3.2 7.41-7.16 7.41zM374.99 158.16c-6.35.04-12.47 3.22-16.32 8.21-1.93 2.49-3.32 5.4-4.06 8.46-.39 1.53-.57 3.11-.62 4.69-.07 1.54.16 3.01.57 4.56.4 1.53.97 3.06 1.62 4.56.64 1.5 1.38 2.98 2.16 4.43 1.57 2.91 3.35 5.73 5.21 8.5 1.86 2.77 3.87 5.45 5.95 8.07s4.23 5.21 6.43 7.68h-1.91c4.36-5.03 8.4-10.41 12.27-15.83 1.9-2.73 3.73-5.52 5.35-8.41.81-1.44 1.58-2.9 2.25-4.4.68-1.49 1.29-3.01 1.72-4.55.44-1.55.71-3.06.63-4.62-.06-.8-.03-1.6-.19-2.39-.12-.79-.21-1.59-.44-2.35-.78-3.09-2.22-6.01-4.19-8.49-1.99-2.47-4.48-4.52-7.31-5.94-2.81-1.41-5.96-2.17-9.12-2.18zm0-2.7c7.16-.08 14.29 3.38 18.68 9.07 2.19 2.84 3.76 6.14 4.58 9.62.24.86.34 1.75.46 2.64.16.88.13 1.78.18 2.67.07 1.83-.28 3.7-.74 5.39-.47 1.72-1.11 3.35-1.82 4.93-.7 1.59-1.49 3.12-2.32 4.62-1.66 3-3.5 5.87-5.43 8.67-1.92 2.8-3.96 5.52-6.08 8.16-2.12 2.65-4.28 5.24-6.56 7.78l-.96 1.07-.92-1.07c-4.45-5.16-8.52-10.54-12.42-16.1-1.93-2.79-3.78-5.65-5.45-8.64-.84-1.49-1.63-3.01-2.34-4.59-.72-1.57-1.36-3.19-1.83-4.89-.47-1.68-.83-3.53-.71-5.34.07-1.76.28-3.53.72-5.24.85-3.43 2.42-6.67 4.6-9.45 2.19-2.76 4.94-5.1 8.1-6.71 3.15-1.61 6.68-2.53 10.26-2.59zM374.99 187.78c-2.27.06-4.6-.87-6.18-2.54-1.57-1.66-2.5-3.95-2.41-6.21.11-4.56 3.98-8.62 8.59-8.69 2.24-.04 4.59.84 6.09 2.55 1.55 1.66 2.36 3.92 2.29 6.13-.04 1.1-.21 2.21-.61 3.24-.37 1.05-.94 2.04-1.69 2.88-1.5 1.71-3.81 2.66-6.08 2.64zm0-2.7c3.13-.12 5.65-2.93 5.75-6.05.03-3.16-2.58-6.04-5.75-6.14-1.55-.05-3.19.52-4.28 1.73-1.1 1.18-1.7 2.8-1.66 4.41.04 1.6.53 3.22 1.65 4.42 1.1 1.2 2.76 1.75 4.29 1.63z"/></g></g></svg>