<svg xmlns="http://www.w3.org/2000/svg" id="Layer_1" viewBox="0 0 1920 1080"><style>.st0{fill:#fff}.st1,.st2{fill:none;stroke:#e8eaf2;stroke-width:3;stroke-miterlimit:10}.st2{opacity:.5;fill:#e8eaf2}.st3,.st4{fill:#e0e3ed}.st4{stroke:#e0e3ed;stroke-width:2;stroke-miterlimit:10}.st5{fill:#f4f6f8}.st6,.st7{fill:#e8eaf2}.st7{stroke:#e8eaf2;stroke-width:3;stroke-miterlimit:10}.st8{fill:#7581ce}.st9{fill:#2f3155}.st10{fill:#3e4166}.st11{fill:#5053ab}.st12{fill:#0c1238}.st13{fill:none;stroke:#0c1238;stroke-miterlimit:10}.st14{fill:url(#SVGID_1_)}.st15,.st16{stroke-width:3}.st15{stroke-miterlimit:10;fill:#dda000;stroke:#dda000}.st16{fill:#ffc14d;stroke:#ffc14d}.st16,.st17,.st18{stroke-miterlimit:10}.st17{stroke-width:3;fill:#fff;stroke:#fff}.st18{fill:none;stroke:#f4f6f8}.st19{opacity:.7;fill:#e8eaf2}.st20,.st21{fill:none;stroke:#f4f6f8;stroke-width:5;stroke-miterlimit:10}.st21{opacity:.3;fill:#f4f6f8}.st22{opacity:.3;fill:#0c1238}.st23{fill:#7581ce;stroke:#7581ce;stroke-linecap:round;stroke-miterlimit:10}.st24{opacity:.3;fill:#7581ce}.st25{fill:#3e4166;stroke:#3e4166;stroke-linejoin:round;stroke-miterlimit:10}.st25,.st26{stroke-linecap:round}.st26,.st27{fill:#0c1238;stroke:#0c1238;stroke-miterlimit:10}.st28,.st29{stroke-width:3;stroke-linejoin:round}.st28{stroke-miterlimit:10;fill:#7581ce;stroke:#7581ce}.st29{fill:#5053ab;stroke:#5053ab}.st29,.st30,.st31,.st32{stroke-miterlimit:10}.st30{stroke:#a3b3ef;stroke-width:3;stroke-linejoin:round;fill:#a3b3ef}.st31,.st32{fill:none}.st31{stroke-linejoin:round;stroke:#7581ce}.st32{stroke:#1e245e;stroke-width:2;stroke-linecap:round}.st33,.st34{fill:#ffc14d}.st34{opacity:.3}.st35{fill:#1e245e}.st36,.st37{stroke:#1e245e;stroke-miterlimit:10}.st36{stroke-linecap:round;fill:none;stroke-width:9}.st37{fill:#fff;stroke-width:3}.st38,.st39,.st40{fill:none;stroke:#d0d4e5;stroke-linejoin:round;stroke-miterlimit:10}.st39,.st40{fill:#f4f6f8;stroke:#e0e3ed;stroke-width:3}.st40{stroke:#e8eaf2}.st41,.st42{stroke:#e0e3ed}.st41{stroke-miterlimit:10;fill:#e0e3ed}.st42{fill:none;stroke-width:3;stroke-linejoin:round}.st42,.st43,.st44,.st45{stroke-miterlimit:10}.st43{stroke:#e0e3ed;stroke-width:3;stroke-linejoin:round;fill:#e0e3ed}.st44,.st45{fill:none}.st44{stroke-linecap:round;stroke:#ffc14d}.st45{stroke:#e1e5f1;stroke-width:3}.st46{fill:#e1e5f1}.st47{fill:none}.st48{fill:#f4f5f8}.st49{fill:#eaebf3}.st50{fill:#eaecf5}.st51,.st52,.st53,.st54{stroke:#e1e5f1;stroke-miterlimit:10}.st51{stroke-width:3;fill:#e1e5f1}.st52,.st53,.st54{fill:none}.st53,.st54{stroke:#0c1238;stroke-width:1.2858}.st54{fill:#ffc14d;stroke:#ffc14d;stroke-width:2;stroke-linejoin:round}.st55{fill:#202e78}.st56{fill:#2d2f61}.st57{fill:#8284c3}.st58{fill:#7376bc}.st59{fill:#666ab6}.st60{fill:#2e3253}.st61{fill:#505274}.st62,.st63,.st64,.st65{fill:none;stroke:#ffc14d;stroke-width:3;stroke-miterlimit:10}.st63,.st64,.st65{stroke-width:2;stroke-linejoin:round}.st64,.st65{fill:#ffb62d;stroke:#ffb62d}.st65{fill:#f4f6f8;stroke:#3e4166;stroke-width:3;stroke-linecap:round}.st66{fill:#f4f6f8;stroke:#e0e3ed}.st66,.st67,.st68,.st69{stroke-width:3;stroke-miterlimit:10}.st67{opacity:.3;fill:#e8eaf2;stroke:#e8eaf2}.st68,.st69{fill:#e0e3ed;stroke:#e0e3ed}.st69{fill:#f4f6f8;stroke:#e8eaf2}.st70{fill:#dee4f5}.st71,.st72,.st73{fill:none;stroke:#a3b3ef;stroke-width:2;stroke-miterlimit:10}.st72,.st73{fill:#a3b3ef}.st73{fill:#7581ce;stroke:#7581ce}.st74{opacity:.3;fill:#5053ab}.st75{fill:none;stroke:#dee4f5;stroke-miterlimit:10}.st76{fill:#f3f4f7}.st77,.st78{fill:none;stroke:#ffc14d;stroke-miterlimit:10}.st78{fill:#7581ce;stroke:#7581ce;stroke-width:3}.st79{opacity:.5;fill:#e8eaf2}.st80{fill:#a3b3ef}.st81{opacity:.3;fill:#dee4f5}.st82,.st83{fill:none;stroke:#e0e3ed;stroke-miterlimit:10}.st83{stroke:#fff}.st84{fill:#b0e3e3}.st85{fill:#53c1bd}.st86{fill:none;stroke:#0c1238;stroke-width:3;stroke-miterlimit:10}.st87{fill:#fbfbfc}.st88{fill:#f4f5f8;stroke:#e1e5f1;stroke-width:3;stroke-miterlimit:10}.st89{fill:#f2f4f9}.st90,.st91,.st92{fill:#eaecf5;stroke:#eaecf5;stroke-width:3;stroke-linecap:round;stroke-miterlimit:10}.st91,.st92{fill:#f2f4f9;stroke:#f2f4f9}.st92{fill:none}.st93{opacity:.5}.st94{fill:#f4f5f8;stroke:#e1e5f1;stroke-width:3;stroke-linecap:round;stroke-miterlimit:10}</style><path class="st3" d="M190.1 874.8s27 .1 74.3.3c11.8-.1 24.9-.3 39.2-.1 7.1.1 14.5.2 22.2.2 7.7 0 15.7-.1 23.9-.1 16.5-.1 34-.3 52.5-.4 9.2-.1 18.7-.1 28.4-.2 9.7 0 19.6.1 29.8.2 5.1 0 10.2.1 15.4.1 5.2 0 10.4-.1 15.7-.1 10.5-.1 21.3-.1 32.2-.2 21.9.2 44.5.3 67.7.5 23.2 0 47.1.1 71.5-.2 6.1 0 12.2-.1 18.4 0l18.6.3c6.2.1 12.5 0 18.8-.1 6.3-.1 12.6-.1 18.9-.1 25.3.1 51.1.1 77.2.2H873.9l19.9.3c6.7.1 13.3.2 20 .2h10c3.3-.1 6.7-.1 10-.2 13.4-.3 26.8 0 40.3.1 13.5.1 27 .3 40.5.3s27-.1 40.5-.1c13.5-.1 27 0 40.5 0h40.5c13.5 0 26.9.1 40.3.1 13.4.1 26.8-.1 40.1-.2 26.6-.3 53-.5 79.1-.6 13 0 26-.1 38.9-.1 6.4 0 12.8.1 19.2.1 6.4.1 12.7.1 19.1.2 6.3.1 12.6.1 18.9.1 6.3 0 12.5-.1 18.8-.1 12.4-.1 24.8-.2 37-.3 6.1 0 12.2-.1 18.2-.1 6-.1 12-.1 18 0 11.9 0 23.7.3 35.3.1 23.2-.1 45.8-.4 67.7.1 21.9.5 43-.2 63.2.2 20.3.5 39.7-.6 58.2-.1 9.2.1 18.2.2 27 .2s17.2.1 25.5.1c8.2-.1 16.2-.1 23.9-.2 3.8 0 7.6 0 11.3-.1 3.7 0 7.3.1 10.9.1 14.3.1 27.3.3 39.2.1 11.8-.1 22.4-.2 31.6-.3 9.2 0 17 0 23.3-.1 12.7 0 19.4-.1 19.4-.1v3.2h-42.7c-9.2-.1-19.7-.1-31.6-.2-11.8-.2-24.9.1-39.2.2-3.6 0-7.2.1-10.9.1s-7.5 0-11.3-.1c-7.7-.1-15.7-.1-23.9-.2-16.5 0-34 .2-52.5.5-9.2.1-18.7.2-28.4-.2-9.7-.3-19.6-.4-29.8-.1-20.3.5-41.4-.6-63.2-.1-21.9.5-44.5.2-67.7 0-2.9 0-5.8 0-8.7-.1h-8.8c-5.9 0-11.8.1-17.8.1-6 .1-12 0-18 0s-12.1-.1-18.2-.1c-12.2-.1-24.5-.1-37-.2-6.2 0-12.5 0-18.8-.1-6.3.1-12.6.1-18.9.2-6.3.1-12.7.2-19.1.3-6.4.1-12.8.1-19.2.1h-38.9c-26.1-.1-52.5-.2-79.1-.6-26.6-.6-53.4-.1-80.4.1-26.9.2-54 .4-81 .2-13.5-.1-27-.4-40.5-.4h-10.1l-10.1.1c-6.7.1-13.5.3-20.2.4-6.7.2-13.5.2-20.2.3-3.4.1-6.7 0-10.1 0-3.4 0-6.7-.1-10.1-.3-13.4-.6-26.8-.5-40.1-.1-6.7.2-13.3.3-19.9.4H854c-13.2-.1-26.3-.2-39.3-.2-26.1 0-51.8-.1-77.2-.1-6.3 0-12.6 0-18.9-.2-6.3-.2-12.5-.3-18.8-.2l-18.6.3c-6.2.1-12.3 0-18.4-.1-24.4-.4-48.3-.4-71.5-.5-23.2 0-45.8.1-67.7.1-10.9 0-21.7 0-32.2-.1h-15.7c-5.2.1-10.3.1-15.4.2-10.1.1-20.1.2-29.8.3-9.7 0-19.2-.1-28.4-.1-18.5-.1-36-.2-52.5-.2-8.2 0-16.2-.1-23.9-.1-7.7.1-15.1.1-22.2.2-14.3.3-27.3.1-39.2 0-47.3.2-74.3.4-74.3.4v-3.1z"/><path class="st0" d="M1177.9 933c28.4 16.2 57.5 32.6 76.8 42.8-113.5 6.9-450.6 8.2-460.8 1.2-10.2-7.1 43.5-93 43.5-93s40.3.2 90.9.2"/><path class="st20" d="M983.6 877.1c3.2 22.5 19.3 43.7 32.4 65 8.8 14.2 16.4 28.7 22.8 43.4M790 926.5c157 4 298.6-1.4 455.7.2"/><path class="st6" d="M764.9 572.4s16.6.1 45.7.2c7.3-.1 15.3-.3 24.1-.1 4.4 0 8.9.1 13.7.1 4.7 0 9.6-.1 14.7-.1 10.1-.1 20.9-.2 32.3-.3 5.7 0 11.5-.1 17.5-.1s12.1.1 18.3.2c3.1 0 6.3.1 9.5.1s6.4-.1 9.6-.1c6.5-.1 13.1-.1 19.8-.2 13.4.1 27.3.2 41.6.4 14.3 0 29 .1 44-.1 7.5-.2 15.1.1 22.7.2 3.8.1 7.7 0 11.5-.1 3.9-.1 7.7-.1 11.6-.1 15.6 0 31.4.1 47.5.2h36.4c4.1.1 8.2.1 12.3.2 4.1.1 8.2.1 12.3.2 4.1 0 8.2-.1 12.3-.1l6.2-.1c2.1 0 4.1-.1 6.2 0 4.1 0 8.3.1 12.4.1 8.3.1 16.6.2 24.9.2 8.3 0 16.6-.1 24.9-.1 16.6-.1 33.3 0 49.8 0 8.3 0 16.5.1 24.8.1 8.2.1 16.5-.1 24.6-.2 16.4-.2 32.6-.3 48.7-.4 8 0 16-.1 23.9-.1 7.9 0 15.8.1 23.6.2 3.9 0 7.8.1 11.6.1 3.9 0 7.7-.1 11.5-.1 7.7-.1 15.2-.1 22.7-.2 3.8 0 7.5-.1 11.2-.1 3.7 0 7.4-.1 11.1 0 7.3 0 14.6.2 21.7.1 7.1 0 14.2-.1 21.1-.1h5.2c1.7 0 3.4.1 5.1.1 3.4.1 6.8.1 10.2.2 13.4.4 26.4-.2 38.9.2s24.4-.4 35.8-.1c11.4.2 22.2.2 32.3.2 5.1 0 10-.1 14.7-.1h7c2.3 0 4.5 0 6.7.1 8.8.1 16.8.2 24.1.1 7.3-.1 13.8-.2 19.4-.2 5.7 0 10.5 0 14.4-.1h12v2.4h-26.4c-5.7-.1-12.1-.1-19.4-.2-7.3-.1-15.3.1-24.1.2-2.2 0-4.4.1-6.7.1h-7c-4.7 0-9.6-.1-14.7-.1-10.1 0-20.9.1-32.3.3-2.8 0-5.7.1-8.6.1-2.9 0-5.9-.1-8.8-.2-3-.1-6-.2-9.1-.2-3.1 0-6.1.1-9.3.1-12.5.4-25.5-.4-38.9-.1-3.4 0-6.8.1-10.2.1-1.7 0-3.4 0-5.1.1h-5.2c-6.9-.1-14-.1-21.1-.2-7.1-.1-14.4 0-21.7.1-3.7.1-7.4 0-11.1 0-3.7 0-7.4-.1-11.2-.1-7.5 0-15.1-.1-22.7-.1-3.8 0-7.7-.1-11.5 0-3.9.1-7.7.1-11.6.2-7.8.1-15.7.3-23.6.3-7.9 0-15.9-.1-23.9-.1-16-.1-32.3 0-48.7-.4-8.2-.1-16.4-.3-24.6-.2l-24.8.3c-8.3 0-16.6.1-24.9.1-8.3 0-16.6.2-24.9 0l-12.5-.2-6.2-.1h-6.2c-4.2 0-8.3.1-12.5.1l-12.4.3c-4.1.1-8.3.2-12.4.2h-6.2c-2.1 0-4.1-.1-6.2-.2-8.2-.4-16.5-.4-24.6-.1-4.1.1-8.2.3-12.3.3h-12.2c-8.1-.1-16.2-.1-24.2-.2-16 0-31.9-.1-47.5-.1-3.9 0-7.8 0-11.6-.1-3.9-.1-7.7-.3-11.5-.1-7.7.1-15.2.3-22.7.1-15-.3-29.7-.3-44-.3s-28.2 0-41.6.1c-6.7 0-13.3 0-19.8-.1h-9.6c-3.2 0-6.3.1-9.5.1-6.2.1-12.3.1-18.3.2-6 0-11.8 0-17.5-.1-11.4-.1-22.2-.1-32.3-.2-5.1 0-10-.1-14.7 0-4.7.1-9.3.1-13.7.2-8.8.2-16.8 0-24.1 0-29.1.2-45.7.3-45.7.3v-2.9z"/><path class="st3" d="M854.6 780.5h4.7c3.1 0 7.6.1 13.4.2 1.4-.1 3-.1 4.5-.2 1.6 0 3.3 0 5 .1 1.7.1 3.5.2 5.4.2 1.9 0 3.8-.1 5.8-.1 4-.1 8.3-.2 12.8-.3 2.2 0 4.6-.1 6.9-.1 2.4 0 4.8.1 7.2.2 2.5.1 5 .1 7.6 0 2.6-.1 5.2-.2 7.8-.2 5.3.1 10.8.2 16.5.4 5.7 0 11.5.1 17.4-.2 1.5 0 3-.1 4.5 0s3 .2 4.5.2c1.5.1 3 0 4.6-.1 1.5-.1 3.1 0 4.6 0 6.2.1 12.4.1 18.8.2H1021c1.6 0 3.2.1 4.8.2 3.2.2 6.5.3 9.8 0 3.3-.2 6.5-.1 9.8 0 3.3.1 6.6.3 9.9.3 3.3 0 6.6-.1 9.9-.1 6.6-.1 13.2 0 19.7 0 3.3 0 6.5.1 9.8.1 3.3.1 6.5-.1 9.8-.2 6.5-.2 12.9-.3 19.3-.5 3.2 0 6.3-.1 9.5-.1h4.7c1.6.1 3.1.1 4.6.2 12.3.2 24.3-.7 35.6-.2 2.8 0 5.6-.1 8.4-.1 2.7 0 5.5.1 8.1.3 5.3.3 10.5-.2 15.4.1 4.9.4 9.7-.5 14.2-.1 4.5.2 8.8.2 12.8.2 2 0 3.9-.1 5.8-.1h2.8c.9 0 1.8 0 2.7.1 3.5.1 6.7.2 9.5.1 2.9-.1 5.5-.2 7.7-.2s4.1-.1 5.7-.1h4.7v2.4h-10.4c-2.2-.1-4.8-.1-7.7-.2-2.9-.1-6.1 0-9.5.2-3.5.2-7.2 0-11.2-.1-4 0-8.3.2-12.8.4-2.2.1-4.6.1-6.9-.1-2.4-.3-4.8-.3-7.2-.1-4.9.4-10.1-.4-15.4-.1-2.7.1-5.4.3-8.1.2-2.7 0-5.5-.2-8.4-.2-2.8-.1-5.7 0-8.6.1-2.9 0-5.8-.1-8.8-.1-5.9-.1-12-.4-18.2 0-1.5.1-3.1.2-4.6.2-1.6 0-3.1.1-4.7.1h-9.5c-3.2 0-6.4-.1-9.6-.1-3.2 0-6.4-.1-9.7-.3-3.2-.2-6.5-.3-9.8-.2-3.3.1-6.5.2-9.8.3-6.6.1-13.1.3-19.7.2-3.3-.1-6.6-.3-9.9-.3-1.6 0-3.3.1-4.9.1l-4.9.3c-1.6.1-3.3.2-4.9.2-1.6.1-3.3 0-4.9-.2-3.3-.5-6.5-.4-9.8 0-3.2.3-6.5.4-9.7.3-3.2-.1-6.4-.1-9.6-.2-6.4 0-12.6-.1-18.8-.1-1.5 0-3.1 0-4.6-.1-1.5-.2-3.1-.3-4.6-.2-1.5 0-3 .2-4.5.2h-4.5c-5.9-.3-11.8-.3-17.4-.4-5.7 0-11.2 0-16.5.1-2.7 0-5.3 0-7.8-.1h-3.8c-1.3 0-2.5.1-3.7.1-2.5.1-4.9.2-7.2.2-2.4 0-4.7-.1-6.9-.1-4.5-.1-8.8-.1-12.8-.2-2 0-3.9-.1-5.8-.1s-3.7.1-5.4.2c-1.7.1-3.4.1-5 .1s-3.1-.1-4.5-.1c-5.8.1-10.3.2-13.4.2-3.1 0-4.7.1-4.7.1v-2.8zM854.6 708.2h4.7c3.1 0 7.6.1 13.4.2 1.4-.1 3-.1 4.5-.2 1.6 0 3.3 0 5 .1 1.7.1 3.5.2 5.4.2 1.9 0 3.8-.1 5.8-.1 4-.1 8.3-.2 12.8-.3 2.2 0 4.6-.1 6.9-.1 2.4 0 4.8.1 7.2.2 2.5.1 5 .1 7.6 0 2.6-.1 5.2-.2 7.8-.2 5.3.1 10.8.2 16.5.4 5.7 0 11.5.1 17.4-.2 1.5 0 3-.1 4.5 0s3 .2 4.5.2c1.5.1 3 0 4.6-.1 1.5-.1 3.1 0 4.6 0 6.2.1 12.4.1 18.8.2H1021c1.6 0 3.2.1 4.8.2 3.2.2 6.5.3 9.8 0 3.3-.2 6.5-.1 9.8 0 3.3.1 6.6.3 9.9.3 3.3 0 6.6-.1 9.9-.1 6.6-.1 13.2 0 19.7 0 3.3 0 6.5.1 9.8.1 3.3.1 6.5-.1 9.8-.2 6.5-.2 12.9-.3 19.3-.5 3.2 0 6.3-.1 9.5-.1h4.7c1.6.1 3.1.1 4.6.2 12.3.2 24.3-.7 35.6-.2 2.8 0 5.6-.1 8.4-.1 2.7 0 5.5.1 8.1.3 5.3.3 10.5-.2 15.4.1 4.9.4 9.7-.5 14.2-.1 4.5.2 8.8.2 12.8.2 2 0 3.9-.1 5.8-.1h2.8c.9 0 1.8 0 2.7.1 3.5.1 6.7.2 9.5.1 2.9-.1 5.5-.2 7.7-.2s4.1-.1 5.7-.1h4.7v2.4h-10.4c-2.2-.1-4.8-.1-7.7-.2-2.9-.1-6.1 0-9.5.2-3.5.2-7.2 0-11.2-.1-4 0-8.3.2-12.8.4-2.2.1-4.6.1-6.9-.1-2.4-.3-4.8-.3-7.2-.1-4.9.4-10.1-.4-15.4-.1-2.7.1-5.4.3-8.1.2-2.7 0-5.5-.2-8.4-.2-2.8-.1-5.7 0-8.6.1-2.9 0-5.8-.1-8.8-.1-5.9-.1-12-.4-18.2 0-1.5.1-3.1.2-4.6.2-1.6 0-3.1.1-4.7.1h-9.5c-3.2 0-6.4-.1-9.6-.1-3.2 0-6.4-.1-9.7-.3-3.2-.2-6.5-.3-9.8-.2-3.3.1-6.5.2-9.8.3-6.6.1-13.1.3-19.7.2-3.3-.1-6.6-.3-9.9-.3-1.6 0-3.3.1-4.9.1l-4.9.3c-1.6.1-3.3.2-4.9.2-1.6.1-3.3 0-4.9-.2-3.3-.5-6.5-.4-9.8 0-3.2.3-6.5.4-9.7.3-3.2-.1-6.4-.1-9.6-.2-6.4 0-12.6-.1-18.8-.1-1.5 0-3.1 0-4.6-.1-1.5-.2-3.1-.3-4.6-.2-1.5 0-3 .2-4.5.2h-4.5c-5.9-.3-11.8-.3-17.4-.4-5.7 0-11.2 0-16.5.1-2.7 0-5.3 0-7.8-.1h-3.8c-1.3 0-2.5.1-3.7.1-2.5.1-4.9.2-7.2.2-2.4 0-4.7-.1-6.9-.1-4.5-.1-8.8-.1-12.8-.2-2 0-3.9-.1-5.8-.1s-3.7.1-5.4.2c-1.7.1-3.4.1-5 .1s-3.1-.1-4.5-.1c-5.8.1-10.3.2-13.4.2-3.1 0-4.7.1-4.7.1v-2.8zM855.9 643.4h4.7c3.1 0 7.6.1 13.3.2 1.4-.1 2.9-.1 4.5-.2 1.6 0 3.2 0 5 .1 1.7.1 3.5.2 5.4.2 1.9 0 3.8-.1 5.8-.1 4-.1 8.3-.2 12.7-.3 2.2 0 4.5-.1 6.9-.1 2.4 0 4.8.1 7.2.2 2.5.1 5 .1 7.5 0 2.6-.1 5.2-.2 7.8-.2 5.3.1 10.8.2 16.4.4 5.6 0 11.4.1 17.4-.2 1.5 0 3-.1 4.5 0s3 .2 4.5.2c1.5.1 3 0 4.6-.1 1.5-.1 3.1 0 4.6 0 6.2.1 12.4.1 18.7.2H1021.8c1.6 0 3.2.1 4.8.2 3.2.2 6.5.3 9.7 0 3.3-.2 6.5-.1 9.8 0 3.3.1 6.5.3 9.8.3 3.3 0 6.6-.1 9.8-.1 6.6-.1 13.1 0 19.7 0 3.3 0 6.5.1 9.8.1 3.3.1 6.5-.1 9.7-.2 6.5-.2 12.9-.3 19.2-.5 3.2 0 6.3-.1 9.4-.1h4.7c1.6.1 3.1.1 4.6.2 12.3.2 24.2-.7 35.5-.2 2.8 0 5.6-.1 8.3-.1 2.7 0 5.4.1 8.1.3 5.3.3 10.4-.2 15.4.1 4.9.4 9.6-.5 14.1-.1 4.5.2 8.7.2 12.7.2 2 0 3.9-.1 5.8-.1h2.8c.9 0 1.8 0 2.6.1 3.5.1 6.6.2 9.5.1 2.9-.1 5.4-.2 7.7-.2 2.2 0 4.1-.1 5.7-.1h4.7v2.4h-10.4c-2.2-.1-4.8-.1-7.7-.2-2.9-.1-6 0-9.5.2s-7.2 0-11.2-.1c-4 0-8.3.2-12.7.4-2.2.1-4.5.1-6.9-.1-2.4-.3-4.8-.3-7.2-.1-4.9.4-10-.4-15.4-.1-2.7.1-5.4.3-8.1.2-2.7 0-5.5-.2-8.3-.2-2.8-.1-5.7 0-8.6.1-2.9 0-5.8-.1-8.8-.1-5.9-.1-12-.4-18.1 0-1.5.1-3.1.2-4.6.2-1.6 0-3.1.1-4.7.1h-9.4c-3.2 0-6.4-.1-9.6-.1-3.2 0-6.4-.1-9.6-.3-3.2-.2-6.5-.3-9.7-.2-3.3.1-6.5.2-9.8.3-6.5.1-13.1.3-19.7.2-3.3-.1-6.6-.3-9.8-.3-1.6 0-3.3.1-4.9.1l-4.9.3c-1.6.1-3.3.2-4.9.2-1.6.1-3.3 0-4.9-.2-3.3-.5-6.5-.4-9.7 0-3.2.3-6.4.4-9.6.3-3.2-.1-6.4-.1-9.6-.2-6.3 0-12.6-.1-18.7-.1-1.5 0-3.1 0-4.6-.1-1.5-.2-3-.3-4.6-.2-1.5 0-3 .2-4.5.2h-4.5c-5.9-.3-11.7-.3-17.4-.4-5.6 0-11.1 0-16.4.1-2.7 0-5.3 0-7.8-.1h-3.8c-1.3 0-2.5.1-3.7.1-2.5.1-4.9.2-7.2.2-2.4 0-4.7-.1-6.9-.1-4.5-.1-8.7-.1-12.7-.2-2 0-3.9-.1-5.8-.1s-3.7.1-5.4.2c-1.7.1-3.4.1-5 .1s-3.1-.1-4.5-.1c-5.7.1-10.3.2-13.3.2-3.1 0-4.7.1-4.7.1v-2.8zM1314.5 850.3h4c2.6 0 6.4.1 11.3.2 1.2-.1 2.5-.1 3.8-.2 1.3 0 2.7 0 4.2.1s3 .2 4.6.2c1.6 0 3.2-.1 4.9-.1 3.4-.1 7-.2 10.8-.3 1.9 0 3.8-.1 5.8-.1s4 .1 6.1.2c2.1.1 4.2.1 6.4 0s4.4-.2 6.6-.2c4.5.1 9.1.2 13.9.4 4.8 0 9.7.1 14.7-.2 1.3 0 2.5-.1 3.8 0 1.3.1 2.5.2 3.8.2 1.3.1 2.6 0 3.9-.1 1.3-.1 2.6 0 3.9 0 5.2.1 10.5.1 15.8.2h12.2c1.4 0 2.7.1 4.1.2 2.7.2 5.5.3 8.2 0 2.8-.2 5.5-.1 8.3 0 2.8.1 5.5.3 8.3.3 2.8 0 5.5 0 8.3-.1 5.6-.1 11.1 0 16.6 0 2.8 0 5.5.1 8.3.1 2.8.1 5.5-.1 8.2-.2 5.5-.2 10.9-.3 16.2-.5 2.7 0 5.3-.1 8-.1h3.9c1.3.1 2.6.1 3.9.2 10.4.2 20.5-.7 30-.2 2.4 0 4.7-.1 7.1-.1 2.3 0 4.6.1 6.8.3 4.5.3 8.8-.2 13 .1 4.2.4 8.2-.5 11.9-.1 3.8.2 7.4.2 10.8.2 1.7 0 3.3-.1 4.9-.1h2.3c.8 0 1.5 0 2.2.1 2.9.1 5.6.2 8 .1 2.4-.1 4.6-.2 6.5-.2 1.9 0 3.5-.1 4.8-.1h4v2.4h-8.8c-1.9 0-4.1-.1-6.5-.2-2.4-.1-5.1 0-8 .2-2.9.2-6.1 0-9.5-.1-3.4 0-7 .2-10.8.4-1.9.1-3.8.1-5.8-.1-2-.3-4-.3-6.1-.1-4.2.4-8.5-.4-13-.1-2.2.1-4.5.3-6.8.2-2.3 0-4.7-.2-7.1-.2-2.4-.1-4.8 0-7.2.1-2.4 0-4.9-.1-7.4-.1-5-.1-10.1-.4-15.3 0-1.3.1-2.6.2-3.9.2-1.3 0-2.6.1-3.9.1h-8c-2.7 0-5.4-.1-8.1-.1-2.7 0-5.4-.1-8.2-.3-2.7-.2-5.5-.3-8.2-.2-2.8.1-5.5.2-8.3.3-5.5.1-11.1.3-16.6.2-2.8-.1-5.6-.3-8.3-.3-1.4 0-2.8.1-4.2.1l-4.1.3c-1.4.1-2.8.2-4.1.2-1.4.1-2.8 0-4.1-.2-2.8-.5-5.5-.4-8.2 0-2.7.3-5.5.4-8.2.3-2.7-.1-5.4-.1-8.1-.2-5.4 0-10.6-.1-15.8-.1-1.3 0-2.6 0-3.9-.1-1.3-.2-2.6-.3-3.9-.2-1.3 0-2.5.2-3.8.2h-3.8c-5-.3-9.9-.3-14.7-.4-4.8 0-9.4 0-13.9.1-2.2 0-4.4 0-6.6-.1h-3.2c-1.1 0-2.1.1-3.2.1-2.1.1-4.1.2-6.1.2s-3.9-.1-5.8-.1c-3.8-.1-7.4-.1-10.8-.2-1.7 0-3.3-.1-4.9-.1-1.6 0-3.1.1-4.6.2-1.5.1-2.9.1-4.2.1-1.3 0-2.6-.1-3.8-.1-4.9.1-8.7.2-11.3.2-2.6 0-4 .1-4 .1v-2.8zM1300.8 575.4v3.4c0 1.1 0 2.5-.1 4.1-.1 1.6-.1 3.4-.1 5.5 0 1 .1 2.1.2 3.3 0 1.1 0 2.3-.1 3.6-.1 1.2-.2 2.5-.2 3.9 0 1.3 0 2.7.1 4.2.1 2.9.2 5.9.4 9.1 0 1.6.1 3.3.1 5 0 1.7-.1 3.4-.2 5.2-.1 1.8-.1 3.6 0 5.4.1 1.8.2 3.7.2 5.6-.1 3.8-.2 7.8-.4 11.8-.1 4.1-.1 8.2.2 12.5 0 1.1.1 2.1 0 3.2s-.2 2.2-.2 3.2c-.1 1.1 0 2.2.1 3.3.1 1.1 0 2.2 0 3.3-.1 4.4-.1 8.9-.2 13.5v10.4c0 1.2-.1 2.3-.2 3.5-.2 2.3-.3 4.6 0 7 .2 2.3.1 4.7 0 7s-.3 4.7-.3 7.1c0 2.4 0 4.7.1 7.1.1 4.7 0 9.4 0 14.1 0 2.3-.1 4.7-.1 7-.1 2.3.1 4.7.2 7 .2 4.6.3 9.2.5 13.8 0 2.3.1 4.5.1 6.8v3.4c-.1 1.1-.1 2.2-.2 3.3-.2 4.4.1 8.8.2 13 0 2.1.2 4.2.2 6.3-.1 2.1-.2 4.1-.1 6.2 0 2 .1 4 .1 6 .1 2-.1 3.9-.3 5.8-.3 3.8.2 7.5-.1 11-.4 3.5.4 6.9.1 10.1-.2 3.2-.3 6.3-.3 9.1 0 1.4.1 2.8.1 4.2v3.9c-.1 2.5-.2 4.8-.1 6.8.1 2.1.2 3.9.3 5.5 0 1.6.1 3 .1 4.1v3.4h-2.4v-.9-2.5-4.1c0-1.6.1-3.4.2-5.5s0-4.3-.2-6.8 0-5.2.1-8c0-2.9-.2-5.9-.4-9.1-.1-1.6-.1-3.3.1-5 .3-1.7.3-3.4.1-5.2-.4-3.5.4-7.2.1-11-.4-3.8-.2-7.8 0-11.8.1-2 0-4.1-.1-6.2 0-2.1.1-4.2.1-6.3.1-4.3.4-8.6 0-13-.1-1.1-.2-2.2-.2-3.3 0-1.1-.1-2.2-.1-3.4v-6.8c0-2.3.1-4.6.1-6.9 0-2.3.1-4.6.3-6.9.2-2.3.3-4.6.2-7-.1-2.3-.2-4.7-.3-7-.1-4.7-.3-9.4-.2-14.1.1-2.4.3-4.7.3-7.1 0-1.2-.1-2.4-.1-3.5l-.3-3.5c-.1-1.2-.2-2.3-.2-3.5-.1-1.2 0-2.3.2-3.5.4-2.3.4-4.7 0-7-.2-1.2-.2-2.3-.3-3.5-.1-1.2 0-2.3 0-3.5.1-2.3.1-4.6.2-6.9 0-4.5.1-9 .1-13.5 0-1.1 0-2.2.1-3.3.2-1.1.3-2.2.2-3.3 0-1.1-.2-2.2-.2-3.2v-3.2c.3-4.3.3-8.4.4-12.5 0-4 0-8-.1-11.8 0-1.9 0-3.8.1-5.6 0-1.8 0-3.6-.1-5.4-.5-7.1 0-13.5 0-19.3 0-1.4.1-2.8.1-4.2 0-1.3-.1-2.6-.2-3.9-.1-1.2-.1-2.4-.1-3.6 0-1.1.1-2.2.1-3.3 0-2.1-.1-3.9-.1-5.5-.1-1.6-.1-3-.1-4.1 0-2.2-.1-3.4-.1-3.4h2.6zM1677.8 575.4v3.4c0 1.1 0 2.5-.1 4.1-.1 1.6-.1 3.4-.1 5.5 0 1 .1 2.1.2 3.3 0 1.1 0 2.3-.1 3.6-.1 1.2-.2 2.5-.2 3.9 0 1.3 0 2.7.1 4.2.1 2.9.2 5.9.4 9.1 0 1.6.1 3.3.1 5 0 1.7-.1 3.4-.2 5.2-.1 1.8-.1 3.6 0 5.4.1 1.8.2 3.7.2 5.6-.1 3.8-.2 7.8-.4 11.8-.1 4.1-.1 8.2.2 12.5 0 1.1.1 2.1 0 3.2s-.2 2.2-.3 3.2c-.1 1.1 0 2.2.1 3.3.1 1.1 0 2.2 0 3.3-.1 4.4-.1 8.9-.2 13.5v10.4c0 1.2-.1 2.3-.2 3.5-.2 2.3-.3 4.6 0 7 .2 2.3.1 4.7 0 7s-.3 4.7-.3 7.1c0 2.4.1 4.7.1 7.1.1 4.7 0 9.4 0 14.1 0 2.3-.1 4.7-.1 7-.1 2.3.1 4.7.2 7 .2 4.6.3 9.2.5 13.8 0 2.3.1 4.5.1 6.8v3.4c-.1 1.1-.1 2.2-.2 3.3-.2 4.4.1 8.8.2 13 0 2.1.2 4.2.2 6.3-.1 2.1-.2 4.1-.1 6.2 0 2 .1 4 .1 6 .1 2-.1 3.9-.3 5.8-.3 3.8.2 7.5-.1 11-.4 3.5.4 6.9.1 10.1-.2 3.2-.3 6.3-.3 9.1 0 1.4.1 2.8.1 4.2v3.9c-.1 2.5-.2 4.8-.1 6.8.1 2.1.2 3.9.3 5.5 0 1.6.1 3 .1 4.1v3.4h-2.4v-.9-2.5-4.1c0-1.6.1-3.4.2-5.5s0-4.3-.2-6.8 0-5.2.1-8c0-2.9-.2-5.9-.4-9.1-.1-1.6-.1-3.3.1-5 .3-1.7.3-3.4.1-5.2-.4-3.5.4-7.2.1-11-.4-3.8-.2-7.8 0-11.8.1-2 0-4.1-.1-6.2 0-2.1.1-4.2.1-6.3.1-4.3.4-8.6 0-13-.1-1.1-.2-2.2-.2-3.3 0-1.1-.1-2.2-.1-3.4v-6.8c0-2.3.1-4.6.1-6.9 0-2.3.1-4.6.3-6.9.2-2.3.3-4.6.2-7-.1-2.3-.2-4.7-.3-7-.1-4.7-.3-9.4-.2-14.1.1-2.4.3-4.7.3-7.1 0-1.2-.1-2.4-.1-3.5l-.3-3.5c-.1-1.2-.2-2.3-.2-3.5-.1-1.2 0-2.3.2-3.5.4-2.3.4-4.7 0-7-.2-1.2-.2-2.3-.3-3.5-.1-1.2 0-2.3 0-3.5.1-2.3.1-4.6.2-6.9 0-4.5.1-9 .1-13.5 0-1.1 0-2.2.1-3.3.2-1.1.3-2.2.2-3.3 0-1.1-.2-2.2-.2-3.2v-3.2c.3-4.3.3-8.4.4-12.5 0-4 0-8-.1-11.8 0-1.9 0-3.8.1-5.6 0-1.8 0-3.6-.1-5.4-.5-7.1 0-13.5 0-19.3 0-1.4.1-2.8.1-4.2 0-1.3-.1-2.6-.2-3.9-.1-1.2-.1-2.4-.1-3.6 0-1.1.1-2.2.1-3.3 0-2.1-.1-3.9-.1-5.5-.1-1.6-.1-3-.1-4.1 0-2.2-.1-3.4-.1-3.4h2.7zM1704 596.6v3.1c0 1 0 2.3-.1 3.8s-.1 3.2-.1 5.1c0 1 .1 2 .2 3 0 1.1 0 2.2-.1 3.3-.1 1.2-.2 2.4-.2 3.6 0 1.2 0 2.5.1 3.9.1 2.7.2 5.5.4 8.5 0 1.5.1 3 .1 4.6 0 1.6-.1 3.2-.2 4.8-.1 1.6-.1 3.3 0 5 .1 1.7.2 3.5.2 5.2-.1 3.5-.2 7.2-.4 11-.1 3.8-.1 7.6.2 11.6 0 1 .1 2 0 3l-.3 3c-.1 1 0 2 .1 3s0 2 0 3.1c0 4.1-.1 8.3-.2 12.5V707.3c0 1.1-.1 2.1-.2 3.2-.2 2.2-.3 4.3 0 6.5.2 2.2.1 4.3 0 6.5s-.3 4.4-.3 6.6c0 2.2.1 4.4.1 6.6.1 4.4 0 8.8 0 13.1 0 2.2-.1 4.4-.1 6.5-.1 2.2.1 4.3.2 6.5.2 4.3.3 8.6.5 12.8 0 2.1.1 4.2.1 6.3v3.1c-.1 1-.1 2.1-.2 3.1-.2 4.1.1 8.1.2 12.1 0 2 .2 3.9.2 5.9-.1 1.9-.2 3.8-.1 5.7 0 1.9.1 3.7.1 5.6.1 1.8-.1 3.6-.3 5.4-.3 3.5.2 7-.1 10.3-.4 3.3.4 6.4.1 9.4-.2 3-.3 5.8-.3 8.5 0 1.3.1 2.6.1 3.9v3.6c-.1 2.3-.2 4.4-.1 6.4.1 1.9.2 3.6.3 5.1 0 1.5.1 2.8.1 3.8V876.9h-2.4v-.8-2.3-3.8c0-1.5.1-3.2.2-5.1.1-1.9 0-4-.2-6.4-.2-2.3 0-4.8.1-7.5 0-2.7-.2-5.5-.4-8.5-.1-1.5-.1-3 .1-4.6.3-1.6.3-3.2.1-4.8-.4-3.3.4-6.7.1-10.3-.4-3.5-.2-7.2 0-11 .1-1.9 0-3.8-.1-5.7 0-1.9.1-3.9.1-5.9.1-4 .4-8 0-12.1-.1-1-.2-2.1-.2-3.1s-.1-2.1-.1-3.1v-6.3c0-2.1.1-4.2.1-6.4 0-2.1.1-4.3.3-6.4.2-2.2.3-4.3.2-6.5-.1-2.2-.2-4.3-.3-6.5-.1-4.4-.3-8.7-.2-13.1.1-2.2.3-4.4.3-6.6 0-1.1-.1-2.2-.1-3.3l-.3-3.3c-.1-1.1-.2-2.2-.2-3.3-.1-1.1 0-2.2.2-3.3.5-2.2.4-4.3 0-6.5-.2-1.1-.2-2.2-.3-3.2-.1-1.1 0-2.1 0-3.2.1-2.1.1-4.3.2-6.4 0-4.2.1-8.4.1-12.5 0-1 0-2 .1-3.1.2-1 .3-2 .2-3 0-1-.2-2-.2-3v-3c.3-4 .3-7.8.4-11.6 0-3.8 0-7.4-.1-11 0-1.8 0-3.5.1-5.2 0-1.7 0-3.4-.1-5-.5-6.6 0-12.6 0-17.9 0-1.3.1-2.6.1-3.9 0-1.2-.1-2.4-.2-3.6-.1-1.2-.1-2.3-.1-3.3 0-1.1.1-2.1.1-3 0-1.9-.1-3.6-.1-5.1-.1-1.5-.1-2.8-.1-3.8 0-2.1-.1-3.1-.1-3.1h2.7z"/><path class="st3" d="M1494.6 575.4v3.1c0 1 0 2.3-.1 3.7-.1 1.5-.1 3.1-.1 5 0 .9.1 1.9.2 3 0 1 0 2.1-.1 3.3-.1 1.1-.2 2.3-.2 3.5 0 1.2 0 2.5.1 3.8.1 2.6.2 5.4.4 8.4 0 1.5.1 3 .1 4.5s-.1 3.1-.2 4.7-.1 3.3 0 4.9c.1 1.7.2 3.4.2 5.1-.1 3.5-.2 7.1-.4 10.8-.1 3.7-.1 7.5.2 11.4 0 1 .1 1.9 0 2.9s-.2 2-.2 3c-.1 1 0 2 .1 3s0 2 0 3c0 4-.1 8.1-.2 12.3v9.5c0 1.1-.1 2.1-.2 3.2-.2 2.1-.3 4.2 0 6.4.2 2.1.1 4.3 0 6.4-.1 2.1-.3 4.3-.3 6.4 0 2.1 0 4.3.1 6.5.1 4.3 0 8.6 0 12.9 0 2.1-.1 4.3-.1 6.4-.1 2.1.1 4.3.2 6.4.2 4.2.3 8.4.5 12.6 0 2.1.1 4.1.1 6.2v3.1c-.1 1-.1 2-.2 3-.2 4 .1 8 .2 11.9 0 1.9.2 3.9.2 5.8-.1 1.9-.2 3.8-.1 5.6 0 1.8.1 3.7.1 5.5.1 1.8-.1 3.6-.3 5.3-.3 3.5.2 6.8-.1 10.1-.4 3.2.4 6.3.1 9.3-.2 2.9-.3 5.7-.3 8.4 0 1.3.1 2.6.1 3.8v3.5c-.1 2.3-.2 4.4-.1 6.2.1 1.9.2 3.6.3 5 0 1.5.1 2.7.1 3.7V851h-2.4v-.8-2.3-3.7c0-1.5.1-3.1.2-5s0-4-.2-6.2c-.2-2.3 0-4.7.1-7.3 0-2.6-.2-5.4-.4-8.4-.1-1.5-.1-3 .1-4.5.3-1.5.3-3.1.1-4.7-.4-3.2.4-6.6.1-10.1-.4-3.5-.2-7.1 0-10.8.1-1.8 0-3.7-.1-5.6 0-1.9.1-3.8.1-5.8.1-3.9.4-7.9 0-11.9-.1-1-.2-2-.2-3s-.1-2-.1-3.1v-6.2c0-2.1.1-4.2.1-6.3 0-2.1.1-4.2.3-6.3.2-2.1.3-4.2.2-6.4-.1-2.1-.2-4.3-.3-6.4-.1-4.3-.3-8.6-.2-12.9.1-2.2.3-4.3.3-6.5 0-1.1-.1-2.1-.1-3.2l-.3-3.2c-.1-1.1-.2-2.1-.2-3.2-.1-1.1 0-2.1.2-3.2.4-2.1.4-4.3 0-6.4-.2-1.1-.2-2.1-.3-3.2-.1-1.1 0-2.1 0-3.2.1-2.1.1-4.2.2-6.3 0-4.2.1-8.3.1-12.3 0-1 0-2 .1-3 .2-1 .3-2 .2-3 0-1-.2-2-.2-3v-2.9c.3-3.9.3-7.7.4-11.4 0-3.7 0-7.3-.1-10.8 0-1.7 0-3.5.1-5.1 0-1.7 0-3.3-.1-4.9-.5-6.5 0-12.4 0-17.6 0-1.3.1-2.6.1-3.8 0-1.2-.1-2.4-.2-3.5s-.1-2.2-.1-3.3c0-1 .1-2 .1-3 0-1.9-.1-3.6-.1-5-.1-1.5-.1-2.7-.1-3.7 0-2-.1-3.1-.1-3.1h2.6zM1522 685.1v.6c0 .2 0 .5-.1.8 0 .3-.1.6-.1 1 0 .2.1.4.2.6 0 .2 0 .4-.1.7-.1.2-.2.5-.2.7 0 .2 0 .5.1.8.1.5.2 1.1.4 1.7.1.3.1.6.1.9 0 .3-.1.6-.2 1-.1.3-.1.7 0 1 .1.3.2.7.2 1 0 .7-.3 1.4-.4 2.2-.1.8-.1 1.5.2 2.3.1.2.1.4 0 .6l-.3.6v.3c0 .1.1.2.1.3.1.2 0 .4.1.6 0 .8-.1 1.7-.2 2.5v1.3c0 .4 0 .9-.2 1.3s-.3.9 0 1.3c.2.4.1.9 0 1.3s-.3.9-.3 1.3.1.9.1 1.3c.1.9 0 1.8 0 2.6 0 .4-.1.9-.1 1.3s.1.9.2 1.3c.2.9.3 1.7.5 2.6.1.8.2 1.7-.1 2.5-.2.8.1 1.6.2 2.4.1.2.1.4.1.6 0 .2.1.4 0 .6 0 .2-.1.4-.1.6v.6c0 .4.2.7.2 1.1 0 .4-.1.7-.3 1.1-.4.7.2 1.4-.1 2.1-.1.3-.1.7 0 1 .2.3.1.6.1.9-.2.6-.3 1.2-.3 1.7.1.5.3 1 .1 1.5-.1.2-.1.5-.1.7 0 .2 0 .4.1.6.3.8.3 1.4.3 1.8v.6h-2.4v-.6c0-.4 0-1 .2-1.8v-.6c0-.2-.1-.4-.2-.7-.1-.2-.1-.5-.1-.7 0-.2.1-.5.2-.8 0-.5-.1-1.1-.4-1.7-.1-.3-.1-.6.1-.9.3-.3.3-.6.1-1-.4-.7.5-1.3.1-2.1-.1-.4-.3-.7-.2-1.1 0-.4.2-.7.2-1.1 0-.2.1-.4 0-.6l-.1-.6c0-.4 0-.8.1-1.2.1-.8.4-1.6.1-2.4-.4-.8-.4-1.7-.3-2.5 0-.4.1-.8.1-1.3 0-.4.1-.9.3-1.3.2-.4.3-.9.2-1.3-.1-.4-.3-.9-.3-1.3-.1-.9-.3-1.7-.2-2.6.1-.4.3-.9.3-1.3 0-.2 0-.4-.1-.7l-.3-.7c-.1-.2-.2-.4-.2-.7-.1-.2 0-.4.2-.7.5-.4.4-.9 0-1.3-.3-.4-.4-.9-.3-1.3.1-.4.1-.9.2-1.3 0-.8 0-1.7.1-2.5 0-.2 0-.4.1-.6.1-.1.1-.2.2-.3v-.3c0-.2-.2-.4-.2-.6v-.6c.3-.8.3-1.6.4-2.3 0-.8 0-1.5-.1-2.2 0-.7.2-1.4-.1-2.1-.1-.3-.2-.7-.2-1v-.9c.1-.6.2-1.2.2-1.7v-.8c0-.2-.1-.5-.2-.7-.1-.2-.1-.5-.1-.7 0-.2.1-.4.1-.6 0-.4-.1-.7-.1-1-.1-.3-.1-.6-.1-.8 0-.4-.1-.6-.1-.6h2.7zM1464.7 685.1v.6c0 .2 0 .5-.1.8 0 .3-.1.6-.1 1 0 .2.1.4.2.6 0 .2 0 .4-.1.7-.1.2-.2.5-.2.7 0 .2 0 .5.1.8.1.5.2 1.1.4 1.7.1.3.1.6.1.9 0 .3-.1.6-.2 1-.1.3-.1.7 0 1 .1.3.2.7.2 1 0 .7-.3 1.4-.4 2.2-.1.8-.1 1.5.2 2.3.1.2.1.4 0 .6l-.3.6v.3c0 .1.1.2.1.3.1.2 0 .4.1.6 0 .8-.1 1.7-.2 2.5v1.3c0 .4 0 .9-.2 1.3s-.3.9 0 1.3c.2.4.1.9 0 1.3s-.3.9-.3 1.3.1.9.1 1.3c.1.9 0 1.8 0 2.6 0 .4-.1.9-.1 1.3s.1.9.2 1.3c.2.9.3 1.7.5 2.6.1.8.2 1.7-.1 2.5-.2.8.1 1.6.2 2.4.1.2.1.4.1.6 0 .2.1.4 0 .6 0 .2-.1.4-.1.6v.6c0 .4.2.7.2 1.1 0 .4-.1.7-.3 1.1-.4.7.2 1.4-.1 2.1-.1.3-.1.7 0 1 .2.3.1.6.1.9-.2.6-.3 1.2-.3 1.7.1.5.3 1 .1 1.5-.1.2-.1.5-.1.7 0 .2 0 .4.1.6.3.8.3 1.4.3 1.8v.6h-2.4v-.6c0-.4 0-1 .2-1.8v-.6c0-.2-.1-.4-.2-.7-.1-.2-.1-.5-.1-.7 0-.2.1-.5.2-.8 0-.5-.1-1.1-.4-1.7-.1-.3-.1-.6.1-.9.3-.3.3-.6.1-1-.4-.7.5-1.3.1-2.1-.1-.4-.3-.7-.2-1.1 0-.4.2-.7.2-1.1 0-.2.1-.4 0-.6l-.1-.6c0-.4 0-.8.1-1.2.1-.8.4-1.6.1-2.4-.4-.8-.4-1.7-.3-2.5 0-.4.1-.8.1-1.3 0-.4.1-.9.3-1.3.2-.4.3-.9.2-1.3-.1-.4-.3-.9-.3-1.3-.1-.9-.3-1.7-.2-2.6.1-.4.3-.9.3-1.3 0-.2 0-.4-.1-.7l-.3-.7c-.1-.2-.2-.4-.2-.7-.1-.2 0-.4.2-.7.5-.4.4-.9 0-1.3-.3-.4-.4-.9-.3-1.3.1-.4.1-.9.2-1.3 0-.8 0-1.7.1-2.5 0-.2 0-.4.1-.6.1-.1.1-.2.2-.3v-.3c0-.2-.2-.4-.2-.6v-.6c.3-.8.3-1.6.4-2.3 0-.8 0-1.5-.1-2.2 0-.7.2-1.4-.1-2.1-.1-.3-.2-.7-.2-1v-.9c.1-.6.2-1.2.2-1.7v-.8c0-.2-.1-.5-.2-.7-.1-.2-.1-.5-.1-.7 0-.2.1-.4.1-.6 0-.4-.1-.7-.1-1-.1-.3-.1-.6-.1-.8 0-.4-.1-.6-.1-.6h2.7zM855.2 575.4l-.1 17.2-.1 17.2c0 2.9-.1 5.7 0 8.6l.1 8.6v4.3l-.1 4.3-.1 8.6-.1 8.6c0 2.9 0 5.7.1 8.6l.2 17.2.2 17.2.1 8.6c0 2.9.1 5.7 0 8.6l-.2 17.2c0 2.9-.1 5.7-.1 8.6l.1 8.6c0 5.7.2 11.5.1 17.2l-.1 17.2-.2 17.2v17.2c0 5.7-.1 11.5.1 17.2l.1 8.6c0 2.9.1 5.7 0 8.6l-.4-.9.6.6-.9-.4 13.2.3c4.4 0 8.8-.1 13.2-.2l26.3.1 52.7.1c4.4 0 8.8.1 13.2.2l13.2.2c4.4 0 8.8-.1 13.2-.1l6.6-.1c2.2 0 4.4 0 6.6.1l26.3.3c8.8 0 17.6 0 26.3-.1 8.8-.1 17.6 0 26.3 0h26.3c8.8.1 17.6.1 26.3.1l26.3-.3 52.7-.4c8.8 0 17.6.1 26.3.2l6.6.1h6.6l13.2-.1-1.1 1.1-.2-17.3-.1-8.7v-8.7c0-5.8.2-11.6.1-17.3l-.1-17.3c-.1-5.8.1-11.6.2-17.3.1-5.8.3-11.6.2-17.3v-8.7-8.7l.1-8.7v-4.3l-.1-4.3c-.1-5.8-.3-11.6-.1-17.3l.2-17.3v-8.7-8.7l-.1-17.3.2-17.3v-8.7l-.1-8.7-.1-8.7v-8.7l-.1-17.3h2.4v26l-.1 8.7-.1 8.7c0 2.9-.1 5.8 0 8.7l.3 17.3c0 5.8-.1 11.6-.1 17.3v8.6l.1 8.7c0 5.8.2 11.6.3 17.3 0 2.9.1 5.8 0 8.7 0 2.9-.2 5.8-.3 8.7l-.1 4.3.1 4.3.1 8.7c0 1.4.1 2.9 0 4.3l-.1 4.3-.1 8.7c0 2.9-.1 5.8-.1 8.7l.1 8.7c.1 5.8.2 11.6.1 17.3l-.2 17.3c-.1 5.8 0 11.6 0 17.3.1 5.8 0 11.6 0 17.3l-.1 17.3v1h-1l-13.2-.1h-6.6l-6.6.1c-8.8.1-17.6.3-26.3.4l-52.7-.2-26.3-.4c-8.8-.1-17.6.1-26.3.2l-26.3.2c-8.8 0-17.6.2-26.3 0-8.8-.1-17.6-.3-26.3-.2-8.8 0-17.6.5-26.3.6-2.2 0-4.4.1-6.6.1-2.2 0-4.4 0-6.6-.2l-6.6-.3c-2.2 0-4.4-.1-6.6-.1-8.8 0-17.6.6-26.3.6l-26.3-.2-26.3-.1-26.3-.1c-4.4-.1-8.8-.3-13.2-.3l-13.2.2h-.4l-.3-.3-.6-.6-.3-.3v-.5c-.1-2.9 0-5.7.1-8.6l.1-8.6c.1-5.7.1-11.5.1-17.2l.1-17.2v-34.4l.1-17.2c0-5.7 0-11.5-.1-17.2l-.2-17.2c-.1-5.7 0-11.5 0-17.2l.1-17.2.1-17.2c0-2.9.1-5.7 0-8.6l-.1-8.6-.1-8.6-.1-4.3v-4.3l.1-8.6V610l-.2-34.4h2zM832.8 589.1v3.2c0 1.1 0 2.4-.1 3.9s-.1 3.3-.1 5.3c0 1 .1 2 .2 3.1 0 1.1 0 2.2-.1 3.4-.1 1.2-.2 2.4-.2 3.7 0 1.3 0 2.6.1 4 .1 2.8.2 5.7.4 8.8 0 1.5.1 3.1.1 4.7s-.1 3.3-.2 5c-.1 1.7-.1 3.4 0 5.2.1 1.8.2 3.6.2 5.4-.1 3.7-.2 7.4-.4 11.3-.1 3.9-.1 7.9.2 11.9 0 1 .1 2 0 3.1-.1 1-.2 2.1-.3 3.1-.1 1 0 2.1.1 3.1s0 2.1 0 3.2c-.1 4.2-.1 8.5-.2 12.9V703.3c0 1.1-.1 2.2-.2 3.3-.2 2.2-.3 4.5 0 6.7.2 2.2.1 4.5 0 6.7-.1 2.3-.3 4.5-.3 6.8s0 4.5.1 6.8c.1 4.5 0 9 0 13.5 0 2.2-.1 4.5-.1 6.7-.1 2.2.1 4.5.2 6.7.2 4.4.3 8.9.5 13.2 0 2.2.1 4.3.1 6.5v3.2c-.1 1.1-.1 2.1-.2 3.2-.2 4.2.1 8.4.2 12.5 0 2 .2 4.1.2 6-.1 2-.2 4-.1 5.9 0 1.9.1 3.9.1 5.7.1 1.9-.1 3.7-.3 5.6-.3 3.7.2 7.2-.1 10.6-.4 3.4.4 6.6.1 9.7-.2 3.1-.3 6-.3 8.8 0 1.4.1 2.7.1 4v3.7c-.1 2.4-.2 4.6-.1 6.5.1 2 .2 3.7.3 5.3 0 1.5.1 2.8.1 3.9v3.2h-2.4v-.8-2.4-3.9c0-1.5.1-3.3.2-5.3s0-4.2-.2-6.5c-.2-2.4 0-5 .1-7.7 0-2.8-.2-5.7-.4-8.8-.1-1.5-.1-3.1.1-4.7.3-1.6.3-3.3.1-5-.4-3.4.4-6.9.1-10.6-.4-3.7-.2-7.4 0-11.3.1-1.9 0-3.9-.1-5.9 0-2 .1-4 .1-6 .1-4.1.4-8.2 0-12.5-.1-1.1-.2-2.1-.2-3.2s-.1-2.1-.1-3.2v-6.5c0-2.2.1-4.4.1-6.6 0-2.2.1-4.4.3-6.6.2-2.2.3-4.5.2-6.7-.1-2.2-.2-4.5-.3-6.7-.1-4.5-.3-9-.2-13.5.1-2.3.3-4.5.3-6.8 0-1.1-.1-2.3-.1-3.4l-.3-3.4c-.1-1.1-.2-2.2-.2-3.4-.1-1.1 0-2.2.2-3.4.4-2.2.4-4.5 0-6.7-.2-1.1-.2-2.2-.3-3.3-.1-1.1 0-2.2 0-3.3.1-2.2.1-4.4.2-6.6 0-4.4.1-8.7.1-12.9 0-1.1 0-2.1.1-3.2.2-1 .3-2.1.2-3.1 0-1-.2-2.1-.2-3.1v-3.1c.3-4.1.3-8.1.4-11.9 0-3.9 0-7.7-.1-11.3 0-1.8 0-3.6.1-5.4 0-1.8 0-3.5-.1-5.2-.5-6.8 0-13 0-18.5 0-1.4.1-2.7.1-4 0-1.3-.1-2.5-.2-3.7-.1-1.2-.1-2.3-.1-3.4s.1-2.1.1-3.1c0-2-.1-3.7-.1-5.3-.1-1.5-.1-2.8-.1-3.9 0-2.1-.1-3.2-.1-3.2h2.7z"/><path class="st6" d="M1912 560.7s-19.3-.1-53-.2c-8.4.1-17.8.3-27.9.1-5.1 0-10.4-.1-15.9-.1s-11.2.1-17 .1c-11.7.1-24.2.2-37.4.3-6.6 0-13.3.1-20.3.1-6.9 0-14-.1-21.2-.2-3.6 0-7.3-.1-11-.1s-7.4.1-11.2.1c-7.5.1-15.2.1-23 .2-15.6-.1-31.7-.2-48.3-.4-16.6 0-33.6-.1-51 .1-8.7.2-17.5-.1-26.4-.2-4.4-.1-8.9 0-13.4.1s-9 .1-13.5.1c-18.1-.1-36.4-.1-55-.2h-42.2c-4.7-.1-9.5-.1-14.2-.2-4.7-.1-9.5-.1-14.3-.2-4.8 0-9.5.1-14.3.1-2.4 0-4.8.1-7.2.1-2.4 0-4.8.1-7.2 0-4.8 0-9.6-.1-14.4-.1-9.6-.1-19.2-.2-28.9-.2-9.6 0-19.3.1-28.9.1-19.3.1-38.6 0-57.8 0-9.6 0-19.2-.1-28.7-.1-9.6-.1-19.1.1-28.6.2-19 .2-37.8.3-56.4.4-9.3 0-18.5.1-27.7.1s-18.3-.1-27.3-.2c-4.5 0-9-.1-13.5-.1s-8.9.1-13.4.1c-8.9.1-17.7.1-26.4.2-4.3 0-8.7.1-13 .1-4.3 0-8.6.1-12.8 0-8.5 0-16.9-.2-25.2-.1-8.3 0-16.5.1-24.5.1h-6c-2 0-4-.1-6-.1-4-.1-7.9-.1-11.8-.2-15.6-.4-30.6.2-45.1-.2s-28.3.4-41.5.1c-13.2-.2-25.7-.2-37.4-.2-5.9 0-11.6.1-17 .1h-8.1c-2.6 0-5.2 0-7.8-.1-10.2-.1-19.5-.2-27.9-.1-8.4.1-16 .2-22.5.2-6.6 0-12.1 0-16.6.1H678V558h30.5c6.6.1 14.1.1 22.5.2s17.8-.1 27.9-.2c2.5 0 5.1-.1 7.8-.1h8.1c5.5 0 11.2.1 17 .1 11.7 0 24.2-.1 37.4-.3 3.3 0 6.6-.1 10-.1 3.4 0 6.8.1 10.3.2 3.5.1 7 .2 10.5.2s7.1-.1 10.7-.1c14.5-.4 29.5.4 45.1.1 3.9 0 7.8-.1 11.8-.1 2 0 4 0 6-.1h6c8 .1 16.2.1 24.5.2s16.7 0 25.2-.1c4.2-.1 8.5 0 12.8 0 4.3 0 8.6.1 13 .1 8.7 0 17.5.1 26.4.1h13.4c4.5-.1 9-.1 13.5-.2 9-.1 18.1-.3 27.3-.3s18.4.1 27.7.1c18.6.1 37.4 0 56.4.4 9.5.1 19 .3 28.6.2l28.7-.3c9.6 0 19.2-.1 28.9-.1 9.6 0 19.3-.2 28.9 0l14.5.2 7.2.1h7.2c4.8 0 9.6-.1 14.4-.1l14.4-.3c4.8-.1 9.6-.2 14.4-.2h7.2c2.4 0 4.8.1 7.2.2 9.6.4 19.1.4 28.6.1 4.7-.1 9.5-.3 14.2-.3h14.1c9.4.1 18.8.1 28.1.2 18.6 0 37 .1 55 .1 4.5 0 9 0 13.5.1s8.9.3 13.4.1c8.9-.1 17.7-.3 26.4-.1 17.4.3 34.4.3 51 .3s32.7 0 48.3-.1c7.8 0 15.5 0 23 .1h11.2c3.7 0 7.3-.1 11-.1 7.2-.1 14.3-.1 21.2-.2 6.9 0 13.7 0 20.3.1 13.2.1 25.7.1 37.4.2 5.9 0 11.6.1 17 0 5.5-.1 10.8-.1 15.9-.2 10.2-.2 19.5 0 27.9 0 33.7-.2 53-.3 53-.3v2.9z"/><path class="st0" d="M1175.3 397.3l14.6-.2c4.9-.1 9.8-.1 14.6-.1 2.4 0 4.9 0 7.3.1l7.3.1c1.2 0 2.4 0 3.7.1 1.2.1 2.4.1 3.7.1h7.3c.6 0 1 .5 1 1v5.9c0 2-.1 3.9-.1 5.9-.1 3.9-.2 7.8-.2 11.7 0 .3-.3.6-.6.6h-7.4l-7.3.1-14.6.2-14.6.2-3.7.1h-3.7c-2.4 0-4.9-.1-7.3-.1-.6 0-1-.5-1-1v-2.9-2.9l-.1-5.9-.1-11.7c0-.8.5-1.3 1.2-1.3zm1.2 2.4l.1 10.5.1 5.9v5.9l-1.4-1.4c2.4 0 4.9.1 7.3.2l3.7.1H1233.8l-1.3 1.3c-.1-3.9-.2-7.8-.2-11.7v-2.9-2.9l.1-2.9c0-1 .1-2 .1-2.9l1.4 1.4-7.3-.3c-1.2-.1-2.4-.1-3.7 0h-3.6l-7.3-.2-3.7-.1h-3.7l-3.7.1c-1.2 0-2.4.1-3.7.1h-7.3l-13.4-.2z"/><path class="st0" d="M1258.6 448.2l-15.6.2c-2.6 0-5.2.1-7.8.1h-3.9l-3.9-.1-7.8-.1c-1.3 0-2.6-.1-3.9-.2H1204c-2.6 0-5.2-.1-7.8-.2-.4 0-.8-.4-.8-.8l.1-5.9c.1-2 0-3.9.1-5.9v-5.9l-.1-5.9c0-.4.3-.7.7-.7l31.3-.5h3.9c1.3 0 2.6 0 3.9.1 2.6.1 5.2.1 7.8.1 5.2-.1 10.4-.1 15.6-.2.7 0 1.2.5 1.2 1.2s-.5 1.2-1.2 1.2h-.1l-15.6.2h-3.9c-1.3 0-2.6 0-3.9-.1l-3.9-.1c-1.3 0-2.6-.1-3.9-.1l-31.3.1 1.2-1.2v11.8l.2 11.7-1.5-1.5c1.3 0 2.6 0 3.9-.1h3.9c2.6 0 5.2.2 7.8.3l3.9.1c1.3 0 2.6-.2 3.9-.1l7.8.2 3.9.1c1.3 0 2.6 0 3.9-.1 1.3-.1 2.6-.1 3.9-.2h3.9l7.8-.1h7.8c.7 0 1.2.5 1.2 1.2.1.8-.4 1.4-1 1.4z"/><path class="st0" d="M1237.3 473.2l-20.6.2-10.3.1h-10.3l-10.3-.1-5.2-.1h-2.6l-2.6-.1c-1.7-.1-3.4-.1-5.2-.1h-15.5c-.5 0-1-.4-1-1 0-2 .1-3.9.1-5.9l.1-5.9.2-11.7c0-.3.3-.6.6-.6h10.4l10.3-.1 20.6-.2 20.6-.2c3.4 0 6.9 0 10.3.1 3.4.1 6.9.1 10.3.1.5 0 1 .4 1 1l.2 23.5c.1.4-.5 1-1.1 1zm-1.3-2.4l-.2-22.3 1.4 1.4h-10.3l-10.3-.2H1154.7l1.3-1.3.2 11.7.1 5.9c0 2 .1 3.9 0 5.9l-1.5-1.5c1.7 0 3.4 0 5.2.1l5.2.2 5.2.2c1.7 0 3.4.1 5.2 0l2.6-.1 2.6.1 5.2.1 10.3.2c1.7 0 3.4 0 5.2-.1l5.2-.2c1.7-.1 3.4-.1 5.2-.1H1236zM1152.8 472.6L854.9 477l10-317.5h287.9z"/><path class="st21" d="M868.3 466.2c27.8-.4 54.9-13.5 70.2-34 15.2-20.4 19.3-47.3 40-63.4 26.3-20.4 67.9-14.9 98.1-30.5 37.1-19.2 36-64.1 68.2-89.2l2.4-84.3-277.5.3-1.4 301.1"/><path class="st5" d="M1008.8 162.3s0 4.9.1 13.4c0 4.3.1 9.5.1 15.4s.2 12.7.1 20v11.4c0 3.9-.1 8-.1 12.2 0 4.2-.1 8.5-.2 12.9 0 2.2-.1 4.4-.2 6.7-.1 2.2-.1 4.5-.1 6.8-.1 9.1 0 18.6-.2 28.2-.1 4.8-.2 9.6-.3 14.5-.1 2.4-.1 4.9-.2 7.3v7.3c0 9.8.2 19.5.3 29.1.1 9.6.2 19.1.3 28.2.1 9.1.2 18 .3 26.4 0 2.1.1 4.2.1 6.2v6c0 3.9-.1 7.8-.2 11.4-.2 7.3-.2 14-.1 20 .1 5.9.1 11.1.1 15.4.1 4.3.1 7.6.1 9.9 0 2.3.1 3.5.1 3.5h-4s0-4.9-.1-13.4c0-4.3-.1-9.5-.1-15.4-.1-5.9-.1-12.7 0-20 .1-3.7.2-7.5.2-11.4 0-2 .1-4 .1-6v-6.2c0-8.4 0-17.2-.1-26.4 0-9.1 0-18.6-.1-28.2 0-9.6 0-19.4-.1-29.1-.1-4.9-.2-9.8-.3-14.6-.1-4.9-.2-9.7-.2-14.5 0-2.4 0-4.8.1-7.2 0-2.4.1-4.7.2-7.1.1-4.7.4-9.4.5-13.9.1-2.3.2-4.6.1-6.8s-.2-4.5-.1-6.7c.1-4.4.2-8.7.3-12.9.1-4.2.2-8.3.2-12.2 0-3.9-.1-7.8-.3-11.4-.1-3.7-.2-7.2-.2-10.5s0-6.5-.1-9.5c0-5.9-.1-11.1-.1-15.4v-9.9-3.5h4.1z"/><path class="st5" d="M847.6 377.8s4.8-.1 13.1-.2c4.2-.1 9.2-.2 15-.2 5.8-.1 12.3-.2 19.5-.3 3.6 0 7.3 0 11.1-.1 3.8 0 7.8 0 11.9.1s8.3 0 12.6.1c2.1 0 4.3.1 6.5.2s4.4.1 6.6.1c8.9 0 18.1-.1 27.5 0 4.7.1 9.4.2 14.1.2 2.4 0 4.7.1 7.1.1h7.1c9.5-.1 19-.3 28.4-.5 9.4-.2 18.6-.3 27.5-.5 8.9-.2 17.5-.3 25.7-.5 2 0 4.1-.1 6-.1h5.9c3.8 0 7.6.1 11.1.1 7.1.1 13.7.1 19.5 0 5.8-.1 10.9-.2 15-.2 4.2-.1 7.4-.1 9.7-.2 2.2-.1 3.4-.1 3.4-.1v4s-4.8.1-13.1.2c-4.2.1-9.2.1-15 .2-5.8.1-12.3.2-19.5.1-3.6-.1-7.3-.1-11.1-.2-1.9 0-3.9 0-5.9-.1-2 0-4 0-6 .1-8.2.1-16.8.1-25.7.2s-18.1.2-27.5.2c-9.4.1-18.9.1-28.4.3l-14.3.3c-4.7.1-9.5.3-14.1.3h-7c-2.3 0-4.6 0-6.9-.1-4.6-.1-9.1-.3-13.6-.4-2.2 0-4.4-.1-6.6 0-2.2.1-4.4.2-6.5.1-4.3-.1-8.5-.1-12.6-.2s-8.1-.1-11.9-.1c-3.8 0-7.6.2-11.1.4-3.6.2-7 .2-10.2.3-3.3 0-6.3.1-9.2.1-5.8.1-10.9.1-15 .2-4.2 0-7.4.1-9.7.1h-3.4v-4zM863.9 268.1s4.5 0 12.3-.1c3.9 0 8.7-.1 14.1-.1s11.6-.2 18.3-.1H919c3.6 0 7.3.1 11.2.1s7.8.1 11.8.2c2 0 4.1.1 6.1.2 2.1.1 4.1.1 6.2.1 8.4.1 17 0 25.8.2 4.4.1 8.8.2 13.3.3 2.2.1 4.5.1 6.7.2h6.7c8.9 0 17.9-.2 26.7-.3 8.8-.1 17.4-.2 25.8-.3 8.4-.1 16.5-.2 24.1-.3 1.9 0 3.8-.1 5.7-.1h5.5c3.6 0 7.1.1 10.4.2 6.7.2 12.8.2 18.3.1 5.4-.1 10.2-.1 14.1-.1 3.9 0 7-.1 9.1-.1 2.1 0 3.2-.1 3.2-.1v4s-4.5 0-12.3.1c-3.9 0-8.7.1-14.1.1-5.4.1-11.6.1-18.3 0-3.3-.1-6.8-.2-10.4-.2-1.8 0-3.6-.1-5.5-.1h-5.7c-7.7 0-15.8 0-24.1.1-8.4 0-17 0-25.8.1-8.8 0-17.7 0-26.7.1l-13.4.3c-4.4.1-8.9.2-13.3.2-2.2 0-4.4 0-6.6-.1-2.2 0-4.3-.1-6.5-.2-4.3-.1-8.6-.4-12.7-.5-2.1-.1-4.2-.2-6.2-.1-2.1.1-4.1.2-6.1.1-4-.1-8-.2-11.8-.3-3.8-.1-7.6-.2-11.2-.2-3.6 0-7.1.1-10.4.3-3.3.1-6.6.2-9.6.2-3.1 0-5.9 0-8.7.1-5.4 0-10.2.1-14.1.1h-12.3v-4.1z"/><path class="st0" d="M833.5 189.9v23.5c0 4.9 0 10.3-.1 16.3 0 3-.1 6.1-.1 9.3-.1 3.2-.1 6.5-.2 10-.1 3.4-.1 6.9-.2 10.5-.1 3.6-.3 7.3-.3 11-.1 7.5-.2 15.2-.3 23l-.3 11.8c-.1 4-.2 7.9-.2 11.9-.1 8-.1 15.9-.1 23.8v44.5c0 6.8-.1 13.3-.3 19.3-.1 6-.3 11.4-.2 16.3v23.5c0 .7-.5 1.2-1.2 1.2s-1.2-.5-1.2-1.2v-10.9c0-7 0-16.9.2-28.9.1-6 .4-12.4.4-19.3.1-6.8.1-14.1.2-21.5.1-14.9.3-30.9.4-46.8v-23.8c.1-7.8.4-15.5.6-23 .2-3.7 0-7.4.1-11 .1-3.6.2-7.1.3-10.5.1-3.4.2-6.7.2-10 0-3.2 0-6.3-.1-9.3 0-1.5 0-3-.1-4.4V221c0-2.7 0-5.3.1-7.7 0-4.9.1-9.1.1-12.6 0-7 .1-10.9.1-10.9 0-.7.5-1.2 1.2-1.2.4.1 1 .6 1 1.3zM1281.5 132.8s-28.1-.1-70.2-.2c-5.3 0-10.8-.1-16.4-.1-5.7-.1-11.6-.1-17.6-.2-6-.1-12.2-.1-18.6-.2-6.3-.1-12.8-.3-19.4-.3-13.2-.1-26.8-.2-40.6-.3l-20.9-.3c-7-.1-14-.2-21-.2-28.1 0-56.2-.1-82.5-.1h-38c-12.1 0-23.5-.1-34-.3-10.5-.1-20.2-.3-28.8-.2H832c-.7 0-1.2-.5-1.2-1.2s.5-1.2 1.2-1.2h19.3c12.3 0 29.9 0 50.9.2 10.5.1 21.9.4 34 .4 12.1.1 24.8.1 38 .2 26.3.1 54.4.3 82.5.4h41.9c13.8.1 27.4.4 40.6.6 6.6.2 13.1 0 19.4.1 6.3.1 12.5.2 18.6.3 6 .1 11.9.2 17.6.2 5.7 0 11.2 0 16.4-.1 2.6 0 5.2 0 7.7-.1h7.4c4.8 0 9.4 0 13.6.1 8.6 0 16 .1 22.2.1 12.3 0 19.3.1 19.3.1.7 0 1.2.5 1.2 1.2.1.5-.4 1.1-1.1 1.1zM1237.3 271.3l-20.6.2-10.3.1h-10.3l-10.3-.1-5.2-.1c-1.7 0-3.4 0-5.2-.1-1.7-.1-3.4-.2-5.2-.2h-15.5c-.5 0-1-.4-1-1 0-2.3 0-4.5.1-6.8l.1-6.8c.1-4.5.1-9 .2-13.5 0-.3.3-.6.6-.6h10.4l10.3-.1 20.6-.2 20.6-.2h5.2c1.7 0 3.4 0 5.2.1 3.4.1 6.9.1 10.3.2.5 0 1 .4 1 1v6.8l.1 6.8.1 13.5c0 .4-.6 1-1.2 1zm-1.3-2.4l-.1-12.3c0-4.5-.1-9-.1-13.5l1.4 1.4h-5.2c-1.7 0-3.4-.1-5.2-.1l-5.2-.1c-1.7 0-3.4-.1-5.2 0h-61.8l1.3-1.3.2 13.5.1 6.8v6.8l-1.5-1.5c1.7 0 3.4.1 5.2.1l5.2.1 5.2.1c1.7.1 3.4 0 5.2-.1 1.7 0 3.4.1 5.2.1l5.2.1 5.2.1c1.7 0 3.4.1 5.2.1 1.7 0 3.4 0 5.2-.1l5.2-.1h10.4l18.9-.1z"/><path class="st0" d="M1155.9 215.9l11.3-.2c1.9 0 3.8-.1 5.7-.1h5.7l5.7.1c.9 0 1.9 0 2.8.2.9.1 1.9 0 2.8.1h8.5l2.8.1h.1c.4 0 .8.4.8.8l-.1 6.8c-.1 2.3-.1 4.5-.1 6.8v6.8l.1 6.8c0 .4-.3.7-.7.7l-22.6.5h-2.8c-.9 0-1.9-.1-2.8-.1-1.9-.1-3.8-.1-5.7-.1-3.8.1-7.5.1-11.3.2-.7 0-1.2-.5-1.2-1.2s.5-1.2 1.2-1.2h.1l11.3-.2h5.6l2.8.1c.9 0 1.9.1 2.8.1l22.6-.1-1.2 1.2v-6.8-6.8l-.2-13.5 1.5 1.5h-2.8c-.9 0-1.9 0-2.8-.1-1.9-.1-3.8-.2-5.7-.4-.9 0-1.9-.1-2.8-.1-.9.1-1.9.1-2.8 0l-5.7-.2c-.9 0-1.9-.1-2.8 0-.9 0-1.9.1-2.8.1-1.9.2-3.8.1-5.7.2l-5.7.1h-5.7c-.7 0-1.2-.5-1.2-1.2-.2-.4.3-.9 1-.9zM829.5 351.7l-20.6.2-10.3.1h-10.3l-10.3-.1-5.2-.1c-1.7 0-3.4 0-5.2-.1-1.7-.1-3.4-.2-5.2-.2h-15.5c-.5 0-1-.4-1-1 0-2.3 0-4.5.1-6.8l.1-6.8c.1-4.5.1-9 .2-13.5 0-.3.3-.6.6-.6h10.4l10.3-.1 20.6-.2 20.6-.2h5.2c1.7 0 3.4 0 5.2.1 3.4.1 6.9.1 10.3.2.5 0 1 .4 1 1v6.8l.1 6.8.1 13.5c0 .5-.6 1-1.2 1zm-1.3-2.4l-.1-12.3c0-4.5-.1-9-.1-13.5l1.4 1.4h-5.2c-1.7 0-3.4-.1-5.2-.1l-5.2-.1c-1.7 0-3.4-.1-5.2 0h-61.8l1.3-1.3.2 13.5.1 6.8v6.8l-1.5-1.5c1.7 0 3.4.1 5.2.1l5.2.1 5.2.1c1.7.1 3.4 0 5.2-.1 1.7 0 3.4.1 5.2.1l5.2.1 5.2.1c1.7 0 3.4.1 5.2.1 1.7 0 3.4 0 5.2-.1l5.2-.1h10.4l18.9-.1zM829.5 409.1l-20.6.2-10.3.1h-10.3l-10.3-.1-5.2-.1c-1.7 0-3.4 0-5.2-.1-1.7-.1-3.4-.2-5.2-.2h-15.5c-.5 0-1-.4-1-1 0-2.3 0-4.5.1-6.8l.1-6.8c.1-4.5.1-9 .2-13.5 0-.3.3-.6.6-.6h10.4l10.3-.1 20.6-.2 20.6-.2h5.2c1.7 0 3.4 0 5.2.1 3.4.1 6.9.1 10.3.2.5 0 1 .4 1 1v6.8l.1 6.8.1 13.5c0 .4-.6 1-1.2 1zm-1.3-2.4l-.1-12.3c0-4.5-.1-9-.1-13.5l1.4 1.4h-5.2c-1.7 0-3.4-.1-5.2-.1l-5-.2c-1.7 0-3.4-.1-5.2 0H747l1.3-1.3.2 13.5.1 6.8v6.8l-1.5-1.5c1.7 0 3.4.1 5.2.1l5.2.1 5.2.1c1.7.1 3.4 0 5.2-.1 1.7 0 3.4.1 5.2.1l5.2.1 5.2.1c1.7 0 3.4.1 5.2.1 1.7 0 3.4 0 5.2-.1l5.2-.1h29.1zM829.5 299.4l-20.6.2-10.3.1h-10.3l-10.3-.1-5.2-.1c-1.7 0-3.4 0-5.2-.1-1.7-.1-3.4-.2-5.2-.2h-15.5c-.5 0-1-.4-1-1 0-2.3 0-4.5.1-6.8l.1-6.8c.1-4.5.1-9 .2-13.5 0-.3.3-.6.6-.6h10.4l10.3-.1 20.6-.2 20.6-.2h5.2c1.7 0 3.4 0 5.2.1 3.4.1 6.9.1 10.3.2.5 0 1 .4 1 1v6.8l.1 6.8.1 13.5c0 .4-.6 1-1.2 1zm-1.3-2.4l-.1-12.3c0-4.5-.1-9-.1-13.5l1.4 1.4h-5.2c-1.7 0-3.4-.1-5.2-.1l-5.2-.1c-1.7 0-3.4-.1-5.2 0h-61.8l1.3-1.3.2 13.5.1 6.8v6.8l-1.5-1.5c1.7 0 3.4.1 5.2.1l5.2.1 5.2.1c1.7.1 3.4 0 5.2-.1 1.7 0 3.4.1 5.2.1l5.2.1 5.2.1c1.7 0 3.4.1 5.2.1 1.7 0 3.4 0 5.2-.1l5.2-.1h10.4l18.9-.1z"/><path class="st0" d="M791.1 378.5l-20.6.2-10.3.1h-10.3l-10.3-.1-5.2-.1c-1.7 0-3.4 0-5.2-.1-1.7-.1-3.4-.2-5.2-.2h-15.5c-.5 0-1-.4-1-1 0-2.3 0-4.5.1-6.8l.1-6.8c.1-4.5.1-9 .2-13.5 0-.3.3-.6.6-.6h10.4l10.3-.1 20.6-.2 20.6-.2h5.2c1.7 0 3.4 0 5.2.1 3.4.1 6.9.1 10.3.2.5 0 1 .4 1 1v6.8l.1 6.8.1 13.5c0 .4-.6 1-1.2 1zm-1.2-2.4l-.1-12.3c0-4.5-.1-9-.1-13.5l1.4 1.4h-5.2c-1.7 0-3.4-.1-5.2-.1l-5.2-.1c-1.7 0-3.4-.1-5.2 0h-61.8l1.3-1.3.2 13.5.1 6.8v6.8l-1.5-1.5c1.7 0 3.4.1 5.2.1l5.2.1 5.2.1c1.7.1 3.4 0 5.2-.1 1.7 0 3.4.1 5.2.1l5.2.1 5.2.1c1.7 0 3.4.1 5.2.1 1.7 0 3.4 0 5.2-.1l5.2-.1H771l18.9-.1zM791.1 325.1l-20.6.2-10.3.1h-10.3l-10.3-.1-5.2-.1c-1.7 0-3.4 0-5.2-.1-1.7-.1-3.4-.2-5.2-.2h-15.5c-.5 0-1-.4-1-1 0-2.3 0-4.5.1-6.8l.1-6.8c.1-4.5.1-9 .2-13.5 0-.3.3-.6.6-.6h10.4l10.3-.1 20.6-.2 20.6-.2h5.2c1.7 0 3.4 0 5.2.1 3.4.1 6.9.1 10.3.2.5 0 1 .4 1 1v6.8l.1 6.8.1 13.5c0 .4-.6 1-1.2 1zm-1.2-2.4l-.1-12.3c0-4.5-.1-9-.1-13.5l1.4 1.4h-5.2c-1.7 0-3.4-.1-5.2-.1l-5.2-.1c-1.7 0-3.4-.1-5.2 0h-61.8l1.3-1.3.2 13.5.1 6.8v6.8l-1.5-1.5c1.7 0 3.4.1 5.2.1l5.2.1 5.2.1c1.7.1 3.4 0 5.2-.1 1.7 0 3.4.1 5.2.1l5.2.1 5.2.1c1.7 0 3.4.1 5.2.1 1.7 0 3.4 0 5.2-.1l5.2-.1H771l18.9-.1z"/><g><path class="st0" d="M791.1 438.3l-20.6.2-10.3.1h-10.3l-10.3-.1-5.2-.1c-1.7 0-3.4 0-5.2-.1-1.7-.1-3.4-.2-5.2-.2h-15.5c-.5 0-1-.4-1-1 0-2.3 0-4.5.1-6.8l.1-6.8c.1-4.5.1-9 .2-13.5 0-.3.3-.6.6-.6h10.4l10.3-.1 20.6-.2 20.6-.2h5.2c1.7 0 3.4 0 5.2.1 3.4.1 6.9.1 10.3.2.5 0 1 .4 1 1v6.8l.1 6.8.1 13.5c0 .4-.6 1-1.2 1zm-1.2-2.4l-.1-12.3c0-4.5-.1-9-.1-13.5l1.4 1.4h-5.2c-1.7 0-3.4-.1-5.2-.1l-5.2-.1c-1.7 0-3.4-.1-5.2 0h-61.8l1.3-1.3.2 13.5.1 6.8v6.8l-1.5-1.5c1.7 0 3.4.1 5.2.1l5.2.1 5.2.1c1.7.1 3.4 0 5.2-.1 1.7 0 3.4.1 5.2.1l5.2.1 5.2.1c1.7 0 3.4.1 5.2.1 1.7 0 3.4 0 5.2-.1l5.2-.1H771l18.9-.1z"/></g><g><path class="st0" d="M876.4 477.1l-85.3.2 1.4-1.4v39.7l-1.4-1.4 29 .1c9.7.1 19.3 0 29 .2 4.8.1 9.7.1 14.5.1h43.5l58 .3 14.5.1h14.5l29-.1 115.9-.4c9.7 0 19.3-.1 29 0l29 .1c9.7 0 19.3.1 29 0l29-.1-1.1 1.1-.1-31.2c0-.7.5-1.2 1.2-1.2s1.2.5 1.2 1.2l.1 31.2c0 .7-.6 1.3-1.3 1.3l-58 .1-29-.2c-9.7-.1-19.3-.1-29-.1l-115.9.1h-29c-9.7 0-19.3 0-29 .1l-29 .1h-29l-29-.2-14.5-.1c-4.8-.1-9.7-.1-14.5 0l-7.2.1h-7.2l-14.5-.1-29-.2c-.5 0-.8-.4-.8-.8v-9.9l-.1-9.9-.2-19.9c0-.6.5-1.1 1.1-1.1l85.3-.1c.7 0 1.2.5 1.2 1.2-.1.6-.7 1.1-1.3 1.1z"/></g><g><path class="st11" d="M1051.4 373.1c9.9 3.4 19.3 7.4 26.2 14.8 9.9 10.8 17 24.7 25.6 36.6 10.5 14.4 21.5 28.5 32.9 42.2 1.4 1.7 2.9 3.4 4.8 4.4 5.4 2.7 13.3-4.1 18-6.3 6.2-3 11.5-7.6 17.5-11.1 12.7-7.4 25.3-14.8 38-22.3 7.5-4.4 15.6-10.9 24.1-13 9.2-2.2 9.6.8 17.5 5.5.3.2-42.1 44.8-46.3 48.5-18.3 16.1-38.1 30.5-59.1 42.8-9.9 5.8-19.7 2.3-28.6-3.7-14.6-9.9-28.3-21.3-40.6-34-11.2-11.5-20.1-28.6-34-36.7"/><path class="st8" d="M1009.2 322.8c-5 5.7-10.8 14.7-10 22.6 1.2 12.1 16.6 20.4 27.2 22.7 7.8 1.7 14.1 2.4 24.9 6.2l5.5 66.8c-8.9-3.9-20.5 1.8-29.4 3.4-13.8 2.5-22.2-1.4-33.6-8.5-6-3.7-12.8-5.8-19.7-7.4-17-4.1-27.6 1.7-41 12.9-7.7 6.4-14.2 14.8-16.8 24.5-.3-9.7-.6-19.5 1.1-29 .8-4.8 2.2-9.6 3-14.4 2.2-14-4.1-31.5.5-44.6 6-17.1 26.3-15.7 39.7-23.7 16.1-9.6 23.2-34.1 15.3-51.3M1061.8 576.1c-6.8-11.2-6.1-25.3-3.8-38.2s6.2-25.8 5-38.8c-32.9 7-66 13.1-99.2 18.4 2.2 18.5-9.3 35.5-13.8 53.6-.3 1.1-.5 2.4 0 3.4.7 1.5 2.6 2 4.2 2.3 35.2 7 73.1 13.7 105.9-.7"/><path class="st12" d="M939.2 671h171.7v22.4H939.2zM1122.8 965.9c.3.8.6 1.6.8 2.4-29.7 6.2-62.3 3.4-92.7 3.1-34-.3-75 1.3-107.9-4.2 1.8-4.8 4.5-10.3 10.9-12 2.6-.7 5.5-.6 8.3-.5 54.7 1.6 111.2 3.7 165.9 2.2 1.9-.1 3.9-.1 5.7.3 5 .9 7.5 4.8 9 8.7zM1113.3 883.6c-27.9 9.2-158.7 1.7-177.9 1.4-1.6 0-3.7-.2-4.3-1.3-.4-.7-.1-1.4.3-2.1 1.6-3.4 3.6-7.1 8.1-8.8 3.2-1.2 7-1.3 10.6-1.3 50.1-.1 100 2.7 150.1 1.2 4-.1 8.1-.2 11.7.8 3.7 1 6.9 3.5 6.6 6.3-.2 1.4-2.1 2.7-5.2 3.8z"/><path class="st12" d="M975.4 682.7c-18 119.5-31.7 228.2-46.8 348 5.2 0 20.3 2.8 24.1-2.2 1.5-2 1.9-4.6 2.2-7.1 6.9-55 9.4-98.6 15.8-153.4 7-60.5 15.2-120.8 24.6-180.9"/><path class="st11" d="M1112.2 821.9c-4.6 3.9-9.2 7.8-13.7 11.7-3.3 2.8-6.9 6.1-7.3 10.4-.3 3.6 1.6 6.9 3.5 10 2.2 3.6 4.7 7.5 8.7 8.8 4 1.3 8.7 1.5 10.6 6.1 1.2 2.7.1 6.3-2.5 7.5-1.2.6-2.6.7-3.9.5-3.9-.3-9.9-.5-12.9-3.2-5.1-4.6-10.3-9.3-15.4-13.9-3.4-3.1-7-6.3-9-10.5s-2.2-9.5.7-13.1c2.9-3.5 8-4.4 11.2-7.6 1.8-1.8 2.8-4.1 3.9-6.4 4.3-9.5 7.9-19.1 13.9-27.6"/><path class="st9" d="M1001 578.7c6-6.9 15.7-9.4 24.8-10.4 10.9-1.1 21.1-1.8 31.6-5.3-.3.1 2.8 6.3 3.2 6.9 2.2 3.1 4.7 5.9 7.5 8.4 11.1 9.7 25.8 13.9 39.7 18.2 26.6 8.2 57.5 15.3 80.4 31.7 22.3 16 43.4 34.5 58.1 58 1.1 1.8 2.3 3.8 2.3 6 0 1.6-.7 3.2-1.3 4.7-23.9 55-82.6 85.9-128.4 120.6-13.8 10.4-22 19.1-34 31.6.3-.3-4.1-24-2.7-28.7 6.1-21.6 21.5-55.6 34.8-73.2 7.3-9.6 29.8-47.3 43-46.9-81.2-14.4-91.4-21.6-126.5-44-27.4-17.5-29.9-39.9-30.8-70"/><path class="st22" d="M1066 674.5c-13-6.8-24.6-15.7-32.3-27.7-6.2-9.7-4.4-19.9-4.4-31 0-.5.1-1 .5-1.3.5-.3 1.1.1 1.6.5 35.8 29.2 71.9 58.3 117.8 69.7 5 1.2 10.2 2.3 15.3 1.4 6.4-1.2 11.8-5.5 18.1-7.2 7.6-2.1-2.1 9-2.2 11.1 3.9 0 7.8.2 11.6 1.6-2.2 2.7-5.5 4.5-8.9 5.1 4.2 2.6 8.5 5.3 12.7 7.9-10.5 8.7-16.4 21.6-22.8 33.6-20.5 38.3-49.9 71.9-85.2 97.4-4.9-9.1-2.8-20 .6-29.3 6.8-18.7 14.5-38.4 25.3-55.2 12.3-19 26.3-37.6 44.2-51.7-2 1.6-18.9-3.1-21.7-3.6-8.1-1.4-16.1-3-24.1-5-14.9-3.8-31.4-8.7-46.1-16.3z"/><path class="st12" d="M1059.4 685.9c11.4 117 14.1 214.5 33.3 330.5.3 1.6 1.9 13.4 3.3 14.3.9.6 2.1.6 3.3.6 6.9.1 13.8.1 20.6.2-.9-5-17.1-144.6-19-159.2-8.3-62.2-15.3-124.5-21.1-187"/><path class="st23" d="M1029.6 865.6c-2.8 7.1-1.9 15-.9 22.5 2 15.5 5.3 30.8 6.9 46.4.1 1.2.3 2.5.1 3.7-.4 2.8-2.2 5.1-3.8 7.4-1.4 1.9-2.7 4-3.2 6.3-1.4 7.2 8.3 8.9 13.4 10.8 6.7 2.5 13.6 4.6 19.5 8.7 2.2 1.5 5 3.4 7.4 2.2 1.3-.6 2-1.9 2.6-3.3 6.3-16.2-11.9-18.1-20.8-25.2 3-18.1 7.2-35.8 10.2-53.9"/><path class="st24" d="M1052.3 917c1-2.6 2.3-5.1 3.9-7.2.5-.7 1.2 4.8 1.1 5.1-.2 2.6-1.2 5.1-1.7 7.6-1.7 7.4-3.5 14.9-4.6 22.4.1-.5 12.6 6.5 13.4 6.9 1.4.7 2.8 1.4 3.6 2.8-2.8.3-5.3-1.4-7.9-2.4-3-1.2-6.2-1.6-9.4-2-3.5-.4-7.1-.8-10.6-1.2 3.7-6.1 6.1-12.8 8.3-19.6 1.3-3.9 2.3-8.4 3.9-12.4z"/><path class="st10" d="M936.4 596.7c-5 12.2-9.7 24.7-10.8 37.9-1.1 13.1 1.9 27.1 10.8 36.9 11.9 13.2 27.3 21.7 41.4 32.1l31.8 23.4c4.5 3.3 17.2 8.9 17.9 15.1.2 2.1-.5 4.2-1.2 6.2-8.6 23.9-12.4 48.5-11.2 74.1.7 15.5 3.1 30.8 5.9 46 2.4 13 8 27.2 8 40.4 1.9 13.4 20.5 8.4 29.6 5.2 3.4-1.2 7.1-37.7 8-42.6 3-15.3 6.1-30.6 9.6-45.8 6.8-29.8 15.3-56.8 26.6-85.1.7-1.8 1.4-3.7 1.3-5.6-.1-1.8-.9-3.4-1.6-5-8.9-18.7-19-35.8-30.2-53.2-10.7-16.6-21.4-37.4-35.4-51.4-.8-1-1.5-2.1-1.9-3.4-.3-1-.2-2.2-.2-3.2.4-8.3 3.8-15.9 5.5-24 2-9.2 3.2-18.6 3.6-28-17.8.3-35.5.1-53.3-.5-7.9-.3-16.6-2.7-24.2-4.9-2.2-.6-4.4-1.3-6.7-.9-10.1 1.8-20 28.3-23.3 36.3z"/><path class="st5" d="M1067.7 532.8c.5 4.3 2.1 8.7 2.1 13.1 0 1.2 0 2.5-.7 3.4-1.1 1.6-3.3 1.7-5.2 1.7-15.5.5-30.3 6.5-44.5 13-14.1 6.5-28.3 13.5-43.6 16.2-15.3 2.7-32.4.3-43.9-10.1-.8-.7-1.6-1.5-1.8-2.6-.3-1.3.4-2.7 1.1-3.9 8.7-15.7 11.3-31.8 13.6-49.4 2.6-21.1 1.3-43.4-9.3-62.5-1.3-2.3-2.8-4.7-2.8-7.3 0-2.6 1.5-5.1 2.8-7.5 11.3-20.8 14.6-55.8-5.5-71.6 5.8-2.3 9.2-4.6 15-6.9 24.6 15.1 20.9 53.8 55.3 61.8 7.5 1.8 16.8 3.5 24.4 2.2 6.6-1.1 13.9-2.7 17.8-8.1 5-6.9 3.6-16.5.3-24.4-3.3-7.9-9.7-20.2-7.4-22.1 5.1 1.4 7.7.5 12.7 2.3 1.6.6 3.3 1.2 4.4 2.6 1.1 1.3 1.4 3 1.7 4.6 2 11.5 7.4 23.2 12.1 33.6 4.8 10.8 9.8 22.5 9.8 34.8.2 10.7-2.2 18.6-4.7 29.1-2.9 12.2-5.5 24.7-5.3 37.1-.1 7.1.9 14 1.6 20.9z"/><path class="st25" d="M1069.5 435.4c4.1-7.4 18.7-34.5 9.4-38.8-4-1.8-9.2 2.7-9.5 2.8.3-.1-6.3-2.5-5.9-3 4.6-5.7 7.1-11.6 14.7-13.4 7.4-1.8 16.2 1.8 22.8 5.2 3.3 1.7 5.2 2.8 7.6 5.6 1.5 1.8 1.8 7.7 2.1 7.5 3.4-3.3 5.9-4.8 9.4-3.6 9.3 3.3-9.8 33.1-12.8 10.5 0 .4-9.5-.2-15.2 7.4-5.6 7.7-9.9 15.1-13 23.8"/><path class="st26" d="M1044.5 523.5c.9-6.6 2.6-13 4.8-19.2 4-11.3 9.6-22 15.3-32.6 2.8-5.3 5.7-10.5 8.5-15.8 1.3-2.6 2.7-5.1 3.9-7.8 1.2-2.6 2.4-5.2 3.7-7.8.1-.2.2-.4.1-.6 0-.2-.2-.3-.3-.4-3.4-3.3-8.8-3.9-13.3-4.7-5.6 10-10.2 20.6-14.4 31.3-3.8 9.7-8.3 18.9-13.3 28.1-8.6 15.8-21.3 25-5.5 35.2 2.3 1.5 5.4 3 7.8 1 2.1-1.6 2.4-4.3 2.7-6.7z"/><path class="st8" d="M1012.1 341.3c2.3.7 4.7 1.3 7.1 1 3.3-.5 6.1-2.9 8.4-5.3 14-14.2 24.2-33.3 28.3-52.8 2.8-13.7 3.6-33.3-6.5-44.4-14.6-16.1-36.3-6.2-49.8 5.9-5.9 2.9-12.4 12.6-15.4 18.3-.7 1.3-1.5 2.7-2.8 3.5-2.2 1.3-5 .3-7.5.3-11.4 0-13.4 16.4-13.9 24.7-.1 2.3-.2 4.8 1 6.7 1.1 1.9 3.2 3 5.2 3.8 2 .8 4.1 1.5 5.9 2.9 3.2 2.5 2.9 7.5 3.9 11.2 1.2 4.4 2.7 9 6.4 12 8.3 6.6 19.7 9.1 29.7 12.2z"/><path class="st9" d="M1047.6 296.9l3.8 17.4-11.8 4.2zM964.6 286.5c.4-4.2.7-10 4.6-12.6 8.3-5.4 11.6 9.4 19.1 10.1 17.1 1.6 28.8-12.2 40.2-22.7 1.3-1.2 2.7-2.5 4.5-2.7 2-.3 4 .8 6.1.8 4.5.1 8.5-4.7 12.9-3.7 3.5.8 6.3 4.3 9.6 1 2.2-2.1 2-7.9 1.8-10.6-.5-8.1-4.8-16-11.6-20.4-4.6-3-10.3-4.6-13.9-8.7-2-2.3-3.2-5.2-5.1-7.6-5.9-7.4-15.3-7.2-23.8-8.1-9.8-1-18.3-2.2-27.4 2.6-6 3.2-11 8-17.2 10.7-6 2.6-12.9 3-18.8 5.8-10.9 5.3-16.5 17.9-15.3 29.4.6 5.9 1.7 11.9 0 17.5-1.7 5.4-5.8 9.7-9.9 13.6-4.1 3.9-8.4 8-10.6 13.2-2.3 5.7-.6 13.5 1.3 19.3 3.2 9.5 10.9 7.6 16.9 13.4 3.9 3.8 3.9 10.6 8.1 14 1.5 1.2 3.4 1.9 5.2 2.4 12.2 3.5 32.3 6.3 43.2-1.9 3.3-2.5 6.2-5.7 8-9.5 1.7-3.8 2.2-8.2.9-12.2-.6-1.7-1.5-3.4-2.8-4.5-2-1.6-4.6-2.1-6.8-3.4-4.4-2.8-3.6-7-4.6-11.2-1.4-.2-2.8 0-4.3 0-1.5.1-3 .2-4.4-.4-5.1-2.1-6.4-8-5.9-13.6z"/><path class="st8" d="M941.2 403.5c4.9 25.8-34.3 92.5-16.5 99.6 24.7 9.9 113.3-23.1 113-23.9 2 7.1-.4 13.7-6.1 18.4-17.4 14.2-49.8 37.9-86.5 45.8-23.4 5-59.3.9-67-15.9-4.8-10.6-4.8-26.2-4.4-37.8.9-28.5 6.7-50.7 16-77.5 8-23 18.7-35.6 40-45.7"/><path class="st8" d="M1012.3 493.3c6.9-.1 12.8-4.6 17.7-9.5s9.5-10.2 15.8-13c5.4-2.4 11.8-2.5 17.3-.3.9.3 1.8.8 2.4 1.4 2.1 2.2 1.2 5.8-.5 8.3-3.5 5.3-4.3 16.6-10.6 19.5-5.7 2.6-11.6-3.8-17.4-3.8-7.6 0-15.9 6.4-21.9 10.4"/></g><g><path class="st27" d="M1744.5 753.9h23.1V1031h-23.1z"/><path class="st28" d="M1158.8 724h591.3v35.4h-591.3z"/><path class="st27" d="M1147.5 753.9h23.1V1031h-23.1z"/><path class="st28" d="M1158.8 937.8h591.3v16.4h-591.3z"/><path class="st29" d="M1738.8 635.9h34.4v342.4h-34.4zM1141.8 635.9h34.4v342.4h-34.4z"/><path class="st30" d="M1088.1 617.8h732.8v35.4h-732.8z"/><path class="st31" d="M1087.8 647.6c14.3-10.1 32.8-12.7 50.3-11.6 17.5 1 34.7 5.2 52.1 7.2 22.4 2.5 45.3 1.3 67.4-3.5 21.6-4.7 45-14.3 65.7-21.4"/><path class="st31" d="M1087.5 634.6c12.6-9.9 30.1-10.9 46-8.7 15.9 2.2 31.5 7.1 47.5 7.4 17.1.3 34.3-5 48.3-14.8M1264.4 654.2c14.3-5.5 28.5-10.1 42.8-15.6 14.4-5.6 29.2-11.3 44.6-11.7 28.5-.8 55.5 16.2 83.9 14.1 6.9-.5 13.8-2.2 20.7-1.9 13.2.6 23.4 11.9 37 14.1"/><path class="st31" d="M1303.9 652.9c26.2-10.8 65.7-9.5 93.9-6.6 18.8 1.9 37.5 5 56.2 7.2M1396.3 618.4c14.1 4.7 27 13.1 42.2 13.2 9.9 0 19.8-1.8 29.8-1.4 23.5.9 45.7 14.1 69.2 12.8 16.4-.9 31.5-8.8 47.3-13.1 24.3-6.7 50.2-5.2 74.8-10.6M1537.8 653.2c11.9-3.2 24.5-2.3 36.9-3.4 22.7-1.9 44.1-10.1 65.8-16 20.2-5.5 40.2-5.8 60.6-8.9 6.5-1 13.9-3 16.6-9M1611.3 653.8c4.5-5.1 9.6-7.8 16.3-9 42.1-7.5 88.2-4.2 124.4-27M1666.4 653.1c20.8-7.5 43.3-10.1 65.2-12.9 21.9-2.8 44.6-8.4 60.7-23.6M1751.5 653.7c9.8-6.3 19.7-13.7 30.6-17.7 12.3-4.5 25.4-5.8 38.4-7.2M1797.1 654.6c7.6-2.9 15.4-9.2 23.3-10.8M1103.7 653.4c18.8-9.9 42.5-9.7 61.1.4"/><path class="st31" d="M1450 616.8c4.1 4.5 10.5 6 16.6 6 6 .1 12.1-1.1 18.1-.9 4.1.1 8.1.9 12.1 1.7 17.8 3.4 33.6 4.8 51.7 3.1 9.1-.9 18.2-2.3 27.1-4.2 2.9-.6 22-6.6 23.5-5.3"/><circle class="st27" cx="1756" cy="920.2" r="4"/><circle class="st27" cx="1756" cy="946.9" r="4"/><circle class="st27" cx="1756" cy="893.5" r="4"/><circle class="st27" cx="1159" cy="920.2" r="4"/><circle class="st27" cx="1159" cy="946.9" r="4"/><circle class="st27" cx="1159" cy="893.5" r="4"/></g><g><path class="st12" d="M1797.3 1033h-.7c-.2 0-.5 0-.8-.1-.3 0-.7-.1-1.1-.1-.2 0-.4.1-.6.2-.2 0-.5 0-.7-.1-.2-.1-.5-.2-.8-.2-.3 0-.5 0-.8.1-.6.1-1.2.2-1.8.4-.3.1-.6.1-1 .1-.3 0-.7-.1-1-.2-.4-.1-.7-.1-1.1 0-.4.1-.7.2-1.1.2-.8 0-1.5-.3-2.3-.4-.8-.1-1.6-.1-2.5.2-.2.1-.4.1-.6 0l-.6-.3h-.3c-.1 0-.2.1-.3.1-.2.1-.4 0-.7.1-.9 0-1.8-.1-2.7-.2h-1.4c-.5 0-.9 0-1.4-.2-.5-.2-.9-.3-1.4 0-.5.2-.9.1-1.4 0-.5-.1-.9-.3-1.4-.3-.5 0-.9.1-1.4.1-.9.1-1.9 0-2.8 0-.5 0-.9-.1-1.4-.1-.5 0-.9.1-1.4.2-.9.2-1.8.3-2.7.5-.9.1-1.8.2-2.7-.1-.9-.2-1.7.1-2.6.2-.2.1-.4.1-.6.1-.2 0-.4.1-.6 0-.2 0-.4-.1-.6-.1h-.6c-.4 0-.8.2-1.2.2-.4 0-.8-.1-1.2-.3-.8-.4-1.5.2-2.2-.1-.4-.1-.7-.1-1 0-.3.2-.7.1-1 .1-.6-.2-1.2-.3-1.8-.3-.6.1-1.1.3-1.6.1-.2-.1-.5-.1-.7-.1-.2 0-.4 0-.6.1-.8.3-1.5.3-1.9.3h-.7v-2.4h.7c.4 0 1.1 0 1.9.2h.6c.2 0 .5-.1.7-.2.2-.1.5-.1.8-.1.3 0 .5.1.8.2.6 0 1.2-.1 1.8-.4.3-.1.6-.1 1 .1.3.3.7.3 1 .1.7-.4 1.4.5 2.2.1.4-.1.8-.3 1.2-.2.4 0 .8.2 1.2.2.2 0 .4.1.6 0l.6-.1c.4 0 .8 0 1.3.1.8.1 1.7.4 2.6.1.9-.4 1.8-.4 2.7-.3.5 0 .9.1 1.4.1.5 0 .9.1 1.4.3.5.2.9.3 1.4.2.5-.1.9-.3 1.4-.3.9-.1 1.9-.3 2.8-.2.5.1.9.3 1.4.3.2 0 .5 0 .7-.1l.7-.3c.2-.1.5-.2.7-.2.2-.1.5 0 .7.2.5.5.9.4 1.4 0 .5-.3.9-.4 1.4-.3.5.1.9.1 1.4.2.9 0 1.8 0 2.7.1.2 0 .4 0 .7.1.1.1.2.1.3.2h.3c.2 0 .4-.2.6-.2h.6c.8.3 1.7.3 2.5.4.8 0 1.6 0 2.3-.1.8 0 1.5.2 2.2-.1.4-.1.7-.2 1-.2h1c.6.1 1.2.2 1.8.2h.8c.3 0 .5-.1.8-.2.2-.1.5-.1.7-.1.2 0 .4.1.6.1.4 0 .8-.1 1.1-.1.3-.1.6-.1.8-.1.4 0 .7-.1.7-.1v2.7z"/></g><g><path class="st12" d="M1255.7 1033h-2c-.6 0-1.4 0-2.4-.1-.9-.1-2-.1-3.2-.1-.6 0-1.2.1-1.9.2-.7 0-1.4 0-2.1-.1-.7-.1-1.5-.2-2.3-.2-.8 0-1.6 0-2.4.1-1.7.1-3.4.2-5.3.4-.9 0-1.9.1-2.9.1s-2-.1-3-.2-2.1-.1-3.1 0c-1.1.1-2.2.2-3.3.2-1.1 0-2.2-.1-3.4-.2-1.1-.1-2.3-.1-3.5-.2-2.4-.1-4.8-.1-7.2.2-.6 0-1.2.1-1.9 0-.6-.1-1.3-.2-1.9-.2-.6-.1-1.3 0-1.9.1-.6.1-1.3 0-1.9 0-2.6 0-5.2-.1-7.8-.2h-4c-1.3 0-2.7 0-4-.2-1.3-.2-2.7-.3-4.1 0-1.4.2-2.7.1-4.1 0-1.4-.1-2.7-.3-4.1-.3-1.4 0-2.7.1-4.1.1-2.7.1-5.5 0-8.2 0-1.4 0-2.7-.1-4.1-.1-1.4 0-2.7.1-4.1.2-2.7.2-5.4.3-8 .5-1.3 0-2.6.1-3.9.1h-1.9c-.6-.1-1.3-.1-1.9-.2-2.6-.2-5.1.1-7.6.2-.6.1-1.2.1-1.8.1-.6 0-1.2.1-1.8 0-.6 0-1.2-.1-1.8-.1h-1.8c-2.4.1-4.6.3-6.9-.1-2.2-.4-4.4.2-6.4-.1-2.1-.4-4 .4-5.9.1-1.9-.2-3.7-.3-5.3-.3-1.7.1-3.2.3-4.7.1-1.4-.1-2.8-.2-4-.1-1.2.1-2.3.2-3.2.3-.9 0-1.7.1-2.4.1h-2v-2.4h4.4c.9 0 2 .1 3.2.2 1.2.1 2.5 0 4-.2.7-.1 1.5-.1 2.3-.1.8 0 1.6.1 2.4.2 1.7 0 3.4-.2 5.3-.4.9-.1 1.9-.1 2.9.1 1 .3 2 .3 3 .1 2.1-.4 4.2.4 6.4.1 2.2-.4 4.5-.2 6.9 0 1.2.1 2.4 0 3.6-.1h1.8c.6 0 1.2 0 1.8.1 2.5.1 5 .4 7.6.1.6-.1 1.3-.2 1.9-.2.6 0 1.3-.1 1.9-.1h3.9c1.3 0 2.7.1 4 .1 1.3 0 2.7.1 4 .3 1.3.2 2.7.3 4.1.2 1.4-.1 2.7-.3 4.1-.3 2.7-.1 5.5-.3 8.2-.2 1.4.1 2.7.3 4.1.3 1.4.1 2.7-.2 4.1-.4.7-.1 1.4-.2 2-.2.7-.1 1.4 0 2 .2 1.4.5 2.7.4 4.1 0 .7-.2 1.3-.2 2-.3.7-.1 1.3 0 2 0 1.3.1 2.7.1 4 .2 2.6 0 5.3 0 7.8.1.6 0 1.3 0 1.9.1.6.2 1.3.3 1.9.2.6 0 1.3-.2 1.9-.2h1.9c2.5.3 4.9.3 7.2.4 2.4 0 4.6 0 6.9-.1 1.1 0 2.2.1 3.3.1 1.1 0 2.1 0 3.1-.1 4.1-.5 7.9 0 11.2.1.8 0 1.6.1 2.4 0 .8 0 1.5-.1 2.3-.2.7-.1 1.4-.1 2.1-.1.7 0 1.3.1 1.9.1 1.2 0 2.3-.1 3.2-.1.9-.1 1.7-.1 2.4-.1 1.3 0 2-.1 2-.1v2.5z"/></g><g><path class="st32" d="M1138.3 441.3c.3-4.4-.7-8.9-2.7-12.8M1131.3 430.3c2.6-.6 4.8-2.5 5.7-5-.5-.2-.9-.4-1.4-.6-1.8 1.2-3.2 2.8-4.4 4.7"/></g><path class="st32" d="M1385.1 611.4l20.4 2.1c-.3-1.5.1-2.9.9-4.2.7.1 1.4.4 1.9.9-.4 2.1-.8 4.2-1.3 6.4-.8 0-1.6 0-2.4.1-.2-1 0-2.1.6-3M1395.6 616.7c-6.7-1.5-13.3-3-20-4.6.1 1.6-.5 2.8-1.4 4-.7-.1-1.3-.6-1.7-1.1.7-2.1 1.3-4.1 2-6.2.8.1 1.6.2 2.4.2.1 1-.3 2.1-.9 2.9M1339.6 615.9c6.7-1.1 13.5-2.3 20.2-3.4-.7-1.4-.6-2.8-.2-4.3.7-.1 1.4 0 2 .4.2 2.2.3 4.3.5 6.5-.8.2-1.5.5-2.3.7-.5-.9-.6-2.1-.2-3"/><g><path class="st33" d="M1284.1 450.2l-75.4-59.8-75.4 59.8v154.5h150.8z"/><path class="st33" d="M1282.9 450.8l-8.9-7.2-9.4-7.6c-1.6-1.3-3.1-2.5-4.7-3.7l-4.8-3.7c-1.6-1.2-3.1-2.5-4.7-3.8l-4.6-3.9c-1.6-1.3-3.1-2.5-4.7-3.8l-4.8-3.7-9.5-7.3-9.5-7.3-4.8-3.7-4.7-3.8h1.7l-9.5 7.3-9.3 7.6c-1.6 1.3-3.1 2.6-4.7 3.8l-4.8 3.7-9.5 7.3c-3.2 2.4-6.4 4.9-9.5 7.4l-9.4 7.5-9.3 7.6c-1.5 1.3-3.1 2.5-4.7 3.7-1.6 1.2-3.3 2.3-4.8 3.6l.4-.8c0 1.6-.1 3.2 0 4.8.1 1.6.1 3.2.1 4.8l-.1 9.7-.1 19.3v19.3c0 3.2 0 6.4-.1 9.7l-.3 9.7c-.1 3.2-.1 6.4 0 9.7.1 3.2.2 6.4.1 9.7l-.4 19.3v9.7l.1 9.7v19.4l-.6-.6h9.4l9.4.1h9.4c3.1 0 6.3-.1 9.4-.1l9.4-.2 9.4-.1c6.3-.1 12.6-.2 18.9-.2l9.4-.1c3.1 0 6.3.1 9.4.1l9.4.1c3.1.1 6.3 0 9.4 0l18.9-.3c3.1 0 6.3-.1 9.4 0l9.4.1-1.2 1.2-.2-19.3.2-9.7.1-4.8v-4.8c0-3.2-.1-6.4 0-9.7l.2-9.7c0-3.2-.2-6.4-.2-9.7-.1-1.6 0-3.2 0-4.8l.1-4.8c.1-3.2.1-6.4.2-9.7 0-3.2.1-6.4 0-9.7l-.1-9.7c0-3.2.1-6.4.1-9.7 0-3.2.1-6.4 0-9.7l-.2-9.7c-.1-3.2-.1-6.4-.1-9.7l.3-8.8zm2.4-.6v9.7c0 3.2 0 6.4-.1 9.7l-.1 9.7c-.1 3.2 0 6.4.1 9.7.1 3.2.2 6.4.2 9.7l-.1 9.7c-.1 3.2 0 6.4 0 9.7 0 3.2.1 6.4.2 9.7.1 1.6.1 3.2.1 4.8 0 1.6.1 3.2 0 4.8-.1 3.2-.4 6.4-.4 9.7 0 3.2.2 6.4.2 9.7 0 3.2-.1 6.4-.2 9.7l-.1 4.8.1 4.8.2 9.7-.3 19.3c0 .6-.5 1.1-1.1 1.1-3.1 0-6.3.1-9.4.1-3.1.1-6.3 0-9.4 0l-18.9-.2c-3.1 0-6.3-.1-9.4 0-3.1 0-6.3.2-9.4.3-6.3.2-12.6.2-18.9.2h-9.4l-9.4-.1c-3.1 0-6.3 0-9.4-.1l-9.4-.2c-3.1-.1-6.3-.2-9.4-.2-3.1 0-6.3.1-9.4.1-3.1.1-6.3.2-9.4.2l-9.4.1c-.6 0-1.2-.5-1.2-1.1l-.1-9.7c0-3.2-.1-6.4 0-9.7 0-3.2.2-6.4.2-9.7.1-3.2.1-6.4.1-9.7l-.1-4.8-.2-4.8c-.1-3.2-.3-6.4-.3-9.7-.1-3.2 0-6.4.3-9.7.3-3.2.3-6.4.2-9.7-.1-3.2-.4-6.4-.4-9.7-.1-3.2-.1-6.4 0-9.7.1-6.4.2-12.9.2-19.3l.1-19.3v-9.7c0-1.6.1-3.2.2-4.8.1-1.6.1-3.2.1-4.8 0-.3.1-.6.3-.7 1.6-1.3 3.1-2.6 4.6-3.9 1.5-1.3 3.1-2.5 4.7-3.7l9.6-7.3 9.5-7.4c3.2-2.5 6.3-5 9.4-7.5l9.4-7.5c3.1-2.5 6.3-5 9.4-7.5l9.4-7.5 9.3-7.7c.3-.3.8-.3 1.2 0l4.8 3.7 4.7 3.8 9.4 7.6 9.4 7.6 4.7 3.8c1.5 1.3 3.2 2.5 4.8 3.7l4.8 3.6c1.6 1.2 3.2 2.4 4.8 3.7l4.7 3.8c1.5 1.3 3.1 2.5 4.7 3.7l9.5 7.4 9.5 7.4c.1-.1.2.2.2.6z"/><path class="st34" d="M1132.2 550.2c10.9-2.8 19.9-12.1 22.3-23.2 2.1-9.9-.7-20.9 3.9-29.9 3-6 8.9-10 12.6-15.6 3.1-4.6 4.6-10.1 6.9-15.1 4.6-9.9 12.6-18.3 22.3-23.3 7.4-3.8 16.8-5.6 23.7-1 3.8 2.5 6.4 6.6 10.5 8.4 5.2 2.4 11.9.7 16.4 4.3 4.5 3.6 4.4 10.9 8.7 14.9 5.8 5.4 15.3 1.3 21.6-3.5 1.9-1.5 3.9-3.1 4.8-5.3 2.3-5.7-3-11.4-7.8-15.3-21.2-17.1-42.5-34.2-63.7-51.3-1.9-1.5-4.1-3.2-6.6-2.9-1.7.2-3.2 1.3-4.6 2.4-15.2 11.9-30.5 23.7-45.7 35.6-5.9 4.6-11.8 9.2-16.9 14.6-2.1 2.2-4.1 4.6-5.2 7.5-1 2.6-2.3 5.4-2.4 8.2-1.2 30.3.2 59.4-1 89.7"/><path class="st35" d="M1209.4 390.7s0-.1-.1-.2c-.1-.2-.2-.3-.3-.7-.3-.8-.4-2-.1-3.3.1-.6.4-1.3.7-2 .4-.6.7-1.3 1.1-2 .3-.7.7-1.5 1.1-2.3l.3-.6.1-.1v-.1l.2-.3.3-.6c.1-.2.2-.4.3-.5.7-1.5 1.2-3.4 1.3-5.4 0-2-.3-4.1-1.2-6.2-.4-1-1.1-1.9-1.8-2.8l-.6-.7-.6-.5-1.5-.9c-2.1-1-4.6-1.7-7-1.2-1.2.2-2.3.5-3.4 1.1-1 .6-2 1.3-2.6 2.4-.5 1-1.1 2-1.3 3.1-.3 1.1-.4 2.2-.4 3.3 0 2.2.8 4.3 1.4 6.2.2.5.4.9.6 1.4.2.4.5.9.8 1.3.6.8 1.2 1.5 1.9 2.1.7.6 1.3 1.2 1.9 1.8.6.6 1.2 1.1 1.8 1.6 1.2.9 2.4 1.5 3.4 2s1.8.9 2.3 1.1c.5.2.8.4.8.4.6.3.9 1 .6 1.6s-1 .9-1.6.6h-.1s-.3-.1-.8-.4c-.5-.3-1.3-.7-2.3-1.2-1-.6-2.2-1.3-3.5-2.2-.7-.5-1.4-.9-2.2-1.4-.8-.5-1.4-1.2-2.1-2-.7-.8-1.3-1.6-2-2.5-.6-.9-1.2-1.9-1.7-3-1-2.2-1.2-4.7-1.4-7.2 0-1.3.1-2.6.4-4 .1-.3.2-.7.3-1 .1-.3.2-.7.4-1 .3-.6.7-1.3 1.3-1.7l.4-.3.2-.2.2-.2c.3-.2.5-.5.8-.7.2-.3.5-.5.8-.7.3-.3.6-.4.8-.7 1.2-.8 2.5-1.5 4-1.7.7-.1 1.4 0 2.1 0 .7 0 1.4.1 2.1.1 1.4.1 2.8.6 4 1.2.6.3 1.2.7 1.8 1.1l.9.6.8.6c1.1 1 1.7 2.2 2.2 3.4l.6 1.8c.3.6.4 1.2.5 1.8.2 1.2 0 2.4 0 3.6-.1 2.3-.4 4.5-1.2 6.4-.1.2-.2.5-.3.7l-.3.6-.2.3-.1.2-.1.2c-.1.2-.2.4-.4.6-.5.7-1 1.4-1.4 2-.4.6-.8 1.2-.9 1.9-.2.6-.4 1.1-.4 1.6-.2.9 0 1.6.1 1.9 0 .1.2.4.2.5.1.1.1.2.1.2.3.6.1 1.3-.5 1.6-.4.4-1.1.2-1.5-.4.1 0 .1 0 0 0z"/><path class="st0" d="M1275.5 451.6v1.2c0 .8-.1 2.1-.3 3.6-.3 1.5-.8 3.3-1.5 5.3-.3 1-.8 2.1-1.2 3.1-.5 1.1-1 2.2-1.6 3.4-1.1 2.3-2.4 4.8-3.4 7.6-.2.7-.5 1.4-.7 2.1-.2.7-.4 1.5-.6 2.2-.2.8-.3 1.5-.5 2.3-.1.8-.2 1.6-.4 2.4-.4 3.2-.5 6.5 0 9.9.5 3.3 1.2 6.7 2.6 9.9 1.3 3.2 3 6.2 5.1 8.9 1 1.4 1.9 2.8 2.5 4.5.6 1.6.8 3.3.9 4.9.1 3.3-.2 6.4-.3 9.3-.1 3 .3 5.7.9 8.2.6 2.5 1.3 4.7 2.1 6.6.9 1.9 1.8 3.5 2.6 4.7.8 1.2 1.5 2.2 2 2.8.5.6.8.9.8.9.1.2.1.4-.1.6-.2.1-.4.1-.6-.1 0 0-.3-.3-.8-1-.5-.6-1.2-1.6-2.1-2.9-.8-1.3-1.7-2.9-2.6-4.8-.9-1.9-1.8-4.2-2.3-6.8-.6-2.5-.9-5.4-.8-8.4 0-3 .6-6.1.4-9.3-.1-1.6-.3-3.2-.9-4.7-.5-1.5-1.4-2.9-2.3-4.3-.5-.7-.9-1.4-1.4-2.1-.5-.7-1-1.4-1.4-2.2-.9-1.5-1.7-3-2.4-4.7-1.2-3.3-2.2-6.6-2.6-10-.1-.8-.2-1.7-.2-2.6-.1-.8-.1-1.7-.2-2.5-.1-1.7.1-3.3.3-5 .1-.8.3-1.6.4-2.4.2-.8.3-1.6.5-2.3.2-.8.4-1.5.7-2.2.3-.7.5-1.4.8-2.1 1-2.8 2.3-5.3 3.4-7.7.5-1.2 1.1-2.3 1.5-3.4.5-1.1.9-2.1 1.3-3.1.8-1.9 1.2-3.7 1.4-5.2.2-1.5.3-2.6.3-3.4v-1.2c0-.2.2-.4.4-.4s.3.1.3.4z"/><path class="st0" d="M1268 443.8v1.7c0 1.1-.1 2.8-.3 4.8-.2 2.1-.8 4.5-1.5 7.3-.4 1.4-.8 2.9-1.3 4.4-.5 1.5-1.1 3.1-1.7 4.8-1.2 3.3-2.7 6.8-4 10.6-.7 1.9-1.3 3.9-1.8 5.9-.5 2-1 4.1-1.3 6.3-.6 4.3-.7 8.9.6 13.4 1.2 4.5 4 8.3 6.2 12.5 1.1 2.1 1.7 4.4 2.1 6.8.4 2.3.4 4.7.6 7 .1 2.3.3 4.6.5 6.9.1 1.1.3 2.2.4 3.3.2 1.1.4 2.2.5 3.3.8 4.3 1.9 8.4 3.1 12.3 1.2 3.9 2.6 7.4 4.1 10.6.7 1.6 1.5 3.1 2.2 4.5.8 1.4 1.5 2.8 2.2 4 1.5 2.4 2.9 4.5 4.1 6.2.6.8 1.2 1.6 1.6 2.2.5.6.9 1.1 1.3 1.6.7.9 1.1 1.3 1.1 1.3.1.2.1.4-.1.6-.2.1-.4.1-.6-.1 0 0-.4-.5-1.1-1.3-.3-.4-.8-1-1.3-1.6-.5-.6-1-1.4-1.6-2.2-1.2-1.7-2.6-3.8-4.1-6.2-.8-1.2-1.5-2.6-2.3-4-.8-1.4-1.6-2.9-2.3-4.6-1.5-3.2-2.9-6.8-4.1-10.7-1.3-3.9-2.2-8.1-3-12.4-.2-1.1-.4-2.2-.5-3.3-.1-1.1-.3-2.2-.4-3.4-.2-2.3-.4-4.6-.4-6.9 0-4.6-.5-9.3-2.6-13.5-1-2.1-2.2-4.1-3.4-6.1-1.2-2-2.2-4.2-2.8-6.5-.2-.6-.3-1.1-.4-1.7-.1-.6-.2-1.1-.3-1.7-.2-1.1-.3-2.3-.4-3.5-.1-2.3.1-4.6.4-6.8.7-4.4 1.9-8.5 3.3-12.3 1.3-3.8 2.7-7.4 3.9-10.7.6-1.7 1.2-3.2 1.7-4.8.5-1.5 1-3 1.4-4.3.8-2.7 1.2-5.2 1.4-7.2.3-2 .3-3.6.3-4.7v-1.7c0-.2.2-.4.4-.4 0-.1.2.1.2.3z"/><path class="st0" d="M1279.7 604.1s-.2-.7-.5-2c-.2-.7-.4-1.4-.7-2.4-.1-.5-.3-1-.5-1.5s-.4-1.1-.7-1.7c-1-2.3-2.3-5.1-4.4-8-2-2.9-4.5-6-7.3-9.4-2.8-3.4-5.9-7-8.7-11.2-1.4-2.1-2.7-4.3-3.8-6.8-1.1-2.4-1.9-5.1-2.4-7.8s-.6-5.5-.4-8.4c.1-.7.1-1.4.2-2.1l.3-2.1c.2-1.4.5-2.8.8-4.2 1-5.6 2-11.5.8-17.2-.6-2.8-1.7-5.5-3.4-7.9-1.7-2.3-3.7-4.4-5.2-7-.7-1.2-1.3-2.6-1.6-4-.4-1.4-.5-2.8-.6-4.3-.1-2.9.4-5.6 1-8.3 1.3-5.4 3.2-10.3 4.6-15.1 1.4-4.8 2.3-9.4 3-13.7.6-4.3 1-8.3 1.1-11.8.1-3.5 0-6.6-.1-9.2-.2-2.5-.4-4.5-.5-5.9l-.3-2.1c0-.2.1-.4.3-.4s.4.1.4.3c0 0 .1.7.2 2.1.2 1.4.4 3.4.5 5.9.1 2.6.2 5.7.1 9.2-.1 3.6-.3 7.6-1 11.9-.7 4.3-1.7 9-3 13.8-1.3 4.9-3.4 9.7-4.6 15-.6 2.6-1 5.4-1 8.1.1 1.4.2 2.8.5 4.1.1.3.2.7.3 1 .1.3.2.6.3 1 .2.7.6 1.3.8 2 1.2 2.5 3.4 4.5 5.1 6.9 1.8 2.4 3 5.2 3.6 8.1 1 5.9.2 11.8-.8 17.5-.5 2.8-1.2 5.6-1.2 8.4-.1 2.8-.1 5.5.4 8.2.4 2.7 1.3 5.2 2.3 7.6 1 2.4 2.3 4.6 3.7 6.7 2.8 4.1 5.9 7.7 8.8 11 1.4 1.7 2.8 3.3 4 4.9 1.2 1.6 2.3 3.1 3.3 4.6 1.9 3 3.5 5.7 4.5 8.1.3.6.5 1.2.7 1.7.2.5.4 1 .5 1.5.3 1 .6 1.8.7 2.4.3 1.3.5 2 .5 2 0 .2-.1.4-.3.5 0 .3-.2.2-.3 0zM1285.6 470.5s-.4.5-1 1.3c-.3.4-.8.9-1.1 1.6l-1.1 2.2-.6 1.2c-.2.4-.4.9-.6 1.4-.4.9-.7 2-1.1 3.1-.1.5-.3 1.1-.4 1.7-.1.3-.2.6-.2.9l-.1.9c-.2 1.2-.3 2.4-.3 3.6l.1 1.8c0 .6.1 1.2.2 1.8.2.6.2 1.2.4 1.7.1.6.3 1.1.4 1.7.2.5.4 1 .6 1.6l.6 1.5c.2.5.4.9.6 1.4.2.4.5.8.7 1.2.2.4.5.8.7 1.1.2.3.4.7.7 1 .2.3.4.6.6.8l.6.6 1.2 1.2c.2.2.2.4 0 .6-.2.2-.4.2-.6 0l-1.2-1.2c-.2-.2-.4-.4-.6-.7-.2-.3-.4-.5-.6-.8-.2-.3-.5-.6-.8-.9-.3-.3-.5-.7-.7-1.1-.2-.4-.5-.8-.7-1.3-.2-.5-.4-.9-.6-1.4-.1-.2-.2-.5-.3-.7-.1-.3-.2-.5-.2-.8-.1-.3-.2-.5-.3-.8-.1-.3-.2-.5-.3-.8-.3-1.1-.7-2.3-.8-3.5-.1-1.2-.3-2.4-.4-3.7.1-1.2.1-2.5.3-3.7l.3-1.8c.1-.6.3-1.2.4-1.7.2-.5.3-1.1.6-1.6l.6-1.5c.2-.5.4-1 .6-1.4.2-.5.4-.9.6-1.3l.6-1.2c.2-.4.5-.7.7-1 .2-.3.4-.6.5-.9.2-.3.3-.5.5-.7.6-.9 1-1.4 1-1.4.1-.2.4-.2.5-.1.1-.4.1-.1 0 .1zM1255.9 602.1s0-.1.1-.3c.1-.2.2-.5.2-.9.1-.4.2-.8.2-1.4 0-.5-.1-1.2-.1-1.8-.1-.7-.1-1.4-.3-2.2-.2-.8-.4-1.6-.7-2.4-.3-.8-.5-1.7-1-2.5-.4-.8-.8-1.7-1.3-2.4-.5-.8-.9-1.6-1.5-2.3-.6-.7-1.1-1.5-1.6-2.2-.5-.7-1-1.4-1.4-2.1-.4-.7-.8-1.4-1.2-2-.4-.6-.6-1.2-.8-1.7-.3-.5-.5-1-.6-1.4-.3-.8-.5-1.2-.5-1.2-.1-.2 0-.4.2-.5.2-.1.4 0 .5.2 0 0 .1.4.4 1.2.1.4.4.8.6 1.3.3.5.6 1 .9 1.6.3.6.7 1.3 1.1 2 .4.7.8 1.5 1.3 2.1.3.4.5.7.8 1.1.3.4.6.7.8 1.1.4.8 1.1 1.5 1.6 2.3.4.9 1 1.6 1.3 2.5l.3.6.3.6c.2.4.3.9.5 1.3.1.4.3.8.4 1.3.1.4.2.8.2 1.2.2.8.3 1.5.4 2.3 0 .4.1.7.1 1 0 .3 0 .6-.1.9-.1.6 0 1.1-.2 1.5-.1.4-.2.7-.2.9-.1.2-.1.3-.1.3-.1.2-.3.3-.5.3s-.2-.1-.1-.3zM1222.8 457.3s.3-.9.8-2.6c.2-.8.6-1.8.8-3 .1-.6.2-1.2.3-1.9.1-.7.2-1.3.2-2.1 0-1.4-.1-3-.5-4.6-.5-1.6-1.3-3.1-2.2-4.7-.5-.8-1-1.5-1.5-2.3-.5-.8-1.1-1.6-1.7-2.3-1.2-1.5-2.4-3-3.8-4.4-1.4-1.4-2.8-2.8-4.3-4-1.5-1.2-3.1-2.4-4.3-3.8-1.2-1.5-1.9-3.2-2.5-4.8-.5-1.6-1.1-3.1-1.6-4.5s-.9-2.7-1.3-3.8c-.4-1.1-.8-2.1-1.1-2.9-.6-1.6-1-2.5-1-2.5-.1-.2 0-.4.2-.5s.4 0 .5.2c0 0 .3.9.9 2.5.3.8.7 1.8 1.1 2.9.4 1.1 1 2.4 1.4 3.8.5 1.4 1 2.9 1.6 4.5.6 1.6 1.1 3.3 2.3 4.6.6.7 1.2 1.3 2 1.9.7.6 1.5 1.2 2.2 1.9 1.4 1.4 3 2.5 4.4 4 1.3 1.5 2.7 2.9 3.9 4.5l.9 1.2c.3.4.6.7.9 1.1.6.7 1.1 1.6 1.6 2.4.4.8.9 1.6 1.3 2.4.4.8.7 1.7.9 2.5.5 1.6.7 3.3.7 4.8 0 .8-.1 1.5-.2 2.1-.1.7-.3 1.3-.4 1.9-.3 1.2-.5 2.2-.8 3-.5 1.7-.8 2.6-.8 2.6-.1.2-.3.3-.5.2-.4.1-.5-.1-.4-.3zM1218.7 499.7v1c0 .3-.1.7-.1 1.2v.7c0 .2-.1.5-.2.8-.4 1-.9 2.2-1.5 3.3-.3.6-.8 1.1-1 1.8-.3.6-.7 1.2-1 1.8-.3.6-.6 1.2-.8 1.9-.1.7-.3 1.3-.4 2-.1.6 0 1.3-.1 1.8 0 .6.1 1.1.2 1.6.2.5.3.9.5 1.3.2.3.4.6.7.8.2.2.4.3.5.4.1.1.2.1.2.1.2.1.2.4.1.5-.1.2-.4.2-.5.1l-.2-.2c-.1-.1-.4-.3-.6-.5-.2-.2-.5-.6-.7-.9-.3-.4-.6-.8-.7-1.4-.1-.6-.2-1.2-.2-1.8 0-.6.2-1.3.2-2 0-.3.1-.7.2-1 .1-.3.1-.7.3-1 .4-.6.4-1.4.7-2 .4-.6.7-1.3 1-1.9.2-.3.4-.6.5-.9.1-.3.3-.6.5-.9.2-.3.3-.6.5-.8.2-.3.4-.5.5-.8.3-.5.4-1.1.5-1.6.1-.5.2-1 .3-1.4.1-.4 0-.8 0-1.1v-.7-.3c0-.2.1-.4.4-.4s.1.3.2.5z"/><path class="st0" d="M1220.8 406.8s0 .6.1 1.7.3 2.6.8 4.5 1.4 4.2 2.8 6.7 3.1 5.1 4.9 8.1c1.8 2.9 3.8 6.2 5.3 9.9 1.6 3.7 2.8 7.8 3.5 12.1.8 4.3 1.1 8.8 1.2 13.4 0 4.6-.4 9.2-1.2 13.8-.8 4.6-2.1 9-3.1 13.5-1 4.4-1.9 8.9-1.8 13.2 0 2.1.3 4.2.8 6.2s1.3 3.9 2 5.7c.8 1.8 1.5 3.6 2.2 5.4.7 1.7 1.3 3.5 1.8 5.1 1 3.3 1.6 6.5 2 9.3.4 2.8.6 5.3.7 7.3.1 2 0 3.6 0 4.7-.1 1.1-.1 1.7-.1 1.7 0 .2-.2.4-.4.4s-.4-.2-.4-.4c0 0 0-.6.1-1.7 0-1.1.1-2.7 0-4.7s-.2-4.5-.6-7.2c-.4-2.8-1.1-5.9-2.1-9.2-.5-1.7-1.1-3.3-1.7-5.1-.7-1.7-1.5-3.5-2.2-5.3-.8-1.8-1.5-3.8-2-5.9-.5-2.1-.7-4.2-.8-6.4-.1-2.2.2-4.4.5-6.7.3-2.2.8-4.5 1.4-6.7 1.2-4.4 2.2-8.9 3-13.5.9-4.5 1.1-9.2 1.2-13.7 0-1.1 0-2.3-.1-3.4l-.3-3.3c-.2-2.2-.5-4.4-.8-6.5-.2-1.1-.4-2.1-.6-3.1-.3-1-.5-2-.8-3-.6-2-1.2-3.9-2-5.8-1.5-3.7-3.5-6.9-5.4-9.8-.9-1.5-1.8-2.9-2.7-4.2-.8-1.4-1.5-2.7-2.2-3.9-1.3-2.5-2.3-4.8-2.9-6.8-.2-.5-.2-1-.4-1.4-.1-.4-.2-.9-.3-1.3-.1-.8-.2-1.5-.2-2 0-1.1-.1-1.7-.1-1.7 0-.2.2-.4.4-.4.3 0 .5.2.5.4zM1130.6 531.3s.2.2.7.6c.4.3 1.1 1 1.8 1.8.8.8 1.5 1.9 2.3 3.2.4.7.8 1.3 1.2 2.1.2.4.4.8.5 1.2.2.4.3.8.5 1.3.6 1.8 1 3.7 1.4 5.8.3 2.1.5 4.3.6 6.6.1 2.3 0 4.7.1 7.1.1 2.4.1 4.9.4 7.3.3 2.4.7 4.8 1.6 7.1.9 2.2 1.9 4.3 3.1 6.3 1.2 2 2.5 3.7 3.6 5.5 1.1 1.8 2.3 3.4 3.2 5 .5.8.9 1.6 1.3 2.3.3.8.7 1.5 1 2.2.6 1.4 1 2.6 1.3 3.7.1.5.2 1 .3 1.4.1.4.1.8.1 1.1.1.6.1.9.1.9 0 .2-.1.4-.3.4-.2 0-.4-.1-.4-.3 0 0 0-.3-.1-.9 0-.3-.1-.6-.1-1-.1-.4-.2-.9-.3-1.4-.2-1-.6-2.2-1.2-3.6-.3-.7-.7-1.4-1-2.1-.4-.7-.8-1.5-1.3-2.3-.9-1.6-2-3.3-3.1-5-1.2-1.7-2.3-3.7-3.5-5.6l-.9-1.5c-.3-.5-.6-1-.8-1.6-.6-1.1-1-2.1-1.4-3.3-.7-2.3-1.4-4.7-1.7-7.2-.2-2.5-.4-4.9-.4-7.3v-1.8c0-.6-.1-1.2-.1-1.8-.1-1.2 0-2.3 0-3.5 0-1.2-.1-2.3-.2-3.4s-.2-2.2-.3-3.2c-.3-2.1-.8-4-1.4-5.7-.3-.9-.6-1.7-1-2.4-.3-.8-.7-1.5-1-2.1-.4-.6-.7-1.2-1.2-1.7-.4-.5-.8-.9-1.1-1.3-.7-.8-1.3-1.3-1.8-1.7-.5-.4-.7-.5-.7-.5-.2-.1-.2-.4-.1-.6-.1-.2.1-.2.3-.1zM1133.4 565.5s0 .1.1.5.1.8.2 1.3c.1.6.1 1.2.2 2 .1.4.2.8.2 1.2.1.4.1.9.2 1.3.1.9.3 2 .5 3 .2 1.1.4 2.2.7 3.3.3 1.1.5 2.4 1 3.5.4 1.2.9 2.4 1.5 3.4.3.5.6 1.1 1 1.6s.7 1 1.2 1.5c.9.9 1.7 1.8 2.4 2.8.4.5.7 1 1 1.5.3.5.5 1.1.7 1.6.3 1.1.5 2.2.5 3.1.1 1-.1 1.9-.3 2.7-.2.8-.4 1.5-.6 2-.2.5-.4 1-.6 1.2-.1.3-.2.4-.2.4-.1.2-.3.3-.5.2-.2-.1-.3-.3-.2-.5 0 0 .1-.1.2-.4.1-.2.3-.6.5-1.1.2-.5.4-1.1.5-1.9.1-.7.1-1.6.1-2.5 0-.9-.1-1.9-.4-2.9-.2-.5-.3-1-.6-1.5-.2-.5-.5-1-.9-1.4-.4-.5-.7-.9-1.1-1.4-.4-.5-.9-.9-1.2-1.4-.7-1-1.7-2-2.3-3.1-.5-1.2-1.2-2.3-1.6-3.5l-.3-.9-.3-.9-.3-.9c-.1-.3-.1-.6-.2-.9-.1-.6-.3-1.2-.4-1.7-.1-.6-.2-1.1-.3-1.7-.2-1.1-.4-2.1-.6-3-.2-.9-.3-1.8-.3-2.6s-.2-1.4-.3-2c-.1-.5-.1-.9-.2-1.2 0-.2-.1-.4-.1-.4-.1-.2 0-.4.2-.5.6-.2.8-.1.9.2z"/><g><path class="st0" d="M1208.8 522.1l-2.8.1h-1.3.1-.1l-1.4.2c-1 .1-1.8.3-2.7.4-.9.2-1.8.4-2.7.7-1.8.5-3.4 1.4-5 2.2-1.7.7-3.4 1.5-4.9 2.5-3 2.1-5.6 4.8-7.7 7.7-.5.7-1 1.5-1.5 2.2-.5.8-.9 1.5-1.4 2.3l-.7 1.2-.1.3-.2.3-.3.6-.6 1.3-.5 1.2c-.7 1.6-1.1 3.5-1.4 5.2l-.7 5.4c-.4 3.6-.6 7.4-.5 11.1 0 1.9.1 3.8.2 5.6.1 1.9.3 3.8.3 5.7 0 1.9-.4 3.8-.5 5.6 0 .9.1 1.9.1 2.8 0 .9-.1 1.9-.1 2.8-.1 3.8-.3 7.5-.4 11.3V604c-.1 0 .1-.1-.6-.5-.7-.1-.2 0-.3-.1h7.6l2.8.2c.9.1 1.9.1 2.8.2 1.9.1 3.8-.2 5.6-.2 3.8 0 7.5.4 11.3.4l5.6-.1 2.8-.1h2.8c3.8 0 7.5 0 11.3.1 1.9.1 3.8.1 5.6.1l5.6-.2c3.8-.2 7.5-.3 11.3-.4v2.1c-.2 0-.5-.1-.7-.3l-.1-.1-.1-.1c0-.1-.1-.1-.1-.2v-.1c-.1-.1-.1-.2-.1-.3-.1-.2-.1-.3-.1-.5-.1-.3-.1-.6-.1-.9-.1-.6-.1-1.1-.2-1.6l-.3-3.3c-.2-2.2-.2-4.3-.1-6.5s0-4.3-.1-6.5-.3-4.3-.4-6.5l-.2-3.2c-.1-1.1-.1-2.2-.1-3.2 0-1.1.1-2.2.1-3.2 0-1.1-.1-2.2-.1-3.2-.1-1.1-.1-2.2-.2-3.2 0-1-.2-2.1-.2-3.1-.1-2.1-.2-4.2-.6-6.3-.4-2.1-1.2-4.1-1.7-6.1l-.9-3c-.4-1-.9-1.9-1.5-2.8-1.1-1.8-1.9-3.7-3-5.5-1.1-1.8-2.4-3.5-3.9-5s-3.2-2.7-4.9-3.9c-1.7-1.2-3.5-2.4-5.5-3.1-2-.7-4-1.1-6.1-1.4-2.1-.1-4.2-.3-6.2-.3zm-.1-2.4c2.2 0 4.4.2 6.6.6 2.2.4 4.3 1.2 6.4 2 .5.2 1 .5 1.5.7.5.2 1 .5 1.5.7.5.2 1 .5 1.5.7.5.2 1 .5 1.5.8 1.9 1.2 3.6 2.7 5.1 4.4 1.5 1.6 3 3.3 4.4 5 1.4 1.8 2.7 3.6 3.4 5.7.2.5.4 1.1.5 1.6.2.5.4 1 .6 1.6.4 1 .9 2 1.3 3 .8 2.1 1.1 4.3 1.5 6.4.4 2.2 1 4.3 1.3 6.5.3 2.2.3 4.4.2 6.6v3.2c0 1.1.1 2.2.2 3.2.1 1.1.1 2.2.1 3.2v3.2c0 2.2-.1 4.3 0 6.5 0 2.2.1 4.3.4 6.4.2 2.1.5 4.3.6 6.4.1 1.1.1 2.1.2 3.2 0 .5.1 1 .2 1.6 0 .2.1.5.1.7 0 .1 0 .2.1.3 0 0 0 .1 0 0s-.1-.1-.1-.2l-.1-.1-.1-.1c-.2-.2-.6-.3-.9-.3v2.8c-3.8-.1-7.5-.1-11.3-.4l-2.8-.2c-.9 0-1.9-.1-2.8-.1-1.9 0-3.8.1-5.6.2-3.8.2-7.5.3-11.3.3h-2.8c-.9 0-1.9 0-2.8-.1-1.9-.1-3.8-.3-5.6-.3-3.8-.1-7.5.7-11.3.6-1.9-.1-3.8-.7-5.6-.5-1.9 0-3.8.4-5.6.5-1.9.1-3.8 0-5.6 0H1171.6c-.2 0 .5.1-.5-.1-1-.6-.7-.8-.8-.8 0-.1-.1-.2-.1-.2-.1-.3-.1-.4-.1-.6v-.4-2.9l.3-11.3c0-.9.1-1.9.1-2.8.1-.9.3-1.9.4-2.8.1-1.9-.2-3.8 0-5.6.1-1.8.2-3.7.2-5.6l-.1-5.6-.1-5.7c0-1.9.1-3.8.2-5.7.3-3.8 1.2-7.6 2.4-11.2l.4-1.4.5-1.3c.2-.5.3-.9.6-1.3l.7-1.3c.4-.9 1-1.6 1.5-2.5.6-.8 1.1-1.6 1.8-2.3 2.5-2.9 5.4-5.5 8.6-7.7 1.6-1 3.1-2.3 4.9-3.1 1.7-1 3.6-1.4 5.4-2.1.9-.3 1.8-.6 2.8-.8.9-.2 1.9-.5 2.9-.6l1.4-.2h1.5l2.2-.4z"/></g><g><path class="st0" d="M1232.5 478.9v.4c0 .3 0 .7-.1 1.3-.1.6-.2 1.3-.3 2.1-.2.8-.4 1.8-.8 2.8-.1.5-.2 1.1-.4 1.7-.2.6-.4 1.2-.8 1.7-.3.6-.7 1.1-1.1 1.8-.2.3-.3.6-.5.9-.2.3-.4.6-.6 1-.8 1.3-1.7 2.7-2.9 3.9l-.1.1-.2.2-.2.2-.5.4c-.3.3-.6.6-1 .8-.7.5-1.6 1-2.4 1.5-.4.2-.8.4-1.3.6-.4.2-.8.5-1.2.7-.9.5-1.7 1-2.7 1.3-1 .3-2 .6-3 .7-1 .2-2.1.3-3.2.4-2.1.3-4.3.1-6.6.2-1.1-.1-2.3-.4-3.3-1-.5-.3-1.1-.3-1.7-.4-.6-.2-1.1-.4-1.6-.7-.5-.2-1.1-.6-1.6-.9-.5-.3-1-.6-1.5-1-.9-.8-1.9-1.5-2.6-2.5-.4-.5-.9-.9-1.2-1.4l-1.1-1.5c-.2-.3-.4-.5-.5-.8l-.4-.8c-.3-.5-.5-1.1-.7-1.6-.2-.6-.4-1.2-.6-1.7-.3-.5-.6-1.1-.8-1.6-.3-.5-.6-1.1-.7-1.7-.1-.6-.3-1.2-.4-1.8-.1-.6-.2-1.2-.2-1.8-.1-.6-.2-1.2-.2-1.8-.1-.6-.1-1.2-.2-1.8-.1-.6-.1-1.2-.1-1.8-.1-.6 0-1.2.1-1.8.1-.6.1-1.2.3-1.8l.4-1.8.6-1.7c.2-.6.5-1.1.7-1.7.3-.5.5-1.1.9-1.6.3-.5.6-1 .9-1.6l.9-1.5c.3-.5.7-1 1-1.5.4-.5.7-1 1.1-1.4l1.3-1.3c.4-.4.8-.9 1.3-1.2l1.4-1.1c.5-.4.9-.7 1.4-1 .5-.3 1.1-.6 1.6-.9.6-.2 1.1-.5 1.6-.6 2.2-.8 4.3-1.7 6.5-2.2 1.1-.2 2.2-.5 3.3-.5.6 0 1.1.1 1.7.2.5.1 1.1.1 1.6.1 2.2.1 4.4.5 6.1 1.7.8.5 1.7 1 2.6 1.4.5.2.8.5 1.3.8.4.3.8.6 1.1.9 1.2 1.4 3 2.2 3.9 3.7.4.7.9 1.4 1.3 2.1.2.4.4.7.6 1 .2.3.3.7.5 1 .8 1.3 1.5 2.5 1.8 3.8.2.6.2 1.3.4 1.8.1.6.3 1.1.4 1.6.4 1 .5 2 .7 2.8.1.8.2 1.6.2 2.1-.2 1.5-.2 2.1-.2 2.1zm-2.4-.1v-1.6c-.1-1.1-.1-2.6-.3-4.7-.1-1-.5-2.1-1.1-3.2-.1-.3-.2-.6-.4-.8l-.3-.9c-.2-.6-.4-1.3-.7-1.9-.6-1.3-1.6-2.4-2.7-3.5l-.8-.8c-.3-.3-.4-.7-.7-1-.2-.4-.4-.7-.7-1-.3-.3-.7-.5-1.1-.7-.4-.2-.7-.4-1.1-.7l-.5-.4c-.2-.1-.3-.3-.5-.4-.3-.3-.7-.5-1.1-.7l-.6-.3c-.2-.1-.4-.2-.7-.2l-.7-.2c-.1 0-.4-.1-.6-.1-.4-.1-.9-.2-1.3-.4-.4-.1-.9-.3-1.4-.4-.5-.1-.9-.3-1.4-.3-1-.2-2-.1-3 0-.5 0-1 .1-1.5.1s-1 .1-1.5.1c-2 .2-4.2.6-6.1 1.8-.5.3-.9.6-1.3.9-.5.3-.9.6-1.3.9-.4.3-1 .6-1.4.9l-1.3 1c-.9.6-1.7 1.4-2.6 2.1l-1.2 1.2-1.2 1.2c-.4.4-.8.8-1.2 1.3l-.9 1.5c-.3.5-.4 1.1-.6 1.6-.2.5-.4 1.1-.5 1.6-.7 2.2-.8 4.5-1 6.7 0 .6-.1 1.1-.2 1.7v.9l.1.9c.1 1.2.6 2.2 1.1 3.3.3.5.5 1 .7 1.6.2.5.4 1.1.4 1.7-.1 1.3.6 2.2 1.4 3.1.4.4.8.9 1.1 1.4.2.2.3.5.5.8.1.2.3.4.4.7l.9 1.4c.3.5.7.8 1 1.3.7.8 1.6 1.5 2.4 2.2.4.3.9.6 1.3.9.4.3.9.6 1.4.8.5.2 1 .4 1.4.8.4.3.9.6 1.4.7.3.1.5.1.8.1.3 0 .5 0 .8.1l1.5.3c2 .6 4.1.6 6.1.4 2-.2 3.9-.8 5.6-1.4.9-.3 1.7-.7 2.6-1 .8-.4 1.6-.9 2.3-1.4.6-.6 1.3-1.1 1.9-1.6.7-.5 1.3-1 1.9-1.6 1.2-1 2.2-2.1 3.1-3.2.4-.6.8-1.1 1.1-1.7.3-.6.5-1.2.7-1.8.2-.6.3-1.1.6-1.6.2-.5.5-1 .6-1.5.3-1 .4-1.9.5-2.7.1-.8.2-1.4.2-2 0-.5 0-1 .1-1.2-.4-1-.4-1.1-.4-1.1z"/></g><path class="st36" d="M1302.2 464.5l-93.5-74.1-93.5 74.1"/><g><path class="st35" d="M1224.2 478.8c-.3 15.7-16.5 21.6-27.2 10.2-10.1-10.7-4-27.6 11.2-27.6 10.9 0 16.1 8.7 16 17.4z"/><path class="st35" d="M1224.6 478.8s0 .4-.1 1.2c0 .4-.1.8-.1 1.4-.1.5-.3 1.2-.4 1.9-.1.4-.1.7-.2 1.1-.1.4-.3.8-.5 1.2-.2.4-.3.8-.5 1.2-.2.4-.4.8-.7 1.3-.1.2-.2.5-.4.7-.1.2-.3.4-.5.6-.3.4-.6.9-1 1.3s-.8.8-1.3 1.2c-.4.4-1 .7-1.5 1-.3.2-.5.3-.8.5-.3.1-.6.3-.9.4-.6.3-1.2.6-1.8.8-1.3.4-2.7.5-4.1.5-.7 0-1.4 0-2.2-.1-.7-.2-1.5-.2-2.2-.4-1.4-.4-2.8-1.1-4.2-1.8-1.3-.8-2.6-1.8-3.7-2.9l-.9-.8-.7-.9-.8-.9c-.3-.3-.4-.7-.6-1.1-.7-1.4-1.7-2.8-2-4.4-.2-.8-.4-1.6-.5-2.4-.1-.8-.3-1.6-.2-2.4 0-.8 0-1.6.2-2.4l.2-1.2.3-1.2c.1-.4.2-.8.4-1.2l.5-1.1c.2-.4.3-.7.5-1.1l.6-1c.4-.7.9-1.3 1.5-1.9.5-.6 1.2-1.1 1.8-1.6 1.2-1 2.7-1.8 4.1-2.2.7-.3 1.5-.4 2.2-.6.4-.1.7-.2 1.1-.3.4 0 .7-.1 1.1-.1.4 0 .7-.1 1.1-.1.2 0 .3 0 .6-.1h.5c.7.1 1.4.1 2.1.2.7.1 1.4.2 2.1.4.3.1.7.2 1 .3.3.1.6.3.9.4 1.2.6 2.4 1.1 3.3 2 .2.2.5.4.7.6.2.2.5.4.7.6.4.4.8.8 1.2 1.3.3.5.6.9.9 1.4.3.5.5.9.8 1.4 1 1.7 1.3 3.5 1.7 4.9.4 1.4.5 2.5.5 3.3.1.7.2 1.1.2 1.1zm-.8 0v-1.1c0-.4 0-.8-.1-1.4 0-.5-.1-1.2-.2-1.8 0-.3-.1-.7-.3-1.1-.1-.4-.2-.8-.4-1.1-.2-.4-.3-.8-.5-1.2-.2-.4-.4-.8-.6-1.3-.2-.4-.5-.8-.8-1.3-.3-.4-.7-.8-1-1.2-.4-.4-.8-.8-1.1-1.3-.4-.4-.8-.8-1.3-1.2-1-.6-1.9-1.5-3.2-1.8l-.9-.3c-.3-.1-.6-.1-.9-.2-.6-.2-1.3-.3-1.9-.5-.6-.2-1.4-.1-2.1-.2h-3.2c-.4.1-.7.1-1.1.2-.4.1-.7.1-1.1.2-.4.1-.7.3-1 .4-.7.3-1.4.6-2 1l-1 .6c-.2.1-.3.2-.5.3l-.4.4c-.6.5-1.2.9-1.7 1.5s-1.1 1.1-1.5 1.7c-.5.6-1 1.2-1.2 2-.2.4-.3.7-.5 1.1l-.3 1.1c-.1.4-.2.8-.3 1.1l-.2 1.2c0 .4-.2.8-.1 1.2v1.2c-.1 1.6.1 3.2.7 4.6.2.8.7 1.4.8 2.2.1.8.6 1.4 1.1 2 .4.6 1 1.2 1.5 1.8l.7.9.8.8c1.1 1.1 2.3 2 3.6 2.8.3.2.7.3 1 .5.3.2.6.4 1 .5.7.2 1.4.4 2.1.7.7.2 1.4.4 2.1.5.7.1 1.4.1 2.1.1 1.4-.1 2.7-.2 3.9-.6.6-.1 1.2-.4 1.8-.7.3-.1.6-.3.8-.4.3-.2.5-.4.7-.5 1-.7 1.8-1.5 2.6-2.2.4-.4.7-.8 1-1.2.2-.2.3-.4.5-.6.1-.2.3-.4.4-.6.2-.4.5-.8.7-1.2.2-.4.3-.8.4-1.2.1-.4.2-.8.4-1.1.1-.4.2-.7.3-1.1.1-.7.3-1.3.3-1.8s.1-1 .1-1.4c-.1-.6 0-1 0-1z"/></g><g><path class="st35" d="M1180.1 605.1c.5-.2.3.9-.2.7-.5-.1-.6-.8-.6-1.3 0-17.4-3.6-38.3 1.6-55 5.4-17.3 24.2-27 41-17.9 12.3 6.7 16.2 20.1 17.6 33.3 1.3 12.9 1.2 27.1-.3 39.9"/><path class="st35" d="M1180 604.7h.3c.2 0 .4.2.4.3.1.2.1.3 0 .4 0 .1-.1.3-.2.5s-.4.4-.7.3c-.5-.1-.8-.6-.8-1-.1-.4-.1-.8-.1-1.2v-1.4-3.4c-.2-2.6-.1-5.7-.4-9.3-.1-1.8-.3-3.7-.4-5.7-.1-1-.1-2-.2-3.1 0-1.1 0-2.1-.1-3.3 0-2.2-.2-4.5-.1-6.9 0-2.4.2-4.9.4-7.4.1-1.3.3-2.5.4-3.8.2-1.3.4-2.6.5-3.9.2-1.3.5-2.6.9-3.9.2-.6.4-1.3.5-2 .1-.7.4-1.3.7-2 .9-2.6 2.4-5.1 4-7.5.4-.6.9-1.1 1.3-1.7.2-.3.4-.6.7-.8l.8-.8c.5-.5 1-1.1 1.5-1.6l1.7-1.4c.6-.5 1.2-.8 1.8-1.2.6-.4 1.2-.9 1.8-1.2.6-.4 1.3-.7 1.9-1.1.7-.3 1.4-.5 2.1-.8l1-.4c.3-.1.7-.2 1.1-.3l2.2-.5c1.5-.2 2.9-.6 4.4-.5 3-.2 5.9.3 8.8 1.1l2.1.7c.7.2 1.3.6 2 .9.7.3 1.3.6 2 1l1.9 1.1c2.5 1.6 4.7 3.6 6.5 5.8.5.5.9 1.1 1.3 1.7l1.2 1.8c.7 1.2 1.3 2.5 1.9 3.7 2.2 5.1 3.7 10.3 4.3 15.4.4 2.5.7 5 .8 7.4.1 2.4.4 4.7.4 6.9s.3 4.3.2 6.4c0 2-.1 3.9-.1 5.7 0 1.8 0 3.5-.1 5-.1 1.6-.2 3-.3 4.3-.1 1.3-.1 2.4-.2 3.4s-.2 1.9-.2 2.5c-.1 1.4-.2 2.1-.2 2.1 0 .2-.2.4-.4.4s-.4-.2-.4-.4c0 0 .1-.7.2-2.1.1-1.4.3-3.4.6-5.9.1-1.3.2-2.7.2-4.3 0-.8 0-1.6.1-2.4 0-.8.1-1.7.1-2.6 0-1.8 0-3.7-.1-5.7-.2-2 .2-4.1-.1-6.3-.2-2.2-.1-4.5-.4-6.9-.3-2.4-.5-4.8-.8-7.3-.1-1.3-.4-2.5-.6-3.8-.3-1.3-.5-2.6-.8-3.8-.1-.6-.3-1.3-.5-1.9-.2-.6-.4-1.3-.6-1.9-.2-.6-.4-1.3-.7-1.9-.3-.6-.6-1.2-.8-1.9-.3-.6-.6-1.2-1-1.8-.3-.6-.7-1.2-1.1-1.8-.3-.6-.7-1.2-1.1-1.7-.4-.6-.8-1.1-1.3-1.7-1.7-2.2-3.9-4.1-6.2-5.8l-1.8-1.2c-.6-.4-1.3-.6-1.9-1-.7-.3-1.3-.7-2-.8l-2.1-.6c-.7-.3-1.4-.3-2.1-.5-.7-.1-1.4-.3-2.1-.4l-2.2-.2h-2.2c-1.5-.1-2.9.2-4.3.4-.7.1-1.4.4-2.1.6-.3.1-.7.2-1 .3l-1 .4c-.7.3-1.3.5-2 .9-.6.4-1.3.7-1.9 1-.7.3-1.3.7-1.9 1.1-.6.4-1.2.8-1.7 1.3-2.1 1.9-4.1 3.9-5.8 6.2-1.6 2.3-2.9 4.7-3.8 7.3-.2.6-.5 1.3-.7 1.9-.2.6-.4 1.3-.6 1.9-.4 1.3-.5 2.6-.8 3.9-.2 1.3-.5 2.6-.7 3.9-.1 1.3-.3 2.6-.4 3.8-.2 2.5-.3 5-.3 7.4 0 2.4 0 4.7.1 6.9s.2 4.3.3 6.3c.1 2 .2 3.9.2 5.7.1 3.6.5 6.7.5 9.3.1 1.3.1 2.4.1 3.4v1.4c0 .4 0 .8.1 1.1.1.3.2.4.2.4h-.1v-.1s0-.1 0 0c0 0 .1.1.2.1h.1c-.2.1-.4-.1-.5-.3-.2-.3-.1-.5.2-.6-.1 0-.1 0 0 0z"/></g><path class="st37" d="M1312.7 615.7c-1-4.3-4.7-7.6-8.8-9.2-4.1-1.6-8.6-1.8-13-1.9-20.1-.5-40.3.1-60.4.1-27.7 0-54.3-.7-82.2-.2-15.1.2-25.4-1.2-35 6.5-1.1.9-3.7 5-3.7 5"/></g><path class="st11" d="M1268.4 435.9c-6-2.5-27.9-16.3-23.3-25.4 1.2-2.4 4.3-3 6.9-2.8 5.2.4 10.3.5 14.7 3.6 6.4 4.5 9.7 12.7 8.9 20.5-.2 1.7-.7 3.7-2.2 4.5-1.5.9-3.4.3-5-.4z"/><g><path class="st2" d="M1830.5 507.6c-28.8 6.2-55.5 3.1-84.8 3H1312.4c-23.2 0-36.8 5.7-39.8-18.6-1.5-12.2 2.2-24.5 2.2-36.7v-86.1-109.8c0-16.5-9.3-82.4 5.1-91.1 2.9-1.8 6.5-2.3 9.9-2.7 53.7-7.2 112.2-1.5 166.4-1.5h203.5c30.7 0 61.4-.4 92.2-.7 13.3-.1 67.8-8.4 75.4 2 3.1 4.3 3.3 9.8 3.4 15 .7 42.1 5 84.6 5 126.2v122c0 27.5 5.3 50.7-.8 77.9-1.6.4-3 .8-4.4 1.1z"/><path class="st38" d="M1810.9 490.2c.5-.6-.6-1.4-1.3-.9-.6.5-.5 1.4-.1 2 1.1 1.6 3.8 1.9 5.3.6 1.4-1.3 1.1-3.9-.6-4.9M1762.9 489.7c-1.4 1-1.6 3.2-.3 4.5s3.6 1.2 4.8-.1c1.4-1 .7-3.5-1-3.7M1716.6 491.1c-1.8 1.9.5 5.5 3.1 4.9 2.6-.5 3-4.7.6-5.7M1812.5 454.3c-2.3-.8-3.6 3.7-1.2 4 1.9-.2 3.2-2.3 2.6-4M1763.2 455.7c-2 .7-2.1 3.9-.1 4.6 3.2-.3 6-2.8 6.4-5.7-1.5-.9-3.8-.3-4.6 1.2M1718.8 456c-2-.1-3.6 2.2-2.8 3.9 2.3 1.7 6.5-.8 5.7-3.5M1810.9 420.8c.5-.6-.6-1.4-1.3-.9-.6.5-.5 1.4-.1 2 1.1 1.6 3.8 1.9 5.3.6 1.4-1.3 1.1-3.9-.6-4.9M1762.9 420.3c-1.4 1-1.6 3.2-.3 4.5s3.6 1.2 4.8-.1c1.4-1 .7-3.5-1-3.7M1716.6 421.7c-1.8 1.9.5 5.5 3.1 4.9 2.6-.5 3-4.7.6-5.7M1812.5 384.9c-2.3-.8-3.6 3.7-1.2 4 1.9-.2 3.2-2.3 2.6-4M1763.2 386.3c-2 .7-2.1 3.9-.1 4.6 3.2-.3 6-2.8 6.4-5.7-1.5-.9-3.8-.3-4.6 1.2M1718.8 386.6c-2-.1-3.6 2.2-2.8 3.9 2.3 1.7 6.5-.8 5.7-3.5M1668.8 490.2c.5-.6-.6-1.4-1.3-.9-.6.5-.5 1.4-.1 2 1.1 1.6 3.8 1.9 5.3.6 1.4-1.3 1.1-3.9-.6-4.9M1620.8 489.7c-1.4 1-1.6 3.2-.3 4.5s3.6 1.2 4.8-.1c1.4-1 .7-3.5-1-3.7M1574.5 491.1c-1.8 1.9.5 5.5 3.1 4.9 2.6-.5 3-4.7.6-5.7M1670.4 454.3c-2.3-.8-3.6 3.7-1.2 4 1.9-.2 3.2-2.3 2.6-4M1621.1 455.7c-2 .7-2.1 3.9-.1 4.6 3.2-.3 6-2.8 6.4-5.7-1.5-.9-3.8-.3-4.6 1.2M1576.7 456c-2-.1-3.6 2.2-2.8 3.9 2.3 1.7 6.5-.8 5.7-3.5M1668.8 420.8c.5-.6-.6-1.4-1.3-.9-.6.5-.5 1.4-.1 2 1.1 1.6 3.8 1.9 5.3.6 1.4-1.3 1.1-3.9-.6-4.9M1620.8 420.3c-1.4 1-1.6 3.2-.3 4.5s3.6 1.2 4.8-.1c1.4-1 .7-3.5-1-3.7M1574.5 421.7c-1.8 1.9.5 5.5 3.1 4.9 2.6-.5 3-4.7.6-5.7M1670.4 384.9c-2.3-.8-3.6 3.7-1.2 4 1.9-.2 3.2-2.3 2.6-4M1621.1 386.3c-2 .7-2.1 3.9-.1 4.6 3.2-.3 6-2.8 6.4-5.7-1.5-.9-3.8-.3-4.6 1.2M1576.7 386.6c-2-.1-3.6 2.2-2.8 3.9 2.3 1.7 6.5-.8 5.7-3.5M1810.9 353.6c.5-.6-.6-1.4-1.3-.9-.6.5-.5 1.4-.1 2 1.1 1.6 3.8 1.9 5.3.6 1.4-1.3 1.1-3.9-.6-4.9M1762.9 353.1c-1.4 1-1.6 3.2-.3 4.5s3.6 1.2 4.8-.1c1.4-1 .7-3.5-1-3.7M1716.6 354.5c-1.8 1.9.5 5.5 3.1 4.9 2.6-.5 3-4.7.6-5.7M1812.5 318.8c-2.3-.8-3.6 3.7-1.2 4 1.9-.2 3.2-2.3 2.6-4M1763.2 320.2c-2 .7-2.1 3.9-.1 4.6 3.2-.3 6-2.8 6.4-5.7-1.5-.9-3.8-.3-4.6 1.2M1718.8 320.5c-2-.1-3.6 2.2-2.8 3.9 2.3 1.7 6.5-.8 5.7-3.5M1810.9 285.3c.5-.6-.6-1.4-1.3-.9-.6.5-.5 1.4-.1 2 1.1 1.6 3.8 1.9 5.3.6 1.4-1.3 1.1-3.9-.6-4.9M1762.9 284.7c-1.4 1-1.6 3.2-.3 4.5s3.6 1.2 4.8-.1c1.4-1 .7-3.5-1-3.7M1716.6 286.2c-1.8 1.9.5 5.5 3.1 4.9 2.6-.5 3-4.7.6-5.7M1812.5 247.2c-2.3-.8-3.6 3.7-1.2 4 1.9-.2 3.2-2.3 2.6-4M1763.2 248.6c-2 .7-2.1 3.9-.1 4.6 3.2-.3 6-2.8 6.4-5.7-1.5-.9-3.8-.3-4.6 1.2M1718.8 248.9c-2-.1-3.6 2.2-2.8 3.9 2.3 1.7 6.5-.8 5.7-3.5M1668.8 353.6c.5-.6-.6-1.4-1.3-.9s-.5 1.4-.1 2c1.1 1.6 3.8 1.9 5.3.6 1.4-1.3 1.1-3.9-.6-4.9M1620.8 353.1c-1.4 1-1.6 3.2-.3 4.5s3.6 1.2 4.8-.1c1.4-1 .7-3.5-1-3.7M1574.5 354.5c-1.8 1.9.5 5.5 3.1 4.9 2.6-.5 3-4.7.6-5.7M1670.4 318.8c-2.3-.8-3.6 3.7-1.2 4 1.9-.2 3.2-2.3 2.6-4M1621.1 320.2c-2 .7-2.1 3.9-.1 4.6 3.2-.3 6-2.8 6.4-5.7-1.5-.9-3.8-.3-4.6 1.2M1576.7 320.5c-2-.1-3.6 2.2-2.8 3.9 2.3 1.7 6.5-.8 5.7-3.5M1668.8 285.3c.5-.6-.6-1.4-1.3-.9s-.5 1.4-.1 2c1.1 1.6 3.8 1.9 5.3.6 1.4-1.3 1.1-3.9-.6-4.9M1620.8 284.7c-1.4 1-1.6 3.2-.3 4.5s3.6 1.2 4.8-.1c1.4-1 .7-3.5-1-3.7M1574.5 286.2c-1.8 1.9.5 5.5 3.1 4.9 2.6-.5 3-4.7.6-5.7M1670.4 247.2c-2.3-.8-3.6 3.7-1.2 4 1.9-.2 3.2-2.3 2.6-4M1621.1 248.6c-2 .7-2.1 3.9-.1 4.6 3.2-.3 6-2.8 6.4-5.7-1.5-.9-3.8-.3-4.6 1.2M1576.7 248.9c-2-.1-3.6 2.2-2.8 3.9 2.3 1.7 6.5-.8 5.7-3.5M1530.2 493.5c.5-.6-.6-1.4-1.3-.9s-.5 1.4-.1 2c1.1 1.6 3.8 1.9 5.3.6s1.1-3.9-.6-4.9M1482.2 492.9c-1.4 1-1.6 3.2-.3 4.5 1.2 1.2 3.6 1.2 4.8-.1 1.4-1 .7-3.5-1-3.7M1435.9 494.4c-1.8 1.9.5 5.5 3.1 4.9 2.6-.5 3-4.7.6-5.7M1531.8 457.6c-2.3-.8-3.6 3.7-1.2 4 1.9-.2 3.2-2.3 2.6-4M1482.5 459c-2 .7-2.1 3.9-.1 4.6 3.2-.3 6-2.8 6.4-5.7-1.5-.9-3.8-.3-4.6 1.2M1438.1 459.3c-2-.1-3.6 2.2-2.8 3.9 2.3 1.7 6.5-.8 5.7-3.5M1530.2 424.1c.5-.6-.6-1.4-1.3-.9s-.5 1.4-.1 2c1.1 1.6 3.8 1.9 5.3.6s1.1-3.9-.6-4.9M1482.2 423.5c-1.4 1-1.6 3.2-.3 4.5 1.2 1.2 3.6 1.2 4.8-.1 1.4-1 .7-3.5-1-3.7M1435.9 425c-1.8 1.9.5 5.5 3.1 4.9 2.6-.5 3-4.7.6-5.7M1531.8 388.2c-2.3-.8-3.6 3.7-1.2 4 1.9-.2 3.2-2.3 2.6-4M1482.5 389.6c-2 .7-2.1 3.9-.1 4.6 3.2-.3 6-2.8 6.4-5.7-1.5-.9-3.8-.3-4.6 1.2M1438.1 389.9c-2-.1-3.6 2.2-2.8 3.9 2.3 1.7 6.5-.8 5.7-3.5M1388.1 493.5c.5-.6-.6-1.4-1.3-.9s-.5 1.4-.1 2c1.1 1.6 3.8 1.9 5.3.6 1.4-1.3 1.1-3.9-.6-4.9M1340.1 492.9c-1.4 1-1.6 3.2-.3 4.5 1.2 1.2 3.6 1.2 4.8-.1 1.4-1 .7-3.5-1-3.7M1293.8 494.4c-1.8 1.9.5 5.5 3.1 4.9 2.6-.5 3-4.7.6-5.7M1389.6 457.6c-2.3-.8-3.6 3.7-1.2 4 1.9-.2 3.2-2.3 2.6-4M1340.4 459c-2 .7-2.1 3.9-.1 4.6 3.2-.3 6-2.8 6.4-5.7-1.5-.9-3.8-.3-4.6 1.2M1296 459.3c-2-.1-3.6 2.2-2.8 3.9 2.3 1.7 6.5-.8 5.7-3.5M1388.1 424.1c.5-.6-.6-1.4-1.3-.9s-.5 1.4-.1 2c1.1 1.6 3.8 1.9 5.3.6 1.4-1.3 1.1-3.9-.6-4.9M1340.1 423.5c-1.4 1-1.6 3.2-.3 4.5 1.2 1.2 3.6 1.2 4.8-.1 1.4-1 .7-3.5-1-3.7M1293.8 425c-1.8 1.9.5 5.5 3.1 4.9 2.6-.5 3-4.7.6-5.7M1389.6 388.2c-2.3-.8-3.6 3.7-1.2 4 1.9-.2 3.2-2.3 2.6-4M1340.4 389.6c-2 .7-2.1 3.9-.1 4.6 3.2-.3 6-2.8 6.4-5.7-1.5-.9-3.8-.3-4.6 1.2M1296 389.9c-2-.1-3.6 2.2-2.8 3.9 2.3 1.7 6.5-.8 5.7-3.5M1530.2 356.9c.5-.6-.6-1.4-1.3-.9-.6.5-.5 1.4-.1 2 1.1 1.6 3.8 1.9 5.3.6s1.1-3.9-.6-4.9M1482.2 356.3c-1.4 1-1.6 3.2-.3 4.5 1.2 1.2 3.6 1.2 4.8-.1 1.4-1 .7-3.5-1-3.7M1435.9 357.7c-1.8 1.9.5 5.5 3.1 4.9 2.6-.5 3-4.7.6-5.7M1531.8 322c-2.3-.8-3.6 3.7-1.2 4 1.9-.2 3.2-2.3 2.6-4M1482.5 323.4c-2 .7-2.1 3.9-.1 4.6 3.2-.3 6-2.8 6.4-5.7-1.5-.9-3.8-.3-4.6 1.2M1438.1 323.7c-2-.1-3.6 2.2-2.8 3.9 2.3 1.7 6.5-.8 5.7-3.5M1530.2 288.5c.5-.6-.6-1.4-1.3-.9-.6.5-.5 1.4-.1 2 1.1 1.6 3.8 1.9 5.3.6s1.1-3.9-.6-4.9M1482.2 288c-1.4 1-1.6 3.2-.3 4.5 1.2 1.2 3.6 1.2 4.8-.1 1.4-1 .7-3.5-1-3.7M1435.9 289.4c-1.8 1.9.5 5.5 3.1 4.9 2.6-.5 3-4.7.6-5.7M1531.8 250.5c-2.3-.8-3.6 3.7-1.2 4 1.9-.2 3.2-2.3 2.6-4M1482.5 251.9c-2 .7-2.1 3.9-.1 4.6 3.2-.3 6-2.8 6.4-5.7-1.5-.9-3.8-.3-4.6 1.2M1438.1 252.1c-2-.1-3.6 2.2-2.8 3.9 2.3 1.7 6.5-.8 5.7-3.5M1388.1 356.9c.5-.6-.6-1.4-1.3-.9-.6.5-.5 1.4-.1 2 1.1 1.6 3.8 1.9 5.3.6 1.4-1.3 1.1-3.9-.6-4.9M1340.1 356.3c-1.4 1-1.6 3.2-.3 4.5 1.2 1.2 3.6 1.2 4.8-.1 1.4-1 .7-3.5-1-3.7M1293.8 357.7c-1.8 1.9.5 5.5 3.1 4.9 2.6-.5 3-4.7.6-5.7M1389.6 322c-2.3-.8-3.6 3.7-1.2 4 1.9-.2 3.2-2.3 2.6-4M1340.4 323.4c-2 .7-2.1 3.9-.1 4.6 3.2-.3 6-2.8 6.4-5.7-1.5-.9-3.8-.3-4.6 1.2M1296 323.7c-2-.1-3.6 2.2-2.8 3.9 2.3 1.7 6.5-.8 5.7-3.5M1388.1 288.5c.5-.6-.6-1.4-1.3-.9-.6.5-.5 1.4-.1 2 1.1 1.6 3.8 1.9 5.3.6 1.4-1.3 1.1-3.9-.6-4.9M1340.1 288c-1.4 1-1.6 3.2-.3 4.5 1.2 1.2 3.6 1.2 4.8-.1 1.4-1 .7-3.5-1-3.7M1293.8 289.4c-1.8 1.9.5 5.5 3.1 4.9 2.6-.5 3-4.7.6-5.7M1389.6 250.5c-2.3-.8-3.6 3.7-1.2 4 1.9-.2 3.2-2.3 2.6-4M1340.4 251.9c-2 .7-2.1 3.9-.1 4.6 3.2-.3 6-2.8 6.4-5.7-1.5-.9-3.8-.3-4.6 1.2M1296 252.1c-2-.1-3.6 2.2-2.8 3.9 2.3 1.7 6.5-.8 5.7-3.5M1812.5 213.6c-2.3-.8-3.6 3.7-1.2 4 1.9-.2 3.2-2.3 2.6-4M1763.2 215c-2 .7-2.1 3.9-.1 4.6 3.2-.3 6-2.8 6.4-5.7-1.5-.9-3.8-.3-4.6 1.2M1718.8 215.3c-2-.1-3.6 2.2-2.8 3.9 2.3 1.7 6.5-.8 5.7-3.5M1670.4 213.6c-2.3-.8-3.6 3.7-1.2 4 1.9-.2 3.2-2.3 2.6-4M1621.1 215c-2 .7-2.1 3.9-.1 4.6 3.2-.3 6-2.8 6.4-5.7-1.5-.9-3.8-.3-4.6 1.2M1576.7 215.3c-2-.1-3.6 2.2-2.8 3.9 2.3 1.7 6.5-.8 5.7-3.5M1531.8 216.9c-2.3-.8-3.6 3.7-1.2 4 1.9-.2 3.2-2.3 2.6-4M1482.5 218.3c-2 .7-2.1 3.9-.1 4.6 3.2-.3 6-2.8 6.4-5.7-1.5-.9-3.8-.3-4.6 1.2M1438.1 218.5c-2-.1-3.6 2.2-2.8 3.9 2.3 1.7 6.5-.8 5.7-3.5M1389.6 216.9c-2.3-.8-3.6 3.7-1.2 4 1.9-.2 3.2-2.3 2.6-4M1340.4 218.3c-2 .7-2.1 3.9-.1 4.6 3.2-.3 6-2.8 6.4-5.7-1.5-.9-3.8-.3-4.6 1.2M1296 218.5c-2-.1-3.6 2.2-2.8 3.9 2.3 1.7 6.5-.8 5.7-3.5M1812.5 176.7c-2.3-.8-3.6 3.7-1.2 4 1.9-.2 3.2-2.3 2.6-4M1763.2 178.1c-2 .7-2.1 3.9-.1 4.6 3.2-.3 6-2.8 6.4-5.7-1.5-.9-3.8-.3-4.6 1.2M1718.8 178.4c-2-.1-3.6 2.2-2.8 3.9 2.3 1.7 6.5-.8 5.7-3.5M1670.4 176.7c-2.3-.8-3.6 3.7-1.2 4 1.9-.2 3.2-2.3 2.6-4M1621.1 178.1c-2 .7-2.1 3.9-.1 4.6 3.2-.3 6-2.8 6.4-5.7-1.5-.9-3.8-.3-4.6 1.2M1576.7 178.4c-2-.1-3.6 2.2-2.8 3.9 2.3 1.7 6.5-.8 5.7-3.5M1531.8 180c-2.3-.8-3.6 3.7-1.2 4 1.9-.2 3.2-2.3 2.6-4M1482.5 181.4c-2 .7-2.1 3.9-.1 4.6 3.2-.3 6-2.8 6.4-5.7-1.5-.9-3.8-.3-4.6 1.2M1438.1 181.7c-2-.1-3.6 2.2-2.8 3.9 2.3 1.7 6.5-.8 5.7-3.5M1389.6 180c-2.3-.8-3.6 3.7-1.2 4 1.9-.2 3.2-2.3 2.6-4M1340.4 181.4c-2 .7-2.1 3.9-.1 4.6 3.2-.3 6-2.8 6.4-5.7-1.5-.9-3.8-.3-4.6 1.2M1296 181.7c-2-.1-3.6 2.2-2.8 3.9 2.3 1.7 6.5-.8 5.7-3.5"/></g><g><path class="st39" d="M1750.1 554.9h-99v-68.8l49.5-41.7 49.5 41.7z"/><path class="st40" d="M1760.3 554.9H1637"/><path class="st41" d="M1700.6 430.2c5.4 6.9 14.4 13.2 21.6 18.2 13.1 9 22.8 22.3 33.4 34.3 1.2 1.3 2.3 3.4 1.1 4.7-.6.7-1.6.7-2.5.8-8.6.3-17.3 1.1-25.9 1.3-10.1.1-20.1.2-30.2.1-10.6-.1-21.2-.3-31.8-.7-7.5-.2-16.8 1.4-23.9-.7-.5-.2-1.1-.4-1.5-.8-.7-.9-.2-2.1.4-3 6-9.4 17.3-16.7 25.5-24 10.7-9.6 25.1-19 33.8-30.2z"/><path class="st42" d="M1700.4 430.3c1-2 1.1-4.3.9-6.5-.5-4.6-2.7-9.8-7.2-10.9-2.5-.6-5.3.2-6.9 2.3-1.6 2-1.8 5.1-.3 7.2.8 1.1 2 1.9 3.1 2.7 3.4 2.3 6.8 4.6 10.2 6.8"/><path class="st43" d="M1701.3 503.8h.3c4.7-.2 9.8.8 13.2 4 7.8 7.5 6.7 20.7-.1 28.4-4.6 5.3-12.2 8-18.9 6.1-8.3-2.3-17.5-14.9-16.2-23.7 1.6-9.7 12.9-14.3 21.7-14.8z"/></g><g><path class="st39" d="M1605.5 554.2h-99v-86.9l49.5-52.8 49.5 52.8z"/><path class="st39" d="M1555.6 514.3c-1.4-2.2-5.5 0-4.9 2.5s4 3.6 6.4 2.4c.7-.4 1.4-.9 1.7-1.7.7-1.6-.7-3.7-2.4-3.7"/><path class="st40" d="M1615.7 554.2h-123.2"/><path class="st41" d="M1557.9 405.3c5.5 9.4 14.8 18.1 22.3 24.9 12.6 11.6 22.9 27.2 32.7 41 2.5 3.5 4.9 8.4 2.1 11.6-14.5-13.9-24.6-29.8-37.6-45.1-4.7-5.6-18.1-22.7-25-14.3-9.3 11.3-18.9 22.2-28.4 33.3-2 2.4-27.2 26.6-27.6 25.2-2.7-9.2 20.6-28.2 26.7-35.4 11-13 25.9-25.9 34.8-41.2z"/><path class="st42" d="M1559.5 407.8c2.1-.7 3.8-2.3 5.2-4.1 2.9-3.6 4.9-8.9 2.5-12.9-1.3-2.2-4-3.5-6.5-3.2-2.5.3-4.8 2.4-5.2 4.9-.2 1.4.1 2.8.3 4.1.8 4 1.7 8 2.5 12"/><path class="st43" d="M1556.3 468.9h.2c3.3-.2 6.9.6 9.3 3.3 5.5 6.1 4.7 16.8 0 23-3.2 4.3-8.6 6.5-13.4 5-5.9-1.9-12.4-12.1-11.4-19.2 1-8 9.1-11.7 15.3-12.1z"/></g><g><path class="st12" d="M975.3 1033h-1.1c-.4 0-.8 0-1.4-.1-.5 0-1.1-.1-1.8-.1-.3 0-.7.1-1.1.2-.4 0-.8 0-1.2-.1-.4-.1-.8-.2-1.3-.2-.4 0-.9.1-1.4.1-1 .1-2 .2-3.1.4-.5 0-1.1.1-1.7.1-.6 0-1.1-.1-1.7-.2-.6-.1-1.2-.1-1.8 0-.6.1-1.2.2-1.9.2-1.3 0-2.6-.3-3.9-.4-1.4-.1-2.7-.1-4.2.2-.4 0-.7.1-1.1 0-.4-.1-.7-.2-1.1-.3h-.5c-.2 0-.4.1-.5.1-.4.1-.7 0-1.1 0-1.5 0-3-.1-4.5-.2h-2.3c-.8 0-1.5 0-2.3-.2-.8-.2-1.6-.3-2.3 0-.4.1-.8.1-1.2.1-.4 0-.8-.1-1.2-.1-.8-.1-1.6-.3-2.4-.3-.8 0-1.6.1-2.4.1-1.6.1-3.1 0-4.7 0-.8 0-1.6-.1-2.3-.1-.8 0-1.6.1-2.3.2-1.5.2-3.1.3-4.6.5-1.5.1-3 .2-4.5-.1-1.5-.2-2.9.1-4.3.2-.4.1-.7.1-1.1.1-.4 0-.7.1-1 0-.3 0-.7-.1-1-.1h-1c-1.4.1-2.7.3-3.9-.1-1.3-.4-2.5.2-3.7-.1-1.2-.4-2.3.4-3.4.1-1.1-.2-2.1-.3-3.1-.3-.5 0-.9.1-1.4.2h-1.3c-.8-.1-1.6-.2-2.3-.1-1.4.3-2.5.3-3.2.3h-1.1v-2.4h1.1c.7 0 1.8 0 3.2.2h1.1c.4 0 .8-.1 1.2-.2.4-.1.8-.1 1.3-.1.4 0 .9.1 1.4.2 1 0 2-.1 3.1-.4.5-.1 1.1-.1 1.7.1.6.3 1.1.3 1.7.1 1.2-.4 2.4.5 3.7.1 1.3-.4 2.6-.2 3.9 0 .7.1 1.4 0 2.1-.1h1c.4 0 .7 0 1.1.1.7.1 1.4.2 2.2.2.7 0 1.5.1 2.2-.1 1.5-.4 3-.4 4.5-.3.8 0 1.5.1 2.3.1.8 0 1.5.1 2.3.3.8.2 1.6.3 2.3.2.8-.1 1.6-.3 2.3-.3 1.6-.1 3.1-.3 4.7-.2.8.1 1.6.3 2.4.3.4 0 .8 0 1.2-.1l1.2-.3c.4-.1.8-.2 1.2-.2.4-.1.8 0 1.2.2.8.5 1.6.4 2.3 0 .8-.3 1.5-.4 2.3-.3.8.1 1.5.1 2.3.2 1.5 0 3 0 4.5.1.4 0 .7 0 1.1.1.2.1.4.1.5.2h.5c.4 0 .7-.2 1.1-.2h1.1c1.4.3 2.8.3 4.2.4 1.4 0 2.7 0 3.9-.1 1.3 0 2.5.2 3.7-.1 2.4-.5 4.5 0 6.4.1.5 0 .9.1 1.4 0 .4 0 .9-.1 1.3-.2s.8-.1 1.2-.1c.4 0 .7.1 1.1.1.7 0 1.3-.1 1.8-.1.5-.1 1-.1 1.4-.1.7 0 1.1-.1 1.1-.1v2.7z"/></g><g><path class="st12" d="M1853.4 1033h-.3c-.1 0-.3 0-.4-.1-.2 0-.4-.1-.6-.1-.1 0-.2.1-.3.2-.1 0-.2 0-.4-.1-.1-.1-.3-.2-.4-.2-.1 0-.3 0-.4.1-.3.1-.6.2-.9.4-.2.1-.3.1-.5.1s-.4-.1-.5-.2c-.2-.1-.4-.1-.6 0-.2.1-.4.2-.6.2-.4 0-.8-.3-1.2-.4-.4-.1-.8-.2-1.3.2-.1.1-.2.1-.3 0l-.3-.3h-.2c-.1 0-.1.1-.2.1-.1.1-.2 0-.3.1-.5 0-.9-.1-1.4-.2h-.7c-.2 0-.5 0-.7-.2-.2-.2-.5-.3-.7 0-.2.2-.5.1-.7 0-.2-.1-.5-.3-.7-.3-.2 0-.5.1-.7.1-.5.1-1 0-1.5 0-.2 0-.5-.1-.7-.1-.2 0-.5.1-.7.2-.5.2-1 .3-1.4.5-.5.1-.9.2-1.4-.1-.5-.2-.9.1-1.3.2-.2.1-.4.2-.7.1-.1 0-.2-.1-.3-.1h-.3c-.2 0-.4.2-.6.2-.2 0-.4-.1-.6-.3-.4-.4-.8.2-1.1-.1-.2-.1-.4-.1-.5 0-.2.2-.3.2-.5.1-.3-.2-.6-.3-.9-.3-.3.1-.6.3-.8.1-.1-.1-.3-.1-.4-.1-.1 0-.2 0-.3.1-.4.3-.8.3-1 .3h-.3v-2.4h.3c.2 0 .6 0 1 .2h.3c.1 0 .2-.1.4-.2.1-.1.3-.1.4-.1.1 0 .3.1.4.2.3 0 .6-.1.9-.4.2-.1.3-.1.5.1.2.3.4.3.5.1.4-.4.7.5 1.1.1.2-.1.4-.3.6-.2.2 0 .4.2.6.2.1 0 .2.1.3 0 .1 0 .2-.1.3-.1.2 0 .4 0 .7.1.4.1.9.4 1.3.1.5-.4.9-.4 1.4-.3.2 0 .5.1.7.1.2.1.5.1.7.3.2.2.5.3.7.2.2-.1.5-.3.7-.3.5-.1 1-.3 1.5-.2.2.1.5.3.7.3.2 0 .5-.2.7-.4.2-.2.5-.4.7 0 .2.5.5.4.7 0 .2-.3.5-.4.7-.3.2.1.5.1.7.2.5.1.9 0 1.4.1.1 0 .2 0 .3.1l.2.2h.2c.1 0 .2-.2.3-.2h.3c.2.1.4.3.7.3.2.1.4.1.6.1.4 0 .8 0 1.2-.1.4 0 .8.2 1.1-.1.2-.1.4-.2.5-.2h.5c.3.1.6.2.9.2h.4c.1 0 .3-.1.4-.2.1-.1.3-.1.4-.1.1 0 .2.1.3.1.2 0 .4-.1.6-.1.2 0 .3-.1.4-.1h.3v2.6z"/></g><g><path class="st12" d="M822.3 1033h-.5c-.2 0-.4 0-.6-.1-.2 0-.5-.1-.8-.1-.2 0-.3.1-.5.2-.2 0-.4 0-.5-.1-.2-.1-.4-.2-.6-.2-.2 0-.4 0-.6.1-.4.1-.9.2-1.4.4-.2.1-.5.1-.8.1-.3 0-.5-.1-.8-.2-.3-.1-.5-.1-.8 0-.3.1-.6.2-.9.2-.6 0-1.2-.3-1.8-.4-.3 0-.6-.1-.9 0h-.5c-.2 0-.3.1-.5.2s-.3.1-.5 0-.3-.2-.5-.3h-.2c-.1 0-.2.1-.3.1-.2.1-.3 0-.5.1-.7 0-1.4-.1-2.1-.2h-1c-.4 0-.7 0-1.1-.2-.4-.2-.7-.3-1.1 0-.4.2-.7.1-1.1 0-.4-.1-.7-.3-1.1-.3-.4 0-.7.1-1.1.1-.7.1-1.4 0-2.2 0-.4 0-.7-.1-1.1-.1-.4 0-.7.1-1.1.2-.7.2-1.4.3-2.1.5-.7.1-1.4.2-2.1-.1-.7-.2-1.3.1-2 .2-.3.1-.6.2-1 .1-.2 0-.3-.1-.5-.1h-.5c-.3 0-.6.2-.9.2-.3 0-.6-.1-.9-.3-.6-.4-1.1.2-1.7-.1-.3-.1-.5-.1-.8 0-.3.2-.5.2-.8.1-.5-.2-1-.3-1.4-.3-.4.1-.8.3-1.2.1-.2-.1-.4-.1-.5-.1-.2 0-.3 0-.5.1-.6.3-1.1.3-1.5.3h-.5v-2.4h.5c.3 0 .8 0 1.5.2h.5c.2 0 .4-.1.5-.2.2-.1.4-.1.6-.1s.4.1.6.2c.4 0 .9-.1 1.4-.4.2-.1.5-.1.8.1.3.3.5.3.8.1.5-.4 1.1.5 1.7.1.3-.1.6-.3.9-.2.3 0 .6.2.9.2.2 0 .3.1.5 0l.5-.1c.3 0 .6 0 1 .1.7.1 1.3.4 2 .1.7-.4 1.4-.4 2.1-.3.3 0 .7.1 1 .1.4 0 .7.1 1.1.3.4.2.7.3 1.1.2.4-.1.7-.3 1.1-.3.7-.1 1.4-.3 2.2-.2.4.1.7.3 1.1.3.2 0 .4 0 .5-.1l.5-.3c.2-.1.4-.2.5-.2.2-.1.4 0 .5.2.4.5.7.4 1.1 0 .4-.3.7-.4 1.1-.3.4.1.7.1 1 .2.7.1 1.4 0 2.1.1.2 0 .3 0 .5.1.1.1.2.1.3.2h.2c.2 0 .3-.2.5-.2h.5c.7.3 1.3.3 1.9.4.6 0 1.2 0 1.8-.1.6 0 1.1.2 1.7-.1.3-.1.5-.2.8-.2h.8c.5.1 1 .2 1.4.2h.6c.2 0 .4-.1.6-.2.2-.1.4-.1.5-.1.2 0 .3.1.5.1.3 0 .6-.1.8-.1.2-.1.5-.1.6-.1h.5v2.6z"/></g><g><path class="st44" d="M1136.1 408.9c1.8-4.7 4.4-9.2 7.5-13.2M1131.5 407.1c-.8-10.1-.6-20.3.7-30.4M1145.8 390.5c1.6-2 3.1-4 4.7-6M1140.3 414.8c4.3-.6 8.5-2.4 11.8-5.3.9-.8 1.9-1.9 1.7-3.1-.3-2.3-4.5-1.8-4.8.5-.3 2.3 2.3 4.2 4.6 4.2s4.4-1.5 6.4-2.8c2.8-1.9 5.5-3.9 8.3-5.8"/></g><path class="st22" d="M1060.5 767.2c-.3 9.4 7.1 17.7 7.3 27.1.2 12-11.2 22-10.7 34.1.2 5.2 2.6 10 3.5 15.1 1.3 7.3-1 12.8-3.8 19.2-3.3 7.7-.9 13.7.7 21.9 1.9 10.1.2 20.8-4.9 29.7 2.3 1 5.1-.3 6.5-2.4 1.4-2.1 1.9-4.6 2.2-7.1 2.7-17.6 5.7-35 8.9-52.4 3.7-20.1 8-40.2 13.6-59.9 5.2-18.3 12.5-35.8 17.2-54.3-5 4.7-10.4 9.6-17.1 11.2-3.7.9-7.6.7-11.2 1.8-6.7 2.1-12 8.8-12.2 16z"/></svg>