<svg xmlns="http://www.w3.org/2000/svg" id="Artwork" viewBox="0 0 1920 1080"><defs><style>.cls-2{fill:#dfe2ec}.cls-3{fill:#e7e9f0;stroke:#e7e9f0;opacity:.5}.cls-20,.cls-3{stroke-miterlimit:10}.cls-3{stroke-width:3px}.cls-5{fill:#f3f4f6}.cls-6{fill:#fff}.cls-8{fill:#2a3376}.cls-9{fill:#0e1438}.cls-10{fill:#616eb3}.cls-11{fill:#3e4166}.cls-20{fill:none}.cls-15{fill:#232967}.cls-19{fill:#c4ccdf}.cls-20{stroke:#c4ccdf}</style></defs><path d="M1740.616 883.45c-13.423-.044-26.845-.034-40.268-.147-6.71-.007-13.423-.114-20.134 0-6.71.057-13.423.182-20.134.055l-20.134-.182c-6.71-.047-13.423.073-20.134.1l-40.268.3c-6.71.026-13.423.152-20.134.1l-20.134-.14c-13.423-.21-26.845.065-40.268.126-26.845.042-53.69-.44-80.536-.35-13.423-.1-26.845.23-40.268.218l-20.134-.3c-6.71-.025-13.423.24-20.134.187l-80.536-.167c-13.423-.027-26.845.073-40.268-.213l-10.067-.123c-3.356-.034-6.71-.1-10.067-.04l-20.134.207c-13.423-.042-26.845-.216-40.268-.33-6.71-.1-13.423-.03-20.134-.023l-20.134.083c-13.423.1-26.845 0-40.268.016l-40.268-.1c-26.845-.223-53.69.446-80.536.44l-40.268.2-10.067.043-10.064-.075-20.134-.14c-26.844-.158-53.69.424-80.535.336-6.71-.013-13.423-.173-20.134-.1l-20.133.11c-13.423.146-26.845-.1-40.268-.29-6.71-.087-13.424 0-20.135 0l-10.067.04-10.067-.11c-13.422-.327-26.844.334-40.267.134l-20.134-.192-20.135-.082c-13.423.07-26.845.28-40.268.093l-10.068-.065c-3.357-.022-6.712-.056-10.068 0l-20.134.208c-13.423.155-26.845.11-40.268.174v-2.4c13.423.034 26.845-.034 40.268.084l20.134.146c3.356.042 6.71-.01 10.067-.048l10.066-.114c13.423-.266 26.845-.032 40.268.032l20.134-.13c6.71-.068 13.423-.215 20.134-.238 3.357 0 6.71-.094 10.068-.028 3.354.02 6.71.14 10.066.227s6.71.16 10.067.14l10.068-.1 10.068-.116 10.067.108 10.067.108c3.356.024 6.71.1 10.067.034 13.422-.135 26.844-.384 40.267-.19l20.134.157c3.356.047 6.71.03 10.067 0l10.067-.07c26.845-.11 53.69.43 80.536.15l20.133-.24 10.067-.123 10.068.018 40.268.112 20.134.056 20.134.253 20.134.235 20.134-.1c13.423-.183 26.845-.22 40.268-.28l20.134-.087 10.067-.044 10.07.085c13.423.1 26.845.4 40.268.212 13.423-.135 26.845-.618 40.268-.56 6.71-.015 13.423.45 20.134.49 6.71.112 13.422-.074 20.133-.235s13.423-.35 20.134-.31l20.134.11q20.136.16 40.27.15l40.268.072c6.71-.023 13.423.287 20.134.296l20.135-.213c13.423.025 26.845.363 40.268.337q80.536.218 161.072-.19l40.268.177c6.71.01 13.423.1 20.134.048l20.133-.2c6.71-.126 13.424-.02 20.135.02 6.71.1 13.422-.032 20.134-.048l40.267-.185z" fill="#e0e3f0"/><path class="cls-2" d="M1156.12 890.326c4.81-.12 9.617-.433 14.426-.12l1.8.072c.3.022.6.1.9.15a7.9 7.9 0 00.9.04l3.606.056c2.4-.022 4.808.387 7.212.387 4.808-.032 9.616-.343 14.425-.52 1.2-.04 2.4-.136 3.603-.072s2.4.17 3.606.21 2.4-.044 3.606-.06 2.4-.066 3.606-.14v2.4l-7.212.192a34.03 34.03 0 01-3.604-.175c-1.2-.1-2.4-.045-3.606-.047l-14.426.1a61.3 61.3 0 01-7.212.207c-1.2-.09-2.4-.316-3.606-.4a6.2 6.2 0 00-.9-.047 7.682 7.682 0 01-.9.094c-.6-.03-1.2-.056-1.8-.112a33.952 33.952 0 00-3.606-.21 14.872 14.872 0 00-1.8.176 15.68 15.68 0 01-1.8.112c-2.4.037-4.808.147-7.212.1zm-358.83 0c21.246-.12 42.493-.433 63.74-.12l7.966.075c2.656.086 5.312.215 7.967.19l15.935.057c5.312-.013 10.623.112 15.935.194 5.312.1 10.623.12 15.935.183 21.246-.1 42.493-.307 63.74-.51 5.31-.047 10.622-.13 15.934-.064l15.935.182c2.656.04 5.312.036 7.968 0l7.967-.06 15.935-.124v2.4l-31.87.178c-2.656-.01-5.312.025-7.967-.02l-7.968-.13c-5.312-.1-10.623-.06-15.935-.057l-63.74.11-15.934.186c-5.312.03-10.623.142-15.935-.02l-15.935-.354c-2.656-.114-5.312-.006-7.967.033l-7.967-.124c-5.315-.084-10.626-.176-15.938-.19l-7.968.155c-2.656.066-5.312.134-7.967.122l-31.87.11zm329.084-174.416a3.862 3.862 0 01.932.14.628.628 0 00.466.018 1.28 1.28 0 01.232-.136.357.357 0 01.233.033c.156.07.31.225.466.232a1.6 1.6 0 00.465-.087c.31-.112.62-.27.93-.378a1.567 1.567 0 01.466-.083 1.378 1.378 0 01.466.18.566.566 0 00.466.045 3.864 3.864 0 01.466-.22 1.894 1.894 0 01.93.238 2.794 2.794 0 00.932.183.96.96 0 00.466-.1c.156-.09.312-.2.467-.164.155.016.31.3.464.322.08.04.16-.04.237-.12a.227.227 0 01.233-.082c.62 0 1.24.23 1.86.194.31.01.622-.1.93.214a.63.63 0 00.462.2c.157-.033.314-.25.47-.247.31-.01.617.283.925.39a1.685 1.685 0 00.932-.086 5.9 5.9 0 011.86.13 1.11 1.11 0 00.93-.124 4.412 4.412 0 01.937-.313 3.867 3.867 0 01.936-.168.97.97 0 01.465.035l.46.227c.614.206 1.256-.5 1.873-.338.3.265.618.123.933.024a.607.607 0 01.466.022c.153.085.3.27.454.336.3.167.63-.234.93.077.15.117.3.17.465.016s.317-.21.47-.13a1.893 1.893 0 00.92.337 1.694 1.694 0 00.47-.144.555.555 0 01.463.082.624.624 0 00.46.116 2.78 2.78 0 00.477-.22 2.107 2.107 0 01.94-.116l-.114 2.4a2.3 2.3 0 01-.923-.11 1.84 1.84 0 00-.455-.2.655.655 0 00-.47.17.487.487 0 01-.47.1 1.43 1.43 0 00-.456-.185 2.01 2.01 0 00-.94.36.31.31 0 01-.233 0c-.078-.033-.15-.155-.224-.245-.146-.23-.3-.183-.462-.05-.323.363-.607-.3-.92-.2-.157.028-.317.2-.474.26a.576.576 0 01-.462-.06c-.3-.158-.607-.357-.924-.12-.623.15-1.22-.55-1.848-.265l-.473.317a.882.882 0 01-.466.087 2.915 2.915 0 01-.925-.106 2 2 0 01-.918-.393.706.706 0 00-.925-.153 3.692 3.692 0 01-.936.31 1.692 1.692 0 01-.928.016c-.306-.164-.61-.445-.923-.284s-.628.64-.936.582c-.154-.033-.3-.44-.457-.536-.154-.08-.31.063-.467.263s-.313.323-.467.3-.308-.086-.462-.128a12.585 12.585 0 00-1.853-.23.266.266 0 01-.23-.137c-.075-.1-.152-.2-.23-.178-.155-.008-.31.24-.466.233a.8.8 0 01-.463-.212 1.223 1.223 0 00-.463-.16 9.292 9.292 0 00-1.857-.016 1.2 1.2 0 00-.93.062 1.52 1.52 0 01-.464.22 1.658 1.658 0 01-.464-.025c-.31-.063-.62-.174-.93-.243a1.7 1.7 0 00-.463-.033c-.157.02-.31.173-.465.25a.415.415 0 01-.464-.06.673.673 0 00-.463.053 4.046 4.046 0 01-.928.2z"/><path class="cls-2" d="M1178.3 718.128a58.978 58.978 0 0111.823 2.57 31.974 31.974 0 0110.64 5.965c.752.7 1.49 1.41 2.227 2.124.657.787 1.35 1.548 1.972 2.36a39.934 39.934 0 013.21 5.217 37.508 37.508 0 013.57 11.583 35.267 35.267 0 01.528 6.108 9.056 9.056 0 01-.706 3.23 5.63 5.63 0 01-.92 1.505 6.453 6.453 0 01-1.31 1.13c-3.827 2.2-7.912 2.568-11.893 2.92-7.99.584-15.97.03-23.81-.218-3.857-.063-7.88.127-11.812.052l-11.86-.14c-7.907-.21-15.813.065-23.72.126-15.813.042-31.627-.44-47.44-.35-7.907-.1-15.813.23-23.72.218l-11.86-.3c-3.953-.082-7.907.274-11.86.187-15.813-.05-31.627-.188-47.44-.167-7.906-.027-15.813.073-23.72-.213l-5.93-.123c-1.977-.035-3.953-.1-5.93-.058-3.953.008-7.906.253-11.86.235-7.907-.068-15.813-.228-23.72-.344-3.953-.1-7.906-.03-11.86-.025l-11.86.084c-7.907.1-15.813 0-23.72.016-3.958 0-7.9-.034-11.85.047s-7.905.126-11.867.106c-1.98-.015-3.963-.033-5.945-.11a51.13 51.13 0 01-5.968-.478 13.9 13.9 0 01-5.725-2.1 9.838 9.838 0 01-3.76-4.906 14.57 14.57 0 01-.683-6.13 25.257 25.257 0 011.283-5.95 41.227 41.227 0 015.61-10.694 31.8 31.8 0 018.7-8.5 39.435 39.435 0 0111.257-4.54q2.93-.734 5.894-1.22c1.98-.295 3.96-.528 5.935-.736 3.95-.4 7.89-.733 11.834-1.076 15.772-1.324 31.553-2.855 47.4-3.2l23.76-.248c7.923-.09 15.84.357 23.744.84 15.83.523 31.605 2.19 47.366 3.173 3.935.325 7.864.706 11.8.975 3.938.228 7.88.425 11.824.556 7.895.148 15.788-.04 23.687.07 3.95-.022 7.9.034 11.85-.13s7.9-.31 11.847-.506c7.9-.375 15.8-.577 23.71-.837l.06 2.4c-7.9.16-15.8.476-23.71.577l-11.866.156c-1.98 0-3.955.088-5.932.166l-5.935.194c-7.916.348-15.843.086-23.76-.194-3.963-.06-7.925-.186-11.887-.344s-7.928-.273-11.878-.552c-1.976-.145-3.956-.215-5.92-.44-1.97-.178-3.933-.462-5.895-.71-3.923-.525-7.862-.827-11.81-.98l-5.913-.285-5.9-.468c-3.935-.287-7.872-.612-11.818-.723-7.9-.165-15.79-.112-23.678-.36-3.946-.044-7.893-.14-11.84-.13-3.948-.063-7.892.176-11.837.283-1.972.062-3.942.2-5.915.238s-3.946.1-5.918.17c-3.946.117-7.89.294-11.832.48-3.94.23-7.884.436-11.82.732l-5.906.435-5.89.606c-3.918.48-7.846.985-11.74 1.537a116.7 116.7 0 00-11.506 2.02 36.967 36.967 0 00-10.592 4.15 30.468 30.468 0 00-8.145 7.757 39.112 39.112 0 00-5.494 10.027 25.444 25.444 0 00-1.4 5.47 12.9 12.9 0 00.366 5.43 8.266 8.266 0 003.05 4.28 12.62 12.62 0 005.137 2.067 40.514 40.514 0 005.8.42c1.964.044 3.93.06 5.9.02 3.94-.07 7.88-.284 11.84-.388 3.963-.13 7.933-.15 11.88-.2l11.86-.06 5.93-.023 5.93.088c7.906.105 15.812.4 23.72.212 7.906-.135 15.812-.618 23.72-.558 3.952-.017 7.906.447 11.86.49 3.952.105 7.906-.066 11.86-.247 7.906-.454 15.812-.267 23.72-.19l11.86.11 11.86.024 23.72.085c1.976.005 3.952.02 5.93.132s3.952.2 5.93.166l11.86-.212c7.906.025 15.812.363 23.72.337 31.642.166 63.217-.022 94.915-.144 7.93.41 15.786 1.11 23.613.7a48.554 48.554 0 005.79-.62 22.674 22.674 0 002.77-.7 8.013 8.013 0 002.486-1.16 4.738 4.738 0 00.934-.85 3.848 3.848 0 00.6-1.07 7.222 7.222 0 00.48-2.595 32.626 32.626 0 00-.713-5.694 49.03 49.03 0 00-3.32-11.054 24.982 24.982 0 00-6.917-9.01 31.5 31.5 0 00-10.055-5.384 56.735 56.735 0 00-11.34-2.333z"/><path class="cls-3" d="M1205.683 756.367c.914-6.058-5.32-11.614-12.522-13.41s-15.02-.677-22.343.858c-17.97 3.765-36.128 10.034-54.366 7.507-23.625-3.274-41.07-18.61-66.26-13.057-10.65 2.348-20.9 7.473-31.8 7.054-13.1-.5-24.5-8.89-37.176-12.257-33.16-8.81-69.928 17.427-101.346 3.643-9.733-4.27-18.033-12.167-28.527-13.856a26.343 26.343 0 00-27.44 14.867 18.22 18.22 0 00-1.452 11.378c1.453 6.26 7.15 10.835 13.277 12.777 25.99 8.236 60.53 2.607 87.54 2.58l90.35-.09c57.573-.057 115.16-.115 172.69 1.358 5.717.147 12.813-.354 15.085-4.607"/><path d="M1206.46 847.616v8.357H827.684v-8.357" fill="#e7e9f0"/><path class="cls-2" d="M1207.66 847.616l-.068 8.356-.01 1.153-1.122-.02-5.918-.107c-.986 0-1.973-.04-2.96-.017l-2.958.11c-3.946.23-7.89-.27-11.837-.21-7.89.172-15.782.422-23.674.53-3.946-.023-7.89-.34-11.837-.222-1.973.036-3.946.16-5.918.206s-3.946 0-5.918-.042l-11.837-.28c-3.946-.02-7.89-.06-11.837-.026l-5.918.206a56.053 56.053 0 01-5.918-.182c-.986-.082-1.973-.1-2.96-.134-.985 0-1.972.072-2.958.152-1.973.128-3.946.022-5.918.038-7.89-.017-15.782-.2-23.674-.15-1.973.012-3.946.02-5.918-.014-1.973-.067-3.946-.182-5.918-.28q-2.96-.167-5.918-.068c-1.973.108-3.946.232-5.918.2-3.946-.02-7.89-.316-11.837-.37s-7.89.028-11.834.086c-3.946.1-7.89.006-11.837.018-3.947-.02-7.89 0-11.838-.084-7.89-.234-15.78.306-23.672.416-3.946.1-7.89.173-11.837.2-3.945.045-7.89.118-11.836-.092l-2.96-.1-2.958-.03-5.92.122-11.836.294c-3.945.176-7.89-.3-11.836-.088-3.946.05-7.89.263-11.837.05-1.972-.11-3.945-.25-5.917-.294-1.974-.005-3.947.02-5.92.046-3.945.19-7.89-.39-11.836-.078a50.483 50.483 0 01-5.918.142c-1.974-.03-3.947-.114-5.92-.185l-5.917-.086c-1.974-.033-3.947.08-5.92.105-3.945.185-7.89-.113-11.836-.125-1.973.024-3.946.1-5.918.164s-3.947.173-5.92.177h-1.116l-.01-1.13c-.03-2.785-.095-5.57-.07-8.356h2.4c.036 2.785 0 5.57-.014 8.356l-1.187-1.188c1.972-.01 3.945.074 5.917.128s3.946.1 5.918.1c1.973-.02 3.946-.155 5.918-.252 1.973-.068 3.946-.1 5.918-.014 1.974.043 3.947.143 5.92.118 1.972-.01 3.945-.072 5.917-.143a71.45 71.45 0 0111.838-.01c3.946.433 7.89-.327 11.837-.02 1.974.11 3.947.223 5.92.21s3.945-.144 5.917-.244c3.946-.2 7.89.07 11.837.145 3.945.255 7.89-.2 11.836-.06 15.783.835 31.565-.653 47.348-.076 3.946.05 7.89.158 11.837.408a114.145 114.145 0 0011.838.017c7.892-.27 15.783-.436 23.675-.32 31.564-.7 63.13-.228 94.694.31 3.946.085 7.89.107 11.837.15l11.837-.045c3.947-.05 7.89.062 11.838.045 3.947.025 7.89-.27 11.838-.32 7.89.035 15.782.2 23.674.3 3.947.027 7.892-.446 11.838-.256l2.96.083c.985.017 1.972-.024 2.958-.032l5.918-.132-1.1 1.1-.1-8.356z"/><path class="cls-5" d="M1181.93 768.443h17.572v123.082h-17.57z"/><path class="cls-2" d="M1200.35 892.374c-6.02.235-12.25.44-18.42.464l-1.304.005-.007-1.318c-.058-10.257-.167-20.514-.14-30.77 0-10.258.13-20.515.2-30.772.215-5.128.2-10.257.21-15.385l.05-15.385.214-15.385.15-15.385.005-.633.617.01c2.928.042 5.857-.024 8.785-.03l8.785-.063.71-.005v.72l.4 62c.015 10.362-.244 20.576-.304 30.86zm-1.7-1.7l-.29-30.695c-.005-5.084-.1-10.21-.025-15.245.043-5.052.107-10.107.092-15.2l-.168-61.1 1.236 1.24-8.785.01c-2.927.013-5.856-.013-8.784.032l1.282-1.283c.12 10.257.252 20.514.24 30.77l-.28 15.386-.173 7.694c-.086 2.564.037 5.128.058 7.693l-.215 15.384c-.052 5.13-.167 10.26-.025 15.387.28 10.256.2 20.513.258 30.77l-1.145-1.146c5.59-.023 11.073.107 16.726.304z"/><path class="cls-5" d="M835.363 768.443h17.57v123.082h-17.57z"/><path class="cls-2" d="M853.782 892.374c-6.02.235-12.25.44-18.42.464l-1.304.005-.007-1.318c-.052-10.257-.16-20.514-.133-30.77 0-10.258.13-20.515.2-30.772.214-5.128.2-10.257.21-15.385l.048-15.385.214-15.385.15-15.385.004-.633.618.01c2.93.042 5.858-.024 8.786-.03l8.785-.063.71-.005v.72l.4 62c.016 10.362-.243 20.576-.303 30.86zm-1.7-1.7l-.29-30.695c-.005-5.084-.1-10.21-.025-15.245.043-5.052.107-10.107.092-15.2l-.17-61.1 1.24 1.24-8.787.01c-2.928.013-5.857-.013-8.785.032l1.28-1.283c.12 10.257.254 20.514.24 30.77l-.28 15.395-.172 7.692c-.086 2.564.038 5.128.06 7.693l-.216 15.385c-.053 5.13-.168 10.26-.026 15.387.28 10.257.2 20.514.258 30.77l-1.146-1.145c5.592-.03 11.076.1 16.727.297z"/><path class="cls-3" d="M1195.643 812.5c-.924 4.43-1.91 7.75-2.88 8.943a15.063 15.063 0 00-2.02 2.69 12 12 0 00-.776 4.7 31.548 31.548 0 01-2.574 10.843c-.293.672-.705 1.413-1.424 1.56a1.766 1.766 0 01-1.21-.27c-1.977-1.14-2.21-3.847-2.21-6.127-.008-5.444.24-66.4-.62-66.4h17.57c1.775 0-.658 28.71-3.86 44.06zM852.1 813.96a33.043 33.043 0 01-1.267 3.57c-1.584 3.74-3.9 7.22-4.747 11.194-.89 4.2-.083 8.765-1.847 12.677a2.658 2.658 0 01-.9 1.21c-1.057.67-2.43-.16-3.25-1.1-3.005-3.47-3.333-8.443-3.515-13.03a1500.21 1500.21 0 01-1.208-60.032h17.57c-.006 13.687 3.16 31.906-.84 45.515z"/><path class="cls-5" d="M912.994 776.8h-85.31v-16.713h378.776V776.8h-50.34"/><path class="cls-2" d="M912.994 778l-10.664-.062-10.664-.126c-3.554-.055-7.11.166-10.664.153l-5.332-.134c-1.777-.045-3.554-.12-5.332-.115-7.11.048-14.218.228-21.327.335l-10.66.185c-3.555.04-7.11-.054-10.665-.163l-1.314-.04.043-1.23c.05-1.392.053-2.784.07-4.177.035-1.393-.013-2.785-.037-4.178l-.083-4.178c-.03-1.395-.1-2.787-.1-4.18l-.006-1.418 1.43-.005c7.89-.028 15.78.18 23.672.315 7.89.022 15.78.166 23.673-.135 1.973-.046 3.946-.076 5.918-.017 1.974.044 3.947.194 5.92.25a56.32 56.32 0 005.917-.09c1.973-.11 3.946-.066 5.918-.06l23.674.15 11.836.01c3.946 0 7.89-.058 11.837.134 3.946.13 7.89.357 11.837.245l5.916-.2c1.973-.05 3.946 0 5.918.045 7.89.145 15.782.436 23.673.286 3.946-.023 7.89-.114 11.837-.11l11.837.03 11.84.04q5.916.085 11.835.09c7.89-.067 15.782-.363 23.673-.453 7.89-.153 15.78-.206 23.673-.26 1.974-.02 3.947.024 5.92.038l5.92.153c3.944.116 7.89.09 11.835 0l11.837-.2c3.947-.048 7.89-.21 11.838-.16 7.89.307 15.782 0 23.673-.018 3.947.01 7.89.244 11.838.345 3.947.073 7.89-.02 11.838-.045 3.946.024 7.89.25 11.837.17 1.973-.045 3.946-.206 5.918-.226 1.973-.052 3.946.038 5.918.05l1.064.006-.014 1.042c-.04 2.785-.17 5.57-.182 8.356l-.04 4.178c0 1.393-.05 2.785-.02 4.178l.017.8-.823.01c-4.196.055-8.39.2-12.585.144l-6.292-.106c-2.1-.024-4.195-.094-6.292-.015-4.194.063-8.39.24-12.584.29-4.196.03-8.39.107-12.586.08v-2.4l12.585.022c4.194.016 8.39.173 12.584.2 4.196.1 8.39-.18 12.586-.27 4.195-.064 8.39.077 12.584.136l-1.112 1.11c.03-1.393-.012-2.785-.014-4.18s-.05-2.783-.076-4.176c-.054-2.785-.178-5.57-.255-8.356l1.457 1.457c-.986.034-1.973.06-2.96.058s-1.972.02-2.958-.022c-1.973-.032-3.946-.252-5.918-.32-3.946-.2-7.89.238-11.837.165-3.945-.034-7.89-.335-11.836-.255-3.946.036-7.89.33-11.837.292-7.89-.08-15.782-.414-23.673-.154-1.973.057-3.946.026-5.918-.01l-5.918-.09-11.837-.138c-3.945-.062-7.89-.062-11.836.112l-5.918.233c-1.973.033-3.946.1-5.918.1h-11.837c-3.945.007-7.89-.085-11.836-.123-7.89.027-15.782-.566-23.673-.566-3.945-.017-7.89.16-11.836.24l-11.837.2c-7.89.06-15.782.2-23.674-.15a164.773 164.773 0 00-5.92-.113c-1.973-.038-3.946.025-5.918.073-3.946.1-7.89.406-11.837.49-1.973.03-3.946.117-5.918.013s-3.946-.3-5.918-.428a99.546 99.546 0 00-11.838.358c-3.946.235-7.89.155-11.837.1l-11.837-.158-23.675-.1c-1.973-.017-3.946.01-5.918-.13a54.02 54.02 0 00-5.918-.167c-1.975.037-3.948.166-5.92.193-1.973.06-3.946-.04-5.918-.07-7.89-.29-15.782-.277-23.674-.337-7.892.01-15.783.074-23.674.037l.777-.777-.04 8.356c0 1.393-.02 2.785.03 4.18l.1 4.176-.872-.874 5.333-.147c1.778-.027 3.555-.06 5.333-.05l10.664.106c7.108.057 14.217.184 21.326.19 1.777 0 3.555-.08 5.332-.13l5.332-.14c3.554-.026 7.11.166 10.664.1l10.665-.16 10.664-.1z"/><path class="cls-2" d="M1141.25 778c-2.134-.045-4.27-.035-6.404-.148-1.068-.012-2.135-.1-3.2-.017a16.634 16.634 0 01-3.2.1c-1.068-.06-2.135-.233-3.2-.22-1.068-.02-2.135.057-3.2.08l-6.406.368c-1.067.023-2.135.1-3.2.078-1.067.01-2.135-.1-3.2-.172a27.87 27.87 0 00-3.2-.04c-1.068.05-2.135.19-3.2.206-2.135.052-4.27-.105-6.405-.21s-4.27-.2-6.406-.187c-1.07.006-2.138.006-3.2.09a26.5 26.5 0 01-3.2.163c-1.07 0-2.138-.3-3.2-.31a7.21 7.21 0 00-1.6.115 8.548 8.548 0 01-1.6.08l-6.408-.093c-2.135-.05-4.27-.093-6.406-.075a48.17 48.17 0 01-6.405-.207 21.038 21.038 0 00-3.2-.186c-1.067.008-2.134.253-3.2.235-2.134.01-4.27-.27-6.404-.36-2.135-.115-4.27.02-6.406.075-2.134.1-4.27 0-6.404.017-2.135-.01-4.27-.01-6.405-.1a50.417 50.417 0 00-6.403.144c-2.135.154-4.27.255-6.406.336-2.133.112-4.27.133-6.403.18a43.77 43.77 0 01-3.2-.01l-3.2-.213c-4.27-.16-8.54.5-12.81.39a38.832 38.832 0 00-6.406.007 28.957 28.957 0 01-3.2-.012c-1.067-.065-2.134-.263-3.2-.307-2.134-.17-4.27.25-6.404-.05a13.235 13.235 0 00-3.2 0 15.708 15.708 0 01-3.2.15c-2.135-.14-4.27-.333-6.405-.3-1.067.043-2.134.093-3.2.16a26.663 26.663 0 01-3.2-.06 25.94 25.94 0 00-3.2-.09c-1.067.03-2.134.157-3.2.22-1.067.1-2.134.1-3.2.133s-2.134.058-3.2.043v-2.4c1.07-.026 2.136-.015 3.2 0s2.136 0 3.2.083c1.068.046 2.136.155 3.2.158a23.64 23.64 0 003.2-.182 21.49 21.49 0 013.2-.123c1.07.063 2.136.16 3.2.165 2.136.01 4.27-.23 6.406-.4.534-.01 1.068-.045 1.6-.01a16.02 16.02 0 011.6.238 9.706 9.706 0 003.2.035c2.135-.377 4.27.285 6.405.152 1.07-.013 2.136-.21 3.2-.26a27.275 27.275 0 013.2.038 35.762 35.762 0 006.406.09c4.27-.137 8.54.48 12.81.208l3.2-.327 1.6-.083h1.6c2.136.008 4.27-.025 6.406.08 2.137.08 4.27.1 6.408.36a28.952 28.952 0 006.405.135c4.27-.3 8.54-.466 12.81-.355 1.07.058 2.136.18 3.2.252a29.016 29.016 0 003.2.01 62.862 62.862 0 016.406-.59c1.068.02 2.135.433 3.2.523a12.938 12.938 0 003.2-.268 16.572 16.572 0 013.2-.31c1.068.023 2.135.083 3.2.123 2.135.11 4.27.124 6.406.13l6.405.085a8.02 8.02 0 011.6.132 6.94 6.94 0 001.6.173c1.068.017 2.135-.244 3.2-.228a28.657 28.657 0 013.2.2c1.068.1 2.135.12 3.2.14 4.27.16 8.54.006 12.81.037a63.346 63.346 0 006.406-.07c1.068-.085 2.135-.2 3.2-.21 1.068-.04 2.135.016 3.2.02l6.406.24c1.07.005 2.137.06 3.2.03 1.07 0 2.137-.173 3.2-.238a18.045 18.045 0 013.2.057c1.07.067 2.137-.026 3.2-.05 2.137-.127 4.27-.136 6.407-.2z"/><path class="cls-6" d="M1690.855 605.735l14.67-.355 7.383-.182 7.45-.092c4.978-.042 10 .055 14.965.1 2.476-.07 5.01.338 7.466.266l7.4.047h.014a1.3 1.3 0 011.29 1.303l-.04 5.84c-.034 1.947-.122 3.894-.18 5.84l-.195 5.84c-.084 1.947-.084 3.893-.1 5.84a.8.8 0 01-.79.79c-4.854.02-9.708.135-14.56.2l-14.564.244-14.562.278c-4.854.18-9.708-.043-14.562-.164h-.073a1.31 1.31 0 01-1.277-1.34v-.006c.06-2.026.088-4.048.1-6.077l.006-6.116zm2.182 2.182l.47 11.236c.147 3.7.23 7.35.213 11.033l-1.773-1.774c4.854.05 9.708.383 14.562.276l14.56-.042 14.56-.042c4.855-.026 9.71 0 14.563-.068l-1.65 1.65-.31-11.68c-.02-1.948-.04-3.894-.02-5.84.046-1.948.087-3.894.21-5.84l1.77 1.768-7.152-.37a22.726 22.726 0 00-3.573-.012 30.518 30.518 0 01-3.576-.024c-4.78-.153-9.66-.456-14.413-.378-2.353.087-4.653.246-7.025.24l-7.12-.012c-4.747-.008-9.484-.03-14.298-.12z"/><path class="cls-6" d="M1795.828 656.2l-20.656.37c-6.895.15-13.862.226-20.842.252l-10.5-.068-5.24-.044-2.618-.024-2.635-.125c-1.762-.13-3.49-.1-5.228-.11l-5.21-.02-10.4-.05a1.278 1.278 0 01-1.27-1.27c-.01-1.946.083-3.892.12-5.84l.15-5.84.15-5.84c.053-1.946.037-3.892.06-5.84v-.005a.793.793 0 01.79-.783c6.852-.026 13.705-.15 20.557-.22l20.558-.275 20.558-.294c6.853-.004 13.706.315 20.56.32a1.262 1.262 0 011.26 1.25v.01c.037 4.04.048 8.122.01 12.206zm-2.182-2.182c-.32-7.6-.62-14.9-.68-22.27l1.77 1.77c-3.426-.018-6.852.053-10.278-.04l-10.28-.233-20.557.037-20.556.045c-6.853.027-13.706 0-20.558.072l1.65-1.65.234 11.68c.037 1.945.1 3.89.092 5.84s.05 3.892-.01 5.84l-1.966-1.968c6.72.06 13.53.646 20.3.61 6.72-.118 13.62.382 20.42.4 3.412.05 6.7-.153 10.037-.222s6.736-.014 10.1-.022c6.747.002 13.47.01 20.286.103z"/><path class="cls-6" d="M1754.71 681.113l-20.655.37c-6.895.15-13.862.226-20.842.252l-10.5-.068-5.24-.044-2.618-.024-2.635-.128c-1.762-.132-3.49-.1-5.228-.11l-5.207-.022-10.4-.05a1.277 1.277 0 01-1.27-1.27c-.01-1.945.083-3.89.12-5.84l.15-5.84.15-5.84c.053-1.945.037-3.892.06-5.84v-.004a.793.793 0 01.79-.784c6.852-.026 13.705-.15 20.557-.22l20.56-.275 20.557-.294c6.85 0 13.703.315 20.556.318a1.263 1.263 0 011.262 1.25v.014c.035 4.04.046 8.122.007 12.206zm-2.18-2.182c-.322-7.6-.622-14.9-.68-22.266l1.77 1.77c-3.427-.02-6.853.05-10.28-.042l-10.278-.23-20.558.035-20.56.045c-6.852.026-13.705 0-20.557.07l1.65-1.648.234 11.68c.04 1.947.1 3.893.096 5.84s.048 3.893-.01 5.84l-1.967-1.966c6.72.06 13.53.646 20.3.61 6.72-.12 13.62.38 20.42.4 3.41.05 6.7-.154 10.036-.223s6.735-.015 10.1-.023c6.746.01 13.47.017 20.285.11zm-82.966 1.746l-377.272 4.31 9.986-464.993h367.286v460.683z"/><path d="M1305.613 525.39c27.653-.363 135.347-13.454 150.5-33.817 15.088-20.273 19.173-47.07 39.83-63.094 26.173-20.3 67.643-14.84 97.717-30.4 36.978-19.135 35.794-63.857 67.94-88.854l2.376-83.95-356.923.317-1.443 299.79" opacity=".3" stroke="#f3f4f6" stroke-width="6.429" fill="#f3f4f6" stroke-miterlimit="10"/><path class="cls-5" d="M1485.75 222.8c.257 38.31.927 76.618.258 114.927l-.162 14.366-.315 7.183c-.082 2.394-.074 4.79-.086 7.183l-.12 28.73c0 19.154-.827 38.31-.83 57.463q.383 57.464 1.115 114.927c.1 9.578.28 19.156.136 28.733l-.424 28.732-.04 7.183.056 7.182.108 14.366.108 14.366.2 14.366h-5.142c-.122-19.155-.334-38.31-.38-57.463.02-4.79-.055-9.577.044-14.366l.274-14.367c.213-9.577.133-19.155.124-28.732l-.24-114.926c-.225-19.155-.823-38.31-.43-57.464.096-4.79.273-9.576.43-14.365l.25-7.183.176-7.183c.057-2.396.14-4.79.1-7.185-.066-2.395-.213-4.79-.2-7.183l.273-14.366.3-14.366c.068-4.79.137-9.576.116-14.365s-.207-9.577-.378-14.366-.227-9.58-.24-14.368l-.17-28.732-.073-14.365.02-14.366zm95.55 0c.328 6.77.87 13.54.3 20.31l-.195 2.54a10.218 10.218 0 01-.324 1.27 8 8 0 00-.1 1.268c-.1 1.693-.03 3.385-.08 5.078a46.818 46.818 0 01-.415 5.078 38.14 38.14 0 00-.452 5.078c.088 3.385.186 6.77.465 10.155.217 3.385.563 6.77.7 10.155a43.752 43.752 0 01.125 5.078c-.167 1.693-.34 3.385-.46 5.078-.022 3.385.14 6.77.44 10.155h-5.142l-.412-10.155c-.014-.846 0-1.693.068-2.54s.21-1.69.306-2.538a48.37 48.37 0 00.136-5.078c-.014-3.385.05-6.77-.03-10.155l-.225-10.16c-.17-3.386-.916-6.77-.462-10.156.114-.843.278-1.69.438-2.536s.342-1.692.444-2.54a6.186 6.186 0 00.085-1.268 7.306 7.306 0 01-.208-1.27c.07-.846.123-1.692.246-2.54a31.78 31.78 0 00.46-5.076 15.082 15.082 0 00-.388-2.54 14.092 14.092 0 01-.25-2.54c-.158-3.384-.282-6.77-.212-10.154zm-194.82 0c.327 6.77.87 13.54.3 20.31l-.196 2.54a10.218 10.218 0 01-.324 1.27 8 8 0 00-.1 1.268c-.1 1.693-.034 3.385-.082 5.078a46.757 46.757 0 01-.416 5.078 38.18 38.18 0 00-.452 5.078c.087 3.385.185 6.77.464 10.155.217 3.385.563 6.77.7 10.155a43.752 43.752 0 01.125 5.078c-.17 1.693-.34 3.385-.464 5.078-.02 3.385.14 6.77.442 10.155h-5.144l-.413-10.155c-.013-.846 0-1.693.07-2.54s.21-1.69.306-2.538a48.37 48.37 0 00.136-5.078c-.014-3.385.05-6.77-.03-10.155l-.22-10.155c-.17-3.385-.918-6.77-.464-10.155.112-.846.276-1.692.436-2.54s.342-1.69.444-2.538a6.186 6.186 0 00.087-1.27 7.306 7.306 0 01-.208-1.27c.07-.848.122-1.694.245-2.54a31.78 31.78 0 00.46-5.078 15.082 15.082 0 00-.388-2.54 14.07 14.07 0 01-.25-2.538c-.158-3.385-.282-6.77-.212-10.155z"/><path class="cls-5" d="M1283.854 429.275c31.88-.01 63.765-.43 95.638.487l11.953.25c1.992.063 3.983.246 5.975.366 1.992.1 3.984.108 5.977.135l23.908.307c15.94.13 31.872 1.074 47.812 1.2 15.94.063 31.88.07 47.822-.078l47.82-.29c7.97-.04 15.942-.156 23.91.048l23.906.61 5.977.085 5.978-.007 11.957-.015 11.955-.015 11.956-.1-.04 5.143c-15.94 0-31.88.088-47.82.01-3.986-.05-7.97-.01-11.955-.14l-11.953-.364c-7.968-.275-15.938-.257-23.908-.31l-95.638-.52c-7.97 0-15.942.19-23.913.274-3.985.076-7.97.036-11.954.02-3.986.02-7.97-.135-11.955-.224-3.983-.126-7.967-.334-11.95-.52l-5.975-.3-5.977-.224c-1.992-.072-3.984-.17-5.977-.147-1.992.05-3.986.182-5.98.156l-11.95-.365-11.952-.4c-3.984-.1-7.97-.2-11.954-.21s-7.972.145-11.96.285-7.97.163-11.955.146l-23.91-.016-11.956-.023-11.955-.113zm17.363-127.75c30.43-.258 60.86-.928 91.29-.26l11.412.158c1.9.048 3.8.214 5.703.32 1.9.085 3.8.077 5.706.09l22.823.12c15.215 0 30.43.826 45.645.828 15.213-.06 30.43-.175 45.644-.45l45.645-.662c7.606-.1 15.214-.28 22.822-.137l22.822.424 5.706.04 5.707-.055 11.41-.11 11.412-.107 11.41-.2v5.143c-15.214.122-30.43.334-45.645.38-3.8-.02-7.607.056-11.41-.044l-11.412-.272c-7.608-.213-15.215-.133-22.823-.124l-91.29.225c-7.607.06-15.215.314-22.823.46-3.8.108-7.608.1-11.41.115-3.8.052-7.61-.073-11.412-.13-3.8-.096-7.608-.273-11.41-.428l-5.707-.25-5.706-.177c-1.9-.058-3.8-.14-5.707-.1-1.9.065-3.8.212-5.706.2l-11.41-.274-11.412-.3c-3.8-.068-7.608-.137-11.41-.116s-7.61.205-11.412.376-7.608.226-11.41.24l-22.824.17-11.41.072-11.413-.02zm-17.39 259.283c31.7-.362 63.4-1.136 95.11-.57l11.89.117c1.98.04 3.962.2 5.944.3 1.985.08 3.966.064 5.948.07l23.778.042c15.852-.048 31.707.72 47.558.672 15.852-.116 31.7-.285 47.554-.61l47.553-.82c7.926-.127 15.85-.33 23.777-.216l23.78.346 5.944.02 5.945-.073 11.888-.147 11.89-.146 11.887-.237.015 5.143c-15.852.174-31.7.438-47.554.537-3.96-.008-7.924.08-11.89-.006l-11.89-.23c-7.924-.188-15.85-.08-23.775-.047l-95.11.54c-7.926.087-15.85.365-23.776.538-3.965.12-7.928.126-11.89.155-3.963.065-7.926-.047-11.89-.092-3.962-.082-7.926-.246-11.89-.388l-5.944-.23-5.945-.158c-1.98-.05-3.962-.126-5.944-.082-1.98.072-3.962.226-5.944.222l-11.89-.234-11.89-.264c-3.962-.056-7.925-.11-11.89-.078s-7.923.23-11.886.416-7.925.252-11.888.28l-23.777.248-11.89.11-11.89.02z"/><path class="cls-6" d="M1271.285 250.232c-.06 33.547.13 67.1-.487 100.64l-.177 12.578c-.13 4.193-.323 8.385-.32 12.578l-.232 25.16c-.037 8.386-.25 16.77-.41 25.157-.184 8.385-.26 16.772-.4 25.158q-.13 50.32.014 100.642c.008 8.387.06 16.774-.077 25.16l-.4 25.158-.082 6.29v44.03a1.543 1.543 0 01-3.085 0v-.02l.093-50.32c.04-4.192.02-8.385.108-12.578l.244-12.58c.18-8.384.186-16.77.234-25.158l.5-100.638-.078-25.164c.016-8.387-.076-16.774.186-25.16l.617-25.155c.17-4.19.06-8.385.037-12.58l.24-12.58c.16-8.384.33-16.77.4-25.156l-.116-12.58c-.06-4.195-.117-8.39-.075-12.582l.18-50.32a1.543 1.543 0 113.087.01zm522.885 54.338l-20.66.364-10.384.18-10.452.086c-7-.024-13.995-.06-20.974-.163-1.754-.067-3.514-.214-5.247-.206l-5.207-.02-10.4-.046h-.013a1.277 1.277 0 01-1.27-1.283c.012-2.244.007-4.49.082-6.73l.17-6.73.166-6.733c.078-2.244.05-4.487.08-6.73v-.008a.793.793 0 01.79-.784c6.85-.024 13.704-.145 20.557-.212l20.558-.263 20.56-.293c6.852-.067 13.705.2 20.557.276h.03a1.268 1.268 0 011.254 1.28c-.055 4.633.03 9.3-.025 13.984zm-2.183-2.183l-.452-13.01c-.117-4.29-.238-8.547-.23-12.823l1.772 1.77c-6.853.1-13.706-.276-20.558-.28l-20.56.045-20.56.04c-6.853.027-13.706 0-20.56.07l1.65-1.65.264 13.464c.063 2.244.066 4.487.07 6.73.03 2.245-.03 4.49-.07 6.732l-1.914-1.914c3.37.086 6.75.26 10.14.375l5.09.2c1.708.1 3.37-.072 5.057-.085 3.388.057 6.8.18 10.206.266 3.417.116 6.835.19 10.228.2 3.4.03 6.665-.236 10.027-.246h10.11c6.747.006 13.476.02 20.29.112z"/><path class="cls-6" d="M1755.953 331.186l-20.66.365-10.383.184-10.452.084c-7-.024-13.995-.06-20.974-.163-1.754-.067-3.514-.214-5.248-.206l-5.207-.02-10.4-.05h-.016a1.278 1.278 0 01-1.27-1.283c.012-2.244.007-4.488.082-6.73l.168-6.732.167-6.73c.076-2.245.05-4.49.077-6.732v-.006a.792.792 0 01.788-.783c6.853-.023 13.706-.144 20.56-.21l20.557-.264 20.558-.295c6.854-.067 13.707.2 20.56.276h.03a1.268 1.268 0 011.254 1.28c-.055 4.635.03 9.308-.025 13.986zM1753.77 329l-.452-13.01c-.117-4.29-.238-8.547-.23-12.823l1.772 1.77c-6.853.1-13.706-.276-20.56-.28l-20.557.045-20.558.044c-6.853.026-13.706 0-20.56.07l1.65-1.65.265 13.463c.063 2.24.065 4.484.07 6.73.03 2.242-.03 4.485-.07 6.73l-1.914-1.915c3.37.086 6.75.26 10.138.375l5.092.2c1.707.1 3.37-.07 5.056-.082 3.388.056 6.8.178 10.206.265 3.417.116 6.835.19 10.228.2 3.4.03 6.662-.236 10.025-.246h10.11c6.75.01 13.478.02 20.29.11zm2.183-50.984l-20.66.365-10.383.184-10.452.085c-7-.025-13.995-.06-20.974-.164-1.754-.067-3.514-.214-5.248-.206l-5.207-.02-10.4-.05h-.016a1.278 1.278 0 01-1.27-1.283c.012-2.244.007-4.488.082-6.73l.168-6.732.167-6.73c.076-2.245.05-4.488.077-6.732v-.007a.792.792 0 01.788-.783c6.853-.024 13.706-.145 20.56-.212l20.557-.26 20.558-.295c6.854-.067 13.707.2 20.56.276h.03a1.268 1.268 0 011.254 1.28c-.055 4.633.03 9.306-.025 13.984zm-2.182-2.182l-.45-13.01c-.116-4.29-.24-8.547-.23-12.823l1.77 1.774c-6.85.1-13.703-.277-20.556-.28l-20.558.044-20.558.044c-6.853.027-13.706 0-20.56.07l1.65-1.65.265 13.464c.064 2.244.066 4.487.072 6.73.03 2.245-.03 4.488-.07 6.732l-1.915-1.914c3.37.087 6.75.26 10.137.376l5.092.2c1.705.1 3.37-.07 5.054-.083 3.388.057 6.8.18 10.206.266 3.417.116 6.835.19 10.228.2 3.4.03 6.662-.236 10.025-.246h10.11c6.745.005 13.474.018 20.288.11zm-485.73 196.253l-20.66.365-10.383.18-10.452.086c-7-.024-13.995-.06-20.974-.163-1.755-.067-3.515-.214-5.25-.206l-5.205-.02-10.4-.05h-.013a1.277 1.277 0 01-1.27-1.284c.013-2.244.008-4.487.083-6.73l.17-6.732.166-6.73c.075-2.245.05-4.488.076-6.732v-.007a.793.793 0 01.79-.783c6.852-.024 13.705-.145 20.557-.212l20.558-.262 20.56-.295c6.853-.067 13.706.2 20.558.276h.03a1.268 1.268 0 011.253 1.28c-.054 4.632.03 9.305-.024 13.983zm-2.182-2.182l-.452-13.01c-.117-4.29-.238-8.547-.23-12.823l1.772 1.77c-6.853.1-13.706-.277-20.558-.28l-20.558.045-20.558.044c-6.853.03-13.706 0-20.558.07l1.65-1.646.263 13.462c.062 2.244.065 4.488.07 6.73.03 2.245-.032 4.488-.072 6.732l-1.914-1.914c3.37.085 6.75.26 10.138.375l5.094.2c1.707.1 3.37-.07 5.056-.084 3.39.057 6.8.18 10.207.266 3.417.117 6.834.19 10.227.2 3.4.03 6.662-.234 10.025-.245h10.11c6.743.006 13.472.02 20.286.11zm2.182 59.262l-20.66.365-10.383.18-10.452.086c-7-.024-13.995-.06-20.974-.163-1.755-.067-3.515-.214-5.25-.206l-5.205-.02-10.4-.05h-.013a1.277 1.277 0 01-1.27-1.285c.013-2.244.008-4.487.083-6.73l.17-6.732.166-6.73c.075-2.245.05-4.488.076-6.732v-.006a.793.793 0 01.79-.783c6.852-.023 13.705-.144 20.557-.21l20.558-.263 20.56-.294c6.853-.067 13.706.2 20.558.276h.03a1.268 1.268 0 011.253 1.28c-.054 4.632.03 9.3-.024 13.983zm-2.182-2.182l-.452-13.01c-.117-4.29-.238-8.547-.23-12.823l1.772 1.77c-6.853.1-13.706-.276-20.558-.28l-20.558.045-20.558.044c-6.853.03-13.706 0-20.558.07l1.65-1.646.263 13.462c.062 2.244.065 4.487.07 6.73.03 2.245-.032 4.49-.072 6.732l-1.914-1.914c3.37.085 6.75.26 10.138.375l5.094.2c1.707.1 3.37-.07 5.056-.085 3.39.057 6.8.18 10.207.266 3.417.116 6.834.19 10.227.2 3.4.03 6.662-.236 10.025-.246h10.11c6.743.007 13.472.02 20.286.112zm2.182-107.015l-20.66.365-10.383.18-10.452.086c-7-.02-13.995-.06-20.974-.16-1.755-.067-3.515-.214-5.25-.206l-5.205-.02-10.4-.05h-.013a1.277 1.277 0 01-1.27-1.282c.013-2.243.008-4.486.083-6.73l.17-6.73.166-6.73c.075-2.246.05-4.49.076-6.733v-.008a.793.793 0 01.79-.784c6.852-.024 13.705-.145 20.557-.212l20.558-.263 20.56-.292c6.853-.066 13.706.2 20.558.277h.03a1.268 1.268 0 011.253 1.28c-.054 4.633.03 9.3-.024 13.984zm-2.182-2.182l-.452-13.01c-.117-4.29-.238-8.547-.23-12.823l1.772 1.77c-6.853.1-13.706-.277-20.558-.28l-20.558.044-20.558.04c-6.853.027-13.706 0-20.558.07l1.65-1.65.263 13.464c.062 2.244.065 4.487.07 6.73.03 2.245-.032 4.49-.072 6.732l-1.914-1.914c3.37.085 6.75.26 10.138.375l5.094.2c1.707.1 3.37-.072 5.056-.085 3.39.057 6.8.18 10.207.266 3.417.116 6.834.19 10.227.2 3.4.03 6.662-.236 10.025-.246h10.11c6.743.008 13.472.025 20.286.113z"/><path class="cls-6" d="M1229.82 498.7l-20.66.365-10.382.18-10.452.086c-7-.02-13.995-.06-20.974-.16-1.754-.067-3.514-.214-5.247-.206l-5.207-.02-10.4-.05h-.013a1.277 1.277 0 01-1.27-1.282c.012-2.243.007-4.486.082-6.73l.17-6.73.166-6.73c.075-2.246.05-4.49.076-6.733v-.008a.793.793 0 01.786-.784c6.853-.024 13.706-.145 20.558-.212l20.558-.263 20.558-.292c6.854-.066 13.707.2 20.56.277h.03a1.268 1.268 0 011.252 1.28c-.055 4.633.03 9.306-.025 13.984zm-2.18-2.182l-.453-13.01c-.117-4.29-.238-8.547-.23-12.823l1.772 1.77c-6.856.1-13.71-.277-20.56-.28l-20.56.044-20.557.04c-6.853.027-13.706 0-20.558.07l1.65-1.65.263 13.464c.062 2.244.065 4.487.07 6.73.03 2.245-.03 4.488-.07 6.732l-1.91-1.908c3.37.084 6.75.26 10.137.374l5.093.2c1.708.1 3.372-.07 5.057-.083 3.388.057 6.8.18 10.206.266 3.42.116 6.836.19 10.23.2 3.4.03 6.663-.236 10.026-.246h10.11c6.744.006 13.47.02 20.283.11zm2.18-50.984l-20.66.365-10.382.18-10.452.083c-7-.024-13.995-.06-20.974-.163-1.754-.066-3.514-.213-5.247-.205l-5.207-.02-10.4-.05h-.013a1.277 1.277 0 01-1.27-1.282c.012-2.244.007-4.487.082-6.73l.17-6.732.166-6.73c.075-2.243.05-4.486.076-6.73v-.007a.793.793 0 01.786-.783c6.853-.025 13.706-.146 20.558-.213l20.558-.263 20.558-.294c6.854-.066 13.707.2 20.56.277h.03a1.268 1.268 0 011.252 1.28c-.055 4.633.03 9.306-.025 13.984zm-2.18-2.182l-.453-13.01c-.117-4.29-.238-8.547-.23-12.823l1.772 1.77c-6.856.1-13.71-.28-20.56-.28l-20.56.04-20.557.045c-6.853.026-13.706 0-20.558.07l1.65-1.65.263 13.463c.062 2.243.065 4.487.07 6.73.03 2.244-.03 4.487-.07 6.73l-1.914-1.913c3.37.085 6.75.26 10.138.375l5.093.2c1.707.1 3.37-.07 5.056-.083 3.39.056 6.8.18 10.207.265 3.417.116 6.834.19 10.227.2 3.4.03 6.662-.236 10.025-.246h10.11c6.746.005 13.47.02 20.285.11zm2.18 114.914l-20.66.365-10.382.184-10.452.085c-7-.025-13.995-.06-20.974-.164-1.754-.067-3.514-.214-5.247-.206l-5.207-.02-10.4-.05h-.013a1.277 1.277 0 01-1.27-1.283c.012-2.244.007-4.487.082-6.73l.17-6.732.166-6.73c.075-2.245.05-4.488.076-6.732v-.007a.793.793 0 01.786-.783c6.853-.024 13.706-.145 20.558-.212l20.558-.26 20.558-.295c6.854-.067 13.707.2 20.56.276h.03a1.268 1.268 0 011.252 1.28c-.055 4.633.03 9.3-.025 13.984zm-2.18-2.182l-.453-13.01c-.117-4.29-.238-8.547-.23-12.823l1.772 1.774c-6.856.1-13.71-.278-20.56-.28l-20.56.043-20.557.044c-6.853.026-13.706 0-20.558.07l1.65-1.65.263 13.463c.062 2.244.065 4.487.07 6.73.03 2.245-.03 4.488-.07 6.732l-1.914-1.914c3.37.086 6.75.26 10.138.376l5.093.2c1.707.1 3.37-.07 5.056-.083 3.39.057 6.8.18 10.207.266 3.417.115 6.834.19 10.227.2 3.4.03 6.662-.237 10.025-.247h10.11c6.746.007 13.47.02 20.285.112zm23.426 165.873c43.327-.146 86.654-.52 129.98-.19l16.25.084 8.123.06 8.12.16c10.833.13 21.665.08 32.5.125 21.665-.055 43.328.33 64.99.424l16.25.1 16.248-.064 32.5-.152 64.99-.34c21.664-.094 43.327-.36 64.99-.126l32.5.2 32.5-.152-1.415 1.416-.127-31.07a1.543 1.543 0 113.085-.01v.01l.1 31.07a1.64 1.64 0 01-1.634 1.646h-.01c-21.665.06-43.328.253-64.992.03-21.664-.277-43.327-.15-64.99-.152l-64.992.055-32.5.028-16.248.022-16.248.124c-21.664.142-43.327.375-64.99 0l-16.25-.226-8.123-.12c-2.708-.04-5.416-.1-8.124-.045l-8.124.088c-2.71.02-5.417-.04-8.125-.06l-16.247-.16-16.257-.128-8.124-.06-8.124.07c-10.833.08-21.665.353-32.5.305l-64.99.133a1.543 1.543 0 11-.008-3.086zm62.588-36.457a156.4 156.4 0 01-15.647.18l-1.956-.12a9.74 9.74 0 01-.975-.19 7.252 7.252 0 00-.978-.054l-3.912-.073c-2.608.03-5.216-.5-7.823-.5-5.215.022-10.43.477-15.646.69-1.3.04-2.608.152-3.912.075s-2.607-.217-3.91-.27c-1.3-.067-2.61.056-3.913.075-1.3.035-2.61.086-3.912.183a1.543 1.543 0 11-.23-3.077h.06l.17-.008 7.823-.248a28.29 28.29 0 013.913.224c1.3.12 2.608.067 3.912.08 5.216.033 10.43-.036 15.647-.155 1.3-.037 2.608-.188 3.91-.276a25.27 25.27 0 013.914 0c1.3.125 2.608.41 3.912.52a5.393 5.393 0 00.978.06 6.863 6.863 0 01.978-.12c.653.036 1.3.07 1.957.144a33.335 33.335 0 003.91.277 14.716 14.716 0 001.957-.232 14.324 14.324 0 011.956-.144c2.61-.046 5.217-.19 7.824-.132a1.543 1.543 0 01.02 3.087zm-37.77-502.75c35.674-.12 71.35-.413 107.024-.3l26.756.14 13.378.072c4.46.015 8.92.168 13.378.234l53.513.154 26.756.274 26.753.165 53.513-.224 107.025-.542a1.553 1.553 0 011.56 1.546v.017c-.007 4.653-.112 9.307-.184 13.96-.022 4.653-.16 9.307-.086 13.96l.255 27.92a1.543 1.543 0 11-3.085.028v-.028l-.2-27.92-.026-13.96.24-13.96 1.534 1.535-107.025.04-53.513.07-26.756.21-26.756.128c-8.92-.024-17.838-.183-26.757-.268l-26.753-.375c-4.46.015-8.92.15-13.378.094l-13.38-.135-26.756-.23c-4.46-.07-8.92.013-13.378.057l-13.378.173-6.69.1-6.688.014-13.38.027-53.513.112a1.543 1.543 0 01-.006-3.087z"/><path class="cls-5" d="M1594.308 706.176a238.32 238.32 0 00-5.588 45.294c-.1 3.567-.1 7.225 1.122 10.578-.288-6.333-4.894-11.758-5.68-18.05-.854-6.84 2.877-14.1.245-20.475-2.56-6.195-10.18-9.563-10.308-16.772 2.09.22 19.675 1.817 20.206-.572z"/><path class="cls-8" d="M1419.8 438.85c12.282-20.06 19.126-52.755 12.835-75.392-2.728 26.006-18.22 57.865-29.782 81.525-1.608 3.29-3.253 6.787-2.95 10.436"/><path class="cls-9" d="M1449.89 299.978c-2.143.02-4.96-1.828-6.428.058s-8.05 27.247-1.688 41.126c8.916-12.513 18.16-25.786 21.613-42.706a3.28 3.28 0 00.026-1.735 1.6 1.6 0 00-1.688-.9m-114.955 758.51c1.967.045 3.935.035 5.9.148.983.012 1.967.1 2.95.017a14.14 14.14 0 012.953-.1c.984.06 1.968.233 2.952.22.984.02 1.968-.057 2.952-.08l5.9-.368c.984-.023 1.968-.1 2.952-.078.98-.01 1.965.1 2.95.174a23.686 23.686 0 002.95.04c.985-.05 1.97-.19 2.953-.206 1.968-.052 3.936.105 5.9.21s3.936.2 5.9.187c.984-.006 1.968-.006 2.952-.09a22.488 22.488 0 012.952-.162c.983 0 1.967.3 2.95.31a6.137 6.137 0 001.477-.116 7.27 7.27 0 011.476-.08c1.97.03 3.937.038 5.9.093s3.937.092 5.9.075a40.94 40.94 0 015.9.207 17.923 17.923 0 002.953.186c.984-.01 1.968-.254 2.952-.236 1.968-.013 3.936.27 5.9.36 1.968.113 3.936-.02 5.9-.077 1.968-.1 3.936 0 5.9-.017 1.968.012 3.936.01 5.9.1a42.85 42.85 0 005.9-.143c1.968-.154 3.936-.255 5.9-.336 1.968-.11 3.936-.134 5.9-.18.984-.04 1.968-.03 2.952.01l2.95.212c3.937.158 7.873-.5 11.81-.39a33 33 0 005.9-.008 24.6 24.6 0 012.95.012c.985.065 1.97.263 2.953.307 1.968.17 3.936-.25 5.9.05a11.24 11.24 0 002.952 0 13.356 13.356 0 012.952-.15c1.968.14 3.936.332 5.9.3.984-.044 1.968-.094 2.952-.162a22.657 22.657 0 012.95.063 22.045 22.045 0 002.953.088c.982-.027 1.966-.155 2.95-.22.984-.1 1.97-.1 2.952-.13s1.968-.057 2.952-.04v2.4c-.985.024-1.97.013-2.953 0s-1.967 0-2.95-.085c-.985-.046-1.97-.155-2.953-.158a20.1 20.1 0 00-2.952.182 18.27 18.27 0 01-2.95.123c-.985-.063-1.97-.16-2.953-.165-1.968-.013-3.936.23-5.9.4-.492.007-.984.043-1.476.007a13.737 13.737 0 01-1.475-.237 8.256 8.256 0 00-2.95-.034c-1.97.376-3.937-.286-5.9-.153-.985.014-1.97.21-2.953.26a23.176 23.176 0 01-2.95-.037 30.394 30.394 0 00-5.9-.09c-3.937.137-7.873-.48-11.81-.208l-2.95.327-1.477.083h-1.475c-1.968-.008-3.936.025-5.9-.08-1.968-.08-3.936-.1-5.9-.36a24.615 24.615 0 00-5.9-.135 114.764 114.764 0 01-11.808.354c-.985-.058-1.97-.18-2.953-.252a24.654 24.654 0 00-2.952-.012 53.535 53.535 0 01-5.9.59c-.984-.018-1.968-.433-2.952-.523a11.02 11.02 0 00-2.952.266 14.116 14.116 0 01-2.95.31c-.985-.023-1.97-.083-2.953-.123-1.968-.11-3.936-.125-5.9-.132l-5.9-.084a6.83 6.83 0 01-1.476-.132 5.907 5.907 0 00-1.477-.173c-.984-.018-1.968.243-2.952.227a24.378 24.378 0 01-2.95-.2c-.984-.1-1.968-.12-2.95-.14-3.938-.16-7.874-.007-11.81-.038a53.828 53.828 0 00-5.9.067c-.984.085-1.968.2-2.95.21-.986.04-1.97-.016-2.954-.02l-5.9-.238c-.984-.008-1.968-.06-2.952-.03-.984 0-1.968.17-2.952.235a15.336 15.336 0 01-2.952-.058c-.982-.066-1.966.027-2.95.05-1.97.128-3.936.137-5.9.2zm221.83 0c.857.045 1.714.035 2.57.148a4.76 4.76 0 001.285.017c.214-.047.428-.11.643-.135a2.583 2.583 0 01.643.032 8.98 8.98 0 001.288.233c.428 0 .857-.062 1.285-.09.858-.1 1.714-.27 2.57-.367.43-.028.858-.094 1.286-.09a8.66 8.66 0 011.284.185 4.1 4.1 0 001.286.044c.427-.065.856-.184 1.284-.222a13.6 13.6 0 012.57.235 18.076 18.076 0 002.57.172 7.025 7.025 0 001.286-.09 4.355 4.355 0 011.285-.167c.43.015.858.294 1.286.32a1.23 1.23 0 00.645-.12 1.387 1.387 0 01.642-.086c1.714-.01 3.427.21 5.14.175l1.286-.017a4.714 4.714 0 011.285.22 3.76 3.76 0 001.285.2c.428-.038.857-.255 1.285-.256a22.97 22.97 0 012.57.366 11.606 11.606 0 002.57-.09 43.794 43.794 0 015.14.1 8.08 8.08 0 002.572-.145c.856-.176 1.712-.24 2.57-.335s1.713-.182 2.57-.193a7.292 7.292 0 011.284.023l1.285.215c1.712.154 3.425-.505 5.14-.393a6.308 6.308 0 002.57-.007 4.966 4.966 0 011.284.006c.43.08.858.26 1.286.32.858.154 1.714-.254 2.57.043a2.068 2.068 0 001.286 0 3.714 3.714 0 01.644-.17 3.953 3.953 0 01.643.018 12.438 12.438 0 002.57.3 11.73 11.73 0 001.285-.16 4.326 4.326 0 011.285.06 5.39 5.39 0 002.57-.145 15.276 15.276 0 012.57-.16v2.4a14.12 14.12 0 01-1.285 0 11.685 11.685 0 01-1.285-.072 4.844 4.844 0 00-2.57.012 3.335 3.335 0 01-1.285.124 10.285 10.285 0 00-1.285-.167 12.32 12.32 0 00-2.57.4 2.294 2.294 0 01-.643.01 3.044 3.044 0 01-.643-.238 1.585 1.585 0 00-1.284-.035c-.857.376-1.714-.28-2.57-.16-.428.033-.857.21-1.285.276a4.69 4.69 0 01-1.284-.045 5.827 5.827 0 00-2.57-.09c-1.713.154-3.427-.503-5.14-.21l-1.286.33a6.3 6.3 0 01-1.285.1 19.415 19.415 0 01-2.57-.09 12 12 0 01-2.57-.363 4.7 4.7 0 00-2.57-.134 25.823 25.823 0 01-2.57.33 12.758 12.758 0 01-2.57.03 7.054 7.054 0 00-2.57-.27 10.83 10.83 0 01-2.57.592c-.43-.016-.858-.432-1.286-.524a2.236 2.236 0 00-1.286.27 2.73 2.73 0 01-1.283.31c-.43-.024-.858-.084-1.286-.124-1.713-.217-3.426-.073-5.14-.212a1.35 1.35 0 01-.643-.136 1.238 1.238 0 00-.643-.177c-.428-.006-.857.24-1.285.237a5.076 5.076 0 01-1.286-.208 8.75 8.75 0 00-1.285-.16c-1.715-.136-3.428.012-5.14-.018a9.306 9.306 0 00-2.57.07 8.97 8.97 0 01-1.287.22c-.428.02-.857-.023-1.285-.03-.856-.055-1.713-.178-2.57-.24-.427-.01-.856-.052-1.284-.037a11.784 11.784 0 00-1.285.244 2.943 2.943 0 01-1.285-.058 5.1 5.1 0 00-1.285.05c-.857.128-1.713.137-2.57.2z"/><path class="cls-10" d="M1432.703 1002.522l5.205 30.79-23.48 6.693-4.13 10.904 44.66-6.86-.435-38.065m120.027-2.646l5.337 18.11 28.276 16.305-.743 14.472-22.334-4.12-21.643-15.695-10.974-24.612"/><path class="cls-11" d="M1461.03 777.864l2.8 21.223 10.728 81.357c1.83 13.878 4.967 28.39 4.5 42.366-.515 15.416-4.938 30.508-9.07 45.268-4.847 17.314-11.953 33.41-12.388 51.736-.025 1.047-17.766 2.137-19.545 1.73-3.824-.874-7.9-2.592-9.524-6.162 1.236-10.674-.874-21.174-1.54-31.865-.75-12.015-1.67-24.02-2.877-36-2.356-23.414-5.76-46.77-11.22-69.677l-.987-4.14c-4.2-17.64-6.49-36.062-12-53.14a502.856 502.856 0 01-14.913-57.784c-2.36-12.055-5.264-24.764-5.825-37.06-.49-10.77 3.4-21.7 7.552-31.558.89-2.113 11.123-25.536 12.382-25.447l81.906 5.5 9.8 78.886z"/><path d="M1451.86 755.9c-6.107 9.294-7.34 21-6.65 32.1s3.117 22.045 3.626 33.154c.495 10.812-.83 21.7.52 32.44 2.605 20.734 14.513 38.625 19.59 58.656 5.527 21.8-3.285 45.572-4.85 67.835 13.058-21.977 15.48-48.642 14.8-74.2-1.35-51-2.774-101.854-8.308-152.628" fill="#0e1438" opacity=".3"/><path class="cls-11" d="M1573.827 1005.816a11.06 11.06 0 01-5.316 4.765c-2.933 1.07-6.164.84-9.274.54-1.82-.18-7.96.785-9.2.005-1.284-.808-1.965-5.163-2.75-6.7-2.835-5.57-7.356-10.9-11.283-15.738-8.4-10.337-17.98-19.69-25.688-30.59-10.028-14.183-19.367-28.916-26.854-44.615-7.77-16.292-16.562-31.377-19.666-49.58-2.055-12.053-3.628-24.21-5.44-36.305l-10.9-72.724c-2.31-15.4-3.273-31.08-1.373-46.573.5-4.09.418-14.2 3.3-17.51 3.75-4.3 12.05-3.216 17.257-4.132l58.185-10.24c-1.66.292 11.1 39.365 11.808 41.744a132.385 132.385 0 013.914 54.546c-3.975 30.573-10.9 61.065-16.2 91.446-.45 2.57 12.688 15.472 14.7 18.664 9.66 15.3 12.607 36.766 17.615 53.95 4.784 19.14 9.645 40.578 18.483 58.2 1.57 3.104.753 7.465-1.312 10.852zm-118.487 33.958a2.93 2.93 0 011.635 2.137c.9 3.92 4.136 10.35.583 12.97-2.108 1.56-6.756.29-9.3.237-6.822-.152-13.682.115-20.506.173l-19.8.166c-1.17.01-8.033.972-8.87.075 0-.003-8.636-9.25 15.34-17.01-.443.145 8.06 5.326 8.942 5.55 4.884 1.25 10.19.687 15.063-.27 3.64-.714 12.992-5.865 16.912-4.024zm129.543 4.963c4.05 1.27 14.45 4.33 18.42 1.834 5.186-3.256-.845-9.306-3.615-11.865a59.285 59.285 0 00-9.584-6.9c-1.686-1.025-3.392-2.016-5.08-3.035-1.618-.975-3.22-1.947-4.87-2.87a74.715 74.715 0 0113.04 4.05c3.94 1.63 8.243 3.112 11.775 5.54 6.546 4.5 10.886 12.906 11.2 20.81a3.77 3.77 0 01-.396 2.2c-1.38 2.163-12.576.958-15.04.89-11.47-.31-20.91-9.753-30.465-15.164-3.167-1.793-7.816-4.184-7.83-8.38 0-.274.133-.644.4-.585a.48.48 0 01.22.155c2.973 3.034 6.72 5.29 10.295 7.587a48.392 48.392 0 0011.527 5.738z"/><path class="cls-6" d="M1242.772 471.824l71.64-45.158-70.85-112.286-72.386 49.105 71.596 108.34zm-101.582 122.48l81.507-100.65-135.907-126.25-93.692 110.29 148.093 116.61z"/><path d="M1020.522 1024.273l29.064-217.6-314.166-43.897-38.294 242.652 323.396 18.845z" stroke="#3e4166" stroke-linejoin="round" stroke-dasharray="11 9" fill="none" stroke-width="3"/><path class="cls-5" d="M1402.112 533.84c1.007 21.044-2.542 42.956-11 62.355-1.85 4.23-5.916 7.968-7.954 1.36-6.742-21.856-.99-42.46 2.217-64.87 1.687-11.79 4.475-23.318 6.677-35.006 1.552-8.24-3.953-20.7 2.014-27.24 9.027-9.884 24.742-13.263 36.79-17.813"/><path class="cls-9" d="M1430.4 378.173c2.967 26.68-8.208 44.7-19.62 68.45-.888 1.847 1.9 9.744 2 11.832.193 3.92 4.2 6.5 7.746 6.2s6.653-2.616 9.573-4.856l16.625-12.76c8.933-6.852 17.993-13.833 24.856-23.15s11.36-21.452 9.63-33.31c-15.9-1.343-31 8.734-46.943 8.8-2.087.01-4.86-.955-4.683-3.25"/><path class="cls-10" d="M1477.463 296.64c-4.168-.734-22.474-2.525-32.924 24.283s-26.17 61.33-23.06 76.2c13.08 15.2 55.695 6.9 55.695 6.9s26.3-35.477 23.27-58.93-22.984-48.453-22.984-48.453z"/><path d="M1470 324.365c7.8 5.06 14.114 12.218 20.4 18.975 5.338 5.742 13.26 13.5 13.622 21.87-.616-14.29-1.238-28.637-3.81-42.71-.86-4.7-1.984-9.484-4.616-13.476-5.387-8.17-15.69-11.26-25.156-13.738-3.472-.91-7.246-1.8-10.558-.416a14.1 14.1 0 00-4.816 3.792c-4.6 5.092-9.044 17.067-9.05 17.083.832-2.243 19.45 5.95 21.476 7.1q1.275.72 2.508 1.52zm-26.855 10.555l-20.814 19.506 11.707 12.488 9.11-31.994z" fill="#fdc04e"/><path class="cls-10" d="M1356.378 584.188c-25.038-33.71-55.173-75.735-74.45-107.652l10.51-11.842s41.74 51.054 85.64 95.118"/><path class="cls-10" d="M1291.29 467.39c2.6-13.85-.942-29.642-11.033-39.48-10.545-12.152-.365 6.43.495 16.317-5.51 6.975-14.154 14.257-18.748 17.833 4.572 10.113 29.723 26.758 29.723 26.758"/><path class="cls-8" d="M1553.325 334.673c-8.106-21.75-28.152-37.954-50.545-44.07s-60.34 7.3-59.447 9.98 13.544 1.134 21.4 5.8 15.243 9.06 20.55 16.5c10.615 14.887 14.177 34.93 8 52.14-7.072 19.7-36.662 43.685-40.59 64.243 11.87-6.15 37.675-13.4 49.575-7.31s21.525 15.754 30.933 25.254c5.69-5.272-2.58-14.14-2.46-21.894.14-9.268 13.43-21.23 20.058-27.71 8.34-8.15 9.134-21.078 9.4-32.735.384-16.254-1.196-24.96-6.87-40.195z"/><path class="cls-8" d="M1500.965 430.968a70.484 70.484 0 00-50.273 7.556c-8.3 4.725-15.578 11.03-22.792 17.294-1.85 1.6-3.9 3.29-6.34 3.405-4.233.2-7.23-4.65-6.883-8.873s7.25-21.787 10.372-35.165l-25.15 40.234c.3 3.61 2.45 6.765 4.585 9.69q5 6.845 10.39 13.392c1.78 2.16 3.966 4.48 6.765 4.473 2.167-.006 4.038-1.426 5.728-2.78l32.378-25.933c5.683-4.552 11.553-9.2 18.523-11.31s15.4-1.09 20.19 4.39c2.35 2.682 28.68 7.115 29.373 10.648 7.08-5.532-6.635-13.953 1.338-17.39-7.197-5.325-19.485-7.6-28.207-9.633z"/><path class="cls-6" d="M1484.157 442.473c21.842-2.552 35.34 24.144 40.263 46.55a375.27 375.27 0 016.985 116.187c-3.6 37.41-6.76 79.908 10.716 112.763 3.158 5.93 7.24 11.94 6.897 18.718-.474 9.38-9.056 15.8-17.065 20.048-17.476 9.26-42.1 13.1-61.573 15.328-15.554 1.778-31.674 1.293-46.244 7.255-22.446 9.186-41.813 33.35-65.354 27.938 13.934-45.63 5.066-53.476 19-99.1 13.26-43.42 4.404-91.922-4.87-136.366-5.166-24.752 14.24-44.8 30.01-64.563s35.02-36.45 54.58-52.478c8.575-7.027 16.224-11.946 27.3-12.36"/><path class="cls-8" d="M1483.083 439.99c12.355 1.66 22.42 11.094 28.872 21.76 11.343 18.747 13.83 41.492 13.97 63.4s-1.78 44.006 1.84 65.617c3.522 21.018 12.213 40.91 23.188 59.177 7.19 11.968 16.82 24.28 30.582 26.626 11.51 1.96 23.744-4.31 29.567-14.43 9.73-16.908 2.252-40.172 13.093-56.39 9.71-14.527 30.915-18.26 39.814-33.296 4.3-7.27 4.98-16.052 5.425-24.488.146-2.763.24-5.7-1.116-8.108-2.99-5.32-10.54-4.967-16.64-5.1-24.97-.534-44.95-20.388-60.13-40.217s-29.834-42.135-52.92-51.66c-7.146-2.95 5.923-30.82 14.84-41.522"/><path class="cls-15" d="M1447.7 440.085a89.514 89.514 0 0130.432-19.845 20.428 20.428 0 018.088-1.813c3.123.118 6.038 1.49 9.01 2.458 5.746 1.873 11.86 2.26 17.766 3.553s11.92 3.73 15.532 8.577c4.33-2.946 2.182-10.047-1.834-13.406s-9.407-5.16-12.476-9.4-3.08-9.93-2.957-15.18l.52-22.02a7.77 7.77 0 00-.71-4.255c-.754-1.247-2.58-1.958-3.715-1.045-1.845 2.914-1.784 6.58-2.125 10.014s-1.458 7.242-4.53 8.807-7.83-1.484-6.408-4.626c-2.882 1.5-3.846 5.048-4.944 8.106-6.816 18.98-27.748 29.334-37.25 47.122"/><path class="cls-8" d="M1647.786 507.248c-7.98-8.024-16.787-16.258-27.91-18.382-15.41-2.943-4.158 18.3 1.1 22.706 5.4 4.52 14.912 10.368 22.192 9.453 8.688-1.09 10.95-7.41 4.618-13.777z"/><path class="cls-15" d="M1527.942 466.192c7.244 8.65 10.145 20.1 11.777 31.267 6.523 44.63-3.258 93.27 18.24 132.93 4.462 8.235 13.4 16.773 21.935 12.91 7.948-3.6 8.234-14.61 7.243-23.277s-.833-19.642 7.05-23.383c2.626-1.246 5.724-1.384 8.185-2.933 5.675-3.57 4.716-12.6.39-17.722s-10.79-7.856-16.078-11.98c-12.97-10.112-17.64-27.274-22.284-43.05q-5.16-17.542-11.5-34.707c-4.51-12.213-12.21-26.284-25.223-26.6l.573 4.177"/><path class="cls-10" d="M1524.312 520.46c-.464-17.814-2.892-36.183-11.608-51.727-3.872-6.9-10.16-12.585-13.514-19.653-10.724 21.1-20.57 42.422-33.8 61.386 6.26.843 10.747 7.268 12.1 11.166 12.555 36.22 40.318 132.13 66 191.828l15.747-1.655s-33.13-122.44-34.925-191.344z"/><path class="cls-6" d="M1647.716 756l17.08 26.7c-34.7 19.774-73.53 42.7-114.32 47.712-10.233-18.577-17.482-39.912-27.716-58.49-1.176-2.135-2.392-4.544-1.757-6.767 1.29-4.52 8.778-4.417 10.613-8.722"/><path class="cls-5" d="M1654.52 751.432l15.25 27.638c-36.172 17.345-75.428 38.08-116.674 40.372-8.957-19.12-19.19-40.06-28.147-59.18-1.03-2.2 1.1-5.928 1.89-8.092 1.61-4.4 9.11-3.807 11.252-7.96"/><path class="cls-6" d="M1580.018 807.506c13.234-1.745 27.364-4.7 30.608-5.562 4.81-1.284 63.875-23.216 61.018-27.64-12.706-19.655-27.01-36.98-38.22-57.486-1.99-3.643-4.65-7.766-8.774-8.33-8.165-1.114-26.344 11.036-33.857 14.287-13.878 6.006-27.855 12.165-43.17 14.64-7.3 1.18-14 4.324-21.552 4.416 6.76 22.465 17.334 44.185 28.9 64.94 1.63 2.92 12.968 2.33 25.05.738z"/><path class="cls-10" d="M1556.375 711.17c12.775 5.948 23.556 18.017 25.683 31.948 3.746 15.648-5.44-3.444-12.98-9.9-8.88.423-19.83 3.212-25.413 4.867-5.564-9.6-4.46-39.744-4.46-39.744"/><path d="M1558.48 757.244a.73.73 0 00.21.7 2.622 2.622 0 00.983.625 6.1 6.1 0 001.288.34c.434.06.98.07 1.466.1l1.5.07c.5-.014 1-.08 1.5-.12 1-.105 1.988-.18 2.99-.225a21.92 21.92 0 005.9-1.11c.96-.29 1.9-.642 2.845-.96.92-.39 1.854-.748 2.76-1.165 1.776-.9 3.68-1.55 5.407-2.566.428-.258.848-.53 1.267-.8s.794-.61 1.193-.91l2.392-1.79c.817-.574 1.567-1.23 2.333-1.87.79-.617 1.48-1.34 2.218-2.02a33.336 33.336 0 003.774-4.653l-.07.73c-.437-.863-1.6-.87-2.865-.75a5.25 5.25 0 00-1.875.514c-.59.314-1.145.8-1.742 1.138a47.108 47.108 0 00-6.814 4.836 36.82 36.82 0 00-3.02 2.9c-.965 1.014-1.826 2.11-2.8 3.124a10.972 10.972 0 00-2.356 3.4 12.572 12.572 0 00-.525 1.943 6 6 0 00-.1 1.913 3.94 3.94 0 00.636 1.78 4.7 4.7 0 001.44 1.325 8.017 8.017 0 003.96.854 27.366 27.366 0 008.165-1.675c2.638-.976 5.3-1.963 7.894-3.138a27.018 27.018 0 018.3-2.4 21.634 21.634 0 012.216-.06 4.56 4.56 0 012.407.696 3.124 3.124 0 011.264 2.366 6.148 6.148 0 01-.29 2.332 17.094 17.094 0 01-4.43 7.617 13.02 13.02 0 01-3.7 2.545 8.027 8.027 0 01-1.07.374 6.168 6.168 0 01-1.175.276 2.44 2.44 0 01-3.048-2.575 4.367 4.367 0 01.3-1.292 5.91 5.91 0 011.364-2.056 4.98 4.98 0 011.023-.734c.34-.16.67-.334 1.02-.47.685-.292 1.388-.525 2.082-.774a15.325 15.325 0 014.308-.947 20.128 20.128 0 012.207.075l2.2.154a11.966 11.966 0 014.164 1.39l3.8 1.96c1.28.6 2.58 1.085 3.863 1.55a8.825 8.825 0 003.958.61c2.645-.276 5.28-1.7 5.9-4.055l1.542.425a6.428 6.428 0 01-1.128 2.165 7.28 7.28 0 01-1.834 1.54 9.79 9.79 0 01-4.41 1.13 14.9 14.9 0 01-4.483-.42 21.662 21.662 0 01-3.98-1.8 34.26 34.26 0 00-3.848-1.72c-1.3-.483-2.585-.777-3.847-1.22a7.53 7.53 0 00-3.995-.24 20.574 20.574 0 00-3.98.675 9.1 9.1 0 00-1.817.89c-.292.168-.563.37-.84.558a3.72 3.72 0 00-.655.552 4.7 4.7 0 00-1.032 1.412 3 3 0 00-.235.76 1.125 1.125 0 00.065.56c.042.14.213.237.392.34a1.11 1.11 0 00.694.026 8.906 8.906 0 001.794-.68 15.1 15.1 0 003.394-2.1 10.742 10.742 0 003.97-6.827c.2-1.315.123-2.59-.514-3a3.02 3.02 0 00-1.523-.407c-.66-.006-1.334-.024-2 0a20.8 20.8 0 00-4.032.586c-1.34.306-2.7.647-4.047 1.054-2.7.822-5.14 2.34-7.842 3.338a25.925 25.925 0 01-4.154 1.3 14.338 14.338 0 01-4.394.422 11.876 11.876 0 01-2.23-.36 10.37 10.37 0 01-2.165-.764 6.716 6.716 0 01-1.93-1.443 5.325 5.325 0 01-1.16-2.238 5.857 5.857 0 01.023-2.478 7.514 7.514 0 011.013-2.107c.8-1.262 1.447-2.607 2.206-3.846a18.5 18.5 0 012.784-3.33c1.013-1.04 2.107-1.99 3.188-2.945a43.872 43.872 0 017.038-5.032c.624-.378 1.323-.56 1.992-.894a14.714 14.714 0 012.127-.86 4.332 4.332 0 012.43-.06 3.143 3.143 0 011.215.61 2.875 2.875 0 01.8 1.12l.164.37-.224.25c-.69.777-1.275 1.628-1.942 2.416-.7.76-1.338 1.57-2.08 2.29a41.77 41.77 0 01-4.53 4.193l-1.212.96-1.284.86c-.84.6-1.73 1.114-2.608 1.65a30.206 30.206 0 01-5.434 2.96c-.96.38-1.946.7-2.916 1.048-1 .276-1.982.582-2.984.826-2.012.47-4.044.777-6.072 1.19l-1.535.242c-.514.058-1.035.025-1.55.04-1.037 0-2.067.03-3.1.01-.53-.01-1.007.027-1.586-.014a6.322 6.322 0 01-1.667-.37 4.09 4.09 0 01-1.58-.977 2.34 2.34 0 01-.632-2.1z" fill="#dde3f2"/><path class="cls-6" d="M1486.94 447.183c11.476-2.77 21.42 8.417 26.475 19.086 18 37.985 12.015 90.044 24.785 130.1.77 2.415 1.616 4.98 1 7.44-.518 2.083-2 3.767-3.44 5.36-7.5 8.325-19.826 11.733-27.328 20.057-15.45-36.346-30.843-72.51-56.29-102.712"/><path d="M1483.85 516.483l-15.108-10.866a59.6 59.6 0 008.208 15.887 11.95 11.95 0 00-9.142 2.93l7.888 8.4c-3.307-.88-3.19 4.66-3.135 8.08.12 7.084-7.92 11.7-9.59 18.586-2.6 10.728 10.436 18.1 15.63 27.84 3.378 6.333 3.33 13.86 3.408 21.038a382.742 382.742 0 0024.673 131.055c-1.2-33.03-2.52-66.675-13.67-97.79-.99-2.76-2.07-5.735-1.254-8.553.91-3.153 3.947-5.228 5.368-8.187 1.524-3.172 1.01-6.9.46-10.377l-15.714-99.63" fill="#ebecf2" stroke="#ebecf2" stroke-width="3" stroke-miterlimit="10"/><path d="M1451.156 303.117c5.418 2.835 10.92 5.732 15.292 10.007s7.528 10.21 7.04 16.3c-.547 6.825-5.486 12.89-5.224 19.732.266 6.956 5.775 12.532 7.874 19.17 3.5 11.07-2.737 24.07 2.7 34.33 10.738-11.622 18.758-26.083 21.113-41.73s-1.345-32.46-11.476-44.616-26.934-18.916-42.39-15.526" fill="#2a3376" opacity=".3"/><path class="cls-5" d="M1243.31 333.753c-.817.036-54.6 35.03-54.6 35.03l16.5 21.4s51.483-33.914 51.663-36.642c.104-1.525-11.935-19.86-13.563-19.785z"/><path class="cls-19" d="M1198.53 385.392a8.345 8.345 0 003.256-3.5 11.833 11.833 0 001.242-4.707 14.553 14.553 0 00-.552-4.87c-.1-.4-.253-.78-.386-1.168a5.32 5.32 0 00-.483-1.074 1.72 1.72 0 00-1.73-.838c-1.423.147-2.26 1.926-2.093 3.468a6.13 6.13 0 002.392 4.036 6.582 6.582 0 004.515 1.483 8.03 8.03 0 004.476-1.927 11.012 11.012 0 003.822-8.842 7.516 7.516 0 00-.413-2.41 3.472 3.472 0 00-1.335-1.845 1.18 1.18 0 00-.956-.136 1.3 1.3 0 00-.7.686 3.787 3.787 0 00-.274 2.274 9.495 9.495 0 001.963 4.4 8.167 8.167 0 003.877 2.827 4.733 4.733 0 004.47-.915 5.46 5.46 0 001.893-4.21l.8.01a6.257 6.257 0 01-2.19 4.81 5.592 5.592 0 01-5.194 1.073 8.65 8.65 0 01-4.28-3.093 10.114 10.114 0 01-2.1-4.808 4.516 4.516 0 01.374-2.716 2.02 2.02 0 011.134-1.04 1.905 1.905 0 011.542.21 4.142 4.142 0 011.635 2.238 8.262 8.262 0 01.436 2.625 11.762 11.762 0 01-4.1 9.35 8.74 8.74 0 01-4.815 2.2 6.922 6.922 0 01-5.083-1.6 6.82 6.82 0 01-2.6-4.61 5.508 5.508 0 01.46-2.685 2.935 2.935 0 012.25-1.622 2.512 2.512 0 012.465 1.2 11.97 11.97 0 01.955 2.442 14.592 14.592 0 01.664 5.137 12.654 12.654 0 01-1.355 5.032 9.152 9.152 0 01-3.6 3.82z"/><path class="cls-5" d="M1088.827 389.332c-1.217.418-73 82.705-73 82.705l34.426 24.947 70.9-84.948s-29.902-23.536-32.326-22.704zm38.795 33.444c-1.217.418-73 82.705-73 82.705l57.836 47.02 70.9-84.945s-53.312-45.61-55.736-44.777z"/><path class="cls-19" d="M1037.32 491.87a13.368 13.368 0 003.623-6.745 18.872 18.872 0 00.008-7.767 23 23 0 00-2.835-7.27c-.312-.576-.712-1.1-1.078-1.638a8.592 8.592 0 00-1.21-1.474 2.97 2.97 0 00-3.244-.612 3.65 3.65 0 00-2.143 2.695 6.55 6.55 0 00.27 3.725 9.838 9.838 0 005.382 5.273 10.435 10.435 0 007.593.4 12.823 12.823 0 006.066-4.816 17.048 17.048 0 002.88-7.29 17.882 17.882 0 00-.6-7.81 12.063 12.063 0 00-1.61-3.543 5.627 5.627 0 00-2.863-2.348 2.04 2.04 0 00-1.655.2 2.22 2.22 0 00-.876 1.44 6.15 6.15 0 00.5 3.69 14.83 14.83 0 004.832 6 13.067 13.067 0 007.166 2.744 7.7 7.7 0 006.595-3.276 8.807 8.807 0 001.23-7.34l.775-.2a9.6 9.6 0 01-1.363 8 8.557 8.557 0 01-7.256 3.613 13.557 13.557 0 01-7.625-2.893 15.536 15.536 0 01-5.07-6.357 6.888 6.888 0 01-.513-4.147 2.956 2.956 0 011.208-1.9 2.773 2.773 0 012.248-.28 6.3 6.3 0 013.26 2.653 12.756 12.756 0 011.692 3.75 18.554 18.554 0 01.583 8.104 18.084 18.084 0 01-3.01 7.558 13.538 13.538 0 01-6.33 5.162 10.544 10.544 0 01-4.132.627 11.458 11.458 0 01-4.04-.99 10.523 10.523 0 01-5.73-5.773 8.126 8.126 0 01-.373-4.148 4.418 4.418 0 012.628-3.245 3.762 3.762 0 014.046.77 9.18 9.18 0 011.306 1.59c.38.56.78 1.1 1.115 1.692a23.04 23.04 0 013.015 7.5 19.7 19.7 0 01-.033 8.11 14.175 14.175 0 01-3.87 7.143zm187.405-98.13c3.088.238 5.51 2.952 8.577 3.392a30.415 30.415 0 004.35-.11 4.416 4.416 0 013.833 1.646c.7 1.1.548 2.578 1.212 3.7.7 1.18 2.224 1.873 2.46 3.224.21 1.21-.74 2.293-1.68 3.084a30.763 30.763 0 01-5.87 3.792 19.5 19.5 0 01-5.237 1.95 12.467 12.467 0 01-10.02-2.556"/><path class="cls-6" d="M1229.177 407.5l1.025-.08a4.6 4.6 0 002.572-.734 2.91 2.91 0 00.99-2.17 6 6 0 00-.5-2.39 13.166 13.166 0 00-5.39-6.4c-1.188 2.146-2.462 4.406-2.608 6.854a5.172 5.172 0 00.144 1.835 5.747 5.747 0 00.916 1.632 6.126 6.126 0 001.32 1.442 2.268 2.268 0 001.853.43"/><path class="cls-2" d="M1240.8 403.3c0 .008-.01.017-.03.026.083-.018.133-.035.135-.05.01-.058-.113-.034-.105.024zm-6.807 7.477c-1.667-1.17-3.566-2.026-5.05-3.42a3.77 3.77 0 01-.99-1.332c-.686-1.762.832-3.534 1.426-5.33.94-2.84-2.23-6.754-3.71-7.07a13.977 13.977 0 00-4.44.32 8.86 8.86 0 00-4.163 1.793c-1.42 1.162-2.6 2.987-2.094 4.75a13.2 13.2 0 001.22 2.282 5.6 5.6 0 01.528 3.578c-.343 1.836-1.612 3.58-1.2 5.4.467 2.07 2.776 3.036 4.368 4.44a7.84 7.84 0 012.44 4.123 10.022 10.022 0 00.57 2.24 3.86 3.86 0 002.92 1.974 7.525 7.525 0 003.593-.482 14.642 14.642 0 005.7-3.677 6.668 6.668 0 002.17-4.694c-.1-2.032-1.624-3.72-3.29-4.89z"/><path class="cls-6" d="M1228.53 396.242l5.212 3.908-1.63 1.412"/><path class="cls-19" d="M1237.31 388.3c2.1-1.52 4.154-3.09 6.332-4.492l.81-.537a8.92 8.92 0 00.83-.503l1.6-1.1c1.065-.734 2.18-1.4 3.248-2.127l6.257-4.6c1.02-.8 2.123-1.48 3.2-2.2s2.093-1.523 3.142-2.28l.456.654-3.143 2.278c-1.05.76-2.185 1.392-3.217 2.174l-6.333 4.49c-1.04.77-2.047 1.588-3.145 2.275l-1.657 1.02a6.207 6.207 0 00-.787.566l-.818.523c-.545.35-1.093.7-1.624 1.063-.52.386-1.005.82-1.535 1.19l-3.156 2.26zm-92.584 183.034l-8.58-5.55q-2.14-1.4-4.25-2.832c-1.417-.946-2.825-1.9-4.213-2.893l-.327-.236.253-.292c1.5-1.725 2.963-3.472 4.48-5.18s3.034-3.412 4.52-5.146l8.78-10.517.2-.235.263.166 3.894 2.427 3.832 2.522c2.55 1.69 5.173 3.26 7.757 4.9l-.43.673-7.763-4.892c-1.29-.822-2.545-1.7-3.826-2.53l-3.87-2.466.51-.076-8.87 10.435-4.38 5.267c-1.47 1.747-3.03 3.417-4.56 5.113l-.073-.53c1.437.916 2.843 1.876 4.24 2.85l2.112 1.438 2.165 1.356c1.458.882 2.862 1.846 4.3 2.766l4.28 2.79zm23.94-29.798l-8.58-5.55q-2.14-1.4-4.25-2.832c-1.417-.946-2.825-1.9-4.213-2.893l-.327-.23.253-.292c1.5-1.725 2.963-3.47 4.48-5.18s3.034-3.412 4.52-5.146l8.78-10.516.2-.234.263.165 3.894 2.426 3.832 2.524c2.55 1.69 5.173 3.262 7.757 4.9l-.43.674-7.763-4.89c-1.29-.824-2.545-1.7-3.826-2.533l-3.87-2.466.51-.075-8.87 10.438-4.38 5.267c-1.47 1.748-3.03 3.417-4.56 5.113l-.074-.53c1.437.916 2.843 1.876 4.242 2.85l2.11 1.438 2.167 1.356c1.457.884 2.862 1.848 4.3 2.768l4.28 2.79zm23.92-26.31l-8.58-5.55q-2.14-1.4-4.25-2.832c-1.418-.946-2.826-1.9-4.214-2.893l-.327-.23.253-.292c1.5-1.725 2.966-3.472 4.482-5.18s3.035-3.412 4.52-5.146l8.778-10.516.2-.235.266.166 3.894 2.426 3.833 2.523c2.55 1.69 5.177 3.262 7.76 4.9l-.43.674-7.77-4.893c-1.29-.823-2.543-1.7-3.824-2.532l-3.87-2.466.512-.077-8.872 10.438-4.38 5.268c-1.468 1.748-3.03 3.417-4.558 5.113l-.075-.53c1.438.917 2.844 1.877 4.243 2.85l2.11 1.44 2.167 1.354c1.458.884 2.862 1.848 4.3 2.768l4.28 2.79zm50.3-121.576c2.1-1.52 4.152-3.092 6.33-4.493l.81-.537a8.92 8.92 0 00.83-.506l1.6-1.1c1.065-.733 2.18-1.4 3.25-2.127l6.255-4.6c1.02-.8 2.126-1.48 3.2-2.2s2.096-1.522 3.145-2.28l.46.655-3.144 2.278c-1.05.758-2.185 1.39-3.217 2.173l-6.333 4.49c-1.043.77-2.05 1.588-3.147 2.275l-1.656 1.018a6.207 6.207 0 00-.788.567l-.82.523c-.545.35-1.093.7-1.624 1.064-.52.386-1.006.82-1.536 1.19l-3.155 2.26zm5.574 6.688c1.22-.906 2.406-1.865 3.71-2.653l.482-.307a3.12 3.12 0 00.5-.276l.944-.64c.623-.436 1.32-.768 1.94-1.2 1.223-.906 2.43-1.832 3.636-2.762a15.962 15.962 0 011.893-1.273c.625-.433 1.218-.91 1.83-1.365l.458.655-1.833 1.358c-.612.45-1.312.778-1.907 1.254l-3.713 2.65a21.173 21.173 0 01-1.83 1.362l-1.007.55a1.87 1.87 0 00-.46.337l-.49.293c-.33.195-.655.39-.972.6-.302.227-.56.52-.876.733-.615.447-1.217.913-1.847 1.338zM1232.176 432c4.268-3.172 8.5-6.4 12.852-9.452l1.624-1.157c.553-.37 1.115-.725 1.646-1.124l3.23-2.34 6.512-4.61 12.776-9.556c2.1-1.628 4.3-3.134 6.46-4.68s4.267-3.174 6.4-4.76l.473.647-6.4 4.758c-2.138 1.584-4.364 3.046-6.48 4.655l-12.856 9.45c-2.128 1.594-4.22 3.24-6.405 4.754l-3.29 2.26c-.56.362-1.073.784-1.6 1.187l-1.633 1.147c-1.09.763-2.18 1.523-3.256 2.3-1.062.8-2.09 1.646-3.164 2.43l-6.417 4.738zm5.574 5.354c4.268-3.172 8.5-6.4 12.852-9.453l1.624-1.154c.553-.37 1.115-.728 1.646-1.127l3.23-2.34 6.512-4.61 12.776-9.557c2.1-1.626 4.3-3.133 6.46-4.678s4.267-3.175 6.4-4.76l.473.646-6.4 4.76c-2.135 1.583-4.36 3.045-6.48 4.654l-12.853 9.45c-2.128 1.595-4.22 3.24-6.405 4.755l-3.29 2.26c-.558.36-1.073.782-1.6 1.186l-1.633 1.144c-1.09.76-2.18 1.52-3.256 2.3-1.063.8-2.09 1.644-3.165 2.427l-6.415 4.742zm5.577 6.686c2.373-1.76 4.71-3.572 7.167-5.215l.914-.628c.316-.194.64-.375.936-.6l1.81-1.28c1.204-.855 2.46-1.64 3.668-2.49l7.09-5.323c1.158-.92 2.4-1.72 3.62-2.56s2.37-1.763 3.558-2.642l.468.65-3.56 2.64c-1.19.877-2.466 1.633-3.636 2.535l-7.17 5.214c-1.18.89-2.323 1.83-3.562 2.64l-1.867 1.2a8.053 8.053 0 00-.892.657l-.92.615c-.615.41-1.232.818-1.834 1.246-.59.446-1.144.94-1.744 1.37l-3.573 2.62z"/><path class="cls-20" d="M1072.997 450.83l26.755-30.1m-32.106 26.757l17.972-20.22"/><path class="cls-19" d="M1129.723 435.086l10.07 8.206c3.327 2.77 6.8 5.357 10.152 8.1l20.13 16.423.322.264-.264.32-11.555 14.016c-3.856 4.67-7.735 9.32-11.546 14.026l-11.538 14.032-11.49 14.073-.14.173-.176-.14c-3.367-2.723-6.69-5.5-10.095-8.174s-6.765-5.405-10.133-8.127l-20.216-16.317-.3-.246.248-.31c3.8-4.717 7.694-9.353 11.532-14.036l11.472-14.086c3.868-4.66 7.73-9.325 11.533-14.037l11.44-14.11.61.5-11.473 14.086q-5.755 7.03-11.426 14.125l-23.08 28.06-.057-.55c3.342 2.752 6.686 5.5 10.07 8.205l10.116 8.146c3.374 2.712 6.755 5.416 10.063 8.21s6.74 5.437 10.106 8.16l-.59.062 5.685-7.083 5.794-7 11.487-14.075c3.89-4.64 7.618-9.415 11.473-14.085l5.82-6.974 5.77-7.015.053.5c-3.332-2.764-6.626-5.575-10.025-8.26l-10.133-8.125c-3.395-2.688-6.668-5.526-10.074-8.2l-10.13-8.13z"/><path class="cls-19" d="M1170.2 468.1l-14.54 17.984c-4.812 5.993-9.526 12.02-14.4 18.02l-29.177 35.93-.242.3-.3-.24-16.71-13.7-16.75-13.645-.19-.16.154-.19 14.515-17.906c4.823-5.98 9.734-11.89 14.48-17.933l28.9-35.915.257-.32.317.26c2.808 2.3 5.574 4.625 8.4 6.9s5.654 4.556 8.437 6.863l4.16 3.457 4.226 3.427zm-.783.082c-5.624-4.48-11.153-8.993-16.818-13.422-2.81-2.223-5.53-4.5-8.3-6.75l-8.3-6.78.584-.062c-4.875 5.94-9.74 11.885-14.534 17.89-4.83 5.974-9.586 12.01-14.48 17.933l-3.676 4.44-3.6 4.5-7.187 9.01c-2.377 3.02-4.827 5.98-7.263 8.95s-4.833 5.97-7.253 8.955l-.065-.64 8.385 6.812c2.8 2.27 5.55 4.587 8.38 6.816 2.81 2.254 5.643 4.478 8.4 6.79l8.328 6.883-.525.055c4.8-5.97 9.712-11.854 14.583-17.792l14.41-17.89c4.762-5.966 9.68-11.894 14.508-17.85z"/><path class="cls-19" d="M1086.32 519.114c4.83-6.03 9.61-12.1 14.554-18.04l1.843-2.235c.63-.736 1.27-1.46 1.872-2.215l3.66-4.49 7.39-8.928 14.453-18.12c2.38-3.045 4.877-5.993 7.324-8.983s4.827-6.032 7.244-9.045l.623.5-7.247 9.043c-2.415 3.016-4.952 5.932-7.348 8.963l-14.56 18.036c-2.406 3.022-4.764 6.083-7.25 9.042l-3.737 4.43c-.636.726-1.216 1.5-1.813 2.258l-1.856 2.226-3.7 4.463c-1.2 1.513-2.36 3.06-3.575 4.56l-7.264 9.03zm7.588 6.16c4.83-6.03 9.612-12.1 14.555-18.04l1.843-2.235c.63-.736 1.27-1.46 1.872-2.215l3.66-4.492 7.392-8.927 14.454-18.12c2.38-3.044 4.877-5.992 7.324-8.982s4.828-6.032 7.245-9.045l.622.5-7.247 9.044c-2.414 3.016-4.95 5.932-7.347 8.963l-14.555 18.037c-2.407 3.022-4.765 6.083-7.25 9.042l-3.738 4.43c-.637.726-1.217 1.5-1.814 2.258l-1.854 2.225-3.7 4.463c-1.2 1.512-2.36 3.06-3.577 4.56l-7.265 9.03zm7.592 6.16c4.83-6.03 9.612-12.1 14.555-18.04l1.843-2.235c.63-.736 1.27-1.46 1.872-2.215l3.66-4.49 7.392-8.928 14.454-18.12c2.38-3.045 4.877-5.993 7.324-8.983s4.828-6.032 7.245-9.045l.622.5-7.247 9.043c-2.414 3.016-4.95 5.932-7.347 8.963l-14.558 18.036c-2.407 3.022-4.765 6.083-7.25 9.042l-3.738 4.43c-.637.726-1.217 1.5-1.814 2.258l-1.855 2.226-3.7 4.463c-1.2 1.513-2.36 3.06-3.576 4.56l-7.265 9.03z"/><path class="cls-19" d="M1123.223 456.968c2.82 2.24 5.682 4.427 8.413 6.778l1.032.87c.332.306.655.623 1.01.9l2.084 1.718c1.39 1.144 2.726 2.356 4.115 3.5l8.494 6.677c1.445 1.08 2.794 2.28 4.17 3.438s2.825 2.236 4.234 3.356l-.5.62-4.23-3.357c-1.41-1.12-2.723-2.36-4.15-3.458l-8.412-6.78c-1.416-1.11-2.873-2.174-4.23-3.36l-2.02-1.796a12.007 12.007 0 00-1.056-.842l-1.022-.882c-.68-.59-1.36-1.18-2.056-1.75-.71-.554-1.457-1.062-2.155-1.63l-4.216-3.377zM1106.5 477.7c2.82 2.238 5.682 4.427 8.413 6.777l1.032.87c.332.306.654.623 1.01.9l2.084 1.718c1.39 1.144 2.723 2.356 4.112 3.5l8.494 6.677c1.442 1.08 2.79 2.276 4.17 3.435s2.822 2.236 4.23 3.356l-.5.62-4.23-3.357c-1.41-1.12-2.722-2.36-4.15-3.458l-8.41-6.78c-1.418-1.11-2.875-2.173-4.23-3.36l-2.022-1.795a12 12 0 00-1.056-.842l-1.023-.88c-.68-.59-1.36-1.18-2.057-1.75-.71-.555-1.456-1.063-2.154-1.632l-4.216-3.372z"/><path class="cls-6" d="M1057.525 775.32l68.375-161.96-210.24-94.71-76.21 161.49 218.077 95.18z"/><path class="cls-5" d="M925.322 534.25c-1.083.7-70.087 141.4-70.087 141.4L894.6 691.7l67.517-143.077s-34.64-15.758-36.795-14.374zM1071 605.775c1.085.56-61.293 138.5-61.293 138.5l37.92 16.216 62.536-138.365s-41.254-17.43-39.163-16.348z"/><path class="cls-19" d="M880.822 689.808a13.368 13.368 0 001.916-7.414 18.87 18.87 0 00-1.837-7.546 23 23 0 00-4.48-6.387c-.44-.482-.953-.9-1.437-1.332a8.568 8.568 0 00-1.524-1.144 2.97 2.97 0 00-3.3.176 3.65 3.65 0 00-1.443 3.126 6.55 6.55 0 001.15 3.557 9.838 9.838 0 006.48 3.844 10.436 10.436 0 007.47-1.413 12.82 12.82 0 004.748-6.118 17.05 17.05 0 001.068-7.766 17.882 17.882 0 00-2.437-7.444 12.06 12.06 0 00-2.41-3.06 5.625 5.625 0 00-3.338-1.6 2.04 2.04 0 00-1.56.583 2.222 2.222 0 00-.51 1.605 6.15 6.15 0 001.356 3.466 14.827 14.827 0 006.12 4.68 13.067 13.067 0 007.613.963 7.7 7.7 0 005.627-4.75 8.807 8.807 0 00-.547-7.422l.706-.375a9.6 9.6 0 01.575 8.093 8.556 8.556 0 01-6.19 5.232 13.557 13.557 0 01-8.095-1 15.533 15.533 0 01-6.435-4.972 6.886 6.886 0 01-1.483-3.905 2.956 2.956 0 01.723-2.13 2.77 2.77 0 012.117-.8 6.3 6.3 0 013.8 1.8 12.76 12.76 0 012.533 3.243 18.554 18.554 0 012.49 7.736 18.083 18.083 0 01-1.13 8.056 13.537 13.537 0 01-4.92 6.518 10.55 10.55 0 01-3.866 1.59 11.462 11.462 0 01-4.16 0 10.523 10.523 0 01-6.94-4.247 8.127 8.127 0 01-1.345-3.94 4.418 4.418 0 011.782-3.776 3.76 3.76 0 014.11-.212 9.185 9.185 0 011.646 1.234c.5.454 1.02.886 1.485 1.378a23.045 23.045 0 014.71 6.57 19.706 19.706 0 011.9 7.884 14.175 14.175 0 01-2.062 7.86z"/><path class="cls-20" d="M905.73 641.468l18.838-35.593m-8.668 89.812l54.613-120.66m-44.008 125.345L979.22 581.8m-39.663 124.338l21.456-45.607m-8.403 51.376l21.455-45.608m-8.403 51.373l16.05-33.37m-81.976-44.81l12.655-23.907"/><path d="M1031.647 669.794l22.735-51.46a5.636 5.636 0 00-3.156-7.306l-25.49-11.26a5.636 5.636 0 00-7.527 2.585l-23.52 53.238a5.636 5.636 0 003.153 7.31l23.57 10.412c3 1.327 4.9 8.548 4.9 8.548z" stroke="#c4ccdf" fill="#c4ccdf" stroke-miterlimit="10"/><path class="cls-5" d="M1015.188 596.558L998.8 633.65a4.062 4.062 0 01-5.425 1.864L975 627.4a4.062 4.062 0 01-2.275-5.266l16.953-38.374a4.062 4.062 0 015.425-1.864l16.988 7.505c2.166.96 6.937-1.532 6.937-1.532z"/><path class="cls-6" d="M1010.34 656.734a11.77 11.77 0 00.307-4.555 16.344 16.344 0 00-1.315-4.43c-.633-1.3-1.6-2.89-2.84-2.02-.29.156-.45.324-.455.535a1.7 1.7 0 00.314.865c.19.313.428.62.667.945s.47.717.667.994a8.69 8.69 0 001.576 1.635 16.658 16.658 0 001.864 1.378 2.2 2.2 0 002.035.206 4.086 4.086 0 001.63-1.48 10.167 10.167 0 001.49-4.37 13.407 13.407 0 00-.16-4.662l-.314-1.456.7 1.31c.2.38.835.283 1.166-.026a1.655 1.655 0 00.4-1.35c-.02-.54-.165-1.118-.14-1.758a2.1 2.1 0 01.87-1.784 6.622 6.622 0 01.83-.385 3.073 3.073 0 00.648-.417 3.932 3.932 0 00.956-1.246 12.988 12.988 0 001.01-3.188l.01-.043.015-.036 1.31-3.033a66.754 66.754 0 011.37-3.01l1.35-3.03c.465-1.006.96-2.005 1.527-2.97l.672.41a32.467 32.467 0 00-1.52 2.886c-.46.99-.916 1.99-1.32 3.014-.774 2.067-1.773 4.035-2.663 6.05l.03-.1a11.46 11.46 0 01-1.087 3.418 4.892 4.892 0 01-1.2 1.44 5.028 5.028 0 01-.814.5 6.215 6.215 0 00-.74.343 1.4 1.4 0 00-.52 1.207c-.02.51.117 1.064.15 1.7a3.24 3.24 0 01-.086.995 1.574 1.574 0 01-.612.944 1.7 1.7 0 01-1.064.33 1.2 1.2 0 01-1.038-.605l.65-.237a13.463 13.463 0 01.335 4.88 17.57 17.57 0 01-.585 2.393 8.32 8.32 0 01-1.03 2.28 4.477 4.477 0 01-1.954 1.715 3.2 3.2 0 01-1.37.25 3.275 3.275 0 01-1.32-.373 13.05 13.05 0 01-1.966-1.49 11.256 11.256 0 01-1.718-1.788c-.243-.376-.394-.695-.63-1.01s-.462-.653-.674-1.014a2.337 2.337 0 01-.39-1.268 1.386 1.386 0 01.807-1.116 2.477 2.477 0 011.28-.336 2.2 2.2 0 011.2.586 6.47 6.47 0 011.42 2.043 15.262 15.262 0 011.242 4.686 11.08 11.08 0 01-.227 4.886z"/><path class="cls-19" d="M986.517 625.494c1.212-2.843 2.366-5.712 3.71-8.5l.49-1.05c.182-.342.378-.678.527-1.035l.954-2.116c.635-1.41 1.35-2.782 1.988-4.19l3.59-8.55c.56-1.442 1.258-2.824 1.91-4.225.64-1.407 1.21-2.844 1.818-4.265l.732.323-1.82 4.262c-.607 1.42-1.354 2.78-1.936 4.213l-3.713 8.5c-.6 1.426-1.135 2.877-1.823 4.263l-1.044 2.07a8.84 8.84 0 00-.458 1.065l-.506 1.044c-.338.7-.678 1.39-.994 2.1-.3.714-.54 1.45-.853 2.157l-1.84 4.256zm-5.147-2.274c1.21-2.843 2.365-5.712 3.71-8.5l.49-1.05c.18-.342.377-.678.526-1.035l.954-2.113c.635-1.41 1.35-2.782 1.988-4.19l3.59-8.55c.56-1.442 1.258-2.824 1.91-4.225.64-1.407 1.21-2.844 1.818-4.265l.732.323-1.82 4.264c-.607 1.42-1.354 2.78-1.936 4.21l-3.713 8.5c-.6 1.426-1.138 2.877-1.826 4.263l-1.045 2.073a8.84 8.84 0 00-.458 1.065l-.506 1.044c-.338.7-.678 1.39-.994 2.095-.3.714-.54 1.45-.853 2.157l-1.84 4.255zm10.263 4.534c.686-1.653 1.314-3.332 2.133-4.926l.294-.6a4.327 4.327 0 00.33-.588l.558-1.22c.362-.818.84-1.585 1.2-2.4l2.01-4.98a22.02 22.02 0 011.126-2.437c.366-.816.68-1.656 1.023-2.482l.732.326-1.034 2.48c-.345.825-.83 1.59-1.147 2.426l-2.135 4.926c-.328.833-.62 1.682-1.023 2.482l-.66 1.175a2.578 2.578 0 00-.26.62l-.31.6c-.208.4-.413.8-.6 1.2-.172.412-.27.858-.456 1.265-.35.823-.678 1.656-1.053 2.47z"/><path class="cls-6" d="M1018.376 660.64c.713-1.677 1.567-3.29 2.134-5.03.7-1.682 1.505-3.318 2.253-4.98s1.54-3.3 2.34-4.938l1.127-2.488c.39-.823.782-1.646 1.12-2.49l1.126-2.49c.41-.815.624-1.717 1.015-2.54l2.12-5.036c.82-1.628 1.5-3.32 2.25-4.98l.6-1.228.535-1.258 1.046-2.524.72.318c-.7 1.682-1.49 3.324-2.114 5.04-.715 1.674-1.55 3.3-2.28 4.965-.855 1.616-1.484 3.33-2.193 5-.272.878-.9 1.597-1.156 2.48-.34.844-.625 1.714-1 2.544-1.543 3.3-2.93 6.67-4.6 9.913-.844 1.618-1.43 3.35-2.147 5.024-.837 1.62-1.44 3.346-2.174 5.013zm5.088 2.247a26.4 26.4 0 001.362-3.284c.445-1.1.99-2.153 1.48-3.23s1.024-2.14 1.57-3.193c.266-.53.474-1.086.74-1.616s.526-1.063.737-1.618c.232-.545.5-1.073.74-1.616.28-.523.365-1.134.628-1.665l1.35-3.29c.565-1.047.983-2.157 1.48-3.233l.405-.792.34-.82.66-1.652.72.318c-.442 1.1-.974 2.16-1.342 3.293-.457 1.09-1.033 2.13-1.506 3.22a26.348 26.348 0 00-1.423 3.254c-.147.583-.63 1.016-.78 1.6-.2.56-.364 1.134-.6 1.68-1.042 2.13-1.905 4.338-3.065 6.416a30.448 30.448 0 00-1.376 3.28c-.578 1.04-.925 2.18-1.4 3.266zm.316 71.603a177.625 177.625 0 0124.855 9.52c5.847-10.607 19.794-41.312 24.352-52.535a195.56 195.56 0 00-26.092-11.03c-5.186 10.808-18.392 41.7-22.128 53.094m27.275-63.02a204.428 204.428 0 0124.783 9.684c5.2-9.15 17.347-35.775 21.258-45.534a225.262 225.262 0 00-26.067-11.082c-4.546 9.358-15.957 36.19-19.055 46.138"/></svg>