<svg xmlns="http://www.w3.org/2000/svg" id="Layer_1" viewBox="0 0 1920 1080"><style>.st0{fill:#fff}.st1,.st2{fill:none;stroke:#e8eaf2;stroke-width:3;stroke-miterlimit:10}.st2{opacity:.5;fill:#e8eaf2}.st3,.st4{fill:#e0e3ed}.st4{stroke:#e0e3ed;stroke-width:2;stroke-miterlimit:10}.st5{fill:#f4f6f8}.st6,.st7{fill:#e8eaf2}.st7{stroke:#e8eaf2;stroke-width:3;stroke-miterlimit:10}.st8{fill:#7581ce}.st9{fill:#2f3155}.st10{fill:#3e4166}.st11{fill:#5053ab}.st12{fill:#0c1238}.st13{fill:none;stroke:#0c1238;stroke-miterlimit:10}.st14{fill:url(#SVGID_1_)}.st15,.st16{stroke-width:3}.st15{stroke-miterlimit:10;fill:#dda000;stroke:#dda000}.st16{fill:#ffc14d;stroke:#ffc14d}.st16,.st17,.st18{stroke-miterlimit:10}.st17{stroke-width:3;fill:#fff;stroke:#fff}.st18{fill:none;stroke:#f4f6f8}.st19{opacity:.7;fill:#e8eaf2}.st20,.st21{fill:none;stroke:#f4f6f8;stroke-width:5;stroke-miterlimit:10}.st21{opacity:.3;fill:#f4f6f8}.st22{opacity:.3;fill:#0c1238}.st23{fill:#7581ce;stroke:#7581ce;stroke-linecap:round;stroke-miterlimit:10}.st24{opacity:.3;fill:#7581ce}.st25{fill:#3e4166;stroke:#3e4166;stroke-linejoin:round;stroke-miterlimit:10}.st25,.st26{stroke-linecap:round}.st26,.st27{fill:#0c1238;stroke:#0c1238;stroke-miterlimit:10}.st28,.st29{stroke-width:3;stroke-linejoin:round}.st28{stroke-miterlimit:10;fill:#7581ce;stroke:#7581ce}.st29{fill:#5053ab;stroke:#5053ab}.st29,.st30,.st31,.st32{stroke-miterlimit:10}.st30{stroke:#a3b3ef;stroke-width:3;stroke-linejoin:round;fill:#a3b3ef}.st31,.st32{fill:none}.st31{stroke-linejoin:round;stroke:#7581ce}.st32{stroke:#1e245e;stroke-width:2;stroke-linecap:round}.st33,.st34{fill:#ffc14d}.st34{opacity:.3}.st35{fill:#1e245e}.st36,.st37{stroke:#1e245e;stroke-miterlimit:10}.st36{stroke-linecap:round;fill:none;stroke-width:9}.st37{fill:#fff;stroke-width:3}.st38,.st39,.st40{fill:none;stroke:#d0d4e5;stroke-linejoin:round;stroke-miterlimit:10}.st39,.st40{fill:#f4f6f8;stroke:#e0e3ed;stroke-width:3}.st40{stroke:#e8eaf2}.st41,.st42{stroke:#e0e3ed}.st41{stroke-miterlimit:10;fill:#e0e3ed}.st42{fill:none;stroke-width:3;stroke-linejoin:round}.st42,.st43,.st44,.st45{stroke-miterlimit:10}.st43{stroke:#e0e3ed;stroke-width:3;stroke-linejoin:round;fill:#e0e3ed}.st44,.st45{fill:none}.st44{stroke-linecap:round;stroke:#ffc14d}.st45{stroke:#e1e5f1;stroke-width:3}.st46{fill:#e1e5f1}.st47{fill:none}.st48{fill:#f4f5f8}.st49{fill:#eaebf3}.st50{fill:#eaecf5}.st51,.st52,.st53,.st54{stroke:#e1e5f1;stroke-miterlimit:10}.st51{stroke-width:3;fill:#e1e5f1}.st52,.st53,.st54{fill:none}.st53,.st54{stroke:#0c1238;stroke-width:1.2858}.st54{fill:#ffc14d;stroke:#ffc14d;stroke-width:2;stroke-linejoin:round}.st55{fill:#202e78}.st56{fill:#2d2f61}.st57{fill:#8284c3}.st58{fill:#7376bc}.st59{fill:#666ab6}.st60{fill:#2e3253}.st61{fill:#505274}.st62,.st63,.st64,.st65{fill:none;stroke:#ffc14d;stroke-width:3;stroke-miterlimit:10}.st63,.st64,.st65{stroke-width:2;stroke-linejoin:round}.st64,.st65{fill:#ffb62d;stroke:#ffb62d}.st65{fill:#f4f6f8;stroke:#3e4166;stroke-width:3;stroke-linecap:round}.st66{fill:#f4f6f8;stroke:#e0e3ed}.st66,.st67,.st68,.st69{stroke-width:3;stroke-miterlimit:10}.st67{opacity:.3;fill:#e8eaf2;stroke:#e8eaf2}.st68,.st69{fill:#e0e3ed;stroke:#e0e3ed}.st69{fill:#f4f6f8;stroke:#e8eaf2}.st70{fill:#dee4f5}.st71,.st72,.st73{fill:none;stroke:#a3b3ef;stroke-width:2;stroke-miterlimit:10}.st72,.st73{fill:#a3b3ef}.st73{fill:#7581ce;stroke:#7581ce}.st74{opacity:.3;fill:#5053ab}.st75{fill:none;stroke:#dee4f5;stroke-miterlimit:10}.st76{fill:#f3f4f7}.st77,.st78{fill:none;stroke:#ffc14d;stroke-miterlimit:10}.st78{fill:#7581ce;stroke:#7581ce;stroke-width:3}.st79{opacity:.5;fill:#e8eaf2}.st80{fill:#a3b3ef}.st81{opacity:.3;fill:#dee4f5}.st82,.st83{fill:none;stroke:#e0e3ed;stroke-miterlimit:10}.st83{stroke:#fff}.st84{fill:#b0e3e3}.st85{fill:#53c1bd}.st86{fill:none;stroke:#0c1238;stroke-width:3;stroke-miterlimit:10}.st87{fill:#fbfbfc}.st88{fill:#f4f5f8;stroke:#e1e5f1;stroke-width:3;stroke-miterlimit:10}.st89{fill:#f2f4f9}.st90,.st91,.st92{fill:#eaecf5;stroke:#eaecf5;stroke-width:3;stroke-linecap:round;stroke-miterlimit:10}.st91,.st92{fill:#f2f4f9;stroke:#f2f4f9}.st92{fill:none}.st93{opacity:.5}.st94{fill:#f4f5f8;stroke:#e1e5f1;stroke-width:3;stroke-linecap:round;stroke-miterlimit:10}</style><path class="st3" d="M198.1 875.4s107.6-.1 269.1-.3c40.4 0 84.1.1 130.3.1 23.1 0 46.9.1 71.2.1 24.3 0 49.1.4 74.3.3 50.4.1 102.6.1 155.5.2 53 .1 106.8.3 160.6.4 107.6-.2 215.2-.3 316.1-.5 50.4-.1 99.2-.2 145.5-.3 11.6 0 23 0 34.2-.1h33.2c21.8.1 42.8.1 63 .1 40.4.1 77.4.2 110.1.1 32.8-.1 61.4-.1 84.9-.1 47.1-.1 74-.1 74-.1v3.2s-26.9 0-74 .1c-23.5 0-52.1.1-84.9.1h-110.1c-20.2-.1-41.2-.1-63-.2-10.9 0-21.9 0-33.2-.1h-179.7c-100.9 0-208.5.1-316.1.1l-160.6.3h-19.8c-6.6 0-13.2 0-19.7-.1-13.1 0-26.2-.1-39.2-.1-26-.1-51.6-.2-76.8-.4-12.6-.1-25.1-.2-37.5-.1-12.4 0-24.7.1-36.8.1-24.3-.1-48-.2-71.2-.2-23.1-.1-45.6-.1-67.4-.2-21.8.1-42.8.2-63 .2-10.1 0-20 .1-29.6.1H357c-32.8 0-61.4 0-84.9.1h-74v-2.8zM1687 940.9h2.1c.7 0 1.5 0 2.5.1s2.1.1 3.4.1c.6 0 1.3-.1 2-.2.7 0 1.5 0 2.2.1.8.1 1.6.2 2.4.2.8 0 1.7 0 2.6-.1 1.8-.1 3.7-.2 5.7-.4 1 0 2-.1 3.1-.1s2.1.1 3.2.2 2.2.1 3.4 0c1.1-.1 2.3-.2 3.5-.2 1.2 0 2.4.1 3.6.2 1.2.1 2.5.1 3.7.2 2.5.1 5.1.1 7.8-.2.7 0 1.3-.1 2 0s1.3.2 2 .2c.7.1 1.4 0 2-.1.7-.1 1.4 0 2.1 0 2.7 0 5.5.1 8.4.2h4.3c1.4 0 2.9 0 4.3.2s2.9.3 4.3 0c1.5-.2 2.9-.1 4.4 0 1.5.1 2.9.3 4.4.3 1.5 0 2.9-.1 4.4-.1 2.9-.1 5.9 0 8.8 0 1.5 0 2.9.1 4.4.1 1.5 0 2.9-.1 4.3-.2 2.9-.2 5.8-.3 8.6-.5 1.4 0 2.8-.1 4.2-.1h2.1c.7.1 1.4.1 2.1.2 2.7.2 5.5-.1 8.1-.2.7-.1 1.3-.1 2-.1s1.3-.1 2 0c.6 0 1.3.1 1.9.1h1.9c2.5-.1 5-.3 7.3.1 2.4.4 4.7-.2 6.9.1 2.2.4 4.3-.4 6.3-.1 2 .2 3.9.3 5.7.3 1.8-.1 3.5-.3 5-.1 1.5.1 3 .2 4.3.1 1.3-.1 2.4-.2 3.4-.3 1 0 1.8-.1 2.5-.1h2.1v2.4h-4.6c-1 0-2.1-.1-3.4-.2-1.3-.1-2.7 0-4.3.2-.8.1-1.6.1-2.4.1-.8 0-1.7-.1-2.6-.2-1.8 0-3.7.2-5.7.4-1 .1-2 .1-3.1-.1-1.1-.3-2.1-.3-3.2-.1-2.2.4-4.5-.4-6.9-.1-2.4.4-4.8.2-7.3 0-1.3-.1-2.5 0-3.8.1h-2c-.7 0-1.3 0-2-.1-2.6-.1-5.4-.4-8.1-.1-.7.1-1.4.2-2.1.2-.7 0-1.4.1-2.1.1h-4.2c-1.4 0-2.8-.1-4.3-.1-1.4 0-2.9-.1-4.3-.3-1.4-.2-2.9-.3-4.3-.2-1.5.1-2.9.3-4.4.3-2.9.1-5.9.3-8.8.2-1.5-.1-2.9-.3-4.4-.3-1.5-.1-2.9.2-4.4.4-.7.1-1.5.2-2.2.2-.7.1-1.5 0-2.2-.2-1.5-.5-2.9-.4-4.3 0-.7.2-1.4.2-2.2.3-.7.1-1.4 0-2.2 0-1.4-.1-2.9-.1-4.3-.2-2.8 0-5.6 0-8.4-.1-.7 0-1.4 0-2.1-.1-.7-.2-1.4-.3-2-.2-.7 0-1.3.2-2 .2h-2c-2.6-.3-5.2-.3-7.8-.4-2.5 0-5 0-7.3.1-1.2 0-2.4-.1-3.5-.1s-2.3 0-3.4.1c-4.4.5-8.4 0-12-.1-.9 0-1.8-.1-2.6 0-.8 0-1.6.1-2.4.2-.8.1-1.5.1-2.2.1-.7 0-1.4-.1-2-.1-1.3 0-2.4.1-3.4.1-1 .1-1.8.1-2.5.1-1.4 0-2.1.1-2.1.1v-2.5zM1780.9 929h.7c.2 0 .5 0 .9.1.3 0 .7.1 1.2.1.2 0 .4-.1.7-.2.2 0 .5 0 .8.1.3.1.5.2.8.2.3 0 .6 0 .9-.1.6-.1 1.3-.2 1.9-.4.3-.1.7-.1 1-.1.4 0 .7.1 1.1.2.4.1.8.1 1.1 0 .4-.1.8-.2 1.2-.2.8 0 1.6.3 2.5.4.9.1 1.7.1 2.6-.2.2-.1.5-.1.7 0 .2.1.5.2.7.3h.3c.1 0 .2-.1.3-.1.2-.1.5 0 .7-.1.9 0 1.9.1 2.9.2h1.5c.5 0 1 0 1.5.2s1 .3 1.5 0c.5-.2 1-.1 1.5 0s1 .3 1.5.3 1-.1 1.5-.1c1-.1 2 0 3 0 .5 0 1 .1 1.5.1s1-.1 1.5-.2c1-.2 2-.3 2.9-.5 1-.1 1.9-.2 2.9.1.9.2 1.9-.1 2.8-.2.2-.1.4-.1.7-.1.2 0 .4-.1.7 0 .2 0 .4.1.7.1h.6c.4 0 .9-.2 1.3-.2s.8.1 1.2.3c.8.4 1.6-.2 2.3.1.4.1.7.1 1.1 0 .4-.2.7-.1 1-.1.7.2 1.3.3 1.9.3.6-.1 1.2-.3 1.7-.1.3.1.5.1.8.1.2 0 .5 0 .7-.1.9-.3 1.6-.3 2-.3h.7v2.4h-.7c-.5 0-1.2 0-2-.2h-.7c-.2 0-.5.1-.8.2-.3.1-.5.1-.8.1-.3 0-.6-.1-.9-.2-.6 0-1.3.1-1.9.4-.3.1-.7.1-1-.1-.4-.3-.7-.3-1.1-.1-.7.4-1.5-.5-2.3-.1-.4.1-.8.3-1.2.2-.4 0-.8-.2-1.3-.2-.2 0-.4-.1-.6 0l-.7.1c-.4 0-.9 0-1.3-.1-.9-.1-1.8-.4-2.8-.1-.9.4-1.9.4-2.9.3-.5 0-1-.1-1.5-.1s-1-.1-1.5-.3c-.5-.2-1-.3-1.5-.2-.5.1-1 .3-1.5.3-1 .1-2 .3-3 .2-.5-.1-1-.3-1.5-.3-.2 0-.5 0-.7.1l-.7.3c-.2.1-.5.2-.7.2-.2.1-.5 0-.7-.2-.5-.5-1-.4-1.5 0-.5.3-1 .4-1.5.3-.5-.1-1-.1-1.5-.2-1 0-1.9 0-2.9-.1-.2 0-.5 0-.7-.1-.1-.1-.2-.1-.3-.2h-.3c-.2 0-.5.2-.7.2h-.7c-.9-.3-1.8-.3-2.6-.4-.9 0-1.7 0-2.5.1-.8 0-1.6-.2-2.3.1-.4.1-.7.2-1.1.2h-1c-.7-.1-1.3-.2-1.9-.2h-.9c-.3 0-.6.1-.8.2-.3.1-.5.1-.8.1-.2 0-.5-.1-.7-.1-.4 0-.8.1-1.2.1-.3.1-.6.1-.9.1-.5 0-.7.1-.7.1V929zM788.9 950h1.9c.6 0 1.4 0 2.3.1.9.1 1.9.1 3.1.1.6 0 1.2-.1 1.8-.2.6 0 1.3 0 2 .1s1.4.2 2.2.2c.7 0 1.5 0 2.3-.1 1.6-.1 3.3-.2 5.1-.4.9 0 1.8-.1 2.8-.1.9 0 1.9.1 2.9.2s2 .1 3 0 2.1-.2 3.1-.2c1.1 0 2.1.1 3.2.2s2.2.1 3.3.2c2.2.1 4.6.1 6.9-.2.6 0 1.2-.1 1.8 0 .6.1 1.2.2 1.8.2.6.1 1.2 0 1.8-.1.6-.1 1.2 0 1.8 0 2.5 0 4.9.1 7.5.2h3.8c1.3 0 2.6 0 3.8.2 1.3.2 2.6.3 3.9 0 1.3-.2 2.6-.1 3.9 0 1.3.1 2.6.3 3.9.3 1.3 0 2.6-.1 3.9-.1 2.6-.1 5.2 0 7.8 0 1.3 0 2.6.1 3.9.1 1.3 0 2.6-.1 3.9-.2 2.6-.2 5.1-.3 7.7-.5 1.3 0 2.5-.1 3.8-.1h1.9c.6.1 1.2.1 1.8.2 2.5.2 4.9-.1 7.2-.2.6-.1 1.2-.1 1.8-.1.6 0 1.2-.1 1.7 0 .6 0 1.1.1 1.7.1h1.7c2.2-.1 4.4-.3 6.6.1 2.1.4 4.2-.2 6.1.1 2 .4 3.8-.4 5.6-.1 1.8.2 3.5.3 5.1.3 1.6-.1 3.1-.3 4.5-.1 1.4.1 2.6.2 3.8.1 1.1-.1 2.2-.2 3.1-.3.9 0 1.6-.1 2.3-.1h1.9v2.4H952.4c-.9 0-1.9-.1-3.1-.2-1.1-.1-2.4 0-3.8.2-.7.1-1.4.1-2.2.1-.7 0-1.5-.1-2.3-.2-1.6 0-3.3.2-5.1.4-.9.1-1.8.1-2.8-.1-.9-.3-1.9-.3-2.9-.1-2 .4-4-.4-6.1-.1-2.1.4-4.3.2-6.6 0-1.1-.1-2.3 0-3.4.1h-1.7c-.6 0-1.2 0-1.8-.1-2.4-.1-4.8-.4-7.2-.1-.6.1-1.2.2-1.8.2-.6 0-1.2.1-1.9.1h-3.8c-1.3 0-2.5-.1-3.8-.1-1.3 0-2.6-.1-3.8-.3-1.3-.2-2.6-.3-3.9-.2-1.3.1-2.6.3-3.9.3-2.6.1-5.2.3-7.8.2-1.3-.1-2.6-.3-3.9-.3-1.3-.1-2.6.2-3.9.4-.7.1-1.3.2-2 .2-.7.1-1.3 0-1.9-.2-1.3-.5-2.6-.4-3.9 0-.6.2-1.3.2-1.9.3-.6.1-1.3 0-1.9 0-1.3-.1-2.5-.1-3.8-.2-2.5 0-5 0-7.5-.1-.6 0-1.2 0-1.8-.1-.6-.2-1.2-.3-1.8-.2-.6 0-1.2.2-1.8.2h-1.8c-2.4-.3-4.7-.3-6.9-.4-2.2 0-4.4 0-6.6.1-1.1 0-2.1-.1-3.1-.1s-2 0-3 .1c-3.9.5-7.5 0-10.7-.1-.8 0-1.6-.1-2.3 0-.7 0-1.5.1-2.2.2-.7.1-1.4.1-2 .1-.6 0-1.2-.1-1.8-.1-1.1 0-2.2.1-3.1.1-.9.1-1.6.1-2.3.1-1.2 0-1.9.1-1.9.1V950zM878.1 938h2c.6 0 1.4 0 2.4.1.9.1 2 .1 3.2.1.6 0 1.2-.1 1.9-.2.7 0 1.4 0 2.1.1.7.1 1.5.2 2.3.2.8 0 1.6 0 2.4-.1 1.7-.1 3.5-.2 5.4-.4.9 0 1.9-.1 2.9-.1s2 .1 3 .2 2.1.1 3.2 0 2.2-.2 3.3-.2c1.1 0 2.2.1 3.4.2 1.2.1 2.3.1 3.5.2 2.4.1 4.8.1 7.3-.2.6 0 1.2-.1 1.9 0 .6.1 1.3.2 1.9.2.6.1 1.3 0 1.9-.1.6-.1 1.3 0 1.9 0 2.6 0 5.2.1 7.9.2h4c1.3 0 2.7 0 4.1.2 1.4.2 2.7.3 4.1 0 1.4-.2 2.7-.1 4.1 0 1.4.1 2.7.3 4.1.3 1.4 0 2.8-.1 4.1-.1 2.8-.1 5.5 0 8.3 0 1.4 0 2.7.1 4.1.1 1.4 0 2.7-.1 4.1-.2 2.7-.2 5.4-.3 8.1-.5 1.3 0 2.7-.1 4-.1h2c.7.1 1.3.1 1.9.2 2.6.2 5.1-.1 7.6-.2.6-.1 1.2-.1 1.9-.1.6 0 1.2-.1 1.8 0 .6 0 1.2.1 1.8.1h1.8c2.4-.1 4.7-.3 6.9.1s4.4-.2 6.5.1c2.1.4 4.1-.4 5.9-.1 1.9.2 3.7.3 5.4.3 1.7-.1 3.3-.3 4.7-.1 1.5.1 2.8.2 4 .1 1.2-.1 2.3-.2 3.2-.3.9 0 1.7-.1 2.4-.1h2v2.4h-4.4c-.9 0-2-.1-3.2-.2-1.2-.1-2.5 0-4 .2-.7.1-1.5.1-2.3.1-.8 0-1.6-.1-2.4-.2-1.7 0-3.5.2-5.4.4-.9.1-1.9.1-2.9-.1-1-.3-2-.3-3-.1-2.1.4-4.2-.4-6.5-.1-2.2.4-4.5.2-6.9 0-1.2-.1-2.4 0-3.6.1h-1.8c-.6 0-1.2 0-1.9-.1-2.5-.1-5-.4-7.6-.1-.6.1-1.3.2-1.9.2-.7 0-1.3.1-2 .1h-4c-1.3 0-2.7-.1-4-.1-1.3 0-2.7-.1-4.1-.3-1.4-.2-2.7-.3-4.1-.2-1.4.1-2.7.3-4.1.3-2.7.1-5.5.3-8.3.2-1.4-.1-2.8-.3-4.1-.3-1.4-.1-2.8.2-4.1.4-.7.1-1.4.2-2.1.2-.7.1-1.4 0-2.1-.2-1.4-.5-2.7-.4-4.1 0-.7.2-1.4.2-2 .3-.7.1-1.4 0-2 0-1.3-.1-2.7-.1-4-.2-2.7 0-5.3 0-7.9-.1-.6 0-1.3 0-1.9-.1-.6-.2-1.3-.3-1.9-.2-.6 0-1.3.2-1.9.2h-1.9c-2.5-.3-4.9-.3-7.3-.4-2.4 0-4.7 0-6.9.1-1.1 0-2.2-.1-3.3-.1-1.1 0-2.1 0-3.2.1-4.1.5-7.9 0-11.3-.1-.8 0-1.7-.1-2.4 0-.8 0-1.5.1-2.3.2-.7.1-1.4.1-2.1.1-.7 0-1.3-.1-1.9-.1-1.2 0-2.3.1-3.2.1-.9.1-1.7.1-2.4.1-1.3 0-2 .1-2 .1V938zM775.7 838.3s33.5-.1 83.7-.2H879c6.8 0 13.8.1 21 .1 7.2 0 14.6.1 22.1.1 7.6 0 15.3.3 23.1.2 15.7 0 31.9.1 48.4.1 8.2.1 16.5.1 24.9.2 8.3 0 16.7.1 25.1.1 33.5-.1 67-.2 98.3-.3 15.7-.1 30.9-.1 45.3-.2 14.4-.1 28 0 40.5.1 12.6.1 24.1.2 34.3.1 10.2 0 19.1-.1 26.4-.1 14.6-.1 23-.1 23-.1v2.4s-8.4 0-23 .1c-14.6 0-35.6.2-60.7.1-12.6-.1-26.2-.2-40.5-.2h-45.3c-31.4 0-64.9.1-98.3.1-16.7.1-33.5.2-50 .2s-32.7-.2-48.4-.4c-7.8-.2-15.6.1-23.1 0-7.6-.1-14.9-.1-22.1-.2-7.2 0-14.2-.1-21-.1-6.8.1-13.3.1-19.6.2-3.1 0-6.2.1-9.2.1h-74.4v-2.4zM420.4 838.3s4.9 0 13.5-.1c4.3 0 9.5-.1 15.5-.1s12.7-.1 20.1-.1H481c4 0 8.1.1 12.3.1 4.2 0 8.5.1 13 .1 4.4 0 8.9.3 13.5.2 9.2 0 18.7 0 28.3.1 4.8.1 9.7.1 14.6.2 4.9 0 9.8.1 14.7.1 9.8 0 19.6-.1 29.2-.2 9.6-.1 19.1-.1 28.3-.2s18.1-.1 26.5-.2c8.4-.1 16.4 0 23.7.1 7.4.1 14.1.2 20.1.1 6 0 11.2-.1 15.5-.1 8.6-.1 13.5-.1 13.5-.1v2.4s-4.9 0-13.5.1c-8.6 0-20.8.2-35.5.1-7.4-.1-15.3-.2-23.7-.2H635c-18.4 0-38 .1-57.6.1-9.8.1-19.6.2-29.2.2-9.6 0-19.1-.2-28.3-.4-4.6-.2-9.1.1-13.5 0s-8.7-.1-13-.2c-4.2 0-8.3-.1-12.3-.1-4 .1-7.8.1-11.5.2-1.8 0-3.6.1-5.4.1h-43.7v-2.2z"/><path class="st6" d="M925.1 313.1v3.4c0 1.1 0 2.5-.1 4.1-.1 1.6-.1 3.5-.1 5.6 0 1 .1 2.1.2 3.3 0 1.2 0 2.4-.1 3.6-.1 1.3-.2 2.6-.2 3.9 0 1.4 0 2.8.1 4.2.1 2.9.2 6 .3 9.2 0 1.6.1 3.3.1 5 0 1.7-.1 3.5-.2 5.2-.1 1.8-.1 3.6 0 5.5s.2 3.7.2 5.7c-.1 3.8-.2 7.8-.4 11.9-.1 4.1-.2 8.3.1 12.6 0 1.1.1 2.2 0 3.2l-.3 3.3c-.1 1.1 0 2.2.1 3.3.1 1.1 0 2.2 0 3.3-.1 4.5-.1 9-.2 13.6v10.4c0 1.2-.1 2.3-.2 3.5-.2 2.3-.3 4.7-.1 7.1.2 2.4.1 4.7-.1 7.1-.1 2.4-.3 4.7-.3 7.1 0 2.4 0 4.8.1 7.1.1 4.8 0 9.5 0 14.3 0 2.4-.1 4.7-.1 7.1-.1 2.4.1 4.7.1 7.1.2 4.7.3 9.3.4 13.9 0 2.3.1 4.6.1 6.8v3.4c-.1 1.1-.1 2.2-.2 3.4-.2 4.5.1 8.9.2 13.1 0 2.1.2 4.3.1 6.4-.1 2.1-.3 4.2-.1 6.2 0 2 .1 4.1.1 6 0 2-.1 3.9-.3 5.9-.4 3.8.2 7.6-.2 11.1-.4 3.6.4 7 .1 10.2-.2 3.3-.3 6.3-.3 9.2 0 1.5.1 2.9.1 4.2v3.9c-.1 2.5-.2 4.8-.1 6.9.1 2.1.2 3.9.3 5.6 0 1.6 0 3 .1 4.1v3.4h-2.4v-.9-2.5-4.1c0-1.6.1-3.5.2-5.6.1-2.1 0-4.4-.2-6.9s0-5.2.1-8.1c0-2.9-.1-6-.3-9.2-.1-1.6-.1-3.3.1-5 .3-1.7.3-3.5.1-5.2-.4-3.6.5-7.3.1-11.1s-.1-7.8 0-11.9c.1-2 0-4.1-.1-6.2 0-2.1.1-4.2.1-6.4.1-4.3.4-8.7.1-13.1-.1-1.1-.2-2.2-.2-3.4 0-1.1-.1-2.3-.1-3.4v-6.8c0-2.3.1-4.6.2-6.9.1-2.3.1-4.7.3-7 .2-2.3.3-4.7.2-7.1-.1-2.4-.2-4.7-.3-7.1-.1-4.7-.2-9.5-.1-14.3.1-2.4.3-4.8.3-7.1 0-1.2-.1-2.4-.1-3.6l-.3-3.6c-.1-1.2-.2-2.4-.2-3.6-.1-1.2 0-2.4.2-3.5.5-2.4.4-4.7.1-7.1-.1-1.2-.2-2.3-.3-3.5-.1-1.2 0-2.3 0-3.5.1-2.3.1-4.6.2-6.9 0-4.6.1-9.1.1-13.6 0-1.1 0-2.2.1-3.3.2-1.1.3-2.2.2-3.3 0-1.1-.1-2.2-.2-3.3v-3.2c.3-4.3.3-8.5.4-12.6v-11.9c0-1.9 0-3.8.1-5.7 0-1.9 0-3.7-.1-5.5-.5-7.1 0-13.7.1-19.5 0-1.5.1-2.9.1-4.2 0-1.4-.1-2.7-.2-3.9-.1-1.3-.1-2.5-.1-3.6s.1-2.2.1-3.3c0-2.1-.1-3.9-.1-5.6 0-1.6 0-3-.1-4.1v-3.4l2.7.2z"/><path class="st2" d="M940.4 719c-4.9-3.5-9.4-8.4-13.3-14.1-8.1-11.8-14-26.6-19.9-41.2-1.2-2.3 1.6-4.5 3.4-4.4 59.8 3.1 150 3.3 209.8-5 27.9-3.9 55.9-1.9 83.8 0 4.1.3 8.4.7 11.6 4.7-5.9 11.7-16 16.4-25.5 17.2-9.5.9-19.1-1.3-28.7-.1-29.8 4-54.2 27.1-85 23.2-17.2-2.2-64.2-6.2-80.6 2.3-13.3 7-25.2 22-39.2 22.9-5.6.3-11.2-1.8-16.4-5.5z"/><path class="st0" d="M1215.5 654.7l-.2-29.7 1.4 1.4-20.1.1h-20.1l-20.1-.1-10-.1c-3.3-.1-6.7-.2-10-.2h-40.2l-20.1-.1c-6.7 0-13.4-.1-20.1 0l-80.2.7-20.1.2c-6.7.1-13.4 0-20.1 0l-20.1-.1h-20l1-1 .2 29.1c0 .7-.5 1.2-1.2 1.2s-1.2-.5-1.2-1.2l-.1-29.1c0-.7.6-1.3 1.3-1.3h30.1l10 .1c6.7 0 13.4.1 20.1.1l20-.1 80.2-.3 40.1-.4c6.7-.1 13.4 0 20.1.1l20.1.3c3.3 0 6.7-.1 10-.1l10 .1 20.1.2c6.7 0 13.4-.1 20.1-.2l20.1-.1c.6 0 1.1.5 1.1 1.1l.1 29.7c0 .7-.5 1.2-1.2 1.2-.5-.3-1-.9-1-1.5z"/><path class="st6" d="M922.8 287.7h3c1 0 2.2 0 3.7.1 1.4.1 3.1.1 4.9.1.9 0 1.9-.1 2.9-.2 1 0 2.1 0 3.2.1s2.3.2 3.5.2c1.2 0 2.5 0 3.7-.1 2.6-.1 5.3-.2 8.2-.4 1.4 0 2.9-.1 4.4-.1 1.5 0 3.1.1 4.7.2s3.2.1 4.9 0c1.7-.1 3.3-.2 5-.2 3.4.1 7 .2 10.6.4 3.6.1 7.4.1 11.2-.2 1 0 1.9-.1 2.9 0s1.9.2 2.9.2c1 .1 2 0 2.9-.1 1-.1 2 0 3 0 4 0 8 .1 12.1.2h9.3c1 0 2.1.1 3.1.2 2.1.2 4.2.3 6.3 0 2.1-.2 4.2-.1 6.3 0 2.1.1 4.2.3 6.3.3 2.1 0 4.2 0 6.3-.1 4.2-.1 8.5 0 12.7 0 2.1 0 4.2.1 6.3.1 2.1.1 4.2-.1 6.3-.2 4.2-.2 8.3-.3 12.4-.5 2 0 4.1-.1 6.1-.1h3c1 .1 2 .1 3 .2 4 .2 7.9-.1 11.7-.2 1.9 0 3.8-.2 5.7-.2 1.9.1 3.7.2 5.5.1 1.8 0 3.6-.1 5.4-.1 1.8-.1 3.5.1 5.2.3 3.4.3 6.7-.2 9.9.1 3.2.4 6.2-.4 9.1-.1 2.9.2 5.6.3 8.2.3 1.3 0 2.5-.1 3.7-.1h3.5c2.2.1 4.3.2 6.1.1 1.9-.1 3.5-.2 4.9-.3 1.4 0 2.7-.1 3.7-.1H1193.6v2.4h-6.8c-1.4 0-3.1-.1-4.9-.2-1.9-.1-3.9 0-6.1.2-2.2.2-4.6 0-7.2-.1-2.6 0-5.3.2-8.2.4-1.4.1-2.9.1-4.4-.1-1.5-.3-3.1-.3-4.7-.1-3.2.4-6.5-.4-9.9-.1-3.4.4-7 .2-10.6 0-1.8-.1-3.7 0-5.5.1-1.9 0-3.8-.1-5.7-.1-3.8-.1-7.7-.4-11.7 0-1 .1-2 .2-3 .2s-2 .1-3 .1h-6.1c-2 0-4.1-.1-6.2-.1-2.1 0-4.1-.1-6.2-.3-2.1-.2-4.2-.3-6.3-.2l-6.3.3c-4.2.1-8.4.3-12.7.2-2.1-.1-4.2-.3-6.3-.3-1.1 0-2.1.1-3.2.1l-3.2.3c-1.1.1-2.1.2-3.2.2-1.1.1-2.1 0-3.2-.2-2.1-.4-4.2-.4-6.3 0-1 .2-2.1.2-3.1.3-1 .1-2.1 0-3.1 0-2.1-.1-4.1-.1-6.2-.2-4.1 0-8.1-.1-12.1-.1-1 0-2 0-3-.1-1-.2-2-.3-2.9-.2-1 0-1.9.2-2.9.2h-2.9c-3.8-.3-7.6-.3-11.2-.4-3.6 0-7.2 0-10.6.1-1.7 0-3.4 0-5-.1-1.7 0-3.3 0-4.9.1-6.3.5-12.2 0-17.3 0-1.3 0-2.5-.1-3.7-.1-1.2 0-2.4.1-3.5.2s-2.2.1-3.2.1-2-.1-2.9-.1c-1.9 0-3.5.1-4.9.1-1.4.1-2.7.1-3.7.1-2 0-3 .1-3 .1v-2.6z"/><path class="st0" d="M947.5 309.8c1.5-1 205.1.2 228.4-.1.7 12.1-3.1 23.5-2.9 35.6.5 21.6 4.7 41.8 1.3 63.5-4.1 26.1-17.4 52.1-40.4 65.1-10.8 6.1-23.4 9.2-33.3 16.8-14.4 11-20.5 29.4-26.3 46.6-10 29.4-25.9 81.7-59.6 88.9-28.2 6.1-44.6.1-73.8.1.1 0 6.5-313.3 6.6-316.5z"/><path class="st66" d="M1388 875.7V317.6h242v558.1M1666.7 731.1V311.9h239.4"/><path class="st0" d="M1689.6 724.5l-.1-49.2-.1-49.2c0-16.4.1-32.8.1-49.2v-18.4l.1-6.1c.2-8.2.1-16.4.1-24.6v-24.6c0-8.2 0-16.4.1-24.6l.3-49.2c.1-8.2 0-16.4 0-24.6l-.1-24.6-.2-49.2c0-.5.4-.9.9-.9h24.8l24.8.2 24.8.3 24.8.4 12.4.2 12.4.1c4.1 0 8.3.1 12.4 0l12.4-.1 12.4-.2 12.4-.3 12.4-.4 12.4-.6c.7 0 1.2.5 1.3 1.1 0 .7-.5 1.2-1.1 1.3l-12.4.6-12.4.4-12.4.3-12.4.2-12.4.1h-12.4l-12.4-.1-12.4-.2-24.8-.5-24.8-.4-24.8-.3c-8.3-.1-16.6-.1-24.8-.1l1.2-1.2.1 98.3.2 49.2v12.3l-.1 12.3-.2 24.6c-.1 8.2-.3 16.4-.1 24.6l.1 6.1v6.1l-.1 12.3-.1 24.6c-.1 8.2 0 16.4.1 24.6.1 8.2.2 16.4.2 24.6v24.6l.1 49.2c0 .7-.5 1.2-1.2 1.2s-1.5-.4-1.5-1zM1420.2 345h177.6v442.2h-177.6z"/><path class="st67" d="M1910.4 294.4c-66.8-5.2-101.8 77-158.7 99.6-62.3 24.7-123.6-30.8-184.3 3.1-20.3 11.3-37.6 27.1-56 41.3-22.6 17.5-47.6 32.9-75.6 38.5s-59.5-.3-79.5-20.6c-19.7-19.9-25.3-49.7-26.6-77.7s.5-56.7-7.9-83.4"/><path class="st68" d="M1609.8 569.5h10V670h-10z"/><path class="st1" d="M1719 292.2h-288.2"/><path class="st66" d="M1348.5 50.7v696.4"/><path class="st69" d="M1391.6 292.3h-75.5v-52.6l22.3-126H1722"/><path class="st6" d="M1882.2 240.9h-6c-3.9 0-9.7-.1-17.1-.2-3.7.1-7.7.3-12.2.1-2.2 0-4.5-.2-6.9-.2-2.4 0-4.9.1-7.4.1-5.1.1-10.6.2-16.3.3-2.9 0-5.8.1-8.8.1-3 0-6.1-.1-9.3-.2-6.3-.3-12.9.2-19.7.2-6.8-.1-13.8-.2-21-.4-7.2 0-14.6-.1-22.2.2-1.9 0-3.8.1-5.7 0-1.9-.1-3.8-.2-5.8-.2-1.9-.1-3.9 0-5.8.1-2 .1-3.9 0-5.9 0-7.9-.1-15.9-.1-24-.2h-18.4c-2.1 0-4.1-.1-6.2-.2-4.1-.2-8.3-.3-12.5 0-4.2.2-8.3 0-12.5 0-4.2-.1-8.4-.2-12.6-.2-4.2 0-8.4.1-12.6.1-8.4.1-16.8 0-25.2 0-4.2 0-8.4-.1-12.5-.1-4.2-.1-8.3.1-12.5.2-8.3.2-16.5.3-24.6.5-4.1 0-8.1.1-12.1.1h-6c-2-.1-4-.1-5.9-.2-15.8-.2-31 .7-45.4.2-7.2.1-14.2.3-21-.1-6.8-.4-13.4.2-19.7-.2-6.3-.4-12.3.4-18.1.1-5.7-.2-11.2-.2-16.3-.2-2.6 0-5 .1-7.4.1h-3.5c-1.2 0-2.3 0-3.4-.1-4.4-.1-8.5-.2-12.2-.1-3.7.1-7 .2-9.8.2-2.9 0-5.3.1-7.3.1h-6v-2.4h13.3c2.9.1 6.1.1 9.8.2 3.7.1 7.7 0 12.2-.2 1.1 0 2.2 0 3.4-.1h3.5c2.4 0 4.9.1 7.4.1 5.1 0 10.6-.2 16.3-.4 2.9-.1 5.8-.1 8.8.1 3 .3 6.1.3 9.3.1 6.3-.4 12.9.4 19.7.1 6.8-.4 13.8-.1 21 0 3.6.1 7.3 0 11-.1 1.9-.1 3.7 0 5.6 0 1.9 0 3.8.1 5.7.1 3.8 0 7.6.1 11.5.1 1.9 0 3.9.1 5.8 0 2 0 3.9 0 5.9-.1 2-.1 3.9-.2 5.9-.2 2 0 4-.1 6-.1h12.1c8.1.1 16.3.1 24.6.5 4.1.2 8.3.3 12.5.2l12.5-.3c8.4-.1 16.8-.3 25.2-.2 4.2.1 8.4.3 12.6.3 2.1 0 4.2-.1 6.3-.1l6.3-.3c2.1-.1 4.2-.2 6.3-.2 2.1-.1 4.2 0 6.3.2 4.2.5 8.3.4 12.5 0 4.1-.3 8.3-.4 12.4-.3 4.1.1 8.2.1 12.2.2 8.1 0 16.1.1 24 .1 2 0 3.9 0 5.9.1 2 .2 3.9.3 5.8.2 1.9 0 3.9-.2 5.8-.2 1.9-.1 3.8 0 5.7.1 7.6.3 15 .3 22.2.3 7.2 0 14.2 0 21-.1 3.4 0 6.7 0 10 .1h4.9c1.6 0 3.2-.1 4.8-.1 3.2-.1 6.2-.2 9.3-.2 3 0 6 .1 8.8.1 5.7.1 11.2.1 16.3.2 2.6 0 5 .1 7.4.1 2.4 0 4.7-.1 6.9-.2 4.4-.2 8.5 0 12.2 0 7.4-.1 13.1-.2 17.1-.2 3.9 0 6-.1 6-.1v2.7z"/><path class="st0" d="M1896.5 743.4l-30.2.2c-5 0-10.1.1-15.1 0-5 0-10.1 0-15.1-.1l-15.1-.1c-2.5 0-5-.2-7.5-.2h-22.6c-5 0-10.1-.1-15.1-.2l-15.1-.2c-5 0-10.1.1-15.1.1l-30.2.2-30.2.3h-7.5c-2.5 0-5 0-7.5-.1l-15.1-.2 1-1 .2 34c0 .7-.5 1.2-1.2 1.2s-1.2-.5-1.2-1.2l-.2-34c0-.8.6-1.4 1.4-1.4 5 0 10.1-.1 15.1.1 5 .1 10.1.2 15.1.2h75.5l15.1-.2c5 0 10.1-.1 15.1-.1l15.1.3 7.5.2c2.5 0 5-.1 7.5-.1l15.1.2 7.5.1c2.5 0 5-.1 7.5-.1l7.5-.2h7.5l30.2-.1c.7 0 1.2.5 1.2 1.2.1.7-.4 1.2-1.1 1.2z"/><path class="st2" d="M1685.8 808.1c-4.4-2-8.6-4.9-12.1-8.2-7.4-6.9-12.8-15.5-18.2-24.1-1.1-1.3 1.4-2.6 3.1-2.6 54.6 1.8 110.3 1.9 164.9-2.9 25.4-2.3 51-1.1 76.5 0 3.7.2 7.7.4 10.6 2.7-5.4 6.9-14.6 9.6-23.3 10.1-8.7.5-17.5-.8-26.2 0-27.2 2.3-49.5 15.8-77.6 13.5-15.7-1.3-32-3.6-46.9 1.4-12.2 4.1-23 12.9-35.8 13.4-5.1.1-10.2-1.2-15-3.3z"/><path class="st1" d="M1910.4 292.2h-167.6"/><path class="st0" d="M1227.6 75.4l13.7-.2c4.6-.1 9.2-.1 13.7-.1 2.3 0 4.6 0 6.9.1l6.9.1c1.1 0 2.3 0 3.4.1s2.3.1 3.4.1h6.9c.6 0 1 .5 1 1V82c0 1.8-.1 3.7-.1 5.5-.1 3.7-.2 7.4-.2 11 0 .3-.3.6-.6.6h-6.8l-6.9.1-13.7.2-13.7.2-3.4.1h-3.4c-2.3 0-4.6-.1-6.9-.1-.6 0-1-.5-1-1v-2.8V93l-.1-5.5-.1-11c-.2-.5.3-1 1-1.1zm1.2 2.4l.1 9.8.1 5.5v5.5l-1.4-1.4c2.3 0 4.6.1 6.9.2l3.4.1H1282.5l-1.3 1.3c-.1-3.7-.2-7.4-.2-11V85v-2.8l.1-2.8c0-.9.1-1.8.1-2.8l1.4 1.4-6.9-.3c-1.1-.1-2.3-.1-3.4 0h-3.4l-6.9-.2-3.4-.1h-3.4l-3.4.1c-1.1 0-2.3.1-3.4.1h-6.9l-12.7.2zM1324.7 123.4l-19.4.2-9.7.1h-9.7l-9.7-.1-4.9-.1h-2.4l-2.4-.1c-1.6-.1-3.2-.1-4.9-.1H1247c-.5 0-1-.4-1-1 0-1.8.1-3.7.1-5.5l.1-5.5.2-11c0-.3.3-.6.6-.6h9.8l9.7-.1 19.4-.2 19.4-.2c3.2 0 6.5 0 9.7.1 3.2.1 6.5.1 9.7.1.5 0 1 .4 1 1l.2 22.1c0 .4-.6.9-1.2.9zm-1.2-2.4l-.2-20.9 1.4 1.4h-9.7l-9.7-.2H1247l1.3-1.3.2 11 .1 5.5c0 1.8.1 3.7 0 5.5l-1.5-1.5c1.6 0 3.2 0 4.9.1l4.9.2 4.9.2c1.6 0 3.2.1 4.9 0l2.4-.1 2.4.1 4.9.1 9.7.2c1.6 0 3.2 0 4.9-.1l4.9-.2c1.6-.1 3.2-.1 4.9-.1h4.9l17.8.1z"/><path class="st0" d="M1285.9 146.9l-19.4.2-9.7.1h-9.7l-9.7-.1-4.9-.1h-2.4l-2.4-.1c-1.6-.1-3.2-.1-4.9-.1h-14.6c-.5 0-1-.4-1-1 0-1.8.1-3.7.1-5.5l.1-5.5.2-11c0-.3.3-.6.6-.6h9.8l9.7-.1 19.4-.2 19.4-.2c3.2 0 6.5 0 9.7.1 3.2.1 6.5.1 9.7.1.5 0 1 .4 1 1l.2 22.1c0 .4-.6.9-1.2.9zm-1.3-2.4l-.2-20.9 1.4 1.4h-9.7l-9.7-.2h-58.3l1.3-1.3.2 11 .1 5.5c0 1.8.1 3.7 0 5.5l-1.5-1.5c1.6 0 3.2 0 4.9.1l4.9.2 4.9.2c1.6 0 3.2.1 4.9 0l2.4-.1 2.4.1 4.9.1 9.7.2c1.6 0 3.2 0 4.9-.1l4.9-.2c1.6-.1 3.2-.1 4.9-.1h4.9l17.8.1zM901.3 365.9l-18.6.2-9.3.1h-9.3l-9.3-.1-4.6-.1c-1.5 0-3.1 0-4.6-.1-1.5-.1-3.1-.1-4.6-.1h-13.9c-.5 0-1-.4-1-1 0-1.8 0-3.7.1-5.5l.1-5.5c.1-3.7.1-7.4.2-11 0-.3.3-.6.6-.6h9.2l9.3-.1 18.6-.2 18.6-.2h4.6c1.5 0 3.1.1 4.6.1 3.1.1 6.2.1 9.3.1.5 0 1 .4 1 1v5.5l.1 5.5.1 11c0 .4-.5 1-1.2 1zm-1.2-2.4l-.2-20.9 1.4 1.4c-3.1 0-6.2.1-9.3 0l-9.3-.2H827l1.3-1.3.2 11 .1 5.5c0 1.8.1 3.7 0 5.5l-1.5-1.5c3.1 0 6.2.2 9.3.3l4.6.2c1.5.1 3.1.1 4.6 0 1.5-.1 3.1 0 4.6 0l4.6.1 9.3.2c3.1 0 6.2-.2 9.3-.2 1.5-.1 3.1 0 4.6-.1h22.1zM784.9 317.9l19.4-.2 9.7-.1h9.7l9.7.1 4.9.1h2.4l2.4.1c1.6.1 3.2.1 4.9.1h14.6c.5 0 1 .4 1 1 0 1.8-.1 3.7-.1 5.5l-.1 5.5-.2 11c0 .3-.3.6-.6.6h-9.8l-9.7.1-19.4.2-19.4.2c-3.2 0-6.5 0-9.7-.1-3.2-.1-6.5-.1-9.7-.1-.5 0-1-.4-1-1l-.2-22.1c-.1-.4.5-.9 1.2-.9zm1.2 2.4l.2 20.9-1.4-1.4h9.7l9.7.2h58.3l-1.3 1.3-.2-11-.1-5.5c0-1.8-.1-3.7 0-5.5l1.5 1.5c-1.6 0-3.2 0-4.9-.1l-4.9-.2-4.9-.2c-1.6 0-3.2-.1-4.9 0l-2.4.1-2.4-.1-4.9-.1-9.7-.2c-1.6 0-3.2 0-4.9.1l-4.9.2c-1.6.1-3.2.1-4.9.1h-4.9l-17.8-.1z"/><g><path class="st0" d="M823.7 294.4l19.4-.2 9.7-.1h9.7l9.7.1 4.9.1h2.4l2.4.1c1.6.1 3.2.1 4.9.1h14.6c.5 0 1 .4 1 1 0 1.8-.1 3.7-.1 5.5l-.1 5.5-.2 11c0 .3-.3.6-.6.6h-9.8l-9.7.1-19.4.2-19.4.2c-3.2 0-6.5 0-9.7-.1-3.2-.1-6.5-.1-9.7-.1-.5 0-1-.4-1-1l-.2-22.1c0-.4.5-.9 1.2-.9zm1.2 2.4l.2 20.9-1.4-1.4h9.7l9.7.2h58.3l-1.3 1.3-.2-11-.1-5.5c0-1.8-.1-3.7 0-5.5l1.5 1.5c-1.6 0-3.2 0-4.9-.1l-4.9-.2-4.9-.2c-1.6 0-3.2-.1-4.9 0l-2.4.1-2.4-.1-4.9-.1-9.7-.2c-1.6 0-3.2 0-4.9.1l-4.9.2c-1.6.1-3.2.1-4.9.1h-4.9l-17.8-.1z"/></g><g><path class="st0" d="M1250.1 450.3l19.4-.2 9.7-.1h9.7l9.7.1 4.9.1c1.6 0 3.2 0 4.9.1 1.6.1 3.2.2 4.9.2h14.6c.5 0 1 .4 1 1 0 2.1 0 4.2-.1 6.4l-.1 6.4c-.1 4.2-.1 8.5-.2 12.7 0 .3-.3.6-.6.6h-9.8l-9.7.1-19.4.2-19.4.2h-4.9c-1.6 0-3.2 0-4.9-.1-3.2-.1-6.5-.1-9.7-.2-.5 0-1-.4-1-1v-6.4l-.1-6.4-.1-12.7c0-.4.5-1 1.2-1zm1.2 2.4l.1 11.5c0 4.2.1 8.5.1 12.7l-1.4-1.4h4.9c1.6 0 3.2.1 4.9.1l4.9.1c1.6 0 3.2.1 4.9 0h58.2l-1.3 1.3-.2-12.7-.1-6.4v-6.4l1.5 1.5c-1.6 0-3.2-.1-4.9-.1l-4.9-.1-4.9-.1c-1.6-.1-3.2 0-4.9.1-1.6 0-3.2-.1-4.9-.1l-4.9-.1-4.9-.1c-1.6 0-3.2-.1-4.9-.1-1.6 0-3.2 0-4.9.1l-4.9.1h-9.8l-17.7.1z"/></g><g><path class="st0" d="M1326.5 502.6l-10.6.2c-1.8 0-3.5.1-5.3.1h-5.3l-5.3-.1c-.9 0-1.8 0-2.7-.2-.9-.1-1.8 0-2.7-.1h-8l-2.7-.1h-.1c-.4 0-.8-.4-.8-.8l.1-6.4c.1-2.1.1-4.2.1-6.4v-6.4l-.1-6.4c0-.4.3-.7.7-.7l21.2-.5h2.7c.9 0 1.8.1 2.7.1 1.8.1 3.5.1 5.3.1 3.5-.1 7.1-.1 10.6-.2.7 0 1.2.5 1.2 1.2s-.5 1.2-1.2 1.2h-.1l-10.6.2h-5.4l-2.7-.1c-.9 0-1.8-.1-2.7-.1l-21.2.1 1.2-1.2v12.8l.2 12.7-1.5-1.5h2.7c.9 0 1.8 0 2.7.1 1.8.1 3.5.2 5.3.4.9 0 1.8.1 2.7.1.9-.1 1.8-.1 2.7 0l5.3.2c.9 0 1.8.1 2.7 0 .9 0 1.8-.1 2.7-.1 1.8-.2 3.5-.1 5.3-.2l5.3-.1h5.3c.7 0 1.2.5 1.2 1.2.3.3-.2.8-.9.9z"/></g><g><path class="st3" d="M1643.9 838.3s3.8 0 10.4-.1c3.3 0 7.4-.1 12-.1s9.9-.1 15.5-.1h8.9c3.1 0 6.2.1 9.5.1s6.6.1 10 .1c3.4 0 6.9.3 10.5.2 7.1 0 14.5 0 22 .1 3.7.1 7.5.1 11.3.2 3.8 0 7.6.1 11.4.1 7.6 0 15.2-.1 22.7-.2s14.8-.1 22-.2c7.1-.1 14-.1 20.5-.2s12.7 0 18.4.1c5.7.1 10.9.1 15.5.1s8.7-.1 12-.1c6.6-.1 10.4-.1 10.4-.1v2.4s-3.8 0-10.4.1c-6.6 0-16.1.2-27.5.1-5.7-.1-11.9-.2-18.4-.2h-20.5c-14.2 0-29.4.1-44.6.1-7.6.1-15.2.2-22.7.2-7.5.1-14.8-.3-22-.4-1.8 0-3.5-.1-5.3-.1-1.7 0-3.5.1-5.2.1-3.4-.1-6.8-.1-10-.2-3.3 0-6.4-.1-9.5-.1-3.1 0-6 .1-8.9.2-1.4 0-2.8.1-4.2.1h-33.8v-2.2z"/></g><g><path class="st10" d="M1544.8 1000.9c6.9 8.2 16.1 14 27.4 14.8 1.3.1 2.7 0 3.5-1 .5-.7.5-1.5.5-2.3-.2-5.7-2.6-11.1-5.9-15.7-2.7-3.8-6.5-6.6-9.3-10.3-2.1-2.7-2.9-5.9-5.6-8.2-2.4-1.9-5.5-3.1-7.1-5.7-.9-1.4-1.2-3.1-1.7-4.7-1-3.1-10.9-9.3-14.1-6.2-2.1 2-2.7 3.6-2.2 6.5 1.8 11.4 6.8 23.6 14.5 32.8z"/><path class="st10" d="M1516.4 950.4c-1.2 1.5-1.6 3.7-1.2 5.7.5 2.6 2 4.9 3.6 7 4.5 5.8 9.8 11.1 15.8 15.3 1.6 1.1 3.4 2.2 5.4 2.4 10.1.6 8.2-15 6.9-20.6-.5-2.1-1.2-4.2-2.7-5.8-4.2-4.4-14.1-4.5-19.7-5.5-2.3-.4-4.8-.8-6.8.4-.4.1-.9.6-1.3 1.1z"/><path class="st9" d="M1537.3 991.9c-2.5-4.1-4.4-8.6-5.7-13.1-1.1-4-3.8-6.2-6.7-8.9-2.4-2.3-6.3-5.7-7.5-9-.6-1.8-.7-1.5 1.2-1.5s3.9 1 5.5 1.8c3 1.5 5.8 3.4 8.4 5.5 1.7 1.4 3.3 2.8 3.8 5 1.7 6.3 2.6 8.4 7 13.7 6.2 7.5 12.5 14.3 17.1 23.1 0 1.4-2.1 1.5-3.3 1-8.4-3.1-15.1-9.8-19.8-17.6zM1651.8 995.7c.5 1.5 1.2 2.9 2 4.2.2.4.5.8.9 1.1.7.7 1.8 1 2.7 1.2 2.7.7 5.5.5 8-.7.4-.2.9-.4 1.3-.4 2.1.3-.4 4.4-.8 5.2-5.3 9.3-21.5 6.4-28.2 1.2"/><path class="st12" d="M1587.2 1005.2c.3 3.5.6 6.9.9 10.4.4 5.3 1.9 11-.2 15.9-.2.5-.4 2-.8 2.3-.6.5-1.4.6-2.2.7-2 .2-10.5.4-11.4-2-.7-1.9.9-3.3 1.3-5 .4-1.7 0-3.7-1.1-5l-14.1-19.1M1594.1 1004.3l20.6 18.9c1.7 1.6.7 5-.9 6.6-1.4 1.4-.5 3.7 1.5 3.8 3.4 0 7 .9 10.3 0 3.8-1.1 3.9-5.1 4.6-8.4 1.4-6.2 2.7-12.4 4.1-18.6"/><path class="st11" d="M1558.1 978.5c.2 1.2-1.4 1.8-2.6 2.2-10.2 3.3-6.2 16-3.3 23.2 4.8 11.8 19.8 12.7 31 13.7 23.6 2.1 51.9 4.4 63.4-21.1"/><path class="st10" d="M1609.3 1004.7s25.7 20.4 25.8 20.5c3.6 2.8-1.8 4.1-1.4 7.1.5 3.7 4 2.6 9.9 2.3 6.4-.3 9.1-4.6 8.3-9-.7-4.3-1.6-5.5-2.5-10.1-1.4-7.5-1.8-15.1-3.3-22.6l-1-.1M1579.1 1005.2c.3 3.5.6 6.9.9 10.4.4 5.3 1.9 11-.2 15.9-.2.5-.4 1-.8 1.3-.6.5-1.4.6-2.2.7-2 .2-10.5 1.4-11.4-1-.7-1.9.9-3.3 1.3-5 1.3-6.1-6-13.3-8.7-18.4-3.9-7.5-6.8-15.5-8.7-23.7"/><path class="st9" d="M1634.7 995.8c1.9 1.2 3.8 2.5 5.6 3.8 6.6 4.7-.6 7.2-3.8 10.4-.7.7-1.3 1.8-1.1 2.8.4 2.2 4 3.2 3.7 5.5-.2 1.2-1.5 2.1-1.5 3.3 0 1.5 1.8 2.2 3.3 2.6 1.5.4 3.2 1.6 2.7 3-.1.4-.4.7-.8 1-1.7 1.5-4.3 2-5.6 3.9-.6.8-.1 1.9-1.4 2.2-.9.2-2-.7-2.1-1.5-.3-1.2.4-2.3 1.1-3.3 3-3.6-.8-4.9-3.4-7.1-3.5-2.9-7.2-5.8-10.8-8.5-1.3-.9-2.5-2-2.9-3.6-.4-1.9.2-2.9-1.6-4.4-3.4-2.9-7.7-4.5-12.2-5-5.5-.7-14.7 4-18.7-1.5-8.9-12 26.1-9.7 31.4-9.2 4 .4 8.1 1 11.9 2.4 2.2.9 4.2 2 6.2 3.2z"/><path class="st8" d="M1628.1 949.1c4.8 3.5 9 7.9 12.2 13 3 4.7 5.3 10 7.1 15.3.8 2.3 1.8 4.8 2.3 7.1.5 2.5.2 4.7 2.3 6.6.4.4.8.6 1.2 1 3.8 4-.7 9.1-4.1 11.3-9.3 5.9-22.9 7-33.6 8.1-18.4 1.9-37.5.7-53.3-10-8.6-5.8-22.1-16.6-15.3-28.1 1.1-1.9 3.1-3 4.5-4.6 1.4-1.6 2.5-3.4 4-5 3.5-4 6.7-8.2 10.4-12.1 16.1-17.4 44-16 62.3-2.6z"/><g><path class="st11" d="M1569.2 996.4s-.4-.2-1.1-.4c-.7-.3-1.7-.8-2.9-1.4-1.3-.6-2.6-1.7-4.3-2.8-.8-.6-1.6-1.3-2.4-2.1-.8-.8-1.5-1.8-2.1-2.9-1.3-2.2-2-4.9-1.9-7.8.1-1.4.3-2.9.9-4.4.6-1.4 1.6-2.7 2.8-3.7 1.2-1 2.5-1.8 3.9-2.5.7-.3 1.4-.7 2.2-.9.8-.3 1.6-.5 2.5-.4.9 0 1.7.4 2.4.8s1.3.9 2 1.4c1.2 1 2.5 2 3.7 3.1 2.3 2.2 4.1 5 5 8.2.5 1.6.5 3.2.2 4.8-.3 1.6-1 3.1-2 4.4-.5.6-1.2 1.2-1.9 1.6-.7.4-1.6.7-2.4.7-.9 0-1.7-.3-2.4-.6s-1.3-.7-1.9-1.2c-2.3-1.7-4-3.9-5-6.2-.1-.2-.1-.3-.2-.4-.1-.1-.1-.3-.2-.4-.1-.3-.2-.6-.2-.9-.1-.6-.1-1.2 0-1.9.1-.6.3-1.2.6-1.8.3-.5.9-1 1.4-1.2 1.2-.5 2.3-.1 3.1.3.9.5 1.4 1 1.9 1.6 1 1.2 1.4 2.3 1.6 3.1.2.8.2 1.2.2 1.2l-1.6.1s0-.4-.2-1-.5-1.6-1.3-2.5c-.2-.2-.4-.5-.7-.7-.2-.2-.5-.4-.8-.6-.6-.3-1.3-.5-1.8-.2-1.1.5-1.2 2.7-.4 4.6.8 2 2.3 4.1 4.3 5.6.5.4 1.1.7 1.6 1 .5.3 1.1.5 1.7.6.6 0 1.2-.1 1.7-.4.6-.3 1-.7 1.5-1.3.9-1 1.4-2.3 1.7-3.7.3-1.4.1-2.8 0-4.3 0-.4-.1-.7-.2-1.1-.1-.3-.2-.7-.4-1-.3-.7-.7-1.3-1.1-1.9-.9-1.2-1.9-2.3-3-3.4l-1.6-1.6c-.6-.5-1.2-1-1.8-1.4-1.3-.9-2.5-1.8-3.7-1.9-.6-.1-1.3.1-1.9.3-.6.3-1.3.6-1.9 1-.6.4-1.3.8-1.9 1.1-.6.4-1.2.8-1.7 1.2-1.1.8-1.8 2-2.4 3.2-.6 1.2-.9 2.5-1 3.8-.1 2.6.7 5.1 1.9 7 .6 1 1.3 1.8 2 2.6s1.4 1.5 2.1 2.1c1.4 1.3 2.9 1.9 4.1 2.6 1.2.6 2.2 1.1 2.8 1.3.7.3 1 .4 1 .4l-.5 1.2zM1589.2 973.7c-.9-.1-1.8-.3-2.6-.5-.4-.1-.9-.2-1.3-.3-.4-.1-.8-.3-1.3-.4-.9-.2-1.7-.5-2.6-.9-.8-.4-1.6-1-2.3-1.6-.7-.7-1.3-1.4-1.7-2.3-.5-.8-.9-1.7-1.1-2.6-.2-.9-.4-1.9-.3-2.9.1-1 .5-2 1-2.7.6-.9 1.4-1.5 2.3-1.9.9-.4 1.8-.7 2.7-.7.9-.1 1.8 0 2.7.1.9.2 1.8.3 2.6.6.9.2 1.7.6 2.5 1l2.4 1.2c.4.2.8.3 1.2.5.4.2.8.4 1.1.7.7.5 1.5 1 2.2 1.5l.2.2v.3c.2 1-.1 2.1-.7 3-.5.9-1.4 1.5-2.3 1.9-.1 0-.2.1-.4.1l-.3.1c-.3.1-.5.1-.7.1-.5.1-1 .1-1.4 0-.9 0-1.8-.1-2.7-.3l-1.3-.2c-.4-.1-.9-.2-1.4-.4-.5-.2-.9-.4-1.3-.7-.4-.3-.8-.7-1-1.1-.3-.4-.5-.9-.6-1.5 0-.3-.1-.6 0-.9 0-.1 0-.1.1-.3v-.2c.1-.2.2-.4.3-.5.4-.5 1-.8 1.7-.9.6-.1 1.4.3 1.8.8l-1.3.9c-.1-.1-.2-.2-.4-.2s-.4.1-.5.3l-.1.2c0-.1 0 0 0 0v.4c0 .3.2.6.4.8.1.1.2.3.3.4.1.1.2.2.4.3.3.1.6.3 1 .4.7.2 1.5.4 2.4.5.8.2 1.7.3 2.5.3.4 0 .8 0 1.2-.1.2 0 .4-.1.5-.1l.3-.1.2-.1c.7-.2 1.3-.6 1.7-1.2.4-.6.5-1.3.4-2l.3.5c-.7-.5-1.4-.9-2.1-1.4-.3-.2-.7-.4-1.1-.7-.4-.2-.6-.6-1-.8-.7-.4-1.5-.7-2.3-1-.4-.1-.8-.2-1.2-.4-.4-.1-.8-.2-1.2-.4-.4-.1-.8-.3-1.2-.4-.4-.1-.8-.2-1.2-.2-.8-.1-1.6-.1-2.4 0-.8.1-1.6.2-2.2.6-.3.2-.6.5-.8.7l-.7.7-.3.5c-.1.2-.2.3-.3.5-.2.3-.3.7-.3 1.1 0 .8-.1 1.6.1 2.4.1.8.5 1.6.9 2.3.4.7 1 1.3 1.6 1.8.6.5 1.3 1 2 1.4.7.4 1.4.8 2.2 1.1.4.2.8.2 1.2.3l1.2.3c.8.2 1.7.3 2.5.4l-.2 1.7zM1595.7 997.7s-.3 0-.8.1c-.6 0-1.4.1-2.4-.1-.5-.1-1.1-.2-1.6-.4-.6-.2-1.2-.5-1.8-.7-.7-.3-1.3-.7-2-1.1-.6-.5-1.2-1.1-1.7-1.9-1-1.6-1.5-3.5-1.5-5.5s.3-4 1.4-6c.5-1 1.2-1.9 2.2-2.5.3-.2.4-.3.7-.4.3-.1.5-.2.8-.4.5-.2 1.1-.4 1.6-.5 2.2-.4 4.5.3 6.5 1.2 2 1 3.6 2.6 5.3 3.8.9.7 1.6 1.5 2.2 2.6.3.5.5 1.1.5 1.8 0 .6-.2 1.3-.6 1.9-.1.1-.2.3-.3.4-.1.1-.3.2-.4.3-.3.2-.5.3-.8.5-.5.2-1.1.4-1.6.5-1 .2-2 .3-2.9.3-1 0-1.9-.1-2.8-.2-.9-.1-1.7-.2-2.6-.4-.8-.2-1.7-.6-2.3-1.2-.7-.6-1-1.5-1.1-2.3 0-.4 0-.8.2-1.2.1-.2.2-.4.3-.5l.1-.2.2-.2c.5-.5 1.2-.7 1.7-.9 1.1-.2 1.9-.1 2.4-.1.5.1.8.1.8.1l-.3 1.5s-.3 0-.7-.1c-.5 0-1.2-.1-1.9 0-.4.1-.7.2-1 .4l-.1.1-.1.2s-.1.1-.1.2c-.1.2-.1.3-.1.5.1.9 1 1.5 2.4 1.9 1.4.4 3.1.7 4.9.6.9 0 1.8-.1 2.7-.2.4-.1.9-.2 1.3-.3.2-.1.4-.2.5-.3l.2-.2.2-.2c.4-.6.3-1.3-.1-2.1s-1.1-1.5-1.7-2.2c-1.4-1.6-3.4-2.5-5.1-3.5-.5-.3-.8-.5-1.3-.7-.4-.2-.9-.3-1.4-.4-1-.1-1.9-.2-2.9 0-.5.1-.9.2-1.3.3l-.6.3c-.1.1-.5.3-.5.4-.6.6-1.3 1.2-1.8 2-.6.7-.7 1.7-1 2.6-.2.9-.4 1.8-.4 2.7 0 1.8.6 3.4 1.5 4.6.4.6.9 1.1 1.5 1.5.5.5 1 .9 1.6 1.2 1 .7 2.2.7 3 .9.9.1 1.5 0 2 0 .5-.1.8-.1.8-.1l.1 1.6zM1576.3 997.9s.6.2 1.6.5c.5.1 1.1.5 1.9.6.8.1 1.6.2 2.5.4.9.2 1.9.5 2.9.7.5.1 1.1.2 1.6.3.6.1 1.1.3 1.7.4.6.1 1.2.2 1.7.4.6.2 1.2.2 1.8.3 1.2.1 2.5.4 3.7.4 1.2 0 2.5.3 3.7.1.6-.1 1.2-.1 1.8-.1.6 0 1.2-.1 1.8-.1 1.2-.1 2.3-.3 3.4-.2h1.6c.5-.1 1-.1 1.4-.2.5-.1.9-.1 1.3-.1h1.2c.8-.1 1.4-.2 1.9-.3 1.1-.2 1.7-.3 1.7-.3l.2 1.6s-.6.1-1.7.3c-.5.1-1.2.2-2 .3l-1.2.3c-.4.1-.9.1-1.4.1-.9.1-2 0-3.1.1s-2.2-.2-3.4 0c-1.2.1-2.4.4-3.7.1-1.2-.3-2.5.2-3.8.1-1.3-.3-2.5-.2-3.8-.4-.3-.1-.6-.1-.9-.1h-.9c-.6 0-1.2-.2-1.8-.4-.3-.1-.6-.2-.9-.2-.3 0-.6-.1-.9-.2-.6-.1-1.1-.4-1.6-.5-.5-.1-1-.2-1.6-.3-.5-.1-1-.1-1.5-.2s-.9-.1-1.3-.2-.8-.3-1.2-.4c-.4-.1-.7-.2-1.1-.2-.3 0-.6-.1-.9-.2-1.1-.3-1.7-.5-1.7-.5l1-1.9z"/></g><g><path class="st12" d="M1595.2 1017.8h.3c.2 0 .5 0 .7-.1.5-.1 1.4-.3 2.4-.9l.6-.6c.2-.2.5-.4.8-.7.3-.2.6-.5.8-.8.2-.3.4-.7.6-1 .8-1.5 1.2-3.4 2.1-5.3.2-.5.3-1 .5-1.6.1-.6.2-1.1.3-1.7.3-1.1.7-2.2 1.1-3.4.3-1.2.6-2.4.7-3.7 0-.3.1-.6.2-1l.3-.9c.1-.3.1-.6.1-1 0-.3.1-.7.1-1 .2-1.3.5-2.7.6-4 .1-.7.1-1.4.2-2.1.1-.7.1-1.4.3-2.1.2-.7.3-1.4.2-2.1-.1-.7 0-1.4.1-2.1.1-.7.2-1.4.2-2.1 0-.7-.1-1.4-.1-2.1-.1-.7-.1-1.4-.1-2.1 0-.7-.1-1.4-.1-2.1 0-.7 0-1.4-.1-2.1 0-.7-.2-1.4-.3-2.1-.5-2.8-1.2-5.4-1.4-8.1-.1-1.3-.5-2.6-1-3.8-.2-.6-.4-1.2-.5-1.8-.1-.6-.2-1.2-.4-1.8-.4-1.2-.8-2.3-.9-3.4-.1-1.2-.8-2.1-.9-3.2-.1-1.1-1-1.9-1.1-2.8-.2-.9-.5-1.9-.9-2.6-.4-.7-.9-1.3-1.3-1.9-.4-.6-.9-1-1.4-1-.5-.1-1 0-1.4.1-.4.1-.6.2-.8.4-.3.3-.4.5-.4.5l-1.4-.7s.1-.5.9-1.1c.4-.3.9-.5 1.5-.6.6-.1 1.3 0 2 .3s1.4.7 2.1 1.2c.3.3.6.6.8 1l.6 1.2c.4.8.8 1.7 1.3 2.5.6.8.3 2.1.9 3 .6.9.4 2.2 1 3.2s.8 2.3 1 3.5c.1.6.4 1.2.5 1.8.2.6.3 1.3.4 1.9.1.6.2 1.3.3 2 .1.7.2 1.3.5 2 .2.6.5 1.3.6 2l.3 2.1c.2 1.4.3 2.8.2 4.2 0 .7 0 1.4.1 2.1.1.7.3 1.4.3 2.1.2 1.4.3 2.9.3 4.3 0 .7-.2 1.4-.2 2.2 0 .7.1 1.4.2 2.2.1.4.1.7.1 1.1 0 .4 0 .7-.2 1.1-.3.7-.3 1.4-.2 2.1.2.7.2 1.4 0 2.1l-.3 2.1c-.1 1.4-.4 2.7-.6 4.1-.1.3-.1.7-.2 1-.1.3-.3.6-.3 1 0 .3 0 .7-.1 1 0 .3-.1.6-.2 1-.2.6-.4 1.2-.5 1.9-.2.6-.3 1.2-.5 1.8-.3 1.2-.5 2.4-.8 3.5-.3 1.1-.7 2.2-.9 3.3-.3 2.2-1.5 4-2.5 5.5-.5.7-1 1.4-1.4 2.1-.4.7-1.1 1.1-1.7 1.4-1.1.8-2.1 1.2-2.9 1.4-.4.1-.6.1-.8.1h-.3v-1.9z"/></g><g><path class="st12" d="M1597.4 937.1c.1-1.2.3-2.5.7-3.8.2-.6.4-1.2.6-1.9.1-.3.3-.6.5-.9.2-.3.4-.5.7-.8.5-.5 1.1-.9 1.7-1.2.6-.4 1.3-.6 2.1-.7.3 0 .8 0 1.1.1.4.1.7.2 1.1.4.7.3 1.3.9 1.7 1.6.4.7.6 1.7.3 2.4-.3.8-.7 1.4-1.1 2-.4.5-.8 1-1.3 1.5s-1 .9-1.6 1.2c-.6.3-1.1.7-1.7.9-.6.3-1.2.5-1.8.7-.6.2-1.2.4-1.9.6l-1.9.4-.6.1-.3-.8c-.3-.7-.5-1.4-.7-2.2-.2-.8-1-1.2-1.5-1.8-1.1-1.1-2.5-1.9-4-2.2-.7-.1-1.5-.1-1.8.3l-.1.1-.1.1s0 .1-.1.1c-.1.1-.1.2-.1.4 0 .3 0 .6.1 1 .1.8.6 1.5 1.2 2 .6.6 1.1 1.2 1.6 1.8.5.6 1.2 1.1 1.9 1.4l1.2.3c.4.1.8.2 1.2.2 1.6.3 3.3.4 5 .5 1.7.1 3.4.3 5.1.3 1.7 0 3.4.2 5.1.8.4.2.8.3 1.2.5l1.2.7c.7.6 1.4 1.2 1.9 2 .6.7.9 1.5 1.4 2.3.4.8.8 1.6 1.1 2.4.2.4.3.8.4 1.2.1.4.2.8.3 1.3.1.9.2 1.7.4 2.5s.4 1.6.5 2.5c.1.8.1 1.7.3 2.5.2.8.5 1.6.7 2.3.1.4.2.8.4 1.2l.3.6.4.5c.5.6.9 1.3 1.4 1.9.5.6 1.1 1.2 1.8 1.6.7.4 1.4.7 2.2.9.4.1.7.2 1.1.3.4 0 .8.1 1.1 0 1.5-.3 3-1.2 3.2-2.3l1.6.3c-.2 1.1-1.1 1.9-1.9 2.4-.9.5-1.8.7-2.7.7-.9 0-1.9.1-2.8-.1-.9-.2-1.7-.7-2.4-1.3-.8-.5-1.5-1.1-2.1-1.6-.7-.6-1.4-1.2-1.7-2.1-.2-.5-.3-.9-.5-1.3l-.6-1.2c-.4-.8-.4-1.7-.6-2.6-.2-.8-.5-1.6-.7-2.5-.2-.8-.2-1.7-.3-2.5-.1-.8-.2-1.7-.5-2.4-.2-.8-.3-1.6-.6-2.4-.1-.4-.2-.8-.4-1.1-.1-.4-.2-.8-.4-1.1-.4-.7-.8-1.4-1.4-1.9-.5-.6-1.2-1-1.8-1.5l-1-.6c-.3-.2-.7-.3-1-.5-1.4-.6-3-.9-4.6-1.4-1.6-.4-3.3-.1-5-.2-.8 0-1.7 0-2.6-.1l-1.3-.1c-.4-.1-.9-.2-1.3-.3-.4-.1-.8-.3-1.2-.4-.2-.1-.4-.2-.6-.2-.1 0-.2 0-.3-.1l-.3-.1c-.8-.4-1.7-.7-2.5-1.2s-1.4-1.2-1.8-2c-.3-.8-.9-1.5-1.5-2.4-.3-.4-.5-1-.5-1.6 0-.3.1-.7.2-1 .1-.2.2-.4.3-.5l.1-.1.1-.1.1-.1c.5-.5 1.2-.7 1.7-.7.5-.1 1.1 0 1.5.1 1.9.3 3.6 1.2 4.9 2.5.7.6.9 1.6 1.5 2.3.6.7.9 1.6 1 2.5l-.7-.5c.6 0 1.2 0 1.8-.2.6-.1 1.2-.3 1.7-.5 1.1-.4 2.2-1 3.2-1.7.5-.3.9-.7 1.4-1.1.4-.4.9-.8 1.3-1.3.4-.4.6-1 .6-1.4 0-.5-.1-.9-.3-1.3-.2-.4-.6-.8-1-1.1-.2-.1-.4-.3-.7-.3-.3-.1-.4-.1-.8-.1-.5 0-1.1.1-1.5.4-.5.2-.9.6-1.2 1.1-.2.2-.3.5-.5.7l-.4.7c-.3.4-.5 1-.6 1.6-.2 1.2-.3 2.4-.4 3.6l-1.6.1z"/></g><g><path class="st70" d="M1682.9 436.5c-3.4-1.9-8.4-1-12.4.1-5 1.4-11.5 2.1-14.3-2.3-1.8-2.9-1-6.6-1.4-10-.6-4.5-3.6-8.7-7.7-10.6-12.5-5.9-28.2 8.7-40.4 2.2-8.5-4.5-9.4-16.4-7.2-25.8 1.3-5.8 3.4-11.4 6.1-16.7 4.2-8.1 10-15.3 14.3-23.3 4.3-8 7.1-17.4 4.8-26.3-.7-2.8-2.2-5.7-4.9-6.7-3-1.1-6.2.4-8.9 2.1-30.9 19.6-41.3 63.6-32.9 97.7 4.2 16.9 13.8 32.5 27.6 43.2 2.9 2.3 6.1 4.3 8.4 7.2 2.3 2.9 3.6 6.9 2.2 10.3-.9 2.3-3 4.2-3.4 6.6-.5 3 1.7 5.9 4.5 7.2 2.7 1.3 5.9 1.3 8.9 1.4-.3-4.5-.6-9-.9-13.6 21-1.9 46.6-13.4 59.4-30.9 2.2-2.9 2.7-7.3.5-10.2-.8-.6-1.5-1.2-2.3-1.6z"/><path class="st71" d="M1672 325.3c-25.9-14.5-56.3-17.5-76.4 7.1-10 12.2-17.1 27.4-19.5 43-2.7 17.5-.7 36.6 5.6 52.3 3.3 8.2 7.7 17.4 13.5 24.1 6 6.9 21.9 13.4 22.1 23.9.1 3.9-2.5 7.5-5.5 9.6 3.1 5.9 9 10 15.3 7.4-.2-1.1-2.5-12.3-2.5-12.3 17.9-3.1 33.5-7.3 47.8-19.6 28.9-24.8 44.6-68.3 30.9-102M1698 348.8c-4.1-6.4-9.6-12.3-16.5-17.4"/><path class="st72" d="M1575.2 461.5c4.8 41.6-21.7 68.5-51.3 93.4 4 2.6 7.2 6.6 8.7 11.2-6.4 3.2-13.4 5.3-20.6 6.2.8-4.4 1.5-8.8 2.3-13.2-17.4-2.3-31.2-11.8-42.9-24.7-27.3-30-40-83.2-19.1-119.7 8.7-15.2 24-27.3 41.5-28.5 8.6-.6 17.2 1.5 25.4 4.2 32.3 10.7 52.4 39.8 56 71.1z"/><path class="st73" d="M1476.2 318.1c.8 44.3 25.4 70.9 59.2 94.3-2.7 4.4-5.5 8.8-8.2 13.2 6.6 1.1 13.5-.6 18.8-4.7-2.6-2.8-4.3-6.4-5-10.2 17.4 1 34-11.8 44.6-24.6 20.8-25.2 30.3-57.8 19.4-89.3-8.6-25.2-33.2-49.4-60.4-52.2-29.1-3-54 19.5-64.1 45.2-3.1 8.1-4.5 17.9-4.3 28.3z"/><path class="st0" d="M1579.5 275.4s.6.5 1.5 1.4c.2.2.4.5.6.8.1.2.2.3.3.5.1.1.1.2.1.3 0 .1.1.2.1.3.2.3.5.6.7 1 .2.4.3.8.6 1.1.5.6 1.1 1.2 1.7 1.8.3.3.5.6.8.8.3.3.4.6.5.9.1.3.3.5.4.7.2.2.3.4.4.5.2.3.4.5.4.5.3.3.3.8 0 1.1-.3.3-.8.3-1.1 0l-.1-.1-.2-.2s-.1-.2-.3-.4c-.1-.1-.2-.3-.4-.5s-.3-.4-.5-.7c-.1-.3-.2-.6-.5-.9l-.6-.9c-.5-.6-1-1.2-1.5-1.9-.3-.3-.7-.5-.9-.8-.3-.3-.4-.7-.5-1.1 0-.1-.1-.2-.2-.2s-.2-.1-.2-.2c-.1-.2-.2-.3-.3-.5-.2-.3-.4-.6-.7-.7-.3-.2-.4-.4-.6-.5l-.5-.5c-.2-.3-.4-.4-.4-.4-.3-.3-.2-.8.1-1.1.5-.4 1-.4 1.3-.1zM1541.2 255.5h3.2c.7 0 1.4.1 2.2.2.4.1.8.1 1.3.2.4.1.9.2 1.3.3.5.1.9.2 1.4.4.2.1.5.2.7.3.2.1.5.2.7.2 1 .3 2 .6 2.9 1 .5.2 1 .4 1.5.7.5.2 1 .5 1.4.7 1 .4 2 .8 2.9 1.2 1 .4 1.9.8 2.8 1.3.9.4 1.7.9 2.5 1.4.8.5 1.5 1 2.1 1.5 1.2 1.1 2.3 1.8 3 2.5.7.6 1.1 1 1.1 1 .3.3.4.8.1 1.1s-.8.4-1.1.1l-.1-.1s-.4-.3-1.1-.9c-.3-.3-.8-.6-1.3-1s-1.1-.8-1.7-1.3c-.6-.5-1.2-1.1-2-1.5-.8-.5-1.5-1-2.4-1.4-.8-.5-1.7-.9-2.7-1.4-.9-.4-1.9-.9-2.8-1.3-1-.4-2-.6-3-.9-.2-.1-.5-.2-.7-.3-.2-.1-.5-.2-.7-.3-.5-.2-.9-.5-1.4-.6-.2-.1-.5-.2-.7-.2-.2 0-.5-.1-.7-.1-.4-.1-.9-.3-1.3-.4-.4-.1-.9-.2-1.3-.3-.4-.1-.8-.1-1.2-.1-.4 0-.8 0-1.1-.1-.3 0-.7 0-1-.1-.6 0-1.2-.1-1.6-.1h-1.5c-.4 0-.8-.4-.8-.8.3-.6.7-.9 1.1-.9z"/><path class="st12" d="M1596.5 938.5c-1-5.6-2-11.2-2.9-16.8l-1.3-8.4c-.5-2.8-.9-5.6-1.4-8.4-.8-5.6-1.3-11.3-2-17l-.5-4.2-.5-4.3c-.3-2.8-.6-5.7-.8-8.5-.2-2.8-.5-5.7-.7-8.5-.2-2.8-.4-5.7-.4-8.5 0-2.9-.2-5.7-.1-8.6v-8.6c0-2.9 0-5.7.1-8.6.1-2.9.3-5.7.4-8.5l.8-8.5c.3-2.8.7-5.7 1-8.5.8-5.6 1.6-11.3 2.7-16.9l1.5-8.4c.5-2.8 1-5.6 1.7-8.4.6-2.8 1.3-5.5 1.8-8.3.5-2.8 1-5.6 1.6-8.4 1.1-5.6 2.3-11.1 3.3-16.7 2.1-11.2 3.6-22.4 4.4-33.8l.3-4.2.2-4.3c.2-2.8.1-5.7.1-8.5l-.2-8.5c-.1-2.8-.1-5.7-.3-8.5-.4-11.4-2-22.7-3.7-33.9-1.8-11.2-4.1-22.4-6.7-33.4-2.7-11-6.1-21.9-9.5-32.8-.8-2.7-1.7-5.4-2.6-8.1l-2.7-8.1-1.4-4-1.3-4-2.8-8.1c-1.8-5.4-3.8-10.7-5.9-16-2-5.3-4.1-10.6-6.2-15.9-2-5.3-3.9-10.7-6.1-16l-3.1-7.9-1.6-4-1.5-4-2.9-8c-1-2.7-2-5.3-3-8-2.1-5.3-3.8-10.7-5.9-16-1-2.6-2.1-5.3-2.8-8.2-.6-2.8-.9-5.8-.3-8.7l.1-.5c.1-.2.1-.4.2-.5.1-.3.2-.7.4-1 .1-.4.3-.7.5-1 .2-.3.3-.7.5-1 .8-1.3 1.8-2.4 3-3.3 1.2-.9 2.5-1.6 4-2 1.5-.4 3.1-.3 4.5.2l-.4 1.1-4.5-1.4c-1.5-.5-3-.9-4.5-1.4l-9-2.9.3-1.1 3.2.8 3.2.7.9.2-.5.7c-.2.3-.4.5-.7.6-.2.2-.5.2-.7.3-.5.1-.9.2-1.4.3-.9.1-1.8.1-2.6.1H1527.9c-.4 0-.8 0-1.1.1l.4-1.2.7.7.7.6.8.6.8.5.9.4.9.4.9.3.9.2.9.1 1 .1h1l.9-.1.9-.2.9-.2.9-.3.9-.4.7 1.4-1 .5-1 .4-1.1.3-1.1.2-1.1.1h-1.1l-1.1-.1-1.1-.2-1-.2-1-.3-1-.4-1-.5-.9-.6-.9-.6-.8-.7-.7-.8-1-1 1.4-.2c.5-.1 1-.1 1.4-.1h1.3l2.6.1c.8 0 1.7 0 2.5-.1.4 0 .8-.1 1.1-.2.2-.1.4-.1.5-.2.2-.1.2-.1.3-.2l.4 1-3.2-.8-3.2-.7.4-1.3 9.1 2.7c1.5.4 3 1 4.5 1.4l4.5 1.5-.5 1.5c-1.2-.5-2.5-.6-3.8-.3-1.3.3-2.4.9-3.5 1.8-1 .8-1.9 1.9-2.6 3-.2.3-.3.6-.5.9-.2.3-.3.6-.4.9-.1.3-.2.6-.3 1 0 .2-.1.4-.1.5l-.1.5c-.4 2.6-.1 5.4.5 8.1.6 2.7 1.5 5.4 2.4 8.1 1.8 5.4 4.2 10.6 6 16 1 2.7 1.9 5.4 2.9 8l3.2 7.9 1.6 4 1.5 4 3 8c1.9 5.4 4.1 10.6 6.2 15.9l5.9 16c2 5.3 3.8 10.7 5.9 16 2 5.3 4.1 10.7 5.8 16.1.9 2.7 1.8 5.4 2.6 8.1.9 2.7 1.7 5.4 2.5 8.2 1.7 5.4 3.3 10.9 4.7 16.4l2.1 8.3 1 4.2 1.1 4.1c2.8 11 5.3 22.2 7.1 33.4 1.9 11.3 2.7 22.6 3.8 34 1.3 11.4.1 22.8.2 34.2-.2 5.7-.9 11.4-1.7 17.1-.8 5.7-1.7 11.3-2.7 16.9-1 5.6-2.1 11.2-3.3 16.8-.5 2.8-1.3 5.6-1.9 8.3-.6 2.8-1.1 5.6-1.6 8.4-1 5.6-2.3 11.1-3.4 16.7-1 5.6-1.9 11.2-2.7 16.8-1.4 11.3-2.1 22.6-2.3 34-.1 5.7.2 11.4.4 17 .3 5.7.5 11.4.9 17 .2 2.8.4 5.7.7 8.5l.4 4.2.5 4.2c.3 2.8.7 5.6 1.1 8.5.4 2.8.8 5.6 1.3 8.4.4 2.8.7 5.6 1.2 8.4.5 2.8.9 5.6 1.4 8.4l1.5 8.4 1.6 8.4-1.7-.2z"/><path class="st12" d="M1596.6 935.9c-.5-2.5-1.1-4.9-1.6-7.4-.4-2.5-.9-5-1.1-7.5l-.4-3.8c-.2-1.3-.2-2.5-.3-3.8l-.4-3.8c-.1-1.3-.2-2.5-.2-3.8-.2-5.1.1-10.1.1-15.2.1-5.1.3-10.1.7-15.1.2-2.5.4-5 .6-7.6.2-2.5.5-5 .9-7.5.7-5 1.4-10 2-15l1-7.5 1.2-7.5c.8-5 1.7-9.9 2.7-14.9.9-5 2-9.9 2.9-14.9.5-2.5 1-4.9 1.5-7.4.6-2.5 1.3-4.9 1.9-7.3l.5-1.8.4-1.8.8-3.7 2-7.3 2.1-7.3 2.2-7.2 2.3-7.2 2.4-7.2c.9-2.4 1.6-4.8 2.6-7.1.9-2.3 1.9-4.7 2.8-7 2-4.6 3.5-9.4 5.5-14.1l6.1-13.8c2-4.6 3.9-9.3 5.7-14 1.8-4.7 3.6-9.4 5-14.2 3-9.6 5.4-19.4 5.8-29.5.2-5 0-10-.5-15s-1.4-9.9-2.5-14.8c-.5-2.4-1.2-4.9-1.8-7.3-.7-2.4-1.3-4.8-2.1-7.2-1.5-4.8-3-9.6-4.9-14.2-1.8-4.7-3.8-9.3-5.8-14-2-4.6-3.8-9.3-5.7-14-1.9-4.7-3.9-9.3-5.6-14.1-1.7-4.8-3.2-9.6-4.8-14.4-.8-2.4-1.5-4.8-2.1-7.3l-.9-3.7c-.3-1.2-.5-2.5-.8-3.7-.3-1.2-.6-2.5-.8-3.7-.2-1.2-.5-2.5-.7-3.7l-.5-3.8-.4-3.8c-.2-2.5-.3-5.1-.1-7.6.2-2.6.8-5.1 2-7.5 1.2-2.3 3.2-4.3 5.6-5.4 1.2-.5 2.5-.9 3.9-.9 1.3 0 2.7.3 3.9.9l1 .6-1 .4-1.1.5-1.1.4-1.2.2c-.4 0-.8.1-1.2.1l-1.2.1-1.2-.1-1.2-.2-1.1-.3-1.1-.3-1.1-.4-1.1-.5-1-.6-.9-.7-.9-.8-.8-.9-.7-1-.4-.6.6-.4.6-.5.7-.4.7-.3.8-.2.8-.2.8-.1h.8l.8.1.8.1.8.2.7.3.7.4.7.4.6.5.6.6.5.6-1.3.9-.4-.5-.4-.4-.5-.4-.5-.3-.6-.3-.6-.2-.6-.2-.6-.1-.6-.1h-.6l-.6.1-.6.1-.6.2-.6.2-.5.3-.5.4.2-1 .6.9.7.8.7.7.8.7.9.6.9.5 1 .4 1 .3 1 .3 1.1.2 1.1.1h1.1c.4 0 .7-.1 1.1-.1l1-.2 1-.3 1-.4v1.3c-2.1-1-4.5-.8-6.6.3-1.1.5-2 1.1-2.9 1.9-.4.4-.8.8-1.2 1.3-.3.4-.7 1-1 1.5-.6 1-1 2.2-1.3 3.3-.3 1.2-.4 2.4-.5 3.6-.1 2.5 0 4.9.3 7.4l.5 3.7.6 3.7c.1 1.2.4 2.5.5 3.7l.3 1.9.3 1.8c1.1 4.9 2.6 9.7 3.9 14.5 1.3 4.8 3.2 9.5 5 14.2l5.4 14.1c1.8 4.7 4 9.2 5.8 14 1.9 4.7 3.7 9.4 5.5 14.1l1.3 3.6c.4 1.2.8 2.4 1.3 3.6.9 2.4 1.8 4.7 2.5 7.1.8 2.4 1.6 4.8 2.3 7.2.6 2.5 1.3 4.9 1.8 7.4 1.1 5 1.9 10 2.3 15 .5 5.1.4 10.2.1 15.2l-.4 3.8c-.1 1.3-.4 2.5-.5 3.8-.1 1.3-.3 2.5-.5 3.8-.2 1.2-.4 2.5-.6 3.7-.8 5-2.2 9.9-3.7 14.7l-1.1 3.6-1.2 3.6c-.8 2.4-1.7 4.8-2.7 7.1-1.9 4.7-3.9 9.3-5.9 13.9-1.9 4.7-3.6 9.4-5.5 14.1-.9 2.3-2 4.6-3.1 6.9-1.1 2.3-2 4.6-2.8 7l-2.4 7.2c-.8 2.4-1.6 4.8-2.5 7.1-1.7 4.7-3.3 9.5-4.9 14.3l-2.2 7.2-2.1 7.2-2 7.3-1.1 3.6c-.4 1.2-.7 2.4-1 3.7l-1.6 7.4-1.8 7.3c-.6 2.4-1.1 4.9-1.6 7.4s-1 4.9-1.4 7.4c-1.8 9.9-3.2 19.9-4.7 29.8-.4 2.5-.7 5-1 7.5l-.8 7.5c-.3 2.5-.5 5-.8 7.5-.2 2.5-.5 5-.7 7.5-.9 10-1.5 20.1-.8 30.1.1 5 .5 10 1.2 15l.2 1.9.3 1.8.6 3.7c.4 2.5 1.1 4.9 1.6 7.4h-1.6z"/><path class="st12" d="M1595.8 935.4c-3.1-8.3-5.9-16.8-9.1-25.1-2.7-8.5-5.8-16.8-8.5-25.3l-2-6.4-.5-1.6-.4-1.6-.8-3.2c-.6-2.2-1.1-4.3-1.6-6.5-.2-1.1-.6-2.2-.8-3.2-.3-1.1-.5-2.2-.8-3.2l-.8-3.3c-.3-1.1-.5-2.2-.7-3.3l-1.2-6.6-1-6.6c-.3-2.2-.5-4.4-.8-6.6-.5-4.4-.9-8.9-1.2-13.3-.5-4.5-.3-8.9-.1-13.4v-3.3c0-1.1 0-2.2.1-3.3.2-2.2.3-4.5.5-6.7.4-4.4 1-8.9 1.6-13.3.7-4.4 1.3-8.8 2.1-13.2.7-4.4 1.8-8.7 2.7-13.1.9-4.4 1.5-8.8 2.5-13.1.9-4.3 1.9-8.7 2.7-13 .8-4.4 1.5-8.8 2.1-13.2.7-4.4 1.3-8.8 1.7-13.2l.6-6.6c.2-2.2.3-4.4.4-6.6.1-2.2.1-4.4.1-6.7-.1-2.2-.1-4.4-.3-6.6l-.2-3.3-.3-3.3c-.2-2.2-.5-4.4-.8-6.6-.3-2.2-.7-4.4-1.1-6.5l-.7-3.2-.4-1.6-.4-1.6-.9-3.2-.4-1.6-.5-1.6-.9-3.2c-.3-1.1-.6-2.1-1-3.2-.8-2.1-1.4-4.2-2.3-6.2-.9-2-1.7-4.1-2.7-6.1-1-2-1.9-4-3-5.9l-3.2-5.8-3.3-5.7c-1.2-1.8-2.5-3.7-3.7-5.5l-4-5.3c-1.4-1.7-2.7-3.5-4.1-5.2-1.5-1.7-2.9-3.4-4.4-5l-4.8-4.6-4.9-4.5c-.8-.7-1.7-1.4-2.6-2l-2.7-2c-1.8-1.2-3.6-2.5-5.4-3.8-1.8-1.2-3.7-2.4-5.6-3.6-.9-.6-1.9-1.1-2.9-1.8-.9-.7-1.8-1.6-2.3-2.8-.5-1.2-.4-2.5 0-3.7.4-1.2 1.1-2.2 2-3 .4-.4.9-.8 1.5-1.1.5-.3 1.1-.5 1.7-.7 1.1-.3 2.3-.4 3.5-.3 2.3.1 4.5.8 6.7 1.3l1.1.3-1 .7c-1.4 1-2.9 2-4.3 2.8-.7.4-1.5.9-2.3 1.3-.8.4-1.6.8-2.3 1.1-3.2 1.4-6.5 2.5-9.9 3.2l-.3-1.6c3.3-.7 6.5-1.7 9.6-3 1.5-.7 3.1-1.4 4.6-2.2 1.5-.8 2.9-1.7 4.3-2.6l.2 1.2c-2.1-.7-4.3-1.1-6.4-1.2-1.1 0-2.1.1-3.1.4-1 .3-1.8.8-2.5 1.4-.7.6-1.3 1.5-1.7 2.4-.4.9-.4 1.9-.1 2.7.6 1.9 2.7 2.7 4.6 3.9 1.9 1.2 3.9 2.2 5.8 3.4l2.8 1.9c.9.6 1.9 1.2 2.7 2l2.5 2.2c.9.7 1.7 1.4 2.6 2.1 1.7 1.4 3.5 2.8 5.1 4.3l4.7 4.8c1.5 1.7 3 3.3 4.6 4.9 1.4 1.7 2.9 3.4 4.4 5.1l3.9 5.4c1.2 1.9 2.4 3.8 3.7 5.6 1.2 1.9 2.4 3.8 3.5 5.7 1.1 1.9 2.1 4 3.1 5.9 1 2 1.9 4.1 2.8 6.1.9 2 1.7 4.1 2.6 6.2l2.4 6.3c.4 1 .8 2.1 1.1 3.2l1.1 3.2c.8 2.1 1.2 4.3 1.8 6.4l.4 1.6.3 1.7.7 3.3c.4 2.2.8 4.4 1.1 6.6.6 4.4 1 8.9 1 13.4.1 4.5 0 8.9-.1 13.4s-.3 8.9-.7 13.4c-.4 4.4-1 8.9-1.6 13.3-.7 4.4-1.6 8.8-2.4 13.1-.8 4.4-1.4 8.8-2.2 13.2l-.6 3.3c-.2 1.1-.5 2.2-.7 3.3l-.9 3.2c-.2 1.1-.5 2.2-.7 3.3-.8 4.4-1.2 8.8-2.1 13.2-.8 4.4-1.6 8.7-2.2 13.1-.6 4.4-1.2 8.8-1.6 13.2-.4 4.4-.6 8.8-1 13.2.2 8.8.2 17.7 1.3 26.5.9 8.8 2.7 17.5 4.6 26.2.9 4.3 2.1 8.6 3.3 12.9l3.7 12.8c2.5 8.5 5.2 17 8.4 25.3 2.8 8.4 6.1 16.7 9.2 25l-1.3.3z"/></g><g><path class="st12" d="M1508.9 1032.8h1.8c.6 0 1.3 0 2.1.1s1.8.1 2.9.1c.5 0 1.1-.1 1.7-.2.6 0 1.2 0 1.9.1s1.3.2 2 .2 1.4-.1 2.2-.1c1.5-.1 3.1-.2 4.8-.4.8 0 1.7-.1 2.6-.1.9 0 1.8.1 2.7.2.9.1 1.9.1 2.8 0 1-.1 2-.2 3-.2s2 .1 3.1.2c1 .1 2.1.1 3.2.2 2.1.1 4.3.1 6.6-.2.6 0 1.1-.1 1.7 0 .6.1 1.1.2 1.7.3.6.1 1.1 0 1.7-.1.6-.1 1.2 0 1.7 0 2.3 0 4.7.1 7.1.2h3.6c1.2 0 2.4 0 3.6.2 1.2.2 2.4.3 3.7 0 1.2-.2 2.5-.1 3.7 0 1.2.1 2.5.3 3.7.3 1.2 0 2.5-.1 3.7-.1 2.5-.1 5 0 7.4 0 1.2 0 2.5.1 3.7.1 1.2 0 2.5-.1 3.7-.2 2.4-.2 4.9-.3 7.3-.5 1.2 0 2.4-.1 3.6-.1h1.8c.6.1 1.2.1 1.8.2 2.3.2 4.6-.1 6.9-.2.6-.1 1.1-.1 1.7-.1.6 0 1.1-.1 1.7 0 .5 0 1.1.1 1.6.1h1.6c2.1-.1 4.2-.3 6.2.1s3.9-.2 5.8.1c1.9.4 3.6-.4 5.3-.1 1.7.2 3.3.3 4.8.3 1.5-.1 2.9-.3 4.2-.1 1.3.1 2.5.2 3.6.1s2.1-.2 2.9-.3c.8 0 1.6-.1 2.1-.1h1.8v2.4H1663.8c-.8 0-1.8-.1-2.9-.2-1.1-.1-2.3 0-3.6.2-.7.1-1.3.1-2 .1s-1.4-.1-2.2-.2c-1.5 0-3.1.2-4.8.4-.8.1-1.7.1-2.6-.1-.9-.3-1.8-.3-2.7-.1-1.9.4-3.8-.4-5.8-.1-2 .4-4.1.2-6.2 0-1.1-.1-2.1 0-3.2.1h-1.7c-.6 0-1.1 0-1.7-.1-2.2-.1-4.5-.4-6.9-.1-.6.1-1.2.2-1.8.2-.6 0-1.2.1-1.8.1h-3.6c-1.2 0-2.4-.1-3.6-.1-1.2 0-2.4-.1-3.6-.3-1.2-.2-2.4-.3-3.7-.2-1.2.1-2.5.3-3.7.3-2.5.1-5 .3-7.4.2-1.2-.1-2.5-.3-3.7-.3-1.2-.1-2.5.2-3.7.4-.6.1-1.2.2-1.9.2-.6.1-1.2 0-1.8-.2-1.2-.5-2.5-.4-3.7 0-.6.2-1.2.2-1.8.3-.6.1-1.2 0-1.8 0-1.2-.1-2.4-.1-3.6-.2-2.4 0-4.8 0-7.1-.1-.6 0-1.2 0-1.7-.1-.6-.2-1.2-.3-1.7-.2-.6 0-1.1.2-1.7.2h-1.7c-2.2-.3-4.4-.3-6.6-.4-2.1 0-4.2 0-6.2.1-1 0-2-.1-3-.1s-1.9 0-2.8.1c-3.7.5-7.1 0-10.2-.1-.8 0-1.5-.1-2.2 0-.7 0-1.4.1-2 .2-.7.1-1.3.1-1.9.1-.6 0-1.2-.1-1.7-.1-1.1 0-2.1.1-2.9.1-.8.1-1.6.1-2.1.1-1.2 0-1.8.1-1.8.1v-2.6z"/></g><path class="st74" d="M1545.9 410.6c-.7.1-1.4.1-2 .5-1.8 1.1-1 4 .6 5.4 1.6 1.4 3.7 2.3 4.6 4.2.8 1.9-18.6 6.4-20.1 6.4-.4 0-.8 0-1.1-.2-.9-.5-.7-1.9-.3-2.8 2-5.2 4.7-10 4.1-15.8-.1-1.3-10.7-6.7-12.2-7.8-4.6-3.4-9-7.2-12.9-11.3-7.5-8-14-17.1-19.3-26.7-10-18.1-12.9-40.1-9.5-60.4.8-4.6 2.7-10.1 7.3-11 3.8-.8 7.6 2.2 9 5.8 1.5 3.6 1.2 7.6.9 11.5-.5 7.8-.7 15.7 1.6 23.2 2.4 7.4 8 14.2 15.5 16.1 10.4 2.5 22.5-4.6 31.5 1.3 8.8 5.7 8.5 20.5 17.9 25 4 1.9 8.7 1.4 13.1 1.5s9.4 1.6 11.3 5.6c1.4 3.1.4 7-1.7 9.7-7.5 9.6-26.3 18.8-38.3 19.8z"/><path class="st24" d="M1510.8 569c-.5 1.1-1.1 2.1-1.6 3.1 7.5 1.8 17.6-1.9 24.2-5.6-.8-4.2-4.8-7-7.2-10.4-.6-.9-1.3-1.9-1-2.9 1.1-4 12-8.9 15.2-11.6 5.9-5 11.1-10.7 15.7-16.8 7.2-9.7 16.6-23.9 15.6-36.7-.3-3.9-2.4-8-6-9.5-3.5-1.4-7.6-.2-10.7 2.1-3 2.3-5.2 5.5-7.3 8.6-4.5 6.5-9.9 13-17.5 15.4-12.2 3.9-26.1-5.9-28.4-18.4-.8-4.6-.3-9.4-.8-14.1-.5-4.7-2.1-9.6-6-12.3-10.1-6.9-22.9-1.9-28.1-16.7-.8-2.4-1.2-4.9-2.1-7.3-1.7-4.6-5.7-8.7-10.6-9.2-8.9-.9-11.5 9.2-12.7 16.3-3.2 19.2.3 43.4 7.7 61.5 9.3 22.9 29.2 45.1 53.3 52.5 3 .9 6.3 1.8 8.4 4.2 2.2 2.6 1.2 5.3-.1 7.8z"/></g><g><path class="st72" d="M1153.3 1033.9c2.5.1 6-.8 10-1 8.7-.5 17.3 1.2 26 1.2h195.5c5.3 0 10.6-.1 15.9 0 3.6.1 13.4.3 15.6-3.1 2-3.1-.5-9.2-3.9-10.4-3.7-1.3-.2-33.6-.3-37.4-.2-12.8-1.1-25.6-1.2-38.5 0-11.3.1-22.3.4-33.6 0-.9.1-1.9.6-2.7.5-.8 1.5-1.2 2.2-1.8 2.8-2.4 1.2-7.3-2-9.1-8.9-4.9-24.9 0-34.7 0-15.9 0-31.7-.8-47.6-.8h-86.4c-29.6 0-59.1-.3-88.7-1-1.1 0-2.3 0-3.4.4-2.9 1.3-3.2 5.1-3.1 8.3 0 1.2.2 2.6 1.1 3.3.6.4 1.3.5 1.9.9 4.4 2.6 1.7 18.6 1.7 23v44.7c0 15.6 2.8 31.6-.1 47-1.4-1.4-4 0-4.6 1.9-.8 3.2 1.2 8.5 5.1 8.7z"/><path class="st70" d="M1413.9 926.1s-5.2-.6-14.2-1.7c-4.5-.4-10-1.3-16.3-1.9-6.3-.6-13.4-1.5-21.1-2.2-3.9-.3-7.9-.4-12.1-.2-2.1.1-4.2.2-6.3.5-2.1.3-4.3.7-6.3 1.5-1 .4-2 .9-2.8 1.6-.8.7-1.5 1.5-1.9 2.6-.3 1-.4 2.1-.1 3.2.2 1 .9 1.9 1.9 2.5 1.9 1.2 4.3 1.6 6.6 2.1s4.8.8 7.1 2c.6.3 1.1.6 1.6 1 .2.2.5.4.7.6l.7.7c.8 1 1.3 2.3 1.5 3.5.3 1.3.2 2.6 0 3.8-.2 1.3-.6 2.5-1.2 3.6s-1.3 2.2-2.3 3.1c-1 .9-2 1.6-3.2 2.2-2.3 1.2-4.9 1.7-7.5 1.8-5.2.1-10.3-.9-15.2-2.6-2.5-.8-4.9-1.8-7.2-2.9-2.4-1-4.8-2.1-7.1-3.3-9.3-4.6-18.5-9.5-28-13.3-4.7-1.9-9.4-3.8-14.2-5.4-1.2-.4-2.4-.8-3.5-1.2-1.2-.4-2.4-.8-3.5-1.1-1.2-.3-2.3-.8-3.5-1.1-1.2-.3-2.4-.7-3.5-1-2.4-.6-4.7-1.2-7-1.6-2.3-.5-4.7-.8-7-1.1-2.3-.2-4.6-.5-6.9-.6-2.3-.2-4.5-.2-6.7-.2-2.2.1-4.4.3-6.4.9-2 .6-4 1.5-5.4 2.9-1.5 1.4-2.2 3.4-3.3 5.2-.3.4-.6.8-.8 1.3-.3.4-.6.8-1 1.2-.3.4-.7.7-1 1.1-.3.4-.7.7-1.1 1-3.1 2.5-6.7 4.1-10.2 4.7-3.5.6-7 .7-10.1.5-6.4-.3-11.8-1.7-16.2-2.9-2.2-.6-4.2-1.2-5.8-1.7-1.7-.6-3.1-1.1-4.2-1.5-2.3-.9-3.5-1.4-3.5-1.4l.3-.7s1.2.5 3.5 1.4c2.3.9 5.6 2.1 10 3.4 2.2.7 4.6 1.2 7.3 1.7 2.7.4 5.6 1 8.7 1.2 3.1.2 6.5.1 9.9-.6.8-.2 1.7-.4 2.6-.7.9-.2 1.7-.5 2.6-.9.4-.2.8-.4 1.3-.5.4-.2.8-.4 1.2-.7.4-.2.8-.5 1.2-.8.4-.3.8-.6 1.1-.9.7-.6 1.4-1.3 2-2 .3-.4.6-.7.9-1.1l.9-1.2c1.1-1.6 1.9-3.6 3.4-5.3 1.5-1.6 3.5-2.7 5.7-3.3 2.2-.6 4.4-.8 6.6-.8 2.2 0 4.5-.1 6.8.1 1.2 0 2.3.1 3.5.3 1.2.1 2.3.3 3.5.4 4.7.7 9.3 1.7 14.1 2.8 2.4.6 4.8 1.2 7.1 1.9 1.2.4 2.4.7 3.6 1.2l3.6 1.2c4.7 1.7 9.5 3.6 14.1 5.7 4.7 2.1 9.4 4.2 14.1 6.4 4.7 2.2 9.3 4.6 14 6.9 2.3 1.2 4.6 2.3 7 3.4 2.4 1 4.8 1.9 7.3 2.7 2.5.8 5 1.3 7.4 2 1.2.3 2.5.5 3.8.6 1.3.1 2.5.1 3.8 0 1.3-.1 2.5-.3 3.7-.6 1.2-.3 2.4-.7 3.5-1.2s2.1-1.2 3-2c.9-.8 1.6-1.8 2.1-2.9.6-1.1.9-2.2 1.1-3.4.2-1.2.2-2.4 0-3.5-.2-1.2-.7-2.3-1.4-3.2l-.5-.6c-.2-.2-.5-.4-.7-.6-.4-.4-.9-.7-1.5-.9-2.1-1-4.5-1.6-6.8-2-1.2-.2-2.4-.4-3.5-.7-1.2-.3-2.3-.7-3.3-1.4s-1.8-1.8-2.1-3c-.3-1.2-.2-2.4.2-3.6.4-1.2 1.2-2.1 2.1-2.8.9-.8 1.9-1.3 3-1.7 2.1-.9 4.3-1.3 6.4-1.7 2.2-.3 4.3-.5 6.4-.6 4.2-.2 8.3.1 12.2.3 1.9.1 3.9.3 5.7.4 1.9.2 3.7.4 5.4.6 3.5.4 6.9.8 10 1.2 6.3.8 11.8 1.2 16.3 1.8 9 1 14.2 1.5 14.2 1.5l-.9.6z"/><path class="st70" d="M1153.8 944.7s.8.8 2.2 2.4l.6.6c.2.2.5.4.7.6.5.4 1 .9 1.6 1.4.5.5 1.2 1 1.9 1.5s1.4 1.1 2.3 1.5c.9.5 1.8.9 2.7 1.4 1 .5 2 .9 3.1 1.4 2.2.9 4.6 1.7 7.3 2.2 2.7.6 5.6.8 8.6.9 1.5 0 3.1-.1 4.7-.2l2.4-.3c.4 0 .8-.1 1.2-.1l1.2-.3c.8-.2 1.6-.3 2.5-.5.8-.2 1.6-.5 2.5-.8.4-.1.8-.3 1.2-.4.4-.2.8-.4 1.2-.5.8-.4 1.6-.7 2.4-1.1.8-.4 1.6-.9 2.4-1.3.4-.2.8-.4 1.2-.7l1.1-.8c.8-.5 1.5-1.1 2.3-1.6.7-.6 1.5-1.2 2.2-1.9 2.8-2.6 5.6-5.5 8.8-8 .8-.6 1.6-1.3 2.6-1.7l1.4-.7c.5-.2.9-.5 1.4-.7 1.9-.8 3.9-1.7 6-2.1 4.2-1 8.5-1.1 12.9-.6 4.3.5 8.7 1.3 12.9 2.8 4.2 1.4 8.5 2.8 12.6 4.7 4.1 1.8 8.2 3.7 12.3 5.5 4.1 1.9 8.1 3.9 12.1 5.9 4 2 7.9 4.2 11.8 6.3 2 1.1 3.9 2.1 5.8 3.2s3.8 2.1 5.6 3.6c.8.7 1.6 1.5 2.2 2.5.3.5.6.9.8 1.5l.2.8.1.4.1.4c0 .3.1.6.1.9v.8c0 .3-.1.6-.1.8-.1.3-.1.6-.2.8-.3 1.1-.8 2.1-1.5 2.9-.3.5-.7.8-1 1.3-.4.4-.7.8-1.2 1.1-.8.7-1.6 1.4-2.6 1.9-1.8 1.1-3.8 1.9-5.9 2.2-2 .3-4.1.5-6.1.5s-4-.1-5.9.1c-3.8.1-7.5.9-10.7 2.5-1.6.8-3 1.9-4.3 3-.6.6-1.3 1.2-1.8 1.8-.6.6-1.2 1.2-1.7 1.9-2.3 2.5-3.8 5.4-5.6 7.8-1.7 2.5-3.3 5-4.9 7.2-1.6 2.2-3.3 4.2-5.1 5.8-1.8 1.6-3.6 2.9-5.3 3.9-1.7 1-3.4 1.7-4.9 2.1-.8.1-1.5.3-2.1.4-.7 0-1.3.1-1.8.1s-1 0-1.4-.1c-.4-.1-.8-.1-1-.2-.6-.1-.8-.1-.8-.1l.2-.8s.3 0 .8.1c.3 0 .6.1 1 .2.4 0 .8 0 1.4.1.5 0 1.1-.1 1.7-.1.6-.1 1.3-.2 2-.4 1.4-.4 3.1-1 4.8-1.9 3.4-1.9 6.8-5.3 10.2-9.6 1.6-2.2 3.1-4.7 4.8-7.3 1.6-2.7 3.7-5.2 5.7-7.9 2.1-2.7 4.9-5 8.1-6.9.4-.2.8-.4 1.3-.6.4-.2.9-.4 1.3-.5.9-.4 1.8-.6 2.7-.8 1.9-.4 3.8-.6 5.8-.6 1.9 0 3.9-.1 5.9-.1 2-.1 4-.1 5.9-.4 2-.3 3.9-1 5.6-2 1.7-1 3.4-2.4 4.5-4.1.6-.8 1-1.8 1.3-2.7.2-1 .3-2 .1-3v-.4l-.1-.4-.2-.8c-.2-.4-.4-.9-.7-1.3-.5-.9-1.3-1.6-2.1-2.3-1.6-1.4-3.5-2.4-5.4-3.5l-5.7-3.3c-3.8-2.3-7.8-4.3-11.8-6.3-4-2-8.1-3.9-12.1-5.9-2-1-4.1-1.9-6.1-2.9-2-.9-4.1-1.7-6.2-2.6-2.1-.8-4.2-1.6-6.2-2.5-1-.4-2-.9-3.1-1.2-1.1-.3-2.1-.7-3.2-.9-1.1-.3-2.1-.6-3.2-.8-1.1-.3-2.1-.6-3.2-.8-2.1-.5-4.3-.9-6.4-1.1-4.3-.4-8.6-.3-12.6.6-2 .5-4 1-5.9 1.9-.5.2-.9.5-1.4.7l-1.3.8c-.8.5-1.7 1.1-2.5 1.7-3.3 2.4-6 5.3-8.9 7.9-.7.6-1.4 1.3-2.2 1.9-.7.6-1.5 1.1-2.3 1.7l-1.1.8c-.4.3-.8.5-1.2.7-.8.5-1.6.9-2.4 1.4-.8.4-1.7.7-2.5 1.1-.4.2-.8.4-1.2.5-.4.1-.8.3-1.3.4-.8.3-1.7.5-2.5.8-.8.2-1.7.4-2.5.6l-1.2.3c-.4.1-.8.1-1.2.2l-2.4.3c-.8.1-1.6.1-2.4.1-.8 0-1.6.1-2.4 0-3.1-.1-6-.4-8.7-1.1-5.4-1.2-9.9-2.9-13.3-5.1-.9-.5-1.6-1.1-2.4-1.5-.7-.5-1.4-.9-2-1.5-.6-.5-1.1-1-1.6-1.4-.3-.2-.5-.4-.7-.6l-.6-.6c-1.5-1.5-2.2-2.3-2.2-2.3l.2-.6z"/><path class="st70" d="M1152.3 967.4l.6.6c.4.4.9 1.1 1.7 1.8 1.5 1.5 4.1 3.4 7.9 4.9 1.9.8 4.1 1.3 6.5 1.8 1.2.3 2.5.4 3.8.5 1.3.1 2.7.1 4.1 0 2.8-.1 5.8-.5 8.9-1.3.8-.2 1.5-.4 2.3-.6.8-.2 1.6-.5 2.4-.8 1.6-.5 3.2-1.1 4.8-1.8 3.2-1.3 6.4-3.1 9.7-4.9 3.3-1.8 6.7-3.8 10.2-5.8 3.5-2.1 7-4.2 10.8-6.2 1.9-1 3.8-1.9 5.8-2.7 2-.8 4-1.8 6.1-2.4 2.1-.7 4.2-1.3 6.5-1.7 2.2-.5 4.5-.7 6.7-.8 4.5-.2 9.2.3 13.6 1.9 4.3 1.6 8.6 3.6 12.3 6.6 1.9 1.4 3.7 3 4.9 5 .6 1 1 2.1 1.2 3.3.2 1.2.1 2.4-.1 3.6-.5 2.3-1.6 4.5-2.8 6.5-1.3 2-2.8 3.8-4.4 5.5-3.2 3.4-6.4 6.8-9.6 10.1-3.2 3.3-6.5 6.5-10 9.4-1.7 1.5-3.5 2.9-5.3 4.2-.9.7-1.8 1.3-2.8 1.9-.9.6-1.9 1.2-2.8 1.8-3.8 2.2-7.6 4.3-11.6 5.8-2 .7-3.9 1.5-6 1.9-1 .2-2 .5-3 .7l-3 .6-1.5.3c-.5.1-1 .1-1.5.2-1 .1-2 .2-2.9.4-1 .2-2 .1-2.9.2-1 0-1.9.1-2.9.1-1.9-.1-3.8-.1-5.6-.1-1.8-.1-3.6-.2-5.4-.4-.9-.1-1.7-.2-2.6-.3-.9-.1-1.7-.1-2.5-.3-.8-.1-1.7-.2-2.5-.3-.8-.1-1.6-.3-2.4-.4-1.6-.3-3.1-.6-4.6-.9-1.5-.3-2.9-.7-4.3-1-5.6-1.2-10.4-2.6-14.3-3.7-4-1.1-7-2-9.1-2.6-2.1-.6-3.2-1-3.2-1l.2-.8s1.1.3 3.2 1c2.1.6 5.2 1.6 9.1 2.8 2 .6 4.2 1.2 6.5 1.8 2.4.6 5 1.3 7.7 1.9 1.4.3 2.8.6 4.3.9 1.5.3 3 .5 4.6.8l2.4.3c.8.1 1.6.3 2.4.4.8.2 1.7.2 2.5.4.9.1 1.7.2 2.6.2.9.1 1.8.1 2.6.2.9.1 1.8.1 2.7.2 1.8.1 3.7.1 5.6.1 1.9-.1 3.8-.2 5.7-.4 1-.1 1.9-.2 2.9-.3.5-.1 1-.1 1.5-.2l1.5-.3c7.8-1.4 16-4.1 23.4-8.8l2.7-1.8c.9-.6 1.8-1.3 2.7-1.9 1.8-1.3 3.6-2.7 5.3-4.1 3.5-2.9 6.8-6 10.1-9.2 3.3-3.2 6.5-6.6 9.6-10.1 1.6-1.7 3-3.5 4.3-5.5 1.3-1.9 2.2-4 2.8-6.2.2-1.1.3-2.2.2-3.4 0-.3-.1-.5-.2-.8-.1-.3-.1-.5-.2-.8l-.3-.8c-.1-.2-.2-.5-.4-.7-1.1-2-3-3.4-4.9-4.7-1.9-1.4-3.9-2.5-5.8-3.7-1-.6-2-1.1-3.1-1.6-1.1-.4-2.1-.8-3.2-1.1-1.1-.3-2.2-.6-3.3-.8-1.1-.3-2.2-.5-3.3-.6-2.2-.3-4.5-.5-6.7-.3-2.2.1-4.4.4-6.6.8-2.2.4-4.3 1-6.4 1.7-2.1.7-4.1 1.4-6.1 2.2-1.9.9-3.8 1.9-5.7 2.8-3.8 1.8-7.3 4-10.8 6-3.4 2.1-6.8 4.1-10.1 6-3.3 1.9-6.6 3.5-9.8 4.9-6.4 2.9-12.9 4.3-18.6 4.4-5.7.1-10.8-.7-14.6-2.4-3.9-1.5-6.5-3.5-8.2-5-.9-.7-1.4-1.4-1.8-1.8l-.6-.6.4-.7z"/><path class="st70" d="M1153.9 979.1s.1.2.3.5c.2.3.6.8 1.1 1.3.9 1.1 2.6 2.5 5 3.7 1.2.6 2.7 1 4.3 1.5 1.6.5 3.4.8 5.3.9 1.9.1 4 .2 6.1.1 1.1-.1 2.2-.1 3.3-.2 1.1-.1 2.3-.2 3.5-.3 2.4-.2 4.8-.7 7.3-1.1 2.5-.4 5.1-1 7.8-1.6 2.6-.7 5.3-1.5 8-2.6 1.3-.5 2.7-1 4.1-1.5 1.4-.5 2.7-1.2 4.1-1.7 2.8-1.1 5.6-2.2 8.6-3 3-.8 6.1-1.5 9.3-1.3.8 0 1.6.1 2.4.1.8.1 1.6.1 2.4.3 1.6.2 3.1.7 4.6 1.4 1.4.7 2.8 1.5 4 2.6 1.2 1.1 1.9 2.8 1.8 4.4-.1 1.7-.9 3.2-1.8 4.5-.9 1.3-2.1 2.4-3.4 3.4-2.6 1.9-5.3 3.4-8.1 4.9-2.8 1.5-5.7 2.6-8.6 3.5-1.5.5-2.9.9-4.4 1.3-.7.2-1.5.3-2.2.5-.7.1-1.5.3-2.2.4-3 .4-5.9.9-8.7 1.1-1.4.1-2.9.2-4.3.2s-2.8-.1-4.2-.1c-2.7 0-5.4-.2-8-.5-2.5-.4-5-.5-7.4-1-2.3-.5-4.6-.6-6.8-1.1-2.1-.4-4.1-.9-6-1.3-3.8-.7-7.1-1.6-9.8-2.1-1.4-.3-2.6-.5-3.6-.7-1.1-.2-1.9-.5-2.6-.5-.7 0-1.1.2-1.3.4-.2.2-.2.3-.2.3l-.7-.3s.1-.3.4-.6c.4-.4 1.1-.6 1.9-.6.4 0 .9.1 1.3.2s.9.2 1.5.3c1 .3 2.3.5 3.6.9 1.3.3 2.9.6 4.5.9 1.7.3 3.4.8 5.3 1.2 1.9.4 3.9.7 6.1 1.1 2.2.3 4.3 1 6.7 1.2 2.4.2 4.8.8 7.4.9 2.6.1 5.2.4 7.9.5 5.4 0 11.2 0 17-1.1.7-.2 1.5-.3 2.2-.5.7-.2 1.4-.4 2.2-.5 1.5-.4 2.9-.7 4.4-1.2 2.9-.9 5.8-2 8.6-3.2 2.8-1.2 5.5-3 8-4.8 1.2-1 2.3-2.1 3.2-3.3.9-1.3 1.5-2.7 1.7-4.2.1-.8 0-1.5-.3-2.2l-.2-.5c-.1-.1-.2-.3-.3-.5-.2-.3-.5-.6-.7-.9-.5-.6-1.2-1-1.9-1.4-.7-.4-1.4-.7-2.1-1-1.4-.6-2.9-.9-4.4-1.3-.7-.2-1.5-.3-2.3-.4h-2.3c-1.5.1-3.1.3-4.6.5-.7.1-1.5.2-2.3.4-.7.2-1.5.3-2.2.5-2.9.8-5.8 1.9-8.5 3-1.4.6-2.8 1-4.1 1.6-1.4.6-2.7 1.2-4.1 1.6-2.7.9-5.4 1.8-8.1 2.4-2.6.7-5.2 1.3-7.8 1.8-2.5.5-5 .8-7.4 1.1-1.2.2-2.4.3-3.5.4-1.1.1-2.2.1-3.3.2-2.2.1-4.3 0-6.2-.2-3.9-.4-7.3-1.1-9.8-2.5-2.6-1.2-4.3-2.6-5.4-3.8-.6-.6-.9-1-1.1-1.3-.2-.3-.4-.5-.4-.5l.4-.6zM1269.1 1020.9h.5c.3 0 .8 0 1.5-.1 1.2-.2 3.1-.6 5.2-1.9 1-.6 2.1-1.5 3.2-2.4 1.1-.9 2.3-2 3.3-3.3 1.1-1.3 2.1-2.8 3.2-4.3.5-.8 1.1-1.6 1.7-2.4.6-.8 1.2-1.6 1.9-2.5 1.3-1.6 2.6-3.4 4.3-5 1.7-1.6 3.7-2.9 6-3.9s4.7-1.5 7.2-1.9c1.3-.2 2.5-.3 3.8-.3 1.3-.1 2.6-.3 3.9-.3 2.6-.2 5.2-.4 7.8-1.1 2.6-.7 5.1-1.7 7.3-3.3.3-.2.6-.4.8-.6.3-.2.5-.4.8-.7.5-.5.9-1 1.3-1.6l.5-.9c.2-.3.3-.6.4-.9.3-.6.5-1.3.7-1.9.4-1.3.7-2.7 1.2-4 .5-1.3 1.1-2.6 2-3.7 1.8-2.2 4.3-3.7 6.8-4.9 2.5-1.2 5.2-2 7.7-3.1 2.5-1 5.1-2.1 7.3-3.5 1.1-.7 2.2-1.5 3.1-2.4 1-.9 1.8-1.9 2.5-2.9 1.4-2.1 2.2-4.6 3.2-7 .5-1.2.9-2.4 1.6-3.4.6-1.1 1.4-2.1 2.2-3 1.7-1.8 3.9-3 6.1-3.6 2.2-.6 4.4-1.1 6.5-1.1 2.1 0 4.1-.3 6.1 0 1.9.2 3.7.5 5.4.9.8.2 1.7.3 2.4.6.4.1.8.2 1.1.3.4.1.7.3 1.1.4 1.4.5 2.6 1.1 3.8 1.5 2.3 1 3.9 2 5 2.7 1.1.7 1.7 1.1 1.7 1.1l-.5.6s-.6-.4-1.6-1.1c-1.1-.7-2.7-1.7-4.9-2.8-1.1-.5-2.3-1-3.7-1.4-1.4-.4-2.9-.9-4.5-1.3-1.7-.3-3.4-.6-5.3-.7-1.9 0-3.9-.4-5.9-.1-2.1.3-4.2.3-6.3 1.1-1.1.3-2.1.8-3.1 1.4-1 .5-1.9 1.2-2.8 2-.9.8-1.5 1.8-2.1 2.9-.6 1.1-1.1 2.2-1.6 3.3-1 2.3-1.9 4.7-3.3 7.1-.7 1.1-1.5 2.2-2.5 3.2-1 .9-2.1 1.7-3.3 2.4-2.4 1.4-4.9 2.4-7.6 3.3-2.6.8-5.2 1.8-7.7 3s-4.8 2.7-6.6 4.8c-.4.5-.8 1.1-1.2 1.6-.2.3-.3.6-.5.9-.2.3-.3.6-.4.9-.5 1.3-.6 2.7-1 4.1-.3 1.4-.8 2.8-1.7 3.9-.5.5-.9 1.1-1.4 1.6-.2.3-.5.5-.7.8-.2.3-.5.5-.8.7-1.1.9-2.3 1.7-3.6 2.2-1.3.5-2.6 1-3.9 1.3-2.7.7-5.4 1-8 1.1-1.3.1-2.6 0-3.9.2-1.3.1-2.5.3-3.8.4-2.5.2-4.9.8-7.1 1.7-2.2.9-4.1 2.3-5.7 3.8-1.6 1.5-3.1 3.2-4.3 4.9-.6.8-1.2 1.7-1.8 2.5-.6.8-1.2 1.6-1.7 2.4-1.1 1.5-2.2 3-3.4 4.3-2.3 2.5-4.4 4.7-6.7 5.9-2.1 1.3-4.1 1.9-5.4 2.1-.7.1-1.2.1-1.5.2h-.5l.2-.8zM1307.3 1019.8s.1-.5.2-1.5c.2-1 .6-2.4 1.5-4.1.7-1.7 2.3-3.5 4.1-5.3.9-.9 2-1.8 3.2-2.6.6-.4 1.2-.8 1.9-1.2.7-.3 1.4-.7 2.1-1 1.5-.6 3-1.3 4.6-1.8 1.6-.5 3.3-.9 5.1-1.2 1.8-.4 3.6-.7 5.4-1.2.9-.2 1.9-.4 2.8-.5.9-.2 1.8-.5 2.8-.7.9-.2 1.9-.5 2.8-.8.9-.3 1.9-.6 2.8-1 1.9-.7 3.7-1.6 5.6-2.4 1.9-.8 3.6-2.1 5.4-3 1.8-1 3.5-2.3 5.1-3.6 1.6-1.3 3.2-2.7 4.6-4.1 1.5-1.4 2.9-3 4.1-4.6 1.2-1.6 2.4-3.3 3.5-5 .6-.8 1.1-1.6 1.7-2.5.6-.8 1.2-1.6 1.8-2.3 1.3-1.5 2.5-3 3.9-4.3.7-.6 1.4-1.3 2.3-1.7.8-.5 1.7-.9 2.5-1.3.4-.2.9-.3 1.3-.5.2-.1.4-.1.7-.2l.6-.1c.8-.2 1.8-.2 2.6-.2 1.7.1 3.4.1 4.9.6 1.5.5 3 .7 4.3 1.3 1.3.6 2.6 1.1 3.7 1.7 1.2.5 2.3.9 3.2 1.5 1 .6 1.8 1.2 2.5 1.8.7.6 1.3 1.2 1.7 1.9.4.7.6 1.3.6 1.8.1 1.1-.2 1.6-.1 1.6l-.8-.2s.2-.5.1-1.3c-.1-.9-.7-2.1-2-3.3-1.3-1.2-3.3-2.1-5.6-3.2-1.2-.5-2.4-1-3.7-1.5-1.4-.4-2.7-1.2-4.2-1.4-1.5-.2-3.1-.7-4.7-.5-1.6.1-3.3.4-4.9 1-3.2 1.4-6.1 3.9-8.4 7-.6.8-1.1 1.6-1.7 2.4l-1.8 2.4c-1.2 1.6-2.4 3.3-3.8 4.8s-2.7 3.1-4.2 4.6c-1.4 1.5-3 2.9-4.7 4.2-.8.6-1.7 1.2-2.6 1.8l-2.5 1.9c-.8.6-1.7 1.2-2.7 1.6-1 .4-1.9.9-2.8 1.5-.4.3-.9.5-1.3.8-.5.2-.9.4-1.4.6-.9.4-1.9.8-2.9 1.1-.9.4-1.9.7-2.9 1-.9.3-1.9.6-2.9.8-.9.3-1.9.3-2.9.6-.9.2-1.8.5-2.8.7-1.9.3-3.7.7-5.4 1-1.7.4-3.4.8-5 1.3s-3.2 1-4.5 1.7c-.7.3-1.4.7-2 1.1-.6.4-1.3.7-1.9 1.1-1.2.8-2.3 1.6-3.2 2.4-.5.4-.9.8-1.3 1.3s-.7.9-1 1.3c-.3.4-.6.9-.9 1.3-.3.4-.5.8-.7 1.2-.8 1.6-1.1 3-1.3 3.9-.1 1-.2 1.5-.2 1.5h-.3zM1412.6 992.4s-.3-.2-.8-.6c-.5-.4-1.3-1-2.3-1.7-1.1-.5-2.2-1.6-3.8-2.2-1.6-.7-3.4-1.2-5.4-1.6-1-.3-2.1-.1-3.2 0-.3 0-.6 0-.8.1-.3 0-.6.1-.9.1-.5.1-1.1.2-1.7.4-1.1.4-2.2.9-3.3 1.7-.5.4-1.1.7-1.6 1-.6.3-1 .9-1.5 1.2-1 .8-2.1 1.7-3.1 2.5-1.1.9-2.1 1.8-3.3 2.5l-.9.6c-.3.2-.6.4-.8.6-.5.5-1.2.8-1.8 1.2-.6.4-1.2.7-1.8 1.1l-1.8 1.1c-1.2.7-2.5 1.4-3.7 2.1-1.3.6-2.5 1.2-3.7 1.9-1.2.7-2.5 1.3-3.7 1.9l-1.8.9c-.6.3-1.2.5-1.8.8-2.4 1-4.6 2.4-6.9 3.3-1.1.6-2.1 1.1-3.2 1.5-1.1.4-2 1.1-2.9 1.5-1 .4-1.7 1.1-2.6 1.5-.9.4-1.6.9-2.4 1.3-.7.5-1.4.9-2 1.3-.6.4-1.2.8-1.7 1.1-.5.4-.9.8-1.3 1.1-.4.3-.7.5-1 .8-.5.4-.8.6-.8.6l-.5-.6s.3-.2.8-.6c.5-.4 1.3-1 2.3-1.7 1.1-.7 2.1-1.7 3.7-2.5.7-.5 1.5-1 2.3-1.5.8-.6 1.8-.8 2.7-1.4.9-.6 2-.9 2.9-1.5 1-.6 2.1-1.1 3.2-1.6.6-.2 1.1-.5 1.7-.8.6-.3 1.1-.5 1.7-.8 1.2-.5 2.4-1 3.5-1.6 2.3-1.3 4.8-2.4 7.4-3.5 1.3-.5 2.5-1.2 3.7-1.9 1.2-.7 2.4-1.4 3.7-2.1 1.2-.7 2.5-1.3 3.6-2.3.5-.4 1.1-.9 1.7-1.2.7-.3 1.2-.7 1.7-1.2s1.1-.9 1.6-1.3 1.1-.8 1.6-1.3c1.1-.9 2.1-1.7 3.2-2.5.3-.2.5-.4.8-.6.3-.2.6-.3.8-.5.5-.4 1-.8 1.6-1.1 1.1-.6 2.3-1.2 3.4-1.6.6-.2 1.2-.4 1.8-.5.6-.1 1.2-.2 1.7-.3 1.2-.1 2.3 0 3.4.1.5 0 1.1.2 1.6.2.5.1 1 .3 1.4.5.9.3 1.8.7 2.6 1.1 1.5.8 2.9 1.4 3.9 2.2 1.1.7 1.9 1.2 2.4 1.6.5.4.8.6.8.6l-.4.6zM1411 1009.4s-.2 0-.4-.1c-.3-.1-.7-.3-1.3-.4-.6.1-1.2-.3-2-.3s-1.7.2-2.6.1c-.5-.1-1 .1-1.5.2-.5 0-1 .1-1.6.1-.5.1-1.1.2-1.6.4-.3.1-.6.1-.9.1-.2 0-.3.1-.4.1-.1.1-.3.1-.4.1-.6.2-1.2.3-1.8.5-.6.2-1.2.5-1.8.6-.3.1-.6.1-.9.3-.3.2-.6.3-.9.3-.6.1-1.2.4-1.8.7-.6.3-1.2.5-1.8.8-.6.2-1.2.5-1.8.8-.6.3-1.1.6-1.7.9-.6.3-1.1.6-1.7.7-1.2.4-2.1 1.2-3.2 1.5-.5.3-1 .5-1.5.6-.5.1-.9.5-1.4.6-.5.1-.8.5-1.3.6-.4.1-.8.3-1.2.4-.4.2-.7.4-1 .5-.3.1-.6.2-.9.4-.5.3-.9.5-1.2.6-.3.1-.4.2-.4.2l-.3-.7s.1-.1.4-.2c.3-.1.7-.3 1.2-.5.3-.1.5-.3.8-.5.3-.2.7-.3 1-.4.4-.2.7-.4 1.1-.6.4-.3.9-.2 1.3-.5s1-.3 1.4-.6c.4-.3 1-.5 1.5-.7.3-.1.5-.2.8-.4.3-.1.5-.2.8-.3.5-.2 1.1-.4 1.6-.7.5-.4 1.1-.6 1.7-.9.6-.2 1.2-.5 1.8-.6l.9-.3c.3-.2.6-.3.8-.5.6-.3 1.2-.6 1.8-.8.6-.2 1.3-.4 1.8-.8.3-.2.6-.4.9-.4.4 0 .6-.1.9-.3.5-.4 1.2-.5 1.8-.7.6-.2 1.2-.4 1.8-.5.1 0 .3-.1.5-.1s.3 0 .5-.1c.3-.1.6-.3.9-.3.6 0 1.2-.2 1.7-.2.6-.1 1.1-.2 1.6-.3.5 0 1-.1 1.5-.2s1-.1 1.4-.1c.5 0 .9 0 1.3.1s.8.1 1.1.1c.4 0 .7.1 1 .2.6.1 1 .2 1.3.3.3.1.5.1.5.1l-.1 1.1zM1152.6 915.2s1 .4 2.6 1c.4.1.9.2 1.4.5.5.2 1 .4 1.7.6.6.2 1.2.3 1.9.5l2.1.6c.7.3 1.5.4 2.3.6.8.2 1.6.5 2.4.8.8.2 1.7.5 2.6.6.5.1.9.2 1.4.4.2.1.5.1.7.1.2 0 .5.1.7.1.9.2 1.9.4 2.9.5 1 .2 2 .2 3 .4.5.1 1 .2 1.5.1.5 0 1 0 1.5.1.5 0 1 .1 1.5.1h1.5c1-.1 2.1-.1 3.1-.2 1 0 2-.2 3-.4 2-.5 3.8-1 5.7-1.5 1.8-.5 3.5-1.5 5.1-2.1.8-.4 1.5-.9 2.2-1.2.8-.3 1.3-.9 2-1.2.7-.3 1.1-1 1.7-1.3.6-.4 1.1-.8 1.5-1.2.8-1 1.7-1.6 2.2-2.4.3-.4.5-.7.7-1 .2-.3.4-.5.5-.7.3-.4.4-.6.4-.6l.7.4s-.2.2-.4.6c-.3.4-.7 1-1.3 1.6-.3.3-.6.8-.9 1.2-.3.4-.8.8-1.3 1.2-.5.4-.9.9-1.4 1.4-.5.5-1.3.7-1.8 1.3-.6.5-1.4.8-2.1 1.3-.7.5-1.5.9-2.3 1.2-.4.1-.8.4-1.2.6-.4.2-.9.3-1.3.5-.9.3-1.8.6-2.7 1-.4.2-.9.4-1.4.5-.5.1-1 .2-1.4.4-1 .2-2 .4-3 .5-1 0-2 .3-3 .4-1 .2-2 .2-3.1.2-1-.1-2.1-.1-3.1 0-.5 0-1 .1-1.5-.1s-1-.2-1.5-.1c-1 .1-2-.2-3-.3-1-.1-2-.3-2.9-.5-.2 0-.5-.1-.7-.2-.2-.1-.5-.2-.7-.2-.5 0-.9-.1-1.4-.2-.9-.3-1.8-.5-2.6-.7-.9-.2-1.7-.4-2.5-.6-.8-.2-1.6-.5-2.3-.6-1.5-.3-2.8-.9-4-1.3-1.2-.5-2.3-.6-3.1-1-.9-.3-1.5-.5-2-.6-.5-.1-.7-.2-.7-.2l.1-.9zM1245.9 909.2s.4.1 1.3.2c.8.1 2 .4 3.6.7 1.6.2 3.4.8 5.5 1.2 1.1.2 2.2.5 3.4.8 1.2.3 2.4.6 3.7 1.1 1.2.5 2.6.8 4 1.3 1.3.5 2.8 1.1 4.2 1.7 1.4.6 2.9 1.2 4.4 1.8.8.3 1.5.7 2.2 1 .7.4 1.5.6 2.3 1 1.5.7 3 1.5 4.6 2.2.8.4 1.5.8 2.3 1.2l1.2.6c.4.2.8.4 1.1.7l1.1.7 1.2.6c.8.4 1.6.8 2.3 1.3.8.4 1.5.9 2.3 1.3l2.4 1.2c1.6.8 3.1 1.7 4.7 2.5 1.6.9 3.1 1.8 4.7 2.5s3.2 1.3 4.9 1.1c.8-.1 1.5-.4 2.2-.9.6-.4 1.2-1 1.4-1.7.1-.4.2-.7.1-1.1 0-.4-.2-.7-.3-1.1-.3-.7-.8-1.3-1.3-1.9-.5-.6-1.1-1.2-1.5-2-.2-.3-.3-.7-.5-1.1l-.3-1.2c-.3-1.6-.2-3.2.3-4.6.5-1.4 1-2.7 1.9-3.8.9-1 1.6-2.2 2.7-2.8 1-.7 2.1-1.3 3.1-1.7 1-.5 1.9-.9 2.8-1.2.9-.3 1.8-.5 2.5-.7 1.5-.5 2.7-.7 3.5-.9.8-.2 1.3-.3 1.3-.3l.2.8s-.4.1-1.3.3c-.8.2-2 .4-3.5.8-.8.2-1.6.5-2.4.8-.9.4-1.8.7-2.8 1.1-1 .5-1.9 1.1-2.8 1.8-.9.8-2 1.4-2.6 2.6-.6 1.1-1.5 2.2-1.8 3.6-.3 1.4-.5 2.8-.2 4.2.1.4.1.7.3 1.1.1.3.3.7.5 1 .4.6.8 1.3 1.3 1.9.5.6 1 1.3 1.3 2.1.2.4.3.8.3 1.3.1.4 0 .9-.1 1.4-.2.9-.8 1.7-1.6 2.2-.8.5-1.6.9-2.6 1-1.8.2-3.7-.5-5.2-1.4-1.5-.9-3.1-1.7-4.7-2.5s-3.2-1.6-4.7-2.5c-.8-.4-1.5-.9-2.3-1.3-.8-.4-1.6-.8-2.4-1.1-.8-.4-1.6-.7-2.3-1.2-.7-.5-1.5-.9-2.3-1.2-1.7-.6-3.1-1.5-4.7-2.3-1.5-.7-3.1-1.5-4.6-2.2-.8-.3-1.5-.8-2.2-1.1-.8-.3-1.5-.6-2.2-.9-1.4-.7-2.9-1.3-4.3-1.9-1.4-.6-2.8-1.1-4.2-1.5-1.3-.5-2.7-1-4-1.3-2.6-.7-4.9-1.5-7-2-.5-.1-1-.3-1.5-.4-.5-.1-1-.2-1.4-.3-.9-.1-1.8-.4-2.5-.5-1.5-.3-2.8-.4-3.6-.6-.8-.1-1.3-.2-1.3-.2l-.1-1.3z"/><path class="st8" d="M1153.2 906.7h2.9c1 0 2.1 0 3.5.1s3 .1 4.7.1c.9 0 1.8-.1 2.8-.2 1 0 2 0 3.1.1s2.2.2 3.3.2c1.2 0 2.4-.1 3.6-.1 2.5-.1 5.1-.2 7.9-.4 1.4 0 2.8-.1 4.3-.1s2.9.1 4.5.2c1.5.1 3.1.1 4.7 0s3.2-.2 4.8-.2c3.3.1 6.7.2 10.2.4 3.5.1 7.1.1 10.7-.2.9 0 1.8-.1 2.8 0 .9.1 1.9.2 2.8.3.9.1 1.9 0 2.8-.1.9-.1 1.9 0 2.8 0 3.8 0 7.7.1 11.6.2h8.9c1 0 2 .1 3 .2 2 .2 4 .3 6 0 2-.2 4-.1 6.1 0 2 .1 4 .3 6.1.3 2 0 4.1 0 6.1-.1 4.1-.1 8.1 0 12.2 0 2 0 4 .1 6.1.1 2 .1 4-.1 6-.2 4-.2 8-.3 11.9-.5 2 0 3.9-.1 5.8-.1h2.9c1 .1 1.9.1 2.9.2 3.8.2 7.5-.1 11.2-.2 1.8 0 3.6-.2 5.4-.2 1.8.1 3.6.2 5.3.1 1.7 0 3.5-.1 5.2-.1 1.7-.1 3.4.1 5 .3 3.3.3 6.5-.2 9.5.1 3 .4 6-.4 8.7-.1 2.8.2 5.4.3 7.9.3 1.2 0 2.4-.1 3.6-.1h3.3c2.1.1 4.1.2 5.9.1 1.8-.1 3.4-.2 4.7-.3 1.4 0 2.6-.1 3.5-.1H1413.1v2.4h-6.4c-1.4 0-3-.1-4.7-.2-1.8-.1-3.7 0-5.9.2-2.1.2-4.5 0-6.9-.1-2.5 0-5.1.2-7.9.4-1.4.1-2.8.1-4.3-.1-1.5-.3-2.9-.3-4.5-.1-3 .4-6.2-.4-9.5-.1-3.3.4-6.7.2-10.2 0-1.7-.1-3.5 0-5.3.1-1.8 0-3.6-.1-5.4-.1-3.7-.1-7.4-.4-11.2 0-1 .1-1.9.2-2.9.2s-1.9.1-2.9.1h-5.8c-2 0-3.9-.1-5.9-.1-2 0-4-.1-6-.3-2-.2-4-.3-6-.2-2 .1-4 .2-6.1.3-4 .1-8.1.3-12.2.2-2-.1-4.1-.3-6.1-.3-1 0-2 .1-3 .1l-3 .3c-1 .1-2 .2-3 .2-1 .1-2 0-3-.2-2-.4-4-.4-6 0-1 .2-2 .2-3 .3-1 .1-2 0-3 0-2-.1-3.9-.1-5.9-.2-3.9 0-7.8-.1-11.6-.1-1 0-1.9 0-2.8-.1-.9-.2-1.9-.3-2.8-.2-.9 0-1.9.2-2.8.2h-2.8c-3.7-.3-7.2-.3-10.7-.4-3.5 0-6.9 0-10.2.1-1.6 0-3.3 0-4.8-.1-1.6 0-3.1 0-4.7.1-6.1.5-11.7 0-16.6 0-1.2 0-2.4-.1-3.6-.1-1.2 0-2.3.1-3.3.2-1.1.1-2.1.1-3.1.1s-1.9-.1-2.8-.1c-1.8 0-3.4.1-4.7.1-1.4.1-2.6.1-3.5.1-1.9 0-2.9.1-2.9.1v-2.7zM1153.2 1021.2h2.9c1.9 0 4.7.1 8.2.1 1.8-.1 3.7-.2 5.9 0 1.1 0 2.2.1 3.3.1 1.2 0 2.4 0 3.6-.1 2.5-.1 5.1-.1 7.9-.2 1.4 0 2.8-.1 4.3-.1s2.9.1 4.5.1c.8 0 1.5 0 2.3.1.8 0 1.6 0 2.4-.1 1.6 0 3.2-.1 4.8-.1 3.3.1 6.7.2 10.2.2 3.5 0 7.1.1 10.7-.1.9 0 1.8-.1 2.8 0 .9.1 1.9.1 2.8.2.9.1 1.9 0 2.8-.1.9-.1 1.9 0 2.8 0 3.8 0 7.7.1 11.6.1h8.9c1 0 2 .1 3 .1s2 .1 3 .1 2 0 3-.1c2-.1 4 0 6.1 0 2 0 4 .2 6.1.2l6.1-.1c4.1-.1 8.1 0 12.2 0 4 0 8.1.1 12.1 0 4-.2 8-.2 11.9-.3 2 0 3.9 0 5.8-.1 1.9 0 3.9.1 5.8.1 1 0 1.9 0 2.8.1.9 0 1.9 0 2.8-.1 1.9 0 3.7-.1 5.6-.1 1.8 0 3.6-.1 5.4-.1 1.8 0 3.6.1 5.3.1 1.7 0 3.5-.1 5.2-.1h2.5c.8 0 1.7.1 2.5.1 3.3.2 6.5-.1 9.5.1 3 .3 6-.3 8.7-.1 2.8.1 5.4.2 7.9.2s4.8-.2 6.9-.1c2.1 0 4.1.1 5.9 0 1.8-.1 3.4-.1 4.7-.2h6.4v1.6h-6.4c-1.4 0-3-.1-4.7-.1-1.8-.1-3.7 0-5.9.1-.5 0-1.1 0-1.6.1h-1.7c-1.2 0-2.4-.1-3.6-.1-2.5 0-5.1.1-7.9.2-2.8.3-5.7-.5-8.7-.1-3 .3-6.2-.3-9.5-.1-3.3.3-6.7.1-10.2 0-1.7-.1-3.5 0-5.3 0-1.8.1-3.6 0-5.4-.1-1.8 0-3.7-.1-5.6-.1-1.9 0-3.8 0-5.7.1-3.8.3-7.7.2-11.6.2-3.9-.1-7.9-.1-11.9-.3-2-.1-4-.2-6-.1-2 0-4 .1-6.1.2-4 .1-8.1.2-12.2.1-2-.1-4.1-.2-6.1-.2-1 0-2 .1-3 .1l-3 .2c-2 .1-4 .2-6.1 0-2-.3-4-.2-6 0s-4 .3-6 .2c-2 0-3.9-.1-5.9-.1-3.9 0-7.8 0-11.6-.1-1 0-1.9 0-2.8-.1-.9-.1-1.9-.2-2.8-.1-.9 0-1.9.1-2.8.1h-2.8c-3.7-.2-7.2-.2-10.7-.2h-10.2c-3.3 0-6.5-.1-9.5 0-1.5 0-3 .1-4.5.1h-4.3c-2.8 0-5.4-.1-7.9-.1-1.2 0-2.4-.1-3.6 0-1.2 0-2.3.1-3.3.1-2.1.1-4.1 0-5.9 0-3.6.1-6.3.1-8.2.1h-2.9v-1.4z"/><path class="st73" d="M1337.8 1012.6c-39.2-4-78.5-8-117.7-12.1-1.7-.2-3.4-.4-4.9-1.2-10.8-6.3.1-57.7.7-68.9.2-3.1.8-6.8 3.6-8 1.1-.5 2.4-.5 3.6-.5 40.1.3 80.3 3.2 120 8.8 2.8.4 6 1 7.8 3.2 2 2.5 1.6 6.1 1.1 9.3-1.2 6.5-6.7 70.1-14.2 69.4z"/><path class="st11" d="M1311.1 965s-.5-.3-1.5-1c-1-.6-2.4-1.6-4.2-2.9l-1.5-.9c-.5-.3-1-.7-1.5-1.1-.5-.4-1-.9-1.6-1.3-.6-.4-1.2-.8-1.9-1.2-1.3-.8-2.7-1.7-4.1-2.5-.7-.4-1.5-.9-2.3-1.3-.8-.5-1.5-1-2.3-1.5-.4-.3-.8-.5-1.2-.7-.4-.2-.8-.4-1.3-.6-.9-.4-1.8-.7-2.7-1.2-1.8-.9-3.7-1.7-5.7-2.3-2-.5-4.2-.9-6.3-.4-.5.1-1 .2-1.6.3-.6.1-1.1.2-1.7.3-.6.1-1.1.3-1.6.5s-1.1.4-1.7.5c-2.2.7-4.5 1.3-6.8 2.1-1.1.4-2.3.8-3.4 1.2l-1.7.6-1.8.6c-1.2.3-2.3.8-3.4 1.4-1.1.6-2.3 1.1-3.4 1.5-1.1.4-2.1 1.2-1.7 2.4.2.5.6.9 1.1 1.3.5.4 1 .6 1.6 1 2.2 1.2 4.3 2.7 6.4 4 2.1 1.4 4.1 2.9 6.2 4.1 2.1 1.3 4.2 2.6 6.2 3.9 2 1.3 4 2.6 5.9 4.1 3.9 2.7 8 4.7 11.6 6.7 1.9.9 3.9 1.5 5.7 2.2 1.9.7 3.8.6 5.6.8.9.1 1.9 0 2.7-.3l1.2-.3 1.2-.3c1.6-.4 3.1-.9 4.5-1.6.7-.4 1.3-.8 1.9-1.1l.9-.6c.3-.2.6-.3.9-.5 1.1-.7 2.1-1.3 3-2 .8-.7 1.5-1.4 2.2-1.9.6-.6 1.2-1 1.6-1.4.9-.8 1.4-1.2 1.4-1.2l1 1.2s-.5.4-1.4 1.2c-.5.4-1 .8-1.7 1.4-.7.5-1.5 1.1-2.4 1.7-.9.6-1.9 1.4-2.9 2.2-1.1.8-2.4 1.5-3.8 2.1-1.4.7-2.9 1.5-4.6 2.1-.8.3-1.7.6-2.7.5h-1.4l-.7.1c-.1 0-.2 0-.4.1h-.4c-2 .3-4-.5-6-.8-2.1-.2-4.1-1.2-6-2.2l-3-1.5c-1-.5-1.9-1.2-2.9-1.8-1.9-1.2-3.8-2.7-5.8-3.8-2.1-1-4.1-2.5-6.1-3.8-2-1.4-4-2.8-5.9-4.4-1-.8-1.9-1.6-3-2.2-1.1-.6-2.1-1.3-3.2-1.9-2.1-1.3-4.3-2.6-6.4-3.9-1-.7-2.2-1.4-2.9-2.9-.1-.2-.1-.4-.1-.6V956.6c.1-.5.2-.9.4-1.2.4-.7 1-1.1 1.6-1.5.6-.4 1.1-.6 1.7-.9.5-.3 1.2-.5 1.8-.6 1.3-.2 2.4-.8 3.5-1.4 1.1-.7 2.2-1.2 3.4-1.5 1.2-.4 2.3-.8 3.5-1.1 2.3-.8 4.6-1.5 6.9-2.2.6-.2 1.1-.3 1.7-.4.6-.1 1.2-.2 1.7-.4.6-.2 1.1-.4 1.6-.6.6-.2 1.2-.3 1.8-.3 2.4-.1 4.7.2 6.8.8 2.1.5 4.1 1.3 6 2.1 1.9.9 3.6 1.9 5.3 2.7.8.4 1.7.8 2.5 1.3s1.5 1 2.2 1.5c1.4 1 2.8 1.9 4 2.8.6.4 1.2.9 1.8 1.3.6.4 1.2.7 1.8 1.1 1.2.6 2.1 1.4 3 2.1 1.8 1.2 3.3 2 4.3 2.6 1 .6 1.6.9 1.6.9l-1.1 1.3z"/><path class="st11" d="M1244.1 963.7s0 .1.1.3c0 .1.1.6.1 1s0 .9-.1 1.4c-.1.5-.2 1.1-.3 1.7 0 .3 0 .6.1.9.1.3.1.6.2.9 0 .1 0 .1.1.2 0 .1.1.1.1.2.1.2.2.3.3.5.2.3.6.6 1 .9 1.5 1.2 3.3 2.2 4.9 3.8.8.8 1.9 1.3 2.9 2 .5.4 1 .7 1.5 1.1l1.5 1.2c.5.4 1.1.8 1.7 1.1.6.4 1.2.7 1.8.9.3.2.6.3.9.5.3.2.5.5.8.7.3.2.6.4.9.5.3.1.6.3.9.5 1.2.7 2.5 1.5 3.7 2.2.6.3 1.3.7 2 1.1.7.3 1.3.7 1.9 1.2.6.5 1.2.9 2 1.1.7.2 1.4.7 2 1.1 1.2.9 2.6 1.6 4 2.2 1.4.7 2.7 1.4 4.1 2 1.4.7 2.7 1.3 4.2 1.6 1.5.3 2.9.6 4.3.6 1.4.1 2.8 0 4.2.1 1.4 0 2.7-.5 3.9-1 .6-.2 1.2-.5 1.8-.8.6-.2 1.3-.4 1.8-.7 1.1-.6 2.1-1.4 3.3-1.8 1.2-.5 1.9-1.4 2.9-2 1.1-.5 1.6-1.6 2.5-2.1.9-.6 1.6-1.2 2.2-1.9.6-.7.9-1.5 1.4-2.1.5-.6.8-1.2.9-1.9.2-1.2 0-2.1-.3-2.6s-.5-.7-.5-.7l1.2-1s.1.1.2.3c.1.2.3.4.5.9.2.4.3.9.4 1.5 0 .6-.1 1.3-.4 2-.3.7-.5 1.4-.8 2.2-.3.8-1 1.5-1.7 2.2-.6.7-1.3 1.5-2.1 2.3-.4.4-.8.8-1.3 1-.5.2-1 .6-1.4 1-.8.9-2.1 1.2-3 2.1-.9.9-2.1 1.4-3.4 1.9-.6.2-1.2.6-1.8.9-.6.3-1.3.5-2 .7-.7.2-1.4.3-2.1.4-.7.1-1.4.3-2.2.4-.8.2-1.4.3-2.2.3-.8 0-1.5-.1-2.3-.2-1.5-.3-3-.6-4.4-1.3-.7-.3-1.4-.7-2.1-.9-.7-.2-1.5-.4-2.2-.7-1.4-.6-2.9-1.2-4.2-1.9-.7-.4-1.3-.9-1.9-1.2-.7-.4-1.4-.6-2.2-.8-.7-.2-1.5-.5-2-1.1-.5-.6-1.2-.9-2-1.1-.8-.2-1.5-.5-2.1-.9-.6-.4-1.3-.8-1.9-1.2-1.3-.7-2.6-1.4-3.8-2.2l-.9-.6c-.3-.3-.5-.5-.9-.6-.3-.2-.7-.3-1-.4l-.9-.6c-1.1-.9-2.2-1.6-3.3-2.4-1.1-.7-2.2-1.4-3.2-2.1-1-.7-1.9-1.5-2.9-2.1-.5-.3-1-.6-1.4-.9-.4-.3-.8-.7-1.2-1.1-.8-.7-1.5-1.4-2.1-2.1-.4-.3-.7-.7-1-1-.3-.3-.7-.7-.9-1.1-.2-.4-.4-.9-.4-1.3s.1-.8.1-1.2c.1-1.4.2-2.4.2-3 0-.3 0-.4-.1-.7 0-.2-.1-.3-.1-.3h1.5z"/><path class="st11" d="M1267.1 954.2l1-1c.4-.3.8-.7 1.3-.8l.7-.3c.2-.1.5-.1.7-.3.4-.2.9-.4 1.4-.5 1-.1 2 .1 2.9 0 .5 0 1 .1 1.4.1.5.1 1 .1 1.4.2.9.2 1.9.4 2.7.8.8.5 1.7.9 2.6 1.1.9.3 1.7.8 2.5 1.3s1.5 1.1 2.3 1.6c.4.3.8.5 1.2.7.4.3.8.5 1.2.7.4.2.8.4 1.2.7.4.3.6.7 1 1 .9.4 1.6 1 2.3 1.6l2.1 1.8 2.1 1.8c.4.3.7.6 1 1 .3.4.6.7.9 1 .3.3.7.6 1.1.8.4.3.7.6 1 .9.6.7 1.2 1.4 1.9 2l.3.3-.4.2c-.9.5-1.7 1-2.6 1.5-.9.4-1.8.8-2.8 1.2-.9.4-1.9.6-2.9.9-1 .3-1.9.7-3 .9-1 .2-2 .3-3.1.2-.5 0-1-.1-1.5-.2s-1-.2-1.5-.4c-1-.4-1.9-.9-2.9-1.2-1-.4-1.9-.7-2.8-1.2-.5-.2-.9-.5-1.3-.8-.4-.3-.8-.6-1.3-.8-.9-.5-1.8-1-2.5-1.7-.4-.4-.7-.7-1.2-1-.4-.3-.9-.5-1.3-.8-.4-.3-.7-.7-1.2-1-.4-.3-.9-.4-1.3-.7-.8-.6-1.5-1.3-2.3-1.9-.8-.6-1.8-1-2.5-1.6l-1.2-.9c-.4-.3-.9-.5-1.3-.7-.5-.2-.9-.5-1.3-.7-.4-.2-.9-.5-1.3-.8l.8-1.4c.4.2.9.5 1.3.8.4.3.8.5 1.2.9l1.2.9c.4.3.9.5 1.3.7.9.4 1.6 1.2 2.5 1.7.8.6 1.8.9 2.6 1.5.4.3.7.8 1.1 1.1.4.3.9.5 1.3.7.4.3.8.7 1.1 1 .4.3.8.6 1.3.8.9.4 1.7 1.1 2.5 1.7.4.3.8.6 1.2.8.4.2.9.4 1.3.7.8.5 1.6 1.1 2.5 1.5.9.5 1.8.7 2.8.8.5.1.9.2 1.4.3.4.1.9.1 1.4.2.9.1 1.9.1 2.8.1.9-.1 2 0 2.9-.3.9-.3 1.8-.8 2.7-1.2l2.6-1.3c.9-.5 1.9-.7 2.8-1.1l-.1 1c-.6-.7-1.5-1.1-2.3-1.6-.4-.3-.8-.5-1-.9-.3-.4-.5-.8-.8-1.1-.4-.3-.8-.5-1.2-.7-.4-.2-.8-.5-1.1-.8-.7-.6-1.3-1.3-2-1.8l-2.1-1.7c-.7-.6-1.5-1.1-2-1.8-.4-.3-.8-.4-1.2-.7-.4-.2-.7-.5-1.1-.8-.7-.6-1.4-1.1-2.2-1.6-.7-.5-1.5-.9-2.3-1.4l-2.4-1.3-1.2-.6c-.4-.1-.9-.3-1.3-.4-.4-.1-.9-.2-1.3-.4-.4-.1-.8-.3-1.3-.4-.8-.3-1.7-.5-2.6-.6-.4 0-.9-.1-1.3 0s-.9.2-1.3.3c-.4.1-.8.1-1.2.3-.4.1-.8.3-1.1.6-.2.1-.3.2-.5.4l-.5.4c-.3.3-.6.7-.9 1l-1-1.3zM1235.8 946.6h.1s.2-.1.4-.1c.1 0 .3.1.5.1.1 0 .2-.1.3-.1.1 0 .2.1.2.1.1.1.1.2.2.2s.2.1.3.1l.6.3c.1.1.2.2.2.3.1.1 0 .3 0 .4 0 .1 0 .3.1.4.1.1.2.3.2.4 0 .2-.1.3-.2.5l-.1.1-.1.2c-.2.2-.3.4-.4.7 0 .1-.1.1-.1.1h-.3c-.1 0-.1.1-.1.2s-.1.1-.1.1c-.2.1-.5.2-.7.2l-.4.1c-.1.1-.3 0-.4-.1-.1-.1-.3-.2-.4 0-.1.1-.2.1-.4 0-.1-.1-.2-.2-.4-.2h-.4c-.2 0-.5-.1-.7-.2-.1 0-.2-.2-.3-.2-.1-.1-.2-.1-.4-.1-.3 0-.5-.1-.8-.2-.2-.1-.5-.3-.4-.7 0-.2-.1-.2-.2-.4 0-.1-.1 0-.2-.2l-.1-.1c-.1 0-.2-.2-.2-.4 0-.1.1-.2.1-.2v-.2c0-.1-.1-.3-.1-.4 0-.1.1-.2.3-.3.3-.1.1-.5.4-.6.1 0 .2-.1.1-.3 0-.2 0-.2.1-.3.2-.1.4-.1.5-.2.1-.1.2-.3.4-.3s.3 0 .4-.1c.2-.2.5-.3.6-.3h.2l-.4 1.6h-.1s-.1 0-.2-.1h-.1v.2c0 .1 0 .1-.1.1 0 0-.1-.1-.1 0-.1 0-.1.2 0 .3.2.2-.5-.1-.3.1s-.4.1-.2.3c.2.2.1.2-.1.3-.1 0 0 .1.1.2v.5c0 .1 0 .1.2.1.3 0 .3.1.4.2 0 .1.2.2.2.5 0 .1.1.3.2.3s.2-.1.3-.1c.2 0 .4-.1.5 0 .1.1.1.2.2.3.1 0 .2-.1.3-.3.1-.1.1-.3.3 0 .1.3.2.2.2 0s.1-.3.2-.2c.1 0 .2.1.3 0 .2 0 .3-.1.4-.1h.1c.1.1.2.1.2 0v-.2h.1c.2.1.3-.1.4-.2 0 0 0-.1.1-.2v-.1c0-.1.1-.2-.1-.3-.2 0-.2-.1-.2-.2s0-.2-.1-.3l-.1-.1s-.1 0-.1.1c0 0-.1.1-.1 0v-.1l-.1.1s.1 0 0 0l-.1.1-.5-1.1zM1246.9 935.4s.1 0 .2.1c.2 0 .4.2.7.3h.3c.1 0 .2.1.3.1.1.1.2.2.3.2.1 0 .2.1.3.1.2 0 .5.1.8.2.3.1.6.3.7.7.1.2.2.3.3.5.2.1.3.3.4.5.1.4 0 .8-.1 1.3-.1.4-.3.7-.4 1.2 0 .1-.1.2-.2.3-.1 0-.2.1-.3.1-.1 0-.1.1-.2.3 0 .1-.1.1-.2.2-.3.2-.7.4-1.1.5-.2.1-.4.1-.6.2-.3.1-.4.1-.6 0-.2-.1-.4-.1-.6 0-.2.1-.4.1-.6 0-.2-.1-.4-.2-.5-.3h-.6c-.4-.1-.7-.2-1-.4-.2-.1-.3-.2-.4-.4-.1-.1-.3-.2-.5-.2-.4-.1-.7-.4-1-.7-.3-.3-.5-.6-.5-1.1v-.3c-.1-.2-.1-.2-.1-.3 0-.1-.1-.1-.1-.2l-.1-.3c-.1-.2-.1-.4-.1-.6.1-.2.2-.4.2-.5v-.6c0-.2.2-.3.4-.4.4-.2.2-.6.6-.8.4-.1.2-.7.5-.7.3-.1.5-.2.7-.3.2-.1.3-.4.6-.4.2 0 .4 0 .6-.1.3-.2.7-.3.9-.3h.3l-.3 1.6h-.2c-.1 0-.3 0-.5-.1h-.2c-.1 0-.1.1-.1.2-.1.2-.3.1-.4.1-.1.1-.2.3-.3.5 0 .1-.1.2-.3.1-.2 0-.3 0-.2.2.1.3-.5.2-.4.5 0 .1.1.3 0 .4l-.3.3c-.1.1 0 .2 0 .4 0 .1 0 .2-.1.3l-.1.2v.4c0 .1.1.1.2.2.3.1.4.4.6.6.1.1.1.2.2.4.1.1.1.3.2.4 0 .2.1.4.3.4.2 0 .4 0 .5.1.3.1.6.1.9.2.1.1.2.3.4.3h.2l.2-.2c.2-.1.3-.3.4 0 .1.3.3.2.4 0 .1-.1.1-.2.2-.2h.1c-.1 0 0 0 0 0h.4c.3-.1.5-.2.7-.3.1 0 .1-.1.2-.1h.2v-.2c0-.1.1-.1.1-.1.3-.1.4-.3.5-.5 0-.2 0-.4-.1-.6-.1-.2-.1-.4-.3-.5-.3 0-.4-.1-.5-.3l-.4-.4c-.1-.1-.2-.1-.3-.1h-.5c-.1 0-.1-.1-.2-.1h-1l.5-2zM1315.3 974.1s-.1 0-.4-.1c-.1 0-.4-.1-.7-.2-.2-.1-.5-.2-.8-.4-.1-.1-.3-.1-.5-.2s-.3-.2-.4-.4c-.1-.2-.2-.3-.3-.5-.1-.2-.3-.3-.4-.4-.3-.3-.6-.6-.9-1.1-.1-.2-.2-.4-.3-.7-.1-.2-.1-.5 0-.8 0-.3 0-.5-.1-.8-.1-.3-.1-.6-.1-.9.1-.3.1-.6.3-.9.1-.2.2-.4.4-.7.3-.6.7-1 1-1.6l.3-.3c.1-.1.3-.1.5-.2.2 0 .2-.2.3-.3.1-.2.3-.2.4-.3.5-.3 1.2-.5 1.8-.7.3-.1.6-.2.9-.2.3-.1.7 0 1 .1.3.2.6.2 1 .1s.7.1.9.3c.1.1.3.2.4.3l.4.3c.1.1.3.2.4.2.1.1.3.2.4.3.5.4.9.9 1.2 1.5.2.3.2.6.3.9.1.3.3.6.4.9.3.6.4 1.2.5 1.9 0 .6 0 1.3-.4 1.9-.3.5-.4 1.2-.8 1.7-.1.2-.1.2-.3.4l-.3.3c-.1.1-.2.1-.4.2-.1.1-.3.2-.4.3-.5.4-1 .8-1.6.7-.3 0-.5.1-.8.1-.2.1-.5.1-.8.1-.5-.2-1 .3-1.4.1-.4-.2-.8-.3-1.2-.4-.4-.1-.8-.1-1.1-.3-.3-.3-.5-.4-.8-.6-.6-.2-.9-.5-1.2-.8-.2-.2-.3-.4-.3-.4l1.3-.9s.1.1.2.3l.3.3c.1.1.2.3.4.5.1.2.4.2.7.3.3 0 .5.3.8.4.1.1.3.1.5.1s.4 0 .5-.1c.2 0 .4 0 .5.1.2.2.4.2.6 0 .3-.3.9.2 1.2-.2.3-.4.7-.4 1.2-.5.2-.1.3-.2.5-.5l.3-.3.2-.2c.4-.3.7-.7.7-1.2-.1-.5 0-1 .1-1.5s.1-1 .2-1.6c.1-.3 0-.6-.1-.8-.2-.2-.4-.4-.5-.6-.3-.4-.8-.7-1-1.1-.1-.1-.1-.2-.2-.3l-.3-.3c-.2-.1-.5-.1-.8-.1-.1 0-.3.1-.4 0-.1 0-.2-.1-.3-.2-.2-.4-.5-.3-.7-.1-.3.2-.5.3-.7.2h-.7c-.5.1-.9.3-1.4.5-.1 0-.2.1-.4.1s-.3 0-.4.1c-.1.1-.1.2-.2.3-.1.1-.2.2-.3.2-.5.2-.8.6-1 1-.1.2-.2.4-.3.7-.1.2-.1.4-.1.6-.1.4-.2.9 0 1.2.5.7.4 1.4.8 2 .1.1.2.3.3.4.1.1.3.1.4.2.1.1.3.1.3.2l.2.2c.2.1.4.1.6.1h.8l.1 2.1zM1329.1 973h.3c.1 0 .2 0 .4.1s.3.2.5.2h.3c.1 0 .2.1.3.2l.3.3c.1.1.2.1.3.2.5.2 1.3.4 1.4 1.2 0 .2.1.3.3.5.1.1.3.2.3.4.1.4.1.8.1 1.2v.6c0 .2.1.4.1.6v.3c-.1.1-.2.2-.2.3-.1.1-.1.2 0 .3 0 .1 0 .2-.1.3-.1.2-.2.4-.4.6-.1.1-.2.3-.4.5s-.3.4-.5.5c-.1.1-.2.2-.3.2-.1 0-.2.1-.4.1-.3 0-.5 0-.6.3-.1.2-.4.2-.6.2-.5-.1-.8 0-1.3.1-.4.1-.8 0-1.2-.1-.2-.1-.4-.1-.6-.2-.2-.1-.4-.1-.6-.1-.2 0-.4-.1-.6-.2l-.6-.3c-.2-.1-.3-.3-.5-.5-.1-.1 0 0-.1-.2v-.4c0-.2-.1-.4-.2-.6l-.3-.6c-.1-.2-.2-.4-.2-.6.1-.2.2-.4.1-.6v-.6c0-.2.2-.4.3-.5.3-.3.1-.7.5-.9.4-.2.1-.7.4-.8.3-.2.5-.3.7-.5.2-.2.3-.5.5-.5.2-.1.5-.1.6-.3.3-.3.6-.4.8-.5.2-.1.3-.1.3-.1l.2 1.6s-.1 0-.2.1c-.1 0-.3.1-.6 0-.1 0-.3.2-.3.4-.1.2-.3.2-.5.3-.2.1-.2.4-.2.6 0 .1-.1.2-.3.2-.2 0-.3.1-.2.3.1.3-.5.3-.3.7.2.3 0 .5-.2.8-.1.1 0 .3.1.4v.4c0 .3-.1.6.2.8l.3.2.1.1c-.1-.1 0 0 0-.1l.3.3c.1.3.4.4.5.8.1.2.2.3.4.3s.4-.1.5-.1c.3 0 .7-.1 1 0 .2 0 .3.2.5.2s.3-.2.4-.4c.1-.2.2-.3.4-.2.3.2.4.1.4-.2 0-.3.1-.4.2-.4.1-.1.2-.1.3-.2.1 0 .2-.2.3-.4.1 0 .1-.2.2-.3.1-.1 0-.1.1-.2.1 0 .2-.1.2-.2s-.1-.2-.1-.2c0-.1 0-.1.1-.2.2-.3.2-.6.2-.9-.1-.3-.2-.6-.3-.8-.1-.2-.1-.6-.4-.7-.1-.1-.3-.1-.3-.2-.1-.1-.1-.2-.2-.3-.1-.2-.2-.4-.4-.6l-.2-.2h-.5l-.2-.2H1328.8l.3-1.6zM1326.1 954.3h.3c.2 0 .4.1.6.2.1.1.3.2.4.3.1.1.4.1.5.2.1.1.2.3.2.4 0 .2.1.2.2.4.2.2.4.4.5.7.2.3.3.5.3.9-.1.3-.2.6-.2.9 0 .2.1.3 0 .5 0 .2-.1.3-.2.4-.2.3-.5.5-.7.7l-.3.2-.3.3c-.2.2-.4.6-.7.4-.4-.2-.5.3-.8.3-.3.1-.5 0-.8 0-.3 0-.5 0-.8-.1-.3 0-.5 0-.7-.2-.1-.1-.2-.2-.3-.2-.1-.1-.3 0-.4 0-.3 0-.4-.2-.6-.4-.3-.4-.9-.3-1.3-.7-.2-.2-.4-.3-.5-.5-.2-.2-.2-.5-.4-.7-.1-.2-.4-.4-.5-.7-.1-.1-.1-.3-.1-.4 0-.1-.1-.2-.1-.4 0-.3.1-.6.2-.9.1-.3.5-.4.6-.6.4-.4.6-1.1 1.2-1.2.2 0 .3 0 .4-.1.1 0 .1-.1.2-.1l.2-.1c.1-.1.3-.1.4-.1.1 0 .3.1.4.1.3.1.5-.1.8 0 .1 0 .2.2.4.2.1 0 .3-.1.4-.1.3 0 .5.2.7.3.2.1.5.1.7.1l-.5 1.2c-.1 0-.2-.2-.3-.3-.1-.1-.3-.2-.4-.2-.3 0-.6-.2-.9-.3l.8-1.4c.3.1.5.3.7.6.1.1.2.2.4.2s.4 0 .5.1l4 3.7-4.7-2.1c-.1 0-.2-.1-.3-.2-.1 0-.2-.1-.3 0-.2 0-.5.2-.7.1-.1-.1-.2-.3-.3-.3-.1 0-.2.1-.3.1-.2 0-.4-.3-.6-.1-.1.1-.2.2-.3.2h-.5-.1c-.1 0-.2.1-.2.2-.2.2-.8.1-.9.5-.1.2 0 .4 0 .6 0 .1-.1.3-.1.4v.5c0 .1-.2.4-.1.6.1.2.3.2.5.3.2.1.3.2.5.3.2.1.3.2.4.4.1.2.3.3.5.3.3-.1.5-.3.6 0 .1.1.1.4.2.4s.2-.1.3-.2c.2-.2.4-.1.6 0 .2.1.4.1.6.1h.6c.1-.1.5.3.6 0 .1-.3.3-.1.5-.2.1 0 .2-.1.3-.1.1 0 .2-.1.3-.2.2-.2.3-.6.5-.9.1-.2-.1-.4-.2-.6-.1-.2-.1-.3-.1-.5s0-.4-.1-.6c0-.2-.3-.2-.5-.3-.1 0-.1-.2-.1-.2H1326.3l-.2-2.1z"/><path class="st11" d="M1244.4 938.9s.1-.1.4-.3c.3-.3.8-.5 1.4-.7.1-.1.3-.2.4-.3.2-.1.4-.1.6-.1h.6c.2 0 .4-.1.6-.1.4-.1.9-.2 1.5-.1.3 0 .5.1.8.1.3.1.5.3.7.4.1.1.2.2.4.3.2.1.2.2.4.2.2.1.6.3.8.5.4.5.7 1.1.9 1.7.3.6.4 1.2.7 1.8 0 .2.1.3.1.5s-.1.4-.2.5c-.1.2 0 .3 0 .5.1.2 0 .4 0 .5-.1.4-.2.7-.4 1-.1.1-.1.3-.2.4l-.3.5c-.2.3-.4.6-.7.8-.2.3-.5.5-.9.6-.4.1-.7.2-.9.6-.1.1-.3.2-.4.3-.2.1-.3.1-.5.1-.7 0-1.3.3-2 .5s-1.4.2-2 .1c-.3 0-.7-.1-1-.2-.3-.1-.7-.1-1-.1-.7 0-1.4-.3-2.1-.7l-.2-.2-.2-.2c-.2-.2-.3-.3-.4-.5-.2-.3-.3-.7-.4-1-.1-.7-.4-1.3-.5-2.1v-.4-.5c.1-.4.3-.7.3-1 .1-.6.3-1.3.9-1.6.5-.3.6-1 1.2-1.2.3-.1.5-.3.6-.5.1-.3.4-.4.6-.5.5-.1.9-.3 1.3-.4.4-.2.8-.4 1.2-.4h1c.6-.2 1.2-.1 1.5-.1.4.1.5.1.5.1l-.5 1.5s-.1 0-.4-.1c-.1 0-.3-.1-.5-.1s-.4-.1-.7-.2h-.4c-.1.1-.3.1-.4.2-.1.1-.3.1-.4.1-.2 0-.3 0-.5.1-.3.1-.6.4-.9.7-.2.4-1 .1-1.1.6-.1.5-.9.4-.9 1 0 .3-.1.5-.2.7-.1.2-.3.4-.4.6-.1.1-.1.2-.1.3v.3c0 .2-.1.6-.1.8-.1.4-.2 1.1.2 1.5l.5.5.2.2.1.1.1.1c.3.4.8.6 1.3.9.2.2.5.3.9.3.3 0 .6-.1.9-.1.6-.1 1.2-.2 1.8-.2.3 0 .6.1.9 0 .3-.1.5-.3.8-.6.2-.2.4-.5.8-.4h.5c.1-.1.2-.2.2-.4.1-.4.3-.5.5-.7.2-.2.4-.4.6-.5l.2-.3c.1-.1.1-.3.2-.4.1-.2.2-.5.3-.7.1-.1 0-.3.1-.4.1-.1.2-.3.2-.4 0-.1-.1-.3-.1-.4v-.4c.1-.5 0-1.1-.2-1.5-.2-.5-.5-.9-.9-1.2-.3-.3-.7-.7-1.1-.8-.2 0-.4 0-.6-.1-.2-.1-.4-.1-.6-.2-.4-.1-.8-.2-1.1-.2h-.5c-.2 0-.3.1-.4.2-.1.1-.3.2-.4.2-.1 0-.3 0-.4.1-.5.2-.7.6-.9.7l-.3.3-1.4-.5z"/><path class="st75" d="M1223.6 927c.4.4.6 1 .6 1.6-1.5.4-3.1.2-4.5-.5.8-.7 1.8-1.2 2.8-1.4-.6-.3-1.2-.7-1.8-1M1217.6 992.1c1.7.1 1.5 3.2-.2 3.5-1.7.3-3.1-1.5-3-3.2 0-.5.7-.6 1.2-.4s1 .4 1.4.1-.6-.8-.5-.3M1334.1 1003.4c1.2.9 1.7 2.8.9 4.1-1.8-.5-3.3-1.9-4-3.6l1.8-1.8M1344.8 936.4c.8 1.2-.9 3.1-2.2 2.4-1.3-.7-.7-3.1.8-3.1"/><path class="st11" d="M1194.7 195.3c-1.6 7.2-6.5 13.9-15.2 17.8-11.9 5.3-30.2 8.1-44.4.7-19.8-10.4 2.4-17.2 5.8-23.9 6.5-12.7 7.9-25.9 26.2-26.6 19.9-.8 30.9 16.8 27.6 32z"/><path class="st33" d="M1324.3 818.6s48.6 53.6 68.1 67.2l-3.9-33.3-15.7-1.3-29.6-53.7M1219 823.8l10.5 65.6-39 2.3c-1.7.1-5-5.7-3.4-6.4l24.8-12-23.3-79.1M1207 268.6c-7.7 16.8-6.2 46.4 9.2 59.3 6.1 5.1 14.7 6 21.8 9.7 13.7 7.1 24.1 19.2 32.9 31.9 33.9 49 115.9 121.8 115.9 121.8l-10.6 8.7c-46.8-31-112.3-87.2-138.6-107.4-4.1-3.1-15.3-7-19.3 4-15.1 41.6-19.5 76.9-.1 110.4 1.5 2.7-18.3 1.9-21.2 2.9-.9.3-1.9.3-2.8.2-27.1-1.4-50.6 7.3-76.4 14.3-4.2 1.1 3-113.6 3.5-118.4 1.4-13.2-7.1-26.3-6.7-39.4.3-9.3 7.9-30.8 3.8-34.1-78.2-62.8-107.2-117.2-123.2-157.6 2.9 1.1 7.4-3.2 9.4-5.6-3.1 3.5 36.8 50.5 41 55.3 12.5 14.2 26.3 27.3 41.3 38.8 17.7 13.7 36.7 27.4 58.1 34.8 8.6 3 19.8 6.8 28.6 3.1 9.8-4.1 4-38.4 4-38.4"/><path class="st10" d="M1181.3 585.2c10.9 61.9 21.8 123.8 32.7 185.6l6.9 39c2.1 12 1.9 28.1 8.2 38.1 1.6 2.5 2.6 6.1.7 8.4-2.7 3.2-7.7.9-11.7-.2-4.8-1.4-10.2-.6-14.4 2-2.9-3.1-2.3-8-2.8-12.2-1.1-8.9-7.7-19.4-10.8-28.2-3.3-9.4-6.6-18.7-9.8-28.1-7.7-22.2-15.4-44.5-22.9-66.8-13.8-41.1-28-82.3-38.9-124.3-.2-.9-.4-1.7-.7-2.6-12.8-50.7-3.7-95.7-3.7-95.7l63 11.5"/><path class="st22" d="M1173 546.4c0 15.7-12.1 31.4-12.1 47.1 0 10 .1 20.3 3.9 29.6 4 9.6 11.9 18 12 28.4 0 6.9-3.5 13.5-3.2 20.4.4 6.6 4.2 12.5 7.4 18.3 21.7 39.4 15.6 90.5 40.7 127.8-10.8-70.7-24.7-141.3-35.5-212-3.3-21.7-3.6-43.4-10.1-64.3"/><path class="st10" d="M1150.4 506.9c1.5 23.5 13.6 58.5 22.1 79.6 1.8 4.4 3.7 8.8 5.7 13.2 15.2 33.1 34.3 64.4 54 95 17 26.4 34.3 52.5 52.5 78.1 9.1 12.8 18.5 25.5 28.1 37.9 4.1 5.3 8 10.9 12.4 15.8.4.5 9.2 10.7 3.8 8.5 3.8 4.1 8.2 7.6 13 10.4 6.4-5.7 12.7-11.1 19.7-16 1.1-.8 2.3-1.6 2.8-2.9 1.2-2.9-1.8-5.8-4.4-7.5-12.2-7.8-20.4-30.9-27.3-43.6-10.5-19.5-20.5-39.4-29.8-59.5-23.2-50-43-101.9-55.9-155.5-9.8-40.9-33.6-68.8-33.6-68.8"/><path class="st9" d="M1229.4 878.2c4.1 3.5 5.1 14.8.9 17.6-4.6 3.1-16.8.8-22.2.8-5.2 0-28.2 3.4-31.6.5-3.7-3.2.7-9.6 4.4-11.9 5.7-3.7 12.3-4.4 19-3.4 5.6.8 12.1 1.5 17.7.2 2.2-.5 9-4.9 10.3-4.5.5 0 1 .3 1.5.7zM1374.4 850.8c0-.5.4-1.4 1.2-3 1-2.2 5.7-5.4 8.2-5.7 4.7-.7 4.8.2 8 4.6 5.1 7.2 7 16.7 10.4 24.8 1.3 3.2 11.3 21 10.1 23.2-2 3.9-9.8.9-12.6-.7-6.1-3.5-9.5-10.1-11.2-16.8-2.3-8.9-6.7-14.8-11-22.4-1.9-3-3.1-2.9-3.1-4z"/><path class="st76" d="M1211.6 405.7c-6.6-19.9 15.6-58.1 34-67.3-3.5-1.6-6.2-3.2-9.7-4.9-19 20.7-53 17.6-73.5 2.5-11.5-8.4-16-25.9-10.2-39.3-3.3-.1-5.7.8-8.7-.7.7.4-19.3 31.6-20.9 34.2-5.2 8.8-11.6 18-12 28.7-.3 7.5 3 20 4 27.4 3.4 24.9 1.1 48.4-7.5 71.9 2.9 14.1 16.7 23.5 30.7 27 15.7 3.9 31 1.3 46.6 2.2 16.1.9 33.8 9.1 47.5 17.1 2.2 1.3 1.2-11.7.9-12.6-1.4-4.2-7.4-8.2-9.9-11.9-5.7-8.6-9.1-22.5-9.7-32.8-2-29.5 6.7-16.5-1.6-41.5z"/><path class="st33" d="M1202.6 273.4c-4.9 4.6-11 7.4-17.5 10.7-1.8 0-2.5-2.2-3.5-3.6-1.7-2.3-4.9-2.7-7.8-2.5-2.8.2-5.7.9-8.4 0-8.7-2.7-11.5-17-13.3-24.6-2.9-11.9-2.8-24.3-1.8-36.4.6-7 1.7-14.4 6-19.9 4.8-6.2 12.9-9.1 20.4-10.5 3.4-.6 15.1-2.2 17.9.3l42.5 39.2c.5.4-16.7 23.5-17.8 25.1-4.1 5.7-8.2 11.4-12.2 17.2-1.5 1.9-3 3.5-4.5 5z"/><path class="st11" d="M1256.8 222.2c1.9-5.6 6.8-10.5 8.9-16.3 4.4-12.2-7.1-27.1-20-25.9-3 .3-6.2 1.2-9-.1-2.2-1.1-3.5-3.3-4.8-5.3-10-14.4-32.6-17.8-46.4-7-3.4 2.7-6.3 6.1-9.9 8.5-8.2 5.6-26-.4-20.1 15.1 2.9 7.7 16.8 13.8 23.5 17.4 9.8 5.3 14.2 15.1 16.1 25.6-.3-1.8 17.5-1.7 17.8 8.2.2 7.4-7.5 9-11 14.1-9.2 13.3-13.3 37.3 7 43 7.2 2 15.3-.2 20.9-5.1 1.7-1.5 3.2-3.2 5.1-4.3 6.7-3.9 15.2.8 23 .2 6.4-.5 12.1-4.8 15.5-10.2 3.4-5.4 4.8-11.9 5.4-18.3.2-2.5.3-5.1-.5-7.4-3.8-11.2-21.6-13-22.2-26.9-.2-1.9.1-3.6.7-5.3z"/><path class="st5" d="M1148.5 250.9c6.9-.1 13.8-.3 20.7-.4.5 0 1.1 0 1.6.2 2 .9 2.1 4.7 1.3 7.3-3.6 12-13.6 12-21.5 10.5"/><path class="st12" d="M1149.3 229.3l.4 15.1-8.2-4.4z"/><path class="st22" d="M1242.7 551.2c5.2 19.8-3.2 41.7 3.9 60.9 3.5 9.4 10.3 17.1 14.3 26.3 2.9 6.8 4.1 14.2 5.7 21.5 7.9 35.2 26.9 67.9 53.5 92.3-31.1-62.1-56.5-127-75.8-193.7"/><path class="st0" d="M964.5 185.5c24.8-22.5 40.3-43.1 54.2-72.9 1-2.1 2-4.4 1.5-6.6-.7-3.5-4.5-5.4-7.9-6.8-18.6-7.7-39.9-13.1-55.9-25.1-1.1-.8-2.3-1.7-3.7-1.8-2.1-.1-3.7 1.5-5 3.1-18 21.2-28.6 47.9-48.8 67.1-5.7 5.4-12.6 11.7-11.2 19.2 1.1 5.5 6.4 9.2 11.3 12.2 9.2 5.8 18.4 11.5 27.7 17.3 3.8 2.4 7.8 4.8 12.3 5.5 9.6 1.6 18.3-5 25.5-11.2z"/><g><path class="st77" d="M934.3 76.8c-2.1-11.7-4.1-23.5-6.2-35.2M927.6 81c-2.8-6.6-6.2-12.9-10.2-18.8M919 87.1c-3.8-1.4-7.3-3.7-10-6.7-1.5-1.6-2.8-3.6-2.4-5.7.1-.5.4-1 .9-1.1.3 0 .5.1.7.2 1.3.8 2 2.4 1.8 3.9s-1.4 2.8-2.9 3.2c-1.9.5-3.8-.4-5.4-1.5-3.4-2.2-6.3-5.2-8.5-8.7M909.7 93.4c-8-2.8-16.2-5-24.5-6.6M913.8 57.8c-1.9-3.5-3.8-7.1-5.7-10.6"/></g><g><path class="st77" d="M959.6 202.5c5.2 11.4 9.7 23.2 13.5 35.2M952 206.3c2.4 11 4.2 22.1 5.3 33.3M967.1 198.3c3.7 4.2 8.7 10.9 14.1 12.8 3.1 1.1 7.3-.1 8.2-3.3-1.1-3.1-6-3.4-8.2-1s-2.1 6.4-.5 9.3c2.1 3.8 7 8.4 10.7 10.7M976.7 191.3c6.2 2.4 12.3 5.2 18.2 8.5"/></g><path class="st33" d="M1005.8 173.6c.3-12.2-5-25.1-15-32.1-10.7-8.9.6 5.5 2.7 13.8-3.7 6.7-10 14.2-13.5 17.9 5.3 8 15.6 6.9 21.3 16.6"/><path class="st0" d="M1484.1 481c9.9 4.5 19.8 8.9 29.8 13.4-18.7 36.6-39.2 78.2-71.5 105.5-19.3-10.2-37.6-24.5-56.8-34.7-2.2-1.2-4.6-2.6-5.3-4.8-1.4-4.6 5.1-8.8 4.2-13.5"/><path class="st5" d="M1487.4 473.3c9.6 5.1 19.1 10.1 28.7 15.2-21.4 35.3-43.4 75.3-77.6 100.5-18.5-11.4-39.1-23.7-57.6-35.1-2.1-1.3-2.4-5.7-2.9-8-1.1-4.7 5.7-8.4 5.2-13.2"/><g><path class="st0" d="M1454.9 563.5c10.4-9 20.9-19.5 23.2-22 3.4-3.8 41.9-56 36.9-58.2-22-9.8-44.1-16.6-65.3-27.9-3.8-2-8.4-4.1-12.2-2.2-7.7 3.6-16.5 24.4-21.1 31.4-8.6 13-17.1 26.2-28.9 36.9-5.6 5.1-9.6 11.6-16.1 16 18.5 15.5 39.8 28.3 61.5 39.6 3.1 1.5 12.5-5.4 22-13.6z"/></g><path class="st33" d="M1384.3 492.3c12.1-1.8 25.6 1.9 33.7 10.9 10.1 9.5-5.6.1-14.1-1-6.2 4.5-12.8 11.7-16.1 15.6-8.6-4.3-19.1-22.1-19.1-22.1"/><g><path class="st12" d="M1110.8 1032.8h4.1c2.7 0 6.7.1 11.7.2 1.3-.1 2.6-.1 4-.2 1.4 0 2.9 0 4.4.1 1.5.1 3.1.2 4.7.2s3.3-.1 5.1-.1c3.5-.1 7.3-.2 11.2-.3 2 0 4-.1 6.1-.1 2.1 0 4.2.1 6.4.2s4.4.1 6.6 0c2.3-.1 4.5-.2 6.9-.2 4.7.1 9.5.2 14.4.4 5 0 10.1.1 15.3-.2 1.3 0 2.6-.1 3.9 0 1.3.1 2.6.2 4 .3 1.3.1 2.7 0 4-.1 1.3-.1 2.7 0 4 0 5.4.1 10.9.1 16.5.2H1256.7c1.4 0 2.8.1 4.3.2 2.8.2 5.7.3 8.6 0 2.9-.2 5.7-.1 8.6 0 2.9.1 5.8.3 8.6.3 2.9 0 5.8-.1 8.7-.1 5.8-.1 11.5 0 17.3 0 2.9 0 5.7.1 8.6.1 2.9.1 5.7-.1 8.6-.2 5.7-.2 11.3-.3 16.9-.5 2.8 0 5.6-.1 8.3-.1h4.1c1.4.1 2.7.1 4.1.2 10.8.2 21.3-.7 31.2-.2 2.5 0 4.9-.1 7.3-.1 2.4-.1 4.8.1 7.1.3 4.7.3 9.2-.2 13.5.1 4.3.4 8.5-.5 12.4-.1 3.9.2 7.7.2 11.2.2 1.8 0 3.5-.1 5.1-.1h2.4c.8 0 1.6 0 2.3.1 3 .1 5.8.2 8.4.1 2.5-.1 4.8-.2 6.7-.2 2 0 3.6-.1 5-.1h4.2v2.4h-9.2c-2 0-4.2-.1-6.7-.2s-5.3 0-8.4.2c-3 .2-6.3 0-9.9-.1-3.5 0-7.3.2-11.2.4-2 .1-4 .1-6.1-.1-2.1-.3-4.2-.3-6.4-.1-4.3.4-8.8-.4-13.5-.1-2.3.1-4.7.3-7.1.2-2.4 0-4.9-.2-7.3-.2-2.5-.1-5 0-7.5.1-2.5 0-5.1-.1-7.7-.1-5.2-.1-10.5-.4-15.9 0-1.4.1-2.7.2-4.1.2-1.4 0-2.7.1-4.1.1h-8.3c-2.8 0-5.6-.1-8.4-.1-2.8 0-5.6-.1-8.5-.3-2.8-.2-5.7-.3-8.6-.2-2.9.1-5.7.2-8.6.3-5.7.1-11.5.3-17.3.2-2.9-.1-5.8-.3-8.7-.3-1.4 0-2.9.1-4.3.1l-4.3.3c-1.4.1-2.9.2-4.3.2-1.4.1-2.9 0-4.3-.2-2.9-.4-5.7-.4-8.6 0-2.8.3-5.7.4-8.5.3-2.8-.1-5.6-.1-8.4-.2-5.6 0-11.1-.1-16.5-.1-1.4 0-2.7 0-4-.1-1.3-.2-2.7-.3-4-.2-1.3 0-2.7.2-4 .2h-3.9c-5.2-.3-10.3-.3-15.3-.4-5 0-9.8 0-14.4.1-2.3 0-4.6 0-6.9-.1h-3.3c-1.1 0-2.2.1-3.3.1-2.2.1-4.3.2-6.4.2-2.1 0-4.1-.1-6.1-.1-3.9-.1-7.7-.1-11.2-.2-1.8 0-3.5-.1-5.1-.1-1.6 0-3.2.1-4.7.2s-3 .1-4.4.1c-1.4 0-2.7-.1-4-.1-5 .1-9 .2-11.7.2-2.7 0-4.1.1-4.1.1v-2.9z"/></g><g><path class="st70" d="M916.2 155.2l.1.2c0 .1.1.1.1.1l.1.1c.1.1.2.1.4.2.3.1.8.1 1.2 0 .4-.1.9-.2 1.3-.4.1 0 .2-.1.3-.1l.3-.2.7-.4 1.4-.8 1.2-.9c.8-.6 1.6-1.3 2.4-1.9.9-.6 1.6-1.3 2.4-2 .7-.7 1.4-1.5 2.1-2.3.7-.8 1.3-1.6 1.9-2.4.6-.9 1.2-1.7 1.7-2.6.5-.9 1.1-1.7 1.6-2.6.5-.9 1.1-1.7 1.6-2.7.2-.5.4-.9.6-1.4.2-.5.3-1 .5-1.5s.4-1 .5-1.4c.2-.5.3-1 .5-1.4.4-1 .7-1.9 1-2.9.3-1 .5-2 .8-3 .2-1 .3-2 .5-3.1.1-1 .2-2.1.2-3.1l.3.6c-.9-.5-1.9.1-2.9 1-.5.4-1 .9-1.3 1.5-.3.6-.6 1.4-.9 2-1.3 2.6-2.3 5.2-3.1 8-.4 1.4-.7 2.8-1 4.2-.3 1.4-.4 2.8-.6 4.3-.2 1.4-.4 2.9-.1 4.3.1.7.4 1.3.6 2 .3.6.6 1.2 1 1.7s.9.9 1.6 1.2c.6.2 1.3.3 2 .3 1.4-.1 2.7-.7 3.9-1.5.5-.4 1.2-.9 1.7-1.3.5-.5 1.1-.9 1.6-1.4 1-1 1.9-2.1 2.8-3.3 1.7-2.3 3.4-4.7 5-7.2s3.4-4.8 5.8-6.7c.6-.5 1.2-.9 1.9-1.3s1.5-.8 2.5-.8h.4c.2 0 .2 0 .3.1.3.1.5.2.7.3.4.2.7.6 1 .9.5.7.9 1.4 1.1 2.2.9 2.9 1.2 6 .5 9-.4 1.5-.9 3-1.8 4.3-.2.3-.5.6-.7.9-.2.3-.5.6-.9.9-.3.3-.8.6-1.3.7h-.7c-.2 0-.3 0-.5-.1-.1 0-.3-.1-.4-.1-.5-.2-.9-.7-1.1-1.1-.2-.4-.4-.9-.5-1.3-.2-.9-.2-1.7 0-2.5.1-.4.3-.8.5-1.2.2-.3.4-.6.6-1 .4-.7.9-1.2 1.4-1.9.9-1.2 1.9-2.4 3.2-3.2.6-.4 1.3-.8 1.9-1.2l2-1.1c.7-.4 1.4-.6 2.1-.8.7-.2 1.5-.3 2.2-.4l4.4-.5c1.4-.2 2.8-.5 4.2-.8 1.3-.3 2.7-.8 3.8-1.7 2.1-1.7 3.6-4.4 2.8-6.8l1.5-.5c.2.8.3 1.7.2 2.5-.1.8-.3 1.6-.7 2.4-.7 1.4-1.9 2.6-3.1 3.5-1.3.9-2.6 1.7-4.1 2.2-1.5.4-3 .6-4.4.7-1.5.2-2.9.4-4.3.7-.7.2-1.4.4-2 .5l-1 .3c-.3.1-.7.2-1 .3-1.4.3-2.6 1.1-3.6 2.1-1 .9-2.2 1.7-3 2.8-.4.6-.8 1.2-1.1 1.8-.1.3-.3.6-.4 1-.1.3-.2.5-.2.8-.1.6-.2 1.2-.1 1.8 0 .3.1.6.2.8.1.2.2.4.4.5 0 0 .1 0 .1.1h.5c.2 0 .4-.2.6-.4.4-.4.8-1 1.2-1.6.7-1.2 1.4-2.4 1.7-3.7.8-2.6.8-5.7-.4-8.1-.6-1.3-1.4-2.3-2.2-2.3-.4 0-1 .2-1.6.5-.6.4-1.2.7-1.7 1.1-1.1.8-2.2 1.7-3.1 2.8-1 1-2 2.1-2.9 3.2-1.9 2.2-3.1 4.9-4.9 7.3-.9 1.2-1.8 2.4-2.8 3.5-.5.6-1.1 1.1-1.7 1.6-.6.5-1.1.8-1.9 1.3-.7.4-1.4.7-2.1.9-.7.3-1.5.4-2.3.6-.8.1-1.6.1-2.5-.2-.8-.2-1.6-.7-2.2-1.3-.6-.6-1.1-1.4-1.4-2.1-.3-.8-.3-1.6-.3-2.4 0-1.5-.2-3-.3-4.5-.1-1.5.2-3 .5-4.4.3-1.5.7-2.9 1.1-4.3.8-2.9 1.9-5.6 3.2-8.3.3-.7.8-1.2 1.2-1.9.4-.7.8-1.3 1.3-1.9.5-.6 1.2-1.1 2-1.4.4-.2.9-.2 1.4-.2.5 0 .9.3 1.3.5l.3.2v.3c-.2 1.1-.2 2.1-.3 3.2-.2 1-.3 2.1-.5 3.1s-.4 2.1-.7 3.1c-.3 1-.5 2.1-.9 3.1l-.5 1.5-.6 1.5c-.4 1-.9 1.9-1.3 2.9s-.9 1.9-1.4 2.9c-.5 1-1.1 1.8-1.7 2.7-.6.9-1.3 1.7-1.9 2.5l-2.1 2.4c-.8.7-1.5 1.5-2.3 2.2-.4.3-.8.7-1.1 1.1-.4.4-.7.8-1.1 1.1l-1.2 1.1c-.4.3-.9.6-1.3.9-.4.3-.9.6-1.3.9l-1.3.9-.7.4-.3.2c-.1.1-.3.2-.4.2-.5.3-1.1.5-1.6.6-.6.1-1.2.2-1.9 0-.3-.1-.7-.2-1-.5-.2-.1-.3-.3-.4-.5-.1-.1-.1-.2-.1-.2l-.1-.2 1.2-.9z"/></g><g><path class="st70" d="M1408 532.4l.1.2c0 .1.1.1.1.1l.1.1c.1.1.2.1.4.2.3.1.8.1 1.2 0 .4-.1.9-.2 1.3-.4.1 0 .2-.1.3-.1l.3-.2.7-.4 1.4-.8 1.2-.9c.8-.6 1.6-1.3 2.4-1.9.9-.6 1.6-1.3 2.4-2 .7-.7 1.4-1.5 2.1-2.3.7-.8 1.3-1.6 1.9-2.4.6-.9 1.2-1.7 1.7-2.6.5-.9 1.1-1.7 1.6-2.6.5-.9 1.1-1.7 1.6-2.7.2-.5.4-.9.6-1.4.2-.5.3-1 .5-1.5s.4-1 .5-1.4c.2-.5.3-1 .5-1.4.4-1 .7-1.9 1-2.9.3-1 .5-2 .8-3 .2-1 .3-2 .5-3.1.1-1 .2-2.1.2-3.1l.3.6c-.9-.5-1.9.1-2.9 1-.5.4-1 .9-1.3 1.5-.3.6-.6 1.4-.9 2-1.3 2.6-2.3 5.2-3.1 8-.4 1.4-.7 2.8-1 4.2-.3 1.4-.4 2.8-.6 4.3-.2 1.4-.4 2.9-.1 4.3.1.7.4 1.3.6 2 .3.6.6 1.2 1 1.7s.9.9 1.6 1.2c.6.2 1.3.3 2 .3 1.4-.1 2.7-.7 3.9-1.5.5-.4 1.2-.9 1.7-1.3.5-.5 1.1-.9 1.6-1.4 1-1 1.9-2.1 2.8-3.3 1.7-2.3 3.4-4.7 5-7.2s3.4-4.8 5.8-6.7c.6-.5 1.2-.9 1.9-1.3s1.5-.8 2.5-.8h.4c.2 0 .2 0 .3.1.3.1.5.2.7.3.4.2.7.6 1 .9.5.7.9 1.4 1.1 2.2.9 2.9 1.2 6 .5 9-.4 1.5-.9 3-1.8 4.3-.2.3-.5.6-.7.9-.2.3-.5.6-.9.9-.3.3-.8.6-1.3.7h-.7c-.2 0-.3 0-.5-.1-.1 0-.3-.1-.4-.1-.5-.2-.9-.7-1.1-1.1-.2-.4-.4-.9-.5-1.3-.2-.9-.2-1.7 0-2.5.1-.4.3-.8.5-1.2.2-.3.4-.6.6-1 .4-.7.9-1.2 1.4-1.9.9-1.2 1.9-2.4 3.2-3.2.6-.4 1.3-.8 1.9-1.2l2-1.1c.7-.4 1.4-.6 2.1-.8.7-.2 1.5-.3 2.2-.4l4.4-.5c1.4-.2 2.8-.5 4.2-.8 1.3-.3 2.7-.8 3.8-1.7 2.1-1.7 3.6-4.4 2.8-6.8l1.5-.5c.2.8.3 1.7.2 2.5-.1.8-.3 1.6-.7 2.4-.7 1.4-1.9 2.6-3.1 3.5-1.3.9-2.6 1.7-4.1 2.2-1.5.4-3 .6-4.4.7-1.5.2-2.9.4-4.3.7-.7.2-1.4.4-2 .5l-1 .3c-.3.1-.7.2-1 .3-1.4.3-2.6 1.1-3.6 2.1-1 .9-2.2 1.7-3 2.8-.4.6-.8 1.2-1.1 1.8-.1.3-.3.6-.4 1-.1.3-.2.5-.2.8-.1.6-.2 1.2-.1 1.8 0 .3.1.6.2.8.1.2.2.4.4.5 0 0 .1 0 .1.1h.5c.2 0 .4-.2.6-.4.4-.4.8-1 1.2-1.6.7-1.2 1.4-2.4 1.7-3.7.8-2.6.8-5.7-.4-8.1-.6-1.3-1.4-2.3-2.2-2.3-.4 0-1 .2-1.6.5-.6.4-1.2.7-1.7 1.1-1.1.8-2.2 1.7-3.1 2.8-1 1-2 2.1-2.9 3.2-1.9 2.2-3.1 4.9-4.9 7.3-.9 1.2-1.8 2.4-2.8 3.5-.5.6-1.1 1.1-1.7 1.6-.6.5-1.1.8-1.9 1.3-.7.4-1.4.7-2.1.9-.7.3-1.5.4-2.3.6-.8.1-1.6.1-2.5-.2-.8-.2-1.6-.7-2.2-1.3-.6-.6-1.1-1.4-1.4-2.1-.3-.8-.3-1.6-.3-2.4 0-1.5-.2-3-.3-4.5-.1-1.5.2-3 .5-4.4.3-1.5.7-2.9 1.1-4.3.8-2.9 1.9-5.6 3.2-8.3.3-.7.8-1.2 1.2-1.9.4-.7.8-1.3 1.3-1.9.5-.6 1.2-1.1 2-1.4.4-.2.9-.2 1.4-.2.5 0 .9.3 1.3.5l.3.2v.3c-.2 1.1-.2 2.1-.3 3.2-.2 1-.3 2.1-.5 3.1s-.4 2.1-.7 3.1c-.3 1-.5 2.1-.9 3.1l-.5 1.5-.6 1.5c-.4 1-.9 1.9-1.3 2.9s-.9 1.9-1.4 2.9c-.5 1-1.1 1.8-1.7 2.7-.6.9-1.3 1.7-1.9 2.5l-2.1 2.4c-.8.7-1.5 1.5-2.3 2.2-.4.3-.8.7-1.1 1.1-.4.4-.7.8-1.1 1.1l-1.2 1.1c-.4.3-.9.6-1.3.9-.4.3-.9.6-1.3.9l-1.3.9-.7.4-.3.2c-.1.1-.3.2-.4.2-.5.3-1.1.5-1.6.6-.6.1-1.2.2-1.9 0-.3-.1-.7-.2-1-.5-.2-.1-.3-.3-.4-.5-.1-.1-.1-.2-.1-.2l-.1-.2 1.2-.9z"/></g></g><path class="st11" d="M1267.5 231.9c-1.5 7.7 17.4 17.3 19 3.1.6-5.3-5-10.3-10.2-9.1-5.7 1.3-8.3 3.6-8.8 6z"/></svg>