<svg xmlns="http://www.w3.org/2000/svg" viewBox="0 0 1920 1080"><rect x="1338.165" y="572.056" width="93.514" height="62.212" rx="5.29" ry="5.29" fill="#e6e8f0" stroke="#e6e8f0" stroke-miterlimit="10" stroke-width="3"/><path fill="#e6e8f0" stroke="#e6e8f0" stroke-miterlimit="10" stroke-width="3" d="M1467.435 632.491h24.754v26.662h-24.754z"/><path fill="#e6e8f0" stroke="#e6e8f0" stroke-miterlimit="10" stroke-width="3" d="M1461.934 649.377h35.755v9.776h-35.755z"/><path d="M1447.623 663.094l-29.737.351-29.919.192c-9.972.085-20.012-.044-29.989-.083l-29.9-.153-1.574-.008-.007-1.573-.124-27.552-.008-1.7 1.713-.008 29.567-.138 29.567.127c9.856.066 19.712.131 29.567.086l29.567-.205 1.834-.013v1.848c.012 9.621-.235 19.366-.557 28.829zm-2.549-2.549c-.359-8.945-.677-17.568-.722-26.277l2 2c-9.855.038-19.711-.006-29.567-.034-9.855-.1-19.711-.094-29.567-.086h-29.567l-29.567-.2 1.684-1.684-.175 27.552-1.509-1.509 29.274-.032 14.615-.012h7.3l7.329.07 29.344.251c9.711-.022 19.505.05 29.128-.039z" fill="#d5daea"/><path fill="#e6e8f0" d="M909.027 668.041h621.595V928H909.027z"/><path d="M1112.655 915.247l-95.217.83q-47.793.225-95.576.2h-2.953l.013-2.938.476-111.983.1-28-.059-28-.134-55.991-.006-2.551 2.564-.007 47.22-.134c15.74-.039 31.48-.12 47.221-.042l94.44.244 2.494.007v2.483l-.093 56.448.051 56.548-.023 28.294-.159 28.223zm-3.823-3.823l-.5-55.717-.245-27.794-.126-27.711c-.047-18.462-.139-36.932-.088-55.387l.069-27.705-.014-27.739 2.813 2.813-94.44.006-47.221-.115-47.22-.179 2.526-2.525-.189 55.991-.088 28 .036 28 .183 111.983-2.468-2.468 93.593.422zm208.032 4.267l-95.217.83q-47.793.225-95.576.2h-2.953l.013-2.939.476-111.982.1-28-.059-28-.134-55.991-.006-2.551 2.564-.007 47.221-.133c15.739-.04 31.48-.12 47.22-.043l94.44.245 2.494.006v2.483l-.093 56.449.051 56.548-.023 28.293-.159 28.223zm-3.823-3.822l-.5-55.717-.245-27.8-.126-27.711c-.047-18.462-.139-36.932-.088-55.387l.069-27.705-.014-27.739 2.813 2.813-94.44.006-47.22-.114-47.221-.179 2.526-2.526-.189 55.991-.088 28 .036 28 .183 111.982-2.468-2.468 93.593.422zm208.032 4.267l-95.217.83q-47.793.225-95.576.2h-2.953l.013-2.939.476-111.982.1-28-.059-28-.134-55.991-.006-2.551 2.564-.008 47.221-.133c15.74-.04 31.48-.12 47.22-.042l94.44.244 2.494.006v2.484l-.092 56.448.05 56.548-.023 28.293-.159 28.224zm-3.823-3.823l-.5-55.717-.245-27.794-.125-27.711c-.048-18.462-.14-36.932-.089-55.387l.069-27.706-.014-27.738 2.813 2.813h-94.44l-47.22-.114-47.221-.179 2.526-2.525-.189 55.991-.088 28 .036 28 .183 111.982-2.468-2.467 93.594.422z" fill="#f0f3f5"/><path d="M1530.621 668.041v79.8c-28.347.968-57.126-3.378-84.887-9.688-38.276-8.692-75.444-21.97-114.637-28.138-41.137-6.479-83-7.865-124.612-6.772-55.211 1.449-110.164 7.128-165.273 10.479-43.365 2.63-92.5 6.656-132.185-13.874v-31.807z" fill="#d5daea" opacity=".5"/><path fill="#fff" d="M886.565 658.709H1554v18.664H886.565z"/><path d="M794.663 455.734c38.692 37.674 72.7 76.556 130.236 82.741 13.07 1.4 37.392.289 50.778-7.847 10.1-6.135 19.938-14.963 30.961-5.47 4.913 4.23-.684 6.351-4.661 9.54-8.811 7.065-15.192 3.254-27.447 7.261-14.231 4.654-33.37 15.074-49.967 18.625-32.011 6.849-66.749 3.692-96.348-7.578-32.932-12.539-56.241-29.6-77.51-56.044-6.613-8.222-11.576-18.881-12.33-28.756-.93-12.166 9.293-21.761 19.152-24.968 15.421-5.017 26.587 2.224 37.136 12.496z" fill="#5053ab"/><path d="M800.751 925.305c-.606 1.347-30.228 1.87-39.806.66-6.013-.759-3.135-15.727-3.4-20.514-.512-9.362-1.029-18.723-1.473-28.088-.122-2.573-2.7-35.531-.148-35.86l25-3.226c1.035 15.87-1.585 25.775-3.3 44-.165 1.8-.33 3.693-.476 5.681-.422 3.555-.752 6.707-.962 9.447-.477 6-.376 10.015.678 11.939 2.666 4.874 12.965 5.03 18.206 7.706 3.308 1.686 7.202 4.874 5.681 8.255zM693.947 893.23c-2.258-2.289-6.159-25.557-10.162-34.99-2.513-5.922 11.039-11.023 15.619-14.033 8.955-5.888 14.146-10.766 24.12-19.357 2.74-2.361 19.459-25.217 27.29-24.316.031 0 16.535 12.78 18.659 14.687-10.952 12.115-24.423 21.2-37.782 30.815a208.406 208.406 0 01-5.346 3.679c-2.44 1.609-7.224 4.576-9.012 5.6-3.916 2.24-9.317 5.587-11 8.3-2.644 4.275-2.525 9.464-2.864 14.295-.286 4.109-2.549 22.39-9.522 15.32z" fill="#8891ea"/><path d="M811.606 583.983l23.553 157.022c.826 5.507 1.615 11.343-.541 16.478-1.713 4.079-5.081 7.194-8.369 10.154-32.467 29.235-57.608 55.532-93.293 80.738-6.182-5.307-11.463-28.936-7.686-36.154s10.317-12.5 16.171-18.163c17.218-16.665 25.9-23.641 31.5-46.941" fill="#0c1238"/><path d="M726.2 681.565c18.244 43.823 21.945 92.333 21.13 139.795-.207 12.061-.553 24.745 5.064 35.42s19.556 18.029 30.084 12.141Q801.73 759.5 814.9 649.135c5.1-42.724 5.071-103.486-47.559-116.173-40.357-9.729-68.824 30.713-68.917 67.138-.073 29.445 16.831 55.176 27.776 81.465z" fill="#1a2456"/><path d="M770.479 577.6c.938 12.043 1.351 24.117 2.587 36.144.778 12.055 1.178 24.13 1.608 36.2.243 6.035.382 12.073.5 18.111s.23 12.076.234 18.116c-.008 3.02.12 6.037.171 9.056.072 3.018.081 6.037.123 9.056l.019 9.057c.014 3.019.095 6.037.13 9.056.082 6.037-.013 12.076 0 18.113-.155 6.037.347 12.077.207 18.115q0 9.058-.093 18.116c-.064 6.037-.056 12.081-.28 18.131a264.485 264.485 0 01-4.017 36.117c-2.582 11.809-4.335 23.735-4.141 35.706l-2.362.008a134.526 134.526 0 011.164-18.223c.4-3.015.874-6.014 1.385-9l1.423-8.947c.442-2.98 1.04-5.923 1.489-8.888.479-2.96.885-5.926 1.246-8.9.723-5.953 1.053-11.96 1.335-17.97.169-3 .343-6.013.438-9.025.049-1.507.118-3.013.141-4.521l.018-4.525.023-18.1c.009-3.016-.074-6.033.152-9.048l.13-2.262.054-2.262c0-1.508-.046-3.016-.08-4.525l-.221-9.048-.133-4.523-.072-2.262.01-2.262c.062-24.132-.813-48.245-1.131-72.382-.112-12.074-1.228-24.105-1.953-36.147l-.406-9.042c-.1-3.016-.346-6.023-.639-9.027l-1.415-18.044zM864 926.857c14.854.043 29.708-.029 44.562.107 3.714.042 7.428.182 11.141.151 3.714-.006 7.427-.147 11.141-.214l22.281-.53c14.854-.174 29.708-.083 44.563.032l44.562.263 22.281.092 22.281.234 22.282.221 22.281.332 5.57.077h5.571l11.14-.027c7.427-.03 14.854.067 22.282.1l22.281.206c7.427.051 14.854-.062 22.281-.092 14.854-.048 29.708.152 44.562.138 14.855.295 29.709-.744 44.563-.582l89.125-.588 22.281.243 11.141.123 11.14-.029 22.282-.091c7.427 0 14.854-.138 22.281.036l22.281.313c7.427-.03 14.854 0 22.282-.095l44.562-.415v4.724l-44.562.153-22.282.076-22.281.388c-7.427.184-14.854.011-22.281 0l-22.282-.209c-7.427-.1-14.854-.14-22.281-.16l-22.281-.091c-7.427-.1-14.854-.283-22.281-.337-3.714-.029-7.427-.1-11.141-.094l-11.14.109-44.563.41-11.141.1a226.301 226.301 0 01-11.14-.284l-5.571-.242-5.57-.09-11.141.116c-7.427.108-14.854.341-22.281.518-3.713.112-7.427.147-11.14.2l-5.571.082-5.57-.011c-3.714-.035-7.427-.157-11.141-.217s-7.427-.191-11.14-.142l-22.281.114c-7.428-.031-14.855.025-22.282-.078l-11.14-.117-5.571-.033-5.57.086-11.141.3c-3.713.052-7.427.093-11.14.019l-5.571-.079-5.57-.151-11.141-.288c-7.427-.278-14.854-.15-22.281-.176l-22.281-.525c-29.708-.67-59.417.29-89.125.42l-22.281-.251c-3.714-.021-7.427-.132-11.141-.078l-11.141.21c-14.854.216-29.708.23-44.562.355zm-233 0c2.188-.028 4.375-.022 6.562 0s4.376 0 6.563.087c4.375.554 8.75-.387 13.125-.575 8.75-.3 17.5.247 26.25.3l6.562.092 6.563.234 6.563.221c2.187.069 4.374.25 6.562.332l1.641.077h1.64l3.281-.027c2.188-.03 4.376.067 6.563.1 2.187.072 4.375.166 6.563.206s4.374-.062 6.562-.092c4.375-.05 8.75.146 13.125.171a45.343 45.343 0 006.563-.285 61.1 61.1 0 016.562-.344l26.25-.575c2.188.029 4.375.147 6.562.266s4.376.124 6.563.1c4.375-.06 8.75-.284 13.125-.115 2.188.13 4.375.336 6.562.346 2.188-.03 4.376 0 6.563-.095l13.125-.424v4.724c-4.375.042-8.75.124-13.125.133-2.187 0-4.375.061-6.563.093-2.187.059-4.374.3-6.562.432-4.375.147-8.75-.1-13.125-.255a169.02 169.02 0 00-6.563-.153l-6.562-.1c-2.188-.07-4.375-.26-6.562-.378a76.438 76.438 0 00-3.282-.058l-3.281.073c-4.375.1-8.75.427-13.125.5a31.9 31.9 0 01-6.562-.232 19.646 19.646 0 00-3.282-.338c-1.094.02-2.187.083-3.281.122-2.187.108-4.375.341-6.563.518-1.093.112-2.187.147-3.281.2l-1.64.082c-.547.012-1.094-.008-1.641-.011-1.094-.034-2.188-.151-3.281-.246-1.094-.075-2.188-.139-3.281-.126-2.188 0-4.376.1-6.563.127-2.187-.031-4.375.025-6.563-.078a48.389 48.389 0 00-6.562-.064 39.537 39.537 0 01-6.562.319c-2.188-.046-4.376-.376-6.563-.547-1.094-.079-2.187-.179-3.281-.178s-2.188.082-3.282.036-2.187-.144-3.281-.223l-3.281-.307a96.142 96.142 0 00-13.125-.087l-6.563.29c-2.187.1-4.374.215-6.562.217-4.375 0-8.75-.713-13.125-.1-2.187.131-4.375.136-6.563.211s-4.374.115-6.562.126z" fill="#0c1238"/><rect x="1126.842" y="422.472" width="93.896" height="230.742" rx="46.948" ry="46.948" fill="#e6e8f0" stroke="#e6e8f0" stroke-miterlimit="10" stroke-width="3"/><path fill="none" stroke="#fff" stroke-miterlimit="10" stroke-width="6" d="M1075.307 486.602h112.877v149.883h-112.877z"/><circle cx="1220.022" cy="587.312" r="57.746" fill="#fff"/><path fill="#8891ea" d="M1364.696 589.923l-37.248 123.474-8.243 1.032-227.157 28.376-61.375-154.957-5.048-12.774 339.071 14.849z"/><path d="M1017.329 885.618c-8.58 3.925-15.667 12.866-15.146 21.756.5 8.506 6.817 16.22 14.9 18.917 20.665 6.895 43.119-17.181 26.646-35.618-6.477-7.248-17.712-9.03-26.4-5.055z" fill="#fff"/><path d="M1018.453 888.076a26.488 26.488 0 00-6.547 4.578 25.841 25.841 0 00-4.752 6.295 17.245 17.245 0 00-1.988 7.179 16.117 16.117 0 00.343 3.692 21.407 21.407 0 001.166 3.629 19.763 19.763 0 0011.088 10.529 20.648 20.648 0 0015.6-.911 26.391 26.391 0 006.618-4.463 23.89 23.89 0 002.64-2.958 21.3 21.3 0 002.147-3.287 18.372 18.372 0 002.034-7.392 17.321 17.321 0 00-2.36-9.274c-.334-.57-.75-1.1-1.116-1.655-.4-.536-.855-1.04-1.276-1.564-.445-.494-.9-.945-1.375-1.393a19.856 19.856 0 00-6.835-3.721 24.7 24.7 0 00-7.779-1.048 21.513 21.513 0 00-7.608 1.764zm-2.249-4.916a25.97 25.97 0 0119.476-1.228 24.08 24.08 0 018.661 5.151c.6.6 1.2 1.225 1.738 1.859.505.653 1.031 1.282 1.511 1.955a31.544 31.544 0 012.519 4.32 22.3 22.3 0 012.142 9.892 23.515 23.515 0 01-2.522 9.747 28.1 28.1 0 01-33.461 13.533 25.026 25.026 0 01-14.381-12.681 21.52 21.52 0 01-1.655-4.691 20.194 20.194 0 01-.444-5.017 22.876 22.876 0 012.777-9.485 32.379 32.379 0 0113.635-13.355z" fill="#0c1238"/><path d="M1320.068 885.093c-26.649 9.019-21.073 44.58 7.64 42.567 19.269-1.352 32.4-24.4 15.13-38.456-8.656-7.045-16.138-6.355-22.77-4.111z" fill="#fff"/><path d="M1320.934 887.654a26.329 26.329 0 00-7.166 3.848 21.1 21.1 0 00-5.238 5.867 19.086 19.086 0 00-1.983 14.985 17.46 17.46 0 0010.059 11.363 21.707 21.707 0 007.981 1.632 22.7 22.7 0 008.114-1.15 23.36 23.36 0 007.1-3.884 24.305 24.305 0 005.4-5.921 17.305 17.305 0 002.254-14.978 16.862 16.862 0 00-4.3-6.633 22.539 22.539 0 00-3.213-2.583c-.571-.391-1.162-.738-1.743-1.1-.6-.3-1.179-.679-1.8-.93a19.2 19.2 0 00-7.539-1.873 23.239 23.239 0 00-7.926 1.357zm-1.733-5.121a27.853 27.853 0 019.787-1.912 21.893 21.893 0 019.972 2.443c.779.353 1.474.816 2.213 1.224.689.466 1.387.925 2.046 1.419a30.048 30.048 0 013.751 3.277 25.579 25.579 0 015.459 8.621 21.151 21.151 0 011.058 10.264 24.285 24.285 0 01-3.575 9.5 27.916 27.916 0 01-15.748 11.555 30.974 30.974 0 01-9.711 1.08 29.168 29.168 0 01-9.588-1.926 22.79 22.79 0 01-8.312-5.5 22.487 22.487 0 01-5.122-8.63 21.956 21.956 0 01-.753-9.965 25.475 25.475 0 013.42-9.31 28.427 28.427 0 016.551-7.369 31.8 31.8 0 018.551-4.771z" fill="#0c1238"/><path d="M1024.137 903.536a6.182 6.182 0 00-2.608 2.592 3.644 3.644 0 00-.449 1.568 4.512 4.512 0 002.789 4.119 4.609 4.609 0 003.66-.266 5.992 5.992 0 001.551-1.067 7.827 7.827 0 001.088-1.464 4.309 4.309 0 00.507-1.657 3.914 3.914 0 00-.307-1.7l-.186-.417a4.143 4.143 0 00-.283-.379 3.927 3.927 0 00-.6-.7 4.7 4.7 0 00-1.6-.8 6.63 6.63 0 00-1.8-.23 4.99 4.99 0 00-1.762.401zm-1.125-2.458a7.44 7.44 0 015.6-.413 7.252 7.252 0 012.517 1.5 6.62 6.62 0 01.909 1.134 6.737 6.737 0 01.719 1.246 6.623 6.623 0 01.644 2.884 6.858 6.858 0 01-.749 2.831 7.512 7.512 0 01-4.119 3.622 8.025 8.025 0 01-5.415.145 7.162 7.162 0 01-4.113-3.6 5.535 5.535 0 01-.582-2.8 6.562 6.562 0 01.82-2.717 9.41 9.41 0 013.769-3.832zm302.434 2.286a5.712 5.712 0 00-2.976 2.395 4.437 4.437 0 00-.474 3.5 4.094 4.094 0 002.289 2.754 5.564 5.564 0 003.978.1 6.021 6.021 0 003.016-2.442 4.131 4.131 0 00.6-3.521 3.662 3.662 0 00-1.024-1.593 6.092 6.092 0 00-1.7-1.1 5.1 5.1 0 00-1.779-.427 5.7 5.7 0 00-1.93.334zm-.866-2.56a8.3 8.3 0 012.861-.589 6.15 6.15 0 012.99.707 8.718 8.718 0 012.337 1.742 7.959 7.959 0 011.605 2.586 6.328 6.328 0 01.327 3.088 7.263 7.263 0 01-1.063 2.824 8.128 8.128 0 01-4.64 3.326 8.531 8.531 0 01-2.811.276 9.244 9.244 0 01-2.778-.551 6.685 6.685 0 01-3.97-4.153 6.913 6.913 0 01.82-5.646 8.843 8.843 0 014.322-3.614z" fill="#e6e8f0"/><path d="M1318.36 714.147l-227.16 28.376-61.375-154.957a78.924 78.924 0 0127.68 7.812 77.076 77.076 0 0129.019 24.35c6.753 9.523 11.259 20.459 16.186 31.053 8.252 17.92 18.8 36.213 36.257 45.4 14.679 7.739 32.214 7.9 48.623 5.373 16.375-2.558 32.325-7.585 48.779-9.649a137.382 137.382 0 0148.786 2.59c8.85 2.1 17.691 5.15 24.908 10.726a36.714 36.714 0 018.297 8.926z" fill="#5053ab"/><path d="M1350.412 866.24c-3.286-2.86-7.642-3.8-11.835-4.591-69.648-13.069-140.487-12.643-211.222-7.991a26.027 26.027 0 01-8.76-1.97c-9.36-4.093-15.319-16.316-13.359-27.351 1.7-9.5 8.2-16.829 14.4-23.521l43.359-47.009c5.986-6.49 15.75-19.8 5.641-21.866-18.642-3.81-48.154 2.156-66.857 4.643-8.319 1.106-14.439.748-19.023 8.081a106.874 106.874 0 01-16.709 20.395q-11.888 11.634-23.821 23.245c-4.942 4.814-9.907 9.677-13.753 15.484a58.154 58.154 0 00-2.91 4.909 51.875 51.875 0 00-2.335 5.163c-7.437 17.295-4.17 37.7-4.141 58.119l6.372-.523q105.321-8.162 211.064-6.613c39.122.582 78.659 2.248 116.381 13.438 2.46-3.659.796-9.159-2.492-12.042zm-311.261-5.259c-2.206.2-4.414.4-6.643.6a224.869 224.869 0 01-.485-40.578 27.763 27.763 0 01.608-3.952 21.186 21.186 0 011.206-3.773c2.157-4.964 6.287-8.518 10.19-12.042a261.8 261.8 0 0035.7-39.728c2.1-2.872 4.233-5.866 7.246-7.545 2.587-1.45 5.611-1.792 8.523-2.083q30.945-3.177 61.866-6.376c-.51.547-.932 1.019-1.244 1.319-5.9 5.591-11.806 11.231-17.544 17.061-11.165 11.361-21.857 23.391-31.1 36.794-5.194 7.542-10.007 15.707-12.011 25.017-1.98 9.286-.689 19.948 5.141 26.973a24.181 24.181 0 002.645 2.729c-21.393 1.653-42.78 3.595-64.098 5.584z" fill="#0c1238"/><path d="M986.384 534.489c-2.251 2.078-1.2 6.065 1.152 8.035s5.491 2.607 8.362 3.675c8.535 3.177 15 10.461 19.274 18.5s6.652 16.923 9.383 25.611c15.393 48.958 42.735 93.714 55.822 143.339.815 3.091 1.659 6.354 3.9 8.637s6.376 3.04 8.535.683l-72.02-181.131a70.027 70.027 0 00-5.2-11.14c-3.346-5.398-21.76-23.086-29.208-16.209z" fill="#0c1238" stroke="#0c1238" stroke-miterlimit="10"/><path fill="#fff" d="M1407.854 571.941l-20.524 16.036 7.179 25.04-26.041.896-8.89 24.494-21.594-14.596-21.595 14.596-8.89-24.494-26.041-.896 7.179-25.041-20.523-16.035 20.524-16.036-7.18-25.041 26.042-.895 8.889-24.495 21.595 14.597 21.595-14.596 8.889 24.494 26.042.896-7.18 25.04 20.524 16.036z"/><path d="M1410.557 571.941c-3.4 3.025-6.878 6.142-10.481 9.229s-7.307 6.119-11.007 9.032l.976-3 7.295 25.007 1.057 3.623-3.787.133-26.04.911 2.681-1.949-8.9 24.491-1.293 3.558-3.133-2.12-10.795-7.3-10.748-7.371h3.2l-21.7 14.435-2.857 1.9-1.139-3.2-8.741-24.549 2.269 1.65-26.036-1.041-3.006-.12.817-2.89 7.086-25.067.849 2.615-20.584-15.957-2.578-2 2.578-2.033 20.452-16.128-.924 2.845-3.646-12.5c-1.205-4.171-2.453-8.33-3.623-12.511l-.957-3.419 3.522-.11 26.044-.813-2.432 1.767 8.987-24.458 1.147-3.122 2.726 1.863 21.521 14.706h-2.744c7.238-4.807 14.4-9.73 21.6-14.59l2.6-1.755 1.065 2.945c2.954 8.168 6.035 16.29 9.047 24.437l-2.364-1.718 13.024.362c4.34.132 8.683.218 13.022.388l3.527.138-.972 3.377-7.205 25.032-.943-2.9c3.7 2.893 7.413 5.9 11.022 8.978s7.107 6.174 10.521 9.199zm-5.407 0c-3.448-2.321-6.815-4.546-10.057-6.8s-6.381-4.56-9.522-6.985l-1.513-1.168.525-1.872 7.031-25.082 2.792 3.84c-4.342-.107-8.681-.3-13.021-.443l-13.02-.467-2.031-.073-.684-1.9-8.826-24.518 4.4 1.429c-7.219 4.835-14.479 9.609-21.662 14.5l-1.569 1.068-1.58-1.068-21.6-14.595 4.222-1.371-8.887 24.495-.649 1.788-1.9.066-26.041.9 2.613-3.6 7.047 25.079.494 1.756-1.42 1.1-20.62 15.913v-3.98l20.437 16.145 1.273 1.006-.448 1.532-7.313 25-2.083-2.866 26.043.844 1.548.05.535 1.464 8.945 24.474-3.538-1.149 21.552-14.66 1.356-.922 1.372.922 10.813 7.275 10.76 7.352-3.6 1.169 9-24.454.535-1.455 1.531-.047 13.023-.4 6.511-.2c2.171-.058 4.339-.169 6.509-.251l-2.073 2.853-7.343-24.994-.453-1.542 1.285-1.018q2.365-1.875 4.728-3.677c1.574-1.2 3.179-2.37 4.764-3.543 3.178-2.335 6.452-4.601 9.809-6.92z" fill="#ffd57d"/><path d="M1361.643 554.837c-3.516 3.981-7.089 7.908-10.914 11.594-1.9 1.853-3.923 3.59-5.789 5.478-1.9 1.858-3.664 3.84-5.415 5.837s-3.515 3.983-5.394 5.858-3.794 3.715-5.69 5.574c-.959.918-1.834 1.917-2.751 2.876l-2.609 3.013c-.856 1.017-1.8 1.946-2.714 2.913s-1.832 1.919-2.79 2.839l-3.253-3.117c.849-1.025 1.733-2.015 2.624-3s1.755-1.993 2.685-2.939c.907-.969 1.855-1.9 2.794-2.836s1.942-1.814 2.846-2.786l5.5-5.754 1.382-1.432 1.435-1.381 2.872-2.761c1.929-1.827 3.854-3.658 5.673-5.59s3.585-3.915 5.4-5.853c1.758-1.991 3.788-3.721 5.641-5.621a66.7 66.7 0 005.214-6.03z" fill="#0c1238"/><circle cx="1319.782" cy="557.11" r="7.664" fill="#0c1238"/><circle cx="1356.185" cy="595.428" r="7.664" fill="#0c1238"/><path d="M747.634 367.608c-1.956-1.8-3.337-4.182-5.4-5.866-6.054-4.954-15.655-1.631-22.111-5.673-11.7-7.327-3.152-17.629-3.385-28.677-.347-16.426-11.7-41.194 13.982-46.387 4.151-.839 8.451.055 12.676-.23 10.555-.71 11.412-.022 20.42-5.569s21.858-8.65 29.335-1.166c3.441 3.444 4.694 6.669 8.972 8.994 6.7 3.643 17.021-2.008 22.4 19.058 1.175 4.6-6.828 8.65-6.915 13.4-.186 10.143-11.23 20.639-10.109 30.721.8 7.167 2.187 8.029-3.624 12.3s2.633 6.406-4.374 8.109c-10.791 2.623-19.23.685-29.613 1.03-7.15.234-15.019 6.631-22.254-.044z" fill="#ffc04d"/><path d="M747.243 406.514c6.81 15.461 63.9 73.612 64.154 68.3.868-18.1-30.2-79.384-21.04-97.009-13.34-3.869-18.613-.451-24.883-12.845" fill="#8891ea"/><path d="M766.239 399.934c-4.042-1.509-8.69-.619-12.445 1.508s-6.747 5.367-9.447 8.732c-16.357 20.39-14.844 49.347-17.213 74.354-2.186 23.079-7.26 47.436-23.494 63.984-1.743 1.776-3.768 4.085-2.9 6.418.811 2.189 3.6 2.748 5.925 2.929 16.054 1.253 18.886 2.556 34.268 7.372 13.4 4.2 19.335 14.194 44.865 17.88 6.483.935 14-2.535 25.69-.9 4.781.67 10.376 4.319 11.84-2.747 1.054-5.086-.691-10.718-1.136-15.793-1.35-15.39-1.974-30.989 3.938-45.564 6.5-16.023 20.094-30.557 21.12-48.439 1.093-19.048-15.993-36.849-32.637-43.638-29.307-11.951-48.374-26.096-48.374-26.096z" fill="#fff"/><path fill="#0c1238" d="M818.817 333.377l9.65 15.026-9.109 9.247-.541-24.273z"/><path d="M765.15 376.812c11.777 3.59 39.2 7.238 49.865-.635 5.84-4.314 6.457-8.42 6.705-15.676.478-13.942 0-34.4-6.6-46.685s-19.067-22.081-33.01-22.516c-42.313-1.317-57.356 72.812-17.367 85.386z" fill="#8891ea"/><path d="M821.851 303.079c-5.017 6.884-21.273 7.531-26.719 14.08a10.047 10.047 0 00-2.29 6.765c.121 2.967 1.562 5.8 1.412 8.767s-3.275 6.1-5.814 4.56a7.685 7.685 0 01-2.141-2.666c-2.4-3.736-8.709-6.393-10.817-.936a13.358 13.358 0 00-.366 6.172c.364 3.555-1.225 8.682 2.964 10.4 3.208 1.313 7.911-1.572 10.235-3.522 1.368 1.613 1.065 4.114.025 5.956s-2.674 3.263-4 4.915c-2.84 3.551-4.237 13.552-7.743 16.447-5.2 4.294-18.006 2.45-29.547 2.555-5.572-9.872-15.912-37.686-15.6-49.019.243-8.783 1.174-17.875 5.593-25.47 5.4-9.287 15.32-15.072 25.43-18.708 7.371-2.65 29.873-1.063 37.014 2.155 5.603 2.519 24.859 4.17 22.364 17.549z" fill="#ffc04d"/><path d="M718.516 258.656c-2.991-2.093-4.656-5.98-8.077-7.254-4.862-1.81-9.791 2.809-11.91 7.544s-3.125 10.285-7.021 13.71c-3.536 3.109-8.888 3.873-11.807 7.566-2.529 3.2-2.462 7.93-.614 11.565s5.188 6.307 8.756 8.282c1.909 1.058 3.991 2.017 5.269 3.787 2.974 4.114.153 10.189 2.216 14.827 1.5 3.37 5.38 5.2 9.069 5.235 15.942.138 42.155-23.252 47.653-37.492 3.288-8.516 3.222-16.376-4.588-22.667-9.282-7.475-20.162 1.047-28.946-5.103z" fill="#ffc04d"/><path d="M715.179 315.351c-.508.021-.162-.954.321-.8s.6.78.613 1.288a17.269 17.269 0 01-13.153 16.771m48.79-51.71l6.549-6.7c2.248-2.3 4.633-4.9 4.809-8.107s-3.365-6.562-6.135-4.929c-2.01 2.578-.222 6.832 2.876 7.873s6.636-.6 8.587-3.226 2.58-6 2.7-9.271" fill="none" stroke="#ffc04d" stroke-miterlimit="10" stroke-width="3"/><path d="M775.1 891.44c-.247 2-.485 3.894-.7 5.681.147-1.989.312-3.876.476-5.681z" fill="#8891ea"/><path d="M684.688 854.01c.855 3.544 1.73 7.07 2.418 10.646.359 1.784.607 3.6 1.04 5.37a50.747 50.747 0 001.566 5.235c.3.86.621 1.714.889 2.584q.448 1.29.822 2.6l1.522 5.249c.257.874.6 1.718.9 2.577l1.083 2.512c.385.828.674 1.691 1 2.539s.666 1.693.955 2.558l-3.35 1.329a71.599 71.599 0 01-2.192-5.1c-.328-.865-.612-1.746-.906-2.623-.27-.885-.5-1.784-.819-2.652a93.034 93.034 0 01-3.168-10.627c-.415-1.8-.816-3.607-1.312-5.385-.223-.895-.5-1.778-.753-2.665l-.727-2.674c-.245-.891-.434-1.795-.6-2.7s-.28-1.829-.489-2.728a47.187 47.187 0 00-1.426-5.364z" fill="#0c1238"/><path d="M704.777 869.089c1.131 2.942.718 8.964-.293 10.619-1.728 2.83-1.59 1.435-5.312 1.488-.7.01-8.894.836-8.583 1.675a70.711 70.711 0 01-3.631-14.179c3.163-.187 14.41-2.692 16.865-1a2.942 2.942 0 01.954 1.397z" fill="#0c1238" stroke="#0c1238" stroke-miterlimit="10"/><path d="M758.108 925.138c3.644.052 7.277.08 10.912.3 1.817.095 3.637.307 5.46.327a51.065 51.065 0 005.46-.217c.908-.079 1.815-.176 2.724-.219q1.361-.113 2.725-.15l5.463-.17c.911-.032 1.814-.157 2.721-.236l2.7-.426c.9-.166 1.805-.232 2.708-.341s1.806-.224 2.715-.289l.455 3.575a71.104 71.104 0 01-5.485.856c-.919.1-1.843.159-2.766.226-.925.042-1.853.041-2.772.135a93.165 93.165 0 01-11.081.428c-1.85-.046-3.7-.106-5.542-.067-.923-.006-1.846.039-2.769.067l-2.771.04c-.923.016-1.846-.025-2.768-.088s-1.842-.184-2.764-.2a47.409 47.409 0 00-5.551.049z" fill="#0c1238"/><path d="M777.7 909.425c3.131-.366 8.861 1.53 10.213 2.921 2.312 2.377 1 1.9.122 5.515-.164.679-1.4 8.823-.51 8.731a70.817 70.817 0 01-14.636 0c.6-3.111.972-14.628 3.221-16.586a2.943 2.943 0 011.59-.581z" fill="#0c1238" stroke="#0c1238" stroke-miterlimit="10"/><path d="M763.453 601.71a53.69 53.69 0 01-7.514 10.908c-.765.8-1.511 1.612-2.289 2.394l-2.371 2.305c-.838.717-1.616 1.5-2.41 2.261l-2.477 2.193a46.22 46.22 0 01-11.158 7.139l-3.037 1.368c-1.016.451-2.06.849-3.1 1.264-1.053.377-2.15.629-3.226.939-1.1.232-2.208.424-3.316.6l-.38-2.677a54 54 0 0011.9-3.858 72.075 72.075 0 0010.717-6.75l2.483-2c.8-.7 1.6-1.409 2.357-2.156l2.2-2.313c.711-.792 1.389-1.615 2.085-2.419.663-.832 1.344-1.648 2.036-2.459s1.3-1.688 1.946-2.532a38.218 38.218 0 003.186-5.514z" fill="#0c1238"/><path d="M793.466 431.076c35.741 43.39 66.444 87.524 125.759 100.224 13.474 2.884 39.011 4.371 54-2.632 11.3-5.281 22.673-13.39 33.009-2.319 4.606 4.935-1.5 6.531-6.048 9.414-10.076 6.388-16.268 1.73-29.561 4.563-15.438 3.29-36.714 12.043-54.485 13.929a182.526 182.526 0 01-99.675-18.37c-32.838-16.625-55.067-36.9-74-66.718-5.888-9.271-9.752-20.9-9.317-31.247.536-12.753 12.4-21.617 23.091-23.879 16.719-3.541 27.483 5.205 37.227 17.035z" fill="#8891ea"/></svg>