<svg xmlns="http://www.w3.org/2000/svg" id="Layer_1" viewBox="0 0 1920 1080"><style>.st0{fill:#fff}.st1,.st2{fill:none;stroke:#e8eaf2;stroke-width:3;stroke-miterlimit:10}.st2{opacity:.5;fill:#e8eaf2}.st3,.st4{fill:#e0e3ed}.st4{stroke:#e0e3ed;stroke-width:2;stroke-miterlimit:10}.st5{fill:#f4f6f8}.st6,.st7{fill:#e8eaf2}.st7{stroke:#e8eaf2;stroke-width:3;stroke-miterlimit:10}.st8{fill:#7581ce}.st9{fill:#2f3155}.st10{fill:#3e4166}.st11{fill:#5053ab}.st12{fill:#0c1238}.st13{fill:none;stroke:#0c1238;stroke-miterlimit:10}.st14{fill:url(#SVGID_1_)}.st15,.st16{stroke-width:3}.st15{stroke-miterlimit:10;fill:#dda000;stroke:#dda000}.st16{fill:#ffc14d;stroke:#ffc14d}.st16,.st17,.st18{stroke-miterlimit:10}.st17{stroke-width:3;fill:#fff;stroke:#fff}.st18{fill:none;stroke:#f4f6f8}.st19{opacity:.7;fill:#e8eaf2}.st20,.st21{fill:none;stroke:#f4f6f8;stroke-width:5;stroke-miterlimit:10}.st21{opacity:.3;fill:#f4f6f8}.st22{opacity:.3;fill:#0c1238}.st23{fill:#7581ce;stroke:#7581ce;stroke-linecap:round;stroke-miterlimit:10}.st24{opacity:.3;fill:#7581ce}.st25{fill:#3e4166;stroke:#3e4166;stroke-linejoin:round;stroke-miterlimit:10}.st25,.st26{stroke-linecap:round}.st26,.st27{fill:#0c1238;stroke:#0c1238;stroke-miterlimit:10}.st28,.st29{stroke-width:3;stroke-linejoin:round}.st28{stroke-miterlimit:10;fill:#7581ce;stroke:#7581ce}.st29{fill:#5053ab;stroke:#5053ab}.st29,.st30,.st31,.st32{stroke-miterlimit:10}.st30{stroke:#a3b3ef;stroke-width:3;stroke-linejoin:round;fill:#a3b3ef}.st31,.st32{fill:none}.st31{stroke-linejoin:round;stroke:#7581ce}.st32{stroke:#1e245e;stroke-width:2;stroke-linecap:round}.st33,.st34{fill:#ffc14d}.st34{opacity:.3}.st35{fill:#1e245e}.st36,.st37{stroke:#1e245e;stroke-miterlimit:10}.st36{stroke-linecap:round;fill:none;stroke-width:9}.st37{fill:#fff;stroke-width:3}.st38,.st39,.st40{fill:none;stroke:#d0d4e5;stroke-linejoin:round;stroke-miterlimit:10}.st39,.st40{fill:#f4f6f8;stroke:#e0e3ed;stroke-width:3}.st40{stroke:#e8eaf2}.st41,.st42{stroke:#e0e3ed}.st41{stroke-miterlimit:10;fill:#e0e3ed}.st42{fill:none;stroke-width:3;stroke-linejoin:round}.st42,.st43,.st44,.st45{stroke-miterlimit:10}.st43{stroke:#e0e3ed;stroke-width:3;stroke-linejoin:round;fill:#e0e3ed}.st44,.st45{fill:none}.st44{stroke-linecap:round;stroke:#ffc14d}.st45{stroke:#e1e5f1;stroke-width:3}.st46{fill:#e1e5f1}.st47{fill:none}.st48{fill:#f4f5f8}.st49{fill:#eaebf3}.st50{fill:#eaecf5}.st51,.st52,.st53,.st54{stroke:#e1e5f1;stroke-miterlimit:10}.st51{stroke-width:3;fill:#e1e5f1}.st52,.st53,.st54{fill:none}.st53,.st54{stroke:#0c1238;stroke-width:1.2858}.st54{fill:#ffc14d;stroke:#ffc14d;stroke-width:2;stroke-linejoin:round}.st55{fill:#202e78}.st56{fill:#2d2f61}.st57{fill:#8284c3}.st58{fill:#7376bc}.st59{fill:#666ab6}.st60{fill:#2e3253}.st61{fill:#505274}.st62,.st63,.st64,.st65{fill:none;stroke:#ffc14d;stroke-width:3;stroke-miterlimit:10}.st63,.st64,.st65{stroke-width:2;stroke-linejoin:round}.st64,.st65{fill:#ffb62d;stroke:#ffb62d}.st65{fill:#f4f6f8;stroke:#3e4166;stroke-width:3;stroke-linecap:round}.st66{fill:#f4f6f8;stroke:#e0e3ed}.st66,.st67,.st68,.st69{stroke-width:3;stroke-miterlimit:10}.st67{opacity:.3;fill:#e8eaf2;stroke:#e8eaf2}.st68,.st69{fill:#e0e3ed;stroke:#e0e3ed}.st69{fill:#f4f6f8;stroke:#e8eaf2}.st70{fill:#dee4f5}.st71,.st72,.st73{fill:none;stroke:#a3b3ef;stroke-width:2;stroke-miterlimit:10}.st72,.st73{fill:#a3b3ef}.st73{fill:#7581ce;stroke:#7581ce}.st74{opacity:.3;fill:#5053ab}.st75{fill:none;stroke:#dee4f5;stroke-miterlimit:10}.st76{fill:#f3f4f7}.st77,.st78{fill:none;stroke:#ffc14d;stroke-miterlimit:10}.st78{fill:#7581ce;stroke:#7581ce;stroke-width:3}.st79{opacity:.5;fill:#e8eaf2}.st80{fill:#a3b3ef}.st81{opacity:.3;fill:#dee4f5}.st82,.st83{fill:none;stroke:#e0e3ed;stroke-miterlimit:10}.st83{stroke:#fff}.st84{fill:#b0e3e3}.st85{fill:#53c1bd}.st86{fill:none;stroke:#0c1238;stroke-width:3;stroke-miterlimit:10}.st87{fill:#fbfbfc}.st88{fill:#f4f5f8;stroke:#e1e5f1;stroke-width:3;stroke-miterlimit:10}.st89{fill:#f2f4f9}.st90,.st91,.st92{fill:#eaecf5;stroke:#eaecf5;stroke-width:3;stroke-linecap:round;stroke-miterlimit:10}.st91,.st92{fill:#f2f4f9;stroke:#f2f4f9}.st92{fill:none}.st93{opacity:.5}.st94{fill:#f4f5f8;stroke:#e1e5f1;stroke-width:3;stroke-linecap:round;stroke-miterlimit:10}</style><path class="st3" d="M190.2 876.4s108.1-.1 270.3-.3c40.5 0 84.5.1 130.9.1 23.2 0 47.1.1 71.5.1s49.3.4 74.6.3c50.7 0 103 .1 156.3.2 53.2.1 107.3.3 161.3.4 108.1-.2 216.2-.3 317.6-.5 50.7-.1 99.7-.2 146.1-.3 11.6 0 23.1 0 34.4-.1h33.3c21.9.1 43 .1 63.2.1 40.5.1 77.7.2 110.6.1 32.9-.1 61.7-.1 85.3-.1 47.3-.1 74.3-.1 74.3-.1v3.2s-27 0-74.3.1c-23.6 0-52.4.1-85.3.1h-110.6c-20.3-.1-41.4-.1-63.2-.2-10.9 0-22 0-33.3-.1h-180.5c-101.4 0-209.5.1-317.6.1-54.1.1-108.1.2-161.3.3h-19.9c-6.6 0-13.2 0-19.8-.1-13.2 0-26.3-.1-39.3-.1-26.1-.1-51.8-.2-77.2-.4-12.7-.1-25.2-.2-37.7-.1-12.4 0-24.8.1-37 .1-24.4-.1-48.2-.2-71.5-.2-23.2-.1-45.8-.1-67.7-.2-21.9.1-43 .2-63.2.2-10.1 0-20.1.1-29.8.1h-80.9c-32.9 0-61.7 0-85.3.1h-74.3v-2.8z"/><path class="st0" d="M1650.5 838.3s3.7 0 10.1-.1c3.2 0 7.1-.1 11.6-.1s9.5-.1 15-.1h8.6c3 0 6 .1 9.2.1 3.2 0 6.4.1 9.7.1 3.3 0 6.7.3 10.1.2 6.9 0 14 0 21.2.1 3.6.1 7.2.1 10.9.2 3.7 0 7.3.1 11 .1 7.3 0 14.7-.1 21.9-.2 7.2-.1 14.3-.1 21.2-.2 6.9-.1 13.5-.1 19.8-.2 6.3-.1 12.3 0 17.8.1s10.5.1 15 .1 8.4-.1 11.6-.1c6.4-.1 10.1-.1 10.1-.1.7 0 1.2.5 1.2 1.2s-.5 1.2-1.2 1.2c0 0-3.7 0-10.1.1-6.4 0-15.6.2-26.6.1-5.5-.1-11.5-.2-17.8-.2H1811c-13.8 0-28.4.1-43.1.1-7.3.1-14.7.2-21.9.2-7.2.1-14.3-.3-21.2-.4-1.7 0-3.4-.1-5.1-.1-1.7 0-3.4.1-5 .1-3.3-.1-6.5-.1-9.7-.2-3.2 0-6.2-.1-9.2-.1-3 0-5.8.1-8.6.2-1.4 0-2.7.1-4 .1h-32.7c-.7 0-1.2-.5-1.2-1.2 0-.4.5-1 1.2-1zM794 838.3s51.6-.1 129-.2h30.2c10.4 0 21.2.1 32.3.1 11.1 0 22.5.1 34.1.1 11.6 0 23.5.3 35.6.2 24.2 0 49.2.1 74.6.1 25.4.1 51.2.2 77 .3 51.6-.1 103.2-.2 151.6-.3 24.2-.1 47.6-.1 69.8-.2h32.3c10.4 0 20.5.1 30.2.1 19.4 0 37.1.2 52.8.1 15.7 0 29.4-.1 40.7-.1 22.6-.1 35.5-.1 35.5-.1.7 0 1.2.5 1.2 1.2s-.5 1.2-1.2 1.2c0 0-12.9 0-35.5.1-22.6 0-54.8.2-93.6.1-19.4-.1-40.3-.3-62.5-.2h-69.8c-48.4 0-100 .1-151.6.1-25.8.1-51.6.2-77 .2s-50.4-.2-74.6-.4c-12.1-.2-24 .1-35.6 0-11.6-.1-23-.1-34.1-.2-11.1 0-21.9-.1-32.3-.1-10.4.1-20.5.1-30.2.2-4.8 0-9.6.1-14.2.1H793.8c-.7 0-1.2-.5-1.2-1.2s.7-1.2 1.4-1.2z"/><path class="st3" d="M1477.7 561.2l-192.2.2H1190l-95.5-.1h-1.3V560l.1-50.8.2-50.8.1-101.6.4-203.2v-.6h.6l382-.5h1.1v1.1l.1 50.8v50.8l-.2 101.6v50.8l.1 50.8v102.8zm-2.4-2.4l-.2-202V306l.1-50.8.1-50.8v-50.8l1.2 1.2-382 .1 1.3-1.3.2 101.6.1 50.8c.1 16.9-.1 33.9-.1 50.8l-.4 101.6c-.1 8.5 0 16.9 0 25.4s.1 16.9 0 25.4l-.1 50.8-1-1 47.8.1h47.8l47.8-.2 23.9-.1h213.5z"/><path class="st79" d="M1476.5 563.8c-4.4 17.2-19.2 13.5-28 16.5-16.1 5.3-32 13-48 19.5-17.3 7-35 14.1-52.6 10.2-10.7-2.4-21.1-8.7-31.8-11.4-22.6-5.6-45.3 5.7-66.7 20.3-18.3 12.5-37.4 28-56.7 21.4-18.5-6.4-33.9-32.4-52.4-37.3-.7-.2-1.4-.3-2.1-.5-10.1-1.8-20.6 3.3-30.4-2.1-9.8-5.3-17.5-29.2-10.3-42.5"/><path class="st70" d="M1111.9 167.4H1459v377.2h-347.1z"/><path class="st8" d="M1360.6 404.7c27.1 3.8 51.2 1.4 64.4-32.4 3.5-8.9 4.8-18.6 6.1-28.1 2.7-20.8 3.6-52.4-11.6-69.7-5.9-6.7-15.5-8.9-24.4-9.1-59.1-1.6-117 13.4-176 10.2-21.1-1.2-44.2-3.6-61.6 8.5-2.9 2-5.6 4.5-7.2 7.7-1.4 2.9-1.6 6.1-1.9 9.3-1.9 23.2-3.7 46.3-5.6 69.5-.5 6-.9 12.3 2 17.5 2.7 4.9 7.9 7.9 13 10.2 53.5 24.4 102.6-6.5 156.4-1.2 15.6 1.6 31.5 5.5 46.4 7.6z"/><path class="st5" d="M1174.9 441.8c-12 2.4-12.6 11-12.6 23.5 0 9.4.6 18.7 1.8 28.1.6 4.2 1.3 8.5 3.6 12.2 4.9 7.9 15.7 11.4 25.7 12.6 29.9 3.6 63.4.2 93.3-1.8 4.6-.3 9.6-.8 12.7-3.7 2.3-2.1 3.1-5.1 3.8-7.9 3.4-15 4.6-32.9-.7-47.7-.7-2-1.6-4-3.1-5.7-3.2-3.6-8.7-4.8-13.8-5.5-17.4-2.4-34.3.7-51.7-.3-17.3-1-34.4-4.6-51.8-4.4-2.8 0-5.2.2-7.2.6zM1276.9 226.5c0 .7.1 1.4.3 2.1 1.9 8.5 11.1 13.1 19.3 16.6 17.7 7.5 28.3-4.4 33.9-20.8 2.6-7.7 1.7-16.9-4.2-22.6-4.6-4.5-11.4-6.1-18-6.4-5.8-.2-11.9.5-16.7 3.6-7.3 4.8-15.1 19-14.6 27.5zM1344.3 223.9c-.5 11 6.3 20.4 19.6 20.7 14.5.4 21.7-13.4 23.7-25.6.9-5.9 0-12.4-3.9-17.1-3.9-4.6-10.4-6.9-16.5-6.3-6.1.7-11.8 4.1-15.5 8.8-2.7 3.5-4.5 7.5-5.9 11.7-.9 2.7-1.4 5.3-1.5 7.8z"/><path class="st11" d="M1414.7 237.2c10.7 1.7 20.2-6.7 19.1-18.3-.3-2.6-.9-5.2-2.2-7.5-2.5-4.3-7.4-7.2-12.4-7.3-16.7-.6-25.8 23.2-10.3 31.2 1.9.9 3.8 1.6 5.8 1.9zM1151.6 229.4c1.3 2.7 3.4 5.3 6.4 7.2 9 5.8 28.6 10.1 39.5 11.9 9.6 1.6 21-.3 26.4-7.6 1.7-2.3 2.6-4.9 3.5-7.5 1.1-3 2.1-6 3.2-9 5.8-16.4-7.9-28.6-27.1-26.4-9.6 1.1-17.2 5.4-25.5 9.4-6.9 3.3-11 2.8-18.1 5-9 2.7-11.3 10.4-8.3 17z"/><path class="st80" d="M1146.3 462.1c1 .3 2 .5 3 .7 1 .2 2 .4 3 .7l3 .6c1 .2 2.1.2 3.1.2.5 0 1 .1 1.5.1s1 .1 1.5.2c1 .1 2.1.3 3.1.3s2.1-.1 3.1-.1c1-.1 2.1-.2 3.1-.3 1-.1 2-.3 3.1-.4 1-.1 2-.3 3-.5l1.5-.2c.5-.1.9-.2 1.4-.3 1-.2 2-.4 2.9-.7.9-.3 1.8-.8 2.6-1.3s1.5-1.2 2.1-1.8c.6-.7 1.1-1.3 1.5-2.1.3-.7.5-1.6.5-2.4l.7 1c-.8-.5-1.8-.8-2.8-.8-1 0-2 .1-2.9.5-.9.4-1.7 1-2.3 1.8-.1.1-.3.5-.4.6l-.3.6c-.2.5-.2.9-.3 1.4-.1.9-.2 1.9 0 2.9.1.5.2 1 .5 1.4.2.4.6.8 1 1.1.8.6 1.6 1.3 2.6 1.7l.3.2.4.2.8.3c.5.3 1 .4 1.5.6 2 .7 4.3 1 6.5 1.1 1.1 0 2.2 0 3.4-.1 1.1-.1 2.2-.3 3.3-.5 2.2-.3 4.6-.5 6.7-1.4 2.1-1 4.3-1.7 6.5-2.4s4.4-1.5 6.5-2.4c2.1-.9 4.3-1.8 6.5-2.5s4.5-1.3 6.8-1.7c2.3-.4 4.7-.4 7-.4 2.3.1 4.7.3 7 1.1s4.5 2.2 5.9 4.5c.3.6.6 1.2.7 1.9l.1.5v1l-.1.6c-.2 1.5-1 2.7-2 3.7-1 .9-2.3 1.5-3.7 1.7-1.4.1-3-.4-3.9-1.6l-.3-.3.1-.4c.4-1.6 1.1-3 2-4.4.9-1.3 2-2.5 3.3-3.4 1.3-.9 2.6-1.8 4.2-2.2.4-.1.7-.2 1.1-.3.4-.1.7-.2 1.1-.3.2 0 .3-.1.6-.2l.5-.1 1.1-.3c1.5-.3 3-.7 4.6-.7 1.5-.1 3 .1 4.5.3 1.5.2 3 .3 4.5.4.7 0 1.5.1 2.2.2.7.1 1.5.3 2.2.5.7.2 1.5.3 2.2.3.7.1 1.5.1 2.2.1 1.5.2 2.9.5 4.3.8 1.4.3 2.9.6 4.3.8 1.5.2 2.9.2 4.4.2 1.4 0 2.9.1 4.3.2 1.4 0 2.9-.2 4.3-.6 1.4-.4 2.7-.9 4-1.4 1.3-.5 2.5-1.2 3.7-1.9l1.3 2c-1.3.8-2.7 1.6-4.2 2.1-.4.1-.7.3-1.1.4-.4.1-.7.2-1.1.3-.8.1-1.5.3-2.3.4-1.5.2-3 .3-4.5.5s-3 .3-4.5.2c-1.5-.1-3-.4-4.5-.6-1.5-.2-3-.3-4.5-.4-1.5-.1-3-.2-4.4-.5-.7-.2-1.4-.4-2.1-.7-.7-.2-1.4-.3-2.2-.4-1.5 0-2.9-.2-4.4-.5-1.4-.3-2.9-.5-4.3-.5-1.4.1-2.9.2-4.3.3-1.4.1-2.8.1-4.2.3l-1.1.2-.5.1c-.1 0-.3.1-.5.1-.7.2-1.3.5-2 .8-1.2.6-2.5 1.2-3.7 1.9-1.2.7-2.2 1.6-3.1 2.6-.9 1-1.5 2.3-1.8 3.6l-.2-.8c.3.3.6.5 1 .6.4.1.8 0 1.2 0 .4-.1.8-.3 1.2-.6.2-.1.4-.2.6-.4.2-.1.3-.3.5-.5.3-.3.6-.7.8-1l.3-.6c0-.2.2-.4.1-.5.1-.7-.1-1.6-.5-2.5-.8-1.7-2.6-3-4.5-3.9-1.9-.9-4.1-1.6-6.4-1.7-1.1 0-2.3 0-3.4.2s-2.2.3-3.3.6c-.6.1-1.1.2-1.6.4-.5.1-1.1.3-1.6.4-1.1.3-2.2.6-3.2 1-2.1.8-4.3 1.4-6.5 2.1-.6.2-1.1.4-1.6.6-.5.2-1.1.4-1.6.7-1.1.5-2.1 1.1-3.1 1.6-1 .6-2.1 1.1-3.2 1.5-1.1.5-2.3.6-3.5.7-2.4.3-4.4 1.7-6.8 2.2l-1.8.3-1.8.2c-1.2.1-2.4.1-3.6 0-2.4-.1-4.8-.4-7.2-1.2-.6-.2-1.2-.4-1.7-.6l-.8-.3-.4-.2c-.2-.1-.3-.1-.5-.2-.6-.3-1.1-.6-1.6-1s-1.1-.8-1.5-1.3c-.4-.6-.7-1.1-1-1.7-.3-.6-.6-1.2-.8-1.8-.5-1.2-.6-2.6-.3-3.9.6-2.6 2.6-4.8 4.9-5.7 1.2-.5 2.4-.7 3.7-.7 1.3 0 2.5.3 3.7.9l.4.2v.4c.1 1.2 0 2.3-.5 3.4s-1.1 2-1.9 2.8c-.8.8-1.7 1.4-2.7 2-.5.3-1 .5-1.4.8-.5.2-1 .5-1.5.7-1 .4-2 .9-3 1.2-.5.2-1.1.3-1.6.4l-.8.2h-.8c-1 .1-2.1.3-3.2.3-1.1.1-2.1.1-3.2.1h-8l-1.6.1c-1.1 0-2.1 0-3.2-.1-1-.1-2.1-.4-3.1-.5l-3.1-.4c-2.1-.3-4.2-.7-6.2-1.2l1-2.1zM1143.5 480.1s.7 0 2 .1c.6 0 1.4 0 2.4.1.9.1 2 .1 3.2.2.6 0 1.2-.1 1.9-.1s1.3 0 2.1.1c.7.1 1.5.2 2.2.2h2.4c1.7-.1 3.4-.2 5.3-.3.9 0 1.9-.1 2.9-.1s2 .1 3 .2 2.1.1 3.1 0c1.1-.1 2.1-.2 3.3-.2 1.1 0 2.2.1 3.4.2 1.1.1 2.3.1 3.5.2 2.3.1 4.8.2 7.2-.1.6 0 1.2-.1 1.9 0 .6.1 1.2.2 1.9.3.6.1 1.3 0 1.9-.1.6-.1 1.3 0 1.9 0 2.6 0 5.2.1 7.8.1h4c1.3 0 2.7 0 4 .2 1.3.2 2.7.3 4 0 1.4-.2 2.7-.1 4.1 0 1.4.1 2.7.2 4.1.2 1.4 0 2.7-.1 4.1-.2 2.7-.1 5.5-.1 8.2-.1 1.4 0 2.7.1 4.1.1 1.4 0 2.7-.1 4-.2 2.7-.3 5.3-.4 8-.6 1.3-.1 2.6-.1 3.9-.2h1.9c.6 0 1.3.1 1.9.1 2.6.2 5.1-.2 7.5-.4.6-.1 1.2-.1 1.8-.1.6 0 1.2-.1 1.8-.1.6 0 1.2.1 1.8.1h1.8c2.3-.2 4.6-.4 6.8-.1 2.2.3 4.3-.3 6.4 0 2.1.3 4-.6 5.9-.3 1.9.1 3.6.2 5.3.1 1.7-.1 3.2-.4 4.7-.3 1.4.1 2.8.1 4 0 1.2-.1 2.3-.3 3.2-.4.9-.1 1.7-.1 2.4-.1.6 0 1.1-.1 1.5-.1h.5l.1 2.4h-4.4c-.9 0-2-.1-3.2-.1-1.2 0-2.5.1-3.9.4-.7.1-1.5.1-2.2.1-.8 0-1.6-.1-2.4-.1-1.7 0-3.4.3-5.3.5-.9.1-1.9.2-2.9-.1-1-.2-2-.2-3 0-2 .4-4.2-.3-6.4.1-2.2.5-4.5.3-6.8.1h-1.8c-.6.1-1.2.1-1.8.2h-3.6c-2.5-.1-5-.3-7.5.1-.6.1-1.3.2-1.9.3-.6 0-1.3.1-1.9.1-1.3 0-2.6 0-3.9.1-1.3 0-2.6 0-4-.1-1.3 0-2.7-.1-4-.3-1.3-.2-2.7-.2-4-.2-1.4.1-2.7.3-4.1.4-2.7.2-5.4.3-8.2.2-1.4-.1-2.7-.3-4.1-.3-1.4 0-2.7.2-4.1.4-.7.1-1.4.2-2 .2-.7.1-1.4 0-2-.2-1.4-.4-2.7-.3-4 0-.7.2-1.3.3-2 .3-.7.1-1.3 0-2 0-1.3-.1-2.7-.1-4-.2-2.6 0-5.2 0-7.8-.1-.6 0-1.3 0-1.9-.1-.6-.2-1.3-.3-1.9-.2-.6 0-1.3.2-1.9.2h-1.9c-2.5-.3-4.9-.3-7.2-.4h-6.8c-1.1 0-2.2-.1-3.3-.1-1.1 0-2.1 0-3.1.1-4.1.5-7.8-.1-11.2-.2-.8 0-1.6-.1-2.4-.1-.8 0-1.5.1-2.2.2-.7.1-1.4.1-2.1.1-.7-.1-1.3-.1-1.9-.2-1.2 0-2.3.1-3.2.1h-4.4l-.5-2zM1180.7 494.1h4c.9 0 1.8.1 2.9.1.6 0 1.1-.1 1.7-.2h1.9c.7.1 1.4.2 2.1.1.7 0 1.5-.1 2.2-.1 1.5-.1 3.2-.3 4.9-.4.9 0 1.7-.1 2.6-.1.9 0 1.8.1 2.8.1.9.1 1.9.1 2.9 0s2-.2 3-.2 2.1 0 3.1.1c1.1.1 2.1.1 3.2.2 2.2 0 4.4.1 6.6-.3.6 0 1.1-.1 1.7 0 .6 0 1.2.2 1.7.2.6.1 1.2 0 1.7-.1.6-.1 1.2-.1 1.8-.1h7.2c1.2 0 2.4 0 3.7-.1 1.2-.1 2.5 0 3.7.2 1.2.2 2.5.2 3.7 0 1.2-.2 2.5-.1 3.7 0 1.3.1 2.5.2 3.8.2 1.3 0 2.5-.1 3.8-.2 2.5-.1 5-.1 7.5-.1 1.3 0 2.5.1 3.8.1 1.2 0 2.5-.1 3.7-.2 2.5-.3 4.9-.4 7.4-.6 1.2 0 2.4-.1 3.6-.1h1.8c.6 0 1.2.1 1.8.1 2.4.2 4.7-.1 6.9-.3.6-.1 1.1-.1 1.7-.1.6 0 1.1-.1 1.7-.1.6 0 1.1.1 1.7.1h1.6c2.2-.2 4.3-.4 6.3 0 2 .3 4-.2 5.9.1 1.9.4 3.7-.5 5.4-.2 1.7.1 3.4.2 4.9.2 1.5-.1 3-.3 4.3-.2 1.3.1 2.5.2 3.6 0 1.1-.1 2.1-.2 2.9-.3.9 0 1.6-.1 2.2-.1h1.8v2.4h-4c-.9 0-1.8-.1-2.9-.2-1.1-.1-2.3.1-3.6.3-.7.1-1.4.1-2.1.1-.7 0-1.5-.1-2.2-.1-1.5 0-3.2.2-4.9.4-.9.1-1.7.2-2.6-.1-.9-.2-1.8-.2-2.8 0-1.9.4-3.9-.4-5.9 0-2 .4-4.1.2-6.3.1-1.1-.1-2.2 0-3.3.2h-1.7c-.6 0-1.1 0-1.7-.1-2.3-.1-4.6-.3-6.9 0l-1.8.3c-.6 0-1.2.1-1.8.1-1.2 0-2.4 0-3.6.1-1.2 0-2.4-.1-3.7-.1-1.2 0-2.5-.1-3.7-.3-1.2-.2-2.5-.2-3.7-.2-1.2.1-2.5.3-3.7.4-2.5.2-5 .3-7.5.3-1.3-.1-2.5-.3-3.8-.2-1.3 0-2.5.2-3.8.5-.6.1-1.2.2-1.9.2-.6.1-1.2 0-1.9-.2-1.3-.4-2.5-.3-3.7 0-.6.2-1.2.3-1.8.3-.6.1-1.2 0-1.8 0-1.2 0-2.4-.1-3.7-.1h-7.2c-.6 0-1.2 0-1.8-.1-.6-.1-1.2-.2-1.7-.2-.6 0-1.2.2-1.7.2-.6.1-1.1 0-1.7 0-2.3-.3-4.5-.2-6.7-.3-2.2.1-4.3.1-6.3.2h-3c-1 0-1.9 0-2.9.2-3.8.6-7.2.1-10.3.1h-2.2c-.7 0-1.4.1-2.1.2-.7.1-1.3.1-1.9.1-.6 0-1.2-.1-1.7-.1-1.1 0-2.1.1-2.9.2-.9.1-1.6.1-2.2.1-1.2.1-1.8.1-1.8.1v-2.5z"/><path class="st81" d="M1458.8 167.3c-3.8 6.5-7.6 17.3-22.8 21.3-17 4.5-42 5.3-62.7 3.4s-42.2-4.4-63-2.6c-21.8 1.9-37.9 8.3-48.8 15.1s-18.2 14.3-30.6 20.8c-12.4 6.5-31.9 12.1-54.4 12.2-11 0-22.3-1.2-32.9-.2-8.5.9-17.5 3.2-25.3 1.7-6.7-1.3-7.3-4.4-7.1-7.1 1.6-21.5 1.5-43.1-.2-64.6"/><path class="st2" d="M1919 627.9c-3.4 14.5-15 11.5-21.8 13.9-12.5 4.5-24.9 11-37.4 16.5-13.5 5.9-27.2 11.9-40.9 8.6-8.4-2-16.4-7.4-24.8-9.6-17.6-4.7-35.3 4.8-51.9 17.2-14.3 10.6-29.1 23.7-44.1 18.1-14.4-5.4-26.4-27.4-40.8-31.6-.5-.2-1.1-.3-1.6-.4-7.9-1.5-16.1 2.8-23.7-1.7-7.6-4.5-13.6-24.7-8-36"/><path class="st3" d="M1917.6 629.8l-295.6.2h-1.5v-1.4l.8-545.2v-.6h.6l294.4-.4h1v1l.2 136.3.1 68.2-.1 68.2-.1 68.2v68.2l.2 137.3zm-2.4-2.4l-.1-135.1V355.9l.2-68.2V83.2l1.2 1.2-294.5.3 1.3-1.3.2 136.3v34.1l-.1 34.1-.2 68.2-.1 34.1c0 11.4-.1 22.7-.1 34.1l.1 34.1-.1 34.1-.2 68.2-.1 34.1.1 34.1-.9-.9 73.6-.2h73.6l146.1-.4z"/><path class="st3" d="M1901 614.3l-262.4.2h-1.5v-1.4l.8-514.3v-.6h.6l261.2-.3h1v1l.2 128.6.1 64.3-.1 64.3-.1 64.3v64.3l.2 129.6zm-2.4-2.4l-.1-127.4v-64.3l.1-64.3.2-64.3V98.7l1.2 1.2-261.2.1 1.3-1.3.2 128.6v32.1l-.1 32.1-.2 64.3-.1 32.1-.1 16.1v16.1c0 10.7.1 21.4 0 32.1l-.1 32.1-.2 64.3-.1 32.1.1 32.1-.9-.9 32.6-.1 32.6-.1h65.3l129.5.2z"/><path class="st2" d="M1752.5 175.1c15.2 6.2 39.1 6.2 50.8-7.5 2.3-2.8 2.7-6.6 2.6-10.3-.4-17.6-7.4-35.5-26.6-36.8-7.2-.5-14.7.2-20.9 3.8-11.8 6.9-15.6 22.3-15.8 36 0 2.7 0 5.5 1.2 7.9 1.7 3.5 5.2 5.5 8.7 6.9zM1865.2 236c-3.2-10.1-13.8-17.8-21.6-24.8-4.1-3.7-9.8-5-15.3-5.9-22.7-3.6-46.7-1.5-69.7-1.5-12-.1-24.2-.1-35.6 3.4-11.5 3.5-22.3 11-26.7 22.2-5.3 13.4-.6 28.3 2.5 42.3 2.8 12.6 4.2 25.6 4.2 38.5 0 4.4 0 9.2 3 12.4 1.2 1.3 2.7 2.1 4.3 2.9 34.1 17.6 75.1 11.6 113 5 6.6-1.1 13.3-2.3 19.2-5.5 15.7-8.3 21.7-27.5 24.3-45.1 2.1-14.6 2.9-29.8-1.6-43.9zM1819 372.1c-2.4 5.9.2 12.9 4.8 17.3s10.8 6.6 17 8.4c2.6.7 5.3 1.4 8 .9 10.7-2.1 13.6-17 8.9-25.3-2.3-4.1-6.2-7-9.9-9.8-1.6-1.2-3.2-2.4-5.2-2.7-2.2-.4-4.4.4-6.5 1.2-6.4 2.2-14.2 2.9-17.1 10zM1825.8 412.1c-4.7 1.1-9.1 3.8-11.6 7.9-3.5 5.9-2 13.9 2.1 19.4 4.1 5.5 10.4 9 16.8 11.6 3.8 1.5 8 2.8 12 1.8 12.8-3.2 16.6-21.8 10.1-31.6-5.9-8.9-19.5-11.5-29.4-9.1zM1832.2 497c4.5 5.7 12.9 6.3 20.1 5.2 3.4-.5 7-1.3 9.7-3.5 11.2-8.9 3.4-32.4-10.3-33.8-5-.5-9.9 1-14.6 2.9-2.6 1-5.2 2.2-6.9 4.3-3.6 4.4-1.3 20.8 2 24.9zM1721.3 500.3c.3.1.6.2 1 .2 16 3.6 46.6 4.7 57.6-9 12.6-15.6 16.3-42.6 15.5-61.9-2-45.6-37-85.3-84.9-74.3-6.9 1.6-13.8 4.3-18.3 9.7-4.3 5.1-5.8 12-7.5 18.4-6.9 27.4-18 56.8-6.6 82.7 7.6 17.6 24.7 29.7 43.2 34.2zM1787.4 584.7c9.8-.5 19.6-.8 29.4-.2 19.4 1.1 39-5.2 54.3-17.2 4.5-3.5 8.9-8.6 7.9-14.2-.5-2.8-2.3-5.1-4.3-7.1-12.3-13.2-30.8-20.4-48.8-18.7-10 .9-19.5 4.3-29.4 5.9-11.3 1.9-23.1 1.3-34.2-1.6-11.4-3-22.4-8.4-34.3-8.6-22.1-.2-39.7 16.8-47 36.1-2.4 6.3-3.3 14.3 1.5 19.1 2.4 2.4 5.9 3.5 9.2 4.4 32.2 8.6 63.9 3.8 95.7 2.1zM1001.5 256.5c-.9 6.7-1.4 13.7-3.8 20-5.4 14.2-20.1 23-34.9 26.1-14.9 3.1-30.2 1.5-45.4 1.1-17.6-.5-35.3.7-52.7 3.4-14.7 2.3-29.4 5.7-44.3 5.2-7-.2-14-1.4-20.8-3.4-7.1-2.1-14.1-5.3-19.1-10.7-9.6-10.6-13.6-28.8-14.2-42.6"/><g><path class="st5" d="M765.6 83.4h235.9v173.1H765.6z"/><path class="st3" d="M1002.7 257.7l-119.2.3-59-.1-29.5-.1c-9.8-.1-19.7 0-29.5-.1h-1.2v-1.2l.1-10.8V170l.4-86.6v-.6h30.1l29.5-.1 59-.1 118-.3h1.2v1.2l-.2 86.6.3 87.6zm-2.4-2.4l-.2-85.4v-43.2l.2-43.3 1.2 1.2-235.9.1 1.3-1.3.3 86.6-.3 43.3-.2 21.6-.1 10.8.1 10.8-1.1-1.1c4.9-.1 9.8 0 14.7 0l14.7.1 29.5.1 14.7.1h14.7l29.5-.2c9.8-.1 19.7 0 29.5-.1h29.5l57.9-.1z"/><path class="st5" d="M780 95.9h207v148H780z"/><path class="st3" d="M988.2 245.2l-104.7.2h-25.9l-25.9-.1-25.9-.1h-12.9c-4.3 0-8.6-.1-12.9-.1h-1.2V244l.1-9.3v-64.8l.2-37 .1-37v-.6h26.5l25.9-.1 51.8-.1 103.6-.4h1.2v1.2l-.1 37-.1 37 .2 75.3zm-2.4-2.4l-.2-72.8v-37l.2-37 1.2 1.2-207 .1 1.3-1.3.3 74-.3 37-.2 18.5-.1 9.3v9.3l-1.1-1.1c4.3 0 8.6-.1 12.9 0l12.9.1 25.9.1 12.9.1h13l25.9-.2c8.6-.1 17.3 0 25.9-.1h25.9l50.6-.2z"/><path class="st2" d="M805.5 138c4.2.5 8.6-.5 12.7-1.9 5.6-1.9 11.4-5.4 12.6-11.2.9-4.3-1.1-8.6-3.2-12.5-.9-1.7-1.9-3.4-3.5-4.6-4-3.1-11.3.2-15 2.3-8.2 4.8-21.6 24.2-5.2 27.6.5.1 1.1.2 1.6.3zM884.6 133.6c4.6-.1 8.6-4.1 9.2-8.7.2-1.6 0-3.3-.9-4.5-1.5-2-4.4-2.2-6.9-1.8-2.2.4-4.2 1.1-6.2 2.1-2.3 1.3-4.5 3.2-4.9 5.8-.9 4.9 6 7.2 9.7 7.1zM907.8 117.2c-.3 1.2-.5 2.4-.1 3.6.6 1.9 2.3 3.2 3.9 4.2 3.5 2.1 7.4 3.6 11.4 3.4 4-.2 8.1-2.5 9.7-6.2 2.7-6.5-3.4-12.2-9.4-13.4-6-1.2-13.7 2.2-15.5 8.4zM951.8 130.9c2.3 1.1 4.9 1.2 7.4 1.1 2.6-.2 5.3-.6 7.5-2 4.5-2.9 4.1-8.3-.2-11.2-4.4-2.9-12.2-3.6-16.5.1-3.7 3.2-2.6 9.9 1.8 12zM959.6 148.4c-9.8-6.1-22-7.1-33.4-5.6-11.4 1.5-22.4 5.5-33.4 8.7-11.1 3.2-22.6 5.8-34.1 4.6-7.8-.8-15.3-3.4-23-5-7.7-1.5-16-2-23.1 1.4-4.4 2-8 5.4-11.3 8.9-4.8 5.1-9.2 11.2-9.7 18.3-.8 9.9 6.2 18.9 14.4 24.7 8.6 6.1 18.8 9.9 29.3 10.9 19.5 1.9 37.1-6.8 56.2-7.9 11.4-.6 22.6 3.1 33.7 5.7 19.6 4.5 41.6 1.7 49.5-19.8 2.2-6 2-12.8.4-19-2.5-10-6.5-20.3-15.5-25.9zM861 227c.8 2.2 3.6 2.8 5.9 2.6 1.4-.1 4.9-.6 5.5-2 .8-1.8-1.8-5.1-3.1-6.1-4.2-3.2-10.2-.2-8.3 5.5z"/><path class="st2" d="M892 220.1c-1.8-6.3-10.8-4.6-9.5 1.8 1.5 6.7 11.6 5.3 9.5-1.8zM904.2 225.8c.5.6 1.1 1.1 1.8 1.4 3.4 1.8 8.2-1 6.2-5.2-.8-1.6-2.4-2.5-4-3.2-.3-.2-.6-.3-1-.3-.3.1-.5.3-.8.5-1.8 1.7-4.1 4.2-2.2 6.8z"/></g><g><path class="st2" d="M1001.5 468.6c-1.6 12.2-6.9 21.7-18.2 27.3-8.8 4.4-18.6 6.4-27.1 11.4-11.3 6.7-20.5 19-33.6 19.7-11.7.6-22.3-8.4-34-8.3-12.1.2-21.7 9.8-32.5 15.2-15.8 7.9-34.5 6.8-51.8 3.6-7.5-1.3-15.1-3.1-21.6-7.2-10.7-6.8-13.9-22.5-14.7-34.2-.6-9 .1-18.1 0-27.2"/><path class="st5" d="M765.6 295.5h235.9v173.1H765.6z"/><path class="st3" d="M1002.7 469.8l-119.2.2-59-.1-29.5.1c-9.8 0-19.7 0-29.5-.1h-1.2v-1.2l.1-10.8v-75.7l.4-86.6v-.6h30.1l29.5-.1 59-.1 118-.3h1.2v1.2l-.2 86.6.3 87.5zm-2.4-2.4l-.2-85.4v-43.2l.2-43.3 1.2 1.2-235.9.1 1.3-1.3.3 86.6-.3 43.3-.2 21.6-.1 10.8.1 10.8-1.1-1.1h14.7l14.7.1 29.5.1 14.7.1h14.7l29.5-.2c9.8-.1 19.7 0 29.5-.1h29.5l57.9-.1z"/><path class="st5" d="M780 308h207v148H780z"/><path class="st3" d="M988.2 457.3l-104.7.3h-25.9l-25.9-.1-25.9-.1h-12.9c-4.3 0-8.6-.1-12.9-.1h-1.2v-1.1l.1-9.3v-64.8l.2-37 .1-37v-.6h26.5l25.9-.1 51.8-.1 103.5-.3h1.2v1.2l-.1 37-.1 37 .3 75.1zm-2.4-2.4l-.2-72.8v-37l.2-37 1.2 1.2-207 .1 1.3-1.3.3 74-.3 37-.2 18.5-.1 9.3v9.3l-1-1.2c4.3 0 8.6-.1 12.9 0l12.9.1 25.9.1 12.9.1h13l25.9-.2c8.6-.1 17.3 0 25.9-.1h25.9l50.5-.1z"/><path class="st2" d="M927.5 399.2c5.4-.8 10.7-2.1 15.8-3.8 7.6-2.5 15-5.7 21.3-10.6 6.3-4.9 11.5-11.5 13.6-19.2 2.6-9.4.1-18.5-1.4-27.8-1.1-7.3-4.1-14.2-10.5-18.5-5-3.4-11.2-4.4-17.2-4.9-10.5-.9-21.1-.6-31.5 1.1-16.9 2.7-33 7.6-50.1 8.5-8.5.4-15.9-.2-24.3-1.9-8-1.6-16.3-3.4-24.4-1.7-8.6 1.8-16 7.5-20.9 14.7-4.9 7.2-7.4 15.9-8.1 24.6-.9 11.1 15 17.1 23.7 18 9.8.9 19.6-1.1 29.5-.9 7 .1 13.9 1.4 20.4 3.8 13.5 4.8 25.2 14.1 39.1 17.7 8.2 2.1 16.7 2.1 25 .9zM835.6 390.5c-10.1.7-20.2 5-26.9 12.7-6.7 7.7-9.6 18.7-6.7 28.4 1 3.2 2.6 6.3 5.1 8.5 3.2 2.9 7.6 4.1 11.8 5.1 10.4 2.6 21.5 5.1 31.7 1.7 9.9-3.3 18.8-11.6 26.7-18.2 4.1-3.4 8.2-7.9 8.2-13.2 0-4.6-3-8.6-6.4-11.8-11.4-10.7-28.2-14.2-43.5-13.2z"/><path class="st82" d="M829.4 414.5c10.7 2.3 22.2.7 31.8-4.5 1.8-1 3.9-2.8 3.2-4.7-.8-2.2-4-2-6.2-1.1-3.4 1.4-7.1 4.8-5.6 8.2.7 1.5 2.2 2.4 3.6 3.1 6.1 2.9 13.2 3.5 19.6 1.6 4.7-1.3 8.9-3.8 13.2-5.9s9-4 13.8-4c4.8.1 9.9 2.4 11.9 6.8.7 1.4 1 3.2.4 4.6s-2.3 2.5-3.8 2c-2-.7-2.3-3.5-1.1-5.2 1.2-1.7 3.3-2.5 5.3-3 14.4-3.8 29.6-.6 44.4-2 1.4-.1 3-.4 4-1.4M838.8 426.6c30-.6 60.1-1.3 90.1-1.9M840.5 434.3c32-1.2 64-2 96-2.3"/><path class="st5" d="M810.2 337.2c-1.4 2.7-2.2 5.9-1.1 8.8 1.5 4 6.2 6 10.5 6.5 6.6.7 16.1-1.3 16.8-9.4.2-2-.3-4-.9-5.8-.7-2.2-1.6-4.3-3.2-5.9-7.1-7.4-18.1-1.9-22.1 5.8zM903 332.9c.6.5 1.4.6 2.1.8 1.5.3 3.1.6 4.6.1 3.2-.9 4.6-5.7 1.8-7.8-1.4-1-3.2-1.2-4.9-.9-2.9.6-7.1 5-3.6 7.8zM924 334.1c0 1.3.1 2.6.7 3.7 1.1 2.1 3.5 3.1 5.9 3.4 4.4.7 9.4-.9 11.5-4.7 2.2-4.1.5-8.3-2.3-11.5-1-1.1-2.1-2.3-3.5-2.6-1.5-.4-3 .1-4.4.7-5.2 1.8-7.8 5.5-7.9 11zM952.3 342.5c.1 1.2.3 2.3.7 3.4 1.1 2.3 3.4 3.8 5.9 4.1 2.5.3 5-.6 7-2.1 3.6-2.7 3.5-8.5 1-11.9-1.4-1.9-3.7-3.2-6.1-3.3-5.7-.3-8.8 4.7-8.5 9.8z"/></g><g><path class="st2" d="M1000.7 678.2c-1.7 7.6-5.3 13.5-13.4 15.2-5.2 1.1-10.7.7-15.8 2.1-10.5 2.9-17.6 12.5-26.8 18.5-11.4 7.4-26.5 8.7-38.9 3.4-5.6-2.4-10.7-5.7-16.3-8.2-4-1.8-7.5-4.5-12.1-4.5-12.7 0-24.7 8.3-36.2 12.7-12.1 4.6-25.2 6.3-38.1 5-5.2-.5-10.4-1.6-15.1-3.9-7.1-3.5-12.6-9.7-16-16.7s-4.9-15-5.3-22.8"/><path class="st5" d="M765.6 505.2h235.9v173.1H765.6z"/><path class="st3" d="M1002.7 679.5l-119.2.2-59-.1-29.5-.1c-9.8-.1-19.7 0-29.5-.1h-1.2v-1.2l.1-10.8v-75.7l.4-86.6v-.6h30.1l29.5-.1 59-.1 118-.3h1.2v1.2l-.2 86.6.3 87.7zm-2.4-2.4l-.2-85.4v-43.2l.2-43.3 1.2 1.2-235.9.1 1.3-1.3.3 86.6-.3 43.3-.2 21.6-.1 10.8.1 10.8-1.1-1.1c4.9-.1 9.8 0 14.7 0l14.7.1 29.5.1 14.7.1h14.7l29.5-.2c9.8-.1 19.7 0 29.5-.1h29.5l57.9-.1z"/><path class="st5" d="M780 517.7h207v148H780z"/><path class="st3" d="M988.2 667l-104.7.3h-25.9l-25.9-.1-25.9-.1h-12.9c-4.3 0-8.6-.1-12.9-.1h-1.2v-1.1l.1-9.3v-64.8l.2-37 .1-37v-.6h26.5l25.9-.1 51.8-.1 103.5-.3h1.2v1.2l-.1 37-.1 37 .3 75.1zm-2.4-2.4l-.2-72.8v-37l.2-37 1.2 1.2H780l1.3-1.3.3 74-.3 37-.2 18.5-.1 9.3v9.3l-1.1-1.1c4.3 0 8.6-.1 12.9 0l12.9.1 25.9.1 12.9.1h13l25.9-.2c8.6-.1 17.3 0 25.9-.1h25.9l50.6-.1z"/><path class="st2" d="M809.3 527.4c-4.3 0-8.6 2.3-10.9 5.9-1.4 2.2-2.1 4.8-2.4 7.3-.8 5.5.3 11.8 4.8 15.2 4.4 3.3 10.7 2.6 15.7.3 3-1.4 5.7-3.4 7.7-6.1 3.2-4.5 1.8-11.1-1.4-15.2-3.1-3.6-8.7-7.3-13.5-7.4zM804.9 574.2c-2.4.2-4.8.7-6.9 2-2.1 1.3-3.7 3.4-4 5.8-.4 3.2 1.7 6.3 4.5 8 2.8 1.6 6.2 1.9 9.4 1.8 5.8-.3 20.5-4.1 14.3-12.9-1.4-2.1-4.2-2.7-6.7-3.2-3.6-.8-6.9-1.5-10.6-1.5zM799.7 601.5c-2.2 1.8-3.9 4.9-2.7 7.5.9 1.7 2.8 2.6 4.7 3 3.1.7 6.4.6 9.6.1 4.8-.9 7.9-1.3 9.3-6.7.5-1.8.6-3.9-.8-5.1-4.9-4.4-15.5-2.7-20.1 1.2zM797.5 630.2c-.2 1.2-.3 2.5.3 3.6.9 1.6 2.9 2.2 4.8 2.4 6.3.4 15.3-4 14.9-11.5-.1-2.4-2.7-4.1-5.1-4.1-6.8 0-13.3 1.6-14.9 9.6zM877.3 650.3c11.9 1.2 23.1-8.7 28.1-18.8 2.6-5.1 3.9-10.7 5.2-16.3 1.8-7.7 3.7-15.5 4-23.4.5-11.5-2.2-22.8-6-33.6-3.2-9.3-6.1-19.6-16.3-23.3-11-4-24.2-1.2-32.5 7-5.1 5-8.4 11.7-11.3 18.3-4.4 10-8.4 20.4-9.8 31.2s-.1 22.3 5.4 31.8c4.5 7.6 11.4 13.4 18.1 19.1 4.7 3.6 9.4 7.4 15.1 8zM928.9 572.8c-.1 2.8-.1 5.7 1 8.3 1 2.7 3.1 4.8 4.3 7.4 1.2 2.6 1.6 5.7 3.6 7.8 2.3 2.5 6.1 2.9 9.5 2.6 5.5-.5 10.9-2.5 14.9-6.3 4.3-4.1 6.6-9.9 8.2-15.6 1.9-6.6 3.1-13.5 2.2-20.3-.9-7-6.1-19.3-13.4-21.8-3.7-1.3-7.7-.8-11.4.6-16.1 5.7-18.5 22.4-18.9 37.3zM928.9 631.3c-.1 4.4.4 8.9 2.1 12.9 1.7 4 4.8 7.6 8.8 9.4 4.7 2.1 10.2 1.4 15-.4 5-1.9 9.6-5.2 12-9.9 5.6-10.9-1.4-21.8-8.4-29.9-1.1-1.3-2.3-2.6-3.8-3.5-1.9-1.1-4.1-1.3-6.3-1.5-13.5-1.3-19.2 11-19.4 22.9z"/></g><g><path class="st0" d="M1467.1 128.3l-17.4.2c-5.8.1-11.6.1-17.4.1-2.9 0-5.8 0-8.7-.1l-8.7-.1c-1.5 0-2.9 0-4.4-.1-1.4-.1-2.9-.1-4.4-.1h-8.7c-.6 0-1-.5-1-1v-7c0-2.3.1-4.7.1-7 .1-4.7.2-9.3.2-14 0-.3.3-.6.6-.6h8.8l8.7-.1 17.4-.2 17.4-.2 4.4-.1h4.4c2.9 0 5.8.1 8.7.1.6 0 1 .5 1 1v7l.1 7 .1 14c0 .7-.5 1.2-1.2 1.2zm-1.2-2.4l-.1-12.8-.1-7v-7l1.4 1.4c-2.9 0-5.8-.1-8.7-.2l-4.4-.1H1397.4l1.3-1.3c.1 4.7.2 9.3.2 14v7l-.1 3.5c0 1.2-.1 2.3-.1 3.5l-1.4-1.4 8.7.3c1.4.1 2.9.1 4.4 0h4.4l8.7.2 4.4.1h4.4l4.4-.1c1.5 0 2.9-.1 4.4-.1h24.8zM1344.2 68.2l24.6-.2 12.3-.1h12.3l12.3.1 6.1.1h3.1l3.1.1c2 .1 4.1.1 6.1.1h18.4c.5 0 1 .4 1 1 0 2.3-.1 4.7-.1 7l-.1 7-.2 14c0 .3-.3.6-.6.6h-12.2l-12.3.1-24.6.2-24.6.2c-4.1 0-8.2 0-12.3-.1l-12.3-.1c-.5 0-1-.4-1-1l-.2-27.9c0-.5.6-1.1 1.2-1.1zm1.3 2.4l.2 26.7-1.4-1.4h12.3l12.3.2H1442.6l-1.3 1.3-.2-14-.1-7c0-2.3-.1-4.7 0-7l1.5 1.5-12.3-.2-6.1-.2-3.1-.1h-3.1l-3.1.1-3.1-.1-6.1-.1-12.3-.2c-2 0-4.1.1-6.1.1l-6.1.1c-2 .1-4.1.1-6.1.1h-6.1l-23.4.2z"/><path class="st0" d="M1445.7 68.2l24.6-.2 12.3-.1h12.3l12.3.1 6.1.1h3.1l3.1.1c2 .1 4.1.1 6.1.1h18.4c.5 0 1 .4 1 1 0 2.3-.1 4.7-.1 7l-.1 7-.2 14c0 .3-.3.6-.6.6h-12.2l-12.3.1-24.6.2-24.6.2c-4.1 0-8.2 0-12.3-.1l-12.3-.1c-.5 0-1-.4-1-1l-.2-27.9c0-.5.6-1.1 1.2-1.1zm1.2 2.4l.2 26.7-1.4-1.4h12.3l12.3.2H1544l-1.3 1.3-.2-14-.1-7c0-2.3-.1-4.7 0-7l1.5 1.5-12.3-.2-6.1-.2-3.1-.1h-3.1l-3.1.1-3.1-.1-6.1-.1-12.3-.2c-2 0-4.1.1-6.1.1l-6.1.1c-2 .1-4.1.1-6.1.1h-6.1l-23.4.2z"/><path class="st0" d="M1393.4 38.5l24.6-.2 12.3-.1h12.3l12.3.1 6.1.1h3.1l3.1.1c2 .1 4.1.1 6.1.1h18.4c.5 0 1 .4 1 1 0 2.3-.1 4.7-.1 7l-.1 7-.2 14c0 .3-.3.6-.6.6h-12.2l-12.3.1-24.6.2-24.6.2c-4.1 0-8.2 0-12.3-.1l-12.3-.1c-.5 0-1-.4-1-1l-.2-27.9c0-.6.5-1.1 1.2-1.1zm1.2 2.4l.2 26.7-1.4-1.4h12.3l12.3.2H1491.7l-1.3 1.3-.2-14-.1-7c0-2.3-.1-4.7 0-7l1.5 1.5-12.3-.2-6.1-.2-3.1-.1h-3.1l-3.1.1-3.1-.1-6.1-.1-12.3-.2c-2 0-4.1.1-6.1.1l-6.1.1c-2 .1-4.1.1-6.1.1h-6.1l-23.4.2z"/></g><g><path class="st0" d="M1185.9 779.5l-23.5.2-11.8.1h-11.8l-11.8-.1-5.9-.1c-2 0-3.9 0-5.9-.1-2-.1-3.9-.1-5.9-.1H1091.6c-.5 0-1-.4-1-1 0-2.3 0-4.7.1-7l.1-7 .2-14c0-.3.3-.6.6-.6h11.8l11.8-.1 23.5-.2 23.5-.2h5.9l5.9.1c3.9.1 7.8.1 11.8.1.5 0 1 .4 1 1v7l.1 7 .1 14c.1.5-.4 1-1.1 1zm-1.2-2.4l-.2-26.7 1.4 1.4c-3.9 0-7.8.1-11.8 0l-11.8-.2H1091.7l1.3-1.3.2 14 .1 7c0 2.3.1 4.7 0 7l-1.5-1.5c3.9 0 7.8.2 11.8.3l5.9.2c2 .1 3.9.1 5.9 0 2-.1 3.9 0 5.9 0l5.9.1 11.8.2c3.9 0 7.8-.2 11.8-.2 2-.1 3.9 0 5.9-.1h5.9l22.1-.2z"/><path class="st0" d="M1136.1 719.5l24.6-.2 12.3-.1h12.3l12.3.1 6.1.1h3.1l3.1.1c2 .1 4.1.1 6.1.1h18.4c.5 0 1 .4 1 1 0 2.3-.1 4.7-.1 7l-.1 7-.2 14c0 .3-.3.6-.6.6h-12.2l-12.3.1-24.6.2-24.6.2c-4.1 0-8.2 0-12.3-.1l-12.3-.1c-.5 0-1-.4-1-1l-.2-27.9c0-.6.5-1.1 1.2-1.1zm1.2 2.4l.2 26.7-1.4-1.4h12.3l12.3.2H1234.4l-1.3 1.3-.2-14-.1-7c0-2.3-.1-4.7 0-7l1.5 1.5-12.3-.2-6.1-.2-3.1-.1h-3.1l-3.1.1-3.1-.1-6.1-.1-12.3-.2c-2 0-4.1.1-6.1.1l-6.1.1c-2 .1-4.1.1-6.1.1h-6.1l-23.4.2z"/><path class="st0" d="M1087.7 689.7l24.6-.2 12.3-.1h12.3l12.3.1 6.1.1h3.1l3.1.1c2 .1 4.1.1 6.1.1h18.4c.5 0 1 .4 1 1 0 2.3-.1 4.7-.1 7l-.1 7-.2 14c0 .3-.3.6-.6.6h-12.2l-12.3.1-24.6.2-24.6.2c-4.1 0-8.2 0-12.3-.1l-12.3-.1c-.5 0-1-.4-1-1l-.2-27.9c0-.6.5-1.1 1.2-1.1zm1.2 2.4l.2 26.7-1.4-1.4h12.3l12.3.2H1186l-1.3 1.3-.2-14-.1-7c0-2.3-.1-4.7 0-7l1.5 1.5-12.3-.2-6.1-.2-3.1-.1h-3.1l-3.1.1-3.1-.1-6.1-.1-12.3-.2c-2 0-4.1.1-6.1.1l-6.1.1c-2 .1-4.1.1-6.1.1h-6.1l-23.4.2z"/></g><g><path class="st0" d="M558.5 145.5l23.5-.2 11.8-.1h11.8l11.8.1 5.9.1c2 0 3.9 0 5.9.1 2 .1 3.9.1 5.9.1H652.8c.5 0 1 .4 1 1 0 2.3 0 4.7-.1 7l-.1 7-.2 14c0 .3-.3.6-.6.6H641l-11.8.1-23.5.2-23.5.2h-5.9l-5.9-.1c-3.9-.1-7.8-.1-11.8-.1-.5 0-1-.4-1-1v-7l-.1-7-.1-14c-.1-.5.4-1 1.1-1zm1.2 2.4l.2 26.7-1.4-1.4c3.9 0 7.8-.1 11.8 0l11.8.2H652.7l-1.3 1.3-.2-14-.1-7c0-2.3-.1-4.7 0-7l1.5 1.5c-3.9 0-7.8-.2-11.8-.3l-5.9-.2c-2-.1-3.9-.1-5.9 0-2 .1-3.9 0-5.9 0l-5.9-.1-11.8-.2c-3.9 0-7.8.2-11.8.2-2 .1-3.9 0-5.9.1h-5.9l-22.1.2z"/><path class="st0" d="M608.4 205.6l-24.6.2-12.3.1h-12.3l-12.3-.1-6.1-.1h-3.1l-3.1-.1c-2-.1-4.1-.1-6.1-.1h-18.4c-.5 0-1-.4-1-1 0-2.3.1-4.7.1-7l.1-7 .2-14c0-.3.3-.6.6-.6h12.2l12.3-.1 24.6-.2 24.6-.2c4.1 0 8.2 0 12.3.1l12.3.1c.5 0 1 .4 1 1l.2 27.9c0 .5-.5 1.1-1.2 1.1zm-1.2-2.4l-.2-26.7 1.4 1.4h-12.3l-12.3-.2H510.1l1.3-1.3.2 14 .1 7c0 2.3.1 4.7 0 7l-1.5-1.5 12.3.2 6.1.2 3.1.1h3.1l3.1-.1 3.1.1 6.1.1 12.3.2c2 0 4.1-.1 6.1-.1l6.1-.1c2-.1 4.1-.1 6.1-.1h6.1l23.4-.2z"/><path class="st0" d="M656.8 235.3l-24.6.2-12.3.1h-12.3l-12.3-.1-6.1-.1h-3.1l-3.1-.1c-2-.1-4.1-.1-6.1-.1h-18.4c-.5 0-1-.4-1-1 0-2.3.1-4.7.1-7l.1-7 .2-14c0-.3.3-.6.6-.6h12.2l12.3-.1 24.6-.2 24.6-.2c4.1 0 8.2 0 12.3.1l12.3.1c.5 0 1 .4 1 1l.2 27.9c0 .6-.5 1.1-1.2 1.1zm-1.2-2.3l-.2-26.7 1.4 1.4h-12.3l-12.3-.2H558.5l1.3-1.3.2 14 .1 7c0 2.3.1 4.7 0 7l-1.5-1.5 12.3.2 6.1.2 3.1.1h3.1l3.1-.1 3.1.1 6.1.1 12.3.2c2 0 4.1-.1 6.1-.1l6.1-.1c2-.1 4.1-.1 6.1-.1h6.1l23.4-.2z"/></g><g><path class="st0" d="M1094.7 578.3h76.6v50.3h-76.6z"/><path class="st70" d="M1105.1 588.3s.9 0 2.5-.1h1.3c.5 0 1 0 1.5-.1.6-.1 1.1-.1 1.8-.2.6 0 1.3-.1 1.9-.1 1.4 0 2.8.1 4.4.1 1.6 0 3.2.1 4.9.1.8 0 1.7.1 2.6.1.4 0 .9.1 1.3.1h1.3c1.8 0 3.6.2 5.4.1 1.8 0 3.6.2 5.4 0 .9-.1 1.8-.1 2.6-.1h2.6c1.7 0 3.3-.2 4.9 0 1.5.1 3 .1 4.4 0 1.4-.1 2.6.1 3.7.1s2.1-.1 2.8-.1c1.6-.1 2.5-.2 2.5-.2l.1 1.6s-.9 0-2.5.1c-.8 0-1.8.1-2.9.1-.6 0-1.1.1-1.8.2-.6.1-1.3 0-1.9 0-1.4 0-2.8-.1-4.4-.1-1.6 0-3.2-.3-4.9-.1-1.7 0-3.4.3-5.2 0-1.8-.3-3.6.2-5.4.1-1.8-.3-3.6 0-5.4-.2-.4 0-.9-.1-1.3-.1s-.9.1-1.3.1c-.9.1-1.7-.1-2.6-.2-.8-.2-1.7 0-2.5-.1s-1.6-.2-2.4-.2c-1.6 0-3 .1-4.4.2-.7 0-1.3.1-1.9.1h-1.7c-1.1-.1-2 .2-2.8.2-1.6.1-2.5.1-2.5.1l-.1-1.5zM1105.4 596.1H1108.8c.4.1.9 0 1.4 0 .5-.1 1-.1 1.6-.2.6 0 1.1-.1 1.8-.1 1.2 0 2.6.1 4 .1s2.9.1 4.4.1c.8 0 1.5.1 2.3.1.4 0 .8.1 1.2.1h1.2c1.6 0 3.2.2 4.9.1 1.6 0 3.3.2 4.9 0 .8-.1 1.6-.1 2.4-.1h2.3c1.5 0 3-.2 4.4 0 1.4.1 2.7.1 3.9 0 1.2-.1 2.3.1 3.3.1s1.9-.1 2.6-.1c1.4-.1 2.2-.1 2.2-.1v1.6s-.8 0-2.2.1c-.7 0-1.6 0-2.6.1-.5 0-1 .1-1.6.2h-1.8c-1.2 0-2.6-.1-4-.1s-2.9-.3-4.4-.1c-1.5 0-3.1.3-4.7 0s-3.2.2-4.9.2c-1.6-.3-3.3 0-4.9-.1-.4 0-.8 0-1.2-.1-.4 0-.8.1-1.2.1-.8.1-1.6-.1-2.3-.1-.8-.2-1.5 0-2.2-.1-.7-.1-1.5-.2-2.2-.2-1.4-.1-2.7.1-3.9.2-.6 0-1.2.1-1.8.1-.6 0-1.1 0-1.6-.1h-1.4c-.4.1-.8.1-1.2.1-1.4.1-2.2.1-2.2.1l.1-1.9zM1105.6 603.7s.8 0 2.3-.1h1.2c.5 0 .9 0 1.5-.1.5-.1 1.1-.2 1.6-.2.6 0 1.2-.1 1.8-.1h4.1c1.5 0 3 0 4.6.1.8 0 1.6.1 2.4.1.4 0 .8.1 1.2.1h1.2c1.7 0 3.4.2 5.1.1 1.7 0 3.4.2 5.1 0 .8-.1 1.7-.1 2.5-.1h2.4c1.6 0 3.1-.1 4.6 0 1.5.1 2.8.1 4.1.1h1.8c.6.1 1.1.1 1.6.1h2.7c1.5 0 2.3-.1 2.3-.1v1.6h-5c-.5 0-1.1.1-1.7.1h-1.8c-1.3-.1-2.7-.2-4.1-.2-1.5 0-3-.3-4.6-.2-1.6 0-3.2.3-4.9 0-1.7-.3-3.4.2-5.1.1-1.7-.3-3.4 0-5.1-.1-.4 0-.8 0-1.2-.1-.4 0-.8.1-1.2.1-.8.1-1.6-.1-2.4-.1-.8-.2-1.6 0-2.3-.1-.8-.1-1.5-.2-2.2-.2-1.5 0-2.8.1-4.1.2-.6.1-1.2.1-1.8.1h-1.6c-.5 0-1 0-1.4.1-.4.1-.9.1-1.2.1-1.5.1-2.3.2-2.3.2l-.1-1.5zM1139.3 614.3H1140.5c.2.1.3 0 .5 0 .4-.2.8-.3 1.2-.3h1.4c.5 0 1 0 1.6.1.3 0 .6 0 .9.1.3.1.6.1.9 0h.9c.3.1.6 0 1 .1.5.1 1.1.3 1.7.2.3-.1.6-.1.9-.1h.8c.6 0 1.1-.2 1.6 0 .5.1 1 .1 1.4.1h.6c.2.1.4.1.6.1.4 0 .7 0 .9-.1.5-.1.8-.1.8-.1v1.6H1156.5c-.2 0-.4.1-.6.1h-.6c-.4-.1-.9-.2-1.4-.2-.5 0-1-.3-1.6-.2-.6 0-1.2.3-1.7 0-.6-.4-1.2.2-1.9 0 0 0-.1-.1-.2-.1H1146.8c-.1 0-.3.1-.4.1-.3.1-.6 0-.9-.1-.1 0-.3-.1-.4-.1h-.4c-.3 0-.5-.2-.8-.2-.5 0-1 .1-1.4.2-.4.1-.8.1-1.2 0-.2 0-.4 0-.5.1-.2.1-.3.1-.4.1-.5.1-.8.1-.8.1l-.3-1.5z"/></g><g><path class="st6" d="M1623 644.9h79.8v52.2H1623z"/><path class="st5" d="M1633.3 656.6l3.6-.1c1.2.1 2.4-.2 3.6-.3 2.4-.2 4.8-.1 7.2-.2 1.2 0 2.4-.1 3.6 0h3.6c1.2.1 2.4 0 3.6-.1h3.6c1.2-.1 2.4-.1 3.6-.1 1.2-.1 2.4 0 3.6-.3l3.6-.3c1.2-.1 2.4-.1 3.6-.2.6 0 1.2-.1 1.8-.1h1.8c1.2 0 2.4-.1 3.6-.1 1.2-.1 2.4-.1 3.6 0 1.2 0 2.4-.1 3.6-.2l1.8-.1-1.3 1.4-1.6 1.6-1.1-1.1 1.7-1.6.6 1.4c-1.2.1-2.4.1-3.6.2-.6.1-1.2.2-1.8.2h-7.2l-1.8-.1c-1.2 0-2.4.1-3.6.2-1.2.1-2.4.2-3.6.2-1.2-.3-2.4 0-3.6.1-1.2.2-2.4.3-3.6.2-1.2 0-2.4.1-3.6.1-1.2 0-2.4-.1-3.6.2-1.2.1-2.4-.1-3.6-.1-1.2.1-2.4 0-3.6-.1h-1.8c-.6 0-1.2.1-1.8.1l-3.6.3c-1.2 0-2.4-.1-3.6.1l-3.6.2-.1-1.4zM1634.5 665.3h2.2c.7-.1 1.5.1 2.5 0 .5-.1 1-.1 1.5-.2.5 0 1.1-.1 1.7-.1h3.8c1.4 0 2.8 0 4.3.1.7 0 1.5 0 2.3.1.8.1 1.5.1 2.3 0 1.6 0 3.2.1 4.7 0 1.6-.1 3.2.1 4.7-.1.8-.1 1.6-.1 2.3-.2.8 0 1.5-.1 2.3-.1 1.5 0 2.9-.2 4.3-.1s2.7 0 3.8 0c.6 0 1.2-.1 1.7 0 .5 0 1.1.1 1.5.1 1 0 1.8-.1 2.5-.1 1.4-.1 2.2-.1 2.2-.1v1.6s-.8 0-2.2.1c-.7 0-1.5.1-2.5.1-.5 0-1 .1-1.5.2s-1.1 0-1.7 0c-1.2 0-2.5-.1-3.8-.1-1.4.1-2.8-.2-4.3-.1s-3 .4-4.6.2c-1.6-.3-3.1.3-4.7.3-1.6-.2-3.2.1-4.7 0h-1.2c-.4 0-.8.1-1.2.1-.8.1-1.5 0-2.3-.1-.4 0-.7-.1-1.1-.1h-1.1c-.7-.1-1.4-.2-2.1-.2-1.4 0-2.7.1-3.8.2-.6.1-1.2.1-1.7.1s-1.1 0-1.5-.1c-.5 0-.9 0-1.4.1-.4.1-.8.1-1.1.1-1.4.1-2.2.1-2.2.1l.1-1.8zM1635.7 673.9s.8 0 2.2-.1c.7-.1 1.6.1 2.6-.1.5-.1 1-.2 1.6-.2.6-.1 1.1-.1 1.7-.1h8.3c.8 0 1.5 0 2.3.1h2.4c1.6-.1 3.2.1 4.9 0 1.6-.1 3.3.1 4.9-.1.8-.1 1.6-.1 2.4-.2.8 0 1.6-.1 2.3-.1 1.5 0 3-.2 4.4-.1 1.4.1 2.7.1 3.9 0h1.8c.6.1 1.1.1 1.6.1 1 0 1.9 0 2.6-.1 1.4 0 2.2-.1 2.2-.1v1.6H1683c-.5 0-1 .1-1.6.1h-1.7c-1.2 0-2.5-.1-3.9-.1s-2.9-.3-4.4-.1c-1.5.1-3.1.3-4.7.1-1.6-.3-3.2.3-4.8.3-1.6-.2-3.2.1-4.8 0h-1.2c-.4 0-.8.1-1.2.1-.8.1-1.6 0-2.3-.1-.8-.1-1.5 0-2.2-.1-.7 0-1.5-.1-2.2-.1-1.4 0-2.7.2-3.9.3-.6.1-1.2.1-1.7.1h-1.6c-.5 0-1 0-1.4.1-.4.1-.8.1-1.2.1-1.4.1-2.2.2-2.2.2l-.3-1.5zM1672.7 684.1s.3-.1.8-.2c.1 0 .3-.1.4 0 .2 0 .3 0 .5-.1s.3-.2.5-.3c.2-.1.4-.1.6-.1.4-.1.9-.1 1.4-.1.5-.1 1-.1 1.6 0 .3 0 .5 0 .8.1h.8c.6-.1 1.1.1 1.7 0 .6 0 1.1.1 1.7 0 .3-.1.6-.1.8-.1h.8c.5 0 1.1-.1 1.6 0 .5.2 1 .1 1.4.2.2 0 .4 0 .6.1.2.1.4.2.5.2.3 0 .7 0 .9.1h.8l-.3 1.6s-.3 0-.8-.1c-.2 0-.5-.1-.9-.1-.2 0-.4 0-.6.1-.2 0-.4 0-.6-.1-.4-.1-.9-.2-1.3-.3-.5 0-1-.3-1.5-.2-.5 0-1.1.3-1.6 0-.1-.1-.3-.1-.4-.1-.1 0-.3.1-.4.1-.3.1-.6.2-.8.2-.6-.2-1.1 0-1.7 0h-.4c-.1 0-.3.1-.4.1-.3.1-.5 0-.8-.1-.1 0-.3-.1-.4 0h-.4c-.3 0-.5-.2-.8-.1-.5 0-.9.2-1.3.3-.4.2-.8.2-1.1.2-.2 0-.3 0-.5.1-.1.1-.3.1-.4.1-.5.2-.8.2-.8.2v-1.7z"/></g><g><path class="st6" d="M782.2 653.9h70v45.8h-70z"/><path class="st5" d="M791.3 664.1c1 0 2.1-.1 3.1-.1 1.1.1 2.1-.1 3.1-.3 2.1-.2 4.2-.1 6.3-.2 1 0 2.1-.1 3.1 0h3.1c1.1.1 2.1 0 3.1 0h3.1c1-.1 2.1-.1 3.1-.1s2.1 0 3.1-.2c1-.1 2.1-.2 3.1-.2 1-.1 2.1-.1 3.1-.2.5 0 1-.1 1.6-.1h1.6c1 0 2.1-.1 3.1-.1.5 0 1-.1 1.6-.1l1.6.1c1 0 2.1-.1 3.1-.2l1.8-.1-1.3 1.4-1.4 1.4-1.1-1.1 1.4-1.4.6 1.4c-1 .1-2.1.1-3.1.2-.5.1-1 .1-1.6.2H830.2l-1.6-.1c-1 0-2.1.1-3.1.2s-2.1.2-3.1.2c-1.1-.3-2.1-.1-3.1.1s-2.1.3-3.1.2c-1 0-2.1.1-3.1.1s-2.1-.1-3.1.2c-1 .1-2.1-.1-3.1-.1-1 .1-2.1 0-3.1-.1-2.1-.1-4.2.4-6.3.4-1 0-2.1-.1-3.1.1-1 .1-2.1.1-3.1.2v-1.7zM792.3 671.7h1.9c.6-.1 1.4.1 2.2 0 .8-.2 1.8-.3 2.8-.3h3.4c1.2 0 2.5 0 3.8.1.7 0 1.3 0 2 .1s1.4.1 2 0c1.4 0 2.8.1 4.2 0 1.4-.1 2.8.1 4.2-.1.7-.1 1.4-.1 2-.2.7 0 1.3-.1 2-.1 1.3 0 2.6-.2 3.8-.1 1.2.1 2.3 0 3.4 0 .5 0 1-.1 1.5 0 .5 0 .9.1 1.4.1.8 0 1.6-.1 2.2-.1 1.2-.1 1.9-.1 1.9-.1v1.6s-.7 0-1.9.1c-.6 0-1.3 0-2.2.1-.4 0-.9.1-1.3.2-.5.1-1 0-1.5 0-1 0-2.2-.1-3.4-.1-1.2 0-2.5-.2-3.8-.1-1.3.1-2.6.4-4 .2-1.4-.3-2.8.3-4.1.3-1.4-.2-2.8.1-4.2 0h-1c-.3 0-.7.1-1 .1-.7.1-1.3 0-2-.1-.3 0-.7-.1-1-.1h-1c-.6 0-1.2-.2-1.8-.2-1.2 0-2.3.1-3.4.2-.5.1-1 .1-1.5.1s-.9 0-1.4-.1c-.8-.1-1.6.2-2.2.2-1.2.1-1.9.1-1.9.1l-.1-1.8zM793.4 679.2s.7 0 2-.1c.6-.1 1.4.1 2.2-.1.4-.1.9-.2 1.4-.2.5-.1 1-.1 1.5-.1h7.4c.7 0 1.3 0 2 .1.3 0 .7 0 1 .1h1c1.4 0 2.8.1 4.3 0 1.4-.1 2.9.1 4.3-.1.7-.1 1.4-.1 2.1-.2.7 0 1.4-.1 2-.1 1.3 0 2.6-.2 3.9-.1 1.2.1 2.4.1 3.5 0h1.5c.5.1.9.1 1.4.1.9 0 1.6 0 2.3-.1 1.2 0 2-.1 2-.1v1.6H835c-.4 0-.9.1-1.4.1h-1.5c-1.1 0-2.2-.1-3.4-.1-1.2 0-2.5-.3-3.8-.1-1.3 0-2.7.3-4.1.1-1.4-.3-2.8.3-4.2.3-1.4-.2-2.8.1-4.2 0h-1c-.3 0-.7.1-1 .1-.7.1-1.4 0-2-.1-.7-.1-1.3 0-2-.1-.6 0-1.3-.2-1.9-.2-1.2 0-2.4.2-3.4.3-.5.1-1 .1-1.5.1h-1.4c-.4 0-.8 0-1.2.1-.4.1-.7.1-1 .1-1.2.1-2 .2-2 .2l-.6-1.5zM825.8 688.1s.2-.1.7-.1c.1 0 .2-.1.4 0 .1 0 .3 0 .4-.1.1-.1.3-.2.5-.3.2-.1.3-.1.5-.1.4-.1.8-.1 1.2-.1.4 0 .9-.1 1.4 0 .2 0 .5 0 .7.1h.8c.5-.1 1 .1 1.5 0 .5 0 1 .1 1.5 0 .2-.1.5-.1.7-.1h.7c.5 0 .9-.1 1.4 0 .4.2.8.1 1.2.1.2 0 .4 0 .5.1.2.1.3.2.5.2h1.5l-.3 1.6s-.2 0-.7-.1c-.2 0-.5-.1-.8-.1-.1 0-.3 0-.5.1-.2 0-.3 0-.5-.1-.4-.1-.7-.2-1.2-.2-.4 0-.8-.3-1.3-.2-.5 0-.9.3-1.4 0-.1-.1-.2-.1-.4-.1-.1 0-.2.1-.4.1-.2.1-.5.2-.7.2-.5-.2-1 0-1.5 0h-.4c-.1 0-.2.1-.3.1-.2.1-.5 0-.7-.1-.1 0-.2-.1-.3 0h-.3c-.2 0-.5-.2-.7-.1-.4 0-.8.2-1.2.3-.3.2-.7.2-1 .1-.2 0-.3 0-.4.1-.1.1-.2.1-.3.1-.4.1-.7.2-.7.2l-.1-1.6z"/></g><g><path class="st6" d="M782.2 442.7h70v45.8h-70z"/><path class="st5" d="M791.3 452.9c1 0 2.1-.1 3.1-.1 1.1.1 2.1-.1 3.1-.3 2.1-.2 4.2-.1 6.3-.2 1 0 2.1-.1 3.1 0h3.1c1.1.1 2.1 0 3.1 0h3.1c1-.1 2.1-.1 3.1-.1s2.1 0 3.1-.2c1-.1 2.1-.2 3.1-.2 1-.1 2.1-.1 3.1-.2.5 0 1-.1 1.6-.1h1.6c1 0 2.1-.1 3.1-.1.5 0 1-.1 1.6-.1l1.6.1c1 0 2.1-.1 3.1-.2l1.8-.1-1.3 1.4-1.4 1.4-1.1-1.1 1.4-1.4.6 1.4c-1 .1-2.1.1-3.1.2-.5.1-1 .1-1.6.2H830.2l-1.2-.2c-1 0-2.1.1-3.1.2s-2.1.2-3.1.2c-1.1-.3-2.1-.1-3.1.1s-2.1.3-3.1.2c-1 0-2.1.1-3.1.1s-2.1-.1-3.1.2c-1 .1-2.1-.1-3.1-.1-1 .1-2.1 0-3.1-.1-2.1-.1-4.2.4-6.3.4-1 0-2.1-.1-3.1.1-1 .1-2.1.1-3.1.2l-.4-1.6zM792.3 460.5h1.9c.6-.1 1.4.1 2.2 0 .8-.2 1.8-.3 2.8-.3h3.4c1.2 0 2.5 0 3.8.1.7 0 1.3 0 2 .1s1.4.1 2 0c1.4 0 2.8.1 4.2 0 1.4-.1 2.8.1 4.2-.1.7-.1 1.4-.1 2-.2.7 0 1.3-.1 2-.1 1.3 0 2.6-.2 3.8-.1 1.2.1 2.3 0 3.4 0 .5 0 1-.1 1.5 0 .5 0 .9.1 1.4.1.8 0 1.6-.1 2.2-.1 1.2-.1 1.9-.1 1.9-.1v1.6s-.7 0-1.9.1c-.6 0-1.3 0-2.2.1-.4 0-.9.1-1.3.2-.5.1-1 0-1.5 0-1 0-2.2-.1-3.4-.1-1.2 0-2.5-.2-3.8-.1-1.3.1-2.6.4-4 .2-1.4-.3-2.8.3-4.1.3-1.4-.2-2.8.1-4.2 0h-1c-.3 0-.7.1-1 .1-.7.1-1.3 0-2-.1-.3 0-.7-.1-1-.1h-1c-.6 0-1.2-.2-1.8-.2-1.2 0-2.3.1-3.4.2-.5.1-1 .1-1.5.1s-.9 0-1.4-.1c-.8-.1-1.6.2-2.2.2-1.2.1-1.9.1-1.9.1l-.1-1.8zM793.4 468s.7 0 2-.1c.6-.1 1.4.1 2.2-.1.4-.1.9-.2 1.4-.2.5-.1 1-.1 1.5-.1h7.4c.7 0 1.3 0 2 .1.3 0 .7 0 1 .1h1c1.4 0 2.8.1 4.3 0 1.4-.1 2.9.1 4.3-.1.7-.1 1.4-.1 2.1-.2.7 0 1.4-.1 2-.1 1.3 0 2.6-.2 3.9-.1 1.2.1 2.4.1 3.5 0h1.5c.5.1.9.1 1.4.1.9 0 1.6 0 2.3-.1 1.2 0 2-.1 2-.1v1.6H835c-.4 0-.9.1-1.4.1h-1.5c-1.1 0-2.2-.1-3.4-.1-1.2 0-2.5-.3-3.8-.1-1.3 0-2.7.3-4.1.1-1.4-.3-2.8.3-4.2.3-1.4-.2-2.8.1-4.2 0h-1c-.3 0-.7.1-1 .1-.7.1-1.4 0-2-.1-.7-.1-1.3 0-2-.1-.6 0-1.3-.2-1.9-.2-1.2 0-2.4.2-3.4.3-.5.1-1 .1-1.5.1h-1.4c-.4 0-.8 0-1.2.1-.4.1-.7.1-1 .1-1.2.1-2 .2-2 .2l-.6-1.5zM825.8 477s.2-.1.7-.1c.1 0 .2-.1.4 0 .1 0 .3 0 .4-.1.1-.1.3-.2.5-.3.2-.1.3-.1.5-.1.4-.1.8-.1 1.2-.1.4 0 .9-.1 1.4 0 .2 0 .5 0 .7.1h.8c.5-.1 1 .1 1.5 0 .5 0 1 .1 1.5 0 .2-.1.5-.1.7-.1h.7c.5 0 .9-.1 1.4 0 .4.2.8.1 1.2.1.2 0 .4 0 .5.1.2.1.3.2.5.2h1.5l-.3 1.6s-.2 0-.7-.1c-.2 0-.5-.1-.8-.1-.1 0-.3 0-.5.1-.2 0-.3 0-.5-.1-.4-.1-.7-.2-1.2-.2-.4 0-.8-.3-1.3-.2-.5 0-.9.3-1.4 0-.1-.1-.2-.1-.4-.1-.1 0-.2.1-.4.1-.2.1-.5.2-.7.2-.5-.2-1 0-1.5 0h-.4c-.1 0-.2.1-.3.1-.2.1-.5 0-.7-.1-.1 0-.2-.1-.3 0h-.3c-.2 0-.5-.2-.7-.1-.4 0-.8.2-1.2.3-.3.2-.7.2-1 .1-.2 0-.3 0-.4.1-.1.1-.2.1-.3.1-.4.1-.7.2-.7.2l-.1-1.6z"/></g><g><path class="st6" d="M782.2 230.3h70v45.8h-70z"/><path class="st5" d="M791.3 240.5c1 0 2.1-.1 3.1-.1 1.1.1 2.1-.1 3.1-.3 2.1-.2 4.2-.1 6.3-.2 1 0 2.1-.1 3.1 0h3.1c1.1.1 2.1 0 3.1 0h3.1c1-.1 2.1-.1 3.1-.1s2.1 0 3.1-.2c1-.1 2.1-.2 3.1-.2 1-.1 2.1-.1 3.1-.2.5 0 1-.1 1.6-.1h1.6c1 0 2.1-.1 3.1-.1.5 0 1-.1 1.6-.1l1.6.1c1 0 2.1-.1 3.1-.2l1.8-.1-1.3 1.4-1.4 1.4-1.1-1.1 1.4-1.4.6 1.4c-1 .1-2.1.1-3.1.2-.5.1-1 .1-1.6.2H830.2l-1.6-.1c-1 0-2.1.1-3.1.2s-2.1.2-3.1.2c-1.1-.3-2.1-.1-3.1.1s-2.1.3-3.1.2c-1 0-2.1.1-3.1.1s-2.1-.1-3.1.2c-1 .1-2.1-.1-3.1-.1-1 .1-2.1 0-3.1-.1-2.1-.1-4.2.4-6.3.4-1 0-2.1-.1-3.1.1-1 .1-2.1.1-3.1.2v-1.7zM792.3 248.1h1.9c.6-.1 1.4.1 2.2 0 .8-.2 1.8-.3 2.8-.3h3.4c1.2 0 2.5 0 3.8.1.7 0 1.3 0 2 .1s1.4.1 2 0c1.4 0 2.8.1 4.2 0 1.4-.1 2.8.1 4.2-.1.7-.1 1.4-.1 2-.2.7 0 1.3-.1 2-.1 1.3 0 2.6-.2 3.8-.1 1.2.1 2.3 0 3.4 0 .5 0 1-.1 1.5 0 .5 0 .9.1 1.4.1.8 0 1.6-.1 2.2-.1 1.2-.1 1.9-.1 1.9-.1v1.6s-.7 0-1.9.1c-.6 0-1.3 0-2.2.1-.4 0-.9.1-1.3.2-.5.1-1 0-1.5 0-1 0-2.2-.1-3.4-.1-1.2 0-2.5-.2-3.8-.1-1.3.1-2.6.4-4 .2-1.4-.3-2.8.3-4.1.3-1.4-.2-2.8.1-4.2 0h-1c-.3 0-.7.1-1 .1-.7.1-1.3 0-2-.1-.3 0-.7-.1-1-.1h-1c-.6 0-1.2-.2-1.8-.2-1.2 0-2.3.1-3.4.2-.5.1-1 .1-1.5.1s-.9 0-1.4-.1c-.8-.1-1.6.2-2.2.2-1.2.1-1.9.1-1.9.1l-.1-1.8zM793.4 255.6s.7 0 2-.1c.6-.1 1.4.1 2.2-.1.4-.1.9-.2 1.4-.2.5-.1 1-.1 1.5-.1h7.4c.7 0 1.3 0 2 .1.3 0 .7 0 1 .1h1c1.4 0 2.8.1 4.3 0 1.4-.1 2.9.1 4.3-.1.7-.1 1.4-.1 2.1-.2.7 0 1.4-.1 2-.1 1.3 0 2.6-.2 3.9-.1 1.2.1 2.4.1 3.5 0h1.5c.5.1.9.1 1.4.1.9 0 1.6 0 2.3-.1 1.2 0 2-.1 2-.1v1.6H835c-.4 0-.9.1-1.4.1h-1.5c-1.1 0-2.2-.1-3.4-.1-1.2 0-2.5-.3-3.8-.1-1.3 0-2.7.3-4.1.1-1.4-.3-2.8.3-4.2.3-1.4-.2-2.8.1-4.2 0h-1c-.3 0-.7.1-1 .1-.7.1-1.4 0-2-.1-.7-.1-1.3 0-2-.1-.6 0-1.3-.2-1.9-.2-1.2 0-2.4.2-3.4.3-.5.1-1 .1-1.5.1h-1.4c-.4 0-.8 0-1.2.1-.4.1-.7.1-1 .1-1.2.1-2 .2-2 .2l-.6-1.5zM825.8 264.5s.2-.1.7-.1c.1 0 .2-.1.4 0 .1 0 .3 0 .4-.1.1-.1.3-.2.5-.3.2-.1.3-.1.5-.1.4-.1.8-.1 1.2-.1.4 0 .9-.1 1.4 0 .2 0 .5 0 .7.1h.8c.5-.1 1 .1 1.5 0 .5 0 1 .1 1.5 0 .2-.1.5-.1.7-.1h.7c.5 0 .9-.1 1.4 0 .4.2.8.1 1.2.1.2 0 .4 0 .5.1.2.1.3.2.5.2h1.5l-.3 1.6s-.2 0-.7-.1c-.2 0-.5-.1-.8-.1-.1 0-.3 0-.5.1-.2 0-.3 0-.5-.1-.4-.1-.7-.2-1.2-.2-.4 0-.8-.3-1.3-.2-.5 0-.9.3-1.4 0-.1-.1-.2-.1-.4-.1-.1 0-.2.1-.4.1-.2.1-.5.2-.7.2-.5-.2-1 0-1.5 0h-.4c-.1 0-.2.1-.3.1-.2.1-.5 0-.7-.1-.1 0-.2-.1-.3 0h-.3c-.2 0-.5-.2-.7-.1-.4 0-.8.2-1.2.3-.3.2-.7.2-1 .1-.2 0-.3 0-.4.1-.1.1-.2.1-.3.1-.4.1-.7.2-.7.2l-.1-1.6z"/></g><g><path class="st0" d="M1582.1 968.7c-.5 8.5-1.4 17-2.6 25.5-.4 2.5-1 5.3-3.2 6.5-1.3.7-2.9.7-4.3.6-5.4-.3-10.8-.7-16.2-1.3-.4 0-.9-.1-1.2-.5-.2-.3-.2-.7-.2-1.1 1.2-10.5 2.3-21.1 3.5-31.6M1625.7 917.1c7.2 9.4 15.2 18.2 23.9 26.4-4.5 8.1-8.9 16.2-13.4 24.3-.3.6-.7 1.2-1.3 1.4-1 .4-2-.6-2.7-1.4-5.1-6.5-9.9-13.2-14.4-20.1-1-1.5-2-3.4-1.3-5"/><path class="st9" d="M1456.7 518c-7.1 41.9-17.3 81.4-27.8 122.5-10.4 40.5-17.7 81.2-20.4 122.9-.1 1.6-.2 3.3.3 4.9.6 1.8 2 3.1 3.4 4.3 68.3 62.4 131.6 131.9 206.5 186.1 3.2-2.6 25.3-29.9 22.1-34-24.1-31.2-48.5-62.1-72.6-93.3-21.4-27.7-45.9-53.7-64.6-83.4-1.3-2.1-2.6-4.3-2.5-6.7.1-1.8.9-3.4 1.7-5 24.2-48.4 65.6-93.9 75.4-148 4-22.1 4.4-44.8 5.8-67.2"/><path class="st22" d="M1563.6 626.2c-25.6 26-52.8 51-81.7 73.3-4.5 3.5-9.6 9-6.9 14 2.7 5 12.3 6.3 11.1 11.9-8.2-1.9-17 6.2-15.7 14.5 5.9-.6 13.7.1 15.1 5.8.8 3.2-1 6.4-1 9.7-.1 9 9.8 10.8 15.2 15.6 8.4 7.5 11.7 15.7 18.2 24.8 12.6 17.5 29.5 33 43.8 49.2 6.9 7.9 14.6 16.2 24.8 18.2 6.1-18-9.7-35.3-23.4-48.5-18.5-17.9-35.7-37.3-51.2-57.9-3.9-5.2-7.9-10.9-8-17.5-.1-5.9 3-11.3 6-16.4 20-33.2 42.5-65 67.2-94.9"/><path class="st10" d="M1647.8 540.5c1.2 58.1-6 115.3-14.8 172.6-6.7 44.3-13.5 88.7-20.2 133-7 45.7-21.1 89.3-28.1 134.6-9.6.4-19.2.8-28.9 1.1-1.1 0-2.3.1-3.2-.6-1.1-.8-1.3-2.2-1.5-3.5-9-66.6-17.6-133.4-13.4-200.8 1.7-27.2 1.8-54.4.2-81.6-2.6-45.5-1-91.1-5.1-136.6"/><path class="st33" d="M1378.1 437.1c-19.4-9.6-42.3-9.8-62.2-20.8-5.4-3-11.7-6.3-17.3-3.8-2.4 1.1-4.3 3.2-6 5.2-2.5 2.8-4.8 7.4-1.9 9.8 1.2 1 2.8 1.1 4.3 1.3 8.5 1.3 14.5 7.9 18.7 14.8 9.2 15.3 20.6 27 34.1 38.5 10.8 9.3 25.4 21.5 40 23.5 31.8 4.4 20.5-43.7 8.3-57.3-2.8-3.2-6.6-5.3-10.3-7.3-2.7-1.4-5.2-2.7-7.7-3.9z"/><path class="st12" d="M1589.2 992.7c-3.5-3.7-25.9 2.4-33.5-.6-3.3-1.3-6.4-3.1-9.8-3.9-11.5-2.9-37.2 10.5-44.4 20-2.1 2.8-3 6.8-1.2 9.8l60-.6 35.9-.3c1.8-8.5-.9-18-7-24.4z"/><path class="st12" d="M1695.6 1019.7h-3.4c-1.1 0-2.5 0-4.1-.1-1.6-.1-3.5-.1-5.6-.1-1 0-2.2.1-3.3.2-1.2 0-2.4 0-3.6-.1-1.3-.1-2.6-.2-3.9-.2-1.4 0-2.8 0-4.2.1-2.9.1-6 .2-9.3.4-1.6 0-3.3.1-5 .1-1.7 0-3.5-.1-5.3-.2-1.8-.1-3.6-.1-5.5 0s-3.8.2-5.7.2c-3.9-.1-7.9-.2-12-.4-4.1-.1-8.3-.1-12.7.2-1.1 0-2.2.1-3.3 0-1.1-.1-2.2-.2-3.3-.2-1.1-.1-2.2 0-3.3.1-1.1.1-2.2 0-3.4 0-4.5-.1-9.1-.1-13.7-.2h-10.5c-1.2 0-2.3-.1-3.5-.2-2.4-.2-4.7-.3-7.1 0-2.4.2-4.8.1-7.1 0-2.4-.1-4.8-.3-7.2-.3-2.4 0-4.8 0-7.2.1-4.8.1-9.6 0-14.3 0-2.4 0-4.8-.1-7.1-.1-2.4-.1-4.7.1-7.1.2-4.7.2-9.4.3-14 .5-2.3 0-4.6.1-6.9.1h-3.4c-1.1-.1-2.3-.1-3.4-.2-4.5-.2-8.9.1-13.2.2-2.2 0-4.3.2-6.4.2-2.1-.1-4.2-.2-6.3-.1-2.1 0-4.1.1-6.1.1s-4-.1-5.9-.3c-3.9-.3-7.6.2-11.2-.1-3.6-.4-7 .4-10.3.1-3.3-.2-6.4-.3-9.3-.3-1.5 0-2.9.1-4.2.1h-3.9c-2.5-.1-4.8-.2-6.9-.1-2.1.1-4 .2-5.6.3-1.6 0-3 .1-4.1.1h-3.5v-2.4h7.6c1.6 0 3.5.1 5.6.2 2.1.1 4.4 0 6.9-.2s5.3 0 8.2.1c2.9 0 6-.2 9.3-.4 1.6-.1 3.3-.1 5 .1 1.7.3 3.5.3 5.3.1 3.6-.4 7.3.4 11.2.1 3.9-.4 7.9-.2 12 0 2.1.1 4.1 0 6.3-.1 2.1 0 4.2.1 6.4.1 4.3.1 8.7.4 13.2 0 1.1-.1 2.2-.2 3.4-.2 1.1 0 2.3-.1 3.4-.1h6.9c2.3 0 4.6.1 7 .1 2.3 0 4.7.1 7 .3 2.4.2 4.7.3 7.1.2 2.4-.1 4.8-.2 7.1-.3 4.8-.1 9.6-.3 14.3-.2 2.4.1 4.8.3 7.2.3 1.2 0 2.4-.1 3.6-.1l3.6-.3c1.2-.1 2.4-.2 3.6-.2 1.2-.1 2.4 0 3.6.2 2.4.5 4.7.4 7.1 0 1.2-.2 2.4-.2 3.5-.3 1.2-.1 2.3 0 3.5 0 2.3.1 4.7.1 7 .2 4.6 0 9.2.1 13.7.1 1.1 0 2.2 0 3.4.1 1.1.2 2.2.3 3.3.2 1.1 0 2.2-.2 3.3-.2h3.3c4.3.3 8.5.3 12.7.4 4.1 0 8.1 0 12-.1 1.9 0 3.8 0 5.7.1 1.9 0 3.7 0 5.5-.1 7.2-.5 13.8 0 19.6 0 1.5 0 2.9.1 4.2.1 1.4 0 2.7-.1 3.9-.2 1.3-.1 2.5-.1 3.6-.1 1.2 0 2.3.1 3.3.1 2.1 0 4-.1 5.6-.1 1.6-.1 3-.1 4.1-.1 2.2 0 3.4-.1 3.4-.1v2.6z"/><path class="st12" d="M1651.7 930.4c-5 1.2-10.8 23.7-17.2 28.8-2.8 2.2-5.8 4-8.3 6.6-8.2 8.6-9.4 37.5-4.7 48.4 1.4 3.2 4.4 6 7.9 5.9 9.8-17.5 19.6-34.9 29.4-52.4 5.8-10.4 11.7-20.8 17.5-31.3-6.5-5.8-16.1-8.2-24.6-6z"/><path class="st33" d="M1597.1 234c-.1 10.4-.9 21.2-6.6 30.3-2.9 4.7-6.9 8.6-10.3 13-12.5 16.1-16.8 38.1-11.4 57.7 1.5 5.4 3.5 11.8 0 16.3-2.3 2.9-6.2 3.8-9.8 4.3-13.9 1.9-28.4 0-41.4-5.5-1.2-.5-2.4-1.1-3-2.2-.7-1.4-.2-3.1.4-4.6 5.9-15.4 11.8-30.7 17.6-46.1 7.1-18.7-16.4-28.2-16.1-48.7.2-12.1.4-24.3.5-36.4.1-8.1.4-16.7 5-23.3 6.3-9.2 18.7-11.7 29.8-11.8 14.3-.2 24.2 4 35.4 12.9 3.7 2.9 7.5 6.1 9.1 10.5 1 2.7.9 5.7.9 8.6 0 8.3-.1 16.7-.1 25z"/><path class="st11" d="M1547.1 229.1l-9.9 15.3 18.4.2z"/><path class="st5" d="M1466.1 290.2c-10 4.2-19.7 9.2-29.2 13.4-3.4 1.5-6.9 3.1-9.5 5.8-3.9 4.1-5.1 10-6.2 15.6-7.5 38.3-18.4 75.8-32.7 112.1-1-6.3-10.6-8.9-14.6-4-.6.7 2.9 14.3 3 16.4.2 6.2-.6 12.6-2.4 18.5-3.9 12.8-12 15.8-19.1 25.1-1.7 2.2-2.1 5.7-.1 7.7 2.5 2.5 6.3 1 9.2 2.5 2.6 1.4 4.1 4.2 6.5 5.5 7.8 4.5 6.1 2 14.1.3 1.8-.4 3.6.4 5.2 1.2 6.3 3 12.6 6 18.8 8.9 1.4.7 3.1 1.4 4.6.9 1-.3 1.7-1.1 2.4-1.9 7.4-8.1 14-17.2 20.9-25.5 4.7-5.7 19.6-21.4 19.7-28.8-.2 14.5 2.7 29.6.3 43.8-3.5 21-8.6 39.9-17.7 59.1 12.7 2.5 25.2 6.5 37 11.8 1.6.7 27.3 14.1 27.5 12.9 2.5-16.1 5.3-32.1 7.4-48.2 3 13.7 7.2 27.1 12.6 39.9 2.6 6.1 5.7 12.4 11.3 15.8 3.6 2.2 7.9 3 12 3.7 20.5 3.5 41.1 6.4 61.8 8.6-.2-10.2-.3-20.4-.5-30.6-.1-6-.1-12.3 3-17.4 7.1-11.8 24.7-3.7 31.4 4.1 2.1 2.4 4.2 5 5.1 8.1.8 2.8.5 5.8.2 8.7-1 8.9-.9 17.8-1.9 26.7-.3 2.3 12.3-7.6 12.9-8.6 5.6-8.8 3.7-20.2 1.6-30.4-3.2-15.6-4.4-48.1 19.3-47.6 22.9.5 33.7-15.6 34.8-37.5.2-4.5-.1-9.6-3.5-12.5-1-.9-2.4-1.5-3-2.7-1.7-3.4.6-9.3-1.4-12.6-2.9-5.1-8.9-2.5-10.1-8.8-4.8-25.7-10.2-54.3-10.2-80.6-.6-8.3-.8-16.6-2.9-24.7-4.9-19.6-20.5-32.8-37.1-42.9-12.8-7.8-25.4-17.5-39.8-22.3-9.7-3.2-18.5-.3-28.1.7-2.7.3-22.5.4-22.5.6-5.2 18.6-10.3 37.5-16.2 56-2.8-14.7-1.1-30.1-3.4-44.4-1.8-11.5-9.6-11.7-19.1-11.3-4.7.2-9.5-.6-14.2-.6-12.7.5-25.1 4.4-37.2 9.5z"/><path class="st12" d="M1534.2 294.9c-11.7-.9-23.7-5-27.7-16.6-.5-1.5-.9-3.1-.7-4.7.2-1.6 1.1-3.1 2.6-3.8.9-.4 1.8-.4 2.8-.5 3.1-.4 5-2.4 6.5-5.2 2.5-4.6 0-6.9-3.3-9.4-2.2-1.7-4.2-4-4.7-6.8s1.1-6 3.8-6.6c.6 1.9 2.3 3.4 4.2 4.2 1.9.8 4 1 6 1.1 3.2.2 6.4.1 9.4-1 2.6-1 4.7-2.8 7.1-4.2 6.3-3.5 13.1.6 19.1 3.1 6 2.5 12.2 4.5 18.7 2.4 9.6-3.1 17.8-8.1 18-18.6 0-.7 0-1.5-.4-2.2-.5-.8-1.4-1.1-2.2-1.5-12.1-6.4 4.2-22.3-5.2-30.8-3.8-3.4-9.7-2.9-14.7-1.7-13.5 3.2-26 9.9-39.5 12.9s-29.5 1.6-38.5-8.9c-3-3.4-5.1-7.9-4.8-12.4.3-4.5 3.3-9 7.7-10.2 3.9-1 8.4.5 11.7-1.6 2.6-1.6 3.6-4.9 5.7-7 4.2-4.2 11.1-3 16.9-2 12.8 2.1 22.1-8.6 33.9-12.2 11.6-3.5 26.5.2 28.2 13.8 31.3-1.6 22.8 38.9 16.2 55.9-3.3 8.6-17.4 25.7-11.1 34.7.7 1 1.6 1.9 2.2 3 2.3 3.9.1 8.9-2.4 12.7-12.3 18.9-33 22.9-54.5 24.1-3.5.3-7.3.3-11 0z"/><path class="st33" d="M1697.9 512c-1.6 2.9-3.6 5.6-5.7 8.2-6.8 8.5-14.4 16.3-22.7 23.3-7.5 6.4-15.7 12.3-21.8 20.1-9.1 11.8-3.9 23.5-9.6 35.4-9.4-7.4-17-17.1-21.9-28-.8-1.8-1.6-3.7-1.7-5.6-.1-2 .5-3.9 1.1-5.8 7.8-25.9 13.5-54.1 29.1-76.7 14.5-20.9 61.8-3.5 55.8 22.6-.6 2.3-1.5 4.4-2.6 6.5zM1317.5 418.8c-2.7-6.4-9-11.1-15.8-12-11.9-1.7-22.8 7.2-34.8 8.3-9.5.9-19.2-3.3-28.6-1.6 8.8 17.7 31.2 27.4 50.1 21.5 7.1-2.2 13.7-6.3 21.1-7.3"/></g><g><path class="st3" d="M690.9 902.8s1.4 0 3.8-.1c1.2 0 2.7-.1 4.4-.1 1.7 0 3.6-.1 5.7-.1h3.3c1.1 0 2.3.1 3.5.1 1.2 0 2.4.1 3.7.1.6 0 1.3.1 1.9.1.6.1 1.3.1 1.9.1 2.6 0 5.3 0 8.1.1 1.4.1 2.8.1 4.1.2l2.1.1h2.1c2.8 0 5.6-.1 8.3-.2 2.7-.1 5.4-.1 8.1-.2 2.6-.1 5.1-.1 7.5-.2 2.4-.1 4.7 0 6.7.1 2.1.1 4 .1 5.7.1 1.7 0 3.2-.1 4.4-.1 1.2 0 2.2-.1 2.8-.1h1v2.4s-1.4 0-3.8.1c-2.4 0-5.9.2-10.1.1-2.1-.1-4.4-.2-6.7-.2h-7.5c-5.2 0-10.8.1-16.4.1-2.8 0-5.6.3-8.3.3-2.7 0-5.4-.3-8.1-.4-.7 0-1.3-.1-1.9-.1-.6.1-1.3.1-1.9.1-1.3-.1-2.5-.1-3.7-.2-2.4-.1-4.7-.2-6.7.1-2.1.2-4 .1-5.7.2-1.7 0-3.2 0-4.4.1H691v-2.5zM236.1 902.8s5 0 13.9-.1c4.4 0 9.8-.1 15.9-.1 6.2 0 13.1-.1 20.7-.1h11.8c4.1 0 8.3.1 12.6.1 4.3 0 8.8.1 13.4.1s9.2.3 13.9.2c9.5 0 19.2 0 29.2.1 5 .1 10 .1 15 .2 5 0 10.1.1 15.1.1 10.1 0 20.2-.1 30.1-.2 9.9-.1 19.7-.1 29.2-.2s18.6-.1 27.3-.2 16.9 0 24.5.1c7.6.1 14.5.2 20.7.1 6.2 0 11.5-.1 15.9-.1 8.8-.1 13.9-.1 13.9-.1v2.4s-5 0-13.9.1c-8.8 0-21.5.2-36.6.1-7.6-.1-15.8-.2-24.5-.2h-27.3c-18.9 0-39.1.1-59.3.1-10.1.1-20.2.2-30.1.2-9.9 0-19.7-.2-29.2-.4-4.7-.2-9.4.1-13.9 0-4.6-.1-9-.1-13.4-.2-4.3 0-8.6-.1-12.6-.1-4.1.1-8 .1-11.8.2-1.9 0-3.7.1-5.6.1h-44.9v-2.2zM653.2 681.8h.4c.1 0 .3 0 .5.1.2 0 .4.1.7.1.1 0 .3-.1.4-.2.1 0 .3 0 .4.1.2.1.3.2.5.2s.3 0 .5-.1c.4-.1.7-.2 1.1-.4.2-.1.4-.1.6-.1.2 0 .4.1.6.2.2.1.4.1.7 0 .2-.1.5-.2.7-.2.5 0 1 .3 1.5.4.5.1 1 .2 1.6-.2.1 0 .3-.1.4 0 .1.1.3.2.4.3h.2c.1 0 .1-.1.2-.1.1-.1.3 0 .4-.1.6 0 1.1.1 1.7.2h.9c.3 0 .6 0 .9.2.3.2.6.3.9.1.3-.2.6-.1.9 0 .3.1.6.3.9.3.3 0 .6-.1.9-.1.6-.1 1.2 0 1.8 0 .3 0 .6.1.9.1.3 0 .6-.1.9-.2.6-.2 1.2-.3 1.7-.4.6-.1 1.1-.2 1.7.2.5.2 1.1 0 1.6-.2.3-.1.5-.2.8-.1.1 0 .3.1.4.2h.4c.3 0 .5-.1.8-.1.2 0 .5.1.7.3.5.4.9-.2 1.4.2.2.1.4.2.7 0 .2-.2.4-.1.6-.1.4.2.8.3 1.1.3.4 0 .7-.3 1-.1.2.1.3.1.4.2h.4c.5-.3.9-.3 1.2-.3h.4l-.1 2.4h-.4c-.3 0-.7 0-1.2-.3h-.4c-.1 0-.3.1-.5.2s-.3.1-.5 0-.3-.2-.5-.2c-.4 0-.7.1-1.2.3-.2.1-.4.1-.6-.2-.2-.3-.4-.3-.6-.1-.5.4-.9-.5-1.4-.1-.2.1-.5.3-.7.2-.2 0-.5-.2-.7-.3-.1 0-.3-.1-.4 0l-.4.1c-.3 0-.5 0-.8-.1-.5-.1-1.1-.4-1.6-.1-.6.4-1.1.3-1.7.3-.3 0-.6-.1-.9-.2-.3 0-.6-.1-.9-.3-.3-.2-.6-.3-.9-.2l-.9.3c-.6.1-1.2.3-1.8.1-.3-.1-.6-.3-.9-.3-.1 0-.3 0-.4.1-.1.1-.3.2-.4.3-.1.1-.3.2-.4.2-.1.1-.3 0-.4-.2-.3-.5-.6-.4-.9-.1-.3.3-.6.4-.9.3-.3-.1-.6-.2-.9-.2-.6-.1-1.1 0-1.7-.1-.1 0-.3 0-.4-.1l-.2-.2h-.2c-.1 0-.3.2-.4.2h-.4c-.5-.3-1-.3-1.6-.4-.5 0-1 0-1.5.1-.5 0-.9-.2-1.4.1-.2.1-.4.2-.6.2h-.6c-.4-.1-.8-.2-1.1-.2h-.5c-.2 0-.3.1-.5.2s-.3.1-.4.1c-.1 0-.3-.1-.4-.1-.3 0-.5.1-.7.1-.2.1-.4.1-.5.1-.3 0-.4.1-.4.1v-2.7z"/><path class="st3" d="M719 684.6s.9.1 2.7.4c1.8.2 4.5.7 8 1.6 1.7.5 3.7 1 5.7 1.9 1 .4 2.1.8 3.2 1.4.5.3 1.1.5 1.7.8.3.1.6.3.9.4.3.2.5.3.8.5 4.5 2.7 9.2 6.8 12.7 12.6 1.8 2.9 3.2 6.1 4.4 9.6 1.2 3.5 1.8 7.4 2.3 11.3.2 2 .5 4.1.1 6.3-.2 1.1-.5 2.2-1.1 3.3-.6 1.1-1.6 1.9-2.6 2.5-1 .6-2 1.1-3.1 1.4-.5.2-1 .4-1.6.5-.6.1-1.1.3-1.7.4-1.1.3-2.2.4-3.4.6-1.1.1-2.3.3-3.4.4-9.2.8-19.1.3-29.3-.2-2.6-.1-5.1-.1-7.7-.1-2.6 0-5.3.1-8 .1-5.4 0-10.9-.1-16.5-.2-2.8 0-5.7-.1-8.5-.1-2.9 0-5.8.1-8.7.1-5.9.1-11.8.1-17.9.2-12.2-.1-24.7-.2-37.6-.4-12.9 0-26.2-.1-39.7.1-6.8.2-13.6-.1-20.6-.2-3.5-.1-6.9 0-10.4.1s-7 .1-10.5.1c-14.1 0-28.4-.1-42.9-.2h-32.9c-3.7 0-7.4-.1-11.1-.2-3.7-.1-7.4-.1-11.1-.2-3.7 0-7.4.1-11.2.1l-5.6.1c-1.9 0-3.7.1-5.6 0-3.7 0-7.5-.1-11.2-.1-7.5-.1-15-.2-22.5-.2s-15 .1-22.5.1c-15 .1-30.1-.1-45 .1-7.5.1-15 .3-22.4 0-3.7-.2-7.5-.2-11.2-1.4-1.8-.7-3.6-1.5-5-2.8-1.5-1.3-2.6-2.9-3.3-4.7-.7-1.8-1-3.7-1.1-5.6-.1-1.9.2-3.8.5-5.7.7-3.7 2.1-7.2 3.8-10.5 1.7-3.3 3.7-6.4 6-9.4 2.3-2.9 4.9-5.6 8-7.7 6.2-4.2 13.4-6.3 20.5-7.7 7.1-1.3 14.2-1.8 21.2-2.5l10.5-.9c3.5-.3 7-.6 10.4-.9 6.9-.6 13.8-1.1 20.5-1.5 6.8-.4 13.5-.8 20.1-.9 3.3 0 6.6-.1 9.9-.1h4.9c1.6 0 3.2-.1 4.9-.1 6.5-.1 12.8-.1 19.1-.1 3.1 0 6.3.1 9.4.2 3.1.1 6.2.3 9.2.4 12.1.8 23.9.9 35.1 2 11.2 1.2 22 1.4 32.3 2.5 10.2.9 19.9 1.5 29.1 1.7 4.6.1 9 .1 13.3.1H565.7c7.9 0 15.2 0 21.8-.3 6.6-.3 12.4-.5 17.5-.7 5.1-.2 9.4-.3 13-.4 7-.2 10.8-.3 10.8-.3l.1 2.4s-3.8.1-10.8.3c-3.5.1-7.9.2-13 .4-5.1.1-11 .2-17.6.3-6.6 0-13.9.4-21.8.5-2 0-4 .1-6.1.1-2.1 0-4.2 0-6.3-.1-4.3-.1-8.7-.2-13.3-.3-4.6-.1-9.3-.2-14.2-.4-4.9-.2-9.9-.4-15-.7-2.6-.2-5.2-.3-7.8-.5-2.6-.2-5.3-.5-8-.8l-8.1-.9c-2.8-.2-5.5-.4-8.3-.5-11.2-.4-22.9-1.9-35.1-1.9-6.1-.2-12.2-.1-18.5-.3-6.3-.1-12.6-.2-19.1-.3-6.5-.1-13 .2-19.6.4-3.3.2-6.6.2-10 .3-3.3.1-6.7.3-10.1.4-6.8.3-13.6.7-20.5 1.2-3.4.3-6.9.5-10.4.8-3.5.4-6.9.7-10.4 1.1-7 .8-14.1 1.6-21 2.9-6.9 1.3-13.9 3.2-19.7 7.1-2.9 1.9-5.4 4.5-7.6 7.2-2.2 2.8-4.2 5.8-5.9 8.9-1.6 3.2-3 6.5-3.8 10-.4 1.7-.7 3.5-.7 5.2 0 1.7.2 3.5.8 5.1.6 1.6 1.5 3.1 2.8 4.2 1.2 1.2 2.8 2 4.5 2.6.8.3 1.7.6 2.6.7.4.1.9.2 1.3.3l1.4.1c1.8.2 3.7.2 5.5.3 7.4.2 14.9-.2 22.4-.4 7.5-.2 15-.1 22.5-.2 7.5 0 15-.2 22.5 0l11.3.2 5.6.1h5.6c3.8 0 7.5-.1 11.3-.1l11.2-.3c3.7-.1 7.5-.2 11.2-.2h5.6c1.9 0 3.7.1 5.6.2 7.4.4 14.9.4 22.3.1 3.7-.1 7.4-.3 11.1-.3h11c7.3.1 14.6.1 21.9.2 14.5 0 28.8.1 42.9.1 3.5 0 7 0 10.5.1s7 .3 10.4.1c6.9-.1 13.8-.3 20.6-.1 13.6.3 26.8.3 39.7.3 12.9 0 25.5 0 37.6-.1 6.1 0 12.1 0 17.9.1h8.7c2.9 0 5.7-.1 8.5-.1 11.3-.1 22-.4 32.4 0 10.3.6 20 1.3 29 .6l3.3-.3c1.1-.2 2.2-.3 3.2-.5.5-.1 1-.2 1.6-.3.5-.1 1-.3 1.6-.5 1-.3 1.9-.7 2.8-1.3.8-.5 1.5-1.2 1.9-2 .4-.8.7-1.7.9-2.7.3-1.9 0-3.8-.3-5.8-.6-3.9-1.4-7.5-2.4-10.9-1.1-3.4-2.4-6.5-4-9.3-3.4-5.5-7.9-9.2-12.2-11.7-.3-.2-.5-.3-.8-.5-.3-.1-.5-.3-.8-.4-.5-.3-1.1-.5-1.6-.8-1-.5-2.1-.9-3.1-1.3-2-.8-3.8-1.3-5.5-1.7-3.3-.8-5.9-1.3-7.8-1.5-1.8-.2-2.7-.4-2.7-.4l.5-2.1z"/><path class="st2" d="M753.7 732.8c1.2-7.7-6.7-14.7-15.9-17-9.1-2.3-19-.9-28.3 1.1-22.8 4.8-45.8 12.7-68.9 9.5-29.9-4.1-52-23.6-84-16.5-13.5 3-26.5 9.5-40.3 8.9-16.6-.6-31.1-11.3-47.1-15.5-42-11.2-88.6 22.1-128.4 4.6-12.3-5.4-22.9-15.4-36.2-17.6-14-2.3-29 5.9-34.8 18.8-2 4.5-3 9.6-1.8 14.4 1.8 7.9 9.1 13.7 16.8 16.2 32.9 10.4 76.7 3.3 110.9 3.3 38.2 0 76.3-.1 114.5-.1 73-.1 145.9-.1 218.9 1.7 7.2.2 16.2-.5 19.1-5.8"/><path class="st6" d="M754.7 848.4V859h-480v-10.6"/><path class="st3" d="M755.9 848.4l-.1 10.6v1.1h-1.1l-7.5-.1h-3.8l-3.8.1c-5 .2-10-.3-15-.2-10 .2-20 .4-30 .5-5 0-10-.4-15-.2l-7.5.2c-2.5.1-5 0-7.5 0l-15-.3c-5 0-10-.1-15 0l-7.5.2c-2.5.1-5 0-7.5-.2-1.2-.1-2.5-.1-3.8-.1-1.2 0-2.5.1-3.8.2-2.5.1-5 0-7.5 0-10 0-20-.2-30-.1H567l-7.5-.3c-2.5-.1-5-.1-7.5-.1-2.5.1-5 .2-7.5.2l-15-.4c-2.5-.1-5 0-7.5 0l-7.5.1c-5 .1-10 0-15 0s-10 0-15-.1c-10-.2-20 .3-30 .4-5 .1-10 .2-15 .2s-10 .1-15-.1l-3.8-.1h-3.8l-7.5.1-15 .3c-5 .2-10-.3-15-.1l-7.5.1h-3.8c-1.2 0-2.5 0-3.8-.1l-7.5-.3h-7.5c-5 .2-10-.4-15-.1-2.5.1-5 .2-7.5.1-2.5 0-5-.1-7.5-.2l-7.5-.1c-2.5 0-5 .1-7.5.1l-3.8.1c-1.3 0-2.5 0-3.8-.1l-7.5-.1c-5 0-10 .3-15 .3h-1.1v-1.1c0-3.5-.1-7.1-.1-10.6h2.4v10.6l-1.2-1.2c2.5 0 5 .1 7.5.1s5 .1 7.5.1 5-.2 7.5-.3c1.2 0 2.5-.1 3.8-.1l3.8.1c2.5 0 5 .1 7.5.1s5-.1 7.5-.1c5-.2 10-.5 15 0 5 .4 10-.3 15 0 2.5.1 5 .2 7.5.2s5-.1 7.5-.2c1.2 0 2.5-.1 3.8-.1l3.8.1 7.5.1 3.8.1 3.8-.1c2.5 0 5-.1 7.5-.1l15 .2 7.5.1 3.8-.1 3.8-.2c5-.3 10-.3 15-.3h7.5l7.5.1c10 0 20 .9 30 .4 10-.3 20-.4 30-.3 5 .1 10 .4 15 .3 5-.1 10-.6 15-.6 2.5-.1 5 .2 7.5.4s5 .1 7.5 0l3.8-.3c1.2-.1 2.5-.1 3.8-.2h7.5c10 .2 20 .1 30 .2h3.8c1.2 0 2.5 0 3.8.1 1.2.1 2.5.2 3.8.2 1.2 0 2.5 0 3.8-.1 2.5-.1 5-.2 7.5-.1l7.5.2c5 .1 10 .1 15 .2h15c5-.1 10 .1 15 0 5 0 10-.3 15-.3 10 0 20 .2 30 .3 5 0 10-.4 15-.2s10 0 15-.1l-1.1 1.1-.1-10.6h2.2z"/><path class="st5" d="M723.6 748.1h22.3v156h-22.3z"/><path class="st3" d="M747.1 905.2l-23.5.1h-1.3V904l-.1-19.5V865c0-6.5 0-13 .1-19.5l.1-19.5c.1-3.2.2-6.5.2-9.7v-29.2c0-3.2.1-6.5.1-9.7l.1-9.7.1-19.5v-.6h11.7l11.1-.1h.7v.7l.5 78v9.7l-.1 9.7-.1 19.5.4 40.1zm-2.4-2.4l-.2-37.8v-9.7c0-3.2 0-6.5.1-9.7l.1-9.7c0-3.2.1-6.5.1-9.7l-.1-78 1.2 1.2h-22.2l1.3-1.3.2 19.5.1 9.7c0 3.2.1 6.5 0 9.7l-.3 19.5-.2 9.7c-.1 3.2 0 6.5.1 9.7l-.2 19.5-.1 9.7c-.1 3.2 0 6.5.1 9.7l.2 9.7c.1 3.2 0 6.5.1 9.7v19.5l-1.1-1.1 20.8.2z"/><path class="st5" d="M284.4 748.1h22.3v156h-22.3z"/><path class="st3" d="M307.9 905.2l-23.5.1h-1.3V904l-.1-19.5V865c0-6.5 0-13 .1-19.5l.1-19.5c.1-3.2.2-6.5.2-9.7v-29.2c0-3.2.1-6.5.1-9.7l.1-9.7.1-19.5v-.6h11.7l11.1-.1h.7v.7l.5 78v9.7l-.1 9.7-.1 19.5.4 40.1zm-2.5-2.4l-.2-37.8v-9.7c0-3.2 0-6.5.1-9.7l.1-9.7c0-3.2.1-6.5.1-9.7l-.1-78 1.2 1.2h-22.2l1.3-1.3.2 19.5.1 9.7c0 3.2.1 6.5 0 9.7l-.3 19.5-.2 9.7c-.1 3.2 0 6.5.1 9.7l-.2 19.5-.1 9.7c-.1 3.2 0 6.5.1 9.7l.2 9.7c.1 3.2 0 6.5.1 9.7v19.5l-1.1-1.1 20.8.2z"/><path class="st2" d="M741 803.9c-1.2 5.6-2.4 9.8-3.7 11.3-.9 1.1-1.9 2.1-2.6 3.4-.9 1.8-.9 3.9-1 6-.3 4.7-1.4 9.4-3.3 13.7-.4.9-.9 1.8-1.8 2-.5.1-1.1-.1-1.5-.3-2.5-1.4-2.8-4.9-2.8-7.8 0-6.9.3-84.1-.8-84.1h22.3c2.3 0-.8 36.3-4.8 55.8zM305.6 805.7c-.5 1.6-1 3.1-1.6 4.5-2 4.7-4.9 9.1-6 14.2-1.1 5.3-.1 11.1-2.3 16.1-.3.6-.6 1.2-1.1 1.5-1.3.9-3.1-.2-4.1-1.4-3.8-4.4-4.2-10.7-4.5-16.5-1-25.4-1.5-50.6-1.5-76.1h22.3c-.1 17.4 3.9 40.5-1.2 57.7z"/><g><path class="st5" d="M382.8 758.6H274.7v-21.1h480v21.1h-63.8"/><path class="st3" d="M382.8 759.8l-13.5-.1-13.5-.1c-4.5-.1-9 .2-13.5.2l-6.8-.1c-2.3 0-4.5-.1-6.8-.1s-4.5 0-6.8.1l-6.8.1-13.5.2-13.5.2c-2.3 0-4.5 0-6.8-.1l-6.8-.1h-1.3v-1.3l.1-5.3v-5.2l-.2-10.6v-1.4h1.4l3.8-.1h3.8l7.5.1 15 .2c10 0 20 .1 30-.1 2.5 0 5-.1 7.5 0 2.5 0 5 .2 7.5.2 2.5.1 5 0 7.5-.1s5-.1 7.5-.1l30 .1h15c5 0 10-.1 15 .1l7.5.2 3.8.1h3.8l7.5-.2h7.5c10 .1 20 .4 30 .3 5 0 10-.1 15-.1h15l30 .1 30-.5c10-.2 20-.2 30-.3 5 0 10 .1 15 .2l7.5.1c2.5 0 5 0 7.5-.1l15-.2 7.5-.1c2.5 0 5-.1 7.5 0 10 .3 20 0 30 0l15 .3c5 .1 10 0 15 0s10 .3 15 .1l7.5-.2c2.5-.1 5 0 7.5 0h1.1v1c0 3.5-.2 7.1-.2 10.6v11.4h-.8l-8 .1h-8l-8-.1h-8l-8 .1c-2.7 0-5.3.1-8 .1l-15.9.1v-2.4h15.9c2.7 0 5.3.1 8 .1l8 .1h4l4-.1 8-.2c1.3 0 2.7-.1 4 0h4l8 .1-1.1 1.1v-5.3l-.1-5.3c0-3.5-.2-7.1-.2-10.6l1.4 1.4c-2.5 0-5 .1-7.5 0-2.5 0-5-.3-7.5-.3-5-.2-10 .2-15 .2-5-.1-10-.3-15-.2l-15 .3c-10-.1-20-.4-30-.2-2.5.1-5 0-7.5 0l-7.5-.1-15-.1c-5-.1-10-.1-15 .1l-7.5.2c-2.5 0-5 .1-7.5.1h-15c-5 0-10-.1-15-.1l-7.5-.1-7.5-.2c-5-.1-10-.3-15-.3l-7.5.1-7.5.1-15 .2c-10 .1-20 .2-30-.2-2.5-.1-5-.1-7.5-.1s-5 0-7.5.1c-5 .1-10 .4-15 .5-2.5 0-5 .1-7.5 0s-5-.3-7.5-.4c-5-.2-10 .1-15 .4-5 .2-10 .2-15 .1l-15-.2-30-.1c-2.5 0-5 0-7.5-.1-2.5-.2-5-.2-7.5-.2s-5 .2-7.5.2c-2.5.1-5 0-7.5-.1-10-.3-20-.3-30-.3h-30l.8-.8V752.8l.1 5.3-.9-.9 6.8-.1c2.3 0 4.5-.1 6.8-.1l13.5.1 13.5.1 6.8.1c2.3 0 4.5.1 6.8 0l13.5-.3c4.5 0 9 .2 13.5.1l13.5-.2 13.5-.1v3z"/></g><g><path class="st3" d="M672 759.8h-2.9c-1 0-2.1 0-3.5-.1s-3-.1-4.7-.1c-.9 0-1.8.1-2.8.2-1 0-2 0-3.1-.1s-2.2-.2-3.3-.2c-1.2 0-2.4 0-3.6.1-2.5.1-5.1.2-7.9.4-1.4 0-2.8.1-4.3.1s-2.9-.1-4.5-.2c-1.5-.1-3.1-.1-4.7 0s-3.2.2-4.8.2c-3.3-.1-6.7-.2-10.2-.4-3.5-.1-7.1-.1-10.7.2-.9 0-1.8.1-2.8 0-.9-.1-1.9-.2-2.8-.2-.9-.1-1.9 0-2.8.1-.9.1-1.9 0-2.8 0-3.8 0-7.7-.1-11.6-.2h-8.9c-1 0-2-.1-3-.2-2-.2-4-.3-6 0-2 .2-4 .1-6.1 0-2-.1-4-.3-6.1-.3-2 0-4.1 0-6.1.1-4.1.1-8.1 0-12.2 0-2 0-4-.1-6.1-.1-2-.1-4 .1-6 .2-4 .2-8 .3-11.9.5-2 0-3.9.1-5.8.1h-2.9c-1-.1-1.9-.1-2.9-.2-3.8-.2-7.5.1-11.2.2-1.8 0-3.6.2-5.4.2-1.8-.1-3.6-.2-5.3-.1-1.7 0-3.5.1-5.2.1-1.7.1-3.4-.1-5-.3-3.3-.3-6.5.2-9.5-.1-3-.4-6 .4-8.7.1-2.8-.2-5.4-.3-7.9-.3-1.2 0-2.4.1-3.6.1h-3.3c-2.1-.1-4.1-.2-5.9-.1-1.8.1-3.4.2-4.7.3-1.4 0-2.6.1-3.5.1H412.1v-2.4h6.4c1.4 0 3 .1 4.7.2 1.8.1 3.7 0 5.9-.2 2.1-.2 4.5 0 6.9.1 2.5 0 5.1-.2 7.9-.4 1.4-.1 2.8-.1 4.3.1 1.5.3 2.9.3 4.5.1 3-.4 6.2.4 9.5.1 3.3-.4 6.7-.2 10.2 0 1.7.1 3.5 0 5.3-.1 1.8 0 3.6.1 5.4.1 3.7.1 7.4.4 11.2 0 1-.1 1.9-.2 2.9-.2s1.9-.1 2.9-.1h5.8c2 0 3.9.1 5.9.1 2 0 4 .1 6 .3 2 .2 4 .3 6 .2 2-.1 4-.2 6.1-.3 4-.1 8.1-.3 12.2-.2 2 .1 4.1.3 6.1.3 1 0 2-.1 3-.1l3-.3c1-.1 2-.2 3-.2 1-.1 2 0 3 .2 2 .4 4 .4 6 0 1-.2 2-.2 3-.3 1-.1 2 0 3 0 2 .1 3.9.1 5.9.2 3.9 0 7.8.1 11.6.1 1 0 1.9 0 2.8.1.9.2 1.9.3 2.8.2.9 0 1.9-.2 2.8-.2h2.8c3.7.3 7.2.3 10.7.4 3.5 0 6.9 0 10.2-.1 1.6 0 3.3 0 4.8.1 1.6 0 3.1 0 4.7-.1 6.1-.5 11.7 0 16.6 0 1.2 0 2.4.1 3.6.1 1.2 0 2.3-.1 3.3-.2 1.1-.1 2.1-.1 3.1-.1s1.9.1 2.8.1c1.8 0 3.4-.1 4.7-.1 1.4-.1 2.6-.1 3.5-.1 1.9 0 2.9-.1 2.9-.1v2.6z"/></g></g><g><path class="st33" d="M1095.3 196.3c1.3-1.8 2.6-3.6 4.4-4.9 6.2-4.7 15.5-5.2 22.9-7 2.1-.5 4.6-.9 6.2.5 1 .9 1.4 2.3 1.7 3.7 1.9 8.2 4.3 16.3 1.4 24.6-1.9 5.5-5.1 10.3-8.3 15.2-4.9 7.4-10.8 14.8-14.8 22.7-.9 1.1-1.9 2.4-3.3 2.7-1.1.3-2.2-.1-3.3-.5-10-3.8-22.6-11.4-29.1-20-2.1-2.8 18.1-30.4 20.3-34 .7-1 1.3-2 1.9-3z"/><path class="st83" d="M1096.5 238.3c0 .7.6 1.5 1.3 1.7 1-7.4.3-15-2-22.1-1.7 5.4 1.1 11.7 6.2 14.2.6.3 1.2.5 1.8.2.4-.2.6-.7.8-1.1 1.7-4.5 1.4-9.6-.7-13.9-.4 2.1-.9 4.2-.2 6.2s3 3.5 4.9 2.7c3.9-1.8.2-8.7 3.3-11.7"/><path class="st5" d="M1120.2 194.9c-2.9-.9-6.5 1.1-7 4.1-.9 4.8 5.4 8.4 9 5.1 3-2.7 1.9-8.1-2-9.2z"/></g><g><path class="st0" d="M1091.3 136.7s-.1.5-.2 1.5-.3 2.4 0 4.1c.2.8.5 1.7 1.2 2.4.2.2.3.4.5.5.2.2.4.3.7.5.5.3 1 .4 1.6.5 2.4.4 5.1-.4 7.9-1.9.7-.4 1.5-.7 2.2-1.1l1.2-.6c.4-.2.8-.3 1.2-.5 1.7-.6 3.6-1.1 5.4-1.4 3.8-.6 8-.4 12 .9 2 .6 3.9 1.6 5.7 2.9 1.8 1.3 3.3 2.8 4.9 4.2.8.7 1.6 1.3 2.5 1.7.4.2 1 .4 1.4.5.6.1.9.1 1.5 0 .9-.2 1.9-.6 2.6-1.4.7-.7 1.1-1.7.8-2.5l-.3-.6c-.1-.1-.2-.2-.2-.3l-.2-.2c-.3-.3-.8-.4-1.3-.4-.9-.1-1.9.3-2.7.9-1.7 1.1-2 3.4-1.7 5.5.1 1 .4 2 .5 3.1l.1.8.1.8.2 1.6c.2 1 .1 2.1.2 3.2s0 2.1 0 3.1c-.2 4.1-.9 8.1-2.2 11.7-1.3 3.6-2.8 6.8-4.5 9.7-1.6 2.9-3.6 5.2-5.4 7.2-.9 1-1.7 1.9-2.6 2.7-.9.8-1.6 1.6-2.3 2.2-.7.6-1.4 1.2-2 1.6-.6.5-1.1.8-1.6 1.1-.9.6-1.3.9-1.3.9l-.8-1.3s.4-.3 1.3-.9c.4-.3.9-.6 1.5-1 .6-.5 1.2-1 1.9-1.6.7-.6 1.4-1.3 2.3-2.1.8-.8 1.6-1.7 2.5-2.6 1.6-2 3.3-4.4 5-7.1 1.6-2.7 3.3-5.8 4.4-9.3 1.1-3.5 2.3-7.2 2.3-11.2 0-1 .1-2 0-3s0-2-.2-3l-.2-1.6-.1-.7-.1-.8c-.2-1-.4-2.1-.4-3.2s.1-2.3.3-3.4c.1-.3.2-.6.3-.8l.1-.2c.1-.1.1-.2.1-.2.1-.1.1-.3.2-.4.3-.6.8-1 1.3-1.4 1-.8 2.2-1.3 3.6-1.2.7 0 1.4.2 2 .7.2.1.3.3.5.4l.3.3.1.1s.1.2.1.1v.1l.1.2c.1.2.2.3.2.5.3.7.1 1.5-.1 2.2-.2.7-.6 1.2-1.1 1.7-.9.9-2 1.5-3.3 1.8-.6.1-1.5.1-1.9 0H1139.1l-.2-.1c-.1 0-.3-.1-.4-.1-.3-.1-.6-.2-.8-.3-1.1-.5-2-1.2-2.9-1.9-.8-.7-1.6-1.5-2.4-2.2-.8-.7-1.6-1.3-2.5-1.8-.9-.5-1.7-1-2.6-1.5-.4-.2-.9-.4-1.3-.6-.5-.2-.9-.4-1.4-.5-1.8-.7-3.8-.9-5.7-1.1-1.9-.2-3.8-.1-5.6.1-1.8.3-3.5.8-5.1 1.4-.4.2-.8.4-1.2.5-.4.2-.8.4-1.1.6-.7.4-1.5.8-2.2 1.2-1.5.8-2.9 1.4-4.5 1.8-1.6.3-3.1.3-4.5 0s-2.6-1-3.5-1.9c-.9-.9-1.4-2.1-1.6-3.1-.4-2-.2-3.6-.1-4.6.1-1 .2-1.6.2-1.6l1.6-.3z"/></g><g><path class="st3" d="M862.5 978.2s4.8 0 13.3-.1c4.2 0 9.3-.1 15.2-.1 5.9 0 12.5-.1 19.8-.1h11.3c3.9 0 7.9.1 12.1.1 4.1 0 8.4.1 12.8.1s8.8.3 13.3.2c9 0 18.4 0 27.9.1 4.8.1 9.5.1 14.3.2 4.8 0 9.6.1 14.5.1 9.7 0 19.3-.1 28.8-.2s18.9-.1 27.9-.2 17.8-.1 26.1-.2 16.1 0 23.4.1c7.2.1 13.9.2 19.8.1 5.9 0 11-.1 15.2-.1 8.4-.1 13.3-.1 13.3-.1v2.4s-4.8 0-13.3.1c-8.4 0-20.5.2-35 .1-7.2-.1-15.1-.2-23.4-.2h-26.1c-18.1 0-37.4.1-56.7.1-9.7.1-19.3.2-28.8.2s-18.9-.2-27.9-.4c-4.5-.2-9 .1-13.3 0-4.4-.1-8.6-.1-12.8-.2-4.1 0-8.2-.1-12.1-.1-3.9.1-7.7.1-11.3.2-1.8 0-3.6.1-5.3.1h-43v-2.2z"/></g><g><path class="st3" d="M979.9 959.5s1.4 0 3.8-.1c1.2 0 2.7-.1 4.4-.1 1.7 0 3.6-.1 5.7-.1h3.2c1.1 0 2.3.1 3.5.1 1.2 0 2.4.1 3.7.1.6 0 1.3.1 1.9.1.6.1 1.3.1 1.9.1 2.6 0 5.3 0 8 .1 1.4.1 2.7.1 4.1.2l2.1.1h2.1c2.8 0 5.6-.1 8.3-.2 2.7-.1 5.4-.1 8-.2 2.6-.1 5.1-.1 7.5-.2 2.4-.1 4.6 0 6.7.1 2.1.1 4 .1 5.7.1 1.7 0 3.2-.1 4.4-.1 1.2 0 2.2-.1 2.8-.1h1v2.4s-1.4 0-3.8.1c-2.4 0-5.9.2-10.1.1-2.1-.1-4.3-.2-6.7-.2h-7.5c-5.2 0-10.8.1-16.3.1-2.8 0-5.6.3-8.3.3-2.7 0-5.4-.3-8-.4-.7 0-1.3-.1-1.9-.1-.6.1-1.3.1-1.9.1-1.3-.1-2.5-.1-3.7-.2-2.4-.1-4.6-.2-6.7.1-2.1.2-4 .1-5.7.2-1.7 0-3.2 0-4.4.1h-3.8v-2.5z"/></g><g><path class="st3" d="M1219.4 918.4s3.5 0 9.7-.1c3.1 0 6.8-.1 11.1-.1s9.1-.1 14.4-.1h8.2c2.8 0 5.8.1 8.8.1 3 0 6.1.1 9.3.1 3.2 0 6.4.3 9.7.2 6.6 0 13.4 0 20.3.1 3.5.1 6.9.1 10.4.2 3.5 0 7 .1 10.5.1 7 0 14-.1 21-.2 6.9-.1 13.7-.1 20.3-.2 6.6-.1 12.9-.1 19-.2 6-.1 11.7 0 17 .1 5.3.1 10.1.1 14.4.1 4.3 0 8-.1 11.1-.1 6.1-.1 9.7-.1 9.7-.1v2.4s-3.5 0-9.7.1c-6.1 0-14.9.2-25.5.1-5.3-.1-11-.2-17-.2h-19c-13.2 0-27.2.1-41.3.1-7 .1-14 .2-21 .2-6.9.1-13.7-.3-20.3-.4-1.6 0-3.3-.1-4.9-.1-1.6 0-3.2.1-4.8.1-3.2-.1-6.3-.1-9.3-.2-3 0-6-.1-8.8-.1-2.8 0-5.6.1-8.2.2-1.3 0-2.6.1-3.9.1h-31.3v-2.2z"/></g><g><path class="st3" d="M1790.9 918.4s1.4 0 3.8-.1c1.2 0 2.7-.1 4.4-.1 1.7 0 3.6-.1 5.7-.1h3.2c1.1 0 2.3.1 3.5.1 1.2 0 2.4.1 3.7.1.6 0 1.3.1 1.9.1.6.1 1.3.1 1.9.1 2.6 0 5.3 0 8 .1 1.4.1 2.7.1 4.1.2l2.1.1h2.1c2.8 0 5.6-.1 8.3-.2 2.7-.1 5.4-.1 8-.2 2.6-.1 5.1-.1 7.5-.2 2.4-.1 4.6 0 6.7.1 2.1.1 4 .1 5.7.1 1.7 0 3.2-.1 4.4-.1 1.2 0 2.2-.1 2.8-.1h1v2.4s-1.4 0-3.8.1c-2.4 0-5.9.2-10.1.1-2.1-.1-4.3-.2-6.7-.2h-7.5c-5.2 0-10.8.1-16.3.1-2.8 0-5.6.3-8.3.3-2.7 0-5.4-.3-8-.4-.7 0-1.3-.1-1.9-.1-.6.1-1.3.1-1.9.1-1.3-.1-2.5-.1-3.7-.2-2.4-.1-4.6-.2-6.7.1-2.1.2-4 .1-5.7.2-1.7 0-3.2 0-4.4.1h-3.8v-2.5z"/></g></svg>