<svg xmlns="http://www.w3.org/2000/svg" xmlns:xlink="http://www.w3.org/1999/xlink" width="1096" height="610" viewBox="0 0 1096 610"><title>Page 1</title><defs><path id="a" d="M0 .323v2.523h1094.698V.323H0z"/><path id="c" d="M.553 2.53h38.98V.63H.553v1.9z"/><path id="e" d="M568.402.564H.244v123.794h568.158V.564z"/><path id="g" d="M611.834.564H.352v127.408h611.482V.564z"/></defs><g fill="none" fill-rule="evenodd"><g transform="translate(0 574.785)"><mask id="b" fill="#fff"><use xlink:href="#a"/></mask><path d="M0 .54C91.225.436 182.45.173 273.674.436l34.21.063c11.403.07 22.806.18 34.21.16l68.418.046 136.837.318 273.673-.43C843.83.554 866.635.484 889.44.54l68.42.155L1094.698.54v2.024l-136.837.15-34.21-.018-34.208-.108c-22.806-.084-45.612-.052-68.418-.048l-273.675.094-68.42.156c-22.807.025-45.613.12-68.42-.016l-68.417-.3c-11.404-.094-22.807-.003-34.21.03l-34.21-.105-68.418-.16-34.21.13c-11.402.054-22.806.11-34.208.1L0 2.565V.54z" fill="#E0E3ED" mask="url(#b)"/></g><path d="M622.864 607.852c10.385-.076 20.77-.274 31.155-.076l3.893.048c1.298.052 2.595.133 3.894.12l7.79.034c2.594-.007 5.19.07 7.787.124 2.596.064 5.192.074 7.79.115 10.383-.062 20.768-.194 31.153-.323 2.596-.03 5.194-.082 7.79-.04l7.788.124c5.193.01 10.384-.087 15.577-.126v1.52l-15.577.11c-1.3-.005-2.597.018-3.895-.01l-3.893-.082c-2.595-.063-5.193-.04-7.79-.037l-31.153.07-7.79.118c-2.595.02-5.192.083-7.787.01l-7.79-.244c-.648-.02-1.298-.05-1.946-.037l-1.945.057-3.895-.08c-2.597-.054-5.194-.104-7.79-.122-2.596.017-5.192.195-7.788.178l-15.578.07v-1.52z" fill="#0C1238"/><g transform="translate(565.135 607.06)"><mask id="d" fill="#fff"><use xlink:href="#c"/></mask><path d="M.553.792C3.803.715 7.05.517 10.298.715l1.218.047c.204.014.407.064.61.095.202.025.406.022.61.026l2.435.035c1.626-.014 3.25.245 4.874.245 3.25-.022 6.497-.22 9.745-.33C30.6.81 31.41.747 32.223.787c.812.04 1.624.107 2.437.132C35.475.95 36.287.89 37.1.883c.812-.018 1.624-.044 2.436-.09V2.31l-4.872.123c-.812.018-1.624-.048-2.436-.11-.812-.062-1.623-.03-2.436-.03l-9.745.067c-1.624.05-3.248.26-4.872.13-.812-.056-1.624-.2-2.435-.253-.203-.016-.407-.04-.61-.03-.202.02-.405.063-.61.06-.404-.018-.81-.036-1.217-.07-.81-.075-1.623-.14-2.435-.134-.406.004-.812.06-1.218.112-.406.048-.812.066-1.218.07-1.625.023-3.25.093-4.874.065V.792z" fill="#0C1238" mask="url(#d)"/></g><g fill="#E8EBF2"><path d="M540.717 10.304c-3.673 14.092-8.547 30.035-14.19 43.393 14.382-5.95 28.662-14.848 42.382-22.378"/><path d="M541.44 10.493c-.493 1.842-.972 3.688-1.505 5.52-.667 1.793-.936 3.697-1.387 5.553-.943 3.7-2.218 7.304-3.404 10.93l-.913 2.714c-.307.903-.65 1.795-.97 2.693-.67 1.788-1.317 3.583-2.053 5.346-.76 1.75-1.325 3.576-2.07 5.334-.705 1.774-1.535 3.496-2.214 5.28l-.56-.565c3.638-1.61 7.384-3.033 10.793-5.134 3.528-1.857 7.033-3.76 10.483-5.765 1.744-.967 3.55-1.83 5.277-2.83 1.733-.992 3.448-2.02 5.194-2.99.88-.47 1.79-.893 2.665-1.38.866-.5 1.74-.984 2.597-1.5l5.18-3.037.72 1.31-5.21 2.95-2.59 1.504c-.848.53-1.684 1.08-2.538 1.6-1.73.998-3.498 1.935-5.264 2.875-1.77.935-3.502 1.936-5.283 2.85-3.64 1.685-7.013 3.867-10.59 5.69-.447.228-.89.464-1.36.644-.473.177-.95.34-1.417.528-.467.186-.91.423-1.357.65-.447.226-.895.45-1.333.697-1.78.93-3.544 1.926-5.46 2.56l-2.114.696.952-1.866c.864-1.693 1.434-3.51 2.16-5.26.64-1.785 1.523-3.48 1.987-5.333.484-1.842 1.35-3.547 2.046-5.317.356-.883.564-1.815.947-2.69l1.044-2.657c.676-1.78 1.186-3.614 1.683-5.45.5-1.835.956-3.682 1.482-5.51.267-.91.582-1.81.87-2.716.132-.456.28-.908.39-1.372.112-.462.203-.93.31-1.393l1.372-5.536 1.446.377z"/></g><g fill="#E8EBF2"><path d="M905.676 119.18l22.306 33.156 10.203-40.958"/><path d="M906.296 118.762c.92 1.386 1.86 2.76 2.766 4.16.79 1.473 1.93 2.715 2.926 4.05 1.962 2.694 3.676 5.556 5.517 8.33.915 1.39 1.835 2.78 2.713 4.196.884 1.412 1.803 2.8 2.654 4.234.836 1.445 1.85 2.77 2.737 4.18.92 1.386 1.75 2.834 2.726 4.185l-.77.135c.745-3.44 1.905-6.775 2.407-10.275l2.364-10.286c.418-1.706.97-3.38 1.378-5.092.412-1.71.794-3.427 1.236-5.13.235-.848.53-1.68.75-2.532.208-.854.427-1.706.614-2.566l1.144-5.152 1.45.36-1.234 5.13-.604 2.57c-.172.862-.318 1.732-.504 2.592-.417 1.71-.896 3.402-1.373 5.096-.476 1.693-.874 3.406-1.364 5.097-1.125 3.344-1.644 6.84-2.474 10.258-.1.43-.196.86-.353 1.273-.154.415-.328.826-.46 1.245-.132.42-.207.855-.303 1.284-.096.43-.182.863-.254 1.297-.324 1.73-.56 3.485-1.148 5.15l-.67 1.89-.917-1.61c-.824-1.45-1.876-2.75-2.773-4.155-.96-1.362-1.713-2.86-2.807-4.132-1.067-1.29-1.776-2.82-2.642-4.244-.426-.718-.973-1.353-1.36-2.096l-1.254-2.167c-.85-1.435-1.83-2.782-2.81-4.13-.973-1.352-1.975-2.685-2.905-4.066-.91-1.393-1.69-2.877-2.77-4.157-.976-1.35-1.915-2.724-2.875-4.087l1.24-.833z"/></g><g fill="#E8EBF2"><path d="M1012.07 83.56l32.456 22.796-4.622-40.978"/><path d="M1012.5 82.948c1.345.96 2.707 1.895 4.04 2.873 1.256 1.088 2.76 1.824 4.155 2.71 2.772 1.805 5.376 3.848 8.07 5.764 1.344.96 2.684 1.927 4.003 2.926 1.323.99 2.66 1.96 3.96 2.985 1.288 1.043 2.71 1.892 4.025 2.896 1.344.965 2.63 2.008 4.022 2.9l-.68.405c-.457-3.406-.584-6.85-1.302-10.228l-1.343-10.223c-.19-1.708-.255-3.43-.472-5.134-.204-1.707-.445-3.41-.614-5.12-.07-.856-.088-1.718-.174-2.573-.107-.853-.193-1.708-.317-2.558l-.71-5.11 1.484-.167.62 5.117.32 2.56c.14.848.3 1.695.427 2.545.208 1.706.343 3.42.484 5.133.136 1.713.355 3.418.49 5.132.1 3.447.804 6.826 1.223 10.236.053.427.12.852.137 1.283.012.43-.005.863-.005 1.295.002.43.072.856.135 1.28.067.426.115.853.2 1.276.287 1.697.696 3.38.75 5.103l.067 2.117-1.486-1.274c-1.26-1.08-2.7-1.906-4.035-2.88-1.382-.907-2.6-2.05-4.058-2.848-.724-.405-1.397-.886-2.05-1.395-.646-.516-1.27-1.067-1.923-1.575-.64-.53-1.372-.922-2.006-1.458l-1.93-1.563c-1.292-1.037-2.677-1.94-4.064-2.84-1.382-.908-2.785-1.787-4.14-2.73-1.342-.966-2.585-2.073-4.042-2.873-1.386-.902-2.745-1.843-4.118-2.763l.86-1.22z"/></g><g fill="#E8EBF2"><path d="M664.808 86.995l-30.12 26.18-.355-39.57"/><path d="M665.298 87.56c-1.264 1.08-2.503 2.19-3.787 3.246-1.36.967-2.42 2.282-3.64 3.415-2.447 2.255-5.073 4.304-7.592 6.475l-1.903 1.613-1.93 1.58-1.93 1.584-1.953 1.556c-.653.515-1.262 1.082-1.888 1.63-.626.546-1.27 1.072-1.905 1.61l-1.926 1.586c-.63.543-1.24 1.11-1.86 1.664l-.747.67v-1.007l.004-4.947c.01-.824-.01-1.648-.115-2.472-.09-.822-.093-1.65-.12-2.47l-.266-9.89.054-2.477.028-1.237-.022-1.236c-.022-1.65-.098-3.298-.07-4.947.036-.826.092-1.65.086-2.474-.016-.827-.017-1.65-.053-2.476l-.174-4.945 1.493-.014.087 4.946.05 2.472c.04.825.106 1.65.16 2.472.043.825.01 1.65.01 2.474-.005.826-.025 1.65-.044 2.475-.052 1.65-.015 3.298-.037 4.947-.05 1.65-.17 3.3-.074 4.948l.2 4.945c.003.824.092 1.648-.03 2.473-.046.413-.11.826-.112 1.238-.003.413.03.824.043 1.236.085 1.65.29 3.296.302 4.945l-1.57-.708c.633-.54 1.336-.998 1.957-1.55.626-.548 1.244-1.105 1.858-1.664.634-.54 1.255-1.094 1.897-1.622.643-.527 1.306-1.032 1.903-1.613.592-.585 1.157-1.202 1.81-1.72.636-.533 1.327-1.007 1.994-1.506.327-.257.67-.5.98-.772.32-.27.61-.567.935-.827.653-.516 1.326-1.01 1.99-1.512 1.34-.993 2.574-2.108 3.788-3.246 1.22-1.132 2.42-2.287 3.66-3.395 1.252-1.093 2.654-2.015 3.79-3.244 1.207-1.144 2.46-2.238 3.69-3.36l.98 1.13z"/></g><g transform="translate(526.53 -.475)"><mask id="f" fill="#fff"><use xlink:href="#e"/></mask><path d="M.928-1.158c9.702 9.083 20.02 17.503 30.7 25.425 2.654 2.002 5.358 3.938 8.054 5.884 2.713 1.927 5.46 3.8 8.22 5.658 5.52 3.71 11.096 7.335 16.727 10.875C75.87 53.803 87.25 60.697 98.9 67.1c11.662 6.388 23.58 12.313 35.735 17.708 12.168 5.365 24.53 10.302 37.106 14.63 6.274 2.205 12.624 4.187 18.987 6.118l9.606 2.696c1.603.44 3.196.924 4.808 1.33l4.845 1.19c3.23.78 6.45 1.625 9.7 2.326l9.77 2.022c3.25.72 6.534 1.237 9.81 1.82l4.913.86c1.637.29 3.275.58 4.925.792l9.878 1.4 2.47.35 2.48.268 4.96.536c6.607.808 13.253 1.168 19.887 1.65 1.658.142 3.32.177 4.983.243l4.985.193c3.324.126 6.648.297 9.974.263l9.98.045c3.325-.034 6.65-.184 9.974-.27l4.986-.15c1.662-.07 3.32-.205 4.98-.314l9.95-.723 9.92-1.074c1.654-.18 3.31-.336 4.96-.53l4.938-.704c3.29-.48 6.588-.908 9.87-1.432l9.816-1.774 2.454-.443 1.226-.222 1.218-.268 4.87-1.076 4.87-1.075c1.62-.362 3.25-.69 4.852-1.14 6.426-1.707 12.886-3.29 19.23-5.29 6.353-1.95 12.65-4.085 18.873-6.42 6.233-2.31 12.38-4.842 18.428-7.595 6.05-2.752 11.99-5.74 17.774-9.01 11.594-6.494 22.497-14.168 32.895-22.442 2.62-2.045 5.146-4.203 7.698-6.332 2.492-2.197 5.018-4.358 7.43-6.646 4.856-4.537 9.557-9.243 14-14.184 8.95-9.82 16.968-20.503 23.62-31.99l.864.497c-6.71 11.556-14.795 22.27-23.78 32.132-4.467 4.957-9.19 9.68-14.066 14.23-2.415 2.302-4.924 4.5-7.412 6.722-2.545 2.156-5.066 4.342-7.68 6.415-5.18 4.206-10.55 8.176-16.062 11.935-5.498 3.783-11.183 7.3-17.007 10.556-11.655 6.508-23.84 12.032-36.337 16.692-6.255 2.316-12.583 4.422-18.965 6.346-6.373 1.96-12.85 3.546-19.287 5.267-1.605.452-3.24.784-4.864 1.15l-4.88 1.08-4.883 1.083-1.22.27-1.23.223-2.458.447-9.84 1.786c-3.29.53-6.595.96-9.893 1.445l-4.95.71c-1.654.195-3.314.354-4.97.534l-9.953.96-9.978.603c-1.664.097-3.324.254-4.99.33l-4.994.177c-3.33.103-6.66.27-9.992.32l-9.997.01c-3.335.053-6.665-.1-9.996-.206-3.33-.132-6.666-.16-9.99-.426l-9.97-.753-2.492-.19c-.83-.07-1.657-.178-2.486-.264l-4.97-.53-4.974-.52-2.486-.262-2.476-.342-9.905-1.37c-13.166-2.08-26.273-4.577-39.204-7.826l-4.865-1.152c-1.62-.392-3.217-.865-4.827-1.294-3.214-.882-6.434-1.744-9.638-2.664-6.373-1.955-12.73-3.96-19.012-6.188-3.156-1.07-6.27-2.258-9.41-3.372-1.567-.567-3.118-1.175-4.678-1.76-1.556-.594-3.12-1.17-4.664-1.796-3.092-1.24-6.18-2.485-9.242-3.8-3.078-1.278-6.116-2.644-9.164-3.99-6.075-2.735-12.093-5.592-18.07-8.53-5.99-2.918-11.89-6.012-17.752-9.176-11.707-6.368-23.116-13.262-34.38-20.366C41.7 33.136 19.75 17.818.238-.422l.684-.726z" fill="#E8EBF2" mask="url(#f)"/></g><path d="M598.357 51.817l-.586 2.5c-.19.835-.33 1.682-.527 2.518-.213.832-.35 1.68-.455 2.535-.12.85-.228 1.703-.32 2.558-.502 3.398-1.05 6.793-1.49 10.205l-1.315 10.24c-.223 1.71-.325 3.428-.517 5.14-.175 1.71-.372 3.424-.46 5.14l-.466-.26c1.41-1.036 2.87-2.005 4.292-3.026 1.464-.96 2.774-2.14 4.21-3.142l8.484-6.197c1.434-1.003 2.908-1.952 4.32-2.988 1.425-1.017 2.825-2.07 4.27-3.058l2.18-1.467c.708-.513 1.425-1.015 2.127-1.54l4.23-3.118.572.815-4.26 3.072-2.128 1.536-2.09 1.59c-1.41 1.04-2.864 2.015-4.307 3.006-1.45.982-2.87 2.006-4.31 3-2.948 1.897-5.706 4.06-8.54 6.114-.7.524-1.407 1.042-2.177 1.47-.76.442-1.444.99-2.148 1.51l-2.08 1.607c-.696.53-1.376 1.082-2.11 1.562l-1.16.76.176-1.313c.23-1.717.33-3.436.474-5.156.122-1.72.41-3.424.496-5.15.046-1.727.35-3.43.606-5.136.155-.85.205-1.713.324-2.567l.416-2.555c.562-3.404.812-6.85 1.35-10.262.28-1.702.698-3.38.92-5.098.14-.852.307-1.7.477-2.55l.557-2.538.967.243z" fill="#FFF"/><g fill="#E8EBF2"><path d="M753.73 115.41c-.442 8.487 6.05 38.87 6.05 38.87s16.125-22.458 23.872-32.434"/><path d="M754.478 115.448c-.045 1.574.057 3.19.18 4.81-.02 1.638.463 3.23.74 4.837.552 3.22.906 6.477 1.443 9.71.28 1.614.53 3.232.776 4.855.248 1.62.523 3.237.748 4.863.226 1.627.64 3.217.903 4.837.29 1.615.545 3.238.945 4.828l-.786-.165c.94-1.392 1.998-2.698 2.97-4.066.492-.68 1.013-1.34 1.44-2.066.416-.732.882-1.432 1.367-2.116l5.78-8.25c1.006-1.345 2.1-2.624 3.07-3.996.988-1.356 1.942-2.74 2.97-4.067.53-.653 1.086-1.284 1.597-1.95.496-.68 1.006-1.345 1.49-2.033l2.955-4.09 1.18.918-3.014 4.02c-.505.666-.99 1.35-1.485 2.027l-1.393 2.1c-.986 1.355-2.028 2.67-3.065 3.988-1.042 1.317-2.02 2.68-3.046 4.007-2.215 2.536-3.95 5.423-5.88 8.167-.246.34-.477.69-.733 1.023-.254.334-.56.63-.844.943-.594.604-1 1.347-1.482 2.033-.9 1.42-1.72 2.9-2.766 4.21l-1.427 1.786-.23-2.134c-.18-1.647-.618-3.23-.942-4.844-.153-.808-.33-1.61-.447-2.425-.13-.812-.26-1.624-.49-2.416-.51-1.576-.627-3.23-.806-4.866-.062-.824-.314-1.614-.4-2.433l-.264-2.456c-.158-1.64-.49-3.25-.8-4.866-.32-1.614-.632-3.233-.88-4.86-.197-1.64-.21-3.294-.538-4.924-.224-1.64-.322-3.303-.323-5.013l1.493.08z"/></g><path d="M1067.573 40.58c1.126.883 2.263 1.75 3.41 2.605l1.71 1.297 1.81 1.16c2.43 1.51 4.784 3.13 7.215 4.637 2.43 1.507 4.917 2.92 7.417 4.31l3.787 2.03c1.27.66 2.59 1.217 3.88 1.837l-.46.36c-.31-1.89-.58-3.786-.96-5.663l-.96-5.663c-.164-.94-.4-1.872-.603-2.81l-.534-2.82-1.063-5.645-.532-2.822-.44-2.838c-.285-1.893-.674-3.77-1.005-5.654-.333-1.885-.543-3.79-.92-5.67l-1.092-5.64.982-.17 1.03 5.65c.305 1.89.78 3.75 1.097 5.64l.905 5.67.475 2.832.42 2.843c.307 1.89.716 3.76 1.065 5.643l.54 2.82c.15.945.157 1.916.376 2.85.364 1.88.835 3.74 1.174 5.624.145.946.233 1.902.424 2.84.165.944.363 1.88.517 2.825l.175 1.08-.98-.453c-.655-.302-1.312-.6-1.957-.92-.646-.32-1.283-.658-1.953-.927-.656-.298-1.325-.572-1.968-.9l-1.883-1.064c-1.217-.778-2.53-1.38-3.74-2.17l-1.83-1.15-.907-.58-.93-.545c-2.46-1.49-4.982-2.897-7.305-4.604l-1.742-1.278-1.79-1.21c-1.167-.843-2.323-1.702-3.47-2.574l.615-.783z" fill="#E8EBF2"/><path d="M954.87 106.373c2.334 2.27 4.557 4.652 7.035 6.776 2.357 2.246 4.602 4.607 6.917 6.895 1.16 1.144 2.29 2.316 3.43 3.48 1.145 1.156 2.267 2.34 3.395 3.512 2.363 2.24 4.558 4.654 6.94 6.875l-.515.21.127-4.678c.02-.78-.027-1.562-.046-2.342-.028-.78 0-1.56 0-2.34l.034-4.68c.013-1.56-.015-3.12.036-4.68.053-1.56.155-3.118.15-4.68.03-1.56 0-3.12.086-4.678.032-.78.085-1.558.104-2.338l.023-2.34.003-4.68.996.018-.06 4.68-.028 2.34c-.006.78.033 1.56.033 2.34-.01 3.12-.22 6.238-.267 9.358-.052 1.56-.183 3.116-.17 4.676l-.004 4.68c-.013.78.017 1.562-.027 2.34-.062.78-.18 1.558-.155 2.338-.004.78.017 1.56.042 2.34l.046 2.343.032 1.602-1.095-1.17c-2.226-2.38-4.658-4.55-6.898-6.916-.6-.553-1.226-1.077-1.808-1.646-.57-.58-1.125-1.177-1.677-1.776l-.827-.9-.87-.858c-.59-.56-1.116-1.187-1.677-1.777-2.19-2.417-4.668-4.54-7.01-6.805-2.232-2.373-4.67-4.54-7-6.813l.7-.71zm-243.34-1.77l.273 4.686c.005 1.565.238 3.12.393 4.676.262 3.12.367 6.248.536 9.372.18 3.123.305 6.25.417 9.378.02 1.566.17 3.125.24 4.688.095 1.562.12 3.127.238 4.687l-.488-.175c2.23-2.49 4.683-4.77 6.8-7.368l6.776-7.39c1.138-1.225 2.347-2.38 3.487-3.603 1.14-1.222 2.26-2.462 3.418-3.668 2.414-2.32 4.584-4.865 6.85-7.323l.726.682-3.412 3.672-1.703 1.84-1.655 1.884c-1.136 1.226-2.312 2.414-3.482 3.607-1.172 1.192-2.303 2.423-3.482 3.607-.595.586-1.18 1.18-1.765 1.78-.582.6-1.128 1.232-1.694 1.847l-3.37 3.71c-2.55 2.19-4.433 5.01-6.86 7.314l-.986.938-.02-1.3c-.025-1.566-.216-3.122-.283-4.686-.054-.78-.07-1.563-.11-2.344-.017-.783-.122-1.56-.2-2.34-.1-.777-.11-1.56-.125-2.343l-.035-2.35c-.133-1.56-.114-3.128-.16-4.693-.09-3.13-.49-6.24-.68-9.363-.074-1.562-.078-3.13-.277-4.685l-.357-4.68.994-.063z" fill="#FFF"/><g transform="translate(411.985 -.475)"><mask id="h" fill="#fff"><use xlink:href="#g"/></mask><path d="M1.05.144l7.666 7.342C10 8.702 11.256 9.95 12.564 11.14l3.94 3.556 3.938 3.557c1.316 1.182 2.612 2.387 3.975 3.515l8.08 6.88c1.332 1.167 2.715 2.27 4.096 3.375l4.136 3.324 4.154 3.302c1.4 1.08 2.835 2.113 4.25 3.173l4.263 3.162 2.13 1.58c.706.535 1.423 1.052 2.153 1.55l8.714 6.057c11.69 7.965 23.733 15.407 36.084 22.303 12.4 6.807 25.134 13.006 38.154 18.54 26.017 11.128 53.268 19.313 81.04 24.745 27.8 5.31 56.158 7.784 84.467 7.227 14.15-.25 28.293-1.154 42.36-2.743 14.077-1.534 28.032-4.01 41.892-6.86 27.704-5.81 54.88-14.113 81.117-24.718 26.283-10.49 51.6-23.444 75.386-38.77l4.45-2.896c1.485-.956 2.93-1.98 4.396-2.968 2.94-1.967 5.808-4.04 8.68-6.104 5.683-4.21 11.3-8.517 16.69-13.1l2.035-1.7 1.994-1.75c1.324-1.173 2.668-2.323 3.97-3.516l3.884-3.612c1.3-1.198 2.53-2.468 3.8-3.698 5.01-4.984 9.814-10.178 14.267-15.66l.775.627c-4.488 5.51-9.323 10.72-14.36 15.72-1.276 1.234-2.514 2.507-3.82 3.71l-3.902 3.62c-1.31 1.195-2.66 2.35-3.986 3.526l-2.002 1.754-2.042 1.706c-10.863 9.135-22.377 17.465-34.238 25.246-2.956 1.963-5.986 3.808-8.994 5.686l-4.574 2.716c-1.524.906-3.045 1.818-4.596 2.678-3.09 1.745-6.162 3.516-9.298 5.172l-4.684 2.522-4.732 2.43c-12.635 6.44-25.538 12.363-38.705 17.63-13.165 5.272-26.586 9.88-40.133 14.058-13.56 4.144-27.304 7.692-41.182 10.61-13.863 3.022-27.932 4.937-42 6.684-14.082 1.636-28.245 2.688-42.43 2.92-56.715 1-113.738-9.653-165.878-32.053-13.008-5.635-25.805-11.76-38.255-18.547-12.408-6.86-24.487-14.31-36.22-22.27-11.708-8.01-22.863-16.776-33.88-25.693L23.8 22.48c-1.37-1.13-2.67-2.334-3.99-3.516l-3.952-3.557-3.953-3.556c-1.313-1.19-2.573-2.437-3.86-3.652L.35.853l.7-.71z" fill="#E8EBF2" mask="url(#h)"/></g><path d="M421.687 9.044c-1.152 3.268-2.49 6.47-3.45 9.81-1.14 3.274-2.41 6.5-3.607 9.753-.596 1.628-1.212 3.248-1.84 4.864-.615 1.62-1.24 3.238-1.882 4.85-.624 1.617-1.175 3.26-1.803 4.877-.622 1.618-1.242 3.236-1.796 4.88l-.403-.377 4.773-2.055c1.612-.64 3.113-1.53 4.714-2.195l9.472-4.277c1.595-.676 3.215-1.295 4.79-2.017 1.586-.696 3.153-1.435 4.756-2.092l2.408-.98c.79-.353 1.586-.695 2.372-1.06l4.727-2.162.397.913-4.75 2.112-2.373 1.055-2.347 1.116c-1.572.728-3.182 1.372-4.78 2.04-1.604.655-3.188 1.358-4.782 2.034-3.24 1.236-6.356 2.758-9.515 4.18-1.535.81-3.257 1.196-4.795 2.004-1.564.746-3.11 1.532-4.694 2.236l-1.392.62.547-1.414c.314-.81.667-1.602.96-2.418l.863-2.452c.302-.813.586-1.63.902-2.438.306-.81.647-1.61.892-2.44.472-1.674 1.153-3.27 1.82-4.873.35-.794.622-1.618.922-2.43l.987-2.408c1.326-3.21 2.31-6.538 3.47-9.805 1.31-3.212 2.323-6.533 3.5-9.792l.938.34z" fill="#FFF"/><path d="M451.762 35.187c-.7 3.393-1.58 6.748-2.084 10.184-.68 3.4-1.506 6.767-2.248 10.15-.367 1.695-.762 3.38-1.16 5.07-.39 1.69-.796 3.372-1.21 5.055-.205.842-.37 1.692-.55 2.54l-.57 2.535-.59 2.53-.52 2.548-.457-.318 4.34-2.734c1.456-.894 2.796-1.97 4.25-2.87l8.58-5.623c1.45-.905 2.936-1.755 4.357-2.706 1.44-.92 2.853-1.886 4.316-2.77l2.195-1.326 2.15-1.396 4.276-2.836.536.84-4.302 2.79-2.152 1.393-2.117 1.45c-1.42.956-2.89 1.83-4.343 2.727-1.465.883-2.9 1.814-4.35 2.717-2.968 1.707-5.777 3.66-8.635 5.536-.715.466-1.41.965-2.17 1.365-.767.386-1.494.835-2.197 1.323-1.413.963-2.802 1.964-4.227 2.91l-1.297.86.337-1.527c.187-.844.43-1.68.624-2.523l.524-2.545.555-2.538c.195-.844.42-1.68.564-2.536.155-.853.272-1.714.478-2.556l.65-2.52c.236-.834.41-1.683.59-2.53.196-.844.434-1.68.644-2.52.885-3.353 1.407-6.786 2.11-10.18.857-3.36 1.413-6.784 2.134-10.172l.974.21z" fill="#E8EBF2"/><path d="M662.613 124.387c1.4 3.092 2.656 6.247 4.24 9.255 1.43 3.078 2.71 6.223 4.085 9.325.688 1.55 1.34 3.117 2.003 4.68.675 1.557 1.31 3.13 1.963 4.698 1.432 3.077 2.657 6.245 4.115 9.31l-.548-.007 2.135-4.353c.346-.73.648-1.482.966-2.225.32-.743.68-1.467 1.018-2.2l2.053-4.394c.687-1.463 1.336-2.945 2.06-4.39.72-1.445 1.484-2.87 2.154-4.343.703-1.454 1.35-2.937 2.102-4.37.366-.72.752-1.43 1.104-2.157l1.03-2.194 2.027-4.405.898.433-2.074 4.382-1.036 2.19c-.343.73-.646 1.483-.983 2.217-1.353 2.934-2.892 5.78-4.284 8.697-.72 1.447-1.51 2.86-2.178 4.332l-2.026 4.404c-.344.73-.66 1.475-1.03 2.194-.38.712-.836 1.39-1.155 2.133-.34.735-.663 1.475-.976 2.22l-.97 2.226-.58 1.33-.544-1.347c-1.275-3.147-2.78-6.19-4.065-9.333-.36-.768-.77-1.515-1.12-2.287-.34-.776-.644-1.57-.957-2.358l-.462-1.187c-.162-.393-.342-.777-.512-1.165-.364-.767-.635-1.575-.957-2.36-1.206-3.176-2.793-6.184-4.202-9.27-1.268-3.15-2.797-6.184-4.194-9.276l.91-.407z" fill="#FFF"/><path d="M620.45 117.99l.894 4.653c.216 1.566.655 3.09 1.017 4.627.673 3.087 1.19 6.203 1.777 9.306.593 3.102 1.132 6.214 1.656 9.33.23 1.563.6 3.1.87 4.656.3 1.55.527 3.115.86 4.658l-.505-.117c1.946-2.713 4.097-5.27 5.916-8.08l5.89-8.095c.995-1.34 2.063-2.624 3.053-3.968.994-1.34 1.964-2.698 2.98-4.022 2.132-2.574 3.995-5.346 5.965-8.04l.808.586-2.972 4.03-1.484 2.018-1.43 2.056c-.986 1.347-2.02 2.658-3.048 3.976l-3.047 3.975c-1.057 1.293-2.07 2.62-3.03 3.987l-2.93 4.063c-.462.697-1.057 1.295-1.59 1.938-.512.66-.99 1.345-1.457 2.037l-1.42 2.067c-.46.698-.973 1.357-1.506 2l-.873 1.05-.18-1.293c-.214-1.57-.62-3.1-.896-4.654-.32-1.546-.5-3.12-.925-4.646-.21-.762-.33-1.543-.447-2.324l-.346-2.346c-.133-.78-.328-1.545-.43-2.33l-.356-2.343c-.497-3.12-1.308-6.18-1.915-9.278-.286-1.556-.495-3.124-.9-4.653l-.977-4.635.977-.192z" fill="#E8EBF2"/><path d="M924.524 74.884c1.205 1.048 2.43 2.073 3.65 3.106 1.18 1.084 2.514 1.975 3.804 2.917 2.553 1.92 5.056 3.907 7.646 5.78 2.594 1.864 5.2 3.713 7.852 5.502.66.445 1.33.885 2.012 1.302.687.408 1.37.82 2.048 1.246 1.374.815 2.72 1.68 4.14 2.42l-.425.267c-.243-3.37-.124-6.745-.33-10.116-.026-3.373.016-6.744.04-10.11.04-1.685.16-3.366.18-5.048.025-1.683.008-3.364.04-5.045.18-3.362-.046-6.723-.268-10.068l.996-.058.135 2.532.092 2.532.054 2.533.09 2.53c.01 1.69-.056 3.376-.12 5.06l-.17 5.05c-.107 1.684-.17 3.366-.15 5.05l.028 5.043c.015.42.01.84-.01 1.26-.032.42-.077.84-.095 1.26-.014.84.036 1.68.08 2.52l.177 2.51c.083.837.124 1.673.114 2.514l-.012 1.105-.867-.55c-.68-.432-1.38-.826-2.088-1.21-.7-.396-1.402-.788-2.09-1.202-1.396-.802-2.688-1.767-4.114-2.52-1.408-.78-2.667-1.795-3.968-2.737-.648-.475-1.335-.892-1.97-1.385l-1.91-1.468c-2.547-1.955-5.24-3.71-7.77-5.69-1.25-1.01-2.437-2.09-3.744-3.03-1.26-.992-2.49-2.023-3.724-3.053l.654-.753z" fill="#FFF"/><g fill="#E8EBF2"><path d="M964.257 51.684c9.014 7.813 19.077 14.784 29.908 20.72l-2.274-40.4"/><path d="M964.746 51.12c1.14.992 2.3 1.963 3.456 2.937.562.506 1.112 1.03 1.748 1.446l1.89 1.263c1.246.86 2.444 1.776 3.643 2.696 1.207.908 2.41 1.823 3.642 2.7 2.478 1.732 4.954 3.47 7.476 5.148.63.425 1.255.852 1.893 1.26l1.96 1.146 3.907 2.326h.003l-.607.384c-.09-.84-.125-1.68-.19-2.522l-.102-2.528-.123-2.526c-.022-.842-.204-1.677-.295-2.516-.297-3.36-.48-6.727-.776-10.088-.14-1.68-.094-3.372-.18-5.056l-.338-5.047c.08-3.38-.36-6.734-.606-10.098l1.493-.083c.255 3.362.347 6.735.79 10.087.084 1.682.13 3.37.165 5.054.05 1.686.183 3.368.18 5.056-.074 3.383.527 6.726.674 10.096.012.843-.166 1.697-.04 2.535.065.84.17 1.68.283 2.518.225 1.677.43 3.354.305 5.05l-.112 1.5-1.117-.726h-.004l-2.017-1.084c-.67-.368-1.324-.76-1.986-1.14l-1.937-1.217c-.652-.4-1.36-.703-2.025-1.077-1.324-.763-2.47-1.81-3.74-2.65-.322-.203-.648-.4-.958-.623l-.91-.697c-.607-.465-1.19-.96-1.804-1.41-2.438-1.826-5.09-3.362-7.486-5.253-1.18-.97-2.277-2.032-3.572-2.857-1.205-.935-2.384-1.903-3.56-2.875l.978-1.13z"/></g><path d="M858.75 102.712l3.322 3.864c1.044 1.343 2.263 2.534 3.42 3.78 2.272 2.526 4.43 5.152 6.637 7.734 2.213 2.577 4.384 5.19 6.543 7.814 1.055 1.335 2.223 2.57 3.307 3.88 1.112 1.284 2.162 2.622 3.303 3.882l-.5.15c.408-3.55 1.047-7.073 1.297-10.644l1.266-10.65c.23-1.77.546-3.532.765-5.305.23-1.773.424-3.55.678-5.32.63-3.52.928-7.087 1.36-10.635l.987.13-.663 5.32-.33 2.66-.263 2.67c-.215 1.773-.493 3.54-.757 5.307l-.756 5.306c-.3 1.763-.556 3.532-.737 5.31l-.61 5.327c-.045.445-.11.887-.188 1.327-.09.44-.196.877-.272 1.318-.14.883-.22 1.773-.302 2.663l-.248 2.674c-.072.89-.188 1.777-.352 2.657l-.25 1.336-.79-1.023c-1.04-1.347-2.23-2.562-3.323-3.863-1.132-1.268-2.138-2.644-3.346-3.845-.603-.602-1.137-1.263-1.667-1.927l-1.585-1.998c-.537-.66-1.127-1.27-1.646-1.945l-1.593-1.992c-2.14-2.643-4.52-5.075-6.747-7.64-1.096-1.297-2.135-2.645-3.325-3.862l-3.39-3.804.754-.653z" fill="#E8EBF2"/><g fill="#E8EBF2"><path d="M558.038 98.786l1.667 38.968 27.813-28.186"/><path d="M558.785 98.754c.057 1.624.146 3.247.176 4.872-.094 1.63.255 3.243.39 4.864.244 3.243.21 6.497.33 9.745l.078 2.437.032 2.438c.025 1.626.05 3.25.037 4.878-.007 1.628.15 3.247.157 4.874.025 1.626.034 3.25.162 4.873l-.756-.292c1.132-1.2 2.35-2.316 3.502-3.498.582-.584 1.184-1.15 1.7-1.8.51-.656 1.078-1.254 1.647-1.85l6.82-7.178c1.174-1.158 2.42-2.248 3.553-3.447 1.153-1.18 2.273-2.393 3.455-3.545.604-.56 1.233-1.1 1.817-1.683.572-.594 1.158-1.175 1.717-1.783l3.383-3.618 1.064 1.05-3.447 3.553-1.717 1.783-1.64 1.857c-1.143 1.19-2.344 2.323-3.54 3.463-1.2 1.132-2.344 2.32-3.534 3.465-2.524 2.145-4.637 4.696-6.916 7.083l-.86.89c-.29.292-.63.538-.954.797-.68.49-1.19 1.143-1.76 1.74-1.088 1.244-2.112 2.552-3.312 3.686l-1.738 1.643.138-2.26c.1-1.63-.065-3.25-.14-4.875-.025-.812-.083-1.623-.072-2.437-.007-.812-.01-1.625-.11-2.434-.28-1.615-.164-3.247-.11-4.876.058-.815-.068-1.623-.062-2.437l.067-2.443c.05-1.628-.065-3.25-.196-4.87-.123-1.623-.276-3.242-.363-4.865-.06-1.624.078-3.257-.174-4.873-.134-1.62-.21-3.244-.318-4.866l1.493-.064z"/></g><path d="M531.074 87.458c-1.26 1.084-2.507 2.184-3.778 3.256-1.314 1.024-2.47 2.23-3.69 3.36-2.472 2.226-5.042 4.338-7.564 6.505-1.26 1.084-2.527 2.16-3.808 3.223-1.276 1.067-2.546 2.14-3.838 3.187-1.298 1.044-2.506 2.188-3.79 3.247-1.262 1.08-2.562 2.12-3.79 3.244l-.496.458.016-.688c.036-1.71.176-3.417.243-5.126.036-.854.096-1.707.08-2.564.002-.856-.015-1.713.026-2.566l.32-10.256c.085-1.708.242-3.413.297-5.123.07-1.708.102-3.418.207-5.126l.183-2.56c.03-.856.075-1.71.093-2.565l.136-5.13.996.045-.192 5.127-.096 2.563-.027 2.567c-.048 1.71-.173 3.416-.278 5.123l-.28 5.123c-.314 3.41-.293 6.834-.415 10.252-.007.856-.072 1.708-.196 2.56-.1.85-.087 1.706-.105 2.562l-.01 2.567c-.005.855.004 1.712-.083 2.564l-1.014-.49c1.323-1.013 2.53-2.158 3.788-3.246 1.234-1.116 2.583-2.098 3.768-3.27 1.18-1.177 2.522-2.168 3.82-3.21.658-.508 1.255-1.09 1.902-1.612l1.952-1.556c2.596-2.083 4.97-4.422 7.47-6.614 1.267-1.078 2.59-2.09 3.78-3.258 1.227-1.122 2.478-2.217 3.717-3.326l.653.752z" fill="#FFF"/><g><path fill="#F4F7F9" d="M838.36 575.882h118.49V463.195H838.36"/><path d="M956.137 575.167l-.358-56.073-.04-13.973.08-13.95.06-13.98-.015-13.995.987.987-118.493.096 1.08-1.082.155 28.173c.01 9.39.135 18.78 0 28.17l-.288 28.17-.076 7.045.057 7.043c.037 2.347.02 4.695-.004 7.042l-.054 7.042-.87-.87 29.495.206 14.71-.1c4.9-.036 9.776-.11 14.69-.084l58.88.133zm1.432 1.432l-59.503.397-29.857.084-29.85-.095-1.112-.004.01-1.1c.033-4.694 0-9.39.09-14.084l.108-7.043.015-7.043.048-28.17c-.012-9.392.106-18.783.167-28.173l.15-28.173.002-.528.524.002c9.875.018 19.75-.057 29.624-.08l29.623-.108 59.247-.255.965-.005.003.974.058 14.18-.04 14.18-.2 28.31c-.044 4.708-.033 9.44-.03 14.17l-.004 14.19-.036 28.375z" fill="#E0E3ED"/><path d="M863.404 536.298c-1.582-.068-3.126-.637-4.37-1.542-1.243-.914-2.246-2.09-2.972-3.405-.72-1.315-1.196-2.763-1.374-4.267-.15-1.52-.012-2.984.303-4.422.667-2.863 2.048-5.425 3.63-7.745 1.6-2.312 3.37-4.46 5.3-6.48 1.926-2.018 4-3.9 6.21-5.605 1.1-.854 2.24-1.667 3.4-2.437 1.162-.77 2.33-1.488 3.467-2.22 2.266-1.458 4.443-3.007 6.077-4.943 1.602-1.927 2.7-4.356 2.696-6.736-.002-.593-.092-1.17-.228-1.735-.178-.57-.355-1.066-.68-1.52-.61-.913-1.568-1.66-2.627-2.082-.527-.23-1.088-.333-1.634-.397-.55-.036-1.08.03-1.572.17-.475.18-.91.425-1.27.775-.348.36-.62.786-.8 1.266-.69 1.97.326 4.64 2.117 5.86.428.316.987.57 1.528.754.548.192 1.13.308 1.725.358 1.19.117 2.433-.023 3.636-.342 1.205-.32 2.382-.8 3.452-1.477.565-.284 1.06-.686 1.57-1.06l.383-.28c.12-.1.233-.215.35-.32l.7-.648c1.824-1.775 3.22-4.004 4.116-6.41 1.813-4.794 1.678-10.416-.89-14.798l2.052.086c-.772 1.064-1.787 1.964-2.923 2.602-1.135.65-2.372 1.032-3.592 1.235-2.453.424-4.86.24-7.18-.108-1.16-.185-2.306-.41-3.434-.678-1.114-.262-2.26-.534-3.42-.955-1.15-.424-2.33-1.01-3.316-1.915-1.01-.895-1.748-2.077-2.158-3.327-.82-2.523-.467-5.2.602-7.485.544-1.146 1.29-2.208 2.238-3.09.955-.88 2.022-1.535 3.172-2.04 2.303-1 4.816-1.25 7.22-1.04 1.205.107 2.394.334 3.55.665.582.166 1.146.36 1.715.582.58.232 1.135.505 1.672.81 1.07.612 2.057 1.36 2.93 2.243.867.884 1.634 1.906 2.162 3.1.527 1.186.75 2.608.447 3.962-.293 1.34-1.045 2.57-2.09 3.414-1.035.852-2.247 1.35-3.454 1.64-1.215.28-2.443.364-3.66.296-2.387-.168-4.734-.744-6.903-1.713-2.17-.964-4.16-2.288-5.93-3.837-1.768-1.557-3.296-3.355-4.627-5.275-2.67-3.843-4.472-8.25-5.29-12.87-.378-2.31-.48-4.715-.024-7.09.44-2.362 1.563-4.686 3.36-6.393 1.783-1.713 4.09-2.762 6.454-3.206 2.37-.45 4.842-.294 7.14.407 2.29.697 4.405 1.868 6.258 3.318 1.854 1.456 3.473 3.167 4.896 5.008 2.83 3.69 4.95 7.907 6.223 12.363 1.277 4.46 1.754 9.123 1.298 13.77-.15 1.173-.435 2.4-1.137 3.488-.69 1.092-1.9 1.884-3.157 2.11-1.26.248-2.54.06-3.69-.402-1.162-.46-2.16-1.262-2.944-2.167-1.584-1.842-2.47-4.053-3.265-6.18-.83-2.137-1.51-4.33-2.12-6.54-.27-1.114-.583-2.218-.79-3.347l-.34-1.688-.264-1.702-.132-.85-.09-.858-.174-1.714c-.044-.573-.058-1.15-.087-1.723-.023-.575-.064-1.148-.04-1.725 0-4.586.7-9.278 2.736-13.48l.37-.788.188-.393.226-.374.912-1.49c.28-.512.688-.936 1.032-1.404.37-.454.695-.93 1.102-1.363 1.603-1.737 3.637-3.094 5.922-3.804 1.138-.35 2.34-.55 3.55-.504 1.208.035 2.406.302 3.52.747 2.233.915 4.087 2.47 5.647 4.19 3.07 3.485 5.475 7.492 7.116 11.824.817 2.166 1.436 4.41 1.82 6.696.373 2.29.51 4.62.377 6.944-.26 4.647-1.648 9.228-4.04 13.236-1.195 2.003-2.645 3.865-4.35 5.474-.432.395-.848.808-1.315 1.166-.452.367-.905.748-1.42 1.078-1.012.664-2.123 1.192-3.352 1.472-.616.132-1.264.197-1.928.133-.66-.057-1.343-.27-1.927-.647-.58-.373-1.07-.875-1.424-1.473-.357-.598-.528-1.272-.596-1.92-.13-1.31.15-2.53.517-3.67.374-1.143.912-2.216 1.422-3.22 2.072-4.088 4.35-8.054 6.942-11.86 2.617-3.77 5.7-7.384 9.683-9.95 3.94-2.595 8.916-3.803 13.653-2.944 1.18.223 2.356.54 3.462 1.048.567.22 1.09.544 1.624.836.26.16.506.343.76.515l.377.26.35.3c.977.758 1.74 1.745 2.454 2.695.338.5.658 1.017.958 1.545.253.556.566 1.083.745 1.675.462 1.14.653 2.382.747 3.608.05 1.236-.088 2.466-.363 3.654-.596 2.365-1.717 4.527-3.084 6.446-2.758 3.847-6.316 6.926-10.095 9.586-1.893 1.332-3.874 2.534-5.927 3.613-1.03.533-2.07 1.05-3.148 1.504-1.09.46-2.223.86-3.376 1.153-1.158.284-2.337.492-3.538.586-1.203.076-2.426.045-3.647-.16-1.22-.198-2.44-.634-3.537-1.32-1.096-.69-2.024-1.673-2.664-2.8l-.34-.598.44-.516c1.687-1.974 3.996-3.35 6.446-4 2.46-.62 5.045-.64 7.494-.06 2.434.61 4.772 1.764 6.618 3.53 1.82 1.786 3.113 4.046 3.78 6.465 1.322 4.85.405 10.15-2.353 14.31-.378.5-.706 1.035-1.14 1.488l-.62.703c-.225.224-.45.454-.69.664-.957.84-2.034 1.53-3.208 2.043-1.173.506-2.467.814-3.815.78-1.343-.026-2.742-.55-3.783-1.475l-.347-.308.076-.455c.134-.824.51-1.623 1.073-2.237.554-.626 1.265-1.048 1.994-1.32 1.464-.553 3.048-.566 4.52-.114.73.242 1.456.573 2.063 1.105.588.5 1.084 1.058 1.503 1.68.833 1.244 1.322 2.642 1.614 4.032.576 2.804.415 5.57.306 8.254-.13 2.698-.33 5.36-.307 7.993.015 2.632.275 5.228 1.03 7.688.743 2.446 1.933 4.77 3.713 6.51.89.877 1.88 1.58 3 2.06 1.116.487 2.33.767 3.548.823 2.43.107 4.897-.77 6.313-2.608l1.6 1.242c-.943 1.214-2.24 2.13-3.637 2.676-1.4.554-2.897.767-4.364.71-1.47-.07-2.92-.404-4.27-.992-1.354-.58-2.592-1.466-3.612-2.48-2.083-2.046-3.406-4.68-4.22-7.362-.825-2.696-1.097-5.515-1.11-8.25-.024-2.747.182-5.45.31-8.11.116-2.66.247-5.308-.26-7.745-.255-1.215-.673-2.363-1.317-3.323-.315-.477-.714-.913-1.124-1.263-.377-.34-.875-.56-1.38-.733-1.03-.322-2.23-.305-3.21.076-1.02.36-1.654 1.105-1.807 1.99l-.363-1.015c.692.595 1.554.94 2.523.966.965.023 1.992-.2 2.956-.62.963-.42 1.877-1.006 2.672-1.705.2-.175.382-.36.57-.548l.54-.616c.38-.392.66-.87.994-1.302 1.218-1.825 2.004-3.942 2.38-6.115.364-2.18.24-4.43-.328-6.537-.582-2.1-1.718-4.036-3.24-5.527-1.55-1.476-3.558-2.468-5.668-3.004-2.125-.51-4.38-.487-6.483.04-2.098.554-4.005 1.706-5.397 3.318l.11-1.207c.94 1.695 2.71 2.77 4.755 3.107 1.017.172 2.078.206 3.143.142 1.066-.083 2.132-.267 3.183-.524 1.053-.263 2.07-.62 3.078-1.043 1.02-.427 2.02-.92 3.01-1.43 1.975-1.033 3.895-2.19 5.724-3.47 3.653-2.554 7.075-5.524 9.634-9.083 1.27-1.773 2.27-3.725 2.793-5.768.24-1.026.354-2.068.317-3.103-.083-1.028-.228-2.063-.625-3.03-.143-.5-.42-.955-.632-1.432-.26-.457-.536-.91-.83-1.348-.65-.86-1.28-1.69-2.105-2.328l-.294-.256-.322-.222c-.216-.146-.424-.303-.645-.442-.46-.247-.902-.53-1.396-.72-.952-.444-1.984-.72-3.026-.922-1.045-.202-2.12-.25-3.19-.245-1.07.056-2.146.142-3.193.393-2.115.426-4.077 1.337-5.923 2.498-3.68 2.357-6.635 5.766-9.184 9.423-2.53 3.693-4.802 7.62-6.844 11.628-.523 1.02-1 1.972-1.33 2.974-.327.99-.538 2.016-.442 2.923.07.91.508 1.63 1.196 2.073.66.444 1.59.487 2.533.286.946-.212 1.902-.65 2.765-1.22.43-.27.843-.617 1.268-.963.434-.33.82-.715 1.223-1.08 1.584-1.49 2.94-3.225 4.064-5.1 2.25-3.75 3.572-8.07 3.822-12.444.13-2.187.005-4.395-.343-6.568-.36-2.172-.946-4.31-1.722-6.376-1.546-4.125-3.88-8.02-6.767-11.305-1.453-1.61-3.136-2.997-5.038-3.778-1.897-.78-3.996-.84-5.974-.21-1.975.606-3.793 1.807-5.215 3.345-.36.377-.674.84-1.015 1.256-.32.437-.705.828-.965 1.308l-.853 1.386-.213.347-.177.37-.35.737c-1.914 3.92-2.597 8.374-2.606 12.788-.023.552.023 1.107.05 1.66.03.554.047 1.11.093 1.662l.182 1.658.092.828.134.825.268 1.65.342 1.637c.21 1.096.523 2.17.793 3.252.613 2.148 1.29 4.282 2.115 6.36.792 2.097 1.662 4.123 2.988 5.63.33.374.69.71 1.075.998.37.277.776.5 1.21.672.862.343 1.827.464 2.667.285.85-.177 1.51-.62 1.973-1.334.46-.714.71-1.676.826-2.705.388-4.298-.09-8.796-1.335-12.992-1.24-4.214-3.28-8.19-5.97-11.643-2.68-3.423-6.114-6.327-10.13-7.58-1.975-.616-4.107-.763-6.145-.385-2.03.37-3.965 1.254-5.42 2.638-1.457 1.37-2.408 3.26-2.8 5.306-.41 2.05-.34 4.232 0 6.377.173 1.073.4 2.146.724 3.196.283 1.06.667 2.09 1.06 3.116.815 2.042 1.873 3.987 3.105 5.806 1.24 1.812 2.66 3.508 4.294 4.966 1.635 1.45 3.46 2.68 5.437 3.574 1.974.893 4.1 1.458 6.263 1.56 2.09.086 4.322-.343 5.794-1.593.733-.61 1.208-1.457 1.396-2.354.185-.895.033-1.852-.368-2.754-.807-1.817-2.422-3.372-4.236-4.42-.46-.26-.93-.494-1.414-.69-.496-.196-1.01-.375-1.53-.524-1.038-.3-2.103-.508-3.175-.606-2.14-.195-4.332.032-6.267.868-.96.413-1.876.982-2.624 1.67-.75.692-1.36 1.55-1.81 2.488-.893 1.87-1.166 4.107-.528 6.047.316.963.863 1.835 1.61 2.5.74.684 1.68 1.17 2.688 1.542 1.01.37 2.094.633 3.196.894 1.09.26 2.19.478 3.288.655 2.194.335 4.43.492 6.556.125 2.133-.32 4.08-1.367 5.3-3.062l.608-.846.53.894c1.456 2.46 2.24 5.284 2.393 8.115.156 2.837-.298 5.693-1.28 8.354-.98 2.662-2.5 5.148-4.54 7.164l-.784.736c-.132.12-.258.25-.396.363l-.43.325c-.577.43-1.138.883-1.78 1.22-1.216.772-2.564 1.34-3.966 1.723-1.4.378-2.882.57-4.374.428-.745-.065-1.49-.214-2.21-.465-.723-.25-1.41-.56-2.06-1.024-1.302-.908-2.234-2.22-2.765-3.666-.53-1.44-.655-3.09-.127-4.644.28-.77.73-1.483 1.313-2.068.593-.58 1.328-1.006 2.105-1.28.787-.232 1.597-.316 2.386-.26.78.083 1.553.242 2.264.547.712.295 1.392.672 1.993 1.163.616.468 1.147 1.055 1.59 1.706.9 1.352 1.236 2.893 1.256 4.41-.004 1.52-.34 3.004-.916 4.357-.562 1.363-1.35 2.607-2.28 3.73-1.89 2.23-4.24 3.86-6.556 5.352-2.34 1.48-4.61 2.886-6.728 4.547-2.13 1.64-4.125 3.45-5.984 5.39-1.854 1.935-3.577 4.027-5.096 6.215-1.5 2.19-2.75 4.547-3.33 7.04-.274 1.237-.386 2.534-.267 3.745.144 1.22.536 2.423 1.128 3.508.597 1.083 1.418 2.032 2.38 2.743.97.704 2.1 1.107 3.254 1.165l-.072 2.024z" fill="#E0E3ED"/><path fill="#F4F7F9" d="M909.748 575.882h90.68v-60.718h-90.68"/><path d="M999.71 575.167l-.344-30.083-.083-14.958.142-14.962 1.002 1.002c-7.557-.05-15.113 0-22.67-.006l-22.67.023-45.34.063 1.083-1.082.137 15.18.083 15.18c-.027 5.06-.123 10.12-.182 15.18-.076 5.06-.204 10.12-.238 15.178l-.882-.882 5.624-.07 5.63.065 11.272.136c3.757.028 7.53.106 11.28.09l11.208-.123c3.717-.068 7.475-.03 11.218-.03l11.24.025 22.49.077zm1.433 1.432l-45.587.41-11.454.044-11.466-.03-11.453-.055-5.72-.035-5.715-.133-.93-.02.01-.9c.05-5.06.036-10.12.057-15.18l.047-15.18.18-15.18.11-15.18.004-.526h.522c7.557.013 15.114-.068 22.67-.098l22.67-.127 22.67-.152c7.556-.038 15.112-.134 22.67-.123h1.027v1.027c-.008 5.12-.073 10.242-.138 15.35-.03 5.118-.125 10.206-.11 15.333l-.064 30.752z" fill="#E0E3ED"/><path d="M944.012 549.104c-1.778.812-3.947.756-5.63-.076-.877-.365-1.62-.93-2.326-1.516-.66-.633-1.29-1.304-1.774-2.08-.517-.754-.89-1.598-1.203-2.464-.257-.887-.473-1.803-.448-2.755-.014-1.856.476-3.614 1.22-5.233 1.53-3.235 4.026-5.745 6.66-7.86 2.667-2.103 5.474-3.822 7.995-5.8 1.26-.984 2.432-2.04 3.477-3.185 1.027-1.155 1.928-2.41 2.534-3.765.615-1.364.893-2.754.824-4.256-.055-1.492-.37-3.095-.693-4.666-.664-3.132-1.61-6.206-3.11-8.96-.75-1.373-1.635-2.66-2.674-3.798-1.038-1.13-2.234-2.143-3.533-2.855-2.632-1.44-5.867-1.908-8.8-1.257-1.47.306-2.872.916-4.01 1.85-1.156.92-1.974 2.212-2.425 3.627-.453 1.412-.498 2.947-.213 4.442.282 1.498.874 2.956 1.652 4.31 1.567 2.72 3.86 5.032 6.53 6.723 5.39 3.438 11.867 5.212 18.306 4.95 6.46-.19 12.694-2.814 17.937-6.59 1.31-.95 2.52-2.03 3.598-3.22 1.077-1.19 2.007-2.504 2.676-3.932.65-1.435 1.04-2.967.96-4.537-.038-1.55-.355-3.116-1.08-4.495-1.407-2.76-4.115-4.86-7.168-5.34-1.518-.235-3.08-.064-4.514.464l-.536.207c-.18.062-.357.14-.52.246l-1 .574c-.65.432-1.257.93-1.826 1.466-2.268 2.185-3.818 5.07-4.91 8.08-1.093 3.026-1.773 6.204-1.942 9.403-.17 3.196.186 6.417 1.15 9.44.962 3.015 2.553 5.833 4.652 8.182 2.09 2.348 4.728 4.222 7.628 5.285 1.45.497 2.978.794 4.495.814.758.013 1.514-.042 2.244-.193.732-.133 1.44-.36 2.093-.68.664-.303 1.263-.717 1.79-1.204.55-.473.986-1.035 1.222-1.602.24-.578.22-1.108-.007-1.563-.243-.462-.77-.855-1.372-1.083-.61-.22-1.3-.267-1.903-.124-.625.137-1.067.48-1.47 1.026-.774 1.048-.88 2.603-.48 3.98.202.692.524 1.353.948 1.925.446.586.985 1.115 1.588 1.58 1.217.92 2.66 1.59 4.155 2.173 1.5.582 3.083 1.092 4.644 1.772 1.55.688 3.13 1.52 4.4 2.84 1.292 1.288 2.166 2.95 2.6 4.682.44 1.737.473 3.55.154 5.296-.32 1.746-.994 3.44-2.043 4.91-1.043 1.472-2.495 2.705-4.2 3.425l-.778-1.87c2.697-1.125 4.522-3.896 5.04-6.84.553-2.936-.152-6.17-2.2-8.195-.47-.53-1.096-.966-1.73-1.365-.642-.396-1.33-.743-2.053-1.056-1.442-.63-2.99-1.132-4.57-1.746-1.572-.62-3.176-1.35-4.63-2.45-.72-.552-1.396-1.197-1.968-1.943-.59-.78-1.018-1.652-1.292-2.57-.277-.92-.385-1.897-.288-2.884.093-.983.412-1.996 1.03-2.853.298-.437.66-.802 1.13-1.156.228-.17.483-.292.73-.422.257-.093.513-.215.776-.265 1.053-.26 2.117-.17 3.093.174.962.36 1.915.992 2.494 2.03.27.522.447 1.12.434 1.708.02.585-.122 1.128-.32 1.62-.405.98-1.042 1.737-1.734 2.347-.684.63-1.465 1.16-2.3 1.542-.83.398-1.705.674-2.59.834-.883.177-1.776.24-2.66.22-1.77-.03-3.504-.38-5.156-.957-3.272-1.222-6.134-3.303-8.407-5.88-2.274-2.575-3.975-5.632-5-8.906-1.02-3.27-1.375-6.72-1.177-10.11.2-3.394.938-6.736 2.105-9.913 1.175-3.165 2.835-6.28 5.388-8.72.642-.6 1.33-1.157 2.07-1.646l1.175-.67c.19-.12.398-.21.613-.285l.636-.245c1.703-.62 3.576-.812 5.375-.522 3.62.592 6.748 3.055 8.37 6.275.83 1.61 1.198 3.428 1.23 5.214.017.892-.043 1.81-.255 2.694-.207.882-.507 1.733-.878 2.542-1.538 3.24-4.092 5.687-6.765 7.76-2.712 2.06-5.69 3.704-8.833 4.987-3.15 1.302-6.565 2.035-9.97 2.23-6.812.38-13.805-1.31-19.52-5.126-2.903-1.886-5.405-4.435-7.11-7.48-.847-1.525-1.502-3.183-1.81-4.94-.31-1.75-.244-3.617.332-5.34.567-1.716 1.61-3.27 2.965-4.47 1.36-1.194 3.023-1.988 4.74-2.413 3.467-.77 7.12-.2 10.195 1.482 3.072 1.747 5.336 4.475 6.955 7.45 1.626 2.986 2.58 6.237 3.3 9.49.35 1.63.703 3.254.792 4.993.104 1.733-.23 3.563-.935 5.162-.696 1.616-1.702 3.048-2.822 4.346-1.135 1.29-2.427 2.41-3.75 3.446-2.65 2.063-5.475 3.787-7.996 5.77-2.495 1.986-4.77 4.318-6.082 7.097-.64 1.376-1.05 2.885-1.036 4.347-.028.713.15 1.428.34 2.127.252.686.544 1.368.966 1.977.386.632.9 1.17 1.425 1.68.563.46 1.145.914 1.8 1.18 1.286.63 2.71.623 3.94.09l.848 1.84z" fill="#E0E3ED"/><path d="M957.793 514.382c-.14 5.13-.03 10.26-.36 15.382l-.077 1.923c-.022.32-.09.64-.134.96-.036.32-.035.642-.043.963l-.048 3.85c.035 2.563-.276 5.134-.223 7.702.14 5.134.605 10.256 1.042 15.368.112 1.28.274 2.553.298 3.837.035 1.283.037 2.568.093 3.85.193 2.56.463 5.112.804 7.656l-2.017.185c-.285-2.56-.563-5.124-.8-7.69-.115-1.285-.116-2.577-.123-3.868.004-1.29-.12-2.574-.195-3.86-.323-5.142-.533-10.292-.697-15.443-.046-1.288-.17-2.574-.25-3.862-.073-1.288-.088-2.577-.027-3.867.075-1.29.265-2.578.335-3.865.025-.323.06-.645.047-.966-.023-.322-.078-.645-.07-.967.03-.643.057-1.287.11-1.93.12-1.287.23-2.572.243-3.86.012-.643-.048-1.288-.1-1.934-.046-.645-.055-1.29-.044-1.933.05-2.576.055-5.154.21-7.727l2.022.096zm-56.078-51.212c1.14 9.326 1.783 18.733 1.49 28.115l-.095 3.516c-.042.587-.087 1.17-.15 1.757-.046.586-.055 1.17-.072 1.756-.065 2.34-.153 4.682-.256 7.02-.174 4.68-.727 9.337-.987 14.006-.424 9.342-.82 18.682-1.185 28.026-.097 2.335-.163 4.673-.355 7.003l-.574 6.99c-.18 2.33-.234 4.67-.36 7.003-.112 2.334-.214 4.67-.287 7.006l-2.02-.12c.223-4.67.41-9.34.666-14.007.075-1.167.113-2.335.22-3.5l.312-3.493c.22-2.33.325-4.664.458-6.998.507-9.335 1.065-18.67 1.53-28.002.17-4.67.163-9.34.49-13.995l.284-3.49c.108-1.164.2-2.327.26-3.492.035-.583.078-1.166.076-1.748-.012-.584-.062-1.168-.053-1.75l.138-3.496.113-3.5c.014-1.166.02-2.33-.006-3.498-.017-1.165-.145-2.328-.242-3.49-.09-1.163-.175-2.325-.234-3.487-.25-4.65-.693-9.284-1.172-13.91l2.013-.226z" fill="#E0E3ED"/><path fill="#F4F7F9" d="M366.06 582.897h95.24v-90.57h-95.24"/><path d="M460.582 582.18l-.358-45.013-.037-11.208.08-11.19.058-11.212-.014-11.234.99.986-95.238.096 1.084-1.082.154 22.643c.01 7.547.135 15.094 0 22.642l-.288 22.64-.076 5.66.057 5.66c.037 1.89.02 3.777-.004 5.664l-.055 5.66-.87-.87 23.68.206 11.805-.1c3.93-.037 7.838-.11 11.78-.085l47.255.133zm1.432 1.433l-47.872.4-24.042.084-24.04-.097-1.112-.004.01-1.1c.035-3.773.002-7.546.093-11.32l.11-5.66.014-5.662.047-22.642c-.012-7.548.106-15.095.167-22.643l.15-22.645.002-.528.522.002c7.938.017 15.875-.058 23.81-.08l23.81-.11 47.618-.255.964-.005.005.976.06 11.416-.043 11.415-.2 22.78c-.044 3.787-.033 7.597-.032 11.404l-.002 11.427-.036 22.847z" fill="#E0E3ED"/><path d="M386.183 551.28c-1.312-.055-2.595-.53-3.623-1.275-1.027-.754-1.85-1.723-2.448-2.8-.59-1.084-.982-2.27-1.13-3.507-.123-1.253-.01-2.448.246-3.623.542-2.34 1.665-4.42 2.944-6.3 1.296-1.87 2.722-3.603 4.278-5.237 1.556-1.63 3.227-3.15 5.012-4.528 1.77-1.393 3.71-2.598 5.534-3.756 1.816-1.17 3.547-2.406 4.832-3.93 1.26-1.518 2.117-3.43 2.112-5.27-.008-.904-.24-1.83-.693-2.488-.462-.692-1.198-1.265-2.008-1.588-.406-.176-.833-.252-1.247-.3-.416-.028-.81.023-1.175.124-.35.133-.665.312-.93.57-.254.264-.453.574-.585.928-.52 1.452.26 3.525 1.616 4.437 1.42.978 3.464 1.09 5.34.58.946-.25 1.87-.628 2.714-1.16.868-.487 1.645-1.128 2.368-1.82 1.44-1.4 2.542-3.162 3.25-5.067 1.437-3.794 1.325-8.24-.695-11.687l2.05.086c-.64.882-1.486 1.63-2.427 2.16-.94.536-1.96.85-2.962 1.016-2.013.346-3.968.194-5.847-.09-.937-.15-1.864-.332-2.775-.548-.896-.213-1.825-.434-2.774-.78-.94-.345-1.916-.83-2.74-1.583-.84-.746-1.455-1.734-1.795-2.772-.68-2.095-.385-4.298.497-6.182.45-.943 1.066-1.82 1.85-2.55.793-.73 1.667-1.262 2.613-1.677 1.893-.82 3.948-1.023 5.908-.85.985.088 1.953.273 2.896.544.472.134.93.292 1.395.474.476.19.932.416 1.372.664 1.733 1.015 3.276 2.424 4.178 4.397.435.983.62 2.174.366 3.31-.246 1.123-.88 2.15-1.75 2.85-.864.71-1.867 1.115-2.858 1.35-.998.23-2 .296-2.995.24-1.94-.144-3.85-.61-5.61-1.398-1.763-.783-3.376-1.86-4.81-3.114-1.433-1.26-2.67-2.717-3.747-4.27-2.158-3.112-3.615-6.674-4.277-10.413-.305-1.875-.388-3.825-.016-5.76.36-1.927 1.277-3.83 2.75-5.228 1.46-1.403 3.347-2.258 5.273-2.62 1.93-.367 3.945-.24 5.817.332 1.862.567 3.58 1.52 5.08 2.696 1.502 1.18 2.81 2.567 3.958 4.056 2.285 2.986 3.99 6.393 5.015 9.993 1.027 3.603 1.407 7.362 1.034 11.12-.12.95-.354 1.955-.935 2.855-.57.903-1.58 1.563-2.618 1.748-1.042.204-2.092.047-3.033-.332-.957-.378-1.777-1.037-2.413-1.773-1.29-1.504-2.002-3.292-2.64-5.005-.67-1.72-1.215-3.488-1.706-5.268-.922-3.57-1.556-7.247-1.534-10.963-.002-3.697.56-7.484 2.203-10.88.214-.417.37-.865.633-1.257l.737-1.203c.226-.415.555-.758.833-1.137.3-.366.56-.75.89-1.102 1.302-1.41 2.95-2.512 4.808-3.09.927-.285 1.906-.448 2.89-.41.986.028 1.964.245 2.87.607 1.82.744 3.323 2.007 4.585 3.394 2.482 2.816 4.42 6.044 5.748 9.54 1.328 3.488 2 7.256 1.78 11.015-.206 3.758-1.326 7.46-3.26 10.703-.966 1.62-2.138 3.127-3.517 4.43-.35.32-.687.655-1.064.945-.366.296-.733.606-1.155.875-.823.543-1.73.974-2.74 1.206-.508.11-1.043.163-1.596.11-.55-.047-1.123-.225-1.613-.54-.49-.313-.9-.733-1.196-1.234-.3-.502-.44-1.066-.5-1.603-.105-1.087.126-2.085.423-3.015.305-.93.742-1.802 1.15-2.61 1.667-3.292 3.497-6.483 5.585-9.554 2.108-3.04 4.597-5.963 7.824-8.048 3.197-2.106 7.242-3.093 11.097-2.396.96.18 1.92.438 2.822.853.463.18.89.442 1.327.68.21.132.414.28.62.42.21.138.41.29.595.46.8.62 1.427 1.428 2.006 2.2.277.407.54.83.783 1.26.208.454.463.886.61 1.37.38.934.54 1.95.615 2.956.04 1.012-.07 2.02-.295 2.99-.487 1.932-1.4 3.69-2.506 5.247-2.234 3.122-5.107 5.608-8.156 7.76-1.527 1.076-3.125 2.047-4.783 2.917-.834.43-1.674.847-2.546 1.214-.882.374-1.804.7-2.74.936-1.877.466-3.85.682-5.86.344-1-.163-2.006-.52-2.91-1.09-.91-.57-1.68-1.388-2.208-2.323l-.337-.597.44-.513c1.384-1.62 3.28-2.744 5.28-3.27 2.01-.508 4.118-.52 6.113-.045 1.984.497 3.89 1.44 5.4 2.884 1.487 1.462 2.54 3.306 3.082 5.276 1.073 3.952.325 8.258-1.92 11.64-.308.406-.575.84-.928 1.21l-.505.572c-.184.183-.37.37-.565.543-.782.687-1.66 1.252-2.62 1.67-.96.417-2.023.672-3.138.644-1.11-.02-2.28-.456-3.146-1.226l-.347-.31.074-.454c.113-.693.433-1.368.905-1.886.466-.528 1.06-.88 1.667-1.107 1.217-.46 2.523-.47 3.745-.096.606.2 1.21.478 1.718.92.488.417.896.874 1.24 1.388.687 1.024 1.088 2.17 1.326 3.302.47 2.285.34 4.52.253 6.68-.105 2.17-.264 4.306-.243 6.412.014 2.106.222 4.17.824 6.126.59 1.943 1.537 3.78 2.94 5.15.704.69 1.476 1.24 2.354 1.616.875.38 1.83.6 2.783.642 1.906.082 3.82-.608 4.907-2.023l1.6 1.242c-.78 1.006-1.854 1.764-3.006 2.216-1.157.457-2.386.63-3.59.585-1.206-.056-2.394-.33-3.503-.81-1.114-.477-2.134-1.21-2.967-2.037-1.706-1.674-2.785-3.823-3.447-6.003-.67-2.19-.89-4.48-.904-6.69-.02-2.22.146-4.394.248-6.528.092-2.137.193-4.253-.21-6.173-.2-.957-.528-1.853-1.026-2.593-.243-.366-.553-.702-.864-.966-.276-.253-.65-.418-1.034-.548-.778-.246-1.703-.232-2.436.056-.77.276-1.197.805-1.31 1.427l-.362-1.017c.517.44 1.15.696 1.887.716.73.016 1.525-.156 2.276-.483.75-.328 1.467-.786 2.087-1.332.155-.136.298-.282.446-.427l.422-.485c.3-.308.522-.685.784-1.026.96-1.44 1.58-3.11 1.875-4.826.29-1.72.19-3.496-.255-5.154-.458-1.654-1.353-3.174-2.54-4.34-1.216-1.154-2.792-1.935-4.452-2.36-1.67-.403-3.45-.39-5.102.023-1.65.432-3.14 1.332-4.232 2.59l.11-1.208c.72 1.3 2.067 2.13 3.672 2.398 1.598.28 3.337.116 5-.297.837-.21 1.644-.492 2.447-.826.812-.338 1.612-.732 2.405-1.14 1.58-.823 3.118-1.75 4.58-2.775 2.924-2.043 5.66-4.42 7.696-7.254 1.013-1.41 1.803-2.958 2.214-4.57.188-.808.28-1.626.25-2.438-.065-.806-.178-1.617-.49-2.378-.112-.393-.332-.75-.497-1.126-.206-.36-.423-.716-.656-1.063-.515-.68-1.01-1.332-1.657-1.832-.15-.14-.31-.264-.483-.375-.17-.114-.333-.238-.506-.346-.364-.193-.71-.417-1.1-.567-.75-.35-1.564-.57-2.387-.728-.827-.16-1.677-.196-2.525-.193-.848.043-1.7.112-2.53.312-1.676.336-3.227 1.057-4.696 1.98-2.924 1.874-5.285 4.594-7.325 7.523-2.022 2.956-3.846 6.11-5.483 9.322-.42.822-.796 1.573-1.057 2.363-.26.78-.42 1.583-.347 2.266.055.686.372 1.192.87 1.52.47.32 1.157.356 1.886.2.727-.163 1.477-.505 2.152-.95.336-.21.664-.487 1.003-.763.344-.26.65-.567.972-.857 1.26-1.184 2.34-2.565 3.233-4.057 1.79-2.985 2.845-6.427 3.044-9.91.213-3.49-.403-7.026-1.65-10.32-1.232-3.29-3.102-6.404-5.4-9.02-1.155-1.28-2.487-2.374-3.974-2.985-1.484-.607-3.11-.656-4.663-.16-1.55.474-2.983 1.42-4.102 2.63-.283.298-.534.668-.805.997-.254.347-.56.657-.765 1.038l-.68 1.1c-.246.357-.386.773-.585 1.155-1.52 3.116-2.067 6.666-2.073 10.19.006 3.54.65 7.083 1.572 10.53.49 1.72 1.032 3.426 1.696 5.09.635 1.68 1.33 3.284 2.363 4.452.256.29.533.55.83.77.283.21.59.378.92.508.656.26 1.39.35 2.01.215.63-.136 1.09-.448 1.433-.972.338-.524.534-1.26.626-2.072.304-3.41-.08-7.004-1.073-10.343-.99-3.36-2.618-6.526-4.76-9.273-2.137-2.72-4.86-5.014-8.016-6.007-3.066-.986-6.774-.417-9.057 1.74-1.134 1.063-1.88 2.53-2.193 4.14-.323 1.61-.273 3.34-.006 5.046.574 3.42 1.903 6.77 3.88 9.664.984 1.447 2.114 2.8 3.412 3.962 1.3 1.16 2.75 2.14 4.318 2.853 1.566.71 3.254 1.166 4.97 1.242 1.652.068 3.41-.282 4.533-1.245.56-.466.917-1.11 1.057-1.79.14-.677.024-1.402-.286-2.1-.62-1.41-1.893-2.645-3.323-3.473-.362-.205-.733-.39-1.112-.545-.393-.155-.802-.3-1.212-.417-.822-.24-1.67-.404-2.52-.484-1.694-.16-3.43.02-4.953.677-.754.324-1.48.772-2.064 1.31-.586.54-1.068 1.21-1.422 1.946-.704 1.47-.92 3.232-.422 4.744.474 1.54 1.74 2.595 3.36 3.16.8.294 1.666.506 2.55.715.874.21 1.753.384 2.632.526 1.752.27 3.538.395 5.223.105 1.692-.252 3.217-1.07 4.175-2.4l.608-.844.53.89c1.184 1.997 1.824 4.286 1.95 6.58.13 2.3-.236 4.617-1.03 6.776-.79 2.16-2.02 4.18-3.675 5.82-.83.813-1.735 1.568-2.75 2.153-.99.63-2.088 1.093-3.23 1.41-1.143.31-2.354.47-3.58.352-1.224-.11-2.447-.493-3.517-1.23-1.08-.754-1.85-1.838-2.29-3.03-.437-1.192-.543-2.557-.104-3.856.233-.643.61-1.242 1.1-1.733.496-.485 1.112-.842 1.762-1.07.658-.195 1.333-.265 1.988-.218.65.07 1.288.2 1.875.453 1.18.48 2.23 1.283 2.965 2.373.748 1.13 1.023 2.397 1.04 3.647-.012 2.52-1.104 4.8-2.608 6.62-1.543 1.82-3.445 3.138-5.31 4.34-1.885 1.195-3.698 2.318-5.393 3.647-1.705 1.313-3.3 2.762-4.788 4.314-1.482 1.55-2.862 3.226-4.075 4.974-1.198 1.748-2.19 3.623-2.645 5.594-.217.974-.304 2-.212 2.944.114.953.422 1.895.886 2.744.466.85 1.11 1.59 1.855 2.14.75.544 1.62.85 2.506.897l-.072 2.024z" fill="#E0E3ED"/><path fill="#F4F7F9" d="M423.44 582.897h72.88v-48.8h-72.88"/><path d="M495.604 582.18l-.344-24.122c-.056-4.004-.063-7.986-.083-11.98l.142-11.982 1 1.002c-6.074-.05-12.148 0-18.22-.006l-18.22.023-36.44.063 1.08-1.082.136 12.2.084 12.2c-.027 4.068-.123 8.134-.182 12.2-.075 4.068-.204 8.134-.238 12.2l-.88-.88 4.51-.072 4.518.066 9.047.135c3.015.027 6.05.105 9.057.09l8.982-.124c2.975-.067 5.99-.03 8.993-.03l9.014.026 18.045.076zm1.433 1.433l-18.304.216-18.386.194-9.23.044-9.24-.032-9.228-.053-4.61-.034-4.6-.133-.934-.027.01-.893c.052-4.067.038-8.133.06-12.2l.046-12.2.18-12.2.11-12.2.004-.53.522.003c6.072.012 12.146-.07 18.22-.1l18.22-.125 18.22-.154c6.073-.035 12.147-.13 18.22-.12h1.03l-.003 1.027c-.007 4.128-.072 8.255-.137 12.37-.028 4.126-.125 8.22-.11 12.354.008 8.264-.018 16.537-.063 24.794z" fill="#E0E3ED"/><path d="M451.06 561.554c-1.48.682-3.298.632-4.692-.055-1.43-.645-2.563-1.71-3.384-2.965-.83-1.246-1.357-2.732-1.365-4.307-.014-1.534.387-2.973.996-4.3 1.25-2.65 3.277-4.686 5.407-6.402 2.158-1.705 4.412-3.088 6.423-4.67 1.987-1.568 3.79-3.364 4.756-5.498.482-1.07.696-2.136.644-3.313-.043-1.17-.295-2.455-.552-3.71-.53-2.5-1.28-4.952-2.468-7.14-.59-1.09-1.292-2.11-2.11-3.01-.82-.897-1.766-1.698-2.78-2.256-2.063-1.136-4.616-1.51-6.922-1.003-1.156.232-2.256.7-3.15 1.426-.91.71-1.55 1.72-1.902 2.826-.724 2.225-.102 4.764 1.136 6.897 1.243 2.16 3.065 4.002 5.19 5.35 4.3 2.74 9.467 4.18 14.616 3.984 2.576-.092 5.13-.596 7.537-1.546 2.42-.928 4.73-2.177 6.824-3.7 1.035-.773 2.033-1.61 2.87-2.58.454-.458.806-.99 1.2-1.49.32-.544.69-1.065.92-1.647.297-.557.438-1.165.615-1.756l.133-.91c.058-.3.013-.62.026-.927-.03-1.232-.285-2.47-.86-3.564-1.12-2.185-3.267-3.84-5.678-4.217-2.423-.376-4.857.588-6.63 2.354-1.8 1.737-3.034 4.037-3.902 6.445-.867 2.42-1.407 4.96-1.538 7.516-.13 2.55.16 5.118.93 7.524.77 2.398 2.042 4.64 3.714 6.504 1.663 1.863 3.763 3.346 6.058 4.182 2.272.774 4.875.945 6.945-.038.515-.235.98-.555 1.39-.933.427-.366.76-.798.936-1.214.177-.43.16-.783.01-1.096-.165-.32-.55-.616-1-.79-.457-.167-.98-.204-1.428-.098-.466.102-.772.34-1.082.753-.585.782-.677 1.98-.366 3.05.155.538.404 1.053.73 1.494.348.46.77.878 1.244 1.242.96.723 2.106 1.255 3.302 1.72 1.2.463 2.475.872 3.74 1.422 1.26.557 2.548 1.23 3.594 2.316 1.064 1.06 1.783 2.425 2.142 3.845.36 1.424.39 2.907.13 4.336-.26 1.43-.81 2.815-1.67 4.025-.855 1.208-2.05 2.227-3.458 2.82l-.777-1.868c2.09-.873 3.52-3.038 3.924-5.35.43-2.31-.13-4.836-1.72-6.398-.762-.81-1.84-1.4-2.973-1.897-1.147-.5-2.387-.9-3.666-1.397-1.272-.5-2.58-1.092-3.776-1.996-.593-.453-1.15-.985-1.625-1.603-.493-.65-.85-1.376-1.077-2.14-.23-.764-.32-1.577-.24-2.405.078-.822.346-1.676.87-2.402.25-.37.553-.678.96-.983.196-.145.413-.252.625-.363.22-.08.44-.182.663-.225.897-.223 1.793-.145 2.617.147.81.307 1.623.84 2.12 1.738.236.448.388.97.377 1.476.015.504-.105.967-.272 1.383-.347.83-.88 1.458-1.452 1.96-.567.522-1.213.957-1.902 1.272-.683.327-1.404.552-2.13.682-.725.144-1.456.192-2.178.177-1.447-.03-2.86-.313-4.208-.784-2.667-.995-4.992-2.685-6.838-4.776-1.846-2.093-3.227-4.572-4.06-7.23-.828-2.653-1.116-5.448-.956-8.194.16-2.75.757-5.454 1.7-8.025.95-2.563 2.294-5.093 4.378-7.086.524-.494 1.086-.95 1.692-1.35l.963-.55c.314-.2.685-.29 1.027-.436 1.397-.51 2.94-.67 4.42-.43 2.976.487 5.545 2.507 6.877 5.15.683 1.323.987 2.816 1.012 4.28-.015.37.026.737-.04 1.106l-.172 1.11c-.205.707-.394 1.435-.734 2.076-.28.68-.694 1.267-1.07 1.88-.435.557-.84 1.15-1.333 1.647-.933 1.054-2 1.945-3.08 2.8-2.2 1.663-4.594 3.016-7.144 4.05-2.548 1.062-5.32 1.67-8.08 1.827-5.524.313-11.206-1.04-15.83-4.163-2.358-1.542-4.39-3.62-5.77-6.107-.686-1.244-1.217-2.6-1.464-4.042-.25-1.434-.19-2.967.29-4.382.47-1.407 1.333-2.68 2.44-3.67 1.12-.983 2.48-1.636 3.883-1.988 2.836-.626 5.807-.15 8.314 1.227 2.504 1.436 4.33 3.653 5.64 6.063 1.313 2.422 2.07 5.05 2.655 7.67.286 1.315.575 2.622.65 4.04.09 1.408-.18 2.913-.75 4.218-1.144 2.647-3.18 4.686-5.317 6.338-2.14 1.668-4.412 3.056-6.424 4.64-1.99 1.587-3.8 3.447-4.83 5.64-.505 1.084-.825 2.275-.812 3.412 0 1.1.38 2.233 1.02 3.192 1.216 1.964 3.648 3.2 5.514 2.297l.847 1.84z" fill="#E0E3ED"/><path d="M462.253 533.477c-.086 4.122.03 8.242-.252 12.356l-.09 1.545c-.02.257-.09.514-.132.77-.036.26-.035.516-.04.774l-.048 3.09c.03 2.062-.287 4.13-.244 6.19.105 4.128.565 8.24.94 12.344.088 1.027.223 2.05.236 3.082.017 1.032 0 2.066.04 3.096.035 1.03.197 2.053.29 3.08.112 1.024.235 2.047.388 3.068l-2.017.185c-.24-2.06-.475-4.12-.675-6.183-.09-1.033-.098-2.072-.07-3.112.016-1.04-.082-2.07-.135-3.105-.214-4.138-.422-8.276-.59-12.418-.044-1.038-.162-2.07-.238-3.108-.07-1.036-.084-2.073-.02-3.11.074-1.037.265-2.073.334-3.108.022-.26.057-.518.044-.777-.023-.26-.08-.518-.073-.777.03-.517.057-1.035.11-1.552.116-1.034.22-2.067.23-3.102.007-.518-.056-1.037-.11-1.556-.05-.52-.06-1.038-.054-1.556.034-2.07.02-4.145.153-6.213l2.022.098zm-45.073-41.193c.937 7.502 1.505 15.072 1.22 22.62l-.088 2.828c-.022.47-.094.94-.147 1.41-.044.47-.05.942-.065 1.413-.056 1.883-.13 3.764-.216 5.645-.12 3.764-.65 7.503-.857 11.255-.39 7.508-.58 15.022-.866 22.532-.074 1.878-.1 3.758-.263 5.63-.164 1.873-.36 3.743-.504 5.617-.154 1.872-.182 3.752-.28 5.628-.086 1.877-.162 3.754-.208 5.633l-2.022-.117.494-11.263c.085-1.876.283-3.746.475-5.617.193-1.87.258-3.748.37-5.623l1.215-22.507c.08-1.876.076-3.753.11-5.63.025-1.874.107-3.746.246-5.616.076-.934.174-1.867.263-2.802.1-.935.186-1.87.242-2.805.03-.467.073-.935.068-1.403-.015-.47-.066-.938-.058-1.406.033-.937.07-1.872.12-2.81l.126-2.808c.017-.936.027-1.873.005-2.81-.016-.936-.133-1.87-.225-2.803-.085-.933-.157-1.865-.205-2.8-.207-3.733-.58-7.45-.958-11.164l2.013-.225z" fill="#E0E3ED"/><path d="M688.568 49.13c-3.18 2-6.42 4.052-8.77 6.98-2.35 2.93-3.683 6.947-2.488 10.506 1.8.52 3.733.58 5.563.17.45-3.59-4.07-6.192-7.553-5.212-3.483.98-5.847 4.165-7.65 7.3m41.633 38.352c3.908-1.384 8.615-.083 11.26 3.11m-11.306-13.303c1.262 1.777 3.84 2.472 5.824 1.573 1.987-.9 3.164-3.294 2.66-5.415l-3.89-1.746c-1.967 2.526-.54 6.622 2.304 8.096 2.843 1.473 6.424.756 9.113-.983 2.688-1.74 4.673-4.35 6.6-6.906m-199.672 7.963c-6.822-7.945-18.47-11.365-28.506-8.37m69.3-39.113c-.995 2.636-1.57 5.43-1.695 8.243 2.417-1.073 5.295-1.05 7.694.065-.34-2.742-.46-5.51-.356-8.272-1.23.394-2.59.362-3.8-.09m5.6 89.974c.117 2.815.683 5.61 1.673 8.246 1.8-1.934 4.458-3.042 7.1-2.958-1.386-2.39-2.582-4.89-3.57-7.47-.975.845-2.24 1.35-3.53 1.408m-110.667-3.522c-1.538 2.31-2.52 4.985-2.844 7.74 2.32-1.193 5.214-1.194 7.533 0 .15-3.368 1.21-6.69 3.04-9.52-1.69.125-3.41-.19-4.946-.9m59.22-45.524c-9.74-7.165-14.915-20.053-12.83-31.964.237-1.354.672-2.85 1.877-3.512 1.396-.765 3.23.016 4.167 1.3.937 1.285 1.2 2.926 1.433 4.498-5.61 2.936-13.54-1.912-13.482-8.243m140.027 21.004c5.826-4.52 9.71-11.462 10.516-18.79m17.825-15.584c.504-1.01.25-2.314-.975-3.22-3.323-2.46-4.986 5.023-1.442 4.704 1.19-.107 2.03-.708 2.417-1.485zm47.93 84c-.857.363-1.056 1.663-.42 2.338.636.678 1.833.633 2.505-.008.67-.642.802-1.733.418-2.58-.56.35-1.42-.066-1.495-.72m-235.98-43.934c-1.42.296-2.15 2.28-1.26 3.426.893 1.147 2.994.93 3.633-.376.638-1.305-.482-3.097-1.935-3.095" stroke="#FFC14D" stroke-width="2"/><path fill="#5053AB" d="M560.622 89.597l13.573 36.897-22.517 8.284-13.573-36.898"/><path d="M557.996 99.882c5.638 5.203-1.406 12.45-7.605 9.915-1.256-.515-2.433-1.407-2.93-2.672-2.19-5.57 5.775-4.08 7.742-.97.952 1.503 1.586 3.46.75 5.03-1.017 1.908-3.642 2.3-5.064 3.928-1.838 2.104-.657 5.91 1.98 6.83 2.638.923 5.792-1.026 6.406-3.752.612-2.724-1.164-5.69-3.766-6.71 5.695-.38 10.848 5.66 9.578 11.225m-20.426-6.745l20.934-8.977" stroke="#FFF" stroke-width="2"/><path d="M563.997 130.22c.417.025-.367.3-.502-.095l-12.654-37.18" stroke="#FFF" stroke-width="2"/><path fill="#A3B3EF" d="M519.925 150.234l14.904 32.308-19.72 9.096-14.903-32.308"/><path d="M520.855 162.272c-.145 2.863-1.17 5.846-3.454 7.58-2.28 1.733-5.98 1.71-7.724-.565-4.655-6.063 9.834-9.58 6.885.35-.55 1.86-1.586 3.57-1.94 5.48-.32 1.762.405 4.07 2.188 4.234.984.093 1.908-.55 2.494-1.35 1.83-2.486.56-6.596-2.355-7.62 3.803-1.184 8.306.52 10.373 3.926.008.012.015.026.024.038m-2.05 13.538c-4.097-11.417-8.557-22.706-13.37-33.84M507.86 175.1l18.868-9.216" stroke="#FFF" stroke-width="2"/><path fill="#7581CE" d="M640.5 58.416L612.144 83.26l-15.162-17.304 28.354-24.844"/><path d="M604.943 75.15c8.958-8.61 18.28-16.844 27.93-24.67m-4.036 8.68c-1.722 2.965-5.73 4.36-8.922 3.103-7.55-2.97-2.86-13.753 1.035-9.095 1.223 1.463.556 3.662-.168 5.428-.57 1.387-1.315 2.938-2.758 3.34-2.652.74-5.29-3-7.765-1.79-1.41.69-1.645 2.83-.648 4.044.997 1.212 2.812 1.512 4.313 1.052 1.5-.46 2.73-1.547 3.76-2.73 1.236 1.855 2.49 3.94 2.214 6.153-.28 2.213-2.97 4.125-4.78 2.826-.175-.123-.345-.354-.223-.53.122-.175.407.2.193.193m-4.35-17.473c3.916 6.456 9.237 12.054 15.484 16.293" stroke="#FFF" stroke-width="2"/><path fill="#5053AB" d="M691.21 109.695l-30.89 10.596-6.467-18.85 30.89-10.596"/><path d="M681.654 106.066c-3.44 1.368-8.38 1.28-9.846-2.79-1-2.78 1.313-5.96 4.257-6.022.852-.018 1.767.245 2.28.926.313.42.442.95.48 1.475.352 5.03-5.577 6.15-8.832 3.472-.715-.587-1.317-1.308-2.065-1.853-2.487-1.813-5.983.26-4.55 3.39.538 1.176 1.68 2.002 2.92 2.36 2.28.658 4.927-.263 6.305-2.192-1.972 2.76-1.885 7.62-6.048 8.335m-9.862-1.347l31.602-10.95m-19.375-6.175c1.67 6.833 4.06 13.49 7.116 19.828" stroke="#FFF" stroke-width="2"/><path fill="#A3B3EF" d="M646.514 167.862l-35.16-11.45 6.988-21.457 35.16 11.45"/><path d="M619.044 152.712c.848 1.194 2.32 1.837 3.782 1.947 1.46.11 2.918-.26 4.296-.757 2.595-.938 5.017-2.352 7.11-4.15.768-.66 1.493-1.374 2.314-1.967 1.227-.886 2.737-1.503 4.235-1.288 5.813.832 2.03 10.023-3.973 7.625-1.684-.672-3.03-2.043-3.916-3.625-.794-1.418-1.247-3-1.95-4.467-.7-1.466-1.73-2.88-3.236-3.495-3.43-1.4-4.828 2.046-4.48 4.835.072.565.18 1.15.516 1.61.345.473.887.754 1.412 1.014 1.867.925 3.762 1.384 5.87 1.164.355-.037.718-.096 1.066-.013 1.11.262 1.41 1.656 1.642 2.772.694 3.335 3.072 6.6 6.44 7.126m-24.566-14.698c11.204 4.354 22.54 8.367 33.987 12.03m-13.827-17.955c-1.756 7.128-3.95 14.15-6.56 21.01" stroke="#FFF" stroke-width="2"/><path d="M649.632 518.77l-23.83 18.326c-1.1 2.348-1.02 6.64-1.066 9.216l36.62-18.107" fill="#3E4166"/><path d="M650.357 519.71c-.98.78-1.986 1.53-2.984 2.285-.503.374-.993.765-1.506 1.125-.514.36-1.067.666-1.546 1.07-.962.803-1.822 1.74-2.767 2.565-.948.823-1.928 1.602-2.935 2.347l-6.067 4.44-3.014 2.243-3.07 2.172.32-.4c-.15.277-.298.578-.418.908-.13.324-.273.664-.373 1.02-.263.702-.2 1.472-.32 2.22-.07.755-.194 1.517-.243 2.288-.057.77.11 1.547.01 2.332l-1.016-.643c1.54-.727 3.103-1.408 4.604-2.21.746-.412 1.42-.972 2.174-1.365l2.255-1.2c1.5-.81 3.016-1.58 4.523-2.37 1.508-.795 2.97-1.678 4.532-2.36.778-.346 1.58-.648 2.353-1.002.78-.343 1.533-.74 2.29-1.13 1.51-.787 2.982-1.648 4.572-2.275 1.615-.573 3.114-1.382 4.615-2.186l4.49-2.444 1.052 2.13-4.55 2.323c-1.516.77-3.044 1.522-4.473 2.47-1.462.885-3.05 1.51-4.606 2.206-1.572.66-3.096 1.42-4.638 2.137-1.52.77-3.186 1.24-4.68 2.058-1.515.776-2.987 1.64-4.473 2.474-.74.423-1.507.794-2.258 1.194-.74.426-1.65.505-2.427.854-1.534.74-2.93 1.753-4.4 2.627l-1.863 1.11-.235-2.44c-.037-.383-.092-.77-.01-1.16.033-.195.076-.39.12-.587.02-.197.063-.392.06-.59.014-.79-.048-1.595.05-2.4.025-.82.375-1.597.33-2.457-.09-.874.213-1.753.797-2.545l.327-.445.055-.032c.545-.318 1.07-.662 1.597-1.006.52-.35.97-.794 1.484-1.15 1.03-.716 2.13-1.344 3.187-2.022 2.087-1.397 3.95-3.085 5.867-4.702.955-.812 1.892-1.648 2.904-2.387 1.003-.75 2.09-1.392 3.083-2.156.498-.38.93-.844 1.402-1.258.47-.414.965-.798 1.45-1.2.97-.792 1.932-1.592 2.922-2.36l1.45 1.883z" fill="#3E4166"/><path d="M628.4 573.756c1.54-2.965 1.8-6.395 1.755-9.715-.08-5.87-1.023-11.73-2.79-17.34-.26-.83-.546-1.66-1.04-2.38-.426-.627-.758-2.62-1.22-3.223-2.06-2.667 1.832-6.204 1.056-7.465-.774-1.26-4.356-1.234-6.552-.854-1.16.2-4.633 1.798-5.56 2.51l8.274 45.497c3.41.066 4.54-4.06 6.08-7.027" fill="#5053AB"/><path d="M629.285 574.216c-.708 1.394-1.277 2.963-2.185 4.5-.462.76-1.026 1.535-1.846 2.162-.804.635-1.917 1.022-2.954.993l-.873-.023-.176-.868c-.384-1.89-.94-3.747-1.225-5.653-.32-1.9-.62-3.804-.902-5.712-.288-1.905-.646-3.798-.956-5.7-.328-1.9-.492-3.828-.842-5.722-.69-3.792-1.687-7.527-2.31-11.33-.146-.953-.092-1.942-.277-2.887-.2-.943-.382-1.89-.622-2.825l-.706-2.81c-.21-.94-.45-1.874-.607-2.825l-.13-.78.603-.45c.327-.243.595-.39.88-.53.277-.137.55-.262.826-.38l1.63-.692c.538-.24 1.08-.47 1.655-.68.292-.108.576-.213.942-.303.203-.05.34-.073.493-.1l.454-.07c1.21-.156 2.412-.187 3.672-.056.63.088 1.27.216 1.967.534.345.162.727.374 1.075.78.09.11.158.2.244.36.093.173.148.342.177.508.055.322.028.597 0 .81-.06.445-.19.76-.284 1.072-.1.308-.206.59-.31.86-.207.537-.44 1.014-.65 1.464-.418.91-.667 1.692-.37 2.396.033.088.096.168.15.253.03.05.14.203.18.284.047.088.102.185.135.263.15.33.25.618.34.906.177.562.33 1.12.494 1.564.033.102.075.213.094.25-.007 0 .05.097.09.166l.12.22c.15.296.275.594.38.89.208.592.348 1.166.476 1.725.52 2.247 1.12 4.458 1.63 6.705.502 2.244.91 4.52 1.114 6.822.05 1.154.075 2.308.056 3.46l-.036 1.736c-.006.58.03 1.165.016 1.75-.078 2.34-.55 4.753-1.635 6.967m-1.768-.92c.982-1.858 1.394-3.997 1.61-6.176.054-.545.143-1.094.136-1.65.007-.556-.034-1.114-.077-1.673-.11-1.117-.236-2.23-.394-3.335-.24-2.216-.49-4.43-.86-6.63-.372-2.2-.864-4.383-1.508-6.523-.158-.54-.316-1.057-.504-1.516-.094-.23-.197-.444-.31-.645l-.215-.35c-.13-.223-.19-.38-.26-.55-.228-.634-.352-1.18-.508-1.704-.075-.255-.154-.506-.232-.69-.02-.055-.036-.08-.052-.115-.024-.042.002 0-.04-.073-.104-.156-.21-.31-.294-.48-.368-.672-.485-1.475-.414-2.173.065-.706.276-1.33.515-1.9.237-.574.536-1.088.813-1.582.272-.48.548-.99.644-1.36.03-.09.022-.154.018-.178l-.002-.008s-.024-.04-.043-.06c-.08-.1-.25-.212-.454-.3-.413-.175-.936-.266-1.458-.323-1.053-.13-2.165-.1-3.25 0-.576.05-1.007.12-1.54.307-.52.173-1.04.378-1.555.593-.513.222-1.012.478-1.505.736-.482.256-.988.543-1.363.827l.224-.584c.356 1.894.632 3.8.977 5.696l.507 2.845c.18.947.495 1.87.708 2.81.8 3.77 1.53 7.554 2.268 11.336.393 1.888.81 3.77 1.113 5.674l.436 2.86c.146.95.27 1.908.47 2.85l1.095 5.677c.385 1.89.535 3.82.875 5.716l-.754-.642c.67.01 1.277-.19 1.8-.61.52-.416.955-1.013 1.333-1.673.75-1.334 1.287-2.872 2.046-4.42" fill="#5053AB"/><path d="M615.53 532.45c.637.062 8.417 49.87 8.417 49.87" fill="#5E6EBF"/><path d="M615.604 531.706c.11.012.24.054.346.124.12.08.18.163.175.157.032.04.062.083.087.127.035.06.04.08.06.124l.056.147.067.228.102.41.17.792c.102.524.22 1.042.292 1.568.025 1.07.506 2.056.75 3.086.466 2.06.65 4.17.99 6.253l.233 1.565.188 1.57c.135 1.048.253 2.097.346 3.15.04.528.154 1.043.24 1.563.096.52.15 1.045.228 1.567l.19 1.57c.07.523.19 1.037.283 1.556.184 1.038.29 2.088.463 3.13.08 1.054.567 2.043.69 3.09l1.178 6.217c.155 1.043.172 2.108.39 3.14.174 1.04.397 2.073.523 3.12.044.527.06 1.057.14 1.58.09.52.166 1.04.276 1.556l.62 3.104-1.476.23-.533-3.116c-.082-.52-.183-1.038-.275-1.557-.1-.517-.26-1.026-.38-1.54-.195-1.036-.298-2.086-.417-3.135-.1-1.05-.286-2.088-.418-3.134-.055-2.125-.63-4.167-1.04-6.236-.084-.52-.234-1.03-.178-1.572.006-.27.027-.54-.02-.798l-.167-.774c-.248-1.028-.6-2.038-.753-3.08-.054-.525-.035-1.062-.14-1.58l-.29-1.553c-.076-.52-.18-1.04-.233-1.564-.056-.523-.086-1.052-.236-1.56-.15-.51-.315-1.016-.355-1.543-.073-.522-.056-1.058-.09-1.587-.018-.263-.03-.528-.074-.787-.047-.26-.112-.516-.14-.778-.055-.525-.074-1.056-.098-1.586-.05-1.06-.263-2.095-.504-3.12-.233-1.03-.496-2.054-.704-3.085-.18-1.037-.156-2.11-.533-3.11-.15-.504-.246-1.02-.38-1.523l-.19-.748-.098-.355-.047-.15-.014-.04c.005.014 0 .003.017.035.017.03.037.06.06.086-.01-.012.045.065.158.14.1.067.22.105.325.113l.144-1.488z" fill="#FFF"/><path d="M620.49 566.49c2.992-1.386 7.585-1.194 10.14.845-.834 8.476-.146 11.57-6.624 14.88l-3.515-15.726z" fill="#FFF"/><path d="M621.023 566.752l.962 3.855c.146.637.395 1.3.572 1.937.167.636.28 1.262.415 1.894.22 1.262.53 2.535.77 3.812.166 1.283.478 2.574.85 3.835l-.86-.404c.61-.364 1.21-.732 1.78-1.12.152-.087.294-.185.454-.257.16-.072.32-.148.47-.238.296-.183.515-.455.75-.698.44-.524.747-1.118 1.03-1.702.137-.297.298-.582.456-.88.155-.3.25-.63.326-.963.146-.67.255-1.36.358-2.064.14-.697.236-1.412.18-2.142-.02-.727.177-1.44.3-2.16.087-.358.108-.72.135-1.084.015-.365.125-.72.183-1.082l.178.423c-.563-.603-1.34-1.02-2.164-1.225-.822-.223-1.675-.298-2.52-.333-.212.007-.422-.02-.633-.04l-.638-.022-.64.014c-.21.017-.418.077-.625.126-.205.06-.41.12-.615.16-.204.05-.404.116-.604.173l-.586.212c-.113.064-.13.02-.28-.023m-1.065-.526c.255-.214.642-.443.942-.545.224-.073.447-.152.672-.217.455-.115.906-.247 1.373-.273.468-.01.92-.097 1.383-.177.46-.063.93-.126 1.402-.11.942.017 1.874.234 2.772.545.893.328 1.76.773 2.524 1.39l.27.217-.035.34c-.07.72-.176 1.435-.264 2.155-.098.72-.16 1.442-.284 2.164-.123.72-.2 1.446-.27 2.18-.106.726-.25 1.456-.466 2.173-.228.71-.41 1.447-.78 2.12-.376.662-.85 1.268-1.385 1.796-.266.267-.56.5-.833.76-.267.264-.535.536-.84.753-.613.43-1.25.817-1.9 1.173l-.575.316-.16-.663-.485-2c-.17-.67-.35-1.338-.504-2.01-.273-1.35-.456-2.685-.808-4.03-.147-.67-.323-1.35-.445-2.016-.115-.667-.174-1.313-.342-1.988-.297-1.338-.647-2.7-.962-4.058" fill="#FFF"/><path d="M627.5 549.106c.857.062 1.728.173 2.605.343.844.32 1.765.353 2.68.652.914.323 1.737.904 2.384 1.665.652.75 1.13 1.716 1.255 2.76l.073.62-.54.24c-.548.243-1.19.288-1.718.164-.537-.112-.995-.337-1.385-.606-.797-.536-1.387-1.184-1.96-1.786l-.833-.956c-.28-.315-.585-.606-.878-.908-.577-.613-1.097-1.278-1.612-1.942l-.31-.402.4-.226c.372-.208.645-.56.893-.924.232-.378.488-.76.697-1.187.21-.422.443-.855.623-1.293.202-.43.328-.89.358-1.35.06-.452.153-.878.137-1.304-.003-.41-.09-.814-.234-1.186-.146-.37-.364-.7-.63-.943-.135-.122-.287-.212-.442-.283-.16-.07-.337-.105-.335-.09.027.005 0 0-.104.11-.104.093-.242.27-.35.415-.235.306-.418.676-.5 1.087-.133.83-.03 1.727.184 2.6.14 1.85 1.32 3.6 1.35 5.817l-1.494-.04c.007-.847-.212-1.715-.48-2.61-.144-.444-.297-.9-.478-1.356-.18-.46-.423-.91-.542-1.434-.237-1.03-.263-2.145-.012-3.255.118-.555.322-1.116.643-1.617.166-.26.326-.47.57-.717.244-.223.666-.497 1.176-.486.485.023.754.202 1.02.344.27.15.507.343.735.54.443.41.76.918.995 1.45.227.533.353 1.11.363 1.698 0 .285-.028.565-.067.84-.04.275-.09.546-.214.79-.122.244-.276.466-.39.696-.113.232-.177.477-.267.71-.183.472-.296.938-.463 1.422-.076.245-.18.484-.294.727-.11.247-.248.488-.423.714-.362.445-.855.8-1.333 1.17l.18-1.238c.263.314.552.604.828.903.266.31.55.604.814.916.26.315.51.645.822.91.302.277.683.47.967.764.61.557.987 1.318 1.633 1.668.634.312 1.19.726 1.808.51l-.27.5c-.046-.755-.49-1.445-1.05-1.967-.56-.537-1.25-.907-1.94-1.245-.687-.364-1.45-.717-2.294-.687-.813-.11-1.647-.143-2.495-.215l.14-1.49z" fill="#0C1238"/><path d="M627.965 550.47c-.04.022-.093.12-.092.188.004.067.012.084.03.058.02-.014.046-.052.032-.067-.02-.018-.05-.027-.09-.03-.08-.005-.18.013-.237 0-.086-.004-.234-.16-.362-.29-.123-.14-.25-.28-.394-.396l-.214-.178c-.066-.066-.122-.15-.192-.213-.136-.133-.267-.275-.383-.448-.06-.082-.153-.112-.24-.148-.084-.044-.16-.1-.232-.163-.07-.063-.137-.14-.216-.195-.076-.06-.178-.068-.27-.094-.175-.072-.32-.205-.487-.298-.147-.142-.442.067-.6-.034-.19-.03-.37-.087-.552-.127-.177-.062-.384-.03-.558-.09-.17-.075-.306-.268-.498-.275-.186-.035-.385-.006-.55-.106-.15-.17-.335-.22-.53-.203-.19.005-.38.005-.57.024-.416.04-.786-.263-.826-.678-.04-.418.263-.787.68-.827.054-.005.11-.005.162.002l.235.03c.2.024.408.032.61.072.1.02.2.036.303.038.103.007.222-.052.332-.064.212 0 .39.136.572.244.18.113.383.148.565.25.09.05.17.14.252.21.083.07.186.08.286.1.205.03.426.022.63.064.096.04.21.027.252.193.035.176.143.18.25.19.216.01.49-.087.664.03.077.074.12.213.22.243.09.05.2.062.29.11.092.045.183.09.26.165.07.08.133.177.252.174.123-.006.255-.026.32.067.073.076.11.21.164.315.028.05.056.1.1.128.043.025.098.034.132.074.07.08.108.202.157.31.084.23.277.3.474.372l.292.114c.093.022.235.093.325.182.198.2.158.505.46.716.1.14.16.34.16.593 0 .254-.13.537-.296.71-.29.294-.763.298-1.057.01-.295-.29-.3-.763-.01-1.057m.908 4.334c-.12-.06-.227-.137-.32-.238-.017-.225-.294-.03-.433-.05-.275-.048-.418-.327-.646-.465l-.164-.117c-.05-.047-.093-.11-.144-.156-.102-.094-.204-.192-.286-.335-.045-.064-.115-.073-.182-.09-.063-.022-.117-.066-.172-.11-.102-.104-.21-.202-.363-.183-.132-.034-.235-.143-.36-.203-.105-.107-.334.134-.45.06-.14 0-.27-.03-.405-.046-.128-.037-.284.025-.41-.02-.122-.05-.214-.223-.354-.215-.135-.012-.28.03-.4-.055-.102-.148-.23-.19-.374-.16-.14.02-.276.027-.416.057-.412.088-.817-.175-.905-.587-.084-.41.178-.816.59-.904.074-.016.15-.02.223-.014l.344.03c.147.015.295.015.44.04.07.01.143.022.22.016.074.002.164-.067.244-.09.156-.015.28.103.41.187.126.098.275.11.406.184.063.04.117.12.176.176.06.057.136.053.21.06.15.005.316-.036.466-.024.07.02.16-.007.18.148.02.163.1.15.182.14.164-.025.372-.16.502-.083.057.057.085.183.16.194.066.03.15.02.218.047s.136.056.193.11c.054.06.1.138.19.11.095-.028.197-.074.245-.003.057.054.082.17.12.256.02.042.042.08.074.098.034.012.077.007.102.037.053.057.08.163.116.248.063.19.21.214.368.226l.23.03c.08.004.162.01.225.045.127.075.128.348.356.254.154.024.295.074.423.145.358.198.488.65.29 1.008-.192.348-.623.48-.976.307l-.14-.068zm1.193 4.91c-.098-.045-.183-.11-.253-.196.006-.212-.248-.005-.366-.013-.23-.023-.325-.278-.504-.395l-.126-.1c-.037-.043-.067-.1-.106-.14-.076-.087-.15-.174-.204-.308-.03-.06-.09-.066-.143-.078-.05-.02-.09-.06-.132-.1-.074-.096-.153-.187-.282-.162-.107-.028-.18-.13-.275-.185-.076-.103-.29.137-.378.07-.116-.002-.22-.027-.33-.04-.1-.038-.235.024-.332-.02-.094-.05-.15-.22-.265-.213-.11-.012-.233.028-.318-.058-.066-.15-.167-.192-.286-.166-.117.016-.228.018-.345.043-.414.09-.824-.17-.913-.586-.09-.414.172-.823.587-.913.092-.02.184-.02.273-.01l.425.064c.115.018.235.023.35.05.055.015.112.026.174.022.06.004.142-.063.21-.083.126-.013.214.104.31.188.092.098.212.11.31.183.048.042.082.118.125.172.04.057.103.053.163.06.122.002.264-.04.386-.03.054.02.13-.01.132.14 0 .157.066.144.135.132.138-.03.325-.167.425-.098.04.054.05.174.11.18.052.028.124.015.178.038.055.022.108.047.15.096.037.057.066.128.146.1.082-.034.173-.083.206-.017.04.048.05.16.075.24.012.04.026.075.05.09.03.008.065.002.085.028.038.052.05.152.072.23.034.18.157.19.29.192l.192.013c.068-.003.136-.003.187.025.1.06.074.318.28.21.13.01.246.045.35.1.36.193.495.64.302 1-.185.35-.608.487-.96.325l-.168-.078z" fill="#0C1238"/><path d="M618.07 257.186c6.99 4.86 14.706 9.94 23.297 9.522 9.79-.478 17.56-7.885 24.317-14.815 1.586-1.628 3.25-3.406 3.572-5.625.224-1.548-.244-3.105-.787-4.574-2.136-5.77-5.617-11.014-10-15.406-7.384-7.4-25.37-19.15-36.71-14.24-2.44 1.057-4.305 3.052-6.023 5.045-7.2 8.353-10.43 17.133-7.986 27.922.49 2.155 8.478 10.89 10.32 12.17" fill="#3E4166"/><path fill="#A3B3EF" d="M650.47 219.7l6.74-.097 1.46 6.978"/><path d="M661.2 228.15l-12.93 12.346s8.904 11.583 22.188-4.687" fill="#F4F7F9"/><path d="M642.117 254.544c-7.055-5.212-3.78-.152-8.88-.195-2.973-.027-6.985-1.038-8.06-3.735 6.923-6.352 17.056-29.658 12.815-37.406 7.54 3.402 12.097-4.675 9.983-11.477-1.41-4.535-11.74-4.146-16.483-3.056-4.743 1.09-6.567 5.694-11.396 6.327-2.86.374-5.806.15-8.595.876-5.654 1.473-9.554 6.536-12.036 11.7-4.503 9.37-7.28 21.235-5.51 31.543 1.397 8.11 16.453 27.504-.175 30.992-3.964.83-8.054-.132-12.1-.308-14.835-.648-15.686 7.957-15 19.5.242 4.08-.4 8.61-3.527 11.346-1.478 1.293-3.377 2.054-4.876 3.324-4.675 3.96-4.844 13.194-.275 17.244 4.572 4.053 11.43 5.39 17.528 4.347 6.098-1.043 11.825-3.008 17.723-4.847 5.9-1.84 14.23-3.027 20.082-1.08 6.49 2.162 10.575 9.76 20.527 9.223 5.112-.275 9.898-2.994 12.807-7.103 2.91-4.11 5.14-15.78 6.106-20.676 1.776-9.023 1.707-47.406-10.657-56.54" fill="#0C1238"/><path d="M645.846 393.47c5.423-7.95 12.032-25.225.264-59.77-2.532-7.432-4.546-17.022-14.146-19.285-2.02-.476-4.127-.405-6.206-.332-18.01.633-34.31-.11-51.996-4.02-6.01-1.328-16.42-2.022-20.074-7.668-1.93-2.983-2.352-6.634-2.727-10.144l-.793-7.474-1.397-13.11c-2.267-21.27-2.416-42.772-5.384-63.923-.014-.1-11.993-4.348-13.218-5.18-2.33-1.585-16.55-20.002-7.443-19.417.676.044 1.296.36 1.895.667 10.227 5.278 27.765 9.293 29.76 22.17 3.858 24.888 9.167 49.352 15.04 73.915.272.97.574 1.957 1.183 2.767 1.05 1.393 2.885 1.895 4.5 2.614 21.37 9.522 34.79 5.257 53.05-.7 27.36-8.925 33.413-.104 48.053-13.447 10.416-9.493 16.7-6.712 33.606-27.068 1.22-1.47 2.254-3.176 2.513-5.046.307-2.22-.642-4.4-1.57-6.446-11.01-24.002-17.82-47.793-34.55-68.896-1.05-1.323-2.154-2.77-2.177-4.445-.015-1.16.498-2.26 1.002-3.313 3.56-7.447 10.795-17.007 11.424-25.192.08-1.035.397-2.373 1.458-2.47.635-.06 1.183.405 1.61.865 7.963 8.55 1.514 20.01-1.205 29.417-1.653 5.72 7.876 14.75 11.107 19.05 13.572 18.066 26.353 35.42 37.837 54.964.938 1.59 1.886 3.248 2.057 5.075.218 2.312-.836 4.546-1.896 6.63-4.586 9.02-11.135 17.478-16.875 25.817-3.694 5.368-7.41 11.108-11.78 15.95-4.38 4.85-10.1 8.34-10.273 15.563-.073 3.025 1.002 5.945 1.98 8.813 5.366 15.725 8.162 32.31 8.085 48.897-.048 10.594.635 39.314-10.432 45.085-2.59 1.35-5.53 1.886-8.425 2.404-10.682 1.912-17.167 3.78-26.84-.164-1.972-.804-18.952-10.312-17.012-13.157" fill="#3E4166"/><path d="M643.648 286.592c7.953-4.397 6.836-9.332 5.99-17.053-1.193-10.914-5.603-14.943-5.603-14.943 2.902-1.135 11.232.262 13.067-2.206-3.628 14.964 11.978 25.87 23.158 24.58" fill="#3E4166"/><path d="M657.35 394.714s-6.42 9.72-6.438 9.75c-1.57 2.375 24.348 33.623 26.52 36.622 9.11 12.58 16.122 23.583 25.41 36.03-1.962-2.627-18.653 6.404-20.732 7.845-6.257 4.338-11.366 10.64-16.983 15.785-8.277 7.58-17.856 14.016-26.132 21.598 2.12 5.35 4.69 11.583 5.974 16.9 19.804-9.01 38.963-19.444 58.882-28.323 9.99-4.455 20.06-8.73 30.174-12.906 7.53-3.11 13.3-7.5 13.404-16.352.082-6.807-3.043-13.203-6.065-19.333-8.157-16.548-14.115-31.49-21.775-48.26-3.405-7.456-6.383-15.12-8.837-22.95-.62-1.97-2.933-12.03-1.643-17.57-.652.033-8.017 7.72-12.702 8.765" fill="#7581CE"/><path d="M564.285 465.487c-4.008-1.516-24.74-7.345-28.747-8.862-1.317 2.23-2.158 4.727-2.452 7.282 5.91 2.404 24.284 10.4 30.438 12.128" fill="#3E4166"/><path d="M563.865 466.598c-1.12-.39-2.324-.78-3.502-1.164-.592-.196-1.194-.367-1.782-.578-.587-.21-1.16-.48-1.767-.635-1.213-.313-2.474-.463-3.696-.746-1.222-.287-2.43-.624-3.624-1.003l-7.16-2.323-3.592-1.16c-.595-.214-1.186-.42-1.782-.652-.592-.215-1.195-.45-1.802-.693l1.318-.463c-.18.247-.352.5-.52.755-.174.253-.368.5-.53.764-.38.506-.474 1.136-.73 1.697-.214.577-.472 1.15-.64 1.75-.174.6-.11 1.24-.267 1.842l-.434-.73c1.257.545 2.487 1.15 3.768 1.627.646.227 1.354.306 1.99.555l1.918.723c1.28.474 2.547.983 3.822 1.473 1.275.485 2.59.874 3.818 1.47.618.29 1.216.627 1.838.91.615.294 1.257.526 1.893.77 1.275.476 2.583.873 3.8 1.497 1.19.684 2.484 1.115 3.776 1.524 1.293.41 2.595.774 3.87 1.083l-.644 2.29c-1.37-.385-2.696-.796-3.992-1.267-1.303-.455-2.584-.948-3.94-1.246-1.335-.362-2.554-1.008-3.8-1.58-1.23-.61-2.5-1.124-3.75-1.68-1.27-.508-2.413-1.322-3.7-1.785-1.27-.504-2.58-.92-3.872-1.368-.65-.217-1.277-.487-1.916-.728-.65-.216-1.15-.786-1.768-1.08-1.25-.545-2.622-.803-3.925-1.193l-.893-.266-.006-1.246c0-.35-.01-.706.12-1.037.13-.333.29-.653.36-.99.148-.675.25-1.368.508-2.014.19-.674.69-1.212.794-1.918.068-.73.474-1.324 1-1.815l.942-.883.63.33c.53.277 1.09.52 1.67.756.57.235 1.196.34 1.78.56 1.172.43 2.318.958 3.486 1.423 2.35.88 4.81 1.4 7.247 2.006 1.217.297 2.445.566 3.64.953 1.197.373 2.354.88 3.556 1.243.6.186 1.23.266 1.843.41.612.147 1.214.327 1.822.493 1.22.347 2.42.666 3.663 1.117l-.84 2.222z" fill="#3E4166"/><path d="M533.448 493.49c2.307-2.274 3.58-5.344 4.545-8.398 1.705-5.404 2.616-11.042 2.697-16.69.013-.834.004-1.68-.23-2.48-.2-.696.1-2.62-.142-3.303-1.075-3.036 3.556-5.16 3.227-6.54-.328-1.377-3.61-2.38-5.735-2.663-1.124-.15-4.783.32-5.846.706l-7.47 41.925c3.098 1.038 6.647-.284 8.954-2.56" fill="#5053AB"/><path d="M534.147 494.2c-1.265 1.265-2.81 2.234-4.53 2.797-1.714.548-3.653.666-5.47.086l-.865-.277.138-.948c.257-1.756.37-3.54.746-5.274.337-1.743.692-3.482 1.066-5.217.365-1.737.665-3.486 1.01-5.227.33-1.744.82-3.46 1.125-5.206.623-3.494.947-7.04 1.62-10.526.164-.872.55-1.705.71-2.577.148-.872.273-1.75.378-2.634.19-1.768.35-3.542.64-5.293l.123-.734.692-.235c.715-.242 1.248-.288 1.836-.352l1.7-.15c.566-.068 1.13-.124 1.72-.152.3-.013.593-.03.954-.01.204.015.345.034.49.053l.44.065c1.16.205 2.276.523 3.402 1.01.557.267 1.112.572 1.667 1.08.272.254.57.58.763 1.077.09.207.167.647.1.964-.06.296-.165.543-.257.724-.193.382-.404.63-.582.89-.183.25-.362.476-.536.694-.35.43-.705.796-1.03 1.144-.656.706-1.12 1.34-1.07 2.052.007.09.04.18.06.27.017.06.07.234.084.322.017.096.037.2.045.283.037.35.04.644.037.935-.01.568-.04 1.124-.023 1.573 0 .1.006.217.01.243l.077.43c.048.32.07.63.075.933.008.608-.04 1.174-.092 1.724-.214 2.213-.332 4.417-.546 6.626-.22 2.207-.533 4.414-1.044 6.58-.307 1.07-.635 2.133-1.002 3.18-.173.53-.384 1.046-.56 1.577-.18.527-.323 1.074-.512 1.608-.778 2.12-1.938 4.184-3.59 5.892m-1.4-1.42c1.45-1.408 2.472-3.235 3.33-5.16.214-.482.463-.956.625-1.467.175-.505.306-1.028.435-1.55.232-1.057.453-2.112.64-3.17.45-2.1.894-4.197 1.225-6.32.33-2.12.544-4.263.604-6.413.02-.542.032-1.064 0-1.537-.014-.237-.042-.464-.085-.678l-.034-.16-.052-.21c-.06-.256-.065-.418-.078-.594-.02-.655.033-1.192.05-1.72.01-.253.012-.506-.002-.696 0-.054-.008-.08-.012-.117-.01-.047.004.003-.012-.07-.048-.177-.1-.35-.124-.536-.134-.733.008-1.51.284-2.13.276-.63.657-1.137 1.047-1.59.388-.455.815-.837 1.216-1.207.395-.36.8-.744 1.006-1.053.056-.078.066-.134.077-.164-.006-.022.007.03-.015-.05-.04-.105-.15-.254-.31-.39-.32-.28-.77-.514-1.232-.716-.924-.424-1.954-.718-2.98-.937-.54-.12-.952-.18-1.5-.162-.524.013-1.06.05-1.597.098-.534.064-1.067.15-1.593.248-.517.1-1.065.217-1.488.368l.388-.462-.994 5.23c-.155.874-.336 1.743-.47 2.62-.144.876-.15 1.776-.275 2.655-.52 3.512-1.1 7.013-1.67 10.516-.265 1.756-.504 3.515-.858 5.255-.348 1.74-.766 3.468-1.06 5.218l-.873 5.25c-.266 1.757-.763 3.47-1.094 5.214l-.522-.88c.685.224 1.412.325 2.143.297.73-.037 1.46-.187 2.16-.43 1.394-.496 2.68-1.336 3.703-2.393" fill="#5053AB"/><path d="M534.18 451.95c.563.24-8.664 45.973-8.664 45.973" fill="#5E6EBF"/><path d="M534.473 451.262c.102.045.214.124.295.226.09.113.125.215.12.21.02.05.035.102.046.154.012.07.012.09.017.14l.004.152-.01.225-.037.39-.108.745c-.083.488-.148.975-.257 1.454-.332.937-.207 1.95-.32 2.923-.25 1.94-.776 3.83-1.15 5.745l-.3 1.432-.346 1.423c-.223.952-.46 1.9-.723 2.84-.14.472-.202.956-.293 1.435-.08.48-.204.953-.305 1.43l-.343 1.424c-.108.476-.167.96-.25 1.442-.172.96-.42 1.904-.615 2.86-.257.944-.14 1.96-.37 2.91l-.955 5.775c-.205.953-.547 1.88-.676 2.85-.183.956-.317 1.924-.545 2.872-.136.47-.296.936-.394 1.414-.087.48-.19.956-.258 1.44l-.448 2.894-1.467-.295.535-2.875c.097-.477.173-.96.258-1.44.078-.48.098-.974.154-1.46.145-.965.413-1.906.65-2.852.254-.944.425-1.904.65-2.854.653-1.857.79-3.818 1.093-5.745.092-.48.12-.97.354-1.423.097-.23.207-.456.246-.696l.103-.724c.107-.973.113-1.965.314-2.92.124-.47.32-.93.392-1.412.092-.478.162-.96.243-1.442.102-.476.177-.96.302-1.43.12-.474.268-.942.296-1.432.027-.49.04-.984.177-1.454.106-.476.3-.935.444-1.403.07-.235.147-.468.192-.708.04-.24.065-.483.125-.72.126-.472.284-.938.437-1.406.305-.936.448-1.9.563-2.87.122-.968.215-1.94.363-2.904.172-.956.56-1.877.528-2.868.04-.486.114-.965.16-1.443l.068-.71.028-.336.005-.14v-.03c0 .017 0 .01.006.05.006.036.017.073.032.11-.005-.016.026.08.11.19.076.094.183.17.28.206l.586-1.375z" fill="#FFF"/><path d="M528.413 484.562c3.154-.41 7.298 1.084 9.018 3.685-3.236 7.324-4.142 8.392-11.645 9.663l2.63-13.348z" fill="#FFF"/><path d="M528.82 484.996l-.56 3.3c-.104.54-.12 1.142-.196 1.695-.085.55-.216 1.068-.328 1.6-.27 1.04-.46 2.13-.716 3.194-.326 1.04-.52 2.144-.647 3.244l-.69-.708c.657-.16 1.313-.305 1.965-.445.323-.08.67-.046 1.005-.077.333-.04.64-.173.953-.27.614-.243 1.187-.553 1.728-.852.27-.152.546-.278.827-.408.278-.138.52-.328.74-.542.44-.427.835-.91 1.206-1.432.403-.5.757-1.06.956-1.7.234-.622.646-1.162.997-1.74.18-.29.32-.595.44-.91.138-.308.317-.6.487-.894l.04.466c-.32-.723-.915-1.326-1.606-1.75-.684-.438-1.443-.747-2.203-1.02-.762-.245-1.506-.67-2.338-.652-.205 0-.407-.005-.607-.028l-.6-.012-.597.027c-.12.027-.137-.01-.256-.083m-.813-.867c.298-.114.703-.202 1.01-.213l.678-.006c.45.027.9.034 1.336.145.858.243 1.785.2 2.64.527.86.286 1.65.755 2.385 1.302.723.56 1.388 1.222 1.905 2.016l.19.293-.14.313c-.277.62-.59 1.227-.904 1.835-.32.605-.626 1.22-.998 1.805l-1.1 1.77c-.405.574-.877 1.114-1.43 1.564-.552.445-1.116.89-1.755 1.2-.64.297-1.308.507-1.972.696-.33.1-.67.16-.993.274-.325.117-.648.253-.98.336-.67.157-1.338.3-2.006.434l-.722.145.133-.75.3-1.717c.095-.575.178-1.156.287-1.73.25-1.137.58-2.228.757-3.392.113-.57.204-1.157.34-1.714.146-.552.333-1.065.423-1.65.224-1.14.407-2.318.62-3.48" fill="#FFF"/><path d="M540.08 472c-.048.01-.125.085-.147.15-.02.066-.017.092.01.078.02-.005.058-.03.05-.045-.012-.02-.036-.034-.074-.047-.075-.025-.17-.035-.22-.06-.077-.022-.16-.205-.24-.362-.067-.165-.14-.33-.236-.476l-.14-.225c-.04-.08-.066-.173-.11-.252-.083-.16-.158-.327-.21-.52-.03-.095-.105-.148-.175-.205-.063-.064-.114-.14-.16-.217-.05-.08-.086-.17-.14-.243-.053-.075-.144-.112-.22-.162-.14-.115-.23-.28-.355-.414-.09-.174-.43-.06-.543-.198-.164-.08-.31-.182-.466-.27-.142-.106-.342-.134-.483-.238-.132-.118-.196-.338-.37-.398-.16-.084-.35-.113-.47-.253-.085-.2-.238-.298-.42-.338-.176-.048-.35-.1-.53-.137-.41-.08-.675-.48-.594-.89.08-.41.48-.675.89-.594.055.012.11.03.16.053l.226.103c.178.08.364.146.536.24.086.047.172.09.268.12.093.038.22.015.324.034.196.06.32.238.453.39.13.158.306.248.442.394.064.075.11.18.163.27.054.088.146.126.23.175.18.083.387.137.562.233.076.062.188.084.172.252-.023.175.076.207.172.246.196.072.48.056.603.213.048.093.045.236.127.292.068.07.165.112.236.18.07.07.14.14.186.23.04.097.067.204.18.235.114.03.244.047.273.153.046.09.036.227.053.34.01.054.02.11.05.147.033.035.082.06.1.107.04.093.037.22.048.33.002.24.16.36.32.482l.237.187c.078.046.19.16.245.267.122.246-.015.515.203.804.05.163.046.37-.034.603-.082.232-.282.452-.487.56-.366.194-.818.055-1.01-.31-.195-.365-.055-.817.31-1.01m-.478 4.27c-.093-.088-.166-.19-.22-.31.056-.214-.262-.11-.383-.165-.24-.12-.284-.42-.45-.612l-.114-.153c-.032-.058-.052-.128-.084-.185-.063-.117-.126-.236-.156-.393-.02-.073-.082-.1-.138-.134-.053-.036-.088-.093-.125-.15-.06-.125-.128-.25-.275-.272-.112-.067-.172-.198-.266-.29-.064-.13-.35.034-.433-.066-.127-.04-.24-.102-.356-.155-.105-.072-.27-.056-.37-.132-.095-.083-.126-.272-.256-.303-.12-.05-.268-.048-.347-.163-.05-.17-.154-.246-.292-.258-.135-.02-.26-.052-.398-.063-.42-.033-.734-.4-.702-.82.033-.42.4-.735.82-.703.082.007.16.026.23.055l.335.14c.13.052.265.094.39.157.062.032.125.06.197.077.067.023.17-.018.25-.016.148.03.226.176.32.29.086.13.218.18.314.29.046.057.07.146.108.216.035.07.107.09.17.117.14.046.305.053.44.107.058.038.147.036.12.188-.033.16.045.17.123.184.16.02.393-.048.49.058.033.07.02.197.085.23.05.046.132.06.187.103.054.043.107.09.142.156.03.07.046.155.14.156.096-.002.205-.016.227.064.034.068.02.185.03.276.005.045.012.088.037.112.028.02.07.03.083.064.03.068.022.175.03.265-.004.197.125.26.267.314l.203.096c.074.027.146.055.193.105.094.106.007.36.25.337.135.067.25.152.346.254.28.298.267.768-.03 1.05-.288.27-.738.267-1.02-.003l-.118-.113zm-.396 4.84c-.075-.067-.133-.15-.17-.25.074-.196-.23-.074-.334-.113-.205-.084-.21-.348-.337-.507l-.084-.13c-.02-.048-.03-.11-.052-.16-.042-.1-.083-.203-.09-.343-.01-.064-.06-.085-.106-.112-.04-.032-.065-.08-.09-.13-.037-.11-.08-.218-.207-.23-.09-.056-.123-.173-.194-.25-.037-.118-.31.05-.37-.04-.105-.032-.194-.084-.29-.128-.08-.062-.223-.04-.3-.107-.07-.074-.066-.25-.175-.275-.094-.042-.22-.038-.272-.143-.013-.16-.093-.228-.208-.236-.112-.02-.214-.048-.328-.056-.424-.03-.743-.4-.713-.824.03-.423.4-.742.824-.71.1.006.192.032.276.072l.405.196c.1.048.21.086.304.144.048.03.098.056.155.07.053.02.15-.02.22-.02.12.023.163.158.225.264.054.117.16.16.228.26.03.05.04.133.06.196.02.065.08.078.133.1.112.037.256.036.365.08.046.034.126.026.08.17-.05.147.015.153.083.16.136.01.352-.065.422.027.02.06-.008.177.045.2.04.04.108.048.15.084.044.036.086.074.11.132.016.063.02.14.104.134.086-.008.185-.028.195.043.02.058-.006.165-.01.246 0 .037 0 .076.02.096.023.017.06.02.068.05.018.06-.003.157-.008.237-.026.177.085.22.207.26l.173.065c.064.016.127.035.165.076.074.084-.033.318.192.274.118.046.215.11.294.19.286.293.28.762-.014 1.046-.28.273-.724.278-1.01.018l-.144-.13z" fill="#0C1238"/><path d="M539.863 470.525c.84-.167 1.71-.29 2.602-.36.9.088 1.795-.126 2.757-.078.967.067 1.915.41 2.74.972.83.55 1.548 1.352 1.945 2.327l.234.577-.455.374c-.464.38-1.07.593-1.612.614-.548.033-1.05-.063-1.497-.22-.91-.303-1.65-.772-2.362-1.2l-1.057-.7c-.354-.23-.724-.43-1.087-.643-.72-.44-1.398-.94-2.07-1.445l-.408-.306.328-.325c.303-.3.474-.71.615-1.128.124-.426.27-.862.358-1.328.09-.464.2-.944.257-1.414.082-.467.08-.944-.012-1.398-.062-.45-.086-.886-.212-1.293-.114-.394-.306-.76-.542-1.082-.24-.32-.537-.578-.858-.743-.162-.08-.333-.126-.5-.154-.175-.025-.353-.012-.346.003.026-.004-.002 0-.072.133-.076.118-.162.325-.23.494-.143.357-.22.762-.19 1.18.09.837.428 1.675.866 2.46.624 1.746 2.224 3.12 2.844 5.25l-1.45.358c-.22-.82-.66-1.598-1.158-2.388-.256-.392-.524-.79-.82-1.184-.296-.395-.65-.766-.903-1.24-.502-.93-.823-1.997-.874-3.134-.034-.567.014-1.163.19-1.73.092-.293.19-.54.36-.843.177-.28.51-.657 1.006-.78.47-.108.78-.007 1.07.06.3.074.58.196.854.326.537.28.977.684 1.343 1.133.36.454.635.978.8 1.54.076.277.123.554.16.83.034.275.06.55.004.817-.052.268-.14.523-.192.775-.048.252-.044.506-.068.756-.052.502-.036.98-.07 1.492-.008.256-.043.515-.09.78-.04.266-.11.536-.22.8-.23.523-.612.997-.975 1.478l-.156-1.24c.337.23.693.435 1.04.65.34.23.69.437 1.027.668.337.233.663.487 1.035.66.365.186.783.272 1.134.48.738.374 1.304 1.008 2.02 1.173.694.132 1.338.385 1.878.013l-.13.553c-.243-.715-.855-1.262-1.532-1.617-.68-.37-1.447-.543-2.2-.686-.76-.17-1.592-.307-2.395-.055-.814.107-1.627.298-2.464.452l-.26-1.472z" fill="#0C1238"/><path d="M696.42 382.926c-1.97.48-6.13 19.16-6.823 21.66-2.59 9.348-4.735 18.807-6.555 28.32-3.65 19.078-5.965 38.37-7.85 57.674-.278 2.84-.573 5.773-1.982 8.28-2.18 3.88-6.64 6.027-11.04 7.115-11.94 2.952-22.702-1.734-33.823-5.16-10.652-3.284-21.216-6.87-31.818-10.303l-41.075-13.3 5.265-15.467s51.543.983 61.275 2.932c2.572.515 16.012 5.184 16.468 8.396-3.054-21.476-9.47-40.12-5.818-62.59 2.553-15.714 17.105-29.653 17.105-29.653 6.773 11.12 45.657 2.342 46.67 2.096" fill="#A3B3EF"/><path d="M709.72 317.518c4.08 16.675 5.37 34.046 3.598 51.13 1.028-9.923-32.063 4.332-34.49 5.902-8.675 5.618-16.92 12.362-26.825 15.268-4.956 1.454-10.48 1.836-15.138-.408-.855-.413-1.732-.983-2.034-1.887-.602-1.813 1.35-3.345 2.915-4.43 15.567-10.792 13.467-31.01 5.8-48.61-.655-1.503-2.03-2.712-2.15-4.35-.073-.99.22-1.966.446-2.934 1.963-8.376-.023-11.433-5.79-24.65-.997-2.285-12.01-18.312-11.856-18.685 1.19-2.905 5.43-3.23 8.073-1.556 2.645 1.674 4.195 4.584 6.033 7.13 5.38 7.447 14.146 12.314 23.277 12.923 13.576.904 27.005-4.642 23.813-19.952-1.105-5.3-3.507-8.317-6.133-13.045-2.19-3.94 5.344-5.225 6.264-4.672 3.15 1.892 6.837 10.518 8.65 13.7 5.157 9.04 9.36 18.626 12.554 28.538 1.125 3.49 2.125 7.023 2.997 10.587" fill="#F4F7F9"/><path d="M583.003 268.607c-2.073 5.432 7.108 8.67 10.85 5.78 1.602-1.24 1.863-3.713.792-5.406-2.055-3.25-9.953-4.8-11.642-.372" fill="#0C1238"/></g></g></svg>