<svg xmlns="http://www.w3.org/2000/svg" viewBox="0 0 470 350" enable-background="new 0 0 470 350"><g><path fill="#E6E8F0" d="M322 120h68v69h-68zM390.96 189.96l-17.15.22-17.23.19-17.29.08c-5.76.01-11.52.04-17.28-.02l-1.44-.01.01-1.42.21-34.5c.05-5.75.03-11.5 0-17.25l-.07-17.25v-1.27l1.28-.01 17-.07 8.5-.04 8.5.03 34 .13h1.22v1.22l.02 35.01c.02 5.86-.06 11.68-.11 17.51l-.17 17.45zm-1.92-1.92l-.24-17.11c-.07-5.69-.18-11.37-.2-17.01l-.06-16.95.05-16.97 1.41 1.41h-34c-11.33.03-22.67-.1-34-.14l1.27-1.27c-.04 11.5-.18 23-.13 34.5l.08 34.5-1.22-1.22c5.59-.03 11.18.02 16.78.06l16.79.13c5.61.07 11.17.02 16.76.05l16.71.02z"/><path fill="#fff" d="M361 172.7h41v52.3h-41z"/><path fill="#D5DAEA" d="M358.31 135.21c1.81 1.1 2.9 2.78 3.73 4.33.63 1.69 1.79 3.12 2.45 4.84 1.26 3.41 1.5 7.36.22 11.02-.32.91-.79 1.77-1.33 2.57-.29.39-.62.74-.94 1.11-.35.33-.69.66-1.06.97-1.49 1.21-3.33 1.99-5.2 2.19-.93.06-1.85.18-2.77.11-.92-.03-1.81-.26-2.69-.48-.86-.28-1.7-.61-2.5-1.01-.81-.38-1.62-.76-2.39-1.22-1.53-.93-2.86-2.15-4.07-3.45-1.09-1.39-2.55-2.57-3.3-4.27-.85-1.62-1.38-3.47-1.44-5.38-.02-.96.08-1.91.28-2.88.22-.97.65-1.87 1.14-2.69 1.05-1.62 2.58-2.76 4.02-3.88 1.5-1.06 3.12-1.96 4.89-2.46.9-.21 1.8-.33 2.71-.46.9-.15 1.82-.22 2.75-.23 1.83-.01 3.77.33 5.5 1.27zm-1.2 2.04c-1.31-.73-2.83-1.05-4.38-1.08-.78-.04-1.56.07-2.34.2-.78.15-1.52.46-2.25.75-1.48.52-2.95 1.14-4.29 1.97-.67.41-1.3.89-1.83 1.44-.56.53-1.06 1.14-1.49 1.77-.46.61-.84 1.27-1.1 1.96-.13.34-.17.74-.25 1.11-.02.38-.05.77-.03 1.15.08 1.54.62 3.03 1.34 4.42.35.71.82 1.33 1.1 2.11.25.81.85 1.39 1.43 1.95 1.2 1.11 2.64 1.9 3.96 2.76.64.46 1.27.99 2.02 1.28.73.33 1.49.55 2.25.75.76.19 1.52.32 2.28.41.76.12 1.54.13 2.27-.07.72-.26 1.38-.56 2.05-.83.67-.27 1.36-.57 2-.99.31-.22.61-.47.88-.74l.69-.92c.46-.61.92-1.24 1.27-1.96.72-1.44.83-3.14.63-4.76-.18-1.63-.66-3.22-1.2-4.78-.5-1.56-.88-3.24-1.95-4.56-.9-1.39-1.83-2.71-3.06-3.34z"/><path fill="#fff" d="M334.12 165.23c1.82-.82 3.6-1.76 5.27-2.87 1.84-.89 3.07-2.61 4.44-4.04 2.7-2.92 5.23-6.06 7-9.68.83-1.82 1.63-3.67 2.21-5.6l.43-1.45.32-1.48c.25-.98.38-1.98.54-2.99.16-2.01.24-4.11-.36-5.82-.29-.85-.82-1.56-1.59-1.86-.75-.31-1.67-.1-2.41.36-.74.49-1.4 1.11-1.77 1.96-.4.84-.58 1.8-.64 2.79-.07.99-.04 2.02.19 3.03.22 1.01.31 2.02.49 3.01.36 1.99.89 3.92 1.7 5.7.81 1.78 2.03 3.29 3.47 4.47.69.63 1.48 1.17 2.33 1.65.84.49 1.76.89 2.72 1.19 1.91.64 3.92 1.09 5.9 1.58.98.28 1.97.57 2.98.74 1.01.15 2.03.29 3.05.36 2.04.15 4.08.18 6.12.1l.01 2.36c-2.12.03-4.25-.04-6.36-.26-1.06-.12-2.11-.22-3.17-.38-1.06-.12-2.12-.22-3.18-.38-1.06-.17-2.08-.49-3.1-.79-1.02-.3-2.03-.65-3.04-1.04-2-.81-4.08-1.72-5.83-3.23-3.27-3.27-5.06-7.5-5.83-11.75-.17-1.07-.37-2.13-.22-3.22.05-.54.11-1.07.09-1.61-.02-.54-.06-1.09-.04-1.65.01-1.12.08-2.32.52-3.52.19-.59.55-1.21.98-1.73.42-.53.94-.98 1.54-1.31 1.2-.65 2.77-.82 4.2-.31 1.43.5 2.43 1.75 2.89 2.93.45 1.2.63 2.37.63 3.51-.04 1.12-.14 2.17-.12 3.26.13 2.18-.38 4.35-1.21 6.35l-.53 1.52c-.16.51-.31 1.03-.5 1.53-.44.98-.97 1.92-1.48 2.86-1.13 1.82-2.08 3.7-3.26 5.48-1.13 1.81-2.45 3.5-3.91 5.06-1.57 1.48-3.37 2.63-4.99 4.03-1.69 1.33-3.61 2.32-5.55 3.28l-.93-2.14z"/><path fill="#D5DAEA" d="M370.16 199.24l-.12.19-.04.08c.03-.08.04-.11-.03-.38l-.18-.27-.12-.08-.05-.03.14-.02c.17-.02.35-.05.55-.11.4-.09.81-.28 1.24-.43.43-.15.89-.3 1.26-.59.79-.53 1.4-1.29 2.07-1.94.33-.33.67-.65.98-1 .32-.34.65-.66.95-1.02 1.24-1.39 2.3-2.96 3.01-4.7.67-1.75 1.18-3.58 1.36-5.49l1.09 1.09c-.84 0-1.67.18-2.44.59-.79.41-1.34 1.18-1.81 1.96-.91 1.58-1.53 3.55-1.21 5.46.22 1.87.78 3.83 2.19 5.11.36.31.8.5 1.2.7.41.19.81.41 1.24.55.85.3 1.72.4 2.54.27.82-.12 1.59-.48 2.23-1.02.61-.57 1.11-1.28 1.4-2.02.33-.71.44-1.51.24-1.75-.05-.05-.1-.14-.22-.16l-.18-.04-.08.01c-.04 0-.17.09-.27.33-.09.23-.14.54-.06.78.09.24.2.43.39.63.37.42 1.29.69 2.18.51.45-.06.9-.16 1.37-.29.48-.14.97-.3 1.5-.45 1.04-.28 2.29-.51 3.62-.15l-.72 2.25c-.67-.2-1.49-.11-2.41.12l-1.45.38c-.53.12-1.1.26-1.68.34l-.9.07c-.31 0-.64-.01-.97-.02-.33-.01-.69-.11-1.04-.18-.35-.12-.74-.27-1.07-.51-.71-.48-1.21-1.3-1.39-2.13-.19-.85-.04-1.69.34-2.46.19-.38.48-.76.86-1.06.38-.31.92-.54 1.46-.58.26 0 .58 0 .78.05.2.06.4.09.6.2.4.17.81.45 1.12.8.63.74.77 1.63.74 2.34-.04.72-.22 1.35-.48 1.93-.56 1.14-1.43 2-2.36 2.75-.93.75-2.07 1.3-3.3 1.52-1.23.22-2.52.08-3.63-.35-.56-.22-1.12-.45-1.6-.82-.47-.38-.82-.9-1.21-1.33-1.6-1.64-3.03-3.74-3.18-6.11-.01-.59.08-1.17.13-1.74.06-.57.09-1.14.21-1.71.17-1.14.57-2.26 1.17-3.29.63-1.03 1.54-1.85 2.48-2.68.49-.4 1.03-.8 1.66-.98.62-.21 1.28-.27 1.91-.23l1.66.09-.25 1.34c-.2 1.08-.5 2.11-.64 3.17-.16 1.06-.7 2.03-1.17 2.98-1.01 1.86-1.87 3.77-3.16 5.47-.63.85-1.33 1.66-2.13 2.37-.81.7-1.77 1.19-2.68 1.74-.46.26-.9.59-1.37.87-.48.28-1 .48-1.56.66-.28.09-.59.16-.92.21-.36.02-.7.1-1.32-.14-.25-.07-.73-.45-.87-.86-.2-.5-.12-.78-.07-1.11.07-.22.16-.45.25-.62l.28-.45 1.94 1.39z"/><path fill="#EFA125" stroke="#EFA125" stroke-linecap="round" stroke-linejoin="round" stroke-miterlimit="10" d="M180.53 68.04c2.4 10.55-3.51 22.39-13.39 26.8-16.71 7.45-42.89-11.16-32.2-29.89 10.58-18.55 40.1-21.01 45.59 3.09z"/><path fill="#FFC04D" d="M126.71 140.89c-1.31-.51-2.56-1.06-3.75-1.67-23.44-11.94-24.24-42.6-2.18-57.78 10.6-7.3 24.85-8.98 36.86-4.36 1.33.51 2.58 1.12 3.76 1.82 27.85 16.41 15.81 81.49-34.69 61.99zM126.28 141.99l-3.28-1.47c-.56-.23-1.07-.54-1.6-.82-.52-.3-1.06-.56-1.56-.9-2.05-1.25-3.98-2.71-5.72-4.37l-1.26-1.29-1.19-1.35c-.4-.45-.77-.92-1.17-1.38-.4-.45-.77-.93-1.12-1.42-1.44-1.93-2.69-4.03-3.66-6.27-1.89-4.49-2.64-9.45-2.27-14.29.31-4.85 1.76-9.57 3.94-13.87 1.13-2.13 2.46-4.15 3.96-6.03 1.52-1.87 3.24-3.55 5.05-5.11 1.83-1.54 3.8-2.9 5.85-4.13 2.09-1.17 4.27-2.15 6.5-2.95 2.26-.73 4.52-1.47 6.86-1.9 2.33-.44 4.7-.69 7.07-.69 2.37-.01 4.74.15 7.07.57 1.17.17 2.32.44 3.48.67 1.14.32 2.3.58 3.41.99 1.13.35 2.25.79 3.32 1.34.54.27 1.06.56 1.58.86.51.31.99.67 1.49 1 .48.35 1 .65 1.46 1.04l1.35 1.17.68.59c.22.2.41.43.62.65l1.21 1.31c3.02 3.64 5.6 7.79 6.89 12.4 1.38 4.56 1.96 9.35 1.81 14.11-.16 4.76-1 9.53-2.74 14.01-.5 1.09-.9 2.22-1.51 3.26-.56 1.06-1.12 2.12-1.81 3.11l-.99 1.5-1.12 1.41c-.39.46-.7.98-1.13 1.4l-1.23 1.32c-3.33 3.45-7.5 6.25-12.16 7.59-1.18.27-2.33.62-3.52.81-1.19.14-2.38.33-3.57.42-1.19.05-2.39.12-3.58.15l-3.57-.19c-4.75-.46-9.36-1.68-13.84-3.25zm.86-2.2c4.3 1.55 8.71 2.76 13.21 3.23l3.37.19c1.12-.03 2.24-.1 3.36-.14 1.11-.11 2.2-.38 3.3-.56 1.08-.24 2.13-.62 3.2-.91l3.07-1.22c.98-.51 1.97-.99 2.92-1.54.9-.64 1.86-1.19 2.71-1.89.83-.73 1.76-1.36 2.49-2.19 3.18-3.12 5.55-7.03 7.22-11.2 1.74-4.15 2.86-8.65 2.9-13.2.11-4.54-.46-9.09-1.79-13.38-.29-1.09-.72-2.13-1.14-3.16-.35-1.07-.88-2.05-1.26-3.12-.41-1.05-1-2.01-1.56-2.99-.32-.46-.69-.89-1.03-1.33-.36-.43-.66-.91-1.07-1.29-.39-.4-.78-.8-1.18-1.19-.2-.19-.39-.4-.6-.58l-.66-.52-1.31-1.03c-.44-.34-.94-.59-1.4-.89-1.84-1.25-3.84-2.08-5.96-2.8-4.15-1.68-8.72-2.34-13.21-2.17-2.25 0-4.49.31-6.71.66l-1.66.31c-.55.12-1.09.28-1.64.41-1.1.25-2.15.67-3.2 1.09-4.1 1.86-8.03 3.99-11.59 6.8-1.77 1.4-3.33 3.06-4.74 4.82-1.44 1.74-2.78 3.57-3.89 5.55-2.22 3.96-3.48 8.48-3.63 13.02-.21 4.54.66 9.08 2.36 13.23.78 2.11 1.82 4.12 3.08 6 1.23 1.89 2.72 3.63 4.47 5.07 1.72 1.46 3.49 2.86 5.45 3.99.47.31.99.55 1.48.82.5.26.99.55 1.52.76l3.12 1.35z"/><path fill="#FFD57D" stroke="#FFD57D" stroke-linecap="round" stroke-linejoin="round" stroke-miterlimit="10" d="M126.71 140.89c-1.31-.51-2.56-1.06-3.75-1.67l-.07-.48c-1.44-11.21 6.06-22.17 13.36-25.46 8.45-3.8 22.04-1.08 21.85-22.56-.04-4.99 1.29-8.85 3.3-11.82 27.85 16.41 15.81 81.49-34.69 61.99z"/><path fill="#fff" d="M337.5 288.87l-124.1 3.79c.11-1.61.22-3.02.25-4.11.55-17.16 4.01-35.26 16.81-47.71 8.45-8.22 19.73-12.71 29.79-18.84 10.07-6.14 19.71-15.2 20.95-26.92 1.67-15.73-12.01-28.72-16.05-44.01-4.73-17.87 4.65-37.1 18.67-49.14 2.23-1.92 4.56-3.7 6.98-5.35l46.16.92.54 191.37z"/><path fill="#0C1238" d="M315.43 95.11l-.03-14.6 1.55 1.55c-6.17.11-12.33-.37-18.49-.02-6.16.16-12.33.44-18.49.38l-9.25.03-9.25-.08-18.49-.15c-6.17-.04-12.33-.03-18.49-.12l-18.49-.24c-6.17-.05-12.33-.27-18.49-.3l-9.25.03-9.26-.07 1.02-1.02-.14 12.25c-.05 4.08.04 8.17.06 12.25l-.1 24.5c-.06 4.08.09 8.17.22 12.25.18 4.08.14 8.17.19 12.25l.19 24.5c.05 8.17.27 16.33.14 24.5l-.17 12.25c-.06 4.08.02 8.17.02 12.25l.06 12.25.01 3.06-.06 3.06-.11 6.12c-.03 2.04-.09 4.08-.1 6.12l.02 6.12.12 12.25-1.42-1.37 15.98-.73c.87-.04 1.6.63 1.64 1.5.04.87-.63 1.61-1.5 1.64h-.04l-15.98.6c-.91.03-1.67-.67-1.7-1.58v-.07l-.05-12.25-.03-6.12-.14-6.12c-.26-8.17-.13-16.33-.04-24.5.14-8.17.18-16.33.21-24.5-.01-4.08.12-8.17.2-12.25.04-4.08.17-8.17.08-12.25-.17-16.33-.58-32.67-.02-49-.15-8.17-.5-16.33-.55-24.5.05-4.08.26-8.17.24-12.25l-.07-12.25c-.01-1.01.8-1.82 1.81-1.83h.01l9.25.02c3.08.06 6.16.11 9.25.12 6.16-.01 12.33-.49 18.49-.19 3.08.07 6.16.16 9.25.26 1.54.04 3.08.12 4.62.13h4.62c3.08-.04 6.17.09 9.25.18l9.25.24c12.33.24 24.66-.13 36.99-.29 6.17-.12 12.33.03 18.49.11 6.17.24 12.33-.25 18.49-.19.79.01 1.42.65 1.44 1.43l.19 14.6c.01.87-.68 1.58-1.55 1.59s-1.58-.68-1.59-1.55v-.01.01zM338.63 289.96l-38.17 1.36c-6.39.2-12.81.31-19.16.56l-19 .93-9.53.47c-3.18.15-6.38.23-9.57.35l-19.15.64-38 .99h-.01c-.98.03-1.79-.74-1.81-1.72v-.05l.18-49.75.38-49.75.13-12.44c.04-4.15 0-8.29 0-12.44-.03-8.29.02-16.58.05-24.88l.15-24.88c.02-8.29-.05-16.58-.08-24.88 0-.53.43-.96.96-.96h.03l37.74.86c12.58.4 25.17.21 37.75.39l75.49 1.17c.83.01 1.5.69 1.51 1.52v.02l.1 12.03.04 6.02-.03 6.01-.13 24.04.14 48.15c-.01 8.02-.12 15.98-.18 23.96l-.05 5.98.02 6.02.04 12.04.16 48.24zm-2.26-2.18l-.41-47.68-.1-11.9c-.02-3.96-.07-7.94-.16-11.93-.14-7.97-.3-15.93-.36-23.84l-.02-23.69.05-23.71c-.03-15.83-.06-31.66.12-47.52l1.45 1.47c-12.58-.42-25.16-.5-37.74-.68l-37.74-.52c-6.29-.01-12.58-.35-18.86-.67-6.29-.3-12.58-.28-18.87-.33l-37.75-.27 2.04-2-.25 24.88.08 24.88c.09 16.58-.38 33.17.05 49.75.31 16.58-.48 33.17-.4 49.75.07 8.29-.19 16.58-.29 24.88l-.16 12.44-.07 6.22.02 6.22-1.01-.98 18.94-.66 18.86-.74 18.77-.71c3.13-.1 6.25-.23 9.38-.3l9.41-.19 18.85-.38 18.69-.69 37.48-1.1z"/><path fill="#5053AB" stroke="#5053AB" stroke-width="3" stroke-linecap="round" stroke-linejoin="round" stroke-miterlimit="10" d="M289 118l-25 25h25z"/><path fill="#0C1238" d="M309.57 143c.02 1.9-.35 3.83-1.17 5.56-1.05 1.58-1.56 3.48-2.87 4.98-1.3 1.46-3.01 2.53-4.84 3.22-1.83.69-3.78.97-5.7.95l-1.44-.1c-.47-.07-.95-.16-1.42-.24-.46-.13-.92-.28-1.37-.43-.45-.17-.88-.37-1.32-.55-.43-.21-.84-.45-1.25-.67-.4-.25-.78-.53-1.17-.79-.37-.28-.71-.61-1.06-.92l-.96-1.02c-.28-.37-.58-.72-.89-1.06l-.84-1.1c-.25-.38-.48-.79-.69-1.19-.18-.42-.38-.84-.55-1.26-.14-.44-.28-.88-.39-1.32-.08-.45-.2-.89-.27-1.34-.03-.45-.15-.9-.21-1.35l-.12-1.36c-.03-1.83.46-3.63 1.17-5.29.35-.84.8-1.61 1.12-2.5.19-.43.43-.82.68-1.22l.9-1.07c1.26-1.37 2.82-2.49 4.55-3.25 1.73-.72 3.6-1.32 5.52-1.3.48.04.95.07 1.43.14.47.1.93.21 1.39.32.91.27 1.81.55 2.69.88 1.75.68 3.46 1.64 4.72 3.06.29.38.57.76.84 1.15.24.41.51.79.77 1.17.25.4.5.79.73 1.19l.64 1.25c.81 1.68 1.31 3.55 1.38 5.46zm-3.14 0c-.03-1.5-.38-2.97-.95-4.34-.15-.34-.33-.67-.5-.99l-.6-.93c-.24-.28-.49-.56-.76-.81-.29-.23-.58-.46-.85-.7-1.08-.94-2.18-1.88-3.5-2.54-1.3-.69-2.79-.94-4.27-1.02-.37-.01-.74-.02-1.12-.05-.38-.01-.75.01-1.14.03-.38.05-.74.15-1.11.24-.36.13-.7.29-1.05.43-1.38.64-2.52 1.67-3.52 2.74l-.71.84c-.2.31-.49.54-.81.78-.28.26-.6.51-.77.85-.15.35-.31.69-.42 1.06-.4 1.48-.31 2.99-.34 4.42-.01.36-.06.72-.11 1.1 0 .37.02.74.08 1.1.07.36.21.71.3 1.06l.41 1.02c.14.34.31.66.46.99.17.32.38.62.53.96l.58.95c.23.29.5.55.78.79l.95.59c.33.17.61.39.88.64.3.2.57.45.86.69.3.21.59.47.91.67.33.17.66.38 1.02.49.37.08.74.14 1.1.25.37.09.73.21 1.1.31l1.14.26c1.56.27 3.18-.13 4.56-.85 1.41-.69 2.58-1.74 3.63-2.82 1.05-1.04 2.35-2.13 2.57-3.73.47-1.47.74-2.98.67-4.48zM204.43 165.94c4.47-.22 8.94-.47 13.4-.59 4.47-.07 8.94-.23 13.4-.16l13.4.15c2.23.05 4.46 0 6.7-.04l6.69-.11 6.69-.11 3.35-.06 3.35.03 13.38.14c2.23.04 4.46-.03 6.69-.04l6.68-.23c2.22-.11 4.45-.1 6.67-.18l6.63-.22.22 3.6c-9.01.72-17.93.72-26.87.6-8.93.07-17.85.09-26.77-.12l-6.69-.09c-2.23-.04-4.46-.06-6.69-.01-4.46.05-8.92.13-13.37.24-2.23.08-4.46.04-6.69.06l-6.68.05c-2.23 0-4.45.18-6.68.26l-3.33.19-3.33.27-.15-3.63z"/><path fill="#D5DAEA" d="M204.46 211.84c8.93-.44 17.86-.65 26.79-.7l13.39.01c4.46.02 8.93-.08 13.39-.11 8.92-.15 17.85-.06 26.77-.04 4.46.01 8.92-.08 13.38-.19 4.45-.13 8.91-.15 13.33-.41.5-.03.92.35.95.84.03.5-.35.92-.84.95-8.96.57-17.88.6-26.81.56-8.93.04-17.85.07-26.77-.02-8.92-.09-17.84-.01-26.76.17l-13.38.17c-4.46.11-8.91.28-13.36.57-.5.03-.93-.34-.96-.84s.34-.93.84-.96h.04zM204.46 175.84c8.93-.44 17.86-.65 26.79-.7l13.39.01c4.46.02 8.93-.08 13.39-.11 8.92-.15 17.85-.06 26.77-.04 4.46.01 8.92-.08 13.38-.19 4.45-.13 8.91-.15 13.33-.41.5-.03.92.35.95.84.03.5-.35.92-.84.95-8.96.57-17.88.6-26.81.56-8.93.04-17.85.07-26.77-.02-8.92-.09-17.84-.01-26.76.17l-13.38.17c-4.46.11-8.91.28-13.36.57-.5.03-.93-.34-.96-.84s.34-.93.84-.96h.04z"/><path fill="#0C1238" d="M204.51 185.02c5.33-.15 10.67-.26 16-.05 2.67.1 5.33.27 8 .33 2.67.08 5.33.01 8-.08 5.33-.23 10.67-.04 16 .13 1.33.05 2.67.01 4 .01l4-.15c1.33-.06 2.67-.03 4-.03s2.67 0 4 .05l-.01 3.6c-1.33.07-2.67.11-4 .13-1.33.02-2.67.08-4 .06-1.33.01-2.67-.03-4-.06-1.33-.04-2.67-.13-4-.12-5.33.01-10.67.01-16-.25l-4-.13c-1.33-.05-2.67-.1-4-.07l-8 .08c-2.67.06-5.33-.15-8-.17-2.67 0-5.33.05-8 .3l.01-3.58zM204.7 223.85c5.07-.69 10-1.03 15-1.1 2.49-.03 4.99.02 7.47-.03 2.49-.04 4.97-.21 7.45-.4 4.96-.43 9.94-.42 14.92-.42 1.24.01 2.49-.07 3.73-.11l3.73-.25c1.24-.1 2.49-.09 3.74-.12s2.5-.04 3.77 0l-.02 3.6c-1.21.08-2.44.13-3.68.18-1.24.05-2.48.14-3.71.15-1.24.04-2.48.04-3.72.05-1.24 0-2.48-.05-3.73 0-4.96.18-9.93.35-14.9.3-2.48.04-4.97-.03-7.45.12-2.48.13-4.96.27-7.43.44-2.47.18-4.96.12-7.43.25-2.46.16-4.95.38-7.31.9l-.43-3.56zM203.7 198.85l2.03-.25c.67-.07 1.33-.1 1.99-.15 1.33-.1 2.63-.18 3.95-.22 2.63-.1 5.24-.15 7.86-.07 2.62.05 5.23.2 7.84.24 2.61.06 5.22-.02 7.83-.11 5.22-.23 10.44-.03 15.66.16 1.3.06 2.61.02 3.91.03l3.92-.12c1.31-.05 2.61-.01 3.91 0 1.3.01 2.61.02 3.9.08l-.02 3.6c-1.31.07-2.62.09-3.92.11-1.31.02-2.61.06-3.91.04-1.3 0-2.61-.05-3.91-.08-1.3-.05-2.61-.14-3.91-.14-5.21-.01-10.43-.03-15.64-.28-2.61-.06-5.21-.22-7.82-.16-2.6.04-5.21.08-7.81.17-2.6.09-5.21-.05-7.8.01-2.58.09-5.21.24-7.64.75l-.42-3.61zM285.51 185.02c2.25-.15 4.5-.25 6.75-.06 1.12.08 2.25.3 3.37.34 1.12.08 2.25.01 3.38-.08s2.25-.16 3.38-.1c1.12.05 2.25.15 3.37.23 1.12.12 2.25-.06 3.38-.14.56-.06 1.12-.03 1.69-.03.56 0 1.12 0 1.69.05l-.03 3.6c-.56.07-1.13.11-1.69.13-.56.02-1.13.08-1.69.06-.56.01-1.12-.03-1.69-.06-.56-.04-1.12-.13-1.69-.12-2.25 0-4.5.03-6.75-.24-1.12-.11-2.25-.22-3.37-.21-1.12-.02-2.25.11-3.38.11-1.13.06-2.25-.15-3.37-.18-1.12 0-2.25.05-3.38.3l.03-3.6zM293.31 196.84c1.6-.21 3.2-.35 4.8-.22.8.06 1.61.24 2.41.26.8.05 1.6-.04 2.4-.16.8-.11 1.6-.21 2.4-.18.8.02 1.6.1 2.4.15.8.09 1.6-.1 2.4-.23.8-.08 1.6-.11 2.4-.04l-.05 3.6c-.4.09-.8.13-1.19.17-.4.04-.79.11-1.19.1-.4.02-.79 0-1.19-.02-.4-.03-.79-.1-1.19-.08-.79.02-1.59.06-2.38.07-.79.01-1.59-.07-2.38-.16-.8-.09-1.59-.17-2.39-.13-.8.01-1.59.16-2.38.18-.79.08-1.59-.1-2.39-.11-.79.02-1.59.1-2.38.38l-.1-3.58zM293.31 221.84c1.6-.21 3.2-.35 4.8-.22.8.06 1.61.24 2.41.26.8.05 1.6-.04 2.4-.16.8-.11 1.6-.21 2.4-.18.8.02 1.6.1 2.4.15.8.09 1.6-.1 2.4-.23.8-.08 1.6-.11 2.4-.04l-.05 3.6c-.4.09-.8.13-1.19.17-.4.04-.79.11-1.19.1-.4.02-.79 0-1.19-.02-.4-.03-.79-.1-1.19-.08-.79.02-1.59.06-2.38.07-.79.01-1.59-.07-2.38-.16-.8-.09-1.59-.17-2.39-.13-.8.01-1.59.16-2.38.18-.79.08-1.59-.1-2.39-.11-.79.02-1.59.1-2.38.38l-.1-3.58zM302.4 232.84c.42-.14.84-.19 1.26-.24.42-.05.85-.07 1.27.02.43.06.85.23 1.28.27.42.04.84-.05 1.26-.17.84-.31 1.69-.14 2.53-.03.42.07.84-.09 1.27-.23.42-.08.85-.11 1.27-.04l-.1 3.6c-.41.17-.83.24-1.24.28-.2.01-.41-.01-.61-.03-.2-.02-.41-.11-.61-.08-.41 0-.82.08-1.23.07-.41.01-.82-.07-1.23-.16-.41-.09-.83-.17-1.24-.13-.41.01-.82.16-1.23.18-.41.08-.83-.09-1.24-.11-.41.02-.82.11-1.22.38l-.19-3.58z"/><path fill="#948CFF" d="M272.01 275.38c4.94-1.97 9.63-4.6 13.67-7.95 2.02-1.67 3.9-3.52 5.46-5.59 1.56-2.04 2.83-4.34 3.4-6.65.28-1.15.28-2.31-.07-3.15-.19-.41-.45-.74-.79-1-.37-.23-.82-.41-1.35-.49-.31-.08-.77.03-1.28.25-.51.21-1.03.53-1.53.89-1.01.71-1.95 1.6-2.81 2.55-1.72 1.91-3.1 4.19-3.83 6.58-.74 2.39-.77 4.92.52 6.87 1.22 2.12 3.24 3.52 5.59 3.87 1.17.19 2.4.15 3.62-.06 1.22-.19 2.44-.54 3.61-1.02 2.32-.96 4.56-2.42 6.07-4.25.34-.46.68-.94.84-1.4.17-.46.2-.85.11-1.14-.04-.15-.14-.27-.25-.43-.19-.16-.37-.38-.56-.5-.39-.29-.76-.38-1.14-.4-.38.01-.8.19-1.2.48-.4.31-.76.73-1.07 1.21-.62.95-.99 2.13-1.08 3.27-.08 1.15.13 2.3.7 3.18.55.89 1.42 1.55 2.48 1.95 1.05.41 2.27.56 3.51.57.31 0 .62.01.94 0l.95-.08c.63-.03 1.27-.17 1.91-.27 2.56-.46 5.09-1.28 7.59-2.21l.97 2.52c-2.6 1-5.25 1.91-8.06 2.46-.71.12-1.4.28-2.14.33l-1.09.11c-.37.02-.74.01-1.11.02-.74.03-1.5-.07-2.26-.15-.76-.16-1.53-.31-2.28-.64-1.5-.58-2.95-1.68-3.82-3.19-.89-1.49-1.14-3.22-1-4.81.16-1.6.66-3.13 1.56-4.49.45-.68 1-1.32 1.71-1.85.72-.51 1.6-.97 2.65-1.02 1.03-.03 2.05.31 2.78.85.39.25.67.57 1 .86.33.39.65.83.83 1.36.37 1.06.2 2.12-.1 2.95-.3.85-.76 1.51-1.23 2.15-1.97 2.41-4.47 3.99-7.15 5.14-2.68 1.12-5.7 1.74-8.76 1.19-1.51-.27-3.01-.88-4.28-1.8-1.28-.91-2.29-2.14-3.03-3.44-.41-.62-.71-1.4-.95-2.14-.19-.76-.34-1.54-.35-2.31-.07-1.55.23-3.04.68-4.43.45-1.4 1.09-2.71 1.83-3.93.75-1.22 1.56-2.4 2.51-3.48.94-1.08 1.97-2.09 3.17-2.96.6-.43 1.23-.84 1.96-1.17.71-.31 1.6-.62 2.61-.46.81.11 1.64.37 2.41.85.75.51 1.35 1.24 1.73 2.04.71 1.63.63 3.29.33 4.75-.63 2.97-2.15 5.48-3.87 7.72-1.73 2.25-3.76 4.22-5.92 5.99-2.18 1.75-4.45 3.38-6.87 4.76-2.41 1.39-4.92 2.61-7.48 3.7l-.99-2.56z"/><path fill="#fff" d="M146.53 102.69c-.03-1.3-.39-2.5-1.1-3.43-.72-.93-1.79-1.57-2.98-1.93-2.4-.73-5.31-.11-7.06 1.52-.89.82-1.42 1.88-1.57 3.18-.11.66-.09 1.29-.01 1.88.1.58.32 1.11.64 1.58.65.96 1.87 1.62 3.2 2.12 1.33.52 2.79.91 4.26 1.39 1.48.49 3.02 1.03 4.47 2 1.47.91 2.76 2.46 3.27 4.22.12.43.25.87.3 1.31.08.44.11.87.12 1.3.05.85-.05 1.78-.3 2.65-.49 1.77-1.72 3.33-3.22 4.26-1.49.95-3.16 1.47-4.84 1.63-1.68.2-3.39.06-5.03-.44-1.64-.49-3.22-1.45-4.4-2.86-.6-.7-1.04-1.54-1.35-2.4-.32-.88-.39-1.8-.41-2.69h2.7c.07 1.25.47 2.38 1.25 3.28.77.9 1.89 1.53 3.11 1.96 1.23.41 2.57.57 3.88.45 1.3-.09 2.61-.42 3.63-1.12 1.03-.68 1.75-1.64 2.05-2.78.31-1.1.22-2.54-.13-3.68-.2-.57-.45-1.1-.83-1.56-.35-.48-.8-.91-1.33-1.28-1.05-.77-2.38-1.32-3.76-1.83-1.39-.51-2.86-.95-4.34-1.58-.74-.31-1.48-.67-2.2-1.15-.71-.48-1.44-1.02-1.99-1.79-.56-.75-.94-1.63-1.12-2.53-.15-.89-.19-1.78-.08-2.61.12-1.7.89-3.53 2.17-4.78 1.26-1.29 2.92-2.05 4.59-2.37 1.68-.33 3.42-.26 5.07.24 1.63.52 3.23 1.42 4.34 2.87 1.1 1.45 1.61 3.25 1.71 4.98h-2.71zM142.56 124.96c.13.63.21 1.26.08 1.88-.05.31-.21.63-.23.94-.05.31.01.63.08.94.07.31.13.63.1.94-.03.31-.1.63-.15.94-.08.31.05.63.13.94.05.31.06.63 0 .94h-2.7c-.23-.63-.19-1.26-.06-1.88-.02-.63-.06-1.26.14-1.88.08-.31.15-.63.14-.94.01-.31-.09-.63-.1-.94-.05-.31.1-.63.12-.94 0-.31-.05-.63-.24-.94h2.69zM142.56 88.89c.13.52.21 1.04.08 1.56-.05.26-.21.52-.23.78-.05.26.01.52.08.78s.13.52.1.78-.1.52-.15.78c-.08.26.05.52.13.78.05.26.06.52 0 .78h-2.7c-.23-.52-.19-1.04-.06-1.56-.02-.52-.06-1.04.14-1.56.08-.26.15-.52.14-.78.01-.26-.09-.52-.1-.78-.05-.26.1-.52.12-.78 0-.26-.05-.52-.24-.78h2.69z"/><path fill="#D5DAEA" d="M74.82 272l.02-4.25c-.02-.71.07-1.42.11-2.12.01-.71-.07-1.42-.15-2.12-.43-2.83-.23-5.67-.18-8.5.13-2.83.07-5.67.23-8.5l.18-4.25c.1-1.42.22-2.83.17-4.25l-.02-.78.82-.03c2.17-.06 4.33.13 6.5.15 1.08-.01 2.17-.09 3.25-.06l3.25.06c1.08-.01 2.17.08 3.25-.09 1.08-.19 2.17-.17 3.25-.21l6.5-.16 1.05-.03.05 1.13c.05 1.04.09 2.08.11 3.12.03 1.04-.07 2.08-.1 3.12l-.07 1.56.02 1.56.05 3.12c.04 1.04-.01 2.08-.12 3.12-.1 1.04-.06 2.08-.05 3.12l.24 6.25h-2.36l-.08-6.25c-.03-1.04-.02-2.08-.14-3.12-.12-1.04-.17-2.08-.11-3.12.02-2.08.22-4.17.21-6.25.03-1.04.01-2.08.09-3.12.06-1.04.18-2.08.18-3.12l1.04 1.04c-2.17.02-4.33.19-6.5.28-1.08 0-2.17.14-3.25-.15-.54-.12-1.08-.16-1.62-.11-.54.03-1.08.04-1.62.11-2.17.24-4.33.5-6.5.16-1.08-.03-2.17.02-3.25.05-1.08-.02-2.17.02-3.25-.07l1.31-1.31c-.05.71-.07 1.42 0 2.12.07.71.19 1.42.18 2.12 0 1.42-.32 2.83-.38 4.25.08 1.42-.08 2.83-.25 4.25-.16 1.42-.17 2.83-.1 4.25l.23 4.25c.04.71.05 1.42.08 2.12-.01.71-.05 1.42-.11 2.12-.05.71-.09 1.42-.06 2.12.06.71.16 1.42.16 2.12.04 1.42.11 2.83.12 4.25h-2.38zM107.82 252l.02-6.25c-.02-1.04.03-2.08.09-3.12s-.02-2.08-.08-3.12c-.42-4.17-.34-8.33-.26-12.5.1-4.17.13-8.33.19-12.5.13-4.17.2-8.33.4-12.5l.04-.84.78.03c1.75.06 3.5-.02 5.25.01 1.75.02 3.5.06 5.25.12s3.5.02 5.25-.01c1.75-.05 3.5.03 5.25.04h.67v.66l-.03 3.81c-.03 1.27.02 2.54.15 3.81.12 1.27.12 2.54.15 3.81l.07 3.81.12 7.62c.08 2.54.14 5.08.02 7.62-.31 5.08.15 10.17-.12 15.25-.17 2.54-.1 5.08-.04 7.62l.19 7.62h-2.36l-.06-7.62c-.01-2.54-.02-5.08-.2-7.62-.25-5.08.2-10.17.15-15.25-.02-2.54.18-5.08.24-7.62.02-2.54-.07-5.08-.17-7.62-.04-1.27-.1-2.54-.11-3.81 0-1.27-.1-2.54.09-3.81.07-.64.17-1.27.19-1.91.02-.64-.02-1.27-.04-1.91-.02-1.27-.14-2.54-.22-3.81l1.3 1.3c-.88.06-1.75.13-2.62.15-.88.04-1.75.07-2.62.05-.88-.04-1.75-.14-2.62-.16-.88-.05-1.75 0-2.62-.01-1.75.04-3.5.06-5.25.04-1.75 0-3.5-.14-5.25-.08l1.28-1.28c.03 1.04.17 2.08.19 3.12.03 1.04-.02 2.08-.09 3.12-.16 2.08-.35 4.17-.26 6.25-.07 2.08-.28 4.17-.37 6.25-.08 2.08-.03 4.17.04 6.25.11 4.17.42 8.33.13 12.5-.03 1.04-.07 2.08.01 3.12.07 1.04.13 2.08.14 3.12l.11 6.25h-2.37z"/><g fill="#D5DAEA"><path d="M137.82 244v-1.5c0-.65.53-1.17 1.17-1.17.64 0 1.16.52 1.17 1.16v.01l.02 1.5c.01.65-.51 1.19-1.17 1.19-.65.01-1.19-.51-1.19-1.17v-.02zM137.83 236.15l.01-3.17c0-.61.5-1.1 1.11-1.1.6 0 1.1.49 1.1 1.09v.01l.04 3.17c.01.62-.49 1.13-1.11 1.14-.62.01-1.13-.49-1.14-1.11v-.03zM137.89 226.63l-.13-3.17c-.02-.61.45-1.13 1.06-1.15.61-.02 1.13.45 1.15 1.06v.09l-.06 3.17c-.01.56-.47 1-1.03.99-.54-.01-.96-.44-.99-.96v-.03zM137.55 217.11c-.01-1.06-.04-2.12-.02-3.17.01-.68.56-1.22 1.24-1.21.67.01 1.2.54 1.21 1.2v.01l.06 3.17c.01.69-.54 1.25-1.22 1.26-.69.01-1.25-.53-1.26-1.22v-.01l-.01-.03zM137.58 207.59l.04-3.17c.01-.59.49-1.07 1.08-1.06.58.01 1.04.47 1.06 1.05v.01l.07 3.17c.01.62-.48 1.14-1.1 1.15-.62.01-1.14-.48-1.15-1.1v-.05zM137.7 198.07l.02-3.17v-.04c0-.59.48-1.06 1.07-1.05s1.06.48 1.05 1.07v.03l-.1 3.17v.04c-.02.56-.49 1-1.05.99-.56-.04-1-.49-.99-1.04zM137.76 188.54l.06-3.17v-.02c.01-.63.53-1.14 1.17-1.13.63.01 1.12.52 1.13 1.15v1.59c-.01.53.01 1.06-.01 1.59v.08c-.03.64-.58 1.14-1.23 1.11-.64-.04-1.13-.57-1.12-1.2zM137.94 179.02l.06-3.17v-.04c.01-.68.57-1.22 1.25-1.21.68.01 1.22.57 1.21 1.25-.01 1.06-.07 2.12-.12 3.17v.08c-.03.66-.59 1.17-1.25 1.14-.66-.03-1.16-.57-1.15-1.22zM138.16 169.5l.04-1.5v-.04c.01-.43.37-.78.8-.76.5.01 1 0 1.5 0h.01c.57 0 1.03.47 1.03 1.04 0 .57-.47 1.03-1.04 1.03-.5 0-1-.02-1.5-.01l1.27-1.27.06 1.5c.02.6-.44 1.1-1.04 1.13-.6.02-1.1-.44-1.13-1.04v-.08zM146.9 167.2l3.2.03h.01c.59.01 1.06.49 1.06 1.08-.01.59-.49 1.06-1.07 1.06l-3.2-.01h-.01c-.6 0-1.08-.49-1.08-1.08s.48-1.08 1.09-1.08zM156.5 167.34c.5.01 1 .02 1.5 0 .35-.01.65.27.66.63v.03l.02 1.5v.03c.01.57-.45 1.04-1.02 1.04s-1.04-.45-1.04-1.02v-.05l.05-1.5 1.34 1.34c-.5-.03-1-.03-1.5-.02h-.01c-.55.01-1-.43-1-.97-.01-.55.43-1 .97-1l.03-.01zM158.71 175.27l-.03 2.89c-.01.57-.47 1.03-1.04 1.02-.55-.01-1-.44-1.02-.98v-.04c-.04-.96-.06-1.92-.09-2.89-.02-.6.45-1.11 1.06-1.12.6-.02 1.11.45 1.12 1.06v.06zM158.64 183.93l-.01 2.89c0 .47-.38.84-.85.84-.46 0-.83-.37-.84-.82v-.02l-.07-2.89c-.01-.49.38-.89.86-.9.49-.01.89.38.9.86v.04zM158.83 192.59c.06.96.08 1.92.08 2.89 0 .62-.5 1.12-1.12 1.12-.61 0-1.11-.49-1.12-1.1v-.02l-.02-1.44.04-1.44c.02-.59.51-1.05 1.1-1.04.56.02 1 .46 1.03 1l.01.03zM158.97 201.24l.03 2.89c.01.61-.48 1.1-1.09 1.11-.61.01-1.1-.48-1.11-1.09v-.02l-.05-2.89c-.01-.61.48-1.11 1.09-1.12.61-.01 1.11.48 1.12 1.09v.01l.01.02zM159.07 209.9l.03 2.89c.01.59-.47 1.08-1.06 1.08-.59.01-1.07-.46-1.08-1.05v-.03l-.05-2.89c-.01-.6.46-1.09 1.06-1.1.6-.01 1.09.46 1.1 1.06v.04zM159.19 218.56l.03 2.89v.03c.01.68-.54 1.23-1.22 1.24-.68.01-1.23-.54-1.24-1.22v-.05l.09-2.89v-.02c.02-.65.56-1.15 1.2-1.13.64.01 1.14.52 1.14 1.15zM159.13 227.21l-.06 2.89v.03c-.01.66-.56 1.18-1.22 1.17-.65-.01-1.17-.55-1.17-1.2l.02-2.89v-.03c0-.67.55-1.21 1.22-1.2s1.21.55 1.2 1.22l.01.01zM159.06 235.87l.02 2.89v.02c.01.7-.56 1.28-1.26 1.28-.7.01-1.28-.56-1.28-1.26v-.03l.06-2.89v-.01c.01-.68.58-1.22 1.26-1.21.66 0 1.2.55 1.2 1.21zM159.13 244.53c.02.96-.04 1.92-.05 2.89-.01.71-.59 1.27-1.3 1.26-.69-.01-1.25-.57-1.26-1.26-.01-.96-.08-1.92-.05-2.89v-.01c.02-.73.63-1.31 1.37-1.29.71.02 1.27.6 1.29 1.3zM158.93 253.19l.01 2.89c0 .61-.49 1.11-1.1 1.11-.61 0-1.11-.49-1.11-1.1v-.01l-.02-2.89c0-.61.49-1.11 1.1-1.12.61 0 1.11.49 1.12 1.1v.02zM159.01 261.84l.05 2.89c.01.63-.49 1.15-1.12 1.16s-1.15-.49-1.16-1.12v-.04l-.02-2.89c0-.62.5-1.13 1.12-1.13.62 0 1.12.49 1.13 1.11v.02zM159.16 270.5l.02 1.5c.01.65-.51 1.19-1.16 1.2s-1.19-.51-1.2-1.16v-.04l-.01-1.5c0-.65.52-1.18 1.17-1.18.64 0 1.17.51 1.18 1.15v.03z"/></g></g></svg>