<svg xmlns="http://www.w3.org/2000/svg" viewBox="0 0 470 350" enable-background="new 0 0 470 350"><g><path fill="#fff" d="M261.8 66.39c.83 1.4 1.75 2.86 2.65 4.43.9 1.57 1.73 3.23 2.46 4.85l-1.27-.88 8.52.5 3.61.21-2.74 2.38c-2.31 2.01-4.71 3.92-7.07 5.88l.43-1.36 2.04 8.54v.01l.72 2.55-2.42-1.22-3.85-1.93-3.82-1.99 1.23.01-3.81 2.02c-1.27.67-2.53 1.35-3.81 2.01l-2.83 1.45.85-3.04 2.37-8.46.4 1.31-3.42-3.08c-1.13-1.04-2.31-2.02-3.46-3.03l-2.29-2.01 3.03-.13c1.42-.06 2.84-.19 4.26-.29l4.26-.29-1.19.81c.73-1.6 1.55-3.25 2.45-4.82.93-1.55 1.86-3.02 2.7-4.43zm-.01 2.71c-.44 1.45-.78 2.83-1.15 4.1-.36 1.27-.8 2.45-1.32 3.67l-.36.84-.94.04-4.27.19c-1.42.06-2.84.14-4.27.17l.89-2.56c1.14 1.03 2.26 2.07 3.43 3.07l3.47 3.02.67.58-.23.85-2.29 8.48-2.01-1.62 3.85-1.93 3.86-1.92.62-.31.57.31 7.54 4.18-1.62 1.27v-.01l-2.26-8.48-.19-.71.57-.49c2.33-2 4.6-4.05 6.97-5.99l.71 2.11-4.26-.31-2.13-.15c-.71-.04-1.42-.11-2.13-.13l-.65-.02-.3-.64c-.59-1.26-1.1-2.46-1.53-3.71-.43-1.25-.82-2.56-1.24-3.9zM228.79 29.5v69.6h-101.78c1.42-13.52 9.43-26.45 21.48-32.9 11.63-6.23 26.21-6.92 36.09-15.66 7.07-6.25 10.43-15.49 14.51-24.04h26.7c1.66 0 3 1.34 3 3z"/><path fill="#D5DAEA" d="M229.97 29.5l-.02 17.4c.06 5.8-.2 11.6-.06 17.4.09 5.8.29 11.6.32 17.4 0 5.8.06 11.6.01 17.4l-.01 1.45-1.43-.01-31.93-.17c-10.64-.01-21.29-.16-31.93-.24l-15.97-.19c-5.32-.09-10.64.01-15.97-.03l-15.96-.1-7.98-.06-7.98.05h-.69l-.01-.7c-.07-8.36.07-16.73.06-25.09.16-8.36-.31-16.73-.28-25.09l-.07-12.55-.03-6.27v-.39l.01-.46c.02-.35.09-.7.2-1.03.22-.67.62-1.28 1.15-1.74.52-.47 1.18-.79 1.87-.94.17-.03.35-.07.52-.07l.46-.02h.78l25.09-.16c8.36.03 16.73.22 25.09.17 8.36-.01 16.73-.11 25.09-.04l12.55.16 12.55-.06 12.55-.08 6.27-.05 1.57-.01c.72 0 1.45.18 2.07.55 1.29.68 2.11 2.11 2.11 3.57zm-2.36 0c-.01-.64-.35-1.26-.91-1.56-.27-.16-.58-.23-.9-.24h-1.57l-6.27.02-12.55.04-12.55.04-12.54.2c-4.18.09-8.36-.01-12.55-.01l-12.55-.11-25.09-.13c-8.36-.13-16.73-.28-25.09-.14l-.78.01-.32.01-.24.03c-.31.08-.62.22-.86.45-.24.22-.42.5-.52.81-.05.15-.08.31-.08.47l-.01.12v.5900000000000001l.05 6.27.1 12.55c.01 2.09.05 4.18.03 6.27-.01 2.09-.1 4.18-.19 6.27-.2 4.18-.06 8.36 0 12.55l.21 12.55c.07 4.18.19 8.36.09 12.55l-1.46-1.46c10.64.3 21.29 0 31.93.09 5.32.01 10.64.18 15.97.04 5.32-.1 10.64-.23 15.97-.07 5.32.05 10.64.3 15.96.28 5.32-.05 10.64.1 15.97.22 10.64.25 21.29.17 31.93.03l-.87.87-.18-17.4c-.02-5.8.09-11.6.13-17.4.08-5.8-.19-11.6-.17-17.4l-.09-17.41zM161.01 123.5c-.02-1.02 0-2.03.04-3.05.28-1.02-.19-2.03-.29-3.05-.15-2.03.12-4.07.15-6.1l.05-1.52.12-1.53c.06-1.02.15-2.03.28-3.05.08-.51.03-1.02.03-1.53-.02-.51.03-1.02.05-1.52.04-.51.08-1.02.1-1.53.03-.51-.03-1.02-.05-1.52l-.02-.67.73-.04c.73-.04 1.46.15 2.2.06.18-.02.37-.15.55-.2.18-.06.37-.06.55-.08l1.1-.1 1.1-.07c.37-.04.73-.11 1.1-.12.37-.02.73.07 1.1.15.37.05.73.05 1.1.01l1.03-.11.03 1.17c.04 1.64.08 3.28.06 4.91-.04 1.64-.24 3.28-.19 4.91.02 3.28.17 6.55.25 9.83h-2.36l-.1-9.83c.01-1.64-.22-3.28-.25-4.91-.02-1.64.04-3.28.1-4.91l1.43 1.43c-.73-.15-1.46-.1-2.2-.2-.37-.07-.73-.21-1.1-.19-.37.03-.73.06-1.1.14-.37.06-.73.15-1.1.15-.18 0-.37.05-.55-.01-.18-.07-.37-.24-.55-.27-.73-.03-1.46.49-2.2.45l1.5-1.5c-.05.51-.21 1.02-.19 1.52 0 .51.05 1.02.06 1.53-.02.51.01 1.02-.04 1.52-.05.51-.13 1.02-.03 1.53s.24 1.02.16 1.52c-.02.51-.19 1.02-.27 1.52-.04.25-.09.51-.09.76.01.25.04.51.02.76-.05.51-.16 1.02-.26 1.52-.2 1.02-.14 2.03-.04 3.05.08 1.02.23 2.03.25 3.05 0 1.02-.36 2.03-.05 3.05.08 1.02.15 2.03.17 3.05h-2.38z"/><path fill="#E6E8F0" d="M234.52 99.82h-141.86l-1-7.44h143.86zM235.41 100.84l-35.58.25-35.72.11-35.76-.13-17.86-.07-17.83.06h-1.08l-.15-1.08-1.02-7.44-.2-1.43h1.45l35.96-.11 35.96.13c11.99.06 23.98.03 35.96-.06 11.99-.12 23.98-.06 35.96-.06h1.55l-.2 1.54c-.35 2.79-.88 5.62-1.44 8.29zm-1.78-2.04c.09-2.3.22-4.43.51-6.61l1.38 1.58c-11.99.06-23.98.16-35.96.11l-35.96-.09h-35.96l-35.96-.16 1.23-1.41.96 7.45-1.2-1.05 17.64.09 17.63-.02 35.23-.01 35.32.21 17.6-.01 8.79-.01 8.75-.07z"/><path fill="#D5DAEA" d="M119.87 77.89c3.15-2.94 6.2-5.96 9.09-9.11.73-.78 1.43-1.58 2.12-2.39.66-.84 1.29-1.7 1.86-2.59l.88-1.33c.28-.45.54-.91.81-1.36.56-.9 1.01-1.84 1.49-2.77 1.92-3.7 3.24-7.66 3.61-11.73.02-1.01.09-2.06.04-3.05-.06-.97-.24-1.85-.63-2.48-.21-.33-.39-.51-.69-.7-.28-.17-.62-.27-.89-.27-.28 0-.45.07-.61.21-.17.15-.46.57-.7 1.03-2.1 3.51-3.18 7.6-3.32 11.74-.05 4.14.79 8.34 2.61 12.12.9 1.89 2.1 3.64 3.54 5.15.67.8 1.49 1.46 2.24 2.18.81.65 1.64 1.29 2.54 1.82 1.77 1.11 3.72 1.93 5.74 2.44 2.03.52 4.15.54 6.18.23 2.01-.4 4.01-1.06 5.59-2.35 1.6-1.27 2.9-2.95 3.68-4.85.43-.94.67-1.95.84-2.95.08-1.02.09-2.05-.18-3.02-.07-.5-.29-.95-.43-1.42-.24-.43-.4-.9-.69-1.29-.47-.86-1.15-1.61-1.73-1.7-.57-.14-1.35.27-1.96.94-.6.67-1.09 1.56-1.42 2.45-.35.9-.46 1.88-.51 2.85.01.98.13 1.96.39 2.91.54 1.89 1.56 3.68 2.99 4.98.69.69 1.52 1.18 2.36 1.62.88.4 1.81.7 2.77.87 1.91.37 3.95.28 5.88-.28.97-.25 1.9-.66 2.81-1.11.89-.48 1.71-1.08 2.47-1.73 1.51-1.32 2.66-3 3.68-4.85 1.03-1.83 1.88-3.83 3.07-5.73 1.14-1.91 2.56-3.77 4.41-5.21 1.83-1.45 4.04-2.37 6.27-2.82 4.51-.91 9-.27 13.28.39l-.41 2.33c-4.21-.7-8.48-1.31-12.45-.53-1.98.37-3.8 1.18-5.31 2.37-1.48 1.25-2.57 2.93-3.56 4.75-.95 1.84-1.93 3.77-3.04 5.72-1.1 1.93-2.5 3.9-4.34 5.42-3.63 2.99-8.46 4.57-13.19 3.72-1.17-.24-2.3-.65-3.37-1.19-1.05-.59-2.06-1.27-2.88-2.13-.44-.4-.79-.89-1.17-1.34-.33-.49-.68-.97-.96-1.48-.62-1-1.06-2.1-1.4-3.23-.32-1.14-.47-2.32-.49-3.52.05-1.2.19-2.41.62-3.57.44-1.16 1-2.22 1.88-3.21.45-.48.98-.92 1.65-1.26.66-.33 1.55-.53 2.41-.33.88.19 1.55.7 2.03 1.19.51.5.82 1.02 1.14 1.55.37.51.52 1.13.77 1.7.09.3.15.6.22.9.07.3.12.6.13.91.18 2.43-.13 4.79-1 6.98-.84 2.19-2.2 4.18-4.02 5.77-.45.4-.95.75-1.46 1.08-.53.29-1.06.63-1.62.84-1.09.52-2.26.81-3.43 1.01-2.37.31-4.73.05-6.98-.47-2.25-.53-4.42-1.36-6.39-2.54-4.03-2.32-6.97-6.05-9.14-10-1.15-1.97-1.99-4.12-2.48-6.34l-.31-1.68c-.09-.56-.1-1.13-.15-1.7-.13-1.13-.05-2.27-.06-3.4.19-2.25.39-4.5.97-6.69.69-2.15 1.59-4.24 2.83-6.13.28-.47.57-.97 1.11-1.48.56-.51 1.34-.75 2.03-.73 1.38.06 2.62.8 3.32 1.91.7 1.08.92 2.3 1.02 3.43.07 1.13.03 2.23.05 3.35-.25 4.46-1.54 8.86-3.63 12.77-.57.95-1.11 1.92-1.75 2.83-.6.93-1.25 1.82-1.92 2.69-1.35 1.74-2.72 3.44-4.08 5.16-2.83 3.34-5.95 6.4-9.07 9.42l-1.6-1.69z"/><g fill="#D5DAEA"><path d="M302.92 279.11l6.36-26.27"/><path d="M301.61 278.79c.41-2.22.85-4.43 1.51-6.59.33-1.08.71-2.15 1.01-3.23.31-1.08.52-2.19.72-3.3.35-2.23 1-4.39 1.64-6.56.17-.54.26-1.1.4-1.64l.28-1.67c.08-.56.24-1.1.36-1.65.13-.55.26-1.1.43-1.64l2.63.64c-.17 1.12-.39 2.22-.63 3.32-.24 1.1-.62 2.17-.9 3.26-.51 2.2-1.03 4.39-1.73 6.54-.3 1.09-.69 2.15-.92 3.25l-.72 3.3c-.22 1.11-.63 2.17-.9 3.26-.26 1.1-.48 2.2-.56 3.34l-2.62-.63z"/></g><g fill="#D5DAEA"><path d="M254.76 260.53l43.56-16.14"/><path d="M254.29 259.26c3.59-1.46 7.2-2.86 10.86-4.11 1.85-.59 3.69-1.2 5.52-1.82.93-.29 1.82-.65 2.72-1.01l2.7-1.07c3.58-1.49 7.23-2.76 10.91-3.98.92-.3 1.81-.67 2.72-1.01l2.68-1.12c.89-.38 1.81-.7 2.71-1.04.91-.34 1.81-.68 2.73-.98l.94 2.54c-3.56 1.53-7.19 2.87-10.87 4.09-3.62 1.37-7.25 2.72-10.94 3.9-1.83.64-3.69 1.19-5.49 1.9l-5.42 2.09c-1.8.71-3.66 1.26-5.48 1.92-.92.29-1.8.72-2.7 1.07-.9.36-1.79.74-2.66 1.17l-.93-2.54z"/></g><path fill="#fff" d="M255.41 273.3c-2.95 7.37-11.34 10.96-18.71 8-3.54-1.42-6.22-4.1-7.7-7.32-1.6-3.47-1.83-7.57-.3-11.39 2.95-7.37 11.34-10.96 18.71-8 1.74.7 3.28 1.7 4.55 2.94 4.15 3.92 5.71 10.14 3.45 15.77z"/><path fill="#E6E8F0" d="M330 242.57c-3.44 8.58-13.21 12.76-21.79 9.32-4.12-1.65-7.24-4.77-8.97-8.52-1.86-4.04-2.13-8.82-.35-13.27 3.44-8.58 13.21-12.76 21.79-9.32 2.03.81 3.82 1.98 5.3 3.42 4.83 4.58 6.64 11.82 4.02 18.37zM331.25 243.08c-1.71 4.42-5.24 8.16-9.64 10.03-4.38 1.87-9.54 1.99-13.94.11-4.4-1.83-7.97-5.46-9.74-9.82-.88-2.18-1.4-4.5-1.45-6.85-.05-2.35.37-4.72 1.22-6.92 1.71-4.39 5.2-8.16 9.62-9.95 4.37-1.86 9.47-1.86 13.81-.03 2.16.9 4.21 2.18 5.87 3.85 1.7 1.61 3.13 3.56 4.07 5.73 1.97 4.33 1.95 9.46.18 13.85zm-2.51-1.01c.7-1.89 1.06-3.9 1-5.9-.06-2-.52-3.98-1.3-5.81-.77-1.85-1.92-3.51-3.35-4.93-1.39-1.45-3.06-2.59-4.94-3.34-3.74-1.5-8.04-1.44-11.74.14-1.84.8-3.54 1.94-4.98 3.35-1.43 1.42-2.58 3.12-3.37 4.99-1.56 3.73-1.63 8.14.03 11.9 1.61 3.77 4.76 6.82 8.56 8.28 1.9.72 3.92 1.15 5.96 1.15 2.04.01 4.08-.41 5.97-1.19 3.81-1.59 6.78-4.85 8.16-8.64zM308.33 286.32c-1.63 4.05-6.24 6.03-10.3 4.4-1.95-.78-3.42-2.25-4.24-4.03-.88-1.91-1.01-4.17-.17-6.27 1.63-4.05 6.24-6.03 10.3-4.4.96.38 1.8.93 2.5 1.62 2.3 2.16 3.16 5.59 1.91 8.68zM309.59 286.82c-.85 2.27-2.64 4.22-4.91 5.19-2.25.96-4.93 1.04-7.17.03-2.24-.98-4.04-2.86-4.91-5.09-.42-1.11-.7-2.29-.74-3.48-.04-1.2.17-2.4.59-3.53.85-2.23 2.61-4.23 4.89-5.11 2.24-.94 4.85-.91 7.05.04 1.09.47 2.15 1.11 2.99 1.96.87.8 1.63 1.79 2.12 2.89 1.03 2.22.99 4.87.09 7.1zm-2.51-1c1.2-3.28-.54-7.11-3.67-8.49-1.59-.63-3.41-.6-4.98.06-1.55.69-2.92 1.88-3.62 3.5-.69 1.59-.8 3.51-.05 5.14.71 1.63 2.09 2.94 3.73 3.55.83.29 1.69.5 2.57.51.88.02 1.77-.15 2.6-.48 1.66-.67 2.89-2.16 3.42-3.79z"/><path fill="#0C1238" stroke="#0C1238" stroke-width="2" stroke-linecap="round" stroke-linejoin="round" stroke-miterlimit="10" d="M209 227.64c3.02-.25 6.47-1.35 7.03-3.87.61-2.74-2.55-5.08-3.54-7.79-.46-1.24-.44-2.56-.37-3.84.27-4.66 1.27-9.26 2.98-13.65.35-.91.69-2.03-.1-2.76-.35-.33-.86-.49-1.37-.58-2.18-.4-4.43.37-6.07 1.58s-2.79 2.82-3.91 4.41l-7.89 11.15c-2.19 3.1-7.57 9.73-3.49 13.09 2.87 2.36 13.21 2.55 16.73 2.26z"/><path fill="#5053AB" stroke="#5053AB" stroke-width="3" stroke-linecap="round" stroke-linejoin="round" stroke-miterlimit="10" d="M325.06 85.48v158.04l-76.87-45.85v-73.36zM147.06 128.63c-17.87 0-32.36 12.78-32.36 28.56v7.61c0 15.77 14.49 28.56 32.36 28.56v-64.73zM165.67 193.08l-22.93 77.94h36.68l32.09-82.52z"/><path fill="#8891EA" stroke="#8891EA" stroke-width="3" stroke-linecap="round" stroke-linejoin="round" stroke-miterlimit="10" d="M248.19 122.15l-98.97 4.32-2.16 69.04 98.98 4.32z"/><path stroke="#1C234F" stroke-width="3" stroke-linecap="round" stroke-linejoin="round" stroke-miterlimit="10" fill="none" d="M158.92 171.78h34.53"/><path stroke="#FFC04D" stroke-width="3" stroke-linecap="round" stroke-linejoin="round" stroke-miterlimit="10" fill="none" d="M221.49 130.78v2.16M230.12 130.78v2.16M238.75 130.78v2.16"/><path stroke="#1C234F" stroke-width="3" stroke-linecap="round" stroke-linejoin="round" stroke-miterlimit="10" fill="none" d="M154.61 180.41h43.15M158.92 189.04h34.53"/><path stroke="#FFC04D" stroke-width="4" stroke-linecap="round" stroke-linejoin="round" stroke-miterlimit="10" d="M342.32 115.35c1.83 1.52 3.55 3.46 5.14 5.76" fill="none"/><path fill="#FFC04D" d="M355.46 133.59c2.34 6.36 3.67 13.04 4.21 19.74.43 6.72.24 13.41-.07 20.11-.36 6.7-1.66 13.38-3.85 19.76-.53 1.6-1.08 3.2-1.68 4.78l-.9 2.38-1.02 2.34c-.37.77-.76 1.53-1.17 2.29-.42.75-.89 1.47-1.34 2.21-.47.73-.99 1.42-1.48 2.14-.53.69-1.12 1.34-1.67 2.01-.64.76-1.77.87-2.53.23-.75-.63-.87-1.74-.26-2.5l.09-.11c3.86-4.88 6.52-10.77 8.64-16.83.96-3.07 1.73-6.21 2.32-9.39.16-.79.31-1.59.42-2.39l.43-2.39c.23-1.6.49-3.21.65-4.82.35-3.23.6-6.48.56-9.74-.05-3.26-.24-6.51-.62-9.74-.38-3.22-.67-6.47-1.32-9.65-.62-3.19-1.54-6.31-2.8-9.29-.39-.92.04-1.97.96-2.36.92-.39 1.97.04 2.36.96l.03.08.04.18zM355.19 97.03c4.66 3.92 8.23 8.83 11.03 14.03.7 1.3 1.3 2.65 1.95 3.97.6 1.34 1.14 2.71 1.71 4.06.52 1.37 1 2.76 1.5 4.13.48 1.38.84 2.8 1.25 4.21 1.51 5.65 2.58 11.38 3.33 17.14.36 2.88.66 5.77.95 8.66.2 2.89.43 5.79.47 8.69.12 2.9.08 5.81.01 8.71l-.18 4.36-.4 4.34c-.63 5.78-1.64 11.52-3.06 17.17-.72 2.82-1.46 5.64-2.36 8.41-.39 1.41-.92 2.77-1.37 4.16-.47 1.38-1.06 2.73-1.58 4.1-.59 1.34-1.18 2.69-1.85 4-.72 1.29-1.35 2.62-2.16 3.87-1.47 2.57-3.28 4.96-5.23 7.23-.65.75-1.78.84-2.54.19-.72-.62-.83-1.68-.27-2.43l.1-.14c.82-1.1 1.72-2.13 2.46-3.31l1.16-1.71 1.06-1.79c.74-1.17 1.32-2.45 1.98-3.67l1.79-3.79c.53-1.3 1.11-2.57 1.59-3.89.47-1.32 1-2.62 1.41-3.97.9-2.66 1.75-5.36 2.39-8.11 2.59-11 3.65-22.36 3.66-33.7.07-11.35-1.54-22.73-4.75-33.57-1.63-5.4-3.47-10.77-6.09-15.73-1.29-2.49-2.83-4.84-4.53-7.02-1.63-2.25-3.64-4.15-5.73-5.86-.77-.63-.89-1.76-.26-2.54.63-.77 1.76-.89 2.54-.26l.02.06z"/><path fill="#948CFF" d="M153.32 264.14c1.32-4.53 2.7-9.05 4.24-13.51.8-2.22 1.59-4.45 2.36-6.68.41-1.11.74-2.24 1.08-3.37l1.02-3.39c1.29-4.54 2.8-9.01 4.37-13.47.39-1.11.72-2.25 1.08-3.37l.96-3.41c.31-1.14.7-2.26 1.05-3.38.35-1.13.72-2.25 1.11-3.36l2.57.82c-1.25 4.55-2.69 9.05-4.26 13.5-1.42 4.5-2.85 9-4.45 13.44-.75 2.24-1.59 4.45-2.28 6.7l-2.08 6.77c-.68 2.26-1.52 4.47-2.25 6.71-.4 1.11-.67 2.26-1.02 3.39-.33 1.13-.65 2.27-.92 3.42l-2.58-.81z"/></g></svg>