<svg xmlns="http://www.w3.org/2000/svg" viewBox="0 0 470 350"><path fill="#E6E8F0" d="M286.14 62.82l-1.11.01 1.36-1.32c-.11 6.44-.23 12.89-.45 19.33-.13 6.44-.56 12.88-.79 19.32-.15 3.22-.28 6.44-.32 9.66l-.19 9.67c-.07 3.22-.1 6.44-.21 9.66l-.36 9.66-1.3-1.34 5.62.07-1.24 1.25c0-5.18-.08-10.36-.14-15.54l-.29-15.54c-.21-10.36-.26-20.72-.54-31.06l2.7-.08c.18 5.19.3 10.37.41 15.56.11 5.18.23 10.36.27 15.55l.14 15.55.08 15.55.01 1.42h-1.42l-5.62.01h-1.46l.04-1.46.29-9.66c.1-3.22.27-6.44.4-9.66.25-6.44.6-12.88.71-19.32.19-6.44.22-12.89.54-19.33.11-3.22.28-6.44.33-9.66.03-3.22.13-6.44.1-9.67l-.01-1.23 1.33-.05 1.11-.04v2.69z"/><path fill="#D5DAEA" d="M330.31 103.85c-.1-2.05-.12-4.09-.05-6.14.11-2.05.23-4.09.1-6.14-.1-2.05-.05-4.09.04-6.14.04-1.02-.03-2.05-.08-3.07-.03-1.02-.04-2.05 0-3.07h1.8c.13 2.05.13 4.09.04 6.14.02 2.05.02 4.09-.1 6.14-.12 2.05-.09 4.09-.03 6.14 0 2.05-.19 4.09.09 6.14h-1.81z"/><path fill="#D5DAEA" d="M347.38 131.3c-1.44-2.3-2.61-4.76-4.32-6.9-1.48-2.27-2.72-4.7-4.1-7.03-.69-1.17-1.36-2.35-2-3.55-.66-1.19-1.31-2.38-1.94-3.59-.64-1.2-1.41-2.32-2.05-3.52-.65-1.19-1.31-2.38-2.06-3.51h.81c-.68 1.18-1.45 2.32-2.14 3.49-.79 1.11-1.2 2.47-1.94 3.61l-4.04 7.12c-.73 1.15-1.54 2.26-2.2 3.45-.7 1.17-1.33 2.38-2.09 3.52l-1.14 1.7c-.34.59-.7 1.17-1.03 1.77l-1.99 3.58-1.35-.81 2.06-3.54 1.03-1.77.93-1.83c.68-1.19 1.43-2.32 2.18-3.47.76-1.14 1.44-2.32 2.18-3.47 1.63-2.21 2.82-4.67 4.18-7.04.53-1.27 1.71-2.16 2.22-3.44.62-1.22 1.16-2.49 1.88-3.65l.93-1.49.78 1.49c.31.6.58 1.23.95 1.81l1.08 1.73c.34.59.71 1.16 1.02 1.76.32.6.64 1.2 1.03 1.75.9 1.04 1.44 2.3 2.03 3.53.27.63.66 1.18 1 1.77l.89 1.84c1.21 2.44 2.88 4.6 4.31 6.91.68 1.17 1.22 2.43 2.06 3.51.76 1.13 1.46 2.29 2.19 3.43l-1.35.84z"/><path fill="#E6E8F0" stroke="#E6E8F0" stroke-width="3" stroke-miterlimit="10" d="M314.38 130.9c0 7.76 7.54 10.47 16.84 10.47s16.84-2.71 16.84-10.47h-33.68z"/><path fill="#D5DAEA" d="M254.44 106.58c-1.44-2.3-2.61-4.76-4.32-6.9-1.48-2.27-2.72-4.7-4.1-7.03-.69-1.17-1.36-2.35-2-3.55-.66-1.19-1.31-2.38-1.94-3.59-.64-1.2-1.41-2.32-2.05-3.52-.65-1.19-1.31-2.38-2.06-3.51h.81c-.68 1.18-1.45 2.32-2.14 3.49-.79 1.11-1.2 2.46-1.94 3.61l-4.04 7.12c-.73 1.15-1.54 2.26-2.2 3.45-.7 1.17-1.33 2.38-2.09 3.52l-1.14 1.7c-.34.59-.7 1.17-1.03 1.77l-1.99 3.58-1.35-.81 2.06-3.54 1.03-1.77.93-1.83c.68-1.19 1.43-2.32 2.18-3.47.76-1.14 1.44-2.32 2.18-3.47 1.63-2.2 2.82-4.67 4.18-7.04.53-1.27 1.71-2.16 2.22-3.44.62-1.22 1.16-2.49 1.88-3.65l.93-1.49.78 1.49c.31.6.58 1.23.95 1.81l1.08 1.73c.34.59.71 1.16 1.02 1.76.32.6.64 1.2 1.03 1.75.9 1.04 1.44 2.3 2.03 3.53.27.63.66 1.18 1 1.77l.89 1.84c1.21 2.44 2.88 4.6 4.31 6.91.68 1.17 1.22 2.43 2.06 3.51.76 1.13 1.46 2.29 2.19 3.43l-1.35.84z"/><path fill="#E6E8F0" stroke="#E6E8F0" stroke-width="3" stroke-miterlimit="10" d="M221.44 106.18c0 7.76 7.54 10.47 16.84 10.47s16.84-2.71 16.84-10.47h-33.68z"/><path fill="#D5DAEA" d="M237.38 79.52c-.1-2.05-.12-4.09-.05-6.14.11-2.05.23-4.09.1-6.14-.1-2.05-.05-4.09.04-6.14.04-1.02-.03-2.05-.08-3.07-.03-1.02-.04-2.05 0-3.07h1.8c.13 2.05.13 4.09.04 6.14.02 2.05.02 4.09-.1 6.14-.12 2.05-.09 4.09-.03 6.14 0 2.05-.19 4.09.09 6.14h-1.81zM276.91 146.04l2.25-.04c.38-.02.72.02 1.08.04.37 0 .78-.05 1.18-.1 1.65-.27 3.05-.2 4.52-.18 1.45.05 2.94 0 4.41.09l2.22.11c.74.06 1.49.14 2.25.11l-.54.54c-.02-1.1-.07-2.18-.51-3.19a8.77 8.77 0 0 0-.86-1.37c-.31-.45-.68-.84-1.09-1.2-.43-.32-.85-.7-1.38-.85-.26-.08-.53-.14-.79-.2-.25-.08-.51-.14-.77-.19-.52-.11-1.05-.13-1.57-.13l-1.73.04c-.58.01-1.15.07-1.73.07-.51.05-1.03.03-1.54.13-1.04.14-1.98.7-2.77 1.36-.72.72-1.61 1.39-1.97 2.42-.2.49-.32 1-.4 1.52-.02.26-.07.52-.06.78v.49c0 .02 0-.05-.02-.07-.01-.09-.09-.16-.18-.18zm-1.12 1.11c-.09-.16-.18-.37-.21-.59-.02-.1-.02-.24-.02-.29v-.12l.02-.48c0-.32.07-.63.11-.95.11-.63.3-1.24.55-1.83.55-1.13 1.1-2.39 2.2-3.16 1.03-.82 2.27-1.29 3.51-1.59.63-.14 1.27-.2 1.91-.15.58.05 1.15.12 1.73.09.58-.02 1.15-.04 1.73-.08.63-.02 1.28-.02 1.91.13.63.12 1.27.33 1.75.78.26.19.53.35.81.49.27.16.53.34.81.5.52.36 1.06.75 1.47 1.26.47.47.66 1.13.9 1.72.26.59.47 1.2.61 1.83.11.62.17 1.32.11 1.89l-.1.9-.78-.03c-.4-.02-.79-.05-1.19 0-.4.04-.81.13-1.21.12-.8-.01-1.58-.2-2.36-.26-.8.04-1.58-.07-2.33-.18-.76-.11-1.53-.12-2.34-.08-1.58.04-3.31.25-4.78.07-.39-.02-.74-.07-1.16-.05-.42.03-.85.07-1.25.06h-2.4z"/><path fill="#D5DAEA" d="M298.82 154.57c.03-.82-.03-1.45-.14-2.16.01-.74-.56-1.3-.98-1.82-.79-1.08-1.76-2.11-3.07-2.61-.64-.24-1.32-.43-2.02-.49-.75-.06-1.55-.1-2.33-.19-.78-.05-1.56.01-2.35-.05-.78-.07-1.56-.09-2.35-.04-.78.02-1.56-.05-2.35-.05-.78-.1-1.56.25-2.35.2l-2.33.1c-.71.01-1.39.25-2.03.49-.65.21-1.35.44-1.87.93-.54.46-.96 1.03-1.37 1.59-.23.27-.44.56-.6.88-.12.34-.25.67-.29 1.03-.12.72-.1 1.36-.04 2.18h-1.57c-.03-.74-.03-1.69.18-2.52.09-.43.22-.84.37-1.26.15-.41.29-.84.49-1.24.95-1.53 2.51-2.57 4.14-3.15.85-.22 1.71-.28 2.57-.37.82-.05 1.57-.15 2.36-.17.39 0 .78-.07 1.17.08.39.16.78.11 1.17.07.78-.09 1.56-.28 2.35-.26.78.16 1.56.12 2.35.08.39.01.78-.01 1.17.03.39.03.78.09 1.17.02.79-.22 1.55-.09 2.36.08.43.1.86.1 1.29.18.42.13.82.29 1.19.51.74.42 1.48.78 2.18 1.26.69.49 1.33 1.07 1.81 1.79.47.74.58 1.6.96 2.38.27.8.34 1.74.34 2.49h-1.58zM334.44 82.47c-3.56-2.35-7.46-4.42-11.3-6.44-3.79-2.19-7.96-3.59-12.02-5.18-8.12-3.18-16.28-6.28-24.69-8.69-8.3-2.65-16.78-5.14-25.54-5.74-4.35-.45-8.7-.6-13.04-1.09-1.09-.01-2.18-.06-3.26-.04-1.09.04-2.17-.22-3.26-.22-2.16.01-4.37.27-6.44.57l-.3-2.34c1.17-.15 2.25-.23 3.38-.31l3.34-.14c1.11-.1 2.23-.29 3.34-.2 1.11.04 2.22.15 3.32.26 2.21.22 4.43.32 6.6.8.55.08 1.1.12 1.65.14.55.05 1.1.1 1.66.11 1.1.07 2.22.06 3.32.23.55.08 1.11.08 1.63.3.53.2 1.05.44 1.61.46 1.1.12 2.21.16 3.33.21.55.06 1.11.08 1.65.18.55.07 1.07.32 1.6.47 1.07.29 2.17.4 3.26.63.54.12 1.09.21 1.62.37.53.17 1.06.32 1.6.46.54.13 1.1.16 1.65.21.56.05 1.09.21 1.62.38 1.04.39 2.04.96 3.13 1.15 1.08.23 2.07.81 3.12 1.13 4.18 1.41 8.41 2.63 12.6 3.99 4.21 1.32 8.36 2.82 12.46 4.45 4.07 1.72 7.95 3.84 12.02 5.56 4 1.91 7.87 3.98 11.68 6.4l-1.34 1.93z"/><ellipse fill="#D5DAEA" stroke="#D5DAEA" stroke-width="3" stroke-miterlimit="10" cx="286.21" cy="60.77" rx="4.67" ry="5.19"/><path fill="#D5DAEA" d="M117.04 278.99c.13 1.14.21 2.27.09 3.41-.05.57-.21 1.14-.23 1.7-.05.57.01 1.14.08 1.7.07.57.13 1.14.09 1.7-.03.57-.1 1.14-.15 1.7-.08.57.05 1.14.13 1.7.05.57.06 1.14-.01 1.7a1.356 1.356 0 0 1-2.68.12l-.02-.12c-.23-1.14-.19-2.27-.06-3.41-.02-1.14-.06-2.27.14-3.41.08-.57.15-1.14.14-1.7.01-.57-.09-1.14-.1-1.7-.05-.57.1-1.14.12-1.7 0-.57-.05-1.14-.24-1.7-.24-.71.14-1.48.85-1.73.71-.24 1.48.14 1.73.85.03.09.05.19.06.28l.06.61z"/><path fill="#D5DAEA" d="M121.83 282.24c-.88.87-1.79 1.71-2.83 2.38-.52.34-1.09.61-1.59.97-.51.35-.96.78-1.4 1.22-.44.44-.88.87-1.38 1.23-.5.36-1.03.69-1.54 1.04-.53.32-.93.81-1.36 1.26-.45.42-.93.81-1.45 1.15-.63.41-1.47.23-1.88-.4-.34-.52-.28-1.18.11-1.63l.08-.09c.82-.95 1.81-1.69 2.85-2.36.95-.78 1.89-1.59 2.98-2.2.53-.32 1.06-.65 1.53-1.05.49-.38.9-.84 1.38-1.23.45-.42 1.03-.69 1.52-1.06.48-.39.93-.81 1.29-1.35a1.354 1.354 0 1 1 2.25 1.51c-.05.07-.11.14-.17.2l-.39.41z"/><path fill="#D5DAEA" d="M119.86 291.8c-.98-.74-1.92-1.51-2.72-2.44-.41-.46-.75-.99-1.17-1.42-.41-.45-.89-.83-1.39-1.2-.49-.36-.98-.74-1.4-1.18-.43-.44-.82-.91-1.23-1.36-.39-.47-.92-.8-1.42-1.16-.48-.38-.93-.79-1.33-1.26-.49-.56-.43-1.42.13-1.91.47-.41 1.13-.44 1.62-.12l.1.06c1.04.67 1.91 1.53 2.7 2.46.9.82 1.82 1.63 2.57 2.61.39.48.79.94 1.24 1.35.44.42.95.77 1.4 1.18.48.38.82.91 1.25 1.34.45.42.92.8 1.5 1.07.68.32.96 1.13.64 1.81a1.355 1.355 0 0 1-2.04.5l-.45-.33zM139.18 278.99c.13 1.14.21 2.27.09 3.41-.05.57-.21 1.14-.23 1.7-.05.57.01 1.14.08 1.7.07.57.13 1.14.1 1.7-.03.57-.1 1.14-.15 1.7-.08.57.05 1.14.13 1.7.05.57.06 1.14-.01 1.7a1.356 1.356 0 0 1-2.68.12l-.02-.12c-.23-1.14-.19-2.27-.06-3.41-.02-1.14-.06-2.27.14-3.41.08-.57.15-1.14.14-1.7.01-.57-.09-1.14-.1-1.7-.05-.57.1-1.14.12-1.7 0-.57-.05-1.14-.24-1.7-.24-.71.14-1.48.85-1.73.71-.24 1.48.14 1.73.85.03.09.05.19.06.28l.05.61z"/><path fill="#D5DAEA" d="M143.97 282.24c-.88.87-1.79 1.71-2.83 2.38-.52.34-1.09.61-1.59.97-.51.35-.96.78-1.4 1.22-.44.44-.88.87-1.38 1.23-.5.36-1.03.69-1.54 1.04-.53.32-.93.81-1.36 1.26-.45.42-.93.81-1.45 1.15-.63.41-1.47.23-1.88-.4-.34-.52-.28-1.18.11-1.63l.08-.09c.82-.95 1.81-1.69 2.85-2.36.95-.78 1.89-1.59 2.98-2.2.53-.32 1.06-.65 1.53-1.05.49-.38.9-.84 1.38-1.23.45-.42 1.03-.69 1.52-1.06.48-.39.93-.81 1.29-1.35a1.354 1.354 0 1 1 2.25 1.51c-.05.07-.11.14-.17.2l-.39.41z"/><path fill="#D5DAEA" d="M142 291.8c-.98-.74-1.92-1.51-2.72-2.44-.41-.46-.75-.99-1.17-1.42-.41-.45-.89-.83-1.39-1.2-.49-.36-.98-.74-1.4-1.18-.43-.44-.82-.91-1.23-1.36-.39-.47-.92-.8-1.42-1.16-.48-.38-.93-.79-1.33-1.26-.49-.56-.43-1.42.13-1.91.47-.41 1.13-.44 1.62-.12l.1.06c1.04.67 1.91 1.53 2.7 2.46.9.82 1.82 1.63 2.57 2.61.39.48.79.94 1.24 1.35.44.42.95.77 1.4 1.18.48.38.82.91 1.25 1.34.45.42.92.8 1.5 1.07.68.32.96 1.13.64 1.81a1.355 1.355 0 0 1-2.04.5l-.45-.33zM161.33 278.99c.13 1.14.21 2.27.09 3.41-.05.57-.21 1.14-.23 1.7-.05.57.01 1.14.08 1.7.07.57.13 1.14.1 1.7-.03.57-.1 1.14-.15 1.7-.08.57.05 1.14.13 1.7.05.57.06 1.14 0 1.7a1.356 1.356 0 0 1-2.68.12l-.02-.12c-.23-1.14-.19-2.27-.06-3.41-.02-1.14-.06-2.27.14-3.41.08-.57.15-1.14.14-1.7.01-.57-.09-1.14-.1-1.7-.05-.57.1-1.14.12-1.7 0-.57-.05-1.14-.24-1.7-.24-.71.14-1.48.85-1.73.71-.24 1.48.14 1.73.85.03.09.05.19.06.28l.04.61z"/><path fill="#D5DAEA" d="M166.12 282.24c-.88.87-1.79 1.71-2.83 2.38-.52.34-1.09.61-1.59.97-.51.35-.96.78-1.4 1.22-.44.44-.88.87-1.38 1.23-.5.36-1.03.69-1.54 1.04-.53.32-.93.81-1.36 1.26-.45.42-.93.81-1.45 1.15-.63.41-1.47.23-1.88-.4-.34-.52-.28-1.18.11-1.63l.08-.09c.82-.95 1.81-1.69 2.85-2.36.95-.78 1.89-1.59 2.98-2.2.53-.32 1.06-.65 1.53-1.05.49-.38.9-.84 1.38-1.23.45-.42 1.03-.69 1.52-1.06.48-.39.93-.81 1.29-1.35a1.354 1.354 0 1 1 2.25 1.51c-.05.07-.11.14-.17.2l-.39.41z"/><path fill="#D5DAEA" d="M164.15 291.8c-.98-.74-1.92-1.51-2.72-2.44-.41-.46-.75-.99-1.17-1.42-.41-.45-.89-.83-1.39-1.2-.49-.36-.98-.74-1.4-1.18-.43-.44-.82-.91-1.23-1.36-.39-.47-.92-.8-1.42-1.16-.48-.38-.93-.79-1.33-1.26-.49-.56-.43-1.42.13-1.91.47-.41 1.13-.44 1.62-.12l.1.06c1.04.67 1.91 1.53 2.7 2.46.9.82 1.82 1.63 2.57 2.61.39.48.79.94 1.24 1.35.44.42.95.77 1.4 1.18.48.38.82.91 1.25 1.34.45.42.92.8 1.5 1.07.68.32.96 1.13.64 1.81a1.355 1.355 0 0 1-2.04.5l-.45-.33z"/><circle fill="#D5DAEA" cx="181.84" cy="285.81" r="2.58"/><path fill="#D5DAEA" d="M185.77 285.81c.05 1.02-.31 2.11-1.05 2.88-.73.77-1.83 1.21-2.88 1.14-1.06-.05-2.01-.63-2.68-1.34-.66-.73-1.11-1.66-1.19-2.68-.08-1 .3-2.1 1.06-2.8.75-.72 1.81-1.06 2.8-1.01.97.08 1.99.34 2.78 1.03.79.69 1.17 1.76 1.16 2.78zm-2.7 0c-.09-.33-.28-.56-.48-.75-.21-.17-.43-.4-.75-.42-.62.03-1.14.5-1.32 1.17-.08.34 0 .76.29 1.03.28.28.68.34 1.03.33.34-.05.74-.04 1.04-.31.3-.28.3-.74.19-1.05z"/><g><path fill="#FFF" d="M237.52 255.96L130 259.25l-23.74.73V87.57l90.8 1.8 39.99.8z"/><path fill="#F5F5F7" d="M237.52 255.96L130 259.25c.1-1.39.19-2.62.22-3.56.48-14.87 3.47-30.55 14.56-41.33 7.32-7.12 17.09-11.01 25.81-16.32 8.72-5.32 17.08-13.17 18.15-23.32 1.45-13.63-10.41-24.88-13.91-38.13-4.1-15.48 4.03-32.14 16.17-42.57a65.88 65.88 0 0 1 6.05-4.63l39.99.8.48 165.77z"/><path fill="#0C1238" d="M238.65 257.06l-33.11 1.21c-5.54.17-11.12.26-16.63.48l-16.47.85-8.26.43c-2.76.14-5.54.21-8.3.31l-16.62.57-32.94.84h-.02c-.98.02-1.79-.75-1.81-1.72v-.05l.18-43.1.38-43.1c.29-14.37.04-28.73.19-43.1l.15-21.55c.02-7.18-.05-14.37-.08-21.55 0-.53.43-.96.96-.96h.03l32.69.76c10.9.37 21.8.14 32.7.29l65.4.95c.84.01 1.52.69 1.53 1.53v.03c.19 13.91.03 27.83-.06 41.71l.12 41.75c-.01 6.95-.13 13.85-.19 20.76l-.05 5.18.02 5.22.04 10.44.15 41.82zm-2.27-2.19l-.39-41.28-.1-10.31c-.02-3.43-.07-6.87-.15-10.33-.14-6.9-.3-13.8-.35-20.65l-.01-20.5.06-20.51c-.02-13.7-.05-27.4.14-41.13l1.45 1.47c-10.9-.39-21.8-.44-32.7-.58l-32.7-.42c-5.45.01-10.9-.32-16.34-.62-5.45-.29-10.9-.24-16.35-.28l-32.71-.17 2.04-2-.25 21.55.08 21.55c.09 14.37-.38 28.73.05 43.1.31 14.37-.48 28.73-.4 43.1.07 7.18-.19 14.37-.29 21.55l-.16 10.78-.07 5.39.02 5.39-1.01-.98c5.47-.2 10.94-.35 16.4-.58l16.33-.66 16.24-.63c2.71-.09 5.4-.2 8.11-.26l8.14-.16 16.32-.31 16.16-.61 32.44-.91z"/><path fill="#0C1238" d="M105.69 247.26c-1.01.07-2.03.04-3.04.07-.51.03-1.02-.18-1.52-.09-.5.07-1.01.22-1.51.36-1.01.29-2.02.32-3.03.31-1.01-.01-2.03-.04-3.05-.08l-.22-.01c-.92-.04-1.65-.81-1.61-1.74v-.03c.1-1.81.09-3.63.31-5.44.06-1.81.57-3.63.38-5.44l.07-1.36c.03-.45.09-.91.11-1.36.13-.91-.1-1.81-.06-2.72.02-1.81.4-3.63-.24-5.44-.13-1.81-.21-3.63-.28-5.44-.07-.91-.2-1.81-.13-2.72.06-.91.26-1.81.23-2.72.02-.91-.11-1.81-.12-2.72-.01-.45-.01-.91.06-1.36.07-.45.18-.91.2-1.36.05-.91-.05-1.81-.11-2.72l-.22-2.72c-.07-.87.58-1.63 1.44-1.7s1.63.58 1.7 1.44v.07l.01.18.08 2.72c.01.91.02 1.81.09 2.72.51 1.81.22 3.63.05 5.44-.07.91-.06 1.81-.11 2.72-.01.91-.31 1.81-.3 2.72-.01 1.81.43 3.63.42 5.44.04.45-.24.91-.37 1.36-.09.45-.01.91.04 1.36.15.91.43 1.81.51 2.72.07.45-.01.91-.12 1.36-.11.45-.13.91-.11 1.36l.08 1.36-.02 1.36c-.01.45-.11.91-.13 1.36-.04.45.07.91.19 1.36.28.91-.02 1.81-.24 2.72-.31.91.02 1.81-.27 2.72-.11.45-.22.91-.31 1.36-.06.45-.11.91-.09 1.36l-.99-.96c1.01-.04 2.02-.23 3.03-.36 1.01-.15 2.02-.35 3.04-.22.51.06 1.02.12 1.52.12.51.02 1.01-.24 1.51-.27 1.01-.09 2.02-.23 3.03-.26.87-.03 1.6.64 1.63 1.51.03.85-.62 1.57-1.46 1.63l-.07.03zM91.91 193.5l.03-14.98c.05-2.5.23-4.99.09-7.49l-.31-7.49c-.26-4.99-.2-9.99-.17-14.98l.19-14.98.12-14.98.28-14.98c.07-4.99.37-9.99.28-14.98-.03-2.5-.02-4.99.02-7.49.02-2.5.06-4.99.12-7.49v-.05c.01-.5.43-.9.93-.89h.03c5.45.27 10.9.14 16.35.32 5.45.17 10.9.32 16.35.42 1.36.01 2.73-.05 4.09-.09 1.36-.03 2.73-.09 4.09-.09l8.18.07 16.35.15 8.18.03 4.09.04 4.09.16 8.17.32c2.72.07 5.45.08 8.18.12l8.18.1 2.04.03 2.04.09 4.08.19 4.08.19 4.09.06c2.72.06 5.45.04 8.18.06.73 0 1.31.59 1.33 1.31v.04l.26 12.94a1.575 1.575 0 1 1-3.15.07v-.06l-.12-12.94 1.62 1.65-8.18-.11-4.09-.06-4.09.07c-5.45.14-10.9-.1-16.35-.29l-8.17-.32-8.17-.22-4.09-.12-4.08-.21c-2.72-.14-5.45-.24-8.17-.32l-16.38-.02-8.18-.03c-2.73 0-5.44-.52-8.17-.57-5.45-.11-10.91.19-16.36.22-2.73.07-5.45-.06-8.17-.24-2.72-.2-5.45-.22-8.17-.25l1.81-1.78c.04 2.5.07 4.99.05 7.49l-.01 3.75-.09 3.75-.05 3.75c.03 1.25.05 2.5.13 3.75.14 2.5.23 4.99.12 7.49-.16 4.99-.56 9.99-.45 14.98-.08 4.99-.5 9.99-.52 14.98l.06 7.49.16 7.49c.09 4.99.32 9.99.17 14.98l-.15 7.49c-.05 2.5.11 4.99.19 7.49l.18 14.98a1.575 1.575 0 1 1-3.15.03v-.01l.01-.03z"/><path fill="#FFC04D" stroke="#FFC04D" stroke-width="2" stroke-linecap="round" stroke-linejoin="round" stroke-miterlimit="10" d="M138.85 101.41l-12.44 12.45h12.44z"/><path fill="#0C1238" d="M149.89 113.86c.02 1.05-.18 2.12-.67 3.06-.74.78-.74 1.97-1.46 2.86-.68.87-1.69 1.44-2.72 1.8-1.04.37-2.14.47-3.2.46-.53-.03-1.06-.09-1.58-.22-.51-.15-1-.37-1.46-.61-.93-.48-1.74-1.15-2.31-1.99-.28-.42-.63-.76-.92-1.16-.29-.4-.47-.87-.64-1.33-.15-.47-.21-.96-.28-1.44-.05-.48-.17-.95-.22-1.43-.04-.98.3-1.93.68-2.79.19-.44.43-.84.52-1.37.07-.25.16-.49.3-.7l.47-.6c.66-.77 1.49-1.41 2.44-1.84.94-.4 1.95-.82 3.02-.81.26.03.53.05.79.1l.76.23 1.46.51c.96.35 1.94.83 2.6 1.65.3.44.52.91.79 1.33.27.43.53.86.77 1.31.46.92.79 1.93.86 2.98zm-3.15 0c-.03-.65-.21-1.26-.46-1.84-.12-.29-.31-.55-.5-.8-.11-.11-.24-.21-.37-.3-.15-.07-.29-.14-.42-.22-.47-.34-.86-.79-1.38-1.13-.52-.34-1.15-.44-1.77-.51-.31-.04-.64-.14-.99-.15-.34-.01-.65.14-.95.29-.58.34-1.01.86-1.39 1.34-.09.13-.19.24-.29.36-.08.13-.24.2-.43.26-.17.08-.38.15-.44.3-.06.16-.12.31-.15.48-.1.69.21 1.35.16 1.92-.02.15-.09.3-.15.46-.04.16-.04.31-.02.47.07.3.22.58.35.85.13.28.27.54.39.83l.19.44c.1.12.2.24.35.31.33.12.66.16.84.4.11.09.2.23.3.37.11.12.21.28.33.39.13.1.26.23.42.27.16.03.33.03.48.1.31.13.62.3.97.45.71.29 1.47.03 2.06-.35.62-.37 1.07-.93 1.51-1.41.44-.44 1.27-.8 1.16-1.61.17-.67.25-1.32.2-1.97zM125.44 129.71c3.87-.2 7.74-.43 11.62-.53 3.87-.05 7.74-.2 11.62-.13l11.61.17c1.93.06 3.87 0 5.8-.03l5.8-.11 5.8-.11 2.9-.05 2.9.03 11.59.15c1.93.04 3.86-.03 5.79-.04l5.79-.22 11.5-.35.22 3.6c-7.82.66-15.54.66-23.29.53-7.74.07-15.47.08-23.2-.13l-5.8-.09c-1.93-.04-3.86-.07-5.79-.02-3.86.05-7.72.12-11.58.22-1.93.08-3.86.03-5.79.04l-5.79.03c-1.93-.01-3.86.16-5.78.24l-2.89.17-2.88.26-.15-3.63zM125.44 140.74c3.87-.2 7.74-.43 11.62-.53 3.87-.05 7.74-.2 11.62-.13l11.61.17c1.93.06 3.87 0 5.8-.03l5.8-.11 5.8-.11 2.9-.05 2.9.03 11.59.15c1.93.04 3.86-.03 5.79-.04l5.79-.22 11.5-.35.22 3.6c-7.82.66-15.54.66-23.29.53-7.74.07-15.47.08-23.2-.13l-5.8-.09c-1.93-.04-3.86-.06-5.79-.02-3.86.05-7.72.12-11.58.22-1.93.08-3.86.03-5.79.04l-5.79.03c-1.93-.01-3.86.16-5.78.24l-2.89.17-2.88.26-.15-3.63zM125.43 151.78c6.7-.5 13.4-.69 20.09-.67 6.7.12 13.38.31 20.07.03l5.01-.11 2.51-.05 2.51.03 10.02.15c1.67.04 3.34-.03 5-.04l5-.22 9.92-.35.26 3.59c-6.79.66-13.46.66-20.16.53-6.69.07-13.37.08-20.05-.13l-5.01-.09c-1.67-.04-3.34-.06-5.01-.02-3.34.05-6.67.12-10.01.22-1.67.08-3.34.03-5 .04l-5 .03c-3.33.07-6.66.27-9.97.67l-.18-3.61zM125.44 162.81c3.69-.2 7.38-.43 11.07-.53 3.69-.05 7.38-.2 11.07-.13l11.06.17c1.84.06 3.68 0 5.53-.03l5.52-.11 5.52-.11 2.76-.05 2.76.03 11.04.15c1.84.04 3.68-.03 5.52-.04l5.51-.22 10.95-.35.23 3.6c-7.46.66-14.81.66-22.19.53-7.37.07-14.73.08-22.09-.13l-5.52-.09c-1.84-.04-3.68-.07-5.52-.02-3.68.05-7.36.12-11.03.22-1.84.08-3.68.03-5.52.04l-5.51.03c-1.84-.01-3.67.16-5.51.24l-2.75.17-2.74.26-.16-3.63zM125.43 173.85c6.44-.5 12.89-.69 19.34-.67 6.44.13 12.88.31 19.31.03l4.82-.11 2.41-.05 2.41.03 9.64.15c1.61.04 3.21-.03 4.81-.04l4.81-.22 9.53-.35.27 3.59c-6.54.66-12.96.66-19.4.53-6.44.07-12.86.08-19.29-.13l-4.82-.09c-1.61-.04-3.21-.07-4.82-.02-3.21.05-6.42.12-9.63.22-1.6.08-3.21.03-4.81.04l-4.81.03c-3.21.07-6.41.27-9.59.67l-.18-3.61zM125.3 208.19c2.64-.49 5.29-.75 7.93-.69 1.32.02 2.64.19 3.95.2 1.31.04 2.62-.05 3.92-.16 1.31-.11 2.61-.2 3.91-.16 1.3.03 2.6.12 3.9.16.65.04 1.29.01 1.94-.04l1.92-.22c.62-.11 1.27-.09 1.87-.16l1.77-.17.65 3.54c-.35.08-.71.18-1.07.25l-1.03.15c-.69.09-1.35.17-2.02.2-.66.03-1.33.03-1.99.02-.66-.03-1.32-.09-1.98-.07-2.62.05-5.23.11-7.83-.13-1.3-.09-2.6-.17-3.89-.13-1.3.02-2.58.18-3.87.24-1.29.11-2.58-.02-3.86.05-.64.02-1.27.14-1.91.22-.63.13-1.25.26-1.87.46l-.44-3.56z"/><path fill="#D5DAEA" d="M154.56 100.96c2.2-.08 4.4-.12 6.61-.05 1.1.06 2.2.11 3.3.14 1.1.05 2.2-.03 3.3-.04 2.2-.1 4.4-.05 6.61.04 1.1.04 2.2-.03 3.3-.08 1.1-.03 2.2-.04 3.3 0 .5.01.89.43.87.93-.01.47-.38.84-.84.87h-.03c-2.2.13-4.4.13-6.61.04-2.2.02-4.4.02-6.61-.1-2.2-.12-4.4-.09-6.61-.03-1.1.03-2.2-.06-3.3-.07-.55-.03-1.1.03-1.65.04-.55.02-1.1.05-1.65.11a.9.9 0 0 1-1-.79.9.9 0 0 1 .79-1c.02 0 .05 0 .07-.01h.15zM154.56 108.65c1.79-.1 3.57-.12 5.36-.05 1.79.11 3.57.23 5.36.1 1.79-.1 3.57-.05 5.36.04.89.04 1.79-.03 2.68-.08.89-.03 1.79-.04 2.68 0 .5.02.89.44.87.93-.02.46-.38.83-.83.87H176c-1.79.13-3.57.13-5.36.04-1.79.02-3.57.02-5.36-.1-1.79-.12-3.57-.09-5.36-.03-1.79 0-3.57-.19-5.36.09a.902.902 0 0 1-1.03-.75c-.08-.49.26-.95.75-1.03.03 0 .06-.01.09-.01l.19-.02zM154.56 116.33c1.1-.09 2.2-.14 3.3-.06 1.1.13 2.2.24 3.3.1 1.1-.13 2.2-.04 3.3.04.55.04 1.1-.03 1.65-.08.55-.03 1.1-.04 1.65 0 .5.03.88.46.85.95-.03.44-.37.79-.79.84l-.05.01c-1.1.13-2.2.14-3.3.04-1.1.02-2.2.02-3.3-.1-1.1-.14-2.2-.08-3.3-.03-.55.04-1.1-.06-1.65-.07-.55 0-1.1.03-1.65.16a.914.914 0 0 1-1.09-.67c-.11-.49.19-.97.67-1.09.04-.01.09-.02.13-.02l.28-.02z"/><path fill="none" stroke="#FFC04D" stroke-width="2" stroke-linecap="round" stroke-linejoin="round" stroke-miterlimit="10" d="M128.09 203.07c2.57-1.56 5.2-3.16 7.13-5.46 1.94-2.3 3.09-5.48 2.25-8.37-.19-.63-.49-1.28-1.06-1.62-.75-.45-1.77-.23-2.43.34-.67.57-1.04 1.4-1.31 2.23-1.19 3.77-.2 8.36 3 10.68 3.2 2.32 8.49 1.41 10.13-2.18.62-1.37.52-3.29-.79-4.01-1.55-.85-3.58.91-3.4 2.67.19 1.76 1.91 3.04 3.66 3.32s3.52-.21 5.22-.7c3.67-1.04 7.33-2.09 11-3.13"/></g><g><path fill="#D5DAEA" d="M243.77 202.9H229.5v-36.37c0-10.87 4.16-21.48 11.53-29.47 8.51-9.23 18.44-13.13 30.92-13.32 19.7-.3-23.4-.26-28.25 34.52-1.11 7.95.07 15.99.07 23.96v20.68z"/><path fill="#D5DAEA" d="M244.72 203.85c-4.95.25-10.13.46-15.22.47h-1.42l-.01-1.43c-.07-8.51-.05-17.01-.05-25.52v-6.38c.01-2.14-.03-4.21.07-6.44.25-4.39 1.13-8.74 2.62-12.86 1.5-4.11 3.55-8.03 6.17-11.54 1.3-1.75 2.72-3.44 4.27-4.97 1.53-1.55 3.16-3.02 4.9-4.34a36.84 36.84 0 0 1 5.52-3.56c1.93-1.04 3.97-1.91 6.05-2.58 2.08-.69 4.22-1.21 6.38-1.56 2.15-.37 4.33-.58 6.5-.67 1.1-.05 2.16-.07 3.22-.09l1.61-.03h.83l.45.01c.17.01.3.01.63.07.03.01.1.02.18.05.04.01.16.05.33.16.05.04.6.37.65 1.02.03.82-.25.9-.36 1.12-.22.23-.31.26-.4.32l-.18.1c-.2.1-.34.15-.48.2l-.79.28-1.5.52c-.99.35-1.97.71-2.93 1.1-3.87 1.51-7.6 3.39-11 5.75-3.4 2.35-6.46 5.17-8.95 8.44-2.49 3.26-4.4 6.97-5.6 10.91-1.2 3.95-1.72 8.08-1.73 12.25-.03 4.18.31 8.4.52 12.67.12 2.16.15 4.25.13 6.51l-.07 6.7c-.06 4.48-.19 8.94-.34 13.32zm-1.91-1.91c-.16-4.14-.32-8.2-.42-12.22l-.11-6.04c-.01-1.98-.06-4.15-.14-6.24-.17-4.22-.47-8.49-.39-12.84.06-4.34.64-8.76 1.97-12.97 1.29-4.22 3.31-8.23 5.98-11.75 2.66-3.53 5.92-6.57 9.51-9.08s7.5-4.52 11.55-6.1c1.01-.39 2.04-.75 3.06-1.1l1.52-.5.72-.25.25-.1c.02-.01 0 0-.01.01-.03.03-.06.02-.24.2-.1.19-.34.25-.32 1.04.05.62.57.93.6.95.14.09.24.11.24.12l.08.02c.07.01-.07-.01-.16-.01l-.35-.01-.77-.01-1.58.01c-1.06.01-2.13.02-3.16.05-2.08.06-4.15.23-6.19.56-2.05.3-4.06.78-6.02 1.4-1.97.61-3.88 1.4-5.7 2.35a35.59 35.59 0 0 0-5.23 3.29c-6.61 5.01-11.68 12-14.39 19.82a42.66 42.66 0 0 0-2.33 12.14l-.09 12.7c-.05 8.51-.11 17.01 0 25.52l-1.18-1.18c2.24-.02 4.45-.01 6.66.04 2.2.04 4.4.1 6.64.18z"/></g><g><path fill="#0C1238" d="M228.15 190.84l-.13-14.88.01-7.44v-1.86l.09-1.92.11-1.92c.02-.32.04-.64.07-.96l.16-.95c.66-5.08 2.3-10.01 4.67-14.52.52-1.17 1.26-2.21 1.9-3.31.33-.54.64-1.1.99-1.63l1.13-1.54 1.13-1.54c.37-.52.83-.96 1.25-1.45.87-.93 1.65-1.95 2.62-2.78 3.65-3.55 7.88-6.59 12.61-8.57 4.69-2.05 9.72-3.25 14.81-3.6 1.27-.03 2.55-.14 3.82-.15 1.27.01 2.55.07 3.82.18 2.54.2 5.07.61 7.55 1.24 4.96 1.28 9.63 3.56 13.83 6.46a1.35 1.35 0 0 1-1.52 2.23l-.02-.02c-7.98-5.36-17.69-8-27.27-7.32-9.55.78-18.84 4.78-25.86 11.39-7.06 6.54-11.82 15.65-12.82 25.26-.5 4.73-.41 9.76-.47 14.71-.05 2.48.05 4.96.07 7.44.03 2.48.07 4.96.17 7.44.03.75-.55 1.38-1.3 1.41-.75.03-1.38-.55-1.41-1.3v-.04l-.01-.06z"/></g><g><path fill="#0C1238" d="M308.01 138.53c.63.58 1.22 1.22 1.61 1.98.2.38.32.82.53 1.18.19.38.47.7.76 1.02.29.32.56.65.75 1.04.19.38.34.79.5 1.18.14.41.45.72.72 1.06.24.36.43.73.56 1.14.23.71-.17 1.48-.88 1.71-.53.17-1.08 0-1.43-.39l-.12-.14c-.55-.62-.88-1.34-1.15-2.1-.4-.69-.84-1.35-1.1-2.14-.15-.38-.31-.76-.54-1.08-.22-.34-.53-.61-.77-.93-.27-.3-.39-.71-.62-1.04-.25-.32-.53-.61-.93-.8a1.37 1.37 0 0 1-.65-1.82 1.37 1.37 0 0 1 1.82-.65c.12.06.24.14.33.22l.61.56z"/></g><g><path fill="#0C1238" d="M316.35 155.01c.82 2.59 1.37 5.29 1.44 8.02.04 1.36-.04 2.74-.09 4.06-.05 1.32.01 2.63.08 3.95.18 2.63.06 5.27-.06 7.9-.03.66 0 1.32 0 1.98l.12 1.98c.05.66.03 1.32.03 1.98 0 .66 0 1.32-.03 1.98-.04.75-.67 1.32-1.42 1.28-.69-.03-1.23-.58-1.28-1.25v-.04c-.1-1.32-.14-2.63-.17-3.95-.03-1.32.09-2.63.11-3.95-.02-2.63-.03-5.27.15-7.9.04-1.32.16-2.63.13-3.95-.01-1.31-.07-2.57-.21-3.85-.15-1.27-.16-2.56-.36-3.83-.22-1.26-.54-2.51-1.05-3.7-.3-.69.02-1.48.7-1.78s1.48.02 1.78.7c.02.04.03.09.05.13l.08.24z"/></g><g><path fill="#0C1238" d="M300.88 194.49l-.12-17.95-.01-8.97c.05-2.94-.24-5.72-1.02-8.48-1.49-5.47-4.63-10.54-9.05-14.2-2.21-1.82-4.66-3.37-7.34-4.41a27.3 27.3 0 0 0-8.36-1.84c-5.73-.38-11.5 1.1-16.37 4.06-4.9 2.92-8.87 7.38-11.24 12.6-1.2 2.6-1.92 5.42-2.22 8.26-.15 1.44-.13 2.83-.11 4.35l.06 4.49c.09 5.98 0 11.96.01 17.95 0 .75-.6 1.35-1.35 1.35-.74 0-1.35-.6-1.35-1.34v-.01c-.05-5.98-.18-11.96-.15-17.95l.01-4.49c0-1.46.01-3.09.2-4.64a32.35 32.35 0 0 1 2.48-9.05c2.52-5.75 6.85-10.67 12.22-13.91 5.38-3.24 11.79-4.66 17.99-4.15 6.22.49 12.22 2.96 17.06 6.86 4.82 3.92 8.47 9.32 10.11 15.35.83 2.99 1.11 6.18 1.05 9.2 0 2.99-.06 5.98-.02 8.97.08 5.98.07 11.96.23 17.95a1.352 1.352 0 0 1-2.7.08v-.02l-.01-.06z"/></g><path fill="#8891EA" stroke="#8891EA" stroke-width="3" stroke-linecap="round" stroke-linejoin="round" stroke-miterlimit="10" d="M333.33 196.35v92.94c-14.35 1.91-28.6 3.15-42.77 3.71-12.64.5-25.2.45-37.69-.17-5.15-.26-10.28-.61-15.39-1.07-.83-.07-1.65-.14-2.48-.22-1.84-.17-3.67-.36-5.5-.55-4.51-.49-9.01-1.06-13.5-1.7v-92.94c4.5-.37 9-.69 13.5-.96 1.84-.13 3.67-.23 5.5-.32.83-.05 1.65-.09 2.48-.13 21.54-1.12 43.08-1.27 64.61-.45 4.95.19 9.9.42 14.84.72 5.47.31 10.93.69 16.4 1.14z"/><path fill="#FFF" d="M235.48 197.95c-2.96 27.02-2.32 59.22 0 93.81-.83-.07-4.15-.56-5.98-.75-1.71-34.61-2.29-66.74 0-92.63 1.84-.13 5.15-.4 5.98-.43z"/><path fill="#6C74C4" stroke="#6C74C4" stroke-width="3" stroke-linecap="round" stroke-linejoin="round" stroke-miterlimit="10" d="M333.33 196.35v92.94c-14.35 1.91-28.6 3.15-42.77 3.71 5.41-44.72 24.53-35.7 26.37-97.79 5.47.31 10.93.69 16.4 1.14z"/><g><path fill="#5053AB" d="M333.46 284.12c-2.43.37-4.86.78-7.3 1.11-1.23.11-2.45.28-3.65.52l-3.64.67c-2.44.29-4.89.61-7.34.84l-7.36.61c-4.91.37-9.83.57-14.75.64-2.46.03-4.92.17-7.38.19-2.46-.02-4.92-.05-7.38.04-4.92-.08-9.83-.19-14.76-.16l-7.38-.3-7.37-.44c-4.89-.62-9.79-1-14.67-1.64l-3.64-.6-3.66-.47-7.31-1.01a.789.789 0 0 1 .22-1.56h.01l.04.01c4.85.71 9.68 1.55 14.57 1.94 2.44.23 4.86.59 7.29.92 2.43.3 4.87.51 7.31.78 2.44.25 4.87.56 7.32.65l7.35.25c2.45-.12 4.89.49 7.34.37 2.45-.06 4.9-.2 7.35-.19 9.8.19 19.58-.43 29.39-.82 2.45-.1 4.89-.37 7.33-.66 2.43-.34 4.86-.71 7.29-1.01l3.65-.41c1.22-.12 2.43-.31 3.64-.54 2.41-.45 4.83-.84 7.24-1.26h.01c.43-.07.84.21.91.64.07.43-.21.84-.64.91-.02-.02-.02-.02-.03-.02z"/></g><g><path fill="#5053AB" d="M333.46 279.29c-2.43.37-4.86.78-7.3 1.11-1.23.11-2.45.28-3.65.52l-3.64.67c-2.44.29-4.89.61-7.34.84l-7.36.61c-4.91.37-9.83.57-14.75.64-2.46.03-4.92.17-7.38.19-2.46-.02-4.92-.05-7.38.04-4.92-.08-9.83-.19-14.76-.16l-7.38-.3-7.37-.44c-4.89-.62-9.79-1-14.67-1.64l-3.64-.6-3.66-.47-7.31-1.01a.789.789 0 0 1 .22-1.56h.01l.04.01c4.85.71 9.68 1.55 14.57 1.94 2.44.23 4.86.59 7.29.92 2.43.3 4.87.51 7.31.78 2.44.25 4.87.56 7.32.65l7.35.25c2.45-.12 4.89.49 7.34.37 2.45-.06 4.9-.2 7.35-.19 9.8.19 19.58-.43 29.39-.82 2.45-.1 4.89-.37 7.33-.66 2.43-.34 4.86-.7 7.29-1.01l3.65-.41c1.22-.12 2.43-.31 3.64-.54 2.41-.45 4.83-.84 7.24-1.26h.01c.43-.07.84.21.91.64.07.43-.21.84-.64.91-.02-.02-.02-.02-.03-.02z"/></g><g><path fill="#0C1238" d="M276.89 242.88l3.11 15.89h-10.66l3.11-15.89a6.823 6.823 0 0 1-4.63-6.46c0-3.78 3.07-6.85 6.85-6.85s6.85 3.07 6.85 6.85c0 3-1.95 5.55-4.63 6.46z"/><path fill="#0C1238" d="M278.44 243.79c.71 2.53 1.32 4.95 1.93 7.37.31 1.21.55 2.4.81 3.61l.74 3.63a1.966 1.966 0 0 1-1.89 2.35H280c-1.78.02-3.55-.03-5.33-.1l-5.33-.16h-.09c-.93-.03-1.65-.8-1.63-1.73 0-.1.02-.21.04-.31l.87-3.95c.31-1.31.56-2.64.8-3.97.52-2.65.91-5.32 1.4-7.98l1.16 1.99a8.696 8.696 0 0 1-4.68-3.67c-1.06-1.74-1.42-3.89-1.06-5.87.35-2 1.43-3.85 2.99-5.11a8.61 8.61 0 0 1 5.53-1.93c3.98-.05 7.84 2.96 8.54 7.03.4 1.99-.04 4.13-1.07 5.87-.52.88-1.2 1.65-1.99 2.29-.39.33-.83.59-1.27.83-.22.13-.46.22-.69.33l-.08.03c.02-.01.05-.03.07-.04.05-.03.09-.08.13-.13.08-.1.13-.24.13-.38zm-3.11-1.81a3.833 3.833 0 0 1 1.11-.85l.21-.1.06-.03c.13-.08.26-.13.38-.22.25-.16.48-.33.7-.52.44-.38.82-.83 1.09-1.33.57-1 .73-2.18.54-3.3-.32-2.26-2.42-4.1-4.76-4.17-1.17.01-2.31.43-3.2 1.19-.89.75-1.49 1.83-1.68 2.97-.42 2.3.96 4.78 3.23 5.63l.09.03c.8.3 1.24 1.14 1.06 1.95l-1.74 7.91c-.29 1.32-.58 2.64-.82 3.97l-.74 3.98-1.52-1.84 5.33-.06 2.67-.03c.89 0 1.78.03 2.67.05l-1.57 1.9-.73-4.25c-.25-1.42-.44-2.83-.72-4.25l-.8-4.27-.86-4.36z"/></g></svg>
