<svg xmlns="http://www.w3.org/2000/svg" viewBox="0 0 470 350" enable-background="new 0 0 470 350"><g><path fill="#fff" d="M356.42 216.27h14.62l1.24 55.68-15.86-1.24z"/><path fill="#D5DAEA" stroke="#D5DAEA" stroke-miterlimit="10" d="M391.21 252.31v-17.06l-12.19 8.12z"/><path fill="#D5DAEA" d="M357.6 185.12l-.03 10.7c-.21 3.57.07 7.13.22 10.7.15 3.57.12 7.13.06 10.7l-.14 10.7c-.02 7.13-.18 14.27-.35 21.4-.06 1.78-.12 3.57-.15 5.35l.01 5.35-.16 10.7-.6-.65 7.94.56c2.65.17 5.29.43 7.93.64l-.74.7-.03-4.54c-.03-1.51.01-3.03-.1-4.54-.32-3.02-.36-6.05-.46-9.08l-.28-9.08c-.1-3.03-.3-6.05-.23-9.08.2-6.06-.28-12.11-.19-18.17.09-3.03.04-6.06-.09-9.09l-.35-9.08 2.36-.04.23 9.08.11 4.54c.02 1.51.18 3.03.24 4.54.3 6.05-.01 12.12.13 18.18.03 1.51 0 3.03-.04 4.55s-.04 3.03-.04 4.55l.36 9.08c.06 3.03.41 6.05-.01 9.09-.04 3.03.27 6.05.49 9.08l.11 1.54-1.63-.11c-2.65-.18-5.3-.29-7.94-.53l-7.92-.8-1.21-.12v-1.19c0-3.57-.09-7.13-.05-10.7l.1-5.35c-.03-1.78-.15-3.57-.21-5.35-.07-3.57.33-7.13.36-10.7v-2.67c.02-.89.08-1.78.12-2.67.09-1.78.16-3.57.22-5.35.18-7.13-.31-14.27-.26-21.4.06-3.57.25-7.13.01-10.7l-.15-10.7h2.36z"/><circle stroke="#D5DAEA" stroke-width="3" stroke-miterlimit="10" cx="363.87" cy="296.8" r="8.7" fill="none"/><path fill="#fff" d="M327.84 243.37h14.62l1.24 28.58-15.86-1.24z"/><path fill="#D5DAEA" d="M329.02 185.12l-.03 10.7c-.21 3.57.07 7.13.22 10.7.15 3.57.12 7.13.06 10.7l-.14 10.7c-.02 7.13-.18 14.27-.35 21.4-.06 1.78-.12 3.57-.15 5.35l.02 5.35-.16 10.7-.6-.65 7.94.56c2.65.17 5.29.43 7.93.64l-.74.7-.03-4.54c-.03-1.51.01-3.03-.1-4.54-.32-3.02-.36-6.05-.46-9.08l-.28-9.08c-.1-3.03-.3-6.05-.23-9.08.2-6.06-.28-12.11-.19-18.17.09-3.03.04-6.06-.09-9.09l-.35-9.08 2.36-.04.23 9.08.11 4.54c.02 1.51.18 3.03.24 4.54.3 6.05-.01 12.12.13 18.18.03 1.51 0 3.03-.04 4.55s-.04 3.03-.04 4.55l.36 9.08c.06 3.03.41 6.05-.01 9.09-.04 3.03.27 6.05.49 9.08l.11 1.54-1.63-.11c-2.65-.18-5.3-.29-7.94-.53l-7.92-.8-1.21-.12v-1.19c0-3.57-.09-7.13-.05-10.7l.1-5.35c-.03-1.78-.15-3.57-.21-5.35-.07-3.57.33-7.13.36-10.7v-2.67c.02-.89.08-1.78.12-2.67.09-1.78.16-3.57.22-5.35.18-7.13-.31-14.27-.26-21.4.06-3.57.25-7.13.01-10.7l-.15-10.7h2.35z"/><path fill="#fff" d="M300.5 217.28h14.62l1.25 54.67-15.87-1.24z"/><path fill="#D5DAEA" d="M301.68 185.12l-.03 10.7c-.21 3.57.07 7.13.22 10.7.15 3.57.12 7.13.06 10.7l-.14 10.7c-.02 7.13-.18 14.27-.35 21.4-.06 1.78-.12 3.57-.15 5.35l.01 5.35-.16 10.7-.6-.65 7.94.56c2.65.17 5.29.43 7.93.64l-.74.7-.03-4.54c-.03-1.51.01-3.03-.1-4.54-.32-3.02-.36-6.05-.46-9.08l-.28-9.08c-.1-3.03-.3-6.05-.23-9.08.2-6.06-.28-12.11-.19-18.17.09-3.03.04-6.06-.09-9.09l-.35-9.08 2.36-.04.23 9.08.11 4.54c.02 1.51.18 3.03.24 4.54.3 6.05-.01 12.12.13 18.18.03 1.51 0 3.03-.04 4.55s-.04 3.03-.04 4.55l.36 9.08c.06 3.03.41 6.05-.01 9.09-.04 3.03.27 6.05.49 9.08l.11 1.54-1.63-.11c-2.65-.18-5.3-.29-7.94-.53l-7.92-.8-1.21-.12v-1.19c0-3.57-.09-7.13-.05-10.7l.1-5.35c-.03-1.78-.15-3.57-.21-5.35-.07-3.57.33-7.13.36-10.7v-2.67c.02-.89.08-1.78.12-2.67.09-1.78.16-3.57.22-5.35.18-7.13-.31-14.27-.26-21.4.06-3.57.25-7.13.01-10.7l-.15-10.7h2.36z"/><path stroke="#D5DAEA" stroke-width="3" stroke-miterlimit="10" fill="none" d="M343.99 305.5h-17.4l17.4-17.4z"/><path fill="#E6E8F0" d="M274.15 73.94h85.73v72.87h-85.73zM360.83 147.77c-14.37.14-28.77.34-43.25.41l-21.72.08c-7.24.03-14.48-.02-21.71-.06l-1.4-.01.01-1.38.19-36.44c.05-6.07-.02-12.15-.02-18.22l-.06-18.22v-1.27h1.28l21.43-.08c7.14-.05 14.29-.01 21.43.01l42.86.13h1.21v1.21l.05 36.96-.13 18.46-.17 18.42zm-1.91-1.92l-.44-36.06-.07-17.92.05-17.94 1.42 1.42-42.86-.01-21.43-.04-21.43-.1 1.27-1.27-.08 18.22c-.02 6.07-.09 12.15-.05 18.22l.07 36.44-1.21-1.21c7.07-.01 14.13-.04 21.21.03l21.23.14c7.09.07 14.15.06 21.2.07l21.12.01z"/><path fill="#fff" d="M376.01 105.16l-11.94.22c-4 .07-7.99.16-12.02.19-8.05.06-16.11.15-24.14.06l-1.44-.02.01-1.41.21-23.58c.05-3.93.02-7.86 0-11.79l-.06-11.79-.01-1.27 1.29-.01 11.79-.07 5.89-.04 5.89.03 23.58.13 1.22.01v1.22l-.02 12.02.04 12.07c.02 4.04-.06 8.04-.11 12.04l-.18 11.99zm-1.91-1.91l-.24-11.65c-.07-3.87-.18-7.73-.2-11.55l-.06-11.49.05-11.51 1.41 1.41h-23.58c-7.86.03-15.72-.1-23.58-.15l1.26-1.26c-.04 7.86-.16 15.72-.13 23.58l.08 23.58-1.22-1.22c3.86-.03 7.71.02 11.57.06l11.58.13c3.88.07 7.7.02 11.55.05 3.86.02 7.71.03 11.51.02z"/><path fill="#E6E8F0" d="M144.76 163.56l38.25-14.74 17.92 46.82-35.77 15.67zM143.51 163.04l9.63-3.96c3.23-1.32 6.44-2.66 9.72-3.95 6.54-2.58 13.08-5.2 19.65-7.64l1.35-.5.49 1.32 8.76 23.48c1.45 3.92 2.95 7.82 4.47 11.71l4.53 11.68.44 1.12-1.11.5-8.91 3.98c-2.97 1.33-5.94 2.66-8.94 3.93l-17.94 7.71-1.13.49-.48-1.13-10.42-24.35c-1.76-4.08-3.41-8.15-5.09-12.22l-5.02-12.17zm2.49 1.05l5.27 11.71c1.74 3.89 3.52 7.76 5.19 11.64l5.04 11.63 4.94 11.7-1.86-.74 17.88-7.84c5.95-2.63 11.97-5.12 17.95-7.69l-.67 1.6c-2.96-7.81-5.82-15.66-8.85-23.45l-9.03-23.38 1.57.7c-3.11 1.23-6.24 2.39-9.37 3.55l-9.42 3.48c-3.17 1.14-6.23 2.37-9.36 3.54-3.1 1.17-6.21 2.35-9.28 3.55z"/><path fill="#fff" d="M160.429 187.541l11.198-4.314 6.111 15.864-11.198 4.314zM160.01 187.35c3.74-1.55 7.58-3.13 11.43-4.59l.46-.18.17.46 2.99 7.96c.97 2.66 2.04 5.29 3.06 7.93l.16.4-.4.16-5.59 2.19-5.61 2.12-.4.15-.15-.39c-1.02-2.7-2.04-5.39-3.1-8.09-1.05-2.73-2.02-5.43-3.02-8.12zm.82.37c1.05 2.61 2.15 5.19 3.14 7.76l2.99 7.75-.61-.27c3.73-1.45 7.46-2.88 11.21-4.27l-.24.55c-1-2.65-1.98-5.31-3.02-7.95l-3.07-7.92.52.23-5.49 2.05-5.43 2.07z"/><path fill="#E6E8F0" d="M107.46 233.65l-38.26 14.74-14.02-36.39 35.67-15.89zM108.71 234.17l-9.62 3.96c-3.23 1.32-6.44 2.66-9.72 3.96-6.54 2.59-13.08 5.2-19.65 7.64l-1.35.5-.49-1.32-6.82-18.27c-1.12-3.05-2.3-6.08-3.5-9.1l-3.56-9.08-.44-1.12 1.11-.5 8.89-4.04c2.96-1.35 5.92-2.7 8.91-3.98l17.89-7.82 1.12-.49.49 1.11 4.23 9.61 4.3 9.64c1.45 3.23 2.78 6.45 4.15 9.67l4.06 9.63zm-2.5-1.03l-4.32-9.15c-1.43-3.04-2.88-6.06-4.24-9.08l-4.09-9.07-3.99-9.14 1.86.72-17.84 7.95c-5.94 2.67-11.94 5.19-17.9 7.8l.66-1.6c2.31 6.08 4.52 12.19 6.9 18.24l7.08 18.17-1.57-.7c3.11-1.23 6.24-2.39 9.37-3.55l9.41-3.48c3.17-1.14 6.23-2.37 9.36-3.54 3.13-1.2 6.24-2.38 9.31-3.57z"/><path fill="#fff" d="M65.605 225.144l11.198-4.314 6.111 15.864-11.198 4.314zM65.19 224.95c3.74-1.55 7.58-3.13 11.43-4.59l.46-.18.17.46 2.99 7.96c.97 2.66 2.04 5.29 3.06 7.93l.16.4-.4.16-5.59 2.19-5.61 2.12-.4.15-.15-.39c-1.02-2.7-2.04-5.39-3.1-8.09-1.06-2.73-2.02-5.43-3.02-8.12zm.82.36c1.05 2.61 2.15 5.19 3.14 7.76l2.99 7.75-.61-.27c3.73-1.45 7.46-2.88 11.21-4.27l-.24.55c-1-2.65-1.98-5.31-3.02-7.95l-3.07-7.92.52.23-5.49 2.05-5.43 2.07z"/><path fill="#E6E8F0" d="M94.98 173.09l38.35-14.5 20.94 55.02-35.77 15.67zM93.74 172.56l9.65-3.9c3.24-1.3 6.46-2.62 9.74-3.89 6.55-2.54 13.11-5.12 19.69-7.52l1.35-.49.49 1.32 10.28 27.59c1.7 4.6 3.45 9.19 5.23 13.76l5.29 13.73.43 1.12-1.11.5-8.91 3.98c-2.97 1.34-5.94 2.66-8.94 3.93l-17.94 7.71-1.14.49-.48-1.14-11.98-28.57c-2.02-4.78-3.93-9.56-5.87-14.33l-5.78-14.29zm2.48 1.07l6.05 13.82c2 4.59 4.04 9.17 5.97 13.75l5.82 13.74 5.72 13.8-1.86-.74 17.88-7.84c5.95-2.63 11.97-5.12 17.95-7.69l-.67 1.59c-3.46-9.18-6.83-18.4-10.36-27.55l-10.54-27.48 1.57.71c-3.11 1.21-6.25 2.35-9.4 3.49l-9.44 3.43c-3.17 1.12-6.25 2.34-9.38 3.48-3.12 1.15-6.24 2.31-9.31 3.49z"/><path fill="#fff" d="M113.775 205.51l11.198-4.314 6.111 15.864-11.198 4.314zM113.35 205.32c3.74-1.55 7.58-3.13 11.43-4.59l.46-.18.17.46 2.99 7.96c.97 2.66 2.04 5.29 3.06 7.93l.16.4-.4.16-5.59 2.19-5.61 2.12-.4.15-.15-.39c-1.02-2.7-2.04-5.39-3.1-8.09-1.05-2.72-2.02-5.43-3.02-8.12zm.82.37c1.05 2.61 2.15 5.19 3.14 7.76l2.99 7.75-.61-.27c3.73-1.45 7.46-2.88 11.21-4.27l-.24.55c-1-2.65-1.98-5.31-3.02-7.95l-3.07-7.92.52.23-5.49 2.05-5.43 2.07z"/><path fill="#D5DAEA" d="M61.25 250.01c11.62-4.61 23.26-9.16 34.97-13.55l17.57-6.54c2.93-1.08 5.84-2.23 8.75-3.37l8.73-3.43 8.72-3.44 4.36-1.72 4.39-1.65 17.54-6.62c2.93-1.1 5.83-2.25 8.75-3.38l8.71-3.48c5.81-2.31 11.66-4.49 17.49-6.75l.97 2.52c-5.81 2.29-11.61 4.65-17.44 6.89l-8.76 3.35c-2.92 1.1-5.86 2.17-8.78 3.3-11.66 4.5-23.31 9.03-35.04 13.35-5.85 2.21-11.72 4.34-17.54 6.62l-17.47 6.82c-5.82 2.28-11.7 4.41-17.53 6.65-2.93 1.08-5.81 2.29-8.73 3.43-2.91 1.15-5.81 2.31-8.69 3.53l-.97-2.53zM78.54 253.92c11.62-4.61 23.26-9.16 34.97-13.55l17.57-6.54c2.93-1.08 5.84-2.23 8.75-3.37l8.73-3.43 8.72-3.44 4.36-1.72 4.39-1.65 17.54-6.62c2.93-1.1 5.83-2.25 8.75-3.38l8.71-3.48c5.81-2.31 11.66-4.49 17.49-6.75l.97 2.52c-5.81 2.29-11.61 4.65-17.44 6.89l-8.76 3.35c-2.92 1.1-5.86 2.17-8.78 3.3-11.66 4.5-23.31 9.03-35.04 13.35-5.85 2.21-11.72 4.34-17.54 6.62l-17.47 6.82c-5.82 2.28-11.7 4.41-17.53 6.65-2.93 1.08-5.81 2.29-8.73 3.43-2.91 1.15-5.81 2.31-8.69 3.53l-.97-2.53z"/><path fill="#6C74C4" stroke="#6C74C4" stroke-width="3" stroke-linecap="round" stroke-linejoin="round" stroke-miterlimit="10" d="M304.5 71v224l-119.9-.71-48.1-.29v-221z"/><path fill="#8891EA" stroke="#8891EA" stroke-width="3" stroke-linecap="round" stroke-linejoin="round" stroke-miterlimit="10" d="M304.5 78.43v216.57l-119.9-.71c-.05-8.82 1.47-17.53 3.59-23.4 4.44-12.3 14.1-21.98 24.38-30.07 10.28-8.08 21.5-15.04 30.85-24.19 11.21-10.97 19.57-25.38 21.03-40.99 1.59-17.07-5.01-34.43-1.5-51.2 4.36-20.86 23-35.33 41.55-46.01z"/><path fill="#fff" d="M288.5 86.5h-136v190.5l136.5-4.5z"/><path fill="#FFC04D" d="M275.89 75.86v18.64h-109.78v-18.64c0-1.25.13-2.47.39-3.65.45-2.11 1.3-4.09 2.45-5.84 3.08-4.68 8.39-7.76 14.41-7.76h22.86v-6.33c0-8.16 6.62-14.78 14.78-14.78 4.08 0 7.78 1.66 10.45 4.33 2.67 2.67 4.33 6.37 4.33 10.45v6.33h22.86c9.18 0 16.68 7.16 17.22 16.2.02.35.03.7.03 1.05zM277.07 75.86l-.01 9.32-.01 4.66c-.01 1.55.02 3.11-.03 4.66l-.02 1.16-1.11-.02c-2.29-.04-4.57-.1-6.86-.06l-6.86.18c-2.29.05-4.57.15-6.86.17l-6.86.02c-9.15.04-18.3-.13-27.45-.16l-13.72-.07-13.72-.16c-4.57-.04-9.15-.12-13.72-.21-4.57-.11-9.15.01-13.72-.04l-.81-.01.01-.79.15-17.15c-.02-1.4-.05-2.92.2-4.39.23-1.46.64-2.91 1.23-4.28 1.17-2.74 3.1-5.14 5.44-6.95 2.35-1.81 5.15-3.04 8.08-3.51 1.46-.25 2.97-.25 4.38-.24 1.43.02 2.86-.06 4.29-.08 5.72-.22 11.43-.22 17.15-.26l-.97.97-.03-3.69c.01-1.25-.06-2.41.03-3.76.13-2.63 1.02-5.21 2.42-7.44 1.4-2.24 3.41-4.08 5.7-5.41 2.32-1.29 4.97-1.98 7.63-2.01 5.37-.09 10.56 2.93 13.33 7.42 1.39 2.24 2.26 4.81 2.46 7.44.09 1.36.04 2.51.06 3.77l.02 3.69-1.09-1.09c4.16 0 8.33-.09 12.49.02l6.24.11c2.09.09 4.12-.08 6.35.16 4.37.48 8.54 2.64 11.48 5.93 2.97 3.25 4.66 7.66 4.71 12.1zm-2.36 0c-.03-3.88-1.47-7.73-4.07-10.61-2.57-2.9-6.22-4.8-10.05-5.22-1.85-.19-4.02-.11-6.08-.07l-6.24.13c-4.16.12-8.33 0-12.49 0h-1.49l.02-1.47.04-3.69c0-1.2.06-2.53.01-3.59-.12-2.23-.81-4.43-2.03-6.32-1.2-1.9-2.89-3.48-4.86-4.57-1.97-1.09-4.2-1.66-6.47-1.73-2.27-.03-4.54.49-6.57 1.55-2.01 1.08-3.77 2.67-4.95 4.63-1.19 1.94-1.95 4.16-2.05 6.43-.07 1.09-.01 2.4-.01 3.61l.04 3.69.01 1.23-1.26.01-8.57.09c-2.86.08-5.72-.06-8.57-.22-.71-.05-1.43-.04-2.14-.06-.71-.02-1.43-.02-2.14 0-1.47.02-2.77.06-4.09.32-2.62.49-5.1 1.65-7.13 3.33-2.05 1.67-3.61 3.86-4.66 6.25-.55 1.19-.92 2.44-1.17 3.74-.26 1.29-.28 2.57-.31 4.04l.04 17.15-1.36-1.36c4.57-.02 9.15.2 13.72.04 2.29-.04 4.57-.16 6.86-.16 2.29-.01 4.57.09 6.86.12l6.86.2c2.29.09 4.57.02 6.86.04 4.57.04 9.15.25 13.72.32 9.15.18 18.3-.05 27.45-.18l6.86-.07c2.29-.01 4.57.05 6.86.07l6.86.09c2.29.01 4.57-.06 6.86-.12l-1.02 1.02c-.05-1.55-.04-3.11-.06-4.66l-.04-4.66-.05-9.34z"/><path fill="#0C1238" d="M227.07 52c.02.85-.14 1.74-.56 2.49-.66.6-.56 1.63-1.14 2.38-.55.74-1.39 1.19-2.24 1.48-.86.29-1.77.36-2.64.34-.44-.03-.87-.08-1.29-.19-.42-.13-.81-.32-1.19-.52-.76-.4-1.4-.98-1.83-1.68-.22-.35-.5-.62-.74-.93-.23-.33-.38-.7-.5-1.08-.11-.38-.15-.78-.2-1.16l-.19-1.15c-.04-.79.26-1.54.57-2.23.15-.36.35-.67.38-1.11.05-.44.33-.75.58-1.08.52-.64 1.21-1.14 1.97-1.51.76-.32 1.58-.71 2.46-.69.22.03.43.04.64.1l.62.21c.4.16.79.29 1.19.43.78.28 1.6.65 2.13 1.33l.61 1.11.64 1.05c.36.73.69 1.55.73 2.41zm-3.14 0c-.03-.46-.17-.88-.34-1.28-.09-.2-.21-.39-.36-.54-.09-.07-.18-.14-.29-.18l-.32-.11c-.34-.2-.56-.55-.9-.82-.34-.28-.78-.31-1.21-.4-.22-.04-.45-.15-.7-.18-.25-.03-.46.09-.67.2-.4.26-.67.68-.91 1.02-.15.16-.18.38-.54.4-.16.03-.32.07-.37.18-.03.11-.08.22-.08.35-.02.51.32.98.27 1.35-.02.1-.09.2-.15.31-.05.11-.05.22-.04.32.04.21.18.39.26.57.09.19.19.36.25.57l.11.32c.07.08.14.17.26.21.26.05.51.03.62.22l.38.63c.08.09.17.19.28.22.12.02.24 0 .34.06l.69.42c.52.29 1.09.08 1.5-.25.21-.16.4-.33.58-.51.16-.2.29-.41.46-.57.31-.3 1.03-.5.84-1.14.04-.46.08-.91.04-1.37zM202.11 149.61c-2.54.09-5.15.13-7.76.14-2.77-.26-5.03.32-7.62.5-2.58.16-5.24.14-7.87.1l-7.86-.15h-.06c-.92-.02-1.66-.78-1.64-1.7l.06-3.75.16-3.75.15-3.75.22-3.75c.1-1.25.04-2.5.03-3.75-.02-1.25.04-2.5.06-3.75l.14-3.75c.03-1.25-.04-2.5-.06-3.75-.01-.51.4-.93.91-.94h.03c2.5-.03 5 .1 7.5.11 2.5.15 5-.5 7.5-.42 2.5-.08 5-.14 7.5-.18 2.5-.02 5-.19 7.5-.2h.02c.89 0 1.61.71 1.61 1.6v.03c-.02 1.3-.1 2.59-.18 3.88-.08 1.29-.09 2.58-.08 3.88.02 2.59.13 5.24-.01 7.8-.1 1.26-.24 2.49-.27 3.78 0 1.3-.04 2.57-.01 3.89l.03 7.88zm-2.22-2.22l-.26-7.32-.14-3.64c-.06-1.22-.24-2.48-.34-3.7-.15-2.4-.03-4.71.05-7.08.11-2.36.06-4.76.13-7.15l1.68 1.68c-1.25-.05-2.5-.17-3.75-.25-1.25-.07-2.5-.03-3.75.01-2.5.06-5 .28-7.5.33-1.25 0-2.5.14-3.75-.15-.62-.11-1.25-.24-1.88-.22-.62.01-1.25.05-1.88.08-2.5.17-5 .56-7.5.53l2-2c-.06 1.25-.28 2.5-.24 3.75 0 1.25.05 2.5.08 3.75-.02 1.25.02 2.5-.05 3.75-.06 1.25-.18 2.5-.04 3.75.14 1.25.31 2.5.21 3.75-.03 1.25-.25 2.5-.36 3.75-.05.62-.12 1.25-.12 1.88.01.62.05 1.25.02 1.88-.07 1.25-.22 2.5-.35 3.75l-1.14-1.14c2.44.27 4.9.19 7.3.08 2.42-.09 4.76-.27 7.16-.25 2.39.05 5.07.49 7.28.19 2.36-.06 4.72-.06 7.14-.01zM202.11 197.61c-2.54.09-5.15.13-7.76.14-2.77-.26-5.03.32-7.62.5-2.58.16-5.24.14-7.87.1l-7.86-.15h-.06c-.92-.02-1.66-.78-1.64-1.7l.06-3.75.16-3.75.15-3.75.22-3.75c.1-1.25.04-2.5.03-3.75-.02-1.25.04-2.5.06-3.75l.14-3.75c.03-1.25-.04-2.5-.06-3.75-.01-.51.4-.93.91-.94h.03c2.5-.03 5 .1 7.5.11 2.5.15 5-.5 7.5-.42 2.5-.08 5-.14 7.5-.18 2.5-.02 5-.19 7.5-.2h.02c.89 0 1.61.71 1.61 1.6v.03c-.02 1.3-.1 2.59-.18 3.88-.08 1.29-.09 2.58-.08 3.88.02 2.59.13 5.24-.01 7.8-.1 1.26-.24 2.49-.27 3.78 0 1.3-.04 2.57-.01 3.89l.03 7.88zm-2.22-2.22l-.26-7.32-.14-3.64c-.06-1.22-.24-2.48-.34-3.7-.15-2.4-.03-4.71.05-7.08.11-2.36.06-4.76.13-7.15l1.68 1.68c-1.25-.05-2.5-.17-3.75-.25-1.25-.07-2.5-.03-3.75.01-2.5.06-5 .28-7.5.33-1.25 0-2.5.14-3.75-.15-.62-.11-1.25-.24-1.88-.22-.62.01-1.25.05-1.88.08-2.5.17-5 .56-7.5.53l2-2c-.06 1.25-.28 2.5-.24 3.75 0 1.25.05 2.5.08 3.75-.02 1.25.02 2.5-.05 3.75-.06 1.25-.18 2.5-.04 3.75.14 1.25.31 2.5.21 3.75-.03 1.25-.25 2.5-.36 3.75-.05.62-.12 1.25-.12 1.88.01.62.05 1.25.02 1.88-.07 1.25-.22 2.5-.35 3.75l-1.14-1.14c2.44.27 4.9.19 7.3.08 2.42-.09 4.76-.27 7.16-.25 2.39.05 5.07.49 7.28.19 2.36-.06 4.72-.06 7.14-.01zM202.11 245.61c-2.54.09-5.15.13-7.76.14-2.77-.26-5.03.32-7.62.5-2.58.16-5.24.14-7.87.1l-7.86-.15h-.06c-.92-.02-1.66-.78-1.64-1.7l.06-3.75.16-3.75.15-3.75.22-3.75c.1-1.25.04-2.5.03-3.75-.02-1.25.04-2.5.06-3.75l.14-3.75c.03-1.25-.04-2.5-.06-3.75-.01-.51.4-.93.91-.94h.03c2.5-.03 5 .1 7.5.11 2.5.15 5-.5 7.5-.42 2.5-.08 5-.14 7.5-.18 2.5-.02 5-.19 7.5-.2h.02c.89 0 1.61.71 1.61 1.6v.03c-.02 1.3-.1 2.59-.18 3.88-.08 1.29-.09 2.58-.08 3.88.02 2.59.13 5.24-.01 7.8-.1 1.26-.24 2.49-.27 3.78 0 1.3-.04 2.57-.01 3.89l.03 7.88zm-2.22-2.22l-.26-7.32-.14-3.64c-.06-1.22-.24-2.48-.34-3.7-.15-2.4-.03-4.71.05-7.08.11-2.36.06-4.76.13-7.15l1.68 1.68c-1.25-.05-2.5-.17-3.75-.25-1.25-.07-2.5-.03-3.75.01-2.5.06-5 .28-7.5.33-1.25 0-2.5.14-3.75-.15-.62-.11-1.25-.24-1.88-.22-.62.01-1.25.05-1.88.08-2.5.17-5 .56-7.5.53l2-2c-.06 1.25-.28 2.5-.24 3.75 0 1.25.05 2.5.08 3.75-.02 1.25.02 2.5-.05 3.75-.06 1.25-.18 2.5-.04 3.75.14 1.25.31 2.5.21 3.75-.03 1.25-.25 2.5-.36 3.75-.05.62-.12 1.25-.12 1.88.01.62.05 1.25.02 1.88-.07 1.25-.22 2.5-.35 3.75l-1.14-1.14c2.44.27 4.9.19 7.3.08 2.42-.09 4.76-.27 7.16-.25 2.39.05 5.07.49 7.28.19 2.36-.06 4.72-.06 7.14-.01z"/><path fill="#5053AB" d="M215.5 127.2c4-.17 8-.29 12-.1 2 .09 4 .25 6 .3 2 .07 4-.01 6-.1 4-.25 8-.08 12 .07 1 .05 2 0 3 0l3-.16c1-.07 2-.03 3-.04 1-.01 2 0 3 .04v3.6c-1 .08-2 .11-3 .15-1 .03-2 .09-3 .08-1 .01-2-.02-3-.04-1-.04-2-.12-3-.1-4 .03-8 .04-12-.19-2-.06-4-.2-6-.18-2 .01-4 .1-6 .12-2 .09-4-.13-6-.15-2 0-4 .07-6 .33v-3.63zM215.5 138.2c2.38-.17 4.75-.28 7.12-.11 1.19.07 2.38.28 3.56.31 1.19.07 2.38-.01 3.56-.1 1.19-.1 2.38-.17 3.56-.13 1.19.04 2.38.14 3.56.2 1.19.11 2.38-.07 3.56-.16.59-.07 1.19-.03 1.78-.04.59-.01 1.19 0 1.78.04v3.6c-.59.08-1.19.11-1.78.15-.59.03-1.19.09-1.78.08-.59.01-1.19-.02-1.78-.04-.59-.04-1.19-.12-1.78-.1-2.38.01-4.75.07-7.12-.19-1.19-.11-2.38-.2-3.56-.18-1.19-.01-2.38.12-3.56.13-1.19.07-2.38-.13-3.56-.16-1.19 0-2.38.07-3.56.33v-3.63zM215.5 175.2c4-.17 8-.29 12-.1 2 .09 4 .25 6 .3 2 .07 4-.01 6-.1 4-.25 8-.08 12 .07 1 .05 2 0 3 0l3-.16c1-.07 2-.03 3-.04 1-.01 2 0 3 .04v3.6c-1 .08-2 .11-3 .15-1 .03-2 .09-3 .08-1 .01-2-.02-3-.04-1-.04-2-.12-3-.1-4 .03-8 .04-12-.19-2-.06-4-.2-6-.18-2 .01-4 .1-6 .12-2 .09-4-.13-6-.15-2 0-4 .07-6 .33v-3.63zM215.5 186.2c2.88-.17 5.75-.28 8.62-.11 1.44.07 2.88.28 4.31.31 1.44.07 2.88-.01 4.31-.1 1.44-.1 2.88-.17 4.31-.13 1.44.04 2.88.14 4.31.2 1.44.11 2.88-.07 4.31-.16.72-.07 1.44-.03 2.16-.04.72-.01 1.44 0 2.16.04v3.6c-.72.08-1.44.11-2.16.15-.72.03-1.44.09-2.16.08-.72.01-1.44-.02-2.16-.04-.72-.04-1.44-.12-2.16-.1-2.88.01-5.75.07-8.62-.19-1.44-.11-2.88-.2-4.31-.18-1.44-.01-2.88.12-4.31.13-1.44.07-2.88-.13-4.31-.16-1.44 0-2.88.07-4.31.33v-3.63zM215.5 223.2c3.46-.17 6.92-.28 10.38-.11 1.73.07 3.46.28 5.19.31 1.73.07 3.46-.01 5.19-.1 1.73-.1 3.46-.17 5.19-.13 1.73.04 3.46.14 5.19.2.86.05 1.73 0 2.59 0l2.59-.16c.86-.07 1.73-.03 2.59-.04.86-.01 1.73 0 2.59.04v3.6c-.86.08-1.73.11-2.59.15-.86.03-1.73.09-2.59.08-.86.01-1.73-.02-2.59-.04-.86-.04-1.73-.12-2.59-.1-3.46.03-6.92.04-10.38-.19-1.73-.1-3.46-.2-5.19-.18-1.73.01-3.46.1-5.19.12-1.73.09-3.46-.13-5.19-.15-1.73 0-3.46.07-5.19.33v-3.63zM215.5 234.2c2.38-.17 4.75-.28 7.12-.11 1.19.07 2.38.28 3.56.31 1.19.07 2.38-.01 3.56-.1 1.19-.1 2.38-.17 3.56-.13 1.19.04 2.38.14 3.56.2 1.19.11 2.38-.07 3.56-.16.59-.07 1.19-.03 1.78-.04.59-.01 1.19 0 1.78.04v3.6c-.59.08-1.19.11-1.78.15-.59.03-1.19.09-1.78.08-.59.01-1.19-.02-1.78-.04-.59-.04-1.19-.12-1.78-.1-2.38.01-4.75.07-7.12-.19-1.19-.11-2.38-.2-3.56-.18-1.19-.01-2.38.12-3.56.13-1.19.07-2.38-.13-3.56-.16-1.19 0-2.38.07-3.56.33v-3.63z"/><path fill="#FFC04D" d="M173.98 130.81c.9.7 1.73 1.48 2.59 2.24.86.75 1.67 1.55 2.49 2.33.77.83 1.59 1.62 2.31 2.52.75.86 1.42 1.8 2.13 2.69h-4.2c1.86-1.41 3.44-3.09 4.9-4.91 1.44-1.83 3.04-3.49 4.8-5 1.75-1.52 3.62-2.92 5.02-4.78.7-.93 1.41-1.85 2.25-2.66.79-.84 1.63-1.64 2.51-2.39 1.32-1.14 3.32-.99 4.46.34.99 1.15 1 2.81.12 3.97l-.12.15c-1.41 1.86-2.95 3.59-4.65 5.15-.82.82-1.83 1.44-2.61 2.3l-2.43 2.47c-1.61 1.66-3.33 3.21-5.17 4.63-1.84 1.43-3.54 2.99-5.08 4.73-.92 1.04-2.52 1.14-3.56.22l-.02-.02-.22-.2c-.84-.76-1.73-1.49-2.53-2.29-.85-.76-1.57-1.64-2.29-2.53-.7-.91-1.5-1.71-2.38-2.44-.42-.39-.86-.74-1.33-1.08-.45-.35-.94-.67-1.44-.97-1.5-.88-2-2.8-1.12-4.3.88-1.5 2.8-2 4.3-1.12l.32.22.95.73zM173.98 179.81c.9.7 1.73 1.48 2.59 2.24.86.75 1.67 1.55 2.49 2.33.77.83 1.59 1.62 2.31 2.52.75.86 1.42 1.8 2.13 2.69h-4.2c1.86-1.41 3.44-3.09 4.9-4.91 1.44-1.83 3.04-3.49 4.8-5 1.75-1.52 3.62-2.92 5.02-4.78.7-.93 1.41-1.85 2.25-2.66.79-.84 1.63-1.64 2.51-2.39 1.32-1.14 3.32-.99 4.46.34.99 1.15 1 2.81.12 3.97l-.12.15c-1.41 1.86-2.95 3.59-4.65 5.15-.82.82-1.83 1.44-2.61 2.3l-2.43 2.47c-1.61 1.66-3.33 3.21-5.17 4.63-1.84 1.43-3.54 2.99-5.08 4.73-.92 1.04-2.52 1.14-3.56.22l-.02-.02-.22-.2c-.84-.76-1.73-1.49-2.53-2.29-.85-.76-1.57-1.64-2.29-2.53-.7-.91-1.5-1.71-2.38-2.44-.42-.39-.86-.74-1.33-1.08-.45-.35-.94-.67-1.44-.97-1.5-.88-2-2.8-1.12-4.3.88-1.5 2.8-2 4.3-1.12l.32.22.95.73z"/><path fill="#FFE0A9" stroke="#FFE0A9" stroke-linecap="round" stroke-linejoin="round" stroke-miterlimit="10" d="M235.66 69.28c-5.95 2.16-11.54 1.25-17.55 2.17-5.77.89-11.4 2.73-17.33 3.4-11.38 1.28-22.83 1.52-34.28 1.63v-4.27c.45-2.11 1.3-4.09 2.45-5.84l4.23-.13c20.71-.64 41.44-.96 62.16-.96.99 0 2.19.13 2.62 1.02.61 1.28-.97 2.49-2.3 2.98zM251.8 69.11c-1.46.4-2.89-1.58-2.05-2.83.36-.54.98-.86 1.59-1.08 3.25-1.19 6.86-.45 10.24.31.35.08.72.16.98.41.53.49.38 1.42-.13 1.94-.51.51-1.25.71-1.95.86-2.65.57-5.37.81-8.07.71"/></g></svg>