<svg xmlns="http://www.w3.org/2000/svg" viewBox="0 0 470 350" enable-background="new 0 0 470 350"><g><path fill="#D5DAEA" d="M255.1 265.56l-.15-28.62-.02-14.31.01-1.79v-.89c-.02-.26 0-.52-.05-.78-.13-1.03-.49-2.03-1.11-2.88-1.2-1.72-3.23-2.77-5.41-2.73l-7.15-.16c-2.38-.09-4.77-.21-7.15-.23l-14.31-.25c-4.77-.06-9.54-.22-14.3-.34-1.18-.01-2.42-.13-3.49 0-1.1.14-2.16.57-3.06 1.24-1.83 1.31-2.91 3.53-2.83 5.82l.14 28.62.09 14.31.01 1.79c.01.59 0 1.22.04 1.73.08 1.08.47 2.12 1.05 3.02 1.17 1.82 3.27 2.96 5.42 2.97 4.74-.02 9.53-.08 14.29-.04l14.31.12c4.77.06 9.54-.03 14.31-.04l1.79-.01c.6 0 1.2 0 1.71-.04 1.07-.12 2.09-.5 2.98-1.09.88-.61 1.61-1.42 2.11-2.36.51-.94.77-2 .77-3.06zm1.6 0c0 1.32-.33 2.64-.94 3.82-.62 1.17-1.54 2.18-2.63 2.93-1.11.74-2.39 1.21-3.71 1.35-.69.05-1.28.05-1.87.05l-1.79.01-14.31.05c-4.77.03-9.54-.04-14.31-.1-4.78-.07-9.52-.03-14.32-.05-1.32-.03-2.63-.37-3.79-1.01-1.14-.65-2.15-1.56-2.86-2.68-.71-1.11-1.17-2.4-1.26-3.72-.05-.69-.03-1.25-.03-1.85v-1.79l-.02-14.31-.04-28.62c-.15-2.58 1.1-5.37 3.27-6.94 1.07-.81 2.34-1.36 3.68-1.56 1.41-.18 2.52-.06 3.73-.08 4.77.05 9.54.05 14.31.23l14.3.45c2.38.11 4.77.07 7.15.08l7.15.19c2.55-.05 5.17 1.27 6.62 3.4.75 1.05 1.21 2.3 1.36 3.57.08.65.06 1.28.05 1.86-.01.6-.01 1.19 0 1.79.03 4.77.19 9.54.18 14.31l.08 28.62z"/><path fill="#E6E8F0" d="M270.12 277.28v-45.56c0-3.99-3.2-7.24-7.19-7.3l-45.64-.68c-4.07-.06-7.41 3.22-7.41 7.3v46.24c0 4.03 3.27 7.3 7.3 7.3h45.64c4.03 0 7.3-3.27 7.3-7.3zM268.77 277.28l-.13-28.62.01-14.31v-2.67c-.02-.24-.01-.48-.05-.71-.13-.94-.46-1.86-1.03-2.63-.55-.77-1.29-1.42-2.14-1.85-.42-.23-.88-.37-1.34-.5-.24-.03-.47-.1-.71-.11-.24-.02-.46-.04-.78-.04l-28.61-.64c-4.77-.12-9.54-.16-14.31-.21-1.17.01-2.48-.08-3.38.05-.98.14-1.92.54-2.71 1.13-.8.58-1.44 1.38-1.85 2.27-.22.44-.35.92-.46 1.4-.08.51-.12.92-.11 1.53l.07 14.31.04 7.15-.03 7.15-.07 14.31-.01 1.79c0 .58-.02 1.24.02 1.68.06.99.4 1.94.92 2.77 1.06 1.68 2.97 2.77 4.97 2.8 4.72.04 9.53 0 14.29 0l14.31-.12c4.77-.06 9.54-.02 14.31-.02h2.68c.3 0 .5-.02.76-.03.97-.1 1.9-.44 2.71-.97.8-.55 1.48-1.28 1.94-2.14.44-.83.68-1.79.69-2.77zm2.7 0c0 1.41-.34 2.83-1 4.08-.67 1.25-1.64 2.33-2.81 3.14-1.18.79-2.56 1.3-3.97 1.45-.34.02-.74.05-1.03.05l-.89.01-1.79.01c-4.77.02-9.54.09-14.31.06l-14.31-.02-14.33-.08c-1.42-.03-2.84-.4-4.08-1.1-1.23-.7-2.32-1.69-3.08-2.89-.76-1.2-1.26-2.58-1.36-4-.05-.76-.03-1.29-.04-1.9v-16.1c-.03-9.54.1-19.08.15-28.62-.11-2.68 1.23-5.59 3.5-7.18 1.12-.83 2.44-1.37 3.82-1.56 1.46-.17 2.55-.03 3.76-.04 4.77.1 9.54.21 14.31.25l28.61.34c2.67-.09 5.57 1.27 7.13 3.58.82 1.13 1.31 2.48 1.49 3.85.06.34.05.69.07 1.04v.9l-.01 1.79-.07 14.31c-.01 9.55.14 19.09.24 28.63z"/><path fill="#F4F6F8" d="M251.9 246.13c.44.29.84.64 1.25.97.25.54.91.54 1.41.75.5.21.89.57 1.29.92.4.34.77.73 1.18 1.06.83.65 1.57 1.42 2.3 2.2.17.21.35.42.56.56.22.15.45.28.64.47.41.33.74.77 1.18 1.06l.58.38-.55.65c-.96 1.14-2.49 1.6-3.21 3.03-1.03 1.05-2.15 2.01-3.16 3.08-.53.51-1.26.78-1.8 1.28-.56.47-1.03 1.05-1.63 1.48-.3.22-.67.34-.96.57-.29.22-.56.47-.82.74l-1.55 1.58-1.52-1.81c.55-.49 1.08-.99 1.64-1.47.28-.24.54-.5.8-.75.26-.26.43-.62.7-.88.53-.5 1.18-.88 1.79-1.29.61-.41 1.15-.92 1.77-1.31 1.42-.6 2.16-1.99 3.28-2.94.22-.31.73-.27 1.04-.48.28-.23.52-.52.73-.84.44-.61.82-1.3 1.59-1.53l.06 2.13c-.34-.43-.89-.57-1.27-.94-.22-.15-.4-.35-.57-.55-.18-.2-.45-.27-.73-.35-.55-.14-.71-.81-1.08-1.2-.49-.23-.75-.76-1.07-1.21-.7-.82-1.86-1.03-2.7-1.67-.4-.35-.65-.89-1.25-.97-.46-.26-.93-.52-1.36-.82l1.44-1.9zM235.32 244.15c-.62.5-1.28.95-1.93 1.4-.81.25-1.21 1.05-1.77 1.63-.56.59-1.23 1.01-1.89 1.46-.66.45-1.35.85-2 1.32-1.29.93-2.67 1.75-4.06 2.55-.36.19-.71.38-1.03.62-.31.25-.61.51-.95.72-.65.46-1.38.82-2 1.32l.03-1.03c1.04.55 1.52 1.77 2.8 2.04.97.64 1.86 1.37 2.84 1.98.47.34.74.91 1.2 1.25.44.37.97.64 1.37 1.05.2.21.33.5.54.7.21.2.44.37.68.53l1.46.95-1.52 1.81c-.45-.35-.92-.69-1.36-1.06-.22-.18-.46-.35-.7-.51-.24-.16-.57-.22-.8-.39-.47-.34-.82-.81-1.21-1.24-.39-.43-.85-.77-1.23-1.22-.58-1.09-1.84-1.39-2.72-2.13-.28-.12-.27-.58-.46-.79-.22-.19-.48-.32-.77-.43-.56-.23-1.18-.39-1.41-1l-.67-1.76.73-.37c.72-.37 1.23-1.02 1.91-1.44.31-.25.66-.44 1.02-.64.35-.2.61-.52.86-.84.51-.65 1.41-.77 2.1-1.18.57-.57 1.37-.82 2.11-1.16 1.42-.76 2.38-2.14 3.66-3.08.66-.44 1.47-.69 1.93-1.41.6-.53 1.19-1.07 1.82-1.55l1.42 1.9zM250.42 233.39c-.28.93-.6 1.84-.95 2.74-.57.83-.42 1.9-.63 2.85-.46 1.88-1.33 3.64-1.95 5.47l-.5 1.36-.56 1.34c-.36.9-.75 1.79-1.17 2.67-.22.44-.33.91-.48 1.37-.14.46-.33.91-.5 1.36-.19.45-.38.89-.55 1.35-.18.45-.27.93-.41 1.39-.28.93-.67 1.81-.99 2.73-.41.88-.25 1.96-.61 2.85l-1.54 5.6c-.33.91-.85 1.76-1.08 2.7-.27.93-.47 1.88-.85 2.77-.21.44-.46.87-.62 1.32-.14.46-.3.92-.41 1.39l-.71 2.82-2.24-.74c.28-.93.55-1.86.84-2.78.15-.46.27-.93.41-1.39.12-.47.16-.97.25-1.45.23-.94.65-1.82 1.03-2.72.4-.89.67-1.82 1.03-2.72 1.02-1.7 1.26-3.66 1.75-5.53.15-.46.2-.95.56-1.34.15-.2.32-.4.39-.64.07-.23.11-.47.17-.71.18-.96.2-1.97.53-2.88.2-.44.5-.85.63-1.32.15-.46.25-.93.39-1.4.17-.45.29-.92.49-1.37.2-.44.43-.88.48-1.37.06-.49.07-1 .3-1.43.17-.45.48-.86.71-1.29.11-.22.24-.43.31-.66.07-.23.11-.47.21-.69.2-.44.46-.87.7-1.3.49-.86.74-1.79.95-2.74.23-.94.38-1.91.67-2.84.3-.92.94-1.73.95-2.74.22-.95.46-1.88.75-2.81l2.25.78z"/><path fill="#D5DAEA" d="M87.78 163.78c-.33-16.15-.75-32.32-1-48.6l-.38-24.4-.2-24.38-.01-1.4 1.39.03 35.02.75 35.02.5 1.25.02v1.26l.08 23.82c.05 7.94-.01 15.88-.03 23.82l-.12 47.63v1.22h-1.22l-34.96.06-34.84-.33zm1.9-1.92l34.06-.44c11.28-.06 22.55-.11 33.86-.05l-1.45 1.45c.09-15.88.02-31.76.04-47.63l.03-23.82.11-23.82 1.25 1.27-35.02-.73-35.02-.52 1.21-1.21.3 23.88.14 23.91.07 11.97.14 11.93.28 23.81z"/><path fill="#D5DAEA" stroke="#D5DAEA" stroke-miterlimit="10" d="M138.55 151.99h-31.67c-4.96 0-8.99-4.02-8.99-8.99v-3.13c0-4.96 4.02-8.99 8.99-8.99h31.67c4.96 0 8.99 4.02 8.99 8.99v3.13c0 4.97-4.03 8.99-8.99 8.99z"/><circle fill="#E6E8F0" cx="120.68" cy="95.17" r="14.49"/><path fill="#E6E8F0" d="M136.52 95.17c.06 4.14-1.58 8.34-4.55 11.29-2.95 2.95-7.11 4.73-11.29 4.62-4.17-.07-8.25-1.86-11.11-4.81-1.41-1.49-2.59-3.2-3.4-5.1-.81-1.89-1.23-3.95-1.26-6.01-.05-4.11 1.55-8.33 4.56-11.21 2.95-2.93 7.09-4.58 11.21-4.51 2.05.04 4.11.41 6.02 1.2 1.92.75 3.7 1.88 5.18 3.32 2.99 2.89 4.66 7.07 4.64 11.21zm-2.71 0c-.04-3.46-1.55-6.78-3.96-9.18-1.2-1.21-2.63-2.18-4.2-2.84-1.56-.68-3.26-1.08-4.98-1.07-3.44 0-6.82 1.41-9.25 3.84-1.2 1.22-2.19 2.65-2.88 4.22-.69 1.57-1.06 3.29-1.1 5.02-.05 3.46 1.26 6.99 3.79 9.44 2.48 2.48 5.96 3.88 9.44 3.83 1.74-.04 3.47-.33 5.09-.98 1.62-.64 3.11-1.61 4.36-2.84 2.52-2.46 3.82-6 3.69-9.44z"/><path fill="#fff" d="M144.25 120.21l-7.02.22c-2.36.07-4.71.16-7.1.19-4.77.06-9.55.15-14.3.06l-1.45-.03.02-1.4.21-13.73c.05-2.29.02-4.58 0-6.87l-.06-6.87-.01-1.27 1.29-.01 6.87-.07c2.29-.04 4.58-.04 6.87-.01l13.73.14 1.24.01-.02 1.21c-.03 2.36-.01 4.73-.02 7.1l.04 7.15c.01 2.4-.07 4.76-.11 7.12l-.18 7.06zm-1.92-1.91l-.24-6.73c-.07-2.23-.18-4.45-.2-6.63l-.06-6.57c.01-2.19.06-4.38.05-6.59l1.41 1.41-13.73.01c-4.58.02-9.16-.11-13.73-.15l1.26-1.26c-.04 4.58-.16 9.16-.13 13.73l.08 13.73-1.22-1.22c2.22-.03 4.43.02 6.65.06l6.66.13c2.24.07 4.42.02 6.63.05 2.21.03 4.41.04 6.57.03zM392.58 225.55c0 13.35-10.84 24.19-24.19 24.19-6.4 0-12.27-2.5-16.59-6.6 0-.17 0-.37.03-.54.54-6.15 4.13-11.95 9.36-15.2 3.5-2.19 7.71-3.33 10.76-6.15 3.93-3.61 5.12-9.31 5.32-14.63.06-1.17.06-2.36.06-3.53 8.94 3.54 15.25 12.27 15.25 22.46zM390.45 134.26v39.54h-43.26c2.15-5.42 6.3-10.18 11.73-13.22 4.93-2.78 10.9-4.23 15.18-7.82 5.55-4.58 7.24-11.82 7.52-18.59v-.07c.08-1.45.08-2.94.08-4.41 3.09 1.1 5.94-1.41 8.51.41l.24 4.16z"/><path fill="#0C1238" d="M391.4 128.73l.22 11.18c.07 3.74.16 7.49.19 11.26.06 7.54.15 15.1.06 22.62v.03c-.01.78-.65 1.41-1.43 1.4l-22.06-.21c-3.68-.05-7.35-.02-11.03 0l-11.03.06c-.7 0-1.28-.56-1.28-1.26v-.01l-.07-11.03-.04-5.51.03-5.51.13-22.06v-.01c0-.67.55-1.22 1.22-1.21l11.26.02 11.31-.04c3.79-.02 7.53.06 11.28.11l11.24.17zm-1.91 1.91l-10.89.24c-3.61.07-7.22.18-10.79.2l-10.73.06-10.75-.05 1.41-1.41v22.06c.03 7.35-.1 14.7-.15 22.06l-1.26-1.26c7.35.04 14.7.16 22.06.13l22.06-.08-1.22 1.22c-.03-3.6.02-7.2.06-10.81l.13-10.82c.07-3.63.02-7.19.05-10.79.02-3.61.04-7.2.02-10.75zM393.93 225.55c.07 6.69-2.62 13.4-7.39 18.15-4.74 4.75-11.42 7.58-18.15 7.47-6.71-.05-13.31-2.9-17.95-7.67-2.31-2.38-4.21-5.17-5.51-8.23-1.3-3.06-1.98-6.39-2.01-9.72-.05-6.65 2.58-13.4 7.41-18.06 4.75-4.72 11.4-7.42 18.06-7.35 3.31.02 6.67.64 9.72 1.96 3.07 1.24 5.95 3.07 8.32 5.42 4.84 4.64 7.5 11.36 7.5 18.03zm-2.7 0c-.06-2.99-.66-5.96-1.83-8.7-1.18-2.73-2.88-5.22-4.99-7.32-2.08-2.12-4.6-3.78-7.35-4.93-2.73-1.21-5.68-1.84-8.67-1.83-5.98-.02-11.89 2.44-16.1 6.68-2.1 2.12-3.8 4.63-4.98 7.37-1.18 2.75-1.8 5.73-1.84 8.73-.06 6 2.32 12.04 6.64 16.29 4.26 4.29 10.26 6.75 16.28 6.68 3.01-.04 6.01-.59 8.8-1.72 2.79-1.12 5.36-2.82 7.51-4.94 4.32-4.26 6.66-10.33 6.53-16.31z"/><path fill="#fff" d="M393.29 98.99l-33.29-.93c.61-2.59 2.09-5.06 3.76-7.19 2.56-3.27 5.67-6.2 7.44-9.96 1.39-2.96 1.85-6.27 2.29-9.51.31-2.26.62-4.55.52-6.81-.02-.52-.06-1.03-.14-1.55l19.42 35.95z"/><path fill="#0C1238" d="M394.44 99.7l-12.51.11c-4.21.05-8.51.01-12.77-.06l-6.39-.14-3.17-.09-3.06-.12-12.23-.5h-.02c-.71-.03-1.25-.62-1.22-1.33.01-.22.08-.43.18-.6 2.12-3.55 4.28-7.06 6.36-10.63l6.21-10.72 6.2-10.73c2.06-3.58 4.21-7.1 6.32-10.66l.01-.01c.37-.63 1.19-.84 1.82-.47.22.13.39.31.5.52l5.9 11.15c2.01 3.79 4.03 7.58 6.09 11.4 2.05 3.81 4.11 7.67 6.02 11.49l5.76 11.39zm-2.3-1.42l-6.24-10.68c-2.09-3.52-4.03-7-6-10.5-1.98-3.49-3.8-7.05-5.75-10.59l-5.91-10.92 2.47.05c-2.1 3.55-4.18 7.13-6.31 10.66l-6.4 10.6-6.38 10.62c-2.12 3.54-4.17 7.13-6.27 10.69l-.97-1.75 12.24.28 3.06.07 2.97.11 5.91.25 23.58 1.11z"/><path fill="#FFC04D" d="M302.5 57.04v39.82l22.87-19.25zM302.98 58.12l.12 4.9c.08 1.68-.06 3.06.11 4.86.35 3.57.47 6.7.48 9.85l.01 9.5c-.1 3.17-.13 6.39-.34 9.63l-1.41-.66c1.01-.73 1.94-1.56 2.89-2.37.96-.79 1.93-1.58 2.91-2.34.98-.77 1.97-1.52 2.89-2.36.93-.83 1.86-1.65 2.85-2.42.97-.78 1.94-1.57 2.89-2.37.47-.41.98-.77 1.42-1.21.46-.42.87-.9 1.31-1.35 1.83-1.7 3.71-3.33 5.58-4.97l-.03 1.59c-1.86-1.66-3.79-3.14-5.55-4.86l-2.64-2.65-2.71-2.47c-.9-.84-1.79-1.62-2.68-2.58-.9-.98-1.81-1.89-2.72-2.72l-5.38-5zm-.96-2.16l6 4.97c1.01.85 2.02 1.59 3.05 2.34 1.03.76 2.07 1.71 3.1 2.6 1.03.9 2.04 1.84 3.04 2.77l3.02 2.7c1.01.89 1.94 1.9 2.89 2.83.96.93 1.98 1.76 2.99 2.62l.92.79-.95.87c-1.83 1.69-3.62 3.44-5.58 4.97-.53.34-1.1.63-1.6 1-.49.38-.93.83-1.39 1.25-.91.86-1.76 1.77-2.65 2.65-.46.42-.9.86-1.37 1.27-.47.41-.99.76-1.5 1.11-1.03.71-1.94 1.56-2.88 2.38-.93.83-1.9 1.61-2.86 2.4-.99.76-2 1.49-2.86 2.4l-1.83 1.93-.38-2.96c-.22-1.71-.15-3.45.04-5.14.09-.85.16-1.69.21-2.54.04-.85-.05-1.72.03-2.56.12-1.69.33-3.32.39-4.99.06-1.68.03-3.39-.01-5.13-.06-3.45-.16-7.07.11-10.22.12-1.57-.04-3.52.02-5.18l.05-5.13zM302.5 131.83v39.82l22.87-19.24zM302.98 132.91l.12 4.9c.08 1.68-.06 3.06.11 4.86.35 3.57.47 6.7.48 9.85l.01 9.5c-.1 3.17-.13 6.39-.34 9.63l-1.41-.66c1.01-.73 1.94-1.56 2.89-2.37.96-.79 1.93-1.58 2.91-2.34.98-.77 1.97-1.52 2.89-2.36.93-.83 1.86-1.65 2.85-2.42.97-.78 1.94-1.57 2.89-2.37.47-.41.98-.77 1.42-1.21.46-.42.87-.9 1.31-1.35 1.83-1.7 3.71-3.33 5.58-4.97l-.03 1.59c-1.86-1.66-3.79-3.14-5.55-4.86l-2.64-2.65-2.71-2.47c-.9-.84-1.79-1.62-2.68-2.58-.9-.98-1.81-1.89-2.72-2.72l-5.38-5zm-.96-2.16l6 4.97c1.01.85 2.02 1.59 3.05 2.34 1.03.76 2.07 1.71 3.1 2.6 1.03.9 2.04 1.84 3.04 2.77l3.02 2.7c1.01.89 1.94 1.9 2.89 2.83.96.93 1.98 1.76 2.99 2.62l.92.79-.95.87c-1.83 1.69-3.62 3.44-5.58 4.97-.53.34-1.1.63-1.6 1-.49.38-.93.83-1.39 1.25-.91.86-1.76 1.77-2.65 2.65-.46.42-.9.86-1.37 1.27-.47.41-.99.76-1.5 1.11-1.03.71-1.94 1.56-2.88 2.38-.93.83-1.9 1.61-2.86 2.4-.99.76-2 1.49-2.86 2.4l-1.83 1.93-.38-2.96c-.22-1.71-.15-3.45.04-5.14.09-.85.16-1.69.21-2.54.04-.85-.05-1.72.03-2.56.12-1.69.33-3.32.39-4.99.06-1.68.03-3.39-.01-5.13-.06-3.45-.16-7.07.11-10.22.12-1.57-.04-3.52.02-5.18l.05-5.13zM302.5 205.64v39.82l22.87-19.25zM302.98 206.72l.12 4.9c.08 1.68-.06 3.06.11 4.86.35 3.57.47 6.7.48 9.85l.01 9.5c-.1 3.17-.13 6.39-.34 9.63l-1.41-.66c1.01-.73 1.94-1.56 2.89-2.37.96-.79 1.93-1.58 2.91-2.34.98-.77 1.97-1.52 2.89-2.36.93-.83 1.86-1.65 2.85-2.42.97-.78 1.94-1.57 2.89-2.37.47-.41.98-.77 1.42-1.21.46-.42.87-.9 1.31-1.35 1.83-1.7 3.71-3.33 5.58-4.97l-.03 1.59c-1.86-1.66-3.79-3.14-5.55-4.86l-2.64-2.65-2.71-2.47c-.9-.84-1.79-1.62-2.68-2.58-.9-.98-1.81-1.89-2.72-2.72l-5.38-5zm-.96-2.16l6 4.97c1.01.85 2.02 1.59 3.05 2.34 1.03.76 2.07 1.71 3.1 2.6 1.03.9 2.04 1.84 3.04 2.77l3.02 2.7c1.01.89 1.94 1.9 2.89 2.83.96.93 1.98 1.76 2.99 2.62l.92.79-.95.87c-1.83 1.69-3.62 3.44-5.58 4.97-.53.34-1.1.63-1.6 1-.49.38-.93.83-1.39 1.25-.91.86-1.76 1.77-2.65 2.65-.46.42-.9.86-1.37 1.27-.47.41-.99.76-1.5 1.11-1.03.71-1.94 1.56-2.88 2.38-.93.83-1.9 1.61-2.86 2.4-.99.76-2 1.49-2.86 2.4l-1.83 1.93-.38-2.96c-.22-1.71-.15-3.45.04-5.14.09-.85.16-1.69.21-2.54.04-.85-.05-1.72.03-2.56.12-1.69.33-3.32.39-4.99.06-1.68.03-3.39-.01-5.13-.06-3.45-.16-7.07.11-10.22.12-1.57-.04-3.52.02-5.18l.05-5.13zM306.34 81.83c-5.53.36-11.07.47-16.6.55-5.53.09-11.07.06-16.6-.19-2.77-.11-5.53-.3-8.3-.5-2.77-.16-5.53-.39-8.3-.46-5.53-.2-11.07-.01-16.6.29-5.53.29-11.07.56-16.6.43-2.77 0-5.53-.14-8.3-.25l-4.02-.18c-.95-.05-1.9.07-2.83.29-1.84.44-3.63 1.43-4.87 2.91-.65.71-1.13 1.56-1.53 2.41-.36.88-.61 1.78-.74 2.69-.06.46-.11.91-.14 1.36l-.01.68.02.8.05 4.15c.02 2.77-.04 5.53-.16 8.3h-10.81c-.23-2.77-.4-5.53-.51-8.3l-.14-4.15c-.02-.29-.01-.84 0-1.3.02-.48.05-.95.1-1.43.1-.95.25-1.9.49-2.83.92-3.73 2.92-7.16 5.6-9.82 1.34-1.34 2.91-2.42 4.53-3.36 1.63-.92 3.34-1.72 5.15-2.23 1.8-.53 3.67-.81 5.53-.87l4.29-.06c2.77-.02 5.53-.06 8.3-.01 5.53.04 11.07.34 16.6.66 2.77.14 5.53.34 8.3.39l4.15.12h4.15c5.53 0 11.07-.39 16.6-.4 2.77-.06 5.53.01 8.3.14 2.77.14 5.53.34 8.3.36 5.53-.03 11.07-.25 16.6-1v10.81zM306.34 157.08c-1.16.36-2.31.47-3.47.55-1.16.1-2.31.07-3.47-.19-1.16-.27-2.31-.83-3.47-.99-1.16-.16-2.31.02-3.47.34-1.16.31-2.31.53-3.47.4-1.16-.11-2.31-.49-3.47-.63-.58-.13-1.16-.09-1.73.02-.58.12-1.16.37-1.73.52-1.16.2-2.31.21-3.47-.02v-10.81c1.16-.44 2.31-.61 3.47-.69.58-.01 1.16.09 1.73.15.29.04.58.13.87.22.29.09.58.1.87.1 1.16.05 2.31-.12 3.47-.08 1.16.02 2.31.3 3.47.65 1.16.33 2.31.6 3.47.58 1.16-.03 2.31-.36 3.47-.44.58-.03 1.16-.02 1.73.15.58.15 1.16.36 1.73.37 1.16-.03 2.31-.23 3.47-1v10.8zM306.34 231.83c-2.31.36-4.62.47-6.93.55-2.31.1-4.62.07-6.93-.19-2.31-.28-4.62-.82-6.93-.99-1.16-.06-2.31-.08-3.47-.01-1.16.04-2.31.24-3.47.35-2.31.31-4.62.53-6.93.4-2.31-.1-4.62-.49-6.93-.63-1.16-.11-2.31-.09-3.47.02-1.16.12-2.31.37-3.47.52-2.31.19-4.62.22-6.93-.02v-10.81c2.31-.44 4.62-.61 6.93-.69 1.16-.01 2.31.09 3.47.15.58.04 1.16.13 1.73.22s1.16.1 1.73.1c2.31.05 4.62-.13 6.93-.07 2.31 0 4.62.29 6.93.63 2.31.33 4.62.6 6.93.58 2.31-.03 4.62-.36 6.93-.44 1.16-.03 2.31-.02 3.47.15 1.16.14 2.31.35 3.47.37 2.31-.03 4.62-.23 6.93-1v10.81z"/><path fill="#8891EA" stroke="#8891EA" stroke-width="3" stroke-linecap="round" stroke-linejoin="round" stroke-miterlimit="10" d="M249.93 150.1l-33.35-33.24-59.38 15.39-83 83.33 24.45 24.36 55.49 55.26 81.86-82.18 18-58.87-4.07-4.05zm-42.78.79c5.24 0 9.5 4.26 9.5 9.5s-4.26 9.5-9.5 9.5-9.5-4.26-9.5-9.5 4.26-9.5 9.5-9.5z"/><path fill="#6C74C4" stroke="#6C74C4" stroke-width="3" stroke-linecap="round" stroke-linejoin="round" stroke-miterlimit="10" d="M254 154.15l-18 58.87-81.86 82.19-55.49-55.26c3.98-5.75 8.52-11.27 13.96-15.57 1.99-1.54 4.07-2.95 6.31-4.12 18.63-9.8 41.51-2.62 62.27-6.11 12.66-2.12 24.6-8.43 33.5-17.71 13.44-14.02 20.55-34.76 35.25-46.34l4.06 4.05z"/><path fill="#F4F6F8" d="M136.14 189.12c3.88 1.45 8.01 2.09 12.15 2.2 1.04.03 2.08.01 3.11-.08 1.03-.13 2.06-.3 3.08-.51 2.04-.41 4.02-1.03 5.97-1.69 3.89-1.36 7.68-3.1 10.99-5.51 1.64-1.2 3.18-2.56 4.39-4.11.6-.77 1.11-1.6 1.45-2.44.36-.85.42-1.61.37-2.59-.06-.91-.29-1.76-.73-2.39-.43-.63-1.07-1.08-1.88-1.3-1.65-.44-3.69.01-5.5.79-3.66 1.64-6.93 4.44-9.3 7.83-2.32 3.44-3.96 7.35-4.78 11.44-.89 4.09-.63 8.41.11 12.45.43 2.01 1.24 3.93 2.45 5.57 1.2 1.65 2.79 3.01 4.59 3.99 1.82.97 3.86 1.46 5.89 1.72 2.03.28 4.1.32 6.14.06 2.03-.25 4.04-.77 5.86-1.62 1.8-.84 3.49-2.05 4.33-3.62 1.86-3.14-1.56-7.1-4.73-8.64-1.65-.8-3.57-.9-5.33-.23-1.78.62-3.34 1.95-4.48 3.56-1.16 1.6-1.97 3.47-2.41 5.42-.45 1.95-.48 3.97-.29 5.97.22 1.99.78 3.97 1.69 5.8.94 1.81 2.15 3.49 3.59 4.96 2.86 2.96 6.44 5.21 10.2 6.96.59.27.85.98.57 1.57-.27.59-.98.85-1.57.57h-.01l-.02-.01c-3.94-1.88-7.72-4.3-10.81-7.56-1.54-1.62-2.9-3.45-3.94-5.47-1.08-1.99-1.9-4.17-2.25-6.46-.4-2.28-.23-4.65.31-6.91.55-2.26 1.55-4.41 2.97-6.28.71-.94 1.54-1.78 2.47-2.53.92-.75 1.97-1.38 3.11-1.82 1.14-.45 2.38-.67 3.63-.64 1.25.03 2.48.35 3.59.85 1.11.51 2.07 1.25 2.92 2.06.83.82 1.58 1.69 2.21 2.71.61 1.02 1.12 2.18 1.21 3.47.13 1.27-.15 2.6-.75 3.7-1.22 2.23-3.27 3.59-5.31 4.57-2.07.97-4.28 1.54-6.51 1.83-2.23.27-4.51.29-6.75-.09-2.24-.4-4.33-1.38-6.33-2.44-2.02-1.05-3.83-2.54-5.28-4.35-1.44-1.82-2.51-3.95-3.04-6.2-.57-2.27-.72-4.42-.66-6.67.02-1.11.12-2.22.22-3.32.08-1.11.23-2.21.42-3.31.71-4.39 2.47-8.64 5.08-12.26.32-.45.66-.9 1-1.34.32-.45.66-.9 1.02-1.33.71-.87 1.46-1.7 2.27-2.5 1.64-1.55 3.59-2.81 5.74-3.67 2.14-.86 4.52-1.35 7.04-.83 1.24.3 2.5 1.05 3.24 2.18.73 1.13.99 2.4 1.03 3.57.01.61 0 1.14-.1 1.78-.1.61-.28 1.19-.51 1.73-.46 1.08-1.1 2.03-1.8 2.9-1.36 1.77-2.98 3.28-4.72 4.6-3.46 2.68-7.37 4.75-11.52 6.15-2.07.71-4.23 1.12-6.39 1.45-1.08.15-2.17.27-3.26.33-1.09.1-2.18.18-3.27.22-4.38.14-8.8-.62-12.96-2.07-.62-.21-.94-.89-.73-1.5.21-.62.89-.94 1.5-.73l.02.01-.01.05z"/><path fill="#5053AB" d="M114.03 198.24c1.21 1.04 2.39 2.1 3.42 3.32.52.6.97 1.27 1.51 1.85.52.6 1.12 1.12 1.73 1.64.61.51 1.21 1.03 1.74 1.62.54.58 1.05 1.2 1.57 1.8.5.62 1.16 1.09 1.76 1.6.32.25.58.55.86.82.28.28.56.56.82.87l-1.92 1.9c-.63-.49-1.22-1.02-1.79-1.57-.58-.54-1.05-1.19-1.6-1.77-1.14-1.11-2.26-2.23-3.25-3.48-.5-.62-1.01-1.23-1.58-1.79-.55-.57-1.18-1.06-1.75-1.62-.59-.53-1.05-1.2-1.59-1.77-.56-.56-1.15-1.09-1.85-1.52l1.92-1.9zM131.16 215.5c3.41 3.26 6.79 6.57 10.03 10 1.6 1.74 3.21 3.47 4.84 5.17 1.61 1.73 3.36 3.3 5.07 4.9 3.5 3.12 6.95 6.24 10.67 9.01.46.36.95.66 1.43.98.48.32.97.63 1.47.92 1 .58 2.03 1.09 3.06 1.61 1.05.46 2.06 1.02 3.12 1.44 1.04.47 2.13.84 3.18 1.27l-.87 2.56c-2.33-.71-4.6-1.63-6.76-2.75-1.06-.59-2.13-1.18-3.15-1.83-1.03-.64-1.99-1.38-2.99-2.05-3.97-2.75-7.6-5.92-10.91-9.33-1.7-1.67-3.29-3.43-4.98-5.08l-5.05-4.97c-1.69-1.65-3.26-3.41-4.92-5.1-.8-.87-1.7-1.64-2.54-2.47-.85-.82-1.71-1.63-2.61-2.39l1.91-1.89zM101.55 207.85c.78.66 1.53 1.36 2.12 2.2.3.41.53.89.85 1.28.31.41.69.75 1.08 1.07.4.33.78.66 1.1 1.06.32.39.61.82.92 1.23.28.43.72.72 1.12 1.04.38.34.73.71 1.02 1.13l-2 1.82c-.85-.6-1.51-1.37-2.09-2.22-.7-.74-1.41-1.46-1.95-2.35-.28-.43-.57-.85-.92-1.22-.34-.38-.75-.69-1.1-1.06-.38-.34-.61-.82-.94-1.21-.34-.37-.72-.72-1.21-.96l2-1.81zM116.15 223.87l2.66 2.74 2.57 2.82c1.67 1.92 3.2 3.97 4.94 5.83 1.76 1.84 3.56 3.65 5.26 5.55l5.06 5.7c3.38 3.77 6.78 7.53 10.62 10.77 3.83 3.2 7.83 6.32 12.27 8.09l-.94 2.54c-2.57-.89-4.89-2.22-7.06-3.69-2.19-1.45-4.17-3.15-6.11-4.87-1.94-1.71-3.71-3.59-5.53-5.4-1.8-1.83-3.56-3.69-5.28-5.58-3.45-3.79-6.79-7.58-10.04-11.51-1.66-1.93-3.49-3.71-5.18-5.6-.82-.97-1.64-1.94-2.49-2.89-.92-.88-1.76-1.84-2.75-2.66l2-1.84z"/><path fill="#0C1238" d="M204.44 161.34c1.62-13.25 6.34-25.86 12.87-37.36 3.36-5.7 7.16-11.17 11.68-16.06 4.52-4.83 9.62-9.37 15.9-12.11 3.12-1.36 6.47-2.25 10-2.33 1.75 0 3.49.22 5.19.62 1.67.47 3.33 1.05 4.85 1.9 1.52.84 3 1.81 4.26 3.04 1.28 1.2 2.43 2.58 3.26 4.16 1.81 3.09 2.14 6.98 1.45 10.34-.69 3.38-1.95 6.53-3.49 9.51-1.52 2.99-3.34 5.8-5.33 8.47-1.98 2.68-4.22 5.17-6.65 7.47-2.42 2.3-5.01 4.43-7.81 6.3l-1.49-2.26c5.23-3.6 9.81-8.18 13.68-13.24 1.94-2.53 3.72-5.19 5.2-7.99 1.47-2.79 2.73-5.72 3.31-8.73.57-2.99.28-5.98-1.22-8.55-.69-1.3-1.67-2.45-2.76-3.47-1.08-1.04-2.37-1.87-3.7-2.59-2.69-1.41-5.73-2.19-8.76-2.25-3.01.01-6.12.75-9 1.95-2.89 1.21-5.61 2.88-8.14 4.82-2.53 1.94-4.88 4.14-7.02 6.53-4.32 4.77-7.95 10.16-11.12 15.78-3.13 5.64-5.95 11.49-8.12 17.59-1.12 3.03-1.98 6.16-2.74 9.29-.76 3.13-1.34 6.31-1.62 9.5l-2.68-.33z"/></g></svg>