<svg xmlns="http://www.w3.org/2000/svg" viewBox="0 0 330 250"><path d="M79.654 88.633a20 20 0 01-1.635 7.914c-1.359 2.321-2.328 4.906-4.211 6.981a18.124 18.124 0 01-6.838 4.551 21.858 21.858 0 01-8.056 1.421l-2.041-.132c-.675-.094-1.347-.213-2.017-.331-.66-.168-1.308-.381-1.958-.572-.639-.23-1.261-.5-1.887-.755-.611-.289-1.2-.622-1.8-.932-.576-.35-1.13-.734-1.691-1.1-.538-.4-1.037-.853-1.547-1.281l-1.4-1.423a25.23 25.23 0 00-1.3-1.508l-1.2-1.584a22.814 22.814 0 01-1-1.713c-.27-.605-.561-1.2-.809-1.812-.2-.629-.419-1.254-.592-1.888-.131-.646-.3-1.281-.42-1.926-.064-.654-.21-1.294-.3-1.945l-.147-1.965a19.241 19.241 0 011.637-7.652c.254-.6.562-1.181.828-1.779.3-.581.6-1.167.863-1.783a17.121 17.121 0 011.043-1.7l1.3-1.519a19.861 19.861 0 016.554-4.591 20.617 20.617 0 017.882-1.772c.678.055 1.357.091 2.03.167.669.121 1.331.272 1.991.409l1.943.558c.638.213 1.268.449 1.9.676a18.1 18.1 0 016.722 4.4c.426.527.839 1.061 1.244 1.594.357.572.753 1.109 1.128 1.661.348.568.714 1.128 1.045 1.708l.9 1.794a20.4 20.4 0 011.839 7.829zm-3.149 0a18.066 18.066 0 00-1.423-6.7c-.229-.524-.5-1.03-.754-1.54-.292-.492-.614-.966-.914-1.45a24.722 24.722 0 00-1.116-1.3c-.425-.384-.854-.755-1.256-1.145a22.26 22.26 0 00-5.5-3.875 16.386 16.386 0 00-6.627-1.486c-.573 0-1.147 0-1.727-.024-.577.019-1.153.074-1.736.116-.572.093-1.135.246-1.7.385-.549.191-1.082.425-1.623.632a17.977 17.977 0 00-5.52 4.076l-1.117 1.29a7.669 7.669 0 01-1.175 1.263 7.493 7.493 0 00-1.084 1.371 36.653 36.653 0 00-.671 1.608 22.56 22.56 0 00-.818 6.772c.009.561-.041 1.127-.078 1.7a12.58 12.58 0 00.175 1.7c.131.554.287 1.1.441 1.648.187.537.427 1.054.618 1.586.222.521.483 1.026.718 1.542.273.5.591.967.841 1.482l.94 1.433a14.312 14.312 0 001.191 1.234l1.4.994a12.178 12.178 0 011.366 1c.473.3.918.658 1.376 1 .485.294.952.647 1.459.924a14.383 14.383 0 001.589.694c.565.127 1.13.245 1.688.4l1.7.4 1.749.293a12.8 12.8 0 006.92-1.32 19.52 19.52 0 005.629-4.158c1.624-1.611 3.379-3.387 3.909-5.733a18.661 18.661 0 001.13-6.812z" fill="#e6e8f0"/><circle cx="125.8" cy="100.1" r="14.734" fill="#ffd57d"/><path d="M289.651 171.434l-41.377 1.353c-1.936.063-4.185-.013-5.362-1.552 3.7-6.057 1.459-14.082-2.462-20s-9.368-10.772-12.765-17a30.955 30.955 0 01-2.451-23.4c1.989-6.656 6.156-12.4 9.57-18.45s6.175-12.973 4.936-19.808c-1.579-8.716-9.074-14.908-15.829-20.638a289.615 289.615 0 01-21.749-20.466l56.738-1.739 14.486-.445c2.789-.086 12.271-1.958 14.434-.448 3.767 2.63 1.355 21.371 1.375 26.543z" fill="#f4f6f8"/><path d="M279.954 198.534c-5.75-.022-11.5.012-17.251-.078-2.875.005-5.75-.091-8.625.035-2.874.068-5.749.2-8.624.09-2.875-.031-5.751-.179-8.626-.162-2.875-.007-5.749.1-8.624.15l-17.249.369-4.312.092c-1.456.023-2.833.087-4.355.038a10.986 10.986 0 01-8.426-4.392 11.129 11.129 0 01-2.009-4.383 16.519 16.519 0 01-.285-2.4l-.052-2.158-.195-8.624c-.088-11.5.348-23 .215-34.5l-.006-4.312c-.009-1.438-.073-2.875-.108-4.312-.082-2.875-.154-5.75-.179-8.624-.007-2.875.274-5.752.277-8.627.03-1.437-.043-2.874-.133-4.312s-.1-2.874-.1-4.312l.025-17.25c.03-5.75.049-11.5.009-17.25-.019-5.75-.122-11.5.145-17.25l.106-4.313c.03-1.438.087-2.876.041-4.313-.019-2.875-.275-5.749-.268-8.624.043-5.75.18-11.5.273-17.251l.046-2.171a12.077 12.077 0 01.307-2.23 10.28 10.28 0 012-4.01 10.446 10.446 0 017.905-3.846c5.749-.119 11.5-.05 17.25-.084 5.75-.01 11.5-.033 17.25.033L245 9.548l8.624-.2c5.75-.176 11.5-.3 17.249-.4 2.889-.046 5.718-.141 8.656-.133a10.9 10.9 0 0110.407 8.411c.1.39.126.793.188 1.189.037.4.04.8.057 1.2l-.027 2.158-.143 8.626c-.04 11.5.533 23 .506 34.5 0 2.875-.152 5.75-.067 8.625l.141 8.624c.168 5.749-.06 11.5-.222 17.251-.076 2.875.022 5.75.039 8.625l.057 4.312-.094 4.313c-.049 2.875-.139 5.751.038 8.625s.228 5.749.162 8.624c-.015 2.875-.117 5.751-.159 8.626l-.049 8.625c.09 5.75.326 11.5.159 17.25l-.049 4.312c-.017 1.438-.044 2.875.013 4.313l.242 8.624c.017.733.063 1.4.055 2.188a9.339 9.339 0 01-.3 2.374 10.912 10.912 0 01-10.534 8.334zm-.008-2.4a8.572 8.572 0 008.32-6.493 9.006 9.006 0 00.272-1.874c.042-.647.032-1.418.05-2.121l.111-8.625c.037-1.438-.02-2.875-.065-4.312l-.13-4.312c-.288-5.749-.079-11.5-.034-17.25q-.035-4.312-.163-8.625c-.084-2.874-.238-5.749-.274-8.623-.009-1.438-.105-2.875-.044-4.313.013-1.437.128-2.875.21-4.313a71.94 71.94 0 000-8.625c-.387-5.749.253-11.5.086-17.251-.024-2.875-.233-5.749-.3-8.624-.1-2.874.008-5.75.024-8.625l.125-8.625a78.507 78.507 0 00-.02-4.313l-.087-4.312c-.019-1.437-.079-2.875-.065-4.312l.047-4.313.093-8.625.053-8.626.023-4.312-.091-4.312-.36-8.624-.051-2.154c-.03-.308-.041-.618-.079-.924-.065-.3-.093-.61-.179-.9a8.606 8.606 0 00-1.581-3.3 8.34 8.34 0 00-6.375-3.2l-8.583-.057-8.625-.076-8.626-.224-4.313-.139-4.313-.067c-2.875.019-5.75.08-8.624.141-11.5.348-23 .557-34.5.493a8.808 8.808 0 00-6.813 2.99 8.425 8.425 0 00-1.79 3.435 7.438 7.438 0 00-.257 1.936l.053 2.128c.158 5.749.662 11.5.626 17.247.027 2.875-.426 5.752-.457 8.627-.095 2.876.088 5.75.28 8.624.477 5.748.312 11.5.258 17.249l-.078 8.625.01 8.625-.01 17.247c0 1.437-.007 2.875-.115 4.313s-.181 2.875-.156 4.313c-.006 2.875.266 5.749.261 8.624-.017 5.75-.322 11.5-.277 17.251-.118 11.5.092 23 .1 34.5l-.009 8.625.006 2.155c.023.332.027.665.061 1 .069.325.1.657.2.975a9.073 9.073 0 001.786 3.491 8.893 8.893 0 006.8 3.237c2.812-.048 5.732.016 8.593.019l17.251.107c2.875 0 5.75.081 8.625.013l8.624-.236c2.874-.138 5.75-.045 8.625-.014 2.875.084 5.75-.039 8.625-.068 5.746-.153 11.5-.185 17.246-.27z" fill="#d5daea"/><path d="M263.957 29.315c.47-.024.967-.028 1.453-.015.494.168.971-.162 1.457-.242a24.547 24.547 0 012.934 0 13.89 13.89 0 011.469.061c.49.027.98.069 1.471.138.491.04.977-.043 1.467 0a5.9 5.9 0 001.467 0c.488-.03.979.022 1.468.018.49.061.971-.276 1.461-.245.977-.093 1.954-.159 2.933-.246a11.4 11.4 0 001.472.106 8.851 8.851 0 011.474-.04 4.364 4.364 0 001.483.108l.762-.032c.132 0 .262 0 .411.005.069 0 .156.011.244.022l.18.04a1.24 1.24 0 01.191.083l.045.026a.846.846 0 01.151.131.888.888 0 01.2.365.788.788 0 01-1.533.362.7.7 0 00.169.332.738.738 0 00.136.116l.024.017a.424.424 0 00.107.052s.007.006 0 0l-.118-.012-.319-.017-.7-.015a4.763 4.763 0 00-1.444.151 7.485 7.485 0 01-1.454-.083c-.486-.064-.973-.038-1.46-.068a7.551 7.551 0 00-2.922.1 1.228 1.228 0 01-.733-.061.979.979 0 00-.733-.058 7.265 7.265 0 01-1.456.31 51.283 51.283 0 01-5.868-.252 10.457 10.457 0 00-2.924.24c-.488.015-.984-.2-1.466.016a14.475 14.475 0 01-1.474.158.787.787 0 01-.077-1.572zm-71.829.609a79.85 79.85 0 008.051-.319c2.682-.134 5.365.036 8.046.031 1.341 0 2.681.037 4.022.09q2.01.054 4.021.171c1.34.051 2.68-.02 4.02.039s2.68.089 4.02.03c1.339-.018 2.68.047 4.019.04 1.34.093 2.68-.251 4.019-.207l8.038-.214c1.339.026 2.68.146 4.019.093 1.339-.01 2.678-.1 4.017-.046a68.1 68.1 0 008.031-.161.787.787 0 01.055 1.574h-.027l-4.023.1-2.011.052-2.01.162c-1.341.04-2.682-.013-4.023-.057-1.341-.061-2.681-.033-4.022-.064a61.634 61.634 0 00-8.04.067 9.218 9.218 0 01-2.011-.073 7.1 7.1 0 00-2.01-.069c-1.339.089-2.679.286-4.019.272a26.974 26.974 0 00-4.019-.074c-.67-.009-1.34.011-2.01-.022a15.677 15.677 0 00-2.01-.016 15.069 15.069 0 01-4.019-.054 16.047 16.047 0 00-2.009-.05l-2.01-.165a75.6 75.6 0 00-8.034.208l-2.009-.062a10.522 10.522 0 00-2.006.08c-1.337.092-2.671.138-4.006.214a.787.787 0 01-.089-1.572h.007zm1.907 143.123c3.943-.165 7.906.033 11.848-.426 1.975-.1 3.952-.111 5.929-.114h5.929c1.975 0 3.951.034 5.927.085q2.962.051 5.927.16c1.976.047 3.951-.028 5.926.025s3.952.085 5.926.014c1.975-.024 3.951.035 5.926.022 1.977.091 3.948-.264 5.924-.218l11.849-.243c1.975.023 3.952.142 5.926.088 1.976-.011 3.95-.1 5.926-.042l2.964.092c.987-.013 1.975-.009 2.962-.043l5.924-.162a.787.787 0 11.043 1.574h-.027l-5.925.075-2.962.037-2.961.142c-1.975.065-3.951-.011-5.926-.048-1.976-.058-3.951-.037-5.926-.06-3.953-.246-7.9 0-11.85.077-1.973.209-3.954-.318-5.927-.11-1.974.094-3.947.3-5.922.288-7.9-.154-15.8.083-23.706-.326-3.954-.225-7.895.238-11.842.345l-2.962-.022a24.8 24.8 0 00-2.96.106c-1.973.121-3.942.144-5.92.259a.787.787 0 01-.091-1.572h.051z" fill="#e6e8f0"/><path d="M233.954 21.758a61.526 61.526 0 008.5-.039c2.595-.192 5.288.032 7.916-.013" fill="#fff"/><path d="M234.006 20.959a1.749 1.749 0 01.5.129c.083.03.166.074.253.025.089-.074.175-.119.257-.054s.162.158.246.167a.723.723 0 00.256-.047l.516-.232a.741.741 0 01.254-.048.7.7 0 01.25.129.253.253 0 00.252.035 1.989 1.989 0 01.255-.143.929.929 0 01.505.162 1.123 1.123 0 00.507.116c.084-.011.169.007.253-.062s.168-.139.252-.113c.085.009.171.2.256.21.086.045.166-.208.252-.141.337-.011.679.126 1.017.09.169-.006.335-.075.513.116.089.077.177.145.261.121s.161-.178.246-.183c.168-.017.348.165.523.222a.757.757 0 00.5-.1 2.581 2.581 0 011.036 0 .553.553 0 00.515-.115 2.022 2.022 0 01.516-.234c.345-.112.7-.263 1.04.026.344.127.7-.35 1.039-.248.169.172.342.075.516.005a.281.281 0 01.257.01c.084.055.167.176.252.22.169.107.345-.164.512.039.083.077.168.111.255 0s.173-.144.258-.1a.9.9 0 00.506.208.859.859 0 00.256-.106.263.263 0 01.254.043c.169.155.339.035.507-.1a.952.952 0 01.5-.112.8.8 0 01.077 1.592l-.05.008a1.063 1.063 0 01-.523-.042c-.174-.108-.346-.2-.521.008a.244.244 0 01-.26.08c-.086-.038-.172-.115-.258-.113a1.045 1.045 0 00-.523.259c-.087.053-.172 0-.255-.158s-.17-.118-.257-.028c-.177.246-.34-.194-.512-.12-.086.021-.174.136-.261.179a.271.271 0 01-.255-.035c-.168-.1-.337-.232-.509-.07-.341.105-.675-.355-1.016-.154l-.254.219a.413.413 0 01-.252.066 1.186 1.186 0 01-.5-.056.954.954 0 01-.508-.231c-.173-.171-.345-.222-.506-.07a1.426 1.426 0 01-1 .3c-.18-.092-.364-.264-.529-.146s-.322.45-.5.427c-.088-.016-.189-.282-.278-.34s-.17.062-.251.19c-.16.329-.34.192-.516.146-.352-.139-.7-.03-1.045-.113-.086.054-.177-.233-.263-.2-.086 0-.171.163-.257.16s-.174-.068-.261-.137a.7.7 0 00-.26-.106 5.189 5.189 0 00-1.035-.013c-.172-.033-.343-.1-.519.032a.8.8 0 01-.263.14.786.786 0 01-.259-.024c-.171-.05-.341-.129-.512-.183a.811.811 0 00-.258-.034c-.086.01-.177.107-.266.153-.338-.16-.7.058-1.044.067h.01a.8.8 0 11-.043-1.607.955.955 0 01.149.019z" fill="#e1e4f1"/><path d="M246.772 177.086a2.78 2.78 0 011.093.895 3.518 3.518 0 00.818 1.152 2.372 2.372 0 01.683 1.22 2.239 2.239 0 00.362.607 2.059 2.059 0 01.239.663.9.9 0 01-1.6.7l-.117-.155a2.463 2.463 0 01-.455-1.031 5.858 5.858 0 01-.5-1.022 1.8 1.8 0 00-.7-.9c-.163-.105-.226-.314-.364-.451a.891.891 0 00-.545-.237.925.925 0 11.461-1.752z" fill="#e6e8f0"/><path d="M250.143 186.435a9.118 9.118 0 01-2.548 4.588 8.88 8.88 0 01-4.712 2.341 9.618 9.618 0 01-9.165-4.01 8.609 8.609 0 01-1.57-4.967 9.611 9.611 0 01.4-2.6 9.976 9.976 0 011.146-2.361A10.144 10.144 0 01237.6 176a8.656 8.656 0 012.544-.712 12.467 12.467 0 012.64.067.9.9 0 01-.148 1.8h-.043l-.107-.015a7.767 7.767 0 00-7.325 3.251 7.612 7.612 0 00-.034 8.037 7.044 7.044 0 003.211 2.78 7.408 7.408 0 004.234.432 7.8 7.8 0 003.829-1.862 6.322 6.322 0 001.3-1.722 6.032 6.032 0 00.688-2.021.9.9 0 111.786.26c0 .022-.007.043-.012.064zm-16.531-59.262a35.214 35.214 0 001.864-5.207c.284-.878.441-1.791.657-2.689.145-.913.321-1.82.439-2.74a35.458 35.458 0 00-.151-11.155l-.206-1.433a4.7 4.7 0 01.052-1.723 4.328 4.328 0 012.085-2.778 4.9 4.9 0 016.261 1.15 5.316 5.316 0 01.843 1.478 5.1 5.1 0 01.222.823l.116.736c.16.959.284 1.918.38 2.877.188 1.919.217 3.838.255 5.751a.9.9 0 01-1.8.05v-.019c-.066-1.888-.214-3.768-.352-5.635a48.795 48.795 0 00-.272-2.78l-.085-.67a3.35 3.35 0 00-.123-.531 2.742 2.742 0 00-.527-.952 3.15 3.15 0 00-3.966-.689 2.661 2.661 0 00-1.345 2.728l.144 1.4a55.377 55.377 0 01.224 11.574 30.329 30.329 0 01-1.181 5.7 51.443 51.443 0 01-1.911 5.523.9.9 0 01-1.683-.642l.014-.034zm-3.583-2.124a31.687 31.687 0 002.194-6.3 21.5 21.5 0 00.812-6.7 40.757 40.757 0 00-.8-6.7 9.752 9.752 0 01-.14-3.826 7.712 7.712 0 011.665-3.479.9.9 0 011.431 1.092l-.023.033a7.389 7.389 0 00-1.224 5.782 23.6 23.6 0 01.786 7.1c-.039 1.191-.158 2.373-.273 3.554a33.981 33.981 0 01-.509 3.526 24.172 24.172 0 01-1.026 3.423c-.244.548-.379 1.134-.623 1.686-.212.562-.474 1.108-.69 1.682a.9.9 0 01-1.689-.636.917.917 0 01.034-.078z" fill="#e6e8f0"/><path d="M238.6 94.947a9.26 9.26 0 015.323.157 8.794 8.794 0 014.282 3.218 8.643 8.643 0 011.145 2.45 10.313 10.313 0 01.282 1.291l.195 1.2c.224 1.63.508 3.246.64 4.884a40.846 40.846 0 01-.164 9.838c-.211 1.631-.428 3.263-.719 4.892-.157.812-.4 1.6-.6 2.407l-.787 2.358a.9.9 0 01-1.71-.564l.019-.058a54.068 54.068 0 002.056-9.226 67.261 67.261 0 00.219-9.516 37.922 37.922 0 00-.5-4.748l-.233-1.183a8.274 8.274 0 00-.272-1.078 6.946 6.946 0 00-1-1.916 7.692 7.692 0 00-3.427-2.619 6.527 6.527 0 00-2.162-.364 5.9 5.9 0 00-2.151.32.9.9 0 01-.59-1.7.644.644 0 01.058-.018z" fill="#e6e8f0"/><path d="M228.794 114.74a14.516 14.516 0 00-.083-4.8c-.211-1.651-.668-3.277-.9-5.068a11.845 11.845 0 01.68-5.484 13.713 13.713 0 012.833-4.686 11.959 11.959 0 014.532-3.088 13.517 13.517 0 015.4-.863 15.277 15.277 0 015.339 1.194 12.489 12.489 0 014.37 3.334.9.9 0 01-1.35 1.192l-.023-.025a12.4 12.4 0 00-8.388-3.94 12.172 12.172 0 00-8.667 3.376 10.318 10.318 0 00-2.565 4.014 9.784 9.784 0 00-.419 4.713c.286 1.621.636 3.342.868 5.086.093.877.251 1.755.267 2.663a16.922 16.922 0 01-.139 2.764.9.9 0 11-1.786-.244l.007-.041zm24.515-15.326a24.242 24.242 0 011.272 6.475c.05 1.09.071 2.177.071 3.26s.088 2.164.076 3.247a35.539 35.539 0 01-.436 6.474c-.156 1.071-.244 2.151-.361 3.232a28.119 28.119 0 01-.635 3.2.9.9 0 01-1.762-.368l.008-.046 1-6.215c.215-2.095.339-4.2.487-6.305a33.011 33.011 0 00-.21-6.311c-.127-1.041-.17-2.094-.356-3.121a10.266 10.266 0 00-.359-1.517 9.851 9.851 0 00-.515-1.452.9.9 0 011.668-.686l.015.041z" fill="#e6e8f0"/><path d="M223.287 120.608a19.338 19.338 0 001.233-10.961c-.118-.948-.275-1.9-.441-2.866a22.192 22.192 0 01-.406-3.05 17.629 17.629 0 011.007-6.089 15.98 15.98 0 018.129-8.961 21.17 21.17 0 012.854-1.166l1.483-.433 1.521-.29a17.193 17.193 0 016.157.3.9.9 0 01-.375 1.763h-.024a17.376 17.376 0 00-10.814 1.392 15.93 15.93 0 00-7.346 8 13.676 13.676 0 00-1.024 5.44c.143 1.754.727 3.74 1.023 5.7a22.708 22.708 0 01.155 6.061c-.045.508-.154 1.01-.207 1.519-.081.505-.208 1-.311 1.507l-.449 1.479-.546 1.451a.9.9 0 01-1.689-.635.76.76 0 01.027-.066zm25.747-31.97a15.952 15.952 0 016.768 6.224 19.487 19.487 0 011.788 4.257 24.075 24.075 0 01.9 4.5 53.624 53.624 0 01.2 8.889l-.15 4.45c-.081 1.484-.285 2.957-.479 4.43a.9.9 0 01-1.79-.2v-.043c.28-2.891.485-5.78.66-8.679.059-2.9-.033-5.8-.137-8.716a15.555 15.555 0 00-2.492-7.95 17.429 17.429 0 00-2.6-3.276 11.4 11.4 0 00-1.656-1.289l-.894-.546c-.311-.16-.633-.3-.946-.446a.9.9 0 11.774-1.626h.006z" fill="#e6e8f0"/><path d="M220.388 117.306a22.147 22.147 0 00-.188-8.016c-.208-1.362-.527-2.746-.7-4.22a21.037 21.037 0 01.033-4.434 17.639 17.639 0 013.058-8.189c.217-.3.418-.6.621-.908l.662-.877a19.245 19.245 0 011.408-1.692 18.072 18.072 0 013.4-2.8.9.9 0 011.025 1.48l-.03.022a24.77 24.77 0 00-5.6 5.724 20.786 20.786 0 00-2.856 7.468 16.5 16.5 0 00-.217 2.011 8.37 8.37 0 00.06 1.986c.2 1.324.573 2.68.874 4.083a21.784 21.784 0 01.463 4.329c-.019.732.022 1.465-.031 2.2s-.137 1.462-.209 2.2a.9.9 0 11-1.8-.175c0-.024 0-.047.009-.07zm42.406-6.438a2.714 2.714 0 01.022 1.176 1.812 1.812 0 00-.138 1.171 2.247 2.247 0 01-.072 1.172 1.314 1.314 0 00.064.591 1.752 1.752 0 01-.015.587.9.9 0 01-1.734.091l-.064-.207a1.941 1.941 0 010-1.149 3.351 3.351 0 01.13-1.143 2.339 2.339 0 00.064-1.147c-.037-.193.076-.382.091-.574a.975.975 0 00-.146-.575.918.918 0 111.542-1 .89.89 0 01.13.323zm-30.077-26.803a21.209 21.209 0 015.4-1.456 18.961 18.961 0 012.8-.15 16.575 16.575 0 012.787.2 23.283 23.283 0 0110.242 4.22 19.922 19.922 0 016.576 8.858l.511 1.288.423 1.317a25.948 25.948 0 01.747 2.663c.209.9.3 1.819.424 2.729l.12 2.748a.9.9 0 01-1.8.105v-.054l-.187-2.605-.425-2.558c-.206-.835-.323-1.7-.61-2.51l-.353-1.242c-.137-.407-.3-.8-.467-1.2a21.757 21.757 0 00-6-8.2 20.546 20.546 0 00-2.11-1.458c-.373-.21-.729-.455-1.118-.638s-.789-.34-1.182-.512a18.776 18.776 0 00-5-1.2 23.456 23.456 0 00-5.163-.085 14.639 14.639 0 00-2.532.518 14.024 14.024 0 00-2.415.9.9.9 0 01-.785-1.624l.047-.021z" fill="#e6e8f0"/><path d="M217.954 91.939a20.136 20.136 0 014-5.562 32.444 32.444 0 012.634-2.195c.479-.311.906-.69 1.373-1.016s.927-.665 1.417-.957a19.848 19.848 0 016.279-2.657c1.106-.271 2.205-.565 3.326-.794a20.722 20.722 0 013.41-.285.9.9 0 01.081 1.8h-.049a42.665 42.665 0 00-6.292.966 32.02 32.02 0 00-5.888 2.424 18.5 18.5 0 00-5.02 3.936q-.531.6-1.089 1.173c-.356.4-.682.822-1.024 1.233a14.547 14.547 0 00-1.572 2.784.9.9 0 01-1.665-.692.734.734 0 01.023-.049zm-.798 21.196a14.692 14.692 0 01-1.414-3.964c-.229-1.4-.326-2.784-.553-4.168a13.658 13.658 0 01.113-4.189c.111-.69.149-1.39.231-2.089a11.68 11.68 0 01.491-2.046.9.9 0 011.74.453l-.009.046-.707 3.82c-.122 1.291-.137 2.584-.168 3.89a12.883 12.883 0 00.574 3.859 10.045 10.045 0 001.346 3.653.9.9 0 11-1.461 1.065.846.846 0 01-.066-.106zM245.09 78.8a22.777 22.777 0 018.274 2.735c.627.376 1.23.791 1.842 1.183.593.422 1.163.878 1.742 1.315q.817.723 1.663 1.409c.531.5 1.043 1.013 1.567 1.521a20.721 20.721 0 014.6 7.381c.219.7.5 1.37.722 2.063.2.7.428 1.4.61 2.1.146.715.253 1.441.359 2.164.051.729.1 1.46.12 2.19a.9.9 0 01-1.8.091v-.059a28.922 28.922 0 00-1.639-7.9 26.3 26.3 0 00-4.222-6.9 20.3 20.3 0 00-6.393-5.011c-.625-.274-1.215-.616-1.83-.91-.629-.261-1.257-.531-1.895-.774-.647-.219-1.319-.361-1.977-.53a31.022 31.022 0 00-2.023-.3.9.9 0 11.188-1.792h.019zm1.393 36.785a15.767 15.767 0 01-.305 3.181 17.981 17.981 0 00-.641 3.152 11.4 11.4 0 01-.824 3.123 14.148 14.148 0 00-.439 1.569 9.13 9.13 0 01-.616 1.52.9.9 0 01-1.665-.668l.022-.071a29.235 29.235 0 011.018-2.86c.281-.98.521-1.972.843-2.956a12.408 12.408 0 00.549-3.05c.029-.519.2-1.021.266-1.537a6.076 6.076 0 000-1.571.9.9 0 111.788-.267.824.824 0 01.01.14zm-4.765-12.615a24.533 24.533 0 01.725 4.556c.05 1.539.036 3.07.2 4.6a18.109 18.109 0 01-.217 4.627c-.054.383-.085.772-.148 1.158a11.624 11.624 0 01-.123 1.171 12.289 12.289 0 01-.6 2.3.9.9 0 01-1.724-.506l.018-.076c.324-1.388.579-2.8.833-4.237.146-1.452.184-2.924.268-4.406a22.113 22.113 0 00-.257-4.449 16.2 16.2 0 00-.737-4.388.9.9 0 111.676-.674.862.862 0 01.035.105zm-.993 21.886a1.635 1.635 0 01-.3.855 1.089 1.089 0 00-.443.79 1.345 1.345 0 01-.383.817.791.791 0 00-.1.448 1.041 1.041 0 01-.172.417.914.914 0 01-1.661-.506v-.185a1.239 1.239 0 01.318-.856 2.155 2.155 0 01.442-.8 1.492 1.492 0 00.38-.83c.019-.157.177-.254.244-.391a.687.687 0 00.027-.487.9.9 0 011.72-.53.911.911 0 01.034.368zm-10.601-6.512a3.825 3.825 0 01-.328 1.571 3.561 3.561 0 00-.592 1.429 3.263 3.263 0 01-.618 1.4 2.4 2.4 0 00-.252.729 2.753 2.753 0 01-.346.687.9.9 0 01-1.625-.687l.033-.157a3.333 3.333 0 01.589-1.293 6.749 6.749 0 01.632-1.278 3.076 3.076 0 00.483-1.339 4.05 4.05 0 01.258-.662 1.046 1.046 0 00-.015-.68.951.951 0 111.8-.395z" fill="#e6e8f0"/><path fill="#fff" d="M19.883 200.727l.03-20.819.132-78.95 143.763.226 70.105.117-.04 25.595-.122 74.174-138.067-.22-75.801-.123z"/><path d="M19.317 201.292l-.138-12.805c-.016-4.276.031-8.594.065-12.7.037-4.157-.121-8.314-.069-12.471l.179-12.471-.2-24.943-.089-12.471.141-12.471.009-.85.829.014c8.911.157 17.823-.24 26.734-.035 8.911.061 17.822.265 26.733.244q26.733-.091 53.467.056l26.733.115 13.367.031c4.456.028 8.911.19 13.367.243 17.823-.345 35.644.437 53.466.153l.371-.006v.38c.05 8.314-.027 16.628-.034 24.942s-.144 16.628-.11 24.942c.058 8.314.224 16.629.237 24.943l.131 24.942v.756h-.764c-8.911.021-17.822-.25-26.733-.178l-26.734.223c-4.456-.024-8.911-.146-13.367-.121l-13.367.07-3.341.013-3.342-.063-6.683-.132c-4.456-.136-8.911-.07-13.367-.064-4.456.066-8.911-.095-13.367-.126s-8.911.187-13.367.136c-8.923-.09-17.89-.314-26.862-.206-9.033.165-17.873-.21-26.889-.107-4.494.011-9.058.1-13.537.067zm1.133-1.13l13.28-.036c4.438-.033 8.793.059 13.216.063 8.821.1 17.818-.35 26.58-.141 8.836.145 17.663-.124 26.559-.188 4.456-.043 8.911.26 13.367.258s8.911-.2 13.367-.057c4.455.058 8.91.2 13.366.088l6.684-.09 3.341-.044 3.342.036 13.367.16c4.455.054 8.911-.045 13.367-.061l26.733.234c8.911.068 17.823-.267 26.734-.251l-.939.935.136-24.942c-.016-8.314.272-16.627.376-24.941.064-8.314-.179-16.629-.167-24.943l-.056-12.471c-.015-4.157-.067-8.314.031-12.471l.778.78-13.367-.177-3.342-.03-3.341.063-6.684.126c-4.456.111-8.912.237-13.367.168-2.228-.018-4.455-.183-6.683-.268s-4.455-.106-6.683-.063c-4.456.079-8.912.307-13.368.33s-8.911-.074-13.366-.1c-8.911-.116-17.822-.095-26.734-.148-4.455-.028-8.911-.015-13.366-.076l-6.683-.185-6.684.086c-4.456.109-8.911-.024-13.366-.092-4.456-.113-8.911-.1-13.367-.14-8.911-.084-17.822-.039-26.733-.05-8.912.047-17.823-.151-26.734-.011l.554-.552.136 12.472-.079 12.467-.181 24.941.152 12.472c.044 4.157-.106 8.314-.076 12.471.027 4.2.071 8.207.051 12.246s-.081 8.07-.151 12.132z" fill="#0c1238"/><path fill="#948cff" d="M28.351 210.341l.029-20.819.132-78.95 143.764.225 70.104.118-.039 25.594-.122 74.175-138.068-.22-75.8-.123z"/><path d="M28.38 189.522a77.83 77.83 0 007.155 2.817 53.081 53.081 0 0020.315 2.813 48.556 48.556 0 0010.368-1.839c12.523-3.632 23.567-11.077 33.86-19.08 2.782-2.166 5.519-4.376 8.266-6.581 5.758-4.624 11.52-9.259 17.639-13.375 1.76-1.2 3.555-2.356 5.384-3.45.2-.128.41-.24.622-.364a131.178 131.178 0 0122.966-10.642 150.534 150.534 0 0161.3-8.446 115.219 115.219 0 0118.928 3.048q3.647.909 7.158 2.086l-.122 74.175-138.068-.22-75.8-.123z" fill="#5053ab" opacity=".5"/><path d="M59.84 118.208a19.215 19.215 0 01-1.717 8.937c-.34.686-.728 1.347-1.091 2.014-.408.643-.865 1.253-1.262 1.9q-.694.9-1.359 1.818c-.5.566-.974 1.158-1.467 1.738a18.723 18.723 0 01-7.561 4.968c-.726.222-1.418.536-2.141.764s-1.444.477-2.183.667c-.744.161-1.5.263-2.257.364-.761.044-1.523.08-2.284.081v-2.7a35.523 35.523 0 012.009-.207c.663-.1 1.314-.264 1.977-.347l1.952-.452a23.014 23.014 0 001.919-.6 25.41 25.41 0 006.769-4.335l1.431-1.447a20.279 20.279 0 001.248-1.613c.339-.591.7-1.168 1.023-1.764.274-.623.575-1.231.83-1.858.194-.651.49-1.263.72-1.9.176-.654.435-1.291.571-1.959.12-.67.181-1.352.254-2.026a29.937 29.937 0 00-.088-2.038zm-4.615 87.242a20.814 20.814 0 00-.261-8.335 17.923 17.923 0 00-.554-2.035 14.826 14.826 0 00-.848-1.945 10.591 10.591 0 00-1.167-1.779 12.531 12.531 0 00-1.429-1.572c-.5-.5-1.057-.94-1.6-1.381l-.866-.6a7.362 7.362 0 00-.864-.6l-.89-.568-.938-.486a18.771 18.771 0 00-1.939-.858 10.005 10.005 0 00-1.026-.291 7.417 7.417 0 00-1.039-.221 17.084 17.084 0 00-2.117-.127 20.978 20.978 0 00-4.2.247l-.5-2.655a16.835 16.835 0 019.685.53 17.821 17.821 0 018.134 5.246 24.342 24.342 0 012.8 3.953c.425.686.748 1.43 1.1 2.155a20.768 20.768 0 01.819 2.284c.1.391.23.778.3 1.176s.1.8.153 1.206a22.414 22.414 0 01.127 2.415 33.367 33.367 0 01-.244 4.847zm160.349-87.138a21.912 21.912 0 00.062 7.556 15.243 15.243 0 00.408 1.863 9.428 9.428 0 00.634 1.812c.138.289.242.6.408.873l.512.816a11.76 11.76 0 001.17 1.524 22.489 22.489 0 005.909 4.8 11.174 11.174 0 003.642 1.159c.624.122 1.257.186 1.882.295.632.062 1.269.069 1.9.147v2.7c-.736.013-1.48.03-2.218-.026a16.544 16.544 0 01-2.2-.326 16.735 16.735 0 01-4.15-1.583 16.991 16.991 0 01-6.752-5.587 24.416 24.416 0 01-2.209-3.785 15.015 15.015 0 01-.864-2.011 17.652 17.652 0 01-.65-2.1 13.231 13.231 0 01-.331-2.169c-.052-.73 0-1.463-.044-2.188 0-1.457.12-2.907.263-4.387zm-.723 84.527a16.446 16.446 0 01-.066-8.79 20.813 20.813 0 011.674-4.084 29.654 29.654 0 012.266-3.76 15.944 15.944 0 016.864-5.389l1-.454 1.029-.389a15.382 15.382 0 012.084-.727 16.211 16.211 0 014.386-.5v2.7c-.635.1-1.268.133-1.894.219-.62.136-1.246.217-1.855.376-.6.177-1.234.262-1.824.493a8.7 8.7 0 00-1.78.654 12.64 12.64 0 00-1.659.925 16.7 16.7 0 00-1.556 1.09 8.008 8.008 0 00-.723.617l-.74.605c-.439.457-.928.878-1.34 1.368a15.5 15.5 0 00-1.179 1.52l-.541.8a8.588 8.588 0 00-.425.867 15.629 15.629 0 00-1.2 3.653c-.131.627-.22 1.261-.361 1.891-.073.636-.159 1.28-.188 1.925a10.386 10.386 0 00.67 3.787z" fill="#d2d2ff"/><path d="M236.2 205.739l-100.188.445-50.245.081c-16.752.026-33.516-.1-50.249-.169H35.5a1.8 1.8 0 01-1.792-1.807l.153-21.907c.037-7.3.377-14.6.319-21.907l.166-43.814v-.016a1.3 1.3 0 011.3-1.292h.01c16.629.193 33.258.416 49.887.515l12.471.078 12.472-.041 24.944-.082 99.776-.4a1.545 1.545 0 011.552 1.54v.017l.056 11.1-.106 11.1-.338 22.12c-.083 7.369-.032 14.806-.073 22.208zm-2.259-2.267l-.5-43.386-.049-10.777c.009-3.584.08-7.156.124-10.744l.125-10.779.01-10.812 1.553 1.558-99.775-.07-24.944-.018c-8.314-.015-16.629-.017-24.944.059l-49.887.216 2.063-2.058q-.279 21.907-.655 43.814c-.248 7.3.076 14.605-.034 21.907l-.263 21.907-1.246-1.25 24.841.171 12.425.071 12.4-.057c16.539-.066 33-.24 49.546-.132z" fill="#5053ab"/><path d="M163.468 160c0 .662-.027 1.312-.076 1.961a28.093 28.093 0 01-56 .585 23.684 23.684 0 01-.128-2.636c0-.469.013-.926.038-1.383a28.1 28.1 0 0156.128.089c.027.453.038.911.038 1.384z" fill="#393389"/><path d="M120.051 168.272a27.455 27.455 0 004.486-3.816c1.478-1.394 2.265-3.343 3.314-5a25.792 25.792 0 002.461-5.26 7.526 7.526 0 00-.015-5.218l1.125.716a3.053 3.053 0 00-2.1.916 8.636 8.636 0 00-1.717 2.351 14.8 14.8 0 00-1.773 5.976 20.665 20.665 0 00-.057 3.145 10 10 0 00.579 3.025 4.545 4.545 0 001.771 2.2 2.3 2.3 0 002.447.036 9.109 9.109 0 002.411-1.9 9.914 9.914 0 00.942-1.305c.3-.449.616-.882.942-1.313 1.3-1.743 2.436-3.576 3.948-5.369a5.692 5.692 0 011.574-1.356 1.922 1.922 0 01.905-.216 2.22 2.22 0 01.865.2 2.374 2.374 0 011.106 1.121 5.672 5.672 0 01.475 2.044 11.714 11.714 0 01-.054 1.77c-.092 1.14-.274 2.232-.372 3.316a23.862 23.862 0 00-.047 3.135l-.56-.883a4.589 4.589 0 002.732.326 6.872 6.872 0 003.03-1.116 16.08 16.08 0 002.669-2.1 20.888 20.888 0 002.271-2.523l1.831 1.492a22.681 22.681 0 01-5.64 5.03 16.341 16.341 0 01-3.648 1.725 5.888 5.888 0 01-4.494-.583l-.729-.426-.027-.766a22.7 22.7 0 01.24-3.494c.122-1.1.224-2.189.3-3.236.04-.523.038-1.036.048-1.516a4.235 4.235 0 00-.106-1.192c-.039-.127-.047-.13 0-.124s0-.005.038-.008c.11 0 .116-.028.078-.009a3.4 3.4 0 00-.892.832c-1.321 1.573-2.379 3.57-3.768 5.324a7.172 7.172 0 01-1.12 1.279c-.437.379-.923.711-1.332 1.119a15.222 15.222 0 01-2.751 2.427 4.768 4.768 0 01-2.1.739 4.085 4.085 0 01-2.4-.6 6.438 6.438 0 01-2.4-3.333 13.98 13.98 0 01-.887-3.568 16.388 16.388 0 01.049-3.538c.165-1.163.422-2.292.6-3.453a9.323 9.323 0 011.087-3.39 11.344 11.344 0 012.332-2.9 9.145 9.145 0 011.626-1.172 3.905 3.905 0 012.085-.437l.738.047.218.561a8.513 8.513 0 01.448 3.468 18.385 18.385 0 01-.474 3.276 22.932 22.932 0 01-2.384 6.013c-1.015 1.92-2.656 3.356-3.915 5.077a18.082 18.082 0 01-2.175 2.384 16.722 16.722 0 01-2.6 2.069z" fill="#d2d2ff"/><path d="M310.117 168.1v67.543a5.109 5.109 0 01-.078.843 4.417 4.417 0 01-1.519 2.573l-.011.011a4.423 4.423 0 01-2.884 1.065H197.046a4.5 4.5 0 01-4.492-4.492V168.1a4.5 4.5 0 014.414-4.492h108.657a4.5 4.5 0 014.492 4.492z" fill="#fff"/><path d="M310.117 168.1v67.543a5.109 5.109 0 01-.078.843 18.1 18.1 0 01-1.087 1.93c-.144.221-.288.432-.432.643l-.011.011a4.423 4.423 0 01-2.884 1.065h-68.109a8.333 8.333 0 01-1.1-2.407c-.887-3.216.444-6.71 2.562-9.294s4.969-4.448 7.675-6.411a101.965 101.965 0 0012.422-10.6c5.678-5.678 11.013-13.12 9.715-21.05-1.1-6.732-6.687-11.767-12.288-15.66a166.49 166.49 0 00-19.077-11.1h68.2a4.5 4.5 0 014.492 4.487z" fill="#f0f3f5"/><path d="M310.9 168.1l-.012 17.859c.033 5.953-.168 11.906 0 17.859.076 5.954.213 11.907.186 17.86l.014 8.93-.015 4.464v.558l-.059.666a4.361 4.361 0 01-.318 1.317 5.341 5.341 0 01-1.577 2.168l.065-.059-.011.011-.028.028-.025.021a5.353 5.353 0 01-2.622 1.209 7.719 7.719 0 01-1.354.066h-1.207l-4.828-.021-9.657-.036-19.312-.062-38.624-.264-19.312-.033-9.657-.055-4.828-.006a11.618 11.618 0 01-1.258-.033 5.126 5.126 0 01-1.283-.327 4.993 4.993 0 01-3.065-4.041c-.062-.9-.023-1.637-.039-2.464l.007-4.828.024-9.656c0-6.437.081-12.875-.06-19.312s-.094-12.875-.139-19.312l-.037-9.656-.009-2.414a7.119 7.119 0 01.076-1.323 4.963 4.963 0 01.418-1.327 5.2 5.2 0 014.414-2.984l19.341-.1 19.314.117c12.875 0 25.751-.136 38.627.056 6.438.037 12.875-.03 19.313-.039l9.656-.054 2.415-.014a5.417 5.417 0 012.686.619 5.318 5.318 0 012.78 4.612zm-1.574 0a3.748 3.748 0 00-1.953-3.25 3.83 3.83 0 00-1.943-.439h-2.414l-9.656.021-19.31.065c-12.873.238-25.748.022-38.622-.011l-19.311-.059c-6.424-.054-12.9-.171-19.283-.1a3.767 3.767 0 00-3.179 2.172 3.537 3.537 0 00-.3.956 5.779 5.779 0 00-.052 1.075l.015 2.414.056 9.656.052 9.656.014 4.828-.091 4.828c-.194 6.437-.017 12.875.033 19.312l.119 9.656c.013 1.61.055 3.219.044 4.828l-.01 1.207c0 .408-.009.823.012 1.1a3.524 3.524 0 00.676 1.74 3.615 3.615 0 001.474 1.175 3.689 3.689 0 00.918.253c.165.022.3.027.494.036l.6.008c1.61.029 3.219.031 4.828.02l9.657-.031q9.655-.008 19.312.056c6.437.054 12.874-.211 19.312-.092 6.437.035 12.875.265 19.312.207 6.437-.014 12.875.178 19.312.217 3.219.059 6.437.037 9.656.015l4.828-.025a21.744 21.744 0 002.322-.065 3.868 3.868 0 001.885-.89l-.031.029.011-.011.016-.017.023-.018a3.845 3.845 0 001.117-1.568 2.907 2.907 0 00.213-.939l.043-.49v-.558l-.024-4.464-.06-8.93c-.075-5.953.01-11.906.044-17.86.114-5.953-.1-11.906-.088-17.859z" fill="#0c1238"/><path d="M206.955 202.719a3.7 3.7 0 01.053 1.37 2.441 2.441 0 00-.107 1.37 3.05 3.05 0 01-.04 1.37 1.757 1.757 0 00.08.686 2.382 2.382 0 010 .685.906.906 0 01-1.766.12l-.036-.125a2.743 2.743 0 01-.034-1.37 4.764 4.764 0 01.1-1.37 3.314 3.314 0 00.034-1.37 3.008 3.008 0 01.075-.685 1.357 1.357 0 00-.161-.685.91.91 0 111.686-.618zm7.045.017a3.683 3.683 0 01.054 1.371 2.437 2.437 0 00-.108 1.369 3.027 3.027 0 01-.04 1.371 1.736 1.736 0 00.081.685 2.418 2.418 0 010 .685.906.906 0 01-1.766.12l-.036-.125a2.743 2.743 0 01-.034-1.37 4.766 4.766 0 01.1-1.37 3.331 3.331 0 00.033-1.37 3.138 3.138 0 01.075-.685 1.349 1.349 0 00-.161-.685.91.91 0 111.687-.618zm7.036.017a3.726 3.726 0 01.054 1.371 2.44 2.44 0 00-.108 1.37 3.051 3.051 0 01-.04 1.37 1.752 1.752 0 00.08.685 2.418 2.418 0 010 .685.906.906 0 01-1.767.12l-.036-.124a2.747 2.747 0 01-.034-1.371 4.8 4.8 0 01.1-1.369 3.319 3.319 0 00.034-1.371 3.005 3.005 0 01.075-.684 1.361 1.361 0 00-.161-.686.91.91 0 111.686-.617zm7.041.018a3.7 3.7 0 01.053 1.37 2.44 2.44 0 00-.107 1.37 3.037 3.037 0 01-.041 1.37 1.734 1.734 0 00.081.685 2.382 2.382 0 010 .685.906.906 0 01-1.766.121l-.036-.125a2.743 2.743 0 01-.034-1.37 4.764 4.764 0 01.1-1.37 3.331 3.331 0 00.033-1.37 3.067 3.067 0 01.076-.685 1.362 1.362 0 00-.162-.686.91.91 0 011.586-.894.935.935 0 01.1.277zm10.56.029a3.678 3.678 0 01.054 1.37 2.44 2.44 0 00-.108 1.37 3.022 3.022 0 01-.04 1.37 1.734 1.734 0 00.081.685 2.418 2.418 0 010 .685.906.906 0 01-1.766.121l-.036-.125a2.743 2.743 0 01-.034-1.37 4.764 4.764 0 01.1-1.37 3.332 3.332 0 00.033-1.37 3.125 3.125 0 01.075-.685 1.35 1.35 0 00-.161-.686.91.91 0 111.687-.617zm7.041.014a3.721 3.721 0 01.054 1.37 2.441 2.441 0 00-.108 1.37 3.05 3.05 0 01-.04 1.37 1.752 1.752 0 00.08.685 2.419 2.419 0 010 .685.907.907 0 01-1.767.121l-.036-.125a2.743 2.743 0 01-.034-1.37 4.8 4.8 0 01.1-1.37 3.314 3.314 0 00.034-1.37 3.008 3.008 0 01.075-.685 1.363 1.363 0 00-.161-.686.91.91 0 111.686-.617zm7.041.017a3.7 3.7 0 01.053 1.37 2.441 2.441 0 00-.107 1.37 3.036 3.036 0 01-.041 1.37 1.739 1.739 0 00.081.686 2.382 2.382 0 010 .685.906.906 0 01-1.766.12l-.036-.125a2.743 2.743 0 01-.034-1.37 4.766 4.766 0 01.1-1.37A3.331 3.331 0 00251 204.2a3.073 3.073 0 01.076-.685 1.358 1.358 0 00-.162-.685.91.91 0 011.586-.894.929.929 0 01.1.276zm7.04.017a3.726 3.726 0 01.054 1.371 2.437 2.437 0 00-.108 1.369 3.055 3.055 0 01-.04 1.371 1.754 1.754 0 00.08.685 2.418 2.418 0 010 .685.906.906 0 01-1.767.12l-.035-.124a2.724 2.724 0 01-.034-1.371 4.731 4.731 0 01.1-1.37 3.331 3.331 0 00.033-1.37 3.02 3.02 0 01.075-.685 1.359 1.359 0 00-.161-.685.91.91 0 111.687-.618zm10.561.026a3.7 3.7 0 01.053 1.37 2.45 2.45 0 00-.107 1.37 3.05 3.05 0 01-.04 1.37 1.757 1.757 0 00.08.686 2.418 2.418 0 010 .685.906.906 0 01-1.767.12l-.036-.125a2.743 2.743 0 01-.034-1.37 4.8 4.8 0 01.1-1.37 3.314 3.314 0 00.034-1.37 3.02 3.02 0 01.075-.685 1.357 1.357 0 00-.161-.685.91.91 0 111.686-.618zm6.655 0a3.7 3.7 0 01.053 1.37 2.441 2.441 0 00-.107 1.37 3.036 3.036 0 01-.041 1.37 1.739 1.739 0 00.081.686 2.418 2.418 0 010 .685.906.906 0 01-1.766.12l-.036-.125a2.743 2.743 0 01-.034-1.37 4.766 4.766 0 01.1-1.37 3.331 3.331 0 00.033-1.37 3.08 3.08 0 01.076-.685 1.358 1.358 0 00-.162-.685.91.91 0 111.687-.618zm7.425.035a3.721 3.721 0 01.054 1.37 2.44 2.44 0 00-.108 1.37 3.051 3.051 0 01-.04 1.37 1.752 1.752 0 00.08.685 2.419 2.419 0 010 .685.907.907 0 01-1.767.121l-.035-.125a2.72 2.72 0 01-.034-1.37 4.729 4.729 0 01.1-1.37 3.332 3.332 0 00.033-1.37 3.008 3.008 0 01.075-.685 1.361 1.361 0 00-.161-.686.91.91 0 111.687-.617zm7.042.017a3.7 3.7 0 01.053 1.37 2.441 2.441 0 00-.107 1.37 3.036 3.036 0 01-.041 1.37 1.753 1.753 0 00.081.685 2.382 2.382 0 010 .685.906.906 0 01-1.766.121l-.036-.125a2.743 2.743 0 01-.034-1.37 4.764 4.764 0 01.1-1.37 3.331 3.331 0 00.034-1.37 3.008 3.008 0 01.075-.685 1.363 1.363 0 00-.161-.686.91.91 0 111.585-.893.893.893 0 01.1.276z" fill="#0c1238"/><circle cx="282.185" cy="223.27" r="8.094" fill="#ffc04d" stroke="#ffc04d" stroke-linecap="round" stroke-linejoin="round"/><path d="M279.515 223.264a8.343 8.343 0 01-.718 3.383 19.091 19.091 0 01-1.784 3 8.546 8.546 0 01-6.4 2.534 8.366 8.366 0 01-6.11-2.841 8.542 8.542 0 01-1.824-2.83 11.937 11.937 0 01-.609-3.294 8.379 8.379 0 01.7-3.259 9.686 9.686 0 011.713-2.9 8.839 8.839 0 016.171-2.729 10.7 10.7 0 013.365.79 8 8 0 012.869 1.893l.529.685.469.719c.149.243.305.482.446.73l.385.766a8.683 8.683 0 01.798 3.353zm-1.574 0a7.551 7.551 0 00-.591-2.78 7.372 7.372 0 00-.694-1.239c-.148-.186-.32-.353-.474-.528l-.524-.47a9.168 9.168 0 00-2.264-1.62 6.7 6.7 0 00-2.742-.636 5.158 5.158 0 00-2.823.434 7.471 7.471 0 00-2.281 1.709 9.884 9.884 0 01-.964 1.049 2.654 2.654 0 00-.468.559c-.1.222-.191.446-.275.671a9.972 9.972 0 00-.3 2.816 4.7 4.7 0 00.459 2.747l.294.639c.113.207.244.4.344.617a4.13 4.13 0 00.878 1.11c.819.5 1.48 1.133 2.315 1.633a4.22 4.22 0 00.652.308l.7.167c.234.052.466.132.7.191l.729.13a5.061 5.061 0 002.892-.539 8.183 8.183 0 002.335-1.751l.52-.51.471-.561c.132-.205.292-.4.4-.614a7.045 7.045 0 00.247-.692 8.035 8.035 0 00.464-2.844z" fill="#0c1238"/><path fill="none" stroke="#fff" stroke-linejoin="round" stroke-width="2" d="M204.767 218.22l42.016.102m-42.033 6.632l16.353.04"/><ellipse cx="213.496" cy="183.635" rx="13.439" ry="11.153" transform="rotate(-.205 213.483 183.729)" fill="#ffc04d"/><path d="M209.076 179.051a5.048 5.048 0 011.129 2.162c.133.828.152 1.629.292 2.44a4.38 4.38 0 01-.409 2.4c-.16.372-.25.767-.376 1.159a4.352 4.352 0 01-.6 1.054.9.9 0 01-1.545-.885l.048-.118c.248-.614.516-1.168.8-1.741a18.573 18.573 0 00.386-1.863 3.224 3.224 0 00-.279-1.9c-.143-.291-.166-.63-.3-.933a2.035 2.035 0 00-.634-.764.911.911 0 111.044-1.493.928.928 0 01.17.154zm4.124-1.434a7.212 7.212 0 011.522 2.823c.227 1.07.3 2.128.438 3.2a6.274 6.274 0 01-.549 3.155c-.207.492-.353 1-.544 1.508a6.626 6.626 0 01-.823 1.37.9.9 0 01-1.516-.954l.042-.084c.407-.813.8-1.587 1.175-2.394a15.173 15.173 0 00.519-2.595 5.028 5.028 0 00-.418-2.633c-.187-.407-.266-.861-.465-1.273a3.482 3.482 0 00-.847-1.072.906.906 0 011.15-1.4.93.93 0 01.114.112zm3.838-1.341a9.284 9.284 0 011.9 3.44 29.68 29.68 0 01.579 3.906 8.086 8.086 0 01-.68 3.866l-.7 1.835a8.889 8.889 0 01-1.032 1.666.9.9 0 01-1.5-.992l.037-.067c.558-1 1.075-1.982 1.533-3.01a15.576 15.576 0 00.645-3.291 6.812 6.812 0 00-.553-3.327c-.232-.517-.364-1.079-.624-1.594a8.582 8.582 0 00-.462-.727 7.887 7.887 0 00-.591-.634.9.9 0 111.238-1.313.974.974 0 01.07.074z" fill="#fff"/><path d="M115.8 50.2a9.5 9.5 0 01-.914 4.3c-.886 1.178-1.154 2.714-2.162 3.912a8.877 8.877 0 01-3.77 2.5 12.423 12.423 0 01-4.437.7l-1.114-.085a20.617 20.617 0 01-1.1-.2c-.358-.1-.711-.221-1.059-.343l-1.012-.447c-.327-.167-.642-.356-.959-.535-.305-.2-.6-.415-.894-.622-.286-.222-.541-.485-.8-.729l-.715-.8a10.357 10.357 0 00-.663-.828l-.654-.831a9.2 9.2 0 01-.94-1.89 21.145 21.145 0 01-.751-4.105 9.665 9.665 0 01.927-4.033 15.967 15.967 0 00.816-1.927 5.48 5.48 0 01.491-.958l.68-.83a10.38 10.38 0 013.485-2.541 10.884 10.884 0 014.263-1.052c.369.039.739.059 1.1.12.362.082.72.18 1.073.273.7.224 1.389.44 2.071.7a8.86 8.86 0 013.654 2.351c.448.589.8 1.226 1.194 1.822l.561.916.512.95A10.887 10.887 0 01115.8 50.2zm-3.149 0a8.572 8.572 0 00-.7-3.078c-.107-.24-.234-.471-.357-.7l-.437-.653a5.533 5.533 0 00-.564-.551c-.219-.153-.438-.3-.633-.458a15.455 15.455 0 00-2.432-1.824 6.951 6.951 0 00-3.009-.766 15.283 15.283 0 00-1.618-.091 5.871 5.871 0 00-.8.16c-.255.1-.5.216-.75.319a8.465 8.465 0 00-2.451 2.021l-.5.6a1.687 1.687 0 01-.622.517 1.864 1.864 0 00-.607.576 5.4 5.4 0 00-.281.765 16.29 16.29 0 00-.086 3.157 5.818 5.818 0 01-.13.774 3.458 3.458 0 00.031.781 7.741 7.741 0 00.53 1.458l.321.7a7.1 7.1 0 01.369.683l.382.691a3 3 0 00.567.548 5.636 5.636 0 011.335.8 5.008 5.008 0 01.575.534c.2.163.4.373.62.527a3.641 3.641 0 00.715.382 6.1 6.1 0 01.788.172c.514.169 1.041.363 1.6.513a4.655 4.655 0 003.3-.6 10.182 10.182 0 002.561-2.11c.748-.735 1.8-1.462 1.859-2.664a10.324 10.324 0 00.421-3.183z" fill="#ffd57d"/></svg>