<svg xmlns="http://www.w3.org/2000/svg" viewBox="0 0 470 350" enable-background="new 0 0 470 350"><g><path opacity=".5" fill="#D5DAEA" stroke="#D5DAEA" stroke-width="3" stroke-linecap="round" stroke-linejoin="round" stroke-miterlimit="10" d="M374.76 264.65c-20.89-.57-41.79-1.32-62.68-1.7 1.97-.96 2.98-2.82 4.72-3.93 5.29-3.36 11.41-4.43 17.4-5.86 4.55-1.09 14.49-3.55 15.16-9.14.94-7.78-11.44-6.48-16.4-7.23-3.23-.49-7.13-1.55-7.9-4.73-.69-2.86 1.68-5.46 3.87-7.42 8.29-7.4 14.46-14.08 19.02-24.25 1.12-2.5 10.5-32.66 8.62-32.77 1.07.06 11.66.22 11.66.2 0 .09-.28 75.52-.28 75.52l6.81 21.31z"/><path fill="#D5DAEA" d="M329.6 92.58c1.22 1.01 2.36 2.12 3.42 3.29.84 1.38 2.35 2.13 3.47 3.28 1.1 1.16 1.96 2.52 2.86 3.83.85 1.35 1.57 2.77 2.4 4.12.7 1.42 1.43 2.84 1.97 4.33.51 1.5 1.14 2.95 1.44 4.52.16.78.47 1.5.73 2.24.16.36.23.75.32 1.13l.25 1.15.45 2.31c.09.78.32 1.53.48 2.3.36 1.53.34 3.11.5 4.66.03 1.56.64 3.1.64 4.68.09 3.15-.03 6.32-.46 9.46-.32 1.56-.9 3.04-1.25 4.58-.2.76-.32 1.55-.53 2.31-.24.75-.47 1.51-.79 2.24l-1.05 2.13c-.29.73-.62 1.45-.87 2.2-.56 1.48-1.26 2.89-1.89 4.35l-2.74-1.55c.64-1.35 1.34-2.67 1.94-4.03.29-.68.55-1.39.82-2.08.12-.35.25-.7.31-1.07.06-.37.13-.75.21-1.11.93-2.8 2.12-5.56 2.59-8.52.2-.72.45-1.44.59-2.18.15-.74.2-1.49.24-2.23.07-1.5-.14-3-.13-4.49-.03-.75-.2-1.48.08-2.24.09-.38.22-.76.19-1.13-.01-.37-.09-.74-.17-1.11-.35-1.48-.85-2.9-1.12-4.36-.06-.74.01-1.51-.15-2.24-.17-.72-.44-1.42-.64-2.14l-.55-2.16c-.18-.72-.31-1.47-.68-2.12-.35-.67-.79-1.29-1-2-.26-.69-.36-1.46-.55-2.2-.09-.37-.19-.74-.37-1.06-.18-.33-.4-.64-.54-.98-.28-.69-.5-1.43-.73-2.16-.57-1.41-1.41-2.68-2.37-3.85l-2.98-3.4c-.95-1.15-1.61-2.6-2.96-3.39-1.13-.99-2.28-1.95-3.43-2.9l2.05-2.41zM238.6 134.69c.01-1.08.02-2.17.09-3.25.12-1.08.14-2.17.34-3.23.63-2.1.36-4.32.75-6.49.81-4.31 2.66-8.33 4.65-12.18.97-1.94 2.16-3.78 3.46-5.52 1.26-1.76 2.66-3.42 4.19-4.95.74-.78 1.47-1.57 2.19-2.37.7-.82 1.56-1.48 2.34-2.21.79-.73 1.69-1.33 2.51-2.01.82-.69 1.67-1.34 2.5-2.01.81-.71 1.77-1.21 2.67-1.79.46-.28.91-.57 1.37-.83.47-.26.95-.49 1.41-.76.92-.55 1.87-1.02 2.76-1.66.44-.32.91-.6 1.38-.86.48-.25.98-.45 1.47-.68 1.95-.92 3.98-1.68 6.05-2.31 2.07-.62 4.16-1.24 6.3-1.6 2.16-.3 4.34-.21 6.49-.4 1.08-.02 2.16-.14 3.24-.13 1.08.04 2.17.02 3.24.18 2.14.45 4.26.74 6.4 1.04l3.19.59 3.16.77-.97 3-2.96-.8-3-.64c-1-.19-2.02-.29-3.03-.44-1.02-.1-2.05-.01-3.06-.04-1.02-.02-2.03-.07-3.04-.15-1.01-.08-2.03-.08-3.05-.13-2.04-.04-4.07.19-6.1.44-.51.03-1.02.1-1.53.15l-1.53.17c-1.03.11-2 .48-2.98.76-.99.25-1.92.72-2.87 1.09-.96.35-1.86.85-2.8 1.24-.95.37-1.8.94-2.85 1.12-.51.13-1.03.23-1.48.47-.44.26-.87.55-1.3.83-.86.56-1.67 1.2-2.44 1.88-.39.34-.8.64-1.2.95-.2.15-.4.31-.59.48l-.61.45c-.84.57-1.83.96-2.56 1.68-.76.68-1.55 1.32-2.25 2.07-.74.7-1.49 1.39-2.21 2.1-.73.71-1.55 1.35-2.08 2.24l-.82 1.3c-.31.4-.58.83-.92 1.21l-2.06 2.28c-.32.4-.66.79-.94 1.22-.28.43-.47.91-.76 1.33-.58.85-1.21 1.67-1.78 2.54-.61.85-1.08 1.77-1.47 2.73-.45.93-.74 1.93-1.03 2.92-.63 1.97-.99 4.01-1.44 6.01-.48 1.98-1.28 3.95-1.13 6.05l-.12 3.08c0 1.03.02 2.05 0 3.07h-3.19zM295.62 94.14c1.34-1.02 2.74-1.98 4.12-2.94 1.39-.95 2.8-1.87 4.26-2.73 1.45-.87 2.97-1.63 4.39-2.53 1.44-.87 2.81-1.87 4.16-2.87l-.48 2.37c-1.01-1.35-2-2.72-2.89-4.15-.9-1.43-1.75-2.89-2.62-4.33-.43-.73-.93-1.41-1.4-2.11l-1.53-2.02c-.52-.67-.96-1.39-1.43-2.09s-.93-1.4-1.36-2.13l3.01-1.99c.53.66 1.02 1.34 1.51 2.03.49.69 1 1.36 1.46 2.07.48.7.91 1.42 1.36 2.13.43.72.83 1.47 1.31 2.17l2.79 4.22c.96 1.39 1.74 2.89 2.62 4.33l.93 1.52-1.41.81c-1.46.84-2.92 1.69-4.32 2.64-1.4.94-2.76 1.94-4.15 2.89-1.36 1-2.88 1.75-4.3 2.66-1.4.93-2.78 1.91-4.04 3.06l-1.99-3.01z"/><path fill="#0C1238" d="M376.02 265.59c-7.34-.09-14.69-.15-22.11-.29-7.53-.34-14.7-.09-22.12-.04-3.7.01-7.44-.11-11.15-.17l-5.58-.13-5.5-.19-21.72-.72h-.02c-.94-.03-1.67-.81-1.65-1.75l.29-11.85.38-11.85c.25-7.9.51-15.8.84-23.7.18-3.95.19-7.9.26-11.85l.31-11.85.37-11.85.13-11.86c.01-.53.44-.95.97-.95l19.64.16c6.54.19 13.09-.33 19.64-.32l19.64-.11 19.64-.06c.86 0 1.56.69 1.56 1.55v.03c0 3.15.05 6.29 0 9.44l-.17 9.44c-.17 6.29-.11 12.59-.1 18.88 0 6.29.07 12.59-.14 18.88-.2 6.29-.2 12.59-.15 18.88l-.06-.4c1.23 3.71 2.44 7.49 3.58 11.3 1.11 3.82 2.18 7.63 3.22 11.38zm-2.52-1.89l-3.75-9.99c-1.2-3.28-2.32-6.55-3.4-9.88-.05-.16-.08-.33-.08-.49v-.02c0-6.29.03-12.59-.17-18.88-.18-6.29-.03-12.59.04-18.88.11-6.29.25-12.59.28-18.88l.09-9.44c.04-3.15.16-6.29.23-9.44l1.48 1.5c-3.27-.06-6.54-.22-9.81-.19l-9.82.09-19.63.19c-3.27.08-6.54-.03-9.82-.27-1.64-.12-3.27-.13-4.91-.15l-4.91.07-19.63.49 2.01-1.97c-.03 1.98-.09 3.95-.2 5.92l-.27 5.92c-.08 3.95-.12 7.9-.16 11.85-.07 3.95-.14 7.9-.26 11.85l-.2 5.92-.08 2.96.03 2.96c.28 7.91-.25 15.81-.66 23.7-.25 3.95-.14 7.9-.35 11.85l-.58 11.85-1.06-1.11 5.43.26 5.43.1 5.43.1 5.43.04c7.22.07 14.24.09 21.34.34 7.08.31 14.35.82 21.3.83 7.04.23 14.14.53 21.23.8z"/><path fill="#8891EA" stroke="#8891EA" stroke-width="3" stroke-linecap="round" stroke-linejoin="round" stroke-miterlimit="10" d="M145.79 121.99l145.41 8.76-4 151.75h-143.41z"/><path fill="#5053AB" stroke="#5053AB" stroke-width="3" stroke-linecap="round" stroke-linejoin="round" stroke-miterlimit="10" d="M185.87 245.52h91.82v22.95h-91.82z"/><path fill="#fff" d="M224.87 146.05h48.46v55.07h-48.46zM274.28 202.07l-24.62.41c-8.27.07-16.55.12-24.8.09h-.02c-.8 0-1.45-.65-1.44-1.45v-.01l.23-27.53.05-6.88-.03-6.88-.07-13.77c0-.7.56-1.28 1.27-1.28h.01c8.08-.02 16.15-.14 24.23-.09l24.23.12h.01c.68 0 1.23.56 1.23 1.24l-.04 14 .03 14.05c.02 4.7-.04 9.37-.1 14.03l-.17 13.95zm-1.91-1.91c-.14-9.11-.38-18.19-.44-27.15-.03-4.49-.07-8.98-.05-13.47l.03-13.49 1.41 1.41h-24.23c-8.08.01-16.15-.1-24.23-.15l1.26-1.26-.09 13.77-.05 6.88.02 6.88.09 27.53-1.23-1.23 11.9.08 11.91.12 23.7.08z"/><path fill="#0C1238" d="M153.71 268.33c1.3-1.16 2.63-2.28 4.09-3.24.72-.49 1.51-.89 2.21-1.4.72-.49 1.38-1.06 2.03-1.65.65-.59 1.3-1.16 2.01-1.66.71-.51 1.44-.98 2.16-1.47.74-.46 1.35-1.1 2-1.68.31-.3.68-.55 1.02-.82.34-.27.69-.53 1.05-.77l1.64 2.15c-.63.61-1.29 1.17-1.97 1.72-.67.55-1.44.98-2.14 1.5-1.37 1.08-2.74 2.14-4.23 3.06-.74.47-1.47.94-2.16 1.48-.69.52-1.33 1.13-2.01 1.66-.66.57-1.44.98-2.14 1.49-.69.53-1.35 1.1-1.92 1.78l-1.64-2.15zM153.71 253.53c1.3-1.16 2.63-2.28 4.09-3.24.72-.49 1.51-.89 2.21-1.4.72-.49 1.38-1.06 2.03-1.65.65-.59 1.3-1.16 2.01-1.66.71-.51 1.44-.98 2.16-1.47.74-.46 1.35-1.1 2-1.68.31-.3.68-.55 1.02-.82.34-.27.69-.53 1.05-.77l1.64 2.15c-.63.61-1.29 1.17-1.97 1.72-.67.55-1.44.98-2.14 1.5-1.37 1.08-2.74 2.14-4.23 3.06-.74.47-1.47.94-2.16 1.48-.69.52-1.33 1.13-2.01 1.66-.66.57-1.44.98-2.14 1.49-.69.53-1.35 1.1-1.92 1.78l-1.64-2.15zM153.71 238.73c1.3-1.16 2.63-2.28 4.09-3.24.72-.49 1.51-.89 2.21-1.4.72-.49 1.38-1.06 2.03-1.65.65-.59 1.3-1.16 2.01-1.66.71-.51 1.44-.98 2.16-1.47.74-.46 1.35-1.1 2-1.68.31-.3.68-.55 1.02-.82.34-.27.69-.53 1.05-.77l1.64 2.15c-.63.61-1.29 1.17-1.97 1.72-.67.55-1.44.98-2.14 1.5-1.37 1.08-2.74 2.14-4.23 3.06-.74.47-1.47.94-2.16 1.48-.69.52-1.33 1.13-2.01 1.66-.66.57-1.44.98-2.14 1.49-.69.53-1.35 1.1-1.92 1.78l-1.64-2.15zM153.71 223.93c1.3-1.16 2.63-2.28 4.09-3.24.72-.49 1.51-.89 2.21-1.4.72-.49 1.38-1.06 2.03-1.65.65-.59 1.3-1.16 2.01-1.66.71-.51 1.44-.98 2.16-1.47.74-.46 1.35-1.1 2-1.68.31-.3.68-.55 1.02-.82.34-.27.69-.53 1.05-.77l1.64 2.15c-.63.61-1.29 1.17-1.97 1.72-.67.55-1.44.98-2.14 1.5-1.37 1.08-2.74 2.14-4.23 3.06-.74.47-1.47.94-2.16 1.48-.69.52-1.33 1.13-2.01 1.66-.66.57-1.44.98-2.14 1.49-.69.53-1.35 1.1-1.92 1.78l-1.64-2.15zM153.71 209.13c1.3-1.16 2.63-2.28 4.09-3.24.72-.49 1.51-.89 2.21-1.4.72-.49 1.38-1.06 2.03-1.65.65-.59 1.3-1.16 2.01-1.66.71-.51 1.44-.98 2.16-1.47.74-.46 1.35-1.1 2-1.68.31-.3.68-.55 1.02-.82.34-.27.69-.53 1.05-.77l1.64 2.15c-.63.61-1.29 1.17-1.97 1.72-.67.55-1.44.98-2.14 1.5-1.37 1.08-2.74 2.14-4.23 3.06-.74.47-1.47.94-2.16 1.48-.69.52-1.33 1.13-2.01 1.66-.66.57-1.44.98-2.14 1.49-.69.53-1.35 1.1-1.92 1.78l-1.64-2.15zM153.71 194.34c1.3-1.16 2.63-2.28 4.09-3.24.72-.49 1.51-.89 2.21-1.4.72-.49 1.38-1.06 2.03-1.65.65-.59 1.3-1.16 2.01-1.66.71-.51 1.44-.98 2.16-1.47.74-.46 1.35-1.1 2-1.68.31-.3.68-.55 1.02-.82.34-.27.69-.53 1.05-.77l1.64 2.15c-.63.61-1.29 1.17-1.97 1.72-.67.55-1.44.98-2.14 1.5-1.37 1.08-2.74 2.14-4.23 3.06-.74.47-1.47.94-2.16 1.48-.69.52-1.33 1.13-2.01 1.66-.66.57-1.44.98-2.14 1.49-.69.53-1.35 1.1-1.92 1.78l-1.64-2.15zM153.71 179.54c1.3-1.16 2.63-2.28 4.09-3.24.72-.49 1.51-.89 2.21-1.4.72-.49 1.38-1.06 2.03-1.65.65-.59 1.3-1.16 2.01-1.66.71-.51 1.44-.98 2.16-1.47.74-.46 1.35-1.1 2-1.68.31-.3.68-.55 1.02-.82.34-.27.69-.53 1.05-.77l1.64 2.15c-.63.61-1.29 1.17-1.97 1.72-.67.55-1.44.98-2.14 1.5-1.37 1.08-2.74 2.14-4.23 3.06-.74.47-1.47.94-2.16 1.48-.69.52-1.33 1.13-2.01 1.66-.66.57-1.44.98-2.14 1.49-.69.53-1.35 1.1-1.92 1.78l-1.64-2.15zM153.71 164.74c1.3-1.16 2.63-2.28 4.09-3.24.72-.49 1.51-.89 2.21-1.4.72-.49 1.38-1.06 2.03-1.65.65-.59 1.3-1.16 2.01-1.66.71-.51 1.44-.98 2.16-1.47.74-.46 1.35-1.1 2-1.68.31-.3.68-.55 1.02-.82.34-.27.69-.53 1.05-.77l1.64 2.15c-.63.61-1.29 1.17-1.97 1.72-.67.55-1.44.98-2.14 1.5-1.37 1.08-2.74 2.14-4.23 3.06-.74.47-1.47.94-2.16 1.48-.69.52-1.33 1.13-2.01 1.66-.66.57-1.44.98-2.14 1.49-.69.53-1.35 1.1-1.92 1.78l-1.64-2.15zM153.71 149.94c1.3-1.16 2.63-2.28 4.09-3.24.72-.49 1.51-.89 2.21-1.4.72-.49 1.38-1.06 2.03-1.65.65-.59 1.3-1.16 2.01-1.66.71-.51 1.44-.98 2.16-1.47.74-.46 1.35-1.1 2-1.68.31-.3.68-.55 1.02-.82.34-.27.69-.53 1.05-.77l1.64 2.15c-.63.61-1.29 1.17-1.97 1.72-.67.55-1.44.98-2.14 1.5-1.37 1.08-2.74 2.14-4.23 3.06-.74.47-1.47.94-2.16 1.48-.69.52-1.33 1.13-2.01 1.66-.66.57-1.44.98-2.14 1.49-.69.53-1.35 1.1-1.92 1.78l-1.64-2.15z"/><path fill="#FFC04D" d="M231.13 172.57c3.5-1.16 6.73-3.06 9.51-5.46 1.4-1.18 2.69-2.51 3.83-3.95 1.12-1.44 2.17-3.01 2.88-4.54.72-1.54 1.14-3.23.89-4.59-.12-.67-.42-1.3-.83-1.77-.43-.46-1.02-.81-1.71-1.01-1.38-.38-3.1-.14-4.19.79-1.17.96-1.91 2.45-2.15 4.07-.53 3.26 1.2 6.57 3.68 9.16 2.44 2.68 5.52 4.85 8.89 5.52 1.64.31 3.36.22 5-.33 1.62-.57 3.17-1.48 4.4-2.72 2.48-2.45 3.97-5.87 3.66-9.13l1.82 1.66c-1.9-.01-3.8-.04-5.71-.1-1-.03-1.78-.86-1.75-1.86.03-.96.8-1.72 1.75-1.75h.03c1.9-.05 3.8-.07 5.71-.08l1.72-.01.19 1.76c.25 2.31-.12 4.67-1.03 6.75s-2.26 3.92-3.91 5.43c-1.64 1.52-3.62 2.64-5.76 3.35-2.13.72-4.49.95-6.75.56-2.22-.39-4.29-1.27-6.12-2.43-1.83-1.16-3.45-2.55-4.88-4.12-1.41-1.6-2.65-3.42-3.47-5.5-.82-2.06-1.15-4.45-.73-6.71.4-2.25 1.54-4.48 3.47-5.97 2-1.49 4.51-2.02 6.9-1.45 1.19.3 2.36.9 3.28 1.83.9.95 1.49 2.11 1.77 3.33.52 2.46-.08 4.73-.9 6.73-.4 1.01-.99 1.95-1.55 2.8-.57.87-1.19 1.7-1.84 2.51-1.31 1.61-2.77 3.08-4.36 4.4-1.58 1.32-3.24 2.57-5.04 3.6-.89.53-1.82 1-2.76 1.43-.94.45-1.9.86-2.88 1.23-.93.35-1.97-.12-2.32-1.05s.12-1.97 1.05-2.32l.06-.02.15-.04z"/><g fill="#D5DAEA"><path d="M230.51 186.86l36.98-2.55"/><path d="M230.44 185.96c3.08-.29 6.15-.55 9.24-.69l4.63-.18c1.54-.05 3.08-.24 4.62-.36 3.07-.32 6.16-.48 9.25-.6 1.54-.07 3.08-.24 4.62-.4 1.54-.15 3.08-.21 4.62-.32l.12 1.8c-3.07.32-6.15.57-9.24.67-3.08.23-6.16.45-9.25.54-3.09.1-6.17.34-9.25.61-1.54.13-3.09.15-4.63.25-.77.02-1.54.14-2.31.2-.77.07-1.54.15-2.3.27l-.12-1.79z"/></g><g fill="#D5DAEA"><path d="M230.51 194.51l36.98-2.55"/><path d="M230.44 193.61c3.08-.29 6.15-.55 9.24-.69l4.63-.18c1.54-.05 3.08-.24 4.62-.36 3.07-.32 6.16-.48 9.25-.6 1.54-.07 3.08-.24 4.62-.4 1.54-.15 3.08-.21 4.62-.32l.12 1.8c-3.07.32-6.15.57-9.24.67-3.08.23-6.16.45-9.25.54-3.09.1-6.17.34-9.25.61-1.54.13-3.09.15-4.63.25-.77.02-1.54.14-2.31.2-.77.07-1.54.15-2.3.27l-.12-1.79z"/></g><path fill="#D5DAEA" d="M119.56 274.34c-2.92.11-5.92-.97-8.06-3.03-2.15-2.03-3.44-5.02-3.35-7.98.03-1.47.36-2.93.95-4.26.59-1.33 1.46-2.52 2.46-3.53 2.03-2.01 4.79-3.29 7.7-3.42 2.88-.15 5.91.94 7.94 3.06 2.08 2.06 3.25 4.98 3.2 7.86-.02 1.42-.24 2.9-.79 4.22-.47 1.34-1.22 2.64-2.21 3.7-1.97 2.18-4.94 3.35-7.84 3.38zm-.05-3.6c.99-.07 1.96-.31 2.83-.73.88-.43 1.64-1.03 2.32-1.71.67-.7 1.21-1.48 1.6-2.39.41-.89.66-1.82.64-2.82-.03-1.97-.87-3.88-2.27-5.25-.71-.67-1.53-1.24-2.42-1.65-.9-.41-1.88-.63-2.89-.67-1.99-.04-4.1.68-5.51 2.21-1.43 1.49-2.2 3.54-2.12 5.57.08 2.01.75 4.07 2.24 5.54 1.47 1.45 3.61 2.09 5.58 1.9zM119.56 192.73c-2.92.11-5.92-.97-8.06-3.03-2.15-2.03-3.44-5.02-3.35-7.98.03-1.47.36-2.93.95-4.26.59-1.33 1.46-2.52 2.46-3.53 2.03-2.01 4.79-3.29 7.7-3.42 2.88-.15 5.91.94 7.94 3.06 2.08 2.06 3.25 4.98 3.2 7.86-.02 1.42-.24 2.9-.79 4.22-.47 1.34-1.22 2.64-2.21 3.7-1.97 2.17-4.94 3.35-7.84 3.38zm-.05-3.6c.99-.07 1.96-.31 2.83-.73.88-.43 1.64-1.03 2.32-1.71.67-.7 1.21-1.48 1.6-2.39.41-.89.66-1.82.64-2.82-.03-1.97-.87-3.88-2.27-5.25-.71-.67-1.53-1.24-2.42-1.65-.9-.41-1.88-.63-2.89-.67-1.99-.04-4.1.68-5.51 2.21-1.43 1.49-2.2 3.54-2.12 5.57.08 2.01.75 4.07 2.24 5.54 1.47 1.44 3.61 2.08 5.58 1.9zM119.56 151.92c-2.92.11-5.92-.97-8.06-3.03-2.15-2.03-3.44-5.02-3.35-7.98.03-1.47.36-2.93.95-4.26.59-1.33 1.46-2.52 2.46-3.53 2.03-2.01 4.79-3.29 7.7-3.42 2.88-.15 5.91.94 7.94 3.06 2.08 2.06 3.25 4.98 3.2 7.86-.02 1.42-.24 2.9-.79 4.22-.47 1.34-1.22 2.64-2.21 3.7-1.97 2.18-4.94 3.35-7.84 3.38zm-.05-3.6c.99-.07 1.96-.31 2.83-.73.88-.43 1.64-1.03 2.32-1.71.67-.7 1.21-1.49 1.6-2.39.41-.89.66-1.82.64-2.82-.03-1.97-.87-3.88-2.27-5.25-.71-.67-1.53-1.24-2.42-1.65-.9-.41-1.88-.63-2.89-.67-1.99-.04-4.1.68-5.51 2.21-1.43 1.49-2.2 3.54-2.12 5.57.08 2.01.75 4.07 2.24 5.54 1.47 1.44 3.61 2.08 5.58 1.9zM117.56 254.44c-.17-1.91-.28-3.83-.11-5.74.07-.96.28-1.91.31-2.87.07-.96-.01-1.91-.1-2.87-.1-.96-.17-1.91-.13-2.87.04-.96.14-1.91.2-2.87.1-.96-.06-1.91-.18-2.87-.06-.96-.07-1.91.01-2.87h3.6c.08.48.11.96.15 1.43.03.48.09.96.08 1.43.01.48-.02.96-.04 1.43-.04.48-.12.96-.1 1.43l.02 2.87c0 .96-.1 1.91-.21 2.87-.11.96-.2 1.91-.18 2.87-.01.96.12 1.91.13 2.87.07.96-.13 1.91-.16 2.87 0 .96.07 1.91.33 2.87h-3.62zM117.56 213.64c-.17-1.91-.28-3.83-.11-5.74.07-.96.28-1.91.31-2.87.07-.96-.01-1.91-.1-2.87-.1-.96-.17-1.91-.13-2.87.04-.96.14-1.91.2-2.87.1-.96-.06-1.91-.18-2.87-.06-.96-.07-1.91.01-2.87h3.6c.08.48.11.96.15 1.43.03.48.09.96.08 1.43.01.48-.02.96-.04 1.43-.04.48-.12.96-.1 1.43l.02 2.87c0 .96-.1 1.91-.21 2.87-.11.96-.2 1.91-.18 2.87-.01.96.12 1.91.13 2.87.07.96-.13 1.91-.16 2.87 0 .96.07 1.91.33 2.87h-3.62zM117.56 172.83c-.17-1.91-.28-3.83-.11-5.74.07-.96.28-1.91.31-2.87.07-.96-.01-1.91-.1-2.87-.1-.96-.17-1.91-.13-2.87.04-.96.14-1.91.2-2.87.1-.96-.06-1.91-.18-2.87-.06-.96-.07-1.91.01-2.87h3.6c.08.48.11.96.15 1.43.03.48.09.96.08 1.43.01.48-.02.96-.04 1.43-.04.48-.12.96-.1 1.43l.02 2.87c0 .96-.1 1.91-.21 2.87-.11.96-.2 1.91-.18 2.87-.01.96.12 1.91.13 2.87.07.96-.13 1.91-.16 2.87 0 .96.07 1.91.33 2.87h-3.62z"/><path fill="#FFC04D" d="M119.53 231.73c-5.16.07-9.41-4.07-9.48-9.23-.03-2.48.91-4.76 2.47-6.45 1.68-1.83 4.09-2.99 6.77-3.03 5.16-.07 9.41 4.07 9.48 9.23.02 1.22-.2 2.39-.63 3.47-1.32 3.47-4.67 5.96-8.61 6.01zM119.56 233.54c-2.92.11-5.92-.97-8.06-3.03-2.15-2.03-3.44-5.02-3.35-7.98.03-1.47.36-2.93.95-4.26.59-1.33 1.46-2.52 2.46-3.53 2.03-2.01 4.79-3.29 7.7-3.42 2.88-.15 5.91.94 7.94 3.06 2.08 2.06 3.25 4.98 3.2 7.86-.02 1.42-.24 2.9-.79 4.22-.47 1.34-1.22 2.64-2.21 3.7-1.97 2.17-4.94 3.35-7.84 3.38zm-.05-3.61c.99-.07 1.96-.31 2.83-.73.88-.43 1.64-1.03 2.32-1.71.67-.7 1.21-1.48 1.6-2.39.41-.89.66-1.82.64-2.82-.03-1.97-.87-3.88-2.27-5.25-.71-.67-1.53-1.24-2.42-1.65-.9-.41-1.88-.63-2.89-.67-1.99-.04-4.1.68-5.51 2.21-1.43 1.49-2.2 3.54-2.12 5.57.08 2.01.75 4.07 2.24 5.54 1.47 1.45 3.61 2.09 5.58 1.9z"/><path fill="#0C1238" d="M300.12 169c-.14-6.48 1.2-13.14 4.58-18.89 1.72-2.84 3.98-5.4 6.74-7.39 2.74-1.97 6.08-3.37 9.62-3.48 3.51-.02 7.06 1.17 9.74 3.31 2.74 2.08 4.81 4.8 6.37 7.69l1.12 2.2c.35.74.64 1.5.97 2.25.62 1.51 1.18 3.05 1.59 4.63.24.78.41 1.58.53 2.39.15.8.29 1.61.35 2.42.07.81.21 1.62.22 2.43l.04 2.44c.02.99-.77 1.81-1.77 1.83-.95.02-1.74-.71-1.82-1.64l-.02-.19c-.13-1.49-.19-2.97-.42-4.44-.07-.74-.22-1.46-.37-2.19-.15-.72-.26-1.45-.46-2.16-.31-1.44-.76-2.84-1.26-4.22-.27-.68-.5-1.38-.79-2.05-.32-.66-.62-1.33-.97-1.96-2.84-5.04-7.57-9.08-13.06-9.35-2.71-.03-5.49.84-7.75 2.59-2.28 1.72-4.13 4.06-5.53 6.63-1.39 2.58-2.61 5.32-3.32 8.23-.68 2.91-.96 5.93-.72 8.92.08.99-.66 1.86-1.66 1.94s-1.86-.66-1.94-1.66l-.01-.1v-.18z"/></g></svg>