<svg xmlns="http://www.w3.org/2000/svg" viewBox="0 0 64 52"><title>blog-card-illos-big</title><path d="M33.06 49.71l3.38-2.25a6 6 0 0 1 3.33-1H59a2 2 0 0 0 2-2V5a2 2 0 0 0-2-2H39.77a6 6 0 0 0-3.33 1L32 7l-4.49-3a6 6 0 0 0-3.33-1H5a2 2 0 0 0-2 2v39.4a2 2 0 0 0 2 2h19.14a6 6 0 0 1 3.33 1l3.38 2.25a2 2 0 0 0 2.21.06z" fill="#fff"/><path d="M61.82 4.74a3.2 3.2 0 0 0-.11-.55 2.89 2.89 0 0 0-2.5-2h-1.65L56 2.1a61.26 61.26 0 0 0-6.29 0c-1 .09-2.1.28-3.14.29a14.71 14.71 0 0 1-3.14-.26 16.92 16.92 0 0 0-3.14 0 8.51 8.51 0 0 0-1.71.24 6.78 6.78 0 0 0-1.66.63 12.69 12.69 0 0 0-1.39.93c-.42.32-.86.6-1.3.88-.72.49-1.48.92-2.23 1.36q-1.11-.83-2.26-1.59l-1.35-.88a9.11 9.11 0 0 0-1.51-.87 6.31 6.31 0 0 0-1.75-.47 6.79 6.79 0 0 0-.9 0h-.81c-1.07 0-2.14.06-3.22.12a48.32 48.32 0 0 1-6.43 0c-2.14-.18-4.29-.25-6.43-.28L4.9 2.11a2.79 2.79 0 0 0-1.15.24A3 3 0 0 0 2.19 4 3.16 3.16 0 0 0 2 5.16V6c0 2.14.06 4.29.24 6.43.24 4.29-.14 8.58-.1 12.86.32 4.29-.41 8.58.08 12.86.13 2.16-.31 4.24-.11 6.48a3 3 0 0 0 1 1.93 3.3 3.3 0 0 0 1 .55 3 3 0 0 0 .54.14l.49.05a18.16 18.16 0 0 0 3.22.19c2.14-.1 4.29-.28 6.43-.27s4.29.21 6.43 0a29.37 29.37 0 0 1 3.18-.12 5.09 5.09 0 0 1 2.64 1c.86.64 1.76 1.22 2.65 1.82l.67.45a2.89 2.89 0 0 0 1 .44 2.82 2.82 0 0 0 2.15-.4l2.59-1.79c.44-.3.86-.61 1.24-.83a5.39 5.39 0 0 1 1.28-.52 5.56 5.56 0 0 1 1.38-.19h1.57c1 0 2.1.11 3.14 0S46.85 47 47.9 47H51l6.29.12h1.57a2.68 2.68 0 0 0 1.92-.72 2.64 2.64 0 0 0 .81-1.9l-.08-1.59c-.13-2.1-.12-4.19-.08-6.29.06-4.19-.09-8.38 0-12.57 0-1 0-2.1.07-3.14s.11-2.1.15-3.14a24.64 24.64 0 0 0-.11-3.14 14.86 14.86 0 0 1 0-1.57c0-.52.15-1 .16-1.57l.07-6.29v-.46zm-34 42.14a6.8 6.8 0 0 0-3.37-1c-1.12 0-2.16 0-3.24-.06-2.14-.13-4.29 0-6.43.06l-3.22-.06c-1.07 0-2.14-.11-3.22-.13a21.15 21.15 0 0 0-3.22.12 1.3 1.3 0 0 1-1.52-1.29c.14-2.08-.08-4.27 0-6.4.53-4.29-.14-8.58.21-12.86 0-4.29-.37-8.58-.25-12.86.12-2.14.18-4.29.12-6.43a12.26 12.26 0 0 1 .06-1.35 1.29 1.29 0 0 1 .67-.75 1.39 1.39 0 0 1 .5-.13l2.4-.07c4.29-.08 8.62-.3 12.86-.28h3.22a10.23 10.23 0 0 1 1.61.1 5.67 5.67 0 0 1 1.44.42 7.91 7.91 0 0 1 1.32.79l1.33.9c.89.6 1.37.87 2.28 1.45 0 1.79-.13 3.58-.11 5.37 0 .9.17 1.79.19 2.69s-.07 1.79-.13 2.69l-.08 1.34a6.38 6.38 0 0 0 .06.67 5.15 5.15 0 0 1 0 .67c-.06.9-.21 1.79-.27 2.69a51 51 0 0 0 .14 5.38l.07 10.75v2.69S31 43.77 31 44.67c0 1.43.05 2.87.09 4.3l-.58-.38c-.86-.59-1.75-1.17-2.68-1.71zm32.45-32.23a25.27 25.27 0 0 0-.17 3.14c0 1 .1 2.1.13 3.14s0 2.1 0 3.14v3.14l-.11 3.14-.12 3.16c0 1-.06 2.1 0 3.14a52.29 52.29 0 0 1 .08 6.29L60 44.48a1.1 1.1 0 0 1-.35.72 1.12 1.12 0 0 1-.77.32h-1.57l-6.29.2c-1 0-2.1.1-3.14.07s-2.1-.12-3.14-.15a29.13 29.13 0 0 0-3.14.06h-1.57a7.52 7.52 0 0 0-1.71.13 6.81 6.81 0 0 0-1.67.56 15.59 15.59 0 0 0-1.41.87L32.72 49c-.06-1.44-.09-2.87-.09-4.31l.12-2.69v-2.69c-.14-3.58-.27-7.17-.35-10.75 0-1.79.26-3.58.26-5.37V20.5a6.58 6.58 0 0 1 0-.67c0-.22.08-.45.1-.67v-1.34c.21-3.58-.21-7.17-.29-10.75l2.2-1.49c.43-.3.86-.6 1.31-.86a9.56 9.56 0 0 1 1.4-.72 5.82 5.82 0 0 1 2.9-.39c1 0 2.1.07 3.14 0a34.35 34.35 0 0 1 6.29.07c2.1.15 4.19.05 6.29.08h3.08a1.3 1.3 0 0 1 .87.48 1.28 1.28 0 0 1 .23.44 1.65 1.65 0 0 1 0 .25v6.61c0 .52.1 1 .12 1.57a15.34 15.34 0 0 1-.03 1.54z"/><path d="M26.3 12.41a2.43 2.43 0 0 0-2.51-2.34L17.28 10c-1.08-.06-2.17.08-3.26 0s-2.14-.11-3.28-.1a2.29 2.29 0 0 0-1.54.86 2.44 2.44 0 0 0-.51 1.67v3.25l-.09 3.25a2.44 2.44 0 0 0 .61 1.77 2.41 2.41 0 0 0 1.74.79c2.18 0 4.34.09 6.51.05s4.34-.06 6.51-.08a2.37 2.37 0 0 0 1.71-.77 2.42 2.42 0 0 0 .62-1.73v-1.63l.05-1.63c0-1.11-.04-2.18-.05-3.29z" fill="#ffd57d"/><path d="M21 16c-1 3-2 5-6 5-1.26 0-.53.2 1.06.47h1.43c2.17-.18 4.34-.06 6.51-.08a2.37 2.37 0 0 0 1.71-.77 2.42 2.42 0 0 0 .62-1.73v-1.63l.05-1.63V13c-2.02.08-4.53.35-5.38 3z" fill="#ffc04d"/><path d="M10 27.65a37 37 0 0 1 4 0h.5a2.42 2.42 0 0 0 .5.06h1c.67 0 1.33.13 2 .13 1.33 0 2.67-.1 4-.17a12.27 12.27 0 0 1 2 0c.67 0 1.33 0 2-.07a.4.4 0 1 1 0 .8l-2 .06c-.67 0-1.33-.12-2-.07h-4a16.27 16.27 0 0 1-2 .07l-1-.13a1.44 1.44 0 0 0-.5 0H14c-.33 0-.67-.06-1-.07s-.67.1-1 .1h-2a.4.4 0 0 1-.44-.36.4.4 0 0 1 .44-.35zM38 21.65a37 37 0 0 1 4 0h.5a2.42 2.42 0 0 0 .5.06h1c.67 0 1.33.13 2 .13 1.33 0 2.67-.1 4-.17a12.27 12.27 0 0 1 2 0c.67 0 1.33 0 2-.07a.4.4 0 1 1 0 .8l-2 .06c-.67 0-1.33-.12-2-.07h-4a16.27 16.27 0 0 1-2 .07l-1-.13a1.44 1.44 0 0 0-.5 0H42c-.33 0-.67-.06-1-.07s-.67.1-1 .1h-2a.4.4 0 0 1-.39-.41.4.4 0 0 1 .39-.3zM10 32.65a37 37 0 0 1 4 0h.5a2.42 2.42 0 0 0 .5.06h1c.67 0 1.33.13 2 .13 1.33 0 2.67-.1 4-.17a12.27 12.27 0 0 1 2 0c.67 0 1.33 0 2-.07a.4.4 0 1 1 0 .8l-2 .06c-.67 0-1.33-.12-2-.07h-4a16.27 16.27 0 0 1-2 .07l-1-.13a1.44 1.44 0 0 0-.5 0H14c-.33 0-.67-.06-1-.07s-.67.1-1 .1h-2a.4.4 0 0 1-.44-.36.4.4 0 0 1 .44-.35zM10 37.65a11.73 11.73 0 0 1 2.25 0h.28a.7.7 0 0 0 .28.06h.56c.38 0 .75.13 1.13.13.75 0 1.5-.1 2.25-.17a3.9 3.9 0 0 1 1.13 0 9.65 9.65 0 0 0 1.12-.02.4.4 0 1 1 .09.79H19c-.37 0-.75.05-1.12.06s-.75-.12-1.12-.07h-2.25a4.51 4.51 0 0 1-1.12.07c-.19 0-.37-.11-.56-.13a.5.5 0 0 0-.28 0h-.28a3 3 0 0 0-.56-.07 4.67 4.67 0 0 1-.56.1h-1.12a.4.4 0 0 1 0-.8z" fill="#dde4f6"/><path fill="#dee4f5" d="M41.95 38.05h13v-11l-13 11"/><path d="M48.74 36a5.41 5.41 0 0 1-.47 2.2c-.45.61-.59 1.39-1.11 2A5.43 5.43 0 0 1 43 41.9a5.28 5.28 0 0 1-4-1.9 5.43 5.43 0 0 1-1.16-1.82 9.74 9.74 0 0 1-.36-2.18 5 5 0 0 1 .52-2 6.2 6.2 0 0 1 1-1.9 5.74 5.74 0 0 1 4-1.84 8 8 0 0 1 2.18.55A4.93 4.93 0 0 1 47 32a15.28 15.28 0 0 1 1.17 1.89 5.59 5.59 0 0 1 .57 2.11zm-1.57 0a4.43 4.43 0 0 0-.36-1.59 2.52 2.52 0 0 0-1-1.23 7.75 7.75 0 0 0-1.26-.94 3.62 3.62 0 0 0-1.55-.36 2.47 2.47 0 0 0-1.64.21 4.38 4.38 0 0 0-1.27 1c-.19.2-.3.44-.58.58a1 1 0 0 0-.31.3c-.05.13-.1.26-.14.4A7.64 7.64 0 0 0 39 36a2.13 2.13 0 0 0 .23 1.56c.1.25.24.48.36.72A1.56 1.56 0 0 0 40 39a5.52 5.52 0 0 1 1.31 1 2 2 0 0 0 .37.2 3.26 3.26 0 0 1 .41.09c.27.09.54.18.83.26a2.44 2.44 0 0 0 1.71-.31A5.1 5.1 0 0 0 46 39.08c.39-.38.93-.76 1-1.38a4.74 4.74 0 0 0 .17-1.7z" fill="#948cff"/><path d="M42.45 17.3a3.32 3.32 0 0 1-2.54-1.13l-.09-.11a3.94 3.94 0 0 1-3 .85.5.5 0 1 1 .18-1 3.07 3.07 0 0 0 2.26-.71A6 6 0 0 1 39 12a3.44 3.44 0 0 1 2-2.83 1.52 1.52 0 0 1 1.56.17 1.77 1.77 0 0 1 .44 1.83 8.36 8.36 0 0 1-2.36 4.28l.08.09a2.3 2.3 0 0 0 1.79.79 5.33 5.33 0 0 0 3.13-1.2 4.3 4.3 0 0 1 2.37-1 1.14 1.14 0 0 1 .9.33 1.07 1.07 0 0 1 .15.93v.35s.12.14.64.21a7.55 7.55 0 0 0 3.3-.7 9.13 9.13 0 0 1 3-.71.5.5 0 0 1 0 1 8.3 8.3 0 0 0-2.63.65 8.27 8.27 0 0 1-3.81.72 1.83 1.83 0 0 1-1.32-.6A1.37 1.37 0 0 1 48 15.2v-.09a3.56 3.56 0 0 0-1.81.82 6.31 6.31 0 0 1-3.74 1.37zm-.82-7.3a.92.92 0 0 0-.32.07 2.49 2.49 0 0 0-1.36 2 5.38 5.38 0 0 0 .16 2.4A7.29 7.29 0 0 0 42 10.95c.08-.42 0-.75-.1-.87a.36.36 0 0 0-.27-.08z"/></svg>