<svg xmlns="http://www.w3.org/2000/svg" viewBox="0 0 470 350" enable-background="new 0 0 470 350"><g><path fill="#E6E8F0" d="M37.5 102.66h75v63h-75zM113.46 166.62c-12.58.14-25.19.35-37.89.41l-19.04.08c-6.34.03-12.7-.02-19.03-.06l-1.4-.01.01-1.38.19-31.5c.05-5.25-.02-10.5-.02-15.75l-.06-15.75v-1.27l1.28-.01 18.75-.08c6.25-.05 12.5-.01 18.75.01l37.5.13h1.21v1.21l.05 32.02-.13 16-.17 15.95zm-1.92-1.91l-.44-31.12c-.06-10.3-.1-20.59-.02-30.92l1.42 1.42-37.5-.02-18.75-.04-18.75-.1 1.27-1.27-.08 15.75c-.01 5.25-.09 10.5-.05 15.75l.07 31.5-1.21-1.21c6.18-.01 12.35-.04 18.52.02l18.54.14c6.2.07 12.36.06 18.52.07l18.46.03z"/><path fill="#fff" d="M50.86 150c2.4-2.13 4.62-4.47 6.6-6.99 1.96-2.53 3.74-5.22 5.26-8.04 1.51-2.82 2.8-5.77 3.77-8.82l.36-1.14c.1-.35.18-.69.25-1.04.14-.7.2-1.42.16-2.1-.03-.68-.18-1.31-.41-1.77-.26-.43-.53-.65-.98-.77l1.2-.34c-3.44 3.14-5.15 8.05-4.9 12.81.27 4.76 2.71 9.4 6.63 11.89.97.6 2.01 1.03 3.08 1.21 1.08.19 2.2.15 3.29-.09 2.2-.45 4.25-1.7 5.86-3.31 1.6-1.62 2.78-3.74 3.53-6 .75-2.27 1.14-4.7 1.28-7.16l.73 1.21c-.95-.49-2.37-.2-3.38.63-1.03.79-1.54 2.12-1.63 3.56-.07 1.43.21 2.98.85 4.34.63 1.36 1.47 2.65 2.57 3.7 2.18 2.13 5.08 3.53 8.1 4.06 1.51.22 3.05.25 4.55 0 1.48-.29 2.89-.83 4.17-1.6l1.47 2.27c-1.58 1-3.33 1.69-5.15 2.05-1.82.33-3.67.32-5.49.07-1.81-.28-3.56-.86-5.21-1.64-1.64-.82-3.13-1.94-4.44-3.24-2.57-2.65-4.32-6.28-4.06-10.19.07-.97.29-1.98.72-2.91.4-.93 1.09-1.86 1.89-2.51.81-.67 1.78-1.16 2.85-1.39 1.07-.22 2.27-.14 3.34.36l.86.4-.04.95c-.13 2.64-.51 5.31-1.35 7.89-.84 2.58-2.17 5.06-4.15 7.1-1.96 2.01-4.52 3.44-7.33 3.99-1.4.27-2.87.3-4.3.02-1.44-.28-2.78-.87-3.96-1.63-2.36-1.53-4.17-3.68-5.46-6.1-1.28-2.42-1.95-5.1-2.14-7.79-.35-5.36 1.47-10.98 5.47-14.83l.42-.41.62.11c1.13.2 2.22 1.03 2.74 1.99.53.96.73 1.95.8 2.88.07.94 0 1.86-.15 2.76-.08.45-.2.9-.33 1.33l-.39 1.2c-1.05 3.2-2.43 6.29-4.03 9.24-.8 1.48-1.69 2.91-2.61 4.31-.9 1.42-1.89 2.78-2.92 4.11-2.07 2.65-4.4 5.1-6.87 7.41l-1.74-2.04zM166.7 153.46c-12.75.14-25.48.35-38.11.41l-18.96.08c-6.32.03-12.64-.02-18.97-.06l1.39-1.39-.19 32.5c-.05 5.42.02 10.83.02 16.25l.06 16.25-1.28-1.28 19.25-.08c6.42-.05 12.83-.01 19.25.01l38.5.13-1.21 1.21-.05-31.98.13-16 .17-16.05zm1.91-1.92l.44 32.88.07 16.55-.04 16.53v1.42h-1.42l-38.5-.01-19.25-.04-19.25-.1-1.28-.01.01-1.26.08-16.25c.01-5.42.09-10.83.05-16.25l-.07-32.5v-1.2h1.21c6.49-.01 12.99-.04 19.48.02l19.46.14c6.47.07 12.97.06 19.48.07l19.53.01z"/><path fill="#E6E8F0" d="M100.66 178.5l8 23h40l8-23zM101.76 179.28l4.34 10.92c1.42 3.59 2.69 7.16 3.96 10.81l-1.4-.99c3.33.01 6.67-.01 10 .02l10 .13 10 .1c3.33.06 6.67.01 10-.01l-1.16.82 3.92-11.53c1.32-3.84 2.57-7.7 3.94-11.52l1.3 1.82-13.72-.13c-4.58-.08-9.16-.14-13.72-.16-4.55-.01-9.07.01-13.64-.06l-13.82-.22zm-2.2-1.56l14.1-.34c4.74-.1 9.54-.15 14.32-.19l28.68-.1 1.98-.01-.65 1.88c-1.32 3.84-2.73 7.64-4.1 11.47l-4.12 11.46-.29.8-.83-.01c-3.33-.03-6.67-.08-10-.05l-10 .04-10 .05c-3.33.01-6.67-.05-10-.07l-.83-.01-.26-.77-4.04-12.04-3.96-12.11z"/><path fill="#D5DAEA" d="M126.75 160.29c-1.23 1.91-2.49 3.8-3.94 5.55-.72.88-1.48 1.72-2.18 2.62-.71.89-1.33 1.84-1.94 2.8-1.18 1.94-2.62 3.7-4.04 5.47-.36.44-.67.92-1 1.38l-.9 1.45c-.29.49-.65.93-.97 1.39-.33.46-.66.92-1.02 1.36l-2.19-1.59c.58-.98 1.22-1.92 1.87-2.85.64-.93 1.41-1.78 2.09-2.69 1.31-1.85 2.64-3.68 4.12-5.41.7-.89 1.46-1.74 2.1-2.68l1.93-2.8c.63-.94 1.41-1.78 2.09-2.69.66-.92 1.29-1.86 1.8-2.89l2.18 1.58zM138.83 161.82c1.03 1.52 2.02 3.06 2.82 4.71.41.82.74 1.69 1.17 2.49.42.82.92 1.58 1.44 2.34.52.76 1.03 1.52 1.46 2.33.43.81.83 1.63 1.24 2.45.39.83.96 1.56 1.48 2.31.27.37.48.78.72 1.17.23.39.46.79.66 1.2l-2.34 1.35c-.55-.74-1.04-1.51-1.52-2.29s-.84-1.63-1.28-2.43c-.94-1.57-1.86-3.15-2.62-4.82-.39-.83-.79-1.66-1.26-2.44-.45-.8-1-1.54-1.46-2.33-.5-.77-.83-1.63-1.27-2.43-.46-.79-.96-1.56-1.59-2.25l2.35-1.36z"/><path fill="#FFC04D" d="M213.57 113.5c-.03 4.65-.91 9.32-2.78 13.59-2.06 4.14-4.19 8.32-7.41 11.8-3.24 3.41-7.29 6.04-11.65 7.76-4.37 1.74-9.06 2.58-13.73 2.56l-3.5-.21c-1.16-.16-2.31-.36-3.46-.54-1.13-.27-2.25-.62-3.37-.92-1.1-.38-2.17-.83-3.26-1.25-1.06-.48-2.08-1.04-3.11-1.55-1-.59-1.96-1.23-2.94-1.85-.93-.68-1.82-1.43-2.72-2.15l-2.48-2.4c-.74-.88-1.5-1.74-2.27-2.59-.68-.92-1.39-1.82-2.06-2.75-.61-.97-1.21-1.96-1.75-2.96-.48-1.04-.99-2.07-1.43-3.13-.37-1.09-.76-2.16-1.08-3.26-.25-1.12-.55-2.22-.77-3.34-.13-1.13-.36-2.25-.52-3.38l-.22-3.42c-.02-4.58 1.01-9.13 2.75-13.34.45-1.05.99-2.05 1.47-3.09.24-.52.55-1 .82-1.5l.79-1.53c.58-.99 1.25-1.93 1.91-2.87l2.28-2.6c6.4-6.66 15.59-10.6 24.92-10.71l3.48.26c1.15.17 2.29.39 3.44.59 1.13.27 2.24.62 3.35.92 1.1.36 2.18.77 3.28 1.15 4.28 1.75 8.3 4.29 11.53 7.63l2.23 2.66 1.98 2.84c.6.99 1.23 1.95 1.79 2.96.49 1.04 1.04 2.06 1.52 3.11 1.86 4.24 2.9 8.85 2.97 13.51zm-3.14 0c-.04-4.25-.92-8.47-2.55-12.37-.42-.97-.92-1.91-1.38-2.86-.53-.91-1.11-1.8-1.66-2.7-.63-.85-1.34-1.64-1.99-2.46l-2.22-2.23c-.8-.68-1.58-1.37-2.34-2.09-.83-.63-1.65-1.29-2.49-1.91l-2.67-1.67c-.94-.47-1.86-.98-2.81-1.42-3.84-1.74-8.08-2.54-12.3-2.62l-3.18.04c-1.06.09-2.11.23-3.17.34-1.05.19-2.08.48-3.11.74-1.01.34-2 .75-2.99 1.12-3.92 1.69-7.39 4.28-10.33 7.29l-2.09 2.37c-.63.84-1.32 1.64-2.04 2.43-.63.85-1.32 1.68-1.83 2.62-.44.97-.9 1.94-1.29 2.92-1.48 4.02-1.91 8.27-1.95 12.45.03 1.05.01 2.1 0 3.16.08 1.05.22 2.1.39 3.14.23 1.03.52 2.04.79 3.06.33 1 .75 1.97 1.11 2.96.41.97.9 1.9 1.34 2.86.51.92 1.09 1.8 1.59 2.73.58.88 1.2 1.73 1.82 2.59.34.4.69.8 1.05 1.19l1.11 1.13 2.48 1.97c.87.59 1.71 1.22 2.53 1.86l1.32.86c.44.29.85.62 1.31.89.92.5 1.83 1.05 2.78 1.53.97.41 1.94.89 2.95 1.2 1.04.23 2.06.53 3.1.75l3.14.63 3.21.34c4.31.26 8.68-.67 12.6-2.45 3.94-1.76 7.46-4.33 10.44-7.37l2.21-2.32c.66-.84 1.33-1.67 1.98-2.53.56-.91 1.2-1.78 1.71-2.73.45-.97.85-1.97 1.24-2.97 1.44-3.97 2.26-8.21 2.19-12.47z"/><path fill="#5053AB" d="M299.56 132.06c-8.33 1.38-16.65 2.79-25.06 4.1l-12.29 2.35-12.51 2.13-25.17 3.97c-8.36 1.36-16.75 2.6-25.11 3.85l-1.05.16-.16-1.03c-.65-4.28-1.27-8.57-1.88-12.86-.57-4.3-1.36-8.56-2.03-12.84l-1.96-12.85c-.61-4.29-1.35-8.56-2.08-12.83l-.12-.7.7-.12c8.28-1.36 16.58-2.54 24.84-3.97 8.23-1.65 16.52-2.93 24.78-4.35l24.8-4.21 12.44-1.86c4.15-.58 8.28-1.35 12.42-2.01l1.07-.17.17 1.07c.7 4.34 1.48 8.69 2.1 13.04l.92 6.51.45 3.25.53 3.26 4.2 26.11zm-1.92-1.38l-4.44-25.27c-.69-4.19-1.6-8.41-2.33-12.58-.76-4.18-1.34-8.36-2-12.56l1.66 1.2c-8.3 1.2-16.58 2.53-24.87 3.81-4.15.58-8.3 1.18-12.45 1.81l-12.4 2.14-12.4 2.13c-2.07.33-4.13.76-6.21 1.02-2.07.3-4.18.44-6.25.75l-24.77 4.42 1.22-1.69c.32 2.14.62 4.29.91 6.44.27 2.15.68 4.28 1.02 6.42.74 4.27 1.43 8.55 2.11 12.83l.96 6.43.5 3.21.6 3.2c.39 2.13.84 4.25 1.17 6.39.33 2.14.6 4.29.91 6.44l-1.55-1.12c4.11-.56 8.26-1.03 12.36-1.75 4.09-.69 8.27-1.11 12.41-1.72l6.22-.87 6.16-1.01c4.11-.66 8.18-1.41 12.27-2.1 4.07-.71 8.15-1.41 12.25-2.07l12.45-1.82c8.1-1.46 16.31-2.75 24.49-4.08z"/><path fill="#FFC04D" d="M286.68 145.43l-7.07-21.23-3.8-10.23c-1.24-3.49-2.44-7.07-3.61-10.67l-6.9-21.56-1.71-5.37-1.63-5.39-3.24-10.74-.68-2.26 2.24.56c3.34.83 6.66 1.72 10.01 2.51 3.35.76 6.72 1.45 10.06 2.26l10.03 2.41c3.34.81 6.72 1.45 10.08 2.18 6.7 1.54 13.37 3.21 20.12 4.55l5.09.87 5.05 1.06 10.09 2.14 2.14.45-1.38 1.73-6.71 8.46c-2.22 2.85-4.47 5.69-6.76 8.49l-6.99 8.19c-2.32 2.73-4.57 5.59-6.87 8.37l-3.44 4.2-1.72 2.1-1.74 2.01c-2.32 2.69-4.63 5.26-6.91 8.09l-13.75 16.82zm.58-3.09l12.99-16.66c2.16-2.71 4.28-5.7 6.4-8.49l1.59-2.11 1.61-2.01 3.23-4.02 6.52-7.96 6.53-8.05c2.23-2.62 4.49-5.24 6.72-7.91 2.21-2.7 4.31-5.49 6.46-8.23l.87 2.49-10.1-2.09-5.05-1.06c-1.67-.39-3.31-.94-4.96-1.45-6.65-1.75-13.53-2.53-20.25-3.98-3.36-.72-6.64-1.82-10.01-2.49-3.35-.75-6.73-1.4-10.08-2.19-3.36-.72-6.68-1.62-10.04-2.39-3.35-.77-6.8-1.12-10.12-1.99l2.29-2.51c1.03 3.45 1.88 6.98 2.86 10.49l1.65 5.17 1.43 5.3c.94 3.55 1.91 7.12 3.07 10.53 1.1 3.46 2.25 6.87 3.39 10.26 1.14 3.4 2.28 6.77 3.36 10.21 1.07 3.46 2.07 7.05 3.12 10.58 1.05 3.54 2.24 6.72 3.29 10.23l3.23 10.33z"/><path fill="#D5DAEA" d="M379.54 108.21l.72 96.46c.08 16.14.06 32.33.05 48.46l-.04 24.19-.03 12.08.04 12.07.01 2.55-1.98-1.62-26.78-21.86-13.39-10.93-13.37-10.95-.5-.41v-.65l.09-53.36.03-26.68-.06-26.68v-.61l.49-.38 13.59-10.6c4.55-3.54 9.14-7.05 13.73-10.5l27.4-20.58zm-1.19 2.43l-25.94 21c-8.57 6.95-17.2 13.65-25.93 20.44l.58-1.18-.06 53.36.03 53.35-.52-1.09 53.28 44.06-1.9.9c.08-15.92-.02-31.83 0-47.72.01-15.9-.01-31.75.08-47.67l.28-47.82.1-47.63z"/><path fill="#E6E8F0" d="M340.84 124.96l.1 161.04-44.81-35.99-.05-91.47zM341.44 123.75l.39 40.35.31 40.6c.08 13.56.06 27.16.04 40.7l-.04 20.31-.03 10.14.03 10.13.01 2.51-1.97-1.57-22.46-17.92-11.23-8.96c-3.74-2.99-7.5-5.96-11.21-8.98l-.52-.42v-.65l.09-45.73.03-22.87-.06-22.87v-.63l.51-.38 11.44-8.63c3.83-2.88 7.7-5.72 11.58-8.52l23.09-16.61zm-1.21 2.42l-21.64 17.06c-7.14 5.64-14.32 11.04-21.62 16.51l.6-1.19-.05 22.87-.01 22.87.03 45.73-.53-1.1 44.65 36.18-1.89.91c.08-13.34-.02-26.66 0-39.96.01-13.31-.01-26.59.08-39.92l.28-40.06.1-39.9z"/><path fill="#fff" d="M311.95 133.91l.39 35.28.3 35.53c.08 11.87.03 23.78.02 35.64l-.03 17.77-.03 8.87.03 8.87.01 2.48-1.96-1.53-19.64-15.35-9.82-7.67c-3.27-2.56-6.56-5.1-9.8-7.69l-.53-.42v-.66l.1-40.75.03-20.37-.07-20.37v-.64l.52-.38 10.03-7.33c3.36-2.45 6.77-4.85 10.17-7.22l20.28-14.06zm-1.23 2.41l-18.83 14.48c-6.2 4.78-12.45 9.33-18.8 13.94l.61-1.21-.05 20.37-.01 20.37.02 40.75-.54-1.11 39.01 31.03-1.88.91c.08-11.65-.02-23.28 0-34.9.01-11.62-.01-23.21.08-34.85l.28-35 .11-34.78z"/><path fill="#FFC04D" d="M210.38 274.47c2 26.64 51.46 28.94 50.61-5.74-.43-17.39-17.67-25.7-20.96-42.27-4.62-23.29-12.74 14.25-16 18.56-7.9 10.44-14.62 16.53-13.65 29.45zM211.56 274.38c.33 3.84 1.72 7.58 4.19 10.56 2.31 3.16 5.95 5.07 9.58 6.33 3.64 1.33 7.55 1.95 11.44 1.91.97-.09 1.95-.06 2.91-.23l1.45-.2 1.42-.32c.96-.17 1.86-.54 2.8-.81l1.34-.56c.45-.18.9-.37 1.31-.62 3.44-1.76 6.45-4.37 8.5-7.67 2.07-3.28 3.24-7.14 3.59-11.1.36-3.99-.26-7.97-1.67-11.69-.4-.91-.76-1.84-1.18-2.75-.48-.88-.91-1.79-1.42-2.66-1.03-1.74-2.22-3.37-3.43-5-2.42-3.26-4.92-6.51-7.21-9.94-.56-.87-1.13-1.72-1.64-2.63-.53-.89-1.11-1.75-1.59-2.68-.49-.92-1.01-1.83-1.37-2.82l-.56-1.47c-.19-.49-.29-1.01-.44-1.52-.6-2.07-.89-4.01-1.56-5.85-.31-.9-.72-1.81-1.2-2.37-.25-.28-.44-.33-.5-.33-.09.01-.37.12-.65.4-.57.55-1.1 1.38-1.56 2.22-.46.85-.87 1.76-1.26 2.67-.77 1.84-1.48 3.73-2.15 5.65-1.44 3.8-2.83 7.62-4.24 11.52-.39.98-.73 1.93-1.36 2.98-.2.31-.34.47-.5.69l-.47.61-.93 1.23c-1.26 1.62-2.48 3.26-3.79 4.81-1.27 1.58-2.54 3.15-3.65 4.81-1.06 1.69-2.03 3.43-2.73 5.27-.72 1.83-1.15 3.75-1.4 5.69-.29 1.93-.19 3.91-.07 5.87zm-2.36.18c-.11-2.11-.18-4.24.13-6.37.29-2.12.8-4.23 1.6-6.21.8-1.99 1.81-3.86 2.94-5.64 1.1-1.79 2.26-3.52 3.49-5.18 1.19-1.69 2.53-3.23 3.79-4.83l1.82-2.31c.42-.63.84-1.6 1.21-2.49 1.52-3.7 2.73-7.64 4.18-11.48.75-1.92 1.57-3.82 2.44-5.71.44-.95.93-1.88 1.45-2.81.52-.94 1.07-1.88 1.97-2.76.46-.42 1.09-.91 2.06-.97.47 0 .97.12 1.32.34.38.21.64.47.88.72.87 1.03 1.26 2.07 1.64 3.09.74 2.02 1.08 4.18 1.64 5.99.14.47.23.95.41 1.4l.53 1.37c.3.93.7 1.83 1.04 2.76.63 1.89 1.75 3.58 2.9 5.22 2.33 3.28 5.12 6.25 7.54 9.6.61.83 1.14 1.74 1.71 2.6.57.87 1.05 1.81 1.64 2.68.55.89 1.03 1.84 1.55 2.75.48.95.9 1.93 1.34 2.9.35 1.01.67 2.03 1 3.05.22 1.05.45 2.1.62 3.16l.22 3.21-.04 1.59.03 1.59c-.05 1.06-.16 2.13-.23 3.2-.21 1.05-.39 2.12-.71 3.15-.68 2.05-1.6 4.04-2.82 5.81-1.18 1.8-2.57 3.45-4.12 4.94-.85.65-1.66 1.37-2.59 1.89-.46.28-.9.57-1.36.83l-1.42.71c-3.83 1.81-7.96 2.76-12.14 3.06-4.18.19-8.45-.29-12.42-1.81-1.97-.78-3.82-1.84-5.57-3.04-.84-.65-1.69-1.29-2.46-2.01l-1.19-1.06-1.09-1.17-.54-.59-.47-.65c-.3-.44-.63-.87-.91-1.33-.5-.95-1.09-1.87-1.44-2.89-.92-2.02-1.29-4.17-1.57-6.3z"/><path fill="#6C74C4" stroke="#6C74C4" stroke-width="3" stroke-linecap="round" stroke-linejoin="round" stroke-miterlimit="10" d="M343.49 123.24v11.98l-94.42 72.12-.79 25.75h-26.85v-25.75l-94.42-72.12v-11.98z"/><path fill="#8891EA" stroke="#8891EA" stroke-width="3" stroke-linecap="round" stroke-linejoin="round" stroke-miterlimit="10" d="M343.49 123.24v11.98l-94.42 72.12-.79 25.75h-17.68c-.22-.75-.4-1.51-.52-2.26-2.39-14.88 4.53-31.47 17.06-40.14 22.41-15.51 11.91-30.89 29.21-45.45 16.91-14.23 35.6-3.54 50.81-22h16.33z"/><path fill="#0C1238" d="M119.5 119.66c4.82.03 9.65-.02 14.47.07 4.82.32 9.65-.23 14.47-.4 4.82-.12 9.65-.06 14.47.02l14.47.18 7.23.06 7.23.16 7.23.15 7.23.22c2.41.1 4.82.04 7.23.03 2.41-.02 4.82.04 7.23.06l7.23.14c2.41.03 4.82-.04 7.23-.06 4.82-.03 9.65.1 14.47.09 2.41.02 4.82.05 7.23-.17 2.41-.2 4.82-.19 7.23-.23l28.94-.38 7.23.16 3.62.08c1.21.01 2.41-.01 3.62-.02 4.82-.02 9.65-.14 14.47-.06 2.41.1 4.82.18 7.23.23 2.41-.02 4.82 0 7.23-.06l14.47-.28c.87-.02 1.59.67 1.6 1.54.02.87-.67 1.59-1.54 1.6h-.060000000000000005l-14.47.09-7.23.06-7.23.29c-2.41.08-4.82-.01-7.23-.03l-7.23-.14c-4.82-.13-9.65-.09-14.47-.17l-7.23-.25c-2.41-.07-4.82-.03-7.23.01-4.82.06-9.65.28-14.47.33-2.41.01-4.82.13-7.23-.15-1.21-.11-2.41-.24-3.62-.22l-3.62.08c-4.82.17-9.65.56-14.47.53-2.41-.06-4.82-.28-7.23-.24l-7.23.08c-2.41-.02-4.82.02-7.23-.05-1.21-.04-2.41-.07-3.62-.08l-1.81-.02-1.81.06c-2.41.14-4.82.31-7.23.21-2.41-.04-4.82-.24-7.23-.35-1.21-.06-2.41-.14-3.62-.14l-3.62.02-7.23-.35c-4.82-.27-9.65-.19-14.47-.06-4.82.11-9.65.29-14.47.34l-7.23-.17c-1.21-.02-2.41-.08-3.62-.06-1.21 0-2.41.11-3.62.15-4.82.14-9.65.15-14.47.24-.87.02-1.59-.68-1.6-1.55-.02-.87.68-1.59 1.55-1.6h.03l.03.01zM119.5 134.03c4.82.03 9.65-.02 14.47.07 4.82.32 9.65-.23 14.47-.4 4.82-.12 9.65-.06 14.47.02l14.47.18 7.23.06 7.23.16 7.23.15 7.23.22c2.41.1 4.82.04 7.23.03 2.41-.02 4.82.04 7.23.06l7.23.14c2.41.03 4.82-.04 7.23-.06 4.82-.03 9.65.1 14.47.09 2.41.02 4.82.05 7.23-.17 2.41-.2 4.82-.19 7.23-.23l28.94-.38 7.23.16 3.62.08c1.21.01 2.41-.01 3.62-.02 4.82-.02 9.65-.14 14.47-.06 2.41.1 4.82.18 7.23.23 2.41-.02 4.82 0 7.23-.06l14.47-.28c.87-.02 1.59.67 1.6 1.54.02.87-.67 1.59-1.54 1.6h-.060000000000000005l-14.47.09-7.23.06-7.23.29c-2.41.08-4.82-.01-7.23-.03l-7.23-.14c-4.82-.13-9.65-.09-14.47-.17l-7.23-.25c-2.41-.07-4.82-.03-7.23.01-4.82.06-9.65.28-14.47.33-2.41.01-4.82.13-7.23-.15-1.21-.11-2.41-.24-3.62-.22l-3.62.08c-4.82.17-9.65.56-14.47.53-2.41-.06-4.82-.28-7.23-.24l-7.23.08c-2.41-.02-4.82.02-7.23-.05-1.21-.04-2.41-.07-3.62-.08l-1.81-.02-1.81.06c-2.41.14-4.82.31-7.23.21-2.41-.04-4.82-.24-7.23-.35-1.21-.06-2.41-.14-3.62-.14l-3.62.02-7.23-.35c-4.82-.27-9.65-.19-14.47-.06-4.82.11-9.65.29-14.47.34l-7.23-.17c-1.21-.02-2.41-.08-3.62-.06-1.21 0-2.41.11-3.62.15-4.82.14-9.65.15-14.47.24-.87.02-1.59-.68-1.6-1.55-.02-.87.68-1.59 1.55-1.6h.03l.03.01z"/><path fill="#fff" d="M240.36 261.39c-.08-1.03-.34-1.98-.89-2.72-.58-.72-1.43-1.19-2.37-1.49-1.92-.63-4.23-.05-5.63 1.19-.74.63-1.07 1.48-1.26 2.51-.16 1.07-.03 2.01.48 2.73.5.76 1.49 1.29 2.58 1.7 1.09.42 2.31.75 3.54 1.15 1.24.41 2.54.85 3.78 1.68 1.25.77 2.38 2.12 2.81 3.63.23.75.34 1.5.35 2.23.04.73-.05 1.52-.26 2.28-.43 1.53-1.5 2.87-2.78 3.66-1.28.81-2.7 1.25-4.12 1.39-1.42.18-2.88.06-4.28-.36-1.4-.41-2.75-1.23-3.77-2.45-.51-.6-.9-1.32-1.17-2.07-.27-.76-.34-1.55-.35-2.31h2.7c.07 1 .39 1.87 1 2.57.61.71 1.51 1.2 2.48 1.55.98.33 2.07.46 3.13.37 1.05-.07 2.11-.33 2.92-.88.82-.54 1.37-1.29 1.61-2.18.24-.86.17-2.03-.1-2.93-.15-.45-.35-.87-.65-1.23-.27-.38-.62-.72-1.05-1.03-.83-.62-1.93-1.08-3.07-1.51-1.15-.43-2.37-.8-3.62-1.33-.62-.26-1.25-.57-1.86-.98-.6-.41-1.23-.87-1.71-1.53-.48-.64-.83-1.41-.98-2.18-.14-.76-.17-1.53-.08-2.24.16-1.43.72-3.04 1.85-4.11 1.08-1.11 2.5-1.74 3.92-2.02 1.43-.3 2.91-.22 4.31.21 1.38.45 2.76 1.19 3.73 2.43.94 1.26 1.34 2.78 1.49 4.27h-2.68zM237.5 279.94c.13.52.21 1.05.09 1.57-.05.26-.21.52-.23.78-.05.26.01.52.08.78s.13.52.1.78-.1.52-.15.78c-.08.26.05.52.13.78.05.26.06.52 0 .78h-2.7c-.23-.52-.19-1.05-.06-1.57-.02-.52-.06-1.05.14-1.57.08-.26.15-.52.14-.78.01-.26-.09-.52-.1-.78-.05-.26.1-.52.12-.78 0-.26-.05-.52-.24-.78h2.68zM237.5 249.89c.13.43.21.87.09 1.3-.05.22-.21.43-.23.65-.05.22.01.43.08.65.07.22.13.43.1.65-.03.22-.1.43-.15.65-.08.22.05.43.13.65.05.22.06.43 0 .65h-2.7c-.23-.43-.19-.87-.06-1.3-.02-.43-.06-.87.14-1.3.08-.22.15-.43.14-.65.01-.22-.09-.43-.1-.65-.05-.22.1-.43.12-.65 0-.22-.05-.43-.24-.65h2.68z"/><path stroke="#5053AB" stroke-width="3" stroke-linecap="round" stroke-linejoin="round" stroke-miterlimit="10" fill="none" d="M223.5 209h24"/></g></svg>