<svg xmlns="http://www.w3.org/2000/svg" width="60" height="62" viewBox="0 0 60 62"><title>spot-gift-everyone</title><g fill="none" fill-rule="evenodd"><path d="M.122 30.698c-.03-4.73.745-9.43 2.29-13.902 2.52-7.255 7.333-12.22 14.51-14.51 8.5-2.81 17.678-2.837 26.196-.074 8.478 2.745 13.517 8.86 15.58 17.647 1.783 7.36 1.73 15.044-.153 22.38-2.443 9.548-8.478 15.427-17.874 17.72-7.486 1.758-14.968 1.758-22.38-.39C5.545 55.995.196 43.246.122 30.697z" fill="#7084CB" fill-rule="nonzero"/><path d="M44.45 51.824c-9.058 1.278-18.56 1.51-27.59-.35-.35-.04-.68-.175-.958-.392-.248-.305-.386-.685-.392-1.078-1.05-7.812-.416-16.302-.67-24.224-.032-.968-.048-2 .474-2.83.784-1.24 2.45-1.62 3.953-1.793 7.843-.894 16.345.306 24.278.255 1.016 0 2.18.05 2.82.808.576.686.482 1.666.357 2.533-1.25 8.67-.283 17.765-.542 26.604-.02.153-.65.314-1.73.467z" fill="#FFF" fill-rule="nonzero"/><path d="M46.165 51.353c0 .153-.636.318-1.714.47-9.058 1.28-18.56 1.51-27.59-.348-.35-.04-.68-.176-.958-.393-.248-.306-.386-.687-.392-1.082-.698-5.157 2.474-7.012 7.745-6.412 2.353.267 4.792.824 6.972-.063 2.632-1.07 4.048-3.92 4.816-6.666.77-2.746 1.177-5.664 2.745-8.025 1.655-2.62 4.62-4.113 7.71-3.882.235-.01.466.07.643.223.13.19.186.42.158.648-.04 8.486.102 17.03-.133 25.53z" fill="#F4F6F8" fill-rule="nonzero"/><path d="M8.922 42.525c.16.444.392.87.82.957.16.023.327.014.485-.027.686-.173 1.346-.437 1.96-.784 3.2-1.64 6.437-3.274 9.49-5.148.565-.305.95-.857 1.045-1.49.698-2.26 1.04-4.667 1.537-6.977.06-.163.042-.345-.048-.494-.083-.077-.187-.127-.298-.144-2.058-.523-4.135-.962-6.232-1.318-1.117-.192-1.81-.192-2.87.34-3.337 1.684-6.643 3.41-9.965 5.072-.27.133-.572.31-.623.608-.006.26.09.514.27.706.965 1.35 2.024 2.898 2.612 4.458.533 1.436 1.294 2.796 1.816 4.243z" stroke="#0C1238" stroke-width="2" fill="#5E6EBF" fill-rule="nonzero"/><path d="M11.255 32.322c.798 1.386 2.543 1.903 3.97 1.176.377-.174.652-.515.744-.922.05-.392-.327-.862-.723-.752-.17.064-.322.174-.435.317-.906.954-1.843 2.456-.977 3.444.42.48 1.122.6 1.616 1.008.997.824.49 2.77-.783 3M8.77 33.42l3.254 5.815" stroke="#FFF" stroke-width="2"/><path d="M21.502 31.286c-.267-1.176-2.275-.862-2.286.28-.016 1.626 2.615 1.21 2.286-.28z" stroke="#0C1238" fill="#0C1238" fill-rule="nonzero"/><path d="M21.357 30.953c4.314-3.365 7.95-6.82 9.776-11.992 1.177-3.38 2.408-7.623 6.4-8.552 2.087-.486 4.65.04 5.663 1.86 1.27 2.285-.627 5.12-2.992 6.36-2.526 1.325-5.953 1.748-8.702 2.24-.34.11-.707.095-1.035-.044-.306-.197-.024-.087-.094-.44-.49-2.466-.232-6.227-1.142-8.572-.908-2.345-3.277-4.463-5.77-3.945-1.636.34-2.884 1.753-3.397 3.32-1.33 4.064 2.15 8.668 6.43 9.346 4.852.785 10.115.816 11.723 6.616.427 1.544-.29 3.807-1.898 3.572-1.608-.236-1.522-2.746-.16-3.53 1.36-.784 3.077-.267 4.497.392 1.93.887 3.75 2.032 5.788 2.64 2.04.607 4.424.592 6.094-.706" stroke="#0C1238" stroke-width="2"/></g></svg>