<svg xmlns="http://www.w3.org/2000/svg" width="60" height="60" viewBox="0 0 60 60"><title>spot-instant-delivery</title><g fill="none" fill-rule="evenodd"><path d="M.067 30.094c-.028-4.618.743-9.206 2.278-13.56C4.85 9.453 9.64 4.61 16.785 2.375c8.466-2.743 17.58-2.77 26.062-.074 8.435 2.682 13.45 8.627 15.502 17.212 1.773 7.175 1.72 14.68-.154 21.83-2.43 9.315-8.435 15.052-17.78 17.287-7.45 1.715-14.902 1.715-22.263-.39C5.475 54.756.14 42.313.067 30.093z" fill="#7084CB" fill-rule="nonzero"/><path d="M50.18 44.898c-1.176 1.137-6.666.478-7.996.478h-29.21c-2.354 0-2.778-.725-2.95-3.027-.122-1.64.156-3.268.156-4.903v-8.784c0-3.138.044-6.236-.066-9.36-.03-.303 0-.608.086-.9.184-.426.547-.75.992-.88.44-.13.895-.196 1.353-.194 2.463-.106 4.898.243 7.353.18 2.14-.028 4.282-.094 6.427-.094h24.322v19.796c0 2.03.64 5.635-.318 7.49-.04.073-.09.14-.15.196z" fill="#4C5EB8" fill-rule="nonzero"/><path d="M13.498 41.714c-.045.33-.147.652-.302.95-.416.752-2.15 1.277-2.027 2.136.175 1.24 2.28.83 3.136.886 2.11.13 4.223.138 6.333.098 3.984-.074 7.96-.33 11.944-.282 3.098.037 6.196.106 9.294.208 2.157.07 5.753.55 7.76-.463.472-.235.723-.365.876-.867.392-1.313.357-2.717.317-4.094-.213-7.35-.16-14.7.162-22.05-.027.627-1.694 1.344-2.137 1.678-4.835 3.666-8.208 8.627-13.506 11.862-1.703 1.036-3.62 1.96-5.605 1.753-2.918-.322-4.94-2.938-7.32-4.652-.68-.49-1.515-.933-2.323-.71-1.212.334-1.57 1.9-1.424 3.138.146 1.24.56 2.565.05 3.718-.87 1.96-3.873 2.215-4.814 4.16-.35.77-.28 1.71-.416 2.53z" fill="#4053B3" fill-rule="nonzero"/><path d="M49.71 20.082c0 .17-1.11.812-1.24.906-5.164 3.773-10.403 7.45-15.497 11.33-2.538 1.933-4.04 1-6.624-.76-2.354-1.597-4.41-3.585-6.695-5.256l-8.498-6.216" stroke="#0C1238" stroke-width="2" fill="#4C5EB8" fill-rule="nonzero"/><path d="M41.49 17.27c-.827 1.29-1.137 3.31-.545 4.706 1.773 4.18 7.87 7.404 11.812 3.44 1.386-1.444 1.995-3.466 1.635-5.436-.405-1.957-1.478-3.714-3.035-4.968-.587-.535-1.29-.926-2.055-1.14-.827-.156-1.68-.12-2.49.104-2.122.48-4.2 1.55-5.322 3.295z" fill="#FFF" fill-rule="nonzero"/><path d="M26.455 31.518S15.11 40.745 12.063 43.675M34.46 31.09s11.11 9.412 14.065 12.628" stroke="#0C1238" stroke-width="2"/></g></svg>