<svg xmlns="http://www.w3.org/2000/svg" width="60" height="62" viewBox="0 0 60 62"><title>spot-issue-unique-codes</title><g fill="none" fill-rule="evenodd"><path d="M.106 30.698c-.03-4.73.745-9.43 2.29-13.902C4.918 9.54 9.73 4.576 16.906 2.286c8.502-2.81 17.678-2.837 26.196-.074 8.478 2.745 13.518 8.86 15.58 17.647 1.784 7.36 1.73 15.044-.153 22.38-2.444 9.548-8.48 15.427-17.875 17.72-7.486 1.758-14.97 1.758-22.38-.39C5.53 55.995.185 43.246.105 30.697z" fill="#7084CB" fill-rule="nonzero"/><path d="M29.396 24.686l2.482-2.482s4.185 1.706 5.738 3.255c1.553 1.548 2.792 4.65 3.72 7.45.687 1.847 1.742 3.535 3.103 4.96l-7.754 8.373" fill="#4C5EB8" fill-rule="nonzero"/><path d="M28.384 34.545c-.66.217-1.374.196-2.02-.06-.325-.12-.615-.323-.842-.587l-.095-.086c-.038-.04-.074-.084-.105-.13-.054-.08-.1-.165-.134-.255-.06-.157-.11-.32-.14-.486-.074-.62-.11-1.244-.107-1.87-.034-.615-.062-1.227-.08-1.846v-.07l.07-.087c.125-.153.243-.31.372-.46.114-.155.245-.297.392-.423.166-.108.315-.24.443-.392.13-.15.263-.29.392-.447l.443.443-.393.44c-.12.152-.265.284-.427.392-.158.115-.304.246-.435.392l-.416.415.086-.203c0 .6 0 1.207.036 1.81.035.605.18 1.178.254 1.75.024.138.04.275.067.392.01.054.025.106.043.157.006.018.014.035.024.05l.063.08c.227.133.427.337.686.462.538.133 1.1.133 1.636 0l.188.62z" fill="#0C1238" fill-rule="nonzero"/><path d="M31.86 23.718s1.124 2.807.697 4.125c-.168.353-.222.75-.153 1.133.145.297.344.563.588.785.43.523.6 1.213.46 1.875-1.532-1.68-2.77-3.607-3.664-5.698l2.07-2.22z" fill="#4053B3" fill-rule="nonzero"/><path fill="#FFF" fill-rule="nonzero" d="M5.86 30.872l24.78-24.78 9.452 9.455-24.78 24.78z"/><path d="M40.4 15.545l-3.102 3.137c-1.016 1.047-2.13 2.075-3.11 3.138-1.984 2.102-4.047 4.2-6.14 6.274l-6.275 6.235-6.295 6.172-.172.17-.165-.17c-.783-.784-1.548-1.604-2.352-2.384l-2.353-2.353-2.353-2.38L5.73 31.03l-.13-.128.13-.133c2.058-2.076 4.168-4.092 6.188-6.2 1-1.068 2.03-2.103 3.055-3.14l3.078-3.112 3.08-3.138 1.537-1.568 1.568-1.534c2.102-2.027 4.134-4.125 6.196-6.192l.21-.208.207.208c.784.785 1.57 1.62 2.353 2.428.784.808 1.596 1.6 2.388 2.408l4.812 4.823zm-.616 0l-4.706-4.6c-.784-.76-1.568-1.537-2.353-2.29-.784-.753-1.568-1.51-2.352-2.28h.564L24.69 12.53c-2.055 2.074-4.212 4.046-6.227 6.164l-3.07 3.137c-1.032 1.037-2.024 2.107-3.138 3.08-.545.49-1.055 1.012-1.57 1.537l-1.52 1.57c-1.02 1.042-2.012 2.116-3.055 3.136v-.545c.784.784 1.533 1.616 2.353 2.392l2.353 2.353c.784.784 1.568 1.576 2.353 2.376.783.784 1.567 1.568 2.383 2.352h-.522c.503-.52 1.01-1.043 1.54-1.537l1.567-1.506c1.075-.99 2.06-2.044 3.138-3.044 1.078-1 2.11-2.016 3.137-3.035l3.063-3.09 3.04-3.09c1.007-1.027 2.08-2.043 3.136-3.066l6.134-6.17z" fill="#FFF" fill-rule="nonzero"/><path fill="#0C1238" fill-rule="nonzero" d="M51.043 41.965l-8.318 13.608-7.75-7.753 10.962-10.96"/><path d="M51.357 41.925l-2.04 3.455c-.686 1.153-1.356 2.314-2.062 3.467-.706 1.153-1.408 2.306-2.126 3.455l-1.075 1.718-.565.84-.533.854-.184.298-.244-.247-1.93-1.96c-.647-.644-1.275-1.31-1.906-1.962l-1.906-1.96c-.63-.663-1.29-1.295-1.96-1.934l-.126-.123.125-.13 5.42-5.544 2.706-2.777c.898-.93 1.84-1.815 2.765-2.717l.204-.197.192.196 1.29 1.32 1.318 1.306 2.635 2.64zm-.624.075c-1.713-1.64-3.408-3.235-5.05-4.89h.51c-.926.902-1.875 1.78-2.78 2.702l-2.746 2.745-5.49 5.49v-.463c.647.643 1.29 1.294 1.96 1.922l1.96 1.91c.652.64 1.315 1.27 1.934 1.96.62.69 1.26 1.326 1.884 1.997l-.47.054c.18-.274.364-.55.54-.827l.494-.85 1.07-1.664c.715-1.11 1.436-2.227 2.076-3.36.64-1.134 1.35-2.244 2.027-3.36L50.734 42z" fill="#0C1238" fill-rule="nonzero"/><path d="M36.098 45.624c.964.74 2.018 1.354 3.137 1.827l.424.174c.07.027.136.07.207.105.07.03.142.056.215.078.293.086.59.162.89.227.6.15 1.21.248 1.824.29 1.234-.017 2.454-.262 3.6-.72.282-.115.56-.248.847-.354.286-.105.57-.223.843-.364.535-.296 1.034-.654 1.487-1.066l.392.486c-.486.424-1.012.8-1.57 1.125-.144.076-.28.158-.43.225l-.455.176c-.306.107-.6.237-.906.343-1.222.432-2.508.65-3.804.647-.65.046-1.305-.003-1.94-.145-.158-.048-.31-.102-.464-.153-.153-.05-.302-.122-.455-.173-.073-.034-.15-.06-.226-.083-.08-.01-.16-.027-.24-.047l-.443-.193c-.29-.137-.57-.294-.86-.427-.148-.068-.3-.126-.452-.176-.15-.063-.295-.133-.436-.212-.56-.314-1.085-.684-1.568-1.106l.384-.482z" fill="#7084CB" fill-rule="nonzero"/><path d="M41.047 48.365c2.056 1.497 3.16 3.976 2.898 6.506M45.867 39.357c-.757.043-.96 1.176-.494 1.647.81.827 1.803-.596 1.098-1.357-.147-.182-.37-.29-.603-.29z" stroke="#7084CB" stroke-width="2"/><path d="M36.388 46.235s-4.184-3.564-5.882-5.27c-1.698-1.706-2.326-5.098-2.945-7.906-.62-2.81-2.16-5.436-2.47-6.668-.31-1.23-1.22-2.435.455-3.714 1.326-1.01 3.255-.156 3.875 2.016.62 2.173 4.03 6.514 5.27 7.753 1.24 1.24 2.945 2.635 2.945 2.635" fill="#4C5EB8" fill-rule="nonzero"/><path d="M15.596 34.18l-.227.96c1.24-3.056 1.532-6.416.838-9.642-1.302.23-2.443 1.384-2.467 2.706-.022 1.32 1.26 2.572 2.566 2.353.784-.137 1.43-.733 1.94-1.36 1.18-1.546 2.02-3.324 2.464-5.217.353-1.35.65-2.847 1.75-3.705 1.003-.785 2.383-.785 3.654-.918 1.27-.133 2.698-.55 3.215-1.714.168-.392.24-.823.56-1.078.322-.255.88-.208 1.337-.243 1.007-.1 1.852-.8 2.138-1.77" stroke="#0C1238" stroke-width="2"/></g></svg>