<?xml version="1.0" encoding="utf-8"?>
<!-- Generator: Adobe Illustrator 22.0.1, SVG Export Plug-In . SVG Version: 6.00 Build 0)  -->
<svg version="1.1" xmlns="http://www.w3.org/2000/svg" xmlns:xlink="http://www.w3.org/1999/xlink" x="0px" y="0px"
	 viewBox="0 0 154.9 154.9" style="enable-background:new 0 0 154.9 154.9;" xml:space="preserve">
<style type="text/css">
	.st0{fill:#F4F6F8;}
	.st1{clip-path:url(#SVGID_6_);}
	.st2{opacity:0.5;fill:#E8EAF2;stroke:#E8EAF2;stroke-width:2.9118;enable-background:new    ;}
	.st3{fill:none;stroke:#E8EAF2;stroke-width:2.9118;}
	.st4{opacity:0.5;fill:#FFFFFF;stroke:#FFFFFF;stroke-width:2.9118;enable-background:new    ;}
	.st5{fill:#E8EAF2;}
	.st6{fill:#E0E3ED;}
	.st7{fill:none;stroke:#FFFFFF;stroke-width:1.9412;}
	.st8{fill:#0C1238;}
	.st9{fill:#46C0C0;stroke:#46C0C0;stroke-width:2.9118;}
	.st10{fill:none;stroke:#FFC14D;stroke-width:1.9412;}
	.st11{opacity:0.5;}
	.st12{fill:none;stroke:#DFE3E8;stroke-miterlimit:10;}
	.st13{fill:#FDFDFE;}
	.st14{fill:#647481;}
	.st15{fill:#FDFDFE;stroke:#C4CDD5;stroke-width:0.7811;stroke-miterlimit:10;}
	.st16{fill:#5600E3;}
	.st17{fill:#FFFFFF;}
	.st18{fill:#FDFDFE;stroke:#C4CDD5;stroke-width:0.7162;stroke-miterlimit:10;}
	.st19{fill:#606EC6;}
	.st20{opacity:0.2;fill:#212B35;}
	.st21{fill:#67D690;}
	.st22{clip-path:url(#SVGID_10_);}
	.st23{fill:#E76574;}
	.st24{clip-path:url(#SVGID_14_);}
	.st25{fill:none;stroke:#E8EAF2;stroke-width:3;stroke-miterlimit:10;}
	.st26{opacity:0.5;fill:#E8EAF2;stroke:#E8EAF2;stroke-width:3;stroke-miterlimit:10;enable-background:new    ;}
	.st27{fill:#E0E3ED;stroke:#E0E3ED;stroke-width:2;stroke-miterlimit:10;}
	.st28{fill:#E8EAF2;stroke:#E8EAF2;stroke-width:3;stroke-miterlimit:10;}
	.st29{fill:#7581CE;}
	.st30{fill:#2F3155;}
	.st31{fill:#3E4166;}
	.st32{fill:#5053AB;}
	.st33{fill:none;stroke:#0C1238;stroke-miterlimit:10;}
	.st34{fill:url(#SVGID_17_);}
	.st35{fill:#DDA000;stroke:#DDA000;stroke-width:3;stroke-miterlimit:10;}
	.st36{fill:#FFC14D;stroke:#FFC14D;stroke-width:3;stroke-miterlimit:10;}
	.st37{fill:#FFFFFF;stroke:#FFFFFF;stroke-width:3;stroke-miterlimit:10;}
	.st38{fill:none;stroke:#F4F6F8;stroke-miterlimit:10;}
	.st39{opacity:0.7;fill:#E8EAF2;enable-background:new    ;}
	.st40{clip-path:url(#SVGID_19_);}
	.st41{fill:url(#SVGID_22_);}
	.st42{fill:#FFFFFF;stroke:#E2E3E6;stroke-miterlimit:10;}
	.st43{fill:#5F6DC5;stroke:#3F4EAE;stroke-miterlimit:10;}
	.st44{fill:#E6E7F1;}
	.st45{fill:#FBB563;}
	.st46{fill:#B9BAD5;}
	.st47{fill:#5F5371;}
	.st48{fill:#857B98;}
	.st49{fill:#FDEED1;}
	.st50{fill:#E6E8F0;}
	.st51{opacity:0.6;}
	.st52{fill:none;stroke:#67D690;stroke-width:19;stroke-linecap:round;stroke-miterlimit:10;}
	.st53{opacity:0.1;fill:none;stroke:#413351;stroke-width:5;stroke-linecap:round;stroke-miterlimit:10;}
	.st54{opacity:0.1;fill:#212B35;}
	.st55{fill:#FCF1CD;}
	.st56{fill:#FDFDFE;stroke:#DFE3E8;stroke-width:0.75;stroke-miterlimit:10;}
	.st57{fill:none;stroke:#637381;stroke-width:2;stroke-miterlimit:10;}
	.st58{fill:#A0C858;}
	.st59{fill:#A0C758;}
	.st60{fill:#A0C757;}
	.st61{fill:#A7CB65;}
	.st62{fill:#A2C85B;}
	.st63{fill:#A3C95D;}
	.st64{fill:#A9CC67;}
	.st65{fill:#8891EA;stroke:#8891EA;stroke-width:3;stroke-linecap:round;stroke-linejoin:round;stroke-miterlimit:10;}
	.st66{fill:#6C74C4;stroke:#6C74C4;stroke-width:3;stroke-linecap:round;stroke-linejoin:round;stroke-miterlimit:10;}
	.st67{fill:#F5F5F7;}
	.st68{fill:#FFC04D;stroke:#FFC04D;stroke-width:2;stroke-linecap:round;stroke-linejoin:round;stroke-miterlimit:10;}
	.st69{fill:#D5DAEA;}
	.st70{fill:none;stroke:#FFC04D;stroke-width:2;stroke-linecap:round;stroke-linejoin:round;stroke-miterlimit:10;}
	.st71{fill:#FFC04D;}
	.st72{fill:#8891EA;}
	.st73{fill:#6C74C4;}
	.st74{fill:#FFD57D;}
</style>
<g id="background">
</g>
<g id="Designed_by_freepik">
	<rect class="st50" width="154.9" height="154.9"/>
	<g>
		<path id="XMLID_51_" class="st8" d="M107.6,77.3h-8.3V49.7c0-12-9.8-21.8-21.8-21.8s-21.8,9.8-21.8,21.8v27.6h-8.3V49.7
			c0-16.6,13.5-30.2,30.2-30.2s30.2,13.5,30.2,30.2V77.3z"/>
		<path id="XMLID_48_" class="st72" d="M120.4,119.1c0,1.8-1.4,3.2-3.2,3.2H37.7c-1.8,0-3.2-1.4-3.2-3.2V67.5c0-1.8,1.4-3.2,3.2-3.2
			h79.5c1.8,0,3.2,1.4,3.2,3.2V119.1z"/>
		<path class="st73" d="M120.4,119.1V87.5c-26.2,22.2-63.9,30.5-85.3,33.5c0.6,0.8,1.5,1.3,2.6,1.3h79.5
			C119,122.3,120.4,120.9,120.4,119.1z"/>
		<path class="st8" d="M84.5,84.5c0-3.9-3.2-7.1-7.1-7.1c-3.9,0-7.1,3.2-7.1,7.1c0,2.3,1.1,4.4,2.9,5.7L71,106.3h13l-2.3-16.1
			C83.4,88.9,84.5,86.9,84.5,84.5z"/>
		<path class="st17" d="M37.2,70.4v11.1c0.3-4.7,2.6-15,16.8-15H41C38.9,66.5,37.2,68.2,37.2,70.4z"/>
		<path class="st8" d="M71,106.3c0,0,9.6-2.7,10.7-16.1l2.3,16.1H71z"/>
	</g>
</g>
</svg>
