<svg xmlns="http://www.w3.org/2000/svg" viewBox="0 0 470 350" enable-background="new 0 0 470 350"><g><path fill="#D5DAEA" d="M135.49 246.36c1.45-1.44 2.82-2.93 3.97-4.51 1.16-1.59 2.04-3.3 2.72-5.1.33-.9.66-1.83.79-2.8.16-.96.22-2.04.29-3.05.08-2.05.12-4.09-.01-6.09-.1-4.01-.69-7.87-2.19-11.48-1.51-3.6-3.81-6.91-6.7-9.64-1.43-1.38-2.99-2.63-4.66-3.74-1.65-1.13-3.38-2.15-5.2-2.99-3.64-1.67-7.56-2.69-11.58-2.85-2.01-.07-4.01.24-5.97.71-1.96.46-3.86 1.14-5.7 1.98-1.86.81-3.62 1.85-5.29 3.02-.41.3-.84.59-1.23.91l-1.14 1.02c-.38.34-.78.66-1.13 1.03l-1.05 1.11c-2.8 2.94-5.21 6.3-6.77 10.07-.34.96-.75 1.89-1.03 2.87-.21 1-.51 1.97-.56 3-.08 1.01-.24 2.01-.26 3.02l-.1 1.5c0 .5.02 1 .03 1.51.1 4.01 1.01 7.97 2.65 11.61.43.9.91 1.78 1.36 2.67l1.68 2.47.42.62c.15.2.33.37.49.56l.97 1.13.97 1.13 1.1 1c1.35 1.46 2.96 2.64 4.58 3.8l2.57 1.55c.91.42 1.85.77 2.77 1.16.45.21.94.33 1.42.47l1.44.41c.95.32 1.95.44 2.93.61l1.48.25 1.5.09c1 .04 1.99.19 2.99.13 1-.03 2.01.09 3-.05.99-.12 2-.21 3-.36l2.91-.8c.97-.27 1.87-.73 2.81-1.09 3.64-1.67 6.92-4.04 9.73-6.86zm2.23 2.23c-3.12 3.08-6.79 5.62-10.83 7.35l-1.53.61c-.51.19-1.01.44-1.55.56l-3.18.89-3.25.64c-.54.13-1.09.16-1.64.21-.55.05-1.1.11-1.66.14-1.11.12-2.22.01-3.32-.09l-1.66-.14-1.63-.32c-1.08-.23-2.19-.37-3.23-.77l-1.58-.51c-.53-.17-1.06-.33-1.55-.58-4.11-1.63-7.9-4.06-11.04-7.15l-1.16-1.17-1.02-1.3-1.01-1.3-.49-.65-.42-.71-1.74-2.77c-.5-.97-1.03-1.92-1.5-2.91-1.81-3.97-2.98-8.32-3.05-12.75 0-.55-.02-1.11-.01-1.66l.12-1.65c.07-1.11.35-2.19.66-3.24.72-2.09 1.29-4.18 2.03-6.24 1.52-4.09 3.69-8.05 6.8-11.22.38-.4.81-.76 1.21-1.13.41-.37.87-.68 1.3-1.02.44-.33.86-.69 1.29-1.02.45-.31.88-.64 1.32-.97 1.77-1.28 3.61-2.5 5.61-3.46 2-.92 4.08-1.77 6.27-2.19.54-.14 1.1-.19 1.64-.29.55-.1 1.1-.18 1.65-.22 1.1-.12 2.21-.17 3.32-.27 1.11-.03 2.23-.1 3.35-.01.56.02 1.11.09 1.66.19.55.08 1.1.19 1.64.33l1.61.45c.53.16 1.04.39 1.56.58 1.04.37 2.02.88 3.01 1.34.97.51 1.92 1.04 2.87 1.56.97.49 1.91 1.05 2.81 1.65 1.78 1.26 3.4 2.72 4.89 4.29 2.97 3.14 5.58 6.6 7.46 10.52.95 1.96 1.6 4.06 2.09 6.19.48 2.13.66 4.31.7 6.47-.06 2.16-.26 4.29-.56 6.4l-.48 3.16c-.17 1.09-.33 2.19-.65 3.27-.58 2.17-1.71 4.17-2.95 5.99-1.24 1.77-2.7 3.38-4.18 4.92zM141.42 254.2c-.57-.39-1.11-.81-1.5-1.38-.2-.28-.33-.63-.56-.89-.21-.28-.49-.48-.78-.67-.29-.19-.57-.39-.79-.65-.22-.26-.41-.55-.61-.83-.19-.3-.51-.45-.81-.63-.27-.21-.52-.44-.72-.72l1.91-1.91c.64.32 1.1.83 1.48 1.4.49.47 1 .92 1.34 1.54.18.3.37.59.62.82.24.25.55.42.79.65.28.21.41.55.64.8.24.24.52.45.89.55l-1.9 1.92z"/><path fill="#E6E8F0" d="M176.26 281.31l-5.82 5.82c-.47.47-1.24.47-1.71 0l-28.4-28.4c-.47-.47-.47-1.24 0-1.71l5.82-5.82c.47-.47 1.24-.47 1.71 0l28.4 28.4c.47.47.47 1.23 0 1.71zM177.21 282.26l-4.56 4.67-1.14 1.17-.26.24c-.12.09-.24.18-.37.25-.26.15-.55.25-.84.3-.59.11-1.21 0-1.74-.28-.13-.07-.26-.16-.38-.25l-.27-.25-.29-.28-.58-.57-1.15-1.15c-3.06-3.09-6.18-6.13-9.19-9.26l-9.08-9.38c-1.5-1.57-3.06-3.09-4.61-4.61l-2.33-2.28-.58-.57c-.2-.23-.33-.26-.73-.81-.62-.94-.48-2.29.33-3.08l4.56-4.67 1.14-1.17.26-.24c.11-.09.23-.17.36-.25.25-.14.53-.24.82-.29.57-.1 1.18 0 1.69.28.13.07.25.15.36.24l.26.24.29.29.57.58 1.14 1.16 9.13 9.32c1.51 1.56 3.08 3.07 4.61 4.61l4.7 4.53c1.58 1.5 3.09 3.06 4.63 4.6l2.3 2.31.57.58c.2.23.32.25.74.83.64.99.48 2.38-.36 3.19zm-1.91-1.91c-.05.04-.08.12-.04.19l-.37-.35-.59-.57-2.34-2.27c-1.55-1.52-3.14-3.01-4.66-4.57l-4.6-4.63c-1.52-1.56-3.01-3.14-4.56-4.67l-9.23-9.22-1.15-1.15-.58-.58-.29-.29-.03-.03.03.02.13.01.06-.03.02-.02-.04.04-1.17 1.14-4.68 4.54-.01-.06.94.97 2.28 2.34c1.52 1.56 3.03 3.12 4.59 4.64l9.28 9.17c3.1 3.05 6.09 6.21 9.16 9.3l1.14 1.16.59.57.29.28.07.06.05-.01.01-.01.01-.01.05-.06 1.13-1.17 4.51-4.73z"/><path fill="#fff" d="M107.94 203.48c1.52-5.09 10.88-7.59 17.52-3.03 4.03 2.77 6.86 6.97 9.07 11.32 1.89 3.73 3.42 7.73 3.63 11.91.21 4.18-1.05 8.56-4.06 11.47-10.56 10.19-12.89-14.61-16.98-19.11-1.52-1.68-3.5-2.87-5.25-4.31-3.66-3-4.63-5.9-3.93-8.25z"/><path fill="#D5DAEA" d="M377.7 155.66c-1.22 1.25-2.72 2.26-4.37 2.85-1.71.31-3.27 1.26-5.1 1.4-1.8.12-3.62-.31-5.24-1.06-1.64-.74-3.08-1.84-4.32-3.1l-.87-1c-.26-.35-.51-.72-.76-1.08-.22-.38-.42-.78-.61-1.17-.17-.4-.33-.81-.49-1.22-.14-.41-.25-.84-.37-1.25-.09-.42-.16-.85-.24-1.27-.06-.43-.06-.86-.08-1.29l.05-1.28c.06-.42.1-.84.11-1.26l.17-1.25c.16-.83.46-1.63.79-2.4.76-1.51 1.76-2.84 2.84-4.11 1.16-1.21 2.66-2.05 4.18-2.66.77-.31 1.56-.52 2.34-.91.4-.16.81-.27 1.23-.36l1.27-.12c1.71-.08 3.45.2 5.07.83 1.59.65 3.2 1.47 4.44 2.73.28.34.57.67.83 1.02.24.37.46.75.69 1.12.41.77.81 1.53 1.17 2.32.7 1.57 1.19 3.3 1.08 5.05-.06.43-.13.86-.21 1.29-.12.42-.19.84-.27 1.26-.1.42-.18.84-.29 1.25l-.39 1.23c-.58 1.6-1.46 3.15-2.65 4.44zm-2.23-2.23c.93-.98 1.64-2.13 2.14-3.36.12-.31.21-.63.31-.94l.2-.97c.03-.33.03-.66.02-.99-.04-.33-.09-.66-.11-.98-.1-1.28-.18-2.57-.59-3.82-.38-1.26-1.16-2.37-2.04-3.35-.22-.25-.46-.49-.67-.75-.23-.25-.48-.48-.73-.72-.27-.21-.56-.38-.86-.56-.31-.14-.63-.26-.94-.39-1.29-.46-2.67-.51-3.97-.46l-.98.09c-.32.07-.66.02-1.01-.04-.34-.02-.71-.08-1.04.03-.32.13-.64.24-.94.41-1.2.69-2.04 1.77-2.98 2.63-.24.22-.51.41-.78.61-.24.23-.46.47-.65.74s-.32.58-.48.86l-.38.91-.34.92c-.09.31-.15.64-.28.94l-.24.97c-.03.33-.03.66.01.99l.25.97c.11.31.15.63.16.96.06.32.07.65.09.98.05.32.06.67.14 1.01.1.32.17.66.32.96.19.28.39.56.54.86.32.6.65 1.21 1.03 1.82.81 1.18 2.1 1.96 3.44 2.37 1.35.45 2.75.5 4.11.48 1.33.01 2.86.19 4.01-.73 1.22-.65 2.34-1.44 3.24-2.45z"/><path fill="#fff" d="M376.59 193.04c-4.62 4.62-12.1 4.62-16.72 0-4.62-4.62-4.62-12.1 0-16.72 4.62-4.62 12.1-4.62 16.72 0 4.61 4.62 4.61 12.11 0 16.72z"/><path fill="#E6E8F0" d="M356.99 124.8c-7.42 7.42-19.44 7.42-26.86 0-7.42-7.42-7.42-19.44 0-26.86 7.42-7.42 19.44-7.42 26.86 0 7.41 7.42 7.41 19.44 0 26.86zM357.94 125.75c-3.72 3.81-9.02 6.1-14.39 6.09-5.35 0-10.73-2.17-14.44-6.04-3.74-3.83-5.84-9.15-5.77-14.44.05-2.64.55-5.28 1.54-7.73s2.48-4.71 4.34-6.6c3.71-3.78 8.98-6.12 14.34-6.02 5.34 0 10.61 2.26 14.3 6.06 3.71 3.76 5.98 8.96 6.05 14.3.07 5.34-2.19 10.64-5.97 14.38zm-1.91-1.91c1.61-1.66 2.89-3.63 3.73-5.76.86-2.13 1.25-4.43 1.28-6.71.01-2.29-.44-4.58-1.31-6.7-.85-2.12-2.1-4.11-3.74-5.73-3.26-3.27-7.82-5.15-12.44-5.15-2.3.01-4.6.45-6.75 1.29-2.14.85-4.12 2.13-5.79 3.75-3.32 3.24-5.37 7.84-5.32 12.54 0 4.69 1.95 9.31 5.29 12.57 1.67 1.62 3.61 2.97 5.75 3.88 2.14.92 4.48 1.4 6.82 1.42 4.71.04 9.3-2.04 12.48-5.4z"/><path fill="#fff" d="M333.06 110.02c1.75-.13 3.5-.21 5.25-.09.88.05 1.75.21 2.62.23.88.05 1.75-.01 2.62-.08.88-.07 1.75-.13 2.62-.1.88.03 1.75.1 2.62.15.88.08 1.75-.06 2.62-.12.44-.05.88-.03 1.31-.03.44 0 .88 0 1.31.03.75.06 1.3.71 1.25 1.45-.05.66-.56 1.17-1.19 1.24l-.05.01c-.88.1-1.75.14-2.62.17-.88.03-1.75-.09-2.62-.11-1.75.02-3.5.03-5.25-.15-.88-.08-1.75-.15-2.62-.14-.88-.01-1.75.09-2.62.1-.88.05-1.75-.1-2.62-.12-.88 0-1.75.05-2.62.24-.73.16-1.45-.3-1.62-1.03-.16-.73.3-1.45 1.03-1.62l.19-.03h.39zM344.91 100.87c.13 1.75.21 3.5.09 5.25-.05.88-.21 1.75-.23 2.62-.05.88.01 1.75.08 2.62.07.88.13 1.75.1 2.62-.03.88-.1 1.75-.15 2.62-.08.88.06 1.75.12 2.62.05.44.03.88.03 1.31.01.44 0 .88-.03 1.31-.06.75-.71 1.3-1.45 1.25-.66-.05-1.17-.56-1.24-1.19l-.01-.05c-.1-.88-.14-1.75-.17-2.62-.03-.88.09-1.75.11-2.62-.02-1.75-.03-3.5.14-5.25.08-.88.15-1.75.14-2.62.01-.88-.09-1.75-.1-2.62-.05-.88.1-1.75.12-2.62 0-.88-.05-1.75-.24-2.62-.16-.73.3-1.45 1.03-1.62.73-.16 1.45.3 1.62 1.03l.03.19.01.39z"/><g fill="#D5DAEA"><path d="M248.62 295.12l-1.75 1.79c-.6.62-1.59.63-2.21.02l-.01-.01-.01-.01-1.77-1.77c-.61-.61-.61-1.6 0-2.21.61-.61 1.59-.61 2.21-.01l.01.01 1.78 1.75h-2.23l1.76-1.78c.61-.62 1.6-.62 2.22-.01.61.61.62 1.59.02 2.21l-.02.02zM235.53 287.81l-3.67-3.67c-.59-.59-.59-1.54 0-2.13.59-.59 1.54-.59 2.13-.01l.01.01 3.7 3.64c.6.59.61 1.56.02 2.16s-1.56.61-2.16.02l-.03-.02zM224.51 276.81l-3.62-3.72c-.53-.55-.52-1.42.03-1.95.53-.52 1.38-.52 1.91-.01l.01.01 3.75 3.59c.59.56.61 1.49.05 2.08-.56.59-1.49.61-2.08.05l-.05-.05zM213.52 265.77l-3.76-3.58c-.57-.55-.59-1.45-.05-2.02.55-.57 1.45-.59 2.02-.05l.03.03.02.02 3.64 3.7c.52.53.51 1.38-.02 1.9-.52.51-1.35.51-1.87.02l-.01-.02zM202.25 255.02c-1.25-1.19-2.52-2.38-3.74-3.61-.64-.65-.64-1.7.01-2.34.64-.63 1.67-.64 2.31-.02l.01.01c1.24 1.2 2.45 2.45 3.66 3.68.62.63.61 1.64-.02 2.27-.62.61-1.6.61-2.23.02v-.01zM191.14 244.11l-3.69-3.65c-.63-.62-.63-1.63-.01-2.26.62-.62 1.62-.63 2.24-.02l.02.02 3.73 3.62c.64.62.66 1.65.03 2.3s-1.65.66-2.3.03l-.01-.01-.01-.03zM180.12 233.09l-3.65-3.69c-.57-.57-.56-1.5.01-2.07.57-.56 1.48-.56 2.05-.01l.01.01 3.72 3.62c.6.58.61 1.54.03 2.14-.58.6-1.54.61-2.14.03l-.01-.01-.02-.02zM169.16 222.03l-1.76-1.78-.02-.02c-.69-.69-.68-1.82.01-2.5l1.78-1.76c.54-.53 1.4-.53 1.94 0 .53.53.53 1.4 0 1.93l-1.76 1.78v-1.39l1.78 1.76c.55.54.56 1.42.02 1.97s-1.43.56-1.98.02l-.01-.01zM175.96 209.22l3.39-3.38.02-.02c.56-.56 1.46-.55 2.02 0 .56.56.55 1.46 0 2.02l-.01.01-3.44 3.33-.02.02c-.55.54-1.43.52-1.97-.03-.53-.54-.52-1.41.01-1.95zM186.14 199.08l3.39-3.38.03-.03c.61-.61 1.59-.6 2.2 0 .61.61.6 1.59 0 2.2l-.02.02-3.46 3.32-.03.03c-.6.58-1.56.56-2.14-.04-.56-.6-.55-1.54.03-2.12zM196.36 188.98l3.41-3.36.03-.03c.6-.59 1.56-.58 2.15.02.59.6.58 1.56-.02 2.15l-.01.01c-.57.55-1.16 1.1-1.72 1.66l-1.69 1.7-.01.01c-.59.6-1.56.6-2.15 0-.6-.59-.6-1.56 0-2.15l.01-.01zM206.6 178.89l3.41-3.36.03-.03c.64-.63 1.66-.62 2.29.02.63.64.62 1.66-.02 2.29l-.01.01-3.44 3.33-.03.03c-.63.61-1.64.59-2.25-.04-.62-.63-.61-1.63.02-2.25zM216.84 168.82l3.43-3.34c.61-.6 1.59-.58 2.19.03.58.59.58 1.54.02 2.14l-.01.02c-1.1 1.16-2.19 2.32-3.32 3.45l-.02.02c-.63.63-1.66.63-2.29 0-.63-.63-.63-1.66 0-2.29v-.03zM227.13 158.79l3.38-3.39.01-.01c.54-.54 1.42-.54 1.96 0s.54 1.42 0 1.96l-3.4 3.38-.01.01c-.54.53-1.41.53-1.94-.01-.54-.54-.54-1.41 0-1.94zM237.25 148.59l3.4-3.38.01-.01c.57-.56 1.48-.56 2.04.01.56.57.56 1.48 0 2.04l-3.39 3.39-.01.01c-.57.57-1.49.57-2.05 0s-.57-1.49 0-2.06zM247.45 138.47l.57-.56.01-.01c.13-.13.29-.21.45-.25l3.87-.97c.74-.19 1.49.26 1.68 1 .18.73-.26 1.48-.99 1.68l-3.85 1.03.83-.48-.56.57c-.55.56-1.45.57-2.01.02-.56-.55-.57-1.45-.02-2.01l.02-.02zM261.64 134.35c1.55-.38 3.1-.77 4.64-1.19l.02-.01c.71-.19 1.44.23 1.63.94.19.71-.23 1.44-.94 1.63l-.05.01c-1.56.36-3.1.76-4.64 1.17h-.01c-.71.19-1.43-.23-1.62-.94-.19-.71.23-1.43.94-1.62l.03.01zM275.54 130.7l4.63-1.23c.79-.21 1.61.26 1.82 1.05.21.79-.26 1.61-1.05 1.82l-.02.01c-1.55.39-3.09.8-4.64 1.17h-.02c-.78.19-1.57-.3-1.75-1.08-.2-.77.27-1.54 1.03-1.74zM289.45 127.11l4.64-1.18c.71-.18 1.43.25 1.6.96.18.7-.24 1.4-.92 1.6l-.02.01-4.61 1.29c-.73.2-1.49-.22-1.7-.96s.22-1.49.96-1.7l.03-.01.02-.01zM303.37 123.56l2.42-.62c.3-.08.61.02.82.22l1.77 1.77c.46.46.46 1.2 0 1.66-.45.45-1.18.46-1.64.02l-.01-.01-1.8-1.73 1.47.4-2.41.67c-.65.18-1.32-.2-1.5-.85-.18-.65.2-1.32.85-1.5h.02l.01-.03zM316.58 132.97l4.16 3.96.02.02c.55.53.58 1.4.05 1.96-.53.55-1.4.58-1.96.05l-.06-.06-3.9-4.22-.02-.02c-.45-.49-.42-1.24.07-1.69.46-.44 1.18-.43 1.64 0zM328.99 144.92l4.09 4.03c.58.57.59 1.51.02 2.1s-1.51.59-2.1.02l-.01-.01-4.1-4.02c-.59-.58-.6-1.52-.02-2.11s1.52-.6 2.11-.02l.01.01zM341.26 157.01l1.78 1.75c.36.36.48.87.34 1.32l-.01.02-.72 2.4c-.23.77-1.05 1.21-1.82.98-.77-.23-1.21-1.05-.98-1.82v-.02l.71-2.4.4 1.59-1.79-1.75c-.58-.57-.59-1.5-.02-2.08s1.5-.59 2.08-.02l.03.03zM339.68 172.46l-1.49 4.98c-.23.76-1.03 1.19-1.78.96-.76-.23-1.19-1.03-.96-1.78v-.02l1.47-4.98c.23-.76 1.03-1.2 1.79-.97.76.23 1.2 1.03.97 1.79v.02zM335.23 187.4l-1.47 4.98c-.24.81-1.09 1.28-1.91 1.04-.81-.24-1.28-1.09-1.04-1.91l.01-.03 1.57-4.95c.25-.78 1.08-1.21 1.86-.97.78.25 1.21 1.07.98 1.84zM330.77 202.34c-.49 1.66-1.04 3.31-1.55 4.96l-.01.02c-.27.87-1.19 1.35-2.06 1.08-.87-.27-1.35-1.19-1.08-2.06.52-1.65 1.01-3.31 1.55-4.96l.01-.02c.28-.86 1.21-1.33 2.07-1.05.86.28 1.33 1.18 1.07 2.03zM325.6 217.75l-3.71 3.64-.02.02c-.63.62-1.63.61-2.25-.02-.61-.62-.61-1.63.01-2.24l3.68-3.67.02-.02c.63-.63 1.65-.62 2.27 0 .63.64.63 1.66 0 2.29zM314.53 228.74l-3.65 3.7-.01.01c-.64.65-1.69.66-2.34.01-.65-.64-.65-1.69-.01-2.33l.02-.02 3.71-3.64.01-.01c.64-.62 1.66-.62 2.28.02.61.62.61 1.63-.01 2.26zM303.57 239.83l-3.65 3.7c-.68.69-1.78.69-2.46.02-.69-.67-.69-1.78-.02-2.46l.02-.02 3.69-3.66c.67-.67 1.76-.67 2.43 0 .65.67.65 1.75-.01 2.42zM292.58 250.88l-3.72 3.63c-.66.64-1.72.63-2.36-.03-.63-.65-.63-1.68 0-2.33l3.62-3.73c.67-.69 1.77-.71 2.46-.04.69.67.71 1.77.04 2.46l-.04.04zM281.42 261.77c-1.25 1.2-2.44 2.46-3.66 3.69-.58.58-1.52.58-2.1 0-.58-.58-.58-1.51-.01-2.09l.01-.01c1.21-1.24 2.45-2.45 3.64-3.71.57-.6 1.52-.63 2.12-.06s.63 1.52.06 2.12l-.06.06zM270.46 272.86l-3.65 3.7c-.58.59-1.53.6-2.13.02-.59-.58-.6-1.53-.02-2.13l.01-.01 3.66-3.69c.58-.59 1.53-.59 2.12-.01s.6 1.52.01 2.12zM259.53 283.98l-3.64 3.71c-.59.61-1.57.62-2.18.02-.61-.59-.62-1.57-.02-2.18l.01-.01.01-.01 3.66-3.69c.59-.6 1.56-.6 2.16-.01.6.59.6 1.55.02 2.15l-.02.02z"/></g><path fill="#fff" d="M165.62 80.59c0 10.12-8.22 18.34-18.34 18.34-4.85 0-9.3-1.9-12.58-5.01 0-.13 0-.28.02-.41.41-4.66 3.13-9.06 7.1-11.52 2.65-1.66 5.85-2.52 8.16-4.66 2.98-2.74 3.88-7.06 4.03-11.09.04-.88.04-1.79.04-2.68 6.78 2.69 11.57 9.31 11.57 17.03zM165.62 119.57v33.3h-32.79c1.63-4.56 4.78-8.58 8.89-11.13 3.74-2.34 8.26-3.56 11.51-6.59 4.21-3.86 5.49-9.95 5.7-15.66v-.06c.06-1.22.06-2.48.06-3.72 2.34.92 4.5 2.18 6.45 3.72l.18.14z"/><path fill="#0C1238" d="M166.57 118.47l.22 8.51c.07 2.85.16 5.71.19 8.6.06 5.76.15 11.54.06 17.29v.04c-.01.78-.65 1.4-1.43 1.39l-16.72-.21c-2.79-.05-5.57-.02-8.36 0l-8.36.06c-.7.01-1.27-.56-1.28-1.26v-.02l-.07-8.36c-.04-2.79-.04-5.57-.01-8.36l.14-16.72v-.01c.01-.67.55-1.21 1.23-1.21l8.59.02 8.65-.04c2.9-.01 5.75.07 8.61.11l8.54.17zm-1.91 1.92l-8.22.24c-2.72.07-5.45.18-8.12.2l-8.06.06-8.08-.05 1.41-1.41.01 16.72c.02 5.57-.11 11.15-.15 16.72l-1.26-1.26c5.57.04 11.15.16 16.72.13l16.72-.08-1.22 1.22c-.03-2.71.02-5.42.06-8.14l.13-8.15c.07-2.74.02-5.41.05-8.12.01-2.72.02-5.42.01-8.08zM166.97 80.59c.06 5.15-2 10.35-5.68 14.01-3.66 3.66-8.82 5.86-14.01 5.75-5.18-.06-10.26-2.27-13.82-5.95-1.77-1.84-3.24-3.98-4.24-6.34-1-2.35-1.53-4.91-1.56-7.48-.05-5.12 1.96-10.33 5.69-13.93 3.66-3.65 8.8-5.72 13.93-5.64 2.55.03 5.14.5 7.48 1.51 2.37.94 4.6 2.34 6.43 4.15 3.73 3.6 5.78 8.78 5.78 13.92zm-2.71 0c-.06-2.22-.5-4.43-1.39-6.46-.89-2.03-2.16-3.87-3.71-5.43-1.55-1.58-3.41-2.81-5.45-3.67-2.02-.91-4.2-1.39-6.43-1.38-4.44 0-8.83 1.82-11.97 4.97-1.56 1.57-2.83 3.44-3.72 5.47-.88 2.04-1.36 4.26-1.39 6.49-.06 4.46 1.69 8.99 4.92 12.15 3.18 3.2 7.66 5.02 12.15 4.97 2.24-.04 4.48-.44 6.56-1.27 2.09-.83 4-2.09 5.61-3.67 3.24-3.17 4.95-7.72 4.82-12.17z"/><path fill="#FFC04D" d="M176.4 135.12c.74-.03 1.48 0 2.21.02.74-.08 1.48.33 2.22.07.74-.18 1.48-.46 2.22-.45.35-.05.77-.02 1.07-.03.3-.02.61 0 .91-.03 1.21-.09 2.41-.42 3.51-.99 1.09-.59 2.03-1.44 2.83-2.41.83-.95 1.44-2.1 1.82-3.34l.27-.95c.08-.32.11-.65.16-.98.11-.71.05-1.47.04-2.2-.02-1.48.1-2.95.18-4.43.11-1.48-.17-2.95-.03-4.43.04-1.48.16-2.95.04-4.43-.37-1.48-.35-2.95-.43-4.43-.08-1.48-.1-2.95-.15-4.43-.07-1.48-.25-2.95-.13-4.43.05-.74.17-1.48.19-2.22.05-.74.02-1.48-.01-2.21-.05-1.48-.21-2.95 0-4.43.26-1.48.18-2.95.1-4.43l-.26-4.43c-.05-.87.61-1.61 1.48-1.67.87-.05 1.61.61 1.67 1.48v.19l.09 4.43c.02 1.48.02 2.95.3 4.43.21 1.48.01 2.95-.07 4.43-.14 1.48-.14 2.95-.19 4.43-.01.74-.05 1.48-.16 2.22-.11.74-.17 1.48-.15 2.21.03 1.48.18 2.95.3 4.43.08 1.48.29 2.95-.28 4.43-.1 1.48.29 2.95.48 4.43.08.74.18 1.48.05 2.21-.13.74-.23 1.48-.2 2.22.08 1.48.13 2.95.02 4.43-.07.75-.15 1.46-.04 2.24.09.85.2 1.76-.07 2.6-.45 1.73-1.7 3.03-2.52 4.47-1 1.38-2.58 2.15-3.97 2.91-1.41.76-2.9 1.43-4.52 1.74-.4.09-.81.12-1.22.18l-1.13.14c-.74.09-1.48-.08-2.22-.18-.74-.17-1.48.26-2.22.22-.74.05-1.48.13-2.21.14-.87.01-1.58-.69-1.59-1.56-.01-.85.66-1.55 1.51-1.59l.1-.02z"/><path fill="#8891EA" stroke="#8891EA" stroke-width="3" stroke-linecap="round" stroke-linejoin="round" stroke-miterlimit="10" d="M305.06 154.81l-32.17-32.06-57.28 14.84-80.07 80.39 23.58 23.5 53.53 53.31 78.97-79.29 17.37-56.79-3.93-3.9zm-41.28-3.02c7.14 0 12.95 5.8 12.95 12.95s-5.8 12.95-12.95 12.95c-7.14 0-12.95-5.8-12.95-12.95s5.81-12.95 12.95-12.95z"/><path fill="#6C74C4" stroke="#6C74C4" stroke-width="3" stroke-linecap="round" stroke-linejoin="round" stroke-miterlimit="10" d="M308.98 158.72l-17.37 56.79-78.97 79.29-53.53-53.31c3.84-5.54 8.22-10.87 13.46-15.02 1.92-1.49 3.93-2.85 6.08-3.97 17.97-9.45 40.04-2.52 60.07-5.89 12.21-2.05 23.73-8.13 32.32-17.09 12.97-13.53 19.83-33.53 34-44.7l3.94 3.9z"/><path fill="#F4F6F8" d="M195.3 192.41c3.74 1.4 7.72 2.01 11.71 2.12 1 .03 2 .01 3-.08 1-.12 1.98-.29 2.96-.49 1.96-.39 3.87-1 5.75-1.64 3.74-1.31 7.4-2.98 10.59-5.3 1.58-1.16 3.07-2.46 4.23-3.95.58-.74 1.07-1.54 1.39-2.34.34-.82.41-1.54.35-2.48-.05-.87-.28-1.68-.69-2.28-.41-.6-1.01-1.02-1.79-1.24-1.58-.42-3.54.01-5.28.76-3.52 1.57-6.68 4.26-8.97 7.54-2.24 3.32-3.82 7.08-4.61 11.03-.86 3.94-.6 8.1.1 12 .41 1.93 1.19 3.78 2.35 5.36 1.16 1.58 2.68 2.9 4.42 3.85 1.75.93 3.72 1.4 5.67 1.65 1.96.26 3.95.31 5.91.06 1.96-.24 3.89-.75 5.64-1.56 1.73-.81 3.35-1.97 4.16-3.47 1.78-2.99-1.5-6.8-4.54-8.27-1.58-.77-3.42-.86-5.11-.22-1.71.6-3.21 1.87-4.31 3.42-1.11 1.54-1.89 3.34-2.32 5.21-.44 1.88-.46 3.82-.28 5.74.21 1.92.74 3.83 1.62 5.59.9 1.74 2.07 3.36 3.46 4.78 2.76 2.85 6.2 5.01 9.84 6.7.59.27.85.98.57 1.57-.27.59-.98.85-1.57.57h-.01l-.02-.01c-3.81-1.82-7.46-4.15-10.44-7.3-1.49-1.57-2.8-3.34-3.81-5.29-1.04-1.93-1.84-4.03-2.18-6.25-.39-2.21-.23-4.5.3-6.68.53-2.18 1.5-4.27 2.87-6.07.68-.9 1.49-1.73 2.39-2.45.89-.73 1.9-1.34 3.01-1.76 2.2-.89 4.85-.82 7 .2 1.08.5 2.01 1.22 2.83 2 .81.79 1.53 1.63 2.14 2.62.59.98 1.08 2.11 1.17 3.36.12 1.23-.14 2.53-.73 3.59-1.19 2.16-3.17 3.48-5.14 4.43-2 .94-4.14 1.49-6.29 1.77-2.16.26-4.36.28-6.52-.09-2.17-.38-4.19-1.35-6.11-2.37-1.95-1.01-3.7-2.46-5.11-4.2-1.39-1.76-2.44-3.82-2.95-6-.56-2.2-.7-4.27-.63-6.45.02-1.07.12-2.14.21-3.21.07-1.07.22-2.13.4-3.19.68-4.25 2.39-8.35 4.91-11.84.31-.44.64-.87.97-1.29.31-.44.64-.87.98-1.29.68-.84 1.41-1.65 2.19-2.42 1.59-1.5 3.47-2.72 5.55-3.54 2.07-.83 4.37-1.3 6.82-.8 1.2.29 2.43 1.02 3.15 2.12.71 1.1.96 2.33 1 3.47.04 1.1-.11 2.38-.59 3.41-.45 1.05-1.07 1.97-1.75 2.8-1.31 1.71-2.88 3.16-4.56 4.45-3.34 2.59-7.11 4.59-11.12 5.94-2 .69-4.09 1.08-6.17 1.39-1.04.15-2.09.25-3.15.32-1.05.09-2.1.18-3.16.22-4.23.14-8.5-.59-12.52-1.99-.62-.21-.94-.89-.73-1.5.21-.62.89-.94 1.5-.73l.02.01.03-.01z"/><path fill="#5053AB" d="M173.99 201.22c1.17 1 2.31 2.02 3.3 3.2.5.58.93 1.23 1.45 1.8.5.58 1.08 1.08 1.67 1.58.59.49 1.17.99 1.69 1.56.52.56 1.01 1.16 1.51 1.74.48.6 1.12 1.05 1.71 1.54.31.24.56.53.83.79.27.27.54.54.79.84l-1.92 1.9c-.61-.47-1.18-.99-1.74-1.51s-1.01-1.15-1.54-1.71c-1.1-1.07-2.18-2.15-3.13-3.36-.48-.6-.97-1.19-1.52-1.73-.53-.55-1.14-1.02-1.69-1.56-.57-.51-1.01-1.16-1.53-1.71-.54-.54-1.11-1.05-1.79-1.46l1.91-1.91zM190.51 217.87c3.3 3.15 6.55 6.33 9.68 9.65 1.54 1.68 3.1 3.35 4.66 5 1.55 1.67 3.24 3.18 4.89 4.72 3.38 3.01 6.7 6.02 10.29 8.69.44.35.92.64 1.38.94.46.31.93.61 1.42.89.96.56 1.96 1.05 2.95 1.55 1.01.44 1.98.98 3.01 1.39 1.01.46 2.05.81 3.07 1.23l-.87 2.56c-2.25-.68-4.45-1.57-6.53-2.65-1.03-.57-2.05-1.14-3.04-1.77-1-.62-1.92-1.34-2.89-1.98-3.83-2.66-7.33-5.71-10.53-9.01-1.64-1.61-3.17-3.31-4.81-4.9l-4.87-4.79c-1.63-1.59-3.15-3.3-4.74-4.92-.77-.84-1.64-1.58-2.45-2.38-.82-.79-1.65-1.57-2.53-2.31l1.91-1.91zM161.95 210.49c.76.64 1.48 1.31 2.04 2.12.29.4.51.87.82 1.24.29.4.67.72 1.05 1.03.38.31.76.64 1.06 1.02.31.38.59.79.88 1.19.27.41.7.69 1.09 1 .36.33.7.69.99 1.09l-2 1.82c-.83-.57-1.46-1.32-2.02-2.14-.67-.71-1.36-1.41-1.87-2.27-.27-.42-.55-.83-.89-1.18-.32-.37-.73-.66-1.06-1.02-.37-.33-.59-.79-.9-1.17-.33-.36-.7-.69-1.17-.92l1.98-1.81zM176.03 225.94l2.57 2.64 2.48 2.73c1.6 1.86 3.08 3.83 4.76 5.63 1.7 1.77 3.43 3.52 5.08 5.35l4.88 5.5c3.25 3.64 6.53 7.27 10.24 10.39 3.7 3.08 7.55 6.08 11.82 7.79l-.94 2.54c-2.49-.86-4.73-2.15-6.83-3.56-2.12-1.4-4.03-3.04-5.9-4.7-1.88-1.65-3.58-3.46-5.33-5.22-1.74-1.76-3.44-3.56-5.1-5.39-3.33-3.66-6.55-7.31-9.68-11.11-1.6-1.86-3.37-3.57-5-5.4-.79-.94-1.58-1.88-2.4-2.79-.89-.85-1.7-1.77-2.66-2.56l2.01-1.84z"/><path fill="#FFC04D" d="M269.79 156.5l4.39-4.35c.71-.75 1.54-1.38 2.29-2.08.73-.72 1.39-1.53 2.03-2.34 2.51-3.31 5.62-6.04 8.59-8.89.76-.72 1.48-1.4 2.15-2.11.68-.71 1.32-1.46 1.93-2.23 1.22-1.54 2.3-3.18 3.25-4.9 1.97-3.41 3.23-7.21 3.92-11.12.8-3.93.33-7.99-.4-11.91-.39-1.96-.92-3.92-1.68-5.78-.78-1.86-1.81-3.59-2.82-5.32-1.04-1.72-2.22-3.35-3.55-4.86-1.33-1.5-2.76-2.96-4.5-3.99-1.71-1.05-3.36-2.16-5.15-3.03-1.78-.88-3.63-1.61-5.52-2.17-1.9-.55-3.84-.97-5.81-1.17-1.99-.2-3.9-.21-5.97-.19-4.12 0-8.24-.11-12.36-.16l-6.18-.09-6.18.04-12.36.07c-4.12.07-8.24-.06-12.36-.16-4.12-.13-8.24-.09-12.36-.07l-24.73.32c-.87.01-1.58-.68-1.59-1.55-.01-.87.68-1.58 1.55-1.59h.04l24.73-.1c4.12-.03 8.24-.04 12.36-.19 4.12-.13 8.24-.24 12.36-.16 8.24.02 16.49.28 24.73.27 4.12.03 8.24.03 12.36.1 1.01.01 2.09.07 3.16.18 1.07.1 2.13.26 3.19.41 2.12.29 4.23.7 6.3 1.27 2.08.56 4.11 1.32 6.06 2.27 1.91 1.01 3.86 2.04 5.36 3.63 1.45 1.63 3.17 2.9 4.66 4.46 1.52 1.52 3.02 3.11 4.22 4.92.62.89 1.19 1.82 1.63 2.82.45.99.79 2.03 1.18 3.03.78 2.01 1.5 4.05 2.02 6.16.46 2.11.79 4.27.79 6.43l.01 1.62c-.02.54-.02 1.08-.02 1.62-.01 1.08.03 2.17-.04 3.26-.12 2.18-.8 4.29-1.6 6.3-.39 1.01-.86 1.99-1.32 2.96-.22.49-.45.98-.65 1.48-.24.48-.46.97-.72 1.44-1.1 1.85-2.41 3.56-3.83 5.14-1.36 1.62-2.87 3.15-4.27 4.65l-4.16 4.59c-.68.77-1.41 1.51-2.11 2.26l-2.27 2.1c-.75.71-1.55 1.36-2.25 2.12-.68.78-1.3 1.61-2.03 2.34l-4.26 4.48c-.6.63-1.6.66-2.23.06s-.66-1.6-.06-2.23l.03-.03.05-.03z"/></g></svg>