<svg xmlns="http://www.w3.org/2000/svg" viewBox="0 0 470 350" enable-background="new 0 0 470 350"><g><path fill="#E6E8F0" d="M316.4 110.41c-.86-.34-1.68-.7-2.46-1.1-15.4-7.84-15.92-27.98-1.43-37.95 6.96-4.79 16.32-5.9 24.21-2.86.87.33 1.69.74 2.47 1.2 18.28 10.77 10.38 53.52-22.79 40.71zM315.91 111.67l-2.21-.96c-.74-.32-1.41-.78-2.11-1.17l-1.05-.61c-.34-.22-.65-.49-.97-.73-.63-.51-1.31-.97-1.9-1.53-2.41-2.2-4.32-4.96-5.54-7.99l-.43-1.15-.22-.58-.14-.6c-.18-.8-.39-1.59-.54-2.4l-.24-2.44c-.06-.81.02-1.63.03-2.45.21-3.26 1.1-6.46 2.6-9.35 3.15-5.68 8.28-10.16 14.33-12.32 6-2.16 12.71-2.46 18.82-.37 1.52.48 3.08 1.2 4.41 2.15.34.23.7.44 1.02.7l.94.8c.66.5 1.17 1.15 1.75 1.74 2.2 2.45 3.65 5.45 4.54 8.54 1.75 6.19 1.42 12.88-.95 18.83-1.19 2.96-2.86 5.78-5.13 8.11-2.22 2.35-5.05 4.22-8.17 5.21-3.11 1.04-6.44 1.25-9.62.9-3.2-.36-6.26-1.24-9.22-2.33zm.98-2.52c2.79.99 5.64 1.75 8.53 2.04 2.89.29 5.77 0 8.46-.82 2.7-.82 5.13-2.37 7.11-4.39 1.99-2 3.57-4.47 4.61-7.17 2.1-5.39 2.33-11.55.74-17.09-.38-1.39-.95-2.72-1.59-4-.31-.65-.71-1.23-1.06-1.86-.43-.57-.82-1.16-1.28-1.7-.49-.5-.91-1.09-1.47-1.52l-.79-.7c-.27-.23-.57-.41-.86-.61-1.14-.85-2.39-1.46-3.77-1.92-5.46-1.94-11.69-1.92-17.16.17-1.37.52-2.68 1.18-3.94 1.91-1.26.74-2.37 1.71-3.52 2.6-2.15 1.97-4 4.25-5.35 6.82-1.25 2.61-2.08 5.41-2.3 8.29-.01.72-.1 1.44-.05 2.16l.2 2.16c.13.71.31 1.41.46 2.11l.12.53.19.51.38 1.02c.13.34.23.69.39 1.01l.51.96c.36.63.67 1.28 1.15 1.83.45.57.84 1.18 1.33 1.71l1.53 1.54c.52.5 1.14.89 1.7 1.34.29.21.57.45.87.64l.95.54c.64.34 1.24.76 1.91 1.03l2 .86z"/><path fill="#D5DAEA" d="M364.89 127.53l-1.48-.67c-.49-.22-.94-.54-1.42-.81l-.7-.42c-.23-.15-.43-.33-.65-.5-.42-.35-.88-.65-1.24-1.07-.71-.84-1.46-1.62-2.15-2.48-.39-.4-.68-.87-1-1.33-.33-.46-.6-.94-.82-1.46-.93-2.04-1.26-4.35-1.04-6.57.19-2.23.87-4.37 1.87-6.33.57-.94 1.11-1.9 1.84-2.72l.53-.63c.18-.2.39-.38.59-.57.4-.36.78-.75 1.2-1.09.88-.63 1.72-1.3 2.67-1.82.95-.51 1.95-.9 2.96-1.24 1.02-.29 2.02-.64 3.07-.83 1.04-.2 2.1-.29 3.16-.28 1.06.02 2.11.12 3.15.31 1.04.18 2.08.37 3.08.71.51.13.99.39 1.47.64l.72.37c.23.13.45.3.67.45.89.6 1.67 1.36 2.38 2.15 1.28 1.67 2.68 3.39 3.24 5.49.66 2.04.94 4.19.88 6.33-.07 2.13-.37 4.3-1.16 6.33-.44.99-.94 1.96-1.57 2.86l-.46.67-.52.63c-.32.44-.69.84-1.07 1.24-1.51 1.57-3.4 2.89-5.54 3.49-.54.11-1.08.24-1.62.3l-1.62.16c-.54.03-1.08.06-1.61.07-.53-.03-1.07-.05-1.61-.06-2.11-.15-4.19-.64-6.2-1.32zm.86-2.2c7.25 3.2 15.93.62 18.66-6.71.4-.85.72-1.75.99-2.67.1-.47.19-.94.26-1.41.02-.48.08-.96.08-1.44.03-1.92-.35-3.82-.91-5.59-.25-.91-.71-1.71-.92-2.64-.13-.45-.32-.89-.56-1.29-.29-.36-.58-.73-.9-1.07-.33-.32-.66-.65-1.05-.89-.37-.27-.74-.52-1.15-.71l-.59-.31-.62-.25c-.41-.16-.79-.35-1.24-.5-1.67-.84-3.6-1.07-5.47-.97-.94-.01-1.87.14-2.8.25-.47.06-.93.14-1.39.27-.46.09-.9.27-1.33.46-1.64.95-3.26 1.73-4.87 2.79-.75.57-1.45 1.24-1.99 2.01-.68.67-1.22 1.45-1.79 2.23-1.03 1.63-1.52 3.58-1.54 5.49-.06 1.92.39 3.8 1.13 5.51.68 1.7 1.49 3.55 3.1 4.64 1.49 1.15 3.1 2.15 4.9 2.8z"/><path fill="#fff" d="M363.96 86.77c-.27-.11-.54-.22-.79-.35-4.91-2.5-5.08-8.93-.46-12.11 2.22-1.53 5.21-1.88 7.72-.91.28.11.54.23.79.38 5.85 3.44 3.32 17.08-7.26 12.99zM329.13 85.32c-.07-.79-.21-1.52-.59-2.14-.1-.14-.17-.33-.31-.46-.13-.14-.34-.18-.5-.27-.17-.08-.38-.09-.56-.13l-.27-.06-.29-.02c-1.41-.3-3.18-.18-4.26.8-.11.13-.23.26-.36.38l-.27.45c-.13.13-.14.33-.22.49l-.11.26-.06.31c-.16.83-.14 1.56.2 2.22.16.35.52.58.87.81.36.22.75.45 1.19.64.42.21.87.41 1.33.58.46.18.96.28 1.44.42.97.31 1.93.77 2.83 1.41.46.3.86.69 1.34 1.05.49.37.77.94.99 1.49.39 1.14.53 2.28.24 3.52-.31 1.2-1.02 2.42-2.09 3.09-.53.34-1.11.53-1.69.66-.57.13-1.14.23-1.7.3-1.12.14-2.31.12-3.39-.32-.53-.24-1.01-.59-1.5-.9-.5-.3-.94-.71-1.37-1.14-.84-.89-1.33-2.15-1.4-3.38h2.36c.03.77.29 1.43.75 1.97.23.27.53.5.85.69.34.17.74.24 1.13.29.75.17 1.53.39 2.35.38.41.01.81-.04 1.19-.16.38-.11.74-.25 1.05-.44.32-.18.67-.34.93-.61.25-.27.41-.61.47-.98.15-.71-.09-1.61-.32-2.26-.12-.34-.34-.57-.39-.97-.03-.2-.11-.39-.25-.53-.16-.12-.33-.23-.51-.32-.75-.36-1.69-.41-2.57-.74-.44-.2-.86-.5-1.35-.64-.48-.16-1-.28-1.51-.47-.5-.22-1.04-.43-1.54-.81-.49-.37-.95-.84-1.44-1.33-.49-.49-.94-1.15-.99-1.85-.1-.68.05-1.34.22-1.9.06-.28.16-.57.26-.88.09-.3.1-.63.28-.9.17-.27.36-.53.55-.77l.71-.6c.99-.68 1.96-1.2 3.04-1.55 1.08-.33 2.27-.45 3.43-.13.28.08.56.19.82.36.26.16.52.29.74.51l1.4 1.17c.81.97 1.17 2.22 1.23 3.42h-2.38zM327.1 99.95c.02.1.01.21-.04.31-.29.1.2.21.29.31.16.21-.12.41-.15.62l-.05.15-.11.15c-.07.1-.14.21-.29.31-.07.05-.03.1-.01.15l-.05.15c-.09.1-.17.21-.05.31.03.1-.08.21-.1.31-.1.1.37.21.33.31l.13.31.15.31c-.03.1-.25.21-.19.31.03.1.15.21.06.31-.2.1-.22.21-.13.31l.21.31h-2.36l-.07-.31-.05-.15-.22-.15c-.08-.1.06-.21.14-.31.1-.1.05-.21.12-.31l.19-.15c.06-.05.02-.1 0-.15l-.26-.31c0-.05-.09-.1.12-.15.23-.05.17-.1.11-.15-.13-.1-.44-.21-.41-.31.05-.05.22-.1.19-.15l-.06-.15.03-.15c.05-.05.14-.1.04-.15-.1-.05-.24-.1-.17-.15.04-.05.19-.1.28-.15l.09-.08-.02-.08c.04-.05.17-.1.27-.15.22-.1.14-.21.04-.31l-.14-.15c-.06-.05-.11-.1-.11-.15 0-.1.37-.21.05-.31-.1-.1-.15-.21-.17-.31h2.37zM327.1 76.25c.02.09.01.17-.04.26-.29.09.2.17.29.26.16.17-.12.34-.15.51l-.05.13-.11.13c-.07.09-.14.17-.29.26-.07.04-.03.09-.01.13l-.05.13c-.09.09-.17.17-.05.26.03.09-.08.17-.1.26-.1.09.37.17.33.26l.13.26.15.26c-.03.09-.25.17-.19.26.03.09.15.17.06.26-.2.09-.22.17-.13.26l.21.26h-2.36l-.07-.26-.05-.13-.22-.13c-.08-.09.06-.17.14-.26.1-.09.05-.17.12-.26l.19-.13c.06-.04.02-.09 0-.13l-.26-.26c0-.04-.09-.09.12-.13.23-.04.17-.09.11-.13-.13-.09-.44-.17-.41-.26.05-.04.22-.09.19-.13l-.06-.13.03-.13c.05-.04.14-.09.04-.13-.1-.04-.24-.09-.17-.13l.28-.13.09-.06-.02-.06c.04-.04.17-.09.27-.13.22-.09.14-.17.04-.26l-.14-.13c-.06-.04-.11-.09-.11-.13 0-.09.37-.17.05-.26-.1-.09-.15-.17-.17-.26h2.37z"/><path fill="#E6E8F0" d="M213 206.5l-.5 13.93-2.25 63.07-93.23-.22-20.24-.05-.55-23.47-1.23-53.26zM213.97 205.56c.05 3.36.09 6.81.03 10.28-.02 1.72-.07 3.5-.13 5.14l-.16 4.81-.63 19.25-1.37 38.5-.05 1.43h-1.43c-18.91-.04-37.82-.23-56.73-.34-9.46-.05-18.91-.17-28.37-.14h-29.61l-.03-1.24-.99-38.35-.78-38.37-.03-1.32h1.31l29.73.09h29.77c9.94-.01 19.89-.01 29.78.07l29.69.19zm-1.94 1.88l-29.37.27c-9.78.11-19.51.14-29.24.17l-58.42.03 1.41-1.44.89 38.36.75 38.37-1.26-1.23 28.37.18c9.46.08 18.91.04 28.37.06 18.91.04 37.82-.03 56.73.09l-1.2 1.16.75-19.25c.23-6.42.52-12.83.7-19.25l.57-19.25.14-4.81c.04-1.57.1-3.01.17-4.5.14-2.97.38-5.92.64-8.96z"/><path fill="#D5DAEA" d="M213 206.5l-.5 13.93-2.25 63.07-93.23-.22c1.08-5.47 3.33-10.42 7.67-13.9 8.97-7.18 20.41-4.22 30.56-6.7l.63-.16c10.77-2.91 16.84-16.42 20.01-26.01 3.34-10.12 5.4-20.89 10.78-30.01h26.33zM213.97 205.56c.05 3.36.09 6.81.04 10.28-.02 1.72-.07 3.5-.13 5.15l-.15 4.81-.63 19.25-.69 19.25c-.24 6.42-.44 12.83-.73 19.25l-.06 1.39-1.37-.01-46.61-.36-46.62.04h-1.62l.31-1.59c.48-2.43 1.18-4.84 2.25-7.13s2.53-4.44 4.35-6.25c1.84-1.81 4.02-3.19 6.33-4.23 2.32-1.03 4.78-1.66 7.21-2.04 4.89-.77 9.71-.64 14.35-1.15 1.16-.12 2.31-.29 3.44-.51.56-.12 1.12-.22 1.69-.37.56-.15 1.04-.34 1.57-.51 2.06-.77 3.98-1.99 5.68-3.48 1.72-1.48 3.19-3.27 4.53-5.15 1.34-1.89 2.51-3.91 3.54-6.01 2.08-4.2 3.7-8.63 5.03-13.19 1.36-4.55 2.56-9.18 4.04-13.78 1.47-4.6 3.25-9.17 5.76-13.42l.4-.68h.78c9.12 0 18.33.19 27.31.44zm-1.94 1.88c-8.6.27-16.94.52-25.36.54l1.28-.73c-2.31 4.01-4.03 8.37-5.52 12.85-1.48 4.48-2.71 9.1-4.12 13.7-1.39 4.61-3.09 9.2-5.28 13.57-1.09 2.19-2.34 4.31-3.76 6.34-1.42 2.02-3.01 3.97-4.92 5.63-1.9 1.67-4.08 3.08-6.51 4-.61.2-1.25.44-1.85.6-.59.16-1.21.27-1.82.4-1.22.24-2.44.43-3.66.55-4.87.54-9.66.44-14.21 1.18-2.27.37-4.48.94-6.52 1.86-2.02.92-3.94 2.14-5.51 3.69-1.58 1.54-2.87 3.39-3.84 5.42-.97 2.03-1.64 4.23-2.1 6.48l-1.31-1.6 46.61.33 46.62.01-1.22 1.18c.2-6.42.48-12.83.73-19.25l.75-19.25c.27-6.42.41-12.83.62-19.25l.15-4.81c.05-1.57.1-3.02.17-4.52.13-2.95.33-5.9.58-8.92z"/><path fill="#fff" d="M125.5 236.13l2.68-12.72c6.98 1.47 11.51 8.42 10.05 15.4-1.47 6.98-8.42 11.51-15.4 10.05-4.61-.97-8.34-4.37-9.74-8.86l12.41-3.87zM124.63 235.33l.59-3.05c.1-.5.19-1.02.31-1.51s.3-.96.38-1.48c.16-1.04.16-2.14.29-3.16.13-1.03.32-2.02.55-3.02l.34-1.47 1.39.33c2.46.59 4.75 1.84 6.56 3.57.93.84 1.7 1.83 2.36 2.88.6 1.09 1.13 2.21 1.45 3.4.18.59.29 1.2.38 1.8.04.61.12 1.22.09 1.83-.02 1.21-.07 2.42-.32 3.61-.32 1.16-.7 2.32-1.34 3.34-.6 1.03-1.25 2.04-2.04 2.94-1.61 1.8-3.77 2.98-6 3.8-.55.24-1.11.5-1.7.64-.59.13-1.2.23-1.81.26-1.22.12-2.45.01-3.66-.21-1.21-.24-2.37-.66-3.49-1.18-1.12-.52-2.18-1.21-3.08-2.06-.89-.87-1.62-1.89-2.24-2.95-.65-1.04-1.21-2.15-1.59-3.32l-.34-1.03 1.06-.33c.99-.31 1.95-.68 2.98-.9 1.04-.19 2.07-.45 3.05-.78 1-.3 1.96-.65 2.93-.97l2.9-.98zm1.74 1.59l-6.4 2.21c-1.08.35-2.12.78-3.16 1.24-1.05.44-2.19.7-3.29 1.03l.97-1.85c.27.97.62 1.93 1.14 2.82.53.87 1.18 1.68 1.92 2.39.73.72 1.5 1.44 2.41 1.96.92.5 1.93.82 2.96.98 1.03.14 2.06.18 3.08.08.51-.01 1.01-.13 1.52-.19l1.57-.11c.52-.1.99-.34 1.44-.6.48-.21.87-.59 1.29-.88.78-.69 1.5-1.4 2.17-2.15.38-.33.73-.7 1.09-1.08.16-.2.3-.42.42-.64.14-.21.26-.44.37-.67l.32-.69c.09-.24.15-.49.25-.72.21-.46.29-.97.44-1.46.19-.99.51-2.01.28-3.03-.23-1.01-.44-1.97-.61-2.99-.17-1.01-.48-2.04-1.1-2.89-.61-.83-1.08-1.81-1.82-2.59-1.42-1.65-3.59-2.43-5.64-2.78l1.1-.72c-.16 1.11-.34 2.24-.59 3.34-.25 1.1-.64 2.14-.88 3.23-.12.55-.16 1.14-.25 1.71-.08.58-.21 1.12-.31 1.69-.21 1.13-.43 2.26-.69 3.36zM169.7 236l10.68-6.5.15.25c3.43 5.94 1.36 13.65-4.58 17.07s-13.65 1.36-17.07-4.58c-2.12-3.67-2.23-8.18-.3-11.95l11.12 5.71zM169.66 234.82l2.52-1.59c.42-.26.84-.54 1.27-.78.43-.23.87-.41 1.29-.71.84-.57 1.6-1.31 2.4-1.89.81-.58 1.63-1.11 2.48-1.6l1.29-.74.73 1.23c1.24 2.09 1.78 4.52 1.83 6.9.01 2.39-.64 4.76-1.86 6.77-.56 1.04-1.36 1.91-2.18 2.72-.88.75-1.68 1.59-2.7 2.16-.48.32-1.03.52-1.54.78-.54.19-1.08.4-1.64.52l-.83.2-.84.15c-.56.14-1.13.16-1.7.22-1.14.04-2.29-.09-3.39-.39-.56-.1-1.09-.32-1.63-.49-.52-.23-1.05-.44-1.57-.68-2.22-.72-3.98-2.46-5.3-4.37-.67-.96-1.17-2.04-1.57-3.15-.41-1.11-.66-2.28-.71-3.47-.03-1.19.18-2.37.46-3.5.26-1.14.61-2.27 1.14-3.33l.49-.97.98.5c.89.45 1.8.84 2.65 1.38.84.57 1.72 1.1 2.62 1.53.89.47 1.79.86 2.67 1.3l2.64 1.3zm.08 2.36l-5.88-2.79c-.98-.49-1.99-.88-3.01-1.27-1.02-.41-1.97-1-2.94-1.52l1.98-.64c-.46.83-.87 1.72-1.11 2.66-.22.94-.32 1.92-.3 2.89 0 .97.03 1.97.3 2.93.29.94.74 1.85 1.34 2.63.55.82 1.3 1.47 1.99 2.13.39.29.74.62 1.15.88.2.14.36.32.54.51l.57.49c.85.52 1.85.75 2.82.84.98.12 1.94.03 2.89.05 1.95.27 3.84-.57 5.47-1.53.83-.47 1.69-1 2.27-1.79.27-.41.51-.83.78-1.22.12-.21.28-.39.42-.58.14-.2.26-.4.42-.59.58-.78 1.13-1.65 1.27-2.64.23-.96.49-1.92.62-2.94.17-2.05-.63-4.07-1.77-5.7l1.27.31c-.89.62-1.79 1.24-2.72 1.8-.94.55-1.92.96-2.85 1.51-.46.27-.91.63-1.36.95-.45.33-.92.6-1.39.9-.89.59-1.83 1.18-2.77 1.73zM111.5 258.82c.58-.02 1.17 0 1.75.04.58.29 1.17-.2 1.75-.29 1.17-.15 2.33.12 3.5.15l.88.05.88.12c.58.07 1.17.14 1.75.28.29.07.58.03.88.02.29-.02.58.03.88.05.58.09 1.17.17 1.75.05.58-.03 1.17.08 1.75.09.58.11 1.17-.38 1.75-.31.58-.06 1.17-.1 1.75-.14.58 0 1.17-.17 1.75-.15.58.03 1.17.25 1.75.18.58-.03 1.17-.14 1.75-.06.29.07.58.17.88.17.29.01.58-.01.88-.05l1.75-.21v2.36c-.58.02-1.17.06-1.75.07-.29 0-.58.03-.88.05-.29.03-.58.15-.88.22-.58.07-1.17-.05-1.75-.13-.58-.1-1.17-.07-1.75-.13-1.17-.44-2.33-.05-3.5.07-.29 0-.58.11-.88-.12-.29-.23-.58-.17-.88-.11-.58.13-1.17.44-1.75.41-.29-.06-.58-.21-.88-.19-.29 0-.58.05-.88.06-.29-.01-.58.01-.88-.03-.29-.05-.58-.14-.88-.04-.29.1-.58.24-.88.17-.29-.04-.58-.19-.88-.28-.15-.04-.29-.09-.44-.09-.15.01-.29.04-.44.02-.29-.05-.58-.16-.88-.26-.58-.22-1.17-.13-1.75-.04-.58.08-1.17.23-1.75.25-.58 0-1.17-.36-1.75-.05-.58.08-1.17.15-1.75.17v-2.37zM112 267.82c.4-.02.79 0 1.19.04.4.29.79-.2 1.19-.29.79-.15 1.58.12 2.38.15l.59.05.59.11c.4.06.79.15 1.19.29.2.07.4.03.59.02.2-.02.4.02.59.05.4.09.79.17 1.19.05.4-.03.79.08 1.19.09.4.11.79-.37 1.19-.32.4-.06.79-.09 1.19-.13.4 0 .79-.17 1.19-.15.4.03.79.25 1.19.18.4-.03.79-.14 1.19-.06.4.2.79.22 1.19.13l1.19-.21v2.36c-.4.02-.79.06-1.19.07-.2 0-.4.01-.59.05-.2.03-.4.15-.59.22-.4.07-.79-.05-1.19-.14-.4-.09-.79-.07-1.19-.12-.2-.03-.4-.13-.59-.19-.2-.06-.4-.02-.59 0-.4.07-.79.21-1.19.26-.2 0-.4.09-.59-.12-.2-.23-.4-.17-.59-.11-.4.13-.79.44-1.19.41-.2-.05-.4-.22-.59-.19l-.59.06c-.2.01-.4.01-.59-.03-.2-.05-.4-.14-.59-.04-.2.1-.4.24-.59.17-.2-.04-.4-.19-.59-.28-.1-.04-.2-.1-.3-.09-.1.01-.2.04-.3.02-.2-.06-.4-.16-.59-.27-.4-.22-.79-.14-1.19-.04-.4.07-.79.23-1.19.25-.4 0-.79-.37-1.19-.05-.4.08-.79.15-1.19.17v-2.37zM156.5 258.82c.58-.02 1.17 0 1.75.04.58.29 1.17-.2 1.75-.29 1.17-.15 2.33.12 3.5.15l.88.05.88.12c.58.07 1.17.14 1.75.28.29.07.58.03.88.02.29-.02.58.03.88.05.58.09 1.17.17 1.75.05.58-.03 1.17.08 1.75.09.58.11 1.17-.38 1.75-.31.58-.06 1.17-.1 1.75-.14.58 0 1.17-.17 1.75-.15.58.03 1.17.25 1.75.18.58-.03 1.17-.14 1.75-.06.29.07.58.17.88.17.29.01.58-.01.88-.05l1.75-.21v2.36c-.58.02-1.17.06-1.75.07-.29 0-.58.03-.88.05-.29.03-.58.15-.88.22-.58.07-1.17-.05-1.75-.13-.58-.1-1.17-.07-1.75-.13-1.17-.44-2.33-.05-3.5.07-.29 0-.58.11-.88-.12-.29-.23-.58-.17-.88-.11-.58.13-1.17.44-1.75.41-.29-.06-.58-.21-.88-.19-.29 0-.58.05-.88.06-.29-.01-.58.01-.88-.03-.29-.05-.58-.14-.88-.04-.29.1-.58.24-.88.17-.29-.04-.58-.19-.88-.28-.15-.04-.29-.09-.44-.09-.15.01-.29.04-.44.02-.29-.05-.58-.16-.88-.26-.58-.22-1.17-.13-1.75-.04-.58.08-1.17.23-1.75.25-.58 0-1.17-.36-1.75-.05-.58.08-1.17.15-1.75.17v-2.37zM157 267.82c.35-.02.71 0 1.06.04.35.29.71-.2 1.06-.29.71-.15 1.42.12 2.12.15l.53.05.53.11c.35.06.71.15 1.06.29.18.07.35.03.53.02.18-.02.35.02.53.05.35.09.71.17 1.06.05.35-.03.71.08 1.06.09.35.11.71-.37 1.06-.32.35-.06.71-.09 1.06-.13.35 0 .71-.17 1.06-.15.35.03.71.25 1.06.18.35-.03.71-.14 1.06-.06.35.2.71.22 1.06.13l1.06-.21v2.36c-.35.02-.71.06-1.06.07-.18 0-.35.01-.53.05-.18.03-.35.15-.53.22-.35.07-.71-.05-1.06-.14-.35-.09-.71-.07-1.06-.12-.18-.03-.35-.13-.53-.19-.18-.06-.35-.02-.53 0-.35.07-.71.21-1.06.26-.18 0-.35.09-.53-.12-.18-.23-.35-.17-.53-.11-.35.13-.71.44-1.06.41-.18-.05-.35-.22-.53-.19l-.53.06c-.18.01-.35.01-.53-.03-.18-.05-.35-.14-.53-.04-.18.1-.35.24-.53.17-.18-.04-.35-.19-.53-.28-.09-.04-.18-.1-.27-.09-.09.01-.18.04-.27.02-.18-.06-.35-.16-.53-.27-.35-.22-.71-.14-1.06-.04-.35.07-.71.23-1.06.25-.35 0-.71-.37-1.06-.05-.35.08-.71.15-1.06.17v-2.37zM364.68 241.75l3.33-108.98c-1.41.1-2.65.19-3.61.22-15.07.48-30.96 3.52-41.9 14.76-7.22 7.42-11.16 17.33-16.54 26.16-5.39 8.84-13.35 17.31-23.64 18.4-13.81 1.47-25.22-10.55-38.65-14.09-15.69-4.15-32.58 4.08-43.15 16.39-1.69 1.96-3.25 4-4.7 6.13l.81 40.54 168.05.47z"/><g fill="#D5DAEA"><path d="M210.5 190.82h1.5c.64 0 1.17.53 1.16 1.17 0 .64-.51 1.15-1.15 1.16h-.02l-1.5.02c-.65.01-1.19-.51-1.2-1.16-.01-.65.51-1.19 1.16-1.2h.05zM217.96 190.84c.99-.02 1.99.07 2.98.1.55.02.97.47.96 1.02-.02.52-.43.93-.94.96h-.02c-.99.05-1.99.14-2.98.14-.61 0-1.11-.5-1.11-1.11 0-.6.49-1.1 1.09-1.11h.02zM226.89 190.65c.99-.06 1.99-.09 2.98-.1.69-.01 1.25.55 1.25 1.23.01.68-.53 1.23-1.2 1.25h-.05c-.99.03-1.99.03-2.98 0-.66-.02-1.18-.57-1.16-1.23.02-.62.51-1.12 1.12-1.16l.04.01zM235.83 190.56l2.98.05c.59.01 1.07.5 1.06 1.09-.01.58-.47 1.04-1.04 1.06h-.02l-2.98.09c-.63.02-1.16-.48-1.18-1.11-.02-.63.48-1.16 1.11-1.18h.07zM244.77 190.71l2.98.03h.07c.61.01 1.1.5 1.09 1.11s-.5 1.1-1.11 1.09h-.05c-.99-.05-1.99-.14-2.98-.17h-.05c-.57-.02-1.01-.5-.99-1.07.02-.56.48-1 1.04-.99zM253.7 190.85l2.98.07h.13c.65.02 1.17.56 1.16 1.22-.02.65-.56 1.17-1.21 1.16h-.07c-.99-.08-1.99-.13-2.98-.18h-.08c-.62-.03-1.1-.56-1.07-1.18.02-.63.53-1.11 1.14-1.09zM262.64 191.11l1.49.05c.5.01.99.05 1.49.04h.02c.57-.01 1.04.45 1.05 1.02s-.45 1.04-1.02 1.05h-.05c-.5-.02-.99.03-1.49.04-.5.02-.99.07-1.49.1-.63.04-1.18-.44-1.22-1.08-.04-.63.44-1.18 1.08-1.22h.14zM271.57 191.21c.99.01 1.99.03 2.98.06h.01c.57.02 1.02.5 1.01 1.07-.02.55-.47.99-1.01 1.01-.99.03-1.99.02-2.98.02h-.02c-.6 0-1.07-.49-1.07-1.08 0-.6.48-1.08 1.08-1.08zM280.51 191.32c.99-.01 1.99-.05 2.98-.04.61.01 1.1.51 1.09 1.12-.01.59-.48 1.06-1.06 1.09h-.03c-.99.04-1.99 0-2.98-.06h-.06c-.58-.04-1.02-.54-.98-1.12.04-.56.5-.99 1.04-.99zM289.45 191.35l2.98.02c.47 0 .84.38.84.85 0 .45-.36.82-.81.84h-.03c-.99.04-1.99.04-2.98.12-.5.04-.94-.34-.98-.84-.04-.5.34-.94.84-.98h.07l.07-.01zM298.38 191.09l2.98-.05c.62-.01 1.14.49 1.15 1.11s-.49 1.14-1.11 1.15h-.04l-2.98.04c-.62.01-1.13-.49-1.14-1.11-.01-.62.49-1.13 1.11-1.14h.03zM307.32 190.95l2.98-.04c.59-.01 1.08.47 1.08 1.06.01.59-.46 1.07-1.05 1.08h-.03l-2.98.05c-.6.01-1.09-.46-1.1-1.06-.01-.6.46-1.09 1.06-1.1h.01l.03.01zM316.26 190.79c.99-.03 1.99-.01 2.98.02h.05c.68.03 1.21.6 1.18 1.27-.03.66-.57 1.18-1.23 1.18-.99 0-1.99-.03-2.98-.08h-.03c-.66-.04-1.17-.6-1.14-1.26.03-.62.55-1.11 1.17-1.13zM325.19 190.96l2.98-.03h.02c.69-.01 1.25.55 1.26 1.23s-.55 1.25-1.23 1.26h-.05l-2.98-.08h-.02c-.66-.02-1.18-.57-1.16-1.22.02-.64.55-1.15 1.18-1.16zM334.13 190.87c.99.01 1.99.04 2.98.1.68.04 1.2.62 1.16 1.3-.04.63-.54 1.12-1.15 1.16h-.01c-.99.06-1.99.1-2.98.1h-.01c-.74 0-1.33-.59-1.34-1.33 0-.74.59-1.33 1.33-1.34h.02zM343.06 191.06l2.98-.06c.62-.01 1.14.48 1.15 1.1s-.48 1.14-1.1 1.15h-.04l-2.98.01c-.61 0-1.1-.49-1.1-1.09 0-.6.48-1.09 1.08-1.1l.01-.01zM352 190.85l1.5-.04c.65-.02 1.19.5 1.21 1.15.02.65-.5 1.19-1.15 1.21h-.05l-1.5.01c-.65.01-1.17-.51-1.18-1.16-.01-.64.5-1.16 1.14-1.18l.03.01z"/></g><g fill="#D5DAEA"><path d="M210.5 159.82h1.5c.64 0 1.17.53 1.16 1.17 0 .64-.51 1.15-1.15 1.16h-.02l-1.5.02c-.65.01-1.19-.51-1.2-1.16-.01-.65.51-1.19 1.16-1.2h.05zM217.96 159.84c.99-.02 1.99.07 2.98.1.55.02.97.47.96 1.02-.02.52-.43.93-.94.96h-.02c-.99.05-1.99.14-2.98.14-.61 0-1.11-.5-1.11-1.11 0-.6.49-1.1 1.09-1.11h.02zM226.89 159.65c.99-.06 1.99-.09 2.98-.1.69-.01 1.25.55 1.25 1.23.01.68-.53 1.23-1.2 1.25h-.05c-.99.03-1.99.03-2.98 0-.66-.02-1.18-.57-1.16-1.23.02-.62.51-1.12 1.12-1.16l.04.01zM235.83 159.56l2.98.05c.59.01 1.07.5 1.06 1.09-.01.58-.47 1.04-1.04 1.06h-.02l-2.98.09c-.63.02-1.16-.48-1.18-1.11-.02-.63.48-1.16 1.11-1.18h.07zM244.77 159.71l2.98.03h.07c.61.01 1.1.5 1.09 1.11s-.5 1.1-1.11 1.09h-.05c-.99-.05-1.99-.14-2.98-.17h-.05c-.57-.02-1.01-.5-.99-1.07.02-.56.48-1 1.04-.99zM253.7 159.85l2.98.07h.13c.65.02 1.17.56 1.16 1.22-.02.65-.56 1.17-1.21 1.16h-.07c-.99-.08-1.99-.13-2.98-.18h-.08c-.62-.03-1.1-.56-1.07-1.18.02-.63.53-1.11 1.14-1.09zM262.64 160.11l1.49.05c.5.01.99.05 1.49.04h.02c.57-.01 1.04.45 1.05 1.02s-.45 1.04-1.02 1.05h-.05c-.5-.02-.99.03-1.49.04-.5.02-.99.07-1.49.1-.63.04-1.18-.44-1.22-1.08-.04-.63.44-1.18 1.08-1.22h.14zM271.57 160.21c.99.01 1.99.03 2.98.06h.01c.57.02 1.02.5 1.01 1.07-.02.55-.47.99-1.01 1.01-.99.03-1.99.02-2.98.02h-.02c-.6 0-1.07-.49-1.07-1.08 0-.6.48-1.08 1.08-1.08zM280.51 160.32c.99-.01 1.99-.05 2.98-.04.61.01 1.1.51 1.09 1.12-.01.59-.48 1.06-1.06 1.09h-.03c-.99.04-1.99 0-2.98-.06h-.06c-.58-.04-1.02-.54-.98-1.12.04-.56.5-.99 1.04-.99zM289.45 160.35l2.98.02c.47 0 .84.38.84.85 0 .45-.36.82-.81.84h-.03c-.99.04-1.99.04-2.98.12-.5.04-.94-.34-.98-.84-.04-.5.34-.94.84-.98h.07l.07-.01zM298.38 160.09l2.98-.05c.62-.01 1.14.49 1.15 1.11s-.49 1.14-1.11 1.15h-.04l-2.98.04c-.62.01-1.13-.49-1.14-1.11-.01-.62.49-1.13 1.11-1.14h.03zM307.32 159.95l2.98-.04c.59-.01 1.08.47 1.08 1.06.01.59-.46 1.07-1.05 1.08h-.03l-2.98.05c-.6.01-1.09-.46-1.1-1.06-.01-.6.46-1.09 1.06-1.1h.01l.03.01zM316.26 159.79c.99-.03 1.99-.01 2.98.02h.05c.68.03 1.21.6 1.18 1.27-.03.66-.57 1.18-1.23 1.18-.99 0-1.99-.03-2.98-.08h-.03c-.66-.04-1.17-.6-1.14-1.26.03-.62.55-1.11 1.17-1.13zM325.19 159.96l2.98-.03h.02c.69-.01 1.25.55 1.26 1.23s-.55 1.25-1.23 1.26h-.05l-2.98-.08h-.02c-.66-.02-1.18-.57-1.16-1.22.02-.64.55-1.15 1.18-1.16zM334.13 159.87c.99.01 1.99.04 2.98.1.68.04 1.2.62 1.16 1.3-.04.63-.54 1.12-1.15 1.16h-.01c-.99.06-1.99.1-2.98.1h-.01c-.74 0-1.33-.59-1.34-1.33 0-.74.59-1.33 1.33-1.34h.02zM343.06 160.06l2.98-.06c.62-.01 1.14.48 1.15 1.1s-.48 1.14-1.1 1.15h-.04l-2.98.01c-.61 0-1.1-.49-1.1-1.09 0-.6.48-1.09 1.08-1.1l.01-.01zM352 159.85l1.5-.04c.65-.02 1.19.5 1.21 1.15.02.65-.5 1.19-1.15 1.21h-.05l-1.5.01c-.65.01-1.17-.51-1.18-1.16-.01-.64.5-1.16 1.14-1.18l.03.01z"/></g><path fill="#0C1238" d="M363.59 240.62l.81-32.97c.16-5.47.41-10.9.53-16.41l.16-16.56.07-8.26c.03-2.75.13-5.48.19-8.21l.44-16.42 1.18-33.14 1.77 1.83-43.69-.18-43.69-.38c-14.56-.29-29.12-.04-43.69-.19l-21.84-.15c-7.28-.02-14.56.05-21.84.08l.96-.98.55 33.14c.07 11.05.73 22.09 1.01 33.13l1.67 66.27-1.56-1.53c13.91-.11 27.81.13 41.75.3l41.71.11c6.96.05 13.97.21 20.97.31l5.25.08 5.21.01 10.42.02 41.66.1zm2.19 2.26l-42.18.16-10.56.04c-3.53 0-7.04.03-10.54.09-7.01.1-14.02.22-21.09.23l-21.23-.1-21.22-.18c-14.12-.06-28.24-.11-42.34-.37h-.05c-.79-.01-1.42-.66-1.43-1.45-.05-11.05-.44-22.09-.73-33.14l-.89-33.14c-.23-5.52-.12-11.05-.04-16.58.07-5.53-.19-11.05-.37-16.57l-1.11-33.12c-.04-1.09.82-2 1.9-2.04h.09l21.84.25 21.84-.08c14.56-.09 29.12.38 43.69-.05 14.56-.31 29.12.48 43.69.4 7.28-.07 14.56.19 21.84.29l10.92.16 5.46.07 5.46-.02c.54 0 .98.43.98.97v.03c-.14 5.54-.33 11.09-.43 16.63l-.35 16.71-.38 16.8c-.08 2.8-.13 5.61-.24 8.4l-.35 8.37-.7 16.72-.4 16.87-1.08 33.65z"/><path fill="#fff" d="M223.1 155.75l2.17-69.01c-.92.06-1.73.12-2.35.14-9.8.31-20.14 2.23-27.26 9.35-4.7 4.7-7.26 10.97-10.76 16.57-3.51 5.6-8.68 10.96-15.38 11.65-8.99.93-16.41-6.68-25.14-8.93-10.21-2.63-21.2 2.59-28.07 10.38-1.1 1.24-2.11 2.54-3.06 3.88l.53 25.67 109.32.3z"/><path fill="#0C1238" d="M222.01 154.62l.46-20.77.37-10.3-.01-10.47c-.1-6.97.17-13.8.33-20.69l.81-20.94 1.78 1.84-28.42-.18c-9.47-.14-18.95-.19-28.42-.39-9.47-.29-18.95-.05-28.42-.19l-14.21-.15c-4.74-.03-9.47.05-14.21.08l.96-.98.32 20.99c0 7 .53 13.99.78 20.98l.58 20.98.62 20.98-1.54-1.52 6.76-.04c2.25 0 4.5-.03 6.76.03l13.55.24c4.53.11 9.02.03 13.53.06l13.5.02c4.5.02 9.07.19 13.62.28 2.28.06 4.56.1 6.81.1l6.77.03 26.92.01zm2.19 2.26l-27.5.2c-4.58.06-9.22.01-13.75.16l-6.85.16c-2.29.04-4.57.12-6.9.08-9.26-.01-18.54-.16-27.77-.24l-13.84-.08c-4.61-.02-9.22-.21-13.82-.26h-.03c-.79-.01-1.42-.65-1.43-1.43l-.04-5.25c-.01-1.75-.1-3.5-.15-5.25l-.34-10.49-.65-20.98c-.08-1.75-.07-3.5-.06-5.25l.17-5.25c.07-3.5-.13-7-.24-10.49l-.95-20.98c-.05-1.08.79-2 1.87-2.04h.14c4.74-.03 9.47.26 14.21.25l14.21-.07c4.74 0 9.47 0 14.21.11 2.37-.01 4.74.09 7.11 0l7.11-.2c4.74-.15 9.47.08 14.21.17l7.11.22c2.37.09 4.74.02 7.11.04 9.47.06 18.95.62 28.42.5.54-.01.98.42.99.96v.06c-.22 7.05-.29 13.99-.41 21.14-.11 7.12-.23 14.3-.64 21.38l-.52 10.62-.21 10.78-.77 21.43z"/><path fill="#FFD57D" d="M129.52 136.84h77v-51.42l-25.66 22.18-26.59-10.08-24.64 32.47zM130.36 136.02c6.35-.03 12.74-.13 19.01-.04l9.7-.35c3.21-.1 6.37-.13 9.52-.13l18.93.09 9.49.04 9.51.14-1.08 1.08.1-6.43.15-6.43c.07-4.29-.03-8.57.05-12.86.01-4.29.17-8.57.11-12.86-.07-4.29-.03-8.57.01-12.86l1.1.5-6.44 5.52c-2.14 1.85-4.14 3.86-6.24 5.75l-12.73 11.21-.46.41-.6-.22-13.35-4.89c-2.23-.8-4.42-1.72-6.62-2.58l-6.61-2.62 1.19-.34-6.11 8.16-3.06 4.08-3.16 4c-1.05 1.33-2.13 2.65-3.16 4l-3.06 4.07-6.05 8.2.22-.64c.01 2.02-.13 3.93-.36 6zm-1.68 1.65c-.18-2.47-.31-5.13-.26-7.7l.01-.4.24-.32 6.12-8.15 3.06-4.07c1.01-1.37 1.98-2.76 2.97-4.14l3-4.12 3.12-4.03 6.28-8.03.62-.79.91.35 6.63 2.57c2.21.86 4.43 1.68 6.62 2.6 2.19.9 4.39 1.78 6.59 2.66 2.2.89 4.45 1.64 6.67 2.46l-1.13.2 12.68-11.27c2.11-1.88 4.53-3.41 6.61-5.32 2.12-1.87 4.2-3.79 6.26-5.73l2.02-1.9.11 2.88c.17 4.29.32 8.57.1 12.86-.18 4.29.01 8.57-.02 12.86.05 4.29-.17 8.57-.06 12.86.05 2.14.18 4.29.18 6.43-.01 2.14-.09 4.29-.18 6.43l-.06 1.35-1.24-.05-4.86-.19h-4.86l-9.68-.31c-6.43-.2-12.93-.01-19.46.06-3.26.05-6.54.09-9.77.06l-9.62-.19c-6.61.14-13.08.07-19.6.08z"/><path fill="#FFC04D" d="M129.52 141.89h77v-41.35l-25.66 21.18-26.59-9.08-24.64 22.39zM130.36 141.06l19.04-.08c3.23-.1 6.5-.28 9.69-.35 3.19-.07 6.34-.08 9.49-.06l18.93.09c6.33.01 12.65.17 19.01.26l-.98.98c.09-3.45.22-6.89.18-10.34-.04-3.45.02-6.89.06-10.34.05-3.45.13-6.89.06-10.34s0-6.89.02-10.34l1.09.51-6.44 5.27c-2.13 1.77-4.1 3.74-6.24 5.51l-12.73 10.71-.45.38-.58-.19c-4.44-1.49-8.92-2.86-13.34-4.4l-6.61-2.39c-2.19-.82-4.42-1.55-6.64-2.29l1.06-.22-6.12 5.64c-2.01 1.91-4.16 3.67-6.25 5.5-2.12 1.79-4.13 3.7-6.18 5.57l-6.08 5.69.35-.78c.03 2.03-.12 3.94-.34 6.01zm-1.68 1.65c-.18-2.47-.31-5.13-.27-7.7l.01-.52.39-.36 6.13-5.63c2.03-1.89 4.11-3.72 6.08-5.68l3-2.88c.99-.97 2.02-1.9 3.07-2.81l6.23-5.51.64-.57.75.28c4.4 1.62 8.83 3.12 13.25 4.67l6.59 2.42 3.3 1.19 3.34 1.09-1.04.19 12.68-10.78c1.05-.9 2.13-1.77 3.28-2.56l1.7-1.21c.54-.43 1.1-.85 1.63-1.29l3.15-2.71 3.1-2.78 1.99-1.78.13 2.78c.08 1.72.14 3.45.17 5.17.05 1.72.05 3.45-.03 5.17-.16 3.45-.13 6.89-.08 10.34.01 3.45.03 6.89-.07 10.34-.13 3.45.18 6.89.19 10.34l.01 1.49-1.49-.01c-3.25-.02-6.5-.22-9.73-.34-1.62-.07-3.24-.02-4.86-.04-1.62.01-3.23-.11-4.84-.16-6.42-.3-12.86-.29-19.4-.15-3.26.04-6.54.12-9.79.12-3.25.01-6.43-.12-9.64-.17-3.18-.08-6.58.12-9.8.07l-9.77-.02z"/><path fill="#0C1238" d="M126 140.08c7.03-.19 14.06-.23 21.09-.1 7.03.23 14.06.46 21.09.2l5.27-.1 2.64-.05 2.64.03c3.52.03 7.03.11 10.55.18 1.76.05 3.52 0 5.27 0l5.27-.16c1.76-.07 3.52-.03 5.27-.04 1.76-.01 3.52 0 5.27.04 1 .03 1.78.85 1.76 1.85-.02.96-.79 1.72-1.73 1.76h-.03c-7.03.26-14.06.26-21.09.07-7.03.03-14.06.04-21.09-.19l-5.27-.12c-1.76-.04-3.52-.09-5.27-.05l-10.55.11c-1.76.05-3.52-.01-5.27-.05l-5.27-.09c-3.52-.02-7.03.06-10.55.31-.99.07-1.86-.68-1.93-1.67-.07-.99.68-1.86 1.67-1.93h.26z"/><g fill="#5053AB"><path d="M216.5 192h11v32h-11zM226.67 192.83l-2.57.13c-.84.02-1.71.11-2.52.07-.41-.01-.82-.05-1.25-.02-.43.04-.86.07-1.29.13-.86.12-1.7.25-2.53.29l1.43-1.43c.11 2.67-.04 5.33-.11 8-.06 2.67-.07 5.33-.22 8-.07 1.33-.08 2.67-.19 4l-.12 2 .02 2c.02 2.67-.27 5.33-.11 8l-.71-.71c.92-.04 1.83.02 2.75.03l2.75.04c.92.03 1.83.01 2.75-.15.92-.13 1.83-.12 2.75-.15l-.94.94c-.1-2.61-.09-5.21-.2-7.78-.18-2.54.22-5.23.16-7.81l-.01-3.87c-.02-1.28.22-2.71.22-4.01.04-2.63-.06-5.14-.06-7.7zm1.66-1.66l.23 8.11c.05 1.35.3 2.59.27 4-.01 1.4-.01 2.79-.06 4.19-.1 2.8.03 5.53-.22 8.33-.12 2.75.17 5.45.26 8.2.02.71-.53 1.3-1.24 1.32h-.08c-.92-.01-1.83.13-2.75-.08-.46-.08-.92-.19-1.38-.2-.46-.01-.92.04-1.38.05-.92.04-1.83.17-2.75.26-.46.06-.92.08-1.38.11-.46.03-.92.06-1.38.04l-.12-.01c-.79-.03-1.41-.7-1.38-1.49l.17-2c.03-.67 0-1.33-.01-2-.05-1.33-.04-2.67 0-4 .03-.67.09-1.33.08-2-.02-.67-.11-1.33-.18-2-.14-1.33.09-2.67.24-4l.18-4c.16-1.33.32-2.67.3-4 0-2.67-.28-5.33-.34-8-.01-.57.44-1.04 1.01-1.05h.04c.98-.02 1.96.06 2.92.14.48.04.97.05 1.45.07.49.01 1-.04 1.5-.07 1.02-.06 2-.01 3-.01 1.04.01 2.04.04 3 .09z"/></g><path fill="#8891EA" d="M240.5 168h11v56h-11zM250.67 168.83c-1.73.09-3.43.19-5.11.24-.84.02-1.68.07-2.52.04-.83-.02-1.68-.09-2.54-.05l1.06-1.06c.08 2.33.39 4.67.39 7 .07 2.33 0 4.67-.03 7l-.22 14-.19 7c-.06 2.33-.26 4.67-.21 7 .04 2.33-.01 4.67-.07 7l-.08 3.5.06 3.5-.71-.71c1.83-.04 3.67.04 5.5.05l2.75.02c.92-.01 1.83.04 2.75-.01l-.65.65c-.05-1.16-.21-2.31-.24-3.46l-.06-3.45-.09-6.89-.1-6.86c-.03-1.14.01-2.29.06-3.45l.12-3.48c.07-2.32 0-4.59.01-6.88.01-1.15-.02-2.28.01-3.44.02-1.16.12-2.36.16-3.54.09-4.68-.05-9.16-.05-13.72zm1.66-1.66l.12 7.04c.04 2.35.04 4.73.17 7.03.05 1.16.16 2.29.18 3.47.03 1.18 0 2.39 0 3.59l-.09 7.2c-.02 2.39.03 4.76-.08 7.16-.04 1.2-.11 2.4-.12 3.59-.03 1.19.02 2.36.04 3.55.05 2.36.17 4.71.24 7.08l.05 3.56c.01 1.19-.24 2.38-.3 3.56l-.01.1c-.03.55-.5.97-1.04.95-.92-.04-1.83.04-2.75.05-.92.03-1.83.11-2.75.17-.92.05-1.83.14-2.75.17-.92.03-1.83.09-2.75.06h-.09c-.8-.02-1.43-.69-1.4-1.49.04-1.17.16-2.33.18-3.5l-.04-3.5c-.03-2.33-.03-4.67.06-7 .18-2.33-.31-4.67-.17-7 .06-2.33.43-4.67.35-7-.05-1.17.06-2.33.13-3.5s.17-2.33.22-3.5c.1-2.33.04-4.67-.05-7-.07-2.33-.19-4.67-.22-7-.09-2.33.13-4.67.15-7v-.02c0-.48.4-.87.88-.87h.01c.97.01 1.95-.07 2.94-.11 1-.05 1.98-.01 2.98-.01 1.98.03 3.96.09 5.91.17z"/><g fill="#5053AB"><path d="M264.5 147h11v77h-11zM274.67 147.83c-1.73.1-3.43.19-5.11.25-1.68.05-3.35.11-5.05.05l1.13-1.13c-.18 3.21.1 6.42.23 9.62.16 3.21.13 6.42.09 9.62-.1 6.42-.17 12.83-.22 19.25l-.43 19.25c.03 3.21 0 6.42-.06 9.62l-.09 4.81.06 4.81-.71-.71c1.83-.04 3.67.02 5.5.03l5.5.04-.64.64c.13-3.2-.27-6.37-.27-9.54l-.1-9.52c-.02-6.36-.29-12.58-.01-19.02.12-3.22.05-6.36.06-9.53v-4.74c.02-1.6.09-3.22.14-4.84l.07-2.43v-2.38l-.02-4.74-.07-9.41zm1.66-1.66l.12 9.66.06 4.84.03 2.42.1 2.38c.06 1.59.13 3.18.15 4.8l-.02 4.91c-.02 3.28-.1 6.58-.09 9.83l-.01 4.89c-.01 1.63-.08 3.28-.12 4.92-.01 1.63-.1 3.27-.05 4.88l.1 4.85.19 9.72c.06 1.62 0 3.25-.17 4.88s-.08 3.24-.05 4.86c.01.59-.45 1.08-1.05 1.1h-.060000000000000005c-.92.01-1.83.08-2.75.12l-2.75.14c-.92.06-1.83.07-2.75.1-.92.03-1.83.05-2.75.04h-.09c-.8-.02-1.43-.68-1.41-1.47v-.02l.18-4.81-.05-4.81c-.04-3.21 0-6.42.08-9.62.05-3.21-.37-6.42-.15-9.62l.26-4.81c.11-1.6.03-3.21.05-4.81.15-3.21.32-6.42.39-9.62l-.04-4.81-.12-4.81c-.08-3.21-.22-6.42-.15-9.62.05-3.21.24-6.42.03-9.62-.03-.52.36-.96.87-1h.13c1.95-.08 3.94-.04 5.92-.02 2.05-.03 4.03.04 5.97.13z"/></g><path fill="#8891EA" d="M288.5 162h11v62h-11zM298.67 162.83c-1.73.1-3.43.19-5.11.24l-2.52.06c-.84-.01-1.68-.06-2.53-.09l1.05-1.05c-.01 2.58.34 5.17.38 7.75.07 2.58.04 5.17-.01 7.75l-.22 15.5-.19 7.75c-.05 2.58-.25 5.17-.21 7.75.04 2.58-.01 5.17-.07 7.75l-.08 3.88.06 3.88-.71-.71c1.83-.04 3.67.03 5.5.04l5.5.04-.63.63c0-1.28-.14-2.56-.22-3.84-.08-1.27-.06-2.55-.09-3.83l-.1-7.64-.11-7.61c-.06-2.52.1-5.11.15-7.68.1-2.59.01-5.09.03-7.64v-3.81c.02-1.28.1-2.6.16-3.92.12-5.17-.03-10.14-.03-15.2zm1.66-1.66l.12 7.79c.05 2.6.04 5.23.18 7.77.06 1.28.15 2.54.17 3.85l-.01 3.97c0 2.64-.1 5.33-.09 7.95-.02 2.64.03 5.26-.1 7.92-.04 1.32-.11 2.65-.11 3.96s.04 2.61.06 3.92c.07 2.61.19 5.21.24 7.83 0 1.31.08 2.62.01 3.94-.09 1.32-.34 2.63-.28 3.93.02.55-.4 1.02-.95 1.04h-.09000000000000001c-1.83.03-3.67.13-5.5.26-1.83.12-3.67.22-5.5.2h-.06c-.8-.01-1.45-.67-1.44-1.47v-.03c.04-1.29.17-2.58.18-3.88l-.04-3.88c-.04-2.58-.02-5.17.07-7.75.14-2.58-.34-5.17-.16-7.75.09-2.58.45-5.17.32-7.75.03-2.58.31-5.17.38-7.75s0-5.17-.09-7.75c-.07-2.58-.19-5.17-.22-7.75-.04-2.58.22-5.17.15-7.75-.01-.48.36-.88.84-.9h.06c.97-.04 1.95-.1 2.95-.13l2.97.02c2.01.04 3.99.11 5.94.19z"/><g fill="#5053AB"><path d="M312.5 129h11v95h-11zM322.67 129.83c-3.47.2-6.77.35-10.17.33l1.16-1.16-.11 5.94.22 5.94c.2 3.96.21 7.92.19 11.88-.09 7.92-.19 15.83-.22 23.75-.11 7.92-.27 15.83-.44 23.75.03 3.96.01 7.92-.05 11.88l-.09 5.94.05 5.94-.71-.71c1.83-.04 3.67.01 5.5.02l5.5.04-.65.65c0-1.97.03-3.94.01-5.91-.05-1.97-.18-3.93-.25-5.88l-.11-11.77-.11-11.73-.04-5.86.11-5.92c.25-7.96-.1-15.6.2-23.61.06-2 .11-4 .09-5.94l-.02-5.86-.06-11.71zm1.66-1.66l.13 11.91c.06 3.96.03 7.99.21 11.88.32 7.84-.02 16.08.03 24.05l-.02 6.02-.13 6.04-.04 3.01.05 2.98.11 5.97.19 11.97c.01 2-.29 4.02-.3 6.01 0 2 .04 3.99.12 5.98.03.62-.45 1.14-1.07 1.17h-.1l-5.5.23c-1.83.03-3.67.13-5.5.09h-.08c-.8-.02-1.44-.68-1.42-1.48v-.01l.18-5.94-.05-5.94c-.03-1.98 0-3.96 0-5.94l.09-5.94c.02-1.98-.11-3.96-.18-5.94-.06-1.98-.02-3.96.06-5.94l.26-5.94c.04-1.98-.03-3.96.05-5.94.15-3.96.36-7.92.35-11.88 0-3.96-.09-7.92-.18-11.88-.09-3.96-.21-7.92-.08-11.88l.11-5.94c-.03-1.98-.16-3.96-.17-5.94 0-.58.46-1.05 1.04-1.06h.02c3.9 0 7.94.1 11.82.28z"/></g><path fill="#8891EA" d="M336.5 177h11v47h-11zM346.67 177.83c-1.73.09-3.43.18-5.11.24-.85.05-1.67.02-2.51-.02-.84-.04-1.7.04-2.55.1l1.15-1.15c.46 3.92.32 7.83.24 11.75-.13 3.92-.09 7.83-.23 11.75l-.18 5.88c-.09 1.96-.23 3.92-.19 5.88.04 1.96-.03 3.92-.08 5.88l-.07 2.94.06 2.94-.71-.71c.92-.04 1.83.01 2.75.02l2.75.04 2.75.02c.92.03 1.83-.05 2.75-.15l-.78.78c-.12-.97-.13-1.93-.15-2.9l-.06-2.89-.08-5.76c-.02-1.92-.1-3.82-.1-5.73.04-1.93.14-3.88.21-5.83l-.01-5.75c.01-.96-.02-1.9.03-2.89.04-.98.13-2 .16-2.98.09-3.91-.04-7.65-.04-11.46zm1.66-1.66l.12 5.92c.04 1.98.05 3.98.15 5.92l.19 2.9c.05.98.02 2.01.02 3.01 0 2.02-.06 4.06-.09 6.08 0 2.01 0 4.01-.04 6.03-.08 2.03-.23 4.05-.15 6.03.03 1.99.14 3.97.21 5.96.05.99.07 1.99.08 2.99.01 1 .07 2-.11 3l-.07.4c-.1.54-.61.91-1.15.83-.92-.14-1.83-.24-2.75-.16-.92.03-1.83.07-2.75.15l-2.75.21c-.92.03-1.83.11-2.75.08h-.11c-.8-.03-1.42-.69-1.39-1.49.03-.98.16-1.96.18-2.94 0-.98 0-1.96-.03-2.94s-.03-1.96-.02-2.94c-.01-.98.02-1.96.07-2.94.03-.98.06-1.96-.02-2.94-.09-.98-.18-1.96-.17-2.94.02-1.96.35-3.92.38-5.88-.11-1.96.16-3.92.28-5.88.14-1.96.13-3.92.05-5.88-.11-3.92-.47-7.83-.16-11.75l.01-.11c.04-.48.45-.84.92-.82.97.03 1.94.07 2.92.01.99-.06 2-.1 2.98-.07 2.01.02 4 .08 5.95.16z"/><path fill="#0C1238" d="M210.5 223.2c5.96-.06 11.92-.16 17.88-.17 5.96.03 11.92-.05 17.88.07l17.88.28c2.98.07 5.96.03 8.94 0l8.94-.08 8.94-.1 4.47-.05 4.47.03 17.88.18c2.98.05 5.96 0 8.94 0l8.94-.16c2.98-.07 5.96-.03 8.94-.04 2.98-.01 5.96 0 8.94.04 1 .01 1.79.83 1.77 1.83-.01.97-.8 1.75-1.76 1.77h-.02c-11.92.26-23.83.26-35.75.07-11.92.03-23.83.04-35.75-.19l-8.94-.12c-2.98-.04-5.96-.09-8.94-.05l-17.88.11c-2.98.05-5.96-.01-8.94-.05l-8.94-.09c-2.98-.06-5.96.06-8.94.09l-4.47.07-4.47.16c-.99.03-1.83-.74-1.86-1.74-.03-.99.74-1.83 1.74-1.86h.11000000000000001z"/></g></svg>