<svg xmlns="http://www.w3.org/2000/svg" viewBox="0 0 470 350" enable-background="new 0 0 470 350"><g><path fill="#fff" d="M316.96 230.21h45.75l.68-25.42h-46.43zM339.16 158.9l11.51 19.89-40.46-20.48-70.26-1.46c.61-2.04 1.52-4.17 2.35-6.23 5.65-13.93 17.61-25.43 32.14-29.67 5.25-1.53 10.78-2.2 15.81-4.36 6.54-2.82 11.95-8.18 14.82-14.71 2.62-5.94 3.13-12.56 4.69-18.88h38.39l3.85 76.17-12.84-.27z"/><path fill="#E6E8F0" d="M42.24 163.95l5.45-6.13c.93-1 1.93-1.94 2.78-3.02.87-1.05 1.68-2.16 2.52-3.24 1.69-2.16 3.51-4.19 5.35-6.22l5.54-6.05.86-.94.95.79 4.49 3.73c1.51 1.23 2.96 2.53 4.44 3.79l4.42 3.81c1.46 1.29 2.9 2.6 4.43 3.8l-1.13.13c2.06-2.74 4.29-5.36 6.44-8.02 1.09-1.33 2.09-2.72 3.13-4.08 1.04-1.36 2.14-2.68 3.21-4.02l3.2-4.03c1.09-1.32 1.95-2.83 2.96-4.21l6.21-8.21.93-1.23.81 1.34c1.06 1.76 2.3 3.41 3.28 5.21l1.45 2.72 1.64 2.61c.53.88 1.12 1.72 1.57 2.65.43.94.91 1.85 1.47 2.71 1.09 1.74 2.25 3.44 3.38 5.15l-2.03 1.22-3.24-5.23c-.53-.88-1.15-1.7-1.77-2.53-.62-.83-1.07-1.75-1.58-2.64-.5-.9-.97-1.81-1.46-2.72l-1.54-2.67c-.53-.88-.94-1.83-1.41-2.75-.48-.91-1.06-1.76-1.61-2.62l1.81.11c-2.02 2.77-4.04 5.55-6.14 8.26-1.05 1.35-2.46 2.43-3.4 3.87-1.03 1.37-2.01 2.78-2.98 4.2-.97 1.42-1.96 2.82-3.01 4.17-1.07 1.34-2.3 2.56-3.31 3.94-2.09 2.72-4.13 5.48-6.36 8.09l-.87 1.01-.97-.81c-.75-.62-1.48-1.27-2.27-1.83-.79-.58-1.62-1.1-2.37-1.71-1.53-1.2-2.91-2.58-4.34-3.91-1.4-1.36-3.05-2.41-4.42-3.81-1.43-1.32-2.84-2.67-4.34-3.91l.99-.08c-1.84 2.02-3.55 4.16-5.3 6.25-1.75 2.1-3.46 4.24-5.33 6.23-.94.99-1.91 1.96-2.82 2.98-.94 1-1.73 2.11-2.6 3.17l-5.33 6.23-1.78-1.55z"/><path fill="#D5DAEA" d="M42.83 147.83c1.73-2.49 3.45-4.98 5.26-7.41.82-1.28 1.48-2.66 2.29-3.94l1.25-1.9 1.31-1.86c1.76-2.47 3.58-4.89 5.32-7.37 1.73-2.49 3.56-4.9 5.36-7.34l.82-1.1.84 1.03c1.42 1.73 2.66 3.61 4.12 5.3 1.47 1.69 2.86 3.44 4.23 5.21 1.34 1.79 2.92 3.39 4.31 5.14 1.4 1.74 2.82 3.47 4.25 5.19l-1.02.08c.49-.82.84-1.74 1.31-2.58.46-.84.96-1.66 1.44-2.5l2.92-4.97c1-1.64 1.92-3.33 2.9-4.98l.73-1.24.8-1.2 1.6-2.4c1.07-1.6 1.99-3.28 2.99-4.92.5-.82.97-1.65 1.49-2.47.51-.81 1.1-1.58 1.65-2.37 2.09-3.22 3.91-6.61 5.84-9.93l2.01 1.24-2.96 4.94c-.99 1.65-2.02 3.27-2.91 4.97-.46.85-.87 1.72-1.37 2.54-.5.82-1.03 1.62-1.55 2.43-1.03 1.62-2.14 3.19-3.16 4.82l-1.54 2.43c-.5.82-1.03 1.62-1.59 2.4-.54.8-1.12 1.56-1.62 2.38-.52.81-.98 1.65-1.47 2.47l-2.82 5.03c-.5.82-.96 1.66-1.48 2.47-.54.8-1.28 1.47-1.77 2.29l-.73 1.24-.95-1.11c-1.45-1.7-3.11-3.23-4.63-4.87-.78-.8-1.48-1.68-2.11-2.61-.64-.93-1.38-1.76-2.11-2.61-.74-.83-1.48-1.68-2.18-2.55-.73-.85-1.4-1.74-2.09-2.62-.68-.89-1.44-1.71-2.25-2.49-.81-.78-1.49-1.67-2.14-2.58l2.21-.1c-.96 1.18-2.01 2.29-2.81 3.58-.39.65-.88 1.24-1.36 1.82l-1.44 1.77c-1.96 2.33-3.49 4.96-5.12 7.51-.8 1.29-1.61 2.57-2.46 3.83-.86 1.25-1.86 2.4-2.73 3.64-1.57 2.6-3.26 5.11-4.93 7.64l-1.95-1.37z"/><path fill="#8891EA" stroke="#8891EA" stroke-width="3" stroke-linecap="round" stroke-linejoin="round" stroke-miterlimit="10" d="M118.23 55.5h110v39.67h-110z"/><path fill="#fff" d="M127.38 67.64c5.78-.12 11.56-.19 17.35-.08 2.89.09 5.78.16 8.67.21 1.45.05 2.89.02 4.34 0l4.34-.06c5.78-.16 11.56-.08 17.35.05 1.45.03 2.89 0 4.34 0l4.34-.12c1.45-.05 2.89-.03 4.34-.03 1.45 0 2.89 0 4.34.03v2.7c-5.78.19-11.56.2-17.35.06-5.78.02-11.56.03-17.35-.15-2.89-.04-5.78-.16-8.67-.13l-8.67.08c-2.89.04-5.78-.09-8.67-.1-1.45-.05-2.89.05-4.34.07-1.45.03-2.89.07-4.34.17v-2.7zM127.94 80.73c3.54-.15 7.09-.17 10.63-.08 1.77.07 3.54.19 5.32.23 1.77.05 3.54-.01 5.32-.08 3.54-.16 7.09-.08 10.63.05.89.03 1.77 0 2.66 0l2.66-.12c.89-.05 1.77-.03 2.66-.03.89 0 1.77 0 2.66.03v2.7c-3.54.19-7.09.2-10.63.06-3.54.02-7.09.03-10.63-.14-1.77-.04-3.54-.16-5.32-.13l-5.32.08c-1.77.05-3.54-.1-5.32-.11-1.77 0-3.54.05-5.32.24v-2.7z"/><path fill="#FFC04D" d="M132.51 106.69h105.71v23.8h-105.71zM236.95 107.97l-26.26.35-26.08.19c-8.69.08-17.32-.05-26.01-.09l-26.1-.14 1.58-1.58.12 23.8-1.71-1.71 26.43-.14 26.43.13 13.21.09 13.21-.01c8.81-.04 17.62-.21 26.43-.2l-1.83 1.83c.02-7.49.26-14.87.58-22.52zm2.55-2.55c.36 8.17.67 16.67.72 25.08l.01 1.98-2 .01c-8.81.05-17.62-.01-26.43-.02-8.81-.1-17.62-.1-26.43-.09h-26.43l-26.43-.2-1.7-.01.01-1.67.17-23.8.01-1.51h1.5l26.72-.03 13.38-.01c4.47-.01 8.93 0 13.37.07l26.65.25c8.97-.03 17.84.04 26.88-.05z"/><path fill="#fff" d="M142.62 117.64c3.69-.15 7.38-.17 11.06-.08 1.84.07 3.69.19 5.53.23 1.84.05 3.69-.01 5.53-.08 3.69-.16 7.38-.08 11.06.05.92.03 1.84 0 2.77 0l2.77-.12c.92-.05 1.84-.03 2.77-.03.92 0 1.84 0 2.77.03v2.7c-3.69.19-7.38.2-11.06.06-3.69.02-7.38.03-11.06-.15-1.84-.04-3.69-.16-5.53-.13l-5.53.08c-1.84.05-3.69-.1-5.53-.11-1.84 0-3.69.05-5.53.24v-2.69z"/><path fill="#D5DAEA" d="M314.7 226.54c3.75-.02 7.54-.13 11.19-.04 1.91-.06 3.89-.26 5.79-.35 1.9-.09 3.77-.13 5.62-.13l11.12.09 5.59.04 5.61.14-1.08 1.05c.11-2.12.21-4.24.37-6.35.16-2.12.21-4.24.23-6.36.08-2.12.17-4.24.29-6.35.13-2.12.15-4.24.16-6.36l.71.73c-3.87.01-7.74-.11-11.61-.06-3.87.35-7.74.28-11.61.38l-5.8.07-5.8.12c-3.87.01-7.74-.27-11.61-.14l1.07-1.07.03 6.15c-.04 2.05-.27 4.16-.25 6.21l-.02 12.23zm-1.67 1.67l-.35-13.06c-.04-2.19-.28-4.34-.32-6.56 0-2.22.02-4.44.08-6.64l.04-1.48 1.38.06c3.87.15 7.74.08 11.61.21 1.93.08 3.87.2 5.8.17 1.94-.03 3.87-.06 5.8-.14 1.94-.06 3.87-.14 5.8-.15.97 0 1.93-.05 2.9.02.97.08 1.93.24 2.9.27 3.87.03 7.74-.49 11.61-.45l1.57.02-.07 1.52-.25 3.17c-.07 1.06-.06 2.12-.08 3.18 0 2.12-.08 4.24-.15 6.36-.13 2.12-.28 4.23-.14 6.36.12 2.12-.06 4.24-.29 6.35l-.14 1.33-1.14-.09c-.97-.08-1.94-.13-2.91-.17-.97-.04-1.94.05-2.91 0l-5.76-.35c-3.83-.16-7.73.02-11.65.1-1.96.05-3.93.09-5.86.06-1.93-.03-3.79-.18-5.72-.19-3.98.16-7.83.08-11.75.1zM363.34 200.96c-1.01.7-2.05 1.36-3.08 2.01-1.17.45-1.98 1.46-2.93 2.25-.96.77-1.99 1.44-3.04 2.07-1.04.65-2.11 1.26-3.14 1.93-2.06 1.34-4.19 2.56-6.34 3.77-.54.3-1.09.57-1.59.93-.51.34-1 .71-1.53 1.02-1.03.67-2.14 1.21-3.13 1.94l-.29.22-.42-.2c-2.14-1.01-3.87-2.71-6.2-3.39-2.1-1.08-4.13-2.26-6.24-3.33-1.05-.54-1.92-1.38-2.95-1.95-1.01-.6-2.1-1.08-3.08-1.73-.49-.32-.93-.75-1.43-1.06-.51-.3-1.01-.6-1.54-.87l-3.15-1.61 1.2-2.03c1.02.58 2.06 1.14 3.08 1.74.51.3 1.03.57 1.55.85.52.27 1.11.43 1.63.71 1.03.56 1.98 1.28 2.96 1.94.97.66 2.01 1.23 2.97 1.92 1.79 1.59 4.12 2.29 6.15 3.48 1.56 1.99 4.34 1.91 6.09 3.58l-1.44.04c1.09-.58 2-1.42 3.06-2.05.5-.35 1.05-.64 1.59-.94.54-.3.99-.73 1.44-1.15.91-.85 2.17-1.18 3.24-1.78.96-.77 2.13-1.22 3.25-1.77 1.09-.57 2.06-1.33 3.03-2.09.99-.73 1.9-1.57 2.94-2.22 1.04-.65 2.22-1.09 3.08-2.02.98-.74 1.96-1.48 2.98-2.17l1.28 1.96z"/><path fill="#E6E8F0" d="M289.15 278.23h57.17l.85-31.77h-58.02zM290.1 277.28l14.15-.24c4.71-.09 9.37-.13 14.04-.17 4.67-.03 9.34-.09 14-.05l14.02.13-1.29 1.26.28-7.94c.08-2.65.21-5.29.25-7.94l.34-15.89 1.28 1.31-14.51.09c-4.84.03-9.67-.04-14.51-.06l-14.51-.09c-4.84-.04-9.67-.02-14.51.02l1.25-1.25c.04 5.16.12 10.24.02 15.36l-.3 15.46zm-1.91 1.91l-.42-16.27c-.13-5.47-.11-10.99-.11-16.46v-1.49h1.49c4.84 0 9.67.11 14.51.08h14.51l14.51.02 14.51.13 1.31.01-.04 1.29-.55 15.88c-.1 2.65-.14 5.3-.21 7.94l-.19 7.94-.03 1.13h-1.14l-14.52.04c-4.85.01-9.68-.09-14.5-.14-4.83-.05-9.63-.13-14.5-.11l-14.63.01z"/><path fill="#F4F6F8" d="M350.82 244.98c-1.26.87-2.56 1.7-3.85 2.52-1.43.62-2.49 1.8-3.69 2.76-1.21.94-2.5 1.78-3.81 2.58-1.29.82-2.62 1.6-3.9 2.44-2.57 1.68-5.21 3.24-7.87 4.79-.67.39-1.35.74-1.97 1.19-.64.43-1.26.88-1.91 1.27-1.28.84-2.65 1.55-3.9 2.45l-.31.22-.4-.2c-2.64-1.31-4.88-3.31-7.72-4.29-2.6-1.38-5.15-2.86-7.75-4.23-1.3-.69-2.42-1.69-3.72-2.39-1.28-.73-2.58-1.42-3.83-2.19-.62-.4-1.18-.9-1.81-1.28-.63-.37-1.27-.75-1.92-1.09l-3.91-2.06 1.2-2.03 3.83 2.19c.64.37 1.28.72 1.93 1.07.65.34 1.37.58 2.01.94 1.29.71 2.49 1.57 3.71 2.39 1.23.82 2.52 1.52 3.72 2.37 2.31 1.88 5.13 2.88 7.67 4.37 2.07 2.29 5.35 2.51 7.6 4.48l-1.44.04c1.34-.75 2.51-1.76 3.82-2.56.63-.44 1.31-.81 1.97-1.2.67-.38 1.24-.9 1.83-1.41 1.16-1.02 2.67-1.52 4-2.29 1.21-.94 2.64-1.56 4.01-2.28 1.35-.74 2.57-1.67 3.79-2.6 1.23-.92 2.43-1.89 3.71-2.73 1.3-.81 2.73-1.43 3.84-2.53 1.24-.91 2.47-1.82 3.74-2.68l1.33 1.97z"/><path fill="#8891EA" stroke="#8891EA" stroke-width="3" stroke-linecap="round" stroke-linejoin="round" stroke-miterlimit="10" d="M298.5 233l-123.4 2.56-69.6 1.44 5-99h186z"/><path fill="#6C74C4" stroke="#6C74C4" stroke-width="3" stroke-linecap="round" stroke-linejoin="round" stroke-miterlimit="10" d="M298.5 233l-123.4 2.56c1.35-3.14 3.32-6.04 5.67-8.64 2.48-2.75 5.38-5.16 8.44-7.16 8.12-5.33 17.47-8.42 26.31-12.43s17.58-9.3 22.73-17.53c7.55-12.07 6.04-28.2 13.73-40.17 3.09-4.83 7.4-8.55 12.25-11.63h32.27l2 95z"/><g fill="#fff"><circle cx="206" cy="188" r="13.33"/><circle cx="246.87" cy="188" r="13.33"/><circle cx="165.13" cy="188" r="13.33"/></g><path fill="#8891EA" stroke="#8891EA" stroke-width="3" stroke-linecap="round" stroke-linejoin="round" stroke-miterlimit="10" d="M129.23 224.49l-23 41 57.27-31.49z"/><path fill="#0C1238" d="M340.72 159.8l6.2 8.88c1.99 2.9 3.85 5.82 5.69 8.85.54.89.26 2.04-.63 2.58-.56.34-1.24.35-1.79.09l-.02-.01-20.43-10.03-20.4-10.08.83.2-26.68-.56c-8.89-.18-17.78-.38-26.68-.63l-53.35-1.36h-.01c-.9-.02-1.62-.77-1.59-1.68l.45-18.27.34-18.28.67-36.55c.02-.94.78-1.69 1.72-1.69h.01l35.78-.12 35.78.1 35.78.11c11.93.05 23.85.02 35.78 0 .87 0 1.59.68 1.64 1.54v.02l2.12 38.07 1.9 38.09c.05 1-.72 1.85-1.72 1.9h-.13c-1.88-.04-3.67-.15-5.5-.37-1.84-.21-3.75-.53-5.76-.8zm-3.12-1.8c2.26-.19 4.63-.42 7.08-.56 2.45-.14 4.95-.17 7.36-.13l-1.89 1.95-2.09-38.08-1.88-38.09 1.98 1.88c-11.93-.03-23.85-.13-35.78-.1h-71.56l-35.78-.15 1.73-1.69-.92 36.55-.46 18.27-.37 18.28-1.49-1.55 53.36 1 13.34.25 13.34.33 26.68.64h.01c.22.01.44.06.63.16 6.79 3.37 13.57 6.79 20.39 10.1l20.44 10-2.09 2.27c-2.12-3.45-4.2-7.02-6.22-10.62-2.03-3.59-3.93-7.2-5.81-10.71z"/><path fill="#E6E8F0" d="M34.5 168.82c1.48-.02 2.96 0 4.44.04 1.48.28 2.96-.19 4.44-.29 2.96-.15 5.92.12 8.88.15l2.22.05 2.22.12c1.48.06 2.96.15 4.44.28.74.08 1.48.03 2.22.03.74-.02 1.48.03 2.22.05l2.22.1c.74.03 1.48-.03 2.22-.05 1.48-.02 2.96.07 4.44.09 1.48.11 2.96-.38 4.44-.31l8.88-.29c1.48.02 2.96.27 4.44.17 1.48-.01 2.96-.1 4.44-.04.74.06 1.48.17 2.22.17.74-.01 1.48 0 2.22-.05l4.44-.21v2.36l-4.44.07c-.74 0-1.48.03-2.22.05-.74.03-1.48.15-2.22.22-1.48.07-2.96-.05-4.44-.13-1.48-.1-2.96-.07-4.44-.13-2.96-.44-5.92-.05-8.88.07-.74 0-1.48.11-2.22-.12-.37-.08-.74-.18-1.11-.17-.37.01-.74.04-1.11.06-1.48.13-2.96.42-4.44.4-.74-.05-1.48-.21-2.22-.18-.74 0-1.48.04-2.22.06-.74-.02-1.48.01-2.22-.04-.74-.05-1.48-.13-2.22-.03-.74.1-1.48.23-2.22.16-.74-.02-1.48-.19-2.22-.27-.37-.04-.74-.09-1.11-.09-.37.01-.74.04-1.11.02-.74-.05-1.48-.16-2.22-.26-1.48-.2-2.96-.14-4.44-.04-1.48.09-2.96.22-4.44.25-1.48 0-2.96-.36-4.44-.05-1.48.08-2.96.15-4.44.17v-2.39z"/></g></svg>