<svg xmlns="http://www.w3.org/2000/svg" viewBox="0 0 470 350" enable-background="new 0 0 470 350"><g><path fill="#D5DAEA" d="M166.82 184.13h220v81h-220zM387.77 266.09l-55.13.25-55.26.16-27.64.05-27.66-.04-55.26-.13h-1.25v-1.24l.06-20.25-.03-20.25-.07-40.5v-1.29h1.29l55-.1 55 .08 55 .09 55-.1h1.3v1.31l.04 20.51-.08 20.52-.31 40.93zm-1.91-1.92l-.4-40.1c-.13-13.33-.17-26.62-.15-39.94l1.5 1.5-110-.09-55-.01-55-.13 1.27-1.27-.1 40.5c-.05 13.5-.05 27-.02 40.5l-1.15-1.15 54.77-.04h27.37l27.4.09 27.41.1 27.4.05 54.7-.01z"/><path fill="#E6E8F0" d="M166.82 148.13h220v36h-220zM387.77 185.09l-55.12.27-55.27.13-55.32-.08c-18.43-.04-36.84-.14-55.24-.06l-1.22.01v-1.22l-.06-36v-1.28h1.28l55-.09 55 .12c18.33.05 36.67.07 55 0s36.67-.16 55-.12h1.37v1.37c0 12.31-.18 24.73-.42 36.95zm-1.91-1.92c-.26-11.81-.48-23.39-.5-35.04l1.45 1.45c-18.33.09-36.67.05-55 .04l-55-.08h-55l-55-.14 1.27-1.27-.09 36-1.18-1.18c18.27.09 36.53.04 54.78.03l54.75.02 54.85.22 54.67-.05z"/><path fill="#fff" d="M247.82 116.13h58v13h-58zM289.77 212.09l-12.39.4c-4.18.1-8.39.11-12.56.11h-1.47l-.01-1.48c-.02-3 .05-6 .09-9l.13-9c.03-3 .1-6 .05-9l-.07-9-.01-1.27 1.29-.01 12-.1 12 .09 1.3.01-.01 1.28-.1 9.23c-.02 3.08-.01 6.16.01 9.27.01 3.1 0 6.21-.07 9.27l-.18 9.2zm-1.91-1.92l-.26-8.87c-.1-2.95-.15-5.85-.17-8.75-.04-2.9-.04-5.8-.01-8.69l-.02-8.73 1.42 1.42-12-.01-12-.15 1.26-1.26-.1 9c-.06 3-.02 6-.01 9l.05 9c.02 3 .06 6 0 9l-1.2-1.2 5.79.08c1.92.02 3.87.09 5.79.09l11.46.07z"/><path fill="#D5DAEA" d="M247.14 148.63l.01-4c.01-1.33-.02-2.67.08-4 .09-1.33-.05-2.67-.16-4-.14-1.33-.19-2.67-.21-4-.04-2.67.05-5.33.1-8 .08-2.67.08-5.33.12-8l.02-1.27 1.22.03 7.19.2c2.4.03 4.79.23 7.19.24 2.4-.03 4.79-.01 7.19.06l3.59.09 3.59-.06c2.4-.03 4.79.07 7.19.06 1.2-.01 2.4.05 3.59-.01 1.2-.07 2.4-.23 3.59-.24l14.38-.26 1.15-.02.02 1.19c.02 1.33.09 2.67.03 4l-.14 4c-.04 2.67.05 5.33.06 8 .02 1.33-.1 2.67-.17 4s-.01 2.67-.01 4l.23 8h-2.36l-.07-8c-.04-1.33 0-2.67-.11-4-.08-1.33-.2-2.67-.17-4l.21-8c.02-2.67.05-5.33.23-8l1.09 1.09c-4.79-.17-9.58.26-14.38.26-1.2.06-2.4-.2-3.59-.29-.6-.04-1.2-.01-1.8.01-.6.03-1.2.03-1.8.07-2.4.16-4.79.38-7.19.35-1.2-.04-2.4-.18-3.59-.18-1.2.01-2.4.02-3.59.05-2.4.04-4.79-.02-7.19-.09-1.2-.05-2.4.08-3.59.16-1.2.08-2.4.04-3.59-.04-1.2-.08-2.4-.21-3.59-.26-1.2-.09-2.4.04-3.59-.04l1.1-1.1-.3 4c-.08 1.33-.09 2.67-.06 4l.3 8c.17 2.67-.27 5.33-.08 8 .12 1.33.12 2.67.15 4l.08 4h-2.37z"/><path fill="#fff" d="M281.23 203.63h-7.83l-1-27.6h8.83zM282.19 204.59c-2.79.26-5.82.55-8.79.53l-1.43-.01-.05-1.42-.24-6.9-.08-6.91c-.05-2.3-.06-4.6-.14-6.9l-.34-6.9-.06-1.3 1.34-.02 4.42-.08c1.47-.04 2.94-.03 4.42 0l1.37.02-.01 1.34c-.02 2.38-.06 4.76-.12 7.14-.07 2.37-.09 4.75-.1 7.14.02 2.4.05 4.82 0 7.2-.06 2.36-.1 4.74-.19 7.07zm-1.91-1.92l-.28-6.79c-.09-2.24-.1-4.42-.13-6.63.01-2.19.03-4.38-.01-6.6l-.03-6.64 1.41 1.41c-2.95.03-5.89-.1-8.83-.15l1.26-1.31.12 6.91c.07 2.3.19 4.6.28 6.9l.31 6.9.14 6.9-1.12-1.08c.59.01 1.17.04 1.75.02.58 0 1.15 0 1.72.01l3.41.15z"/><path fill="#EFA125" stroke="#EFA125" stroke-linecap="round" stroke-linejoin="round" stroke-miterlimit="10" d="M248.71 147.419l13.347 28.63-30.633 14.281-13.347-28.63z"/><path fill="#0C1238" d="M258.84 193.72c5.63 11.99 11.34 23.94 16.91 35.96l8.39 18.01 8.27 18.07-1.88-.59.07-.04.8-.46.7.57 8.3 6.75.31.25.11.36 4.17 13.54c1.39 4.51 2.85 9.01 4.28 13.51l.32 1.02-.97.46-11.32 5.33-1 .47-.6-.94-15.35-23.83-.23-.35.01-.42.28-10.69.02-.84.75-.35.08-.04-.65 1.78c-6.77-14.63-13.45-29.29-20.34-43.86-3.44-7.29-6.94-14.54-10.34-21.85l-10.19-21.92 2.45-1.14 10.34 21.85c3.45 7.28 6.8 14.61 10.21 21.91l10.14 21.94 10.22 21.91.6 1.28-1.28.6-.08.04.81-1.25-.23 10.7-.22-.79 15.12 23.97-1.59-.46 11.37-5.23-.63 1.43-4.19-13.54-4.28-13.51.38.56-8.36-6.68 1.34.1-.07.04-1.12.65-.55-1.18-8.43-17.99-8.31-18.05-4.17-9.02-4.25-8.98c-2.84-5.98-5.66-11.98-8.57-17.93l2.45-1.13z"/><path fill="#FFC04D" d="M216.46 171.36l-44.38-95.14c-5.24-11.23-.38-24.58 10.85-29.82 11.23-5.24 24.58-.38 29.82 10.85l44.38 95.14-40.67 18.97zM216.06 172.47l-7.53-15.96c-1.25-2.68-2.46-5.42-3.72-8.06l-3.89-7.8c-5.22-10.41-10.17-21.26-15.11-31.98l-7.44-16.07-7.31-16.11c-5.27-11.27.29-25.9 11.57-30.78 5.51-2.54 11.95-2.71 17.62-.73 5.73 1.94 10.49 6.39 13.02 11.83l3.69 7.96c1.25 2.64 2.58 5.24 3.88 7.86 2.6 5.24 5.04 10.55 7.56 15.81l7.52 15.83c2.52 5.27 5.08 10.52 7.45 15.87 4.71 10.7 9.89 21.17 14.75 31.8l.46 1-.98.44-10.4 4.65-10.35 4.83-20.79 9.61zm.81-2.22l19.88-9.63 9.9-4.74 9.85-4.84-.72 1.99c-5.01-10.56-9.67-21.28-14.62-31.86-2.49-5.29-4.76-10.67-7.21-15.98-2.46-5.3-5.04-10.55-7.55-15.82l-3.78-7.91c-1.24-2.65-2.58-5.25-3.72-7.94-1.13-2.7-2.18-5.43-3.48-8.05l-3.86-7.86c-1.24-2.47-2.96-4.68-5.03-6.47-1.03-.9-2.17-1.67-3.33-2.37-1.16-.72-2.39-1.32-3.67-1.8-2.55-.98-5.32-1.5-8.06-1.33-2.75.12-5.45.84-7.94 2-2.49 1.16-4.74 2.8-6.62 4.81-1.9 1.99-3.39 4.37-4.35 6.95-.9 2.61-1.24 5.38-1.09 8.11.08 1.36.24 2.72.51 4.06.29 1.34.71 2.65 1.25 3.91 1.15 2.64 2.28 5.33 3.46 7.97 1.2 2.64 2.5 5.22 3.62 7.91l3.49 8.01c1.18 2.67 2.33 5.36 3.59 7.96 2.45 5.27 4.97 10.48 7.46 15.68 2.49 5.21 5 10.37 7.36 15.74l3.59 8 3.73 7.77 7.34 15.73zM222.541 184.449l40.666-18.958 3.849 8.256-40.666 18.958zM226.01 193.81l-1.16-2.17c-.37-.74-.8-1.44-1.12-2.25-.17-.39-.32-.8-.51-1.16-.21-.35-.41-.71-.64-1.05-.46-.68-.93-1.39-1.32-2.14l-.64-1.24 1.33-.67c3.34-1.68 6.79-3.13 10.21-4.64 3.42-1.52 6.81-3.1 10.26-4.54 1.72-.73 3.42-1.51 5.17-2.19l2.59-1.08 2.54-1.2c3.38-1.6 6.89-2.91 10.21-4.64l.61-.32.33.66c.67 1.36 1.25 2.77 1.88 4.15l.95 2.07c.32.69.62 1.39.99 2.05l.3.53-.62.36c-.82.47-1.63 1-2.48 1.41l-2.56 1.26-5.15 2.5-5.17 2.52c-1.73.83-3.48 1.49-5.21 2.23-1.73.75-3.46 1.62-5.2 2.41-.87.4-1.74.83-2.6 1.19-.86.38-1.72.67-2.57 1.02-3.44 1.51-6.93 3.3-10.42 4.93zm.81-2.22l5-2.46c1.66-.82 3.31-1.59 4.98-2.51.83-.44 1.67-.95 2.49-1.36.82-.43 1.64-.77 2.46-1.16 1.64-.77 3.29-1.44 4.94-2.2 1.65-.75 3.3-1.56 4.97-2.24.83-.34 1.67-.67 2.51-1.03.84-.36 1.66-.79 2.49-1.19 1.65-.82 3.28-1.71 4.91-2.55l2.47-1.21c.81-.43 1.73-.61 2.6-.91l-.52 1.42c-.26-.72-.65-1.37-.99-2.05-.34-.68-.74-1.33-1.11-2-.37-.66-.78-1.31-1.12-1.99-.35-.67-.73-1.34-1.02-2.04l1.99.72c-.86.37-1.76.65-2.61 1.03-.86.37-1.69.79-2.54 1.19-1.67.84-3.37 1.62-5.08 2.37-.87.35-1.72.73-2.57 1.11-.84.41-1.65.89-2.47 1.35-1.63.92-3.43 1.5-5.19 2.15-1.79.59-3.37 1.62-5.17 2.19-1.75.67-3.52 1.3-5.21 2.11-3.39 1.58-6.66 3.41-10.03 5.04l.51-1.4c.31.62.53 1.29.77 1.96.11.34.26.66.39.99.14.32.33.6.49.89.34.56.58 1.23.86 1.85l.8 1.93z"/><path fill="#FFD57D" stroke="#FFD57D" stroke-linecap="round" stroke-linejoin="round" stroke-miterlimit="10" d="M234 163.18l-40.01-85.77c-.67-1.43-.05-3.13 1.38-3.79l.42-.19c1.43-.67 3.13-.05 3.79 1.38l40.01 85.77-5.59 2.6zM247.31 156.98l-40.01-85.78c-.67-1.43-.05-3.13 1.38-3.79l.42-.19c1.43-.67 3.13-.05 3.79 1.38l40.01 85.77-5.59 2.61zM220.69 169.39l-40.01-85.77c-.67-1.43-.05-3.13 1.38-3.79l.42-.19c1.43-.67 3.13-.05 3.79 1.38l40.01 85.77-5.59 2.6z"/><path fill="#0C1238" d="M167.98 73.32c3.71-1.87 7.45-3.68 11.27-5.34 1.92-.8 3.83-1.61 5.74-2.44.96-.39 1.89-.86 2.82-1.32l2.8-1.37c3.7-1.9 7.5-3.58 11.32-5.22.96-.41 1.88-.88 2.82-1.32l2.77-1.43c.92-.49 1.87-.9 2.81-1.35.94-.44 1.88-.88 2.84-1.29l1.14 2.45c-3.68 1.93-7.45 3.69-11.27 5.32-3.76 1.78-7.52 3.54-11.36 5.14-1.9.84-3.83 1.61-5.7 2.52l-5.61 2.71c-1.87.91-3.8 1.68-5.69 2.54-.96.4-1.86.92-2.8 1.38-.93.46-1.85.94-2.75 1.47l-1.15-2.45zM213.62 171.19c3.71-1.87 7.45-3.68 11.27-5.34 1.92-.8 3.83-1.61 5.74-2.44.96-.39 1.89-.86 2.82-1.32l2.8-1.37c3.7-1.9 7.5-3.58 11.32-5.22.96-.41 1.88-.88 2.82-1.32l2.77-1.43c.92-.49 1.87-.9 2.81-1.35.94-.44 1.88-.88 2.84-1.29l1.14 2.45c-3.68 1.93-7.45 3.69-11.27 5.32-3.76 1.78-7.52 3.54-11.36 5.14-1.9.84-3.83 1.61-5.7 2.52l-5.61 2.71c-1.87.91-3.8 1.68-5.69 2.54-.96.4-1.86.92-2.8 1.38-.93.46-1.85.94-2.75 1.47l-1.15-2.45zM219.31 183.39c3.71-1.87 7.45-3.68 11.27-5.34 1.92-.8 3.83-1.61 5.74-2.44.96-.39 1.89-.86 2.82-1.32l2.8-1.37c3.7-1.9 7.5-3.58 11.32-5.22.96-.41 1.88-.88 2.82-1.32l2.77-1.43c.92-.49 1.87-.9 2.81-1.35.94-.44 1.88-.88 2.84-1.29l1.14 2.45c-3.68 1.93-7.45 3.69-11.27 5.32-3.76 1.78-7.52 3.54-11.36 5.14-1.9.84-3.83 1.61-5.7 2.52l-5.61 2.71c-1.87.91-3.8 1.68-5.69 2.54-.96.4-1.86.92-2.8 1.38-.93.46-1.85.94-2.75 1.47l-1.15-2.45zM223.58 192.53c3.71-1.87 7.45-3.68 11.27-5.34 1.92-.8 3.83-1.61 5.74-2.44.96-.39 1.89-.86 2.82-1.32l2.8-1.37c3.7-1.9 7.5-3.58 11.32-5.22.96-.41 1.88-.88 2.82-1.32l2.77-1.43c.92-.49 1.87-.9 2.81-1.35.94-.44 1.88-.88 2.84-1.29l1.14 2.45c-3.68 1.93-7.45 3.69-11.27 5.32-3.76 1.78-7.52 3.54-11.36 5.14-1.9.84-3.83 1.61-5.7 2.52l-5.61 2.71c-1.87.91-3.8 1.68-5.69 2.54-.96.4-1.86.92-2.8 1.38-.93.46-1.85.94-2.75 1.47l-1.15-2.45z"/><path fill="#fff" d="M143.73 224.55l.66 1.23c3.81 7.1 15.84 3.03 12.43-5.74l-.82-2.08-2.55 1.37-2.58-4.81 3.02-1.67c-.75-1.82-1.61-3.89-2.55-6.16l-3.63 1.94-2.58-4.81 4.06-2.24c-13.43-32.14-39.01-92.32-39.01-92.32l7.84-4.2-2.02-3.76c1.92-.99 4.08-2.11 6.32-3.26l1.96 3.66 6.27-3.36-1.9-3.55 6.33-3.26 1.85 3.45 6.26-3.36-3.36-6.27-.08.04c-6.56-11.12-17.52-12.45-32.64-3.84-21.83 12.42-23.2 22.41-10.86 47.39 13.76 27.86 25.06 50.96 33.85 68.63l2.23-1.23 2.63 4.9-2.39 1.28c1.09 2.2 2.15 4.31 3.16 6.31l2.54-1.4 2.63 4.91-2.68 1.43c1.07 2.09 2.07 4.05 3.02 5.88l2.76-1.52 2.63 4.91-2.8 1.51z"/><path fill="#0C1238" d="M145.23 225c.18.03.33.01.41 0h.09l.09.13c.2.35.43.69.69.98.52.59 1.17 1.05 1.9 1.34 1.47.59 3.26.49 4.71-.23.73-.36 1.35-.87 1.82-1.47.46-.61.75-1.32.86-2.08.11-.76.02-1.58-.21-2.4l-.21-.62-.27-.7-.56-1.43 2.17.8-2.57 1.33-.05.03c-.72.37-1.6.09-1.97-.63v-.01c-.82-1.62-1.66-3.24-2.51-4.85l-.01-.02c-.36-.68-.1-1.53.57-1.9 1.01-.55 2.03-1.08 3.02-1.68l-.63 1.8-2.71-6.09 2.23.79-3.58 2.04c-.8.45-1.81.18-2.26-.62l-.04-.08-2.71-4.74c-.49-.85-.2-1.93.64-2.43l.1-.06c1.33-.79 2.68-1.54 4.03-2.29l-.84 2.4c-3.28-7.68-6.56-15.36-9.72-23.09l-9.6-23.14c-3.22-7.7-6.45-15.41-9.58-23.15-3.15-7.73-6.37-15.44-9.47-23.2l-.02-.04c-.23-.58.02-1.23.56-1.51l7.91-4.08-.44 1.46c-.64-1.27-1.34-2.51-2-3.77-.28-.52-.08-1.17.44-1.44l.01-.01 6.31-3.27c.52-.27 1.16-.07 1.44.44l.01.01c.66 1.21 1.32 2.43 1.96 3.66l-1.46-.44 6.29-3.32-.42 1.4-1.88-3.56-.01-.01c-.26-.49-.07-1.09.42-1.34l.02-.01 6.36-3.2.02-.01c.45-.23 1-.05 1.23.4l1.81 3.46-1.21-.37c1.05-.55 2.1-1.09 3.14-1.66l3.12-1.7-.36 1.21-3.41-6.25 1.27.39-.08.04c-.44.24-.99.09-1.24-.33l-.01-.02c-1.79-2.93-4.09-5.54-7.02-7.2-2.96-1.56-6.42-2.14-9.82-1.71-3.41.4-6.75 1.52-9.93 2.95-3.19 1.44-6.18 3.35-9.09 5.32-2.87 2.01-5.66 4.13-8 6.61-2.36 2.46-4.12 5.4-4.84 8.62-.74 3.22-.47 6.65.29 9.99.78 3.35 1.97 6.64 3.35 9.86 1.37 3.24 2.94 6.38 4.55 9.55l4.79 9.54c3.15 6.38 6.17 12.83 9.26 19.24 3.1 6.41 6.34 12.75 9.49 19.13l4.76 9.56 4.57 9.65-1.84-.57 2.25-1.19.04-.02c.62-.33 1.39-.09 1.72.53l.01.01c.85 1.65 1.68 3.3 2.58 4.92.33.59.11 1.34-.48 1.66h-.01l-.01.01-2.38 1.29.53-1.65 3.18 6.29-1.75-.54 2.53-1.43c.62-.35 1.4-.13 1.75.49v.01l.02.03 2.68 4.88c.36.65.12 1.46-.53 1.82l-.02.01-2.66 1.46.58-1.85 3.08 5.84-1.99-.6 2.75-1.55c.71-.4 1.6-.15 2 .56v.01l.02.03 2.68 4.88c.4.72.15 1.63-.56 2.05l-.07.04c-.63.36-1.23.46-2.07.61zm-3.01-.91c1.03-.87 2.3-1.79 3.58-2.46l-.65 2.15-2.65-4.9 2.19.65-2.76 1.53c-.78.43-1.76.15-2.19-.63l-.02-.05-3.05-5.88c-.41-.79-.11-1.77.67-2.19l.01-.01 2.67-1.44-.68 2.24-2.65-4.9 2.29.68-2.54 1.41c-.81.45-1.83.16-2.29-.65l-.03-.05-.01-.01-3.19-6.31c-.42-.82-.1-1.82.71-2.26l.02-.01 2.38-1.29-.7 2.33c-.87-1.64-1.79-3.24-2.7-4.86l2.47.73-2.21 1.28c-.87.5-1.99.21-2.49-.67l-.04-.07-.03-.07-4.89-9.49-4.66-9.61-9.25-19.25c-3.11-6.41-6.27-12.78-9.33-19.21-2.99-6.46-6.16-12.81-9.08-19.43-1.43-3.31-2.7-6.73-3.55-10.34-.83-3.59-1.19-7.47-.32-11.29.84-3.82 2.96-7.28 5.55-9.99 1.29-1.37 2.68-2.63 4.12-3.78 1.46-1.12 2.97-2.18 4.55-3.08 6.33-3.42 12.67-7.28 20.24-8.42 3.74-.59 7.85-.06 11.42 1.73 3.52 1.88 6.35 4.84 8.23 8.14l-2.66-.74.08-.04.02-.01c.97-.51 2.17-.15 2.68.82.56 1.05 1.07 2.11 1.61 3.17l1.61 3.17.04.07c.45.89.1 1.97-.79 2.42l-3.17 1.61c-1.06.54-2.09 1.12-3.13 1.68-.86.46-1.92.13-2.38-.72l-1.86-3.44 2.37.74-6.3 3.31.77-2.48 1.91 3.54c.48.89.15 2-.74 2.47l-6.28 3.35c-.89.47-1.99.14-2.46-.74-.66-1.22-1.3-2.44-1.93-3.67l2.39.74-6.35 3.18.72-2.32c.68 1.25 1.3 2.53 2.02 3.76.46.78.19 1.79-.59 2.24l-.01.01-.1.06-7.74 4.4.86-2.45c1.74 3.8 3.24 7.7 4.78 11.58l4.57 11.67 2.43 5.77c.82 1.92 1.64 3.84 2.38 5.8l4.59 11.66c1.54 3.88 3.07 7.77 4.75 11.59 1.65 3.84 3.26 7.69 4.96 11.51 3.34 7.66 6.76 15.28 10.05 22.96.28.65.02 1.4-.58 1.74l-.03.02c-1.35.76-2.69 1.52-4.06 2.24l.56-1.88 2.52 4.84-1.8-.54 3.65-1.9.03-.02c.62-.32 1.38-.08 1.7.54l.05.11 2.48 6.19.02.04c.22.56-.02 1.19-.54 1.46-1.02.53-2.01 1.12-3.01 1.69l.48-1.64 2.68 4.76-1.8-.54 2.52-1.42c.66-.37 1.49-.14 1.87.52l.07.15.02.05.58 1.43.29.73.29.83c.34 1.13.5 2.38.33 3.64-.16 1.25-.66 2.49-1.43 3.51-.78 1.01-1.78 1.81-2.88 2.37-2.21 1.1-4.84 1.28-7.2.37-1.17-.46-2.25-1.21-3.09-2.15-.43-.47-.78-.98-1.09-1.52-.07-.1-.19-.33-.29-.54-.1-.22-.19-.44-.27-.67-.15-.46-.25-.93-.31-1.35z"/><path fill="#948CFF" d="M93.23 135.52c-10.41 15.62 6.59 37.02 15.1 34.01 8.43-2.98 29.96-15.7 29.96-15.7l12.12 27.05-16.48 8.76c3.37 10.21 24.13 12.08 24.13 12.08l43.06 87.61c3.66 7.44 12.73 10.4 20.07 6.54 6.94-3.65 9.8-12.09 6.51-19.21l-78.36-169.64-56.11 28.5zM94.01 136.41c-.11.27-.18.36-.41.75-.2.33-.37.67-.55 1.01-.34.69-.65 1.38-.89 2.11-.51 1.44-.82 2.95-.96 4.47-.27 3.06.2 6.19 1.19 9.13.99 2.96 2.52 5.74 4.4 8.23 1.87 2.47 4.2 4.72 6.92 5.96 1.35.58 2.81.83 4.01.46 1.35-.49 2.89-1.17 4.32-1.85 2.9-1.38 5.76-2.9 8.6-4.45 2.84-1.55 5.66-3.17 8.48-4.77 2.82-1.59 5.64-3.21 8.43-4.86l1.39-.82.66 1.47 6.08 13.52 6.02 13.54.54 1.21-1.17.62-16.51 8.71.65-1.63c.63 1.91 2.02 3.56 3.74 4.89 1.74 1.32 3.76 2.35 5.87 3.19 2.11.83 4.32 1.49 6.56 2.01 2.23.52 4.54.93 6.78 1.17l.72.08.3.62 18 37.17 8.94 18.62 9.1 18.54 4.52 9.28 2.25 4.62c.75 1.45 1.76 2.77 2.98 3.87 2.41 2.22 5.65 3.52 8.93 3.65 3.29.1 6.59-1.02 9.15-3.07 2.57-2.04 4.35-5.01 5.01-8.22.33-1.6.38-3.27.14-4.89-.23-1.65-.79-3.14-1.54-4.7l-8.62-18.76c-1.42-3.14-2.91-6.24-4.41-9.34l-4.49-9.3-8.74-18.71-17.48-37.42c-5.9-12.44-11.53-25-17.21-37.54-5.78-12.49-11.67-24.94-17.36-37.47l1.47.51-14.05 6.95-13.94 7.14-27.82 14.3zm-1.56-1.77l28.14-14.4 14.08-7.2 14.01-7.34 1.36-.71.67 1.42c5.85 12.46 11.47 25.03 17.17 37.56 5.74 12.51 11.51 25.01 17.11 37.59l4.28 9.4 4.39 9.35 8.78 18.69 8.76 18.7c1.43 3.13 2.77 6.3 4.12 9.47 1.35 3.17 2.8 6.29 4.29 9.39l8.89 18.64c.36.75.78 1.6 1.09 2.5.32.89.55 1.8.7 2.73.31 1.86.28 3.78-.07 5.64-.66 3.74-2.87 7.14-5.83 9.46-2.98 2.33-6.79 3.53-10.54 3.36-3.75-.1-7.45-1.56-10.24-4.08-1.41-1.25-2.58-2.75-3.46-4.41-.82-1.61-1.55-3.1-2.32-4.66l-4.55-9.27c-3.03-6.18-5.94-12.42-9.05-18.56l-4.67-9.21-2.32-4.61-2.23-4.66-8.83-18.67-4.56-9.26c-1.51-3.09-2.95-6.22-4.43-9.33l.79.54c-2.41-.29-4.73-.75-7.06-1.31-2.32-.57-4.61-1.27-6.84-2.17-2.22-.92-4.38-2.02-6.36-3.47-1.94-1.47-3.68-3.42-4.51-5.86l-.2-.6.56-.3 16.44-8.83-.37 1.07-12.28-26.98 1.42.45c-5.61 3.34-11.26 6.57-17.06 9.59-2.89 1.51-5.81 2.99-8.8 4.35-1.52.68-2.97 1.32-4.66 1.88-1.9.51-3.78.04-5.36-.67-3.19-1.45-5.71-3.82-7.83-6.43-2.12-2.63-3.72-5.64-4.83-8.83-1.09-3.19-1.64-6.63-1.36-10.05.14-1.71.49-3.41 1.06-5.04.28-.82.62-1.61 1-2.39.19-.38.39-.77.61-1.14.19-.33.57-.91.9-1.34z"/><path fill="#5053AB" stroke="#5053AB" stroke-width="3" stroke-linecap="round" stroke-linejoin="round" stroke-miterlimit="10" d="M135.25 162.74l-25.68 13.76 5.99 14.94 27.17-12.28z"/><path fill="#0C1238" d="M127.46 167.63c.21.06.41.15.6.26.14.26.45.03.68.05.44.06.78.38 1.19.55.2.09.39.2.57.33.19.12.37.24.54.41.09.08.2.1.3.13l.29.14c.18.13.37.26.6.26.21.06.39.2.59.29.18.15.5-.08.68.03.43.09.86.2 1.29.28.2.09.35.31.57.34.21.06.44.06.62.19.16.2.36.29.58.31l.66.1c.43.07.73.47.66.9-.07.43-.47.73-.9.66l-.11-.02-.21-.06c-.21-.06-.42-.11-.63-.19-.2-.08-.42-.12-.67-.07-.22-.03-.4-.18-.58-.31-.18-.13-.39-.19-.58-.3l-.26-.23c-.09-.08-.2-.09-.31-.11l-.67-.07c-.1-.04-.23-.02-.28-.19-.05-.18-.16-.18-.28-.19-.23 0-.51.12-.71.02-.09-.07-.15-.21-.26-.23l-.32-.07c-.1-.04-.21-.07-.3-.14s-.17-.16-.3-.14c-.13.03-.26.07-.34-.01-.09-.06-.16-.2-.24-.29-.07-.12-.19-.11-.29-.16-.09-.07-.17-.18-.24-.28-.32-.38-.85-.2-1.27-.33-.2-.07-.32-.38-.6-.26-.22-.02-.44-.06-.65-.12-.41-.13-.64-.57-.51-.99.13-.41.57-.64.98-.51l.11.02zM121.39 170.87c.35.11.69.24 1.02.39.28.29.73.12 1.1.18.72.14 1.35.56 2.04.81.34.13.67.29 1 .46.33.16.66.33.97.53l1.02.4c.32.18.66.33 1.02.39.35.1.67.28 1.02.41.32.19.77 0 1.1.16l2.13.53c.34.14.63.4.99.47.35.1.72.15 1.05.32.3.25.65.36 1.01.44l1.08.23c.43.09.7.51.61.93s-.51.7-.93.61l-.07-.02-.12-.04c-.35-.11-.7-.2-1.05-.32-.34-.12-.7-.2-1.09-.19-.36-.07-.68-.27-1.01-.44-.32-.18-.67-.28-1.01-.44-.59-.52-1.37-.51-2.08-.67-.17-.06-.37-.05-.49-.25-.12-.21-.31-.23-.49-.25-.38-.03-.78.03-1.12-.1-1.32-.66-2.76-.96-4-1.84-.61-.47-1.41-.37-2.11-.58-.34-.12-.61-.46-1.02-.39-.36-.07-.72-.14-1.07-.25-.41-.13-.65-.57-.52-.98.13-.41.57-.64.98-.52l.04.02zM115.33 174.11c.36.11.71.24 1.05.39.29.3.75.12 1.12.18.74.15 1.39.57 2.09.83.35.13.69.29 1.03.47.34.16.68.34 1 .54.34.17.71.23 1.05.41.33.19.68.33 1.05.4.36.11.69.29 1.04.42.33.19.79.01 1.13.17l2.19.55c.35.14.65.4 1.02.48.36.1.74.15 1.07.33.31.25.67.37 1.04.45l1.11.24c.43.09.7.51.61.93s-.51.7-.93.61l-.06-.02-.12-.04-1.08-.32c-.35-.12-.72-.21-1.12-.2-.37-.08-.7-.28-1.03-.45-.33-.19-.69-.29-1.04-.45-.61-.52-1.41-.52-2.14-.69-.18-.06-.38-.05-.51-.26-.13-.21-.32-.23-.51-.26-.39-.03-.8.02-1.15-.11-1.35-.67-2.83-.98-4.11-1.87-.63-.48-1.45-.38-2.17-.6-.35-.12-.63-.47-1.05-.4-.37-.07-.74-.15-1.1-.26-.42-.13-.65-.57-.52-.98.13-.41.57-.64.98-.52l.06.03zM113.48 178.64c.25.08.49.18.72.3.18.27.54.05.8.09.52.08.95.43 1.44.63.24.1.47.22.7.37.23.13.46.27.67.45.11.09.24.11.36.14.13.03.24.11.36.16.22.14.45.28.72.3.25.07.47.23.71.33.22.16.58-.06.81.07.51.11 1.02.25 1.54.35.24.11.43.34.69.38.25.07.52.09.75.23.2.21.44.31.71.35l.78.14c.43.08.72.48.64.91s-.48.72-.91.64l-.09-.02-.18-.05-.75-.23c-.24-.09-.5-.14-.79-.1-.26-.05-.48-.21-.7-.35-.23-.14-.47-.22-.71-.34l-.32-.25c-.11-.08-.24-.1-.37-.13l-.8-.1c-.12-.04-.27-.03-.34-.21-.07-.19-.21-.2-.34-.21-.27-.01-.59.1-.83-.01-.11-.08-.2-.23-.32-.25l-.38-.09c-.12-.04-.25-.09-.36-.16-.11-.08-.21-.18-.36-.16-.15.02-.3.06-.41-.03-.11-.07-.2-.21-.3-.31-.09-.13-.23-.13-.35-.18-.11-.08-.21-.19-.31-.3-.41-.41-1.02-.25-1.52-.4-.25-.09-.41-.41-.72-.3-.26-.04-.52-.08-.77-.16-.41-.13-.64-.57-.51-.99.13-.41.57-.64.98-.52l.06.01zM134.67 164.99c-.1.38-.23.75-.37 1.11-.29.32-.1.79-.16 1.18-.13.78-.53 1.47-.77 2.22-.12.37-.27.73-.44 1.09-.15.36-.32.72-.52 1.07-.17.36-.21.75-.39 1.11-.18.35-.32.72-.38 1.11-.1.38-.27.73-.39 1.11-.18.35.02.82-.14 1.18l-.49 2.3c-.13.37-.39.7-.46 1.09-.09.38-.14.78-.3 1.13-.24.33-.35.71-.42 1.1l-.21 1.16c-.08.43-.49.71-.91.64-.43-.08-.71-.49-.64-.91l.01-.06.03-.12c.1-.38.19-.76.3-1.14.11-.37.19-.76.17-1.17.07-.39.26-.74.42-1.1.18-.35.27-.73.42-1.1.51-.66.48-1.49.64-2.26.05-.19.04-.39.24-.54.2-.14.22-.34.24-.54.02-.4-.04-.83.08-1.2.63-1.44.91-2.99 1.77-4.36.46-.68.35-1.53.54-2.28.11-.37.45-.68.37-1.11.06-.39.13-.78.23-1.15.11-.42.55-.67.96-.55.42.11.67.54.56.96l.01.03zM125.7 169.79c-.1.38-.23.75-.37 1.11-.29.32-.1.79-.16 1.18-.13.78-.53 1.47-.77 2.22-.12.37-.27.73-.44 1.09-.15.36-.32.72-.52 1.07-.17.36-.21.75-.39 1.11-.18.35-.32.72-.38 1.11-.1.38-.27.73-.39 1.11-.18.35.01.82-.14 1.18l-.49 2.3c-.13.37-.39.7-.46 1.09-.09.38-.14.78-.3 1.13-.24.33-.35.71-.42 1.1l-.21 1.16c-.08.43-.49.71-.91.64s-.71-.49-.64-.91l.01-.06.03-.12c.1-.38.19-.76.3-1.14.11-.37.19-.76.17-1.17.07-.39.26-.74.42-1.1.18-.35.27-.73.42-1.1.51-.66.48-1.49.64-2.26.05-.19.04-.39.24-.54.2-.14.22-.34.24-.54.02-.4-.04-.83.08-1.2.63-1.44.91-2.99 1.77-4.36.46-.68.35-1.53.54-2.28.11-.37.45-.68.37-1.11.06-.39.13-.78.23-1.15.11-.42.55-.67.96-.55.42.11.67.54.56.96l.01.03z"/><path fill="#5053AB" stroke="#5053AB" stroke-width="3" stroke-linecap="round" stroke-linejoin="round" stroke-miterlimit="10" d="M115.37 125.76l36.26-18.24-4-7.45-36.26 18.23z"/><path fill="#fff" d="M143.59 124.36c-.13.51-.14 1.04-.12 1.57-.12.57.33 1.03.59 1.45.5.87 1.06 1.7 2.02 2.1.47.18.95.34 1.46.37l.39.02.39-.04c.27-.01.52-.09.79-.14.13-.04.25-.1.37-.17.12-.06.23-.13.33-.23l.33-.24.29-.28c.22-.17.37-.4.54-.61.12-.24.24-.49.27-.76.16-.51.19-1.06.12-1.61-.07-.57-.58-.95-.85-1.42-.68-.89-1.54-1.66-2.53-2.08-.45-.28-.92-.57-1.44-.6-.51-.05-.97.08-1.4.22-.47.08-.86.46-1.09.91-.12.23-.19.49-.29.73-.04.29-.11.55-.17.81zm-1.53-.35l.27-.99c.15-.33.27-.66.46-.97.22-.3.39-.63.7-.9.25-.3.56-.57.91-.81.75-.39 1.61-.4 2.34-.26.72.18 1.42.37 2.01.75.58.39 1.04.89 1.59 1.28.51.44 1.05.87 1.44 1.44.21.26.41.59.44.97.04.18.02.37.08.54l.19.5c.2.68.43 1.49.17 2.24-.35.7-.7 1.35-1.16 1.93-.25.27-.52.54-.84.72-.3.21-.67.3-.95.54-.59.47-1.4.58-2.12.4-.18-.01-.36-.04-.53-.07-.18-.01-.36-.01-.53-.05-.34-.11-.66-.28-.96-.46-.57-.39-1.17-.69-1.7-1.14-.53-.44-1-.97-1.31-1.59-.29-.65-.23-1.35-.51-1.99-.13-.68-.11-1.39.01-2.08z"/><path fill="#5053AB" d="M156.01 136.82c.74 1.26 1.44 2.55 1.95 3.92.26.68.44 1.41.72 2.08.27.68.63 1.32 1.01 1.95.38.63.74 1.26 1.02 1.94.29.67.53 1.36.8 2.04.24.69.67 1.29 1.05 1.93.2.31.33.65.5.97.16.33.32.66.44 1 .26.7-.1 1.48-.81 1.74-.6.22-1.26-.01-1.6-.53l-.04-.05c-.4-.62-.75-1.26-1.09-1.91-.34-.65-.54-1.36-.84-2.03-.65-1.31-1.28-2.62-1.74-4.02-.24-.69-.49-1.38-.81-2.04-.31-.66-.71-1.28-1.03-1.94-.36-.64-.53-1.36-.83-2.03-.31-.66-.67-1.3-1.16-1.87-.48-.57-.41-1.43.16-1.91s1.43-.41 1.91.16l.13.18.26.42zM179.85 187.6c.83 1.8 1.71 3.57 2.49 5.39.61 1.9 1.87 3.49 2.81 5.24 1.83 3.51 3.27 7.21 4.95 10.8l1.23 2.7 1.16 2.73c.79 1.82 1.56 3.64 2.29 5.49.36.93.82 1.8 1.25 2.7.44.89.82 1.8 1.23 2.7l1.18 2.73c.4.91.87 1.78 1.31 2.66.87 1.78 1.62 3.61 2.48 5.4.72 1.85 2.03 3.42 2.81 5.24l5.34 10.61 1.16 2.74c.38.92.77 1.83 1.23 2.7.86 1.78 1.79 3.53 2.58 5.35.36.92.69 1.86 1.11 2.76.44.89.85 1.79 1.31 2.66l2.73 5.28c.3.58.07 1.29-.51 1.59-.58.3-1.29.07-1.59-.51l-.01-.02-.03-.05-2.6-5.34-1.31-2.66-1.46-2.59c-.89-1.77-1.65-3.6-2.43-5.42-.76-1.83-1.63-3.61-2.43-5.42-1.29-3.77-3.34-7.18-5.14-10.71-.43-.89-.94-1.74-1.17-2.73-.14-.48-.26-.97-.48-1.41l-.69-1.32c-.96-1.73-2.07-3.4-2.9-5.2-.38-.92-.65-1.88-1.11-2.76l-1.32-2.66c-.41-.9-.86-1.78-1.23-2.7-.19-.46-.38-.92-.58-1.37-.19-.46-.41-.9-.66-1.33-.52-.85-1.06-1.69-1.41-2.62-.4-.9-.68-1.87-1.02-2.8-.18-.46-.34-.93-.55-1.38-.22-.44-.46-.88-.65-1.33l-1.03-2.8c-.67-1.88-1.56-3.64-2.5-5.39-.92-1.75-1.89-3.49-2.77-5.26-.84-1.79-1.38-3.73-2.49-5.39-.94-1.74-1.8-3.53-2.7-5.29-.3-.58-.07-1.29.51-1.59.58-.3 1.29-.07 1.59.51l.02.04v.03zM152.82 152.97c.81 1.75 1.66 3.48 2.43 5.25.59 1.85 1.83 3.4 2.74 5.1 1.79 3.42 3.19 7.02 4.81 10.52l1.2 2.63 1.13 2.66c.77 1.77 1.51 3.55 2.22 5.35.34.9.8 1.75 1.21 2.62.43.86.79 1.76 1.19 2.63l1.14 2.66c.39.88.85 1.73 1.28 2.59.85 1.73 1.58 3.52 2.41 5.26.7 1.8 1.98 3.33 2.74 5.1l5.21 10.33 1.13 2.67c.37.89.75 1.78 1.19 2.63.84 1.74 1.74 3.44 2.51 5.21.35.9.67 1.81 1.08 2.69.43.86.83 1.74 1.28 2.59l2.66 5.14c.3.58.07 1.29-.51 1.59-.58.3-1.29.07-1.59-.51l-.01-.02-.03-.06-2.53-5.2c-.41-.87-.85-1.73-1.28-2.59-.44-.86-.96-1.68-1.43-2.52-.87-1.72-1.6-3.51-2.36-5.28-.73-1.79-1.59-3.52-2.36-5.28-1.25-3.67-3.25-6.99-5.01-10.43-.41-.87-.92-1.7-1.13-2.66-.13-.47-.25-.95-.47-1.38l-.67-1.28c-.94-1.69-2.03-3.3-2.83-5.06-.37-.89-.63-1.83-1.07-2.69l-1.29-2.59c-.4-.88-.84-1.74-1.2-2.63-.37-.89-.7-1.8-1.21-2.63-.51-.83-1.03-1.64-1.38-2.55-.39-.88-.65-1.82-.99-2.73-.17-.45-.33-.91-.54-1.34-.21-.43-.45-.85-.63-1.3-.36-.89-.68-1.81-1-2.73-.64-1.83-1.52-3.55-2.43-5.25-.9-1.71-1.85-3.39-2.7-5.12-.82-1.75-1.33-3.63-2.42-5.25-.92-1.7-1.79-3.42-2.63-5.15-.29-.59-.04-1.29.55-1.58s1.29-.04 1.58.55l.01.04z"/></g></svg>