<?xml version="1.0" encoding="utf-8"?>
<!-- Generator: Adobe Illustrator 22.0.1, SVG Export Plug-In . SVG Version: 6.00 Build 0)  -->
<svg version="1.1" xmlns="http://www.w3.org/2000/svg" xmlns:xlink="http://www.w3.org/1999/xlink" x="0px" y="0px"
	 viewBox="0 0 154.9 154.9" style="enable-background:new 0 0 154.9 154.9;" xml:space="preserve">
<style type="text/css">
	.st0{fill:#F4F6F8;}
	.st1{clip-path:url(#SVGID_6_);}
	.st2{opacity:0.5;fill:#E8EAF2;stroke:#E8EAF2;stroke-width:2.9118;enable-background:new    ;}
	.st3{fill:none;stroke:#E8EAF2;stroke-width:2.9118;}
	.st4{opacity:0.5;fill:#FFFFFF;stroke:#FFFFFF;stroke-width:2.9118;enable-background:new    ;}
	.st5{fill:#E8EAF2;}
	.st6{fill:#E0E3ED;}
	.st7{fill:none;stroke:#FFFFFF;stroke-width:1.9412;}
	.st8{fill:#0C1238;}
	.st9{fill:#46C0C0;stroke:#46C0C0;stroke-width:2.9118;}
	.st10{fill:none;stroke:#FFC14D;stroke-width:1.9412;}
	.st11{opacity:0.5;}
	.st12{fill:none;stroke:#DFE3E8;stroke-miterlimit:10;}
	.st13{fill:#FDFDFE;}
	.st14{fill:#647481;}
	.st15{fill:#FDFDFE;stroke:#C4CDD5;stroke-width:0.7811;stroke-miterlimit:10;}
	.st16{fill:#5600E3;}
	.st17{fill:#FFFFFF;}
	.st18{fill:#FDFDFE;stroke:#C4CDD5;stroke-width:0.7162;stroke-miterlimit:10;}
	.st19{fill:#606EC6;}
	.st20{opacity:0.2;fill:#212B35;}
	.st21{fill:#67D690;}
	.st22{clip-path:url(#SVGID_10_);}
	.st23{fill:#E76574;}
	.st24{clip-path:url(#SVGID_14_);}
	.st25{fill:none;stroke:#E8EAF2;stroke-width:3;stroke-miterlimit:10;}
	.st26{opacity:0.5;fill:#E8EAF2;stroke:#E8EAF2;stroke-width:3;stroke-miterlimit:10;enable-background:new    ;}
	.st27{fill:#E0E3ED;stroke:#E0E3ED;stroke-width:2;stroke-miterlimit:10;}
	.st28{fill:#E8EAF2;stroke:#E8EAF2;stroke-width:3;stroke-miterlimit:10;}
	.st29{fill:#7581CE;}
	.st30{fill:#2F3155;}
	.st31{fill:#3E4166;}
	.st32{fill:#5053AB;}
	.st33{fill:none;stroke:#0C1238;stroke-miterlimit:10;}
	.st34{fill:url(#SVGID_17_);}
	.st35{fill:#DDA000;stroke:#DDA000;stroke-width:3;stroke-miterlimit:10;}
	.st36{fill:#FFC14D;stroke:#FFC14D;stroke-width:3;stroke-miterlimit:10;}
	.st37{fill:#FFFFFF;stroke:#FFFFFF;stroke-width:3;stroke-miterlimit:10;}
	.st38{fill:none;stroke:#F4F6F8;stroke-miterlimit:10;}
	.st39{opacity:0.7;fill:#E8EAF2;enable-background:new    ;}
	.st40{clip-path:url(#SVGID_19_);}
	.st41{fill:url(#SVGID_22_);}
	.st42{fill:#FFFFFF;stroke:#E2E3E6;stroke-miterlimit:10;}
	.st43{fill:#5F6DC5;stroke:#3F4EAE;stroke-miterlimit:10;}
	.st44{fill:#E6E7F1;}
	.st45{fill:#FBB563;}
	.st46{fill:#B9BAD5;}
	.st47{fill:#5F5371;}
	.st48{fill:#857B98;}
	.st49{fill:#FDEED1;}
	.st50{fill:#E6E8F0;}
	.st51{opacity:0.6;}
	.st52{fill:none;stroke:#67D690;stroke-width:19;stroke-linecap:round;stroke-miterlimit:10;}
	.st53{opacity:0.1;fill:none;stroke:#413351;stroke-width:5;stroke-linecap:round;stroke-miterlimit:10;}
	.st54{opacity:0.1;fill:#212B35;}
	.st55{fill:#FCF1CD;}
	.st56{fill:#FDFDFE;stroke:#DFE3E8;stroke-width:0.75;stroke-miterlimit:10;}
	.st57{fill:none;stroke:#637381;stroke-width:2;stroke-miterlimit:10;}
	.st58{fill:#A0C858;}
	.st59{fill:#A0C758;}
	.st60{fill:#A0C757;}
	.st61{fill:#A7CB65;}
	.st62{fill:#A2C85B;}
	.st63{fill:#A3C95D;}
	.st64{fill:#A9CC67;}
	.st65{fill:#8891EA;stroke:#8891EA;stroke-width:3;stroke-linecap:round;stroke-linejoin:round;stroke-miterlimit:10;}
	.st66{fill:#6C74C4;stroke:#6C74C4;stroke-width:3;stroke-linecap:round;stroke-linejoin:round;stroke-miterlimit:10;}
	.st67{fill:#F5F5F7;}
	.st68{fill:#FFC04D;stroke:#FFC04D;stroke-width:2;stroke-linecap:round;stroke-linejoin:round;stroke-miterlimit:10;}
	.st69{fill:#D5DAEA;}
	.st70{fill:none;stroke:#FFC04D;stroke-width:2;stroke-linecap:round;stroke-linejoin:round;stroke-miterlimit:10;}
	.st71{fill:#FFC04D;}
	.st72{fill:#8891EA;}
	.st73{fill:#6C74C4;}
	.st74{fill:#FFD57D;}
</style>
<g id="background">
</g>
<g id="Designed_by_freepik">
	<rect class="st50" width="154.9" height="154.9"/>
	<g>
		<path id="XMLID_6_" class="st8" d="M114,71.8c8.5-8.5,8.5-22.4,0-30.9s-22.4-8.5-30.9,0L63.6,60.4l-5.9-5.9L77.2,35
			c11.8-11.8,30.9-11.8,42.7,0s11.8,30.9,0,42.7L114,71.8z"/>
		<path class="st71" d="M116.4,94.7L60.2,38.5c-1.3-1.3-3.3-1.3-4.6,0L19.1,75c-1.3,1.3-1.3,3.3,0,4.6l56.2,56.2
			c1.3,1.3,3.3,1.3,4.6,0l36.5-36.5C117.6,98,117.6,95.9,116.4,94.7z"/>
		<path class="st74" d="M79.9,135.8l22.4-22.4c-34.2-2.9-66.8-23.7-84-36.6c-0.2,1,0.1,2,0.9,2.8l56.2,56.2
			C76.6,137,78.6,137,79.9,135.8z"/>
		<path class="st17" d="M55.5,42.4l-7.9,7.9c3.5-3.1,12.4-8.8,22.5,1.3L61,42.4C59.5,40.9,57,40.9,55.5,42.4z"/>
		<path class="st8" d="M63.1,100.9L54,91.7l13-9.8c-0.3-2.1,0.3-4.4,2-6.1c2.8-2.8,7.3-2.8,10,0c2.8,2.8,2.8,7.3,0,10
			c-1.7,1.7-3.9,2.3-6.1,2L63.1,100.9z"/>
	</g>
</g>
</svg>
