<?xml version="1.0" encoding="utf-8"?>
<!-- Generator: Moho 13.0.2 build 610 -->
<!DOCTYPE svg PUBLIC "-//W3C//DTD SVG 1.1//EN" "http://www.w3.org/Graphics/SVG/1.1/DTD/svg11.dtd">
<svg version="1.1" id="Frame_0" xmlns="http://www.w3.org/2000/svg" xmlns:xlink="http://www.w3.org/1999/xlink" width="1280px" height="200px">
<g id="slash">
<path fill="#ffffff" fill-rule="evenodd" fill-opacity="0.000000" stroke="none" d="M -6.150 159.659 C 423.523 115.961 853.198 72.264 1282.872 28.566 C 1282.730 15.109 1282.334 -9.758 1282.334 -9.762 C 1282.205 -9.762 -6.935 -7.575 -7.064 -7.574 C -7.064 -7.558 -6.150 159.642 -6.150 159.659 Z"/>
<path fill="none" stroke="#000000" stroke-width="0" stroke-linecap="round" stroke-linejoin="round" d="M -6.150 159.659 C 423.523 115.961 853.198 72.264 1282.872 28.566 C 1283.503 88.644 1283.947 210.844 1283.947 210.862 C 1283.818 210.862 -5.107 206.813 -5.236 206.812 C -5.236 206.807 -6.150 159.664 -6.150 159.659 C -6.150 159.642 -7.064 -7.558 -7.064 -7.574 C -6.935 -7.575 1282.205 -9.762 1282.334 -9.762 C 1282.334 -9.758 1282.730 15.109 1282.872 28.566 "/>
<path fill="none" stroke="#ffffff" stroke-width="1" stroke-linecap="butt" stroke-linejoin="round" d="M -6.150 159.659 C 423.523 115.961 853.198 72.264 1282.872 28.566 "/>
<path fill="#ffffff" fill-rule="evenodd" stroke="none" d="M -6.150 159.659 C 423.523 115.961 853.198 72.264 1282.872 28.566 C 1283.503 88.644 1283.947 210.844 1283.947 210.862 C 1283.818 210.862 -5.107 206.813 -5.236 206.812 C -5.236 206.807 -6.150 159.664 -6.150 159.659 Z"/>
<path fill="none" stroke="#000000" stroke-width="0" stroke-linecap="round" stroke-linejoin="round" d="M -6.150 159.659 C 423.523 115.961 853.198 72.264 1282.872 28.566 C 1283.503 88.644 1283.947 210.844 1283.947 210.862 C 1283.818 210.862 -5.107 206.813 -5.236 206.812 C -5.236 206.807 -6.150 159.664 -6.150 159.659 C -6.150 159.642 -7.064 -7.558 -7.064 -7.574 C -6.935 -7.575 1282.205 -9.762 1282.334 -9.762 C 1282.334 -9.758 1282.730 15.109 1282.872 28.566 "/>
</g>
<g id="Layer_2">
<path fill="none" stroke="#2dffb3" stroke-width="14" stroke-linejoin="round" d="M -27.484 173.938 C 143.911 156.182 315.305 138.426 486.699 120.670 "/>
<path fill="none" stroke="#5600e3" stroke-width="9" stroke-linejoin="round" d="M -28.186 165.058 C 176.691 144.369 381.568 123.680 586.445 102.992 "/>
<path fill="none" stroke="#5600e3" stroke-width="9" stroke-linejoin="round" d="M -207.010 -126.693 C 12.354 -150.593 231.719 -174.493 451.084 -198.393 "/>
</g>
</svg>
