<svg id="ecR0BDLO3WQ1" xmlns="http://www.w3.org/2000/svg" xmlns:xlink="http://www.w3.org/1999/xlink" viewBox="0 0 253 252" shape-rendering="geometricPrecision" text-rendering="geometricPrecision"><style><![CDATA[#ecR0BDLO3WQ4_ts {animation: ecR0BDLO3WQ4_ts__ts 10000ms linear infinite normal forwards}@keyframes ecR0BDLO3WQ4_ts__ts { 0% {transform: translate(142.691000px,231.431000px) scale(1,1)} 25% {transform: translate(142.691000px,231.431000px) scale(0.971810,0.979891)} 50% {transform: translate(142.691000px,231.431000px) scale(1,1)} 75% {transform: translate(142.691000px,231.431000px) scale(0.971810,0.979891)} 100% {transform: translate(142.691000px,231.431000px) scale(1,1)}} #ecR0BDLO3WQ16_tr {animation: ecR0BDLO3WQ16_tr__tr 10000ms linear infinite normal forwards}@keyframes ecR0BDLO3WQ16_tr__tr { 0% {transform: translate(152.640884px,80.070824px) rotate(0deg)} 25% {transform: translate(152.640884px,80.070824px) rotate(4deg)} 50% {transform: translate(152.640884px,80.070824px) rotate(-4deg)} 75% {transform: translate(152.640884px,80.070824px) rotate(4deg)} 100% {transform: translate(152.640884px,80.070824px) rotate(0deg)}} #ecR0BDLO3WQ24_tr {animation: ecR0BDLO3WQ24_tr__tr 10000ms linear infinite normal forwards}@keyframes ecR0BDLO3WQ24_tr__tr { 0% {transform: translate(139.302000px,74.791000px) rotate(0deg)} 25% {transform: translate(139.302000px,74.791000px) rotate(7deg)} 50% {transform: translate(139.302000px,74.791000px) rotate(0deg)} 75% {transform: translate(139.302000px,74.791000px) rotate(7deg)} 100% {transform: translate(139.302000px,74.791000px) rotate(0deg)}} #ecR0BDLO3WQ35_tr {animation: ecR0BDLO3WQ35_tr__tr 10000ms linear infinite normal forwards}@keyframes ecR0BDLO3WQ35_tr__tr { 0% {transform: translate(78.424800px,153.459000px) rotate(0deg)} 25% {transform: translate(78.424800px,153.459000px) rotate(-3.500000deg)} 50% {transform: translate(78.424800px,153.459000px) rotate(0deg)} 75% {transform: translate(78.424800px,153.459000px) rotate(-3.500000deg)} 100% {transform: translate(78.424800px,153.459000px) rotate(0deg)}} #ecR0BDLO3WQ36_tr {animation: ecR0BDLO3WQ36_tr__tr 10000ms linear infinite normal forwards}@keyframes ecR0BDLO3WQ36_tr__tr { 0% {transform: translate(89.342178px,101.999367px) rotate(0deg)} 25% {transform: translate(89.342178px,101.999367px) rotate(2deg)} 50% {transform: translate(89.342178px,101.999367px) rotate(0deg)} 75% {transform: translate(89.342178px,101.999367px) rotate(2deg)} 100% {transform: translate(89.342178px,101.999367px) rotate(0deg)}} #ecR0BDLO3WQ41_tr {animation: ecR0BDLO3WQ41_tr__tr 10000ms linear infinite normal forwards}@keyframes ecR0BDLO3WQ41_tr__tr { 0% {transform: translate(78.424800px,106.268000px) rotate(0deg)} 25% {transform: translate(78.424800px,106.268000px) rotate(4.370000deg)} 50% {transform: translate(78.424800px,106.268000px) rotate(-4.370000deg)} 75% {transform: translate(78.424800px,106.268000px) rotate(4.370000deg)} 100% {transform: translate(78.424800px,106.268000px) rotate(0deg)}} #ecR0BDLO3WQ47_tr {animation: ecR0BDLO3WQ47_tr__tr 10000ms linear infinite normal forwards}@keyframes ecR0BDLO3WQ47_tr__tr { 0% {transform: translate(64.319915px,103.347551px) rotate(0deg)} 25% {transform: translate(64.319915px,103.347551px) rotate(1deg)} 50% {transform: translate(64.319915px,103.347551px) rotate(0deg)} 75% {transform: translate(64.319915px,103.347551px) rotate(1deg)} 100% {transform: translate(64.319915px,103.347551px) rotate(0deg)}} #ecR0BDLO3WQ57 {animation: ecR0BDLO3WQ57_c_o 10000ms linear infinite normal forwards}@keyframes ecR0BDLO3WQ57_c_o { 0% {opacity: 1} 25% {opacity: 0.300000} 50% {opacity: 1} 75% {opacity: 0.300000} 100% {opacity: 1}} #ecR0BDLO3WQ65_tk {animation: ecR0BDLO3WQ65_tk__tk 10000ms linear infinite normal forwards}@keyframes ecR0BDLO3WQ65_tk__tk { 0% {transform: translate(207.066000px,233.171500px) skewX(0deg) skewY(0deg)} 25% {transform: translate(207.066000px,233.171500px) skewX(-7deg) skewY(0deg)} 50% {transform: translate(207.066000px,233.171500px) skewX(7deg) skewY(0deg)} 75% {transform: translate(207.066000px,233.171500px) skewX(-7deg) skewY(0deg)} 100% {transform: translate(207.066000px,233.171500px) skewX(0deg) skewY(0deg)}}]]></style><defs><linearGradient id="ecR0BDLO3WQ3-fill" x1="110.438000" y1="27.470700" x2="143.086000" y2="162.894000" spreadMethod="pad" gradientUnits="userSpaceOnUse"><stop id="ecR0BDLO3WQ3-fill-0" offset="0%" stop-color="rgb(206,191,245)"/><stop id="ecR0BDLO3WQ3-fill-1" offset="100%" stop-color="rgba(38,128,193,0)"/></linearGradient><linearGradient id="ecR0BDLO3WQ64-fill" x1="126.528000" y1="263.421000" x2="123.829000" y2="209.870000" spreadMethod="pad" gradientUnits="userSpaceOnUse"><stop id="ecR0BDLO3WQ64-fill-0" offset="0%" stop-color="rgb(38,128,193)"/><stop id="ecR0BDLO3WQ64-fill-1" offset="100%" stop-color="rgba(38,128,193,0)"/></linearGradient></defs><rect id="ecR0BDLO3WQ2" width="252" height="252" rx="0" ry="0" transform="matrix(1 0 0 1 0.23388700000000 0)" fill="rgb(247,244,255)" stroke="none" stroke-width="1"/><path id="ecR0BDLO3WQ3" d="M26.769800,90.092100C28.530600,78.592100,33.910400,67.633500,44.471400,58.628800C58.376600,46.778700,79.579000,41.715200,96.824200,47.204900C114.644000,52.878100,128.240000,69.808400,149.556000,66.477600C162.891000,64.393000,173.838000,54.121800,187.215000,52.440500C195.377000,51.415500,203.515000,53.825100,209.953000,57.918900C243.080000,78.998900,223.783000,117.921000,198.274000,140.162000C183.441000,153.092000,165.107000,162.557000,145.928000,169.249000C131.628000,174.235000,116.588000,177.774000,101.547000,177.899000C71.821000,178.150000,51.420700,163.885000,38.595900,141.714000C29.902900,126.685000,24.062200,107.755000,26.769800,90.092100Z" opacity="0.14" fill="url(#ecR0BDLO3WQ3-fill)" stroke="none" stroke-width="1"/><g id="ecR0BDLO3WQ4_ts" transform="translate(142.691000,231.431000) scale(1,1)"><g id="ecR0BDLO3WQ4" transform="translate(-142.691000,-231.431000)"><g id="ecR0BDLO3WQ5"><path id="ecR0BDLO3WQ6" d="M166.262000,230.352000C165.086000,229.510000,164.134000,228.954000,160.373000,227.184000C160.127000,227.069000,159.233000,226.516000,158.913000,226.326000C158.096000,225.841000,157.275000,225.079000,156.569000,224.315000C155.895000,223.585000,155.573000,221.246000,155.421000,219.382000C155.808000,215.219000,162.029000,148.447000,163.341000,141.219000C164.695000,133.757000,162.633000,122.375000,162.633000,122.375000L157.830000,120.619000L148.714000,151.264000L149.434000,174.590000C149.434000,174.590000,147.290000,181.314000,147.019000,185.331000C146.748000,189.349000,150.118000,221.962000,150.118000,221.962000C150.118000,223.129000,150.070000,224.184000,149.937000,224.842000C149.690000,226.063000,148.312000,228.574000,148.945000,229.722000C149.577000,230.870000,150.299000,231.157000,150.299000,231.157000L166.680000,231.414000C167.572000,231.425000,166.982000,230.866000,166.262000,230.352000Z" fill="rgb(255,197,197)" stroke="none" stroke-width="1"/><path id="ecR0BDLO3WQ7" d="M141.400000,119.984000C141.400000,119.984000,135.712000,128.305000,134.358000,135.193000C133.003000,142.081000,135.352000,163.248000,132.746000,172.272000C131.335000,177.159000,125.990000,184.703000,125.178000,191.016000C124.366000,197.330000,121.538000,215.553000,121.538000,215.553000C121.110000,217.467000,120.439000,219.832000,119.570000,220.932000C119.037000,221.605000,118.065000,222.457000,117.426000,223.675000C116.431000,225.568000,116.982000,228.389000,117.714000,229.942000C118.091000,230.739000,117.686000,230.737000,118.544000,230.994000C121.082000,231.755000,123.781000,230.473000,124.861000,228.111000C125.464000,226.791000,125.993000,225.031000,126.101000,222.814000C126.213000,220.464000,126.592000,218.597000,126.996000,217.215000L145.180000,173.960000L158.345000,136.629000L161.717000,117.402000L141.400000,119.984000Z" fill="rgb(255,197,197)" stroke="none" stroke-width="1"/><path id="ecR0BDLO3WQ8" d="M125.353000,226.868000C121.418000,227.567000,118.798000,225.329000,117.435000,223.653000C116.436000,225.550000,115.946000,228.382000,116.683000,229.942000C117.331000,231.315000,119.225000,231.275000,120.715000,231.330000C122.291000,231.386000,123.513000,230.536000,124.294000,229.201000C124.661000,228.577000,125.038000,227.801000,125.353000,226.868000Z" fill="rgb(20,33,72)" stroke="none" stroke-width="1"/><path id="ecR0BDLO3WQ9" d="M145.088000,173.143000C145.427000,173.166000,145.770000,173.186000,146.115000,173.207000C146.132000,173.209000,146.151000,173.209000,146.168000,173.210000C146.505000,173.230000,146.845000,173.248000,147.184000,173.265000C147.205000,173.267000,147.225000,173.267000,147.246000,173.268000C147.587000,173.285000,147.928000,173.301000,148.271000,173.315000C148.288000,173.315000,148.305000,173.316000,148.324000,173.316000C148.672000,173.331000,149.021000,173.344000,149.369000,173.354000C153.253000,173.478000,158.049000,173.430000,161.126000,172.923000C162.696000,157.692000,163.281000,143.791000,163.861000,140.714000C165.270000,133.253000,162.633000,121.476000,162.633000,121.476000L161.374000,121.257000L162.169000,116.896000L141.040000,119.479000C141.040000,119.479000,135.125000,127.801000,133.716000,134.688000C132.307000,141.576000,134.750000,162.743000,132.041000,171.768000C132.043000,171.768000,138.074000,172.679000,145.088000,173.143000Z" fill="rgb(47,0,156)" stroke="none" stroke-width="1"/><path id="ecR0BDLO3WQ10" d="M158.909000,226.326000C154.577000,227.406000,151.373000,226.672000,149.583000,225.970000C149.120000,227.242000,148.508000,228.840000,148.832000,229.760000C149.229000,230.886000,149.796000,231.143000,150.296000,231.154000C154.253000,231.255000,164.792000,231.392000,167.809000,231.431000C168.231000,231.435000,168.463000,230.957000,168.193000,230.643000C167.446000,229.775000,159.233000,226.518000,158.909000,226.326000Z" fill="rgb(20,33,72)" stroke="none" stroke-width="1"/></g><g id="ecR0BDLO3WQ11"><g id="ecR0BDLO3WQ12"><path id="ecR0BDLO3WQ13" d="M182.222000,139.421000C181.460000,138.804000,180.541000,139.083000,177.895000,137.897000C177.383000,137.667000,176.036000,137.304000,175.434000,137.184000C175.321000,137.163000,175.231000,137.079000,175.202000,136.971000C174.398000,134.022000,170.878000,120.387000,170.491000,116.456000C170.095000,112.434000,167.422000,95.389200,167.013000,92.797300C166.985000,92.620300,166.805000,92.507800,166.627000,92.555800L158.945000,94.633300C158.788000,94.676300,158.692000,94.830100,158.728000,94.985600C159.202000,97.016800,162.155000,109.775000,163.023000,116.231000C163.714000,121.378000,171.621000,137.891000,171.780000,138.946000C171.782000,138.956000,171.784000,138.966000,171.785000,138.976000C171.833000,139.293000,172.114000,139.528000,172.445000,139.528000C174.397000,139.528000,180.650000,139.527000,181.006000,139.528000C181.330000,139.532000,182.459000,139.613000,182.222000,139.421000Z" fill="rgb(255,197,197)" stroke="none" stroke-width="1"/><path id="ecR0BDLO3WQ14" d="M165.126000,86.305000C161.038000,74.279900,156.467000,74.791000,156.467000,74.791000L160.003000,100.074000C162.527000,99.403700,165.814000,97.915000,168.337000,97.223600C167.499000,93.422600,166.133000,89.265800,165.126000,86.305000Z" fill="rgb(48,243,173)" stroke="none" stroke-width="1"/></g><path id="ecR0BDLO3WQ15" d="M146.005000,72.632500C146.005000,72.632500,139.369000,71.790600,136.389000,74.948200C133.409000,78.104200,142.105000,103.451000,142.645000,107.469000C143.188000,111.487000,139.884000,122.169000,139.884000,122.169000C139.884000,122.169000,157.577000,125.629000,162.634000,122.377000C162.634000,122.377000,163.177000,93.487000,162.634000,90.617200C162.092000,87.747400,157.577000,76.076300,156.494000,74.928300C155.409000,73.780400,146.005000,72.632500,146.005000,72.632500Z" fill="rgb(45,255,179)" stroke="none" stroke-width="1"/><g id="ecR0BDLO3WQ16_tr" transform="translate(152.640884,80.070824) rotate(0)"><g id="ecR0BDLO3WQ16" transform="translate(-152.640884,-80.070824)"><path id="ecR0BDLO3WQ17" d="M163.857000,55.034700C162.607000,47.126600,155.228000,41.438300,147.510000,45.275700C145.775000,46.139100,143.425000,47.890800,142.226000,49.382800C138.985000,53.415400,138.156000,58.397500,134.810000,62.314300C136.039000,63.219100,137.527000,64.166900,139.297000,65.078300L141.382000,62.383800L140.663000,65.746500C145.844000,68.149900,153.161000,70.134800,163.168000,70.078500C164.425000,64.583700,164.524000,59.252600,163.857000,55.034700Z" fill="rgb(22,40,95)" stroke="none" stroke-width="1"/><path id="ecR0BDLO3WQ18" d="M148.513000,62.850300C148.513000,62.850300,148.474000,63.065300,148.404000,63.432500C148.068000,65.192400,146.775000,71.031300,145.902000,72.635800C144.846000,74.576000,149.516000,80.762300,154.010000,80.008000C155.348000,79.783100,152.880000,74.323000,152.997000,73.745700C153.224000,72.639100,153.533000,71.128900,153.848000,69.579100C154.026000,68.705700,154.207000,67.819100,154.375000,66.987100C154.856000,64.621800,155.249000,62.686500,155.249000,62.686500L148.513000,62.850300Z" fill="rgb(255,197,197)" stroke="none" stroke-width="1"/><path id="ecR0BDLO3WQ19" d="M148.404000,63.432500C148.474000,63.065300,148.513000,62.850300,148.513000,62.850300L155.249000,62.686500C155.249000,62.686500,154.856000,64.621800,154.375000,66.987100C154.207000,67.814200,154.028000,68.695800,153.852000,69.564200C152.811000,69.415300,151.725000,68.924100,150.637000,67.997800C149.449000,66.987100,148.670000,65.773000,148.201000,64.476200C148.283000,64.062700,148.351000,63.705400,148.404000,63.432500Z" opacity="0.5" fill="rgb(244,116,88)" stroke="none" stroke-width="1"/><path id="ecR0BDLO3WQ20" d="M153.045000,47.970100C153.045000,47.970100,149.871000,47.612900,147.881000,50.115500C145.890000,52.616500,143.746000,60.354300,148.689000,64.559000C153.632000,68.765300,158.517000,64.004900,159.242000,58.956600C159.967000,53.908300,160.248000,47.786500,153.045000,47.970100Z" fill="rgb(255,197,197)" stroke="none" stroke-width="1"/><path id="ecR0BDLO3WQ21" d="M160.704000,58.880400C160.113000,59.995300,159.122000,60.612200,158.491000,60.259900C157.860000,59.905900,157.826000,58.716600,158.416000,57.601800C159.006000,56.486900,159.997000,55.869900,160.628000,56.222300C161.261000,56.576200,161.294000,57.765500,160.704000,58.880400Z" fill="rgb(255,197,197)" stroke="none" stroke-width="1"/><path id="ecR0BDLO3WQ22" d="M153.401000,47.143200C153.401000,47.143200,149.159000,54.500400,146.125000,54.839500C143.091000,55.180200,142.691000,59.088700,142.691000,59.088700C142.691000,59.088700,143.776000,50.080800,146.780000,48.344000C149.785000,46.605600,153.401000,47.143200,153.401000,47.143200Z" fill="rgb(22,40,95)" stroke="none" stroke-width="1"/><path id="ecR0BDLO3WQ23" d="M146.922000,56.687100C147.169000,57.993800,146.673000,59.191400,145.813000,59.363400C144.953000,59.535400,144.058000,58.614100,143.810000,57.309000C143.563000,56.002300,144.059000,54.804700,144.919000,54.632700C145.777000,54.460700,146.674000,55.382000,146.922000,56.687100Z" fill="rgb(255,197,197)" stroke="none" stroke-width="1"/></g></g><g id="ecR0BDLO3WQ24_tr" transform="translate(139.302000,74.791000) rotate(0)"><g id="ecR0BDLO3WQ24" transform="translate(-139.302000,-74.791000)"><path id="ecR0BDLO3WQ25" d="M102.780000,98.006000C102.501000,97.360900,105.772000,96.628200,105.905000,95.951600C106.038000,95.273500,101.685000,95.486800,101.493000,94.909600C101.136000,93.847600,106.245000,94.393500,106.113000,93.895600C105.982000,93.397700,100.742000,92.583900,101.244000,91.684100C101.747000,90.784300,106.586000,93.078500,106.690000,92.481400C106.794000,91.885900,101.991000,90.741300,101.992000,89.447800C101.992000,88.756400,109.944000,92.411900,110.811000,91.983500C111.677000,91.555100,109.618000,88.432200,110.297000,87.909500C110.976000,87.386800,113.468000,94.319100,113.973000,94.524200C114.476000,94.729300,125.230000,99.845400,128.983000,100.535000C129.355000,99.307800,132.167000,92.751000,132.490000,91.593100C134.654000,92.898200,137.080000,93.063600,139.302000,94.238000C137.996000,98.098600,133.269000,107.694000,132.220000,108.233000C129.026000,109.872000,115.651000,100.418000,113.001000,98.821500C110.347000,97.223600,108.931000,97.880300,107.178000,97.430400C105.421000,96.980500,103.060000,98.649400,102.780000,98.006000Z" fill="rgb(255,197,197)" stroke="none" stroke-width="1"/><path id="ecR0BDLO3WQ26" d="M138.303000,100.972000C138.303000,100.972000,145.153000,87.610100,145.360000,82.953900C145.566000,78.299300,140.780000,73.092200,136.630000,73.992000C132.478000,74.891900,129.162000,96.368500,129.162000,96.368500L138.303000,100.972000Z" fill="rgb(48,243,173)" stroke="none" stroke-width="1"/></g></g></g></g></g><g id="ecR0BDLO3WQ27"><g id="ecR0BDLO3WQ28"><path id="ecR0BDLO3WQ29" d="M101.348000,220.181000C101.348000,220.181000,100.967000,226.275000,100.965000,226.286000C100.826000,227.060000,100.276000,228.971000,100.276000,229.674000C100.276000,232.315000,113.214000,227.431000,110.314000,226.260000C110.052000,226.154000,108.677000,225.352000,108.592000,224.454000C108.459000,223.067000,108.121000,220.265000,108.121000,220.265000L101.348000,220.181000Z" fill="rgb(255,197,197)" stroke="none" stroke-width="1"/><path id="ecR0BDLO3WQ30" d="M109.770000,225.741000C109.770000,225.741000,106.732000,226.549000,105.177000,226.751000C103.621000,226.953000,101.571000,225.253000,100.471000,225.711000C99.259900,226.217000,99.307600,230.769000,99.307600,230.769000C99.307600,230.769000,115.595000,232.064000,120.175000,230.724000C121.990000,230.193000,115.981000,227.623000,109.770000,225.741000Z" fill="rgb(20,33,72)" stroke="none" stroke-width="1"/><path id="ecR0BDLO3WQ31" d="M123.309000,220.181000C123.309000,220.181000,122.929000,226.275000,122.927000,226.286000C122.788000,227.060000,122.238000,228.971000,122.238000,229.674000C122.238000,232.315000,135.176000,227.431000,132.276000,226.260000C132.014000,226.154000,130.055000,225.818000,129.968000,224.918000C129.835000,223.532000,129.586000,219.248000,129.586000,219.248000L123.309000,220.181000Z" fill="rgb(255,197,197)" stroke="none" stroke-width="1"/><path id="ecR0BDLO3WQ32" d="M131.732000,225.741000C131.732000,225.741000,128.695000,226.549000,127.139000,226.751000C125.583000,226.953000,123.533000,225.253000,122.433000,225.711000C121.222000,226.217000,121.270000,230.769000,121.270000,230.769000C121.270000,230.769000,137.557000,232.064000,142.137000,230.724000C143.950000,230.193000,137.941000,227.623000,131.732000,225.741000Z" fill="rgb(20,33,72)" stroke="none" stroke-width="1"/><path id="ecR0BDLO3WQ33" d="M81.635000,154.819000L112.559000,154.948000C112.559000,154.948000,126.527000,154.592000,128.736000,159.276000C130.945000,163.961000,130.419000,223.453000,130.419000,223.453000C130.419000,223.453000,122.964000,224.528000,122.582000,224.131000L114.186000,188.514000C113.289000,185.495000,112.982000,182.339000,113.286000,179.211000L114.087000,170.928000L101.327000,171.560000C101.327000,171.560000,86.861200,171.336000,82.092100,166.683000C77.323000,162.030000,81.635000,154.819000,81.635000,154.819000Z" fill="rgb(48,14,126)" stroke="none" stroke-width="1"/><path id="ecR0BDLO3WQ34" d="M60.672200,151.512000L93.922700,153.490000C93.922700,153.490000,108.232000,154.618000,110.441000,159.303000C112.649000,163.987000,109.032000,223.990000,109.032000,223.990000C109.032000,223.990000,100.732000,224.487000,100.747000,224.134000C100.768000,223.714000,97.340900,196.650000,95.439100,188.079000C94.835300,185.358000,94.625500,182.571000,94.811400,179.795000L96.012200,170.190000C96.012200,170.190000,65.127500,170.020000,63.594100,168.524000C58.826700,163.868000,60.672200,151.512000,60.672200,151.512000Z" fill="rgb(47,0,156)" stroke="none" stroke-width="1"/></g><g id="ecR0BDLO3WQ35_tr" transform="translate(78.424800,153.459000) rotate(0)"><g id="ecR0BDLO3WQ35" transform="translate(-78.424800,-153.459000)"><g id="ecR0BDLO3WQ36_tr" transform="translate(89.342178,101.999367) rotate(0)"><g id="ecR0BDLO3WQ36" transform="translate(-89.342178,-101.999367)"><path id="ecR0BDLO3WQ37" d="M139.921000,136.376000C140.193000,135.979000,139.527000,135.294000,139.029000,134.779000C138.477000,134.210000,135.111000,132.765000,134.538000,132.589000C133.965000,132.414000,129.036000,133.043000,127.144000,133.625000C125.254000,134.207000,124.014000,133.949000,124.014000,133.949000C123.521000,133.847000,122.779000,133.709000,122.203000,133.589000L121.507000,137.844000C125.931000,137.830000,130.028000,138.187000,130.448000,138.182000C131.778000,138.162000,134.226000,136.834000,134.792000,136.640000C135.359000,136.447000,136.501000,136.614000,137.267000,136.971000C138.033000,137.328000,140.266000,138.179000,140.643000,137.988000C141.022000,137.798000,139.921000,136.376000,139.921000,136.376000Z" fill="rgb(233,180,180)" stroke="none" stroke-width="1"/><path id="ecR0BDLO3WQ38" d="M128.232000,133.350000L103.353000,127.296000C103.353000,127.296000,97.886700,117.162000,89.868300,106.268000C87.246700,108.786000,85.788300,112.651000,83.147900,115.144000L97.066300,133.509000C97.772400,134.267000,128.703000,137.565000,128.703000,137.565000L128.232000,133.350000Z" fill="rgb(233,180,180)" stroke="none" stroke-width="1"/><path id="ecR0BDLO3WQ39" d="M91.695000,125.300000C91.695000,125.300000,84.539700,116.029000,81.926600,111.642000C79.313500,107.256000,83.705600,110.111000,88.193300,108.958000C89.892100,108.521000,88.483200,99.524500,91.696700,102.662000C96.965600,107.811000,102.250000,118.967000,102.250000,118.967000L91.695000,125.300000Z" fill="rgb(48,243,173)" stroke="none" stroke-width="1"/></g></g><path id="ecR0BDLO3WQ40" d="M90.922300,102.047000C86.294800,100.687000,77.623200,99.974400,77.623200,99.974400C77.623200,99.974400,72.187200,99.117600,70.421800,99.488100C67.822400,100.034000,62.942400,100.284000,62.487000,111.225000C62.161200,119.056000,61.243600,138.428000,60.320800,151.510000L93.416000,153.459000C91.920100,133.332000,95.304200,103.335000,90.922300,102.047000Z" fill="rgb(45,255,179)" stroke="none" stroke-width="1"/><g id="ecR0BDLO3WQ41_tr" transform="translate(78.424800,106.268000) rotate(0)"><g id="ecR0BDLO3WQ41" transform="translate(-78.424800,-106.268000)"><path id="ecR0BDLO3WQ42" d="M82.148400,90.623900L76.951200,99.893300C76.951200,99.893300,80.867400,106.662000,84.570400,106.842000C87.678200,106.994000,87.190300,102.538000,87.190300,102.538000C87.190300,102.538000,87.679900,96.777000,89.170600,94.196700C90.661400,91.616300,82.148400,90.623900,82.148400,90.623900Z" fill="rgb(255,197,197)" stroke="none" stroke-width="1"/><path id="ecR0BDLO3WQ43" d="M82.622600,94.337300C83.789300,95.543100,85.738900,97.134300,87.852200,98.146600C88.159200,96.701000,88.587300,95.207300,89.170700,94.198300C89.859800,93.007400,88.416800,92.155600,86.663300,91.581600C84.314600,90.976200,82.150200,90.623900,82.150200,90.623900L81.150600,92.405300C81.403100,93.030600,82.233700,93.935300,82.622600,94.337300Z" fill="rgb(249,156,142)" stroke="none" stroke-width="1"/><path id="ecR0BDLO3WQ44" d="M84.817700,75.009300C84.602800,74.860500,79.475500,86.448900,81.699700,90.618900C83.923900,94.788800,89.798300,97.541200,92.764400,95.529800C96.046100,93.306800,99.634900,80.333800,95.677700,75.593200C91.722300,70.854300,84.817700,75.009300,84.817700,75.009300Z" fill="rgb(255,197,197)" stroke="none" stroke-width="1"/><path id="ecR0BDLO3WQ45" d="M95.648900,68.646100C91.618300,68.371500,88.498700,69.966000,87.313200,70.683900C85.524000,70.414300,82.904000,70.708700,79.352800,73.955600C74.986300,77.948600,75.668600,83.861900,78.399400,87.409900C81.130100,90.957900,80.217600,93.958400,80.217600,93.958400L81.215400,92.547400C81.960800,91.475600,82.484500,90.268100,82.704500,88.992800C82.835800,88.227000,82.902300,87.380100,82.774400,86.634100C82.436700,84.665800,85.404600,84.219200,86.559300,82.968700C87.448000,82.006000,88.208700,79.460400,89.634600,77.856000L91.108300,76.736100C91.108300,76.736100,94.112000,75.538600,96.377200,76.716300C98.642300,77.895700,100.820000,69,95.648900,68.646100Z" fill="rgb(22,40,95)" stroke="none" stroke-width="1"/><path id="ecR0BDLO3WQ46" d="M85.781400,85.067700C85.385700,86.543200,84.352000,87.560500,83.473600,87.338800C82.595200,87.117200,82.204600,85.741000,82.600300,84.265500C82.996000,82.790100,84.029700,81.772800,84.908100,81.994400C85.786500,82.216100,86.178800,83.592300,85.781400,85.067700Z" fill="rgb(247,164,145)" stroke="none" stroke-width="1"/></g></g><g id="ecR0BDLO3WQ47_tr" transform="translate(64.319915,103.347551) rotate(0)"><g id="ecR0BDLO3WQ47" transform="translate(-64.319915,-103.347551)"><path id="ecR0BDLO3WQ48" d="M115.499000,133.817000L89.936200,127.260000C89.936200,127.260000,82.110600,118.682000,74.755700,108.810000C72.127200,110.918000,71.010000,116.480000,68.366200,118.563000L85.245600,134.855000C85.830700,135.610000,114.203000,137.558000,114.203000,137.558000L115.499000,133.817000Z" fill="rgb(255,197,197)" stroke="none" stroke-width="1"/><path id="ecR0BDLO3WQ49" d="M74.205000,126.924000C74.205000,126.924000,65.514500,116.214000,63.392700,112.009000C61.270800,107.805000,63.539300,101.147000,67.750700,100.360000C71.963700,99.572400,84.161000,118.784000,84.161000,118.784000L74.205000,126.924000Z" fill="rgb(48,243,173)" stroke="none" stroke-width="1"/><path id="ecR0BDLO3WQ50" d="M131.347000,137.188000C131.620000,136.835000,131.045000,136.169000,130.615000,135.668000C130.138000,135.114000,127.115000,133.600000,126.597000,133.407000C126.078000,133.215000,121.493000,133.532000,119.718000,133.967000C117.940000,134.404000,116.811000,134.100000,116.811000,134.100000C116.363000,133.979000,115.686000,133.812000,115.162000,133.670000L113.794000,137.527000C117.877000,137.750000,122.123000,138.329000,122.510000,138.346000C123.738000,138.397000,126.071000,137.304000,126.605000,137.155000C127.139000,137.007000,128.185000,137.221000,128.870000,137.591000C129.556000,137.962000,131.567000,138.865000,131.925000,138.709000C132.282000,138.559000,131.347000,137.188000,131.347000,137.188000Z" fill="rgb(255,197,197)" stroke="none" stroke-width="1"/></g></g></g></g></g><path id="ecR0BDLO3WQ51" d="M75.845900,179.124000L72.588100,179.124000L72.588100,225.332000L75.845900,225.332000L75.845900,179.124000Z" fill="rgb(19,55,91)" stroke="none" stroke-width="1"/><path id="ecR0BDLO3WQ52" d="M57.750400,227.393000L90.125800,227.393000C91.616600,227.393000,92.825900,228.566000,92.825900,230.011000C92.825900,230.264000,92.614400,230.469000,92.353500,230.469000L55.522800,230.469000C55.261800,230.469000,55.050300,230.264000,55.050300,230.011000C55.050300,228.566000,56.259600,227.393000,57.750400,227.393000Z" fill="rgb(19,55,91)" stroke="none" stroke-width="1"/><path id="ecR0BDLO3WQ53" d="M72.333800,225.332000L76.299500,225.332000C77.473000,225.332000,78.424800,226.255000,78.424800,227.393000C78.424800,228.531000,77.473000,229.454000,76.299500,229.454000L72.333800,229.454000C71.160300,229.454000,70.208500,228.531000,70.208500,227.393000C70.210200,226.255000,71.160300,225.332000,72.333800,225.332000Z" fill="rgb(19,55,91)" stroke="none" stroke-width="1"/><path id="ecR0BDLO3WQ54" d="M95.193700,173.804000L92.966100,164.811000C91.408800,158.522000,85.665800,153.945000,79,153.684000L50.784700,152.577000L49.913100,149.792000L79.112600,150.936000C87.038900,151.247000,93.868400,156.689000,95.720800,164.167000L98.088300,173.723000C97.288300,173.759000,96.310900,173.784000,95.193700,173.804000Z" fill="rgb(53,83,137)" stroke="none" stroke-width="1"/><path id="ecR0BDLO3WQ55" d="M57.347800,169.016000C57.347800,169.016000,96.112700,169.659000,100.153000,169.016000C104.194000,168.372000,105.944000,173.286000,104.738000,175.860000C103.532000,178.434000,100.215000,179.428000,95.328100,179.663000C90.443000,179.896000,49.788200,181.008000,48.642000,179.956000C47.705600,179.096000,35.382000,138.237000,30.897800,123.294000C30.002300,120.306000,31.769400,117.187000,34.846400,116.310000C37.909800,115.438000,41.125100,117.124000,42.051200,120.086000L57.347800,169.016000Z" fill="rgb(168,173,175)" stroke="none" stroke-width="1"/><path id="ecR0BDLO3WQ56" d="M179.783000,112.555000L147.443000,112.555000C146.587000,112.555000,145.816000,113.056000,145.492000,113.824000L135.534000,137.375000L117.707000,137.375000C117.208000,137.375000,116.804000,137.767000,116.804000,138.250000C116.804000,138.733000,117.208000,139.125000,117.707000,139.125000L168.449000,139.125000C169.844000,139.125000,171.110000,138.331000,171.681000,137.097000L181.707000,115.438000C182.333000,114.085000,181.311000,112.555000,179.783000,112.555000Z" fill="rgb(60,31,127)" stroke="none" stroke-width="1"/><path id="ecR0BDLO3WQ57" d="M162.372000,126.269000C162.153000,127.328000,161.202000,128.034000,160.246000,127.849000C159.291000,127.664000,158.694000,126.656000,158.912000,125.598000C159.131000,124.539000,160.083000,123.833000,161.038000,124.018000C161.993000,124.203000,162.590000,125.212000,162.372000,126.269000Z" fill="rgb(255,255,255)" stroke="none" stroke-width="1"/><g id="ecR0BDLO3WQ58"><path id="ecR0BDLO3WQ59" d="M108.861000,143.938000L216.987000,143.938000C217.426000,143.938000,217.781000,143.594000,217.781000,143.169000L217.781000,139.894000C217.781000,139.469000,217.426000,139.125000,216.987000,139.125000L108.861000,139.125000C108.423000,139.125000,108.068000,139.469000,108.068000,139.894000L108.068000,143.169000C108.068000,143.594000,108.423000,143.938000,108.861000,143.938000Z" fill="rgb(140,176,255)" stroke="none" stroke-width="1"/><path id="ecR0BDLO3WQ60" d="M207.460000,230.886000L211.318000,230.886000L203.004000,144.383000L199.145000,144.383000L207.460000,230.886000Z" fill="rgb(60,71,76)" stroke="none" stroke-width="1"/><path id="ecR0BDLO3WQ61" d="M174.671000,230.886000L170.812000,230.886000L179.126000,144.383000L182.984000,144.383000L174.671000,230.886000Z" fill="rgb(60,71,76)" stroke="none" stroke-width="1"/><path id="ecR0BDLO3WQ62" d="M154.176000,230.886000L158.036000,230.886000L149.721000,144.383000L145.862000,144.383000L154.176000,230.886000Z" fill="rgb(60,71,76)" stroke="none" stroke-width="1"/><path id="ecR0BDLO3WQ63" d="M121.388000,230.886000L117.529000,230.886000L125.844000,144.383000L129.703000,144.383000L121.388000,230.886000Z" fill="rgb(60,71,76)" stroke="none" stroke-width="1"/></g><path id="ecR0BDLO3WQ64" d="M125,244.343000C180.497000,244.343000,225.480000,239.337000,225.480000,233.171000C225.480000,227.006000,180.497000,222,125,222C69.503100,222,24.520300,227.006000,24.520300,233.171000C24.520300,239.337000,69.503100,244.343000,125,244.343000Z" opacity="0.14" fill="url(#ecR0BDLO3WQ64-fill)" stroke="none" stroke-width="1"/><g id="ecR0BDLO3WQ65_tk" transform="translate(207.066000,233.171500) skewX(0) skewY(0)"><g id="ecR0BDLO3WQ65" transform="translate(-207.066000,-233.171500)"><path id="ecR0BDLO3WQ66" d="M209.106000,233.517000C209.106000,233.517000,189.578000,225.451000,193.526000,219.704000C193.526000,219.704000,193.589000,217.646000,200.934000,220.744000C200.934000,220.744000,203.893000,220.125000,202.334000,217.315000C200.774000,214.505000,194.118000,212.639000,195.237000,208.814000C196.356000,204.987000,200.349000,208.493000,202.681000,208.273000C205.014000,208.054000,197.366000,197.657000,199.173000,195.062000C200.981000,192.468000,204.346000,196.375000,206.078000,196.077000C207.809000,195.780000,204.100000,180.738000,212.350000,179.279000C220.602000,177.821000,215.812000,186.928000,214.388000,191.699000C212.966000,196.468000,218.661000,191.049000,221.703000,194.411000C224.746000,197.774000,210.873000,201.492000,214.236000,204.535000C217.598000,207.578000,219.736000,203.563000,222.077000,205.932000C225.861000,209.763000,211.341000,212.203000,213.502000,215.091000C215.225000,217.394000,218.539000,213.377000,220.165000,214.992000C221.790000,216.606000,218.516000,227.514000,209.106000,233.517000Z" fill="rgb(86,77,159)" stroke="none" stroke-width="1"/><path id="ecR0BDLO3WQ67" d="M193.281000,220.127000C193.310000,220.067000,193.341000,220.007000,193.376000,219.948000C193.941000,220.413000,194.587000,220.905000,195.306000,221.389000C197.947000,223.172000,202.140000,225.226000,207.148000,224.938000C206.871000,222.369000,206.767000,219.574000,206.837000,216.567000C202.381000,211.625000,198.426000,209.688000,195.893000,208.934000C195.673000,208.869000,195.461000,208.812000,195.255000,208.761000C195.275000,208.696000,195.296000,208.635000,195.317000,208.575000C195.517000,208.625000,195.724000,208.681000,195.937000,208.744000C198.472000,209.495000,202.410000,211.412000,206.844000,216.277000C206.844000,216.264000,206.844000,216.252000,206.845000,216.239000C206.930000,213.151000,207.196000,209.839000,207.639000,206.333000C207.523000,206.069000,206.408000,203.558000,204.652000,200.781000C203.390000,198.786000,201.598000,196.351000,199.514000,194.666000C199.564000,194.619000,199.615000,194.575000,199.667000,194.536000C201.764000,196.238000,203.562000,198.680000,204.828000,200.681000C206.298000,203.005000,207.322000,205.146000,207.689000,205.948000C208.036000,203.277000,208.484000,200.495000,209.033000,197.614000C210.566000,189.582000,212.534000,182.661000,213.611000,179.131000C213.685000,179.127000,213.756000,179.125000,213.826000,179.125000C212.755000,182.629000,210.775000,189.578000,209.235000,197.649000C208.976000,199.007000,208.723000,200.432000,208.487000,201.906000C209.080000,201.424000,210.869000,200.016000,213.365000,198.464000C215.468000,197.156000,218.408000,195.546000,221.683000,194.386000C221.691000,194.393000,221.699000,194.401000,221.705000,194.410000C221.746000,194.455000,221.784000,194.500000,221.818000,194.546000C218.536000,195.700000,215.587000,197.316000,213.480000,198.625000C210.622000,200.400000,208.698000,201.986000,208.439000,202.202000C207.921000,205.473000,207.486000,208.980000,207.243000,212.530000C211.108000,209.688000,218.603000,207.316000,222.351000,206.248000C222.393000,206.304000,222.432000,206.361000,222.467000,206.418000C218.705000,207.489000,211.038000,209.907000,207.226000,212.791000C206.894000,217.842000,206.955000,222.967000,207.723000,227.604000C211.551000,226.179000,214.778000,222.375000,216.818000,219.416000C218.081000,217.586000,219.055000,215.848000,219.669000,214.675000C219.732000,214.698000,219.794000,214.725000,219.854000,214.757000C219.239000,215.936000,218.259000,217.682000,216.991000,219.520000C214.926000,222.514000,211.653000,226.369000,207.756000,227.801000C208.096000,229.793000,208.567000,231.693000,209.197000,233.457000C209.167000,233.476000,209.138000,233.496000,209.109000,233.514000C209.109000,233.514000,209.065000,233.496000,208.983000,233.461000C208.123000,231.035000,207.519000,228.250000,207.170000,225.130000C206.843000,225.150000,206.516000,225.159000,206.189000,225.159000C204.282000,225.159000,202.363000,224.837000,200.470000,224.197000C198.672000,223.590000,196.893000,222.697000,195.184000,221.542000C194.476000,221.069000,193.840000,220.585000,193.281000,220.127000Z" fill="rgb(255,255,255)" stroke="none" stroke-width="1"/><path id="ecR0BDLO3WQ68" d="M206.735000,232.334000C206.735000,232.334000,205.180000,219.835000,216.609000,208.554000L217.663000,213.069000L218.014000,207.521000C218.014000,207.521000,224.941000,201.233000,231,198.079000C231,198.079000,227.232000,212.661000,225.373000,215.578000L221.199000,218.045000L225.527000,218.450000C225.527000,218.450000,223.623000,226.615000,217.718000,231.688000C211.814000,236.761000,206.735000,232.334000,206.735000,232.334000Z" fill="rgb(45,255,179)" stroke="none" stroke-width="1"/></g></g><g id="ecR0BDLO3WQ69" clip-path="url(#ecR0BDLO3WQ77)"><g id="ecR0BDLO3WQ70"><path id="ecR0BDLO3WQ71" d="M214.985000,105.537000L202.094000,134.431000L201.747000,135.206000C201.071000,135.281000,200.516000,135.125000,200.315000,135.058000L200.600000,134.421000L213.367000,105.808000L194.764000,85.901400L191.971000,85.297100L192.263000,83.962500L195.476000,84.657300L214.985000,105.537000Z" fill="rgb(215,211,209)" stroke="none" stroke-width="1"/><path id="ecR0BDLO3WQ72" d="M195.134000,140.018000L207.066000,140.018000C207.066000,140.018000,207.047000,139.734000,206.936000,139.297000C206.579000,137.888000,205.270000,134.902000,200.626000,134.902000C195.982000,134.902000,195.228000,137.888000,195.134000,139.297000C195.102000,139.730000,195.134000,140.018000,195.134000,140.018000Z" fill="rgb(233,232,231)" stroke="none" stroke-width="1"/><path id="ecR0BDLO3WQ73" d="M182.984000,79.506000L183.790000,81.777800L188.674000,95.550900C190.662000,94.852900,192.227000,93.498900,193.212000,91.821700C194.433000,89.737300,194.761000,87.152000,193.890000,84.699200C192.322000,80.265400,187.437000,77.941900,182.984000,79.506000Z" fill="rgb(202,210,229)" stroke="none" stroke-width="1"/><path id="ecR0BDLO3WQ74" d="M202.396000,134.434000L202.396000,135.067000C202.172000,135.142000,201.954000,135.184000,201.750000,135.206000C201.074000,135.280000,200.519000,135.125000,200.317000,135.058000C200.262000,135.041000,200.233000,135.028000,200.233000,135.028000L200.233000,134.418000L200.600000,134.421000L202.094000,134.431000L202.396000,134.434000Z" fill="rgb(248,249,250)" stroke="none" stroke-width="1"/><path id="ecR0BDLO3WQ75" d="M195.134000,140.018000L207.066000,140.018000C207.066000,140.018000,207.047000,139.734000,206.936000,139.297000L195.131000,139.297000C195.102000,139.730000,195.134000,140.018000,195.134000,140.018000Z" fill="rgb(94,130,209)" stroke="none" stroke-width="1"/><path id="ecR0BDLO3WQ76" d="M182.984000,79.506900L183.790000,81.778700C186.641000,84.015000,191.065000,87.883300,193.212000,91.819400C194.433000,89.735000,194.761000,87.149700,193.890000,84.696900C192.322000,80.266300,187.437000,77.942800,182.984000,79.506900Z" fill="rgb(213,219,232)" stroke="none" stroke-width="1"/></g><clipPath id="ecR0BDLO3WQ77"><rect id="ecR0BDLO3WQ78" width="32" height="61" rx="0" ry="0" transform="matrix(1 0 0 1 182.98400000000001 79.01810000000000)" fill="rgb(255,255,255)" stroke="none" stroke-width="1"/></clipPath></g></svg>