<svg id="evI8zKRwo3X1" xmlns="http://www.w3.org/2000/svg" xmlns:xlink="http://www.w3.org/1999/xlink" viewBox="0 0 252 252" shape-rendering="geometricPrecision" text-rendering="geometricPrecision"><style><![CDATA[#evI8zKRwo3X8_tk {animation: evI8zKRwo3X8_tk__tk 10000ms linear infinite normal forwards}@keyframes evI8zKRwo3X8_tk__tk { 0% {transform: translate(186.049896px,229px) skewX(-7deg) skewY(0deg)} 25% {transform: translate(186.049896px,229px) skewX(7deg) skewY(0deg)} 50% {transform: translate(186.049896px,229px) skewX(-7deg) skewY(0deg)} 75% {transform: translate(186.049896px,229px) skewX(7deg) skewY(0deg)} 100% {transform: translate(186.049896px,229px) skewX(-7deg) skewY(0deg)}} #evI8zKRwo3X13_ts {animation: evI8zKRwo3X13_ts__ts 10000ms linear infinite normal forwards}@keyframes evI8zKRwo3X13_ts__ts { 0% {transform: translate(112.970472px,196.449829px) scale(1,1)} 25% {transform: translate(112.970472px,196.449829px) scale(0.961973,1.059125)} 50% {transform: translate(112.970472px,196.449829px) scale(1,1)} 75% {transform: translate(112.970472px,196.449829px) scale(0.961973,1.059125)} 100% {transform: translate(112.970472px,196.449829px) scale(1,1)}} #evI8zKRwo3X22_tr {animation: evI8zKRwo3X22_tr__tr 10000ms linear infinite normal forwards}@keyframes evI8zKRwo3X22_tr__tr { 0% {transform: translate(132.751801px,59.904600px) rotate(0deg)} 25% {transform: translate(132.751801px,59.904600px) rotate(-10.510000deg)} 50% {transform: translate(132.751801px,59.904600px) rotate(0deg)} 75% {transform: translate(132.751801px,59.904600px) rotate(-10.510000deg)} 100% {transform: translate(132.751801px,59.904600px) rotate(0deg)}} #evI8zKRwo3X30_tr {animation: evI8zKRwo3X30_tr__tr 10000ms linear infinite normal forwards}@keyframes evI8zKRwo3X30_tr__tr { 0% {transform: translate(114.348500px,55.861600px) rotate(0deg)} 25% {transform: translate(114.348500px,55.861600px) rotate(-6.970000deg)} 50% {transform: translate(114.348500px,55.861600px) rotate(0deg)} 75% {transform: translate(114.348500px,55.861600px) rotate(-6.970000deg)} 100% {transform: translate(114.348500px,55.861600px) rotate(0deg)}}]]></style><defs><linearGradient id="evI8zKRwo3X3-fill" x1="124.747000" y1="49.255700" x2="124.747000" y2="157.900000" spreadMethod="pad" gradientUnits="userSpaceOnUse"><stop id="evI8zKRwo3X3-fill-0" offset="0%" stop-color="rgb(206,191,245)"/><stop id="evI8zKRwo3X3-fill-1" offset="100%" stop-color="rgba(38,128,193,0)"/></linearGradient><linearGradient id="evI8zKRwo3X4-fill" x1="111.455000" y1="254.999000" x2="108.756000" y2="201.448000" spreadMethod="pad" gradientUnits="userSpaceOnUse"><stop id="evI8zKRwo3X4-fill-0" offset="0%" stop-color="rgb(38,128,193)"/><stop id="evI8zKRwo3X4-fill-1" offset="100%" stop-color="rgba(38,128,193,0)"/></linearGradient></defs><path id="evI8zKRwo3X2" d="M0,0L252,0L252,252L0,252L0,0Z" fill="rgb(247,244,255)" stroke="none" stroke-width="1"/><path id="evI8zKRwo3X3" d="M50.428400,58.283000C22.593500,68.204000,31.423700,109.462000,43.592000,129.372000C51.247300,141.907000,61.804400,151.565000,74.809500,156.861000C91.855800,163.799000,110.825000,164.635000,128.824000,163.585000C160.620000,161.729000,198.656000,152.838000,213.076000,117.702000C220.348000,99.978300,220.589000,64.346400,198.700000,58.817400C193.235000,57.437600,187.502000,58.088700,182.028000,59.410200C167.545000,62.908300,154.130000,67.154600,139.131000,67.591800C123.465000,68.048500,107.834000,65.988500,92.425500,63.034600C84.351900,61.479900,76.741100,57.816600,68.614100,56.543700C62.685700,55.601100,56.249900,56.203600,50.428400,58.283000Z" opacity="0.19" fill="url(#evI8zKRwo3X3-fill)" stroke="none" stroke-width="1"/><path id="evI8zKRwo3X4" d="M109.927000,235.921000C165.424000,235.921000,210.407000,230.915000,210.407000,224.750000C210.407000,218.585000,165.424000,213.578000,109.927000,213.578000C54.430100,213.578000,9.447270,218.585000,9.447270,224.750000C9.447270,230.915000,54.430100,235.921000,109.927000,235.921000Z" opacity="0.14" fill="url(#evI8zKRwo3X4-fill)" stroke="none" stroke-width="1"/><g id="evI8zKRwo3X5"><path id="evI8zKRwo3X6" d="M233.922000,147.603000L233.898000,147.652000L217.492000,178.520000L211.247000,167.252000L133.869000,209.388000L121.379000,186.845000L51.766700,224.750000L24.922400,224.750000L126.488000,169.441000L138.970000,191.993000L205.034000,156.017000L198.789000,144.750000L233.922000,147.603000Z" fill="rgb(86,0,227)" stroke="none" stroke-width="1"/><path id="evI8zKRwo3X7" d="M233.922000,147.652000L217.516000,178.520000L211.271000,167.252000L133.894000,209.388000L121.403000,186.845000L51.791100,224.750000L36.431600,224.750000L123.275000,177.458000L135.766000,200.001000L233.922000,147.652000Z" fill="rgb(63,10,189)" stroke="none" stroke-width="1"/></g><g id="evI8zKRwo3X8_tk" transform="translate(186.049896,229) skewX(-7) skewY(0)"><g id="evI8zKRwo3X8" transform="translate(-186.049896,-229)"><path id="evI8zKRwo3X9" d="M184.330000,229C184.721000,227.208000,184.583000,225.145000,183.741000,223.275000C181.551000,218.396000,184.353000,216.782000,187.968000,214.307000C191.582000,211.833000,191.039000,206.930000,187.386000,203.548000C183.741000,200.166000,188.098000,195.868000,184.966000,190.267000C181.842000,184.666000,176.244000,190.058000,176.007000,195.899000C175.838000,200.096000,170.508000,200.360000,169.689000,205.929000C168.992000,210.778000,175.425000,213.702000,169.444000,217.154000C167.537000,218.256000,166.741000,220.094000,166.542000,222.088000C166.289000,224.656000,167.078000,227.107000,168.571000,229.008000L184.330000,229.008000L184.330000,229Z" fill="rgb(83,81,161)" stroke="none" stroke-width="1"/><path id="evI8zKRwo3X10" d="M176.014000,229L181.405000,197.854000C181.451000,197.583000,181.275000,197.327000,181.007000,197.272000C180.739000,197.226000,180.486000,197.404000,180.433000,197.676000L175.011000,228.992000L176.014000,228.992000L176.014000,229Z" fill="rgb(255,255,255)" stroke="none" stroke-width="1"/><path id="evI8zKRwo3X11" d="M199.408000,229C199.454000,228.566000,199.470000,228.131000,199.462000,227.689000C199.347000,220.870000,203.429000,220.413000,208.889000,219.381000C214.349000,218.349000,216.163000,212.337000,213.598000,206.519000C211.033000,200.693000,218.269000,197.908000,217.427000,189.763000C216.577000,181.610000,207.342000,185.039000,204.141000,191.733000C201.844000,196.551000,195.488000,194.115000,191.743000,200.212000C188.496000,205.503000,194.531000,212.229000,185.824000,213.183000C183.044000,213.485000,181.191000,215.223000,179.966000,217.449000C177.936000,221.126000,178.013000,225.447000,179.805000,228.992000L199.408000,228.992000L199.408000,229Z" fill="rgb(45,255,179)" stroke="none" stroke-width="1"/><path id="evI8zKRwo3X12" d="M188.481000,229L209.455000,196.791000C209.647000,196.497000,209.563000,196.101000,209.279000,195.907000C208.988000,195.713000,208.598000,195.798000,208.406000,196.085000L186.972000,229L188.481000,229Z" fill="rgb(255,255,255)" stroke="none" stroke-width="1"/></g></g><g id="evI8zKRwo3X13_ts" transform="translate(112.970472,196.449829) scale(1,1)"><g id="evI8zKRwo3X13" transform="translate(-112.970472,-196.449829)"><path id="evI8zKRwo3X14" d="M82.240300,174.015000L77.261500,177.411000C77.261500,177.411000,77.198100,179.658000,79.198700,182.074000L85.082700,178.211000L82.240300,174.015000Z" fill="rgb(255,197,197)" stroke="none" stroke-width="1"/><path id="evI8zKRwo3X15" d="M79.886600,180.277000C80.628900,181.140000,80.954800,181.805000,80.203400,182.964000C79.714600,183.718000,78.438200,191.598000,78.836500,193.979000C79.234800,196.359000,77.424300,196.530000,76.428600,196.431000C75.432800,196.333000,70.146200,178.588000,70.146200,178.588000C70.146200,178.588000,75.161200,176.208000,76.962700,176.190000C78.764100,176.181000,78.863700,178.678000,79.886600,180.277000Z" fill="rgb(38,54,62)" stroke="none" stroke-width="1"/><path id="evI8zKRwo3X16" d="M120.450000,125.257000C120.450000,125.257000,119.907000,154.250000,116.802000,159.973000C113.697000,165.696000,83.960100,179.451000,83.960100,179.451000C83.960100,179.451000,81.878000,177.097000,81.253400,173.800000C81.253400,173.800000,89.635900,166.486000,92.949100,163.180000C97.927900,158.221000,105.278000,153.917000,105.278000,153.917000L104.527000,120.980000L120.450000,125.257000Z" fill="rgb(36,8,112)" stroke="none" stroke-width="1"/><path id="evI8zKRwo3X17" d="M82.285400,172.245000C82.285400,172.245000,80.112900,173.557000,79.506300,174.258000C79.506300,174.258000,81.190100,179.810000,84.068700,180.475000L86.223200,179.118000C86.232300,179.118000,83.154500,175.354000,82.285400,172.245000Z" fill="rgb(4,60,98)" stroke="none" stroke-width="1"/><path id="evI8zKRwo3X18" d="M168.790000,163.602000L171.904000,168.742000C171.904000,168.742000,174.158000,168.948000,176.711000,167.106000L173.189000,161.042000L168.790000,163.602000Z" fill="rgb(255,197,197)" stroke="none" stroke-width="1"/><path id="evI8zKRwo3X19" d="M175.117000,166.073000C175.860000,165.220000,176.484000,164.797000,177.743000,165.354000C178.566000,165.714000,186.614000,165.795000,188.922000,165.049000C191.231000,164.303000,192.607000,166.558000,191.728000,167.043000C187.012000,169.640000,174.900000,175.884000,174.900000,175.884000C174.900000,175.884000,171.777000,171.320000,171.487000,169.559000C171.198000,167.789000,173.678000,167.322000,175.117000,166.073000Z" fill="rgb(38,54,62)" stroke="none" stroke-width="1"/><path id="evI8zKRwo3X20" d="M118.929000,108.780000C118.929000,108.780000,151.672000,121.313000,155.945000,126.281000C160.217000,131.250000,174.529000,162.003000,174.529000,162.003000C174.529000,162.003000,172.130000,166.343000,168.736000,165.480000C168.736000,165.480000,161.439000,154.807000,158.850000,150.701000C156.153000,146.406000,149.816000,141.267000,146.747000,132.022000C146.747000,132.022000,129.258000,131.402000,115.915000,129.246000C106.944000,127.800000,100.716000,121.403000,102.898000,112.643000C102.907000,112.625000,102.907000,112.598000,102.916000,112.571000C103.088000,112.032000,103.559000,111.646000,104.111000,111.538000L118.929000,108.780000Z" fill="rgb(47,0,156)" stroke="none" stroke-width="1"/><path id="evI8zKRwo3X21" d="M167.052000,163.989000C167.052000,163.989000,168.147000,165.876000,168.835000,166.504000C168.835000,166.504000,173.108000,165.363000,175.208000,162.138000L174.104000,159.973000C174.113000,159.973000,170.347000,162.722000,167.052000,163.989000Z" fill="rgb(0,89,130)" stroke="none" stroke-width="1"/><g id="evI8zKRwo3X22_tr" transform="translate(132.751801,59.904600) rotate(0)"><g id="evI8zKRwo3X22" transform="translate(-132.751801,-59.904600)"><path id="evI8zKRwo3X23" d="M185.998000,49.626400C184.957000,49.392800,180.685000,51.971300,180.495000,52.007200C180.304000,52.052100,179.435000,51.818500,178.566000,51.764600C177.688000,51.710700,177.190000,52.016200,176.548000,53.220100C175.905000,54.433000,175.416000,56.490400,175.416000,56.490400C175.009000,56.688100,174.556000,56.894700,174.067000,57.110300C174.801000,58.404100,175.570000,59.670900,176.394000,60.919700C177.127000,60.443600,177.788000,60.003300,178.349000,59.635000C178.784000,59.778700,179.218000,59.805700,179.616000,59.697900C180.667000,59.392400,181.563000,59.051000,182.088000,58.844300C182.396000,58.718600,182.577000,58.637700,182.577000,58.637700C182.577000,58.637700,182.586000,58.637700,182.595000,58.646700C182.694000,58.682600,183.192000,58.862300,184.161000,58.547900C185.247000,58.188500,185.944000,57.343900,185.926000,56.813900C185.908000,56.274800,185.256000,56.005300,185.256000,56.005300C185.256000,56.005300,185.700000,55.583000,185.636000,55.017000C185.573000,54.451000,184.550000,53.956800,184.550000,53.956800C184.550000,53.956800,184.985000,53.345900,184.532000,52.797800C184.106000,52.267800,182.794000,52.851700,182.685000,52.896700C182.857000,52.743900,187.012000,49.851000,185.998000,49.626400Z" fill="rgb(255,197,197)" stroke="none" stroke-width="1"/><path id="evI8zKRwo3X24" d="M178.005000,55.205700C177.969000,55.205700,177.924000,55.205700,177.888000,55.187700C177.770000,55.133800,177.716000,54.990000,177.770000,54.873200L178.241000,53.849000C178.268000,53.786100,178.322000,53.741200,178.385000,53.723200C178.449000,53.705300,178.521000,53.714200,178.576000,53.741200C178.585000,53.750200,179.734000,54.379100,180.721000,54.064600C181.029000,53.965800,181.228000,53.831000,181.300000,53.660300C181.382000,53.471700,181.291000,53.274000,181.291000,53.274000C181.237000,53.157200,181.282000,53.013500,181.400000,52.950600C181.518000,52.887700,181.662000,52.941600,181.726000,53.058400C181.744000,53.094300,181.916000,53.453700,181.753000,53.840000C181.626000,54.154500,181.327000,54.379100,180.875000,54.522800C179.970000,54.810300,179.010000,54.468900,178.576000,54.271300L178.204000,55.070900C178.177000,55.151800,178.096000,55.205700,178.005000,55.205700Z" fill="rgb(234,177,177)" stroke="none" stroke-width="1"/><path id="evI8zKRwo3X25" d="M182.586000,58.628700C182.577000,58.619700,182.568000,58.619700,182.568000,58.619700C182.568000,58.619700,182.387000,58.700600,182.079000,58.826300C181.626000,58.359200,181.554000,57.766200,181.491000,57.272000C181.436000,56.840800,181.391000,56.463400,181.147000,56.202900C180.893000,55.933400,180.775000,55.627900,180.739000,55.331400C180.703000,55.043900,180.739000,54.765400,180.793000,54.540800C180.812000,54.459900,180.839000,54.379100,180.857000,54.307200C180.920000,54.127500,180.975000,54.019700,180.984000,54.001700C181.047000,53.884900,181.192000,53.840000,181.309000,53.893900C181.427000,53.956800,181.472000,54.100500,181.418000,54.217300C181.418000,54.217300,181.409000,54.235300,181.391000,54.271300C181.328000,54.406000,181.183000,54.783400,181.210000,55.178700C181.228000,55.421300,181.300000,55.663800,181.500000,55.861500C181.862000,56.238800,181.916000,56.724000,181.979000,57.200200C182.043000,57.748200,182.097000,58.260300,182.586000,58.628700Z" fill="rgb(234,177,177)" stroke="none" stroke-width="1"/><path id="evI8zKRwo3X26" d="M179.110000,57.065400C179.019000,57.074400,178.929000,57.029500,178.883000,56.939700C178.820000,56.822900,178.865000,56.679100,178.974000,56.616200C178.992000,56.607200,180.377000,55.825600,180.431000,54.460000C180.440000,54.325200,180.549000,54.226400,180.685000,54.226400C180.821000,54.235400,180.920000,54.343200,180.920000,54.477900C180.857000,56.113100,179.282000,56.993600,179.209000,57.038500C179.182000,57.056500,179.146000,57.065400,179.110000,57.065400Z" fill="rgb(234,177,177)" stroke="none" stroke-width="1"/><path id="evI8zKRwo3X27" d="M177.009000,60.811900C177.009000,60.811900,163.539000,69.374000,159.665000,70.038900C155.782000,70.703700,143.878000,68.996700,143.878000,68.996700C142.529000,68.897900,141.334000,68.754100,140.266000,68.556500C136.663000,67.900600,134.545000,66.714700,133.304000,65.160400C131.231000,62.572900,132.481000,58.826400,133.648000,55.861500C133.648000,55.861500,135.522000,57.335000,144.955000,59.302500C144.955000,59.302500,158.361000,61.890000,159.086000,62.024800C159.086000,62.024800,169.188000,58.772500,174.773000,56.310700C174.782000,56.310700,175.986000,60.120100,177.009000,60.811900Z" fill="rgb(26,233,158)" stroke="none" stroke-width="1"/><path id="evI8zKRwo3X28" d="M174.864000,55.852500L173.072000,56.652100L175.769000,62.069700L177.453000,61.135400L174.864000,55.852500Z" fill="rgb(21,200,135)" stroke="none" stroke-width="1"/><path id="evI8zKRwo3X29" d="M140.266000,68.556500C136.663000,67.900600,134.545000,66.714700,133.304000,65.160400C132.508000,61.863100,132.010000,58.233400,133.341000,57.326000C133.341000,57.326000,137.197000,64.477600,140.266000,68.556500Z" fill="rgb(26,233,158)" stroke="none" stroke-width="1"/></g></g><g id="evI8zKRwo3X30_tr" transform="translate(114.348500,55.861600) rotate(0)"><g id="evI8zKRwo3X30" transform="translate(-114.348500,-55.861600)"><path id="evI8zKRwo3X31" d="M96.950100,116.641000L84.032400,144.573000C83.525400,145.670000,82.212800,146.155000,81.099400,145.652000L35.285400,124.781000C34.171900,124.278000,33.692200,122.975000,34.199100,121.870000L47.116800,93.937400C47.623700,92.832300,48.936300,92.356100,50.049800,92.859300L95.863800,113.730000C96.968200,114.233000,97.457000,115.536000,96.950100,116.641000Z" fill="rgb(62,7,151)" stroke="none" stroke-width="1"/><path id="evI8zKRwo3X32" d="M89.943600,131.789000L96.950100,116.641000C97.457100,115.536000,96.968300,114.242000,95.863900,113.730000L50.049800,92.859300C48.936400,92.356100,47.632800,92.832300,47.116900,93.937400L40.119400,109.085000L89.943600,131.789000Z" fill="rgb(86,0,227)" stroke="none" stroke-width="1"/><path id="evI8zKRwo3X33" d="M82.076500,102.086000L80.030600,106.516000L77.767600,105.482000L79.759100,101.179000L77.559400,100.173000L77.450700,100.119000L76.111000,99.507700L75.948000,99.435800L70.154500,96.794400L68.163000,101.098000L65.899900,100.065000L67.945700,95.635500C68.488900,94.467500,69.892000,93.946400,71.068800,94.485500L76.509300,96.965100L76.916600,97.153800L77.677000,97.504200L77.840000,97.576100L80.935900,98.986600C82.094600,99.525700,82.619600,100.909000,82.076500,102.086000Z" fill="rgb(219,219,219)" stroke="none" stroke-width="1"/><path id="evI8zKRwo3X34" d="M77.442100,100.128000L76.102400,99.516700L75.939500,99.444800C76.075200,98.546400,76.292500,97.665900,76.491600,96.974100L76.899000,97.162800L77.659400,97.513200C77.460200,98.537400,77.415000,99.417900,77.442100,100.128000Z" fill="rgb(180,191,201)" stroke="none" stroke-width="1"/><path id="evI8zKRwo3X35" d="M66.620700,98.482300L65.884300,100.075000L68.146600,101.105000L68.883100,99.513100L66.620700,98.482300Z" fill="rgb(180,191,201)" stroke="none" stroke-width="1"/><path id="evI8zKRwo3X36" d="M78.491100,103.897000L77.754600,105.489000L80.017000,106.520000L80.753500,104.928000L78.491100,103.897000Z" fill="rgb(180,191,201)" stroke="none" stroke-width="1"/><path id="evI8zKRwo3X37" d="M53.661700,112.580000L51.615800,117.009000C51.507200,117.252000,51.217500,117.351000,50.982200,117.243000L48.691900,116.201000C48.447500,116.093000,48.347900,115.805000,48.456500,115.572000L50.502400,111.142000C50.611000,110.900000,50.900700,110.792000,51.136000,110.909000L53.426300,111.951000C53.670700,112.059000,53.779300,112.337000,53.661700,112.580000Z" fill="rgb(219,219,219)" stroke="none" stroke-width="1"/><path id="evI8zKRwo3X38" d="M53.661700,112.580000L52.638800,114.790000L49.479500,113.353000L50.502400,111.142000C50.611000,110.900000,50.900700,110.792000,51.136100,110.909000L53.426300,111.951000C53.670700,112.059000,53.779400,112.337000,53.661700,112.580000Z" fill="rgb(219,219,219)" stroke="none" stroke-width="1"/><path id="evI8zKRwo3X39" d="M81.597200,125.311000L79.551400,129.740000C79.442700,129.983000,79.153100,130.082000,78.917700,129.974000L76.627500,128.932000C76.383000,128.824000,76.283500,128.536000,76.392100,128.303000L78.437900,123.873000C78.546600,123.631000,78.836200,123.523000,79.071600,123.640000L81.361800,124.682000C81.606200,124.781000,81.714900,125.068000,81.597200,125.311000Z" fill="rgb(219,219,219)" stroke="none" stroke-width="1"/><path id="evI8zKRwo3X40" d="M81.597200,125.311000L80.574300,127.521000L77.415000,126.084000L78.438000,123.873000C78.546600,123.631000,78.836300,123.523000,79.071600,123.640000L81.361900,124.682000C81.606300,124.781000,81.714900,125.068000,81.597200,125.311000Z" fill="rgb(219,219,219)" stroke="none" stroke-width="1"/><path id="evI8zKRwo3X41" d="M79.759800,98.465600C79.352400,98.312800,78.700600,98.007300,78.302300,97.800700C78.338500,97.692900,78.347600,97.486300,78.211800,97.297600C77.913100,96.866300,77.333700,97.046000,77.197900,97.297600C76.844900,97.773800,76.500900,98.699100,76.419400,99.633500L77.080300,99.966000C77.080300,99.966000,76.482800,100.703000,75.957800,100.577000C75.242600,100.406000,75.333200,99.633500,75.333200,99.633500C75.333200,99.633500,74.971100,100.271000,74.418900,100.056000C73.875700,99.831200,73.866700,99.184300,73.866700,99.184300C72.925200,99.669500,72.608400,98.717100,72.608400,98.717100C72.608400,98.717100,71.712200,99.067500,71.531200,98.294900C71.350100,97.522200,72.508800,95.168300,72.508800,95.168300C73.432200,92.985100,74.753800,90.568300,76.075500,89.023000C76.383200,88.349100,76.754400,87.540500,77.170800,86.642100C78.085100,87.280000,79.044600,87.873000,79.958900,88.501900C80.511100,88.879200,81.072400,89.265500,81.624600,89.642900C80.791700,90.739000,80.094700,91.637400,79.642100,92.212400C79.678300,92.868300,79.696400,93.569100,79.624000,94.072200C79.506300,95.177300,80.239500,97.270600,79.759800,98.465600Z" fill="rgb(255,197,197)" stroke="none" stroke-width="1"/><path id="evI8zKRwo3X42" d="M103.232000,72.887000L115.218000,68.017400C115.218000,68.017400,120.206000,59.491200,117.182000,53.858000C117.182000,53.858000,104.844000,59.491200,98.534200,62.995200C98.534200,62.995200,89.110700,68.062400,85.951400,71.530300L76.147700,88.034700C76.147700,88.034700,79.089700,91.385800,81.108400,91.170200C84.738400,86.264700,89.825800,79.230000,90.803500,76.894000L103.232000,72.887000Z" fill="rgb(26,233,158)" stroke="none" stroke-width="1"/><path id="evI8zKRwo3X43" d="M76.582100,86.884600C75.939400,87.351800,75.360100,88.052600,75.260500,88.933100L80.691900,92.455000C81.271300,91.942800,81.751000,91.278000,82.149300,90.487400L76.582100,86.884600Z" fill="rgb(21,200,135)" stroke="none" stroke-width="1"/></g></g><path id="evI8zKRwo3X44" d="M133.069000,106.471000C132.390000,110.145000,133.069000,114.763000,133.069000,114.763000C128.181000,112.841000,120.885000,109.211000,113.923000,112.248000C108.266000,114.718000,102.762000,113.308000,102.762000,113.308000C102.762000,113.308000,102.200000,106.983000,103.839000,100.541000C105.468000,94.135100,107.080000,86.121000,107.650000,82.958500C108.130000,80.290100,108.600000,77.765500,109.053000,75.420600C109.334000,73.947100,109.614000,72.545600,109.895000,71.215900C111.470000,63.606100,112.167000,57.074500,113.380000,56.077200C116.811000,53.265100,124.732000,50.488900,124.732000,50.488900L130.046000,51.962300C130.046000,51.962300,135.730000,56.319800,135.667000,59.491300C135.169000,87.486600,134.418000,87.684300,133.875000,96.192500C133.694000,98.726100,133.784000,102.589000,133.069000,106.471000Z" fill="rgb(45,255,179)" stroke="none" stroke-width="1"/><path id="evI8zKRwo3X45" d="M119.463000,66.939300C119.463000,66.939300,115.571000,71.215900,109.234000,74.414300C109.515000,72.940900,109.832000,71.422500,110.103000,70.092900L110.692000,69.886200L119.463000,66.939300Z" fill="rgb(21,200,135)" stroke="none" stroke-width="1"/><path id="evI8zKRwo3X46" d="M132.562000,92.383200L129.312000,101.880000L125.320000,92.805400L128.208000,61.791300L128.289000,60.578400L129.747000,60.425700L129.892000,62.069800L132.562000,92.383200Z" fill="rgb(86,0,227)" stroke="none" stroke-width="1"/><path id="evI8zKRwo3X47" d="M129.892000,62.069800L129.168000,62.905400L128.208000,61.791300L128.289000,60.578400L129.747000,60.425700L129.892000,62.069800Z" fill="rgb(78,20,172)" stroke="none" stroke-width="1"/><path id="evI8zKRwo3X48" d="M130.915000,58.242400L129.158000,61.997900L126.425000,57.972900L129.158000,54.675600L130.915000,58.242400Z" fill="rgb(115,44,232)" stroke="none" stroke-width="1"/><path id="evI8zKRwo3X49" d="M122.577000,55.062000C122.279000,53.974800,122.242000,52.824800,122.505000,51.728700C122.577000,51.423300,122.668000,51.153700,122.776000,50.974100C123.446000,49.895900,124.985000,50.390100,124.985000,50.390100C125.727000,53.552600,129.158000,54.666600,129.158000,54.666600L125.881000,59.895600C125.890000,59.895600,123.709000,59.194800,122.577000,55.062000Z" fill="rgb(255,255,255)" stroke="none" stroke-width="1"/><path id="evI8zKRwo3X50" d="M131.213000,51.818600C131.213000,51.818600,133.250000,53.732300,132.653000,56.023300L131.720000,59.904600L129.149000,54.675600C129.158000,54.675600,130.553000,53.310000,131.213000,51.818600Z" fill="rgb(255,255,255)" stroke="none" stroke-width="1"/><g id="evI8zKRwo3X51"><path id="evI8zKRwo3X52" d="M132.734000,47.965300L131.648000,51.325500L130.951000,53.472700C130.824000,53.850100,130.254000,54.766500,129.846000,54.757500C127.357000,54.658700,125.728000,53.194200,124.759000,51.945400L125.510000,46.725400C125.510000,46.725400,126.877000,46.464900,128.489000,46.429000L132.734000,47.965300Z" fill="rgb(255,197,197)" stroke="none" stroke-width="1"/><path id="evI8zKRwo3X53" d="M132.734000,47.964300L131.648000,51.324400C129.059000,49.833000,128.235000,47.164700,128.054000,46.436900C128.199000,46.427900,128.344000,46.427900,128.498000,46.418900L132.734000,47.964300Z" fill="rgb(204,158,158)" stroke="none" stroke-width="1"/><path id="evI8zKRwo3X54" d="M138.075000,35.718500C138.320000,37.452500,138.573000,39.635700,138.564000,41.414600C138.564000,41.423600,138.564000,41.432600,138.564000,41.432600C138.564000,41.863800,138.546000,42.277100,138.519000,42.654400C138.501000,42.870100,138.473000,43.103700,138.446000,43.337300C138.392000,43.768500,138.365000,44.244700,138.320000,44.756800C138.320000,44.783700,138.320000,44.810700,138.310000,44.837600C138.256000,45.565400,138.184000,46.338000,138.039000,47.083700C138.039000,47.083700,138.039000,47.083700,138.039000,47.092700C137.976000,47.425200,137.894000,47.748600,137.804000,48.054100C137.749000,48.233800,137.686000,48.404500,137.613000,48.566200C136.699000,50.776300,136.029000,52.537300,130.399000,48.808800C127.810000,47.092700,124.895000,47.640800,123.664000,44.514200C123.655000,44.496200,123.646000,44.478300,123.646000,44.460300C123.646000,44.451300,123.646000,44.451300,123.646000,44.451300C122.813000,42.313000,122.324000,40.093900,122.052000,38.485700C121.772000,36.850500,122.387000,35.188400,123.664000,34.110300C127.122000,31.199300,131.367000,31.244300,134.255000,31.756400C136.247000,32.124700,137.794000,33.715000,138.075000,35.718500Z" fill="rgb(255,197,197)" stroke="none" stroke-width="1"/><path id="evI8zKRwo3X55" d="M127.882000,43.391200C127.882000,43.391200,128.932000,43.139600,129.503000,42.205300C129.503000,42.205300,129.294000,44.729900,127.258000,44.711900L127.882000,43.391200Z" fill="rgb(204,158,158)" stroke="none" stroke-width="1"/><path id="evI8zKRwo3X56" d="M139.116000,32.178600C140.773000,30.390800,140.782000,27.470800,138.247000,27.075500C133.938000,26.392700,131.485000,25.548200,128.878000,25.458300C126.271000,25.368500,124.967000,28.297400,122.288000,29.034100C119.599000,29.770800,117.906000,34.424700,118.766000,37.066200C118.893000,37.461500,119.020000,37.829800,119.138000,38.171200C120.323000,41.585300,122.089000,44.765800,124.315000,47.622800C124.397000,47.730600,124.478000,47.838500,124.560000,47.937300C124.723000,48.152900,126.054000,48.476300,127.339000,46.356000C128.443000,44.532200,128.371000,43.220500,128.371000,43.220500C125.809000,42.879100,123.890000,39.734500,125.022000,38.072400C125.022000,38.072400,125.519000,37.488400,126.198000,37.425500C127.701000,37.281800,128.941000,38.171200,129.249000,39.114600C129.566000,40.058000,129.783000,40.740800,129.783000,40.740800L131.268000,40.857600C131.268000,40.857600,130.544000,38.440800,130.507000,37.560300C130.471000,36.679800,131.811000,37.003300,131.585000,35.332200C131.349000,33.670100,129.901000,33.454400,130.525000,32.816500C131.150000,32.169700,135.405000,32.681800,136.636000,33.373600C137.876000,34.074400,139.116000,32.178600,139.116000,32.178600Z" fill="rgb(22,40,95)" stroke="none" stroke-width="1"/><path id="evI8zKRwo3X57" d="M128.380000,41.019300C128.289000,41.037300,128.190000,40.992400,128.145000,40.902500C127.493000,39.599800,125.954000,39.321300,125.936000,39.312300C125.818000,39.294300,125.737000,39.177500,125.764000,39.060700C125.782000,38.943900,125.900000,38.863100,126.017000,38.890000C126.090000,38.899000,127.782000,39.213500,128.534000,40.704900C128.588000,40.812700,128.543000,40.938500,128.434000,40.992400C128.416000,41.010300,128.398000,41.019300,128.380000,41.019300Z" fill="rgb(204,158,158)" stroke="none" stroke-width="1"/><path id="evI8zKRwo3X58" d="M126.796000,40.606000C126.760000,40.615000,126.714000,40.606000,126.678000,40.597000C126.569000,40.552100,126.515000,40.426300,126.560000,40.318500C126.569000,40.300600,126.751000,39.869300,127.230000,39.536900C127.330000,39.465000,127.466000,39.492000,127.529000,39.590800C127.592000,39.689600,127.574000,39.824400,127.475000,39.887300C127.104000,40.147800,126.959000,40.480200,126.959000,40.480200C126.932000,40.543100,126.868000,40.588100,126.796000,40.606000Z" fill="rgb(204,158,158)" stroke="none" stroke-width="1"/></g></g></g></svg>