<svg id="emyterFEBGK1" xmlns="http://www.w3.org/2000/svg" xmlns:xlink="http://www.w3.org/1999/xlink" viewBox="0 0 253 252" shape-rendering="geometricPrecision" text-rendering="geometricPrecision"><style><![CDATA[#emyterFEBGK17_ts {animation: emyterFEBGK17_ts__ts 10000ms linear infinite normal forwards}@keyframes emyterFEBGK17_ts__ts { 0% {transform: translate(75.154200px,159.502533px) scale(1,1)} 25% {transform: translate(75.154200px,159.502533px) scale(0.983097,1.024273)} 50% {transform: translate(75.154200px,159.502533px) scale(1,1)} 75% {transform: translate(75.154200px,159.502533px) scale(0.983097,1.024273)} 100% {transform: translate(75.154200px,159.502533px) scale(1,1)}} #emyterFEBGK42_tr {animation: emyterFEBGK42_tr__tr 10000ms linear infinite normal forwards}@keyframes emyterFEBGK42_tr__tr { 0% {transform: translate(82.409700px,126.714000px) rotate(0deg)} 25% {transform: translate(82.409700px,126.714000px) rotate(2.370000deg)} 50% {transform: translate(82.409700px,126.714000px) rotate(0deg)} 75% {transform: translate(82.409700px,126.714000px) rotate(2.370000deg)} 100% {transform: translate(82.409700px,126.714000px) rotate(0deg)}} #emyterFEBGK64_tr {animation: emyterFEBGK64_tr__tr 10000ms linear infinite normal forwards}@keyframes emyterFEBGK64_tr__tr { 0% {transform: translate(59.605700px,101.454500px) rotate(0deg)} 25% {transform: translate(59.605700px,101.454500px) rotate(-6deg)} 50% {transform: translate(59.605700px,101.454500px) rotate(0deg)} 75% {transform: translate(59.605700px,101.454500px) rotate(-6deg)} 100% {transform: translate(59.605700px,101.454500px) rotate(0deg)}} #emyterFEBGK72_ts {animation: emyterFEBGK72_ts__ts 10000ms linear infinite normal forwards}@keyframes emyterFEBGK72_ts__ts { 0% {transform: translate(89px,57px) scale(1,1)} 27% {transform: translate(89px,57px) scale(1,1)} 29% {transform: translate(89px,57px) scale(1.177097,0.851519)} 31% {transform: translate(89px,57px) scale(0.903134,1.023912)} 33% {transform: translate(89px,57px) scale(1,1)} 77% {transform: translate(89px,57px) scale(1,1)} 79% {transform: translate(89px,57px) scale(1.177097,0.851519)} 81% {transform: translate(89px,57px) scale(0.903134,1.023912)} 83% {transform: translate(89px,57px) scale(1,1)} 100% {transform: translate(89px,57px) scale(1,1)}} #emyterFEBGK148 {animation: emyterFEBGK148_c_o 10000ms linear infinite normal forwards}@keyframes emyterFEBGK148_c_o { 0% {opacity: 1} 25% {opacity: 0.300000} 50% {opacity: 1} 75% {opacity: 0.300000} 100% {opacity: 1}} #emyterFEBGK149_tk {animation: emyterFEBGK149_tk__tk 10000ms linear infinite normal forwards}@keyframes emyterFEBGK149_tk__tk { 0% {transform: translate(55.067301px,234.014465px) skewX(0deg) skewY(0deg)} 25% {transform: translate(55.067301px,234.014465px) skewX(-7deg) skewY(0deg)} 50% {transform: translate(55.067301px,234.014465px) skewX(7deg) skewY(0deg)} 75% {transform: translate(55.067301px,234.014465px) skewX(-7deg) skewY(0deg)} 100% {transform: translate(55.067301px,234.014465px) skewX(0deg) skewY(0deg)}} #emyterFEBGK152_tk {animation: emyterFEBGK152_tk__tk 10000ms linear infinite normal forwards}@keyframes emyterFEBGK152_tk__tk { 0% {transform: translate(207.343965px,233.585000px) skewX(0deg) skewY(0deg)} 25% {transform: translate(207.343965px,233.585000px) skewX(-7deg) skewY(0deg)} 50% {transform: translate(207.343965px,233.585000px) skewX(7deg) skewY(0deg)} 75% {transform: translate(207.343965px,233.585000px) skewX(-7deg) skewY(0deg)} 100% {transform: translate(207.343965px,233.585000px) skewX(0deg) skewY(0deg)}}]]></style><defs><linearGradient id="emyterFEBGK3-fill" x1="130.718000" y1="263.055000" x2="127.215000" y2="198.367000" spreadMethod="pad" gradientUnits="userSpaceOnUse"><stop id="emyterFEBGK3-fill-0" offset="0%" stop-color="rgb(38,128,193)"/><stop id="emyterFEBGK3-fill-1" offset="100%" stop-color="rgba(38,128,193,0)"/></linearGradient><linearGradient id="emyterFEBGK4-fill" x1="127.634000" y1="16.300000" x2="127.634000" y2="151.942000" spreadMethod="pad" gradientUnits="userSpaceOnUse"><stop id="emyterFEBGK4-fill-0" offset="0%" stop-color="rgb(206,191,245)"/><stop id="emyterFEBGK4-fill-1" offset="100%" stop-color="rgba(38,128,193,0)"/></linearGradient></defs><path id="emyterFEBGK2" d="M0.233887,0L252.234000,0L252.234000,252L0.233887,252L0.233887,0Z" fill="rgb(247,244,255)" stroke="none" stroke-width="1"/><path id="emyterFEBGK3" d="M129,240C191.412000,240,242,233.950000,242,226.500000C242,219.050000,191.412000,213,129,213C66.588000,213,16,219.050000,16,226.500000C16,233.950000,66.588000,240,129,240Z" opacity="0.14" fill="url(#emyterFEBGK3-fill)" stroke="none" stroke-width="1"/><path id="emyterFEBGK4" d="M62.441900,45.248900C62.651500,44.250800,62.946300,43.259300,63.339400,42.281000C66.805100,33.666100,76.127800,28.432900,84.736400,26.364500C95.061500,23.882500,106.107000,24.480100,116.105000,28.065200C133.414000,34.276800,146.765000,48.807700,164.048000,55.091600C173.148000,58.400900,182.929000,59.261100,192.390000,61.316300C214.219000,66.050500,235.413000,85.039900,234.470000,109.092000C232.661000,155.134000,170.567000,162.199000,135.884000,158.758000C128.028000,157.977000,120.337000,156.532000,112.855000,153.906000C103.677000,150.682000,94.825700,145.035000,85.267100,142.166000C69.537100,137.438000,52.385400,145.869000,36.327800,142.415000C4.828500,135.639000,28.413700,96.911500,43.750600,86.248100C49.948300,81.940700,56.539000,77.587300,60.142300,70.942300C64.531800,62.865900,60.640200,53.725800,62.441900,45.248900Z" opacity="0.14" fill="url(#emyterFEBGK4-fill)" stroke="none" stroke-width="1"/><path id="emyterFEBGK5" d="M63.196800,211.405000L83.643100,209.341000L83.643100,185.641000L91.747800,185.641000L91.747800,209.334000L112.279000,211.405000C114.316000,211.610000,115.870000,213.375000,115.870000,215.476000L115.870000,218.634000L88.490300,218.634000L86.985800,218.634000L59.605700,218.634000L59.605700,215.476000C59.605700,213.375000,61.159900,211.617000,63.196800,211.405000Z" fill="rgb(38,50,56)" stroke="none" stroke-width="1"/><path id="emyterFEBGK6" d="M63.196800,211.405000L83.643100,209.341000L83.643100,185.641000L91.747800,185.641000L91.747800,209.334000L112.279000,211.405000C114.316000,211.610000,115.870000,213.375000,115.870000,215.476000L115.870000,218.634000L88.490300,218.634000L86.985800,218.634000L59.605700,218.634000L59.605700,215.476000C59.605700,213.375000,61.159900,211.617000,63.196800,211.405000Z" opacity="0.1" fill="rgb(255,255,255)" stroke="none" stroke-width="1"/><path id="emyterFEBGK7" d="M113.706000,228C116.634000,228,119.007000,225.560000,119.007000,222.551000C119.007000,219.542000,116.634000,217.102000,113.706000,217.102000C110.778000,217.102000,108.404000,219.542000,108.404000,222.551000C108.404000,225.560000,110.778000,228,113.706000,228Z" fill="rgb(38,50,56)" stroke="none" stroke-width="1"/><path id="emyterFEBGK8" d="M61.770400,228C64.698300,228,67.071800,225.560000,67.071800,222.551000C67.071800,219.542000,64.698300,217.102000,61.770400,217.102000C58.842500,217.102000,56.469000,219.542000,56.469000,222.551000C56.469000,225.560000,58.842500,228,61.770400,228Z" fill="rgb(38,50,56)" stroke="none" stroke-width="1"/><path id="emyterFEBGK9" d="M85.183300,191.988000L90.215000,191.988000C91.833100,191.988000,93.146000,190.638000,93.146000,188.975000L93.146000,165.684000L82.245100,165.684000L82.245100,188.975000C82.245100,190.638000,83.558100,191.988000,85.183300,191.988000Z" fill="rgb(38,50,56)" stroke="none" stroke-width="1"/><path id="emyterFEBGK10" d="M85.183300,191.988000L90.215000,191.988000C91.833100,191.988000,93.146000,190.638000,93.146000,188.975000L93.146000,165.684000L82.245100,165.684000L82.245100,188.975000C82.245100,190.638000,83.558100,191.988000,85.183300,191.988000Z" opacity="0.2" fill="rgb(128,146,201)" stroke="none" stroke-width="1"/><path id="emyterFEBGK11" d="M59.392800,120.014000C59.392800,120.014000,65.467800,158.973000,77.447400,165.684000L65.261900,165.684000C65.261900,165.684000,53.232600,152.408000,49.563500,120.014000L59.392800,120.014000Z" fill="rgb(38,50,56)" stroke="none" stroke-width="1"/><path id="emyterFEBGK12" d="M59.392800,120.014000C59.392800,120.014000,65.467800,158.973000,77.447400,165.684000L65.261900,165.684000C65.261900,165.684000,53.232600,152.408000,49.563500,120.014000L59.392800,120.014000Z" opacity="0.1" fill="rgb(128,146,201)" stroke="none" stroke-width="1"/><path id="emyterFEBGK13" d="M112.159000,160.177000L64.665900,160.177000C62.707100,160.177000,61.117400,161.811000,61.117400,163.824000L61.117400,168.704000L115.707000,168.704000L115.707000,163.824000C115.707000,161.803000,114.117000,160.177000,112.159000,160.177000Z" fill="rgb(131,137,139)" stroke="none" stroke-width="1"/><path id="emyterFEBGK14" d="M116.552000,164.437000L60.265800,164.437000C59.478100,164.437000,58.839400,165.093000,58.839400,165.903000L58.839400,167.230000C58.839400,168.040000,59.478100,168.697000,60.265800,168.697000L116.552000,168.697000C117.340000,168.697000,117.978000,168.040000,117.978000,167.230000L117.978000,165.903000C117.985000,165.093000,117.340000,164.437000,116.552000,164.437000Z" fill="rgb(38,50,56)" stroke="none" stroke-width="1"/><path id="emyterFEBGK15" d="M116.552000,164.437000L60.265800,164.437000C59.478100,164.437000,58.839400,165.093000,58.839400,165.903000L58.839400,167.230000C58.839400,168.040000,59.478100,168.697000,60.265800,168.697000L116.552000,168.697000C117.340000,168.697000,117.978000,168.040000,117.978000,167.230000L117.978000,165.903000C117.985000,165.093000,117.340000,164.437000,116.552000,164.437000Z" opacity="0.6" fill="rgb(255,255,255)" stroke="none" stroke-width="1"/><path id="emyterFEBGK16" d="M48.130000,127.928000L67.639500,127.928000C73.352600,127.928000,77.071400,123.216000,75.935900,117.402000L74.417100,109.641000C73.281600,103.827000,67.724700,99.115200,62.011600,99.115200L42.495000,99.115200C36.782000,99.115200,33.063200,103.827000,34.198700,109.641000L35.717400,117.402000C36.860000,123.216000,42.409800,127.928000,48.130000,127.928000Z" fill="rgb(168,173,175)" stroke="none" stroke-width="1"/><g id="emyterFEBGK17_ts" transform="translate(75.154200,159.502533) scale(1,1)"><g id="emyterFEBGK17" transform="translate(-75.154200,-159.502533)"><g id="emyterFEBGK18"><path id="emyterFEBGK19" d="M151.653000,193.155000L147.182000,194.956000L143.960000,188.727000L141.036000,183.059000L145.997000,180.003000L148.992000,186.962000L151.653000,193.155000Z" fill="rgb(255,197,197)" stroke="none" stroke-width="1"/><path id="emyterFEBGK20" d="M148.992000,186.962000L143.960000,188.727000L141.036000,183.059000L145.997000,180.003000L148.992000,186.962000Z" opacity="0.2" fill="rgb(0,0,0)" stroke="none" stroke-width="1"/><path id="emyterFEBGK21" d="M148.062000,183.562000L141.980000,186.918000C141.980000,186.918000,118.993000,145.376000,115.459000,145.719000C111.924000,146.062000,78.391200,168.033000,68.164500,159.921000C57.937800,151.817000,67.887700,127.388000,67.887700,127.388000C67.887700,127.388000,89.043700,121.173000,91.336000,125.951000C91.783100,126.878000,92.379300,128.730000,92.854800,130.321000C93.309000,131.816000,93.649600,133.078000,93.649600,133.078000C93.649600,133.078000,93.656700,133.078000,93.663800,133.071000C94.309700,132.801000,115.203000,123.996000,124.528000,128.716000C133.996000,133.516000,148.062000,183.562000,148.062000,183.562000Z" fill="rgb(38,50,56)" stroke="none" stroke-width="1"/><path id="emyterFEBGK22" d="M148.062000,183.562000L141.980000,186.918000C141.980000,186.918000,118.993000,145.376000,115.459000,145.719000C111.924000,146.062000,78.391200,168.033000,68.164500,159.921000C57.937800,151.817000,67.887700,127.388000,67.887700,127.388000C67.887700,127.388000,89.043700,121.173000,91.336000,125.951000C91.783100,126.878000,92.379300,128.730000,92.854800,130.321000C93.309000,131.816000,93.649600,133.078000,93.649600,133.078000C93.649600,133.078000,93.656700,133.078000,93.663800,133.071000C94.309700,132.801000,115.203000,123.996000,124.528000,128.716000C133.996000,133.516000,148.062000,183.562000,148.062000,183.562000Z" fill="rgb(47,0,156)" stroke="none" stroke-width="1"/><path id="emyterFEBGK23" d="M115.012000,217.438000L110.242000,216.876000L110.221000,209.961000L110.214000,203.615000L115.977000,203.330000L115.473000,210.800000L115.012000,217.438000Z" fill="rgb(255,197,197)" stroke="none" stroke-width="1"/><path id="emyterFEBGK24" d="M115.452000,210.953000L110.207000,210.092000L110.207000,203.680000L115.977000,203.367000L115.452000,210.953000Z" opacity="0.2" fill="rgb(0,0,0)" stroke="none" stroke-width="1"/><path id="emyterFEBGK25" d="M139.006000,184.854000L147.906000,180.273000L148.829000,184.146000L142.094000,187.720000L139.006000,184.854000Z" fill="rgb(64,123,255)" stroke="none" stroke-width="1"/><path id="emyterFEBGK26" d="M83.962400,159.987000C83.962400,159.987000,85.431500,159.819000,107.915000,155.537000C107.915000,155.537000,108.419000,185.102000,109.490000,207.131000L116.417000,207.357000C116.417000,207.357000,126.353000,158.455000,125.189000,151.066000C124.025000,143.684000,115.473000,142.685000,115.473000,142.685000C115.473000,142.685000,100.619000,154.538000,83.962400,159.987000Z" fill="rgb(33,0,109)" stroke="none" stroke-width="1"/><path id="emyterFEBGK27" d="M83.962400,159.987000C83.962400,159.987000,85.431500,159.819000,107.915000,155.537000C107.915000,155.537000,108.419000,185.102000,109.490000,207.131000L116.417000,207.357000C116.417000,207.357000,126.353000,158.455000,125.189000,151.066000C124.025000,143.684000,115.473000,142.685000,115.473000,142.685000C115.473000,142.685000,100.619000,154.538000,83.962400,159.987000Z" opacity="0.4" fill="rgb(33,0,109)" stroke="none" stroke-width="1"/><path id="emyterFEBGK28" d="M83.962400,159.987000C83.962400,159.987000,85.431500,159.819000,107.915000,155.537000C107.915000,155.537000,108.419000,185.102000,109.490000,207.131000L116.417000,207.357000C116.417000,207.357000,126.353000,158.455000,125.189000,151.066000C124.025000,143.684000,115.473000,142.685000,115.473000,142.685000C115.473000,142.685000,100.619000,154.538000,83.962400,159.987000Z" opacity="0.3" fill="rgb(33,0,109)" stroke="none" stroke-width="1"/><path id="emyterFEBGK29" d="M108.213000,205.161000L117.666000,204.935000L116.367000,208.932000L108.710000,209.005000L108.213000,205.161000Z" fill="rgb(64,123,255)" stroke="none" stroke-width="1"/><path id="emyterFEBGK30" d="M93.642700,133.078000L81.386200,137.564000C81.386200,137.564000,87.830300,132.618000,92.854900,130.321000C93.302000,131.816000,93.642700,133.078000,93.642700,133.078000Z" opacity="0.3" fill="rgb(0,0,0)" stroke="none" stroke-width="1"/><path id="emyterFEBGK31" d="M66.468500,125.886000L66.915600,129.380000L89.895600,124.368000L89.363300,120.240000L66.468500,125.886000Z" fill="rgb(38,50,56)" stroke="none" stroke-width="1"/><path id="emyterFEBGK32" d="M66.468500,125.886000L66.915600,129.380000L89.895600,124.368000L89.363300,120.240000L66.468500,125.886000Z" opacity="0.2" fill="rgb(0,0,0)" stroke="none" stroke-width="1"/><path id="emyterFEBGK33" d="M74.073300,123.344000L72.929000,123.562000L74.009900,129.550000L75.154200,129.332000L74.073300,123.344000Z" fill="rgb(38,50,56)" stroke="none" stroke-width="1"/><path id="emyterFEBGK34" d="M84.102900,121.820000L79.090600,122.981000L79.947300,126.888000L84.959700,125.726000L84.102900,121.820000Z" fill="rgb(255,255,255)" stroke="none" stroke-width="1"/><path id="emyterFEBGK35" d="M88.046000,119.797000L86.901600,120.015000L87.981900,126.003000L89.126300,125.785000L88.046000,119.797000Z" fill="rgb(38,50,56)" stroke="none" stroke-width="1"/><path id="emyterFEBGK36" d="M74.073300,123.344000L72.929000,123.562000L74.009900,129.550000L75.154200,129.332000L74.073300,123.344000Z" opacity="0.3" fill="rgb(255,255,255)" stroke="none" stroke-width="1"/><path id="emyterFEBGK37" d="M88.046000,119.797000L86.901600,120.015000L87.981900,126.003000L89.126300,125.785000L88.046000,119.797000Z" opacity="0.3" fill="rgb(255,255,255)" stroke="none" stroke-width="1"/><path id="emyterFEBGK38" d="M160.538000,201.302000C159.793000,201.069000,159.006000,200.982000,158.232000,201.033000C158.232000,201.033000,155.344000,199.793000,151.859000,193.891000L148.878000,194.293000C147.849000,194.453000,147.026000,195.248000,146.820000,196.299000C146.792000,196.444000,146.778000,196.590000,146.792000,196.736000C146.919000,197.473000,147.097000,198.195000,147.317000,198.910000C147.892000,201.164000,150.021000,205.861000,150.021000,205.861000L150.511000,205.657000L148.985000,201.222000C148.474000,199.712000,150.255000,200.989000,151.206000,202.448000C152.150000,203.907000,153.491000,205.322000,156.671000,204.089000C160.368000,202.630000,161.837000,201.842000,160.538000,201.302000Z" fill="rgb(38,50,56)" stroke="none" stroke-width="1"/><path id="emyterFEBGK39" d="M151.100000,192.330000C151.100000,192.330000,155.883000,199.800000,158.232000,201.040000C158.232000,201.040000,155.599000,203.206000,152.086000,199.712000C147.544000,195.197000,146.792000,196.743000,146.792000,196.743000C146.792000,196.743000,146.721000,194.985000,146.912000,194.096000C147.274000,192.381000,151.100000,192.330000,151.100000,192.330000Z" fill="rgb(255,197,197)" stroke="none" stroke-width="1"/><path id="emyterFEBGK40" d="M122.151000,226.133000C121.477000,225.724000,120.739000,225.447000,119.972000,225.308000C119.972000,225.308000,117.453000,223.404000,115.430000,216.818000L112.443000,216.482000C111.406000,216.387000,110.420000,216.964000,109.980000,217.926000C109.916000,218.058000,109.873000,218.196000,109.852000,218.342000C109.810000,219.086000,109.810000,219.838000,109.859000,220.582000C109.895000,222.908000,110.881000,227.993000,110.881000,227.993000L111.399000,227.912000L110.938000,223.229000C110.789000,221.639000,112.230000,223.310000,112.812000,224.958000C113.394000,226.607000,114.366000,228.306000,117.744000,227.883000C121.676000,227.373000,123.287000,226.971000,122.151000,226.133000Z" fill="rgb(38,50,56)" stroke="none" stroke-width="1"/><path id="emyterFEBGK41" d="M115.054000,215.111000C115.054000,215.111000,117.978000,223.528000,119.972000,225.308000C119.972000,225.308000,116.914000,226.767000,114.309000,222.522000C110.938000,217.029000,109.852000,218.349000,109.852000,218.349000C109.852000,218.349000,110.193000,216.628000,110.576000,215.811000C111.321000,214.228000,115.054000,215.111000,115.054000,215.111000Z" fill="rgb(255,197,197)" stroke="none" stroke-width="1"/></g><g id="emyterFEBGK42_tr" transform="translate(82.409700,126.714000) rotate(0)"><g id="emyterFEBGK42" transform="translate(-82.409700,-126.714000)"><path id="emyterFEBGK43" d="M61.465100,66.312200L55.482300,67.552300C55.482300,67.552300,54.602300,68.303600,53.764900,67.975300C51.976500,67.282400,49.400300,65.108600,49.073800,64.357300C48.591200,63.255900,49.080900,60.024400,50.337100,59.448200C51.600300,58.864600,55.950700,64.262500,55.950700,64.262500L62.401900,62.767100L61.465100,66.312200Z" fill="rgb(255,197,197)" stroke="none" stroke-width="1"/><path id="emyterFEBGK44" d="M80.392500,86.816800C80.392500,86.816800,79.846100,66.830200,77.596300,65.969400C75.346600,65.108700,58.448700,67.501200,58.448700,67.501200L58.030000,62.934900C58.030000,62.934900,77.717000,59.827500,81.528000,61.665700C85.339100,63.503900,86.595300,93.316100,85.899800,99.056800L80.392500,86.816800Z" fill="rgb(64,123,255)" stroke="none" stroke-width="1"/><path id="emyterFEBGK45" d="M80.392500,86.816800C80.392500,86.816800,79.846100,66.830200,77.596300,65.969400C75.346600,65.108700,58.448700,67.501200,58.448700,67.501200L58.030000,62.934900C58.030000,62.934900,77.717000,59.827500,81.528000,61.665700C85.339100,63.503900,86.595300,93.316100,85.899800,99.056800L80.392500,86.816800Z" fill="rgb(26,233,158)" stroke="none" stroke-width="1"/><path id="emyterFEBGK46" d="M58.732800,67.946100L57.554700,62.927600L59.236700,62.293000L60.308300,68.099300L58.732800,67.946100Z" fill="rgb(64,123,255)" stroke="none" stroke-width="1"/><path id="emyterFEBGK47" d="M58.732800,67.946100L57.554700,62.927600L59.236700,62.293000L60.308300,68.099300L58.732800,67.946100Z" opacity="0.7" fill="rgb(255,255,255)" stroke="none" stroke-width="1"/><path id="emyterFEBGK48" d="M80.300500,84.322100C80.300500,84.322100,78.796000,90.405700,71.514500,92.353300C64.233000,94.300900,56.185100,89.224000,56.185100,89.224000L57.789000,103.740000L66.709800,126.608000L89.491100,120.502000C89.484000,120.502000,88.114300,93.892400,80.300500,84.322100Z" fill="rgb(45,255,179)" stroke="none" stroke-width="1"/><path id="emyterFEBGK49" d="M80.300500,84.322100C80.300500,84.322100,78.796000,90.405700,71.514500,92.353300C64.233000,94.300900,56.185100,89.224000,56.185100,89.224000L57.789000,103.740000L66.709800,126.608000L89.491100,120.502000C89.484000,120.502000,88.114300,93.892400,80.300500,84.322100Z" opacity="0.7" fill="rgb(45,255,179)" stroke="none" stroke-width="1"/><path id="emyterFEBGK50" d="M84.260400,108.445000L86.928900,107.577000C87.227000,107.482000,87.390200,107.154000,87.297900,106.854000L85.708200,101.683000C85.616000,101.376000,85.296600,101.209000,85.005600,101.303000L82.337200,102.171000C82.039100,102.266000,81.875900,102.595000,81.968100,102.894000L83.557900,108.065000C83.650100,108.372000,83.962400,108.539000,84.260400,108.445000Z" opacity="0.6" fill="rgb(64,123,255)" stroke="none" stroke-width="1"/><path id="emyterFEBGK51" d="M83.718300,106.859000L86.750500,105.876000L85.441900,101.612000L82.409700,102.595000L83.718300,106.859000Z" opacity="0.2" fill="rgb(0,0,0)" stroke="none" stroke-width="1"/><path id="emyterFEBGK52" d="M83.602200,100.090000L82.932100,100.308000L83.702800,102.819000L84.372900,102.602000L83.602200,100.090000Z" fill="rgb(38,50,56)" stroke="none" stroke-width="1"/><path id="emyterFEBGK53" d="M64.807800,61.607300C59.194100,61.607300,55.489500,67.720000,56.802400,77.414300C58.115400,87.115800,63.381300,89.902300,63.381300,89.902300L63.040700,87.568100C63.040700,87.568100,71.358300,89.778300,80.854000,88.589300C80.854000,88.589300,78.143000,80.682200,79.023000,72.607300C79.023000,72.600000,80.804300,61.592700,64.807800,61.607300Z" fill="rgb(22,40,95)" stroke="none" stroke-width="1"/><path id="emyterFEBGK54" d="M75.964400,90.354600L78.256700,99.100600L74.225600,95.942100C74.225600,95.942100,78.150200,105.162000,79.158000,110.546000C79.158000,110.546000,75.765600,101.398000,72.841700,96.387100L71.131300,101.406000L64.254400,94.206100C64.254400,94.213400,70.343600,89.442800,75.964400,90.354600Z" opacity="0.2" fill="rgb(0,0,0)" stroke="none" stroke-width="1"/><path id="emyterFEBGK55" d="M72.607300,93.206700L65.616800,93.425500C68.711100,89.340600,63.104500,82.243200,63.104500,82.243200L70.016900,83.782300C71.663400,90.806800,74.516400,91.025600,74.516400,91.025600L72.607300,93.206700Z" fill="rgb(255,197,197)" stroke="none" stroke-width="1"/><path id="emyterFEBGK56" d="M71.954400,88.830000C68.739500,88.531000,66.503900,86.933500,65.013600,85.248500C64.091000,83.490500,63.104500,82.250500,63.104500,82.250500L70.016900,83.789600C70.577600,86.160300,71.273100,87.757800,71.954400,88.830000Z" opacity="0.2" fill="rgb(0,0,0)" stroke="none" stroke-width="1"/><path id="emyterFEBGK57" d="M70.017000,64.576200C76.042300,65.094100,77.717200,68.573500,77.639100,74.999900C77.546900,83.023700,75.361000,88.545600,67.966000,86.196800C57.909600,83.009100,60.003200,63.715400,70.017000,64.576200Z" fill="rgb(255,197,197)" stroke="none" stroke-width="1"/><path id="emyterFEBGK58" d="M62.579400,74.452700C62.579400,74.452700,65.808500,69.602000,65.702000,65.633800C65.702000,65.633800,78.057800,61.643800,77.632000,74.153700C77.632000,74.153700,79.697200,63.182900,69.349900,62.052200C59.023800,60.921600,57.788900,76.502500,62.763900,81.608500C62.771000,81.608500,60.578000,77.487200,62.579400,74.452700Z" fill="rgb(38,50,56)" stroke="none" stroke-width="1"/><path id="emyterFEBGK59" d="M63.459400,75.846000C63.502000,74.846600,62.636200,73.074100,60.812300,73.117900C58.924500,73.168900,57.718000,77.035000,62.288400,78.377100C62.941300,78.574100,63.374300,77.932200,63.459400,75.846000Z" fill="rgb(255,197,197)" stroke="none" stroke-width="1"/><path id="emyterFEBGK60" d="M69.853700,65.028400C69.853700,65.028400,66.596200,75.014500,60.365100,74.350700C54.126900,73.686900,64.814900,61.600100,64.814900,61.600100C64.814900,61.600100,75.325500,58.521800,79.910100,64.517800C84.487600,70.513800,77.639100,74.161000,77.639100,74.161000C77.639100,74.161000,78.661000,66.297700,69.853700,65.028400Z" fill="rgb(22,40,95)" stroke="none" stroke-width="1"/><path id="emyterFEBGK61" d="M64.885800,73.526400C64.814800,73.526400,64.743800,73.482600,64.722500,73.409600C64.687000,73.314800,64.736700,73.212700,64.821900,73.176200C69.789700,71.221300,69.676200,64.371900,69.676200,64.306200C69.676200,64.204100,69.754300,64.123900,69.846500,64.116600C69.945900,64.131200,70.023900,64.196800,70.031000,64.291600C70.031000,64.364600,70.144600,71.469300,64.949600,73.511800C64.928300,73.526400,64.899900,73.526400,64.885800,73.526400Z" fill="rgb(22,40,95)" stroke="none" stroke-width="1"/><path id="emyterFEBGK62" d="M66.603500,90.471300L71.869400,93.228600L71.791300,98.728600L64.254400,94.213300L66.603500,90.471300Z" fill="rgb(64,123,255)" stroke="none" stroke-width="1"/><path id="emyterFEBGK63" d="M72.678200,89.435400L72.990500,92.776300L76.425400,96.518300L75.964100,90.354500L72.678200,89.435400Z" fill="rgb(64,123,255)" stroke="none" stroke-width="1"/><g id="emyterFEBGK64_tr" transform="translate(59.605700,101.454500) rotate(0)"><g id="emyterFEBGK64" transform="translate(-59.605700,-101.454500)"><path id="emyterFEBGK65" d="M48.314500,51.694200L46.114400,45.844100C46.114400,45.844100,46.256300,44.677000,45.539600,44.129900C44.006600,42.955500,40.841400,41.890500,40.046500,42.014500C38.882600,42.189600,36.498000,44.348700,36.696700,45.749200C36.895500,47.149800,43.666000,48.025100,43.666000,48.025100L45.908600,54.422300L48.314500,51.694200Z" fill="rgb(255,197,197)" stroke="none" stroke-width="1"/><path id="emyterFEBGK66" d="M57.781900,103.740000C57.781900,103.740000,62.075600,100.260000,60.343900,92.564700L55.766400,71.294300L47.910000,49.330800L44.063500,51.329500C44.063500,51.329500,50.521700,72.789600,51.117900,74.241200C51.423000,74.985200,52.636600,86.109200,54.290200,93.578700C55.808900,100.450000,57.781900,103.740000,57.781900,103.740000Z" fill="rgb(64,123,255)" stroke="none" stroke-width="1"/><path id="emyterFEBGK67" d="M57.781900,103.740000C57.781900,103.740000,62.075600,100.260000,60.343900,92.564700L55.766400,71.294300L47.910000,49.330800L44.063500,51.329500C44.063500,51.329500,50.521700,72.789600,51.117900,74.241200C51.423000,74.985200,52.636600,86.109200,54.290200,93.578700C55.808900,100.450000,57.781900,103.740000,57.781900,103.740000Z" fill="rgb(26,233,158)" stroke="none" stroke-width="1"/><path id="emyterFEBGK68" d="M43.389200,50.702200L47.881500,48.389900L48.860900,49.929000L43.602100,52.314300L43.389200,50.702200Z" fill="rgb(64,123,255)" stroke="none" stroke-width="1"/><path id="emyterFEBGK69" d="M43.389200,50.702200L47.881500,48.389900L48.860900,49.929000L43.602100,52.314300L43.389200,50.702200Z" opacity="0.7" fill="rgb(255,255,255)" stroke="none" stroke-width="1"/></g></g><path id="emyterFEBGK70" d="M66.603500,90.471300L71.869400,93.228600L71.791300,98.728600L64.254400,94.213300L66.603500,90.471300Z" fill="rgb(255,255,255)" stroke="none" stroke-width="1"/><path id="emyterFEBGK71" d="M72.678200,89.435400L72.990500,92.776300L76.425400,96.518300L75.964100,90.354500L72.678200,89.435400Z" fill="rgb(255,255,255)" stroke="none" stroke-width="1"/></g></g></g></g><g id="emyterFEBGK72_ts" transform="translate(89,57) scale(1,1)"><g id="emyterFEBGK72" transform="translate(-89,-57)"><path id="emyterFEBGK73" d="M102.174000,15L75.826400,15C73.713200,15,72,16.755800,72,18.921500L72,45.173500C72,47.339200,73.713200,49.095000,75.826400,49.095000L84.256600,49.095000L78.581100,57L88.400000,49.087300L102.181000,49.087300C104.294000,49.087300,106,47.331500,106,45.165700L106,18.921500C106,16.755800,104.287000,15,102.174000,15Z" fill="rgb(250,250,251)" stroke="none" stroke-width="1"/><path id="emyterFEBGK74" d="M98.982800,34.464200C100.285000,28.814400,96.870800,23.152800,91.358000,21.818800C85.845300,20.484700,80.321000,23.983300,79.019300,29.633100C77.717600,35.282900,81.131300,40.944500,86.644100,42.278500C92.156800,43.612600,97.681100,40.114000,98.982800,34.464200Z" fill="rgb(45,255,179)" stroke="none" stroke-width="1"/><path id="emyterFEBGK75" d="M87.720800,37.067400C87.449100,37.067400,87.184900,36.959100,86.988700,36.758000L82.634000,32.387900C82.218900,31.970200,82.211300,31.297300,82.618900,30.871800C83.026400,30.446400,83.683000,30.438700,84.098100,30.856400L87.667900,34.437600L93.841500,27.375700C94.226400,26.934800,94.890600,26.896100,95.320800,27.290600C95.750900,27.685100,95.788700,28.365800,95.403800,28.806600L88.505700,36.711600C88.317000,36.928200,88.045300,37.059700,87.758500,37.067400C87.743400,37.067400,87.735900,37.067400,87.720800,37.067400Z" fill="rgb(255,255,255)" stroke="none" stroke-width="1"/></g></g><path id="emyterFEBGK76" d="M201,17L201,123.999000L187.891000,136.874000L112,136.874000L112,17L201,17Z" fill="rgb(231,232,234)" stroke="none" stroke-width="1"/><path id="emyterFEBGK77" d="M201,17L201,123.999000L187.891000,136.874000L112,136.874000L112,17L201,17Z" opacity="0.8" fill="rgb(255,255,255)" stroke="none" stroke-width="1"/><path id="emyterFEBGK78" d="M187.891000,136.874000L187.891000,124.378000L201,124.378000L188.148000,137" opacity="0.2" fill="rgb(0,0,0)" stroke="none" stroke-width="1"/><path id="emyterFEBGK79" d="M145.679000,27.382200L121.132000,27.382200C120.415000,27.382200,119.831000,26.808900,119.831000,26.104500C119.831000,25.400000,120.415000,24.826700,121.132000,24.826700L145.679000,24.826700C146.396000,24.826700,146.980000,25.400000,146.980000,26.104500C146.980000,26.808900,146.396000,27.382200,145.679000,27.382200Z" opacity="0.1" fill="rgb(0,0,0)" stroke="none" stroke-width="1"/><path id="emyterFEBGK80" d="M190.201000,37.759500L131.026000,37.759500C130.309000,37.759500,129.725000,37.186200,129.725000,36.481800C129.725000,35.777300,130.309000,35.204000,131.026000,35.204000L190.201000,35.204000C190.918000,35.204000,191.502000,35.777300,191.502000,36.481800C191.502000,37.186200,190.918000,37.759500,190.201000,37.759500Z" opacity="0.1" fill="rgb(0,0,0)" stroke="none" stroke-width="1"/><path id="emyterFEBGK81" d="M190.201000,42.797600L121.132000,42.797600C120.415000,42.797600,119.831000,42.224300,119.831000,41.519900C119.831000,40.815400,120.415000,40.242100,121.132000,40.242100L190.201000,40.242100C190.918000,40.242100,191.502000,40.815400,191.502000,41.519900C191.502000,42.224300,190.918000,42.797600,190.201000,42.797600Z" opacity="0.1" fill="rgb(0,0,0)" stroke="none" stroke-width="1"/><path id="emyterFEBGK82" d="M190.201000,48.491500L121.132000,48.491500C120.415000,48.491500,119.831000,47.918200,119.831000,47.213800C119.831000,46.509300,120.415000,45.936000,121.132000,45.936000L190.201000,45.936000C190.918000,45.936000,191.502000,46.509300,191.502000,47.213800C191.502000,47.918200,190.918000,48.491500,190.201000,48.491500Z" opacity="0.1" fill="rgb(0,0,0)" stroke="none" stroke-width="1"/><path id="emyterFEBGK83" d="M190.201000,54.180600L121.132000,54.180600C120.415000,54.180600,119.831000,53.607300,119.831000,52.902900C119.831000,52.198400,120.415000,51.625100,121.132000,51.625100L190.201000,51.625100C190.918000,51.625100,191.502000,52.198400,191.502000,52.902900C191.502000,53.607300,190.918000,54.180600,190.201000,54.180600Z" opacity="0.1" fill="rgb(0,0,0)" stroke="none" stroke-width="1"/><path id="emyterFEBGK84" d="M190.201000,59.874500L121.132000,59.874500C120.415000,59.874500,119.831000,59.301200,119.831000,58.596800C119.831000,57.892300,120.415000,57.319000,121.132000,57.319000L190.201000,57.319000C190.918000,57.319000,191.502000,57.892300,191.502000,58.596800C191.502000,59.301200,190.918000,59.874500,190.201000,59.874500Z" opacity="0.1" fill="rgb(0,0,0)" stroke="none" stroke-width="1"/><path id="emyterFEBGK85" d="M190.201000,65.568400L121.132000,65.568400C120.415000,65.568400,119.831000,64.995100,119.831000,64.290700C119.831000,63.586200,120.415000,63.012900,121.132000,63.012900L190.201000,63.012900C190.918000,63.012900,191.502000,63.586200,191.502000,64.290700C191.502000,64.995100,190.918000,65.568400,190.201000,65.568400Z" opacity="0.1" fill="rgb(0,0,0)" stroke="none" stroke-width="1"/><path id="emyterFEBGK86" d="M190.201000,71.262400L121.132000,71.262400C120.415000,71.262400,119.831000,70.689100,119.831000,69.984600C119.831000,69.280200,120.415000,68.706900,121.132000,68.706900L190.201000,68.706900C190.918000,68.706900,191.502000,69.280200,191.502000,69.984600C191.502000,70.689100,190.918000,71.262400,190.201000,71.262400Z" opacity="0.1" fill="rgb(0,0,0)" stroke="none" stroke-width="1"/><path id="emyterFEBGK87" d="M190.201000,76.951400L121.132000,76.951400C120.415000,76.951400,119.831000,76.378100,119.831000,75.673700C119.831000,74.969200,120.415000,74.395900,121.132000,74.395900L190.201000,74.395900C190.918000,74.395900,191.502000,74.969200,191.502000,75.673700C191.502000,76.378100,190.918000,76.951400,190.201000,76.951400Z" opacity="0.1" fill="rgb(0,0,0)" stroke="none" stroke-width="1"/><path id="emyterFEBGK88" d="M190.201000,82.645300L121.132000,82.645300C120.415000,82.645300,119.831000,82.072000,119.831000,81.367600C119.831000,80.663100,120.415000,80.089800,121.132000,80.089800L190.201000,80.089800C190.918000,80.089800,191.502000,80.663100,191.502000,81.367600C191.502000,82.072000,190.918000,82.645300,190.201000,82.645300Z" opacity="0.1" fill="rgb(0,0,0)" stroke="none" stroke-width="1"/><path id="emyterFEBGK89" d="M190.201000,88.339300L121.132000,88.339300C120.415000,88.339300,119.831000,87.766000,119.831000,87.061600C119.831000,86.357100,120.415000,85.783800,121.132000,85.783800L190.201000,85.783800C190.918000,85.783800,191.502000,86.357100,191.502000,87.061600C191.502000,87.766000,190.918000,88.339300,190.201000,88.339300Z" opacity="0.1" fill="rgb(0,0,0)" stroke="none" stroke-width="1"/><path id="emyterFEBGK90" d="M190.201000,94.033200L121.132000,94.033200C120.415000,94.033200,119.831000,93.459900,119.831000,92.755500C119.831000,92.051000,120.415000,91.477700,121.132000,91.477700L190.201000,91.477700C190.918000,91.477700,191.502000,92.051000,191.502000,92.755500C191.502000,93.459900,190.918000,94.033200,190.201000,94.033200Z" opacity="0.1" fill="rgb(0,0,0)" stroke="none" stroke-width="1"/><path id="emyterFEBGK91" d="M150.626000,99.722200L121.132000,99.722200C120.415000,99.722200,119.831000,99.149000,119.831000,98.444500C119.831000,97.740000,120.415000,97.166700,121.132000,97.166700L150.626000,97.166700C151.343000,97.166700,151.927000,97.740000,151.927000,98.444500C151.927000,99.149000,151.343000,99.722200,150.626000,99.722200Z" opacity="0.1" fill="rgb(0,0,0)" stroke="none" stroke-width="1"/><g id="emyterFEBGK92"><path id="emyterFEBGK93" d="M184.863000,43.220300C184.833000,43.196000,184.804000,43.171700,184.769000,43.142500C184.507000,42.938500,184.349000,43.006500,184.225000,42.627600C184.136000,42.345800,184.240000,42.039700,184.126000,41.748200C183.933000,41.257500,183.582000,40.781400,183.320000,40.319900C182.914000,39.600800,182.508000,38.886700,182.098000,38.167600C181.534000,37.176500,180.253000,36.817000,179.243000,37.370900L168.039000,43.502100C167.994000,43.871300,167.683000,44.123900,167.623000,44.493100C167.589000,44.702100,167.643000,44.935300,167.806000,45.066400C167.668000,45.076100,167.574000,45.008100,167.460000,44.945000C166.792000,44.580600,166.614000,44.289100,165.926000,44.658300C165.630000,44.813800,165.338000,44.979000,165.046000,45.139300C164.056000,45.683400,163.062000,46.222700,162.073000,46.766800C158.971000,48.462400,155.874000,50.157900,152.772000,51.853500C149.137000,53.840500,145.505000,55.827600,141.869000,57.819500C138.847000,59.471300,135.824000,61.128000,132.807000,62.779800C131.570000,63.455100,130.066000,64.047800,128.968000,64.907700C129.275000,65.068000,129.324000,65.301200,129.057000,65.534400C128.884000,65.685000,128.716000,65.830800,128.542000,65.981400C128.538000,66.098000,128.726000,66.098000,128.834000,66.054300C129.037000,65.966800,129.245000,65.879400,129.448000,65.796800C129.022000,66.326300,128.508000,66.787900,127.934000,67.152300C126.989000,67.749800,125.896000,68.080200,124.822000,68.405700C124.996000,68.191900,125.174000,67.973300,125.347000,67.759500C125.391000,67.706100,125.436000,67.638100,125.406000,67.574900C125.381000,67.521500,125.307000,67.506900,125.243000,67.502100C124.986000,67.477800,124.723000,67.502100,124.526000,67.312600C122.834000,68.308500,121.068000,69.207300,119.346000,70.149800C118.337000,70.703700,117.971000,71.962000,118.535000,72.953100L129.829000,92.867200C130.393000,93.858300,131.674000,94.217800,132.683000,93.664000L135.725000,92.002500C135.730000,91.657500,136.002000,91.273700,135.795000,90.953100C135.770000,90.914200,135.735000,90.870500,135.735000,90.821900C135.735000,90.758700,135.795000,90.710100,135.849000,90.676100C136.151000,90.486700,136.507000,90.374900,136.863000,90.355500C136.987000,90.350600,137.150000,90.404100,137.130000,90.520700C137.150000,90.418600,137.768000,90.190300,137.877000,90.156300C137.927000,90.418600,137.744000,90.700400,138.055000,90.753900C138.308000,90.797600,138.842000,90.287500,139.065000,90.166000C140.054000,89.621900,141.048000,89.082600,142.038000,88.538500C145.164000,86.828400,148.296000,85.113400,151.422000,83.403300C154.860000,81.523100,158.293000,79.642900,161.731000,77.762800C164.012000,76.514200,166.292000,75.270500,168.568000,74.021900C168.820000,73.885900,169.107000,73.720700,169.350000,73.599200C169.453000,73.230000,169.646000,72.651800,169.983000,72.423500C170.473000,72.088300,171.259000,72.457500,171.675000,71.981400C171.754000,71.889100,171.803000,71.777400,171.873000,71.680200C171.991000,71.515000,172.174000,71.403300,172.347000,71.296400C172.476000,71.218700,172.610000,71.136100,172.758000,71.136100C172.906000,71.136100,173.065000,71.257500,173.045000,71.403300C174.064000,71.170100,174.984000,70.499600,175.884000,69.994400C176.206000,69.814600,179.075000,68.493100,179.060000,68.284200C179.021000,67.638100,179.426000,67.084200,179.407000,66.418700C179.402000,66.292300,179.154000,65.451800,179.268000,65.383800C176.696000,66.889900,174.020000,68.259900,171.403000,69.693100C171.314000,69.741700,170.977000,69.858300,170.928000,69.950600C170.918000,69.974900,170.903000,69.999200,170.893000,70.018600C170.868000,70.072100,170.844000,70.125500,170.819000,70.179000C170.814000,70.193500,170.809000,70.208100,170.799000,70.217800C170.675000,70.523900,170.581000,70.888300,170.423000,71.179800C170.398000,71.223500,169.864000,71.903700,169.820000,71.743300C169.602000,70.961200,169.300000,70.839700,168.716000,71.160400C168.425000,71.320700,168.138000,71.476100,167.846000,71.636500C166.926000,72.141700,166.001000,72.647000,165.080000,73.152300C161.974000,74.852700,158.867000,76.548200,155.765000,78.248600C152.105000,80.250200,148.449000,82.251800,144.788000,84.253500C141.741000,85.919900,138.689000,87.591100,135.641000,89.257500C134.365000,89.957100,133.089000,90.656700,131.812000,91.351400C131.041000,89.991100,130.269000,88.635600,129.502000,87.275300C129.007000,86.400800,128.513000,85.531200,128.018000,84.656700C127.840000,84.340900,127.667000,83.894000,127.370000,83.680200C127.157000,83.524700,126.796000,83.563600,126.603000,83.422700C126.143000,83.082600,125.812000,82.446200,125.376000,82.047800C125.080000,81.780600,124.629000,80.964400,124.753000,80.512600C124.902000,80.570900,125.050000,80.629200,125.198000,80.677800C125.124000,80.357100,125.129000,80.089900,125.248000,79.769300C123.754000,77.320700,122.393000,74.750600,120.974000,72.243700C120.969000,72.234000,120.880000,72.083400,120.880000,72.083400C122.037000,71.451800,123.190000,70.820300,124.347000,70.188700C125.188000,69.727200,126.034000,69.265600,126.875000,68.804100C127.326000,68.556300,127.944000,68.337700,128.340000,68.002500C128.661000,67.730400,128.983000,67.390300,129.349000,67.094000C129.571000,66.914200,129.829000,66.792700,130.086000,66.666400C130.398000,66.515800,130.709000,66.370100,131.021000,66.219500C131.070000,66.195200,131.125000,66.170900,131.179000,66.170900C131.239000,66.170900,131.288000,66.195200,131.347000,66.209700C131.847000,66.311800,133.069000,65.413000,133.514000,65.170100C134.474000,64.645400,135.434000,64.120700,136.393000,63.596000C139.287000,62.012200,142.186000,60.428400,145.080000,58.844600C148.686000,56.872100,152.298000,54.894800,155.904000,52.922300C159.515000,50.945000,163.126000,48.972500,166.738000,46.995200C169.641000,45.406500,172.550000,43.817800,175.454000,42.224300C176.943000,41.408100,178.437000,40.591900,179.926000,39.775700C179.995000,39.736900,180.065000,39.702900,180.134000,39.664000C180.134000,39.664000,184.908000,48.083400,184.947000,48.151400C185.224000,48.637300,185.768000,49.298000,186.308000,49.472900C186.501000,49.536100,186.723000,49.672100,186.703000,49.871300C186.679000,50.085000,186.382000,50.235700,186.451000,50.439700C186.530000,50.672900,186.901000,50.570900,186.990000,50.755500C187.109000,50.988700,186.837000,51.231600,186.867000,51.494000C186.896000,51.751400,187.188000,52.106100,187.317000,52.329600C187.782000,53.155500,188.252000,53.976500,188.717000,54.802500C189.498000,56.177400,190.275000,57.552300,191.062000,58.936900L182.503000,63.620300C182.543000,63.654300,182.583000,63.693100,182.607000,63.741700C182.627000,63.775700,182.637000,63.814600,182.652000,63.853500C182.830000,63.902100,183.008000,63.994400,183.171000,64.067200C183.310000,64.130400,183.389000,64.310100,183.389000,64.451000C183.384000,64.601600,183.300000,64.747400,183.161000,64.820300L182.637000,65.106900C182.593000,65.335200,182.429000,65.519900,182.187000,65.568400C182.128000,65.578200,182.063000,65.583000,182.004000,65.583000C181.900000,65.655900,181.776000,65.685000,181.638000,65.651000C181.415000,65.597600,181.257000,65.330400,181.336000,65.116600C181.356000,65.063200,181.385000,65.019500,181.415000,64.975700C181.341000,64.834800,181.346000,64.659900,181.445000,64.523900C181.390000,64.519100,181.341000,64.514200,181.287000,64.504500C181.202000,64.485000,181.118000,64.455900,181.034000,64.431600C180.495000,64.723100,180.347000,65.058300,180.035000,65.583000C180.020000,65.612200,180,65.641300,180.010000,65.670500C180.025000,65.738500,180.119000,65.743300,180.183000,65.772500C180.327000,65.840500,180.297000,66.054300,180.223000,66.200000C180.149000,66.340900,180.060000,66.520700,180.159000,66.647000C180.193000,66.690700,180.248000,66.719900,180.282000,66.763600C180.490000,66.996800,180.169000,67.686700,180.683000,67.404900C180.643000,67.264000,180.678000,67.089100,180.752000,66.962800C180.831000,66.826700,180.975000,66.729600,181.128000,66.685900C181.509000,66.588700,181.905000,66.545000,182.301000,66.515800L192.605000,60.880200C193.614000,60.326300,193.980000,59.068000,193.416000,58.077000C193.397000,58.042900,193.377000,58.008900,193.357000,57.974900C191.804000,55.234800,190.250000,52.499600,188.697000,49.759500C187.802000,48.175700,186.901000,46.596800,186.006000,45.013000C185.749000,44.556300,185.501000,44.089900,185.229000,43.642900C185.091000,43.468000,185.007000,43.351400,184.863000,43.220300Z" fill="rgb(86,0,227)" stroke="none" stroke-width="1"/><path id="emyterFEBGK94" d="M137.229000,70.062300C136.888000,69.654200,136.992000,69.644500,136.922000,69.207300C136.922000,69.197600,136.918000,69.187800,136.918000,69.178100C136.903000,69.163600,136.893000,69.149000,136.878000,69.139300C136.853000,69.119800,136.838000,69.090700,136.814000,69.071200C136.581000,69.173300,136.349000,69.285000,136.116000,69.411300L131.565000,71.898800L133.400000,75.129500C133.143000,74.677700,134.053000,74.813800,134.088000,74.808900C134.187000,74.794300,134.286000,74.750600,134.390000,74.760300C134.489000,74.774900,134.573000,74.838000,134.632000,74.915800C134.865000,75.212100,134.830000,75.625100,134.790000,75.994300C134.736000,76.499600,134.998000,76.985400,134.711000,77.447000C134.954000,77.835600,137.150000,81.751400,137.155000,81.746600L141.711000,79.254200C141.973000,79.108500,142.597000,78.855900,142.750000,78.593500C142.859000,78.404000,142.661000,77.937600,142.933000,77.811300C143.116000,77.728700,143.418000,77.767600,143.556000,77.869600C145.377000,76.106100,145.674000,73.468000,144.442000,71.301200C143.161000,69.042100,140.252000,67.701200,137.704000,68.745700C137.526000,68.818600,137.763000,69.600800,137.338000,69.688200C137.417000,69.527900,137.536000,69.396700,137.684000,69.289900L137.229000,70.062300ZM140.534000,77.447000L138.411000,78.608100C138.238000,78.302000,138.070000,77.995900,137.892000,77.699600C138.115000,78.073700,137.501000,77.957100,137.373000,77.869600C137.061000,77.665600,136.977000,77.077700,136.967000,76.747400C136.947000,76.086600,136.789000,75.751400,136.452000,75.153800C135.953000,74.269600,135.448000,73.385400,134.949000,72.501200L137.071000,71.340100C139.064000,70.251800,141.028000,70.703600,142.097000,72.588700C143.165000,74.478500,142.527000,76.358700,140.534000,77.447000Z" fill="rgb(86,0,227)" stroke="none" stroke-width="1"/><path id="emyterFEBGK95" d="M152.292000,61.788700C152.391000,62.031600,152.436000,62.269600,152.382000,62.527100C152.352000,62.663200,152.134000,63.022700,152.164000,63.095500C152.243000,63.289900,152.317000,63.484200,152.396000,63.678500C152.411000,63.707700,152.421000,63.741700,152.446000,63.766000C152.480000,63.795100,152.530000,63.804900,152.574000,63.804900C153.361000,63.868000,153.326000,63.950600,153.376000,64.601600C153.420000,65.160300,153.910000,65.481000,154.187000,65.966800C155.251000,67.837200,154.627000,69.853400,152.837000,70.834800C151.813000,71.398400,150.695000,71.456700,149.725000,71.053400C149.705000,71.072900,149.685000,71.092300,149.666000,71.106900C149.567000,71.160300,149.438000,71.174900,149.329000,71.145700C148.815000,70.995100,148.389000,70.587000,148.285000,70.062300C148.276000,70.023500,148.281000,69.984600,148.285000,69.945700C148.152000,69.775700,148.028000,69.600800,147.914000,69.401600C146.851000,67.531200,147.474000,65.510100,149.265000,64.533600C149.928000,64.169200,150.630000,64.028300,151.308000,64.076900C151.293000,64.057500,151.278000,64.038100,151.264000,64.018600C150.838000,63.464800,152.377000,63.241300,151.679000,62.872100C151.387000,62.716600,151.437000,62.012100,151.362000,61.720600C150.304000,61.735200,149.211000,62.017000,148.157000,62.590300C144.991000,64.324700,143.898000,67.759500,145.560000,70.689100C146.267000,71.937700,147.415000,72.919000,148.805000,73.370800C149.097000,73.468000,149.522000,73.633200,149.834000,73.604000C150.239000,73.570000,150.042000,73.628300,150.210000,73.366000C150.363000,73.127900,150.279000,73.025900,150.541000,72.773300C150.799000,72.525500,151.110000,72.365200,151.170000,71.976500C151.155000,72.151400,151.367000,72.277700,151.367000,72.447800C151.367000,72.501200,151.348000,72.549800,151.353000,72.603200C151.358000,72.666400,151.397000,72.719800,151.437000,72.773300C151.605000,72.996800,151.887000,73.239700,151.892000,73.516600C152.589000,73.434000,153.321000,73.118200,153.940000,72.778100C157.091000,71.053400,158.209000,67.623500,156.537000,64.679300C155.706000,63.212100,154.073000,61.885800,152.292000,61.788700Z" fill="rgb(86,0,227)" stroke="none" stroke-width="1"/><path id="emyterFEBGK96" d="M162.409000,55.025900L165.803000,61.006500L157.423000,57.751400L155.503000,58.800800C156.799000,61.084200,158.175000,63.348200,159.396000,65.670500C159.480000,65.422700,159.678000,65.369300,159.916000,65.340100C160.361000,65.276900,160.346000,65.495600,160.589000,65.932800C160.618000,65.981400,160.653000,66.034800,160.707000,66.049400C160.796000,66.064000,160.871000,65.966800,160.960000,65.981400C161.049000,65.991100,161.083000,66.102900,161.064000,66.185400C161.039000,66.268000,160.979000,66.336100,160.935000,66.408900C160.791000,66.676100,161.029000,66.851000,160.999000,67.089100C160.984000,67.220300,160.569000,67.730400,160.618000,67.817800L161.093000,68.658300L163.384000,67.404900L162.770000,66.326300C162.736000,66.331200,162.696000,66.336100,162.661000,66.340900C161.994000,66.423500,162.285000,65.568400,162.142000,65.213800C161.939000,64.718200,161.588000,64.242100,161.326000,63.775700C160.880000,62.993500,160.435000,62.211400,159.995000,61.424300L166.812000,64.057500C166.827000,63.863200,166.782000,63.659100,166.881000,63.484200C166.936000,63.387100,167.361000,63.192700,167.356000,63.095600C167.381000,63.406500,167.534000,63.702900,167.772000,63.906900C168.039000,64.135300,168.039000,64.101200,167.984000,64.504500L168.395000,64.664800L170.299000,63.620300L164.709000,53.767600L162.409000,55.025900Z" fill="rgb(86,0,227)" stroke="none" stroke-width="1"/><path id="emyterFEBGK97" d="M173.940000,59.228400L172.649000,56.949800L177.304000,54.404100L176.300000,52.630800L171.645000,55.176500L170.433000,53.038900L173.584000,51.314200C173.708000,51.149000,173.881000,51.017800,174.064000,50.910900C174.163000,50.852600,174.277000,50.847800,174.376000,50.876900L175.706000,50.148200C175.706000,50.148200,174.766000,48.491500,174.672000,48.321500C174.217000,48.525500,174.672000,49.089100,174.212000,49.361100C174.306000,49.458300,174.445000,49.808100,174.198000,49.827500C174.064000,49.837300,173.970000,49.662400,173.836000,49.676900C173.762000,49.686700,173.698000,49.749800,173.624000,49.735200C173.584000,49.725500,173.554000,49.691500,173.530000,49.652600C173.441000,49.516600,173.406000,49.346600,173.287000,49.234800C172.976000,48.938500,170.131000,50.799200,169.735000,51.017800C168.855000,51.498800,167.969000,51.984600,167.089000,52.465600L172.679000,62.318200L174.910000,61.098800C174.925000,61.079400,174.940000,61.059900,174.954000,61.040500C175.113000,60.836500,175.276000,60.627600,175.449000,60.438100C175.583000,60.292300,175.815000,60.287500,175.983000,60.374900C176.023000,60.394400,176.053000,60.423500,176.082000,60.457500L180.441000,58.072100L179.402000,56.240500L173.940000,59.228400Z" fill="rgb(86,0,227)" stroke="none" stroke-width="1"/></g><path id="emyterFEBGK98" d="M198.269000,103.803000L179.796000,103.803000L179.796000,118.529000L198.269000,118.529000L198.269000,103.803000Z" fill="rgb(255,255,255)" stroke="none" stroke-width="1"/><path id="emyterFEBGK99" d="M198.275000,103.803000L193.540000,103.803000L193.540000,118.529000L198.275000,118.529000L198.275000,103.803000Z" opacity="0.1" fill="rgb(0,0,0)" stroke="none" stroke-width="1"/><path id="emyterFEBGK100" d="M178.736000,131.534000L199.626000,131.534000L199.626000,104.803000L192.899000,104.803000L178.736000,111.761000L178.736000,131.534000Z" fill="rgb(64,123,255)" stroke="none" stroke-width="1"/><path id="emyterFEBGK101" d="M199.626000,104.803000L192.899000,104.803000L192.899000,131.528000L199.626000,131.528000L199.626000,104.803000Z" opacity="0.2" fill="rgb(0,0,0)" stroke="none" stroke-width="1"/><path id="emyterFEBGK102" d="M190.673000,117.030000L180.894000,117.030000L180.894000,121.837000L190.673000,121.837000L190.673000,117.030000Z" opacity="0.7" fill="rgb(255,255,255)" stroke="none" stroke-width="1"/><path id="emyterFEBGK103" d="M190.673000,123.444000L180.894000,123.444000L180.894000,124.133000L190.673000,124.133000L190.673000,123.444000Z" opacity="0.7" fill="rgb(255,255,255)" stroke="none" stroke-width="1"/><path id="emyterFEBGK104" d="M198.972000,125.455000L193.540000,125.455000L193.540000,129.535000L198.972000,129.535000L198.972000,125.455000Z" opacity="0.7" fill="rgb(255,255,255)" stroke="none" stroke-width="1"/><path id="emyterFEBGK105" d="M190.420000,103L171.948000,103L171.948000,118.529000L190.420000,118.529000L190.420000,103Z" fill="rgb(255,255,255)" stroke="none" stroke-width="1"/><path id="emyterFEBGK106" d="M190.426000,103L185.691000,103L185.691000,118.529000L190.426000,118.529000L190.426000,103Z" opacity="0.1" fill="rgb(0,0,0)" stroke="none" stroke-width="1"/><path id="emyterFEBGK107" d="M170.887000,131.534000L191.777000,131.534000L191.777000,104.803000L185.050000,104.803000L170.887000,111.761000L170.887000,131.534000Z" fill="rgb(64,123,255)" stroke="none" stroke-width="1"/><path id="emyterFEBGK108" d="M191.777000,104.803000L185.050000,104.803000L185.050000,131.528000L191.777000,131.528000L191.777000,104.803000Z" opacity="0.2" fill="rgb(0,0,0)" stroke="none" stroke-width="1"/><path id="emyterFEBGK109" d="M182.824000,117.030000L173.045000,117.030000L173.045000,121.837000L182.824000,121.837000L182.824000,117.030000Z" opacity="0.7" fill="rgb(255,255,255)" stroke="none" stroke-width="1"/><path id="emyterFEBGK110" d="M182.824000,123.444000L173.045000,123.444000L173.045000,124.133000L182.824000,124.133000L182.824000,123.444000Z" opacity="0.7" fill="rgb(255,255,255)" stroke="none" stroke-width="1"/><path id="emyterFEBGK111" d="M191.123000,125.455000L185.691000,125.455000L185.691000,129.535000L191.123000,129.535000L191.123000,125.455000Z" opacity="0.7" fill="rgb(255,255,255)" stroke="none" stroke-width="1"/><path id="emyterFEBGK112" d="M157.920000,233L161.693000,233L168.482000,136.063000L163.469000,136.063000L157.920000,233Z" fill="rgb(38,50,56)" stroke="none" stroke-width="1"/><path id="emyterFEBGK113" d="M157.914000,233L161.694000,233L168.149000,140.877000L168.482000,136.221000L163.469000,136.221000L163.198000,140.877000L157.914000,233Z" opacity="0.1" fill="rgb(255,255,255)" stroke="none" stroke-width="1"/><path id="emyterFEBGK114" d="M163.198000,140.649000L168.149000,140.649000L168.482000,136.221000L163.470000,136.221000L163.198000,140.649000Z" opacity="0.2" fill="rgb(0,0,0)" stroke="none" stroke-width="1"/><path id="emyterFEBGK115" d="M130.198000,233L133.972000,233L134.588000,136.063000L129.582000,136.063000L130.198000,233Z" fill="rgb(38,50,56)" stroke="none" stroke-width="1"/><path id="emyterFEBGK116" d="M129.576000,136.221000L129.675000,151.858000L130.193000,233L133.972000,233L134.490000,151.858000L134.589000,136.221000L129.576000,136.221000Z" opacity="0.1" fill="rgb(255,255,255)" stroke="none" stroke-width="1"/><path id="emyterFEBGK117" d="M129.576000,136.221000L129.675000,152.035000L134.490000,152.035000L134.589000,136.221000L129.576000,136.221000Z" opacity="0.2" fill="rgb(0,0,0)" stroke="none" stroke-width="1"/><path id="emyterFEBGK118" d="M90.095900,233L93.869400,233L100.658000,136.063000L95.645200,136.063000L90.095900,233Z" fill="rgb(38,50,56)" stroke="none" stroke-width="1"/><path id="emyterFEBGK119" d="M90.090100,233L93.869700,233L100.325000,140.877000L100.658000,136.221000L95.645500,136.221000L95.374200,140.877000L90.090100,233Z" opacity="0.1" fill="rgb(255,255,255)" stroke="none" stroke-width="1"/><path id="emyterFEBGK120" d="M95.374300,140.649000L100.325000,140.649000L100.658000,136.221000L95.645600,136.221000L95.374300,140.649000Z" opacity="0.2" fill="rgb(0,0,0)" stroke="none" stroke-width="1"/><path id="emyterFEBGK121" d="M201.130000,233L204.904000,233L199.354000,136.063000L194.342000,136.063000L201.130000,233Z" fill="rgb(38,50,56)" stroke="none" stroke-width="1"/><path id="emyterFEBGK122" d="M194.342000,136.221000L194.675000,140.877000L201.130000,233L204.904000,233L199.626000,140.877000L199.354000,136.221000L194.342000,136.221000Z" opacity="0.1" fill="rgb(255,255,255)" stroke="none" stroke-width="1"/><path id="emyterFEBGK123" d="M199.354000,136.221000L194.342000,136.221000L194.675000,140.649000L199.626000,140.649000L199.354000,136.221000Z" opacity="0.2" fill="rgb(0,0,0)" stroke="none" stroke-width="1"/><path id="emyterFEBGK124" d="M93.006600,138.492000L201.993000,138.492000C202.727000,138.492000,203.325000,137.878000,203.325000,137.126000L203.325000,133.640000L91.674800,133.640000L91.674800,137.126000C91.674800,137.878000,92.272900,138.492000,93.006600,138.492000Z" fill="rgb(64,123,255)" stroke="none" stroke-width="1"/><path id="emyterFEBGK125" d="M93.006600,138.492000L201.993000,138.492000C202.727000,138.492000,203.325000,137.878000,203.325000,137.126000L203.325000,133.640000L91.674800,133.640000L91.674800,137.126000C91.674800,137.878000,92.272900,138.492000,93.006600,138.492000Z" opacity="0.4" fill="rgb(255,255,255)" stroke="none" stroke-width="1"/><path id="emyterFEBGK126" d="M91.674800,136.064000L203.325000,136.064000L203.325000,133.635000L91.674800,133.635000L91.674800,136.064000Z" opacity="0.2" fill="rgb(0,0,0)" stroke="none" stroke-width="1"/><path id="emyterFEBGK127" d="M89.331800,134.267000L205.668000,134.267000C206.402000,134.267000,207,133.653000,207,132.900000C207,132.148000,206.402000,131.534000,205.668000,131.534000L89.331800,131.534000C88.598100,131.534000,88,132.148000,88,132.900000C88,133.653000,88.598100,134.267000,89.331800,134.267000Z" fill="rgb(64,123,255)" stroke="none" stroke-width="1"/><path id="emyterFEBGK128" d="M89.331800,134.267000L205.668000,134.267000C206.402000,134.267000,207,133.653000,207,132.900000C207,132.148000,206.402000,131.534000,205.668000,131.534000L89.331800,131.534000C88.598100,131.534000,88,132.148000,88,132.900000C88,133.653000,88.598100,134.267000,89.331800,134.267000Z" opacity="0.4" fill="rgb(255,255,255)" stroke="none" stroke-width="1"/><path id="emyterFEBGK129" d="M180.672000,131.521000L180.672000,129.383000L182.066000,129.383000L180.672000,128.548000L181.720000,128.548000L180.321000,127.612000L178.995000,127.612000L178.995000,126.537000L180.530000,126.537000L178.995000,125.904000L178.995000,123.577000L180.530000,123.577000L180.530000,122.052000L182.066000,122.052000L180.530000,121.521000L180.530000,120.433000L181.634000,120.433000L180.734000,119.509000L179.951000,118.712000L156.132000,118.712000L156.132000,119.807000L154.560000,119.807000L156.305000,120.616000L156.305000,121.521000L153.092000,121.521000L153.092000,123.203000L151.674000,123.203000L153.092000,123.931000L153.092000,125.816000L154.104000,125.816000L154.104000,126.714000L156.132000,126.714000L156.132000,129.383000L154.998000,129.383000L155.929000,130.338000L155.929000,131.534000L180.672000,131.521000Z" fill="rgb(64,123,255)" stroke="none" stroke-width="1"/><path id="emyterFEBGK130" d="M180.672000,131.521000L180.672000,129.383000L182.066000,129.383000L180.672000,128.548000L181.720000,128.548000L180.321000,127.612000L178.995000,127.612000L178.995000,126.537000L180.530000,126.537000L178.995000,125.904000L178.995000,123.577000L180.530000,123.577000L180.530000,122.052000L182.066000,122.052000L180.530000,121.521000L180.530000,120.433000L181.634000,120.433000L180.734000,119.509000L179.951000,118.712000L156.132000,118.712000L156.132000,119.807000L154.560000,119.807000L156.305000,120.616000L156.305000,121.521000L153.092000,121.521000L153.092000,123.203000L151.674000,123.203000L153.092000,123.931000L153.092000,125.816000L154.104000,125.816000L154.104000,126.714000L156.132000,126.714000L156.132000,129.383000L154.998000,129.383000L155.929000,130.338000L155.929000,131.534000L180.672000,131.521000Z" opacity="0.7" fill="rgb(255,255,255)" stroke="none" stroke-width="1"/><path id="emyterFEBGK131" d="M180.672000,131.521000L180.672000,129.383000L182.065000,129.383000L180.672000,128.548000L181.720000,128.548000L180.321000,127.612000L178.995000,127.612000L178.995000,126.537000L180.530000,126.537000L178.995000,125.904000L178.995000,123.577000L180.530000,123.577000L180.530000,122.052000L182.065000,122.052000L180.530000,121.521000L180.530000,120.433000L181.634000,120.433000L180.734000,119.509000L179.951000,118.712000L167.409000,118.712000L167.409000,119.807000L165.831000,119.807000L167.582000,120.616000L167.582000,121.521000L164.370000,121.521000L164.370000,123.203000L162.945000,123.203000L164.370000,123.931000L164.370000,125.816000L165.381000,125.816000L165.381000,126.714000L167.409000,126.714000L167.409000,129.383000L166.269000,129.383000L167.200000,130.338000L167.200000,131.534000L180.672000,131.521000Z" opacity="0.1" fill="rgb(0,0,0)" stroke="none" stroke-width="1"/><path id="emyterFEBGK132" d="M156.305000,121.521000L167.582000,121.521000L156.305000,121.103000L156.305000,121.521000Z" opacity="0.1" fill="rgb(0,0,0)" stroke="none" stroke-width="1"/><path id="emyterFEBGK133" d="M156.132000,126.714000L167.410000,126.714000L167.453000,127.524000L156.132000,126.714000Z" opacity="0.1" fill="rgb(0,0,0)" stroke="none" stroke-width="1"/><path id="emyterFEBGK134" d="M154.104000,125.816000L165.381000,125.816000L154.104000,126.221000L154.104000,125.816000Z" opacity="0.1" fill="rgb(0,0,0)" stroke="none" stroke-width="1"/><path id="emyterFEBGK135" d="M156.132000,129.383000L167.410000,129.383000L156.132000,128.960000L156.132000,129.383000Z" opacity="0.1" fill="rgb(0,0,0)" stroke="none" stroke-width="1"/><path id="emyterFEBGK136" d="M155.929000,130.338000L167.200000,130.338000L167.200000,130.781000L155.929000,130.338000Z" opacity="0.1" fill="rgb(0,0,0)" stroke="none" stroke-width="1"/><path id="emyterFEBGK137" d="M153.093000,123.203000L164.370000,123.203000L153.093000,122.830000L153.093000,123.203000Z" opacity="0.1" fill="rgb(0,0,0)" stroke="none" stroke-width="1"/><path id="emyterFEBGK138" d="M156.132000,119.807000L167.410000,119.807000L156.132000,119.402000L156.132000,119.807000Z" opacity="0.1" fill="rgb(0,0,0)" stroke="none" stroke-width="1"/><path id="emyterFEBGK139" d="M180.530000,120.433000L169.099000,120.433000L180.530000,120.793000L180.530000,120.433000Z" opacity="0.1" fill="rgb(0,0,0)" stroke="none" stroke-width="1"/><path id="emyterFEBGK140" d="M167.582000,121.521000L180.530000,121.521000L168.791000,121.913000L167.582000,121.521000Z" opacity="0.1" fill="rgb(0,0,0)" stroke="none" stroke-width="1"/><path id="emyterFEBGK141" d="M164.370000,123.203000L180.530000,123.577000L180.530000,123.203000L164.370000,123.203000Z" opacity="0.1" fill="rgb(0,0,0)" stroke="none" stroke-width="1"/><path id="emyterFEBGK142" d="M164.370000,123.931000L172.361000,123.931000L164.370000,124.336000L164.370000,123.931000Z" opacity="0.1" fill="rgb(0,0,0)" stroke="none" stroke-width="1"/><path id="emyterFEBGK143" d="M178.995000,125.904000L167.409000,125.816000L178.995000,125.550000L178.995000,125.904000Z" opacity="0.1" fill="rgb(0,0,0)" stroke="none" stroke-width="1"/><path id="emyterFEBGK144" d="M178.995000,126.537000L167.200000,126.537000L178.995000,126.942000L178.995000,126.537000Z" opacity="0.1" fill="rgb(0,0,0)" stroke="none" stroke-width="1"/><path id="emyterFEBGK145" d="M180.672000,128.548000L167.582000,128.548000L167.582000,128.959000L180.672000,128.548000Z" opacity="0.1" fill="rgb(0,0,0)" stroke="none" stroke-width="1"/><path id="emyterFEBGK146" d="M180.672000,129.383000L171.183000,129.383000L180.672000,129.655000L180.672000,129.383000Z" opacity="0.1" fill="rgb(0,0,0)" stroke="none" stroke-width="1"/><path id="emyterFEBGK147" d="M157.631000,104.965000L125.291000,104.965000C124.435000,104.965000,123.664000,105.466000,123.340000,106.233000L113.382000,129.784000L95.554600,129.784000C95.056600,129.784000,94.652300,130.176000,94.652300,130.659000C94.652300,131.142000,95.056600,131.534000,95.554600,131.534000L146.297000,131.534000C147.692000,131.534000,148.958000,130.740000,149.529000,129.506000L159.555000,107.848000C160.181000,106.495000,159.159000,104.965000,157.631000,104.965000Z" fill="rgb(60,31,127)" stroke="none" stroke-width="1"/><path id="emyterFEBGK148" d="M140.220000,118.679000C140.001000,119.737000,139.050000,120.443000,138.094000,120.258000C137.139000,120.073000,136.542000,119.066000,136.761000,118.007000C136.979000,116.948000,137.931000,116.242000,138.886000,116.427000C139.841000,116.613000,140.438000,117.622000,140.220000,118.679000Z" fill="rgb(255,255,255)" stroke="none" stroke-width="1"/><g id="emyterFEBGK149_tk" transform="translate(55.067301,234.014465) skewX(0) skewY(0)"><g id="emyterFEBGK149" transform="translate(-55.067301,-234.014465)"><path id="emyterFEBGK150" d="M66.319200,233.874000C66.319200,233.874000,67.852100,213.751000,61.094700,212.760000C54.375600,211.769000,57.454100,219.769000,54.069000,218.568000C50.683900,217.379000,50.837200,206.543000,43.096300,207.187000C35.355300,207.831000,45.357200,216.425000,40.682000,216.425000C36.006700,216.425000,42.368100,221.589000,42.368100,225.663000C42.368100,229.737000,30.015800,221.143000,28.534000,226.654000C26.426300,234.555000,41.141800,234.010000,41.141800,234.010000L66.319200,233.874000Z" fill="rgb(86,77,159)" stroke="none" stroke-width="1"/><path id="emyterFEBGK151" d="M33.720400,233.180000C38.791700,232.090000,49.509000,230.691000,53.813800,233.378000C53.967100,233.576000,54.120400,233.725000,54.273600,233.972000L55.193400,233.972000C54.529100,233.106000,53.864900,232.189000,53.200600,231.298000C54.784600,226.728000,54.631300,221.465000,54.375800,218.741000C54.375800,218.741000,54.375800,218.741000,54.324700,218.741000C54.273600,218.741000,54.222500,218.741000,54.171400,218.617000C54.171400,218.617000,54.171400,218.617000,54.120300,218.617000C54.120300,218.617000,54.120300,218.617000,54.069200,218.617000C54.069200,218.617000,54.069300,218.617000,54.018200,218.617000C54.018200,218.617000,54.018200,218.617000,53.967100,218.617000C53.967100,218.617000,53.967100,218.617000,53.916000,218.617000L53.864900,218.592000C53.813800,218.592000,53.813800,218.555000,53.762700,218.555000C54.018200,221.044000,54.273600,226.159000,52.843000,230.740000C51.974300,229.453000,51.156800,228.165000,50.326500,226.815000C52.012700,225.329000,51.859400,219.261000,51.501700,214.989000C51.450600,214.840000,51.399500,214.741000,51.348400,214.593000C51.348400,214.543000,51.348400,214.543000,51.297300,214.494000C51.092900,213.949000,50.837500,213.404000,50.582000,212.859000C51.144000,217.973000,51.297300,224.635000,49.968800,226.121000C45.715100,218.766000,42.585500,211.063000,41.359200,207.831000C41.103700,207.980000,40.899400,208.079000,40.746100,208.277000C41.819100,211.113000,44.284400,217.168000,47.618400,223.335000C49.406800,226.716000,51.259000,229.700000,52.996300,232.177000C48.027200,229.836000,35.521500,231.731000,32.034300,232.722000C32.430300,232.784000,33.043400,232.982000,33.720400,233.180000Z" fill="rgb(235,237,245)" stroke="none" stroke-width="1"/></g></g><g id="emyterFEBGK152_tk" transform="translate(207.343965,233.585000) skewX(0) skewY(0)"><g id="emyterFEBGK152" transform="translate(-207.343965,-233.585000)"><path id="emyterFEBGK153" d="M200.429000,232.919000C200.429000,232.919000,194.770000,216.714000,197.957000,213.807000C201.144000,210.899000,203.050000,214.155000,204.330000,212.974000C205.611000,211.793000,200.339000,203.039000,204.018000,199.662000C207.711000,196.330000,209.185000,203.312000,211.270000,201.388000C213.399000,199.450000,213.593000,184.154000,218.969000,185.759000C224.345000,187.364000,216.080000,201.631000,218.120000,201.767000C220.160000,201.903000,222.498000,197.678000,224.315000,201.964000C226.132000,206.250000,212.774000,215.261000,218.522000,215.594000C224.330000,215.912000,222.826000,219.880000,221.218000,222.984000C219.609000,226.074000,211.091000,233.585000,211.091000,233.585000L200.429000,232.919000Z" fill="rgb(45,255,179)" stroke="none" stroke-width="1"/><path id="emyterFEBGK154" d="M224.240000,201.766000C221.709000,204.886000,217.122000,210.066000,213.474000,211.913000C216.244000,200.267000,218.492000,189.106000,219.133000,185.819000C219.073000,185.774000,219.028000,185.789000,218.969000,185.744000C218.909000,185.698000,218.865000,185.713000,218.745000,185.683000C218.269000,188.136000,216.854000,195.148000,215.008000,203.447000C214.397000,200.721000,213.712000,197.481000,213.206000,195.042000C213.161000,195.360000,213.057000,195.648000,213.012000,195.981000C213.682000,199.328000,214.591000,203.417000,214.799000,204.326000C214.650000,204.932000,214.501000,205.537000,214.367000,206.204000L212.089000,199.692000C212.029000,199.919000,211.955000,200.085000,211.880000,200.252000L214.189000,206.870000C213.444000,210.172000,212.580000,213.594000,211.746000,217.017000C208.738000,214.170000,206.266000,204.053000,205.149000,198.783000C205.045000,198.798000,204.911000,198.874000,204.762000,198.965000C205.909000,204.386000,208.411000,214.654000,211.627000,217.456000C210.302000,222.651000,208.857000,227.769000,207.428000,232.146000C204.524000,229.859000,200.935000,218.213000,199.357000,212.716000C199.267000,212.792000,199.118000,212.807000,198.969000,212.898000C200.578000,218.546000,204.181000,230.344000,207.279000,232.540000C207.219000,232.767000,207.100000,232.994000,207.041000,233.221000L207.458000,233.252000C208.024000,231.510000,208.649000,229.602000,209.245000,227.482000C211.970000,226.285000,218.939000,220.803000,222.558000,217.895000C222.528000,217.744000,222.498000,217.592000,222.439000,217.501000C219.014000,220.258000,212.268000,225.589000,209.423000,227.027000C210.600000,222.969000,211.895000,218.183000,213.176000,212.731000C213.206000,212.625000,213.236000,212.458000,213.265000,212.352000C216.988000,210.641000,221.664000,205.386000,224.285000,202.160000C224.270000,202.054000,224.255000,202.009000,224.196000,201.918000C224.255000,201.857000,224.240000,201.812000,224.240000,201.766000Z" fill="rgb(255,255,255)" stroke="none" stroke-width="1"/></g></g></svg>