<svg width="51" height="336" viewBox="0 0 51 336" fill="none" xmlns="http://www.w3.org/2000/svg">
<g style="mix-blend-mode:multiply">
<g opacity="0.7">
<path d="M13.6956 4.96538C13.0905 4.96538 12.5999 4.47524 12.5999 3.87063C12.5999 3.26602 13.0905 2.77588 13.6956 2.77588C14.3007 2.77588 14.7913 3.26602 14.7913 3.87063C14.7913 4.47524 14.3007 4.96538 13.6956 4.96538Z" fill="#D1D1D1"/>
<path d="M13.6956 10.8648C13.0905 10.8648 12.5999 10.3747 12.5999 9.77004C12.5999 9.16543 13.0905 8.67529 13.6956 8.67529C14.3007 8.67529 14.7913 9.16543 14.7913 9.77004C14.7913 10.3747 14.3007 10.8648 13.6956 10.8648Z" fill="#D1D1D1"/>
<path d="M13.6956 16.7645C13.0905 16.7645 12.5999 16.2743 12.5999 15.6697C12.5999 15.0651 13.0905 14.575 13.6956 14.575C14.3007 14.575 14.7913 15.0651 14.7913 15.6697C14.7913 16.2743 14.3007 16.7645 13.6956 16.7645Z" fill="#D1D1D1"/>
<path d="M13.6956 22.6639C13.0905 22.6639 12.5999 22.1737 12.5999 21.5691C12.5999 20.9645 13.0905 20.4744 13.6956 20.4744C14.3007 20.4744 14.7913 20.9645 14.7913 21.5691C14.7913 22.1737 14.3007 22.6639 13.6956 22.6639Z" fill="#D1D1D1"/>
<path d="M13.6956 28.5633C13.0905 28.5633 12.5999 28.0731 12.5999 27.4685C12.5999 26.8639 13.0905 26.3738 13.6956 26.3738C14.3007 26.3738 14.7913 26.8639 14.7913 27.4685C14.7913 28.0731 14.3007 28.5633 13.6956 28.5633Z" fill="#D1D1D1"/>
<path d="M13.6956 34.4629C13.0905 34.4629 12.5999 33.9728 12.5999 33.3682C12.5999 32.7636 13.0905 32.2734 13.6956 32.2734C14.3007 32.2734 14.7913 32.7636 14.7913 33.3682C14.7913 33.9728 14.3007 34.4629 13.6956 34.4629Z" fill="#D1D1D1"/>
<path d="M13.6956 40.3624C13.0905 40.3624 12.5999 39.8722 12.5999 39.2676C12.5999 38.663 13.0905 38.1729 13.6956 38.1729C14.3007 38.1729 14.7913 38.663 14.7913 39.2676C14.7913 39.8722 14.3007 40.3624 13.6956 40.3624Z" fill="#D1D1D1"/>
<path d="M13.6956 46.3226C13.0905 46.3226 12.5999 45.8324 12.5999 45.2278C12.5999 44.6232 13.0905 44.1331 13.6956 44.1331C14.3007 44.1331 14.7913 44.6232 14.7913 45.2278C14.7913 45.8324 14.3007 46.3226 13.6956 46.3226Z" fill="#D1D1D1"/>
<path d="M13.6956 52.2222C13.0905 52.2222 12.5999 51.7321 12.5999 51.1275C12.5999 50.5228 13.0905 50.0327 13.6956 50.0327C14.3007 50.0327 14.7913 50.5228 14.7913 51.1275C14.7913 51.7321 14.3007 52.2222 13.6956 52.2222Z" fill="#D1D1D1"/>
<path d="M13.6956 58.1216C13.0905 58.1216 12.5999 57.6315 12.5999 57.0269C12.5999 56.4223 13.0905 55.9321 13.6956 55.9321C14.3007 55.9321 14.7913 56.4223 14.7913 57.0269C14.7913 57.6315 14.3007 58.1216 13.6956 58.1216Z" fill="#D1D1D1"/>
<path d="M13.6956 64.021C13.0905 64.021 12.5999 63.5309 12.5999 62.9263C12.5999 62.3217 13.0905 61.8315 13.6956 61.8315C14.3007 61.8315 14.7913 62.3217 14.7913 62.9263C14.7913 63.5309 14.3007 64.021 13.6956 64.021Z" fill="#D1D1D1"/>
<path d="M24.4695 4.96538C23.8644 4.96538 23.3739 4.47524 23.3739 3.87063C23.3739 3.26602 23.8644 2.77588 24.4695 2.77588C25.0746 2.77588 25.5652 3.26602 25.5652 3.87063C25.5652 4.47524 25.0746 4.96538 24.4695 4.96538Z" fill="#D1D1D1"/>
<path d="M24.4695 10.8648C23.8644 10.8648 23.3739 10.3747 23.3739 9.77004C23.3739 9.16543 23.8644 8.67529 24.4695 8.67529C25.0746 8.67529 25.5652 9.16543 25.5652 9.77004C25.5652 10.3747 25.0746 10.8648 24.4695 10.8648Z" fill="#D1D1D1"/>
<path d="M24.4695 16.7645C23.8644 16.7645 23.3739 16.2743 23.3739 15.6697C23.3739 15.0651 23.8644 14.575 24.4695 14.575C25.0746 14.575 25.5652 15.0651 25.5652 15.6697C25.5652 16.2743 25.0746 16.7645 24.4695 16.7645Z" fill="#D1D1D1"/>
<path d="M24.4695 22.6639C23.8644 22.6639 23.3739 22.1737 23.3739 21.5691C23.3739 20.9645 23.8644 20.4744 24.4695 20.4744C25.0746 20.4744 25.5652 20.9645 25.5652 21.5691C25.5652 22.1737 25.0746 22.6639 24.4695 22.6639Z" fill="#D1D1D1"/>
<path d="M24.4695 28.5633C23.8644 28.5633 23.3739 28.0731 23.3739 27.4685C23.3739 26.8639 23.8644 26.3738 24.4695 26.3738C25.0746 26.3738 25.5652 26.8639 25.5652 27.4685C25.5652 28.0731 25.0746 28.5633 24.4695 28.5633Z" fill="#D1D1D1"/>
<path d="M24.4695 34.4629C23.8644 34.4629 23.3739 33.9728 23.3739 33.3682C23.3739 32.7636 23.8644 32.2734 24.4695 32.2734C25.0746 32.2734 25.5652 32.7636 25.5652 33.3682C25.5652 33.9728 25.0746 34.4629 24.4695 34.4629Z" fill="#D1D1D1"/>
<path d="M24.4695 40.3624C23.8644 40.3624 23.3739 39.8722 23.3739 39.2676C23.3739 38.663 23.8644 38.1729 24.4695 38.1729C25.0746 38.1729 25.5652 38.663 25.5652 39.2676C25.5652 39.8722 25.0746 40.3624 24.4695 40.3624Z" fill="#D1D1D1"/>
<path d="M24.4695 46.3226C23.8644 46.3226 23.3739 45.8324 23.3739 45.2278C23.3739 44.6232 23.8644 44.1331 24.4695 44.1331C25.0746 44.1331 25.5652 44.6232 25.5652 45.2278C25.5652 45.8324 25.0746 46.3226 24.4695 46.3226Z" fill="#D1D1D1"/>
<path d="M24.4695 52.2222C23.8644 52.2222 23.3739 51.7321 23.3739 51.1275C23.3739 50.5228 23.8644 50.0327 24.4695 50.0327C25.0746 50.0327 25.5652 50.5228 25.5652 51.1275C25.5652 51.7321 25.0746 52.2222 24.4695 52.2222Z" fill="#D1D1D1"/>
<path d="M24.4695 58.1216C23.8644 58.1216 23.3739 57.6315 23.3739 57.0269C23.3739 56.4223 23.8644 55.9321 24.4695 55.9321C25.0746 55.9321 25.5652 56.4223 25.5652 57.0269C25.5652 57.6315 25.0746 58.1216 24.4695 58.1216Z" fill="#D1D1D1"/>
<path d="M24.4695 64.021C23.8644 64.021 23.3739 63.5309 23.3739 62.9263C23.3739 62.3217 23.8644 61.8315 24.4695 61.8315C25.0746 61.8315 25.5652 62.3217 25.5652 62.9263C25.5652 63.5309 25.0746 64.021 24.4695 64.021Z" fill="#D1D1D1"/>
<path d="M2.92169 4.96538C2.31658 4.96538 1.82603 4.47524 1.82603 3.87063C1.82603 3.26602 2.31658 2.77588 2.92169 2.77588C3.5268 2.77588 4.01733 3.26602 4.01733 3.87063C4.01733 4.47524 3.5268 4.96538 2.92169 4.96538Z" fill="#D1D1D1"/>
<path d="M2.92169 10.8648C2.31658 10.8648 1.82603 10.3747 1.82603 9.77004C1.82603 9.16543 2.31658 8.67529 2.92169 8.67529C3.5268 8.67529 4.01733 9.16543 4.01733 9.77004C4.01733 10.3747 3.5268 10.8648 2.92169 10.8648Z" fill="#D1D1D1"/>
<path d="M2.92169 16.7645C2.31658 16.7645 1.82603 16.2743 1.82603 15.6697C1.82603 15.0651 2.31658 14.575 2.92169 14.575C3.5268 14.575 4.01733 15.0651 4.01733 15.6697C4.01733 16.2743 3.5268 16.7645 2.92169 16.7645Z" fill="#D1D1D1"/>
<path d="M2.92169 22.6639C2.31658 22.6639 1.82603 22.1737 1.82603 21.5691C1.82603 20.9645 2.31658 20.4744 2.92169 20.4744C3.5268 20.4744 4.01733 20.9645 4.01733 21.5691C4.01733 22.1737 3.5268 22.6639 2.92169 22.6639Z" fill="#D1D1D1"/>
<path d="M2.92169 28.5633C2.31658 28.5633 1.82603 28.0731 1.82603 27.4685C1.82603 26.8639 2.31658 26.3738 2.92169 26.3738C3.5268 26.3738 4.01733 26.8639 4.01733 27.4685C4.01733 28.0731 3.5268 28.5633 2.92169 28.5633Z" fill="#D1D1D1"/>
<path d="M2.92169 34.4629C2.31658 34.4629 1.82603 33.9728 1.82603 33.3682C1.82603 32.7636 2.31658 32.2734 2.92169 32.2734C3.5268 32.2734 4.01733 32.7636 4.01733 33.3682C4.01733 33.9728 3.5268 34.4629 2.92169 34.4629Z" fill="#D1D1D1"/>
<path d="M2.92169 40.3624C2.31658 40.3624 1.82603 39.8722 1.82603 39.2676C1.82603 38.663 2.31658 38.1729 2.92169 38.1729C3.5268 38.1729 4.01733 38.663 4.01733 39.2676C4.01733 39.8722 3.5268 40.3624 2.92169 40.3624Z" fill="#D1D1D1"/>
<path d="M2.92169 46.3226C2.31658 46.3226 1.82603 45.8324 1.82603 45.2278C1.82603 44.6232 2.31658 44.1331 2.92169 44.1331C3.5268 44.1331 4.01733 44.6232 4.01733 45.2278C4.01733 45.8324 3.5268 46.3226 2.92169 46.3226Z" fill="#D1D1D1"/>
<path d="M2.92169 52.2222C2.31658 52.2222 1.82603 51.7321 1.82603 51.1275C1.82603 50.5228 2.31658 50.0327 2.92169 50.0327C3.5268 50.0327 4.01733 50.5228 4.01733 51.1275C4.01733 51.7321 3.5268 52.2222 2.92169 52.2222Z" fill="#D1D1D1"/>
<path d="M2.92169 58.1216C2.31658 58.1216 1.82603 57.6315 1.82603 57.0269C1.82603 56.4223 2.31658 55.9321 2.92169 55.9321C3.5268 55.9321 4.01733 56.4223 4.01733 57.0269C4.01733 57.6315 3.5268 58.1216 2.92169 58.1216Z" fill="#D1D1D1"/>
<path d="M2.92169 64.021C2.31658 64.021 1.82603 63.5309 1.82603 62.9263C1.82603 62.3217 2.31658 61.8315 2.92169 61.8315C3.5268 61.8315 4.01733 62.3217 4.01733 62.9263C4.01733 63.5309 3.5268 64.021 2.92169 64.021Z" fill="#D1D1D1"/>
<path d="M35.3044 4.96538C34.6993 4.96538 34.2087 4.47524 34.2087 3.87063C34.2087 3.26602 34.6993 2.77588 35.3044 2.77588C35.9095 2.77588 36.4 3.26602 36.4 3.87063C36.4 4.47524 35.9095 4.96538 35.3044 4.96538Z" fill="#D1D1D1"/>
<path d="M35.3044 10.8648C34.6993 10.8648 34.2087 10.3747 34.2087 9.77004C34.2087 9.16543 34.6993 8.67529 35.3044 8.67529C35.9095 8.67529 36.4 9.16543 36.4 9.77004C36.4 10.3747 35.9095 10.8648 35.3044 10.8648Z" fill="#D1D1D1"/>
<path d="M35.3044 16.7645C34.6993 16.7645 34.2087 16.2743 34.2087 15.6697C34.2087 15.0651 34.6993 14.575 35.3044 14.575C35.9095 14.575 36.4 15.0651 36.4 15.6697C36.4 16.2743 35.9095 16.7645 35.3044 16.7645Z" fill="#D1D1D1"/>
<path d="M35.3044 22.6639C34.6993 22.6639 34.2087 22.1737 34.2087 21.5691C34.2087 20.9645 34.6993 20.4744 35.3044 20.4744C35.9095 20.4744 36.4 20.9645 36.4 21.5691C36.4 22.1737 35.9095 22.6639 35.3044 22.6639Z" fill="#D1D1D1"/>
<path d="M35.3044 28.5633C34.6993 28.5633 34.2087 28.0731 34.2087 27.4685C34.2087 26.8639 34.6993 26.3738 35.3044 26.3738C35.9095 26.3738 36.4 26.8639 36.4 27.4685C36.4 28.0731 35.9095 28.5633 35.3044 28.5633Z" fill="#D1D1D1"/>
<path d="M35.3044 34.4629C34.6993 34.4629 34.2087 33.9728 34.2087 33.3682C34.2087 32.7636 34.6993 32.2734 35.3044 32.2734C35.9095 32.2734 36.4 32.7636 36.4 33.3682C36.4 33.9728 35.9095 34.4629 35.3044 34.4629Z" fill="#D1D1D1"/>
<path d="M35.3044 40.3624C34.6993 40.3624 34.2087 39.8722 34.2087 39.2676C34.2087 38.663 34.6993 38.1729 35.3044 38.1729C35.9095 38.1729 36.4 38.663 36.4 39.2676C36.4 39.8722 35.9095 40.3624 35.3044 40.3624Z" fill="#D1D1D1"/>
<path d="M35.3044 46.3226C34.6993 46.3226 34.2087 45.8324 34.2087 45.2278C34.2087 44.6232 34.6993 44.1331 35.3044 44.1331C35.9095 44.1331 36.4 44.6232 36.4 45.2278C36.4 45.8324 35.9095 46.3226 35.3044 46.3226Z" fill="#D1D1D1"/>
<path d="M35.3044 52.2222C34.6993 52.2222 34.2087 51.7321 34.2087 51.1275C34.2087 50.5228 34.6993 50.0327 35.3044 50.0327C35.9095 50.0327 36.4 50.5228 36.4 51.1275C36.4 51.7321 35.9095 52.2222 35.3044 52.2222Z" fill="#D1D1D1"/>
<path d="M35.3044 58.1216C34.6993 58.1216 34.2087 57.6315 34.2087 57.0269C34.2087 56.4223 34.6993 55.9321 35.3044 55.9321C35.9095 55.9321 36.4 56.4223 36.4 57.0269C36.4 57.6315 35.9095 58.1216 35.3044 58.1216Z" fill="#D1D1D1"/>
<path d="M35.3044 64.021C34.6993 64.021 34.2087 63.5309 34.2087 62.9263C34.2087 62.3217 34.6993 61.8315 35.3044 61.8315C35.9095 61.8315 36.4 62.3217 36.4 62.9263C36.4 63.5309 35.9095 64.021 35.3044 64.021Z" fill="#D1D1D1"/>
<path d="M46.0783 4.96538C45.4732 4.96538 44.9826 4.47524 44.9826 3.87063C44.9826 3.26602 45.4732 2.77588 46.0783 2.77588C46.6834 2.77588 47.174 3.26602 47.174 3.87063C47.174 4.47524 46.6834 4.96538 46.0783 4.96538Z" fill="#D1D1D1"/>
<path d="M46.0783 10.8648C45.4732 10.8648 44.9826 10.3747 44.9826 9.77004C44.9826 9.16543 45.4732 8.67529 46.0783 8.67529C46.6834 8.67529 47.174 9.16543 47.174 9.77004C47.174 10.3747 46.6834 10.8648 46.0783 10.8648Z" fill="#D1D1D1"/>
<path d="M46.0783 16.7645C45.4732 16.7645 44.9826 16.2743 44.9826 15.6697C44.9826 15.0651 45.4732 14.575 46.0783 14.575C46.6834 14.575 47.174 15.0651 47.174 15.6697C47.174 16.2743 46.6834 16.7645 46.0783 16.7645Z" fill="#D1D1D1"/>
<path d="M46.0783 22.6639C45.4732 22.6639 44.9826 22.1737 44.9826 21.5691C44.9826 20.9645 45.4732 20.4744 46.0783 20.4744C46.6834 20.4744 47.174 20.9645 47.174 21.5691C47.174 22.1737 46.6834 22.6639 46.0783 22.6639Z" fill="#D1D1D1"/>
<path d="M46.0783 28.5633C45.4732 28.5633 44.9826 28.0731 44.9826 27.4685C44.9826 26.8639 45.4732 26.3738 46.0783 26.3738C46.6834 26.3738 47.174 26.8639 47.174 27.4685C47.174 28.0731 46.6834 28.5633 46.0783 28.5633Z" fill="#D1D1D1"/>
<path d="M46.0783 34.4629C45.4732 34.4629 44.9826 33.9728 44.9826 33.3682C44.9826 32.7636 45.4732 32.2734 46.0783 32.2734C46.6834 32.2734 47.174 32.7636 47.174 33.3682C47.174 33.9728 46.6834 34.4629 46.0783 34.4629Z" fill="#D1D1D1"/>
<path d="M46.0783 40.3624C45.4732 40.3624 44.9826 39.8722 44.9826 39.2676C44.9826 38.663 45.4732 38.1729 46.0783 38.1729C46.6834 38.1729 47.174 38.663 47.174 39.2676C47.174 39.8722 46.6834 40.3624 46.0783 40.3624Z" fill="#D1D1D1"/>
<path d="M46.0783 46.3226C45.4732 46.3226 44.9826 45.8324 44.9826 45.2278C44.9826 44.6232 45.4732 44.1331 46.0783 44.1331C46.6834 44.1331 47.174 44.6232 47.174 45.2278C47.174 45.8324 46.6834 46.3226 46.0783 46.3226Z" fill="#D1D1D1"/>
<path d="M46.0783 52.2222C45.4732 52.2222 44.9826 51.7321 44.9826 51.1275C44.9826 50.5228 45.4732 50.0327 46.0783 50.0327C46.6834 50.0327 47.174 50.5228 47.174 51.1275C47.174 51.7321 46.6834 52.2222 46.0783 52.2222Z" fill="#D1D1D1"/>
<path d="M46.0783 58.1216C45.4732 58.1216 44.9826 57.6315 44.9826 57.0269C44.9826 56.4223 45.4732 55.9321 46.0783 55.9321C46.6834 55.9321 47.174 56.4223 47.174 57.0269C47.174 57.6315 46.6834 58.1216 46.0783 58.1216Z" fill="#D1D1D1"/>
<path d="M46.0783 64.021C45.4732 64.021 44.9826 63.5309 44.9826 62.9263C44.9826 62.3217 45.4732 61.8315 46.0783 61.8315C46.6834 61.8315 47.174 62.3217 47.174 62.9263C47.174 63.5309 46.6834 64.021 46.0783 64.021Z" fill="#D1D1D1"/>
</g>
<g opacity="0.7">
<path d="M13.6956 71.5147C13.0905 71.5147 12.5999 71.0246 12.5999 70.4199C12.5999 69.8153 13.0905 69.3252 13.6956 69.3252C14.3007 69.3252 14.7913 69.8153 14.7913 70.4199C14.7913 71.0246 14.3007 71.5147 13.6956 71.5147Z" fill="#D1D1D1"/>
<path d="M13.6956 77.4141C13.0905 77.4141 12.5999 76.924 12.5999 76.3194C12.5999 75.7147 13.0905 75.2246 13.6956 75.2246C14.3007 75.2246 14.7913 75.7147 14.7913 76.3194C14.7913 76.924 14.3007 77.4141 13.6956 77.4141Z" fill="#D1D1D1"/>
<path d="M13.6956 83.3138C13.0905 83.3138 12.5999 82.8236 12.5999 82.219C12.5999 81.6144 13.0905 81.1243 13.6956 81.1243C14.3007 81.1243 14.7913 81.6144 14.7913 82.219C14.7913 82.8236 14.3007 83.3138 13.6956 83.3138Z" fill="#D1D1D1"/>
<path d="M13.6956 89.2132C13.0905 89.2132 12.5999 88.723 12.5999 88.1184C12.5999 87.5138 13.0905 87.0237 13.6956 87.0237C14.3007 87.0237 14.7913 87.5138 14.7913 88.1184C14.7913 88.723 14.3007 89.2132 13.6956 89.2132Z" fill="#D1D1D1"/>
<path d="M13.6956 95.1126C13.0905 95.1126 12.5999 94.6225 12.5999 94.0178C12.5999 93.4132 13.0905 92.9231 13.6956 92.9231C14.3007 92.9231 14.7913 93.4132 14.7913 94.0178C14.7913 94.6225 14.3007 95.1126 13.6956 95.1126Z" fill="#D1D1D1"/>
<path d="M13.6956 101.012C13.0905 101.012 12.5999 100.522 12.5999 99.9175C12.5999 99.3129 13.0905 98.8228 13.6956 98.8228C14.3007 98.8228 14.7913 99.3129 14.7913 99.9175C14.7913 100.522 14.3007 101.012 13.6956 101.012Z" fill="#D1D1D1"/>
<path d="M13.6956 106.912C13.0905 106.912 12.5999 106.422 12.5999 105.817C12.5999 105.212 13.0905 104.722 13.6956 104.722C14.3007 104.722 14.7913 105.212 14.7913 105.817C14.7913 106.422 14.3007 106.912 13.6956 106.912Z" fill="#D1D1D1"/>
<path d="M13.6956 112.872C13.0905 112.872 12.5999 112.382 12.5999 111.777C12.5999 111.173 13.0905 110.682 13.6956 110.682C14.3007 110.682 14.7913 111.173 14.7913 111.777C14.7913 112.382 14.3007 112.872 13.6956 112.872Z" fill="#D1D1D1"/>
<path d="M13.6956 118.772C13.0905 118.772 12.5999 118.281 12.5999 117.677C12.5999 117.072 13.0905 116.582 13.6956 116.582C14.3007 116.582 14.7913 117.072 14.7913 117.677C14.7913 118.281 14.3007 118.772 13.6956 118.772Z" fill="#D1D1D1"/>
<path d="M13.6956 124.671C13.0905 124.671 12.5999 124.181 12.5999 123.576C12.5999 122.972 13.0905 122.481 13.6956 122.481C14.3007 122.481 14.7913 122.972 14.7913 123.576C14.7913 124.181 14.3007 124.671 13.6956 124.671Z" fill="#D1D1D1"/>
<path d="M13.6956 130.57C13.0905 130.57 12.5999 130.08 12.5999 129.476C12.5999 128.871 13.0905 128.381 13.6956 128.381C14.3007 128.381 14.7913 128.871 14.7913 129.476C14.7913 130.08 14.3007 130.57 13.6956 130.57Z" fill="#D1D1D1"/>
<path d="M24.4695 71.5147C23.8644 71.5147 23.3739 71.0246 23.3739 70.4199C23.3739 69.8153 23.8644 69.3252 24.4695 69.3252C25.0746 69.3252 25.5652 69.8153 25.5652 70.4199C25.5652 71.0246 25.0746 71.5147 24.4695 71.5147Z" fill="#D1D1D1"/>
<path d="M24.4695 77.4141C23.8644 77.4141 23.3739 76.924 23.3739 76.3194C23.3739 75.7147 23.8644 75.2246 24.4695 75.2246C25.0746 75.2246 25.5652 75.7147 25.5652 76.3194C25.5652 76.924 25.0746 77.4141 24.4695 77.4141Z" fill="#D1D1D1"/>
<path d="M24.4695 83.3138C23.8644 83.3138 23.3739 82.8236 23.3739 82.219C23.3739 81.6144 23.8644 81.1243 24.4695 81.1243C25.0746 81.1243 25.5652 81.6144 25.5652 82.219C25.5652 82.8236 25.0746 83.3138 24.4695 83.3138Z" fill="#D1D1D1"/>
<path d="M24.4695 89.2132C23.8644 89.2132 23.3739 88.723 23.3739 88.1184C23.3739 87.5138 23.8644 87.0237 24.4695 87.0237C25.0746 87.0237 25.5652 87.5138 25.5652 88.1184C25.5652 88.723 25.0746 89.2132 24.4695 89.2132Z" fill="#D1D1D1"/>
<path d="M24.4695 95.1126C23.8644 95.1126 23.3739 94.6225 23.3739 94.0178C23.3739 93.4132 23.8644 92.9231 24.4695 92.9231C25.0746 92.9231 25.5652 93.4132 25.5652 94.0178C25.5652 94.6225 25.0746 95.1126 24.4695 95.1126Z" fill="#D1D1D1"/>
<path d="M24.4695 101.012C23.8644 101.012 23.3739 100.522 23.3739 99.9175C23.3739 99.3129 23.8644 98.8228 24.4695 98.8228C25.0746 98.8228 25.5652 99.3129 25.5652 99.9175C25.5652 100.522 25.0746 101.012 24.4695 101.012Z" fill="#D1D1D1"/>
<path d="M24.4695 106.912C23.8644 106.912 23.3739 106.422 23.3739 105.817C23.3739 105.212 23.8644 104.722 24.4695 104.722C25.0746 104.722 25.5652 105.212 25.5652 105.817C25.5652 106.422 25.0746 106.912 24.4695 106.912Z" fill="#D1D1D1"/>
<path d="M24.4695 112.872C23.8644 112.872 23.3739 112.382 23.3739 111.777C23.3739 111.173 23.8644 110.682 24.4695 110.682C25.0746 110.682 25.5652 111.173 25.5652 111.777C25.5652 112.382 25.0746 112.872 24.4695 112.872Z" fill="#D1D1D1"/>
<path d="M24.4695 118.772C23.8644 118.772 23.3739 118.281 23.3739 117.677C23.3739 117.072 23.8644 116.582 24.4695 116.582C25.0746 116.582 25.5652 117.072 25.5652 117.677C25.5652 118.281 25.0746 118.772 24.4695 118.772Z" fill="#D1D1D1"/>
<path d="M24.4695 124.671C23.8644 124.671 23.3739 124.181 23.3739 123.576C23.3739 122.972 23.8644 122.481 24.4695 122.481C25.0746 122.481 25.5652 122.972 25.5652 123.576C25.5652 124.181 25.0746 124.671 24.4695 124.671Z" fill="#D1D1D1"/>
<path d="M24.4695 130.57C23.8644 130.57 23.3739 130.08 23.3739 129.476C23.3739 128.871 23.8644 128.381 24.4695 128.381C25.0746 128.381 25.5652 128.871 25.5652 129.476C25.5652 130.08 25.0746 130.57 24.4695 130.57Z" fill="#D1D1D1"/>
<path d="M2.92169 71.5147C2.31658 71.5147 1.82603 71.0246 1.82603 70.4199C1.82603 69.8153 2.31658 69.3252 2.92169 69.3252C3.5268 69.3252 4.01733 69.8153 4.01733 70.4199C4.01733 71.0246 3.5268 71.5147 2.92169 71.5147Z" fill="#D1D1D1"/>
<path d="M2.92169 77.4141C2.31658 77.4141 1.82603 76.924 1.82603 76.3194C1.82603 75.7147 2.31658 75.2246 2.92169 75.2246C3.5268 75.2246 4.01733 75.7147 4.01733 76.3194C4.01733 76.924 3.5268 77.4141 2.92169 77.4141Z" fill="#D1D1D1"/>
<path d="M2.92169 83.3138C2.31658 83.3138 1.82603 82.8236 1.82603 82.219C1.82603 81.6144 2.31658 81.1243 2.92169 81.1243C3.5268 81.1243 4.01733 81.6144 4.01733 82.219C4.01733 82.8236 3.5268 83.3138 2.92169 83.3138Z" fill="#D1D1D1"/>
<path d="M2.92169 89.2132C2.31658 89.2132 1.82603 88.723 1.82603 88.1184C1.82603 87.5138 2.31658 87.0237 2.92169 87.0237C3.5268 87.0237 4.01733 87.5138 4.01733 88.1184C4.01733 88.723 3.5268 89.2132 2.92169 89.2132Z" fill="#D1D1D1"/>
<path d="M2.92169 95.1126C2.31658 95.1126 1.82603 94.6225 1.82603 94.0178C1.82603 93.4132 2.31658 92.9231 2.92169 92.9231C3.5268 92.9231 4.01733 93.4132 4.01733 94.0178C4.01733 94.6225 3.5268 95.1126 2.92169 95.1126Z" fill="#D1D1D1"/>
<path d="M2.92169 101.012C2.31658 101.012 1.82603 100.522 1.82603 99.9175C1.82603 99.3129 2.31658 98.8228 2.92169 98.8228C3.5268 98.8228 4.01733 99.3129 4.01733 99.9175C4.01733 100.522 3.5268 101.012 2.92169 101.012Z" fill="#D1D1D1"/>
<path d="M2.92169 106.912C2.31658 106.912 1.82603 106.422 1.82603 105.817C1.82603 105.212 2.31658 104.722 2.92169 104.722C3.5268 104.722 4.01733 105.212 4.01733 105.817C4.01733 106.422 3.5268 106.912 2.92169 106.912Z" fill="#D1D1D1"/>
<path d="M2.92169 112.872C2.31658 112.872 1.82603 112.382 1.82603 111.777C1.82603 111.173 2.31658 110.682 2.92169 110.682C3.5268 110.682 4.01733 111.173 4.01733 111.777C4.01733 112.382 3.5268 112.872 2.92169 112.872Z" fill="#D1D1D1"/>
<path d="M2.92169 118.772C2.31658 118.772 1.82603 118.281 1.82603 117.677C1.82603 117.072 2.31658 116.582 2.92169 116.582C3.5268 116.582 4.01733 117.072 4.01733 117.677C4.01733 118.281 3.5268 118.772 2.92169 118.772Z" fill="#D1D1D1"/>
<path d="M2.92169 124.671C2.31658 124.671 1.82603 124.181 1.82603 123.576C1.82603 122.972 2.31658 122.481 2.92169 122.481C3.5268 122.481 4.01733 122.972 4.01733 123.576C4.01733 124.181 3.5268 124.671 2.92169 124.671Z" fill="#D1D1D1"/>
<path d="M2.92169 130.57C2.31658 130.57 1.82603 130.08 1.82603 129.476C1.82603 128.871 2.31658 128.381 2.92169 128.381C3.5268 128.381 4.01733 128.871 4.01733 129.476C4.01733 130.08 3.5268 130.57 2.92169 130.57Z" fill="#D1D1D1"/>
<path d="M35.3044 71.5147C34.6993 71.5147 34.2087 71.0246 34.2087 70.4199C34.2087 69.8153 34.6993 69.3252 35.3044 69.3252C35.9095 69.3252 36.4 69.8153 36.4 70.4199C36.4 71.0246 35.9095 71.5147 35.3044 71.5147Z" fill="#D1D1D1"/>
<path d="M35.3044 77.4141C34.6993 77.4141 34.2087 76.924 34.2087 76.3194C34.2087 75.7147 34.6993 75.2246 35.3044 75.2246C35.9095 75.2246 36.4 75.7147 36.4 76.3194C36.4 76.924 35.9095 77.4141 35.3044 77.4141Z" fill="#D1D1D1"/>
<path d="M35.3044 83.3138C34.6993 83.3138 34.2087 82.8236 34.2087 82.219C34.2087 81.6144 34.6993 81.1243 35.3044 81.1243C35.9095 81.1243 36.4 81.6144 36.4 82.219C36.4 82.8236 35.9095 83.3138 35.3044 83.3138Z" fill="#D1D1D1"/>
<path d="M35.3044 89.2132C34.6993 89.2132 34.2087 88.723 34.2087 88.1184C34.2087 87.5138 34.6993 87.0237 35.3044 87.0237C35.9095 87.0237 36.4 87.5138 36.4 88.1184C36.4 88.723 35.9095 89.2132 35.3044 89.2132Z" fill="#D1D1D1"/>
<path d="M35.3044 95.1126C34.6993 95.1126 34.2087 94.6225 34.2087 94.0178C34.2087 93.4132 34.6993 92.9231 35.3044 92.9231C35.9095 92.9231 36.4 93.4132 36.4 94.0178C36.4 94.6225 35.9095 95.1126 35.3044 95.1126Z" fill="#D1D1D1"/>
<path d="M35.3044 101.012C34.6993 101.012 34.2087 100.522 34.2087 99.9175C34.2087 99.3129 34.6993 98.8228 35.3044 98.8228C35.9095 98.8228 36.4 99.3129 36.4 99.9175C36.4 100.522 35.9095 101.012 35.3044 101.012Z" fill="#D1D1D1"/>
<path d="M35.3044 106.912C34.6993 106.912 34.2087 106.422 34.2087 105.817C34.2087 105.212 34.6993 104.722 35.3044 104.722C35.9095 104.722 36.4 105.212 36.4 105.817C36.4 106.422 35.9095 106.912 35.3044 106.912Z" fill="#D1D1D1"/>
<path d="M35.3044 112.872C34.6993 112.872 34.2087 112.382 34.2087 111.777C34.2087 111.173 34.6993 110.682 35.3044 110.682C35.9095 110.682 36.4 111.173 36.4 111.777C36.4 112.382 35.9095 112.872 35.3044 112.872Z" fill="#D1D1D1"/>
<path d="M35.3044 118.772C34.6993 118.772 34.2087 118.281 34.2087 117.677C34.2087 117.072 34.6993 116.582 35.3044 116.582C35.9095 116.582 36.4 117.072 36.4 117.677C36.4 118.281 35.9095 118.772 35.3044 118.772Z" fill="#D1D1D1"/>
<path d="M35.3044 124.671C34.6993 124.671 34.2087 124.181 34.2087 123.576C34.2087 122.972 34.6993 122.481 35.3044 122.481C35.9095 122.481 36.4 122.972 36.4 123.576C36.4 124.181 35.9095 124.671 35.3044 124.671Z" fill="#D1D1D1"/>
<path d="M35.3044 130.57C34.6993 130.57 34.2087 130.08 34.2087 129.476C34.2087 128.871 34.6993 128.381 35.3044 128.381C35.9095 128.381 36.4 128.871 36.4 129.476C36.4 130.08 35.9095 130.57 35.3044 130.57Z" fill="#D1D1D1"/>
<path d="M46.0783 71.5147C45.4732 71.5147 44.9826 71.0246 44.9826 70.4199C44.9826 69.8153 45.4732 69.3252 46.0783 69.3252C46.6834 69.3252 47.174 69.8153 47.174 70.4199C47.174 71.0246 46.6834 71.5147 46.0783 71.5147Z" fill="#D1D1D1"/>
<path d="M46.0783 77.4141C45.4732 77.4141 44.9826 76.924 44.9826 76.3194C44.9826 75.7147 45.4732 75.2246 46.0783 75.2246C46.6834 75.2246 47.174 75.7147 47.174 76.3194C47.174 76.924 46.6834 77.4141 46.0783 77.4141Z" fill="#D1D1D1"/>
<path d="M46.0783 83.3138C45.4732 83.3138 44.9826 82.8236 44.9826 82.219C44.9826 81.6144 45.4732 81.1243 46.0783 81.1243C46.6834 81.1243 47.174 81.6144 47.174 82.219C47.174 82.8236 46.6834 83.3138 46.0783 83.3138Z" fill="#D1D1D1"/>
<path d="M46.0783 89.2132C45.4732 89.2132 44.9826 88.723 44.9826 88.1184C44.9826 87.5138 45.4732 87.0237 46.0783 87.0237C46.6834 87.0237 47.174 87.5138 47.174 88.1184C47.174 88.723 46.6834 89.2132 46.0783 89.2132Z" fill="#D1D1D1"/>
<path d="M46.0783 95.1126C45.4732 95.1126 44.9826 94.6225 44.9826 94.0178C44.9826 93.4132 45.4732 92.9231 46.0783 92.9231C46.6834 92.9231 47.174 93.4132 47.174 94.0178C47.174 94.6225 46.6834 95.1126 46.0783 95.1126Z" fill="#D1D1D1"/>
<path d="M46.0783 101.012C45.4732 101.012 44.9826 100.522 44.9826 99.9175C44.9826 99.3129 45.4732 98.8228 46.0783 98.8228C46.6834 98.8228 47.174 99.3129 47.174 99.9175C47.174 100.522 46.6834 101.012 46.0783 101.012Z" fill="#D1D1D1"/>
<path d="M46.0783 106.912C45.4732 106.912 44.9826 106.422 44.9826 105.817C44.9826 105.212 45.4732 104.722 46.0783 104.722C46.6834 104.722 47.174 105.212 47.174 105.817C47.174 106.422 46.6834 106.912 46.0783 106.912Z" fill="#D1D1D1"/>
<path d="M46.0783 112.872C45.4732 112.872 44.9826 112.382 44.9826 111.777C44.9826 111.173 45.4732 110.682 46.0783 110.682C46.6834 110.682 47.174 111.173 47.174 111.777C47.174 112.382 46.6834 112.872 46.0783 112.872Z" fill="#D1D1D1"/>
<path d="M46.0783 118.772C45.4732 118.772 44.9826 118.281 44.9826 117.677C44.9826 117.072 45.4732 116.582 46.0783 116.582C46.6834 116.582 47.174 117.072 47.174 117.677C47.174 118.281 46.6834 118.772 46.0783 118.772Z" fill="#D1D1D1"/>
<path d="M46.0783 124.671C45.4732 124.671 44.9826 124.181 44.9826 123.576C44.9826 122.972 45.4732 122.481 46.0783 122.481C46.6834 122.481 47.174 122.972 47.174 123.576C47.174 124.181 46.6834 124.671 46.0783 124.671Z" fill="#D1D1D1"/>
<path d="M46.0783 130.57C45.4732 130.57 44.9826 130.08 44.9826 129.476C44.9826 128.871 45.4732 128.381 46.0783 128.381C46.6834 128.381 47.174 128.871 47.174 129.476C47.174 130.08 46.6834 130.57 46.0783 130.57Z" fill="#D1D1D1"/>
</g>
<g opacity="0.7">
<path d="M13.6956 138.557C13.0905 138.557 12.5999 138.067 12.5999 137.462C12.5999 136.858 13.0905 136.367 13.6956 136.367C14.3007 136.367 14.7913 136.858 14.7913 137.462C14.7913 138.067 14.3007 138.557 13.6956 138.557Z" fill="#D1D1D1"/>
<path d="M13.6956 144.456C13.0905 144.456 12.5999 143.966 12.5999 143.362C12.5999 142.757 13.0905 142.267 13.6956 142.267C14.3007 142.267 14.7913 142.757 14.7913 143.362C14.7913 143.966 14.3007 144.456 13.6956 144.456Z" fill="#D1D1D1"/>
<path d="M13.6956 150.356C13.0905 150.356 12.5999 149.866 12.5999 149.261C12.5999 148.657 13.0905 148.167 13.6956 148.167C14.3007 148.167 14.7913 148.657 14.7913 149.261C14.7913 149.866 14.3007 150.356 13.6956 150.356Z" fill="#D1D1D1"/>
<path d="M13.6956 156.255C13.0905 156.255 12.5999 155.765 12.5999 155.161C12.5999 154.556 13.0905 154.066 13.6956 154.066C14.3007 154.066 14.7913 154.556 14.7913 155.161C14.7913 155.765 14.3007 156.255 13.6956 156.255Z" fill="#D1D1D1"/>
<path d="M13.6956 162.155C13.0905 162.155 12.5999 161.665 12.5999 161.06C12.5999 160.455 13.0905 159.965 13.6956 159.965C14.3007 159.965 14.7913 160.455 14.7913 161.06C14.7913 161.665 14.3007 162.155 13.6956 162.155Z" fill="#D1D1D1"/>
<path d="M13.6956 168.054C13.0905 168.054 12.5999 167.564 12.5999 166.959C12.5999 166.355 13.0905 165.865 13.6956 165.865C14.3007 165.865 14.7913 166.355 14.7913 166.959C14.7913 167.564 14.3007 168.054 13.6956 168.054Z" fill="#D1D1D1"/>
<path d="M13.6956 173.954C13.0905 173.954 12.5999 173.464 12.5999 172.859C12.5999 172.255 13.0905 171.764 13.6956 171.764C14.3007 171.764 14.7913 172.255 14.7913 172.859C14.7913 173.464 14.3007 173.954 13.6956 173.954Z" fill="#D1D1D1"/>
<path d="M13.6956 179.914C13.0905 179.914 12.5999 179.424 12.5999 178.819C12.5999 178.215 13.0905 177.725 13.6956 177.725C14.3007 177.725 14.7913 178.215 14.7913 178.819C14.7913 179.424 14.3007 179.914 13.6956 179.914Z" fill="#D1D1D1"/>
<path d="M13.6956 185.814C13.0905 185.814 12.5999 185.324 12.5999 184.719C12.5999 184.114 13.0905 183.624 13.6956 183.624C14.3007 183.624 14.7913 184.114 14.7913 184.719C14.7913 185.324 14.3007 185.814 13.6956 185.814Z" fill="#D1D1D1"/>
<path d="M13.6956 191.713C13.0905 191.713 12.5999 191.223 12.5999 190.618C12.5999 190.014 13.0905 189.524 13.6956 189.524C14.3007 189.524 14.7913 190.014 14.7913 190.618C14.7913 191.223 14.3007 191.713 13.6956 191.713Z" fill="#D1D1D1"/>
<path d="M13.6956 197.613C13.0905 197.613 12.5999 197.122 12.5999 196.518C12.5999 195.913 13.0905 195.423 13.6956 195.423C14.3007 195.423 14.7913 195.913 14.7913 196.518C14.7913 197.122 14.3007 197.613 13.6956 197.613Z" fill="#D1D1D1"/>
<path d="M24.4695 138.557C23.8644 138.557 23.3739 138.067 23.3739 137.462C23.3739 136.858 23.8644 136.367 24.4695 136.367C25.0746 136.367 25.5652 136.858 25.5652 137.462C25.5652 138.067 25.0746 138.557 24.4695 138.557Z" fill="#D1D1D1"/>
<path d="M24.4695 144.456C23.8644 144.456 23.3739 143.966 23.3739 143.362C23.3739 142.757 23.8644 142.267 24.4695 142.267C25.0746 142.267 25.5652 142.757 25.5652 143.362C25.5652 143.966 25.0746 144.456 24.4695 144.456Z" fill="#D1D1D1"/>
<path d="M24.4695 150.356C23.8644 150.356 23.3739 149.866 23.3739 149.261C23.3739 148.657 23.8644 148.167 24.4695 148.167C25.0746 148.167 25.5652 148.657 25.5652 149.261C25.5652 149.866 25.0746 150.356 24.4695 150.356Z" fill="#D1D1D1"/>
<path d="M24.4695 156.255C23.8644 156.255 23.3739 155.765 23.3739 155.161C23.3739 154.556 23.8644 154.066 24.4695 154.066C25.0746 154.066 25.5652 154.556 25.5652 155.161C25.5652 155.765 25.0746 156.255 24.4695 156.255Z" fill="#D1D1D1"/>
<path d="M24.4695 162.155C23.8644 162.155 23.3739 161.665 23.3739 161.06C23.3739 160.455 23.8644 159.965 24.4695 159.965C25.0746 159.965 25.5652 160.455 25.5652 161.06C25.5652 161.665 25.0746 162.155 24.4695 162.155Z" fill="#D1D1D1"/>
<path d="M24.4695 168.054C23.8644 168.054 23.3739 167.564 23.3739 166.959C23.3739 166.355 23.8644 165.865 24.4695 165.865C25.0746 165.865 25.5652 166.355 25.5652 166.959C25.5652 167.564 25.0746 168.054 24.4695 168.054Z" fill="#D1D1D1"/>
<path d="M24.4695 173.954C23.8644 173.954 23.3739 173.464 23.3739 172.859C23.3739 172.255 23.8644 171.764 24.4695 171.764C25.0746 171.764 25.5652 172.255 25.5652 172.859C25.5652 173.464 25.0746 173.954 24.4695 173.954Z" fill="#D1D1D1"/>
<path d="M24.4695 179.914C23.8644 179.914 23.3739 179.424 23.3739 178.819C23.3739 178.215 23.8644 177.725 24.4695 177.725C25.0746 177.725 25.5652 178.215 25.5652 178.819C25.5652 179.424 25.0746 179.914 24.4695 179.914Z" fill="#D1D1D1"/>
<path d="M24.4695 185.814C23.8644 185.814 23.3739 185.324 23.3739 184.719C23.3739 184.114 23.8644 183.624 24.4695 183.624C25.0746 183.624 25.5652 184.114 25.5652 184.719C25.5652 185.324 25.0746 185.814 24.4695 185.814Z" fill="#D1D1D1"/>
<path d="M24.4695 191.713C23.8644 191.713 23.3739 191.223 23.3739 190.618C23.3739 190.014 23.8644 189.524 24.4695 189.524C25.0746 189.524 25.5652 190.014 25.5652 190.618C25.5652 191.223 25.0746 191.713 24.4695 191.713Z" fill="#D1D1D1"/>
<path d="M24.4695 197.613C23.8644 197.613 23.3739 197.122 23.3739 196.518C23.3739 195.913 23.8644 195.423 24.4695 195.423C25.0746 195.423 25.5652 195.913 25.5652 196.518C25.5652 197.122 25.0746 197.613 24.4695 197.613Z" fill="#D1D1D1"/>
<path d="M2.92169 138.557C2.31658 138.557 1.82603 138.067 1.82603 137.462C1.82603 136.858 2.31658 136.367 2.92169 136.367C3.5268 136.367 4.01733 136.858 4.01733 137.462C4.01733 138.067 3.5268 138.557 2.92169 138.557Z" fill="#D1D1D1"/>
<path d="M2.92169 144.456C2.31658 144.456 1.82603 143.966 1.82603 143.362C1.82603 142.757 2.31658 142.267 2.92169 142.267C3.5268 142.267 4.01733 142.757 4.01733 143.362C4.01733 143.966 3.5268 144.456 2.92169 144.456Z" fill="#D1D1D1"/>
<path d="M2.92169 150.356C2.31658 150.356 1.82603 149.866 1.82603 149.261C1.82603 148.657 2.31658 148.167 2.92169 148.167C3.5268 148.167 4.01733 148.657 4.01733 149.261C4.01733 149.866 3.5268 150.356 2.92169 150.356Z" fill="#D1D1D1"/>
<path d="M2.92169 156.255C2.31658 156.255 1.82603 155.765 1.82603 155.161C1.82603 154.556 2.31658 154.066 2.92169 154.066C3.5268 154.066 4.01733 154.556 4.01733 155.161C4.01733 155.765 3.5268 156.255 2.92169 156.255Z" fill="#D1D1D1"/>
<path d="M2.92169 162.155C2.31658 162.155 1.82603 161.665 1.82603 161.06C1.82603 160.455 2.31658 159.965 2.92169 159.965C3.5268 159.965 4.01733 160.455 4.01733 161.06C4.01733 161.665 3.5268 162.155 2.92169 162.155Z" fill="#D1D1D1"/>
<path d="M2.92169 168.054C2.31658 168.054 1.82603 167.564 1.82603 166.959C1.82603 166.355 2.31658 165.865 2.92169 165.865C3.5268 165.865 4.01733 166.355 4.01733 166.959C4.01733 167.564 3.5268 168.054 2.92169 168.054Z" fill="#D1D1D1"/>
<path d="M2.92169 173.954C2.31658 173.954 1.82603 173.464 1.82603 172.859C1.82603 172.255 2.31658 171.764 2.92169 171.764C3.5268 171.764 4.01733 172.255 4.01733 172.859C4.01733 173.464 3.5268 173.954 2.92169 173.954Z" fill="#D1D1D1"/>
<path d="M2.92169 179.914C2.31658 179.914 1.82603 179.424 1.82603 178.819C1.82603 178.215 2.31658 177.725 2.92169 177.725C3.5268 177.725 4.01733 178.215 4.01733 178.819C4.01733 179.424 3.5268 179.914 2.92169 179.914Z" fill="#D1D1D1"/>
<path d="M2.92169 185.814C2.31658 185.814 1.82603 185.324 1.82603 184.719C1.82603 184.114 2.31658 183.624 2.92169 183.624C3.5268 183.624 4.01733 184.114 4.01733 184.719C4.01733 185.324 3.5268 185.814 2.92169 185.814Z" fill="#D1D1D1"/>
<path d="M2.92169 191.713C2.31658 191.713 1.82603 191.223 1.82603 190.618C1.82603 190.014 2.31658 189.524 2.92169 189.524C3.5268 189.524 4.01733 190.014 4.01733 190.618C4.01733 191.223 3.5268 191.713 2.92169 191.713Z" fill="#D1D1D1"/>
<path d="M2.92169 197.613C2.31658 197.613 1.82603 197.122 1.82603 196.518C1.82603 195.913 2.31658 195.423 2.92169 195.423C3.5268 195.423 4.01733 195.913 4.01733 196.518C4.01733 197.122 3.5268 197.613 2.92169 197.613Z" fill="#D1D1D1"/>
<path d="M35.3044 138.557C34.6993 138.557 34.2087 138.067 34.2087 137.462C34.2087 136.858 34.6993 136.367 35.3044 136.367C35.9095 136.367 36.4 136.858 36.4 137.462C36.4 138.067 35.9095 138.557 35.3044 138.557Z" fill="#D1D1D1"/>
<path d="M35.3044 144.456C34.6993 144.456 34.2087 143.966 34.2087 143.362C34.2087 142.757 34.6993 142.267 35.3044 142.267C35.9095 142.267 36.4 142.757 36.4 143.362C36.4 143.966 35.9095 144.456 35.3044 144.456Z" fill="#D1D1D1"/>
<path d="M35.3044 150.356C34.6993 150.356 34.2087 149.866 34.2087 149.261C34.2087 148.657 34.6993 148.167 35.3044 148.167C35.9095 148.167 36.4 148.657 36.4 149.261C36.4 149.866 35.9095 150.356 35.3044 150.356Z" fill="#D1D1D1"/>
<path d="M35.3044 156.255C34.6993 156.255 34.2087 155.765 34.2087 155.161C34.2087 154.556 34.6993 154.066 35.3044 154.066C35.9095 154.066 36.4 154.556 36.4 155.161C36.4 155.765 35.9095 156.255 35.3044 156.255Z" fill="#D1D1D1"/>
<path d="M35.3044 162.155C34.6993 162.155 34.2087 161.665 34.2087 161.06C34.2087 160.455 34.6993 159.965 35.3044 159.965C35.9095 159.965 36.4 160.455 36.4 161.06C36.4 161.665 35.9095 162.155 35.3044 162.155Z" fill="#D1D1D1"/>
<path d="M35.3044 168.054C34.6993 168.054 34.2087 167.564 34.2087 166.959C34.2087 166.355 34.6993 165.865 35.3044 165.865C35.9095 165.865 36.4 166.355 36.4 166.959C36.4 167.564 35.9095 168.054 35.3044 168.054Z" fill="#D1D1D1"/>
<path d="M35.3044 173.954C34.6993 173.954 34.2087 173.464 34.2087 172.859C34.2087 172.255 34.6993 171.764 35.3044 171.764C35.9095 171.764 36.4 172.255 36.4 172.859C36.4 173.464 35.9095 173.954 35.3044 173.954Z" fill="#D1D1D1"/>
<path d="M35.3044 179.914C34.6993 179.914 34.2087 179.424 34.2087 178.819C34.2087 178.215 34.6993 177.725 35.3044 177.725C35.9095 177.725 36.4 178.215 36.4 178.819C36.4 179.424 35.9095 179.914 35.3044 179.914Z" fill="#D1D1D1"/>
<path d="M35.3044 185.814C34.6993 185.814 34.2087 185.324 34.2087 184.719C34.2087 184.114 34.6993 183.624 35.3044 183.624C35.9095 183.624 36.4 184.114 36.4 184.719C36.4 185.324 35.9095 185.814 35.3044 185.814Z" fill="#D1D1D1"/>
<path d="M35.3044 191.713C34.6993 191.713 34.2087 191.223 34.2087 190.618C34.2087 190.014 34.6993 189.524 35.3044 189.524C35.9095 189.524 36.4 190.014 36.4 190.618C36.4 191.223 35.9095 191.713 35.3044 191.713Z" fill="#D1D1D1"/>
<path d="M35.3044 197.613C34.6993 197.613 34.2087 197.122 34.2087 196.518C34.2087 195.913 34.6993 195.423 35.3044 195.423C35.9095 195.423 36.4 195.913 36.4 196.518C36.4 197.122 35.9095 197.613 35.3044 197.613Z" fill="#D1D1D1"/>
<path d="M46.0783 138.557C45.4732 138.557 44.9826 138.067 44.9826 137.462C44.9826 136.858 45.4732 136.367 46.0783 136.367C46.6834 136.367 47.174 136.858 47.174 137.462C47.174 138.067 46.6834 138.557 46.0783 138.557Z" fill="#D1D1D1"/>
<path d="M46.0783 144.456C45.4732 144.456 44.9826 143.966 44.9826 143.362C44.9826 142.757 45.4732 142.267 46.0783 142.267C46.6834 142.267 47.174 142.757 47.174 143.362C47.174 143.966 46.6834 144.456 46.0783 144.456Z" fill="#D1D1D1"/>
<path d="M46.0783 150.356C45.4732 150.356 44.9826 149.866 44.9826 149.261C44.9826 148.657 45.4732 148.167 46.0783 148.167C46.6834 148.167 47.174 148.657 47.174 149.261C47.174 149.866 46.6834 150.356 46.0783 150.356Z" fill="#D1D1D1"/>
<path d="M46.0783 156.255C45.4732 156.255 44.9826 155.765 44.9826 155.161C44.9826 154.556 45.4732 154.066 46.0783 154.066C46.6834 154.066 47.174 154.556 47.174 155.161C47.174 155.765 46.6834 156.255 46.0783 156.255Z" fill="#D1D1D1"/>
<path d="M46.0783 162.155C45.4732 162.155 44.9826 161.665 44.9826 161.06C44.9826 160.455 45.4732 159.965 46.0783 159.965C46.6834 159.965 47.174 160.455 47.174 161.06C47.174 161.665 46.6834 162.155 46.0783 162.155Z" fill="#D1D1D1"/>
<path d="M46.0783 168.054C45.4732 168.054 44.9826 167.564 44.9826 166.959C44.9826 166.355 45.4732 165.865 46.0783 165.865C46.6834 165.865 47.174 166.355 47.174 166.959C47.174 167.564 46.6834 168.054 46.0783 168.054Z" fill="#D1D1D1"/>
<path d="M46.0783 173.954C45.4732 173.954 44.9826 173.464 44.9826 172.859C44.9826 172.255 45.4732 171.764 46.0783 171.764C46.6834 171.764 47.174 172.255 47.174 172.859C47.174 173.464 46.6834 173.954 46.0783 173.954Z" fill="#D1D1D1"/>
<path d="M46.0783 179.914C45.4732 179.914 44.9826 179.424 44.9826 178.819C44.9826 178.215 45.4732 177.725 46.0783 177.725C46.6834 177.725 47.174 178.215 47.174 178.819C47.174 179.424 46.6834 179.914 46.0783 179.914Z" fill="#D1D1D1"/>
<path d="M46.0783 185.814C45.4732 185.814 44.9826 185.324 44.9826 184.719C44.9826 184.114 45.4732 183.624 46.0783 183.624C46.6834 183.624 47.174 184.114 47.174 184.719C47.174 185.324 46.6834 185.814 46.0783 185.814Z" fill="#D1D1D1"/>
<path d="M46.0783 191.713C45.4732 191.713 44.9826 191.223 44.9826 190.618C44.9826 190.014 45.4732 189.524 46.0783 189.524C46.6834 189.524 47.174 190.014 47.174 190.618C47.174 191.223 46.6834 191.713 46.0783 191.713Z" fill="#D1D1D1"/>
<path d="M46.0783 197.613C45.4732 197.613 44.9826 197.122 44.9826 196.518C44.9826 195.913 45.4732 195.423 46.0783 195.423C46.6834 195.423 47.174 195.913 47.174 196.518C47.174 197.122 46.6834 197.613 46.0783 197.613Z" fill="#D1D1D1"/>
</g>
<g opacity="0.7">
<path d="M13.6956 206.092C13.0905 206.092 12.5999 205.602 12.5999 204.997C12.5999 204.393 13.0905 203.903 13.6956 203.903C14.3007 203.903 14.7913 204.393 14.7913 204.997C14.7913 205.602 14.3007 206.092 13.6956 206.092Z" fill="#D1D1D1"/>
<path d="M13.6956 211.992C13.0905 211.992 12.5999 211.501 12.5999 210.897C12.5999 210.292 13.0905 209.802 13.6956 209.802C14.3007 209.802 14.7913 210.292 14.7913 210.897C14.7913 211.501 14.3007 211.992 13.6956 211.992Z" fill="#D1D1D1"/>
<path d="M13.6956 217.891C13.0905 217.891 12.5999 217.401 12.5999 216.796C12.5999 216.192 13.0905 215.702 13.6956 215.702C14.3007 215.702 14.7913 216.192 14.7913 216.796C14.7913 217.401 14.3007 217.891 13.6956 217.891Z" fill="#D1D1D1"/>
<path d="M13.6956 223.791C13.0905 223.791 12.5999 223.3 12.5999 222.696C12.5999 222.091 13.0905 221.601 13.6956 221.601C14.3007 221.601 14.7913 222.091 14.7913 222.696C14.7913 223.3 14.3007 223.791 13.6956 223.791Z" fill="#D1D1D1"/>
<path d="M13.6956 229.69C13.0905 229.69 12.5999 229.2 12.5999 228.595C12.5999 227.991 13.0905 227.5 13.6956 227.5C14.3007 227.5 14.7913 227.991 14.7913 228.595C14.7913 229.2 14.3007 229.69 13.6956 229.69Z" fill="#D1D1D1"/>
<path d="M13.6956 235.589C13.0905 235.589 12.5999 235.099 12.5999 234.495C12.5999 233.89 13.0905 233.4 13.6956 233.4C14.3007 233.4 14.7913 233.89 14.7913 234.495C14.7913 235.099 14.3007 235.589 13.6956 235.589Z" fill="#D1D1D1"/>
<path d="M13.6956 241.489C13.0905 241.489 12.5999 240.999 12.5999 240.394C12.5999 239.79 13.0905 239.3 13.6956 239.3C14.3007 239.3 14.7913 239.79 14.7913 240.394C14.7913 240.999 14.3007 241.489 13.6956 241.489Z" fill="#D1D1D1"/>
<path d="M13.6956 247.449C13.0905 247.449 12.5999 246.959 12.5999 246.355C12.5999 245.75 13.0905 245.26 13.6956 245.26C14.3007 245.26 14.7913 245.75 14.7913 246.355C14.7913 246.959 14.3007 247.449 13.6956 247.449Z" fill="#D1D1D1"/>
<path d="M13.6956 253.349C13.0905 253.349 12.5999 252.859 12.5999 252.254C12.5999 251.65 13.0905 251.159 13.6956 251.159C14.3007 251.159 14.7913 251.65 14.7913 252.254C14.7913 252.859 14.3007 253.349 13.6956 253.349Z" fill="#D1D1D1"/>
<path d="M13.6956 259.248C13.0905 259.248 12.5999 258.758 12.5999 258.154C12.5999 257.549 13.0905 257.059 13.6956 257.059C14.3007 257.059 14.7913 257.549 14.7913 258.154C14.7913 258.758 14.3007 259.248 13.6956 259.248Z" fill="#D1D1D1"/>
<path d="M13.6956 265.148C13.0905 265.148 12.5999 264.658 12.5999 264.053C12.5999 263.448 13.0905 262.958 13.6956 262.958C14.3007 262.958 14.7913 263.448 14.7913 264.053C14.7913 264.658 14.3007 265.148 13.6956 265.148Z" fill="#D1D1D1"/>
<path d="M24.4695 206.092C23.8644 206.092 23.3739 205.602 23.3739 204.997C23.3739 204.393 23.8644 203.903 24.4695 203.903C25.0746 203.903 25.5652 204.393 25.5652 204.997C25.5652 205.602 25.0746 206.092 24.4695 206.092Z" fill="#D1D1D1"/>
<path d="M24.4695 211.992C23.8644 211.992 23.3739 211.501 23.3739 210.897C23.3739 210.292 23.8644 209.802 24.4695 209.802C25.0746 209.802 25.5652 210.292 25.5652 210.897C25.5652 211.501 25.0746 211.992 24.4695 211.992Z" fill="#D1D1D1"/>
<path d="M24.4695 217.891C23.8644 217.891 23.3739 217.401 23.3739 216.796C23.3739 216.192 23.8644 215.702 24.4695 215.702C25.0746 215.702 25.5652 216.192 25.5652 216.796C25.5652 217.401 25.0746 217.891 24.4695 217.891Z" fill="#D1D1D1"/>
<path d="M24.4695 223.791C23.8644 223.791 23.3739 223.3 23.3739 222.696C23.3739 222.091 23.8644 221.601 24.4695 221.601C25.0746 221.601 25.5652 222.091 25.5652 222.696C25.5652 223.3 25.0746 223.791 24.4695 223.791Z" fill="#D1D1D1"/>
<path d="M24.4695 229.69C23.8644 229.69 23.3739 229.2 23.3739 228.595C23.3739 227.991 23.8644 227.5 24.4695 227.5C25.0746 227.5 25.5652 227.991 25.5652 228.595C25.5652 229.2 25.0746 229.69 24.4695 229.69Z" fill="#D1D1D1"/>
<path d="M24.4695 235.589C23.8644 235.589 23.3739 235.099 23.3739 234.495C23.3739 233.89 23.8644 233.4 24.4695 233.4C25.0746 233.4 25.5652 233.89 25.5652 234.495C25.5652 235.099 25.0746 235.589 24.4695 235.589Z" fill="#D1D1D1"/>
<path d="M24.4695 241.489C23.8644 241.489 23.3739 240.999 23.3739 240.394C23.3739 239.79 23.8644 239.3 24.4695 239.3C25.0746 239.3 25.5652 239.79 25.5652 240.394C25.5652 240.999 25.0746 241.489 24.4695 241.489Z" fill="#D1D1D1"/>
<path d="M24.4695 247.449C23.8644 247.449 23.3739 246.959 23.3739 246.355C23.3739 245.75 23.8644 245.26 24.4695 245.26C25.0746 245.26 25.5652 245.75 25.5652 246.355C25.5652 246.959 25.0746 247.449 24.4695 247.449Z" fill="#D1D1D1"/>
<path d="M24.4695 253.349C23.8644 253.349 23.3739 252.859 23.3739 252.254C23.3739 251.65 23.8644 251.159 24.4695 251.159C25.0746 251.159 25.5652 251.65 25.5652 252.254C25.5652 252.859 25.0746 253.349 24.4695 253.349Z" fill="#D1D1D1"/>
<path d="M24.4695 259.248C23.8644 259.248 23.3739 258.758 23.3739 258.154C23.3739 257.549 23.8644 257.059 24.4695 257.059C25.0746 257.059 25.5652 257.549 25.5652 258.154C25.5652 258.758 25.0746 259.248 24.4695 259.248Z" fill="#D1D1D1"/>
<path d="M24.4695 265.148C23.8644 265.148 23.3739 264.658 23.3739 264.053C23.3739 263.448 23.8644 262.958 24.4695 262.958C25.0746 262.958 25.5652 263.448 25.5652 264.053C25.5652 264.658 25.0746 265.148 24.4695 265.148Z" fill="#D1D1D1"/>
<path d="M2.92169 206.092C2.31658 206.092 1.82603 205.602 1.82603 204.997C1.82603 204.393 2.31658 203.903 2.92169 203.903C3.5268 203.903 4.01733 204.393 4.01733 204.997C4.01733 205.602 3.5268 206.092 2.92169 206.092Z" fill="#D1D1D1"/>
<path d="M2.92169 211.992C2.31658 211.992 1.82603 211.501 1.82603 210.897C1.82603 210.292 2.31658 209.802 2.92169 209.802C3.5268 209.802 4.01733 210.292 4.01733 210.897C4.01733 211.501 3.5268 211.992 2.92169 211.992Z" fill="#D1D1D1"/>
<path d="M2.92169 217.891C2.31658 217.891 1.82603 217.401 1.82603 216.796C1.82603 216.192 2.31658 215.702 2.92169 215.702C3.5268 215.702 4.01733 216.192 4.01733 216.796C4.01733 217.401 3.5268 217.891 2.92169 217.891Z" fill="#D1D1D1"/>
<path d="M2.92169 223.791C2.31658 223.791 1.82603 223.3 1.82603 222.696C1.82603 222.091 2.31658 221.601 2.92169 221.601C3.5268 221.601 4.01733 222.091 4.01733 222.696C4.01733 223.3 3.5268 223.791 2.92169 223.791Z" fill="#D1D1D1"/>
<path d="M2.92169 229.69C2.31658 229.69 1.82603 229.2 1.82603 228.595C1.82603 227.991 2.31658 227.5 2.92169 227.5C3.5268 227.5 4.01733 227.991 4.01733 228.595C4.01733 229.2 3.5268 229.69 2.92169 229.69Z" fill="#D1D1D1"/>
<path d="M2.92169 235.589C2.31658 235.589 1.82603 235.099 1.82603 234.495C1.82603 233.89 2.31658 233.4 2.92169 233.4C3.5268 233.4 4.01733 233.89 4.01733 234.495C4.01733 235.099 3.5268 235.589 2.92169 235.589Z" fill="#D1D1D1"/>
<path d="M2.92169 241.489C2.31658 241.489 1.82603 240.999 1.82603 240.394C1.82603 239.79 2.31658 239.3 2.92169 239.3C3.5268 239.3 4.01733 239.79 4.01733 240.394C4.01733 240.999 3.5268 241.489 2.92169 241.489Z" fill="#D1D1D1"/>
<path d="M2.92169 247.449C2.31658 247.449 1.82603 246.959 1.82603 246.355C1.82603 245.75 2.31658 245.26 2.92169 245.26C3.5268 245.26 4.01733 245.75 4.01733 246.355C4.01733 246.959 3.5268 247.449 2.92169 247.449Z" fill="#D1D1D1"/>
<path d="M2.92169 253.349C2.31658 253.349 1.82603 252.859 1.82603 252.254C1.82603 251.65 2.31658 251.159 2.92169 251.159C3.5268 251.159 4.01733 251.65 4.01733 252.254C4.01733 252.859 3.5268 253.349 2.92169 253.349Z" fill="#D1D1D1"/>
<path d="M2.92169 259.248C2.31658 259.248 1.82603 258.758 1.82603 258.154C1.82603 257.549 2.31658 257.059 2.92169 257.059C3.5268 257.059 4.01733 257.549 4.01733 258.154C4.01733 258.758 3.5268 259.248 2.92169 259.248Z" fill="#D1D1D1"/>
<path d="M2.92169 265.148C2.31658 265.148 1.82603 264.658 1.82603 264.053C1.82603 263.448 2.31658 262.958 2.92169 262.958C3.5268 262.958 4.01733 263.448 4.01733 264.053C4.01733 264.658 3.5268 265.148 2.92169 265.148Z" fill="#D1D1D1"/>
<path d="M35.3044 206.092C34.6993 206.092 34.2087 205.602 34.2087 204.997C34.2087 204.393 34.6993 203.903 35.3044 203.903C35.9095 203.903 36.4 204.393 36.4 204.997C36.4 205.602 35.9095 206.092 35.3044 206.092Z" fill="#D1D1D1"/>
<path d="M35.3044 211.992C34.6993 211.992 34.2087 211.501 34.2087 210.897C34.2087 210.292 34.6993 209.802 35.3044 209.802C35.9095 209.802 36.4 210.292 36.4 210.897C36.4 211.501 35.9095 211.992 35.3044 211.992Z" fill="#D1D1D1"/>
<path d="M35.3044 217.891C34.6993 217.891 34.2087 217.401 34.2087 216.796C34.2087 216.192 34.6993 215.702 35.3044 215.702C35.9095 215.702 36.4 216.192 36.4 216.796C36.4 217.401 35.9095 217.891 35.3044 217.891Z" fill="#D1D1D1"/>
<path d="M35.3044 223.791C34.6993 223.791 34.2087 223.3 34.2087 222.696C34.2087 222.091 34.6993 221.601 35.3044 221.601C35.9095 221.601 36.4 222.091 36.4 222.696C36.4 223.3 35.9095 223.791 35.3044 223.791Z" fill="#D1D1D1"/>
<path d="M35.3044 229.69C34.6993 229.69 34.2087 229.2 34.2087 228.595C34.2087 227.991 34.6993 227.5 35.3044 227.5C35.9095 227.5 36.4 227.991 36.4 228.595C36.4 229.2 35.9095 229.69 35.3044 229.69Z" fill="#D1D1D1"/>
<path d="M35.3044 235.589C34.6993 235.589 34.2087 235.099 34.2087 234.495C34.2087 233.89 34.6993 233.4 35.3044 233.4C35.9095 233.4 36.4 233.89 36.4 234.495C36.4 235.099 35.9095 235.589 35.3044 235.589Z" fill="#D1D1D1"/>
<path d="M35.3044 241.489C34.6993 241.489 34.2087 240.999 34.2087 240.394C34.2087 239.79 34.6993 239.3 35.3044 239.3C35.9095 239.3 36.4 239.79 36.4 240.394C36.4 240.999 35.9095 241.489 35.3044 241.489Z" fill="#D1D1D1"/>
<path d="M35.3044 247.449C34.6993 247.449 34.2087 246.959 34.2087 246.355C34.2087 245.75 34.6993 245.26 35.3044 245.26C35.9095 245.26 36.4 245.75 36.4 246.355C36.4 246.959 35.9095 247.449 35.3044 247.449Z" fill="#D1D1D1"/>
<path d="M35.3044 253.349C34.6993 253.349 34.2087 252.859 34.2087 252.254C34.2087 251.65 34.6993 251.159 35.3044 251.159C35.9095 251.159 36.4 251.65 36.4 252.254C36.4 252.859 35.9095 253.349 35.3044 253.349Z" fill="#D1D1D1"/>
<path d="M35.3044 259.248C34.6993 259.248 34.2087 258.758 34.2087 258.154C34.2087 257.549 34.6993 257.059 35.3044 257.059C35.9095 257.059 36.4 257.549 36.4 258.154C36.4 258.758 35.9095 259.248 35.3044 259.248Z" fill="#D1D1D1"/>
<path d="M35.3044 265.148C34.6993 265.148 34.2087 264.658 34.2087 264.053C34.2087 263.448 34.6993 262.958 35.3044 262.958C35.9095 262.958 36.4 263.448 36.4 264.053C36.4 264.658 35.9095 265.148 35.3044 265.148Z" fill="#D1D1D1"/>
<path d="M46.0783 206.092C45.4732 206.092 44.9826 205.602 44.9826 204.997C44.9826 204.393 45.4732 203.903 46.0783 203.903C46.6834 203.903 47.174 204.393 47.174 204.997C47.174 205.602 46.6834 206.092 46.0783 206.092Z" fill="#D1D1D1"/>
<path d="M46.0783 211.992C45.4732 211.992 44.9826 211.501 44.9826 210.897C44.9826 210.292 45.4732 209.802 46.0783 209.802C46.6834 209.802 47.174 210.292 47.174 210.897C47.174 211.501 46.6834 211.992 46.0783 211.992Z" fill="#D1D1D1"/>
<path d="M46.0783 217.891C45.4732 217.891 44.9826 217.401 44.9826 216.796C44.9826 216.192 45.4732 215.702 46.0783 215.702C46.6834 215.702 47.174 216.192 47.174 216.796C47.174 217.401 46.6834 217.891 46.0783 217.891Z" fill="#D1D1D1"/>
<path d="M46.0783 223.791C45.4732 223.791 44.9826 223.3 44.9826 222.696C44.9826 222.091 45.4732 221.601 46.0783 221.601C46.6834 221.601 47.174 222.091 47.174 222.696C47.174 223.3 46.6834 223.791 46.0783 223.791Z" fill="#D1D1D1"/>
<path d="M46.0783 229.69C45.4732 229.69 44.9826 229.2 44.9826 228.595C44.9826 227.991 45.4732 227.5 46.0783 227.5C46.6834 227.5 47.174 227.991 47.174 228.595C47.174 229.2 46.6834 229.69 46.0783 229.69Z" fill="#D1D1D1"/>
<path d="M46.0783 235.589C45.4732 235.589 44.9826 235.099 44.9826 234.495C44.9826 233.89 45.4732 233.4 46.0783 233.4C46.6834 233.4 47.174 233.89 47.174 234.495C47.174 235.099 46.6834 235.589 46.0783 235.589Z" fill="#D1D1D1"/>
<path d="M46.0783 241.489C45.4732 241.489 44.9826 240.999 44.9826 240.394C44.9826 239.79 45.4732 239.3 46.0783 239.3C46.6834 239.3 47.174 239.79 47.174 240.394C47.174 240.999 46.6834 241.489 46.0783 241.489Z" fill="#D1D1D1"/>
<path d="M46.0783 247.449C45.4732 247.449 44.9826 246.959 44.9826 246.355C44.9826 245.75 45.4732 245.26 46.0783 245.26C46.6834 245.26 47.174 245.75 47.174 246.355C47.174 246.959 46.6834 247.449 46.0783 247.449Z" fill="#D1D1D1"/>
<path d="M46.0783 253.349C45.4732 253.349 44.9826 252.859 44.9826 252.254C44.9826 251.65 45.4732 251.159 46.0783 251.159C46.6834 251.159 47.174 251.65 47.174 252.254C47.174 252.859 46.6834 253.349 46.0783 253.349Z" fill="#D1D1D1"/>
<path d="M46.0783 259.248C45.4732 259.248 44.9826 258.758 44.9826 258.154C44.9826 257.549 45.4732 257.059 46.0783 257.059C46.6834 257.059 47.174 257.549 47.174 258.154C47.174 258.758 46.6834 259.248 46.0783 259.248Z" fill="#D1D1D1"/>
<path d="M46.0783 265.148C45.4732 265.148 44.9826 264.658 44.9826 264.053C44.9826 263.448 45.4732 262.958 46.0783 262.958C46.6834 262.958 47.174 263.448 47.174 264.053C47.174 264.658 46.6834 265.148 46.0783 265.148Z" fill="#D1D1D1"/>
</g>
<g opacity="0.7">
<path d="M13.6956 273.627C13.0905 273.627 12.5999 273.137 12.5999 272.532C12.5999 271.928 13.0905 271.438 13.6956 271.438C14.3007 271.438 14.7913 271.928 14.7913 272.532C14.7913 273.137 14.3007 273.627 13.6956 273.627Z" fill="#D1D1D1"/>
<path d="M13.6956 279.527C13.0905 279.527 12.5999 279.037 12.5999 278.432C12.5999 277.827 13.0905 277.337 13.6956 277.337C14.3007 277.337 14.7913 277.827 14.7913 278.432C14.7913 279.037 14.3007 279.527 13.6956 279.527Z" fill="#D1D1D1"/>
<path d="M13.6956 285.426C13.0905 285.426 12.5999 284.936 12.5999 284.332C12.5999 283.727 13.0905 283.237 13.6956 283.237C14.3007 283.237 14.7913 283.727 14.7913 284.332C14.7913 284.936 14.3007 285.426 13.6956 285.426Z" fill="#D1D1D1"/>
<path d="M13.6956 291.326C13.0905 291.326 12.5999 290.836 12.5999 290.231C12.5999 289.626 13.0905 289.136 13.6956 289.136C14.3007 289.136 14.7913 289.626 14.7913 290.231C14.7913 290.836 14.3007 291.326 13.6956 291.326Z" fill="#D1D1D1"/>
<path d="M13.6956 297.225C13.0905 297.225 12.5999 296.735 12.5999 296.13C12.5999 295.526 13.0905 295.036 13.6956 295.036C14.3007 295.036 14.7913 295.526 14.7913 296.13C14.7913 296.735 14.3007 297.225 13.6956 297.225Z" fill="#D1D1D1"/>
<path d="M13.6956 303.125C13.0905 303.125 12.5999 302.634 12.5999 302.03C12.5999 301.425 13.0905 300.935 13.6956 300.935C14.3007 300.935 14.7913 301.425 14.7913 302.03C14.7913 302.634 14.3007 303.125 13.6956 303.125Z" fill="#D1D1D1"/>
<path d="M13.6956 309.024C13.0905 309.024 12.5999 308.534 12.5999 307.929C12.5999 307.325 13.0905 306.835 13.6956 306.835C14.3007 306.835 14.7913 307.325 14.7913 307.929C14.7913 308.534 14.3007 309.024 13.6956 309.024Z" fill="#D1D1D1"/>
<path d="M13.6956 314.984C13.0905 314.984 12.5999 314.494 12.5999 313.89C12.5999 313.285 13.0905 312.795 13.6956 312.795C14.3007 312.795 14.7913 313.285 14.7913 313.89C14.7913 314.494 14.3007 314.984 13.6956 314.984Z" fill="#D1D1D1"/>
<path d="M24.4695 273.627C23.8644 273.627 23.3739 273.137 23.3739 272.532C23.3739 271.928 23.8644 271.438 24.4695 271.438C25.0746 271.438 25.5652 271.928 25.5652 272.532C25.5652 273.137 25.0746 273.627 24.4695 273.627Z" fill="#D1D1D1"/>
<path d="M24.4695 279.527C23.8644 279.527 23.3739 279.037 23.3739 278.432C23.3739 277.827 23.8644 277.337 24.4695 277.337C25.0746 277.337 25.5652 277.827 25.5652 278.432C25.5652 279.037 25.0746 279.527 24.4695 279.527Z" fill="#D1D1D1"/>
<path d="M24.4695 285.426C23.8644 285.426 23.3739 284.936 23.3739 284.332C23.3739 283.727 23.8644 283.237 24.4695 283.237C25.0746 283.237 25.5652 283.727 25.5652 284.332C25.5652 284.936 25.0746 285.426 24.4695 285.426Z" fill="#D1D1D1"/>
<path d="M24.4695 291.326C23.8644 291.326 23.3739 290.836 23.3739 290.231C23.3739 289.626 23.8644 289.136 24.4695 289.136C25.0746 289.136 25.5652 289.626 25.5652 290.231C25.5652 290.836 25.0746 291.326 24.4695 291.326Z" fill="#D1D1D1"/>
<path d="M24.4695 297.225C23.8644 297.225 23.3739 296.735 23.3739 296.13C23.3739 295.526 23.8644 295.036 24.4695 295.036C25.0746 295.036 25.5652 295.526 25.5652 296.13C25.5652 296.735 25.0746 297.225 24.4695 297.225Z" fill="#D1D1D1"/>
<path d="M24.4695 303.125C23.8644 303.125 23.3739 302.634 23.3739 302.03C23.3739 301.425 23.8644 300.935 24.4695 300.935C25.0746 300.935 25.5652 301.425 25.5652 302.03C25.5652 302.634 25.0746 303.125 24.4695 303.125Z" fill="#D1D1D1"/>
<path d="M24.4695 309.024C23.8644 309.024 23.3739 308.534 23.3739 307.929C23.3739 307.325 23.8644 306.835 24.4695 306.835C25.0746 306.835 25.5652 307.325 25.5652 307.929C25.5652 308.534 25.0746 309.024 24.4695 309.024Z" fill="#D1D1D1"/>
<path d="M24.4695 314.984C23.8644 314.984 23.3739 314.494 23.3739 313.89C23.3739 313.285 23.8644 312.795 24.4695 312.795C25.0746 312.795 25.5652 313.285 25.5652 313.89C25.5652 314.494 25.0746 314.984 24.4695 314.984Z" fill="#D1D1D1"/>
<path d="M2.92169 273.627C2.31658 273.627 1.82603 273.137 1.82603 272.532C1.82603 271.928 2.31658 271.438 2.92169 271.438C3.5268 271.438 4.01733 271.928 4.01733 272.532C4.01733 273.137 3.5268 273.627 2.92169 273.627Z" fill="#D1D1D1"/>
<path d="M2.92169 279.527C2.31658 279.527 1.82603 279.037 1.82603 278.432C1.82603 277.827 2.31658 277.337 2.92169 277.337C3.5268 277.337 4.01733 277.827 4.01733 278.432C4.01733 279.037 3.5268 279.527 2.92169 279.527Z" fill="#D1D1D1"/>
<path d="M2.92169 285.426C2.31658 285.426 1.82603 284.936 1.82603 284.332C1.82603 283.727 2.31658 283.237 2.92169 283.237C3.5268 283.237 4.01733 283.727 4.01733 284.332C4.01733 284.936 3.5268 285.426 2.92169 285.426Z" fill="#D1D1D1"/>
<path d="M2.92169 291.326C2.31658 291.326 1.82603 290.836 1.82603 290.231C1.82603 289.626 2.31658 289.136 2.92169 289.136C3.5268 289.136 4.01733 289.626 4.01733 290.231C4.01733 290.836 3.5268 291.326 2.92169 291.326Z" fill="#D1D1D1"/>
<path d="M2.92169 297.225C2.31658 297.225 1.82603 296.735 1.82603 296.13C1.82603 295.526 2.31658 295.036 2.92169 295.036C3.5268 295.036 4.01733 295.526 4.01733 296.13C4.01733 296.735 3.5268 297.225 2.92169 297.225Z" fill="#D1D1D1"/>
<path d="M2.92169 303.125C2.31658 303.125 1.82603 302.634 1.82603 302.03C1.82603 301.425 2.31658 300.935 2.92169 300.935C3.5268 300.935 4.01733 301.425 4.01733 302.03C4.01733 302.634 3.5268 303.125 2.92169 303.125Z" fill="#D1D1D1"/>
<path d="M2.92169 309.024C2.31658 309.024 1.82603 308.534 1.82603 307.929C1.82603 307.325 2.31658 306.835 2.92169 306.835C3.5268 306.835 4.01733 307.325 4.01733 307.929C4.01733 308.534 3.5268 309.024 2.92169 309.024Z" fill="#D1D1D1"/>
<path d="M2.92169 314.984C2.31658 314.984 1.82603 314.494 1.82603 313.89C1.82603 313.285 2.31658 312.795 2.92169 312.795C3.5268 312.795 4.01733 313.285 4.01733 313.89C4.01733 314.494 3.5268 314.984 2.92169 314.984Z" fill="#D1D1D1"/>
<path d="M35.3044 273.627C34.6993 273.627 34.2087 273.137 34.2087 272.532C34.2087 271.928 34.6993 271.438 35.3044 271.438C35.9095 271.438 36.4 271.928 36.4 272.532C36.4 273.137 35.9095 273.627 35.3044 273.627Z" fill="#D1D1D1"/>
<path d="M35.3044 279.527C34.6993 279.527 34.2087 279.037 34.2087 278.432C34.2087 277.827 34.6993 277.337 35.3044 277.337C35.9095 277.337 36.4 277.827 36.4 278.432C36.4 279.037 35.9095 279.527 35.3044 279.527Z" fill="#D1D1D1"/>
<path d="M35.3044 285.426C34.6993 285.426 34.2087 284.936 34.2087 284.332C34.2087 283.727 34.6993 283.237 35.3044 283.237C35.9095 283.237 36.4 283.727 36.4 284.332C36.4 284.936 35.9095 285.426 35.3044 285.426Z" fill="#D1D1D1"/>
<path d="M35.3044 291.326C34.6993 291.326 34.2087 290.836 34.2087 290.231C34.2087 289.626 34.6993 289.136 35.3044 289.136C35.9095 289.136 36.4 289.626 36.4 290.231C36.4 290.836 35.9095 291.326 35.3044 291.326Z" fill="#D1D1D1"/>
<path d="M35.3044 297.225C34.6993 297.225 34.2087 296.735 34.2087 296.13C34.2087 295.526 34.6993 295.036 35.3044 295.036C35.9095 295.036 36.4 295.526 36.4 296.13C36.4 296.735 35.9095 297.225 35.3044 297.225Z" fill="#D1D1D1"/>
<path d="M35.3044 303.125C34.6993 303.125 34.2087 302.634 34.2087 302.03C34.2087 301.425 34.6993 300.935 35.3044 300.935C35.9095 300.935 36.4 301.425 36.4 302.03C36.4 302.634 35.9095 303.125 35.3044 303.125Z" fill="#D1D1D1"/>
<path d="M35.3044 309.024C34.6993 309.024 34.2087 308.534 34.2087 307.929C34.2087 307.325 34.6993 306.835 35.3044 306.835C35.9095 306.835 36.4 307.325 36.4 307.929C36.4 308.534 35.9095 309.024 35.3044 309.024Z" fill="#D1D1D1"/>
<path d="M35.3044 314.984C34.6993 314.984 34.2087 314.494 34.2087 313.89C34.2087 313.285 34.6993 312.795 35.3044 312.795C35.9095 312.795 36.4 313.285 36.4 313.89C36.4 314.494 35.9095 314.984 35.3044 314.984Z" fill="#D1D1D1"/>
<path d="M46.0783 273.627C45.4732 273.627 44.9826 273.137 44.9826 272.532C44.9826 271.928 45.4732 271.438 46.0783 271.438C46.6834 271.438 47.174 271.928 47.174 272.532C47.174 273.137 46.6834 273.627 46.0783 273.627Z" fill="#D1D1D1"/>
<path d="M46.0783 279.527C45.4732 279.527 44.9826 279.037 44.9826 278.432C44.9826 277.827 45.4732 277.337 46.0783 277.337C46.6834 277.337 47.174 277.827 47.174 278.432C47.174 279.037 46.6834 279.527 46.0783 279.527Z" fill="#D1D1D1"/>
<path d="M46.0783 285.426C45.4732 285.426 44.9826 284.936 44.9826 284.332C44.9826 283.727 45.4732 283.237 46.0783 283.237C46.6834 283.237 47.174 283.727 47.174 284.332C47.174 284.936 46.6834 285.426 46.0783 285.426Z" fill="#D1D1D1"/>
<path d="M46.0783 291.326C45.4732 291.326 44.9826 290.836 44.9826 290.231C44.9826 289.626 45.4732 289.136 46.0783 289.136C46.6834 289.136 47.174 289.626 47.174 290.231C47.174 290.836 46.6834 291.326 46.0783 291.326Z" fill="#D1D1D1"/>
<path d="M46.0783 297.225C45.4732 297.225 44.9826 296.735 44.9826 296.13C44.9826 295.526 45.4732 295.036 46.0783 295.036C46.6834 295.036 47.174 295.526 47.174 296.13C47.174 296.735 46.6834 297.225 46.0783 297.225Z" fill="#D1D1D1"/>
<path d="M46.0783 303.125C45.4732 303.125 44.9826 302.634 44.9826 302.03C44.9826 301.425 45.4732 300.935 46.0783 300.935C46.6834 300.935 47.174 301.425 47.174 302.03C47.174 302.634 46.6834 303.125 46.0783 303.125Z" fill="#D1D1D1"/>
<path d="M46.0783 309.024C45.4732 309.024 44.9826 308.534 44.9826 307.929C44.9826 307.325 45.4732 306.835 46.0783 306.835C46.6834 306.835 47.174 307.325 47.174 307.929C47.174 308.534 46.6834 309.024 46.0783 309.024Z" fill="#D1D1D1"/>
<path d="M46.0783 314.984C45.4732 314.984 44.9826 314.494 44.9826 313.89C44.9826 313.285 45.4732 312.795 46.0783 312.795C46.6834 312.795 47.174 313.285 47.174 313.89C47.174 314.494 46.6834 314.984 46.0783 314.984Z" fill="#D1D1D1"/>
</g>
</g>
</svg>
