<svg cache-id="75cd069bd298445697b236c86a7e7213" id="eNw0EMFLR1z1" xmlns="http://www.w3.org/2000/svg" xmlns:xlink="http://www.w3.org/1999/xlink" viewBox="0 0 253 253" shape-rendering="geometricPrecision" text-rendering="geometricPrecision"><style><![CDATA[#eNw0EMFLR1z4_to {animation: eNw0EMFLR1z4_to__to 10000ms linear infinite normal forwards}@keyframes eNw0EMFLR1z4_to__to { 0% {transform: translate(127.282616px,65.910021px)} 75% {transform: translate(127.282616px,65.910021px)} 79% {transform: translate(125.744482px,-41.411016px)} 90% {transform: translate(115.426812px,329.273710px)} 100% {transform: translate(115.426812px,329.273710px)}} #eNw0EMFLR1z4_ts {animation: eNw0EMFLR1z4_ts__ts 10000ms linear infinite normal forwards}@keyframes eNw0EMFLR1z4_ts__ts { 0% {transform: scale(1,1)} 74% {transform: scale(1,1)} 75% {transform: scale(0.170647,0.170647)} 79% {transform: scale(1.357707,1.357707)} 90% {transform: scale(1,1)} 100% {transform: scale(1,1)}} #eNw0EMFLR1z4 {animation: eNw0EMFLR1z4_c_o 10000ms linear infinite normal forwards}@keyframes eNw0EMFLR1z4_c_o { 0% {opacity: 0} 74% {opacity: 0} 75% {opacity: 1} 100% {opacity: 1}} #eNw0EMFLR1z19_tk {animation: eNw0EMFLR1z19_tk__tk 10000ms linear infinite normal forwards}@keyframes eNw0EMFLR1z19_tk__tk { 0% {transform: translate(70.215600px,232.777820px) skewX(0deg) skewY(0deg)} 25% {transform: translate(70.215600px,232.777820px) skewX(7deg) skewY(0deg)} 50% {transform: translate(70.215600px,232.777820px) skewX(-7deg) skewY(0deg)} 75% {transform: translate(70.215600px,232.777820px) skewX(7deg) skewY(0deg)} 100% {transform: translate(70.215600px,232.777820px) skewX(0deg) skewY(0deg)}} #eNw0EMFLR1z20_ts {animation: eNw0EMFLR1z20_ts__ts 10000ms linear infinite normal forwards}@keyframes eNw0EMFLR1z20_ts__ts { 0% {transform: translate(91.852500px,235.565000px) scale(1,1)} 25% {transform: translate(91.852500px,235.565000px) scale(0.969393,0.979904)} 50% {transform: translate(91.852500px,235.565000px) scale(1,1)} 75% {transform: translate(91.852500px,235.565000px) scale(0.969393,0.979904)} 100% {transform: translate(91.852500px,235.565000px) scale(1,1)}} #eNw0EMFLR1z38_tr {animation: eNw0EMFLR1z38_tr__tr 10000ms linear infinite normal forwards}@keyframes eNw0EMFLR1z38_tr__tr { 0% {transform: translate(49.459457px,49.747567px) rotate(0deg)} 25% {transform: translate(49.459457px,49.747567px) rotate(-7deg)} 50% {transform: translate(49.459457px,49.747567px) rotate(7deg)} 75% {transform: translate(49.459457px,49.747567px) rotate(-7deg)} 100% {transform: translate(49.459457px,49.747567px) rotate(0deg)}} #eNw0EMFLR1z50_tk {animation: eNw0EMFLR1z50_tk__tk 10000ms linear infinite normal forwards}@keyframes eNw0EMFLR1z50_tk__tk { 0% {transform: translate(182.133633px,232.777820px) skewX(0deg) skewY(0deg)} 25% {transform: translate(182.133633px,232.777820px) skewX(4.370000deg) skewY(0deg)} 50% {transform: translate(182.133633px,232.777820px) skewX(-4.370000deg) skewY(0deg)} 75% {transform: translate(182.133633px,232.777820px) skewX(4.370000deg) skewY(0deg)} 100% {transform: translate(182.133633px,232.777820px) skewX(0deg) skewY(0deg)}} #eNw0EMFLR1z53_ts {animation: eNw0EMFLR1z53_ts__ts 10000ms linear infinite normal forwards}@keyframes eNw0EMFLR1z53_ts__ts { 0% {transform: translate(166.177551px,233.881000px) scale(1,1)} 25% {transform: translate(166.177551px,233.881000px) scale(0.958689,1.019624)} 50% {transform: translate(166.177551px,233.881000px) scale(1,1)} 75% {transform: translate(166.177551px,233.881000px) scale(0.958689,1.019624)} 100% {transform: translate(166.177551px,233.881000px) scale(1,1)}} #eNw0EMFLR1z68_tr {animation: eNw0EMFLR1z68_tr__tr 10000ms linear infinite normal forwards}@keyframes eNw0EMFLR1z68_tr__tr { 0% {transform: translate(176.928350px,87.395653px) rotate(0deg)} 25% {transform: translate(176.928350px,87.395653px) rotate(2deg)} 50% {transform: translate(176.928350px,87.395653px) rotate(0deg)} 75% {transform: translate(176.928350px,87.395653px) rotate(2deg)} 100% {transform: translate(176.928350px,87.395653px) rotate(0deg)}} #eNw0EMFLR1z69_tr {animation: eNw0EMFLR1z69_tr__tr 10000ms linear infinite normal forwards}@keyframes eNw0EMFLR1z69_tr__tr { 0% {transform: translate(200.504510px,61.335681px) rotate(0deg)} 25% {transform: translate(200.504510px,61.335681px) rotate(6deg)} 50% {transform: translate(200.504510px,61.335681px) rotate(0deg)} 75% {transform: translate(200.504510px,61.335681px) rotate(6deg)} 100% {transform: translate(200.504510px,61.335681px) rotate(0deg)}} #eNw0EMFLR1z86_tr {animation: eNw0EMFLR1z86_tr__tr 10000ms linear infinite normal forwards}@keyframes eNw0EMFLR1z86_tr__tr { 0% {transform: translate(153.460000px,93.563648px) rotate(0deg)} 25% {transform: translate(153.460000px,93.563648px) rotate(-3deg)} 50% {transform: translate(153.460000px,93.563648px) rotate(4deg)} 75% {transform: translate(153.460000px,93.563648px) rotate(-3deg)} 100% {transform: translate(153.460000px,93.563648px) rotate(0deg)}}]]></style><defs><linearGradient id="eNw0EMFLR1z3-fill" x1="128.444000" y1="34.736800" x2="128.444000" y2="178.616000" spreadMethod="pad" gradientUnits="userSpaceOnUse"><stop id="eNw0EMFLR1z3-fill-0" offset="0%" stop-color="rgb(206,191,245)"/><stop id="eNw0EMFLR1z3-fill-1" offset="100%" stop-color="rgba(38,128,193,0)"/></linearGradient><linearGradient id="eNw0EMFLR1z18-fill" x1="133.491000" y1="261.993000" x2="130.793000" y2="208.442000" spreadMethod="pad" gradientUnits="userSpaceOnUse"><stop id="eNw0EMFLR1z18-fill-0" offset="0%" stop-color="rgb(38,128,193)"/><stop id="eNw0EMFLR1z18-fill-1" offset="100%" stop-color="rgba(38,128,193,0)"/></linearGradient></defs><rect id="eNw0EMFLR1z2" width="252" height="252" rx="0" ry="0" transform="matrix(1 0 0 1 0.48388700000000 0.81250000000000)" fill="rgb(247,244,255)" stroke="none" stroke-width="1"/><path id="eNw0EMFLR1z3" d="M228.807000,74.023800C224.010000,62.528600,214.845000,52.659100,203.653000,47.453400C175.442000,34.326500,156.708000,60.068800,134.044000,71.618800C123.567000,76.958500,112.339000,76.915800,101.214000,73.798500C89.723600,70.577700,79.575500,63.862000,67.639400,61.755400C56.338000,59.764400,43.572000,61.737100,36.182200,71.131700C28.902100,80.380200,25.533700,92.240700,24.624500,103.839000C23.416200,119.195000,28.285800,134.045000,38.293500,145.765000C50.351700,159.891000,66.858300,169.157000,83.755500,176.342000C111.161000,187.989000,140.977000,193.177000,166.197000,173.194000C173.660000,167.282000,179.696000,159.872000,186.158000,152.937000C192.742000,145.869000,200.004000,140.718000,207.705000,135.043000C221.765000,124.687000,232.731000,108.917000,232.438000,90.919500C232.346000,85.141500,231.052000,79.406100,228.807000,74.023800Z" opacity="0.14" fill="url(#eNw0EMFLR1z3-fill)" stroke="none" stroke-width="1"/><g id="eNw0EMFLR1z4_to" transform="translate(127.282616,65.910021)"><g id="eNw0EMFLR1z4_ts" transform="scale(1,1)"><g id="eNw0EMFLR1z4" display="none" transform="translate(-127.282616,-65.910021)" opacity="0"><g id="eNw0EMFLR1z5"><path id="eNw0EMFLR1z6" d="M47.185900,94.755500C47.185900,94.755500,48.133500,97.614600,50.024500,98.420400C50.024900,98.419000,49.231500,100.722000,48.277200,100.999000C48.277200,100.999000,45.331700,99.010600,45.079100,97.575100C45.079100,97.575100,45.676700,94.671900,47.185900,94.755500Z" fill="rgb(100,53,210)" stroke="none" stroke-width="1"/></g><g id="eNw0EMFLR1z7"><path id="eNw0EMFLR1z8" d="M134.261000,52.873300C134.261000,52.873300,137.273000,52.892500,138.643000,51.359600C138.643000,51.359600,140.569000,52.848700,140.525000,53.841400C140.525000,53.841400,137.697000,55.993900,136.257000,55.772900C136.257000,55.772900,133.698000,54.276000,134.261000,52.873300Z" fill="rgb(45,255,179)" stroke="none" stroke-width="1"/></g><g id="eNw0EMFLR1z9"><path id="eNw0EMFLR1z10" d="M108.927000,33.931000C108.927000,33.931000,111.395000,29.970900,115.179000,32.775300L117.484000,30.318300C117.484000,30.318300,115.330000,28.497200,110.364000,31.763900C107.114000,33.901500,108.927000,33.931000,108.927000,33.931000Z" fill="rgb(100,53,210)" stroke="none" stroke-width="1"/><path id="eNw0EMFLR1z11" d="M106.491000,37.812500C106.491000,37.812500,106.003000,33.266900,112.832000,30.431700C112.832000,30.431700,110.364000,31.763900,109.602000,36.295500L106.491000,37.812500Z" fill="rgb(47,0,156)" stroke="none" stroke-width="1"/></g><g id="eNw0EMFLR1z12"><path id="eNw0EMFLR1z13" d="M201.485000,98.095000C201.485000,98.095000,201.342000,96.087200,205.378000,95.114900C207.186000,94.679300,211.215000,95.454100,208.662000,99.155300C206.004000,103.006000,203.636000,101.616000,203.636000,101.616000C203.636000,101.616000,209.176000,97.566000,206.959000,95.713700C204.513000,93.670500,203.573000,97.720500,203.573000,97.720500C203.573000,97.720500,202.588000,97.671100,201.485000,98.095000Z" fill="rgb(45,255,179)" stroke="none" stroke-width="1"/><path id="eNw0EMFLR1z14" d="M202.916000,101.849000C202.916000,101.849000,201.407000,101.085000,202.005000,99.391200L204.175000,99.743200C204.175000,99.743200,203.340000,101.577000,205.381000,101.799000C205.381000,101.798000,203.417000,102.234000,202.916000,101.849000Z" fill="rgb(18,188,126)" stroke="none" stroke-width="1"/></g><g id="eNw0EMFLR1z15"><path id="eNw0EMFLR1z16" d="M173.886000,44.131400C173.886000,44.131400,178.278000,54.568000,180.218000,55.248200C180.218000,55.248200,176.299000,50.185400,175.362000,50.555800C175.362000,50.555800,172.297000,48.729800,171.954000,47.252000C171.954000,47.252000,172.372000,44.171600,173.886000,44.131400Z" fill="rgb(100,53,210)" stroke="none" stroke-width="1"/></g><path id="eNw0EMFLR1z17" d="M75.312500,51.584700C75.312500,51.584700,77.932900,49.897500,78.208800,47.859300C78.208800,47.859300,80.760700,47.999000,81.312500,48.842600C81.312500,48.842600,80.140300,52.215300,78.760700,52.849300C78.760700,52.849300,75.657000,53.060600,75.312500,51.584700Z" fill="rgb(45,255,179)" stroke="none" stroke-width="1"/></g></g></g><path id="eNw0EMFLR1z18" d="M131.964000,242.915000C187.461000,242.915000,232.443000,237.909000,232.443000,231.744000C232.443000,225.579000,187.461000,220.572000,131.964000,220.572000C76.466800,220.572000,31.483900,225.579000,31.483900,231.744000C31.483900,237.909000,76.466800,242.915000,131.964000,242.915000Z" opacity="0.14" fill="url(#eNw0EMFLR1z18-fill)" stroke="none" stroke-width="1"/><g id="eNw0EMFLR1z19_tk" transform="translate(70.215600,232.777820) skewX(0) skewY(0)"><path id="eNw0EMFLR1z19" d="M78.907100,231.891000L80.482500,231.346000L69.439900,218.269000C69.248500,216.785000,69.199600,214.665000,69.711000,211.978000C70.664900,206.955000,70.781200,201.433000,67.824500,202.837000C65.257300,204.054000,65.324500,210.354000,67.357400,215.809000L63.387500,211.110000C62.409300,209.444000,61.010400,207.075000,60.179500,204.142000C58.261800,197.346000,55.189400,191.265000,52.563500,194.119000C49.933600,196.981000,55.417400,207.348000,62.704900,212.713000L64.745600,215.129000C59.506800,211.119000,51.474000,209.173000,49.576000,211.867000C47.691500,214.544000,53.160800,215.359000,58.275800,215.265000C62.175600,215.197000,64.740000,216.044000,65.999000,216.601000L75.638700,228.021000C67.317900,221.705000,54.632800,218.642000,51.632800,222.908000C48.640600,227.157000,57.321200,228.445000,65.441200,228.303000C71.578900,228.197000,75.637500,229.520000,77.649600,230.407000L78.907100,231.891000Z" transform="translate(-70.215600,-232.777820)" fill="rgb(45,251,180)" stroke="none" stroke-width="1"/></g><g id="eNw0EMFLR1z20_ts" transform="translate(91.852500,235.565000) scale(1,1)"><g id="eNw0EMFLR1z20" transform="translate(-91.852500,-235.565000)"><g id="eNw0EMFLR1z21"><path id="eNw0EMFLR1z22" d="M70.215600,235.565000L85.993900,235.565000C85.993900,235.565000,86.373000,233.113000,85.547300,231.253000C84.758000,229.469000,83.529400,228.367000,83.416400,226.999000C82.413900,228.051000,81.179800,228.729000,78.899500,228.415000C78.620600,228.878000,77.094900,231.350000,76.161600,232.034000C75.131700,232.788000,70.532700,232.519000,70.215600,235.565000Z" fill="rgb(35,56,98)" stroke="none" stroke-width="1"/><path id="eNw0EMFLR1z23" d="M83.254100,229.419000C83.254100,229.419000,81.907100,229.863000,80.503500,229.991000C78.017200,230.216000,77.656200,229.463000,77.656200,229.463000C77.656200,229.463000,75.186300,207.049000,67.191400,164.200000C66.037600,158.012000,65.583700,154.586000,65.166300,149.085000C65.042300,147.439000,64.920200,145.606000,64.787100,143.458000C64.424400,137.684000,65.284800,127.964000,69.535600,125.411000C71.467800,124.247000,74.099900,124.567000,77.641700,127.408000C77.918700,127.633000,78.206700,127.873000,78.496600,128.129000C88.855600,137.266000,84.608500,163.505000,85.027700,175.842000C85.098800,177.886000,85.295700,179.549000,85.709500,180.690000C86.243500,182.164000,87.391900,184.206000,87.652600,186.132000C89.823600,202.129000,83.254100,229.419000,83.254100,229.419000Z" fill="rgb(48,14,126)" stroke="none" stroke-width="1"/><path id="eNw0EMFLR1z24" d="M85.024000,175.840000L65.166300,149.085000C65.042300,147.439000,64.920200,145.606000,64.787100,143.458000C64.424400,137.684000,65.284800,127.964000,69.535600,125.411000L77.641600,127.408000C77.918700,127.633000,78.206700,127.873000,78.496500,128.129000C88.853800,137.266000,84.606600,163.505000,85.024000,175.840000Z" fill="rgb(44,19,103)" stroke="none" stroke-width="1"/><path id="eNw0EMFLR1z25" d="M141.157000,201.707000L134.590000,187.079000C134.590000,187.079000,132.246000,187.749000,130.930000,189.287000C129.666000,190.763000,128.751000,190.501000,125.875000,188.464000C126.958000,190.170000,127.105000,191.175000,127.774000,193.419000C128.303000,193.486000,131.311000,196.453000,134.393000,197.271000C135.623000,197.600000,138.310000,202.681000,141.157000,201.707000Z" fill="rgb(35,56,98)" stroke="none" stroke-width="1"/><path id="eNw0EMFLR1z26" d="M72.306300,131.830000C72.306300,131.830000,86.445900,181.943000,91.626300,185.169000C96.806800,188.395000,124.045000,192.832000,129.581000,195.251000C129.581000,195.251000,130.255000,194.266000,129.860000,192.159000C129.772000,191.690000,128.990000,190.009000,128.990000,190.009000C128.990000,190.009000,112.076000,177.044000,100.943000,175.736000C98.179400,175.410000,106.568000,132.395000,87.898700,130.678000C70.842600,129.107000,72.306300,131.830000,72.306300,131.830000Z" fill="rgb(47,0,156)" stroke="none" stroke-width="1"/></g><g id="eNw0EMFLR1z27"><path id="eNw0EMFLR1z28" d="M82.632600,72.266400C82.632600,72.266400,85.716800,77.449700,79.916600,80.713200C79.916600,80.713200,84.375200,82.352300,85.928200,81.733500C85.928200,81.733500,85.543600,82.142300,85.250100,82.291000C85.250100,82.291000,89.440800,83.647700,91.529700,82.906200C93.618600,82.166500,98.115500,61.479900,85.747700,60.389000C85.747700,60.389000,75.992100,56.828100,73.928600,67.926900C71.865200,79.027500,68.108400,77.949600,68.108400,77.949600C68.108400,77.949600,69.019800,78.733900,69.524700,78.878900C69.524700,78.878900,70.335900,78.825000,70.585600,78.484900C70.585600,78.484900,70.273900,79.046100,70.031500,79.183600C70.031500,79.183600,73.987000,80.707600,76.409500,79.849000C78.833800,78.990400,82.592500,74.667600,82.632600,72.266400Z" fill="rgb(22,40,95)" stroke="none" stroke-width="1"/><path id="eNw0EMFLR1z29" d="M116.629000,55.188800C116.738000,55.421000,116.892000,55.832800,117.026000,56.221300C117.028000,56.115800,117.030000,56.010200,117.030000,55.906700C117.037000,55.133900,119.872000,50.921200,121.036000,50.657300C122.202000,50.393300,123.847000,54.337800,122.391000,56.519100C121.643000,57.640300,119.816000,61.472900,119.816000,61.472900L116.796000,59.882900C116.796000,59.882900,116.622000,58.495500,116.194000,58.147100C115.765000,57.796600,115.842000,55.642800,115.719000,54.741100C115.724000,54.743200,116.223000,54.335700,116.629000,55.188800Z" fill="rgb(255,197,197)" stroke="none" stroke-width="1"/><path id="eNw0EMFLR1z30" d="M75.133600,85.535800C75.099000,85.545100,77.973600,87.667400,80.412500,87.368200C82.705600,87.089400,84.570300,84.394700,84.541200,84.383500C83.635200,84.052700,83.556800,82.705300,84.397200,77.089100L83.963300,77.109600L76.659300,77.466400C76.659300,77.466400,76.488000,79.767100,76.179900,81.911800C75.921100,83.714500,75.565600,85.405700,75.133600,85.535800Z" fill="rgb(255,197,197)" stroke="none" stroke-width="1"/><path id="eNw0EMFLR1z31" d="M76.659300,77.466300C76.659300,77.466300,76.488000,79.766800,76.179900,81.911200C80.166400,82.399900,82.804000,79.025300,83.961500,77.109500L76.659300,77.466300Z" fill="rgb(204,158,158)" stroke="none" stroke-width="1"/><path id="eNw0EMFLR1z32" d="M84.808900,76.433100C84.808900,76.433100,87.379100,73.396400,88.295900,70.606900C88.950300,68.614600,89.036000,60.876100,81.400200,60.835200C81.400200,60.835200,79.196500,60.723700,76.950700,61.820200C75.164400,62.691800,72.470300,64.749100,74.123600,71.764700L74.477200,74.102600L84.808900,76.433100Z" fill="rgb(22,40,95)" stroke="none" stroke-width="1"/><path id="eNw0EMFLR1z33" d="M65.972200,129.901000C65.972200,129.901000,73.135800,134.510000,85.068000,131.549000C85.208400,131.514000,91.852500,130.434000,91.852500,130.434000C91.686700,129.970000,84.705300,118.209000,84.541200,117.782000C82.424900,112.212000,87.326500,85.621300,84.094600,84.129000C83.268900,85.045200,80.910200,85.673400,78.892300,85.489400C76.568200,85.279400,75.788000,84.255400,75.981300,83.155200C73.409300,84.394700,71.431500,85.548800,71.431500,85.548800C69.080100,89.141200,65.972200,129.901000,65.972200,129.901000Z" fill="rgb(255,197,197)" stroke="none" stroke-width="1"/><path id="eNw0EMFLR1z34" d="M75.036900,79.295200C75.036900,79.295200,84.406100,80.878600,85.282900,74.912900C86.159700,68.949100,87.958800,65.135500,82.014600,63.873600C76.068600,62.611700,74.570200,64.708000,73.802800,66.627800C73.033600,68.545800,72.621700,78.730200,75.036900,79.295200Z" fill="rgb(255,197,197)" stroke="none" stroke-width="1"/><path id="eNw0EMFLR1z35" d="M77.758500,63.080000C77.758500,63.080000,79.309800,70.469300,83.104900,72.102800C86.900000,73.736400,88.770200,72.916800,88.770200,72.916800C88.770200,72.916800,86.099800,70.006500,86.096100,65.629800C86.096100,65.629800,80.184700,60.043300,77.758500,63.080000Z" fill="rgb(22,40,95)" stroke="none" stroke-width="1"/><path id="eNw0EMFLR1z36" d="M78.312400,63.743600C78.312400,63.743600,76.163300,65.014800,75.474300,66.462600C74.783400,67.910300,74.118100,71.006600,73.239500,70.765000C73.239500,70.765000,71.996400,65.713600,74.566500,63.353300C77.289800,60.850000,78.312400,63.743600,78.312400,63.743600Z" fill="rgb(22,40,95)" stroke="none" stroke-width="1"/><g id="eNw0EMFLR1z37"><g id="eNw0EMFLR1z38_tr" transform="translate(49.459457,49.747567) rotate(0)"><g id="eNw0EMFLR1z38" transform="translate(-49.459457,-49.747567)"><path id="eNw0EMFLR1z39" d="M51.888500,45.477500L47.602400,46.874800L47.955400,49.938800L51.184400,50.102200L52.792900,46.391700L51.888500,45.477500Z" fill="rgb(252,176,177)" stroke="none" stroke-width="1"/><path id="eNw0EMFLR1z40" d="M69.811600,22.933300C70.183700,24.751600,71.881100,26.261100,73.490700,27.169000C75.100400,28.076900,76.943100,28.483700,78.760100,28.805200C80.580900,29.119800,82.428300,29.368100,84.173100,29.990700C87.523000,31.196900,90.245700,33.739100,92.400100,36.575900C89.158300,36.232700,85.895600,36.361200,82.635500,36.518000C84.101600,39.540200,85.173300,43.048400,85.956500,46.312600C83.572300,43.987600,80.184400,43.467700,76.916900,42.806600C73.649300,42.145500,70.296200,41.876800,67.108400,40.900700C63.920600,39.924600,60.810000,38.122400,59.196300,35.208900L69.811600,22.933300Z" fill="rgb(86,0,227)" stroke="none" stroke-width="1"/><path id="eNw0EMFLR1z41" d="M69.109700,22.199200L40.849800,55.761600C41.110800,55.952600,41.373900,56.149100,41.633100,56.343500L69.889500,22.787700L69.109700,22.199200Z" fill="rgb(227,227,227)" stroke="none" stroke-width="1"/><path id="eNw0EMFLR1z42" d="M52.260400,49.761000L53.793300,46.200300L50.541600,42.168100C50.541600,42.168100,49.757200,42.388100,50.004900,43.252100C50.252500,44.116200,51.203400,45.633000,51.203400,45.633000C51.203400,45.633000,49.274000,49.201800,50.491200,50.111200C51.718700,51.021600,52.260400,49.761000,52.260400,49.761000Z" fill="rgb(255,197,197)" stroke="none" stroke-width="1"/><path id="eNw0EMFLR1z43" d="M49.681400,43.677500C49.681400,43.677500,48.664300,43.700900,48.335500,44.188400C48.011600,44.681500,49.620100,47.195800,49.620100,47.195800L50.340700,46.991200C50.345400,46.996800,50.488000,44.099500,49.681400,43.677500Z" fill="rgb(255,197,197)" stroke="none" stroke-width="1"/><path id="eNw0EMFLR1z44" d="M50.839900,43.046700C50.839900,43.046700,49.822700,43.070100,49.494000,43.557600C49.170000,44.050700,50.778600,46.565000,50.778600,46.565000L51.499100,46.360400C51.503900,46.366000,51.646500,43.468700,50.839900,43.046700Z" fill="rgb(255,197,197)" stroke="none" stroke-width="1"/><path id="eNw0EMFLR1z45" d="M48.536100,44.517700C48.536100,44.517700,47.628800,44.534800,47.345900,44.974200C47.052700,45.412600,48.487400,47.652000,48.487400,47.652000L49.128200,47.466700C49.117800,47.465800,49.253300,44.890600,48.536100,44.517700Z" fill="rgb(255,197,197)" stroke="none" stroke-width="1"/><path id="eNw0EMFLR1z46" d="M47.410900,45.569300C47.410900,45.569300,46.654400,45.708400,46.472800,46.119800C46.291300,46.531300,47.806400,48.205000,47.806400,48.205000L48.322000,47.962300C48.311700,47.961400,48.064500,45.775400,47.410900,45.569300Z" fill="rgb(255,197,197)" stroke="none" stroke-width="1"/></g></g><path id="eNw0EMFLR1z47" d="M119.846000,61.687500C119.846000,61.687500,113.426000,80.374800,111.818000,83.270300C110.850000,85.017200,99.964100,91.927000,93.646200,96.480200C93.577000,96.528500,93.496700,96.628800,93.403800,96.775700C93.402000,96.779400,93.400100,96.781200,93.396500,96.785000C91.819800,99.271600,86.918200,114.660000,88.090300,117.421000C93.017300,129.029000,96.395000,133.519000,97.623600,136.775000C98.237900,138.399000,97.417600,140.219000,95.809900,140.802000C93.784800,141.536000,90.802600,142.462000,87.284600,143.077000C86.613800,143.196000,85.922900,143.302000,85.215700,143.393000C75.505600,144.649000,68.930700,142.326000,65.593100,140.609000C64.014500,139.797000,63.061200,138.108000,63.159600,136.309000C63.360100,132.636000,65.161100,129.001000,65.974100,120.170000C66.590200,113.468000,60.917600,103.271000,61.158200,99.704600C61.253000,98.294000,62.341200,96.606500,62.930000,95.511900C62.930000,95.511900,62.930000,95.510100,62.931800,95.508200C63.974400,93.571700,64.546800,91.822900,63.852300,90.852800C59.229600,84.387200,49.251600,75.470400,48.845100,73.243900C48.249000,69.971200,48.213100,49.961000,48.213100,49.961000C48.594100,49.825400,49.459400,49.288500,50.192100,49.221600C50.844700,49.162100,51.994500,49.450800,51.994500,49.450800C51.994500,49.450800,54.306200,66.133500,54.503100,67.020000C54.700000,67.906500,65.841000,80.705600,68.845000,80.653600C71.557300,80.607100,75.383400,82.742500,75.977700,83.153200C75.977700,83.153200,73.542400,87.552200,72.935400,93.493600C72.512500,97.649100,75.234000,95.801800,76.945600,92.956500C79.260600,89.104000,83.921500,83.617800,83.921500,83.617800C83.921500,83.617800,87.713000,82.612400,90.538300,83.656800C93.363700,84.699400,107.979000,76.284400,108.447000,75.511200C108.918000,74.736300,116.745000,59.864900,116.745000,59.864900C116.745000,59.864900,117.394000,59.482100,118.435000,60.034000C120.127000,60.978000,119.846000,61.687500,119.846000,61.687500Z" fill="rgb(45,255,179)" stroke="none" stroke-width="1"/><path id="eNw0EMFLR1z48" d="M62.929900,95.508200C63.972500,93.571700,64.544900,91.822900,63.850400,90.852800C59.229600,84.387200,49.251500,75.470400,48.845000,73.244000C49.834800,75.663700,61.918200,82.891200,65.316000,85.998500C68.675400,89.066800,63.066600,95.357600,62.929900,95.508200Z" fill="rgb(18,188,126)" stroke="none" stroke-width="1"/><path id="eNw0EMFLR1z49" d="M95.809700,140.804000C93.784500,141.538000,90.802400,142.464000,87.284400,143.079000C83.934100,138.370000,78.263300,132.443000,79.723400,121.545000C81.230800,110.279000,92.094800,98.422200,93.398100,96.786700C91.821400,99.273400,86.919800,114.661000,88.091900,117.423000C93.019000,129.031000,96.396600,133.521000,97.625200,136.777000C98.235800,138.401000,97.417400,140.221000,95.809700,140.804000Z" fill="rgb(18,188,126)" stroke="none" stroke-width="1"/></g></g></g></g><g id="eNw0EMFLR1z50_tk" transform="translate(182.133633,232.777820) skewX(0) skewY(0)"><g id="eNw0EMFLR1z50" transform="translate(-179.940000,-233.311000)"><path id="eNw0EMFLR1z51" d="M178.304000,233.311000C177.865000,233.001000,173.702000,220.614000,176.633000,217.536000C177.823000,216.286000,179.158000,216.615000,180.325000,217.447000C181.428000,218.233000,183.056000,217.218000,183.047000,215.762000C183.026000,212.326000,183.894000,206.813000,185.878000,205.751000C187.124000,205.084000,188.024000,206.985000,188.129000,208.205000C188.521000,212.748000,190.889000,211.249000,191.379000,209.772000C192.397000,206.702000,192.532000,201.326000,194.843000,200.673000C196.021000,200.341000,196.314000,201.058000,196.403000,202.412000C196.499000,203.897000,198.232000,204.408000,199.266000,203.247000C202.194000,199.959000,206.221000,196.165000,207.481000,198.513000C208.673000,200.734000,207.178000,203.094000,204.994000,205.107000C203.814000,206.195000,204.351000,208.094000,205.841000,208.121000C207.794000,208.155000,210.258000,209.418000,208.868000,211.354000C207.748000,212.913000,202.335000,212.198000,199.206000,214.575000C196.420000,216.694000,198.941000,217.480000,199.757000,217.579000C202.030000,217.855000,203.935000,218.662000,203.582000,220.650000C203.040000,223.700000,198.182000,222.563000,194.208000,224.061000C191.740000,224.992000,192.748000,226.722000,193.514000,226.984000C196.393000,227.966000,199.522000,230.125000,197.151000,232.290000C193.082000,236.007000,181.473000,227.813000,178.304000,233.311000Z" fill="rgb(86,77,159)" stroke="none" stroke-width="1"/><path id="eNw0EMFLR1z52" d="M206.191000,210.261000C206.213000,210.101000,206.112000,209.949000,205.957000,209.908000C205.944000,209.904000,205.931000,209.901000,205.918000,209.900000C201.893000,209.347000,198.764000,209.153000,195.971000,209.881000C198.466000,207.583000,201.131000,205.474000,203.720000,203.754000C203.867000,203.656000,203.907000,203.456000,203.811000,203.309000C203.767000,203.243000,203.703000,203.196000,203.627000,203.176000C203.539000,203.152000,203.444000,203.167000,203.367000,203.219000C200.566000,205.080000,197.686000,207.383000,195.017000,209.894000C194.996000,207.502000,195.286000,205.636000,195.897000,204.201000C195.931000,204.122000,195.932000,204.035000,195.900000,203.955000C195.869000,203.875000,195.808000,203.813000,195.730000,203.780000C195.715000,203.773000,195.701000,203.769000,195.687000,203.765000C195.534000,203.724000,195.372000,203.803000,195.309000,203.949000C194.611000,205.585000,194.310000,207.727000,194.389000,210.494000C191.399000,213.379000,188.754000,216.448000,186.521000,219.624000C185.438000,215.920000,185.381000,212.677000,186.345000,209.722000C186.371000,209.641000,186.365000,209.553000,186.326000,209.477000C186.288000,209.401000,186.221000,209.344000,186.139000,209.317000L186.125000,209.313000C185.960000,209.269000,185.790000,209.362000,185.737000,209.524000C184.689000,212.736000,184.793000,216.261000,186.056000,220.297000C183.869000,223.504000,182.138000,226.775000,180.909000,230.020000C180.846000,230.185000,180.929000,230.371000,181.094000,230.433000C181.104000,230.437000,181.114000,230.440000,181.124000,230.443000C181.283000,230.486000,181.447000,230.401000,181.506000,230.246000C182.718000,227.046000,184.427000,223.818000,186.586000,220.651000C189.838000,220.101000,194.257000,220.056000,198.727000,220.530000C198.812000,220.538000,198.895000,220.514000,198.962000,220.460000C199.029000,220.406000,199.070000,220.330000,199.079000,220.244000C199.097000,220.086000,198.998000,219.941000,198.844000,219.900000C198.828000,219.896000,198.812000,219.893000,198.795000,219.891000C194.558000,219.443000,190.327000,219.456000,187.092000,219.923000C189.307000,216.784000,191.928000,213.750000,194.891000,210.897000C197.895000,209.751000,201.180000,209.895000,205.831000,210.534000C205.916000,210.545000,206,210.523000,206.068000,210.472000C206.136000,210.420000,206.179000,210.347000,206.191000,210.261000Z" fill="rgb(255,255,255)" stroke="none" stroke-width="1"/></g></g><g id="eNw0EMFLR1z53_ts" transform="translate(166.177551,233.881000) scale(1,1)"><g id="eNw0EMFLR1z53" transform="translate(-166.177551,-233.881000)"><g id="eNw0EMFLR1z54"><path id="eNw0EMFLR1z55" d="M177.618000,225.237000L177.690000,218.867000L168.464000,219.519000L168.198000,224.784000C171.137000,225.394000,174.481000,225.550000,177.618000,225.237000Z" fill="rgb(249,179,133)" stroke="none" stroke-width="1"/><path id="eNw0EMFLR1z56" d="M187.603000,233.879000C185.101000,229.781000,181.682000,228.414000,177.597000,227.897000L177.616000,225.239000C174.480000,225.551000,171.134000,225.396000,168.195000,224.786000L167.736000,233.881000L187.603000,233.881000L187.603000,233.879000Z" fill="rgb(20,33,72)" stroke="none" stroke-width="1"/><path id="eNw0EMFLR1z57" d="M131.822000,225.859000L130.978000,227.787000C126.895000,228.305000,123.240000,230.505000,119.886000,233.879000L139.244000,233.879000L141.304000,225.883000C137.999000,226.443000,134.847000,226.404000,131.822000,225.859000Z" fill="rgb(20,33,72)" stroke="none" stroke-width="1"/><path id="eNw0EMFLR1z58" d="M141.304000,225.883000L142.942000,219.521000L134.785000,219.085000L131.822000,225.859000C134.847000,226.404000,137.999000,226.443000,141.304000,225.883000Z" fill="rgb(249,179,133)" stroke="none" stroke-width="1"/><path id="eNw0EMFLR1z59" d="M181.875000,126.295000C186.732000,157.913000,184.778000,196.111000,178.036000,227.874000L167.351000,227.874000C168.736000,207.257000,169.454000,176.027000,166.214000,159.799000L141.205000,228.211000L130.673000,227.476000L152.292000,133.691000L159.470000,119.622000L176.290000,117.591000L181.875000,126.295000Z" fill="rgb(47,0,156)" stroke="none" stroke-width="1"/><path id="eNw0EMFLR1z60" d="M164.096000,165.255000C164.488000,163.818000,164.926000,162.399000,165.379000,160.984000C165.821000,159.566000,166.320000,158.167000,166.786000,156.756000C167.280000,155.356000,167.784000,153.958000,168.303000,152.568000C168.836000,151.181000,169.372000,149.795000,169.970000,148.430000L170.291000,148.543000C169.910000,149.983000,169.468000,151.401000,169.020000,152.819000C168.561000,154.232000,168.086000,155.639000,167.601000,157.042000C167.090000,158.436000,166.610000,159.841000,166.072000,161.227000C165.545000,162.616000,165.005000,164.001000,164.417000,165.368000L164.096000,165.255000Z" fill="rgb(116,139,198)" stroke="none" stroke-width="1"/></g><g id="eNw0EMFLR1z61"><path id="eNw0EMFLR1z62" d="M168.859000,92.242500L159.142000,92.355200L158.175000,79.623600L158.062000,78.101500L167.824000,78.014400L168.173000,82.843600L168.859000,92.242500Z" fill="rgb(255,197,197)" stroke="none" stroke-width="1"/><path id="eNw0EMFLR1z63" d="M168.118000,81.967300C164.937000,84.237600,160.778000,82.823100,158.175000,79.623600L158.062000,78.099800L167.824000,78.012700L168.118000,81.967300Z" fill="rgb(204,158,158)" stroke="none" stroke-width="1"/><path id="eNw0EMFLR1z64" d="M165.849000,80.901300C160.916000,82.028700,155.410000,78.865000,153.238000,74.662700L152.944000,67.119100L155.704000,63.203700L167.447000,64.215000C167.393000,64.228700,167.399000,64.392700,167.447000,64.672800C167.584000,65.404000,168.035000,66.961900,168.451000,68.841000C169.476000,73.412300,170.296000,79.883100,165.849000,80.901300Z" fill="rgb(255,197,197)" stroke="none" stroke-width="1"/><path id="eNw0EMFLR1z65" d="M157.586000,87.423500C157.586000,87.423500,164.836000,93.224700,171.145000,84.958500L183.108000,124.699000C175.783000,129.875000,166.523000,131.664000,155.412000,130.210000L157.586000,87.423500Z" fill="rgb(255,255,255)" stroke="none" stroke-width="1"/><g id="eNw0EMFLR1z66" opacity="0.3"><path id="eNw0EMFLR1z67" d="M159.142000,92.355200C160.146000,92.717300,161.173000,92.937700,162.197000,93.050400C163.222000,93.154600,164.254000,93.130700,165.249000,92.927400C166.243000,92.732700,167.227000,92.420100,168.129000,91.921300C168.603000,91.712900,169.015000,91.395100,169.468000,91.128600C169.912000,90.848500,170.299000,90.493200,170.750000,90.194200C170.417000,90.607600,170.070000,91.022700,169.691000,91.405400C169.278000,91.748700,168.892000,92.143300,168.414000,92.411500C167.517000,93.041900,166.457000,93.421100,165.382000,93.643200C163.215000,94.058300,160.901000,93.573100,159.142000,92.355200Z" opacity="0.3" fill="rgb(36,63,135)" stroke="none" stroke-width="1"/></g><g id="eNw0EMFLR1z68_tr" transform="translate(176.928350,87.395653) rotate(0)"><g id="eNw0EMFLR1z68" transform="translate(-176.928350,-87.395653)"><g id="eNw0EMFLR1z69_tr" transform="translate(200.504510,61.335681) rotate(0)"><g id="eNw0EMFLR1z69" transform="translate(-200.504510,-61.335681)"><path id="eNw0EMFLR1z70" d="M197.319000,58.851100L200.435000,49.496700L208.875000,51.468000C209.511000,54.601000,205.719000,59.353300,202.901000,62.911600L197.319000,58.851100Z" fill="rgb(255,197,197)" stroke="none" stroke-width="1"/><path id="eNw0EMFLR1z71" d="M214.427000,56.138500L202.338000,63.468600L201.796000,59.218500L210.909000,53.692300L214.427000,56.138500Z" fill="rgb(112,53,41)" stroke="none" stroke-width="1"/><path id="eNw0EMFLR1z72" d="M207.904000,55.514900L204.804000,57.394000L197.445000,46.930900L202.032000,44.149900L207.904000,55.514900Z" fill="rgb(187,145,48)" stroke="none" stroke-width="1"/><path id="eNw0EMFLR1z73" d="M202.654000,43.780900L196.830000,47.311900C195.527000,48.102800,193.840000,47.817500,192.868000,46.642300L183.123000,34.855300L197.950000,25.864700L203.892000,39.957900C204.485000,41.362000,203.957000,42.990000,202.654000,43.780900Z" fill="rgb(249,194,67)" stroke="none" stroke-width="1"/><path id="eNw0EMFLR1z74" d="M201.940000,36.344900L201.137000,36.010100C203.375000,30.622300,202.985000,26.244000,201.341000,25.278800C200.485000,24.776600,199.301000,25.369400,198.091000,26.903400L197.407000,26.363600C199.551000,23.647500,201.180000,24.175300,201.781000,24.527200C203.783000,25.704200,204.389000,30.446300,201.940000,36.344900Z" fill="rgb(249,194,67)" stroke="none" stroke-width="1"/><path id="eNw0EMFLR1z75" d="M190.339000,43.389700C183.977000,42.834600,180.054000,40.103100,179.940000,37.783300C179.906000,37.086300,180.191000,35.398500,183.590000,34.754500L183.752000,35.608600C181.832000,35.972500,180.760000,36.749800,180.809000,37.738800C180.905000,39.643500,184.604000,42.012900,190.416000,42.522000L190.339000,43.389700Z" fill="rgb(249,194,67)" stroke="none" stroke-width="1"/><path id="eNw0EMFLR1z76" d="M195.739000,33.495500C195.228000,32.610600,195.254000,31.640300,195.797000,31.326000C196.340000,31.013400,197.194000,31.476400,197.704000,32.359500C198.215000,33.244400,198.189000,34.214700,197.646000,34.529000C197.103000,34.843300,196.249000,34.380400,195.739000,33.495500Z" opacity="0.6" fill="rgb(255,255,255)" stroke="none" stroke-width="1"/><path id="eNw0EMFLR1z77" d="M208.869000,51.246000C209.080000,52.754400,208.127000,54.100500,206.117000,54.100500C204.860000,54.100500,203.101000,52.376900,202.732000,50.330400C202.427000,48.642700,203.076000,47.537400,204.266000,47.045400C205.489000,46.541500,208.469000,48.401800,208.869000,51.246000Z" fill="rgb(255,197,197)" stroke="none" stroke-width="1"/><path id="eNw0EMFLR1z78" d="M170.406000,23.821700L169.995000,25.125100L180.582000,28.461300L180.992000,27.157800L170.406000,23.821700Z" fill="rgb(249,194,67)" stroke="none" stroke-width="1"/><path id="eNw0EMFLR1z79" d="M193.068000,9.950080L191.138000,20.881600L192.483000,21.119200L194.413000,10.187700L193.068000,9.950080Z" fill="rgb(249,194,67)" stroke="none" stroke-width="1"/><path id="eNw0EMFLR1z80" d="M179.746000,12.840800L178.595000,13.577600L184.578000,22.926200L185.728000,22.189500L179.746000,12.840800Z" fill="rgb(249,194,67)" stroke="none" stroke-width="1"/><path id="eNw0EMFLR1z81" d="M202.611000,51.697000C202.929000,50.497800,202.765000,49.413000,202.248000,49.276400C201.730000,49.139700,200.933000,49.700000,200.615000,50.900900C200.297000,52.100100,199.933000,53.828900,200.751000,54.214900C202.200000,54.898200,202.294000,52.896200,202.611000,51.697000Z" fill="rgb(255,197,197)" stroke="none" stroke-width="1"/></g></g><path id="eNw0EMFLR1z82" d="M196.992000,57.110500C190.433000,68.190200,184.035000,77.925600,178.252000,82.565200C177.393000,83.253600,176.300000,83.561100,175.201000,83.504700C173.027000,83.392000,170.781000,83.658500,168.281000,84.251200C168.805000,104.132000,170.690000,122.547000,177.452000,133.837000C181.525000,132.661000,186.465000,130.774000,189.196000,128.469000C186.971000,120.916000,184.339000,110.083000,182.380000,100.621000L204.058000,61.895300L196.992000,57.110500Z" fill="rgb(45,255,179)" stroke="none" stroke-width="1"/><path id="eNw0EMFLR1z83" d="M180.409000,91.665000C180.801000,92.910400,181.142000,94.167600,181.472000,95.428300C181.810000,96.685600,182.109000,97.953100,182.406000,99.220600C182.698000,100.490000,182.976000,101.761000,183.224000,103.040000C183.470000,104.320000,183.711000,105.599000,183.890000,106.894000L183.559000,106.969000C183.157000,105.726000,182.817000,104.468000,182.484000,103.209000C182.151000,101.950000,181.851000,100.683000,181.562000,99.413700C181.279000,98.142700,180.997000,96.871800,180.756000,95.592300C180.505000,94.314500,180.266000,93.033400,180.078000,91.740200L180.409000,91.665000Z" fill="rgb(18,188,126)" stroke="none" stroke-width="1"/></g></g><path id="eNw0EMFLR1z84" d="M168.451000,68.841000C160.986000,73.091100,154.782000,65.347600,154.782000,65.347600L167.447000,64.672900C167.584000,65.404000,168.034000,66.961900,168.451000,68.841000Z" fill="rgb(204,158,158)" stroke="none" stroke-width="1"/><path id="eNw0EMFLR1z85" d="M154.905000,73.210700C155.820000,72.026900,156.239000,70.036800,155.412000,66.030900C158.131000,69.107500,162.173000,69.826600,168.100000,67.190800C168.100000,67.190800,171.954000,65.682400,171.073000,61.751700C170.275000,58.198600,167.302000,56.312600,164.983000,59.213300C159.719000,57.675800,154.543000,57.400800,152.222000,62.187300C152.222000,62.187300,144.827000,66.030900,151.134000,72.267700L154.905000,73.210700Z" fill="rgb(22,40,95)" stroke="none" stroke-width="1"/><g id="eNw0EMFLR1z86_tr" transform="translate(153.460000,93.563648) rotate(0)"><g id="eNw0EMFLR1z86" transform="translate(-153.460000,-93.563648)"><path id="eNw0EMFLR1z87" d="M144.122000,155.318000L142.849000,155.034000L144.178000,149.078000L135.391000,146.941000L134.227000,152.376000L132.951000,152.103000L134.396000,145.354000L145.731000,148.113000L144.122000,155.318000Z" fill="rgb(36,63,135)" stroke="none" stroke-width="1"/><path id="eNw0EMFLR1z88" d="M138.954000,136.539000C138.737000,136.842000,137.940000,142.976000,137.940000,142.976000C137.940000,142.976000,134.387000,146.307000,136.780000,148.352000C139.173000,150.397000,142.072000,150.320000,143.451000,148.806000C143.931000,147.325000,143.968000,145.593000,143.379000,143.506000L144.757000,136.691000L138.954000,136.539000Z" fill="rgb(249,179,133)" stroke="none" stroke-width="1"/><path id="eNw0EMFLR1z89" d="M150.624000,154.908000L147.117000,169.763000L145.770000,175.499000L123.001000,166.944000L126.002000,154.421000L127.430000,148.451000L150.624000,154.908000Z" fill="rgb(126,157,220)" stroke="none" stroke-width="1"/><path id="eNw0EMFLR1z90" d="M151.496000,112.225000L149.756000,138.478000C159.471000,138.042000,165.995000,134.851000,165.995000,134.851000C166.839000,119.183000,164.827000,101.650000,158.628000,85.882400C142.880000,91.736600,138.440000,111.130000,136.103000,139.949000L145.327000,141.018000L151.496000,112.225000Z" fill="rgb(45,255,179)" stroke="none" stroke-width="1"/><path id="eNw0EMFLR1z91" d="M147.117000,169.763000L145.768000,175.498000L123.001000,166.944000L126.004000,154.421000C128.804000,160.217000,134.729000,167.406000,147.117000,169.763000Z" opacity="0.15" fill="rgb(73,109,183)" stroke="none" stroke-width="1"/><path id="eNw0EMFLR1z92" d="M151.957000,103.387000C152.001000,104.649000,151.993000,105.908000,151.972000,107.167000C151.962000,108.426000,151.909000,109.684000,151.856000,110.941000C151.798000,112.198000,151.726000,113.454000,151.622000,114.709000C151.516000,115.965000,151.407000,117.219000,151.231000,118.471000L150.891000,118.454000C150.837000,117.191000,150.847000,115.932000,150.862000,114.674000C150.879000,113.415000,150.929000,112.157000,150.990000,110.900000C151.059000,109.643000,151.127000,108.387000,151.238000,107.132000C151.339000,105.876000,151.452000,104.622000,151.617000,103.370000L151.957000,103.387000Z" fill="rgb(18,188,126)" stroke="none" stroke-width="1"/></g></g><path id="eNw0EMFLR1z93" d="M155.050000,75.821000C152.087000,76.878400,150.193000,76.639300,150.036000,73.807000C149.945000,72.182400,151.619000,70.887600,153.095000,71.574300C153.735000,71.871500,154.333000,72.437000,154.903000,73.210800L155.050000,75.821000Z" fill="rgb(255,197,197)" stroke="none" stroke-width="1"/><path id="eNw0EMFLR1z94" d="M153.274000,74.247600C153.122000,74.034100,152.980000,73.815400,152.830000,73.612100C152.676000,73.414000,152.534000,73.209000,152.360000,73.070600C152.191000,72.918600,152.037000,72.846800,151.877000,72.889600C151.698000,72.911800,151.518000,73.104800,151.318000,73.265400L151.151000,73.159500C151.262000,72.906600,151.392000,72.623100,151.730000,72.471000C152.080000,72.312200,152.485000,72.489800,152.693000,72.691400C153.127000,73.121900,153.359000,73.629200,153.460000,74.175900L153.274000,74.247600Z" fill="rgb(20,33,72)" stroke="none" stroke-width="1"/></g></g></g></svg>