<svg width="772" height="528" viewBox="0 0 772 528" fill="none" xmlns="http://www.w3.org/2000/svg">
<path d="M434.031 13.5L648.805 385.5C650.73 388.833 648.324 393 644.475 393H214.927C211.078 393 208.672 388.833 210.597 385.5L425.371 13.5C427.295 10.1667 432.107 10.1667 434.031 13.5Z" stroke="#C3D0FC" stroke-width="6"/>
<path d="M422.773 90.9533C425.852 85.6199 433.55 85.6199 436.629 90.9533L583.028 344.523C586.107 349.857 582.258 356.523 576.1 356.523H283.302C277.144 356.523 273.295 349.857 276.374 344.523L422.773 90.9533Z" fill="url(#paint0_linear)"/>
<g filter="url(#filter0_d)">
<rect x="210.112" y="412.037" width="447.813" height="48.1121" rx="24.0561" fill="white"/>
<rect x="210.612" y="412.537" width="446.813" height="47.1121" rx="23.5561" stroke="#F2F2F2"/>
</g>
<path d="M262.571 443.799C261.695 443.799 260.903 443.649 260.195 443.349C259.499 443.049 258.947 442.617 258.539 442.053C258.131 441.489 257.921 440.823 257.909 440.055H260.609C260.645 440.571 260.825 440.979 261.149 441.279C261.485 441.579 261.941 441.729 262.517 441.729C263.105 441.729 263.567 441.591 263.903 441.315C264.239 441.027 264.407 440.655 264.407 440.199C264.407 439.827 264.293 439.521 264.065 439.281C263.837 439.041 263.549 438.855 263.201 438.723C262.865 438.579 262.397 438.423 261.797 438.255C260.981 438.015 260.315 437.781 259.799 437.553C259.295 437.313 258.857 436.959 258.485 436.491C258.125 436.011 257.945 435.375 257.945 434.583C257.945 433.839 258.131 433.191 258.503 432.639C258.875 432.087 259.397 431.667 260.069 431.379C260.741 431.079 261.509 430.929 262.373 430.929C263.669 430.929 264.719 431.247 265.523 431.883C266.339 432.507 266.789 433.383 266.873 434.511H264.101C264.077 434.079 263.891 433.725 263.543 433.449C263.207 433.161 262.757 433.017 262.193 433.017C261.701 433.017 261.305 433.143 261.005 433.395C260.717 433.647 260.573 434.013 260.573 434.493C260.573 434.829 260.681 435.111 260.897 435.339C261.125 435.555 261.401 435.735 261.725 435.879C262.061 436.011 262.529 436.167 263.129 436.347C263.945 436.587 264.611 436.827 265.127 437.067C265.643 437.307 266.087 437.667 266.459 438.147C266.831 438.627 267.017 439.257 267.017 440.037C267.017 440.709 266.843 441.333 266.495 441.909C266.147 442.485 265.637 442.947 264.965 443.295C264.293 443.631 263.495 443.799 262.571 443.799ZM282.9 431.109V443.673H280.38V435.501L277.014 443.673H275.106L271.722 435.501V443.673H269.202V431.109H272.064L276.06 440.451L280.056 431.109H282.9ZM293.095 441.279H288.091L287.263 443.673H284.617L289.135 431.091H292.069L296.587 443.673H293.923L293.095 441.279ZM292.411 439.263L290.593 434.007L288.775 439.263H292.411ZM304.756 443.673L301.984 438.777H300.796V443.673H298.276V431.109H302.992C303.964 431.109 304.792 431.283 305.476 431.631C306.16 431.967 306.67 432.429 307.006 433.017C307.354 433.593 307.528 434.241 307.528 434.961C307.528 435.789 307.288 436.539 306.808 437.211C306.328 437.871 305.614 438.327 304.666 438.579L307.672 443.673H304.756ZM300.796 436.887H302.902C303.586 436.887 304.096 436.725 304.432 436.401C304.768 436.065 304.936 435.603 304.936 435.015C304.936 434.439 304.768 433.995 304.432 433.683C304.096 433.359 303.586 433.197 302.902 433.197H300.796V436.887ZM318.357 431.109V433.143H315.009V443.673H312.489V433.143H309.141V431.109H318.357ZM323.873 437.373C323.873 436.137 324.149 435.033 324.701 434.061C325.265 433.077 326.027 432.315 326.987 431.775C327.959 431.223 329.045 430.947 330.245 430.947C331.649 430.947 332.879 431.307 333.935 432.027C334.991 432.747 335.729 433.743 336.149 435.015H333.251C332.963 434.415 332.555 433.965 332.027 433.665C331.511 433.365 330.911 433.215 330.227 433.215C329.495 433.215 328.841 433.389 328.265 433.737C327.701 434.073 327.257 434.553 326.933 435.177C326.621 435.801 326.465 436.533 326.465 437.373C326.465 438.201 326.621 438.933 326.933 439.569C327.257 440.193 327.701 440.679 328.265 441.027C328.841 441.363 329.495 441.531 330.227 441.531C330.911 441.531 331.511 441.381 332.027 441.081C332.555 440.769 332.963 440.313 333.251 439.713H336.149C335.729 440.997 334.991 441.999 333.935 442.719C332.891 443.427 331.661 443.781 330.245 443.781C329.045 443.781 327.959 443.511 326.987 442.971C326.027 442.419 325.265 441.657 324.701 440.685C324.149 439.713 323.873 438.609 323.873 437.373ZM344.133 443.799C342.957 443.799 341.877 443.523 340.893 442.971C339.909 442.419 339.129 441.657 338.553 440.685C337.977 439.701 337.689 438.591 337.689 437.355C337.689 436.131 337.977 435.033 338.553 434.061C339.129 433.077 339.909 432.309 340.893 431.757C341.877 431.205 342.957 430.929 344.133 430.929C345.321 430.929 346.401 431.205 347.373 431.757C348.357 432.309 349.131 433.077 349.695 434.061C350.271 435.033 350.559 436.131 350.559 437.355C350.559 438.591 350.271 439.701 349.695 440.685C349.131 441.657 348.357 442.419 347.373 442.971C346.389 443.523 345.309 443.799 344.133 443.799ZM344.133 441.549C344.889 441.549 345.555 441.381 346.131 441.045C346.707 440.697 347.157 440.205 347.481 439.569C347.805 438.933 347.967 438.195 347.967 437.355C347.967 436.515 347.805 435.783 347.481 435.159C347.157 434.523 346.707 434.037 346.131 433.701C345.555 433.365 344.889 433.197 344.133 433.197C343.377 433.197 342.705 433.365 342.117 433.701C341.541 434.037 341.091 434.523 340.767 435.159C340.443 435.783 340.281 436.515 340.281 437.355C340.281 438.195 340.443 438.933 340.767 439.569C341.091 440.205 341.541 440.697 342.117 441.045C342.705 441.381 343.377 441.549 344.133 441.549ZM363.18 443.673H360.66L354.954 435.051V443.673H352.434V431.091H354.954L360.66 439.731V431.091H363.18V443.673ZM376.956 431.109L372.348 443.673H369.288L364.68 431.109H367.38L370.836 441.099L374.274 431.109H376.956ZM380.987 433.143V436.293H385.217V438.291H380.987V441.621H385.757V443.673H378.467V431.091H385.757V433.143H380.987ZM394.527 443.673L391.755 438.777H390.567V443.673H388.047V431.109H392.763C393.735 431.109 394.563 431.283 395.247 431.631C395.931 431.967 396.441 432.429 396.777 433.017C397.125 433.593 397.299 434.241 397.299 434.961C397.299 435.789 397.059 436.539 396.579 437.211C396.099 437.871 395.385 438.327 394.437 438.579L397.443 443.673H394.527ZM390.567 436.887H392.673C393.357 436.887 393.867 436.725 394.203 436.401C394.539 436.065 394.707 435.603 394.707 435.015C394.707 434.439 394.539 433.995 394.203 433.683C393.867 433.359 393.357 433.197 392.673 433.197H390.567V436.887ZM403.916 443.799C403.04 443.799 402.248 443.649 401.54 443.349C400.844 443.049 400.292 442.617 399.884 442.053C399.476 441.489 399.266 440.823 399.254 440.055H401.954C401.99 440.571 402.17 440.979 402.494 441.279C402.83 441.579 403.286 441.729 403.862 441.729C404.45 441.729 404.912 441.591 405.248 441.315C405.584 441.027 405.752 440.655 405.752 440.199C405.752 439.827 405.638 439.521 405.41 439.281C405.182 439.041 404.894 438.855 404.546 438.723C404.21 438.579 403.742 438.423 403.142 438.255C402.326 438.015 401.66 437.781 401.144 437.553C400.64 437.313 400.202 436.959 399.83 436.491C399.47 436.011 399.29 435.375 399.29 434.583C399.29 433.839 399.476 433.191 399.848 432.639C400.22 432.087 400.742 431.667 401.414 431.379C402.086 431.079 402.854 430.929 403.718 430.929C405.014 430.929 406.064 431.247 406.868 431.883C407.684 432.507 408.134 433.383 408.218 434.511H405.446C405.422 434.079 405.236 433.725 404.888 433.449C404.552 433.161 404.102 433.017 403.538 433.017C403.046 433.017 402.65 433.143 402.35 433.395C402.062 433.647 401.918 434.013 401.918 434.493C401.918 434.829 402.026 435.111 402.242 435.339C402.47 435.555 402.746 435.735 403.07 435.879C403.406 436.011 403.874 436.167 404.474 436.347C405.29 436.587 405.956 436.827 406.472 437.067C406.988 437.307 407.432 437.667 407.804 438.147C408.176 438.627 408.362 439.257 408.362 440.037C408.362 440.709 408.188 441.333 407.84 441.909C407.492 442.485 406.982 442.947 406.31 443.295C405.638 443.631 404.84 443.799 403.916 443.799ZM413.067 431.109V443.673H410.547V431.109H413.067ZM421.389 443.799C420.213 443.799 419.133 443.523 418.149 442.971C417.165 442.419 416.385 441.657 415.809 440.685C415.233 439.701 414.945 438.591 414.945 437.355C414.945 436.131 415.233 435.033 415.809 434.061C416.385 433.077 417.165 432.309 418.149 431.757C419.133 431.205 420.213 430.929 421.389 430.929C422.577 430.929 423.657 431.205 424.629 431.757C425.613 432.309 426.387 433.077 426.951 434.061C427.527 435.033 427.815 436.131 427.815 437.355C427.815 438.591 427.527 439.701 426.951 440.685C426.387 441.657 425.613 442.419 424.629 442.971C423.645 443.523 422.565 443.799 421.389 443.799ZM421.389 441.549C422.145 441.549 422.811 441.381 423.387 441.045C423.963 440.697 424.413 440.205 424.737 439.569C425.061 438.933 425.223 438.195 425.223 437.355C425.223 436.515 425.061 435.783 424.737 435.159C424.413 434.523 423.963 434.037 423.387 433.701C422.811 433.365 422.145 433.197 421.389 433.197C420.633 433.197 419.961 433.365 419.373 433.701C418.797 434.037 418.347 434.523 418.023 435.159C417.699 435.783 417.537 436.515 417.537 437.355C417.537 438.195 417.699 438.933 418.023 439.569C418.347 440.205 418.797 440.697 419.373 441.045C419.961 441.381 420.633 441.549 421.389 441.549ZM440.436 443.673H437.916L432.21 435.051V443.673H429.69V431.091H432.21L437.916 439.731V431.091H440.436V443.673ZM455.765 431.109V433.143H452.417V443.673H449.897V433.143H446.549V431.109H455.765ZM460.124 433.143V436.293H464.354V438.291H460.124V441.621H464.894V443.673H457.604V431.091H464.894V433.143H460.124ZM466.572 437.373C466.572 436.137 466.848 435.033 467.4 434.061C467.964 433.077 468.726 432.315 469.686 431.775C470.658 431.223 471.744 430.947 472.944 430.947C474.348 430.947 475.578 431.307 476.634 432.027C477.69 432.747 478.428 433.743 478.848 435.015H475.95C475.662 434.415 475.254 433.965 474.726 433.665C474.21 433.365 473.61 433.215 472.926 433.215C472.194 433.215 471.54 433.389 470.964 433.737C470.4 434.073 469.956 434.553 469.632 435.177C469.32 435.801 469.164 436.533 469.164 437.373C469.164 438.201 469.32 438.933 469.632 439.569C469.956 440.193 470.4 440.679 470.964 441.027C471.54 441.363 472.194 441.531 472.926 441.531C473.61 441.531 474.21 441.381 474.726 441.081C475.254 440.769 475.662 440.313 475.95 439.713H478.848C478.428 440.997 477.69 441.999 476.634 442.719C475.59 443.427 474.36 443.781 472.944 443.781C471.744 443.781 470.658 443.511 469.686 442.971C468.726 442.419 467.964 441.657 467.4 440.685C466.848 439.713 466.572 438.609 466.572 437.373ZM491.422 431.109V443.673H488.902V438.327H483.52V443.673H481V431.109H483.52V436.275H488.902V431.109H491.422ZM504.649 443.673H502.129L496.423 435.051V443.673H493.903V431.091H496.423L502.129 439.731V431.091H504.649V443.673ZM512.971 443.799C511.795 443.799 510.715 443.523 509.731 442.971C508.747 442.419 507.967 441.657 507.391 440.685C506.815 439.701 506.527 438.591 506.527 437.355C506.527 436.131 506.815 435.033 507.391 434.061C507.967 433.077 508.747 432.309 509.731 431.757C510.715 431.205 511.795 430.929 512.971 430.929C514.159 430.929 515.239 431.205 516.211 431.757C517.195 432.309 517.969 433.077 518.533 434.061C519.109 435.033 519.397 436.131 519.397 437.355C519.397 438.591 519.109 439.701 518.533 440.685C517.969 441.657 517.195 442.419 516.211 442.971C515.227 443.523 514.147 443.799 512.971 443.799ZM512.971 441.549C513.727 441.549 514.393 441.381 514.969 441.045C515.545 440.697 515.995 440.205 516.319 439.569C516.643 438.933 516.805 438.195 516.805 437.355C516.805 436.515 516.643 435.783 516.319 435.159C515.995 434.523 515.545 434.037 514.969 433.701C514.393 433.365 513.727 433.197 512.971 433.197C512.215 433.197 511.543 433.365 510.955 433.701C510.379 434.037 509.929 434.523 509.605 435.159C509.281 435.783 509.119 436.515 509.119 437.355C509.119 438.195 509.281 438.933 509.605 439.569C509.929 440.205 510.379 440.697 510.955 441.045C511.543 441.381 512.215 441.549 512.971 441.549ZM523.792 441.675H527.932V443.673H521.272V431.109H523.792V441.675ZM535.366 443.799C534.19 443.799 533.11 443.523 532.126 442.971C531.142 442.419 530.362 441.657 529.786 440.685C529.21 439.701 528.922 438.591 528.922 437.355C528.922 436.131 529.21 435.033 529.786 434.061C530.362 433.077 531.142 432.309 532.126 431.757C533.11 431.205 534.19 430.929 535.366 430.929C536.554 430.929 537.634 431.205 538.606 431.757C539.59 432.309 540.364 433.077 540.928 434.061C541.504 435.033 541.792 436.131 541.792 437.355C541.792 438.591 541.504 439.701 540.928 440.685C540.364 441.657 539.59 442.419 538.606 442.971C537.622 443.523 536.542 443.799 535.366 443.799ZM535.366 441.549C536.122 441.549 536.788 441.381 537.364 441.045C537.94 440.697 538.39 440.205 538.714 439.569C539.038 438.933 539.2 438.195 539.2 437.355C539.2 436.515 539.038 435.783 538.714 435.159C538.39 434.523 537.94 434.037 537.364 433.701C536.788 433.365 536.122 433.197 535.366 433.197C534.61 433.197 533.938 433.365 533.35 433.701C532.774 434.037 532.324 434.523 532 435.159C531.676 435.783 531.514 436.515 531.514 437.355C531.514 438.195 531.676 438.933 532 439.569C532.324 440.205 532.774 440.697 533.35 441.045C533.938 441.381 534.61 441.549 535.366 441.549ZM552.414 434.889C552.126 434.361 551.73 433.959 551.226 433.683C550.722 433.407 550.134 433.269 549.462 433.269C548.718 433.269 548.058 433.437 547.482 433.773C546.906 434.109 546.456 434.589 546.132 435.213C545.808 435.837 545.646 436.557 545.646 437.373C545.646 438.213 545.808 438.945 546.132 439.569C546.468 440.193 546.93 440.673 547.518 441.009C548.106 441.345 548.79 441.513 549.57 441.513C550.53 441.513 551.316 441.261 551.928 440.757C552.54 440.241 552.942 439.527 553.134 438.615H548.814V436.689H555.618V438.885C555.45 439.761 555.09 440.571 554.538 441.315C553.986 442.059 553.272 442.659 552.396 443.115C551.532 443.559 550.56 443.781 549.48 443.781C548.268 443.781 547.17 443.511 546.186 442.971C545.214 442.419 544.446 441.657 543.882 440.685C543.33 439.713 543.054 438.609 543.054 437.373C543.054 436.137 543.33 435.033 543.882 434.061C544.446 433.077 545.214 432.315 546.186 431.775C547.17 431.223 548.262 430.947 549.462 430.947C550.878 430.947 552.108 431.295 553.152 431.991C554.196 432.675 554.916 433.641 555.312 434.889H552.414ZM567.473 431.109L563.225 439.299V443.673H560.705V439.299L556.439 431.109H559.283L561.983 436.851L564.665 431.109H567.473Z" fill="#212529"/>
<circle cx="239.72" cy="436.71" r="6.16822" fill="#2DFFB3"/>
<g filter="url(#filter1_d)">
<rect x="186.673" y="102.393" width="193.682" height="48.1121" rx="24.0561" fill="white"/>
<rect x="187.173" y="102.893" width="192.682" height="47.1121" rx="23.5561" stroke="#F2F2F2"/>
</g>
<path d="M242.551 121.464V123.498H237.313V126.72H241.327V128.718H237.313V134.028H234.793V121.464H242.551ZM246.858 132.03H250.998V134.028H244.338V121.464H246.858V132.03ZM255.084 121.464V129.24C255.084 130.092 255.306 130.746 255.75 131.202C256.194 131.646 256.818 131.868 257.622 131.868C258.438 131.868 259.068 131.646 259.512 131.202C259.956 130.746 260.178 130.092 260.178 129.24V121.464H262.716V129.222C262.716 130.29 262.482 131.196 262.014 131.94C261.558 132.672 260.94 133.224 260.16 133.596C259.392 133.968 258.534 134.154 257.586 134.154C256.65 134.154 255.798 133.968 255.03 133.596C254.274 133.224 253.674 132.672 253.23 131.94C252.786 131.196 252.564 130.29 252.564 129.222V121.464H255.084ZM267.671 121.464V134.028H265.151V121.464H267.671ZM274.553 121.464C275.873 121.464 277.031 121.722 278.027 122.238C279.035 122.754 279.809 123.492 280.349 124.452C280.901 125.4 281.177 126.504 281.177 127.764C281.177 129.024 280.901 130.128 280.349 131.076C279.809 132.012 279.035 132.738 278.027 133.254C277.031 133.77 275.873 134.028 274.553 134.028H270.161V121.464H274.553ZM274.463 131.886C275.783 131.886 276.803 131.526 277.523 130.806C278.243 130.086 278.603 129.072 278.603 127.764C278.603 126.456 278.243 125.436 277.523 124.704C276.803 123.96 275.783 123.588 274.463 123.588H272.681V131.886H274.463ZM285.583 121.464V134.028H283.063V121.464H285.583ZM296.623 121.464V123.498H293.275V134.028H290.755V123.498H287.407V121.464H296.623ZM308.451 121.464L304.203 129.654V134.028H301.683V129.654L297.417 121.464H300.261L302.961 127.206L305.643 121.464H308.451ZM316.678 121.464V129.24C316.678 130.092 316.9 130.746 317.344 131.202C317.788 131.646 318.412 131.868 319.216 131.868C320.032 131.868 320.662 131.646 321.106 131.202C321.55 130.746 321.772 130.092 321.772 129.24V121.464H324.31V129.222C324.31 130.29 324.076 131.196 323.608 131.94C323.152 132.672 322.534 133.224 321.754 133.596C320.986 133.968 320.128 134.154 319.18 134.154C318.244 134.154 317.392 133.968 316.624 133.596C315.868 133.224 315.268 132.672 314.824 131.94C314.38 131.196 314.158 130.29 314.158 129.222V121.464H316.678ZM334.269 134.028L331.551 129.798L329.085 134.028H326.241L330.201 127.692L326.187 121.464H329.085L331.803 125.676L334.251 121.464H337.095L333.153 127.782L337.167 134.028H334.269Z" fill="#212529"/>
<circle cx="216.28" cy="127.065" r="6.16822" fill="#2DFFB3"/>
<g filter="url(#filter2_d)">
<rect x="454.374" y="43.1776" width="267.701" height="48.1121" rx="24.0561" fill="white"/>
<rect x="454.874" y="43.6776" width="266.701" height="47.1121" rx="23.5561" stroke="#F2F2F2"/>
</g>
<path d="M506.886 62.2489C508.206 62.2489 509.364 62.5069 510.36 63.0229C511.368 63.5389 512.142 64.2769 512.682 65.2369C513.234 66.1849 513.51 67.2889 513.51 68.5489C513.51 69.8089 513.234 70.9129 512.682 71.8609C512.142 72.7969 511.368 73.5229 510.36 74.0389C509.364 74.5549 508.206 74.8129 506.886 74.8129H502.494V62.2489H506.886ZM506.796 72.6709C508.116 72.6709 509.136 72.3109 509.856 71.5909C510.576 70.8709 510.936 69.8569 510.936 68.5489C510.936 67.2409 510.576 66.2209 509.856 65.4889C509.136 64.7449 508.116 64.3729 506.796 64.3729H505.014V72.6709H506.796ZM525.387 62.2489L521.139 70.4389V74.8129H518.619V70.4389L514.353 62.2489H517.197L519.897 67.9909L522.579 62.2489H525.387ZM537.586 74.8129H535.066L529.36 66.1909V74.8129H526.84V62.2309H529.36L535.066 70.8709V62.2309H537.586V74.8129ZM553.774 62.2489V74.8129H551.254V66.6409L547.888 74.8129H545.98L542.596 66.6409V74.8129H540.076V62.2489H542.938L546.934 71.5909L550.93 62.2489H553.774ZM558.786 62.2489V74.8129H556.266V62.2489H558.786ZM560.664 68.5129C560.664 67.2769 560.94 66.1729 561.492 65.2009C562.056 64.2169 562.818 63.4549 563.778 62.9149C564.75 62.3629 565.836 62.0869 567.036 62.0869C568.44 62.0869 569.67 62.4469 570.726 63.1669C571.782 63.8869 572.52 64.8829 572.94 66.1549H570.042C569.754 65.5549 569.346 65.1049 568.818 64.8049C568.302 64.5049 567.702 64.3549 567.018 64.3549C566.286 64.3549 565.632 64.5289 565.056 64.8769C564.492 65.2129 564.048 65.6929 563.724 66.3169C563.412 66.9409 563.256 67.6729 563.256 68.5129C563.256 69.3409 563.412 70.0729 563.724 70.7089C564.048 71.3329 564.492 71.8189 565.056 72.1669C565.632 72.5029 566.286 72.6709 567.018 72.6709C567.702 72.6709 568.302 72.5209 568.818 72.2209C569.346 71.9089 569.754 71.4529 570.042 70.8529H572.94C572.52 72.1369 571.782 73.1389 570.726 73.8589C569.682 74.5669 568.452 74.9209 567.036 74.9209C565.836 74.9209 564.75 74.6509 563.778 74.1109C562.818 73.5589 562.056 72.7969 561.492 71.8249C560.94 70.8529 560.664 69.7489 560.664 68.5129ZM583.719 74.9389C582.843 74.9389 582.051 74.7889 581.343 74.4889C580.647 74.1889 580.095 73.7569 579.687 73.1929C579.279 72.6289 579.069 71.9629 579.057 71.1949H581.757C581.793 71.7109 581.973 72.1189 582.297 72.4189C582.633 72.7189 583.089 72.8689 583.665 72.8689C584.253 72.8689 584.715 72.7309 585.051 72.4549C585.387 72.1669 585.555 71.7949 585.555 71.3389C585.555 70.9669 585.441 70.6609 585.213 70.4209C584.985 70.1809 584.697 69.9949 584.349 69.8629C584.013 69.7189 583.545 69.5629 582.945 69.3949C582.129 69.1549 581.463 68.9209 580.947 68.6929C580.443 68.4529 580.005 68.0989 579.633 67.6309C579.273 67.1509 579.093 66.5149 579.093 65.7229C579.093 64.9789 579.279 64.3309 579.651 63.7789C580.023 63.2269 580.545 62.8069 581.217 62.5189C581.889 62.2189 582.657 62.0689 583.521 62.0689C584.817 62.0689 585.867 62.3869 586.671 63.0229C587.487 63.6469 587.937 64.5229 588.021 65.6509H585.249C585.225 65.2189 585.039 64.8649 584.691 64.5889C584.355 64.3009 583.905 64.1569 583.341 64.1569C582.849 64.1569 582.453 64.2829 582.153 64.5349C581.865 64.7869 581.721 65.1529 581.721 65.6329C581.721 65.9689 581.829 66.2509 582.045 66.4789C582.273 66.6949 582.549 66.8749 582.873 67.0189C583.209 67.1509 583.677 67.3069 584.277 67.4869C585.093 67.7269 585.759 67.9669 586.275 68.2069C586.791 68.4469 587.235 68.8069 587.607 69.2869C587.979 69.7669 588.165 70.3969 588.165 71.1769C588.165 71.8489 587.991 72.4729 587.643 73.0489C587.295 73.6249 586.785 74.0869 586.113 74.4349C585.441 74.7709 584.643 74.9389 583.719 74.9389ZM592.834 62.2489V70.0249C592.834 70.8769 593.056 71.5309 593.5 71.9869C593.944 72.4309 594.568 72.6529 595.372 72.6529C596.188 72.6529 596.818 72.4309 597.262 71.9869C597.706 71.5309 597.928 70.8769 597.928 70.0249V62.2489H600.466V70.0069C600.466 71.0749 600.232 71.9809 599.764 72.7249C599.308 73.4569 598.69 74.0089 597.91 74.3809C597.142 74.7529 596.284 74.9389 595.336 74.9389C594.4 74.9389 593.548 74.7529 592.78 74.3809C592.024 74.0089 591.424 73.4569 590.98 72.7249C590.536 71.9809 590.314 71.0749 590.314 70.0069V62.2489H592.834ZM612.063 66.1369C612.063 66.8089 611.901 67.4389 611.577 68.0269C611.265 68.6149 610.767 69.0889 610.083 69.4489C609.411 69.8089 608.559 69.9889 607.527 69.9889H605.421V74.8129H602.901V62.2489H607.527C608.499 62.2489 609.327 62.4169 610.011 62.7529C610.695 63.0889 611.205 63.5509 611.541 64.1389C611.889 64.7269 612.063 65.3929 612.063 66.1369ZM607.419 67.9549C608.115 67.9549 608.631 67.7989 608.967 67.4869C609.303 67.1629 609.471 66.7129 609.471 66.1369C609.471 64.9129 608.787 64.3009 607.419 64.3009H605.421V67.9549H607.419ZM623.014 66.1369C623.014 66.8089 622.852 67.4389 622.528 68.0269C622.216 68.6149 621.718 69.0889 621.034 69.4489C620.362 69.8089 619.51 69.9889 618.478 69.9889H616.372V74.8129H613.852V62.2489H618.478C619.45 62.2489 620.278 62.4169 620.962 62.7529C621.646 63.0889 622.156 63.5509 622.492 64.1389C622.84 64.7269 623.014 65.3929 623.014 66.1369ZM618.37 67.9549C619.066 67.9549 619.582 67.7989 619.918 67.4869C620.254 67.1629 620.422 66.7129 620.422 66.1369C620.422 64.9129 619.738 64.3009 618.37 64.3009H616.372V67.9549H618.37ZM630.635 74.9389C629.459 74.9389 628.379 74.6629 627.395 74.1109C626.411 73.5589 625.631 72.7969 625.055 71.8249C624.479 70.8409 624.191 69.7309 624.191 68.4949C624.191 67.2709 624.479 66.1729 625.055 65.2009C625.631 64.2169 626.411 63.4489 627.395 62.8969C628.379 62.3449 629.459 62.0689 630.635 62.0689C631.823 62.0689 632.903 62.3449 633.875 62.8969C634.859 63.4489 635.633 64.2169 636.197 65.2009C636.773 66.1729 637.061 67.2709 637.061 68.4949C637.061 69.7309 636.773 70.8409 636.197 71.8249C635.633 72.7969 634.859 73.5589 633.875 74.1109C632.891 74.6629 631.811 74.9389 630.635 74.9389ZM630.635 72.6889C631.391 72.6889 632.057 72.5209 632.633 72.1849C633.209 71.8369 633.659 71.3449 633.983 70.7089C634.307 70.0729 634.469 69.3349 634.469 68.4949C634.469 67.6549 634.307 66.9229 633.983 66.2989C633.659 65.6629 633.209 65.1769 632.633 64.8409C632.057 64.5049 631.391 64.3369 630.635 64.3369C629.879 64.3369 629.207 64.5049 628.619 64.8409C628.043 65.1769 627.593 65.6629 627.269 66.2989C626.945 66.9229 626.783 67.6549 626.783 68.4949C626.783 69.3349 626.945 70.0729 627.269 70.7089C627.593 71.3449 628.043 71.8369 628.619 72.1849C629.207 72.5209 629.879 72.6889 630.635 72.6889ZM645.416 74.8129L642.644 69.9169H641.456V74.8129H638.936V62.2489H643.652C644.624 62.2489 645.452 62.4229 646.136 62.7709C646.82 63.1069 647.33 63.5689 647.666 64.1569C648.014 64.7329 648.188 65.3809 648.188 66.1009C648.188 66.9289 647.948 67.6789 647.468 68.3509C646.988 69.0109 646.274 69.4669 645.326 69.7189L648.332 74.8129H645.416ZM641.456 68.0269H643.562C644.246 68.0269 644.756 67.8649 645.092 67.5409C645.428 67.2049 645.596 66.7429 645.596 66.1549C645.596 65.5789 645.428 65.1349 645.092 64.8229C644.756 64.4989 644.246 64.3369 643.562 64.3369H641.456V68.0269ZM659.017 62.2489V64.2829H655.669V74.8129H653.149V64.2829H649.801V62.2489H659.017Z" fill="#212529"/>
<circle cx="483.981" cy="67.8503" r="6.16822" fill="#2DFFB3"/>
<g filter="url(#filter3_d)">
<rect x="454.374" y="151.738" width="287.439" height="41.9439" rx="20.972" fill="white"/>
<rect x="454.874" y="152.238" width="286.439" height="40.9439" rx="20.472" stroke="#F2F2F2"/>
</g>
<path d="M501.854 173.021C501.854 172.069 502.069 171.215 502.498 170.459C502.928 169.693 503.511 169.096 504.248 168.667C504.995 168.237 505.821 168.023 506.726 168.023C507.79 168.023 508.719 168.279 509.512 168.793C510.306 169.306 510.884 170.034 511.248 170.977H509.722C509.452 170.389 509.06 169.936 508.546 169.619C508.042 169.301 507.436 169.143 506.726 169.143C506.045 169.143 505.434 169.301 504.892 169.619C504.351 169.936 503.926 170.389 503.618 170.977C503.31 171.555 503.156 172.237 503.156 173.021C503.156 173.795 503.31 174.477 503.618 175.065C503.926 175.643 504.351 176.091 504.892 176.409C505.434 176.726 506.045 176.885 506.726 176.885C507.436 176.885 508.042 176.731 508.546 176.423C509.06 176.105 509.452 175.653 509.722 175.065H511.248C510.884 175.998 510.306 176.721 509.512 177.235C508.719 177.739 507.79 177.991 506.726 177.991C505.821 177.991 504.995 177.781 504.248 177.361C503.511 176.931 502.928 176.339 502.498 175.583C502.069 174.827 501.854 173.973 501.854 173.021ZM514.391 168.149V174.323C514.391 175.191 514.601 175.835 515.021 176.255C515.45 176.675 516.043 176.885 516.799 176.885C517.546 176.885 518.129 176.675 518.549 176.255C518.978 175.835 519.193 175.191 519.193 174.323V168.149H520.467V174.309C520.467 175.121 520.304 175.807 519.977 176.367C519.65 176.917 519.207 177.328 518.647 177.599C518.096 177.869 517.476 178.005 516.785 178.005C516.094 178.005 515.469 177.869 514.909 177.599C514.358 177.328 513.92 176.917 513.593 176.367C513.276 175.807 513.117 175.121 513.117 174.309V168.149H514.391ZM525.686 178.005C525.042 178.005 524.463 177.893 523.95 177.669C523.446 177.435 523.049 177.118 522.76 176.717C522.471 176.306 522.321 175.835 522.312 175.303H523.67C523.717 175.76 523.903 176.147 524.23 176.465C524.566 176.773 525.051 176.927 525.686 176.927C526.293 176.927 526.769 176.777 527.114 176.479C527.469 176.171 527.646 175.779 527.646 175.303C527.646 174.929 527.543 174.626 527.338 174.393C527.133 174.159 526.876 173.982 526.568 173.861C526.26 173.739 525.845 173.609 525.322 173.469C524.678 173.301 524.16 173.133 523.768 172.965C523.385 172.797 523.054 172.535 522.774 172.181C522.503 171.817 522.368 171.331 522.368 170.725C522.368 170.193 522.503 169.721 522.774 169.311C523.045 168.9 523.423 168.583 523.908 168.359C524.403 168.135 524.967 168.023 525.602 168.023C526.517 168.023 527.263 168.251 527.842 168.709C528.43 169.166 528.761 169.773 528.836 170.529H527.436C527.389 170.155 527.193 169.829 526.848 169.549C526.503 169.259 526.045 169.115 525.476 169.115C524.944 169.115 524.51 169.255 524.174 169.535C523.838 169.805 523.67 170.188 523.67 170.683C523.67 171.037 523.768 171.327 523.964 171.551C524.169 171.775 524.417 171.947 524.706 172.069C525.005 172.181 525.42 172.311 525.952 172.461C526.596 172.638 527.114 172.815 527.506 172.993C527.898 173.161 528.234 173.427 528.514 173.791C528.794 174.145 528.934 174.631 528.934 175.247C528.934 175.723 528.808 176.171 528.556 176.591C528.304 177.011 527.931 177.351 527.436 177.613C526.941 177.874 526.358 178.005 525.686 178.005ZM536.815 168.149V169.185H534.155V177.907H532.881V169.185H530.207V168.149H536.815ZM542.807 178.005C541.902 178.005 541.076 177.795 540.329 177.375C539.582 176.945 538.99 176.353 538.551 175.597C538.122 174.831 537.907 173.973 537.907 173.021C537.907 172.069 538.122 171.215 538.551 170.459C538.99 169.693 539.582 169.101 540.329 168.681C541.076 168.251 541.902 168.037 542.807 168.037C543.722 168.037 544.552 168.251 545.299 168.681C546.046 169.101 546.634 169.689 547.063 170.445C547.492 171.201 547.707 172.059 547.707 173.021C547.707 173.982 547.492 174.841 547.063 175.597C546.634 176.353 546.046 176.945 545.299 177.375C544.552 177.795 543.722 178.005 542.807 178.005ZM542.807 176.899C543.488 176.899 544.1 176.74 544.641 176.423C545.192 176.105 545.621 175.653 545.929 175.065C546.246 174.477 546.405 173.795 546.405 173.021C546.405 172.237 546.246 171.555 545.929 170.977C545.621 170.389 545.196 169.936 544.655 169.619C544.114 169.301 543.498 169.143 542.807 169.143C542.116 169.143 541.5 169.301 540.959 169.619C540.418 169.936 539.988 170.389 539.671 170.977C539.363 171.555 539.209 172.237 539.209 173.021C539.209 173.795 539.363 174.477 539.671 175.065C539.988 175.653 540.418 176.105 540.959 176.423C541.51 176.74 542.126 176.899 542.807 176.899ZM559.287 168.219V177.907H558.013V170.683L554.793 177.907H553.897L550.663 170.669V177.907H549.389V168.219H550.761L554.345 176.227L557.929 168.219H559.287ZM562.722 169.185V172.447H566.278V173.497H562.722V176.857H566.698V177.907H561.448V168.135H566.698V169.185H562.722ZM573.763 177.907L571.439 173.917H569.899V177.907H568.625V168.149H571.775C572.513 168.149 573.133 168.275 573.637 168.527C574.151 168.779 574.533 169.119 574.785 169.549C575.037 169.978 575.163 170.468 575.163 171.019C575.163 171.691 574.967 172.283 574.575 172.797C574.193 173.31 573.614 173.651 572.839 173.819L575.289 177.907H573.763ZM569.899 172.895H571.775C572.466 172.895 572.984 172.727 573.329 172.391C573.675 172.045 573.847 171.588 573.847 171.019C573.847 170.44 573.675 169.992 573.329 169.675C572.993 169.357 572.475 169.199 571.775 169.199H569.899V172.895ZM582.149 176.871H585.565V177.907H580.875V168.149H582.149V176.871ZM588.192 168.149V177.907H586.918V168.149H588.192ZM595.88 168.149V169.185H591.638V172.475H595.082V173.511H591.638V177.907H590.364V168.149H595.88ZM598.692 169.185V172.447H602.248V173.497H598.692V176.857H602.668V177.907H597.418V168.135H602.668V169.185H598.692ZM610.602 168.149V169.185H607.942V177.907H606.668V169.185H603.994V168.149H610.602ZM613.444 168.149V177.907H612.17V168.149H613.444ZM625.514 168.219V177.907H624.24V170.683L621.02 177.907H620.124L616.89 170.669V177.907H615.616V168.219H616.988L620.572 176.227L624.156 168.219H625.514ZM628.948 169.185V172.447H632.504V173.497H628.948V176.857H632.924V177.907H627.674V168.135H632.924V169.185H628.948ZM646.648 168.149L642.966 177.907H641.496L637.814 168.149H639.172L642.238 176.563L645.304 168.149H646.648ZM653.813 175.737H649.557L648.773 177.907H647.429L650.957 168.205H652.427L655.941 177.907H654.597L653.813 175.737ZM653.449 174.701L651.685 169.773L649.921 174.701H653.449ZM658.753 176.871H662.169V177.907H657.479V168.149H658.753V176.871ZM664.768 168.149V174.323C664.768 175.191 664.978 175.835 665.398 176.255C665.827 176.675 666.42 176.885 667.176 176.885C667.922 176.885 668.506 176.675 668.926 176.255C669.355 175.835 669.57 175.191 669.57 174.323V168.149H670.844V174.309C670.844 175.121 670.68 175.807 670.354 176.367C670.027 176.917 669.584 177.328 669.024 177.599C668.473 177.869 667.852 178.005 667.162 178.005C666.471 178.005 665.846 177.869 665.286 177.599C664.735 177.328 664.296 176.917 663.97 176.367C663.652 175.807 663.494 175.121 663.494 174.309V168.149H664.768ZM674.243 169.185V172.447H677.799V173.497H674.243V176.857H678.219V177.907H672.969V168.135H678.219V169.185H674.243Z" fill="#5600E3"/>
<circle cx="483.981" cy="172.71" r="6.16822" fill="#5600E3"/>
<g filter="url(#filter4_d)">
<rect x="30" y="228.224" width="314.579" height="41.9439" rx="20.972" fill="white"/>
<rect x="30.5" y="228.724" width="313.579" height="40.9439" rx="20.472" stroke="#F2F2F2"/>
</g>
<path d="M85.6285 254.393H84.3545L79.2305 246.623V254.393H77.9565V244.621H79.2305L84.3545 252.377V244.621H85.6285V254.393ZM89.0742 245.671V248.933H92.6302V249.983H89.0742V253.343H93.0502V254.393H87.8002V244.621H93.0502V245.671H89.0742ZM107.242 244.635L104.414 254.393H102.986L100.718 246.539L98.366 254.393L96.952 254.407L94.222 244.635H95.58L97.708 252.909L100.06 244.635H101.488L103.728 252.881L105.87 244.635H107.242ZM111.893 249.507C111.893 248.555 112.107 247.701 112.537 246.945C112.966 246.179 113.549 245.582 114.287 245.153C115.033 244.723 115.859 244.509 116.765 244.509C117.829 244.509 118.757 244.765 119.551 245.279C120.344 245.792 120.923 246.52 121.287 247.463H119.761C119.49 246.875 119.098 246.422 118.585 246.105C118.081 245.787 117.474 245.629 116.765 245.629C116.083 245.629 115.472 245.787 114.931 246.105C114.389 246.422 113.965 246.875 113.657 247.463C113.349 248.041 113.195 248.723 113.195 249.507C113.195 250.281 113.349 250.963 113.657 251.551C113.965 252.129 114.389 252.577 114.931 252.895C115.472 253.212 116.083 253.371 116.765 253.371C117.474 253.371 118.081 253.217 118.585 252.909C119.098 252.591 119.49 252.139 119.761 251.551H121.287C120.923 252.484 120.344 253.207 119.551 253.721C118.757 254.225 117.829 254.477 116.765 254.477C115.859 254.477 115.033 254.267 114.287 253.847C113.549 253.417 112.966 252.825 112.537 252.069C112.107 251.313 111.893 250.459 111.893 249.507ZM124.429 244.635V250.809C124.429 251.677 124.639 252.321 125.059 252.741C125.488 253.161 126.081 253.371 126.837 253.371C127.584 253.371 128.167 253.161 128.587 252.741C129.016 252.321 129.231 251.677 129.231 250.809V244.635H130.505V250.795C130.505 251.607 130.342 252.293 130.015 252.853C129.688 253.403 129.245 253.814 128.685 254.085C128.134 254.355 127.514 254.491 126.823 254.491C126.132 254.491 125.507 254.355 124.947 254.085C124.396 253.814 123.958 253.403 123.631 252.853C123.314 252.293 123.155 251.607 123.155 250.795V244.635H124.429ZM135.724 254.491C135.08 254.491 134.502 254.379 133.988 254.155C133.484 253.921 133.088 253.604 132.798 253.203C132.509 252.792 132.36 252.321 132.35 251.789H133.708C133.755 252.246 133.942 252.633 134.268 252.951C134.604 253.259 135.09 253.413 135.724 253.413C136.331 253.413 136.807 253.263 137.152 252.965C137.507 252.657 137.684 252.265 137.684 251.789C137.684 251.415 137.582 251.112 137.376 250.879C137.171 250.645 136.914 250.468 136.606 250.347C136.298 250.225 135.883 250.095 135.36 249.955C134.716 249.787 134.198 249.619 133.806 249.451C133.424 249.283 133.092 249.021 132.812 248.667C132.542 248.303 132.406 247.817 132.406 247.211C132.406 246.679 132.542 246.207 132.812 245.797C133.083 245.386 133.461 245.069 133.946 244.845C134.441 244.621 135.006 244.509 135.64 244.509C136.555 244.509 137.302 244.737 137.88 245.195C138.468 245.652 138.8 246.259 138.874 247.015H137.474C137.428 246.641 137.232 246.315 136.886 246.035C136.541 245.745 136.084 245.601 135.514 245.601C134.982 245.601 134.548 245.741 134.212 246.021C133.876 246.291 133.708 246.674 133.708 247.169C133.708 247.523 133.806 247.813 134.002 248.037C134.208 248.261 134.455 248.433 134.744 248.555C135.043 248.667 135.458 248.797 135.99 248.947C136.634 249.124 137.152 249.301 137.544 249.479C137.936 249.647 138.272 249.913 138.552 250.277C138.832 250.631 138.972 251.117 138.972 251.733C138.972 252.209 138.846 252.657 138.594 253.077C138.342 253.497 137.969 253.837 137.474 254.099C136.98 254.36 136.396 254.491 135.724 254.491ZM146.853 244.635V245.671H144.193V254.393H142.919V245.671H140.245V244.635H146.853ZM152.845 254.491C151.94 254.491 151.114 254.281 150.367 253.861C149.621 253.431 149.028 252.839 148.589 252.083C148.16 251.317 147.945 250.459 147.945 249.507C147.945 248.555 148.16 247.701 148.589 246.945C149.028 246.179 149.621 245.587 150.367 245.167C151.114 244.737 151.94 244.523 152.845 244.523C153.76 244.523 154.591 244.737 155.337 245.167C156.084 245.587 156.672 246.175 157.101 246.931C157.531 247.687 157.745 248.545 157.745 249.507C157.745 250.468 157.531 251.327 157.101 252.083C156.672 252.839 156.084 253.431 155.337 253.861C154.591 254.281 153.76 254.491 152.845 254.491ZM152.845 253.385C153.527 253.385 154.138 253.226 154.679 252.909C155.23 252.591 155.659 252.139 155.967 251.551C156.285 250.963 156.443 250.281 156.443 249.507C156.443 248.723 156.285 248.041 155.967 247.463C155.659 246.875 155.235 246.422 154.693 246.105C154.152 245.787 153.536 245.629 152.845 245.629C152.155 245.629 151.539 245.787 150.997 246.105C150.456 246.422 150.027 246.875 149.709 247.463C149.401 248.041 149.247 248.723 149.247 249.507C149.247 250.281 149.401 250.963 149.709 251.551C150.027 252.139 150.456 252.591 150.997 252.909C151.548 253.226 152.164 253.385 152.845 253.385ZM169.325 244.705V254.393H168.051V247.169L164.831 254.393H163.935L160.701 247.155V254.393H159.427V244.705H160.799L164.383 252.713L167.967 244.705H169.325ZM172.76 245.671V248.933H176.316V249.983H172.76V253.343H176.736V254.393H171.486V244.621H176.736V245.671H172.76ZM183.802 254.393L181.478 250.403H179.938V254.393H178.664V244.635H181.814C182.551 244.635 183.172 244.761 183.676 245.013C184.189 245.265 184.572 245.605 184.824 246.035C185.076 246.464 185.202 246.954 185.202 247.505C185.202 248.177 185.006 248.769 184.614 249.283C184.231 249.796 183.652 250.137 182.878 250.305L185.328 254.393H183.802ZM179.938 249.381H181.814C182.504 249.381 183.022 249.213 183.368 248.877C183.713 248.531 183.886 248.074 183.886 247.505C183.886 246.926 183.713 246.478 183.368 246.161C183.032 245.843 182.514 245.685 181.814 245.685H179.938V249.381ZM196.682 252.223H192.426L191.642 254.393H190.298L193.826 244.691H195.296L198.81 254.393H197.466L196.682 252.223ZM196.318 251.187L194.554 246.259L192.79 251.187H196.318ZM199.871 249.507C199.871 248.555 200.086 247.701 200.515 246.945C200.944 246.179 201.528 245.582 202.265 245.153C203.012 244.723 203.838 244.509 204.743 244.509C205.807 244.509 206.736 244.765 207.529 245.279C208.322 245.792 208.901 246.52 209.265 247.463H207.739C207.468 246.875 207.076 246.422 206.563 246.105C206.059 245.787 205.452 245.629 204.743 245.629C204.062 245.629 203.45 245.787 202.909 246.105C202.368 246.422 201.943 246.875 201.635 247.463C201.327 248.041 201.173 248.723 201.173 249.507C201.173 250.281 201.327 250.963 201.635 251.551C201.943 252.129 202.368 252.577 202.909 252.895C203.45 253.212 204.062 253.371 204.743 253.371C205.452 253.371 206.059 253.217 206.563 252.909C207.076 252.591 207.468 252.139 207.739 251.551H209.265C208.901 252.484 208.322 253.207 207.529 253.721C206.736 254.225 205.807 254.477 204.743 254.477C203.838 254.477 203.012 254.267 202.265 253.847C201.528 253.417 200.944 252.825 200.515 252.069C200.086 251.313 199.871 250.459 199.871 249.507ZM218.988 256.241L217.042 254.295C216.566 254.425 216.08 254.491 215.586 254.491C214.68 254.491 213.854 254.281 213.108 253.861C212.361 253.431 211.768 252.839 211.33 252.083C210.9 251.317 210.686 250.459 210.686 249.507C210.686 248.555 210.9 247.701 211.33 246.945C211.768 246.179 212.361 245.587 213.108 245.167C213.854 244.737 214.68 244.523 215.586 244.523C216.5 244.523 217.331 244.737 218.078 245.167C218.824 245.587 219.412 246.175 219.842 246.931C220.271 247.687 220.486 248.545 220.486 249.507C220.486 250.44 220.28 251.28 219.87 252.027C219.459 252.773 218.894 253.361 218.176 253.791L220.64 256.241H218.988ZM211.988 249.507C211.988 250.281 212.142 250.963 212.45 251.551C212.767 252.139 213.196 252.591 213.738 252.909C214.288 253.226 214.904 253.385 215.586 253.385C216.267 253.385 216.878 253.226 217.42 252.909C217.97 252.591 218.4 252.139 218.708 251.551C219.025 250.963 219.184 250.281 219.184 249.507C219.184 248.723 219.025 248.041 218.708 247.463C218.4 246.875 217.975 246.422 217.434 246.105C216.892 245.787 216.276 245.629 215.586 245.629C214.895 245.629 214.279 245.787 213.738 246.105C213.196 246.422 212.767 246.875 212.45 247.463C212.142 248.041 211.988 248.723 211.988 249.507ZM223.441 244.635V250.809C223.441 251.677 223.651 252.321 224.071 252.741C224.5 253.161 225.093 253.371 225.849 253.371C226.595 253.371 227.179 253.161 227.599 252.741C228.028 252.321 228.243 251.677 228.243 250.809V244.635H229.517V250.795C229.517 251.607 229.353 252.293 229.027 252.853C228.7 253.403 228.257 253.814 227.697 254.085C227.146 254.355 226.525 254.491 225.835 254.491C225.144 254.491 224.519 254.355 223.959 254.085C223.408 253.814 222.969 253.403 222.643 252.853C222.325 252.293 222.167 251.607 222.167 250.795V244.635H223.441ZM232.916 244.635V254.393H231.642V244.635H232.916ZM238.181 254.491C237.537 254.491 236.959 254.379 236.445 254.155C235.941 253.921 235.545 253.604 235.255 253.203C234.966 252.792 234.817 252.321 234.807 251.789H236.165C236.212 252.246 236.399 252.633 236.725 252.951C237.061 253.259 237.547 253.413 238.181 253.413C238.788 253.413 239.264 253.263 239.609 252.965C239.964 252.657 240.141 252.265 240.141 251.789C240.141 251.415 240.039 251.112 239.833 250.879C239.628 250.645 239.371 250.468 239.063 250.347C238.755 250.225 238.34 250.095 237.817 249.955C237.173 249.787 236.655 249.619 236.263 249.451C235.881 249.283 235.549 249.021 235.269 248.667C234.999 248.303 234.863 247.817 234.863 247.211C234.863 246.679 234.999 246.207 235.269 245.797C235.54 245.386 235.918 245.069 236.403 244.845C236.898 244.621 237.463 244.509 238.097 244.509C239.012 244.509 239.759 244.737 240.337 245.195C240.925 245.652 241.257 246.259 241.331 247.015H239.931C239.885 246.641 239.689 246.315 239.343 246.035C238.998 245.745 238.541 245.601 237.971 245.601C237.439 245.601 237.005 245.741 236.669 246.021C236.333 246.291 236.165 246.674 236.165 247.169C236.165 247.523 236.263 247.813 236.459 248.037C236.665 248.261 236.912 248.433 237.201 248.555C237.5 248.667 237.915 248.797 238.447 248.947C239.091 249.124 239.609 249.301 240.001 249.479C240.393 249.647 240.729 249.913 241.009 250.277C241.289 250.631 241.429 251.117 241.429 251.733C241.429 252.209 241.303 252.657 241.051 253.077C240.799 253.497 240.426 253.837 239.931 254.099C239.437 254.36 238.853 254.491 238.181 254.491ZM244.578 244.635V254.393H243.304V244.635H244.578ZM252.755 244.635V245.671H250.095V254.393H248.821V245.671H246.147V244.635H252.755ZM255.598 244.635V254.393H254.324V244.635H255.598ZM262.193 254.491C261.288 254.491 260.462 254.281 259.715 253.861C258.968 253.431 258.376 252.839 257.937 252.083C257.508 251.317 257.293 250.459 257.293 249.507C257.293 248.555 257.508 247.701 257.937 246.945C258.376 246.179 258.968 245.587 259.715 245.167C260.462 244.737 261.288 244.523 262.193 244.523C263.108 244.523 263.938 244.737 264.685 245.167C265.432 245.587 266.02 246.175 266.449 246.931C266.878 247.687 267.093 248.545 267.093 249.507C267.093 250.468 266.878 251.327 266.449 252.083C266.02 252.839 265.432 253.431 264.685 253.861C263.938 254.281 263.108 254.491 262.193 254.491ZM262.193 253.385C262.874 253.385 263.486 253.226 264.027 252.909C264.578 252.591 265.007 252.139 265.315 251.551C265.632 250.963 265.791 250.281 265.791 249.507C265.791 248.723 265.632 248.041 265.315 247.463C265.007 246.875 264.582 246.422 264.041 246.105C263.5 245.787 262.884 245.629 262.193 245.629C261.502 245.629 260.886 245.787 260.345 246.105C259.804 246.422 259.374 246.875 259.057 247.463C258.749 248.041 258.595 248.723 258.595 249.507C258.595 250.281 258.749 250.963 259.057 251.551C259.374 252.139 259.804 252.591 260.345 252.909C260.896 253.226 261.512 253.385 262.193 253.385ZM276.447 254.393H275.173L270.049 246.623V254.393H268.775V244.621H270.049L275.173 252.377V244.621H276.447V254.393Z" fill="#5600E3"/>
<circle cx="59.6075" cy="249.196" r="6.16822" fill="#5600E3"/>
<g filter="url(#filter5_d)">
<rect x="297.701" y="329.383" width="265.234" height="41.9439" rx="20.972" fill="white"/>
<rect x="298.201" y="329.883" width="264.234" height="40.9439" rx="20.472" stroke="#F2F2F2"/>
</g>
<path d="M351.418 353.068L347.162 353.057L346.372 355.225L345.028 355.222L348.582 345.529L350.052 345.533L353.54 355.244L352.196 355.24L351.418 353.068ZM351.057 352.031L349.306 347.099L347.529 352.022L351.057 352.031ZM363.167 345.511L359.46 355.259L357.99 355.255L354.333 345.488L355.691 345.491L358.735 353.913L361.823 345.507L363.167 345.511ZM365.836 346.554L365.827 349.816L369.383 349.825L369.38 350.875L365.824 350.866L365.816 354.226L369.792 354.236L369.789 355.286L364.539 355.272L364.564 345.5L369.814 345.514L369.812 346.564L365.836 346.554ZM376.855 355.304L374.541 351.308L373.001 351.304L372.991 355.294L371.717 355.291L371.742 345.533L374.892 345.541C375.629 345.543 376.25 345.671 376.753 345.924C377.266 346.177 377.647 346.519 377.898 346.949C378.149 347.379 378.274 347.869 378.272 348.42C378.271 349.092 378.073 349.684 377.68 350.196C377.296 350.709 376.716 351.048 375.941 351.214L378.381 355.308L376.855 355.304ZM373.004 350.282L374.88 350.287C375.57 350.289 376.089 350.122 376.435 349.787C376.781 349.443 376.955 348.986 376.956 348.416C376.958 347.838 376.786 347.389 376.442 347.071C376.107 346.753 375.589 346.593 374.889 346.591L373.013 346.586L373.004 350.282ZM386.008 353.158L381.752 353.147L380.962 355.315L379.618 355.311L383.171 345.619L384.641 345.622L388.13 355.333L386.786 355.33L386.008 353.158ZM385.646 352.121L383.895 347.188L382.118 352.112L385.646 352.121ZM397.078 348.427C396.808 347.857 396.418 347.417 395.905 347.108C395.393 346.789 394.796 346.629 394.114 346.627C393.433 346.625 392.817 346.782 392.265 347.098C391.723 347.405 391.292 347.852 390.974 348.439C390.664 349.017 390.508 349.688 390.506 350.454C390.504 351.219 390.657 351.891 390.963 352.471C391.279 353.05 391.707 353.499 392.248 353.818C392.798 354.128 393.413 354.283 394.094 354.285C395.046 354.287 395.831 354.005 396.449 353.437C397.066 352.869 397.427 352.1 397.533 351.13L393.641 351.12L393.643 350.084L398.893 350.097L398.891 351.077C398.814 351.88 398.56 352.616 398.129 353.287C397.698 353.949 397.132 354.475 396.431 354.865C395.73 355.246 394.95 355.435 394.092 355.433C393.186 355.431 392.361 355.218 391.615 354.796C390.87 354.365 390.278 353.771 389.842 353.014C389.414 352.257 389.202 351.402 389.204 350.45C389.207 349.498 389.424 348.645 389.855 347.89C390.296 347.126 390.89 346.535 391.638 346.116C392.385 345.689 393.212 345.477 394.117 345.479C395.153 345.482 396.067 345.741 396.859 346.256C397.661 346.771 398.242 347.496 398.604 348.431L397.078 348.427ZM401.861 346.647L401.852 349.909L405.408 349.918L405.406 350.968L401.85 350.959L401.841 354.319L405.817 354.329L405.814 355.379L400.564 355.366L400.59 345.594L405.839 345.607L405.837 346.657L401.861 346.647ZM415.898 355.503C414.993 355.501 414.167 355.289 413.422 354.867C412.676 354.436 412.085 353.842 411.648 353.084C411.221 352.318 411.009 351.459 411.011 350.507C411.013 349.555 411.23 348.701 411.662 347.946C412.102 347.182 412.696 346.591 413.444 346.173C414.192 345.746 415.019 345.533 415.924 345.535C416.839 345.538 417.669 345.755 418.414 346.186C419.16 346.608 419.746 347.197 420.174 347.954C420.601 348.712 420.813 349.571 420.811 350.532C420.808 351.493 420.592 352.352 420.16 353.106C419.729 353.861 419.139 354.452 418.392 354.88C417.644 355.298 416.813 355.506 415.898 355.503ZM415.901 354.397C416.582 354.399 417.194 354.242 417.736 353.926C418.288 353.61 418.718 353.159 419.028 352.571C419.347 351.984 419.507 351.303 419.509 350.529C419.511 349.745 419.354 349.063 419.038 348.484C418.732 347.895 418.308 347.441 417.768 347.122C417.227 346.803 416.612 346.643 415.921 346.641C415.23 346.64 414.614 346.797 414.072 347.113C413.53 347.429 413.099 347.88 412.78 348.467C412.471 349.045 412.315 349.726 412.313 350.51C412.311 351.285 412.463 351.966 412.77 352.555C413.085 353.144 413.514 353.598 414.054 353.917C414.604 354.235 415.22 354.396 415.901 354.397ZM427.618 355.436L425.304 351.44L423.764 351.436L423.754 355.426L422.48 355.422L422.505 345.664L425.655 345.673C426.393 345.675 427.013 345.802 427.516 346.055C428.029 346.309 428.411 346.65 428.662 347.08C428.913 347.51 429.037 348.001 429.036 348.551C429.034 349.223 428.837 349.816 428.443 350.328C428.059 350.84 427.48 351.179 426.705 351.345L429.144 355.44L427.618 355.436ZM423.767 350.414L425.643 350.419C426.334 350.42 426.852 350.254 427.198 349.919C427.545 349.574 427.718 349.117 427.72 348.548C427.721 347.969 427.55 347.521 427.205 347.203C426.87 346.884 426.353 346.724 425.653 346.723L423.777 346.718L423.767 350.414ZM434.061 345.694C435.125 345.697 436.044 345.9 436.817 346.304C437.6 346.698 438.196 347.264 438.605 348.002C439.023 348.741 439.231 349.609 439.228 350.608C439.226 351.607 439.013 352.474 438.591 353.21C438.179 353.937 437.58 354.496 436.795 354.886C436.019 355.266 435.1 355.455 434.036 355.452L430.998 355.445L431.023 345.687L434.061 345.694ZM434.038 354.402C435.298 354.406 436.261 354.077 436.925 353.416C437.589 352.746 437.923 351.808 437.926 350.604C437.929 349.391 437.596 348.443 436.926 347.76C436.265 347.077 435.309 346.734 434.058 346.73L432.294 346.726L432.274 354.398L434.038 354.402ZM442.193 346.752L442.184 350.014L445.74 350.023L445.737 351.073L442.182 351.063L442.173 354.423L446.149 354.434L446.146 355.484L440.896 355.47L440.921 345.698L446.171 345.712L446.169 346.762L442.193 346.752ZM453.212 355.502L450.898 351.506L449.358 351.502L449.348 355.492L448.074 355.489L448.099 345.731L451.249 345.739C451.986 345.741 452.607 345.869 453.11 346.122C453.623 346.375 454.005 346.717 454.255 347.147C454.506 347.577 454.631 348.067 454.63 348.618C454.628 349.29 454.43 349.882 454.037 350.394C453.653 350.907 453.073 351.246 452.298 351.412L454.738 355.506L453.212 355.502ZM449.361 350.48L451.237 350.485C451.927 350.487 452.446 350.32 452.792 349.985C453.138 349.641 453.312 349.184 453.314 348.614C453.315 348.036 453.144 347.587 452.799 347.269C452.464 346.951 451.946 346.791 451.246 346.789L449.37 346.784L449.361 350.48ZM468.413 345.783L464.706 355.532L463.236 355.528L459.579 345.761L460.937 345.764L463.981 354.186L467.069 345.78L468.413 345.783ZM475.558 353.39L471.302 353.379L470.513 355.547L469.169 355.543L472.722 345.851L474.192 345.854L477.681 355.566L476.337 355.562L475.558 353.39ZM475.197 352.353L473.446 347.421L471.669 352.344L475.197 352.353ZM480.495 354.537L483.911 354.546L483.908 355.582L479.218 355.57L479.244 345.812L480.518 345.815L480.495 354.537ZM486.532 345.83L486.516 352.004C486.514 352.872 486.723 353.517 487.141 353.938C487.57 354.359 488.162 354.571 488.918 354.573C489.664 354.575 490.248 354.366 490.669 353.947C491.1 353.528 491.316 352.885 491.318 352.017L491.334 345.843L492.608 345.846L492.592 352.006C492.59 352.818 492.425 353.504 492.097 354.063C491.769 354.613 491.325 355.022 490.764 355.291C490.213 355.561 489.592 355.694 488.901 355.693C488.21 355.691 487.585 355.554 487.026 355.282C486.476 355.01 486.038 354.598 485.713 354.046C485.397 353.486 485.24 352.799 485.242 351.987L485.258 345.827L486.532 345.83ZM496.005 346.891L495.997 350.153L499.553 350.162L499.55 351.212L495.994 351.203L495.985 354.563L499.961 354.573L499.958 355.623L494.708 355.61L494.734 345.838L499.984 345.851L499.981 346.901L496.005 346.891Z" fill="#5600E3"/>
<circle cx="327.308" cy="350.355" r="6.16822" fill="#5600E3"/>
<defs>
<filter id="filter0_d" x="180.112" y="386.037" width="507.813" height="108.112" filterUnits="userSpaceOnUse" color-interpolation-filters="sRGB">
<feFlood flood-opacity="0" result="BackgroundImageFix"/>
<feColorMatrix in="SourceAlpha" type="matrix" values="0 0 0 0 0 0 0 0 0 0 0 0 0 0 0 0 0 0 127 0"/>
<feMorphology radius="10" operator="dilate" in="SourceAlpha" result="effect1_dropShadow"/>
<feOffset dy="4"/>
<feGaussianBlur stdDeviation="10"/>
<feColorMatrix type="matrix" values="0 0 0 0 0.440052 0 0 0 0 0.469058 0 0 0 0 0.495833 0 0 0 0.05 0"/>
<feBlend mode="normal" in2="BackgroundImageFix" result="effect1_dropShadow"/>
<feBlend mode="normal" in="SourceGraphic" in2="effect1_dropShadow" result="shape"/>
</filter>
<filter id="filter1_d" x="156.673" y="76.3925" width="253.682" height="108.112" filterUnits="userSpaceOnUse" color-interpolation-filters="sRGB">
<feFlood flood-opacity="0" result="BackgroundImageFix"/>
<feColorMatrix in="SourceAlpha" type="matrix" values="0 0 0 0 0 0 0 0 0 0 0 0 0 0 0 0 0 0 127 0"/>
<feMorphology radius="10" operator="dilate" in="SourceAlpha" result="effect1_dropShadow"/>
<feOffset dy="4"/>
<feGaussianBlur stdDeviation="10"/>
<feColorMatrix type="matrix" values="0 0 0 0 0.440052 0 0 0 0 0.469058 0 0 0 0 0.495833 0 0 0 0.05 0"/>
<feBlend mode="normal" in2="BackgroundImageFix" result="effect1_dropShadow"/>
<feBlend mode="normal" in="SourceGraphic" in2="effect1_dropShadow" result="shape"/>
</filter>
<filter id="filter2_d" x="424.374" y="17.1776" width="327.701" height="108.112" filterUnits="userSpaceOnUse" color-interpolation-filters="sRGB">
<feFlood flood-opacity="0" result="BackgroundImageFix"/>
<feColorMatrix in="SourceAlpha" type="matrix" values="0 0 0 0 0 0 0 0 0 0 0 0 0 0 0 0 0 0 127 0"/>
<feMorphology radius="10" operator="dilate" in="SourceAlpha" result="effect1_dropShadow"/>
<feOffset dy="4"/>
<feGaussianBlur stdDeviation="10"/>
<feColorMatrix type="matrix" values="0 0 0 0 0.440052 0 0 0 0 0.469058 0 0 0 0 0.495833 0 0 0 0.05 0"/>
<feBlend mode="normal" in2="BackgroundImageFix" result="effect1_dropShadow"/>
<feBlend mode="normal" in="SourceGraphic" in2="effect1_dropShadow" result="shape"/>
</filter>
<filter id="filter3_d" x="424.374" y="125.738" width="347.439" height="101.944" filterUnits="userSpaceOnUse" color-interpolation-filters="sRGB">
<feFlood flood-opacity="0" result="BackgroundImageFix"/>
<feColorMatrix in="SourceAlpha" type="matrix" values="0 0 0 0 0 0 0 0 0 0 0 0 0 0 0 0 0 0 127 0"/>
<feMorphology radius="10" operator="dilate" in="SourceAlpha" result="effect1_dropShadow"/>
<feOffset dy="4"/>
<feGaussianBlur stdDeviation="10"/>
<feColorMatrix type="matrix" values="0 0 0 0 0.440052 0 0 0 0 0.469058 0 0 0 0 0.495833 0 0 0 0.05 0"/>
<feBlend mode="normal" in2="BackgroundImageFix" result="effect1_dropShadow"/>
<feBlend mode="normal" in="SourceGraphic" in2="effect1_dropShadow" result="shape"/>
</filter>
<filter id="filter4_d" x="0" y="202.224" width="374.579" height="101.944" filterUnits="userSpaceOnUse" color-interpolation-filters="sRGB">
<feFlood flood-opacity="0" result="BackgroundImageFix"/>
<feColorMatrix in="SourceAlpha" type="matrix" values="0 0 0 0 0 0 0 0 0 0 0 0 0 0 0 0 0 0 127 0"/>
<feMorphology radius="10" operator="dilate" in="SourceAlpha" result="effect1_dropShadow"/>
<feOffset dy="4"/>
<feGaussianBlur stdDeviation="10"/>
<feColorMatrix type="matrix" values="0 0 0 0 0.440052 0 0 0 0 0.469058 0 0 0 0 0.495833 0 0 0 0.05 0"/>
<feBlend mode="normal" in2="BackgroundImageFix" result="effect1_dropShadow"/>
<feBlend mode="normal" in="SourceGraphic" in2="effect1_dropShadow" result="shape"/>
</filter>
<filter id="filter5_d" x="267.701" y="303.383" width="325.234" height="101.944" filterUnits="userSpaceOnUse" color-interpolation-filters="sRGB">
<feFlood flood-opacity="0" result="BackgroundImageFix"/>
<feColorMatrix in="SourceAlpha" type="matrix" values="0 0 0 0 0 0 0 0 0 0 0 0 0 0 0 0 0 0 127 0"/>
<feMorphology radius="10" operator="dilate" in="SourceAlpha" result="effect1_dropShadow"/>
<feOffset dy="4"/>
<feGaussianBlur stdDeviation="10"/>
<feColorMatrix type="matrix" values="0 0 0 0 0.440052 0 0 0 0 0.469058 0 0 0 0 0.495833 0 0 0 0.05 0"/>
<feBlend mode="normal" in2="BackgroundImageFix" result="effect1_dropShadow"/>
<feBlend mode="normal" in="SourceGraphic" in2="effect1_dropShadow" result="shape"/>
</filter>
<linearGradient id="paint0_linear" x1="429.701" y1="78.9533" x2="429.701" y2="449.047" gradientUnits="userSpaceOnUse">
<stop stop-color="#D9E1FF"/>
<stop offset="1" stop-color="white" stop-opacity="0"/>
</linearGradient>
</defs>
</svg>
