<svg id="eQPEq4TB3wI1" xmlns="http://www.w3.org/2000/svg" xmlns:xlink="http://www.w3.org/1999/xlink" viewBox="0 0 366 402" shape-rendering="geometricPrecision" text-rendering="geometricPrecision"><style><![CDATA[#eQPEq4TB3wI74_to {animation: eQPEq4TB3wI74_to__to 3000ms linear infinite normal forwards}@keyframes eQPEq4TB3wI74_to__to { 0% {transform: translate(271.244102px,216.502022px)} 46.666667% {transform: translate(267.059564px,204.722486px)} 100% {transform: translate(271.244102px,216.502022px)}} #eQPEq4TB3wI74_tr {animation: eQPEq4TB3wI74_tr__tr 3000ms linear infinite normal forwards}@keyframes eQPEq4TB3wI74_tr__tr { 0% {transform: rotate(0deg)} 46.666667% {transform: rotate(17.140006deg)} 100% {transform: rotate(0deg)}} #eQPEq4TB3wI111 {animation: eQPEq4TB3wI111_c_o 3000ms linear infinite normal forwards}@keyframes eQPEq4TB3wI111_c_o { 0% {opacity: 1} 46.666667% {opacity: 0.200000} 100% {opacity: 1}} #eQPEq4TB3wI112_to {animation: eQPEq4TB3wI112_to__to 3000ms linear infinite normal forwards}@keyframes eQPEq4TB3wI112_to__to { 0% {transform: translate(48.023499px,89.605000px)} 33.333333% {transform: translate(69.180453px,89.391526px)} 66.666667% {transform: translate(31.348000px,89.391526px)} 100% {transform: translate(48.023499px,89.605000px)}}]]></style><defs><linearGradient id="eQPEq4TB3wI3-fill" x1="0.442100" y1="0.776200" x2="0.441200" y2="0.707400" spreadMethod="pad" gradientUnits="objectBoundingBox"><stop id="eQPEq4TB3wI3-fill-0" offset="0%" stop-color="rgba(255,255,255,0)"/><stop id="eQPEq4TB3wI3-fill-1" offset="100%" stop-color="rgb(230,240,248)"/></linearGradient><linearGradient id="eQPEq4TB3wI4-fill" x1="0.503200" y1="4.614000" x2="0.503200" y2="-0.666100" spreadMethod="pad" gradientUnits="objectBoundingBox"><stop id="eQPEq4TB3wI4-fill-0" offset="0%" stop-color="rgba(255,255,255,0)"/><stop id="eQPEq4TB3wI4-fill-1" offset="100%" stop-color="rgb(230,240,248)"/></linearGradient></defs><g id="eQPEq4TB3wI2"><path id="eQPEq4TB3wI3" d="M76.021000,58.334000C76.365000,56.700000,76.847000,55.077000,77.491000,53.475000C83.165000,39.371000,98.428000,30.803000,112.522000,27.417000C129.427000,23.353000,147.510000,24.331000,163.878000,30.201000C192.217000,40.370000,214.077000,64.161000,242.372000,74.449000C257.271000,79.867000,273.284000,81.275000,288.773000,84.640000C324.512000,92.391000,359.210000,123.480000,357.666000,162.858000C354.707000,238.239000,253.045000,249.806000,196.260000,244.173000C183.401000,242.893000,170.808000,240.528000,158.559000,236.228000C143.531000,230.950000,129.040000,221.704000,113.391000,217.007000C87.638000,209.267000,59.557000,223.070000,33.267000,217.415000C-18.304000,206.321000,20.310000,142.916000,45.420000,125.458000C55.567000,118.406000,66.357000,111.279000,72.256000,100.400000C79.443000,87.177000,73.072000,72.213000,76.021000,58.334000Z" fill="url(#eQPEq4TB3wI3-fill)" fill-rule="evenodd" stroke="none" stroke-width="1"/><path id="eQPEq4TB3wI4" d="M203.750000,376.035000C288.788000,376.035000,357.715000,369.501000,357.715000,361.455000C357.715000,353.409000,288.788000,346.875000,203.750000,346.875000C118.712000,346.875000,49.786000,353.409000,49.786000,361.455000C49.786000,369.501000,118.712000,376.035000,203.750000,376.035000Z" fill="url(#eQPEq4TB3wI4-fill)" fill-rule="evenodd" stroke="none" stroke-width="1"/><path id="eQPEq4TB3wI5" d="M279.463000,361.130000C275.731000,361.127000,272.001000,361.127000,268.274000,361.130000C268.439000,358.156000,270.907000,355.843000,273.868000,355.843000C276.830000,355.843000,279.243000,358.211000,279.463000,361.130000Z" fill="rgb(13,23,43)" fill-rule="evenodd" stroke="none" stroke-width="1"/><path id="eQPEq4TB3wI6" d="M273.866000,367.137000C276.259000,367.137000,278.198000,365.189000,278.198000,362.786000C278.198000,360.383000,276.259000,358.435000,273.866000,358.435000C271.473000,358.435000,269.533000,360.383000,269.533000,362.786000C269.533000,365.189000,271.473000,367.137000,273.866000,367.137000Z" fill="rgb(13,23,43)" fill-rule="evenodd" stroke="none" stroke-width="1"/><path id="eQPEq4TB3wI7" d="M246.004000,362.786000C246.004000,365.210000,244.030000,367.137000,241.671000,367.137000C241.342000,367.137000,241.013000,367.082000,240.684000,367.027000C238.764000,366.587000,237.339000,364.824000,237.339000,362.786000C237.339000,360.363000,239.258000,358.435000,241.671000,358.435000C243.700000,358.435000,245.401000,359.812000,245.894000,361.685000C245.949000,362.015000,246.004000,362.400000,246.004000,362.786000Z" fill="rgb(13,23,43)" fill-rule="evenodd" stroke="none" stroke-width="1"/><path id="eQPEq4TB3wI8" d="M242.331000,279.121000C238.124000,279.119000,233.919000,279.119000,229.716000,279.121000C229.714000,301.462000,229.714000,323.805000,229.716000,346.151000C233.919000,346.148000,238.124000,346.148000,242.331000,346.151000C242.329000,323.805000,242.329000,301.462000,242.331000,279.121000Z" fill="rgb(56,63,83)" fill-rule="evenodd" stroke="none" stroke-width="1"/><path id="eQPEq4TB3wI9" d="M243.428000,350.337000C238.416000,350.334000,233.407000,350.334000,228.400000,350.337000C228.398000,343.872000,228.398000,337.409000,228.400000,330.950000C228.400000,330.290000,228.948000,329.683000,229.661000,329.683000C233.846000,329.680000,238.032000,329.680000,242.221000,329.683000C242.879000,329.683000,243.482000,330.235000,243.482000,330.950000C243.480000,337.409000,243.480000,343.872000,243.482000,350.337000C243.462000,350.334000,243.444000,350.334000,243.428000,350.337000Z" fill="rgb(13,23,43)" fill-rule="evenodd" stroke="none" stroke-width="1"/><path id="eQPEq4TB3wI10" d="M194.180000,356.670000C207.250000,356.667000,220.321000,356.667000,233.395000,356.670000C233.392000,353.968000,233.392000,351.269000,233.395000,348.574000C220.321000,350.039000,207.250000,351.508000,194.180000,352.980000C194.178000,354.207000,194.178000,355.437000,194.180000,356.670000Z" fill="rgb(13,23,43)" fill-rule="evenodd" stroke="none" stroke-width="1"/><path id="eQPEq4TB3wI11" d="M277.928000,356.670000C264.854000,356.667000,251.783000,356.667000,238.714000,356.670000C238.711000,353.968000,238.711000,351.269000,238.714000,348.574000C251.783000,350.039000,264.854000,351.508000,277.928000,352.980000C277.926000,354.207000,277.926000,355.437000,277.928000,356.670000Z" fill="rgb(13,23,43)" fill-rule="evenodd" stroke="none" stroke-width="1"/><path id="eQPEq4TB3wI12" d="M232.019000,348.025000C232.017000,350.904000,232.017000,353.787000,232.019000,356.672000C235.070000,357.826000,238.123000,358.982000,241.178000,360.142000C241.249000,358.120000,241.322000,356.100000,241.398000,354.084000C240.499000,352.245000,239.604000,350.409000,238.710000,348.576000C236.478000,348.389000,234.247000,348.205000,232.019000,348.025000Z" fill="rgb(13,23,43)" fill-rule="evenodd" stroke="none" stroke-width="1"/><path id="eQPEq4TB3wI13" d="M241.179000,360.142000C242.768000,360.139000,244.358000,360.139000,245.951000,360.142000C245.949000,358.119000,245.949000,356.100000,245.951000,354.083000C244.431000,352.538000,242.914000,350.996000,241.399000,349.457000C238.727000,349.453000,236.058000,349.453000,233.391000,349.457000C236.058000,350.996000,238.727000,352.538000,241.399000,354.083000C241.323000,356.100000,241.250000,358.119000,241.179000,360.142000Z" fill="rgb(27,43,68)" fill-rule="evenodd" stroke="none" stroke-width="1"/><path id="eQPEq4TB3wI14" d="M242.331000,291.739000C238.875000,288.268000,233.227000,288.268000,229.716000,291.739000C229.714000,287.513000,229.714000,283.291000,229.716000,279.071000C233.919000,279.068000,238.124000,279.068000,242.331000,279.071000C242.329000,283.291000,242.329000,287.513000,242.331000,291.739000Z" fill="rgb(38,44,56)" fill-rule="evenodd" stroke="none" stroke-width="1"/><path id="eQPEq4TB3wI15" d="M246.118000,287.163000C239.388000,287.160000,232.660000,287.160000,225.934000,287.163000C222.479000,287.163000,219.627000,284.353000,219.627000,280.829000C219.625000,279.871000,219.625000,278.916000,219.627000,277.964000C230.557000,277.962000,241.489000,277.962000,252.424000,277.964000C252.422000,278.916000,252.422000,279.871000,252.424000,280.829000C252.424000,284.353000,249.627000,287.163000,246.118000,287.163000Z" fill="rgb(56,63,83)" fill-rule="evenodd" stroke="none" stroke-width="1"/><path id="eQPEq4TB3wI16" d="M203.173000,361.130000C199.441000,361.127000,195.712000,361.127000,191.984000,361.130000C192.149000,358.156000,194.617000,355.843000,197.579000,355.843000C200.594000,355.843000,203.009000,358.211000,203.173000,361.130000Z" fill="rgb(13,23,43)" fill-rule="evenodd" stroke="none" stroke-width="1"/><path id="eQPEq4TB3wI17" d="M247.267000,361.130000C243.535000,361.127000,239.806000,361.127000,236.079000,361.130000C236.244000,358.156000,238.712000,355.843000,241.673000,355.843000C244.635000,355.843000,247.048000,358.211000,247.267000,361.130000Z" fill="rgb(13,23,43)" fill-rule="evenodd" stroke="none" stroke-width="1"/><path id="eQPEq4TB3wI18" d="M241.893000,355.625000C241.707000,355.695000,241.524000,355.769000,241.344000,355.846000C241.344000,355.846000,243.592000,357.994000,242.331000,361.133000C243.956000,361.130000,245.583000,361.130000,247.212000,361.133000C247.267000,361.133000,247.870000,356.342000,241.893000,355.625000Z" fill="rgb(27,43,68)" fill-rule="evenodd" stroke="none" stroke-width="1"/><path id="eQPEq4TB3wI19" d="M246.010000,362.785000C246.010000,365.208000,244.035000,367.136000,241.678000,367.136000C241.348000,367.136000,241.020000,367.080000,240.690000,367.025000C240.834000,367.022000,240.980000,367.022000,241.129000,367.025000C244.035000,367.080000,245.187000,363.831000,243.267000,361.684000C244.143000,361.680000,245.020000,361.680000,245.901000,361.684000C245.955000,362.013000,246.010000,362.399000,246.010000,362.785000Z" fill="rgb(27,43,68)" fill-rule="evenodd" stroke="none" stroke-width="1"/><path id="eQPEq4TB3wI20" d="M47.522000,367.576000C45.346000,367.573000,43.171000,367.573000,40.996000,367.576000C62.166000,322.428000,83.336000,277.283000,104.507000,232.140000C106.937000,232.138000,109.369000,232.138000,111.801000,232.140000C90.374000,277.283000,68.948000,322.428000,47.522000,367.576000Z" fill="rgb(56,63,83)" fill-rule="evenodd" stroke="none" stroke-width="1"/><path id="eQPEq4TB3wI21" d="M49.385000,367.576000C47.209000,367.573000,45.034000,367.573000,42.859000,367.576000C64.029000,322.428000,85.199000,277.283000,106.370000,232.140000C108.801000,232.138000,111.232000,232.138000,113.665000,232.140000C92.237000,277.283000,70.811000,322.428000,49.385000,367.576000Z" fill="rgb(56,63,83)" fill-rule="evenodd" stroke="none" stroke-width="1"/><path id="eQPEq4TB3wI22" d="M109.553000,367.579000C111.727000,367.575000,113.903000,367.575000,116.080000,367.579000C91.892000,322.430000,67.705000,277.285000,43.519000,232.142000C41.087000,232.140000,38.655000,232.140000,36.224000,232.142000C60.667000,277.285000,85.109000,322.430000,109.553000,367.579000Z" fill="rgb(56,63,83)" fill-rule="evenodd" stroke="none" stroke-width="1"/><path id="eQPEq4TB3wI23" d="M111.255000,367.576000C113.430000,367.573000,115.605000,367.573000,117.782000,367.576000C93.594000,322.428000,69.408000,277.283000,45.221000,232.140000C42.789000,232.138000,40.358000,232.138000,37.927000,232.140000C62.369000,277.283000,86.812000,322.428000,111.255000,367.576000Z" fill="rgb(56,63,83)" fill-rule="evenodd" stroke="none" stroke-width="1"/><path id="eQPEq4TB3wI24" d="M300.058000,128.759000C275.018000,128.758000,249.981000,128.758000,224.947000,128.759000C221.451000,128.759000,218.611000,131.624000,218.611000,135.150000C213.656000,178.321000,208.704000,221.494000,203.753000,264.669000C203.753000,268.195000,206.593000,271.060000,210.089000,271.060000C235.124000,271.058000,260.161000,271.058000,285.200000,271.060000C288.696000,271.060000,291.536000,268.195000,291.536000,264.669000C296.486000,221.494000,301.439000,178.321000,306.395000,135.150000C306.396000,131.624000,303.555000,128.759000,300.058000,128.759000Z" fill="rgb(69,107,165)" fill-rule="evenodd" stroke="none" stroke-width="1"/><path id="eQPEq4TB3wI25" d="M286.938000,271.059000C250.529000,271.056000,214.121000,271.056000,177.716000,271.059000C176.628000,271.059000,175.757000,271.916000,175.757000,272.987000C175.756000,275.198000,175.756000,277.412000,175.757000,279.629000C175.757000,280.699000,176.628000,281.556000,177.716000,281.557000C214.121000,281.555000,250.529000,281.554000,286.938000,281.557000C288.028000,281.556000,288.897000,280.699000,288.897000,279.629000C288.894000,277.412000,288.894000,275.198000,288.897000,272.987000C288.897000,271.916000,287.972000,271.059000,286.938000,271.059000Z" fill="rgb(58,97,155)" fill-rule="evenodd" stroke="none" stroke-width="1"/><path id="eQPEq4TB3wI26" d="M252.276000,271.022000C260.376000,271.794000,266.744000,260.757000,274.899000,260.977000C273.314000,252.641000,271.731000,244.307000,270.151000,235.976000C251.231000,234.060000,232.314000,232.147000,213.399000,230.236000C210.958000,239.672000,208.519000,249.109000,206.082000,258.549000C218.538000,273.837000,237.474000,269.642000,252.276000,271.022000Z" fill="rgb(6,0,75)" fill-rule="evenodd" stroke="none" stroke-width="1"/><path id="eQPEq4TB3wI27" d="M272.721000,106.730000C279.686000,102.434000,277.327000,109.649000,276.999000,112.348000C276.670000,115.047000,274.146000,119.949000,271.788000,118.957000C269.429000,117.966000,272.721000,106.730000,272.721000,106.730000Z" fill="rgb(226,179,179)" fill-rule="evenodd" stroke="none" stroke-width="1"/><path id="eQPEq4TB3wI28" d="M248.970000,103.092000C243.596000,96.869000,243.705000,104.524000,243.211000,107.168000C242.718000,109.812000,243.651000,115.265000,246.228000,115.044000C248.805000,114.824000,248.970000,103.092000,248.970000,103.092000Z" fill="rgb(226,179,179)" fill-rule="evenodd" stroke="none" stroke-width="1"/><path id="eQPEq4TB3wI29" d="M266.691000,130.365000C266.001000,134.986000,265.313000,139.608000,264.628000,144.231000C264.008000,149.735000,259.312000,153.599000,254.462000,153.228000C249.147000,152.805000,244.863000,147.300000,245.896000,141.320000C246.566000,136.716000,247.288000,132.112000,247.960000,127.454000C248.941000,122.427000,253.429000,119.039000,258.125000,119.463000C263.183000,119.886000,267.207000,124.808000,266.691000,130.365000Z" fill="rgb(237,166,166)" fill-rule="evenodd" stroke="none" stroke-width="1"/><path id="eQPEq4TB3wI30" d="M281.055000,86.129000C281.933000,102.488000,274.584000,109.868000,274.584000,109.868000C270.212000,109.206000,265.842000,108.545000,261.475000,107.885000C256.116000,107.058000,250.760000,106.232000,245.406000,105.407000C245.406000,105.407000,242.444000,90.481000,249.245000,80.291000C253.304000,74.177000,281.055000,86.129000,281.055000,86.129000Z" fill="rgb(16,32,81)" fill-rule="evenodd" stroke="none" stroke-width="1"/><path id="eQPEq4TB3wI31" d="M121.565000,323.407000C119.279000,326.874000,116.994000,330.344000,114.710000,333.817000C112.021000,332.529000,109.334000,331.243000,106.648000,329.961000C108.786000,326.415000,110.924000,322.872000,113.064000,319.332000C115.897000,320.687000,118.730000,322.046000,121.565000,323.407000Z" fill="rgb(254,181,180)" fill-rule="evenodd" stroke="none" stroke-width="1"/><path id="eQPEq4TB3wI32" d="M108.180000,325.996000C111.342000,327.847000,114.504000,329.701000,117.668000,331.558000C116.716000,333.538000,115.766000,335.521000,114.816000,337.506000C114.267000,337.247000,113.718000,336.990000,113.171000,336.736000C112.749000,337.357000,112.329000,337.981000,111.909000,338.609000C109.075000,337.063000,106.241000,335.521000,103.408000,333.982000C103.828000,333.410000,104.248000,332.841000,104.670000,332.275000C104.670000,332.275000,104.395000,332.330000,104.341000,331.999000C104.341000,331.779000,108.180000,325.996000,108.180000,325.996000Z" fill="rgb(207,230,255)" fill-rule="evenodd" stroke="none" stroke-width="1"/><path id="eQPEq4TB3wI33" d="M76.864000,337.562000C76.662000,337.981000,76.461000,338.403000,76.261000,338.828000C83.828000,340.680000,91.397000,342.534000,98.967000,344.392000C99.587000,344.168000,100.209000,343.947000,100.831000,343.730000C101.032000,344.351000,101.233000,344.975000,101.435000,345.603000C103.884000,346.500000,106.333000,347.400000,108.784000,348.303000C109.185000,347.436000,109.588000,346.573000,109.991000,345.713000C107.814000,344.664000,105.639000,343.617000,103.464000,342.574000C100.246000,341.047000,97.028000,339.523000,93.811000,338.003000C88.161000,337.852000,82.512000,337.706000,76.864000,337.562000Z" fill="rgb(21,32,54)" fill-rule="evenodd" stroke="none" stroke-width="1"/><path id="eQPEq4TB3wI34" d="M114.819000,337.506000C111.454000,335.778000,108.090000,334.053000,104.727000,332.330000C107.231000,334.273000,109.735000,336.219000,112.241000,338.168000C112.423000,337.871000,112.605000,337.578000,112.789000,337.287000C113.465000,337.357000,114.141000,337.430000,114.819000,337.506000Z" fill="rgb(16,32,81)" fill-rule="evenodd" stroke="none" stroke-width="1"/><path id="eQPEq4TB3wI35" d="M111.909000,338.608000C112.018000,339.412000,112.127000,340.220000,112.238000,341.031000C111.487000,342.588000,110.738000,344.149000,109.989000,345.713000C109.604000,346.004000,109.220000,346.297000,108.837000,346.594000C106.460000,345.728000,104.083000,344.865000,101.708000,344.006000C101.615000,343.690000,101.524000,343.378000,101.433000,343.069000C101.433000,343.069000,100.117000,343.179000,99.623000,343.014000C99.130000,342.848000,76.862000,337.506000,76.862000,337.506000C77.300000,336.640000,77.739000,335.777000,78.179000,334.917000C83.699000,334.712000,89.220000,334.511000,94.742000,334.312000C97.666000,334.180000,100.591000,334.052000,103.518000,333.926000C106.314000,335.484000,109.111000,337.044000,111.909000,338.608000Z" fill="rgb(47,0,156)" fill-rule="evenodd" stroke="none" stroke-width="1"/><path id="eQPEq4TB3wI36" d="M99.844000,334.145000C100.867000,334.968000,101.891000,335.794000,102.915000,336.623000C102.658000,336.657000,102.403000,336.694000,102.148000,336.734000C101.068000,335.886000,99.989000,335.041000,98.912000,334.200000C99.222000,334.178000,99.532000,334.160000,99.844000,334.145000Z" fill="rgb(21,32,54)" fill-rule="evenodd" stroke="none" stroke-width="1"/><path id="eQPEq4TB3wI37" d="M97.761000,334.312000C98.784000,335.135000,99.808000,335.961000,100.832000,336.790000C100.576000,336.824000,100.320000,336.860000,100.065000,336.900000C98.985000,336.053000,97.906000,335.208000,96.829000,334.367000C97.139000,334.346000,97.449000,334.327000,97.761000,334.312000Z" fill="rgb(21,32,54)" fill-rule="evenodd" stroke="none" stroke-width="1"/><path id="eQPEq4TB3wI38" d="M264.966000,133.923000C263.244000,134.528000,261.412000,134.748000,259.580000,134.473000C257.764000,134.197000,255.950000,133.922000,254.139000,133.648000C252.474000,133.373000,250.863000,132.768000,249.475000,131.777000C249.325000,131.666000,249.177000,131.556000,249.031000,131.447000C245.756000,129.136000,244.090000,125.174000,244.701000,121.213000C246.475000,109.730000,248.252000,98.249000,250.031000,86.768000C253.970000,86.822000,257.912000,86.877000,261.857000,86.933000C266.980000,88.235000,272.107000,89.537000,277.236000,90.840000C275.438000,102.412000,273.643000,113.985000,271.850000,125.560000C271.239000,129.356000,268.630000,132.547000,264.966000,133.923000Z" fill="rgb(254,181,180)" fill-rule="evenodd" stroke="none" stroke-width="1"/><path id="eQPEq4TB3wI39" d="M256.064000,253.224000C254.743000,243.409000,245.888000,236.462000,236.153000,237.344000C236.151000,237.305000,236.151000,237.268000,236.153000,237.234000C212.095000,238.647000,188.040000,240.062000,163.987000,241.480000C162.886000,241.314000,161.731000,241.314000,160.631000,241.480000C156.396000,242.031000,152.876000,244.678000,151.006000,248.206000C150.401000,248.979000,149.906000,249.805000,149.466000,250.687000C149.300000,251.073000,149.081000,251.515000,148.971000,251.901000C135.348000,275.259000,121.725000,298.619000,108.103000,321.982000C109.293000,322.549000,110.485000,323.119000,111.678000,323.691000C111.732000,323.725000,111.787000,323.762000,111.843000,323.801000C114.922000,325.268000,118.002000,326.739000,121.084000,328.213000C123.062000,326.794000,125.043000,325.379000,127.024000,323.967000C126.601000,323.284000,126.180000,322.604000,125.760000,321.926000C140.005000,303.912000,154.250000,285.900000,168.497000,267.891000C191.120000,269.947000,213.745000,272.005000,236.372000,274.066000C237.693000,274.176000,239.012000,274.121000,240.333000,273.956000C250.398000,272.578000,257.438000,263.314000,256.064000,253.224000Z" fill="rgb(6,0,75)" fill-rule="evenodd" stroke="none" stroke-width="1"/><path id="eQPEq4TB3wI40" d="M189.845000,336.954000C189.441000,341.119000,189.039000,345.286000,188.639000,349.457000C185.657000,349.564000,182.677000,349.674000,179.699000,349.787000C179.953000,345.635000,180.209000,341.486000,180.466000,337.340000C183.591000,337.208000,186.717000,337.080000,189.845000,336.954000Z" fill="rgb(254,181,180)" fill-rule="evenodd" stroke="none" stroke-width="1"/><path id="eQPEq4TB3wI41" d="M179.205000,345.548000C182.860000,345.692000,186.516000,345.839000,190.174000,345.989000C190.264000,348.188000,190.355000,350.391000,190.449000,352.597000C189.844000,352.612000,189.240000,352.631000,188.639000,352.652000C188.564000,353.402000,188.491000,354.155000,188.419000,354.911000C185.200000,354.871000,181.982000,354.834000,178.766000,354.801000C178.874000,354.100000,178.984000,353.402000,179.096000,352.707000C179.096000,352.707000,178.877000,352.873000,178.657000,352.652000C178.493000,352.488000,179.205000,345.548000,179.205000,345.548000Z" fill="rgb(207,230,255)" fill-rule="evenodd" stroke="none" stroke-width="1"/><path id="eQPEq4TB3wI42" d="M156.499000,365.650000C156.515000,366.124000,156.534000,366.601000,156.554000,367.082000C164.249000,366.766000,171.945000,366.453000,179.644000,366.145000C180.081000,365.645000,180.520000,365.150000,180.960000,364.658000C181.434000,365.113000,181.909000,365.572000,182.386000,366.034000C184.962000,365.701000,187.540000,365.370000,190.119000,365.043000C190.081000,364.085000,190.045000,363.131000,190.010000,362.180000C187.577000,362.268000,185.145000,362.360000,182.715000,362.455000C179.185000,362.598000,175.657000,362.745000,172.131000,362.895000C166.918000,363.810000,161.708000,364.728000,156.499000,365.650000Z" fill="rgb(21,32,54)" fill-rule="evenodd" stroke="none" stroke-width="1"/><path id="eQPEq4TB3wI43" d="M190.450000,352.653000C186.664000,352.687000,182.880000,352.724000,179.097000,352.764000C182.222000,353.311000,185.348000,353.862000,188.476000,354.416000C188.510000,354.064000,188.546000,353.715000,188.585000,353.369000C189.204000,353.127000,189.826000,352.889000,190.450000,352.653000Z" fill="rgb(16,32,81)" fill-rule="evenodd" stroke="none" stroke-width="1"/><path id="eQPEq4TB3wI44" d="M188.419000,354.966000C188.875000,355.642000,189.332000,356.322000,189.791000,357.004000C189.862000,358.726000,189.935000,360.452000,190.010000,362.181000C189.807000,362.618000,189.605000,363.059000,189.406000,363.503000C186.900000,363.849000,184.395000,364.198000,181.893000,364.550000C181.653000,364.307000,181.415000,364.069000,181.179000,363.833000C181.179000,363.833000,180.027000,364.550000,179.589000,364.660000C179.095000,364.770000,156.554000,365.651000,156.554000,365.651000C156.534000,364.674000,156.515000,363.701000,156.499000,362.732000C161.415000,361.572000,166.333000,360.415000,171.253000,359.262000C173.774000,357.771000,176.297000,356.284000,178.822000,354.801000C182.019000,354.853000,185.218000,354.908000,188.419000,354.966000Z" fill="rgb(47,0,156)" fill-rule="evenodd" stroke="none" stroke-width="1"/><path id="eQPEq4TB3wI45" d="M175.640000,356.675000C176.937000,356.928000,178.235000,357.185000,179.535000,357.445000C179.314000,357.589000,179.094000,357.736000,178.877000,357.886000C177.522000,357.644000,176.169000,357.405000,174.818000,357.169000C175.090000,357.001000,175.364000,356.836000,175.640000,356.675000Z" fill="rgb(21,32,54)" fill-rule="evenodd" stroke="none" stroke-width="1"/><path id="eQPEq4TB3wI46" d="M173.887000,357.772000C175.166000,358.026000,176.445000,358.284000,177.727000,358.544000C177.506000,358.687000,177.287000,358.834000,177.069000,358.984000C175.714000,358.742000,174.361000,358.504000,173.010000,358.269000C173.301000,358.100000,173.593000,357.935000,173.887000,357.772000Z" fill="rgb(21,32,54)" fill-rule="evenodd" stroke="none" stroke-width="1"/><path id="eQPEq4TB3wI47" d="M258.037000,244.399000C257.820000,244.399000,257.548000,244.344000,257.330000,244.344000C257.330000,244.288000,257.330000,244.288000,257.330000,244.234000C256.296000,244.344000,255.264000,244.343000,254.231000,244.288000C230.063000,246.367000,205.898000,248.451000,181.735000,250.533000C181.626000,250.533000,181.572000,250.533000,181.463000,250.479000C180.048000,250.369000,178.689000,250.533000,177.384000,250.861000C177.364000,250.859000,177.346000,250.859000,177.329000,250.861000C177.221000,250.917000,177.058000,250.917000,176.949000,250.972000C172.489000,252.397000,169.172000,256.449000,168.790000,261.379000C168.627000,263.679000,169.118000,265.870000,170.097000,267.787000C170.167000,268.734000,170.240000,269.684000,170.314000,270.636000C172.470000,294.880000,174.627000,319.127000,176.785000,343.377000C180.319000,343.374000,183.854000,343.374000,187.391000,343.377000C187.443000,343.374000,187.498000,343.374000,187.554000,343.377000C189.365000,343.374000,191.178000,343.374000,192.993000,343.377000C193.154000,320.570000,193.317000,297.765000,193.482000,274.964000C213.548000,276.075000,233.616000,277.188000,253.686000,278.305000C254.264000,278.302000,254.844000,278.302000,255.427000,278.305000C255.481000,278.305000,255.481000,278.305000,255.536000,278.305000C256.623000,278.414000,257.711000,278.360000,258.745000,278.249000C266.629000,277.373000,273.047000,270.909000,273.700000,262.639000C274.298000,253.272000,267.337000,245.110000,258.037000,244.399000Z" fill="rgb(47,0,156)" fill-rule="evenodd" stroke="none" stroke-width="1"/><path id="eQPEq4TB3wI48" d="M233.120000,140.322000C227.252000,139.276000,222.041000,143.021000,220.505000,148.033000C218.312000,155.303000,203.997000,210.106000,210.140000,219.084000C216.227000,228.061000,224.948000,221.727000,231.310000,201.623000C234.436000,191.710000,240.744000,165.328000,240.031000,152.990000C239.756000,147.648000,233.120000,140.322000,233.120000,140.322000Z" fill="rgb(28,234,155)" fill-rule="evenodd" stroke="none" stroke-width="1"/><path id="eQPEq4TB3wI49" d="M228.329000,162.834000C233.838000,163.678000,239.079000,159.268000,240.035000,152.983000C240.991000,146.697000,237.298000,140.918000,231.789000,140.074000C226.278000,139.229000,221.037000,143.639000,220.082000,149.925000C219.126000,156.209000,222.818000,161.990000,228.329000,162.834000Z" fill="rgb(28,234,155)" fill-rule="evenodd" stroke="none" stroke-width="1"/><path id="eQPEq4TB3wI50" d="M224.181000,206.170000C224.145000,204.682000,224.111000,203.195000,224.079000,201.710000C223.985000,201.711000,223.894000,201.713000,223.805000,201.717000C223.836000,203.202000,223.870000,204.689000,223.906000,206.177000C223.995000,206.173000,224.087000,206.171000,224.181000,206.170000Z" fill="rgb(45,255,179)" fill-rule="evenodd" stroke="none" stroke-width="1"/><path id="eQPEq4TB3wI51" d="M292.299000,152.003000C292.299000,152.003000,310.288000,196.066000,311.714000,220.631000C307.506000,224.870000,303.301000,229.110000,299.099000,233.353000C287.966000,229.113000,282.866000,199.811000,280.068000,188.245000C279.246000,184.830000,278.971000,181.304000,279.301000,177.779000C277.195000,171.425000,275.093000,165.073000,272.993000,158.722000C279.426000,156.481000,285.861000,154.241000,292.299000,152.003000Z" fill="rgb(28,234,155)" fill-rule="evenodd" stroke="none" stroke-width="1"/><path id="eQPEq4TB3wI52" d="M283.961000,204.053000C282.097000,198.765000,277.929000,185.216000,279.847000,173.099000C279.936000,173.116000,280.028000,173.134000,280.122000,173.154000C278.202000,185.216000,282.371000,198.765000,284.236000,203.998000C284.141000,204.014000,284.050000,204.033000,283.961000,204.053000Z" fill="rgb(28,234,155)" fill-rule="evenodd" stroke="none" stroke-width="1"/><path id="eQPEq4TB3wI53" d="M279.082000,177.835000C278.699000,177.010000,278.424000,175.413000,278.151000,173.760000C277.876000,172.163000,277.657000,170.511000,277.272000,169.739000C277.361000,169.682000,277.453000,169.627000,277.547000,169.574000C277.932000,170.400000,278.205000,171.998000,278.479000,173.650000C278.754000,175.247000,278.973000,176.900000,279.357000,177.670000C279.263000,177.724000,279.171000,177.779000,279.082000,177.835000Z" fill="rgb(28,234,155)" fill-rule="evenodd" stroke="none" stroke-width="1"/><path id="eQPEq4TB3wI54" d="M281.596000,167.043000C287.225000,167.905000,292.485000,164.021000,293.345000,158.367000C294.205000,152.715000,290.337000,147.432000,284.707000,146.570000C279.078000,145.706000,273.818000,149.590000,272.958000,155.243000C272.099000,160.896000,275.966000,166.180000,281.596000,167.043000Z" fill="rgb(28,234,155)" fill-rule="evenodd" stroke="none" stroke-width="1"/><path id="eQPEq4TB3wI55" d="M300.553000,233.690000C306.063000,234.534000,311.211000,230.733000,312.052000,225.201000C312.893000,219.667000,309.108000,214.496000,303.599000,213.652000C298.088000,212.808000,292.939000,216.608000,292.100000,222.142000C291.259000,227.674000,295.043000,232.845000,300.553000,233.690000Z" fill="rgb(28,234,155)" fill-rule="evenodd" stroke="none" stroke-width="1"/><path id="eQPEq4TB3wI56" d="M202.958000,229.609000C192.206000,224.356000,181.456000,219.106000,170.708000,213.857000C171.456000,212.037000,172.206000,210.220000,172.957000,208.404000C185.186000,212.001000,197.416000,215.599000,209.649000,219.200000C207.416000,222.667000,205.186000,226.137000,202.958000,229.609000Z" fill="rgb(242,169,129)" fill-rule="evenodd" stroke="none" stroke-width="1"/><path id="eQPEq4TB3wI57" d="M203.834000,229.886000C201.585000,229.114000,200.817000,225.975000,202.079000,222.890000C203.340000,219.806000,206.192000,217.988000,208.441000,218.760000C210.689000,219.530000,211.458000,222.670000,210.197000,225.754000C208.879000,228.838000,206.083000,230.656000,203.834000,229.886000Z" fill="rgb(242,169,129)" fill-rule="evenodd" stroke="none" stroke-width="1"/><path id="eQPEq4TB3wI58" d="M170.487000,214.464000C169.281000,214.023000,168.842000,212.316000,169.500000,210.663000C170.214000,209.011000,171.749000,207.965000,173.010000,208.406000C174.217000,208.846000,174.656000,210.553000,173.998000,212.205000C173.285000,213.858000,171.694000,214.905000,170.487000,214.464000Z" fill="rgb(242,169,129)" fill-rule="evenodd" stroke="none" stroke-width="1"/><path id="eQPEq4TB3wI59" d="M221.112000,222.342000C221.110000,222.322000,221.110000,222.304000,221.112000,222.287000C205.372000,215.016000,177.510000,206.810000,177.510000,206.810000C176.356000,210.407000,175.205000,214.005000,174.055000,217.606000C174.055000,217.606000,177.126000,219.368000,178.278000,220.745000C179.320000,222.012000,179.539000,220.911000,181.952000,222.012000C186.066000,223.995000,196.102000,228.511000,205.152000,232.751000C207.401000,233.799000,210.801000,234.514000,213.434000,235.286000C213.818000,235.616000,214.257000,235.891000,214.750000,236.056000C216.560000,236.718000,218.644000,236.001000,220.400000,234.404000C221.386000,233.468000,222.264000,232.257000,222.813000,230.880000C224.184000,227.300000,223.471000,223.664000,221.112000,222.342000Z" fill="rgb(28,234,155)" fill-rule="evenodd" stroke="none" stroke-width="1"/><path id="eQPEq4TB3wI60" d="M171.528000,216.668000C170.980000,216.943000,166.647000,218.651000,163.904000,220.248000C161.217000,221.900000,155.403000,226.802000,155.403000,226.802000C155.294000,226.582000,153.593000,225.701000,153.703000,225.150000C154.416000,221.956000,159.955000,214.410000,159.955000,214.410000C163.775000,212.499000,167.596000,210.589000,171.418000,208.682000C171.418000,208.682000,174.709000,214.079000,174.654000,214.300000C174.654000,214.520000,171.528000,216.668000,171.528000,216.668000Z" fill="rgb(254,181,180)" fill-rule="evenodd" stroke="none" stroke-width="1"/><path id="eQPEq4TB3wI61" d="M172.568000,214.960000C172.240000,215.787000,170.484000,218.320000,170.264000,218.541000C170.045000,218.761000,165,221.735000,165,221.735000C164.669000,221.715000,164.340000,221.696000,164.012000,221.680000C164.083000,221.347000,164.157000,221.017000,164.231000,220.688000C164.723000,220.190000,165.217000,219.695000,165.713000,219.201000C166.223000,219.052000,166.735000,218.906000,167.248000,218.761000C167.248000,218.761000,168.235000,216.833000,168.290000,216.668000C168.345000,216.502000,172.568000,214.960000,172.568000,214.960000Z" fill="rgb(254,181,180)" fill-rule="evenodd" stroke="none" stroke-width="1"/><path id="eQPEq4TB3wI62" d="M172.569000,215.122000C174.387000,215.122000,175.861000,213.643000,175.861000,211.818000C175.861000,209.993000,174.387000,208.513000,172.569000,208.513000C170.752000,208.513000,169.279000,209.993000,169.279000,211.818000C169.279000,213.643000,170.752000,215.122000,172.569000,215.122000Z" fill="rgb(254,181,180)" fill-rule="evenodd" stroke="none" stroke-width="1"/><path id="eQPEq4TB3wI63" d="M250.998000,90.868000C250.010000,94.118000,247.213000,101.333000,247.267000,101.002000C247.322000,100.672000,249.352000,87.398000,249.352000,87.398000C249.898000,88.554000,250.447000,89.711000,250.998000,90.868000Z" fill="rgb(16,32,81)" fill-rule="evenodd" stroke="none" stroke-width="1"/><path id="eQPEq4TB3wI64" d="M279.078000,94.228000C281.162000,94.173000,285.494000,87.123000,282.368000,78.752000C279.242000,70.380000,257.085000,70.490000,259.718000,82.111000C259.718000,82.111000,262.406000,75.998000,254.891000,75.832000C247.432000,75.557000,244.086000,83.048000,249.626000,87.344000C249.167000,88.959000,248.710000,90.574000,248.255000,92.191000C248.255000,92.191000,256.756000,92.356000,260.650000,88.555000C260.650000,88.555000,272.168000,94.724000,273.978000,95.495000C274.084000,98.964000,274.194000,102.434000,274.306000,105.905000C275.074000,105.575000,278.036000,96.762000,278.036000,96.762000C278.381000,95.917000,278.728000,95.072000,279.078000,94.228000Z" fill="rgb(16,32,81)" fill-rule="evenodd" stroke="none" stroke-width="1"/><path id="eQPEq4TB3wI65" d="M264.221000,145.667000C260.270000,152.715000,256.321000,159.765000,252.375000,166.817000C246.723000,168.486000,241.074000,170.157000,235.427000,171.829000C234.712000,164.943000,234,158.058000,233.289000,151.174000C236.961000,148.327000,240.635000,145.482000,244.312000,142.638000C247.674000,143.150000,251.037000,143.664000,254.404000,144.180000C257.674000,144.674000,260.946000,145.170000,264.221000,145.667000Z" fill="rgb(45,255,179)" fill-rule="evenodd" stroke="none" stroke-width="1"/><path id="eQPEq4TB3wI66" d="M264.219000,145.669000C264.219000,145.669000,254.347000,158.062000,248.423000,155.803000C242.500000,153.545000,244.310000,142.640000,244.310000,142.640000C239.061000,141.813000,233.814000,140.987000,228.569000,140.162000C227.305000,149.248000,226.044000,158.336000,224.785000,167.425000C223.283000,174.639000,221.784000,181.854000,220.287000,189.070000C218.037000,198.432000,215.788000,207.795000,213.541000,217.161000C213.192000,217.728000,212.845000,218.297000,212.499000,218.868000C211.601000,221.124000,210.706000,223.383000,209.812000,225.643000C209.517000,227.458000,209.225000,229.275000,208.934000,231.095000C209.225000,231.607000,209.517000,232.121000,209.812000,232.637000C210.102000,233.039000,210.395000,233.443000,210.689000,233.850000C214.746000,234.986000,218.805000,236.124000,222.866000,237.264000C228.805000,237.482000,234.746000,237.702000,240.690000,237.925000C245.770000,239.079000,250.852000,240.236000,255.937000,241.395000C260.834000,241.778000,265.733000,242.163000,270.635000,242.551000C271.931000,240.713000,273.229000,238.878000,274.530000,237.044000C276.081000,223.640000,277.635000,210.238000,279.192000,196.837000C282.571000,181.505000,285.953000,166.175000,289.338000,150.846000C288.022000,149.855000,286.047000,146.606000,284.402000,146.606000C277.656000,146.496000,270.910000,146.991000,264.219000,145.669000Z" fill="rgb(45,255,179)" fill-rule="evenodd" stroke="none" stroke-width="1"/><path id="eQPEq4TB3wI67" d="M271.785000,253.347000C268.220000,251.365000,263.944000,247.344000,262.901000,243.157000C263.007000,243.137000,263.117000,243.118000,263.229000,243.102000C264.273000,247.178000,268.494000,251.144000,271.949000,253.072000C271.892000,253.161000,271.837000,253.253000,271.785000,253.347000Z" fill="rgb(11,12,15)" fill-rule="evenodd" stroke="none" stroke-width="1"/><path id="eQPEq4TB3wI68" d="M257.055000,149.755000C256.391000,147.424000,255.730000,145.093000,255.072000,142.764000C259.376000,142.372000,263.683000,141.980000,267.992000,141.590000C268.348000,143.216000,268.707000,144.843000,269.069000,146.471000C265.062000,147.565000,261.057000,148.659000,257.055000,149.755000Z" fill="rgb(255,255,255)" fill-rule="evenodd" stroke="none" stroke-width="1"/><path id="eQPEq4TB3wI69" d="M255.072000,142.773000C256.033000,144.710000,256.996000,146.649000,257.962000,148.589000C261.662000,147.894000,265.364000,147.201000,269.069000,146.509000C268.707000,144.868000,268.348000,143.229000,267.992000,141.590000C263.683000,141.983000,259.376000,142.378000,255.072000,142.773000Z" fill="rgb(255,255,255)" fill-rule="evenodd" stroke="none" stroke-width="1"/><path id="eQPEq4TB3wI70" d="M242.827000,136.924000C241.853000,138.726000,240.880000,140.528000,239.911000,142.332000C243.446000,144.805000,246.984000,147.280000,250.525000,149.755000C252.039000,147.222000,253.555000,144.691000,255.074000,142.160000C250.989000,140.414000,246.907000,138.668000,242.827000,136.924000Z" fill="rgb(255,255,255)" fill-rule="evenodd" stroke="none" stroke-width="1"/><path id="eQPEq4TB3wI71" d="M255.074000,141.874000C253.400000,143.722000,251.728000,145.571000,250.058000,147.422000C246.673000,145.625000,243.291000,143.830000,239.911000,142.037000C240.880000,140.331000,241.853000,138.627000,242.827000,136.924000C246.907000,138.573000,250.989000,140.223000,255.074000,141.874000Z" fill="rgb(255,255,255)" fill-rule="evenodd" stroke="none" stroke-width="1"/><path id="eQPEq4TB3wI72" d="M146.681000,226.197000C146.680000,226.232000,146.680000,226.269000,146.681000,226.307000C146.792000,226.473000,146.846000,226.693000,146.846000,226.858000C146.844000,227.039000,146.844000,227.223000,146.846000,227.409000C146.846000,227.574000,146.792000,227.739000,146.737000,227.849000C180.191000,227.850000,213.646000,227.847000,247.104000,227.849000C247.102000,227.297000,247.102000,226.746000,247.104000,226.197000C213.628000,226.195000,180.154000,226.195000,146.681000,226.197000Z" fill="rgb(255,255,255)" fill-rule="evenodd" stroke="none" stroke-width="1"/><path id="eQPEq4TB3wI73" d="M146.578000,226.027000C146.743000,226.248000,146.852000,226.523000,146.852000,226.799000C146.851000,226.632000,146.851000,226.466000,146.852000,226.303000C180.215000,226.301000,213.579000,226.301000,246.946000,226.303000C246.943000,226.760000,246.943000,227.219000,246.946000,227.680000C213.579000,227.678000,180.215000,227.678000,146.852000,227.680000C146.851000,227.586000,146.851000,227.494000,146.852000,227.404000C146.852000,227.625000,146.743000,227.790000,146.633000,227.955000C180.160000,227.951000,213.689000,227.953000,247.220000,227.955000C247.218000,227.311000,247.218000,226.668000,247.220000,226.027000C213.670000,226.025000,180.123000,226.029000,146.578000,226.027000Z" fill="rgb(16,32,81)" fill-rule="evenodd" stroke="none" stroke-width="1"/><g id="eQPEq4TB3wI74_to" transform="translate(271.244102,216.502022)"><g id="eQPEq4TB3wI74_tr" transform="rotate(0)"><g id="eQPEq4TB3wI74" transform="translate(-271.244102,-216.502022)"><path id="eQPEq4TB3wI75" d="M247.712000,226.969000C243.504000,226.967000,239.299000,226.967000,235.097000,226.969000C234.345000,218.577000,233.595000,210.187000,232.848000,201.799000C238.550000,201.797000,244.254000,201.797000,249.960000,201.799000C249.208000,210.187000,248.459000,218.577000,247.712000,226.969000Z" transform="matrix(1 0 0 1 0 -0.16700000000000)" fill="rgb(255,255,255)" fill-rule="evenodd" stroke="none" stroke-width="1"/><path id="eQPEq4TB3wI76" d="M309.028000,229.944000C309.850000,228.787000,310.399000,227.355000,310.454000,225.868000C310.618000,222.013000,307.931000,218.653000,304.201000,217.992000C304.198000,217.971000,304.198000,217.953000,304.201000,217.937000C280.179000,215.128000,254.511000,215.569000,254.511000,215.569000C255.334000,219.424000,255.060000,223.445000,253.798000,227.134000C253.704000,227.408000,253.613000,227.683000,253.524000,227.961000C253.524000,227.961000,260.160000,227.851000,262.300000,228.842000C264.328000,229.779000,263.999000,228.622000,267.674000,229.117000C274.036000,229.944000,274.639000,230.825000,288.461000,232.477000C291.915000,232.918000,296.687000,232.643000,300.472000,232.698000C301.130000,232.918000,301.843000,233.083000,302.556000,233.083000C305.189000,233.249000,307.601000,231.981000,309.028000,229.944000Z" fill="rgb(28,234,155)" fill-rule="evenodd" stroke="none" stroke-width="1"/><path id="eQPEq4TB3wI77" d="M248.751000,217.881000C248.751000,217.881000,236.411000,217.551000,234.108000,215.734000C234.108000,215.734000,233.450000,214.742000,232.462000,215.734000C231.476000,216.725000,232.298000,224.436000,233.614000,226.309000C234.930000,228.126000,237.509000,228.402000,238.001000,228.126000C238.495000,227.851000,248.039000,225.757000,248.039000,225.757000C248.274000,223.130000,248.511000,220.505000,248.751000,217.881000Z" fill="rgb(254,181,180)" fill-rule="evenodd" stroke="none" stroke-width="1"/><path id="eQPEq4TB3wI78" d="M284.128000,229.944000C272.443000,228.033000,260.761000,226.124000,249.081000,224.216000C249.188000,222.250000,249.298000,220.285000,249.410000,218.322000C262.205000,218.247000,275.002000,218.174000,287.802000,218.103000C286.574000,222.048000,285.350000,225.995000,284.128000,229.944000Z" fill="rgb(254,181,180)" fill-rule="evenodd" stroke="none" stroke-width="1"/><path id="eQPEq4TB3wI79" d="M285.664000,230.001000C288.966000,230.001000,291.642000,227.313000,291.642000,223.997000C291.642000,220.681000,288.966000,217.994000,285.664000,217.994000C282.362000,217.994000,279.685000,220.681000,279.685000,223.997000C279.685000,227.313000,282.362000,230.001000,285.664000,230.001000Z" fill="rgb(254,181,180)" fill-rule="evenodd" stroke="none" stroke-width="1"/><path id="eQPEq4TB3wI80" d="M249.245000,224.881000C251.063000,224.881000,252.535000,223.402000,252.535000,221.576000C252.535000,219.752000,251.063000,218.272000,249.245000,218.272000C247.427000,218.272000,245.955000,219.752000,245.955000,221.576000C245.955000,223.402000,247.427000,224.881000,249.245000,224.881000Z" fill="rgb(254,181,180)" fill-rule="evenodd" stroke="none" stroke-width="1"/><path id="eQPEq4TB3wI81" d="M248.591000,225.813000C250.773000,225.813000,252.541000,224.037000,252.541000,221.846000C252.541000,219.656000,250.773000,217.880000,248.591000,217.880000C246.411000,217.880000,244.643000,219.656000,244.643000,221.846000C244.643000,224.037000,246.411000,225.813000,248.591000,225.813000Z" fill="rgb(254,181,180)" fill-rule="evenodd" stroke="none" stroke-width="1"/><path id="eQPEq4TB3wI82" d="M245.741000,217.731000C249.055000,216.665000,249.277000,213.906000,249.277000,213.906000C249.277000,213.906000,250.050000,213.906000,250.381000,215.662000C250.713000,217.481000,247.674000,219.739000,247.674000,219.739000C247.027000,219.068000,246.383000,218.399000,245.741000,217.731000Z" fill="rgb(254,181,180)" fill-rule="evenodd" stroke="none" stroke-width="1"/><path id="eQPEq4TB3wI83" d="M250.002000,215.074000C249.495000,216.973000,250.408000,218.154000,250.408000,218.154000C248.462000,219.069000,246.518000,219.986000,244.577000,220.905000C245.690000,219.964000,246.805000,219.025000,247.923000,218.088000C248.614000,217.081000,249.307000,216.076000,250.002000,215.074000Z" fill="rgb(254,181,180)" fill-rule="evenodd" stroke="none" stroke-width="1"/><path id="eQPEq4TB3wI84" d="M232.910000,207.511000C234.866000,208.314000,238.726000,208.871000,242.249000,207.511000C245.772000,206.152000,249.240000,207.511000,249.240000,207.511000C249.050000,209.898000,248.864000,212.287000,248.680000,214.678000C248.680000,214.678000,248.456000,218.571000,243.815000,218.571000C243.815000,218.571000,235.705000,218.386000,233.636000,216.470000C233.392000,213.482000,233.150000,210.495000,232.910000,207.511000Z" fill="rgb(46,45,123)" fill-rule="evenodd" stroke="none" stroke-width="1"/><path id="eQPEq4TB3wI85" d="M250,202.241000C245.211000,202.239000,240.424000,202.239000,235.639000,202.241000C235.413000,202.241000,235.243000,201.992000,235.243000,201.658000C235.243000,201.325000,235.413000,201.074000,235.639000,201.074000C240.424000,201.073000,245.211000,201.072000,250,201.074000C250.226000,201.075000,250.396000,201.325000,250.396000,201.658000C250.452000,201.908000,250.282000,202.241000,250,202.241000Z" fill="rgb(218,223,242)" fill-rule="evenodd" stroke="none" stroke-width="1"/><path id="eQPEq4TB3wI86" d="M238.741000,199.908000C236.795000,199.906000,234.851000,199.906000,232.910000,199.908000C232.907000,200.295000,232.907000,200.684000,232.910000,201.074000C234.851000,201.073000,236.795000,201.073000,238.741000,201.074000C238.739000,200.684000,238.739000,200.295000,238.741000,199.908000Z" fill="rgb(218,223,242)" fill-rule="evenodd" stroke="none" stroke-width="1"/><path id="eQPEq4TB3wI87" d="M250.405000,201.074000C244.182000,201.073000,237.961000,201.073000,231.742000,201.074000C231.740000,201.461000,231.740000,201.850000,231.742000,202.241000C237.961000,202.239000,244.182000,202.239000,250.405000,202.241000C250.402000,201.850000,250.402000,201.461000,250.405000,201.074000Z" fill="rgb(206,212,239)" fill-rule="evenodd" stroke="none" stroke-width="1"/></g></g></g><path id="eQPEq4TB3wI88" d="M262.240000,367.576000C260.062000,367.573000,257.886000,367.573000,255.713000,367.576000C276.881000,322.428000,298.052000,277.283000,319.225000,232.140000C321.654000,232.138000,324.085000,232.138000,326.519000,232.140000C305.090000,277.283000,283.664000,322.428000,262.240000,367.576000Z" fill="rgb(78,92,119)" fill-rule="evenodd" stroke="none" stroke-width="1"/><path id="eQPEq4TB3wI89" d="M264.104000,367.576000C261.926000,367.573000,259.750000,367.573000,257.577000,367.576000C278.745000,322.428000,299.916000,277.283000,321.089000,232.140000C323.517000,232.138000,325.949000,232.138000,328.383000,232.140000C306.954000,277.283000,285.528000,322.428000,264.104000,367.576000Z" fill="rgb(56,63,83)" fill-rule="evenodd" stroke="none" stroke-width="1"/><path id="eQPEq4TB3wI90" d="M324.273000,367.579000C326.445000,367.575000,328.621000,367.575000,330.799000,367.579000C306.591000,322.430000,282.386000,277.285000,258.184000,232.142000C255.749000,232.140000,253.318000,232.140000,250.889000,232.142000C275.347000,277.285000,299.808000,322.430000,324.273000,367.579000Z" fill="rgb(78,92,119)" fill-rule="evenodd" stroke="none" stroke-width="1"/><path id="eQPEq4TB3wI91" d="M325.970000,367.576000C328.143000,367.573000,330.318000,367.573000,332.497000,367.576000C308.289000,322.428000,284.084000,277.283000,259.881000,232.140000C257.447000,232.138000,255.016000,232.138000,252.587000,232.140000C277.046000,277.283000,301.506000,322.428000,325.970000,367.576000Z" fill="rgb(56,63,83)" fill-rule="evenodd" stroke="none" stroke-width="1"/><path id="eQPEq4TB3wI92" d="M346.432000,227.958000C239.206000,227.956000,131.984000,227.956000,24.762000,227.958000C24.762000,229.993000,24.762000,232.031000,24.762000,234.071000C131.984000,234.069000,239.206000,234.069000,346.432000,234.071000C346.428000,232.031000,346.428000,229.993000,346.432000,227.958000Z" fill="rgb(255,166,108)" fill-rule="evenodd" stroke="none" stroke-width="1"/><path id="eQPEq4TB3wI93" d="M346.381000,227.955000C308.625000,227.953000,270.873000,227.953000,233.124000,227.955000C233.121000,229.991000,233.121000,232.029000,233.124000,234.069000C270.873000,234.067000,308.625000,234.067000,346.381000,234.069000C346.377000,232.029000,346.377000,229.991000,346.381000,227.955000Z" fill="rgb(232,124,58)" fill-rule="evenodd" stroke="none" stroke-width="1"/><path id="eQPEq4TB3wI94" d="M145.641000,225.808000C135.274000,225.806000,124.908000,225.806000,114.543000,225.808000C116.133000,219.233000,117.724000,212.661000,119.315000,206.090000C129.680000,206.088000,140.046000,206.088000,150.413000,206.090000C148.821000,212.661000,147.230000,219.233000,145.641000,225.808000Z" fill="rgb(54,47,129)" fill-rule="evenodd" stroke="none" stroke-width="1"/><path id="eQPEq4TB3wI95" d="M144.380000,225.806000C134.013000,225.804000,123.647000,225.804000,113.282000,225.806000C114.871000,219.231000,116.462000,212.659000,118.053000,206.088000C128.418000,206.086000,138.784000,206.086000,149.152000,206.088000C147.560000,212.659000,145.969000,219.231000,144.380000,225.806000Z" fill="rgb(54,47,129)" fill-rule="evenodd" stroke="none" stroke-width="1"/><path id="eQPEq4TB3wI96" d="M158.694000,225.807000C143.556000,225.805000,128.418000,225.805000,113.282000,225.807000C113.281000,226.613000,113.281000,227.420000,113.282000,228.230000C128.418000,228.228000,143.556000,228.228000,158.694000,228.230000C158.693000,227.420000,158.693000,226.613000,158.694000,225.807000Z" fill="rgb(54,47,129)" fill-rule="evenodd" stroke="none" stroke-width="1"/><path id="eQPEq4TB3wI97" d="M116.519000,212.366000C127.012000,212.365000,137.506000,212.365000,148.001000,212.366000C147.835000,213.136000,147.670000,213.907000,147.507000,214.680000C136.994000,214.678000,126.482000,214.678000,115.971000,214.680000C116.153000,213.907000,116.336000,213.136000,116.519000,212.366000Z" fill="rgb(54,47,129)" fill-rule="evenodd" stroke="none" stroke-width="1"/><path id="eQPEq4TB3wI98" d="M201.805000,125.288000C184.582000,125.287000,167.360000,125.287000,150.141000,125.288000C150.141000,125.399000,150.141000,125.454000,150.141000,125.509000C150.141000,126.059000,149.593000,126.445000,149.044000,126.445000C148.495000,126.390000,148.111000,125.894000,148.111000,125.344000C148.111000,125.288000,148.111000,125.288000,148.111000,125.233000C134.782000,125.232000,121.455000,125.232000,108.129000,125.233000C108.128000,125.489000,108.128000,125.746000,108.129000,126.004000C108.129000,126.555000,107.580000,126.941000,107.032000,126.941000C106.483000,126.886000,106.099000,126.390000,106.099000,125.839000C106.098000,125.618000,106.098000,125.398000,106.099000,125.178000C95.861000,125.177000,85.623000,125.177000,75.386000,125.178000C74.618000,125.178000,74.015000,125.784000,74.015000,126.555000C74.014000,154.607000,74.015000,182.660000,74.015000,210.714000C74.015000,211.486000,74.618000,212.092000,75.386000,212.092000C117.506000,212.092000,159.628000,212.092000,201.751000,212.092000C202.518000,212.092000,203.122000,211.486000,203.122000,210.714000C203.119000,182.696000,203.119000,154.680000,203.122000,126.665000C203.176000,125.894000,202.573000,125.288000,201.805000,125.288000Z" fill="rgb(75,67,159)" fill-rule="evenodd" stroke="none" stroke-width="1"/><path id="eQPEq4TB3wI99" d="M201.806000,125.123000C184.583000,125.122000,167.361000,125.122000,150.142000,125.123000C150.142000,125.233000,150.142000,125.288000,150.142000,125.398000C167.361000,125.397000,184.583000,125.397000,201.806000,125.398000C202.519000,125.398000,203.068000,125.949000,203.068000,126.665000C203.066000,154.717000,203.067000,182.770000,203.068000,210.824000C203.068000,211.541000,202.519000,212.091000,201.806000,212.091000C159.683000,212.087000,117.562000,212.088000,75.442000,212.091000C74.729000,212.091000,74.180000,211.541000,74.180000,210.824000C74.179000,182.770000,74.180000,154.717000,74.180000,126.665000C74.180000,125.949000,74.729000,125.398000,75.442000,125.398000C99.683000,125.397000,123.924000,125.397000,148.167000,125.398000C148.166000,125.379000,148.166000,125.361000,148.167000,125.343000C148.167000,125.288000,148.167000,125.178000,148.167000,125.123000C123.924000,125.122000,99.683000,125.121000,75.442000,125.123000C74.619000,125.123000,73.906000,125.839000,73.906000,126.665000C73.906000,154.717000,73.905000,182.770000,73.906000,210.824000C73.906000,211.650000,74.619000,212.366000,75.442000,212.366000C117.562000,212.364000,159.683000,212.363000,201.806000,212.366000C202.629000,212.366000,203.341000,211.650000,203.341000,210.824000C203.340000,182.770000,203.339000,154.717000,203.341000,126.665000C203.341000,125.839000,202.629000,125.123000,201.806000,125.123000Z" fill="rgb(75,67,159)" fill-rule="evenodd" stroke="none" stroke-width="1"/><path id="eQPEq4TB3wI100" d="M199.504000,212.366000C158.149000,212.366000,116.796000,212.364000,75.444000,212.366000C74.621000,212.366000,73.908000,211.705000,73.908000,210.824000C73.907000,182.770000,73.908000,154.717000,73.908000,126.665000C73.908000,125.839000,74.566000,125.123000,75.444000,125.123000C116.814000,125.121000,158.186000,125.120000,199.559000,125.123000C200.382000,125.123000,201.095000,125.784000,201.095000,126.665000C201.092000,154.735000,201.092000,182.806000,201.095000,210.879000C201.040000,211.705000,200.382000,212.366000,199.504000,212.366000Z" fill="rgb(75,67,159)" fill-rule="evenodd" stroke="none" stroke-width="1"/><path id="eQPEq4TB3wI101" d="M199.500000,125.287000C177.962000,125.340000,156.427000,125.396000,134.892000,125.452000C134.837000,125.562000,75.439000,125.287000,75.439000,125.287000C74.671000,125.287000,74.068000,125.893000,74.068000,126.664000C74.067000,154.734000,74.066000,182.805000,74.068000,210.878000C74.068000,211.650000,74.671000,212.255000,75.439000,212.255000C116.810000,212.251000,158.182000,212.253000,199.555000,212.255000C200.323000,212.255000,200.926000,211.650000,200.926000,210.878000C200.925000,182.805000,200.923000,154.734000,200.926000,126.664000C200.926000,125.893000,200.268000,125.287000,199.500000,125.287000Z" fill="rgb(49,41,144)" fill-rule="evenodd" stroke="none" stroke-width="1"/><path id="eQPEq4TB3wI102" d="M199.502000,125.123000C199.500000,125.214000,199.500000,125.305000,199.502000,125.398000C200.215000,125.398000,200.764000,125.949000,200.764000,126.665000C200.761000,154.735000,200.762000,182.806000,200.764000,210.879000C200.764000,211.596000,200.215000,212.146000,199.502000,212.146000C158.147000,212.144000,116.794000,212.143000,75.442000,212.146000C74.729000,212.146000,74.180000,211.596000,74.180000,210.879000C74.179000,182.806000,74.180000,154.735000,74.180000,126.665000C74.180000,125.949000,74.729000,125.398000,75.442000,125.398000C75.441000,125.305000,75.441000,125.214000,75.442000,125.123000C74.619000,125.123000,73.906000,125.784000,73.906000,126.665000C73.906000,154.735000,73.905000,182.806000,73.906000,210.879000C73.906000,211.705000,74.564000,212.422000,75.442000,212.422000C116.812000,212.419000,158.184000,212.420000,199.557000,212.422000C200.381000,212.422000,201.093000,211.760000,201.093000,210.879000C201.091000,182.806000,201.089000,154.735000,201.093000,126.665000C201.039000,125.784000,200.381000,125.123000,199.502000,125.123000Z" fill="rgb(49,41,144)" fill-rule="evenodd" stroke="none" stroke-width="1"/><path id="eQPEq4TB3wI103" d="M97.764000,212.532000C90.487000,212.530000,83.211000,212.530000,75.935000,212.532000C74.729000,212.532000,73.742000,211.540000,73.742000,210.328000C73.741000,194.501000,73.741000,178.676000,73.742000,162.852000C73.832000,162.850000,73.924000,162.850000,74.016000,162.852000C74.015000,178.676000,74.015000,194.501000,74.016000,210.328000C74.016000,211.376000,74.893000,212.256000,75.935000,212.256000C83.192000,212.255000,90.450000,212.254000,97.709000,212.256000C97.708000,212.346000,97.708000,212.438000,97.709000,212.532000C97.727000,212.530000,97.745000,212.530000,97.764000,212.532000Z" fill="rgb(75,67,159)" fill-rule="evenodd" stroke="none" stroke-width="1"/><path id="eQPEq4TB3wI104" d="M190.179000,212.260000C177.544000,212.258000,164.911000,212.258000,152.280000,212.260000C152.279000,212.350000,152.279000,212.441000,152.280000,212.535000C164.911000,212.533000,177.544000,212.533000,190.179000,212.535000C190.177000,212.441000,190.177000,212.350000,190.179000,212.260000Z" fill="rgb(75,67,159)" fill-rule="evenodd" stroke="none" stroke-width="1"/><path id="eQPEq4TB3wI105" d="M113.449000,228.174000C113.357000,228.172000,113.265000,228.172000,113.175000,228.174000C113.174000,227.382000,113.174000,226.593000,113.175000,225.806000C114.253000,221.324000,115.331000,216.844000,116.411000,212.366000C116.501000,212.383000,116.593000,212.401000,116.685000,212.422000C115.605000,216.881000,114.527000,221.342000,113.449000,225.806000C113.448000,226.593000,113.448000,227.382000,113.449000,228.174000Z" fill="rgb(75,67,159)" fill-rule="evenodd" stroke="none" stroke-width="1"/><path id="eQPEq4TB3wI106" d="M197.920000,367.872000C200.496000,367.872000,202.585000,365.783000,202.585000,363.206000C202.585000,360.630000,200.496000,358.541000,197.920000,358.541000C195.343000,358.541000,193.254000,360.630000,193.254000,363.206000C193.254000,365.783000,195.343000,367.872000,197.920000,367.872000Z" fill="rgb(13,23,43)" fill-rule="evenodd" stroke="none" stroke-width="1"/><path id="eQPEq4TB3wI107" d="M315.973000,367.799000C315.973000,367.799000,305.986000,349.832000,311.610000,346.609000C317.236000,343.385000,320.600000,346.995000,322.860000,345.686000C325.120000,344.359000,315.816000,334.670000,322.307000,330.926000C328.826000,327.232000,331.428000,334.972000,335.107000,332.840000C338.866000,330.691000,339.208000,313.732000,348.696000,315.512000C358.184000,317.292000,343.597000,333.109000,347.197000,333.260000C350.799000,333.411000,354.925000,328.727000,358.131000,333.479000C361.338000,338.231000,337.762000,348.221000,347.907000,348.590000C358.158000,348.943000,355.504000,353.342000,352.665000,356.784000C349.826000,360.210000,334.792000,368.538000,334.792000,368.538000C328.516000,368.288000,322.243000,368.042000,315.973000,367.799000Z" fill="rgb(80,188,141)" fill-rule="evenodd" stroke="none" stroke-width="1"/><path id="eQPEq4TB3wI108" d="M357.971000,333.262000C353.502000,336.719000,345.407000,342.464000,338.969000,344.512000C343.883000,331.617000,347.851000,319.224000,348.982000,315.582000C348.877000,315.531000,348.798000,315.547000,348.693000,315.497000C348.588000,315.447000,348.509000,315.464000,348.299000,315.431000C347.459000,318.150000,344.961000,325.924000,341.701000,335.125000C340.624000,332.103000,339.415000,328.511000,338.521000,325.807000C338.443000,326.159000,338.259000,326.478000,338.179000,326.848000C339.362000,330.559000,340.966000,335.092000,341.333000,336.100000C341.071000,336.771000,340.809000,337.443000,340.572000,338.181000C339.228000,335.772000,337.887000,333.365000,336.550000,330.962000C336.446000,331.213000,336.313000,331.399000,336.182000,331.583000C337.537000,334.026000,338.895000,336.472000,340.256000,338.921000C338.942000,342.581000,337.418000,346.376000,335.946000,350.170000C330.636000,347.014000,326.274000,335.796000,324.302000,329.954000C324.118000,329.971000,323.881000,330.055000,323.619000,330.155000C325.644000,336.167000,330.059000,347.551000,335.736000,350.657000C333.397000,356.417000,330.847000,362.091000,328.324000,366.945000C323.199000,364.410000,316.864000,351.497000,314.079000,345.401000C313.921000,345.486000,313.657000,345.503000,313.395000,345.603000C316.233000,351.867000,322.594000,364.947000,328.061000,367.382000C327.955000,367.633000,327.745000,367.885000,327.640000,368.136000C327.883000,368.144000,328.128000,368.156000,328.377000,368.171000C329.375000,366.239000,330.479000,364.124000,331.530000,361.773000C336.340000,360.447000,348.640000,354.367000,355.027000,351.144000C354.974000,350.977000,354.922000,350.808000,354.817000,350.708000C348.771000,353.762000,336.866000,359.674000,331.846000,361.269000C333.922000,356.769000,336.209000,351.463000,338.469000,345.419000C338.521000,345.301000,338.574000,345.116000,338.627000,344.999000C345.197000,343.102000,353.449000,337.274000,358.076000,333.698000C358.050000,333.581000,358.023000,333.531000,357.919000,333.430000C357.997000,333.363000,357.970000,333.312000,357.971000,333.262000Z" fill="rgb(255,255,255)" fill-rule="evenodd" stroke="none" stroke-width="1"/><path id="eQPEq4TB3wI109" d="M66.331000,367.133000C66.331000,367.133000,68.693000,335.171000,58.282000,333.598000C47.930000,332.025000,52.673000,344.730000,47.457000,342.823000C42.242000,340.935000,42.478000,323.724000,30.551000,324.746000C18.625000,325.769000,34.035000,339.420000,26.832000,339.420000C19.628000,339.420000,29.430000,347.621000,29.430000,354.093000C29.430000,360.565000,10.398000,346.914000,8.115000,355.666000C4.868000,368.216000,27.540000,367.351000,27.540000,367.351000C40.470000,367.275000,53.401000,367.202000,66.331000,367.133000Z" fill="rgb(86,77,159)" fill-rule="evenodd" stroke="none" stroke-width="1"/><path id="eQPEq4TB3wI110" d="M16.105000,366.034000C23.918000,364.304000,40.431000,362.081000,47.063000,366.350000C47.299000,366.664000,47.536000,366.900000,47.772000,367.293000C48.244000,367.290000,48.716000,367.290000,49.189000,367.293000C48.165000,365.916000,47.142000,364.461000,46.119000,363.045000C48.559000,355.787000,48.323000,347.427000,47.929000,343.101000C47.929000,343.101000,47.929000,343.101000,47.851000,343.101000C47.772000,343.101000,47.693000,343.101000,47.614000,342.904000C47.614000,342.904000,47.614000,342.904000,47.536000,342.904000C47.536000,342.904000,47.536000,342.904000,47.457000,342.904000C47.457000,342.904000,47.457000,342.904000,47.378000,342.904000C47.378000,342.904000,47.378000,342.904000,47.299000,342.904000C47.299000,342.904000,47.299000,342.904000,47.221000,342.904000C47.194000,342.887000,47.168000,342.874000,47.142000,342.864000C47.063000,342.864000,47.063000,342.805000,46.985000,342.805000C47.380000,346.758000,47.772000,354.882000,45.568000,362.160000C44.229000,360.114000,42.970000,358.068000,41.690000,355.925000C44.288000,353.564000,44.053000,343.926000,43.501000,337.141000C43.422000,336.905000,43.344000,336.747000,43.265000,336.511000C43.265000,336.433000,43.265000,336.433000,43.186000,336.354000C42.872000,335.488000,42.478000,334.623000,42.084000,333.758000C42.950000,341.881000,43.186000,352.463000,41.139000,354.823000C34.586000,343.139000,29.763000,330.906000,27.874000,325.771000C27.481000,326.008000,27.166000,326.165000,26.930000,326.480000C28.582000,330.984000,32.381000,340.602000,37.518000,350.398000C40.273000,355.767000,43.127000,360.507000,45.804000,364.441000C38.148000,360.723000,18.880000,363.733000,13.507000,365.307000C14.137000,365.405000,15.082000,365.720000,16.105000,366.034000Z" fill="rgb(235,237,245)" fill-rule="evenodd" stroke="none" stroke-width="1"/><path id="eQPEq4TB3wI111" d="M152.348000,166.011000C152.348000,166.011000,152.348000,166.011000,152.348000,166.011000C152.374000,164.653000,152.034000,163.308000,151.222000,162.273000C150.529000,161.386000,149.546000,160.782000,148.499000,160.445000C147.701000,160.190000,146.863000,160.109000,146.039000,160.163000C145.593000,160.163000,145.136000,160.203000,144.691000,160.283000C144.677000,160.283000,144.664000,160.283000,144.651000,160.283000C144.508000,160.311000,144.377000,160.338000,144.232000,160.378000C144.219000,160.378000,144.206000,160.391000,144.180000,160.391000C144.049000,160.431000,143.905000,160.459000,143.775000,160.498000C143.775000,160.498000,143.775000,160.498000,143.761000,160.498000C143.630000,160.539000,143.512000,160.580000,143.381000,160.633000C143.356000,160.647000,143.329000,160.660000,143.303000,160.660000C143.185000,160.714000,143.067000,160.754000,142.949000,160.808000C142.924000,160.821000,142.884000,160.834000,142.857000,160.849000C142.753000,160.902000,142.635000,160.956000,142.530000,161.023000C142.518000,161.023000,142.505000,161.036000,142.505000,161.036000C140.895000,161.953000,139.729000,163.510000,138.866000,165.177000C138.722000,165.460000,137.425000,169.425000,136.469000,174.278000C136.468000,174.281000,136.468000,174.286000,136.469000,174.291000C136.431000,174.493000,136.391000,174.708000,136.353000,174.910000C136.143000,175.838000,135.776000,176.725000,135.161000,177.411000C134.624000,178.002000,133.891000,178.392000,133.120000,178.540000C132.661000,178.581000,132.202000,178.566000,131.745000,178.473000C130.370000,178.177000,129.140000,177.075000,128.851000,175.663000C128.550000,174.170000,129.270000,172.719000,130.069000,171.415000C130.148000,171.280000,130.226000,171.146000,130.317000,171.025000C130.148000,170.971000,129.990000,170.917000,129.820000,170.850000C128.956000,170.474000,128.093000,169.976000,127.412000,169.318000C127.176000,169.075000,126.967000,168.821000,126.797000,168.537000C126.012000,167.287000,125.881000,165.527000,126.757000,164.330000C127.412000,163.443000,128.524000,162.987000,129.611000,163.013000C129.689000,163.013000,129.755000,163.013000,129.834000,163.026000C130.986000,163.120000,132.073000,163.711000,132.936000,164.492000C132.949000,164.505000,132.962000,164.518000,132.988000,164.532000C133.080000,164.612000,133.158000,164.707000,133.250000,164.787000C133.289000,164.827000,133.329000,164.868000,133.354000,164.909000C133.434000,164.989000,133.512000,165.083000,133.590000,165.163000C133.630000,165.217000,133.669000,165.258000,133.708000,165.312000C133.773000,165.393000,133.839000,165.473000,133.891000,165.540000C133.931000,165.594000,133.970000,165.647000,134.009000,165.701000C134.062000,165.768000,134.114000,165.849000,134.167000,165.916000C134.232000,166.011000,134.284000,166.105000,134.350000,166.185000C134.388000,166.239000,134.415000,166.293000,134.454000,166.347000C134.493000,166.414000,134.546000,166.495000,134.585000,166.562000C134.611000,166.602000,134.624000,166.629000,134.638000,166.669000C134.729000,166.831000,134.807000,166.979000,134.887000,167.153000C134.899000,167.167000,134.899000,167.194000,134.912000,167.207000C135.200000,167.812000,135.436000,168.457000,135.632000,169.116000C135.736000,169.479000,135.829000,169.856000,135.921000,170.232000C136.208000,168.806000,136.627000,167.181000,137.190000,165.970000C137.073000,165.701000,136.955000,165.445000,136.810000,165.177000C135.959000,163.510000,134.782000,161.951000,133.171000,161.036000C133.158000,161.036000,133.145000,161.023000,133.145000,161.023000C133.040000,160.969000,132.935000,160.902000,132.818000,160.849000C132.792000,160.834000,132.753000,160.821000,132.726000,160.808000C132.608000,160.754000,132.491000,160.700000,132.373000,160.660000C132.347000,160.647000,132.321000,160.633000,132.294000,160.633000C132.164000,160.580000,132.046000,160.539000,131.915000,160.498000C131.915000,160.498000,131.915000,160.498000,131.902000,160.498000C131.770000,160.459000,131.640000,160.417000,131.496000,160.391000C131.483000,160.391000,131.469000,160.378000,131.444000,160.378000C131.313000,160.351000,131.169000,160.311000,131.025000,160.283000C131.012000,160.283000,130.999000,160.283000,130.986000,160.283000C130.540000,160.203000,130.095000,160.163000,129.637000,160.163000C128.813000,160.109000,127.975000,160.190000,127.176000,160.445000C126.129000,160.782000,125.135000,161.386000,124.453000,162.273000C123.642000,163.308000,123.301000,164.666000,123.328000,166.011000C123.327000,166.014000,123.327000,166.018000,123.328000,166.024000C123.328000,166.118000,123.328000,166.213000,123.328000,166.306000C123.328000,166.333000,123.328000,166.360000,123.328000,166.387000C123.328000,166.441000,123.328000,166.482000,123.341000,166.534000C123.341000,166.629000,123.354000,166.723000,123.368000,166.804000C123.368000,166.844000,123.381000,166.898000,123.381000,166.938000C123.394000,167.046000,123.406000,167.153000,123.432000,167.261000C123.432000,167.287000,123.446000,167.315000,123.446000,167.328000C123.472000,167.463000,123.499000,167.610000,123.537000,167.745000C123.564000,167.866000,123.603000,168.001000,123.642000,168.121000C123.641000,168.124000,123.641000,168.129000,123.642000,168.135000C123.813000,168.672000,124.032000,169.172000,124.310000,169.654000C124.310000,169.654000,124.310000,169.667000,124.323000,169.667000C124.349000,169.721000,124.375000,169.761000,124.415000,169.815000C124.453000,169.882000,124.506000,169.950000,124.546000,170.030000C124.558000,170.058000,124.571000,170.084000,124.598000,170.110000C124.767000,170.366000,124.964000,170.622000,125.161000,170.863000C125.174000,170.891000,125.199000,170.904000,125.213000,170.931000C125.291000,171.025000,125.384000,171.119000,125.462000,171.213000C125.488000,171.240000,125.514000,171.267000,125.540000,171.308000C125.618000,171.388000,125.698000,171.469000,125.789000,171.549000C125.815000,171.577000,125.841000,171.603000,125.881000,171.629000C125.972000,171.711000,126.064000,171.805000,126.168000,171.885000C126.195000,171.898000,126.208000,171.926000,126.234000,171.939000C126.352000,172.047000,126.469000,172.141000,126.601000,172.235000C126.443000,172.638000,126.338000,173.068000,126.260000,173.499000C126.233000,173.686000,126.208000,173.875000,126.195000,174.063000C126.195000,174.090000,126.195000,174.131000,126.182000,174.157000C126.182000,174.211000,126.182000,174.278000,126.168000,174.332000C126.168000,174.386000,126.168000,174.439000,126.168000,174.493000C126.168000,174.534000,126.168000,174.588000,126.168000,174.628000C126.168000,174.695000,126.168000,174.762000,126.168000,174.830000C126.168000,174.843000,126.168000,174.843000,126.168000,174.856000C126.168000,174.937000,126.182000,175.018000,126.182000,175.098000C126.182000,175.125000,126.182000,175.139000,126.182000,175.166000C126.182000,175.246000,126.195000,175.313000,126.208000,175.394000C126.208000,175.435000,126.221000,175.461000,126.221000,175.502000C126.233000,175.569000,126.234000,175.636000,126.247000,175.704000C126.247000,175.730000,126.260000,175.771000,126.260000,175.797000C126.273000,175.892000,126.287000,175.986000,126.313000,176.080000C126.313000,176.107000,126.326000,176.120000,126.326000,176.133000C126.338000,176.214000,126.365000,176.281000,126.378000,176.362000C126.391000,176.389000,126.391000,176.429000,126.404000,176.456000C126.418000,176.524000,126.443000,176.604000,126.456000,176.671000C126.469000,176.698000,126.469000,176.725000,126.483000,176.739000C126.509000,176.832000,126.535000,176.927000,126.574000,177.021000C126.574000,177.034000,126.587000,177.047000,126.587000,177.075000C126.614000,177.155000,126.640000,177.236000,126.679000,177.303000C126.692000,177.329000,126.692000,177.357000,126.705000,177.370000C126.732000,177.451000,126.770000,177.518000,126.797000,177.598000C126.797000,177.613000,126.810000,177.626000,126.810000,177.639000C126.850000,177.733000,126.888000,177.828000,126.941000,177.908000C126.941000,177.921000,126.954000,177.935000,126.954000,177.935000C126.993000,178.015000,127.033000,178.097000,127.071000,178.164000C127.084000,178.177000,127.098000,178.204000,127.098000,178.217000C127.137000,178.298000,127.190000,178.379000,127.242000,178.459000C127.242000,178.459000,127.242000,178.473000,127.255000,178.473000C127.307000,178.553000,127.360000,178.648000,127.425000,178.728000C127.425000,178.742000,127.438000,178.742000,127.438000,178.755000C127.490000,178.822000,127.543000,178.902000,127.595000,178.970000C127.608000,178.984000,127.608000,178.997000,127.621000,179.011000C127.739000,179.172000,127.871000,179.319000,128.001000,179.468000C128.004000,179.471000,128.008000,179.475000,128.014000,179.481000C128.079000,179.549000,128.132000,179.616000,128.198000,179.670000C128.210000,179.683000,128.223000,179.696000,128.223000,179.696000C128.368000,179.830000,128.512000,179.952000,128.668000,180.072000C128.682000,180.086000,128.682000,180.086000,128.695000,180.086000C128.760000,180.139000,128.826000,180.193000,128.904000,180.234000C128.918000,180.247000,128.931000,180.247000,128.943000,180.261000C129.101000,180.369000,129.270000,180.462000,129.428000,180.556000C129.441000,180.570000,129.455000,180.570000,129.467000,180.584000C129.533000,180.623000,129.611000,180.651000,129.689000,180.690000C129.702000,180.705000,129.716000,180.705000,129.742000,180.718000C129.834000,180.758000,129.912000,180.785000,130.003000,180.825000C130.030000,180.839000,130.056000,180.839000,130.069000,180.852000C130.148000,180.879000,130.226000,180.906000,130.304000,180.933000C130.344000,180.946000,130.384000,180.959000,130.435000,180.973000C130.502000,181,130.580000,181.013000,130.645000,181.040000C130.685000,181.054000,130.723000,181.067000,130.763000,181.067000C130.868000,181.094000,130.972000,181.121000,131.077000,181.148000C131.090000,181.148000,131.117000,181.161000,131.130000,181.161000C131.221000,181.189000,131.313000,181.202000,131.405000,181.215000C131.431000,181.215000,131.470000,181.228000,131.496000,181.228000C131.587000,181.242000,131.679000,181.256000,131.770000,181.269000C131.797000,181.269000,131.810000,181.282000,131.837000,181.282000C131.955000,181.296000,132.059000,181.309000,132.177000,181.323000C132.189000,181.323000,132.216000,181.323000,132.229000,181.323000C132.320000,181.336000,132.425000,181.336000,132.517000,181.336000C132.543000,181.336000,132.583000,181.336000,132.608000,181.336000C132.701000,181.336000,132.805000,181.336000,132.897000,181.336000C132.910000,181.336000,132.922000,181.336000,132.936000,181.336000C132.939000,181.335000,132.943000,181.335000,132.949000,181.336000C132.962000,181.336000,132.975000,181.337000,133.002000,181.336000C134.258000,181.309000,135.580000,180.972000,136.627000,180.206000C136.692000,180.167000,136.745000,180.113000,136.797000,180.072000C136.928000,179.965000,137.059000,179.857000,137.177000,179.750000C138.342000,178.486000,138.905000,175.958000,139.154000,174.291000C139.154000,174.291000,139.154000,174.291000,139.154000,174.278000C139.219000,173.768000,139.272000,173.243000,139.337000,172.718000C139.376000,172.436000,139.402000,172.141000,139.441000,171.859000C139.494000,171.482000,139.559000,171.093000,139.624000,170.702000C139.729000,170.164000,139.860000,169.613000,140.018000,169.089000C140.214000,168.430000,140.449000,167.799000,140.738000,167.180000C140.751000,167.167000,140.751000,167.140000,140.763000,167.126000C140.842000,166.965000,140.921000,166.804000,141.012000,166.643000C141.026000,166.602000,141.052000,166.575000,141.065000,166.534000C141.104000,166.454000,141.143000,166.387000,141.195000,166.320000C141.235000,166.266000,141.261000,166.213000,141.300000,166.159000C141.353000,166.064000,141.418000,165.970000,141.484000,165.890000C141.536000,165.822000,141.589000,165.742000,141.640000,165.675000C141.680000,165.621000,141.719000,165.567000,141.758000,165.513000C141.823000,165.432000,141.876000,165.352000,141.942000,165.284000C141.981000,165.230000,142.020000,165.191000,142.059000,165.137000C142.138000,165.043000,142.216000,164.962000,142.295000,164.881000C142.334000,164.841000,142.374000,164.801000,142.400000,164.760000C142.478000,164.679000,142.570000,164.586000,142.661000,164.505000C142.675000,164.492000,142.688000,164.478000,142.714000,164.464000C143.577000,163.671000,144.664000,163.093000,145.816000,162.999000C145.894000,162.999000,145.960000,162.986000,146.039000,162.986000C147.126000,162.959000,148.238000,163.416000,148.893000,164.304000C149.769000,165.500000,149.651000,167.261000,148.853000,168.511000C148.670000,168.793000,148.461000,169.062000,148.238000,169.290000C147.557000,169.950000,146.693000,170.447000,145.829000,170.824000C145.660000,170.891000,145.502000,170.944000,145.332000,170.998000C145.410000,171.132000,145.489000,171.254000,145.580000,171.388000C146.379000,172.692000,147.099000,174.157000,146.798000,175.636000C146.509000,177.047000,145.279000,178.136000,143.905000,178.446000C143.447000,178.540000,142.989000,178.566000,142.530000,178.513000C141.758000,178.366000,141.026000,177.975000,140.489000,177.383000C140.344000,177.222000,140.214000,177.047000,140.083000,176.860000C139.729000,178.110000,139.219000,179.266000,138.826000,180.059000C138.878000,180.100000,138.931000,180.139000,138.971000,180.180000C140.005000,180.946000,141.326000,181.282000,142.596000,181.309000C142.609000,181.309000,142.623000,181.309000,142.648000,181.309000C142.651000,181.307000,142.656000,181.307000,142.661000,181.309000C142.674000,181.309000,142.688000,181.309000,142.701000,181.309000C142.792000,181.309000,142.897000,181.309000,142.989000,181.309000C143.015000,181.309000,143.054000,181.309000,143.080000,181.309000C143.172000,181.309000,143.276000,181.296000,143.368000,181.296000C143.381000,181.296000,143.407000,181.296000,143.421000,181.296000C143.539000,181.282000,143.643000,181.269000,143.761000,181.256000C143.787000,181.256000,143.800000,181.242000,143.827000,181.242000C143.918000,181.228000,144.009000,181.215000,144.101000,181.202000C144.127000,181.202000,144.167000,181.189000,144.194000,181.189000C144.285000,181.175000,144.376000,181.148000,144.468000,181.135000C144.481000,181.135000,144.508000,181.121000,144.520000,181.121000C144.624000,181.094000,144.729000,181.067000,144.834000,181.040000C144.874000,181.027000,144.913000,181.013000,144.952000,181.013000C145.018000,180.987000,145.096000,180.973000,145.161000,180.946000C145.201000,180.933000,145.241000,180.920000,145.292000,180.907000C145.371000,180.879000,145.450000,180.853000,145.528000,180.825000C145.555000,180.812000,145.580000,180.812000,145.593000,180.798000C145.685000,180.772000,145.764000,180.731000,145.856000,180.690000C145.869000,180.677000,145.881000,180.677000,145.908000,180.664000C145.986000,180.637000,146.052000,180.597000,146.130000,180.556000C146.143000,180.543000,146.157000,180.543000,146.170000,180.529000C146.340000,180.449000,146.497000,180.341000,146.654000,180.234000C146.667000,180.221000,146.680000,180.221000,146.694000,180.206000C146.759000,180.154000,146.837000,180.113000,146.903000,180.059000C146.916000,180.059000,146.916000,180.046000,146.928000,180.046000C147.086000,179.925000,147.230000,179.803000,147.374000,179.670000C147.387000,179.655000,147.400000,179.655000,147.400000,179.642000C147.465000,179.575000,147.532000,179.521000,147.583000,179.454000C147.586000,179.448000,147.590000,179.443000,147.596000,179.440000C147.727000,179.292000,147.859000,179.145000,147.976000,178.984000C147.989000,178.970000,148.002000,178.956000,148.002000,178.943000C148.055000,178.876000,148.107000,178.796000,148.160000,178.728000C148.160000,178.715000,148.173000,178.715000,148.173000,178.701000C148.224000,178.620000,148.290000,178.527000,148.343000,178.446000C148.343000,178.446000,148.343000,178.433000,148.356000,178.433000C148.408000,178.351000,148.447000,178.271000,148.499000,178.190000C148.512000,178.177000,148.525000,178.150000,148.525000,178.136000C148.565000,178.056000,148.604000,177.989000,148.643000,177.908000C148.643000,177.895000,148.657000,177.881000,148.657000,177.881000C148.695000,177.787000,148.748000,177.707000,148.788000,177.613000C148.800000,177.598000,148.800000,177.585000,148.800000,177.572000C148.840000,177.491000,148.866000,177.424000,148.893000,177.344000C148.905000,177.316000,148.905000,177.290000,148.918000,177.276000C148.944000,177.195000,148.971000,177.129000,149.009000,177.047000C149.009000,177.034000,149.023000,177.021000,149.023000,176.994000C149.049000,176.900000,149.089000,176.806000,149.114000,176.711000C149.127000,176.685000,149.128000,176.658000,149.141000,176.644000C149.167000,176.577000,149.180000,176.496000,149.194000,176.429000C149.207000,176.402000,149.207000,176.362000,149.219000,176.335000C149.232000,176.255000,149.259000,176.188000,149.272000,176.107000C149.272000,176.093000,149.285000,176.066000,149.285000,176.053000C149.298000,175.958000,149.324000,175.864000,149.337000,175.771000C149.337000,175.743000,149.350000,175.704000,149.350000,175.676000C149.363000,175.609000,149.377000,175.542000,149.377000,175.474000C149.377000,175.435000,149.390000,175.407000,149.390000,175.367000C149.403000,175.287000,149.403000,175.220000,149.416000,175.139000C149.416000,175.112000,149.416000,175.098000,149.416000,175.072000C149.416000,174.990000,149.428000,174.910000,149.428000,174.830000C149.428000,174.816000,149.428000,174.816000,149.428000,174.803000C149.428000,174.736000,149.428000,174.668000,149.428000,174.601000C149.428000,174.560000,149.428000,174.506000,149.428000,174.467000C149.428000,174.413000,149.428000,174.359000,149.428000,174.305000C149.428000,174.252000,149.428000,174.185000,149.416000,174.131000C149.416000,174.103000,149.416000,174.077000,149.403000,174.037000C149.390000,173.848000,149.363000,173.660000,149.337000,173.471000C149.272000,173.041000,149.154000,172.612000,148.997000,172.208000C149.114000,172.114000,149.245000,172.020000,149.363000,171.913000C149.390000,171.898000,149.403000,171.872000,149.428000,171.859000C149.521000,171.778000,149.626000,171.684000,149.717000,171.603000C149.743000,171.577000,149.769000,171.549000,149.809000,171.522000C149.887000,171.442000,149.978000,171.362000,150.057000,171.280000C150.083000,171.254000,150.110000,171.227000,150.136000,171.186000C150.228000,171.093000,150.306000,170.998000,150.384000,170.904000C150.397000,170.878000,150.424000,170.863000,150.437000,170.837000C150.633000,170.594000,150.829000,170.340000,150.999000,170.084000C151.012000,170.057000,151.039000,170.030000,151.052000,170.004000C151.092000,169.936000,151.144000,169.869000,151.183000,169.789000C151.209000,169.735000,151.235000,169.694000,151.275000,169.641000C151.275000,169.641000,151.275000,169.627000,151.288000,169.627000C151.564000,169.143000,151.785000,168.632000,151.955000,168.107000C151.954000,168.102000,151.954000,168.097000,151.955000,168.094000C151.995000,167.973000,152.034000,167.839000,152.060000,167.718000C152.099000,167.584000,152.126000,167.449000,152.151000,167.301000C152.151000,167.274000,152.164000,167.248000,152.164000,167.233000C152.177000,167.126000,152.204000,167.018000,152.217000,166.912000C152.217000,166.871000,152.230000,166.817000,152.231000,166.777000C152.244000,166.682000,152.244000,166.589000,152.256000,166.508000C152.256000,166.454000,152.256000,166.414000,152.269000,166.360000C152.269000,166.333000,152.269000,166.306000,152.269000,166.280000C152.348000,166.198000,152.348000,166.105000,152.348000,166.011000Z" fill="rgb(255,255,255)" fill-rule="evenodd" stroke="none" stroke-width="1"/><g id="eQPEq4TB3wI112_to" transform="translate(48.023499,89.605000)"><g id="eQPEq4TB3wI112" transform="translate(-48.023499,-89.605000)"><path id="eQPEq4TB3wI113" d="M48.024000,121.602000C66.022000,121.602000,80.020000,107.603000,80.020000,89.605000C80.020000,71.607000,66.022000,57.608000,48.024000,57.608000C30.026000,57.608000,16.027000,71.607000,16.027000,89.605000C16.027000,107.603000,30.026000,121.602000,48.024000,121.602000Z" fill="rgb(45,255,179)" fill-rule="evenodd" stroke="none" stroke-width="1"/><path id="eQPEq4TB3wI114" d="M40.964000,81.634000C40.964000,79.530000,40.964000,77.427000,40.964000,75.324000C44.628000,75.324000,48.292000,75.324000,51.957000,75.324000C51.956000,84.980000,51.956000,94.636000,51.957000,104.293000C49.602000,104.292000,47.247000,104.292000,44.893000,104.293000C44.893000,96.739000,44.893000,89.186000,44.893000,81.634000C43.583000,81.633000,42.273000,81.633000,40.964000,81.634000Z" fill="rgb(38,7,89)" fill-rule="evenodd" stroke="none" stroke-width="1"/></g></g></g></svg>