<svg id="eY2rVb7ZHIP1" xmlns="http://www.w3.org/2000/svg" xmlns:xlink="http://www.w3.org/1999/xlink" viewBox="0 0 366 402" shape-rendering="geometricPrecision" text-rendering="geometricPrecision"><style><![CDATA[#eY2rVb7ZHIP16_to {animation: eY2rVb7ZHIP16_to__to 3000ms linear infinite normal forwards}@keyframes eY2rVb7ZHIP16_to__to { 0% {transform: translate(198.575996px,162.974606px)} 50% {transform: translate(202.687974px,157.297105px)} 100% {transform: translate(198.575996px,162.974606px)}} #eY2rVb7ZHIP16_tr {animation: eY2rVb7ZHIP16_tr__tr 3000ms linear infinite normal forwards}@keyframes eY2rVb7ZHIP16_tr__tr { 0% {transform: rotate(0deg)} 50% {transform: rotate(7.602464deg)} 100% {transform: rotate(0deg)}} #eY2rVb7ZHIP30_tr {animation: eY2rVb7ZHIP30_tr__tr 3000ms linear infinite normal forwards}@keyframes eY2rVb7ZHIP30_tr__tr { 0% {transform: translate(70.652903px,162.628059px) rotate(0deg)} 50% {transform: translate(70.652903px,162.628059px) rotate(4.189931deg)} 100% {transform: translate(70.652903px,162.628059px) rotate(0deg)}} #eY2rVb7ZHIP39 {animation: eY2rVb7ZHIP39_c_o 3000ms linear infinite normal forwards}@keyframes eY2rVb7ZHIP39_c_o { 0% {opacity: 1} 50% {opacity: 0.200000} 100% {opacity: 1}} #eY2rVb7ZHIP52_to {animation: eY2rVb7ZHIP52_to__to 3000ms linear infinite normal forwards}@keyframes eY2rVb7ZHIP52_to__to { 0% {transform: translate(156.381500px,55.370269px)} 50% {transform: translate(143.381500px,45.370269px)} 100% {transform: translate(156.381500px,55.370269px)}} #eY2rVb7ZHIP66_to {animation: eY2rVb7ZHIP66_to__to 3000ms linear infinite normal forwards}@keyframes eY2rVb7ZHIP66_to__to { 0% {transform: translate(40.663000px,88.346004px)} 33.333333% {transform: translate(50.663000px,88.346004px)} 66.666667% {transform: translate(31.663000px,88.346004px)} 100% {transform: translate(40.663000px,88.346004px)}}]]></style><defs><linearGradient id="eY2rVb7ZHIP3-fill" x1="0.452000" y1="3.008100" x2="0.462000" y2="0.523400" spreadMethod="pad" gradientUnits="objectBoundingBox"><stop id="eY2rVb7ZHIP3-fill-0" offset="0%" stop-color="rgba(255,255,255,0)"/><stop id="eY2rVb7ZHIP3-fill-1" offset="100%" stop-color="rgb(230,240,248)"/></linearGradient><linearGradient id="eY2rVb7ZHIP4-fill" x1="0.487300" y1="1.156900" x2="0.444700" y2="0.621100" spreadMethod="pad" gradientUnits="objectBoundingBox"><stop id="eY2rVb7ZHIP4-fill-0" offset="0%" stop-color="rgba(255,255,255,0)"/><stop id="eY2rVb7ZHIP4-fill-1" offset="100%" stop-color="rgb(230,240,248)"/></linearGradient></defs><g id="eY2rVb7ZHIP2"><path id="eY2rVb7ZHIP3" d="M193.565000,393.361000C281.233000,393.361000,352.294000,385.153000,352.294000,375.046000C352.294000,364.939000,281.233000,356.732000,193.565000,356.732000C105.896000,356.732000,34.837000,364.939000,34.837000,375.046000C34.837000,385.153000,105.896000,393.361000,193.565000,393.361000Z" fill="url(#eY2rVb7ZHIP3-fill)" fill-rule="evenodd" stroke="none" stroke-width="1"/><path id="eY2rVb7ZHIP4" d="M330.934000,118.719000C323.256000,100.316000,308.582000,84.516000,290.665000,76.182000C245.501000,55.166000,215.509000,96.378000,179.225000,114.869000C162.452000,123.418000,144.476000,123.349000,126.666000,118.359000C108.270000,113.202000,92.024000,102.451000,72.915000,99.078000C54.822000,95.891000,34.384000,99.049000,22.554000,114.089000C10.899000,128.895000,5.506000,147.884000,4.050000,166.453000C2.116000,191.036000,9.912000,214.810000,25.934000,233.573000C45.238000,256.188000,71.664000,271.023000,98.716000,282.525000C142.590000,301.172000,190.324000,309.477000,230.700000,277.485000C242.649000,268.021000,252.310000,256.158000,262.656000,245.055000C273.197000,233.739000,284.823000,225.493000,297.152000,216.408000C319.661000,199.827000,337.217000,174.582000,336.747000,145.768000C336.600000,136.519000,334.529000,127.336000,330.934000,118.719000Z" fill="url(#eY2rVb7ZHIP4-fill)" fill-rule="evenodd" stroke="none" stroke-width="1"/><path id="eY2rVb7ZHIP5" d="M305.855000,384.901000C305.855000,384.901000,304.009000,354.483000,312.147000,352.986000C320.239000,351.489000,316.531000,363.581000,320.608000,361.765000C324.685000,359.968000,324.499000,343.589000,333.823000,344.563000C343.145000,345.536000,331.099000,358.526000,336.729000,358.526000C342.360000,358.526000,334.699000,366.332000,334.699000,372.491000C334.699000,378.649000,349.575000,365.659000,351.359000,373.987000C353.898000,385.930000,336.176000,385.106000,336.176000,385.106000C326.066000,385.034000,315.959000,384.965000,305.855000,384.901000Z" fill="rgb(86,77,159)" fill-rule="evenodd" stroke="none" stroke-width="1"/><path id="eY2rVb7ZHIP6" d="M345.108000,383.855000C339.001000,382.209000,326.095000,380.094000,320.910000,384.155000C320.726000,384.455000,320.541000,384.679000,320.357000,385.053000C319.985000,385.049000,319.615000,385.049000,319.249000,385.053000C320.049000,383.743000,320.849000,382.358000,321.648000,381.010000C319.741000,374.103000,319.926000,366.148000,320.234000,362.030000C320.234000,362.030000,320.234000,362.030000,320.295000,362.030000C320.357000,362.030000,320.418000,362.030000,320.480000,361.844000C320.480000,361.844000,320.480000,361.844000,320.541000,361.844000C320.541000,361.844000,320.541000,361.844000,320.603000,361.844000C320.603000,361.844000,320.603000,361.844000,320.664000,361.844000C320.664000,361.844000,320.664000,361.844000,320.726000,361.844000C320.726000,361.844000,320.726000,361.844000,320.787000,361.844000C320.805000,361.827000,320.826000,361.814000,320.849000,361.805000C320.910000,361.805000,320.910000,361.750000,320.972000,361.750000C320.664000,365.512000,320.357000,373.242000,322.080000,380.168000C323.126000,378.221000,324.110000,376.275000,325.110000,374.234000C323.080000,371.988000,323.265000,362.816000,323.695000,356.359000C323.757000,356.135000,323.818000,355.985000,323.880000,355.760000C323.880000,355.685000,323.880000,355.685000,323.941000,355.610000C324.187000,354.787000,324.495000,353.963000,324.802000,353.139000C324.126000,360.869000,323.941000,370.940000,325.541000,373.186000C330.663000,362.068000,334.433000,350.426000,335.910000,345.540000C336.217000,345.764000,336.464000,345.914000,336.648000,346.213000C335.356000,350.500000,332.387000,359.653000,328.371000,368.975000C326.218000,374.084000,323.987000,378.596000,321.896000,382.339000C327.879000,378.801000,342.940000,381.666000,347.139000,383.162000C346.647000,383.256000,345.909000,383.556000,345.108000,383.855000Z" fill="rgb(235,237,245)" fill-rule="evenodd" stroke="none" stroke-width="1"/><path id="eY2rVb7ZHIP7" d="M236.648000,362.169000C236.648000,362.169000,237.361000,366.120000,237.644000,370.811000C237.764000,372.811000,236.277000,374.547000,234.277000,374.740000C227.311000,375.413000,211.454000,376.656000,201.328000,375.199000C199.910000,374.995000,199.347000,373.260000,200.394000,372.286000C204.570000,368.411000,214.653000,360.873000,231.246000,359.226000C233.044000,360.203000,234.845000,361.184000,236.648000,362.169000Z" fill="rgb(47,0,156)" fill-rule="evenodd" stroke="none" stroke-width="1"/><path id="eY2rVb7ZHIP8" d="M240.110000,353.261000C238.934000,356.124000,237.760000,358.991000,236.588000,361.862000C236.106000,363.040000,234.906000,363.774000,233.635000,363.640000C232.772000,363.550000,231.751000,363.385000,230.758000,363.085000C228.770000,362.485000,227.650000,360.384000,228.243000,358.402000C229.127000,355.446000,230.014000,352.493000,230.903000,349.544000C233.969000,350.780000,237.039000,352.019000,240.110000,353.261000Z" fill="rgb(255,179,177)" fill-rule="evenodd" stroke="none" stroke-width="1"/><path id="eY2rVb7ZHIP9" d="M300.328000,369.022000C300.328000,369.022000,293.275000,374.901000,290.527000,382.442000C289.772000,384.516000,291.369000,386.701000,293.582000,386.701000C298.417000,386.697000,303.255000,386.697000,308.095000,386.701000C310.220000,386.701000,311.848000,384.797000,311.478000,382.713000C310.555000,377.505000,307.889000,369.042000,300.328000,369.022000Z" fill="rgb(47,0,156)" fill-rule="evenodd" stroke="none" stroke-width="1"/><path id="eY2rVb7ZHIP10" d="M309.064000,361.366000C309.064000,361.366000,307.640000,367.650000,306.544000,371.801000C306.346000,372.555000,305.539000,372.968000,304.800000,372.705000C302.605000,371.924000,300.819000,371.578000,299.517000,371.750000C298.917000,371.830000,298.393000,371.334000,298.386000,370.730000C298.337000,367.248000,298.291000,363.770000,298.248000,360.295000C301.851000,360.649000,305.456000,361.006000,309.064000,361.366000Z" fill="rgb(255,179,177)" fill-rule="evenodd" stroke="none" stroke-width="1"/><path id="eY2rVb7ZHIP11" d="M271.555000,220.005000C257.252000,263.466000,242.952000,306.929000,228.655000,350.395000C228.655000,350.395000,236.883000,355.764000,240.803000,355.540000C257.785000,320.607000,274.770000,285.677000,291.757000,250.749000C291.757000,250.749000,300.673000,315.318000,296.353000,361.672000C301.215000,362.038000,306.080000,362.408000,310.947000,362.782000C310.947000,362.782000,334.679000,244.319000,316.704000,203.746000C301.651000,209.164000,286.602000,214.583000,271.555000,220.005000Z" fill="rgb(26,15,146)" fill-rule="evenodd" stroke="none" stroke-width="1"/><path id="eY2rVb7ZHIP12" d="M291.480000,249.621000C291.498000,249.621000,291.515000,249.618000,291.532000,249.616000C291.760000,249.587000,291.921000,249.381000,291.892000,249.155000C291.333000,244.764000,290.779000,240.375000,290.226000,235.989000C290.199000,235.763000,289.992000,235.605000,289.763000,235.631000C289.535000,235.660000,289.373000,235.866000,289.403000,236.092000C289.955000,240.479000,290.511000,244.867000,291.069000,249.258000C291.095000,249.468000,291.273000,249.621000,291.480000,249.621000Z" fill="rgb(61,48,199)" fill-rule="evenodd" stroke="none" stroke-width="1"/><path id="eY2rVb7ZHIP13" d="M263.512000,105.264000C263.512000,105.264000,298.269000,108.339000,293.351000,133.012000C293.351000,133.012000,312.564000,169.034000,321.546000,211.470000C321.838000,212.850000,320.910000,214.198000,319.514000,214.435000C300.218000,217.724000,280.924000,221.016000,261.633000,224.309000C260.036000,224.580000,258.496000,223.588000,258.092000,222.026000C253.480000,204.274000,248.870000,186.523000,244.263000,168.775000C242.464000,177.026000,240.668000,185.280000,238.873000,193.535000C233.163000,192.051000,227.455000,190.569000,221.750000,189.089000C226.553000,164.837000,231.359000,140.586000,236.167000,116.337000C236.165000,116.335000,238.175000,105.720000,263.512000,105.264000Z" fill="rgb(45,255,179)" fill-rule="evenodd" stroke="none" stroke-width="1"/><path id="eY2rVb7ZHIP14" d="M243.964000,166.395000C243.993000,166.395000,244.025000,166.392000,244.056000,166.385000C244.289000,166.336000,244.436000,166.106000,244.386000,165.875000C242.774000,158.516000,241.167000,151.158000,239.561000,143.802000C239.510000,143.571000,239.283000,143.425000,239.048000,143.474000C238.816000,143.523000,238.668000,143.752000,238.719000,143.984000C240.324000,151.340000,241.932000,158.698000,243.544000,166.057000C243.589000,166.259000,243.766000,166.395000,243.964000,166.395000Z" fill="rgb(17,226,151)" fill-rule="evenodd" stroke="none" stroke-width="1"/><path id="eY2rVb7ZHIP15" d="M247.463000,232.074000C249.286000,231.076000,251.419000,230.799000,253.438000,231.299000C254.778000,231.629000,256.120000,231.962000,257.465000,232.297000C258.321000,232.510000,259.168000,231.922000,259.267000,231.048000C260.653000,218.727000,262.042000,206.409000,263.434000,194.092000C268.644000,196.556000,276.162000,196.263000,278.642000,196.083000C275.442000,210.604000,272.245000,225.126000,269.050000,239.651000C257.860000,239.649000,246.672000,239.649000,235.486000,239.651000C239.476000,237.123000,243.468000,234.598000,247.463000,232.074000Z" fill="rgb(255,179,177)" fill-rule="evenodd" stroke="none" stroke-width="1"/><g id="eY2rVb7ZHIP16_to" transform="translate(198.575996,162.974606)"><g id="eY2rVb7ZHIP16_tr" transform="rotate(0)"><path id="eY2rVb7ZHIP16" d="M158.280000,151.912000C158.616000,150.791000,158.954000,149.671000,159.293000,148.553000C159.877000,146.619000,161.310000,145.055000,163.191000,144.302000C169.306000,141.850000,175.422000,139.400000,181.540000,136.951000C181.540000,136.951000,181.818000,134.607000,177.663000,133.014000C173.509000,131.420000,174.480000,126.786000,174.480000,126.786000C174.480000,126.786000,180.156000,129.365000,188.464000,133.456000C193.216000,135.795000,195.881000,139.926000,197.294000,143.036000C211.151000,159.868000,225.011000,176.701000,238.872000,193.536000C237.242000,194.648000,235.615000,195.762000,233.990000,196.878000C227.571000,201.272000,218.742000,199.113000,215.094000,192.257000C207.585000,177.911000,200.077000,163.567000,192.572000,149.224000C181.262000,152.609000,169.820000,153.256000,158.280000,151.912000Z" transform="translate(-198.575996,-162.974606)" fill="rgb(255,179,177)" fill-rule="evenodd" stroke="none" stroke-width="1"/></g></g><path id="eY2rVb7ZHIP17" d="M252.250000,81.709000C255.811000,91.644000,259.374000,101.581000,262.941000,111.518000C262.941000,111.518000,253.474000,118.890000,246.565000,116.398000C244.767000,110.701000,242.971000,105.005000,241.178000,99.310000C241.179000,99.310000,245.295000,78.426000,252.250000,81.709000Z" fill="rgb(240,159,157)" fill-rule="evenodd" stroke="none" stroke-width="1"/><path id="eY2rVb7ZHIP18" d="M220.346000,71.003000C220.346000,71.463000,230.643000,100.047000,230.643000,100.047000C236.059000,97.978000,241.478000,95.909000,246.900000,93.842000C244.990000,84.329000,243.084000,74.816000,241.179000,65.304000C241.179000,65.304000,220.346000,63.313000,220.346000,71.003000Z" fill="rgb(254,181,180)" fill-rule="evenodd" stroke="none" stroke-width="1"/><path id="eY2rVb7ZHIP19" d="M238.328000,72.257000C239.723000,77.185000,241.121000,82.114000,242.520000,87.044000C242.573000,87.234000,242.601000,87.425000,242.601000,87.622000C242.602000,88.827000,242.302000,92.977000,238.061000,92.413000C234.212000,91.901000,230.690000,91.491000,228.451000,92.542000C227.445000,93.014000,226.964000,94.166000,227.339000,95.207000C228.276000,97.804000,230.495000,103.616000,233.195000,108.375000C233.743000,109.340000,234.944000,109.715000,235.958000,109.257000C239.012000,107.873000,245.369000,104.775000,249.897000,101.089000C250.510000,100.589000,250.805000,99.803000,250.659000,99.028000C249.947000,95.245000,247.824000,83.740000,247.730000,80.443000C247.642000,77.348000,251.128000,74.985000,252.663000,74.098000C253.166000,73.807000,253.524000,73.326000,253.659000,72.764000C254.140000,70.771000,254.550000,66.263000,248.779000,65.270000C247.570000,65.063000,246.784000,63.911000,247.028000,62.714000C247.517000,60.332000,247.360000,56.825000,242.820000,55.535000C238.205000,54.222000,235.300000,56.989000,233.825000,59.112000C233.228000,59.970000,232.109000,60.249000,231.153000,59.823000C230.608000,59.581000,229.950000,59.571000,229.242000,60.164000C228.289000,60.965000,226.838000,60.721000,226.138000,59.693000C224.793000,57.720000,222.348000,55.749000,218.209000,57.085000C210.865000,59.453000,211.216000,67.889000,213.908000,72.475000C216.601000,77.061000,224.416000,74.044000,228.118000,71.005000C230.931000,68.694000,235.215000,70.076000,237.106000,70.872000C237.705000,71.123000,238.151000,71.633000,238.328000,72.257000Z" fill="rgb(22,40,95)" fill-rule="evenodd" stroke="none" stroke-width="1"/><path id="eY2rVb7ZHIP20" d="M249.202000,85.840000C249.202000,85.840000,244.857000,77.647000,247.730000,75.075000C250.605000,72.503000,255.473000,72.923000,255.343000,79.331000C255.181000,87.298000,249.202000,85.840000,249.202000,85.840000Z" fill="rgb(240,159,157)" fill-rule="evenodd" stroke="none" stroke-width="1"/><path id="eY2rVb7ZHIP21" d="M275.267000,196.640000C277.640000,196.640000,279.333000,196.459000,279.517000,196.440000C279.617000,196.427000,279.719000,196.416000,279.825000,196.406000C284.036000,176.807000,288.261000,157.212000,292.481000,137.617000C292.530000,137.385000,292.384000,137.156000,292.151000,137.107000C291.914000,137.055000,291.688000,137.205000,291.639000,137.437000C287.461000,156.828000,283.286000,176.221000,279.114000,195.615000C277.230000,195.780000,267.171000,196.446000,261.862000,192.697000C265.513000,175.670000,269.167000,158.645000,272.824000,141.622000C272.059000,140.188000,271.297000,138.756000,270.537000,137.325000C270.425000,137.116000,270.163000,137.036000,269.953000,137.146000C269.743000,137.257000,269.663000,137.519000,269.774000,137.728000C270.486000,139.066000,271.200000,140.407000,271.917000,141.748000C268.243000,158.850000,264.571000,175.953000,260.903000,193.058000C260.974000,193.112000,261.048000,193.166000,261.124000,193.223000C264.961000,196.096000,271.141000,196.640000,275.267000,196.640000Z" fill="rgb(17,226,151)" fill-rule="evenodd" stroke="none" stroke-width="1"/><path id="eY2rVb7ZHIP22" d="M75.469000,296.716000C77.579000,296.713000,79.689000,296.713000,81.801000,296.716000C81.800000,319.529000,81.800000,342.346000,81.801000,365.166000C79.689000,365.163000,77.579000,365.163000,75.469000,365.166000C75.468000,342.346000,75.468000,319.529000,75.469000,296.716000Z" fill="rgb(56,63,83)" fill-rule="evenodd" stroke="none" stroke-width="1"/><path id="eY2rVb7ZHIP23" d="M50.903000,366.488000C69.390000,366.485000,87.877000,366.485000,106.366000,366.488000C106.366000,364.214000,104.519000,362.367000,102.243000,362.367000C86.502000,362.364000,70.762000,362.364000,55.023000,362.367000C52.747000,362.367000,50.903000,364.214000,50.903000,366.488000Z" fill="rgb(56,63,83)" fill-rule="evenodd" stroke="none" stroke-width="1"/><path id="eY2rVb7ZHIP24" d="M42.667000,294.342000C42.667000,298.086000,45.731000,301.148000,49.477000,301.148000C68.182000,301.145000,86.887000,301.145000,105.594000,301.148000C109.339000,301.148000,112.403000,298.086000,112.403000,294.342000C112.402000,292.288000,112.402000,290.237000,112.403000,288.188000C112.403000,284.444000,109.339000,281.381000,105.594000,281.381000C86.887000,281.378000,68.182000,281.378000,49.477000,281.381000C45.731000,281.381000,42.667000,284.444000,42.667000,288.188000C42.667000,290.237000,42.667000,292.288000,42.667000,294.342000Z" fill="rgb(58,97,155)" fill-rule="evenodd" stroke="none" stroke-width="1"/><path id="eY2rVb7ZHIP25" d="M125.384000,251.074000C125.384000,251.074000,134.795000,252.534000,145.374000,259.602000C147.038000,260.716000,147.953000,262.655000,147.701000,264.640000C146.433000,274.670000,141.225000,307.135000,124.049000,338.842000C123.144000,340.515000,122.882000,342.461000,123.284000,344.318000C124.277000,348.942000,125.272000,353.568000,126.268000,358.198000C128.112000,359.923000,129.957000,361.652000,131.803000,363.384000C127.050000,363.381000,122.299000,363.381000,117.549000,363.384000C114.384000,354.824000,111.220000,346.267000,108.057000,337.713000C109.409000,337.283000,110.761000,336.856000,112.115000,336.432000C115.261000,335.438000,117.420000,332.544000,117.478000,329.246000C117.635000,320.063000,117.793000,310.884000,117.953000,301.708000C117.546000,289.439000,125.478000,280.975000,125.478000,280.975000C117.889000,280.603000,110.301000,280.234000,102.715000,279.867000C110.270000,270.267000,117.826000,260.670000,125.384000,251.074000Z" fill="rgb(237,161,159)" fill-rule="evenodd" stroke="none" stroke-width="1"/><path id="eY2rVb7ZHIP26" d="M137.363000,365.892000C138.662000,367.591000,123.390000,369.830000,115.675000,366.118000C115.675000,366.118000,104.980000,347.520000,104.980000,337.943000C104.980000,337.943000,105.830000,335.993000,112.109000,336.434000C112.109000,336.434000,115.699000,358.454000,119.490000,360.922000C123.282000,363.389000,130.099000,361.171000,130.099000,361.171000C130.099000,361.171000,135.446000,363.387000,137.363000,365.892000Z" fill="rgb(47,0,156)" fill-rule="evenodd" stroke="none" stroke-width="1"/><path id="eY2rVb7ZHIP27" d="M105.596000,281.382000C105.716000,281.173000,130.105000,278.452000,130.105000,278.452000C130.105000,278.452000,129.309000,285.863000,131.801000,296.066000C134.295000,306.268000,170.102000,350.474000,170.102000,350.474000C168.849000,354.436000,167.597000,358.402000,166.347000,362.371000C177.954000,366.413000,189.374000,367.058000,200.609000,364.431000C192.852000,359.775000,185.096000,355.123000,177.342000,350.474000C177.342000,350.474000,155.566000,276.301000,142.227000,263.068000C134.076000,260.248000,125.928000,257.430000,117.780000,254.615000C113.718000,263.535000,109.657000,272.457000,105.596000,281.382000Z" fill="rgb(255,179,177)" fill-rule="evenodd" stroke="none" stroke-width="1"/><path id="eY2rVb7ZHIP28" d="M50.902000,238.220000C50.902000,238.220000,36.850000,259.110000,35.698000,268.638000C34.545000,278.166000,39.547000,282.039000,54.290000,282.678000C69.034000,283.317000,108.392000,283.307000,108.392000,283.307000C119.588000,273.738000,130.786000,264.173000,141.985000,254.610000C141.985000,254.610000,117.505000,245.878000,111.139000,243.408000C104.773000,240.941000,50.902000,238.220000,50.902000,238.220000Z" fill="rgb(47,0,156)" fill-rule="evenodd" stroke="none" stroke-width="1"/><path id="eY2rVb7ZHIP29" d="M167.768000,358.360000C167.768000,358.360000,163.726000,362.272000,166.456000,366.628000C166.456000,366.628000,198.476000,372.302000,207.172000,369.728000C207.172000,369.728000,205.367000,365.607000,195.575000,360.922000C195.815000,361.103000,196.056000,361.287000,196.299000,361.476000C197.213000,362.177000,196.676000,363.638000,195.526000,363.574000C189.073000,363.204000,175.723000,362.023000,167.768000,358.360000Z" fill="rgb(47,0,156)" fill-rule="evenodd" stroke="none" stroke-width="1"/><g id="eY2rVb7ZHIP30_tr" transform="translate(70.652903,162.628059) rotate(0)"><g id="eY2rVb7ZHIP30" transform="translate(-70.165006,-162.404076)"><path id="eY2rVb7ZHIP31" d="M114.649000,139.244000C114.649000,141.194000,97.111000,213.262000,97.111000,213.262000C80.453000,218.157000,63.797000,223.053000,47.141000,227.952000C37.505000,230.784000,27.159000,226.878000,21.806000,218.381000C8.508000,197.273000,14.862000,169.384000,35.990000,156.109000C38.349000,154.626000,40.707000,153.145000,43.067000,151.665000C58.154000,142.187000,71.178000,129.770000,81.366000,115.156000C82.253000,113.880000,83.142000,112.606000,84.031000,111.333000C94.236000,120.635000,104.442000,129.939000,114.649000,139.244000Z" fill="rgb(22,40,95)" fill-rule="evenodd" stroke="none" stroke-width="1"/><path id="eY2rVb7ZHIP32" d="M111.146000,141.369000C110.954000,142.005000,103.453000,162.074000,103.078000,162.403000C102.704000,162.732000,92.575000,163.277000,87.809000,160.019000C91.749000,152.312000,95.690000,144.607000,99.632000,136.902000C103.469000,138.390000,107.307000,139.879000,111.146000,141.369000Z" fill="rgb(240,159,157)" fill-rule="evenodd" stroke="none" stroke-width="1"/><path id="eY2rVb7ZHIP33" d="M109.199000,108.178000C109.199000,108.178000,117.872000,112.433000,123.185000,125.612000C128.499000,138.790000,123.649000,144.459000,117.937000,144.951000C112.222000,145.443000,103.753000,144.838000,95.258000,136.037000C86.764000,127.239000,97.901000,103.075000,109.199000,108.178000Z" fill="rgb(255,179,177)" fill-rule="evenodd" stroke="none" stroke-width="1"/><path id="eY2rVb7ZHIP34" d="M101.671000,129.526000C101.671000,129.526000,96.033000,110.368000,112.702000,111.092000C113.956000,112.078000,115.211000,113.066000,116.467000,114.054000C116.467000,114.054000,123.171000,103.988000,113.422000,98.451000C103.673000,92.912000,88.454000,96.488000,83.417000,109.753000C78.381000,123.018000,80.384000,131.884000,87.119000,138.748000C93.855000,145.614000,97.197000,138.452000,97.197000,138.452000C97.197000,138.452000,93.672000,132.189000,95.432000,129.044000C97.190000,125.900000,100.600000,130.009000,100.600000,130.009000C100.956000,129.847000,101.313000,129.686000,101.671000,129.526000Z" fill="rgb(22,40,95)" fill-rule="evenodd" stroke="none" stroke-width="1"/><path id="eY2rVb7ZHIP35" d="M101.617000,132.877000C101.617000,132.877000,93.856000,124.625000,91.016000,130.542000C88.175000,136.458000,98.736000,137.919000,102.715000,138.145000C102.348000,136.388000,101.982000,134.632000,101.617000,132.877000Z" fill="rgb(254,181,180)" fill-rule="evenodd" stroke="none" stroke-width="1"/></g></g><path id="eY2rVb7ZHIP36" d="M88.899000,235.458000C88.899000,235.458000,105.261000,219.884000,113.317000,209.571000C117.671000,203.995000,119.040000,196.653000,117.025000,189.873000C113.348000,177.493000,106.812000,164.666000,106.217000,162.669000C105.304000,159.610000,86.957000,159.737000,86.957000,159.737000C86.957000,159.737000,50.852000,183.156000,36.666000,222.829000C41.976000,224.479000,47.287000,226.131000,52.598000,227.785000C52.598000,227.785000,62.025000,211.978000,71.339000,201.927000C71.339000,201.927000,55.222000,223.208000,54.656000,231.917000C66.070000,233.095000,77.484000,234.275000,88.899000,235.458000Z" fill="rgb(45,255,179)" fill-rule="evenodd" stroke="none" stroke-width="1"/><path id="eY2rVb7ZHIP37" d="M99.958000,237.872000C100.046000,237.872000,100.046000,237.872000,100.135000,237.872000C120.493000,237.855000,140.851000,237.841000,161.211000,237.828000C162.741000,237.828000,163.914000,236.585000,163.914000,235.144000C163.914000,233.613000,162.651000,232.372000,161.211000,232.439000C140.851000,232.466000,120.493000,232.496000,100.135000,232.528000C98.606000,232.528000,97.432000,233.769000,97.432000,235.211000C97.344000,236.629000,98.518000,237.872000,99.958000,237.872000Z" fill="rgb(42,43,111)" fill-rule="evenodd" stroke="none" stroke-width="1"/><path id="eY2rVb7ZHIP38" d="M216.132000,182.432000C199.176000,182.430000,182.221000,182.430000,165.268000,182.432000C161.546000,182.432000,158.090000,184.604000,156.473000,187.998000C148.644000,204.622000,140.817000,221.247000,132.990000,237.874000C154.057000,237.872000,175.124000,237.872000,196.194000,237.874000C198.653000,237.874000,200.757000,236.433000,201.688000,234.149000C207.771000,218.763000,213.856000,203.380000,219.943000,187.998000C220.939000,185.293000,219.012000,182.432000,216.132000,182.432000Z" fill="rgb(42,43,111)" fill-rule="evenodd" stroke="none" stroke-width="1"/><path id="eY2rVb7ZHIP39" d="M194.618000,207.826000C194.706000,206.983000,194.506000,206.229000,194.020000,205.542000C193.599000,204.942000,193.001000,204.632000,192.403000,204.388000C191.892000,204.211000,191.383000,204.167000,190.874000,204.167000C190.631000,204.167000,190.276000,204.167000,190.032000,204.167000C189.943000,204.167000,189.855000,204.167000,189.789000,204.167000C189.699000,204.167000,189.611000,204.189000,189.545000,204.278000C189.456000,204.278000,189.368000,204.167000,189.301000,204.388000C189.301000,204.388000,189.301000,204.388000,189.212000,204.388000C189.124000,204.388000,189.035000,204.388000,188.969000,204.388000C188.969000,204.388000,188.969000,204.388000,188.880000,204.388000C188.792000,204.388000,188.703000,204.455000,188.703000,204.455000C187.684000,204.965000,186.931000,205.808000,186.333000,206.829000C186.243000,207.006000,185.313000,209.267000,184.560000,212.150000C184.560000,212.239000,184.471000,212.394000,184.471000,212.483000C184.294000,212.993000,184.050000,213.592000,183.629000,213.925000C183.298000,214.258000,182.788000,214.435000,182.367000,214.524000C182.124000,214.524000,181.769000,214.524000,181.525000,214.435000C180.683000,214.191000,179.996000,213.504000,179.841000,212.661000C179.664000,211.729000,180.175000,210.886000,180.772000,210.132000C180.861000,210.044000,180.861000,209.955000,180.949000,209.888000C180.861000,209.888000,180.771000,209.799000,180.617000,209.799000C180.108000,209.556000,179.598000,209.201000,179.177000,208.780000C178.999000,208.602000,178.933000,208.447000,178.845000,208.270000C178.424000,207.516000,178.424000,206.406000,179.022000,205.742000C179.443000,205.231000,180.129000,205.076000,180.794000,205.076000C180.883000,205.076000,180.883000,205.076000,180.971000,205.076000C181.659000,205.076000,182.322000,205.586000,182.832000,206.096000C182.920000,206.185000,182.920000,206.185000,183.010000,206.273000C183.037000,206.301000,183.067000,206.331000,183.098000,206.362000C183.187000,206.452000,183.187000,206.451000,183.275000,206.539000C183.303000,206.567000,183.333000,206.597000,183.364000,206.629000C183.364000,206.717000,183.452000,206.717000,183.452000,206.806000C183.480000,206.833000,183.510000,206.863000,183.541000,206.894000C183.541000,206.983000,183.629000,206.983000,183.629000,207.072000C183.629000,207.160000,183.718000,207.160000,183.718000,207.249000C183.718000,207.249000,183.718000,207.337000,183.806000,207.337000C183.806000,207.427000,183.896000,207.427000,183.896000,207.516000C183.894000,207.543000,183.894000,207.573000,183.896000,207.604000C183.896000,207.693000,183.962000,207.781000,184.050000,207.848000C184.227000,208.181000,184.294000,208.602000,184.383000,209.024000C184.471000,209.268000,184.471000,209.445000,184.560000,209.711000C184.804000,208.868000,185.070000,207.937000,185.491000,207.183000C185.403000,207.006000,185.313000,206.850000,185.313000,206.673000C184.804000,205.652000,184.206000,204.677000,183.208000,204.100000C183.120000,204.100000,183.031000,204.055000,183.031000,204.055000C183.031000,204.055000,183.031000,204.055000,182.943000,204.055000C182.854000,204.055000,182.766000,203.834000,182.766000,203.834000C182.766000,203.834000,182.766000,203.834000,182.677000,203.834000C182.589000,203.834000,182.499000,203.767000,182.434000,203.768000C182.367000,203.768000,182.256000,203.701000,182.190000,203.701000C182.101000,203.701000,182.013000,203.613000,181.946000,203.613000C181.703000,203.524000,181.436000,203.524000,181.104000,203.524000C180.594000,203.434000,180.085000,203.435000,179.576000,203.613000C178.889000,203.790000,178.335000,204.122000,177.848000,204.632000C177.338000,205.231000,177.050000,205.985000,177.050000,206.829000C177.050000,206.917000,177.050000,206.917000,177.050000,207.006000C177.050000,207.006000,177.050000,207.006000,177.050000,207.094000C177.049000,207.121000,177.049000,207.151000,177.050000,207.183000C177.050000,207.272000,177.050000,207.272000,177.050000,207.360000C177.049000,207.388000,177.049000,207.418000,177.050000,207.449000C177.050000,207.537000,177.050000,207.626000,177.050000,207.626000C177.050000,207.626000,177.050000,207.627000,177.050000,207.715000C177.050000,207.804000,177.050000,207.893000,177.050000,207.959000C177.050000,208.047000,177.006000,208.137000,177.094000,208.203000C177.183000,208.535000,177.250000,208.891000,177.405000,209.134000C177.405000,209.134000,177.361000,209.224000,177.449000,209.224000C177.449000,209.312000,177.494000,209.312000,177.494000,209.401000C177.494000,209.401000,177.494000,209.401000,177.494000,209.489000C177.715000,209.667000,177.692000,209.822000,177.870000,209.999000C177.959000,210.088000,177.980000,210.088000,178.047000,210.176000C178.047000,210.176000,178.047000,210.176000,178.136000,210.265000C178.224000,210.355000,178.224000,210.355000,178.313000,210.443000C178.313000,210.443000,178.313000,210.443000,178.401000,210.532000C178.490000,210.620000,178.490000,210.620000,178.578000,210.709000C178.668000,210.798000,178.756000,210.886000,178.822000,210.886000C178.734000,211.130000,178.711000,211.396000,178.623000,211.640000C178.623000,211.729000,178.601000,211.884000,178.601000,211.973000C178.601000,211.973000,178.601000,211.973000,178.601000,212.062000C178.599000,212.090000,178.599000,212.119000,178.601000,212.150000C178.599000,212.178000,178.599000,212.208000,178.601000,212.239000C178.599000,212.267000,178.599000,212.296000,178.601000,212.327000C178.599000,212.355000,178.599000,212.385000,178.601000,212.417000C178.601000,212.506000,178.601000,212.506000,178.601000,212.594000C178.601000,212.683000,178.601000,212.683000,178.601000,212.771000C178.601000,212.771000,178.601000,212.771000,178.601000,212.860000C178.599000,212.888000,178.599000,212.918000,178.601000,212.949000C178.601000,212.949000,178.601000,212.949000,178.601000,213.037000C178.601000,213.127000,178.601000,213.127000,178.601000,213.215000C178.601000,213.304000,178.601000,213.304000,178.601000,213.392000C178.601000,213.392000,178.601000,213.392000,178.601000,213.481000C178.601000,213.570000,178.601000,213.570000,178.601000,213.658000C178.601000,213.658000,178.601000,213.658000,178.601000,213.747000C178.601000,213.835000,178.512000,213.835000,178.601000,213.925000C178.601000,214.014000,178.601000,214.014000,178.601000,214.102000C178.601000,214.102000,178.601000,214.102000,178.601000,214.191000C178.601000,214.279000,178.623000,214.279000,178.712000,214.368000C178.712000,214.457000,178.822000,214.457000,178.822000,214.545000C178.822000,214.634000,178.911000,214.635000,178.911000,214.723000C178.911000,214.812000,178.999000,214.812000,178.999000,214.901000C178.999000,214.989000,179.089000,214.989000,179.089000,215.078000C179.089000,215.166000,179.177000,215.166000,179.177000,215.255000C179.266000,215.344000,179.354000,215.432000,179.420000,215.499000C179.448000,215.527000,179.478000,215.557000,179.510000,215.588000C179.598000,215.676000,179.687000,215.766000,179.753000,215.832000C179.781000,215.859000,179.810000,215.889000,179.841000,215.920000C179.930000,216.009000,180.018000,216.098000,180.085000,216.098000C180.173000,216.098000,180.174000,216.165000,180.262000,216.165000C180.352000,216.165000,180.352000,216.232000,180.440000,216.232000C180.440000,216.232000,180.440000,216.232000,180.529000,216.232000C180.617000,216.232000,180.617000,216.232000,180.706000,216.453000C180.734000,216.451000,180.763000,216.451000,180.794000,216.453000C180.883000,216.453000,180.883000,216.453000,180.971000,216.453000C180.999000,216.451000,181.029000,216.451000,181.060000,216.453000C181.148000,216.453000,181.238000,216.475000,181.238000,216.564000C181.326000,216.564000,181.326000,216.453000,181.415000,216.674000C181.415000,216.674000,181.415000,216.674000,181.503000,216.674000C181.592000,216.674000,181.592000,216.674000,181.680000,216.674000C181.769000,216.674000,181.857000,216.674000,181.857000,216.674000C181.946000,216.674000,181.946000,216.674000,182.034000,216.674000C182.034000,216.674000,182.034000,216.674000,182.124000,216.674000C182.212000,216.674000,182.212000,216.674000,182.301000,216.674000C183.054000,216.674000,183.895000,216.563000,184.582000,216.120000C184.610000,216.081000,184.640000,216.044000,184.671000,216.009000C184.759000,215.920000,184.848000,215.920000,184.915000,215.832000C185.668000,215.145000,186.089000,213.637000,186.355000,212.617000C186.443000,212.284000,186.443000,212.017000,186.532000,211.685000C186.532000,211.507000,186.620000,211.352000,186.620000,211.175000C186.710000,210.931000,186.709000,210.753000,186.798000,210.488000C186.887000,210.155000,186.975000,209.799000,187.129000,209.555000C187.308000,209.134000,187.462000,208.801000,187.617000,208.447000C187.706000,208.358000,187.773000,208.270000,187.773000,208.203000C187.773000,208.203000,187.773000,208.203000,187.773000,208.114000C187.773000,208.026000,187.861000,208.026000,187.861000,207.937000C187.889000,207.905000,187.918000,207.876000,187.950000,207.848000C187.950000,207.760000,188.038000,207.760000,188.038000,207.671000C188.066000,207.639000,188.096000,207.610000,188.127000,207.582000C188.155000,207.551000,188.184000,207.521000,188.215000,207.493000C188.215000,207.404000,188.304000,207.404000,188.304000,207.316000C188.332000,207.284000,188.361000,207.255000,188.392000,207.227000C188.482000,207.139000,188.481000,207.139000,188.570000,207.050000C188.597000,207.018000,188.627000,206.988000,188.659000,206.961000C188.747000,206.873000,188.747000,206.828000,188.836000,206.739000C189.434000,206.318000,190.099000,205.941000,190.785000,205.941000C190.873000,205.941000,190.874000,205.941000,190.962000,205.941000C191.649000,205.941000,192.313000,206.318000,192.646000,206.917000C193.155000,207.671000,192.979000,208.714000,192.469000,209.467000C192.380000,209.645000,192.225000,209.822000,192.048000,209.911000C191.627000,210.243000,191.029000,210.509000,190.519000,210.753000C190.431000,210.753000,190.342000,210.842000,190.187000,210.842000C190.276000,210.931000,190.276000,211.019000,190.364000,211.108000C190.785000,211.950000,191.206000,212.771000,190.962000,213.703000C190.719000,214.545000,189.943000,215.278000,189.101000,215.278000C188.857000,215.278000,188.503000,215.278000,188.259000,215.278000C187.750000,215.278000,187.329000,214.967000,187.085000,214.545000C186.997000,214.457000,186.908000,214.302000,186.842000,214.235000C186.598000,214.989000,186.243000,215.676000,185.911000,216.098000C185.939000,216.126000,185.968000,216.155000,186,216.186000C186.598000,216.697000,187.440000,217.051000,188.194000,217.051000C188.282000,217.051000,188.282000,217.051000,188.371000,217.051000C188.371000,217.051000,188.371000,217.051000,188.459000,217.051000C188.548000,217.051000,188.548000,217.051000,188.636000,217.051000C188.725000,217.051000,188.813000,217.051000,188.880000,217.051000C188.947000,217.051000,188.969000,217.051000,189.057000,217.051000C189.057000,217.051000,189.057000,217.051000,189.146000,217.051000C189.234000,217.051000,189.234000,217.051000,189.323000,217.051000C189.412000,217.051000,189.501000,217.051000,189.501000,217.051000C189.528000,217.049000,189.558000,217.049000,189.589000,217.051000C189.678000,217.051000,189.678000,217.051000,189.766000,217.051000C189.794000,217.049000,189.824000,217.049000,189.855000,217.051000C189.943000,217.051000,189.943000,217.051000,190.032000,217.051000C190.032000,217.051000,190.032000,217.051000,190.120000,217.051000C190.210000,217.051000,190.210000,217.051000,190.298000,216.963000C190.387000,216.963000,190.387000,216.963000,190.475000,216.874000C190.564000,216.786000,190.719000,216.786000,190.808000,216.697000C190.896000,216.697000,190.896000,216.609000,190.985000,216.609000C191.073000,216.519000,191.162000,216.430000,191.229000,216.430000C191.256000,216.399000,191.286000,216.370000,191.317000,216.342000C191.406000,216.253000,191.494000,216.165000,191.561000,216.098000C191.588000,216.067000,191.617000,216.037000,191.649000,216.009000C191.649000,215.920000,191.738000,215.920000,191.738000,215.832000C191.738000,215.743000,191.826000,215.743000,191.826000,215.655000C191.826000,215.566000,191.915000,215.566000,191.915000,215.477000C191.915000,215.388000,192.026000,215.388000,192.026000,215.299000C192.026000,215.211000,192.136000,215.211000,192.136000,215.122000C192.136000,215.122000,192.136000,215.122000,192.136000,215.033000C192.136000,214.945000,192.159000,214.945000,192.247000,214.856000C192.247000,214.768000,192.359000,214.768000,192.359000,214.679000C192.359000,214.679000,192.359000,214.679000,192.359000,214.591000C192.357000,214.559000,192.357000,214.529000,192.359000,214.501000C192.359000,214.501000,192.359000,214.501000,192.359000,214.412000C192.359000,214.324000,192.359000,214.324000,192.359000,214.235000C192.359000,214.147000,192.359000,214.147000,192.359000,214.058000C192.359000,214.058000,192.359000,214.058000,192.359000,213.969000C192.357000,213.937000,192.357000,213.908000,192.359000,213.881000C192.359000,213.881000,192.359000,213.881000,192.359000,213.791000C192.359000,213.703000,192.359000,213.703000,192.359000,213.614000C192.359000,213.525000,192.359000,213.525000,192.359000,213.437000C192.357000,213.405000,192.357000,213.375000,192.359000,213.348000C192.357000,213.316000,192.357000,213.287000,192.359000,213.260000C192.357000,213.228000,192.357000,213.198000,192.359000,213.171000C192.357000,213.139000,192.357000,213.109000,192.359000,213.081000C192.359000,213.081000,192.359000,213.081000,192.359000,212.993000C192.359000,212.904000,192.359000,212.750000,192.359000,212.661000C192.359000,212.417000,192.270000,212.150000,192.182000,211.907000C192.270000,211.817000,192.336000,211.817000,192.424000,211.729000C192.513000,211.640000,192.513000,211.640000,192.601000,211.552000C192.601000,211.552000,192.601000,211.552000,192.690000,211.463000C192.779000,211.374000,192.779000,211.374000,192.868000,211.286000C192.868000,211.286000,192.868000,211.286000,192.956000,211.196000C193.045000,211.108000,193.045000,211.108000,193.133000,211.019000C193.310000,210.842000,193.488000,210.776000,193.488000,210.598000C193.488000,210.598000,193.488000,210.598000,193.488000,210.509000C193.508000,210.478000,193.530000,210.449000,193.554000,210.421000C193.554000,210.421000,193.554000,210.332000,193.643000,210.332000C193.820000,210.088000,193.975000,209.733000,194.152000,209.489000C194.152000,209.401000,194.263000,209.312000,194.263000,209.245000C194.263000,209.157000,194.374000,209.068000,194.374000,209.001000C194.374000,209.001000,194.374000,209.001000,194.374000,208.913000C194.374000,208.824000,194.374000,208.735000,194.374000,208.735000C194.373000,208.688000,194.373000,208.644000,194.374000,208.602000C194.374000,208.514000,194.374000,208.514000,194.374000,208.424000C194.373000,208.393000,194.373000,208.364000,194.374000,208.336000C194.374000,208.336000,194.374000,208.336000,194.374000,208.247000C194.640000,208.003000,194.618000,207.914000,194.618000,207.826000Z" transform="matrix(1 0 0 1 -1.71039581000002 -0.17949950999997)" fill="rgb(255,255,255)" fill-rule="evenodd" stroke="none" stroke-width="1"/><path id="eY2rVb7ZHIP40" d="M122.236000,236.614000C118.227000,232.751000,114.220000,228.890000,110.213000,225.031000C104.669000,227.370000,99.125000,229.711000,93.583000,232.054000C93.583000,232.054000,77.029000,234.617000,67.553000,232.054000C58.078000,229.490000,58.078000,229.490000,58.078000,229.490000C50.941000,227.267000,43.804000,225.046000,36.667000,222.828000C35.546000,225.992000,34.426000,229.159000,33.305000,232.328000C32.450000,234.740000,33.310000,237.416000,35.396000,238.899000C37.248000,240.214000,39.421000,241.661000,40.804000,242.266000C43.623000,243.500000,110.309000,241.414000,110.309000,241.414000C114.284000,239.812000,118.259000,238.212000,122.236000,236.614000Z" fill="rgb(255,179,177)" fill-rule="evenodd" stroke="none" stroke-width="1"/><path id="eY2rVb7ZHIP41" d="M83.422000,376.670000C81.271000,376.666000,79.121000,376.666000,76.972000,376.670000C97.892000,332.055000,118.812000,287.443000,139.733000,242.833000C142.134000,242.831000,144.537000,242.831000,146.941000,242.833000C125.767000,287.443000,104.594000,332.054000,83.422000,376.670000Z" fill="rgb(56,63,83)" fill-rule="evenodd" stroke="none" stroke-width="1"/><path id="eY2rVb7ZHIP42" d="M85.260000,376.670000C83.109000,376.666000,80.959000,376.666000,78.810000,376.670000C99.730000,332.055000,120.650000,287.443000,141.572000,242.833000C143.973000,242.831000,146.376000,242.831000,148.780000,242.833000C127.605000,287.443000,106.432000,332.055000,85.260000,376.670000Z" fill="rgb(56,63,83)" fill-rule="evenodd" stroke="none" stroke-width="1"/><path id="eY2rVb7ZHIP43" d="M144.719000,376.669000C146.867000,376.665000,149.017000,376.665000,151.169000,376.669000C127.266000,332.053000,103.365000,287.441000,79.465000,242.832000C77.061000,242.829000,74.659000,242.829000,72.256000,242.832000C96.410000,287.441000,120.563000,332.053000,144.719000,376.669000Z" fill="rgb(56,63,83)" fill-rule="evenodd" stroke="none" stroke-width="1"/><path id="eY2rVb7ZHIP44" d="M146.399000,376.670000C148.548000,376.666000,150.697000,376.666000,152.849000,376.670000C128.946000,332.054000,105.045000,287.443000,81.145000,242.833000C78.741000,242.831000,76.338000,242.831000,73.936000,242.833000C98.090000,287.443000,122.244000,332.055000,146.399000,376.670000Z" fill="rgb(56,63,83)" fill-rule="evenodd" stroke="none" stroke-width="1"/><path id="eY2rVb7ZHIP45" d="M213.834000,375.835000C211.696000,375.831000,209.559000,375.831000,207.425000,375.835000C228.212000,331.497000,249.002000,287.163000,269.795000,242.832000C272.180000,242.829000,274.568000,242.829000,276.958000,242.832000C255.914000,287.163000,234.873000,331.497000,213.834000,375.835000Z" fill="rgb(78,92,119)" fill-rule="evenodd" stroke="none" stroke-width="1"/><path id="eY2rVb7ZHIP46" d="M215.664000,375.835000C213.525000,375.831000,211.389000,375.831000,209.254000,375.835000C230.042000,331.497000,250.832000,287.163000,271.625000,242.832000C274.010000,242.829000,276.397000,242.829000,278.787000,242.832000C257.744000,287.163000,236.703000,331.497000,215.664000,375.835000Z" fill="rgb(56,63,83)" fill-rule="evenodd" stroke="none" stroke-width="1"/><path id="eY2rVb7ZHIP47" d="M274.752000,375.835000C276.886000,375.831000,279.023000,375.831000,281.162000,375.835000C257.389000,331.497000,233.619000,287.163000,209.851000,242.832000C207.462000,242.829000,205.074000,242.829000,202.688000,242.832000C226.707000,287.163000,250.729000,331.497000,274.752000,375.835000Z" fill="rgb(78,92,119)" fill-rule="evenodd" stroke="none" stroke-width="1"/><path id="eY2rVb7ZHIP48" d="M276.418000,375.835000C278.552000,375.831000,280.688000,375.831000,282.827000,375.835000C259.054000,331.497000,235.284000,287.163000,211.516000,242.832000C209.126000,242.829000,206.739000,242.829000,204.353000,242.832000C228.373000,287.163000,252.394000,331.497000,276.418000,375.835000Z" fill="rgb(56,63,83)" fill-rule="evenodd" stroke="none" stroke-width="1"/><path id="eY2rVb7ZHIP49" d="M285.408000,237.846000C211.522000,237.844000,137.638000,237.844000,63.754000,237.846000C63.754000,239.655000,63.754000,241.466000,63.754000,243.279000C137.638000,243.276000,211.522000,243.276000,285.408000,243.279000C285.406000,241.466000,285.406000,239.655000,285.408000,237.846000Z" fill="rgb(255,166,108)" fill-rule="evenodd" stroke="none" stroke-width="1"/><path id="eY2rVb7ZHIP50" d="M82.692000,384.888000C82.692000,384.888000,84.984000,353.873000,74.881000,352.346000C64.835000,350.819000,69.438000,363.149000,64.377000,361.297000C59.316000,359.466000,59.545000,342.764000,47.972000,343.758000C36.398000,344.750000,51.352000,357.996000,44.362000,357.996000C37.373000,357.996000,46.883000,365.955000,46.883000,372.235000C46.883000,378.514000,28.415000,365.267000,26.200000,373.761000C23.049000,385.938000,45.050000,385.098000,45.050000,385.098000C57.596000,385.025000,70.144000,384.955000,82.692000,384.888000Z" fill="rgb(80,188,141)" fill-rule="evenodd" stroke="none" stroke-width="1"/><path id="eY2rVb7ZHIP51" d="M33.958000,383.821000C41.540000,382.142000,57.563000,379.984000,63.999000,384.125000C64.228000,384.431000,64.457000,384.661000,64.686000,385.042000C65.144000,385.039000,65.602000,385.039000,66.062000,385.042000C65.068000,383.706000,64.075000,382.294000,63.082000,380.919000C65.450000,373.876000,65.221000,365.765000,64.839000,361.565000C64.839000,361.565000,64.839000,361.565000,64.763000,361.565000C64.687000,361.565000,64.610000,361.565000,64.534000,361.374000C64.534000,361.374000,64.534000,361.374000,64.457000,361.374000C64.457000,361.374000,64.457000,361.374000,64.381000,361.374000C64.381000,361.374000,64.381000,361.374000,64.305000,361.374000C64.305000,361.374000,64.305000,361.374000,64.228000,361.374000C64.228000,361.374000,64.228000,361.374000,64.152000,361.374000C64.125000,361.358000,64.100000,361.345000,64.075000,361.336000C63.999000,361.336000,63.999000,361.279000,63.923000,361.279000C64.304000,365.116000,64.686000,372.999000,62.548000,380.060000C61.249000,378.076000,60.027000,376.090000,58.785000,374.010000C61.306000,371.720000,61.077000,362.368000,60.542000,355.783000C60.466000,355.554000,60.389000,355.400000,60.313000,355.171000C60.313000,355.095000,60.313000,355.095000,60.237000,355.019000C59.931000,354.179000,59.549000,353.339000,59.167000,352.499000C60.007000,360.382000,60.237000,370.651000,58.250000,372.941000C51.891000,361.603000,47.212000,349.732000,45.379000,344.750000C44.997000,344.979000,44.691000,345.132000,44.462000,345.437000C46.066000,349.809000,49.752000,359.142000,54.736000,368.646000C57.410000,373.858000,60.179000,378.457000,62.777000,382.274000C55.348000,378.667000,36.651000,381.588000,31.437000,383.114000C32.048000,383.210000,32.965000,383.515000,33.958000,383.821000Z" fill="rgb(235,237,245)" fill-rule="evenodd" stroke="none" stroke-width="1"/><g id="eY2rVb7ZHIP52_to" transform="translate(156.381500,55.370269)"><g id="eY2rVb7ZHIP52" transform="translate(-156.381500,-55.370269)"><path id="eY2rVb7ZHIP53" d="M189.632000,84.523000C200.206000,76.888000,206.886000,65.677000,206.886000,53.176000C206.886000,30.173000,184.275000,11.526000,156.381000,11.526000C128.488000,11.526000,105.877000,30.173000,105.877000,53.176000C105.877000,76.178000,128.488000,94.826000,156.381000,94.826000C161.645000,94.826000,166.720000,94.162000,171.490000,92.930000C180.107000,97.514000,193.069000,101.952000,206.886000,97.124000C206.886000,97.124000,194.053000,93.826000,189.632000,84.523000Z" fill="rgb(203,224,241)" fill-rule="evenodd" stroke="none" stroke-width="1"/><path id="eY2rVb7ZHIP54" d="M183.170000,70.354000C165.677000,70.353000,148.186000,70.353000,130.697000,70.354000C129.254000,70.354000,128.074000,69.162000,128.074000,67.707000C128.072000,58.001000,128.073000,48.296000,128.074000,38.591000C128.074000,37.135000,129.254000,35.945000,130.697000,35.945000C148.186000,35.944000,165.677000,35.944000,183.169000,35.945000C184.612000,35.945000,185.793000,37.135000,185.793000,38.591000C185.791000,48.296000,185.791000,58.001000,185.793000,67.707000C185.793000,69.162000,184.612000,70.354000,183.170000,70.354000Z" fill="rgb(0,219,140)" fill-rule="evenodd" stroke="none" stroke-width="1"/><path id="eY2rVb7ZHIP55" d="M177.922000,67.706000C163.927000,67.706000,149.935000,67.706000,135.944000,67.706000C135.944000,64.795000,133.584000,62.412000,130.698000,62.412000C130.697000,56.236000,130.697000,50.061000,130.698000,43.885000C133.584000,43.885000,135.944000,41.504000,135.944000,38.592000C149.935000,38.592000,163.927000,38.592000,177.922000,38.592000C177.922000,41.504000,180.284000,43.885000,183.168000,43.885000C183.166000,50.061000,183.166000,56.237000,183.168000,62.413000C180.284000,62.413000,177.922000,64.795000,177.922000,67.706000Z" fill="rgb(45,255,179)" fill-rule="evenodd" stroke="none" stroke-width="1"/><path id="eY2rVb7ZHIP56" d="M156.935000,65.060000C162.730000,65.060000,167.429000,59.727000,167.429000,53.149000C167.429000,46.571000,162.730000,41.238000,156.935000,41.238000C151.139000,41.238000,146.440000,46.571000,146.440000,53.149000C146.440000,59.727000,151.139000,65.060000,156.935000,65.060000Z" fill="rgb(0,219,140)" fill-rule="evenodd" stroke="none" stroke-width="1"/><path id="eY2rVb7ZHIP57" d="M141.193000,55.796000C142.641000,55.795000,143.816000,54.611000,143.816000,53.149000C143.816000,51.688000,142.641000,50.503000,141.193000,50.503000C139.743000,50.503000,138.568000,51.687000,138.568000,53.149000C138.568000,54.611000,139.743000,55.796000,141.193000,55.796000Z" fill="rgb(0,219,140)" fill-rule="evenodd" stroke="none" stroke-width="1"/><path id="eY2rVb7ZHIP58" d="M172.675000,55.796000C174.124000,55.796000,175.300000,54.611000,175.300000,53.149000C175.300000,51.687000,174.124000,50.503000,172.675000,50.503000C171.227000,50.503000,170.052000,51.688000,170.052000,53.149000C170.052000,54.611000,171.227000,55.795000,172.675000,55.796000Z" fill="rgb(0,219,140)" fill-rule="evenodd" stroke="none" stroke-width="1"/><path id="eY2rVb7ZHIP59" d="M158.245000,51.826000C157.369000,51.826000,156.495000,51.826000,155.622000,51.826000C154.835000,51.826000,154.310000,51.297000,154.310000,50.502000C154.310000,49.709000,154.834000,49.178000,155.622000,49.178000C156.932000,49.178000,158.244000,49.178000,159.558000,49.178000C160.344000,49.178000,160.870000,48.650000,160.870000,47.855000C160.870000,47.061000,160.345000,46.531000,159.558000,46.531000C159.118000,46.530000,158.681000,46.530000,158.245000,46.531000C158.245000,45.737000,157.721000,45.207000,156.933000,45.207000C156.147000,45.207000,155.621000,45.736000,155.621000,46.531000C153.392000,46.531000,151.685000,48.252000,151.685000,50.501000C151.685000,52.751000,153.392000,54.472000,155.621000,54.472000C156.494000,54.471000,157.368000,54.471000,158.244000,54.472000C159.031000,54.472000,159.556000,55,159.556000,55.795000C159.556000,56.589000,159.032000,57.119000,158.244000,57.119000C156.931000,57.119000,155.619000,57.119000,154.309000,57.119000C153.521000,57.119000,152.997000,57.648000,152.997000,58.443000C152.997000,59.237000,153.520000,59.767000,154.309000,59.767000C154.745000,59.766000,155.182000,59.766000,155.621000,59.767000C155.621000,60.561000,156.146000,61.091000,156.933000,61.091000C157.720000,61.091000,158.245000,60.562000,158.245000,59.767000C160.475000,59.767000,162.181000,58.046000,162.181000,55.797000C162.181000,53.547000,160.475000,51.826000,158.245000,51.826000Z" fill="rgb(255,255,255)" fill-rule="evenodd" stroke="none" stroke-width="1"/><path id="eY2rVb7ZHIP60" d="M195.481000,80.760000C193.417000,78.551000,191.355000,76.342000,189.295000,74.133000C190.764000,73.222000,192.235000,72.312000,193.707000,71.402000C194.053000,71.189000,194.253000,70.783000,194.224000,70.358000C194.196000,69.932000,193.942000,69.562000,193.573000,69.404000C187.012000,66.601000,180.454000,63.797000,173.897000,60.994000C173.511000,60.829000,173.070000,60.926000,172.777000,61.241000C172.482000,61.556000,172.392000,62.027000,172.545000,62.441000C175.159000,69.469000,177.775000,76.497000,180.393000,83.525000C180.541000,83.921000,180.887000,84.193000,181.284000,84.223000C181.681000,84.254000,182.060000,84.039000,182.259000,83.670000C183.107000,82.093000,183.956000,80.517000,184.808000,78.942000C186.867000,81.150000,188.929000,83.359000,190.992000,85.569000C191.187000,85.778000,191.452000,85.895000,191.728000,85.895000C192.003000,85.895000,192.267000,85.778000,192.462000,85.569000C193.467000,84.490000,194.473000,83.412000,195.481000,82.335000C195.886000,81.900000,195.886000,81.195000,195.481000,80.760000Z" fill="rgb(46,45,123)" fill-rule="evenodd" stroke="none" stroke-width="1"/><path id="eY2rVb7ZHIP61" d="M169.270000,55.909000C168.864000,55.475000,168.206000,55.475000,167.800000,55.909000C167.394000,56.344000,167.394000,57.049000,167.800000,57.484000C168.568000,58.309000,169.338000,59.133000,170.110000,59.959000C170.312000,60.176000,170.578000,60.285000,170.845000,60.285000C171.110000,60.285000,171.376000,60.176000,171.579000,59.959000C171.985000,59.524000,171.985000,58.819000,171.579000,58.384000C170.808000,57.559000,170.038000,56.734000,169.270000,55.909000Z" fill="rgb(8,175,115)" fill-rule="evenodd" stroke="none" stroke-width="1"/><path id="eY2rVb7ZHIP62" d="M170.053000,63.608000C170.053000,62.993000,169.587000,62.494000,169.014000,62.494000C167.923000,62.494000,166.835000,62.494000,165.747000,62.494000C165.174000,62.494000,164.708000,62.993000,164.708000,63.608000C164.708000,64.223000,165.173000,64.722000,165.747000,64.722000C166.835000,64.721000,167.923000,64.721000,169.014000,64.722000C169.587000,64.722000,170.053000,64.223000,170.053000,63.608000Z" fill="rgb(8,175,115)" fill-rule="evenodd" stroke="none" stroke-width="1"/><path id="eY2rVb7ZHIP63" d="M169.631000,67.044000C168.860000,67.869000,168.090000,68.694000,167.322000,69.519000C166.915000,69.954000,166.915000,70.659000,167.322000,71.094000C167.524000,71.311000,167.790000,71.420000,168.057000,71.420000C168.322000,71.420000,168.588000,71.311000,168.792000,71.094000C169.560000,70.268000,170.329000,69.444000,171.101000,68.619000C171.507000,68.184000,171.507000,67.479000,171.101000,67.044000C170.696000,66.610000,170.038000,66.610000,169.631000,67.044000Z" fill="rgb(8,175,115)" fill-rule="evenodd" stroke="none" stroke-width="1"/><path id="eY2rVb7ZHIP64" d="M174.985000,58.323000C175.558000,58.323000,176.024000,57.824000,176.024000,57.209000C176.022000,56.042000,176.022000,54.876000,176.024000,53.710000C176.024000,53.095000,175.558000,52.596000,174.985000,52.596000C174.410000,52.596000,173.945000,53.095000,173.945000,53.710000C173.944000,54.876000,173.944000,56.042000,173.945000,57.209000C173.945000,57.824000,174.410000,58.323000,174.985000,58.323000Z" fill="rgb(8,175,115)" fill-rule="evenodd" stroke="none" stroke-width="1"/><path id="eY2rVb7ZHIP65" d="M178.927000,59.773000C179.194000,59.773000,179.460000,59.664000,179.662000,59.446000C180.430000,58.621000,181.200000,57.796000,181.971000,56.972000C182.378000,56.537000,182.378000,55.832000,181.971000,55.397000C181.566000,54.962000,180.908000,54.962000,180.502000,55.397000C179.730000,56.222000,178.960000,57.046000,178.192000,57.872000C177.786000,58.307000,177.786000,59.012000,178.192000,59.446000C178.396000,59.664000,178.662000,59.773000,178.927000,59.773000Z" fill="rgb(8,175,115)" fill-rule="evenodd" stroke="none" stroke-width="1"/></g></g><g id="eY2rVb7ZHIP66_to" transform="translate(40.663000,88.346004)"><g id="eY2rVb7ZHIP66" transform="translate(-40.663000,-88.346004)"><path id="eY2rVb7ZHIP67" d="M41.624000,121.664000C60.053000,121.664000,74.386000,107.330000,74.386000,88.901000C74.386000,70.472000,60.053000,56.139000,41.624000,56.139000C23.195000,56.139000,8.862000,70.472000,8.862000,88.901000C8.862000,107.330000,23.195000,121.664000,41.624000,121.664000Z" transform="matrix(1 0 0 1 -0.96100055000001 -0.55550009000000)" fill="rgb(45,255,179)" fill-rule="evenodd" stroke="none" stroke-width="1"/><path id="eY2rVb7ZHIP68" d="M30.708000,82.649000C30.816000,79.751000,31.764000,77.516000,33.552000,75.945000C35.340000,74.374000,37.765000,73.588000,40.826000,73.588000C42.857000,73.588000,44.591000,73.940000,46.027000,74.645000C47.490000,75.349000,48.587000,76.310000,49.318000,77.529000C50.076000,78.748000,50.456000,80.116000,50.456000,81.633000C50.456000,83.421000,50.009000,84.884000,49.115000,86.022000C48.221000,87.132000,47.178000,87.891000,45.986000,88.297000C45.986000,88.351000,45.986000,88.405000,45.986000,88.460000C47.530000,88.974000,48.749000,89.828000,49.643000,91.020000C50.537000,92.212000,50.984000,93.742000,50.984000,95.611000C50.984000,97.291000,50.591000,98.781000,49.806000,100.081000C49.047000,101.354000,47.923000,102.356000,46.433000,103.088000C44.970000,103.819000,43.223000,104.185000,41.191000,104.185000C37.941000,104.185000,35.340000,103.386000,33.390000,101.787000C31.467000,100.189000,30.451000,97.778000,30.342000,94.555000C32.590000,94.554000,34.839000,94.554000,37.087000,94.555000C37.115000,95.747000,37.453000,96.695000,38.103000,97.399000C38.753000,98.076000,39.701000,98.415000,40.947000,98.415000C42.004000,98.415000,42.817000,98.117000,43.386000,97.521000C43.982000,96.898000,44.279000,96.085000,44.279000,95.083000C44.279000,93.783000,43.860000,92.848000,43.020000,92.279000C42.207000,91.683000,40.893000,91.385000,39.078000,91.385000C38.645000,91.385000,38.211000,91.385000,37.778000,91.385000C37.778000,89.502000,37.778000,87.619000,37.778000,85.737000C38.211000,85.737000,38.645000,85.737000,39.078000,85.737000C40.460000,85.737000,41.571000,85.507000,42.410000,85.047000C43.277000,84.559000,43.711000,83.706000,43.711000,82.487000C43.711000,81.511000,43.440000,80.753000,42.898000,80.211000C42.356000,79.669000,41.611000,79.399000,40.663000,79.399000C39.634000,79.399000,38.862000,79.710000,38.347000,80.333000C37.859000,80.956000,37.575000,81.728000,37.494000,82.649000C35.231000,82.649000,32.970000,82.649000,30.708000,82.649000Z" fill="rgb(38,7,89)" fill-rule="evenodd" stroke="none" stroke-width="1"/></g></g></g></svg>