<svg id="efS0depvlqC1" xmlns="http://www.w3.org/2000/svg" xmlns:xlink="http://www.w3.org/1999/xlink" viewBox="0 0 365.990000 401.997000" shape-rendering="geometricPrecision" text-rendering="geometricPrecision"><style><![CDATA[#efS0depvlqC23_ts {animation: efS0depvlqC23_ts__ts 10000ms linear infinite normal forwards}@keyframes efS0depvlqC23_ts__ts { 0% {transform: translate(218.995000px,381.529000px) scale(1,1)} 25% {transform: translate(218.995000px,381.529000px) scale(1,1.016306)} 50% {transform: translate(218.995000px,381.529000px) scale(1,0.973273)} 75% {transform: translate(218.995000px,381.529000px) scale(1,1.028176)} 100% {transform: translate(218.995000px,381.529000px) scale(1,1)}} #efS0depvlqC33_tr {animation: efS0depvlqC33_tr__tr 10000ms linear infinite normal forwards}@keyframes efS0depvlqC33_tr__tr { 0% {transform: translate(182.995000px,225.594330px) rotate(0deg)} 25% {transform: translate(182.995000px,225.594330px) rotate(8deg)} 50% {transform: translate(182.995000px,225.594330px) rotate(0deg)} 75% {transform: translate(182.995000px,225.594330px) rotate(8deg)} 100% {transform: translate(182.995000px,225.594330px) rotate(0deg)}} #efS0depvlqC49_ts {animation: efS0depvlqC49_ts__ts 10000ms linear infinite normal forwards}@keyframes efS0depvlqC49_ts__ts { 0% {transform: translate(171.728996px,98.742500px) scale(1,1)} 30% {transform: translate(171.728996px,98.742500px) scale(1,1)} 32% {transform: translate(171.728996px,98.742500px) scale(1.092405,0.897957)} 34% {transform: translate(171.728996px,98.742500px) scale(0.903603,1.019604)} 36% {transform: translate(171.728996px,98.742500px) scale(1,1)} 100% {transform: translate(171.728996px,98.742500px) scale(1,1)}} #efS0depvlqC52_tk {animation: efS0depvlqC52_tk__tk 10000ms linear infinite normal forwards}@keyframes efS0depvlqC52_tk__tk { 0% {transform: translate(74.092003px,377.359000px) skewX(7deg) skewY(0deg)} 25% {transform: translate(74.092003px,377.359000px) skewX(-7deg) skewY(0deg)} 50% {transform: translate(74.092003px,377.359000px) skewX(7deg) skewY(0deg)} 75% {transform: translate(74.092003px,377.359000px) skewX(-7deg) skewY(0deg)} 100% {transform: translate(74.092003px,377.359000px) skewX(7deg) skewY(0deg)}} #efS0depvlqC57_ts {animation: efS0depvlqC57_ts__ts 10000ms linear infinite normal forwards}@keyframes efS0depvlqC57_ts__ts { 0% {transform: translate(120.472500px,157.186501px) scale(1,1)} 40% {transform: translate(120.472500px,157.186501px) scale(1,1)} 42% {transform: translate(120.472500px,157.186501px) scale(1.106201,0.902095)} 44% {transform: translate(120.472500px,157.186501px) scale(0.856964,1.024476)} 46% {transform: translate(120.472500px,157.186501px) scale(1,1)} 100% {transform: translate(120.472500px,157.186501px) scale(1,1)}} #efS0depvlqC60_ts {animation: efS0depvlqC60_ts__ts 10000ms linear infinite normal forwards}@keyframes efS0depvlqC60_ts__ts { 0% {transform: translate(157.959496px,235.470497px) scale(1,1)} 50% {transform: translate(157.959496px,235.470497px) scale(1,1)} 52% {transform: translate(157.959496px,235.470497px) scale(1.103147,0.868087)} 54% {transform: translate(157.959496px,235.470497px) scale(0.851009,1.117759)} 56% {transform: translate(157.959496px,235.470497px) scale(1,1)} 100% {transform: translate(157.959496px,235.470497px) scale(1,1)}} #efS0depvlqC65_ts {animation: efS0depvlqC65_ts__ts 10000ms linear infinite normal forwards}@keyframes efS0depvlqC65_ts__ts { 0% {transform: translate(246.320755px,128.347927px) scale(1,1)} 20% {transform: translate(246.320755px,128.347927px) scale(1,1)} 22% {transform: translate(246.320755px,128.347927px) scale(1.078471,0.905587)} 24% {transform: translate(246.320755px,128.347927px) scale(0.858835,1.025194)} 26% {transform: translate(246.320755px,128.347927px) scale(1,1)} 100% {transform: translate(246.320755px,128.347927px) scale(1,1)}}]]></style><defs><linearGradient id="efS0depvlqC3-fill" x1="0.532300" y1="0.772000" x2="0.547800" y2="0.395900" spreadMethod="pad" gradientUnits="objectBoundingBox"><stop id="efS0depvlqC3-fill-0" offset="0%" stop-color="rgba(255,255,255,0)"/><stop id="efS0depvlqC3-fill-1" offset="100%" stop-color="rgb(230,240,248)"/></linearGradient></defs><g id="efS0depvlqC2"><path id="efS0depvlqC3" d="M20.243000,157.538000C19.720000,136.676000,25.124000,116.228000,39.351000,98.478000C58.085000,75.118000,90.417000,62.782000,119.496000,69.950000C149.544000,77.358000,176.119000,105.571000,209.133000,96.320000C229.786000,90.531000,244.263000,70.454000,265.099000,65.381000C277.812000,62.288000,291.483000,65.346000,302.930000,71.681000C361.840000,104.311000,342.348000,176.971000,308.126000,220.723000C288.225000,246.161000,261.740000,265.933000,233.104000,280.871000C211.754000,292.004000,188.804000,300.660000,164.865000,303.205000C117.552000,308.240000,80.904000,285.846000,54.041000,248.132000C35.832000,222.565000,21.041000,189.576000,20.243000,157.538000Z" fill="url(#efS0depvlqC3-fill)" fill-rule="evenodd" stroke="none" stroke-width="1"/><path id="efS0depvlqC4" d="M243.394000,68.247000C243.390000,165.022000,243.390000,261.798000,243.394000,358.577000C243.394000,370.060000,234.038000,379.347000,222.472000,379.347000C180.922000,379.343000,139.375000,379.343000,97.829000,379.347000C86.264000,379.347000,76.908000,370.060000,76.908000,358.577000C76.907000,261.798000,76.907000,165.022000,76.908000,68.247000C76.908000,56.766000,86.264000,47.478000,97.829000,47.478000C139.375000,47.478000,180.922000,47.478000,222.472000,47.478000C234.038000,47.478000,243.394000,56.766000,243.394000,68.247000Z" fill="rgb(46,45,123)" fill-rule="evenodd" stroke="none" stroke-width="1"/><path id="efS0depvlqC5" d="M235.675000,80.786000C235.673000,169.200000,235.673000,257.617000,235.675000,346.036000C235.675000,356.527000,227.187000,365.013000,216.694000,365.013000C178.996000,365.009000,141.301000,365.009000,103.606000,365.013000C93.113000,365.013000,84.625000,356.527000,84.625000,346.036000C84.624000,257.617000,84.624000,169.200000,84.625000,80.786000C84.625000,70.296000,93.113000,61.810000,103.606000,61.810000C141.301000,61.809000,178.996000,61.809000,216.694000,61.810000C227.187000,61.810000,235.675000,70.296000,235.675000,80.786000Z" fill="rgb(255,255,255)" fill-rule="evenodd" stroke="none" stroke-width="1"/><path id="efS0depvlqC6" d="M186.188000,71.734000C168.460000,71.732000,150.734000,71.732000,133.009000,71.734000C128.189000,71.734000,124.317000,67.916000,124.317000,63.163000C124.316000,61.241000,124.316000,59.320000,124.317000,57.400000C147.837000,57.399000,171.358000,57.399000,194.881000,57.400000C194.879000,59.320000,194.879000,61.241000,194.881000,63.163000C194.881000,67.845000,190.936000,71.734000,186.188000,71.734000Z" fill="rgb(46,45,123)" fill-rule="evenodd" stroke="none" stroke-width="1"/><path id="efS0depvlqC7" d="M104.291000,155.380000C104.129000,155.564000,103.852000,155.577000,103.672000,155.410000C101.412000,153.303000,99.152000,151.198000,96.895000,149.093000C96.715000,148.925000,96.707000,148.644000,96.877000,148.467000C97.596000,147.718000,98.316000,146.969000,99.037000,146.222000C99.206000,146.045000,99.492000,146.037000,99.671000,146.203000C100.905000,147.352000,102.139000,148.503000,103.374000,149.655000C103.553000,149.821000,103.832000,149.809000,103.993000,149.624000C106.403000,146.863000,108.814000,144.104000,111.226000,141.347000C111.387000,141.162000,111.673000,141.142000,111.860000,141.300000C112.651000,141.972000,113.444000,142.644000,114.240000,143.318000C114.428000,143.477000,114.449000,143.757000,114.287000,143.942000C110.956000,147.754000,107.622000,151.565000,104.291000,155.380000Z" fill="rgb(247,244,255)" fill-rule="evenodd" stroke="none" stroke-width="1"/><path id="efS0depvlqC8" d="M104.291000,187.353000C104.129000,187.538000,103.852000,187.550000,103.672000,187.384000C101.412000,185.276000,99.152000,183.170000,96.895000,181.065000C96.715000,180.899000,96.707000,180.618000,96.877000,180.441000C97.596000,179.690000,98.316000,178.941000,99.037000,178.195000C99.207000,178.017000,99.492000,178.010000,99.671000,178.177000C100.904000,179.325000,102.139000,180.476000,103.374000,181.628000C103.553000,181.795000,103.832000,181.780000,103.993000,181.598000C106.403000,178.836000,108.814000,176.077000,111.226000,173.320000C111.388000,173.136000,111.673000,173.115000,111.860000,173.274000C112.651000,173.944000,113.444000,174.617000,114.240000,175.292000C114.428000,175.451000,114.449000,175.730000,114.287000,175.915000C110.956000,179.727000,107.622000,183.538000,104.291000,187.353000Z" fill="rgb(247,244,255)" fill-rule="evenodd" stroke="none" stroke-width="1"/><path id="efS0depvlqC9" d="M104.291000,219.329000C104.129000,219.512000,103.852000,219.526000,103.672000,219.359000C101.412000,217.250000,99.152000,215.146000,96.895000,213.041000C96.715000,212.875000,96.707000,212.593000,96.877000,212.417000C97.596000,211.666000,98.316000,210.917000,99.037000,210.171000C99.207000,209.993000,99.492000,209.986000,99.671000,210.152000C100.904000,211.301000,102.139000,212.451000,103.374000,213.603000C103.553000,213.770000,103.832000,213.756000,103.993000,213.572000C106.402000,210.811000,108.814000,208.053000,111.226000,205.296000C111.387000,205.112000,111.673000,205.091000,111.860000,205.248000C112.652000,205.919000,113.444000,206.593000,114.240000,207.268000C114.428000,207.425000,114.449000,207.706000,114.287000,207.891000C110.956000,211.702000,107.622000,215.514000,104.291000,219.329000Z" fill="rgb(247,244,255)" fill-rule="evenodd" stroke="none" stroke-width="1"/><path id="efS0depvlqC10" d="M104.291000,247.996000C104.129000,248.180000,103.852000,248.194000,103.672000,248.026000C101.411000,245.918000,99.152000,243.813000,96.895000,241.709000C96.715000,241.543000,96.707000,241.261000,96.877000,241.085000C97.596000,240.334000,98.316000,239.584000,99.037000,238.837000C99.206000,238.661000,99.492000,238.653000,99.671000,238.820000C100.905000,239.968000,102.139000,241.117000,103.374000,242.271000C103.553000,242.438000,103.832000,242.423000,103.993000,242.240000C106.403000,239.479000,108.814000,236.720000,111.226000,233.964000C111.387000,233.779000,111.673000,233.758000,111.860000,233.916000C112.651000,234.586000,113.444000,235.260000,114.240000,235.935000C114.428000,236.094000,114.449000,236.374000,114.287000,236.558000C110.956000,240.370000,107.621000,244.181000,104.291000,247.996000Z" fill="rgb(247,244,255)" fill-rule="evenodd" stroke="none" stroke-width="1"/><path id="efS0depvlqC11" d="M96.755000,94.889000C138.651000,94.888000,180.547000,94.888000,222.446000,94.889000C222.444000,105.913000,222.444000,116.939000,222.446000,127.965000C180.547000,127.964000,138.651000,127.964000,96.755000,127.965000C96.754000,116.939000,96.754000,105.913000,96.755000,94.889000Z" fill="rgb(247,244,255)" fill-rule="evenodd" stroke="none" stroke-width="1"/><path id="efS0depvlqC12" d="M96.755000,265.784000C138.651000,265.780000,180.547000,265.780000,222.446000,265.784000C222.444000,290.404000,222.444000,315.028000,222.446000,339.654000C180.547000,339.651000,138.651000,339.651000,96.755000,339.654000C96.754000,315.028000,96.754000,290.404000,96.755000,265.784000Z" fill="rgb(247,244,255)" fill-rule="evenodd" stroke="none" stroke-width="1"/><path id="efS0depvlqC13" d="M126.525000,142.296000C158.497000,142.295000,190.471000,142.295000,222.447000,142.296000C222.445000,146.705000,222.445000,151.116000,222.447000,155.526000C190.471000,155.525000,158.497000,155.525000,126.525000,155.526000C126.523000,151.116000,126.523000,146.705000,126.525000,142.296000Z" fill="rgb(247,244,255)" fill-rule="evenodd" stroke="none" stroke-width="1"/><path id="efS0depvlqC14" d="M126.525000,174.271000C158.497000,174.269000,190.471000,174.269000,222.447000,174.271000C222.445000,178.679000,222.445000,183.089000,222.447000,187.501000C190.471000,187.500000,158.497000,187.500000,126.525000,187.501000C126.523000,183.089000,126.523000,178.679000,126.525000,174.271000Z" fill="rgb(247,244,255)" fill-rule="evenodd" stroke="none" stroke-width="1"/><path id="efS0depvlqC15" d="M126.525000,206.245000C158.497000,206.243000,190.471000,206.243000,222.447000,206.245000C222.445000,210.653000,222.445000,215.064000,222.447000,219.476000C190.471000,219.473000,158.497000,219.473000,126.525000,219.476000C126.523000,215.064000,126.523000,210.653000,126.525000,206.245000Z" fill="rgb(247,244,255)" fill-rule="evenodd" stroke="none" stroke-width="1"/><path id="efS0depvlqC16" d="M126.525000,234.912000C158.497000,234.910000,190.471000,234.910000,222.447000,234.912000C222.445000,239.319000,222.445000,243.729000,222.447000,248.142000C190.471000,248.140000,158.497000,248.140000,126.525000,248.142000C126.523000,243.729000,126.523000,239.319000,126.525000,234.912000Z" fill="rgb(247,244,255)" fill-rule="evenodd" stroke="none" stroke-width="1"/><path id="efS0depvlqC17" d="M180.553000,391.141000C260.936000,391.141000,326.090000,384.965000,326.090000,377.359000C326.090000,369.753000,260.936000,363.577000,180.553000,363.577000C100.170000,363.577000,35.015000,369.753000,35.015000,377.359000C35.015000,384.965000,100.170000,391.141000,180.553000,391.141000Z" fill="rgb(255,255,255)" fill-opacity="0.141176" fill-rule="evenodd" stroke="none" stroke-width="1"/><path id="efS0depvlqC18" d="M265.490000,301.433000C264.299000,300.773000,263.572000,300.444000,263.572000,300.444000C256.641000,298.088000,249.713000,295.738000,242.788000,293.389000C230.741000,286.665000,223.063000,268.603000,215.848000,249.354000C216.974000,248.891000,218.100000,248.431000,219.357000,247.968000C269.793000,226.347000,235.243000,182.706000,221.873000,174.466000C208.501000,166.225000,201.552000,160.291000,199.501000,150.601000C197.516000,140.778000,190.962000,127.001000,171.900000,130.824000C171.900000,130.824000,156.080000,127.858000,149.859000,155.743000C147.939000,162.137000,147.210000,166.685000,144.828000,170.576000C134.701000,172.619000,125.633000,179.410000,118.948000,189.035000C97.370000,220.149000,96.576000,350.743000,156.213000,372.959000C205.590000,391.417000,298.122000,383.176000,302.092000,351.930000C305.602000,324.703000,273.699000,305.783000,265.490000,301.433000Z" fill="rgb(188,173,176)" fill-opacity="0.14902" fill-rule="evenodd" stroke="none" stroke-width="1"/><path id="efS0depvlqC19" d="M312.222000,351.930000C308.250000,383.176000,215.719000,391.352000,166.342000,372.959000C106.771000,350.743000,107.500000,220.149000,129.077000,189.034000C144.102000,167.279000,171.239000,160.094000,195.928000,189.034000C200.759000,194.704000,205.525000,201.756000,210.092000,210.327000C224.455000,237.421000,232.398000,281.918000,252.916000,293.389000C259.841000,295.738000,266.769000,298.090000,273.699000,300.444000C273.699000,300.444000,274.361000,300.773000,275.619000,301.433000C283.827000,305.783000,315.731000,324.703000,312.222000,351.930000Z" fill="rgb(58,97,155)" fill-rule="evenodd" stroke="none" stroke-width="1"/><path id="efS0depvlqC20" d="M273.765000,300.444000C266.835000,298.090000,259.908000,295.738000,252.984000,293.389000C232.464000,281.918000,224.521000,237.355000,210.158000,210.327000C205.591000,201.756000,200.826000,194.704000,195.993000,189.034000C180.174000,189.891000,181.234000,188.309000,181.234000,188.309000C181.234000,188.309000,155.553000,193.121000,151.250000,214.216000C150.852000,216.325000,150.654000,216.062000,150.588000,218.632000C147.609000,216.788000,139.137000,216.194000,138.740000,216.656000C138.211000,217.314000,146.351000,219.489000,150.588000,223.313000C150.588000,223.313000,142.844000,222.259000,138.608000,223.841000C143.108000,224.566000,150.721000,227.204000,150.721000,227.204000C150.721000,227.204000,137.284000,232.345000,138.740000,232.543000C140.924000,232.872000,151.051000,231.752000,151.051000,231.752000C151.647000,239.596000,152.706000,247.309000,153.963000,260.560000C155.221000,274.271000,161.377000,299.981000,169.518000,312.375000C167.399000,313.892000,163.164000,316.924000,158.861000,320.748000C152.838000,326.153000,155.288000,327.736000,159.589000,325.955000C163.892000,324.175000,177.527000,319.825000,177.527000,319.825000C177.527000,319.825000,167.929000,327.736000,168.658000,328.593000C169.386000,329.449000,178.255000,323.451000,182.623000,321.868000C189.243000,323.846000,197.383000,324.307000,205.128000,323.780000C206.585000,328.263000,208.967000,334.459000,215.585000,334.459000C220.947000,334.459000,221.476000,328.329000,226.771000,325.495000C241.200000,317.913000,261.984000,307.826000,269.398000,307.432000C273.898000,307.233000,275.287000,304.399000,275.552000,301.367000C274.427000,300.773000,273.765000,300.444000,273.765000,300.444000Z" fill="rgb(40,76,129)" fill-opacity="0.439216" fill-rule="evenodd" stroke="none" stroke-width="1"/><path id="efS0depvlqC21" d="M170.909000,176.575000C159.459000,172.616000,145.294000,177.167000,139.601000,188.243000C134.902000,197.339000,133.909000,208.481000,133.446000,218.500000C132.652000,235.114000,134.108000,251.792000,136.623000,268.141000C138.145000,278.359000,140.131000,288.577000,142.513000,298.663000C143.836000,304.267000,145.228000,309.871000,146.750000,315.408000C147.477000,318.177000,148.471000,320.879000,149.661000,323.517000C154.228000,333.273000,162.238000,340.854000,171.505000,346.127000C181.168000,351.731000,192.089000,355.027000,203.010000,357.203000C213.402000,359.246000,223.992000,360.235000,234.582000,360.499000C241.930000,360.698000,249.277000,360.632000,256.558000,360.037000C259.800000,359.774000,262.978000,359.379000,266.221000,358.851000C278.201000,356.675000,291.042000,353.182000,300.904000,345.864000C303.286000,344.084000,305.339000,342.040000,307.125000,339.734000C307.391000,339.404000,306.795000,339.074000,306.530000,339.404000C302.558000,344.612000,296.601000,348.105000,290.711000,350.809000C284.820000,353.445000,278.598000,355.357000,272.310000,356.808000C268.007000,357.797000,263.639000,358.653000,259.205000,359.049000C253.380000,359.510000,247.555000,359.709000,241.730000,359.709000C232,359.709000,222.204000,359.180000,212.542000,357.862000C201.620000,356.346000,190.699000,353.907000,180.573000,349.556000C170.843000,345.403000,161.642000,339.470000,155.288000,330.901000C152.045000,326.483000,149.596000,321.539000,148.074000,316.265000C145.160000,306.113000,142.778000,295.763000,140.661000,285.347000C137.152000,267.812000,134.702000,250.012000,134.240000,232.082000C133.909000,220.018000,134.240000,207.426000,137.616000,195.758000C138.675000,192.132000,139.999000,188.506000,142.249000,185.408000C146.683000,179.343000,154.362000,175.849000,161.840000,175.652000C164.885000,175.586000,167.931000,175.980000,170.843000,176.838000C171.041000,176.904000,171.107000,176.641000,170.909000,176.575000Z" fill="rgb(114,177,204)" fill-rule="evenodd" stroke="none" stroke-width="1"/><path id="efS0depvlqC22" d="M193.015000,308.156000C189.108000,310.726000,184.411000,312.309000,180.043000,313.958000C175.476000,315.672000,170.842000,317.319000,166.342000,319.231000C162.568000,320.813000,159.193000,322.725000,156.148000,325.429000C152.640000,328.593000,149.529000,332.350000,146.749000,336.174000C143.970000,340.129000,141.322000,344.415000,139.667000,348.962000C139.600000,349.227000,139.931000,349.293000,140.065000,349.095000C143.506000,340.789000,149.463000,333.010000,156.015000,326.878000C162.634000,320.682000,171.570000,318.242000,179.843000,314.947000C184.477000,313.101000,188.977000,311.055000,193.148000,308.354000C193.214000,308.222000,193.148000,308.091000,193.015000,308.156000Z" transform="matrix(1 0 0 1 5 4)" fill="rgb(114,177,204)" fill-rule="evenodd" stroke="none" stroke-width="1"/><g id="efS0depvlqC23_ts" transform="translate(218.995000,381.529000) scale(1,1)"><g id="efS0depvlqC23" transform="translate(-218.995000,-381.529000)"><path id="efS0depvlqC24" d="M162.304000,195.824000C158.531000,192.066000,153.036000,189.758000,148.007000,188.375000C142.976000,187.057000,136.953000,186.264000,131.791000,187.517000C131.526000,187.583000,131.593000,187.980000,131.857000,187.980000C134.570000,187.846000,137.218000,187.583000,139.931000,187.780000C142.580000,187.980000,145.227000,188.441000,147.807000,189.100000C150.389000,189.758000,152.905000,190.747000,155.288000,191.869000C157.737000,192.989000,159.921000,194.505000,162.304000,195.824000C162.304000,195.824000,162.304000,195.824000,162.304000,195.824000Z" fill="rgb(114,177,204)" fill-rule="evenodd" stroke="none" stroke-width="1"/><path id="efS0depvlqC25" d="M204.003000,285.084000C204.003000,285.084000,279.260000,260.825000,301.300000,271.965000C323.342000,283.041000,315.068000,299.191000,297.395000,306.245000C280.782000,312.838000,241.466000,314.947000,241.466000,314.947000C228.976000,304.989000,216.489000,295.035000,204.003000,285.084000Z" fill="rgb(47,0,156)" fill-rule="evenodd" stroke="none" stroke-width="1"/><path id="efS0depvlqC26" d="M260.991000,292.005000C260.991000,292.005000,275.023000,279.282000,290.446000,277.765000C290.446000,277.765000,273.501000,276.976000,256.821000,289.764000C240.142000,302.552000,260.991000,292.005000,260.991000,292.005000Z" fill="rgb(60,17,160)" fill-rule="evenodd" stroke="none" stroke-width="1"/><path id="efS0depvlqC27" d="M225.645000,227.467000C224.256000,229.116000,222.470000,230.631000,220.218000,232.214000C219.822000,232.543000,214.857000,221.335000,213.931000,220.215000C213.997000,211.910000,214.063000,203.998000,214.063000,203.998000C214.063000,203.998000,219.756000,217.578000,225.645000,227.467000Z" fill="rgb(239,106,128)" fill-rule="evenodd" stroke="none" stroke-width="1"/><path id="efS0depvlqC28" d="M182.028000,130.823000C182.028000,130.823000,166.209000,127.858000,159.988000,155.743000C156.678000,166.751000,156.810000,172.488000,146.352000,178.353000C135.960000,184.222000,115.376000,196.879000,126.164000,216.788000C131.791000,225.621000,135.498000,230.960000,133.512000,239.004000C131.593000,247.045000,137.814000,270.450000,170.645000,262.143000C203.408000,253.836000,211.880000,255.484000,229.486000,247.968000C279.922000,226.347000,245.371000,182.705000,232.002000,174.466000C218.631000,166.225000,211.681000,160.291000,209.629000,150.601000C207.577000,140.778000,201.025000,127,182.028000,130.823000Z" fill="rgb(22,40,95)" fill-rule="evenodd" stroke="none" stroke-width="1"/><path id="efS0depvlqC29" d="M247.025000,226.347000C243.650000,225.884000,225.118000,200.306000,218.499000,192.527000C214.196000,187.452000,207.512000,186.726000,207.512000,186.726000C202.480000,191.011000,201.554000,199.780000,204.532000,205.449000C217.041000,229.114000,236.833000,242.959000,244.577000,246.321000C238.553000,238.278000,247.025000,226.347000,247.025000,226.347000Z" fill="rgb(254,181,180)" fill-rule="evenodd" stroke="none" stroke-width="1"/><path id="efS0depvlqC30" d="M232.862000,210.195000C232.862000,212.964000,230.810000,218.566000,229.419000,221.600000C228.427000,223.775000,227.235000,225.621000,225.647000,227.466000C224.258000,229.114000,222.470000,230.630000,220.219000,232.213000C219.822000,232.542000,214.858000,221.335000,213.932000,220.215000C213.866000,220.148000,213.866000,220.148000,213.798000,220.148000C213.136000,219.951000,212.474000,219.555000,211.946000,219.094000C210.754000,218.237000,209.629000,217.314000,208.503000,216.391000C207.577000,215.600000,206.585000,214.742000,205.989000,213.622000C205.194000,212.107000,205.260000,210.326000,205.394000,208.613000C205.302000,200.853000,205.214000,193.097000,205.128000,185.342000C210.754000,185.408000,215.917000,187.913000,219.491000,192.198000C220.418000,193.252000,221.212000,194.504000,222.006000,195.626000C225.382000,200.767000,229.487000,205.118000,232.862000,210.195000Z" fill="rgb(45,255,179)" fill-rule="evenodd" stroke="none" stroke-width="1"/><path id="efS0depvlqC31" d="M171.900000,305.651000C179.183000,309.674000,178.586000,291.808000,179.910000,292.005000C194.139000,294.379000,229.751000,284.293000,234.185000,278.425000C231.074000,272.295000,215.255000,202.548000,214.063000,200.703000C209.430000,193.319000,209.828000,187.649000,207.511000,185.474000C200.760000,184.946000,199.700000,184.616000,197.515000,184.485000C197.979000,186.265000,198.973000,188.638000,199.171000,190.946000C199.502000,195.099000,195.266000,198.328000,191.294000,196.945000C183.152000,194.175000,177.791000,184.090000,177.791000,184.090000C177.791000,184.090000,167.533000,192,163.296000,195.428000C161.906000,196.550000,159.523000,198.328000,158.333000,200.900000C148.933000,221.401000,160.052000,264.779000,166.473000,286.864000C168.195000,292.731000,166.606000,301.762000,171.900000,305.651000Z" fill="rgb(45,255,179)" fill-rule="evenodd" stroke="none" stroke-width="1"/><path id="efS0depvlqC32" d="M158.929000,215.139000C160.625000,224.762000,162.324000,234.386000,164.024000,244.013000C164.024000,244.013000,173.556000,243.816000,177.063000,242.431000C177.063000,242.431000,198.111000,262.406000,205.128000,261.417000C212.144000,260.428000,188.713000,227.070000,188.713000,227.070000C178.784000,223.091000,168.856000,219.114000,158.929000,215.139000Z" fill="rgb(3,224,139)" fill-rule="evenodd" stroke="none" stroke-width="1"/><g id="efS0depvlqC33_tr" transform="translate(182.995000,225.594330) rotate(0)"><path id="efS0depvlqC33" d="M224.455000,193.846000C225.184000,192.133000,226.507000,189.232000,227.169000,188.309000C228.095000,186.925000,228.229000,185.408000,227.499000,185.408000C226.771000,185.408000,224.058000,187.781000,222.866000,189.694000C221.676000,191.606000,218.035000,197.208000,218.035000,197.208000C216.181000,200.043000,214.857000,203.603000,214.924000,207.096000C214.990000,208.876000,214.726000,210.722000,214.064000,212.371000C212.012000,217.380000,207.577000,228.126000,203.738000,237.883000C198.840000,232.146000,190.368000,222.523000,181.034000,208.350000C177.329000,202.812000,170.313000,202.020000,170.313000,202.020000C164.951000,205.779000,166.209000,217.711000,168.989000,223.446000C179.447000,244.805000,199.303000,260.033000,202.546000,260.625000C211.152000,264.449000,213.732000,253.573000,213.732000,253.573000C215.851000,249.354000,218.299000,230.302000,222.932000,214.019000C223.662000,211.514000,225.315000,209.273000,226.442000,208.152000C226.442000,208.152000,226.442000,208.152000,226.442000,208.086000C230.347000,202.349000,227.169000,196.219000,224.455000,193.846000Z" transform="translate(-182.995000,-225.594330)" fill="rgb(254,181,180)" fill-rule="evenodd" stroke="none" stroke-width="1"/></g><path id="efS0depvlqC34" d="M161.906000,196.945000C161.906000,196.945000,154.626000,202.086000,158.663000,214.414000C159.921000,218.172000,165.944000,240.519000,165.944000,240.519000C165.944000,240.519000,178.123000,240.322000,183.020000,236.894000C193.214000,229.840000,193.744000,224.302000,193.744000,224.302000C193.744000,224.302000,189.308000,218.963000,186.132000,214.479000C184.212000,211.777000,188.845000,212.700000,188.845000,212.700000C186.416000,207.226000,183.990000,201.755000,181.565000,196.285000C175.010000,196.503000,168.457000,196.723000,161.906000,196.945000Z" fill="rgb(45,255,179)" fill-rule="evenodd" stroke="none" stroke-width="1"/><path id="efS0depvlqC35" d="M207.709000,294.115000C230.080000,334.988000,277.075000,352.325000,277.075000,352.325000C277.075000,352.325000,233.589000,302.224000,214.989000,287.984000C208.503000,283.041000,204.598000,288.511000,207.709000,294.115000Z" fill="rgb(58,97,155)" fill-opacity="0.478431" fill-rule="evenodd" stroke="none" stroke-width="1"/><path id="efS0depvlqC36" d="M256.491000,312.243000C245.280000,313.756000,234.072000,315.273000,222.866000,316.793000C222.866000,316.793000,202.480000,323.714000,189.572000,320.946000C164.157000,315.473000,170.909000,288.644000,174.616000,283.831000C189.904000,264.120000,221.012000,264.186000,221.012000,264.186000C232.837000,280.202000,244.662000,296.221000,256.491000,312.243000Z" fill="rgb(47,0,156)" fill-rule="evenodd" stroke="none" stroke-width="1"/><path id="efS0depvlqC37" d="M291.902000,368.279000C291.902000,368.279000,282.834000,358.521000,287.335000,352.654000C291.770000,346.787000,297.131000,349.557000,301.103000,353.051000C305.074000,356.544000,322.084000,369.992000,311.097000,378.825000C304.696000,375.306000,298.297000,371.790000,291.902000,368.279000Z" fill="rgb(23,0,122)" fill-rule="evenodd" stroke="none" stroke-width="1"/><path id="efS0depvlqC38" d="M280.055000,339.602000C280.055000,339.602000,283.165000,343.227000,285.613000,345.007000C286.343000,345.534000,290.645000,347.644000,292.961000,349.292000C295.410000,351.007000,296.005000,352.259000,298.587000,354.303000C301.699000,356.675000,304.279000,358.917000,304.875000,360.235000C306.463000,363.796000,297.661000,369.794000,295.145000,369.728000C293.292000,369.662000,287.401000,360.301000,286.078000,359.246000C284.489000,357.994000,283.034000,356.016000,280.782000,353.314000C276.679000,348.238000,270.126000,344.810000,270.126000,344.810000C273.432000,343.070000,276.743000,341.335000,280.055000,339.602000Z" fill="rgb(254,181,180)" fill-rule="evenodd" stroke="none" stroke-width="1"/><path id="efS0depvlqC39" d="M296.071000,367.554000C296.071000,367.554000,303.419000,364.390000,302.956000,357.928000C302.956000,357.928000,310.236000,364.125000,312.686000,369.267000C315.068000,374.475000,312.024000,381.529000,303.882000,381.529000C296.932000,381.529000,291.570000,367.883000,291.570000,367.883000C291.570000,367.883000,293.160000,368.806000,296.071000,367.554000Z" fill="rgb(47,0,156)" fill-rule="evenodd" stroke="none" stroke-width="1"/><path id="efS0depvlqC40" d="M261.456000,311.189000C256.731000,308.417000,252.009000,305.648000,247.290000,302.882000C247.290000,302.882000,242.592000,305.058000,239.347000,305.717000C238.090000,305.981000,236.105000,306.180000,234.052000,306.509000C232.596000,306.180000,230.015000,305.849000,227.037000,306.509000C222.535000,307.563000,223.528000,308.355000,220.152000,312.112000C216.777000,315.870000,209.894000,315.276000,207.445000,318.507000C204.995000,321.736000,209.496000,331.889000,215.056000,331.889000C218.035000,331.889000,218.697000,328.329000,220.350000,326.812000C222.006000,325.297000,235.244000,318.441000,235.244000,318.441000C236.699000,317.782000,238.354000,316.990000,240.407000,315.936000C246.827000,312.837000,261.456000,311.189000,261.456000,311.189000Z" fill="rgb(254,181,180)" fill-rule="evenodd" stroke="none" stroke-width="1"/><path id="efS0depvlqC41" d="M279.060000,354.500000C281.245000,355.620000,288.988000,346.193000,289.650000,343.886000C289.650000,343.886000,277.340000,328,273.434000,323.385000C261.786000,309.673000,250.334000,291.478000,239.811000,276.909000C234.648000,269.789000,227.168000,261.879000,217.173000,264.845000C208.966000,267.284000,203.869000,276.579000,204.466000,284.095000C204.995000,291.545000,209.694000,297.477000,214.527000,302.882000C214.393000,302.948000,250.534000,339.536000,279.060000,354.500000Z" fill="rgb(47,0,156)" fill-rule="evenodd" stroke="none" stroke-width="1"/><path id="efS0depvlqC42" d="M197.450000,184.485000C199.039000,186.794000,200.827000,196.681000,196.259000,197.933000C192.354000,198.988000,180.308000,192.792000,177.792000,184.156000C178.189000,183.892000,178.586000,183.629000,178.851000,183.365000C179.910000,182.442000,180.241000,181.388000,180.506000,179.476000C180.903000,176.838000,180.770000,174.070000,180.770000,174.070000C180.770000,174.070000,194.406000,174.794000,194.406000,175.059000C194.273000,176.048000,193.876000,178.553000,194.737000,181.914000C195.068000,183.299000,196.126000,184.288000,197.450000,184.485000Z" fill="rgb(255,171,169)" fill-rule="evenodd" stroke="none" stroke-width="1"/><path id="efS0depvlqC43" d="M256.380000,191.012000C251.454000,191.559000,246.532000,192.106000,241.611000,192.656000C240.541000,192.799000,239.613000,192.013000,239.471000,190.941000C238.302000,180.528000,237.138000,170.117000,235.975000,159.708000C235.832000,158.636000,236.618000,157.707000,237.687000,157.564000C242.608000,157.015000,247.530000,156.466000,252.456000,155.921000C253.526000,155.777000,254.454000,156.563000,254.596000,157.635000C255.759000,168.045000,256.924000,178.456000,258.092000,188.868000C258.164000,189.940000,257.450000,190.941000,256.380000,191.012000Z" fill="rgb(46,45,123)" fill-rule="evenodd" stroke="none" stroke-width="1"/><path id="efS0depvlqC44" d="M258.145000,182.244000C258.874000,186.660000,258.079000,191.276000,257.880000,192.396000C257.880000,192.462000,257.880000,192.462000,257.880000,192.462000C257.880000,192.593000,257.815000,192.660000,257.815000,192.660000C257.551000,193.518000,257.285000,194.505000,257.285000,195.758000C257.747000,214.019000,256.755000,234.521000,255.763000,239.993000C254.704000,245.596000,250.268000,249.354000,244.577000,246.255000C239.944000,243.750000,238.621000,238.081000,238.621000,238.081000C240.870000,225.687000,249.873000,192.199000,249.873000,191.934000C244.841000,185.540000,248.085000,179.343000,251.460000,176.047000C252.453000,175.124000,253.248000,175.189000,253.975000,175.323000C254.108000,175.389000,257.351000,177.233000,258.145000,182.244000Z" fill="rgb(254,181,180)" fill-rule="evenodd" stroke="none" stroke-width="1"/><path id="efS0depvlqC45" d="M256.490000,177.893000C255.495000,176.023000,254.502000,174.156000,253.512000,172.289000C253.512000,172.289000,249.937000,165.499000,248.680000,166.027000C247.952000,166.356000,248.085000,167.016000,248.746000,168.663000C248.746000,168.663000,249.474000,170.509000,250.136000,172.025000C248.746000,170.443000,245.701000,167.016000,244.841000,167.608000C244.179000,168.071000,244.444000,168.730000,245.371000,170.180000C245.371000,170.180000,246.165000,171.432000,246.958000,172.619000C245.436000,170.971000,243.517000,169.125000,242.855000,169.586000C242.193000,170.048000,242.458000,170.706000,243.385000,172.158000C243.385000,172.158000,245.701000,175.718000,246.363000,176.575000C246.628000,176.838000,246.893000,177.695000,247.157000,178.618000C246.563000,177.761000,245.305000,175.915000,244.575000,175.389000C243.847000,174.795000,242.921000,174.860000,242.921000,175.718000C242.921000,176.641000,245.370000,179.607000,245.767000,180.859000C246.165000,182.111000,247.952000,188.704000,247.952000,188.704000C248.082000,186.527000,248.214000,184.352000,248.349000,182.177000C248.833000,181.100000,249.318000,180.023000,249.806000,178.947000C250.003000,179.870000,250.202000,180.529000,250.202000,180.529000C250.618000,179.626000,251.037000,178.726000,251.460000,177.827000C251.525000,178.882000,251.525000,179.805000,251.525000,179.805000C253.177000,179.166000,254.832000,178.528000,256.490000,177.893000Z" fill="rgb(254,181,180)" fill-rule="evenodd" stroke="none" stroke-width="1"/><path id="efS0depvlqC46" d="M171.041000,166.488000C172.167000,167.807000,173.623000,168.794000,175.210000,169.323000C175.476000,169.389000,175.740000,169.520000,176.006000,169.653000C176.270000,169.850000,176.468000,170.113000,176.668000,170.377000C179.645000,174.531000,184.874000,177.101000,189.905000,176.509000C194.075000,176.047000,197.914000,173.344000,199.767000,169.653000C200.165000,168.861000,200.494000,167.938000,200.694000,167.082000C200.694000,167.016000,200.761000,166.882000,200.761000,166.818000C200.893000,166.027000,200.959000,165.170000,201.025000,164.378000C201.025000,163.984000,201.025000,163.587000,201.025000,163.192000C201.025000,162.598000,201.025000,161.939000,201.025000,161.346000C201.025000,158.709000,201.687000,156.072000,201.752000,153.436000C201.819000,149.678000,200.627000,144.866000,196.921000,143.086000C194.802000,142.097000,192.684000,142.492000,190.435000,142.426000C188.051000,142.294000,185.735000,142.228000,183.484000,143.086000C181.697000,143.811000,180.109000,145.063000,179.183000,146.710000C178.123000,148.556000,178.653000,157.786000,178.321000,158.049000C178.057000,158.248000,176.601000,159.830000,176.402000,159.302000C175.740000,157.655000,173.623000,156.929000,171.968000,157.523000C170.313000,158.181000,169.254000,159.896000,169.187000,161.675000C169.122000,163.390000,169.917000,165.104000,171.041000,166.488000Z" fill="rgb(254,181,180)" fill-rule="evenodd" stroke="none" stroke-width="1"/><path id="efS0depvlqC47" display="none" d="M189.508000,176.575000C189.508000,176.575000,183.751000,176.838000,180.639000,174.135000C183.593000,174.946000,186.549000,175.759000,189.508000,176.575000Z" fill="rgb(254,181,180)" fill-rule="evenodd" stroke="none" stroke-width="1"/><path id="efS0depvlqC48" d="M172.562000,298.928000C172.562000,298.928000,172.827000,298.466000,173.358000,297.609000C173.622000,297.147000,174.020000,296.686000,174.416000,296.027000C174.814000,295.434000,175.409000,294.775000,176.005000,294.049000C177.329000,292.665000,179.115000,291.148000,181.366000,289.699000C183.616000,288.248000,186.397000,286.995000,189.375000,285.676000C190.830000,285.017000,192.420000,284.227000,193.942000,283.370000C195.464000,282.512000,196.987000,281.458000,198.707000,280.666000C200.429000,279.877000,202.348000,279.217000,204.400000,279.480000C205.393000,279.611000,206.385000,279.877000,207.311000,280.403000C208.172000,280.931000,209.033000,281.589000,209.761000,282.315000C210.490000,283.041000,211.151000,283.830000,211.878000,284.622000C212.541000,285.413000,213.270000,286.205000,213.932000,286.995000C215.255000,288.577000,216.645000,290.291000,217.968000,291.940000C220.682000,295.302000,223.396000,298.663000,226.175000,302.027000C228.956000,305.388000,231.868000,308.618000,234.913000,311.585000C238.023000,314.550000,241.068000,317.451000,243.981000,320.286000C246.959000,323.121000,249.806000,325.889000,252.519000,328.395000C255.233000,330.966000,257.880000,333.339000,260.329000,335.514000C262.778000,337.690000,265.029000,339.602000,267.081000,341.317000C269.132000,343.029000,270.986000,344.415000,272.508000,345.601000C273.236000,346.193000,273.965000,346.722000,274.561000,347.116000C275.157000,347.579000,275.685000,347.908000,276.083000,348.238000C276.943000,348.831000,277.341000,349.161000,277.341000,349.161000C277.341000,349.161000,277.341000,349.161000,277.341000,349.227000C277.341000,349.227000,277.341000,349.227000,277.273000,349.227000C277.273000,349.227000,276.810000,348.897000,275.949000,348.369000C275.553000,348.105000,275.023000,347.710000,274.427000,347.315000C273.832000,346.853000,273.104000,346.393000,272.376000,345.799000C270.854000,344.678000,269,343.293000,266.883000,341.580000C264.831000,339.931000,262.513000,338.020000,259.998000,335.845000C257.483000,333.736000,254.901000,331.361000,252.122000,328.790000C249.408000,326.219000,246.497000,323.517000,243.583000,320.682000C240.672000,317.848000,237.627000,314.881000,234.516000,311.914000C231.472000,308.882000,228.624000,305.585000,225.845000,302.158000C223.066000,298.795000,220.418000,295.368000,217.703000,292.005000C216.381000,290.357000,214.990000,288.710000,213.600000,287.127000C212.938000,286.336000,212.210000,285.545000,211.548000,284.753000C210.886000,283.963000,210.158000,283.172000,209.430000,282.512000C208.703000,281.787000,207.907000,281.194000,207.047000,280.732000C206.187000,280.271000,205.260000,279.941000,204.267000,279.876000C202.348000,279.677000,200.495000,280.337000,198.773000,281.129000C197.913000,281.523000,197.119000,281.986000,196.391000,282.447000C195.597000,282.907000,194.868000,283.435000,194.074000,283.831000C192.552000,284.689000,190.964000,285.413000,189.507000,286.072000C186.528000,287.391000,183.748000,288.643000,181.498000,290.028000C179.248000,291.412000,177.461000,292.928000,176.137000,294.246000C175.476000,294.972000,174.880000,295.565000,174.482000,296.158000C174.020000,296.752000,173.622000,297.214000,173.358000,297.674000C172.894000,298.466000,172.628000,298.928000,172.562000,298.928000C172.562000,298.928000,172.562000,298.928000,172.562000,298.928000Z" fill="rgb(80,48,154)" fill-rule="evenodd" stroke="none" stroke-width="1"/></g></g><g id="efS0depvlqC49_ts" transform="translate(171.728996,98.742500) scale(1,1)"><g id="efS0depvlqC49" transform="translate(-171.728996,-98.742500)"><path id="efS0depvlqC50" d="M171.728000,123.550000C185.733000,123.550000,197.088000,112.443000,197.088000,98.742000C197.088000,85.041000,185.733000,73.935000,171.728000,73.935000C157.723000,73.935000,146.370000,85.041000,146.370000,98.742000C146.370000,112.443000,157.723000,123.550000,171.728000,123.550000Z" fill="rgb(86,0,227)" fill-rule="evenodd" stroke="none" stroke-width="1"/><path id="efS0depvlqC51" d="M178.105000,99.714000C176.594000,99.713000,175.085000,99.713000,173.579000,99.714000C173.578000,105.119000,173.578000,110.525000,173.579000,115.931000C171.292000,115.930000,169.007000,115.930000,166.724000,115.931000C166.721000,110.525000,166.721000,105.119000,166.724000,99.714000C165.634000,99.713000,164.548000,99.713000,163.463000,99.714000C163.461000,97.814000,163.461000,95.913000,163.463000,94.015000C164.548000,94.014000,165.634000,94.014000,166.724000,94.015000C166.721000,92.784000,166.721000,91.555000,166.724000,90.326000C166.724000,87.690000,168.005000,83.559000,173.640000,83.559000C175.331000,83.566000,177.023000,83.573000,178.718000,83.581000C178.715000,85.423000,178.715000,87.267000,178.718000,89.113000C177.488000,89.112000,176.260000,89.112000,175.034000,89.113000C174.430000,89.113000,173.579000,89.408000,173.579000,90.666000C173.578000,91.783000,173.578000,92.902000,173.579000,94.021000C175.285000,94.019000,176.993000,94.019000,178.703000,94.021000C178.501000,95.917000,178.302000,97.815000,178.105000,99.714000Z" fill="rgb(255,255,255)" fill-rule="evenodd" stroke="none" stroke-width="1"/></g></g><g id="efS0depvlqC52_tk" transform="translate(74.092003,377.359000) skewX(7) skewY(0)"><g id="efS0depvlqC52" transform="translate(-74.092003,-377.359000)"><path id="efS0depvlqC53" d="M81.024000,378.948000C81.024000,378.948000,83.274000,348.510000,73.359000,347.011000C63.501000,345.513000,68.017000,357.614000,63.051000,355.797000C58.084000,353.999000,58.308000,337.609000,46.951000,338.582000C35.593000,339.557000,50.268000,352.556000,43.408000,352.556000C36.549000,352.556000,45.882000,360.366000,45.882000,366.530000C45.882000,372.693000,27.758000,359.692000,25.584000,368.028000C22.491000,379.980000,44.083000,379.155000,44.083000,379.155000C56.396000,379.082000,68.710000,379.013000,81.024000,378.948000Z" fill="rgb(86,77,159)" fill-rule="evenodd" stroke="none" stroke-width="1"/><path id="efS0depvlqC54" d="M33.195000,377.896000C40.636000,376.247000,56.362000,374.131000,62.678000,378.195000C62.903000,378.495000,63.128000,378.721000,63.352000,379.094000C63.801000,379.091000,64.251000,379.091000,64.703000,379.094000C63.727000,377.784000,62.753000,376.398000,61.779000,375.049000C64.102000,368.137000,63.878000,360.177000,63.503000,356.056000C63.503000,356.056000,63.503000,356.056000,63.428000,356.056000C63.353000,356.056000,63.278000,356.056000,63.203000,355.868000C63.203000,355.868000,63.203000,355.868000,63.128000,355.868000C63.128000,355.868000,63.128000,355.868000,63.053000,355.868000C63.053000,355.868000,63.053000,355.868000,62.978000,355.868000C62.978000,355.868000,62.978000,355.868000,62.902000,355.868000C62.902000,355.868000,62.902000,355.868000,62.828000,355.868000C62.802000,355.852000,62.777000,355.839000,62.753000,355.830000C62.678000,355.830000,62.678000,355.774000,62.603000,355.774000C62.978000,359.539000,63.352000,367.276000,61.253000,374.206000C59.980000,372.258000,58.780000,370.309000,57.562000,368.268000C60.036000,366.020000,59.812000,356.843000,59.286000,350.380000C59.211000,350.154000,59.135000,350.006000,59.061000,349.780000C59.061000,349.706000,59.061000,349.706000,58.986000,349.630000C58.687000,348.806000,58.312000,347.981000,57.937000,347.159000C58.761000,354.894000,58.986000,364.971000,57.036000,367.219000C50.795000,356.093000,46.204000,344.442000,44.404000,339.554000C44.029000,339.777000,43.730000,339.927000,43.504000,340.227000C45.079000,344.516000,48.697000,353.677000,53.588000,363.005000C56.211000,368.119000,58.930000,372.634000,61.479000,376.379000C54.188000,372.839000,35.839000,375.704000,30.722000,377.204000C31.322000,377.296000,32.221000,377.596000,33.195000,377.896000Z" fill="rgb(235,237,245)" fill-rule="evenodd" stroke="none" stroke-width="1"/><path id="efS0depvlqC55" d="M77.365000,379.668000C77.365000,379.668000,71.330000,362.685000,74.728000,359.637000C78.127000,356.590000,80.160000,360.003000,81.526000,358.764000C82.891000,357.511000,77.269000,348.353000,81.192000,344.812000C85.130000,341.321000,86.702000,348.638000,88.925000,346.623000C91.196000,344.591000,91.404000,328.560000,97.136000,330.243000C102.870000,331.925000,94.055000,346.876000,96.232000,347.019000C98.407000,347.162000,100.900000,342.734000,102.838000,347.226000C104.775000,351.716000,90.530000,361.161000,96.660000,361.510000C102.853000,361.843000,101.250000,366.002000,99.535000,369.256000C97.819000,372.493000,88.735000,380.366000,88.735000,380.366000C84.944000,380.129000,81.153000,379.897000,77.365000,379.668000Z" fill="rgb(80,188,141)" fill-rule="evenodd" stroke="none" stroke-width="1"/><path id="efS0depvlqC56" d="M102.746000,347.021000C100.049000,350.293000,95.154000,355.717000,91.264000,357.654000C94.233000,345.465000,96.628000,333.751000,97.314000,330.307000C97.250000,330.259000,97.203000,330.275000,97.140000,330.227000C97.076000,330.180000,97.028000,330.195000,96.902000,330.163000C96.394000,332.735000,94.884000,340.085000,92.915000,348.782000C92.264000,345.924000,91.534000,342.528000,90.994000,339.973000C90.946000,340.306000,90.834000,340.608000,90.787000,340.957000C91.502000,344.465000,92.471000,348.750000,92.693000,349.703000C92.534000,350.337000,92.375000,350.972000,92.232000,351.671000C91.421000,349.392000,90.611000,347.117000,89.803000,344.845000C89.739000,345.083000,89.659000,345.259000,89.580000,345.433000C90.399000,347.742000,91.220000,350.053000,92.042000,352.368000C91.248000,355.830000,90.327000,359.416000,89.437000,363.003000C86.230000,360.019000,83.593000,349.416000,82.402000,343.893000C82.291000,343.910000,82.148000,343.989000,81.989000,344.084000C83.212000,349.767000,85.880000,360.527000,89.310000,363.463000C87.897000,368.906000,86.356000,374.272000,84.832000,378.858000C81.734000,376.462000,77.906000,364.256000,76.224000,358.495000C76.128000,358.574000,75.970000,358.591000,75.810000,358.686000C77.525000,364.606000,81.370000,376.969000,84.673000,379.271000C84.609000,379.509000,84.482000,379.747000,84.419000,379.985000C84.566000,379.992000,84.714000,380.004000,84.863000,380.017000C85.467000,378.192000,86.134000,376.192000,86.769000,373.970000C89.675000,372.717000,97.108000,366.971000,100.967000,363.924000C100.936000,363.765000,100.904000,363.606000,100.840000,363.511000C97.187000,366.400000,89.993000,371.986000,86.960000,373.495000C88.215000,369.240000,89.597000,364.225000,90.962000,358.512000C90.994000,358.399000,91.026000,358.225000,91.057000,358.115000C95.027000,356.321000,100.013000,350.812000,102.810000,347.433000C102.793000,347.321000,102.778000,347.274000,102.714000,347.178000C102.761000,347.115000,102.746000,347.067000,102.746000,347.021000Z" fill="rgb(255,255,255)" fill-rule="evenodd" stroke="none" stroke-width="1"/></g></g><g id="efS0depvlqC57_ts" transform="translate(120.472500,157.186501) scale(1,1)"><g id="efS0depvlqC57" transform="translate(-120.472500,-157.186501)"><path id="efS0depvlqC58" d="M129.890000,156.352000C125.281000,153.388000,120.675000,150.426000,116.069000,147.466000C115.765000,147.276000,115.366000,147.256000,115.061000,147.427000C114.739000,147.599000,114.549000,147.940000,114.549000,148.301000C114.548000,154.223000,114.548000,160.147000,114.549000,166.074000C114.549000,166.434000,114.739000,166.775000,115.061000,166.945000C115.214000,167.021000,115.366000,167.060000,115.537000,167.060000C115.727000,167.060000,115.917000,167.003000,116.069000,166.909000C120.675000,163.946000,125.281000,160.982000,129.890000,158.022000C130.175000,157.833000,130.346000,157.529000,130.346000,157.187000C130.346000,156.845000,130.175000,156.522000,129.890000,156.352000Z" fill="rgb(255,255,255)" fill-rule="evenodd" stroke="none" stroke-width="1"/><path id="efS0depvlqC59" d="M120.473000,180.901000C133.555000,180.901000,144.187000,170.269000,144.187000,157.187000C144.187000,144.106000,133.536000,133.472000,120.473000,133.472000C107.391000,133.472000,96.758000,144.104000,96.758000,157.187000C96.758000,170.269000,107.391000,180.901000,120.473000,180.901000M129.890000,156.332000C130.175000,156.522000,130.345000,156.826000,130.345000,157.167000C130.345000,157.510000,130.175000,157.833000,129.890000,158.003000C125.281000,160.963000,120.674000,163.924000,116.069000,166.888000C115.897000,167.003000,115.726000,167.041000,115.535000,167.041000C115.364000,167.041000,115.213000,167.003000,115.061000,166.927000C114.739000,166.756000,114.549000,166.414000,114.549000,166.053000C114.548000,160.128000,114.548000,154.204000,114.549000,148.282000C114.549000,147.922000,114.739000,147.579000,115.061000,147.409000C115.365000,147.238000,115.765000,147.256000,116.069000,147.447000C120.674000,150.406000,125.281000,153.368000,129.890000,156.332000Z" fill="rgb(86,0,227)" fill-rule="evenodd" stroke="none" stroke-width="1"/></g></g><g id="efS0depvlqC60_ts" transform="translate(157.959496,235.470497) scale(1,1)"><g id="efS0depvlqC60" transform="translate(-157.959496,-235.470497)"><path id="efS0depvlqC61" d="M167.378000,234.635000C162.768000,231.670000,158.161000,228.709000,153.555000,225.750000C153.251000,225.559000,152.852000,225.541000,152.549000,225.711000C152.225000,225.882000,152.036000,226.224000,152.036000,226.585000C152.034000,232.505000,152.034000,238.429000,152.036000,244.356000C152.036000,244.716000,152.225000,245.059000,152.549000,245.229000C152.701000,245.306000,152.853000,245.343000,153.024000,245.343000C153.213000,245.343000,153.403000,245.286000,153.555000,245.192000C158.161000,242.228000,162.768000,239.265000,167.378000,236.306000C167.661000,236.115000,167.834000,235.812000,167.834000,235.470000C167.834000,235.130000,167.661000,234.805000,167.378000,234.635000Z" fill="rgb(255,255,255)" fill-rule="evenodd" stroke="none" stroke-width="1"/><path id="efS0depvlqC62" d="M157.959000,259.185000C171.041000,259.185000,181.673000,248.553000,181.674000,235.470000C181.674000,222.388000,171.023000,211.756000,157.959000,211.756000C144.878000,211.756000,134.245000,222.388000,134.245000,235.470000C134.246000,248.553000,144.878000,259.185000,157.959000,259.185000M167.377000,234.616000C167.662000,234.805000,167.834000,235.109000,167.834000,235.452000C167.834000,235.793000,167.661000,236.115000,167.377000,236.287000C162.767000,239.246000,158.160000,242.209000,153.555000,245.173000C153.384000,245.286000,153.212000,245.324000,153.023000,245.324000C152.852000,245.324000,152.700000,245.286000,152.549000,245.210000C152.225000,245.040000,152.036000,244.698000,152.036000,244.337000C152.034000,238.410000,152.034000,232.487000,152.036000,226.565000C152.036000,226.204000,152.225000,225.864000,152.549000,225.693000C152.852000,225.520000,153.251000,225.541000,153.555000,225.730000C158.161000,228.690000,162.767000,231.651000,167.377000,234.616000Z" fill="rgb(86,0,227)" fill-rule="evenodd" stroke="none" stroke-width="1"/></g></g><path id="efS0depvlqC63" d="M335.303000,359.245000C335.303000,359.245000,322.256000,355.127000,318.595000,356.271000C314.932000,357.414000,312.337000,362.905000,316.230000,367.176000C320.121000,371.370000,334.312000,374.040000,340.111000,374.420000C349.190000,375.030000,356.056000,367.862000,352.852000,364.278000C349.648000,360.693000,335.913000,359.321000,335.913000,359.321000C335.706000,359.292000,335.503000,359.266000,335.303000,359.245000Z" fill="rgb(23,0,122)" fill-rule="evenodd" stroke="none" stroke-width="1"/><path id="efS0depvlqC64" d="M330.723000,354.212000C328.433000,356.271000,326.754000,364.354000,327.746000,369.998000C327.746000,369.998000,335.223000,372.362000,341.938000,372.362000C353.611000,371.828000,356.205000,360.389000,348.957000,357.568000C341.633000,354.669000,335.071000,353.677000,335.071000,353.677000C335.071000,353.677000,332.325000,352.840000,330.723000,354.212000Z" fill="rgb(47,0,156)" fill-rule="evenodd" stroke="none" stroke-width="1"/><g id="efS0depvlqC65_ts" transform="translate(246.320755,128.347927) scale(1,1)"><g id="efS0depvlqC65" transform="translate(-246.320755,-128.347927)"><path id="efS0depvlqC66" d="M269.578000,107.013000C254.071000,107.011000,238.567000,107.012000,223.067000,107.013000C221.514000,107.013000,220.242000,108.310000,220.242000,109.895000C220.240000,120.601000,220.240000,131.307000,220.242000,142.014000C220.242000,143.600000,221.514000,144.898000,223.067000,144.898000C229.090000,144.896000,235.116000,144.896000,241.143000,144.898000C242.593000,146.378000,244.043000,147.859000,245.497000,149.342000C245.945000,149.798000,246.698000,149.798000,247.146000,149.342000C248.594000,147.859000,250.046000,146.378000,251.500000,144.898000C257.523000,144.896000,263.549000,144.896000,269.578000,144.898000C271.131000,144.898000,272.401000,143.600000,272.401000,142.014000C272.398000,131.307000,272.398000,120.601000,272.401000,109.895000C272.401000,108.310000,271.131000,107.013000,269.578000,107.013000Z" fill="rgb(86,0,227)" fill-rule="evenodd" stroke="none" stroke-width="1"/><path id="efS0depvlqC67" d="M234.694000,120.322000C234.692000,124.532000,234.692000,128.743000,234.694000,132.957000C234.694000,133.822000,235.377000,134.543000,236.248000,134.543000C237.791000,134.542000,239.336000,134.542000,240.885000,134.543000C240.882000,129.272000,240.882000,124.003000,240.885000,118.736000C239.328000,118.734000,237.775000,118.734000,236.224000,118.736000C235.377000,118.736000,234.694000,119.433000,234.694000,120.322000Z" fill="rgb(255,255,255)" fill-rule="evenodd" stroke="none" stroke-width="1"/><path id="efS0depvlqC68" d="M256.608000,120.322000C255.076000,120.320000,253.545000,120.320000,252.018000,120.322000C251.617000,120.322000,251.429000,120.057000,251.359000,119.938000C251.288000,119.817000,251.147000,119.506000,251.359000,119.145000C251.890000,118.158000,252.423000,117.173000,252.960000,116.190000C253.312000,115.540000,253.360000,114.772000,253.054000,114.100000C252.772000,113.427000,252.183000,112.922000,251.477000,112.754000C251.098000,112.656000,250.721000,112.561000,250.347000,112.465000C250.064000,112.394000,249.783000,112.490000,249.594000,112.705000C247.535000,115.026000,245.480000,117.350000,243.427000,119.673000C242.791000,120.393000,242.439000,121.330000,242.439000,122.315000C242.436000,125.069000,242.435000,127.824000,242.439000,130.580000C242.439000,132.765000,244.180000,134.519000,246.298000,134.519000C248.862000,134.517000,251.427000,134.517000,253.996000,134.519000C255.737000,134.519000,257.267000,133.318000,257.737000,131.613000C258.284000,129.033000,258.834000,126.454000,259.385000,123.877000C259.432000,123.660000,259.457000,123.445000,259.457000,123.228000C259.457000,121.620000,258.161000,120.322000,256.608000,120.322000Z" fill="rgb(255,255,255)" fill-rule="evenodd" stroke="none" stroke-width="1"/></g></g><g id="efS0depvlqC69"><path id="efS0depvlqC70" d="M42.233000,119.772000C60.153000,119.772000,74.092000,105.834000,74.092000,87.914000C74.092000,69.994000,60.153000,56.055000,42.233000,56.055000C24.312000,56.055000,10.374000,69.993000,10.374000,87.914000C10.374000,105.834000,24.312000,119.772000,42.233000,119.772000Z" fill="rgb(45,255,179)" fill-rule="evenodd" stroke="none" stroke-width="1"/><path id="efS0depvlqC71" d="M32.368000,97.126000C33.264000,96.415000,33.672000,96.085000,33.593000,96.138000C36.174000,94.004000,38.202000,92.252000,39.678000,90.882000C41.179000,89.513000,42.443000,88.077000,43.471000,86.575000C44.498000,85.075000,45.011000,83.613000,45.011000,82.189000C45.012000,81.109000,44.761000,80.267000,44.261000,79.661000C43.760000,79.055000,43.010000,78.752000,42.009000,78.752000C41.008000,78.753000,40.218000,79.135000,39.638000,79.898000C39.085000,80.635000,38.808000,81.689000,38.808000,83.059000C36.634000,83.058000,34.461000,83.058000,32.288000,83.059000C32.342000,80.820000,32.816000,78.950000,33.712000,77.448000C34.633000,75.946000,35.832000,74.840000,37.306000,74.129000C38.808000,73.418000,40.467000,73.062000,42.285000,73.062000C45.419000,73.062000,47.777000,73.866000,49.357000,75.472000C50.965000,77.079000,51.769000,79.173000,51.769000,81.755000C51.769000,84.573000,50.807000,87.195000,48.884000,89.618000C46.961000,92.015000,44.511000,94.360000,41.534000,96.651000C45.090000,96.650000,48.647000,96.650000,52.203000,96.651000C52.203000,98.481000,52.203000,100.311000,52.203000,102.144000C45.590000,102.143000,38.979000,102.143000,32.368000,102.144000C32.367000,100.470000,32.367000,98.797000,32.368000,97.126000Z" fill="rgb(38,7,89)" fill-rule="evenodd" stroke="none" stroke-width="1"/></g></g></svg>