<svg id="eXhVypdkZAH1" xmlns="http://www.w3.org/2000/svg" xmlns:xlink="http://www.w3.org/1999/xlink" viewBox="0 0 180 168" shape-rendering="geometricPrecision" text-rendering="geometricPrecision"><style><![CDATA[#eXhVypdkZAH7_tr {animation: eXhVypdkZAH7_tr__tr 10000ms linear infinite normal forwards}@keyframes eXhVypdkZAH7_tr__tr { 0% {transform: translate(30.294800px,157.764212px) rotate(0deg)} 25% {transform: translate(30.294800px,157.764212px) rotate(7deg)} 50% {transform: translate(30.294800px,157.764212px) rotate(-7deg)} 75% {transform: translate(30.294800px,157.764212px) rotate(7deg)} 100% {transform: translate(30.294800px,157.764212px) rotate(0deg)}} #eXhVypdkZAH19_ts {animation: eXhVypdkZAH19_ts__ts 10000ms linear infinite normal forwards}@keyframes eXhVypdkZAH19_ts__ts { 0% {transform: translate(66.950298px,15.629227px) scale(1,1)} 35% {transform: translate(66.950298px,15.629227px) scale(1,1)} 37% {transform: translate(66.950298px,15.629227px) scale(1.098958,0.853960)} 39% {transform: translate(66.950298px,15.629227px) scale(0.889824,1.081148)} 41% {transform: translate(66.950298px,15.629227px) scale(1,1)} 85% {transform: translate(66.950298px,15.629227px) scale(1,1)} 87% {transform: translate(66.950298px,15.629227px) scale(1.098958,0.853960)} 89% {transform: translate(66.950298px,15.629227px) scale(0.889824,1.081148)} 91% {transform: translate(66.950298px,15.629227px) scale(1,1)} 100% {transform: translate(66.950298px,15.629227px) scale(1,1)}} #eXhVypdkZAH23_ts {animation: eXhVypdkZAH23_ts__ts 10000ms linear infinite normal forwards}@keyframes eXhVypdkZAH23_ts__ts { 0% {transform: translate(83.058804px,25.481750px) scale(1,1)} 25% {transform: translate(83.058804px,25.481750px) scale(1,1)} 27% {transform: translate(83.058804px,25.481750px) scale(1.106856,0.841819)} 29% {transform: translate(83.058804px,25.481750px) scale(0.894931,1.082857)} 31% {transform: translate(83.058804px,25.481750px) scale(1,1)} 75% {transform: translate(83.058804px,25.481750px) scale(1,1)} 77% {transform: translate(83.058804px,25.481750px) scale(1.106856,0.841819)} 79% {transform: translate(83.058804px,25.481750px) scale(0.894931,1.082857)} 81% {transform: translate(83.058804px,25.481750px) scale(1,1)} 100% {transform: translate(83.058804px,25.481750px) scale(1,1)}} #eXhVypdkZAH24_ts {animation: eXhVypdkZAH24_ts__ts 10000ms linear infinite normal forwards}@keyframes eXhVypdkZAH24_ts__ts { 0% {transform: translate(47.923370px,156.344772px) scale(1,1)} 25% {transform: translate(47.923370px,156.344772px) scale(0.979628,0.960317)} 50% {transform: translate(47.923370px,156.344772px) scale(1,1)} 75% {transform: translate(47.923370px,156.344772px) scale(0.979628,0.960317)} 100% {transform: translate(47.923370px,156.344772px) scale(1,1)}} #eXhVypdkZAH25_tr {animation: eXhVypdkZAH25_tr__tr 10000ms linear infinite normal forwards}@keyframes eXhVypdkZAH25_tr__tr { 0% {transform: translate(51.214153px,64.966400px) rotate(0deg)} 25% {transform: translate(51.214153px,64.966400px) rotate(-4.380000deg)} 50% {transform: translate(51.214153px,64.966400px) rotate(4.380000deg)} 75% {transform: translate(51.214153px,64.966400px) rotate(-4.380000deg)} 100% {transform: translate(51.214153px,64.966400px) rotate(0deg)}} #eXhVypdkZAH26_tr {animation: eXhVypdkZAH26_tr__tr 10000ms linear infinite normal forwards}@keyframes eXhVypdkZAH26_tr__tr { 0% {transform: translate(44.534600px,60.368713px) rotate(0deg)} 25% {transform: translate(44.534600px,60.368713px) rotate(6.370000deg)} 50% {transform: translate(44.534600px,60.368713px) rotate(-6.370000deg)} 75% {transform: translate(44.534600px,60.368713px) rotate(6.370000deg)} 100% {transform: translate(44.534600px,60.368713px) rotate(0deg)}} #eXhVypdkZAH39_ts {animation: eXhVypdkZAH39_ts__ts 10000ms linear infinite normal forwards}@keyframes eXhVypdkZAH39_ts__ts { 0% {transform: translate(124.689602px,161.269424px) scale(1,1)} 25% {transform: translate(124.689602px,161.269424px) scale(0.941549,1.051672)} 50% {transform: translate(124.689602px,161.269424px) scale(1,1)} 75% {transform: translate(124.689602px,161.269424px) scale(0.941549,1.051672)} 100% {transform: translate(124.689602px,161.269424px) scale(1,1)}} #eXhVypdkZAH49_tr {animation: eXhVypdkZAH49_tr__tr 10000ms linear infinite normal forwards}@keyframes eXhVypdkZAH49_tr__tr { 0% {transform: translate(114.909000px,66.683243px) rotate(0deg)} 25% {transform: translate(114.909000px,66.683243px) rotate(-4.370000deg)} 50% {transform: translate(114.909000px,66.683243px) rotate(4.370000deg)} 75% {transform: translate(114.909000px,66.683243px) rotate(-4.370000deg)} 100% {transform: translate(114.909000px,66.683243px) rotate(0deg)}} #eXhVypdkZAH53_tr {animation: eXhVypdkZAH53_tr__tr 10000ms linear infinite normal forwards}@keyframes eXhVypdkZAH53_tr__tr { 0% {transform: translate(146.595070px,66.683243px) rotate(0deg)} 25% {transform: translate(146.595070px,66.683243px) rotate(-6.370000deg)} 50% {transform: translate(146.595070px,66.683243px) rotate(0deg)} 75% {transform: translate(146.595070px,66.683243px) rotate(-6.370000deg)} 100% {transform: translate(146.595070px,66.683243px) rotate(0deg)}} #eXhVypdkZAH60_tr {animation: eXhVypdkZAH60_tr__tr 10000ms linear infinite normal forwards}@keyframes eXhVypdkZAH60_tr__tr { 0% {transform: translate(134.248388px,64.966400px) rotate(0deg)} 25% {transform: translate(134.248388px,64.966400px) rotate(6.370000deg)} 50% {transform: translate(134.248388px,64.966400px) rotate(-6.370000deg)} 75% {transform: translate(134.248388px,64.966400px) rotate(6.370000deg)} 100% {transform: translate(134.248388px,64.966400px) rotate(0deg)}} #eXhVypdkZAH66_tr {animation: eXhVypdkZAH66_tr__tr 10000ms linear infinite normal forwards}@keyframes eXhVypdkZAH66_tr__tr { 0% {transform: translate(152.002278px,160.158000px) rotate(0deg)} 25% {transform: translate(152.002278px,160.158000px) rotate(7deg)} 50% {transform: translate(152.002278px,160.158000px) rotate(-7deg)} 75% {transform: translate(152.002278px,160.158000px) rotate(7deg)} 100% {transform: translate(152.002278px,160.158000px) rotate(0deg)}}]]></style><defs><linearGradient id="eXhVypdkZAH2-fill" x1="90.679100" y1="181.982000" x2="88.619700" y2="141.113000" spreadMethod="pad" gradientUnits="userSpaceOnUse"><stop id="eXhVypdkZAH2-fill-0" offset="0%" stop-color="rgb(38,128,193)"/><stop id="eXhVypdkZAH2-fill-1" offset="100%" stop-color="rgba(38,128,193,0)"/></linearGradient><linearGradient id="eXhVypdkZAH3-fill" x1="89.513600" y1="25.856700" x2="89.513600" y2="121.855000" spreadMethod="pad" gradientUnits="userSpaceOnUse"><stop id="eXhVypdkZAH3-fill-0" offset="0%" stop-color="rgb(38,128,193)"/><stop id="eXhVypdkZAH3-fill-1" offset="100%" stop-color="rgba(38,128,193,0)"/></linearGradient><linearGradient id="eXhVypdkZAH10-fill" x1="90.769100" y1="-367.147000" x2="90.769100" y2="100.367000" spreadMethod="pad" gradientUnits="userSpaceOnUse"><stop id="eXhVypdkZAH10-fill-0" offset="0%" stop-color="rgb(37,33,89)"/><stop id="eXhVypdkZAH10-fill-1" offset="100%" stop-color="rgb(48,48,131)"/></linearGradient><linearGradient id="eXhVypdkZAH16-fill" x1="90.768900" y1="85.505900" x2="90.768900" y2="70.661500" spreadMethod="pad" gradientUnits="userSpaceOnUse"><stop id="eXhVypdkZAH16-fill-0" offset="0%" stop-color="rgba(204,224,244,0)"/><stop id="eXhVypdkZAH16-fill-1" offset="14.460000%" stop-color="rgba(195,221,236,0.0581571)"/><stop id="eXhVypdkZAH16-fill-2" offset="38.500000%" stop-color="rgba(169,214,215,0.1549)"/><stop id="eXhVypdkZAH16-fill-3" offset="68.980000%" stop-color="rgba(128,202,181,0.2775)"/><stop id="eXhVypdkZAH16-fill-4" offset="99.440000%" stop-color="rgba(45,255,179,0.4)"/></linearGradient><linearGradient id="eXhVypdkZAH25-fill" x1="71.923600" y1="59.250600" x2="48.730000" y2="66.470800" spreadMethod="pad" gradientUnits="userSpaceOnUse"><stop id="eXhVypdkZAH25-fill-0" offset="0%" stop-color="rgb(248,185,185)"/><stop id="eXhVypdkZAH25-fill-1" offset="100%" stop-color="rgb(244,146,143)"/></linearGradient><linearGradient id="eXhVypdkZAH27-fill" x1="16.780300" y1="37.984400" x2="37.196000" y2="51.604300" spreadMethod="pad" gradientUnits="userSpaceOnUse"><stop id="eXhVypdkZAH27-fill-0" offset="0%" stop-color="rgb(37,33,89)"/><stop id="eXhVypdkZAH27-fill-1" offset="100%" stop-color="rgb(48,48,131)"/></linearGradient><linearGradient id="eXhVypdkZAH28-fill" x1="44.535700" y1="53.351600" x2="44.535700" y2="61.772800" spreadMethod="pad" gradientUnits="userSpaceOnUse"><stop id="eXhVypdkZAH28-fill-0" offset="0%" stop-color="rgb(248,185,185)"/><stop id="eXhVypdkZAH28-fill-1" offset="100%" stop-color="rgb(244,146,143)"/></linearGradient><linearGradient id="eXhVypdkZAH29-fill" x1="44.118900" y1="39.434100" x2="47.723100" y2="53.516100" spreadMethod="pad" gradientUnits="userSpaceOnUse"><stop id="eXhVypdkZAH29-fill-0" offset="0%" stop-color="rgb(248,185,185)"/><stop id="eXhVypdkZAH29-fill-1" offset="100%" stop-color="rgb(244,146,143)"/></linearGradient><linearGradient id="eXhVypdkZAH30-fill" x1="22.269100" y1="29.757200" x2="42.685200" y2="43.377400" spreadMethod="pad" gradientUnits="userSpaceOnUse"><stop id="eXhVypdkZAH30-fill-0" offset="0%" stop-color="rgb(37,33,89)"/><stop id="eXhVypdkZAH30-fill-1" offset="100%" stop-color="rgb(48,48,131)"/></linearGradient><linearGradient id="eXhVypdkZAH31-fill" x1="44.583100" y1="41.249000" x2="36.897600" y2="57.898400" spreadMethod="pad" gradientUnits="userSpaceOnUse"><stop id="eXhVypdkZAH31-fill-0" offset="0%" stop-color="rgb(254,187,186)"/><stop id="eXhVypdkZAH31-fill-1" offset="100%" stop-color="rgb(255,146,142)"/></linearGradient><linearGradient id="eXhVypdkZAH33-fill" x1="26.735100" y1="168.146000" x2="54.952200" y2="117.184000" spreadMethod="pad" gradientUnits="userSpaceOnUse"><stop id="eXhVypdkZAH33-fill-0" offset="0%" stop-color="rgb(254,187,186)"/><stop id="eXhVypdkZAH33-fill-1" offset="100%" stop-color="rgb(255,146,142)"/></linearGradient><linearGradient id="eXhVypdkZAH34-fill" x1="32.826600" y1="150.170000" x2="41.222900" y2="150.090000" spreadMethod="pad" gradientUnits="userSpaceOnUse"><stop id="eXhVypdkZAH34-fill-0" offset="0%" stop-color="rgb(9,0,93)"/><stop id="eXhVypdkZAH34-fill-1" offset="100%" stop-color="rgb(26,15,145)"/></linearGradient><linearGradient id="eXhVypdkZAH35-fill" x1="58.931400" y1="130.349000" x2="16.107600" y2="144.501000" spreadMethod="pad" gradientUnits="userSpaceOnUse"><stop id="eXhVypdkZAH35-fill-0" offset="0%" stop-color="rgb(248,185,185)"/><stop id="eXhVypdkZAH35-fill-1" offset="100%" stop-color="rgb(244,146,143)"/></linearGradient><linearGradient id="eXhVypdkZAH36-fill" x1="40.625700" y1="151.612000" x2="50.635000" y2="151.517000" spreadMethod="pad" gradientUnits="userSpaceOnUse"><stop id="eXhVypdkZAH36-fill-0" offset="0%" stop-color="rgb(9,0,93)"/><stop id="eXhVypdkZAH36-fill-1" offset="100%" stop-color="rgb(26,15,145)"/></linearGradient><linearGradient id="eXhVypdkZAH37-fill" x1="57.760200" y1="134.689000" x2="21.139900" y2="48.993100" spreadMethod="pad" gradientUnits="userSpaceOnUse"><stop id="eXhVypdkZAH37-fill-0" offset="0%" stop-color="rgb(86,0,227)"/><stop id="eXhVypdkZAH37-fill-1" offset="100%" stop-color="rgb(48,48,131)"/></linearGradient><linearGradient id="eXhVypdkZAH38-fill" x1="29.447500" y1="89.544400" x2="69.896700" y2="29.535000" spreadMethod="pad" gradientUnits="userSpaceOnUse"><stop id="eXhVypdkZAH38-fill-0" offset="0%" stop-color="rgb(248,185,185)"/><stop id="eXhVypdkZAH38-fill-1" offset="100%" stop-color="rgb(244,146,143)"/></linearGradient><linearGradient id="eXhVypdkZAH41-fill" x1="118.209000" y1="151.050000" x2="159.795000" y2="195.457000" spreadMethod="pad" gradientUnits="userSpaceOnUse"><stop id="eXhVypdkZAH41-fill-0" offset="0%" stop-color="rgb(9,0,93)"/><stop id="eXhVypdkZAH41-fill-1" offset="100%" stop-color="rgb(26,15,145)"/></linearGradient><linearGradient id="eXhVypdkZAH42-fill" x1="131.609000" y1="154.248000" x2="127.951000" y2="154.283000" spreadMethod="pad" gradientUnits="userSpaceOnUse"><stop id="eXhVypdkZAH42-fill-0" offset="0%" stop-color="rgb(248,185,185)"/><stop id="eXhVypdkZAH42-fill-1" offset="100%" stop-color="rgb(244,146,143)"/></linearGradient><linearGradient id="eXhVypdkZAH43-fill" x1="128.174000" y1="126.252000" x2="139.792000" y2="126.252000" spreadMethod="pad" gradientUnits="userSpaceOnUse"><stop id="eXhVypdkZAH43-fill-0" offset="0%" stop-color="rgb(2,0,57)"/><stop id="eXhVypdkZAH43-fill-1" offset="100%" stop-color="rgb(9,0,86)"/></linearGradient><linearGradient id="eXhVypdkZAH44-fill" x1="127.368000" y1="142.472000" x2="168.956000" y2="186.881000" spreadMethod="pad" gradientUnits="userSpaceOnUse"><stop id="eXhVypdkZAH44-fill-0" offset="0%" stop-color="rgb(9,0,93)"/><stop id="eXhVypdkZAH44-fill-1" offset="100%" stop-color="rgb(26,15,145)"/></linearGradient><linearGradient id="eXhVypdkZAH45-fill" x1="144.793000" y1="153.935000" x2="141.635000" y2="153.965000" spreadMethod="pad" gradientUnits="userSpaceOnUse"><stop id="eXhVypdkZAH45-fill-0" offset="0%" stop-color="rgb(248,185,185)"/><stop id="eXhVypdkZAH45-fill-1" offset="100%" stop-color="rgb(244,146,143)"/></linearGradient><linearGradient id="eXhVypdkZAH46-fill" x1="120.685000" y1="95.779300" x2="156.158000" y2="142.942000" spreadMethod="pad" gradientUnits="userSpaceOnUse"><stop id="eXhVypdkZAH46-fill-0" offset="0%" stop-color="rgb(86,0,227)"/><stop id="eXhVypdkZAH46-fill-1" offset="100%" stop-color="rgb(9,0,86)"/></linearGradient><linearGradient id="eXhVypdkZAH50-fill" x1="96.855200" y1="59.102900" x2="115.667000" y2="59.102900" spreadMethod="pad" gradientUnits="userSpaceOnUse"><stop id="eXhVypdkZAH50-fill-0" offset="0%" stop-color="rgb(248,185,185)"/><stop id="eXhVypdkZAH50-fill-1" offset="100%" stop-color="rgb(244,146,143)"/></linearGradient><linearGradient id="eXhVypdkZAH51-fill" x1="101.086000" y1="56.009000" x2="113.887000" y2="84.414900" spreadMethod="pad" gradientUnits="userSpaceOnUse"><stop id="eXhVypdkZAH51-fill-0" offset="0%" stop-color="rgb(254,187,186)"/><stop id="eXhVypdkZAH51-fill-1" offset="100%" stop-color="rgb(255,146,142)"/></linearGradient><linearGradient id="eXhVypdkZAH52-fill" x1="96.921900" y1="46.549900" x2="91.616600" y2="38.555100" spreadMethod="pad" gradientUnits="userSpaceOnUse"><stop id="eXhVypdkZAH52-fill-0" offset="0%" stop-color="rgb(254,187,186)"/><stop id="eXhVypdkZAH52-fill-1" offset="100%" stop-color="rgb(255,146,142)"/></linearGradient><linearGradient id="eXhVypdkZAH55-fill" x1="156.796000" y1="85.071200" x2="133.143000" y2="85.296100" spreadMethod="pad" gradientUnits="userSpaceOnUse"><stop id="eXhVypdkZAH55-fill-0" offset="0%" stop-color="rgb(254,187,186)"/><stop id="eXhVypdkZAH55-fill-1" offset="100%" stop-color="rgb(255,146,142)"/></linearGradient><linearGradient id="eXhVypdkZAH56-fill" x1="126.800000" y1="70.050200" x2="113.763000" y2="124.404000" spreadMethod="pad" gradientUnits="userSpaceOnUse"><stop id="eXhVypdkZAH56-fill-0" offset="0%" stop-color="rgb(9,0,93)"/><stop id="eXhVypdkZAH56-fill-1" offset="100%" stop-color="rgb(26,15,145)"/></linearGradient><linearGradient id="eXhVypdkZAH57-fill" x1="135.744000" y1="84.429100" x2="128.349000" y2="84.429100" spreadMethod="pad" gradientUnits="userSpaceOnUse"><stop id="eXhVypdkZAH57-fill-0" offset="0%" stop-color="rgb(254,187,186)"/><stop id="eXhVypdkZAH57-fill-1" offset="100%" stop-color="rgb(255,146,142)"/></linearGradient><linearGradient id="eXhVypdkZAH61-fill" x1="138.393000" y1="59.972100" x2="129.041000" y2="60.061000" spreadMethod="pad" gradientUnits="userSpaceOnUse"><stop id="eXhVypdkZAH61-fill-0" offset="0%" stop-color="rgb(254,187,186)"/><stop id="eXhVypdkZAH61-fill-1" offset="100%" stop-color="rgb(255,146,142)"/></linearGradient><linearGradient id="eXhVypdkZAH62-fill" x1="126.759000" y1="54.136300" x2="136.979000" y2="47.765600" spreadMethod="pad" gradientUnits="userSpaceOnUse"><stop id="eXhVypdkZAH62-fill-0" offset="0%" stop-color="rgb(254,187,186)"/><stop id="eXhVypdkZAH62-fill-1" offset="100%" stop-color="rgb(255,146,142)"/></linearGradient><linearGradient id="eXhVypdkZAH63-fill" x1="142.362000" y1="41.112500" x2="129.185000" y2="51.731700" spreadMethod="pad" gradientUnits="userSpaceOnUse"><stop id="eXhVypdkZAH63-fill-0" offset="0%" stop-color="rgb(37,33,89)"/><stop id="eXhVypdkZAH63-fill-1" offset="100%" stop-color="rgb(48,48,131)"/></linearGradient><linearGradient id="eXhVypdkZAH64-fill" x1="129.482000" y1="56.447800" x2="138.677000" y2="50.715900" spreadMethod="pad" gradientUnits="userSpaceOnUse"><stop id="eXhVypdkZAH64-fill-0" offset="0%" stop-color="rgb(254,187,186)"/><stop id="eXhVypdkZAH64-fill-1" offset="100%" stop-color="rgb(255,146,142)"/></linearGradient></defs><path id="eXhVypdkZAH2" d="M89.513400,167.422000C131.868000,167.422000,166.198000,163.601000,166.198000,158.896000C166.198000,154.191000,131.868000,150.370000,89.513400,150.370000C47.159100,150.370000,12.829000,154.191000,12.829000,158.896000C12.829000,163.601000,47.159100,167.422000,89.513400,167.422000Z" opacity="0.14" fill="url(#eXhVypdkZAH2-fill)" stroke="none" stroke-width="1"/><path id="eXhVypdkZAH3" d="M17.786100,33.833200C-9.078330,42.599500,-0.555935,79.055400,11.188100,96.648000C18.576500,107.724000,28.765600,116.258000,41.317200,120.938000C57.769200,127.068000,76.076900,127.806000,93.448100,126.879000C124.136000,125.239000,160.845000,117.383000,174.763000,86.336300C181.782000,70.675500,182.014000,39.190900,160.888000,34.305500C155.613000,33.086300,150.081000,33.661500,144.797000,34.829200C130.820000,37.920200,117.873000,41.672200,103.397000,42.058600C88.276300,42.462100,73.190300,40.641900,58.319000,38.031800C50.526900,36.658000,43.181500,33.421100,35.337800,32.296400C29.616100,31.463500,23.404700,31.995900,17.786100,33.833200Z" opacity="0.14" fill="url(#eXhVypdkZAH3-fill)" fill-opacity="0.15" stroke="none" stroke-width="1"/><rect id="eXhVypdkZAH4" width="146.736000" height="88.692800" rx="0" ry="0" transform="matrix(1 0 0 1 17.40080000000000 11.19190000000000)" fill="none" stroke="none" stroke-width="1"/><path id="eXhVypdkZAH5" d="M30.638400,90.869500L150.914000,90.869500C153.199000,90.869500,155.029000,88.714400,155.029000,86.181500L155.029000,20.293000L26.420200,20.293000L26.420200,86.181500C26.420200,88.714400,28.353200,90.869500,30.638400,90.869500Z" fill="rgb(255,255,255)" stroke="none" stroke-width="1"/><path id="eXhVypdkZAH6" d="M30.638500,90.826600L150.914000,90.826600C153.200000,90.826600,155.072000,88.714400,155.072000,86.181600L155.072000,20.335900L26.463300,20.335900L26.463300,86.181600C26.463300,88.714400,28.353300,90.826600,30.638500,90.826600Z" fill="none" stroke="rgb(153,153,153)" stroke-width="1" stroke-miterlimit="10"/><g id="eXhVypdkZAH7_tr" transform="translate(30.294800,157.764212) rotate(0)"><g id="eXhVypdkZAH7" transform="translate(-30.294800,-157.764212)"><path id="eXhVypdkZAH8" d="M37.777700,157.514000C37.777700,157.514000,38.808600,143.561000,34.263900,142.874000C29.745000,142.188000,31.815400,147.734000,29.538800,146.901000C27.262100,146.077000,27.365200,138.564000,22.159000,139.011000C16.952800,139.457000,23.679600,145.416000,20.535300,145.416000C17.390900,145.416000,21.669300,148.996000,21.669300,151.821000C21.669300,154.646000,13.361700,148.687000,12.365100,152.508000C10.947600,157.986000,20.844600,157.608000,20.844600,157.608000L37.777700,157.514000Z" fill="rgb(86,77,159)" stroke="none" stroke-width="1"/><path id="eXhVypdkZAH9" d="M15.853100,157.032000C19.263800,156.277000,26.471800,155.307000,29.367000,157.170000C29.470100,157.307000,29.573200,157.410000,29.676300,157.582000L30.294800,157.582000C29.848100,156.981000,29.401300,156.346000,28.954600,155.727000C30.019900,152.559000,29.916800,148.910000,29.745000,147.021000C29.745000,147.021000,29.745000,147.021000,29.710600,147.021000C29.676300,147.021000,29.641900,147.021000,29.607500,146.935000C29.607500,146.935000,29.607500,146.935000,29.573200,146.935000C29.573200,146.935000,29.573200,146.935000,29.538800,146.935000C29.538800,146.935000,29.538800,146.935000,29.504400,146.935000C29.504400,146.935000,29.504400,146.935000,29.470100,146.935000C29.470100,146.935000,29.470100,146.935000,29.435700,146.935000L29.401300,146.918000C29.367000,146.918000,29.367000,146.892000,29.332600,146.892000C29.504400,148.618000,29.676300,152.164000,28.714100,155.341000C28.129900,154.448000,27.580000,153.555000,27.021600,152.619000C28.155600,151.589000,28.052500,147.382000,27.812000,144.420000C27.777600,144.317000,27.743300,144.248000,27.708900,144.145000C27.708900,144.111000,27.708900,144.111000,27.674500,144.076000C27.537100,143.698000,27.365300,143.321000,27.193400,142.943000C27.571400,146.489000,27.674500,151.108000,26.781100,152.138000C23.920200,147.038000,21.815400,141.698000,20.990600,139.457000C20.818800,139.560000,20.681400,139.629000,20.578300,139.766000C21.299900,141.732000,22.958000,145.931000,25.200300,150.207000C26.403000,152.551000,27.648800,154.620000,28.817200,156.337000C25.475200,154.714000,17.064500,156.028000,14.719100,156.715000C14.994000,156.758000,15.406400,156.895000,15.853100,157.032000Z" fill="rgb(235,237,245)" stroke="none" stroke-width="1"/></g></g><path id="eXhVypdkZAH10" d="M155.029000,12.617200C155.029000,10.084300,153.200000,8.015140,150.914000,8.015140L30.638600,8.015140C28.353300,8.015140,26.506200,10.084300,26.506200,12.617200L26.506200,20.293000L155.029000,20.293000L155.029000,12.617200Z" fill="url(#eXhVypdkZAH10-fill)" stroke="none" stroke-width="1"/><path id="eXhVypdkZAH11" d="M36.600700,27.762700L36.600700,83.313800" fill="none" stroke="rgb(173,176,178)" stroke-width="1" stroke-miterlimit="10"/><path id="eXhVypdkZAH12" d="M58.250200,27.762700L58.250200,83.313800" fill="none" stroke="rgb(173,176,178)" stroke-width="1" stroke-miterlimit="10"/><path id="eXhVypdkZAH13" d="M79.899900,27.762700L79.899900,83.313800" fill="none" stroke="rgb(173,176,178)" stroke-width="1" stroke-miterlimit="10"/><path id="eXhVypdkZAH14" d="M101.636000,27.762700L101.636000,83.313800" fill="none" stroke="rgb(173,176,178)" stroke-width="1" stroke-miterlimit="10"/><path id="eXhVypdkZAH15" d="M123.285000,27.762700L123.285000,83.313800" fill="none" stroke="rgb(173,176,178)" stroke-width="1" stroke-miterlimit="10"/><path id="eXhVypdkZAH16" d="M144.316000,52.937000C140.012000,53.417800,134.634000,52.284500,131.335000,50.043600C128.612000,48.189000,126.859000,45.750600,124.995000,43.157600C123.723000,41.397500,122.417000,39.577300,120.785000,37.980300C117.082000,34.348500,111.644000,32.665600,106.584000,33.601500C98.336500,35.121200,93.456700,41.637900,88.731600,47.940000C85.853600,51.769300,82.889700,55.736100,79.221200,58.414900C74.977200,61.523000,70.157600,62.750800,65.999500,61.780600C63.783000,61.265400,61.841400,60.183600,59.779500,59.033100C58.473700,58.303300,57.124900,57.556300,55.707300,56.972400C52.313900,55.564300,48.241700,55.538600,44.272600,56.886600C41.892800,57.693700,39.616200,58.964400,37.219200,60.741700C36.867000,61.067900,36.463200,61.402800,35.947800,61.754800L35.947800,63.429100L35.947800,84.602000L145.571000,84.602000L145.571000,54.036000L145.571000,52.748100C145.235000,52.825400,144.806000,52.894100,144.316000,52.937000Z" fill="url(#eXhVypdkZAH16-fill)" stroke="none" stroke-width="1"/><path id="eXhVypdkZAH17" d="M145.021000,27.762700L145.021000,83.313800" fill="none" stroke="rgb(173,176,178)" stroke-width="1" stroke-miterlimit="10"/><path id="eXhVypdkZAH18" d="M36.617900,62.295600C40.621400,57.556100,47.167800,54.628300,53.181600,56.173800C57.666200,57.324300,61.334600,60.724300,65.844900,61.780400C70.587200,62.888000,75.656000,61.188000,79.582100,58.311700C88.912100,51.477300,92.795300,38.503900,104.230000,34.253900C109.754000,32.201800,116.146000,33.721500,120.330000,37.825600C124.247000,41.663500,126.232000,46.729200,130.983000,49.966100C135.029000,52.713600,140.235000,54.027300,144.926000,52.662100" fill="none" stroke="rgb(45,255,179)" stroke-width="3" stroke-miterlimit="10"/><g id="eXhVypdkZAH19_ts" transform="translate(66.950298,15.629227) scale(1,1)"><g id="eXhVypdkZAH19" transform="translate(-66.950298,-15.629227)"><path id="eXhVypdkZAH20" d="M81.770000,15.590600L81.770000,5.811190C81.770000,3.055100,79.459000,0.822754,76.701200,0.822754L57.122100,0.822754C54.364300,0.822754,52.130600,3.055100,52.130600,5.811190L52.130600,25.378600C52.130600,28.134600,54.364300,30.435700,57.122100,30.435700L74.355900,30.435700C73.522500,28.890200,73.101500,27.250300,73.101500,25.507300C73.101500,20.467400,76.873100,16.251700,81.770000,15.590600Z" fill="rgb(45,255,179)" stroke="none" stroke-width="1"/><path id="eXhVypdkZAH21" d="M64.974400,17.891000C65.077500,17.994100,65.103300,18.105700,65.103300,18.251600L65.103300,26.391100L68.711500,23.403200L68.711500,18.251600C68.711500,18.105700,68.745900,17.994100,68.840400,17.891000L74.725300,11.468800L59.089500,11.468800L64.974400,17.891000Z" fill="rgb(255,255,255)" stroke="none" stroke-width="1"/><path id="eXhVypdkZAH22" d="M75.498400,7.605470L58.316200,7.605470L58.316200,10.267100L75.498400,10.267100L75.498400,7.605470Z" fill="rgb(255,255,255)" stroke="none" stroke-width="1"/></g></g><g id="eXhVypdkZAH23_ts" transform="translate(83.058804,25.481750) scale(1,1)"><path id="eXhVypdkZAH23" d="M83.058800,34.591400C88.093200,34.591400,92.174000,30.513100,92.174000,25.481800C92.174000,20.450400,88.093200,16.372100,83.058800,16.372100C78.024400,16.372100,73.943600,20.450400,73.943600,25.473200C73.952200,30.513100,78.024400,34.582900,83.058800,34.591400ZM82.285600,20.836800L82.285600,20.149900C82.285600,19.746300,82.612000,19.420100,83.015800,19.420100C83.419600,19.420100,83.746100,19.746300,83.746100,20.149900L83.746100,20.725100C84.175600,20.742300,84.673900,20.802400,85.120700,20.922600C85.576000,21.051400,85.850900,21.523600,85.722000,21.978700C85.618900,22.347900,85.283900,22.605500,84.905900,22.614100C84.828600,22.614100,84.742600,22.605500,84.673900,22.579700C84.244400,22.450900,83.806200,22.390800,83.359500,22.390800C82.397300,22.390800,82.088000,22.802900,82.088000,23.223700C82.088000,23.713100,82.612100,24.022100,83.866400,24.494400C85.636100,25.121100,86.366400,25.936800,86.366400,27.267600C86.366400,28.607000,85.464300,29.714600,83.746100,30.006500L83.746100,30.813600C83.746100,31.217200,83.376700,31.543400,82.972900,31.543400C82.569100,31.543400,82.199700,31.217200,82.199700,30.813600L82.199700,30.126800C81.684200,30.092400,81.014100,29.980800,80.438500,29.783300C80.008900,29.645900,79.768400,29.190900,79.880100,28.753000L79.905800,28.684300C80.008900,28.315100,80.344000,28.066100,80.722000,28.074700C80.816500,28.074700,80.919600,28.091900,81.005500,28.126200C81.521000,28.306500,82.062200,28.401000,82.612000,28.401000C83.462600,28.401000,84.038200,28.057500,84.038200,27.482300C84.038200,26.907000,83.565700,26.563600,82.466000,26.194400C80.876600,25.662100,79.785600,24.923700,79.785600,23.481200C79.785600,22.176200,80.739200,21.145900,82.285600,20.836800Z" transform="translate(-83.058804,-25.481750)" fill="rgb(45,255,179)" stroke="none" stroke-width="1"/></g><g id="eXhVypdkZAH24_ts" transform="translate(47.923370,156.344772) scale(1,1)"><g id="eXhVypdkZAH24" transform="translate(-47.923370,-156.344772)"><g id="eXhVypdkZAH25_tr" transform="translate(51.214153,64.966400) rotate(0)"><path id="eXhVypdkZAH25" d="M70.612900,49.347300C70.458200,49.046800,70.011500,49.098300,69.925600,49.424600C69.590500,50.635200,68.774400,52.738800,67.073300,53.485700C66.987400,53.520100,66.910100,53.563000,66.824200,53.597400C66.746900,53.365500,66.746900,53.099400,66.927300,52.816000C67.459900,52.009000,66.497700,50.901400,66.497700,50.901400C66.497700,50.901400,66.437600,51.871600,65.690100,52.489800C65.054400,53.013500,64.745100,54.189800,65.183300,55.151400C66.102500,58.731800,67.485700,63.462600,62.107600,66.922700C56.729600,70.382900,49.152200,60.397400,49.152200,60.397400L52.923700,72.306100C52.923700,72.306100,58.722700,76.581900,65.475400,70.571800C72.228000,64.553000,67.752000,55.795400,67.752000,55.795400C67.752000,55.795400,72.898100,53.717600,70.612900,49.347300Z" transform="translate(-51.214153,-64.966400)" fill="url(#eXhVypdkZAH25-fill)" stroke="none" stroke-width="1"/></g><g id="eXhVypdkZAH26_tr" transform="translate(44.534600,60.368713) rotate(0)"><g id="eXhVypdkZAH26" transform="translate(-44.534600,-60.368713)"><path id="eXhVypdkZAH27" d="M48.224400,42.899700C48.224400,42.899700,49.779400,35.910700,41.772500,37.765300C41.772500,37.765300,37.889300,37.129900,37.691700,40.796100C37.691700,40.796100,35.183100,42.444600,37.021600,45.621400C37.021600,45.621400,29.573100,42.745100,26.334300,49.270400C23.086800,55.795800,26.067900,59.376100,29.195100,60.312000C29.195100,60.312000,26.660700,61.582700,27.863500,64.450400C29.066200,67.318100,35.131600,69.344400,38.722700,65.849900C38.722700,65.849900,48.928900,67.197900,48.722700,59.994300C48.722700,59.994300,53.465000,56.929100,48.482200,50.979100C43.490700,45.029000,48.224400,42.899700,48.224400,42.899700Z" transform="matrix(1 0 0 1 0 -1)" fill="url(#eXhVypdkZAH27-fill)" stroke="none" stroke-width="1"/><path id="eXhVypdkZAH28" d="M44.221000,50.343800C44.221000,50.343800,41.841300,57.066600,41.660900,60.037300C41.660900,60.037300,44.289800,61.230700,46.772600,59.213000C46.772600,59.213000,47.030300,52.498800,47.408300,51.288200L44.221000,50.343800Z" fill="url(#eXhVypdkZAH28-fill)" stroke="none" stroke-width="1"/><path id="eXhVypdkZAH29" d="M47.528600,41.173500C47.528600,41.173500,53.748500,49.879600,50.028600,52.403900C46.308600,54.928200,41.875600,48.746300,41.875600,48.746300C41.875600,48.746300,40.432300,43.981100,41.944300,42.366900C43.456400,40.744200,47.528600,41.173500,47.528600,41.173500Z" fill="url(#eXhVypdkZAH29-fill)" stroke="none" stroke-width="1"/><path id="eXhVypdkZAH30" d="M44.650500,39.087200C44.650500,39.087200,47.511300,39.765500,47.906500,41.053400C48.310300,42.349900,43.851500,43.543400,42.605800,43.603500L41.600700,48.823700C41.600700,48.823700,38.628100,43.912500,39.805100,41.079200C40.982100,38.254400,44.650500,39.087200,44.650500,39.087200Z" fill="url(#eXhVypdkZAH30-fill)" stroke="none" stroke-width="1"/><path id="eXhVypdkZAH31" d="M43.087000,48.102400C43.087000,48.102400,40.664300,45.294800,39.702100,47.123600C38.739900,48.952400,41.884200,50.326200,42.966700,49.424700L43.087000,48.102400Z" fill="url(#eXhVypdkZAH31-fill)" stroke="none" stroke-width="1"/></g></g><path id="eXhVypdkZAH32" d="M48.662500,59.083700C47.056000,58.602900,42.365200,57.710000,37.915000,61.822700C37.159000,62.518100,36.849700,63.582800,37.116100,64.570200C38.310200,68.974700,41.471800,81.982500,38.705400,87.614800C38.705400,87.614800,43.585200,92.989600,48.903100,88.653700C48.903100,88.653700,51.291400,78.247600,54.418600,73.688400C56.575000,70.537400,50.973500,61.848400,49.556000,59.753400C49.349800,59.435800,49.031900,59.195400,48.662500,59.083700Z" fill="rgb(45,255,179)" stroke="none" stroke-width="1"/><path id="eXhVypdkZAH33" d="M55.122900,110.497000C55.105700,110.969000,55.930500,114.712000,56.385800,116.713000C56.566200,117.520000,56.437400,118.361000,56.033600,119.074000L40.397700,145.373000C40.208700,145.690000,40.071300,146.034000,39.985400,146.394000C39.701900,147.631000,39.100500,150.653000,39.418400,153.409000L40.225900,155.092000L36.729300,154.302000L35.964700,144.909000L36.952700,144.308000C37.811800,143.784000,38.473300,143.012000,38.859900,142.084000C40.277500,138.650000,43.782600,129.918000,44.693300,125.659000C45.724200,120.817000,51.102300,116.893000,51.102300,116.893000L50.157300,114.661000L55.122900,110.497000Z" fill="url(#eXhVypdkZAH33-fill)" stroke="none" stroke-width="1"/><path id="eXhVypdkZAH34" d="M32.837600,151.066000C32.837600,151.066000,34.727700,148.069000,34.951100,146.910000C35.174400,145.742000,35.793000,143.690000,36.952800,144.308000C36.952800,144.308000,37.502600,149.967000,37.313600,152.182000C37.124600,154.397000,39.813600,154.320000,39.813600,154.320000C39.813600,154.320000,40.552500,154.423000,41.102300,154.964000C41.480300,155.341000,41.205400,155.985000,40.681300,156.020000C39.805100,156.080000,38.404700,156.088000,36.935600,155.805000C36.420100,155.702000,36.042100,155.273000,36.007800,154.749000L35.621200,148.232000L33.241400,151.237000L32.837600,151.066000Z" fill="url(#eXhVypdkZAH34-fill)" stroke="none" stroke-width="1"/><path id="eXhVypdkZAH35" d="M45.784700,114.687000C45.784700,114.687000,45.234800,138.212000,45.157500,141.552000C45.080200,144.892000,45.681600,152.302000,49.040700,154.508000L47.580200,155.590000C47.580200,155.590000,45.758900,154.045000,43.980500,151.065000C41.978800,147.717000,41.377400,147.107000,41.377400,147.107000L42.038900,145.751000C42.331000,145.158000,42.416900,144.480000,42.279500,143.836000C41.557800,140.333000,39.143700,128.682000,38.482200,126.175000C37.700400,123.213000,37.648900,119.255000,40.355100,115.949000C43.052700,112.626000,45.784700,114.687000,45.784700,114.687000Z" fill="url(#eXhVypdkZAH35-fill)" stroke="none" stroke-width="1"/><path id="eXhVypdkZAH36" d="M42.683200,156.655000C42.580100,156.655000,42.494200,156.577000,42.477000,156.474000C42.365400,155.693000,41.901400,152.542000,41.523400,151.735000C41.085300,150.799000,39.667700,146.875000,41.523400,146.541000C41.523400,146.541000,46.145400,153.280000,47.030300,154.191000C47.915200,155.101000,49.032100,154.508000,49.032100,154.508000C49.032100,154.508000,49.899800,154.766000,50.544100,155.599000C50.853400,155.994000,50.561300,156.577000,50.063000,156.577000L46.953000,156.603000C46.050900,156.612000,45.234800,156.062000,44.899700,155.221000C44.349900,153.856000,43.413500,151.847000,42.313800,150.962000L42.880800,156.414000C42.906600,156.543000,42.812100,156.655000,42.683200,156.655000Z" fill="url(#eXhVypdkZAH36-fill)" stroke="none" stroke-width="1"/><path id="eXhVypdkZAH37" d="M49.641900,86.121400C49.641900,86.121400,48.937400,88.353800,50.019900,92.028600L56.703800,115.339000C56.806900,115.709000,56.609300,116.086000,56.248500,116.215000C54.246800,116.928000,47.683100,118.954000,38.714000,118.336000C38.258700,118.302000,37.880700,117.984000,37.786200,117.546000C37.193400,114.884000,35.183100,105.818000,34.762100,103.954000C33.181300,96.853900,31.411500,89.195200,39.186500,84.567400C42.769000,86.112900,46.102400,87.014400,49.641900,86.121400Z" fill="url(#eXhVypdkZAH37-fill)" stroke="none" stroke-width="1"/><path id="eXhVypdkZAH38" d="M37.279300,62.707600C37.279300,62.707600,29.676200,69.018300,27.794700,77.647100C25.904700,86.276000,38.903100,87.194700,38.903100,87.194700C38.903100,87.194700,40.664200,85.228500,42.760500,85.924000C44.856700,86.628000,42.923700,82.489600,40.475200,82.498200C38.026800,82.506800,39.160800,84.447200,35.690000,82.876000C32.313700,81.347700,30.226000,76.616800,38.842900,69.456100C39.341200,69.044000,39.745000,68.511700,39.977000,67.910700C41.652200,63.695000,40.320600,60.930300,37.279300,62.707600Z" fill="url(#eXhVypdkZAH38-fill)" stroke="none" stroke-width="1"/></g></g><g id="eXhVypdkZAH39_ts" transform="translate(124.689602,161.269424) scale(1,1)"><g id="eXhVypdkZAH39" transform="translate(-124.689602,-161.269424)"><g id="eXhVypdkZAH40"><path id="eXhVypdkZAH41" d="M131.258000,154.259000C131.258000,154.259000,131.705000,156.672000,131.937000,159.059000C132.031000,159.995000,131.318000,160.810000,130.382000,160.853000C127.203000,161.016000,120.390000,161.343000,117.950000,161.257000C117.581000,161.240000,117.340000,160.870000,117.469000,160.527000C117.581000,160.244000,117.796000,160.003000,118.079000,159.874000L129.273000,154.603000L131.258000,154.259000Z" fill="url(#eXhVypdkZAH41-fill)" stroke="none" stroke-width="1"/><path id="eXhVypdkZAH42" d="M131.593000,152.843000L131.275000,155.736000C131.275000,155.736000,129.316000,156.672000,127.959000,155.650000L128.740000,152.422000L131.593000,152.843000Z" fill="url(#eXhVypdkZAH42-fill)" stroke="none" stroke-width="1"/><path id="eXhVypdkZAH43" d="M130.820000,98.570900C130.974000,99.326500,131.971000,136.186000,128.191000,152.740000C128.131000,153.006000,128.268000,153.289000,128.526000,153.392000C129.136000,153.633000,130.321000,153.976000,131.747000,154.010000C132.186000,154.019000,132.581000,153.736000,132.701000,153.306000C133.792000,149.460000,139.007000,130.210000,139.540000,111.853000C140.132000,91.350100,139.531000,111.158000,139.531000,111.158000L138.947000,98.493700L130.820000,98.570900Z" fill="url(#eXhVypdkZAH43-fill)" stroke="none" stroke-width="1"/><path id="eXhVypdkZAH44" d="M144.213000,155.401000C144.213000,155.401000,144.900000,156.612000,145.596000,159.840000C145.717000,160.424000,145.321000,160.991000,144.720000,161.051000C143.672000,161.163000,142.057000,161.308000,140.760000,161.317000C140.158000,161.317000,139.694000,160.802000,139.754000,160.209000C139.883000,159.025000,140.313000,157.084000,141.679000,155.556000L144.213000,155.401000Z" fill="url(#eXhVypdkZAH44-fill)" stroke="none" stroke-width="1"/><path id="eXhVypdkZAH45" d="M144.772000,151.675000L144.016000,156.046000C144.016000,156.046000,143.225000,156.638000,141.662000,156.226000L141.997000,151.529000L144.772000,151.675000Z" fill="url(#eXhVypdkZAH45-fill)" stroke="none" stroke-width="1"/><path id="eXhVypdkZAH46" d="M146.438000,99.550000C149.849000,118.971000,146.198000,147.631000,144.926000,153.247000C144.849000,153.590000,144.574000,153.856000,144.230000,153.916000C143.637000,154.019000,142.667000,154.105000,141.704000,153.839000C141.369000,153.745000,141.137000,153.453000,141.120000,153.109000C140.897000,148.584000,140.957000,120.774000,137.847000,109.810000C137.692000,109.252000,137.349000,108.771000,136.868000,108.445000L131,104.358000L130.493000,97.661100L146.438000,99.550000Z" fill="url(#eXhVypdkZAH46-fill)" stroke="none" stroke-width="1"/></g><g id="eXhVypdkZAH47"><path id="eXhVypdkZAH48" d="M125.536000,62.896200C135.201000,62.647200,145.889000,65.240200,145.889000,65.240200C148.930000,82.008500,146.739000,101.413000,146.739000,101.413000C139.273000,103.448000,130.802000,100.365000,130.802000,100.365000C129.488000,93.359200,123.500000,73.654400,123.500000,73.654400C118.775000,73.113500,114.866000,71.791300,111.653000,70.022600C114.067000,67.172000,115.184000,63.557300,115.665000,61.419400C119.093000,62.441200,122.555000,62.973500,125.536000,62.896200Z" fill="rgb(45,255,179)" stroke="none" stroke-width="1"/><g id="eXhVypdkZAH49_tr" transform="translate(114.909000,66.683243) rotate(0)"><g id="eXhVypdkZAH49" transform="translate(-114.909000,-66.683243)"><path id="eXhVypdkZAH50" d="M96.858900,48.944100C97.795300,47.785000,99.006700,48.317300,99.006700,48.317300C100.484000,54.310300,107.993000,59.101300,115.673000,61.410900C115.192000,63.548800,114.075000,67.154900,111.661000,70.014000C98.869200,62.990700,96.858900,48.944100,96.858900,48.944100Z" fill="url(#eXhVypdkZAH50-fill)" stroke="none" stroke-width="1"/><path id="eXhVypdkZAH51" d="M97.090800,49.227600C96.996300,49.545300,98.147600,50.017500,98.817700,48.712400C98.834900,48.094200,99.187100,45.441200,98.809100,44.943200C96.815900,42.281500,92.958500,38.950200,92.958500,38.950200C92.322700,39.594100,92.855400,40.212300,92.855400,40.212300L94.728300,42.127000C94.350300,42.831000,93.877700,43.423500,93.663000,44.273500C93.499700,44.917400,93.611400,45.604300,93.937900,46.179600C94.272900,46.763400,94.719700,47.519000,95.140700,48.111400C95.956800,49.236200,97.090800,49.227600,97.090800,49.227600Z" fill="url(#eXhVypdkZAH51-fill)" stroke="none" stroke-width="1"/></g></g><path id="eXhVypdkZAH52" d="M95.552900,43.372100L97.253900,44.788800L97.795200,46.205400L96.308900,47.888300C96.308900,47.888300,95.776300,45.063500,95.389600,44.462500C95.011600,43.852900,95.200600,43.552400,95.552900,43.372100Z" fill="url(#eXhVypdkZAH52-fill)" stroke="none" stroke-width="1"/><g id="eXhVypdkZAH53_tr" transform="translate(146.595070,66.683243) rotate(0)"><g id="eXhVypdkZAH53" transform="translate(-146.595070,-66.683243)"><path id="eXhVypdkZAH54" d="M142.271000,74.624700L145.888000,65.240200C145.888000,65.240200,154.978000,71.284700,156.533000,79.037900C154.832000,79.183800,151.730000,79.656000,148.706000,81.218700C148.002000,77.552500,142.271000,74.624700,142.271000,74.624700Z" fill="rgb(45,255,179)" stroke="none" stroke-width="1"/><path id="eXhVypdkZAH55" d="M134.471000,83.502800C134.471000,83.502800,144.660000,89.126600,148.036000,84.206800C148.741000,83.185100,148.895000,82.172000,148.715000,81.218900C151.739000,79.656300,154.840000,79.184000,156.541000,79.038100C157.014000,81.373500,156.799000,83.872000,155.442000,86.404800C149.557000,97.412000,133.156000,86.009900,133.156000,86.009900L134.471000,83.502800Z" fill="url(#eXhVypdkZAH55-fill)" stroke="none" stroke-width="1"/><path id="eXhVypdkZAH56" d="M136.550000,92.397300L131,73.027400C130.940000,72.804100,130.751000,72.649600,130.519000,72.623800C129.514000,72.503600,126.601000,72.177400,123.234000,71.894000C119.179000,71.550600,114.471000,71.275800,111.661000,71.507700C111.258000,71.542000,111.017000,71.962700,111.197000,72.323300C112.795000,75.560200,119.376000,88.713900,122.667000,93.024100C122.778000,93.170000,122.941000,93.247300,123.122000,93.247300L136,93.127100C136.387000,93.109900,136.653000,92.757900,136.550000,92.397300Z" fill="url(#eXhVypdkZAH56-fill)" stroke="none" stroke-width="1"/><path id="eXhVypdkZAH57" d="M135.210000,87.709600C135.210000,87.709600,135.983000,84.532800,135.674000,83.408000C135.364000,82.283300,134.754000,80.832200,132.744000,81.149900C130.734000,81.476200,128.354000,82.317600,128.354000,82.317600C128.354000,82.317600,128.474000,83.785800,130.003000,83.313600L129.050000,84.052000C129.050000,84.052000,129.187000,85.228200,130.476000,84.601500L129.591000,85.571700C129.591000,85.571700,130.149000,86.533300,131.094000,85.915100C132.057000,85.296900,132.512000,88.095900,135.210000,87.709600Z" fill="url(#eXhVypdkZAH57-fill)" stroke="none" stroke-width="1"/><path id="eXhVypdkZAH58" d="M121.979000,79.294900C122.881000,79.294900,123.611000,78.564500,123.611000,77.663600C123.611000,76.762600,122.881000,76.032200,121.979000,76.032200C121.078000,76.032200,120.347000,76.762600,120.347000,77.663600C120.347000,78.564500,121.078000,79.294900,121.979000,79.294900Z" fill="rgb(125,151,244)" stroke="none" stroke-width="1"/><path id="eXhVypdkZAH59" d="M130.373000,78.737100L130.785000,78.616800L129.651000,74.787500C129.471000,74.160700,128.964000,73.697100,128.337000,73.568300C124.754000,72.821300,115.321000,72.666800,114.917000,72.658200L114.909000,73.087500C115.003000,73.087500,124.703000,73.242000,128.242000,73.980400C128.715000,74.074900,129.093000,74.435500,129.230000,74.899100L130.373000,78.737100Z" fill="rgb(145,179,250)" stroke="none" stroke-width="1"/></g></g><g id="eXhVypdkZAH60_tr" transform="translate(134.248388,64.966400) rotate(0)"><g id="eXhVypdkZAH60" transform="translate(-134.248388,-64.966400)"><path id="eXhVypdkZAH61" d="M135.253000,54.962900L138.414000,63.823600C138.466000,63.969600,138.406000,64.132700,138.268000,64.210000C137.435000,64.682200,134.428000,66.047400,130.768000,63.780700C130.390000,63.540300,130.124000,63.153900,130.064000,62.707400L128.998000,55.023000L135.253000,54.962900Z" fill="url(#eXhVypdkZAH61-fill)" stroke="none" stroke-width="1"/><path id="eXhVypdkZAH62" d="M128.483000,46.797900C128.483000,46.797900,125.166000,53.185800,125.622000,55.744400C126.077000,58.303000,130.261000,58.079800,133.895000,55.959000L136.386000,49.073100L128.483000,46.797900Z" fill="url(#eXhVypdkZAH62-fill)" stroke="none" stroke-width="1"/><path id="eXhVypdkZAH63" d="M133.706000,52.593300C133.560000,52.533200,133.500000,52.344300,133.586000,52.207000C133.852000,51.794800,134.350000,50.944800,134.505000,50.206400C134.505000,50.206400,135.106000,49.811500,132.950000,49.322100C130.794000,48.824100,127.572000,48.060000,126.885000,46.231200C126.206000,44.453900,127.898000,39.946200,130.682000,43.500800C130.785000,43.638200,130.991000,43.638200,131.094000,43.500800C131.541000,42.908400,132.718000,41.680600,134.376000,42.401800C135.923000,43.080100,136.112000,44.204900,136.094000,44.780100C136.086000,44.951800,136.240000,45.080600,136.404000,45.046300C137.185000,44.891700,139.058000,44.745800,139.943000,46.660400C140.682000,48.231700,140.218000,49.133200,139.797000,49.579700C139.660000,49.725600,139.720000,49.957500,139.909000,50.009000C140.424000,50.163500,141.086000,50.592800,141.034000,51.794800C140.957000,53.451900,139.101000,53.331700,138.569000,53.254500C138.483000,53.245900,138.397000,53.271600,138.337000,53.340300C137.890000,53.846900,135.862000,55.993400,133.654000,56.276700C133.465000,56.302500,133.311000,56.113600,133.371000,55.933300L134.299000,53.142800C134.342000,53.014000,134.282000,52.868100,134.153000,52.816600L133.706000,52.593300Z" fill="url(#eXhVypdkZAH63-fill)" stroke="none" stroke-width="1"/><path id="eXhVypdkZAH64" d="M133.320000,52.988100C133.320000,52.988100,135.708000,51.313800,135.897000,52.704800C136.086000,54.087100,133.749000,54.739600,132.589000,54.233100L133.320000,52.988100Z" fill="url(#eXhVypdkZAH64-fill)" stroke="none" stroke-width="1"/></g></g><path id="eXhVypdkZAH65" d="M147.478000,83.176000C147.469000,83.176000,147.469000,83.176000,147.460000,83.176000C147.314000,83.167400,147.211000,83.038700,147.220000,82.901300C147.649000,76.891100,145.450000,72.134500,145.433000,72.091600C145.373000,71.962800,145.424000,71.808200,145.553000,71.748100C145.682000,71.688000,145.837000,71.739500,145.897000,71.868300C145.923000,71.919900,148.165000,76.788100,147.735000,82.935600C147.727000,83.064400,147.615000,83.176000,147.478000,83.176000Z" fill="rgb(158,232,198)" stroke="none" stroke-width="1"/></g></g></g><g id="eXhVypdkZAH66_tr" transform="translate(152.002278,160.158000) rotate(0)"><g id="eXhVypdkZAH66" transform="translate(-152.002278,-160.158000)"><path id="eXhVypdkZAH67" d="M146.765000,159.780000C146.765000,159.780000,143.500000,150.594000,145.339000,148.945000C147.177000,147.297000,148.277000,149.142000,149.016000,148.473000C149.754000,147.794000,146.713000,142.840000,148.835000,140.926000C150.966000,139.037000,151.816000,142.995000,153.019000,141.905000C154.248000,140.806000,154.359000,132.134000,157.461000,133.044000C160.562000,133.954000,155.794000,142.042000,156.971000,142.119000C158.148000,142.196000,159.497000,139.801000,160.545000,142.231000C161.593000,144.661000,153.887000,149.769000,157.203000,149.958000C160.553000,150.138000,159.686000,152.388000,158.758000,154.148000C157.830000,155.900000,152.916000,160.158000,152.916000,160.158000L146.765000,159.780000Z" fill="rgb(45,255,179)" stroke="none" stroke-width="1"/><path id="eXhVypdkZAH68" d="M160.493000,142.119000C159.033000,143.888000,156.387000,146.824000,154.282000,147.872000C155.889000,141.278000,157.186000,134.941000,157.555000,133.078000C157.521000,133.052000,157.495000,133.061000,157.461000,133.035000C157.426000,133.010000,157.401000,133.018000,157.332000,133.001000C157.057000,134.392000,156.241000,138.367000,155.175000,143.072000C154.823000,141.527000,154.428000,139.689000,154.136000,138.307000C154.110000,138.487000,154.050000,138.651000,154.024000,138.839000C154.411000,140.737000,154.935000,143.055000,155.055000,143.570000C154.969000,143.914000,154.883000,144.257000,154.806000,144.635000L153.492000,140.943000C153.457000,141.072000,153.414000,141.166000,153.371000,141.261000L154.703000,145.013000C154.273000,146.884000,153.775000,148.825000,153.294000,150.765000C151.559000,149.151000,150.133000,143.416000,149.488000,140.428000C149.428000,140.436000,149.351000,140.479000,149.265000,140.531000C149.926000,143.605000,151.370000,149.426000,153.225000,151.014000C152.461000,153.959000,151.627000,156.861000,150.803000,159.343000C149.127000,158.046000,147.057000,151.444000,146.146000,148.327000C146.095000,148.370000,146.009000,148.378000,145.923000,148.430000C146.851000,151.632000,148.930000,158.321000,150.717000,159.566000C150.682000,159.695000,150.614000,159.823000,150.579000,159.952000L150.820000,159.969000C151.146000,158.982000,151.507000,157.900000,151.851000,156.698000C153.423000,156.020000,157.444000,152.912000,159.531000,151.263000C159.514000,151.177000,159.497000,151.092000,159.462000,151.040000C157.486000,152.603000,153.595000,155.625000,151.954000,156.441000C152.633000,154.140000,153.380000,151.426000,154.119000,148.335000C154.136000,148.275000,154.153000,148.181000,154.170000,148.121000C156.318000,147.151000,159.016000,144.171000,160.528000,142.342000C160.519000,142.282000,160.511000,142.257000,160.476000,142.205000C160.502000,142.171000,160.493000,142.145000,160.493000,142.119000Z" fill="rgb(95,187,23)" stroke="none" stroke-width="1"/></g></g></svg>