<svg id="epzQNU61DAc1" xmlns="http://www.w3.org/2000/svg" xmlns:xlink="http://www.w3.org/1999/xlink" viewBox="0 0 120 163" shape-rendering="geometricPrecision" text-rendering="geometricPrecision"><style><![CDATA[#epzQNU61DAc16_ts {animation: epzQNU61DAc16_ts__ts 12000ms linear infinite normal forwards}@keyframes epzQNU61DAc16_ts__ts { 0% {transform: translate(80.639250px,34.271200px) scale(1,1)} 50% {transform: translate(80.639250px,34.271200px) scale(1,1)} 51.666667% {transform: translate(80.639250px,34.271200px) scale(1.107534,0.887500)} 53.333333% {transform: translate(80.639250px,34.271200px) scale(0.776906,0.956043)} 55% {transform: translate(80.639250px,34.271200px) scale(1,1)} 91.666667% {transform: translate(80.639250px,34.271200px) scale(1,1)} 93.333333% {transform: translate(80.639250px,34.271200px) scale(1.107534,0.887500)} 95% {transform: translate(80.639250px,34.271200px) scale(0.776906,0.956043)} 96.666667% {transform: translate(80.639250px,34.271200px) scale(1,1)} 100% {transform: translate(80.639250px,34.271200px) scale(1,1)}} #epzQNU61DAc20_ts {animation: epzQNU61DAc20_ts__ts 12000ms linear infinite normal forwards}@keyframes epzQNU61DAc20_ts__ts { 0% {transform: translate(97.732950px,38.396143px) scale(1,1)} 41.666667% {transform: translate(97.732950px,38.396143px) scale(1,1)} 43.333333% {transform: translate(97.732950px,38.396143px) scale(1.089114,0.873137)} 45% {transform: translate(97.732950px,38.396143px) scale(0.796063,0.970150)} 46.666667% {transform: translate(97.732950px,38.396143px) scale(1,1)} 83.333333% {transform: translate(97.732950px,38.396143px) scale(1,1)} 85% {transform: translate(97.732950px,38.396143px) scale(1.089114,0.873137)} 86.666667% {transform: translate(97.732950px,38.396143px) scale(0.796063,0.970150)} 88.333333% {transform: translate(97.732950px,38.396143px) scale(1,1)} 100% {transform: translate(97.732950px,38.396143px) scale(1,1)}} #epzQNU61DAc23_ts {animation: epzQNU61DAc23_ts__ts 12000ms linear infinite normal forwards}@keyframes epzQNU61DAc23_ts__ts { 0% {transform: translate(131.963963px,162.946182px) scale(1,1)} 20.833333% {transform: translate(131.963963px,162.946182px) scale(1,0.970670)} 41.666667% {transform: translate(131.963963px,162.946182px) scale(1,1)} 62.500000% {transform: translate(131.963963px,162.946182px) scale(1,0.970670)} 83.333333% {transform: translate(131.963963px,162.946182px) scale(1,1)} 100% {transform: translate(131.963963px,162.946182px) scale(1,1)}} #epzQNU61DAc33_tr {animation: epzQNU61DAc33_tr__tr 12000ms linear infinite normal forwards}@keyframes epzQNU61DAc33_tr__tr { 0% {transform: translate(121.182704px,62.767208px) rotate(0deg)} 20.833333% {transform: translate(121.182704px,62.767208px) rotate(2.370000deg)} 41.666667% {transform: translate(121.182704px,62.767208px) rotate(0deg)} 62.500000% {transform: translate(121.182704px,62.767208px) rotate(2.370000deg)} 83.333333% {transform: translate(121.182704px,62.767208px) rotate(0deg)} 100% {transform: translate(121.182704px,62.767208px) rotate(0deg)}} #epzQNU61DAc37_tr {animation: epzQNU61DAc37_tr__tr 12000ms linear infinite normal forwards}@keyframes epzQNU61DAc37_tr__tr { 0% {transform: translate(155.148048px,61.314800px) rotate(0deg)} 20.833333% {transform: translate(155.148048px,61.314800px) rotate(-6.370000deg)} 41.666667% {transform: translate(155.148048px,61.314800px) rotate(0deg)} 62.500000% {transform: translate(155.148048px,61.314800px) rotate(-6.370000deg)} 83.333333% {transform: translate(155.148048px,61.314800px) rotate(0deg)} 100% {transform: translate(155.148048px,61.314800px) rotate(0deg)}} #epzQNU61DAc45_tr {animation: epzQNU61DAc45_tr__tr 12000ms linear infinite normal forwards}@keyframes epzQNU61DAc45_tr__tr { 0% {transform: translate(141.698265px,60.930500px) rotate(0deg)} 20.833333% {transform: translate(141.698265px,60.930500px) rotate(4.370000deg)} 41.666667% {transform: translate(141.698265px,60.930500px) rotate(-4.370000deg)} 62.500000% {transform: translate(141.698265px,60.930500px) rotate(4.370000deg)} 83.333333% {transform: translate(141.698265px,60.930500px) rotate(0deg)} 100% {transform: translate(141.698265px,60.930500px) rotate(0deg)}} #epzQNU61DAc50_tk {animation: epzQNU61DAc50_tk__tk 12000ms linear infinite normal forwards}@keyframes epzQNU61DAc50_tk__tk { 0% {transform: translate(159.425255px,161.570000px) skewX(0deg) skewY(0deg)} 20.833333% {transform: translate(159.425255px,161.570000px) skewX(-7deg) skewY(0deg)} 41.666667% {transform: translate(159.425255px,161.570000px) skewX(7deg) skewY(0deg)} 62.500000% {transform: translate(159.425255px,161.570000px) skewX(-7deg) skewY(0deg)} 83.333333% {transform: translate(159.425255px,161.570000px) skewX(0deg) skewY(0deg)} 100% {transform: translate(159.425255px,161.570000px) skewX(0deg) skewY(0deg)}}]]></style><defs><linearGradient id="epzQNU61DAc3-fill" x1="94.736100" y1="19.633100" x2="94.736100" y2="121.232000" spreadMethod="pad" gradientUnits="userSpaceOnUse"><stop id="epzQNU61DAc3-fill-0" offset="0%" stop-color="rgb(38,128,193)"/><stop id="epzQNU61DAc3-fill-1" offset="100%" stop-color="rgba(38,128,193,0)"/></linearGradient><linearGradient id="epzQNU61DAc7-fill" x1="107.208000" y1="-299.877000" x2="107.208000" y2="74.755000" spreadMethod="pad" gradientUnits="userSpaceOnUse"><stop id="epzQNU61DAc7-fill-0" offset="0%" stop-color="rgb(37,33,89)"/><stop id="epzQNU61DAc7-fill-1" offset="100%" stop-color="rgb(48,48,131)"/></linearGradient><linearGradient id="epzQNU61DAc13-fill" x1="109.008000" y1="66.671200" x2="109.008000" y2="54.507300" spreadMethod="pad" gradientUnits="userSpaceOnUse"><stop id="epzQNU61DAc13-fill-0" offset="0%" stop-color="rgba(45,255,179,0)"/><stop id="epzQNU61DAc13-fill-1" offset="99.440000%" stop-color="rgba(45,255,179,0.4)"/></linearGradient><linearGradient id="epzQNU61DAc25-fill" x1="125.106000" y1="152.131000" x2="169.118000" y2="199.129000" spreadMethod="pad" gradientUnits="userSpaceOnUse"><stop id="epzQNU61DAc25-fill-0" offset="0%" stop-color="rgb(9,0,93)"/><stop id="epzQNU61DAc25-fill-1" offset="100%" stop-color="rgb(26,15,145)"/></linearGradient><linearGradient id="epzQNU61DAc26-fill" x1="139.289000" y1="155.516000" x2="135.417000" y2="155.553000" spreadMethod="pad" gradientUnits="userSpaceOnUse"><stop id="epzQNU61DAc26-fill-0" offset="0%" stop-color="rgb(248,185,185)"/><stop id="epzQNU61DAc26-fill-1" offset="100%" stop-color="rgb(244,146,143)"/></linearGradient><linearGradient id="epzQNU61DAc27-fill" x1="135.653000" y1="125.887000" x2="147.949000" y2="125.887000" spreadMethod="pad" gradientUnits="userSpaceOnUse"><stop id="epzQNU61DAc27-fill-0" offset="0%" stop-color="rgb(2,0,57)"/><stop id="epzQNU61DAc27-fill-1" offset="100%" stop-color="rgb(9,0,86)"/></linearGradient><linearGradient id="epzQNU61DAc28-fill" x1="134.799000" y1="143.052000" x2="178.813000" y2="190.052000" spreadMethod="pad" gradientUnits="userSpaceOnUse"><stop id="epzQNU61DAc28-fill-0" offset="0%" stop-color="rgb(9,0,93)"/><stop id="epzQNU61DAc28-fill-1" offset="100%" stop-color="rgb(26,15,145)"/></linearGradient><linearGradient id="epzQNU61DAc29-fill" x1="153.241000" y1="155.184000" x2="149.898000" y2="155.216000" spreadMethod="pad" gradientUnits="userSpaceOnUse"><stop id="epzQNU61DAc29-fill-0" offset="0%" stop-color="rgb(248,185,185)"/><stop id="epzQNU61DAc29-fill-1" offset="100%" stop-color="rgb(244,146,143)"/></linearGradient><linearGradient id="epzQNU61DAc30-fill" x1="127.727000" y1="93.635500" x2="165.268000" y2="143.550000" spreadMethod="pad" gradientUnits="userSpaceOnUse"><stop id="epzQNU61DAc30-fill-0" offset="0%" stop-color="rgb(86,0,227)"/><stop id="epzQNU61DAc30-fill-1" offset="100%" stop-color="rgb(9,0,86)"/></linearGradient><linearGradient id="epzQNU61DAc34-fill" x1="102.506000" y1="54.819500" x2="122.415000" y2="54.819500" spreadMethod="pad" gradientUnits="userSpaceOnUse"><stop id="epzQNU61DAc34-fill-0" offset="0%" stop-color="rgb(248,185,185)"/><stop id="epzQNU61DAc34-fill-1" offset="100%" stop-color="rgb(244,146,143)"/></linearGradient><linearGradient id="epzQNU61DAc35-fill" x1="106.984000" y1="51.545200" x2="120.531000" y2="81.608400" spreadMethod="pad" gradientUnits="userSpaceOnUse"><stop id="epzQNU61DAc35-fill-0" offset="0%" stop-color="rgb(254,187,186)"/><stop id="epzQNU61DAc35-fill-1" offset="100%" stop-color="rgb(255,146,142)"/></linearGradient><linearGradient id="epzQNU61DAc36-fill" x1="102.577000" y1="41.533900" x2="96.961800" y2="33.072600" spreadMethod="pad" gradientUnits="userSpaceOnUse"><stop id="epzQNU61DAc36-fill-0" offset="0%" stop-color="rgb(254,187,186)"/><stop id="epzQNU61DAc36-fill-1" offset="100%" stop-color="rgb(255,146,142)"/></linearGradient><linearGradient id="epzQNU61DAc39-fill" x1="165.944000" y1="82.302600" x2="140.910000" y2="82.540600" spreadMethod="pad" gradientUnits="userSpaceOnUse"><stop id="epzQNU61DAc39-fill-0" offset="0%" stop-color="rgb(254,187,186)"/><stop id="epzQNU61DAc39-fill-1" offset="100%" stop-color="rgb(255,146,142)"/></linearGradient><linearGradient id="epzQNU61DAc40-fill" x1="134.199000" y1="66.405900" x2="120.401000" y2="123.931000" spreadMethod="pad" gradientUnits="userSpaceOnUse"><stop id="epzQNU61DAc40-fill-0" offset="0%" stop-color="rgb(9,0,93)"/><stop id="epzQNU61DAc40-fill-1" offset="100%" stop-color="rgb(26,15,145)"/></linearGradient><linearGradient id="epzQNU61DAc41-fill" x1="143.664000" y1="81.623300" x2="135.837000" y2="81.623300" spreadMethod="pad" gradientUnits="userSpaceOnUse"><stop id="epzQNU61DAc41-fill-0" offset="0%" stop-color="rgb(254,187,186)"/><stop id="epzQNU61DAc41-fill-1" offset="100%" stop-color="rgb(255,146,142)"/></linearGradient><linearGradient id="epzQNU61DAc46-fill" x1="146.467000" y1="55.739400" x2="136.569000" y2="55.833500" spreadMethod="pad" gradientUnits="userSpaceOnUse"><stop id="epzQNU61DAc46-fill-0" offset="0%" stop-color="rgb(254,187,186)"/><stop id="epzQNU61DAc46-fill-1" offset="100%" stop-color="rgb(255,146,142)"/></linearGradient><linearGradient id="epzQNU61DAc47-fill" x1="134.155000" y1="49.563400" x2="144.970000" y2="42.820900" spreadMethod="pad" gradientUnits="userSpaceOnUse"><stop id="epzQNU61DAc47-fill-0" offset="0%" stop-color="rgb(254,187,186)"/><stop id="epzQNU61DAc47-fill-1" offset="100%" stop-color="rgb(255,146,142)"/></linearGradient><linearGradient id="epzQNU61DAc48-fill" x1="150.668000" y1="35.779500" x2="136.721000" y2="47.018200" spreadMethod="pad" gradientUnits="userSpaceOnUse"><stop id="epzQNU61DAc48-fill-0" offset="0%" stop-color="rgb(37,33,89)"/><stop id="epzQNU61DAc48-fill-1" offset="100%" stop-color="rgb(48,48,131)"/></linearGradient><linearGradient id="epzQNU61DAc49-fill" x1="137.037000" y1="52.009700" x2="146.768000" y2="45.943400" spreadMethod="pad" gradientUnits="userSpaceOnUse"><stop id="epzQNU61DAc49-fill-0" offset="0%" stop-color="rgb(254,187,186)"/><stop id="epzQNU61DAc49-fill-1" offset="100%" stop-color="rgb(255,146,142)"/></linearGradient></defs><g id="epzQNU61DAc2" transform="matrix(1 0 0 1 -51.73685455499999 -0.37386280000000)"><path id="epzQNU61DAc3" d="M18.823800,28.075000C-9.607980,37.352700,-0.588370,75.935600,11.840900,94.554600C19.660300,106.277000,30.443800,115.309000,43.727800,120.261000C61.139600,126.749000,80.515400,127.531000,98.900100,126.549000C131.378000,124.814000,170.230000,116.499000,184.959000,83.641200C192.388000,67.066800,192.633000,33.745200,170.275000,28.574800C164.692000,27.284400,158.837000,27.893300,153.245000,29.129100C138.452000,32.400400,124.750000,36.371300,109.429000,36.780200C93.426600,37.207300,77.460400,35.280900,61.721500,32.518500C53.474800,31.064600,45.700800,27.638800,37.399500,26.448500C31.344000,25.567000,24.770200,26.130400,18.823800,28.075000Z" opacity="0.14" fill="url(#epzQNU61DAc3-fill)" fill-opacity="0.15" stroke="none" stroke-width="1"/><rect id="epzQNU61DAc4" width="117.584000" height="71.072000" rx="0" ry="0" transform="matrix(1 0 0 1 48.41600000000000 3.29651000000000)" fill="none" stroke="none" stroke-width="1"/><path id="epzQNU61DAc5" d="M59.023800,67.144400L155.404000,67.144400C157.235000,67.144400,158.702000,65.417500,158.702000,63.387800L158.702000,10.589500L55.643600,10.589500L55.643600,63.387800C55.643600,65.417500,57.192500,67.144400,59.023800,67.144400Z" fill="rgb(255,255,255)" stroke="none" stroke-width="1"/><path id="epzQNU61DAc6" d="M59.024500,67.110500L155.405000,67.110500C157.236000,67.110500,158.737000,65.418000,158.737000,63.388300L158.737000,10.624400L55.678700,10.624400L55.678700,63.388300C55.678700,65.418000,57.193300,67.110500,59.024500,67.110500Z" fill="none" stroke="rgb(153,153,153)" stroke-width="1" stroke-miterlimit="10"/><path id="epzQNU61DAc7" d="M158.702000,4.438500C158.702000,2.408850,157.236000,0.750732,155.405000,0.750732L59.024200,0.750732C57.193000,0.750732,55.712900,2.408850,55.712900,4.438500L55.712900,10.589400L158.702000,10.589400L158.702000,4.438500Z" fill="url(#epzQNU61DAc7-fill)" stroke="none" stroke-width="1"/><path id="epzQNU61DAc8" d="M64,16.930500L64,60.930500" fill="none" stroke="rgb(173,176,178)" stroke-width="1" stroke-miterlimit="10"/><path id="epzQNU61DAc9" d="M81,16.930500L81,60.930500" fill="none" stroke="rgb(173,176,178)" stroke-width="1" stroke-miterlimit="10"/><path id="epzQNU61DAc10" d="M98,16.930500L98,60.930500" fill="none" stroke="rgb(173,176,178)" stroke-width="1" stroke-miterlimit="10"/><path id="epzQNU61DAc11" d="M116,16.930500L116,60.930500" fill="none" stroke="rgb(173,176,178)" stroke-width="1" stroke-miterlimit="10"/><path id="epzQNU61DAc12" d="M133,16.930500L133,60.930500" fill="none" stroke="rgb(173,176,178)" stroke-width="1" stroke-miterlimit="10"/><path id="epzQNU61DAc13" d="M152.970000,39.983400C149.437000,40.377400,145.021000,39.448700,142.313000,37.612400C140.077000,36.092700,138.638000,34.094600,137.107000,31.969900C136.063000,30.527600,134.991000,29.036100,133.651000,27.727500C130.611000,24.751400,126.147000,23.372500,121.992000,24.139300C115.221000,25.384600,111.215000,30.724600,107.335000,35.888700C104.973000,39.026600,102.539000,42.277000,99.527400,44.472100C96.043100,47.019000,92.086200,48.025100,88.672400,47.230000C86.852700,46.807900,85.258600,45.921400,83.565800,44.978700C82.493700,44.380600,81.386400,43.768500,80.222600,43.290100C77.436500,42.136300,74.093300,42.115200,70.834600,43.219800C68.880900,43.881100,67.011800,44.922400,65.043900,46.378700C64.754700,46.646100,64.423200,46.920500,64,47.208900L64,48.580900L64,65.930500L154,65.930500L154,40.884000L154,39.828600C153.725000,39.891900,153.372000,39.948200,152.970000,39.983400Z" fill="url(#epzQNU61DAc13-fill)" stroke="none" stroke-width="1"/><path id="epzQNU61DAc14" d="M151,16.930500L151,60.930500" fill="none" stroke="rgb(173,176,178)" stroke-width="1" stroke-miterlimit="10"/><path id="epzQNU61DAc15" d="M65,46.930500C68.289800,43.165300,73.669200,40.839300,78.610900,42.067100C82.295900,42.981100,85.310400,45.682300,89.016700,46.521300C92.913500,47.401200,97.078700,46.050600,100.305000,43.765500C107.972000,38.335900,111.163000,28.029200,120.559000,24.652800C125.098000,23.022600,130.350000,24.229900,133.788000,27.490400C137.008000,30.539400,138.638000,34.563900,142.542000,37.135400C145.867000,39.318200,150.145000,40.361800,154,39.277300" fill="none" stroke="rgb(45,255,179)" stroke-width="3" stroke-miterlimit="10"/><g id="epzQNU61DAc16_ts" transform="translate(80.639250,34.271200) scale(1,1)"><g id="epzQNU61DAc16" transform="translate(-80.639250,-34.271200)"><path id="epzQNU61DAc17" d="M96.368600,18.560000L96.368600,8.210010C96.368600,5.293130,93.922800,2.930540,91.004100,2.930540L70.282700,2.930540C67.364000,2.930540,65,5.293130,65,8.210010L65,28.919000C65,31.835900,67.364000,34.271200,70.282700,34.271200L88.521900,34.271200C87.640000,32.635500,87.194400,30.899900,87.194400,29.055300C87.194400,23.721300,91.186000,19.259700,96.368600,18.560000Z" fill="rgb(45,255,179)" stroke="none" stroke-width="1"/><path id="epzQNU61DAc18" d="M78.593500,20.995200C78.702600,21.104300,78.729900,21.222400,78.729900,21.376900L78.729900,29.991200L82.548700,26.829000L82.548700,21.376900C82.548700,21.222400,82.585000,21.104300,82.685100,20.995200L88.913300,14.198200L72.365200,14.198200L78.593500,20.995200Z" fill="rgb(86,0,227)" stroke="none" stroke-width="1"/><path id="epzQNU61DAc19" d="M89.731600,10.109300L71.546900,10.109300L71.546900,12.926200L89.731600,12.926200L89.731600,10.109300Z" fill="rgb(86,0,227)" stroke="none" stroke-width="1"/></g></g><g id="epzQNU61DAc20_ts" transform="translate(97.732950,38.396143) scale(1,1)"><g id="epzQNU61DAc20" transform="translate(-97.732950,-38.396143)"><circle id="epzQNU61DAc21" r="7.330550" transform="matrix(1 0 0 1 97.79440000000000 29.16610000000000)" fill="rgb(86,0,227)" stroke="none" stroke-width="1"/><path id="epzQNU61DAc22" d="M97.732900,38.669300C103.061000,38.669300,107.380000,34.353000,107.380000,29.028100C107.380000,23.703200,103.061000,19.387000,97.732900,19.387000C92.404800,19.387000,88.085900,23.703200,88.085900,29.019000C88.095000,34.353000,92.404800,38.660200,97.732900,38.669300ZM96.914600,24.112100L96.914600,23.385200C96.914600,22.958100,97.260100,22.612800,97.687500,22.612800C98.114800,22.612800,98.460300,22.958100,98.460300,23.385200L98.460300,23.994000C98.914900,24.012200,99.442300,24.075800,99.915100,24.203000C100.397000,24.339300,100.688000,24.839100,100.552000,25.320700C100.442000,25.711400,100.088000,25.984000,99.687800,25.993100C99.606000,25.993100,99.515000,25.984000,99.442300,25.956800C98.987700,25.820500,98.524000,25.756900,98.051200,25.756900C97.032800,25.756900,96.705500,26.193000,96.705500,26.638300C96.705500,27.156200,97.260100,27.483400,98.587600,27.983100C100.461000,28.646500,101.233000,29.509700,101.233000,30.918200C101.233000,32.335800,100.279000,33.508000,98.460300,33.816900L98.460300,34.671100C98.460300,35.098200,98.069300,35.443500,97.642000,35.443500C97.214700,35.443500,96.823700,35.098200,96.823700,34.671100L96.823700,33.944100C96.278100,33.907800,95.568900,33.789700,94.959800,33.580700C94.505100,33.435300,94.250600,32.953700,94.368800,32.490200L94.396000,32.417500C94.505100,32.026800,94.859700,31.763300,95.259800,31.772400C95.359800,31.772400,95.468900,31.790500,95.559900,31.826900C96.105400,32.017700,96.678200,32.117700,97.260100,32.117700C98.160300,32.117700,98.769500,31.754200,98.769500,31.145400C98.769500,30.536600,98.269400,30.173100,97.105600,29.782300C95.423500,29.219000,94.268700,28.437500,94.268700,26.910900C94.268700,25.529700,95.278000,24.439300,96.914600,24.112100Z" fill="rgb(45,255,179)" stroke="none" stroke-width="1"/></g></g><g id="epzQNU61DAc23_ts" transform="translate(131.963963,162.946182) scale(1,1)"><g id="epzQNU61DAc23" transform="translate(-131.963963,-162.946182)"><g id="epzQNU61DAc24"><path id="epzQNU61DAc25" d="M138.916000,155.528000C138.916000,155.528000,139.388000,158.081000,139.634000,160.607000C139.734000,161.598000,138.979000,162.461000,137.988000,162.506000C134.624000,162.679000,127.414000,163.024000,124.831000,162.933000C124.441000,162.915000,124.186000,162.524000,124.322000,162.161000C124.441000,161.861000,124.668000,161.607000,124.968000,161.470000L136.815000,155.891000L138.916000,155.528000Z" fill="url(#epzQNU61DAc25-fill)" stroke="none" stroke-width="1"/><path id="epzQNU61DAc26" d="M139.271000,154.028000L138.934000,157.091000C138.934000,157.091000,136.861000,158.081000,135.425000,157L136.252000,153.583000L139.271000,154.028000Z" fill="url(#epzQNU61DAc26-fill)" stroke="none" stroke-width="1"/><path id="epzQNU61DAc27" d="M138.452000,96.590300C138.616000,97.390000,139.671000,136.400000,135.670000,153.919000C135.606000,154.201000,135.752000,154.501000,136.025000,154.610000C136.670000,154.864000,137.925000,155.228000,139.434000,155.264000C139.898000,155.273000,140.316000,154.973000,140.444000,154.519000C141.598000,150.448000,147.117000,130.075000,147.681000,110.648000C148.308000,88.948300,147.672000,109.912000,147.672000,109.912000L147.054000,96.508500L138.452000,96.590300Z" fill="url(#epzQNU61DAc27-fill)" stroke="none" stroke-width="1"/><path id="epzQNU61DAc28" d="M152.627000,156.736000C152.627000,156.736000,153.354000,158.018000,154.091000,161.434000C154.218000,162.052000,153.800000,162.652000,153.163000,162.715000C152.054000,162.834000,150.345000,162.988000,148.972000,162.997000C148.335000,162.997000,147.844000,162.452000,147.908000,161.825000C148.044000,160.571000,148.499000,158.517000,149.945000,156.900000L152.627000,156.736000Z" fill="url(#epzQNU61DAc28-fill)" stroke="none" stroke-width="1"/><path id="epzQNU61DAc29" d="M153.218000,152.792000L152.418000,157.418000C152.418000,157.418000,151.582000,158.045000,149.927000,157.608000L150.281000,152.638000L153.218000,152.792000Z" fill="url(#epzQNU61DAc29-fill)" stroke="none" stroke-width="1"/><path id="epzQNU61DAc30" d="M154.982000,97.626300C158.592000,118.181000,154.727000,148.513000,153.382000,154.456000C153.300000,154.819000,153.009000,155.101000,152.645000,155.164000C152.018000,155.273000,150.990000,155.364000,149.972000,155.083000C149.617000,154.983000,149.372000,154.674000,149.354000,154.310000C149.117000,149.521000,149.181000,120.089000,145.890000,108.485000C145.726000,107.894000,145.362000,107.386000,144.853000,107.040000L138.643000,102.715000L138.106000,95.627200L154.982000,97.626300Z" fill="url(#epzQNU61DAc30-fill)" stroke="none" stroke-width="1"/></g><g id="epzQNU61DAc31"><path id="epzQNU61DAc32" d="M132.859000,58.834200C143.088000,58.570700,154.399000,61.314900,154.399000,61.314900C157.618000,79.061600,155.299000,99.597900,155.299000,99.597900C147.398000,101.751000,138.433000,98.489300,138.433000,98.489300C137.042000,91.074400,130.704000,70.220000,130.704000,70.220000C125.704000,69.647600,121.567000,68.248200,118.166000,66.376300C120.721000,63.359400,121.903000,59.533900,122.412000,57.271200C126.040000,58.352600,129.704000,58.916000,132.859000,58.834200Z" fill="rgb(45,255,179)" stroke="none" stroke-width="1"/><g id="epzQNU61DAc33_tr" transform="translate(121.182704,62.767208) rotate(0)"><g id="epzQNU61DAc33" transform="translate(-121.182704,-62.767208)"><path id="epzQNU61DAc34" d="M102.510000,44.068000C103.501000,42.841300,104.783000,43.404700,104.783000,43.404700C106.347000,49.747300,114.293000,54.817800,122.422000,57.262100C121.913000,59.524800,120.731000,63.341200,118.176000,66.367200C104.637000,58.934100,102.510000,44.068000,102.510000,44.068000Z" fill="url(#epzQNU61DAc34-fill)" stroke="none" stroke-width="1"/><path id="epzQNU61DAc35" d="M102.755000,44.368100C102.655000,44.704300,103.874000,45.204100,104.583000,43.822900C104.601000,43.168600,104.974000,40.360800,104.574000,39.833700C102.464000,37.016800,98.382000,33.491100,98.382000,33.491100C97.709100,34.172600,98.272900,34.826900,98.272900,34.826900L100.255000,36.853200C99.854900,37.598400,99.354800,38.225400,99.127500,39.125000C98.954800,39.806500,99.073000,40.533400,99.418500,41.142200C99.773100,41.760100,100.246000,42.559800,100.691000,43.186800C101.555000,44.377200,102.755000,44.368100,102.755000,44.368100Z" fill="url(#epzQNU61DAc35-fill)" stroke="none" stroke-width="1"/><path id="epzQNU61DAc36" d="M101.128000,38.170700L102.928000,39.670000L103.501000,41.169300L101.928000,42.950400C101.928000,42.950400,101.364000,39.960800,100.955000,39.324700C100.555000,38.679500,100.755000,38.361500,101.128000,38.170700Z" fill="url(#epzQNU61DAc36-fill)" stroke="none" stroke-width="1"/></g></g><g id="epzQNU61DAc37_tr" transform="translate(155.148048,61.314800) rotate(0)"><g id="epzQNU61DAc37" transform="translate(-155.148048,-61.314800)"><path id="epzQNU61DAc38" d="M150.572000,71.246800L154.400000,61.314800C154.400000,61.314800,164.020000,67.712000,165.666000,75.917400C163.865000,76.071900,160.583000,76.571700,157.382000,78.225500C156.637000,74.345400,150.572000,71.246800,150.572000,71.246800Z" fill="rgb(45,255,179)" stroke="none" stroke-width="1"/><path id="epzQNU61DAc39" d="M142.316000,80.642700C142.316000,80.642700,153.099000,86.594600,156.673000,81.387800C157.418000,80.306400,157.582000,79.234200,157.391000,78.225500C160.592000,76.571700,163.874000,76.072000,165.674000,75.917500C166.174000,78.389100,165.947000,81.033400,164.510000,83.714000C158.282000,95.363400,140.925000,83.296000,140.925000,83.296000L142.316000,80.642700Z" fill="url(#epzQNU61DAc39-fill)" stroke="none" stroke-width="1"/><path id="epzQNU61DAc40" d="M144.517000,90.056700L138.643000,69.556700C138.580000,69.320500,138.380000,69.156900,138.134000,69.129600C137.070000,69.002400,133.988000,68.657100,130.424000,68.357300C126.132000,67.993800,121.150000,67.703000,118.176000,67.948300C117.749000,67.984700,117.495000,68.429900,117.685000,68.811600C119.377000,72.237300,126.341000,86.158400,129.824000,90.720100C129.942000,90.874500,130.115000,90.956300,130.306000,90.956300L143.935000,90.829100C144.344000,90.810900,144.626000,90.438400,144.517000,90.056700Z" fill="url(#epzQNU61DAc40-fill)" stroke="none" stroke-width="1"/><path id="epzQNU61DAc41" d="M143.098000,85.095200C143.098000,85.095200,143.917000,81.733100,143.589000,80.542700C143.262000,79.352300,142.617000,77.816700,140.489000,78.152900C138.361000,78.498200,135.843000,79.388700,135.843000,79.388700C135.843000,79.388700,135.970000,80.942500,137.589000,80.442800L136.579000,81.224200C136.579000,81.224200,136.725000,82.469100,138.089000,81.805800L137.152000,82.832600C137.152000,82.832600,137.743000,83.850300,138.743000,83.196100C139.762000,82.541800,140.243000,85.504100,143.098000,85.095200Z" fill="url(#epzQNU61DAc41-fill)" stroke="none" stroke-width="1"/><path id="epzQNU61DAc42" d="M129.097000,76.190200C130.051000,76.190200,130.824000,75.417200,130.824000,74.463700C130.824000,73.510200,130.051000,72.737200,129.097000,72.737200C128.143000,72.737200,127.369000,73.510200,127.369000,74.463700C127.369000,75.417200,128.143000,76.190200,129.097000,76.190200Z" fill="rgb(125,151,244)" stroke="none" stroke-width="1"/><path id="epzQNU61DAc43" d="M137.980000,75.599500L138.416000,75.472300L137.216000,71.419600C137.025000,70.756200,136.488000,70.265500,135.825000,70.129200C132.033000,69.338700,122.050000,69.175100,121.622000,69.166000L121.613000,69.620400C121.713000,69.620400,131.979000,69.783900,135.725000,70.565400C136.225000,70.665300,136.625000,71.047000,136.770000,71.537700L137.980000,75.599500Z" fill="rgb(145,179,250)" stroke="none" stroke-width="1"/></g></g><path id="epzQNU61DAc44" d="M156.082000,80.297300C156.073000,80.297300,156.073000,80.297300,156.064000,80.297300C155.909000,80.288300,155.800000,80.152000,155.809000,80.006600C156.264000,73.645800,153.936000,68.611600,153.918000,68.566200C153.854000,68.429900,153.909000,68.266300,154.045000,68.202700C154.182000,68.139100,154.345000,68.193600,154.409000,68.329900C154.436000,68.384500,156.809000,73.536700,156.355000,80.042900C156.346000,80.179200,156.228000,80.297300,156.082000,80.297300Z" fill="rgb(158,232,198)" stroke="none" stroke-width="1"/><g id="epzQNU61DAc45_tr" transform="translate(141.698265,60.930500) rotate(0)"><g id="epzQNU61DAc45" transform="translate(-141.698265,-60.930500)"><path id="epzQNU61DAc46" d="M143.144000,50.438000L146.490000,59.815700C146.544000,59.970100,146.481000,60.142800,146.335000,60.224600C145.453000,60.724300,142.271000,62.169200,138.397000,59.770200C137.997000,59.515800,137.716000,59.106900,137.652000,58.634400L136.524000,50.501600L143.144000,50.438000Z" fill="url(#epzQNU61DAc46-fill)" stroke="none" stroke-width="1"/><path id="epzQNU61DAc47" d="M135.978000,41.796800C135.978000,41.796800,132.469000,48.557400,132.951000,51.265300C133.433000,53.973200,137.861000,53.736900,141.707000,51.492400L144.343000,44.204800L135.978000,41.796800Z" fill="url(#epzQNU61DAc47-fill)" stroke="none" stroke-width="1"/><path id="epzQNU61DAc48" d="M141.507000,47.930200C141.352000,47.866600,141.288000,47.666700,141.379000,47.521300C141.661000,47.085100,142.189000,46.185500,142.352000,45.404100C142.352000,45.404100,142.989000,44.986100,140.707000,44.468100C138.424000,43.941100,135.015000,43.132300,134.287000,41.196800C133.569000,39.315900,135.360000,34.545200,138.306000,38.307200C138.415000,38.452600,138.633000,38.452600,138.743000,38.307200C139.215000,37.680200,140.461000,36.380800,142.216000,37.144100C143.852000,37.862000,144.053000,39.052300,144.034000,39.661200C144.025000,39.842900,144.189000,39.979200,144.362000,39.942800C145.189000,39.779300,147.171000,39.624800,148.108000,41.651200C148.890000,43.314100,148.399000,44.268200,147.953000,44.740700C147.808000,44.895200,147.871000,45.140500,148.071000,45.195100C148.617000,45.358600,149.317000,45.813000,149.262000,47.085100C149.181000,48.838900,147.217000,48.711700,146.653000,48.629900C146.562000,48.620800,146.471000,48.648100,146.407000,48.720800C145.935000,49.256900,143.789000,51.528600,141.452000,51.828500C141.252000,51.855700,141.088000,51.655800,141.152000,51.465000L142.134000,48.511800C142.179000,48.375500,142.116000,48.221000,141.979000,48.166500L141.507000,47.930200Z" fill="url(#epzQNU61DAc48-fill)" stroke="none" stroke-width="1"/><path id="epzQNU61DAc49" d="M141.098000,48.348100C141.098000,48.348100,143.626000,46.576200,143.826000,48.048300C144.026000,49.511300,141.553000,50.201900,140.325000,49.665700L141.098000,48.348100Z" fill="url(#epzQNU61DAc49-fill)" stroke="none" stroke-width="1"/></g></g></g></g></g><g id="epzQNU61DAc50_tk" transform="translate(159.425255,161.570000) skewX(0) skewY(0)"><g id="epzQNU61DAc50" transform="translate(-159.425255,-161.570000)"><path id="epzQNU61DAc51" d="M155.327000,161.371000C155.327000,161.371000,151.872000,151.648000,153.818000,149.903000C155.764000,148.158000,156.928000,150.112000,157.709000,149.403000C158.491000,148.685000,155.273000,143.442000,157.519000,141.416000C159.773000,139.417000,160.674000,143.606000,161.946000,142.452000C163.247000,141.289000,163.365000,132.111000,166.647000,133.074000C169.930000,134.037000,164.883000,142.597000,166.129000,142.679000C167.375000,142.761000,168.802000,140.225000,169.911000,142.797000C171.021000,145.369000,162.865000,150.775000,166.374000,150.975000C169.921000,151.166000,169.002000,153.547000,168.020000,155.410000C167.038000,157.263000,161.837000,161.770000,161.837000,161.770000L155.327000,161.371000Z" fill="rgb(45,255,179)" stroke="none" stroke-width="1"/><path id="epzQNU61DAc52" d="M169.856000,142.679000C168.310000,144.551000,165.510000,147.658000,163.282000,148.767000C164.983000,141.788000,166.356000,135.082000,166.747000,133.110000C166.710000,133.083000,166.683000,133.092000,166.647000,133.065000C166.610000,133.038000,166.583000,133.047000,166.510000,133.029000C166.219000,134.501000,165.355000,138.708000,164.228000,143.687000C163.855000,142.052000,163.437000,140.107000,163.128000,138.644000C163.101000,138.835000,163.037000,139.008000,163.010000,139.208000C163.419000,141.216000,163.973000,143.669000,164.101000,144.215000C164.010000,144.578000,163.919000,144.941000,163.837000,145.341000L162.446000,141.434000C162.410000,141.570000,162.364000,141.670000,162.319000,141.770000L163.728000,145.741000C163.273000,147.722000,162.746000,149.776000,162.237000,151.829000C160.400000,150.121000,158.891000,144.051000,158.209000,140.889000C158.145000,140.898000,158.063000,140.943000,157.972000,140.998000C158.673000,144.251000,160.200000,150.412000,162.164000,152.093000C161.355000,155.210000,160.473000,158.281000,159.600000,160.907000C157.827000,159.535000,155.636000,152.547000,154.672000,149.249000C154.617000,149.294000,154.526000,149.303000,154.436000,149.358000C155.418000,152.747000,157.618000,159.826000,159.509000,161.143000C159.473000,161.280000,159.400000,161.416000,159.364000,161.552000L159.618000,161.570000C159.964000,160.525000,160.346000,159.381000,160.709000,158.108000C162.373000,157.390000,166.628000,154.101000,168.838000,152.356000C168.820000,152.265000,168.801000,152.175000,168.765000,152.120000C166.674000,153.774000,162.555000,156.972000,160.818000,157.836000C161.537000,155.400000,162.328000,152.529000,163.110000,149.258000C163.128000,149.194000,163.146000,149.094000,163.164000,149.031000C165.437000,148.004000,168.292000,144.851000,169.893000,142.915000C169.883000,142.851000,169.874000,142.824000,169.838000,142.770000C169.865000,142.733000,169.856000,142.706000,169.856000,142.679000Z" fill="rgb(95,187,23)" stroke="none" stroke-width="1"/></g></g></g></svg>