<svg width="22" height="22" viewBox="0 0 22 22" fill="none" xmlns="http://www.w3.org/2000/svg">
<path fill-rule="evenodd" clip-rule="evenodd" d="M2.2635 6.38832C2.32737 6.32429 2.40323 6.2735 2.48676 6.23884C2.57028 6.20418 2.65982 6.18634 2.75025 6.18634C2.84068 6.18634 2.93022 6.20418 3.01375 6.23884C3.09727 6.2735 3.17314 6.32429 3.237 6.38832L11.0003 14.1529L18.7635 6.38832C18.8274 6.3244 18.9033 6.27369 18.9868 6.2391C19.0703 6.20451 19.1599 6.1867 19.2503 6.1867C19.3407 6.1867 19.4302 6.20451 19.5137 6.2391C19.5972 6.27369 19.6731 6.3244 19.737 6.38832C19.8009 6.45224 19.8516 6.52812 19.8862 6.61164C19.9208 6.69516 19.9386 6.78467 19.9386 6.87507C19.9386 6.96547 19.9208 7.05498 19.8862 7.1385C19.8516 7.22201 19.8009 7.2979 19.737 7.36182L11.487 15.6118C11.4231 15.6758 11.3473 15.7266 11.2637 15.7613C11.1802 15.796 11.0907 15.8138 11.0003 15.8138C10.9098 15.8138 10.8203 15.796 10.7368 15.7613C10.6532 15.7266 10.5774 15.6758 10.5135 15.6118L2.2635 7.36182C2.19948 7.29796 2.14868 7.22209 2.11402 7.13857C2.07936 7.05504 2.06152 6.9655 2.06152 6.87507C2.06152 6.78464 2.07936 6.6951 2.11402 6.61157C2.14868 6.52805 2.19948 6.45218 2.2635 6.38832Z" fill="#444444"/>
</svg>
