<svg width="20" height="20" viewBox="0 0 20 20" fill="none" xmlns="http://www.w3.org/2000/svg">
<path fill-rule="evenodd" clip-rule="evenodd" d="M1.875 16.25C1.875 16.7473 2.07254 17.2242 2.42417 17.5758C2.77581 17.9275 3.25272 18.125 3.75 18.125H13.75C14.2473 18.125 14.7242 17.9275 15.0758 17.5758C15.4275 17.2242 15.625 16.7473 15.625 16.25V11.25C15.625 11.0842 15.5592 10.9253 15.4419 10.8081C15.3247 10.6908 15.1658 10.625 15 10.625C14.8342 10.625 14.6753 10.6908 14.5581 10.8081C14.4408 10.9253 14.375 11.0842 14.375 11.25V16.25C14.375 16.4158 14.3092 16.5747 14.1919 16.6919C14.0747 16.8092 13.9158 16.875 13.75 16.875H3.75C3.58424 16.875 3.42527 16.8092 3.30806 16.6919C3.19085 16.5747 3.125 16.4158 3.125 16.25V6.25C3.125 6.08424 3.19085 5.92527 3.30806 5.80806C3.42527 5.69085 3.58424 5.625 3.75 5.625H8.75C8.91576 5.625 9.07473 5.55915 9.19194 5.44194C9.30915 5.32473 9.375 5.16576 9.375 5C9.375 4.83424 9.30915 4.67527 9.19194 4.55806C9.07473 4.44085 8.91576 4.375 8.75 4.375H3.75C3.25272 4.375 2.77581 4.57254 2.42417 4.92417C2.07254 5.27581 1.875 5.75272 1.875 6.25V16.25ZM10.625 2.5C10.625 2.33424 10.6908 2.17527 10.8081 2.05806C10.9253 1.94085 11.0842 1.875 11.25 1.875H17.5C17.6658 1.875 17.8247 1.94085 17.9419 2.05806C18.0592 2.17527 18.125 2.33424 18.125 2.5V8.75C18.125 8.91576 18.0592 9.07473 17.9419 9.19194C17.8247 9.30915 17.6658 9.375 17.5 9.375C17.3342 9.375 17.1753 9.30915 17.0581 9.19194C16.9408 9.07473 16.875 8.91576 16.875 8.75V3.125H11.25C11.0842 3.125 10.9253 3.05915 10.8081 2.94194C10.6908 2.82473 10.625 2.66576 10.625 2.5Z" fill="#F7F4FF"/>
<path fill-rule="evenodd" clip-rule="evenodd" d="M17.9425 2.0574C18.0007 2.11545 18.0469 2.18442 18.0784 2.26035C18.1099 2.33629 18.1261 2.41769 18.1261 2.4999C18.1261 2.58211 18.1099 2.66351 18.0784 2.73944C18.0469 2.81537 18.0007 2.88434 17.9425 2.9424L7.94251 12.9424C7.8844 13.0005 7.81542 13.0466 7.73949 13.078C7.66357 13.1095 7.58219 13.1257 7.50001 13.1257C7.41783 13.1257 7.33646 13.1095 7.26053 13.078C7.18461 13.0466 7.11562 13.0005 7.05751 12.9424C6.9994 12.8843 6.95331 12.8153 6.92186 12.7394C6.89041 12.6635 6.87422 12.5821 6.87422 12.4999C6.87422 12.4177 6.89041 12.3363 6.92186 12.2604C6.95331 12.1845 6.9994 12.1155 7.05751 12.0574L17.0575 2.0574C17.1156 1.99919 17.1845 1.95301 17.2605 1.92151C17.3364 1.89 17.4178 1.87378 17.5 1.87378C17.5822 1.87378 17.6636 1.89 17.7396 1.92151C17.8155 1.95301 17.8845 1.99919 17.9425 2.0574Z" fill="#F7F4FF"/>
</svg>
