<svg width="30" height="30" viewBox="0 0 30 30" fill="none" xmlns="http://www.w3.org/2000/svg">
<g clip-path="url(#clip0)">
<path d="M15 28.5C22.4558 28.5 28.5 22.4558 28.5 15C28.5 7.54414 22.4558 1.5 15 1.5C7.54415 1.5 1.5 7.54414 1.5 15C1.5 22.4558 7.54415 28.5 15 28.5Z" fill="#95D1B6"/>
<path d="M15 28.5C22.4558 28.5 28.5 22.4558 28.5 15C28.5 7.54414 22.4558 1.5 15 1.5C7.54415 1.5 1.5 7.54414 1.5 15C1.5 22.4558 7.54415 28.5 15 28.5Z" fill="#A2F9CF" stroke="#4EBC8C" stroke-miterlimit="10"/>
<path d="M11.6663 20.5835C12.2497 21.1668 13.1663 21.1668 13.7497 20.5835L22.7497 11.5835C23.333 11.0002 23.333 10.0835 22.7497 9.50016C22.4997 9.16683 22.083 9.0835 21.6663 9.0835C21.2497 9.0835 20.9163 9.25016 20.583 9.50016L12.6663 17.4168L9.24967 14.0002C8.66633 13.4168 7.74967 13.4168 7.08301 14.0002C6.49967 14.5835 6.49967 15.5002 7.08301 16.1668L11.6663 20.5835Z" fill="#07C88B"/>
</g>
<defs>
<clipPath id="clip0">
<rect width="30" height="30" fill="white"/>
</clipPath>
</defs>
</svg>
