<svg id="Layer_1" data-name="Layer 1" xmlns="http://www.w3.org/2000/svg" xmlns:xlink="http://www.w3.org/1999/xlink" viewBox="0 0 534 84"><defs><style>.cls-1{fill:none;}.cls-2{clip-path:url(#clip-path);}.cls-3{opacity:0.35;}.cls-4{fill:url(#radial-gradient);}.cls-5{fill:#fff;}.cls-6{fill:#260759;}.cls-7{clip-path:url(#clip-path-2);}.cls-8{fill:#5600e3;}.cls-9{fill:#2dffb3;}</style><clipPath id="clip-path"><rect class="cls-1" y="0.5" width="534" height="83"/></clipPath><radialGradient id="radial-gradient" cx="-417.73" cy="425.54" r="1" gradientTransform="matrix(0, -124.94, -283.45, 0, 120886.44, -52064.5)" gradientUnits="userSpaceOnUse"><stop offset="0" stop-color="#6b6b6b"/><stop offset="0.21" stop-color="#969696"/><stop offset="0.46" stop-color="#c3c3c3"/><stop offset="0.69" stop-color="#e4e4e4"/><stop offset="0.87" stop-color="#f8f8f8"/><stop offset="1" stop-color="#fff"/></radialGradient><clipPath id="clip-path-2"><rect class="cls-1" x="181" y="38.5" width="26.68" height="37.49"/></clipPath></defs><g class="cls-2"><g class="cls-3"><path class="cls-4" d="M0,83.5H534C494.89,35.13,390.15.5,267,.5S39.11,35.13,0,83.5Z"/><path class="cls-5" d="M150,45.5a20,20,0,0,1,20-20H365a20,20,0,0,1,20,20v39H150Z"/></g></g><path class="cls-6" d="M231,73.7a9.53,9.53,0,0,1-3.7-.7,6.13,6.13,0,0,1-2.58-2,5.27,5.27,0,0,1-1-3.11h4.19a2.8,2.8,0,0,0,.84,1.91,3.14,3.14,0,0,0,2.13.7,3.29,3.29,0,0,0,2.16-.65,2.18,2.18,0,0,0,.78-1.73,2,2,0,0,0-.53-1.43,3.5,3.5,0,0,0-1.34-.87,19.06,19.06,0,0,0-2.19-.73,26,26,0,0,1-3.1-1.09,5.68,5.68,0,0,1-2.05-1.65,4.84,4.84,0,0,1-.84-3,5.23,5.23,0,0,1,.87-3,5.36,5.36,0,0,1,2.44-2,8.6,8.6,0,0,1,3.58-.7,7.67,7.67,0,0,1,4.9,1.48,5.38,5.38,0,0,1,2.1,4.09h-4.31a2.2,2.2,0,0,0-.87-1.65,3.1,3.1,0,0,0-2.1-.68,2.79,2.79,0,0,0-1.85.59,2.14,2.14,0,0,0-.67,1.71,1.89,1.89,0,0,0,.5,1.32,5,5,0,0,0,1.29.84c.52.2,1.25.44,2.18.72a23.55,23.55,0,0,1,3.11,1.12A5.69,5.69,0,0,1,237,64.9a4.73,4.73,0,0,1,.86,2.94,5.57,5.57,0,0,1-.81,2.92,5.81,5.81,0,0,1-2.38,2.15A8.23,8.23,0,0,1,231,73.7ZM245.14,54V66.05a4.19,4.19,0,0,0,1,3,3.94,3.94,0,0,0,2.91,1,4,4,0,0,0,2.94-1,4.19,4.19,0,0,0,1-3V54H257V66a7.85,7.85,0,0,1-1.09,4.23A6.8,6.8,0,0,1,253,72.83a9.58,9.58,0,0,1-8,0,6.69,6.69,0,0,1-2.8-2.58,8.11,8.11,0,0,1-1-4.23V54Zm14.7,9.74a10.23,10.23,0,0,1,1.29-5.15A9.29,9.29,0,0,1,264.69,55a10.06,10.06,0,0,1,5.07-1.29,9.91,9.91,0,0,1,5.73,1.68A8.74,8.74,0,0,1,278.94,60h-4.51a4.69,4.69,0,0,0-1.9-2.1,5.54,5.54,0,0,0-2.8-.7,5.83,5.83,0,0,0-3.06.81,5.61,5.61,0,0,0-2.07,2.24,7.63,7.63,0,0,0-.72,3.42,7.75,7.75,0,0,0,.72,3.42,5.73,5.73,0,0,0,2.07,2.26,5.91,5.91,0,0,0,3.06.79,5.54,5.54,0,0,0,2.8-.7,4.88,4.88,0,0,0,1.9-2.13h4.51A8.74,8.74,0,0,1,275.49,72a10,10,0,0,1-5.73,1.65,10.25,10.25,0,0,1-5.07-1.26,9.58,9.58,0,0,1-3.56-3.56A10.23,10.23,0,0,1,259.84,63.7Zm21.49,0a10.33,10.33,0,0,1,1.29-5.15A9.36,9.36,0,0,1,286.18,55a10.06,10.06,0,0,1,5.07-1.29A9.94,9.94,0,0,1,297,55.38,8.77,8.77,0,0,1,300.43,60h-4.51a4.64,4.64,0,0,0-1.9-2.1,5.54,5.54,0,0,0-2.8-.7,5.77,5.77,0,0,0-3.05.81,5.47,5.47,0,0,0-2.07,2.24,7.49,7.49,0,0,0-.73,3.42,7.61,7.61,0,0,0,.73,3.42,5.59,5.59,0,0,0,2.07,2.26,5.85,5.85,0,0,0,3.05.79,5.54,5.54,0,0,0,2.8-.7,4.82,4.82,0,0,0,1.9-2.13h4.51A8.77,8.77,0,0,1,297,72a10,10,0,0,1-5.74,1.65,10.25,10.25,0,0,1-5.07-1.26,9.65,9.65,0,0,1-3.56-3.56A10.33,10.33,0,0,1,281.33,63.7Zm26.37-6.58V62h6.58v3.11H307.7v5.18h7.42V73.5H303.78V53.93h11.34v3.19Zm14.9,0V62h6.58v3.11H322.6v5.18H330V73.5H318.68V53.93H330v3.19ZM340.42,54a11.61,11.61,0,0,1,5.4,1.2,8.45,8.45,0,0,1,3.61,3.44,10.95,10.95,0,0,1,0,10.31,8.64,8.64,0,0,1-3.61,3.39,11.61,11.61,0,0,1-5.4,1.2h-6.84V54Zm-.14,16.21A6.72,6.72,0,0,0,345,59a6.31,6.31,0,0,0-4.76-1.74H337.5V70.17Z"/><g class="cls-7"><path class="cls-8" d="M207.52,69.1l-3.94-5.44a.8.8,0,0,0-1-.28l-2.72,1.15a1.66,1.66,0,0,0-.39.31l-2.64,4.34a.77.77,0,0,1-.62.39l-5.4.47a.89.89,0,0,0-.51.24l-2,2a.7.7,0,0,1-.52.24l-4.8.35a.79.79,0,0,0-.67.43l-.78,1.42a.81.81,0,0,0,.71,1.22h24.63a.83.83,0,0,0,.83-.82v-5.6A.67.67,0,0,0,207.52,69.1Z"/><path class="cls-8" d="M189.6,53.9A2.92,2.92,0,1,0,186.71,51,2.92,2.92,0,0,0,189.6,53.9Z"/><path class="cls-9" d="M197.09,54.33l.12.27a.69.69,0,0,0,.63.43.68.68,0,0,0,.28,0,.74.74,0,0,0,.39-.91l-.39-.94.43-.51a1.33,1.33,0,0,0-.2-1.89,1.29,1.29,0,0,0-1.3-.2l-2-4.73L200,43.76a.72.72,0,0,0,.39-.94L198.75,39a.7.7,0,0,0-.95-.39l-4.88,2-.19-.44a.7.7,0,0,0-1.3.52l3.47,8.47Z"/><path class="cls-8" d="M182.41,61.85a1.26,1.26,0,0,0,1.1-.59l.79-1.15A5.86,5.86,0,0,1,186.86,58v4.69l-.59,3.86-2.05,4.88,3.23-.23.28-.28,1.41-3.43a1.11,1.11,0,0,0,.08-.35l.47-3.19,3.19,1.3-.31,3.27,3.1-.28.4-3.78a1.52,1.52,0,0,0-.95-1.58l-2.59-1.1V57l.15,0a9,9,0,0,0,4-2.25L195.51,52l-.31.36a6,6,0,0,1-3.26,2.09l-.32.08a6.41,6.41,0,0,1-1.53.2h-.71a8.62,8.62,0,0,0-2.64.39A9,9,0,0,0,182,58.54l-.79,1.14a1.33,1.33,0,0,0,.36,1.85A1.52,1.52,0,0,0,182.41,61.85Z"/></g></svg>