<svg width="534" height="107" viewBox="0 0 534 107" fill="none" xmlns="http://www.w3.org/2000/svg">
<g opacity="0.35" clip-path="url(#clip0)">
<path d="M0 83H534C494.889 34.6335 390.148 0 267.023 0C143.852 0 39.1113 34.6335 0 83Z" fill="url(#paint0_radial)"/>
<path d="M150 45C150 33.9543 158.954 25 170 25H365C376.046 25 385 33.9543 385 45V84H150V45Z" fill="white"/>
</g>
<path d="M253.504 68.196C252.142 68.196 250.91 67.9627 249.808 67.496C248.726 67.0293 247.867 66.3573 247.232 65.48C246.598 64.6027 246.271 63.5667 246.252 62.372H250.452C250.508 63.1747 250.788 63.8093 251.292 64.276C251.815 64.7427 252.524 64.976 253.42 64.976C254.335 64.976 255.054 64.7613 255.576 64.332C256.099 63.884 256.36 63.3053 256.36 62.596C256.36 62.0173 256.183 61.5413 255.828 61.168C255.474 60.7947 255.026 60.5053 254.484 60.3C253.962 60.076 253.234 59.8333 252.3 59.572C251.031 59.1987 249.995 58.8347 249.192 58.48C248.408 58.1067 247.727 57.556 247.148 56.828C246.588 56.0813 246.308 55.092 246.308 53.86C246.308 52.7027 246.598 51.6947 247.176 50.836C247.755 49.9773 248.567 49.324 249.612 48.876C250.658 48.4093 251.852 48.176 253.196 48.176C255.212 48.176 256.846 48.6707 258.096 49.66C259.366 50.6307 260.066 51.9933 260.196 53.748H255.884C255.847 53.076 255.558 52.5253 255.016 52.096C254.494 51.648 253.794 51.424 252.916 51.424C252.151 51.424 251.535 51.62 251.068 52.012C250.62 52.404 250.396 52.9733 250.396 53.72C250.396 54.2427 250.564 54.6813 250.9 55.036C251.255 55.372 251.684 55.652 252.188 55.876C252.711 56.0813 253.439 56.324 254.372 56.604C255.642 56.9773 256.678 57.3507 257.48 57.724C258.283 58.0973 258.974 58.6573 259.552 59.404C260.131 60.1507 260.42 61.1307 260.42 62.344C260.42 63.3893 260.15 64.36 259.608 65.256C259.067 66.152 258.274 66.8707 257.228 67.412C256.183 67.9347 254.942 68.196 253.504 68.196ZM262.867 58.2C262.867 56.2773 263.296 54.56 264.155 53.048C265.032 51.5173 266.217 50.332 267.711 49.492C269.223 48.6333 270.912 48.204 272.779 48.204C274.963 48.204 276.876 48.764 278.519 49.884C280.161 51.004 281.309 52.5533 281.963 54.532H277.455C277.007 53.5987 276.372 52.8987 275.551 52.432C274.748 51.9653 273.815 51.732 272.751 51.732C271.612 51.732 270.595 52.0027 269.699 52.544C268.821 53.0667 268.131 53.8133 267.627 54.784C267.141 55.7547 266.899 56.8933 266.899 58.2C266.899 59.488 267.141 60.6267 267.627 61.616C268.131 62.5867 268.821 63.3427 269.699 63.884C270.595 64.4067 271.612 64.668 272.751 64.668C273.815 64.668 274.748 64.4347 275.551 63.968C276.372 63.4827 277.007 62.7733 277.455 61.84H281.963C281.309 63.8373 280.161 65.396 278.519 66.516C276.895 67.6173 274.981 68.168 272.779 68.168C270.912 68.168 269.223 67.748 267.711 66.908C266.217 66.0493 265.032 64.864 264.155 63.352C263.296 61.84 262.867 60.1227 262.867 58.2ZM297.295 64.276H289.511L288.223 68H284.107L291.135 48.428H295.699L302.727 68H298.583L297.295 64.276ZM296.231 61.14L293.403 52.964L290.575 61.14H296.231ZM309.274 64.892H315.714V68H305.354V48.456H309.274V64.892ZM322.125 51.62V56.52H328.705V59.628H322.125V64.808H329.545V68H318.205V48.428H329.545V51.62H322.125Z" fill="#260759"/>
<g clip-path="url(#clip1)">
<path d="M200.19 56.7865L210 47.0997V49.4511H213V43.5355C213 42.7221 212.325 42.0566 211.5 42.0566H205.5V45.0144H207.885L198 54.7308L200.19 56.7865Z" fill="#2DFFB3"/>
<path d="M226.5 45.0146H217.5C216.675 45.0146 216 45.6802 216 46.4935V52.4092H208.5C207.675 52.4092 207 53.0747 207 53.8881V59.8037H199.5C198.675 59.8037 198 60.4692 198 61.2826V70.156C198 70.9694 198.675 71.6349 199.5 71.6349H226.5C227.325 71.6349 228 70.9694 228 70.156V46.4935C228 45.6802 227.325 45.0146 226.5 45.0146Z" fill="#5600E3"/>
</g>
<defs>
<radialGradient id="paint0_radial" cx="0" cy="0" r="1" gradientUnits="userSpaceOnUse" gradientTransform="translate(267.008 124.939) rotate(-90) scale(124.936 283.453)">
<stop stop-color="#6B6B6B"/>
<stop offset="0.2111" stop-color="#969696"/>
<stop offset="0.462" stop-color="#C3C3C3"/>
<stop offset="0.6862" stop-color="#E4E4E4"/>
<stop offset="0.8732" stop-color="#F8F8F8"/>
<stop offset="1" stop-color="white"/>
</radialGradient>
<clipPath id="clip0">
<rect width="534" height="83" fill="white"/>
</clipPath>
<clipPath id="clip1">
<rect width="30" height="29.578" fill="white" transform="translate(198 42.0566)"/>
</clipPath>
</defs>
</svg>
