<svg width="534" height="107" viewBox="0 0 534 107" fill="none" xmlns="http://www.w3.org/2000/svg">
<g opacity="0.35" clip-path="url(#clip0)">
<path d="M0 83H534C494.889 34.6335 390.148 0 267.023 0C143.852 0 39.1113 34.6335 0 83Z" fill="url(#paint0_radial)"/>
<path d="M150 45C150 33.9543 158.954 25 170 25H365C376.046 25 385 33.9543 385 45V84H150V45Z" fill="white"/>
</g>
<path d="M267.346 68.196C265.983 68.196 264.751 67.9627 263.65 67.496C262.567 67.0293 261.709 66.3573 261.074 65.48C260.439 64.6027 260.113 63.5667 260.094 62.372H264.294C264.35 63.1747 264.63 63.8093 265.134 64.276C265.657 64.7427 266.366 64.976 267.262 64.976C268.177 64.976 268.895 64.7613 269.418 64.332C269.941 63.884 270.202 63.3053 270.202 62.596C270.202 62.0173 270.025 61.5413 269.67 61.168C269.315 60.7947 268.867 60.5053 268.326 60.3C267.803 60.076 267.075 59.8333 266.142 59.572C264.873 59.1987 263.837 58.8347 263.034 58.48C262.25 58.1067 261.569 57.556 260.99 56.828C260.43 56.0813 260.15 55.092 260.15 53.86C260.15 52.7027 260.439 51.6947 261.018 50.836C261.597 49.9773 262.409 49.324 263.454 48.876C264.499 48.4093 265.694 48.176 267.038 48.176C269.054 48.176 270.687 48.6707 271.938 49.66C273.207 50.6307 273.907 51.9933 274.038 53.748H269.726C269.689 53.076 269.399 52.5253 268.858 52.096C268.335 51.648 267.635 51.424 266.758 51.424C265.993 51.424 265.377 51.62 264.91 52.012C264.462 52.404 264.238 52.9733 264.238 53.72C264.238 54.2427 264.406 54.6813 264.742 55.036C265.097 55.372 265.526 55.652 266.03 55.876C266.553 56.0813 267.281 56.324 268.214 56.604C269.483 56.9773 270.519 57.3507 271.322 57.724C272.125 58.0973 272.815 58.6573 273.394 59.404C273.973 60.1507 274.262 61.1307 274.262 62.344C274.262 63.3893 273.991 64.36 273.45 65.256C272.909 66.152 272.115 66.8707 271.07 67.412C270.025 67.9347 268.783 68.196 267.346 68.196ZM281.581 51.62V56.52H288.161V59.628H281.581V64.808H289.001V68H277.661V48.428H289.001V51.62H281.581ZM296.483 64.892H302.923V68H292.563V48.456H296.483V64.892ZM309.334 64.892H315.774V68H305.414V48.456H309.334V64.892Z" fill="#260759"/>
<path d="M241.194 59.229C240.74 58.4399 239.883 57.9497 238.957 57.9497C238.519 57.9497 238.085 58.0617 237.701 58.2734L230.227 62.3954C230.129 62.4492 230.059 62.5402 230.032 62.6467C229.902 63.1678 229.595 63.8954 228.874 64.4021C228.076 64.9628 226.996 65.0796 225.681 64.7493C225.673 64.7474 225.665 64.7452 225.658 64.7431L221.347 63.432C221.086 63.3528 220.94 63.0805 221.021 62.8253C221.085 62.6211 221.275 62.484 221.493 62.484C221.543 62.484 221.592 62.4914 221.64 62.5059L225.93 63.8101C225.937 63.8122 225.944 63.8141 225.951 63.8159C226.962 64.0659 227.752 63.9963 228.296 63.6142C228.984 63.131 229.105 62.2818 229.119 62.1571C229.12 62.1531 229.12 62.1491 229.12 62.1451C229.121 62.143 229.121 62.1419 229.121 62.1416C229.121 62.1403 229.121 62.139 229.121 62.1377C229.121 62.1369 229.121 62.1361 229.121 62.1352C229.203 61.088 228.513 60.1211 227.479 59.8352L227.46 59.8295C227.429 59.8195 224.256 58.8046 222.234 58.2397C222.009 58.177 221.39 58.0311 220.495 58.0311C219.243 58.0311 217.376 58.3216 215.585 59.7083L208.15 65.5971C207.98 65.7318 207.95 65.9743 208.082 66.1451L212.107 71.3518C212.173 71.4361 212.27 71.4914 212.377 71.5055C212.394 71.5079 212.412 71.5091 212.43 71.5091C212.519 71.5091 212.606 71.4804 212.678 71.4266L217.862 67.5172C217.979 67.4295 218.135 67.3964 218.278 67.4295L226.652 69.3674C227.273 69.5111 227.944 69.4184 228.5 69.1117L240.218 62.6493C241.45 61.9696 241.887 60.4355 241.194 59.229Z" fill="#5600E3"/>
<path d="M236.344 41H221.347C220.86 41 220.465 41.3968 220.465 41.8862V45.9189C220.465 46.4084 220.86 46.8052 221.347 46.8052H221.677V55.3682C221.677 55.8577 222.071 56.2544 222.559 56.2544H235.132C235.619 56.2544 236.014 55.8577 236.014 55.3682V46.8051H236.344C236.831 46.8051 237.226 46.4083 237.226 45.9189V41.8862C237.226 41.3968 236.831 41 236.344 41ZM230.701 48.9107H226.99C226.601 48.9107 226.284 48.5926 226.284 48.2017C226.284 47.8108 226.601 47.4927 226.99 47.4927H230.701C231.09 47.4927 231.407 47.8108 231.407 48.2017C231.407 48.5926 231.09 48.9107 230.701 48.9107ZM235.462 45.0326H235.132H222.559H222.229V42.7725H235.462V45.0326Z" fill="#2DFFB3"/>
<defs>
<radialGradient id="paint0_radial" cx="0" cy="0" r="1" gradientUnits="userSpaceOnUse" gradientTransform="translate(267.008 124.939) rotate(-90) scale(124.936 283.453)">
<stop stop-color="#6B6B6B"/>
<stop offset="0.2111" stop-color="#969696"/>
<stop offset="0.462" stop-color="#C3C3C3"/>
<stop offset="0.6862" stop-color="#E4E4E4"/>
<stop offset="0.8732" stop-color="#F8F8F8"/>
<stop offset="1" stop-color="white"/>
</radialGradient>
<clipPath id="clip0">
<rect width="534" height="83" fill="white"/>
</clipPath>
</defs>
</svg>
