<?xml version="1.0" encoding="UTF-8"?>
<svg xmlns="http://www.w3.org/2000/svg" xmlns:xlink="http://www.w3.org/1999/xlink" width="415pt" height="104pt" viewBox="0 0 415 104" version="1.1">
<defs>
<clipPath id="clip1">
  <path d="M 123 14 L 413.714844 14 L 413.714844 87 L 123 87 Z M 123 14 "/>
</clipPath>
</defs>
<g id="surface1">
<path style=" stroke:none;fill-rule:nonzero;fill:rgb(0%,0%,0%);fill-opacity:1;" d="M 124.800781 78.039062 L 124.800781 82.46875 L 129.617188 82.46875 L 129.617188 83.894531 L 124.800781 83.894531 L 124.800781 88.457031 L 130.1875 88.457031 L 130.1875 89.882812 L 123.074219 89.882812 L 123.074219 76.613281 L 130.1875 76.613281 L 130.1875 78.039062 Z M 145.582031 79.273438 C 146.390625 79.273438 147.109375 79.445312 147.742188 79.785156 C 148.375 80.117188 148.875 80.617188 149.242188 81.289062 C 149.609375 81.960938 149.792969 82.777344 149.792969 83.742188 L 149.792969 89.882812 L 148.085938 89.882812 L 148.085938 83.988281 C 148.085938 82.949219 147.824219 82.15625 147.308594 81.613281 C 146.800781 81.054688 146.113281 80.777344 145.238281 80.777344 C 144.34375 80.777344 143.628906 81.066406 143.097656 81.648438 C 142.566406 82.21875 142.300781 83.050781 142.300781 84.140625 L 142.300781 89.882812 L 140.59375 89.882812 L 140.59375 83.988281 C 140.59375 82.949219 140.335938 82.15625 139.816406 81.613281 C 139.308594 81.054688 138.621094 80.777344 137.75 80.777344 C 136.851562 80.777344 136.136719 81.066406 135.605469 81.648438 C 135.074219 82.21875 134.808594 83.050781 134.808594 84.140625 L 134.808594 89.882812 L 133.082031 89.882812 L 133.082031 79.464844 L 134.808594 79.464844 L 134.808594 80.964844 C 135.148438 80.421875 135.605469 80.003906 136.175781 79.710938 C 136.757812 79.417969 137.394531 79.273438 138.089844 79.273438 C 138.960938 79.273438 139.734375 79.46875 140.402344 79.863281 C 141.074219 80.257812 141.574219 80.832031 141.902344 81.59375 C 142.191406 80.859375 142.671875 80.289062 143.34375 79.882812 C 144.011719 79.476562 144.757812 79.273438 145.582031 79.273438 Z M 154.632812 81.382812 C 154.972656 80.789062 155.480469 80.292969 156.148438 79.902344 C 156.832031 79.496094 157.621094 79.292969 158.519531 79.292969 C 159.445312 79.292969 160.277344 79.515625 161.023438 79.957031 C 161.78125 80.402344 162.375 81.027344 162.808594 81.839844 C 163.238281 82.636719 163.453125 83.570312 163.453125 84.632812 C 163.453125 85.6875 163.238281 86.625 162.808594 87.449219 C 162.375 88.273438 161.78125 88.910156 161.023438 89.367188 C 160.277344 89.824219 159.445312 90.054688 158.519531 90.054688 C 157.636719 90.054688 156.851562 89.855469 156.167969 89.464844 C 155.5 89.058594 154.988281 88.558594 154.632812 87.960938 L 154.632812 94.824219 L 152.90625 94.824219 L 152.90625 79.464844 L 154.632812 79.464844 Z M 161.6875 84.632812 C 161.6875 83.847656 161.53125 83.164062 161.214844 82.582031 C 160.898438 82 160.46875 81.554688 159.925781 81.25 C 159.394531 80.945312 158.804688 80.792969 158.160156 80.792969 C 157.527344 80.792969 156.941406 80.953125 156.394531 81.269531 C 155.867188 81.574219 155.433594 82.023438 155.105469 82.621094 C 154.789062 83.203125 154.632812 83.878906 154.632812 84.652344 C 154.632812 85.4375 154.789062 86.128906 155.105469 86.726562 C 155.433594 87.308594 155.867188 87.757812 156.394531 88.074219 C 156.941406 88.378906 157.527344 88.53125 158.160156 88.53125 C 158.804688 88.53125 159.394531 88.378906 159.925781 88.074219 C 160.46875 87.757812 160.898438 87.308594 161.214844 86.726562 C 161.53125 86.128906 161.6875 85.433594 161.6875 84.632812 Z M 170.539062 90.054688 C 169.566406 90.054688 168.683594 89.832031 167.886719 89.386719 C 167.101562 88.945312 166.480469 88.316406 166.027344 87.503906 C 165.585938 86.679688 165.363281 85.730469 165.363281 84.652344 C 165.363281 83.589844 165.589844 82.652344 166.046875 81.839844 C 166.511719 81.015625 167.144531 80.390625 167.941406 79.957031 C 168.738281 79.515625 169.628906 79.292969 170.617188 79.292969 C 171.601562 79.292969 172.492188 79.515625 173.289062 79.957031 C 174.085938 80.390625 174.710938 81.011719 175.167969 81.820312 C 175.636719 82.632812 175.871094 83.578125 175.871094 84.652344 C 175.871094 85.730469 175.628906 86.679688 175.148438 87.503906 C 174.679688 88.316406 174.042969 88.945312 173.234375 89.386719 C 172.425781 89.832031 171.527344 90.054688 170.539062 90.054688 Z M 170.539062 88.53125 C 171.160156 88.53125 171.742188 88.386719 172.285156 88.09375 C 172.828125 87.804688 173.265625 87.367188 173.59375 86.78125 C 173.933594 86.199219 174.105469 85.492188 174.105469 84.652344 C 174.105469 83.816406 173.941406 83.109375 173.613281 82.523438 C 173.285156 81.941406 172.855469 81.511719 172.324219 81.230469 C 171.792969 80.941406 171.214844 80.792969 170.597656 80.792969 C 169.964844 80.792969 169.382812 80.941406 168.851562 81.230469 C 168.332031 81.511719 167.917969 81.941406 167.601562 82.523438 C 167.285156 83.109375 167.125 83.816406 167.125 84.652344 C 167.125 85.503906 167.277344 86.21875 167.582031 86.800781 C 167.898438 87.386719 168.316406 87.820312 168.832031 88.113281 C 169.351562 88.390625 169.921875 88.53125 170.539062 88.53125 Z M 192.269531 79.464844 L 189.023438 89.882812 L 187.242188 89.882812 L 184.738281 81.613281 L 182.234375 89.882812 L 180.453125 89.882812 L 177.191406 79.464844 L 178.953125 79.464844 L 181.34375 88.207031 L 183.921875 79.464844 L 185.6875 79.464844 L 188.210938 88.226562 L 190.5625 79.464844 Z M 203.746094 84.273438 C 203.746094 84.601562 203.726562 84.953125 203.691406 85.320312 L 195.382812 85.320312 C 195.445312 86.34375 195.792969 87.152344 196.425781 87.734375 C 197.070312 88.304688 197.847656 88.589844 198.757812 88.589844 C 199.503906 88.589844 200.125 88.417969 200.617188 88.074219 C 201.125 87.722656 201.476562 87.25 201.679688 86.667969 L 203.539062 86.667969 C 203.261719 87.671875 202.703125 88.488281 201.871094 89.121094 C 201.035156 89.742188 200 90.054688 198.757812 90.054688 C 197.773438 90.054688 196.886719 89.832031 196.105469 89.386719 C 195.332031 88.945312 194.726562 88.316406 194.285156 87.503906 C 193.839844 86.679688 193.621094 85.730469 193.621094 84.652344 C 193.621094 83.578125 193.835938 82.632812 194.265625 81.820312 C 194.695312 81.011719 195.296875 80.390625 196.066406 79.957031 C 196.851562 79.515625 197.75 79.292969 198.757812 79.292969 C 199.746094 79.292969 200.617188 79.507812 201.375 79.9375 C 202.136719 80.371094 202.71875 80.964844 203.121094 81.726562 C 203.539062 82.472656 203.746094 83.324219 203.746094 84.273438 Z M 201.964844 83.914062 C 201.964844 83.253906 201.820312 82.6875 201.527344 82.21875 C 201.238281 81.738281 200.839844 81.378906 200.332031 81.136719 C 199.839844 80.882812 199.289062 80.757812 198.683594 80.757812 C 197.8125 80.757812 197.066406 81.035156 196.445312 81.59375 C 195.839844 82.152344 195.492188 82.921875 195.402344 83.914062 Z M 208.035156 81.15625 C 208.339844 80.558594 208.769531 80.097656 209.324219 79.769531 C 209.894531 79.4375 210.582031 79.273438 211.394531 79.273438 L 211.394531 81.0625 L 210.9375 81.0625 C 209.003906 81.0625 208.035156 82.113281 208.035156 84.214844 L 208.035156 89.882812 L 206.308594 89.882812 L 206.308594 79.464844 L 208.035156 79.464844 Z M 214.5625 77.773438 C 214.230469 77.773438 213.953125 77.65625 213.726562 77.429688 C 213.5 77.203125 213.386719 76.921875 213.386719 76.59375 C 213.386719 76.261719 213.5 75.984375 213.726562 75.757812 C 213.953125 75.527344 214.230469 75.414062 214.5625 75.414062 C 214.875 75.414062 215.140625 75.527344 215.355469 75.757812 C 215.585938 75.984375 215.699219 76.261719 215.699219 76.59375 C 215.699219 76.921875 215.585938 77.203125 215.355469 77.429688 C 215.140625 77.65625 214.875 77.773438 214.5625 77.773438 Z M 215.394531 79.464844 L 215.394531 89.882812 L 213.667969 89.882812 L 213.667969 79.464844 Z M 223.683594 79.273438 C 224.949219 79.273438 225.972656 79.660156 226.757812 80.433594 C 227.542969 81.195312 227.933594 82.296875 227.933594 83.742188 L 227.933594 89.882812 L 226.226562 89.882812 L 226.226562 83.988281 C 226.226562 82.949219 225.96875 82.15625 225.449219 81.613281 C 224.929688 81.054688 224.222656 80.777344 223.324219 80.777344 C 222.414062 80.777344 221.6875 81.0625 221.144531 81.632812 C 220.613281 82.203125 220.347656 83.03125 220.347656 84.121094 L 220.347656 89.882812 L 218.621094 89.882812 L 218.621094 79.464844 L 220.347656 79.464844 L 220.347656 80.945312 C 220.6875 80.414062 221.148438 80.003906 221.730469 79.710938 C 222.324219 79.417969 222.976562 79.273438 223.683594 79.273438 Z M 235.324219 79.292969 C 236.222656 79.292969 237.003906 79.488281 237.671875 79.882812 C 238.355469 80.273438 238.863281 80.769531 239.191406 81.363281 L 239.191406 79.464844 L 240.9375 79.464844 L 240.9375 90.109375 C 240.9375 91.058594 240.734375 91.902344 240.332031 92.636719 C 239.925781 93.386719 239.34375 93.96875 238.585938 94.386719 C 237.835938 94.804688 236.96875 95.015625 235.96875 95.015625 C 234.601562 95.015625 233.464844 94.691406 232.554688 94.046875 C 231.644531 93.398438 231.105469 92.519531 230.941406 91.402344 L 232.648438 91.402344 C 232.835938 92.035156 233.230469 92.542969 233.824219 92.921875 C 234.417969 93.316406 235.132812 93.511719 235.96875 93.511719 C 236.914062 93.511719 237.6875 93.214844 238.28125 92.621094 C 238.890625 92.023438 239.191406 91.1875 239.191406 90.109375 L 239.191406 87.921875 C 238.851562 88.53125 238.34375 89.039062 237.671875 89.445312 C 237.003906 89.851562 236.222656 90.054688 235.324219 90.054688 C 234.402344 90.054688 233.558594 89.824219 232.800781 89.367188 C 232.054688 88.910156 231.464844 88.273438 231.035156 87.449219 C 230.605469 86.625 230.394531 85.6875 230.394531 84.632812 C 230.394531 83.570312 230.605469 82.636719 231.035156 81.839844 C 231.464844 81.027344 232.054688 80.402344 232.800781 79.957031 C 233.558594 79.515625 234.402344 79.292969 235.324219 79.292969 Z M 239.191406 84.652344 C 239.191406 83.867188 239.035156 83.183594 238.71875 82.601562 C 238.402344 82.015625 237.972656 81.574219 237.425781 81.269531 C 236.898438 80.953125 236.308594 80.792969 235.664062 80.792969 C 235.019531 80.792969 234.433594 80.945312 233.898438 81.25 C 233.371094 81.554688 232.945312 82 232.628906 82.582031 C 232.3125 83.164062 232.15625 83.847656 232.15625 84.632812 C 232.15625 85.433594 232.3125 86.128906 232.628906 86.726562 C 232.945312 87.308594 233.371094 87.757812 233.898438 88.074219 C 234.433594 88.378906 235.019531 88.53125 235.664062 88.53125 C 236.308594 88.53125 236.898438 88.378906 237.425781 88.074219 C 237.972656 87.757812 238.402344 87.308594 238.71875 86.726562 C 239.035156 86.128906 239.191406 85.4375 239.191406 84.652344 Z M 251.203125 78.039062 L 251.203125 82.46875 L 256.019531 82.46875 L 256.019531 83.894531 L 251.203125 83.894531 L 251.203125 88.457031 L 256.589844 88.457031 L 256.589844 89.882812 L 249.476562 89.882812 L 249.476562 76.613281 L 256.589844 76.613281 L 256.589844 78.039062 Z M 258.84375 84.652344 C 258.84375 83.578125 259.054688 82.636719 259.484375 81.839844 C 259.917969 81.027344 260.507812 80.402344 261.269531 79.957031 C 262.039062 79.515625 262.917969 79.292969 263.902344 79.292969 C 265.183594 79.292969 266.230469 79.601562 267.050781 80.222656 C 267.886719 80.84375 268.433594 81.707031 268.703125 82.808594 L 266.84375 82.808594 C 266.667969 82.175781 266.320312 81.675781 265.800781 81.308594 C 265.296875 80.941406 264.664062 80.757812 263.902344 80.757812 C 262.917969 80.757812 262.121094 81.097656 261.515625 81.78125 C 260.910156 82.453125 260.605469 83.410156 260.605469 84.652344 C 260.605469 85.910156 260.910156 86.878906 261.515625 87.5625 C 262.121094 88.246094 262.917969 88.589844 263.902344 88.589844 C 264.664062 88.589844 265.296875 88.410156 265.800781 88.058594 C 266.308594 87.703125 266.652344 87.195312 266.84375 86.535156 L 268.703125 86.535156 C 268.421875 87.601562 267.867188 88.457031 267.035156 89.101562 C 266.199219 89.734375 265.15625 90.054688 263.902344 90.054688 C 262.917969 90.054688 262.039062 89.832031 261.269531 89.386719 C 260.507812 88.945312 259.917969 88.316406 259.484375 87.503906 C 259.054688 86.695312 258.84375 85.742188 258.84375 84.652344 Z M 275.820312 90.054688 C 274.847656 90.054688 273.964844 89.832031 273.167969 89.386719 C 272.382812 88.945312 271.765625 88.316406 271.3125 87.503906 C 270.867188 86.679688 270.644531 85.730469 270.644531 84.652344 C 270.644531 83.589844 270.875 82.652344 271.328125 81.839844 C 271.796875 81.015625 272.425781 80.390625 273.226562 79.957031 C 274.023438 79.515625 274.914062 79.292969 275.898438 79.292969 C 276.882812 79.292969 277.777344 79.515625 278.574219 79.957031 C 279.371094 80.390625 279.996094 81.011719 280.449219 81.820312 C 280.917969 82.632812 281.152344 83.578125 281.152344 84.652344 C 281.152344 85.730469 280.914062 86.679688 280.433594 87.503906 C 279.964844 88.316406 279.324219 88.945312 278.515625 89.386719 C 277.707031 89.832031 276.808594 90.054688 275.820312 90.054688 Z M 275.820312 88.53125 C 276.445312 88.53125 277.023438 88.386719 277.566406 88.09375 C 278.109375 87.804688 278.546875 87.367188 278.875 86.78125 C 279.214844 86.199219 279.390625 85.492188 279.390625 84.652344 C 279.390625 83.816406 279.226562 83.109375 278.894531 82.523438 C 278.566406 81.941406 278.136719 81.511719 277.601562 81.230469 C 277.074219 80.941406 276.5 80.792969 275.878906 80.792969 C 275.246094 80.792969 274.667969 80.941406 274.132812 81.230469 C 273.617188 81.511719 273.199219 81.941406 272.886719 82.523438 C 272.566406 83.109375 272.410156 83.816406 272.410156 84.652344 C 272.410156 85.503906 272.558594 86.21875 272.863281 86.800781 C 273.179688 87.386719 273.597656 87.820312 274.117188 88.113281 C 274.632812 88.390625 275.203125 88.53125 275.820312 88.53125 Z M 296.203125 79.273438 C 297.015625 79.273438 297.734375 79.445312 298.363281 79.785156 C 299 80.117188 299.496094 80.617188 299.863281 81.289062 C 300.230469 81.960938 300.414062 82.777344 300.414062 83.742188 L 300.414062 89.882812 L 298.707031 89.882812 L 298.707031 83.988281 C 298.707031 82.949219 298.445312 82.15625 297.929688 81.613281 C 297.425781 81.054688 296.734375 80.777344 295.863281 80.777344 C 294.964844 80.777344 294.25 81.066406 293.71875 81.648438 C 293.1875 82.21875 292.921875 83.050781 292.921875 84.140625 L 292.921875 89.882812 L 291.214844 89.882812 L 291.214844 83.988281 C 291.214844 82.949219 290.957031 82.15625 290.4375 81.613281 C 289.933594 81.054688 289.242188 80.777344 288.371094 80.777344 C 287.472656 80.777344 286.757812 81.066406 286.226562 81.648438 C 285.695312 82.21875 285.433594 83.050781 285.433594 84.140625 L 285.433594 89.882812 L 283.707031 89.882812 L 283.707031 79.464844 L 285.433594 79.464844 L 285.433594 80.964844 C 285.773438 80.421875 286.226562 80.003906 286.800781 79.710938 C 287.378906 79.417969 288.015625 79.273438 288.710938 79.273438 C 289.585938 79.273438 290.359375 79.46875 291.027344 79.863281 C 291.695312 80.257812 292.195312 80.832031 292.523438 81.59375 C 292.8125 80.859375 293.292969 80.289062 293.964844 79.882812 C 294.636719 79.476562 295.382812 79.273438 296.203125 79.273438 Z M 316.027344 79.273438 C 316.835938 79.273438 317.558594 79.445312 318.191406 79.785156 C 318.820312 80.117188 319.320312 80.617188 319.6875 81.289062 C 320.054688 81.960938 320.234375 82.777344 320.234375 83.742188 L 320.234375 89.882812 L 318.53125 89.882812 L 318.53125 83.988281 C 318.53125 82.949219 318.269531 82.15625 317.753906 81.613281 C 317.246094 81.054688 316.558594 80.777344 315.6875 80.777344 C 314.785156 80.777344 314.074219 81.066406 313.542969 81.648438 C 313.015625 82.21875 312.746094 83.050781 312.746094 84.140625 L 312.746094 89.882812 L 311.039062 89.882812 L 311.039062 83.988281 C 311.039062 82.949219 310.78125 82.15625 310.261719 81.613281 C 309.757812 81.054688 309.070312 80.777344 308.195312 80.777344 C 307.296875 80.777344 306.582031 81.066406 306.050781 81.648438 C 305.519531 82.21875 305.253906 83.050781 305.253906 84.140625 L 305.253906 89.882812 L 303.53125 89.882812 L 303.53125 79.464844 L 305.253906 79.464844 L 305.253906 80.964844 C 305.59375 80.421875 306.050781 80.003906 306.621094 79.710938 C 307.203125 79.417969 307.839844 79.273438 308.535156 79.273438 C 309.40625 79.273438 310.179688 79.46875 310.851562 79.863281 C 311.519531 80.257812 312.019531 80.832031 312.347656 81.59375 C 312.636719 80.859375 313.117188 80.289062 313.789062 79.882812 C 314.460938 79.476562 315.207031 79.273438 316.027344 79.273438 Z M 332.835938 84.273438 C 332.835938 84.601562 332.816406 84.953125 332.777344 85.320312 L 324.472656 85.320312 C 324.535156 86.34375 324.882812 87.152344 325.511719 87.734375 C 326.160156 88.304688 326.9375 88.589844 327.847656 88.589844 C 328.59375 88.589844 329.210938 88.417969 329.703125 88.074219 C 330.210938 87.722656 330.566406 87.25 330.769531 86.667969 L 332.628906 86.667969 C 332.347656 87.671875 331.792969 88.488281 330.957031 89.121094 C 330.125 89.742188 329.085938 90.054688 327.847656 90.054688 C 326.863281 90.054688 325.976562 89.832031 325.191406 89.386719 C 324.417969 88.945312 323.816406 88.316406 323.371094 87.503906 C 322.929688 86.679688 322.707031 85.730469 322.707031 84.652344 C 322.707031 83.578125 322.921875 82.632812 323.351562 81.820312 C 323.785156 81.011719 324.382812 80.390625 325.15625 79.957031 C 325.9375 79.515625 326.835938 79.292969 327.847656 79.292969 C 328.835938 79.292969 329.703125 79.507812 330.464844 79.9375 C 331.222656 80.371094 331.804688 80.964844 332.210938 81.726562 C 332.628906 82.472656 332.835938 83.324219 332.835938 84.273438 Z M 331.050781 83.914062 C 331.050781 83.253906 330.90625 82.6875 330.617188 82.21875 C 330.328125 81.738281 329.929688 81.378906 329.421875 81.136719 C 328.929688 80.882812 328.378906 80.757812 327.769531 80.757812 C 326.898438 80.757812 326.152344 81.035156 325.535156 81.59375 C 324.925781 82.152344 324.578125 82.921875 324.492188 83.914062 Z M 337.125 81.15625 C 337.425781 80.558594 337.855469 80.097656 338.414062 79.769531 C 338.984375 79.4375 339.671875 79.273438 340.480469 79.273438 L 340.480469 81.0625 L 340.027344 81.0625 C 338.089844 81.0625 337.125 82.113281 337.125 84.214844 L 337.125 89.882812 L 335.398438 89.882812 L 335.398438 79.464844 L 337.125 79.464844 Z M 342.109375 84.652344 C 342.109375 83.578125 342.328125 82.636719 342.757812 81.839844 C 343.1875 81.027344 343.78125 80.402344 344.539062 79.957031 C 345.3125 79.515625 346.1875 79.292969 347.175781 79.292969 C 348.449219 79.292969 349.503906 79.601562 350.324219 80.222656 C 351.15625 80.84375 351.707031 81.707031 351.976562 82.808594 L 350.117188 82.808594 C 349.941406 82.175781 349.59375 81.675781 349.074219 81.308594 C 348.570312 80.941406 347.9375 80.757812 347.175781 80.757812 C 346.1875 80.757812 345.394531 81.097656 344.789062 81.78125 C 344.179688 82.453125 343.875 83.410156 343.875 84.652344 C 343.875 85.910156 344.179688 86.878906 344.789062 87.5625 C 345.394531 88.246094 346.1875 88.589844 347.175781 88.589844 C 347.9375 88.589844 348.570312 88.410156 349.074219 88.058594 C 349.578125 87.703125 349.925781 87.195312 350.117188 86.535156 L 351.976562 86.535156 C 351.695312 87.601562 351.140625 88.457031 350.304688 89.101562 C 349.46875 89.734375 348.429688 90.054688 347.175781 90.054688 C 346.1875 90.054688 345.3125 89.832031 344.539062 89.386719 C 343.78125 88.945312 343.1875 88.316406 342.757812 87.503906 C 342.328125 86.695312 342.109375 85.742188 342.109375 84.652344 Z M 364.046875 84.273438 C 364.046875 84.601562 364.023438 84.953125 363.988281 85.320312 L 355.683594 85.320312 C 355.742188 86.34375 356.09375 87.152344 356.722656 87.734375 C 357.367188 88.304688 358.148438 88.589844 359.054688 88.589844 C 359.804688 88.589844 360.421875 88.417969 360.914062 88.074219 C 361.417969 87.722656 361.777344 87.25 361.976562 86.667969 L 363.835938 86.667969 C 363.558594 87.671875 363 88.488281 362.167969 89.121094 C 361.335938 89.742188 360.296875 90.054688 359.054688 90.054688 C 358.066406 90.054688 357.1875 89.832031 356.398438 89.386719 C 355.628906 88.945312 355.023438 88.316406 354.578125 87.503906 C 354.136719 86.679688 353.917969 85.730469 353.917969 84.652344 C 353.917969 83.578125 354.132812 82.632812 354.5625 81.820312 C 354.988281 81.011719 355.59375 80.390625 356.363281 79.957031 C 357.148438 79.515625 358.042969 79.292969 359.054688 79.292969 C 360.042969 79.292969 360.914062 79.507812 361.671875 79.9375 C 362.433594 80.371094 363.011719 80.964844 363.417969 81.726562 C 363.835938 82.472656 364.046875 83.324219 364.046875 84.273438 Z M 362.261719 83.914062 C 362.261719 83.253906 362.117188 82.6875 361.824219 82.21875 C 361.53125 81.738281 361.136719 81.378906 360.628906 81.136719 C 360.136719 80.882812 359.585938 80.757812 358.980469 80.757812 C 358.109375 80.757812 357.363281 81.035156 356.742188 81.59375 C 356.136719 82.152344 355.789062 82.921875 355.699219 83.914062 Z M 362.261719 83.914062 "/>
<g clip-path="url(#clip1)" clip-rule="nonzero">
<path style=" stroke:none;fill-rule:nonzero;fill:rgb(0%,0%,0%);fill-opacity:1;" d="M 140.792969 21.265625 C 145.757812 21.265625 150.097656 22.253906 153.808594 24.226562 C 157.519531 26.199219 160.382812 28.976562 162.398438 32.5625 C 164.453125 36.105469 165.484375 40.207031 165.484375 44.871094 C 165.484375 49.488281 164.453125 53.589844 162.398438 57.175781 C 160.382812 60.765625 157.5 63.542969 153.742188 65.515625 C 150.03125 67.488281 145.714844 68.476562 140.792969 68.476562 L 123.148438 68.476562 L 123.148438 21.265625 Z M 140.054688 58.523438 C 144.394531 58.523438 147.769531 57.335938 150.1875 54.957031 C 152.601562 52.582031 153.808594 49.21875 153.808594 44.871094 C 153.808594 40.523438 152.601562 37.136719 150.1875 34.714844 C 147.769531 32.296875 144.394531 31.085938 140.054688 31.085938 L 134.621094 31.085938 L 134.621094 58.523438 Z M 207.179688 49.109375 C 207.179688 50.183594 207.113281 51.304688 206.980469 52.46875 L 181.015625 52.46875 C 181.195312 54.800781 181.933594 56.59375 183.230469 57.851562 C 184.574219 59.058594 186.207031 59.664062 188.128906 59.664062 C 190.992188 59.664062 192.980469 58.453125 194.097656 56.035156 L 206.308594 56.035156 C 205.683594 58.5 204.542969 60.71875 202.886719 62.691406 C 201.277344 64.664062 199.242188 66.210938 196.78125 67.332031 C 194.324219 68.453125 191.574219 69.011719 188.53125 69.011719 C 184.863281 69.011719 181.597656 68.230469 178.738281 66.660156 C 175.875 65.089844 173.636719 62.847656 172.027344 59.933594 C 170.417969 57.019531 169.613281 53.613281 169.613281 49.710938 C 169.613281 45.8125 170.394531 42.40625 171.960938 39.492188 C 173.570312 36.578125 175.808594 34.335938 178.667969 32.765625 C 181.53125 31.195312 184.820312 30.410156 188.53125 30.410156 C 192.152344 30.410156 195.375 31.175781 198.191406 32.699219 C 201.007812 34.222656 203.199219 36.398438 204.765625 39.222656 C 206.375 42.046875 207.179688 45.339844 207.179688 49.109375 Z M 195.441406 46.082031 C 195.441406 44.109375 194.769531 42.539062 193.429688 41.375 C 192.085938 40.207031 190.410156 39.625 188.398438 39.625 C 186.472656 39.625 184.839844 40.1875 183.5 41.308594 C 182.203125 42.425781 181.398438 44.019531 181.085938 46.082031 Z M 224.707031 36.261719 C 225.777344 34.515625 227.320312 33.101562 229.335938 32.027344 C 231.347656 30.949219 233.648438 30.410156 236.246094 30.410156 C 239.332031 30.410156 242.125 31.195312 244.632812 32.765625 C 247.132812 34.335938 249.105469 36.578125 250.535156 39.492188 C 252.007812 42.40625 252.75 45.789062 252.75 49.644531 C 252.75 53.5 252.007812 56.90625 250.535156 59.867188 C 249.105469 62.78125 247.132812 65.046875 244.632812 66.660156 C 242.125 68.230469 239.332031 69.011719 236.246094 69.011719 C 233.605469 69.011719 231.300781 68.496094 229.335938 67.464844 C 227.367188 66.390625 225.824219 64.976562 224.707031 63.230469 L 224.707031 68.476562 L 213.234375 68.476562 L 213.234375 18.710938 L 224.707031 18.710938 Z M 241.074219 49.644531 C 241.074219 46.777344 240.269531 44.535156 238.660156 42.921875 C 237.09375 41.261719 235.148438 40.433594 232.824219 40.433594 C 230.542969 40.433594 228.597656 41.261719 226.988281 42.921875 C 225.421875 44.578125 224.636719 46.84375 224.636719 49.710938 C 224.636719 52.582031 225.421875 54.847656 226.988281 56.503906 C 228.597656 58.164062 230.542969 58.992188 232.824219 58.992188 C 235.105469 58.992188 237.046875 58.164062 238.660156 56.503906 C 240.269531 54.800781 241.074219 52.515625 241.074219 49.644531 Z M 295.734375 30.949219 L 295.734375 68.476562 L 284.257812 68.476562 L 284.257812 63.363281 C 283.097656 65.023438 281.507812 66.367188 279.496094 67.398438 C 277.527344 68.386719 275.335938 68.878906 272.921875 68.878906 C 270.058594 68.878906 267.53125 68.25 265.34375 66.996094 C 263.148438 65.695312 261.449219 63.835938 260.242188 61.414062 C 259.035156 58.992188 258.433594 56.144531 258.433594 52.875 L 258.433594 30.949219 L 269.835938 30.949219 L 269.835938 51.328125 C 269.835938 53.835938 270.484375 55.789062 271.78125 57.175781 C 273.078125 58.566406 274.824219 59.261719 277.015625 59.261719 C 279.25 59.261719 281.019531 58.566406 282.316406 57.175781 C 283.613281 55.789062 284.257812 53.835938 284.257812 51.328125 L 284.257812 30.949219 Z M 324.835938 58.722656 L 324.835938 68.476562 L 319 68.476562 C 314.839844 68.476562 311.597656 67.464844 309.273438 65.449219 C 306.945312 63.386719 305.78125 60.046875 305.78125 55.429688 L 305.78125 40.5 L 301.21875 40.5 L 301.21875 30.949219 L 305.78125 30.949219 L 305.78125 21.804688 L 317.257812 21.804688 L 317.257812 30.949219 L 324.769531 30.949219 L 324.769531 40.5 L 317.257812 40.5 L 317.257812 55.5625 C 317.257812 56.683594 317.523438 57.492188 318.058594 57.984375 C 318.597656 58.476562 319.492188 58.722656 320.742188 58.722656 Z M 336.996094 27.050781 C 334.984375 27.050781 333.328125 26.46875 332.03125 25.300781 C 330.78125 24.089844 330.152344 22.613281 330.152344 20.863281 C 330.152344 19.070312 330.78125 17.589844 332.03125 16.425781 C 333.328125 15.214844 334.984375 14.609375 336.996094 14.609375 C 338.960938 14.609375 340.574219 15.214844 341.828125 16.425781 C 343.125 17.589844 343.769531 19.070312 343.769531 20.863281 C 343.769531 22.613281 343.125 24.089844 341.828125 25.300781 C 340.574219 26.46875 338.960938 27.050781 336.996094 27.050781 Z M 342.699219 30.949219 L 342.699219 68.476562 L 331.226562 68.476562 L 331.226562 30.949219 Z M 369.796875 40.5 L 363.625 40.5 L 363.625 68.476562 L 352.152344 68.476562 L 352.152344 40.5 L 347.992188 40.5 L 347.992188 30.949219 L 352.152344 30.949219 L 352.152344 29.875 C 352.152344 25.257812 353.46875 21.757812 356.109375 19.382812 C 358.746094 16.960938 362.617188 15.75 367.714844 15.75 C 368.566406 15.75 369.191406 15.773438 369.597656 15.820312 L 369.597656 25.570312 C 367.402344 25.4375 365.859375 25.75 364.964844 26.511719 C 364.074219 27.273438 363.625 28.640625 363.625 30.613281 L 363.625 30.949219 L 369.796875 30.949219 Z M 413.429688 30.949219 L 389.945312 86.296875 L 377.601562 86.296875 L 386.1875 67.199219 L 370.957031 30.949219 L 383.773438 30.949219 L 392.425781 54.421875 L 401.015625 30.949219 Z M 413.429688 30.949219 "/>
</g>
<path style=" stroke:none;fill-rule:nonzero;fill:rgb(33.72549%,0%,89.019608%);fill-opacity:1;" d="M 108.933594 42.585938 C 107.695312 49.105469 103.988281 55.074219 98.507812 59.394531 C 98.277344 59.570312 98.0625 59.734375 97.855469 59.890625 C 98.984375 62.800781 99.558594 65.878906 99.558594 69.042969 C 99.558594 82.960938 88.261719 94.285156 74.378906 94.285156 C 68.890625 94.285156 63.570312 92.484375 59.214844 89.179688 C 59.53125 88.800781 59.839844 88.414062 60.140625 88.019531 C 62.152344 85.363281 63.726562 82.425781 64.808594 79.285156 C 67.394531 81.71875 70.804688 83.085938 74.378906 83.085938 C 82.101562 83.085938 88.390625 76.789062 88.390625 69.042969 C 88.390625 66.160156 87.523438 63.386719 85.886719 61.035156 L 82.109375 55.597656 L 88.089844 52.769531 C 89.324219 52.1875 90.503906 51.453125 91.605469 50.585938 C 98.316406 45.308594 100.238281 36.496094 95.890625 30.945312 C 93.71875 28.171875 90.339844 26.644531 86.378906 26.644531 C 79.539062 26.644531 74.425781 30.859375 70.800781 35.75 C 69.402344 37.636719 68.226562 39.621094 67.253906 41.503906 C 65.632812 44.648438 64.238281 48.179688 63.109375 52 C 61.367188 57.886719 60.371094 64.097656 60.371094 69.042969 C 60.371094 71.84375 59.914062 74.597656 59.011719 77.222656 C 58.140625 79.761719 56.871094 82.140625 55.242188 84.289062 C 54.191406 85.675781 53 86.949219 51.703125 88.082031 C 47.125 92.082031 41.257812 94.285156 35.1875 94.285156 C 32.859375 94.285156 30.601562 93.964844 28.460938 93.367188 C 17.832031 90.410156 10.007812 80.628906 10.007812 69.042969 C 10.007812 65.878906 10.582031 62.800781 11.714844 59.890625 C 11.488281 59.722656 11.273438 59.558594 11.0625 59.390625 C 5.578125 55.074219 1.875 49.105469 0.636719 42.585938 C -0.65625 35.777344 0.855469 29.1875 4.890625 24.03125 C 9.164062 18.578125 15.832031 15.449219 23.1875 15.449219 C 29.675781 15.449219 35.652344 17.617188 40.953125 21.894531 C 44.878906 25.0625 48.359375 29.34375 51.3125 34.640625 C 50.300781 36.691406 49.355469 38.871094 48.5 41.132812 C 47.441406 43.917969 46.523438 46.800781 45.753906 49.746094 C 44.765625 46.789062 43.613281 44.023438 42.3125 41.503906 C 38.820312 34.726562 32.664062 26.644531 23.1875 26.644531 C 19.226562 26.644531 15.847656 28.171875 13.675781 30.945312 C 9.332031 36.496094 11.253906 45.304688 17.960938 50.585938 C 19.0625 51.449219 20.246094 52.183594 21.480469 52.769531 L 27.460938 55.59375 L 23.683594 61.03125 C 22.046875 63.386719 21.179688 66.15625 21.179688 69.042969 C 21.179688 74.34375 24.125 78.96875 28.464844 81.359375 C 30.460938 82.460938 32.753906 83.085938 35.191406 83.085938 C 39.300781 83.085938 43.195312 81.273438 45.871094 78.121094 C 48.019531 75.582031 49.203125 72.359375 49.203125 69.042969 C 49.203125 66.644531 49.402344 62.6875 50.351562 57.441406 C 51.234375 52.550781 52.546875 47.800781 54.246094 43.324219 C 55.097656 41.089844 56.042969 38.933594 57.050781 36.929688 L 57.09375 36.847656 C 57.171875 36.6875 57.253906 36.527344 57.335938 36.363281 C 58.410156 34.28125 59.558594 32.347656 60.78125 30.558594 C 63.136719 27.101562 65.757812 24.203125 68.621094 21.894531 C 73.921875 17.617188 79.898438 15.449219 86.386719 15.449219 C 93.738281 15.449219 100.410156 18.578125 104.683594 24.03125 L 104.804688 24.191406 C 108.746094 29.324219 110.214844 35.847656 108.933594 42.585938 Z M 108.933594 42.585938 "/>
</g>
</svg>
