<?xml version="1.0" encoding="utf-8"?>
<!-- Generator: Moho 13.0.2 build 610 -->
<!DOCTYPE svg PUBLIC "-//W3C//DTD SVG 1.1//EN" "http://www.w3.org/Graphics/SVG/1.1/DTD/svg11.dtd">
<svg version="1.1" id="Frame_0" xmlns="http://www.w3.org/2000/svg" xmlns:xlink="http://www.w3.org/1999/xlink" width="300px" height="50px">
<g id="Layer_6">
<path id="_last_brush_shape_" fill="#42ffbb" fill-rule="evenodd" stroke="#2dffb3" stroke-width="0" stroke-linejoin="round" d="M 4.860 10.924 C 5.449 13.791 7.126 15.786 8.876 17.978 C 3.774 18.479 4.424 20.231 2.626 22.230 C 1.298 25.048 4.378 39.843 8.028 43.284 C 15.092 49.945 37.404 45.061 51.635 44.548 C 85.254 40.737 119.961 41.982 153.786 41.849 C 195.240 41.687 236.766 40.535 278.116 43.498 C 283.879 43.386 286.876 46.353 294.009 39.828 C 296.010 37.997 294.274 31.111 294.274 31.111 C 294.274 31.108 300.518 21.471 296.525 12.759 C 295.584 10.706 293.127 8.181 291.227 7.559 C 289.262 6.916 287.472 6.558 285.338 6.453 C 276.743 6.030 163.966 5.642 153.119 7.249 C 122.087 9.539 19.375 6.899 14.529 5.112 C 14.127 4.964 3.813 5.822 4.860 10.924 Z"/>
</g>
</svg>
