<?xml version="1.0" encoding="utf-8"?>
<!-- Generator: Moho 13.0.2 build 610 -->
<!DOCTYPE svg PUBLIC "-//W3C//DTD SVG 1.1//EN" "http://www.w3.org/Graphics/SVG/1.1/DTD/svg11.dtd">
<svg version="1.1" id="Frame_0" xmlns="http://www.w3.org/2000/svg" xmlns:xlink="http://www.w3.org/1999/xlink" width="200px" height="50px">
<g id="Layer_5">
<path id="_last_brush_shape_" fill="#42ffbb" fill-rule="evenodd" stroke="#2dffb3" stroke-width="0" stroke-linejoin="round" d="M 4.555 11.939 C 5.137 14.792 6.743 16.812 8.483 18.993 C 3.457 19.485 4.136 21.271 2.370 23.245 C 1.052 26.064 3.755 41.154 7.653 44.299 C 10.398 46.515 18.331 44.766 23.502 44.588 C 49.966 41.637 77.298 43.566 103.919 43.650 C 128.540 43.727 153.205 42.765 177.765 44.514 C 183.408 44.401 186.333 47.240 193.309 40.843 C 195.308 39.010 193.569 32.126 193.568 32.126 C 193.569 32.123 199.722 22.502 195.770 13.774 C 194.849 11.740 192.463 9.202 190.589 8.574 C 188.669 7.931 186.918 7.567 184.829 7.468 C 179.546 7.218 110.248 7.628 103.579 8.602 C 83.516 10.043 17.140 7.293 14.011 6.128 C 13.616 5.980 3.533 6.918 4.555 11.939 Z"/>
</g>
</svg>
