<svg id="eofKsj3YaGu1" xmlns="http://www.w3.org/2000/svg" xmlns:xlink="http://www.w3.org/1999/xlink" viewBox="0 0 86 86" shape-rendering="geometricPrecision" text-rendering="geometricPrecision"><style><![CDATA[#eofKsj3YaGu1{pointer-events: all}#eofKsj3YaGu1.hover #eofKsj3YaGu4_ts {animation: eofKsj3YaGu4_ts__ts 2307.6923076923076ms linear 1 normal forwards}@keyframes eofKsj3YaGu4_ts__ts { 0% {transform: translate(42.539567px,42.539342px) scale(1,1)} 13.333333% {transform: translate(42.539567px,42.539342px) scale(1.022940,1.022940)} 100% {transform: translate(42.539567px,42.539342px) scale(1.022940,1.022940)}} #eofKsj3YaGu1.hover #eofKsj3YaGu4 {animation: eofKsj3YaGu4_c_o 2307.6923076923076ms linear 1 normal forwards}@keyframes eofKsj3YaGu4_c_o { 0% {opacity: 0.510000} 13.333333% {opacity: 1} 100% {opacity: 1}} #eofKsj3YaGu1.hover #eofKsj3YaGu6_ts {animation: eofKsj3YaGu6_ts__ts 2307.6923076923076ms linear 1 normal forwards}@keyframes eofKsj3YaGu6_ts__ts { 0% {transform: translate(45.940982px,43.119839px) scale(0.977323,0.977323)} 13.333333% {transform: translate(45.940982px,43.119839px) scale(1.132394,1.132394)} 100% {transform: translate(45.940982px,43.119839px) scale(1.132394,1.132394)}} #eofKsj3YaGu1.hover #eofKsj3YaGu7_ts {animation: eofKsj3YaGu7_ts__ts 2307.6923076923076ms linear 1 normal forwards}@keyframes eofKsj3YaGu7_ts__ts { 0% {transform: translate(42.539501px,42.539501px) scale(1,1)} 13.333333% {transform: translate(42.539501px,42.539501px) scale(0.823788,0.823788)} 100% {transform: translate(42.539501px,42.539501px) scale(0.823788,0.823788)}}]]></style><g id="eofKsj3YaGu2" transform="matrix(0.78964297266955 0 0 0.78964297266955 9.79384512728668 8.93653997423801)"><rect id="eofKsj3YaGu3" display="none" width="124.436407" height="110.496809" rx="0" ry="0" transform="matrix(1.18998727676665 0 0 1.25508283953978 -31.62514384033336 -26.25609489188238)" fill="rgb(9,9,9)" stroke="none" stroke-width="0"/><g id="eofKsj3YaGu4_ts" transform="translate(42.539567,42.539342) scale(1,1)"><g id="eofKsj3YaGu4" transform="translate(-42.539567,-42.539342)" opacity="0.51"><path id="eofKsj3YaGu5" d="M42.539600,76.673900C61.391600,76.673900,76.674100,61.391300,76.674100,42.539300C76.674100,23.687300,61.391600,8.404790,42.539600,8.404790C23.687600,8.404790,8.405030,23.687300,8.405030,42.539300C8.405030,61.391300,23.687600,76.673900,42.539600,76.673900Z" fill="rgb(100,36,206)" stroke="none" stroke-width="1"/></g></g><g id="eofKsj3YaGu6_ts" transform="translate(45.940982,43.119839) scale(0.977323,0.977323)"><path id="eofKsj3YaGu6" d="M56.433300,44.940900L34.992000,55.747300C33.105100,56.776500,30.875200,55.404200,30.875200,53.174400L30.875200,31.733100C30.875200,29.674700,33.105100,28.130900,34.992000,29.160100L56.433300,39.966500C58.663200,40.995700,58.663200,43.911700,56.433300,44.940900Z" transform="translate(-44.490462,-42.463901)" fill="rgb(241,241,241)" stroke="none" stroke-width="1"/></g><g id="eofKsj3YaGu7_ts" transform="translate(42.539501,42.539501) scale(1,1)"><g id="eofKsj3YaGu7" transform="translate(-42.539501,-42.539501)" opacity="0.38"><path id="eofKsj3YaGu8" d="M42.539500,85.079000C66.033500,85.079000,85.079000,66.033500,85.079000,42.539500C85.079000,19.045600,66.033500,0,42.539500,0C19.045600,0,0,19.045600,0,42.539500C0,66.033500,19.045600,85.079000,42.539500,85.079000Z" opacity="0.38" fill="rgb(255,255,255)" stroke="none" stroke-width="1"/></g></g></g></svg>