<svg width="86" height="86" viewBox="0 0 86 86" fill="none" xmlns="http://www.w3.org/2000/svg">
<g opacity="0.38">
<path opacity="0.38" d="M42.5395 85.079C66.0335 85.079 85.079 66.0335 85.079 42.5395C85.079 19.0456 66.0335 0 42.5395 0C19.0456 0 0 19.0456 0 42.5395C0 66.0335 19.0456 85.079 42.5395 85.079Z" fill="white"/>
</g>
<g opacity="0.51">
<path d="M42.5396 76.6739C61.3916 76.6739 76.6741 61.3913 76.6741 42.5393C76.6741 23.6873 61.3916 8.40479 42.5396 8.40479C23.6876 8.40479 8.40503 23.6873 8.40503 42.5393C8.40503 61.3913 23.6876 76.6739 42.5396 76.6739Z" fill="#6424CE"/>
</g>
<path d="M56.4333 44.9409L34.992 55.7473C33.1051 56.7765 30.8752 55.4042 30.8752 53.1744V31.7331C30.8752 29.6747 33.1051 28.1309 34.992 29.1601L56.4333 39.9665C58.6632 40.9957 58.6632 43.9117 56.4333 44.9409Z" fill="#F1F1F1"/>
</svg>
