<?xml version="1.0" encoding="utf-8"?>
<!-- Generator: Moho 13.0.2 build 610 -->
<!DOCTYPE svg PUBLIC "-//W3C//DTD SVG 1.1//EN" "http://www.w3.org/Graphics/SVG/1.1/DTD/svg11.dtd">
<svg version="1.1" id="Frame_0" xmlns="http://www.w3.org/2000/svg" xmlns:xlink="http://www.w3.org/1999/xlink" width="180px" height="35px">
<g id="md">
<path fill="#42ffbb" fill-rule="evenodd" stroke="none" d="M 0.592 29.300 C 0.592 29.300 2.807 34.353 2.807 34.354 C 2.816 34.353 31.602 31.445 90.339 31.451 C 148.772 31.457 177.409 34.353 177.417 34.354 C 177.418 34.353 179.632 29.300 179.632 29.300 C 179.623 29.299 146.953 26.614 90.112 26.614 C 33.271 26.614 0.601 29.299 0.592 29.300 Z"/>
</g>
<g id="sm">
<path fill="#42ffbb" fill-rule="evenodd" stroke="none" d="M 30.831 48.405 C 30.831 48.406 33.060 53.459 33.060 53.459 C 33.066 53.459 51.850 50.551 90.263 50.557 C 128.474 50.563 147.158 53.459 147.164 53.459 C 147.164 53.459 149.393 48.406 149.393 48.405 C 149.387 48.405 127.775 45.719 90.112 45.719 C 52.450 45.719 30.837 48.405 30.831 48.405 Z"/>
</g>
</svg>
