<svg width="726" height="252" viewBox="0 0 726 252" fill="none" xmlns="http://www.w3.org/2000/svg">
<mask id="mask0" mask-type="alpha" maskUnits="userSpaceOnUse" x="0" y="0" width="726" height="252">
<path d="M0 29C0 12.9837 12.9837 0 29 0H697C713.016 0 726 12.9837 726 29V252H0V29Z" fill="#5600E3"/>
</mask>
<g mask="url(#mask0)">
<path d="M-3 -4.99999C-3 -21.0163 9.98374 -34 26 -34H705C721.016 -34 734 -21.0163 734 -5V261H-3V-4.99999Z" fill="#5600E3"/>
<path d="M567.589 -15.5249C479.876 24.9476 472.002 111.719 392.162 67.9398C368.383 54.8689 350.431 40.0657 327.597 35.1838C262.245 21.3256 243.033 115.499 183.034 107.31C144.768 101.956 87.1318 86.05 39.5743 140.696C15.1656 168.727 14.0632 201.798 11.3861 241.956C5.71702 325.893 -63.2572 350.932 -85.9337 441.484C-105.303 518.806 -67.3516 579.279 -2.4717 590.618C72.1717 603.846 125.241 559.436 206.341 520.381C277.677 486.05 323.817 539.436 407.909 555.972C466.018 567.468 515.15 537.547 549.795 489.83C595.148 427.468 599.557 372.822 607.273 307.468C615.619 235.342 652.941 202.743 682.389 166.68C772.937 55.8138 662.075 -59.147 567.589 -15.5249Z" fill="#6719E6" fill-opacity="0.8"/>
<path d="M181.983 116.663C171.189 118.961 170.654 114.825 149.373 100.807C126.943 85.9477 93.0315 95.7521 82.8503 126.927C79.329 137.574 79.2524 146.153 76.8794 158.485C73.1284 177.864 60.0383 183.455 48.8619 189.736C36.6138 196.553 4.23301 209.728 10.8929 249.329C14.7204 272.231 31.7912 289.772 56.7466 287.857C70.3726 286.785 82.7737 281.116 95.7873 276.214C141.182 258.98 139.191 262.427 187.112 267.865C187.189 266.563 189.026 267.865 195.915 267.252C228.066 264.342 231.511 238.835 236.564 210.418C244.065 167.906 272.313 164.919 278.437 140.714C280.35 133.131 277.518 122.791 267.949 115.131C240.774 93.3776 201.121 112.603 181.983 116.663Z" fill="url(#paint0_linear)" fill-opacity="0.6"/>
<path d="M657.547 207.426C645.459 206.829 646.056 202.289 627.446 181.427C607.857 159.349 569.15 160.215 549.579 190.434C542.848 200.742 540.351 209.825 534.363 222.244C524.93 241.754 509.48 244.006 495.865 247.527C480.962 251.317 442.93 256.189 438.837 300.087C436.444 325.468 449.599 348.884 476.59 353.872C491.335 356.566 506.076 354.039 521.251 352.498C574.221 346.977 571.14 350.075 620.403 369.326C620.851 367.965 622.432 369.864 629.907 371.152C664.806 377.107 675.64 351.008 688.998 322.272C708.922 279.269 739.704 284.044 753.011 260.081C757.175 252.572 757.085 240.802 749.1 229.981C726.421 199.252 678.976 208.501 657.547 207.426Z" fill="url(#paint1_linear)" fill-opacity="0.6"/>
</g>
<defs>
<linearGradient id="paint0_linear" x1="111.018" y1="93.4934" x2="156.202" y2="224.62" gradientUnits="userSpaceOnUse">
<stop stop-color="#5600E3"/>
<stop offset="1" stop-color="#541FAB"/>
</linearGradient>
<linearGradient id="paint1_linear" x1="588.852" y1="162.877" x2="599.927" y2="314.731" gradientUnits="userSpaceOnUse">
<stop stop-color="#5600E3"/>
<stop offset="1" stop-color="#541FAB"/>
</linearGradient>
</defs>
</svg>
