<svg id="ex6sumAGdtw1" xmlns="http://www.w3.org/2000/svg" xmlns:xlink="http://www.w3.org/1999/xlink" viewBox="0 0 768 432" shape-rendering="geometricPrecision" text-rendering="geometricPrecision"><style><![CDATA[#ex6sumAGdtw6_tk {animation: ex6sumAGdtw6_tk__tk 10000ms linear infinite normal forwards}@keyframes ex6sumAGdtw6_tk__tk { 0% {transform: translate(219.021896px,359.741516px) skewX(4.600000deg) skewY(0deg)} 25% {transform: translate(219.021896px,359.741516px) skewX(-12deg) skewY(0deg)} 50% {transform: translate(219.021896px,359.741516px) skewX(4.600000deg) skewY(0deg)} 75% {transform: translate(219.021896px,359.741516px) skewX(-12deg) skewY(0deg)} 100% {transform: translate(219.021896px,359.741516px) skewX(4.600000deg) skewY(0deg)}} #ex6sumAGdtw11_ts {animation: ex6sumAGdtw11_ts__ts 10000ms linear infinite normal forwards}@keyframes ex6sumAGdtw11_ts__ts { 0% {transform: translate(393.433975px,152.093994px) scale(1,1)} 25% {transform: translate(393.433975px,152.093994px) scale(1.039795,1.039795)} 50% {transform: translate(393.433975px,152.093994px) scale(1,1)} 75% {transform: translate(393.433975px,152.093994px) scale(1.039795,1.039795)} 100% {transform: translate(393.433975px,152.093994px) scale(1,1)}} #ex6sumAGdtw11 {animation: ex6sumAGdtw11_c_o 10000ms linear infinite normal forwards}@keyframes ex6sumAGdtw11_c_o { 0% {opacity: 1} 25% {opacity: 0.750000} 50% {opacity: 1} 75% {opacity: 0.750000} 100% {opacity: 1}} #ex6sumAGdtw13_tr {animation: ex6sumAGdtw13_tr__tr 10000ms linear infinite normal forwards}@keyframes ex6sumAGdtw13_tr__tr { 0% {transform: translate(330.316629px,240.249100px) rotate(0deg)} 25% {transform: translate(330.316629px,240.249100px) rotate(-6deg)} 50% {transform: translate(330.316629px,240.249100px) rotate(0deg)} 75% {transform: translate(330.316629px,240.249100px) rotate(-7deg)} 100% {transform: translate(330.316629px,240.249100px) rotate(0deg)}} #ex6sumAGdtw15_tr {animation: ex6sumAGdtw15_tr__tr 10000ms linear infinite normal forwards}@keyframes ex6sumAGdtw15_tr__tr { 0% {transform: translate(290.873566px,237.569000px) rotate(0deg)} 25% {transform: translate(290.873566px,237.569000px) rotate(-5.300000deg)} 50% {transform: translate(290.873566px,237.569000px) rotate(0deg)} 75% {transform: translate(290.873566px,237.569000px) rotate(-5.300000deg)} 100% {transform: translate(290.873566px,237.569000px) rotate(0deg)}} #ex6sumAGdtw25_tr {animation: ex6sumAGdtw25_tr__tr 10000ms linear infinite normal forwards}@keyframes ex6sumAGdtw25_tr__tr { 0% {transform: translate(309.553332px,238.137466px) rotate(0deg)} 25% {transform: translate(309.553332px,238.137466px) rotate(-5deg)} 50% {transform: translate(309.553332px,238.137466px) rotate(0deg)} 75% {transform: translate(309.553332px,238.137466px) rotate(-5deg)} 100% {transform: translate(309.553332px,238.137466px) rotate(0deg)}} #ex6sumAGdtw26_tr {animation: ex6sumAGdtw26_tr__tr 10000ms linear infinite normal forwards}@keyframes ex6sumAGdtw26_tr__tr { 0% {transform: translate(348.780518px,129.469000px) rotate(0deg)} 25% {transform: translate(348.780518px,129.469000px) rotate(-8deg)} 50% {transform: translate(348.780518px,129.469000px) rotate(0deg)} 75% {transform: translate(348.780518px,129.469000px) rotate(-8deg)} 100% {transform: translate(348.780518px,129.469000px) rotate(0deg)}} #ex6sumAGdtw44_tr {animation: ex6sumAGdtw44_tr__tr 10000ms linear infinite normal forwards}@keyframes ex6sumAGdtw44_tr__tr { 0% {transform: translate(370.896327px,154.642500px) rotate(0deg)} 25% {transform: translate(370.896327px,154.642500px) rotate(-3deg)} 50% {transform: translate(370.896327px,154.642500px) rotate(0deg)} 75% {transform: translate(370.896327px,154.642500px) rotate(-3deg)} 100% {transform: translate(370.896327px,154.642500px) rotate(0deg)}} #ex6sumAGdtw48_ts {animation: ex6sumAGdtw48_ts__ts 10000ms linear infinite normal forwards}@keyframes ex6sumAGdtw48_ts__ts { 0% {transform: translate(710.695740px,397.870438px) scale(1,1)} 55% {transform: translate(710.695740px,397.870438px) scale(1,1)} 100% {transform: translate(710.695740px,397.870438px) scale(1,1)}} #ex6sumAGdtw49_tr {animation: ex6sumAGdtw49_tr__tr 10000ms linear infinite normal forwards}@keyframes ex6sumAGdtw49_tr__tr { 0% {transform: translate(668.037000px,359.140503px) rotate(0deg)} 25% {transform: translate(668.037000px,359.140503px) rotate(-2.370000deg)} 50% {transform: translate(668.037000px,359.140503px) rotate(0deg)} 75% {transform: translate(668.037000px,359.140503px) rotate(2.370000deg)} 100% {transform: translate(668.037000px,359.140503px) rotate(0deg)}} #ex6sumAGdtw59_ts {animation: ex6sumAGdtw59_ts__ts 10000ms linear infinite normal forwards}@keyframes ex6sumAGdtw59_ts__ts { 0% {transform: translate(705.673492px,378.739502px) scale(1,1)} 5% {transform: translate(705.673492px,378.739502px) scale(1,1);animation-timing-function: step-end} 6% {transform: translate(705.673492px,378.739502px) scale(0.135866,0.135866)} 8% {transform: translate(705.673492px,378.739502px) scale(1.286006,1.286006)} 10% {transform: translate(705.673492px,378.739502px) scale(1,1)} 55% {transform: translate(705.673492px,378.739502px) scale(1,1);animation-timing-function: step-end} 56% {transform: translate(705.673492px,378.739502px) scale(0.135866,0.135866)} 58% {transform: translate(705.673492px,378.739502px) scale(1.286006,1.286006)} 60% {transform: translate(705.673492px,378.739502px) scale(1,1)} 100% {transform: translate(705.673492px,378.739502px) scale(1,1)}} #ex6sumAGdtw61_tr {animation: ex6sumAGdtw61_tr__tr 10000ms linear infinite normal forwards}@keyframes ex6sumAGdtw61_tr__tr { 0% {transform: translate(401.383833px,396.807648px) rotate(0deg)} 25% {transform: translate(401.383833px,396.807648px) rotate(2.370000deg)} 50% {transform: translate(401.383833px,396.807648px) rotate(0deg)} 75% {transform: translate(401.383833px,396.807648px) rotate(-2.370000deg)} 100% {transform: translate(401.383833px,396.807648px) rotate(0deg)}} #ex6sumAGdtw69_ts {animation: ex6sumAGdtw69_ts__ts 10000ms linear infinite normal forwards}@keyframes ex6sumAGdtw69_ts__ts { 0% {transform: translate(393.850510px,409.641006px) scale(1,1)} 15% {transform: translate(393.850510px,409.641006px) scale(1,1);animation-timing-function: step-end} 16% {transform: translate(393.850510px,409.641006px) scale(0.241078,0.241078)} 18% {transform: translate(393.850510px,409.641006px) scale(1.120548,1.120548)} 20% {transform: translate(393.850510px,409.641006px) scale(1,1)} 65% {transform: translate(393.850510px,409.641006px) scale(1,1);animation-timing-function: step-end} 66% {transform: translate(393.850510px,409.641006px) scale(0.241078,0.241078)} 68% {transform: translate(393.850510px,409.641006px) scale(1.120548,1.120548)} 70% {transform: translate(393.850510px,409.641006px) scale(1,1)} 100% {transform: translate(393.850510px,409.641006px) scale(1,1)}} #ex6sumAGdtw71_tr {animation: ex6sumAGdtw71_tr__tr 10000ms linear infinite normal forwards}@keyframes ex6sumAGdtw71_tr__tr { 0% {transform: translate(81.669533px,399.331398px) rotate(0deg)} 25% {transform: translate(81.669533px,399.331398px) rotate(-2.370000deg)} 50% {transform: translate(81.669533px,399.331398px) rotate(0deg)} 75% {transform: translate(81.669533px,399.331398px) rotate(-2.370000deg)} 100% {transform: translate(81.669533px,399.331398px) rotate(0deg)}} #ex6sumAGdtw81_ts {animation: ex6sumAGdtw81_ts__ts 10000ms linear infinite normal forwards}@keyframes ex6sumAGdtw81_ts__ts { 0% {transform: translate(77.222900px,366.381500px) scale(1,1)} 26% {transform: translate(77.222900px,366.381500px) scale(1,1);animation-timing-function: step-end} 27% {transform: translate(77.222900px,366.381500px) scale(0.243275,0.243275)} 29% {transform: translate(77.222900px,366.381500px) scale(1.280113,1.280113)} 32% {transform: translate(77.222900px,366.381500px) scale(1,1)} 100% {transform: translate(77.222900px,366.381500px) scale(1,1)}}]]></style><defs><linearGradient id="ex6sumAGdtw4-fill" x1="402.911000" y1="-0.907839" x2="372.240000" y2="363.801000" spreadMethod="pad" gradientUnits="userSpaceOnUse"><stop id="ex6sumAGdtw4-fill-0" offset="0%" stop-color="rgb(223,224,224)"/><stop id="ex6sumAGdtw4-fill-1" offset="100%" stop-color="rgba(38,128,193,0)"/></linearGradient><linearGradient id="ex6sumAGdtw5-fill" x1="405.714000" y1="451.975000" x2="390.143000" y2="275.261000" spreadMethod="pad" gradientUnits="userSpaceOnUse"><stop id="ex6sumAGdtw5-fill-0" offset="0%" stop-color="rgb(38,128,193)"/><stop id="ex6sumAGdtw5-fill-1" offset="100%" stop-color="rgba(38,128,193,0)"/></linearGradient></defs><g id="ex6sumAGdtw2" clip-path="url(#ex6sumAGdtw82)"><g id="ex6sumAGdtw3"><path id="ex6sumAGdtw4" d="M649.130000,120.088000C639.406000,89.926100,618.255000,62.952900,590.974000,47.369800C522.207000,8.077030,469.220000,69.334800,409.280000,93.778200C381.569000,105.079000,353.098000,102.576000,325.544000,92.300600C297.083000,81.685100,272.769000,62.497000,242.942000,54.610800C214.699000,47.153300,181.899000,49.430800,161.159000,71.668700C140.729000,93.559700,129.665000,122.906000,124.894000,152.113000C118.567000,190.780000,127.763000,229.461000,150.657000,261.306000C178.241000,299.684000,218.140000,326.696000,259.473000,348.512000C326.511000,383.882000,401.035000,403.392000,469.252000,358.118000C489.438000,344.724000,506.321000,327.228000,524.186000,311.028000C542.388000,294.513000,561.902000,283.006000,582.641000,270.264000C620.503000,247.010000,651.668000,209.376000,654.749000,163.691000C655.745000,149.025000,653.682000,134.211000,649.130000,120.088000Z" opacity="0.15" fill="url(#ex6sumAGdtw4-fill)" stroke="none" stroke-width="1"/><path id="ex6sumAGdtw5" d="M402.823000,389.302000C499.163000,389.302000,577.255000,372.423000,577.255000,351.628000C577.255000,330.834000,499.163000,313.953000,402.823000,313.953000C306.483000,313.953000,228.392000,330.834000,228.392000,351.628000C228.392000,372.423000,306.483000,389.302000,402.823000,389.302000Z" opacity="0.14" fill="url(#ex6sumAGdtw5-fill)" stroke="none" stroke-width="1"/><g id="ex6sumAGdtw6_tk" transform="translate(219.021896,359.741516) skewX(4.600000) skewY(0)"><g id="ex6sumAGdtw6" transform="translate(-219.021896,-359.741516)"><path id="ex6sumAGdtw7" d="M256.908000,346.990000C256.908000,346.990000,261.411000,286.153000,241.605000,283.164000C221.908000,280.174000,230.935000,304.345000,221.022000,300.729000C211.107000,297.134000,211.540000,264.386000,188.857000,266.314000C166.173000,268.263000,195.480000,294.231000,181.779000,294.231000C168.077000,294.231000,186.714000,309.847000,186.714000,322.170000C186.714000,334.494000,150.502000,308.503000,146.173000,325.159000C140.004000,349.048000,183.121000,347.401000,183.121000,347.401000L256.908000,346.990000Z" fill="rgb(86,77,159)" stroke="none" stroke-width="1"/><path id="ex6sumAGdtw8" d="M161.368000,344.889000C176.238000,341.598000,207.644000,337.374000,220.263000,345.496000C220.718000,346.102000,221.173000,346.535000,221.606000,347.293000L224.312000,347.293000C222.363000,344.672000,220.416000,341.900000,218.467000,339.215000C223.100000,325.397000,222.667000,309.500000,221.908000,301.248000C221.908000,301.248000,221.908000,301.248000,221.757000,301.248000C221.606000,301.248000,221.455000,301.248000,221.302000,300.880000C221.302000,300.880000,221.302000,300.880000,221.151000,300.880000C221.151000,300.880000,221.151000,300.880000,221,300.880000C221,300.880000,221,300.880000,220.848000,300.880000C220.848000,300.880000,220.848000,300.880000,220.697000,300.880000C220.697000,300.880000,220.697000,300.880000,220.545000,300.880000L220.394000,300.815000C220.242000,300.815000,220.242000,300.707000,220.091000,300.707000C220.848000,308.222000,221.584000,323.686000,217.385000,337.547000C214.830000,333.648000,212.450000,329.751000,210.003000,325.678000C214.940000,321.196000,214.506000,302.851000,213.446000,289.921000C213.293000,289.466000,213.142000,289.163000,212.991000,288.730000C212.991000,288.578000,212.991000,288.578000,212.840000,288.426000C212.234000,286.780000,211.497000,285.135000,210.740000,283.489000C212.385000,298.952000,212.840000,319.094000,208.944000,323.578000C196.476000,301.335000,187.298000,278.052000,183.705000,268.284000C182.948000,268.739000,182.363000,269.042000,181.909000,269.628000C185.047000,278.205000,192.277000,296.505000,202.060000,315.152000C207.298000,325.375000,212.732000,334.406000,217.818000,341.879000C203.251000,334.796000,166.606000,340.536000,156.389000,343.524000C157.623000,343.677000,159.419000,344.282000,161.368000,344.889000Z" fill="rgb(235,237,245)" stroke="none" stroke-width="1"/><path id="ex6sumAGdtw9" d="M284.636000,290.354000C289.376000,292.412000,292.233000,298.476000,290.221000,303.284000C289.160000,305.819000,286.953000,307.941000,286.302000,310.605000C285.545000,313.637000,286.302000,317.254000,286.216000,320.351000C286.065000,325.614000,283.727000,330.422000,279.636000,333.714000C275.112000,337.374000,268.424000,336.551000,264.355000,340.579000C261.606000,343.308000,262.839000,347.683000,261.996000,351.105000C258.533000,364.988000,237.688000,359.379000,229.745000,353.337000C221.238000,346.860000,213.250000,329.794000,224.745000,322.279000C228.727000,319.679000,234.029000,320.589000,237.926000,317.817000C243.077000,314.157000,240.848000,307.400000,243.489000,302.526000C249.181000,291.979000,259.896000,298.541000,268.013000,294.599000C273.467000,291.978000,278.099000,287.517000,284.636000,290.354000Z" fill="rgb(80,188,141)" stroke="none" stroke-width="1"/><path id="ex6sumAGdtw10" d="M278.575000,321.304000C278.467000,321.152000,278.294000,321.109000,278.142000,321.217000C274.463000,323.708000,270.523000,323.989000,266.411000,322.040000C263.316000,320.589000,261.282000,318.336000,261.259000,318.314000C261.735000,317.838000,262.212000,317.362000,262.688000,316.907000C264.874000,314.784000,267.082000,312.662000,269.290000,310.562000C269.376000,310.562000,269.485000,310.540000,269.550000,310.454000C269.593000,310.388000,269.615000,310.323000,269.615000,310.258000C272.493000,307.529000,275.393000,304.822000,278.316000,302.179000C278.381000,302.114000,278.381000,302.028000,278.338000,301.963000C278.273000,301.898000,278.185000,301.898000,278.121000,301.942000C275.134000,304.518000,272.191000,307.139000,269.268000,309.760000C268.099000,308.612000,263.488000,303.783000,265.805000,299.906000C265.892000,299.754000,265.848000,299.559000,265.697000,299.473000C265.545000,299.385000,265.350000,299.430000,265.264000,299.581000C264.052000,301.595000,264.333000,304.150000,266.108000,306.922000C266.931000,308.222000,267.883000,309.284000,268.489000,309.890000C268.597000,309.998000,268.705000,310.107000,268.792000,310.193000C266.562000,312.207000,264.333000,314.243000,262.125000,316.300000C257.883000,320.242000,253.684000,324.250000,249.571000,328.343000C248.099000,326.004000,244.311000,318.921000,248.099000,313.767000C248.208000,313.616000,248.185000,313.420000,248.034000,313.334000C247.883000,313.226000,247.687000,313.247000,247.601000,313.399000C243.511000,318.965000,247.644000,326.501000,249.116000,328.819000C248.294000,329.642000,247.450000,330.465000,246.649000,331.289000C242.060000,335.944000,237.580000,340.687000,233.337000,345.691000C231.454000,343.027000,226.043000,334.472000,229.657000,327.802000C229.745000,327.649000,229.680000,327.455000,229.528000,327.369000C229.376000,327.281000,229.182000,327.346000,229.094000,327.498000C227.212000,330.964000,227.385000,335.425000,229.571000,340.407000C230.718000,343.005000,232.147000,345.150000,232.904000,346.210000C232.623000,346.535000,232.320000,346.882000,232.039000,347.228000C230.653000,348.896000,229.311000,350.608000,227.992000,352.361000C228.553000,352.795000,229.051000,353.292000,229.484000,353.834000C230.762000,351.993000,232.125000,350.218000,233.511000,348.441000C234.982000,346.578000,236.497000,344.760000,238.034000,342.940000C240.285000,344.933000,247.796000,350.780000,254.853000,347.640000C255.004000,347.575000,255.090000,347.380000,255.004000,347.228000C254.939000,347.077000,254.745000,346.990000,254.593000,347.077000C247.861000,350.087000,240.611000,344.391000,238.446000,342.485000C241.411000,339.020000,244.485000,335.641000,247.623000,332.306000C251.930000,327.736000,256.324000,323.253000,260.805000,318.857000C260.827000,318.878000,260.892000,318.943000,260.978000,319.029000C262.233000,320.308000,270.025000,327.606000,278.510000,321.845000C278.619000,321.650000,278.662000,321.455000,278.575000,321.304000Z" fill="rgb(255,255,255)" stroke="none" stroke-width="1"/></g></g><g id="ex6sumAGdtw11_ts" transform="translate(393.433975,152.093994) scale(1,1)"><g id="ex6sumAGdtw11" style="mix-blend-mode:hard-light" transform="translate(-393.433975,-152.093994)"><circle id="ex6sumAGdtw12" r="144.552000" transform="matrix(1 0 0 1 393.43400000000003 152.09399999999999)" fill="rgb(250,248,218)" stroke="none" stroke-width="1"/></g></g><g id="ex6sumAGdtw13_tr" transform="translate(330.316629,240.249100) rotate(0)"><g id="ex6sumAGdtw13" style="mix-blend-mode:multiply" transform="translate(-330.316629,-240.249100)"><path id="ex6sumAGdtw14" d="M271.716000,150.959000C279.829000,149.323000,291.296000,146.489000,302.332000,143.518000C309.320000,122.896000,323.489000,104.221000,349.439000,94.273200C350.282000,93.711600,352.592000,93.338200,356.447000,94.666600C358.475000,93.360700,360.189000,92.299800,361.716000,91.355500L361.716000,91.355400C364.889000,89.392200,367.247000,87.932900,369.917000,85.823000C368.004000,85.168500,366.253000,83.123000,365.780000,81.703500C365.008000,79.388100,366.132000,77.072700,367.115000,75.048300C367.732000,73.775700,368.294000,72.618000,368.294000,71.647700L368.294000,66.619800C368.294000,65.657100,369.031000,65.063100,370.012000,64.273100C371.592000,63,373.803000,61.217900,374.579000,56.564000C375.432000,51.446000,378.021000,51.537700,383.526000,51.732400C386.133000,51.824700,389.394000,51.940000,393.434000,51.536100C402.705000,50.609000,407.873000,56.519700,411.964000,61.199000C413.420000,62.864000,414.740000,64.373100,416.059000,65.362800C419.685000,68.082000,417.316000,72.904600,411.031000,74.161600C410.251000,74.317600,409.607000,74.434900,409.055000,74.511000C408.657000,76.956000,408.017000,79.578800,407.211000,82.229000C407.223000,82.239500,407.235000,82.250400,407.246000,82.261700C424.671000,68.443400,439.800000,56.713100,448.478000,53.481800C464.608000,47.475300,474.737000,46.211200,477.785000,46.330000C477.228000,48.939300,476.551000,51.642500,475.870000,54.361100L475.870000,54.361200L475.870000,54.361300L475.870000,54.361400L475.870000,54.361400L475.846000,54.457000C477.822000,54.199800,479.711000,54.050000,481.422000,54.050000C479.830000,65.193800,486.106000,67.762100,493.992000,70.390700C493.992000,90.502300,502.791000,141.364000,507.819000,143.375000C490.165000,146.056000,462.738000,153.006000,438.506000,159.862000C436.973000,161.710000,431.813000,166.214000,429.886000,167.178000C428.618000,167.812000,426.619000,168.479000,424.893000,168.990000C424.488000,169.215000,424.057000,169.449000,423.601000,169.692000C416.343000,173.563000,394.367000,178.603000,381.642000,179.020000C378.402000,180.713000,374.868000,182.716000,371.106000,184.976000C374.736000,186.515000,378.713000,186.228000,380.864000,186.033000C379.782000,186.923000,378.620000,187.938000,377.390000,189.050000C393.395000,186.479000,408.638000,184.559000,415.385000,187.558000C416.074000,187.864000,416.719000,188.149000,417.323000,188.415000L417.333000,188.420000L417.334000,188.420000C422.275000,190.600000,424.450000,191.559000,425.403000,193.220000C426.153000,194.525000,426.147000,196.264000,426.137000,199.369000L426.136000,199.798000C426.135000,200.045000,426.135000,200.299000,426.135000,200.562000C426.135000,209.361000,414.822000,237.014000,408.537000,248.327000C404.921000,254.836000,404.339000,260.652000,403.985000,264.184000C403.848000,265.563000,403.744000,266.594000,403.509000,267.182000L397.293000,265.719000C397.145000,266.159000,397.058000,266.412000,397.058000,266.412000L416.221000,294.349000L398.841000,284.736000C402.914000,299.110000,403.385000,309.300000,403.385000,309.300000L399.974000,310.545000C400.290000,311.327000,400.483000,311.821000,400.483000,311.821000L432.480000,318.924000L394.180000,326.794000C392.947000,324.261000,391.525000,320.938000,390.064000,317.522000L390.063000,317.520000L390.054000,317.499000C389.644000,316.540000,389.230000,315.574000,388.817000,314.616000L386.033000,315.631000L364.965000,257.810000C331.094000,240.608000,315.725000,227.886000,311.809000,224.390000L299.160000,221.228000L298.836000,219.664000C298.025000,220.222000,297.285000,220.742000,296.625000,221.218000C295.968000,211.459000,290.755000,191.977000,287.848000,188.547000C286.220000,186.625000,282.995000,178.457000,279.555000,169.744000C276.851000,162.896000,274.015000,155.712000,271.716000,150.959000ZM377.300000,105.739000C377.231000,105.689000,377.162000,105.638000,377.093000,105.586000C376.830000,105.886000,376.581000,106.178000,376.344000,106.463000C376.662000,106.222000,376.981000,105.981000,377.300000,105.739000ZM385.065000,252.358000C379.889000,243.614000,373.259000,234.818000,364.770000,226.749000C377.239000,222.434000,389.539000,217.099000,396.531000,213.954000L385.065000,252.358000Z" clip-rule="evenodd" fill="rgb(38,7,89)" fill-rule="evenodd" stroke="none" stroke-width="1"/></g></g><g id="ex6sumAGdtw15_tr" transform="translate(290.873566,237.569000) rotate(0)"><g id="ex6sumAGdtw15" transform="translate(-290.873566,-237.569000)"><path id="ex6sumAGdtw16" d="M481.422000,66.619800C472.372000,66.619800,458.378000,70.809700,452.512000,72.904700C432.400000,81.703500,359.495000,145.809000,343.155000,152.094000C330.082000,157.122000,299.160000,164.245000,285.334000,167.178000L299.160000,233.798000L314.244000,237.569000C343.155000,214.943000,374.579000,193.574000,390.920000,187.290000C407.260000,181.005000,474.718000,160.973000,507.819000,155.945000C502.791000,153.934000,493.992000,103.072000,493.992000,82.960500C486.106000,80.331900,479.830000,77.763600,481.422000,66.619800Z" fill="rgb(12,203,135)" stroke="none" stroke-width="1"/><path id="ex6sumAGdtw17" d="M335.613000,145.809000C329.317000,148.957000,291.021000,159.636000,271.716000,163.529000C276.940000,174.330000,284.940000,197.685000,287.848000,201.116000C290.755000,204.547000,295.968000,224.029000,296.625000,233.788000C308.359000,225.318000,345.295000,203.250000,359.495000,193.575000C395.469000,169.062000,440.713000,156.050000,482.679000,145.809000C490.221000,145.809000,482.704000,105.329000,475.137000,95.530300C469.084000,87.691700,474.967000,72.094800,477.785000,58.899800C474.737000,58.781000,464.608000,60.045100,448.478000,66.051700C428.314000,73.559900,373.322000,126.955000,335.613000,145.809000Z" fill="rgb(36,226,158)" stroke="none" stroke-width="1"/><path id="ex6sumAGdtw18" d="M365.780000,131.983000C330.585000,155.865000,299.160000,162.988000,285.334000,169.692000C292.876000,179.748000,301.674000,203.630000,301.674000,217.457000C302.931000,212.429000,358.238000,182.262000,365.780000,175.977000C371.814000,170.949000,423.601000,145.809000,463.824000,135.754000C463.824000,121.927000,458.796000,108.100000,455.026000,100.558000C452.009000,94.524700,457.539000,74.161700,458.796000,69.133800C439.942000,69.133800,395.583000,111.759000,365.780000,131.983000Z" fill="none" stroke="rgb(255,255,255)" stroke-width="6.284880"/><path id="ex6sumAGdtw19" d="M490.800000,153.200000C486.640000,153.200000,452,162.933000,435.200000,167.800000C434,167.800000,484.800000,151.600000,488.400000,150.800000C491.280000,150.160000,492,141.467000,492,137.200000C492.960000,142,491.600000,149.867000,490.800000,153.200000Z" fill="rgb(3,153,99)" stroke="none" stroke-width="1"/><path id="ex6sumAGdtw20" d="M483.295000,90.800000C481.605000,89.642100,481.495000,79.917500,481.651000,75.200000C482.826000,77.290700,484,78.416500,484,78.416500C484,78.416500,482.278000,86.833000,483.295000,90.800000Z" fill="rgb(3,153,99)" stroke="none" stroke-width="1"/></g></g><g id="ex6sumAGdtw21" transform="matrix(1 0 0 1 0 1)"><g id="ex6sumAGdtw22"><path id="ex6sumAGdtw23" d="M400.483000,324.379000C400.483000,324.379000,397.817000,317.538000,396.004000,314.452000C392.294000,317.415000,388.687000,315.955000,384,316.919000C387.088000,322.415000,391.189000,333.207000,394.180000,339.353000L432.480000,331.482000L400.483000,324.379000Z" fill="rgb(0,46,79)" stroke="none" stroke-width="1"/><path id="ex6sumAGdtw24" d="M397.058000,278.971000C397.058000,278.971000,399.768000,271.103000,400.532000,267.142000C395.700000,267.259000,393.994000,263.526000,389.806000,261.209000C388.340000,268.170000,383.987000,280.509000,382.001000,287.980000L416.221000,306.907000L397.058000,278.971000Z" fill="rgb(0,46,79)" stroke="none" stroke-width="1"/><g id="ex6sumAGdtw25_tr" transform="translate(309.553332,238.137466) rotate(0)"><g id="ex6sumAGdtw25" transform="translate(-309.553332,-238.137466)"><g id="ex6sumAGdtw26_tr" transform="translate(348.780518,129.469000) rotate(0)"><g id="ex6sumAGdtw26" transform="translate(-348.780518,-129.469000)"><path id="ex6sumAGdtw27" d="M394.691000,118.156000C388.406000,121.927000,382.121000,121.927000,377.093000,118.156000C368.294000,128.212000,374.164000,129.469000,370.808000,129.469000C364.775000,129.469000,360.582000,129.341000,355.724000,125.698000C350.697000,121.927000,344.217000,115.353000,353.211000,109.357000C362.204000,103.361000,365.780000,101.815000,370.808000,97.673500C370.564000,93.132600,370.638000,88.592100,370.808000,85.474500C373.322000,64.105900,392.651000,65.795600,395.948000,66.619800C399.245000,67.444100,404.746000,69.133800,408.517000,76.675600C413.050000,85.739800,400.976000,114.385000,394.691000,118.156000Z" fill="rgb(245,157,155)" stroke="none" stroke-width="1"/><path id="ex6sumAGdtw28" d="M373.322000,110.614000C374.579000,114.385000,375.417000,116.899000,377.093000,118.156000C377.093000,118.156000,373.322000,118.156000,370.808000,113.128000C370.172000,111.856000,371.646000,103.910000,373.322000,100.558000C373.322000,101.815000,372.331000,107.640000,373.322000,110.614000Z" fill="rgb(238,148,148)" stroke="none" stroke-width="1"/><path id="ex6sumAGdtw29" d="M380.864000,86.731400C381.818000,83.869500,380.864000,79.189600,378.350000,79.189600C375.896000,79.189600,372.065000,80.446600,372.065000,89.245400C372.065000,93.016300,374.579000,95.530300,374.579000,95.530300C372.065000,101.815000,366.669000,96.939700,365.780000,94.273300C364.523000,90.502400,368.294000,86.731400,368.294000,84.217500L368.294000,79.189600C368.294000,76.675600,373.322000,76.675600,374.579000,69.133800C375.836000,61.591900,380.864000,65.362800,393.434000,64.105900C406.003000,62.848900,411.031000,74.161700,416.059000,77.932600C419.685000,80.651800,417.316000,85.474500,411.031000,86.731500C404.747000,87.988400,407.261000,86.731400,395.948000,81.703500C384.635000,76.675600,383.378000,93.976600,383.378000,96.787300C383.378000,99.301200,379.607000,98.044200,378.350000,96.787200C377.461000,95.898400,379.607000,90.502400,380.864000,86.731400Z" fill="rgb(47,46,127)" stroke="none" stroke-width="1"/><path id="ex6sumAGdtw30" d="M388.496000,88.778500C388.754000,88.134000,389.485000,87.820500,390.130000,88.078300C391.109000,88.470200,392.623000,88.931500,393.965000,89.062800C394.639000,89.128800,395.184000,89.102200,395.568000,88.998300C395.935000,88.899100,396.038000,88.767200,396.080000,88.683200C396.391000,88.062300,397.146000,87.810600,397.767000,88.121100C398.388000,88.431500,398.639000,89.186600,398.329000,89.807500C397.868000,90.729000,397.039000,91.204700,396.225000,91.425000C395.428000,91.640600,394.543000,91.645400,393.720000,91.564800C392.065000,91.402800,390.311000,90.858500,389.196000,90.412400C388.551000,90.154600,388.238000,89.423100,388.496000,88.778500Z" clip-rule="evenodd" fill="rgb(47,46,127)" fill-rule="evenodd" stroke="none" stroke-width="1"/><path id="ex6sumAGdtw31" d="M407.134000,96.022500C407.554000,95.502000,407.514000,94.905900,407.043000,94.690900C406.329000,94.364200,405.341000,93.775500,404.693000,93.092700C404.366000,92.749400,404.168000,92.425500,404.097000,92.147700C404.030000,91.882500,404.095000,91.747500,404.147000,91.674900C404.527000,91.138400,404.426000,90.564800,403.923000,90.393900C403.419000,90.222900,402.703000,90.519200,402.323000,91.055700C401.759000,91.851900,401.707000,92.597400,401.857000,93.186300C402.003000,93.762500,402.357000,94.266000,402.755000,94.685200C403.556000,95.527300,404.707000,96.203700,405.521000,96.575600C405.991000,96.790600,406.713000,96.542900,407.134000,96.022500Z" clip-rule="evenodd" fill="rgb(47,46,127)" fill-rule="evenodd" stroke="none" stroke-width="1"/><g id="ex6sumAGdtw32" mask="url(#ex6sumAGdtw37)"><g id="ex6sumAGdtw33"><path id="ex6sumAGdtw34" d="M392.341000,116.033000C394.201000,116.329000,395.956000,115.453000,397.055000,112.992000C399.358000,107.839000,390.922000,103.486000,386.024000,103.655000C382.181000,103.787000,379.634000,109.273000,382.857000,111.681000C386.080000,114.090000,386.577000,112.273000,389.118000,113.625000C390.894000,114.570000,390.287000,115.707000,392.341000,116.033000Z" fill="rgb(40,40,40)" stroke="none" stroke-width="1"/><path id="ex6sumAGdtw35" d="M389.559000,113.098000C389.907000,109.213000,383.865000,105.562000,380.637000,107.212000C376.602000,109.275000,389.210000,116.982000,389.559000,113.098000Z" fill="rgb(216,81,81)" stroke="none" stroke-width="1"/><path id="ex6sumAGdtw36" d="M395.948000,111.871000L383.378000,104.329000C386.395000,100.307000,394.691000,105.586000,397.205000,109.357000L395.948000,111.871000Z" fill="rgb(234,234,234)" stroke="none" stroke-width="1"/></g><mask id="ex6sumAGdtw37" mask-type="alpha"><path id="ex6sumAGdtw38" d="M392.341000,116.033000C394.201000,116.329000,395.956000,115.453000,397.055000,112.992000C399.358000,107.839000,390.922000,103.486000,386.024000,103.655000C382.181000,103.787000,379.634000,109.273000,382.857000,111.681000C386.080000,114.090000,386.577000,112.273000,389.118000,113.625000C390.894000,114.570000,390.287000,115.707000,392.341000,116.033000Z" fill="rgb(40,40,40)" stroke="none" stroke-width="1"/></mask></g></g></g><g id="ex6sumAGdtw39"><g id="ex6sumAGdtw40"><path id="ex6sumAGdtw41" d="M310.767000,235.985000C310.767000,235.985000,324.963000,250.052000,364.965000,270.368000L386.033000,328.189000L403.385000,321.858000C403.385000,321.858000,400.119000,251.162000,336.357000,219.512000C272.448000,187.812000,310.767000,235.985000,310.767000,235.985000Z" fill="rgb(10,10,114)" stroke="none" stroke-width="1"/><path id="ex6sumAGdtw42" d="M351.973000,243.299000C325.828000,250.338000,322.788000,240.424000,319.855000,229.530000C316.471000,216.961000,328.151000,208.424000,346.252000,206.413000C368.877000,203.899000,404.072000,195.100000,415.385000,200.128000C426.698000,205.156000,426.135000,204.333000,426.135000,213.132000C426.135000,221.931000,414.822000,249.584000,408.537000,260.897000C403.509000,269.947000,404.347000,277.657000,403.509000,279.752000L382.140000,274.724000L396.531000,226.524000C387.118000,230.757000,368.087000,238.961000,351.973000,243.299000Z" fill="rgb(26,15,146)" stroke="none" stroke-width="1"/></g><path id="ex6sumAGdtw43" d="M363.266000,110.614000C355.222000,105.586000,350.696000,106.005000,349.439000,106.843000C289.105000,129.971000,292.457000,200.278000,301.674000,232.541000C303.350000,231.703000,310.222000,231.535000,324.300000,237.569000C338.378000,243.602000,366.618000,210.334000,380.864000,198.602000C376.255000,199.021000,363.266000,199.859000,363.266000,182.262000C363.266000,163.075000,384.635000,142.038000,380.864000,133.240000C377.093000,124.441000,373.322000,116.899000,363.266000,110.614000Z" fill="rgb(45,248,180)" stroke="none" stroke-width="1"/><g id="ex6sumAGdtw44_tr" transform="translate(370.896327,154.642500) rotate(0)"><g id="ex6sumAGdtw44" transform="translate(-370.897315,-155.641506)"><path id="ex6sumAGdtw45" d="M374.579000,191.060000C367.540000,189.049000,362.009000,164.664000,356.981000,150.837000L378.350000,145.809000C381.702000,157.122000,386.395000,178.491000,388.406000,178.491000L417.316000,178.491000C417.316000,178.491000,442.456000,172.206000,423.601000,182.262000C414.659000,187.031000,383.378000,193.574000,374.579000,191.060000Z" fill="rgb(245,157,155)" stroke="none" stroke-width="1"/><path id="ex6sumAGdtw46" d="M428.568000,174.836000C427.142000,175.439000,425.544000,175.977000,424.858000,175.977000C424.858000,175.392000,425.465000,175.225000,426.211000,175.020000C427.069000,174.783000,428.112000,174.496000,428.629000,173.463000C428.769000,173.182000,428.629000,171.577000,427.372000,172.206000C426.851000,172.466000,426.115000,172.726000,425.252000,173.031000C424.032000,173.463000,422.560000,173.983000,421.087000,174.720000C419.504000,175.511000,418.573000,178.491000,418.573000,178.491000L422.344000,182.262000C424.020000,181.843000,427.875000,180.753000,429.886000,179.748000C431.833000,178.774000,437.079000,174.187000,438.552000,172.375000L428.568000,174.836000Z" clip-rule="evenodd" fill="rgb(241,152,152)" fill-rule="evenodd" stroke="none" stroke-width="1"/></g></g><path id="ex6sumAGdtw47" d="M377.093000,126.955000C370.808000,120.670000,365.780000,120.670000,363.266000,120.670000C340.138000,122.681000,346.926000,150.837000,353.210000,164.664000C354.886000,165.083000,359.998000,165.670000,367.037000,164.664000C375.836000,163.407000,392.177000,155.865000,388.406000,155.865000C384.635000,155.865000,383.378000,133.240000,377.093000,126.955000Z" fill="rgb(45,248,180)" stroke="none" stroke-width="1"/></g></g></g></g></g><g id="ex6sumAGdtw48_ts" transform="translate(710.695740,397.870438) scale(1,1)"><g id="ex6sumAGdtw48" transform="translate(-710.695740,-397.870438)"><g id="ex6sumAGdtw49_tr" transform="translate(668.037000,359.140503) rotate(0)"><g id="ex6sumAGdtw49" transform="translate(-668.037000,-359.140503)"><path id="ex6sumAGdtw50" d="M592.972000,286.368000C565.470000,310.111000,567.288000,325.969000,577.794000,353.810000C587.225000,378.803000,611.331000,399.473000,628.355000,396.420000C660.583000,390.638000,676.175000,373.188000,690.412000,361.229000C707.904000,346.536000,716.605000,327.033000,715.332000,314.009000C714.255000,302.988000,707.614000,283.949000,682.504000,287.028000C657.394000,290.108000,658.664000,275.677000,645.586000,270.945000C636.897000,267.801000,620.474000,262.624000,592.972000,286.368000Z" fill="rgb(242,165,165)" stroke="none" stroke-width="1"/><path id="ex6sumAGdtw51" d="M556.431000,277.776000C550.028000,291.780000,561.998000,327.257000,577.636000,350.816000C579.992000,314.296000,644.786000,277.776000,644.786000,274.241000C644.786000,268.351000,603.511000,244.125000,589.136000,236.765000C586.365000,239.176000,579.542000,244.766000,574.102000,249.502000C571.835000,251.475000,586.080000,262.243000,595.011000,272.503000L570.568000,251.858000C567.963000,251.917000,561.461000,266.772000,556.431000,277.776000Z" fill="rgb(241,152,152)" stroke="none" stroke-width="1"/><g id="ex6sumAGdtw52" style="mix-blend-mode:multiply" opacity="0.3"><path id="ex6sumAGdtw53" d="M605.910000,320.186000C597.663000,322.543000,628.293000,293.453000,637.718000,288.378000C647.143000,283.303000,648.321000,293.091000,643.608000,307.228000C638.035000,323.946000,662.374000,360.951000,648.321000,337.858000C635.504000,316.796000,614.156000,317.830000,605.910000,320.186000Z" fill="rgb(242,165,165)" stroke="none" stroke-width="1"/></g><path id="ex6sumAGdtw54" d="M656.920000,344.047000C671.667000,354.011000,681.558000,352.782000,690.063000,348.955000C712.389000,338.908000,716.468000,296.837000,711.687000,287.958000C706.907000,279.079000,679.023000,259.693000,668.927000,250.956000C668.927000,250.956000,660.909000,244.018000,653.194000,245.732000C645.303000,247.486000,629.547000,240.652000,622.819000,237.626000L617.092000,255.045000C629.367000,266.786000,634.218000,271.263000,645.003000,275.002000C652.034000,286.680000,647.075000,296.372000,644.034000,304.928000C637.951000,322.039000,651.073000,340.096000,656.920000,344.047000Z" fill="rgb(254,183,182)" stroke="none" stroke-width="1"/></g></g><path id="ex6sumAGdtw55" d="M652.661000,436.623000C628.777000,408.486000,618.223000,369.734000,643.346000,342.697000C646.075000,339.759000,649.066000,336.766000,652.343000,333.739000C654.573000,331.678000,656.789000,329.737000,658.982000,327.910000C690.485000,301.664000,733.223000,316.124000,761.884000,345.449000L838.565000,423.907000C868.121000,454.148000,866.881000,502.822000,835.822000,531.518000C804.460000,560.495000,755.276000,557.514000,727.644000,524.960000L652.661000,436.623000Z" fill="rgb(255,255,255)" stroke="none" stroke-width="1"/><path id="ex6sumAGdtw56" d="M652.071000,454.963000C634.138000,435.554000,621.458000,409.919000,632.326000,385.833000C637.897000,373.487000,647.222000,359.321000,662.736000,344.987000C678.250000,330.653000,693.108000,322.476000,705.854000,317.897000C730.724000,308.964000,755.278000,323.628000,773.211000,343.037000L844.825000,420.547000C875.733000,453.999000,873.670000,506.172000,840.219000,537.080000C806.767000,567.987000,754.593000,565.925000,723.686000,532.473000L652.071000,454.963000Z" fill="rgb(86,0,227)" stroke="none" stroke-width="1"/><g id="ex6sumAGdtw57" style="mix-blend-mode:multiply"><ellipse id="ex6sumAGdtw58" rx="11.780800" ry="11.780800" transform="matrix(0.73448400000000 -0.67862600000000 0.67862200000000 0.73448700000000 644.92300000000000 415.97899999999998)" fill="rgb(86,0,227)" stroke="none" stroke-width="1"/></g><g id="ex6sumAGdtw59_ts" transform="translate(705.673492,378.739502) scale(1,1)"><path id="ex6sumAGdtw59" d="M743.310000,379.620000C743.310000,401.110000,728.363000,416.403000,706.291000,416.403000C685.128000,416.403000,668.037000,399.576000,668.037000,378.740000C668.037000,357.903000,685.128000,341.076000,706.291000,341.076000C716.594000,341.076000,725.263000,344.797000,731.942000,350.932000L721.530000,360.789000C707.910000,347.849000,682.583000,357.569000,682.583000,378.740000C682.583000,391.876000,693.241000,402.522000,706.291000,402.522000C721.438000,402.522000,727.114000,391.831000,728.009000,386.288000L706.291000,386.288000L706.291000,373.333000L742.708000,373.333000C743.063000,375.262000,743.310000,377.115000,743.310000,379.620000Z" transform="translate(-705.673492,-378.739502)" fill="rgb(255,255,255)" stroke="none" stroke-width="1"/></g></g></g><g id="ex6sumAGdtw60"><g id="ex6sumAGdtw61_tr" transform="translate(401.383833,396.807648) rotate(0)"><g id="ex6sumAGdtw61" transform="translate(-401.383833,-396.807648)"><path id="ex6sumAGdtw62" d="M389.294000,280.796000C354.500000,279.776000,345.523000,292.155000,334.931000,318.624000C325.422000,342.385000,329.078000,372.587000,343.081000,381.445000C369.592000,398.214000,391.899000,395.974000,409.696000,396.737000C431.562000,397.675000,450.329000,389.526000,457.858000,379.500000C464.227000,371.017000,471.855000,353.268000,452.122000,339.196000C432.389000,325.124000,442.624000,315.750000,436.446000,303.945000C432.342000,296.101000,424.088000,281.817000,389.294000,280.796000Z" fill="rgb(242,165,165)" stroke="none" stroke-width="1"/><path id="ex6sumAGdtw63" d="M369.036000,251.081000C355.451000,256.832000,340.952000,289.642000,336.756000,316.407000C362.052000,292.129000,431.461000,308.253000,433.748000,305.756000C437.560000,301.594000,424.074000,257.771000,418.680000,243.268000C415.162000,243.179000,406.724000,242.714000,399.817000,242.539000C396.938000,242.467000,400.035000,259.292000,399.706000,272.320000L395.795000,241.917000C393.916000,240.273000,379.711000,246.562000,369.036000,251.081000Z" fill="rgb(241,152,152)" stroke="none" stroke-width="1"/><g id="ex6sumAGdtw64" style="mix-blend-mode:multiply" opacity="0.3"><path id="ex6sumAGdtw65" d="M376.552000,313.061000C369.201000,309.390000,409.664000,308.657000,419.607000,311.170000C429.549000,313.683000,424.048000,321.360000,411.571000,328.299000C396.816000,336.505000,390.067000,378.398000,395.081000,352.989000C399.654000,329.816000,383.902000,316.733000,376.552000,313.061000Z" fill="rgb(242,165,165)" stroke="none" stroke-width="1"/></g><path id="ex6sumAGdtw66" d="M397.152000,362.926000C401.123000,379.508000,408.907000,385.040000,417.392000,387.839000C439.667000,395.188000,469.771000,368.103000,472.139000,358.737000C474.507000,349.371000,467.351000,317.630000,465.871000,304.925000C465.871000,304.925000,464.696000,294.835000,458.136000,291.054000C451.426000,287.187000,444.716000,272.164000,441.920000,265.672000L426.603000,274.274000C427.678000,290.511000,428.209000,296.813000,433.409000,306.433000C430.820000,319.234000,421.045000,322.873000,413.360000,326.949000C397.991000,335.103000,395.577000,356.351000,397.152000,362.926000Z" fill="rgb(254,183,182)" stroke="none" stroke-width="1"/></g></g><path id="ex6sumAGdtw67" d="M332.654000,416.288000C334.089000,379.025000,352.973000,343.092000,390.200000,340.904000C393.071000,340.736000,396.060000,340.639000,399.166000,340.625000C400.848000,340.618000,402.499000,340.635000,404.121000,340.675000C445.497000,341.701000,467.761000,381.502000,469.125000,422.868000L472.331000,520.090000C473.666000,560.569000,441.309000,594.156000,400.810000,594.334000C359.906000,594.513000,327.099000,560.568000,328.673000,519.694000L332.654000,416.288000Z" fill="rgb(255,255,255)" stroke="none" stroke-width="1"/><path id="ex6sumAGdtw68" d="M320.520000,423.048000C320.405000,396.623000,328.406000,369.076000,352.864000,359.071000C364.591000,354.274000,379.850000,350.632000,399.210000,350.547000C418.570000,350.463000,433.860000,353.971000,445.628000,358.665000C470.173000,368.455000,478.416000,395.931000,478.531000,422.356000L478.967000,521.756000C479.158000,565.390000,443.941000,600.917000,400.307000,601.108000C356.674000,601.299000,321.147000,566.082000,320.956000,522.448000L320.520000,423.048000Z" fill="rgb(38,7,89)" stroke="none" stroke-width="1"/><g id="ex6sumAGdtw69_ts" transform="translate(393.850510,409.641006) scale(1,1)"><path id="ex6sumAGdtw69" d="M415.392000,415.561000L417.962000,398.419000L401.887000,398.419000L401.887000,387.295000C401.887000,382.605000,404.133000,378.034000,411.333000,378.034000L418.640000,378.034000L418.640000,363.440000C418.640000,363.440000,412.009000,362.281000,405.668000,362.281000C392.430000,362.281000,383.777000,370.492000,383.777000,385.355000L383.777000,398.419000L369.061000,398.419000L369.061000,415.561000L383.777000,415.561000L383.777000,457.001000L401.887000,457.001000L401.887000,415.561000L415.392000,415.561000Z" transform="translate(-393.850510,-409.641006)" fill="rgb(255,255,255)" stroke="none" stroke-width="1"/></g></g><g id="ex6sumAGdtw70"><g id="ex6sumAGdtw71_tr" transform="translate(81.669533,399.331398) rotate(0)"><g id="ex6sumAGdtw71" transform="translate(-81.669533,-399.331398)"><path id="ex6sumAGdtw72" d="M208.516000,303.907000C229.072000,333.759000,223.319000,348.606000,206.157000,372.828000C190.751000,394.572000,162.272000,408.443000,146.611000,401.203000C116.963000,387.495000,106.316000,366.721000,95.590100,351.587000C82.412700,332.995000,78.933400,311.977000,83.446600,299.727000C87.265600,289.362000,98.477000,272.661000,121.936000,281.965000C145.395000,291.270000,147.808000,277.021000,161.624000,275.752000C170.803000,274.909000,187.960000,274.055000,208.516000,303.907000Z" fill="rgb(242,165,165)" stroke="none" stroke-width="1"/><path id="ex6sumAGdtw73" d="M245.952000,304.829000C248.600000,319.961000,228.100000,351.183000,207.065000,369.979000C214.001000,334.136000,160.673000,282.547000,161.564000,279.136000C163.050000,273.450000,208.997000,260.478000,224.729000,256.999000C226.794000,260.025000,231.970000,267.141000,236.027000,273.084000C237.717000,275.560000,221.252000,282.360000,210.045000,290.010000L238.844000,276.249000C241.343000,276.963000,243.872000,292.940000,245.952000,304.829000Z" fill="rgb(241,152,152)" stroke="none" stroke-width="1"/><g id="ex6sumAGdtw74" style="mix-blend-mode:multiply" opacity="0.3"><path id="ex6sumAGdtw75" d="M187.500000,333.285000C194.865000,337.639000,172.638000,301.838000,164.822000,294.563000C157.005000,287.288000,153.400000,296.437000,154.383000,311.270000C155.545000,328.812000,122.722000,358.390000,142.110000,339.645000C159.791000,322.549000,180.135000,328.931000,187.500000,333.285000Z" fill="rgb(242,165,165)" stroke="none" stroke-width="1"/></g><path id="ex6sumAGdtw76" d="M132.249000,343.450000C115.503000,349.348000,106.266000,345.667000,99.022500,339.829000C80.007900,324.501000,86.681300,282.867000,93.534200,275.503000C100.387000,268.139000,132.189000,256.459000,144.137000,250.573000C144.137000,250.573000,153.625000,245.899000,160.640000,249.499000C167.814000,253.181000,184.744000,250.559000,192.002000,249.336000L193.135000,267.592000C178.327000,275.828000,172.517000,278.926000,161.164000,279.815000C151.432000,289.313000,153.775000,299.919000,154.552000,308.943000C156.108000,326.992000,138.889000,341.111000,132.249000,343.450000Z" fill="rgb(254,183,182)" stroke="none" stroke-width="1"/></g></g><path id="ex6sumAGdtw77" d="M112.898000,433.957000C143.120000,412.771000,163.125000,377.939000,145.623000,345.445000C143.747000,341.961000,141.637000,338.359000,139.267000,334.655000C137.664000,332.151000,136.046000,329.763000,134.421000,327.485000C110.608000,294.104000,65.595300,297.287000,30.452300,318.414000L-63.210100,374.720000C-99.363500,396.454000,-110.441000,443.746000,-87.701400,479.275000C-64.739000,515.152000,-16.516300,524.678000,18.363400,500.227000L112.898000,433.957000Z" fill="rgb(255,255,255)" stroke="none" stroke-width="1"/><path id="ex6sumAGdtw78" d="M108.874000,451.780000C131.131000,437.535000,149.883000,415.933000,145.432000,389.885000C143.159000,376.584000,137.730000,360.595000,126.399000,342.891000C115.068000,325.187000,102.822000,313.561000,91.695800,305.926000C69.907000,290.975000,42.437400,298.956000,20.180400,313.201000L-68.404800,369.898000C-106.672000,394.390000,-117.839000,445.267000,-93.347100,483.534000C-68.855000,521.802000,-17.978300,532.969000,20.289100,508.477000L108.874000,451.780000Z" fill="rgb(86,0,227)" stroke="none" stroke-width="1"/><g id="ex6sumAGdtw79" style="mix-blend-mode:multiply"><ellipse id="ex6sumAGdtw80" rx="11.752300" ry="11.752200" transform="matrix(-0.53906900000000 -0.84226100000000 -0.84226100000000 0.53907100000000 125.68700000000000 415.90300000000002)" fill="rgb(86,0,227)" stroke="none" stroke-width="1"/></g><g id="ex6sumAGdtw81_ts" transform="translate(77.222900,366.381500) scale(1,1)"><path id="ex6sumAGdtw81" d="M43.197800,318.242000L62.657100,324.982000L62.657100,392.689000L90.014700,377.029000L76.564900,370.771000L68.094300,349.901000L111.248000,364.909000L111.248000,386.714000L62.657100,414.521000L43.197800,403.846000L43.197800,318.242000Z" transform="translate(-77.222900,-366.381500)" fill="rgb(255,255,255)" stroke="none" stroke-width="1"/></g></g></g><clipPath id="ex6sumAGdtw82"><rect id="ex6sumAGdtw83" width="768" height="432" rx="0" ry="0" fill="rgb(255,255,255)" stroke="none" stroke-width="1"/></clipPath></g></svg>