<svg width="516" height="386" viewBox="0 0 516 386" fill="none" xmlns="http://www.w3.org/2000/svg">
<g opacity="0.7">
<path d="M43.8816 17.4847C45.1506 17.4847 46.1793 16.474 46.1793 15.2272C46.1793 13.9804 45.1506 12.9697 43.8816 12.9697C42.6127 12.9697 41.584 13.9804 41.584 15.2272C41.584 16.474 42.6127 17.4847 43.8816 17.4847Z" fill="#C8E7FE"/>
<path d="M43.8816 29.6497C45.1506 29.6497 46.1793 28.639 46.1793 27.3922C46.1793 26.1455 45.1506 25.1348 43.8816 25.1348C42.6127 25.1348 41.584 26.1455 41.584 27.3922C41.584 28.639 42.6127 29.6497 43.8816 29.6497Z" fill="#C8E7FE"/>
<path d="M43.8816 41.8147C45.1506 41.8147 46.1793 40.804 46.1793 39.5573C46.1793 38.3105 45.1506 37.2998 43.8816 37.2998C42.6127 37.2998 41.584 38.3105 41.584 39.5573C41.584 40.804 42.6127 41.8147 43.8816 41.8147Z" fill="#C8E7FE"/>
<path d="M43.8816 53.9808C45.1506 53.9808 46.1793 52.9701 46.1793 51.7233C46.1793 50.4765 45.1506 49.4658 43.8816 49.4658C42.6127 49.4658 41.584 50.4765 41.584 51.7233C41.584 52.9701 42.6127 53.9808 43.8816 53.9808Z" fill="#C8E7FE"/>
<path d="M43.8816 66.1458C45.1506 66.1458 46.1793 65.1351 46.1793 63.8883C46.1793 62.6416 45.1506 61.6309 43.8816 61.6309C42.6127 61.6309 41.584 62.6416 41.584 63.8883C41.584 65.1351 42.6127 66.1458 43.8816 66.1458Z" fill="#C8E7FE"/>
<path d="M43.8816 78.3108C45.1506 78.3108 46.1793 77.3001 46.1793 76.0534C46.1793 74.8066 45.1506 73.7959 43.8816 73.7959C42.6127 73.7959 41.584 74.8066 41.584 76.0534C41.584 77.3001 42.6127 78.3108 43.8816 78.3108Z" fill="#C8E7FE"/>
<path d="M43.8816 90.4759C45.1506 90.4759 46.1793 89.4652 46.1793 88.2184C46.1793 86.9716 45.1506 85.9609 43.8816 85.9609C42.6127 85.9609 41.584 86.9716 41.584 88.2184C41.584 89.4652 42.6127 90.4759 43.8816 90.4759Z" fill="#C8E7FE"/>
<path d="M43.8816 102.767C45.1506 102.767 46.1793 101.756 46.1793 100.509C46.1793 99.2627 45.1506 98.252 43.8816 98.252C42.6127 98.252 41.584 99.2627 41.584 100.509C41.584 101.756 42.6127 102.767 43.8816 102.767Z" fill="#C8E7FE"/>
<path d="M43.8816 114.932C45.1506 114.932 46.1793 113.921 46.1793 112.674C46.1793 111.428 45.1506 110.417 43.8816 110.417C42.6127 110.417 41.584 111.428 41.584 112.674C41.584 113.921 42.6127 114.932 43.8816 114.932Z" fill="#C8E7FE"/>
<path d="M43.8816 127.097C45.1506 127.097 46.1793 126.086 46.1793 124.84C46.1793 123.593 45.1506 122.582 43.8816 122.582C42.6127 122.582 41.584 123.593 41.584 124.84C41.584 126.086 42.6127 127.097 43.8816 127.097Z" fill="#C8E7FE"/>
<path d="M43.8816 139.262C45.1506 139.262 46.1793 138.251 46.1793 137.005C46.1793 135.758 45.1506 134.747 43.8816 134.747C42.6127 134.747 41.584 135.758 41.584 137.005C41.584 138.251 42.6127 139.262 43.8816 139.262Z" fill="#C8E7FE"/>
<path d="M156.977 17.4847C158.246 17.4847 159.275 16.474 159.275 15.2272C159.275 13.9804 158.246 12.9697 156.977 12.9697C155.708 12.9697 154.68 13.9804 154.68 15.2272C154.68 16.474 155.708 17.4847 156.977 17.4847Z" fill="#C8E7FE"/>
<path d="M156.977 29.6497C158.246 29.6497 159.275 28.639 159.275 27.3922C159.275 26.1455 158.246 25.1348 156.977 25.1348C155.708 25.1348 154.68 26.1455 154.68 27.3922C154.68 28.639 155.708 29.6497 156.977 29.6497Z" fill="#C8E7FE"/>
<path d="M156.977 41.8147C158.246 41.8147 159.275 40.804 159.275 39.5573C159.275 38.3105 158.246 37.2998 156.977 37.2998C155.708 37.2998 154.68 38.3105 154.68 39.5573C154.68 40.804 155.708 41.8147 156.977 41.8147Z" fill="#C8E7FE"/>
<path d="M156.977 53.9808C158.246 53.9808 159.275 52.9701 159.275 51.7233C159.275 50.4765 158.246 49.4658 156.977 49.4658C155.708 49.4658 154.68 50.4765 154.68 51.7233C154.68 52.9701 155.708 53.9808 156.977 53.9808Z" fill="#C8E7FE"/>
<path d="M156.977 66.1458C158.246 66.1458 159.275 65.1351 159.275 63.8883C159.275 62.6416 158.246 61.6309 156.977 61.6309C155.708 61.6309 154.68 62.6416 154.68 63.8883C154.68 65.1351 155.708 66.1458 156.977 66.1458Z" fill="#C8E7FE"/>
<path d="M156.977 78.3108C158.246 78.3108 159.275 77.3001 159.275 76.0534C159.275 74.8066 158.246 73.7959 156.977 73.7959C155.708 73.7959 154.68 74.8066 154.68 76.0534C154.68 77.3001 155.708 78.3108 156.977 78.3108Z" fill="#C8E7FE"/>
<path d="M156.977 90.4759C158.246 90.4759 159.275 89.4652 159.275 88.2184C159.275 86.9716 158.246 85.9609 156.977 85.9609C155.708 85.9609 154.68 86.9716 154.68 88.2184C154.68 89.4652 155.708 90.4759 156.977 90.4759Z" fill="#C8E7FE"/>
<path d="M156.977 102.767C158.246 102.767 159.275 101.756 159.275 100.509C159.275 99.2627 158.246 98.252 156.977 98.252C155.708 98.252 154.68 99.2627 154.68 100.509C154.68 101.756 155.708 102.767 156.977 102.767Z" fill="#C8E7FE"/>
<path d="M156.977 114.932C158.246 114.932 159.275 113.921 159.275 112.674C159.275 111.428 158.246 110.417 156.977 110.417C155.708 110.417 154.68 111.428 154.68 112.674C154.68 113.921 155.708 114.932 156.977 114.932Z" fill="#C8E7FE"/>
<path d="M156.977 127.097C158.246 127.097 159.275 126.086 159.275 124.84C159.275 123.593 158.246 122.582 156.977 122.582C155.708 122.582 154.68 123.593 154.68 124.84C154.68 126.086 155.708 127.097 156.977 127.097Z" fill="#C8E7FE"/>
<path d="M156.977 139.262C158.246 139.262 159.275 138.251 159.275 137.005C159.275 135.758 158.246 134.747 156.977 134.747C155.708 134.747 154.68 135.758 154.68 137.005C154.68 138.251 155.708 139.262 156.977 139.262Z" fill="#C8E7FE"/>
<path d="M134.384 17.4847C135.653 17.4847 136.681 16.474 136.681 15.2272C136.681 13.9804 135.653 12.9697 134.384 12.9697C133.115 12.9697 132.086 13.9804 132.086 15.2272C132.086 16.474 133.115 17.4847 134.384 17.4847Z" fill="#C8E7FE"/>
<path d="M134.384 29.6497C135.653 29.6497 136.681 28.639 136.681 27.3922C136.681 26.1455 135.653 25.1348 134.384 25.1348C133.115 25.1348 132.086 26.1455 132.086 27.3922C132.086 28.639 133.115 29.6497 134.384 29.6497Z" fill="#C8E7FE"/>
<path d="M134.384 41.8147C135.653 41.8147 136.681 40.804 136.681 39.5573C136.681 38.3105 135.653 37.2998 134.384 37.2998C133.115 37.2998 132.086 38.3105 132.086 39.5573C132.086 40.804 133.115 41.8147 134.384 41.8147Z" fill="#C8E7FE"/>
<path d="M134.384 53.9808C135.653 53.9808 136.681 52.9701 136.681 51.7233C136.681 50.4765 135.653 49.4658 134.384 49.4658C133.115 49.4658 132.086 50.4765 132.086 51.7233C132.086 52.9701 133.115 53.9808 134.384 53.9808Z" fill="#C8E7FE"/>
<path d="M134.384 66.1458C135.653 66.1458 136.681 65.1351 136.681 63.8883C136.681 62.6416 135.653 61.6309 134.384 61.6309C133.115 61.6309 132.086 62.6416 132.086 63.8883C132.086 65.1351 133.115 66.1458 134.384 66.1458Z" fill="#C8E7FE"/>
<path d="M134.384 78.3108C135.653 78.3108 136.681 77.3001 136.681 76.0534C136.681 74.8066 135.653 73.7959 134.384 73.7959C133.115 73.7959 132.086 74.8066 132.086 76.0534C132.086 77.3001 133.115 78.3108 134.384 78.3108Z" fill="#C8E7FE"/>
<path d="M134.384 90.4759C135.653 90.4759 136.681 89.4652 136.681 88.2184C136.681 86.9716 135.653 85.9609 134.384 85.9609C133.115 85.9609 132.086 86.9716 132.086 88.2184C132.086 89.4652 133.115 90.4759 134.384 90.4759Z" fill="#C8E7FE"/>
<path d="M134.384 102.767C135.653 102.767 136.681 101.756 136.681 100.509C136.681 99.2627 135.653 98.252 134.384 98.252C133.115 98.252 132.086 99.2627 132.086 100.509C132.086 101.756 133.115 102.767 134.384 102.767Z" fill="#C8E7FE"/>
<path d="M134.384 114.932C135.653 114.932 136.681 113.921 136.681 112.674C136.681 111.428 135.653 110.417 134.384 110.417C133.115 110.417 132.086 111.428 132.086 112.674C132.086 113.921 133.115 114.932 134.384 114.932Z" fill="#C8E7FE"/>
<path d="M134.384 127.097C135.653 127.097 136.681 126.086 136.681 124.84C136.681 123.593 135.653 122.582 134.384 122.582C133.115 122.582 132.086 123.593 132.086 124.84C132.086 126.086 133.115 127.097 134.384 127.097Z" fill="#C8E7FE"/>
<path d="M134.384 139.262C135.653 139.262 136.681 138.251 136.681 137.005C136.681 135.758 135.653 134.747 134.384 134.747C133.115 134.747 132.086 135.758 132.086 137.005C132.086 138.251 133.115 139.262 134.384 139.262Z" fill="#C8E7FE"/>
<path d="M179.571 17.4847C180.84 17.4847 181.869 16.474 181.869 15.2272C181.869 13.9804 180.84 12.9697 179.571 12.9697C178.302 12.9697 177.273 13.9804 177.273 15.2272C177.273 16.474 178.302 17.4847 179.571 17.4847Z" fill="#C8E7FE"/>
<path d="M179.571 29.6497C180.84 29.6497 181.869 28.639 181.869 27.3922C181.869 26.1455 180.84 25.1348 179.571 25.1348C178.302 25.1348 177.273 26.1455 177.273 27.3922C177.273 28.639 178.302 29.6497 179.571 29.6497Z" fill="#C8E7FE"/>
<path d="M179.571 41.8147C180.84 41.8147 181.869 40.804 181.869 39.5573C181.869 38.3105 180.84 37.2998 179.571 37.2998C178.302 37.2998 177.273 38.3105 177.273 39.5573C177.273 40.804 178.302 41.8147 179.571 41.8147Z" fill="#C8E7FE"/>
<path d="M179.571 53.9808C180.84 53.9808 181.869 52.9701 181.869 51.7233C181.869 50.4765 180.84 49.4658 179.571 49.4658C178.302 49.4658 177.273 50.4765 177.273 51.7233C177.273 52.9701 178.302 53.9808 179.571 53.9808Z" fill="#C8E7FE"/>
<path d="M179.571 66.1458C180.84 66.1458 181.869 65.1351 181.869 63.8883C181.869 62.6416 180.84 61.6309 179.571 61.6309C178.302 61.6309 177.273 62.6416 177.273 63.8883C177.273 65.1351 178.302 66.1458 179.571 66.1458Z" fill="#C8E7FE"/>
<path d="M179.571 78.3108C180.84 78.3108 181.869 77.3001 181.869 76.0534C181.869 74.8066 180.84 73.7959 179.571 73.7959C178.302 73.7959 177.273 74.8066 177.273 76.0534C177.273 77.3001 178.302 78.3108 179.571 78.3108Z" fill="#C8E7FE"/>
<path d="M179.571 90.4759C180.84 90.4759 181.869 89.4652 181.869 88.2184C181.869 86.9716 180.84 85.9609 179.571 85.9609C178.302 85.9609 177.273 86.9716 177.273 88.2184C177.273 89.4652 178.302 90.4759 179.571 90.4759Z" fill="#C8E7FE"/>
<path d="M179.571 102.767C180.84 102.767 181.869 101.756 181.869 100.509C181.869 99.2627 180.84 98.252 179.571 98.252C178.302 98.252 177.273 99.2627 177.273 100.509C177.273 101.756 178.302 102.767 179.571 102.767Z" fill="#C8E7FE"/>
<path d="M179.571 114.932C180.84 114.932 181.869 113.921 181.869 112.674C181.869 111.428 180.84 110.417 179.571 110.417C178.302 110.417 177.273 111.428 177.273 112.674C177.273 113.921 178.302 114.932 179.571 114.932Z" fill="#C8E7FE"/>
<path d="M179.571 127.097C180.84 127.097 181.869 126.086 181.869 124.84C181.869 123.593 180.84 122.582 179.571 122.582C178.302 122.582 177.273 123.593 177.273 124.84C177.273 126.086 178.302 127.097 179.571 127.097Z" fill="#C8E7FE"/>
<path d="M179.571 139.262C180.84 139.262 181.869 138.251 181.869 137.005C181.869 135.758 180.84 134.747 179.571 134.747C178.302 134.747 177.273 135.758 177.273 137.005C177.273 138.251 178.302 139.262 179.571 139.262Z" fill="#C8E7FE"/>
<path d="M111.663 17.4847C112.932 17.4847 113.961 16.474 113.961 15.2272C113.961 13.9804 112.932 12.9697 111.663 12.9697C110.394 12.9697 109.365 13.9804 109.365 15.2272C109.365 16.474 110.394 17.4847 111.663 17.4847Z" fill="#C8E7FE"/>
<path d="M111.663 29.6497C112.932 29.6497 113.961 28.639 113.961 27.3922C113.961 26.1455 112.932 25.1348 111.663 25.1348C110.394 25.1348 109.365 26.1455 109.365 27.3922C109.365 28.639 110.394 29.6497 111.663 29.6497Z" fill="#C8E7FE"/>
<path d="M111.663 41.8147C112.932 41.8147 113.961 40.804 113.961 39.5573C113.961 38.3105 112.932 37.2998 111.663 37.2998C110.394 37.2998 109.365 38.3105 109.365 39.5573C109.365 40.804 110.394 41.8147 111.663 41.8147Z" fill="#C8E7FE"/>
<path d="M111.663 53.9808C112.932 53.9808 113.961 52.9701 113.961 51.7233C113.961 50.4765 112.932 49.4658 111.663 49.4658C110.394 49.4658 109.365 50.4765 109.365 51.7233C109.365 52.9701 110.394 53.9808 111.663 53.9808Z" fill="#C8E7FE"/>
<path d="M111.663 66.1458C112.932 66.1458 113.961 65.1351 113.961 63.8883C113.961 62.6416 112.932 61.6309 111.663 61.6309C110.394 61.6309 109.365 62.6416 109.365 63.8883C109.365 65.1351 110.394 66.1458 111.663 66.1458Z" fill="#C8E7FE"/>
<path d="M111.663 78.3108C112.932 78.3108 113.961 77.3001 113.961 76.0534C113.961 74.8066 112.932 73.7959 111.663 73.7959C110.394 73.7959 109.365 74.8066 109.365 76.0534C109.365 77.3001 110.394 78.3108 111.663 78.3108Z" fill="#C8E7FE"/>
<path d="M111.663 90.4759C112.932 90.4759 113.961 89.4652 113.961 88.2184C113.961 86.9716 112.932 85.9609 111.663 85.9609C110.394 85.9609 109.365 86.9716 109.365 88.2184C109.365 89.4652 110.394 90.4759 111.663 90.4759Z" fill="#C8E7FE"/>
<path d="M111.663 102.767C112.932 102.767 113.961 101.756 113.961 100.509C113.961 99.2627 112.932 98.252 111.663 98.252C110.394 98.252 109.365 99.2627 109.365 100.509C109.365 101.756 110.394 102.767 111.663 102.767Z" fill="#C8E7FE"/>
<path d="M111.663 114.932C112.932 114.932 113.961 113.921 113.961 112.674C113.961 111.428 112.932 110.417 111.663 110.417C110.394 110.417 109.365 111.428 109.365 112.674C109.365 113.921 110.394 114.932 111.663 114.932Z" fill="#C8E7FE"/>
<path d="M111.663 127.097C112.932 127.097 113.961 126.086 113.961 124.84C113.961 123.593 112.932 122.582 111.663 122.582C110.394 122.582 109.365 123.593 109.365 124.84C109.365 126.086 110.394 127.097 111.663 127.097Z" fill="#C8E7FE"/>
<path d="M111.663 139.262C112.932 139.262 113.961 138.251 113.961 137.005C113.961 135.758 112.932 134.747 111.663 134.747C110.394 134.747 109.365 135.758 109.365 137.005C109.365 138.251 110.394 139.262 111.663 139.262Z" fill="#C8E7FE"/>
<path d="M89.0691 17.4847C90.3381 17.4847 91.3668 16.474 91.3668 15.2272C91.3668 13.9804 90.3381 12.9697 89.0691 12.9697C87.8002 12.9697 86.7715 13.9804 86.7715 15.2272C86.7715 16.474 87.8002 17.4847 89.0691 17.4847Z" fill="#C8E7FE"/>
<path d="M89.0691 29.6497C90.3381 29.6497 91.3668 28.639 91.3668 27.3922C91.3668 26.1455 90.3381 25.1348 89.0691 25.1348C87.8002 25.1348 86.7715 26.1455 86.7715 27.3922C86.7715 28.639 87.8002 29.6497 89.0691 29.6497Z" fill="#C8E7FE"/>
<path d="M89.0691 41.8147C90.3381 41.8147 91.3668 40.804 91.3668 39.5573C91.3668 38.3105 90.3381 37.2998 89.0691 37.2998C87.8002 37.2998 86.7715 38.3105 86.7715 39.5573C86.7715 40.804 87.8002 41.8147 89.0691 41.8147Z" fill="#C8E7FE"/>
<path d="M89.0691 53.9808C90.3381 53.9808 91.3668 52.9701 91.3668 51.7233C91.3668 50.4765 90.3381 49.4658 89.0691 49.4658C87.8002 49.4658 86.7715 50.4765 86.7715 51.7233C86.7715 52.9701 87.8002 53.9808 89.0691 53.9808Z" fill="#C8E7FE"/>
<path d="M89.0691 66.1458C90.3381 66.1458 91.3668 65.1351 91.3668 63.8883C91.3668 62.6416 90.3381 61.6309 89.0691 61.6309C87.8002 61.6309 86.7715 62.6416 86.7715 63.8883C86.7715 65.1351 87.8002 66.1458 89.0691 66.1458Z" fill="#C8E7FE"/>
<path d="M89.0691 78.3108C90.3381 78.3108 91.3668 77.3001 91.3668 76.0534C91.3668 74.8066 90.3381 73.7959 89.0691 73.7959C87.8002 73.7959 86.7715 74.8066 86.7715 76.0534C86.7715 77.3001 87.8002 78.3108 89.0691 78.3108Z" fill="#C8E7FE"/>
<path d="M89.0691 90.4759C90.3381 90.4759 91.3668 89.4652 91.3668 88.2184C91.3668 86.9716 90.3381 85.9609 89.0691 85.9609C87.8002 85.9609 86.7715 86.9716 86.7715 88.2184C86.7715 89.4652 87.8002 90.4759 89.0691 90.4759Z" fill="#C8E7FE"/>
<path d="M89.0691 102.767C90.3381 102.767 91.3668 101.756 91.3668 100.509C91.3668 99.2627 90.3381 98.252 89.0691 98.252C87.8002 98.252 86.7715 99.2627 86.7715 100.509C86.7715 101.756 87.8002 102.767 89.0691 102.767Z" fill="#C8E7FE"/>
<path d="M89.0691 114.932C90.3381 114.932 91.3668 113.921 91.3668 112.674C91.3668 111.428 90.3381 110.417 89.0691 110.417C87.8002 110.417 86.7715 111.428 86.7715 112.674C86.7715 113.921 87.8002 114.932 89.0691 114.932Z" fill="#C8E7FE"/>
<path d="M89.0691 127.097C90.3381 127.097 91.3668 126.086 91.3668 124.84C91.3668 123.593 90.3381 122.582 89.0691 122.582C87.8002 122.582 86.7715 123.593 86.7715 124.84C86.7715 126.086 87.8002 127.097 89.0691 127.097Z" fill="#C8E7FE"/>
<path d="M89.0691 139.262C90.3381 139.262 91.3668 138.251 91.3668 137.005C91.3668 135.758 90.3381 134.747 89.0691 134.747C87.8002 134.747 86.7715 135.758 86.7715 137.005C86.7715 138.251 87.8002 139.262 89.0691 139.262Z" fill="#C8E7FE"/>
<path d="M66.4754 17.4847C67.7443 17.4847 68.773 16.474 68.773 15.2272C68.773 13.9804 67.7443 12.9697 66.4754 12.9697C65.2064 12.9697 64.1777 13.9804 64.1777 15.2272C64.1777 16.474 65.2064 17.4847 66.4754 17.4847Z" fill="#C8E7FE"/>
<path d="M66.4754 29.6497C67.7443 29.6497 68.773 28.639 68.773 27.3922C68.773 26.1455 67.7443 25.1348 66.4754 25.1348C65.2064 25.1348 64.1777 26.1455 64.1777 27.3922C64.1777 28.639 65.2064 29.6497 66.4754 29.6497Z" fill="#C8E7FE"/>
<path d="M66.4754 41.8147C67.7443 41.8147 68.773 40.804 68.773 39.5573C68.773 38.3105 67.7443 37.2998 66.4754 37.2998C65.2064 37.2998 64.1777 38.3105 64.1777 39.5573C64.1777 40.804 65.2064 41.8147 66.4754 41.8147Z" fill="#C8E7FE"/>
<path d="M66.4754 53.9808C67.7443 53.9808 68.773 52.9701 68.773 51.7233C68.773 50.4765 67.7443 49.4658 66.4754 49.4658C65.2064 49.4658 64.1777 50.4765 64.1777 51.7233C64.1777 52.9701 65.2064 53.9808 66.4754 53.9808Z" fill="#C8E7FE"/>
<path d="M66.4754 66.1458C67.7443 66.1458 68.773 65.1351 68.773 63.8883C68.773 62.6416 67.7443 61.6309 66.4754 61.6309C65.2064 61.6309 64.1777 62.6416 64.1777 63.8883C64.1777 65.1351 65.2064 66.1458 66.4754 66.1458Z" fill="#C8E7FE"/>
<path d="M66.4754 78.3108C67.7443 78.3108 68.773 77.3001 68.773 76.0534C68.773 74.8066 67.7443 73.7959 66.4754 73.7959C65.2064 73.7959 64.1777 74.8066 64.1777 76.0534C64.1777 77.3001 65.2064 78.3108 66.4754 78.3108Z" fill="#C8E7FE"/>
<path d="M66.4754 90.4759C67.7443 90.4759 68.773 89.4652 68.773 88.2184C68.773 86.9716 67.7443 85.9609 66.4754 85.9609C65.2064 85.9609 64.1777 86.9716 64.1777 88.2184C64.1777 89.4652 65.2064 90.4759 66.4754 90.4759Z" fill="#C8E7FE"/>
<path d="M66.4754 102.767C67.7443 102.767 68.773 101.756 68.773 100.509C68.773 99.2627 67.7443 98.252 66.4754 98.252C65.2064 98.252 64.1777 99.2627 64.1777 100.509C64.1777 101.756 65.2064 102.767 66.4754 102.767Z" fill="#C8E7FE"/>
<path d="M66.4754 114.932C67.7443 114.932 68.773 113.921 68.773 112.674C68.773 111.428 67.7443 110.417 66.4754 110.417C65.2064 110.417 64.1777 111.428 64.1777 112.674C64.1777 113.921 65.2064 114.932 66.4754 114.932Z" fill="#C8E7FE"/>
<path d="M66.4754 127.097C67.7443 127.097 68.773 126.086 68.773 124.84C68.773 123.593 67.7443 122.582 66.4754 122.582C65.2064 122.582 64.1777 123.593 64.1777 124.84C64.1777 126.086 65.2064 127.097 66.4754 127.097Z" fill="#C8E7FE"/>
<path d="M66.4754 139.262C67.7443 139.262 68.773 138.251 68.773 137.005C68.773 135.758 67.7443 134.747 66.4754 134.747C65.2064 134.747 64.1777 135.758 64.1777 137.005C64.1777 138.251 65.2064 139.262 66.4754 139.262Z" fill="#C8E7FE"/>
</g>
<path opacity="0.3" d="M38.9735 213.218C47.5203 232.124 61.8363 248.894 81.1736 260.643C112.583 279.655 147.839 290.55 180.744 306.465C216.534 323.662 247.944 336.266 288.969 328.362C326.148 321.205 360.228 301.659 388.54 276.985C446.872 226.249 486.722 138.664 441.53 66.352C426.787 42.7465 399.651 25.1225 371.98 28.4337C334.695 32.813 311.298 69.9836 278.82 88.7825C207.347 130.226 125.404 39.4353 61.8363 98.3955C27.7557 130.119 22.0934 175.834 38.9735 213.218Z" fill="url(#paint0_linear)"/>
<g filter="url(#filter0_d)">
<rect x="81.5371" y="36.542" width="341.171" height="228.34" rx="8" fill="white"/>
<rect x="82.5371" y="37.542" width="339.171" height="226.34" rx="7" stroke="#C8E7FE" stroke-width="2"/>
</g>
<path d="M230.669 108.92C230.669 109.405 230.552 109.86 230.318 110.285C230.092 110.709 229.733 111.052 229.239 111.312C228.753 111.572 228.138 111.702 227.393 111.702H225.872V115.186H224.052V106.112H227.393C228.095 106.112 228.693 106.233 229.187 106.476C229.681 106.718 230.049 107.052 230.292 107.477C230.543 107.901 230.669 108.382 230.669 108.92ZM227.315 110.233C227.817 110.233 228.19 110.12 228.433 109.895C228.675 109.661 228.797 109.336 228.797 108.92C228.797 108.036 228.303 107.594 227.315 107.594H225.872V110.233H227.315ZM233.781 109.102C234.015 108.72 234.318 108.421 234.691 108.205C235.072 107.988 235.506 107.88 235.991 107.88V109.791H235.51C234.938 109.791 234.505 109.925 234.21 110.194C233.924 110.462 233.781 110.93 233.781 111.598V115.186H231.961V107.984H233.781V109.102ZM240.415 115.303C239.721 115.303 239.097 115.151 238.543 114.848C237.988 114.536 237.55 114.098 237.23 113.535C236.918 112.971 236.762 112.321 236.762 111.585C236.762 110.848 236.922 110.198 237.243 109.635C237.572 109.071 238.018 108.638 238.582 108.335C239.145 108.023 239.773 107.867 240.467 107.867C241.16 107.867 241.788 108.023 242.352 108.335C242.915 108.638 243.357 109.071 243.678 109.635C244.007 110.198 244.172 110.848 244.172 111.585C244.172 112.321 244.003 112.971 243.665 113.535C243.335 114.098 242.885 114.536 242.313 114.848C241.749 115.151 241.117 115.303 240.415 115.303ZM240.415 113.717C240.744 113.717 241.052 113.639 241.338 113.483C241.632 113.318 241.866 113.075 242.04 112.755C242.213 112.434 242.3 112.044 242.3 111.585C242.3 110.9 242.118 110.376 241.754 110.012C241.398 109.639 240.961 109.453 240.441 109.453C239.921 109.453 239.483 109.639 239.128 110.012C238.781 110.376 238.608 110.9 238.608 111.585C238.608 112.269 238.777 112.798 239.115 113.171C239.461 113.535 239.895 113.717 240.415 113.717ZM245.039 111.559C245.039 110.831 245.182 110.185 245.468 109.622C245.762 109.058 246.161 108.625 246.664 108.322C247.166 108.018 247.725 107.867 248.341 107.867C248.809 107.867 249.255 107.971 249.68 108.179C250.104 108.378 250.442 108.647 250.694 108.985V105.566H252.54V115.186H250.694V114.12C250.468 114.475 250.152 114.761 249.745 114.978C249.337 115.194 248.865 115.303 248.328 115.303C247.721 115.303 247.166 115.147 246.664 114.835C246.161 114.523 245.762 114.085 245.468 113.522C245.182 112.95 245.039 112.295 245.039 111.559ZM250.707 111.585C250.707 111.143 250.62 110.766 250.447 110.454C250.273 110.133 250.039 109.89 249.745 109.726C249.45 109.552 249.134 109.466 248.796 109.466C248.458 109.466 248.146 109.548 247.86 109.713C247.574 109.877 247.34 110.12 247.158 110.441C246.984 110.753 246.898 111.125 246.898 111.559C246.898 111.992 246.984 112.373 247.158 112.703C247.34 113.023 247.574 113.27 247.86 113.444C248.154 113.617 248.466 113.704 248.796 113.704C249.134 113.704 249.45 113.621 249.745 113.457C250.039 113.283 250.273 113.041 250.447 112.729C250.62 112.408 250.707 112.027 250.707 111.585ZM261.116 107.984V115.186H259.283V114.276C259.049 114.588 258.742 114.835 258.36 115.017C257.988 115.19 257.58 115.277 257.138 115.277C256.575 115.277 256.077 115.16 255.643 114.926C255.21 114.683 254.868 114.332 254.616 113.873C254.374 113.405 254.252 112.85 254.252 112.209V107.984H256.072V111.949C256.072 112.521 256.215 112.963 256.501 113.275C256.787 113.578 257.177 113.73 257.671 113.73C258.174 113.73 258.568 113.578 258.854 113.275C259.14 112.963 259.283 112.521 259.283 111.949V107.984H261.116ZM262.444 111.585C262.444 110.839 262.596 110.189 262.899 109.635C263.202 109.071 263.623 108.638 264.16 108.335C264.697 108.023 265.313 107.867 266.006 107.867C266.899 107.867 267.635 108.092 268.216 108.543C268.805 108.985 269.2 109.609 269.399 110.415H267.436C267.332 110.103 267.154 109.86 266.903 109.687C266.66 109.505 266.357 109.414 265.993 109.414C265.473 109.414 265.061 109.604 264.758 109.986C264.455 110.358 264.303 110.891 264.303 111.585C264.303 112.269 264.455 112.802 264.758 113.184C265.061 113.556 265.473 113.743 265.993 113.743C266.73 113.743 267.211 113.413 267.436 112.755H269.399C269.2 113.535 268.805 114.154 268.216 114.614C267.627 115.073 266.89 115.303 266.006 115.303C265.313 115.303 264.697 115.151 264.16 114.848C263.623 114.536 263.202 114.102 262.899 113.548C262.596 112.984 262.444 112.33 262.444 111.585ZM272.851 109.479V112.963C272.851 113.205 272.908 113.383 273.02 113.496C273.142 113.6 273.341 113.652 273.618 113.652H274.463V115.186H273.319C271.785 115.186 271.018 114.44 271.018 112.95V109.479H270.16V107.984H271.018V106.203H272.851V107.984H274.463V109.479H272.851ZM278.528 115.303C277.939 115.303 277.41 115.199 276.942 114.991C276.474 114.774 276.102 114.484 275.824 114.12C275.556 113.756 275.408 113.353 275.382 112.911H277.215C277.25 113.188 277.384 113.418 277.618 113.6C277.861 113.782 278.16 113.873 278.515 113.873C278.862 113.873 279.131 113.803 279.321 113.665C279.521 113.526 279.62 113.348 279.62 113.132C279.62 112.898 279.499 112.724 279.256 112.612C279.022 112.49 278.645 112.36 278.125 112.222C277.588 112.092 277.146 111.957 276.799 111.819C276.461 111.68 276.167 111.468 275.915 111.182C275.673 110.896 275.551 110.51 275.551 110.025C275.551 109.626 275.664 109.262 275.889 108.933C276.123 108.603 276.453 108.343 276.877 108.153C277.311 107.962 277.818 107.867 278.398 107.867C279.256 107.867 279.941 108.083 280.452 108.517C280.964 108.941 281.245 109.518 281.297 110.246H279.555C279.529 109.96 279.408 109.734 279.191 109.57C278.983 109.396 278.702 109.31 278.346 109.31C278.017 109.31 277.761 109.37 277.579 109.492C277.406 109.613 277.319 109.782 277.319 109.999C277.319 110.241 277.441 110.428 277.683 110.558C277.926 110.679 278.303 110.805 278.814 110.935C279.334 111.065 279.763 111.199 280.101 111.338C280.439 111.476 280.73 111.693 280.972 111.988C281.224 112.274 281.354 112.655 281.362 113.132C281.362 113.548 281.245 113.92 281.011 114.25C280.786 114.579 280.457 114.839 280.023 115.03C279.599 115.212 279.1 115.303 278.528 115.303Z" fill="#212529"/>
<g filter="url(#filter1_d)">
<rect x="96.2949" y="50.4336" width="311.655" height="33.8603" rx="16.9301" fill="#EEF3FB"/>
<rect x="97.2949" y="51.4336" width="309.655" height="31.8603" rx="15.9301" stroke="#C8E7FE" stroke-width="2"/>
</g>
<rect x="104.107" y="135.519" width="68.5815" height="105.054" rx="7" fill="#F7F7F7"/>
<rect x="108.447" y="196.294" width="60.7684" height="15.6278" rx="3" fill="#EEEEEE"/>
<rect x="108.447" y="217.999" width="60.7684" height="5.20927" rx="2.60464" fill="#EEEEEE"/>
<rect x="108.447" y="226.681" width="60.7684" height="5.20926" rx="2.60463" fill="#EEEEEE"/>
<rect x="338.5" y="135.519" width="68.5815" height="105.054" rx="7" fill="#F7F7F7"/>
<rect x="342.84" y="196.294" width="60.7684" height="15.6278" rx="3" fill="#EEEEEE"/>
<rect x="342.84" y="217.999" width="60.7684" height="5.20927" rx="2.60464" fill="#EEEEEE"/>
<rect x="342.84" y="226.681" width="60.7684" height="5.20926" rx="2.60463" fill="#EEEEEE"/>
<rect x="260.369" y="135.519" width="68.5815" height="105.054" rx="7" fill="#F7F7F7"/>
<rect x="264.709" y="196.294" width="60.7684" height="15.6278" rx="3" fill="#EEEEEE"/>
<rect x="264.709" y="217.999" width="60.7684" height="5.20927" rx="2.60464" fill="#EEEEEE"/>
<rect x="264.709" y="226.681" width="60.7684" height="5.20926" rx="2.60463" fill="#EEEEEE"/>
<rect x="182.238" y="135.519" width="68.5815" height="105.054" rx="7" fill="#F7F7F7"/>
<rect x="186.578" y="196.294" width="60.7684" height="15.6278" rx="3" fill="#EEEEEE"/>
<rect x="186.578" y="217.999" width="60.7684" height="5.20927" rx="2.60464" fill="#EEEEEE"/>
<rect x="186.578" y="226.681" width="60.7684" height="5.20926" rx="2.60463" fill="#EEEEEE"/>
<path d="M132.559 163.757L127.786 160.078C127.346 159.739 126.74 159.745 126.307 160.093C125.135 161.033 124.592 162.581 124.91 164.073L125.243 165.633" fill="#333F61"/>
<path d="M157.064 177.905V177.857C157.064 175.625 155.517 173.697 153.352 173.23L148.351 172.151C142.397 170.866 136.888 168.011 132.388 163.877C131.309 163.655 129.722 163.515 128.19 164.239C126.084 165.233 126.227 166.847 124.069 168.174C122.373 169.217 119.338 170.032 117.488 168.794C116.642 168.227 116.003 167.203 114.137 166.346C113.773 166.179 113.466 166.066 113.268 165.997L113.152 166.05L112.437 168.697C112.095 169.965 111.922 171.273 111.922 172.586V177.905L112.515 181.112H156.245L157.064 177.905Z" fill="#7292CC"/>
<path d="M152.461 173.591C152.461 175.033 151.414 176.268 149.975 176.52L147.297 176.991C145.858 177.244 144.811 178.479 144.811 179.921V180.238L156.271 180.467L157.063 177.428V177.382C157.063 175.23 155.54 173.37 153.408 172.92L152.5 172.728L152.461 172.733L152.461 173.591Z" fill="#466FBA"/>
<path d="M129.334 177.483L129.333 177.471C128.922 173.496 126.79 169.862 123.449 167.439L123.273 167.311L123.27 167.31C120.776 168.29 117.802 167.874 115.696 166.013L115.08 165.333C114.534 164.731 113.503 164.954 113.284 165.72L112.446 168.646C112.098 169.863 111.922 171.118 111.922 172.379V177.483V178.532L129.334 177.483Z" fill="#97B4E8"/>
<path d="M118.256 177.483V172.379C118.256 171.118 118.425 169.863 118.76 168.646L119.016 167.719C117.762 167.5 116.556 166.933 115.554 166.013L114.96 165.333C114.435 164.731 113.443 164.954 113.232 165.72L112.427 168.646C112.092 169.863 111.922 171.118 111.922 172.379V177.483V178.532L118.256 178.136V177.483Z" fill="#6F98D7"/>
<path d="M150.686 183.691H115.87C113.69 183.691 111.922 182.079 111.922 180.091V177.887H129.04C129.912 177.887 130.619 178.531 130.619 179.327C130.619 180.131 131.341 180.493 132.222 180.48H152.659C153.867 180.463 154.948 179.791 155.406 178.772C155.538 178.477 155.808 178.25 156.141 178.154L157.064 177.887L156.941 179.867C155.899 182.181 153.429 183.691 150.686 183.691Z" fill="#333F61"/>
<path d="M118.357 180.091V177.887H111.922V180.091C111.922 182.079 113.66 183.691 115.805 183.691H122.24C120.096 183.691 118.357 182.079 118.357 180.091Z" fill="#12192E"/>
<path d="M122.414 180.467H111.922C112.055 182.267 113.77 183.692 115.867 183.692H126.109C126.109 181.911 124.455 180.467 122.414 180.467Z" fill="#333F61"/>
<path d="M118.363 180.467H111.922C112.053 182.267 113.738 183.692 115.799 183.692H122.24C120.179 183.692 118.494 182.267 118.363 180.467Z" fill="#253551"/>
<path d="M137.551 171.473C138.304 171.837 138.957 172.134 139.522 172.376C141.421 173.191 143.627 172.552 144.811 170.849C140.238 169.305 136.019 166.816 132.433 163.526C130.917 162 128.478 162.042 127.015 163.618L126.754 163.899C129.076 165.817 134.073 169.792 137.551 171.473Z" fill="#3A74A9"/>
<path d="M115.079 167.164C115.33 167.398 115.581 167.632 115.832 167.866C116.375 168.291 118.161 169.578 120.721 169.499C123.296 169.42 125.019 168.008 125.536 167.55L126.928 165.931C128.38 164.24 130.812 164.134 132.385 165.693C134.174 167.466 136.198 168.077 138.362 168.258C136.227 166.92 134.221 165.331 132.385 163.511C130.812 161.953 128.38 162.059 126.928 163.749L125.536 165.368C122.908 168.425 118.501 168.593 115.683 165.744L115.079 164.982C114.544 164.308 113.534 164.557 113.319 165.416L113.211 165.848C114 166.252 114.816 166.833 115.079 167.164Z" fill="#466FBA"/>
<path d="M134.262 164.373C134.224 163.976 133.865 163.69 133.464 163.698C133.359 163.701 133.253 163.708 133.148 163.713C132.615 163.738 132.083 163.763 131.55 163.787C131.329 163.798 131.108 163.808 130.888 163.818C130.724 163.826 130.564 163.828 130.411 163.899C130.046 164.07 129.879 164.505 130.04 164.868C130.172 165.163 130.476 165.327 130.799 165.315C131.263 165.296 131.726 165.272 132.19 165.25C132.378 165.241 132.58 165.211 132.768 165.223C132.814 165.226 132.796 165.213 132.811 165.245C132.836 165.302 132.826 165.404 132.832 165.464C132.877 165.929 132.921 166.394 132.967 166.858C132.998 167.162 133.18 167.428 133.485 167.529C133.876 167.659 134.314 167.452 134.452 167.073C134.514 166.905 134.491 166.739 134.475 166.568C134.453 166.34 134.431 166.113 134.409 165.885C134.362 165.41 134.316 164.936 134.27 164.461C134.267 164.432 134.265 164.402 134.262 164.373Z" fill="#333F61"/>
<path d="M139.64 170.543C139.504 169.785 139.368 169.026 139.232 168.268C139.199 168.087 139.149 167.919 139.025 167.784C138.855 167.6 138.62 167.536 138.387 167.581C138.033 167.65 137.681 167.73 137.328 167.804C137.001 167.873 136.672 167.937 136.346 168.011C136.049 168.079 135.818 168.341 135.787 168.674C135.752 169.048 135.986 169.401 136.323 169.483C136.493 169.525 136.659 169.476 136.825 169.441C137.051 169.394 137.277 169.346 137.503 169.299C137.605 169.277 137.708 169.255 137.81 169.234C137.848 169.226 137.94 169.186 137.977 169.199C138.019 169.212 138.032 169.426 138.041 169.478C138.119 169.912 138.197 170.347 138.275 170.781C138.322 171.046 138.459 171.271 138.693 171.379C139.015 171.527 139.397 171.382 139.566 171.051C139.645 170.897 139.671 170.716 139.64 170.543Z" fill="#333F61"/>
<ellipse cx="111.691" cy="67.5676" rx="4.11112" ry="4.11156" fill="#F5386C"/>
<ellipse cx="125.854" cy="67.5676" rx="3.65433" ry="4.11156" fill="#FBD854"/>
<ellipse cx="140.013" cy="67.5676" rx="4.11112" ry="4.11156" fill="#02CFA2"/>
<path d="M236.736 179.894V177.454C236.736 175.816 235.611 174.397 234.028 174.041L221.171 171.153L204.74 160.665L202.019 163.14C198.629 166.223 193.502 166.285 190.039 163.287L189.674 164.025C187.64 168.138 186.58 172.673 186.58 177.272H201.281L214.253 179.894H236.736Z" fill="#7292CC"/>
<path d="M201.299 177.318C201.776 177.319 202.164 176.941 202.164 176.476C202.164 176.374 202.145 176.273 202.109 176.178C201.996 175.886 199.233 168.989 188.544 166.382C188.085 166.254 187.607 166.514 187.476 166.962C187.345 167.41 187.612 167.876 188.071 168.004C188.088 168.009 188.106 168.013 188.124 168.017C197.943 170.412 200.466 176.708 200.489 176.771C200.616 177.1 200.938 177.318 201.299 177.318Z" fill="#466FBA"/>
<path d="M203.173 176.85C205.446 173.496 209.598 171.851 213.625 172.708L218.918 173.815L219.32 172.833C219.78 171.712 219.363 170.431 218.326 169.773C217.884 169.494 204.541 161.287 204.123 161.023L205.315 159.828C205.735 160.094 218.818 168.075 219.265 168.358C220.995 169.455 221.69 171.59 220.926 173.46L219.982 175.762L213.263 174.357C209.931 173.65 206.495 175.012 204.612 177.785C204.347 178.173 203.81 178.278 203.413 178.02C203.016 177.761 202.908 177.238 203.173 176.85Z" fill="#466FBA"/>
<path d="M219.328 166.301L217.867 165.4L215.098 169.675L216.559 170.576L219.328 166.301Z" fill="#333F61"/>
<path d="M216.395 164.507L214.932 163.606L212.162 167.884L213.625 168.785L216.395 164.507Z" fill="#333F61"/>
<path d="M213.471 162.706L212.009 161.806L209.24 166.083L210.701 166.984L213.471 162.706Z" fill="#333F61"/>
<path d="M210.551 160.905L209.089 160.004L206.319 164.282L207.781 165.183L210.551 160.905Z" fill="#333F61"/>
<path d="M201.301 176.475H186.608V182.377H201.301V176.475Z" fill="#333F61"/>
<path d="M201.3 179.847L214.264 182.377H236.736V179.004H214.264L201.3 176.475V179.847Z" fill="#333F61"/>
<path d="M307.925 170.477C305.986 170.043 304.111 169.36 302.347 168.446L291.818 162.866C289.388 161.615 286.42 162.105 284.525 164.069C283.163 165.491 281.238 166.241 279.268 166.117C277.126 166.28 275.043 165.371 273.713 163.692C273.069 162.73 271.983 162.152 270.821 162.152H268.311C267.76 162.152 267.314 162.596 267.314 163.143V171.072C267.314 171.619 267.76 172.063 268.311 172.063C272.161 172.063 275.283 175.169 275.283 179.001C275.283 179.548 275.729 179.992 276.279 179.992H300.186C300.527 179.992 300.844 179.818 301.026 179.532C303.204 176.121 306.374 172.44 307.696 172.44C308.246 172.437 308.69 171.991 308.688 171.444C308.685 170.988 308.371 170.592 307.925 170.485L307.925 170.477Z" fill="#7292CC"/>
<path d="M307.864 170.51C307.79 170.493 307.715 170.484 307.639 170.484C304.639 170.484 300.497 176.64 299.3 178.527C299.005 178.99 299.142 179.605 299.606 179.9C299.766 180.001 299.95 180.054 300.139 180.055H314.065C314.612 180.055 315.057 179.613 315.06 179.066C314.838 174.928 311.903 171.437 307.864 170.51Z" fill="#466FBA"/>
<path d="M268.309 170.111C267.76 170.111 267.314 170.557 267.314 171.106V179.065C267.314 179.614 267.76 180.06 268.309 180.06H276.267C276.816 180.06 277.262 179.614 277.262 179.065C277.262 174.12 273.253 170.111 268.309 170.111Z" fill="#333F61"/>
<path d="M292.614 167.448C292.065 167.421 291.642 166.955 291.668 166.406C291.678 166.21 291.745 166.022 291.861 165.864L293.992 162.979C294.318 162.537 294.941 162.443 295.383 162.769C295.825 163.096 295.918 163.719 295.592 164.161L293.462 167.046C293.264 167.314 292.946 167.464 292.614 167.448Z" fill="#333F61"/>
<path d="M296.493 169.627C295.944 169.6 295.521 169.134 295.547 168.585C295.557 168.389 295.624 168.201 295.74 168.043L297.871 165.157C298.197 164.715 298.82 164.622 299.262 164.948C299.704 165.275 299.797 165.898 299.471 166.34L297.341 169.225C297.143 169.492 296.825 169.643 296.493 169.627Z" fill="#333F61"/>
<path d="M300.372 171.804C299.823 171.778 299.4 171.311 299.426 170.763C299.436 170.567 299.503 170.378 299.619 170.221L301.749 167.335C302.076 166.893 302.699 166.799 303.141 167.126C303.583 167.452 303.676 168.075 303.35 168.517L301.219 171.403C301.022 171.67 300.703 171.821 300.372 171.804Z" fill="#333F61"/>
<path d="M314.954 178.304H267.314V179.919C267.314 180.811 268.648 181.534 270.292 181.534H311.977C313.621 181.534 314.954 180.811 314.954 179.919V178.304Z" fill="#333F61"/>
<g clip-path="url(#clip0)">
<path d="M355.77 176.193C358.163 176.482 359.607 175.499 361.001 175.07C362.412 174.542 363.964 174.583 365.35 175.169C368.288 176.424 373.792 178.479 378.331 178.495C384.082 178.52 390.61 177.926 393.011 172.57C392.326 170.242 390.107 168.625 387.59 168.691C384.421 168.765 379.007 168.666 377.893 167.172C376.54 165.357 371.523 159.538 367.702 157.467C366.761 156.955 365.59 157.359 365.144 158.333C364.145 160.529 361.942 164.317 358.501 164.936C355.2 165.53 351.181 163.97 348.896 162.881C348.004 162.452 346.965 163.037 346.866 164.011L345.76 174.996L355.77 176.193Z" fill="#7292CC"/>
<path d="M348.887 162.873C348.004 162.452 346.965 163.038 346.866 164.012L345.76 174.996L347.963 175.26L349.028 164.713C349.094 164.045 349.605 163.558 350.208 163.459C349.721 163.261 349.275 163.062 348.887 162.873Z" fill="#678ACA"/>
<path d="M378.306 178.091C373.842 178.075 368.42 176.053 365.523 174.815C364.162 174.237 362.627 174.196 361.241 174.716C359.904 175.12 358.443 176.102 356.091 175.822L345.834 174.592L345.801 174.617L345.454 178.025C345.339 179.164 346.148 180.179 347.278 180.336L357.247 181.681C358.105 181.797 358.955 181.401 359.417 180.666L360.267 179.329C360.712 178.628 361.488 178.207 362.313 178.24C363.254 178.273 364.616 178.487 366.233 179.247C369.047 180.567 372.067 181.392 375.162 181.599C379.899 181.912 386.178 181.624 390.123 178.677C393.374 176.251 393.572 173.907 392.838 172.1C390.527 177.522 384.025 178.116 378.306 178.091Z" fill="#333F61"/>
<path d="M345.834 174.592L345.801 174.617L345.454 178.025C345.339 179.164 346.148 180.179 347.278 180.336L348.252 180.468C347.798 180.031 347.55 179.403 347.616 178.735C347.682 178.066 347.955 175.417 348.004 174.856L345.834 174.592Z" fill="#27304A"/>
<path d="M358.493 164.928C355.192 165.522 351.173 163.962 348.887 162.873C348.004 162.452 346.965 163.038 346.866 164.012L346.75 165.192C346.75 165.192 356.438 170.828 361.868 163.128C360.919 164.012 359.797 164.697 358.493 164.928Z" fill="#466FBA"/>
<path d="M348.887 162.873C348.004 162.452 346.965 163.038 346.866 164.012L346.75 165.192C346.75 165.192 347.575 165.67 348.879 166.157L349.028 164.721C349.094 164.053 349.605 163.566 350.208 163.467C349.721 163.261 349.275 163.062 348.887 162.873Z" fill="#365A9B"/>
<path d="M365.763 164.449C365.499 164.218 365.474 163.813 365.705 163.549L369.848 158.861C370.079 158.597 370.483 158.573 370.747 158.804C371.011 159.035 371.036 159.439 370.805 159.703L366.662 164.391C366.431 164.663 366.027 164.688 365.763 164.449Z" fill="#333F61"/>
<path d="M368.155 166.199C367.891 165.968 367.866 165.563 368.098 165.299L372.009 160.884C372.24 160.62 372.644 160.595 372.909 160.826C373.173 161.057 373.197 161.462 372.966 161.726L369.055 166.141C368.824 166.405 368.419 166.43 368.155 166.199Z" fill="#333F61"/>
<path d="M370.556 167.948C370.292 167.717 370.267 167.312 370.498 167.048L374.005 163.087C374.236 162.823 374.64 162.798 374.905 163.029C375.169 163.26 375.193 163.665 374.962 163.929L371.455 167.89C371.224 168.154 370.82 168.179 370.556 167.948Z" fill="#333F61"/>
<path d="M372.95 169.698C372.686 169.467 372.661 169.063 372.892 168.799L376.078 165.2C376.309 164.936 376.713 164.911 376.977 165.142C377.241 165.374 377.266 165.778 377.035 166.042L373.85 169.64C373.619 169.904 373.214 169.929 372.95 169.698Z" fill="#333F61"/>
<path d="M365.34 175.178C368.278 176.432 373.782 178.487 378.321 178.504C384.073 178.528 390.6 177.934 393.001 172.578C392.754 171.72 392.275 170.936 391.632 170.292C390.476 172.397 388.091 173.676 388.091 173.676C381.036 177.588 371.224 174.055 366.438 171.86C364.738 171.084 362.815 170.977 361.033 171.53C354.671 173.511 346.113 171.423 346.113 171.423L345.75 174.996L355.76 176.193C358.153 176.482 359.597 175.5 360.992 175.07C362.403 174.551 363.962 174.584 365.34 175.178Z" fill="#466FBA"/>
<path d="M348.31 171.844C346.965 171.621 346.123 171.423 346.123 171.423L345.76 174.996L347.963 175.26L348.31 171.844Z" fill="#4369AD"/>
</g>
<path d="M363.353 71.8575H371.713C372.265 71.8575 372.716 71.3835 372.716 70.8041C372.716 68.7849 371.629 66.9413 369.957 65.9932C370.325 65.4665 370.542 64.8344 370.542 64.1321C370.542 62.3939 369.188 60.9717 367.533 60.9717C365.878 60.9717 364.523 62.3939 364.523 64.1321C364.523 64.8344 364.741 65.4665 365.108 65.9932C363.436 66.9238 362.35 68.7674 362.35 70.8041C362.35 71.3835 362.801 71.8575 363.353 71.8575ZM367.533 62.0252C368.636 62.0252 369.539 62.9733 369.539 64.1321C369.539 65.2909 368.636 66.239 367.533 66.239C366.429 66.239 365.526 65.2909 365.526 64.1321C365.526 62.9733 366.429 62.0252 367.533 62.0252ZM365.878 66.7658C366.346 67.0994 366.931 67.2925 367.533 67.2925C368.151 67.2925 368.72 67.0994 369.188 66.7658C370.71 67.4681 371.713 69.0483 371.713 70.8041H363.353C363.353 69.0483 364.356 67.4681 365.878 66.7658Z" fill="#6C757D"/>
<g clip-path="url(#clip1)">
<path d="M352.563 68.5895L352.689 68.4029C353.188 67.6675 353.457 66.8004 353.457 65.9058C353.457 63.458 351.465 61.4658 349.018 61.4658C346.57 61.4658 344.578 63.458 344.578 65.9058C344.578 68.3535 346.57 70.3457 349.018 70.3457C349.912 70.3457 350.774 70.0823 351.514 69.5774L351.701 69.4512L354.582 72.3325L355.444 71.4708L352.563 68.5895ZM349.018 69.1274C347.24 69.1274 345.796 67.684 345.796 65.9058C345.796 64.1276 347.24 62.6842 349.018 62.6842C350.796 62.6842 352.239 64.1276 352.239 65.9058C352.239 67.684 350.796 69.1274 349.018 69.1274Z" fill="#6C757D"/>
</g>
<g clip-path="url(#clip2)">
<path d="M389.727 62.4003H388.408V62.2877C388.408 61.0188 387.347 59.9844 386.043 59.9844C384.738 59.9844 383.677 61.0188 383.677 62.2877V62.4003H382.361C381.67 62.4003 381.107 62.9492 381.107 63.6247V70.8396C381.107 71.1164 381.338 71.3416 381.622 71.3416H386.055C386.339 71.3416 386.57 71.1164 386.57 70.8396C386.57 70.5629 386.339 70.3377 386.055 70.3377H382.137V63.6247C382.137 63.5027 382.238 63.4042 382.363 63.4042H389.729C389.854 63.4042 389.955 63.5027 389.955 63.6247V65.731C389.955 66.0078 390.186 66.233 390.47 66.233C390.754 66.233 390.985 66.0078 390.985 65.731V63.6247C390.98 62.9492 390.417 62.4003 389.727 62.4003ZM386.045 60.9883C386.781 60.9883 387.38 61.5723 387.38 62.2877V62.4003H384.71V62.2877C384.71 61.57 385.309 60.9883 386.045 60.9883Z" fill="#6C757D"/>
</g>
<ellipse cx="391.228" cy="71.0923" rx="3.70227" ry="3.70267" fill="#4764BF"/>
<path d="M391.513 72.8194H390.699V70.2256L389.898 70.4594V69.8423L391.439 69.3096H391.513V72.8194Z" fill="white"/>
<g clip-path="url(#clip3)">
<path d="M112.563 257.915C112.563 257.846 112.148 250.863 109.175 248.582C108.484 248.028 107.724 247.821 106.825 247.89C101.71 248.374 101.571 257.846 101.571 257.915H100.604C100.604 257.5 100.742 247.614 106.687 247.061C107.793 246.922 108.83 247.268 109.728 247.89C113.047 250.379 113.461 257.5 113.461 257.846L112.563 257.915Z" fill="#6020BF"/>
<path d="M97.355 257.086L120.029 257.017L124.592 292.069L92.6543 292.207L97.355 257.086Z" fill="#564CA0"/>
<path d="M113.254 257.639C113.254 257.569 112.839 250.587 109.867 248.305C109.176 247.752 108.415 247.545 107.516 247.614C102.401 248.098 102.263 257.569 102.263 257.639H101.295C101.295 257.224 101.433 247.337 107.378 246.784C108.484 246.646 109.521 246.992 110.42 247.614C113.738 250.103 114.153 257.224 114.153 257.569L113.254 257.639Z" fill="#564CA0"/>
<path d="M92.6535 292.207L90.0957 289.649L95.2803 258.538L97.3542 257.086L92.6535 292.207Z" fill="#695DC3"/>
<path d="M247.92 266.266L289.363 280.524L300.202 249.014L258.759 234.755L247.92 266.266Z" fill="#2DF8B4"/>
<path d="M256.122 237.985L300.311 253.188L302.11 247.958L257.921 232.755L256.122 237.985Z" fill="#0DB570"/>
<path d="M256.498 241.316L297.941 255.574L298.931 252.698L257.488 238.439L256.498 241.316Z" fill="#15CC86"/>
<path d="M266.8 272.762L270.461 274.021L281.84 240.942L278.179 239.682L266.8 272.762Z" fill="white"/>
<path d="M275.451 247.595L266.793 272.765L270.454 274.024L279.111 248.855L275.451 247.595Z" fill="white"/>
<path d="M276.368 244.933L275.379 247.81L279.04 249.069L280.029 246.193L276.368 244.933Z" fill="#D8D8D8"/>
<path d="M282.549 241.322L291.881 244.502C293.886 245.194 295.614 243.742 296.236 241.944C296.858 240.147 296.444 238.004 293.748 237.036C289.116 235.446 283.724 238.073 283.724 238.073L282.549 241.322Z" fill="#C4DAFC"/>
<path d="M282.549 241.322L291.881 244.502C293.886 245.194 295.614 243.742 296.236 241.944C296.858 240.147 296.444 238.004 293.748 237.036C289.116 235.446 283.724 238.073 283.724 238.073L282.549 241.322Z" fill="#0FB572"/>
<path d="M277.365 239.524L268.032 236.344C266.028 235.653 265.544 233.441 266.166 231.643C266.788 229.845 268.447 228.394 271.143 229.292C275.775 230.882 278.402 236.275 278.402 236.275L277.365 239.524Z" fill="#0FB572"/>
<path d="M266.098 234.201C266.374 235.169 266.996 235.93 268.102 236.344L277.435 239.525L278.541 236.275C278.541 236.275 278.264 235.722 277.711 234.893L277.158 236.414C277.089 236.344 276.951 236.275 276.882 236.206C276.674 236.068 276.329 236.137 276.19 236.344C276.052 236.552 276.121 236.897 276.329 237.036C276.467 237.174 276.674 237.243 276.813 237.381C276.605 237.589 276.329 237.658 276.052 237.589L266.098 234.201Z" fill="#049959"/>
<path d="M285.176 237.52C284.208 237.865 283.655 238.142 283.655 238.142L282.549 241.391L291.881 244.571C292.987 244.917 293.955 244.71 294.715 244.087L284.83 240.7C284.554 240.631 284.415 240.354 284.346 240.078C284.554 240.078 284.761 240.078 284.968 240.078C285.245 240.078 285.521 239.87 285.521 239.594C285.521 239.317 285.314 239.041 285.037 239.041C284.899 239.041 284.83 239.041 284.692 239.041L285.176 237.52Z" fill="#049959"/>
<path d="M278.54 236.275C278.678 235.791 279.231 235.515 279.715 235.722L283.171 236.897C283.655 237.036 283.932 237.589 283.724 238.073L282.618 241.322L277.434 239.525L278.54 236.275Z" fill="#F1F1F1"/>
<path d="M282.55 241.322L277.365 239.525L277.78 238.211L282.965 240.008L282.55 241.322Z" fill="#D8D8D8"/>
<path d="M231.085 310.703L274.912 310.501L274.759 277.177L230.931 277.379L231.085 310.703Z" fill="#443A8F"/>
<path d="M229.494 281.281L276.225 281.066L276.199 275.536L229.468 275.75L229.494 281.281Z" fill="#443A8F"/>
<g style="mix-blend-mode:multiply">
<path d="M230.979 284.328L274.807 284.126L274.793 281.084L230.965 281.286L230.979 284.328Z" fill="#6020BF"/>
</g>
<path d="M251.058 310.636L254.93 310.618L254.769 275.635L250.898 275.653L251.058 310.636Z" fill="white"/>
<path d="M254.84 283.972L250.969 283.99L251.091 310.608L254.962 310.59L254.84 283.972Z" fill="#F1F1F1"/>
<path d="M254.824 281.137L250.953 281.155L250.967 284.197L254.838 284.179L254.824 281.137Z" fill="#D8D8D8"/>
<path d="M202.775 255.841H212.591L213.905 260.681C213.905 260.75 213.905 260.75 213.905 260.819L216.601 270.498L217.016 272.019L220.403 284.187L221.232 287.16L224.551 298.982L225.38 301.955L228.353 312.602C228.353 312.671 228.422 312.74 228.422 312.809L230.98 321.935C232.293 326.706 236.717 330.024 241.625 330.024H287.043C287.872 330.024 288.495 329.333 288.495 328.572C288.495 327.743 287.803 327.12 287.043 327.12H241.625C238.031 327.12 234.782 324.701 233.814 321.175L231.74 313.708H295.477C296.237 313.708 296.859 313.155 296.928 312.394L298.38 301.955L298.795 298.982L300.454 287.16L300.869 284.187L302.597 271.673C302.735 271.466 302.804 271.189 302.804 270.913C302.804 270.775 302.804 270.636 302.735 270.567L304.118 260.681C304.187 260.266 304.049 259.851 303.772 259.505C303.496 259.16 303.081 259.021 302.666 259.021H216.532L215.149 254.044C214.942 253.421 214.389 252.938 213.697 252.938H201.669C201.462 253.283 201.254 253.56 201.047 253.836C201.6 254.528 202.153 255.219 202.775 255.841ZM228.422 301.955H295.407L294.163 310.735H230.91L228.906 303.407C228.906 303.338 228.837 303.269 228.837 303.199L228.422 301.955ZM224.343 287.229H297.481L295.822 299.051H227.661L224.343 287.229ZM220.196 272.434H299.486L297.827 284.256H223.514L220.196 272.434ZM217.292 261.925H300.938L299.901 269.461H219.366L217.292 261.925Z" fill="#313C98"/>
<path d="M187.153 256.809H204.712C206.025 256.809 207.062 255.772 207.062 254.458C207.062 253.144 206.025 252.107 204.712 252.107H187.153C185.84 252.107 184.803 253.144 184.803 254.458C184.803 255.772 185.84 256.809 187.153 256.809Z" fill="#1A0F92"/>
<path d="M117.678 339.911C118.715 340.118 119.821 340.049 120.789 339.703C120.997 341.086 121.273 342.538 121.273 342.538L134.2 348.691H111.664C111.595 346.271 113.254 341.916 113.323 339.081C114.775 339.427 116.227 339.703 117.678 339.911Z" fill="#002E4F"/>
<path d="M162.266 341.362C162.266 341.362 162.404 338.113 162.128 336.592C159.362 337.56 157.703 336.592 154.869 336.592C155.284 339.288 155.007 344.404 155.215 347.377H178.373L162.266 341.362Z" fill="#002E4F"/>
<path d="M160.538 219.407C159.708 217.125 159.916 214.913 159.916 212.562C163.234 211.248 162.197 209.727 168.764 211.318C175.124 229.639 193.512 248.375 193.512 248.375L188.88 251.278C188.811 251.278 167.451 238.073 160.538 219.407Z" fill="#F59D9B"/>
<path d="M153.902 184.078C153.902 184.078 168.765 204.957 172.014 210.834C172.014 210.834 164.893 216.365 160.4 216.503C160.469 216.503 153.211 192.236 153.902 184.078Z" fill="#1EE09A"/>
<path d="M136.826 255.565C136.826 255.565 140.835 269.323 157.703 293.313L153.002 341.985L164.685 340.809C164.685 340.809 183.211 286.054 156.113 248.375C128.945 210.626 136.826 255.565 136.826 255.565Z" fill="#0A0A72"/>
<path d="M126.112 249.411C126.112 249.411 120.028 267.939 131.504 294.902C131.504 294.902 124.245 307.969 118.715 319.93C113.669 330.784 112.562 343.989 112.562 343.989L121.342 342.675C121.342 342.675 157.911 292.414 145.952 247.544C133.923 202.537 126.112 249.411 126.112 249.411Z" fill="#1A0F92"/>
<path d="M114.221 198.112C115.88 196.315 117.816 194.448 119.82 193.342C122.586 195.623 123.622 197.697 125.42 204.265C109.105 211.663 110.142 243.396 110.142 243.396L104.889 242.636C104.889 242.636 101.985 211.248 114.221 198.112Z" fill="#F59D9B"/>
<path d="M150.515 182.211L150.653 182.142C150.653 182.142 161.368 185.668 163.926 199.357C166.829 220.997 160.953 252.592 160.953 252.592C157.773 251.417 150.861 251.831 139.938 250.863C130.675 250.034 122.656 243.12 122.656 243.12C133.233 238.557 129.154 201.5 129.154 201.5C127.011 202.745 126.389 204.611 123.831 206.409C121.688 203.298 119.614 196.177 117.402 193.342C132.68 179.584 150.515 182.211 150.515 182.211Z" fill="#2DF8B4"/>
<path d="M155.767 155.87L157.15 160.986C157.15 160.986 162.472 177.51 152.587 177.026C149.062 176.818 152.034 185.045 152.034 185.045C152.034 185.045 145.467 189.608 142.287 183.317C142.287 183.317 143.462 172.739 141.734 170.734C140.006 168.729 143.462 158.152 143.462 158.152C143.462 158.152 152.311 152.137 155.767 155.87Z" fill="#F59D9B"/>
<path d="M149.754 168.453C149.754 168.453 152.727 174.952 158.603 170.665C158.603 170.665 161.368 175.643 159.432 178.478C155.285 184.493 149.34 180.275 147.75 173.638C146.16 166.586 146.92 164.512 144.915 163.614C142.911 162.784 140.906 169.628 145.192 170.458C145.192 170.458 145.192 172.74 142.634 173.293C142.634 173.293 139.178 171.564 140.076 167.831C140.906 164.098 133.44 159.189 140.076 155.525C140.076 155.525 140.076 147.781 145.261 150.339C150.446 152.898 157.358 145.293 161.368 150.132C165.377 154.972 161.575 158.359 157.289 160.917L156.114 158.083C156.114 158.083 150.653 156.354 148.372 160.364C146.021 164.443 149.754 168.453 149.754 168.453Z" fill="#2F2E7F"/>
<path d="M110.005 243.12C110.419 244.295 113.254 249.204 110.834 250.448C107.862 251.9 106.756 253.629 103.161 249.826C101.986 248.582 104.889 242.705 104.889 242.705L110.005 243.12Z" fill="#F59D9B"/>
<path d="M198.628 258.399C199.112 258.814 199.873 258.883 200.426 258.468C201.048 258.053 201.255 257.293 200.979 256.601L198.836 251.554C199.32 250.379 198.628 249.066 197.315 248.789L192.407 247.752C192.407 247.752 188.812 248.098 188.121 249.48C187.706 250.379 188.881 252.661 189.849 254.251C189.573 254.873 189.573 255.633 189.849 256.325L191.162 259.229C191.577 260.058 192.614 260.404 193.375 259.851C193.513 259.713 193.651 259.574 193.789 259.436V259.505C194.204 260.335 195.241 260.68 196.001 260.127C196.071 260.058 196.209 259.989 196.278 259.92C196.762 260.196 197.384 260.196 197.937 259.851C198.49 259.574 198.697 258.952 198.628 258.399Z" fill="#F59D9B"/>
<path d="M193.097 249.55C193.097 249.55 194.618 250.933 195.448 250.794C195.448 250.794 194.618 251.693 194.826 252.523C194.826 252.523 193.996 252.177 193.374 252.868C193.374 252.868 192.337 252.799 191.991 253.491C191.991 253.491 190.747 253.214 190.263 253.836C190.263 253.836 190.056 252.592 191.853 252.384C193.581 252.246 194.273 251.555 193.789 250.863C193.305 250.241 193.097 249.55 193.097 249.55Z" fill="#DD8E8E"/>
<path d="M275.706 340.878C278.951 340.878 281.582 338.247 281.582 335.002C281.582 331.756 278.951 329.125 275.706 329.125C272.461 329.125 269.83 331.756 269.83 335.002C269.83 338.247 272.461 340.878 275.706 340.878Z" fill="#1A136B"/>
<path d="M275.707 338.597C277.712 338.597 279.371 336.938 279.371 334.933C279.371 332.928 277.712 331.269 275.707 331.269C273.702 331.269 272.043 332.928 272.043 334.933C272.043 337.007 273.702 338.597 275.707 338.597Z" fill="#464181"/>
<path d="M247.019 340.878C250.264 340.878 252.894 338.247 252.894 335.002C252.894 331.756 250.264 329.125 247.019 329.125C243.773 329.125 241.143 331.756 241.143 335.002C241.143 338.247 243.773 340.878 247.019 340.878Z" fill="#1A136B"/>
<path d="M247.019 338.597C249.024 338.597 250.683 336.938 250.683 334.933C250.683 332.928 249.024 331.269 247.019 331.269C245.015 331.269 243.355 332.928 243.355 334.933C243.355 337.007 245.015 338.597 247.019 338.597Z" fill="#464180"/>
<path d="M187.844 252.107H194.826L194.895 252.522C194.895 252.522 193.927 252.315 193.443 252.868C193.443 252.868 192.406 252.868 192.061 253.49C192.061 253.49 190.678 253.006 189.848 254.389L187.844 252.107Z" fill="#1A0F92"/>
<g clip-path="url(#clip4)">
<path d="M237.236 341.723C237.236 341.723 242.7 343.213 244.474 340.036C246.241 336.771 242.739 334.313 245.028 332.471C247.316 330.63 252.34 329.043 252.378 324.814C252.416 320.586 247.721 319.253 250.56 315.006C252.808 311.656 253.228 308.239 249.915 306.432C246.842 304.827 243.189 305.273 239.232 309.971C234.857 314.971 232.481 310.593 229.372 314.284C226.175 317.983 229.195 320.527 228.157 323.996C227.675 325.639 222.813 328.59 226.554 332.807L237.195 341.771L237.236 341.723Z" fill="#50BC8D"/>
<path d="M232.869 314.607C235.266 316.626 236.103 322.248 236.249 324.993C240.824 315.572 247.486 309.219 247.607 309.075C247.728 308.932 247.952 308.957 248.056 309.126C248.2 309.247 248.174 309.472 248.005 309.575C247.924 309.671 241.594 315.728 237.029 324.748C240.705 321.453 244.943 322.648 246.498 323.137C246.634 323.17 246.818 323.243 246.906 323.236C246.995 323.228 247.083 323.221 247.179 323.301C247.322 323.423 247.338 323.599 247.216 323.743C247.055 323.935 246.871 323.862 246.326 323.73C244.683 323.248 239.756 321.801 236.128 326.694C234.934 329.376 233.892 332.267 233.266 335.345C235.756 334.821 239.134 336.356 240.998 337.353C241.183 337.426 241.198 337.602 241.124 337.787C241.051 337.971 240.875 337.986 240.69 337.913C239.242 337.102 235.529 335.285 233.142 335.979C233 336.925 232.819 337.919 232.718 338.817C232.733 338.994 232.564 339.097 232.387 339.112C232.299 339.12 232.251 339.08 232.203 339.039C232.107 338.959 232.1 338.87 232.092 338.782C232.261 337.122 232.574 335.582 232.928 333.995L230.027 324.013C230.012 323.836 230.085 323.652 230.262 323.637C230.439 323.622 230.623 323.695 230.638 323.872L233.231 332.857C233.803 330.718 234.561 328.651 235.421 326.754C235.414 326.666 235.406 326.577 235.446 326.529C235.487 326.482 235.568 326.386 235.608 326.338C235.648 326.29 235.648 326.29 235.641 326.201C235.704 324.862 235.19 317.299 232.458 314.998C232.314 314.877 232.299 314.7 232.42 314.556C232.541 314.412 232.725 314.486 232.869 314.607Z" fill="white"/>
</g>
<path d="M238.687 342.961C238.687 342.961 240.424 322.604 233.828 321.42C227.232 320.277 230.084 328.465 226.774 327.241C223.423 325.976 223.727 314.975 216.082 315.612C208.438 316.167 218.18 325.013 213.623 324.955C208.984 324.896 215.199 330.233 215.146 334.349C215.094 338.464 203.012 329.589 201.505 335.154C199.35 343.156 213.89 342.769 213.89 342.769L238.687 342.961Z" fill="#564CA0"/>
<path d="M206.552 341.821C211.574 340.743 222.184 339.451 226.377 342.275C226.498 342.481 226.66 342.686 226.781 342.851L227.725 342.863C227.038 341.998 226.393 341.053 225.748 340.066C227.368 335.4 227.311 330.141 227.06 327.285C226.978 327.284 226.978 327.284 226.938 327.202C226.938 327.202 226.938 327.202 226.856 327.201C226.856 327.201 226.774 327.2 226.775 327.119C226.693 327.118 226.694 327.036 226.653 327.036C226.825 329.605 227.048 334.703 225.552 339.371C224.706 338.097 223.943 336.701 223.18 335.347C224.842 333.819 224.755 327.704 224.482 323.34C224.402 323.217 224.363 323.053 224.364 322.972C224.364 322.972 224.365 322.89 224.283 322.889C224.085 322.316 223.887 321.743 223.605 321.25C224.032 326.432 224.151 333.281 222.778 334.73C218.642 327.342 215.621 319.478 214.513 316.204C214.306 316.323 214.099 316.484 213.933 316.604C214.964 319.551 217.308 325.695 220.513 331.971C222.235 335.416 224.003 338.496 225.736 341.044C220.84 338.619 208.5 340.337 205.039 341.272C205.283 341.478 205.896 341.69 206.552 341.821Z" fill="#ECEEF6"/>
</g>
<g clip-path="url(#clip5)">
<path d="M91.2611 192.027C93.285 205.925 105.496 220.769 105.496 220.769C111.23 229.135 131.738 234.937 131.738 234.937L133.492 232.981C124.587 230.012 110.353 216.99 110.353 216.99L100.638 194.658L97.6026 190.475C97.6026 190.475 89.2373 178.128 91.2611 192.027Z" fill="#F59D9B"/>
<path d="M127.691 225.761C127.691 225.626 127.826 225.559 127.893 225.491C128.298 225.221 128.771 225.356 129.041 225.694C129.311 226.099 129.176 226.571 128.838 226.841C128.703 226.909 128.636 226.976 128.501 226.976C128.163 227.044 127.893 226.909 127.691 226.639C127.488 226.369 127.488 226.031 127.691 225.761Z" fill="#FED159"/>
<path d="M127.623 225.761C127.961 225.694 128.231 225.829 128.433 226.099C128.636 226.369 128.636 226.706 128.501 226.976C128.163 227.044 127.893 226.909 127.691 226.639C127.488 226.369 127.488 226.031 127.623 225.761Z" fill="#F6C454"/>
<path d="M127.354 227.651C127.764 227.651 128.096 227.319 128.096 226.909C128.096 226.498 127.764 226.166 127.354 226.166C126.944 226.166 126.611 226.498 126.611 226.909C126.611 227.319 126.944 227.651 127.354 227.651Z" fill="#FED159"/>
<path d="M127.96 234.937L127.555 234.33C126.004 232.103 126.543 229.067 128.702 227.515C130.928 225.963 133.964 226.503 135.516 228.662L135.92 229.269C136.393 229.877 136.19 230.754 135.583 231.226L129.916 235.274C129.242 235.746 128.365 235.612 127.96 234.937Z" fill="#1A0F92"/>
<path d="M134.774 231.833L135.516 231.294C136.123 230.821 136.325 229.944 135.853 229.337L135.448 228.73C133.897 226.503 130.794 226.031 128.635 227.583C130.254 226.436 132.817 227.313 134.369 229.472L134.774 230.079C135.246 230.754 135.246 231.496 134.774 231.833Z" fill="#1A0F92"/>
<path d="M125.803 230.484C126.072 228.999 126.882 227.718 128.096 226.84C129.243 225.963 130.727 225.626 132.212 225.828C133.089 225.963 133.898 226.301 134.573 226.773C134.843 226.975 134.843 227.448 134.573 227.65L134.505 227.718C132.886 226.368 130.39 226.233 128.569 227.515C127.489 228.325 126.815 229.472 126.612 230.686C126.477 231.563 126.545 232.44 126.882 233.25L126.815 233.317C126.545 233.52 126.072 233.385 126.005 233.048C125.803 232.238 125.735 231.428 125.803 230.484Z" fill="#FFF2D4"/>
<path d="M126.948 227.111C127.097 227.111 127.218 226.99 127.218 226.841C127.218 226.692 127.097 226.571 126.948 226.571C126.799 226.571 126.678 226.692 126.678 226.841C126.678 226.99 126.799 227.111 126.948 227.111Z" fill="#FFE4A9"/>
<path d="M130.457 232.644C129.715 231.564 130.457 230.889 131.941 230.012C133.358 229.135 134.64 231.834 134.64 231.834C134.64 231.834 134.168 233.048 132.616 234.195C131.064 235.342 131.604 234.668 131.334 234.6C131.334 234.6 131.132 233.656 130.457 232.644Z" fill="#F59D9B"/>
<path d="M56.7201 332.565C56.7201 332.565 55.7082 339.245 54.0216 341.404C53.4819 342.146 52.4025 343.023 51.7279 344.373C50.6485 346.397 51.2557 349.433 52.0652 351.119C52.47 351.997 52.0652 351.997 52.9422 352.266C55.6407 353.076 58.5416 351.727 59.7559 349.163C60.4305 347.746 60.9702 345.857 61.1051 343.495C61.375 337.423 63.3314 334.32 63.3314 334.32L56.7201 332.565Z" fill="#F59D9B"/>
<path d="M86.5385 335.602C86.5385 335.602 87.1457 344.103 86.6735 346.869C86.4036 348.353 84.9195 351.389 85.5941 352.806C86.2687 354.223 87.0782 354.56 87.0782 354.56L104.753 354.898C105.698 354.898 105.091 354.223 104.281 353.616C102.999 352.604 101.987 351.929 97.9396 349.77C97.6698 349.635 96.7253 348.96 96.388 348.758C95.511 348.151 94.634 347.274 93.8919 346.329C92.6101 344.777 92.5427 337.288 92.5427 337.288L86.5385 335.602Z" fill="#F59D9B"/>
<path d="M100.3 235.41C100.3 235.41 102.526 247.622 101.042 255.65C99.6254 263.679 92.6768 338.098 92.6768 338.098L84.9186 338.503C84.9186 338.503 83.2996 307.467 83.5694 303.081C83.8392 298.763 86.133 291.544 86.133 291.544L85.3909 266.446L95.1729 233.521L100.3 235.41Z" fill="#0A0A72"/>
<path d="M77.4992 232.845C77.4992 232.845 71.3602 241.819 69.9435 249.173C68.4593 256.595 71.0229 279.332 68.1895 289.047C66.7053 294.31 60.9036 302.406 60.0266 309.221C59.1495 316.035 55.709 333.779 55.709 333.779L63.4671 335.264L81.4795 290.869L95.6465 250.725L99.2894 230.079L77.4992 232.845Z" fill="#1A0F92"/>
<path d="M82.4239 181.906C82.4239 181.906 74.3285 181.434 71.1578 184.808C67.987 188.181 78.2413 215.034 78.8484 219.352C79.4556 223.67 75.8801 235.14 75.8801 235.14C75.8801 235.14 94.9044 238.85 100.301 235.342C99.1545 229.135 98.6823 222.59 99.087 216.316C99.3569 211.863 100.774 208.152 102.123 203.969C102.865 201.742 103.135 199.516 102.325 197.222C101.516 194.995 100.032 193.174 98.7497 191.217C97.1981 188.856 95.579 186.359 93.6226 184.268C92.5432 183.121 82.4239 181.906 82.4239 181.906Z" fill="#2DF8B4"/>
<path d="M85.1209 171.381C85.1209 171.381 85.0534 171.584 84.986 171.988C84.6487 173.877 83.232 180.152 82.2875 181.906C81.1406 183.998 86.2003 190.677 90.9901 189.8C92.4068 189.53 89.7758 183.661 89.9107 183.053C90.1131 182.176 90.3155 181.029 90.5853 179.882C90.6528 179.477 90.7877 179.005 90.8552 178.6C91.0576 177.656 91.26 176.711 91.3949 175.834C91.9346 173.27 92.3393 171.179 92.3393 171.179L85.1209 171.381Z" fill="#F59D9B"/>
<path d="M83.7045 178.533C83.7045 178.533 89.5062 182.783 90.6531 179.949L83.3672 172.933L83.7045 178.533Z" fill="#ED8A8A"/>
<path d="M60.2288 347.746C55.9787 348.488 53.2128 346.059 51.7286 344.305C50.6492 346.329 50.1095 349.365 50.9191 351.052C51.5937 352.536 53.685 352.468 55.2366 352.536C56.9232 352.603 58.2724 351.659 59.082 350.242C59.4868 349.635 59.8915 348.758 60.2288 347.746Z" fill="#0A0A72"/>
<path d="M96.5232 348.758C91.9358 349.973 87.9555 349.365 86.0666 348.556C85.5943 349.973 84.9197 351.794 85.257 352.874C85.6618 354.156 86.269 354.425 86.8087 354.425C90.9913 354.56 102.055 354.695 105.226 354.763C105.698 354.763 105.9 354.223 105.631 353.886C104.821 352.941 96.8605 349.028 96.5232 348.758Z" fill="#0A0A72"/>
<path d="M98.4801 228.257C97.8055 227.583 96.7261 227.043 95.7141 226.706C95.5792 226.638 95.3768 226.571 95.3094 226.503C94.5673 226.098 93.6228 225.829 91.7339 225.829C91.6664 225.829 91.6664 225.829 91.6664 225.829C90.722 225.829 88.833 226.773 87.2814 226.976C84.1782 226.841 70.2135 224.614 64.9515 224.951L70.4834 210.041L64.1419 206.937C64.0745 206.802 53.5504 227.245 58.9474 230.417C65.0864 234.06 87.8886 230.551 87.8886 230.551H88.0235L90.3847 231.968C90.3847 231.968 90.722 232.036 91.1942 232.171C92.6109 232.508 95.5118 233.115 96.1189 232.913C96.9285 233.183 98.2777 233.385 99.3571 233.385C99.5595 233.52 99.7619 233.52 99.8293 233.52C99.8968 233.52 99.8968 233.453 99.8293 233.385C100.302 233.385 100.706 233.25 100.841 233.115C101.651 232.373 100.504 230.214 98.4801 228.257Z" fill="#F59D9B"/>
<path d="M78.1055 168.548C78.1055 168.548 86.943 183.998 93.4193 178.803C99.8957 173.608 92.3399 157.887 92.3399 157.887C82.9627 155.391 78.1055 168.548 78.1055 168.548Z" fill="#F59D9B"/>
<path d="M93.4842 161.933C93.4842 161.933 91.123 157.345 88.6269 158.829C88.6269 158.829 86.3332 157.817 85.3213 160.043C85.0514 160.718 87.0078 165.441 83.5672 168.612C82.8926 169.287 84.2419 172.728 84.4442 173.74C87.0753 184.13 83.972 201.605 77.4957 207.609C62.1818 221.845 45.9234 202.414 47.8124 194.25C49.7013 186.087 60.8325 189.258 58.7412 183.051C56.9198 177.788 59.2809 173.74 66.0946 172.863C74.7972 171.716 75.202 170.636 74.2575 164.766C73.2456 158.964 79.9243 150.26 88.2221 155.793C88.2221 155.793 90.7857 153.566 93.0794 154.646C95.3056 155.658 93.4842 161.933 93.4842 161.933Z" fill="#2F2E7F"/>
<path d="M82.221 165.174C81.344 165.511 81.2091 166.996 81.8837 168.48C82.5583 169.964 83.7052 170.841 84.5822 170.437C85.4592 170.099 85.5941 168.615 84.9195 167.131C84.2449 165.646 83.098 164.769 82.221 165.174Z" fill="#F59D9B"/>
<path d="M81.5459 226.301C81.6134 226.301 81.6134 226.301 81.6809 226.301C81.8158 226.301 81.9507 226.301 82.0182 226.368C81.3436 225.491 80.4665 224.884 79.3872 224.816C77.7681 224.681 76.4188 225.086 75.4069 226.098C73.1806 228.257 72.5735 232.778 72.3711 236.961C72.3711 237.096 72.3711 237.163 72.5735 237.163C72.6409 237.163 72.7759 237.096 72.7759 237.028C73.0457 232.912 73.518 228.527 75.6767 226.503C76.6887 225.558 77.903 225.154 79.4546 225.356C80.2642 225.288 80.9388 225.626 81.5459 226.301Z" fill="#2B2B2B"/>
<path d="M83.5699 231.023C83.435 231.091 83.3 231.091 83.1651 231.091C83.5024 233.992 83.1651 236.961 83.0977 237.703C83.0977 237.77 83.1651 237.838 83.3 237.905C83.3675 237.905 83.435 237.838 83.5024 237.77C83.5699 237.231 83.7723 235.544 83.7048 233.52C83.7048 232.575 83.6374 231.766 83.5699 231.023Z" fill="#2B2B2B"/>
<path d="M64.074 264.354C63.7366 264.556 60.0262 264.691 60.0262 264.691L58.4746 266.985L62.5898 268.267L64.074 264.354Z" fill="#36217F"/>
<path d="M64.1413 233.385L63.0619 231.496L58.6094 266.985L61.038 265.973L62.7246 268.267L64.1413 233.385Z" fill="#5233A8"/>
<path d="M90.7888 233.385L63.0619 231.496L62.7246 268.267L89.4396 270.223L90.7888 233.385Z" fill="#6D47BF"/>
<path d="M83.0986 238.311C83.3011 238.378 83.5711 238.176 83.6386 237.906C83.7061 237.568 83.6386 237.298 83.4361 237.231C83.2336 237.163 82.9636 237.366 82.8961 237.636C82.7611 237.906 82.8961 238.243 83.0986 238.311Z" fill="#F0F0F0"/>
<path d="M72.507 237.635C72.7094 237.703 72.9119 237.433 72.9794 237.095C73.0469 236.758 72.8444 236.555 72.6419 236.488C72.4395 236.42 72.237 236.69 72.1695 237.028C72.102 237.365 72.3045 237.635 72.507 237.635Z" fill="#F0F0F0"/>
<path d="M81.5459 226.301C81.6134 226.301 81.6134 226.301 81.6809 226.301C81.8158 226.301 81.9507 226.301 82.0182 226.368C81.3436 225.491 80.4665 224.884 79.3872 224.816C77.7681 224.681 76.4188 225.086 75.4069 226.098C73.1806 228.257 72.5735 232.778 72.3711 236.961C72.3711 237.096 72.3711 237.163 72.5735 237.163C72.6409 237.163 72.7759 237.096 72.7759 237.028C73.0457 232.912 73.518 228.527 75.6767 226.503C76.6887 225.558 77.903 225.154 79.4546 225.356C80.2642 225.288 80.9388 225.626 81.5459 226.301Z" fill="#5233A8"/>
<path d="M83.5699 231.023C83.435 231.091 83.3 231.091 83.1651 231.091C83.5024 233.992 83.1651 236.961 83.0977 237.703C83.0977 237.77 83.1651 237.838 83.3 237.905C83.3675 237.905 83.435 237.838 83.5024 237.77C83.5699 237.231 83.7723 235.544 83.7048 233.52C83.7048 232.575 83.6374 231.766 83.5699 231.023Z" fill="#5233A8"/>
</g>
<g filter="url(#filter2_d)">
<rect x="308.523" y="99.1748" width="151.921" height="228.34" rx="8" fill="#FBFBFB"/>
<rect x="309.523" y="100.175" width="149.921" height="226.34" rx="7" stroke="#C8E7FE" stroke-width="2"/>
</g>
<rect x="322.414" y="114.803" width="91.1526" height="15.6278" rx="3" fill="#EDEFF0"/>
<rect x="322.414" y="136.509" width="79.867" height="5.20927" rx="2.60464" fill="#EDEFF0"/>
<rect x="322.414" y="145.19" width="59.0321" height="5.20929" rx="2.60464" fill="#EDEFF0"/>
<rect x="322.414" y="153.873" width="39.9335" height="5.20927" rx="2.60464" fill="#EDEFF0"/>
<ellipse cx="326.32" cy="166.462" rx="3.03842" ry="3.03874" fill="#EDEFF0"/>
<ellipse cx="335.001" cy="166.462" rx="3.03841" ry="3.03874" fill="#EDEFF0"/>
<ellipse cx="343.683" cy="166.462" rx="3.03842" ry="3.03874" fill="#EDEFF0"/>
<rect x="322.414" y="181.655" width="125.009" height="23.4417" rx="11.7209" fill="#7292CC"/>
<rect x="322.414" y="213.778" width="125.009" height="27.7828" rx="4" fill="#EDEFF0"/>
<path d="M359.288 196.458H356.786L356.372 197.655H355.049L357.308 191.364H358.775L361.034 197.655H359.702L359.288 196.458ZM358.946 195.45L358.037 192.822L357.128 195.45H358.946ZM364.074 191.373C364.734 191.373 365.313 191.502 365.811 191.76C366.315 192.018 366.702 192.387 366.972 192.867C367.248 193.341 367.386 193.893 367.386 194.523C367.386 195.153 367.248 195.705 366.972 196.179C366.702 196.647 366.315 197.01 365.811 197.268C365.313 197.526 364.734 197.655 364.074 197.655H361.878V191.373H364.074ZM364.029 196.584C364.689 196.584 365.199 196.404 365.559 196.044C365.919 195.684 366.099 195.177 366.099 194.523C366.099 193.869 365.919 193.359 365.559 192.993C365.199 192.621 364.689 192.435 364.029 192.435H363.138V196.584H364.029ZM370.525 191.373C371.185 191.373 371.764 191.502 372.262 191.76C372.766 192.018 373.153 192.387 373.423 192.867C373.699 193.341 373.837 193.893 373.837 194.523C373.837 195.153 373.699 195.705 373.423 196.179C373.153 196.647 372.766 197.01 372.262 197.268C371.764 197.526 371.185 197.655 370.525 197.655H368.329V191.373H370.525ZM370.48 196.584C371.14 196.584 371.65 196.404 372.01 196.044C372.37 195.684 372.55 195.177 372.55 194.523C372.55 193.869 372.37 193.359 372.01 192.993C371.65 192.621 371.14 192.435 370.48 192.435H369.589V196.584H370.48ZM381.2 191.373V192.39H379.526V197.655H378.266V192.39H376.592V191.373H381.2ZM385.035 197.718C384.447 197.718 383.907 197.58 383.415 197.304C382.923 197.028 382.533 196.647 382.245 196.161C381.957 195.669 381.813 195.114 381.813 194.496C381.813 193.884 381.957 193.335 382.245 192.849C382.533 192.357 382.923 191.973 383.415 191.697C383.907 191.421 384.447 191.283 385.035 191.283C385.629 191.283 386.169 191.421 386.655 191.697C387.147 191.973 387.534 192.357 387.816 192.849C388.104 193.335 388.248 193.884 388.248 194.496C388.248 195.114 388.104 195.669 387.816 196.161C387.534 196.647 387.147 197.028 386.655 197.304C386.163 197.58 385.623 197.718 385.035 197.718ZM385.035 196.593C385.413 196.593 385.746 196.509 386.034 196.341C386.322 196.167 386.547 195.921 386.709 195.603C386.871 195.285 386.952 194.916 386.952 194.496C386.952 194.076 386.871 193.71 386.709 193.398C386.547 193.08 386.322 192.837 386.034 192.669C385.746 192.501 385.413 192.417 385.035 192.417C384.657 192.417 384.321 192.501 384.027 192.669C383.739 192.837 383.514 193.08 383.352 193.398C383.19 193.71 383.109 194.076 383.109 194.496C383.109 194.916 383.19 195.285 383.352 195.603C383.514 195.921 383.739 196.167 384.027 196.341C384.321 196.509 384.657 196.593 385.035 196.593ZM391.024 194.505C391.024 193.887 391.162 193.335 391.438 192.849C391.72 192.357 392.101 191.976 392.581 191.706C393.067 191.43 393.61 191.292 394.21 191.292C394.912 191.292 395.527 191.472 396.055 191.832C396.583 192.192 396.952 192.69 397.162 193.326H395.713C395.569 193.026 395.365 192.801 395.101 192.651C394.843 192.501 394.543 192.426 394.201 192.426C393.835 192.426 393.508 192.513 393.22 192.687C392.938 192.855 392.716 193.095 392.554 193.407C392.398 193.719 392.32 194.085 392.32 194.505C392.32 194.919 392.398 195.285 392.554 195.603C392.716 195.915 392.938 196.158 393.22 196.332C393.508 196.5 393.835 196.584 394.201 196.584C394.543 196.584 394.843 196.509 395.101 196.359C395.365 196.203 395.569 195.975 395.713 195.675H397.162C396.952 196.317 396.583 196.818 396.055 197.178C395.533 197.532 394.918 197.709 394.21 197.709C393.61 197.709 393.067 197.574 392.581 197.304C392.101 197.028 391.72 196.647 391.438 196.161C391.162 195.675 391.024 195.123 391.024 194.505ZM402.09 196.458H399.588L399.174 197.655H397.851L400.11 191.364H401.577L403.836 197.655H402.504L402.09 196.458ZM401.748 195.45L400.839 192.822L399.93 195.45H401.748ZM407.921 197.655L406.535 195.207H405.941V197.655H404.681V191.373H407.039C407.525 191.373 407.939 191.46 408.281 191.634C408.623 191.802 408.878 192.033 409.046 192.327C409.22 192.615 409.307 192.939 409.307 193.299C409.307 193.713 409.187 194.088 408.947 194.424C408.707 194.754 408.35 194.982 407.876 195.108L409.379 197.655H407.921ZM405.941 194.262H406.994C407.336 194.262 407.591 194.181 407.759 194.019C407.927 193.851 408.011 193.62 408.011 193.326C408.011 193.038 407.927 192.816 407.759 192.66C407.591 192.498 407.336 192.417 406.994 192.417H405.941V194.262ZM414.721 191.373V192.39H413.047V197.655H411.787V192.39H410.113V191.373H414.721Z" fill="white"/>
<rect x="343.248" y="220.601" width="13.493" height="7.93794" rx="1" fill="#E2E4E6"/>
<rect x="360.709" y="220.601" width="13.493" height="7.93794" rx="1" fill="#E2E4E6"/>
<rect x="378.172" y="220.601" width="13.4931" height="7.93794" rx="1" fill="#E2E4E6"/>
<rect x="395.633" y="220.601" width="13.4931" height="7.93794" rx="1" fill="#E2E4E6"/>
<rect x="413.094" y="220.601" width="13.493" height="7.93794" rx="1" fill="#E2E4E6"/>
<g filter="url(#filter3_d)">
<rect x="257.021" y="252.809" width="174.991" height="62.2073" rx="8" fill="#FBFBFB"/>
<rect x="257.921" y="253.709" width="173.191" height="60.4073" rx="7.1" stroke="#C8E7FE" stroke-width="1.8"/>
</g>
<ellipse cx="294.341" cy="284.742" rx="20.7335" ry="21.1505" fill="#7292CC"/>
<path d="M283.656 281.551V279.325H287.534V289.545H285.042V281.551H283.656ZM289.088 287.627C289.405 287.375 289.55 287.258 289.522 287.277C290.437 286.521 291.155 285.9 291.678 285.415C292.21 284.93 292.658 284.421 293.022 283.889C293.386 283.357 293.568 282.839 293.568 282.335C293.568 281.952 293.479 281.654 293.302 281.439C293.125 281.224 292.859 281.117 292.504 281.117C292.149 281.117 291.869 281.252 291.664 281.523C291.468 281.784 291.37 282.158 291.37 282.643H289.06C289.079 281.85 289.247 281.187 289.564 280.655C289.891 280.123 290.315 279.731 290.838 279.479C291.37 279.227 291.958 279.101 292.602 279.101C293.713 279.101 294.548 279.386 295.108 279.955C295.677 280.524 295.962 281.266 295.962 282.181C295.962 283.18 295.621 284.108 294.94 284.967C294.259 285.816 293.391 286.647 292.336 287.459H296.116V289.405H289.088V287.627ZM296.974 281.901C296.974 281.145 297.189 280.562 297.618 280.151C298.057 279.74 298.621 279.535 299.312 279.535C300.003 279.535 300.563 279.74 300.992 280.151C301.421 280.562 301.636 281.145 301.636 281.901C301.636 282.657 301.421 283.24 300.992 283.651C300.563 284.062 300.003 284.267 299.312 284.267C298.621 284.267 298.057 284.062 297.618 283.651C297.189 283.24 296.974 282.657 296.974 281.901ZM306.48 279.689L301.09 289.545H298.78L304.17 279.689H306.48ZM299.298 280.935C298.85 280.935 298.626 281.257 298.626 281.901C298.626 282.536 298.85 282.853 299.298 282.853C299.513 282.853 299.681 282.774 299.802 282.615C299.923 282.456 299.984 282.218 299.984 281.901C299.984 281.257 299.755 280.935 299.298 280.935ZM303.638 287.333C303.638 286.577 303.853 285.994 304.282 285.583C304.711 285.172 305.271 284.967 305.962 284.967C306.653 284.967 307.213 285.172 307.642 285.583C308.071 285.994 308.286 286.577 308.286 287.333C308.286 288.089 308.071 288.672 307.642 289.083C307.213 289.494 306.653 289.699 305.962 289.699C305.271 289.699 304.711 289.494 304.282 289.083C303.853 288.672 303.638 288.089 303.638 287.333ZM305.948 286.367C305.733 286.367 305.565 286.446 305.444 286.605C305.332 286.764 305.276 287.006 305.276 287.333C305.276 287.968 305.5 288.285 305.948 288.285C306.163 288.285 306.331 288.206 306.452 288.047C306.573 287.888 306.634 287.65 306.634 287.333C306.634 287.016 306.573 286.778 306.452 286.619C306.331 286.451 306.163 286.367 305.948 286.367Z" fill="#FAF8FF"/>
<rect x="339.125" y="233.731" width="92.0569" height="2.4883" rx="1.24415" fill="#E2E4E5"/>
<path d="M324.814 287.275C324.814 286.304 325.024 285.441 325.444 284.685C325.864 283.92 326.447 283.327 327.194 282.907C327.95 282.478 328.804 282.263 329.756 282.263C330.922 282.263 331.921 282.571 332.752 283.187C333.582 283.803 334.138 284.643 334.418 285.707H331.786C331.59 285.296 331.31 284.984 330.946 284.769C330.591 284.554 330.185 284.447 329.728 284.447C328.99 284.447 328.393 284.704 327.936 285.217C327.478 285.73 327.25 286.416 327.25 287.275C327.25 288.134 327.478 288.82 327.936 289.333C328.393 289.846 328.99 290.103 329.728 290.103C330.185 290.103 330.591 289.996 330.946 289.781C331.31 289.566 331.59 289.254 331.786 288.843H334.418C334.138 289.907 333.582 290.747 332.752 291.363C331.921 291.97 330.922 292.273 329.756 292.273C328.804 292.273 327.95 292.063 327.194 291.643C326.447 291.214 325.864 290.621 325.444 289.865C325.024 289.109 324.814 288.246 324.814 287.275ZM340.532 292.301C339.608 292.301 338.758 292.086 337.984 291.657C337.218 291.228 336.607 290.63 336.15 289.865C335.702 289.09 335.478 288.222 335.478 287.261C335.478 286.3 335.702 285.436 336.15 284.671C336.607 283.906 337.218 283.308 337.984 282.879C338.758 282.45 339.608 282.235 340.532 282.235C341.456 282.235 342.3 282.45 343.066 282.879C343.84 283.308 344.447 283.906 344.886 284.671C345.334 285.436 345.558 286.3 345.558 287.261C345.558 288.222 345.334 289.09 344.886 289.865C344.438 290.63 343.831 291.228 343.066 291.657C342.3 292.086 341.456 292.301 340.532 292.301ZM340.532 290.117C341.316 290.117 341.941 289.856 342.408 289.333C342.884 288.81 343.122 288.12 343.122 287.261C343.122 286.393 342.884 285.702 342.408 285.189C341.941 284.666 341.316 284.405 340.532 284.405C339.738 284.405 339.104 284.662 338.628 285.175C338.161 285.688 337.928 286.384 337.928 287.261C337.928 288.129 338.161 288.824 338.628 289.347C339.104 289.86 339.738 290.117 340.532 290.117ZM355.682 292.203H353.288L349.284 286.141V292.203H346.89V282.375H349.284L353.288 288.465V282.375H355.682V292.203ZM366.643 282.375L363.157 292.203H360.161L356.675 282.375H359.223L361.659 289.795L364.109 282.375H366.643ZM370.038 284.293V286.281H373.244V288.129H370.038V290.285H373.664V292.203H367.644V282.375H373.664V284.293H370.038ZM380.23 292.203L378.186 288.493H377.612V292.203H375.218V282.375H379.236C380.01 282.375 380.668 282.51 381.21 282.781C381.76 283.052 382.171 283.425 382.442 283.901C382.712 284.368 382.848 284.89 382.848 285.469C382.848 286.122 382.661 286.706 382.288 287.219C381.924 287.732 381.382 288.096 380.664 288.311L382.932 292.203H380.23ZM377.612 286.799H379.096C379.534 286.799 379.861 286.692 380.076 286.477C380.3 286.262 380.412 285.959 380.412 285.567C380.412 285.194 380.3 284.9 380.076 284.685C379.861 284.47 379.534 284.363 379.096 284.363H377.612V286.799ZM387.907 292.301C387.188 292.301 386.544 292.184 385.975 291.951C385.405 291.718 384.948 291.372 384.603 290.915C384.267 290.458 384.089 289.907 384.071 289.263H386.619C386.656 289.627 386.782 289.907 386.997 290.103C387.211 290.29 387.491 290.383 387.837 290.383C388.191 290.383 388.471 290.304 388.677 290.145C388.882 289.977 388.985 289.748 388.985 289.459C388.985 289.216 388.901 289.016 388.733 288.857C388.574 288.698 388.373 288.568 388.131 288.465C387.897 288.362 387.561 288.246 387.123 288.115C386.488 287.919 385.97 287.723 385.569 287.527C385.167 287.331 384.822 287.042 384.533 286.659C384.243 286.276 384.099 285.777 384.099 285.161C384.099 284.246 384.43 283.532 385.093 283.019C385.755 282.496 386.619 282.235 387.683 282.235C388.765 282.235 389.638 282.496 390.301 283.019C390.963 283.532 391.318 284.251 391.365 285.175H388.775C388.756 284.858 388.639 284.61 388.425 284.433C388.21 284.246 387.935 284.153 387.599 284.153C387.309 284.153 387.076 284.232 386.899 284.391C386.721 284.54 386.633 284.76 386.633 285.049C386.633 285.366 386.782 285.614 387.081 285.791C387.379 285.968 387.846 286.16 388.481 286.365C389.115 286.58 389.629 286.785 390.021 286.981C390.422 287.177 390.767 287.462 391.057 287.835C391.346 288.208 391.491 288.689 391.491 289.277C391.491 289.837 391.346 290.346 391.057 290.803C390.777 291.26 390.366 291.624 389.825 291.895C389.283 292.166 388.644 292.301 387.907 292.301ZM395.358 282.375V292.203H392.964V282.375H395.358ZM401.741 292.301C400.817 292.301 399.967 292.086 399.193 291.657C398.427 291.228 397.816 290.63 397.359 289.865C396.911 289.09 396.687 288.222 396.687 287.261C396.687 286.3 396.911 285.436 397.359 284.671C397.816 283.906 398.427 283.308 399.193 282.879C399.967 282.45 400.817 282.235 401.741 282.235C402.665 282.235 403.509 282.45 404.275 282.879C405.049 283.308 405.656 283.906 406.095 284.671C406.543 285.436 406.767 286.3 406.767 287.261C406.767 288.222 406.543 289.09 406.095 289.865C405.647 290.63 405.04 291.228 404.275 291.657C403.509 292.086 402.665 292.301 401.741 292.301ZM401.741 290.117C402.525 290.117 403.15 289.856 403.617 289.333C404.093 288.81 404.331 288.12 404.331 287.261C404.331 286.393 404.093 285.702 403.617 285.189C403.15 284.666 402.525 284.405 401.741 284.405C400.947 284.405 400.313 284.662 399.837 285.175C399.37 285.688 399.137 286.384 399.137 287.261C399.137 288.129 399.37 288.824 399.837 289.347C400.313 289.86 400.947 290.117 401.741 290.117ZM416.891 292.203H414.497L410.493 286.141V292.203H408.099V282.375H410.493L414.497 288.465V282.375H416.891V292.203Z" fill="#7292CC"/>
<g filter="url(#filter4_d)">
<rect x="30.7324" y="90.7627" width="159.791" height="51.3669" rx="8" fill="white"/>
<rect x="31.7324" y="91.7627" width="157.791" height="49.3669" rx="7" stroke="#C8E7FE" stroke-width="2"/>
</g>
<rect x="38.3418" y="97.4219" width="48.508" height="39.0008" rx="4" fill="#F6F6F6"/>
<rect x="93.5078" y="100.275" width="69.433" height="11.4149" rx="2" fill="#EDEFF0"/>
<rect x="93.5078" y="117.398" width="86.5534" height="5.70744" rx="2" fill="#EDEFF0"/>
<rect x="93.5078" y="126.911" width="86.5534" height="5.70744" rx="2" fill="#EDEFF0"/>
<path d="M65.8379 113.492L70.1279 115.969L72.367 112.091L68.077 109.614L65.8379 113.492Z" fill="#343F61"/>
<path d="M44.9998 119.615V124.66H61.6783L63.4941 122.301L61.6783 119.615H44.9998Z" fill="#455481"/>
<path d="M78.2891 119.615H61.6442V124.66H78.2891V119.615Z" fill="#4F5F8D"/>
<path d="M57.7246 111.979L44.9997 115.23V120.624H61.7083L63.6621 114.801L61.7083 108.518L57.7246 111.979Z" fill="#7292CC"/>
<path d="M78.2891 108.416H74.7899L70.1475 114.153C69.6197 114.806 68.6938 114.95 67.9941 114.489C67.3232 114.048 67.0724 113.163 67.4108 112.433L69.4847 107.98V106.331H64.2076L61.6442 108.565V120.624H78.2891V108.416Z" fill="#7292CC"/>
<g clip-path="url(#clip6)">
<path d="M432.142 336.622C435.82 339.34 442.945 341.758 447.281 341.032C450.496 340.493 453.988 339.407 456.011 336.666C457.594 334.523 457.959 331.737 454.927 330.81C453.904 330.498 452.807 330.738 451.739 330.838C449.549 331.042 447.077 329.359 449.059 327.137C450.179 325.881 452.701 325.714 454.247 325.597C457.624 325.343 461.774 325.834 463.638 322.295C464.189 321.245 464.242 319.782 463.334 319.023C462.484 318.312 461.236 318.515 460.132 318.605C456.323 318.912 456.8 315.35 459.305 313.781C460.634 312.947 462.194 312.489 463.398 311.487C465.151 310.024 465.647 306.873 463.861 304.972C461.971 303.175 458.823 303.661 457.357 305.411C456.351 306.614 455.886 308.174 455.05 309.503C453.472 312.006 449.914 312.47 450.237 308.654C450.332 307.549 450.538 306.301 449.833 305.444C449.078 304.531 447.618 304.579 446.57 305.129C443.031 306.982 443.505 311.138 443.238 314.521C443.115 316.067 442.937 318.593 441.68 319.71C439.453 321.686 437.784 319.205 437.993 317.011C438.096 315.945 438.342 314.845 438.032 313.818C437.118 310.778 434.337 311.135 432.189 312.71C429.444 314.725 428.346 318.217 427.797 321.438C427.056 325.781 429.442 332.926 432.142 336.622Z" fill="#564D9F"/>
<path d="M455.541 312.69C452.76 314.845 450.188 317.324 447.672 319.842C447.951 317.86 448.333 315.769 448.118 313.81C448.115 313.796 448.093 313.793 448.09 313.807C447.299 315.912 447.215 318.376 446.925 320.592C445.68 321.843 444.445 323.099 443.2 324.321C440.976 326.504 438.711 328.659 436.479 330.844C435.314 328.12 434.4 325.251 433.996 322.309C433.993 322.287 433.954 322.284 433.954 322.309C433.907 325.402 434.598 328.464 435.963 331.252C435.974 331.274 435.991 331.291 436.005 331.308C434.478 332.809 432.971 334.325 431.508 335.88C431.215 336.192 431.728 336.7 432.045 336.41C432.954 335.578 433.851 334.727 434.74 333.87C438.978 334.398 443.387 335.455 447.655 335.302C447.745 335.299 447.728 335.176 447.655 335.157C443.721 334.121 439.458 333.697 435.386 333.245C438.346 330.362 441.227 327.386 444.156 324.483C444.415 324.226 444.679 323.97 444.941 323.713C448.617 323.077 452.42 322.63 455.998 321.553C456.023 321.544 456.009 321.511 455.987 321.511C452.537 321.67 449.077 322.401 445.669 323.001C449.074 319.694 452.607 316.397 455.555 312.702C455.561 312.693 455.55 312.682 455.541 312.69Z" fill="white"/>
</g>
<path d="M434.319 339.465C434.319 339.465 439.635 326.849 435.798 325.083C431.961 323.317 430.016 325.942 428.473 325.223C426.93 324.493 432.327 317.427 427.897 315.373C423.453 313.354 422.262 318.675 419.75 317.504C417.187 316.327 415.894 305.074 409.878 306.893C403.862 308.713 414.284 318.251 411.968 318.593C409.651 318.935 406.69 316.097 404.919 319.471C403.148 322.846 419.008 327.908 412.478 328.834C405.879 329.755 407.872 332.502 409.923 334.601C411.973 336.688 422.21 341.217 422.21 341.217L434.319 339.465Z" fill="#50BC8D"/>
<path d="M405.002 319.309C408.108 321.31 413.702 324.586 417.992 325.517C414.001 317.27 410.653 309.294 409.692 306.947C409.757 306.906 409.809 306.912 409.874 306.872C409.939 306.831 409.991 306.837 410.124 306.801C410.84 308.553 412.945 313.556 415.632 319.457C416.138 317.375 416.692 314.904 417.098 313.046C417.171 313.276 417.31 313.475 417.385 313.716C416.855 316.263 416.106 319.386 415.932 320.081C416.144 320.51 416.356 320.939 416.556 321.414L418.698 316.343C418.782 316.503 418.878 316.617 418.975 316.731L416.806 321.884C417.887 324.231 419.112 326.652 420.303 329.077C423.534 326.622 425.644 318.87 426.548 314.851C426.668 314.85 426.826 314.89 427.002 314.939C426.075 319.073 423.942 326.941 420.47 329.387C422.345 333.061 424.352 336.664 426.289 339.723C429.44 337.693 432.717 328.68 434.131 324.44C434.239 324.485 434.409 324.478 434.586 324.528C433.148 328.884 429.865 338.009 426.486 339.995C426.57 340.156 426.722 340.309 426.806 340.47L426.332 340.541C425.565 339.324 424.718 337.991 423.89 336.498C420.698 335.938 412.366 332.721 408.035 331.005C408.058 330.89 408.082 330.774 408.143 330.7C412.243 332.327 420.31 335.46 423.654 336.184C422.028 333.331 420.215 329.955 418.372 326.086C418.331 326.012 418.285 325.892 418.244 325.818C413.878 324.996 408.177 321.675 404.962 319.606C404.971 319.526 404.985 319.491 405.047 319.417C404.991 319.378 405.005 319.342 405.002 319.309Z" fill="white"/>
<path opacity="0.14" d="M249.142 366.441C376.254 366.441 479.285 355.104 479.285 341.143C479.285 327.183 376.254 315.846 249.142 315.846C122.03 315.846 19 327.183 19 341.143C19 355.104 122.03 366.441 249.142 366.441Z" fill="url(#paint1_linear)"/>
<defs>
<filter id="filter0_d" x="51.5371" y="10.542" width="401.171" height="288.34" filterUnits="userSpaceOnUse" color-interpolation-filters="sRGB">
<feFlood flood-opacity="0" result="BackgroundImageFix"/>
<feColorMatrix in="SourceAlpha" type="matrix" values="0 0 0 0 0 0 0 0 0 0 0 0 0 0 0 0 0 0 127 0"/>
<feMorphology radius="10" operator="dilate" in="SourceAlpha" result="effect1_dropShadow"/>
<feOffset dy="4"/>
<feGaussianBlur stdDeviation="10"/>
<feColorMatrix type="matrix" values="0 0 0 0 0.440052 0 0 0 0 0.469058 0 0 0 0 0.495833 0 0 0 0.05 0"/>
<feBlend mode="normal" in2="BackgroundImageFix" result="effect1_dropShadow"/>
<feBlend mode="normal" in="SourceGraphic" in2="effect1_dropShadow" result="shape"/>
</filter>
<filter id="filter1_d" x="66.2949" y="24.4336" width="371.655" height="93.8603" filterUnits="userSpaceOnUse" color-interpolation-filters="sRGB">
<feFlood flood-opacity="0" result="BackgroundImageFix"/>
<feColorMatrix in="SourceAlpha" type="matrix" values="0 0 0 0 0 0 0 0 0 0 0 0 0 0 0 0 0 0 127 0"/>
<feMorphology radius="10" operator="dilate" in="SourceAlpha" result="effect1_dropShadow"/>
<feOffset dy="4"/>
<feGaussianBlur stdDeviation="10"/>
<feColorMatrix type="matrix" values="0 0 0 0 0.440052 0 0 0 0 0.469058 0 0 0 0 0.495833 0 0 0 0.05 0"/>
<feBlend mode="normal" in2="BackgroundImageFix" result="effect1_dropShadow"/>
<feBlend mode="normal" in="SourceGraphic" in2="effect1_dropShadow" result="shape"/>
</filter>
<filter id="filter2_d" x="278.523" y="73.1748" width="211.921" height="288.34" filterUnits="userSpaceOnUse" color-interpolation-filters="sRGB">
<feFlood flood-opacity="0" result="BackgroundImageFix"/>
<feColorMatrix in="SourceAlpha" type="matrix" values="0 0 0 0 0 0 0 0 0 0 0 0 0 0 0 0 0 0 127 0"/>
<feMorphology radius="10" operator="dilate" in="SourceAlpha" result="effect1_dropShadow"/>
<feOffset dy="4"/>
<feGaussianBlur stdDeviation="10"/>
<feColorMatrix type="matrix" values="0 0 0 0 0.440052 0 0 0 0 0.469058 0 0 0 0 0.495833 0 0 0 0.05 0"/>
<feBlend mode="normal" in2="BackgroundImageFix" result="effect1_dropShadow"/>
<feBlend mode="normal" in="SourceGraphic" in2="effect1_dropShadow" result="shape"/>
</filter>
<filter id="filter3_d" x="227.021" y="226.809" width="234.991" height="122.207" filterUnits="userSpaceOnUse" color-interpolation-filters="sRGB">
<feFlood flood-opacity="0" result="BackgroundImageFix"/>
<feColorMatrix in="SourceAlpha" type="matrix" values="0 0 0 0 0 0 0 0 0 0 0 0 0 0 0 0 0 0 127 0"/>
<feMorphology radius="10" operator="dilate" in="SourceAlpha" result="effect1_dropShadow"/>
<feOffset dy="4"/>
<feGaussianBlur stdDeviation="10"/>
<feColorMatrix type="matrix" values="0 0 0 0 0.440052 0 0 0 0 0.469058 0 0 0 0 0.495833 0 0 0 0.05 0"/>
<feBlend mode="normal" in2="BackgroundImageFix" result="effect1_dropShadow"/>
<feBlend mode="normal" in="SourceGraphic" in2="effect1_dropShadow" result="shape"/>
</filter>
<filter id="filter4_d" x="0.732422" y="64.7627" width="219.791" height="111.367" filterUnits="userSpaceOnUse" color-interpolation-filters="sRGB">
<feFlood flood-opacity="0" result="BackgroundImageFix"/>
<feColorMatrix in="SourceAlpha" type="matrix" values="0 0 0 0 0 0 0 0 0 0 0 0 0 0 0 0 0 0 127 0"/>
<feMorphology radius="10" operator="dilate" in="SourceAlpha" result="effect1_dropShadow"/>
<feOffset dy="4"/>
<feGaussianBlur stdDeviation="10"/>
<feColorMatrix type="matrix" values="0 0 0 0 0.440052 0 0 0 0 0.469058 0 0 0 0 0.495833 0 0 0 0.05 0"/>
<feBlend mode="normal" in2="BackgroundImageFix" result="effect1_dropShadow"/>
<feBlend mode="normal" in="SourceGraphic" in2="effect1_dropShadow" result="shape"/>
</filter>
<linearGradient id="paint0_linear" x1="319.84" y1="255.623" x2="311.297" y2="-26.895" gradientUnits="userSpaceOnUse">
<stop offset="0.21875" stop-color="#2680C1" stop-opacity="0"/>
<stop offset="1" stop-color="#F7F4FC"/>
</linearGradient>
<linearGradient id="paint1_linear" x1="252.641" y1="409.643" x2="246.599" y2="288.37" gradientUnits="userSpaceOnUse">
<stop stop-color="#2680C1"/>
<stop offset="1" stop-color="#2680C1" stop-opacity="0"/>
</linearGradient>
<clipPath id="clip0">
<rect width="47.7466" height="24.4618" fill="white" transform="translate(345.445 157.244)"/>
</clipPath>
<clipPath id="clip1">
<rect width="10.86" height="10.8612" fill="white" transform="translate(344.578 61.4658)"/>
</clipPath>
<clipPath id="clip2">
<rect width="9.87274" height="11.3549" fill="white" transform="translate(381.107 59.9844)"/>
</clipPath>
<clipPath id="clip3">
<rect width="214.091" height="200.218" fill="white" transform="translate(90.0957 148.542)"/>
</clipPath>
<clipPath id="clip4">
<rect width="28.2028" height="36.4759" fill="white" transform="matrix(-0.764803 -0.644283 -0.644185 0.764854 263.377 317.689)"/>
</clipPath>
<clipPath id="clip5">
<rect width="88.5101" height="200.789" fill="white" transform="translate(47.6797 154.041)"/>
</clipPath>
<clipPath id="clip6">
<rect width="37.3199" height="37.3239" fill="white" transform="matrix(-1 0 0 1 464.982 303.84)"/>
</clipPath>
</defs>
</svg>
