<svg width="176" height="126" viewBox="0 0 176 126" fill="none" xmlns="http://www.w3.org/2000/svg">
<path opacity="0.14" d="M172.015 26.6501C167.984 16.5092 160.281 7.80241 150.875 3.21C127.166 -8.3704 111.421 14.3392 92.3732 24.5285C83.5675 29.239 74.1309 29.2014 64.7815 26.4514C55.1243 23.61 46.5955 17.6855 36.564 15.827C27.0659 14.0706 16.3369 15.8109 10.1262 24.0988C4.00777 32.2577 1.17679 42.7209 0.412628 52.9531C-0.602829 66.4993 3.48978 79.5998 11.9007 89.9394C22.0347 102.401 35.9075 110.576 50.1086 116.914C73.141 127.189 98.1993 131.765 119.396 114.137C125.668 108.921 130.74 102.385 136.171 96.2668C141.705 90.0307 147.808 85.4867 154.28 80.4807C166.097 71.3442 175.313 57.4327 175.066 41.5553C174.99 36.458 173.902 31.3983 172.015 26.6501Z" fill="url(#paint0_linear)"/>
<ellipse opacity="0.1" cx="87.8154" cy="106.66" rx="58.2383" ry="5.37224" fill="#060606"/>
<g clip-path="url(#clip0)">
<path d="M43.2812 49.0699L86.1586 77.6011C86.6403 77.9862 87.2355 78.164 87.8022 78.164C88.369 78.164 88.9641 77.9862 89.4459 77.6011L132.323 49.0699L89.5026 14.7317C88.5107 13.9614 87.1504 13.9614 86.1586 14.7317L43.2812 49.0699Z" fill="#2DFFB3"/>
<path d="M59.9734 14.6379H115.66C118.424 14.6379 120.715 17.0001 120.715 19.9449V83.9697C120.715 85.3147 119.671 86.3732 118.437 86.3732H57.1962C55.9627 86.3732 54.9189 85.3147 54.9189 83.9697V19.9449C54.9189 17.0001 57.2097 14.6379 59.9734 14.6379Z" fill="#5600E3" stroke="white"/>
<path d="M89.4743 77.5998C88.9925 77.985 88.3974 78.1627 87.8306 78.1627C87.2638 78.1627 86.6687 77.985 86.1869 77.5998L43.2812 49.0686V101.45C43.2812 104.65 45.7751 107.257 48.8357 107.257H126.769C129.829 107.257 132.323 104.65 132.323 101.45V49.0686L89.4743 77.5998Z" fill="#1FEEA3"/>
<path d="M126.797 107.257H48.8641C45.7467 107.257 43.3096 104.709 43.3096 101.45C43.3096 100.531 43.7347 99.6426 44.4431 99.1093L86.1869 70.0152C86.6686 69.63 87.2638 69.4523 87.8305 69.4523C88.3973 69.4523 88.9925 69.63 89.4742 70.0152L131.218 99.1093C131.926 99.6426 132.352 100.531 132.352 101.45C132.352 104.709 129.914 107.257 126.797 107.257Z" fill="#2DFFB3"/>
<path d="M110.842 36.6252C110.87 34.4031 110.332 32.1514 109 30.4331C107.895 28.9813 106.279 27.974 104.579 27.4111C103.275 26.9963 101.944 26.8481 100.583 26.937C99.8464 26.937 99.1096 26.9963 98.4011 27.1148C98.3728 27.1148 98.3728 27.1148 98.3445 27.1148C98.1178 27.1444 97.891 27.2037 97.6643 27.2629C97.636 27.2629 97.6076 27.2629 97.5793 27.2926C97.3526 27.3518 97.1542 27.4111 96.9275 27.4703C96.7291 27.5296 96.5024 27.6185 96.304 27.7073C96.2474 27.737 96.219 27.737 96.1623 27.7666C95.964 27.8555 95.7939 27.9147 95.5956 28.0036C95.5389 28.0332 95.5105 28.0629 95.4539 28.0629C95.2838 28.1518 95.1138 28.2406 94.9154 28.3295C94.8871 28.3295 94.8871 28.3591 94.8587 28.3591C92.2515 29.8701 90.3528 32.4477 88.9642 35.2031C88.7375 35.6771 86.612 42.2248 85.0817 50.2538V50.2834C85.025 50.6389 84.9683 50.9648 84.8833 51.3204C84.5433 52.861 83.9481 54.3127 82.9279 55.4682C82.0494 56.4459 80.8591 57.0681 79.6122 57.3347C78.8754 57.4236 78.1102 57.3644 77.3734 57.2162C75.1346 56.7126 73.1509 54.9053 72.6691 52.5647C72.1873 50.1056 73.3492 47.7058 74.6529 45.543C74.7945 45.3356 74.9079 45.0986 75.0496 44.8912C74.7662 44.8023 74.5112 44.7135 74.2561 44.595C72.8391 43.9728 71.4505 43.1432 70.3453 42.047C69.9769 41.6618 69.6368 41.2174 69.3534 40.7434C68.0781 38.6695 67.8798 35.766 69.2967 33.781C70.3453 32.2996 72.159 31.5589 73.9444 31.5885C74.0577 31.5885 74.1711 31.5885 74.2844 31.6182C76.1548 31.7663 77.9119 32.744 79.3288 34.0476C79.3572 34.0772 79.3855 34.1069 79.4138 34.1365C79.5555 34.2846 79.6972 34.4031 79.8389 34.5513C79.8956 34.6105 79.9523 34.6698 80.009 34.729C80.1507 34.8772 80.264 34.9957 80.3774 35.1438C80.4341 35.2327 80.5191 35.292 80.5758 35.3808C80.6891 35.4993 80.7741 35.6475 80.8875 35.766C80.9442 35.8549 81.0008 35.9438 81.0859 36.0326C81.1709 36.1511 81.2559 36.2697 81.3409 36.3882C81.4543 36.5363 81.5393 36.6844 81.6243 36.8326C81.681 36.9215 81.7377 37.0103 81.7943 37.0992C81.8794 37.2177 81.936 37.3362 81.9927 37.4548C82.0211 37.514 82.0494 37.5733 82.0777 37.6325C82.2194 37.8992 82.3611 38.1658 82.4745 38.4325C82.5028 38.4621 82.5028 38.4917 82.5312 38.5213C83.0129 39.5287 83.3813 40.5953 83.6931 41.6618C83.8631 42.284 84.0331 42.8766 84.1465 43.4987C84.6283 41.1285 85.3084 38.4621 86.2153 36.4474C86.0169 36.003 85.8185 35.5882 85.5918 35.1438C84.2032 32.3885 82.3044 29.8109 79.6972 28.2999C79.6689 28.2999 79.6689 28.2703 79.6406 28.2703C79.4705 28.1814 79.3005 28.0925 79.1021 28.0036C79.0454 27.974 79.0171 27.9444 78.9604 27.9444C78.762 27.8555 78.592 27.7666 78.3936 27.7073C78.337 27.6777 78.3086 27.6777 78.2519 27.6481C78.0536 27.5592 77.8552 27.4999 77.6285 27.4111C77.4018 27.3518 77.2034 27.2926 76.9767 27.2333C76.9483 27.2333 76.92 27.2333 76.8917 27.2037C76.6649 27.1444 76.4382 27.0852 76.2115 27.0555C76.1832 27.0555 76.1832 27.0555 76.1548 27.0555C75.4464 26.937 74.7095 26.8481 73.9727 26.8778C72.6408 26.7889 71.2805 26.937 69.9769 27.3518C68.2765 27.9147 66.6612 28.9221 65.556 30.3738C64.2523 32.0922 63.6856 34.3142 63.7139 36.5363C63.7139 36.5363 63.7139 36.5363 63.7139 36.5659C63.7139 36.7141 63.7139 36.8622 63.7139 37.04C63.7139 37.0992 63.7139 37.1289 63.7139 37.1881C63.7139 37.277 63.7139 37.3659 63.7139 37.4251C63.7139 37.5733 63.7422 37.7214 63.7422 37.8695C63.7422 37.9288 63.7422 38.0177 63.7706 38.0769C63.7989 38.2547 63.8273 38.4325 63.8556 38.6102C63.8556 38.6398 63.8556 38.6991 63.8839 38.7287C63.9123 38.9657 63.969 39.1731 64.0256 39.4102C64.0823 39.6176 64.139 39.8249 64.1957 40.0323V40.062C64.4507 40.9508 64.8191 41.7804 65.2726 42.5803C65.2726 42.5803 65.2726 42.5803 65.2726 42.6099C65.3292 42.6988 65.3576 42.7581 65.4143 42.8469C65.4709 42.9654 65.556 43.084 65.641 43.2025C65.6693 43.2321 65.6976 43.2913 65.726 43.321C66.0094 43.7654 66.3211 44.1802 66.6328 44.5653C66.6612 44.595 66.6895 44.6246 66.7179 44.6838C66.8596 44.832 66.9729 45.0097 67.1146 45.1579C67.1713 45.2171 67.1996 45.2468 67.2563 45.306C67.398 45.4541 67.5114 45.5727 67.6531 45.7208C67.7097 45.7801 67.7381 45.8097 67.7948 45.8689C67.9365 46.0171 68.1065 46.1652 68.2482 46.2837C68.2765 46.3133 68.3049 46.343 68.3332 46.3726C68.5316 46.5504 68.7299 46.6985 68.9283 46.8763C68.6733 47.5577 68.5032 48.2391 68.3899 48.9502C68.3332 49.2465 68.3049 49.5724 68.2765 49.8686C68.2765 49.9279 68.2765 49.9575 68.2765 50.0168C68.2765 50.1056 68.2765 50.2242 68.2765 50.313C68.2765 50.4019 68.2765 50.4908 68.2765 50.5797C68.2765 50.6686 68.2765 50.7278 68.2765 50.8167C68.2765 50.9352 68.2765 51.0241 68.2765 51.1426C68.2765 51.1722 68.2765 51.1722 68.2765 51.2019C68.2765 51.35 68.2765 51.4685 68.3049 51.6166C68.3049 51.6463 68.3049 51.6759 68.3049 51.7055C68.3049 51.824 68.3332 51.9722 68.3332 52.0907C68.3332 52.1499 68.3332 52.2092 68.3615 52.2684C68.3615 52.387 68.3899 52.5055 68.4182 52.5944C68.4182 52.6536 68.4466 52.6832 68.4466 52.7425C68.4749 52.8906 68.5032 53.0388 68.5316 53.2165C68.5316 53.2462 68.5599 53.2758 68.5599 53.3054C68.5883 53.4239 68.6166 53.5721 68.6449 53.6906C68.6449 53.7498 68.6733 53.7794 68.6733 53.8387C68.7016 53.9572 68.7299 54.0757 68.7583 54.1942C68.7583 54.2239 68.7866 54.2831 68.7866 54.3127C68.8433 54.4609 68.8716 54.609 68.9283 54.7868C68.9283 54.8164 68.9567 54.846 68.9567 54.8757C69.0133 54.9942 69.0417 55.1423 69.0984 55.2608C69.1267 55.2904 69.1267 55.3497 69.155 55.3793C69.2117 55.4978 69.2684 55.6163 69.2967 55.7645C69.2967 55.7941 69.3251 55.8237 69.3251 55.8237C69.3818 55.9719 69.4668 56.12 69.5234 56.2681C69.5234 56.2978 69.5518 56.2978 69.5518 56.3274C69.6085 56.4459 69.6935 56.594 69.7502 56.7126C69.7785 56.7422 69.7785 56.7718 69.8068 56.8014C69.8919 56.92 69.9485 57.0681 70.0336 57.1866C70.0336 57.1866 70.0336 57.2162 70.0619 57.2162C70.1469 57.3644 70.2319 57.5125 70.3453 57.631L70.3736 57.6606C70.4586 57.7791 70.5437 57.8977 70.6287 58.0162C70.657 58.0458 70.657 58.0458 70.6854 58.0754C70.8837 58.3421 71.0821 58.5791 71.3088 58.8161L71.3372 58.8457C71.4222 58.9642 71.5355 59.0531 71.6489 59.1716C71.6772 59.2013 71.6772 59.2013 71.7056 59.2309C71.9323 59.4679 72.159 59.6753 72.4141 59.8531C72.4424 59.8531 72.4424 59.8827 72.4707 59.8827C72.5841 59.9716 72.6974 60.0605 72.8108 60.1197C72.8391 60.1197 72.8391 60.1493 72.8675 60.1493C73.1225 60.3271 73.3776 60.4752 73.661 60.6234C73.6893 60.6234 73.7177 60.653 73.7177 60.653C73.831 60.7123 73.9444 60.7715 74.0577 60.8308C74.0861 60.8308 74.1144 60.8604 74.1427 60.8604C74.2844 60.9196 74.4261 60.9789 74.5678 61.0382C74.5962 61.0382 74.6529 61.0678 74.6812 61.0678C74.8229 61.127 74.9362 61.1567 75.0779 61.1863C75.1346 61.2159 75.2196 61.2159 75.2763 61.2455C75.3897 61.2752 75.503 61.3048 75.6164 61.3641C75.6731 61.3937 75.7297 61.3937 75.7864 61.4233C75.9565 61.4826 76.1265 61.5122 76.2965 61.5715C76.3249 61.5715 76.3532 61.5714 76.3815 61.6011C76.5232 61.6307 76.6933 61.6603 76.835 61.69C76.8917 61.69 76.9483 61.7196 76.9767 61.7196C77.1184 61.7492 77.2601 61.7788 77.4301 61.8085C77.4584 61.8085 77.5151 61.8085 77.5435 61.8381C77.7418 61.8677 77.9119 61.8974 78.1102 61.8974C78.1386 61.8974 78.1669 61.8974 78.1953 61.8974C78.337 61.8974 78.507 61.927 78.6487 61.927C78.7054 61.927 78.7337 61.927 78.7904 61.927C78.9604 61.927 79.1021 61.927 79.2722 61.927C79.3005 61.927 79.3005 61.927 79.3288 61.927H79.3572C79.3855 61.927 79.4138 61.927 79.4422 61.927C81.4826 61.8677 83.6364 61.3344 85.3084 60.0605C85.3934 60.0012 85.5068 59.9123 85.5918 59.8234C85.8185 59.6457 86.0169 59.4679 86.1869 59.2901C88.0857 57.2162 88.9925 53.0091 89.3893 50.2834C89.5026 49.4242 89.5876 48.565 89.701 47.7058C89.7577 47.2318 89.8144 46.7578 89.871 46.2837C89.956 45.6615 90.0694 45.0097 90.1828 44.3876C90.3528 43.4987 90.5512 42.6099 90.8062 41.7211C91.118 40.6249 91.5147 39.5879 91.9681 38.5806C91.9965 38.551 91.9965 38.5213 92.0248 38.4917C92.1382 38.2251 92.2799 37.9584 92.4216 37.6918C92.4499 37.6325 92.4782 37.5733 92.5066 37.514C92.5633 37.3955 92.6483 37.277 92.705 37.1585C92.7616 37.0696 92.8183 36.9807 92.875 36.8918C92.96 36.7437 93.0734 36.5956 93.1584 36.4474C93.2434 36.3289 93.3284 36.2104 93.4134 36.0919C93.4701 36.003 93.5268 35.9141 93.6118 35.8252C93.6968 35.7067 93.8102 35.5586 93.9235 35.4401C93.9802 35.3512 94.0652 35.292 94.1219 35.2031C94.2353 35.0549 94.377 34.9068 94.4903 34.7883C94.547 34.729 94.6037 34.6698 94.6604 34.6105C94.8021 34.4624 94.9438 34.3142 95.0855 34.1957C95.1138 34.1661 95.1421 34.1365 95.1705 34.1069C96.5874 32.8033 98.3161 31.8255 100.215 31.6774C100.328 31.6774 100.442 31.6478 100.555 31.6478C102.312 31.6182 104.126 32.3588 105.203 33.8402C106.62 35.8252 106.421 38.7287 105.146 40.8026C104.862 41.2767 104.522 41.6915 104.154 42.1063C103.049 43.2025 101.66 44.0024 100.243 44.6542C99.9881 44.7727 99.7048 44.8616 99.4497 44.9505C99.5914 45.1579 99.7048 45.3949 99.8464 45.6023C101.15 47.7651 102.312 50.1649 101.83 52.624C101.377 54.9645 99.3647 56.7718 97.1259 57.2755C96.3891 57.4532 95.6522 57.4829 94.8871 57.394C93.6402 57.1273 92.4499 56.5052 91.5714 55.5275C91.3163 55.2608 91.118 54.9645 90.9196 54.6683C90.3528 56.7126 89.531 58.6383 88.8792 59.9716C88.9642 60.0308 89.0492 60.0901 89.1342 60.1493C90.8346 61.4233 92.96 61.9566 95.0004 62.0159C95.0288 62.0159 95.0571 62.0159 95.0855 62.0159H95.1138C95.1421 62.0159 95.1421 62.0159 95.1705 62.0159C95.3405 62.0159 95.4822 62.0159 95.6522 62.0159C95.7089 62.0159 95.7373 62.0159 95.7939 62.0159C95.9356 62.0159 96.1057 61.9862 96.2474 61.9862C96.2757 61.9862 96.304 61.9862 96.3324 61.9862C96.5308 61.9566 96.7008 61.9566 96.8992 61.927C96.9275 61.927 96.9842 61.927 97.0125 61.8974C97.1542 61.8677 97.2959 61.8381 97.466 61.8085C97.5226 61.8085 97.5793 61.7788 97.6076 61.7788C97.7493 61.7492 97.9194 61.7196 98.0611 61.69C98.0894 61.69 98.1178 61.69 98.1461 61.6603C98.3161 61.6307 98.4862 61.5714 98.6562 61.5122C98.7129 61.4826 98.7696 61.4826 98.8262 61.4529C98.9396 61.4233 99.0529 61.3937 99.1663 61.3344C99.223 61.3048 99.308 61.3048 99.3647 61.2752C99.5064 61.2456 99.6197 61.1863 99.7614 61.1567C99.7898 61.1567 99.8464 61.127 99.8748 61.127C100.016 61.0678 100.158 61.0085 100.3 60.9493C100.328 60.9493 100.357 60.9196 100.385 60.9196C100.498 60.8604 100.612 60.8011 100.725 60.7419C100.753 60.7419 100.782 60.7123 100.782 60.7123C101.065 60.5641 101.32 60.416 101.575 60.2382C101.603 60.2382 101.603 60.2086 101.632 60.2086C101.745 60.1197 101.859 60.0605 101.972 59.9716C102 59.9716 102 59.9419 102.029 59.9419C102.284 59.7346 102.51 59.5272 102.737 59.3198C102.765 59.2901 102.765 59.2901 102.794 59.2605C102.907 59.1716 102.992 59.0531 103.105 58.9346L103.134 58.905C103.361 58.668 103.559 58.4309 103.757 58.1643C103.786 58.1347 103.786 58.1347 103.814 58.105C103.899 57.9865 103.984 57.868 104.069 57.7495L104.097 57.7199C104.182 57.5718 104.267 57.4532 104.381 57.3051C104.381 57.3051 104.381 57.2755 104.409 57.2755C104.494 57.157 104.551 57.0088 104.636 56.8903C104.664 56.8607 104.664 56.8311 104.692 56.8014C104.749 56.6829 104.834 56.5348 104.891 56.4163C104.891 56.3867 104.919 56.3867 104.919 56.357C105.004 56.2089 105.061 56.0608 105.118 55.9126C105.118 55.883 105.146 55.8534 105.146 55.8534C105.203 55.7349 105.259 55.6163 105.288 55.4682C105.316 55.4386 105.316 55.3793 105.344 55.3497C105.401 55.2312 105.429 55.0831 105.486 54.9645C105.486 54.9349 105.514 54.9053 105.514 54.8757C105.571 54.7275 105.628 54.5794 105.656 54.4016C105.656 54.372 105.684 54.3127 105.684 54.2831C105.713 54.1646 105.741 54.0461 105.769 53.9276C105.769 53.8683 105.798 53.8387 105.798 53.7794C105.826 53.6609 105.854 53.5424 105.883 53.3943C105.883 53.3647 105.911 53.335 105.911 53.3054C105.939 53.1573 105.968 53.0091 105.996 52.8314C105.996 52.7721 106.024 52.7425 106.024 52.6832C106.053 52.5647 106.053 52.4758 106.081 52.3573C106.081 52.2981 106.081 52.2388 106.109 52.1796C106.109 52.0611 106.138 51.9129 106.138 51.7944C106.138 51.7648 106.138 51.7352 106.138 51.7055C106.138 51.5574 106.166 51.4389 106.166 51.2907C106.166 51.2611 106.166 51.2611 106.166 51.2315C106.166 51.113 106.166 51.0241 106.166 50.9056C106.166 50.8167 106.166 50.7575 106.166 50.6686C106.166 50.5797 106.166 50.4908 106.166 50.4019C106.166 50.313 106.166 50.1945 106.166 50.1056C106.166 50.0464 106.166 50.0168 106.166 49.9575C106.138 49.6316 106.109 49.3353 106.053 49.0391C105.939 48.328 105.769 47.6169 105.514 46.9651C105.713 46.817 105.911 46.6392 106.109 46.4615C106.138 46.4319 106.166 46.4022 106.194 46.3726C106.336 46.2245 106.506 46.106 106.648 45.9578C106.705 45.8986 106.733 45.8689 106.79 45.8097C106.931 45.6615 107.045 45.543 107.186 45.3949C107.243 45.3356 107.271 45.306 107.328 45.2468C107.47 45.0986 107.611 44.9505 107.725 44.7727C107.753 44.7431 107.781 44.7135 107.81 44.6542C108.15 44.2691 108.433 43.8543 108.717 43.4099C108.745 43.3802 108.773 43.321 108.802 43.2913C108.887 43.1728 108.943 43.0543 109.028 42.9358C109.085 42.8469 109.113 42.7877 109.17 42.6988C109.17 42.6988 109.17 42.6988 109.17 42.6692C109.623 41.8692 109.992 41.0397 110.247 40.1508V40.1212C110.304 39.9138 110.36 39.7064 110.417 39.499C110.474 39.262 110.53 39.0546 110.559 38.8176C110.559 38.788 110.559 38.7287 110.587 38.6991C110.615 38.5213 110.644 38.3436 110.672 38.1658C110.672 38.1066 110.7 38.0177 110.7 37.9584C110.729 37.8103 110.729 37.6621 110.729 37.514C110.729 37.4251 110.729 37.3362 110.729 37.277C110.729 37.2177 110.729 37.1881 110.729 37.1289C110.842 36.9511 110.842 36.7733 110.842 36.6252Z" fill="white"/>
</g>
<ellipse cx="116.934" cy="17.1227" rx="10.8483" ry="11.3414" fill="#2DFFB3"/>
<defs>
<linearGradient id="paint0_linear" x1="87.6665" y1="-8.00839" x2="87.6665" y2="118.92" gradientUnits="userSpaceOnUse">
<stop stop-color="#CEBFF5"/>
<stop offset="1" stop-color="#2680C1" stop-opacity="0"/>
</linearGradient>
<clipPath id="clip0">
<rect width="89.0703" height="93.1189" fill="white" transform="translate(43.2812 14.1379)"/>
</clipPath>
</defs>
</svg>
