<?xml version="1.0" encoding="utf-8"?>
<!-- Generator: Moho 13.0.2 build 610 -->
<!DOCTYPE svg PUBLIC "-//W3C//DTD SVG 1.1//EN" "http://www.w3.org/Graphics/SVG/1.1/DTD/svg11.dtd">
<svg version="1.1" id="Frame_0" xmlns="http://www.w3.org/2000/svg" xmlns:xlink="http://www.w3.org/1999/xlink" width="60px" height="60px">
<g id="Layer_17">
<path fill="#5600e3" fill-rule="evenodd" stroke="none" d="M 57.030 15.047 C 57.030 12.397 57.030 9.747 57.030 7.097 C 57.030 6.223 56.314 5.507 55.440 5.507 C 38.479 5.511 21.521 5.507 4.562 5.507 C 3.687 5.507 2.972 6.223 2.972 7.097 C 2.972 9.747 2.972 12.397 2.972 15.047 C 20.991 15.047 39.010 15.047 57.030 15.047 M 8.537 8.687 C 9.411 8.687 10.127 9.402 10.127 10.277 C 10.127 11.151 9.411 11.867 8.537 11.867 C 7.663 11.867 6.948 11.151 6.948 10.277 C 6.947 9.402 7.662 8.687 8.537 8.687 M 14.102 8.687 C 14.977 8.687 15.692 9.402 15.692 10.277 C 15.691 11.151 14.977 11.867 14.102 11.867 C 13.228 11.867 12.511 11.152 12.511 10.277 C 12.511 9.402 13.227 8.687 14.102 8.687 M 19.666 8.687 C 20.541 8.687 21.257 9.402 21.257 10.277 C 21.257 11.152 20.540 11.867 19.666 11.867 C 18.792 11.867 18.077 11.151 18.077 10.277 C 18.076 9.402 18.791 8.687 19.666 8.687 Z"/>
<path fill="#5600e3" fill-rule="evenodd" stroke="none" d="M 2.972 18.227 C 2.972 29.356 2.974 40.485 2.972 51.614 C 2.972 52.489 3.687 53.206 4.562 53.206 C 7.855 53.205 11.149 53.204 14.444 53.206 C 13.770 52.537 13.097 51.869 12.424 51.201 C 12.793 50.809 13.161 50.417 13.529 50.025 C 11.071 50.024 8.611 50.024 6.152 50.025 C 6.152 40.485 6.152 30.946 6.152 21.406 C 22.051 21.406 37.950 21.406 53.849 21.406 C 53.849 30.946 53.849 40.485 53.849 50.025 C 51.420 50.024 48.990 50.024 46.560 50.025 C 46.925 50.385 47.291 50.746 47.657 51.106 C 46.962 51.805 46.267 52.505 45.574 53.206 C 48.862 53.204 52.150 53.205 55.440 53.206 C 56.315 53.206 57.030 52.489 57.030 51.614 C 57.030 40.485 57.030 29.356 57.030 18.227 C 39.010 18.226 20.991 18.226 2.972 18.227 Z"/>
<path fill="#2dffb3" fill-rule="evenodd" stroke="none" d="M 20.612 54.858 C 20.607 54.863 20.602 54.868 20.597 54.874 C 20.601 54.868 20.606 54.863 20.612 54.858 C 20.979 54.493 21.321 54.095 21.725 53.777 C 22.592 53.093 23.634 52.832 24.714 53.078 C 25.620 53.285 26.479 53.929 26.917 54.755 C 27.291 55.455 27.337 56.178 27.337 56.950 C 27.337 57.188 27.337 57.427 27.337 57.665 C 27.480 57.665 27.624 57.665 27.766 57.665 C 29.359 57.665 30.952 57.665 32.545 57.665 C 32.576 57.665 32.617 57.665 32.648 57.665 C 32.648 57.546 32.648 57.418 32.648 57.290 C 32.648 57.020 32.648 56.751 32.648 56.480 C 32.656 55.566 32.958 54.707 33.594 54.048 C 34.229 53.363 35.216 52.959 36.154 52.990 C 37.084 53.022 37.903 53.411 38.556 54.055 C 38.754 54.246 38.944 54.445 39.143 54.644 C 39.222 54.724 39.302 54.803 39.389 54.890 C 39.421 54.858 39.462 54.819 39.494 54.787 C 40.258 54.025 41.035 53.245 41.797 52.482 C 42.164 52.116 42.529 51.749 42.895 51.384 C 42.975 51.304 43.055 51.218 43.142 51.138 C 43.126 51.122 43.102 51.090 43.078 51.074 C 42.864 50.859 42.665 50.661 42.451 50.446 C 42.045 50.041 41.688 49.580 41.473 49.063 C 41.401 48.880 41.345 48.690 41.313 48.491 C 40.947 46.377 42.514 44.437 44.676 44.405 C 45.089 44.397 45.510 44.397 45.932 44.405 C 45.932 42.637 45.931 40.870 45.932 39.102 C 45.813 39.087 45.678 39.087 45.542 39.087 C 44.923 39.086 44.271 39.133 43.667 38.943 C 41.640 38.284 40.692 35.954 41.662 34.062 C 41.949 33.489 42.466 33.053 42.919 32.608 C 42.998 32.528 43.078 32.449 43.165 32.369 C 41.902 31.129 40.669 29.857 39.413 28.617 C 39.064 28.967 38.729 29.348 38.348 29.666 C 37.489 30.374 36.464 30.636 35.367 30.429 C 34.444 30.246 33.595 29.610 33.134 28.807 C 32.736 28.116 32.680 27.385 32.680 26.614 C 32.680 26.351 32.680 26.097 32.680 25.834 C 32.553 25.834 32.426 25.834 32.291 25.834 C 30.695 25.834 29.100 25.834 27.505 25.834 C 27.457 25.834 27.417 25.834 27.369 25.834 C 27.369 25.937 27.369 26.041 27.369 26.145 C 27.369 26.423 27.369 26.709 27.369 26.987 C 27.369 27.910 27.067 28.744 26.447 29.428 C 25.819 30.120 24.858 30.517 23.928 30.517 C 22.997 30.517 22.139 30.119 21.479 29.467 C 21.289 29.284 21.105 29.094 20.915 28.903 C 20.899 28.887 20.739 28.752 20.612 28.633 C 20.588 28.657 20.565 28.680 20.541 28.704 C 20.223 29.022 19.897 29.348 19.579 29.666 C 18.768 30.477 17.958 31.288 17.146 32.099 C 17.059 32.186 16.963 32.282 16.869 32.377 C 17.059 32.568 17.250 32.759 17.440 32.949 C 17.981 33.490 18.466 34.054 18.657 34.818 C 18.887 35.740 18.736 36.781 18.195 37.576 C 17.568 38.482 16.638 39.023 15.533 39.102 C 15.056 39.142 14.563 39.110 14.078 39.110 C 14.078 39.452 14.078 39.802 14.078 40.144 C 14.078 41.317 14.078 42.491 14.078 43.665 C 14.078 43.912 14.086 44.158 14.078 44.397 C 14.173 44.397 14.261 44.397 14.356 44.397 C 14.992 44.397 15.659 44.350 16.280 44.524 C 17.186 44.786 18.013 45.455 18.403 46.321 C 18.808 47.219 18.855 48.149 18.514 49.047 C 18.474 49.151 18.435 49.262 18.379 49.357 C 18.100 49.930 17.607 50.374 17.155 50.812 C 17.059 50.915 16.956 51.011 16.860 51.114 C 16.908 51.162 16.940 51.217 16.963 51.233 C 17.106 51.377 17.241 51.512 17.385 51.655 C 18.220 52.489 19.054 53.325 19.881 54.160 C 20.120 54.398 20.358 54.635 20.597 54.874 M 26.876 36.503 C 29.102 35.159 31.949 35.437 33.944 37.060 C 35.860 38.633 36.638 41.439 35.764 43.784 C 34.866 46.192 32.609 47.822 30.025 47.847 C 29.993 47.847 29.993 47.847 29.977 47.847 C 27.131 47.799 24.556 45.772 24.031 42.957 C 23.554 40.430 24.659 37.838 26.876 36.503 Z"/>
</g>
</svg>
