<svg id="eb5LoF6TtGO1" xmlns="http://www.w3.org/2000/svg" xmlns:xlink="http://www.w3.org/1999/xlink" viewBox="0 0 59 64" shape-rendering="geometricPrecision" text-rendering="geometricPrecision"><style><![CDATA[#eb5LoF6TtGO1{pointer-events: all}#eb5LoF6TtGO1.hover #eb5LoF6TtGO2_ts {animation: eb5LoF6TtGO2_ts__ts 2300ms linear infinite normal forwards}@keyframes eb5LoF6TtGO2_ts__ts { 0% {transform: translate(29.427207px,61.655439px) scale(0.926724,0.926724)} 8.695652% {transform: translate(29.427207px,61.655439px) scale(0.997819,0.884505)} 17.391304% {transform: translate(29.427207px,61.655439px) scale(0.724312,0.958594)} 26.086957% {transform: translate(29.427207px,61.655439px) scale(0.926724,0.926724)} 52.173913% {transform: translate(29.427207px,61.655439px) scale(0.926724,0.926724)} 60.869565% {transform: translate(29.427207px,61.655439px) scale(0.997819,0.884505)} 69.565217% {transform: translate(29.427207px,61.655439px) scale(0.724312,0.958594)} 78.260870% {transform: translate(29.427207px,61.655439px) scale(0.926724,0.926724)} 100% {transform: translate(29.427207px,61.655439px) scale(0.926724,0.926724)}} #eb5LoF6TtGO1.hover #eb5LoF6TtGO6_ts {animation: eb5LoF6TtGO6_ts__ts 2300ms linear infinite normal forwards}@keyframes eb5LoF6TtGO6_ts__ts { 0% {transform: translate(29.500000px,32px) scale(0.926724,0.926724)} 8.695652% {transform: translate(29.500000px,32px) scale(0.997819,0.884505)} 17.391304% {transform: translate(29.500000px,32px) scale(0.724312,0.958594)} 26.086957% {transform: translate(29.500000px,32px) scale(0.926724,0.926724)} 100% {transform: translate(29.500000px,32px) scale(0.926724,0.926724)}} #eb5LoF6TtGO1.hover #eb5LoF6TtGO8_ts {animation: eb5LoF6TtGO8_ts__ts 2300ms linear infinite normal forwards}@keyframes eb5LoF6TtGO8_ts__ts { 0% {transform: translate(29.500234px,40.675000px) rotate(180deg) scale(1,1)} 43.478261% {transform: translate(29.500234px,40.675000px) rotate(180deg) scale(1,1)} 52.173913% {transform: translate(29.500234px,40.675000px) rotate(180deg) scale(0.143534,0.143534)} 60.869565% {transform: translate(29.500234px,40.675000px) rotate(180deg) scale(1.395146,1.395146)} 73.913043% {transform: translate(29.500234px,40.675000px) rotate(180deg) scale(1,1)} 100% {transform: translate(29.500234px,40.675000px) rotate(180deg) scale(1,1)}} #eb5LoF6TtGO1.hover #eb5LoF6TtGO8 {animation: eb5LoF6TtGO8_c_o 2300ms linear infinite normal forwards}@keyframes eb5LoF6TtGO8_c_o { 0% {opacity: 1} 43.478261% {opacity: 1} 52.173913% {opacity: 0.300000} 56.521739% {opacity: 1} 100% {opacity: 1}}]]></style><g id="eb5LoF6TtGO2_ts" transform="translate(29.427207,61.655439) scale(0.926724,0.926724)"><g id="eb5LoF6TtGO2" display="none" transform="translate(-29.418202,-63.999900)"><path id="eb5LoF6TtGO3" d="M41.743700,17.214800L17.174100,17.214800C17.174100,17.214800,0,31.958700,0,49.256000C0,59.140200,7.395540,63.999900,12.325900,63.999900L46.756300,63.999900C51.686600,63.999900,59.082200,59.057800,59.082200,49.256000C59,32.041100,41.743700,17.214800,41.743700,17.214800ZM31.965200,51.480000L31.965200,55.433600L27.034800,55.433600L27.034800,51.480000C23.419200,50.821000,21.118400,48.597100,20.954000,45.302400L25.227000,45.302400C25.473500,47.032100,27.117000,48.102900,29.664300,48.102900C31.965200,48.102900,33.608600,46.949700,33.608600,45.384700C33.608600,44.066800,32.540400,43.243200,29.993000,42.666600L27.281300,42.090000C23.419200,41.266300,21.529200,39.289500,21.529200,36.077100C21.529200,32.864800,23.665700,30.558500,27.034800,29.817200L27.034800,25.863500L31.965200,25.863500L31.965200,29.817200C35.252100,30.558500,37.470700,32.864800,37.635100,35.912400L33.526500,35.912400C33.279900,34.265000,31.800800,33.111900,29.664300,33.111900C27.527900,33.111900,25.966600,34.100300,25.966600,35.747700C25.966600,37.065600,26.952600,37.806900,29.417800,38.301100L31.965200,38.877700C36.156000,39.783700,38.046000,41.595800,38.046000,44.890500C37.963800,48.432300,35.745100,50.738700,31.965200,51.480000Z" fill="rgb(86,0,227)" stroke="none" stroke-width="1"/><path id="eb5LoF6TtGO4" d="M17.174300,12.273000L41.743900,12.273000L44.044800,5.765960C44.537800,4.530440,43.880400,3.047820,42.647800,2.553610C42.401300,2.471240,42.072600,2.471240,41.743900,2.471240L34.923600,2.471240C32.211900,-0.576379,27.528100,-0.823483,24.487700,1.894660C24.323300,2.059400,24.076800,2.224140,23.912500,2.471240L17.092100,2.471240C15.695200,2.471240,14.627000,3.624390,14.627000,4.942280C14.627000,5.271750,14.709100,5.518860,14.791300,5.848330L17.174300,12.273000Z" fill="rgb(86,0,227)" stroke="none" stroke-width="1"/><path id="eb5LoF6TtGO5" d="M41.743500,12.273400L17.173800,12.273400L17.173800,17.215500L41.743500,17.215500L41.743500,12.273400Z" fill="rgb(45,255,179)" stroke="none" stroke-width="1"/></g></g><g id="eb5LoF6TtGO6_ts" transform="translate(29.500000,32) scale(0.926724,0.926724)"><g id="eb5LoF6TtGO6" transform="translate(-29.540001,-31.994922)"><path id="eb5LoF6TtGO7" d="M41.740000,17.210000L17.170000,17.210000C17.170000,17.210000,0,32,0,49.260000C0,59.140000,7.400000,64,12.330000,64L46.760000,64C51.690000,64,59.080000,59.060000,59.080000,49.260000C59,32,41.740000,17.210000,41.740000,17.210000Z" transform="matrix(1 0 0 1 0 -0.01000000000000)" fill="rgb(86,0,227)" stroke="none" stroke-width="1"/><g id="eb5LoF6TtGO8_ts" transform="translate(29.500234,40.675000) rotate(180) scale(1,1)"><path id="eb5LoF6TtGO8" d="M27,25.860000L32,25.860000L32,29.860000C36.930000,31.100000,37.580000,34.530000,37.670000,35.950000C37.670000,35.950000,33.560000,35.950000,33.560000,35.950000C33.230000,33.950000,31.420000,33.140000,29.690000,33.150000C27.690000,33.150000,26,34.050000,26,35.790000C26,37.530000,27.700000,37.960000,29.450000,38.340000L32,38.920000C33.220000,39.290000,38.140000,39.920000,38.080000,44.920000C37.990000,49.540000,34.280000,51.110000,32,51.510000L32,55.510000L27,55.510000L27,51.510000C21.820000,50.510000,21,46.980000,20.920000,45.330000L25.200000,45.330000C25.450000,47.110000,27.080000,48.110000,29.630000,48.130000C32.430000,48.080000,33.580000,46.690000,33.580000,45.410000C33.580000,44.340000,32.780000,43.300000,29.960000,42.700000C27.670000,42.010000,21.530000,42,21.500000,36.110000C21.590000,30.920000,26.500000,29.980000,27,29.850000Z" transform="translate(-29.500234,-40.685000)" fill="rgb(255,255,255)" stroke="none" stroke-width="1"/></g><path id="eb5LoF6TtGO9" d="M17.170000,12.270000L41.740000,12.270000L44,5.770000C44.476487,4.497552,43.862813,3.075949,42.610000,2.550000C42.312032,2.480087,42.005596,2.453148,41.700000,2.470000L34.920000,2.470000C32.199097,-0.568453,27.531015,-0.828040,24.490000,1.890000C24.277303,2.062948,24.082948,2.257303,23.910000,2.470000L17.090000,2.470000C15.729764,2.475507,14.629989,3.579752,14.630000,4.940000C14.644354,5.248910,14.698122,5.554720,14.790000,5.850000Z" transform="matrix(1 0 0 1 0 -0.01000000000000)" fill="rgb(86,0,227)" stroke="none" stroke-width="1"/><path id="eb5LoF6TtGO10" d="M41.740000,12.270000L17.170000,12.270000L17.170000,17.220000L41.740000,17.220000Z" transform="matrix(1 0 0 1 0 -0.01000000000000)" fill="rgb(45,255,179)" stroke="none" stroke-width="1"/></g></g></svg>