<svg id="ePJWV0Ro6Cw1" xmlns="http://www.w3.org/2000/svg" xmlns:xlink="http://www.w3.org/1999/xlink" viewBox="0 0 40 40" shape-rendering="geometricPrecision" text-rendering="geometricPrecision"><style><![CDATA[#ePJWV0Ro6Cw1{pointer-events: all}#ePJWV0Ro6Cw1.hover #ePJWV0Ro6Cw2_ts {animation: ePJWV0Ro6Cw2_ts__ts 3000ms linear 1 normal forwards}@keyframes ePJWV0Ro6Cw2_ts__ts { 0% {transform: translate(19.999963px,19.999999px) scale(1,1);animation-timing-function: step-end} 3.333333% {transform: translate(19.999963px,19.999999px) scale(0.014051,0.014051)} 10% {transform: translate(19.999963px,19.999999px) scale(0.014051,0.014051)} 16.666667% {transform: translate(19.999963px,19.999999px) scale(1.056741,1.056741)} 23.333333% {transform: translate(19.999963px,19.999999px) scale(1.000064,1.000064)} 50% {transform: translate(19.999963px,19.999999px) scale(1.000064,1.000064)} 53.333333% {transform: translate(19.999963px,19.999999px) scale(0.857472,0.857472)} 56.666667% {transform: translate(19.999963px,19.999999px) scale(1.051271,1.051271)} 63.333333% {transform: translate(19.999963px,19.999999px) scale(1.000093,1.000093)} 100% {transform: translate(19.999963px,19.999999px) scale(1.000093,1.000093)}} #ePJWV0Ro6Cw1.hover #ePJWV0Ro6Cw3_to {animation: ePJWV0Ro6Cw3_to__to 3000ms linear 1 normal forwards}@keyframes ePJWV0Ro6Cw3_to__to { 0% {transform: translate(14.474928px,27.604939px);animation-timing-function: step-end} 26.666667% {transform: translate(14.474928px,27.604939px)} 33.333333% {transform: translate(10.282302px,29.554107px)} 40% {transform: translate(14.479755px,27.605464px)} 100% {transform: translate(14.479755px,27.605464px)}} #ePJWV0Ro6Cw1.hover #ePJWV0Ro6Cw8_to {animation: ePJWV0Ro6Cw8_to__to 3000ms linear 1 normal forwards}@keyframes ePJWV0Ro6Cw8_to__to { 0% {transform: translate(25.116826px,8.785461px);animation-timing-function: step-end} 26.666667% {transform: translate(25.116826px,8.785461px)} 33.333333% {transform: translate(26.969439px,6.836293px)} 40% {transform: translate(25.119810px,8.786168px)} 100% {transform: translate(25.119810px,8.786168px)}} #ePJWV0Ro6Cw1.hover #ePJWV0Ro6Cw9_to {animation: ePJWV0Ro6Cw9_to__to 3000ms linear 1 normal forwards}@keyframes ePJWV0Ro6Cw9_to__to { 0% {transform: translate(16.963030px,15.724178px);animation-timing-function: step-end} 26.666667% {transform: translate(16.963030px,15.724178px)} 33.333333% {transform: translate(15.629359px,14.413290px)} 40% {transform: translate(16.959273px,15.727683px)} 100% {transform: translate(16.959273px,15.727683px)}}]]></style><g id="ePJWV0Ro6Cw2_ts" transform="translate(19.999963,19.999999) scale(1,1)"><g id="ePJWV0Ro6Cw2" transform="translate(-18.680586,-18.050463)"><g id="ePJWV0Ro6Cw3_to" transform="translate(14.474928,27.604939)"><g id="ePJWV0Ro6Cw3" transform="translate(-14.474928,-27.604939)"><path id="ePJWV0Ro6Cw4" d="M7.380000,24.130000C6.850021,24.123316,6.375436,23.800283,6.174837,23.309689C5.974239,22.819095,6.086534,22.256092,6.460000,21.880000L8.830000,19.490000C9.071516,19.242436,9.404177,19.105032,9.750000,19.110000C10.095375,19.107356,10.427161,19.244398,10.670000,19.490000C11.170363,20.009047,11.170363,20.830953,10.670000,21.350000L8.300000,23.750000C8.055892,23.993705,7.724936,24.130404,7.380000,24.130000Z" fill="rgb(45,255,179)" fill-rule="evenodd" stroke="none" stroke-width="1"/><path id="ePJWV0Ro6Cw5" d="M11.320000,28.120000C10.976159,28.119610,10.647414,27.978719,10.410000,27.730000C10.159551,27.485382,10.018350,27.150090,10.018350,26.800000C10.018350,26.449910,10.159551,26.114618,10.410000,25.870000L12.770000,23.480000C13.011153,23.230703,13.343152,23.089944,13.690000,23.089944C14.036848,23.089944,14.368847,23.230703,14.610000,23.480000C15.115614,23.996917,15.115614,24.823083,14.610000,25.340000L12.240000,27.730000C11.999508,27.980251,11.667074,28.121174,11.320000,28.120000Z" fill="rgb(45,255,179)" fill-rule="evenodd" stroke="none" stroke-width="1"/><path id="ePJWV0Ro6Cw6" d="M15.270000,32.110000C14.922926,32.111174,14.590492,31.970251,14.350000,31.720000C13.839000,31.205291,13.839000,30.374709,14.350000,29.860000C15.130000,29.060000,15.920000,28.270000,16.710000,27.470000C16.951153,27.220703,17.283152,27.079944,17.630000,27.079944C17.976848,27.079944,18.308847,27.220703,18.550000,27.470000C19.061000,27.984709,19.061000,28.815291,18.550000,29.330000L16.180000,31.720000C15.942586,31.968719,15.613841,32.109610,15.270000,32.110000Z" fill="rgb(45,255,179)" fill-rule="evenodd" stroke="none" stroke-width="1"/><path id="ePJWV0Ro6Cw7" d="M19.210000,36.100000C18.862926,36.101174,18.530492,35.960251,18.290000,35.710000C17.779000,35.195291,17.779000,34.364709,18.290000,33.850000C19.080000,33.050000,19.860000,32.250000,20.650000,31.460000C20.891819,31.211682,21.223392,31.071124,21.570000,31.070000C21.917074,31.068826,22.249508,31.209749,22.490000,31.460000C23.001000,31.974709,23.001000,32.805291,22.490000,33.320000C21.700000,34.110000,20.920000,34.910000,20.130000,35.710000C19.887538,35.957375,19.556378,36.097759,19.210000,36.100000Z" fill="rgb(45,255,179)" fill-rule="evenodd" stroke="none" stroke-width="1"/></g></g><g id="ePJWV0Ro6Cw8_to" transform="translate(25.116826,8.785461)"><path id="ePJWV0Ro6Cw8" d="M23.220000,5.690000L17.900000,10.370000L16,12.090000C15.697134,12.269753,15.352172,12.366343,15,12.370000C14.146335,12.366753,13.377898,11.851801,13.050339,11.063474C12.722779,10.275147,12.900008,9.367259,13.500000,8.760000L19.120000,3.170000C21.111183,1.142841,23.833489,0.000921,26.675000,0.000921C29.516511,0.000921,32.238817,1.142841,34.230000,3.170000C38.070188,7.093902,38.399847,13.258957,35,17.570000Z" transform="translate(-25.116826,-8.785461)" fill="rgb(45,255,179)" fill-rule="evenodd" stroke="none" stroke-width="1"/></g><g id="ePJWV0Ro6Cw9_to" transform="translate(16.963030,15.724178)"><path id="ePJWV0Ro6Cw9" d="M25.330000,30.340000C25.132168,29.973156,24.882989,29.636427,24.590000,29.340000C23.871070,28.610115,22.911677,28.165951,21.890000,28.090000C21.815588,27.058286,21.375961,26.086852,20.650000,25.350000C19.928535,24.617924,18.965199,24.173581,17.940000,24.100000C17.874439,23.068074,17.437518,22.094770,16.710000,21.360000C15.989072,20.627160,15.025432,20.182676,14,20.110000C13.923211,18.974301,13.402300,17.914516,12.550000,17.160000C11.805327,16.503079,10.842927,16.146635,9.850000,16.160000C8.605534,16.163798,7.414056,16.664146,6.540000,17.550000L3.480000,20.650000L3.270000,20.440000C-1.069222,15.989269,-1.069222,8.890731,3.270000,4.440000C6.545467,1.107051,11.552944,0.172641,15.810000,2.100000L11.340000,6.560000C9.369379,8.567163,9.369379,11.782837,11.340000,13.790000C12.292242,14.750867,13.587227,15.294041,14.940000,15.300000C15.873029,15.305519,16.787274,15.037851,17.570000,14.530000L17.730000,14.420000L19.850000,12.560000L23.080000,9.720000Q28.300000,15,33.540000,20.300000C34.033969,20.817745,34.033969,21.632255,33.540000,22.150000C33.297538,22.397375,32.966378,22.537759,32.620000,22.540000C32.272926,22.541174,31.940492,22.400251,31.700000,22.150000L25.780000,16.150000C25.505297,15.865331,25.125580,15.706212,24.730000,15.710000C24.352049,15.720677,23.993217,15.878563,23.730000,16.150000C23.451344,16.432049,23.296593,16.813529,23.300000,17.210000C23.298292,17.609098,23.452597,17.993067,23.730000,18.280000L29.640000,24.280000C30.151000,24.794709,30.151000,25.625291,29.640000,26.140000C29.397852,26.383659,29.068520,26.520673,28.725000,26.520673C28.381480,26.520673,28.052148,26.383659,27.810000,26.140000C25.810000,24.140000,23.860000,22.140000,21.890000,20.140000C21.627406,19.867669,21.268190,19.709614,20.890000,19.700000C20.494651,19.697387,20.115378,19.856320,19.840000,20.140000C19.265871,20.730055,19.265871,21.669945,19.840000,22.260000L25.750000,28.260000C26.000806,28.504239,26.141577,28.839923,26.140000,29.190000C26.139312,29.539623,25.998894,29.874464,25.750000,30.120000C25.633701,30.231685,25.488033,30.307987,25.330000,30.340000Z" transform="translate(-16.963030,-15.724178)" fill="rgb(86,0,227)" fill-rule="evenodd" stroke="none" stroke-width="1"/></g></g></g></svg>
