<?xml version="1.0" encoding="utf-8"?>
<!-- Generator: Moho 13.0.2 build 610 -->
<!DOCTYPE svg PUBLIC "-//W3C//DTD SVG 1.1//EN" "http://www.w3.org/Graphics/SVG/1.1/DTD/svg11.dtd">
<svg version="1.1" id="Frame_0" xmlns="http://www.w3.org/2000/svg" xmlns:xlink="http://www.w3.org/1999/xlink" width="60px" height="60px">
<g id="icon-extension.svg">
<path fill="#5600e3" fill-rule="evenodd" stroke="none" d="M 4.948 52.142 C 11.394 47.531 17.841 42.921 24.288 38.310 C 24.732 37.962 24.732 37.264 24.288 36.916 C 17.841 32.304 11.394 27.694 4.948 23.083 C 4.392 22.735 3.725 23.083 3.725 23.781 C 3.725 33.002 3.725 42.223 3.725 51.445 C 3.725 52.142 4.392 52.491 4.948 52.142 Z"/>
<path fill="#2dffb3" fill-rule="evenodd" stroke="none" d="M 50.739 18.086 C 43.922 12.971 37.105 7.857 30.288 2.743 C 29.955 2.510 29.621 2.510 29.399 2.743 C 22.582 7.857 15.765 12.971 8.948 18.086 C 8.503 18.434 8.503 19.132 8.948 19.481 C 15.728 24.323 22.508 29.167 29.288 34.010 C 29.510 34.243 29.955 34.243 30.177 34.010 C 36.957 29.167 43.737 24.323 50.517 19.481 C 51.184 19.132 51.184 18.434 50.739 18.086 Z"/>
<path fill="#5600e3" fill-rule="evenodd" stroke="none" d="M 54.742 23.084 C 48.295 27.695 41.849 32.305 35.403 36.916 C 34.958 37.265 34.958 37.962 35.403 38.311 C 41.849 42.921 48.295 47.532 54.742 52.143 C 55.298 52.492 55.965 52.143 55.965 51.446 C 55.964 42.224 55.964 33.003 55.965 23.782 C 55.965 23.200 55.298 22.736 54.742 23.084 Z"/>
<path fill="#5600e3" fill-rule="evenodd" stroke="none" d="M 29.402 41.333 C 23.066 45.827 16.731 50.322 10.396 54.817 C 9.729 55.282 10.062 56.328 10.840 56.328 C 23.474 56.327 36.108 56.327 48.742 56.328 C 49.520 56.328 49.853 55.282 49.186 54.817 C 42.887 50.322 36.589 45.827 30.291 41.333 C 30.069 41.101 29.624 41.101 29.402 41.333 Z"/>
</g>
</svg>
