<svg id="etrz4OlLu5T1" xmlns="http://www.w3.org/2000/svg" xmlns:xlink="http://www.w3.org/1999/xlink" viewBox="0 0 56.930000 56.930000" shape-rendering="geometricPrecision" text-rendering="geometricPrecision"><style><![CDATA[#etrz4OlLu5T1{pointer-events: all}#etrz4OlLu5T1.hover #etrz4OlLu5T3 {animation: etrz4OlLu5T3_c_o 4000ms linear infinite normal forwards}@keyframes etrz4OlLu5T3_c_o { 0% {opacity: 1} 2.500000% {opacity: 0.200000} 75% {opacity: 1} 100% {opacity: 1}} #etrz4OlLu5T1.hover #etrz4OlLu5T4_tr {animation: etrz4OlLu5T4_tr__tr 4000ms linear infinite normal forwards}@keyframes etrz4OlLu5T4_tr__tr { 0% {transform: translate(28.459635px,39.930000px) rotate(0deg);animation-timing-function: step-end} 2.500000% {transform: translate(28.459635px,39.930000px) rotate(-49deg)} 72.500000% {transform: translate(28.459635px,39.930000px) rotate(49deg)} 75% {transform: translate(28.459635px,39.930000px) rotate(0deg)} 100% {transform: translate(28.459635px,39.930000px) rotate(0deg)}}]]></style><g id="etrz4OlLu5T2"><path id="etrz4OlLu5T3" d="M42.670000,36.270000L43.670000,36.710000L43.870000,36.800000C45.705004,37.709055,47.455271,38.779964,49.100000,40C50.716405,37.194992,51.737629,34.087067,52.100000,30.870000L48.160000,30.870000C46.844569,30.859128,45.780872,29.795431,45.770000,28.480000C45.750200,27.859739,45.988604,27.259059,46.428365,26.821193C46.868126,26.383328,47.469830,26.147521,48.090000,26.170000L52,26.170000C51.502819,21.598934,49.689450,17.270469,46.780000,13.710000L44,16.440000C43.548888,16.917808,42.916990,17.182915,42.260000,17.170000C41.608815,17.168297,40.985561,16.905305,40.530000,16.440000C40.073117,15.992348,39.815653,15.379636,39.815653,14.740000C39.815653,14.100364,40.073117,13.487652,40.530000,13.040000L43.350000,10.360000C39.805086,7.399250,35.447737,5.579621,30.850000,5.140000L30.850000,9.050000C30.850000,10.369961,29.779961,11.440000,28.460000,11.440000C27.140039,11.440000,26.070000,10.369961,26.070000,9.050000L26.070000,5.140000C21.507160,5.612986,17.179218,7.398349,13.610000,10.280000L16.370000,13C16.821891,13.450324,17.075893,14.062036,17.075893,14.700000C17.075893,15.337964,16.821891,15.949676,16.370000,16.400000C15.911272,16.866624,15.284346,17.129445,14.630000,17.129445C13.975654,17.129445,13.348728,16.866624,12.890000,16.400000L10.140000,13.650000C7.207193,17.211814,5.391284,21.560254,4.920000,26.150000L8.830000,26.150000C10.147684,26.155479,11.214521,27.222316,11.220000,28.540000C11.228142,29.176328,10.978954,29.788976,10.528965,30.238965C10.078976,30.688954,9.466328,30.938142,8.830000,30.930000L4.920000,30.930000C5.206997,34.098235,6.172162,37.167663,7.750000,39.930000C9.351440,38.792772,11.043828,37.789380,12.810000,36.930000L13.470000,36.620000L14.040000,36.370000C18.597500,34.370832,23.523351,33.348871,28.500000,33.370000C30.287443,33.335031,32.074460,33.458851,33.840000,33.740000C34.310000,33.810000,34.770000,33.900000,35.230000,33.990000C37.782409,34.489728,40.275851,35.253847,42.670000,36.270000Z" fill="rgb(45,255,179)" stroke="none" stroke-width="1"/><g id="etrz4OlLu5T4_tr" transform="translate(28.459635,39.930000) rotate(0)"><path id="etrz4OlLu5T4" d="M33.840000,38.402922C33.670000,37.722922,30,18.330000,29.770000,17.600000C29.628576,16.993422,29.087847,16.564261,28.465000,16.564261C27.842153,16.564261,27.301424,16.993422,27.160000,17.600000C26.760000,18.910000,23.490000,37.462922,23.250000,38.402922C23.250000,38.402922,33.840000,38.402922,33.840000,38.402922Z" transform="translate(-28.459635,-39.930000)" fill="rgb(86,0,227)" stroke="none" stroke-width="1"/></g><path id="etrz4OlLu5T5" d="M28.460000,0C16.944050,0.000001,6.562223,6.937576,2.156194,17.577314C-2.249834,28.217051,0.187772,40.463290,8.332208,48.604866C16.476645,56.746442,28.723739,59.179745,39.361928,54.769979C50.000117,50.360213,56.934045,39.975949,56.930000,28.460000C56.924479,12.740359,44.179642,-0.000001,28.460000,0ZM28.460000,47.730000C27.023256,47.734047,25.725731,46.871688,25.173106,45.545470C24.620482,44.219251,24.921731,42.690695,25.936233,41.673328C26.950734,40.655961,28.478434,40.350400,29.806206,40.899282C31.133979,41.448163,31.999994,42.743250,32,44.180000C31.994541,46.134448,30.414425,47.719028,28.460000,47.730000ZM33.680000,33.730000C30.214287,33.339701,26.715713,33.339701,23.250000,33.730000C17.663436,34.551976,12.351433,36.687058,7.750000,39.960000C6.181924,37.194133,5.220619,34.126137,4.930000,30.960000L8.840000,30.960000C9.475503,30.965386,10.086543,30.715313,10.535928,30.265928C10.985313,29.816543,11.235386,29.205503,11.230000,28.570000C11.258346,27.252257,10.226934,26.154160,8.910000,26.100000L5,26.100000C5.462163,21.524798,7.275853,17.190741,10.210000,13.650000L13,16.370000C13.461381,16.831656,14.087314,17.091035,14.740000,17.091035C15.392686,17.091035,16.018619,16.831656,16.480000,16.370000C16.932497,15.917967,17.186746,15.304600,17.186746,14.665000C17.186746,14.025400,16.932497,13.412033,16.480000,12.960000L13.730000,10.210000C17.276091,7.315312,21.595395,5.527774,26.150000,5.070000L26.150000,9C26.150000,10.319961,27.220039,11.390000,28.540000,11.390000C29.859961,11.390000,30.930000,10.319961,30.930000,9L30.930000,5.070000C35.489772,5.543182,39.814451,7.328632,43.380000,10.210000L40.560000,12.890000C40.107503,13.342033,39.853254,13.955400,39.853254,14.595000C39.853254,15.234600,40.107503,15.847967,40.560000,16.300000C41.027181,16.750297,41.651136,17.001313,42.300000,17C42.937334,17.002669,43.549335,16.750669,44,16.300000L46.750000,13.540000C49.657944,17.104370,51.480272,21.429360,52,26L48.090000,26C46.776800,26.016181,45.716181,27.076800,45.700000,28.390000C45.736675,29.733136,46.816864,30.813325,48.160000,30.850000L52.080000,30.850000C51.708220,34.065007,50.687607,37.171070,49.080000,39.980000C44.539327,36.651832,39.251409,34.488593,33.680000,33.680000Z" fill="rgb(86,0,227)" stroke="none" stroke-width="1"/></g></svg>