<?xml version="1.0" encoding="utf-8"?>
<!-- Generator: Moho 13.0.2 build 610 -->
<!DOCTYPE svg PUBLIC "-//W3C//DTD SVG 1.1//EN" "http://www.w3.org/Graphics/SVG/1.1/DTD/svg11.dtd">
<svg version="1.1" id="Frame_0" xmlns="http://www.w3.org/2000/svg" xmlns:xlink="http://www.w3.org/1999/xlink" width="60px" height="60px">
<g id="Group_477.svg">
<path fill="#5600e3" fill-rule="evenodd" stroke="none" d="M 30.000 43.905 C 26.977 43.905 24.131 43.591 21.607 43.043 C 16.090 45.368 10.573 47.694 5.056 50.021 C 5.056 50.849 5.056 51.678 5.056 52.507 C 5.056 54.713 6.827 56.518 8.991 56.518 C 19.088 56.517 29.186 56.517 39.285 56.518 C 36.583 52.306 33.881 48.095 31.180 43.885 C 30.787 43.898 30.393 43.905 30.000 43.905 Z"/>
<path fill="#5600e3" fill-rule="evenodd" stroke="none" d="M 30.000 44.176 C 26.977 44.176 24.131 43.862 21.607 43.314 C 16.090 45.640 10.573 47.966 5.056 50.292 C 5.056 51.120 5.056 51.949 5.056 52.779 C 5.056 54.984 6.827 56.789 8.991 56.789 C 19.088 56.788 29.186 56.788 39.285 56.789 C 36.583 52.577 33.881 48.367 31.180 44.156 C 30.787 44.170 30.393 44.176 30.000 44.176 Z"/>
<path fill="#5600e3" fill-rule="evenodd" stroke="none" d="M 48.544 35.951 C 48.544 39.153 44.131 41.913 37.770 43.170 C 40.625 47.618 43.479 52.068 46.334 56.518 C 47.890 56.517 49.446 56.517 51.003 56.518 C 53.167 56.518 54.937 54.713 54.937 52.507 C 54.936 44.666 54.936 36.826 54.937 28.986 C 52.183 30.147 49.429 31.307 46.675 32.468 C 47.875 33.518 48.544 34.701 48.544 35.951 Z"/>
<path fill="#5600e3" fill-rule="evenodd" stroke="none" d="M 14.466 11.741 C 14.466 9.588 14.892 7.536 15.653 5.665 C 13.432 5.665 11.211 5.665 8.991 5.665 C 6.827 5.665 5.056 7.469 5.056 9.675 C 5.056 20.951 5.056 32.227 5.056 43.503 C 7.970 42.275 10.883 41.048 13.797 39.820 C 12.302 38.671 11.450 37.354 11.450 35.950 C 11.450 32.822 15.672 30.115 21.803 28.812 C 21.364 28.197 20.912 27.555 20.459 26.873 C 16.426 20.844 14.466 15.898 14.466 11.741 Z"/>
<path fill="#5600e3" fill-rule="evenodd" stroke="none" d="M 39.534 26.873 C 39.082 27.548 38.630 28.197 38.190 28.812 C 38.571 28.892 38.938 28.979 39.305 29.066 C 44.517 26.869 49.730 24.672 54.944 22.475 C 54.943 18.208 54.943 13.942 54.944 9.675 C 54.944 7.469 53.173 5.665 51.009 5.665 C 48.786 5.665 46.563 5.665 44.341 5.665 C 45.108 7.536 45.528 9.588 45.528 11.741 C 45.534 15.898 43.574 20.844 39.534 26.873 Z"/>
<path fill="#5600e3" fill-rule="evenodd" stroke="none" d="M 30.000 35.951 C 28.459 35.951 26.984 35.276 25.954 34.106 C 25.915 34.060 25.568 33.659 25.023 33.004 C 20.414 33.625 17.456 35.016 16.361 35.951 C 17.804 37.188 22.519 39.227 30.000 39.227 C 37.482 39.227 42.196 37.188 43.639 35.951 C 42.544 35.016 39.587 33.625 34.977 33.004 C 34.433 33.665 34.085 34.060 34.046 34.106 C 33.016 35.276 31.541 35.951 30.000 35.951 Z"/>
<path fill="#2dffb3" fill-rule="evenodd" stroke="none" d="M 34.675 12.490 C 34.675 15.117 32.577 17.256 30.000 17.256 C 27.423 17.256 25.325 15.117 25.325 12.490 C 25.325 9.863 27.423 7.724 30.000 7.724 C 32.577 7.724 34.675 9.863 34.675 12.490 M 40.059 12.490 C 40.059 9.870 39.082 7.484 37.488 5.666 C 35.646 3.567 32.970 2.237 30.000 2.237 C 27.030 2.237 24.354 3.567 22.512 5.666 C 20.918 7.484 19.941 9.870 19.941 12.490 C 19.941 15.291 21.443 18.954 24.394 23.365 C 25.731 25.357 27.049 27.048 27.869 28.044 C 28.347 28.625 28.649 28.980 28.682 29.013 C 29.016 29.394 29.495 29.615 30.000 29.615 C 30.505 29.615 30.984 29.394 31.318 29.013 C 31.351 28.973 31.652 28.625 32.131 28.044 C 32.951 27.048 34.269 25.357 35.606 23.365 C 38.564 18.947 40.059 15.291 40.059 12.490 Z"/>
</g>
</svg>
