<svg width="57" height="57" viewBox="0 0 57 57" fill="none" xmlns="http://www.w3.org/2000/svg">
<path d="M48.1645 26.0741H52.0756C51.5686 21.3664 49.6855 17.0932 46.8608 13.6167L44.1086 16.3689C43.6016 16.8759 43.0222 17.0932 42.3703 17.0932C41.7909 17.0932 41.1391 16.8759 40.6321 16.3689C39.6906 15.4274 39.6906 13.9064 40.6321 12.9648L43.4568 10.2851C39.9803 7.38797 35.6346 5.50487 30.9269 5.07031V8.98137C30.9269 10.2851 29.8405 11.3715 28.5368 11.3715C27.2331 11.3715 26.1467 10.2851 26.1467 8.98137V5.07031C21.439 5.5773 17.1658 7.38797 13.6893 10.2126L16.4415 12.9648C17.3831 13.9064 17.3831 15.4274 16.4415 16.3689C15.9345 16.8759 15.3551 17.0932 14.7033 17.0932C14.0514 17.0932 13.472 16.8759 12.965 16.3689L10.2128 13.6167C7.31571 17.0932 5.50504 21.4388 4.99805 26.0741H8.9091C10.2128 26.0741 11.2992 27.1605 11.2992 28.4642C11.2992 29.7679 10.2852 30.8543 8.9091 30.8543H4.99805C5.28775 34.1135 6.30173 37.1554 7.8227 39.8352C12.3132 36.6485 17.5279 34.4032 23.3221 33.6065L27.2331 17.5277C27.5953 16.1516 29.5508 16.1516 29.8405 17.5277L33.7515 33.6065C39.5457 34.4757 44.7604 36.6485 49.1785 39.9077C50.7719 37.2279 51.7134 34.1135 52.148 30.7819H48.2369C46.9332 30.7819 45.8468 29.6955 45.8468 28.3918C45.7744 27.0881 46.8608 26.0741 48.1645 26.0741Z" fill="#2DFFB3"/>
<path d="M28.4638 0C12.7471 0 0 12.7471 0 28.4638C0 44.1804 12.7471 56.9276 28.4638 56.9276C44.1804 56.9276 56.9276 44.1804 56.9276 28.4638C56.9276 12.7471 44.2529 0 28.4638 0ZM28.4638 47.7294C26.5083 47.7294 24.9149 46.136 24.9149 44.1804C24.9149 42.2249 26.5083 40.6315 28.4638 40.6315C30.4193 40.6315 32.0127 42.2249 32.0127 44.1804C32.0127 46.0635 30.4917 47.7294 28.4638 47.7294ZM48.1639 30.8539H52.075C51.6404 34.1855 50.6989 37.2999 49.1055 39.9797C44.6874 36.7205 39.4727 34.5476 33.6785 33.6785L29.7675 17.5997C29.4778 16.2236 27.5222 16.2236 27.1601 17.5997L23.249 33.6785C17.4549 34.5476 12.2402 36.7205 7.74968 39.9072C6.22872 37.2274 5.21474 34.1131 4.92503 30.9263H8.83609C10.2122 30.9263 11.2262 29.8399 11.2262 28.5362C11.2262 27.2325 10.2122 26.0737 8.90851 26.0737H4.99746C5.50445 21.3659 7.31512 17.0928 10.2122 13.6163L12.9644 16.3685C13.4714 16.8755 14.0508 17.0928 14.7027 17.0928C15.3545 17.0928 15.9339 16.8755 16.4409 16.3685C17.3825 15.4269 17.3825 13.906 16.4409 12.9644L13.6887 10.2122C17.1652 7.38755 21.5108 5.50445 26.1461 5.06989V8.98094C26.1461 10.2846 27.2325 11.371 28.5362 11.371C29.8399 11.371 30.9263 10.2846 30.9263 8.98094V5.06989C35.6341 5.57687 39.9072 7.38755 43.3837 10.2122L40.5591 12.892C39.6175 13.8335 39.6175 15.3545 40.5591 16.2961C41.0661 16.803 41.7179 17.0203 42.2973 17.0203C42.9492 17.0203 43.5286 16.803 44.0356 16.2961L46.7878 13.5438C49.6124 17.0203 51.4956 21.3659 52.0025 26.0013H48.0915C46.7878 26.0013 45.7014 27.0877 45.7014 28.3914C45.7738 29.7675 46.8602 30.8539 48.1639 30.8539Z" fill="#5600E3"/>
</svg>
