<svg width="81" height="83" viewBox="0 0 81 83" fill="none" xmlns="http://www.w3.org/2000/svg">
<path d="M79.4206 4.84081H42.1922V2.21407C42.1922 1.30042 41.4025 0.500977 40.5 0.500977C39.5975 0.500977 38.8078 1.30042 38.8078 2.21407V4.84081H1.6922C0.789694 4.84081 0 5.64025 0 6.5539V11.6932C0 12.6068 0.789694 13.4063 1.6922 13.4063H6.7688V18.774C8.68663 15.0052 12.5223 12.6068 16.6964 12.6068C22.7883 12.6068 27.8649 17.6319 27.8649 23.9132C27.8649 26.9968 26.624 29.8519 24.5933 31.9077C26.5111 32.1361 28.3162 32.9355 29.8955 34.1918L36.5515 39.7879C37.2284 39.7879 42.5306 39.7879 42.305 39.7879C46.0279 39.7879 49.0738 42.8714 49.0738 46.6403C49.0738 50.0664 46.5919 52.8074 43.546 53.3784C43.0947 53.4926 41.2897 53.4926 33.6184 53.4926H33.5056C32.039 53.4926 30.5724 52.9216 29.3315 52.0079V59.6597H33.0543L29.3315 66.1695V73.0219L37.0028 59.6597H39.0334V66.2837C39.0334 67.1973 39.8231 67.9968 40.7256 67.9968C41.6281 67.9968 42.4178 67.1973 42.4178 66.2837V59.6597H44.3357L52.007 73.7071C52.4582 74.6208 53.5863 74.8492 54.2632 74.3923C55.0529 73.9355 55.3914 72.9077 54.9401 72.1082L48.1713 59.6597H71.1852C73.1031 59.6597 74.5696 58.1751 74.5696 56.2336V16.8325H42.1922H41.9666C41.0641 16.8325 40.2744 16.033 40.2744 15.1194C40.2744 14.2057 41.0641 13.4063 41.9666 13.4063H42.1922C51.6685 13.4063 69.8315 13.4063 79.3078 13.4063C80.2103 13.4063 81 12.6068 81 11.6932V6.5539C81 5.64025 80.3231 4.84081 79.4206 4.84081Z" fill="#5600E3"/>
<path d="M16.6962 31.6794C20.9953 31.6794 24.4804 28.1513 24.4804 23.7992C24.4804 19.447 20.9953 15.9189 16.6962 15.9189C12.3972 15.9189 8.91211 19.447 8.91211 23.7992C8.91211 28.1513 12.3972 31.6794 16.6962 31.6794Z" fill="#2DFFB3"/>
<path d="M33.3925 49.9523H42.3048C44.2226 49.9523 45.6892 48.4676 45.6892 46.5261C45.6892 44.6988 44.2226 43.0999 42.3048 43.0999H36.5513C35.7616 43.0999 34.9719 42.8715 34.4078 42.3005L27.7518 36.7044C26.5109 35.6765 24.9315 35.1055 23.3521 35.1055C18.0499 35.1055 12.9733 35.1055 8.12232 35.1055H7.55825H7.33262C3.94822 35.1055 1.35352 37.5038 1.35352 40.4732V57.9467C1.35352 59.5456 2.82009 60.9161 4.73792 60.9161C5.97886 60.9161 7.107 60.2308 7.67107 59.3172V79.0748C7.67107 80.5595 8.57357 81.93 10.0401 82.2726C11.958 82.7294 13.6502 81.4732 13.9886 79.6459L16.2449 65.5985H17.373L19.6293 79.6459C19.9677 81.4732 21.6599 82.7294 23.5777 82.2726C25.0443 81.93 25.9468 80.5595 25.9468 79.0748C25.9468 67.0832 25.9468 56.462 25.9468 44.242L31.2491 49.0386C31.7003 49.7239 32.49 49.9523 33.3925 49.9523Z" fill="#2DFFB3"/>
</svg>
