<?xml version="1.0" encoding="utf-8"?>
<!-- Generator: Moho 13.0.2 build 610 -->
<!DOCTYPE svg PUBLIC "-//W3C//DTD SVG 1.1//EN" "http://www.w3.org/Graphics/SVG/1.1/DTD/svg11.dtd">
<svg version="1.1" id="Frame_0" xmlns="http://www.w3.org/2000/svg" xmlns:xlink="http://www.w3.org/1999/xlink" width="60px" height="60px">
<g id="icon-crm.svg">
<path fill="#2dffb3" fill-rule="evenodd" stroke="none" d="M 28.276 11.560 C 28.244 12.505 27.475 13.233 26.526 13.217 C 25.592 13.202 24.829 12.419 24.838 11.487 C 24.848 10.562 25.636 9.779 26.561 9.776 C 27.521 9.773 28.308 10.592 28.276 11.560 M 21.357 11.503 C 21.357 12.452 20.615 13.203 19.672 13.211 C 18.685 13.219 17.945 12.460 17.963 11.459 C 17.981 10.511 18.740 9.766 19.677 9.778 C 20.613 9.790 21.358 10.555 21.357 11.503 M 14.482 11.536 C 14.462 12.466 13.685 13.219 12.747 13.218 C 11.809 13.217 11.063 12.465 11.053 11.512 C 11.043 10.558 11.783 9.793 12.727 9.783 C 13.684 9.773 14.502 10.590 14.482 11.536 M 55.874 10.847 C 56.024 7.930 53.838 5.073 50.163 5.108 C 42.421 5.183 35.889 5.128 28.146 5.127 C 21.925 5.127 15.704 5.121 9.483 5.131 C 6.712 5.135 4.319 7.111 4.171 9.750 C 4.022 12.402 4.139 15.069 4.139 17.788 C 21.825 17.788 38.206 17.788 55.850 17.788 C 55.850 15.429 55.756 13.133 55.874 10.847 Z"/>
<path fill="#5600e3" fill-rule="evenodd" stroke="none" d="M 13.939 21.312 C 10.712 21.331 7.486 21.322 4.172 21.321 C 4.150 21.537 4.126 21.663 4.126 21.789 C 4.125 31.181 4.114 40.573 4.136 49.966 C 4.140 51.944 5.688 53.981 7.568 54.548 C 8.235 54.751 8.951 54.855 9.649 54.877 C 11.238 54.924 12.828 54.892 14.494 54.892 C 14.494 54.489 14.494 54.205 14.494 53.921 C 14.496 45.082 14.499 36.245 14.500 27.405 C 14.500 25.611 14.492 23.817 14.497 22.023 C 14.497 21.627 14.503 21.309 13.939 21.312 Z"/>
<path fill="#5600e3" fill-rule="evenodd" stroke="#000000" stroke-width="0" stroke-linecap="round" stroke-linejoin="round" d="M 51.027 45.412 C 51.027 46.486 50.153 47.364 49.085 47.364 C 41.139 47.363 33.193 47.363 25.247 47.364 C 24.179 47.364 23.305 46.486 23.305 45.412 C 23.305 44.339 24.178 43.461 25.247 43.461 C 33.193 43.460 41.139 43.460 49.085 43.461 C 50.153 43.461 51.027 44.338 51.027 45.412 M 51.027 37.387 C 51.027 38.461 50.153 39.338 49.085 39.338 C 41.139 39.338 33.193 39.338 25.247 39.338 C 24.179 39.338 23.305 38.461 23.305 37.387 C 23.305 36.314 24.178 35.435 25.247 35.435 C 33.193 35.435 41.139 35.435 49.085 35.435 C 50.153 35.435 51.027 36.313 51.027 37.387 M 51.027 29.362 C 51.027 30.435 50.153 31.313 49.085 31.313 C 41.139 31.313 33.193 31.313 25.247 31.313 C 24.179 31.313 23.305 30.435 23.305 29.362 C 23.305 28.289 24.178 27.410 25.247 27.410 C 33.193 27.410 41.139 27.410 49.085 27.410 C 50.153 27.410 51.027 28.288 51.027 29.362 M 55.849 22.109 C 55.849 21.857 55.826 21.606 55.815 21.363 C 42.758 21.363 31.012 21.363 18.010 21.363 C 18.010 32.550 18.011 43.688 18.010 54.854 C 18.229 54.869 18.382 54.889 18.536 54.890 C 29.667 54.893 39.585 54.907 50.715 54.886 C 53.562 54.881 55.847 52.512 55.848 49.655 C 55.854 40.472 55.851 31.291 55.849 22.109 Z"/>
</g>
</svg>
