<svg width="50" height="47" viewBox="0 0 50 47" fill="none" xmlns="http://www.w3.org/2000/svg">
<g clip-path="url(#clip0)">
<path d="M11.1669 16.4533C11.1669 12.3162 14.6027 8.94975 18.8251 8.94975H28.8636V3.68788C28.8627 1.65983 27.1696 0 25.0988 0H3.76385C1.69402 0 0 1.65983 0 3.68788V24.5922C0 26.6203 1.69402 28.2801 3.76385 28.2801H11.1669V16.4533Z" fill="#5600E3"/>
<path d="M46.2355 47.0002H18.8244C16.7546 47.0002 15.0605 45.3403 15.0605 43.3123V16.4535C15.0605 14.4255 16.7546 12.7656 18.8244 12.7656H46.2364C48.3063 12.7656 50.0003 14.4255 50.0003 16.4535V43.3123C49.9993 45.3403 48.3063 47.0002 46.2355 47.0002Z" fill="#5600E3"/>
<path d="M32.5305 40.7154C38.6366 40.7154 43.5865 35.8654 43.5865 29.8826C43.5865 23.8998 38.6366 19.0498 32.5305 19.0498C26.4245 19.0498 21.4746 23.8998 21.4746 29.8826C21.4746 35.8654 26.4245 40.7154 32.5305 40.7154Z" fill="white"/>
<path d="M32.5303 36.1237C36.0484 36.1237 38.9004 33.3293 38.9004 29.8822C38.9004 26.4351 36.0484 23.6406 32.5303 23.6406C29.0122 23.6406 26.1602 26.4351 26.1602 29.8822C26.1602 33.3293 29.0122 36.1237 32.5303 36.1237Z" fill="#2DFFB3"/>
</g>
<defs>
<clipPath id="clip0">
<rect width="50" height="47" fill="white"/>
</clipPath>
</defs>
</svg>
