<?xml version="1.0" encoding="utf-8"?>
<!-- Generator: Moho 13.0.2 build 610 -->
<!DOCTYPE svg PUBLIC "-//W3C//DTD SVG 1.1//EN" "http://www.w3.org/Graphics/SVG/1.1/DTD/svg11.dtd">
<svg version="1.1" id="Frame_0" xmlns="http://www.w3.org/2000/svg" xmlns:xlink="http://www.w3.org/1999/xlink" width="60px" height="60px">
<g id="icon-setup.svg">
<path fill="#5600e3" fill-rule="evenodd" stroke="none" d="M 57.437 50.426 C 57.436 48.756 57.436 47.087 57.437 45.419 C 38.964 45.418 20.492 45.418 2.021 45.419 C 2.021 47.087 2.021 48.756 2.021 50.426 C 2.021 52.360 3.516 53.839 5.470 53.839 C 21.642 53.838 37.814 53.838 53.987 53.839 C 55.941 53.839 57.437 52.360 57.437 50.426 M 33.523 48.491 C 34.213 48.491 34.672 48.946 34.672 49.629 C 34.672 50.311 34.213 50.767 33.523 50.767 C 30.974 50.766 28.426 50.766 25.877 50.767 C 25.187 50.767 24.727 50.311 24.727 49.629 C 24.727 48.946 25.187 48.491 25.877 48.491 C 28.426 48.490 30.974 48.490 33.523 48.491 Z"/>
<path fill="#5600e3" fill-rule="evenodd" stroke="none" d="M 54.676 42.061 C 54.676 31.820 54.676 21.580 54.676 11.339 C 54.714 11.339 54.752 11.339 54.792 11.339 C 54.792 9.405 53.297 7.926 51.342 7.926 C 36.933 7.926 22.523 7.926 8.114 7.926 C 6.160 7.926 4.665 9.405 4.665 11.339 C 4.665 21.580 4.665 31.820 4.665 42.061 C 21.336 42.061 38.005 42.061 54.676 42.061 M 50.078 12.477 C 50.077 20.783 50.077 29.090 50.078 37.396 C 50.116 37.396 50.154 37.396 50.193 37.396 C 36.569 37.396 22.945 37.396 9.321 37.396 C 9.321 29.090 9.321 20.783 9.321 12.477 C 22.907 12.477 36.492 12.477 50.078 12.477 Z"/>
<path fill="#2dffb3" fill-rule="evenodd" stroke="none" d="M 32.373 30.910 C 32.603 31.479 33.407 31.593 33.638 31.024 C 34.097 30.151 34.557 29.279 35.017 28.407 C 36.742 30.114 38.466 31.820 40.191 33.527 C 41.186 32.541 42.183 31.555 43.180 30.569 C 41.455 28.861 39.730 27.155 38.006 25.448 C 38.888 24.993 39.769 24.538 40.651 24.083 C 41.225 23.856 41.110 23.059 40.535 22.832 C 36.722 21.504 32.910 20.176 29.096 18.849 C 28.521 18.621 27.946 19.190 28.177 19.759 C 29.575 23.477 30.974 27.193 32.373 30.910 Z"/>
</g>
</svg>
