<svg id="ewYBkNP5qpl1" xmlns="http://www.w3.org/2000/svg" xmlns:xlink="http://www.w3.org/1999/xlink" viewBox="0 0 60 60" shape-rendering="geometricPrecision" text-rendering="geometricPrecision"><style><![CDATA[#ewYBkNP5qpl1{pointer-events: all}#ewYBkNP5qpl1.hover #ewYBkNP5qpl2_ts {animation: ewYBkNP5qpl2_ts__ts 6000ms linear infinite normal forwards}@keyframes ewYBkNP5qpl2_ts__ts { 0% {transform: translate(29.999500px,52.956499px) scale(1,1)} 78.333333% {transform: translate(29.999500px,52.956499px) scale(1,1)} 81.666667% {transform: translate(29.999500px,52.956499px) scale(1.080125,0.884373)} 85% {transform: translate(29.999500px,52.956499px) scale(0.955425,1.076866)} 88.333333% {transform: translate(29.999500px,52.956499px) scale(1,1)} 100% {transform: translate(29.999500px,52.956499px) scale(1,1)}} #ewYBkNP5qpl1.hover #ewYBkNP5qpl6_to {animation: ewYBkNP5qpl6_to__to 6000ms linear infinite normal forwards}@keyframes ewYBkNP5qpl6_to__to { 0% {transform: translate(35.652338px,26.162229px)} 25% {transform: translate(15.368885px,18.834393px)} 50% {transform: translate(40.459398px,17.368826px)} 75% {transform: translate(35.652338px,26.162229px)} 100% {transform: translate(35.652338px,26.162229px)}} #ewYBkNP5qpl1.hover #ewYBkNP5qpl6_ts {animation: ewYBkNP5qpl6_ts__ts 6000ms linear infinite normal forwards}@keyframes ewYBkNP5qpl6_ts__ts { 0% {transform: scale(1,1)} 25% {transform: scale(0.507234,0.507234)} 50% {transform: scale(0.507234,0.507234)} 75% {transform: scale(1,1)} 100% {transform: scale(1,1)}}]]></style><g id="ewYBkNP5qpl2_ts" transform="translate(29.999500,52.956499) scale(1,1)"><g id="ewYBkNP5qpl2" transform="translate(-29.728500,-53.839000)"><g id="ewYBkNP5qpl3"><path id="ewYBkNP5qpl4" d="M57.437000,50.426000C57.436000,48.756000,57.436000,47.087000,57.437000,45.419000C38.964000,45.418000,20.492000,45.418000,2.021000,45.419000C2.021000,47.087000,2.021000,48.756000,2.021000,50.426000C2.021000,52.360000,3.516000,53.839000,5.470000,53.839000C21.642000,53.838000,37.814000,53.838000,53.987000,53.839000C55.941000,53.839000,57.437000,52.360000,57.437000,50.426000M33.523000,48.491000C34.213000,48.491000,34.672000,48.946000,34.672000,49.629000C34.672000,50.311000,34.213000,50.767000,33.523000,50.767000C30.974000,50.766000,28.426000,50.766000,25.877000,50.767000C25.187000,50.767000,24.727000,50.311000,24.727000,49.629000C24.727000,48.946000,25.187000,48.491000,25.877000,48.491000C28.426000,48.490000,30.974000,48.490000,33.523000,48.491000Z" fill="rgb(86,0,227)" fill-rule="evenodd" stroke="none" stroke-width="1"/><path id="ewYBkNP5qpl5" d="M54.676000,42.061000C54.676000,31.820000,54.676000,21.580000,54.676000,11.339000C54.714000,11.339000,54.752000,11.339000,54.792000,11.339000C54.792000,9.405000,53.297000,7.926000,51.342000,7.926000C36.933000,7.926000,22.523000,7.926000,8.114000,7.926000C6.160000,7.926000,4.665000,9.405000,4.665000,11.339000C4.665000,21.580000,4.665000,31.820000,4.665000,42.061000C21.336000,42.061000,38.005000,42.061000,54.676000,42.061000M50.078000,12.477000C50.077000,20.783000,50.077000,29.090000,50.078000,37.396000C50.116000,37.396000,50.154000,37.396000,50.193000,37.396000C36.569000,37.396000,22.945000,37.396000,9.321000,37.396000C9.321000,29.090000,9.321000,20.783000,9.321000,12.477000C22.907000,12.477000,36.492000,12.477000,50.078000,12.477000Z" fill="rgb(86,0,227)" fill-rule="evenodd" stroke="none" stroke-width="1"/></g><g id="ewYBkNP5qpl6_to" transform="translate(35.652338,26.162229)"><g id="ewYBkNP5qpl6_ts" transform="scale(1,1)"><path id="ewYBkNP5qpl6" d="M32.373000,30.910000C32.603000,31.479000,33.407000,31.593000,33.638000,31.024000C34.097000,30.151000,34.557000,29.279000,35.017000,28.407000C36.742000,30.114000,38.466000,31.820000,40.191000,33.527000C41.186000,32.541000,42.183000,31.555000,43.180000,30.569000C41.455000,28.861000,39.730000,27.155000,38.006000,25.448000C38.888000,24.993000,39.769000,24.538000,40.651000,24.083000C41.225000,23.856000,41.110000,23.059000,40.535000,22.832000C36.722000,21.504000,32.910000,20.176000,29.096000,18.849000C28.521000,18.621000,27.946000,19.190000,28.177000,19.759000C29.575000,23.477000,30.974000,27.193000,32.373000,30.910000Z" transform="translate(-35.652338,-26.162229)" fill="rgb(45,255,179)" fill-rule="evenodd" stroke="none" stroke-width="1"/></g></g></g></g></svg>