<svg id="eQE1ygmf0pH1" xmlns="http://www.w3.org/2000/svg" xmlns:xlink="http://www.w3.org/1999/xlink" viewBox="0 0 60 60" shape-rendering="geometricPrecision" text-rendering="geometricPrecision"><style><![CDATA[#eQE1ygmf0pH1{pointer-events: all}#eQE1ygmf0pH1.hover #eQE1ygmf0pH3_to {animation: eQE1ygmf0pH3_to__to 7500ms linear infinite normal forwards}@keyframes eQE1ygmf0pH3_to__to { 0% {transform: translate(28.090828px,28.318872px)} 10.666667% {transform: translate(39.178487px,37.598258px)} 100% {transform: translate(39.178487px,37.598258px)}} #eQE1ygmf0pH1.hover #eQE1ygmf0pH3 {animation: eQE1ygmf0pH3_c_o 7500ms linear infinite normal forwards}@keyframes eQE1ygmf0pH3_c_o { 0% {opacity: 1} 9.333333% {opacity: 0} 100% {opacity: 0}} #eQE1ygmf0pH1.hover #eQE1ygmf0pH5_to {animation: eQE1ygmf0pH5_to__to 7500ms linear infinite normal forwards}@keyframes eQE1ygmf0pH5_to__to { 0% {transform: translate(19.571987px,22.318690px)} 6.666667% {transform: translate(19.571987px,22.318690px)} 22.666667% {transform: translate(28.088043px,28.318738px)} 46.666667% {transform: translate(28.088043px,28.318738px)} 57.333333% {transform: translate(39.178487px,37.598258px)} 100% {transform: translate(39.178487px,37.598258px)}} #eQE1ygmf0pH1.hover #eQE1ygmf0pH5 {animation: eQE1ygmf0pH5_c_o 7500ms linear infinite normal forwards}@keyframes eQE1ygmf0pH5_c_o { 0% {opacity: 1} 46.666667% {opacity: 1} 56% {opacity: 0} 100% {opacity: 0}} #eQE1ygmf0pH1.hover #eQE1ygmf0pH6_to {animation: eQE1ygmf0pH6_to__to 7500ms linear infinite normal forwards}@keyframes eQE1ygmf0pH6_to__to { 0% {transform: translate(-25.779254px,-4.681158px)} 20% {transform: translate(13.439288px,17.637582px)} 22.666667% {transform: translate(15.243023px,19.014379px)} 38.666667% {transform: translate(19.571987px,22.318690px)} 57.333333% {transform: translate(19.571987px,22.318690px)} 73.333333% {transform: translate(28.088043px,28.318738px)} 100% {transform: translate(28.088043px,28.318738px)}} #eQE1ygmf0pH1.hover #eQE1ygmf0pH6 {
           animation-name: eQE1ygmf0pH6_c_o, eQE1ygmf0pH6_f_p;
           animation-duration: 7500ms;
           animation-fill-mode: forwards;
           animation-timing-function: linear;
           animation-direction: normal;
           animation-iteration-count: infinite;  
        }@keyframes eQE1ygmf0pH6_c_o { 0% {opacity: 0} 14.666667% {opacity: 0} 20% {opacity: 1} 100% {opacity: 1}}@keyframes eQE1ygmf0pH6_f_p { 0% {fill: rgb(45,255,179)} 22.666667% {fill: rgb(45,255,179)} 25.333333% {fill: rgb(45,255,179)} 100% {fill: rgb(45,255,179)}} #eQE1ygmf0pH1.hover #eQE1ygmf0pH7_to {animation: eQE1ygmf0pH7_to__to 7500ms linear infinite normal forwards}@keyframes eQE1ygmf0pH7_to__to { 0% {transform: translate(-25.779254px,-4.681158px)} 33.333333% {transform: translate(-25.779254px,-4.681158px)} 72% {transform: translate(13.439288px,17.637582px)} 73.333333% {transform: translate(13.439288px,17.637582px)} 89.333333% {transform: translate(19.571987px,22.318690px)} 100% {transform: translate(19.571987px,22.318690px)}} #eQE1ygmf0pH1.hover #eQE1ygmf0pH7 {animation: eQE1ygmf0pH7_c_o 7500ms linear infinite normal forwards}@keyframes eQE1ygmf0pH7_c_o { 0% {opacity: 0} 69.333333% {opacity: 0} 70.666667% {opacity: 1} 100% {opacity: 1}}]]></style><g id="eQE1ygmf0pH2" transform="matrix(1 0 0 1 6.16995097000000 4.68115597500000)"><g id="eQE1ygmf0pH3_to" transform="translate(28.090828,28.318872)"><path id="eQE1ygmf0pH3" d="M45.060000,9.830000C42.976351,7.431467,39.966968,6.037762,36.790000,6L19.220000,6C16.587850,6.009650,14.363212,7.953012,14,10.560000Q11.240000,28.800000,8.520000,47C8.393869,47.836781,8.605393,48.689390,9.108017,49.370183C9.610641,50.050977,10.363175,50.504161,11.200000,50.630000C11.356497,50.640324,11.513503,50.640324,11.670000,50.630000L19.820000,50.630000C20.311160,50.615556,20.726618,50.262417,20.820000,49.780000Q22.320000,42.780000,23.820000,35.780000L32.510000,35.780000C40.060000,35.780000,45.050000,30.490000,47.340000,20.040000C47.430000,19.620000,47.500000,19.200000,47.550000,18.770000C48.079212,15.568604,47.167960,12.296881,45.060000,9.830000Z" transform="translate(-28.090828,-28.318872)" fill="rgb(45,255,179)" fill-rule="evenodd" stroke="none" stroke-width="1"/></g><path id="eQE1ygmf0pH4" display="none" d="M45.060000,9.830000C42.976351,7.431467,39.966968,6.037762,36.790000,6L19.220000,6C16.587850,6.009650,14.363212,7.953012,14,10.560000Q11.240000,28.800000,8.520000,47C8.393869,47.836781,8.605393,48.689390,9.108017,49.370183C9.610641,50.050977,10.363175,50.504161,11.200000,50.630000C11.356497,50.640324,11.513503,50.640324,11.670000,50.630000L19.820000,50.630000C20.311160,50.615556,20.726618,50.262417,20.820000,49.780000Q22.320000,42.780000,23.820000,35.780000L32.510000,35.780000C40.060000,35.780000,45.050000,30.490000,47.340000,20.040000C47.430000,19.620000,47.500000,19.200000,47.550000,18.770000C48.079212,15.568604,47.167960,12.296881,45.060000,9.830000Z" fill="rgb(45,255,179)" fill-rule="evenodd" stroke="none" stroke-width="1"/><g id="eQE1ygmf0pH5_to" transform="translate(19.571987,22.318690)"><path id="eQE1ygmf0pH5" d="M36.580000,3.790000C34.482080,1.409997,31.472480,0.032415,28.300000,0L10.740000,0C8.104737,-0.011744,5.864305,1.921429,5.490000,4.530000Q2.760000,22.770000,0,41C-0.129056,41.835689,0.080042,42.688366,0.581072,43.369542C1.082102,44.050717,1.833801,44.504292,2.670000,44.630000C2.829847,44.639906,2.990153,44.639906,3.150000,44.630000L11.290000,44.630000C11.779749,44.611906,12.193242,44.260436,12.290000,43.780000L15.290000,29.780000L23.980000,29.780000C31.530000,29.780000,36.530000,24.490000,38.810000,14.040000C38.900000,13.620000,38.970000,13.200000,39.020000,12.770000C39.575187,9.563098,38.681754,6.274971,36.580000,3.790000Z" transform="translate(-19.571987,-22.318690)" fill="rgb(86,0,227)" fill-rule="evenodd" stroke="none" stroke-width="1"/></g><g id="eQE1ygmf0pH6_to" transform="translate(-25.779254,-4.681158)"><path id="eQE1ygmf0pH6" d="M36.580000,3.790000C34.482080,1.409997,31.472480,0.032415,28.300000,0L10.740000,0C8.104737,-0.011744,5.864305,1.921429,5.490000,4.530000Q2.760000,22.770000,0,41C-0.129056,41.835689,0.080042,42.688366,0.581072,43.369542C1.082102,44.050717,1.833801,44.504292,2.670000,44.630000C2.829847,44.639906,2.990153,44.639906,3.150000,44.630000L11.290000,44.630000C11.779749,44.611906,12.193242,44.260436,12.290000,43.780000L15.290000,29.780000L23.980000,29.780000C31.530000,29.780000,36.530000,24.490000,38.810000,14.040000C38.900000,13.620000,38.970000,13.200000,39.020000,12.770000C39.575187,9.563098,38.681754,6.274971,36.580000,3.790000Z" transform="translate(-19.571987,-22.318690)" opacity="0" fill="rgb(45,255,179)" fill-rule="evenodd" stroke="none" stroke-width="1"/></g><g id="eQE1ygmf0pH7_to" transform="translate(-25.779254,-4.681158)"><path id="eQE1ygmf0pH7" d="M36.580000,3.790000C34.482080,1.409997,31.472480,0.032415,28.300000,0L10.740000,0C8.104737,-0.011744,5.864305,1.921429,5.490000,4.530000Q2.760000,22.770000,0,41C-0.129056,41.835689,0.080042,42.688366,0.581072,43.369542C1.082102,44.050717,1.833801,44.504292,2.670000,44.630000C2.829847,44.639906,2.990153,44.639906,3.150000,44.630000L11.290000,44.630000C11.779749,44.611906,12.193242,44.260436,12.290000,43.780000L15.290000,29.780000L23.980000,29.780000C31.530000,29.780000,36.530000,24.490000,38.810000,14.040000C38.900000,13.620000,38.970000,13.200000,39.020000,12.770000C39.575187,9.563098,38.681754,6.274971,36.580000,3.790000Z" transform="translate(-19.571987,-22.318690)" opacity="0" fill="rgb(86,0,227)" fill-rule="evenodd" stroke="none" stroke-width="1"/></g></g></svg>