<svg id="eeDGStJ4CBc1" xmlns="http://www.w3.org/2000/svg" xmlns:xlink="http://www.w3.org/1999/xlink" viewBox="0 0 60 60" shape-rendering="geometricPrecision" text-rendering="geometricPrecision"><style><![CDATA[#eeDGStJ4CBc1{pointer-events: all}#eeDGStJ4CBc1.hover #eeDGStJ4CBc2_ts {animation: eeDGStJ4CBc2_ts__ts 6000ms linear infinite normal forwards}@keyframes eeDGStJ4CBc2_ts__ts { 0% {transform: translate(30px,30px) scale(1,1)} 5% {transform: translate(30px,30px) scale(1,1)} 8.333333% {transform: translate(30px,30px) scale(1.086207,0.882564)} 11.666667% {transform: translate(30px,30px) scale(0.953571,1.037998)} 15% {transform: translate(30px,30px) scale(1,1)} 100% {transform: translate(30px,30px) scale(1,1)}} #eeDGStJ4CBc1.hover #eeDGStJ4CBc5_to {animation: eeDGStJ4CBc5_to__to 6000ms linear infinite normal forwards}@keyframes eeDGStJ4CBc5_to__to { 0% {transform: translate(29.950000px,16.050001px)} 18.333333% {transform: translate(29.950000px,16.050001px)} 41.666667% {transform: translate(15.118458px,16.050001px)} 66.666667% {transform: translate(44.605673px,16.050001px)} 91.666667% {transform: translate(29.950000px,16.050001px)} 100% {transform: translate(29.950000px,16.050001px)}}]]></style><g id="eeDGStJ4CBc2_ts" transform="translate(30,30) scale(1,1)"><g id="eeDGStJ4CBc2" transform="translate(-29.950000,-28.349999)"><path id="eeDGStJ4CBc3" d="M55,4.600000C52.400000,4.600000,49.900000,4.600000,47.300000,4.600000C44.800000,4.600000,42.300000,4.600000,39.800000,4.600000L20.100000,4.600000C15.100000,4.600000,10,4.600000,5,4.600000C4.300000,4.600000,3.700000,5.200000,3.700000,5.800000C3.700000,8.600000,3.700000,11.500000,3.700000,14.300000C9.200000,14.300000,14.600000,14.300000,20.100000,14.300000L39.800000,14.300000C42.300000,14.300000,44.800000,14.300000,47.300000,14.300000C47.300000,14.300000,47.300000,14.300000,47.300000,14.300000C50.300000,14.300000,53.200000,14.300000,56.200000,14.300000C56.200000,11.500000,56.200000,8.600000,56.200000,5.800000C56.200000,5.200000,55.600000,4.600000,55,4.600000Z" clip-rule="evenodd" fill="rgb(86,0,227)" fill-rule="evenodd" stroke="none" stroke-width="1"/><path id="eeDGStJ4CBc4" d="M45.600000,16.800000C43.700000,16.800000,41.700000,16.800000,39.800000,16.800000L20.100000,16.800000C19.500000,16.800000,18.800000,16.800000,18.200000,16.800000C13.400000,16.800000,8.600000,16.800000,3.700000,16.800000C3.700000,29.400000,3.700000,42,3.700000,54.600000C3.700000,55.300000,4.300000,55.800000,4.900000,55.800000C21.600000,55.800000,38.200000,55.800000,54.900000,55.800000C55.600000,55.800000,56.100000,55.200000,56.100000,54.600000C56.100000,42,56.100000,29.400000,56.100000,16.800000C52.700000,16.800000,49.100000,16.800000,45.600000,16.800000Z" clip-rule="evenodd" fill="rgb(86,0,227)" fill-rule="evenodd" stroke="none" stroke-width="1"/><g id="eeDGStJ4CBc5_to" transform="translate(29.950000,16.050001)"><g id="eeDGStJ4CBc5" transform="translate(-29.950000,-16.050001)"><polygon id="eeDGStJ4CBc6" points="20.100000,31.200000 30,24.800000 39.800000,31.200000 39.800000,0.900000 20.100000,0.900000" clip-rule="evenodd" fill="rgb(255,255,255)" fill-rule="evenodd" stroke="none" stroke-width="1"/><path id="eeDGStJ4CBc7" d="M37,26C34.700000,24.500000,32.300000,22.900000,30,21.400000C27.700000,22.900000,25.300000,24.500000,23,26C23,18.500000,23,10.900000,23,3.400000C27.700000,3.400000,32.300000,3.400000,37,3.400000C37,10.900000,37,18.500000,37,26Z" clip-rule="evenodd" fill="rgb(45,255,179)" fill-rule="evenodd" stroke="none" stroke-width="1"/></g></g><g id="eeDGStJ4CBc8"><path id="eeDGStJ4CBc9" d="M19.800000,45.900000C15.900000,45.900000,11.900000,45.900000,8,45.900000C8,47.800000,8,49.800000,8,51.700000C11.900000,51.700000,15.900000,51.700000,19.800000,51.700000C19.800000,49.800000,19.800000,47.800000,19.800000,45.900000Z" clip-rule="evenodd" fill="rgb(255,255,255)" fill-rule="evenodd" stroke="none" stroke-width="1"/><path id="eeDGStJ4CBc10" d="M19.800000,41.900000C15.900000,41.900000,11.900000,41.900000,8,41.900000C8,42.600000,8,43.300000,8,44.100000C11.900000,44.100000,15.900000,44.100000,19.800000,44.100000C19.800000,43.300000,19.800000,42.600000,19.800000,41.900000Z" clip-rule="evenodd" fill="rgb(255,255,255)" fill-rule="evenodd" stroke="none" stroke-width="1"/></g></g></g></svg>