<svg id="eB0789P2OjH1" xmlns="http://www.w3.org/2000/svg" xmlns:xlink="http://www.w3.org/1999/xlink" viewBox="0 0 40 40" shape-rendering="geometricPrecision" text-rendering="geometricPrecision"><style><![CDATA[#eB0789P2OjH1{pointer-events: all}#eB0789P2OjH1.hover #eB0789P2OjH2_to {animation: eB0789P2OjH2_to__to 2000ms linear 1 normal forwards}@keyframes eB0789P2OjH2_to__to { 0% {transform: translate(27.237278px,29.029106px)} 5% {transform: translate(27.237278px,29.029106px);animation-timing-function: step-end} 10% {transform: translate(4.745924px,37.802330px)} 25% {transform: translate(26.636296px,27.977388px)} 35% {transform: translate(27.237278px,29.029106px)} 65% {transform: translate(27.237278px,29.029106px)} 70% {transform: translate(26.541799px,28.333627px)} 75% {transform: translate(27.535341px,28.830398px)} 85% {transform: translate(27.237278px,29.029106px)} 100% {transform: translate(27.237278px,29.029106px)}} #eB0789P2OjH1.hover #eB0789P2OjH2_ts {animation: eB0789P2OjH2_ts__ts 2000ms linear 1 normal forwards}@keyframes eB0789P2OjH2_ts__ts { 0% {transform: scale(0.978216,0.978216)} 5% {transform: scale(0.978216,0.978216);animation-timing-function: step-end} 10% {transform: scale(0.033629,0.033629)} 25% {transform: scale(1.118620,1.118620)} 35% {transform: scale(0.978216,0.978216)} 65% {transform: scale(0.978216,0.978216)} 70% {transform: scale(0.821962,0.821962)} 75% {transform: scale(1.019854,1.019854)} 85% {transform: scale(0.978216,0.978216)} 100% {transform: scale(0.978216,0.978216)}} #eB0789P2OjH1.hover #eB0789P2OjH3_to {animation: eB0789P2OjH3_to__to 2000ms linear 1 normal forwards}@keyframes eB0789P2OjH3_to__to { 0% {transform: translate(16.047744px,16.997856px)} 5% {transform: translate(16.047744px,16.997856px);animation-timing-function: step-end} 10% {transform: translate(22.273168px,21.513988px)} 35% {transform: translate(22.210962px,21.513988px)} 45% {transform: translate(15.972606px,16.352954px)} 55% {transform: translate(16.047744px,16.997856px)} 100% {transform: translate(16.047744px,16.997856px)}} #eB0789P2OjH1.hover #eB0789P2OjH3_ts {animation: eB0789P2OjH3_ts__ts 2000ms linear 1 normal forwards}@keyframes eB0789P2OjH3_ts__ts { 0% {transform: scale(1.064484,1.064484)} 5% {transform: scale(1.064484,1.064484);animation-timing-function: step-end} 10% {transform: scale(0.288697,0.288697)} 35% {transform: scale(0.233847,0.252684)} 45% {transform: scale(1.132103,1.132103)} 55% {transform: scale(1.064484,1.064484)} 100% {transform: scale(1.064484,1.064484)}}]]></style><g id="eB0789P2OjH2_to" transform="translate(27.237278,29.029106)"><g id="eB0789P2OjH2_ts" transform="scale(0.978216,0.978216)"><g id="eB0789P2OjH2" transform="translate(-27.392491,-27.789980)"><g id="eB0789P2OjH3_to" transform="translate(16.047744,16.997856)"><g id="eB0789P2OjH3_ts" transform="scale(1.064484,1.064484)"><g id="eB0789P2OjH3" transform="translate(-17.080310,-17.213001)"><path id="eB0789P2OjH4" d="M10.693920,7.212210C9.103510,7.212210,7.513880,7.212210,5.924240,7.212210C5.924240,6.389560,5.924240,5.566910,5.924240,4.744260C7.513870,4.744260,9.103510,4.744260,10.693920,4.744260C10.693920,5.566910,10.693920,6.389560,10.693920,7.212210Z" transform="matrix(1 0 0 1 3.49527700000000 3.57346500000000)" fill="rgb(86,0,227)" fill-rule="evenodd" stroke="none" stroke-width="1"/><path id="eB0789P2OjH5" d="M11.023000,20.045000C10.180000,20.045000,9.485000,19.318000,9.485000,18.441000C9.485000,16.308000,9.485000,14.174000,9.485000,12.041000C9.485000,11.164000,10.180000,10.437000,11.023000,10.437000C14.105000,10.437000,17.186000,10.437000,20.268000,10.437000C21.128000,10.437000,21.806000,11.148000,21.806000,12.041000C21.806000,14.174000,21.806000,16.308000,21.806000,18.441000C21.806000,19.318000,21.111000,20.045000,20.268000,20.045000C17.186000,20.045000,14.105000,20.045000,11.023000,20.045000M24.899000,18.441000C24.899000,17.565000,25.593000,16.837000,26.437000,16.837000C29.518000,16.837000,32.600000,16.837000,35.682000,16.837000C36.542000,16.837000,37.220000,17.548000,37.220000,18.441000C37.220000,19.318000,36.525000,20.045000,35.682000,20.045000C32.600000,20.045000,29.518000,20.045000,26.437000,20.045000C25.593000,20.045000,24.899000,19.334000,24.899000,18.441000M24.899000,12.057000C24.899000,11.164000,25.593000,10.453000,26.437000,10.453000C29.518000,10.453000,32.600000,10.453000,35.682000,10.453000C36.542000,10.453000,37.220000,11.164000,37.220000,12.057000C37.220000,12.934000,36.525000,13.662000,35.682000,13.662000C32.600000,13.661000,29.518000,13.661000,26.437000,13.662000C25.593000,13.662000,24.899000,12.950000,24.899000,12.057000M23.013000,40.437000C23.019000,40.437000,23.024000,40.437000,23.030000,40.437000C23.013000,42.791000,23.013000,45.145000,23.013000,47.499000C23.013000,47.962000,23.079000,48.392000,23.162000,48.822000C21.685000,48.822000,20.207000,48.822000,18.730000,48.822000C14.772000,48.822000,10.813000,48.822000,6.855000,48.822000C5.119000,48.822000,3.663000,47.549000,3.333000,45.845000C3.300000,45.614000,3.267000,45.366000,3.267000,45.101000C3.266000,38.882000,3.267000,32.664000,3.267000,26.446000C3.267000,20.227000,3.267000,14.009000,3.267000,7.790000C3.267000,5.723000,4.887000,4.053000,6.872000,4.053000C17.842000,4.053000,28.813000,4.053000,39.783000,4.053000C41.768000,4.053000,43.389000,5.740000,43.389000,7.790000C43.388000,12.675000,43.388000,17.559000,43.389000,22.443000C40.819000,22.443000,38.250000,22.443000,35.682000,22.443000C33.509000,22.443000,31.337000,22.443000,29.166000,22.443000C23.294000,22.443000,17.423000,22.443000,11.552000,22.443000C10.709000,22.443000,10.014000,23.171000,10.014000,24.048000C10.014000,24.941000,10.709000,25.652000,11.552000,25.652000C15.648000,25.652000,19.744000,25.652000,23.840000,25.652000C23.344000,26.545000,23.030000,27.587000,23.030000,28.695000C23.030000,29.020000,23.030000,29.345000,23.030000,29.671000C19.204000,29.670000,15.378000,29.670000,11.552000,29.671000C10.709000,29.671000,10.014000,30.398000,10.014000,31.275000C10.014000,32.168000,10.709000,32.879000,11.552000,32.879000C15.378000,32.879000,19.204000,32.879000,23.030000,32.879000C23.030000,34.329000,23.030000,35.779000,23.030000,37.229000C19.204000,37.228000,15.378000,37.228000,11.552000,37.229000C10.709000,37.229000,10.014000,37.956000,10.014000,38.833000C10.014000,39.726000,10.709000,40.437000,11.552000,40.437000C15.378000,40.437000,19.204000,40.437000,23.030000,40.437000Z" transform="matrix(0.69767030202892 0 0 0.69767030202892 0.80521112000000 -1.23165770999998)" fill="rgb(86,0,227)" fill-rule="evenodd" stroke="none" stroke-width="1"/></g></g></g><path id="eB0789P2OjH6" d="M50.007019,34.566000C50.007019,35.541000,49.246019,36.335000,48.304019,36.335000C43.766019,36.335000,39.229019,36.335000,34.692019,36.335000C33.750019,36.335000,32.989019,35.541000,32.989019,34.566000C32.989019,33.590000,33.750019,32.796000,34.692019,32.796000C39.229019,32.796000,43.766019,32.796000,48.304019,32.796000C49.246019,32.796000,50.007019,33.590000,50.007019,34.566000M46.269019,41.627000C46.253019,42.603000,45.492019,43.397000,44.566019,43.397000C41.280019,43.397000,37.994019,43.397000,34.709019,43.397000C33.766019,43.397000,33.006019,42.603000,33.006019,41.627000C33.006019,40.652000,33.766019,39.858000,34.709019,39.858000C37.994019,39.857000,41.280019,39.857000,44.566019,39.858000C45.509019,39.858000,46.269019,40.652000,46.269019,41.627000M56.804019,28.694000C56.804019,27.074000,55.531019,25.751000,53.976019,25.751000C45.657019,25.750000,37.338019,25.750000,29.020019,25.751000C27.449019,25.751000,26.192019,27.074000,26.192019,28.694000C26.192019,34.962000,26.192019,41.230000,26.192019,47.499000C26.192019,49.119000,27.465019,50.442000,29.020019,50.442000C30.343019,50.442000,31.666019,50.442000,32.989019,50.442000C32.989019,52.283000,32.989019,54.124000,32.989019,55.966000C32.989019,57.587000,34.907019,58.331000,35.949019,57.157000C37.934019,54.918000,39.918019,52.680000,41.903019,50.442000C45.927019,50.442000,49.951019,50.442000,53.976019,50.442000C55.547019,50.442000,56.804019,49.119000,56.804019,47.499000C56.804019,41.230000,56.804019,34.962000,56.804019,28.694000Z" transform="matrix(0.68263629884271 0 0 0.68263629884271 -0.02711678330006 -1.03947170746381)" fill="rgb(45,255,179)" fill-rule="evenodd" stroke="none" stroke-width="1"/></g></g></g></svg>