<?xml version="1.0" encoding="utf-8"?>
<!-- Generator: Moho 13.0.2 build 610 -->
<!DOCTYPE svg PUBLIC "-//W3C//DTD SVG 1.1//EN" "http://www.w3.org/Graphics/SVG/1.1/DTD/svg11.dtd">
<svg version="1.1" id="Frame_0" xmlns="http://www.w3.org/2000/svg" xmlns:xlink="http://www.w3.org/1999/xlink" width="60px" height="60px">
<g id="Frame_(1).svg">
<path fill="#5600e3" fill-rule="evenodd" stroke="none" d="M 32.422 388.278 C 32.422 400.500 32.422 412.722 32.422 424.945 C 32.422 426.524 31.146 427.787 29.550 427.787 C 22.559 427.786 15.568 427.786 8.577 427.787 C 7.027 427.787 5.750 426.614 5.705 425.126 C 5.705 412.843 5.704 400.560 5.705 388.278 C 5.705 387.376 6.388 386.699 7.300 386.699 C 7.878 386.699 8.455 386.699 9.033 386.699 C 9.352 386.699 9.671 386.879 9.808 387.195 C 10.537 388.729 12.088 389.811 13.911 389.811 C 17.346 389.811 20.781 389.811 24.216 389.811 C 26.039 389.811 27.635 388.729 28.319 387.195 C 28.456 386.879 28.775 386.699 29.094 386.699 C 29.671 386.699 30.249 386.699 30.827 386.699 C 31.693 386.699 32.422 387.421 32.422 388.278 M 35.568 388.278 C 35.568 385.662 33.425 383.542 30.827 383.542 C 22.984 383.542 15.142 383.542 7.300 383.542 C 4.656 383.542 2.513 385.662 2.513 388.278 C 2.513 403.086 2.513 417.894 2.513 432.703 C 2.513 435.183 4.565 437.213 7.072 437.213 C 15.051 437.212 23.030 437.212 31.009 437.213 C 33.517 437.213 35.568 435.183 35.568 432.703 C 35.568 417.894 35.568 403.086 35.568 388.278 Z"/>
<path fill="#f9fbfc" fill-rule="evenodd" stroke="none" d="M 19.063 434.101 C 19.930 434.101 20.659 433.379 20.659 432.522 C 20.659 431.665 19.929 430.944 19.063 430.944 C 18.197 430.944 17.467 431.665 17.467 432.522 C 17.467 433.379 18.151 434.101 19.063 434.101 Z"/>
<path fill="#2dffb3" fill-rule="evenodd" stroke="none" d="M 53.806 421.833 C 43.243 421.833 32.681 421.833 22.119 421.833 C 20.386 421.833 18.927 420.435 18.927 418.676 C 18.927 412.106 18.927 405.536 18.927 398.967 C 18.927 397.253 20.340 395.810 22.119 395.810 C 32.681 395.809 43.243 395.809 53.806 395.810 C 55.539 395.810 56.998 397.208 56.998 398.967 C 56.997 405.536 56.997 412.106 56.998 418.676 C 56.998 420.390 55.584 421.833 53.806 421.833 Z"/>
<path fill="#5600e3" fill-rule="evenodd" stroke="none" d="M 27.726 407.852 C 27.437 407.852 27.149 407.852 26.860 407.852 C 25.994 407.852 25.264 407.130 25.264 406.273 C 25.264 405.416 25.994 404.695 26.860 404.695 C 27.149 404.694 27.437 404.694 27.726 404.695 C 28.593 404.695 29.322 405.416 29.322 406.273 C 29.322 407.175 28.593 407.852 27.726 407.852 Z"/>
<path fill="#5600e3" fill-rule="evenodd" stroke="none" d="M 42.362 415.745 C 37.194 415.744 32.027 415.744 26.860 415.745 C 25.994 415.745 25.264 415.023 25.264 414.166 C 25.264 413.309 25.994 412.588 26.860 412.588 C 32.012 412.587 37.164 412.587 42.316 412.588 C 43.183 412.588 43.912 413.309 43.912 414.166 C 43.912 415.023 43.228 415.745 42.362 415.745 Z"/>
<path fill="#5600e3" fill-rule="evenodd" stroke="none" d="M 34.930 407.852 C 34.641 407.852 34.352 407.852 34.064 407.852 C 33.197 407.852 32.468 407.130 32.468 406.273 C 32.468 405.416 33.197 404.695 34.064 404.695 C 34.352 404.694 34.641 404.694 34.930 404.695 C 35.796 404.695 36.526 405.416 36.526 406.273 C 36.526 407.175 35.796 407.852 34.930 407.852 Z"/>
<path fill="#5600e3" fill-rule="evenodd" stroke="none" d="M 42.134 407.852 C 41.844 407.852 41.556 407.852 41.267 407.852 C 40.401 407.852 39.671 407.130 39.671 406.273 C 39.671 405.416 40.401 404.695 41.267 404.695 C 41.556 404.694 41.844 404.694 42.134 404.695 C 43.000 404.695 43.729 405.416 43.729 406.273 C 43.729 407.175 43.045 407.852 42.134 407.852 Z"/>
<path fill="#5600e3" fill-rule="evenodd" stroke="none" d="M 49.337 407.852 C 49.048 407.852 48.759 407.852 48.471 407.852 C 47.605 407.852 46.875 407.130 46.875 406.273 C 46.875 405.416 47.605 404.695 48.471 404.695 C 48.759 404.694 49.048 404.694 49.337 404.695 C 50.203 404.695 50.933 405.416 50.933 406.273 C 50.933 407.175 50.249 407.852 49.337 407.852 Z"/>
<path fill="#5600e3" fill-rule="evenodd" stroke="none" d="M 9.492 304.738 C 7.270 304.738 5.049 304.738 2.827 304.738 C 1.668 304.738 0.757 303.774 0.757 302.642 C 0.757 299.329 0.757 296.016 0.757 292.704 C 0.757 291.530 1.709 290.607 2.827 290.607 C 5.049 290.607 7.270 290.607 9.492 290.607 C 10.651 290.607 11.562 291.572 11.562 292.704 C 11.562 296.016 11.562 299.329 11.562 302.642 C 11.562 303.774 10.651 304.738 9.492 304.738 Z"/>
<path fill="#5600e3" fill-rule="evenodd" stroke="none" d="M 23.442 304.738 C 21.221 304.738 18.999 304.738 16.778 304.738 C 15.619 304.738 14.708 303.774 14.708 302.642 C 14.708 297.162 14.708 291.683 14.708 286.205 C 14.708 285.031 15.660 284.108 16.778 284.108 C 18.999 284.108 21.221 284.108 23.442 284.108 C 24.601 284.108 25.512 285.073 25.512 286.205 C 25.512 291.683 25.512 297.162 25.512 302.642 C 25.512 303.774 24.601 304.738 23.442 304.738 Z"/>
<path fill="#5600e3" fill-rule="evenodd" stroke="none" d="M 37.393 304.738 C 35.157 304.738 32.922 304.738 30.687 304.738 C 29.528 304.738 28.617 303.774 28.617 302.642 C 28.617 294.618 28.617 286.596 28.617 278.573 C 28.617 277.399 29.569 276.476 30.687 276.476 C 32.908 276.476 35.130 276.476 37.352 276.476 C 38.511 276.476 39.422 277.441 39.422 278.573 C 39.421 286.596 39.421 294.618 39.422 302.642 C 39.463 303.774 38.511 304.738 37.393 304.738 Z"/>
<path fill="#2dffb3" fill-rule="evenodd" stroke="none" d="M 57.139 272.661 C 58.505 272.661 59.085 271.696 58.381 270.480 C 57.277 268.537 56.173 266.594 55.069 264.652 C 54.407 263.436 53.289 261.507 52.586 260.291 C 51.481 258.348 50.377 256.405 49.274 254.462 C 48.611 253.246 47.494 253.246 46.790 254.462 C 45.686 256.405 44.582 258.348 43.478 260.291 C 42.816 261.507 41.698 263.436 40.995 264.652 C 39.890 266.594 38.787 268.537 37.683 270.480 C 37.021 271.696 37.559 272.661 38.925 272.661 C 39.338 272.661 39.752 272.661 40.167 272.661 C 41.533 272.661 42.651 273.793 42.651 275.177 C 42.650 283.493 42.650 291.809 42.651 300.126 C 42.651 301.510 42.857 303.103 43.106 303.690 C 43.354 304.277 45.838 304.738 47.204 304.738 C 47.769 304.738 48.335 304.738 48.901 304.738 C 50.267 304.738 51.840 304.529 52.420 304.277 C 53.000 304.026 53.455 301.510 53.455 300.126 C 53.454 291.809 53.454 283.493 53.455 275.177 C 53.455 273.793 54.573 272.661 55.939 272.661 C 56.338 272.661 56.738 272.661 57.139 272.661 Z"/>
<path fill="#5600e3" fill-rule="evenodd" stroke="none" d="M 27.875 371.870 C 27.875 369.797 27.875 367.724 27.875 365.652 C 24.304 365.866 21.378 362.993 21.378 359.434 C 21.378 356.089 24.304 353.216 27.875 353.430 C 27.875 351.429 27.875 349.428 27.875 347.427 C 24.074 347.427 20.274 347.427 16.473 347.427 C 16.904 346.312 17.592 345.197 17.592 344.082 C 17.592 339.622 10.880 339.622 10.880 344.082 C 10.880 345.197 11.569 346.312 11.999 347.427 C 8.198 347.427 4.398 347.427 0.597 347.427 C 0.597 355.002 0.597 362.578 0.597 370.155 C 0.597 371.055 1.286 371.956 2.404 371.956 C 10.894 371.955 19.385 371.955 27.875 371.956 C 27.875 371.926 27.875 371.898 27.875 371.870 Z"/>
<path fill="#5600e3" fill-rule="evenodd" stroke="none" d="M 58.036 347.384 C 55.654 347.384 53.274 347.384 50.894 347.384 C 51.109 350.943 48.441 353.859 44.870 353.859 C 41.299 353.859 38.373 350.943 38.632 347.384 C 35.935 347.384 33.239 347.384 30.543 347.384 C 30.543 350.571 30.543 353.759 30.543 356.947 C 29.639 356.732 28.521 356.046 27.402 356.046 C 22.928 356.046 22.928 362.950 27.402 362.950 C 28.521 362.950 29.639 362.264 30.543 362.050 C 30.543 365.323 30.543 368.596 30.543 371.870 C 39.033 371.869 47.523 371.869 56.014 371.870 C 57.132 371.870 58.036 370.969 58.036 370.069 C 58.035 362.507 58.035 354.945 58.036 347.384 Z"/>
<path fill="#5600e3" fill-rule="evenodd" stroke="none" d="M 0.383 344.725 C 2.993 344.725 5.603 344.725 8.213 344.725 C 7.783 341.166 10.665 338.035 14.236 338.035 C 17.808 338.035 20.733 341.166 20.260 344.725 C 22.798 344.725 25.337 344.725 27.875 344.725 C 27.875 341.309 27.875 337.892 27.875 334.476 C 28.994 334.905 30.113 335.591 31.231 335.591 C 35.921 335.591 35.921 328.473 31.231 328.473 C 30.113 328.473 28.994 329.373 27.875 329.802 C 27.875 326.529 27.875 323.255 27.875 319.982 C 19.385 319.982 10.895 319.982 2.405 319.982 C 1.286 319.982 0.383 320.883 0.383 321.998 C 0.383 329.573 0.383 337.149 0.383 344.725 Z"/>
<path fill="#2dffb3" fill-rule="evenodd" stroke="none" d="M 58.035 344.725 C 58.035 337.149 58.035 329.573 58.035 321.998 C 58.035 320.883 57.132 319.982 56.013 319.982 C 47.523 319.982 39.032 319.982 30.543 319.982 C 30.542 321.983 30.542 323.984 30.543 325.986 C 34.114 325.557 37.470 328.430 37.470 331.989 C 37.470 335.763 34.114 338.464 30.543 337.993 C 30.542 340.222 30.542 342.452 30.543 344.682 C 34.414 344.682 38.287 344.682 42.159 344.682 C 41.944 345.583 41.256 346.698 41.256 347.813 C 41.256 352.273 48.183 352.273 48.183 347.813 C 48.183 346.698 47.753 345.583 47.279 344.682 C 50.864 344.682 54.449 344.682 58.035 344.682 C 58.035 344.696 58.035 344.711 58.035 344.725 Z"/>
<path fill="#5600e3" fill-rule="evenodd" stroke="none" d="M 32.085 237.895 C 32.085 238.726 31.371 239.438 30.538 239.438 C 29.646 239.438 28.992 238.786 28.992 237.895 C 28.992 237.064 29.646 236.352 30.538 236.352 C 31.371 236.352 32.085 237.064 32.085 237.895 M 55.525 208.871 C 55.465 208.693 55.465 208.574 55.406 208.337 C 54.235 209.326 53.065 210.315 51.896 211.305 C 51.895 218.862 51.895 226.420 51.896 233.978 C 37.657 233.978 23.419 233.978 9.181 233.978 C 9.181 226.064 9.181 218.150 9.181 210.236 C 17.312 210.236 25.442 210.236 33.573 210.236 C 34.584 209.049 35.595 207.862 36.607 206.675 C 27.028 206.675 17.450 206.675 7.873 206.675 C 6.683 206.675 5.671 207.684 5.671 208.930 C 5.671 219.139 5.671 229.348 5.671 239.557 C 5.671 240.744 6.683 241.753 7.873 241.753 C 13.940 241.753 20.008 241.753 26.077 241.753 C 26.076 243.118 26.076 244.483 26.077 245.849 C 24.728 245.848 23.380 245.848 22.031 245.849 C 21.436 245.849 20.901 246.324 20.901 246.977 C 20.901 247.668 20.901 248.361 20.901 249.054 C 20.901 249.647 21.377 250.182 22.031 250.182 C 27.683 250.181 33.334 250.181 38.986 250.182 C 39.581 250.182 40.116 249.707 40.116 249.054 C 40.116 248.361 40.116 247.668 40.116 246.977 C 40.116 246.383 39.641 245.849 38.986 245.849 C 37.637 245.848 36.289 245.848 34.941 245.849 C 34.941 244.483 34.941 243.118 34.941 241.753 C 41.048 241.753 47.156 241.753 53.264 241.753 C 54.513 241.753 55.525 240.744 55.525 239.557 C 55.524 229.328 55.524 219.100 55.525 208.871 Z"/>
<path fill="#2dffb3" fill-rule="evenodd" stroke="none" d="M 37.558 215.281 C 38.332 216.052 38.927 216.943 39.343 217.892 C 44.082 213.797 48.822 209.701 53.561 205.606 C 55.525 203.885 55.584 200.917 53.799 199.077 C 51.955 197.237 48.981 197.356 47.255 199.314 C 43.170 204.063 39.085 208.811 35.000 213.559 C 35.952 213.916 36.844 214.509 37.558 215.281 Z"/>
<path fill="#2dffb3" fill-rule="evenodd" stroke="none" d="M 28.040 217.595 C 25.898 219.732 26.910 223.412 23.400 226.024 C 22.745 226.498 22.983 227.507 23.757 227.686 C 29.289 228.873 33.216 226.914 35.238 224.837 C 37.202 222.878 37.202 219.613 35.238 217.595 C 33.275 215.577 30.063 215.577 28.040 217.595 Z"/>
<path fill="#5600e3" fill-rule="evenodd" stroke="none" d="M 35.199 169.467 C 31.992 169.467 28.784 169.467 25.577 169.467 C 17.922 169.467 11.742 175.086 11.742 182.038 C 11.742 182.647 11.742 183.255 11.742 183.865 C 11.742 184.497 12.233 184.988 12.865 184.988 C 24.594 184.988 36.323 184.988 48.052 184.988 C 48.684 184.988 49.175 184.497 49.175 183.865 C 49.175 183.255 49.175 182.647 49.175 182.038 C 49.105 175.086 42.854 169.467 35.199 169.467 Z"/>
<path fill="#2dffb3" fill-rule="evenodd" stroke="none" d="M 48.051 147.764 C 48.051 147.390 48.051 147.015 48.051 146.641 C 48.051 138.915 40.607 132.594 31.547 132.594 C 30.774 132.594 30.002 132.594 29.229 132.594 C 20.169 132.594 12.725 138.915 12.725 146.711 C 12.725 147.085 12.725 147.460 12.725 147.835 C 10.407 148.467 8.721 150.363 8.721 152.751 C 8.721 154.647 9.845 156.263 11.460 157.105 C 11.460 157.152 11.460 157.199 11.460 157.246 C 11.460 159.564 13.497 161.460 15.955 161.460 C 19.537 161.460 23.119 161.460 26.701 161.460 C 27.333 162.654 28.667 163.497 30.142 163.497 C 32.249 163.497 34.005 161.881 34.005 159.915 C 34.005 157.948 32.249 156.333 30.142 156.333 C 28.246 156.333 26.701 157.597 26.350 159.283 C 22.885 159.282 19.420 159.282 15.955 159.283 C 14.902 159.283 13.989 158.651 13.708 157.808 C 13.919 157.808 14.059 157.878 14.270 157.878 C 14.597 157.878 14.925 157.878 15.253 157.878 C 15.885 157.878 16.377 157.386 16.377 156.754 C 16.377 154.062 16.377 151.370 16.377 148.678 C 16.377 148.045 15.885 147.554 15.253 147.554 C 15.136 147.554 15.019 147.554 14.902 147.554 C 14.902 147.249 14.902 146.945 14.902 146.641 C 14.902 140.039 21.293 134.701 29.229 134.701 C 30.002 134.701 30.774 134.701 31.547 134.701 C 39.413 134.701 45.874 140.039 45.874 146.641 C 45.874 146.945 45.874 147.249 45.874 147.554 C 45.804 147.554 45.733 147.554 45.664 147.554 C 45.031 147.554 44.540 148.045 44.540 148.678 C 44.539 151.346 44.539 154.015 44.540 156.684 C 44.540 157.316 45.031 157.808 45.664 157.808 C 45.991 157.808 46.319 157.808 46.647 157.808 C 49.667 157.808 52.195 155.490 52.195 152.681 C 52.195 150.363 50.439 148.397 48.051 147.764 Z"/>
<path fill="#5600e3" fill-rule="evenodd" stroke="none" d="M 30.213 165.603 C 28.387 165.603 26.702 164.831 25.648 163.567 C 24.852 163.566 24.056 163.566 23.260 163.567 C 25.297 165.463 27.755 166.727 30.424 166.727 C 37.868 166.727 43.487 157.035 43.487 150.714 C 43.417 144.253 37.588 138.915 30.354 138.915 C 23.190 138.915 17.290 144.253 17.290 150.784 C 17.290 152.681 17.782 154.858 18.695 157.035 C 20.755 157.035 22.815 157.035 24.876 157.035 C 25.929 155.279 27.895 154.085 30.143 154.085 C 33.444 154.085 36.183 156.684 36.183 159.844 C 36.253 163.005 33.514 165.603 30.213 165.603 Z"/>
<path fill="#5600e3" fill-rule="evenodd" stroke="none" d="M 35.199 169.467 C 31.992 169.467 28.784 169.467 25.577 169.467 C 17.922 169.467 11.742 175.086 11.742 182.038 C 11.742 182.647 11.742 183.255 11.742 183.865 C 11.742 184.497 12.233 184.988 12.865 184.988 C 24.594 184.988 36.323 184.988 48.052 184.988 C 48.684 184.988 49.175 184.497 49.175 183.865 C 49.175 183.255 49.175 182.647 49.175 182.038 C 49.105 175.086 42.854 169.467 35.199 169.467 Z"/>
<path fill="#2dffb3" fill-rule="evenodd" stroke="none" d="M 48.051 147.764 C 48.051 147.390 48.051 147.015 48.051 146.641 C 48.051 138.915 40.607 132.594 31.547 132.594 C 30.774 132.594 30.002 132.594 29.229 132.594 C 20.169 132.594 12.725 138.915 12.725 146.711 C 12.725 147.085 12.725 147.460 12.725 147.835 C 10.407 148.467 8.721 150.363 8.721 152.751 C 8.721 154.647 9.845 156.263 11.460 157.105 C 11.460 157.152 11.460 157.199 11.460 157.246 C 11.460 159.564 13.497 161.460 15.955 161.460 C 19.537 161.460 23.119 161.460 26.701 161.460 C 27.333 162.654 28.667 163.497 30.142 163.497 C 32.249 163.497 34.005 161.881 34.005 159.915 C 34.005 157.948 32.249 156.333 30.142 156.333 C 28.246 156.333 26.701 157.597 26.350 159.283 C 22.885 159.282 19.420 159.282 15.955 159.283 C 14.902 159.283 13.989 158.651 13.708 157.808 C 13.919 157.808 14.059 157.878 14.270 157.878 C 14.597 157.878 14.925 157.878 15.253 157.878 C 15.885 157.878 16.377 157.386 16.377 156.754 C 16.377 154.062 16.377 151.370 16.377 148.678 C 16.377 148.045 15.885 147.554 15.253 147.554 C 15.136 147.554 15.019 147.554 14.902 147.554 C 14.902 147.249 14.902 146.945 14.902 146.641 C 14.902 140.039 21.293 134.701 29.229 134.701 C 30.002 134.701 30.774 134.701 31.547 134.701 C 39.413 134.701 45.874 140.039 45.874 146.641 C 45.874 146.945 45.874 147.249 45.874 147.554 C 45.804 147.554 45.733 147.554 45.664 147.554 C 45.031 147.554 44.540 148.045 44.540 148.678 C 44.539 151.346 44.539 154.015 44.540 156.684 C 44.540 157.316 45.031 157.808 45.664 157.808 C 45.991 157.808 46.319 157.808 46.647 157.808 C 49.667 157.808 52.195 155.490 52.195 152.681 C 52.195 150.363 50.439 148.397 48.051 147.764 Z"/>
<path fill="#5600e3" fill-rule="evenodd" stroke="none" d="M 30.213 165.603 C 28.387 165.603 26.702 164.831 25.648 163.567 C 24.852 163.566 24.056 163.566 23.260 163.567 C 25.297 165.463 27.755 166.727 30.424 166.727 C 37.868 166.727 43.487 157.035 43.487 150.714 C 43.417 144.253 37.588 138.915 30.354 138.915 C 23.190 138.915 17.290 144.253 17.290 150.784 C 17.290 152.681 17.782 154.858 18.695 157.035 C 20.755 157.035 22.815 157.035 24.876 157.035 C 25.929 155.279 27.895 154.085 30.143 154.085 C 33.444 154.085 36.183 156.684 36.183 159.844 C 36.253 163.005 33.514 165.603 30.213 165.603 Z"/>
<path fill="#5600e3" fill-rule="evenodd" stroke="none" d="M 53.422 86.860 C 53.421 96.205 53.421 105.550 53.422 114.896 C 53.422 116.586 52.016 118.043 50.260 118.043 C 36.753 118.043 23.247 118.043 9.740 118.043 C 8.042 118.043 6.578 116.644 6.578 114.896 C 6.578 105.550 6.578 96.205 6.578 86.860 C 6.578 85.170 7.984 83.713 9.740 83.713 C 23.247 83.713 36.753 83.713 50.260 83.713 C 51.958 83.713 53.422 85.112 53.422 86.860 M 6.578 77.535 C 6.578 75.786 8.042 74.387 9.740 74.387 C 11.438 74.387 12.902 75.786 12.902 77.535 C 12.902 79.283 11.497 80.682 9.740 80.682 C 7.984 80.682 6.578 79.283 6.578 77.535 M 16.005 77.535 C 16.005 75.786 17.411 74.387 19.167 74.387 C 20.865 74.387 22.329 75.786 22.329 77.535 C 22.329 79.283 20.924 80.682 19.167 80.682 C 17.411 80.682 16.005 79.283 16.005 77.535 M 56.525 77.476 C 56.525 74.037 53.715 71.240 50.260 71.240 C 36.753 71.240 23.247 71.240 9.740 71.240 C 6.285 71.240 3.475 74.037 3.475 77.476 C 3.475 89.949 3.475 102.422 3.475 114.896 C 3.475 118.335 6.285 121.132 9.740 121.132 C 23.247 121.132 36.753 121.132 50.260 121.132 C 53.715 121.132 56.525 118.335 56.525 114.896 C 56.525 102.422 56.525 89.949 56.525 77.476 Z"/>
<path fill="#2dffb3" fill-rule="evenodd" stroke="none" d="M 44.112 97.002 C 43.000 97.002 41.946 97.643 41.477 98.575 C 41.321 98.575 41.165 98.575 41.009 98.575 C 41.008 96.496 41.008 94.418 41.009 92.339 C 41.009 90.649 39.604 89.191 37.847 89.191 C 35.758 89.191 33.670 89.191 31.582 89.191 C 31.581 89.347 31.581 89.502 31.582 89.658 C 34.392 91.057 33.280 95.428 30.001 95.428 C 26.839 95.428 25.609 91.231 28.420 89.658 C 28.419 89.502 28.419 89.347 28.420 89.191 C 26.331 89.191 24.243 89.191 22.154 89.191 C 20.456 89.191 18.992 90.590 18.992 92.339 C 18.992 94.418 18.992 96.496 18.992 98.575 C 18.836 98.575 18.680 98.575 18.524 98.575 C 18.056 97.643 16.943 97.002 15.889 97.002 C 14.191 97.002 12.727 98.401 12.727 100.149 C 12.727 101.840 14.132 103.297 15.889 103.297 C 17.002 103.297 18.056 102.656 18.524 101.723 C 18.680 101.723 18.836 101.723 18.992 101.723 C 18.992 103.801 18.992 105.880 18.992 107.960 C 18.992 109.650 20.398 111.107 22.154 111.107 C 24.243 111.107 26.331 111.107 28.420 111.107 C 28.419 110.951 28.419 110.796 28.420 110.641 C 28.127 110.466 27.951 110.349 27.775 110.174 C 25.902 108.309 27.131 104.870 29.942 104.870 C 33.104 104.870 34.334 109.067 31.523 110.641 C 31.523 110.796 31.523 110.951 31.523 111.107 C 33.611 111.107 35.700 111.107 37.788 111.107 C 39.486 111.107 40.950 109.708 40.950 107.960 C 40.950 105.861 40.950 103.763 40.950 101.665 C 41.106 101.664 41.262 101.664 41.419 101.665 C 41.887 102.597 43.000 103.238 44.054 103.238 C 45.752 103.238 47.216 101.840 47.216 100.091 C 47.274 98.401 45.869 97.002 44.112 97.002 Z"/>
<path fill="#5600e3" fill-rule="evenodd" stroke="none" d="M 25.345 32.965 C 25.345 34.061 24.980 35.036 24.188 35.767 C 23.396 36.558 22.483 36.924 21.386 36.924 C 20.290 36.924 19.377 36.558 18.585 35.767 C 17.793 34.975 17.428 34.061 17.428 32.965 C 17.428 31.869 17.793 30.955 18.585 30.164 C 19.377 29.372 20.290 29.007 21.386 29.007 C 22.483 29.007 23.396 29.372 24.188 30.164 C 24.980 30.955 25.345 31.869 25.345 32.965 M 31.252 31.503 C 31.252 31.443 31.191 31.321 31.131 31.199 C 31.070 31.138 30.948 31.016 30.887 31.016 C 30.115 30.894 29.344 30.772 28.573 30.651 C 28.451 30.286 28.329 29.859 28.086 29.372 C 28.268 29.128 28.451 28.824 28.816 28.458 C 29.121 28.093 29.304 27.789 29.486 27.667 C 29.547 27.545 29.608 27.484 29.608 27.362 C 29.608 27.119 28.877 26.266 27.355 24.926 C 27.233 24.865 27.172 24.804 27.050 24.804 C 26.928 24.804 26.807 24.865 26.746 24.926 C 26.136 25.373 25.527 25.819 24.919 26.266 C 24.492 26.022 24.127 25.901 23.762 25.779 C 23.640 25.007 23.518 24.236 23.396 23.465 C 23.396 23.343 23.335 23.282 23.213 23.221 C 23.153 23.160 23.031 23.099 22.909 23.099 C 21.955 23.099 21.000 23.099 20.047 23.099 C 19.803 23.099 19.681 23.221 19.559 23.465 C 19.438 23.952 19.316 24.743 19.194 25.840 C 18.768 26.022 18.341 26.144 18.037 26.327 C 17.428 25.860 16.819 25.393 16.210 24.926 C 16.088 24.865 16.027 24.804 15.905 24.804 C 15.722 24.804 15.296 25.109 14.687 25.718 C 14.078 26.327 13.652 26.753 13.408 27.058 C 13.347 27.119 13.286 27.240 13.286 27.362 C 13.286 27.423 13.347 27.545 13.408 27.667 C 14.017 28.398 14.444 28.946 14.809 29.494 C 14.565 29.920 14.444 30.286 14.322 30.651 C 13.530 30.772 12.738 30.894 11.947 31.016 C 11.886 31.016 11.764 31.077 11.703 31.199 C 11.642 31.321 11.581 31.382 11.581 31.503 C 11.581 32.457 11.581 33.411 11.581 34.366 C 11.581 34.488 11.642 34.549 11.703 34.670 C 11.764 34.731 11.886 34.853 11.947 34.853 C 12.718 34.975 13.489 35.096 14.261 35.218 C 14.383 35.584 14.565 36.010 14.809 36.497 C 14.626 36.741 14.444 37.046 14.078 37.411 C 13.774 37.776 13.530 38.081 13.469 38.203 C 13.408 38.324 13.347 38.385 13.347 38.507 C 13.347 38.751 14.078 39.603 15.601 40.943 C 15.723 41.004 15.783 41.065 15.905 41.065 C 16.027 41.065 16.149 41.004 16.210 40.943 C 16.819 40.496 17.428 40.050 18.037 39.603 C 18.463 39.847 18.829 39.969 19.194 40.091 C 19.316 40.882 19.437 41.674 19.559 42.466 C 19.559 42.588 19.620 42.648 19.742 42.709 C 19.803 42.770 19.925 42.831 20.047 42.831 C 21.000 42.831 21.955 42.831 22.909 42.831 C 23.153 42.831 23.274 42.709 23.396 42.466 C 23.518 41.979 23.640 41.187 23.762 40.091 C 24.188 39.969 24.553 39.847 24.919 39.603 C 25.527 40.070 26.136 40.537 26.746 41.004 C 26.867 41.065 26.928 41.126 27.050 41.126 C 27.233 41.126 27.659 40.821 28.268 40.212 C 28.877 39.603 29.304 39.116 29.547 38.873 C 29.486 38.751 29.547 38.690 29.547 38.507 C 29.547 38.385 29.486 38.324 29.425 38.203 C 28.816 37.472 28.390 36.924 28.025 36.376 C 28.268 35.949 28.390 35.584 28.512 35.218 C 29.303 35.096 30.095 34.975 30.887 34.853 C 30.948 34.853 31.070 34.792 31.131 34.670 C 31.191 34.549 31.252 34.488 31.252 34.366 C 31.252 33.411 31.252 32.457 31.252 31.503 Z"/>
<path fill="#2dffb3" fill-rule="evenodd" stroke="none" d="M 42.546 28.926 C 46.623 24.849 50.699 20.772 54.776 16.696 C 52.982 14.901 51.187 13.107 49.393 11.313 C 45.316 15.389 41.240 19.466 37.163 23.543 C 38.957 25.337 40.752 27.131 42.546 28.926 Z"/>
<path fill="#2dffb3" fill-rule="evenodd" stroke="none" d="M 33.201 31.563 C 33.018 32.355 33.749 33.146 34.541 32.903 C 36.164 32.537 37.788 32.172 39.413 31.807 C 39.596 31.746 39.839 31.624 39.961 31.502 C 40.387 31.076 40.813 30.649 41.240 30.223 C 39.453 28.437 37.667 26.650 35.881 24.864 C 35.454 25.290 35.028 25.716 34.602 26.143 C 34.480 26.326 34.358 26.508 34.297 26.691 C 33.931 28.315 33.566 29.939 33.201 31.563 Z"/>
<path fill="#5600e3" fill-rule="evenodd" stroke="none" d="M 6.039 14.511 C 6.039 13.598 6.770 12.928 7.622 12.928 C 8.475 12.928 9.206 13.659 9.206 14.511 C 9.206 15.364 8.475 16.095 7.622 16.095 C 6.770 16.095 6.039 15.364 6.039 14.511 M 12.129 14.511 C 12.129 13.598 12.860 12.928 13.712 12.928 C 14.565 12.928 15.296 13.659 15.296 14.511 C 15.296 15.364 14.565 16.095 13.712 16.095 C 12.860 16.095 12.129 15.364 12.129 14.511 M 18.219 14.511 C 18.219 13.598 18.950 12.928 19.802 12.928 C 20.655 12.928 21.386 13.659 21.386 14.511 C 21.386 15.364 20.655 16.095 19.802 16.095 C 18.950 16.095 18.219 15.364 18.219 14.511 M 48.670 25.778 C 48.669 33.248 48.669 40.719 48.670 48.190 C 34.459 48.189 20.249 48.189 6.039 48.190 C 6.039 38.587 6.039 28.985 6.039 19.383 C 16.838 19.383 27.638 19.383 38.438 19.383 C 41.564 16.237 44.690 13.090 47.817 9.944 C 47.999 9.761 48.182 9.578 48.365 9.396 C 33.891 9.395 19.417 9.396 4.943 9.396 C 3.237 9.396 1.897 10.796 1.897 12.441 C 1.897 24.641 1.897 36.842 1.897 49.042 C 1.897 50.748 3.298 52.087 4.943 52.088 C 19.884 52.087 34.824 52.087 49.766 52.088 C 51.471 52.088 52.811 50.687 52.811 49.042 C 52.811 39.907 52.811 30.772 52.811 21.637 C 51.430 23.017 50.050 24.397 48.670 25.778 Z"/>
<path fill="#2dffb3" fill-rule="evenodd" stroke="none" d="M 58.475 11.405 C 57.216 10.147 55.957 8.888 54.699 7.630 C 54.273 7.203 53.542 7.203 53.055 7.630 C 52.283 8.401 51.511 9.172 50.740 9.944 C 52.526 11.730 54.313 13.517 56.100 15.303 C 56.871 14.532 57.642 13.760 58.414 12.989 C 58.901 12.563 58.901 11.832 58.475 11.405 Z"/>
</g>
</svg>
