<svg id="eHQkVYdC7ju1" xmlns="http://www.w3.org/2000/svg" xmlns:xlink="http://www.w3.org/1999/xlink" viewBox="0 0 60 60" shape-rendering="geometricPrecision" text-rendering="geometricPrecision"><style><![CDATA[#eHQkVYdC7ju4_ts {animation: eHQkVYdC7ju4_ts__ts 5000ms linear infinite normal forwards}@keyframes eHQkVYdC7ju4_ts__ts { 0% {transform: translate(10.995000px,44.163500px) scale(0.263342,1)} 60% {transform: translate(10.995000px,44.163500px) scale(7.164149,1)} 100% {transform: translate(10.995000px,44.163500px) scale(7.164149,1)}} #eHQkVYdC7ju5_ts {animation: eHQkVYdC7ju5_ts__ts 5000ms linear infinite normal forwards}@keyframes eHQkVYdC7ju5_ts__ts { 0% {transform: translate(48.702648px,44.163500px) scale(1.124706,1)} 60% {transform: translate(48.702648px,44.163500px) scale(0.034964,1)} 100% {transform: translate(48.702648px,44.163500px) scale(0.034964,1)}} #eHQkVYdC7ju6_to {animation: eHQkVYdC7ju6_to__to 5000ms linear infinite normal forwards}@keyframes eHQkVYdC7ju6_to__to { 0% {transform: translate(14.225500px,44.163500px)} 60% {transform: translate(45.262500px,44.163500px)} 100% {transform: translate(45.262500px,44.163500px)}} #eHQkVYdC7ju8_tr {animation: eHQkVYdC7ju8_tr__tr 5000ms linear infinite normal forwards}@keyframes eHQkVYdC7ju8_tr__tr { 0% {transform: translate(30.271626px,26.393825px) rotate(0deg)} 60% {transform: translate(30.271626px,26.393825px) rotate(360deg)} 100% {transform: translate(30.271626px,26.393825px) rotate(360deg)}} #eHQkVYdC7ju8_ts {animation: eHQkVYdC7ju8_ts__ts 5000ms linear infinite normal forwards}@keyframes eHQkVYdC7ju8_ts__ts { 0% {transform: scale(1,1)} 64% {transform: scale(1,1)} 68% {transform: scale(1.172412,1.172412)} 78% {transform: scale(1,1)} 100% {transform: scale(1,1)}}]]></style><g id="eHQkVYdC7ju2"><path id="eHQkVYdC7ju3" d="M52.641000,10.291000C52.640000,23.618000,52.640000,36.944000,52.641000,50.271000C37.463000,50.271000,22.286000,50.271000,7.108000,50.271000C7.108000,36.944000,7.108000,23.618000,7.108000,10.291000C22.286000,10.291000,37.463000,10.291000,52.641000,10.291000M55.972000,6.960000C38.573000,6.960000,21.175000,6.960000,3.777000,6.960000C3.777000,22.507000,3.777000,38.055000,3.777000,53.603000C21.175000,53.602000,38.573000,53.602000,55.972000,53.603000C55.972000,38.055000,55.972000,22.507000,55.972000,6.960000Z" fill="rgb(86,0,227)" fill-rule="evenodd" stroke="none" stroke-width="1"/><g id="eHQkVYdC7ju4_ts" transform="translate(10.995000,44.163500) scale(0.263342,1)"><path id="eHQkVYdC7ju4" d="M15.437000,43.053000C13.957000,43.052000,12.476000,43.052000,10.995000,43.053000C10.995000,43.793000,10.995000,44.533000,10.995000,45.274000C12.476000,45.273000,13.957000,45.273000,15.437000,45.274000C15.437000,44.533000,15.437000,43.793000,15.437000,43.053000Z" transform="translate(-10.995000,-44.163500)" fill="rgb(86,0,227)" fill-rule="evenodd" stroke="none" stroke-width="1"/></g><g id="eHQkVYdC7ju5_ts" transform="translate(48.702648,44.163500) scale(1.124706,1)"><path id="eHQkVYdC7ju5" d="M48.753000,43.053000C39.128000,43.052000,29.504000,43.052000,19.879000,43.053000C19.879000,43.793000,19.879000,44.533000,19.879000,45.274000C29.504000,45.273000,39.128000,45.273000,48.753000,45.274000C48.753000,44.533000,48.753000,43.793000,48.753000,43.053000Z" transform="translate(-48.753000,-44.163500)" fill="rgb(86,0,227)" fill-rule="evenodd" stroke="none" stroke-width="1"/></g><g id="eHQkVYdC7ju6_to" transform="translate(14.225500,44.163500)"><path id="eHQkVYdC7ju6" d="M18.769000,40.831000C18.029000,40.831000,17.288000,40.831000,16.548000,40.831000C16.548000,43.052000,16.548000,45.273000,16.548000,47.494000C17.288000,47.494000,18.029000,47.494000,18.769000,47.494000C18.769000,45.273000,18.769000,43.052000,18.769000,40.831000Z" transform="translate(-17.658500,-44.162500)" fill="rgb(86,0,227)" fill-rule="evenodd" stroke="none" stroke-width="1"/></g><path id="eHQkVYdC7ju7" d="M48.198000,14.734000C35.982000,14.734000,23.766000,14.734000,11.550000,14.734000C11.550000,22.507000,11.550000,30.281000,11.550000,38.055000C23.766000,38.055000,35.982000,38.055000,48.198000,38.055000C48.198000,30.281000,48.198000,22.507000,48.198000,14.734000Z" fill="rgb(86,0,227)" fill-rule="evenodd" stroke="none" stroke-width="1"/><g id="eHQkVYdC7ju8_tr" transform="translate(30.271626,26.393825) rotate(0)"><g id="eHQkVYdC7ju8_ts" transform="scale(1,1)"><path id="eHQkVYdC7ju8" d="M35.521000,25.138000C36.492000,25.700000,36.492000,27.099000,35.521000,27.661000C34.013000,28.531000,32.505000,29.400000,30.998000,30.270000C29.490000,31.140000,27.982000,32.009000,26.475000,32.879000C25.503000,33.441000,24.294000,32.736000,24.294000,31.622000C24.294000,29.880000,24.294000,28.137000,24.294000,26.395000C24.294000,24.652000,24.294000,22.909000,24.294000,21.167000C24.294000,20.043000,25.503000,19.348000,26.475000,19.910000C27.982000,20.780000,29.490000,21.649000,30.998000,22.519000C32.505000,23.392000,34.013000,24.265000,35.521000,25.138000Z" transform="translate(-30.271626,-26.393825)" fill="rgb(45,255,179)" fill-rule="evenodd" stroke="none" stroke-width="1"/></g></g></g></svg>