<svg width="58" height="50" viewBox="0 0 58 50" fill="none" xmlns="http://www.w3.org/2000/svg">
<path d="M51.912 0H26.7923C23.8853 0 21.5293 2.35646 21.5293 5.263V17.6364C22.8572 18.2964 24.2919 19.01 25.6311 19.6757L27.68 15.5761C28.9206 13.0971 31.9449 12.0898 34.4231 13.3283C36.9065 14.5711 37.9129 17.5871 36.6696 20.0709L33.0172 27.3776C33.114 28.3447 33.0281 29.3197 32.7554 30.2632H35.1669L28.8068 47.7522C28.4294 48.7895 29.1588 50 30.3815 50C31.0651 50 31.7081 49.5782 31.955 48.8968L38.7312 30.2632H39.9051L46.7502 48.9025C46.9993 49.5804 47.6406 50 48.3237 50C49.4661 50 50.3037 48.8588 49.895 47.7478L43.4738 30.2632H51.912C54.8186 30.2632 57.175 27.9068 57.175 25.0002V5.263C57.175 2.35646 54.8186 0 51.912 0V0ZM48.3228 23.087H40.8072C39.8824 23.087 39.1321 22.3367 39.1321 21.4119C39.1321 20.4862 39.8824 19.7368 40.8072 19.7368H48.3228C49.2485 19.7368 49.9979 20.4862 49.9979 21.4119C49.9979 22.3367 49.2485 23.087 48.3228 23.087ZM48.3228 16.8067H40.8072C39.8824 16.8067 39.1321 16.0573 39.1321 15.1316C39.1321 14.2068 39.8824 13.4565 40.8072 13.4565H48.3228C49.2485 13.4565 49.9979 14.2068 49.9979 15.1316C49.9979 16.0573 49.2485 16.8067 48.3228 16.8067ZM48.3228 10.5273H30.3815C29.4559 10.5273 28.7064 9.777 28.7064 8.85222C28.7064 7.92743 29.4559 7.17713 30.3815 7.17713H48.3228C49.2485 7.17713 49.9979 7.92743 49.9979 8.85222C49.9979 9.777 49.2485 10.5273 48.3228 10.5273Z" fill="#2DFFB3"/>
<path d="M29.4728 29.5452C29.7755 28.6583 29.7733 27.7318 29.5177 26.8864L33.6749 18.5729C34.0884 17.7454 33.7534 16.7391 32.9259 16.3255C32.0988 15.9115 31.0925 16.247 30.6785 17.0745L27.1329 24.1648C25.0137 23.1096 21.794 21.5087 19.2002 20.2188C16.7871 19.0187 15.0649 17.9426 12.1265 17.9426H10.6464C12.9344 17.9426 14.9763 16.8896 16.3129 15.2415C17.3328 13.9874 17.9426 12.3891 17.9426 10.6472C17.9426 6.617 14.6762 3.35059 10.6455 3.35059C6.61659 3.35059 3.35017 6.617 3.35017 10.6472C3.35017 12.5828 4.10396 14.3416 5.33366 15.6468C6.66326 17.0606 8.55166 17.9426 10.6451 17.943C7.83844 17.943 5.09462 19.0803 3.12072 21.0594C1.10844 23.0664 0 25.7405 0 28.589V33.9715C0 36.2887 1.50452 38.2604 3.58835 38.9619V48.3249C3.58835 49.2501 4.33821 50 5.26343 50H16.0285C16.9537 50 17.7036 49.2501 17.7036 48.3249V29.5042C19.2918 30.2981 21.3783 31.3411 23.0665 32.1856C24.2499 32.7771 25.6327 32.8303 26.8659 32.3287C28.0956 31.8227 29.0435 30.8154 29.4662 29.5648C29.4684 29.5583 29.4706 29.5517 29.4728 29.5452Z" fill="#5600E3"/>
</svg>
