<svg id="eY4VZc87npb1" xmlns="http://www.w3.org/2000/svg" xmlns:xlink="http://www.w3.org/1999/xlink" viewBox="0 0 81 72" shape-rendering="geometricPrecision" text-rendering="geometricPrecision"><style><![CDATA[#eY4VZc87npb2 {animation: eY4VZc87npb2_c_o 2000ms linear infinite normal forwards}@keyframes eY4VZc87npb2_c_o { 0% {opacity: 1} 50% {opacity: 0} 100% {opacity: 1}} #eY4VZc87npb3_ts {animation: eY4VZc87npb3_ts__ts 2000ms linear infinite normal forwards}@keyframes eY4VZc87npb3_ts__ts { 0% {transform: translate(40.500000px,35.955051px) scale(1,1)} 50% {transform: translate(40.500000px,35.955051px) scale(0.900000,0.900000)} 100% {transform: translate(40.500000px,35.955051px) scale(1,1)}}]]></style><path id="eY4VZc87npb2" d="M45.584800,21.483500L40.499600,11.326200L35.414400,21.483500L24.063500,23.101500L32.236100,31.101400L30.329200,42.337400L40.499600,37.034000L50.670000,42.337400L48.763000,31.101400L57.026500,23.101500L45.584800,21.483500Z" fill="rgb(45,255,179)" stroke="none" stroke-width="1"/><g id="eY4VZc87npb3_ts" transform="translate(40.500000,35.955051) scale(1,1)"><path id="eY4VZc87npb3" d="M71.102000,0L9.897980,0C4.449550,0,0,4.404490,0,9.797750L0,45.842700C0,51.236000,4.449550,55.640400,9.897980,55.640400L27.333000,55.640400L27.333000,70.382000C27.333000,71.191000,28.059400,71.910100,28.876700,71.910100C29.330700,71.910100,29.693900,71.730300,29.966400,71.460700L45.948400,55.730300L71.102000,55.730300C76.550500,55.730300,81,51.325800,81,45.932600L81,9.797750C81,4.404490,76.550500,0,71.102000,0ZM50.670400,42.337100L40.500000,37.033700L30.329600,42.337100L32.236500,31.101100L23.973100,23.191000L35.414800,21.483100L40.500000,11.236000L45.585200,21.483100L56.936100,23.101100L48.672600,31.011200L50.670400,42.337100Z" transform="translate(-40.500000,-35.955051)" fill="rgb(86,0,227)" stroke="none" stroke-width="1"/></g></svg>