<svg id="en7lBNWezjJ1" xmlns="http://www.w3.org/2000/svg" xmlns:xlink="http://www.w3.org/1999/xlink" viewBox="0 0 74 84" shape-rendering="geometricPrecision" text-rendering="geometricPrecision"><style><![CDATA[#en7lBNWezjJ4_ts {animation: en7lBNWezjJ4_ts__ts 2000ms linear infinite normal forwards}@keyframes en7lBNWezjJ4_ts__ts { 0% {transform: translate(23.850000px,72.750599px) scale(1,1)} 50% {transform: translate(23.850000px,72.750599px) scale(0.900000,0.900000)} 100% {transform: translate(23.850000px,72.750599px) scale(1,1)}} #en7lBNWezjJ5_to {animation: en7lBNWezjJ5_to__to 2000ms linear infinite normal forwards}@keyframes en7lBNWezjJ5_to__to { 0% {transform: translate(23.799999px,43.500200px)} 50% {transform: translate(25.849999px,45.500000px)} 100% {transform: translate(23.799999px,43.500200px)}} #en7lBNWezjJ6_to {animation: en7lBNWezjJ6_to__to 2000ms linear infinite normal forwards}@keyframes en7lBNWezjJ6_to__to { 0% {transform: translate(54.999599px,48.400000px)} 50% {transform: translate(56.999599px,46.400100px)} 100% {transform: translate(54.999599px,48.400000px)}} #en7lBNWezjJ7_ts {animation: en7lBNWezjJ7_ts__ts 2000ms linear infinite normal forwards}@keyframes en7lBNWezjJ7_ts__ts { 0% {transform: translate(60.150497px,73.250599px) scale(1,1)} 50% {transform: translate(60.150497px,73.250599px) scale(0.950000,0.950000)} 100% {transform: translate(60.150497px,73.250599px) scale(1,1)}} #en7lBNWezjJ8_to {animation: en7lBNWezjJ8_to__to 2000ms linear infinite normal forwards}@keyframes en7lBNWezjJ8_to__to { 0% {transform: translate(51.850504px,17.487352px)} 50% {transform: translate(49.700042px,20.512563px)} 100% {transform: translate(51.850504px,17.487352px)}} #en7lBNWezjJ8_ts {animation: en7lBNWezjJ8_ts__ts 2000ms linear infinite normal forwards}@keyframes en7lBNWezjJ8_ts__ts { 0% {transform: scale(1,1)} 50% {transform: scale(0.900000,0.900000)} 100% {transform: scale(1,1)}}]]></style><g id="en7lBNWezjJ2" clip-path="url(#en7lBNWezjJ9)"><g id="en7lBNWezjJ3"><g id="en7lBNWezjJ4_ts" transform="translate(23.850000,72.750599) scale(1,1)"><path id="en7lBNWezjJ4" d="M0,73.100600L0,83.900600L47.700000,83.900600L47.700000,73.100600C47.700000,66.600600,42.700000,61.600600,36.200000,61.600600L11.600000,61.600600C5.400000,61.600600,0,66.700600,0,73.100600Z" transform="translate(-23.850000,-72.750599)" fill="rgb(86,0,227)" stroke="none" stroke-width="1"/></g><g id="en7lBNWezjJ5_to" transform="translate(23.799999,43.500200)"><path id="en7lBNWezjJ5" d="M23.800000,56.800200C31.100000,56.800200,37.100000,50.800200,37.100000,43.500200C37.100000,36.200200,31.100000,30.200200,23.800000,30.200200C16.500000,30.200200,10.500000,36.200200,10.500000,43.500200C10.600000,50.800200,16.500000,56.800200,23.800000,56.800200Z" transform="translate(-23.799999,-43.500200)" fill="rgb(86,0,227)" stroke="none" stroke-width="1"/></g><g id="en7lBNWezjJ6_to" transform="translate(54.999599,48.400000)"><path id="en7lBNWezjJ6" d="M54.999600,58.800000C60.799600,58.800000,65.399600,54,65.399600,48.400000C65.399600,42.800000,60.599600,38,54.999600,38C49.199600,38,44.599600,42.800000,44.599600,48.400000C44.599600,54,49.199600,58.800000,54.999600,58.800000Z" transform="translate(-54.999599,-48.400000)" fill="rgb(86,0,227)" stroke="none" stroke-width="1"/></g><g id="en7lBNWezjJ7_ts" transform="translate(60.150497,73.250599) scale(1,1)"><path id="en7lBNWezjJ7" d="M64.599600,62.600600L46.599600,62.600600C49.599600,65.200600,51.399600,69.000600,51.399600,73.300600L51.799600,83.900600L73.699600,83.900600L73.699600,71.700600C73.799600,66.600600,69.699600,62.600600,64.599600,62.600600Z" transform="translate(-60.150497,-73.250599)" fill="rgb(86,0,227)" stroke="none" stroke-width="1"/></g><g id="en7lBNWezjJ8_to" transform="translate(51.850504,17.487352)"><g id="en7lBNWezjJ8_ts" transform="scale(1,1)"><path id="en7lBNWezjJ8" d="M66.900300,11.600100C64.700300,3.200120,56.100300,-1.699880,47.900300,0.500122C39.600300,2.700120,34.600300,11.200100,36.800300,19.500100C37.900300,23.500100,40.300300,26.600100,43.500300,28.700100L39.400300,35.000100L55.900300,30.700100C64.100300,28.500100,69.100300,19.900100,66.900300,11.600100Z" transform="translate(-51.850504,-17.487352)" fill="rgb(45,255,179)" stroke="none" stroke-width="1"/></g></g></g><clipPath id="en7lBNWezjJ9"><rect id="en7lBNWezjJ10" width="73.800000" height="83.900000" rx="0" ry="0" fill="rgb(255,255,255)" stroke="none" stroke-width="1"/></clipPath></g></svg>