<?xml version="1.0" encoding="utf-8"?>
<!-- Generator: Moho 13.0.2 build 610 -->
<!DOCTYPE svg PUBLIC "-//W3C//DTD SVG 1.1//EN" "http://www.w3.org/Graphics/SVG/1.1/DTD/svg11.dtd">
<svg version="1.1" id="Frame_0" xmlns="http://www.w3.org/2000/svg" xmlns:xlink="http://www.w3.org/1999/xlink" width="60px" height="60px">
<g id="Frame_(1).svg">
<path fill="#5600e3" fill-rule="evenodd" stroke="none" d="M 32.422 577.587 C 32.422 589.809 32.422 602.032 32.422 614.255 C 32.422 615.833 31.146 617.096 29.550 617.096 C 22.559 617.096 15.568 617.096 8.577 617.096 C 7.027 617.096 5.750 615.923 5.705 614.435 C 5.704 602.152 5.705 589.870 5.705 577.587 C 5.705 576.685 6.388 576.008 7.300 576.008 C 7.878 576.008 8.455 576.008 9.033 576.008 C 9.352 576.008 9.671 576.189 9.808 576.505 C 10.537 578.038 12.088 579.120 13.911 579.120 C 17.346 579.120 20.781 579.120 24.216 579.120 C 26.039 579.120 27.635 578.038 28.319 576.505 C 28.456 576.189 28.775 576.008 29.094 576.008 C 29.671 576.008 30.249 576.008 30.827 576.008 C 31.693 576.008 32.422 576.730 32.422 577.587 M 35.568 577.587 C 35.568 574.971 33.425 572.851 30.827 572.851 C 22.984 572.851 15.142 572.851 7.300 572.851 C 4.656 572.851 2.513 574.971 2.513 577.587 C 2.513 592.395 2.513 607.203 2.513 622.012 C 2.513 624.493 4.565 626.522 7.072 626.522 C 15.051 626.522 23.030 626.522 31.009 626.522 C 33.517 626.522 35.568 624.493 35.568 622.012 C 35.568 607.203 35.568 592.395 35.568 577.587 Z"/>
<path fill="#f9fbfc" fill-rule="evenodd" stroke="none" d="M 19.063 623.410 C 19.930 623.410 20.659 622.689 20.659 621.832 C 20.659 620.975 19.929 620.253 19.063 620.253 C 18.197 620.253 17.467 620.975 17.467 621.832 C 17.467 622.689 18.151 623.410 19.063 623.410 Z"/>
<path fill="#2dffb3" fill-rule="evenodd" stroke="none" d="M 53.806 611.143 C 43.243 611.142 32.681 611.142 22.119 611.143 C 20.386 611.143 18.927 609.745 18.927 607.986 C 18.927 601.415 18.927 594.846 18.927 588.276 C 18.927 586.562 20.340 585.119 22.119 585.119 C 32.681 585.119 43.243 585.119 53.806 585.119 C 55.539 585.119 56.998 586.517 56.998 588.276 C 56.997 594.846 56.997 601.415 56.998 607.986 C 56.998 609.699 55.584 611.143 53.806 611.143 Z"/>
<path fill="#5600e3" fill-rule="evenodd" stroke="none" d="M 27.726 597.161 C 27.437 597.161 27.149 597.161 26.860 597.161 C 25.994 597.161 25.264 596.439 25.264 595.583 C 25.264 594.726 25.994 594.004 26.860 594.004 C 27.149 594.004 27.437 594.004 27.726 594.004 C 28.593 594.004 29.322 594.726 29.322 595.583 C 29.322 596.485 28.593 597.161 27.726 597.161 Z"/>
<path fill="#5600e3" fill-rule="evenodd" stroke="none" d="M 42.362 605.054 C 37.194 605.054 32.027 605.054 26.860 605.054 C 25.994 605.054 25.264 604.332 25.264 603.475 C 25.264 602.619 25.994 601.897 26.860 601.897 C 32.012 601.897 37.164 601.897 42.316 601.897 C 43.183 601.897 43.912 602.619 43.912 603.475 C 43.912 604.332 43.228 605.054 42.362 605.054 Z"/>
<path fill="#5600e3" fill-rule="evenodd" stroke="none" d="M 34.930 597.161 C 34.641 597.161 34.352 597.161 34.064 597.161 C 33.197 597.161 32.468 596.439 32.468 595.583 C 32.468 594.726 33.197 594.004 34.064 594.004 C 34.352 594.004 34.641 594.004 34.930 594.004 C 35.796 594.004 36.526 594.726 36.526 595.583 C 36.526 596.485 35.796 597.161 34.930 597.161 Z"/>
<path fill="#5600e3" fill-rule="evenodd" stroke="none" d="M 42.134 597.161 C 41.844 597.161 41.556 597.161 41.267 597.161 C 40.401 597.161 39.671 596.439 39.671 595.583 C 39.671 594.726 40.401 594.004 41.267 594.004 C 41.556 594.004 41.844 594.004 42.134 594.004 C 43.000 594.004 43.729 594.726 43.729 595.583 C 43.729 596.485 43.045 597.161 42.134 597.161 Z"/>
<path fill="#5600e3" fill-rule="evenodd" stroke="none" d="M 49.337 597.161 C 49.048 597.161 48.759 597.161 48.471 597.161 C 47.605 597.161 46.875 596.439 46.875 595.583 C 46.875 594.726 47.605 594.004 48.471 594.004 C 48.759 594.004 49.048 594.004 49.337 594.004 C 50.203 594.004 50.933 594.726 50.933 595.583 C 50.933 596.485 50.249 597.161 49.337 597.161 Z"/>
<path fill="#5600e3" fill-rule="evenodd" stroke="none" d="M 9.492 494.048 C 7.270 494.047 5.049 494.047 2.827 494.048 C 1.668 494.048 0.757 493.083 0.757 491.951 C 0.757 488.638 0.757 485.326 0.757 482.013 C 0.757 480.839 1.709 479.917 2.827 479.917 C 5.049 479.917 7.270 479.917 9.492 479.917 C 10.651 479.917 11.562 480.881 11.562 482.013 C 11.562 485.326 11.562 488.638 11.562 491.951 C 11.562 493.083 10.651 494.048 9.492 494.048 Z"/>
<path fill="#5600e3" fill-rule="evenodd" stroke="none" d="M 23.442 494.048 C 21.221 494.047 18.999 494.047 16.778 494.048 C 15.619 494.048 14.708 493.083 14.708 491.951 C 14.708 486.472 14.708 480.993 14.708 475.514 C 14.708 474.340 15.660 473.418 16.778 473.418 C 18.999 473.417 21.221 473.417 23.442 473.418 C 24.601 473.418 25.512 474.382 25.512 475.514 C 25.512 480.993 25.512 486.472 25.512 491.951 C 25.512 493.083 24.601 494.048 23.442 494.048 Z"/>
<path fill="#5600e3" fill-rule="evenodd" stroke="none" d="M 37.393 494.048 C 35.157 494.047 32.922 494.047 30.687 494.048 C 29.528 494.048 28.617 493.083 28.617 491.951 C 28.617 483.928 28.617 475.905 28.617 467.882 C 28.617 466.708 29.569 465.786 30.687 465.786 C 32.908 465.786 35.130 465.786 37.352 465.786 C 38.511 465.786 39.422 466.750 39.422 467.882 C 39.421 475.905 39.421 483.928 39.422 491.951 C 39.463 493.083 38.511 494.048 37.393 494.048 Z"/>
<path fill="#2dffb3" fill-rule="evenodd" stroke="none" d="M 57.139 461.970 C 58.505 461.970 59.085 461.006 58.381 459.790 C 57.277 457.847 56.173 455.904 55.069 453.961 C 54.407 452.745 53.289 450.816 52.586 449.600 C 51.481 447.657 50.377 445.715 49.274 443.772 C 48.611 442.556 47.494 442.556 46.790 443.772 C 45.686 445.715 44.582 447.657 43.478 449.600 C 42.816 450.816 41.698 452.745 40.995 453.961 C 39.890 455.904 38.787 457.847 37.683 459.790 C 37.021 461.006 37.559 461.970 38.925 461.970 C 39.338 461.970 39.752 461.970 40.167 461.970 C 41.533 461.970 42.650 463.102 42.651 464.486 C 42.650 472.802 42.650 481.119 42.651 489.435 C 42.651 490.819 42.857 492.413 43.106 493.000 C 43.354 493.587 45.838 494.048 47.204 494.048 C 47.769 494.047 48.335 494.047 48.901 494.048 C 50.267 494.048 51.840 493.838 52.420 493.586 C 53.000 493.335 53.455 490.819 53.455 489.435 C 53.454 481.119 53.454 472.802 53.455 464.486 C 53.455 463.102 54.573 461.970 55.939 461.970 C 56.338 461.970 56.738 461.970 57.139 461.970 Z"/>
<path fill="#5600e3" fill-rule="evenodd" stroke="none" d="M 27.875 561.179 C 27.875 559.106 27.875 557.033 27.875 554.961 C 24.304 555.176 21.378 552.303 21.378 548.743 C 21.378 545.398 24.304 542.525 27.875 542.740 C 27.875 540.738 27.875 538.737 27.875 536.736 C 24.074 536.736 20.274 536.736 16.473 536.736 C 16.904 535.621 17.592 534.506 17.592 533.391 C 17.592 528.932 10.880 528.932 10.880 533.391 C 10.880 534.506 11.569 535.621 11.999 536.736 C 8.198 536.736 4.398 536.736 0.597 536.736 C 0.597 544.312 0.597 551.888 0.597 559.464 C 0.597 560.364 1.286 561.265 2.404 561.265 C 10.894 561.264 19.385 561.264 27.875 561.265 C 27.875 561.236 27.875 561.207 27.875 561.179 Z"/>
<path fill="#5600e3" fill-rule="evenodd" stroke="none" d="M 58.036 536.693 C 55.654 536.693 53.274 536.693 50.894 536.693 C 51.109 540.253 48.441 543.169 44.870 543.169 C 41.299 543.169 38.373 540.253 38.632 536.693 C 35.935 536.693 33.239 536.693 30.543 536.693 C 30.543 539.881 30.543 543.068 30.543 546.256 C 29.639 546.042 28.521 545.356 27.402 545.356 C 22.928 545.356 22.928 552.260 27.402 552.260 C 28.521 552.260 29.639 551.574 30.543 551.359 C 30.543 554.632 30.543 557.905 30.543 561.179 C 39.033 561.179 47.523 561.179 56.014 561.179 C 57.132 561.179 58.036 560.279 58.036 559.378 C 58.035 551.816 58.035 544.255 58.036 536.693 Z"/>
<path fill="#5600e3" fill-rule="evenodd" stroke="none" d="M 0.383 534.035 C 2.993 534.034 5.603 534.034 8.213 534.035 C 7.783 530.475 10.665 527.345 14.236 527.345 C 17.808 527.345 20.733 530.475 20.260 534.035 C 22.798 534.034 25.337 534.034 27.875 534.035 C 27.875 530.618 27.875 527.202 27.875 523.786 C 28.994 524.214 30.113 524.901 31.231 524.901 C 35.921 524.901 35.921 517.782 31.231 517.782 C 30.113 517.782 28.994 518.683 27.875 519.111 C 27.875 515.838 27.875 512.565 27.875 509.291 C 19.385 509.291 10.895 509.291 2.405 509.291 C 1.286 509.291 0.383 510.192 0.383 511.307 C 0.383 518.883 0.383 526.459 0.383 534.035 Z"/>
<path fill="#2dffb3" fill-rule="evenodd" stroke="none" d="M 58.035 534.035 C 58.035 526.459 58.035 518.883 58.035 511.307 C 58.035 510.192 57.132 509.291 56.013 509.291 C 47.523 509.291 39.032 509.291 30.543 509.291 C 30.542 511.293 30.542 513.294 30.543 515.295 C 34.114 514.866 37.470 517.739 37.470 521.299 C 37.470 525.072 34.114 527.774 30.543 527.302 C 30.542 529.532 30.542 531.762 30.543 533.992 C 34.414 533.992 38.287 533.992 42.159 533.992 C 41.944 534.892 41.256 536.007 41.256 537.122 C 41.256 541.582 48.183 541.582 48.183 537.122 C 48.183 536.007 47.753 534.892 47.279 533.992 C 50.864 533.992 54.449 533.992 58.035 533.992 C 58.035 534.006 58.035 534.020 58.035 534.035 Z"/>
<path fill="#5600e3" fill-rule="evenodd" stroke="none" d="M 32.085 427.205 C 32.085 428.036 31.371 428.748 30.538 428.748 C 29.646 428.748 28.992 428.095 28.992 427.205 C 28.992 426.374 29.646 425.662 30.538 425.662 C 31.371 425.662 32.085 426.374 32.085 427.205 M 55.525 398.180 C 55.465 398.002 55.465 397.884 55.406 397.646 C 54.235 398.635 53.065 399.625 51.896 400.614 C 51.895 408.172 51.895 415.729 51.896 423.287 C 37.657 423.287 23.419 423.287 9.181 423.287 C 9.181 415.373 9.181 407.459 9.181 399.546 C 17.312 399.545 25.442 399.546 33.573 399.546 C 34.584 398.358 35.595 397.171 36.607 395.984 C 27.028 395.984 17.450 395.984 7.873 395.984 C 6.683 395.984 5.671 396.993 5.671 398.240 C 5.671 408.448 5.671 418.657 5.671 428.867 C 5.671 430.054 6.683 431.063 7.873 431.063 C 13.940 431.062 20.008 431.062 26.077 431.063 C 26.076 432.427 26.076 433.793 26.077 435.158 C 24.728 435.158 23.380 435.158 22.031 435.158 C 21.436 435.158 20.901 435.633 20.901 436.286 C 20.901 436.978 20.901 437.670 20.901 438.363 C 20.901 438.957 21.377 439.491 22.031 439.491 C 27.683 439.491 33.334 439.491 38.986 439.491 C 39.581 439.491 40.116 439.016 40.116 438.363 C 40.116 437.670 40.116 436.978 40.116 436.286 C 40.116 435.692 39.641 435.158 38.986 435.158 C 37.637 435.158 36.289 435.158 34.941 435.158 C 34.941 433.793 34.941 432.427 34.941 431.063 C 41.048 431.062 47.156 431.062 53.264 431.063 C 54.513 431.063 55.525 430.054 55.525 428.867 C 55.524 418.638 55.524 408.409 55.525 398.180 Z"/>
<path fill="#2dffb3" fill-rule="evenodd" stroke="none" d="M 37.558 404.590 C 38.332 405.362 38.927 406.252 39.343 407.202 C 44.082 403.106 48.822 399.011 53.561 394.915 C 55.525 393.194 55.584 390.226 53.799 388.386 C 51.955 386.546 48.981 386.665 47.255 388.624 C 43.170 393.372 39.085 398.120 35.000 402.869 C 35.952 403.225 36.844 403.819 37.558 404.590 Z"/>
<path fill="#2dffb3" fill-rule="evenodd" stroke="none" d="M 28.040 406.905 C 25.898 409.042 26.910 412.721 23.400 415.333 C 22.745 415.808 22.983 416.817 23.757 416.995 C 29.289 418.182 33.216 416.223 35.238 414.146 C 37.202 412.187 37.202 408.923 35.238 406.905 C 33.275 404.887 30.063 404.887 28.040 406.905 Z"/>
<path fill="#5600e3" fill-rule="evenodd" stroke="none" d="M 35.199 358.776 C 31.992 358.776 28.784 358.776 25.577 358.776 C 17.922 358.776 11.742 364.395 11.742 371.348 C 11.742 371.956 11.742 372.565 11.742 373.174 C 11.742 373.806 12.233 374.298 12.865 374.298 C 24.594 374.297 36.323 374.297 48.052 374.298 C 48.684 374.298 49.175 373.806 49.175 373.174 C 49.175 372.565 49.175 371.956 49.175 371.348 C 49.105 364.395 42.854 358.776 35.199 358.776 Z"/>
<path fill="#2dffb3" fill-rule="evenodd" stroke="none" d="M 48.051 337.074 C 48.051 336.699 48.051 336.325 48.051 335.950 C 48.051 328.225 40.607 321.904 31.547 321.904 C 30.774 321.904 30.002 321.904 29.229 321.904 C 20.169 321.904 12.725 328.225 12.725 336.020 C 12.725 336.395 12.725 336.769 12.725 337.144 C 10.407 337.776 8.721 339.673 8.721 342.060 C 8.721 343.957 9.845 345.572 11.460 346.415 C 11.460 346.461 11.460 346.508 11.460 346.555 C 11.460 348.873 13.497 350.769 15.955 350.769 C 19.537 350.769 23.119 350.769 26.701 350.769 C 27.333 351.963 28.667 352.806 30.142 352.806 C 32.249 352.806 34.005 351.191 34.005 349.224 C 34.005 347.258 32.249 345.642 30.142 345.642 C 28.246 345.642 26.701 346.907 26.350 348.592 C 22.885 348.592 19.420 348.592 15.955 348.592 C 14.902 348.592 13.989 347.960 13.708 347.117 C 13.919 347.117 14.059 347.187 14.270 347.187 C 14.597 347.187 14.925 347.187 15.253 347.187 C 15.885 347.187 16.377 346.696 16.377 346.064 C 16.377 343.371 16.377 340.679 16.377 337.987 C 16.377 337.355 15.885 336.863 15.253 336.863 C 15.136 336.863 15.019 336.863 14.902 336.863 C 14.902 336.559 14.902 336.254 14.902 335.950 C 14.902 329.348 21.293 324.011 29.229 324.011 C 30.002 324.011 30.774 324.011 31.547 324.011 C 39.413 324.011 45.874 329.348 45.874 335.950 C 45.874 336.254 45.874 336.559 45.874 336.863 C 45.804 336.863 45.733 336.863 45.664 336.863 C 45.031 336.863 44.540 337.355 44.540 337.987 C 44.539 340.656 44.539 343.324 44.540 345.993 C 44.540 346.626 45.031 347.117 45.664 347.117 C 45.991 347.117 46.319 347.117 46.647 347.117 C 49.667 347.117 52.195 344.800 52.195 341.990 C 52.195 339.673 50.439 337.706 48.051 337.074 Z"/>
<path fill="#5600e3" fill-rule="evenodd" stroke="none" d="M 30.213 354.913 C 28.387 354.913 26.702 354.140 25.648 352.876 C 24.852 352.876 24.056 352.876 23.260 352.876 C 25.297 354.772 27.755 356.037 30.424 356.037 C 37.868 356.037 43.487 346.345 43.487 340.024 C 43.417 333.562 37.588 328.225 30.354 328.225 C 23.190 328.225 17.290 333.562 17.290 340.094 C 17.290 341.990 17.782 344.167 18.695 346.345 C 20.755 346.344 22.815 346.344 24.876 346.345 C 25.929 344.589 27.895 343.395 30.143 343.395 C 33.444 343.395 36.183 345.993 36.183 349.154 C 36.253 352.314 33.514 354.913 30.213 354.913 Z"/>
<path fill="#5600e3" fill-rule="evenodd" stroke="none" d="M 35.199 358.776 C 31.992 358.776 28.784 358.776 25.577 358.776 C 17.922 358.776 11.742 364.395 11.742 371.348 C 11.742 371.956 11.742 372.565 11.742 373.174 C 11.742 373.806 12.233 374.298 12.865 374.298 C 24.594 374.297 36.323 374.297 48.052 374.298 C 48.684 374.298 49.175 373.806 49.175 373.174 C 49.175 372.565 49.175 371.956 49.175 371.348 C 49.105 364.395 42.854 358.776 35.199 358.776 Z"/>
<path fill="#2dffb3" fill-rule="evenodd" stroke="none" d="M 48.051 337.074 C 48.051 336.699 48.051 336.325 48.051 335.950 C 48.051 328.225 40.607 321.904 31.547 321.904 C 30.774 321.904 30.002 321.904 29.229 321.904 C 20.169 321.904 12.725 328.225 12.725 336.020 C 12.725 336.395 12.725 336.769 12.725 337.144 C 10.407 337.776 8.721 339.673 8.721 342.060 C 8.721 343.957 9.845 345.572 11.460 346.415 C 11.460 346.461 11.460 346.508 11.460 346.555 C 11.460 348.873 13.497 350.769 15.955 350.769 C 19.537 350.769 23.119 350.769 26.701 350.769 C 27.333 351.963 28.667 352.806 30.142 352.806 C 32.249 352.806 34.005 351.191 34.005 349.224 C 34.005 347.258 32.249 345.642 30.142 345.642 C 28.246 345.642 26.701 346.907 26.350 348.592 C 22.885 348.592 19.420 348.592 15.955 348.592 C 14.902 348.592 13.989 347.960 13.708 347.117 C 13.919 347.117 14.059 347.187 14.270 347.187 C 14.597 347.187 14.925 347.187 15.253 347.187 C 15.885 347.187 16.377 346.696 16.377 346.064 C 16.377 343.371 16.377 340.679 16.377 337.987 C 16.377 337.355 15.885 336.863 15.253 336.863 C 15.136 336.863 15.019 336.863 14.902 336.863 C 14.902 336.559 14.902 336.254 14.902 335.950 C 14.902 329.348 21.293 324.011 29.229 324.011 C 30.002 324.011 30.774 324.011 31.547 324.011 C 39.413 324.011 45.874 329.348 45.874 335.950 C 45.874 336.254 45.874 336.559 45.874 336.863 C 45.804 336.863 45.733 336.863 45.664 336.863 C 45.031 336.863 44.540 337.355 44.540 337.987 C 44.539 340.656 44.539 343.324 44.540 345.993 C 44.540 346.626 45.031 347.117 45.664 347.117 C 45.991 347.117 46.319 347.117 46.647 347.117 C 49.667 347.117 52.195 344.800 52.195 341.990 C 52.195 339.673 50.439 337.706 48.051 337.074 Z"/>
<path fill="#5600e3" fill-rule="evenodd" stroke="none" d="M 30.213 354.913 C 28.387 354.913 26.702 354.140 25.648 352.876 C 24.852 352.876 24.056 352.876 23.260 352.876 C 25.297 354.772 27.755 356.037 30.424 356.037 C 37.868 356.037 43.487 346.345 43.487 340.024 C 43.417 333.562 37.588 328.225 30.354 328.225 C 23.190 328.225 17.290 333.562 17.290 340.094 C 17.290 341.990 17.782 344.167 18.695 346.345 C 20.755 346.344 22.815 346.344 24.876 346.345 C 25.929 344.589 27.895 343.395 30.143 343.395 C 33.444 343.395 36.183 345.993 36.183 349.154 C 36.253 352.314 33.514 354.913 30.213 354.913 Z"/>
<path fill="#5600e3" fill-rule="evenodd" stroke="none" d="M 53.422 276.170 C 53.421 285.515 53.421 294.860 53.422 304.205 C 53.422 305.895 52.017 307.353 50.260 307.353 C 36.753 307.352 23.247 307.352 9.740 307.353 C 8.042 307.353 6.578 305.954 6.578 304.205 C 6.578 294.860 6.578 285.515 6.578 276.170 C 6.578 274.479 7.984 273.022 9.740 273.022 C 23.247 273.022 36.753 273.022 50.260 273.022 C 51.958 273.022 53.422 274.421 53.422 276.170 M 6.578 266.844 C 6.578 265.095 8.042 263.697 9.740 263.697 C 11.438 263.697 12.902 265.095 12.902 266.844 C 12.902 268.593 11.497 269.991 9.740 269.991 C 7.984 269.991 6.578 268.593 6.578 266.844 M 16.005 266.844 C 16.005 265.095 17.411 263.697 19.167 263.697 C 20.865 263.697 22.329 265.095 22.329 266.844 C 22.329 268.593 20.924 269.991 19.167 269.991 C 17.411 269.991 16.005 268.593 16.005 266.844 M 56.525 266.786 C 56.525 263.347 53.715 260.549 50.260 260.549 C 36.753 260.549 23.247 260.549 9.740 260.549 C 6.285 260.549 3.475 263.347 3.475 266.786 C 3.475 279.259 3.475 291.732 3.475 304.205 C 3.475 307.644 6.285 310.442 9.740 310.442 C 23.247 310.441 36.753 310.441 50.260 310.442 C 53.715 310.442 56.525 307.644 56.525 304.205 C 56.525 291.732 56.525 279.259 56.525 266.786 Z"/>
<path fill="#2dffb3" fill-rule="evenodd" stroke="none" d="M 44.112 286.311 C 43.000 286.311 41.946 286.952 41.477 287.885 C 41.321 287.885 41.165 287.885 41.009 287.885 C 41.008 285.806 41.008 283.727 41.009 281.648 C 41.009 279.958 39.604 278.501 37.847 278.501 C 35.758 278.501 33.670 278.501 31.582 278.501 C 31.581 278.656 31.581 278.812 31.582 278.967 C 34.392 280.366 33.280 284.737 30.001 284.737 C 26.839 284.737 25.609 280.541 28.420 278.967 C 28.419 278.812 28.419 278.656 28.420 278.501 C 26.331 278.501 24.243 278.501 22.154 278.501 C 20.456 278.501 18.992 279.900 18.992 281.648 C 18.992 283.727 18.992 285.806 18.992 287.885 C 18.836 287.885 18.680 287.885 18.524 287.885 C 18.056 286.952 16.943 286.311 15.889 286.311 C 14.191 286.311 12.727 287.710 12.727 289.459 C 12.727 291.149 14.132 292.606 15.889 292.606 C 17.002 292.606 18.056 291.965 18.524 291.032 C 18.680 291.032 18.836 291.032 18.992 291.032 C 18.992 293.111 18.992 295.190 18.992 297.269 C 18.992 298.959 20.398 300.416 22.154 300.416 C 24.243 300.416 26.331 300.416 28.420 300.416 C 28.419 300.260 28.419 300.105 28.420 299.950 C 28.127 299.775 27.951 299.659 27.775 299.484 C 25.902 297.619 27.131 294.180 29.942 294.180 C 33.104 294.180 34.334 298.376 31.523 299.950 C 31.523 300.105 31.523 300.260 31.523 300.416 C 33.611 300.416 35.700 300.416 37.788 300.416 C 39.486 300.416 40.950 299.017 40.950 297.269 C 40.950 295.170 40.950 293.072 40.950 290.974 C 41.106 290.974 41.262 290.974 41.419 290.974 C 41.887 291.907 43.000 292.548 44.054 292.548 C 45.752 292.548 47.216 291.149 47.216 289.400 C 47.274 287.710 45.869 286.311 44.112 286.311 Z"/>
<path fill="#5600e3" fill-rule="evenodd" stroke="none" d="M 25.345 222.275 C 25.345 223.371 24.980 224.345 24.188 225.076 C 23.396 225.868 22.483 226.233 21.386 226.233 C 20.290 226.233 19.377 225.868 18.585 225.076 C 17.793 224.284 17.428 223.371 17.428 222.275 C 17.428 221.178 17.793 220.265 18.585 219.473 C 19.377 218.681 20.290 218.316 21.386 218.316 C 22.483 218.316 23.396 218.681 24.188 219.473 C 24.980 220.265 25.345 221.178 25.345 222.275 M 31.252 220.813 C 31.252 220.752 31.191 220.630 31.131 220.508 C 31.070 220.448 30.948 220.326 30.887 220.326 C 30.115 220.204 29.344 220.082 28.573 219.960 C 28.451 219.595 28.329 219.169 28.086 218.681 C 28.268 218.438 28.451 218.133 28.816 217.768 C 29.121 217.402 29.304 217.098 29.486 216.976 C 29.547 216.854 29.608 216.793 29.608 216.672 C 29.608 216.428 28.877 215.575 27.355 214.236 C 27.233 214.175 27.172 214.114 27.050 214.114 C 26.928 214.114 26.807 214.175 26.746 214.236 C 26.136 214.682 25.527 215.129 24.919 215.575 C 24.492 215.332 24.127 215.210 23.762 215.088 C 23.640 214.317 23.518 213.545 23.396 212.774 C 23.396 212.652 23.335 212.591 23.213 212.530 C 23.153 212.469 23.031 212.409 22.909 212.409 C 21.955 212.408 21.000 212.408 20.047 212.409 C 19.803 212.409 19.681 212.530 19.559 212.774 C 19.438 213.261 19.316 214.053 19.194 215.149 C 18.768 215.332 18.341 215.454 18.037 215.636 C 17.428 215.169 16.819 214.702 16.210 214.236 C 16.088 214.175 16.027 214.114 15.905 214.114 C 15.722 214.114 15.296 214.418 14.687 215.027 C 14.078 215.636 13.652 216.063 13.408 216.367 C 13.347 216.428 13.286 216.550 13.286 216.672 C 13.286 216.733 13.347 216.854 13.408 216.976 C 14.017 217.707 14.444 218.255 14.809 218.803 C 14.565 219.229 14.444 219.595 14.322 219.960 C 13.530 220.082 12.738 220.204 11.947 220.326 C 11.886 220.326 11.764 220.387 11.703 220.508 C 11.642 220.630 11.581 220.691 11.581 220.813 C 11.581 221.767 11.581 222.721 11.581 223.675 C 11.581 223.797 11.642 223.858 11.703 223.980 C 11.764 224.041 11.886 224.162 11.947 224.162 C 12.718 224.284 13.489 224.406 14.261 224.528 C 14.383 224.893 14.565 225.320 14.809 225.807 C 14.626 226.050 14.444 226.355 14.078 226.720 C 13.774 227.086 13.530 227.390 13.469 227.512 C 13.408 227.634 13.347 227.695 13.347 227.817 C 13.347 228.060 14.078 228.913 15.601 230.253 C 15.722 230.314 15.783 230.374 15.905 230.374 C 16.027 230.374 16.149 230.314 16.210 230.253 C 16.819 229.806 17.428 229.359 18.037 228.913 C 18.463 229.156 18.829 229.278 19.194 229.400 C 19.316 230.191 19.437 230.983 19.559 231.775 C 19.559 231.897 19.620 231.958 19.742 232.019 C 19.803 232.080 19.925 232.141 20.047 232.141 C 21.000 232.140 21.955 232.140 22.909 232.141 C 23.153 232.141 23.274 232.019 23.396 231.775 C 23.518 231.288 23.640 230.496 23.762 229.400 C 24.188 229.278 24.553 229.156 24.919 228.913 C 25.527 229.379 26.136 229.846 26.746 230.314 C 26.868 230.374 26.928 230.435 27.050 230.435 C 27.233 230.435 27.659 230.131 28.268 229.522 C 28.877 228.913 29.304 228.426 29.547 228.182 C 29.486 228.060 29.547 227.999 29.547 227.817 C 29.547 227.695 29.486 227.634 29.425 227.512 C 28.816 226.781 28.390 226.233 28.025 225.685 C 28.268 225.259 28.390 224.893 28.512 224.528 C 29.303 224.406 30.095 224.284 30.887 224.162 C 30.948 224.162 31.070 224.102 31.131 223.980 C 31.191 223.858 31.252 223.797 31.252 223.675 C 31.252 222.721 31.252 221.767 31.252 220.813 Z"/>
<path fill="#2dffb3" fill-rule="evenodd" stroke="none" d="M 42.546 218.235 C 46.623 214.158 50.699 210.082 54.776 206.005 C 52.982 204.211 51.187 202.416 49.393 200.622 C 45.316 204.699 41.240 208.775 37.163 212.852 C 38.957 214.646 40.752 216.441 42.546 218.235 Z"/>
<path fill="#2dffb3" fill-rule="evenodd" stroke="none" d="M 33.201 220.872 C 33.018 221.664 33.749 222.456 34.541 222.212 C 36.164 221.847 37.788 221.481 39.413 221.116 C 39.596 221.055 39.839 220.933 39.961 220.812 C 40.387 220.385 40.813 219.959 41.240 219.533 C 39.453 217.746 37.667 215.960 35.881 214.173 C 35.454 214.599 35.028 215.026 34.602 215.452 C 34.480 215.635 34.358 215.818 34.297 216.000 C 33.931 217.624 33.566 219.248 33.201 220.872 Z"/>
<path fill="#5600e3" fill-rule="evenodd" stroke="none" d="M 6.039 203.821 C 6.039 202.907 6.770 202.237 7.622 202.237 C 8.475 202.237 9.206 202.968 9.206 203.821 C 9.206 204.673 8.475 205.404 7.622 205.404 C 6.770 205.404 6.039 204.673 6.039 203.821 M 12.129 203.821 C 12.129 202.907 12.860 202.237 13.712 202.237 C 14.565 202.237 15.296 202.968 15.296 203.821 C 15.296 204.673 14.565 205.404 13.712 205.404 C 12.860 205.404 12.129 204.673 12.129 203.821 M 18.219 203.821 C 18.219 202.907 18.950 202.237 19.802 202.237 C 20.655 202.237 21.386 202.968 21.386 203.821 C 21.386 204.673 20.655 205.404 19.802 205.404 C 18.950 205.404 18.219 204.673 18.219 203.821 M 48.670 215.087 C 48.669 222.558 48.669 230.028 48.670 237.499 C 34.459 237.499 20.249 237.499 6.039 237.499 C 6.039 227.897 6.039 218.295 6.039 208.693 C 16.838 208.693 27.638 208.693 38.438 208.693 C 41.564 205.546 44.690 202.399 47.817 199.253 C 47.999 199.070 48.182 198.888 48.365 198.705 C 33.891 198.704 19.417 198.705 4.943 198.705 C 3.237 198.705 1.897 200.106 1.897 201.750 C 1.897 213.950 1.897 226.151 1.897 238.352 C 1.897 240.057 3.298 241.397 4.943 241.397 C 19.884 241.396 34.824 241.396 49.766 241.397 C 51.471 241.397 52.811 239.996 52.811 238.352 C 52.811 229.216 52.811 220.081 52.811 210.946 C 51.430 212.326 50.050 213.707 48.670 215.087 Z"/>
<path fill="#2dffb3" fill-rule="evenodd" stroke="none" d="M 58.475 200.715 C 57.216 199.456 55.957 198.198 54.699 196.939 C 54.273 196.513 53.542 196.513 53.055 196.939 C 52.283 197.710 51.511 198.482 50.740 199.253 C 52.526 201.040 54.313 202.826 56.100 204.613 C 56.871 203.841 57.642 203.070 58.414 202.298 C 58.901 201.872 58.901 201.141 58.475 200.715 Z"/>
<path fill="#5600e3" fill-rule="evenodd" stroke="none" d="M 34.807 176.747 C 34.807 177.411 34.360 177.853 33.689 177.853 C 31.211 177.853 28.733 177.853 26.255 177.853 C 25.584 177.853 25.137 177.411 25.137 176.747 C 25.137 176.083 25.584 175.640 26.255 175.640 C 28.733 175.640 31.211 175.640 33.689 175.640 C 34.360 175.640 34.807 176.083 34.807 176.747 M 56.942 172.653 C 38.980 172.653 21.019 172.653 3.058 172.653 C 3.058 174.275 3.058 175.898 3.058 177.521 C 3.058 179.402 4.512 180.840 6.412 180.840 C 22.137 180.840 37.862 180.840 53.588 180.840 C 55.488 180.840 56.942 179.402 56.942 177.521 C 56.941 175.898 56.941 174.275 56.942 172.653 Z"/>
<path fill="#5600e3" fill-rule="evenodd" stroke="none" d="M 49.787 164.852 C 49.824 164.852 49.861 164.852 49.899 164.852 C 36.651 164.852 23.404 164.852 10.157 164.852 C 10.157 156.775 10.157 148.699 10.157 140.622 C 23.367 140.622 36.576 140.622 49.787 140.622 C 49.786 148.699 49.786 156.775 49.787 164.852 M 54.258 139.516 C 54.295 139.516 54.332 139.516 54.370 139.516 C 54.370 137.635 52.917 136.197 51.016 136.197 C 37.005 136.197 22.994 136.197 8.983 136.197 C 7.083 136.197 5.629 137.635 5.629 139.516 C 5.629 149.473 5.629 159.431 5.629 169.389 C 21.839 169.388 38.048 169.388 54.258 169.389 C 54.258 159.431 54.258 149.473 54.258 139.516 Z"/>
<path fill="#2dffb3" fill-rule="evenodd" stroke="none" d="M 32.571 158.546 C 32.795 159.099 33.577 159.209 33.801 158.656 C 34.248 157.808 34.695 156.960 35.142 156.112 C 36.819 157.771 38.496 159.431 40.173 161.090 C 41.141 160.131 42.110 159.172 43.079 158.214 C 41.402 156.554 39.725 154.894 38.049 153.235 C 38.906 152.792 39.763 152.350 40.620 151.907 C 41.179 151.686 41.067 150.912 40.508 150.690 C 36.800 149.399 33.093 148.109 29.385 146.818 C 28.826 146.597 28.267 147.150 28.491 147.703 C 29.851 151.317 31.211 154.931 32.571 158.546 Z"/>
<path fill="#5600e3" fill-rule="evenodd" stroke="none" d="M 33.465 90.379 C 33.260 90.224 33.003 90.173 32.746 90.173 C 32.643 90.173 32.541 90.173 32.438 90.224 C 32.078 90.276 31.770 90.534 31.565 90.844 C 31.359 91.154 31.308 91.515 31.359 91.876 C 31.410 92.238 31.667 92.547 31.976 92.754 C 32.284 92.960 32.643 93.012 33.003 92.960 C 33.362 92.909 33.671 92.651 33.876 92.341 C 34.081 92.031 34.133 91.670 34.081 91.308 C 34.030 90.947 33.722 90.586 33.465 90.379 Z"/>
<path fill="#5600e3" fill-rule="evenodd" stroke="none" d="M 35.006 89.502 C 35.366 89.863 35.622 90.328 35.725 90.844 C 35.931 91.670 35.777 92.496 35.314 93.167 C 34.903 93.890 34.184 94.406 33.362 94.561 C 33.157 94.613 32.900 94.613 32.695 94.613 C 32.386 94.613 32.130 94.561 31.821 94.509 C 31.393 95.180 30.965 95.851 30.537 96.523 C 30.058 96.213 29.578 95.903 29.099 95.594 C 29.527 94.922 29.955 94.251 30.383 93.580 C 30.024 93.219 29.818 92.754 29.664 92.238 C 29.459 91.412 29.613 90.586 30.075 89.915 C 30.537 89.192 31.205 88.728 32.027 88.521 C 32.540 88.418 33.105 88.418 33.619 88.573 C 34.852 87.213 36.084 85.854 37.318 84.494 C 36.547 86.163 35.776 87.833 35.006 89.502 M 42.608 91.515 C 42.608 86.043 38.191 81.604 32.695 81.604 C 27.250 81.604 22.832 86.043 22.832 91.515 C 22.832 96.987 27.250 101.427 32.695 101.427 C 38.139 101.427 42.608 96.987 42.608 91.515 Z"/>
<path fill="#2dffb3" fill-rule="evenodd" stroke="none" d="M 24.168 82.635 C 19.562 82.635 14.956 82.635 10.350 82.635 C 10.350 83.582 10.350 84.528 10.350 85.475 C 14.956 85.475 19.562 85.475 24.168 85.475 C 24.168 84.528 24.168 83.582 24.168 82.635 Z"/>
<path fill="#2dffb3" fill-rule="evenodd" stroke="none" d="M 24.168 97.607 C 19.562 97.606 14.956 97.606 10.350 97.607 C 10.350 98.553 10.350 99.499 10.350 100.446 C 14.956 100.446 19.562 100.446 24.168 100.446 C 24.168 99.499 24.168 98.553 24.168 97.607 Z"/>
<path fill="#5600e3" fill-rule="evenodd" stroke="none" d="M 17.336 86.714 C 16.685 86.714 16.035 86.714 15.384 86.714 C 15.384 87.437 15.384 88.160 15.384 88.883 C 16.035 88.882 16.685 88.882 17.336 88.883 C 17.336 88.160 17.336 87.437 17.336 86.714 Z"/>
<path fill="#5600e3" fill-rule="evenodd" stroke="none" d="M 35.263 110.409 C 35.263 110.926 34.800 111.390 34.287 111.390 C 33.242 111.390 32.197 111.390 31.153 111.390 C 30.640 111.390 30.177 110.977 30.177 110.409 C 30.177 109.893 30.588 109.428 31.153 109.428 C 32.197 109.428 33.242 109.428 34.287 109.428 C 34.800 109.428 35.263 109.841 35.263 110.409 M 37.625 72.621 C 37.574 73.137 37.163 73.601 36.649 73.601 C 34.029 73.601 31.410 73.601 28.790 73.601 C 28.277 73.601 27.815 73.188 27.815 72.621 C 27.814 72.104 28.225 71.640 28.790 71.640 C 31.410 71.640 34.029 71.640 36.649 71.640 C 37.214 71.640 37.625 72.053 37.625 72.621 M 25.863 72.621 C 25.811 72.879 25.708 73.137 25.554 73.292 C 25.349 73.447 25.143 73.550 24.887 73.550 C 24.630 73.550 24.373 73.447 24.219 73.292 C 24.013 73.085 23.911 72.879 23.911 72.621 C 23.911 72.362 24.013 72.104 24.219 71.949 C 24.578 71.588 25.195 71.588 25.606 71.949 C 25.811 72.156 25.863 72.362 25.863 72.621 M 50.005 72.104 C 50.005 69.988 48.258 68.233 46.152 68.233 C 37.197 68.233 28.242 68.233 19.288 68.233 C 17.130 68.233 15.384 69.988 15.384 72.104 C 15.384 75.202 15.384 78.299 15.384 81.397 C 16.035 81.397 16.685 81.397 17.336 81.397 C 17.336 79.934 17.336 78.471 17.336 77.009 C 27.592 77.009 37.848 77.009 48.104 77.009 C 48.104 86.662 48.104 96.316 48.104 105.970 C 37.848 105.969 27.592 105.969 17.336 105.970 C 17.336 104.507 17.336 103.044 17.336 101.582 C 16.685 101.581 16.035 101.581 15.384 101.582 C 15.384 104.679 15.384 107.776 15.384 110.874 C 15.384 113.042 17.130 114.746 19.236 114.746 C 28.208 114.745 37.180 114.745 46.152 114.746 C 48.258 114.746 50.005 112.991 50.005 110.874 C 50.004 109.566 50.004 108.258 50.005 106.951 C 50.004 96.660 50.004 86.370 50.005 76.079 C 50.004 74.754 50.004 73.429 50.005 72.104 Z"/>
<path fill="#5600e3" fill-rule="evenodd" stroke="none" d="M 17.336 94.148 C 16.685 94.148 16.035 94.148 15.384 94.148 C 15.384 94.871 15.384 95.593 15.384 96.316 C 16.035 96.316 16.685 96.316 17.336 96.316 C 17.336 95.593 17.336 94.871 17.336 94.148 Z"/>
<path fill="#2dffb3" fill-rule="evenodd" stroke="none" d="M 20.983 90.122 C 16.377 90.121 11.771 90.121 7.166 90.122 C 7.166 91.068 7.166 92.014 7.166 92.961 C 11.771 92.961 16.377 92.961 20.983 92.961 C 20.983 92.014 20.983 91.068 20.983 90.122 Z"/>
</g>
<g id="Frame.svg">
<path fill="#5600e3" fill-rule="evenodd" stroke="none" d="M 50.443 15.681 C 50.443 16.551 49.749 17.247 48.882 17.247 C 42.578 17.247 36.274 17.247 29.971 17.247 C 29.104 17.247 28.410 16.551 28.410 15.681 C 28.410 14.810 29.104 14.114 29.971 14.114 C 36.274 14.114 42.578 14.114 48.882 14.114 C 49.749 14.114 50.443 14.810 50.443 15.681 M 25.287 15.681 C 25.287 16.551 24.593 17.247 23.725 17.247 C 22.858 17.247 22.164 16.551 22.164 15.681 C 22.164 14.810 22.858 14.114 23.725 14.114 C 24.593 14.114 25.287 14.810 25.287 15.681 M 18.925 15.623 C 18.925 16.493 18.231 17.189 17.364 17.189 C 16.496 17.189 15.802 16.493 15.802 15.623 C 15.802 14.752 16.496 14.056 17.364 14.056 C 18.231 14.056 18.925 14.752 18.925 15.623 M 12.622 15.623 C 12.622 16.493 11.928 17.247 11.060 17.247 C 10.193 17.247 9.499 16.551 9.499 15.681 C 9.499 14.810 10.193 14.056 11.060 14.056 C 11.928 14.056 12.622 14.752 12.622 15.623 M 55.301 10.865 C 55.243 9.067 53.855 7.674 52.120 7.674 C 37.373 7.674 22.626 7.674 7.880 7.674 C 6.145 7.674 4.699 9.125 4.699 10.865 C 4.699 23.532 4.699 36.198 4.699 48.865 C 4.699 50.606 6.145 52.056 7.880 52.056 C 8.226 52.056 8.573 52.056 8.920 52.056 C 8.978 51.998 9.094 51.998 9.210 51.940 C 10.000 51.147 10.790 50.354 11.581 49.561 C 11.812 49.329 11.639 48.865 11.292 48.865 C 10.270 48.865 9.248 48.865 8.226 48.865 C 7.995 48.865 7.822 48.691 7.822 48.459 C 7.822 40.298 7.822 32.137 7.822 23.977 C 7.822 23.745 7.995 23.571 8.226 23.571 C 22.703 23.570 37.180 23.570 51.658 23.571 C 51.889 23.571 52.063 23.745 52.063 23.977 C 52.062 32.157 52.062 40.337 52.063 48.517 C 52.063 48.749 51.889 48.923 51.658 48.923 C 42.578 48.923 35.465 48.923 25.692 48.923 C 25.634 48.923 25.460 48.981 25.402 49.039 C 24.612 49.832 23.821 50.624 23.031 51.418 C 22.800 51.650 22.973 52.114 23.320 52.114 C 32.920 52.114 42.520 52.114 52.120 52.114 C 53.855 52.114 55.301 50.722 55.301 48.923 C 55.301 36.237 55.301 23.551 55.301 10.865 Z"/>
<path fill="#2dffb3" fill-rule="evenodd" stroke="none" d="M 29.103 45.326 C 29.739 45.964 30.723 45.964 31.359 45.326 C 33.691 42.986 36.023 40.646 38.356 38.306 C 39.898 39.853 41.440 41.400 42.983 42.948 C 43.503 43.470 44.313 43.122 44.313 42.368 C 44.312 38.500 44.312 34.632 44.313 30.765 C 44.313 30.300 43.966 29.952 43.503 29.952 C 39.667 29.952 35.831 29.952 31.995 29.952 C 31.301 29.952 30.954 30.822 31.417 31.287 C 32.978 32.853 34.539 34.419 36.101 35.986 C 34.134 37.977 32.168 39.969 30.202 41.961 C 29.469 41.226 28.737 40.491 28.004 39.757 C 27.368 39.119 26.385 39.119 25.749 39.757 C 20.968 44.552 16.188 49.348 11.407 54.145 C 10.771 54.783 10.771 55.769 11.407 56.407 C 12.043 57.045 13.026 57.045 13.662 56.407 C 18.077 51.978 22.491 47.550 26.906 43.122 C 27.638 43.856 28.370 44.591 29.103 45.326 Z"/>
</g>
</svg>
