<svg id="eaevU0mWkBw1" xmlns="http://www.w3.org/2000/svg" xmlns:xlink="http://www.w3.org/1999/xlink" viewBox="0 0 78 86" shape-rendering="geometricPrecision" text-rendering="geometricPrecision"><style><![CDATA[#eaevU0mWkBw1{pointer-events: all}#eaevU0mWkBw1.hover #eaevU0mWkBw3_ts {animation: eaevU0mWkBw3_ts__ts 3000ms linear infinite normal forwards}@keyframes eaevU0mWkBw3_ts__ts { 0% {transform: translate(23.800000px,83.900600px) scale(1,1)} 10% {transform: translate(23.800000px,83.900600px) scale(1,1)} 16.666667% {transform: translate(23.800000px,83.900600px) scale(1.064470,0.953034)} 23.333333% {transform: translate(23.800000px,83.900600px) scale(0.907900,1.024660)} 30% {transform: translate(23.800000px,83.900600px) scale(1,1)} 100% {transform: translate(23.800000px,83.900600px) scale(1,1)}} #eaevU0mWkBw1.hover #eaevU0mWkBw6_ts {animation: eaevU0mWkBw6_ts__ts 3000ms linear infinite normal forwards}@keyframes eaevU0mWkBw6_ts__ts { 0% {transform: translate(59.153003px,83.900600px) scale(1,1)} 66.666667% {transform: translate(59.153003px,83.900600px) scale(1,1)} 73.333333% {transform: translate(59.153003px,83.900600px) scale(1.104110,0.941688)} 80% {transform: translate(59.153003px,83.900600px) scale(0.981215,1.050090)} 86.666667% {transform: translate(59.153003px,83.900600px) scale(1,1)} 100% {transform: translate(59.153003px,83.900600px) scale(1,1)}} #eaevU0mWkBw1.hover #eaevU0mWkBw9_ts {animation: eaevU0mWkBw9_ts__ts 3000ms linear infinite normal forwards}@keyframes eaevU0mWkBw9_ts__ts { 0% {transform: translate(51.850504px,17.487352px) scale(1,1)} 36.666667% {transform: translate(51.850504px,17.487352px) scale(1,1)} 43.333333% {transform: translate(51.850504px,17.487352px) scale(0.687514,0.687514)} 50% {transform: translate(51.850504px,17.487352px) scale(1.063585,1.063585)} 56.666667% {transform: translate(51.850504px,17.487352px) scale(1,1)} 100% {transform: translate(51.850504px,17.487352px) scale(1,1)}}]]></style><g id="eaevU0mWkBw2" transform="matrix(1 0 0 1 2.14930343500000 2.06239891000001)"><g id="eaevU0mWkBw3_ts" transform="translate(23.800000,83.900600) scale(1,1)"><g id="eaevU0mWkBw3" transform="translate(-23.800000,-83.900600)"><path id="eaevU0mWkBw4" d="M0,73.100600L0,83.900600L47.700000,83.900600L47.700000,73.100600C47.700000,66.600600,42.700000,61.600600,36.200000,61.600600L11.600000,61.600600C5.400000,61.600600,0,66.700600,0,73.100600Z" fill="rgb(86,0,227)" stroke="none" stroke-width="1"/><path id="eaevU0mWkBw5" d="M23.800000,56.800200C31.100000,56.800200,37.100000,50.800200,37.100000,43.500200C37.100000,36.200200,31.100000,30.200200,23.800000,30.200200C16.500000,30.200200,10.500000,36.200200,10.500000,43.500200C10.600000,50.800200,16.500000,56.800200,23.800000,56.800200Z" fill="rgb(86,0,227)" stroke="none" stroke-width="1"/></g></g><g id="eaevU0mWkBw6_ts" transform="translate(59.153003,83.900600) scale(1,1)"><g id="eaevU0mWkBw6" transform="translate(-59.153003,-83.900600)"><path id="eaevU0mWkBw7" d="M54.999600,58.800000C60.799600,58.800000,65.399600,54,65.399600,48.400000C65.399600,42.800000,60.599600,38,54.999600,38C49.199600,38,44.599600,42.800000,44.599600,48.400000C44.599600,54,49.199600,58.800000,54.999600,58.800000Z" fill="rgb(86,0,227)" stroke="none" stroke-width="1"/><path id="eaevU0mWkBw8" d="M64.599600,62.600600L46.599600,62.600600C49.599600,65.200600,51.399600,69.000600,51.399600,73.300600L51.799600,83.900600L73.699600,83.900600L73.699600,71.700600C73.799600,66.600600,69.699600,62.600600,64.599600,62.600600Z" fill="rgb(86,0,227)" stroke="none" stroke-width="1"/></g></g><g id="eaevU0mWkBw9_ts" transform="translate(51.850504,17.487352) scale(1,1)"><path id="eaevU0mWkBw9" d="M66.900300,11.600100C64.700300,3.200120,56.100300,-1.699880,47.900300,0.500122C39.600300,2.700120,34.600300,11.200100,36.800300,19.500100C37.900300,23.500100,40.300300,26.600100,43.500300,28.700100L39.400300,35.000100L55.900300,30.700100C64.100300,28.500100,69.100300,19.900100,66.900300,11.600100Z" transform="translate(-51.850504,-17.487352)" fill="rgb(45,255,179)" stroke="none" stroke-width="1"/></g></g></svg>         