<svg id="eio9VrMY6kn1" xmlns="http://www.w3.org/2000/svg" xmlns:xlink="http://www.w3.org/1999/xlink" viewBox="0 0 60 60" shape-rendering="geometricPrecision" text-rendering="geometricPrecision"><style><![CDATA[#eio9VrMY6kn1{pointer-events: all}#eio9VrMY6kn1.hover #eio9VrMY6kn2_ts {animation: eio9VrMY6kn2_ts__ts 2100ms linear 1 normal forwards}@keyframes eio9VrMY6kn2_ts__ts { 0% {transform: translate(30px,30px) scale(1.000013,1.000013);animation-timing-function: step-end} 76.190476% {transform: translate(30px,30px) scale(1.000013,1.000013)} 80.952381% {transform: translate(30px,30px) scale(0.884116,0.884116)} 85.714286% {transform: translate(30px,30px) scale(1.059563,1.059563)} 95.238095% {transform: translate(30px,30px) scale(0.999900,0.999900)} 100% {transform: translate(30px,30px) scale(0.999900,0.999900)}} #eio9VrMY6kn1.hover #eio9VrMY6kn3_ts {animation: eio9VrMY6kn3_ts__ts 2100ms linear 1 normal forwards}@keyframes eio9VrMY6kn3_ts__ts { 0% {transform: translate(27.066730px,30.705000px) scale(1,1);animation-timing-function: step-end} 4.761905% {transform: translate(27.066730px,30.705000px) scale(0.021536,0.021536);animation-timing-function: step-end} 14.285714% {transform: translate(27.066730px,30.705000px) scale(1.198800,1.198800)} 23.809524% {transform: translate(27.066730px,30.705000px) scale(0.999777,0.999777)} 100% {transform: translate(27.066730px,30.705000px) scale(0.999777,0.999777)}} #eio9VrMY6kn1.hover #eio9VrMY6kn6_ts {animation: eio9VrMY6kn6_ts__ts 2100ms linear 1 normal forwards}@keyframes eio9VrMY6kn6_ts__ts { 0% {transform: translate(10.598574px,20.180218px) scale(1,1);animation-timing-function: step-end} 4.761905% {transform: translate(10.598574px,20.180218px) scale(0.016100,0.016100);animation-timing-function: step-end} 28.571429% {transform: translate(10.598574px,20.180218px) scale(1.178589,1.178589)} 38.095238% {transform: translate(10.598574px,20.180218px) scale(0.999995,0.999995)} 100% {transform: translate(10.598574px,20.180218px) scale(0.999995,0.999995)}} #eio9VrMY6kn1.hover #eio9VrMY6kn9_ts {animation: eio9VrMY6kn9_ts__ts 2100ms linear 1 normal forwards}@keyframes eio9VrMY6kn9_ts__ts { 0% {transform: translate(43.402489px,20.201099px) scale(1,1);animation-timing-function: step-end} 4.761905% {transform: translate(43.402489px,20.201099px) scale(0.016046,0.016046);animation-timing-function: step-end} 42.857143% {transform: translate(43.402489px,20.201099px) scale(1.214868,1.214868)} 52.380952% {transform: translate(43.402489px,20.201099px) scale(1.000448,1.000448)} 100% {transform: translate(43.402489px,20.201099px) scale(1.000448,1.000448)}}]]></style><g id="eio9VrMY6kn2_ts" transform="translate(30,30) scale(1.000013,1.000013)"><g id="eio9VrMY6kn2" transform="translate(-26.986560,-24.630001)"><g id="eio9VrMY6kn3_ts" transform="translate(27.066730,30.705000) scale(1,1)"><g id="eio9VrMY6kn3" transform="translate(-27.066730,-30.705000)"><path id="eio9VrMY6kn4" d="M27,49.260000L16,49.260000C14.220000,49.260000,13.540000,48.560000,13.540000,46.730000C13.540000,43.630000,13.540000,43.730000,13.540000,40.600000C13.540000,34.600000,17.770000,30.250000,23.540000,30.250000L30.880000,30.250000C33.511882,30.281205,36.021316,31.366582,37.846413,33.263105C39.671511,35.159627,40.659802,37.708858,40.590000,40.340000C40.590000,43.570000,40.590000,43.630000,40.590000,46.860000C40.590000,48.510000,39.860000,49.240000,38.270000,49.240000C34.470000,49.260000,30.730000,49.260000,27,49.260000Z" fill="rgb(45,255,179)" fill-rule="evenodd" stroke="none" stroke-width="1"/><path id="eio9VrMY6kn5" d="M27,28.240000C22.654589,28.109266,19.229105,24.496207,19.330000,20.150000C19.268497,15.819123,22.709803,12.248377,27.040000,12.150000C29.144285,12.197050,31.142792,13.081887,32.592133,14.608202C34.041475,16.134516,34.821805,18.176097,34.760000,20.280000C34.793582,24.612282,31.331734,28.163353,27,28.240000Z" fill="rgb(45,255,179)" fill-rule="evenodd" stroke="none" stroke-width="1"/></g></g><g id="eio9VrMY6kn6_ts" transform="translate(10.598574,20.180218) scale(1,1)"><g id="eio9VrMY6kn6" transform="translate(-10.598574,-20.180218)"><path id="eio9VrMY6kn7" d="M15.590000,18.160000C15.101807,21.383257,15.855988,24.671629,17.700000,27.360000C12.620000,30.030000,9.920000,34.360000,9.600000,40.360000L4,40.360000C3.300000,40.360000,2.590000,40.360000,1.890000,40.360000C1.394186,40.370729,0.914824,40.181941,0.559479,39.835997C0.204135,39.490053,0.002565,39.015924,0,38.520000C0,34.460000,-0.170000,30.380000,0.220000,26.340000C0.796647,21.858963,4.488798,18.427533,9,18.180000C11.140000,18.080000,13.300000,18.160000,15.590000,18.160000Z" fill="rgb(86,0,227)" fill-rule="evenodd" stroke="none" stroke-width="1"/><path id="eio9VrMY6kn8" d="M5.800000,8C5.738564,3.665309,9.185870,0.092970,13.520000,0C15.624309,0.044333,17.623427,0.928671,19.071757,2.455899C20.520087,3.983126,21.297243,6.026298,21.230000,8.130000C21.275542,12.443068,17.861335,15.999534,13.550000,16.130000C11.437802,16.098951,9.426760,15.220077,7.969210,13.691060C6.511661,12.162043,5.729984,10.111265,5.800000,8Z" fill="rgb(86,0,227)" fill-rule="evenodd" stroke="none" stroke-width="1"/></g></g><g id="eio9VrMY6kn9_ts" transform="translate(43.402489,20.201099) scale(1,1)"><g id="eio9VrMY6kn9" transform="translate(-43.402489,-20.201099)"><path id="eio9VrMY6kn10" d="M36.370000,27.410000C38.580000,22.870000,38.740000,22.200000,38.480000,18.240000C38.674296,18.196113,38.871456,18.166038,39.070000,18.150000C41.361289,18.061072,43.655914,18.117853,45.940000,18.320000C50.670000,19.020000,53.940000,23.210000,54.010000,28.230000C54.010000,31.460000,54.010000,34.700000,54.010000,37.930000C54.010000,39.530000,53.290000,40.310000,51.780000,40.330000L45.270000,40.330000C45,40.330000,44.730000,40.330000,44.410000,40.270000C44.090000,34.390000,41.460000,30.080000,36.370000,27.410000Z" fill="rgb(86,0,227)" fill-rule="evenodd" stroke="none" stroke-width="1"/><path id="eio9VrMY6kn11" d="M40.500000,16.130000C36.152314,16.020817,32.710547,12.418136,32.800000,8.070000C32.698365,5.247451,34.146202,2.594703,36.575067,1.153271C39.003932,-0.288162,42.026068,-0.288162,44.454933,1.153271C46.883798,2.594703,48.331635,5.247451,48.230000,8.070000C48.275558,10.164394,47.486329,12.190927,46.036294,13.702866C44.586258,15.214805,42.594468,16.088014,40.500000,16.130000Z" fill="rgb(86,0,227)" fill-rule="evenodd" stroke="none" stroke-width="1"/></g></g></g></g></svg>
