<svg id="eHLuVAeh3bf1" xmlns="http://www.w3.org/2000/svg" xmlns:xlink="http://www.w3.org/1999/xlink" viewBox="0 0 59.991000 59.991000" shape-rendering="geometricPrecision" text-rendering="geometricPrecision"><style><![CDATA[#eHLuVAeh3bf1{pointer-events: all}#eHLuVAeh3bf1:hover #eHLuVAeh3bf2_to {animation: eHLuVAeh3bf2_to__to 3000ms linear 1 normal forwards}@keyframes eHLuVAeh3bf2_to__to { 0% {transform: translate(29.995500px,29.995500px);animation-timing-function: step-start} 3.333333% {transform: translate(8.403499px,51.460704px)} 10% {transform: translate(30.381436px,29.606164px)} 16.666667% {transform: translate(29.995500px,29.995500px)} 100% {transform: translate(29.995500px,29.995500px)}} #eHLuVAeh3bf1:hover #eHLuVAeh3bf2_ts {animation: eHLuVAeh3bf2_ts__ts 3000ms linear 1 normal forwards}@keyframes eHLuVAeh3bf2_ts__ts { 0% {transform: scale(1.024395,1.024395);animation-timing-function: step-start} 3.333333% {transform: scale(0.081642,0.081642)} 10% {transform: scale(1.103117,1.103117)} 16.666667% {transform: scale(1.024395,1.024395)} 100% {transform: scale(1.024395,1.024395)}} #eHLuVAeh3bf1:hover #eHLuVAeh3bf3_to {animation: eHLuVAeh3bf3_to__to 3000ms linear 1 normal forwards}@keyframes eHLuVAeh3bf3_to__to { 0% {transform: translate(16.932430px,16.394847px);animation-timing-function: step-start} 3.333333% {transform: translate(32.814698px,33.630857px)} 20% {transform: translate(30.194532px,29.615150px)} 26.666667% {transform: translate(15.496091px,14.926550px)} 33.333333% {transform: translate(16.983230px,16.611587px)} 100% {transform: translate(16.983230px,16.611587px)}} #eHLuVAeh3bf1:hover #eHLuVAeh3bf3_ts {animation: eHLuVAeh3bf3_ts__ts 3000ms linear 1 normal forwards}@keyframes eHLuVAeh3bf3_ts__ts { 0% {transform: scale(1,1);animation-timing-function: step-start} 3.333333% {transform: scale(0.256195,0.268615)} 20% {transform: scale(0.420080,0.440446)} 26.666667% {transform: scale(1.164190,1.164190)} 33.333333% {transform: scale(1,1)} 100% {transform: scale(1,1)}} #eHLuVAeh3bf1:hover #eHLuVAeh3bf4_to {animation: eHLuVAeh3bf4_to__to 3000ms linear 1 normal forwards}@keyframes eHLuVAeh3bf4_to__to { 0% {transform: translate(24.516205px,27.212879px);animation-timing-function: step-start} 3.333333% {transform: translate(32.814698px,33.630857px)} 20% {transform: translate(32.814698px,33.630857px)} 26.666667% {transform: translate(23.624322px,26.669675px)} 33.333333% {transform: translate(24.293152px,27.324405px)} 100% {transform: translate(24.293152px,27.324405px)}} #eHLuVAeh3bf1:hover #eHLuVAeh3bf4_ts {animation: eHLuVAeh3bf4_ts__ts 3000ms linear 1 normal forwards}@keyframes eHLuVAeh3bf4_ts__ts { 0% {transform: scale(1,1);animation-timing-function: step-start} 3.333333% {transform: scale(0.256195,0.268615)} 20% {transform: scale(0.256195,0.268615)} 26.666667% {transform: scale(1.070457,1.070457)} 33.333333% {transform: scale(1,1)} 100% {transform: scale(1,1)}}]]></style><g id="eHLuVAeh3bf2_to" transform="translate(29.995500,29.995500)"><g id="eHLuVAeh3bf2_ts" transform="scale(1.024395,1.024395)"><g id="eHLuVAeh3bf2" transform="translate(-30.108278,-30.891640)"><g id="eHLuVAeh3bf3_to" transform="translate(16.932430,16.394847)"><g id="eHLuVAeh3bf3_ts" transform="scale(1,1)"><path id="eHLuVAeh3bf3" d="M18.730000,13.645000C16.673000,13.645000,14.617000,13.645000,12.561000,13.645000C12.561000,14.709000,12.561000,15.773000,12.561000,16.837000C14.617000,16.837000,16.673000,16.837000,18.730000,16.837000C18.730000,15.773000,18.730000,14.709000,18.730000,13.645000Z" transform="translate(-15.645500,-15.241000)" fill="rgb(86,0,227)" fill-rule="evenodd" stroke="none" stroke-width="1"/></g></g><g id="eHLuVAeh3bf4_to" transform="translate(24.516205,27.212879)"><g id="eHLuVAeh3bf4_ts" transform="scale(1,1)"><path id="eHLuVAeh3bf4" d="M11.023000,20.045000C10.180000,20.045000,9.485000,19.318000,9.485000,18.441000C9.485000,16.308000,9.485000,14.174000,9.485000,12.041000C9.485000,11.164000,10.180000,10.437000,11.023000,10.437000C14.105000,10.437000,17.186000,10.437000,20.268000,10.437000C21.128000,10.437000,21.806000,11.148000,21.806000,12.041000C21.806000,14.174000,21.806000,16.308000,21.806000,18.441000C21.806000,19.318000,21.111000,20.045000,20.268000,20.045000C17.186000,20.045000,14.105000,20.045000,11.023000,20.045000M24.899000,18.441000C24.899000,17.565000,25.593000,16.837000,26.437000,16.837000C29.518000,16.837000,32.600000,16.837000,35.682000,16.837000C36.542000,16.837000,37.220000,17.548000,37.220000,18.441000C37.220000,19.318000,36.525000,20.045000,35.682000,20.045000C32.600000,20.045000,29.518000,20.045000,26.437000,20.045000C25.593000,20.045000,24.899000,19.334000,24.899000,18.441000M24.899000,12.057000C24.899000,11.164000,25.593000,10.453000,26.437000,10.453000C29.518000,10.453000,32.600000,10.453000,35.682000,10.453000C36.542000,10.453000,37.220000,11.164000,37.220000,12.057000C37.220000,12.934000,36.525000,13.662000,35.682000,13.662000C32.600000,13.661000,29.518000,13.661000,26.437000,13.662000C25.593000,13.662000,24.899000,12.950000,24.899000,12.057000M23.013000,40.437000C23.019000,40.437000,23.024000,40.437000,23.030000,40.437000C23.013000,42.791000,23.013000,45.145000,23.013000,47.499000C23.013000,47.962000,23.079000,48.392000,23.162000,48.822000C21.685000,48.822000,20.207000,48.822000,18.730000,48.822000C14.772000,48.822000,10.813000,48.822000,6.855000,48.822000C5.119000,48.822000,3.663000,47.549000,3.333000,45.845000C3.300000,45.614000,3.267000,45.366000,3.267000,45.101000C3.266000,38.882000,3.267000,32.664000,3.267000,26.446000C3.267000,20.227000,3.267000,14.009000,3.267000,7.790000C3.267000,5.723000,4.887000,4.053000,6.872000,4.053000C17.842000,4.053000,28.813000,4.053000,39.783000,4.053000C41.768000,4.053000,43.389000,5.740000,43.389000,7.790000C43.388000,12.675000,43.388000,17.559000,43.389000,22.443000C40.819000,22.443000,38.250000,22.443000,35.682000,22.443000C33.509000,22.443000,31.337000,22.443000,29.166000,22.443000C23.294000,22.443000,17.423000,22.443000,11.552000,22.443000C10.709000,22.443000,10.014000,23.171000,10.014000,24.048000C10.014000,24.941000,10.709000,25.652000,11.552000,25.652000C15.648000,25.652000,19.744000,25.652000,23.840000,25.652000C23.344000,26.545000,23.030000,27.587000,23.030000,28.695000C23.030000,29.020000,23.030000,29.345000,23.030000,29.671000C19.204000,29.670000,15.378000,29.670000,11.552000,29.671000C10.709000,29.671000,10.014000,30.398000,10.014000,31.275000C10.014000,32.168000,10.709000,32.879000,11.552000,32.879000C15.378000,32.879000,19.204000,32.879000,23.030000,32.879000C23.030000,34.329000,23.030000,35.779000,23.030000,37.229000C19.204000,37.228000,15.378000,37.228000,11.552000,37.229000C10.709000,37.229000,10.014000,37.956000,10.014000,38.833000C10.014000,39.726000,10.709000,40.437000,11.552000,40.437000C15.378000,40.437000,19.204000,40.437000,23.030000,40.437000Z" transform="translate(-23.327778,-26.437499)" fill="rgb(86,0,227)" fill-rule="evenodd" stroke="none" stroke-width="1"/></g></g><path id="eHLuVAeh3bf5" d="M50.153000,34.566000C50.153000,35.541000,49.392000,36.335000,48.450000,36.335000C43.912000,36.335000,39.375000,36.335000,34.838000,36.335000C33.896000,36.335000,33.135000,35.541000,33.135000,34.566000C33.135000,33.590000,33.896000,32.796000,34.838000,32.796000C39.375000,32.796000,43.912000,32.796000,48.450000,32.796000C49.392000,32.796000,50.153000,33.590000,50.153000,34.566000M46.415000,41.627000C46.399000,42.603000,45.638000,43.397000,44.712000,43.397000C41.426000,43.397000,38.140000,43.397000,34.855000,43.397000C33.912000,43.397000,33.152000,42.603000,33.152000,41.627000C33.152000,40.652000,33.912000,39.858000,34.855000,39.858000C38.140000,39.857000,41.426000,39.857000,44.712000,39.858000C45.655000,39.858000,46.415000,40.652000,46.415000,41.627000M56.950000,28.694000C56.950000,27.074000,55.677000,25.751000,54.122000,25.751000C45.803000,25.750000,37.484000,25.750000,29.166000,25.751000C27.595000,25.751000,26.338000,27.074000,26.338000,28.694000C26.338000,34.962000,26.338000,41.230000,26.338000,47.499000C26.338000,49.119000,27.611000,50.442000,29.166000,50.442000C30.489000,50.442000,31.812000,50.442000,33.135000,50.442000C33.135000,52.283000,33.135000,54.124000,33.135000,55.966000C33.135000,57.587000,35.053000,58.331000,36.095000,57.157000C38.080000,54.918000,40.064000,52.680000,42.049000,50.442000C46.073000,50.442000,50.097000,50.442000,54.122000,50.442000C55.693000,50.442000,56.950000,49.119000,56.950000,47.499000C56.950000,41.230000,56.950000,34.962000,56.950000,28.694000Z" transform="matrix(0.97463823283208 0 0 0.97463823283208 1.05616543329551 1.05860690391992)" fill="rgb(45,255,179)" fill-rule="evenodd" stroke="none" stroke-width="1"/></g></g></g></svg>