<?xml version="1.0" encoding="utf-8"?>
<!-- Generator: Moho 13.0.2 build 610 -->
<!DOCTYPE svg PUBLIC "-//W3C//DTD SVG 1.1//EN" "http://www.w3.org/Graphics/SVG/1.1/DTD/svg11.dtd">
<svg version="1.1" id="Frame_0" xmlns="http://www.w3.org/2000/svg" xmlns:xlink="http://www.w3.org/1999/xlink" width="60px" height="60px">
<g id="Group_467.svg">
<path fill="#5600e3" fill-rule="evenodd" stroke="none" d="M 50.008 9.376 C 51.796 10.406 52.407 12.695 51.377 14.489 C 50.346 16.277 48.057 16.894 46.263 15.857 C 44.476 14.827 43.858 12.538 44.895 10.744 C 45.926 8.956 48.214 8.339 50.008 9.376 M 55.232 28.972 C 57.369 25.274 57.340 23.300 56.909 20.307 C 56.334 16.296 55.759 12.285 55.185 8.275 C 55.081 7.524 54.801 6.807 54.376 6.184 C 53.520 4.915 52.122 4.105 50.590 4.000 C 49.833 3.942 49.076 4.065 48.377 4.344 C 44.615 5.850 40.853 7.357 37.091 8.863 C 34.284 9.987 32.560 10.948 30.423 14.646 C 30.400 14.685 30.376 14.724 30.353 14.763 C 36.311 21.512 35.664 31.808 28.921 37.760 C 25.147 41.085 20.051 42.489 15.107 41.551 C 14.886 42.780 15.457 44.014 16.534 44.643 C 23.089 48.428 29.645 52.214 36.200 56.000 C 37.621 56.821 39.438 56.331 40.259 54.905 C 45.250 46.260 50.241 37.616 55.232 28.972 Z"/>
<path fill="#2dffb3" fill-rule="evenodd" stroke="none" d="M 15.321 31.954 C 12.991 31.476 11.244 29.624 11.244 27.423 C 12.020 27.423 12.797 27.423 13.573 27.423 C 13.573 28.687 14.925 29.753 16.520 29.753 C 17.953 29.753 19.397 29.036 19.397 27.662 C 19.397 26.282 17.103 25.361 16.113 25.030 C 12.088 23.684 11.244 21.658 11.244 20.196 C 11.244 18.006 12.933 16.294 15.321 15.875 C 15.320 15.259 15.320 14.644 15.321 14.029 C 16.097 14.029 16.873 14.029 17.650 14.029 C 17.650 14.654 17.650 15.279 17.650 15.904 C 19.979 16.387 21.727 18.233 21.727 20.435 C 20.950 20.435 20.173 20.435 19.397 20.435 C 19.397 19.171 18.046 18.105 16.450 18.105 C 15.024 18.105 13.573 18.822 13.573 20.196 C 13.573 21.576 15.868 22.496 16.858 22.828 C 20.882 24.179 21.727 26.206 21.727 27.668 C 21.727 29.857 20.038 31.570 17.650 31.989 C 17.650 32.602 17.650 33.215 17.650 33.829 C 16.873 33.829 16.097 33.829 15.321 33.829 C 15.320 33.204 15.320 32.579 15.321 31.954 M 16.485 37.323 C 23.881 37.323 29.880 31.325 29.880 23.929 C 29.880 16.533 23.881 10.535 16.485 10.535 C 9.089 10.535 3.091 16.533 3.091 23.929 C 3.097 31.325 9.089 37.317 16.485 37.323 Z"/>
</g>
</svg>
