<svg id="es6I5idHBYG1" xmlns="http://www.w3.org/2000/svg" xmlns:xlink="http://www.w3.org/1999/xlink" viewBox="0 0 73 77" shape-rendering="geometricPrecision" text-rendering="geometricPrecision"><style><![CDATA[#es6I5idHBYG2_to {animation: es6I5idHBYG2_to__to 2000ms linear infinite normal forwards}@keyframes es6I5idHBYG2_to__to { 0% {transform: translate(36.500000px,7.114750px)} 30% {transform: translate(37.401700px,8.759012px)} 65% {transform: translate(35.950850px,8.936881px)} 100% {transform: translate(36.500000px,7.114750px)}} #es6I5idHBYG2_ts {animation: es6I5idHBYG2_ts__ts 2000ms linear infinite normal forwards}@keyframes es6I5idHBYG2_ts__ts { 0% {transform: scale(1,1)} 30% {transform: scale(0.950000,0.950000)} 65% {transform: scale(0.950000,0.950000)} 100% {transform: scale(1,1)}} #es6I5idHBYG3_to {animation: es6I5idHBYG3_to__to 2000ms linear infinite normal forwards}@keyframes es6I5idHBYG3_to__to { 0% {transform: translate(36.499287px,47.221102px)} 30% {transform: translate(37.499287px,47.221102px)} 65% {transform: translate(34.999287px,47.221102px)} 100% {transform: translate(36.499287px,47.221102px)}} #es6I5idHBYG3_ts {animation: es6I5idHBYG3_ts__ts 2000ms linear infinite normal forwards}@keyframes es6I5idHBYG3_ts__ts { 0% {transform: scale(1,1)} 30% {transform: scale(0.950000,0.950000)} 65% {transform: scale(0.950000,0.950000)} 100% {transform: scale(1,1)}}]]></style><g id="es6I5idHBYG2_to" transform="translate(36.500000,7.114750)"><g id="es6I5idHBYG2_ts" transform="scale(1,1)"><path id="es6I5idHBYG2" d="M71.385500,0L1.614530,0C0.807267,0,0,0.803279,0,1.606560L0,14.229500L73,14.229500L73,1.606560C73,0.803279,72.192700,0,71.385500,0Z" transform="translate(-36.500000,-7.114750)" fill="rgb(45,255,179)" stroke="none" stroke-width="1"/></g></g><g id="es6I5idHBYG3_to" transform="translate(36.499287,47.221102)"><g id="es6I5idHBYG3_ts" transform="scale(1,1)"><path id="es6I5idHBYG3" d="M28.484300,47.622700L28.484300,75.393200C28.484300,75.852200,28.599600,76.311200,29.176200,76.655500C29.522200,76.770300,29.868200,76.999800,30.098800,76.999800C30.214100,76.999800,30.444800,76.999800,30.560100,76.999800L43.361100,70.573500C44.053000,70.458800,44.514300,69.770300,44.514300,68.967000L44.514300,47.622700L72.076700,17.442400L0.921875,17.442400L28.484300,47.622700Z" transform="translate(-36.499287,-47.221102)" fill="rgb(86,0,227)" stroke="none" stroke-width="1"/></g></g></svg>