<svg cache-id="84546d73067d4b7d824752fced27721d" id="e8k6fsHJODY1" xmlns="http://www.w3.org/2000/svg" xmlns:xlink="http://www.w3.org/1999/xlink" viewBox="0 0 50 50" shape-rendering="geometricPrecision" text-rendering="geometricPrecision"><style><![CDATA[#e8k6fsHJODY1{pointer-events: all}#e8k6fsHJODY1.hover #e8k6fsHJODY2_ts {animation: e8k6fsHJODY2_ts__ts 4000ms linear infinite normal forwards}@keyframes e8k6fsHJODY2_ts__ts { 0% {transform: translate(15.764765px,35.182754px) scale(1,1)} 10% {transform: translate(15.764765px,35.182754px) scale(1,1)} 15% {transform: translate(15.764765px,35.182754px) scale(1.032258,0.930233)} 20% {transform: translate(15.764765px,35.182754px) scale(0.939394,1.023529)} 25% {transform: translate(15.764765px,35.182754px) scale(1,1)} 42.500000% {transform: translate(15.764765px,35.182754px) scale(1,1)} 47.500000% {transform: translate(15.764765px,35.182754px) scale(1.032258,0.930233)} 52.500000% {transform: translate(15.764765px,35.182754px) scale(0.939394,1.023529)} 57.500000% {transform: translate(15.764765px,35.182754px) scale(1,1)} 77.500000% {transform: translate(15.764765px,35.182754px) scale(1,1)} 82.500000% {transform: translate(15.764765px,35.182754px) scale(1.032258,0.930233)} 87.500000% {transform: translate(15.764765px,35.182754px) scale(0.939394,1.023529)} 92.500000% {transform: translate(15.764765px,35.182754px) scale(1,1)} 100% {transform: translate(15.764765px,35.182754px) scale(1,1)}} #e8k6fsHJODY1.hover #e8k6fsHJODY3 {animation: e8k6fsHJODY3_f_p 4000ms linear infinite normal forwards}@keyframes e8k6fsHJODY3_f_p { 0% {fill: rgb(86,0,227)} 10% {fill: rgb(86,0,227)} 15% {fill: rgb(73,105,133)} 42.500000% {fill: rgb(73,105,133)} 47.500000% {fill: rgb(164,110,100)} 77.500000% {fill: rgb(164,110,100)} 82.500000% {fill: rgb(86,0,227)} 100% {fill: rgb(86,0,227)}} #e8k6fsHJODY1.hover #e8k6fsHJODY4 {animation: e8k6fsHJODY4_f_p 4000ms linear infinite normal forwards}@keyframes e8k6fsHJODY4_f_p { 0% {fill: rgb(86,0,227)} 10% {fill: rgb(86,0,227)} 15% {fill: rgb(73,105,133)} 42.500000% {fill: rgb(73,105,133)} 47.500000% {fill: rgb(164,110,100)} 77.500000% {fill: rgb(164,110,100)} 82.500000% {fill: rgb(86,0,227)} 100% {fill: rgb(86,0,227)}} #e8k6fsHJODY1.hover #e8k6fsHJODY5 {animation: e8k6fsHJODY5_f_p 4000ms linear infinite normal forwards}@keyframes e8k6fsHJODY5_f_p { 0% {fill: rgb(86,0,227)} 10% {fill: rgb(86,0,227)} 15% {fill: rgb(73,105,133)} 42.500000% {fill: rgb(73,105,133)} 47.500000% {fill: rgb(164,110,100)} 77.500000% {fill: rgb(164,110,100)} 82.500000% {fill: rgb(86,0,227)} 100% {fill: rgb(86,0,227)}} #e8k6fsHJODY1.hover #e8k6fsHJODY6_to {animation: e8k6fsHJODY6_to__to 4000ms linear infinite normal forwards}@keyframes e8k6fsHJODY6_to__to { 0% {offset-distance: 0%} 10% {offset-distance: 0%} 15% {offset-distance: 7.142857%} 20% {offset-distance: 14.285714%} 25% {offset-distance: 21.428571%} 30% {offset-distance: 28.571429%} 42.500000% {offset-distance: 35.714286%} 47.500000% {offset-distance: 42.857143%} 52.500000% {offset-distance: 50%} 57.500000% {offset-distance: 57.142857%} 62.500000% {offset-distance: 64.285714%} 77.500000% {offset-distance: 71.428571%} 82.500000% {offset-distance: 78.571429%} 87.500000% {offset-distance: 85.714286%} 92.500000% {offset-distance: 92.857143%} 97.500000% {offset-distance: 100%} 100% {offset-distance: 100%}}]]></style><g id="e8k6fsHJODY2_ts" transform="translate(15.764765,35.182754) scale(1,1)"><g id="e8k6fsHJODY2" transform="translate(-15.764765,-35.182754)"><path id="e8k6fsHJODY3" d="M29.668000,3.224000C29.668000,2.476000,29.061000,1.869000,28.312000,1.869000C26.957000,1.869000,25.602000,1.869000,24.246000,1.869000C24.246000,3.676000,24.246000,5.483000,24.246000,7.290000C26.053000,7.290000,27.860000,7.290000,29.668000,7.290000C29.667000,5.935000,29.667000,4.580000,29.668000,3.224000Z" fill="rgb(86,0,227)" fill-rule="evenodd" stroke="none" stroke-width="1"/><path id="e8k6fsHJODY4" d="M21.536000,1.869000C15.432000,1.869000,9.328000,1.869000,3.224000,1.869000C2.476000,1.869000,1.869000,2.476000,1.869000,3.224000C1.869000,4.580000,1.869000,5.935000,1.869000,7.290000C8.425000,7.290000,14.980000,7.290000,21.536000,7.290000C21.536000,5.483000,21.536000,3.676000,21.536000,1.869000Z" fill="rgb(86,0,227)" fill-rule="evenodd" stroke="none" stroke-width="1"/><path id="e8k6fsHJODY5" d="M16.956000,16.868000C16.956000,17.617000,16.349000,18.223000,15.600000,18.223000C12.830000,18.223000,10.060000,18.223000,7.290000,18.223000C6.542000,18.223000,5.935000,17.617000,5.935000,16.868000C5.935000,16.120000,6.542000,15.513000,7.290000,15.513000C10.060000,15.513000,12.830000,15.513000,15.600000,15.513000C16.349000,15.513000,16.956000,16.120000,16.956000,16.868000M16.956000,22.289000C16.956000,23.038000,16.349000,23.645000,15.600000,23.645000C12.830000,23.645000,10.060000,23.645000,7.290000,23.645000C6.542000,23.645000,5.935000,23.038000,5.935000,22.289000C5.935000,21.541000,6.542000,20.934000,7.290000,20.934000C10.060000,20.934000,12.830000,20.934000,15.600000,20.934000C16.349000,20.934000,16.956000,21.541000,16.956000,22.289000M16.956000,27.711000C16.956000,28.459000,16.349000,29.066000,15.600000,29.066000C12.830000,29.066000,10.060000,29.066000,7.290000,29.066000C6.542000,29.066000,5.935000,28.459000,5.935000,27.711000C5.935000,26.962000,6.542000,26.355000,7.290000,26.355000C10.060000,26.355000,12.830000,26.355000,15.600000,26.355000C16.349000,26.355000,16.956000,26.962000,16.956000,27.711000M28.313000,34.578000C29.062000,34.578000,29.668000,33.971000,29.668000,33.222000C29.668000,32.770000,29.668000,10.003000,29.668000,10.001000C29.666000,10.001000,11.135000,10.001000,1.869000,10.001000C1.869000,17.741000,1.869000,25.482000,1.869000,33.222000C1.869000,33.971000,2.476000,34.578000,3.224000,34.578000C11.587000,34.577000,19.950000,34.577000,28.313000,34.578000Z" fill="rgb(86,0,227)" fill-rule="evenodd" stroke="none" stroke-width="1"/></g></g><g id="e8k6fsHJODY6_to" style="offset-path:path('M35.061411,46.786755C34.074305,45.495924,32.856599,43.903540,32.625999,43.601987L30.190588,46.599416L32.813338,49.034828L35.061411,46.786755L35.061411,46.786755C34.074305,45.495924,32.856599,43.903540,32.625999,43.601987L30.190588,46.599416L32.813338,49.034828L35.061411,46.786755L35.061411,46.786755C34.074305,45.495924,32.856599,43.903540,32.625999,43.601987L30.190588,46.599416L32.813338,49.034828L35.061411,46.786755');offset-rotate:0deg"><g id="e8k6fsHJODY6" transform="translate(-35.998108,-48.847488)"><g id="e8k6fsHJODY7"><path id="e8k6fsHJODY8" d="M24.276000,21.030000C24.276000,23.741000,24.276000,26.451000,24.276000,29.162000C24.276000,29.911000,24.883000,30.518000,25.631000,30.518000C31.052000,30.517000,36.474000,30.517000,41.895000,30.518000C42.644000,30.518000,43.251000,29.911000,43.251000,29.162000C43.250000,26.451000,43.250000,23.741000,43.251000,21.030000C43.251000,20.282000,42.644000,19.675000,41.895000,19.675000C36.474000,19.675000,31.052000,19.675000,25.631000,19.675000C24.883000,19.675000,24.276000,20.282000,24.276000,21.030000Z" fill="rgb(45,255,179)" fill-rule="evenodd" stroke="rgb(255,255,255)" stroke-width="4" stroke-linecap="round" stroke-linejoin="round"/><path id="e8k6fsHJODY9" d="M36.474000,41.360000C34.667000,41.360000,32.859000,41.360000,31.053000,41.360000C30.304000,41.360000,29.697000,41.967000,29.697000,42.715000C29.697000,44.522000,29.697000,46.329000,29.697000,48.137000C29.697000,48.885000,30.304000,49.492000,31.053000,49.492000C32.859000,49.492000,34.667000,49.492000,36.474000,49.492000C37.222000,49.492000,37.829000,48.885000,37.829000,48.137000C37.829000,46.329000,37.829000,44.522000,37.829000,42.715000C37.829000,41.967000,37.222000,41.360000,36.474000,41.360000Z" fill="rgb(86,0,227)" fill-rule="evenodd" stroke="rgb(255,255,255)" stroke-width="4" stroke-linecap="round" stroke-linejoin="round"/><path id="e8k6fsHJODY10" d="M45.961000,23.974000C45.961000,26.607000,45.961000,29.240000,45.961000,31.873000C45.961000,32.620000,45.353000,33.228000,44.606000,33.228000C41.895000,33.228000,39.184000,33.228000,36.474000,33.228000C34.232000,33.228000,32.408000,35.052000,32.408000,37.294000C32.408000,37.746000,32.408000,38.197000,32.408000,38.650000C33.311000,38.649000,34.215000,38.649000,35.119000,38.650000C35.118000,38.197000,35.118000,37.746000,35.119000,37.294000C35.119000,36.547000,35.727000,35.939000,36.474000,35.939000C39.184000,35.939000,41.895000,35.939000,44.606000,35.939000C46.848000,35.939000,48.672000,34.115000,48.672000,31.873000C48.671000,30.517000,48.671000,29.162000,48.672000,27.807000C48.672000,26.040000,47.539000,24.534000,45.961000,23.974000Z" fill="rgb(45,255,179)" fill-rule="evenodd" stroke="rgb(255,255,255)" stroke-width="4" stroke-linecap="round" stroke-linejoin="round"/></g><g id="e8k6fsHJODY11"><path id="e8k6fsHJODY12" d="M24.276000,21.030000C24.276000,23.741000,24.276000,26.451000,24.276000,29.162000C24.276000,29.911000,24.883000,30.518000,25.631000,30.518000C31.052000,30.517000,36.474000,30.517000,41.895000,30.518000C42.644000,30.518000,43.251000,29.911000,43.251000,29.162000C43.250000,26.451000,43.250000,23.741000,43.251000,21.030000C43.251000,20.282000,42.644000,19.675000,41.895000,19.675000C36.474000,19.675000,31.052000,19.675000,25.631000,19.675000C24.883000,19.675000,24.276000,20.282000,24.276000,21.030000Z" fill="rgb(45,255,179)" fill-rule="evenodd" stroke="none" stroke-width="1"/><path id="e8k6fsHJODY13" d="M36.474000,41.360000C34.667000,41.360000,32.859000,41.360000,31.053000,41.360000C30.304000,41.360000,29.697000,41.967000,29.697000,42.715000C29.697000,44.522000,29.697000,46.329000,29.697000,48.137000C29.697000,48.885000,30.304000,49.492000,31.053000,49.492000C32.859000,49.492000,34.667000,49.492000,36.474000,49.492000C37.222000,49.492000,37.829000,48.885000,37.829000,48.137000C37.829000,46.329000,37.829000,44.522000,37.829000,42.715000C37.829000,41.967000,37.222000,41.360000,36.474000,41.360000Z" fill="rgb(86,0,227)" fill-rule="evenodd" stroke="none" stroke-width="1"/><path id="e8k6fsHJODY14" d="M45.961000,23.974000C45.961000,26.607000,45.961000,29.240000,45.961000,31.873000C45.961000,32.620000,45.353000,33.228000,44.606000,33.228000C41.895000,33.228000,39.184000,33.228000,36.474000,33.228000C34.232000,33.228000,32.408000,35.052000,32.408000,37.294000C32.408000,37.746000,32.408000,38.197000,32.408000,38.650000C33.311000,38.649000,34.215000,38.649000,35.119000,38.650000C35.118000,38.197000,35.118000,37.746000,35.119000,37.294000C35.119000,36.547000,35.727000,35.939000,36.474000,35.939000C39.184000,35.939000,41.895000,35.939000,44.606000,35.939000C46.848000,35.939000,48.672000,34.115000,48.672000,31.873000C48.671000,30.517000,48.671000,29.162000,48.672000,27.807000C48.672000,26.040000,47.539000,24.534000,45.961000,23.974000Z" fill="rgb(45,255,179)" fill-rule="evenodd" stroke="none" stroke-width="1"/></g></g></g></svg>