<svg id="eyUaZRqlbMY1" xmlns="http://www.w3.org/2000/svg" xmlns:xlink="http://www.w3.org/1999/xlink" viewBox="0 0 50 50" shape-rendering="geometricPrecision" text-rendering="geometricPrecision"><style><![CDATA[#eyUaZRqlbMY1{pointer-events: all}#eyUaZRqlbMY1.hover #eyUaZRqlbMY3_ts {animation: eyUaZRqlbMY3_ts__ts 3000ms linear infinite normal forwards}@keyframes eyUaZRqlbMY3_ts__ts { 0% {transform: translate(20.824677px,41.802139px) scale(1,1)} 66.666667% {transform: translate(20.824677px,41.802139px) scale(1,1)} 73.333333% {transform: translate(20.824677px,41.802139px) scale(1.056452,0.917749)} 80% {transform: translate(20.824677px,41.802139px) scale(0.951219,1.034043)} 86.666667% {transform: translate(20.824677px,41.802139px) scale(1,1)} 100% {transform: translate(20.824677px,41.802139px) scale(1,1)}} #eyUaZRqlbMY1.hover #eyUaZRqlbMY6_ts {animation: eyUaZRqlbMY6_ts__ts 3000ms linear infinite normal forwards}@keyframes eyUaZRqlbMY6_ts__ts { 0% {transform: translate(39.700815px,40.046219px) scale(1,1)} 36.666667% {transform: translate(39.700815px,40.046219px) scale(1,1)} 43.333333% {transform: translate(39.700815px,40.046219px) scale(1.166667,0.886598)} 50% {transform: translate(39.700815px,40.046219px) scale(0.923077,1.063158)} 56.666667% {transform: translate(39.700815px,40.046219px) scale(1,1)} 100% {transform: translate(39.700815px,40.046219px) scale(1,1)}} #eyUaZRqlbMY1.hover #eyUaZRqlbMY10_ts {animation: eyUaZRqlbMY10_ts__ts 3000ms linear infinite normal forwards}@keyframes eyUaZRqlbMY10_ts__ts { 0% {transform: translate(28.141009px,42.972753px) scale(1,1)} 6.666667% {transform: translate(28.141009px,42.972753px) scale(1,1)} 13.333333% {transform: translate(28.141009px,42.972753px) scale(1.166667,0.886598)} 20% {transform: translate(28.141009px,42.972753px) scale(0.923077,1.063158)} 26.666667% {transform: translate(28.141009px,42.972753px) scale(1,1)} 100% {transform: translate(28.141009px,42.972753px) scale(1,1)}}]]></style><g id="eyUaZRqlbMY2" transform="matrix(1.01300724444474 0 0 1.01300724444474 0.28971378997034 0.52351091219283)"><g id="eyUaZRqlbMY3_ts" transform="translate(20.824677,41.802139) scale(1,1)"><g id="eyUaZRqlbMY3" transform="translate(-20.828244,-41.694330)"><path id="eyUaZRqlbMY4" d="M23.849000,39.482000C23.849000,39.482000,23.851000,36.034000,23.851000,36.033000C23.850000,36.033000,17.494000,36.034000,17.494000,36.034000C17.494000,36.034000,17.494000,39.481000,17.494000,39.481000C17.493000,39.481000,14.096000,39.481000,14.096000,39.481000C14.096000,39.481000,14.096000,41.549000,14.096000,41.550000C14.097000,41.550000,27.370000,41.550000,27.371000,41.550000C27.371000,41.549000,27.398000,39.472000,27.398000,39.472000C27.397000,39.472000,23.849000,39.482000,23.849000,39.482000Z" transform="matrix(1 0 0 1 0.83728127775126 0.45836197376309)" fill="rgb(86,0,227)" fill-rule="evenodd" stroke="none" stroke-width="1"/><path id="eyUaZRqlbMY5" d="M1.439000,10.366000C1.439000,8.894000,2.635000,7.698000,4.107000,7.699000C4.107000,7.699000,36.623000,7.699000,36.623000,7.699000C38.095000,7.699000,39.290000,8.894000,39.290000,10.366000C39.290000,10.366000,39.290000,32.463000,39.290000,32.463000C39.290000,33.935000,38.095000,35.130000,36.623000,35.130000C36.623000,35.130000,4.107000,35.130000,4.107000,35.130000C2.635000,35.130000,1.439000,33.935000,1.439000,32.463000C1.439000,32.463000,1.439000,10.366000,1.439000,10.366000Z" fill="rgb(86,0,227)" fill-rule="evenodd" stroke="none" stroke-width="1"/></g></g><g id="eyUaZRqlbMY6_ts" transform="translate(39.700815,40.046219) scale(1,1)"><g id="eyUaZRqlbMY6" transform="translate(-39.700815,-40.046219)"><path id="eyUaZRqlbMY7" d="M32.061000,21.378000C32.061000,20.613000,32.682000,19.992000,33.447000,19.992000C33.447000,19.992000,45.961000,19.992000,45.961000,19.992000C46.726000,19.992000,47.347000,20.613000,47.347000,21.378000C47.347000,21.378000,47.347000,38.579000,47.347000,38.579000C47.347000,39.344000,46.726000,39.966000,45.961000,39.966000C45.961000,39.966000,33.447000,39.966000,33.447000,39.966000C32.682000,39.966000,32.061000,39.344000,32.061000,38.579000C32.061000,38.579000,32.061000,21.378000,32.061000,21.378000Z" fill="rgb(45,255,179)" fill-rule="evenodd" stroke="rgb(255,255,255)" stroke-width="4" stroke-linecap="round" stroke-linejoin="round"/><path id="eyUaZRqlbMY8" d="M32.002000,21.319000C32.002000,20.554000,32.623000,19.933000,33.388000,19.933000C33.388000,19.933000,45.902000,19.933000,45.902000,19.933000C46.667000,19.933000,47.288000,20.554000,47.288000,21.319000C47.288000,21.319000,47.288000,38.520000,47.288000,38.520000C47.288000,39.285000,46.667000,39.907000,45.902000,39.907000C45.902000,39.907000,33.388000,39.907000,33.388000,39.907000C32.623000,39.907000,32.002000,39.285000,32.002000,38.520000C32.002000,38.520000,32.002000,21.319000,32.002000,21.319000Z" fill="rgb(45,255,179)" fill-rule="evenodd" stroke="none" stroke-width="1"/><path id="eyUaZRqlbMY9" d="M39.168000,37.502000C39.168000,37.502000,40.556000,37.502000,40.556000,37.502000C40.556000,37.502000,40.556000,38.890000,40.556000,38.890000C40.556000,38.890000,39.168000,38.890000,39.168000,38.890000C39.168000,38.890000,39.168000,37.502000,39.168000,37.502000Z" fill="rgb(255,255,255)" fill-rule="evenodd" stroke="none" stroke-width="1"/></g></g><g id="eyUaZRqlbMY10_ts" transform="translate(28.141009,42.972753) scale(1,1)"><g id="eyUaZRqlbMY10" transform="translate(-28.082011,-42.519254)"><path id="eyUaZRqlbMY11" d="M31.809000,28.641000C31.808000,28.641000,24.867000,28.641000,24.866000,28.641000C24.866000,28.642000,24.866000,42.516000,24.866000,42.518000C24.867000,42.518000,31.808000,42.518000,31.809000,42.518000C31.809000,42.516000,31.809000,28.642000,31.809000,28.641000Z" fill="rgb(255,255,255)" fill-rule="evenodd" stroke="rgb(255,255,255)" stroke-width="3" stroke-linecap="round" stroke-linejoin="round"/><path id="eyUaZRqlbMY12" d="M29.324000,40.167000C29.324000,40.167000,29.324000,41.555000,29.324000,41.555000C29.324000,41.555000,27.936000,41.555000,27.936000,41.555000C27.936000,41.555000,27.936000,40.167000,27.936000,40.167000C27.936000,40.167000,29.324000,40.167000,29.324000,40.167000M31.763000,42.593000C31.763000,42.591000,31.763000,28.717000,31.763000,28.716000C31.762000,28.716000,24.820000,28.716000,24.820000,28.716000C24.820000,28.717000,24.820000,42.591000,24.820000,42.593000C24.820000,42.593000,31.762000,42.593000,31.763000,42.593000Z" transform="matrix(1 0 0 1 0.04599953000000 -0.07499960000001)" fill="rgb(86,0,227)" fill-rule="evenodd" stroke="none" stroke-width="1"/></g></g></g></svg>