<svg id="eN6aGQDpnHC1" xmlns="http://www.w3.org/2000/svg" xmlns:xlink="http://www.w3.org/1999/xlink" viewBox="0 0 60 60" shape-rendering="geometricPrecision" text-rendering="geometricPrecision"><style><![CDATA[#eN6aGQDpnHC1{pointer-events: all}#eN6aGQDpnHC1.hover #eN6aGQDpnHC2_to {animation: eN6aGQDpnHC2_to__to 2000ms linear 1 normal forwards}@keyframes eN6aGQDpnHC2_to__to { 0% {transform: translate(34.156820px,32.308110px);animation-timing-function: step-end} 5% {transform: translate(34.156820px,32.308110px);animation-timing-function: step-end} 10% {transform: translate(34.156820px,32.308110px)} 20% {transform: translate(34.156820px,31.848213px)} 30% {transform: translate(34.156820px,32.308110px)} 100% {transform: translate(34.156820px,32.308110px)}} #eN6aGQDpnHC1.hover #eN6aGQDpnHC2_ts {animation: eN6aGQDpnHC2_ts__ts 2000ms linear 1 normal forwards}@keyframes eN6aGQDpnHC2_ts__ts { 0% {transform: scale(1,1);animation-timing-function: step-end} 5% {transform: scale(0.008923,0.008923);animation-timing-function: step-end} 10% {transform: scale(0.120080,0.120080)} 20% {transform: scale(1.080147,1.080147)} 30% {transform: scale(1,1)} 100% {transform: scale(1,1)}} #eN6aGQDpnHC1.hover #eN6aGQDpnHC5_to {animation: eN6aGQDpnHC5_to__to 2000ms linear 1 normal forwards}@keyframes eN6aGQDpnHC5_to__to { 0% {transform: translate(33.967001px,23.261502px);animation-timing-function: step-end} 5% {transform: translate(34.307211px,45.574641px)} 25% {transform: translate(34.307211px,45.574641px)} 35% {transform: translate(33.661534px,21.321762px)} 45% {transform: translate(33.967001px,23.261502px)} 100% {transform: translate(33.967001px,23.261502px)}} #eN6aGQDpnHC1.hover #eN6aGQDpnHC5_ts {animation: eN6aGQDpnHC5_ts__ts 2000ms linear 1 normal forwards}@keyframes eN6aGQDpnHC5_ts__ts { 0% {transform: scale(1,1);animation-timing-function: step-end} 5% {transform: scale(0.098654,0.098654)} 25% {transform: scale(0.098654,0.098654)} 35% {transform: scale(1.118109,1.118109)} 45% {transform: scale(1,1)} 100% {transform: scale(1,1)}} #eN6aGQDpnHC1.hover #eN6aGQDpnHC6_to {animation: eN6aGQDpnHC6_to__to 2000ms linear 1 normal forwards}@keyframes eN6aGQDpnHC6_to__to { 0% {transform: translate(17.980309px,14.920270px);animation-timing-function: step-end} 5% {transform: translate(33.454416px,31.976957px)} 50% {transform: translate(33.454416px,31.976957px)} 60% {transform: translate(16.448753px,13.005825px)} 70% {transform: translate(17.980309px,14.920270px)} 100% {transform: translate(17.980309px,14.920270px)}} #eN6aGQDpnHC1.hover #eN6aGQDpnHC6_ts {animation: eN6aGQDpnHC6_ts__ts 2000ms linear 1 normal forwards}@keyframes eN6aGQDpnHC6_ts__ts { 0% {transform: scale(0.916709,0.916709);animation-timing-function: step-end} 5% {transform: scale(0.226104,0.226104)} 50% {transform: scale(0.226104,0.226104)} 60% {transform: scale(1.105854,1.105854)} 70% {transform: scale(0.916709,0.916709)} 100% {transform: scale(0.916709,0.916709)}}]]></style><g id="eN6aGQDpnHC2_to" transform="translate(34.156820,32.308110)"><g id="eN6aGQDpnHC2_ts" transform="scale(1,1)"><g id="eN6aGQDpnHC2" transform="translate(-33.963205,-32.334126)"><g id="eN6aGQDpnHC3"><path id="eN6aGQDpnHC4" d="M35.955000,47.151000C35.955000,49.198000,35.955000,51.182000,35.955000,53.243000C36.227000,53.259000,36.472000,53.285000,36.717000,53.286000C37.784000,53.290000,38.852000,53.255000,39.916000,53.299000C40.981000,53.342000,41.784000,54.271000,41.760000,55.340000C41.738000,56.387000,40.934000,57.296000,39.907000,57.302000C35.943000,57.325000,31.978000,57.325000,28.013000,57.302000C26.989000,57.296000,26.187000,56.381000,26.169000,55.333000C26.149000,54.259000,26.956000,53.335000,28.021000,53.303000C29.313000,53.265000,30.607000,53.295000,31.953000,53.295000C31.953000,51.202000,31.953000,49.201000,31.953000,47.279000C30.443000,46.826000,28.921000,46.489000,27.486000,45.921000C20.903000,43.308000,16.331000,36.346000,16.431000,29.200000C16.448000,27.990000,17.256000,27.099000,18.351000,27.083000C19.451000,27.067000,20.256000,27.914000,20.326000,29.143000C20.356000,29.693000,20.394000,30.244000,20.450000,30.791000C21.245000,38.692000,28.758000,44.473000,36.291000,42.986000C42.901000,41.680000,47.403000,36.222000,47.604000,29.272000C47.643000,27.929000,48.429000,27.060000,49.586000,27.083000C50.730000,27.105000,51.501000,28.023000,51.497000,29.351000C51.465000,37.923000,45.135000,45.598000,36.974000,46.961000C36.654000,47.015000,36.337000,47.079000,35.955000,47.151000Z" fill="rgb(86,0,227)" fill-rule="evenodd" stroke="none" stroke-width="1"/><g id="eN6aGQDpnHC5_to" transform="translate(33.967001,23.261502)"><g id="eN6aGQDpnHC5_ts" transform="scale(1,1)"><g id="eN6aGQDpnHC5" transform="translate(-33.967001,-23.261502)"><g id="eN6aGQDpnHC6_to" transform="translate(17.980309,14.920270)"><g id="eN6aGQDpnHC6_ts" transform="scale(0.916709,0.916709)"><path id="eN6aGQDpnHC6" d="M22.637000,10.412000C22.637000,11.211000,22.013000,11.858000,21.241000,11.858000C18.756000,11.858000,16.271000,11.858000,13.786000,11.858000C13.014000,11.858000,12.388000,11.211000,12.388000,10.412000C12.388000,9.613000,13.014000,8.965000,13.786000,8.965000C16.270000,8.965000,18.755000,8.965000,21.240000,8.965000C22.011000,8.965000,22.637000,9.613000,22.637000,10.412000M20.402000,17.355000C20.402000,18.154000,19.776000,18.802000,19.004000,18.802000C18.010000,18.802000,17.016000,18.802000,16.022000,18.802000C15.251000,18.802000,14.625000,18.154000,14.625000,17.355000C14.625000,16.557000,15.251000,15.909000,16.022000,15.909000C17.016000,15.909000,18.010000,15.909000,19.004000,15.909000C19.776000,15.909000,20.402000,16.557000,20.402000,17.355000M28.733000,26.425000C29.665000,25.685000,30.050000,24.456000,29.713000,23.292000C29.342000,22.013000,28.971000,20.735000,28.601000,19.457000C28.601000,15.317000,28.601000,11.177000,28.601000,7.038000C28.601000,4.644000,26.721000,2.698000,24.409000,2.698000C19.750000,2.698000,15.091000,2.698000,10.433000,2.698000C8.120000,2.698000,6.239000,4.644000,6.239000,7.038000C6.239000,11.570000,6.239000,16.102000,6.239000,20.635000C6.239000,23.027000,8.120000,24.974000,10.433000,24.974000C14.647000,24.974000,18.862000,24.974000,23.077000,24.974000C23.903000,25.509000,24.729000,26.043000,25.555000,26.578000C26.016000,26.876000,26.527000,27.023000,27.039000,27.023000C27.636000,27.023000,28.230000,26.823000,28.733000,26.425000Z" transform="translate(-18.036149,-14.860500)" fill="rgb(45,255,179)" fill-rule="evenodd" stroke="none" stroke-width="1"/></g></g><path id="eN6aGQDpnHC7" d="M43.712000,14.233000C43.711000,13.730000,43.711000,13.227000,43.712000,12.724000C43.712000,9.767000,41.375000,7.349000,38.518000,7.349000C35.908000,7.349000,33.298000,7.349000,30.688000,7.349000C30.688000,9.644000,30.688000,11.938000,30.688000,14.233000C35.029000,14.232000,39.370000,14.232000,43.712000,14.233000Z" fill="rgb(86,0,227)" fill-rule="evenodd" stroke="none" stroke-width="1"/><path id="eN6aGQDpnHC8" d="M31.711000,22.671000C32.301000,24.705000,31.628000,26.851000,29.996000,28.140000C29.134000,28.820000,28.110000,29.180000,27.037000,29.180000C26.267000,29.180000,25.511000,28.989000,24.825000,28.626000C24.624000,28.626000,24.422000,28.626000,24.222000,28.626000C24.223000,28.831000,24.223000,29.035000,24.226000,29.241000C24.297000,34.745000,28.633000,39.170000,33.946000,39.174000C39.262000,39.179000,43.617000,34.770000,43.681000,29.262000C43.683000,29.051000,43.685000,28.839000,43.686000,28.628000C42.592000,28.627000,41.499000,28.627000,40.405000,28.628000C39.676000,28.628000,39.080000,28.010000,39.080000,27.256000C39.080000,26.501000,39.676000,25.884000,40.405000,25.884000C41.505000,25.884000,42.605000,25.884000,43.706000,25.884000C43.708000,25.120000,43.710000,24.354000,43.708000,23.590000C42.607000,23.589000,41.506000,23.589000,40.405000,23.590000C39.676000,23.590000,39.080000,22.972000,39.080000,22.218000C39.080000,21.464000,39.676000,20.846000,40.405000,20.846000C41.507000,20.846000,42.609000,20.846000,43.711000,20.846000C43.711000,19.895000,43.711000,18.944000,43.711000,17.993000C39.370000,17.993000,35.028000,17.993000,30.687000,17.993000C30.687000,18.376000,30.687000,18.760000,30.687000,19.143000C31.028000,20.319000,31.370000,21.495000,31.711000,22.671000Z" fill="rgb(86,0,227)" fill-rule="evenodd" stroke="none" stroke-width="1"/></g></g></g></g></g></g></g></svg>