<svg cache-id="90ec2b89f3bc4676a6ee3e93ff6acc1b" id="extV7aPJpYi1" xmlns="http://www.w3.org/2000/svg" xmlns:xlink="http://www.w3.org/1999/xlink" viewBox="0 0 50 50" shape-rendering="geometricPrecision" text-rendering="geometricPrecision"><style><![CDATA[#extV7aPJpYi1{pointer-events: all}#extV7aPJpYi1.hover #extV7aPJpYi6_to {animation: extV7aPJpYi6_to__to 3000ms linear infinite normal forwards}@keyframes extV7aPJpYi6_to__to { 0% {transform: translate(22.209323px,25.269471px)} 73.333333% {transform: translate(22.209323px,25.269471px)} 83.333333% {transform: translate(57.850317px,24.644191px)} 100% {transform: translate(57.850317px,24.644191px)}} #extV7aPJpYi1.hover #extV7aPJpYi6_tr {animation: extV7aPJpYi6_tr__tr 3000ms linear infinite normal forwards}@keyframes extV7aPJpYi6_tr__tr { 0% {transform: rotate(1.575733deg)} 23.333333% {transform: rotate(1.575733deg)} 26.666667% {transform: rotate(2.767393deg)} 50% {transform: rotate(2.767393deg)} 53.333333% {transform: rotate(4.451591deg)} 73.333333% {transform: rotate(4.451591deg)} 83.333333% {transform: rotate(87.213756deg)} 100% {transform: rotate(87.213756deg)}} #extV7aPJpYi1.hover #extV7aPJpYi9_to {animation: extV7aPJpYi9_to__to 3000ms linear infinite normal forwards}@keyframes extV7aPJpYi9_to__to { 0% {transform: translate(67.963552px,16.336650px)} 13.333333% {transform: translate(67.963552px,16.336650px)} 20% {transform: translate(23.060946px,25.109677px)} 73.333333% {transform: translate(23.060946px,25.109677px)} 83.333333% {transform: translate(65.580026px,36.990008px)} 100% {transform: translate(65.580026px,36.990008px)}} #extV7aPJpYi1.hover #extV7aPJpYi9_tr {animation: extV7aPJpYi9_tr__tr 3000ms linear infinite normal forwards}@keyframes extV7aPJpYi9_tr__tr { 0% {transform: rotate(32.425432deg)} 23.333333% {transform: rotate(32.425432deg)} 26.666667% {transform: rotate(34.030062deg)} 50% {transform: rotate(34.030062deg)} 53.333333% {transform: rotate(37.602865deg)} 73.333333% {transform: rotate(37.602865deg)} 83.333333% {transform: rotate(156.542710deg)} 100% {transform: rotate(156.542710deg)}} #extV7aPJpYi1.hover #extV7aPJpYi12_to {animation: extV7aPJpYi12_to__to 3000ms linear infinite normal forwards}@keyframes extV7aPJpYi12_to__to { 0% {transform: translate(25.243166px,-9.240496px)} 40% {transform: translate(25.243166px,-9.240496px)} 46.666667% {transform: translate(24.670312px,26.661236px)} 73.333333% {transform: translate(24.670312px,26.661236px)} 83.333333% {transform: translate(-19.849148px,-17.789469px)} 100% {transform: translate(-19.849148px,-17.789469px)}} #extV7aPJpYi1.hover #extV7aPJpYi12_tr {animation: extV7aPJpYi12_tr__tr 3000ms linear infinite normal forwards}@keyframes extV7aPJpYi12_tr__tr { 0% {transform: rotate(-40.537420deg)} 50% {transform: rotate(-40.537420deg)} 53.333333% {transform: rotate(-34.450601deg)} 73.333333% {transform: rotate(-34.450601deg)} 83.333333% {transform: rotate(-217.258144deg)} 100% {transform: rotate(-217.258144deg)}} #extV7aPJpYi1.hover #extV7aPJpYi15_to {animation: extV7aPJpYi15_to__to 3000ms linear infinite normal forwards}@keyframes extV7aPJpYi15_to__to { 0% {transform: translate(54.536227px,-2.488286px)} 66.666667% {transform: translate(54.536227px,-2.488286px)} 73.333333% {transform: translate(22.209323px,25.269471px)} 100% {transform: translate(22.209323px,25.269471px)}} #extV7aPJpYi1.hover #extV7aPJpYi15_tr {animation: extV7aPJpYi15_tr__tr 3000ms linear infinite normal forwards}@keyframes extV7aPJpYi15_tr__tr { 0% {transform: rotate(-1.259068deg)} 73.333333% {transform: rotate(-1.259068deg)} 80% {transform: rotate(1.575733deg)} 100% {transform: rotate(1.575733deg)}}]]></style><g id="extV7aPJpYi2" transform="matrix(0.93628209088897 0 0 0.93628209088897 0.78957892431264 2.16946534886381)"><path id="extV7aPJpYi3" d="M14.080000,24.903000C14.080000,18.905000,18.919000,14.066000,24.917000,14.066000C30.915000,14.066000,35.754000,18.905000,35.754000,24.903000C35.754000,30.902000,30.915000,35.740000,24.917000,35.740000C18.919000,35.740000,14.080000,30.902000,14.080000,24.903000" transform="matrix(1.01752973271891 0 0 1.01212495600937 -0.43678836366496 -0.30194778958462)" fill="none" stroke="rgb(86,0,227)" stroke-width="5" stroke-linecap="round" stroke-linejoin="round"/><path id="extV7aPJpYi4" d="M3.253000,24.903000C3.253000,12.912000,12.926000,3.239000,24.917000,3.239000C36.908000,3.239000,46.581000,12.912000,46.581000,24.903000C46.581000,36.894000,36.908000,46.567000,24.917000,46.567000C12.926000,46.567000,3.253000,36.894000,3.253000,24.903000" transform="matrix(1 0 0 1 -0.00000071525574 -0.00000071525574)" fill="none" stroke="rgb(86,0,227)" stroke-width="5" stroke-linecap="round" stroke-linejoin="round" stroke-dasharray="0"/><g id="extV7aPJpYi5" transform="matrix(1 0 0 1 1.52512262478948 0.91507357487371)"><g id="extV7aPJpYi6_to" transform="translate(22.209323,25.269471)"><g id="extV7aPJpYi6_tr" transform="rotate(1.575733)"><g id="extV7aPJpYi6" transform="scale(1.043197,1.043197) translate(-19.069359,-31.127351)"><path id="extV7aPJpYi7" d="M23.130000,25.318000C23.138000,25.309000,23.140000,25.298000,23.148000,25.290000C25.935000,22.564000,28.721000,19.838000,31.508000,17.112000C31.508000,15.399000,31.508000,13.686000,31.508000,11.973000C31.508000,11.592000,31.663000,11.229000,31.937000,10.960000C34.867000,8.062000,37.796000,5.164000,40.726000,2.266000C41.144000,1.858000,41.775000,1.733000,42.323000,1.956000C42.871000,2.177000,43.227000,2.700000,43.227000,3.280000C43.227000,4.713000,43.227000,6.146000,43.227000,7.579000C44.724000,7.579000,46.221000,7.579000,47.719000,7.579000C48.311000,7.579000,48.847000,7.927000,49.072000,8.463000C49.300000,8.999000,49.174000,9.615000,48.755000,10.025000C45.792000,12.923000,42.830000,15.820000,39.868000,18.718000C39.593000,18.987000,39.221000,19.138000,38.832000,19.138000C37.081000,19.138000,35.330000,19.138000,33.580000,19.138000C30.793000,21.864000,28.005000,24.589000,25.220000,27.316000C25.211000,27.324000,25.200000,27.327000,25.191000,27.335000C24.621000,27.868000,23.755000,27.874000,23.177000,27.335000C22.568000,26.767000,22.582000,25.879000,23.130000,25.318000Z" transform="matrix(1 0 0 1 -3.18507115704255 3.39870734106895)" fill="rgb(255,255,255)" fill-rule="evenodd" stroke="rgb(255,255,255)" stroke-width="4" stroke-linecap="round" stroke-linejoin="round"/><path id="extV7aPJpYi8" d="M23.130000,25.318000C23.138000,25.309000,23.140000,25.298000,23.148000,25.290000C25.935000,22.564000,28.721000,19.838000,31.508000,17.112000C31.508000,15.399000,31.508000,13.686000,31.508000,11.973000C31.508000,11.592000,31.663000,11.229000,31.937000,10.960000C34.867000,8.062000,37.796000,5.164000,40.726000,2.266000C41.144000,1.858000,41.775000,1.733000,42.323000,1.956000C42.871000,2.177000,43.227000,2.700000,43.227000,3.280000C43.227000,4.713000,43.227000,6.146000,43.227000,7.579000C44.724000,7.579000,46.221000,7.579000,47.719000,7.579000C48.311000,7.579000,48.847000,7.927000,49.072000,8.463000C49.300000,8.999000,49.174000,9.615000,48.755000,10.025000C45.792000,12.923000,42.830000,15.820000,39.868000,18.718000C39.593000,18.987000,39.221000,19.138000,38.832000,19.138000C37.081000,19.138000,35.330000,19.138000,33.580000,19.138000C30.793000,21.864000,28.005000,24.589000,25.220000,27.316000C25.211000,27.324000,25.200000,27.327000,25.191000,27.335000C24.621000,27.868000,23.755000,27.874000,23.177000,27.335000C22.568000,26.767000,22.582000,25.879000,23.130000,25.318000Z" transform="matrix(1 0 0 1 -3.18507115704255 3.39870734106895)" fill="rgb(45,255,179)" fill-rule="evenodd" stroke="none" stroke-width="1"/></g></g></g><g id="extV7aPJpYi9_to" transform="translate(67.963552,16.336650)"><g id="extV7aPJpYi9_tr" transform="rotate(32.425432)"><g id="extV7aPJpYi9" transform="scale(0.820699,0.820699) translate(-19.069359,-31.127351)"><path id="extV7aPJpYi10" d="M23.130000,25.318000C23.138000,25.309000,23.140000,25.298000,23.148000,25.290000C25.935000,22.564000,28.721000,19.838000,31.508000,17.112000C31.508000,15.399000,31.508000,13.686000,31.508000,11.973000C31.508000,11.592000,31.663000,11.229000,31.937000,10.960000C34.867000,8.062000,37.796000,5.164000,40.726000,2.266000C41.144000,1.858000,41.775000,1.733000,42.323000,1.956000C42.871000,2.177000,43.227000,2.700000,43.227000,3.280000C43.227000,4.713000,43.227000,6.146000,43.227000,7.579000C44.724000,7.579000,46.221000,7.579000,47.719000,7.579000C48.311000,7.579000,48.847000,7.927000,49.072000,8.463000C49.300000,8.999000,49.174000,9.615000,48.755000,10.025000C45.792000,12.923000,42.830000,15.820000,39.868000,18.718000C39.593000,18.987000,39.221000,19.138000,38.832000,19.138000C37.081000,19.138000,35.330000,19.138000,33.580000,19.138000C30.793000,21.864000,28.005000,24.589000,25.220000,27.316000C25.211000,27.324000,25.200000,27.327000,25.191000,27.335000C24.621000,27.868000,23.755000,27.874000,23.177000,27.335000C22.568000,26.767000,22.582000,25.879000,23.130000,25.318000Z" transform="matrix(1 0 0 1 -3.18507115704255 3.39870734106895)" fill="rgb(255,255,255)" fill-rule="evenodd" stroke="rgb(255,255,255)" stroke-width="4" stroke-linecap="round" stroke-linejoin="round"/><path id="extV7aPJpYi11" d="M23.130000,25.318000C23.138000,25.309000,23.140000,25.298000,23.148000,25.290000C25.935000,22.564000,28.721000,19.838000,31.508000,17.112000C31.508000,15.399000,31.508000,13.686000,31.508000,11.973000C31.508000,11.592000,31.663000,11.229000,31.937000,10.960000C34.867000,8.062000,37.796000,5.164000,40.726000,2.266000C41.144000,1.858000,41.775000,1.733000,42.323000,1.956000C42.871000,2.177000,43.227000,2.700000,43.227000,3.280000C43.227000,4.713000,43.227000,6.146000,43.227000,7.579000C44.724000,7.579000,46.221000,7.579000,47.719000,7.579000C48.311000,7.579000,48.847000,7.927000,49.072000,8.463000C49.300000,8.999000,49.174000,9.615000,48.755000,10.025000C45.792000,12.923000,42.830000,15.820000,39.868000,18.718000C39.593000,18.987000,39.221000,19.138000,38.832000,19.138000C37.081000,19.138000,35.330000,19.138000,33.580000,19.138000C30.793000,21.864000,28.005000,24.589000,25.220000,27.316000C25.211000,27.324000,25.200000,27.327000,25.191000,27.335000C24.621000,27.868000,23.755000,27.874000,23.177000,27.335000C22.568000,26.767000,22.582000,25.879000,23.130000,25.318000Z" transform="matrix(1 0 0 1 -3.18507115704255 3.39870734106895)" fill="rgb(45,255,179)" fill-rule="evenodd" stroke="none" stroke-width="1"/></g></g></g><g id="extV7aPJpYi12_to" transform="translate(25.243166,-9.240496)"><g id="extV7aPJpYi12_tr" transform="rotate(-40.537420)"><g id="extV7aPJpYi12" transform="scale(0.778035,0.778035) translate(-19.069359,-31.127351)"><path id="extV7aPJpYi13" d="M23.130000,25.318000C23.138000,25.309000,23.140000,25.298000,23.148000,25.290000C25.935000,22.564000,28.721000,19.838000,31.508000,17.112000C31.508000,15.399000,31.508000,13.686000,31.508000,11.973000C31.508000,11.592000,31.663000,11.229000,31.937000,10.960000C34.867000,8.062000,37.796000,5.164000,40.726000,2.266000C41.144000,1.858000,41.775000,1.733000,42.323000,1.956000C42.871000,2.177000,43.227000,2.700000,43.227000,3.280000C43.227000,4.713000,43.227000,6.146000,43.227000,7.579000C44.724000,7.579000,46.221000,7.579000,47.719000,7.579000C48.311000,7.579000,48.847000,7.927000,49.072000,8.463000C49.300000,8.999000,49.174000,9.615000,48.755000,10.025000C45.792000,12.923000,42.830000,15.820000,39.868000,18.718000C39.593000,18.987000,39.221000,19.138000,38.832000,19.138000C37.081000,19.138000,35.330000,19.138000,33.580000,19.138000C30.793000,21.864000,28.005000,24.589000,25.220000,27.316000C25.211000,27.324000,25.200000,27.327000,25.191000,27.335000C24.621000,27.868000,23.755000,27.874000,23.177000,27.335000C22.568000,26.767000,22.582000,25.879000,23.130000,25.318000Z" transform="matrix(1 0 0 1 -3.18507115704255 3.39870734106895)" fill="rgb(255,255,255)" fill-rule="evenodd" stroke="rgb(255,255,255)" stroke-width="4" stroke-linecap="round" stroke-linejoin="round"/><path id="extV7aPJpYi14" d="M23.130000,25.318000C23.138000,25.309000,23.140000,25.298000,23.148000,25.290000C25.935000,22.564000,28.721000,19.838000,31.508000,17.112000C31.508000,15.399000,31.508000,13.686000,31.508000,11.973000C31.508000,11.592000,31.663000,11.229000,31.937000,10.960000C34.867000,8.062000,37.796000,5.164000,40.726000,2.266000C41.144000,1.858000,41.775000,1.733000,42.323000,1.956000C42.871000,2.177000,43.227000,2.700000,43.227000,3.280000C43.227000,4.713000,43.227000,6.146000,43.227000,7.579000C44.724000,7.579000,46.221000,7.579000,47.719000,7.579000C48.311000,7.579000,48.847000,7.927000,49.072000,8.463000C49.300000,8.999000,49.174000,9.615000,48.755000,10.025000C45.792000,12.923000,42.830000,15.820000,39.868000,18.718000C39.593000,18.987000,39.221000,19.138000,38.832000,19.138000C37.081000,19.138000,35.330000,19.138000,33.580000,19.138000C30.793000,21.864000,28.005000,24.589000,25.220000,27.316000C25.211000,27.324000,25.200000,27.327000,25.191000,27.335000C24.621000,27.868000,23.755000,27.874000,23.177000,27.335000C22.568000,26.767000,22.582000,25.879000,23.130000,25.318000Z" transform="matrix(1 0 0 1 -3.18507115704255 3.39870734106895)" fill="rgb(45,255,179)" fill-rule="evenodd" stroke="none" stroke-width="1"/></g></g></g><g id="extV7aPJpYi15_to" transform="translate(54.536227,-2.488286)"><g id="extV7aPJpYi15_tr" transform="rotate(-1.259068)"><g id="extV7aPJpYi15" transform="scale(1.043197,1.043197) translate(-19.069359,-31.127351)"><path id="extV7aPJpYi16" d="M23.130000,25.318000C23.138000,25.309000,23.140000,25.298000,23.148000,25.290000C25.935000,22.564000,28.721000,19.838000,31.508000,17.112000C31.508000,15.399000,31.508000,13.686000,31.508000,11.973000C31.508000,11.592000,31.663000,11.229000,31.937000,10.960000C34.867000,8.062000,37.796000,5.164000,40.726000,2.266000C41.144000,1.858000,41.775000,1.733000,42.323000,1.956000C42.871000,2.177000,43.227000,2.700000,43.227000,3.280000C43.227000,4.713000,43.227000,6.146000,43.227000,7.579000C44.724000,7.579000,46.221000,7.579000,47.719000,7.579000C48.311000,7.579000,48.847000,7.927000,49.072000,8.463000C49.300000,8.999000,49.174000,9.615000,48.755000,10.025000C45.792000,12.923000,42.830000,15.820000,39.868000,18.718000C39.593000,18.987000,39.221000,19.138000,38.832000,19.138000C37.081000,19.138000,35.330000,19.138000,33.580000,19.138000C30.793000,21.864000,28.005000,24.589000,25.220000,27.316000C25.211000,27.324000,25.200000,27.327000,25.191000,27.335000C24.621000,27.868000,23.755000,27.874000,23.177000,27.335000C22.568000,26.767000,22.582000,25.879000,23.130000,25.318000Z" transform="matrix(1 0 0 1 -3.18507115704255 3.39870734106895)" fill="rgb(255,255,255)" fill-rule="evenodd" stroke="rgb(255,255,255)" stroke-width="4" stroke-linecap="round" stroke-linejoin="round"/><path id="extV7aPJpYi17" d="M23.130000,25.318000C23.138000,25.309000,23.140000,25.298000,23.148000,25.290000C25.935000,22.564000,28.721000,19.838000,31.508000,17.112000C31.508000,15.399000,31.508000,13.686000,31.508000,11.973000C31.508000,11.592000,31.663000,11.229000,31.937000,10.960000C34.867000,8.062000,37.796000,5.164000,40.726000,2.266000C41.144000,1.858000,41.775000,1.733000,42.323000,1.956000C42.871000,2.177000,43.227000,2.700000,43.227000,3.280000C43.227000,4.713000,43.227000,6.146000,43.227000,7.579000C44.724000,7.579000,46.221000,7.579000,47.719000,7.579000C48.311000,7.579000,48.847000,7.927000,49.072000,8.463000C49.300000,8.999000,49.174000,9.615000,48.755000,10.025000C45.792000,12.923000,42.830000,15.820000,39.868000,18.718000C39.593000,18.987000,39.221000,19.138000,38.832000,19.138000C37.081000,19.138000,35.330000,19.138000,33.580000,19.138000C30.793000,21.864000,28.005000,24.589000,25.220000,27.316000C25.211000,27.324000,25.200000,27.327000,25.191000,27.335000C24.621000,27.868000,23.755000,27.874000,23.177000,27.335000C22.568000,26.767000,22.582000,25.879000,23.130000,25.318000Z" transform="matrix(1 0 0 1 -3.18507115704255 3.39870734106895)" fill="rgb(45,255,179)" fill-rule="evenodd" stroke="none" stroke-width="1"/></g></g></g></g></g></svg>