<svg width="64" height="55" viewBox="0 0 64 55" fill="none" xmlns="http://www.w3.org/2000/svg">
<path fill-rule="evenodd" clip-rule="evenodd" d="M13.9727 16.3213H51.9342C51.9378 16.4 51.9426 16.4796 51.9474 16.5597C51.9575 16.7279 51.9677 16.8987 51.9677 17.07C51.9679 17.9947 51.9681 18.9193 51.9684 19.8439C51.9698 26.0055 51.9712 32.1667 51.9696 38.3282L39.0125 29.503L42.0059 49.9906C35.6146 49.9973 29.5216 49.9943 23.2325 49.9912C20.3777 49.9898 17.4824 49.9884 14.5005 49.9878C14.4013 49.9872 14.3022 49.9785 14.1858 49.9684C14.1211 49.9627 14.051 49.9566 13.9727 49.9511V16.3213ZM46.6703 49.984C46.7179 49.9839 46.7656 49.9839 46.8132 49.9838C47.3254 49.9829 47.8194 49.9057 48.2854 49.7632L47.6428 48.7359L46.6703 49.984Z" fill="#5600E3"/>
<path d="M46.2586 -0.000646828C38.4841 0.0748387 31.9258 0.0187346 24.1503 0.0177145C17.9036 0.0177145 11.6569 0.0126141 5.41012 0.0217948C2.62782 0.0258751 0.22413 2.00992 0.0759299 4.66007C-0.0732853 7.32349 0.0434477 10.0012 0.0434477 12.7319C17.8031 12.7319 34.2523 12.7319 51.9693 12.7319C51.9693 10.3633 51.8749 8.05692 51.9927 5.76175C52.1439 2.83312 49.9483 -0.0363494 46.2586 -0.000646828ZM8.68778 8.14261C7.7458 8.14159 6.99668 7.38673 6.98653 6.4299C6.97637 5.47205 7.71941 4.70394 8.66748 4.69374C9.62875 4.68354 10.4499 5.50368 10.4296 6.45337C10.4093 7.38775 9.62977 8.14363 8.68778 8.14261ZM15.641 8.13547C14.6503 8.14363 13.9073 7.38163 13.9255 6.37686C13.9428 5.42411 14.7051 4.6764 15.6461 4.68864C16.586 4.70088 17.3341 5.46899 17.3331 6.42072C17.3331 7.37347 16.5881 8.12731 15.641 8.13547ZM22.5232 8.14159C21.5853 8.12629 20.8199 7.34083 20.829 6.4044C20.8382 5.47613 21.6299 4.68966 22.5587 4.6866C23.523 4.68354 24.3128 5.50572 24.2803 6.47785C24.2488 7.42652 23.4763 8.15791 22.5232 8.14159Z" fill="#2DFFB3"/>
<path d="M9.88445 16.2705C6.64435 16.2889 3.40424 16.2797 0.0768452 16.2797C0.0545137 16.496 0.0311671 16.6225 0.0311671 16.7489C0.030152 26.1806 0.0189863 35.6112 0.0403027 45.0428C0.044363 47.0289 1.59945 49.0741 3.48646 49.6443C4.15641 49.8473 4.8761 49.9524 5.57649 49.9738C7.17218 50.0218 8.76889 49.9891 10.4417 49.9891C10.4417 49.5852 10.4417 49.2995 10.4417 49.0139C10.4438 40.1393 10.4468 31.2646 10.4478 22.3889C10.4478 20.5875 10.4397 18.786 10.4448 16.9846C10.4448 16.5868 10.4509 16.2675 9.88445 16.2705Z" fill="#5600E3"/>
<path d="M45.1764 26.3127H21.239C20.1671 26.3127 19.2891 25.4313 19.2891 24.3531C19.2891 23.2759 20.1661 22.3936 21.239 22.3936H45.1764C46.2483 22.3936 47.1263 23.2749 47.1263 24.3531C47.1263 25.4313 46.2483 26.3127 45.1764 26.3127Z" fill="white"/>
<path d="M45.1764 34.3713H21.239C20.1671 34.3713 19.2891 33.4899 19.2891 32.4117C19.2891 31.3345 20.1661 30.4521 21.239 30.4521H45.1764C46.2483 30.4521 47.1263 31.3335 47.1263 32.4117C47.1263 33.4899 46.2483 34.3713 45.1764 34.3713Z" fill="white"/>
<path d="M45.1764 42.4299H21.239C20.1671 42.4299 19.2891 41.5485 19.2891 40.4703C19.2891 39.3931 20.1661 38.5107 21.239 38.5107H45.1764C46.2483 38.5107 47.1263 39.3921 47.1263 40.4703C47.1263 41.5485 46.2483 42.4299 45.1764 42.4299Z" fill="white"/>
<path d="M56.4774 43.7237L42.0085 33.8689L44.5394 51.1911L47.8657 46.9218L50.8975 51.7688L54.2149 49.6938L51.183 44.8468L56.4774 43.7237Z" fill="#5600E3"/>
</svg>
