<svg width="74" height="84" viewBox="0 0 74 84" fill="none" xmlns="http://www.w3.org/2000/svg">
<g clip-path="url(#clip0)">
<path d="M0 73.1006V83.9006H47.7V73.1006C47.7 66.6006 42.7 61.6006 36.2 61.6006H11.6C5.4 61.6006 0 66.7006 0 73.1006Z" fill="#5600E3"/>
<path d="M23.8 56.8002C31.1 56.8002 37.1 50.8002 37.1 43.5002C37.1 36.2002 31.1 30.2002 23.8 30.2002C16.5 30.2002 10.5 36.2002 10.5 43.5002C10.6 50.8002 16.5 56.8002 23.8 56.8002Z" fill="#5600E3"/>
<path d="M54.9996 58.8C60.7996 58.8 65.3996 54 65.3996 48.4C65.3996 42.8 60.5996 38 54.9996 38C49.1996 38 44.5996 42.8 44.5996 48.4C44.5996 54 49.1996 58.8 54.9996 58.8Z" fill="#5600E3"/>
<path d="M64.5996 62.6006H46.5996C49.5996 65.2006 51.3996 69.0006 51.3996 73.3006L51.7996 83.9006H73.6996V71.7006C73.7996 66.6006 69.6996 62.6006 64.5996 62.6006Z" fill="#5600E3"/>
<path d="M66.9003 11.6001C64.7003 3.20012 56.1003 -1.69988 47.9003 0.500122C39.6003 2.70012 34.6003 11.2001 36.8003 19.5001C37.9003 23.5001 40.3003 26.6001 43.5003 28.7001L39.4003 35.0001L55.9003 30.7001C64.1003 28.5001 69.1003 19.9001 66.9003 11.6001Z" fill="#2DFFB3"/>
</g>
<defs>
<clipPath id="clip0">
<rect width="73.8" height="83.9" fill="white"/>
</clipPath>
</defs>
</svg>
