<?xml version="1.0" encoding="utf-8"?>
<!-- Generator: Moho 13.0.2 build 610 -->
<!DOCTYPE svg PUBLIC "-//W3C//DTD SVG 1.1//EN" "http://www.w3.org/Graphics/SVG/1.1/DTD/svg11.dtd">
<svg version="1.1" id="Frame_0" xmlns="http://www.w3.org/2000/svg" xmlns:xlink="http://www.w3.org/1999/xlink" width="60px" height="60px">
<g id="Group_464.svg">
<path fill="#5600e3" fill-rule="evenodd" stroke="none" d="M 11.957 25.706 C 11.885 22.981 13.798 20.600 16.468 20.077 C 19.409 19.571 22.206 21.538 22.729 24.497 C 22.783 24.822 22.819 25.165 22.801 25.489 C 22.801 26.091 22.801 26.692 22.801 27.294 C 24.298 27.293 25.796 27.293 27.294 27.294 C 27.293 25.188 27.293 23.083 27.294 20.979 C 27.294 19.986 28.106 19.174 29.098 19.174 C 30.228 19.174 31.359 19.174 32.490 19.174 C 33.428 19.229 34.276 18.615 34.511 17.695 C 34.601 17.172 34.457 16.630 34.114 16.215 C 33.771 15.800 33.248 15.566 32.706 15.566 C 31.503 15.566 30.300 15.566 29.098 15.566 C 28.106 15.566 27.294 14.754 27.294 13.762 C 27.293 10.454 27.293 7.146 27.294 3.838 C 21.279 3.838 15.265 3.838 9.251 3.838 C 6.256 3.838 3.838 6.256 3.838 9.251 C 3.838 15.265 3.838 21.279 3.838 27.294 C 6.545 27.293 9.251 27.293 11.957 27.294 C 11.957 26.764 11.957 26.235 11.957 25.706 Z"/>
<path fill="#2dffb3" fill-rule="evenodd" stroke="none" d="M 50.749 3.838 C 44.734 3.838 38.720 3.838 32.706 3.838 C 32.706 6.545 32.706 9.251 32.706 11.957 C 33.308 11.957 33.909 11.957 34.511 11.957 C 36.098 11.957 37.614 12.661 38.642 13.888 C 39.689 15.097 40.158 16.685 39.923 18.272 C 39.400 20.907 37.055 22.801 34.366 22.765 C 33.813 22.765 33.259 22.765 32.706 22.765 C 32.706 24.274 32.706 25.784 32.706 27.294 C 34.811 27.293 36.916 27.293 39.021 27.294 C 40.014 27.294 40.826 28.106 40.826 29.098 C 40.825 30.228 40.825 31.359 40.826 32.490 C 40.789 33.428 41.403 34.258 42.305 34.511 C 43.279 34.691 44.218 34.042 44.398 33.067 C 44.416 32.959 44.434 32.833 44.434 32.706 C 44.434 31.503 44.434 30.300 44.434 29.098 C 44.434 28.106 45.246 27.294 46.238 27.294 C 49.546 27.293 52.853 27.293 56.162 27.294 C 56.161 21.279 56.161 15.265 56.162 9.251 C 56.162 6.256 53.744 3.838 50.749 3.838 Z"/>
<path fill="#5600e3" fill-rule="evenodd" stroke="none" d="M 20.077 43.532 C 19.806 41.962 20.257 40.338 21.285 39.129 C 22.332 37.902 23.866 37.199 25.489 37.217 C 26.091 37.216 26.692 37.216 27.294 37.217 C 27.293 35.713 27.293 34.209 27.294 32.706 C 25.188 32.706 23.083 32.706 20.979 32.706 C 19.986 32.706 19.174 31.894 19.174 30.902 C 19.174 29.771 19.174 28.640 19.174 27.510 C 19.211 26.572 18.597 25.742 17.695 25.489 C 17.172 25.399 16.630 25.543 16.215 25.904 C 15.800 26.247 15.566 26.752 15.566 27.293 C 15.566 28.496 15.566 29.699 15.566 30.902 C 15.566 31.894 14.754 32.706 13.762 32.706 C 10.454 32.706 7.146 32.706 3.838 32.706 C 3.838 38.720 3.838 44.734 3.838 50.749 C 3.838 53.744 6.256 56.161 9.251 56.161 C 15.265 56.161 21.279 56.161 27.294 56.161 C 27.293 53.455 27.293 50.748 27.294 48.042 C 26.764 48.042 26.235 48.042 25.706 48.042 C 22.981 48.114 20.600 46.202 20.077 43.532 Z"/>
<path fill="#5600e3" fill-rule="evenodd" stroke="none" d="M 48.043 34.294 C 48.115 37.019 46.202 39.400 43.532 39.923 C 43.225 39.941 42.918 39.941 42.612 39.923 C 39.617 39.923 37.199 37.506 37.199 34.511 C 37.199 33.909 37.199 33.308 37.199 32.706 C 35.701 32.706 34.204 32.706 32.706 32.706 C 32.706 34.811 32.706 36.916 32.706 39.021 C 32.706 40.014 31.894 40.826 30.902 40.826 C 29.699 40.825 28.496 40.825 27.294 40.826 C 26.770 40.826 26.265 41.060 25.922 41.475 C 25.634 41.782 25.489 42.197 25.489 42.612 C 25.489 42.720 25.489 42.846 25.489 42.955 C 25.724 43.857 26.554 44.470 27.474 44.434 C 28.616 44.434 29.759 44.434 30.902 44.434 C 31.894 44.434 32.706 45.246 32.706 46.238 C 32.706 49.546 32.706 52.853 32.706 56.162 C 38.720 56.161 44.734 56.161 50.749 56.162 C 53.744 56.162 56.162 53.744 56.162 50.749 C 56.161 44.734 56.161 38.720 56.162 32.706 C 53.455 32.706 50.749 32.706 48.043 32.706 C 48.042 33.235 48.042 33.765 48.043 34.294 Z"/>
</g>
</svg>
