<svg width="50" height="40" viewBox="0 0 50 40" fill="none" xmlns="http://www.w3.org/2000/svg">
<g clip-path="url(#clip0)">
<path d="M25.6677 20.9619C25.6143 20.9084 25.5073 20.8015 25.4538 20.8015L23.4217 20.4806C23.3148 20.1598 23.2078 19.7854 22.9939 19.3576C23.1544 19.1437 23.3148 18.8763 23.6356 18.5555C23.903 18.2346 24.0635 17.9673 24.2239 17.8603C24.2774 17.7534 24.3308 17.6999 24.3308 17.5929C24.3308 17.379 23.6891 16.6304 22.3522 15.4539C22.2453 15.4004 22.1918 15.3469 22.0848 15.3469C21.9779 15.3469 21.8709 15.4004 21.8175 15.4539L20.2132 16.6304C19.8389 16.4165 19.518 16.3095 19.1971 16.2026L18.8763 14.1705C18.8763 14.0635 18.8228 14.01 18.7159 13.9566C18.6624 13.9031 18.5554 13.8496 18.4485 13.8496H15.9351C15.7212 13.8496 15.6143 13.9566 15.5073 14.1705C15.4004 14.5983 15.2934 15.2935 15.1864 16.256C14.8121 16.4165 14.4378 16.5234 14.1704 16.6838L12.5661 15.4539C12.4592 15.4004 12.4057 15.3469 12.2987 15.3469C12.1383 15.3469 11.764 15.6143 11.2292 16.1491C10.6945 16.6838 10.3201 17.0582 10.1062 17.3255C10.0528 17.379 9.99928 17.486 9.99928 17.5929C9.99928 17.6464 10.0528 17.7534 10.1062 17.8603C10.641 18.502 11.0153 18.9833 11.3362 19.4646C11.1223 19.8389 11.0153 20.1598 10.9084 20.4806L8.82281 20.8015C8.76933 20.8015 8.66238 20.855 8.60891 20.9619C8.55543 21.0689 8.50195 21.1223 8.50195 21.2293V23.7427C8.50195 23.8496 8.55543 23.9031 8.60891 24.01C8.66238 24.0635 8.76933 24.1705 8.82281 24.1705L10.8549 24.4913C10.9618 24.8122 11.1223 25.1865 11.3362 25.6143C11.1758 25.8282 11.0153 26.0956 10.6945 26.4165C10.4271 26.7373 10.2132 27.0047 10.1597 27.1116C10.1062 27.2186 10.0528 27.2721 10.0528 27.379C10.0528 27.5929 10.6945 28.3416 12.0314 29.5181C12.1383 29.5715 12.1918 29.625 12.2987 29.625C12.4057 29.625 12.5126 29.5715 12.5661 29.5181L14.1704 28.3416C14.5447 28.5555 14.8656 28.6624 15.1864 28.7694L15.5073 30.855C15.5073 30.9619 15.5608 31.0154 15.6677 31.0689C15.7212 31.1223 15.8282 31.1758 15.9351 31.1758H18.4485C18.6624 31.1758 18.7693 31.0689 18.8763 30.855C18.9832 30.4272 19.0902 29.732 19.1971 28.7694C19.5715 28.6624 19.8923 28.5555 20.2132 28.3416L21.8175 29.5715C21.9244 29.625 21.9779 29.6785 22.0848 29.6785C22.2453 29.6785 22.6196 29.4111 23.1544 28.8763C23.6891 28.3416 24.0635 27.9138 24.2774 27.6999C24.2239 27.5929 24.2774 27.5395 24.2774 27.379C24.2774 27.2721 24.2239 27.2186 24.1704 27.1116C23.6356 26.4699 23.2613 25.9886 22.9405 25.5074C23.1544 25.133 23.2613 24.8122 23.3683 24.4913L25.4538 24.1705C25.5073 24.1705 25.6143 24.117 25.6677 24.01C25.7212 23.9031 25.7747 23.8496 25.7747 23.7427V21.2293C25.7747 21.1758 25.7212 21.0689 25.6677 20.9619ZM19.5715 24.9726C18.8763 25.6678 18.0741 25.9886 17.1116 25.9886C16.149 25.9886 15.3469 25.6678 14.6517 24.9726C13.9565 24.2774 13.6356 23.4753 13.6356 22.5127C13.6356 21.5501 13.9565 20.748 14.6517 20.0528C15.3469 19.3576 16.149 19.0368 17.1116 19.0368C18.0741 19.0368 18.8763 19.3576 19.5715 20.0528C20.2667 20.748 20.5875 21.5501 20.5875 22.5127C20.5875 23.4753 20.2667 24.3309 19.5715 24.9726Z" fill="#5600E3"/>
<path d="M35.6928 18.9674L46.4316 8.22852L41.705 3.50191L30.9662 14.2408L35.6928 18.9674Z" fill="#2DFFB3"/>
<path d="M27.4858 21.2827C27.3254 21.9779 27.9671 22.6731 28.6623 22.4592L32.9403 21.4966C33.1008 21.4432 33.3147 21.3362 33.4216 21.2293L34.5446 20.1063L29.8387 15.4004L28.7158 16.5234C28.6088 16.6838 28.5019 16.8442 28.4484 17.0047L27.4858 21.2827Z" fill="#2DFFB3"/>
<path d="M41.0695 35.8815H3.63636V10.5874H32.0856L40.3209 2.29867L40.8021 1.81738H2.6738C1.17647 1.81738 0 3.04733 0 4.49118V36.6302C0 38.1275 1.22995 39.304 2.6738 39.304H42.0321C43.5294 39.304 44.7059 38.0741 44.7059 36.6302V12.566L41.0695 16.2024V35.8815ZM15.7219 4.91899C16.4706 4.91899 17.1123 5.5607 17.1123 6.30936C17.1123 7.05802 16.4706 7.69974 15.7219 7.69974C14.9733 7.69974 14.3316 7.05802 14.3316 6.30936C14.3316 5.50722 14.9733 4.91899 15.7219 4.91899ZM10.3743 4.91899C11.123 4.91899 11.7647 5.5607 11.7647 6.30936C11.7647 7.05802 11.123 7.69974 10.3743 7.69974C9.62567 7.69974 8.98396 7.05802 8.98396 6.30936C8.98396 5.50722 9.62567 4.91899 10.3743 4.91899ZM5.02674 4.91899C5.7754 4.91899 6.41711 5.5607 6.41711 6.30936C6.41711 7.05802 5.7754 7.69974 5.02674 7.69974C4.27808 7.69974 3.63636 7.05802 3.63636 6.30936C3.63636 5.50722 4.27808 4.91899 5.02674 4.91899Z" fill="#5600E3"/>
<path d="M49.6782 3.58258L46.3627 0.267077C45.9883 -0.107255 45.3466 -0.107255 44.9188 0.267077L42.8867 2.29916L47.5926 7.00504L49.6247 4.97296C50.0525 4.59863 50.0525 3.95692 49.6782 3.58258Z" fill="#2DFFB3"/>
</g>
<defs>
<clipPath id="clip0">
<rect width="50" height="39.3048" fill="white"/>
</clipPath>
</defs>
</svg>
