<?xml version="1.0" encoding="utf-8"?>
<!-- Generator: Moho 13.0.2 build 610 -->
<!DOCTYPE svg PUBLIC "-//W3C//DTD SVG 1.1//EN" "http://www.w3.org/Graphics/SVG/1.1/DTD/svg11.dtd">
<svg version="1.1" id="Frame_0" xmlns="http://www.w3.org/2000/svg" xmlns:xlink="http://www.w3.org/1999/xlink" width="60px" height="60px">
<g id="Frame_(1).svg">
<path fill="#5600e3" fill-rule="evenodd" stroke="none" d="M 32.422 515.407 C 32.422 527.629 32.422 539.852 32.422 552.074 C 32.422 553.653 31.146 554.916 29.550 554.916 C 22.559 554.915 15.568 554.915 8.577 554.916 C 7.027 554.916 5.750 553.743 5.705 552.255 C 5.704 539.972 5.705 527.689 5.705 515.407 C 5.705 514.505 6.388 513.828 7.300 513.828 C 7.878 513.828 8.455 513.828 9.033 513.828 C 9.352 513.828 9.671 514.009 9.808 514.324 C 10.537 515.858 12.088 516.940 13.911 516.940 C 17.346 516.940 20.781 516.940 24.216 516.940 C 26.039 516.940 27.635 515.858 28.319 514.324 C 28.456 514.009 28.775 513.828 29.094 513.828 C 29.671 513.828 30.249 513.828 30.827 513.828 C 31.693 513.828 32.422 514.550 32.422 515.407 M 35.568 515.407 C 35.568 512.791 33.425 510.671 30.827 510.671 C 22.984 510.671 15.142 510.671 7.300 510.671 C 4.656 510.671 2.513 512.791 2.513 515.407 C 2.513 530.215 2.513 545.023 2.513 559.832 C 2.513 562.313 4.565 564.342 7.072 564.342 C 15.051 564.341 23.030 564.341 31.009 564.342 C 33.517 564.342 35.568 562.313 35.568 559.832 C 35.568 545.023 35.568 530.215 35.568 515.407 Z"/>
<path fill="#f9fbfc" fill-rule="evenodd" stroke="none" d="M 19.063 561.230 C 19.930 561.230 20.659 560.508 20.659 559.651 C 20.659 558.795 19.929 558.073 19.063 558.073 C 18.197 558.073 17.467 558.795 17.467 559.651 C 17.467 560.508 18.151 561.230 19.063 561.230 Z"/>
<path fill="#2dffb3" fill-rule="evenodd" stroke="none" d="M 53.806 548.962 C 43.243 548.962 32.681 548.962 22.119 548.962 C 20.386 548.962 18.927 547.564 18.927 545.805 C 18.927 539.235 18.927 532.665 18.927 526.096 C 18.927 524.382 20.340 522.939 22.119 522.939 C 32.681 522.938 43.243 522.938 53.806 522.939 C 55.539 522.939 56.998 524.337 56.998 526.096 C 56.997 532.665 56.997 539.235 56.998 545.805 C 56.998 547.519 55.584 548.962 53.806 548.962 Z"/>
<path fill="#5600e3" fill-rule="evenodd" stroke="none" d="M 27.726 534.981 C 27.437 534.981 27.149 534.981 26.860 534.981 C 25.994 534.981 25.264 534.259 25.264 533.402 C 25.264 532.545 25.994 531.824 26.860 531.824 C 27.149 531.823 27.437 531.823 27.726 531.824 C 28.593 531.824 29.322 532.545 29.322 533.402 C 29.322 534.304 28.593 534.981 27.726 534.981 Z"/>
<path fill="#5600e3" fill-rule="evenodd" stroke="none" d="M 42.362 542.874 C 37.194 542.873 32.027 542.873 26.860 542.874 C 25.994 542.874 25.264 542.152 25.264 541.295 C 25.264 540.438 25.994 539.717 26.860 539.717 C 32.012 539.716 37.164 539.716 42.316 539.717 C 43.183 539.717 43.912 540.438 43.912 541.295 C 43.912 542.152 43.228 542.874 42.362 542.874 Z"/>
<path fill="#5600e3" fill-rule="evenodd" stroke="none" d="M 34.930 534.981 C 34.641 534.981 34.352 534.981 34.064 534.981 C 33.197 534.981 32.468 534.259 32.468 533.402 C 32.468 532.545 33.197 531.824 34.064 531.824 C 34.352 531.823 34.641 531.823 34.930 531.824 C 35.796 531.824 36.526 532.545 36.526 533.402 C 36.526 534.304 35.796 534.981 34.930 534.981 Z"/>
<path fill="#5600e3" fill-rule="evenodd" stroke="none" d="M 42.134 534.981 C 41.844 534.981 41.556 534.981 41.267 534.981 C 40.401 534.981 39.671 534.259 39.671 533.402 C 39.671 532.545 40.401 531.824 41.267 531.824 C 41.556 531.823 41.844 531.823 42.134 531.824 C 43.000 531.824 43.729 532.545 43.729 533.402 C 43.729 534.304 43.045 534.981 42.134 534.981 Z"/>
<path fill="#5600e3" fill-rule="evenodd" stroke="none" d="M 49.337 534.981 C 49.048 534.981 48.759 534.981 48.471 534.981 C 47.605 534.981 46.875 534.259 46.875 533.402 C 46.875 532.545 47.605 531.824 48.471 531.824 C 48.759 531.823 49.048 531.823 49.337 531.824 C 50.203 531.824 50.933 532.545 50.933 533.402 C 50.933 534.304 50.249 534.981 49.337 534.981 Z"/>
<path fill="#5600e3" fill-rule="evenodd" stroke="none" d="M 9.492 431.867 C 7.270 431.867 5.049 431.867 2.827 431.867 C 1.668 431.867 0.757 430.903 0.757 429.771 C 0.757 426.458 0.757 423.145 0.757 419.833 C 0.757 418.659 1.709 417.737 2.827 417.737 C 5.049 417.736 7.270 417.736 9.492 417.737 C 10.651 417.737 11.562 418.701 11.562 419.833 C 11.562 423.145 11.562 426.458 11.562 429.771 C 11.562 430.903 10.651 431.867 9.492 431.867 Z"/>
<path fill="#5600e3" fill-rule="evenodd" stroke="none" d="M 23.442 431.867 C 21.221 431.867 18.999 431.867 16.778 431.867 C 15.619 431.867 14.708 430.903 14.708 429.771 C 14.708 424.292 14.708 418.812 14.708 413.334 C 14.708 412.160 15.660 411.237 16.778 411.237 C 18.999 411.237 21.221 411.237 23.442 411.237 C 24.601 411.237 25.512 412.202 25.512 413.334 C 25.512 418.812 25.512 424.292 25.512 429.771 C 25.512 430.903 24.601 431.867 23.442 431.867 Z"/>
<path fill="#5600e3" fill-rule="evenodd" stroke="none" d="M 37.393 431.867 C 35.157 431.867 32.922 431.867 30.687 431.867 C 29.528 431.867 28.617 430.903 28.617 429.771 C 28.617 421.748 28.617 413.725 28.617 405.702 C 28.617 404.528 29.569 403.606 30.687 403.606 C 32.908 403.605 35.130 403.605 37.352 403.606 C 38.511 403.606 39.422 404.570 39.422 405.702 C 39.421 413.725 39.421 421.748 39.422 429.771 C 39.463 430.903 38.511 431.867 37.393 431.867 Z"/>
<path fill="#2dffb3" fill-rule="evenodd" stroke="none" d="M 57.139 399.790 C 58.505 399.790 59.085 398.825 58.381 397.609 C 57.277 395.666 56.173 393.724 55.069 391.781 C 54.407 390.565 53.289 388.636 52.586 387.420 C 51.481 385.477 50.377 383.534 49.274 381.591 C 48.611 380.375 47.494 380.375 46.790 381.591 C 45.686 383.534 44.582 385.477 43.478 387.420 C 42.816 388.636 41.698 390.565 40.995 391.781 C 39.890 393.724 38.787 395.666 37.683 397.609 C 37.021 398.825 37.559 399.790 38.925 399.790 C 39.338 399.790 39.752 399.790 40.167 399.790 C 41.533 399.790 42.650 400.922 42.651 402.306 C 42.650 410.622 42.650 418.938 42.651 427.255 C 42.651 428.639 42.857 430.232 43.106 430.819 C 43.354 431.406 45.838 431.867 47.204 431.867 C 47.769 431.867 48.335 431.867 48.901 431.867 C 50.267 431.867 51.840 431.658 52.420 431.406 C 53.000 431.155 53.455 428.639 53.455 427.255 C 53.454 418.938 53.454 410.622 53.455 402.306 C 53.455 400.922 54.573 399.790 55.939 399.790 C 56.338 399.790 56.738 399.790 57.139 399.790 Z"/>
<path fill="#5600e3" fill-rule="evenodd" stroke="none" d="M 27.875 498.999 C 27.875 496.926 27.875 494.853 27.875 492.781 C 24.304 492.995 21.378 490.122 21.378 486.563 C 21.378 483.218 24.304 480.345 27.875 480.559 C 27.875 478.558 27.875 476.557 27.875 474.556 C 24.074 474.556 20.274 474.556 16.473 474.556 C 16.904 473.441 17.592 472.326 17.592 471.211 C 17.592 466.751 10.880 466.751 10.880 471.211 C 10.880 472.326 11.569 473.441 11.999 474.556 C 8.198 474.556 4.398 474.556 0.597 474.556 C 0.597 482.131 0.597 489.707 0.597 497.284 C 0.597 498.184 1.286 499.085 2.404 499.085 C 10.894 499.084 19.385 499.084 27.875 499.085 C 27.875 499.056 27.875 499.027 27.875 498.999 Z"/>
<path fill="#5600e3" fill-rule="evenodd" stroke="none" d="M 58.036 474.513 C 55.654 474.513 53.274 474.513 50.894 474.513 C 51.109 478.072 48.441 480.988 44.870 480.988 C 41.299 480.988 38.373 478.072 38.632 474.513 C 35.935 474.513 33.239 474.513 30.543 474.513 C 30.543 477.700 30.543 480.888 30.543 484.076 C 29.639 483.861 28.521 483.175 27.402 483.175 C 22.928 483.175 22.928 490.079 27.402 490.079 C 28.521 490.079 29.639 489.393 30.543 489.179 C 30.543 492.452 30.543 495.725 30.543 498.999 C 39.033 498.998 47.523 498.998 56.014 498.999 C 57.132 498.999 58.036 498.098 58.036 497.198 C 58.035 489.636 58.035 482.074 58.036 474.513 Z"/>
<path fill="#5600e3" fill-rule="evenodd" stroke="none" d="M 0.383 471.854 C 2.993 471.854 5.603 471.854 8.213 471.854 C 7.783 468.295 10.665 465.165 14.236 465.165 C 17.808 465.165 20.733 468.295 20.260 471.854 C 22.798 471.854 25.337 471.854 27.875 471.854 C 27.875 468.438 27.875 465.021 27.875 461.605 C 28.994 462.034 30.113 462.720 31.231 462.720 C 35.921 462.720 35.921 455.602 31.231 455.602 C 30.113 455.602 28.994 456.502 27.875 456.931 C 27.875 453.658 27.875 450.384 27.875 447.111 C 19.385 447.111 10.895 447.111 2.405 447.111 C 1.286 447.111 0.383 448.012 0.383 449.127 C 0.383 456.702 0.383 464.278 0.383 471.854 Z"/>
<path fill="#2dffb3" fill-rule="evenodd" stroke="none" d="M 58.035 471.854 C 58.035 464.278 58.035 456.702 58.035 449.127 C 58.035 448.012 57.132 447.111 56.013 447.111 C 47.523 447.111 39.032 447.111 30.543 447.111 C 30.542 449.112 30.542 451.113 30.543 453.115 C 34.114 452.686 37.470 455.559 37.470 459.118 C 37.470 462.892 34.114 465.593 30.543 465.122 C 30.542 467.351 30.542 469.581 30.543 471.811 C 34.414 471.811 38.287 471.811 42.159 471.811 C 41.944 472.712 41.256 473.827 41.256 474.942 C 41.256 479.402 48.183 479.402 48.183 474.942 C 48.183 473.827 47.753 472.712 47.279 471.811 C 50.864 471.811 54.449 471.811 58.035 471.811 C 58.035 471.826 58.035 471.840 58.035 471.854 Z"/>
<path fill="#5600e3" fill-rule="evenodd" stroke="none" d="M 32.085 365.024 C 32.085 365.855 31.371 366.568 30.538 366.568 C 29.646 366.568 28.992 365.915 28.992 365.024 C 28.992 364.193 29.646 363.481 30.538 363.481 C 31.371 363.481 32.085 364.193 32.085 365.024 M 55.525 336.000 C 55.465 335.822 55.465 335.703 55.406 335.466 C 54.235 336.455 53.065 337.444 51.896 338.434 C 51.895 345.991 51.895 353.549 51.896 361.107 C 37.657 361.107 23.419 361.107 9.181 361.107 C 9.181 353.193 9.181 345.279 9.181 337.365 C 17.312 337.365 25.442 337.365 33.573 337.365 C 34.584 336.178 35.595 334.991 36.607 333.804 C 27.028 333.804 17.450 333.804 7.873 333.804 C 6.683 333.804 5.671 334.813 5.671 336.059 C 5.671 346.268 5.671 356.477 5.671 366.686 C 5.671 367.873 6.683 368.882 7.873 368.882 C 13.940 368.882 20.008 368.882 26.077 368.882 C 26.076 370.247 26.076 371.612 26.077 372.978 C 24.728 372.977 23.380 372.977 22.031 372.978 C 21.436 372.978 20.901 373.453 20.901 374.106 C 20.901 374.798 20.901 375.490 20.901 376.183 C 20.901 376.777 21.377 377.311 22.031 377.311 C 27.683 377.310 33.334 377.310 38.986 377.311 C 39.581 377.311 40.116 376.836 40.116 376.183 C 40.116 375.490 40.116 374.798 40.116 374.106 C 40.116 373.512 39.641 372.978 38.986 372.978 C 37.637 372.977 36.289 372.977 34.941 372.978 C 34.941 371.612 34.941 370.247 34.941 368.882 C 41.048 368.882 47.156 368.882 53.264 368.882 C 54.513 368.882 55.525 367.873 55.525 366.686 C 55.524 356.457 55.524 346.229 55.525 336.000 Z"/>
<path fill="#2dffb3" fill-rule="evenodd" stroke="none" d="M 37.558 342.410 C 38.332 343.181 38.927 344.072 39.343 345.021 C 44.082 340.926 48.822 336.830 53.561 332.735 C 55.525 331.014 55.584 328.046 53.799 326.206 C 51.955 324.366 48.981 324.485 47.255 326.444 C 43.170 331.192 39.085 335.940 35.000 340.688 C 35.952 341.045 36.844 341.638 37.558 342.410 Z"/>
<path fill="#2dffb3" fill-rule="evenodd" stroke="none" d="M 28.040 344.724 C 25.898 346.861 26.910 350.541 23.400 353.153 C 22.745 353.628 22.983 354.637 23.757 354.815 C 29.289 356.002 33.216 354.043 35.238 351.966 C 37.202 350.007 37.202 346.743 35.238 344.724 C 33.275 342.706 30.063 342.706 28.040 344.724 Z"/>
<path fill="#5600e3" fill-rule="evenodd" stroke="none" d="M 35.199 296.596 C 31.992 296.596 28.784 296.596 25.577 296.596 C 17.922 296.596 11.742 302.215 11.742 309.168 C 11.742 309.776 11.742 310.384 11.742 310.994 C 11.742 311.626 12.233 312.117 12.865 312.117 C 24.594 312.117 36.323 312.117 48.052 312.117 C 48.684 312.117 49.175 311.626 49.175 310.994 C 49.175 310.384 49.175 309.776 49.175 309.168 C 49.105 302.215 42.854 296.596 35.199 296.596 Z"/>
<path fill="#2dffb3" fill-rule="evenodd" stroke="none" d="M 48.051 274.894 C 48.051 274.519 48.051 274.144 48.051 273.770 C 48.051 266.044 40.607 259.723 31.547 259.723 C 30.774 259.723 30.002 259.723 29.229 259.723 C 20.169 259.723 12.725 266.044 12.725 273.840 C 12.725 274.215 12.725 274.589 12.725 274.964 C 10.407 275.596 8.721 277.492 8.721 279.880 C 8.721 281.776 9.845 283.392 11.460 284.235 C 11.460 284.281 11.460 284.328 11.460 284.375 C 11.460 286.693 13.497 288.589 15.955 288.589 C 19.537 288.589 23.119 288.589 26.701 288.589 C 27.333 289.783 28.667 290.626 30.142 290.626 C 32.249 290.626 34.005 289.010 34.005 287.044 C 34.005 285.077 32.249 283.462 30.142 283.462 C 28.246 283.462 26.701 284.726 26.350 286.412 C 22.885 286.411 19.420 286.411 15.955 286.412 C 14.902 286.412 13.989 285.780 13.708 284.937 C 13.919 284.937 14.059 285.007 14.270 285.007 C 14.597 285.007 14.925 285.007 15.253 285.007 C 15.885 285.007 16.377 284.515 16.377 283.883 C 16.377 281.191 16.377 278.499 16.377 275.807 C 16.377 275.175 15.885 274.683 15.253 274.683 C 15.136 274.683 15.019 274.683 14.902 274.683 C 14.902 274.378 14.902 274.074 14.902 273.770 C 14.902 267.168 21.293 261.830 29.229 261.830 C 30.002 261.830 30.774 261.830 31.547 261.830 C 39.413 261.830 45.874 267.168 45.874 273.770 C 45.874 274.074 45.874 274.378 45.874 274.683 C 45.804 274.683 45.733 274.683 45.664 274.683 C 45.031 274.683 44.540 275.175 44.540 275.807 C 44.539 278.475 44.539 281.144 44.540 283.813 C 44.540 284.445 45.031 284.937 45.664 284.937 C 45.991 284.937 46.319 284.937 46.647 284.937 C 49.667 284.937 52.195 282.619 52.195 279.810 C 52.195 277.492 50.439 275.526 48.051 274.894 Z"/>
<path fill="#5600e3" fill-rule="evenodd" stroke="none" d="M 30.213 292.733 C 28.387 292.733 26.702 291.960 25.648 290.696 C 24.852 290.695 24.056 290.695 23.260 290.696 C 25.297 292.592 27.755 293.856 30.424 293.856 C 37.868 293.856 43.487 284.164 43.487 277.843 C 43.417 271.382 37.588 266.044 30.354 266.044 C 23.190 266.044 17.290 271.382 17.290 277.913 C 17.290 279.810 17.782 281.987 18.695 284.164 C 20.755 284.164 22.815 284.164 24.876 284.164 C 25.929 282.408 27.895 281.214 30.143 281.214 C 33.444 281.214 36.183 283.813 36.183 286.974 C 36.253 290.134 33.514 292.733 30.213 292.733 Z"/>
<path fill="#5600e3" fill-rule="evenodd" stroke="none" d="M 35.199 296.596 C 31.992 296.596 28.784 296.596 25.577 296.596 C 17.922 296.596 11.742 302.215 11.742 309.168 C 11.742 309.776 11.742 310.384 11.742 310.994 C 11.742 311.626 12.233 312.117 12.865 312.117 C 24.594 312.117 36.323 312.117 48.052 312.117 C 48.684 312.117 49.175 311.626 49.175 310.994 C 49.175 310.384 49.175 309.776 49.175 309.168 C 49.105 302.215 42.854 296.596 35.199 296.596 Z"/>
<path fill="#2dffb3" fill-rule="evenodd" stroke="none" d="M 48.051 274.894 C 48.051 274.519 48.051 274.144 48.051 273.770 C 48.051 266.044 40.607 259.723 31.547 259.723 C 30.774 259.723 30.002 259.723 29.229 259.723 C 20.169 259.723 12.725 266.044 12.725 273.840 C 12.725 274.215 12.725 274.589 12.725 274.964 C 10.407 275.596 8.721 277.492 8.721 279.880 C 8.721 281.776 9.845 283.392 11.460 284.235 C 11.460 284.281 11.460 284.328 11.460 284.375 C 11.460 286.693 13.497 288.589 15.955 288.589 C 19.537 288.589 23.119 288.589 26.701 288.589 C 27.333 289.783 28.667 290.626 30.142 290.626 C 32.249 290.626 34.005 289.010 34.005 287.044 C 34.005 285.077 32.249 283.462 30.142 283.462 C 28.246 283.462 26.701 284.726 26.350 286.412 C 22.885 286.411 19.420 286.411 15.955 286.412 C 14.902 286.412 13.989 285.780 13.708 284.937 C 13.919 284.937 14.059 285.007 14.270 285.007 C 14.597 285.007 14.925 285.007 15.253 285.007 C 15.885 285.007 16.377 284.515 16.377 283.883 C 16.377 281.191 16.377 278.499 16.377 275.807 C 16.377 275.175 15.885 274.683 15.253 274.683 C 15.136 274.683 15.019 274.683 14.902 274.683 C 14.902 274.378 14.902 274.074 14.902 273.770 C 14.902 267.168 21.293 261.830 29.229 261.830 C 30.002 261.830 30.774 261.830 31.547 261.830 C 39.413 261.830 45.874 267.168 45.874 273.770 C 45.874 274.074 45.874 274.378 45.874 274.683 C 45.804 274.683 45.733 274.683 45.664 274.683 C 45.031 274.683 44.540 275.175 44.540 275.807 C 44.539 278.475 44.539 281.144 44.540 283.813 C 44.540 284.445 45.031 284.937 45.664 284.937 C 45.991 284.937 46.319 284.937 46.647 284.937 C 49.667 284.937 52.195 282.619 52.195 279.810 C 52.195 277.492 50.439 275.526 48.051 274.894 Z"/>
<path fill="#5600e3" fill-rule="evenodd" stroke="none" d="M 30.213 292.733 C 28.387 292.733 26.702 291.960 25.648 290.696 C 24.852 290.695 24.056 290.695 23.260 290.696 C 25.297 292.592 27.755 293.856 30.424 293.856 C 37.868 293.856 43.487 284.164 43.487 277.843 C 43.417 271.382 37.588 266.044 30.354 266.044 C 23.190 266.044 17.290 271.382 17.290 277.913 C 17.290 279.810 17.782 281.987 18.695 284.164 C 20.755 284.164 22.815 284.164 24.876 284.164 C 25.929 282.408 27.895 281.214 30.143 281.214 C 33.444 281.214 36.183 283.813 36.183 286.974 C 36.253 290.134 33.514 292.733 30.213 292.733 Z"/>
<path fill="#5600e3" fill-rule="evenodd" stroke="none" d="M 53.422 213.989 C 53.421 223.334 53.421 232.679 53.422 242.025 C 53.422 243.715 52.017 245.172 50.260 245.172 C 36.753 245.172 23.247 245.172 9.740 245.172 C 8.042 245.172 6.578 243.773 6.578 242.025 C 6.578 232.679 6.578 223.334 6.578 213.989 C 6.578 212.299 7.984 210.842 9.740 210.842 C 23.247 210.842 36.753 210.842 50.260 210.842 C 51.958 210.842 53.422 212.241 53.422 213.989 M 6.578 204.664 C 6.578 202.915 8.042 201.516 9.740 201.516 C 11.438 201.516 12.902 202.915 12.902 204.664 C 12.902 206.412 11.497 207.811 9.740 207.811 C 7.984 207.811 6.578 206.412 6.578 204.664 M 16.005 204.664 C 16.005 202.915 17.411 201.516 19.167 201.516 C 20.865 201.516 22.329 202.915 22.329 204.664 C 22.329 206.412 20.924 207.811 19.167 207.811 C 17.411 207.811 16.005 206.412 16.005 204.664 M 56.525 204.605 C 56.525 201.167 53.715 198.369 50.260 198.369 C 36.753 198.369 23.247 198.369 9.740 198.369 C 6.285 198.369 3.475 201.167 3.475 204.605 C 3.475 217.078 3.475 229.551 3.475 242.025 C 3.475 245.464 6.285 248.261 9.740 248.261 C 23.247 248.261 36.753 248.261 50.260 248.261 C 53.715 248.261 56.525 245.464 56.525 242.025 C 56.525 229.551 56.525 217.078 56.525 204.605 Z"/>
<path fill="#2dffb3" fill-rule="evenodd" stroke="none" d="M 44.112 224.131 C 43.000 224.131 41.946 224.772 41.477 225.705 C 41.321 225.704 41.165 225.704 41.009 225.705 C 41.008 223.625 41.008 221.547 41.009 219.468 C 41.009 217.778 39.604 216.321 37.847 216.321 C 35.758 216.320 33.670 216.320 31.582 216.321 C 31.581 216.476 31.581 216.631 31.582 216.787 C 34.392 218.186 33.280 222.557 30.001 222.557 C 26.839 222.557 25.609 218.361 28.420 216.787 C 28.419 216.631 28.419 216.476 28.420 216.321 C 26.331 216.320 24.243 216.320 22.154 216.321 C 20.456 216.321 18.992 217.719 18.992 219.468 C 18.992 221.547 18.992 223.625 18.992 225.705 C 18.836 225.704 18.680 225.704 18.524 225.705 C 18.056 224.772 16.943 224.131 15.889 224.131 C 14.191 224.131 12.727 225.530 12.727 227.278 C 12.727 228.969 14.132 230.426 15.889 230.426 C 17.002 230.426 18.056 229.785 18.524 228.852 C 18.680 228.852 18.836 228.852 18.992 228.852 C 18.992 230.931 18.992 233.009 18.992 235.089 C 18.992 236.779 20.398 238.236 22.154 238.236 C 24.243 238.236 26.331 238.236 28.420 238.236 C 28.419 238.080 28.419 237.925 28.420 237.770 C 28.127 237.595 27.951 237.478 27.775 237.304 C 25.902 235.438 27.131 231.999 29.942 231.999 C 33.104 231.999 34.334 236.196 31.523 237.770 C 31.523 237.925 31.523 238.080 31.523 238.236 C 33.611 238.236 35.700 238.236 37.788 238.236 C 39.486 238.236 40.950 236.837 40.950 235.089 C 40.950 232.990 40.950 230.892 40.950 228.794 C 41.106 228.793 41.262 228.793 41.419 228.794 C 41.887 229.726 43.000 230.367 44.054 230.367 C 45.752 230.367 47.216 228.969 47.216 227.220 C 47.274 225.530 45.869 224.131 44.112 224.131 Z"/>
<path fill="#5600e3" fill-rule="evenodd" stroke="none" d="M 25.345 160.094 C 25.345 161.190 24.980 162.165 24.188 162.896 C 23.396 163.687 22.483 164.053 21.386 164.053 C 20.290 164.053 19.377 163.687 18.585 162.896 C 17.793 162.104 17.428 161.190 17.428 160.094 C 17.428 158.998 17.793 158.085 18.585 157.293 C 19.377 156.501 20.290 156.136 21.386 156.136 C 22.483 156.136 23.396 156.501 24.188 157.293 C 24.980 158.085 25.345 158.998 25.345 160.094 M 31.252 158.633 C 31.252 158.572 31.191 158.450 31.131 158.328 C 31.070 158.267 30.948 158.145 30.887 158.145 C 30.115 158.023 29.344 157.902 28.573 157.780 C 28.451 157.415 28.329 156.988 28.086 156.501 C 28.268 156.257 28.451 155.953 28.816 155.588 C 29.121 155.222 29.304 154.918 29.486 154.796 C 29.547 154.674 29.608 154.613 29.608 154.491 C 29.608 154.248 28.877 153.395 27.355 152.055 C 27.233 151.994 27.172 151.933 27.050 151.933 C 26.928 151.933 26.807 151.994 26.746 152.055 C 26.136 152.502 25.527 152.948 24.919 153.395 C 24.492 153.152 24.127 153.030 23.762 152.908 C 23.640 152.136 23.518 151.365 23.396 150.594 C 23.396 150.472 23.335 150.411 23.213 150.350 C 23.153 150.289 23.031 150.228 22.909 150.228 C 21.955 150.228 21.000 150.228 20.047 150.228 C 19.803 150.228 19.681 150.350 19.559 150.594 C 19.438 151.081 19.316 151.873 19.194 152.969 C 18.768 153.152 18.341 153.273 18.037 153.456 C 17.428 152.989 16.819 152.522 16.210 152.055 C 16.088 151.994 16.027 151.933 15.905 151.933 C 15.722 151.933 15.296 152.238 14.687 152.847 C 14.078 153.456 13.652 153.882 13.408 154.187 C 13.347 154.248 13.286 154.370 13.286 154.491 C 13.286 154.552 13.347 154.674 13.408 154.796 C 14.017 155.527 14.444 156.075 14.809 156.623 C 14.565 157.049 14.444 157.415 14.322 157.780 C 13.530 157.902 12.738 158.023 11.947 158.145 C 11.886 158.145 11.764 158.206 11.703 158.328 C 11.642 158.450 11.581 158.511 11.581 158.633 C 11.581 159.586 11.581 160.541 11.581 161.495 C 11.581 161.617 11.642 161.678 11.703 161.799 C 11.764 161.860 11.886 161.982 11.947 161.982 C 12.718 162.104 13.489 162.225 14.261 162.348 C 14.383 162.713 14.565 163.139 14.809 163.627 C 14.626 163.870 14.444 164.175 14.078 164.540 C 13.774 164.905 13.530 165.210 13.469 165.332 C 13.408 165.454 13.347 165.514 13.347 165.636 C 13.347 165.880 14.078 166.732 15.601 168.072 C 15.722 168.133 15.783 168.194 15.905 168.194 C 16.027 168.194 16.149 168.133 16.210 168.072 C 16.819 167.625 17.428 167.179 18.037 166.733 C 18.463 166.976 18.829 167.098 19.194 167.220 C 19.316 168.011 19.437 168.803 19.559 169.595 C 19.559 169.717 19.620 169.778 19.742 169.839 C 19.803 169.899 19.925 169.960 20.047 169.960 C 21.000 169.960 21.955 169.960 22.909 169.960 C 23.153 169.960 23.274 169.838 23.396 169.595 C 23.518 169.108 23.640 168.316 23.762 167.220 C 24.188 167.098 24.553 166.976 24.919 166.733 C 25.527 167.199 26.136 167.666 26.746 168.133 C 26.868 168.194 26.928 168.255 27.050 168.255 C 27.233 168.255 27.659 167.951 28.268 167.342 C 28.877 166.733 29.304 166.245 29.547 166.002 C 29.486 165.880 29.547 165.819 29.547 165.636 C 29.547 165.514 29.486 165.454 29.425 165.332 C 28.816 164.601 28.390 164.053 28.025 163.505 C 28.268 163.078 28.390 162.713 28.512 162.348 C 29.303 162.225 30.095 162.104 30.887 161.982 C 30.948 161.982 31.070 161.921 31.131 161.799 C 31.191 161.678 31.252 161.617 31.252 161.495 C 31.252 160.541 31.252 159.586 31.252 158.633 Z"/>
<path fill="#2dffb3" fill-rule="evenodd" stroke="none" d="M 42.546 156.055 C 46.623 151.978 50.699 147.901 54.776 143.825 C 52.982 142.030 51.187 140.236 49.393 138.442 C 45.316 142.519 41.240 146.595 37.163 150.672 C 38.957 152.466 40.752 154.260 42.546 156.055 Z"/>
<path fill="#2dffb3" fill-rule="evenodd" stroke="none" d="M 33.201 158.692 C 33.018 159.484 33.749 160.276 34.541 160.032 C 36.164 159.666 37.788 159.301 39.413 158.936 C 39.596 158.875 39.839 158.753 39.961 158.631 C 40.387 158.205 40.813 157.778 41.240 157.352 C 39.453 155.566 37.667 153.779 35.881 151.993 C 35.454 152.419 35.028 152.845 34.602 153.272 C 34.480 153.455 34.358 153.637 34.297 153.820 C 33.931 155.444 33.566 157.068 33.201 158.692 Z"/>
<path fill="#5600e3" fill-rule="evenodd" stroke="none" d="M 6.039 141.640 C 6.039 140.727 6.770 140.057 7.622 140.057 C 8.475 140.057 9.206 140.788 9.206 141.640 C 9.206 142.493 8.475 143.224 7.622 143.224 C 6.770 143.224 6.039 142.493 6.039 141.640 M 12.129 141.640 C 12.129 140.727 12.860 140.057 13.712 140.057 C 14.565 140.057 15.296 140.788 15.296 141.640 C 15.296 142.493 14.565 143.224 13.712 143.224 C 12.860 143.224 12.129 142.493 12.129 141.640 M 18.219 141.640 C 18.219 140.727 18.950 140.057 19.802 140.057 C 20.655 140.057 21.386 140.788 21.386 141.640 C 21.386 142.493 20.655 143.224 19.802 143.224 C 18.950 143.224 18.219 142.493 18.219 141.640 M 48.670 152.907 C 48.669 160.377 48.669 167.848 48.670 175.319 C 34.459 175.318 20.249 175.318 6.039 175.319 C 6.039 165.716 6.039 156.114 6.039 146.513 C 16.838 146.512 27.638 146.512 38.438 146.513 C 41.564 143.366 44.690 140.219 47.817 137.073 C 47.999 136.890 48.182 136.707 48.365 136.525 C 33.891 136.524 19.417 136.525 4.943 136.525 C 3.237 136.525 1.897 137.925 1.897 139.570 C 1.897 151.770 1.897 163.971 1.897 176.172 C 1.897 177.877 3.298 179.217 4.943 179.217 C 19.884 179.216 34.824 179.216 49.766 179.217 C 51.471 179.217 52.811 177.816 52.811 176.172 C 52.811 167.036 52.811 157.901 52.811 148.766 C 51.430 150.146 50.050 151.527 48.670 152.907 Z"/>
<path fill="#2dffb3" fill-rule="evenodd" stroke="none" d="M 58.475 138.535 C 57.216 137.276 55.957 136.017 54.699 134.759 C 54.273 134.332 53.542 134.332 53.055 134.759 C 52.283 135.530 51.511 136.301 50.740 137.073 C 52.526 138.859 54.313 140.646 56.100 142.432 C 56.871 141.661 57.642 140.889 58.414 140.118 C 58.901 139.692 58.901 138.961 58.475 138.535 Z"/>
<path fill="#5600e3" fill-rule="evenodd" stroke="none" d="M 34.807 114.566 C 34.807 115.230 34.360 115.673 33.689 115.673 C 31.211 115.672 28.733 115.672 26.255 115.673 C 25.584 115.673 25.137 115.230 25.137 114.566 C 25.137 113.903 25.584 113.460 26.255 113.460 C 28.733 113.460 31.211 113.460 33.689 113.460 C 34.360 113.460 34.807 113.903 34.807 114.566 M 56.942 110.473 C 38.980 110.472 21.019 110.472 3.058 110.473 C 3.058 112.095 3.058 113.718 3.058 115.341 C 3.058 117.222 4.512 118.660 6.412 118.660 C 22.137 118.660 37.862 118.660 53.588 118.660 C 55.488 118.660 56.942 117.222 56.942 115.341 C 56.941 113.718 56.941 112.095 56.942 110.473 Z"/>
<path fill="#5600e3" fill-rule="evenodd" stroke="none" d="M 49.787 102.672 C 49.824 102.672 49.861 102.672 49.899 102.672 C 36.651 102.672 23.404 102.672 10.157 102.672 C 10.157 94.595 10.157 86.518 10.157 78.442 C 23.367 78.442 36.576 78.442 49.787 78.442 C 49.786 86.518 49.786 94.595 49.787 102.672 M 54.258 77.335 C 54.295 77.335 54.332 77.335 54.370 77.335 C 54.370 75.455 52.917 74.016 51.016 74.016 C 37.005 74.016 22.994 74.016 8.983 74.016 C 7.083 74.016 5.629 75.455 5.629 77.335 C 5.629 87.293 5.629 97.250 5.629 107.208 C 21.839 107.208 38.048 107.208 54.258 107.208 C 54.258 97.250 54.258 87.293 54.258 77.335 Z"/>
<path fill="#2dffb3" fill-rule="evenodd" stroke="none" d="M 32.571 96.365 C 32.795 96.919 33.577 97.029 33.801 96.476 C 34.248 95.628 34.695 94.779 35.142 93.931 C 36.819 95.591 38.496 97.250 40.173 98.910 C 41.141 97.951 42.110 96.992 43.079 96.033 C 41.402 94.374 39.725 92.714 38.049 91.055 C 38.906 90.612 39.763 90.169 40.620 89.727 C 41.179 89.506 41.067 88.731 40.508 88.510 C 36.800 87.219 33.093 85.928 29.385 84.638 C 28.826 84.416 28.267 84.969 28.491 85.523 C 29.851 89.137 31.211 92.751 32.571 96.365 Z"/>
<path fill="#5600e3" fill-rule="evenodd" stroke="none" d="M 33.785 28.126 C 33.566 27.961 33.292 27.906 33.019 27.906 C 32.909 27.906 32.800 27.906 32.690 27.961 C 32.307 28.016 31.979 28.291 31.760 28.621 C 31.541 28.951 31.486 29.336 31.541 29.721 C 31.596 30.106 31.869 30.436 32.198 30.656 C 32.526 30.877 32.909 30.932 33.292 30.877 C 33.675 30.821 34.004 30.546 34.223 30.216 C 34.441 29.886 34.496 29.501 34.441 29.116 C 34.387 28.731 34.058 28.346 33.785 28.126 Z"/>
<path fill="#5600e3" fill-rule="evenodd" stroke="none" d="M 35.427 27.192 C 35.810 27.577 36.083 28.072 36.193 28.622 C 36.412 29.502 36.248 30.382 35.755 31.097 C 35.317 31.867 34.551 32.417 33.675 32.582 C 33.456 32.637 33.183 32.637 32.964 32.637 C 32.635 32.637 32.362 32.582 32.033 32.527 C 31.577 33.242 31.121 33.957 30.665 34.672 C 30.154 34.342 29.643 34.012 29.133 33.682 C 29.588 32.967 30.045 32.252 30.501 31.537 C 30.118 31.152 29.899 30.657 29.735 30.107 C 29.516 29.227 29.680 28.347 30.172 27.632 C 30.665 26.862 31.377 26.366 32.252 26.146 C 32.800 26.036 33.402 26.036 33.949 26.201 C 35.262 24.753 36.576 23.304 37.889 21.856 C 37.068 23.634 36.247 25.413 35.427 27.192 M 43.527 29.337 C 43.527 23.506 38.820 18.776 32.964 18.776 C 27.162 18.776 22.456 23.506 22.456 29.337 C 22.456 35.167 27.162 39.898 32.964 39.898 C 38.765 39.898 43.527 35.167 43.527 29.337 Z"/>
<path fill="#2dffb3" fill-rule="evenodd" stroke="none" d="M 23.878 19.875 C 18.971 19.875 14.063 19.875 9.156 19.875 C 9.156 20.883 9.156 21.892 9.156 22.900 C 14.063 22.900 18.971 22.900 23.878 22.900 C 23.878 21.892 23.878 20.883 23.878 19.875 Z"/>
<path fill="#2dffb3" fill-rule="evenodd" stroke="none" d="M 23.878 35.827 C 18.971 35.827 14.063 35.827 9.156 35.827 C 9.156 36.835 9.156 37.844 9.156 38.852 C 14.063 38.852 18.971 38.852 23.878 38.852 C 23.878 37.844 23.878 36.835 23.878 35.827 Z"/>
<path fill="#5600e3" fill-rule="evenodd" stroke="none" d="M 16.599 24.221 C 15.906 24.221 15.212 24.221 14.519 24.221 C 14.519 24.991 14.519 25.761 14.519 26.532 C 15.212 26.531 15.906 26.531 16.599 26.532 C 16.599 25.761 16.599 24.991 16.599 24.221 Z"/>
<path fill="#5600e3" fill-rule="evenodd" stroke="none" d="M 35.700 49.468 C 35.700 50.018 35.207 50.513 34.660 50.513 C 33.547 50.513 32.434 50.513 31.322 50.513 C 30.774 50.513 30.282 50.073 30.282 49.468 C 30.282 48.918 30.719 48.423 31.322 48.423 C 32.434 48.423 33.547 48.423 34.660 48.423 C 35.207 48.423 35.700 48.863 35.700 49.468 M 38.218 9.204 C 38.163 9.754 37.725 10.249 37.178 10.249 C 34.386 10.249 31.595 10.249 28.804 10.249 C 28.257 10.249 27.764 9.809 27.764 9.204 C 27.764 8.654 28.202 8.159 28.804 8.159 C 31.595 8.159 34.386 8.159 37.178 8.159 C 37.780 8.159 38.218 8.599 38.218 9.204 M 25.684 9.204 C 25.630 9.479 25.520 9.754 25.356 9.919 C 25.137 10.084 24.918 10.194 24.644 10.194 C 24.371 10.194 24.097 10.084 23.933 9.919 C 23.714 9.699 23.604 9.479 23.604 9.204 C 23.604 8.929 23.714 8.654 23.933 8.489 C 24.316 8.104 24.973 8.104 25.411 8.489 C 25.630 8.709 25.684 8.929 25.684 9.204 M 51.408 8.654 C 51.408 6.399 49.547 4.529 47.303 4.529 C 37.761 4.529 28.220 4.529 18.679 4.529 C 16.380 4.529 14.519 6.399 14.519 8.654 C 14.519 11.955 14.519 15.255 14.519 18.555 C 15.212 18.555 15.906 18.555 16.599 18.555 C 16.599 16.997 16.599 15.438 16.599 13.880 C 27.527 13.880 38.454 13.880 49.383 13.880 C 49.382 24.166 49.382 34.452 49.383 44.738 C 38.454 44.737 27.527 44.737 16.599 44.738 C 16.599 43.179 16.599 41.621 16.599 40.062 C 15.906 40.062 15.212 40.062 14.519 40.062 C 14.519 43.362 14.519 46.663 14.519 49.963 C 14.519 52.274 16.380 54.089 18.624 54.089 C 28.183 54.088 37.743 54.088 47.303 54.089 C 49.547 54.089 51.408 52.219 51.408 49.963 C 51.407 48.569 51.407 47.176 51.408 45.783 C 51.407 34.818 51.407 23.854 51.408 12.890 C 51.407 11.478 51.407 10.066 51.408 8.654 Z"/>
<path fill="#5600e3" fill-rule="evenodd" stroke="none" d="M 16.599 32.142 C 15.906 32.142 15.212 32.142 14.519 32.142 C 14.519 32.912 14.519 33.682 14.519 34.452 C 15.212 34.452 15.906 34.452 16.599 34.452 C 16.599 33.682 16.599 32.912 16.599 32.142 Z"/>
<path fill="#2dffb3" fill-rule="evenodd" stroke="none" d="M 20.485 27.852 C 15.578 27.852 10.670 27.852 5.763 27.852 C 5.763 28.860 5.763 29.868 5.763 30.877 C 10.670 30.877 15.578 30.877 20.485 30.877 C 20.485 29.868 20.485 28.860 20.485 27.852 Z"/>
<path fill="#5600e3" fill-rule="evenodd" stroke="none" d="M 50.443 -46.500 C 50.443 -45.630 49.749 -44.933 48.882 -44.933 C 42.578 -44.934 36.274 -44.933 29.971 -44.933 C 29.104 -44.933 28.410 -45.630 28.410 -46.500 C 28.410 -47.370 29.104 -48.066 29.971 -48.066 C 36.274 -48.066 42.578 -48.066 48.882 -48.066 C 49.749 -48.066 50.443 -47.370 50.443 -46.500 M 25.287 -46.500 C 25.287 -45.630 24.593 -44.933 23.725 -44.933 C 22.858 -44.933 22.164 -45.630 22.164 -46.500 C 22.164 -47.370 22.858 -48.066 23.725 -48.066 C 24.593 -48.066 25.287 -47.370 25.287 -46.500 M 18.925 -46.558 C 18.925 -45.688 18.231 -44.991 17.364 -44.991 C 16.496 -44.991 15.802 -45.688 15.802 -46.558 C 15.802 -47.428 16.496 -48.124 17.364 -48.124 C 18.231 -48.124 18.925 -47.428 18.925 -46.558 M 12.622 -46.558 C 12.622 -45.688 11.928 -44.933 11.060 -44.933 C 10.193 -44.933 9.499 -45.630 9.499 -46.500 C 9.499 -47.370 10.193 -48.124 11.060 -48.124 C 11.928 -48.124 12.622 -47.428 12.622 -46.558 M 55.301 -51.315 C 55.243 -53.113 53.855 -54.506 52.120 -54.506 C 37.373 -54.506 22.626 -54.506 7.879 -54.506 C 6.145 -54.506 4.699 -53.055 4.699 -51.315 C 4.699 -38.649 4.699 -25.982 4.699 -13.315 C 4.699 -11.575 6.145 -10.124 7.879 -10.124 C 8.226 -10.125 8.573 -10.125 8.920 -10.124 C 8.978 -10.182 9.094 -10.182 9.210 -10.240 C 10.000 -11.034 10.790 -11.827 11.581 -12.619 C 11.812 -12.851 11.639 -13.315 11.292 -13.315 C 10.270 -13.316 9.248 -13.316 8.227 -13.315 C 7.995 -13.315 7.822 -13.489 7.822 -13.721 C 7.822 -21.882 7.822 -30.043 7.822 -38.204 C 7.822 -38.436 7.995 -38.610 8.227 -38.610 C 22.703 -38.610 37.180 -38.610 51.658 -38.610 C 51.889 -38.610 52.063 -38.436 52.063 -38.204 C 52.062 -30.024 52.062 -21.844 52.063 -13.663 C 52.063 -13.431 51.889 -13.257 51.658 -13.257 C 42.578 -13.257 35.465 -13.257 25.692 -13.257 C 25.634 -13.257 25.460 -13.199 25.402 -13.141 C 24.612 -12.349 23.821 -11.556 23.031 -10.763 C 22.800 -10.530 22.973 -10.066 23.320 -10.066 C 32.920 -10.067 42.520 -10.067 52.120 -10.066 C 53.855 -10.066 55.301 -11.459 55.301 -13.257 C 55.301 -25.943 55.301 -38.629 55.301 -51.315 Z"/>
<path fill="#2dffb3" fill-rule="evenodd" stroke="none" d="M 29.103 -16.854 C 29.739 -16.216 30.723 -16.216 31.359 -16.854 C 33.691 -19.194 36.023 -21.534 38.356 -23.874 C 39.898 -22.327 41.440 -20.780 42.983 -19.233 C 43.503 -18.711 44.313 -19.059 44.313 -19.813 C 44.312 -23.681 44.312 -27.548 44.313 -31.416 C 44.313 -31.880 43.966 -32.228 43.503 -32.228 C 39.667 -32.228 35.831 -32.228 31.995 -32.228 C 31.301 -32.228 30.954 -31.358 31.417 -30.894 C 32.978 -29.328 34.539 -27.761 36.101 -26.194 C 34.134 -24.203 32.168 -22.211 30.202 -20.219 C 29.469 -20.954 28.737 -21.689 28.004 -22.424 C 27.368 -23.062 26.385 -23.062 25.749 -22.424 C 20.968 -17.628 16.188 -12.832 11.407 -8.036 C 10.771 -7.398 10.771 -6.411 11.407 -5.773 C 12.043 -5.135 13.026 -5.135 13.662 -5.773 C 18.077 -10.202 22.491 -14.631 26.906 -19.059 C 27.638 -18.324 28.371 -17.589 29.103 -16.854 Z"/>
</g>
</svg>
