<svg id="eHRae2Fs7uJ1" xmlns="http://www.w3.org/2000/svg" xmlns:xlink="http://www.w3.org/1999/xlink" viewBox="0 0 40 40" shape-rendering="geometricPrecision" text-rendering="geometricPrecision"><style><![CDATA[#eHRae2Fs7uJ1{pointer-events: all}#eHRae2Fs7uJ1.hover #eHRae2Fs7uJ2_to {animation: eHRae2Fs7uJ2_to__to 2000ms linear 1 normal forwards}@keyframes eHRae2Fs7uJ2_to__to { 0% {transform: translate(27.701431px,27.686820px)} 10% {transform: translate(27.650000px,27.650000px);animation-timing-function: step-end} 15% {transform: translate(2.561497px,36.595871px)} 30% {transform: translate(27.199484px,26.077062px)} 40% {transform: translate(27.607646px,27.570919px)} 70% {transform: translate(27.698133px,27.699088px)} 75% {transform: translate(27.599693px,27.578863px)} 80% {transform: translate(27.599693px,27.578863px)} 95% {transform: translate(27.698627px,27.699318px)} 100% {transform: translate(27.698627px,27.699318px)}} #eHRae2Fs7uJ1.hover #eHRae2Fs7uJ2_ts {animation: eHRae2Fs7uJ2_ts__ts 2000ms linear 1 normal forwards}@keyframes eHRae2Fs7uJ2_ts__ts { 0% {transform: scale(1,1)} 10% {transform: scale(1,1);animation-timing-function: step-end} 15% {transform: scale(0.080638,0.080638)} 30% {transform: scale(1.110302,1.110302)} 40% {transform: scale(0.988317,0.988317)} 70% {transform: scale(0.999821,1.000664)} 75% {transform: scale(0.928884,0.928884)} 80% {transform: scale(1.027749,1.027749)} 95% {transform: scale(0.999840,1.000673)} 100% {transform: scale(0.999840,1.000673)}} #eHRae2Fs7uJ1.hover #eHRae2Fs7uJ3_to {animation: eHRae2Fs7uJ3_to__to 2000ms linear 1 normal forwards}@keyframes eHRae2Fs7uJ3_to__to { 0% {transform: translate(11.079978px,13.045000px)} 10% {transform: translate(11.079978px,13.045000px);animation-timing-function: step-end} 15% {transform: translate(18.439977px,20.595000px)} 40% {transform: translate(18.439977px,20.595000px)} 50% {transform: translate(11.060304px,12.661161px)} 60% {transform: translate(11.101096px,13.083747px)} 100% {transform: translate(11.101096px,13.083747px)}} #eHRae2Fs7uJ1.hover #eHRae2Fs7uJ3_ts {animation: eHRae2Fs7uJ3_ts__ts 2000ms linear 1 normal forwards}@keyframes eHRae2Fs7uJ3_ts__ts { 0% {transform: scale(1,1)} 10% {transform: scale(1,1);animation-timing-function: step-end} 15% {transform: scale(0.010969,0.010969)} 40% {transform: scale(0.062989,0.062989)} 50% {transform: scale(1.079063,1.079063)} 60% {transform: scale(1.002278,1.002278)} 100% {transform: scale(1.002278,1.002278)}}]]></style><g id="eHRae2Fs7uJ2_to" transform="translate(27.701431,27.686820)"><g id="eHRae2Fs7uJ2_ts" transform="scale(1,1)"><g id="eHRae2Fs7uJ2" transform="translate(-26.148653,-25.581142)"><g id="eHRae2Fs7uJ3_to" transform="translate(11.079978,13.045000)"><g id="eHRae2Fs7uJ3_ts" transform="scale(1,1)"><g id="eHRae2Fs7uJ3" transform="translate(-11.079978,-13.045000)"><path id="eHRae2Fs7uJ4" d="M22.160000,1.080000C22.160000,0.793566,22.046215,0.518864,21.843675,0.316325C21.641136,0.113785,21.366434,-0,21.080000,0L17.840000,0L17.840000,4.320000L22.160000,4.320000Z" fill="rgb(86,0,227)" fill-rule="evenodd" stroke="none" stroke-width="1"/><path id="eHRae2Fs7uJ5" d="M15.680000,0L1.080000,0C0.793566,0,0.518864,0.113785,0.316325,0.316325C0.113785,0.518864,0,0.793566,0,1.080000L0,4.320000L15.680000,4.320000Z" fill="rgb(86,0,227)" fill-rule="evenodd" stroke="none" stroke-width="1"/><path id="eHRae2Fs7uJ6" d="M12,12C11.957485,12.533684,11.533684,12.957485,11,13L4.320000,13C3.723532,13,3.240000,12.516468,3.240000,11.920000C3.240000,11.323532,3.723532,10.840000,4.320000,10.840000L11,10.840000C11.286732,10.860449,11.553482,10.994364,11.741177,11.212089C11.928871,11.429815,12.022022,11.713384,12,12M12,16.320000C11.981067,16.871130,11.549964,17.319477,11,17.360000L4.320000,17.360000C3.723532,17.360000,3.240000,16.876468,3.240000,16.280000C3.240000,15.683532,3.723532,15.200000,4.320000,15.200000L11,15.200000C11.565019,15.241966,12.001556,15.713427,12,16.280000M12,20.600000C12.001556,21.166573,11.565019,21.638034,11,21.680000L4.320000,21.680000C3.723532,21.680000,3.240000,21.196468,3.240000,20.600000C3.240000,20.003532,3.723532,19.520000,4.320000,19.520000L11,19.520000C11.565019,19.561966,12.001556,20.033427,12,20.600000M21,26.080000C21.300024,26.102286,21.595746,25.998418,21.815936,25.793413C22.036127,25.588408,22.160827,25.300849,22.160000,25L22.160000,23.910000L18.510000,23.910000C16.720597,23.910000,15.270000,22.459403,15.270000,20.670000L15.270000,14.190000C15.297316,12.420154,16.739943,10.999789,18.510000,11L22.160000,11L22.160000,6.480000L0,6.480000L0,25C-0.002668,25.288163,0.109938,25.565441,0.312767,25.770148C0.515597,25.974855,0.791825,26.090012,1.080000,26.090000Z" fill="rgb(86,0,227)" fill-rule="evenodd" stroke="none" stroke-width="1"/></g></g></g><g id="eHRae2Fs7uJ7" transform="matrix(1.02322821212232 0 0 1.02322821212232 -0.51702747458191 -0.44159441506724)"><path id="eHRae2Fs7uJ8" d="M17.430000,14.190000L17.430000,20.670000C17.430000,21.266468,17.913532,21.750000,18.510000,21.750000L31.510000,21.750000C32.106468,21.750000,32.590000,21.266468,32.590000,20.670000L32.590000,14.190000C32.590000,13.593532,32.106468,13.110000,31.510000,13.110000L18.510000,13.110000C17.913532,13.110000,17.430000,13.593532,17.430000,14.190000Z" fill="rgb(45,255,179)" fill-rule="evenodd" stroke="none" stroke-width="1"/><path id="eHRae2Fs7uJ9" d="M27.160000,30.400000L22.830000,30.400000C22.233532,30.400000,21.750000,30.883532,21.750000,31.480000L21.750000,35.800000C21.750000,36.396468,22.233532,36.880000,22.830000,36.880000L27.160000,36.880000C27.756468,36.880000,28.240000,36.396468,28.240000,35.800000L28.240000,31.480000C28.240000,30.883532,27.756468,30.400000,27.160000,30.400000Z" fill="rgb(86,0,227)" fill-rule="evenodd" stroke="none" stroke-width="1"/><path id="eHRae2Fs7uJ10" d="M34.720000,16.540000L34.720000,22.830000C34.720000,23.426468,34.236468,23.910000,33.640000,23.910000L27.160000,23.910000C25.367354,23.915491,23.915491,25.367354,23.910000,27.160000L23.910000,28.240000L26.080000,28.240000L26.080000,27.160000C26.080000,26.873566,26.193785,26.598864,26.396325,26.396325C26.598864,26.193785,26.873566,26.080000,27.160000,26.080000L33.640000,26.080000C35.431019,26.074489,36.880008,24.621027,36.880000,22.830000L36.880000,19.590000C36.881010,18.217713,36.014803,16.994596,34.720000,16.540000Z" fill="rgb(45,255,179)" fill-rule="evenodd" stroke="none" stroke-width="1"/></g></g></g></g></svg>
