<svg id="e0uaAY1rZC51" xmlns="http://www.w3.org/2000/svg" xmlns:xlink="http://www.w3.org/1999/xlink" viewBox="0 0 57 57" shape-rendering="geometricPrecision" text-rendering="geometricPrecision"><style><![CDATA[#e0uaAY1rZC52_to {animation: e0uaAY1rZC52_to__to 4000ms linear infinite normal forwards}@keyframes e0uaAY1rZC52_to__to { 0% {transform: translate(28.573024px,22.489006px)} 30% {transform: translate(29.720032px,22.926820px)} 50% {transform: translate(28.463799px,22.372211px)} 65% {transform: translate(27.279967px,22.926821px)} 100% {transform: translate(28.573024px,22.489006px)}} #e0uaAY1rZC52_tr {animation: e0uaAY1rZC52_tr__tr 4000ms linear infinite normal forwards}@keyframes e0uaAY1rZC52_tr__tr { 0% {transform: rotate(0.072049deg)} 30% {transform: rotate(15deg)} 65% {transform: rotate(-15deg)} 100% {transform: rotate(0.072049deg)}} #e0uaAY1rZC53_tr {animation: e0uaAY1rZC53_tr__tr 4000ms linear infinite normal forwards}@keyframes e0uaAY1rZC53_tr__tr { 0% {transform: translate(28.463800px,28.463800px) rotate(0deg)} 30% {transform: translate(28.463800px,28.463800px) rotate(15deg)} 65% {transform: translate(28.463800px,28.463800px) rotate(-15deg)} 100% {transform: translate(28.463800px,28.463800px) rotate(0deg)}}]]></style><g id="e0uaAY1rZC52_to" transform="translate(28.573024,22.489006)"><g id="e0uaAY1rZC52_tr" transform="rotate(0.072049)"><path id="e0uaAY1rZC52" d="M48.164500,26.074100L52.075600,26.074100C51.568600,21.366400,49.685500,17.093200,46.860800,13.616700L44.108600,16.368900C43.601600,16.875900,43.022200,17.093200,42.370300,17.093200C41.790900,17.093200,41.139100,16.875900,40.632100,16.368900C39.690600,15.427400,39.690600,13.906400,40.632100,12.964800L43.456800,10.285100C39.980300,7.387970,35.634600,5.504870,30.926900,5.070310L30.926900,8.981370C30.926900,10.285100,29.840500,11.371500,28.536800,11.371500C27.233100,11.371500,26.146700,10.285100,26.146700,8.981370L26.146700,5.070310C21.439000,5.577300,17.165800,7.387970,13.689300,10.212600L16.441500,12.964800C17.383100,13.906400,17.383100,15.427400,16.441500,16.368900C15.934500,16.875900,15.355100,17.093200,14.703300,17.093200C14.051400,17.093200,13.472000,16.875900,12.965000,16.368900L10.212800,13.616700C7.315710,17.093200,5.505040,21.438800,4.998050,26.074100L8.909100,26.074100C10.212800,26.074100,11.299200,27.160500,11.299200,28.464200C11.299200,29.767900,10.285200,30.854300,8.909100,30.854300L4.998050,30.854300C5.287750,34.113500,6.301730,37.155400,7.822700,39.835200C12.313200,36.648500,17.527900,34.403200,23.322100,33.606500L27.233100,17.527700C27.595300,16.151600,29.550800,16.151600,29.840500,17.527700L33.751500,33.606500C39.545700,34.475700,44.760400,36.648500,49.178500,39.907700C50.771900,37.227900,51.713400,34.113500,52.148000,30.781900L48.236900,30.781900C46.933200,30.781900,45.846800,29.695500,45.846800,28.391800C45.774400,27.088100,46.860800,26.074100,48.164500,26.074100Z" transform="translate(-28.573024,-22.489006)" fill="rgb(45,255,179)" stroke="none" stroke-width="1"/></g></g><g id="e0uaAY1rZC53_tr" transform="translate(28.463800,28.463800) rotate(0)"><path id="e0uaAY1rZC53" d="M28.463800,0C12.747100,0,0,12.747100,0,28.463800C0,44.180400,12.747100,56.927600,28.463800,56.927600C44.180400,56.927600,56.927600,44.180400,56.927600,28.463800C56.927600,12.747100,44.252900,0,28.463800,0ZM28.463800,47.729400C26.508300,47.729400,24.914900,46.136000,24.914900,44.180400C24.914900,42.224900,26.508300,40.631500,28.463800,40.631500C30.419300,40.631500,32.012700,42.224900,32.012700,44.180400C32.012700,46.063500,30.491700,47.729400,28.463800,47.729400ZM48.163900,30.853900L52.075000,30.853900C51.640400,34.185500,50.698900,37.299900,49.105500,39.979700C44.687400,36.720500,39.472700,34.547600,33.678500,33.678500L29.767500,17.599700C29.477800,16.223600,27.522200,16.223600,27.160100,17.599700L23.249000,33.678500C17.454900,34.547600,12.240200,36.720500,7.749680,39.907200C6.228720,37.227400,5.214740,34.113100,4.925030,30.926300L8.836090,30.926300C10.212200,30.926300,11.226200,29.839900,11.226200,28.536200C11.226200,27.232500,10.212200,26.073700,8.908510,26.073700L4.997460,26.073700C5.504450,21.365900,7.315120,17.092800,10.212200,13.616300L12.964400,16.368500C13.471400,16.875500,14.050800,17.092800,14.702700,17.092800C15.354500,17.092800,15.933900,16.875500,16.440900,16.368500C17.382500,15.426900,17.382500,13.906000,16.440900,12.964400L13.688700,10.212200C17.165200,7.387550,21.510800,5.504450,26.146100,5.069890L26.146100,8.980940C26.146100,10.284600,27.232500,11.371000,28.536200,11.371000C29.839900,11.371000,30.926300,10.284600,30.926300,8.980940L30.926300,5.069890C35.634100,5.576870,39.907200,7.387550,43.383700,10.212200L40.559100,12.892000C39.617500,13.833500,39.617500,15.354500,40.559100,16.296100C41.066100,16.803000,41.717900,17.020300,42.297300,17.020300C42.949200,17.020300,43.528600,16.803000,44.035600,16.296100L46.787800,13.543800C49.612400,17.020300,51.495600,21.365900,52.002500,26.001300L48.091500,26.001300C46.787800,26.001300,45.701400,27.087700,45.701400,28.391400C45.773800,29.767500,46.860200,30.853900,48.163900,30.853900Z" transform="translate(-28.463800,-28.463800)" fill="rgb(86,0,227)" stroke="none" stroke-width="1"/></g></svg>