<svg cache-id="03a4a56876d04af78be2208bd5769d3a" id="eHmIp5u9g3f1" xmlns="http://www.w3.org/2000/svg" xmlns:xlink="http://www.w3.org/1999/xlink" viewBox="0 0 50 50" shape-rendering="geometricPrecision" text-rendering="geometricPrecision"><style><![CDATA[#eHmIp5u9g3f1{pointer-events: all}#eHmIp5u9g3f1.hover #eHmIp5u9g3f2_ts {animation: eHmIp5u9g3f2_ts__ts 3000ms linear infinite normal forwards}@keyframes eHmIp5u9g3f2_ts__ts { 0% {transform: translate(25px,46.711391px) scale(1,1)} 10% {transform: translate(25px,46.711391px) scale(1,1)} 16.666667% {transform: translate(25px,46.711391px) scale(1.029001,0.961375)} 23.333333% {transform: translate(25px,46.711391px) scale(0.958333,1.022279)} 30% {transform: translate(25px,46.711391px) scale(1,1)} 100% {transform: translate(25px,46.711391px) scale(1,1)}} #eHmIp5u9g3f1.hover #eHmIp5u9g3f4 {animation: eHmIp5u9g3f4_c_o 3000ms linear infinite normal forwards}@keyframes eHmIp5u9g3f4_c_o { 0% {opacity: 1} 36.666667% {opacity: 1} 50% {opacity: 0} 63.333333% {opacity: 0} 76.666667% {opacity: 1} 100% {opacity: 1}} #eHmIp5u9g3f1.hover #eHmIp5u9g3f5 {animation: eHmIp5u9g3f5_c_o 3000ms linear infinite normal forwards}@keyframes eHmIp5u9g3f5_c_o { 0% {opacity: 1} 23.333333% {opacity: 1} 36.666667% {opacity: 0} 76.666667% {opacity: 0} 90% {opacity: 1} 100% {opacity: 1}}]]></style><g id="eHmIp5u9g3f2_ts" transform="translate(25,46.711391) scale(1,1)"><g id="eHmIp5u9g3f2" transform="translate(-25,-46.711391)"><path id="eHmIp5u9g3f3" d="M42.211000,3.658000C30.720000,3.658000,19.229000,3.658000,7.739000,3.658000C4.010000,3.658000,1.036000,6.656000,1.036000,10.415000C1.036000,16.766000,1.036000,23.117000,1.036000,29.468000C1.036000,33.177000,4.010000,36.225000,7.739000,36.225000C8.999000,36.225000,10.259000,36.225000,11.519000,36.225000C11.519000,38.968000,11.519000,41.712000,11.519000,44.456000C11.519000,46.437000,13.837000,47.454000,15.299000,46.082000C18.759000,42.796000,22.220000,39.510000,25.680000,36.225000C31.207000,36.225000,36.734000,36.225000,42.261000,36.225000C45.940000,36.225000,48.964000,33.228000,48.964000,29.468000C48.963000,23.117000,48.963000,16.766000,48.964000,10.415000C48.914000,6.656000,45.940000,3.658000,42.211000,3.658000Z" fill="rgb(86,0,227)" fill-rule="evenodd" stroke="none" stroke-width="1"/><path id="eHmIp5u9g3f4" d="M29.453000,13.497000C28.940000,13.227000,28.308000,13.422000,28.014000,13.939000C27.747000,14.456000,27.940000,15.093000,28.453000,15.389000C29.308000,15.832000,29.917000,16.592000,30.207000,17.529000C30.475000,18.462000,30.378000,19.421000,29.891000,20.283000C29.598000,20.800000,29.769000,21.437000,30.282000,21.734000C30.549000,21.880000,30.843000,21.906000,31.110000,21.831000C31.356000,21.756000,31.597000,21.584000,31.720000,21.340000C32.475000,19.987000,32.672000,18.440000,32.233000,16.941000C31.817000,15.442000,30.817000,14.213000,29.453000,13.497000Z" fill="rgb(45,255,179)" fill-rule="evenodd" stroke="none" stroke-width="1"/><path id="eHmIp5u9g3f5" d="M35.961000,15.811000C35.207000,13.206000,33.352000,11.044000,30.914000,9.886000C30.378000,9.639000,29.743000,9.860000,29.501000,10.403000C29.256000,10.943000,29.475000,11.584000,30.014000,11.827000C31.917000,12.738000,33.330000,14.409000,33.939000,16.448000C34.523000,18.464000,34.233000,20.674000,33.136000,22.469000C32.821000,22.960000,32.992000,23.624000,33.478000,23.946000C33.746000,24.118000,34.062000,24.141000,34.333000,24.069000C34.579000,23.995000,34.798000,23.848000,34.943000,23.601000C36.352000,21.240000,36.720000,18.415000,35.961000,15.811000Z" fill="rgb(45,255,179)" fill-rule="evenodd" stroke="none" stroke-width="1"/><g id="eHmIp5u9g3f6"><path id="eHmIp5u9g3f7" d="M23.870000,24.414000C22.977000,21.358000,22.084000,18.301000,21.190000,15.245000C20.046000,16.620000,18.559000,17.628000,16.849000,18.119000C16.141000,18.332000,15.434000,18.546000,14.726000,18.760000C13.604000,19.078000,12.972000,20.259000,13.314000,21.390000C13.526000,22.120000,13.738000,22.849000,13.950000,23.579000C14.266000,24.710000,15.436000,25.347000,16.559000,25.003000C17.258000,26.428000,17.956000,27.853000,18.655000,29.278000C18.800000,29.574000,19.120000,29.720000,19.436000,29.623000C20.110000,29.418000,20.784000,29.213000,21.458000,29.008000C21.651000,28.960000,21.800000,28.814000,21.874000,28.641000C21.949000,28.469000,21.949000,28.248000,21.848000,28.075000C21.198000,26.747000,20.547000,25.420000,19.897000,24.092000C21.213000,23.920000,22.577000,24.021000,23.870000,24.414000Z" fill="rgb(255,255,255)" fill-rule="evenodd" stroke="none" stroke-width="1"/><path id="eHmIp5u9g3f8" d="M27.405000,21.020000C28.111000,20.282000,28.405000,19.202000,28.111000,18.168000C27.795000,17.111000,26.967000,16.373000,25.989000,16.152000C25.655000,15.013000,25.322000,13.874000,24.989000,12.735000C24.770000,11.974000,23.796000,11.801000,23.305000,12.439000C23.020000,12.816000,22.735000,13.193000,22.450000,13.570000C23.580000,17.421000,24.710000,21.272000,25.840000,25.123000C26.279000,25.286000,26.717000,25.450000,27.156000,25.614000C27.888000,25.884000,28.621000,25.194000,28.401000,24.433000C28.069000,23.295000,27.737000,22.157000,27.405000,21.020000Z" fill="rgb(255,255,255)" fill-rule="evenodd" stroke="none" stroke-width="1"/></g></g></g></svg>