<?xml version="1.0" encoding="utf-8"?>
<!-- Generator: Moho 13.0.2 build 610 -->
<!DOCTYPE svg PUBLIC "-//W3C//DTD SVG 1.1//EN" "http://www.w3.org/Graphics/SVG/1.1/DTD/svg11.dtd">
<svg version="1.1" id="Frame_0" xmlns="http://www.w3.org/2000/svg" xmlns:xlink="http://www.w3.org/1999/xlink" width="60px" height="60px">
<path fill="#5600e3" fill-rule="evenodd" stroke="none" d="M 33.213 138.622 C 33.213 150.845 33.213 163.067 33.213 175.290 C 33.213 176.869 31.937 178.132 30.341 178.132 C 23.350 178.131 16.359 178.131 9.368 178.132 C 7.818 178.132 6.541 176.959 6.495 175.471 C 6.495 163.188 6.495 150.905 6.495 138.622 C 6.495 137.720 7.179 137.044 8.091 137.044 C 8.669 137.044 9.246 137.044 9.824 137.044 C 10.143 137.044 10.462 137.224 10.599 137.540 C 11.328 139.074 12.879 140.156 14.702 140.156 C 18.137 140.156 21.572 140.156 25.006 140.156 C 26.830 140.156 28.426 139.074 29.110 137.540 C 29.247 137.224 29.566 137.044 29.885 137.044 C 30.462 137.044 31.040 137.044 31.617 137.044 C 32.484 137.044 33.213 137.766 33.213 138.622 M 36.359 138.622 C 36.359 136.007 34.216 133.887 31.617 133.887 C 23.775 133.887 15.933 133.887 8.091 133.887 C 5.447 133.887 3.304 136.007 3.304 138.622 C 3.304 153.431 3.304 168.239 3.304 183.048 C 3.304 185.528 5.356 187.558 7.863 187.558 C 15.842 187.557 23.821 187.557 31.800 187.558 C 34.307 187.558 36.359 185.528 36.359 183.048 C 36.359 168.239 36.359 153.431 36.359 138.622 Z"/>
<path fill="#f9fbfc" fill-rule="evenodd" stroke="none" d="M 19.854 184.446 C 20.720 184.446 21.450 183.724 21.450 182.867 C 21.450 182.010 20.720 181.289 19.854 181.289 C 18.988 181.289 18.258 182.010 18.258 182.867 C 18.258 183.724 18.942 184.446 19.854 184.446 Z"/>
<path fill="#2dffb3" fill-rule="evenodd" stroke="none" d="M 54.597 172.178 C 44.034 172.178 33.472 172.178 22.910 172.178 C 21.177 172.178 19.718 170.780 19.718 169.021 C 19.718 162.451 19.718 155.881 19.718 149.312 C 19.718 147.598 21.131 146.154 22.910 146.154 C 33.472 146.154 44.034 146.154 54.597 146.154 C 56.329 146.154 57.789 147.553 57.789 149.312 C 57.788 155.881 57.788 162.451 57.789 169.021 C 57.789 170.735 56.375 172.178 54.597 172.178 Z"/>
<path fill="#5600e3" fill-rule="evenodd" stroke="none" d="M 28.517 158.197 C 28.228 158.196 27.939 158.196 27.651 158.197 C 26.785 158.197 26.055 157.475 26.055 156.618 C 26.055 155.761 26.785 155.040 27.651 155.040 C 27.939 155.039 28.228 155.039 28.517 155.040 C 29.383 155.040 30.113 155.761 30.113 156.618 C 30.113 157.520 29.383 158.197 28.517 158.197 Z"/>
<path fill="#5600e3" fill-rule="evenodd" stroke="none" d="M 43.153 166.089 C 37.985 166.089 32.818 166.089 27.651 166.089 C 26.785 166.089 26.055 165.368 26.055 164.511 C 26.055 163.654 26.785 162.932 27.651 162.932 C 32.803 162.932 37.955 162.932 43.107 162.932 C 43.973 162.932 44.703 163.654 44.703 164.511 C 44.703 165.368 44.019 166.089 43.153 166.089 Z"/>
<path fill="#5600e3" fill-rule="evenodd" stroke="none" d="M 35.721 158.197 C 35.432 158.196 35.143 158.196 34.855 158.197 C 33.988 158.197 33.259 157.475 33.259 156.618 C 33.259 155.761 33.988 155.040 34.855 155.040 C 35.143 155.039 35.432 155.039 35.721 155.040 C 36.587 155.040 37.317 155.761 37.317 156.618 C 37.317 157.520 36.587 158.197 35.721 158.197 Z"/>
<path fill="#5600e3" fill-rule="evenodd" stroke="none" d="M 42.925 158.197 C 42.635 158.196 42.347 158.196 42.058 158.197 C 41.192 158.197 40.462 157.475 40.462 156.618 C 40.462 155.761 41.192 155.040 42.058 155.040 C 42.347 155.039 42.635 155.039 42.925 155.040 C 43.791 155.040 44.520 155.761 44.520 156.618 C 44.520 157.520 43.836 158.197 42.925 158.197 Z"/>
<path fill="#5600e3" fill-rule="evenodd" stroke="none" d="M 50.128 158.197 C 49.839 158.196 49.550 158.196 49.262 158.197 C 48.396 158.197 47.666 157.475 47.666 156.618 C 47.666 155.761 48.396 155.040 49.262 155.040 C 49.550 155.039 49.839 155.039 50.128 155.040 C 50.994 155.040 51.724 155.761 51.724 156.618 C 51.724 157.520 51.040 158.197 50.128 158.197 Z"/>
<path fill="#5600e3" fill-rule="evenodd" stroke="none" d="M 10.283 55.083 C 8.061 55.083 5.840 55.083 3.618 55.083 C 2.459 55.083 1.548 54.119 1.548 52.987 C 1.548 49.674 1.548 46.361 1.548 43.049 C 1.548 41.875 2.500 40.952 3.618 40.952 C 5.840 40.952 8.061 40.952 10.283 40.952 C 11.442 40.952 12.353 41.917 12.353 43.049 C 12.353 46.361 12.353 49.674 12.353 52.987 C 12.353 54.119 11.442 55.083 10.283 55.083 Z"/>
<path fill="#5600e3" fill-rule="evenodd" stroke="none" d="M 24.233 55.083 C 22.011 55.083 19.790 55.083 17.568 55.083 C 16.409 55.083 15.499 54.119 15.499 52.987 C 15.499 47.507 15.499 42.028 15.499 36.550 C 15.499 35.376 16.451 34.453 17.568 34.453 C 19.790 34.453 22.011 34.453 24.233 34.453 C 25.392 34.453 26.303 35.417 26.303 36.550 C 26.303 42.028 26.303 47.507 26.303 52.987 C 26.303 54.119 25.392 55.083 24.233 55.083 Z"/>
<path fill="#5600e3" fill-rule="evenodd" stroke="none" d="M 38.184 55.083 C 35.948 55.083 33.713 55.083 31.478 55.083 C 30.319 55.083 29.408 54.119 29.408 52.987 C 29.408 44.963 29.408 36.941 29.408 28.918 C 29.408 27.744 30.360 26.821 31.478 26.821 C 33.699 26.821 35.921 26.821 38.143 26.821 C 39.302 26.821 40.212 27.786 40.212 28.918 C 40.212 36.941 40.212 44.963 40.212 52.987 C 40.254 54.119 39.302 55.083 38.184 55.083 Z"/>
<path fill="#2dffb3" fill-rule="evenodd" stroke="none" d="M 57.930 23.006 C 59.296 23.006 59.876 22.041 59.172 20.825 C 58.067 18.882 56.964 16.939 55.860 14.997 C 55.198 13.781 54.080 11.852 53.377 10.636 C 52.272 8.693 51.168 6.750 50.065 4.807 C 49.402 3.591 48.285 3.591 47.581 4.807 C 46.477 6.750 45.373 8.693 44.269 10.636 C 43.607 11.852 42.489 13.781 41.786 14.997 C 40.681 16.939 39.577 18.882 38.474 20.825 C 37.812 22.041 38.350 23.006 39.716 23.006 C 40.129 23.006 40.543 23.006 40.958 23.006 C 42.324 23.006 43.441 24.138 43.441 25.522 C 43.441 33.838 43.441 42.154 43.441 50.471 C 43.441 51.855 43.648 53.448 43.897 54.035 C 44.145 54.622 46.629 55.083 47.995 55.083 C 48.560 55.083 49.126 55.083 49.692 55.083 C 51.058 55.083 52.631 54.874 53.211 54.622 C 53.790 54.371 54.246 51.855 54.246 50.471 C 54.245 42.154 54.245 33.838 54.246 25.522 C 54.246 24.138 55.364 23.006 56.730 23.006 C 57.129 23.006 57.529 23.006 57.930 23.006 Z"/>
<path fill="#5600e3" fill-rule="evenodd" stroke="none" d="M 28.666 122.215 C 28.666 120.142 28.666 118.069 28.666 115.997 C 25.095 116.211 22.169 113.338 22.169 109.779 C 22.169 106.434 25.095 103.561 28.666 103.775 C 28.666 101.774 28.666 99.773 28.666 97.772 C 24.865 97.771 21.065 97.771 17.264 97.772 C 17.694 96.657 18.383 95.542 18.383 94.427 C 18.383 89.967 11.671 89.967 11.671 94.427 C 11.671 95.542 12.359 96.657 12.790 97.772 C 8.989 97.771 5.189 97.771 1.388 97.772 C 1.388 105.347 1.388 112.923 1.388 120.499 C 1.388 121.400 2.077 122.300 3.195 122.300 C 11.685 122.300 20.175 122.300 28.666 122.300 C 28.666 122.271 28.666 122.243 28.666 122.215 Z"/>
<path fill="#5600e3" fill-rule="evenodd" stroke="none" d="M 58.827 97.729 C 56.445 97.729 54.065 97.729 51.685 97.729 C 51.900 101.288 49.232 104.204 45.661 104.204 C 42.090 104.204 39.164 101.288 39.422 97.729 C 36.726 97.729 34.030 97.729 31.334 97.729 C 31.334 100.916 31.334 104.104 31.334 107.292 C 30.430 107.077 29.312 106.391 28.193 106.391 C 23.718 106.391 23.718 113.295 28.193 113.295 C 29.312 113.295 30.430 112.609 31.334 112.395 C 31.333 115.668 31.333 118.941 31.334 122.215 C 39.824 122.214 48.314 122.214 56.804 122.215 C 57.923 122.215 58.827 121.314 58.827 120.414 C 58.826 112.852 58.826 105.290 58.827 97.729 Z"/>
<path fill="#5600e3" fill-rule="evenodd" stroke="none" d="M 1.173 95.070 C 3.784 95.070 6.394 95.070 9.004 95.070 C 8.574 91.511 11.456 88.380 15.027 88.380 C 18.598 88.380 21.524 91.511 21.051 95.070 C 23.589 95.070 26.127 95.070 28.666 95.070 C 28.666 91.654 28.666 88.237 28.666 84.821 C 29.785 85.250 30.903 85.936 32.022 85.936 C 36.712 85.936 36.712 78.818 32.022 78.818 C 30.903 78.818 29.785 79.718 28.666 80.147 C 28.666 76.874 28.666 73.600 28.666 70.327 C 20.176 70.327 11.686 70.327 3.196 70.327 C 2.077 70.327 1.173 71.228 1.173 72.342 C 1.173 79.918 1.173 87.494 1.173 95.070 Z"/>
<path fill="#2dffb3" fill-rule="evenodd" stroke="none" d="M 58.826 95.070 C 58.826 87.494 58.826 79.918 58.826 72.342 C 58.826 71.228 57.923 70.327 56.804 70.327 C 48.313 70.327 39.823 70.327 31.334 70.327 C 31.333 72.328 31.333 74.329 31.334 76.331 C 34.905 75.902 38.260 78.775 38.261 82.334 C 38.261 86.108 34.905 88.809 31.334 88.338 C 31.333 90.567 31.333 92.797 31.334 95.027 C 35.205 95.027 39.078 95.027 42.950 95.027 C 42.735 95.928 42.047 97.043 42.047 98.158 C 42.047 102.618 48.974 102.618 48.974 98.158 C 48.974 97.043 48.543 95.928 48.070 95.027 C 51.655 95.027 55.240 95.027 58.826 95.027 C 58.826 95.041 58.826 95.056 58.826 95.070 Z"/>
</svg>
