<svg width="29" height="29" viewBox="0 0 29 29" fill="none" xmlns="http://www.w3.org/2000/svg">
<path fill-rule="evenodd" clip-rule="evenodd" d="M14.7643 8.42103C14.8485 8.33663 14.9485 8.26967 15.0586 8.22399C15.1687 8.1783 15.2867 8.15479 15.4059 8.15479C15.5251 8.15479 15.6432 8.1783 15.7533 8.22399C15.8634 8.26967 15.9634 8.33663 16.0475 8.42103L21.485 13.8585C21.5694 13.9427 21.6364 14.0427 21.6821 14.1528C21.7278 14.2629 21.7513 14.381 21.7513 14.5002C21.7513 14.6194 21.7278 14.7374 21.6821 14.8475C21.6364 14.9576 21.5694 15.0576 21.485 15.1418L16.0475 20.5793C15.8774 20.7494 15.6466 20.845 15.4059 20.845C15.1653 20.845 14.9345 20.7494 14.7643 20.5793C14.5941 20.4091 14.4985 20.1783 14.4985 19.9377C14.4985 19.697 14.5941 19.4662 14.7643 19.296L19.562 14.5002L14.7643 9.70428C14.6799 9.6201 14.6129 9.52009 14.5673 9.40999C14.5216 9.29989 14.498 9.18186 14.498 9.06265C14.498 8.94345 14.5216 8.82542 14.5673 8.71532C14.6129 8.60522 14.6799 8.50521 14.7643 8.42103Z" fill="#F7F4FF"/>
<path fill-rule="evenodd" clip-rule="evenodd" d="M7.25 14.5C7.25 14.2596 7.34548 14.0291 7.51543 13.8592C7.68539 13.6892 7.9159 13.5938 8.15625 13.5938H19.9375C20.1779 13.5938 20.4084 13.6892 20.5783 13.8592C20.7483 14.0291 20.8438 14.2596 20.8438 14.5C20.8438 14.7404 20.7483 14.9709 20.5783 15.1408C20.4084 15.3108 20.1779 15.4062 19.9375 15.4062H8.15625C7.9159 15.4062 7.68539 15.3108 7.51543 15.1408C7.34548 14.9709 7.25 14.7404 7.25 14.5Z" fill="#F7F4FF"/>
</svg>
