<svg width="86" height="68" viewBox="0 0 86 68" fill="none" xmlns="http://www.w3.org/2000/svg">
<path d="M54.8125 25.0279V36.8334H55.474C56.7026 36.8334 57.6477 37.7779 57.6477 39.0057V65.1668H85.5268C85.8103 65.1668 85.9993 64.9779 85.9993 64.6945V25.0279C85.9993 24.7446 85.8103 24.5557 85.5268 24.5557H55.285C55.0015 24.5557 54.8125 24.7446 54.8125 25.0279ZM68.9883 60.4445H71.8235V63.2779H68.9883V60.4445Z" fill="#2DFFB3"/>
<path d="M54.8125 39.667H40.6367V68.0003H54.8125V39.667ZM49.1422 66.1114H46.307V63.2781H49.1422V66.1114Z" fill="#5600E3"/>
<path d="M37.8013 58.5557H29.2958V63.2779H25.5156V66.1112H37.8013V58.5557Z" fill="#5600E3"/>
<path d="M20.3187 55.7222H37.8022V39.0056C37.8022 37.7778 38.8418 36.8333 39.9758 36.8333H51.978V25.0278C51.978 23.2333 53.4901 21.7222 55.2857 21.7222H75.6044V3.87222C75.6044 1.7 73.9033 0 71.7297 0H3.87472C1.7011 0 0 1.7 0 3.87222V51.9444C0 54.1167 1.7011 55.8167 3.87472 55.8167L20.3187 55.7222Z" fill="#5600E3"/>
</svg>
