<svg id="eqcvDOnNkyl1" xmlns="http://www.w3.org/2000/svg" xmlns:xlink="http://www.w3.org/1999/xlink" viewBox="0 0 60 60" shape-rendering="geometricPrecision" text-rendering="geometricPrecision"><style><![CDATA[#eqcvDOnNkyl1{pointer-events: all}#eqcvDOnNkyl1.hover #eqcvDOnNkyl2_ts {animation: eqcvDOnNkyl2_ts__ts 2200ms linear infinite normal forwards}@keyframes eqcvDOnNkyl2_ts__ts { 0% {transform: translate(30px,29.949034px) scale(1,1)} 9.090909% {transform: translate(30px,29.949034px) scale(1.091583,0.921213)} 18.181818% {transform: translate(30px,29.949034px) scale(0.918045,1.048319)} 27.272727% {transform: translate(30px,29.949034px) scale(1,1)} 100% {transform: translate(30px,29.949034px) scale(1,1)}} #eqcvDOnNkyl1.hover #eqcvDOnNkyl4_ts {animation: eqcvDOnNkyl4_ts__ts 2200ms linear infinite normal forwards}@keyframes eqcvDOnNkyl4_ts__ts { 0% {transform: translate(29.990296px,29.543296px) scale(1,1)} 36.363636% {transform: translate(29.990296px,29.543296px) scale(1,1)} 45.454545% {transform: translate(29.990296px,29.543296px) scale(1.370165,1.370165)} 54.545455% {transform: translate(29.990296px,29.543296px) scale(1,1)} 100% {transform: translate(29.990296px,29.543296px) scale(1,1)}}]]></style><g id="eqcvDOnNkyl2_ts" transform="translate(30,29.949034) scale(1,1)"><g id="eqcvDOnNkyl2" transform="translate(-30,-29.949034)"><path id="eqcvDOnNkyl3" d="M53.079000,29.940000C53.824000,28,54.569000,26.061000,55.314000,24.121000C55.562000,23.475000,55.364000,22.750000,54.827000,22.313000C53.215000,21.006000,51.603000,19.698000,49.991000,18.391000C49.663000,16.338000,49.335000,14.286000,49.008000,12.234000C48.899000,11.558000,48.362000,11.022000,47.687000,10.913000C45.634000,10.585000,43.582000,10.257000,41.530000,9.930000C40.225000,8.321000,38.921000,6.712000,37.617000,5.103000C37.180000,4.567000,36.445000,4.378000,35.819000,4.617000C33.876000,5.365000,31.933000,6.113000,29.990000,6.861000C28.050000,6.116000,26.110000,5.371000,24.171000,4.626000C23.525000,4.378000,22.800000,4.577000,22.373000,5.113000C21.065000,6.725000,19.758000,8.337000,18.450000,9.949000C16.398000,10.277000,14.345000,10.605000,12.293000,10.933000C11.618000,11.032000,11.082000,11.568000,10.972000,12.243000C10.645000,14.296000,10.317000,16.348000,9.989000,18.401000C8.377000,19.708000,6.765000,21.016000,5.153000,22.323000C4.617000,22.760000,4.428000,23.485000,4.666000,24.121000C5.411000,26.061000,6.156000,28,6.901000,29.940000C6.159000,31.880000,5.418000,33.820000,4.676000,35.760000C4.428000,36.405000,4.626000,37.130000,5.163000,37.557000C6.775000,38.865000,8.387000,40.172000,9.999000,41.480000C10.327000,43.532000,10.655000,45.584000,10.982000,47.637000C11.092000,48.313000,11.618000,48.849000,12.303000,48.958000C14.355000,49.285000,16.408000,49.613000,18.460000,49.941000C19.768000,51.553000,21.075000,53.165000,22.383000,54.778000C22.820000,55.314000,23.545000,55.513000,24.190000,55.264000C26.130000,54.522000,28.070000,53.781000,30.010000,53.040000C31.950000,53.784000,33.889000,54.529000,35.829000,55.274000C36.018000,55.344000,36.207000,55.383000,36.396000,55.383000C36.862000,55.383000,37.319000,55.175000,37.627000,54.788000C38.934000,53.175000,40.242000,51.563000,41.550000,49.951000C43.602000,49.623000,45.654000,49.295000,47.707000,48.968000C48.382000,48.859000,48.918000,48.323000,49.028000,47.647000C49.355000,45.594000,49.683000,43.542000,50.011000,41.490000C51.622000,40.182000,53.235000,38.875000,54.847000,37.567000C55.383000,37.130000,55.572000,36.405000,55.334000,35.770000C54.582000,33.826000,53.830000,31.883000,53.079000,29.940000Z" fill="rgb(86,0,227)" fill-rule="evenodd" stroke="none" stroke-width="1"/><g id="eqcvDOnNkyl4_ts" transform="translate(29.990296,29.543296) scale(1,1)"><g id="eqcvDOnNkyl4" transform="translate(-29.990296,-29.543296)"><path id="eqcvDOnNkyl5" d="M26.814000,21.600000C26.814000,20.726000,26.099000,20.011000,25.225000,20.011000C24.351000,20.011000,23.636000,20.726000,23.636000,21.600000C23.636000,22.474000,24.351000,23.189000,25.225000,23.189000C26.099000,23.189000,26.814000,22.474000,26.814000,21.600000M29.992000,21.600000C29.992000,24.232000,27.856000,26.367000,25.225000,26.367000C22.593000,26.367000,20.458000,24.232000,20.458000,21.600000C20.458000,18.968000,22.593000,16.833000,25.225000,16.833000C27.856000,16.833000,29.992000,18.968000,29.992000,21.600000Z" fill="rgb(45,255,179)" fill-rule="evenodd" stroke="none" stroke-width="1"/><path id="eqcvDOnNkyl6" d="M36.347000,37.488000C36.347000,36.614000,35.632000,35.899000,34.758000,35.899000C33.885000,35.899000,33.169000,36.614000,33.169000,37.488000C33.170000,38.362000,33.885000,39.077000,34.758000,39.077000C35.632000,39.077000,36.347000,38.362000,36.347000,37.488000M39.525000,37.488000C39.525000,40.120000,37.390000,42.255000,34.758000,42.255000C32.127000,42.255000,29.992000,40.120000,29.992000,37.488000C29.992000,34.856000,32.127000,32.721000,34.758000,32.721000C37.390000,32.721000,39.525000,34.856000,39.525000,37.488000Z" fill="rgb(45,255,179)" fill-rule="evenodd" stroke="none" stroke-width="1"/><path id="eqcvDOnNkyl7" d="M22.046000,42.256000C21.728000,42.256000,21.401000,42.156000,21.123000,41.958000C20.408000,41.441000,20.239000,40.458000,20.755000,39.743000C26.051000,32.328000,31.348000,24.913000,36.645000,17.498000C37.161000,16.783000,38.144000,16.614000,38.859000,17.130000C39.574000,17.637000,39.733000,18.630000,39.227000,19.345000C33.930000,26.760000,28.633000,34.175000,23.337000,41.590000C23.029000,42.027000,22.543000,42.256000,22.046000,42.256000Z" fill="rgb(45,255,179)" fill-rule="evenodd" stroke="none" stroke-width="1"/></g></g></g></g></svg>