<svg id="eDo40iTbWLS1" xmlns="http://www.w3.org/2000/svg" xmlns:xlink="http://www.w3.org/1999/xlink" viewBox="0 0 59 64" shape-rendering="geometricPrecision" text-rendering="geometricPrecision"><style><![CDATA[#eDo40iTbWLS2_ts {animation: eDo40iTbWLS2_ts__ts 2000ms linear infinite normal forwards}@keyframes eDo40iTbWLS2_ts__ts { 0% {transform: translate(29.541100px,32.004833px) scale(1,1)} 50% {transform: translate(29.541100px,32.004833px) scale(0.900000,0.900000)} 100% {transform: translate(29.541100px,32.004833px) scale(1,1)}}]]></style><g id="eDo40iTbWLS2_ts" transform="translate(29.541100,32.004833) scale(1,1)"><g id="eDo40iTbWLS2" transform="translate(-29.541100,-32.004833)" clip-path="url(#eDo40iTbWLS7)"><g id="eDo40iTbWLS3"><path id="eDo40iTbWLS4" d="M41.743700,17.214800L17.174100,17.214800C17.174100,17.214800,0,31.958700,0,49.256000C0,59.140200,7.395540,63.999900,12.325900,63.999900L46.756300,63.999900C51.686600,63.999900,59.082200,59.057800,59.082200,49.256000C59,32.041100,41.743700,17.214800,41.743700,17.214800ZM31.965200,51.480000L31.965200,55.433600L27.034800,55.433600L27.034800,51.480000C23.419200,50.821000,21.118400,48.597100,20.954000,45.302400L25.227000,45.302400C25.473500,47.032100,27.117000,48.102900,29.664300,48.102900C31.965200,48.102900,33.608600,46.949700,33.608600,45.384700C33.608600,44.066800,32.540400,43.243200,29.993000,42.666600L27.281300,42.090000C23.419200,41.266300,21.529200,39.289500,21.529200,36.077100C21.529200,32.864800,23.665700,30.558500,27.034800,29.817200L27.034800,25.863500L31.965200,25.863500L31.965200,29.817200C35.252100,30.558500,37.470700,32.864800,37.635100,35.912400L33.526500,35.912400C33.279900,34.265000,31.800800,33.111900,29.664300,33.111900C27.527900,33.111900,25.966600,34.100300,25.966600,35.747700C25.966600,37.065600,26.952600,37.806900,29.417800,38.301100L31.965200,38.877700C36.156000,39.783700,38.046000,41.595800,38.046000,44.890500C37.963800,48.432300,35.745100,50.738700,31.965200,51.480000Z" fill="rgb(86,0,227)" stroke="none" stroke-width="1"/><path id="eDo40iTbWLS5" d="M17.174300,12.273000L41.743900,12.273000L44.044800,5.765960C44.537800,4.530440,43.880400,3.047820,42.647800,2.553610C42.401300,2.471240,42.072600,2.471240,41.743900,2.471240L34.923600,2.471240C32.211900,-0.576379,27.528100,-0.823483,24.487700,1.894660C24.323300,2.059400,24.076800,2.224140,23.912500,2.471240L17.092100,2.471240C15.695200,2.471240,14.627000,3.624390,14.627000,4.942280C14.627000,5.271750,14.709100,5.518860,14.791300,5.848330L17.174300,12.273000Z" fill="rgb(86,0,227)" stroke="none" stroke-width="1"/><path id="eDo40iTbWLS6" d="M41.743500,12.273400L17.173800,12.273400L17.173800,17.215500L41.743500,17.215500L41.743500,12.273400Z" fill="rgb(45,255,179)" stroke="none" stroke-width="1"/></g><clipPath id="eDo40iTbWLS7"><rect id="eDo40iTbWLS8" width="59" height="64" rx="0" ry="0" fill="rgb(255,255,255)" stroke="none" stroke-width="1"/></clipPath></g></g></svg>