<?xml version="1.0" encoding="utf-8"?>
<!-- Generator: Moho 13.0.2 build 610 -->
<!DOCTYPE svg PUBLIC "-//W3C//DTD SVG 1.1//EN" "http://www.w3.org/Graphics/SVG/1.1/DTD/svg11.dtd">
<svg version="1.1" id="Frame_0" xmlns="http://www.w3.org/2000/svg" xmlns:xlink="http://www.w3.org/1999/xlink" width="60px" height="60px">
<g id="Layer_16">
<path fill="#5600e3" fill-rule="evenodd" stroke="none" d="M 58.159 43.134 C 58.158 31.452 58.157 19.771 58.159 8.089 C 58.159 6.654 57.030 5.518 55.603 5.518 C 38.487 5.518 21.372 5.518 4.256 5.518 C 2.829 5.518 1.700 6.654 1.700 8.089 C 1.701 19.771 1.701 31.452 1.700 43.134 C 1.700 44.570 2.829 45.705 4.256 45.705 C 11.149 45.705 18.043 45.705 24.937 45.705 C 24.937 47.260 24.937 48.816 24.937 50.371 C 24.204 50.370 23.471 50.370 22.738 50.371 C 20.123 50.371 17.983 52.523 17.983 55.155 C 17.983 55.873 18.579 56.411 19.233 56.411 C 26.364 56.409 33.495 56.411 40.626 56.411 C 41.340 56.411 41.875 55.812 41.875 55.155 C 41.875 52.523 39.736 50.371 37.120 50.371 C 36.387 50.370 35.654 50.370 34.921 50.371 C 34.921 48.816 34.921 47.260 34.921 45.705 C 41.815 45.705 48.709 45.705 55.603 45.705 C 57.030 45.705 58.159 44.570 58.159 43.134 M 29.929 39.367 C 30.880 39.367 31.712 40.144 31.712 41.161 C 31.712 42.118 30.880 42.955 29.929 42.955 C 28.978 42.955 28.146 42.178 28.146 41.161 C 28.146 40.204 28.918 39.367 29.929 39.367 M 6.811 10.661 C 22.223 10.661 37.635 10.661 53.048 10.661 C 53.047 19.352 53.047 28.044 53.048 36.736 C 37.635 36.735 22.223 36.735 6.811 36.736 C 6.811 28.044 6.811 19.352 6.811 10.661 Z"/>
<path fill="#2dffb3" fill-rule="evenodd" stroke="none" d="M 24.878 21.307 C 25.768 21.306 26.660 21.306 27.552 21.307 C 27.551 23.140 27.551 24.975 27.552 26.809 C 27.552 27.167 27.849 27.526 28.265 27.526 C 29.374 27.525 30.484 27.526 31.593 27.526 C 31.949 27.526 32.306 27.227 32.306 26.809 C 32.307 24.975 32.306 23.140 32.306 21.307 C 33.217 21.306 34.128 21.306 35.040 21.307 C 35.634 21.307 35.931 20.649 35.575 20.170 C 33.891 17.978 32.207 15.785 30.524 13.592 C 30.227 13.233 29.692 13.233 29.453 13.592 C 27.770 15.785 26.086 17.978 24.402 20.170 C 23.986 20.589 24.283 21.307 24.878 21.307 Z"/>
<path fill="#2dffb3" fill-rule="evenodd" stroke="none" d="M 22.322 34.104 C 27.393 34.105 32.464 34.105 37.537 34.104 C 38.012 34.104 38.427 33.685 38.427 33.207 C 38.427 32.429 38.427 31.652 38.427 30.875 C 38.427 30.396 38.012 29.977 37.537 29.977 C 32.464 29.977 27.393 29.977 22.322 29.977 C 21.846 29.977 21.430 30.396 21.430 30.875 C 21.430 31.652 21.430 32.429 21.430 33.207 C 21.430 33.685 21.846 34.104 22.322 34.104 Z"/>
</g>
</svg>
