<svg width="31" height="31" viewBox="0 0 31 31" fill="none" xmlns="http://www.w3.org/2000/svg">
<path d="M15.5001 0.0645752C6.93972 0.0645752 0 7.00429 0 15.5647C0 23.2423 5.58809 29.6007 12.915 30.832V18.7984H9.17591V14.468H12.915V11.275C12.915 7.57009 15.1778 5.55115 18.4833 5.55115C20.0664 5.55115 21.4269 5.66912 21.8219 5.72108V9.59365L19.5293 9.59476C17.732 9.59476 17.3855 10.4486 17.3855 11.7021V14.4658H21.6739L21.1146 18.7962H17.3855V30.9355C25.0545 30.0021 31 23.4818 31 15.5602C31 7.00429 24.0603 0.0645752 15.5001 0.0645752Z" fill="#5600E3"/>
</svg>
