<svg id="enfq4bJ1Isj1" xmlns="http://www.w3.org/2000/svg" xmlns:xlink="http://www.w3.org/1999/xlink" viewBox="0 0 43 43" shape-rendering="geometricPrecision" text-rendering="geometricPrecision"><style><![CDATA[#enfq4bJ1Isj1{pointer-events: all}#enfq4bJ1Isj1:hover #enfq4bJ1Isj3_ts {animation: enfq4bJ1Isj3_ts__ts 5000ms linear infinite normal forwards}@keyframes enfq4bJ1Isj3_ts__ts { 0% {transform: translate(5.379950px,43px) scale(1,1)} 30% {transform: translate(5.379950px,43px) scale(1,1.438642)} 60% {transform: translate(5.379950px,43px) scale(1,1)} 100% {transform: translate(5.379950px,43px) scale(1,1)}} #enfq4bJ1Isj1:hover #enfq4bJ1Isj4_ts {animation: enfq4bJ1Isj4_ts__ts 5000ms linear infinite normal forwards}@keyframes enfq4bJ1Isj4_ts__ts { 0% {transform: translate(20.407250px,43px) scale(1,1)} 30% {transform: translate(20.407250px,43px) scale(1,0.431059)} 60% {transform: translate(20.407250px,43px) scale(1,1)} 100% {transform: translate(20.407250px,43px) scale(1,1)}} #enfq4bJ1Isj1:hover #enfq4bJ1Isj5_ts {animation: enfq4bJ1Isj5_ts__ts 5000ms linear infinite normal forwards}@keyframes enfq4bJ1Isj5_ts__ts { 0% {transform: translate(35.471750px,43px) scale(1,1)} 30% {transform: translate(35.471750px,43px) scale(1,1.248668)} 60% {transform: translate(35.471750px,43px) scale(1,1)} 100% {transform: translate(35.471750px,43px) scale(1,1)}}]]></style><g id="enfq4bJ1Isj2" transform="matrix(1 0 0 1 1.07415008500000 -0.00060081500000)"><g id="enfq4bJ1Isj3_ts" transform="translate(5.379950,43) scale(1,1)"><path id="enfq4bJ1Isj3" d="M9.862170,19.709000L0.896866,19.709000C0.401783,19.709000,0,20.110400,0,20.604300L0,42.104300C0,42.598900,0.401783,43.000400,0.896866,43.000400L9.863010,43.000400C10.358100,43.000400,10.759900,42.598900,10.759900,42.104300L10.759900,20.604300C10.759000,20.110400,10.358900,19.709000,9.862170,19.709000Z" transform="translate(-5.379950,-43)" fill="rgb(86,0,227)" stroke="none" stroke-width="1"/></g><g id="enfq4bJ1Isj4_ts" transform="translate(20.407250,43) scale(1,1)"><path id="enfq4bJ1Isj4" d="M24.890400,0L15.924200,0C15.429100,0,15.027300,0.401445,15.027300,0.896113L15.027300,42.104700C15.027300,42.599400,15.429100,43.000800,15.924200,43.000800L24.890400,43.000800C25.385400,43.000800,25.787200,42.599400,25.787200,42.104700L25.787200,0.896113C25.786400,0.401445,25.384600,0,24.890400,0Z" transform="translate(-20.407250,-43)" fill="rgb(45,255,179)" stroke="none" stroke-width="1"/></g><g id="enfq4bJ1Isj5_ts" transform="translate(35.471750,43) scale(1,1)"><path id="enfq4bJ1Isj5" d="M39.954800,8.958980L30.988700,8.958980C30.493600,8.958980,30.091800,9.360430,30.091800,9.855100L30.091800,42.105100C30.091800,42.599800,30.493600,43.001200,30.988700,43.001200L39.954800,43.001200C40.449900,43.001200,40.851700,42.599800,40.851700,42.105100L40.851700,9.855100C40.850800,9.359590,40.449000,8.958980,39.954800,8.958980Z" transform="translate(-35.471750,-43)" fill="rgb(86,0,227)" stroke="none" stroke-width="1"/></g></g></svg>