<?xml version="1.0" encoding="utf-8"?>
<!-- Generator: Moho 13.0.2 build 610 -->
<!DOCTYPE svg PUBLIC "-//W3C//DTD SVG 1.1//EN" "http://www.w3.org/Graphics/SVG/1.1/DTD/svg11.dtd">
<svg version="1.1" id="Frame_0" xmlns="http://www.w3.org/2000/svg" xmlns:xlink="http://www.w3.org/1999/xlink" width="60px" height="60px">
<g id="icon-form.svg">
<path fill="#5600e3" fill-rule="evenodd" stroke="#000000" stroke-width="0" stroke-linecap="round" stroke-linejoin="round" d="M 27.950 26.929 C 27.949 24.981 27.949 23.033 27.950 21.085 C 23.221 21.085 18.493 21.085 13.765 21.085 C 13.765 23.033 13.765 24.981 13.765 26.929 C 18.493 26.929 23.221 26.929 27.950 26.929 M 46.237 38.254 C 46.236 36.305 46.236 34.357 46.237 32.410 C 35.412 32.410 24.589 32.410 13.765 32.410 C 13.765 34.357 13.765 36.305 13.765 38.254 C 24.589 38.253 35.412 38.253 46.237 38.254 M 46.237 49.578 C 46.236 47.629 46.236 45.682 46.237 43.734 C 35.412 43.734 24.589 43.734 13.765 43.734 C 13.765 45.682 13.765 47.629 13.765 49.578 C 24.589 49.577 35.412 49.577 46.237 49.578 M 53.073 51.764 C 53.082 43.215 53.079 34.666 53.079 26.117 C 53.079 20.870 53.073 15.623 53.077 10.377 C 53.079 9.225 52.898 8.119 52.305 7.131 C 50.456 4.053 47.824 3.823 44.482 4.163 C 44.482 5.304 44.486 6.452 44.481 7.599 C 44.470 10.024 42.885 11.660 40.519 11.662 C 33.525 11.667 26.532 11.666 19.539 11.659 C 17.079 11.656 15.519 10.048 15.513 7.536 C 15.510 6.409 15.513 5.284 15.513 4.065 C 14.666 4.065 13.913 4.063 13.160 4.065 C 9.436 4.077 6.922 6.639 6.921 10.442 C 6.919 24.175 6.918 37.908 6.921 51.641 C 6.922 55.403 9.446 57.975 13.129 57.975 C 24.376 57.978 35.622 57.976 46.868 57.974 C 47.235 57.974 47.608 57.971 47.967 57.910 C 51.077 57.383 53.069 54.996 53.073 51.764 Z"/>
<path fill="#2dffb3" fill-rule="evenodd" stroke="#000000" stroke-width="0" stroke-linecap="round" stroke-linejoin="round" d="M 19.610 8.361 C 26.557 8.365 33.505 8.366 40.452 8.365 C 41.119 8.365 41.284 8.193 41.286 7.514 C 41.290 5.884 41.290 4.255 41.280 2.626 C 41.279 2.425 41.206 2.226 41.166 2.025 C 33.721 2.025 26.276 2.025 18.830 2.025 C 18.790 2.246 18.716 2.466 18.715 2.687 C 18.705 4.275 18.709 5.862 18.713 7.450 C 18.715 8.215 18.855 8.361 19.610 8.361 Z"/>
</g>
</svg>
