<?xml version="1.0" encoding="utf-8"?>
<!-- Generator: Moho 13.0.2 build 610 -->
<!DOCTYPE svg PUBLIC "-//W3C//DTD SVG 1.1//EN" "http://www.w3.org/Graphics/SVG/1.1/DTD/svg11.dtd">
<svg version="1.1" id="Frame_0" xmlns="http://www.w3.org/2000/svg" xmlns:xlink="http://www.w3.org/1999/xlink" width="60px" height="60px">
<g id="Frame(1).svg">
<path fill="#5600e3" fill-rule="evenodd" stroke="none" d="M 21.292 32.150 C 23.868 32.150 23.868 36.057 21.219 36.057 C 18.226 36.056 15.233 36.056 12.240 36.057 C 9.591 36.204 9.443 32.298 12.019 32.150 C 12.093 32.150 12.166 32.150 12.240 32.150 C 15.257 32.150 18.275 32.150 21.292 32.150 M 19.894 41.437 C 22.470 41.437 22.470 45.344 19.894 45.344 C 17.343 45.344 14.791 45.344 12.240 45.344 C 9.664 45.344 9.664 41.437 12.240 41.437 C 14.791 41.437 17.343 41.437 19.894 41.437 M 10.179 15.566 C 10.179 14.534 10.989 13.650 12.019 13.576 C 12.093 13.576 12.166 13.576 12.240 13.576 C 20.090 13.576 27.940 13.576 35.791 13.576 C 36.895 13.576 37.778 14.387 37.778 15.493 C 37.778 16.598 36.895 17.483 35.791 17.483 C 35.766 17.483 35.741 17.483 35.717 17.483 C 27.867 17.483 20.017 17.483 12.166 17.483 C 11.062 17.483 10.179 16.672 10.179 15.566 M 29.609 22.863 C 32.185 22.863 32.185 26.770 29.609 26.770 C 23.819 26.770 18.029 26.770 12.240 26.770 C 9.664 26.770 9.664 22.863 12.240 22.863 C 18.029 22.863 23.819 22.863 29.609 22.863 M 44.696 43.428 C 43.395 44.680 42.095 45.933 40.795 47.187 C 39.839 48.145 38.514 48.734 37.116 48.882 C 35.275 49.029 33.435 49.176 31.596 49.324 C 28.063 49.619 25.046 46.523 25.340 43.059 C 25.487 41.216 25.634 39.373 25.782 37.531 C 25.929 36.131 26.518 34.804 27.474 33.846 C 33.215 28.096 38.955 22.347 44.696 16.598 C 44.695 13.723 44.695 10.849 44.696 7.974 C 44.696 6.869 43.813 5.984 42.782 5.984 C 30.271 5.984 17.760 5.984 5.248 5.984 C 4.144 5.984 3.261 6.869 3.261 7.974 C 3.261 22.961 3.261 37.948 3.261 52.936 C 3.261 54.041 4.144 54.926 5.175 54.926 C 17.686 54.925 30.197 54.925 42.709 54.926 C 43.813 54.926 44.696 54.041 44.696 53.009 C 44.695 49.815 44.695 46.621 44.696 43.428 Z"/>
<path fill="#2dffb3" fill-rule="evenodd" stroke="none" d="M 30.198 36.574 C 29.904 36.869 29.683 37.311 29.610 37.827 C 29.462 39.669 29.315 41.512 29.168 43.355 C 29.094 44.460 29.904 45.345 30.934 45.492 C 31.008 45.492 31.155 45.492 31.229 45.492 C 33.068 45.345 34.908 45.197 36.748 45.050 C 37.190 45.050 37.632 44.829 38.000 44.460 C 42.783 39.669 47.567 34.878 52.351 30.088 C 49.750 27.459 47.150 24.830 44.550 22.201 C 39.766 26.992 34.982 31.783 30.198 36.574 Z"/>
<path fill="#2dffb3" fill-rule="evenodd" stroke="none" d="M 57.649 22.053 C 55.931 20.357 54.214 18.662 52.497 16.967 C 52.129 16.599 51.688 16.377 51.099 16.377 C 50.584 16.377 50.142 16.599 49.774 16.967 C 48.940 17.778 48.105 18.588 47.272 19.399 C 49.896 22.028 52.521 24.657 55.147 27.286 C 55.980 26.450 56.814 25.615 57.649 24.780 C 58.385 24.043 58.385 22.790 57.649 22.053 Z"/>
</g>
</svg>
