<svg id="eO4d7muDaEP1" xmlns="http://www.w3.org/2000/svg" xmlns:xlink="http://www.w3.org/1999/xlink" viewBox="0 0 60 60" shape-rendering="geometricPrecision" text-rendering="geometricPrecision"><style><![CDATA[#eO4d7muDaEP1{pointer-events: all}#eO4d7muDaEP1.hover #eO4d7muDaEP2_ts {animation: eO4d7muDaEP2_ts__ts 3000ms linear infinite normal forwards}@keyframes eO4d7muDaEP2_ts__ts { 0% {transform: translate(29.928500px,56.411000px) scale(1,1)} 10% {transform: translate(29.928500px,56.411000px) scale(1,1)} 16.666667% {transform: translate(29.928500px,56.411000px) scale(1.024753,0.926568)} 23.333333% {transform: translate(29.928500px,56.411000px) scale(0.931199,1.054746)} 30% {transform: translate(29.928500px,56.411000px) scale(1,1)} 100% {transform: translate(29.928500px,56.411000px) scale(1,1)}} #eO4d7muDaEP1.hover #eO4d7muDaEP4_to {animation: eO4d7muDaEP4_to__to 3000ms linear infinite normal forwards}@keyframes eO4d7muDaEP4_to__to { 0% {transform: translate(29.968395px,20.424375px)} 40% {transform: translate(29.968395px,20.424375px)} 43.333333% {transform: translate(30.000103px,24.226728px)} 66.666667% {transform: translate(30.000068px,15.874776px)} 100% {transform: translate(29.968395px,20.424375px)}} #eO4d7muDaEP1.hover #eO4d7muDaEP4_ts {animation: eO4d7muDaEP4_ts__ts 3000ms linear infinite normal forwards}@keyframes eO4d7muDaEP4_ts__ts { 0% {transform: scale(1,1)} 40% {transform: scale(1,1)} 43.333333% {transform: scale(0.657912,0.657912)} 66.666667% {transform: scale(0.657912,0.657912)} 100% {transform: scale(1,1)}} #eO4d7muDaEP1.hover #eO4d7muDaEP5_ts {animation: eO4d7muDaEP5_ts__ts 3000ms linear infinite normal forwards}@keyframes eO4d7muDaEP5_ts__ts { 0% {transform: translate(29.929500px,34.104000px) scale(1,1)} 40% {transform: translate(29.929500px,34.104000px) scale(1,1)} 46.666667% {transform: translate(29.929500px,34.104000px) scale(1.083144,0.688654)} 53.333333% {transform: translate(29.929500px,34.104000px) scale(0.855918,1.280046)} 60% {transform: translate(29.929500px,34.104000px) scale(1,1)} 100% {transform: translate(29.929500px,34.104000px) scale(1,1)}}]]></style><g id="eO4d7muDaEP2_ts" transform="translate(29.928500,56.411000) scale(1,1)"><g id="eO4d7muDaEP2" transform="translate(-29.928500,-56.411000)"><path id="eO4d7muDaEP3" d="M58.159000,43.134000C58.158000,31.452000,58.157000,19.771000,58.159000,8.089000C58.159000,6.654000,57.030000,5.518000,55.603000,5.518000C38.487000,5.518000,21.372000,5.518000,4.256000,5.518000C2.829000,5.518000,1.700000,6.654000,1.700000,8.089000C1.701000,19.771000,1.701000,31.452000,1.700000,43.134000C1.700000,44.570000,2.829000,45.705000,4.256000,45.705000C11.149000,45.705000,18.043000,45.705000,24.937000,45.705000C24.937000,47.260000,24.937000,48.816000,24.937000,50.371000C24.204000,50.370000,23.471000,50.370000,22.738000,50.371000C20.123000,50.371000,17.983000,52.523000,17.983000,55.155000C17.983000,55.873000,18.579000,56.411000,19.233000,56.411000C26.364000,56.409000,33.495000,56.411000,40.626000,56.411000C41.340000,56.411000,41.875000,55.812000,41.875000,55.155000C41.875000,52.523000,39.736000,50.371000,37.120000,50.371000C36.387000,50.370000,35.654000,50.370000,34.921000,50.371000C34.921000,48.816000,34.921000,47.260000,34.921000,45.705000C41.815000,45.705000,48.709000,45.705000,55.603000,45.705000C57.030000,45.705000,58.159000,44.570000,58.159000,43.134000M29.929000,39.367000C30.880000,39.367000,31.712000,40.144000,31.712000,41.161000C31.712000,42.118000,30.880000,42.955000,29.929000,42.955000C28.978000,42.955000,28.146000,42.178000,28.146000,41.161000C28.146000,40.204000,28.918000,39.367000,29.929000,39.367000M6.811000,10.661000C22.223000,10.661000,37.635000,10.661000,53.048000,10.661000C53.047000,19.352000,53.047000,28.044000,53.048000,36.736000C37.635000,36.735000,22.223000,36.735000,6.811000,36.736000C6.811000,28.044000,6.811000,19.352000,6.811000,10.661000Z" fill="rgb(86,0,227)" fill-rule="evenodd" stroke="none" stroke-width="1"/><g id="eO4d7muDaEP4_to" transform="translate(29.968395,20.424375)"><g id="eO4d7muDaEP4_ts" transform="scale(1,1)"><path id="eO4d7muDaEP4" d="M24.878000,21.307000C25.768000,21.306000,26.660000,21.306000,27.552000,21.307000C27.551000,23.140000,27.551000,24.975000,27.552000,26.809000C27.552000,27.167000,27.849000,27.526000,28.265000,27.526000C29.374000,27.525000,30.484000,27.526000,31.593000,27.526000C31.949000,27.526000,32.306000,27.227000,32.306000,26.809000C32.307000,24.975000,32.306000,23.140000,32.306000,21.307000C33.217000,21.306000,34.128000,21.306000,35.040000,21.307000C35.634000,21.307000,35.931000,20.649000,35.575000,20.170000C33.891000,17.978000,32.207000,15.785000,30.524000,13.592000C30.227000,13.233000,29.692000,13.233000,29.453000,13.592000C27.770000,15.785000,26.086000,17.978000,24.402000,20.170000C23.986000,20.589000,24.283000,21.307000,24.878000,21.307000Z" transform="translate(-29.968395,-20.424375)" fill="rgb(45,255,179)" fill-rule="evenodd" stroke="none" stroke-width="1"/></g></g><g id="eO4d7muDaEP5_ts" transform="translate(29.929500,34.104000) scale(1,1)"><path id="eO4d7muDaEP5" d="M22.322000,34.104000C27.393000,34.105000,32.464000,34.105000,37.537000,34.104000C38.012000,34.104000,38.427000,33.685000,38.427000,33.207000C38.427000,32.429000,38.427000,31.652000,38.427000,30.875000C38.427000,30.396000,38.012000,29.977000,37.537000,29.977000C32.464000,29.977000,27.393000,29.977000,22.322000,29.977000C21.846000,29.977000,21.430000,30.396000,21.430000,30.875000C21.430000,31.652000,21.430000,32.429000,21.430000,33.207000C21.430000,33.685000,21.846000,34.104000,22.322000,34.104000Z" transform="translate(-29.929500,-34.104000)" fill="rgb(45,255,179)" fill-rule="evenodd" stroke="none" stroke-width="1"/></g></g></g></svg>