<?xml version="1.0" encoding="utf-8"?>
<!-- Generator: Moho 13.0.2 build 610 -->
<!DOCTYPE svg PUBLIC "-//W3C//DTD SVG 1.1//EN" "http://www.w3.org/Graphics/SVG/1.1/DTD/svg11.dtd">
<svg version="1.1" id="Frame_0" xmlns="http://www.w3.org/2000/svg" xmlns:xlink="http://www.w3.org/1999/xlink" width="60px" height="60px">
<g id="Ico_Pro_Design.svg">
<path fill="#5600e3" fill-rule="evenodd" stroke="none" d="M 31.537 43.707 C 31.537 44.565 30.799 45.301 29.939 45.301 C 29.016 45.301 28.340 44.626 28.340 43.707 C 28.340 42.848 29.016 42.112 29.939 42.112 C 30.799 42.112 31.537 42.848 31.537 43.707 M 55.755 13.718 C 55.694 13.534 55.694 13.411 55.632 13.166 C 54.423 14.188 53.214 15.210 52.006 16.232 C 52.005 24.041 52.005 31.850 52.006 39.659 C 37.294 39.659 22.583 39.659 7.872 39.659 C 7.871 31.482 7.871 23.305 7.872 15.128 C 16.272 15.128 24.673 15.128 33.073 15.128 C 34.118 13.902 35.163 12.675 36.208 11.449 C 26.312 11.449 16.415 11.448 6.519 11.449 C 5.290 11.449 4.245 12.491 4.245 13.779 C 4.245 24.327 4.245 34.875 4.245 45.424 C 4.245 46.650 5.290 47.693 6.519 47.693 C 12.789 47.692 19.059 47.692 25.328 47.693 C 25.328 49.103 25.328 50.513 25.328 51.924 C 23.935 51.924 22.542 51.924 21.149 51.924 C 20.534 51.924 19.981 52.415 19.981 53.090 C 19.980 53.805 19.980 54.520 19.981 55.236 C 19.981 55.849 20.473 56.401 21.149 56.401 C 26.988 56.401 32.827 56.401 38.667 56.401 C 39.282 56.401 39.835 55.911 39.835 55.236 C 39.835 54.520 39.835 53.805 39.835 53.090 C 39.835 52.476 39.343 51.924 38.667 51.924 C 37.273 51.924 35.880 51.924 34.487 51.924 C 34.487 50.513 34.487 49.103 34.487 47.693 C 40.798 47.692 47.108 47.692 53.419 47.693 C 54.710 47.693 55.755 46.650 55.755 45.424 C 55.755 34.855 55.755 24.286 55.755 13.718 Z"/>
<path fill="#2dffb3" fill-rule="evenodd" stroke="none" d="M 37.192 20.341 C 37.991 21.138 38.606 22.058 39.036 23.039 C 43.933 18.808 48.829 14.576 53.727 10.345 C 55.755 8.566 55.817 5.500 53.973 3.599 C 52.067 1.698 48.994 1.820 47.211 3.844 C 42.990 8.750 38.769 13.656 34.549 18.562 C 35.532 18.930 36.454 19.544 37.192 20.341 Z"/>
<path fill="#2dffb3" fill-rule="evenodd" stroke="none" d="M 27.357 22.733 C 25.144 24.940 26.189 28.743 22.562 31.441 C 21.886 31.932 22.132 32.974 22.931 33.158 C 28.648 34.385 32.704 32.361 34.794 30.215 C 36.823 28.191 36.823 24.818 34.794 22.733 C 32.766 20.648 29.447 20.648 27.357 22.733 Z"/>
</g>
</svg>
