<svg width="72" height="72" viewBox="0 0 72 72" fill="none" xmlns="http://www.w3.org/2000/svg">
<g clip-path="url(#clip0)">
<path d="M1.48235 71.9999H13.8706C14.7176 71.9999 15.3529 71.3646 15.3529 70.5175V34.5175C15.3529 33.6704 14.7176 33.0352 13.8706 33.0352H1.48235C0.635294 33.0352 0 33.6704 0 34.5175V70.5175C0 71.3646 0.635294 71.9999 1.48235 71.9999Z" fill="#5600E3"/>
<path d="M69.1416 51.4593C67.3416 50.0828 65.0122 49.6593 62.7887 50.2946L51.4593 53.5769C50.9299 54.5298 50.1887 55.4828 49.2357 56.1181C47.7534 57.1769 46.0593 57.7063 44.3652 57.7063C43.624 57.7063 42.7769 57.6004 42.0357 57.3887L33.0357 54.6357C32.1887 54.424 31.7652 53.5769 32.0828 52.7298C32.2946 51.8828 33.1416 51.4593 33.9887 51.7769L42.7769 54.424C44.2593 54.8475 45.9534 54.7416 47.3299 53.8946C47.3299 53.8946 47.3299 53.8946 47.4357 53.8946C49.5534 52.5181 49.871 49.5534 48.2828 47.5416C47.3299 46.3769 46.0593 45.424 44.5769 45.0004L18.6357 39.3887V65.4357L40.1299 72.0004C40.2357 72.0004 40.4475 72.1063 40.5534 72.1063C40.6593 72.1063 40.871 72.1063 40.9769 72.0004L66.9181 64.1651C69.8828 63.2122 72.0005 60.4593 72.0005 57.1769C72.0005 54.8475 70.9416 52.7298 69.1416 51.4593Z" fill="#5600E3"/>
<path d="M51.035 0C39.4938 0 30.0703 9.42353 30.0703 20.9647C30.0703 32.5059 39.4938 41.9294 51.035 41.9294C62.5762 41.9294 71.9997 32.6118 71.9997 20.9647C71.9997 9.42353 62.5762 0 51.035 0ZM51.035 18C54.3174 18 57.0703 20.6471 57.0703 24.0353C57.0703 26.7882 55.1644 29.1176 52.5174 29.8588V31.5529C52.5174 32.4 51.8821 33.0353 51.035 33.0353C50.188 33.0353 49.5527 32.4 49.5527 31.5529V29.8588C47.0115 29.2235 44.9997 26.8941 44.9997 24.0353C44.9997 23.1882 45.635 22.5529 46.4821 22.5529C47.3291 22.5529 47.9644 23.1882 47.9644 24.0353C47.9644 25.7294 49.3409 27 50.9291 27C52.5174 27 53.8938 25.6235 53.8938 24.0353C53.8938 22.3412 52.5174 21.0706 50.9291 21.0706C47.6468 21.0706 44.8938 18.4235 44.8938 15.0353C44.8938 12.2824 46.7997 9.95294 49.4468 9.21177V7.51765C49.4468 6.67059 50.0821 6.03529 50.9291 6.03529C51.7762 6.03529 52.4115 6.67059 52.4115 7.51765V9.21177C54.9527 9.84706 56.9644 12.1765 56.9644 15.0353C56.9644 15.8824 56.3291 16.5176 55.4821 16.5176C54.635 16.5176 53.9997 15.8824 53.9997 15.0353C53.9997 13.3412 52.6233 12.0706 51.035 12.0706C49.4468 12.0706 48.0703 13.4471 48.0703 15.0353C48.0703 16.6235 49.3409 18 51.035 18Z" fill="#2DFFB3"/>
</g>
<defs>
<clipPath id="clip0">
<rect width="72" height="72" fill="white"/>
</clipPath>
</defs>
</svg>
