<svg id="edCzxIJskth1" xmlns="http://www.w3.org/2000/svg" xmlns:xlink="http://www.w3.org/1999/xlink" viewBox="0 0 60 60" shape-rendering="geometricPrecision" text-rendering="geometricPrecision"><style><![CDATA[#edCzxIJskth1{pointer-events: all}#edCzxIJskth1.hover #edCzxIJskth2_ts {animation: edCzxIJskth2_ts__ts 6000ms linear infinite normal forwards}@keyframes edCzxIJskth2_ts__ts { 0% {transform: translate(30.050000px,57.800000px) scale(1,1)} 70% {transform: translate(30.050000px,57.800000px) scale(1,1)} 73.333333% {transform: translate(30.050000px,57.800000px) scale(1.092820,0.931725)} 76.666667% {transform: translate(30.050000px,57.800000px) scale(0.854700,1.024042)} 80% {transform: translate(30.050000px,57.800000px) scale(1,1)} 100% {transform: translate(30.050000px,57.800000px) scale(1,1)}} #edCzxIJskth1.hover #edCzxIJskth6_to {animation: edCzxIJskth6_to__to 6000ms linear infinite normal forwards}@keyframes edCzxIJskth6_to__to { 0% {transform: translate(30.049998px,38.500000px)} 33.333333% {transform: translate(30.050001px,32.700000px)} 66.666667% {transform: translate(30.049998px,38.500000px)} 100% {transform: translate(30.049998px,38.500000px)}} #edCzxIJskth1.hover #edCzxIJskth6_tr {animation: edCzxIJskth6_tr__tr 6000ms linear infinite normal forwards}@keyframes edCzxIJskth6_tr__tr { 0% {transform: rotate(0deg)} 66.666667% {transform: rotate(360deg)} 100% {transform: rotate(360deg)}} #edCzxIJskth1.hover #edCzxIJskth6_ts {animation: edCzxIJskth6_ts__ts 6000ms linear infinite normal forwards}@keyframes edCzxIJskth6_ts__ts { 0% {transform: scale(1,1)} 33.333333% {transform: scale(0.523173,0.523173)} 66.666667% {transform: scale(1,1)} 100% {transform: scale(1,1)}}]]></style><g id="edCzxIJskth2_ts" transform="translate(30.050000,57.800000) scale(1,1)"><g id="edCzxIJskth2" transform="translate(-30.050000,-57.800000)"><path id="edCzxIJskth3" d="M57,12C57,9.400000,57,6.700000,57,4C57,3.100000,56.300000,2.400000,55.400000,2.400000C38.400000,2.400000,21.500000,2.400000,4.500000,2.400000C3.700000,2.500000,3,3.200000,3,4.100000C3,6.700000,3,9.400000,3,12.100000C21,12,39,12,57,12M8.500000,5.600000C9.400000,5.600000,10.100000,6.300000,10.100000,7.200000C10.100000,8.100000,9.400000,8.800000,8.500000,8.800000C7.600000,8.800000,6.900000,8.100000,6.900000,7.200000C6.900000,6.400000,7.700000,5.600000,8.500000,5.600000M14.100000,5.600000C15,5.600000,15.700000,6.300000,15.700000,7.200000C15.700000,8.100000,15,8.800000,14.100000,8.800000C13.200000,8.800000,12.500000,8.100000,12.500000,7.200000C12.500000,6.300000,13.200000,5.600000,14.100000,5.600000M19.700000,5.600000C20.600000,5.600000,21.300000,6.300000,21.300000,7.200000C21.300000,8.100000,20.600000,8.800000,19.700000,8.800000C18.800000,8.800000,18.100000,8.100000,18.100000,7.200000C18.100000,6.400000,18.800000,5.600000,19.700000,5.600000Z" clip-rule="evenodd" fill="rgb(86,0,227)" fill-rule="evenodd" stroke="none" stroke-width="1"/><path id="edCzxIJskth4" display="none" d="M2.972000,18.227000C2.972000,29.356000,2.974000,40.485000,2.972000,51.614000C2.972000,52.489000,3.687000,53.206000,4.562000,53.206000C7.855000,53.205000,11.149000,53.204000,14.444000,53.206000C13.770000,52.537000,13.097000,51.869000,12.424000,51.201000C12.793000,50.809000,13.161000,50.417000,13.529000,50.025000C11.071000,50.024000,8.611000,50.024000,6.152000,50.025000C6.152000,40.485000,6.152000,30.946000,6.152000,21.406000C22.051000,21.406000,37.950000,21.406000,53.849000,21.406000C53.849000,30.946000,53.849000,40.485000,53.849000,50.025000C51.420000,50.024000,48.990000,50.024000,46.560000,50.025000C46.925000,50.385000,47.291000,50.746000,47.657000,51.106000C46.962000,51.805000,46.267000,52.505000,45.574000,53.206000C48.862000,53.204000,52.150000,53.205000,55.440000,53.206000C56.315000,53.206000,57.030000,52.489000,57.030000,51.614000C57.030000,40.485000,57.030000,29.356000,57.030000,18.227000C39.010000,18.226000,20.991000,18.226000,2.972000,18.227000Z" transform="matrix(1 0 0 1 0 -3)" fill="rgb(86,0,227)" fill-rule="evenodd" stroke="none" stroke-width="1"/><path id="edCzxIJskth5" d="M3,15.200000C3,26.300000,3,37.500000,3,48.600000C3,49.500000,3.700000,50.200000,4.600000,50.200000C7.900000,50.200000,11.200000,50.200000,14.500000,50.200000C14.500000,50.200000,14.500000,50.200000,14.500000,50.200000L45.600000,50.200000C45.600000,50.200000,45.600000,50.200000,45.600000,50.200000C48.900000,50.200000,52.200000,50.200000,55.500000,50.200000C56.400000,50.200000,57.100000,49.500000,57.100000,48.600000C57.100000,37.500000,57.100000,26.300000,57.100000,15.200000C39,15.200000,21,15.200000,3,15.200000ZM53.800000,47C52.200000,47,50.600000,47,49,47L49,47L11.600000,47L11.600000,47C9.800000,47,7.900000,47,6.100000,47C6.100000,37.500000,6.100000,27.900000,6.100000,18.400000C22,18.400000,37.900000,18.400000,53.800000,18.400000C53.800000,27.900000,53.800000,37.400000,53.800000,47Z" clip-rule="evenodd" fill="rgb(86,0,227)" fill-rule="evenodd" stroke="none" stroke-width="1"/><g id="edCzxIJskth6_to" transform="translate(30.049998,38.500000)"><g id="edCzxIJskth6_tr" transform="rotate(0)"><g id="edCzxIJskth6_ts" transform="scale(1,1)"><g id="edCzxIJskth6" transform="translate(-30.049998,-38.500000)"><path id="edCzxIJskth7" d="M24.300000,57.800000L24.300000,54C24.300000,53.600000,24.300000,53.300000,24.200000,53.200000C24.200000,53.100000,24,53,24,53C24,53,23.900000,53,23.900000,53C23.900000,53,23.700000,53,23.600000,53.100000C23.500000,53.200000,23.300000,53.400000,23.100000,53.600000C23,53.700000,23,53.700000,22.900000,53.800000L21,56.700000L14.800000,50.500000L14.600000,50.400000L14.400000,50.100000L12.400000,48.100000L14.400000,45.900000C14.500000,45.800000,14.800000,45.500000,14.800000,45.500000L14.900000,45.400000C15.100000,45.200000,15.300000,45,15.400000,44.900000C15.500000,44.800000,15.500000,44.700000,15.400000,44.400000C15.400000,44.400000,15.300000,44.300000,15.200000,44.200000C15.200000,44.200000,15.200000,44.200000,15.200000,44.200000C15.200000,44.200000,15.100000,44.200000,14.800000,44.200000L13.800000,44.200000L10.600000,44.200000L10.700000,41C10.700000,40.900000,10.700000,40.800000,10.700000,40.600000L10.700000,32.600000L13.800000,32.600000C14,32.600000,14.700000,32.600000,14.700000,32.600000C14.800000,32.600000,14.900000,32.600000,15,32.600000C15.200000,32.600000,15.300000,32.500000,15.500000,32.400000C15.500000,32.400000,15.600000,32.200000,15.500000,32.100000C15.500000,32.100000,15.400000,32,15.100000,31.600000L12.400000,28.900000L14.800000,26.500000L20.400000,20.900000L22.900000,23.100000C22.900000,23.100000,23.400000,23.600000,23.600000,23.700000C23.700000,23.800000,23.800000,23.900000,24,23.900000C24.100000,23.900000,24.300000,23.800000,24.300000,23.800000C24.400000,23.700000,24.400000,23.600000,24.400000,23.400000L24.400000,19.200000L35.900000,19.200000L35.900000,23C35.900000,23.500000,35.900000,23.700000,36,23.700000C36,23.800000,36.200000,23.900000,36.200000,23.900000C36.200000,23.900000,36.300000,23.900000,36.300000,23.900000C36.400000,23.900000,36.500000,23.900000,36.700000,23.700000C36.900000,23.600000,37,23.400000,37.200000,23.200000L37.600000,22.800000L39.800000,20.600000L42,22.700000C42.600000,23.300000,43.200000,23.900000,43.800000,24.500000C44.500000,25.200000,45.100000,25.800000,45.800000,26.500000L48.100000,28.800000L45.700000,31L45.300000,31.400000C45.100000,31.500000,44.900000,31.800000,44.800000,31.900000C44.700000,32,44.800000,32.200000,44.800000,32.300000C44.900000,32.400000,45,32.500000,45.100000,32.600000C45.100000,32.600000,45.100000,32.600000,45.100000,32.600000C45.100000,32.600000,45.200000,32.600000,45.400000,32.600000L46,32.600000C46.300000,32.600000,46.600000,32.600000,46.800000,32.600000L49.500000,32.900000L49.500000,44.100000L46.400000,44C46.200000,44,46,44,45.800000,44C45.600000,44,45.400000,44,45.200000,44C45.100000,44,45,44,44.800000,44.200000C44.700000,44.300000,44.700000,44.400000,44.700000,44.600000C44.700000,44.600000,44.800000,44.800000,45,45L45.400000,45.400000L45.500000,45.500000L45.800000,45.800000L47.900000,48L45.600000,50.100000L41.800000,54L39.600000,56.100000L37.400000,54C37.400000,54,36.800000,53.400000,36.700000,53.300000C36.400000,53,36.300000,53,36.200000,53C36.100000,53,36,53.100000,35.900000,53.100000C35.800000,53.200000,35.800000,53.400000,35.800000,53.500000L35.800000,57.700000L24.300000,57.700000ZM30,35.300000C29.400000,35.300000,28.900000,35.400000,28.400000,35.700000C27.300000,36.400000,26.700000,37.700000,26.900000,39.100000C27.200000,40.500000,28.500000,41.600000,30,41.600000C31.300000,41.600000,32.500000,40.700000,33,39.400000C33.400000,38.200000,33,36.800000,32.100000,36C31.500000,35.600000,30.800000,35.300000,30,35.300000Z" clip-rule="evenodd" fill="rgb(255,255,255)" fill-rule="evenodd" stroke="none" stroke-width="1"/><path id="edCzxIJskth8" d="M20.500000,51.800000C20.400000,51.800000,20.400000,51.800000,20.500000,51.800000C20.400000,51.800000,20.400000,51.800000,20.500000,51.800000C20.900000,51.400000,21.200000,51,21.600000,50.700000C22.500000,50,23.500000,49.700000,24.600000,50C25.500000,50.200000,26.400000,50.900000,26.800000,51.700000C27.200000,52.400000,27.200000,53.100000,27.200000,53.900000C27.200000,54.100000,27.200000,54.400000,27.200000,54.600000C27.300000,54.600000,27.500000,54.600000,27.600000,54.600000C29.200000,54.600000,30.800000,54.600000,32.500000,54.600000C32.500000,54.600000,32.600000,54.600000,32.600000,54.600000C32.600000,54.500000,32.600000,54.300000,32.600000,54.200000C32.600000,53.900000,32.600000,53.700000,32.600000,53.400000C32.600000,52.500000,32.900000,51.600000,33.600000,50.900000C34.200000,50.200000,35.200000,49.800000,36.200000,49.800000C37.100000,49.800000,38,50.200000,38.600000,50.900000C38.800000,51.100000,39,51.300000,39.200000,51.500000C39.300000,51.600000,39.400000,51.700000,39.500000,51.800000C39.500000,51.800000,39.600000,51.700000,39.600000,51.700000C40.400000,50.900000,41.200000,50.100000,41.900000,49.400000C42.300000,49,42.600000,48.700000,43,48.300000C43.100000,48.200000,43.200000,48.100000,43.300000,48C43.300000,48,43.300000,48,43.200000,47.900000C43,47.700000,42.800000,47.500000,42.600000,47.300000C42.200000,46.900000,41.800000,46.400000,41.600000,45.900000C41.500000,45.700000,41.500000,45.500000,41.400000,45.300000C41,43.200000,42.600000,41.200000,44.800000,41.100000C45.200000,41.100000,45.600000,41.100000,46.100000,41.100000C46.100000,39.300000,46.100000,37.500000,46.100000,35.700000C46,35.700000,45.800000,35.700000,45.700000,35.700000C45.100000,35.700000,44.400000,35.700000,43.800000,35.600000C41.700000,34.900000,40.800000,32.600000,41.800000,30.600000C42.100000,30,42.600000,29.600000,43.100000,29.100000C43.200000,29,43.300000,28.900000,43.400000,28.900000C42.100000,27.600000,40.900000,26.300000,39.600000,25.100000C39.200000,25.500000,38.900000,25.800000,38.500000,26.200000C37.600000,26.900000,36.600000,27.200000,35.500000,27C34.600000,26.800000,33.700000,26.200000,33.200000,25.400000C32.800000,24.700000,32.700000,24,32.700000,23.200000C32.700000,22.900000,32.700000,22.700000,32.700000,22.400000C32.600000,22.400000,32.400000,22.400000,32.300000,22.400000C30.700000,22.400000,29.100000,22.400000,27.400000,22.400000C27.400000,22.400000,27.300000,22.400000,27.300000,22.400000C27.300000,22.500000,27.300000,22.600000,27.300000,22.700000C27.300000,23,27.300000,23.300000,27.300000,23.600000C27.300000,24.500000,27,25.400000,26.400000,26.100000C25.800000,26.800000,24.800000,27.200000,23.800000,27.200000C22.900000,27.200000,22,26.800000,21.300000,26.100000C21.100000,25.900000,20.900000,25.700000,20.700000,25.500000C20.700000,25.500000,20.500000,25.300000,20.400000,25.200000C20.400000,25.200000,20.400000,25.200000,20.300000,25.300000C20,25.600000,19.600000,26,19.300000,26.300000C18.500000,27.100000,17.700000,27.900000,16.800000,28.800000C16.700000,28.900000,16.600000,29,16.500000,29.100000C16.700000,29.300000,16.900000,29.500000,17.100000,29.700000C17.700000,30.300000,18.100000,30.800000,18.300000,31.600000C18.500000,32.500000,18.400000,33.600000,17.800000,34.400000C17.200000,35.300000,16.200000,35.900000,15.100000,36C14.600000,36,14.100000,36,13.600000,36C13.600000,36.300000,13.600000,36.700000,13.600000,37.100000C13.600000,38.300000,13.600000,39.500000,13.600000,40.700000C13.600000,41,13.600000,41.200000,13.600000,41.400000C13.700000,41.400000,13.800000,41.400000,13.900000,41.400000C14.500000,41.400000,15.200000,41.400000,15.900000,41.500000C16.800000,41.800000,17.700000,42.400000,18.100000,43.300000C18.500000,44.200000,18.600000,45.200000,18.200000,46.100000C18.200000,46.200000,18.100000,46.300000,18.100000,46.400000C17.800000,47,17.300000,47.400000,16.900000,47.900000C16.800000,48,16.700000,48.100000,16.600000,48.200000C16.600000,48.200000,16.700000,48.300000,16.700000,48.300000C16.800000,48.400000,17,48.600000,17.100000,48.700000C17.900000,49.500000,18.800000,50.400000,19.600000,51.200000C20,51.300000,20.200000,51.600000,20.500000,51.800000M26.800000,33.100000C29.100000,31.700000,32,32,34,33.700000C35.900000,35.300000,36.700000,38.200000,35.900000,40.500000C35,42.900000,32.700000,44.600000,30.100000,44.600000C30.100000,44.600000,30.100000,44.600000,30.100000,44.600000C27.200000,44.600000,24.600000,42.500000,24.100000,39.600000C23.400000,37.100000,24.600000,34.500000,26.800000,33.100000Z" clip-rule="evenodd" fill="rgb(45,255,179)" fill-rule="evenodd" stroke="none" stroke-width="1"/></g></g></g></g></g></g><g id="edCzxIJskth9" display="none" transform="matrix(1 0 0 1 -0.00099945490793 -3.58600044053896)"><path id="edCzxIJskth10" d="M57.030000,15.047000C57.030000,12.397000,57.030000,9.747000,57.030000,7.097000C57.030000,6.223000,56.314000,5.507000,55.440000,5.507000C38.479000,5.511000,21.521000,5.507000,4.562000,5.507000C3.687000,5.507000,2.972000,6.223000,2.972000,7.097000C2.972000,9.747000,2.972000,12.397000,2.972000,15.047000C20.991000,15.047000,39.010000,15.047000,57.030000,15.047000M8.537000,8.687000C9.411000,8.687000,10.127000,9.402000,10.127000,10.277000C10.127000,11.151000,9.411000,11.867000,8.537000,11.867000C7.663000,11.867000,6.948000,11.151000,6.948000,10.277000C6.947000,9.402000,7.662000,8.687000,8.537000,8.687000M14.102000,8.687000C14.977000,8.687000,15.692000,9.402000,15.692000,10.277000C15.691000,11.151000,14.977000,11.867000,14.102000,11.867000C13.228000,11.867000,12.511000,11.152000,12.511000,10.277000C12.511000,9.402000,13.227000,8.687000,14.102000,8.687000M19.666000,8.687000C20.541000,8.687000,21.257000,9.402000,21.257000,10.277000C21.257000,11.152000,20.540000,11.867000,19.666000,11.867000C18.792000,11.867000,18.077000,11.151000,18.077000,10.277000C18.076000,9.402000,18.791000,8.687000,19.666000,8.687000Z" fill="rgb(86,0,227)" fill-rule="evenodd" stroke="none" stroke-width="1"/><path id="edCzxIJskth11" d="M20.612000,54.858000C20.607000,54.863000,20.602000,54.868000,20.597000,54.874000C20.601000,54.868000,20.606000,54.863000,20.612000,54.858000C20.979000,54.493000,21.321000,54.095000,21.725000,53.777000C22.592000,53.093000,23.634000,52.832000,24.714000,53.078000C25.620000,53.285000,26.479000,53.929000,26.917000,54.755000C27.291000,55.455000,27.337000,56.178000,27.337000,56.950000C27.337000,57.188000,27.337000,57.427000,27.337000,57.665000C27.480000,57.665000,27.624000,57.665000,27.766000,57.665000C29.359000,57.665000,30.952000,57.665000,32.545000,57.665000C32.576000,57.665000,32.617000,57.665000,32.648000,57.665000C32.648000,57.546000,32.648000,57.418000,32.648000,57.290000C32.648000,57.020000,32.648000,56.751000,32.648000,56.480000C32.656000,55.566000,32.958000,54.707000,33.594000,54.048000C34.229000,53.363000,35.216000,52.959000,36.154000,52.990000C37.084000,53.022000,37.903000,53.411000,38.556000,54.055000C38.754000,54.246000,38.944000,54.445000,39.143000,54.644000C39.222000,54.724000,39.302000,54.803000,39.389000,54.890000C39.421000,54.858000,39.462000,54.819000,39.494000,54.787000C40.258000,54.025000,41.035000,53.245000,41.797000,52.482000C42.164000,52.116000,42.529000,51.749000,42.895000,51.384000C42.975000,51.304000,43.055000,51.218000,43.142000,51.138000C43.126000,51.122000,43.102000,51.090000,43.078000,51.074000C42.864000,50.859000,42.665000,50.661000,42.451000,50.446000C42.045000,50.041000,41.688000,49.580000,41.473000,49.063000C41.401000,48.880000,41.345000,48.690000,41.313000,48.491000C40.947000,46.377000,42.514000,44.437000,44.676000,44.405000C45.089000,44.397000,45.510000,44.397000,45.932000,44.405000C45.932000,42.637000,45.931000,40.870000,45.932000,39.102000C45.813000,39.087000,45.678000,39.087000,45.542000,39.087000C44.923000,39.086000,44.271000,39.133000,43.667000,38.943000C41.640000,38.284000,40.692000,35.954000,41.662000,34.062000C41.949000,33.489000,42.466000,33.053000,42.919000,32.608000C42.998000,32.528000,43.078000,32.449000,43.165000,32.369000C41.902000,31.129000,40.669000,29.857000,39.413000,28.617000C39.064000,28.967000,38.729000,29.348000,38.348000,29.666000C37.489000,30.374000,36.464000,30.636000,35.367000,30.429000C34.444000,30.246000,33.595000,29.610000,33.134000,28.807000C32.736000,28.116000,32.680000,27.385000,32.680000,26.614000C32.680000,26.351000,32.680000,26.097000,32.680000,25.834000C32.553000,25.834000,32.426000,25.834000,32.291000,25.834000C30.695000,25.834000,29.100000,25.834000,27.505000,25.834000C27.457000,25.834000,27.417000,25.834000,27.369000,25.834000C27.369000,25.937000,27.369000,26.041000,27.369000,26.145000C27.369000,26.423000,27.369000,26.709000,27.369000,26.987000C27.369000,27.910000,27.067000,28.744000,26.447000,29.428000C25.819000,30.120000,24.858000,30.517000,23.928000,30.517000C22.997000,30.517000,22.139000,30.119000,21.479000,29.467000C21.289000,29.284000,21.105000,29.094000,20.915000,28.903000C20.899000,28.887000,20.739000,28.752000,20.612000,28.633000C20.588000,28.657000,20.565000,28.680000,20.541000,28.704000C20.223000,29.022000,19.897000,29.348000,19.579000,29.666000C18.768000,30.477000,17.958000,31.288000,17.146000,32.099000C17.059000,32.186000,16.963000,32.282000,16.869000,32.377000C17.059000,32.568000,17.250000,32.759000,17.440000,32.949000C17.981000,33.490000,18.466000,34.054000,18.657000,34.818000C18.887000,35.740000,18.736000,36.781000,18.195000,37.576000C17.568000,38.482000,16.638000,39.023000,15.533000,39.102000C15.056000,39.142000,14.563000,39.110000,14.078000,39.110000C14.078000,39.452000,14.078000,39.802000,14.078000,40.144000C14.078000,41.317000,14.078000,42.491000,14.078000,43.665000C14.078000,43.912000,14.086000,44.158000,14.078000,44.397000C14.173000,44.397000,14.261000,44.397000,14.356000,44.397000C14.992000,44.397000,15.659000,44.350000,16.280000,44.524000C17.186000,44.786000,18.013000,45.455000,18.403000,46.321000C18.808000,47.219000,18.855000,48.149000,18.514000,49.047000C18.474000,49.151000,18.435000,49.262000,18.379000,49.357000C18.100000,49.930000,17.607000,50.374000,17.155000,50.812000C17.059000,50.915000,16.956000,51.011000,16.860000,51.114000C16.908000,51.162000,16.940000,51.217000,16.963000,51.233000C17.106000,51.377000,17.241000,51.512000,17.385000,51.655000C18.220000,52.489000,19.054000,53.325000,19.881000,54.160000C20.120000,54.398000,20.358000,54.635000,20.597000,54.874000M26.876000,36.503000C29.102000,35.159000,31.949000,35.437000,33.944000,37.060000C35.860000,38.633000,36.638000,41.439000,35.764000,43.784000C34.866000,46.192000,32.609000,47.822000,30.025000,47.847000C29.993000,47.847000,29.993000,47.847000,29.977000,47.847000C27.131000,47.799000,24.556000,45.772000,24.031000,42.957000C23.554000,40.430000,24.659000,37.838000,26.876000,36.503000Z" fill="rgb(45,255,179)" fill-rule="evenodd" stroke="none" stroke-width="1"/></g></svg>