<svg id="eChVYb1ena51" xmlns="http://www.w3.org/2000/svg" xmlns:xlink="http://www.w3.org/1999/xlink" viewBox="0 0 83 80" shape-rendering="geometricPrecision" text-rendering="geometricPrecision"><style><![CDATA[#eChVYb1ena51{pointer-events: all}#eChVYb1ena51.hover #eChVYb1ena54_to {animation: eChVYb1ena54_to__to 4500ms linear infinite normal forwards}@keyframes eChVYb1ena54_to__to { 0% {transform: translate(57.048311px,17.450001px)} 11.111111% {transform: translate(16.314799px,32.838224px)} 22.222222% {transform: translate(16.314799px,32.838224px)} 33.333333% {transform: translate(20.298743px,61.131105px)} 44.444444% {transform: translate(20.298743px,61.131105px)} 55.555556% {transform: translate(49.079468px,55.015491px)} 66.666667% {transform: translate(49.079468px,55.015491px)} 77.777778% {transform: translate(57.048311px,17.450001px)} 100% {transform: translate(57.048311px,17.450001px)}} #eChVYb1ena51.hover #eChVYb1ena54_tr {animation: eChVYb1ena54_tr__tr 4500ms linear infinite normal forwards}@keyframes eChVYb1ena54_tr__tr { 0% {transform: rotate(0deg)} 11.111111% {transform: rotate(-96deg)} 22.222222% {transform: rotate(-96deg)} 33.333333% {transform: rotate(-186deg)} 44.444444% {transform: rotate(-186deg)} 55.555556% {transform: rotate(-276deg)} 66.666667% {transform: rotate(-276deg)} 77.777778% {transform: rotate(-359.600000deg)} 100% {transform: rotate(-359.600000deg)}} #eChVYb1ena51.hover #eChVYb1ena54_ts {animation: eChVYb1ena54_ts__ts 4500ms linear infinite normal forwards}@keyframes eChVYb1ena54_ts__ts { 0% {transform: scale(1,1)} 4.444444% {transform: scale(0.495242,0.495242)} 11.111111% {transform: scale(1,1)} 22.222222% {transform: scale(1,1)} 26.666667% {transform: scale(0.495242,0.495242)} 33.333333% {transform: scale(1,1)} 44.444444% {transform: scale(1,1)} 48.888889% {transform: scale(0.495242,0.495242)} 55.555556% {transform: scale(1,1)} 66.666667% {transform: scale(1,1)} 71.111111% {transform: scale(0.495242,0.495242)} 77.777778% {transform: scale(1,1)} 100% {transform: scale(1,1)}} #eChVYb1ena51.hover #eChVYb1ena54 {animation: eChVYb1ena54_f_p 4500ms linear infinite normal forwards}@keyframes eChVYb1ena54_f_p { 0% {fill: rgb(45,255,179)} 11.111111% {fill: rgb(86,0,227)} 66.666667% {fill: rgb(86,0,227)} 77.777778% {fill: rgb(45,255,179)} 100% {fill: rgb(45,255,179)}} #eChVYb1ena51.hover #eChVYb1ena55_to {animation: eChVYb1ena55_to__to 4500ms linear infinite normal forwards}@keyframes eChVYb1ena55_to__to { 0% {transform: translate(49.350000px,54.477243px)} 11.111111% {transform: translate(57.048640px,16.353234px)} 22.222222% {transform: translate(57.048640px,16.353234px)} 33.333333% {transform: translate(16.314799px,32.838224px)} 44.444444% {transform: translate(16.314799px,32.838224px)} 55.555556% {transform: translate(20.298743px,61.131105px)} 66.666667% {transform: translate(20.298743px,61.131105px)} 77.777778% {transform: translate(49.350000px,54.477243px)} 100% {transform: translate(49.350000px,54.477243px)}} #eChVYb1ena51.hover #eChVYb1ena55_tr {animation: eChVYb1ena55_tr__tr 4500ms linear infinite normal forwards}@keyframes eChVYb1ena55_tr__tr { 0% {transform: rotate(0deg)} 11.111111% {transform: rotate(-85deg)} 22.222222% {transform: rotate(-85deg)} 33.333333% {transform: rotate(-180deg)} 44.444444% {transform: rotate(-180deg)} 55.555556% {transform: rotate(-270deg)} 66.666667% {transform: rotate(-270deg)} 77.777778% {transform: rotate(-359.600000deg)} 100% {transform: rotate(-359.600000deg)}} #eChVYb1ena51.hover #eChVYb1ena55_ts {animation: eChVYb1ena55_ts__ts 4500ms linear infinite normal forwards}@keyframes eChVYb1ena55_ts__ts { 0% {transform: scale(1,1)} 4.444444% {transform: scale(0.566870,0.566870)} 11.111111% {transform: scale(1,1)} 22.222222% {transform: scale(1,1)} 26.666667% {transform: scale(0.566870,0.566870)} 33.333333% {transform: scale(1,1)} 44.444444% {transform: scale(1,1)} 48.888889% {transform: scale(0.566870,0.566870)} 55.555556% {transform: scale(1,1)} 66.666667% {transform: scale(1,1)} 71.111111% {transform: scale(0.566870,0.566870)} 77.777778% {transform: scale(1,1)} 100% {transform: scale(1,1)}} #eChVYb1ena51.hover #eChVYb1ena55 {animation: eChVYb1ena55_f_p 4500ms linear infinite normal forwards}@keyframes eChVYb1ena55_f_p { 0% {fill: rgb(86,0,227)} 11.111111% {fill: rgb(45,255,179)} 22.222222% {fill: rgb(45,255,179)} 33.333333% {fill: rgb(86,0,227)} 100% {fill: rgb(86,0,227)}} #eChVYb1ena51.hover #eChVYb1ena56_to {animation: eChVYb1ena56_to__to 4500ms linear infinite normal forwards}@keyframes eChVYb1ena56_to__to { 0% {transform: translate(21.072863px,61.750401px)} 11.111111% {transform: translate(49.350000px,54.477243px)} 22.222222% {transform: translate(49.350000px,54.477243px)} 33.333333% {transform: translate(57.048773px,16.353249px)} 44.444444% {transform: translate(57.048773px,16.353249px)} 55.555556% {transform: translate(16.314799px,32.838224px)} 66.666667% {transform: translate(16.314799px,32.838224px)} 77.777778% {transform: translate(21.072863px,61.750401px)} 100% {transform: translate(21.072863px,61.750401px)}} #eChVYb1ena51.hover #eChVYb1ena56_tr {animation: eChVYb1ena56_tr__tr 4500ms linear infinite normal forwards}@keyframes eChVYb1ena56_tr__tr { 0% {transform: rotate(0deg)} 11.111111% {transform: rotate(-90deg)} 22.222222% {transform: rotate(-90deg)} 33.333333% {transform: rotate(-176deg)} 44.444444% {transform: rotate(-176deg)} 55.555556% {transform: rotate(-270deg)} 66.666667% {transform: rotate(-270deg)} 77.777778% {transform: rotate(-359.600000deg)} 100% {transform: rotate(-359.600000deg)}} #eChVYb1ena51.hover #eChVYb1ena56_ts {animation: eChVYb1ena56_ts__ts 4500ms linear infinite normal forwards}@keyframes eChVYb1ena56_ts__ts { 0% {transform: scale(1,1)} 4.444444% {transform: scale(0.485828,0.485828)} 11.111111% {transform: scale(1,1)} 22.222222% {transform: scale(1,1)} 26.666667% {transform: scale(0.485828,0.485828)} 33.333333% {transform: scale(1,1)} 44.444444% {transform: scale(1,1)} 48.888889% {transform: scale(0.485828,0.485828)} 55.555556% {transform: scale(1,1)} 66.666667% {transform: scale(1,1)} 71.111111% {transform: scale(0.485828,0.485828)} 77.777778% {transform: scale(1,1)} 100% {transform: scale(1,1)}} #eChVYb1ena51.hover #eChVYb1ena56 {animation: eChVYb1ena56_f_p 4500ms linear infinite normal forwards}@keyframes eChVYb1ena56_f_p { 0% {fill: rgb(86,0,227)} 11.111111% {fill: rgb(86,0,227)} 22.222222% {fill: rgb(86,0,227)} 33.333333% {fill: rgb(45,255,179)} 44.444444% {fill: rgb(45,255,179)} 55.555556% {fill: rgb(86,0,227)} 66.666667% {fill: rgb(86,0,227)} 100% {fill: rgb(86,0,227)}} #eChVYb1ena51.hover #eChVYb1ena57_to {animation: eChVYb1ena57_to__to 4500ms linear infinite normal forwards}@keyframes eChVYb1ena57_to__to { 0% {transform: translate(15.750000px,33.572462px)} 11.111111% {transform: translate(21.072863px,61.750401px)} 22.222222% {transform: translate(21.072863px,61.750401px)} 33.333333% {transform: translate(49.806401px,54.377249px)} 44.444444% {transform: translate(49.806401px,54.377249px)} 55.555556% {transform: translate(57.048773px,16.353249px)} 66.666667% {transform: translate(57.048773px,16.353249px)} 77.777778% {transform: translate(15.750000px,33.572462px)} 100% {transform: translate(15.750000px,33.572462px)}} #eChVYb1ena51.hover #eChVYb1ena57_tr {animation: eChVYb1ena57_tr__tr 4500ms linear infinite normal forwards}@keyframes eChVYb1ena57_tr__tr { 0% {transform: rotate(0deg)} 11.111111% {transform: rotate(-90deg)} 22.222222% {transform: rotate(-90deg)} 33.333333% {transform: rotate(-180deg)} 44.444444% {transform: rotate(-180deg)} 55.555556% {transform: rotate(-266deg)} 66.666667% {transform: rotate(-266deg)} 77.777778% {transform: rotate(-359.600000deg)} 100% {transform: rotate(-359.600000deg)}} #eChVYb1ena51.hover #eChVYb1ena57_ts {animation: eChVYb1ena57_ts__ts 4500ms linear infinite normal forwards}@keyframes eChVYb1ena57_ts__ts { 0% {transform: scale(1,1)} 4.444444% {transform: scale(0.541712,0.541712)} 11.111111% {transform: scale(1,1)} 22.222222% {transform: scale(1,1)} 26.666667% {transform: scale(0.541712,0.541712)} 33.333333% {transform: scale(1,1)} 44.444444% {transform: scale(1,1)} 48.888889% {transform: scale(0.541712,0.541712)} 55.555556% {transform: scale(1,1)} 66.666667% {transform: scale(1,1)} 71.111111% {transform: scale(0.541712,0.541712)} 77.777778% {transform: scale(1,1)} 100% {transform: scale(1,1)}} #eChVYb1ena51.hover #eChVYb1ena57 {animation: eChVYb1ena57_f_p 4500ms linear infinite normal forwards}@keyframes eChVYb1ena57_f_p { 0% {fill: rgb(86,0,227)} 33.333333% {fill: rgb(86,0,227)} 44.444444% {fill: rgb(86,0,227)} 55.555556% {fill: rgb(45,255,179)} 66.666667% {fill: rgb(45,255,179)} 77.777778% {fill: rgb(86,0,227)} 100% {fill: rgb(86,0,227)}}]]></style><defs><rect id="eChVYb1ena52" width="78.700000" height="75.700000" rx="0" ry="0"/></defs><g id="eChVYb1ena53" transform="matrix(1 0 0 1 2.14014435000000 2.19979858500000)"><g id="eChVYb1ena54_to" transform="translate(57.048311,17.450001)"><g id="eChVYb1ena54_tr" transform="rotate(0)"><g id="eChVYb1ena54_ts" transform="scale(1,1)"><path id="eChVYb1ena54" d="M75.800000,3.100000L47.600000,0L46.400000,11.500000C45.200000,11.200000,44.100000,10.700000,43,10.200000C42.100000,9.900000,41,9.700000,40,9.800000C38.100000,10,36.400000,11.400000,35.700000,13.300000C34.500000,16.700000,36.800000,20,40.100000,20.400000C40.600000,20.500000,41.200000,20.400000,41.700000,20.300000C42.900000,20,44.200000,19.900000,45.400000,19.800000L44.200000,31.300000L51,32.100000C50.900000,31.500000,50.900000,26.900000,55.300000,24C61,20.600000,68.200000,23.900000,69,30.500000C69.100000,31.700000,69.100000,33.200000,68.800000,34.200000L75.600000,35L78.700000,6.800000C78.900000,4.900000,77.600000,3.200000,75.800000,3.100000Z" transform="translate(-57.048906,-17.499998)" fill="rgb(45,255,179)" stroke="none" stroke-width="1"/></g></g></g><g id="eChVYb1ena55_to" transform="translate(49.350000,54.477243)"><g id="eChVYb1ena55_tr" transform="rotate(0)"><g id="eChVYb1ena55_ts" transform="scale(1,1)"><path id="eChVYb1ena55" d="M54.300000,40.600200C54.600000,39.700200,54.600000,38.600200,54.400000,37.500200C53.900000,35.700200,52.400000,34.200200,50.500000,33.800200C47.100000,33.000200,44,35.600200,44,38.900200C44,39.500200,44.100000,40.000200,44.300000,40.500200C44.600000,41.700200,45,42.800200,45.200000,44.100200L35.500000,44.100200L35.500000,50.800200C35.900000,50.700200,36.400000,50.700200,36.900000,50.700200C39.700000,50.700200,42.300000,52.000200,44.100000,54.100200C45.800000,56.300200,46.500000,59.200200,45.800000,61.900200C45,65.100200,42.500000,67.700200,39.200000,68.500200C38.400000,68.700200,37.600000,68.800200,36.900000,68.800200C36.500000,68.800200,36,68.800200,35.500000,68.700200L35.500000,75.300200L60,75.300200C61.800000,75.300200,63.200000,73.800200,63.200000,72.100200L63.200000,44.100200L53.500000,44.100200C53.600000,42.900200,54,41.700200,54.300000,40.600200Z" transform="translate(-49.350000,-54.477243)" fill="rgb(86,0,227)" stroke="none" stroke-width="1"/></g></g></g><g id="eChVYb1ena56_to" transform="translate(21.072863,61.750401)"><g id="eChVYb1ena56_tr" transform="rotate(0)"><g id="eChVYb1ena56_ts" transform="scale(1,1)"><path id="eChVYb1ena56" d="M38.200000,65.000400C40,64.500400,41.600000,63.000400,42,61.200400C42.800000,57.800400,40.200000,54.600400,36.800000,54.600400C36.200000,54.600400,35.700000,54.700400,35.200000,54.900400C34,55.200400,32.900000,55.600400,31.600000,55.800400L31.600000,48.000400L24.900000,48.000400C25,48.400400,25,48.900400,25,49.400400C25,54.500400,20.900000,58.500400,15.900000,58.500400C15.200000,58.500400,14.400000,58.400400,13.700000,58.200400C10.400000,57.400400,7.800000,54.800400,7,51.600400C6.700000,50.400400,6.700000,49.100400,6.800000,47.900400L0,47.900400L0,72.400400C0,74.200400,1.500000,75.600400,3.200000,75.600400L31.600000,75.600400L31.600000,64.000400C32.800000,64.200400,34,64.500400,35.100000,64.900400C36,65.200400,37.200000,65.300400,38.200000,65.000400Z" transform="translate(-21.072863,-61.750401)" fill="rgb(86,0,227)" stroke="none" stroke-width="1"/></g></g></g><g id="eChVYb1ena57_to" transform="translate(15.750000,33.572462)"><g id="eChVYb1ena57_tr" transform="rotate(0)"><g id="eChVYb1ena57_ts" transform="scale(1,1)"><path id="eChVYb1ena57" d="M31.500000,12.600000L3.200000,12.600000C1.400000,12.600000,0,14,0,15.700000L0,44.100000L11.600000,44.100000C11.400000,45.300000,11.100000,46.400000,10.700000,47.600000C10.400000,48.500000,10.400000,49.500000,10.600000,50.600000C11,52.500000,12.600000,54,14.500000,54.400000C17.900000,55.200000,21.100000,52.600000,21.100000,49.200000C21.100000,48.600000,21,48.100000,20.800000,47.600000C20.500000,46.400000,20.100000,45.200000,19.900000,44L31.500000,44L31.500000,37.500000C30.600000,37.700000,27.500000,37.700000,25.100000,36.200000C19.900000,32.800000,18.300000,23,27.800000,19.600000C28.900000,19.300000,29.900000,19.300000,31.500000,19.400000L31.500000,12.600000Z" transform="translate(-15.750002,-33.572863)" fill="rgb(86,0,227)" stroke="none" stroke-width="1"/></g></g></g></g><g id="eChVYb1ena58" display="none" transform="matrix(1 0 0 1 2.13984680000000 1.20000076500000)"><path id="eChVYb1ena59" d="M54.300000,40.600000C54.600000,39.700000,54.600000,38.600000,54.400000,37.500000C53.900000,35.700000,52.400000,34.200000,50.500000,33.800000C47.100000,33,44,35.600000,44,38.900000C44,39.500000,44.100000,40,44.300000,40.500000C44.600000,41.700000,45,42.800000,45.200000,44.100000L35.500000,44.100000L35.500000,50.800000C35.900000,50.700000,36.400000,50.700000,36.900000,50.700000C39.700000,50.700000,42.300000,52,44.100000,54.100000C45.800000,56.300000,46.500000,59.200000,45.800000,61.900000C45,65.100000,42.500000,67.700000,39.200000,68.500000C38.400000,68.700000,37.600000,68.800000,36.900000,68.800000C36.500000,68.800000,36,68.800000,35.500000,68.700000L35.500000,75.300000L60,75.300000C61.800000,75.300000,63.200000,73.800000,63.200000,72.100000L63.200000,44.100000L53.500000,44.100000C53.600000,42.900000,54,41.700000,54.300000,40.600000Z" fill="rgb(86,0,227)" stroke="none" stroke-width="1"/><path id="eChVYb1ena510" d="M38.200000,65C40,64.500000,41.600000,63,42,61.200000C42.800000,57.800000,40.200000,54.600000,36.800000,54.600000C36.200000,54.600000,35.700000,54.700000,35.200000,54.900000C34,55.200000,32.900000,55.600000,31.600000,55.800000L31.600000,48L24.900000,48C25,48.400000,25,48.900000,25,49.400000C25,54.500000,20.900000,58.500000,15.900000,58.500000C15.200000,58.500000,14.400000,58.400000,13.700000,58.200000C10.400000,57.400000,7.800000,54.800000,7,51.600000C6.700000,50.400000,6.700000,49.100000,6.800000,47.900000L0,47.900000L0,72.400000C0,74.200000,1.500000,75.600000,3.200000,75.600000L31.600000,75.600000L31.600000,64C32.800000,64.200000,34,64.500000,35.100000,64.900000C36,65.200000,37.200000,65.300000,38.200000,65Z" fill="rgb(86,0,227)" stroke="none" stroke-width="1"/><path id="eChVYb1ena511" d="" fill="rgb(86,0,227)" stroke="none" stroke-width="1"/></g></svg>