<?xml version="1.0" encoding="utf-8"?>
<!-- Generator: Moho 13.0.2 build 610 -->
<!DOCTYPE svg PUBLIC "-//W3C//DTD SVG 1.1//EN" "http://www.w3.org/Graphics/SVG/1.1/DTD/svg11.dtd">
<svg version="1.1" id="Frame_0" xmlns="http://www.w3.org/2000/svg" xmlns:xlink="http://www.w3.org/1999/xlink" width="40px" height="40px">
<g id="icon-description.svg">
<path fill="#2dffb3" fill-rule="evenodd" stroke="none" d="M 29.102 20.750 C 29.102 20.751 29.102 20.753 29.102 20.754 C 29.102 20.339 28.768 20.004 28.357 20.004 C 22.785 20.004 17.214 20.004 11.643 20.004 C 11.275 20.030 10.983 20.326 10.953 20.694 C 10.919 21.110 11.232 21.470 11.643 21.500 C 17.214 21.500 22.785 21.500 28.357 21.500 C 28.768 21.500 29.102 21.166 29.102 20.754 M 10.953 16.079 C 10.919 15.663 11.232 15.303 11.643 15.273 C 17.214 15.273 22.785 15.273 28.357 15.273 C 28.725 15.303 29.021 15.595 29.047 15.963 C 29.077 16.375 28.768 16.735 28.357 16.769 C 22.785 16.769 17.214 16.769 11.643 16.769 C 11.275 16.739 10.979 16.447 10.953 16.079 M 31.297 12.702 C 31.297 11.991 30.722 11.416 30.011 11.416 C 23.328 11.416 16.646 11.416 9.963 11.416 C 9.252 11.416 8.678 11.991 8.678 12.702 C 8.678 16.559 8.678 20.416 8.678 24.273 C 8.678 24.984 9.252 25.558 9.963 25.558 C 14.350 25.558 18.737 25.558 23.124 25.558 C 23.131 25.558 23.138 25.558 23.146 25.558 C 24.809 26.524 26.474 27.489 28.138 28.455 C 28.490 28.665 28.944 28.545 29.154 28.194 C 29.222 28.078 29.257 27.945 29.257 27.808 C 29.256 27.058 29.256 26.308 29.257 25.558 C 29.513 25.558 29.771 25.558 30.028 25.558 C 30.739 25.558 31.314 24.984 31.314 24.273 C 31.308 20.416 31.302 16.559 31.297 12.702 Z"/>
<path fill="#5600e3" fill-rule="evenodd" stroke="none" d="M 11.643 16.769 C 17.214 16.769 22.785 16.769 28.357 16.769 C 28.768 16.739 29.081 16.379 29.047 15.964 C 29.017 15.595 28.725 15.299 28.357 15.274 C 22.785 15.273 17.214 15.273 11.643 15.274 C 11.232 15.304 10.919 15.664 10.954 16.079 C 10.979 16.448 11.275 16.739 11.643 16.769 Z"/>
<path fill="#5600e3" fill-rule="evenodd" stroke="none" d="M 31.314 24.273 C 31.314 24.984 30.739 25.558 30.028 25.558 C 29.771 25.558 29.513 25.558 29.257 25.558 C 29.256 26.308 29.256 27.058 29.257 27.808 C 29.257 27.945 29.222 28.078 29.154 28.194 C 28.944 28.545 28.490 28.665 28.138 28.455 C 26.474 27.489 24.809 26.524 23.146 25.558 C 23.138 25.558 23.131 25.558 23.124 25.558 C 18.737 25.558 14.350 25.558 9.964 25.558 C 9.252 25.558 8.678 24.984 8.678 24.273 C 8.678 20.415 8.678 16.559 8.678 12.702 C 8.678 11.990 9.252 11.416 9.964 11.416 C 16.646 11.416 23.328 11.416 30.011 11.416 C 30.722 11.416 31.297 11.990 31.297 12.702 C 31.302 16.559 31.308 20.415 31.314 24.273 M 38.209 6.917 C 38.200 4.084 35.903 1.791 33.071 1.787 C 24.357 1.787 15.643 1.787 6.929 1.787 C 4.088 1.787 1.787 4.088 1.787 6.929 C 1.787 15.643 1.787 24.357 1.787 33.071 C 1.787 35.912 4.088 38.213 6.929 38.213 C 15.643 38.213 24.357 38.213 33.071 38.213 C 35.912 38.213 38.213 35.912 38.213 33.071 C 38.213 24.357 38.213 15.643 38.213 6.929 C 38.211 6.925 38.210 6.921 38.209 6.917 Z"/>
<path fill="#5600e3" fill-rule="evenodd" stroke="none" d="M 28.357 20.005 C 22.785 20.005 17.214 20.005 11.644 20.005 C 11.275 20.035 10.979 20.326 10.954 20.695 C 10.924 21.106 11.232 21.466 11.644 21.500 C 17.214 21.500 22.785 21.500 28.357 21.500 C 28.768 21.500 29.102 21.166 29.102 20.755 C 29.102 20.753 29.102 20.752 29.102 20.750 C 29.102 20.339 28.768 20.005 28.357 20.005 Z"/>
</g>
</svg>
