<svg id="eVx9Kp62tCF1" xmlns="http://www.w3.org/2000/svg" xmlns:xlink="http://www.w3.org/1999/xlink" viewBox="0 0 50 60" shape-rendering="geometricPrecision" text-rendering="geometricPrecision"><style><![CDATA[#eVx9Kp62tCF3_ts {animation: eVx9Kp62tCF3_ts__ts 4000ms linear infinite normal forwards}@keyframes eVx9Kp62tCF3_ts__ts { 0% {transform: translate(25px,30.039949px) scale(1,1)} 50% {transform: translate(25px,30.039949px) scale(0.900000,0.900000)} 100% {transform: translate(25px,30.039949px) scale(1,1)}} #eVx9Kp62tCF5_tr {animation: eVx9Kp62tCF5_tr__tr 4000ms linear infinite normal forwards}@keyframes eVx9Kp62tCF5_tr__tr { 0% {transform: translate(25px,19.570351px) rotate(0deg)} 30% {transform: translate(25px,19.570351px) rotate(10deg)} 65% {transform: translate(25px,19.570351px) rotate(-10deg)} 100% {transform: translate(25px,19.570351px) rotate(0deg)}}]]></style><g id="eVx9Kp62tCF2" clip-path="url(#eVx9Kp62tCF8)"><g id="eVx9Kp62tCF3_ts" transform="translate(25,30.039949) scale(1,1)"><g id="eVx9Kp62tCF3" transform="translate(-25,-30.039949)"><path id="eVx9Kp62tCF4" d="M30.451700,42.281200L19.385400,42.281200C10.580900,42.281200,3.472660,48.724200,3.472660,56.697400L3.472660,58.791300C3.472660,59.516100,4.038080,60.079900,4.765060,60.079900L45.233600,60.079900C45.960500,60.079900,46.526000,59.516100,46.526000,58.791300L46.526000,56.697400C46.445200,48.724200,39.256200,42.281200,30.451700,42.281200Z" fill="rgb(86,0,227)" stroke="none" stroke-width="1"/><g id="eVx9Kp62tCF5_tr" transform="translate(25,19.570351) rotate(0)"><g id="eVx9Kp62tCF5" transform="translate(-25,-19.570351)"><path id="eVx9Kp62tCF6" d="M45.234200,17.396000L45.234200,16.107400C45.234200,7.248320,36.672100,0,26.252000,0L23.586400,0C13.166400,0,4.604200,7.248320,4.604200,16.187900L4.604200,17.476500C1.938610,18.201300,0,20.375800,0,23.114100C0,25.288600,1.292410,27.140900,3.150240,28.107400L3.150240,28.268500C3.150240,30.926200,5.492730,33.100700,8.319870,33.100700L20.678500,33.100700C21.405500,34.469800,22.940200,35.436200,24.636500,35.436200C27.059800,35.436200,29.079200,33.583900,29.079200,31.328900C29.079200,29.073800,27.059800,27.221500,24.636500,27.221500C22.455600,27.221500,20.678500,28.671100,20.274600,30.604000L8.319870,30.604000C7.108240,30.604000,6.058160,29.879200,5.735060,28.912800C5.977380,28.912800,6.138930,28.993300,6.381260,28.993300L7.512120,28.993300C8.239090,28.993300,8.804520,28.429500,8.804520,27.704700L8.804520,18.443000C8.804520,17.718100,8.239090,17.154400,7.512120,17.154400L7.108240,17.154400L7.108240,16.107400C7.108240,8.536910,14.458800,2.416110,23.586400,2.416110L26.252000,2.416110C35.298900,2.416110,42.730200,8.536910,42.730200,16.107400L42.730200,17.154400L42.487900,17.154400C41.760900,17.154400,41.195500,17.718100,41.195500,18.443000L41.195500,27.624200C41.195500,28.349000,41.760900,28.912800,42.487900,28.912800L43.618700,28.912800C47.092100,28.912800,50,26.255000,50,23.033600C50,20.375800,47.980600,18.120800,45.234200,17.396000Z" fill="rgb(45,255,179)" stroke="none" stroke-width="1"/><path id="eVx9Kp62tCF7" d="M24.718200,37.852100C22.618000,37.852100,20.679400,36.966200,19.467700,35.516500L16.721400,35.516500C19.063900,37.691000,21.891000,39.140700,24.960500,39.140700C33.522700,39.140700,39.984700,28.026600,39.984700,20.778200C39.903900,13.368900,33.199600,7.248050,24.879700,7.248050C16.640600,7.248050,9.855470,13.368900,9.855470,20.858800C9.855470,23.033300,10.420900,25.529900,11.471000,28.026600L18.579200,28.026600C19.790800,26.013100,22.052600,24.644000,24.637400,24.644000C28.433800,24.644000,31.584100,27.623900,31.584100,31.248000C31.664800,34.872200,28.514600,37.852100,24.718200,37.852100Z" fill="rgb(86,0,227)" stroke="none" stroke-width="1"/></g></g></g></g><clipPath id="eVx9Kp62tCF8"><rect id="eVx9Kp62tCF9" width="50" height="60" rx="0" ry="0" fill="rgb(255,255,255)" stroke="none" stroke-width="1"/></clipPath></g></svg>