<?xml version="1.0" encoding="utf-8"?>
<!-- Generator: Moho 13.0.2 build 610 -->
<!DOCTYPE svg PUBLIC "-//W3C//DTD SVG 1.1//EN" "http://www.w3.org/Graphics/SVG/1.1/DTD/svg11.dtd">
<svg version="1.1" id="Frame_0" xmlns="http://www.w3.org/2000/svg" xmlns:xlink="http://www.w3.org/1999/xlink" width="60px" height="60px">
<g id="Frame.svg">
<path fill="#2dffb3" fill-rule="evenodd" stroke="none" d="M 29.961 54.629 C 26.290 54.629 22.620 54.629 18.933 54.629 C 17.153 54.629 16.470 53.930 16.470 52.103 C 16.470 49.004 16.454 49.068 16.470 45.969 C 16.502 39.995 20.697 35.625 26.417 35.625 C 28.864 35.625 31.311 35.625 33.758 35.625 C 39.208 35.657 43.419 40.011 43.467 45.715 C 43.499 48.941 43.483 49.004 43.467 52.230 C 43.467 53.882 42.736 54.613 41.147 54.613 C 37.445 54.629 33.711 54.629 29.961 54.629 Z"/>
<path fill="#5600e3" fill-rule="evenodd" stroke="none" d="M 18.567 23.532 C 18.091 26.949 18.853 29.936 20.681 32.733 C 15.596 35.402 12.895 39.692 12.577 45.699 C 10.670 45.699 8.811 45.699 6.952 45.699 C 6.253 45.699 5.538 45.730 4.839 45.683 C 3.838 45.619 3.011 44.888 3.011 43.887 C 3.027 39.835 2.837 35.752 3.234 31.716 C 3.663 27.282 7.651 23.755 11.957 23.548 C 14.118 23.453 16.279 23.532 18.567 23.532 Z"/>
<path fill="#5600e3" fill-rule="evenodd" stroke="none" d="M 39.351 32.780 C 41.560 28.236 41.719 27.568 41.464 23.612 C 41.655 23.580 41.862 23.517 42.052 23.517 C 44.340 23.548 46.676 23.374 48.917 23.691 C 53.652 24.390 56.957 28.585 56.989 33.606 C 57.005 36.832 57.005 40.074 56.989 43.299 C 56.989 44.904 56.274 45.683 54.764 45.699 C 52.587 45.714 50.410 45.714 48.249 45.714 C 47.979 45.714 47.709 45.667 47.391 45.651 C 47.073 39.756 44.436 35.450 39.351 32.780 Z"/>
<path fill="#2dffb3" fill-rule="evenodd" stroke="none" d="M 29.944 33.607 C 25.702 33.591 22.270 29.968 22.270 25.519 C 22.270 21.086 25.734 17.479 29.976 17.479 C 34.266 17.479 37.730 21.118 37.699 25.615 C 37.683 30.032 34.203 33.623 29.944 33.607 Z"/>
<path fill="#5600e3" fill-rule="evenodd" stroke="none" d="M 43.483 21.499 C 39.240 21.499 35.744 17.844 35.776 13.443 C 35.808 8.946 39.240 5.371 43.546 5.371 C 47.757 5.371 51.221 9.041 51.205 13.475 C 51.189 17.924 47.725 21.515 43.483 21.499 Z"/>
<path fill="#5600e3" fill-rule="evenodd" stroke="none" d="M 8.779 13.411 C 8.795 8.962 12.243 5.371 16.501 5.371 C 20.792 5.371 24.224 8.978 24.208 13.506 C 24.208 17.876 20.712 21.499 16.533 21.499 C 12.211 21.499 8.763 17.908 8.779 13.411 Z"/>
</g>
</svg>
