<svg id="eTzYuQkNp3E1" xmlns="http://www.w3.org/2000/svg" xmlns:xlink="http://www.w3.org/1999/xlink" viewBox="0 0 60 60" shape-rendering="geometricPrecision" text-rendering="geometricPrecision"><style><![CDATA[#eTzYuQkNp3E1{pointer-events: all}#eTzYuQkNp3E1.hover #eTzYuQkNp3E2_to {animation: eTzYuQkNp3E2_to__to 3000ms linear 1 normal forwards}@keyframes eTzYuQkNp3E2_to__to { 0% {transform: translate(44.000309px,30px);animation-timing-function: step-end} 3.333333% {transform: translate(11.397180px,52.873400px)} 13.333333% {transform: translate(11.397180px,52.873400px)} 20% {transform: translate(44.115868px,29.394578px)} 26.666667% {transform: translate(43.996772px,29.990058px)} 50% {transform: translate(43.996772px,29.990058px)} 53.333333% {transform: translate(43.996772px,29.990058px)} 56.666667% {transform: translate(43.996772px,29.990058px)} 63.333333% {transform: translate(43.996772px,29.990058px)} 100% {transform: translate(43.996772px,29.990058px)}} #eTzYuQkNp3E1.hover #eTzYuQkNp3E2_ts {animation: eTzYuQkNp3E2_ts__ts 3000ms linear 1 normal forwards}@keyframes eTzYuQkNp3E2_ts__ts { 0% {transform: scale(1,1);animation-timing-function: step-end} 3.333333% {transform: scale(0.067639,0.067639)} 13.333333% {transform: scale(0.211286,0.211286)} 20% {transform: scale(1.132340,1.132340)} 26.666667% {transform: scale(0.999909,0.999909)} 50% {transform: scale(0.999909,0.999909)} 53.333333% {transform: scale(0.799110,0.799110)} 56.666667% {transform: scale(1.043900,1.043900)} 63.333333% {transform: scale(0.999871,0.999871)} 100% {transform: scale(0.999871,0.999871)}} #eTzYuQkNp3E1.hover #eTzYuQkNp3E3_to {animation: eTzYuQkNp3E3_to__to 3000ms linear 1 normal forwards}@keyframes eTzYuQkNp3E3_to__to { 0% {transform: translate(20.749998px,24.500002px);animation-timing-function: step-end} 3.333333% {transform: translate(32.038333px,31.988021px);animation-timing-function: step-end} 30% {transform: translate(32.038333px,31.988021px)} 36.666667% {transform: translate(20.758090px,24.058904px)} 43.333333% {transform: translate(20.743777px,24.493021px)} 100% {transform: translate(20.743777px,24.493021px)}} #eTzYuQkNp3E1.hover #eTzYuQkNp3E3_ts {animation: eTzYuQkNp3E3_ts__ts 3000ms linear 1 normal forwards}@keyframes eTzYuQkNp3E3_ts__ts { 0% {transform: scale(1,1);animation-timing-function: step-end} 3.333333% {transform: scale(0.059042,0.059042);animation-timing-function: step-end} 30% {transform: scale(0.059042,0.059042)} 36.666667% {transform: scale(1.072580,1.072580)} 43.333333% {transform: scale(1.000178,1.000178)} 100% {transform: scale(1.000178,1.000178)}}]]></style><g id="eTzYuQkNp3E2_to" transform="translate(44.000309,30)"><g id="eTzYuQkNp3E2_ts" transform="scale(1,1)"><g id="eTzYuQkNp3E2" transform="translate(-41.500000,-24.500000)"><g id="eTzYuQkNp3E3_to" transform="translate(20.749998,24.500002)"><g id="eTzYuQkNp3E3_ts" transform="scale(1,1)"><path id="eTzYuQkNp3E3" d="M18.100000,26.200000C18.905804,26.039176,19.727980,26.387577,20.172896,27.078399C20.617811,27.769220,20.594923,28.661876,20.115188,29.328988C19.635454,29.996100,18.796503,30.301908,18,30.100000L9,30.100000C8.075323,29.944130,7.383094,29.166745,7.335069,28.230253C7.287044,27.293761,7.896118,26.449643,8.800000,26.200000L18.100000,26.200000M16.700000,35.400000C17.610016,35.607395,18.255590,36.416650,18.255590,37.350000C18.255590,38.283350,17.610016,39.092605,16.700000,39.300000L9,39.300000C8.198160,39.482741,7.366192,39.156010,6.902991,38.476462C6.439790,37.796913,6.439790,36.903087,6.902991,36.223538C7.366192,35.543990,8.198160,35.217259,9,35.400000L16.700000,35.400000M7,9.600000C6.994834,8.569044,7.774197,7.703084,8.800000,7.600000L32.600000,7.600000C33.119476,7.578313,33.625539,7.768229,34.002486,8.126330C34.379434,8.484431,34.595037,8.980095,34.600000,9.500000C34.600000,10.604569,33.704569,11.500000,32.600000,11.500000L8.900000,11.500000C8.396089,11.500000,7.912816,11.299822,7.556497,10.943503C7.200178,10.587184,7,10.103911,7,9.600000M26.400000,16.900000C27.310016,17.107395,27.955590,17.916650,27.955590,18.850000C27.955590,19.783350,27.310016,20.592605,26.400000,20.800000L9,20.800000C8.089984,20.592605,7.444410,19.783350,7.444410,18.850000C7.444410,17.916650,8.089984,17.107395,9,16.900000L26.400000,16.900000M41.500000,37.400000C40.200000,38.700000,38.900000,39.900000,37.600000,41.200000C36.586714,42.157454,35.286505,42.754847,33.900000,42.900000C32.100000,43,30.200000,43.200000,28.400000,43.300000C26.697796,43.409979,25.030668,42.781631,23.824518,41.575482C22.618369,40.369332,21.990021,38.702204,22.100000,37C22.200000,35.200000,22.400000,33.300000,22.500000,31.500000C22.600891,30.101747,23.204801,28.787355,24.200000,27.800000C29.900000,22,35.700000,16.300000,41.400000,10.600000L41.400000,2C41.401334,0.933333,40.565334,0.053333,39.500000,0L2,0C0.895431,0,0,0.895431,0,2L0,47C-0.001334,48.066667,0.834666,48.946667,1.900000,49L39.400000,49C40.466667,49.001334,41.346667,48.165334,41.400000,47.100000C41.500000,43.800000,41.500000,40.600000,41.500000,37.400000Z" transform="translate(-20.749998,-24.500002)" fill="rgb(86,0,227)" fill-rule="evenodd" stroke="none" stroke-width="1"/></g></g><g id="eTzYuQkNp3E4"><path id="eTzYuQkNp3E5" d="M27,30.600000C26.664393,30.956853,26.453821,31.413092,26.400000,31.900000C26.300000,33.700000,26.100000,35.600000,26,37.400000C25.953077,37.918743,26.117815,38.434430,26.456787,38.829897C26.795759,39.225364,27.280183,39.467034,27.800000,39.500000L28.100000,39.500000C29.900000,39.400000,31.800000,39.200000,33.600000,39.100000C34.093985,39.073072,34.559021,38.858440,34.900000,38.500000L49.300000,24.100000C46.700000,21.500000,44.100000,18.800000,41.500000,16.200000C36.600000,21,31.800000,25.800000,27,30.600000Z" fill="rgb(45,255,179)" fill-rule="evenodd" stroke="none" stroke-width="1"/><path id="eTzYuQkNp3E6" d="M54.400000,16.100000C52.700000,14.400000,51,12.700000,49.200000,11C48.843488,10.604951,48.331941,10.385716,47.800000,10.400000C47.296684,10.385713,46.815669,10.607720,46.500000,11C45.700000,11.800000,44.800000,12.600000,44,13.400000C46.600000,16,49.200000,18.700000,51.900000,21.300000L54.400000,18.800000C54.781628,18.454947,54.999385,17.964492,54.999385,17.450000C54.999385,16.935508,54.781628,16.445053,54.400000,16.100000Z" fill="rgb(45,255,179)" fill-rule="evenodd" stroke="none" stroke-width="1"/></g></g></g></g></svg>
