<svg id="eemjT10FUEQ1" xmlns="http://www.w3.org/2000/svg" xmlns:xlink="http://www.w3.org/1999/xlink" viewBox="0 0 50 50" shape-rendering="geometricPrecision" text-rendering="geometricPrecision"><style><![CDATA[#eemjT10FUEQ1{pointer-events: all}#eemjT10FUEQ1.hover #eemjT10FUEQ7_ts {animation: eemjT10FUEQ7_ts__ts 4000ms linear infinite normal forwards}@keyframes eemjT10FUEQ7_ts__ts { 0% {transform: translate(30.782432px,23.433499px) scale(0.994998,1)} 22.500000% {transform: translate(30.782432px,23.433499px) scale(0.994998,1)} 27.500000% {transform: translate(30.782432px,23.433499px) scale(1.037023,0.838634)} 32.500000% {transform: translate(30.782432px,23.433499px) scale(0.934516,1.161367)} 37.500000% {transform: translate(30.782432px,23.433499px) scale(0.994998,1)} 100% {transform: translate(30.782432px,23.433499px) scale(0.994998,1)}} #eemjT10FUEQ1.hover #eemjT10FUEQ8_ts {animation: eemjT10FUEQ8_ts__ts 4000ms linear infinite normal forwards}@keyframes eemjT10FUEQ8_ts__ts { 0% {transform: translate(30.719500px,30.464125px) scale(0.994998,1)} 50% {transform: translate(30.719500px,30.464125px) scale(0.994998,1)} 55% {transform: translate(30.719500px,30.464125px) scale(1.037023,0.838634)} 60% {transform: translate(30.719500px,30.464125px) scale(0.934516,1.161367)} 65% {transform: translate(30.719500px,30.464125px) scale(0.994998,1)} 100% {transform: translate(30.719500px,30.464125px) scale(0.994998,1)}} #eemjT10FUEQ1.hover #eemjT10FUEQ9_ts {animation: eemjT10FUEQ9_ts__ts 4000ms linear infinite normal forwards}@keyframes eemjT10FUEQ9_ts__ts { 0% {transform: translate(30.719500px,37.495125px) scale(0.994998,1)} 76% {transform: translate(30.719500px,37.495125px) scale(0.994998,1)} 81% {transform: translate(30.719500px,37.495125px) scale(1.037023,0.838634)} 86% {transform: translate(30.719500px,37.495125px) scale(0.934516,1.161367)} 91% {transform: translate(30.719500px,37.495125px) scale(0.994998,1)} 100% {transform: translate(30.719500px,37.495125px) scale(0.994998,1)}} #eemjT10FUEQ1.hover #eemjT10FUEQ11_to {animation: eemjT10FUEQ11_to__to 4000ms linear infinite normal forwards}@keyframes eemjT10FUEQ11_to__to { 0% {transform: translate(42.589001px,41.399000px)} 10% {transform: translate(42.589001px,41.399000px)} 22.500000% {transform: translate(43.301971px,27.876423px)} 35% {transform: translate(43.301971px,27.876423px)} 100% {transform: translate(42.589001px,41.399000px)}} #eemjT10FUEQ1.hover #eemjT10FUEQ11_ts {animation: eemjT10FUEQ11_ts__ts 4000ms linear infinite normal forwards}@keyframes eemjT10FUEQ11_ts__ts { 0% {transform: scale(1,1)} 10% {transform: scale(1,1)} 22.500000% {transform: scale(0.556548,0.556548)} 82.500000% {transform: scale(0.556548,0.556548)} 100% {transform: scale(1,1)}}]]></style><g id="eemjT10FUEQ2"><g id="eemjT10FUEQ3"><path id="eemjT10FUEQ4" d="M12.891000,16.570000C12.894000,16.570000,46.945000,16.570000,46.945000,16.570000C46.945000,16.570000,46.945000,41.008000,46.945000,41.008000C46.945000,43.694000,44.763000,45.875000,42.077000,45.875000C42.077000,45.875000,12.891000,45.875000,12.891000,45.875000C12.891000,45.875000,12.891000,16.573000,12.891000,16.570000Z" fill="rgb(86,0,227)" fill-rule="evenodd" stroke="none" stroke-width="1"/><path id="eemjT10FUEQ5" d="M22.708000,8.282000C22.681000,9.110000,22.007000,9.748000,21.175000,9.734000C20.357000,9.720000,19.689000,9.035000,19.697000,8.218000C19.705000,7.408000,20.396000,6.722000,21.206000,6.719000C22.047000,6.717000,22.737000,7.434000,22.708000,8.282000M16.647000,8.232000C16.647000,9.064000,15.997000,9.721000,15.171000,9.728000C14.306000,9.736000,13.658000,9.071000,13.674000,8.194000C13.689000,7.363000,14.354000,6.710000,15.175000,6.721000C15.995000,6.732000,16.648000,7.402000,16.647000,8.232000M10.624000,8.261000C10.606000,9.076000,9.926000,9.736000,9.104000,9.735000C8.282000,9.734000,7.629000,9.075000,7.620000,8.240000C7.611000,7.405000,8.259000,6.734000,9.086000,6.726000C9.925000,6.717000,10.641000,7.432000,10.624000,8.261000M46.887000,7.657000C47.019000,5.102000,45.103000,2.599000,41.884000,2.630000C35.101000,2.696000,29.379000,2.647000,22.595000,2.646000C17.145000,2.646000,11.695000,2.641000,6.244000,2.649000C3.817000,2.653000,1.720000,4.384000,1.590000,6.696000C1.460000,9.020000,1.562000,11.356000,1.562000,13.739000C17.057000,13.739000,31.409000,13.739000,46.866000,13.739000C46.866000,11.672000,46.784000,9.660000,46.887000,7.657000Z" fill="rgb(45,255,179)" fill-rule="evenodd" stroke="none" stroke-width="1"/><path id="eemjT10FUEQ6" d="M10.370000,16.381000C7.544000,16.397000,4.717000,16.389000,1.813000,16.389000C1.794000,16.578000,1.774000,16.688000,1.774000,16.799000C1.773000,25.028000,1.763000,33.256000,1.782000,41.485000C1.785000,43.218000,3.142000,45.002000,4.788000,45.499000C5.373000,45.677000,6.001000,45.768000,6.612000,45.787000C8.004000,45.829000,9.397000,45.800000,10.857000,45.800000C10.857000,45.448000,10.857000,45.199000,10.857000,44.949000C10.858000,37.206000,10.861000,29.463000,10.862000,21.720000C10.862000,20.148000,10.855000,18.576000,10.859000,17.004000C10.859000,16.657000,10.865000,16.379000,10.370000,16.381000Z" fill="rgb(86,0,227)" fill-rule="evenodd" stroke="none" stroke-width="1"/><g id="eemjT10FUEQ7_ts" transform="translate(30.782432,23.433499) scale(0.994998,1)"><path id="eemjT10FUEQ7" d="M41.162000,25.143000C34.200000,25.143000,27.239000,25.143000,20.277000,25.143000C19.342000,25.143000,18.576000,24.374000,18.576000,23.433000C18.576000,22.493000,19.341000,21.724000,20.277000,21.724000C27.239000,21.723000,34.200000,21.723000,41.162000,21.724000C42.097000,21.724000,42.863000,22.493000,42.863000,23.433000C42.863000,24.374000,42.097000,25.143000,41.162000,25.143000Z" transform="translate(-30.719500,-23.433499)" fill="rgb(255,255,255)" fill-rule="evenodd" stroke="none" stroke-width="1"/></g><g id="eemjT10FUEQ8_ts" transform="translate(30.719500,30.464125) scale(0.994998,1)"><path id="eemjT10FUEQ8" d="M41.162000,32.174000C34.200000,32.174000,27.239000,32.174000,20.277000,32.174000C19.342000,32.174000,18.576000,31.405000,18.576000,30.464000C18.576000,29.524000,19.341000,28.755000,20.277000,28.755000C27.239000,28.754000,34.200000,28.754000,41.162000,28.755000C42.097000,28.755000,42.863000,29.524000,42.863000,30.464000C42.863000,31.405000,42.097000,32.174000,41.162000,32.174000Z" transform="translate(-30.719500,-30.464125)" fill="rgb(255,255,255)" fill-rule="evenodd" stroke="none" stroke-width="1"/></g><g id="eemjT10FUEQ9_ts" transform="translate(30.719500,37.495125) scale(0.994998,1)"><path id="eemjT10FUEQ9" d="M41.162000,39.205000C34.200000,39.205000,27.239000,39.205000,20.277000,39.205000C19.342000,39.205000,18.576000,38.436000,18.576000,37.495000C18.576000,36.555000,19.341000,35.786000,20.277000,35.786000C27.239000,35.785000,34.200000,35.785000,41.162000,35.786000C42.097000,35.786000,42.863000,36.555000,42.863000,37.495000C42.863000,38.436000,42.097000,39.205000,41.162000,39.205000Z" transform="translate(-30.719500,-37.495125)" fill="rgb(255,255,255)" fill-rule="evenodd" stroke="none" stroke-width="1"/></g><path id="eemjT10FUEQ10" d="M12.891000,45.875000C12.891000,45.875000,12.891000,16.573000,12.891000,16.570000C12.894000,16.570000,46.945000,16.570000,46.945000,16.570000C46.945000,16.570000,46.945000,41.008000,46.945000,41.008000C46.945000,43.694000,44.763000,45.875000,42.077000,45.875000C42.077000,45.875000,12.891000,45.875000,12.891000,45.875000" fill="none" stroke="rgb(0,0,0)" stroke-width="0" stroke-linecap="round" stroke-linejoin="round"/></g><g id="eemjT10FUEQ11_to" transform="translate(42.589001,41.399000)"><g id="eemjT10FUEQ11_ts" transform="scale(1,1)"><g id="eemjT10FUEQ11" transform="translate(-42.589001,-41.399000)"><path id="eemjT10FUEQ12" d="M49.042000,42.206000C44.739000,39.275000,40.437000,36.345000,36.136000,33.416000C36.888000,38.566000,37.640000,43.716000,38.393000,48.867000C39.382000,47.597000,40.371000,46.328000,41.360000,45.059000C42.261000,46.499000,43.163000,47.940000,44.064000,49.382000C45.050000,48.765000,46.037000,48.148000,47.023000,47.531000C46.122000,46.090000,45.220000,44.648000,44.319000,43.208000C45.893000,42.873000,47.467000,42.539000,49.042000,42.206000Z" fill="rgb(255,255,255)" fill-rule="evenodd" stroke="rgb(255,255,255)" stroke-width="4" stroke-linecap="round" stroke-linejoin="round"/><path id="eemjT10FUEQ13" d="M49.042000,42.206000C44.739000,39.275000,40.437000,36.345000,36.136000,33.416000C36.888000,38.566000,37.640000,43.716000,38.393000,48.867000C39.382000,47.597000,40.371000,46.328000,41.360000,45.059000C42.261000,46.499000,43.163000,47.940000,44.064000,49.382000C45.050000,48.765000,46.037000,48.148000,47.023000,47.531000C46.122000,46.090000,45.220000,44.648000,44.319000,43.208000C45.893000,42.873000,47.467000,42.539000,49.042000,42.206000Z" fill="rgb(86,0,227)" fill-rule="evenodd" stroke="none" stroke-width="1"/></g></g></g></g></svg>