<?xml version="1.0" encoding="utf-8"?>
<!-- Generator: Moho 13.0.2 build 610 -->
<!DOCTYPE svg PUBLIC "-//W3C//DTD SVG 1.1//EN" "http://www.w3.org/Graphics/SVG/1.1/DTD/svg11.dtd">
<svg version="1.1" id="Frame_0" xmlns="http://www.w3.org/2000/svg" xmlns:xlink="http://www.w3.org/1999/xlink" width="60px" height="60px">
<path fill="#5600e3" fill-rule="evenodd" stroke="none" d="M 33.213 8.002 C 33.213 20.225 33.213 32.447 33.213 44.670 C 33.213 46.248 31.937 47.511 30.341 47.511 C 23.350 47.511 16.359 47.511 9.368 47.511 C 7.818 47.511 6.541 46.339 6.495 44.850 C 6.495 32.567 6.495 20.285 6.495 8.002 C 6.495 7.100 7.179 6.424 8.091 6.424 C 8.669 6.424 9.246 6.424 9.824 6.424 C 10.143 6.424 10.462 6.604 10.599 6.920 C 11.328 8.453 12.879 9.536 14.702 9.536 C 18.137 9.536 21.572 9.536 25.006 9.536 C 26.830 9.536 28.426 8.453 29.110 6.920 C 29.247 6.604 29.566 6.424 29.885 6.424 C 30.462 6.424 31.040 6.424 31.617 6.424 C 32.484 6.424 33.213 7.145 33.213 8.002 M 36.359 8.002 C 36.359 5.386 34.216 3.266 31.617 3.266 C 23.775 3.266 15.933 3.266 8.091 3.266 C 5.447 3.266 3.304 5.386 3.304 8.002 C 3.304 22.810 3.304 37.619 3.304 52.427 C 3.304 54.908 5.356 56.937 7.863 56.937 C 15.842 56.937 23.821 56.937 31.800 56.937 C 34.307 56.937 36.359 54.908 36.359 52.427 C 36.359 37.619 36.359 22.810 36.359 8.002 Z"/>
<path fill="#f9fbfc" fill-rule="evenodd" stroke="none" d="M 19.854 53.825 C 20.720 53.825 21.450 53.104 21.450 52.247 C 21.450 51.390 20.720 50.668 19.854 50.668 C 18.988 50.668 18.258 51.390 18.258 52.247 C 18.258 53.104 18.942 53.825 19.854 53.825 Z"/>
<path fill="#2dffb3" fill-rule="evenodd" stroke="none" d="M 54.597 41.558 C 44.034 41.557 33.472 41.557 22.910 41.558 C 21.177 41.558 19.718 40.160 19.718 38.401 C 19.718 31.831 19.718 25.261 19.718 18.691 C 19.718 16.977 21.131 15.534 22.910 15.534 C 33.472 15.534 44.034 15.534 54.597 15.534 C 56.329 15.534 57.789 16.932 57.789 18.691 C 57.788 25.261 57.788 31.831 57.789 38.401 C 57.789 40.115 56.375 41.558 54.597 41.558 Z"/>
<path fill="#5600e3" fill-rule="evenodd" stroke="none" d="M 28.517 27.576 C 28.228 27.576 27.939 27.576 27.651 27.576 C 26.785 27.576 26.055 26.855 26.055 25.998 C 26.055 25.141 26.785 24.419 27.651 24.419 C 27.939 24.419 28.228 24.419 28.517 24.419 C 29.383 24.419 30.113 25.141 30.113 25.998 C 30.113 26.900 29.383 27.576 28.517 27.576 Z"/>
<path fill="#5600e3" fill-rule="evenodd" stroke="none" d="M 43.153 35.469 C 37.985 35.469 32.818 35.469 27.651 35.469 C 26.785 35.469 26.055 34.747 26.055 33.891 C 26.055 33.034 26.785 32.312 27.651 32.312 C 32.803 32.312 37.955 32.312 43.107 32.312 C 43.973 32.312 44.703 33.034 44.703 33.891 C 44.703 34.747 44.019 35.469 43.153 35.469 Z"/>
<path fill="#5600e3" fill-rule="evenodd" stroke="none" d="M 35.721 27.576 C 35.432 27.576 35.143 27.576 34.855 27.576 C 33.988 27.576 33.259 26.855 33.259 25.998 C 33.259 25.141 33.988 24.419 34.855 24.419 C 35.143 24.419 35.432 24.419 35.721 24.419 C 36.587 24.419 37.317 25.141 37.317 25.998 C 37.317 26.900 36.587 27.576 35.721 27.576 Z"/>
<path fill="#5600e3" fill-rule="evenodd" stroke="none" d="M 42.925 27.576 C 42.635 27.576 42.347 27.576 42.058 27.576 C 41.192 27.576 40.462 26.855 40.462 25.998 C 40.462 25.141 41.192 24.419 42.058 24.419 C 42.347 24.419 42.635 24.419 42.925 24.419 C 43.791 24.419 44.520 25.141 44.520 25.998 C 44.520 26.900 43.836 27.576 42.925 27.576 Z"/>
<path fill="#5600e3" fill-rule="evenodd" stroke="none" d="M 50.128 27.576 C 49.839 27.576 49.550 27.576 49.262 27.576 C 48.396 27.576 47.666 26.855 47.666 25.998 C 47.666 25.141 48.396 24.419 49.262 24.419 C 49.550 24.419 49.839 24.419 50.128 24.419 C 50.994 24.419 51.724 25.141 51.724 25.998 C 51.724 26.900 51.040 27.576 50.128 27.576 Z"/>
<path fill="#5600e3" fill-rule="evenodd" stroke="none" d="M 10.283 -75.537 C 8.061 -75.537 5.840 -75.537 3.618 -75.537 C 2.459 -75.537 1.548 -76.501 1.548 -77.634 C 1.548 -80.947 1.548 -84.259 1.548 -87.571 C 1.548 -88.745 2.500 -89.668 3.618 -89.668 C 5.840 -89.668 8.061 -89.668 10.283 -89.668 C 11.442 -89.668 12.353 -88.703 12.353 -87.571 C 12.353 -84.259 12.353 -80.947 12.353 -77.634 C 12.353 -76.501 11.442 -75.537 10.283 -75.537 Z"/>
<path fill="#5600e3" fill-rule="evenodd" stroke="none" d="M 24.233 -75.537 C 22.011 -75.537 19.790 -75.537 17.568 -75.537 C 16.409 -75.537 15.499 -76.501 15.499 -77.634 C 15.499 -83.113 15.499 -88.592 15.499 -94.071 C 15.499 -95.245 16.451 -96.167 17.568 -96.167 C 19.790 -96.168 22.011 -96.168 24.233 -96.167 C 25.392 -96.167 26.303 -95.203 26.303 -94.071 C 26.303 -88.592 26.303 -83.113 26.303 -77.634 C 26.303 -76.501 25.392 -75.537 24.233 -75.537 Z"/>
<path fill="#5600e3" fill-rule="evenodd" stroke="none" d="M 38.184 -75.537 C 35.948 -75.538 33.713 -75.538 31.478 -75.537 C 30.319 -75.537 29.408 -76.501 29.408 -77.634 C 29.408 -85.657 29.408 -93.680 29.408 -101.702 C 29.408 -102.876 30.360 -103.799 31.478 -103.799 C 33.699 -103.799 35.921 -103.799 38.143 -103.799 C 39.302 -103.799 40.212 -102.834 40.212 -101.702 C 40.212 -93.680 40.212 -85.657 40.212 -77.634 C 40.254 -76.501 39.302 -75.537 38.184 -75.537 Z"/>
<path fill="#2dffb3" fill-rule="evenodd" stroke="none" d="M 57.930 -107.615 C 59.296 -107.615 59.876 -108.579 59.172 -109.795 C 58.067 -111.738 56.964 -113.681 55.860 -115.624 C 55.198 -116.840 54.080 -118.769 53.377 -119.985 C 52.272 -121.927 51.168 -123.870 50.065 -125.813 C 49.402 -127.029 48.285 -127.029 47.581 -125.813 C 46.477 -123.870 45.373 -121.927 44.269 -119.985 C 43.607 -118.769 42.489 -116.840 41.786 -115.624 C 40.681 -113.681 39.577 -111.738 38.474 -109.795 C 37.812 -108.579 38.350 -107.615 39.716 -107.615 C 40.129 -107.615 40.543 -107.615 40.958 -107.615 C 42.324 -107.615 43.441 -106.483 43.441 -105.099 C 43.441 -96.783 43.441 -88.466 43.441 -80.149 C 43.441 -78.766 43.648 -77.172 43.897 -76.585 C 44.145 -75.998 46.629 -75.537 47.995 -75.537 C 48.560 -75.537 49.126 -75.537 49.692 -75.537 C 51.058 -75.537 52.631 -75.747 53.211 -75.998 C 53.790 -76.250 54.246 -78.766 54.246 -80.149 C 54.245 -88.466 54.245 -96.783 54.246 -105.099 C 54.246 -106.483 55.364 -107.615 56.730 -107.615 C 57.129 -107.615 57.529 -107.615 57.930 -107.615 Z"/>
<path fill="#5600e3" fill-rule="evenodd" stroke="none" d="M 28.666 -8.406 C 28.666 -10.479 28.666 -12.551 28.666 -14.624 C 25.095 -14.409 22.169 -17.282 22.169 -20.842 C 22.169 -24.186 25.095 -27.060 28.666 -26.845 C 28.666 -28.847 28.666 -30.848 28.666 -32.849 C 24.865 -32.849 21.065 -32.849 17.264 -32.849 C 17.694 -33.964 18.383 -35.079 18.383 -36.193 C 18.383 -40.653 11.671 -40.653 11.671 -36.193 C 11.671 -35.079 12.359 -33.964 12.790 -32.849 C 8.989 -32.849 5.189 -32.849 1.388 -32.849 C 1.388 -25.273 1.388 -17.697 1.388 -10.121 C 1.388 -9.220 2.077 -8.320 3.195 -8.320 C 11.685 -8.320 20.175 -8.320 28.666 -8.320 C 28.666 -8.349 28.666 -8.378 28.666 -8.406 Z"/>
<path fill="#5600e3" fill-rule="evenodd" stroke="none" d="M 58.827 -32.891 C 56.445 -32.892 54.065 -32.892 51.685 -32.891 C 51.900 -29.332 49.232 -26.416 45.661 -26.416 C 42.090 -26.416 39.164 -29.332 39.422 -32.891 C 36.726 -32.892 34.030 -32.892 31.334 -32.891 C 31.334 -29.704 31.334 -26.517 31.334 -23.329 C 30.430 -23.543 29.312 -24.229 28.193 -24.229 C 23.718 -24.229 23.718 -17.325 28.193 -17.325 C 29.312 -17.325 30.430 -18.011 31.334 -18.226 C 31.333 -14.953 31.333 -11.679 31.334 -8.406 C 39.824 -8.406 48.314 -8.406 56.804 -8.406 C 57.923 -8.406 58.827 -9.306 58.827 -10.207 C 58.826 -17.769 58.826 -25.330 58.827 -32.891 Z"/>
<path fill="#5600e3" fill-rule="evenodd" stroke="none" d="M 1.173 -35.550 C 3.784 -35.550 6.394 -35.550 9.004 -35.550 C 8.574 -39.109 11.456 -42.240 15.027 -42.240 C 18.598 -42.240 21.524 -39.109 21.051 -35.550 C 23.589 -35.550 26.127 -35.550 28.666 -35.550 C 28.666 -38.967 28.666 -42.383 28.666 -45.799 C 29.785 -45.370 30.903 -44.684 32.022 -44.684 C 36.712 -44.684 36.712 -51.803 32.022 -51.803 C 30.903 -51.803 29.785 -50.902 28.666 -50.473 C 28.666 -53.747 28.666 -57.020 28.666 -60.293 C 20.176 -60.293 11.686 -60.293 3.196 -60.293 C 2.077 -60.293 1.173 -59.393 1.173 -58.278 C 1.173 -50.702 1.173 -43.126 1.173 -35.550 Z"/>
<path fill="#2dffb3" fill-rule="evenodd" stroke="none" d="M 58.826 -35.550 C 58.826 -43.126 58.826 -50.702 58.826 -58.278 C 58.826 -59.393 57.923 -60.293 56.804 -60.293 C 48.313 -60.293 39.823 -60.293 31.334 -60.293 C 31.333 -58.292 31.333 -56.291 31.334 -54.290 C 34.905 -54.719 38.260 -51.846 38.261 -48.286 C 38.261 -44.513 34.905 -41.811 31.334 -42.283 C 31.333 -40.053 31.333 -37.823 31.334 -35.593 C 35.205 -35.593 39.078 -35.593 42.950 -35.593 C 42.735 -34.693 42.047 -33.578 42.047 -32.463 C 42.047 -28.003 48.974 -28.003 48.974 -32.463 C 48.974 -33.578 48.543 -34.693 48.070 -35.593 C 51.655 -35.593 55.240 -35.593 58.826 -35.593 C 58.826 -35.579 58.826 -35.565 58.826 -35.550 Z"/>
</svg>
