<?xml version="1.0" encoding="utf-8"?>
<!-- Generator: Moho 13.0.2 build 610 -->
<!DOCTYPE svg PUBLIC "-//W3C//DTD SVG 1.1//EN" "http://www.w3.org/Graphics/SVG/1.1/DTD/svg11.dtd">
<svg version="1.1" id="Frame_0" xmlns="http://www.w3.org/2000/svg" xmlns:xlink="http://www.w3.org/1999/xlink" width="60px" height="60px">
<g id="icon-puzzle.svg">
<path fill="#5600e3" fill-rule="evenodd" stroke="none" d="M 28.682 54.535 C 28.682 52.575 28.682 50.615 28.682 48.656 C 25.305 48.858 22.538 46.142 22.538 42.776 C 22.538 39.613 25.305 36.896 28.682 37.099 C 28.682 35.207 28.682 33.313 28.682 31.422 C 25.088 31.421 21.494 31.421 17.900 31.422 C 18.307 30.368 18.958 29.313 18.958 28.259 C 18.958 24.042 12.611 24.042 12.611 28.259 C 12.611 29.313 13.262 30.368 13.669 31.422 C 10.075 31.421 6.482 31.421 2.887 31.422 C 2.887 38.585 2.887 45.749 2.887 52.913 C 2.887 53.765 3.539 54.616 4.596 54.616 C 12.624 54.616 20.653 54.616 28.682 54.616 C 28.682 54.589 28.682 54.562 28.682 54.535 Z"/>
<path fill="#5600e3" fill-rule="evenodd" stroke="none" d="M 57.203 31.382 C 54.950 31.381 52.700 31.381 50.449 31.382 C 50.652 34.747 48.129 37.504 44.753 37.504 C 41.376 37.504 38.609 34.747 38.853 31.382 C 36.304 31.381 33.754 31.381 31.205 31.382 C 31.205 34.395 31.205 37.410 31.205 40.424 C 30.350 40.221 29.293 39.572 28.235 39.572 C 24.003 39.572 24.003 46.101 28.235 46.101 C 29.293 46.101 30.350 45.452 31.205 45.250 C 31.204 48.344 31.204 51.440 31.205 54.536 C 39.233 54.535 47.261 54.535 55.290 54.536 C 56.348 54.536 57.203 53.684 57.203 52.832 C 57.202 45.681 57.202 38.531 57.203 31.382 Z"/>
<path fill="#5600e3" fill-rule="evenodd" stroke="none" d="M 2.684 28.867 C 5.153 28.867 7.621 28.867 10.089 28.867 C 9.683 25.502 12.408 22.541 15.785 22.541 C 19.161 22.541 21.928 25.502 21.481 28.867 C 23.881 28.867 26.281 28.867 28.682 28.867 C 28.682 25.636 28.682 22.406 28.682 19.176 C 29.740 19.581 30.797 20.230 31.855 20.230 C 36.290 20.230 36.290 13.499 31.855 13.499 C 30.797 13.499 29.740 14.350 28.682 14.756 C 28.682 11.660 28.682 8.565 28.682 5.470 C 20.654 5.470 12.625 5.470 4.597 5.470 C 3.539 5.470 2.684 6.321 2.684 7.375 C 2.684 14.539 2.684 21.703 2.684 28.867 Z"/>
<path fill="#2dffb3" fill-rule="evenodd" stroke="none" d="M 57.202 28.867 C 57.202 21.703 57.202 14.539 57.202 7.375 C 57.202 6.321 56.348 5.470 55.290 5.470 C 47.260 5.470 39.232 5.470 31.205 5.470 C 31.204 7.362 31.204 9.254 31.205 11.146 C 34.582 10.741 37.754 13.458 37.755 16.824 C 37.755 20.392 34.582 22.947 31.205 22.500 C 31.204 24.609 31.204 26.718 31.205 28.826 C 34.865 28.826 38.528 28.826 42.189 28.826 C 41.986 29.678 41.335 30.733 41.335 31.787 C 41.335 36.004 47.885 36.004 47.885 31.787 C 47.885 30.733 47.478 29.678 47.031 28.826 C 50.421 28.826 53.811 28.826 57.202 28.826 C 57.202 28.840 57.202 28.853 57.202 28.867 Z"/>
</g>
</svg>
