<?xml version="1.0" encoding="utf-8"?>
<!-- Generator: Moho 13.0.2 build 610 -->
<!DOCTYPE svg PUBLIC "-//W3C//DTD SVG 1.1//EN" "http://www.w3.org/Graphics/SVG/1.1/DTD/svg11.dtd">
<svg version="1.1" id="Frame_0" xmlns="http://www.w3.org/2000/svg" xmlns:xlink="http://www.w3.org/1999/xlink" width="60px" height="60px">
<g id="icon-stats.svg">
<path fill="#5600e3" fill-rule="evenodd" stroke="none" d="M 16.394 27.692 C 12.545 27.692 8.695 27.692 4.846 27.692 C 4.209 27.692 3.691 28.209 3.691 28.846 C 3.691 38.076 3.691 47.307 3.691 56.538 C 3.691 57.175 4.209 57.692 4.846 57.692 C 8.696 57.692 12.545 57.692 16.395 57.692 C 17.033 57.692 17.550 57.175 17.550 56.538 C 17.550 47.307 17.550 38.076 17.550 28.846 C 17.549 28.209 17.034 27.692 16.394 27.692 Z"/>
<path fill="#2dffb3" fill-rule="evenodd" stroke="none" d="M 35.750 2.307 C 31.901 2.307 28.051 2.307 24.202 2.307 C 23.564 2.307 23.047 2.824 23.047 3.461 C 23.046 21.153 23.046 38.846 23.047 56.539 C 23.047 57.176 23.564 57.693 24.202 57.693 C 28.051 57.692 31.901 57.692 35.750 57.693 C 36.388 57.693 36.906 57.176 36.906 56.539 C 36.905 38.846 36.905 21.153 36.906 3.461 C 36.904 2.824 36.387 2.307 35.750 2.307 Z"/>
<path fill="#5600e3" fill-rule="evenodd" stroke="none" d="M 55.154 13.846 C 51.304 13.846 47.454 13.846 43.605 13.846 C 42.967 13.846 42.450 14.363 42.450 15.000 C 42.450 28.846 42.450 42.692 42.450 56.539 C 42.450 57.176 42.967 57.693 43.605 57.693 C 47.454 57.693 51.304 57.693 55.154 57.693 C 55.791 57.693 56.309 57.176 56.309 56.539 C 56.308 42.692 56.308 28.846 56.309 15.000 C 56.308 14.362 55.790 13.846 55.154 13.846 Z"/>
</g>
</svg>
