<svg id="eH4OQ2jgwoJ1" xmlns="http://www.w3.org/2000/svg" xmlns:xlink="http://www.w3.org/1999/xlink" viewBox="0 0 50 50" shape-rendering="geometricPrecision" text-rendering="geometricPrecision"><style><![CDATA[#eH4OQ2jgwoJ1{pointer-events: all}#eH4OQ2jgwoJ1.hover #eH4OQ2jgwoJ2_tr {animation: eH4OQ2jgwoJ2_tr__tr 3000ms linear infinite normal forwards}@keyframes eH4OQ2jgwoJ2_tr__tr { 0% {transform: translate(25.082000px,25.062998px) rotate(0deg)} 16.666667% {transform: translate(25.082000px,25.062998px) rotate(0deg)} 26.666667% {transform: translate(25.082000px,25.062998px) rotate(-90deg)} 40% {transform: translate(25.082000px,25.062998px) rotate(-90deg)} 50% {transform: translate(25.082000px,25.062998px) rotate(-180deg)} 65.333333% {transform: translate(25.082000px,25.062998px) rotate(-180deg)} 76.666667% {transform: translate(25.082000px,25.062998px) rotate(-270deg)} 90% {transform: translate(25.082000px,25.062998px) rotate(-270deg)} 100% {transform: translate(25.082000px,25.062998px) rotate(-360deg)}} #eH4OQ2jgwoJ1.hover #eH4OQ2jgwoJ2_ts {animation: eH4OQ2jgwoJ2_ts__ts 3000ms linear infinite normal forwards}@keyframes eH4OQ2jgwoJ2_ts__ts { 0% {transform: scale(1,1)} 16.666667% {transform: scale(1,1)} 26.666667% {transform: scale(0.862013,0.862013)} 90% {transform: scale(0.862013,0.862013)} 100% {transform: scale(1,1)}} #eH4OQ2jgwoJ1.hover #eH4OQ2jgwoJ3_to {animation: eH4OQ2jgwoJ3_to__to 3000ms linear infinite normal forwards}@keyframes eH4OQ2jgwoJ3_to__to { 0% {transform: translate(17.292555px,16.848612px)} 16.666667% {transform: translate(17.292555px,16.848612px)} 26.666667% {transform: translate(13.266765px,12.842672px)} 90% {transform: translate(13.266765px,12.842672px)} 100% {transform: translate(17.292555px,16.848612px)}} #eH4OQ2jgwoJ1.hover #eH4OQ2jgwoJ3_ts {animation: eH4OQ2jgwoJ3_ts__ts 3000ms linear infinite normal forwards}@keyframes eH4OQ2jgwoJ3_ts__ts { 0% {transform: scale(1,1)} 16.666667% {transform: scale(1,1)} 26.666667% {transform: scale(0.673180,0.673180)} 90% {transform: scale(0.673180,0.673180)} 100% {transform: scale(1,1)}} #eH4OQ2jgwoJ1.hover #eH4OQ2jgwoJ7_to {animation: eH4OQ2jgwoJ7_to__to 3000ms linear infinite normal forwards}@keyframes eH4OQ2jgwoJ7_to__to { 0% {transform: translate(17.292555px,16.848612px)} 66.666667% {transform: translate(17.292555px,16.848612px)} 76.666667% {transform: translate(52.517515px,16.952929px)} 89.333333% {transform: translate(52.517515px,16.952929px)} 100% {transform: translate(17.292555px,16.848612px)}} #eH4OQ2jgwoJ1.hover #eH4OQ2jgwoJ10_to {animation: eH4OQ2jgwoJ10_to__to 3000ms linear infinite normal forwards}@keyframes eH4OQ2jgwoJ10_to__to { 0% {transform: translate(17.292555px,16.848612px)} 40% {transform: translate(17.292555px,16.848612px)} 50% {transform: translate(17.558482px,50.734674px)} 90% {transform: translate(17.558482px,50.734674px)} 100% {transform: translate(17.292555px,16.848612px)}} #eH4OQ2jgwoJ1.hover #eH4OQ2jgwoJ13_to {animation: eH4OQ2jgwoJ13_to__to 3000ms linear infinite normal forwards}@keyframes eH4OQ2jgwoJ13_to__to { 0% {transform: translate(31.600944px,30.643816px)} 16.666667% {transform: translate(31.600944px,30.643816px)} 26.666667% {transform: translate(36.975729px,36.062163px)} 90% {transform: translate(36.975729px,36.062163px)} 100% {transform: translate(31.600944px,30.643816px)}} #eH4OQ2jgwoJ1.hover #eH4OQ2jgwoJ13_ts {animation: eH4OQ2jgwoJ13_ts__ts 3000ms linear infinite normal forwards}@keyframes eH4OQ2jgwoJ13_ts__ts { 0% {transform: scale(1,1)} 16.666667% {transform: scale(1,1)} 26.666667% {transform: scale(0.592182,0.592182)} 90% {transform: scale(0.592182,0.592182)} 100% {transform: scale(1,1)}}]]></style><g id="eH4OQ2jgwoJ2_tr" transform="translate(25.082000,25.062998) rotate(0)"><g id="eH4OQ2jgwoJ2_ts" transform="scale(1,1)"><g id="eH4OQ2jgwoJ2" transform="translate(-25.082000,-25.062998)"><g id="eH4OQ2jgwoJ3_to" transform="translate(17.292555,16.848612)"><g id="eH4OQ2jgwoJ3_ts" transform="scale(1,1)"><g id="eH4OQ2jgwoJ3" transform="translate(-17.292555,-16.848612)"><g id="eH4OQ2jgwoJ4" transform="matrix(0.91180383753820 0 0 0.91180383753820 1.97809469433725 -1.57148138887815)"><path id="eH4OQ2jgwoJ5" d="M44.783000,47.078000C36.010000,47.078000,27.238000,47.078000,18.466000,47.078000C16.478000,47.078000,14.852000,45.485000,14.852000,43.537000C14.852000,34.941000,14.746000,26.345000,14.852000,17.750000C14.877000,15.758000,16.597000,14.182000,18.630000,14.210000C27.347000,14.327000,36.066000,14.211000,44.784000,14.210000C46.771000,14.209000,48.397000,15.803000,48.397000,17.750000C48.397000,26.346000,48.397000,34.941000,48.397000,43.537000C48.397000,45.485000,46.771000,47.078000,44.783000,47.078000Z" transform="matrix(1 0 0 1 -14.80515956999999 -10.44200000000000)" fill="rgb(255,255,255)" fill-rule="evenodd" stroke="rgb(255,255,255)" stroke-width="7" stroke-linecap="round" stroke-linejoin="round"/><path id="eH4OQ2jgwoJ6" d="M44.783000,47.078000C36.010000,47.078000,27.238000,47.078000,18.466000,47.078000C16.478000,47.078000,14.852000,45.485000,14.852000,43.537000C14.852000,34.941000,14.746000,26.345000,14.852000,17.750000C14.877000,15.758000,16.597000,14.182000,18.630000,14.210000C27.347000,14.327000,36.066000,14.211000,44.784000,14.210000C46.771000,14.209000,48.397000,15.803000,48.397000,17.750000C48.397000,26.346000,48.397000,34.941000,48.397000,43.537000C48.397000,45.485000,46.771000,47.078000,44.783000,47.078000Z" transform="matrix(1 0 0 1 -14.80515956999999 -10.44200000000000)" fill="rgb(86,0,227)" fill-rule="evenodd" stroke="none" stroke-width="1"/></g><g id="eH4OQ2jgwoJ7_to" transform="translate(17.292555,16.848612)"><g id="eH4OQ2jgwoJ7" transform="scale(0.911804,0.911804) translate(-16.795784,-20.201816)"><path id="eH4OQ2jgwoJ8" d="M44.783000,47.078000C36.010000,47.078000,27.238000,47.078000,18.466000,47.078000C16.478000,47.078000,14.852000,45.485000,14.852000,43.537000C14.852000,34.941000,14.746000,26.345000,14.852000,17.750000C14.877000,15.758000,16.597000,14.182000,18.630000,14.210000C27.347000,14.327000,36.066000,14.211000,44.784000,14.210000C46.771000,14.209000,48.397000,15.803000,48.397000,17.750000C48.397000,26.346000,48.397000,34.941000,48.397000,43.537000C48.397000,45.485000,46.771000,47.078000,44.783000,47.078000Z" transform="matrix(1 0 0 1 -14.80515956999999 -10.44200000000000)" fill="rgb(255,255,255)" fill-rule="evenodd" stroke="rgb(255,255,255)" stroke-width="7" stroke-linecap="round" stroke-linejoin="round"/><path id="eH4OQ2jgwoJ9" d="M44.783000,47.078000C36.010000,47.078000,27.238000,47.078000,18.466000,47.078000C16.478000,47.078000,14.852000,45.485000,14.852000,43.537000C14.852000,34.941000,14.746000,26.345000,14.852000,17.750000C14.877000,15.758000,16.597000,14.182000,18.630000,14.210000C27.347000,14.327000,36.066000,14.211000,44.784000,14.210000C46.771000,14.209000,48.397000,15.803000,48.397000,17.750000C48.397000,26.346000,48.397000,34.941000,48.397000,43.537000C48.397000,45.485000,46.771000,47.078000,44.783000,47.078000Z" transform="matrix(1 0 0 1 -14.80515956999999 -10.44200000000000)" fill="rgb(86,0,227)" fill-rule="evenodd" stroke="none" stroke-width="1"/></g></g><g id="eH4OQ2jgwoJ10_to" transform="translate(17.292555,16.848612)"><g id="eH4OQ2jgwoJ10" transform="scale(0.911804,0.911804) translate(-16.795784,-20.201816)"><path id="eH4OQ2jgwoJ11" d="M44.783000,47.078000C36.010000,47.078000,27.238000,47.078000,18.466000,47.078000C16.478000,47.078000,14.852000,45.485000,14.852000,43.537000C14.852000,34.941000,14.746000,26.345000,14.852000,17.750000C14.877000,15.758000,16.597000,14.182000,18.630000,14.210000C27.347000,14.327000,36.066000,14.211000,44.784000,14.210000C46.771000,14.209000,48.397000,15.803000,48.397000,17.750000C48.397000,26.346000,48.397000,34.941000,48.397000,43.537000C48.397000,45.485000,46.771000,47.078000,44.783000,47.078000Z" transform="matrix(1 0 0 1 -14.80515956999999 -10.44200000000000)" fill="rgb(255,255,255)" fill-rule="evenodd" stroke="rgb(255,255,255)" stroke-width="7" stroke-linecap="round" stroke-linejoin="round"/><path id="eH4OQ2jgwoJ12" d="M44.783000,47.078000C36.010000,47.078000,27.238000,47.078000,18.466000,47.078000C16.478000,47.078000,14.852000,45.485000,14.852000,43.537000C14.852000,34.941000,14.746000,26.345000,14.852000,17.750000C14.877000,15.758000,16.597000,14.182000,18.630000,14.210000C27.347000,14.327000,36.066000,14.211000,44.784000,14.210000C46.771000,14.209000,48.397000,15.803000,48.397000,17.750000C48.397000,26.346000,48.397000,34.941000,48.397000,43.537000C48.397000,45.485000,46.771000,47.078000,44.783000,47.078000Z" transform="matrix(1 0 0 1 -14.80515956999999 -10.44200000000000)" fill="rgb(86,0,227)" fill-rule="evenodd" stroke="none" stroke-width="1"/></g></g></g></g></g><g id="eH4OQ2jgwoJ13_to" transform="translate(31.600944,30.643816)"><g id="eH4OQ2jgwoJ13_ts" transform="scale(1,1)"><g id="eH4OQ2jgwoJ13" transform="translate(-31.600944,-30.643816)"><path id="eH4OQ2jgwoJ14" d="M44.783000,47.078000C36.010000,47.078000,27.238000,47.078000,18.466000,47.078000C16.478000,47.078000,14.852000,45.485000,14.852000,43.537000C14.852000,34.941000,14.746000,26.345000,14.852000,17.750000C14.877000,15.758000,16.597000,14.182000,18.630000,14.210000C27.347000,14.327000,36.066000,14.211000,44.784000,14.210000C46.771000,14.209000,48.397000,15.803000,48.397000,17.750000C48.397000,26.346000,48.397000,34.941000,48.397000,43.537000C48.397000,45.485000,46.771000,47.078000,44.783000,47.078000Z" fill="rgb(255,255,255)" fill-rule="evenodd" stroke="rgb(255,255,255)" stroke-width="7" stroke-linecap="round" stroke-linejoin="round"/><path id="eH4OQ2jgwoJ15" d="M44.783000,47.078000C36.010000,47.078000,27.238000,47.078000,18.466000,47.078000C16.478000,47.078000,14.852000,45.485000,14.852000,43.537000C14.852000,34.941000,14.746000,26.345000,14.852000,17.750000C14.877000,15.758000,16.597000,14.182000,18.630000,14.210000C27.347000,14.327000,36.066000,14.211000,44.784000,14.210000C46.771000,14.209000,48.397000,15.803000,48.397000,17.750000C48.397000,26.346000,48.397000,34.941000,48.397000,43.537000C48.397000,45.485000,46.771000,47.078000,44.783000,47.078000Z" fill="rgb(86,0,227)" fill-rule="evenodd" stroke="none" stroke-width="1"/><path id="eH4OQ2jgwoJ16" d="M31.625000,41.044000C37.487000,41.044000,42.240000,36.388000,42.240000,30.644000C42.240000,24.900000,37.487000,20.243000,31.625000,20.243000C25.762000,20.243000,21.010000,24.900000,21.010000,30.644000C21.010000,36.388000,25.762000,41.044000,31.625000,41.044000Z" fill="rgb(255,255,255)" fill-rule="evenodd" stroke="none" stroke-width="1"/><path id="eH4OQ2jgwoJ17" d="M31.625000,36.636000C35.002000,36.636000,37.741000,33.953000,37.741000,30.643000C37.741000,27.334000,35.002000,24.651000,31.625000,24.651000C28.247000,24.651000,25.509000,27.334000,25.509000,30.643000C25.509000,33.953000,28.247000,36.636000,31.625000,36.636000Z" fill="rgb(45,255,179)" fill-rule="evenodd" stroke="none" stroke-width="1"/></g></g></g></g></g></g></svg>