<svg id="e9RJpdatuTx1" xmlns="http://www.w3.org/2000/svg" xmlns:xlink="http://www.w3.org/1999/xlink" viewBox="0 0 40 40" shape-rendering="geometricPrecision" text-rendering="geometricPrecision"><style><![CDATA[#e9RJpdatuTx1{pointer-events: all}#e9RJpdatuTx1.hover #e9RJpdatuTx2_to {animation: e9RJpdatuTx2_to__to 3000ms linear 1 normal forwards}@keyframes e9RJpdatuTx2_to__to { 0% {transform: translate(30.223666px,29.105397px)} 6.666667% {transform: translate(30.241657px,29.090819px);animation-timing-function: step-end} 10% {transform: translate(38.179377px,38.639291px)} 20% {transform: translate(30.289672px,28.734638px)} 26.666667% {transform: translate(30.223298px,29.106605px)} 46.666667% {transform: translate(30.223298px,29.106605px)} 50% {transform: translate(30.223298px,29.106605px)} 53.333333% {transform: translate(30.223298px,29.106605px)} 60% {transform: translate(30.223298px,29.106605px)} 100% {transform: translate(30.223298px,29.106605px)}} #e9RJpdatuTx1.hover #e9RJpdatuTx2_ts {animation: e9RJpdatuTx2_ts__ts 3000ms linear 1 normal forwards}@keyframes e9RJpdatuTx2_ts__ts { 0% {transform: scale(1,1)} 6.666667% {transform: scale(1,1);animation-timing-function: step-end} 10% {transform: scale(0.054346,0.054346)} 20% {transform: scale(1.129291,1.129291)} 26.666667% {transform: scale(0.999989,0.999989)} 46.666667% {transform: scale(0.999989,0.999989)} 50% {transform: scale(0.881566,0.881566)} 53.333333% {transform: scale(1.034920,1.034920)} 60% {transform: scale(0.999898,0.999898)} 100% {transform: scale(0.999898,0.999898)}} #e9RJpdatuTx1.hover #e9RJpdatuTx3_to {animation: e9RJpdatuTx3_to__to 3000ms linear 1 normal forwards}@keyframes e9RJpdatuTx3_to__to { 0% {transform: translate(14.976758px,14.965705px)} 6.666667% {transform: translate(14.976758px,14.965705px);animation-timing-function: step-end} 10% {transform: translate(28.451211px,27.055617px)} 26.666667% {transform: translate(28.451211px,27.055617px)} 33.333333% {transform: translate(14.955897px,14.483186px)} 40% {transform: translate(14.979246px,14.965056px)} 100% {transform: translate(14.979246px,14.965056px)}} #e9RJpdatuTx1.hover #e9RJpdatuTx3_ts {animation: e9RJpdatuTx3_ts__ts 3000ms linear 1 normal forwards}@keyframes e9RJpdatuTx3_ts__ts { 0% {transform: scale(1,1)} 6.666667% {transform: scale(1,1);animation-timing-function: step-end} 10% {transform: scale(0.015438,0.015438)} 26.666667% {transform: scale(0.015438,0.015438)} 33.333333% {transform: scale(1.087646,1.087646)} 40% {transform: scale(0.999928,0.999928)} 100% {transform: scale(0.999928,0.999928)}}]]></style><g id="e9RJpdatuTx2_to" transform="translate(30.223666,29.105397)"><g id="e9RJpdatuTx2_ts" transform="scale(1,1)"><g id="e9RJpdatuTx2" transform="translate(-28.563492,-27.286790)"><g id="e9RJpdatuTx3_to" transform="translate(14.976758,14.965705)"><g id="e9RJpdatuTx3_ts" transform="scale(1,1)"><g id="e9RJpdatuTx3" transform="translate(-14.976758,-14.965705)"><path id="e9RJpdatuTx4" d="M29.640000,12.170000C28.847821,7.643325,25.958137,3.759500,21.850000,1.700000C18.959808,0.146503,15.624266,-0.368829,12.400000,0.240000C8.765895,0.843218,5.492093,2.792505,3.230000,5.700000C1.483323,7.863895,0.396698,10.484988,0.100000,13.250000C-0.380081,17.431770,0.918968,21.622835,3.680000,24.800000C3.530000,24.920000,3.400000,25,3.290000,25.100000L0.370000,28C0.018045,28.282771,-0.100788,28.766300,0.080000,29.180000C0.219395,29.609338,0.629139,29.892062,1.080000,29.870000L1.490000,29.870000L14.490000,29.940000C15.261683,29.945164,16.033006,29.905095,16.800000,29.820000C20.389469,29.437721,23.703011,27.716679,26.080000,25C29.292841,21.562537,30.622236,16.771490,29.640000,12.170000Z" fill="rgb(86,0,227)" fill-rule="evenodd" stroke="none" stroke-width="1"/><path id="e9RJpdatuTx5" d="M13.060000,8.600000C13.327021,9.016793,13.386097,9.533708,13.220000,10C12.727001,10.529363,12.269346,11.090574,11.850000,11.680000C11.775827,11.869673,11.775827,12.080327,11.850000,12.270000C13.283959,14.091397,14.830304,15.821433,16.480000,17.450000C16.660001,17.551791,16.875436,17.570048,17.070000,17.500000C17.380000,17.380000,18.900000,16.350000,18.900000,16.350000C19.372144,16.232584,19.872022,16.343668,20.250000,16.650000C21.160985,17.463609,21.849355,18.496165,22.250000,19.650000C21.971684,20.897147,20.990403,21.866700,19.740000,22.130000C15.490000,23.060000,6.150000,12.650000,7.570000,8.520000C7.987699,7.322053,9.042789,6.460203,10.300000,6.290000C10.880000,6.350000,12.580000,7.890000,13.060000,8.600000Z" fill="rgb(255,255,255)" fill-rule="evenodd" stroke="none" stroke-width="1"/></g></g></g><path id="e9RJpdatuTx6" d="M31.500000,10.440000C36.260000,14.310000,39.010000,23.840000,32.790000,31.240000L33.090000,31.550000L36,34.410000C36.385225,34.705426,36.525992,35.221583,36.344089,35.671678C36.162185,36.121773,35.702316,36.395186,35.220000,36.340000C30.590000,36.340000,25.960000,36.410000,21.330000,36.400000C17.658509,36.391003,14.121979,35.014894,11.410000,32.540000C11.260000,32.410000,11.090000,32.290000,10.930000,32.170000L11,32L11.420000,32C12.890000,32,14.370000,32.080000,15.840000,32C20.950590,31.804392,25.686534,29.266752,28.680000,25.120000C31.244452,21.766111,32.431945,17.559810,32,13.360000C31.900000,12.370000,31.660000,11.390000,31.500000,10.440000Z" fill="rgb(45,255,179)" fill-rule="evenodd" stroke="none" stroke-width="1"/></g></g></g></svg>
