<?xml version="1.0" encoding="utf-8"?>
<!-- Generator: Moho 13.0.2 build 610 -->
<!DOCTYPE svg PUBLIC "-//W3C//DTD SVG 1.1//EN" "http://www.w3.org/Graphics/SVG/1.1/DTD/svg11.dtd">
<svg version="1.1" id="Frame_0" xmlns="http://www.w3.org/2000/svg" xmlns:xlink="http://www.w3.org/1999/xlink" width="60px" height="60px">
<g id="icon-automation.svg">
<path fill="#5600e3" fill-rule="evenodd" stroke="none" d="M 44.875 28.264 C 46.611 28.264 48.290 28.495 49.853 29.016 C 49.852 26.913 49.852 24.810 49.853 22.707 C 49.853 21.839 49.158 21.087 48.290 21.087 C 47.074 21.086 45.858 21.086 44.643 21.087 C 44.238 19.582 43.602 18.135 42.849 16.746 C 43.698 15.897 44.547 15.048 45.396 14.199 C 46.033 13.562 46.033 12.578 45.396 11.942 C 43.736 10.282 42.077 8.623 40.418 6.964 C 39.782 6.327 38.740 6.327 38.161 6.964 C 37.292 7.832 36.424 8.700 35.556 9.569 C 34.225 8.816 32.720 8.237 31.215 7.774 C 31.215 6.559 31.215 5.343 31.215 4.128 C 31.215 3.260 30.463 2.507 29.653 2.507 C 27.318 2.507 24.984 2.507 22.649 2.507 C 21.781 2.507 21.029 3.260 21.029 4.128 C 21.029 5.343 21.029 6.559 21.029 7.774 C 19.524 8.180 18.077 8.816 16.746 9.569 C 15.897 8.720 15.048 7.871 14.199 7.022 C 13.562 6.385 12.521 6.385 11.942 7.022 C 10.302 8.662 8.662 10.302 7.022 11.942 C 6.385 12.578 6.385 13.562 7.022 14.199 C 7.871 15.048 8.720 15.897 9.569 16.746 C 8.816 18.077 8.237 19.582 7.774 21.087 C 6.540 21.086 5.305 21.086 4.070 21.087 C 3.202 21.087 2.507 21.839 2.507 22.707 C 2.507 25.041 2.507 27.376 2.507 29.711 C 2.507 30.579 3.202 31.331 4.070 31.331 C 5.286 31.331 6.501 31.331 7.717 31.331 C 8.122 32.836 8.758 34.283 9.511 35.672 C 8.662 36.521 7.813 37.370 6.964 38.219 C 6.327 38.856 6.327 39.840 6.964 40.476 C 8.604 42.116 10.244 43.756 11.884 45.396 C 12.521 46.033 13.562 46.033 14.199 45.396 C 15.048 44.527 15.897 43.659 16.746 42.791 C 18.077 43.544 19.582 44.180 21.087 44.586 C 21.086 45.801 21.086 47.016 21.087 48.232 C 21.087 49.100 21.839 49.853 22.707 49.853 C 24.829 49.852 26.951 49.852 29.074 49.853 C 28.553 48.290 28.264 46.553 28.264 44.817 C 28.321 35.730 35.788 28.264 44.875 28.264 Z"/>
<path fill="#2dffb3" fill-rule="evenodd" stroke="none" d="M 50.431 43.775 C 51.242 44.296 51.242 45.454 50.431 45.917 C 47.807 47.556 45.183 49.196 42.560 50.836 C 41.692 51.357 40.592 50.779 40.592 49.737 C 40.592 46.476 40.592 43.215 40.592 39.955 C 40.592 38.971 41.692 38.335 42.560 38.855 C 45.183 40.495 47.807 42.135 50.431 43.775 M 57.493 44.875 C 57.493 37.929 51.878 32.257 44.875 32.257 C 37.929 32.257 32.257 37.872 32.257 44.875 C 32.257 51.820 37.872 57.493 44.875 57.493 C 51.820 57.493 57.493 51.878 57.493 44.875 Z"/>
<path fill="#ffffff" fill-rule="evenodd" stroke="none" d="M 26.553 37.644 C 33.001 37.644 38.017 32.629 38.017 26.181 C 38.017 19.732 33.001 14.717 26.553 14.717 C 20.105 14.717 15.089 19.732 15.089 26.181 C 15.089 32.629 20.105 37.644 26.553 37.644 Z"/>
</g>
</svg>
