<?xml version="1.0" encoding="utf-8"?>
<!-- Generator: Moho 13.0.2 build 610 -->
<!DOCTYPE svg PUBLIC "-//W3C//DTD SVG 1.1//EN" "http://www.w3.org/Graphics/SVG/1.1/DTD/svg11.dtd">
<svg version="1.1" id="Frame_0" xmlns="http://www.w3.org/2000/svg" xmlns:xlink="http://www.w3.org/1999/xlink" width="60px" height="60px">
<g id="Group_474.svg">
<path fill="#2dffb3" fill-rule="evenodd" stroke="none" d="M 13.518 39.472 C 13.016 39.472 12.543 39.274 12.188 38.914 C 11.833 38.553 11.637 38.076 11.637 37.568 C 11.637 37.060 11.832 36.581 12.188 36.221 C 13.328 35.067 14.469 33.913 15.609 32.759 C 15.965 32.400 16.437 32.201 16.939 32.201 C 17.441 32.201 17.914 32.399 18.269 32.759 C 19.002 33.501 19.002 34.710 18.269 35.452 C 17.128 36.605 15.988 37.759 14.848 38.914 C 14.493 39.274 14.021 39.472 13.518 39.472 Z"/>
<path fill="#2dffb3" fill-rule="evenodd" stroke="none" d="M 19.219 45.240 C 18.717 45.240 18.244 45.042 17.890 44.682 C 17.534 44.322 17.338 43.845 17.338 43.336 C 17.338 42.827 17.534 42.349 17.890 41.990 C 19.030 40.836 20.170 39.682 21.310 38.528 C 21.666 38.169 22.138 37.970 22.640 37.970 C 23.142 37.970 23.615 38.168 23.970 38.528 C 24.326 38.888 24.521 39.366 24.521 39.875 C 24.521 40.384 24.326 40.862 23.970 41.221 C 22.830 42.374 21.689 43.528 20.549 44.682 C 20.194 45.042 19.722 45.240 19.219 45.240 Z"/>
<path fill="#2dffb3" fill-rule="evenodd" stroke="none" d="M 24.921 51.010 C 24.419 51.010 23.946 50.812 23.592 50.452 C 22.858 49.710 22.858 48.502 23.592 47.760 C 24.732 46.605 25.872 45.452 27.012 44.298 C 27.368 43.939 27.840 43.740 28.342 43.740 C 28.844 43.740 29.317 43.938 29.672 44.298 C 30.405 45.040 30.405 46.248 29.672 46.991 C 28.531 48.144 27.391 49.298 26.251 50.452 C 25.896 50.812 25.423 51.010 24.921 51.010 Z"/>
<path fill="#2dffb3" fill-rule="evenodd" stroke="none" d="M 30.623 56.781 C 30.121 56.781 29.648 56.583 29.293 56.222 C 28.560 55.481 28.560 54.272 29.293 53.530 C 30.433 52.376 31.573 51.222 32.714 50.068 C 33.070 49.709 33.542 49.510 34.045 49.510 C 34.548 49.510 35.020 49.708 35.375 50.068 C 36.109 50.810 36.109 52.018 35.375 52.761 C 34.235 53.914 33.095 55.068 31.955 56.222 C 31.598 56.583 31.125 56.781 30.623 56.781 Z"/>
<path fill="#2dffb3" fill-rule="evenodd" stroke="none" d="M 36.427 12.788 C 33.861 15.045 31.295 17.302 28.729 19.559 C 27.789 20.388 26.849 21.218 25.909 22.047 C 25.477 22.318 24.975 22.461 24.452 22.461 C 23.644 22.461 22.852 22.128 22.278 21.547 C 21.104 20.359 21.105 18.427 22.278 17.239 C 24.986 14.541 27.695 11.843 30.404 9.146 C 33.327 6.189 37.209 4.562 41.338 4.562 C 45.467 4.562 49.349 6.189 52.269 9.144 C 55.049 11.957 56.654 15.695 56.788 19.669 C 56.914 23.428 55.719 27.065 53.412 29.977 C 47.750 24.247 42.088 18.518 36.427 12.788 Z"/>
<path fill="#5600e3" fill-rule="evenodd" stroke="none" d="M 39.478 48.460 C 39.191 47.911 38.834 47.418 38.413 46.993 C 37.358 45.925 35.981 45.293 34.497 45.186 C 34.392 43.683 33.769 42.293 32.712 41.223 C 31.657 40.156 30.280 39.524 28.797 39.417 C 28.691 37.914 28.068 36.524 27.011 35.454 C 25.956 34.387 24.579 33.755 23.095 33.647 C 22.976 32.006 22.228 30.475 20.995 29.388 C 19.917 28.437 18.564 27.935 17.082 27.935 C 15.312 27.935 13.570 28.670 12.302 29.954 C 10.826 31.447 9.350 32.941 7.874 34.435 C 7.774 34.333 7.674 34.232 7.574 34.131 C 1.258 27.740 1.258 17.340 7.574 10.947 C 10.634 7.851 14.701 6.147 19.028 6.147 C 21.329 6.147 23.625 6.648 25.711 7.602 C 23.554 9.751 21.396 11.899 19.239 14.048 C 16.386 16.935 16.386 21.628 19.236 24.512 C 20.611 25.904 22.512 26.701 24.452 26.701 C 25.809 26.701 27.125 26.314 28.257 25.582 C 28.335 25.531 28.414 25.480 28.492 25.429 C 29.511 24.530 30.530 23.631 31.550 22.731 C 33.107 21.362 34.664 19.992 36.222 18.623 C 41.266 23.727 46.310 28.831 51.355 33.936 C 52.068 34.673 52.063 35.874 51.337 36.608 C 50.981 36.966 50.509 37.166 50.006 37.166 C 49.503 37.166 49.031 36.968 48.676 36.608 C 45.825 33.722 42.974 30.838 40.124 27.953 C 39.718 27.542 39.178 27.316 38.604 27.316 C 38.030 27.316 37.490 27.542 37.084 27.953 C 36.678 28.365 36.454 28.911 36.454 29.492 C 36.454 30.073 36.678 30.619 37.084 31.030 C 39.934 33.914 42.785 36.799 45.636 39.684 C 46.369 40.426 46.369 41.635 45.636 42.377 C 45.281 42.736 44.808 42.934 44.305 42.934 C 43.803 42.934 43.330 42.736 42.975 42.377 C 40.124 39.492 37.274 36.607 34.423 33.722 C 34.017 33.311 33.477 33.085 32.903 33.085 C 32.329 33.085 31.790 33.311 31.383 33.722 C 30.977 34.134 30.753 34.680 30.753 35.261 C 30.753 35.842 30.977 36.388 31.383 36.799 C 34.233 39.683 37.084 42.568 39.935 45.453 C 40.291 45.813 40.487 46.291 40.487 46.799 C 40.487 47.307 40.291 47.786 39.935 48.146 C 39.808 48.274 39.660 48.376 39.478 48.460 Z"/>
</g>
</svg>
