<svg cache-id="c502696b017741e195308816cdeffcf2" id="ehPQ7cK3FVj1" xmlns="http://www.w3.org/2000/svg" xmlns:xlink="http://www.w3.org/1999/xlink" viewBox="0 0 44 43" shape-rendering="geometricPrecision" text-rendering="geometricPrecision"><style><![CDATA[#ehPQ7cK3FVj1{pointer-events: all}#ehPQ7cK3FVj1.hover #ehPQ7cK3FVj3_ts {animation: ehPQ7cK3FVj3_ts__ts 3000ms linear infinite normal forwards}@keyframes ehPQ7cK3FVj3_ts__ts { 0% {transform: translate(20.520550px,43.000401px) scale(1,1)} 16.666667% {transform: translate(20.520550px,43.000401px) scale(1,1)} 33.333333% {transform: translate(20.520550px,43.000401px) scale(1,0.634193)} 50% {transform: translate(20.520550px,43.000401px) scale(1,0.634193)} 66.666667% {transform: translate(20.520550px,43.000401px) scale(1,0.326162)} 83.333333% {transform: translate(20.520550px,43.000401px) scale(1,0.326162)} 100% {transform: translate(20.520550px,43.000401px) scale(1,1)}} #ehPQ7cK3FVj1.hover #ehPQ7cK3FVj4_ts {animation: ehPQ7cK3FVj4_ts__ts 3000ms linear infinite normal forwards}@keyframes ehPQ7cK3FVj4_ts__ts { 0% {transform: translate(5.493241px,43.000401px) scale(1,1)} 16.666667% {transform: translate(5.493241px,43.000401px) scale(1,1)} 33.333333% {transform: translate(5.493241px,43.000401px) scale(1,0.688704)} 50% {transform: translate(5.493241px,43.000401px) scale(1,0.688704)} 66.666667% {transform: translate(5.493241px,43.000401px) scale(1,1.721993)} 83.333333% {transform: translate(5.493241px,43.000401px) scale(1,1.721993)} 100% {transform: translate(5.493241px,43.000401px) scale(1,1)}} #ehPQ7cK3FVj1.hover #ehPQ7cK3FVj5_ts {animation: ehPQ7cK3FVj5_ts__ts 3000ms linear infinite normal forwards}@keyframes ehPQ7cK3FVj5_ts__ts { 0% {transform: translate(35.585000px,43.000401px) scale(1,1)} 16.666667% {transform: translate(35.585000px,43.000401px) scale(1,1)} 33.333333% {transform: translate(35.585000px,43.000401px) scale(1,1.224473)} 50% {transform: translate(35.585000px,43.000401px) scale(1,1.224473)} 66.666667% {transform: translate(35.585000px,43.000401px) scale(1,0.726339)} 83.333333% {transform: translate(35.585000px,43.000401px) scale(1,0.726339)} 100% {transform: translate(35.585000px,43.000401px) scale(1,1)}}]]></style><g id="ehPQ7cK3FVj2" transform="matrix(0.95321362461227 0 0 0.95321362461227 2.42185875509863 1.00533436579230)"><g id="ehPQ7cK3FVj3_ts" transform="translate(20.520550,43.000401) scale(1,1)"><path id="ehPQ7cK3FVj3" d="M25.003600,0L16.037500,0C15.542400,0,15.140600,0.401445,15.140600,0.896113L15.140600,42.104700C15.140600,42.599400,15.542400,43.000800,16.037500,43.000800L25.003600,43.000800C25.498700,43.000800,25.900500,42.599400,25.900500,42.104700L25.900500,0.896113C25.899700,0.401445,25.497900,0,25.003600,0Z" transform="translate(-20.520550,-43.000401)" fill="rgb(45,255,179)" stroke="none" stroke-width="1"/></g><g id="ehPQ7cK3FVj4_ts" transform="translate(5.493241,43.000401) scale(1,1)"><path id="ehPQ7cK3FVj4" d="M9.975450,19.709000L1.010150,19.709000C0.515064,19.709000,0.113281,20.110400,0.113281,20.604300L0.113281,42.104300C0.113281,42.598900,0.515064,43.000400,1.010150,43.000400L9.976290,43.000400C10.471400,43.000400,10.873200,42.598900,10.873200,42.104300L10.873200,20.604300C10.872300,20.110400,10.472200,19.709000,9.975450,19.709000Z" transform="translate(-5.493241,-43.000401)" fill="rgb(86,0,227)" stroke="none" stroke-width="1"/></g><g id="ehPQ7cK3FVj5_ts" transform="translate(35.585000,43.000401) scale(1,1)"><path id="ehPQ7cK3FVj5" d="M40.068100,8.958980L31.101900,8.958980C30.606900,8.958980,30.205100,9.360430,30.205100,9.855100L30.205100,42.105100C30.205100,42.599800,30.606900,43.001200,31.101900,43.001200L40.068100,43.001200C40.563200,43.001200,40.964900,42.599800,40.964900,42.105100L40.964900,9.855100C40.964100,9.359590,40.562300,8.958980,40.068100,8.958980Z" transform="translate(-35.585000,-43.000401)" fill="rgb(86,0,227)" stroke="none" stroke-width="1"/></g></g></svg>