<svg id="elVzG8Ieugd1" xmlns="http://www.w3.org/2000/svg" xmlns:xlink="http://www.w3.org/1999/xlink" viewBox="0 0 60 60" shape-rendering="geometricPrecision" text-rendering="geometricPrecision"><style><![CDATA[#elVzG8Ieugd2_ts {animation: elVzG8Ieugd2_ts__ts 9000ms linear infinite normal forwards}@keyframes elVzG8Ieugd2_ts__ts { 0% {transform: translate(30px,30px) scale(1,1)} 66.666667% {transform: translate(30px,30px) scale(1,1)} 68.888889% {transform: translate(30px,30px) scale(1.063662,0.903413)} 71.111111% {transform: translate(30px,30px) scale(0.902338,1.036580)} 73.333333% {transform: translate(30px,30px) scale(1,1)} 75.555556% {transform: translate(30px,30px) scale(1,1)} 77.777778% {transform: translate(30px,30px) scale(0.432544,0.432544)} 93.333333% {transform: translate(30px,30px) scale(0.432544,0.432544)} 95.555556% {transform: translate(30px,30px) scale(0.501727,0.377271)} 97.777778% {transform: translate(30px,30px) scale(0.412353,0.507100)} 100% {transform: translate(30px,30px) scale(1,1)}} #elVzG8Ieugd3_to {animation: elVzG8Ieugd3_to__to 9000ms linear infinite normal forwards}@keyframes elVzG8Ieugd3_to__to { 0% {transform: translate(30.019911px,29.999495px)} 77.777778% {transform: translate(30.019911px,29.999495px)} 80% {transform: translate(-6.505817px,64.262623px)} 91.111111% {transform: translate(-6.505817px,64.262623px)} 93.333333% {transform: translate(30.019911px,29.999495px)} 100% {transform: translate(30.019911px,29.999495px)}} #elVzG8Ieugd8_to {animation: elVzG8Ieugd8_to__to 9000ms linear infinite normal forwards}@keyframes elVzG8Ieugd8_to__to { 0% {transform: translate(30.019911px,29.999495px)} 77.777778% {transform: translate(30.019911px,29.999495px)} 80% {transform: translate(66.551289px,64.262623px)} 91.111111% {transform: translate(66.551289px,64.262623px)} 93.333333% {transform: translate(30.019911px,29.999495px)} 100% {transform: translate(30.019911px,29.999495px)}} #elVzG8Ieugd13_to {animation: elVzG8Ieugd13_to__to 9000ms linear infinite normal forwards}@keyframes elVzG8Ieugd13_to__to { 0% {transform: translate(30.019911px,29.999495px)} 77.777778% {transform: translate(30.019911px,29.999495px)} 80% {transform: translate(66.444200px,-4.659209px)} 91.111111% {transform: translate(66.444200px,-4.659209px)} 93.333333% {transform: translate(30.019911px,29.999495px)} 100% {transform: translate(30.019911px,29.999495px)}} #elVzG8Ieugd18_to {animation: elVzG8Ieugd18_to__to 9000ms linear infinite normal forwards}@keyframes elVzG8Ieugd18_to__to { 0% {transform: translate(30.019911px,29.999495px)} 77.777778% {transform: translate(30.019911px,29.999495px)} 80% {transform: translate(-6.468406px,-4.659209px)} 91.111111% {transform: translate(-6.468406px,-4.659209px)} 93.333333% {transform: translate(30.019911px,29.999495px)} 100% {transform: translate(30.019911px,29.999495px)}}]]></style><g id="elVzG8Ieugd2_ts" transform="translate(30,30) scale(1,1)"><g id="elVzG8Ieugd2" transform="translate(-30.019911,-29.999495)"><g id="elVzG8Ieugd3_to" transform="translate(30.019911,29.999495)"><g id="elVzG8Ieugd3" transform="translate(-30.019911,-29.999495)"><path id="elVzG8Ieugd4" d="M30.007000,24.958000C28.703000,28.392000,26.339000,30.060000,22.952000,30.031000C20.450000,30.010000,17.168000,28.779000,16.131000,25.052000C16.070000,25.104000,15.984000,25.140000,15.972000,25.193000C15.101000,29.028000,10.310000,31.067000,6.319000,29.521000C4.349000,28.758000,2.888000,27.444000,2.359000,25.347000C2.206000,24.743000,2.252000,23.982000,2.487000,23.405000C3.658000,20.535000,4.937000,17.709000,6.141000,14.852000C6.364000,14.323000,6.644000,14.151000,7.216000,14.151000C22.411000,14.167000,37.607000,14.166000,52.802000,14.156000C53.277000,14.156000,53.587000,14.222000,53.799000,14.726000C55.070000,17.730000,56.402000,20.709000,57.641000,23.726000C57.836000,24.199000,57.789000,24.861000,57.635000,25.370000C56.772000,28.209000,54.645000,29.529000,51.851000,29.981000C48.781000,30.476000,45.459000,28.759000,44.318000,26.094000C44.174000,25.755000,44.070000,25.399000,43.913000,24.949000C42.771000,28.559000,40.197000,30.087000,36.703000,29.997000C33.445000,29.913000,31.060000,28.366000,30.007000,24.958000Z" fill="rgb(86,0,227)" fill-rule="evenodd" stroke="none" stroke-width="1"/><path id="elVzG8Ieugd5" d="M6.173000,57.749000C6.173000,49.692000,6.173000,41.708000,6.173000,33.822000C8.142000,33.822000,10.082000,33.822000,12.133000,33.822000C12.133000,33.955000,12.133000,34.240000,12.133000,34.525000C12.135000,39.167000,12.135000,43.810000,12.138000,48.451000C12.138000,49.616000,12.391000,49.873000,13.572000,49.873000C24.522000,49.877000,35.471000,49.877000,46.422000,49.873000C47.602000,49.873000,47.859000,49.611000,47.859000,48.451000C47.861000,43.836000,47.858000,39.222000,47.856000,34.606000C47.856000,34.292000,47.856000,33.976000,47.856000,33.816000C49.886000,33.816000,51.810000,33.816000,53.792000,33.816000C53.792000,41.680000,53.792000,49.679000,53.792000,57.749000C37.948000,57.749000,22.098000,57.749000,6.173000,57.749000Z" fill="rgb(86,0,227)" fill-rule="evenodd" stroke="none" stroke-width="1"/><path id="elVzG8Ieugd6" d="M53.774000,10.164000C37.905000,10.164000,22.074000,10.164000,6.172000,10.164000C6.172000,8.052000,6.115000,5.984000,6.196000,3.919000C6.235000,2.936000,7.109000,2.291000,8.185000,2.272000C9.752000,2.243000,11.321000,2.251000,12.888000,2.251000C25.674000,2.252000,38.460000,2.257000,51.246000,2.262000C53.180000,2.262000,53.842000,2.913000,53.844000,4.818000C53.847000,6.518000,53.839000,8.217000,53.834000,9.918000C53.835000,9.968000,53.811000,10.020000,53.774000,10.164000Z" fill="rgb(86,0,227)" fill-rule="evenodd" stroke="none" stroke-width="1"/><path id="elVzG8Ieugd7" d="M17.733000,33.889000C25.996000,33.889000,34.258000,33.889000,42.521000,33.889000C42.520000,36.993000,42.520000,40.097000,42.521000,43.201000C42.521000,44.627000,41.365000,45.782000,39.939000,45.782000C33.397000,45.782000,26.856000,45.782000,20.315000,45.782000C18.889000,45.782000,17.733000,44.627000,17.733000,43.201000C17.733000,40.097000,17.733000,36.993000,17.733000,33.889000Z" fill="rgb(58,254,183)" fill-rule="evenodd" stroke="none" stroke-width="1"/></g></g><g id="elVzG8Ieugd8_to" transform="translate(30.019911,29.999495)"><g id="elVzG8Ieugd8" transform="translate(-30.019911,-29.999495)"><path id="elVzG8Ieugd9" d="M30.007000,24.958000C28.703000,28.392000,26.339000,30.060000,22.952000,30.031000C20.450000,30.010000,17.168000,28.779000,16.131000,25.052000C16.070000,25.104000,15.984000,25.140000,15.972000,25.193000C15.101000,29.028000,10.310000,31.067000,6.319000,29.521000C4.349000,28.758000,2.888000,27.444000,2.359000,25.347000C2.206000,24.743000,2.252000,23.982000,2.487000,23.405000C3.658000,20.535000,4.937000,17.709000,6.141000,14.852000C6.364000,14.323000,6.644000,14.151000,7.216000,14.151000C22.411000,14.167000,37.607000,14.166000,52.802000,14.156000C53.277000,14.156000,53.587000,14.222000,53.799000,14.726000C55.070000,17.730000,56.402000,20.709000,57.641000,23.726000C57.836000,24.199000,57.789000,24.861000,57.635000,25.370000C56.772000,28.209000,54.645000,29.529000,51.851000,29.981000C48.781000,30.476000,45.459000,28.759000,44.318000,26.094000C44.174000,25.755000,44.070000,25.399000,43.913000,24.949000C42.771000,28.559000,40.197000,30.087000,36.703000,29.997000C33.445000,29.913000,31.060000,28.366000,30.007000,24.958000Z" fill="rgb(86,0,227)" fill-rule="evenodd" stroke="none" stroke-width="1"/><path id="elVzG8Ieugd10" d="M6.173000,57.749000C6.173000,49.692000,6.173000,41.708000,6.173000,33.822000C8.142000,33.822000,10.082000,33.822000,12.133000,33.822000C12.133000,33.955000,12.133000,34.240000,12.133000,34.525000C12.135000,39.167000,12.135000,43.810000,12.138000,48.451000C12.138000,49.616000,12.391000,49.873000,13.572000,49.873000C24.522000,49.877000,35.471000,49.877000,46.422000,49.873000C47.602000,49.873000,47.859000,49.611000,47.859000,48.451000C47.861000,43.836000,47.858000,39.222000,47.856000,34.606000C47.856000,34.292000,47.856000,33.976000,47.856000,33.816000C49.886000,33.816000,51.810000,33.816000,53.792000,33.816000C53.792000,41.680000,53.792000,49.679000,53.792000,57.749000C37.948000,57.749000,22.098000,57.749000,6.173000,57.749000Z" fill="rgb(86,0,227)" fill-rule="evenodd" stroke="none" stroke-width="1"/><path id="elVzG8Ieugd11" d="M53.774000,10.164000C37.905000,10.164000,22.074000,10.164000,6.172000,10.164000C6.172000,8.052000,6.115000,5.984000,6.196000,3.919000C6.235000,2.936000,7.109000,2.291000,8.185000,2.272000C9.752000,2.243000,11.321000,2.251000,12.888000,2.251000C25.674000,2.252000,38.460000,2.257000,51.246000,2.262000C53.180000,2.262000,53.842000,2.913000,53.844000,4.818000C53.847000,6.518000,53.839000,8.217000,53.834000,9.918000C53.835000,9.968000,53.811000,10.020000,53.774000,10.164000Z" fill="rgb(86,0,227)" fill-rule="evenodd" stroke="none" stroke-width="1"/><path id="elVzG8Ieugd12" d="M17.733000,33.889000C25.996000,33.889000,34.258000,33.889000,42.521000,33.889000C42.520000,36.993000,42.520000,40.097000,42.521000,43.201000C42.521000,44.627000,41.365000,45.782000,39.939000,45.782000C33.397000,45.782000,26.856000,45.782000,20.315000,45.782000C18.889000,45.782000,17.733000,44.627000,17.733000,43.201000C17.733000,40.097000,17.733000,36.993000,17.733000,33.889000Z" fill="rgb(58,254,183)" fill-rule="evenodd" stroke="none" stroke-width="1"/></g></g><g id="elVzG8Ieugd13_to" transform="translate(30.019911,29.999495)"><g id="elVzG8Ieugd13" transform="translate(-30.019911,-29.999495)"><path id="elVzG8Ieugd14" d="M30.007000,24.958000C28.703000,28.392000,26.339000,30.060000,22.952000,30.031000C20.450000,30.010000,17.168000,28.779000,16.131000,25.052000C16.070000,25.104000,15.984000,25.140000,15.972000,25.193000C15.101000,29.028000,10.310000,31.067000,6.319000,29.521000C4.349000,28.758000,2.888000,27.444000,2.359000,25.347000C2.206000,24.743000,2.252000,23.982000,2.487000,23.405000C3.658000,20.535000,4.937000,17.709000,6.141000,14.852000C6.364000,14.323000,6.644000,14.151000,7.216000,14.151000C22.411000,14.167000,37.607000,14.166000,52.802000,14.156000C53.277000,14.156000,53.587000,14.222000,53.799000,14.726000C55.070000,17.730000,56.402000,20.709000,57.641000,23.726000C57.836000,24.199000,57.789000,24.861000,57.635000,25.370000C56.772000,28.209000,54.645000,29.529000,51.851000,29.981000C48.781000,30.476000,45.459000,28.759000,44.318000,26.094000C44.174000,25.755000,44.070000,25.399000,43.913000,24.949000C42.771000,28.559000,40.197000,30.087000,36.703000,29.997000C33.445000,29.913000,31.060000,28.366000,30.007000,24.958000Z" fill="rgb(86,0,227)" fill-rule="evenodd" stroke="none" stroke-width="1"/><path id="elVzG8Ieugd15" d="M6.173000,57.749000C6.173000,49.692000,6.173000,41.708000,6.173000,33.822000C8.142000,33.822000,10.082000,33.822000,12.133000,33.822000C12.133000,33.955000,12.133000,34.240000,12.133000,34.525000C12.135000,39.167000,12.135000,43.810000,12.138000,48.451000C12.138000,49.616000,12.391000,49.873000,13.572000,49.873000C24.522000,49.877000,35.471000,49.877000,46.422000,49.873000C47.602000,49.873000,47.859000,49.611000,47.859000,48.451000C47.861000,43.836000,47.858000,39.222000,47.856000,34.606000C47.856000,34.292000,47.856000,33.976000,47.856000,33.816000C49.886000,33.816000,51.810000,33.816000,53.792000,33.816000C53.792000,41.680000,53.792000,49.679000,53.792000,57.749000C37.948000,57.749000,22.098000,57.749000,6.173000,57.749000Z" fill="rgb(86,0,227)" fill-rule="evenodd" stroke="none" stroke-width="1"/><path id="elVzG8Ieugd16" d="M53.774000,10.164000C37.905000,10.164000,22.074000,10.164000,6.172000,10.164000C6.172000,8.052000,6.115000,5.984000,6.196000,3.919000C6.235000,2.936000,7.109000,2.291000,8.185000,2.272000C9.752000,2.243000,11.321000,2.251000,12.888000,2.251000C25.674000,2.252000,38.460000,2.257000,51.246000,2.262000C53.180000,2.262000,53.842000,2.913000,53.844000,4.818000C53.847000,6.518000,53.839000,8.217000,53.834000,9.918000C53.835000,9.968000,53.811000,10.020000,53.774000,10.164000Z" fill="rgb(86,0,227)" fill-rule="evenodd" stroke="none" stroke-width="1"/><path id="elVzG8Ieugd17" d="M17.733000,33.889000C25.996000,33.889000,34.258000,33.889000,42.521000,33.889000C42.520000,36.993000,42.520000,40.097000,42.521000,43.201000C42.521000,44.627000,41.365000,45.782000,39.939000,45.782000C33.397000,45.782000,26.856000,45.782000,20.315000,45.782000C18.889000,45.782000,17.733000,44.627000,17.733000,43.201000C17.733000,40.097000,17.733000,36.993000,17.733000,33.889000Z" fill="rgb(58,254,183)" fill-rule="evenodd" stroke="none" stroke-width="1"/></g></g><g id="elVzG8Ieugd18_to" transform="translate(30.019911,29.999495)"><g id="elVzG8Ieugd18" transform="translate(-30.019911,-29.999495)"><path id="elVzG8Ieugd19" d="M30.007000,24.958000C28.703000,28.392000,26.339000,30.060000,22.952000,30.031000C20.450000,30.010000,17.168000,28.779000,16.131000,25.052000C16.070000,25.104000,15.984000,25.140000,15.972000,25.193000C15.101000,29.028000,10.310000,31.067000,6.319000,29.521000C4.349000,28.758000,2.888000,27.444000,2.359000,25.347000C2.206000,24.743000,2.252000,23.982000,2.487000,23.405000C3.658000,20.535000,4.937000,17.709000,6.141000,14.852000C6.364000,14.323000,6.644000,14.151000,7.216000,14.151000C22.411000,14.167000,37.607000,14.166000,52.802000,14.156000C53.277000,14.156000,53.587000,14.222000,53.799000,14.726000C55.070000,17.730000,56.402000,20.709000,57.641000,23.726000C57.836000,24.199000,57.789000,24.861000,57.635000,25.370000C56.772000,28.209000,54.645000,29.529000,51.851000,29.981000C48.781000,30.476000,45.459000,28.759000,44.318000,26.094000C44.174000,25.755000,44.070000,25.399000,43.913000,24.949000C42.771000,28.559000,40.197000,30.087000,36.703000,29.997000C33.445000,29.913000,31.060000,28.366000,30.007000,24.958000Z" fill="rgb(86,0,227)" fill-rule="evenodd" stroke="none" stroke-width="1"/><path id="elVzG8Ieugd20" d="M6.173000,57.749000C6.173000,49.692000,6.173000,41.708000,6.173000,33.822000C8.142000,33.822000,10.082000,33.822000,12.133000,33.822000C12.133000,33.955000,12.133000,34.240000,12.133000,34.525000C12.135000,39.167000,12.135000,43.810000,12.138000,48.451000C12.138000,49.616000,12.391000,49.873000,13.572000,49.873000C24.522000,49.877000,35.471000,49.877000,46.422000,49.873000C47.602000,49.873000,47.859000,49.611000,47.859000,48.451000C47.861000,43.836000,47.858000,39.222000,47.856000,34.606000C47.856000,34.292000,47.856000,33.976000,47.856000,33.816000C49.886000,33.816000,51.810000,33.816000,53.792000,33.816000C53.792000,41.680000,53.792000,49.679000,53.792000,57.749000C37.948000,57.749000,22.098000,57.749000,6.173000,57.749000Z" fill="rgb(86,0,227)" fill-rule="evenodd" stroke="none" stroke-width="1"/><path id="elVzG8Ieugd21" d="M53.774000,10.164000C37.905000,10.164000,22.074000,10.164000,6.172000,10.164000C6.172000,8.052000,6.115000,5.984000,6.196000,3.919000C6.235000,2.936000,7.109000,2.291000,8.185000,2.272000C9.752000,2.243000,11.321000,2.251000,12.888000,2.251000C25.674000,2.252000,38.460000,2.257000,51.246000,2.262000C53.180000,2.262000,53.842000,2.913000,53.844000,4.818000C53.847000,6.518000,53.839000,8.217000,53.834000,9.918000C53.835000,9.968000,53.811000,10.020000,53.774000,10.164000Z" fill="rgb(86,0,227)" fill-rule="evenodd" stroke="none" stroke-width="1"/><path id="elVzG8Ieugd22" d="M17.733000,33.889000C25.996000,33.889000,34.258000,33.889000,42.521000,33.889000C42.520000,36.993000,42.520000,40.097000,42.521000,43.201000C42.521000,44.627000,41.365000,45.782000,39.939000,45.782000C33.397000,45.782000,26.856000,45.782000,20.315000,45.782000C18.889000,45.782000,17.733000,44.627000,17.733000,43.201000C17.733000,40.097000,17.733000,36.993000,17.733000,33.889000Z" fill="rgb(58,254,183)" fill-rule="evenodd" stroke="none" stroke-width="1"/></g></g></g></g></svg>