<svg id="erjHEPzf1WS1" xmlns="http://www.w3.org/2000/svg" xmlns:xlink="http://www.w3.org/1999/xlink" viewBox="0 0 40 40" shape-rendering="geometricPrecision" text-rendering="geometricPrecision"><style><![CDATA[#erjHEPzf1WS1{pointer-events: all}#erjHEPzf1WS1.hover #erjHEPzf1WS2_to {animation: erjHEPzf1WS2_to__to 2300ms linear 1 normal forwards}@keyframes erjHEPzf1WS2_to__to { 0% {transform: translate(20px,20px);animation-timing-function: step-end} 4.347826% {transform: translate(20px,20px);animation-timing-function: step-end} 17.391304% {transform: translate(20px,20px)} 26.086957% {transform: translate(20px,20px)} 34.782609% {transform: translate(19.988411px,20px)} 78.260870% {transform: translate(19.997981px,20px)} 82.608696% {transform: translate(19.997981px,20px)} 86.956522% {transform: translate(19.997981px,20px)} 95.652174% {transform: translate(19.997981px,20px)} 100% {transform: translate(19.997981px,20px)}} #erjHEPzf1WS1.hover #erjHEPzf1WS2_ts {animation: erjHEPzf1WS2_ts__ts 2300ms linear 1 normal forwards}@keyframes erjHEPzf1WS2_ts__ts { 0% {transform: scale(1,1);animation-timing-function: step-end} 4.347826% {transform: scale(0.022134,0.022134);animation-timing-function: step-end} 17.391304% {transform: scale(0.060045,0.060045)} 26.086957% {transform: scale(1.048512,1.048512)} 34.782609% {transform: scale(0.999625,0.999625)} 78.260870% {transform: scale(1.000146,1.000146)} 82.608696% {transform: scale(0.808104,0.808104)} 86.956522% {transform: scale(1.052308,1.052308)} 95.652174% {transform: scale(1.000146,1.000146)} 100% {transform: scale(1.000146,1.000146)}} #erjHEPzf1WS1.hover #erjHEPzf1WS3_to {animation: erjHEPzf1WS3_to__to 2300ms linear 1 normal forwards}@keyframes erjHEPzf1WS3_to__to { 0% {transform: translate(22.419812px,17.796386px);animation-timing-function: step-end} 4.347826% {transform: translate(12.339445px,11.947938px);animation-timing-function: step-end} 39.130435% {transform: translate(12.339445px,11.947938px)} 47.826087% {transform: translate(22.285750px,17.796382px)} 56.521739% {transform: translate(22.417337px,17.796382px)} 100% {transform: translate(22.417337px,17.796382px)}} #erjHEPzf1WS1.hover #erjHEPzf1WS3_ts {animation: erjHEPzf1WS3_ts__ts 2300ms linear 1 normal forwards}@keyframes erjHEPzf1WS3_ts__ts { 0% {transform: scale(1,1);animation-timing-function: step-end} 4.347826% {transform: scale(-0.058140,-0.058140);animation-timing-function: step-end} 39.130435% {transform: scale(0.068925,0.068925)} 47.826087% {transform: scale(1.095670,1.095670)} 56.521739% {transform: scale(1.000083,1.000083)} 100% {transform: scale(1.000083,1.000083)}} #erjHEPzf1WS1.hover #erjHEPzf1WS3 {animation: erjHEPzf1WS3_c_o 2300ms linear 1 normal forwards}@keyframes erjHEPzf1WS3_c_o { 0% {opacity: 1;animation-timing-function: step-end} 4.347826% {opacity: 0} 39.130435% {opacity: 0} 47.826087% {opacity: 1} 100% {opacity: 1}} #erjHEPzf1WS1.hover #erjHEPzf1WS4_tr {animation: erjHEPzf1WS4_tr__tr 2300ms linear 1 normal forwards}@keyframes erjHEPzf1WS4_tr__tr { 0% {transform: translate(9.089997px,13.550000px) rotate(0deg);animation-timing-function: step-end} 39.130435% {transform: translate(9.089997px,13.550000px) rotate(0deg)} 69.565217% {transform: translate(9.089997px,13.550000px) rotate(180deg)} 100% {transform: translate(9.089997px,13.550000px) rotate(180deg)}}]]></style><g id="erjHEPzf1WS2_to" transform="translate(20,20)"><g id="erjHEPzf1WS2_ts" transform="scale(1,1)"><g id="erjHEPzf1WS2" transform="translate(-18.355301,-17.796219)"><g id="erjHEPzf1WS3_to" transform="translate(22.419812,17.796386)"><g id="erjHEPzf1WS3_ts" transform="scale(1,1)"><path id="erjHEPzf1WS3" d="M31.850000,3.660000C33.064776,4.361420,33.480981,5.914774,32.779642,7.129596C32.078304,8.344419,30.524978,8.760728,29.310108,8.059471C28.095238,7.358215,27.678825,5.804917,28.380000,4.590000C28.716777,4.006472,29.271592,3.580651,29.922363,3.406237C30.573135,3.231823,31.266540,3.323106,31.850000,3.660000M35.400000,17C36.565565,15.277312,36.977333,13.153454,36.540000,11.120000C36.150000,8.400000,35.750000,5.670000,35.370000,2.950000C35.289128,2.443104,35.101670,1.959123,34.820000,1.530000C33.930193,0.197218,32.234266,-0.338994,30.740000,0.240000L23.080000,3.310000C21.100642,3.949147,19.468012,5.368669,18.560000,7.240000L18.560000,7.320000C21.710718,10.866440,22.246247,16.028209,19.890680,20.145923C17.535112,24.263636,12.814122,26.418374,8.160000,25.500000C8.010180,26.341791,8.412050,27.185719,9.160000,27.600000L22.510000,35.310000C22.971936,35.580293,23.522933,35.654166,24.039753,35.515094C24.556572,35.376023,24.996090,35.035612,25.260000,34.570000Z" transform="translate(-22.419812,-17.796386)" fill="rgb(86,0,227)" fill-rule="evenodd" stroke="none" stroke-width="1"/></g></g><g id="erjHEPzf1WS4_tr" transform="translate(9.089997,13.550000) rotate(0)"><path id="erjHEPzf1WS4" d="M8.300000,19C6.765106,18.756427,5.609992,17.472040,5.530000,15.920000L7.120000,15.920000C7.259669,16.895157,8.138995,17.589825,9.120000,17.500000C10.120000,17.500000,11.120000,17.020000,11.120000,16.080000C11.120000,15.140000,9.560000,14.520000,8.890000,14.300000C6.110000,13.370000,5.530000,12,5.530000,11C5.601131,9.472468,6.778863,8.226707,8.300000,8.070000L8.300000,6.820000L9.880000,6.820000L9.880000,8.090000C11.414894,8.333573,12.570008,9.617960,12.650000,11.170000L11.070000,11.170000C10.930331,10.194843,10.051005,9.500175,9.070000,9.590000C8.070000,9.590000,7.120000,10.070000,7.120000,11C7.120000,11.930000,8.670000,12.570000,9.350000,12.790000C12.080000,13.710000,12.650000,15.080000,12.650000,16.080000C12.578253,17.605451,11.399552,18.847981,9.880000,19L9.880000,20.250000L8.300000,20.250000L8.300000,19M9.090000,22.640000C14.108966,22.639997,18.178155,18.572295,18.179994,13.553330C18.181832,8.534364,14.115624,4.463682,9.096659,4.460002C4.077695,4.456323,0.005521,8.521037,0,13.540000C0.005511,18.557984,4.072016,22.624489,9.090000,22.630000Z" transform="translate(-9.089997,-13.550000)" fill="rgb(45,255,179)" fill-rule="evenodd" stroke="none" stroke-width="1"/></g></g></g></g></svg>
