<svg width="43" height="43" viewBox="0 0 43 43" fill="none" xmlns="http://www.w3.org/2000/svg">
<g clip-path="url(#clip0)">
<path d="M9.86217 19.709H0.896866C0.401783 19.709 0 20.1104 0 20.6043V42.1043C0 42.5989 0.401783 43.0004 0.896866 43.0004H9.86301C10.3581 43.0004 10.7599 42.5989 10.7599 42.1043V20.6043C10.759 20.1104 10.3589 19.709 9.86217 19.709Z" fill="#5600E3"/>
<path d="M24.8904 0H15.9242C15.4291 0 15.0273 0.401445 15.0273 0.896113V42.1047C15.0273 42.5994 15.4291 43.0008 15.9242 43.0008H24.8904C25.3854 43.0008 25.7872 42.5994 25.7872 42.1047V0.896113C25.7864 0.401445 25.3846 0 24.8904 0Z" fill="#2DFFB3"/>
<path d="M39.9548 8.95898H30.9887C30.4936 8.95898 30.0918 9.36043 30.0918 9.8551V42.1051C30.0918 42.5998 30.4936 43.0012 30.9887 43.0012H39.9548C40.4499 43.0012 40.8517 42.5998 40.8517 42.1051V9.8551C40.8508 9.35959 40.449 8.95898 39.9548 8.95898Z" fill="#5600E3"/>
</g>
<defs>
<clipPath id="clip0">
<rect width="43" height="43" fill="white"/>
</clipPath>
</defs>
</svg>
