<?xml version="1.0" encoding="utf-8"?>
<!-- Generator: Moho 13.0.2 build 610 -->
<!DOCTYPE svg PUBLIC "-//W3C//DTD SVG 1.1//EN" "http://www.w3.org/Graphics/SVG/1.1/DTD/svg11.dtd">
<svg version="1.1" id="Frame_0" xmlns="http://www.w3.org/2000/svg" xmlns:xlink="http://www.w3.org/1999/xlink" width="60px" height="60px">
<g id="Frame(2).svg">
<path fill="#2dffb3" fill-rule="evenodd" stroke="none" d="M 41.219 14.665 C 44.034 14.665 46.848 14.665 49.663 14.665 C 50.347 14.665 50.965 14.256 51.232 13.614 C 51.490 12.979 51.349 12.245 50.865 11.761 C 48.050 8.948 45.235 6.135 42.421 3.322 C 41.937 2.838 41.203 2.687 40.568 2.955 C 39.934 3.222 39.517 3.839 39.517 4.524 C 39.517 7.339 39.517 10.155 39.517 12.971 C 39.525 13.898 40.285 14.665 41.219 14.665 Z"/>
<path fill="#5600e3" fill-rule="evenodd" stroke="none" d="M 51.303 18.394 C 46.967 18.393 42.631 18.393 38.295 18.394 C 36.359 18.394 34.780 16.788 34.780 14.797 C 34.780 11.373 34.780 7.949 34.780 4.526 C 34.780 3.540 33.996 2.738 33.033 2.738 C 26.287 2.738 19.542 2.738 12.796 2.738 C 9.797 2.748 7.375 5.227 7.375 8.285 C 7.375 22.660 7.375 37.036 7.375 51.412 C 7.375 54.470 9.797 56.959 12.796 56.959 C 24.410 56.958 36.025 56.958 47.639 56.959 C 50.628 56.959 53.061 54.480 53.061 51.412 C 53.060 40.998 53.060 30.585 53.061 20.171 C 53.051 19.196 52.266 18.394 51.303 18.394 Z"/>
<path fill="#ffffff" fill-rule="evenodd" stroke="none" d="M 30.272 42.858 C 28.723 42.858 27.174 42.858 25.625 42.858 C 25.625 44.781 25.625 46.705 25.625 48.629 C 27.174 48.628 28.723 48.628 30.272 48.629 C 30.272 46.705 30.272 44.781 30.272 42.858 Z"/>
<path fill="#ffffff" fill-rule="evenodd" stroke="none" d="M 30.262 21.147 C 26.668 21.147 23.639 23.067 22.358 26.155 C 22.325 26.233 22.292 26.311 22.259 26.389 C 23.473 27.245 24.688 28.102 25.903 28.959 C 25.956 28.864 26.009 28.769 26.062 28.675 C 26.668 27.618 27.998 25.830 30.113 25.830 C 31.692 25.830 33.291 26.826 33.291 28.736 C 33.291 30.950 30.977 32.231 29.438 33.084 C 29.160 33.236 28.902 33.389 28.683 33.511 C 25.923 35.157 25.536 37.412 25.536 39.606 C 25.535 39.708 25.535 39.809 25.536 39.911 C 27.075 39.911 28.614 39.911 30.153 39.911 C 30.153 39.809 30.153 39.708 30.153 39.606 C 30.153 37.686 31.533 36.894 33.132 35.969 C 33.479 35.766 33.837 35.563 34.174 35.350 C 36.240 34.039 38.156 32.342 38.156 28.807 C 38.166 23.514 34.194 21.147 30.262 21.147 Z"/>
</g>
</svg>
