<?xml version="1.0" encoding="utf-8"?>
<!-- Generator: Moho 13.0.2 build 610 -->
<!DOCTYPE svg PUBLIC "-//W3C//DTD SVG 1.1//EN" "http://www.w3.org/Graphics/SVG/1.1/DTD/svg11.dtd">
<svg version="1.1" id="Frame_0" xmlns="http://www.w3.org/2000/svg" xmlns:xlink="http://www.w3.org/1999/xlink" width="60px" height="60px">
<g id="Layer_1">
<path fill="#5600e3" fill-rule="evenodd" stroke="none" d="M 56.155 48.436 C 56.155 36.227 56.155 24.018 56.155 11.809 C 56.155 8.443 53.405 5.705 50.023 5.705 C 36.802 5.705 23.582 5.705 10.361 5.705 C 6.979 5.705 4.229 8.443 4.229 11.809 C 4.229 24.018 4.229 36.227 4.229 48.436 C 4.229 51.802 6.979 54.540 10.361 54.540 C 23.582 54.540 36.802 54.540 50.023 54.540 C 53.405 54.540 56.155 51.802 56.155 48.436 M 19.588 14.947 C 17.870 14.947 16.493 13.578 16.493 11.867 C 16.493 10.155 17.870 8.785 19.588 8.785 C 21.250 8.785 22.683 10.155 22.683 11.867 C 22.683 13.578 21.308 14.947 19.588 14.947 M 10.361 14.947 C 8.642 14.947 7.266 13.578 7.266 11.867 C 7.266 10.155 8.699 8.785 10.361 8.785 C 12.023 8.785 13.456 10.155 13.456 11.867 C 13.456 13.578 12.081 14.947 10.361 14.947 M 50.023 17.914 C 51.685 17.914 53.118 19.283 53.118 20.994 C 53.117 30.141 53.117 39.288 53.118 48.436 C 53.118 50.090 51.742 51.517 50.023 51.517 C 36.802 51.517 23.582 51.517 10.361 51.517 C 8.699 51.517 7.266 50.147 7.266 48.436 C 7.266 39.288 7.266 30.141 7.266 20.994 C 7.266 19.340 8.642 17.914 10.361 17.914 C 23.582 17.914 36.802 17.914 50.023 17.914 Z"/>
<path fill="#2dffb3" fill-rule="evenodd" stroke="none" d="M 44.005 30.921 C 42.917 30.921 41.885 31.549 41.426 32.461 C 41.273 32.461 41.120 32.461 40.968 32.461 C 40.967 30.426 40.967 28.392 40.968 26.357 C 40.968 24.703 39.592 23.276 37.873 23.276 C 35.828 23.276 33.784 23.276 31.740 23.276 C 31.739 23.428 31.739 23.580 31.740 23.733 C 34.491 25.102 33.403 29.381 30.193 29.381 C 27.098 29.381 25.894 25.273 28.645 23.733 C 28.644 23.580 28.644 23.428 28.645 23.276 C 26.601 23.276 24.557 23.276 22.512 23.276 C 20.850 23.276 19.417 24.645 19.417 26.357 C 19.417 28.392 19.417 30.426 19.417 32.461 C 19.264 32.461 19.112 32.461 18.959 32.461 C 18.501 31.549 17.411 30.921 16.380 30.921 C 14.718 30.921 13.285 32.291 13.285 34.002 C 13.285 35.657 14.660 37.083 16.380 37.083 C 17.469 37.083 18.501 36.456 18.959 35.542 C 19.112 35.542 19.264 35.542 19.417 35.542 C 19.417 37.576 19.417 39.611 19.417 41.647 C 19.417 43.301 20.793 44.728 22.512 44.728 C 24.557 44.728 26.601 44.728 28.645 44.728 C 28.644 44.575 28.644 44.423 28.645 44.271 C 28.359 44.100 28.186 43.986 28.014 43.814 C 26.181 41.989 27.384 38.623 30.135 38.623 C 33.230 38.623 34.434 42.731 31.683 44.271 C 31.683 44.423 31.683 44.575 31.683 44.728 C 33.726 44.728 35.771 44.728 37.815 44.728 C 39.477 44.728 40.910 43.358 40.910 41.647 C 40.910 39.593 40.910 37.539 40.910 35.486 C 41.063 35.485 41.215 35.485 41.369 35.486 C 41.827 36.398 42.917 37.025 43.948 37.025 C 45.610 37.025 47.043 35.657 47.043 33.945 C 47.100 32.291 45.725 30.921 44.005 30.921 Z"/>
</g>
</svg>
