<svg id="eKHzqIc560P1" xmlns="http://www.w3.org/2000/svg" xmlns:xlink="http://www.w3.org/1999/xlink" viewBox="0 0 50 50" shape-rendering="geometricPrecision" text-rendering="geometricPrecision"><style><![CDATA[#eKHzqIc560P1{pointer-events: all}#eKHzqIc560P1.hover #eKHzqIc560P2_ts {animation: eKHzqIc560P2_ts__ts 3000ms linear infinite normal forwards}@keyframes eKHzqIc560P2_ts__ts { 0% {transform: translate(31.767956px,47.237569px) scale(1,1)} 40% {transform: translate(31.767956px,47.237569px) scale(1,1)} 46.666667% {transform: translate(31.767956px,47.237569px) scale(1.050000,0.968750)} 53.333333% {transform: translate(31.767956px,47.237569px) scale(0.974576,1.021605)} 60% {transform: translate(31.767956px,47.237569px) scale(1,1)} 100% {transform: translate(31.767956px,47.237569px) scale(1,1)}} #eKHzqIc560P1.hover #eKHzqIc560P9_ts {animation: eKHzqIc560P9_ts__ts 3000ms linear infinite normal forwards}@keyframes eKHzqIc560P9_ts__ts { 0% {transform: translate(15.469613px,47.790055px) scale(1,1)} 10% {transform: translate(15.469613px,47.790055px) scale(1,1)} 16.666667% {transform: translate(15.469613px,47.790055px) scale(1.050000,0.968750)} 23.333333% {transform: translate(15.469613px,47.790055px) scale(0.974576,1.021605)} 30% {transform: translate(15.469613px,47.790055px) scale(1,1)} 70% {transform: translate(15.469613px,47.790055px) scale(1,1)} 76.666667% {transform: translate(15.469613px,47.790055px) scale(1.050000,0.968750)} 83.333333% {transform: translate(15.469613px,47.790055px) scale(0.974576,1.021605)} 90% {transform: translate(15.469613px,47.790055px) scale(1,1)} 100% {transform: translate(15.469613px,47.790055px) scale(1,1)}} #eKHzqIc560P1.hover #eKHzqIc560P10_tr {animation: eKHzqIc560P10_tr__tr 3000ms linear infinite normal forwards}@keyframes eKHzqIc560P10_tr__tr { 0% {transform: translate(14.779006px,25.828729px) rotate(4.061821deg)} 16.666667% {transform: translate(14.779006px,25.828729px) rotate(4.061821deg)} 23.333333% {transform: translate(14.779006px,25.828729px) rotate(-9.962800deg)} 76.666667% {transform: translate(14.779006px,25.828729px) rotate(-9.962800deg)} 83.333333% {transform: translate(14.779006px,25.828729px) rotate(4.061821deg)} 100% {transform: translate(14.779006px,25.828729px) rotate(4.061821deg)}}]]></style><g id="eKHzqIc560P2_ts" transform="translate(31.767956,47.237569) scale(1,1)"><g id="eKHzqIc560P2" transform="translate(-31.767956,-47.237569)"><g id="eKHzqIc560P3"><path id="eKHzqIc560P4" d="M28.495000,29.950000C28.495000,29.951000,24.814000,40.472000,22.933000,45.720000C22.607000,46.629000,23.241000,47.687000,24.310000,47.687000C24.908000,47.687000,25.471000,47.318000,25.686000,46.722000C27.661000,41.286000,29.637000,35.850000,31.612000,30.415000C31.954000,30.415000,32.296000,30.415000,32.639000,30.415000C34.634000,35.852000,36.629000,41.289000,38.625000,46.727000C38.843000,47.320000,39.404000,47.687000,40.001000,47.687000C41,47.687000,41.728000,46.690000,41.375000,45.716000C39.476000,40.470000,35.760000,29.951000,35.760000,29.950000C35.759000,29.950000,28.496000,29.950000,28.495000,29.950000Z" fill="rgb(45,255,179)" fill-rule="evenodd" stroke="rgb(255,255,255)" stroke-width="0" stroke-linecap="round" stroke-linejoin="round"/><path id="eKHzqIc560P5" d="M15.361000,8.235000C15.360000,5.360000,17.695000,3.025000,20.570000,3.026000C20.570000,3.026000,43.064000,3.026000,43.064000,3.026000C45.939000,3.026000,48.274000,5.360000,48.273000,8.235000C48.273000,8.235000,48.273000,25.077000,48.273000,25.077000C48.273000,27.952000,45.939000,30.287000,43.064000,30.287000C43.064000,30.287000,20.570000,30.287000,20.570000,30.287000C17.695000,30.287000,15.361000,27.952000,15.361000,25.077000C15.361000,25.077000,15.361000,8.235000,15.361000,8.235000Z" fill="rgb(45,255,179)" fill-rule="evenodd" stroke="rgb(255,255,255)" stroke-width="0" stroke-linecap="round" stroke-linejoin="round"/></g><path id="eKHzqIc560P6" d="M42.323000,12.830000C37.093000,12.830000,31.863000,12.830000,26.633000,12.830000C25.824000,12.830000,25.168000,12.173000,25.168000,11.364000C25.168000,10.555000,25.824000,9.898000,26.633000,9.898000C31.863000,9.898000,37.093000,9.898000,42.323000,9.898000C43.133000,9.898000,43.788000,10.555000,43.788000,11.364000C43.788000,12.173000,43.133000,12.830000,42.323000,12.830000Z" fill="rgb(255,255,255)" fill-rule="evenodd" stroke="rgb(255,255,255)" stroke-width="0" stroke-linecap="round" stroke-linejoin="round"/><path id="eKHzqIc560P7" d="M42.193000,17.934000C40.002000,17.934000,37.811000,17.934000,35.620000,17.934000C34.812000,17.934000,34.155000,17.279000,34.155000,16.469000C34.155000,15.659000,34.812000,15.003000,35.620000,15.003000C37.811000,15.002000,40.002000,15.002000,42.193000,15.003000C43.002000,15.003000,43.658000,15.659000,43.658000,16.469000C43.658000,17.279000,43.002000,17.934000,42.193000,17.934000Z" fill="rgb(255,255,255)" fill-rule="evenodd" stroke="rgb(255,255,255)" stroke-width="0" stroke-linecap="round" stroke-linejoin="round"/><path id="eKHzqIc560P8" d="M42.193000,23.430000C40.002000,23.430000,37.811000,23.430000,35.620000,23.430000C34.812000,23.430000,34.155000,22.774000,34.155000,21.965000C34.155000,21.154000,34.812000,20.499000,35.620000,20.499000C37.811000,20.498000,40.002000,20.498000,42.193000,20.499000C43.002000,20.499000,43.658000,21.154000,43.658000,21.965000C43.658000,22.774000,43.002000,23.430000,42.193000,23.430000Z" fill="rgb(255,255,255)" fill-rule="evenodd" stroke="rgb(255,255,255)" stroke-width="0" stroke-linecap="round" stroke-linejoin="round"/></g></g><g id="eKHzqIc560P9_ts" transform="translate(15.469613,47.790055) scale(1,1)"><g id="eKHzqIc560P9" transform="translate(-15.469613,-47.790055)"><g id="eKHzqIc560P10_tr" transform="translate(14.779006,25.828729) rotate(4.061821)"><g id="eKHzqIc560P10" transform="translate(-15.574467,-26.003401)"><path id="eKHzqIc560P11" d="M15.660000,30.077000C15.661000,30.077000,18.874000,31.684000,20.350000,32.423000C21.385000,32.941000,22.595000,32.988000,23.673000,32.549000C24.748000,32.106000,25.577000,31.224000,25.947000,30.130000C25.949000,30.124000,25.951000,30.118000,25.953000,30.113000C26.218000,29.337000,26.216000,28.526000,25.992000,27.786000C27.204000,25.361000,28.416000,22.936000,29.628000,20.511000C29.989000,19.786000,29.696000,18.906000,28.973000,18.544000C28.249000,18.182000,27.369000,18.475000,27.007000,19.199000C25.973000,21.267000,24.940000,23.336000,23.907000,25.404000C22.053000,24.481000,16.970000,21.951000,16.969000,21.951000C16.969000,21.951000,13.038000,22.005000,12.458000,25.290000C11.864000,28.661000,15.660000,30.076000,15.660000,30.077000Z" fill="rgb(255,255,255)" fill-rule="evenodd" stroke="rgb(255,255,255)" stroke-width="6" stroke-linecap="round" stroke-linejoin="round"/><path id="eKHzqIc560P12" d="M15.660000,30.077000C15.661000,30.077000,18.874000,31.684000,20.350000,32.423000C21.385000,32.941000,22.595000,32.988000,23.673000,32.549000C24.748000,32.106000,25.577000,31.224000,25.947000,30.130000C25.949000,30.124000,25.951000,30.118000,25.953000,30.113000C26.218000,29.337000,26.216000,28.526000,25.992000,27.786000C27.204000,25.361000,28.416000,22.936000,29.628000,20.511000C29.989000,19.786000,29.696000,18.906000,28.973000,18.544000C28.249000,18.182000,27.369000,18.475000,27.007000,19.199000C25.973000,21.267000,24.940000,23.336000,23.907000,25.404000C22.053000,24.481000,16.970000,21.951000,16.969000,21.951000C16.969000,21.951000,13.038000,22.005000,12.458000,25.290000C11.864000,28.661000,15.660000,30.076000,15.660000,30.077000Z" fill="rgb(86,0,227)" fill-rule="evenodd" stroke="none" stroke-width="1"/></g></g><path id="eKHzqIc560P13" d="M16.893000,22.144000C16.892000,22.144000,14.181000,20.233000,12.147000,20.152000C11.716000,20.135000,11.284000,20.152000,10.853000,20.152000C12.854000,20.152000,14.639000,19.231000,15.808000,17.788000C16.700000,16.691000,17.234000,15.292000,17.234000,13.768000C17.234000,10.241000,14.377000,7.382000,10.852000,7.382000C7.329000,7.382000,4.472000,10.241000,4.472000,13.768000C4.472000,15.462000,5.131000,17.001000,6.207000,18.143000C7.370000,19.380000,9.021000,20.152000,10.852000,20.152000C8.397000,20.152000,5.998000,21.148000,4.272000,22.880000C2.512000,24.636000,1.542000,26.976000,1.542000,29.469000C1.542000,31.039000,1.542000,32.609000,1.542000,34.179000C1.542000,36.207000,2.858000,37.933000,4.680000,38.547000C4.680000,41.278000,4.680000,44.009000,4.680000,46.740000C4.680000,47.550000,5.336000,48.206000,6.145000,48.206000C9.283000,48.206000,12.421000,48.206000,15.560000,48.206000C16.369000,48.206000,17.025000,47.550000,17.025000,46.740000C17.024000,41.250000,17.025000,30.272000,17.025000,30.270000C17.024000,30.269000,16.893000,22.145000,16.893000,22.144000Z" fill="rgb(86,0,227)" fill-rule="evenodd" stroke="none" stroke-width="1"/></g></g></svg>