<?xml version="1.0" encoding="utf-8"?>
<!-- Generator: Moho 13.0.2 build 610 -->
<!DOCTYPE svg PUBLIC "-//W3C//DTD SVG 1.1//EN" "http://www.w3.org/Graphics/SVG/1.1/DTD/svg11.dtd">
<svg version="1.1" id="Frame_0" xmlns="http://www.w3.org/2000/svg" xmlns:xlink="http://www.w3.org/1999/xlink" width="60px" height="60px">
<g id="Ico_Popular.svg">
<path fill="#5600e3" fill-rule="evenodd" stroke="none" d="M 30.000 56.762 C 45.054 56.762 56.762 45.054 56.762 30.000 C 56.762 14.946 45.054 3.238 30.000 3.238 C 14.946 3.238 3.238 14.946 3.238 30.000 C 3.238 45.054 14.946 56.762 30.000 56.762 Z"/>
<path fill="#2dffb3" fill-rule="evenodd" stroke="none" d="M 27.439 29.134 C 26.095 26.449 24.751 23.764 23.407 21.079 C 22.063 23.764 20.719 26.449 19.375 29.134 C 16.375 29.561 13.374 29.989 10.374 30.416 C 12.534 32.531 14.695 34.645 16.855 36.760 C 16.351 39.729 15.847 42.699 15.343 45.669 C 18.031 44.267 20.719 42.866 23.407 41.464 C 26.095 42.866 28.783 44.267 31.472 45.669 C 30.967 42.699 30.463 39.729 29.960 36.760 C 32.144 34.645 34.328 32.531 36.512 30.416 C 33.488 29.989 30.463 29.561 27.439 29.134 Z"/>
<path fill="#2dffb3" fill-rule="evenodd" stroke="none" d="M 43.433 17.418 C 42.515 15.665 41.598 13.912 40.680 12.159 C 39.763 13.912 38.845 15.665 37.928 17.418 C 35.880 17.697 33.832 17.976 31.784 18.256 C 33.259 19.636 34.733 21.017 36.208 22.398 C 35.863 24.337 35.519 26.276 35.176 28.216 C 37.010 27.300 38.845 26.385 40.680 25.470 C 42.515 26.385 44.350 27.300 46.185 28.216 C 45.841 26.276 45.497 24.337 45.153 22.398 C 46.643 21.017 48.134 19.636 49.626 18.256 C 47.561 17.976 45.497 17.697 43.433 17.418 Z"/>
</g>
</svg>
