<svg width="79" height="76" viewBox="0 0 79 76" fill="none" xmlns="http://www.w3.org/2000/svg">
<g clip-path="url(#clip0)">
<path d="M75.7994 3.1L47.5994 0L46.3994 11.5C45.1994 11.2 44.0994 10.7 42.9994 10.2C42.0994 9.9 40.9994 9.7 39.9994 9.8C38.0994 10 36.3994 11.4 35.6994 13.3C34.4994 16.7 36.7994 20 40.0994 20.4C40.5994 20.5 41.1994 20.4 41.6994 20.3C42.8994 20 44.1994 19.9 45.3994 19.8L44.1994 31.3L55.6994 32.6C55.5994 31.5 55.4994 30.3 55.2994 29.2C55.1994 28.7 55.0994 28.1 55.1994 27.6C55.4994 24.2 58.9994 22 62.2994 23.2C64.1994 23.9 65.4994 25.5 65.6994 27.4C65.8994 28.5 65.6994 29.5 65.2994 30.4C64.8994 31.4 64.3994 32.5 64.0994 33.6L75.5994 34.9L78.6994 6.7C78.8994 4.9 77.5994 3.2 75.7994 3.1Z" fill="#2DFFB3"/>
<path d="M10.7 47.5996C10.4 48.4996 10.4 49.4996 10.6 50.5996C11 52.4996 12.6 53.9996 14.5 54.3996C17.9 55.1996 21.1 52.5996 21.1 49.1996C21.1 48.5996 21 48.0996 20.8 47.5996C20.5 46.3996 20.1 45.1996 19.9 43.9996H31.5V32.5996C30.4 32.7996 29.3 32.9996 28.1 33.4996C27.6 33.6996 27.1 33.7996 26.5 33.7996C23.1 33.7996 20.6 30.6996 21.3 27.1996C21.7 25.2996 23.3 23.7996 25.1 23.2996C26.1 22.9996 27.2 23.0996 28.1 23.3996C29.2 23.6996 30.3 23.9996 31.5 24.2996V12.5996H3.2C1.4 12.5996 0 13.9996 0 15.6996V44.0996H11.6C11.4 45.2996 11.1 46.3996 10.7 47.5996Z" fill="#5600E3"/>
<path d="M54.3 40.6002C54.6 39.7002 54.6 38.6002 54.4 37.5002C53.9 35.7002 52.4 34.2002 50.5 33.8002C47.1 33.0002 44 35.6002 44 38.9002C44 39.5002 44.1 40.0002 44.3 40.5002C44.6 41.7002 45 42.8002 45.2 44.1002H35.5V50.8002C35.9 50.7002 36.4 50.7002 36.9 50.7002C39.7 50.7002 42.3 52.0002 44.1 54.1002C45.8 56.3002 46.5 59.2002 45.8 61.9002C45 65.1002 42.5 67.7002 39.2 68.5002C38.4 68.7002 37.6 68.8002 36.9 68.8002C36.5 68.8002 36 68.8002 35.5 68.7002V75.3002H60C61.8 75.3002 63.2 73.8002 63.2 72.1002V44.1002H53.5C53.6 42.9002 54 41.7002 54.3 40.6002Z" fill="#5600E3"/>
<path d="M38.2 65.0004C40 64.5004 41.6 63.0004 42 61.2004C42.8 57.8004 40.2 54.6004 36.8 54.6004C36.2 54.6004 35.7 54.7004 35.2 54.9004C34 55.2004 32.9 55.6004 31.6 55.8004V48.0004H24.9C25 48.4004 25 48.9004 25 49.4004C25 54.5004 20.9 58.5004 15.9 58.5004C15.2 58.5004 14.4 58.4004 13.7 58.2004C10.4 57.4004 7.8 54.8004 7 51.6004C6.7 50.4004 6.7 49.1004 6.8 47.9004H0V72.4004C0 74.2004 1.5 75.6004 3.2 75.6004H31.6V64.0004C32.8 64.2004 34 64.5004 35.1 64.9004C36 65.2004 37.2 65.3004 38.2 65.0004Z" fill="#5600E3"/>
</g>
<defs>
<clipPath id="clip0">
<rect width="78.7" height="75.7" fill="white"/>
</clipPath>
</defs>
</svg>
