<svg id="eLExJdiBkIC1" xmlns="http://www.w3.org/2000/svg" xmlns:xlink="http://www.w3.org/1999/xlink" viewBox="0 0 40 40" shape-rendering="geometricPrecision" text-rendering="geometricPrecision"><style><![CDATA[#eLExJdiBkIC1{pointer-events: all}#eLExJdiBkIC1.hover #eLExJdiBkIC2_ts {animation: eLExJdiBkIC2_ts__ts 2100ms linear 1 normal forwards}@keyframes eLExJdiBkIC2_ts__ts { 0% {transform: translate(19.992477px,19.993411px) scale(1,1);animation-timing-function: step-end} 76.190476% {transform: translate(19.992477px,19.993411px) scale(1,1)} 80.952381% {transform: translate(19.992477px,19.993411px) scale(0.860810,0.860810)} 85.714286% {transform: translate(19.992477px,19.993411px) scale(1.059758,1.059758)} 95.238095% {transform: translate(19.992477px,19.993411px) scale(0.999805,0.999805)} 100% {transform: translate(19.992477px,19.993411px) scale(0.999805,0.999805)}} #eLExJdiBkIC1.hover #eLExJdiBkIC3_ts {animation: eLExJdiBkIC3_ts__ts 2100ms linear 1 normal forwards}@keyframes eLExJdiBkIC3_ts__ts { 0% {transform: translate(10.764527px,8.225000px) scale(1,1);animation-timing-function: step-end} 4.761905% {transform: translate(10.764527px,8.225000px) scale(0.064545,0.064545)} 14.285714% {transform: translate(10.764527px,8.225000px) scale(1.082839,1.082839)} 23.809524% {transform: translate(10.764527px,8.225000px) scale(0.999971,0.999971)} 100% {transform: translate(10.764527px,8.225000px) scale(0.999971,0.999971)}} #eLExJdiBkIC1.hover #eLExJdiBkIC4_ts {animation: eLExJdiBkIC4_ts__ts 2100ms linear 1 normal forwards}@keyframes eLExJdiBkIC4_ts__ts { 0% {transform: translate(28.450009px,10.765770px) scale(1,1);animation-timing-function: step-end} 4.761905% {transform: translate(28.450009px,10.765770px) scale(0.044516,0.044516)} 28.571429% {transform: translate(28.450009px,10.765770px) scale(1.109211,1.109211)} 38.095238% {transform: translate(28.450009px,10.765770px) scale(1.000141,1.000141)} 100% {transform: translate(28.450009px,10.765770px) scale(1.000141,1.000141)}} #eLExJdiBkIC1.hover #eLExJdiBkIC5_ts {animation: eLExJdiBkIC5_ts__ts 2100ms linear 1 normal forwards}@keyframes eLExJdiBkIC5_ts__ts { 0% {transform: translate(8.225000px,25.927262px) scale(1,1);animation-timing-function: step-end} 4.761905% {transform: translate(8.225000px,25.927262px) scale(0.069512,0.069512)} 57.142857% {transform: translate(8.225000px,25.927262px) scale(1.096646,1.096646)} 66.666667% {transform: translate(8.225000px,25.927262px) scale(1.000227,1.000227)} 100% {transform: translate(8.225000px,25.927262px) scale(1.000227,1.000227)}} #eLExJdiBkIC1.hover #eLExJdiBkIC6_ts {animation: eLExJdiBkIC6_ts__ts 2100ms linear 1 normal forwards}@keyframes eLExJdiBkIC6_ts__ts { 0% {transform: translate(25.914964px,28.465007px) scale(1,1);animation-timing-function: step-end} 4.761905% {transform: translate(25.914964px,28.465007px) scale(0.103622,0.103622)} 42.857143% {transform: translate(25.914964px,28.465007px) scale(1.104704,1.104704)} 52.380952% {transform: translate(25.914964px,28.465007px) scale(1.000021,1.000021)} 100% {transform: translate(25.914964px,28.465007px) scale(1.000021,1.000021)}}]]></style><g id="eLExJdiBkIC2_ts" transform="translate(19.992477,19.993411) scale(1,1)"><g id="eLExJdiBkIC2" transform="translate(-18.344183,-18.345468)"><g id="eLExJdiBkIC3_ts" transform="translate(10.764527,8.225000) scale(1,1)"><path id="eLExJdiBkIC3" d="M5.690000,15.340000C5.635909,13.424407,6.978130,11.751923,8.860000,11.390000C9.853241,11.218897,10.873770,11.449385,11.697064,12.030754C12.520358,12.612124,13.078970,13.496747,13.250000,14.490000C13.291168,14.717566,13.307930,14.948876,13.300000,15.180000L13.300000,16.450000L16.450000,16.450000L16.450000,12C16.449978,11.302485,17.012507,10.735492,17.710000,10.730000L20.090000,10.730000C20.741145,10.777604,21.335412,10.359106,21.510000,9.730000C21.575244,9.356105,21.471192,8.972536,21.225941,8.682870C20.980690,8.393204,20.619535,8.227315,20.240000,8.230000L17.710000,8.230000C17.025671,8.230194,16.466294,7.684135,16.450000,7L16.450000,0L3.800000,0C1.701318,0,0,1.701318,0,3.800000L0,16.450000L5.690000,16.450000Z" transform="translate(-10.764527,-8.225000)" fill="rgb(86,0,227)" fill-rule="evenodd" stroke="none" stroke-width="1"/></g><g id="eLExJdiBkIC4_ts" transform="translate(28.450009,10.765770) scale(1,1)"><path id="eLExJdiBkIC4" d="M32.900000,0L20.240000,0L20.240000,5.690000L21.510000,5.690000C22.629838,5.693879,23.690949,6.191503,24.410000,7.050000C25.141101,7.894345,25.469504,9.014565,25.310000,10.120000C24.935420,11.970491,23.297880,13.293119,21.410000,13.270000L20.240000,13.270000L20.240000,16.450000L24.670000,16.450000C25.367515,16.449978,25.934508,17.012507,25.940000,17.710000L25.940000,20.090000C25.907668,20.736819,26.320113,21.322491,26.940000,21.510000C27.266257,21.571364,27.603524,21.500425,27.877416,21.312828C28.151308,21.125230,28.339325,20.836386,28.400000,20.510000C28.410373,20.423644,28.410373,20.336356,28.400000,20.250000L28.400000,17.710000C28.405440,17.016387,28.966387,16.455440,29.660000,16.450000L36.660000,16.450000L36.660000,3.800000C36.665568,1.714603,34.985339,0.016500,32.900000,0Z" transform="translate(-28.450009,-10.765770)" fill="rgb(45,255,179)" fill-rule="evenodd" stroke="none" stroke-width="1"/></g><g id="eLExJdiBkIC5_ts" transform="translate(8.225000,25.927262) scale(1,1)"><path id="eLExJdiBkIC5" d="M11.390000,27.840000C11.199654,26.734844,11.511191,25.602314,12.240000,24.750000C12.972714,23.889342,14.049749,23.398449,15.180000,23.410000L16.450000,23.410000L16.450000,20.240000L12,20.240000C11.317934,20.229446,10.766032,19.681959,10.750000,19L10.750000,16.600000C10.782332,15.953181,10.369887,15.367509,9.750000,15.180000C9.377303,15.121947,8.997767,15.228630,8.709898,15.472359C8.422028,15.716089,8.254210,16.072833,8.250000,16.450000L8.250000,19C8.239159,19.684182,7.684247,20.234655,7,20.240000L0,20.240000L0,32.900000C-0.000004,33.906906,0.400671,34.872425,1.113598,35.583476C1.826526,36.294527,2.793098,36.692657,3.800000,36.690000L16.450000,36.690000L16.450000,31L15.340000,31C13.427536,31.054946,11.756203,29.717880,11.390000,27.840000Z" transform="translate(-8.225000,-25.927262)" fill="rgb(86,0,227)" fill-rule="evenodd" stroke="none" stroke-width="1"/></g><g id="eLExJdiBkIC6_ts" transform="translate(25.914964,28.465007) scale(1,1)"><path id="eLExJdiBkIC6" d="M31,21.360000C31.046632,23.269671,29.713330,24.936298,27.840000,25.310000C27.620000,25.310000,27.410000,25.310000,27.190000,25.310000C26.183094,25.310004,25.217575,24.909329,24.506524,24.196402C23.795473,23.483474,23.397343,22.516902,23.400000,21.510000L23.400000,20.240000L20.240000,20.240000L20.240000,24.670000C20.240192,25.359851,19.689659,25.923704,19,25.940000L16.450000,25.940000C16.064849,25.926451,15.695292,26.092751,15.450000,26.390000C15.247337,26.606693,15.136266,26.893328,15.140000,27.190000L15.140000,27.430000C15.325668,28.042410,15.900477,28.452988,16.540000,28.430000L19,28.430000C19.693613,28.435440,20.254560,28.996387,20.260000,29.690000L20.260000,36.690000L32.900000,36.690000C33.905985,36.692665,34.871536,36.294218,35.582877,35.582877C36.294218,34.871536,36.692665,33.905985,36.690000,32.900000L36.690000,20.240000L31,20.240000Z" transform="translate(-25.914964,-28.465007)" fill="rgb(86,0,227)" fill-rule="evenodd" stroke="none" stroke-width="1"/></g></g></g></svg>
