<svg width="81" height="72" viewBox="0 0 81 72" fill="none" xmlns="http://www.w3.org/2000/svg">
<path d="M45.5848 21.4835L40.4996 11.3262L35.4144 21.4835L24.0635 23.1015L32.2361 31.1014L30.3292 42.3374L40.4996 37.034L50.67 42.3374L48.763 31.1014L57.0265 23.1015L45.5848 21.4835Z" fill="#2DFFB3"/>
<path d="M71.102 0H9.89798C4.44955 0 0 4.40449 0 9.79775V45.8427C0 51.236 4.44955 55.6404 9.89798 55.6404H27.333V70.382C27.333 71.191 28.0594 71.9101 28.8767 71.9101C29.3307 71.9101 29.6939 71.7303 29.9664 71.4607L45.9484 55.7303H71.102C76.5505 55.7303 81 51.3258 81 45.9326V9.79775C81 4.40449 76.5505 0 71.102 0ZM50.6704 42.3371L40.5 37.0337L30.3296 42.3371L32.2365 31.1011L23.9731 23.191L35.4148 21.4831L40.5 11.236L45.5852 21.4831L56.9361 23.1011L48.6726 31.0112L50.6704 42.3371Z" fill="#5600E3"/>
</svg>
