<svg id="e6QAFrW8V541" xmlns="http://www.w3.org/2000/svg" xmlns:xlink="http://www.w3.org/1999/xlink" viewBox="0 0 86 68" shape-rendering="geometricPrecision" text-rendering="geometricPrecision"><style><![CDATA[#e6QAFrW8V542_ts {animation: e6QAFrW8V542_ts__ts 4000ms linear infinite normal forwards}@keyframes e6QAFrW8V542_ts__ts { 0% {transform: translate(42.999649px,34.000149px) scale(1,1)} 50% {transform: translate(42.999649px,34.000149px) scale(0.900000,0.900000)} 100% {transform: translate(42.999649px,34.000149px) scale(1,1)}} #e6QAFrW8V546 {animation: e6QAFrW8V546_c_o 4000ms linear infinite normal forwards}@keyframes e6QAFrW8V546_c_o { 0% {opacity: 1} 50% {opacity: 0.750000} 100% {opacity: 1}}]]></style><g id="e6QAFrW8V542_ts" transform="translate(42.999649,34.000149) scale(1,1)"><g id="e6QAFrW8V542" transform="translate(-42.999649,-34.000149)"><path id="e6QAFrW8V543" d="M54.812500,25.027900L54.812500,36.833400L55.474000,36.833400C56.702600,36.833400,57.647700,37.777900,57.647700,39.005700L57.647700,65.166800L85.526800,65.166800C85.810300,65.166800,85.999300,64.977900,85.999300,64.694500L85.999300,25.027900C85.999300,24.744600,85.810300,24.555700,85.526800,24.555700L55.285000,24.555700C55.001500,24.555700,54.812500,24.744600,54.812500,25.027900ZM68.988300,60.444500L71.823500,60.444500L71.823500,63.277900L68.988300,63.277900L68.988300,60.444500Z" fill="rgb(45,255,179)" stroke="none" stroke-width="1"/><path id="e6QAFrW8V544" d="M54.812500,39.667000L40.636700,39.667000L40.636700,68.000300L54.812500,68.000300L54.812500,39.667000ZM49.142200,66.111400L46.307000,66.111400L46.307000,63.278100L49.142200,63.278100L49.142200,66.111400Z" fill="rgb(86,0,227)" stroke="none" stroke-width="1"/><path id="e6QAFrW8V545" d="M37.801300,58.555700L29.295800,58.555700L29.295800,63.277900L25.515600,63.277900L25.515600,66.111200L37.801300,66.111200L37.801300,58.555700Z" fill="rgb(86,0,227)" stroke="none" stroke-width="1"/><path id="e6QAFrW8V546" d="M20.318700,55.722200L37.802200,55.722200L37.802200,39.005600C37.802200,37.777800,38.841800,36.833300,39.975800,36.833300L51.978000,36.833300L51.978000,25.027800C51.978000,23.233300,53.490100,21.722200,55.285700,21.722200L75.604400,21.722200L75.604400,3.872220C75.604400,1.700000,73.903300,0,71.729700,0L3.874720,0C1.701100,0,0,1.700000,0,3.872220L0,51.944400C0,54.116700,1.701100,55.816700,3.874720,55.816700L20.318700,55.722200Z" fill="rgb(86,0,227)" stroke="none" stroke-width="1"/></g></g></svg>