<svg id="ev5S1aVA4h91" xmlns="http://www.w3.org/2000/svg" xmlns:xlink="http://www.w3.org/1999/xlink" viewBox="0 0 79 76" shape-rendering="geometricPrecision" text-rendering="geometricPrecision"><style><![CDATA[#ev5S1aVA4h94_to {animation: ev5S1aVA4h94_to__to 4000ms linear infinite normal forwards}@keyframes ev5S1aVA4h94_to__to { 0% {transform: translate(57.048311px,17.450001px)} 50% {transform: translate(54.414739px,17.956674px)} 100% {transform: translate(57.048311px,17.450001px)}} #ev5S1aVA4h94_tr {animation: ev5S1aVA4h94_tr__tr 4000ms linear infinite normal forwards}@keyframes ev5S1aVA4h94_tr__tr { 0% {transform: rotate(0deg)} 50% {transform: rotate(-6.800764deg)} 100% {transform: rotate(0deg)}} #ev5S1aVA4h95_to {animation: ev5S1aVA4h95_to__to 4000ms linear infinite normal forwards}@keyframes ev5S1aVA4h95_to__to { 0% {transform: translate(15.750000px,33.572462px)} 50% {transform: translate(18.147165px,22.602237px)} 100% {transform: translate(15.750000px,33.572462px)}} #ev5S1aVA4h96_to {animation: ev5S1aVA4h96_to__to 4000ms linear infinite normal forwards}@keyframes ev5S1aVA4h96_to__to { 0% {transform: translate(49.350000px,54.477243px)} 50% {transform: translate(59.017240px,53.539956px)} 100% {transform: translate(49.350000px,54.477243px)}} #ev5S1aVA4h97_to {animation: ev5S1aVA4h97_to__to 4000ms linear infinite normal forwards}@keyframes ev5S1aVA4h97_to__to { 0% {transform: translate(21.072863px,61.750401px)} 50% {transform: translate(24.072863px,60.750401px)} 100% {transform: translate(21.072863px,61.750401px)}}]]></style><g id="ev5S1aVA4h92" clip-path="url(#ev5S1aVA4h98)"><g id="ev5S1aVA4h93"><g id="ev5S1aVA4h94_to" transform="translate(57.048311,17.450001)"><g id="ev5S1aVA4h94_tr" transform="rotate(0)"><path id="ev5S1aVA4h94" d="M75.799400,3.100000L47.599400,0L46.399400,11.500000C45.199400,11.200000,44.099400,10.700000,42.999400,10.200000C42.099400,9.900000,40.999400,9.700000,39.999400,9.800000C38.099400,10,36.399400,11.400000,35.699400,13.300000C34.499400,16.700000,36.799400,20,40.099400,20.400000C40.599400,20.500000,41.199400,20.400000,41.699400,20.300000C42.899400,20,44.199400,19.900000,45.399400,19.800000L44.199400,31.300000L55.699400,32.600000C55.599400,31.500000,55.499400,30.300000,55.299400,29.200000C55.199400,28.700000,55.099400,28.100000,55.199400,27.600000C55.499400,24.200000,58.999400,22,62.299400,23.200000C64.199400,23.900000,65.499400,25.500000,65.699400,27.400000C65.899400,28.500000,65.699400,29.500000,65.299400,30.400000C64.899400,31.400000,64.399400,32.500000,64.099400,33.600000L75.599400,34.900000L78.699400,6.700000C78.899400,4.900000,77.599400,3.200000,75.799400,3.100000Z" transform="translate(-57.048311,-17.450001)" fill="rgb(45,255,179)" stroke="none" stroke-width="1"/></g></g><g id="ev5S1aVA4h95_to" transform="translate(15.750000,33.572462)"><path id="ev5S1aVA4h95" d="M10.700000,47.599600C10.400000,48.499600,10.400000,49.499600,10.600000,50.599600C11,52.499600,12.600000,53.999600,14.500000,54.399600C17.900000,55.199600,21.100000,52.599600,21.100000,49.199600C21.100000,48.599600,21,48.099600,20.800000,47.599600C20.500000,46.399600,20.100000,45.199600,19.900000,43.999600L31.500000,43.999600L31.500000,32.599600C30.400000,32.799600,29.300000,32.999600,28.100000,33.499600C27.600000,33.699600,27.100000,33.799600,26.500000,33.799600C23.100000,33.799600,20.600000,30.699600,21.300000,27.199600C21.700000,25.299600,23.300000,23.799600,25.100000,23.299600C26.100000,22.999600,27.200000,23.099600,28.100000,23.399600C29.200000,23.699600,30.300000,23.999600,31.500000,24.299600L31.500000,12.599600L3.200000,12.599600C1.400000,12.599600,0,13.999600,0,15.699600L0,44.099600L11.600000,44.099600C11.400000,45.299600,11.100000,46.399600,10.700000,47.599600Z" transform="translate(-15.750000,-33.572462)" fill="rgb(86,0,227)" stroke="none" stroke-width="1"/></g><g id="ev5S1aVA4h96_to" transform="translate(49.350000,54.477243)"><path id="ev5S1aVA4h96" d="M54.300000,40.600200C54.600000,39.700200,54.600000,38.600200,54.400000,37.500200C53.900000,35.700200,52.400000,34.200200,50.500000,33.800200C47.100000,33.000200,44,35.600200,44,38.900200C44,39.500200,44.100000,40.000200,44.300000,40.500200C44.600000,41.700200,45,42.800200,45.200000,44.100200L35.500000,44.100200L35.500000,50.800200C35.900000,50.700200,36.400000,50.700200,36.900000,50.700200C39.700000,50.700200,42.300000,52.000200,44.100000,54.100200C45.800000,56.300200,46.500000,59.200200,45.800000,61.900200C45,65.100200,42.500000,67.700200,39.200000,68.500200C38.400000,68.700200,37.600000,68.800200,36.900000,68.800200C36.500000,68.800200,36,68.800200,35.500000,68.700200L35.500000,75.300200L60,75.300200C61.800000,75.300200,63.200000,73.800200,63.200000,72.100200L63.200000,44.100200L53.500000,44.100200C53.600000,42.900200,54,41.700200,54.300000,40.600200Z" transform="translate(-49.350000,-54.477243)" fill="rgb(86,0,227)" stroke="none" stroke-width="1"/></g><g id="ev5S1aVA4h97_to" transform="translate(21.072863,61.750401)"><path id="ev5S1aVA4h97" d="M38.200000,65.000400C40,64.500400,41.600000,63.000400,42,61.200400C42.800000,57.800400,40.200000,54.600400,36.800000,54.600400C36.200000,54.600400,35.700000,54.700400,35.200000,54.900400C34,55.200400,32.900000,55.600400,31.600000,55.800400L31.600000,48.000400L24.900000,48.000400C25,48.400400,25,48.900400,25,49.400400C25,54.500400,20.900000,58.500400,15.900000,58.500400C15.200000,58.500400,14.400000,58.400400,13.700000,58.200400C10.400000,57.400400,7.800000,54.800400,7,51.600400C6.700000,50.400400,6.700000,49.100400,6.800000,47.900400L0,47.900400L0,72.400400C0,74.200400,1.500000,75.600400,3.200000,75.600400L31.600000,75.600400L31.600000,64.000400C32.800000,64.200400,34,64.500400,35.100000,64.900400C36,65.200400,37.200000,65.300400,38.200000,65.000400Z" transform="translate(-21.072863,-61.750401)" fill="rgb(86,0,227)" stroke="none" stroke-width="1"/></g></g><clipPath id="ev5S1aVA4h98"><rect id="ev5S1aVA4h99" width="78.700000" height="75.700000" rx="0" ry="0" fill="rgb(255,255,255)" stroke="none" stroke-width="1"/></clipPath></g></svg>