<svg id="er1OVYueiUh1" xmlns="http://www.w3.org/2000/svg" xmlns:xlink="http://www.w3.org/1999/xlink" viewBox="0 0 50 50" shape-rendering="geometricPrecision" text-rendering="geometricPrecision"><style><![CDATA[#er1OVYueiUh1{pointer-events: all}#er1OVYueiUh1.hover #er1OVYueiUh2_ts {animation: er1OVYueiUh2_ts__ts 3000ms linear infinite normal forwards}@keyframes er1OVYueiUh2_ts__ts { 0% {transform: translate(25.988960px,48.665176px) scale(1,1)} 13.333333% {transform: translate(25.988960px,48.665176px) scale(1,1)} 20% {transform: translate(25.988960px,48.665176px) scale(1.035398,0.978571)} 26.666667% {transform: translate(25.988960px,48.665176px) scale(0.982456,1.014085)} 33.333333% {transform: translate(25.988960px,48.665176px) scale(1,1)} 63.333333% {transform: translate(25.988960px,48.665176px) scale(1,1)} 70% {transform: translate(25.988960px,48.665176px) scale(1.035398,0.978571)} 76.666667% {transform: translate(25.988960px,48.665176px) scale(0.982456,1.014085)} 83.333333% {transform: translate(25.988960px,48.665176px) scale(1,1)} 100% {transform: translate(25.988960px,48.665176px) scale(1,1)}} #er1OVYueiUh1.hover #er1OVYueiUh5_tr {animation: er1OVYueiUh5_tr__tr 3000ms linear infinite normal forwards}@keyframes er1OVYueiUh5_tr__tr { 0% {transform: translate(9.813987px,24.296931px) rotate(0deg)} 20% {transform: translate(9.813987px,24.296931px) rotate(0deg)} 26.666667% {transform: translate(9.813987px,24.296931px) rotate(17.055888deg)} 70% {transform: translate(9.813987px,24.296931px) rotate(17.055888deg)} 76.666667% {transform: translate(9.813987px,24.296931px) rotate(0deg)} 100% {transform: translate(9.813987px,24.296931px) rotate(0deg)}}]]></style><g id="er1OVYueiUh2_ts" transform="translate(25.988960,48.665176) scale(1,1)"><g id="er1OVYueiUh2" transform="translate(-25.988960,-48.665176)"><path id="er1OVYueiUh3" d="M25.842000,7.219000C32.206000,7.219000,37.199000,12.065000,37.635000,18.414000C38.128000,25.587000,31.352000,32.499000,25.842000,32.499000C20.332000,32.499000,13.555000,25.587000,14.048000,18.414000C14.484000,12.065000,19.477000,7.219000,25.842000,7.219000Z" fill="rgb(86,0,227)" fill-rule="evenodd" stroke="none" stroke-width="1"/><path id="er1OVYueiUh4" d="M29.991000,34.591000C27.077000,34.591000,24.163000,34.591000,21.249000,34.591000C14.294000,34.591000,8.679000,39.696000,8.679000,46.013000C8.679000,46.566000,8.679000,47.119000,8.679000,47.672000C8.679000,48.246000,9.125000,48.693000,9.700000,48.693000C20.356000,48.692000,31.012000,48.693000,41.669000,48.693000C42.243000,48.693000,42.690000,48.246000,42.690000,47.672000C42.689000,47.119000,42.689000,46.566000,42.690000,46.013000C42.626000,39.696000,36.947000,34.591000,29.991000,34.591000Z" fill="rgb(86,0,227)" fill-rule="evenodd" stroke="none" stroke-width="1"/><g id="er1OVYueiUh5_tr" transform="translate(9.813987,24.296931) rotate(0)"><g id="er1OVYueiUh5" transform="translate(-9.813987,-24.296931)"><path id="er1OVYueiUh6" d="M9.149000,23.452000C9.149000,23.452000,9.140000,24.158000,9.140000,24.158000C9.148000,25.909000,10.615000,27.296000,12.365000,27.321000C12.365000,27.321000,23.236000,27.561000,23.236000,27.561000C23.800000,28.652000,24.988000,29.445000,26.328000,29.470000C28.242000,29.505000,29.865000,28.067000,29.898000,26.281000C29.931000,24.495000,28.363000,22.998000,26.449000,22.962000C24.727000,22.930000,23.286000,24.049000,22.954000,25.578000C22.954000,25.578000,12.695000,25.475000,12.695000,25.475000C11.945000,25.467000,11.309000,24.880000,11.292000,24.130000C11.292000,24.130000,11.301000,23.473000,11.301000,23.473000C11.301000,23.473000,9.149000,23.452000,9.149000,23.452000Z" fill="rgb(45,255,179)" fill-rule="evenodd" stroke="rgb(255,255,255)" stroke-width="3" stroke-linecap="round" stroke-linejoin="round"/><path id="er1OVYueiUh7" d="M9.149000,23.452000C9.149000,23.452000,9.140000,24.158000,9.140000,24.158000C9.148000,25.909000,10.615000,27.296000,12.365000,27.321000C12.365000,27.321000,23.236000,27.561000,23.236000,27.561000C23.800000,28.652000,24.988000,29.445000,26.328000,29.470000C28.242000,29.505000,29.865000,28.067000,29.898000,26.281000C29.931000,24.495000,28.363000,22.998000,26.449000,22.962000C24.727000,22.930000,23.286000,24.049000,22.954000,25.578000C22.954000,25.578000,12.695000,25.475000,12.695000,25.475000C11.945000,25.467000,11.309000,24.880000,11.292000,24.130000C11.292000,24.130000,11.301000,23.473000,11.301000,23.473000C11.301000,23.473000,9.149000,23.452000,9.149000,23.452000Z" fill="rgb(45,255,179)" fill-rule="evenodd" stroke="rgb(0,0,0)" stroke-width="0" stroke-linecap="round" stroke-linejoin="round"/></g></g><path id="er1OVYueiUh8" d="M10.584000,24.475000C10.813000,24.509000,10.903000,24.539000,11.094000,24.539000C11.392000,24.539000,11.690000,24.539000,11.988000,24.539000C12.562000,24.539000,13.009000,24.093000,13.009000,23.518000C13.009000,21.072000,13.009000,18.626000,13.009000,16.180000C13.009000,15.606000,12.562000,15.159000,11.988000,15.159000C11.881000,15.159000,11.775000,15.159000,11.669000,15.159000C11.669000,14.882000,11.669000,14.606000,11.669000,14.329000C11.669000,8.331000,17.475000,3.482000,24.686000,3.482000C25.388000,3.482000,26.090000,3.482000,26.792000,3.482000C33.939000,3.482000,39.809000,8.331000,39.809000,14.329000C39.809000,14.606000,39.809000,14.882000,39.809000,15.159000C39.745000,15.159000,39.681000,15.159000,39.618000,15.159000C39.044000,15.159000,38.597000,15.606000,38.597000,16.180000C38.597000,18.605000,38.597000,21.029000,38.597000,23.454000C38.597000,24.029000,39.044000,24.475000,39.618000,24.475000C39.915000,24.475000,40.213000,24.475000,40.511000,24.475000C43.255000,24.475000,45.552000,22.370000,45.552000,19.817000C45.552000,17.711000,43.957000,15.925000,41.787000,15.350000C41.787000,15.010000,41.787000,14.670000,41.787000,14.329000C41.787000,7.310000,35.023000,1.567000,26.792000,1.567000C26.090000,1.567000,25.388000,1.567000,24.686000,1.567000C16.455000,1.567000,9.691000,7.310000,9.691000,14.393000C9.690000,14.733000,9.690000,15.074000,9.691000,15.414000C7.585000,15.989000,6.053000,17.711000,6.053000,19.881000C6.053000,21.604000,7.408000,23.013000,8.542000,23.837000C9.061000,24.215000,9.809000,24.362000,10.584000,24.475000Z" fill="rgb(45,255,179)" fill-rule="evenodd" stroke="rgb(0,0,0)" stroke-width="0" stroke-linecap="round" stroke-linejoin="round"/></g></g></svg>