<svg width="89" height="73" viewBox="0 0 89 73" fill="none" xmlns="http://www.w3.org/2000/svg">
<g clip-path="url(#clip0)">
<path d="M73.9008 36.2004C73.9008 31.0004 70.0008 26.6004 64.8008 25.9004V46.4004C70.0008 45.8004 73.9008 41.4004 73.9008 36.2004Z" fill="#2DFFB3"/>
<path d="M82.0008 42.2996C82.2008 41.7996 82.7008 41.3996 83.2008 41.3996H88.1008V30.9996H83.2008C82.6008 30.9996 82.1008 30.5996 82.0008 30.0996C81.7008 29.1996 81.3008 28.2996 80.9008 27.3996C80.6008 26.8996 80.7008 26.2996 81.1008 25.8996L84.6008 22.3996L77.3008 15.0996L73.8008 18.5996C73.4008 18.9996 72.8008 19.0996 72.3008 18.7996C71.4008 18.3996 70.5008 17.9996 69.6008 17.6996C69.1008 17.4996 68.7008 16.9996 68.7008 16.4996V11.5996H64.8008V23.2996C71.9008 23.9996 77.1008 30.3996 76.4008 37.4996C75.8008 43.5996 70.9008 48.4996 64.8008 49.0996V60.7996H68.7008V55.8996C68.7008 55.2996 69.1008 54.7996 69.6008 54.6996C70.5008 54.3996 71.4008 53.9996 72.3008 53.5996C72.8008 53.2996 73.4008 53.3996 73.8008 53.7996L77.3008 57.2996L84.6008 49.9996L81.1008 46.4996C80.7008 46.0996 80.6008 45.4996 80.9008 44.9996C81.3008 44.0996 81.7008 43.1996 82.0008 42.2996Z" fill="#2DFFB3"/>
<path d="M23.5 68.4996C23.5 70.5996 25.2 72.3996 27.4 72.3996H58.4C60.5 72.3996 62.3 70.6996 62.3 68.4996V64.5996H23.5V68.4996ZM41.6 67.2996H44.2V69.8996H41.6V67.2996Z" fill="#5600E3"/>
<path d="M23.5 26.8998C23.9 26.5998 24.5 26.1998 24.5 26.1998L26.6 24.7998L28.4 26.4998C29.8 27.9998 31.2 29.3998 32.7 30.7998L34.5 32.5998L33 34.6998C32.6 35.1998 31.9 36.1998 31.9 36.1998C32.3 36.2998 32.8 36.2998 33.2 36.3998H33.3C33.4 36.3998 33.4 36.3998 33.5 36.3998L36.2 36.6998V39.3998V48.0998L33.6 48.4998C33.4 48.4998 33.2 48.5998 33 48.5998C33 48.5998 32 48.7998 31.9 48.7998L33.1 50.4998L33.2 50.5998L33.6 51.1998V52.0998V53.2998L32.7 54.1998C31.3 55.6998 29.8 57.0998 28.4 58.4998L27.5 59.3998H25.1L24.3 58.6998C24 58.4998 23.7 58.2998 23.5 58.0998V61.9998H62.3V10.2998H23.5V26.8998Z" fill="#5600E3"/>
<path d="M58.4 0H27.4C25.3 0 23.5 1.7 23.5 3.9V7.8H62.3V3.9C62.3 1.7 60.5 0 58.4 0Z" fill="#5600E3"/>
<path d="M16.6 48.9998C13.1 48.9998 10.3 46.1998 10.3 42.5998C10.3 39.0998 13.2 36.1998 16.7 36.1998C20.2 36.1998 23 39.0998 23 42.5998C22.9 46.0998 20.1 48.9998 16.6 48.9998ZM32.6 39.3998C31.8 39.2998 31 39.0998 30.2 38.9998C30 38.9998 29.8 38.8998 29.5 38.8998C29.5 38.8998 29.4 38.8998 29.4 38.7998C29.1 37.7998 28.7 36.8998 28.2 35.9998C28.9 34.9998 29.7 33.9998 30.4 32.9998C29 31.4998 27.5 30.0998 26.1 28.5998C26 28.5998 26 28.6998 25.9 28.6998C24.9 29.3998 24 29.9998 23 30.6998C22.9 30.6998 22.9 30.6998 22.9 30.6998C22 30.1998 21.1 29.8998 20.2 29.5998C20.1 29.5998 20.1 29.5998 20.1 29.4998C19.9 28.2998 19.7 27.0998 19.5 25.8998C19.5 25.8998 19.5 25.8998 19.5 25.7998H13.4C13.4 25.9998 13.3 26.1998 13.3 26.3998L13 29.1998C13 29.2998 12.9 29.4998 12.9 29.5998C12.9 29.6998 12.9 29.6998 12.8 29.6998C11.9 29.8998 11 30.2998 10.2 30.7998C10.1 30.8998 10 30.8998 9.9 30.7998C9 30.0998 8 29.4998 7.1 28.7998C7.1 28.7998 7 28.7998 7 28.6998C5.5 30.0998 4.1 31.4998 2.6 32.9998L2.7 33.0998C3.4 34.0998 4.1 34.9998 4.8 35.9998C4.8 35.9998 4.9 36.0998 4.8 36.0998C4.4 36.9998 4 37.8998 3.8 38.8998C3.8 38.8998 3.8 38.9998 3.7 38.9998C3.1 39.0998 2.5 39.1998 1.8 39.2998L0.1 39.5998H0V45.6998C0.2 45.6998 0.4 45.7998 0.6 45.7998C1.5 45.8998 2.4 46.0998 3.2 46.1998C3.3 46.1998 3.5 46.1998 3.6 46.2998C3.6 46.2998 3.7 46.2998 3.7 46.3998C4 47.1998 4.4 48.0998 4.9 48.9998C4.9 49.0998 4.9 49.0998 4.9 49.1998C4.2 50.1998 3.5 51.1998 2.8 52.1998C2.8 52.1998 2.8 52.2998 2.7 52.2998C4.1 53.6998 5.6 55.0998 7 56.5998L7.1 56.4998C8.1 55.7998 9.1 55.0998 10 54.3998C10.1 54.2998 10.1 54.3998 10.2 54.3998C11 54.7998 11.9 55.1998 12.8 55.4998C13 55.5998 13 55.5998 13.1 55.7998C13.3 56.8998 13.5 57.9998 13.7 59.0998V59.1998H19.8C20 57.9998 20.2 56.7998 20.4 55.5998C20.4 55.4998 20.4 55.4998 20.5 55.4998C21.4 55.1998 22.3 54.7998 23.2 54.3998C23.3 54.3998 23.3 54.3998 23.4 54.3998C24.4 55.0998 25.4 55.7998 26.4 56.4998C26.4 56.4998 26.4 56.4998 26.5 56.4998C27.9 55.0998 29.4 53.6998 30.8 52.1998C30.8 52.1998 30.8 52.1998 30.8 52.0998C30.1 51.0998 29.4 50.0998 28.7 49.0998C28.7 48.9998 28.7 48.9998 28.7 48.8998C29.1 48.0998 29.5 47.2998 29.7 46.3998C29.8 46.1998 29.8 46.1998 30 46.0998C30.9 45.9998 31.9 45.7998 32.8 45.6998C33 45.6998 33.2 45.5998 33.4 45.5998V39.4998C33 39.4998 32.8 39.4998 32.6 39.3998Z" fill="#5600E3"/>
</g>
<defs>
<clipPath id="clip0">
<rect width="88.1" height="72.4" fill="white"/>
</clipPath>
</defs>
</svg>
