<?xml version="1.0" encoding="utf-8"?>
<!-- Generator: Moho 13.0.2 build 610 -->
<!DOCTYPE svg PUBLIC "-//W3C//DTD SVG 1.1//EN" "http://www.w3.org/Graphics/SVG/1.1/DTD/svg11.dtd">
<svg version="1.1" id="Frame_0" xmlns="http://www.w3.org/2000/svg" xmlns:xlink="http://www.w3.org/1999/xlink" width="60px" height="60px">
<g id="Group_443.svg">
<path fill="#2dffb3" fill-rule="evenodd" stroke="none" d="M 28.799 23.738 C 28.799 26.922 28.799 30.106 28.799 33.290 C 28.799 34.170 29.512 34.883 30.391 34.883 C 36.759 34.882 43.128 34.882 49.497 34.883 C 50.376 34.883 51.089 34.170 51.089 33.290 C 51.089 30.106 51.089 26.922 51.089 23.738 C 51.089 22.858 50.376 22.145 49.497 22.145 C 43.128 22.145 36.759 22.145 30.391 22.145 C 29.512 22.145 28.799 22.858 28.799 23.738 Z"/>
<path fill="#5600e3" fill-rule="evenodd" stroke="none" d="M 43.128 47.620 C 41.005 47.619 38.882 47.619 36.760 47.620 C 35.880 47.620 35.168 48.333 35.168 49.212 C 35.167 51.334 35.167 53.457 35.168 55.580 C 35.168 56.460 35.880 57.173 36.760 57.173 C 38.882 57.172 41.005 57.172 43.128 57.173 C 44.008 57.173 44.720 56.460 44.720 55.580 C 44.720 53.457 44.720 51.334 44.720 49.212 C 44.720 48.333 44.008 47.620 43.128 47.620 Z"/>
<path fill="#5600e3" fill-rule="evenodd" stroke="none" d="M 35.769 4.420 C 35.769 3.540 35.056 2.827 34.177 2.827 C 32.585 2.827 30.992 2.827 29.401 2.827 C 29.400 4.950 29.400 7.073 29.401 9.196 C 31.523 9.196 33.646 9.196 35.769 9.196 C 35.769 7.604 35.769 6.012 35.769 4.420 Z"/>
<path fill="#5600e3" fill-rule="evenodd" stroke="none" d="M 26.216 2.827 C 19.045 2.827 11.875 2.827 4.704 2.827 C 3.825 2.827 3.112 3.540 3.112 4.420 C 3.112 6.012 3.112 7.604 3.112 9.196 C 10.814 9.196 18.515 9.196 26.216 9.196 C 26.216 7.073 26.216 4.950 26.216 2.827 Z"/>
<path fill="#5600e3" fill-rule="evenodd" stroke="none" d="M 20.835 20.447 C 20.835 21.326 20.122 22.039 19.243 22.039 C 15.989 22.039 12.735 22.039 9.481 22.039 C 8.602 22.039 7.889 21.326 7.889 20.447 C 7.889 19.568 8.602 18.855 9.481 18.855 C 12.735 18.855 15.989 18.855 19.243 18.855 C 20.122 18.855 20.835 19.568 20.835 20.447 M 20.835 26.816 C 20.835 27.695 20.122 28.408 19.243 28.408 C 15.989 28.408 12.735 28.408 9.481 28.408 C 8.602 28.408 7.889 27.695 7.889 26.816 C 7.889 25.936 8.602 25.223 9.481 25.223 C 12.735 25.223 15.989 25.223 19.243 25.223 C 20.122 25.223 20.835 25.936 20.835 26.816 M 20.835 33.184 C 20.835 34.064 20.122 34.777 19.243 34.777 C 15.989 34.776 12.735 34.776 9.481 34.777 C 8.602 34.777 7.889 34.064 7.889 33.184 C 7.889 32.305 8.602 31.592 9.481 31.592 C 12.735 31.592 15.989 31.592 19.243 31.592 C 20.122 31.592 20.835 32.305 20.835 33.184 M 34.177 41.251 C 35.056 41.251 35.769 40.538 35.769 39.659 C 35.769 39.128 35.769 38.597 35.769 38.067 C 33.976 38.067 32.183 38.067 30.391 38.067 C 27.757 38.067 25.615 35.924 25.615 33.290 C 25.614 30.106 25.614 26.922 25.615 23.738 C 25.615 21.104 27.757 18.961 30.391 18.961 C 32.183 18.961 33.976 18.961 35.769 18.961 C 35.769 16.767 35.769 14.574 35.769 12.380 C 24.883 12.380 13.998 12.380 3.112 12.380 C 3.112 21.473 3.112 30.566 3.112 39.659 C 3.112 40.538 3.825 41.251 4.704 41.251 C 14.529 41.251 24.353 41.251 34.177 41.251 Z"/>
<path fill="#2dffb3" fill-rule="evenodd" stroke="none" d="M 54.273 27.196 C 54.273 30.289 54.273 33.382 54.273 36.475 C 54.273 37.353 53.559 38.067 52.681 38.067 C 49.496 38.067 46.312 38.067 43.128 38.067 C 40.494 38.067 38.352 40.210 38.352 42.843 C 38.352 43.374 38.352 43.904 38.352 44.436 C 39.413 44.435 40.474 44.435 41.536 44.436 C 41.536 43.904 41.536 43.374 41.536 42.843 C 41.536 41.965 42.250 41.251 43.128 41.251 C 46.312 41.251 49.496 41.251 52.681 41.251 C 55.315 41.251 57.458 39.109 57.458 36.475 C 57.457 34.882 57.457 33.290 57.458 31.698 C 57.458 29.623 56.126 27.853 54.273 27.196 Z"/>
</g>
</svg>
