<svg id="er2FGQv1PTZ1" xmlns="http://www.w3.org/2000/svg" xmlns:xlink="http://www.w3.org/1999/xlink" viewBox="0 0 50 50" shape-rendering="geometricPrecision" text-rendering="geometricPrecision"><style><![CDATA[#er2FGQv1PTZ1{pointer-events: all}#er2FGQv1PTZ1.hover #er2FGQv1PTZ3_to {animation: er2FGQv1PTZ3_to__to 6000ms linear infinite normal forwards}@keyframes er2FGQv1PTZ3_to__to { 0% {transform: translate(34.285278px,25.121000px)} 33.333333% {transform: translate(13.428722px,25.363500px)} 50% {transform: translate(13.428722px,25.363500px)} 83.333333% {transform: translate(34.285278px,25.121000px)} 100% {transform: translate(34.285278px,25.121000px)}} #er2FGQv1PTZ1.hover #er2FGQv1PTZ3_tr {animation: er2FGQv1PTZ3_tr__tr 6000ms linear infinite normal forwards}@keyframes er2FGQv1PTZ3_tr__tr { 0% {transform: rotate(0deg)} 33.333333% {transform: rotate(-135deg)} 50% {transform: rotate(-135deg)} 83.333333% {transform: rotate(0deg)} 100% {transform: rotate(0deg)}} #er2FGQv1PTZ1.hover #er2FGQv1PTZ11_ts {animation: er2FGQv1PTZ11_ts__ts 6000ms linear infinite normal forwards}@keyframes er2FGQv1PTZ11_ts__ts { 0% {transform: translate(23.845000px,45.581001px) scale(1,1)} 36.666667% {transform: translate(23.845000px,45.581001px) scale(1,1)} 40% {transform: translate(23.845000px,45.581001px) scale(1.093965,0.922540)} 43.333333% {transform: translate(23.845000px,45.581001px) scale(0.910252,1.029616)} 46.666667% {transform: translate(23.845000px,45.581001px) scale(1,1)} 86.666667% {transform: translate(23.845000px,45.581001px) scale(1,1)} 90% {transform: translate(23.845000px,45.581001px) scale(1.093965,0.922540)} 93.333333% {transform: translate(23.845000px,45.581001px) scale(0.910252,1.029616)} 96.666667% {transform: translate(23.845000px,45.581001px) scale(1,1)} 100% {transform: translate(23.845000px,45.581001px) scale(1,1)}} #er2FGQv1PTZ1.hover #er2FGQv1PTZ15_to {animation: er2FGQv1PTZ15_to__to 6000ms linear infinite normal forwards}@keyframes er2FGQv1PTZ15_to__to { 0% {transform: translate(11.393500px,25.319500px)} 33.333333% {transform: translate(34.525002px,25.319500px)} 50% {transform: translate(34.525002px,25.319500px)} 83.333333% {transform: translate(11.393500px,25.319500px)} 100% {transform: translate(11.393500px,25.319500px)}} #er2FGQv1PTZ1.hover #er2FGQv1PTZ15_tr {animation: er2FGQv1PTZ15_tr__tr 6000ms linear infinite normal forwards}@keyframes er2FGQv1PTZ15_tr__tr { 0% {transform: rotate(0deg)} 33.333333% {transform: rotate(180deg)} 50% {transform: rotate(180deg)} 83.333333% {transform: rotate(0deg)} 100% {transform: rotate(0deg)}}]]></style><g id="er2FGQv1PTZ2" transform="matrix(1 0 0 1 1.09604601000001 -0.10282724000000)"><g id="er2FGQv1PTZ3_to" transform="translate(34.285278,25.121000)"><g id="er2FGQv1PTZ3_tr" transform="rotate(0)"><g id="er2FGQv1PTZ3" transform="translate(-34.285278,-25.121000)"><path id="er2FGQv1PTZ4" d="M46.990000,22.661000C46.349000,22.581000,45.707000,22.421000,45.066000,22.341000C44.906000,22.341000,44.746000,22.261000,44.505000,22.261000C44.505000,22.261000,44.425000,22.261000,44.425000,22.180000C44.184000,21.379000,43.864000,20.657000,43.463000,19.936000C44.024000,19.134000,44.665000,18.333000,45.227000,17.531000C44.104000,16.328000,42.902000,15.206000,41.779000,14.004000C41.699000,14.004000,41.699000,14.084000,41.619000,14.084000C40.818000,14.645000,40.096000,15.126000,39.294000,15.687000C39.214000,15.687000,39.214000,15.687000,39.214000,15.687000C38.493000,15.286000,37.771000,15.046000,37.050000,14.805000C36.970000,14.805000,36.970000,14.805000,36.970000,14.725000C36.809000,13.763000,36.649000,12.801000,36.489000,11.839000C36.489000,11.839000,36.489000,11.839000,36.489000,11.759000C34.858000,11.759000,33.228000,11.759000,31.599000,11.759000C31.599000,11.919000,31.518000,12.080000,31.518000,12.240000C31.438000,12.988000,31.358000,13.736000,31.278000,14.485000C31.278000,14.565000,31.198000,14.725000,31.198000,14.805000C31.198000,14.886000,31.198000,14.886000,31.118000,14.885000C30.396000,15.046000,29.675000,15.366000,29.033000,15.767000C28.953000,15.847000,28.873000,15.847000,28.793000,15.767000C28.071000,15.206000,27.270000,14.725000,26.548000,14.164000C26.548000,14.164000,26.468000,14.164000,26.468000,14.084000C25.266000,15.206000,24.143000,16.329000,22.941000,17.531000C22.967000,17.557000,22.994000,17.584000,23.021000,17.611000C23.582000,18.413000,24.143000,19.134000,24.704000,19.936000C24.704000,19.936000,24.785000,20.016000,24.704000,20.016000C24.384000,20.738000,24.063000,21.459000,23.903000,22.261000C23.903000,22.261000,23.903000,22.341000,23.823000,22.341000C23.342000,22.421000,22.861000,22.501000,22.299000,22.581000C21.845000,22.661000,21.391000,22.741000,20.937000,22.822000C20.910000,22.821000,20.883000,22.821000,20.857000,22.822000C20.857000,24.451000,20.856000,26.081000,20.857000,27.712000C21.017000,27.712000,21.177000,27.792000,21.338000,27.792000C22.059000,27.872000,22.780000,28.032000,23.422000,28.113000C23.502000,28.113000,23.662000,28.113000,23.742000,28.193000C23.742000,28.193000,23.823000,28.193000,23.823000,28.273000C24.063000,28.914000,24.384000,29.636000,24.785000,30.357000C24.785000,30.437000,24.785000,30.437000,24.785000,30.518000C24.223000,31.319000,23.662000,32.121000,23.101000,32.922000C23.101000,32.922000,23.101000,33.003000,23.021000,33.003000C24.143000,34.125000,25.346000,35.247000,26.468000,36.450000C26.495000,36.423000,26.521000,36.396000,26.548000,36.370000C27.350000,35.808000,28.151000,35.247000,28.873000,34.686000C28.953000,34.606000,28.953000,34.686000,29.033000,34.686000C29.675000,35.007000,30.396000,35.327000,31.118000,35.568000C31.278000,35.648000,31.278000,35.648000,31.358000,35.808000C31.518000,36.690000,31.679000,37.572000,31.839000,38.454000C31.839000,38.480000,31.839000,38.507000,31.839000,38.534000C33.469000,38.534000,35.099000,38.534000,36.729000,38.534000C36.889000,37.572000,37.050000,36.610000,37.210000,35.648000C37.210000,35.568000,37.210000,35.568000,37.290000,35.568000C38.012000,35.327000,38.733000,35.007000,39.455000,34.686000C39.535000,34.686000,39.535000,34.686000,39.615000,34.686000C40.417000,35.247000,41.218000,35.808000,42.020000,36.370000C42.020000,36.370000,42.020000,36.370000,42.100000,36.370000C43.222000,35.247000,44.425000,34.125000,45.547000,32.922000C45.547000,32.922000,45.547000,32.922000,45.547000,32.842000C44.986000,32.041000,44.425000,31.239000,43.864000,30.437000C43.864000,30.357000,43.864000,30.357000,43.864000,30.277000C44.184000,29.636000,44.505000,28.994000,44.665000,28.273000C44.746000,28.113000,44.746000,28.113000,44.906000,28.032000C45.627000,27.952000,46.429000,27.792000,47.150000,27.712000C47.311000,27.712000,47.471000,27.632000,47.631000,27.632000C47.631000,26.001000,47.631000,24.371000,47.631000,22.742000C47.311000,22.742000,47.150000,22.742000,46.990000,22.661000Z" fill="rgb(45,255,179)" fill-rule="evenodd" stroke="rgb(255,255,255)" stroke-width="4" stroke-linecap="round" stroke-linejoin="round"/><path id="er2FGQv1PTZ5" d="M47.714000,22.691000C47.393000,22.691000,47.233000,22.691000,47.073000,22.611000C46.431000,22.530000,45.790000,22.370000,45.149000,22.290000C44.988000,22.290000,44.828000,22.210000,44.587000,22.210000C44.587000,22.210000,44.507000,22.210000,44.507000,22.130000C44.267000,21.328000,43.946000,20.606000,43.545000,19.885000C44.106000,19.083000,44.748000,18.282000,45.309000,17.480000C44.187000,16.278000,42.984000,15.155000,41.862000,13.953000C41.782000,13.953000,41.782000,14.033000,41.702000,14.033000C40.900000,14.594000,40.178000,15.075000,39.377000,15.636000C39.297000,15.636000,39.297000,15.636000,39.297000,15.636000C38.575000,15.235000,37.854000,14.995000,37.132000,14.754000C37.052000,14.754000,37.052000,14.754000,37.052000,14.674000C36.892000,13.712000,36.731000,12.750000,36.571000,11.788000C36.571000,11.788000,36.571000,11.788000,36.571000,11.708000C34.941000,11.708000,33.311000,11.708000,31.681000,11.708000C31.681000,11.869000,31.601000,12.029000,31.601000,12.189000C31.521000,12.937000,31.440000,13.685000,31.360000,14.434000C31.360000,14.514000,31.280000,14.674000,31.280000,14.754000C31.280000,14.835000,31.280000,14.835000,31.200000,14.835000C30.478000,14.995000,29.757000,15.316000,29.116000,15.716000C29.036000,15.797000,28.955000,15.797000,28.875000,15.716000C28.154000,15.155000,27.352000,14.674000,26.631000,14.113000C26.631000,14.113000,26.550000,14.113000,26.550000,14.033000C25.348000,15.155000,24.226000,16.278000,23.023000,17.480000C23.050000,17.506000,23.077000,17.533000,23.103000,17.560000C23.664000,18.362000,24.226000,19.083000,24.787000,19.885000C24.787000,19.885000,24.867000,19.965000,24.787000,19.965000C24.466000,20.687000,24.145000,21.408000,23.985000,22.210000C23.985000,22.210000,23.985000,22.290000,23.905000,22.290000C23.424000,22.370000,22.943000,22.450000,22.382000,22.530000C21.928000,22.610000,21.473000,22.690000,21.019000,22.771000C20.992000,22.771000,20.966000,22.771000,20.939000,22.771000C20.939000,24.401000,20.939000,26.031000,20.939000,27.661000C21.099000,27.661000,21.260000,27.741000,21.420000,27.741000C22.141000,27.821000,22.863000,27.982000,23.504000,28.062000C23.584000,28.062000,23.745000,28.062000,23.825000,28.142000C23.825000,28.142000,23.905000,28.142000,23.905000,28.222000C24.146000,28.863000,24.466000,29.585000,24.867000,30.306000C24.867000,30.386000,24.867000,30.386000,24.867000,30.467000C24.306000,31.268000,23.745000,32.070000,23.184000,32.872000C23.184000,32.872000,23.184000,32.952000,23.103000,32.952000C24.226000,34.074000,25.428000,35.196000,26.550000,36.399000C26.577000,36.372000,26.604000,36.345000,26.631000,36.319000C27.432000,35.758000,28.234000,35.196000,28.955000,34.635000C29.036000,34.555000,29.036000,34.635000,29.116000,34.635000C29.757000,34.956000,30.478000,35.277000,31.200000,35.517000C31.360000,35.597000,31.360000,35.597000,31.440000,35.758000C31.601000,36.639000,31.761000,37.521000,31.921000,38.403000C31.921000,38.429000,31.921000,38.456000,31.921000,38.483000C33.551000,38.483000,35.181000,38.483000,36.811000,38.483000C36.972000,37.521000,37.132000,36.559000,37.292000,35.597000C37.292000,35.517000,37.292000,35.517000,37.373000,35.517000C38.094000,35.277000,38.816000,34.956000,39.537000,34.635000C39.617000,34.635000,39.617000,34.635000,39.697000,34.635000C40.499000,35.196000,41.301000,35.758000,42.102000,36.319000C42.102000,36.319000,42.102000,36.319000,42.183000,36.319000C43.305000,35.196000,44.507000,34.074000,45.630000,32.872000C45.630000,32.872000,45.630000,32.872000,45.630000,32.791000C45.068000,31.990000,44.507000,31.188000,43.946000,30.386000C43.946000,30.306000,43.946000,30.306000,43.946000,30.226000C44.267000,29.585000,44.587000,28.944000,44.748000,28.222000C44.828000,28.062000,44.828000,28.062000,44.988000,27.982000C45.710000,27.901000,46.511000,27.741000,47.233000,27.661000C47.393000,27.661000,47.554000,27.581000,47.714000,27.581000C47.714000,25.950000,47.714000,24.320000,47.714000,22.691000M39.377000,25.176000C39.297000,27.982000,37.052000,30.306000,34.246000,30.306000C31.440000,30.306000,29.196000,28.062000,29.196000,25.176000C29.196000,22.370000,31.521000,20.045000,34.326000,20.045000C37.132000,20.045000,39.377000,22.370000,39.377000,25.176000Z" fill="rgb(45,255,179)" fill-rule="evenodd" stroke="none" stroke-width="1"/><path id="er2FGQv1PTZ6" d="M34.246000,30.306000C31.440000,30.306000,29.196000,28.062000,29.196000,25.176000" fill="none" stroke="rgb(45,255,179)" stroke-width="1" stroke-linejoin="round"/><path id="er2FGQv1PTZ7" d="M29.196000,25.176000C29.196000,22.370000,31.521000,20.045000,34.326000,20.045000" fill="none" stroke="rgb(45,255,179)" stroke-width="1" stroke-linejoin="round"/><path id="er2FGQv1PTZ8" d="M34.326000,20.045000C37.132000,20.045000,39.377000,22.370000,39.377000,25.176000" fill="none" stroke="rgb(45,255,179)" stroke-width="1" stroke-linejoin="round"/><path id="er2FGQv1PTZ9" d="M39.377000,25.176000C39.297000,27.982000,37.052000,30.306000,34.246000,30.306000" fill="none" stroke="rgb(45,255,179)" stroke-width="1" stroke-linejoin="round"/><path id="er2FGQv1PTZ10" d="M34.246000,30.306000C31.440000,30.306000,29.196000,28.062000,29.196000,25.176000C29.196000,22.370000,31.521000,20.045000,34.326000,20.045000C37.132000,20.045000,39.377000,22.370000,39.377000,25.176000C39.297000,27.982000,37.052000,30.306000,34.246000,30.306000Z" fill="rgb(45,255,179)" fill-rule="evenodd" stroke="rgb(255,255,255)" stroke-width="2" stroke-linecap="round" stroke-linejoin="round"/></g></g></g><g id="er2FGQv1PTZ11_ts" transform="translate(23.845000,45.581001) scale(1,1)"><g id="er2FGQv1PTZ11" transform="translate(-23.845000,-45.581001)"><path id="er2FGQv1PTZ12" d="M23.129000,44.204000C23.129000,43.727000,23.129000,43.250000,23.129000,42.773000C23.606000,42.773000,24.083000,42.773000,24.561000,42.773000C24.560000,43.250000,24.560000,43.727000,24.561000,44.204000C24.083000,44.204000,23.606000,44.204000,23.129000,44.204000M13.165000,41.287000C13.165000,42.002000,13.165000,42.718000,13.165000,43.434000C13.165000,44.590000,14.101000,45.581000,15.312000,45.581000C21,45.580000,26.689000,45.580000,32.378000,45.581000C33.534000,45.581000,34.525000,44.645000,34.525000,43.434000C34.525000,42.718000,34.525000,42.002000,34.525000,41.287000C27.405000,41.286000,20.285000,41.286000,13.165000,41.287000Z" fill="rgb(86,0,227)" fill-rule="evenodd" stroke="none" stroke-width="1"/><path id="er2FGQv1PTZ13" d="M13.165000,39.855000C20.285000,39.855000,27.405000,39.855000,34.525000,39.855000C34.525000,30.368000,34.525000,20.881000,34.525000,11.394000C27.405000,11.394000,20.285000,11.394000,13.165000,11.394000C13.165000,14.440000,13.165000,39.139000,13.165000,39.855000Z" fill="rgb(86,0,227)" fill-rule="evenodd" stroke="none" stroke-width="1"/><path id="er2FGQv1PTZ14" d="M32.378000,5.724000C26.689000,5.724000,21,5.724000,15.312000,5.724000C14.156000,5.724000,13.165000,6.660000,13.165000,7.871000C13.165000,8.586000,13.165000,9.302000,13.165000,10.018000C20.285000,10.018000,27.405000,10.018000,34.525000,10.018000C34.525000,9.302000,34.525000,8.586000,34.525000,7.871000C34.525000,6.660000,33.534000,5.724000,32.378000,5.724000Z" fill="rgb(86,0,227)" fill-rule="evenodd" stroke="none" stroke-width="1"/></g></g><g id="er2FGQv1PTZ15_to" transform="translate(11.393500,25.319500)"><g id="er2FGQv1PTZ15_tr" transform="rotate(0)"><g id="er2FGQv1PTZ15" transform="translate(-11.393500,-25.319500)"><path id="er2FGQv1PTZ16" d="M20.147000,23.656000C19.707000,23.601000,19.266000,23.491000,18.826000,23.436000C18.716000,23.436000,18.606000,23.381000,18.440000,23.381000C18.440000,23.381000,18.385000,23.381000,18.385000,23.326000C18.220000,22.776000,18,22.280000,17.725000,21.785000C18.110000,21.234000,18.550000,20.684000,18.936000,20.133000C18.165000,19.307000,17.339000,18.537000,16.569000,17.711000C16.514000,17.711000,16.514000,17.766000,16.459000,17.766000C15.908000,18.151000,15.413000,18.482000,14.862000,18.867000C14.807000,18.867000,14.807000,18.867000,14.807000,18.867000C14.312000,18.592000,13.816000,18.427000,13.321000,18.261000C13.266000,18.261000,13.266000,18.261000,13.266000,18.206000C13.155000,17.546000,13.045000,16.885000,12.935000,16.224000C12.935000,16.224000,12.935000,16.224000,12.935000,16.169000C11.816000,16.169000,10.696000,16.169000,9.577000,16.169000C9.577000,16.280000,9.522000,16.390000,9.522000,16.500000C9.467000,17.013000,9.412000,17.527000,9.357000,18.041000C9.357000,18.096000,9.302000,18.206000,9.302000,18.261000C9.302000,18.316000,9.302000,18.316000,9.247000,18.316000C8.751000,18.427000,8.256000,18.647000,7.815000,18.922000C7.760000,18.977000,7.705000,18.977000,7.650000,18.922000C7.155000,18.537000,6.604000,18.206000,6.109000,17.821000C6.109000,17.821000,6.054000,17.821000,6.054000,17.766000C5.228000,18.537000,4.457000,19.307000,3.632000,20.133000C3.650000,20.151000,3.668000,20.170000,3.687000,20.188000C4.072000,20.739000,4.457000,21.234000,4.843000,21.785000C4.843000,21.785000,4.898000,21.840000,4.843000,21.840000C4.622000,22.335000,4.402000,22.831000,4.292000,23.381000C4.292000,23.381000,4.292000,23.436000,4.237000,23.436000C3.907000,23.491000,3.577000,23.546000,3.191000,23.601000C2.879000,23.656000,2.567000,23.711000,2.255000,23.767000C2.237000,23.766000,2.219000,23.766000,2.200000,23.767000C2.200000,24.886000,2.200000,26.005000,2.200000,27.125000C2.310000,27.125000,2.420000,27.180000,2.531000,27.180000C3.026000,27.235000,3.521000,27.345000,3.962000,27.400000C4.017000,27.400000,4.127000,27.400000,4.182000,27.455000C4.182000,27.455000,4.237000,27.455000,4.237000,27.510000C4.402000,27.950000,4.622000,28.446000,4.898000,28.941000C4.898000,28.996000,4.898000,28.996000,4.898000,29.051000C4.512000,29.602000,4.127000,30.153000,3.742000,30.703000C3.742000,30.703000,3.742000,30.758000,3.687000,30.758000C4.457000,31.529000,5.283000,32.300000,6.054000,33.125000C6.072000,33.107000,6.090000,33.088000,6.109000,33.070000C6.659000,32.685000,7.210000,32.300000,7.705000,31.914000C7.760000,31.859000,7.760000,31.914000,7.815000,31.914000C8.256000,32.134000,8.751000,32.355000,9.247000,32.520000C9.357000,32.575000,9.357000,32.575000,9.412000,32.685000C9.522000,33.290000,9.632000,33.896000,9.742000,34.502000C9.742000,34.520000,9.742000,34.538000,9.742000,34.557000C10.862000,34.556000,11.981000,34.556000,13.100000,34.557000C13.210000,33.896000,13.321000,33.235000,13.431000,32.575000C13.431000,32.520000,13.431000,32.520000,13.486000,32.520000C13.981000,32.355000,14.477000,32.134000,14.972000,31.914000C15.027000,31.914000,15.027000,31.914000,15.082000,31.914000C15.633000,32.300000,16.183000,32.685000,16.734000,33.070000C16.734000,33.070000,16.734000,33.070000,16.789000,33.070000C17.560000,32.300000,18.385000,31.529000,19.156000,30.703000C19.156000,30.703000,19.156000,30.703000,19.156000,30.648000C18.771000,30.097000,18.385000,29.547000,18,28.996000C18,28.941000,18,28.941000,18,28.886000C18.220000,28.446000,18.440000,28.005000,18.550000,27.510000C18.606000,27.400000,18.606000,27.400000,18.716000,27.345000C19.211000,27.290000,19.762000,27.180000,20.257000,27.125000C20.367000,27.125000,20.477000,27.070000,20.587000,27.070000C20.587000,25.950000,20.587000,24.831000,20.587000,23.711000C20.367000,23.711000,20.257000,23.711000,20.147000,23.656000Z" fill="rgb(86,0,227)" fill-rule="evenodd" stroke="rgb(255,255,255)" stroke-width="4" stroke-linecap="round" stroke-linejoin="round"/><path id="er2FGQv1PTZ17" d="M20.587000,23.624000C20.367000,23.624000,20.257000,23.624000,20.147000,23.569000C19.707000,23.514000,19.266000,23.404000,18.826000,23.349000C18.716000,23.349000,18.606000,23.294000,18.440000,23.294000C18.440000,23.294000,18.385000,23.294000,18.385000,23.239000C18.220000,22.688000,18,22.193000,17.725000,21.697000C18.110000,21.147000,18.550000,20.596000,18.936000,20.046000C18.165000,19.220000,17.339000,18.449000,16.569000,17.623000C16.514000,17.623000,16.514000,17.678000,16.459000,17.678000C15.908000,18.064000,15.413000,18.394000,14.862000,18.779000C14.807000,18.779000,14.807000,18.779000,14.807000,18.779000C14.312000,18.504000,13.816000,18.339000,13.321000,18.174000C13.266000,18.174000,13.266000,18.174000,13.266000,18.119000C13.155000,17.458000,13.045000,16.798000,12.935000,16.137000C12.935000,16.137000,12.935000,16.137000,12.935000,16.082000C11.816000,16.082000,10.696000,16.082000,9.577000,16.082000C9.577000,16.192000,9.522000,16.302000,9.522000,16.412000C9.467000,16.926000,9.412000,17.440000,9.357000,17.954000C9.357000,18.009000,9.302000,18.119000,9.302000,18.174000C9.302000,18.229000,9.302000,18.229000,9.247000,18.229000C8.751000,18.339000,8.256000,18.559000,7.815000,18.834000C7.760000,18.889000,7.705000,18.889000,7.650000,18.834000C7.155000,18.449000,6.604000,18.119000,6.109000,17.733000C6.109000,17.733000,6.054000,17.733000,6.054000,17.678000C5.228000,18.449000,4.457000,19.220000,3.632000,20.046000C3.650000,20.064000,3.668000,20.082000,3.687000,20.101000C4.072000,20.651000,4.457000,21.147000,4.843000,21.697000C4.843000,21.697000,4.898000,21.752000,4.843000,21.752000C4.622000,22.248000,4.402000,22.743000,4.292000,23.294000C4.292000,23.294000,4.292000,23.349000,4.237000,23.349000C3.907000,23.404000,3.577000,23.459000,3.191000,23.514000C2.879000,23.569000,2.567000,23.624000,2.255000,23.679000C2.237000,23.679000,2.219000,23.679000,2.200000,23.679000C2.200000,24.798000,2.200000,25.917000,2.200000,27.037000C2.310000,27.037000,2.420000,27.092000,2.531000,27.092000C3.026000,27.147000,3.521000,27.257000,3.962000,27.312000C4.017000,27.312000,4.127000,27.312000,4.182000,27.367000C4.182000,27.367000,4.237000,27.367000,4.237000,27.422000C4.402000,27.863000,4.622000,28.358000,4.898000,28.854000C4.898000,28.909000,4.898000,28.909000,4.898000,28.964000C4.512000,29.514000,4.127000,30.065000,3.742000,30.615000C3.742000,30.615000,3.742000,30.670000,3.687000,30.670000C4.457000,31.441000,5.283000,32.212000,6.054000,33.038000C6.072000,33.019000,6.090000,33.001000,6.109000,32.983000C6.659000,32.597000,7.210000,32.212000,7.705000,31.827000C7.760000,31.771000,7.760000,31.827000,7.815000,31.827000C8.256000,32.047000,8.751000,32.267000,9.247000,32.432000C9.357000,32.487000,9.357000,32.487000,9.412000,32.597000C9.522000,33.203000,9.632000,33.808000,9.742000,34.414000C9.742000,34.432000,9.742000,34.450000,9.742000,34.469000C10.862000,34.469000,11.981000,34.469000,13.100000,34.469000C13.210000,33.808000,13.321000,33.148000,13.431000,32.487000C13.431000,32.432000,13.431000,32.432000,13.486000,32.432000C13.981000,32.267000,14.477000,32.047000,14.972000,31.827000C15.027000,31.827000,15.027000,31.827000,15.082000,31.827000C15.633000,32.212000,16.183000,32.597000,16.734000,32.983000C16.734000,32.983000,16.734000,32.983000,16.789000,32.983000C17.560000,32.212000,18.385000,31.441000,19.156000,30.615000C19.156000,30.615000,19.156000,30.615000,19.156000,30.560000C18.771000,30.010000,18.385000,29.459000,18,28.909000C18,28.854000,18,28.854000,18,28.799000C18.220000,28.358000,18.440000,27.918000,18.550000,27.422000C18.606000,27.312000,18.606000,27.312000,18.716000,27.257000C19.211000,27.202000,19.762000,27.092000,20.257000,27.037000C20.367000,27.037000,20.477000,26.982000,20.587000,26.982000C20.587000,25.862000,20.587000,24.743000,20.587000,23.624000M14.862000,25.330000C14.807000,27.257000,13.266000,28.854000,11.339000,28.854000C9.412000,28.854000,7.871000,27.312000,7.871000,25.330000C7.871000,23.404000,9.467000,21.807000,11.394000,21.807000C13.321000,21.807000,14.862000,23.404000,14.862000,25.330000Z" fill="rgb(86,0,227)" fill-rule="evenodd" stroke="none" stroke-width="1"/><path id="er2FGQv1PTZ18" d="M11.339000,28.854000C9.412000,28.854000,7.871000,27.312000,7.871000,25.330000" fill="none" stroke="rgb(255,255,255)" stroke-width="1" stroke-linejoin="round"/><path id="er2FGQv1PTZ19" d="M7.871000,25.330000C7.871000,23.404000,9.467000,21.807000,11.394000,21.807000" fill="none" stroke="rgb(255,255,255)" stroke-width="1" stroke-linejoin="round"/><path id="er2FGQv1PTZ20" d="M11.394000,21.807000C13.321000,21.807000,14.862000,23.404000,14.862000,25.330000" fill="none" stroke="rgb(255,255,255)" stroke-width="1" stroke-linejoin="round"/><path id="er2FGQv1PTZ21" d="M14.862000,25.330000C14.807000,27.257000,13.266000,28.854000,11.339000,28.854000" fill="none" stroke="rgb(255,255,255)" stroke-width="1" stroke-linejoin="round"/><path id="er2FGQv1PTZ22" d="M11.339000,28.854000C9.412000,28.854000,7.871000,27.312000,7.871000,25.330000C7.871000,23.404000,9.467000,21.807000,11.394000,21.807000C13.321000,21.807000,14.862000,23.404000,14.862000,25.330000C14.807000,27.257000,13.266000,28.854000,11.339000,28.854000Z" fill="rgb(255,255,255)" fill-rule="evenodd" stroke="none" stroke-width="1"/></g></g></g></g></svg>