<?xml version="1.0" encoding="utf-8"?>
<!-- Generator: Moho 13.0.2 build 610 -->
<!DOCTYPE svg PUBLIC "-//W3C//DTD SVG 1.1//EN" "http://www.w3.org/Graphics/SVG/1.1/DTD/svg11.dtd">
<svg version="1.1" id="Frame_0" xmlns="http://www.w3.org/2000/svg" xmlns:xlink="http://www.w3.org/1999/xlink" width="60px" height="60px">
<g id="icon-services.svg">
<path fill="#5600e3" fill-rule="evenodd" stroke="#000000" stroke-width="0" stroke-linecap="round" stroke-linejoin="round" d="M 26.189 36.900 C 26.189 43.368 31.540 48.611 38.141 48.611 C 44.742 48.611 50.093 43.368 50.093 36.900 C 50.093 30.432 44.742 25.189 38.141 25.189 C 31.540 25.189 26.189 30.432 26.189 36.900 M 57.027 51.419 C 57.026 53.611 55.196 55.406 52.957 55.406 C 43.079 55.405 33.201 55.405 23.323 55.406 C 21.086 55.406 19.254 53.611 19.254 51.419 C 19.254 41.739 19.254 32.061 19.254 22.382 C 19.254 20.190 21.086 18.395 23.323 18.395 C 33.201 18.395 43.080 18.395 52.958 18.395 C 55.196 18.395 57.027 20.190 57.027 22.382 C 57.027 32.061 57.027 41.739 57.027 51.419 Z"/>
<path fill="#2dffb3" fill-rule="evenodd" stroke="#000000" stroke-width="0" stroke-linecap="round" stroke-linejoin="round" d="M 38.141 43.647 C 41.944 43.647 45.027 40.626 45.027 36.900 C 45.027 33.173 41.944 30.152 38.141 30.152 C 34.337 30.152 31.254 33.173 31.254 36.900 C 31.254 40.626 34.337 43.647 38.141 43.647 Z"/>
<path fill="#5600e3" fill-rule="evenodd" stroke="#000000" stroke-width="0" stroke-linecap="round" stroke-linejoin="round" d="M 15.045 22.382 C 15.045 17.909 18.759 14.270 23.324 14.270 C 26.941 14.270 30.559 14.270 34.177 14.270 C 34.176 12.374 34.176 10.477 34.177 8.581 C 34.176 6.389 32.345 4.594 30.107 4.594 C 22.418 4.594 14.730 4.594 7.042 4.594 C 4.804 4.594 2.973 6.389 2.973 8.581 C 2.973 16.114 2.973 23.647 2.973 31.181 C 2.973 33.373 4.804 35.168 7.042 35.168 C 9.709 35.167 12.377 35.167 15.045 35.168 C 15.045 30.905 15.045 26.643 15.045 22.382 Z"/>
</g>
</svg>
