<?xml version="1.0" encoding="utf-8"?>
<!-- Generator: Moho 13.0.2 build 610 -->
<!DOCTYPE svg PUBLIC "-//W3C//DTD SVG 1.1//EN" "http://www.w3.org/Graphics/SVG/1.1/DTD/svg11.dtd">
<svg version="1.1" id="Frame_0" xmlns="http://www.w3.org/2000/svg" xmlns:xlink="http://www.w3.org/1999/xlink" width="40px" height="40px">
<g id="icon-comments.svg">
<path fill="#2dffb3" fill-rule="evenodd" stroke="none" d="M 28.066 10.098 C 22.970 10.098 17.874 10.098 12.778 10.098 C 12.743 10.098 12.708 10.098 12.668 10.098 C 11.318 10.128 10.244 11.242 10.274 12.590 C 10.304 13.933 11.423 15.002 12.778 14.972 C 17.874 14.972 22.970 14.972 28.066 14.972 C 28.101 14.972 28.137 14.972 28.177 14.972 C 29.526 14.942 30.600 13.829 30.570 12.480 C 30.535 11.137 29.416 10.068 28.066 10.098 Z"/>
<path fill="#2dffb3" fill-rule="evenodd" stroke="none" d="M 28.066 18.602 C 22.970 18.602 17.874 18.602 12.778 18.602 C 12.743 18.602 12.713 18.602 12.677 18.602 C 11.328 18.632 10.254 19.741 10.279 21.089 C 10.304 22.437 11.423 23.506 12.778 23.481 C 17.874 23.481 22.970 23.481 28.066 23.481 C 29.416 23.481 30.510 22.392 30.515 21.044 C 30.515 19.696 29.416 18.602 28.066 18.602 Z"/>
<path fill="#5600e3" fill-rule="evenodd" stroke="none" d="M 30.570 12.480 C 30.595 13.828 29.526 14.942 28.176 14.972 C 28.141 14.972 28.106 14.972 28.066 14.972 C 22.970 14.972 17.874 14.972 12.778 14.972 C 11.428 15.002 10.304 13.933 10.274 12.590 C 10.244 11.246 11.318 10.128 12.667 10.098 C 12.703 10.098 12.738 10.098 12.778 10.098 C 17.874 10.098 22.970 10.098 28.066 10.098 C 29.416 10.068 30.540 11.136 30.570 12.480 M 30.515 21.044 C 30.510 22.388 29.416 23.476 28.066 23.481 C 22.970 23.481 17.874 23.481 12.778 23.481 C 11.423 23.506 10.304 22.438 10.279 21.089 C 10.254 19.746 11.328 18.632 12.677 18.602 C 12.713 18.602 12.743 18.602 12.778 18.602 C 17.874 18.602 22.970 18.602 28.066 18.602 C 29.421 18.602 30.514 19.696 30.515 21.044 M 38.881 6.392 C 38.871 4.444 37.246 2.828 35.289 2.828 C 25.097 2.828 14.906 2.828 4.714 2.828 C 2.758 2.828 1.129 4.444 1.119 6.392 C 1.083 13.410 1.084 20.429 1.119 27.448 C 1.129 29.395 2.758 31.022 4.714 31.022 C 5.269 31.022 5.824 31.022 6.379 31.022 C 6.379 32.631 6.379 34.241 6.379 35.850 C 6.387 36.866 7.218 37.688 8.242 37.681 C 8.628 37.677 9.004 37.556 9.315 37.334 C 12.183 35.231 15.051 33.128 17.920 31.026 C 23.709 31.026 29.499 31.026 35.289 31.026 C 37.246 31.026 38.871 29.399 38.881 27.452 C 38.916 20.431 38.916 13.411 38.881 6.392 Z"/>
</g>
</svg>
