<?xml version="1.0" encoding="utf-8"?>
<!-- Generator: Moho 13.0.2 build 610 -->
<!DOCTYPE svg PUBLIC "-//W3C//DTD SVG 1.1//EN" "http://www.w3.org/Graphics/SVG/1.1/DTD/svg11.dtd">
<svg version="1.1" id="Frame_0" xmlns="http://www.w3.org/2000/svg" xmlns:xlink="http://www.w3.org/1999/xlink" width="60px" height="60px">
<g id="Group_488.svg">
<path fill="#5600e3" fill-rule="evenodd" stroke="none" d="M 46.906 20.930 C 45.579 13.961 41.639 8.804 35.402 5.470 C 31.029 3.130 26.342 2.459 21.451 3.310 C 15.913 4.275 11.412 7.013 7.913 11.376 C 5.301 14.632 3.761 18.367 3.294 22.522 C 2.874 26.264 3.348 29.895 4.781 33.388 C 5.689 35.604 6.898 37.642 8.580 39.576 C 8.351 39.750 8.159 39.866 8.004 40.019 C 6.563 41.434 5.126 42.851 3.695 44.277 C 3.207 44.764 2.997 45.336 3.256 46.022 C 3.516 46.710 4.060 46.980 4.744 47.041 C 4.943 47.059 5.143 47.055 5.343 47.056 C 11.721 47.091 18.099 47.136 24.476 47.152 C 25.613 47.156 26.759 47.119 27.886 46.981 C 33.368 46.310 38.012 43.925 41.655 39.797 C 46.432 34.386 48.260 28.041 46.906 20.930 Z"/>
<path fill="#2dffb3" fill-rule="evenodd" stroke="none" d="M 49.655 18.371 C 56.676 24.076 60.744 38.148 51.559 49.071 C 51.701 49.222 51.844 49.382 51.995 49.532 C 53.410 50.943 54.825 52.356 56.247 53.762 C 56.790 54.298 57.067 54.899 56.744 55.648 C 56.435 56.366 55.834 56.606 55.096 56.609 C 48.259 56.639 41.421 56.717 34.585 56.690 C 28.998 56.667 24.133 54.672 19.943 50.995 C 19.720 50.800 19.472 50.633 19.234 50.452 C 19.272 50.385 19.311 50.316 19.349 50.249 C 19.557 50.249 19.764 50.249 19.972 50.249 C 22.150 50.252 24.334 50.363 26.505 50.238 C 34.372 49.782 40.716 46.375 45.460 40.092 C 49.350 34.944 50.919 29.090 50.368 22.679 C 50.240 21.218 49.893 19.776 49.655 18.371 Z"/>
<path fill="#ffffff" fill-rule="evenodd" stroke="none" d="M 22.427 15.647 C 23.073 16.687 22.664 17.683 22.664 17.683 C 22.664 17.683 20.844 19.703 20.644 20.171 C 20.445 20.639 20.630 21.043 20.630 21.043 C 22.656 23.614 24.874 26.152 27.466 28.688 C 27.466 28.688 27.863 28.939 28.329 28.763 C 28.794 28.587 31.034 27.070 31.034 27.070 C 31.034 27.070 32.086 26.738 33.024 27.511 C 34.023 28.295 35.948 31.099 35.935 31.972 C 35.982 32.853 34.630 35.073 32.231 35.627 C 25.956 37.002 12.170 21.631 14.266 15.534 C 15.071 13.227 17.425 12.166 18.287 12.241 C 19.209 12.325 21.720 14.599 22.427 15.647 Z"/>
</g>
</svg>
