<svg width="50" height="60" viewBox="0 0 50 60" fill="none" xmlns="http://www.w3.org/2000/svg">
<g clip-path="url(#clip0)">
<path d="M30.4517 42.2812H19.3854C10.5809 42.2812 3.47266 48.7242 3.47266 56.6974V58.7913C3.47266 59.5161 4.03808 60.0799 4.76506 60.0799H45.2336C45.9605 60.0799 46.526 59.5161 46.526 58.7913V56.6974C46.4452 48.7242 39.2562 42.2812 30.4517 42.2812Z" fill="#5600E3"/>
<path d="M45.2342 17.396V16.1074C45.2342 7.24832 36.6721 0 26.252 0H23.5864C13.1664 0 4.6042 7.24832 4.6042 16.1879V17.4765C1.93861 18.2013 0 20.3758 0 23.1141C0 25.2886 1.29241 27.1409 3.15024 28.1074V28.2685C3.15024 30.9262 5.49273 33.1007 8.31987 33.1007H20.6785C21.4055 34.4698 22.9402 35.4362 24.6365 35.4362C27.0598 35.4362 29.0792 33.5839 29.0792 31.3289C29.0792 29.0738 27.0598 27.2215 24.6365 27.2215C22.4556 27.2215 20.6785 28.6711 20.2746 30.604H8.31987C7.10824 30.604 6.05816 29.8792 5.73506 28.9128C5.97738 28.9128 6.13893 28.9933 6.38126 28.9933H7.51212C8.23909 28.9933 8.80452 28.4295 8.80452 27.7047V18.443C8.80452 17.7181 8.23909 17.1544 7.51212 17.1544H7.10824V16.1074C7.10824 8.53691 14.4588 2.41611 23.5864 2.41611H26.252C35.2989 2.41611 42.7302 8.53691 42.7302 16.1074V17.1544H42.4879C41.7609 17.1544 41.1955 17.7181 41.1955 18.443V27.6242C41.1955 28.349 41.7609 28.9128 42.4879 28.9128H43.6187C47.0921 28.9128 50 26.255 50 23.0336C50 20.3758 47.9806 18.1208 45.2342 17.396Z" fill="#2DFFB3"/>
<path d="M24.7182 37.8521C22.618 37.8521 20.6794 36.9662 19.4677 35.5165H16.7214C19.0639 37.691 21.891 39.1407 24.9605 39.1407C33.5227 39.1407 39.9847 28.0266 39.9847 20.7782C39.9039 13.3689 33.1996 7.24805 24.8797 7.24805C16.6406 7.24805 9.85547 13.3689 9.85547 20.8588C9.85547 23.0333 10.4209 25.5299 11.471 28.0266H18.5792C19.7908 26.0131 22.0526 24.644 24.6374 24.644C28.4338 24.644 31.5841 27.6239 31.5841 31.248C31.6648 34.8722 28.5146 37.8521 24.7182 37.8521Z" fill="#5600E3"/>
</g>
<defs>
<clipPath id="clip0">
<rect width="50" height="60" fill="white"/>
</clipPath>
</defs>
</svg>
