<svg cache-id="7376a95aa4ed4686b7c0d7cea9ce7eb9" id="eeDBL9jbhFI1" xmlns="http://www.w3.org/2000/svg" xmlns:xlink="http://www.w3.org/1999/xlink" viewBox="0 0 59.991000 59.991000" shape-rendering="geometricPrecision" text-rendering="geometricPrecision"><style><![CDATA[#eeDBL9jbhFI1{pointer-events: all}#eeDBL9jbhFI1.hover #eeDBL9jbhFI2_ts {animation: eeDBL9jbhFI2_ts__ts 2000ms linear 1 normal forwards}@keyframes eeDBL9jbhFI2_ts__ts { 0% {transform: translate(29.610000px,29.798502px) scale(1.000399,1.000399);animation-timing-function: step-end} 5% {transform: translate(29.610000px,29.798502px) scale(0.007598,0.007598)} 10% {transform: translate(29.610000px,29.798502px) scale(0.007598,0.007598)} 20% {transform: translate(29.610000px,29.798502px) scale(1.051184,1.051184)} 30% {transform: translate(29.610000px,29.798502px) scale(1.000399,1.000399)} 95% {transform: translate(29.610000px,29.798502px) scale(1.000399,1.000399)} 100% {transform: translate(29.610000px,29.798502px) scale(1.000399,1.000399)}} #eeDBL9jbhFI1.hover #eeDBL9jbhFI3_ts {animation: eeDBL9jbhFI3_ts__ts 2000ms linear 1 normal forwards}@keyframes eeDBL9jbhFI3_ts__ts { 0% {transform: translate(34.978773px,34.222456px) scale(0.984963,1.060709);animation-timing-function: step-end} 5% {transform: translate(34.978773px,34.222456px) scale(0.002592,1.060709)} 40% {transform: translate(34.978773px,34.222456px) scale(0.002592,1.060709)} 55% {transform: translate(34.978773px,34.222456px) scale(0.984963,1.060709)} 100% {transform: translate(34.978773px,34.222456px) scale(0.984963,1.060709)}} #eeDBL9jbhFI1.hover #eeDBL9jbhFI4_ts {animation: eeDBL9jbhFI4_ts__ts 2000ms linear 1 normal forwards}@keyframes eeDBL9jbhFI4_ts__ts { 0% {transform: translate(34.978722px,29.528174px) scale(0.984963,1.060709);animation-timing-function: step-end} 5% {transform: translate(34.978722px,29.528174px) scale(0.007835,1.060709);animation-timing-function: step-end} 45% {transform: translate(34.978722px,29.528174px) scale(0.000692,1.060709)} 60% {transform: translate(34.978722px,29.528174px) scale(0.984963,1.060709)} 100% {transform: translate(34.978722px,29.528174px) scale(0.984963,1.060709)}} #eeDBL9jbhFI1.hover #eeDBL9jbhFI5_ts {animation: eeDBL9jbhFI5_ts__ts 2000ms linear 1 normal forwards}@keyframes eeDBL9jbhFI5_ts__ts { 0% {transform: translate(34.928469px,38.913259px) scale(0.984963,1.060709);animation-timing-function: step-end} 5% {transform: translate(34.928469px,38.913259px) scale(-0.004131,1.060709);animation-timing-function: step-end} 35% {transform: translate(34.928469px,38.913259px) scale(-0.004131,1.060709)} 50% {transform: translate(34.928469px,38.913259px) scale(0.984963,1.060709)} 100% {transform: translate(34.928469px,38.913259px) scale(0.984963,1.060709)}} #eeDBL9jbhFI1.hover #eeDBL9jbhFI9_tr {animation: eeDBL9jbhFI9_tr__tr 2000ms linear 1 normal forwards}@keyframes eeDBL9jbhFI9_tr__tr { 0% {transform: translate(46.747000px,15.207000px) rotate(242.576867deg);animation-timing-function: step-end} 5% {transform: translate(46.747000px,15.207000px) rotate(0deg);animation-timing-function: step-end} 35% {transform: translate(46.747000px,15.207000px) rotate(0deg)} 80% {transform: translate(46.747000px,15.207000px) rotate(124.105123deg)} 100% {transform: translate(46.747000px,15.207000px) rotate(124.105123deg)}} #eeDBL9jbhFI1.hover #eeDBL9jbhFI12_ts {animation: eeDBL9jbhFI12_ts__ts 2000ms linear 1 normal forwards}@keyframes eeDBL9jbhFI12_ts__ts { 0% {transform: translate(21.655038px,30.068999px) scale(1,1);animation-timing-function: step-end} 5% {transform: translate(21.655038px,30.068999px) scale(-0.001440,-0.001440);animation-timing-function: step-end} 60% {transform: translate(21.655038px,30.068999px) scale(-0.001440,-0.001440)} 70% {transform: translate(21.655038px,30.068999px) scale(1.267648,1.267648)} 80% {transform: translate(21.655038px,30.068999px) scale(1,1)} 100% {transform: translate(21.655038px,30.068999px) scale(1,1)}}]]></style><g id="eeDBL9jbhFI2_ts" transform="translate(29.610000,29.798502) scale(1.000399,1.000399)"><g id="eeDBL9jbhFI2" transform="translate(-29.610000,-29.798502)"><g id="eeDBL9jbhFI3_ts" transform="translate(34.978773,34.222456) scale(0.984963,1.060709)"><path id="eeDBL9jbhFI3" d="M47.598000,31.915000C42.988000,31.915000,38.378000,31.915000,33.768000,31.915000C33.768000,32.839000,33.768000,33.763000,33.768000,34.687000C38.378000,34.687000,42.988000,34.687000,47.598000,34.687000C47.598000,33.763000,47.598000,32.839000,47.598000,31.915000Z" transform="translate(-33.819073,-33.301000)" fill="rgb(86,0,227)" fill-rule="evenodd" stroke="none" stroke-width="1"/></g><g id="eeDBL9jbhFI4_ts" transform="translate(34.978722,29.528174) scale(0.984963,1.060709)"><path id="eeDBL9jbhFI4" d="M47.598000,26.671000C42.988000,26.671000,38.378000,26.671000,33.768000,26.671000C33.768000,27.595000,33.768000,28.519000,33.768000,29.444000C38.378000,29.443000,42.988000,29.443000,47.598000,29.444000C47.598000,28.519000,47.598000,27.595000,47.598000,26.671000Z" transform="translate(-33.819021,-28.057500)" fill="rgb(86,0,227)" fill-rule="evenodd" stroke="none" stroke-width="1"/></g><g id="eeDBL9jbhFI5_ts" transform="translate(34.928469,38.913259) scale(0.984963,1.060709)"><path id="eeDBL9jbhFI5" d="M47.598000,37.142000C42.988000,37.142000,38.378000,37.142000,33.768000,37.142000C33.768000,38.066000,33.768000,38.990000,33.768000,39.915000C38.378000,39.914000,42.988000,39.914000,47.598000,39.915000C47.598000,38.990000,47.598000,38.066000,47.598000,37.142000Z" transform="translate(-33.768001,-38.528500)" fill="rgb(86,0,227)" fill-rule="evenodd" stroke="none" stroke-width="1"/></g><g id="eeDBL9jbhFI6"><path id="eeDBL9jbhFI7" d="M2.492000,50.792000C2.492000,51.802000,3.260000,52.646000,4.224000,52.646000C21.138000,52.645000,38.052000,52.645000,54.966000,52.646000C55.930000,52.646000,56.728000,51.802000,56.728000,50.792000C56.728000,50.189000,56.728000,49.587000,56.728000,48.985000C38.649000,48.984000,20.570000,48.984000,2.492000,48.985000C2.492000,49.587000,2.492000,50.189000,2.492000,50.792000Z" fill="rgb(86,0,227)" fill-rule="evenodd" stroke="none" stroke-width="1"/><path id="eeDBL9jbhFI8" d="M50.582000,42.913000C50.582000,43.395000,50.190000,43.847000,49.738000,43.847000C36.319000,43.846000,22.901000,43.846000,9.482000,43.847000C8.985000,43.847000,8.593000,43.410000,8.593000,42.913000C8.593000,33.130000,8.593000,23.347000,8.593000,13.565000C8.593000,13.037000,8.985000,12.630000,9.482000,12.630000C18.225000,12.630000,26.968000,12.630000,35.712000,12.630000C36.028000,11.305000,36.570000,10.069000,37.309000,8.954000C28.239000,8.954000,19.169000,8.954000,10.100000,8.954000C7.373000,8.954000,5.098000,11.290000,5.098000,14.197000C5.098000,24.989000,5.098000,35.781000,5.098000,46.574000C5.098000,47.056000,5.490000,47.508000,5.987000,47.508000C21.730000,47.507000,37.474000,47.507000,53.218000,47.508000C53.670000,47.508000,54.062000,47.071000,54.062000,46.574000C54.061000,38.980000,54.061000,31.387000,54.062000,23.794000C53.037000,24.653000,51.847000,25.346000,50.567000,25.798000C50.566000,31.503000,50.566000,37.207000,50.567000,42.913000C50.571000,42.912000,50.576000,42.912000,50.582000,42.913000Z" transform="matrix(1 0 0 1 0.03000018806760 -0.17349988497129)" fill="rgb(86,0,227)" fill-rule="evenodd" stroke="none" stroke-width="1"/></g><g id="eeDBL9jbhFI9_tr" transform="translate(46.747000,15.207000) rotate(242.576867)"><g id="eeDBL9jbhFI9" transform="translate(-46.747000,-15.207000)"><path id="eeDBL9jbhFI10" d="M45.670000,17.708000C46.960000,16.874000,48.250000,16.041000,49.542000,15.207000C48.250000,14.373000,46.960000,13.540000,45.670000,12.706000C45.669000,14.373000,45.669000,16.041000,45.670000,17.708000Z" fill="rgb(45,255,179)" fill-rule="evenodd" stroke="none" stroke-width="1"/><path id="eeDBL9jbhFI11" d="M51.681000,14.438000C52.269000,14.815000,52.269000,15.613000,51.696000,15.975000C49.531000,17.371000,47.367000,18.767000,45.203000,20.163000C44.600000,20.525000,43.772000,20.088000,43.772000,19.395000C43.771000,16.603000,43.771000,13.810000,43.772000,11.018000C43.772000,10.250000,44.676000,9.843000,45.278000,10.295000C47.412000,11.676000,49.546000,13.057000,51.681000,14.438000M55.086000,15.207000C55.086000,10.657000,51.320000,6.951000,46.725000,6.951000C42.114000,6.951000,38.408000,10.657000,38.408000,15.207000C38.408000,19.756000,42.114000,23.463000,46.725000,23.463000C51.335000,23.463000,55.086000,19.756000,55.086000,15.207000Z" fill="rgb(45,255,179)" fill-rule="evenodd" stroke="none" stroke-width="1"/></g></g><g id="eeDBL9jbhFI12_ts" transform="translate(21.655038,30.068999) scale(1,1)"><g id="eeDBL9jbhFI12" transform="translate(-21.655038,-30.068999)"><path id="eeDBL9jbhFI13" d="M21.670000,30.499000C24.442000,30.499000,26.687000,28.149000,26.687000,25.241000C26.687000,22.333000,24.442000,19.983000,21.670000,19.983000C18.898000,19.983000,16.653000,22.333000,16.653000,25.241000C16.653000,28.149000,18.898000,30.499000,21.670000,30.499000Z" fill="rgb(86,0,227)" fill-rule="evenodd" stroke="none" stroke-width="1"/><path id="eeDBL9jbhFI14" d="M24.171000,32.261000C22.499000,32.260000,20.826000,32.260000,19.154000,32.261000C14.725000,32.261000,12.450000,35.289000,12.450000,38.844000C12.450000,39.135000,12.450000,39.427000,12.450000,39.718000C12.450000,39.959000,12.631000,40.155000,12.872000,40.155000C18.727000,40.155000,24.583000,40.155000,30.439000,40.155000C30.664000,40.155000,30.860000,39.959000,30.860000,39.718000C30.860000,39.427000,30.860000,39.135000,30.860000,38.844000C30.875000,35.289000,28.600000,32.261000,24.171000,32.261000Z" fill="rgb(86,0,227)" fill-rule="evenodd" stroke="none" stroke-width="1"/></g></g></g></g></svg>