<?xml version="1.0" encoding="utf-8"?>
<!-- Generator: Moho 13.0.2 build 610 -->
<!DOCTYPE svg PUBLIC "-//W3C//DTD SVG 1.1//EN" "http://www.w3.org/Graphics/SVG/1.1/DTD/svg11.dtd">
<svg version="1.1" id="Frame_0" xmlns="http://www.w3.org/2000/svg" xmlns:xlink="http://www.w3.org/1999/xlink" width="60px" height="60px">
<g id="Group_451.svg">
<path fill="#5600e3" fill-rule="evenodd" stroke="none" d="M 2.492 50.792 C 2.492 51.802 3.260 52.646 4.224 52.646 C 21.138 52.645 38.052 52.645 54.966 52.646 C 55.930 52.646 56.728 51.802 56.728 50.792 C 56.728 50.189 56.728 49.587 56.728 48.985 C 38.649 48.984 20.570 48.984 2.492 48.985 C 2.492 49.587 2.492 50.189 2.492 50.792 Z"/>
<path fill="#5600e3" fill-rule="evenodd" stroke="none" d="M 21.670 30.499 C 24.442 30.499 26.687 28.149 26.687 25.241 C 26.687 22.333 24.442 19.983 21.670 19.983 C 18.898 19.983 16.653 22.333 16.653 25.241 C 16.653 28.149 18.898 30.499 21.670 30.499 Z"/>
<path fill="#5600e3" fill-rule="evenodd" stroke="none" d="M 24.171 32.261 C 22.499 32.260 20.826 32.260 19.154 32.261 C 14.725 32.261 12.450 35.289 12.450 38.844 C 12.450 39.135 12.450 39.427 12.450 39.718 C 12.450 39.959 12.631 40.155 12.872 40.155 C 18.727 40.155 24.583 40.155 30.439 40.155 C 30.664 40.155 30.860 39.959 30.860 39.718 C 30.860 39.427 30.860 39.135 30.860 38.844 C 30.875 35.289 28.600 32.261 24.171 32.261 Z"/>
<path fill="#5600e3" fill-rule="evenodd" stroke="none" d="M 47.598 31.915 C 42.988 31.915 38.378 31.915 33.768 31.915 C 33.768 32.839 33.768 33.763 33.768 34.687 C 38.378 34.687 42.988 34.687 47.598 34.687 C 47.598 33.763 47.598 32.839 47.598 31.915 Z"/>
<path fill="#5600e3" fill-rule="evenodd" stroke="none" d="M 47.598 26.671 C 42.988 26.671 38.378 26.671 33.768 26.671 C 33.768 27.595 33.768 28.519 33.768 29.444 C 38.378 29.443 42.988 29.443 47.598 29.444 C 47.598 28.519 47.598 27.595 47.598 26.671 Z"/>
<path fill="#5600e3" fill-rule="evenodd" stroke="none" d="M 47.598 37.142 C 42.988 37.142 38.378 37.142 33.768 37.142 C 33.768 38.066 33.768 38.990 33.768 39.915 C 38.378 39.914 42.988 39.914 47.598 39.915 C 47.598 38.990 47.598 38.066 47.598 37.142 Z"/>
<path fill="#5600e3" fill-rule="evenodd" stroke="none" d="M 50.582 42.913 C 50.582 43.395 50.190 43.847 49.738 43.847 C 36.319 43.846 22.901 43.846 9.482 43.847 C 8.985 43.847 8.593 43.410 8.593 42.913 C 8.593 33.130 8.593 23.347 8.593 13.565 C 8.593 13.037 8.985 12.630 9.482 12.630 C 18.225 12.630 26.968 12.630 35.712 12.630 C 36.028 11.305 36.570 10.069 37.309 8.954 C 28.239 8.954 19.169 8.954 10.100 8.954 C 7.373 8.954 5.098 11.290 5.098 14.197 C 5.098 24.989 5.098 35.781 5.098 46.574 C 5.098 47.056 5.490 47.508 5.987 47.508 C 21.730 47.507 37.474 47.507 53.218 47.508 C 53.670 47.508 54.062 47.071 54.062 46.574 C 54.061 38.980 54.061 31.387 54.062 23.794 C 53.037 24.653 51.847 25.346 50.567 25.798 C 50.566 31.503 50.566 37.207 50.567 42.913 C 50.571 42.912 50.576 42.912 50.582 42.913 Z"/>
<path fill="#2dffb3" fill-rule="evenodd" stroke="none" d="M 45.670 17.708 C 46.960 16.874 48.250 16.041 49.542 15.207 C 48.250 14.373 46.960 13.540 45.670 12.706 C 45.669 14.373 45.669 16.041 45.670 17.708 Z"/>
<path fill="#2dffb3" fill-rule="evenodd" stroke="none" d="M 51.681 14.438 C 52.269 14.815 52.269 15.613 51.696 15.975 C 49.531 17.371 47.367 18.767 45.203 20.163 C 44.600 20.525 43.772 20.088 43.772 19.395 C 43.771 16.603 43.771 13.810 43.772 11.018 C 43.772 10.250 44.676 9.843 45.278 10.295 C 47.412 11.676 49.546 13.057 51.681 14.438 M 55.086 15.207 C 55.086 10.657 51.320 6.951 46.725 6.951 C 42.114 6.951 38.408 10.657 38.408 15.207 C 38.408 19.756 42.114 23.463 46.725 23.463 C 51.335 23.463 55.086 19.756 55.086 15.207 Z"/>
</g>
</svg>
