<svg width="59" height="53" viewBox="0 0 59 53" fill="none" xmlns="http://www.w3.org/2000/svg">
<path d="M50.6866 0H8.25132C3.66036 0 0 3.69011 0 8.31839V31.7725C0 36.3382 3.66036 40.0909 8.25132 40.0909H12.9043V50.223C12.9043 52.6623 15.7581 53.9132 17.5573 52.2245L30.3375 40.0909H50.7487C55.2776 40.0909 59 36.4008 59 31.7725V8.31839C58.938 3.69011 55.2776 0 50.6866 0Z" fill="#5600E3"/>
<path d="M34.9814 12.1121C34.3499 11.78 33.572 12.0199 33.2105 12.6565C32.8811 13.293 33.119 14.0772 33.7505 14.4417C34.8029 14.986 35.5533 15.9224 35.9102 17.0757C36.2397 18.2243 36.1207 19.4052 35.5213 20.4662C35.1598 21.1027 35.3703 21.8869 36.0017 22.2514C36.3312 22.4313 36.6927 22.4636 37.0221 22.3713C37.3241 22.279 37.6216 22.0669 37.7726 21.767C38.7014 20.1017 38.9439 18.1966 38.404 16.3514C37.8915 14.5062 36.6606 12.9932 34.9814 12.1121Z" fill="#2DFFB3"/>
<path d="M42.9937 14.9601C42.0648 11.7541 39.7815 9.09246 36.7798 7.66707C36.1209 7.36261 35.3385 7.63478 35.0411 8.30365C34.7391 8.96791 35.009 9.75673 35.6725 10.0566C38.0153 11.1775 39.7541 13.2349 40.5045 15.7443C41.2229 18.2261 40.866 20.9477 39.5161 23.1573C39.1272 23.7616 39.3377 24.5781 39.9371 24.9748C40.2666 25.187 40.6555 25.2147 40.9895 25.127C41.2915 25.0348 41.5615 24.8549 41.7399 24.5504C43.4742 21.6443 43.9272 18.1661 42.9937 14.9601Z" fill="#2DFFB3"/>
<path d="M28.1094 25.5515L24.8103 14.2637C23.401 15.9566 21.5707 17.1975 19.4658 17.8018L16.8531 18.5906C15.4712 18.9827 14.6933 20.4358 15.1143 21.8289L15.8968 24.5228C16.2857 25.916 17.7271 26.7002 19.1089 26.2758L21.6897 31.5391C21.8681 31.9035 22.2616 32.0834 22.6506 31.9635L25.1398 31.207C25.3777 31.147 25.5607 30.9671 25.6523 30.7549C25.7438 30.5427 25.7438 30.2706 25.6202 30.0584L23.218 25.1548C24.8378 24.9426 26.5171 25.0672 28.1094 25.5515Z" fill="white"/>
<path d="M32.4608 21.3727C33.3302 20.464 33.6917 19.1355 33.3302 17.8623C32.9412 16.5614 31.9209 15.6527 30.7174 15.3805L29.4866 11.1735C29.2166 10.2371 28.0177 10.0249 27.4137 10.8091L26.3613 12.2022L30.5344 26.4239L32.1542 27.0282C33.0556 27.3603 33.9571 26.5115 33.6871 25.5751L32.4608 21.3727Z" fill="white"/>
</svg>
