<svg id="ejxqySurUOL1" xmlns="http://www.w3.org/2000/svg" xmlns:xlink="http://www.w3.org/1999/xlink" viewBox="0 0 46 45" shape-rendering="geometricPrecision" text-rendering="geometricPrecision"><style><![CDATA[#ejxqySurUOL1{pointer-events: all}#ejxqySurUOL1:hover #ejxqySurUOL3_ts {animation: ejxqySurUOL3_ts__ts 6000ms linear infinite normal forwards}@keyframes ejxqySurUOL3_ts__ts { 0% {transform: translate(33.826246px,11.910372px) scale(1,1)} 1.666667% {transform: translate(33.826246px,11.910372px) scale(0.574717,0.574717)} 16.666667% {transform: translate(33.826246px,11.910372px) scale(1,1)} 100% {transform: translate(33.826246px,11.910372px) scale(1,1)}} #ejxqySurUOL1:hover #ejxqySurUOL3 {animation: ejxqySurUOL3_c_o 6000ms linear infinite normal forwards}@keyframes ejxqySurUOL3_c_o { 0% {opacity: 1} 16.666667% {opacity: 1} 18.333333% {opacity: 0} 81.666667% {opacity: 0} 85% {opacity: 1} 100% {opacity: 1}} #ejxqySurUOL1:hover #ejxqySurUOL4_tr {animation: ejxqySurUOL4_tr__tr 6000ms linear infinite normal forwards}@keyframes ejxqySurUOL4_tr__tr { 0% {transform: translate(23.000134px,22.499849px) rotate(0deg)} 18.333333% {transform: translate(23.000134px,22.499849px) rotate(0deg)} 81.666667% {transform: translate(23.000134px,22.499849px) rotate(360deg)} 100% {transform: translate(23.000134px,22.499849px) rotate(360deg)}} #ejxqySurUOL1:hover #ejxqySurUOL5_tr {animation: ejxqySurUOL5_tr__tr 6000ms linear infinite normal forwards}@keyframes ejxqySurUOL5_tr__tr { 0% {transform: translate(23.000049px,22.499950px) rotate(0deg)} 18.333333% {transform: translate(23.000049px,22.499950px) rotate(0deg)} 81.666667% {transform: translate(23.000049px,22.499950px) rotate(-360deg)} 100% {transform: translate(23.000049px,22.499950px) rotate(-360deg)}}]]></style><g id="ejxqySurUOL2"><g id="ejxqySurUOL3_ts" transform="translate(33.826246,11.910372) scale(1,1)"><path id="ejxqySurUOL3" d="M22.029700,21.594300C22.037300,21.586500,22.039400,21.576200,22.047100,21.568700L29.738100,14.044800L29.738100,9.317260C29.738100,8.967010,29.880200,8.632330,30.132900,8.385090L38.218800,0.387130C38.603100,0.011310,39.183500,-0.103300,39.687600,0.101397C40.191600,0.304776,40.519400,0.786329,40.519400,1.319300L40.519400,5.274380L44.652200,5.274380C45.196900,5.274290,45.689200,5.594830,45.897100,6.087980C46.106300,6.581050,45.990500,7.147590,45.604900,7.524820L37.429100,15.522800C37.176400,15.770000,36.834200,15.909100,36.476300,15.909100L31.643700,15.909100L23.952700,23.432800C23.945000,23.440400,23.934500,23.442500,23.926600,23.449900C23.401900,23.939800,22.604900,23.946300,22.073200,23.449900C21.513300,22.927100,21.525900,22.110600,22.029700,21.594300Z" transform="translate(-33.826246,-11.910372)" fill="rgb(45,255,179)" stroke="none" stroke-width="1"/></g><g id="ejxqySurUOL4_tr" transform="translate(23.000134,22.499849) rotate(0)"><path id="ejxqySurUOL4" d="M23.000200,0C26.448500,0,29.708800,0.858252,32.644700,2.198850L28.510700,6.243050C26.775600,5.678610,24.926300,5.361330,23.000100,5.361330C13.340200,5.361240,5.480740,13.049900,5.480740,22.499800C5.480740,31.949700,13.340200,39.638400,23.000200,39.638400C32.660200,39.638400,40.519600,31.949800,40.519600,22.499800C40.519600,20.615400,40.195200,18.806400,39.618300,17.109100L43.752400,13.064900C45.122600,15.937000,46,19.126500,46,22.499800C46,34.858000,35.633000,44.999700,23.000200,44.999700C10.367300,44.999700,0.000267,34.858000,0.000267,22.499800C0.000267,10.141600,10.367200,0,23.000200,0Z" transform="translate(-23.000134,-22.499849)" fill="rgb(86,0,227)" stroke="none" stroke-width="1"/></g><g id="ejxqySurUOL5_tr" transform="translate(23.000049,22.499950) rotate(0)"><path id="ejxqySurUOL5" d="M23.000100,10.634800C24.424600,10.634800,25.772200,10.920400,27.043100,11.363600L27.043100,12.952200L23.927500,16C23.621500,15.958100,23.317700,15.908200,23.000100,15.908200C19.284800,15.908200,16.261800,18.865500,16.261800,22.500000C16.261800,26.134500,19.284800,29.091800,23.000100,29.091800C26.715400,29.091800,29.738400,26.134500,29.738400,22.500000C29.738400,22.189200,29.687300,21.892000,29.644600,21.592700L32.760000,18.544800L34.383800,18.544800C34.836900,19.788000,35.128900,21.106400,35.128900,22.499900C35.128900,29.042800,29.688200,34.365100,23.000100,34.365100C16.311900,34.365100,10.871200,29.042800,10.871200,22.499900C10.871200,15.957100,16.311900,10.634800,23.000100,10.634800Z" transform="translate(-23.000049,-22.499950)" fill="rgb(86,0,227)" stroke="none" stroke-width="1"/></g></g></svg>