<?xml version="1.0" encoding="utf-8"?>
<!-- Generator: Moho 13.0.2 build 610 -->
<!DOCTYPE svg PUBLIC "-//W3C//DTD SVG 1.1//EN" "http://www.w3.org/Graphics/SVG/1.1/DTD/svg11.dtd">
<svg version="1.1" id="Frame_0" xmlns="http://www.w3.org/2000/svg" xmlns:xlink="http://www.w3.org/1999/xlink" width="60px" height="60px">
<g id="Frame.svg">
<path fill="#5600e3" fill-rule="evenodd" stroke="none" d="M 18.730 13.645 C 16.673 13.645 14.617 13.645 12.561 13.645 C 12.561 14.709 12.561 15.773 12.561 16.837 C 14.617 16.837 16.673 16.837 18.730 16.837 C 18.730 15.773 18.730 14.709 18.730 13.645 Z"/>
<path fill="#5600e3" fill-rule="evenodd" stroke="none" d="M 11.023 20.045 C 10.180 20.045 9.485 19.318 9.485 18.441 C 9.485 16.308 9.485 14.174 9.485 12.041 C 9.485 11.164 10.180 10.437 11.023 10.437 C 14.105 10.437 17.186 10.437 20.268 10.437 C 21.128 10.437 21.806 11.148 21.806 12.041 C 21.806 14.174 21.806 16.308 21.806 18.441 C 21.806 19.318 21.111 20.045 20.268 20.045 C 17.186 20.045 14.105 20.045 11.023 20.045 M 24.899 18.441 C 24.899 17.565 25.593 16.837 26.437 16.837 C 29.518 16.837 32.600 16.837 35.682 16.837 C 36.542 16.837 37.220 17.548 37.220 18.441 C 37.220 19.318 36.525 20.045 35.682 20.045 C 32.600 20.045 29.518 20.045 26.437 20.045 C 25.593 20.045 24.899 19.334 24.899 18.441 M 24.899 12.057 C 24.899 11.164 25.593 10.453 26.437 10.453 C 29.518 10.453 32.600 10.453 35.682 10.453 C 36.542 10.453 37.220 11.164 37.220 12.057 C 37.220 12.934 36.525 13.662 35.682 13.662 C 32.600 13.661 29.518 13.661 26.437 13.662 C 25.593 13.662 24.899 12.950 24.899 12.057 M 23.013 40.437 C 23.019 40.437 23.024 40.437 23.030 40.437 C 23.013 42.791 23.013 45.145 23.013 47.499 C 23.013 47.962 23.079 48.392 23.162 48.822 C 21.685 48.822 20.207 48.822 18.730 48.822 C 14.772 48.822 10.813 48.822 6.855 48.822 C 5.119 48.822 3.663 47.549 3.333 45.845 C 3.300 45.614 3.267 45.366 3.267 45.101 C 3.266 38.882 3.267 32.664 3.267 26.446 C 3.267 20.227 3.267 14.009 3.267 7.790 C 3.267 5.723 4.887 4.053 6.872 4.053 C 17.842 4.053 28.813 4.053 39.783 4.053 C 41.768 4.053 43.389 5.740 43.389 7.790 C 43.388 12.675 43.388 17.559 43.389 22.443 C 40.819 22.443 38.250 22.443 35.682 22.443 C 33.509 22.443 31.337 22.443 29.166 22.443 C 23.294 22.443 17.423 22.443 11.552 22.443 C 10.709 22.443 10.014 23.171 10.014 24.048 C 10.014 24.941 10.709 25.652 11.552 25.652 C 15.648 25.652 19.744 25.652 23.840 25.652 C 23.344 26.545 23.030 27.587 23.030 28.695 C 23.030 29.020 23.030 29.345 23.030 29.671 C 19.204 29.670 15.378 29.670 11.552 29.671 C 10.709 29.671 10.014 30.398 10.014 31.275 C 10.014 32.168 10.709 32.879 11.552 32.879 C 15.378 32.879 19.204 32.879 23.030 32.879 C 23.030 34.329 23.030 35.779 23.030 37.229 C 19.204 37.228 15.378 37.228 11.552 37.229 C 10.709 37.229 10.014 37.956 10.014 38.833 C 10.014 39.726 10.709 40.437 11.552 40.437 C 15.378 40.437 19.204 40.437 23.030 40.437 Z"/>
<path fill="#2dffb3" fill-rule="evenodd" stroke="none" d="M 50.153 34.566 C 50.153 35.541 49.392 36.335 48.450 36.335 C 43.912 36.335 39.375 36.335 34.838 36.335 C 33.896 36.335 33.135 35.541 33.135 34.566 C 33.135 33.590 33.896 32.796 34.838 32.796 C 39.375 32.796 43.912 32.796 48.450 32.796 C 49.392 32.796 50.153 33.590 50.153 34.566 M 46.415 41.627 C 46.399 42.603 45.638 43.397 44.712 43.397 C 41.426 43.397 38.140 43.397 34.855 43.397 C 33.912 43.397 33.152 42.603 33.152 41.627 C 33.152 40.652 33.912 39.858 34.855 39.858 C 38.140 39.857 41.426 39.857 44.712 39.858 C 45.655 39.858 46.415 40.652 46.415 41.627 M 56.950 28.694 C 56.950 27.074 55.677 25.751 54.122 25.751 C 45.803 25.750 37.484 25.750 29.166 25.751 C 27.595 25.751 26.338 27.074 26.338 28.694 C 26.338 34.962 26.338 41.230 26.338 47.499 C 26.338 49.119 27.611 50.442 29.166 50.442 C 30.489 50.442 31.812 50.442 33.135 50.442 C 33.135 52.283 33.135 54.124 33.135 55.966 C 33.135 57.587 35.053 58.331 36.095 57.157 C 38.080 54.918 40.064 52.680 42.049 50.442 C 46.073 50.442 50.097 50.442 54.122 50.442 C 55.693 50.442 56.950 49.119 56.950 47.499 C 56.950 41.230 56.950 34.962 56.950 28.694 Z"/>
</g>
</svg>
