<svg id="eqh90bcgHKz1" xmlns="http://www.w3.org/2000/svg" xmlns:xlink="http://www.w3.org/1999/xlink" viewBox="0 0 60 60" shape-rendering="geometricPrecision" text-rendering="geometricPrecision"><style><![CDATA[#eqh90bcgHKz1{pointer-events: all}#eqh90bcgHKz1.hover #eqh90bcgHKz2_ts {animation: eqh90bcgHKz2_ts__ts 2000ms linear 1 normal forwards}@keyframes eqh90bcgHKz2_ts__ts { 0% {transform: translate(29.993608px,30px) scale(1,1);animation-timing-function: step-end} 5% {transform: translate(29.993608px,30px) scale(0.009946,0.009946)} 15% {transform: translate(29.993608px,30px) scale(0.009946,0.009946)} 25% {transform: translate(29.993608px,30px) scale(1.053258,1.053258)} 35% {transform: translate(29.993608px,30px) scale(0.999944,0.999944)} 75% {transform: translate(29.993608px,30px) scale(0.999944,0.999944)} 80% {transform: translate(29.993608px,30px) scale(0.881774,0.881774)} 85% {transform: translate(29.993608px,30px) scale(1.047390,1.047390)} 95% {transform: translate(29.993608px,30px) scale(1.000088,1.000088)} 100% {transform: translate(29.993608px,30px) scale(1.000088,1.000088)}} #eqh90bcgHKz1.hover #eqh90bcgHKz9_to {animation: eqh90bcgHKz9_to__to 2000ms linear 1 normal forwards}@keyframes eqh90bcgHKz9_to__to { 0% {transform: translate(24.925012px,13.696027px);animation-timing-function: step-end} 40% {transform: translate(24.925012px,13.696027px)} 50% {transform: translate(24.925012px,13.696027px)} 60% {transform: translate(24.892932px,13.644045px)} 100% {transform: translate(24.892932px,13.644045px)}} #eqh90bcgHKz1.hover #eqh90bcgHKz9_ts {animation: eqh90bcgHKz9_ts__ts 2000ms linear 1 normal forwards}@keyframes eqh90bcgHKz9_ts__ts { 0% {transform: scale(1,1);animation-timing-function: step-end} 40% {transform: scale(0.086403,0.086403)} 50% {transform: scale(1.117997,1.117997)} 60% {transform: scale(0.996377,0.996377)} 100% {transform: scale(0.996377,0.996377)}}]]></style><g id="eqh90bcgHKz2_ts" transform="translate(29.993608,30) scale(1,1)"><g id="eqh90bcgHKz2" transform="translate(-24.964993,-27.260758)"><path id="eqh90bcgHKz3" display="none" d="M24.940000,41.670000C22.120999,41.676616,19.309037,41.388382,16.550000,40.810000L0,47.780000L0,50.270000C-0.000334,52.452089,1.748246,54.231813,3.930000,54.270000L34.230000,54.270000Q30.230000,47.960000,26.120000,41.640000Z" fill="rgb(86,0,227)" fill-rule="evenodd" stroke="none" stroke-width="1"/><path id="eqh90bcgHKz4" d="M24.940000,41.940000C22.120999,41.946616,19.309037,41.658382,16.550000,41.080000L0,48.050000L0,50.540000C-0.000334,52.722089,1.748246,54.501813,3.930000,54.540000L34.230000,54.540000Q30.230000,48.230000,26.120000,41.910000Z" fill="rgb(86,0,227)" fill-rule="evenodd" stroke="none" stroke-width="1"/><path id="eqh90bcgHKz5" d="M43.490000,33.710000C43.490000,36.920000,39.080000,39.710000,32.710000,40.930000L41.280000,54.280000L46,54.280000C48.181754,54.241813,49.930334,52.462089,49.930000,50.280000L49.930000,26.750000L41.670000,30.230000C42.754400,31.069692,43.418936,32.340344,43.490000,33.710000Z" fill="rgb(86,0,227)" fill-rule="evenodd" stroke="none" stroke-width="1"/><path id="eqh90bcgHKz6" d="M9.410000,9.500000C9.410354,7.418746,9.814487,5.357327,10.600000,3.430000L3.930000,3.430000C1.744348,3.468247,-0.005800,5.254021,0,7.440000L0,41.270000L8.740000,37.580000C7.393327,36.729701,6.523374,35.297056,6.390000,33.710000C6.390000,30.580000,10.620000,27.880000,16.750000,26.580000C16.310000,25.960000,15.860000,25.320000,15.400000,24.640000C11.370000,18.610000,9.410000,13.660000,9.410000,9.500000Z" fill="rgb(86,0,227)" fill-rule="evenodd" stroke="none" stroke-width="1"/><path id="eqh90bcgHKz7" d="M34.480000,24.640000C34.030000,25.310000,33.570000,25.960000,33.130000,26.580000L34.250000,26.830000L49.890000,20.240000L49.890000,7.440000C49.890246,5.254082,48.135672,3.472789,45.950000,3.440000L39.280000,3.440000C40.068920,5.362810,40.473211,7.421639,40.470000,9.500000C40.480000,13.660000,38.520000,18.610000,34.480000,24.640000Z" fill="rgb(86,0,227)" fill-rule="evenodd" stroke="none" stroke-width="1"/><path id="eqh90bcgHKz8" d="M24.940000,33.710000C23.405532,33.694038,21.950614,33.024776,20.940000,31.870000C20.940000,31.820000,20.550000,31.420000,20.010000,30.770000C15.400000,31.390000,12.440000,32.770000,11.340000,33.710000C12.750000,35,17.460000,37,24.940000,37C32.420000,37,37.140000,35,38.580000,33.720000C37.490000,32.790000,34.580000,31.400000,29.920000,30.780000C29.380000,31.440000,29.030000,31.830000,28.990000,31.880000C27.966014,33.044076,26.490361,33.710852,24.940000,33.710000Z" fill="rgb(86,0,227)" fill-rule="evenodd" stroke="none" stroke-width="1"/><g id="eqh90bcgHKz9_to" transform="translate(24.925012,13.696027)"><g id="eqh90bcgHKz9_ts" transform="scale(1,1)"><path id="eqh90bcgHKz9" d="M29.674544,10.288288C29.630378,12.871704,27.508180,14.934458,24.924645,14.905138C22.341109,14.875818,20.266268,12.765433,20.280739,10.181680C20.295209,7.597927,22.393560,5.510917,24.977261,5.510540C27.591374,5.538122,29.691270,7.673990,29.674544,10.288288M35.074412,10.288288C35.079412,7.768017,34.161873,5.333060,32.494921,3.442858C30.610978,1.245853,27.861309,-0.018484,24.967224,-0.018484C22.073139,-0.018484,19.323470,1.245853,17.439528,3.442858C15.769748,5.332079,14.848699,7.766877,14.850000,10.288288C14.850000,13.098729,16.365576,16.782413,19.326470,21.208856C20.671419,23.216314,21.986256,24.902578,22.809285,25.906307C23.291057,26.488469,23.592165,26.839775,23.632313,26.910036C23.964032,27.292870,24.445622,27.512812,24.952169,27.512812C25.458716,27.512812,25.940306,27.292870,26.272025,26.910036C26.603744,26.527201,26.613281,26.518581,27.095053,25.906307C27.908045,24.902578,29.232919,23.206277,30.577868,21.208856C33.578909,16.772376,35.074412,13.098729,35.074412,10.288288Z" transform="translate(-24.925012,-13.696027)" fill="rgb(45,255,179)" fill-rule="evenodd" stroke="none" stroke-width="1"/></g></g></g></g></svg>
