<svg id="efoMCD2ijY61" xmlns="http://www.w3.org/2000/svg" xmlns:xlink="http://www.w3.org/1999/xlink" viewBox="0 0 50 50" shape-rendering="geometricPrecision" text-rendering="geometricPrecision"><style><![CDATA[#efoMCD2ijY61{pointer-events: all}#efoMCD2ijY61.hover #efoMCD2ijY64_tr {animation: efoMCD2ijY64_tr__tr 5000ms linear infinite normal forwards}@keyframes efoMCD2ijY64_tr__tr { 0% {transform: translate(17.981000px,29.452499px) rotate(0deg)} 42% {transform: translate(17.981000px,29.452499px) rotate(0deg);animation-timing-function: cubic-bezier(0,0,0.580000,1)} 96% {transform: translate(17.981000px,29.452499px) rotate(-90deg)} 100% {transform: translate(17.981000px,29.452499px) rotate(-90deg)}} #efoMCD2ijY61.hover #efoMCD2ijY68_tr {animation: efoMCD2ijY68_tr__tr 5000ms linear infinite normal forwards}@keyframes efoMCD2ijY68_tr__tr { 0% {transform: translate(36.534737px,35.230732px) rotate(0deg)} 20% {transform: translate(36.534737px,35.230732px) rotate(0deg);animation-timing-function: cubic-bezier(0,0,0.580000,1)} 78% {transform: translate(36.534737px,35.230732px) rotate(-180deg)} 100% {transform: translate(36.534737px,35.230732px) rotate(-180deg)}} #efoMCD2ijY61.hover #efoMCD2ijY69_to {animation: efoMCD2ijY69_to__to 5000ms linear infinite normal forwards}@keyframes efoMCD2ijY69_to__to { 0% {transform: translate(28.535986px,22.638268px)} 8% {transform: translate(28.535986px,22.638268px)} 16% {transform: translate(37.061383px,32.917432px)} 32.400000% {transform: translate(37.061383px,32.917432px)} 40% {transform: translate(21.582836px,24.387844px)} 60% {transform: translate(21.582836px,24.387844px)} 66% {transform: translate(28.535986px,22.638268px)} 100% {transform: translate(28.535986px,22.638268px)}} #efoMCD2ijY61.hover #efoMCD2ijY69_tr {animation: efoMCD2ijY69_tr__tr 5000ms linear infinite normal forwards}@keyframes efoMCD2ijY69_tr__tr { 0% {transform: rotate(0deg)} 8% {transform: rotate(0deg)} 16% {transform: rotate(-25.705983deg)} 32.400000% {transform: rotate(-25.705983deg)} 40% {transform: rotate(-7.741899deg)} 60% {transform: rotate(-7.741899deg)} 66% {transform: rotate(0deg)} 100% {transform: rotate(0deg)}} #efoMCD2ijY61.hover #efoMCD2ijY69_ts {animation: efoMCD2ijY69_ts__ts 5000ms linear infinite normal forwards}@keyframes efoMCD2ijY69_ts__ts { 0% {transform: scale(1,1)} 8% {transform: scale(1,1)} 16% {transform: scale(0.677158,0.677158)} 60% {transform: scale(0.677158,0.677158)} 66% {transform: scale(1,1)} 100% {transform: scale(1,1)}}]]></style><g id="efoMCD2ijY62" transform="matrix(1 0 0 1 -0.21230600000000 0.21230700000000)"><g id="efoMCD2ijY63"><g id="efoMCD2ijY64_tr" transform="translate(17.981000,29.452499) rotate(0)"><path id="efoMCD2ijY64" d="M21.795000,29.453000C21.795000,30.517000,21.440000,31.463000,20.671000,32.173000C19.903000,32.941000,19.016000,33.296000,17.951000,33.296000C16.887000,33.296000,16,32.941000,15.232000,32.173000C14.463000,31.404000,14.108000,30.517000,14.108000,29.453000C14.108000,28.389000,14.463000,27.502000,15.232000,26.733000C16,25.964000,16.887000,25.610000,17.951000,25.610000C19.016000,25.610000,19.903000,25.964000,20.671000,26.733000C21.440000,27.502000,21.795000,28.389000,21.795000,29.453000M27.530000,28.034000C27.530000,27.975000,27.471000,27.856000,27.412000,27.738000C27.353000,27.679000,27.234000,27.561000,27.175000,27.561000C26.426000,27.442000,25.677000,27.324000,24.928000,27.206000C24.810000,26.851000,24.692000,26.437000,24.455000,25.964000C24.633000,25.728000,24.810000,25.432000,25.165000,25.077000C25.461000,24.723000,25.638000,24.427000,25.815000,24.309000C25.874000,24.191000,25.934000,24.131000,25.934000,24.013000C25.934000,23.777000,25.224000,22.949000,23.746000,21.648000C23.628000,21.589000,23.568000,21.530000,23.450000,21.530000C23.332000,21.530000,23.214000,21.589000,23.155000,21.648000C22.563000,22.082000,21.972000,22.515000,21.381000,22.949000C20.967000,22.712000,20.612000,22.594000,20.257000,22.476000C20.139000,21.727000,20.021000,20.978000,19.903000,20.229000C19.903000,20.111000,19.843000,20.052000,19.725000,19.993000C19.666000,19.933000,19.548000,19.874000,19.430000,19.874000C18.503000,19.874000,17.577000,19.874000,16.651000,19.874000C16.414000,19.874000,16.296000,19.993000,16.178000,20.229000C16.059000,20.702000,15.941000,21.471000,15.823000,22.535000C15.409000,22.712000,14.995000,22.831000,14.699000,23.008000C14.108000,22.555000,13.517000,22.101000,12.926000,21.648000C12.807000,21.589000,12.748000,21.530000,12.630000,21.530000C12.453000,21.530000,12.039000,21.825000,11.447000,22.417000C10.856000,23.008000,10.442000,23.422000,10.206000,23.717000C10.147000,23.777000,10.088000,23.895000,10.088000,24.013000C10.088000,24.072000,10.147000,24.191000,10.206000,24.309000C10.797000,25.018000,11.211000,25.550000,11.566000,26.083000C11.329000,26.496000,11.211000,26.851000,11.093000,27.206000C10.324000,27.324000,9.555000,27.442000,8.787000,27.561000C8.728000,27.561000,8.609000,27.620000,8.550000,27.738000C8.491000,27.856000,8.432000,27.916000,8.432000,28.034000C8.432000,28.960000,8.432000,29.886000,8.432000,30.813000C8.432000,30.931000,8.491000,30.990000,8.550000,31.108000C8.609000,31.168000,8.728000,31.286000,8.787000,31.286000C9.536000,31.404000,10.285000,31.522000,11.034000,31.641000C11.152000,31.995000,11.329000,32.409000,11.566000,32.882000C11.388000,33.119000,11.211000,33.414000,10.856000,33.769000C10.561000,34.124000,10.324000,34.420000,10.265000,34.538000C10.206000,34.656000,10.147000,34.715000,10.147000,34.833000C10.147000,35.070000,10.856000,35.898000,12.334000,37.199000C12.453000,37.258000,12.512000,37.317000,12.630000,37.317000C12.748000,37.317000,12.866000,37.258000,12.926000,37.199000C13.517000,36.765000,14.108000,36.331000,14.699000,35.898000C15.113000,36.134000,15.468000,36.252000,15.823000,36.371000C15.941000,37.139000,16.059000,37.908000,16.178000,38.677000C16.178000,38.795000,16.237000,38.854000,16.355000,38.913000C16.414000,38.972000,16.532000,39.031000,16.651000,39.031000C17.577000,39.031000,18.503000,39.031000,19.430000,39.031000C19.666000,39.031000,19.784000,38.913000,19.903000,38.677000C20.021000,38.204000,20.139000,37.435000,20.257000,36.371000C20.671000,36.252000,21.026000,36.134000,21.381000,35.898000C21.972000,36.351000,22.563000,36.804000,23.155000,37.258000C23.273000,37.317000,23.332000,37.376000,23.450000,37.376000C23.628000,37.376000,24.041000,37.080000,24.633000,36.489000C25.224000,35.898000,25.638000,35.425000,25.874000,35.188000C25.815000,35.070000,25.874000,35.011000,25.874000,34.833000C25.874000,34.715000,25.815000,34.656000,25.756000,34.538000C25.165000,33.828000,24.751000,33.296000,24.396000,32.764000C24.633000,32.350000,24.751000,31.995000,24.869000,31.641000C25.638000,31.522000,26.406000,31.404000,27.175000,31.286000C27.234000,31.286000,27.353000,31.227000,27.412000,31.108000C27.471000,30.990000,27.530000,30.931000,27.530000,30.813000C27.530000,29.886000,27.530000,28.960000,27.530000,28.034000Z" transform="translate(-17.981000,-29.452499)" fill="rgb(86,0,227)" fill-rule="evenodd" stroke="none" stroke-width="1"/></g><path id="efoMCD2ijY65" d="M1.087000,43.215000C1.087000,43.215000,1.087000,11.183000,1.087000,11.183000C1.087000,9.064000,2.807000,7.345000,4.925000,7.345000C4.925000,7.345000,45.230000,7.345000,45.230000,7.345000C47.348000,7.345000,49.068000,9.064000,49.068000,11.183000C49.068000,11.183000,49.068000,43.215000,49.068000,43.215000C49.068000,45.333000,47.348000,47.053000,45.230000,47.053000C45.230000,47.053000,4.925000,47.053000,4.925000,47.053000C2.807000,47.053000,1.087000,45.333000,1.087000,43.215000" fill="none" stroke="rgb(255,255,255)" stroke-width="0" stroke-linecap="round" stroke-linejoin="round"/><path id="efoMCD2ijY66" d="M4.811000,43.328000C4.811000,43.325000,4.811000,16.363000,4.811000,16.360000C4.815000,16.360000,45.340000,16.360000,45.344000,16.360000C45.344000,16.363000,45.344000,43.325000,45.344000,43.328000C45.340000,43.328000,4.815000,43.328000,4.811000,43.328000" fill="none" stroke="rgb(255,255,255)" stroke-width="0" stroke-linecap="round" stroke-linejoin="round"/><path id="efoMCD2ijY67" d="M4.987000,11.965000C4.987000,11.078000,5.696000,10.427000,6.524000,10.427000C7.352000,10.427000,8.061000,11.137000,8.061000,11.965000C8.061000,12.793000,7.352000,13.502000,6.524000,13.502000C5.696000,13.502000,4.987000,12.793000,4.987000,11.965000M10.899000,11.965000C10.899000,11.078000,11.609000,10.427000,12.437000,10.427000C13.264000,10.427000,13.974000,11.137000,13.974000,11.965000C13.974000,12.793000,13.264000,13.502000,12.437000,13.502000C11.609000,13.502000,10.899000,12.793000,10.899000,11.965000M16.812000,11.965000C16.812000,11.078000,17.522000,10.427000,18.349000,10.427000C19.177000,10.427000,19.887000,11.137000,19.887000,11.965000C19.887000,12.793000,19.177000,13.502000,18.349000,13.502000C17.522000,13.502000,16.812000,12.793000,16.812000,11.965000M4.811000,43.328000C4.811000,43.325000,4.811000,16.363000,4.811000,16.360000C4.815000,16.360000,45.340000,16.360000,45.344000,16.360000C45.344000,16.363000,45.344000,43.325000,45.344000,43.328000C45.340000,43.328000,4.815000,43.328000,4.811000,43.328000M1.087000,43.215000C1.087000,43.215000,1.087000,11.183000,1.087000,11.183000C1.087000,9.064000,2.807000,7.345000,4.925000,7.345000C4.925000,7.345000,45.230000,7.345000,45.230000,7.345000C47.348000,7.345000,49.068000,9.064000,49.068000,11.183000C49.068000,11.183000,49.068000,43.215000,49.068000,43.215000C49.068000,45.333000,47.348000,47.053000,45.230000,47.053000C45.230000,47.053000,4.925000,47.053000,4.925000,47.053000C2.807000,47.053000,1.087000,45.333000,1.087000,43.215000Z" fill="rgb(86,0,227)" fill-rule="evenodd" stroke="rgb(255,255,255)" stroke-width="0" stroke-linecap="round" stroke-linejoin="round"/><g id="efoMCD2ijY68_tr" transform="translate(36.534737,35.230732) rotate(0)"><path id="efoMCD2ijY68" d="M38.597000,35.320000C38.597000,35.882000,38.410000,36.381000,38.004000,36.755000C37.599000,37.160000,37.131000,37.348000,36.570000,37.348000C36.008000,37.348000,35.541000,37.160000,35.135000,36.755000C34.730000,36.350000,34.543000,35.882000,34.543000,35.320000C34.543000,34.759000,34.730000,34.291000,35.135000,33.886000C35.541000,33.480000,36.008000,33.293000,36.570000,33.293000C37.131000,33.293000,37.599000,33.480000,38.004000,33.886000C38.410000,34.291000,38.597000,34.759000,38.597000,35.320000M41.622000,34.572000C41.622000,34.541000,41.591000,34.478000,41.560000,34.416000C41.529000,34.385000,41.466000,34.322000,41.435000,34.322000C41.040000,34.260000,40.645000,34.197000,40.250000,34.135000C40.188000,33.948000,40.125000,33.730000,40,33.480000C40.094000,33.356000,40.188000,33.200000,40.375000,33.012000C40.531000,32.825000,40.624000,32.669000,40.718000,32.607000C40.749000,32.545000,40.780000,32.513000,40.780000,32.451000C40.780000,32.326000,40.406000,31.890000,39.626000,31.204000C39.564000,31.172000,39.533000,31.141000,39.470000,31.141000C39.408000,31.141000,39.346000,31.172000,39.314000,31.204000C39.002000,31.432000,38.691000,31.661000,38.379000,31.890000C38.160000,31.765000,37.973000,31.703000,37.786000,31.640000C37.724000,31.245000,37.661000,30.850000,37.599000,30.455000C37.599000,30.393000,37.568000,30.361000,37.505000,30.330000C37.474000,30.299000,37.412000,30.268000,37.350000,30.268000C36.861000,30.268000,36.372000,30.268000,35.884000,30.268000C35.759000,30.268000,35.697000,30.330000,35.634000,30.455000C35.572000,30.705000,35.509000,31.110000,35.447000,31.671000C35.229000,31.765000,35.010000,31.827000,34.854000,31.921000C34.542000,31.682000,34.231000,31.443000,33.919000,31.204000C33.856000,31.172000,33.825000,31.141000,33.763000,31.141000C33.669000,31.141000,33.451000,31.297000,33.139000,31.609000C32.827000,31.921000,32.609000,32.139000,32.484000,32.295000C32.453000,32.326000,32.422000,32.389000,32.422000,32.451000C32.422000,32.482000,32.453000,32.545000,32.484000,32.607000C32.796000,32.981000,33.014000,33.262000,33.201000,33.543000C33.077000,33.761000,33.014000,33.948000,32.952000,34.135000C32.546000,34.197000,32.141000,34.260000,31.736000,34.322000C31.704000,34.322000,31.642000,34.354000,31.611000,34.416000C31.580000,34.478000,31.549000,34.509000,31.549000,34.572000C31.548000,35.060000,31.548000,35.549000,31.549000,36.038000C31.549000,36.100000,31.580000,36.131000,31.611000,36.194000C31.642000,36.225000,31.704000,36.287000,31.736000,36.287000C32.131000,36.350000,32.526000,36.412000,32.921000,36.474000C32.983000,36.662000,33.077000,36.880000,33.201000,37.129000C33.108000,37.254000,33.014000,37.410000,32.827000,37.597000C32.671000,37.784000,32.547000,37.940000,32.515000,38.003000C32.484000,38.065000,32.453000,38.096000,32.453000,38.159000C32.453000,38.283000,32.827000,38.720000,33.607000,39.406000C33.669000,39.437000,33.701000,39.468000,33.763000,39.468000C33.825000,39.468000,33.888000,39.437000,33.919000,39.406000C34.231000,39.177000,34.542000,38.948000,34.854000,38.720000C35.073000,38.845000,35.260000,38.907000,35.447000,38.969000C35.509000,39.375000,35.572000,39.780000,35.634000,40.186000C35.634000,40.248000,35.665000,40.279000,35.728000,40.311000C35.759000,40.342000,35.821000,40.373000,35.884000,40.373000C36.372000,40.373000,36.861000,40.373000,37.350000,40.373000C37.474000,40.373000,37.537000,40.311000,37.599000,40.186000C37.661000,39.936000,37.724000,39.531000,37.786000,38.969000C38.004000,38.907000,38.192000,38.845000,38.379000,38.720000C38.691000,38.959000,39.002000,39.198000,39.314000,39.437000C39.377000,39.468000,39.408000,39.500000,39.470000,39.500000C39.564000,39.500000,39.782000,39.344000,40.094000,39.032000C40.406000,38.720000,40.624000,38.470000,40.749000,38.346000C40.718000,38.283000,40.749000,38.252000,40.749000,38.159000C40.749000,38.096000,40.718000,38.065000,40.687000,38.003000C40.375000,37.628000,40.156000,37.348000,39.969000,37.067000C40.094000,36.849000,40.156000,36.662000,40.219000,36.474000C40.624000,36.412000,41.030000,36.350000,41.435000,36.287000C41.466000,36.287000,41.529000,36.256000,41.560000,36.194000C41.591000,36.131000,41.622000,36.100000,41.622000,36.038000C41.622000,35.549000,41.622000,35.060000,41.622000,34.572000Z" transform="translate(-36.534737,-35.230732)" fill="rgb(86,0,227)" fill-rule="evenodd" stroke="none" stroke-width="1"/></g></g><g id="efoMCD2ijY69_to" transform="translate(28.535986,22.638268)"><g id="efoMCD2ijY69_tr" transform="rotate(0)"><g id="efoMCD2ijY69_ts" transform="scale(1,1)"><g id="efoMCD2ijY69" transform="translate(-28.535986,-22.638268)"><g id="efoMCD2ijY610"><path id="efoMCD2ijY611" d="M36.190000,19.355000C39.519000,16.026000,42.847000,12.698000,46.176000,9.369000C44.710000,7.904000,43.245000,6.439000,41.781000,4.974000C38.452000,8.303000,35.124000,11.631000,31.796000,14.960000C33.260000,16.425000,34.725000,17.890000,36.190000,19.355000Z" fill="rgb(255,255,255)" fill-rule="evenodd" stroke="rgb(255,255,255)" stroke-width="3" stroke-linecap="round" stroke-linejoin="round"/><path id="efoMCD2ijY612" d="M28.559000,21.508000C28.410000,22.154000,29.007000,22.800000,29.653000,22.602000C30.979000,22.303000,32.305000,22.005000,33.631000,21.707000C33.780000,21.657000,33.979000,21.557000,34.079000,21.458000C34.426000,21.110000,34.774000,20.762000,35.123000,20.414000C33.664000,18.955000,32.205000,17.496000,30.747000,16.038000C30.399000,16.386000,30.051000,16.734000,29.703000,17.082000C29.604000,17.231000,29.504000,17.381000,29.454000,17.530000C29.156000,18.856000,28.857000,20.182000,28.559000,21.508000Z" fill="rgb(255,255,255)" fill-rule="evenodd" stroke="rgb(255,255,255)" stroke-width="3" stroke-linecap="round" stroke-linejoin="round"/><path id="efoMCD2ijY613" d="M49.195000,5.049000C48.167000,4.022000,47.139000,2.994000,46.112000,1.967000C45.764000,1.618000,45.167000,1.618000,44.769000,1.967000C44.139000,2.596000,43.509000,3.226000,42.880000,3.856000C44.338000,5.315000,45.796000,6.773000,47.255000,8.232000C47.885000,7.602000,48.515000,6.972000,49.145000,6.342000C49.543000,5.994000,49.543000,5.398000,49.195000,5.049000Z" fill="rgb(255,255,255)" fill-rule="evenodd" stroke="rgb(255,255,255)" stroke-width="3" stroke-linecap="round" stroke-linejoin="round"/></g><g id="efoMCD2ijY614"><path id="efoMCD2ijY615" d="M36.190000,19.355000C39.519000,16.026000,42.847000,12.698000,46.176000,9.369000C44.710000,7.904000,43.245000,6.439000,41.781000,4.974000C38.452000,8.303000,35.124000,11.631000,31.796000,14.960000C33.260000,16.425000,34.725000,17.890000,36.190000,19.355000Z" fill="rgb(45,255,179)" fill-rule="evenodd" stroke="none" stroke-width="1"/><path id="efoMCD2ijY616" d="M28.559000,21.508000C28.410000,22.154000,29.007000,22.800000,29.653000,22.602000C30.979000,22.303000,32.305000,22.005000,33.631000,21.707000C33.780000,21.657000,33.979000,21.557000,34.079000,21.458000C34.426000,21.110000,34.774000,20.762000,35.123000,20.414000C33.664000,18.955000,32.205000,17.496000,30.747000,16.038000C30.399000,16.386000,30.051000,16.734000,29.703000,17.082000C29.604000,17.231000,29.504000,17.381000,29.454000,17.530000C29.156000,18.856000,28.857000,20.182000,28.559000,21.508000Z" fill="rgb(45,255,179)" fill-rule="evenodd" stroke="none" stroke-width="1"/><path id="efoMCD2ijY617" d="M49.195000,5.049000C48.167000,4.022000,47.139000,2.994000,46.112000,1.967000C45.764000,1.618000,45.167000,1.618000,44.769000,1.967000C44.139000,2.596000,43.509000,3.226000,42.880000,3.856000C44.338000,5.315000,45.796000,6.773000,47.255000,8.232000C47.885000,7.602000,48.515000,6.972000,49.145000,6.342000C49.543000,5.994000,49.543000,5.398000,49.195000,5.049000Z" fill="rgb(45,255,179)" fill-rule="evenodd" stroke="none" stroke-width="1"/></g></g></g></g></g></g></svg>