<?xml version="1.0" encoding="utf-8"?>
<!-- Generator: Moho 13.0.2 build 610 -->
<!DOCTYPE svg PUBLIC "-//W3C//DTD SVG 1.1//EN" "http://www.w3.org/Graphics/SVG/1.1/DTD/svg11.dtd">
<svg version="1.1" id="Frame_0" xmlns="http://www.w3.org/2000/svg" xmlns:xlink="http://www.w3.org/1999/xlink" width="60px" height="60px">
<g id="Layer_18">
<path fill="#5600e3" fill-rule="evenodd" stroke="none" d="M 47.333 14.373 C 50.291 14.373 53.251 14.373 56.211 14.373 C 56.211 11.531 56.211 8.688 56.211 5.844 C 56.211 5.153 55.644 4.646 54.983 4.647 C 52.433 4.647 49.882 4.647 47.333 4.647 C 44.830 4.647 42.327 4.647 39.824 4.647 C 39.824 7.904 39.824 11.162 39.824 14.420 C 42.327 14.420 44.830 14.420 47.333 14.420 C 47.333 14.405 47.333 14.388 47.333 14.373 Z"/>
<path fill="#5600e3" fill-rule="evenodd" stroke="none" d="M 5.020 4.600 C 4.312 4.600 3.744 5.153 3.744 5.844 C 3.744 8.688 3.744 11.531 3.744 14.373 C 9.207 14.373 14.669 14.373 20.131 14.373 C 20.131 11.115 20.131 7.857 20.131 4.600 C 15.094 4.599 10.057 4.599 5.020 4.600 Z"/>
<path fill="#5600e3" fill-rule="evenodd" stroke="none" d="M 30.001 24.792 C 26.711 26.944 23.420 29.097 20.131 31.248 C 20.131 26.437 20.131 21.627 20.131 16.817 C 19.486 16.817 18.841 16.817 18.196 16.817 C 13.378 16.817 8.562 16.817 3.744 16.817 C 3.744 29.418 3.745 42.019 3.744 54.621 C 3.744 55.313 4.311 55.866 4.973 55.866 C 21.626 55.866 38.280 55.866 54.935 55.866 C 55.643 55.866 56.162 55.313 56.162 54.621 C 56.162 42.019 56.162 29.418 56.162 16.817 C 52.652 16.817 49.142 16.817 45.632 16.817 C 43.696 16.817 41.760 16.817 39.824 16.817 C 39.823 21.627 39.823 26.437 39.824 31.248 C 36.550 29.097 33.275 26.944 30.001 24.792 Z"/>
<path fill="#2dffb3" fill-rule="evenodd" stroke="none" d="M 36.989 26.037 C 34.659 24.501 32.329 22.964 30.001 21.427 C 27.655 22.964 25.310 24.501 22.964 26.037 C 22.964 18.492 22.964 10.947 22.964 3.402 C 27.640 3.402 32.314 3.402 36.989 3.402 C 36.989 10.947 36.989 18.492 36.989 26.037 Z"/>
<path fill="#ffffff" fill-rule="evenodd" stroke="none" d="M 19.849 45.908 C 15.914 45.907 11.978 45.907 8.043 45.908 C 8.043 47.844 8.043 49.780 8.043 51.717 C 11.978 51.716 15.914 51.716 19.849 51.717 C 19.849 49.780 19.849 47.844 19.849 45.908 Z"/>
<path fill="#ffffff" fill-rule="evenodd" stroke="none" d="M 19.849 41.898 C 15.914 41.897 11.978 41.897 8.043 41.898 C 8.043 42.619 8.043 43.342 8.043 44.064 C 11.978 44.064 15.914 44.064 19.849 44.064 C 19.849 43.342 19.849 42.619 19.849 41.898 Z"/>
</g>
</svg>
