<?xml version="1.0" encoding="utf-8"?>
<!-- Generator: Moho 13.0.2 build 610 -->
<!DOCTYPE svg PUBLIC "-//W3C//DTD SVG 1.1//EN" "http://www.w3.org/Graphics/SVG/1.1/DTD/svg11.dtd">
<svg version="1.1" id="Frame_0" xmlns="http://www.w3.org/2000/svg" xmlns:xlink="http://www.w3.org/1999/xlink" width="60px" height="60px">
<g id="Frame_(1).svg">
<path fill="#5600e3" fill-rule="evenodd" stroke="none" d="M 32.422 1000.789 C 32.422 1013.012 32.422 1025.234 32.422 1037.457 C 32.422 1039.036 31.146 1040.298 29.550 1040.298 C 22.559 1040.298 15.568 1040.298 8.577 1040.298 C 7.027 1040.298 5.750 1039.126 5.705 1037.637 C 5.704 1025.354 5.705 1013.072 5.705 1000.789 C 5.705 999.887 6.388 999.211 7.300 999.211 C 7.878 999.211 8.455 999.210 9.033 999.211 C 9.352 999.211 9.671 999.391 9.808 999.707 C 10.537 1001.240 12.088 1002.323 13.911 1002.323 C 17.346 1002.322 20.781 1002.322 24.216 1002.323 C 26.039 1002.323 27.635 1001.240 28.319 999.707 C 28.456 999.391 28.775 999.211 29.094 999.211 C 29.671 999.210 30.249 999.211 30.827 999.211 C 31.693 999.211 32.422 999.932 32.422 1000.789 M 35.568 1000.789 C 35.568 998.173 33.425 996.053 30.827 996.053 C 22.984 996.053 15.142 996.053 7.300 996.053 C 4.656 996.053 2.513 998.173 2.513 1000.789 C 2.513 1015.597 2.513 1030.406 2.513 1045.214 C 2.513 1047.695 4.565 1049.724 7.072 1049.724 C 15.051 1049.724 23.030 1049.724 31.009 1049.724 C 33.517 1049.724 35.568 1047.695 35.568 1045.214 C 35.568 1030.406 35.568 1015.597 35.568 1000.789 Z"/>
<path fill="#f9fbfc" fill-rule="evenodd" stroke="none" d="M 19.063 1046.613 C 19.930 1046.613 20.659 1045.891 20.659 1045.034 C 20.659 1044.177 19.929 1043.455 19.063 1043.455 C 18.197 1043.455 17.467 1044.177 17.467 1045.034 C 17.467 1045.891 18.151 1046.613 19.063 1046.613 Z"/>
<path fill="#2dffb3" fill-rule="evenodd" stroke="none" d="M 53.806 1034.345 C 43.243 1034.345 32.681 1034.345 22.119 1034.345 C 20.386 1034.345 18.927 1032.947 18.927 1031.188 C 18.927 1024.618 18.927 1018.048 18.927 1011.478 C 18.927 1009.764 20.340 1008.321 22.119 1008.321 C 32.681 1008.321 43.243 1008.321 53.806 1008.321 C 55.539 1008.321 56.998 1009.719 56.998 1011.478 C 56.997 1018.048 56.997 1024.618 56.998 1031.188 C 56.998 1032.902 55.584 1034.345 53.806 1034.345 Z"/>
<path fill="#5600e3" fill-rule="evenodd" stroke="none" d="M 27.726 1020.363 C 27.437 1020.363 27.149 1020.363 26.860 1020.363 C 25.994 1020.363 25.264 1019.642 25.264 1018.785 C 25.264 1017.928 25.994 1017.206 26.860 1017.206 C 27.149 1017.206 27.437 1017.206 27.726 1017.206 C 28.593 1017.206 29.322 1017.928 29.322 1018.785 C 29.322 1019.687 28.593 1020.363 27.726 1020.363 Z"/>
<path fill="#5600e3" fill-rule="evenodd" stroke="none" d="M 42.362 1028.256 C 37.194 1028.256 32.027 1028.256 26.860 1028.256 C 25.994 1028.256 25.264 1027.535 25.264 1026.678 C 25.264 1025.821 25.994 1025.099 26.860 1025.099 C 32.012 1025.099 37.164 1025.099 42.316 1025.099 C 43.183 1025.099 43.912 1025.821 43.912 1026.678 C 43.912 1027.535 43.228 1028.256 42.362 1028.256 Z"/>
<path fill="#5600e3" fill-rule="evenodd" stroke="none" d="M 34.930 1020.363 C 34.641 1020.363 34.352 1020.363 34.064 1020.363 C 33.197 1020.363 32.468 1019.642 32.468 1018.785 C 32.468 1017.928 33.197 1017.206 34.064 1017.206 C 34.352 1017.206 34.641 1017.206 34.930 1017.206 C 35.796 1017.206 36.526 1017.928 36.526 1018.785 C 36.526 1019.687 35.796 1020.363 34.930 1020.363 Z"/>
<path fill="#5600e3" fill-rule="evenodd" stroke="none" d="M 42.134 1020.363 C 41.844 1020.363 41.556 1020.363 41.267 1020.363 C 40.401 1020.363 39.671 1019.642 39.671 1018.785 C 39.671 1017.928 40.401 1017.206 41.267 1017.206 C 41.556 1017.206 41.844 1017.206 42.134 1017.206 C 43.000 1017.206 43.729 1017.928 43.729 1018.785 C 43.729 1019.687 43.045 1020.363 42.134 1020.363 Z"/>
<path fill="#5600e3" fill-rule="evenodd" stroke="none" d="M 49.337 1020.363 C 49.048 1020.363 48.759 1020.363 48.471 1020.363 C 47.605 1020.363 46.875 1019.642 46.875 1018.785 C 46.875 1017.928 47.605 1017.206 48.471 1017.206 C 48.759 1017.206 49.048 1017.206 49.337 1017.206 C 50.203 1017.206 50.933 1017.928 50.933 1018.785 C 50.933 1019.687 50.249 1020.363 49.337 1020.363 Z"/>
<path fill="#5600e3" fill-rule="evenodd" stroke="none" d="M 9.492 917.250 C 7.270 917.250 5.049 917.250 2.827 917.250 C 1.668 917.250 0.757 916.286 0.757 915.154 C 0.757 911.841 0.757 908.528 0.757 905.216 C 0.757 904.042 1.709 903.119 2.827 903.119 C 5.049 903.119 7.270 903.119 9.492 903.119 C 10.651 903.119 11.562 904.084 11.562 905.216 C 11.562 908.528 11.562 911.841 11.562 915.154 C 11.562 916.286 10.651 917.250 9.492 917.250 Z"/>
<path fill="#5600e3" fill-rule="evenodd" stroke="none" d="M 23.442 917.250 C 21.221 917.250 18.999 917.250 16.778 917.250 C 15.619 917.250 14.708 916.286 14.708 915.154 C 14.708 909.674 14.708 904.195 14.708 898.716 C 14.708 897.542 15.660 896.620 16.778 896.620 C 18.999 896.620 21.221 896.620 23.442 896.620 C 24.601 896.620 25.512 897.584 25.512 898.716 C 25.512 904.195 25.512 909.674 25.512 915.154 C 25.512 916.286 24.601 917.250 23.442 917.250 Z"/>
<path fill="#5600e3" fill-rule="evenodd" stroke="none" d="M 37.393 917.250 C 35.157 917.250 32.922 917.250 30.687 917.250 C 29.528 917.250 28.617 916.286 28.617 915.153 C 28.617 907.130 28.617 899.107 28.617 891.085 C 28.617 889.911 29.569 888.988 30.687 888.988 C 32.908 888.988 35.130 888.988 37.352 888.988 C 38.511 888.988 39.422 889.953 39.422 891.085 C 39.421 899.107 39.421 907.130 39.422 915.153 C 39.463 916.286 38.511 917.250 37.393 917.250 Z"/>
<path fill="#2dffb3" fill-rule="evenodd" stroke="none" d="M 57.139 885.172 C 58.505 885.172 59.085 884.208 58.381 882.992 C 57.277 881.049 56.173 879.106 55.069 877.163 C 54.407 875.947 53.289 874.019 52.586 872.802 C 51.481 870.860 50.377 868.917 49.274 866.974 C 48.611 865.758 47.494 865.758 46.790 866.974 C 45.686 868.917 44.582 870.860 43.478 872.802 C 42.816 874.019 41.698 875.947 40.995 877.163 C 39.890 879.106 38.787 881.049 37.683 882.992 C 37.021 884.208 37.559 885.172 38.925 885.172 C 39.338 885.172 39.752 885.172 40.167 885.172 C 41.533 885.172 42.650 886.305 42.651 887.688 C 42.650 896.004 42.650 904.321 42.651 912.638 C 42.651 914.021 42.857 915.615 43.106 916.202 C 43.354 916.789 45.838 917.250 47.204 917.250 C 47.769 917.250 48.335 917.250 48.901 917.250 C 50.267 917.250 51.840 917.040 52.420 916.789 C 53.000 916.537 53.455 914.021 53.455 912.638 C 53.454 904.321 53.454 896.004 53.455 887.688 C 53.455 886.305 54.573 885.172 55.939 885.172 C 56.338 885.172 56.738 885.172 57.139 885.172 Z"/>
<path fill="#5600e3" fill-rule="evenodd" stroke="none" d="M 27.875 984.381 C 27.875 982.308 27.875 980.236 27.875 978.163 C 24.304 978.378 21.378 975.505 21.378 971.946 C 21.378 968.601 24.304 965.728 27.875 965.942 C 27.875 963.940 27.875 961.939 27.875 959.938 C 24.074 959.938 20.274 959.938 16.473 959.938 C 16.904 958.823 17.592 957.708 17.592 956.594 C 17.592 952.134 10.880 952.134 10.880 956.594 C 10.880 957.708 11.569 958.823 11.999 959.938 C 8.198 959.938 4.398 959.938 0.597 959.938 C 0.597 967.514 0.597 975.090 0.597 982.666 C 0.597 983.567 1.286 984.467 2.404 984.467 C 10.894 984.467 19.385 984.467 27.875 984.467 C 27.875 984.438 27.875 984.409 27.875 984.381 Z"/>
<path fill="#5600e3" fill-rule="evenodd" stroke="none" d="M 58.036 959.895 C 55.654 959.895 53.274 959.895 50.894 959.895 C 51.109 963.455 48.441 966.371 44.870 966.371 C 41.299 966.371 38.373 963.455 38.632 959.895 C 35.935 959.895 33.239 959.895 30.543 959.895 C 30.543 963.083 30.543 966.270 30.543 969.458 C 29.639 969.244 28.521 968.558 27.402 968.558 C 22.927 968.558 22.927 975.462 27.402 975.462 C 28.521 975.462 29.639 974.776 30.543 974.561 C 30.543 977.834 30.543 981.108 30.543 984.381 C 39.033 984.381 47.523 984.381 56.014 984.381 C 57.132 984.381 58.036 983.481 58.036 982.580 C 58.035 975.018 58.035 967.457 58.036 959.895 Z"/>
<path fill="#5600e3" fill-rule="evenodd" stroke="none" d="M 0.383 957.237 C 2.993 957.237 5.603 957.237 8.213 957.237 C 7.783 953.677 10.665 950.547 14.236 950.547 C 17.808 950.547 20.733 953.677 20.260 957.237 C 22.798 957.237 25.337 957.237 27.875 957.237 C 27.875 953.820 27.875 950.404 27.875 946.988 C 28.994 947.417 30.113 948.103 31.231 948.103 C 35.921 948.103 35.921 940.984 31.231 940.984 C 30.113 940.984 28.994 941.885 27.875 942.314 C 27.875 939.040 27.875 935.767 27.875 932.494 C 19.385 932.494 10.895 932.494 2.405 932.494 C 1.286 932.494 0.383 933.394 0.383 934.509 C 0.383 942.085 0.383 949.661 0.383 957.237 Z"/>
<path fill="#2dffb3" fill-rule="evenodd" stroke="none" d="M 58.035 957.237 C 58.035 949.661 58.035 942.085 58.035 934.509 C 58.035 933.394 57.132 932.494 56.013 932.494 C 47.523 932.494 39.032 932.494 30.543 932.494 C 30.542 934.495 30.542 936.496 30.543 938.497 C 34.114 938.068 37.470 940.941 37.470 944.501 C 37.470 948.274 34.114 950.976 30.543 950.504 C 30.542 952.734 30.542 954.964 30.543 957.194 C 34.414 957.194 38.287 957.194 42.159 957.194 C 41.944 958.095 41.256 959.210 41.256 960.324 C 41.256 964.784 48.183 964.784 48.183 960.324 C 48.183 959.210 47.753 958.095 47.279 957.194 C 50.864 957.194 54.449 957.194 58.035 957.194 C 58.035 957.208 58.035 957.222 58.035 957.237 Z"/>
<path fill="#5600e3" fill-rule="evenodd" stroke="none" d="M 32.085 850.407 C 32.085 851.238 31.371 851.950 30.538 851.950 C 29.646 851.950 28.992 851.297 28.992 850.407 C 28.992 849.576 29.646 848.864 30.538 848.864 C 31.371 848.864 32.085 849.576 32.085 850.407 M 55.525 821.383 C 55.465 821.205 55.465 821.086 55.406 820.848 C 54.235 821.838 53.065 822.827 51.896 823.816 C 51.895 831.374 51.895 838.932 51.896 846.490 C 37.657 846.489 23.419 846.489 9.181 846.490 C 9.181 838.575 9.181 830.662 9.181 822.748 C 17.312 822.748 25.442 822.748 33.573 822.748 C 34.584 821.561 35.595 820.373 36.607 819.187 C 27.028 819.187 17.450 819.186 7.873 819.187 C 6.683 819.187 5.671 820.196 5.671 821.442 C 5.671 831.651 5.671 841.860 5.671 852.069 C 5.671 853.256 6.683 854.265 7.873 854.265 C 13.940 854.264 20.008 854.264 26.077 854.265 C 26.076 855.630 26.076 856.995 26.077 858.360 C 24.728 858.360 23.380 858.360 22.031 858.360 C 21.436 858.360 20.901 858.835 20.901 859.488 C 20.901 860.180 20.901 860.873 20.901 861.565 C 20.901 862.159 21.377 862.693 22.031 862.693 C 27.683 862.693 33.334 862.693 38.986 862.693 C 39.581 862.693 40.116 862.218 40.116 861.565 C 40.116 860.873 40.116 860.180 40.116 859.488 C 40.116 858.895 39.641 858.360 38.986 858.360 C 37.637 858.360 36.289 858.360 34.941 858.360 C 34.941 856.995 34.941 855.630 34.941 854.265 C 41.048 854.264 47.156 854.265 53.264 854.265 C 54.513 854.265 55.525 853.256 55.525 852.069 C 55.524 841.840 55.524 831.611 55.525 821.383 Z"/>
<path fill="#2dffb3" fill-rule="evenodd" stroke="none" d="M 37.558 827.792 C 38.332 828.564 38.927 829.454 39.343 830.404 C 44.082 826.308 48.822 822.213 53.561 818.117 C 55.525 816.396 55.584 813.429 53.799 811.589 C 51.955 809.749 48.981 809.867 47.255 811.826 C 43.170 816.574 39.085 821.323 35.000 826.071 C 35.952 826.427 36.844 827.021 37.558 827.792 Z"/>
<path fill="#2dffb3" fill-rule="evenodd" stroke="none" d="M 28.040 830.107 C 25.898 832.244 26.910 835.924 23.400 838.535 C 22.745 839.010 22.983 840.019 23.757 840.197 C 29.289 841.384 33.216 839.426 35.238 837.348 C 37.202 835.389 37.202 832.125 35.238 830.107 C 33.275 828.089 30.063 828.089 28.040 830.107 Z"/>
<path fill="#5600e3" fill-rule="evenodd" stroke="none" d="M 35.199 781.979 C 31.992 781.978 28.784 781.978 25.577 781.979 C 17.922 781.979 11.742 787.597 11.742 794.550 C 11.742 795.158 11.742 795.767 11.742 796.376 C 11.742 797.008 12.233 797.500 12.865 797.500 C 24.594 797.499 36.323 797.499 48.052 797.500 C 48.684 797.500 49.175 797.008 49.175 796.376 C 49.175 795.767 49.175 795.158 49.175 794.550 C 49.105 787.597 42.854 781.979 35.199 781.979 Z"/>
<path fill="#2dffb3" fill-rule="evenodd" stroke="none" d="M 48.051 760.276 C 48.051 759.901 48.051 759.527 48.051 759.152 C 48.051 751.427 40.607 745.106 31.547 745.106 C 30.774 745.106 30.002 745.106 29.229 745.106 C 20.169 745.106 12.725 751.427 12.725 759.223 C 12.725 759.597 12.725 759.972 12.725 760.346 C 10.407 760.979 8.721 762.875 8.721 765.263 C 8.721 767.159 9.845 768.774 11.460 769.617 C 11.460 769.664 11.460 769.711 11.460 769.758 C 11.460 772.075 13.497 773.972 15.955 773.972 C 19.537 773.971 23.119 773.971 26.701 773.972 C 27.333 775.165 28.667 776.008 30.142 776.008 C 32.249 776.008 34.005 774.393 34.005 772.426 C 34.005 770.460 32.249 768.845 30.142 768.845 C 28.246 768.845 26.701 770.109 26.350 771.794 C 22.885 771.794 19.420 771.794 15.955 771.794 C 14.902 771.794 13.989 771.162 13.708 770.319 C 13.919 770.319 14.059 770.390 14.270 770.390 C 14.597 770.389 14.925 770.389 15.253 770.390 C 15.885 770.390 16.377 769.898 16.377 769.266 C 16.377 766.573 16.376 763.881 16.377 761.189 C 16.377 760.557 15.885 760.065 15.253 760.065 C 15.136 760.065 15.019 760.065 14.902 760.065 C 14.902 759.761 14.902 759.457 14.902 759.152 C 14.902 752.551 21.293 747.213 29.229 747.213 C 30.002 747.213 30.774 747.213 31.547 747.213 C 39.413 747.213 45.874 752.551 45.874 759.152 C 45.874 759.457 45.874 759.761 45.874 760.065 C 45.804 760.065 45.733 760.065 45.664 760.065 C 45.031 760.065 44.540 760.557 44.540 761.189 C 44.540 763.858 44.539 766.527 44.540 769.196 C 44.540 769.828 45.031 770.319 45.664 770.319 C 45.991 770.319 46.319 770.319 46.647 770.319 C 49.667 770.319 52.195 768.002 52.195 765.192 C 52.195 762.875 50.439 760.908 48.051 760.276 Z"/>
<path fill="#5600e3" fill-rule="evenodd" stroke="none" d="M 30.213 778.115 C 28.387 778.115 26.702 777.342 25.648 776.078 C 24.852 776.078 24.056 776.078 23.260 776.078 C 25.297 777.975 27.755 779.239 30.424 779.239 C 37.868 779.239 43.487 769.547 43.487 763.226 C 43.417 756.764 37.588 751.427 30.354 751.427 C 23.190 751.427 17.290 756.764 17.290 763.296 C 17.290 765.192 17.782 767.370 18.695 769.547 C 20.755 769.547 22.815 769.547 24.876 769.547 C 25.929 767.791 27.896 766.597 30.143 766.597 C 33.444 766.597 36.183 769.196 36.183 772.356 C 36.253 775.516 33.514 778.115 30.213 778.115 Z"/>
<path fill="#5600e3" fill-rule="evenodd" stroke="none" d="M 35.199 781.979 C 31.992 781.978 28.784 781.978 25.577 781.979 C 17.922 781.979 11.742 787.597 11.742 794.550 C 11.742 795.158 11.742 795.767 11.742 796.376 C 11.742 797.008 12.233 797.500 12.865 797.500 C 24.594 797.499 36.323 797.499 48.052 797.500 C 48.684 797.500 49.175 797.008 49.175 796.376 C 49.175 795.767 49.175 795.158 49.175 794.550 C 49.105 787.597 42.854 781.979 35.199 781.979 Z"/>
<path fill="#2dffb3" fill-rule="evenodd" stroke="none" d="M 48.051 760.276 C 48.051 759.901 48.051 759.527 48.051 759.152 C 48.051 751.427 40.607 745.106 31.547 745.106 C 30.774 745.106 30.002 745.106 29.229 745.106 C 20.169 745.106 12.725 751.427 12.725 759.223 C 12.725 759.597 12.725 759.972 12.725 760.346 C 10.407 760.979 8.721 762.875 8.721 765.263 C 8.721 767.159 9.845 768.774 11.460 769.617 C 11.460 769.664 11.460 769.711 11.460 769.758 C 11.460 772.075 13.497 773.972 15.955 773.972 C 19.537 773.971 23.119 773.971 26.701 773.972 C 27.333 775.165 28.667 776.008 30.142 776.008 C 32.249 776.008 34.005 774.393 34.005 772.426 C 34.005 770.460 32.249 768.845 30.142 768.845 C 28.246 768.845 26.701 770.109 26.350 771.794 C 22.885 771.794 19.420 771.794 15.955 771.794 C 14.902 771.794 13.989 771.162 13.708 770.319 C 13.919 770.319 14.059 770.390 14.270 770.390 C 14.597 770.389 14.925 770.389 15.253 770.390 C 15.885 770.390 16.377 769.898 16.377 769.266 C 16.377 766.573 16.376 763.881 16.377 761.189 C 16.377 760.557 15.885 760.065 15.253 760.065 C 15.136 760.065 15.019 760.065 14.902 760.065 C 14.902 759.761 14.902 759.457 14.902 759.152 C 14.902 752.551 21.293 747.213 29.229 747.213 C 30.002 747.213 30.774 747.213 31.547 747.213 C 39.413 747.213 45.874 752.551 45.874 759.152 C 45.874 759.457 45.874 759.761 45.874 760.065 C 45.804 760.065 45.733 760.065 45.664 760.065 C 45.031 760.065 44.540 760.557 44.540 761.189 C 44.540 763.858 44.539 766.527 44.540 769.196 C 44.540 769.828 45.031 770.319 45.664 770.319 C 45.991 770.319 46.319 770.319 46.647 770.319 C 49.667 770.319 52.195 768.002 52.195 765.192 C 52.195 762.875 50.439 760.908 48.051 760.276 Z"/>
<path fill="#5600e3" fill-rule="evenodd" stroke="none" d="M 30.213 778.115 C 28.387 778.115 26.702 777.342 25.648 776.078 C 24.852 776.078 24.056 776.078 23.260 776.078 C 25.297 777.975 27.755 779.239 30.424 779.239 C 37.868 779.239 43.487 769.547 43.487 763.226 C 43.417 756.764 37.588 751.427 30.354 751.427 C 23.190 751.427 17.290 756.764 17.290 763.296 C 17.290 765.192 17.782 767.370 18.695 769.547 C 20.755 769.547 22.815 769.547 24.876 769.547 C 25.929 767.791 27.896 766.597 30.143 766.597 C 33.444 766.597 36.183 769.196 36.183 772.356 C 36.253 775.516 33.514 778.115 30.213 778.115 Z"/>
<path fill="#5600e3" fill-rule="evenodd" stroke="none" d="M 53.422 699.372 C 53.421 708.717 53.421 718.062 53.422 727.407 C 53.422 729.098 52.017 730.555 50.260 730.555 C 36.753 730.554 23.247 730.554 9.740 730.555 C 8.042 730.555 6.578 729.156 6.578 727.407 C 6.578 718.062 6.578 708.717 6.578 699.372 C 6.578 697.682 7.984 696.224 9.740 696.224 C 23.247 696.224 36.753 696.224 50.260 696.224 C 51.958 696.224 53.422 697.623 53.422 699.372 M 6.578 690.046 C 6.578 688.298 8.042 686.899 9.740 686.899 C 11.438 686.899 12.902 688.298 12.902 690.046 C 12.902 691.795 11.497 693.194 9.740 693.194 C 7.984 693.194 6.578 691.795 6.578 690.046 M 16.005 690.046 C 16.005 688.298 17.411 686.899 19.167 686.899 C 20.865 686.899 22.329 688.298 22.329 690.046 C 22.329 691.795 20.924 693.194 19.167 693.194 C 17.411 693.194 16.005 691.795 16.005 690.046 M 56.525 689.988 C 56.525 686.549 53.715 683.751 50.260 683.751 C 36.753 683.751 23.247 683.751 9.740 683.751 C 6.285 683.751 3.475 686.549 3.475 689.988 C 3.475 702.461 3.475 714.934 3.475 727.407 C 3.475 730.846 6.285 733.644 9.740 733.644 C 23.247 733.643 36.753 733.643 50.260 733.644 C 53.715 733.644 56.525 730.846 56.525 727.407 C 56.525 714.934 56.525 702.461 56.525 689.988 Z"/>
<path fill="#2dffb3" fill-rule="evenodd" stroke="none" d="M 44.112 709.513 C 43.000 709.513 41.946 710.155 41.477 711.087 C 41.321 711.087 41.165 711.087 41.009 711.087 C 41.008 709.008 41.008 706.929 41.009 704.850 C 41.009 703.160 39.604 701.703 37.847 701.703 C 35.758 701.703 33.670 701.703 31.582 701.703 C 31.581 701.858 31.581 702.014 31.582 702.169 C 34.392 703.568 33.280 707.940 30.001 707.940 C 26.839 707.940 25.609 703.743 28.420 702.169 C 28.419 702.014 28.419 701.858 28.420 701.703 C 26.331 701.703 24.243 701.703 22.154 701.703 C 20.456 701.703 18.992 703.102 18.992 704.850 C 18.992 706.929 18.992 709.008 18.992 711.087 C 18.836 711.087 18.680 711.087 18.524 711.087 C 18.056 710.155 16.943 709.513 15.889 709.513 C 14.191 709.513 12.727 710.912 12.727 712.661 C 12.727 714.351 14.132 715.808 15.889 715.808 C 17.002 715.808 18.056 715.167 18.524 714.234 C 18.680 714.234 18.836 714.234 18.992 714.234 C 18.992 716.313 18.992 718.392 18.992 720.471 C 18.992 722.161 20.398 723.619 22.154 723.619 C 24.243 723.618 26.331 723.618 28.420 723.619 C 28.419 723.463 28.419 723.307 28.420 723.152 C 28.127 722.977 27.951 722.861 27.775 722.686 C 25.902 720.821 27.131 717.382 29.942 717.382 C 33.104 717.382 34.334 721.579 31.523 723.152 C 31.523 723.307 31.523 723.463 31.523 723.619 C 33.611 723.618 35.700 723.618 37.788 723.619 C 39.486 723.619 40.950 722.220 40.950 720.471 C 40.950 718.372 40.950 716.274 40.950 714.176 C 41.106 714.176 41.262 714.176 41.419 714.176 C 41.887 715.109 43.000 715.750 44.054 715.750 C 45.752 715.750 47.216 714.351 47.216 712.602 C 47.274 710.912 45.869 709.513 44.112 709.513 Z"/>
<path fill="#5600e3" fill-rule="evenodd" stroke="none" d="M 25.345 645.477 C 25.345 646.573 24.980 647.547 24.188 648.278 C 23.396 649.070 22.483 649.435 21.386 649.435 C 20.290 649.435 19.377 649.070 18.585 648.278 C 17.793 647.486 17.428 646.573 17.428 645.477 C 17.428 644.380 17.793 643.467 18.585 642.675 C 19.377 641.884 20.290 641.518 21.386 641.518 C 22.483 641.518 23.396 641.884 24.188 642.675 C 24.980 643.467 25.345 644.380 25.345 645.477 M 31.252 644.015 C 31.252 643.954 31.191 643.832 31.131 643.711 C 31.070 643.650 30.948 643.528 30.887 643.528 C 30.115 643.406 29.344 643.284 28.573 643.162 C 28.451 642.797 28.329 642.371 28.086 641.884 C 28.268 641.640 28.451 641.335 28.816 640.970 C 29.121 640.604 29.304 640.300 29.486 640.178 C 29.547 640.057 29.608 639.996 29.608 639.874 C 29.608 639.630 28.877 638.778 27.355 637.438 C 27.233 637.377 27.172 637.316 27.050 637.316 C 26.928 637.316 26.807 637.377 26.746 637.438 C 26.136 637.884 25.527 638.331 24.919 638.778 C 24.492 638.534 24.127 638.412 23.762 638.290 C 23.640 637.519 23.518 636.747 23.396 635.976 C 23.396 635.854 23.335 635.793 23.213 635.732 C 23.153 635.672 23.031 635.611 22.909 635.611 C 21.955 635.610 21.000 635.610 20.047 635.611 C 19.803 635.611 19.681 635.732 19.559 635.976 C 19.438 636.463 19.316 637.255 19.194 638.351 C 18.768 638.534 18.341 638.656 18.037 638.839 C 17.428 638.371 16.819 637.905 16.210 637.438 C 16.088 637.377 16.027 637.316 15.905 637.316 C 15.722 637.316 15.296 637.620 14.687 638.229 C 14.078 638.838 13.652 639.265 13.408 639.569 C 13.347 639.630 13.286 639.752 13.286 639.874 C 13.286 639.935 13.347 640.057 13.408 640.178 C 14.017 640.909 14.444 641.457 14.809 642.005 C 14.565 642.432 14.444 642.797 14.322 643.162 C 13.530 643.284 12.738 643.406 11.947 643.528 C 11.886 643.528 11.764 643.589 11.703 643.711 C 11.642 643.832 11.581 643.893 11.581 644.015 C 11.581 644.969 11.581 645.923 11.581 646.877 C 11.581 646.999 11.642 647.060 11.703 647.182 C 11.764 647.243 11.886 647.365 11.947 647.365 C 12.718 647.486 13.489 647.608 14.261 647.730 C 14.383 648.095 14.565 648.522 14.809 649.009 C 14.626 649.253 14.444 649.557 14.078 649.923 C 13.774 650.288 13.530 650.592 13.469 650.714 C 13.408 650.836 13.347 650.897 13.347 651.019 C 13.347 651.262 14.078 652.115 15.601 653.455 C 15.723 653.516 15.783 653.577 15.905 653.577 C 16.027 653.577 16.149 653.516 16.210 653.455 C 16.819 653.008 17.428 652.561 18.037 652.115 C 18.463 652.359 18.829 652.480 19.194 652.602 C 19.316 653.394 19.437 654.185 19.559 654.977 C 19.559 655.099 19.620 655.160 19.742 655.221 C 19.803 655.282 19.925 655.343 20.047 655.343 C 21.000 655.342 21.955 655.342 22.909 655.343 C 23.153 655.343 23.274 655.221 23.396 654.977 C 23.518 654.490 23.640 653.698 23.762 652.602 C 24.188 652.480 24.553 652.359 24.919 652.115 C 25.527 652.582 26.136 653.048 26.746 653.516 C 26.868 653.577 26.928 653.637 27.050 653.637 C 27.233 653.637 27.659 653.333 28.268 652.724 C 28.877 652.115 29.304 651.628 29.547 651.384 C 29.486 651.262 29.547 651.201 29.547 651.019 C 29.547 650.897 29.486 650.836 29.425 650.714 C 28.816 649.984 28.390 649.435 28.025 648.887 C 28.268 648.461 28.390 648.095 28.512 647.730 C 29.303 647.608 30.095 647.486 30.887 647.365 C 30.948 647.365 31.070 647.304 31.131 647.182 C 31.191 647.060 31.252 646.999 31.252 646.877 C 31.252 645.923 31.252 644.969 31.252 644.015 Z"/>
<path fill="#2dffb3" fill-rule="evenodd" stroke="none" d="M 42.546 641.437 C 46.623 637.360 50.699 633.284 54.776 629.207 C 52.982 627.413 51.187 625.619 49.393 623.824 C 45.316 627.901 41.240 631.978 37.163 636.054 C 38.957 637.849 40.752 639.643 42.546 641.437 Z"/>
<path fill="#2dffb3" fill-rule="evenodd" stroke="none" d="M 33.201 644.075 C 33.018 644.866 33.749 645.658 34.541 645.414 C 36.164 645.049 37.788 644.683 39.413 644.318 C 39.596 644.257 39.839 644.136 39.961 644.014 C 40.387 643.587 40.813 643.161 41.240 642.735 C 39.453 640.948 37.667 639.162 35.881 637.375 C 35.454 637.802 35.028 638.228 34.602 638.654 C 34.480 638.837 34.358 639.020 34.297 639.203 C 33.931 640.826 33.566 642.450 33.201 644.075 Z"/>
<path fill="#5600e3" fill-rule="evenodd" stroke="none" d="M 6.039 627.023 C 6.039 626.109 6.770 625.439 7.622 625.439 C 8.475 625.439 9.206 626.170 9.206 627.023 C 9.206 627.875 8.475 628.606 7.622 628.606 C 6.770 628.606 6.039 627.875 6.039 627.023 M 12.129 627.023 C 12.129 626.109 12.860 625.439 13.712 625.439 C 14.565 625.439 15.296 626.170 15.296 627.023 C 15.296 627.875 14.565 628.606 13.712 628.606 C 12.860 628.606 12.129 627.875 12.129 627.023 M 18.219 627.023 C 18.219 626.109 18.950 625.439 19.802 625.439 C 20.655 625.439 21.386 626.170 21.386 627.023 C 21.386 627.875 20.655 628.606 19.802 628.606 C 18.950 628.606 18.219 627.875 18.219 627.023 M 48.670 638.290 C 48.669 645.760 48.669 653.230 48.670 660.701 C 34.459 660.701 20.249 660.701 6.039 660.701 C 6.039 651.099 6.039 641.497 6.039 631.895 C 16.838 631.895 27.638 631.895 38.438 631.895 C 41.564 628.748 44.690 625.602 47.817 622.455 C 47.999 622.273 48.182 622.090 48.365 621.907 C 33.891 621.906 19.417 621.907 4.943 621.907 C 3.237 621.907 1.897 623.308 1.897 624.952 C 1.897 637.153 1.897 649.353 1.897 661.554 C 1.897 663.259 3.298 664.599 4.943 664.599 C 19.884 664.599 34.824 664.598 49.766 664.599 C 51.471 664.599 52.811 663.198 52.811 661.554 C 52.811 652.418 52.811 643.283 52.811 634.148 C 51.430 635.529 50.050 636.909 48.670 638.290 Z"/>
<path fill="#2dffb3" fill-rule="evenodd" stroke="none" d="M 58.475 623.917 C 57.216 622.658 55.957 621.400 54.699 620.141 C 54.273 619.715 53.542 619.715 53.055 620.141 C 52.283 620.913 51.511 621.684 50.740 622.455 C 52.526 624.242 54.313 626.028 56.100 627.815 C 56.871 627.043 57.642 626.272 58.414 625.500 C 58.901 625.074 58.901 624.343 58.475 623.917 Z"/>
<path fill="#5600e3" fill-rule="evenodd" stroke="none" d="M 34.807 599.949 C 34.807 600.613 34.360 601.055 33.689 601.055 C 31.211 601.055 28.733 601.055 26.255 601.055 C 25.584 601.055 25.137 600.613 25.137 599.949 C 25.137 599.285 25.584 598.843 26.255 598.843 C 28.733 598.842 31.211 598.842 33.689 598.843 C 34.360 598.843 34.807 599.285 34.807 599.949 M 56.942 595.855 C 38.980 595.855 21.019 595.855 3.058 595.855 C 3.058 597.477 3.058 599.100 3.058 600.723 C 3.058 602.604 4.512 604.042 6.412 604.042 C 22.137 604.042 37.862 604.042 53.588 604.042 C 55.488 604.042 56.942 602.604 56.942 600.723 C 56.941 599.100 56.941 597.477 56.942 595.855 Z"/>
<path fill="#5600e3" fill-rule="evenodd" stroke="none" d="M 49.787 588.055 C 49.824 588.054 49.861 588.054 49.899 588.055 C 36.651 588.054 23.404 588.054 10.157 588.055 C 10.157 579.978 10.157 571.901 10.157 563.824 C 23.367 563.824 36.576 563.824 49.787 563.824 C 49.786 571.901 49.786 579.978 49.787 588.055 M 54.258 562.718 C 54.295 562.718 54.332 562.718 54.370 562.718 C 54.370 560.837 52.917 559.399 51.016 559.399 C 37.005 559.399 22.994 559.399 8.983 559.399 C 7.083 559.399 5.629 560.837 5.629 562.718 C 5.629 572.675 5.629 582.633 5.629 592.591 C 21.839 592.590 38.048 592.590 54.258 592.591 C 54.258 582.633 54.258 572.675 54.258 562.718 Z"/>
<path fill="#2dffb3" fill-rule="evenodd" stroke="none" d="M 32.571 581.748 C 32.795 582.301 33.577 582.412 33.801 581.858 C 34.248 581.010 34.695 580.162 35.142 579.314 C 36.819 580.973 38.496 582.633 40.173 584.293 C 41.141 583.333 42.110 582.375 43.079 581.416 C 41.402 579.756 39.725 578.096 38.049 576.437 C 38.906 575.994 39.763 575.552 40.620 575.109 C 41.179 574.888 41.067 574.114 40.508 573.892 C 36.800 572.602 33.093 571.311 29.385 570.020 C 28.826 569.799 28.267 570.352 28.491 570.905 C 29.851 574.519 31.211 578.133 32.571 581.748 Z"/>
<path fill="#5600e3" fill-rule="evenodd" stroke="none" d="M 33.785 513.509 C 33.566 513.344 33.292 513.289 33.019 513.289 C 32.909 513.289 32.800 513.289 32.690 513.344 C 32.307 513.399 31.979 513.674 31.760 514.004 C 31.541 514.334 31.486 514.719 31.541 515.104 C 31.596 515.489 31.869 515.819 32.198 516.039 C 32.526 516.259 32.909 516.314 33.292 516.259 C 33.675 516.204 34.004 515.929 34.223 515.599 C 34.441 515.269 34.496 514.884 34.441 514.499 C 34.387 514.114 34.058 513.729 33.785 513.509 Z"/>
<path fill="#5600e3" fill-rule="evenodd" stroke="none" d="M 35.427 512.574 C 35.810 512.959 36.083 513.454 36.193 514.004 C 36.412 514.884 36.248 515.764 35.755 516.479 C 35.317 517.250 34.551 517.800 33.675 517.965 C 33.456 518.020 33.183 518.020 32.964 518.020 C 32.635 518.020 32.362 517.965 32.033 517.910 C 31.577 518.624 31.121 519.339 30.665 520.055 C 30.154 519.724 29.643 519.394 29.133 519.065 C 29.588 518.349 30.045 517.634 30.501 516.919 C 30.118 516.534 29.899 516.039 29.735 515.489 C 29.516 514.609 29.680 513.729 30.172 513.014 C 30.665 512.244 31.377 511.749 32.252 511.529 C 32.800 511.419 33.402 511.419 33.949 511.584 C 35.262 510.135 36.576 508.687 37.889 507.238 C 37.068 509.017 36.247 510.795 35.427 512.574 M 43.527 514.719 C 43.527 508.889 38.820 504.158 32.964 504.158 C 27.162 504.158 22.456 508.889 22.456 514.719 C 22.456 520.550 27.162 525.280 32.964 525.280 C 38.765 525.280 43.527 520.550 43.527 514.719 Z"/>
<path fill="#2dffb3" fill-rule="evenodd" stroke="none" d="M 23.878 505.258 C 18.971 505.258 14.063 505.258 9.156 505.258 C 9.156 506.266 9.156 507.274 9.156 508.283 C 14.063 508.283 18.971 508.283 23.878 508.283 C 23.878 507.274 23.878 506.266 23.878 505.258 Z"/>
<path fill="#2dffb3" fill-rule="evenodd" stroke="none" d="M 23.878 521.209 C 18.971 521.209 14.063 521.209 9.156 521.209 C 9.156 522.218 9.156 523.226 9.156 524.235 C 14.063 524.234 18.971 524.234 23.878 524.235 C 23.878 523.226 23.878 522.218 23.878 521.209 Z"/>
<path fill="#5600e3" fill-rule="evenodd" stroke="none" d="M 16.599 509.604 C 15.906 509.604 15.212 509.604 14.519 509.604 C 14.519 510.374 14.519 511.144 14.519 511.914 C 15.212 511.914 15.906 511.914 16.599 511.914 C 16.599 511.144 16.599 510.374 16.599 509.604 Z"/>
<path fill="#5600e3" fill-rule="evenodd" stroke="none" d="M 35.700 534.851 C 35.700 535.401 35.207 535.896 34.660 535.896 C 33.547 535.895 32.434 535.895 31.322 535.896 C 30.774 535.896 30.282 535.456 30.282 534.851 C 30.282 534.301 30.719 533.806 31.322 533.806 C 32.434 533.805 33.547 533.805 34.660 533.806 C 35.207 533.806 35.700 534.246 35.700 534.851 M 38.218 494.587 C 38.163 495.137 37.725 495.632 37.178 495.632 C 34.386 495.632 31.595 495.632 28.804 495.632 C 28.257 495.632 27.764 495.192 27.764 494.587 C 27.764 494.037 28.202 493.542 28.804 493.542 C 31.595 493.542 34.386 493.542 37.178 493.542 C 37.780 493.542 38.218 493.982 38.218 494.587 M 25.684 494.587 C 25.630 494.862 25.520 495.137 25.356 495.302 C 25.137 495.467 24.918 495.577 24.644 495.577 C 24.371 495.577 24.097 495.467 23.933 495.302 C 23.714 495.082 23.604 494.862 23.604 494.587 C 23.604 494.312 23.714 494.037 23.933 493.872 C 24.316 493.487 24.973 493.487 25.411 493.872 C 25.630 494.092 25.684 494.312 25.684 494.587 M 51.408 494.037 C 51.408 491.782 49.547 489.911 47.303 489.911 C 37.761 489.911 28.220 489.911 18.679 489.911 C 16.380 489.911 14.519 491.782 14.519 494.037 C 14.519 497.337 14.519 500.637 14.519 503.938 C 15.212 503.938 15.906 503.938 16.599 503.938 C 16.599 502.379 16.599 500.821 16.599 499.262 C 27.527 499.262 38.454 499.262 49.383 499.262 C 49.382 509.548 49.382 519.834 49.383 530.120 C 38.454 530.120 27.527 530.120 16.599 530.120 C 16.599 528.562 16.599 527.003 16.599 525.445 C 15.906 525.445 15.212 525.445 14.519 525.445 C 14.519 528.745 14.519 532.045 14.519 535.346 C 14.519 537.656 16.380 539.471 18.624 539.471 C 28.183 539.471 37.743 539.471 47.303 539.471 C 49.547 539.471 51.408 537.601 51.408 535.346 C 51.407 533.952 51.407 532.559 51.408 531.166 C 51.407 520.201 51.407 509.236 51.408 498.272 C 51.407 496.860 51.407 495.449 51.408 494.037 Z"/>
<path fill="#5600e3" fill-rule="evenodd" stroke="none" d="M 16.599 517.525 C 15.906 517.524 15.212 517.524 14.519 517.525 C 14.519 518.294 14.519 519.065 14.519 519.835 C 15.212 519.835 15.906 519.835 16.599 519.835 C 16.599 519.065 16.599 518.294 16.599 517.525 Z"/>
<path fill="#2dffb3" fill-rule="evenodd" stroke="none" d="M 20.485 513.234 C 15.578 513.234 10.670 513.234 5.763 513.234 C 5.763 514.242 5.763 515.251 5.763 516.260 C 10.670 516.259 15.578 516.259 20.485 516.260 C 20.485 515.251 20.485 514.242 20.485 513.234 Z"/>
<path fill="#5600e3" fill-rule="evenodd" stroke="none" d="M 50.443 438.883 C 50.443 439.753 49.749 440.449 48.882 440.449 C 42.578 440.449 36.274 440.449 29.971 440.449 C 29.104 440.449 28.410 439.753 28.410 438.883 C 28.410 438.013 29.104 437.316 29.971 437.316 C 36.274 437.316 42.578 437.316 48.882 437.316 C 49.749 437.316 50.443 438.013 50.443 438.883 M 25.287 438.883 C 25.287 439.753 24.593 440.449 23.725 440.449 C 22.858 440.449 22.164 439.753 22.164 438.883 C 22.164 438.013 22.858 437.316 23.725 437.316 C 24.593 437.316 25.287 438.013 25.287 438.883 M 18.925 438.825 C 18.925 439.695 18.231 440.391 17.364 440.391 C 16.496 440.391 15.802 439.695 15.802 438.825 C 15.802 437.955 16.496 437.258 17.364 437.258 C 18.231 437.258 18.925 437.955 18.925 438.825 M 12.622 438.825 C 12.622 439.695 11.928 440.449 11.060 440.449 C 10.193 440.449 9.499 439.753 9.499 438.883 C 9.499 438.013 10.193 437.258 11.060 437.258 C 11.928 437.258 12.622 437.955 12.622 438.825 M 55.301 434.068 C 55.243 432.269 53.855 430.877 52.120 430.877 C 37.373 430.877 22.626 430.877 7.879 430.877 C 6.145 430.877 4.699 432.327 4.699 434.068 C 4.699 446.734 4.699 459.400 4.699 472.067 C 4.699 473.808 6.145 475.258 7.879 475.258 C 8.226 475.258 8.573 475.258 8.920 475.258 C 8.978 475.200 9.094 475.200 9.210 475.142 C 10.000 474.349 10.790 473.556 11.581 472.764 C 11.812 472.531 11.639 472.067 11.292 472.067 C 10.270 472.067 9.248 472.067 8.227 472.067 C 7.995 472.067 7.822 471.893 7.822 471.661 C 7.822 463.500 7.821 455.339 7.822 447.179 C 7.822 446.947 7.995 446.773 8.227 446.773 C 22.703 446.773 37.180 446.773 51.658 446.773 C 51.889 446.773 52.063 446.947 52.063 447.179 C 52.062 455.359 52.062 463.539 52.063 471.719 C 52.063 471.951 51.889 472.125 51.658 472.125 C 42.578 472.125 35.465 472.126 25.692 472.125 C 25.634 472.125 25.460 472.183 25.402 472.241 C 24.612 473.034 23.821 473.827 23.031 474.620 C 22.800 474.852 22.973 475.316 23.320 475.316 C 32.920 475.316 42.520 475.316 52.120 475.316 C 53.855 475.316 55.301 473.924 55.301 472.125 C 55.301 459.439 55.301 446.753 55.301 434.068 Z"/>
<path fill="#2dffb3" fill-rule="evenodd" stroke="none" d="M 29.103 468.529 C 29.739 469.167 30.723 469.167 31.359 468.529 C 33.691 466.188 36.023 463.848 38.356 461.509 C 39.898 463.055 41.440 464.603 42.983 466.150 C 43.503 466.672 44.313 466.324 44.313 465.570 C 44.312 461.702 44.312 457.834 44.313 453.967 C 44.313 453.503 43.966 453.155 43.503 453.155 C 39.667 453.154 35.831 453.154 31.995 453.155 C 31.301 453.155 30.954 454.025 31.417 454.489 C 32.978 456.055 34.539 457.621 36.101 459.188 C 34.134 461.180 32.168 463.171 30.202 465.164 C 29.469 464.428 28.737 463.694 28.004 462.959 C 27.368 462.321 26.385 462.321 25.749 462.959 C 20.968 467.755 16.188 472.550 11.407 477.347 C 10.771 477.985 10.771 478.971 11.407 479.609 C 12.043 480.247 13.026 480.247 13.662 479.609 C 18.077 475.180 22.491 470.752 26.906 466.324 C 27.638 467.058 28.371 467.793 29.103 468.529 Z"/>
<path fill="#5600e3" fill-rule="evenodd" stroke="none" d="M 19.966 370.811 C 18.082 370.811 16.198 370.811 14.313 370.811 C 14.313 371.786 14.313 372.761 14.313 373.736 C 16.198 373.736 18.082 373.736 19.966 373.736 C 19.966 372.761 19.966 371.786 19.966 370.811 Z"/>
<path fill="#5600e3" fill-rule="evenodd" stroke="none" d="M 12.904 376.676 C 12.131 376.676 11.495 376.009 11.495 375.206 C 11.495 373.251 11.495 371.296 11.495 369.341 C 11.495 368.538 12.131 367.871 12.904 367.871 C 15.728 367.871 18.552 367.871 21.376 367.871 C 22.164 367.871 22.785 368.523 22.785 369.341 C 22.785 371.296 22.785 373.251 22.785 375.206 C 22.785 376.009 22.149 376.676 21.376 376.676 C 18.552 376.676 15.728 376.676 12.904 376.676 M 25.619 375.206 C 25.619 374.403 26.256 373.736 27.029 373.736 C 29.853 373.736 32.676 373.736 35.501 373.736 C 36.289 373.736 36.910 374.388 36.910 375.206 C 36.910 376.009 36.274 376.676 35.501 376.676 C 32.676 376.676 29.853 376.676 27.029 376.676 C 26.256 376.676 25.619 376.024 25.619 375.206 M 25.619 369.356 C 25.619 368.538 26.256 367.886 27.029 367.886 C 29.853 367.886 32.676 367.886 35.501 367.886 C 36.289 367.886 36.910 368.538 36.910 369.356 C 36.910 370.159 36.274 370.826 35.501 370.826 C 32.676 370.826 29.853 370.826 27.029 370.826 C 26.256 370.826 25.619 370.174 25.619 369.356 M 23.892 395.362 C 23.897 395.362 23.902 395.362 23.907 395.362 C 23.892 397.519 23.892 399.676 23.892 401.834 C 23.892 402.258 23.952 402.652 24.028 403.046 C 22.674 403.046 21.320 403.046 19.967 403.046 C 16.339 403.046 12.712 403.046 9.085 403.046 C 7.494 403.046 6.160 401.879 5.857 400.318 C 5.827 400.106 5.796 399.879 5.796 399.636 C 5.796 393.938 5.796 388.239 5.796 382.541 C 5.796 376.843 5.796 371.144 5.796 365.446 C 5.796 363.552 7.282 362.021 9.100 362.021 C 19.153 362.021 29.206 362.021 39.259 362.021 C 41.078 362.021 42.563 363.567 42.563 365.446 C 42.563 369.922 42.563 374.398 42.563 378.874 C 40.209 378.873 37.854 378.873 35.501 378.874 C 33.510 378.873 31.520 378.873 29.529 378.874 C 24.149 378.873 18.769 378.873 13.389 378.874 C 12.616 378.874 11.980 379.540 11.980 380.344 C 11.980 381.162 12.616 381.814 13.389 381.814 C 17.143 381.814 20.896 381.814 24.650 381.814 C 24.195 382.632 23.907 383.587 23.907 384.602 C 23.907 384.900 23.907 385.198 23.907 385.496 C 20.401 385.496 16.895 385.496 13.389 385.496 C 12.616 385.496 11.980 386.163 11.980 386.966 C 11.980 387.785 12.616 388.437 13.389 388.437 C 16.895 388.436 20.401 388.436 23.907 388.437 C 23.907 389.765 23.907 391.093 23.907 392.422 C 20.401 392.422 16.895 392.422 13.389 392.422 C 12.616 392.422 11.980 393.089 11.980 393.892 C 11.980 394.711 12.616 395.362 13.389 395.362 C 16.895 395.362 20.401 395.362 23.907 395.362 Z"/>
<path fill="#2dffb3" fill-rule="evenodd" stroke="none" d="M 48.762 389.982 C 48.762 390.876 48.064 391.604 47.201 391.604 C 43.043 391.604 38.885 391.604 34.728 391.604 C 33.864 391.604 33.167 390.876 33.167 389.982 C 33.167 389.088 33.864 388.361 34.728 388.361 C 38.885 388.360 43.043 388.360 47.201 388.361 C 48.064 388.361 48.762 389.088 48.762 389.982 M 45.336 396.454 C 45.321 397.348 44.624 398.075 43.776 398.075 C 40.764 398.075 37.753 398.075 34.743 398.075 C 33.879 398.075 33.182 397.348 33.182 396.454 C 33.182 395.559 33.879 394.832 34.743 394.832 C 37.753 394.832 40.764 394.832 43.776 394.832 C 44.639 394.832 45.336 395.559 45.336 396.454 M 54.990 384.602 C 54.990 383.117 53.823 381.905 52.399 381.905 C 44.775 381.904 37.152 381.904 29.530 381.905 C 28.090 381.905 26.938 383.117 26.938 384.602 C 26.938 390.346 26.938 396.090 26.938 401.834 C 26.938 403.319 28.105 404.531 29.530 404.531 C 30.742 404.531 31.954 404.531 33.167 404.531 C 33.166 406.218 33.166 407.905 33.167 409.593 C 33.167 411.078 34.925 411.760 35.880 410.684 C 37.698 408.633 39.517 406.582 41.336 404.531 C 45.023 404.531 48.711 404.531 52.399 404.531 C 53.839 404.531 54.990 403.319 54.990 401.834 C 54.990 396.090 54.990 390.346 54.990 384.602 Z"/>
<path fill="#5600e3" fill-rule="evenodd" stroke="none" d="M 34.643 319.942 C 34.643 321.704 34.643 323.412 34.643 325.187 C 34.877 325.200 35.088 325.223 35.299 325.224 C 36.217 325.227 37.137 325.196 38.053 325.235 C 38.970 325.272 39.661 326.071 39.641 326.992 C 39.621 327.893 38.929 328.676 38.046 328.681 C 34.633 328.701 31.219 328.701 27.805 328.681 C 26.924 328.676 26.233 327.888 26.218 326.986 C 26.201 326.061 26.895 325.266 27.813 325.239 C 28.925 325.205 30.039 325.231 31.198 325.231 C 31.198 323.429 31.198 321.707 31.198 320.052 C 29.897 319.662 28.587 319.372 27.352 318.883 C 21.684 316.633 17.748 310.639 17.835 304.488 C 17.849 303.445 18.545 302.678 19.487 302.665 C 20.434 302.651 21.127 303.380 21.187 304.438 C 21.214 304.911 21.246 305.386 21.294 305.857 C 21.979 312.659 28.447 317.636 34.932 316.356 C 40.622 315.232 44.498 310.533 44.672 304.550 C 44.706 303.394 45.382 302.645 46.378 302.665 C 47.363 302.683 48.027 303.474 48.024 304.618 C 47.996 311.997 42.547 318.605 35.520 319.779 C 35.245 319.824 34.972 319.880 34.643 319.942 Z"/>
<path fill="#5600e3" fill-rule="evenodd" stroke="none" d="M 41.321 291.601 C 41.320 291.168 41.320 290.735 41.321 290.302 C 41.321 287.757 39.309 285.675 36.850 285.675 C 34.602 285.675 32.355 285.675 30.108 285.675 C 30.108 287.650 30.108 289.626 30.108 291.601 C 33.846 291.601 37.583 291.601 41.321 291.601 Z"/>
<path fill="#5600e3" fill-rule="evenodd" stroke="none" d="M 30.989 298.867 C 31.497 300.618 30.917 302.465 29.513 303.574 C 28.770 304.161 27.889 304.470 26.965 304.470 C 26.303 304.470 25.651 304.306 25.061 303.993 C 24.887 303.993 24.714 303.993 24.541 303.993 C 24.542 304.169 24.542 304.345 24.545 304.522 C 24.606 309.261 28.339 313.071 32.913 313.074 C 37.490 313.078 41.239 309.282 41.294 304.541 C 41.296 304.359 41.298 304.177 41.299 303.995 C 40.357 303.994 39.415 303.994 38.474 303.995 C 37.847 303.995 37.333 303.463 37.333 302.814 C 37.333 302.164 37.847 301.632 38.474 301.632 C 39.421 301.632 40.368 301.632 41.316 301.632 C 41.318 300.975 41.319 300.315 41.318 299.657 C 40.370 299.657 39.422 299.657 38.474 299.657 C 37.847 299.657 37.333 299.126 37.333 298.476 C 37.333 297.827 37.847 297.295 38.474 297.295 C 39.423 297.295 40.371 297.295 41.320 297.295 C 41.320 296.476 41.320 295.658 41.320 294.839 C 37.583 294.839 33.845 294.839 30.108 294.839 C 30.108 295.169 30.108 295.499 30.108 295.829 C 30.401 296.842 30.695 297.854 30.989 298.867 Z"/>
<path fill="#2dffb3" fill-rule="evenodd" stroke="none" d="M 23.177 288.312 C 23.177 289.000 22.640 289.558 21.975 289.558 C 19.836 289.557 17.696 289.557 15.557 289.558 C 14.893 289.558 14.354 289.000 14.354 288.312 C 14.354 287.624 14.893 287.067 15.557 287.067 C 17.696 287.067 19.835 287.067 21.974 287.067 C 22.639 287.067 23.177 287.624 23.177 288.312 M 21.253 294.290 C 21.253 294.978 20.714 295.535 20.050 295.535 C 19.194 295.535 18.338 295.535 17.483 295.535 C 16.818 295.535 16.279 294.978 16.279 294.290 C 16.279 293.602 16.818 293.045 17.483 293.045 C 18.338 293.045 19.194 293.045 20.050 293.045 C 20.714 293.045 21.253 293.602 21.253 294.290 M 28.426 302.098 C 29.228 301.462 29.560 300.403 29.269 299.401 C 28.949 298.300 28.630 297.200 28.312 296.099 C 28.312 292.535 28.312 288.971 28.312 285.407 C 28.312 283.346 26.693 281.671 24.703 281.671 C 20.692 281.671 16.681 281.671 12.670 281.671 C 10.679 281.671 9.060 283.346 9.060 285.407 C 9.060 289.309 9.060 293.211 9.060 297.113 C 9.060 299.173 10.679 300.849 12.670 300.849 C 16.299 300.849 19.927 300.849 23.556 300.849 C 24.267 301.309 24.978 301.769 25.690 302.230 C 26.086 302.486 26.526 302.613 26.967 302.613 C 27.481 302.613 27.992 302.441 28.426 302.098 Z"/>
<path fill="#5600e3" fill-rule="evenodd" stroke="none" d="M 2.323 262.253 C 2.323 263.266 3.095 264.113 4.063 264.113 C 21.047 264.113 38.030 264.113 55.015 264.113 C 55.983 264.113 56.785 263.266 56.785 262.253 C 56.784 261.647 56.784 261.042 56.785 260.437 C 38.630 260.437 20.477 260.437 2.323 260.437 C 2.323 261.042 2.323 261.647 2.323 262.253 Z"/>
<path fill="#5600e3" fill-rule="evenodd" stroke="none" d="M 21.581 241.875 C 24.365 241.875 26.619 239.515 26.619 236.595 C 26.619 233.675 24.365 231.315 21.581 231.315 C 18.798 231.315 16.544 233.675 16.544 236.595 C 16.543 239.515 18.798 241.875 21.581 241.875 Z"/>
<path fill="#5600e3" fill-rule="evenodd" stroke="none" d="M 24.092 243.645 C 22.413 243.644 20.734 243.644 19.055 243.645 C 14.607 243.645 12.323 246.685 12.323 250.256 C 12.323 250.548 12.323 250.840 12.323 251.133 C 12.323 251.375 12.504 251.572 12.746 251.572 C 18.626 251.572 24.506 251.572 30.386 251.572 C 30.613 251.572 30.809 251.375 30.809 251.133 C 30.809 250.840 30.809 250.548 30.809 250.256 C 30.824 246.685 28.540 243.645 24.092 243.645 Z"/>
<path fill="#5600e3" fill-rule="evenodd" stroke="none" d="M 47.617 243.297 C 42.987 243.296 38.358 243.296 33.729 243.297 C 33.729 244.224 33.729 245.152 33.729 246.080 C 38.358 246.080 42.987 246.080 47.617 246.080 C 47.616 245.152 47.616 244.224 47.617 243.297 Z"/>
<path fill="#5600e3" fill-rule="evenodd" stroke="none" d="M 47.617 238.032 C 42.987 238.032 38.358 238.032 33.729 238.032 C 33.729 238.960 33.729 239.888 33.729 240.816 C 38.358 240.816 42.987 240.816 47.617 240.816 C 47.616 239.888 47.616 238.960 47.617 238.032 Z"/>
<path fill="#5600e3" fill-rule="evenodd" stroke="none" d="M 47.617 248.546 C 42.987 248.546 38.358 248.546 33.729 248.546 C 33.729 249.474 33.729 250.402 33.729 251.330 C 38.358 251.330 42.987 251.330 47.617 251.330 C 47.616 250.402 47.616 249.474 47.617 248.546 Z"/>
<path fill="#5600e3" fill-rule="evenodd" stroke="none" d="M 50.612 254.340 C 50.612 254.824 50.219 255.278 49.765 255.278 C 36.291 255.278 22.817 255.278 9.343 255.278 C 8.843 255.278 8.450 254.840 8.450 254.340 C 8.450 244.517 8.450 234.694 8.450 224.871 C 8.450 224.341 8.843 223.933 9.343 223.933 C 18.122 223.933 26.901 223.933 35.681 223.933 C 35.998 222.601 36.543 221.361 37.284 220.241 C 28.177 220.241 19.070 220.241 9.963 220.241 C 7.225 220.241 4.940 222.586 4.940 225.506 C 4.940 236.343 4.940 247.179 4.940 258.016 C 4.940 258.501 5.334 258.954 5.833 258.954 C 21.642 258.954 37.450 258.954 53.260 258.954 C 53.714 258.954 54.107 258.516 54.107 258.016 C 54.106 250.392 54.106 242.767 54.107 235.143 C 53.078 236.005 51.883 236.701 50.597 237.155 C 50.597 242.883 50.597 248.611 50.597 254.340 C 50.602 254.340 50.607 254.340 50.612 254.340 Z"/>
<path fill="#2dffb3" fill-rule="evenodd" stroke="none" d="M 45.680 229.031 C 46.976 228.194 48.272 227.357 49.568 226.520 C 48.272 225.682 46.976 224.845 45.680 224.008 C 45.680 225.682 45.680 227.357 45.680 229.031 Z"/>
<path fill="#2dffb3" fill-rule="evenodd" stroke="none" d="M 51.717 225.748 C 52.306 226.126 52.306 226.928 51.732 227.291 C 49.558 228.693 47.384 230.095 45.211 231.497 C 44.606 231.860 43.774 231.421 43.774 230.725 C 43.774 227.921 43.774 225.118 43.774 222.314 C 43.774 221.542 44.682 221.134 45.287 221.588 C 47.430 222.975 49.573 224.361 51.717 225.748 M 55.136 226.520 C 55.136 221.951 51.353 218.229 46.739 218.229 C 42.110 218.229 38.389 221.951 38.389 226.520 C 38.389 231.088 42.110 234.810 46.739 234.810 C 51.369 234.810 55.135 231.088 55.136 226.520 Z"/>
<path fill="#2dffb3" fill-rule="evenodd" stroke="none" d="M 16.192 184.428 C 14.054 183.990 12.450 182.289 12.450 180.268 C 13.162 180.268 13.875 180.268 14.588 180.268 C 14.588 181.429 15.829 182.407 17.294 182.407 C 18.609 182.407 19.935 181.749 19.935 180.488 C 19.935 179.220 17.829 178.375 16.920 178.071 C 13.225 176.835 12.450 174.975 12.450 173.633 C 12.450 171.622 14.000 170.050 16.192 169.665 C 16.192 169.100 16.192 168.535 16.192 167.970 C 16.905 167.970 17.618 167.970 18.331 167.970 C 18.331 168.544 18.331 169.118 18.331 169.692 C 20.470 170.136 22.074 171.831 22.074 173.852 C 21.361 173.852 20.648 173.852 19.935 173.852 C 19.935 172.692 18.695 171.713 17.230 171.713 C 15.920 171.713 14.588 172.371 14.588 173.633 C 14.588 174.900 16.695 175.745 17.604 176.050 C 21.299 177.290 22.074 179.151 22.074 180.493 C 22.074 182.503 20.524 184.075 18.331 184.460 C 18.331 185.023 18.331 185.587 18.331 186.150 C 17.618 186.150 16.905 186.150 16.192 186.150 C 16.192 185.576 16.192 185.002 16.192 184.428 M 17.262 189.358 C 24.053 189.358 29.560 183.851 29.560 177.060 C 29.560 170.269 24.053 164.762 17.262 164.762 C 10.471 164.762 4.964 170.269 4.964 177.060 C 4.969 183.851 10.471 189.353 17.262 189.358 Z"/>
<path fill="#5600e3" fill-rule="evenodd" stroke="none" d="M 46.537 162.228 C 48.178 163.174 48.740 165.275 47.793 166.922 C 46.847 168.564 44.745 169.131 43.098 168.179 C 41.457 167.232 40.890 165.131 41.842 163.484 C 42.788 161.843 44.890 161.276 46.537 162.228 M 51.333 180.220 C 53.295 176.825 53.269 175.012 52.873 172.264 C 52.345 168.581 51.817 164.899 51.290 161.217 C 51.194 160.527 50.937 159.870 50.547 159.297 C 49.761 158.132 48.478 157.389 47.071 157.292 C 46.376 157.239 45.681 157.351 45.039 157.608 C 41.585 158.991 38.131 160.374 34.677 161.757 C 32.100 162.789 30.517 163.671 28.555 167.067 C 28.533 167.102 28.512 167.138 28.491 167.174 C 33.961 173.371 33.367 182.824 27.175 188.289 C 23.710 191.342 19.032 192.631 14.492 191.770 C 14.289 192.898 14.813 194.032 15.802 194.609 C 21.821 198.084 27.840 201.560 33.859 205.036 C 35.164 205.790 36.832 205.341 37.586 204.031 C 42.168 196.093 46.750 188.157 51.333 180.220 Z"/>
<path fill="#2dffb3" fill-rule="evenodd" stroke="none" d="M 29.086 105.704 C 29.085 108.612 29.085 111.519 29.086 114.426 C 29.086 115.229 29.737 115.880 30.539 115.880 C 36.354 115.880 42.168 115.880 47.983 115.880 C 48.786 115.880 49.437 115.229 49.437 114.426 C 49.437 111.519 49.436 108.612 49.437 105.704 C 49.437 104.902 48.786 104.251 47.983 104.251 C 42.168 104.251 36.354 104.251 30.539 104.251 C 29.737 104.251 29.086 104.902 29.086 105.704 Z"/>
<path fill="#5600e3" fill-rule="evenodd" stroke="none" d="M 42.169 127.510 C 40.230 127.509 38.292 127.509 36.354 127.510 C 35.551 127.510 34.900 128.160 34.900 128.963 C 34.900 130.901 34.900 132.839 34.900 134.778 C 34.900 135.581 35.551 136.232 36.354 136.232 C 38.292 136.231 40.230 136.231 42.169 136.232 C 42.971 136.232 43.622 135.581 43.622 134.778 C 43.622 132.839 43.622 130.901 43.622 128.963 C 43.622 128.160 42.971 127.510 42.169 127.510 Z"/>
<path fill="#5600e3" fill-rule="evenodd" stroke="none" d="M 35.449 88.067 C 35.449 87.264 34.798 86.613 33.995 86.613 C 32.542 86.613 31.088 86.613 29.635 86.613 C 29.634 88.551 29.634 90.489 29.635 92.428 C 31.573 92.428 33.511 92.428 35.449 92.428 C 35.449 90.974 35.449 89.520 35.449 88.067 Z"/>
<path fill="#5600e3" fill-rule="evenodd" stroke="none" d="M 26.728 86.613 C 20.180 86.613 13.634 86.613 7.087 86.613 C 6.284 86.613 5.633 87.264 5.633 88.067 C 5.633 89.520 5.633 90.974 5.633 92.428 C 12.664 92.428 19.696 92.428 26.728 92.428 C 26.727 90.489 26.727 88.551 26.728 86.613 Z"/>
<path fill="#5600e3" fill-rule="evenodd" stroke="none" d="M 21.814 102.700 C 21.814 103.503 21.163 104.154 20.361 104.154 C 17.390 104.154 14.419 104.154 11.448 104.154 C 10.645 104.154 9.994 103.503 9.994 102.700 C 9.994 101.897 10.645 101.247 11.448 101.247 C 14.419 101.246 17.390 101.246 20.361 101.247 C 21.163 101.247 21.814 101.897 21.814 102.700 M 21.814 108.515 C 21.814 109.318 21.163 109.969 20.361 109.969 C 17.390 109.968 14.419 109.968 11.448 109.969 C 10.645 109.969 9.994 109.318 9.994 108.515 C 9.994 107.712 10.645 107.061 11.448 107.061 C 14.419 107.061 17.390 107.061 20.361 107.061 C 21.163 107.061 21.814 107.712 21.814 108.515 M 21.814 114.330 C 21.814 115.132 21.163 115.783 20.361 115.783 C 17.390 115.783 14.419 115.783 11.448 115.783 C 10.645 115.783 9.994 115.132 9.994 114.330 C 9.994 113.527 10.645 112.876 11.448 112.876 C 14.419 112.876 17.390 112.876 20.361 112.876 C 21.163 112.876 21.814 113.527 21.814 114.330 M 33.996 121.695 C 34.799 121.695 35.449 121.044 35.449 120.241 C 35.449 119.756 35.449 119.272 35.449 118.787 C 33.812 118.787 32.176 118.787 30.539 118.787 C 28.135 118.787 26.178 116.831 26.178 114.426 C 26.178 111.519 26.178 108.612 26.178 105.704 C 26.178 103.300 28.135 101.343 30.539 101.343 C 32.176 101.343 33.812 101.343 35.449 101.343 C 35.449 99.340 35.449 97.338 35.449 95.335 C 25.510 95.335 15.572 95.335 5.633 95.335 C 5.633 103.637 5.633 111.939 5.633 120.241 C 5.633 121.044 6.284 121.695 7.087 121.695 C 16.056 121.694 25.026 121.694 33.996 121.695 Z"/>
<path fill="#2dffb3" fill-rule="evenodd" stroke="none" d="M 52.344 108.862 C 52.344 111.686 52.344 114.509 52.344 117.334 C 52.344 118.135 51.692 118.787 50.891 118.787 C 47.983 118.787 45.076 118.787 42.169 118.787 C 39.764 118.787 37.808 120.744 37.808 123.148 C 37.807 123.633 37.807 124.117 37.808 124.602 C 38.776 124.602 39.746 124.602 40.715 124.602 C 40.715 124.117 40.715 123.633 40.715 123.148 C 40.715 122.347 41.367 121.695 42.169 121.695 C 45.076 121.694 47.983 121.694 50.891 121.695 C 53.295 121.695 55.252 119.739 55.252 117.334 C 55.251 115.880 55.251 114.426 55.252 112.973 C 55.252 111.078 54.036 109.462 52.344 108.862 Z"/>
</g>
<g id="Group_445.svg">
<path fill="#5600e3" fill-rule="evenodd" stroke="none" d="M 42.636 31.529 C 42.635 36.274 42.635 41.020 42.636 45.766 C 38.528 48.139 34.421 50.511 30.314 52.885 C 26.206 50.511 22.099 48.139 17.992 45.766 C 17.992 41.020 17.992 36.274 17.992 31.529 C 22.099 29.156 26.206 26.783 30.314 24.410 C 34.421 26.783 38.528 29.156 42.636 31.529 M 53.737 22.072 C 37.918 22.071 22.099 22.071 6.280 22.072 C 6.280 31.111 6.280 40.150 6.280 49.190 C 6.280 51.986 8.568 54.275 11.365 54.275 C 23.794 54.274 36.223 54.274 48.652 54.275 C 51.449 54.275 53.737 51.986 53.737 49.190 C 53.737 40.150 53.737 31.111 53.737 22.072 Z"/>
<path fill="#2dffb3" fill-rule="evenodd" stroke="none" d="M 30.313 37.621 C 33.128 35.999 35.943 34.378 38.759 32.757 C 35.943 31.161 33.128 29.566 30.313 27.970 C 27.492 29.566 24.672 31.161 21.851 32.757 C 24.672 34.378 27.492 35.999 30.313 37.621 Z"/>
<path fill="#2dffb3" fill-rule="evenodd" stroke="none" d="M 20.909 43.951 C 23.750 45.567 26.591 47.183 29.432 48.800 C 29.432 45.577 29.432 42.355 29.432 39.134 C 26.591 37.497 23.750 35.860 20.909 34.224 C 20.909 37.466 20.909 40.708 20.909 43.951 Z"/>
<path fill="#2dffb3" fill-rule="evenodd" stroke="none" d="M 31.178 48.800 C 34.019 47.183 36.860 45.567 39.701 43.951 C 39.701 40.708 39.701 37.466 39.701 34.224 C 36.860 35.860 34.019 37.497 31.178 39.134 C 31.178 42.355 31.178 45.577 31.178 48.800 Z"/>
<path fill="#5600e3" fill-rule="evenodd" stroke="none" d="M 19.754 12.157 C 19.754 13.224 18.890 14.072 17.839 14.072 C 16.788 14.072 15.924 13.224 15.924 12.157 C 15.924 11.089 16.771 10.241 17.839 10.241 C 18.890 10.241 19.754 11.089 19.754 12.157 M 14.263 12.157 C 14.263 13.224 13.399 14.072 12.348 14.072 C 11.297 14.072 10.433 13.224 10.433 12.157 C 10.433 11.089 11.280 10.241 12.348 10.241 C 13.416 10.241 14.263 11.089 14.263 12.157 M 53.737 11.902 C 53.737 9.106 51.449 6.818 48.652 6.818 C 36.223 6.818 23.794 6.818 11.365 6.818 C 8.568 6.818 6.280 9.106 6.280 11.902 C 6.280 13.597 6.280 15.292 6.280 16.987 C 22.099 16.987 37.918 16.987 53.737 16.987 C 53.737 15.292 53.737 13.597 53.737 11.902 Z"/>
<path fill="#ffffff" fill-rule="evenodd" stroke="none" d="M 12.348 14.072 C 13.405 14.072 14.263 13.214 14.263 12.157 C 14.263 11.099 13.405 10.241 12.348 10.241 C 11.290 10.241 10.432 11.099 10.432 12.157 C 10.432 13.214 11.290 14.072 12.348 14.072 Z"/>
<path fill="#ffffff" fill-rule="evenodd" stroke="none" d="M 17.839 14.072 C 18.897 14.072 19.755 13.214 19.755 12.157 C 19.755 11.099 18.897 10.241 17.839 10.241 C 16.782 10.241 15.924 11.099 15.924 12.157 C 15.924 13.214 16.782 14.072 17.839 14.072 Z"/>
</g>
</svg>
