<svg width="59" height="64" viewBox="0 0 59 64" fill="none" xmlns="http://www.w3.org/2000/svg">
<g clip-path="url(#clip0)">
<path d="M41.7437 17.2148H17.1741C17.1741 17.2148 0 31.9587 0 49.256C0 59.1402 7.39554 63.9999 12.3259 63.9999H46.7563C51.6866 63.9999 59.0822 59.0578 59.0822 49.256C59 32.0411 41.7437 17.2148 41.7437 17.2148ZM31.9652 51.48V55.4336H27.0348V51.48C23.4192 50.821 21.1184 48.5971 20.954 45.3024H25.227C25.4735 47.0321 27.117 48.1029 29.6643 48.1029C31.9652 48.1029 33.6086 46.9497 33.6086 45.3847C33.6086 44.0668 32.5404 43.2432 29.993 42.6666L27.2813 42.09C23.4192 41.2663 21.5292 39.2895 21.5292 36.0771C21.5292 32.8648 23.6657 30.5585 27.0348 29.8172V25.8635H31.9652V29.8172C35.2521 30.5585 37.4707 32.8648 37.6351 35.9124H33.5265C33.2799 34.265 31.8008 33.1119 29.6643 33.1119C27.5279 33.1119 25.9666 34.1003 25.9666 35.7477C25.9666 37.0656 26.9526 37.8069 29.4178 38.3011L31.9652 38.8777C36.156 39.7837 38.046 41.5958 38.046 44.8905C37.9638 48.4323 35.7451 50.7387 31.9652 51.48Z" fill="#5600E3"/>
<path d="M17.1743 12.273H41.7439L44.0448 5.76596C44.5378 4.53044 43.8804 3.04782 42.6478 2.55361C42.4013 2.47124 42.0726 2.47124 41.7439 2.47124H34.9236C32.2119 -0.576379 27.5281 -0.823483 24.4877 1.89466C24.3233 2.0594 24.0768 2.22414 23.9125 2.47124H17.0921C15.6952 2.47124 14.627 3.62439 14.627 4.94228C14.627 5.27175 14.7091 5.51886 14.7913 5.84833L17.1743 12.273Z" fill="#5600E3"/>
<path d="M41.7435 12.2734H17.1738V17.2155H41.7435V12.2734Z" fill="#2DFFB3"/>
</g>
<defs>
<clipPath id="clip0">
<rect width="59" height="64" fill="white"/>
</clipPath>
</defs>
</svg>
