<?xml version="1.0" encoding="utf-8"?>
<!-- Generator: Moho 13.0.2 build 610 -->
<!DOCTYPE svg PUBLIC "-//W3C//DTD SVG 1.1//EN" "http://www.w3.org/Graphics/SVG/1.1/DTD/svg11.dtd">
<svg version="1.1" id="Frame_0" xmlns="http://www.w3.org/2000/svg" xmlns:xlink="http://www.w3.org/1999/xlink" width="60px" height="60px">
<g id="Layer_19">
<path fill="#5600e3" fill-rule="evenodd" stroke="none" d="M 39.347 40.308 C 38.166 39.670 36.733 39.755 35.636 40.563 C 34.737 41.270 33.836 41.978 32.937 42.686 C 32.558 42.984 32.094 43.027 31.672 42.857 C 31.082 42.601 30.491 42.304 29.901 42.007 C 27.286 40.605 25.304 39.245 23.237 37.163 C 21.130 35.039 18.937 32.235 17.587 29.602 C 17.293 29.007 16.997 28.412 16.744 27.817 C 16.575 27.393 16.617 26.882 16.913 26.542 C 17.616 25.636 18.319 24.729 19.021 23.824 C 19.823 22.719 19.907 21.233 19.275 20.086 C 19.148 19.873 14.383 13.458 14.256 13.330 C 12.779 11.759 10.208 11.886 8.900 13.670 C 7.805 15.030 6.708 16.389 5.611 17.749 C -0.419 25.013 6.835 33.935 11.810 39.373 C 12.485 40.095 14.214 41.879 15.985 43.663 C 17.714 45.406 19.485 47.190 20.244 47.869 C 25.600 52.841 34.455 60.189 41.666 54.114 C 43.015 53.009 44.365 51.906 45.715 50.802 C 47.487 49.484 47.612 46.893 46.052 45.406 C 45.883 45.193 39.558 40.392 39.347 40.308 Z"/>
<path fill="#2dffb3" fill-rule="evenodd" stroke="none" d="M 53.601 3.855 C 44.885 3.855 36.170 3.855 27.455 3.855 C 26.232 3.855 25.220 4.876 25.220 6.108 C 25.219 12.367 25.219 18.627 25.220 24.886 C 25.220 26.118 26.233 27.138 27.455 27.137 C 28.763 27.136 30.069 27.136 31.377 27.137 C 31.672 28.964 31.377 30.833 30.576 32.491 C 33.443 31.684 35.849 29.858 37.492 27.350 C 37.534 27.294 37.576 27.236 37.618 27.180 C 42.960 27.176 48.301 27.180 53.643 27.180 C 54.866 27.180 55.878 26.161 55.878 24.928 C 55.877 22.082 55.877 19.235 55.878 16.389 C 55.877 15.086 55.877 13.783 55.878 12.481 C 55.877 10.356 55.877 8.232 55.878 6.108 C 55.793 4.876 54.824 3.856 53.601 3.855 Z"/>
</g>
</svg>
