<svg id="eVwC62xE8sn1" xmlns="http://www.w3.org/2000/svg" xmlns:xlink="http://www.w3.org/1999/xlink" viewBox="0 0 57 54" shape-rendering="geometricPrecision" text-rendering="geometricPrecision"><style><![CDATA[#eVwC62xE8sn2 {animation: eVwC62xE8sn2__m 4000ms linear infinite normal forwards}@keyframes eVwC62xE8sn2__m { 0% {d: path('M0,19.259800L0,50.148600C0,52.296800,1.704810,54.000500,3.854360,54.000500L53.145600,54.000500C55.295200,54.000500,57,52.296800,57,50.148600L57,19.259800L0,19.259800ZM25.127400,27.037500L41.582600,27.037500C44.176900,27.037500,44.176900,30.889400,41.582600,30.889400L25.127400,30.889400C22.533200,30.889400,22.533200,27.037500,25.127400,27.037500ZM15.417400,34.741200L41.582600,34.741200C44.176900,34.741200,44.176900,38.593100,41.582600,38.593100L15.417400,38.593100C12.897300,38.593100,12.897300,34.741200,15.417400,34.741200ZM41.582600,46.296800L15.417400,46.296800C12.823100,46.444900,12.674900,42.593100,15.195100,42.444900C15.269200,42.444900,15.343300,42.444900,15.417400,42.444900L41.582600,42.444900C41.582600,42.444900,41.656700,42.444900,41.730800,42.444900C44.399200,42.444900,44.251000,46.519000,41.582600,46.296800Z')} 50% {d: path('M0,19.325601L0,50.214401C0,52.362601,1.704810,54.066301,3.854360,54.066301L53.145600,54.066301C55.295200,54.066301,57,52.362601,57,50.214401L57,19.325601L0,19.325601ZM15.127400,27.103301L41.582600,27.103301C44.176900,27.103301,44.176900,30.955201,41.582600,30.955201L15.127400,30.955201C12.533200,30.955201,12.533200,27.103301,15.127400,27.103301ZM25.417400,34.807001L41.582600,34.807001C44.176900,34.807001,44.176900,38.658901,41.582600,38.658901L25.417400,38.658901C23.028902,38.724189,22.897300,34.807001,25.417400,34.807001ZM41.582600,46.362601L34.417400,46.362601C31.823100,46.510701,31.674900,42.658901,34.195100,42.510701C34.269200,42.510701,34.343300,42.510701,34.417400,42.510701L41.582600,42.510701C41.582600,42.510701,41.656700,42.510701,41.730800,42.510701C44.399200,42.510701,44.251000,46.584801,41.582600,46.362601Z')} 100% {d: path('M0,19.259800L0,50.148600C0,52.296800,1.704810,54.000500,3.854360,54.000500L53.145600,54.000500C55.295200,54.000500,57,52.296800,57,50.148600L57,19.259800L0,19.259800ZM25.127400,27.037500L41.582600,27.037500C44.176900,27.037500,44.176900,30.889400,41.582600,30.889400L25.127400,30.889400C22.533200,30.889400,22.533200,27.037500,25.127400,27.037500ZM15.417400,34.741200L41.582600,34.741200C44.176900,34.741200,44.176900,38.593100,41.582600,38.593100L15.417400,38.593100C12.897300,38.593100,12.897300,34.741200,15.417400,34.741200ZM41.582600,46.296800L15.417400,46.296800C12.823100,46.444900,12.674900,42.593100,15.195100,42.444900C15.269200,42.444900,15.343300,42.444900,15.417400,42.444900L41.582600,42.444900C41.582600,42.444900,41.656700,42.444900,41.730800,42.444900C44.399200,42.444900,44.251000,46.519000,41.582600,46.296800Z')}}]]></style><path id="eVwC62xE8sn2" d="M0,19.259800L0,50.148600C0,52.296800,1.704810,54.000500,3.854360,54.000500L53.145600,54.000500C55.295200,54.000500,57,52.296800,57,50.148600L57,19.259800L0,19.259800ZM25.127400,27.037500L41.582600,27.037500C44.176900,27.037500,44.176900,30.889400,41.582600,30.889400L25.127400,30.889400C22.533200,30.889400,22.533200,27.037500,25.127400,27.037500ZM15.417400,34.741200L41.582600,34.741200C44.176900,34.741200,44.176900,38.593100,41.582600,38.593100L15.417400,38.593100C12.897300,38.593100,12.897300,34.741200,15.417400,34.741200ZM41.582600,46.296800L15.417400,46.296800C12.823100,46.444900,12.674900,42.593100,15.195100,42.444900C15.269200,42.444900,15.343300,42.444900,15.417400,42.444900L41.582600,42.444900C41.582600,42.444900,41.656700,42.444900,41.730800,42.444900C44.399200,42.444900,44.251000,46.519000,41.582600,46.296800Z" fill="rgb(86,0,227)" stroke="none" stroke-width="1"/><path id="eVwC62xE8sn3" d="M53.145600,0L3.854360,0C1.704810,0,0,1.703700,0,3.851850L0,15.407400L57,15.407400L57,3.851850C57,1.703700,55.295200,0,53.145600,0ZM7.708710,9.629630C6.671000,9.629630,5.781530,8.740740,5.781530,7.703700C5.781530,6.666670,6.671000,5.777780,7.708710,5.777780C8.746420,5.777780,9.635890,6.666670,9.635890,7.703700C9.635890,8.814810,8.820550,9.629630,7.708710,9.629630ZM13.490200,9.629630C12.452500,9.629630,11.563100,8.740740,11.563100,7.703700C11.563100,6.666670,12.452500,5.777780,13.490200,5.777780C14.528000,5.777780,15.417400,6.666670,15.417400,7.703700C15.417400,8.814810,14.602100,9.629630,13.490200,9.629630ZM19.345900,9.629630C18.308200,9.629630,17.418700,8.740740,17.418700,7.703700C17.418700,6.666670,18.308200,5.777780,19.345900,5.777780C20.383600,5.777780,21.273100,6.666670,21.273100,7.703700C21.273100,8.814810,20.383600,9.629630,19.345900,9.629630Z" fill="rgb(45,255,179)" stroke="none" stroke-width="1"/></svg>