<svg id="e8ykDti7MbY1" xmlns="http://www.w3.org/2000/svg" xmlns:xlink="http://www.w3.org/1999/xlink" viewBox="0 0 85 93" shape-rendering="geometricPrecision" text-rendering="geometricPrecision"><style><![CDATA[#e8ykDti7MbY2_ts {animation: e8ykDti7MbY2_ts__ts 3000ms linear infinite normal forwards}@keyframes e8ykDti7MbY2_ts__ts { 0% {transform: translate(42.500000px,90.994751px) scale(1,1)} 10% {transform: translate(42.500000px,90.994751px) scale(1,1)} 16.666667% {transform: translate(42.500000px,90.994751px) scale(1.034631,0.944436)} 23.333333% {transform: translate(42.500000px,90.994751px) scale(0.904219,1.016026)} 30% {transform: translate(42.500000px,90.994751px) scale(1,1)} 100% {transform: translate(42.500000px,90.994751px) scale(1,1)}} #e8ykDti7MbY4_ts {animation: e8ykDti7MbY4_ts__ts 3000ms linear infinite normal forwards}@keyframes e8ykDti7MbY4_ts__ts { 0% {transform: translate(40.500200px,39.558298px) scale(1,1)} 43.333333% {transform: translate(40.500200px,39.558298px) scale(1,1)} 46.666667% {transform: translate(40.500200px,39.558298px) scale(0.552809,0.552809)} 53.333333% {transform: translate(40.500200px,39.558298px) scale(1.143909,1.143909)} 60% {transform: translate(40.500200px,39.558298px) scale(1,1)} 100% {transform: translate(40.500200px,39.558298px) scale(1,1)}}]]></style><g id="e8ykDti7MbY2_ts" transform="translate(42.500000,90.994751) scale(1,1)"><g id="e8ykDti7MbY2" transform="translate(-40.502201,-88.990417)"><path id="e8ykDti7MbY3" d="M40.164100,0.017613C40.095000,0.027502,40.016000,0.037359,39.946800,0.047248C28.290700,2.232690,12.456200,6.099250,1.699020,11.172200C0.671707,11.656800,0.009878,12.695100,0,13.832400C0,17.125400,0,33.165100,0,36.201000C0,53.051700,5.156340,65.096400,12.782200,73.403000C20.408000,81.709700,30.325600,86.248700,39.699900,88.879200C40.223400,89.027500,40.776600,89.027500,41.300100,88.879200C50.674400,86.248700,60.591900,81.709700,68.217800,73.403000C75.843700,65.096400,81,53.051700,81,36.201000C81,33.165100,81.009900,17.125400,81,13.832400C80.990100,12.695100,80.328300,11.656800,79.301000,11.172200C68.553700,6.099250,52.709300,2.232690,41.053200,0.047248C40.756800,-0.002196,40.460500,-0.012054,40.164100,0.017613ZM40.500000,6.010280C51.217700,8.047390,65.432200,11.617300,75.073200,15.839800C75.073200,20.675500,75.073200,33.422200,75.073200,36.201000C75.073200,51.865000,70.479900,62.179200,63.871500,69.388200C57.460600,76.369700,48.955600,80.414200,40.509900,82.896300C32.064100,80.424100,23.559100,76.379600,17.148300,69.388200C10.520100,62.179200,5.926830,51.865000,5.926830,36.201000C5.926830,33.422200,5.916950,20.675500,5.926830,15.839800C15.567800,11.617300,29.782300,8.047390,40.500000,6.010280Z" fill="rgb(255,255,255)" stroke="none" stroke-width="1"/><g id="e8ykDti7MbY4_ts" transform="translate(40.500200,39.558298) scale(1,1)"><path id="e8ykDti7MbY4" d="M40.500200,16.383700C33.210200,16.383700,27.352500,22.425800,27.352500,29.921600L27.352500,35.340700L27.352500,35.360500C24.942200,35.607700,23.668000,37.654700,23.668000,40.136900L23.668000,57.946800C23.668000,60.597000,25.801600,62.732900,28.448900,62.732900L52.551400,62.732900C55.198700,62.732900,57.332400,60.597000,57.332400,57.946800L57.332400,40.136900C57.332400,37.654700,56.068000,35.587900,53.647900,35.350600L53.647900,29.931500C53.647900,22.425900,47.790200,16.383700,40.500200,16.383700ZM40.500200,21.634700C45.162600,21.634700,48.916300,25.343100,48.916300,29.951300L48.916300,35.330900L32.084100,35.330900L32.084100,29.951300C32.084100,25.343100,35.837700,21.634700,40.500200,21.634700ZM40.500200,42.183900C42.535000,42.183900,44.184700,43.835300,44.184700,45.872400C44.184700,47.167800,43.513000,48.305100,42.505400,48.967600C42.564700,49.155500,42.604200,49.353300,42.604200,49.560900L42.604200,53.773600C42.604200,54.940500,41.665800,55.880000,40.500200,55.880000C39.334600,55.880000,38.396100,54.940500,38.396100,53.773600L38.396100,49.560900C38.396100,49.353300,38.435700,49.155500,38.494900,48.967600C37.487400,48.305100,36.815700,47.167800,36.815700,45.872400C36.815700,43.835300,38.465300,42.183900,40.500200,42.183900Z" transform="translate(-40.500200,-39.558298)" fill="rgb(45,255,179)" stroke="none" stroke-width="1"/></g></g></g></svg>