<?xml version="1.0" encoding="utf-8"?>
<!-- Generator: Moho 13.0.2 build 610 -->
<!DOCTYPE svg PUBLIC "-//W3C//DTD SVG 1.1//EN" "http://www.w3.org/Graphics/SVG/1.1/DTD/svg11.dtd">
<svg version="1.1" id="Frame_0" xmlns="http://www.w3.org/2000/svg" xmlns:xlink="http://www.w3.org/1999/xlink" width="60px" height="60px">
<g id="Frame31.svg">
<path fill="#5600e3" fill-rule="evenodd" stroke="none" d="M 35.955 47.151 C 35.955 49.198 35.955 51.182 35.955 53.243 C 36.227 53.259 36.472 53.285 36.717 53.286 C 37.784 53.290 38.852 53.255 39.916 53.299 C 40.981 53.342 41.784 54.271 41.760 55.340 C 41.738 56.387 40.934 57.296 39.907 57.302 C 35.943 57.325 31.978 57.325 28.013 57.302 C 26.989 57.296 26.187 56.381 26.169 55.333 C 26.149 54.259 26.956 53.335 28.021 53.303 C 29.313 53.265 30.607 53.295 31.953 53.295 C 31.953 51.202 31.953 49.201 31.953 47.279 C 30.443 46.826 28.921 46.489 27.486 45.921 C 20.903 43.308 16.331 36.346 16.431 29.200 C 16.448 27.990 17.256 27.099 18.351 27.083 C 19.451 27.067 20.256 27.914 20.326 29.143 C 20.356 29.693 20.394 30.244 20.450 30.791 C 21.245 38.692 28.758 44.473 36.291 42.986 C 42.901 41.680 47.403 36.222 47.604 29.272 C 47.643 27.929 48.429 27.060 49.586 27.083 C 50.730 27.105 51.501 28.023 51.497 29.351 C 51.465 37.923 45.135 45.598 36.974 46.961 C 36.654 47.015 36.337 47.079 35.955 47.151 Z"/>
<path fill="#5600e3" fill-rule="evenodd" stroke="none" d="M 43.712 14.233 C 43.711 13.730 43.711 13.227 43.712 12.724 C 43.712 9.767 41.375 7.349 38.518 7.349 C 35.908 7.349 33.298 7.349 30.688 7.349 C 30.688 9.644 30.688 11.938 30.688 14.233 C 35.029 14.232 39.370 14.232 43.712 14.233 Z"/>
<path fill="#5600e3" fill-rule="evenodd" stroke="none" d="M 31.711 22.671 C 32.301 24.705 31.628 26.851 29.996 28.140 C 29.134 28.820 28.110 29.180 27.037 29.180 C 26.267 29.180 25.511 28.989 24.825 28.626 C 24.624 28.626 24.422 28.626 24.222 28.626 C 24.223 28.831 24.223 29.035 24.226 29.241 C 24.297 34.745 28.633 39.170 33.946 39.174 C 39.262 39.179 43.617 34.770 43.681 29.262 C 43.683 29.051 43.685 28.839 43.686 28.628 C 42.592 28.627 41.499 28.627 40.405 28.628 C 39.676 28.628 39.080 28.010 39.080 27.256 C 39.080 26.501 39.676 25.884 40.405 25.884 C 41.505 25.884 42.605 25.884 43.706 25.884 C 43.708 25.120 43.710 24.354 43.708 23.590 C 42.607 23.589 41.506 23.589 40.405 23.590 C 39.676 23.590 39.080 22.972 39.080 22.218 C 39.080 21.464 39.676 20.846 40.405 20.846 C 41.507 20.846 42.609 20.846 43.711 20.846 C 43.711 19.895 43.711 18.944 43.711 17.993 C 39.370 17.993 35.028 17.993 30.687 17.993 C 30.687 18.376 30.687 18.760 30.687 19.143 C 31.028 20.319 31.370 21.495 31.711 22.671 Z"/>
<path fill="#2dffb3" fill-rule="evenodd" stroke="none" d="M 22.637 10.412 C 22.637 11.211 22.013 11.858 21.241 11.858 C 18.756 11.858 16.271 11.858 13.786 11.858 C 13.014 11.858 12.388 11.211 12.388 10.412 C 12.388 9.613 13.014 8.965 13.786 8.965 C 16.270 8.965 18.755 8.965 21.240 8.965 C 22.011 8.965 22.637 9.613 22.637 10.412 M 20.402 17.355 C 20.402 18.154 19.776 18.802 19.004 18.802 C 18.010 18.802 17.016 18.802 16.022 18.802 C 15.251 18.802 14.625 18.154 14.625 17.355 C 14.625 16.557 15.251 15.909 16.022 15.909 C 17.016 15.909 18.010 15.909 19.004 15.909 C 19.776 15.909 20.402 16.557 20.402 17.355 M 28.733 26.425 C 29.665 25.685 30.050 24.456 29.713 23.292 C 29.342 22.013 28.971 20.735 28.601 19.457 C 28.601 15.317 28.601 11.177 28.601 7.038 C 28.601 4.644 26.721 2.698 24.409 2.698 C 19.750 2.698 15.091 2.698 10.433 2.698 C 8.120 2.698 6.239 4.644 6.239 7.038 C 6.239 11.570 6.239 16.102 6.239 20.635 C 6.239 23.027 8.120 24.974 10.433 24.974 C 14.647 24.974 18.862 24.974 23.077 24.974 C 23.903 25.509 24.729 26.043 25.555 26.578 C 26.016 26.876 26.527 27.023 27.039 27.023 C 27.636 27.023 28.230 26.823 28.733 26.425 Z"/>
</g>
</svg>
