<?xml version="1.0" encoding="utf-8"?>
<!-- Generator: Moho 13.0.2 build 610 -->
<!DOCTYPE svg PUBLIC "-//W3C//DTD SVG 1.1//EN" "http://www.w3.org/Graphics/SVG/1.1/DTD/svg11.dtd">
<svg version="1.1" id="Frame_0" xmlns="http://www.w3.org/2000/svg" xmlns:xlink="http://www.w3.org/1999/xlink" width="60px" height="60px">
<g id="icon-email.svg">
<path fill="#5600e3" fill-rule="evenodd" stroke="none" d="M 39.967 50.005 C 39.967 50.188 40.205 50.277 40.389 50.277 C 43.222 50.276 46.057 50.276 48.891 50.277 C 49.075 50.277 49.200 50.188 49.200 50.005 C 49.200 49.691 49.200 49.377 49.200 49.064 C 49.200 46.533 47.115 44.481 44.584 44.481 C 42.053 44.481 39.967 46.533 39.967 49.064 C 39.967 49.377 39.967 49.691 39.967 50.005 M 46.985 41.174 C 46.985 39.866 45.925 38.806 44.617 38.806 C 43.310 38.806 42.250 39.866 42.250 41.174 C 42.250 42.482 43.310 43.542 44.617 43.542 C 45.925 43.542 46.985 42.482 46.985 41.174 M 33.101 57.142 C 33.101 49.250 33.101 41.359 33.101 33.468 C 41.055 33.467 49.008 33.468 56.962 33.468 C 56.994 33.558 57.013 33.655 57.013 33.759 C 57.012 41.149 57.012 48.539 57.013 55.930 C 57.013 56.540 56.415 57.142 55.805 57.142 C 48.236 57.142 40.669 57.142 33.101 57.142 Z"/>
<path fill="#5600e3" fill-rule="evenodd" stroke="none" d="M 10.800 49.155 C 10.800 49.468 10.800 49.781 10.800 50.096 C 10.800 50.279 10.883 50.513 11.066 50.513 C 13.900 50.513 16.734 50.513 19.569 50.513 C 19.752 50.513 19.796 50.279 19.796 50.096 C 19.796 49.781 19.796 49.468 19.796 49.155 C 19.796 46.624 17.830 44.571 15.298 44.571 C 12.767 44.571 10.800 46.624 10.800 49.155 M 17.663 41.265 C 17.663 39.957 16.603 38.897 15.295 38.897 C 13.987 38.897 12.927 39.957 12.927 41.265 C 12.927 42.573 13.987 43.633 15.295 43.633 C 16.603 43.633 17.663 42.573 17.663 41.265 M 2.987 33.468 C 10.958 33.467 18.928 33.467 26.899 33.468 C 26.898 41.359 26.898 49.250 26.899 57.142 C 19.316 57.142 11.735 57.142 4.153 57.142 C 3.542 57.142 2.987 56.540 2.987 55.930 C 2.987 48.442 2.987 40.955 2.987 33.468 Z"/>
<path fill="#5600e3" fill-rule="evenodd" stroke="none" d="M 19.796 20.380 C 19.796 20.066 19.796 19.753 19.796 19.439 C 19.796 16.908 17.830 14.856 15.298 14.856 C 12.767 14.856 10.800 16.908 10.800 19.439 C 10.800 19.753 10.800 20.066 10.800 20.380 C 10.800 20.564 10.883 20.614 11.066 20.614 C 13.900 20.613 16.734 20.613 19.569 20.614 C 19.752 20.614 19.796 20.564 19.796 20.380 M 17.663 11.549 C 17.663 10.242 16.603 9.182 15.295 9.182 C 13.987 9.182 12.927 10.242 12.927 11.549 C 12.927 12.857 13.987 13.917 15.295 13.917 C 16.603 13.917 17.663 12.857 17.663 11.549 M 26.899 2.924 C 26.898 10.794 26.898 18.663 26.899 26.532 C 18.928 26.532 10.958 26.532 2.987 26.532 C 2.987 18.975 2.987 11.418 2.987 3.862 C 2.987 3.251 3.542 2.858 4.153 2.858 C 11.596 2.858 19.039 2.858 26.482 2.858 C 26.629 2.858 26.769 2.882 26.899 2.924 Z"/>
<path fill="#2dffb3" fill-rule="evenodd" stroke="none" d="M 40.201 20.380 C 40.201 20.066 40.201 19.753 40.201 19.439 C 40.201 16.908 42.168 14.856 44.699 14.856 C 47.230 14.856 49.197 16.908 49.197 19.439 C 49.197 19.753 49.197 20.066 49.197 20.380 C 49.197 20.564 49.115 20.614 48.931 20.614 C 46.097 20.613 43.263 20.613 40.429 20.614 C 40.246 20.614 40.201 20.564 40.201 20.380 M 42.335 11.549 C 42.335 10.242 43.395 9.182 44.703 9.182 C 46.010 9.182 47.070 10.242 47.070 11.549 C 47.070 12.857 46.010 13.917 44.703 13.917 C 43.395 13.917 42.335 12.857 42.335 11.549 M 33.099 2.924 C 33.099 10.794 33.099 18.663 33.099 26.532 C 41.069 26.532 49.039 26.532 57.010 26.532 C 57.009 18.975 57.009 11.418 57.010 3.862 C 57.010 3.251 56.455 2.858 55.845 2.858 C 48.401 2.858 40.958 2.858 33.515 2.858 C 33.369 2.858 33.228 2.882 33.099 2.924 Z"/>
</g>
</svg>
