<svg id="e1jFk2DsWxR1" xmlns="http://www.w3.org/2000/svg" xmlns:xlink="http://www.w3.org/1999/xlink" viewBox="0 0 60 60" shape-rendering="geometricPrecision" text-rendering="geometricPrecision"><style><![CDATA[#e1jFk2DsWxR1{pointer-events: all}#e1jFk2DsWxR1.hover #e1jFk2DsWxR2_ts {animation: e1jFk2DsWxR2_ts__ts 4000ms linear infinite normal forwards}@keyframes e1jFk2DsWxR2_ts__ts { 0% {transform: translate(30px,30px) scale(1,1)} 5% {transform: translate(30px,30px) scale(1.041885,0.927946)} 10% {transform: translate(30px,30px) scale(0.946202,1.044469)} 15% {transform: translate(30px,30px) scale(1,1)} 100% {transform: translate(30px,30px) scale(1,1)}} #e1jFk2DsWxR1.hover #e1jFk2DsWxR3 {animation: e1jFk2DsWxR3__m 4000ms linear infinite normal forwards}@keyframes e1jFk2DsWxR3__m { 0% {d: path('M0,19.259800L0,50.148600C0,52.296800,1.704810,54.000500,3.854360,54.000500L53.145600,54.000500C55.295200,54.000500,57,52.296800,57,50.148600L57,19.259800L0,19.259800ZM25.127400,27.037500L41.582600,27.037500C44.176900,27.037500,44.176900,30.889400,41.582600,30.889400L25.127400,30.889400C22.533200,30.889400,22.533200,27.037500,25.127400,27.037500ZM15.417400,34.741200L41.582600,34.741200C44.176900,34.741200,44.176900,38.593100,41.582600,38.593100L15.417400,38.593100C12.897300,38.593100,12.897300,34.741200,15.417400,34.741200ZM41.582600,46.296800L15.417400,46.296800C12.823100,46.444900,12.674900,42.593100,15.195100,42.444900C15.269200,42.444900,15.343300,42.444900,15.417400,42.444900L41.582600,42.444900C41.582600,42.444900,41.656700,42.444900,41.730800,42.444900C44.399200,42.444900,44.251000,46.519000,41.582600,46.296800Z')} 17.500000% {d: path('M0,19.259800L0,50.148600C0,52.296800,1.704810,54.000500,3.854360,54.000500L53.145600,54.000500C55.295200,54.000500,57,52.296800,57,50.148600L57,19.259800L0,19.259800ZM25.127400,27.037500L41.582600,27.037500C44.176900,27.037500,44.176900,30.889400,41.582600,30.889400L25.127400,30.889400C22.533200,30.889400,22.533200,27.037500,25.127400,27.037500ZM15.417400,34.741200L41.582600,34.741200C44.176900,34.741200,44.176900,38.593100,41.582600,38.593100L15.417400,38.593100C12.897300,38.593100,12.897300,34.741200,15.417400,34.741200ZM41.582600,46.296800L15.417400,46.296800C12.823100,46.444900,12.674900,42.593100,15.195100,42.444900C15.269200,42.444900,15.343300,42.444900,15.417400,42.444900L41.582600,42.444900C41.582600,42.444900,41.656700,42.444900,41.730800,42.444900C44.399200,42.444900,44.251000,46.519000,41.582600,46.296800Z')} 42.500000% {d: path('M0,19.325601L0,50.214401C0,52.362601,1.704810,54.066301,3.854360,54.066301L53.145600,54.066301C55.295200,54.066301,57,52.362601,57,50.214401L57,19.325601L0,19.325601ZM15.127400,27.103301L41.582600,27.103301C44.176900,27.103301,44.176900,30.955201,41.582600,30.955201L15.127400,30.955201C12.533200,30.955201,12.533200,27.103301,15.127400,27.103301ZM25.417400,34.807001L41.582600,34.807001C44.176900,34.807001,44.176900,38.658901,41.582600,38.658901L25.417400,38.658901C23.028902,38.724189,22.897300,34.807001,25.417400,34.807001ZM41.582600,46.362601L34.417400,46.362601C31.823100,46.510701,31.674900,42.658901,34.195100,42.510701C34.269200,42.510701,34.343300,42.510701,34.417400,42.510701L41.582600,42.510701C41.582600,42.510701,41.656700,42.510701,41.730800,42.510701C44.399200,42.510701,44.251000,46.584801,41.582600,46.362601Z')} 67.500000% {d: path('M0,19.259800L0,50.148600C0,52.296800,1.704810,54.000500,3.854360,54.000500L53.145600,54.000500C55.295200,54.000500,57,52.296800,57,50.148600L57,19.259800L0,19.259800ZM17.449276,27.037500L41.582600,27.037500C44.176900,27.037500,44.176900,30.889400,41.582600,30.889400L17.449276,30.889400C14.855076,30.889400,14.855076,27.037500,17.449276,27.037500ZM9.666466,34.741200L41.582600,34.741200C44.176900,34.741200,44.176900,38.593100,41.582600,38.593100L9.666466,38.593100C7.146366,38.593100,7.146366,34.741200,9.666466,34.741200ZM41.582600,46.296800L5.378210,46.296800C2.783910,46.444900,2.858010,42.593100,5.378210,42.444900C5.452310,42.444900,15.343300,42.444900,15.417400,42.444900L41.582600,42.444900C41.582600,42.444900,41.656700,42.444900,41.730800,42.444900C44.399200,42.444900,44.251000,46.519000,41.582600,46.296800Z')} 92.500000% {d: path('M0,19.259800L0,50.148600C0,52.296800,1.704810,54.000500,3.854360,54.000500L53.145600,54.000500C55.295200,54.000500,57,52.296800,57,50.148600L57,19.259800L0,19.259800ZM25.127400,27.037500L41.582600,27.037500C44.176900,27.037500,44.176900,30.889400,41.582600,30.889400L25.127400,30.889400C22.533200,30.889400,22.533200,27.037500,25.127400,27.037500ZM15.417400,34.741200L41.582600,34.741200C44.176900,34.741200,44.176900,38.593100,41.582600,38.593100L15.417400,38.593100C12.897300,38.593100,12.897300,34.741200,15.417400,34.741200ZM41.582600,46.296800L15.447976,46.296800C12.853676,46.444900,12.897200,42.593100,15.417400,42.444900C15.491500,42.444900,15.343300,42.444900,15.417400,42.444900L41.582600,42.444900C41.582600,42.444900,41.656700,42.444900,41.730800,42.444900C44.399200,42.444900,44.251000,46.519000,41.582600,46.296800Z')} 100% {d: path('M0,19.259800L0,50.148600C0,52.296800,1.704810,54.000500,3.854360,54.000500L53.145600,54.000500C55.295200,54.000500,57,52.296800,57,50.148600L57,19.259800L0,19.259800ZM25.127400,27.037500L41.582600,27.037500C44.176900,27.037500,44.176900,30.889400,41.582600,30.889400L25.127400,30.889400C22.533200,30.889400,22.533200,27.037500,25.127400,27.037500ZM15.417400,34.741200L41.582600,34.741200C44.176900,34.741200,44.176900,38.593100,41.582600,38.593100L15.417400,38.593100C12.897300,38.593100,12.897300,34.741200,15.417400,34.741200ZM41.582600,46.296800L15.447976,46.296800C12.853676,46.444900,12.897200,42.593100,15.417400,42.444900C15.491500,42.444900,15.343300,42.444900,15.417400,42.444900L41.582600,42.444900C41.582600,42.444900,41.656700,42.444900,41.730800,42.444900C44.399200,42.444900,44.251000,46.519000,41.582600,46.296800Z')}}]]></style><g id="e1jFk2DsWxR2_ts" transform="translate(30,30) scale(1,1)"><g id="e1jFk2DsWxR2" transform="translate(-28.500000,-27.000250)"><path id="e1jFk2DsWxR3" d="M0,19.259800L0,50.148600C0,52.296800,1.704810,54.000500,3.854360,54.000500L53.145600,54.000500C55.295200,54.000500,57,52.296800,57,50.148600L57,19.259800L0,19.259800ZM25.127400,27.037500L41.582600,27.037500C44.176900,27.037500,44.176900,30.889400,41.582600,30.889400L25.127400,30.889400C22.533200,30.889400,22.533200,27.037500,25.127400,27.037500ZM15.417400,34.741200L41.582600,34.741200C44.176900,34.741200,44.176900,38.593100,41.582600,38.593100L15.417400,38.593100C12.897300,38.593100,12.897300,34.741200,15.417400,34.741200ZM41.582600,46.296800L15.417400,46.296800C12.823100,46.444900,12.674900,42.593100,15.195100,42.444900C15.269200,42.444900,15.343300,42.444900,15.417400,42.444900L41.582600,42.444900C41.582600,42.444900,41.656700,42.444900,41.730800,42.444900C44.399200,42.444900,44.251000,46.519000,41.582600,46.296800Z" transform="matrix(1 0 0 1 -0.03057575000000 0.03700000500000)" fill="rgb(86,0,227)" stroke="none" stroke-width="1"/><path id="e1jFk2DsWxR4" d="M53.145600,0L3.854360,0C1.704810,0,0,1.703700,0,3.851850L0,15.407400L57,15.407400L57,3.851850C57,1.703700,55.295200,0,53.145600,0ZM7.708710,9.629630C6.671000,9.629630,5.781530,8.740740,5.781530,7.703700C5.781530,6.666670,6.671000,5.777780,7.708710,5.777780C8.746420,5.777780,9.635890,6.666670,9.635890,7.703700C9.635890,8.814810,8.820550,9.629630,7.708710,9.629630ZM13.490200,9.629630C12.452500,9.629630,11.563100,8.740740,11.563100,7.703700C11.563100,6.666670,12.452500,5.777780,13.490200,5.777780C14.528000,5.777780,15.417400,6.666670,15.417400,7.703700C15.417400,8.814810,14.602100,9.629630,13.490200,9.629630ZM19.345900,9.629630C18.308200,9.629630,17.418700,8.740740,17.418700,7.703700C17.418700,6.666670,18.308200,5.777780,19.345900,5.777780C20.383600,5.777780,21.273100,6.666670,21.273100,7.703700C21.273100,8.814810,20.383600,9.629630,19.345900,9.629630Z" fill="rgb(45,255,179)" stroke="none" stroke-width="1"/><g id="e1jFk2DsWxR5" display="none"><path id="e1jFk2DsWxR6" d="M49.042000,42.206000C44.739000,39.275000,40.437000,36.345000,36.136000,33.416000C36.888000,38.566000,37.640000,43.716000,38.393000,48.867000C39.382000,47.597000,40.371000,46.328000,41.360000,45.059000C42.261000,46.499000,43.163000,47.940000,44.064000,49.382000C45.050000,48.765000,46.037000,48.148000,47.023000,47.531000C46.122000,46.090000,45.220000,44.648000,44.319000,43.208000C45.893000,42.873000,47.467000,42.539000,49.042000,42.206000Z" fill="rgb(255,255,255)" fill-rule="evenodd" stroke="rgb(255,255,255)" stroke-width="4" stroke-linecap="round" stroke-linejoin="round"/><path id="e1jFk2DsWxR7" d="M49.042000,42.206000C44.739000,39.275000,40.437000,36.345000,36.136000,33.416000C36.888000,38.566000,37.640000,43.716000,38.393000,48.867000C39.382000,47.597000,40.371000,46.328000,41.360000,45.059000C42.261000,46.499000,43.163000,47.940000,44.064000,49.382000C45.050000,48.765000,46.037000,48.148000,47.023000,47.531000C46.122000,46.090000,45.220000,44.648000,44.319000,43.208000C45.893000,42.873000,47.467000,42.539000,49.042000,42.206000Z" fill="rgb(86,0,227)" fill-rule="evenodd" stroke="none" stroke-width="1"/></g></g></g></svg>