<svg width="50" height="50" viewBox="0 0 50 50" fill="none" xmlns="http://www.w3.org/2000/svg">
<path d="M23.6328 19.2383V28.0273C23.6328 28.8363 24.2887 29.4922 25.0977 29.4922H42.6758C43.4848 29.4922 44.1406 28.8363 44.1406 28.0273V19.2383C44.1406 18.4293 43.4848 17.7734 42.6758 17.7734H25.0977C24.2887 17.7734 23.6328 18.4293 23.6328 19.2383Z" fill="#2DFFB3"/>
<path d="M36.8164 41.2109H30.957C30.148 41.2109 29.4922 41.8668 29.4922 42.6758V48.5352C29.4922 49.3441 30.148 50 30.957 50H36.8164C37.6254 50 38.2812 49.3441 38.2812 48.5352V42.6758C38.2812 41.8668 37.6254 41.2109 36.8164 41.2109Z" fill="#5600E3"/>
<path d="M30.0449 1.46484C30.0449 0.655859 29.3891 0 28.5801 0H24.1855V5.85938H30.0449V1.46484Z" fill="#5600E3"/>
<path d="M21.2565 0H1.46484C0.655859 0 0 0.655859 0 1.46484V5.85938H21.2565V0Z" fill="#5600E3"/>
<path d="M30.0456 33.8867V32.4219H25.0977C22.6745 32.4219 20.7031 30.4506 20.7031 28.0273V19.2383C20.7031 16.815 22.6745 14.8438 25.0977 14.8438H30.0456V8.78906H0V33.8867C0 34.6957 0.655859 35.3516 1.46484 35.3516H28.5808C29.3897 35.3516 30.0456 34.6957 30.0456 33.8867ZM14.8407 29.3945H5.85938C5.05039 29.3945 4.39453 28.7387 4.39453 27.9297C4.39453 27.1207 5.05039 26.4648 5.85938 26.4648H14.8407C15.6497 26.4648 16.3056 27.1207 16.3056 27.9297C16.3056 28.7387 15.6497 29.3945 14.8407 29.3945ZM14.8407 23.5352H5.85938C5.05039 23.5352 4.39453 22.8793 4.39453 22.0703C4.39453 21.2613 5.05039 20.6055 5.85938 20.6055H14.8407C15.6497 20.6055 16.3056 21.2613 16.3056 22.0703C16.3056 22.8793 15.6497 23.5352 14.8407 23.5352ZM14.8407 17.6758H5.85938C5.05039 17.6758 4.39453 17.0199 4.39453 16.2109C4.39453 15.402 5.05039 14.7461 5.85938 14.7461H14.8407C15.6497 14.7461 16.3056 15.402 16.3056 16.2109C16.3056 17.0199 15.6497 17.6758 14.8407 17.6758Z" fill="#5600E3"/>
<path d="M47.0703 22.4199V30.957C47.0703 31.7648 46.4133 32.4219 45.6055 32.4219H36.8164C34.3932 32.4219 32.4219 34.3932 32.4219 36.8164V38.2813H35.3516V36.8164C35.3516 36.0086 36.0086 35.3516 36.8164 35.3516H45.6055C48.0287 35.3516 50 33.3803 50 30.957V26.5625C50 24.6528 48.7753 23.0247 47.0703 22.4199Z" fill="#2DFFB3"/>
</svg>
