<?xml version="1.0" encoding="utf-8"?>
<!-- Generator: Moho 13.0.2 build 610 -->
<!DOCTYPE svg PUBLIC "-//W3C//DTD SVG 1.1//EN" "http://www.w3.org/Graphics/SVG/1.1/DTD/svg11.dtd">
<svg version="1.1" id="Frame_0" xmlns="http://www.w3.org/2000/svg" xmlns:xlink="http://www.w3.org/1999/xlink" width="60px" height="60px">
<g id="Frame_(1).svg">
<path fill="#5600e3" fill-rule="evenodd" stroke="none" d="M 33.554 1641.245 C 33.553 1653.468 33.553 1665.690 33.554 1677.913 C 33.554 1679.492 32.277 1680.755 30.681 1680.755 C 23.690 1680.754 16.699 1680.754 9.708 1680.755 C 8.158 1680.755 6.881 1679.582 6.836 1678.094 C 6.836 1665.810 6.836 1653.528 6.836 1641.245 C 6.836 1640.343 7.520 1639.667 8.432 1639.667 C 9.009 1639.667 9.587 1639.667 10.164 1639.667 C 10.483 1639.667 10.802 1639.847 10.939 1640.163 C 11.669 1641.696 13.219 1642.779 15.043 1642.779 C 18.477 1642.779 21.912 1642.779 25.347 1642.779 C 27.170 1642.779 28.766 1641.696 29.450 1640.163 C 29.587 1639.847 29.906 1639.667 30.225 1639.667 C 30.803 1639.667 31.380 1639.667 31.958 1639.667 C 32.824 1639.667 33.554 1640.389 33.554 1641.245 M 36.700 1641.245 C 36.700 1638.629 34.557 1636.510 31.958 1636.510 C 24.116 1636.510 16.274 1636.510 8.432 1636.510 C 5.787 1636.510 3.644 1638.629 3.644 1641.245 C 3.644 1656.054 3.644 1670.862 3.644 1685.671 C 3.644 1688.151 5.696 1690.181 8.204 1690.181 C 16.182 1690.180 24.161 1690.180 32.140 1690.181 C 34.648 1690.181 36.700 1688.151 36.700 1685.671 C 36.699 1670.862 36.699 1656.054 36.700 1641.245 Z"/>
<path fill="#f9fbfc" fill-rule="evenodd" stroke="none" d="M 20.194 1687.069 C 21.061 1687.069 21.790 1686.347 21.790 1685.490 C 21.790 1684.633 21.061 1683.912 20.194 1683.912 C 19.328 1683.912 18.599 1684.633 18.599 1685.490 C 18.599 1686.347 19.283 1687.069 20.194 1687.069 Z"/>
<path fill="#2dffb3" fill-rule="evenodd" stroke="none" d="M 54.937 1674.801 C 44.374 1674.801 33.812 1674.801 23.250 1674.801 C 21.517 1674.801 20.058 1673.403 20.058 1671.644 C 20.058 1665.074 20.058 1658.504 20.058 1651.934 C 20.058 1650.221 21.472 1648.777 23.250 1648.777 C 33.812 1648.777 44.374 1648.777 54.937 1648.777 C 56.670 1648.777 58.129 1650.175 58.129 1651.934 C 58.128 1658.504 58.128 1665.074 58.129 1671.644 C 58.129 1673.358 56.715 1674.801 54.937 1674.801 Z"/>
<path fill="#5600e3" fill-rule="evenodd" stroke="none" d="M 28.858 1660.820 C 28.569 1660.819 28.280 1660.819 27.991 1660.820 C 27.125 1660.820 26.395 1660.098 26.395 1659.241 C 26.395 1658.384 27.125 1657.662 27.991 1657.662 C 28.280 1657.662 28.569 1657.662 28.858 1657.662 C 29.724 1657.662 30.453 1658.384 30.453 1659.241 C 30.453 1660.143 29.724 1660.820 28.858 1660.820 Z"/>
<path fill="#5600e3" fill-rule="evenodd" stroke="none" d="M 43.493 1668.712 C 38.325 1668.712 33.158 1668.712 27.991 1668.712 C 27.125 1668.712 26.395 1667.991 26.395 1667.134 C 26.395 1666.277 27.125 1665.555 27.991 1665.555 C 33.143 1665.555 38.295 1665.555 43.448 1665.555 C 44.314 1665.555 45.043 1666.277 45.043 1667.134 C 45.043 1667.991 44.359 1668.712 43.493 1668.712 Z"/>
<path fill="#5600e3" fill-rule="evenodd" stroke="none" d="M 36.061 1660.820 C 35.772 1660.819 35.483 1660.819 35.195 1660.820 C 34.329 1660.820 33.599 1660.098 33.599 1659.241 C 33.599 1658.384 34.329 1657.662 35.195 1657.662 C 35.483 1657.662 35.772 1657.662 36.061 1657.662 C 36.927 1657.662 37.657 1658.384 37.657 1659.241 C 37.657 1660.143 36.927 1660.820 36.061 1660.820 Z"/>
<path fill="#5600e3" fill-rule="evenodd" stroke="none" d="M 43.265 1660.820 C 42.976 1660.819 42.687 1660.819 42.399 1660.820 C 41.532 1660.820 40.803 1660.098 40.803 1659.241 C 40.803 1658.384 41.532 1657.662 42.399 1657.662 C 42.687 1657.662 42.976 1657.662 43.265 1657.662 C 44.131 1657.662 44.861 1658.384 44.861 1659.241 C 44.861 1660.143 44.177 1660.820 43.265 1660.820 Z"/>
<path fill="#5600e3" fill-rule="evenodd" stroke="none" d="M 50.468 1660.820 C 50.179 1660.819 49.890 1660.819 49.602 1660.820 C 48.736 1660.820 48.006 1660.098 48.006 1659.241 C 48.006 1658.384 48.736 1657.662 49.602 1657.662 C 49.890 1657.662 50.179 1657.662 50.468 1657.662 C 51.335 1657.662 52.064 1658.384 52.064 1659.241 C 52.064 1660.143 51.380 1660.820 50.468 1660.820 Z"/>
<path fill="#5600e3" fill-rule="evenodd" stroke="none" d="M 10.623 1557.706 C 8.402 1557.706 6.180 1557.706 3.958 1557.706 C 2.799 1557.706 1.889 1556.742 1.889 1555.610 C 1.889 1552.297 1.889 1548.984 1.889 1545.672 C 1.889 1544.498 2.841 1543.575 3.958 1543.575 C 6.180 1543.575 8.402 1543.575 10.623 1543.575 C 11.782 1543.575 12.693 1544.540 12.693 1545.672 C 12.693 1548.984 12.693 1552.297 12.693 1555.610 C 12.693 1556.742 11.782 1557.706 10.623 1557.706 Z"/>
<path fill="#5600e3" fill-rule="evenodd" stroke="none" d="M 24.574 1557.706 C 22.352 1557.706 20.130 1557.706 17.909 1557.706 C 16.750 1557.706 15.839 1556.742 15.839 1555.610 C 15.839 1550.130 15.839 1544.651 15.839 1539.172 C 15.839 1537.999 16.791 1537.076 17.909 1537.076 C 20.130 1537.076 22.352 1537.076 24.574 1537.076 C 25.733 1537.076 26.643 1538.040 26.643 1539.172 C 26.643 1544.651 26.643 1550.130 26.643 1555.610 C 26.643 1556.742 25.733 1557.706 24.574 1557.706 Z"/>
<path fill="#5600e3" fill-rule="evenodd" stroke="none" d="M 38.524 1557.706 C 36.289 1557.706 34.053 1557.706 31.818 1557.706 C 30.659 1557.706 29.748 1556.742 29.748 1555.610 C 29.748 1547.586 29.748 1539.564 29.748 1531.541 C 29.748 1530.367 30.701 1529.444 31.818 1529.444 C 34.040 1529.444 36.261 1529.444 38.483 1529.444 C 39.642 1529.444 40.553 1530.409 40.553 1531.541 C 40.553 1539.563 40.552 1547.586 40.553 1555.610 C 40.594 1556.742 39.642 1557.706 38.524 1557.706 Z"/>
<path fill="#2dffb3" fill-rule="evenodd" stroke="none" d="M 58.270 1525.629 C 59.636 1525.629 60.216 1524.664 59.512 1523.448 C 58.408 1521.505 57.304 1519.562 56.201 1517.620 C 55.538 1516.404 54.421 1514.475 53.717 1513.259 C 52.612 1511.316 51.509 1509.373 50.405 1507.430 C 49.743 1506.214 48.625 1506.214 47.921 1507.430 C 46.817 1509.373 45.713 1511.316 44.610 1513.259 C 43.947 1514.475 42.830 1516.404 42.126 1517.620 C 41.022 1519.562 39.918 1521.505 38.814 1523.448 C 38.152 1524.664 38.690 1525.629 40.056 1525.629 C 40.470 1525.629 40.884 1525.629 41.298 1525.629 C 42.664 1525.629 43.782 1526.761 43.782 1528.144 C 43.782 1536.461 43.781 1544.777 43.782 1553.094 C 43.782 1554.478 43.989 1556.071 44.237 1556.658 C 44.486 1557.245 46.969 1557.706 48.335 1557.706 C 48.901 1557.706 49.466 1557.706 50.033 1557.706 C 51.399 1557.706 52.972 1557.496 53.551 1557.245 C 54.131 1556.993 54.586 1554.477 54.586 1553.094 C 54.586 1544.777 54.585 1536.461 54.586 1528.144 C 54.586 1526.761 55.704 1525.629 57.070 1525.629 C 57.470 1525.629 57.870 1525.629 58.270 1525.629 Z"/>
<path fill="#5600e3" fill-rule="evenodd" stroke="none" d="M 29.006 1624.838 C 29.006 1622.764 29.006 1620.692 29.006 1618.620 C 25.435 1618.834 22.509 1615.961 22.509 1612.402 C 22.509 1609.057 25.435 1606.184 29.006 1606.398 C 29.006 1604.397 29.006 1602.395 29.006 1600.395 C 25.205 1600.394 21.405 1600.394 17.605 1600.395 C 18.035 1599.280 18.723 1598.165 18.723 1597.050 C 18.723 1592.590 12.011 1592.590 12.011 1597.050 C 12.011 1598.165 12.700 1599.280 13.130 1600.395 C 9.329 1600.394 5.529 1600.394 1.729 1600.395 C 1.729 1607.970 1.728 1615.546 1.729 1623.122 C 1.729 1624.023 2.417 1624.923 3.536 1624.923 C 12.026 1624.923 20.516 1624.923 29.006 1624.923 C 29.006 1624.894 29.006 1624.865 29.006 1624.838 Z"/>
<path fill="#5600e3" fill-rule="evenodd" stroke="none" d="M 59.167 1600.352 C 56.786 1600.352 54.405 1600.352 52.025 1600.352 C 52.240 1603.911 49.572 1606.827 46.001 1606.827 C 42.430 1606.827 39.505 1603.911 39.763 1600.352 C 37.066 1600.352 34.370 1600.352 31.674 1600.352 C 31.674 1603.539 31.674 1606.727 31.674 1609.914 C 30.771 1609.700 29.652 1609.014 28.533 1609.014 C 24.059 1609.014 24.059 1615.918 28.533 1615.918 C 29.652 1615.918 30.771 1615.232 31.674 1615.018 C 31.674 1618.291 31.674 1621.564 31.674 1624.838 C 40.164 1624.837 48.654 1624.837 57.145 1624.838 C 58.263 1624.838 59.167 1623.937 59.167 1623.037 C 59.167 1615.475 59.166 1607.913 59.167 1600.352 Z"/>
<path fill="#5600e3" fill-rule="evenodd" stroke="none" d="M 1.514 1597.693 C 4.124 1597.693 6.734 1597.693 9.344 1597.693 C 8.914 1594.134 11.797 1591.003 15.368 1591.003 C 18.939 1591.003 21.865 1594.134 21.391 1597.693 C 23.929 1597.693 26.468 1597.693 29.007 1597.693 C 29.006 1594.276 29.006 1590.860 29.007 1587.444 C 30.125 1587.873 31.244 1588.559 32.362 1588.559 C 37.052 1588.559 37.052 1581.441 32.362 1581.441 C 31.244 1581.441 30.125 1582.341 29.007 1582.770 C 29.006 1579.496 29.006 1576.223 29.007 1572.950 C 20.516 1572.950 12.026 1572.950 3.536 1572.950 C 2.417 1572.950 1.514 1573.850 1.514 1574.965 C 1.514 1582.541 1.514 1590.117 1.514 1597.693 Z"/>
<path fill="#2dffb3" fill-rule="evenodd" stroke="none" d="M 59.167 1597.693 C 59.166 1590.117 59.166 1582.541 59.167 1574.965 C 59.167 1573.850 58.263 1572.950 57.144 1572.950 C 48.654 1572.950 40.164 1572.950 31.674 1572.950 C 31.674 1574.951 31.674 1576.952 31.674 1578.953 C 35.245 1578.525 38.601 1581.398 38.601 1584.957 C 38.601 1588.731 35.245 1591.432 31.674 1590.960 C 31.674 1593.190 31.674 1595.420 31.674 1597.650 C 35.546 1597.650 39.418 1597.650 43.291 1597.650 C 43.075 1598.551 42.387 1599.666 42.387 1600.781 C 42.387 1605.240 49.314 1605.240 49.314 1600.781 C 49.314 1599.666 48.884 1598.551 48.410 1597.650 C 51.995 1597.650 55.581 1597.650 59.167 1597.650 C 59.166 1597.664 59.166 1597.678 59.167 1597.693 Z"/>
<path fill="#5600e3" fill-rule="evenodd" stroke="none" d="M 33.217 1490.863 C 33.217 1491.694 32.503 1492.406 31.670 1492.406 C 30.777 1492.406 30.123 1491.753 30.123 1490.863 C 30.123 1490.032 30.777 1489.320 31.670 1489.320 C 32.503 1489.320 33.217 1490.032 33.217 1490.863 M 56.656 1461.839 C 56.596 1461.661 56.596 1461.542 56.537 1461.304 C 55.366 1462.294 54.196 1463.283 53.027 1464.272 C 53.027 1471.830 53.026 1479.388 53.027 1486.946 C 38.788 1486.945 24.550 1486.945 10.313 1486.946 C 10.313 1479.031 10.313 1471.118 10.313 1463.204 C 18.443 1463.204 26.573 1463.204 34.704 1463.204 C 35.715 1462.017 36.726 1460.829 37.738 1459.642 C 28.160 1459.643 18.582 1459.642 9.004 1459.642 C 7.814 1459.642 6.803 1460.652 6.803 1461.898 C 6.803 1472.107 6.803 1482.316 6.803 1492.525 C 6.803 1493.712 7.814 1494.721 9.004 1494.721 C 15.072 1494.721 21.140 1494.721 27.208 1494.721 C 27.208 1496.086 27.208 1497.451 27.208 1498.817 C 25.859 1498.816 24.511 1498.816 23.163 1498.817 C 22.568 1498.817 22.032 1499.291 22.032 1499.944 C 22.032 1500.636 22.032 1501.329 22.032 1502.022 C 22.032 1502.615 22.508 1503.150 23.163 1503.150 C 28.814 1503.149 34.466 1503.149 40.117 1503.150 C 40.712 1503.150 41.248 1502.675 41.248 1502.022 C 41.247 1501.329 41.247 1500.636 41.248 1499.944 C 41.248 1499.351 40.772 1498.817 40.117 1498.817 C 38.769 1498.816 37.420 1498.816 36.072 1498.817 C 36.072 1497.451 36.072 1496.086 36.072 1494.721 C 42.179 1494.721 48.287 1494.721 54.395 1494.721 C 55.645 1494.721 56.656 1493.712 56.656 1492.525 C 56.655 1482.296 56.656 1472.067 56.656 1461.839 Z"/>
<path fill="#2dffb3" fill-rule="evenodd" stroke="none" d="M 38.690 1468.248 C 39.463 1469.020 40.058 1469.910 40.474 1470.860 C 45.213 1466.764 49.953 1462.669 54.693 1458.574 C 56.656 1456.852 56.715 1453.885 54.931 1452.045 C 53.086 1450.205 50.112 1450.323 48.387 1452.282 C 44.301 1457.030 40.216 1461.779 36.132 1466.527 C 37.083 1466.883 37.976 1467.477 38.690 1468.248 Z"/>
<path fill="#2dffb3" fill-rule="evenodd" stroke="none" d="M 29.171 1470.563 C 27.030 1472.700 28.041 1476.380 24.531 1478.991 C 23.876 1479.466 24.114 1480.475 24.888 1480.653 C 30.421 1481.841 34.347 1479.882 36.370 1477.804 C 38.333 1475.846 38.333 1472.581 36.370 1470.563 C 34.406 1468.545 31.194 1468.545 29.171 1470.563 Z"/>
<path fill="#5600e3" fill-rule="evenodd" stroke="none" d="M 36.330 1422.435 C 33.123 1422.434 29.916 1422.434 26.709 1422.435 C 19.053 1422.435 12.873 1428.053 12.873 1435.006 C 12.873 1435.614 12.873 1436.223 12.873 1436.832 C 12.873 1437.464 13.364 1437.956 13.997 1437.956 C 25.725 1437.955 37.454 1437.955 49.183 1437.956 C 49.815 1437.956 50.307 1437.464 50.307 1436.832 C 50.306 1436.223 50.306 1435.614 50.307 1435.006 C 50.236 1428.053 43.986 1422.435 36.330 1422.435 Z"/>
<path fill="#2dffb3" fill-rule="evenodd" stroke="none" d="M 49.183 1400.732 C 49.182 1400.357 49.182 1399.983 49.183 1399.608 C 49.183 1391.883 41.738 1385.562 32.678 1385.562 C 31.905 1385.562 31.133 1385.562 30.360 1385.562 C 21.300 1385.562 13.856 1391.883 13.856 1399.679 C 13.856 1400.053 13.856 1400.428 13.856 1400.802 C 11.538 1401.435 9.853 1403.331 9.853 1405.719 C 9.853 1407.615 10.976 1409.230 12.592 1410.073 C 12.592 1410.120 12.592 1410.167 12.592 1410.214 C 12.592 1412.531 14.628 1414.428 17.087 1414.428 C 20.668 1414.427 24.250 1414.427 27.832 1414.428 C 28.464 1415.621 29.799 1416.464 31.273 1416.464 C 33.380 1416.464 35.136 1414.849 35.136 1412.882 C 35.136 1410.916 33.380 1409.301 31.273 1409.301 C 29.377 1409.301 27.832 1410.565 27.481 1412.250 C 24.016 1412.250 20.551 1412.250 17.087 1412.250 C 16.033 1412.250 15.120 1411.618 14.839 1410.776 C 15.050 1410.775 15.190 1410.846 15.401 1410.846 C 15.729 1410.845 16.056 1410.845 16.384 1410.846 C 17.016 1410.846 17.508 1410.354 17.508 1409.722 C 17.508 1407.030 17.508 1404.337 17.508 1401.645 C 17.508 1401.013 17.016 1400.521 16.384 1400.521 C 16.267 1400.521 16.150 1400.521 16.033 1400.521 C 16.033 1400.217 16.033 1399.913 16.033 1399.608 C 16.033 1393.007 22.424 1387.669 30.360 1387.669 C 31.133 1387.669 31.905 1387.669 32.678 1387.669 C 40.544 1387.669 47.006 1393.007 47.006 1399.608 C 47.005 1399.913 47.005 1400.217 47.006 1400.521 C 46.935 1400.521 46.865 1400.521 46.795 1400.521 C 46.163 1400.521 45.671 1401.013 45.671 1401.645 C 45.671 1404.314 45.671 1406.983 45.671 1409.652 C 45.671 1410.284 46.163 1410.776 46.795 1410.776 C 47.122 1410.775 47.450 1410.775 47.778 1410.776 C 50.798 1410.776 53.326 1408.458 53.326 1405.649 C 53.326 1403.331 51.571 1401.364 49.183 1400.732 Z"/>
<path fill="#5600e3" fill-rule="evenodd" stroke="none" d="M 31.344 1418.571 C 29.518 1418.571 27.833 1417.799 26.779 1416.534 C 25.983 1416.534 25.187 1416.534 24.391 1416.534 C 26.428 1418.431 28.886 1419.695 31.555 1419.695 C 39.000 1419.695 44.618 1410.003 44.618 1403.682 C 44.548 1397.221 38.719 1391.883 31.485 1391.883 C 24.321 1391.883 18.422 1397.221 18.422 1403.752 C 18.422 1405.648 18.913 1407.826 19.826 1410.003 C 21.886 1410.003 23.946 1410.003 26.007 1410.003 C 27.060 1408.247 29.027 1407.053 31.274 1407.053 C 34.575 1407.053 37.314 1409.652 37.314 1412.812 C 37.384 1415.973 34.645 1418.571 31.344 1418.571 Z"/>
<path fill="#5600e3" fill-rule="evenodd" stroke="none" d="M 36.330 1422.435 C 33.123 1422.434 29.916 1422.434 26.709 1422.435 C 19.053 1422.435 12.873 1428.053 12.873 1435.006 C 12.873 1435.614 12.873 1436.223 12.873 1436.832 C 12.873 1437.464 13.364 1437.956 13.997 1437.956 C 25.725 1437.955 37.454 1437.955 49.183 1437.956 C 49.815 1437.956 50.307 1437.464 50.307 1436.832 C 50.306 1436.223 50.306 1435.614 50.307 1435.006 C 50.236 1428.053 43.986 1422.435 36.330 1422.435 Z"/>
<path fill="#2dffb3" fill-rule="evenodd" stroke="none" d="M 49.183 1400.732 C 49.182 1400.357 49.182 1399.983 49.183 1399.608 C 49.183 1391.883 41.738 1385.562 32.678 1385.562 C 31.905 1385.562 31.133 1385.562 30.360 1385.562 C 21.300 1385.562 13.856 1391.883 13.856 1399.679 C 13.856 1400.053 13.856 1400.428 13.856 1400.802 C 11.538 1401.435 9.853 1403.331 9.853 1405.719 C 9.853 1407.615 10.976 1409.230 12.592 1410.073 C 12.592 1410.120 12.592 1410.167 12.592 1410.214 C 12.592 1412.531 14.628 1414.428 17.087 1414.428 C 20.668 1414.427 24.250 1414.427 27.832 1414.428 C 28.464 1415.621 29.799 1416.464 31.273 1416.464 C 33.380 1416.464 35.136 1414.849 35.136 1412.882 C 35.136 1410.916 33.380 1409.301 31.273 1409.301 C 29.377 1409.301 27.832 1410.565 27.481 1412.250 C 24.016 1412.250 20.551 1412.250 17.087 1412.250 C 16.033 1412.250 15.120 1411.618 14.839 1410.776 C 15.050 1410.775 15.190 1410.846 15.401 1410.846 C 15.729 1410.845 16.056 1410.845 16.384 1410.846 C 17.016 1410.846 17.508 1410.354 17.508 1409.722 C 17.508 1407.030 17.508 1404.337 17.508 1401.645 C 17.508 1401.013 17.016 1400.521 16.384 1400.521 C 16.267 1400.521 16.150 1400.521 16.033 1400.521 C 16.033 1400.217 16.033 1399.913 16.033 1399.608 C 16.033 1393.007 22.424 1387.669 30.360 1387.669 C 31.133 1387.669 31.905 1387.669 32.678 1387.669 C 40.544 1387.669 47.006 1393.007 47.006 1399.608 C 47.005 1399.913 47.005 1400.217 47.006 1400.521 C 46.935 1400.521 46.865 1400.521 46.795 1400.521 C 46.163 1400.521 45.671 1401.013 45.671 1401.645 C 45.671 1404.314 45.671 1406.983 45.671 1409.652 C 45.671 1410.284 46.163 1410.776 46.795 1410.776 C 47.122 1410.775 47.450 1410.775 47.778 1410.776 C 50.798 1410.776 53.326 1408.458 53.326 1405.649 C 53.326 1403.331 51.571 1401.364 49.183 1400.732 Z"/>
<path fill="#5600e3" fill-rule="evenodd" stroke="none" d="M 31.344 1418.571 C 29.518 1418.571 27.833 1417.799 26.779 1416.534 C 25.983 1416.534 25.187 1416.534 24.391 1416.534 C 26.428 1418.431 28.886 1419.695 31.555 1419.695 C 39.000 1419.695 44.618 1410.003 44.618 1403.682 C 44.548 1397.221 38.719 1391.883 31.485 1391.883 C 24.321 1391.883 18.422 1397.221 18.422 1403.752 C 18.422 1405.648 18.913 1407.826 19.826 1410.003 C 21.886 1410.003 23.946 1410.003 26.007 1410.003 C 27.060 1408.247 29.027 1407.053 31.274 1407.053 C 34.575 1407.053 37.314 1409.652 37.314 1412.812 C 37.384 1415.973 34.645 1418.571 31.344 1418.571 Z"/>
<path fill="#5600e3" fill-rule="evenodd" stroke="none" d="M 54.553 1339.828 C 54.552 1349.173 54.552 1358.518 54.553 1367.863 C 54.553 1369.554 53.148 1371.011 51.391 1371.011 C 37.884 1371.011 24.378 1371.011 10.871 1371.011 C 9.173 1371.011 7.709 1369.612 7.709 1367.863 C 7.710 1358.518 7.710 1349.173 7.709 1339.828 C 7.709 1338.137 9.115 1336.680 10.871 1336.680 C 24.378 1336.680 37.884 1336.680 51.391 1336.680 C 53.089 1336.680 54.553 1338.079 54.553 1339.828 M 7.709 1330.502 C 7.709 1328.754 9.173 1327.355 10.871 1327.355 C 12.569 1327.355 14.033 1328.754 14.033 1330.502 C 14.033 1332.251 12.628 1333.649 10.871 1333.649 C 9.115 1333.649 7.709 1332.251 7.709 1330.502 M 17.137 1330.502 C 17.137 1328.754 18.542 1327.355 20.299 1327.355 C 21.997 1327.355 23.461 1328.754 23.461 1330.502 C 23.461 1332.251 22.055 1333.649 20.299 1333.649 C 18.542 1333.649 17.137 1332.251 17.137 1330.502 M 57.656 1330.444 C 57.656 1327.005 54.846 1324.207 51.391 1324.207 C 37.884 1324.207 24.378 1324.207 10.871 1324.207 C 7.417 1324.207 4.606 1327.005 4.606 1330.444 C 4.606 1342.917 4.606 1355.390 4.606 1367.863 C 4.606 1371.302 7.417 1374.100 10.871 1374.100 C 24.378 1374.100 37.884 1374.100 51.391 1374.100 C 54.846 1374.100 57.656 1371.302 57.656 1367.863 C 57.656 1355.390 57.656 1342.917 57.656 1330.444 Z"/>
<path fill="#2dffb3" fill-rule="evenodd" stroke="none" d="M 45.243 1349.969 C 44.131 1349.969 43.077 1350.611 42.608 1351.543 C 42.452 1351.543 42.296 1351.543 42.140 1351.543 C 42.140 1349.464 42.140 1347.385 42.140 1345.307 C 42.140 1343.616 40.735 1342.159 38.978 1342.159 C 36.889 1342.159 34.801 1342.159 32.713 1342.159 C 32.713 1342.314 32.713 1342.470 32.713 1342.625 C 35.523 1344.024 34.411 1348.396 31.132 1348.396 C 27.970 1348.396 26.740 1344.199 29.551 1342.625 C 29.551 1342.470 29.551 1342.314 29.551 1342.159 C 27.462 1342.159 25.374 1342.159 23.286 1342.159 C 21.587 1342.159 20.124 1343.558 20.124 1345.307 C 20.123 1347.385 20.123 1349.464 20.124 1351.543 C 19.967 1351.543 19.811 1351.543 19.655 1351.543 C 19.187 1350.611 18.074 1349.969 17.020 1349.969 C 15.322 1349.969 13.858 1351.368 13.858 1353.117 C 13.858 1354.807 15.264 1356.264 17.020 1356.264 C 18.133 1356.264 19.187 1355.623 19.655 1354.691 C 19.811 1354.690 19.967 1354.690 20.124 1354.691 C 20.123 1356.769 20.123 1358.848 20.124 1360.927 C 20.124 1362.617 21.529 1364.075 23.286 1364.075 C 25.374 1364.074 27.462 1364.074 29.551 1364.075 C 29.551 1363.919 29.551 1363.763 29.551 1363.608 C 29.258 1363.434 29.082 1363.317 28.907 1363.142 C 27.033 1361.277 28.263 1357.838 31.073 1357.838 C 34.235 1357.838 35.465 1362.035 32.654 1363.608 C 32.654 1363.763 32.654 1363.919 32.654 1364.075 C 34.742 1364.074 36.831 1364.074 38.920 1364.075 C 40.618 1364.075 42.082 1362.676 42.082 1360.927 C 42.081 1358.829 42.081 1356.730 42.082 1354.632 C 42.237 1354.632 42.393 1354.632 42.550 1354.632 C 43.018 1355.565 44.131 1356.206 45.185 1356.206 C 46.883 1356.206 48.347 1354.807 48.347 1353.059 C 48.405 1351.368 47.000 1349.969 45.243 1349.969 Z"/>
<path fill="#5600e3" fill-rule="evenodd" stroke="none" d="M 26.476 1285.933 C 26.476 1287.029 26.111 1288.003 25.319 1288.734 C 24.527 1289.526 23.614 1289.891 22.518 1289.891 C 21.421 1289.891 20.508 1289.526 19.716 1288.734 C 18.924 1287.942 18.559 1287.029 18.559 1285.933 C 18.559 1284.836 18.924 1283.923 19.716 1283.131 C 20.508 1282.339 21.421 1281.974 22.518 1281.974 C 23.614 1281.974 24.527 1282.339 25.319 1283.131 C 26.111 1283.923 26.476 1284.836 26.476 1285.933 M 32.384 1284.471 C 32.384 1284.410 32.323 1284.288 32.262 1284.167 C 32.201 1284.106 32.079 1283.984 32.018 1283.984 C 31.247 1283.862 30.475 1283.740 29.704 1283.618 C 29.582 1283.253 29.460 1282.827 29.217 1282.339 C 29.399 1282.096 29.582 1281.791 29.948 1281.426 C 30.252 1281.061 30.435 1280.756 30.618 1280.634 C 30.678 1280.512 30.739 1280.452 30.739 1280.330 C 30.739 1280.086 30.009 1279.233 28.486 1277.894 C 28.364 1277.833 28.303 1277.772 28.181 1277.772 C 28.060 1277.772 27.938 1277.833 27.877 1277.894 C 27.268 1278.340 26.659 1278.787 26.050 1279.234 C 25.624 1278.990 25.258 1278.868 24.893 1278.746 C 24.771 1277.975 24.649 1277.203 24.527 1276.432 C 24.527 1276.310 24.466 1276.249 24.345 1276.188 C 24.284 1276.128 24.162 1276.067 24.040 1276.067 C 23.086 1276.067 22.132 1276.067 21.178 1276.067 C 20.934 1276.067 20.812 1276.188 20.691 1276.432 C 20.569 1276.919 20.447 1277.711 20.325 1278.807 C 19.899 1278.990 19.473 1279.112 19.168 1279.294 C 18.559 1278.827 17.950 1278.360 17.341 1277.894 C 17.219 1277.833 17.158 1277.772 17.036 1277.772 C 16.854 1277.772 16.427 1278.076 15.818 1278.685 C 15.209 1279.294 14.783 1279.721 14.540 1280.025 C 14.479 1280.086 14.418 1280.208 14.418 1280.330 C 14.418 1280.391 14.479 1280.512 14.540 1280.634 C 15.149 1281.365 15.575 1281.913 15.940 1282.461 C 15.697 1282.888 15.575 1283.253 15.453 1283.618 C 14.661 1283.740 13.870 1283.862 13.078 1283.984 C 13.017 1283.984 12.895 1284.045 12.834 1284.167 C 12.773 1284.288 12.713 1284.349 12.713 1284.471 C 12.712 1285.425 12.712 1286.379 12.713 1287.333 C 12.713 1287.455 12.773 1287.516 12.834 1287.638 C 12.895 1287.699 13.017 1287.820 13.078 1287.820 C 13.849 1287.942 14.621 1288.064 15.392 1288.186 C 15.514 1288.551 15.697 1288.978 15.940 1289.465 C 15.758 1289.709 15.575 1290.013 15.209 1290.378 C 14.905 1290.744 14.661 1291.048 14.600 1291.170 C 14.540 1291.292 14.479 1291.353 14.479 1291.475 C 14.479 1291.718 15.209 1292.571 16.732 1293.911 C 16.854 1293.972 16.915 1294.032 17.036 1294.032 C 17.158 1294.032 17.280 1293.972 17.341 1293.911 C 17.950 1293.464 18.559 1293.017 19.168 1292.571 C 19.594 1292.814 19.960 1292.936 20.325 1293.058 C 20.447 1293.850 20.569 1294.641 20.691 1295.433 C 20.691 1295.555 20.752 1295.616 20.873 1295.677 C 20.934 1295.738 21.056 1295.799 21.178 1295.799 C 22.132 1295.798 23.086 1295.798 24.040 1295.799 C 24.284 1295.799 24.406 1295.677 24.527 1295.433 C 24.649 1294.946 24.771 1294.154 24.893 1293.058 C 25.319 1292.936 25.685 1292.814 26.050 1292.571 C 26.659 1293.037 27.268 1293.504 27.877 1293.972 C 27.999 1294.032 28.060 1294.094 28.181 1294.094 C 28.364 1294.094 28.790 1293.789 29.399 1293.180 C 30.009 1292.571 30.435 1292.084 30.678 1291.840 C 30.618 1291.718 30.678 1291.657 30.678 1291.475 C 30.678 1291.353 30.618 1291.292 30.557 1291.170 C 29.948 1290.439 29.521 1289.891 29.156 1289.343 C 29.399 1288.917 29.521 1288.551 29.643 1288.186 C 30.435 1288.064 31.226 1287.942 32.018 1287.820 C 32.079 1287.820 32.201 1287.760 32.262 1287.638 C 32.323 1287.516 32.384 1287.455 32.384 1287.333 C 32.383 1286.379 32.383 1285.425 32.384 1284.471 Z"/>
<path fill="#2dffb3" fill-rule="evenodd" stroke="none" d="M 43.678 1281.893 C 47.754 1277.817 51.831 1273.740 55.908 1269.663 C 54.113 1267.869 52.318 1266.075 50.525 1264.281 C 46.448 1268.357 42.371 1272.434 38.295 1276.510 C 40.089 1278.304 41.883 1280.099 43.678 1281.893 Z"/>
<path fill="#2dffb3" fill-rule="evenodd" stroke="none" d="M 34.332 1284.531 C 34.149 1285.322 34.880 1286.114 35.672 1285.870 C 37.296 1285.505 38.920 1285.140 40.544 1284.774 C 40.727 1284.713 40.970 1284.591 41.092 1284.470 C 41.518 1284.043 41.944 1283.617 42.371 1283.191 C 40.584 1281.404 38.798 1279.618 37.012 1277.831 C 36.585 1278.258 36.159 1278.684 35.733 1279.110 C 35.611 1279.293 35.489 1279.476 35.428 1279.658 C 35.063 1281.282 34.697 1282.906 34.332 1284.531 Z"/>
<path fill="#5600e3" fill-rule="evenodd" stroke="none" d="M 7.170 1267.479 C 7.170 1266.565 7.901 1265.895 8.753 1265.895 C 9.606 1265.895 10.337 1266.626 10.337 1267.479 C 10.337 1268.331 9.606 1269.062 8.753 1269.062 C 7.901 1269.062 7.170 1268.331 7.170 1267.479 M 13.260 1267.479 C 13.260 1266.565 13.991 1265.895 14.844 1265.895 C 15.696 1265.895 16.427 1266.626 16.427 1267.479 C 16.427 1268.331 15.696 1269.062 14.844 1269.062 C 13.991 1269.062 13.260 1268.331 13.260 1267.479 M 19.350 1267.479 C 19.350 1266.565 20.081 1265.895 20.934 1265.895 C 21.786 1265.895 22.517 1266.626 22.517 1267.479 C 22.517 1268.331 21.786 1269.062 20.934 1269.062 C 20.081 1269.062 19.350 1268.331 19.350 1267.479 M 49.801 1278.745 C 49.801 1286.216 49.801 1293.686 49.801 1301.157 C 35.590 1301.157 21.380 1301.157 7.170 1301.157 C 7.170 1291.555 7.170 1281.953 7.170 1272.351 C 17.970 1272.351 28.769 1272.351 39.570 1272.351 C 42.695 1269.204 45.822 1266.058 48.948 1262.911 C 49.131 1262.729 49.313 1262.546 49.497 1262.363 C 35.022 1262.364 20.548 1262.363 6.074 1262.363 C 4.369 1262.363 3.029 1263.764 3.029 1265.408 C 3.029 1277.609 3.029 1289.809 3.029 1302.010 C 3.029 1303.715 4.429 1305.055 6.074 1305.055 C 21.015 1305.055 35.956 1305.054 50.897 1305.055 C 52.602 1305.055 53.942 1303.654 53.942 1302.010 C 53.942 1292.874 53.942 1283.739 53.942 1274.604 C 52.561 1275.984 51.181 1277.365 49.801 1278.745 Z"/>
<path fill="#2dffb3" fill-rule="evenodd" stroke="none" d="M 59.606 1264.373 C 58.347 1263.114 57.088 1261.856 55.830 1260.597 C 55.404 1260.171 54.673 1260.171 54.186 1260.597 C 53.414 1261.369 52.643 1262.140 51.872 1262.911 C 53.658 1264.698 55.444 1266.484 57.231 1268.271 C 58.002 1267.499 58.773 1266.728 59.545 1265.957 C 60.033 1265.530 60.032 1264.799 59.606 1264.373 Z"/>
<path fill="#5600e3" fill-rule="evenodd" stroke="none" d="M 35.938 1240.405 C 35.938 1241.069 35.491 1241.511 34.820 1241.511 C 32.342 1241.511 29.864 1241.511 27.386 1241.511 C 26.716 1241.511 26.268 1241.069 26.268 1240.405 C 26.268 1239.741 26.716 1239.298 27.386 1239.298 C 29.864 1239.298 32.342 1239.298 34.820 1239.298 C 35.491 1239.298 35.938 1239.741 35.938 1240.405 M 58.073 1236.311 C 40.111 1236.311 22.151 1236.311 4.190 1236.311 C 4.190 1237.933 4.190 1239.556 4.190 1241.179 C 4.190 1243.060 5.643 1244.498 7.543 1244.498 C 23.268 1244.498 38.994 1244.498 54.719 1244.498 C 56.620 1244.498 58.073 1243.060 58.073 1241.179 C 58.072 1239.556 58.072 1237.933 58.073 1236.311 Z"/>
<path fill="#5600e3" fill-rule="evenodd" stroke="none" d="M 50.918 1228.510 C 50.955 1228.510 50.992 1228.510 51.030 1228.510 C 37.782 1228.510 24.535 1228.510 11.288 1228.510 C 11.288 1220.434 11.288 1212.357 11.288 1204.280 C 24.498 1204.280 37.708 1204.280 50.918 1204.280 C 50.918 1212.357 50.918 1220.434 50.918 1228.510 M 55.390 1203.174 C 55.426 1203.174 55.464 1203.174 55.501 1203.174 C 55.501 1201.293 54.048 1199.855 52.148 1199.855 C 38.136 1199.855 24.125 1199.855 10.114 1199.855 C 8.214 1199.855 6.761 1201.293 6.761 1203.174 C 6.761 1213.131 6.761 1223.089 6.761 1233.047 C 22.970 1233.047 39.180 1233.047 55.390 1233.047 C 55.389 1223.089 55.389 1213.131 55.390 1203.174 Z"/>
<path fill="#2dffb3" fill-rule="evenodd" stroke="none" d="M 33.702 1222.204 C 33.926 1222.757 34.708 1222.868 34.932 1222.314 C 35.379 1221.466 35.826 1220.618 36.274 1219.770 C 37.950 1221.429 39.627 1223.089 41.304 1224.749 C 42.273 1223.790 43.241 1222.830 44.211 1221.872 C 42.533 1220.212 40.857 1218.553 39.180 1216.893 C 40.037 1216.450 40.894 1216.008 41.751 1215.565 C 42.310 1215.344 42.198 1214.570 41.640 1214.349 C 37.931 1213.057 34.224 1211.767 30.516 1210.476 C 29.957 1210.255 29.398 1210.808 29.622 1211.361 C 30.982 1214.975 32.342 1218.589 33.702 1222.204 Z"/>
<path fill="#5600e3" fill-rule="evenodd" stroke="none" d="M 34.916 1153.965 C 34.697 1153.800 34.423 1153.745 34.150 1153.745 C 34.040 1153.745 33.931 1153.745 33.821 1153.800 C 33.438 1153.855 33.110 1154.130 32.891 1154.460 C 32.672 1154.790 32.617 1155.175 32.672 1155.560 C 32.727 1155.945 33.000 1156.275 33.329 1156.495 C 33.657 1156.715 34.040 1156.770 34.423 1156.715 C 34.806 1156.660 35.135 1156.385 35.354 1156.055 C 35.573 1155.725 35.627 1155.340 35.573 1154.955 C 35.518 1154.570 35.190 1154.185 34.916 1153.965 Z"/>
<path fill="#5600e3" fill-rule="evenodd" stroke="none" d="M 36.558 1153.030 C 36.941 1153.415 37.215 1153.910 37.324 1154.460 C 37.543 1155.340 37.379 1156.220 36.886 1156.935 C 36.448 1157.706 35.682 1158.256 34.807 1158.421 C 34.588 1158.476 34.314 1158.476 34.095 1158.476 C 33.767 1158.476 33.493 1158.421 33.165 1158.365 C 32.708 1159.080 32.252 1159.795 31.796 1160.511 C 31.285 1160.181 30.774 1159.850 30.264 1159.521 C 30.720 1158.805 31.176 1158.090 31.632 1157.375 C 31.249 1156.990 31.030 1156.495 30.866 1155.945 C 30.647 1155.065 30.811 1154.185 31.304 1153.470 C 31.796 1152.700 32.508 1152.205 33.384 1151.985 C 33.931 1151.875 34.533 1151.875 35.080 1152.040 C 36.393 1150.591 37.707 1149.143 39.021 1147.694 C 38.199 1149.473 37.379 1151.251 36.558 1153.030 M 44.658 1155.175 C 44.658 1149.345 39.951 1144.614 34.095 1144.614 C 28.294 1144.614 23.587 1149.344 23.587 1155.175 C 23.587 1161.006 28.294 1165.736 34.095 1165.736 C 39.896 1165.736 44.658 1161.006 44.658 1155.175 Z"/>
<path fill="#2dffb3" fill-rule="evenodd" stroke="none" d="M 25.010 1145.714 C 20.102 1145.714 15.195 1145.714 10.287 1145.714 C 10.287 1146.722 10.287 1147.730 10.287 1148.739 C 15.195 1148.739 20.102 1148.739 25.010 1148.739 C 25.010 1147.730 25.010 1146.722 25.010 1145.714 Z"/>
<path fill="#2dffb3" fill-rule="evenodd" stroke="none" d="M 25.010 1161.666 C 20.102 1161.665 15.195 1161.665 10.287 1161.666 C 10.287 1162.674 10.287 1163.682 10.287 1164.691 C 15.195 1164.691 20.102 1164.691 25.010 1164.691 C 25.010 1163.682 25.010 1162.674 25.010 1161.666 Z"/>
<path fill="#5600e3" fill-rule="evenodd" stroke="none" d="M 17.730 1150.060 C 17.037 1150.060 16.344 1150.060 15.651 1150.060 C 15.650 1150.830 15.650 1151.600 15.651 1152.370 C 16.344 1152.370 17.037 1152.370 17.730 1152.370 C 17.730 1151.600 17.730 1150.830 17.730 1150.060 Z"/>
<path fill="#5600e3" fill-rule="evenodd" stroke="none" d="M 36.831 1175.307 C 36.831 1175.857 36.339 1176.352 35.791 1176.352 C 34.678 1176.351 33.565 1176.351 32.453 1176.352 C 31.905 1176.352 31.413 1175.912 31.413 1175.307 C 31.413 1174.757 31.851 1174.262 32.453 1174.262 C 33.565 1174.261 34.678 1174.261 35.791 1174.262 C 36.339 1174.262 36.831 1174.702 36.831 1175.307 M 39.349 1135.043 C 39.294 1135.593 38.856 1136.088 38.309 1136.088 C 35.517 1136.088 32.726 1136.088 29.935 1136.088 C 29.388 1136.088 28.895 1135.648 28.895 1135.043 C 28.895 1134.493 29.333 1133.998 29.935 1133.998 C 32.726 1133.998 35.517 1133.998 38.309 1133.998 C 38.911 1133.998 39.349 1134.438 39.349 1135.043 M 26.816 1135.043 C 26.761 1135.318 26.651 1135.593 26.487 1135.758 C 26.268 1135.923 26.049 1136.033 25.776 1136.033 C 25.502 1136.033 25.228 1135.923 25.064 1135.758 C 24.845 1135.538 24.736 1135.318 24.736 1135.043 C 24.736 1134.768 24.845 1134.493 25.064 1134.328 C 25.447 1133.943 26.104 1133.943 26.542 1134.328 C 26.761 1134.548 26.816 1134.768 26.816 1135.043 M 52.539 1134.493 C 52.539 1132.238 50.678 1130.367 48.434 1130.367 C 38.892 1130.367 29.351 1130.367 19.810 1130.367 C 17.511 1130.367 15.651 1132.238 15.651 1134.493 C 15.650 1137.793 15.650 1141.093 15.651 1144.394 C 16.344 1144.394 17.037 1144.394 17.730 1144.394 C 17.730 1142.835 17.730 1141.277 17.730 1139.718 C 28.658 1139.718 39.586 1139.718 50.514 1139.718 C 50.513 1150.004 50.513 1160.290 50.514 1170.577 C 39.586 1170.576 28.658 1170.576 17.730 1170.577 C 17.730 1169.017 17.730 1167.459 17.730 1165.901 C 17.037 1165.901 16.344 1165.901 15.651 1165.901 C 15.650 1169.201 15.650 1172.501 15.651 1175.802 C 15.651 1178.112 17.511 1179.927 19.755 1179.927 C 29.315 1179.927 38.874 1179.927 48.434 1179.927 C 50.678 1179.927 52.539 1178.057 52.539 1175.802 C 52.538 1174.408 52.538 1173.015 52.539 1171.621 C 52.538 1160.657 52.538 1149.692 52.539 1138.728 C 52.538 1137.316 52.538 1135.905 52.539 1134.493 Z"/>
<path fill="#5600e3" fill-rule="evenodd" stroke="none" d="M 17.730 1157.981 C 17.037 1157.980 16.344 1157.980 15.651 1157.981 C 15.650 1158.750 15.650 1159.521 15.651 1160.291 C 16.344 1160.291 17.037 1160.291 17.730 1160.291 C 17.730 1159.521 17.730 1158.750 17.730 1157.981 Z"/>
<path fill="#2dffb3" fill-rule="evenodd" stroke="none" d="M 21.616 1153.690 C 16.709 1153.690 11.801 1153.690 6.894 1153.690 C 6.894 1154.698 6.894 1155.707 6.894 1156.715 C 11.801 1156.715 16.709 1156.715 21.616 1156.715 C 21.616 1155.707 21.616 1154.698 21.616 1153.690 Z"/>
<path fill="#5600e3" fill-rule="evenodd" stroke="none" d="M 51.575 1079.339 C 51.575 1080.209 50.881 1080.905 50.013 1080.905 C 43.709 1080.905 37.406 1080.905 31.102 1080.905 C 30.235 1080.905 29.541 1080.209 29.541 1079.339 C 29.541 1078.469 30.235 1077.772 31.102 1077.772 C 37.406 1077.772 43.709 1077.772 50.013 1077.772 C 50.881 1077.772 51.575 1078.469 51.575 1079.339 M 26.418 1079.339 C 26.418 1080.209 25.724 1080.905 24.857 1080.905 C 23.989 1080.905 23.295 1080.209 23.295 1079.339 C 23.295 1078.469 23.989 1077.772 24.857 1077.772 C 25.724 1077.772 26.418 1078.469 26.418 1079.339 M 20.057 1079.281 C 20.057 1080.151 19.363 1080.847 18.495 1080.847 C 17.628 1080.847 16.934 1080.151 16.934 1079.281 C 16.934 1078.411 17.628 1077.714 18.495 1077.714 C 19.363 1077.714 20.056 1078.411 20.057 1079.281 M 13.753 1079.281 C 13.753 1080.151 13.059 1080.905 12.191 1080.905 C 11.324 1080.905 10.630 1080.209 10.630 1079.339 C 10.630 1078.469 11.324 1077.714 12.191 1077.714 C 13.059 1077.714 13.753 1078.411 13.753 1079.281 M 56.432 1074.523 C 56.375 1072.725 54.987 1071.333 53.252 1071.333 C 38.504 1071.333 23.758 1071.333 9.011 1071.333 C 7.276 1071.333 5.830 1072.783 5.830 1074.523 C 5.830 1087.190 5.830 1099.856 5.830 1112.523 C 5.830 1114.264 7.276 1115.714 9.011 1115.714 C 9.358 1115.714 9.705 1115.714 10.052 1115.714 C 10.110 1115.656 10.225 1115.656 10.341 1115.598 C 11.131 1114.805 11.922 1114.012 12.712 1113.219 C 12.943 1112.988 12.770 1112.523 12.423 1112.523 C 11.401 1112.523 10.379 1112.523 9.358 1112.523 C 9.126 1112.523 8.953 1112.349 8.953 1112.117 C 8.952 1103.956 8.952 1095.795 8.953 1087.635 C 8.953 1087.403 9.126 1087.229 9.358 1087.229 C 23.835 1087.230 38.312 1087.230 52.789 1087.229 C 53.020 1087.229 53.194 1087.403 53.194 1087.635 C 53.194 1095.815 53.194 1103.995 53.194 1112.175 C 53.194 1112.407 53.020 1112.581 52.789 1112.581 C 43.710 1112.581 36.596 1112.581 26.823 1112.581 C 26.765 1112.581 26.591 1112.639 26.534 1112.697 C 25.743 1113.490 24.953 1114.283 24.163 1115.076 C 23.931 1115.308 24.105 1115.772 24.452 1115.772 C 34.051 1115.771 43.651 1115.772 53.252 1115.772 C 54.987 1115.772 56.432 1114.380 56.432 1112.581 C 56.432 1099.895 56.432 1087.209 56.432 1074.523 Z"/>
<path fill="#2dffb3" fill-rule="evenodd" stroke="none" d="M 30.235 1108.984 C 30.871 1109.623 31.854 1109.623 32.490 1108.984 C 34.822 1106.644 37.155 1104.304 39.488 1101.965 C 41.029 1103.511 42.571 1105.059 44.114 1106.606 C 44.635 1107.128 45.444 1106.780 45.444 1106.026 C 45.444 1102.158 45.444 1098.290 45.444 1094.423 C 45.444 1093.959 45.097 1093.610 44.635 1093.610 C 40.798 1093.610 36.962 1093.610 33.126 1093.610 C 32.432 1093.610 32.085 1094.481 32.548 1094.945 C 34.109 1096.511 35.670 1098.077 37.232 1099.644 C 35.266 1101.636 33.299 1103.628 31.333 1105.620 C 30.601 1104.884 29.868 1104.150 29.136 1103.415 C 28.500 1102.777 27.516 1102.777 26.880 1103.415 C 22.099 1108.211 17.319 1113.006 12.538 1117.803 C 11.902 1118.441 11.902 1119.427 12.538 1120.065 C 13.174 1120.703 14.157 1120.703 14.794 1120.065 C 19.208 1115.636 23.622 1111.208 28.037 1106.780 C 28.769 1107.514 29.502 1108.249 30.235 1108.984 Z"/>
<path fill="#5600e3" fill-rule="evenodd" stroke="none" d="M 21.098 1011.267 C 19.213 1011.267 17.329 1011.267 15.445 1011.267 C 15.445 1012.242 15.445 1013.217 15.445 1014.192 C 17.329 1014.192 19.213 1014.192 21.098 1014.192 C 21.098 1013.217 21.098 1012.242 21.098 1011.267 Z"/>
<path fill="#5600e3" fill-rule="evenodd" stroke="none" d="M 14.035 1017.132 C 13.263 1017.132 12.626 1016.465 12.626 1015.662 C 12.626 1013.707 12.626 1011.752 12.626 1009.797 C 12.626 1008.994 13.263 1008.327 14.035 1008.327 C 16.859 1008.327 19.683 1008.327 22.507 1008.327 C 23.295 1008.327 23.917 1008.979 23.917 1009.797 C 23.916 1011.752 23.916 1013.707 23.917 1015.662 C 23.917 1016.465 23.280 1017.132 22.507 1017.132 C 19.683 1017.132 16.859 1017.132 14.035 1017.132 M 26.751 1015.662 C 26.751 1014.859 27.387 1014.192 28.160 1014.192 C 30.984 1014.192 33.808 1014.192 36.632 1014.192 C 37.420 1014.192 38.041 1014.844 38.041 1015.662 C 38.041 1016.465 37.405 1017.132 36.632 1017.132 C 33.808 1017.132 30.984 1017.132 28.160 1017.132 C 27.387 1017.132 26.751 1016.480 26.751 1015.662 M 26.751 1009.812 C 26.751 1008.994 27.387 1008.342 28.160 1008.342 C 30.984 1008.342 33.808 1008.342 36.632 1008.342 C 37.420 1008.342 38.041 1008.994 38.041 1009.812 C 38.041 1010.615 37.405 1011.282 36.632 1011.282 C 33.808 1011.282 30.984 1011.282 28.160 1011.282 C 27.387 1011.282 26.751 1010.630 26.751 1009.812 M 25.023 1035.818 C 25.028 1035.818 25.033 1035.818 25.038 1035.818 C 25.023 1037.975 25.023 1040.132 25.023 1042.290 C 25.023 1042.714 25.084 1043.108 25.159 1043.502 C 23.805 1043.502 22.452 1043.502 21.098 1043.502 C 17.471 1043.502 13.843 1043.502 10.216 1043.502 C 8.625 1043.502 7.291 1042.335 6.988 1040.774 C 6.958 1040.562 6.928 1040.335 6.928 1040.092 C 6.928 1034.394 6.928 1028.695 6.928 1022.997 C 6.928 1017.299 6.928 1011.600 6.928 1005.902 C 6.928 1004.008 8.413 1002.477 10.231 1002.477 C 20.284 1002.477 30.337 1002.477 40.390 1002.477 C 42.209 1002.477 43.694 1004.023 43.694 1005.902 C 43.694 1010.378 43.694 1014.854 43.694 1019.329 C 41.340 1019.329 38.986 1019.329 36.632 1019.329 C 34.641 1019.329 32.651 1019.329 30.661 1019.329 C 25.280 1019.329 19.900 1019.329 14.520 1019.329 C 13.747 1019.329 13.111 1019.996 13.111 1020.799 C 13.111 1021.618 13.747 1022.270 14.520 1022.270 C 18.274 1022.270 22.027 1022.270 25.781 1022.270 C 25.326 1023.088 25.038 1024.043 25.038 1025.058 C 25.038 1025.356 25.038 1025.654 25.038 1025.952 C 21.532 1025.952 18.026 1025.952 14.520 1025.952 C 13.747 1025.952 13.111 1026.619 13.111 1027.422 C 13.111 1028.241 13.748 1028.893 14.520 1028.893 C 18.026 1028.892 21.532 1028.892 25.038 1028.893 C 25.038 1030.221 25.038 1031.549 25.038 1032.878 C 21.532 1032.878 18.026 1032.878 14.520 1032.878 C 13.747 1032.878 13.111 1033.545 13.111 1034.349 C 13.111 1035.167 13.747 1035.818 14.520 1035.818 C 18.026 1035.818 21.532 1035.818 25.038 1035.818 Z"/>
<path fill="#2dffb3" fill-rule="evenodd" stroke="none" d="M 49.893 1030.438 C 49.893 1031.332 49.196 1032.060 48.332 1032.060 C 44.174 1032.060 40.016 1032.060 35.859 1032.060 C 34.995 1032.060 34.298 1031.332 34.298 1030.438 C 34.298 1029.544 34.995 1028.817 35.859 1028.817 C 40.016 1028.816 44.174 1028.816 48.332 1028.817 C 49.196 1028.817 49.893 1029.544 49.893 1030.438 M 46.468 1036.910 C 46.453 1037.804 45.755 1038.531 44.907 1038.531 C 41.896 1038.531 38.885 1038.531 35.874 1038.531 C 35.010 1038.531 34.313 1037.804 34.313 1036.910 C 34.313 1036.015 35.010 1035.288 35.874 1035.288 C 38.885 1035.288 41.896 1035.288 44.907 1035.288 C 45.771 1035.288 46.468 1036.015 46.468 1036.910 M 56.122 1025.058 C 56.122 1023.573 54.955 1022.361 53.530 1022.361 C 45.907 1022.360 38.284 1022.360 30.661 1022.361 C 29.221 1022.361 28.069 1023.573 28.069 1025.058 C 28.069 1030.802 28.069 1036.546 28.069 1042.290 C 28.069 1043.775 29.236 1044.987 30.661 1044.987 C 31.873 1044.987 33.085 1044.987 34.298 1044.987 C 34.298 1046.674 34.298 1048.361 34.298 1050.049 C 34.298 1051.534 36.056 1052.216 37.011 1051.140 C 38.829 1049.089 40.648 1047.038 42.467 1044.987 C 46.154 1044.987 49.842 1044.987 53.530 1044.987 C 54.970 1044.987 56.122 1043.775 56.122 1042.290 C 56.121 1036.546 56.121 1030.802 56.122 1025.058 Z"/>
<path fill="#5600e3" fill-rule="evenodd" stroke="none" d="M 35.774 960.398 C 35.774 962.160 35.774 963.868 35.774 965.643 C 36.009 965.656 36.219 965.678 36.430 965.680 C 37.348 965.683 38.268 965.652 39.184 965.691 C 40.101 965.728 40.792 966.527 40.772 967.448 C 40.753 968.349 40.060 969.132 39.177 969.137 C 35.764 969.157 32.350 969.157 28.937 969.137 C 28.055 969.132 27.364 968.344 27.349 967.442 C 27.332 966.517 28.027 965.722 28.944 965.695 C 30.056 965.661 31.170 965.687 32.329 965.687 C 32.329 963.885 32.329 962.163 32.329 960.508 C 31.028 960.118 29.718 959.828 28.483 959.339 C 22.815 957.090 18.880 951.095 18.966 944.944 C 18.980 943.901 19.676 943.134 20.618 943.121 C 21.565 943.107 22.259 943.836 22.319 944.894 C 22.345 945.367 22.377 945.842 22.425 946.313 C 23.110 953.115 29.578 958.092 36.063 956.812 C 41.754 955.688 45.630 950.989 45.803 945.006 C 45.837 943.849 46.513 943.101 47.510 943.121 C 48.494 943.139 49.158 943.930 49.155 945.074 C 49.127 952.453 43.678 959.061 36.651 960.234 C 36.376 960.280 36.103 960.336 35.774 960.398 Z"/>
<path fill="#5600e3" fill-rule="evenodd" stroke="none" d="M 42.452 932.057 C 42.452 931.624 42.452 931.191 42.452 930.758 C 42.452 928.213 40.440 926.131 37.981 926.131 C 35.734 926.131 33.486 926.131 31.240 926.131 C 31.239 928.106 31.239 930.082 31.240 932.057 C 34.977 932.057 38.714 932.057 42.452 932.057 Z"/>
<path fill="#5600e3" fill-rule="evenodd" stroke="none" d="M 32.120 939.323 C 32.628 941.074 32.049 942.921 30.644 944.030 C 29.902 944.616 29.020 944.926 28.096 944.926 C 27.434 944.926 26.782 944.762 26.192 944.449 C 26.019 944.449 25.846 944.449 25.672 944.449 C 25.674 944.625 25.674 944.801 25.676 944.978 C 25.737 949.717 29.471 953.526 34.045 953.530 C 38.621 953.534 42.370 949.738 42.425 944.997 C 42.428 944.815 42.429 944.633 42.430 944.450 C 41.488 944.450 40.547 944.450 39.605 944.450 C 38.978 944.450 38.464 943.919 38.464 943.270 C 38.464 942.620 38.978 942.089 39.605 942.089 C 40.552 942.088 41.499 942.088 42.447 942.089 C 42.449 941.431 42.450 940.771 42.449 940.113 C 41.501 940.113 40.553 940.113 39.605 940.113 C 38.978 940.113 38.464 939.582 38.464 938.932 C 38.464 938.283 38.978 937.751 39.605 937.751 C 40.554 937.751 41.503 937.751 42.452 937.751 C 42.451 936.932 42.451 936.114 42.452 935.295 C 38.714 935.295 34.976 935.295 31.239 935.295 C 31.239 935.625 31.239 935.955 31.239 936.285 C 31.533 937.297 31.826 938.310 32.120 939.323 Z"/>
<path fill="#2dffb3" fill-rule="evenodd" stroke="none" d="M 24.309 928.768 C 24.309 929.456 23.771 930.013 23.106 930.013 C 20.967 930.013 18.828 930.013 16.688 930.013 C 16.024 930.013 15.485 929.456 15.485 928.768 C 15.485 928.080 16.024 927.523 16.688 927.523 C 18.827 927.523 20.966 927.523 23.105 927.523 C 23.770 927.523 24.309 928.080 24.309 928.768 M 22.384 934.746 C 22.384 935.434 21.846 935.991 21.181 935.991 C 20.325 935.991 19.469 935.991 18.614 935.991 C 17.949 935.991 17.410 935.434 17.410 934.746 C 17.410 934.058 17.949 933.501 18.614 933.501 C 19.469 933.500 20.325 933.500 21.181 933.501 C 21.846 933.501 22.384 934.058 22.384 934.746 M 29.557 942.554 C 30.359 941.917 30.691 940.859 30.400 939.857 C 30.081 938.756 29.762 937.656 29.443 936.555 C 29.443 932.991 29.443 929.427 29.443 925.863 C 29.443 923.802 27.824 922.127 25.834 922.127 C 21.823 922.127 17.812 922.127 13.801 922.127 C 11.810 922.127 10.191 923.802 10.191 925.863 C 10.191 929.765 10.191 933.667 10.191 937.569 C 10.191 939.629 11.810 941.305 13.801 941.305 C 17.430 941.305 21.058 941.305 24.687 941.305 C 25.398 941.765 26.109 942.225 26.821 942.686 C 27.217 942.942 27.658 943.069 28.098 943.069 C 28.612 943.069 29.123 942.897 29.557 942.554 Z"/>
<path fill="#5600e3" fill-rule="evenodd" stroke="none" d="M 3.454 902.708 C 3.454 903.722 4.226 904.569 5.194 904.569 C 22.178 904.569 39.162 904.569 56.146 904.569 C 57.114 904.569 57.916 903.722 57.916 902.708 C 57.915 902.103 57.915 901.498 57.916 900.893 C 39.762 900.893 21.608 900.893 3.454 900.893 C 3.454 901.498 3.454 902.103 3.454 902.708 Z"/>
<path fill="#5600e3" fill-rule="evenodd" stroke="none" d="M 22.712 882.331 C 25.496 882.331 27.750 879.971 27.750 877.051 C 27.750 874.131 25.496 871.771 22.712 871.771 C 19.929 871.771 17.675 874.131 17.675 877.051 C 17.675 879.971 19.929 882.331 22.712 882.331 Z"/>
<path fill="#5600e3" fill-rule="evenodd" stroke="none" d="M 25.224 884.101 C 23.544 884.100 21.865 884.100 20.186 884.101 C 15.738 884.101 13.454 887.141 13.454 890.712 C 13.454 891.004 13.454 891.296 13.454 891.589 C 13.454 891.831 13.635 892.028 13.877 892.028 C 19.757 892.027 25.637 892.027 31.517 892.028 C 31.744 892.028 31.941 891.831 31.941 891.589 C 31.940 891.296 31.940 891.004 31.941 890.712 C 31.956 887.141 29.671 884.101 25.224 884.101 Z"/>
<path fill="#5600e3" fill-rule="evenodd" stroke="none" d="M 48.748 883.753 C 44.118 883.752 39.489 883.752 34.860 883.753 C 34.860 884.680 34.860 885.608 34.860 886.536 C 39.489 886.536 44.118 886.536 48.748 886.536 C 48.747 885.608 48.747 884.680 48.748 883.753 Z"/>
<path fill="#5600e3" fill-rule="evenodd" stroke="none" d="M 48.748 878.488 C 44.118 878.488 39.489 878.488 34.860 878.488 C 34.860 879.416 34.860 880.344 34.860 881.272 C 39.489 881.272 44.118 881.272 48.748 881.272 C 48.747 880.344 48.747 879.416 48.748 878.488 Z"/>
<path fill="#5600e3" fill-rule="evenodd" stroke="none" d="M 48.748 889.002 C 44.118 889.002 39.489 889.002 34.860 889.002 C 34.860 889.930 34.860 890.858 34.860 891.786 C 39.489 891.785 44.118 891.785 48.748 891.786 C 48.747 890.858 48.747 889.930 48.748 889.002 Z"/>
<path fill="#5600e3" fill-rule="evenodd" stroke="none" d="M 51.744 894.796 C 51.744 895.280 51.350 895.734 50.896 895.734 C 37.422 895.734 23.948 895.734 10.474 895.734 C 9.975 895.734 9.581 895.296 9.581 894.796 C 9.582 884.973 9.581 875.150 9.581 865.327 C 9.581 864.797 9.975 864.389 10.474 864.389 C 19.253 864.389 28.032 864.389 36.812 864.389 C 37.130 863.057 37.674 861.817 38.416 860.697 C 29.308 860.697 20.201 860.697 11.094 860.697 C 8.356 860.697 6.072 863.042 6.072 865.962 C 6.072 876.799 6.072 887.635 6.072 898.472 C 6.072 898.957 6.465 899.410 6.964 899.410 C 22.773 899.410 38.582 899.410 54.391 899.410 C 54.845 899.410 55.238 898.972 55.238 898.472 C 55.238 890.847 55.238 883.223 55.238 875.599 C 54.209 876.461 53.014 877.157 51.728 877.611 C 51.728 883.339 51.728 889.067 51.728 894.796 C 51.733 894.796 51.738 894.796 51.744 894.796 Z"/>
<path fill="#2dffb3" fill-rule="evenodd" stroke="none" d="M 46.811 869.487 C 48.107 868.650 49.403 867.813 50.699 866.976 C 49.403 866.138 48.107 865.301 46.811 864.464 C 46.811 866.138 46.811 867.813 46.811 869.487 Z"/>
<path fill="#2dffb3" fill-rule="evenodd" stroke="none" d="M 52.848 866.204 C 53.438 866.582 53.438 867.384 52.863 867.747 C 50.689 869.149 48.516 870.551 46.343 871.953 C 45.737 872.316 44.905 871.877 44.905 871.181 C 44.905 868.377 44.905 865.574 44.905 862.770 C 44.905 861.998 45.813 861.590 46.418 862.044 C 48.561 863.431 50.704 864.817 52.848 866.204 M 56.267 866.976 C 56.267 862.407 52.485 858.685 47.871 858.685 C 43.241 858.685 39.520 862.407 39.520 866.976 C 39.520 871.544 43.241 875.266 47.871 875.266 C 52.500 875.266 56.267 871.544 56.267 866.976 Z"/>
<path fill="#2dffb3" fill-rule="evenodd" stroke="none" d="M 17.324 824.884 C 15.185 824.446 13.581 822.745 13.581 820.724 C 14.294 820.724 15.007 820.724 15.720 820.724 C 15.720 821.885 16.960 822.863 18.425 822.863 C 19.741 822.863 21.067 822.205 21.067 820.944 C 21.067 819.676 18.960 818.831 18.051 818.527 C 14.356 817.291 13.581 815.431 13.581 814.089 C 13.581 812.078 15.131 810.506 17.324 810.121 C 17.324 809.556 17.324 808.991 17.324 808.426 C 18.037 808.426 18.749 808.426 19.462 808.426 C 19.462 809.000 19.462 809.574 19.462 810.148 C 21.601 810.592 23.205 812.287 23.205 814.308 C 22.492 814.308 21.779 814.308 21.067 814.308 C 21.067 813.148 19.826 812.169 18.361 812.169 C 17.051 812.169 15.720 812.827 15.720 814.089 C 15.720 815.356 17.826 816.201 18.735 816.505 C 22.430 817.746 23.205 819.607 23.205 820.949 C 23.205 822.959 21.655 824.531 19.462 824.916 C 19.462 825.479 19.462 826.042 19.462 826.606 C 18.749 826.606 18.037 826.606 17.324 826.606 C 17.324 826.032 17.324 825.458 17.324 824.884 M 18.393 829.814 C 25.184 829.814 30.691 824.307 30.691 817.516 C 30.691 810.725 25.184 805.218 18.393 805.218 C 11.602 805.218 6.095 810.725 6.095 817.516 C 6.100 824.307 11.602 829.809 18.393 829.814 Z"/>
<path fill="#5600e3" fill-rule="evenodd" stroke="none" d="M 47.668 802.684 C 49.309 803.630 49.871 805.731 48.924 807.378 C 47.978 809.020 45.877 809.587 44.230 808.635 C 42.588 807.688 42.021 805.587 42.973 803.940 C 43.920 802.299 46.021 801.732 47.668 802.684 M 52.464 820.676 C 54.427 817.281 54.400 815.468 54.004 812.720 C 53.476 809.037 52.949 805.355 52.421 801.673 C 52.325 800.983 52.069 800.326 51.678 799.753 C 50.892 798.588 49.609 797.844 48.203 797.748 C 47.508 797.695 46.812 797.807 46.171 798.064 C 42.716 799.447 39.262 800.830 35.808 802.213 C 33.231 803.245 31.647 804.127 29.686 807.523 C 29.664 807.558 29.643 807.594 29.622 807.630 C 35.094 813.825 34.498 823.280 28.306 828.745 C 24.842 831.798 20.163 833.087 15.623 832.226 C 15.420 833.354 15.944 834.488 16.933 835.065 C 22.952 838.540 28.971 842.016 34.990 845.492 C 36.295 846.246 37.963 845.797 38.717 844.487 C 43.299 836.549 47.881 828.613 52.464 820.676 Z"/>
<path fill="#2dffb3" fill-rule="evenodd" stroke="none" d="M 30.217 746.160 C 30.217 749.068 30.217 751.975 30.217 754.882 C 30.217 755.685 30.868 756.336 31.670 756.336 C 37.485 756.336 43.299 756.336 49.114 756.336 C 49.917 756.336 50.568 755.685 50.568 754.882 C 50.568 751.975 50.568 749.068 50.568 746.160 C 50.568 745.358 49.917 744.707 49.114 744.707 C 43.299 744.706 37.485 744.706 31.670 744.707 C 30.868 744.707 30.217 745.358 30.217 746.160 Z"/>
<path fill="#5600e3" fill-rule="evenodd" stroke="none" d="M 43.300 767.965 C 41.361 767.965 39.423 767.965 37.485 767.965 C 36.682 767.965 36.032 768.616 36.032 769.419 C 36.031 771.357 36.031 773.295 36.032 775.234 C 36.031 776.037 36.682 776.688 37.485 776.688 C 39.423 776.687 41.361 776.687 43.300 776.688 C 44.103 776.688 44.754 776.037 44.754 775.234 C 44.753 773.295 44.753 771.357 44.754 769.419 C 44.754 768.616 44.103 767.965 43.300 767.965 Z"/>
<path fill="#5600e3" fill-rule="evenodd" stroke="none" d="M 36.580 728.523 C 36.580 727.720 35.930 727.069 35.127 727.069 C 33.673 727.069 32.219 727.069 30.766 727.069 C 30.766 729.007 30.766 730.945 30.766 732.884 C 32.704 732.883 34.642 732.883 36.580 732.884 C 36.580 731.430 36.580 729.976 36.580 728.523 Z"/>
<path fill="#5600e3" fill-rule="evenodd" stroke="none" d="M 27.859 727.069 C 21.312 727.069 14.765 727.069 8.218 727.069 C 7.415 727.069 6.764 727.720 6.764 728.523 C 6.764 729.976 6.764 731.430 6.764 732.884 C 13.796 732.883 20.827 732.883 27.859 732.884 C 27.859 730.945 27.859 729.007 27.859 727.069 Z"/>
<path fill="#5600e3" fill-rule="evenodd" stroke="none" d="M 22.946 743.156 C 22.946 743.959 22.295 744.610 21.492 744.610 C 18.521 744.610 15.550 744.610 12.579 744.610 C 11.776 744.610 11.125 743.959 11.125 743.156 C 11.125 742.353 11.776 741.703 12.579 741.703 C 15.550 741.702 18.521 741.702 21.492 741.703 C 22.295 741.703 22.946 742.353 22.946 743.156 M 22.946 748.971 C 22.946 749.774 22.295 750.425 21.492 750.425 C 18.521 750.424 15.550 750.424 12.579 750.425 C 11.776 750.425 11.125 749.774 11.125 748.971 C 11.125 748.168 11.776 747.517 12.579 747.517 C 15.550 747.517 18.521 747.517 21.492 747.517 C 22.295 747.517 22.946 748.168 22.946 748.971 M 22.946 754.786 C 22.946 755.588 22.295 756.239 21.492 756.239 C 18.521 756.239 15.550 756.239 12.579 756.239 C 11.776 756.239 11.125 755.588 11.125 754.786 C 11.125 753.983 11.776 753.332 12.579 753.332 C 15.550 753.332 18.521 753.332 21.492 753.332 C 22.295 753.332 22.946 753.983 22.946 754.786 M 35.127 762.151 C 35.930 762.151 36.581 761.500 36.581 760.697 C 36.580 760.212 36.580 759.728 36.581 759.243 C 34.944 759.243 33.307 759.243 31.670 759.243 C 29.266 759.243 27.310 757.287 27.310 754.882 C 27.309 751.975 27.309 749.068 27.310 746.160 C 27.310 743.756 29.266 741.799 31.670 741.799 C 33.307 741.799 34.944 741.799 36.581 741.799 C 36.580 739.796 36.580 737.794 36.581 735.791 C 26.642 735.791 16.703 735.791 6.764 735.791 C 6.764 744.093 6.764 752.395 6.764 760.697 C 6.764 761.500 7.415 762.151 8.218 762.151 C 17.188 762.150 26.157 762.150 35.127 762.151 Z"/>
<path fill="#2dffb3" fill-rule="evenodd" stroke="none" d="M 53.476 749.318 C 53.475 752.141 53.475 754.965 53.476 757.790 C 53.476 758.591 52.824 759.243 52.022 759.243 C 49.114 759.243 46.207 759.243 43.300 759.243 C 40.895 759.243 38.939 761.200 38.939 763.604 C 38.939 764.089 38.939 764.573 38.939 765.058 C 39.908 765.058 40.877 765.058 41.846 765.058 C 41.846 764.573 41.846 764.089 41.846 763.604 C 41.846 762.803 42.498 762.151 43.300 762.151 C 46.207 762.150 49.114 762.150 52.022 762.151 C 54.427 762.151 56.383 760.195 56.383 757.790 C 56.382 756.336 56.382 754.882 56.383 753.429 C 56.383 751.534 55.168 749.918 53.476 749.318 Z"/>
<path fill="#5600e3" fill-rule="evenodd" stroke="none" d="M 43.767 671.985 C 43.766 676.730 43.766 681.476 43.767 686.222 C 39.659 688.594 35.552 690.967 31.445 693.341 C 27.337 690.967 23.230 688.594 19.123 686.222 C 19.123 681.476 19.123 676.730 19.123 671.985 C 23.230 669.612 27.337 667.239 31.445 664.866 C 35.552 667.239 39.659 669.612 43.767 671.985 M 54.868 662.528 C 39.049 662.527 23.230 662.527 7.411 662.528 C 7.411 671.567 7.411 680.606 7.411 689.646 C 7.411 692.442 9.699 694.731 12.496 694.731 C 24.925 694.730 37.354 694.730 49.784 694.731 C 52.580 694.731 54.868 692.442 54.868 689.646 C 54.868 680.606 54.868 671.567 54.868 662.528 Z"/>
<path fill="#2dffb3" fill-rule="evenodd" stroke="none" d="M 31.444 678.077 C 34.259 676.455 37.074 674.834 39.890 673.213 C 37.074 671.617 34.259 670.021 31.444 668.426 C 28.623 670.021 25.803 671.617 22.982 673.213 C 25.803 674.834 28.623 676.455 31.444 678.077 Z"/>
<path fill="#2dffb3" fill-rule="evenodd" stroke="none" d="M 22.040 684.407 C 24.881 686.023 27.722 687.639 30.564 689.256 C 30.563 686.033 30.563 682.811 30.564 679.590 C 27.722 677.953 24.881 676.316 22.040 674.680 C 22.040 677.922 22.040 681.164 22.040 684.407 Z"/>
<path fill="#2dffb3" fill-rule="evenodd" stroke="none" d="M 32.309 689.256 C 35.150 687.639 37.991 686.023 40.833 684.407 C 40.832 681.164 40.832 677.922 40.833 674.680 C 37.991 676.316 35.150 677.953 32.309 679.590 C 32.309 682.811 32.309 686.033 32.309 689.256 Z"/>
<path fill="#5600e3" fill-rule="evenodd" stroke="none" d="M 20.886 652.612 C 20.886 653.680 20.021 654.528 18.971 654.528 C 17.920 654.528 17.055 653.680 17.055 652.612 C 17.055 651.545 17.903 650.697 18.971 650.697 C 20.021 650.697 20.886 651.545 20.886 652.612 M 15.394 652.612 C 15.394 653.680 14.530 654.528 13.479 654.528 C 12.428 654.528 11.564 653.680 11.564 652.612 C 11.564 651.545 12.411 650.697 13.479 650.697 C 14.547 650.697 15.394 651.545 15.394 652.612 M 54.868 652.358 C 54.868 649.562 52.580 647.274 49.784 647.274 C 37.354 647.274 24.925 647.274 12.496 647.274 C 9.699 647.274 7.411 649.562 7.411 652.358 C 7.411 654.053 7.411 655.748 7.411 657.443 C 23.230 657.443 39.049 657.443 54.868 657.443 C 54.868 655.748 54.868 654.053 54.868 652.358 Z"/>
<path fill="#ffffff" fill-rule="evenodd" stroke="none" d="M 13.479 654.528 C 14.537 654.528 15.394 653.670 15.394 652.612 C 15.394 651.555 14.537 650.697 13.479 650.697 C 12.421 650.697 11.564 651.555 11.564 652.612 C 11.564 653.670 12.421 654.528 13.479 654.528 Z"/>
<path fill="#ffffff" fill-rule="evenodd" stroke="none" d="M 18.971 654.528 C 20.028 654.528 20.886 653.670 20.886 652.612 C 20.886 651.555 20.028 650.697 18.971 650.697 C 17.913 650.697 17.055 651.555 17.055 652.612 C 17.055 653.670 17.913 654.528 18.971 654.528 Z"/>
<path fill="#5600e3" fill-rule="evenodd" stroke="none" d="M 39.544 598.610 C 38.459 598.025 37.141 598.103 36.134 598.845 C 35.307 599.495 34.480 600.145 33.654 600.796 C 33.305 601.070 32.879 601.109 32.492 600.953 C 31.949 600.718 31.407 600.445 30.864 600.172 C 28.462 598.884 26.641 597.634 24.742 595.722 C 22.805 593.770 20.790 591.193 19.550 588.773 C 19.279 588.227 19.007 587.680 18.775 587.134 C 18.620 586.743 18.659 586.275 18.930 585.963 C 19.576 585.130 20.221 584.297 20.867 583.464 C 21.603 582.449 21.681 581.083 21.100 580.029 C 20.983 579.834 16.605 573.939 16.489 573.822 C 15.133 572.378 12.769 572.495 11.568 574.135 C 10.560 575.384 9.553 576.633 8.545 577.882 C 3.004 584.557 9.669 592.755 14.241 597.751 C 14.861 598.415 16.450 600.055 18.077 601.694 C 19.666 603.295 21.294 604.934 21.991 605.559 C 26.912 610.126 35.049 616.879 41.675 611.297 C 42.914 610.282 44.154 609.267 45.395 608.252 C 47.022 607.042 47.138 604.661 45.705 603.295 C 45.550 603.100 39.737 598.688 39.544 598.610 Z"/>
<path fill="#2dffb3" fill-rule="evenodd" stroke="none" d="M 52.641 565.117 C 44.633 565.117 36.625 565.117 28.617 565.117 C 27.494 565.117 26.564 566.054 26.564 567.186 C 26.563 572.937 26.563 578.689 26.564 584.440 C 26.564 585.572 27.494 586.509 28.617 586.509 C 29.818 586.509 31.019 586.509 32.221 586.509 C 32.492 588.188 32.221 589.905 31.485 591.428 C 34.119 590.686 36.328 589.007 37.839 586.704 C 37.878 586.652 37.916 586.600 37.956 586.548 C 42.863 586.549 47.771 586.548 52.680 586.548 C 53.803 586.548 54.733 585.611 54.733 584.479 C 54.733 581.864 54.733 579.248 54.733 576.633 C 54.733 575.436 54.733 574.239 54.733 573.042 C 54.733 571.090 54.733 569.138 54.733 567.186 C 54.656 566.054 53.765 565.117 52.641 565.117 Z"/>
<path fill="#2dffb3" fill-rule="evenodd" stroke="none" d="M 31.563 543.571 C 28.223 543.571 24.884 543.575 21.544 543.569 C 19.924 543.568 19.310 542.936 19.306 541.272 C 19.300 538.450 19.288 535.630 19.300 532.807 C 19.323 527.372 23.139 523.410 28.344 523.401 C 30.570 523.398 32.797 523.396 35.023 523.408 C 39.976 523.436 43.798 527.395 43.852 532.580 C 43.882 535.518 43.865 538.457 43.857 541.394 C 43.852 542.890 43.197 543.564 41.749 543.568 C 38.354 543.576 34.960 543.571 31.563 543.571 Z"/>
<path fill="#5600e3" fill-rule="evenodd" stroke="none" d="M 21.199 512.426 C 20.768 515.530 21.452 518.245 23.126 520.792 C 18.502 523.223 16.045 527.122 15.758 532.579 C 14.023 532.579 12.335 532.579 10.647 532.579 C 10.007 532.579 9.366 532.610 8.728 532.568 C 7.815 532.507 7.063 531.842 7.065 530.929 C 7.073 527.241 6.910 523.529 7.260 519.872 C 7.648 515.837 11.276 512.638 15.187 512.444 C 17.153 512.346 19.125 512.426 21.199 512.426 Z"/>
<path fill="#5600e3" fill-rule="evenodd" stroke="none" d="M 40.088 520.830 C 42.095 516.696 42.236 516.086 42.007 512.498 C 42.184 512.470 42.366 512.412 42.546 512.416 C 44.630 512.451 46.742 512.281 48.790 512.582 C 53.093 513.214 56.100 517.032 56.127 521.588 C 56.144 524.525 56.135 527.461 56.129 530.399 C 56.125 531.860 55.479 532.561 54.110 532.573 C 52.134 532.589 50.159 532.586 48.185 532.584 C 47.941 532.584 47.698 532.547 47.409 532.524 C 47.105 527.166 44.712 523.255 40.088 520.830 Z"/>
<path fill="#2dffb3" fill-rule="evenodd" stroke="none" d="M 31.545 521.574 C 27.693 521.560 24.565 518.266 24.570 514.228 C 24.575 510.192 27.714 506.918 31.578 506.916 C 35.474 506.915 38.620 510.227 38.595 514.306 C 38.572 518.333 35.414 521.588 31.545 521.574 Z"/>
<path fill="#5600e3" fill-rule="evenodd" stroke="none" d="M 43.845 510.576 C 39.990 510.569 36.810 507.250 36.839 503.258 C 36.865 499.160 39.988 495.915 43.910 495.912 C 47.733 495.908 50.885 499.247 50.869 503.281 C 50.852 507.319 47.709 510.583 43.845 510.576 Z"/>
<path fill="#5600e3" fill-rule="evenodd" stroke="none" d="M 12.298 503.227 C 12.307 499.188 15.443 495.920 19.312 495.922 C 23.218 495.922 26.329 499.205 26.323 503.317 C 26.319 507.283 23.149 510.585 19.354 510.580 C 15.423 510.573 12.290 507.307 12.298 503.227 Z"/>
<path fill="#5600e3" fill-rule="evenodd" stroke="none" d="M 28.443 468.243 C 27.701 467.515 26.635 467.313 25.705 467.627 C 26.127 466.567 25.905 465.323 25.038 464.471 C 24.176 463.624 22.922 463.400 21.849 463.798 C 22.152 462.795 21.901 461.668 21.096 460.878 C 20.115 459.914 18.621 459.757 17.475 460.407 C 17.862 459.364 17.634 458.148 16.779 457.313 C 15.609 456.164 13.710 456.158 12.535 457.307 C 12.210 457.570 11.885 457.834 11.560 458.097 C 10.385 459.247 10.385 461.113 11.554 462.268 C 12.330 463.030 13.431 463.288 14.423 463.041 C 13.602 464.191 13.710 465.788 14.754 466.814 C 15.917 467.963 17.805 467.968 18.980 466.831 C 18.815 467.744 19.094 468.720 19.813 469.426 C 20.720 470.323 22.072 470.519 23.178 470.026 C 22.904 470.911 23.127 471.909 23.840 472.610 C 24.872 473.624 26.543 473.624 27.576 472.615 C 27.863 472.383 28.150 472.151 28.437 471.920 C 29.475 470.900 29.475 469.258 28.443 468.243 Z"/>
<path fill="#5600e3" fill-rule="evenodd" stroke="none" d="M 38.407 438.166 C 36.565 439.774 32.521 436.350 29.441 437.431 C 27.553 438.093 27.051 438.687 26.515 439.236 C 23.843 442.013 21.172 444.789 18.501 447.566 C 17.047 448.995 17.047 451.316 18.501 452.745 C 19.956 454.174 22.317 454.174 23.771 452.745 C 25.408 451.263 27.045 449.782 28.682 448.300 C 31.015 449.315 38.139 451.389 42.536 448.838 C 44.614 450.891 46.692 452.945 48.770 454.998 C 49.364 452.650 48.839 451.568 49.706 450.716 C 51.252 449.197 54.423 446.069 54.423 446.069 C 50.468 442.183 46.513 438.296 42.559 434.410 C 42.559 434.416 40.249 436.557 38.407 438.166 Z"/>
<path fill="#5600e3" fill-rule="evenodd" stroke="none" d="M 42.057 450.642 C 37.032 452.716 30.622 450.514 28.985 449.914 C 27.574 451.192 26.163 452.470 24.752 453.748 C 23.783 454.690 20.366 456.522 17.509 453.725 C 14.651 450.928 16.533 447.554 17.492 446.601 C 20.189 443.808 22.887 441.014 25.585 438.221 C 24.849 437.991 24.171 437.677 23.680 437.246 C 21.838 435.637 20.418 434.393 20.418 434.393 C 16.463 438.279 12.508 442.165 8.554 446.052 C 8.554 446.052 10.836 448.283 12.381 449.802 C 13.260 450.665 13.163 452.744 13.790 455.138 C 14.931 454.891 16.345 455.048 17.788 456.321 C 18.433 456.954 18.849 457.761 19.003 458.613 C 20.172 458.619 21.273 459.073 22.100 459.886 C 22.756 460.536 23.178 461.354 23.327 462.223 C 24.353 462.313 25.306 462.750 26.042 463.479 C 26.783 464.213 27.222 465.160 27.313 466.152 C 28.118 466.298 28.910 466.690 29.498 467.273 C 32.013 470.087 29.806 472.582 29.218 473.092 C 30.171 474.000 32.293 474.448 33.508 473.484 C 34.797 472.464 35.162 470.810 34.340 469.779 C 34.638 470.141 34.937 470.503 35.236 470.866 C 36.080 471.898 37.820 471.898 39.114 470.872 C 40.409 469.846 40.774 468.176 39.930 467.144 C 40.074 467.322 40.219 467.499 40.363 467.677 C 41.208 468.708 42.947 468.708 44.242 467.683 C 45.537 466.657 45.902 464.986 45.058 463.955 C 44.586 463.379 44.114 462.804 43.643 462.229 C 43.996 462.574 44.350 462.920 44.704 463.266 C 45.793 464.319 48.172 464.415 49.643 462.952 C 51.109 461.489 50.904 459.297 49.814 458.243 C 47.228 455.709 44.643 453.176 42.057 450.642 Z"/>
<path fill="#2dffb3" fill-rule="evenodd" stroke="none" d="M 17.143 433.277 C 17.143 434.062 16.493 434.701 15.695 434.701 C 14.896 434.701 14.246 434.062 14.246 433.277 C 14.246 432.492 14.896 431.853 15.695 431.853 C 16.493 431.853 17.143 432.492 17.143 433.277 M 19.995 433.294 C 18.649 431.934 17.303 430.573 15.957 429.213 C 11.582 433.395 7.208 437.576 2.833 441.758 C 4.181 443.118 5.529 444.478 6.877 445.839 C 11.249 441.657 15.622 437.475 19.995 433.294 Z"/>
<path fill="#2dffb3" fill-rule="evenodd" stroke="none" d="M 48.456 433.277 C 48.456 434.068 47.806 434.701 47.008 434.701 C 46.209 434.701 45.559 434.062 45.559 433.277 C 45.559 432.493 46.209 431.854 47.008 431.854 C 47.806 431.854 48.456 432.493 48.456 433.277 M 59.869 441.764 C 55.494 437.582 51.120 433.401 46.745 429.219 C 45.397 430.579 44.049 431.940 42.701 433.300 C 47.076 437.481 51.450 441.663 55.826 445.845 C 57.173 444.484 58.521 443.124 59.869 441.764 Z"/>
<path fill="#5600e3" fill-rule="evenodd" stroke="none" d="M 19.897 402.899 C 19.897 402.219 20.467 401.668 21.172 401.668 C 21.877 401.668 22.447 402.219 22.447 402.899 C 22.447 403.580 21.877 404.131 21.172 404.131 C 20.467 404.131 19.897 403.580 19.897 402.899 M 7.796 399.825 C 7.796 401.772 7.796 403.720 7.796 405.668 C 7.796 406.180 8.224 406.594 8.755 406.594 C 17.246 406.593 25.738 406.593 34.231 406.594 C 34.761 406.594 35.189 406.180 35.189 405.668 C 35.188 403.720 35.188 401.772 35.189 399.825 C 26.058 399.824 16.927 399.824 7.796 399.825 Z"/>
<path fill="#5600e3" fill-rule="evenodd" stroke="none" d="M 35.189 369.001 C 35.188 367.586 35.188 366.171 35.189 364.756 C 26.058 364.756 16.927 364.756 7.796 364.756 C 7.796 375.831 7.796 386.906 7.796 397.981 C 16.927 397.981 26.058 397.981 35.189 397.981 C 35.188 394.284 35.188 390.587 35.189 386.891 C 33.122 383.357 31.364 379.617 31.364 377.208 C 31.364 374.064 32.757 371.073 35.189 369.001 Z"/>
<path fill="#5600e3" fill-rule="evenodd" stroke="none" d="M 35.189 358.904 C 35.189 358.392 34.761 357.979 34.231 357.979 C 25.738 357.979 17.246 357.979 8.755 357.979 C 8.224 357.979 7.796 358.392 7.796 358.904 C 7.796 360.238 7.796 361.571 7.796 362.905 C 16.927 362.905 26.058 362.905 35.189 362.905 C 35.188 361.571 35.188 360.238 35.189 358.904 Z"/>
<path fill="#2dffb3" fill-rule="evenodd" stroke="none" d="M 46.472 381.986 C 43.651 381.986 41.395 379.775 41.395 377.163 C 41.395 374.484 43.651 372.341 46.472 372.341 C 49.293 372.341 51.550 374.484 51.550 377.163 C 51.550 379.842 49.293 381.986 46.472 381.986 M 44.286 396.052 C 45.273 397.659 47.671 397.659 48.658 396.052 C 51.832 390.827 57.332 381.182 57.332 377.163 C 57.332 371.470 52.466 366.848 46.472 366.848 C 40.478 366.848 35.612 371.470 35.612 377.163 C 35.612 381.182 41.113 390.827 44.286 396.052 Z"/>
<path fill="#5600e3" fill-rule="evenodd" stroke="none" d="M 52.619 297.095 C 52.619 309.727 52.619 322.359 52.619 334.992 C 38.232 334.992 23.845 334.992 9.458 334.992 C 9.458 322.359 9.458 309.727 9.458 297.095 C 23.845 297.095 38.232 297.095 52.619 297.095 M 55.777 293.937 C 39.284 293.937 22.792 293.937 6.300 293.937 C 6.300 308.674 6.300 323.412 6.300 338.150 C 22.792 338.150 39.284 338.150 55.777 338.150 C 55.777 323.412 55.777 308.674 55.777 293.937 Z"/>
<path fill="#5600e3" fill-rule="evenodd" stroke="none" d="M 17.353 328.150 C 15.950 328.149 14.546 328.149 13.142 328.150 C 13.142 328.851 13.142 329.553 13.142 330.255 C 14.546 330.255 15.950 330.255 17.353 330.255 C 17.353 329.553 17.353 328.851 17.353 328.150 Z"/>
<path fill="#5600e3" fill-rule="evenodd" stroke="none" d="M 48.934 328.150 C 39.810 328.149 30.687 328.149 21.564 328.150 C 21.564 328.851 21.564 329.553 21.564 330.255 C 30.687 330.255 39.810 330.255 48.934 330.255 C 48.934 329.553 48.934 328.851 48.934 328.150 Z"/>
<path fill="#5600e3" fill-rule="evenodd" stroke="none" d="M 20.512 326.044 C 19.810 326.043 19.108 326.043 18.406 326.044 C 18.406 328.149 18.406 330.254 18.406 332.360 C 19.108 332.359 19.810 332.359 20.512 332.360 C 20.511 330.254 20.511 328.149 20.512 326.044 Z"/>
<path fill="#2dffb3" fill-rule="evenodd" stroke="none" d="M 48.408 301.306 C 36.828 301.305 25.248 301.305 13.669 301.306 C 13.669 308.674 13.669 316.043 13.669 323.412 C 25.248 323.412 36.828 323.412 48.408 323.412 C 48.408 316.043 48.408 308.674 48.408 301.306 Z"/>
<path fill="#ffffff" fill-rule="evenodd" stroke="none" d="M 36.391 311.168 C 37.311 311.700 37.311 313.027 36.391 313.560 C 34.961 314.384 33.532 315.208 32.103 316.033 C 30.674 316.857 29.245 317.682 27.816 318.506 C 26.895 319.039 25.749 318.371 25.749 317.315 C 25.749 315.663 25.749 314.011 25.749 312.359 C 25.749 310.707 25.749 309.056 25.749 307.404 C 25.749 306.339 26.895 305.680 27.816 306.212 C 29.245 307.037 30.674 307.861 32.103 308.686 C 33.532 309.513 34.961 310.340 36.391 311.168 Z"/>
<path fill="#2dffb3" fill-rule="evenodd" stroke="none" d="M 47.996 254.447 C 49.184 254.447 50.373 254.447 51.562 254.447 C 51.100 250.155 49.382 246.258 46.807 243.088 C 45.970 243.925 45.133 244.761 44.297 245.598 C 43.835 246.060 43.307 246.258 42.712 246.258 C 42.184 246.258 41.590 246.060 41.127 245.598 C 40.269 244.739 40.269 243.352 41.127 242.494 C 41.985 241.679 42.844 240.865 43.703 240.050 C 40.533 237.409 36.570 235.692 32.278 235.295 C 32.277 236.484 32.277 237.673 32.278 238.862 C 32.278 240.050 31.287 241.041 30.098 241.041 C 28.910 241.041 27.919 240.050 27.919 238.862 C 27.919 237.673 27.919 236.484 27.919 235.295 C 23.626 235.758 19.730 237.409 16.560 239.984 C 17.396 240.821 18.233 241.657 19.069 242.494 C 19.928 243.352 19.928 244.739 19.069 245.598 C 18.607 246.060 18.079 246.258 17.484 246.258 C 16.890 246.258 16.362 246.060 15.899 245.598 C 15.063 244.761 14.226 243.925 13.390 243.088 C 10.748 246.258 9.097 250.221 8.635 254.447 C 9.823 254.447 11.012 254.447 12.201 254.447 C 13.390 254.447 14.380 255.438 14.380 256.627 C 14.380 257.816 13.456 258.806 12.201 258.806 C 11.012 258.806 9.823 258.806 8.635 258.806 C 8.899 261.778 9.824 264.552 11.210 266.995 C 15.305 264.090 20.060 262.042 25.343 261.316 C 26.532 256.428 27.721 251.541 28.910 246.655 C 29.240 245.400 31.023 245.400 31.287 246.655 C 32.475 251.541 33.664 256.428 34.853 261.316 C 40.137 262.108 44.892 264.090 48.920 267.061 C 50.373 264.618 51.232 261.778 51.628 258.740 C 50.439 258.740 49.250 258.740 48.062 258.740 C 46.873 258.740 45.882 257.750 45.882 256.561 C 45.816 255.372 46.807 254.447 47.996 254.447 Z"/>
<path fill="#5600e3" fill-rule="evenodd" stroke="none" d="M 45.750 256.560 C 45.816 257.815 46.806 258.806 47.995 258.806 C 49.183 258.806 50.372 258.806 51.561 258.806 C 51.165 261.844 50.306 264.684 48.854 267.127 C 44.825 264.155 40.070 262.174 34.787 261.381 C 33.598 256.494 32.409 251.607 31.220 246.720 C 30.956 245.465 29.173 245.465 28.843 246.720 C 27.654 251.607 26.465 256.494 25.277 261.381 C 19.993 262.174 15.238 264.155 11.144 267.061 C 9.757 264.617 8.832 261.778 8.568 258.872 C 9.757 258.872 10.946 258.872 12.134 258.872 C 13.389 258.872 14.314 257.881 14.314 256.693 C 14.314 255.504 13.389 254.447 12.200 254.447 C 11.012 254.447 9.823 254.447 8.634 254.447 C 9.097 250.154 10.748 246.258 13.389 243.088 C 14.226 243.924 15.062 244.761 15.899 245.598 C 16.361 246.060 16.889 246.258 17.484 246.258 C 18.078 246.258 18.606 246.060 19.069 245.598 C 19.927 244.739 19.927 243.352 19.069 242.494 C 18.232 241.657 17.396 240.820 16.559 239.984 C 19.729 237.408 23.692 235.691 27.918 235.295 C 27.918 236.484 27.918 237.672 27.918 238.861 C 27.918 240.050 28.909 241.041 30.098 241.041 C 31.286 241.041 32.277 240.050 32.277 238.861 C 32.277 237.672 32.277 236.484 32.277 235.295 C 36.570 235.757 40.466 237.408 43.636 239.984 C 42.777 240.798 41.919 241.613 41.061 242.428 C 40.202 243.286 40.202 244.673 41.061 245.532 C 41.523 245.994 42.117 246.192 42.646 246.192 C 43.240 246.192 43.768 245.994 44.231 245.532 C 45.067 244.695 45.903 243.858 46.740 243.022 C 49.316 246.192 51.033 250.154 51.495 254.381 C 50.306 254.381 49.117 254.381 47.929 254.381 C 46.740 254.381 45.750 255.372 45.750 256.560 M 33.268 270.957 C 33.268 272.674 31.881 274.194 30.032 274.194 C 28.249 274.194 26.796 272.741 26.796 270.957 C 26.796 269.174 28.249 267.721 30.032 267.721 C 31.815 267.721 33.268 269.174 33.268 270.957 M 55.986 256.626 C 55.986 242.295 44.429 230.672 30.032 230.672 C 15.701 230.672 4.077 242.295 4.077 256.626 C 4.077 270.957 15.701 282.581 30.032 282.581 C 44.363 282.581 55.986 270.957 55.986 256.626 Z"/>
<path fill="#5600e3" fill-rule="evenodd" stroke="none" d="M 41.355 193.859 C 43.644 193.859 43.517 197.354 41.228 197.163 C 33.746 197.163 26.265 197.163 18.784 197.163 C 16.559 197.290 16.432 193.986 18.594 193.859 C 18.657 193.859 18.721 193.859 18.784 193.859 C 26.265 193.859 33.746 193.859 41.228 193.859 C 41.228 193.859 41.292 193.859 41.355 193.859 M 18.784 190.555 C 16.623 190.555 16.623 187.251 18.784 187.251 C 26.265 187.251 33.746 187.251 41.228 187.251 C 43.453 187.251 43.453 190.555 41.228 190.555 C 33.746 190.555 26.265 190.555 18.784 190.555 M 27.113 183.947 C 24.888 183.947 24.888 180.643 27.113 180.643 C 31.818 180.643 36.523 180.643 41.228 180.643 C 43.453 180.643 43.453 183.947 41.228 183.947 C 36.523 183.947 31.818 183.947 27.113 183.947 M 54.452 173.972 C 38.155 173.972 21.857 173.972 5.560 173.972 C 5.560 182.803 5.560 191.635 5.560 200.467 C 5.560 202.310 7.022 203.771 8.866 203.771 C 22.959 203.770 37.053 203.770 51.146 203.771 C 52.990 203.771 54.452 202.310 54.452 200.467 C 54.452 191.635 54.452 182.803 54.452 173.972 Z"/>
<path fill="#2dffb3" fill-rule="evenodd" stroke="none" d="M 23.807 164.059 C 23.807 165.012 23.044 165.711 22.154 165.711 C 21.264 165.711 20.501 164.949 20.501 164.059 C 20.501 163.170 21.264 162.407 22.154 162.407 C 23.044 162.407 23.807 163.170 23.807 164.059 M 18.784 164.059 C 18.784 165.012 18.085 165.711 17.131 165.711 C 16.241 165.711 15.478 164.949 15.478 164.059 C 15.478 163.170 16.241 162.407 17.131 162.407 C 18.022 162.407 18.784 163.170 18.784 164.059 M 13.825 164.059 C 13.825 165.012 13.126 165.711 12.172 165.711 C 11.282 165.711 10.519 164.949 10.519 164.059 C 10.519 163.170 11.282 162.407 12.172 162.407 C 13.062 162.407 13.825 163.170 13.825 164.059 M 54.452 160.755 C 54.452 158.913 52.990 157.451 51.146 157.451 C 37.053 157.451 22.959 157.451 8.866 157.451 C 7.022 157.451 5.560 158.913 5.560 160.755 C 5.560 164.059 5.560 167.363 5.560 170.667 C 21.857 170.667 38.155 170.667 54.452 170.667 C 54.452 167.363 54.452 164.059 54.452 160.755 Z"/>
<path fill="#5600e3" fill-rule="evenodd" stroke="none" d="M 37.008 133.763 C 36.940 136.681 35.112 138.581 31.997 139.192 C 31.997 140.278 31.997 141.364 31.997 142.450 C 30.643 142.450 29.289 142.450 27.935 142.450 C 27.935 141.364 27.935 140.278 27.935 139.192 C 24.956 138.649 23.060 136.817 22.924 134.102 C 24.098 134.102 25.271 134.102 26.445 134.102 C 26.648 135.527 28.003 136.410 30.102 136.410 C 31.997 136.410 33.352 135.459 33.352 134.170 C 33.352 133.084 32.471 132.405 30.372 131.930 C 29.627 131.771 28.883 131.613 28.138 131.455 C 24.956 130.776 23.398 129.147 23.398 126.500 C 23.398 123.853 25.159 121.953 27.935 121.342 C 27.935 120.256 27.935 119.170 27.935 118.084 C 29.289 118.084 30.643 118.084 31.997 118.084 C 31.997 119.170 31.997 120.256 31.997 121.342 C 34.706 121.953 36.534 123.853 36.669 126.365 C 35.541 126.364 34.412 126.364 33.284 126.365 C 33.081 125.007 31.862 124.057 30.102 124.057 C 28.341 124.057 27.055 124.871 27.055 126.229 C 27.055 127.315 27.867 127.926 29.898 128.333 C 30.598 128.491 31.298 128.649 31.997 128.808 C 35.451 129.555 37.008 131.048 37.008 133.763 M 54.342 137.360 C 54.274 123.175 40.055 110.958 40.055 110.958 C 33.306 110.958 26.558 110.958 19.810 110.958 C 19.810 110.958 5.658 123.107 5.658 137.360 C 5.658 145.504 11.752 149.509 15.815 149.509 C 25.271 149.508 34.728 149.508 44.185 149.509 C 48.248 149.509 54.342 145.436 54.342 137.360 Z"/>
<path fill="#5600e3" fill-rule="evenodd" stroke="none" d="M 19.810 106.886 C 26.558 106.885 33.306 106.886 40.055 106.886 C 40.687 105.098 41.319 103.311 41.951 101.524 C 42.357 100.506 41.816 99.284 40.800 98.877 C 40.597 98.809 40.326 98.809 40.055 98.809 C 38.182 98.809 36.308 98.809 34.435 98.809 C 32.201 96.298 28.341 96.094 25.836 98.334 C 25.701 98.470 25.497 98.605 25.362 98.809 C 23.489 98.809 21.615 98.809 19.742 98.809 C 18.591 98.809 17.711 99.759 17.711 100.845 C 17.711 101.117 17.778 101.320 17.846 101.592 C 18.500 103.356 19.155 105.121 19.810 106.886 Z"/>
<path fill="#2dffb3" fill-rule="evenodd" stroke="none" d="M 40.055 106.886 C 33.306 106.886 26.558 106.886 19.809 106.886 C 19.809 108.243 19.809 109.601 19.809 110.958 C 26.558 110.958 33.306 110.958 40.055 110.958 C 40.054 109.601 40.054 108.243 40.055 106.886 Z"/>
</g>
<g id="Frame.svg">
<path fill="#5600e3" fill-rule="evenodd" stroke="none" d="M 43.530 -63.701 C 47.001 -63.702 50.472 -63.702 53.944 -63.701 C 54.521 -63.701 54.990 -63.233 54.990 -62.657 C 54.989 -54.327 54.989 -45.998 54.990 -37.667 C 54.990 -37.091 54.521 -36.623 53.944 -36.623 C 50.469 -36.623 46.995 -36.623 43.520 -36.623 C 42.944 -36.623 42.475 -37.091 42.475 -37.667 C 42.475 -45.998 42.475 -54.327 42.475 -62.657 C 42.485 -63.233 42.954 -63.701 43.530 -63.701 Z"/>
<path fill="#2dffb3" fill-rule="evenodd" stroke="none" d="M 24.813 -86.358 C 28.287 -86.358 31.761 -86.358 35.236 -86.358 C 35.813 -86.358 36.282 -85.889 36.282 -85.313 C 36.281 -69.347 36.281 -53.380 36.282 -37.413 C 36.282 -36.837 35.813 -36.368 35.236 -36.368 C 31.761 -36.369 28.287 -36.369 24.813 -36.368 C 24.236 -36.368 23.767 -36.837 23.767 -37.413 C 23.767 -53.380 23.767 -69.347 23.767 -85.313 C 23.767 -85.889 24.236 -86.358 24.813 -86.358 Z"/>
<path fill="#2dffb3" fill-rule="evenodd" stroke="none" d="M 6.056 -76.196 C 9.530 -76.196 13.005 -76.196 16.480 -76.196 C 17.056 -76.196 17.525 -75.728 17.525 -75.152 C 17.525 -62.657 17.525 -50.163 17.525 -37.667 C 17.525 -37.091 17.056 -36.623 16.480 -36.623 C 13.005 -36.623 9.530 -36.623 6.056 -36.623 C 5.479 -36.623 5.010 -37.091 5.010 -37.667 C 5.010 -50.163 5.010 -62.657 5.010 -75.152 C 5.010 -75.728 5.479 -76.196 6.056 -76.196 Z"/>
</g>
<g id="XMLID_15.svg">
<path fill="#5600e3" fill-rule="evenodd" stroke="none" d="M 124.909 29.940 C 125.653 28.000 126.398 26.061 127.144 24.121 C 127.392 23.475 127.193 22.750 126.657 22.313 C 125.044 21.006 123.432 19.698 121.821 18.391 C 121.492 16.338 121.165 14.286 120.837 12.234 C 120.728 11.558 120.192 11.022 119.517 10.913 C 117.464 10.585 115.411 10.257 113.359 9.930 C 112.055 8.321 110.751 6.712 109.447 5.103 C 109.010 4.567 108.275 4.378 107.649 4.617 C 105.706 5.365 103.763 6.113 101.820 6.861 C 99.880 6.116 97.940 5.371 96.000 4.626 C 95.355 4.378 94.630 4.577 94.203 5.113 C 92.895 6.725 91.587 8.337 90.280 9.949 C 88.227 10.277 86.175 10.605 84.123 10.933 C 83.448 11.032 82.911 11.568 82.802 12.243 C 82.474 14.296 82.147 16.348 81.819 18.401 C 80.207 19.708 78.595 21.016 76.982 22.323 C 76.446 22.760 76.258 23.485 76.496 24.121 C 77.241 26.061 77.985 28.000 78.730 29.940 C 77.989 31.880 77.247 33.820 76.506 35.760 C 76.258 36.405 76.456 37.130 76.992 37.557 C 78.604 38.865 80.217 40.172 81.829 41.480 C 82.156 43.532 82.484 45.584 82.812 47.637 C 82.921 48.313 83.448 48.849 84.133 48.958 C 86.185 49.285 88.237 49.613 90.290 49.941 C 91.597 51.553 92.905 53.165 94.213 54.778 C 94.650 55.314 95.375 55.513 96.020 55.264 C 97.960 54.522 99.900 53.781 101.840 53.040 C 103.779 53.784 105.719 54.529 107.659 55.274 C 107.848 55.344 108.036 55.383 108.225 55.383 C 108.692 55.383 109.149 55.175 109.457 54.788 C 110.764 53.175 112.071 51.563 113.379 49.951 C 115.431 49.623 117.484 49.295 119.536 48.968 C 120.212 48.859 120.748 48.323 120.857 47.647 C 121.185 45.594 121.512 43.542 121.840 41.490 C 123.452 40.182 125.064 38.875 126.677 37.567 C 127.213 37.130 127.402 36.405 127.163 35.770 C 126.411 33.826 125.660 31.883 124.909 29.940 Z"/>
<path fill="#2dffb3" fill-rule="evenodd" stroke="none" d="M 98.643 21.600 C 98.643 20.726 97.928 20.011 97.054 20.011 C 96.180 20.011 95.465 20.726 95.465 21.600 C 95.465 22.474 96.180 23.189 97.054 23.189 C 97.928 23.189 98.643 22.474 98.643 21.600 M 101.821 21.600 C 101.821 24.232 99.686 26.367 97.054 26.367 C 94.423 26.367 92.288 24.232 92.288 21.600 C 92.288 18.968 94.423 16.833 97.054 16.833 C 99.686 16.833 101.821 18.968 101.821 21.600 Z"/>
<path fill="#2dffb3" fill-rule="evenodd" stroke="none" d="M 108.177 37.488 C 108.177 36.614 107.462 35.899 106.588 35.899 C 105.714 35.899 104.999 36.614 104.999 37.488 C 104.999 38.362 105.714 39.077 106.588 39.077 C 107.462 39.077 108.177 38.362 108.177 37.488 M 111.355 37.488 C 111.355 40.120 109.220 42.255 106.588 42.255 C 103.956 42.255 101.821 40.120 101.821 37.488 C 101.821 34.856 103.956 32.721 106.588 32.721 C 109.220 32.721 111.355 34.856 111.355 37.488 Z"/>
<path fill="#2dffb3" fill-rule="evenodd" stroke="none" d="M 93.876 42.256 C 93.558 42.256 93.230 42.156 92.952 41.958 C 92.237 41.441 92.068 40.458 92.585 39.743 C 97.881 32.328 103.178 24.913 108.474 17.498 C 108.991 16.783 109.974 16.614 110.689 17.130 C 111.404 17.637 111.563 18.630 111.056 19.345 C 105.760 26.760 100.463 34.175 95.167 41.590 C 94.859 42.027 94.372 42.256 93.876 42.256 Z"/>
</g>
<g id="XMLID_15_(1).svg">
<path fill="#2dffb3" fill-rule="evenodd" stroke="none" d="M 47.372 16.210 C 47.063 16.031 46.676 16.011 46.357 16.180 C 46.039 16.340 45.820 16.659 45.780 17.018 C 45.741 17.367 45.681 17.716 45.611 18.085 C 43.533 27.537 39.366 32.134 32.851 32.134 C 29.668 32.133 26.486 32.133 23.303 32.134 C 22.796 32.134 22.368 32.493 22.269 32.981 C 21.208 37.966 20.147 42.952 19.086 47.938 C 18.897 49.204 18.708 50.470 18.519 51.737 C 18.191 53.472 19.325 55.137 21.055 55.466 C 21.245 55.506 21.443 55.516 21.632 55.526 C 23.761 55.525 25.889 55.525 28.017 55.526 C 29.479 55.526 30.762 54.528 31.101 53.103 C 31.962 49.656 32.824 46.209 33.687 42.763 C 35.533 42.762 37.379 42.762 39.226 42.763 C 45.761 42.763 50.276 37.538 51.937 28.056 C 53.031 23.539 51.221 18.823 47.372 16.210 Z"/>
<path fill="#5600e3" fill-rule="evenodd" stroke="none" d="M 45.373 8.263 C 43.275 5.880 40.271 4.504 37.099 4.474 C 31.244 4.474 25.389 4.474 19.535 4.474 C 16.909 4.465 14.661 6.389 14.283 9.001 C 12.466 21.159 10.650 33.317 8.833 45.475 C 8.574 47.220 9.768 48.845 11.508 49.104 C 11.667 49.124 11.827 49.144 11.986 49.144 C 14.701 49.144 17.416 49.144 20.131 49.144 C 20.638 49.144 21.066 48.785 21.166 48.297 C 22.167 43.617 23.168 38.937 24.169 34.258 C 27.066 34.257 29.964 34.257 32.862 34.258 C 40.410 34.258 45.403 28.963 47.691 18.514 C 47.780 18.095 47.850 17.676 47.900 17.247 C 48.437 14.027 47.512 10.736 45.373 8.263 Z"/>
</g>
</svg>
