<svg width="15" height="13" viewBox="0 0 15 13" fill="none" xmlns="http://www.w3.org/2000/svg">
<path fill-rule="evenodd" clip-rule="evenodd" d="M7.51429 0.266244C7.59847 0.181849 7.69848 0.114889 7.80858 0.0692028C7.91868 0.0235161 8.03671 0 8.15592 0C8.27512 0 8.39315 0.0235161 8.50325 0.0692028C8.61335 0.114889 8.71336 0.181849 8.79754 0.266244L14.235 5.70374C14.3194 5.78793 14.3864 5.88793 14.4321 5.99803C14.4778 6.10813 14.5013 6.22617 14.5013 6.34537C14.5013 6.46457 14.4778 6.5826 14.4321 6.6927C14.3864 6.80281 14.3194 6.90281 14.235 6.98699L8.79754 12.4245C8.62737 12.5947 8.39657 12.6903 8.15592 12.6903C7.91526 12.6903 7.68446 12.5947 7.51429 12.4245C7.34412 12.2543 7.24852 12.0235 7.24852 11.7829C7.24852 11.5422 7.34412 11.3114 7.51429 11.1412L12.312 6.34537L7.51429 1.54949C7.4299 1.46531 7.36294 1.36531 7.31725 1.25521C7.27156 1.14511 7.24805 1.02707 7.24805 0.90787C7.24805 0.788666 7.27156 0.670634 7.31725 0.560534C7.36294 0.450433 7.4299 0.350427 7.51429 0.266244Z" fill="#5600E3"/>
<path fill-rule="evenodd" clip-rule="evenodd" d="M0 6.3457C0 6.10535 0.0954798 5.87484 0.265435 5.70489C0.435389 5.53493 0.665898 5.43945 0.90625 5.43945H12.6875C12.9279 5.43945 13.1584 5.53493 13.3283 5.70489C13.4983 5.87484 13.5938 6.10535 13.5938 6.3457C13.5938 6.58606 13.4983 6.81656 13.3283 6.98652C13.1584 7.15647 12.9279 7.25195 12.6875 7.25195H0.90625C0.665898 7.25195 0.435389 7.15647 0.265435 6.98652C0.0954798 6.81656 0 6.58606 0 6.3457Z" fill="#5600E3"/>
</svg>
