<svg id="ensTQHL24W61" xmlns="http://www.w3.org/2000/svg" xmlns:xlink="http://www.w3.org/1999/xlink" viewBox="0 0 78 80" shape-rendering="geometricPrecision" text-rendering="geometricPrecision"><style><![CDATA[#ensTQHL24W61{pointer-events: all}#ensTQHL24W61.hover #ensTQHL24W62_ts {animation: ensTQHL24W62_ts__ts 3000ms linear infinite normal forwards}@keyframes ensTQHL24W62_ts__ts { 0% {transform: translate(39px,80px) scale(1,1)} 6.666667% {transform: translate(39px,80px) scale(1,1)} 13.333333% {transform: translate(39px,80px) scale(1.073043,0.961029)} 20% {transform: translate(39px,80px) scale(0.946198,1.018783)} 26.666667% {transform: translate(39px,80px) scale(1,1)} 43.333333% {transform: translate(39px,80px) scale(1,1)} 50% {transform: translate(39px,80px) scale(1.073043,0.961029)} 56.666667% {transform: translate(39px,80px) scale(0.946198,1.018783)} 63.333333% {transform: translate(39px,80px) scale(1,1)} 100% {transform: translate(39px,80px) scale(1,1)}} #ensTQHL24W61.hover #ensTQHL24W65_ts {animation: ensTQHL24W65_ts__ts 3000ms linear infinite normal forwards}@keyframes ensTQHL24W65_ts__ts { 0% {transform: translate(39px,40px) scale(1,1)} 6.666667% {transform: translate(39px,40px) scale(1,1)} 13.333333% {transform: translate(39px,40px) scale(1.064116,0.967274)} 20% {transform: translate(39px,40px) scale(0.909285,1.052619)} 26.666667% {transform: translate(39px,40px) scale(1,1)} 43.333333% {transform: translate(39px,40px) scale(1,1)} 50% {transform: translate(39px,40px) scale(1.064116,0.967274)} 56.666667% {transform: translate(39px,40px) scale(0.909285,1.052619)} 63.333333% {transform: translate(39px,40px) scale(1,1)} 100% {transform: translate(39px,40px) scale(1,1)}}]]></style><g id="ensTQHL24W62_ts" transform="translate(39,80) scale(1,1)"><g id="ensTQHL24W62" transform="translate(-36.500000,-76.999802)"><path id="ensTQHL24W63" d="M71.385500,0L1.614530,0C0.807267,0,0,0.803279,0,1.606560L0,14.229500L73,14.229500L73,1.606560C73,0.803279,72.192700,0,71.385500,0Z" fill="rgb(45,255,179)" stroke="none" stroke-width="1"/><path id="ensTQHL24W64" d="M28.484300,47.622700L28.484300,75.393200C28.484300,75.852200,28.599600,76.311200,29.176200,76.655500C29.522200,76.770300,29.868200,76.999800,30.098800,76.999800C30.214100,76.999800,30.444800,76.999800,30.560100,76.999800L43.361100,70.573500C44.053000,70.458800,44.514300,69.770300,44.514300,68.967000L44.514300,47.622700L72.076700,17.442400L0.921875,17.442400L28.484300,47.622700Z" fill="rgb(86,0,227)" stroke="none" stroke-width="1"/></g></g><g id="ensTQHL24W65_ts" transform="translate(39,40) scale(1,1)"><g id="ensTQHL24W65" display="none" transform="translate(-36.500000,-38.499901)"><path id="ensTQHL24W66" d="M71.385500,0L1.614530,0C0.807267,0,0,0.803279,0,1.606560L0,14.229500L73,14.229500L73,1.606560C73,0.803279,72.192700,0,71.385500,0Z" fill="rgb(45,255,179)" stroke="none" stroke-width="1"/><path id="ensTQHL24W67" d="M28.484300,47.622700L28.484300,75.393200C28.484300,75.852200,28.599600,76.311200,29.176200,76.655500C29.522200,76.770300,29.868200,76.999800,30.098800,76.999800C30.214100,76.999800,30.444800,76.999800,30.560100,76.999800L43.361100,70.573500C44.053000,70.458800,44.514300,69.770300,44.514300,68.967000L44.514300,47.622700L72.076700,17.442400L0.921875,17.442400L28.484300,47.622700Z" fill="rgb(86,0,227)" stroke="none" stroke-width="1"/></g></g></svg>