<svg id="eNTAtRjJVaS1" xmlns="http://www.w3.org/2000/svg" xmlns:xlink="http://www.w3.org/1999/xlink" viewBox="0 0 72 72" shape-rendering="geometricPrecision" text-rendering="geometricPrecision"><style><![CDATA[#eNTAtRjJVaS4_to {animation: eNTAtRjJVaS4_to__to 2000ms linear infinite normal forwards}@keyframes eNTAtRjJVaS4_to__to { 0% {transform: translate(7.676450px,52.517550px)} 50% {transform: translate(8.676450px,51.517550px)} 100% {transform: translate(7.676450px,52.517550px)}} #eNTAtRjJVaS5_to {animation: eNTAtRjJVaS5_to__to 2000ms linear infinite normal forwards}@keyframes eNTAtRjJVaS5_to__to { 0% {transform: translate(45.318102px,55.747499px)} 50% {transform: translate(45.318102px,53.641099px)} 100% {transform: translate(45.318102px,55.747499px)}} #eNTAtRjJVaS6_to {animation: eNTAtRjJVaS6_to__to 2000ms linear infinite normal forwards}@keyframes eNTAtRjJVaS6_to__to { 0% {transform: translate(51.035002px,20.964703px)} 50% {transform: translate(49.035002px,21.964703px)} 100% {transform: translate(51.035002px,20.964703px)}}]]></style><g id="eNTAtRjJVaS2" clip-path="url(#eNTAtRjJVaS7)"><g id="eNTAtRjJVaS3"><g id="eNTAtRjJVaS4_to" transform="translate(7.676450,52.517550)"><path id="eNTAtRjJVaS4" d="M1.482350,71.999900L13.870600,71.999900C14.717600,71.999900,15.352900,71.364600,15.352900,70.517500L15.352900,34.517500C15.352900,33.670400,14.717600,33.035200,13.870600,33.035200L1.482350,33.035200C0.635294,33.035200,0,33.670400,0,34.517500L0,70.517500C0,71.364600,0.635294,71.999900,1.482350,71.999900Z" transform="translate(-7.676450,-52.517550)" fill="rgb(86,0,227)" stroke="none" stroke-width="1"/></g><g id="eNTAtRjJVaS5_to" transform="translate(45.318102,55.747499)"><path id="eNTAtRjJVaS5" d="M69.141600,51.459300C67.341600,50.082800,65.012200,49.659300,62.788700,50.294600L51.459300,53.576900C50.929900,54.529800,50.188700,55.482800,49.235700,56.118100C47.753400,57.176900,46.059300,57.706300,44.365200,57.706300C43.624000,57.706300,42.776900,57.600400,42.035700,57.388700L33.035700,54.635700C32.188700,54.424000,31.765200,53.576900,32.082800,52.729800C32.294600,51.882800,33.141600,51.459300,33.988700,51.776900L42.776900,54.424000C44.259300,54.847500,45.953400,54.741600,47.329900,53.894600C47.329900,53.894600,47.329900,53.894600,47.435700,53.894600C49.553400,52.518100,49.871000,49.553400,48.282800,47.541600C47.329900,46.376900,46.059300,45.424000,44.576900,45.000400L18.635700,39.388700L18.635700,65.435700L40.129900,72.000400C40.235700,72.000400,40.447500,72.106300,40.553400,72.106300C40.659300,72.106300,40.871000,72.106300,40.976900,72.000400L66.918100,64.165100C69.882800,63.212200,72.000500,60.459300,72.000500,57.176900C72.000500,54.847500,70.941600,52.729800,69.141600,51.459300Z" transform="translate(-45.318102,-55.747499)" fill="rgb(86,0,227)" stroke="none" stroke-width="1"/></g><g id="eNTAtRjJVaS6_to" transform="translate(51.035002,20.964703)"><path id="eNTAtRjJVaS6" d="M51.035000,0C39.493800,0,30.070300,9.423530,30.070300,20.964700C30.070300,32.505900,39.493800,41.929400,51.035000,41.929400C62.576200,41.929400,71.999700,32.611800,71.999700,20.964700C71.999700,9.423530,62.576200,0,51.035000,0ZM51.035000,18C54.317400,18,57.070300,20.647100,57.070300,24.035300C57.070300,26.788200,55.164400,29.117600,52.517400,29.858800L52.517400,31.552900C52.517400,32.400000,51.882100,33.035300,51.035000,33.035300C50.188000,33.035300,49.552700,32.400000,49.552700,31.552900L49.552700,29.858800C47.011500,29.223500,44.999700,26.894100,44.999700,24.035300C44.999700,23.188200,45.635000,22.552900,46.482100,22.552900C47.329100,22.552900,47.964400,23.188200,47.964400,24.035300C47.964400,25.729400,49.340900,27,50.929100,27C52.517400,27,53.893800,25.623500,53.893800,24.035300C53.893800,22.341200,52.517400,21.070600,50.929100,21.070600C47.646800,21.070600,44.893800,18.423500,44.893800,15.035300C44.893800,12.282400,46.799700,9.952940,49.446800,9.211770L49.446800,7.517650C49.446800,6.670590,50.082100,6.035290,50.929100,6.035290C51.776200,6.035290,52.411500,6.670590,52.411500,7.517650L52.411500,9.211770C54.952700,9.847060,56.964400,12.176500,56.964400,15.035300C56.964400,15.882400,56.329100,16.517600,55.482100,16.517600C54.635000,16.517600,53.999700,15.882400,53.999700,15.035300C53.999700,13.341200,52.623300,12.070600,51.035000,12.070600C49.446800,12.070600,48.070300,13.447100,48.070300,15.035300C48.070300,16.623500,49.340900,18,51.035000,18Z" transform="translate(-51.035002,-20.964703)" fill="rgb(45,255,179)" stroke="none" stroke-width="1"/></g></g><clipPath id="eNTAtRjJVaS7"><rect id="eNTAtRjJVaS8" width="72" height="72" rx="0" ry="0" fill="rgb(255,255,255)" stroke="none" stroke-width="1"/></clipPath></g></svg>