<svg cache-id="5698e52f68a64f2a98adca04d42c98be" id="eNZgy9TqHiQ1" xmlns="http://www.w3.org/2000/svg" xmlns:xlink="http://www.w3.org/1999/xlink" viewBox="0 0 81 72" shape-rendering="geometricPrecision" text-rendering="geometricPrecision"><style><![CDATA[#eNZgy9TqHiQ1{pointer-events: all}#eNZgy9TqHiQ1.hover #eNZgy9TqHiQ2_ts {animation: eNZgy9TqHiQ2_ts__ts 3000ms linear infinite normal forwards}@keyframes eNZgy9TqHiQ2_ts__ts { 0% {transform: translate(40.500000px,70.708131px) scale(0.965320,0.965320)} 10% {transform: translate(40.500000px,70.708131px) scale(0.965320,0.965320)} 16.666667% {transform: translate(40.500000px,70.708131px) scale(0.993344,0.903522)} 23.333333% {transform: translate(40.500000px,70.708131px) scale(0.927335,0.986137)} 30% {transform: translate(40.500000px,70.708131px) scale(0.965320,0.965320)} 100% {transform: translate(40.500000px,70.708131px) scale(0.965320,0.965320)}} #eNZgy9TqHiQ1.hover #eNZgy9TqHiQ5_ts {animation: eNZgy9TqHiQ5_ts__ts 3000ms linear infinite normal forwards}@keyframes eNZgy9TqHiQ5_ts__ts { 0% {transform: translate(40.545000px,26.831800px) scale(1,1)} 40% {transform: translate(40.545000px,26.831800px) scale(1,1)} 46.666667% {transform: translate(40.545000px,26.831800px) scale(1.104468,0.852126)} 53.333333% {transform: translate(40.545000px,26.831800px) scale(0.817461,1.042678)} 60% {transform: translate(40.545000px,26.831800px) scale(1,1)} 100% {transform: translate(40.545000px,26.831800px) scale(1,1)}} #eNZgy9TqHiQ1.hover #eNZgy9TqHiQ6_ts {animation: eNZgy9TqHiQ6_ts__ts 3000ms linear infinite normal forwards}@keyframes eNZgy9TqHiQ6_ts__ts { 0% {transform: translate(40.545000px,26.831800px) scale(1,1)} 40% {transform: translate(40.545000px,26.831800px) scale(1,1)} 46.666667% {transform: translate(40.545000px,26.831800px) scale(0.752044,0.752044)} 53.333333% {transform: translate(40.545000px,26.831800px) scale(1.151620,1.151620)} 60% {transform: translate(40.545000px,26.831800px) scale(1,1)} 100% {transform: translate(40.545000px,26.831800px) scale(1,1)}}]]></style><g id="eNZgy9TqHiQ2_ts" transform="translate(40.500000,70.708131) scale(0.965320,0.965320)"><g id="eNZgy9TqHiQ2" transform="translate(-40.500000,-71.910100)"><path id="eNZgy9TqHiQ3" d="M71.102000,0L9.897980,0C4.449550,0,0,4.404490,0,9.797750L0,45.842700C0,51.236000,4.449550,55.640400,9.897980,55.640400L27.333000,55.640400L27.333000,70.382000C27.333000,71.191000,28.059400,71.910100,28.876700,71.910100C29.330700,71.910100,29.693900,71.730300,29.966400,71.460700L45.948400,55.730300L71.102000,55.730300C76.550500,55.730300,81,51.325800,81,45.932600L81,9.797750C81,4.404490,76.550500,0,71.102000,0ZM50.670400,42.337100L40.500000,37.033700L30.329600,42.337100L32.236500,31.101100L23.973100,23.191000L35.414800,21.483100L40.500000,11.236000L45.585200,21.483100L56.936100,23.101100L48.672600,31.011200L50.670400,42.337100Z" fill="rgb(86,0,227)" stroke="none" stroke-width="1"/><rect id="eNZgy9TqHiQ4" width="48.624312" height="33.493326" rx="0" ry="0" transform="matrix(1 0 0 1 16.32331979718441 10.06635107691804)" fill="rgb(86,0,227)" stroke="none" stroke-width="0"/><g id="eNZgy9TqHiQ5_ts" transform="translate(40.545000,26.831800) scale(1,1)"><path id="eNZgy9TqHiQ5" display="none" d="M45.584800,21.483500L40.499600,11.326200L35.414400,21.483500L24.063500,23.101500L32.236100,31.101400L30.329200,42.337400L40.499600,37.034000L50.670000,42.337400L48.763000,31.101400L57.026500,23.101500L45.584800,21.483500Z" transform="translate(-40.545000,-26.831800)" fill="rgb(45,255,179)" stroke="none" stroke-width="1"/></g><g id="eNZgy9TqHiQ6_ts" transform="translate(40.545000,26.831800) scale(1,1)"><path id="eNZgy9TqHiQ6" d="M45.584800,21.483500L40.499600,11.326200L35.414400,21.483500L24.063500,23.101500L32.236100,31.101400L30.329200,42.337400L40.499600,37.034000L50.670000,42.337400L48.763000,31.101400L57.026500,23.101500L45.584800,21.483500Z" transform="translate(-40.545000,-26.831800)" fill="rgb(45,255,179)" stroke="none" stroke-width="1"/></g></g></g></svg>