<?xml version="1.0" encoding="utf-8"?>
<!-- Generator: Moho 13.0.2 build 610 -->
<!DOCTYPE svg PUBLIC "-//W3C//DTD SVG 1.1//EN" "http://www.w3.org/Graphics/SVG/1.1/DTD/svg11.dtd">
<svg version="1.1" id="Frame_0" xmlns="http://www.w3.org/2000/svg" xmlns:xlink="http://www.w3.org/1999/xlink" width="60px" height="60px">
<g id="Group_462.svg">
<path fill="#5600e3" fill-rule="evenodd" stroke="none" d="M 52.641 10.291 C 52.640 23.618 52.640 36.944 52.641 50.271 C 37.463 50.271 22.286 50.271 7.108 50.271 C 7.108 36.944 7.108 23.618 7.108 10.291 C 22.286 10.291 37.463 10.291 52.641 10.291 M 55.972 6.960 C 38.573 6.960 21.175 6.960 3.777 6.960 C 3.777 22.507 3.777 38.055 3.777 53.603 C 21.175 53.602 38.573 53.602 55.972 53.603 C 55.972 38.055 55.972 22.507 55.972 6.960 Z"/>
<path fill="#5600e3" fill-rule="evenodd" stroke="none" d="M 15.437 43.053 C 13.957 43.052 12.476 43.052 10.995 43.053 C 10.995 43.793 10.995 44.533 10.995 45.274 C 12.476 45.273 13.957 45.273 15.437 45.274 C 15.437 44.533 15.437 43.793 15.437 43.053 Z"/>
<path fill="#5600e3" fill-rule="evenodd" stroke="none" d="M 48.753 43.053 C 39.128 43.052 29.504 43.052 19.879 43.053 C 19.879 43.793 19.879 44.533 19.879 45.274 C 29.504 45.273 39.128 45.273 48.753 45.274 C 48.753 44.533 48.753 43.793 48.753 43.053 Z"/>
<path fill="#5600e3" fill-rule="evenodd" stroke="none" d="M 18.769 40.831 C 18.029 40.831 17.288 40.831 16.548 40.831 C 16.548 43.052 16.548 45.273 16.548 47.494 C 17.288 47.494 18.029 47.494 18.769 47.494 C 18.769 45.273 18.769 43.052 18.769 40.831 Z"/>
<path fill="#5600e3" fill-rule="evenodd" stroke="none" d="M 48.198 14.734 C 35.982 14.734 23.766 14.734 11.550 14.734 C 11.550 22.507 11.550 30.281 11.550 38.055 C 23.766 38.055 35.982 38.055 48.198 38.055 C 48.198 30.281 48.198 22.507 48.198 14.734 Z"/>
<path fill="#2dffb3" fill-rule="evenodd" stroke="none" d="M 35.521 25.138 C 36.492 25.700 36.492 27.099 35.521 27.661 C 34.013 28.531 32.505 29.400 30.998 30.270 C 29.490 31.140 27.982 32.009 26.475 32.879 C 25.503 33.441 24.294 32.736 24.294 31.622 C 24.294 29.880 24.294 28.137 24.294 26.395 C 24.294 24.652 24.294 22.909 24.294 21.167 C 24.294 20.043 25.503 19.348 26.475 19.910 C 27.982 20.780 29.490 21.649 30.998 22.519 C 32.505 23.392 34.013 24.265 35.521 25.138 Z"/>
</g>
</svg>
