<svg id="eKEONb6YD571" xmlns="http://www.w3.org/2000/svg" xmlns:xlink="http://www.w3.org/1999/xlink" viewBox="0 0 60 60" shape-rendering="geometricPrecision" text-rendering="geometricPrecision"><style><![CDATA[#eKEONb6YD572_to {animation: eKEONb6YD572_to__to 9000ms linear infinite normal forwards}@keyframes eKEONb6YD572_to__to { 0% {transform: translate(29.999993px,29.981773px)} 41.111111% {transform: translate(29.999993px,29.981773px)} 43.333333% {transform: translate(-25.445005px,30px)} 100% {transform: translate(-25.445005px,30px)}} #eKEONb6YD572_ts {animation: eKEONb6YD572_ts__ts 9000ms linear infinite normal forwards}@keyframes eKEONb6YD572_ts__ts { 0% {transform: scale(1,1)} 33.333333% {transform: scale(1,1)} 35.555556% {transform: scale(1.114852,0.899861)} 37.777778% {transform: scale(0.899460,1.015634)} 40% {transform: scale(1,1)} 100% {transform: scale(1,1)}} #eKEONb6YD579_to {animation: eKEONb6YD579_to__to 9000ms linear infinite normal forwards}@keyframes eKEONb6YD579_to__to { 0% {transform: translate(85.445005px,29.723772px)} 43.333333% {transform: translate(85.445005px,29.723772px)} 45.555556% {transform: translate(29.999993px,29.981773px)} 54.444444% {transform: translate(29.999993px,29.981773px)} 56.666667% {transform: translate(-25.445005px,30px)} 100% {transform: translate(-25.445005px,30px)}} #eKEONb6YD579_ts {animation: eKEONb6YD579_ts__ts 9000ms linear infinite normal forwards}@keyframes eKEONb6YD579_ts__ts { 0% {transform: scale(1,1)} 47.777778% {transform: scale(1,1)} 50% {transform: scale(1.114852,0.899861)} 52.222222% {transform: scale(0.899460,1.015634)} 54.444444% {transform: scale(1,1)} 100% {transform: scale(1,1)}} #eKEONb6YD5716_to {animation: eKEONb6YD5716_to__to 9000ms linear infinite normal forwards}@keyframes eKEONb6YD5716_to__to { 0% {transform: translate(85.445005px,29.723772px)} 56.666667% {transform: translate(85.445005px,29.723772px)} 58.888889% {transform: translate(29.999993px,29.981773px)} 100% {transform: translate(29.999993px,29.981773px)}} #eKEONb6YD5716_ts {animation: eKEONb6YD5716_ts__ts 9000ms linear infinite normal forwards}@keyframes eKEONb6YD5716_ts__ts { 0% {transform: scale(1,1)} 61.111111% {transform: scale(1,1)} 63.333333% {transform: scale(1.114852,0.899861)} 65.555556% {transform: scale(0.899460,1.015634)} 67.777778% {transform: scale(1,1)} 100% {transform: scale(1,1)}}]]></style><g id="eKEONb6YD572_to" transform="translate(29.999993,29.981773)"><g id="eKEONb6YD572_ts" transform="scale(1,1)"><g id="eKEONb6YD572" transform="translate(-29.999993,-29.981773)"><path id="eKEONb6YD573" d="M55.435000,16.422000C55.435000,18.787000,55.435000,21.004000,55.435000,23.222000C55.437000,30.006000,55.435000,36.789000,55.445000,43.573000C55.445000,44.029000,55.363000,44.338000,54.917000,44.593000C47.241000,48.964000,39.577000,53.355000,31.909000,57.741000C31.769000,57.822000,31.618000,57.884000,31.386000,57.996000C31.360000,57.684000,31.325000,57.447000,31.325000,57.212000C31.322000,48.486000,31.327000,39.761000,31.313000,31.035000C31.312000,30.499000,31.444000,30.189000,31.941000,29.905000C39.509000,25.571000,47.061000,21.212000,54.618000,16.860000C54.831000,16.737000,55.055000,16.627000,55.435000,16.422000Z" fill="rgb(86,0,227)" fill-rule="evenodd" stroke="none" stroke-width="1"/><path id="eKEONb6YD574" d="M4.600000,16.306000C5.206000,16.646000,5.690000,16.914000,6.170000,17.186000C7.243000,17.794000,8.263000,18.540000,9.401000,18.980000C11.093000,19.633000,11.564000,20.744000,11.398000,22.472000C11.243000,24.088000,11.401000,25.735000,11.352000,27.365000C11.325000,28.270000,11.665000,28.819000,12.470000,29.228000C13.917000,29.964000,15.320000,30.792000,16.743000,31.577000C18.049000,32.296000,18.712000,31.918000,18.719000,30.440000C18.727000,28.724000,18.722000,27.007000,18.722000,25.291000C18.722000,25.021000,18.722000,24.749000,18.722000,24.323000C20.090000,25.092000,21.327000,25.782000,22.560000,26.482000C24.585000,27.630000,26.614000,28.765000,28.614000,29.954000C28.880000,30.113000,29.146000,30.540000,29.148000,30.842000C29.175000,39.792000,29.166000,48.739000,29.163000,57.689000C29.163000,57.849000,29.133000,58.010000,29.109000,58.254000C28.855000,58.133000,28.655000,58.054000,28.470000,57.949000C20.730000,53.524000,12.995000,49.094000,5.251000,44.676000C4.805000,44.421000,4.553000,44.169000,4.555000,43.583000C4.576000,34.691000,4.570000,25.798000,4.570000,16.906000C4.570000,16.765000,4.583000,16.627000,4.600000,16.306000Z" fill="rgb(86,0,227)" fill-rule="evenodd" stroke="none" stroke-width="1"/><path id="eKEONb6YD575" d="M54.265000,14.679000C53.755000,14.983000,53.311000,15.256000,52.858000,15.516000C45.593000,19.705000,38.322000,23.886000,31.066000,28.090000C30.543000,28.394000,30.154000,28.418000,29.623000,28.107000C26.643000,26.367000,23.641000,24.667000,20.648000,22.951000C20.434000,22.829000,20.230000,22.689000,19.917000,22.493000C20.224000,22.306000,20.442000,22.157000,20.673000,22.032000C28.312000,17.883000,35.949000,13.731000,43.600000,9.605000C43.913000,9.436000,44.445000,9.359000,44.736000,9.509000C47.822000,11.112000,50.879000,12.769000,53.942000,14.414000C54.033000,14.464000,54.105000,14.547000,54.265000,14.679000Z" fill="rgb(86,0,227)" fill-rule="evenodd" stroke="none" stroke-width="1"/><path id="eKEONb6YD576" d="M36.588000,5.110000C33.885000,6.591000,31.381000,7.964000,28.876000,9.335000C23.662000,12.191000,18.440000,15.035000,13.239000,17.915000C12.649000,18.243000,12.215000,18.244000,11.638000,17.901000C9.925000,16.886000,8.173000,15.937000,6.440000,14.959000C6.226000,14.840000,6.023000,14.699000,5.733000,14.519000C8.547000,13.021000,11.267000,11.571000,13.988000,10.122000C19.137000,7.381000,24.284000,4.637000,29.438000,1.906000C29.680000,1.778000,30.062000,1.643000,30.261000,1.746000C32.324000,2.808000,34.363000,3.919000,36.588000,5.110000Z" fill="rgb(86,0,227)" fill-rule="evenodd" stroke="none" stroke-width="1"/><path id="eKEONb6YD577" d="M41.914000,8.122000C41.538000,8.350000,41.291000,8.517000,41.030000,8.659000C33.516000,12.732000,25.996000,16.794000,18.491000,20.886000C17.924000,21.195000,17.500000,21.234000,16.955000,20.878000C16.237000,20.408000,15.463000,20.023000,14.586000,19.532000C14.992000,19.289000,15.262000,19.113000,15.545000,18.959000C22.920000,14.921000,30.298000,10.890000,37.665000,6.837000C38.163000,6.563000,38.550000,6.539000,39.053000,6.801000C39.940000,7.260000,40.865000,7.642000,41.914000,8.122000Z" fill="rgb(45,255,179)" fill-rule="evenodd" stroke="none" stroke-width="1"/><path id="eKEONb6YD578" d="M16.702000,29.202000C15.592000,28.589000,14.659000,28.093000,13.749000,27.557000C13.588000,27.463000,13.421000,27.216000,13.419000,27.039000C13.396000,25.193000,13.404000,23.349000,13.404000,21.303000C14.530000,21.940000,15.514000,22.482000,16.477000,23.058000C16.605000,23.134000,16.690000,23.387000,16.692000,23.558000C16.709000,25.375000,16.702000,27.193000,16.702000,29.202000Z" fill="rgb(45,255,179)" fill-rule="evenodd" stroke="none" stroke-width="1"/></g></g></g><g id="eKEONb6YD579_to" transform="translate(85.445005,29.723772)"><g id="eKEONb6YD579_ts" transform="scale(1,1)"><g id="eKEONb6YD579" transform="translate(-29.999993,-29.981773)"><path id="eKEONb6YD5710" d="M55.435000,16.422000C55.435000,18.787000,55.435000,21.004000,55.435000,23.222000C55.437000,30.006000,55.435000,36.789000,55.445000,43.573000C55.445000,44.029000,55.363000,44.338000,54.917000,44.593000C47.241000,48.964000,39.577000,53.355000,31.909000,57.741000C31.769000,57.822000,31.618000,57.884000,31.386000,57.996000C31.360000,57.684000,31.325000,57.447000,31.325000,57.212000C31.322000,48.486000,31.327000,39.761000,31.313000,31.035000C31.312000,30.499000,31.444000,30.189000,31.941000,29.905000C39.509000,25.571000,47.061000,21.212000,54.618000,16.860000C54.831000,16.737000,55.055000,16.627000,55.435000,16.422000Z" fill="rgb(86,0,227)" fill-rule="evenodd" stroke="none" stroke-width="1"/><path id="eKEONb6YD5711" d="M4.600000,16.306000C5.206000,16.646000,5.690000,16.914000,6.170000,17.186000C7.243000,17.794000,8.263000,18.540000,9.401000,18.980000C11.093000,19.633000,11.564000,20.744000,11.398000,22.472000C11.243000,24.088000,11.401000,25.735000,11.352000,27.365000C11.325000,28.270000,11.665000,28.819000,12.470000,29.228000C13.917000,29.964000,15.320000,30.792000,16.743000,31.577000C18.049000,32.296000,18.712000,31.918000,18.719000,30.440000C18.727000,28.724000,18.722000,27.007000,18.722000,25.291000C18.722000,25.021000,18.722000,24.749000,18.722000,24.323000C20.090000,25.092000,21.327000,25.782000,22.560000,26.482000C24.585000,27.630000,26.614000,28.765000,28.614000,29.954000C28.880000,30.113000,29.146000,30.540000,29.148000,30.842000C29.175000,39.792000,29.166000,48.739000,29.163000,57.689000C29.163000,57.849000,29.133000,58.010000,29.109000,58.254000C28.855000,58.133000,28.655000,58.054000,28.470000,57.949000C20.730000,53.524000,12.995000,49.094000,5.251000,44.676000C4.805000,44.421000,4.553000,44.169000,4.555000,43.583000C4.576000,34.691000,4.570000,25.798000,4.570000,16.906000C4.570000,16.765000,4.583000,16.627000,4.600000,16.306000Z" fill="rgb(86,0,227)" fill-rule="evenodd" stroke="none" stroke-width="1"/><path id="eKEONb6YD5712" d="M54.265000,14.679000C53.755000,14.983000,53.311000,15.256000,52.858000,15.516000C45.593000,19.705000,38.322000,23.886000,31.066000,28.090000C30.543000,28.394000,30.154000,28.418000,29.623000,28.107000C26.643000,26.367000,23.641000,24.667000,20.648000,22.951000C20.434000,22.829000,20.230000,22.689000,19.917000,22.493000C20.224000,22.306000,20.442000,22.157000,20.673000,22.032000C28.312000,17.883000,35.949000,13.731000,43.600000,9.605000C43.913000,9.436000,44.445000,9.359000,44.736000,9.509000C47.822000,11.112000,50.879000,12.769000,53.942000,14.414000C54.033000,14.464000,54.105000,14.547000,54.265000,14.679000Z" fill="rgb(86,0,227)" fill-rule="evenodd" stroke="none" stroke-width="1"/><path id="eKEONb6YD5713" d="M36.588000,5.110000C33.885000,6.591000,31.381000,7.964000,28.876000,9.335000C23.662000,12.191000,18.440000,15.035000,13.239000,17.915000C12.649000,18.243000,12.215000,18.244000,11.638000,17.901000C9.925000,16.886000,8.173000,15.937000,6.440000,14.959000C6.226000,14.840000,6.023000,14.699000,5.733000,14.519000C8.547000,13.021000,11.267000,11.571000,13.988000,10.122000C19.137000,7.381000,24.284000,4.637000,29.438000,1.906000C29.680000,1.778000,30.062000,1.643000,30.261000,1.746000C32.324000,2.808000,34.363000,3.919000,36.588000,5.110000Z" fill="rgb(86,0,227)" fill-rule="evenodd" stroke="none" stroke-width="1"/><path id="eKEONb6YD5714" d="M41.914000,8.122000C41.538000,8.350000,41.291000,8.517000,41.030000,8.659000C33.516000,12.732000,25.996000,16.794000,18.491000,20.886000C17.924000,21.195000,17.500000,21.234000,16.955000,20.878000C16.237000,20.408000,15.463000,20.023000,14.586000,19.532000C14.992000,19.289000,15.262000,19.113000,15.545000,18.959000C22.920000,14.921000,30.298000,10.890000,37.665000,6.837000C38.163000,6.563000,38.550000,6.539000,39.053000,6.801000C39.940000,7.260000,40.865000,7.642000,41.914000,8.122000Z" fill="rgb(45,255,179)" fill-rule="evenodd" stroke="none" stroke-width="1"/><path id="eKEONb6YD5715" d="M16.702000,29.202000C15.592000,28.589000,14.659000,28.093000,13.749000,27.557000C13.588000,27.463000,13.421000,27.216000,13.419000,27.039000C13.396000,25.193000,13.404000,23.349000,13.404000,21.303000C14.530000,21.940000,15.514000,22.482000,16.477000,23.058000C16.605000,23.134000,16.690000,23.387000,16.692000,23.558000C16.709000,25.375000,16.702000,27.193000,16.702000,29.202000Z" fill="rgb(45,255,179)" fill-rule="evenodd" stroke="none" stroke-width="1"/></g></g></g><g id="eKEONb6YD5716_to" transform="translate(85.445005,29.723772)"><g id="eKEONb6YD5716_ts" transform="scale(1,1)"><g id="eKEONb6YD5716" transform="translate(-29.999993,-29.981773)"><path id="eKEONb6YD5717" d="M55.435000,16.422000C55.435000,18.787000,55.435000,21.004000,55.435000,23.222000C55.437000,30.006000,55.435000,36.789000,55.445000,43.573000C55.445000,44.029000,55.363000,44.338000,54.917000,44.593000C47.241000,48.964000,39.577000,53.355000,31.909000,57.741000C31.769000,57.822000,31.618000,57.884000,31.386000,57.996000C31.360000,57.684000,31.325000,57.447000,31.325000,57.212000C31.322000,48.486000,31.327000,39.761000,31.313000,31.035000C31.312000,30.499000,31.444000,30.189000,31.941000,29.905000C39.509000,25.571000,47.061000,21.212000,54.618000,16.860000C54.831000,16.737000,55.055000,16.627000,55.435000,16.422000Z" fill="rgb(86,0,227)" fill-rule="evenodd" stroke="none" stroke-width="1"/><path id="eKEONb6YD5718" d="M4.600000,16.306000C5.206000,16.646000,5.690000,16.914000,6.170000,17.186000C7.243000,17.794000,8.263000,18.540000,9.401000,18.980000C11.093000,19.633000,11.564000,20.744000,11.398000,22.472000C11.243000,24.088000,11.401000,25.735000,11.352000,27.365000C11.325000,28.270000,11.665000,28.819000,12.470000,29.228000C13.917000,29.964000,15.320000,30.792000,16.743000,31.577000C18.049000,32.296000,18.712000,31.918000,18.719000,30.440000C18.727000,28.724000,18.722000,27.007000,18.722000,25.291000C18.722000,25.021000,18.722000,24.749000,18.722000,24.323000C20.090000,25.092000,21.327000,25.782000,22.560000,26.482000C24.585000,27.630000,26.614000,28.765000,28.614000,29.954000C28.880000,30.113000,29.146000,30.540000,29.148000,30.842000C29.175000,39.792000,29.166000,48.739000,29.163000,57.689000C29.163000,57.849000,29.133000,58.010000,29.109000,58.254000C28.855000,58.133000,28.655000,58.054000,28.470000,57.949000C20.730000,53.524000,12.995000,49.094000,5.251000,44.676000C4.805000,44.421000,4.553000,44.169000,4.555000,43.583000C4.576000,34.691000,4.570000,25.798000,4.570000,16.906000C4.570000,16.765000,4.583000,16.627000,4.600000,16.306000Z" fill="rgb(86,0,227)" fill-rule="evenodd" stroke="none" stroke-width="1"/><path id="eKEONb6YD5719" d="M54.265000,14.679000C53.755000,14.983000,53.311000,15.256000,52.858000,15.516000C45.593000,19.705000,38.322000,23.886000,31.066000,28.090000C30.543000,28.394000,30.154000,28.418000,29.623000,28.107000C26.643000,26.367000,23.641000,24.667000,20.648000,22.951000C20.434000,22.829000,20.230000,22.689000,19.917000,22.493000C20.224000,22.306000,20.442000,22.157000,20.673000,22.032000C28.312000,17.883000,35.949000,13.731000,43.600000,9.605000C43.913000,9.436000,44.445000,9.359000,44.736000,9.509000C47.822000,11.112000,50.879000,12.769000,53.942000,14.414000C54.033000,14.464000,54.105000,14.547000,54.265000,14.679000Z" fill="rgb(86,0,227)" fill-rule="evenodd" stroke="none" stroke-width="1"/><path id="eKEONb6YD5720" d="M36.588000,5.110000C33.885000,6.591000,31.381000,7.964000,28.876000,9.335000C23.662000,12.191000,18.440000,15.035000,13.239000,17.915000C12.649000,18.243000,12.215000,18.244000,11.638000,17.901000C9.925000,16.886000,8.173000,15.937000,6.440000,14.959000C6.226000,14.840000,6.023000,14.699000,5.733000,14.519000C8.547000,13.021000,11.267000,11.571000,13.988000,10.122000C19.137000,7.381000,24.284000,4.637000,29.438000,1.906000C29.680000,1.778000,30.062000,1.643000,30.261000,1.746000C32.324000,2.808000,34.363000,3.919000,36.588000,5.110000Z" fill="rgb(86,0,227)" fill-rule="evenodd" stroke="none" stroke-width="1"/><path id="eKEONb6YD5721" d="M41.914000,8.122000C41.538000,8.350000,41.291000,8.517000,41.030000,8.659000C33.516000,12.732000,25.996000,16.794000,18.491000,20.886000C17.924000,21.195000,17.500000,21.234000,16.955000,20.878000C16.237000,20.408000,15.463000,20.023000,14.586000,19.532000C14.992000,19.289000,15.262000,19.113000,15.545000,18.959000C22.920000,14.921000,30.298000,10.890000,37.665000,6.837000C38.163000,6.563000,38.550000,6.539000,39.053000,6.801000C39.940000,7.260000,40.865000,7.642000,41.914000,8.122000Z" fill="rgb(45,255,179)" fill-rule="evenodd" stroke="none" stroke-width="1"/><path id="eKEONb6YD5722" d="M16.702000,29.202000C15.592000,28.589000,14.659000,28.093000,13.749000,27.557000C13.588000,27.463000,13.421000,27.216000,13.419000,27.039000C13.396000,25.193000,13.404000,23.349000,13.404000,21.303000C14.530000,21.940000,15.514000,22.482000,16.477000,23.058000C16.605000,23.134000,16.690000,23.387000,16.692000,23.558000C16.709000,25.375000,16.702000,27.193000,16.702000,29.202000Z" fill="rgb(45,255,179)" fill-rule="evenodd" stroke="none" stroke-width="1"/></g></g></g></svg>