<svg id="eDIgSOvGYW61" xmlns="http://www.w3.org/2000/svg" xmlns:xlink="http://www.w3.org/1999/xlink" viewBox="0 0 82 82" shape-rendering="geometricPrecision" text-rendering="geometricPrecision"><style><![CDATA[#eDIgSOvGYW65_to {animation: eDIgSOvGYW65_to__to 2000ms linear infinite normal forwards}@keyframes eDIgSOvGYW65_to__to { 0% {transform: translate(41px,37.059898px)} 50% {transform: translate(41px,38.059898px)} 100% {transform: translate(41px,37.059898px)}} #eDIgSOvGYW66_to {animation: eDIgSOvGYW66_to__to 2000ms linear infinite normal forwards}@keyframes eDIgSOvGYW66_to__to { 0% {transform: translate(16.901690px,23.298200px)} 50% {transform: translate(15.901690px,24.298200px)} 100% {transform: translate(16.901690px,23.298200px)}} #eDIgSOvGYW67_to {animation: eDIgSOvGYW67_to__to 2000ms linear infinite normal forwards}@keyframes eDIgSOvGYW67_to__to { 0% {transform: translate(23.812595px,58.235199px)} 50% {transform: translate(25.812595px,58.235199px)} 100% {transform: translate(23.812595px,58.235199px)}}]]></style><path id="eDIgSOvGYW62" display="none" d="M80.401100,4.339830L42.713100,4.339830L42.713100,1.713090C42.713100,0.799443,41.913700,0,41,0C40.086300,0,39.286900,0.799443,39.286900,1.713090L39.286900,4.339830L1.713090,4.339830C0.799443,4.339830,0,5.139280,0,6.052920L0,11.192200C0,12.105800,0.799443,12.905300,1.713090,12.905300L6.852370,12.905300L6.852370,18.273000C8.793870,14.504200,12.676900,12.105800,16.902500,12.105800C23.069600,12.105800,28.208900,17.130900,28.208900,23.412300C28.208900,26.495800,26.952600,29.351000,24.896900,31.406700C26.838400,31.635100,28.665700,32.434500,30.264600,33.690800L37.002800,39.286900C37.688000,39.286900,43.055700,39.286900,42.827300,39.286900C46.596100,39.286900,49.679700,42.370500,49.679700,46.139300C49.679700,49.565500,47.167100,52.306400,44.083600,52.877400C43.626700,52.991600,41.799400,52.991600,34.033400,52.991600L33.919200,52.991600C32.434500,52.991600,30.949900,52.420600,29.693600,51.507000L29.693600,59.158800L33.462400,59.158800L29.693600,65.668500L29.693600,72.520900L37.459600,59.158800L39.515300,59.158800L39.515300,65.782700C39.515300,66.696400,40.314800,67.495800,41.228400,67.495800C42.142100,67.495800,42.941500,66.696400,42.941500,65.782700L42.941500,59.158800L44.883000,59.158800L52.649000,73.206100C53.105800,74.119800,54.247900,74.348200,54.933100,73.891400C55.732600,73.434500,56.075200,72.406700,55.618400,71.607200L48.766000,59.158800L72.064100,59.158800C74.005600,59.158800,75.490200,57.674100,75.490200,55.732600L75.490200,16.331500L42.713100,16.331500L42.484700,16.331500C41.571000,16.331500,40.771600,15.532000,40.771600,14.618400C40.771600,13.704700,41.571000,12.905300,42.484700,12.905300L42.713100,12.905300C52.306400,12.905300,70.693600,12.905300,80.286900,12.905300C81.200600,12.905300,82,12.105800,82,11.192200L82,6.052920C82,5.139280,81.314800,4.339830,80.401100,4.339830Z" fill="rgb(0,0,0)" stroke="none" stroke-width="1"/><path id="eDIgSOvGYW63" display="none" d="M16.901700,31.178400C21.253800,31.178400,24.781900,27.650300,24.781900,23.298200C24.781900,18.946100,21.253800,15.418000,16.901700,15.418000C12.549600,15.418000,9.021480,18.946100,9.021480,23.298200C9.021480,27.650300,12.549600,31.178400,16.901700,31.178400Z" fill="rgb(0,0,0)" stroke="none" stroke-width="1"/><path id="eDIgSOvGYW64" display="none" d="M33.805600,49.451300L42.827900,49.451300C44.769400,49.451300,46.254100,47.966600,46.254100,46.025100C46.254100,44.197800,44.769400,42.598900,42.827900,42.598900L37.003400,42.598900C36.204000,42.598900,35.404500,42.370500,34.833500,41.799500L28.095300,36.203400C26.839100,35.175500,25.240200,34.604500,23.641300,34.604500C18.273600,34.604500,13.134300,34.604500,8.223460,34.604500L7.652430,34.604500L7.424020,34.604500C3.997830,34.604500,1.371090,37.002800,1.371090,39.972200L1.371090,57.445700C1.371090,59.044600,2.855770,60.415100,4.797280,60.415100C6.053540,60.415100,7.195610,59.729800,7.766640,58.816200L7.766640,78.573900C7.766640,80.058500,8.680290,81.429000,10.165000,81.771600C12.106500,82.228500,13.819600,80.972200,14.162200,79.144900L16.446300,65.097500L17.588400,65.097500L19.872500,79.144900C20.215100,80.972200,21.928200,82.228500,23.869700,81.771600C25.354400,81.429000,26.268000,80.058500,26.268000,78.573900C26.268000,66.582200,26.268000,55.961000,26.268000,43.741000L31.635700,48.537600C32.092500,49.222900,32.892000,49.451300,33.805600,49.451300Z" fill="rgb(0,0,0)" stroke="none" stroke-width="1"/><g id="eDIgSOvGYW65_to" transform="translate(41,37.059898)"><path id="eDIgSOvGYW65" d="M80.401100,4.339830L42.713100,4.339830L42.713100,1.713090C42.713100,0.799443,41.913700,0,41,0C40.086300,0,39.286900,0.799443,39.286900,1.713090L39.286900,4.339830L1.713090,4.339830C0.799443,4.339830,0,5.139280,0,6.052920L0,11.192200C0,12.105800,0.799443,12.905300,1.713090,12.905300L6.852370,12.905300L6.852370,18.273000C8.793870,14.504200,12.676900,12.105800,16.902500,12.105800C23.069600,12.105800,28.208900,17.130900,28.208900,23.412300C28.208900,26.495800,26.952600,29.351000,24.896900,31.406700C26.838400,31.635100,28.665700,32.434500,30.264600,33.690800L37.002800,39.286900C37.688000,39.286900,43.055700,39.286900,42.827300,39.286900C46.596100,39.286900,49.679700,42.370500,49.679700,46.139300C49.679700,49.565500,47.167100,52.306400,44.083600,52.877400C43.626700,52.991600,41.799400,52.991600,34.033400,52.991600L33.919200,52.991600C32.434500,52.991600,30.949900,52.420600,29.693600,51.507000L29.693600,59.158800L33.462400,59.158800L29.693600,65.668500L29.693600,72.520900L37.459600,59.158800L39.515300,59.158800L39.515300,65.782700C39.515300,66.696400,40.314800,67.495800,41.228400,67.495800C42.142100,67.495800,42.941500,66.696400,42.941500,65.782700L42.941500,59.158800L44.883000,59.158800L52.649000,73.206100C53.105800,74.119800,54.247900,74.348200,54.933100,73.891400C55.732600,73.434500,56.075200,72.406700,55.618400,71.607200L48.766000,59.158800L72.064100,59.158800C74.005600,59.158800,75.490200,57.674100,75.490200,55.732600L75.490200,16.331500L42.713100,16.331500L42.484700,16.331500C41.571000,16.331500,40.771600,15.532000,40.771600,14.618400C40.771600,13.704700,41.571000,12.905300,42.484700,12.905300L42.713100,12.905300C52.306400,12.905300,70.693600,12.905300,80.286900,12.905300C81.200600,12.905300,82,12.105800,82,11.192200L82,6.052920C82,5.139280,81.314800,4.339830,80.401100,4.339830Z" transform="translate(-41,-37.059898)" fill="rgb(86,0,227)" stroke="none" stroke-width="1"/></g><g id="eDIgSOvGYW66_to" transform="translate(16.901690,23.298200)"><path id="eDIgSOvGYW66" d="M16.901700,31.178400C21.253800,31.178400,24.781900,27.650300,24.781900,23.298200C24.781900,18.946100,21.253800,15.418000,16.901700,15.418000C12.549600,15.418000,9.021480,18.946100,9.021480,23.298200C9.021480,27.650300,12.549600,31.178400,16.901700,31.178400Z" transform="translate(-16.901690,-23.298200)" fill="rgb(45,255,179)" stroke="none" stroke-width="1"/></g><g id="eDIgSOvGYW67_to" transform="translate(23.812595,58.235199)"><path id="eDIgSOvGYW67" d="M33.805600,49.451300L42.827900,49.451300C44.769400,49.451300,46.254100,47.966600,46.254100,46.025100C46.254100,44.197800,44.769400,42.598900,42.827900,42.598900L37.003400,42.598900C36.204000,42.598900,35.404500,42.370500,34.833500,41.799500L28.095300,36.203400C26.839100,35.175500,25.240200,34.604500,23.641300,34.604500C18.273600,34.604500,13.134300,34.604500,8.223460,34.604500L7.652430,34.604500L7.424020,34.604500C3.997830,34.604500,1.371090,37.002800,1.371090,39.972200L1.371090,57.445700C1.371090,59.044600,2.855770,60.415100,4.797280,60.415100C6.053540,60.415100,7.195610,59.729800,7.766640,58.816200L7.766640,78.573900C7.766640,80.058500,8.680290,81.429000,10.165000,81.771600C12.106500,82.228500,13.819600,80.972200,14.162200,79.144900L16.446300,65.097500L17.588400,65.097500L19.872500,79.144900C20.215100,80.972200,21.928200,82.228500,23.869700,81.771600C25.354400,81.429000,26.268000,80.058500,26.268000,78.573900C26.268000,66.582200,26.268000,55.961000,26.268000,43.741000L31.635700,48.537600C32.092500,49.222900,32.892000,49.451300,33.805600,49.451300Z" transform="translate(-23.812595,-58.235199)" fill="rgb(45,255,179)" stroke="none" stroke-width="1"/></g></svg>