<svg width="57" height="54" viewBox="0 0 57 54" fill="none" xmlns="http://www.w3.org/2000/svg">
<path d="M0 19.2598V50.1486C0 52.2968 1.70481 54.0005 3.85436 54.0005H53.1456C55.2952 54.0005 57 52.2968 57 50.1486V19.2598H0ZM25.1274 27.0375H41.5826C44.1769 27.0375 44.1769 30.8894 41.5826 30.8894H25.1274C22.5332 30.8894 22.5332 27.0375 25.1274 27.0375ZM15.4174 34.7412H41.5826C44.1769 34.7412 44.1769 38.5931 41.5826 38.5931H15.4174C12.8973 38.5931 12.8973 34.7412 15.4174 34.7412ZM41.5826 46.2968H15.4174C12.8231 46.4449 12.6749 42.5931 15.1951 42.4449C15.2692 42.4449 15.3433 42.4449 15.4174 42.4449H41.5826C41.5826 42.4449 41.6567 42.4449 41.7308 42.4449C44.3992 42.4449 44.251 46.519 41.5826 46.2968Z" fill="#5600E3"/>
<path d="M53.1456 0H3.85436C1.70481 0 0 1.7037 0 3.85185V15.4074H57V3.85185C57 1.7037 55.2952 0 53.1456 0ZM7.70871 9.62963C6.671 9.62963 5.78153 8.74074 5.78153 7.7037C5.78153 6.66667 6.671 5.77778 7.70871 5.77778C8.74642 5.77778 9.63589 6.66667 9.63589 7.7037C9.63589 8.81481 8.82055 9.62963 7.70871 9.62963ZM13.4902 9.62963C12.4525 9.62963 11.5631 8.74074 11.5631 7.7037C11.5631 6.66667 12.4525 5.77778 13.4902 5.77778C14.528 5.77778 15.4174 6.66667 15.4174 7.7037C15.4174 8.81481 14.6021 9.62963 13.4902 9.62963ZM19.3459 9.62963C18.3082 9.62963 17.4187 8.74074 17.4187 7.7037C17.4187 6.66667 18.3082 5.77778 19.3459 5.77778C20.3836 5.77778 21.2731 6.66667 21.2731 7.7037C21.2731 8.81481 20.3836 9.62963 19.3459 9.62963Z" fill="#2DFFB3"/>
</svg>
