<svg width="46" height="45" viewBox="0 0 46 45" fill="none" xmlns="http://www.w3.org/2000/svg">
<g clip-path="url(#clip0)">
<path d="M22.0297 21.5943C22.0373 21.5865 22.0394 21.5762 22.0471 21.5687L29.7381 14.0448V9.31726C29.7381 8.96701 29.8802 8.63233 30.1329 8.38509L38.2188 0.38713C38.6031 0.0113095 39.1835 -0.1033 39.6876 0.101397C40.1916 0.304776 40.5194 0.786329 40.5194 1.3193V5.27438H44.6522C45.1969 5.27429 45.6892 5.59483 45.8971 6.08798C46.1063 6.58105 45.9905 7.14759 45.6049 7.52482L37.4291 15.5228C37.1764 15.77 36.8342 15.9091 36.4763 15.9091H31.6437L23.9527 23.4328C23.945 23.4404 23.9345 23.4425 23.9266 23.4499C23.4019 23.9398 22.6049 23.9463 22.0732 23.4499C21.5133 22.9271 21.5259 22.1106 22.0297 21.5943Z" fill="#2DFFB3"/>
<path d="M23.0002 0C26.4485 0 29.7088 0.858252 32.6447 2.19885L28.5107 6.24305C26.7756 5.67861 24.9263 5.36133 23.0001 5.36133C13.3402 5.36124 5.48074 13.0499 5.48074 22.4998C5.48074 31.9497 13.3402 39.6384 23.0002 39.6384C32.6602 39.6384 40.5196 31.9498 40.5196 22.4998C40.5196 20.6154 40.1952 18.8064 39.6183 17.1091L43.7524 13.0649C45.1226 15.937 46 19.1265 46 22.4998C46 34.858 35.633 44.9997 23.0002 44.9997C10.3673 44.9997 0.000267029 34.858 0.000267029 22.4998C0.000267029 10.1416 10.3672 0 23.0002 0Z" fill="#5600E3"/>
<path d="M23.0001 10.6348C24.4246 10.6348 25.7722 10.9204 27.0431 11.3636V12.9522L23.9275 16C23.6215 15.9581 23.3177 15.9082 23.0001 15.9082C19.2848 15.9082 16.2618 18.8655 16.2618 22.5C16.2618 26.1345 19.2848 29.0918 23.0001 29.0918C26.7154 29.0918 29.7384 26.1345 29.7384 22.5C29.7384 22.1892 29.6873 21.892 29.6446 21.5927L32.76 18.5448H34.3838C34.8369 19.788 35.1289 21.1064 35.1289 22.4999C35.1289 29.0428 29.6882 34.3651 23.0001 34.3651C16.3119 34.3651 10.8712 29.0428 10.8712 22.4999C10.8712 15.9571 16.3119 10.6348 23.0001 10.6348Z" fill="#5600E3"/>
</g>
<defs>
<clipPath id="clip0">
<rect width="46" height="45" fill="white" transform="matrix(-1 0 0 1 46 0)"/>
</clipPath>
</defs>
</svg>
