<svg id="e5dj80gcAxh1" xmlns="http://www.w3.org/2000/svg" xmlns:xlink="http://www.w3.org/1999/xlink" viewBox="0 0 89 73" shape-rendering="geometricPrecision" text-rendering="geometricPrecision"><style><![CDATA[#e5dj80gcAxh4_to {animation: e5dj80gcAxh4_to__to 4000ms linear infinite normal forwards}@keyframes e5dj80gcAxh4_to__to { 0% {transform: translate(76.450798px,36.199598px)} 50% {transform: translate(74.450798px,36.199598px)} 100% {transform: translate(76.450798px,36.199598px)}} #e5dj80gcAxh8 {animation: e5dj80gcAxh8_c_o 4000ms linear infinite normal forwards}@keyframes e5dj80gcAxh8_c_o { 0% {opacity: 1} 50% {opacity: 0.750000} 100% {opacity: 1}} #e5dj80gcAxh10_tr {animation: e5dj80gcAxh10_tr__tr 4000ms linear infinite normal forwards}@keyframes e5dj80gcAxh10_tr__tr { 0% {transform: translate(16.700001px,42.499800px) rotate(0deg)} 100% {transform: translate(16.700001px,42.499800px) rotate(90deg)}}]]></style><g id="e5dj80gcAxh2" clip-path="url(#e5dj80gcAxh11)"><g id="e5dj80gcAxh3"><g id="e5dj80gcAxh4_to" transform="translate(76.450798,36.199598)"><g id="e5dj80gcAxh4" transform="translate(-76.450798,-36.199598)"><path id="e5dj80gcAxh5" d="M73.900800,36.200400C73.900800,31.000400,70.000800,26.600400,64.800800,25.900400L64.800800,46.400400C70.000800,45.800400,73.900800,41.400400,73.900800,36.200400Z" fill="rgb(45,255,179)" stroke="none" stroke-width="1"/><path id="e5dj80gcAxh6" d="M82.000800,42.299600C82.200800,41.799600,82.700800,41.399600,83.200800,41.399600L88.100800,41.399600L88.100800,30.999600L83.200800,30.999600C82.600800,30.999600,82.100800,30.599600,82.000800,30.099600C81.700800,29.199600,81.300800,28.299600,80.900800,27.399600C80.600800,26.899600,80.700800,26.299600,81.100800,25.899600L84.600800,22.399600L77.300800,15.099600L73.800800,18.599600C73.400800,18.999600,72.800800,19.099600,72.300800,18.799600C71.400800,18.399600,70.500800,17.999600,69.600800,17.699600C69.100800,17.499600,68.700800,16.999600,68.700800,16.499600L68.700800,11.599600L64.800800,11.599600L64.800800,23.299600C71.900800,23.999600,77.100800,30.399600,76.400800,37.499600C75.800800,43.599600,70.900800,48.499600,64.800800,49.099600L64.800800,60.799600L68.700800,60.799600L68.700800,55.899600C68.700800,55.299600,69.100800,54.799600,69.600800,54.699600C70.500800,54.399600,71.400800,53.999600,72.300800,53.599600C72.800800,53.299600,73.400800,53.399600,73.800800,53.799600L77.300800,57.299600L84.600800,49.999600L81.100800,46.499600C80.700800,46.099600,80.600800,45.499600,80.900800,44.999600C81.300800,44.099600,81.700800,43.199600,82.000800,42.299600Z" fill="rgb(45,255,179)" stroke="none" stroke-width="1"/></g></g><path id="e5dj80gcAxh7" d="M23.500000,68.499600C23.500000,70.599600,25.200000,72.399600,27.400000,72.399600L58.400000,72.399600C60.500000,72.399600,62.300000,70.699600,62.300000,68.499600L62.300000,64.599600L23.500000,64.599600L23.500000,68.499600ZM41.600000,67.299600L44.200000,67.299600L44.200000,69.899600L41.600000,69.899600L41.600000,67.299600Z" fill="rgb(86,0,227)" stroke="none" stroke-width="1"/><path id="e5dj80gcAxh8" d="M23.500000,26.899800C23.900000,26.599800,24.500000,26.199800,24.500000,26.199800L26.600000,24.799800L28.400000,26.499800C29.800000,27.999800,31.200000,29.399800,32.700000,30.799800L34.500000,32.599800L33,34.699800C32.600000,35.199800,31.900000,36.199800,31.900000,36.199800C32.300000,36.299800,32.800000,36.299800,33.200000,36.399800L33.300000,36.399800C33.400000,36.399800,33.400000,36.399800,33.500000,36.399800L36.200000,36.699800L36.200000,39.399800L36.200000,48.099800L33.600000,48.499800C33.400000,48.499800,33.200000,48.599800,33,48.599800C33,48.599800,32,48.799800,31.900000,48.799800L33.100000,50.499800L33.200000,50.599800L33.600000,51.199800L33.600000,52.099800L33.600000,53.299800L32.700000,54.199800C31.300000,55.699800,29.800000,57.099800,28.400000,58.499800L27.500000,59.399800L25.100000,59.399800L24.300000,58.699800C24,58.499800,23.700000,58.299800,23.500000,58.099800L23.500000,61.999800L62.300000,61.999800L62.300000,10.299800L23.500000,10.299800L23.500000,26.899800Z" fill="rgb(86,0,227)" stroke="none" stroke-width="1"/><path id="e5dj80gcAxh9" d="M58.400000,0L27.400000,0C25.300000,0,23.500000,1.700000,23.500000,3.900000L23.500000,7.800000L62.300000,7.800000L62.300000,3.900000C62.300000,1.700000,60.500000,0,58.400000,0Z" fill="rgb(86,0,227)" stroke="none" stroke-width="1"/><g id="e5dj80gcAxh10_tr" transform="translate(16.700001,42.499800) rotate(0)"><path id="e5dj80gcAxh10" d="M16.600000,48.999800C13.100000,48.999800,10.300000,46.199800,10.300000,42.599800C10.300000,39.099800,13.200000,36.199800,16.700000,36.199800C20.200000,36.199800,23,39.099800,23,42.599800C22.900000,46.099800,20.100000,48.999800,16.600000,48.999800ZM32.600000,39.399800C31.800000,39.299800,31,39.099800,30.200000,38.999800C30,38.999800,29.800000,38.899800,29.500000,38.899800C29.500000,38.899800,29.400000,38.899800,29.400000,38.799800C29.100000,37.799800,28.700000,36.899800,28.200000,35.999800C28.900000,34.999800,29.700000,33.999800,30.400000,32.999800C29,31.499800,27.500000,30.099800,26.100000,28.599800C26,28.599800,26,28.699800,25.900000,28.699800C24.900000,29.399800,24,29.999800,23,30.699800C22.900000,30.699800,22.900000,30.699800,22.900000,30.699800C22,30.199800,21.100000,29.899800,20.200000,29.599800C20.100000,29.599800,20.100000,29.599800,20.100000,29.499800C19.900000,28.299800,19.700000,27.099800,19.500000,25.899800C19.500000,25.899800,19.500000,25.899800,19.500000,25.799800L13.400000,25.799800C13.400000,25.999800,13.300000,26.199800,13.300000,26.399800L13,29.199800C13,29.299800,12.900000,29.499800,12.900000,29.599800C12.900000,29.699800,12.900000,29.699800,12.800000,29.699800C11.900000,29.899800,11,30.299800,10.200000,30.799800C10.100000,30.899800,10,30.899800,9.900000,30.799800C9,30.099800,8,29.499800,7.100000,28.799800C7.100000,28.799800,7,28.799800,7,28.699800C5.500000,30.099800,4.100000,31.499800,2.600000,32.999800L2.700000,33.099800C3.400000,34.099800,4.100000,34.999800,4.800000,35.999800C4.800000,35.999800,4.900000,36.099800,4.800000,36.099800C4.400000,36.999800,4,37.899800,3.800000,38.899800C3.800000,38.899800,3.800000,38.999800,3.700000,38.999800C3.100000,39.099800,2.500000,39.199800,1.800000,39.299800L0.100000,39.599800L0,39.599800L0,45.699800C0.200000,45.699800,0.400000,45.799800,0.600000,45.799800C1.500000,45.899800,2.400000,46.099800,3.200000,46.199800C3.300000,46.199800,3.500000,46.199800,3.600000,46.299800C3.600000,46.299800,3.700000,46.299800,3.700000,46.399800C4,47.199800,4.400000,48.099800,4.900000,48.999800C4.900000,49.099800,4.900000,49.099800,4.900000,49.199800C4.200000,50.199800,3.500000,51.199800,2.800000,52.199800C2.800000,52.199800,2.800000,52.299800,2.700000,52.299800C4.100000,53.699800,5.600000,55.099800,7,56.599800L7.100000,56.499800C8.100000,55.799800,9.100000,55.099800,10,54.399800C10.100000,54.299800,10.100000,54.399800,10.200000,54.399800C11,54.799800,11.900000,55.199800,12.800000,55.499800C13,55.599800,13,55.599800,13.100000,55.799800C13.300000,56.899800,13.500000,57.999800,13.700000,59.099800L13.700000,59.199800L19.800000,59.199800C20,57.999800,20.200000,56.799800,20.400000,55.599800C20.400000,55.499800,20.400000,55.499800,20.500000,55.499800C21.400000,55.199800,22.300000,54.799800,23.200000,54.399800C23.300000,54.399800,23.300000,54.399800,23.400000,54.399800C24.400000,55.099800,25.400000,55.799800,26.400000,56.499800C26.400000,56.499800,26.400000,56.499800,26.500000,56.499800C27.900000,55.099800,29.400000,53.699800,30.800000,52.199800C30.800000,52.199800,30.800000,52.199800,30.800000,52.099800C30.100000,51.099800,29.400000,50.099800,28.700000,49.099800C28.700000,48.999800,28.700000,48.999800,28.700000,48.899800C29.100000,48.099800,29.500000,47.299800,29.700000,46.399800C29.800000,46.199800,29.800000,46.199800,30,46.099800C30.900000,45.999800,31.900000,45.799800,32.800000,45.699800C33,45.699800,33.200000,45.599800,33.400000,45.599800L33.400000,39.499800C33,39.499800,32.800000,39.499800,32.600000,39.399800Z" transform="translate(-16.700001,-42.499800)" fill="rgb(86,0,227)" stroke="none" stroke-width="1"/></g></g><clipPath id="e5dj80gcAxh11"><rect id="e5dj80gcAxh12" width="88.100000" height="72.400000" rx="0" ry="0" fill="rgb(255,255,255)" stroke="none" stroke-width="1"/></clipPath></g></svg>