<svg id="eFAuPGTcw3X1" xmlns="http://www.w3.org/2000/svg" xmlns:xlink="http://www.w3.org/1999/xlink" viewBox="0 0 60 60" shape-rendering="geometricPrecision" text-rendering="geometricPrecision"><style><![CDATA[#eFAuPGTcw3X3_to {animation: eFAuPGTcw3X3_to__to 9000ms linear infinite normal forwards}@keyframes eFAuPGTcw3X3_to__to { 0% {transform: translate(31.939238px,28.175081px)} 3.333333% {transform: translate(25.457290px,34.542605px)} 6.666667% {transform: translate(34.779639px,25.251032px)} 10% {transform: translate(31.939238px,28.175081px)} 13.333333% {transform: translate(25.457290px,34.542605px)} 16.666667% {transform: translate(34.779639px,25.251032px)} 20% {transform: translate(31.939238px,28.175081px)} 23.333333% {transform: translate(25.457290px,34.542605px)} 26.666667% {transform: translate(34.779639px,25.251032px)} 30% {transform: translate(31.939238px,28.175081px)} 100% {transform: translate(31.939238px,28.175081px)}} #eFAuPGTcw3X4_to {animation: eFAuPGTcw3X4_to__to 9000ms linear infinite normal forwards}@keyframes eFAuPGTcw3X4_to__to { 0% {transform: translate(11.390432px,48.703945px)} 3.333333% {transform: translate(6.688394px,53.594098px)} 6.666667% {transform: translate(12.305831px,47.704050px)} 10% {transform: translate(11.390432px,48.703945px)} 13.333333% {transform: translate(6.688394px,53.594098px)} 16.666667% {transform: translate(12.305831px,47.704050px)} 20% {transform: translate(11.390432px,48.703945px)} 23.333333% {transform: translate(6.688394px,53.594098px)} 26.666667% {transform: translate(12.305831px,47.704050px)} 30% {transform: translate(11.390432px,48.703945px)} 100% {transform: translate(11.390432px,48.703945px)}} #eFAuPGTcw3X4_ts {animation: eFAuPGTcw3X4_ts__ts 9000ms linear infinite normal forwards}@keyframes eFAuPGTcw3X4_ts__ts { 0% {transform: scale(1,1)} 3.333333% {transform: scale(0.699872,0.699872)} 6.666667% {transform: scale(1.398953,1.411784)} 10% {transform: scale(1,1)} 13.333333% {transform: scale(0.699872,0.699872)} 16.666667% {transform: scale(1.398953,1.411784)} 20% {transform: scale(1,1)} 23.333333% {transform: scale(0.699872,0.699872)} 26.666667% {transform: scale(1.398953,1.411784)} 30% {transform: scale(1,1)} 100% {transform: scale(1,1)}}]]></style><g id="eFAuPGTcw3X2"><g id="eFAuPGTcw3X3_to" transform="translate(31.939238,28.175081)"><path id="eFAuPGTcw3X3" d="M48.430000,15.584000C48.435000,13.384000,46.729000,11.657000,44.541000,11.650000C42.361000,11.642000,40.605000,13.373000,40.593000,15.542000C40.579000,17.696000,42.347000,19.486000,44.501000,19.498000C46.666000,19.510000,48.424000,17.758000,48.430000,15.584000M28.846000,41.047000C28.781000,41.013000,28.716000,40.978000,28.649000,40.944000C28.054000,41.571000,27.474000,42.213000,26.861000,42.821000C25.291000,44.378000,23.479000,44.370000,21.912000,42.809000C20.397000,41.299000,18.885000,39.786000,17.377000,38.268000C15.812000,36.692000,15.810000,34.894000,17.378000,33.315000C17.971000,32.719000,18.594000,32.151000,19.203000,31.572000C19.176000,31.514000,19.151000,31.456000,19.124000,31.398000C18.915000,31.398000,18.705000,31.398000,18.496000,31.398000C15.451000,31.398000,12.406000,31.395000,9.361000,31.399000C8.695000,31.400000,8.082000,31.258000,7.562000,30.816000C6.630000,30.024000,6.462000,28.980000,7.101000,27.687000C8.514000,24.830000,9.939000,21.980000,11.369000,19.131000C11.631000,18.610000,11.882000,18.070000,12.233000,17.610000C13.263000,16.263000,14.642000,15.567000,16.353000,15.566000C19.459000,15.566000,22.564000,15.555000,25.670000,15.577000C26.134000,15.581000,26.396000,15.427000,26.643000,15.044000C28.537000,12.108000,30.734000,9.442000,33.532000,7.310000C37.290000,4.448000,41.562000,3.098000,46.241000,2.950000C49.149000,2.858000,52.044000,2.999000,54.908000,3.555000C55.876000,3.743000,56.338000,4.215000,56.515000,5.180000C57.159000,8.677000,57.332000,12.202000,56.982000,15.733000C56.464000,20.957000,54.244000,25.387000,50.517000,29.067000C48.845000,30.718000,47.003000,32.157000,45.021000,33.414000C44.656000,33.646000,44.512000,33.901000,44.514000,34.340000C44.532000,37.430000,44.514000,40.520000,44.528000,43.610000C44.537000,45.918000,43.537000,47.574000,41.458000,48.602000C38.496000,50.069000,35.554000,51.574000,32.598000,53.053000C30.601000,54.053000,28.854000,52.965000,28.849000,50.721000C28.843000,47.752000,28.846000,44.783000,28.846000,41.814000C28.846000,41.558000,28.846000,41.303000,28.846000,41.047000Z" transform="translate(-31.939238,-28.175081)" fill="rgb(86,0,227)" fill-rule="evenodd" stroke="none" stroke-width="1"/></g><g id="eFAuPGTcw3X4_to" transform="translate(11.390432,48.703945)"><g id="eFAuPGTcw3X4_ts" transform="scale(1,1)"><path id="eFAuPGTcw3X4" d="M12.913000,40.281000C16.252000,40.293000,18.837000,42.279000,19.594000,45.088000C20.351000,47.904000,19.211000,50.902000,16.607000,52.294000C14.589000,53.372000,12.451000,54.242000,10.315000,55.074000C8.386000,55.827000,6.390000,56.410000,4.417000,57.050000C3.472000,57.356000,2.735000,56.712000,3.018000,55.768000C4.284000,51.555000,5.601000,47.357000,7.732000,43.479000C8.935000,41.288000,10.930000,40.402000,12.913000,40.281000Z" transform="translate(-11.390432,-48.703945)" fill="rgb(45,255,179)" fill-rule="evenodd" stroke="none" stroke-width="1"/></g></g></g></svg>