<?xml version="1.0" encoding="utf-8"?>
<!-- Generator: Moho 13.0.2 build 610 -->
<!DOCTYPE svg PUBLIC "-//W3C//DTD SVG 1.1//EN" "http://www.w3.org/Graphics/SVG/1.1/DTD/svg11.dtd">
<svg version="1.1" id="Frame_0" xmlns="http://www.w3.org/2000/svg" xmlns:xlink="http://www.w3.org/1999/xlink" width="900px" height="720px">
<g id="landing-large-hexagon.svg">
<path fill="none" stroke="#ebe0fc" stroke-width="1" stroke-linecap="round" stroke-linejoin="round" d="M 37.882 317.825 C 83.388 241.237 128.893 164.654 174.401 88.074 C 195.075 53.279 232.769 32.184 273.239 32.760 C 411.467 34.724 549.697 36.691 687.934 38.660 C 723.870 39.172 757.423 56.732 778.332 85.967 C 804.381 122.407 830.437 158.851 856.502 195.299 C 876.097 222.698 882.451 257.402 873.853 289.967 C 854.074 364.805 834.303 439.648 814.540 514.499 C 803.719 555.448 770.932 586.919 729.574 596.051 C 585.434 627.864 441.300 659.687 297.170 691.518 C 251.709 701.555 204.744 682.704 178.829 644.028 C 132.936 575.529 87.045 507.039 41.154 438.556 C 16.869 402.310 15.597 355.331 37.882 317.825 M 148.710 310.645 C 177.563 262.079 206.417 213.519 235.274 164.964 C 255.949 130.168 293.642 109.074 334.113 109.650 C 429.015 110.997 523.921 112.347 618.833 113.701 C 654.768 114.212 688.324 131.773 709.226 161.007 C 723.789 181.382 738.360 201.761 752.938 222.145 C 772.533 249.544 778.886 284.248 770.288 316.814 C 757.810 364.011 745.338 411.214 732.874 458.424 C 722.060 499.379 689.266 530.851 647.911 539.982 C 550.154 561.555 452.403 583.135 354.655 604.725 C 309.195 614.762 262.229 595.911 236.315 557.235 C 208.202 515.273 180.091 473.319 151.982 431.371 C 127.698 395.130 126.425 348.150 148.710 310.645 "/>
<path fill="none" stroke="#ebe0fc" stroke-width="1" stroke-linecap="round" stroke-linejoin="round" d="M 178.548 308.488 C 202.933 267.441 227.320 226.400 251.710 185.363 C 272.385 150.568 310.078 129.474 350.549 130.049 C 433.827 131.231 517.109 132.416 600.397 133.605 C 636.332 134.116 669.886 151.676 690.789 180.910 C 702.273 196.975 713.763 213.044 725.261 229.118 C 744.850 256.517 751.209 291.221 742.605 323.786 C 732.086 363.569 721.574 403.357 711.070 443.153 C 700.255 484.104 667.462 515.576 626.107 524.707 C 540.793 543.533 455.486 562.366 370.182 581.207 C 324.722 591.244 277.756 572.401 251.842 533.724 C 228.499 498.881 205.159 464.046 181.821 429.217 C 157.536 392.973 156.263 345.994 178.548 308.488 M 148.710 310.645 C 177.563 262.079 206.417 213.519 235.274 164.964 C 255.949 130.168 293.642 109.074 334.113 109.650 C 429.015 110.997 523.921 112.347 618.833 113.701 C 654.768 114.212 688.324 131.773 709.226 161.007 C 723.789 181.382 738.360 201.761 752.938 222.145 C 772.533 249.544 778.886 284.248 770.288 316.814 C 757.810 364.011 745.338 411.214 732.874 458.424 C 722.060 499.379 689.266 530.851 647.911 539.982 C 550.154 561.555 452.403 583.135 354.655 604.725 C 309.195 614.762 262.229 595.911 236.315 557.235 C 208.202 515.273 180.091 473.319 151.982 431.371 C 127.698 395.130 126.425 348.150 148.710 310.645 "/>
<path fill="none" stroke="#ebe0fc" stroke-width="1" stroke-linecap="round" stroke-linejoin="round" d="M 265.614 302.938 C 276.870 283.984 288.130 265.035 299.392 246.091 C 320.067 211.296 357.760 190.202 398.231 190.778 C 447.353 191.472 496.479 192.171 545.610 192.875 C 581.545 193.386 615.099 210.945 636.002 240.180 C 638.430 243.579 640.864 246.984 643.304 250.393 C 662.894 277.792 669.253 312.497 660.651 345.062 C 655.891 363.054 651.136 381.053 646.388 399.058 C 635.570 440.007 602.780 471.483 561.422 480.614 C 512.674 491.368 463.932 502.128 415.193 512.897 C 369.734 522.934 322.768 504.083 296.854 465.407 C 287.528 451.487 278.206 437.574 268.885 423.667 C 244.601 387.423 243.328 340.444 265.614 302.938 M 178.548 308.488 C 202.933 267.441 227.320 226.400 251.710 185.363 C 272.385 150.568 310.078 129.474 350.549 130.049 C 433.827 131.231 517.109 132.416 600.397 133.605 C 636.332 134.116 669.886 151.676 690.789 180.910 C 702.273 196.975 713.763 213.044 725.261 229.118 C 744.850 256.517 751.209 291.221 742.605 323.786 C 732.086 363.569 721.574 403.357 711.070 443.153 C 700.255 484.104 667.462 515.576 626.107 524.707 C 540.793 543.533 455.486 562.366 370.182 581.207 C 324.722 591.244 277.756 572.401 251.842 533.724 C 228.499 498.881 205.159 464.046 181.821 429.217 C 157.536 392.973 156.263 345.994 178.548 308.488 "/>
</g>
</svg>
