<svg id="e9eb7X1rkIH1" xmlns="http://www.w3.org/2000/svg" xmlns:xlink="http://www.w3.org/1999/xlink" viewBox="0 0 240 240" shape-rendering="geometricPrecision" text-rendering="geometricPrecision"><style><![CDATA[#e9eb7X1rkIH1{pointer-events: all}#e9eb7X1rkIH1.hover #e9eb7X1rkIH3_tr {animation: e9eb7X1rkIH3_tr__tr 4000ms linear infinite normal forwards}@keyframes e9eb7X1rkIH3_tr__tr { 0% {transform: translate(66.281296px,138.714278px) rotate(0deg)} 25% {transform: translate(66.281296px,138.714278px) rotate(-4.366135deg)} 50% {transform: translate(66.281296px,138.714278px) rotate(0deg)} 75% {transform: translate(66.281296px,138.714278px) rotate(-4.366135deg)} 100% {transform: translate(66.281296px,138.714278px) rotate(0deg)}} #e9eb7X1rkIH1.hover #e9eb7X1rkIH5_to {animation: e9eb7X1rkIH5_to__to 4000ms linear infinite normal forwards}@keyframes e9eb7X1rkIH5_to__to { 0% {transform: translate(115.113973px,93.246096px)} 25% {transform: translate(115.113973px,84.476087px)} 50% {transform: translate(115.113973px,93.246096px)} 75% {transform: translate(115.113973px,84.476087px)} 100% {transform: translate(115.113973px,93.246096px)}} #e9eb7X1rkIH1.hover #e9eb7X1rkIH5_tr {animation: e9eb7X1rkIH5_tr__tr 4000ms linear infinite normal forwards}@keyframes e9eb7X1rkIH5_tr__tr { 0% {transform: rotate(-0.307514deg)} 15% {transform: rotate(-0.307514deg)} 20% {transform: rotate(-16.149579deg)} 25% {transform: rotate(13.021518deg)} 30% {transform: rotate(-13.641352deg)} 35% {transform: rotate(0.473988deg)} 65% {transform: rotate(-0.307514deg)} 70% {transform: rotate(-16.149579deg)} 75% {transform: rotate(13.021518deg)} 80% {transform: rotate(-13.641352deg)} 85% {transform: rotate(0.473988deg)} 100% {transform: rotate(0.473988deg)}}]]></style><g id="e9eb7X1rkIH2" transform="matrix(1.19488410419937 0 0 1.19488410419937 -11.19078473711120 -12.89979299894109)"><g id="e9eb7X1rkIH3_tr" transform="translate(66.281296,138.714278) rotate(0)"><path id="e9eb7X1rkIH3" d="M152.451000,118.946000C151.273000,116.897000,149.048000,115.625000,146.644000,115.625000C145.509000,115.625000,144.381000,115.915000,143.384000,116.465000L123.981000,127.166000C123.728000,127.305000,123.545000,127.541000,123.476000,127.818000C123.137000,129.171000,122.340000,131.059000,120.469000,132.375000C118.397000,133.830000,115.595000,134.134000,112.180000,133.276000C112.160000,133.271000,112.140000,133.265000,112.122000,133.260000L100.928000,129.856000C100.252000,129.651000,99.872100,128.944000,100.082000,128.281000C100.251000,127.751000,100.744000,127.395000,101.309000,127.395000C101.438000,127.395000,101.567000,127.415000,101.691000,127.452000L112.826000,130.838000C112.844000,130.843000,112.862000,130.848000,112.880000,130.853000C115.506000,131.502000,117.557000,131.321000,118.970000,130.329000C120.755000,129.075000,121.069000,126.871000,121.106000,126.547000C121.107000,126.536000,121.109000,126.526000,121.109000,126.516000C121.110000,126.510000,121.110000,126.507000,121.111000,126.507000C121.111000,126.503000,121.111000,126.500000,121.111000,126.497000C121.111000,126.494000,121.111000,126.492000,121.112000,126.490000C121.324000,123.771000,119.533000,121.261000,116.849000,120.519000L116.800000,120.505000C116.718000,120.478000,108.481000,117.844000,103.232000,116.377000C102.649000,116.215000,101.043000,115.836000,98.718800,115.836000C95.468900,115.836000,90.620700,116.590000,85.970500,120.190000L66.671600,135.477000C66.230200,135.827000,66.151900,136.456000,66.494500,136.899000L76.943900,150.416000C77.113300,150.635000,77.364800,150.778000,77.642600,150.815000C77.689200,150.821000,77.735700,150.824000,77.782400,150.824000C78.013100,150.824000,78.239100,150.750000,78.423900,150.610000L91.883400,140.461000C92.185800,140.234000,92.591300,140.148000,92.962900,140.234000L114.702000,145.265000C116.314000,145.638000,118.056000,145.397000,119.498000,144.601000L149.917000,127.824000C153.115000,126.060000,154.252000,122.077000,152.451000,118.946000Z" transform="scale(0.998102,1) translate(-66.281296,-138.714278)" fill="rgb(86,0,227)" stroke="none" stroke-width="1"/></g><g id="e9eb7X1rkIH4"><g id="e9eb7X1rkIH5_to" transform="translate(115.113973,93.246096)"><g id="e9eb7X1rkIH5_tr" transform="rotate(-0.307514)"><path id="e9eb7X1rkIH5" d="M139.859000,71.624000L100.927000,71.624000C99.662200,71.624000,98.636700,72.654000,98.636700,73.924700L98.636700,84.393500C98.636700,85.664100,99.662200,86.694100,100.927000,86.694100L101.782000,86.694100L101.782000,108.923000C101.782000,110.194000,102.808000,111.224000,104.072000,111.224000L136.713000,111.224000C137.978000,111.224000,139.003000,110.194000,139.003000,108.923000L139.003000,86.693900L139.859000,86.693900C141.124000,86.693900,142.149000,85.663900,142.149000,84.393200L142.149000,73.924700C142.149000,72.654000,141.124000,71.624000,139.859000,71.624000ZM125.210000,92.159900L115.575000,92.159900C114.565000,92.159900,113.743000,91.334200,113.743000,90.319400C113.743000,89.304600,114.565000,88.478900,115.575000,88.478900L125.210000,88.478900C126.221000,88.478900,127.042000,89.304600,127.042000,90.319400C127.042000,91.334200,126.221000,92.159900,125.210000,92.159900ZM137.569000,82.092600L136.713000,82.092600L104.072000,82.092600L103.217000,82.092600L103.217000,76.225300L137.569000,76.225300L137.569000,82.092600Z" transform="scale(0.899419,0.899419) translate(-120.546537,-93.246093)" fill="rgb(45,255,179)" stroke="none" stroke-width="1"/></g></g></g></g></svg>