<?xml version="1.0" encoding="utf-8"?>
<!-- Generator: Moho 13.0.2 build 610 -->
<!DOCTYPE svg PUBLIC "-//W3C//DTD SVG 1.1//EN" "http://www.w3.org/Graphics/SVG/1.1/DTD/svg11.dtd">
<svg version="1.1" id="Frame_0" xmlns="http://www.w3.org/2000/svg" xmlns:xlink="http://www.w3.org/1999/xlink" width="760px" height="280px">
<style>
#dash{ 
  stroke-dasharray: 15; 
}

#arrow-line{
  animation-duration: 20s;
  stroke-dasharray: 1160;
  animation-iteration-count: infinite;
  animation-name: arrow-line;
  animation-timing-function: linear;
}

@keyframes arrow-line{
 to{
    stroke-dashoffset: 2320;
 }
}

#arrow {
 offset-path: path('M 253.460 141.683 C 253.162 214.042 201.806 263.886 130.766 263.922 C 60.052 263.959 8.785 213.195 8.398 142.482 C 8.009 71.421 59.085 19.515 130.147 19.224 C 200.528 18.936 253.906 80.967 253.087 141.788 C 252.157 210.917 311.629 265.140 385.958 265.012 C 456.402 264.891 504.091 197.960 503.121 140.946 C 502.109 81.485 554.713 18.870 625.784 18.568 C 697.965 18.260 751.451 69.999 751.039 142.180 C 750.626 214.539 696.356 265.837 624.006 264.591 C 552.755 263.365 503.650 196.952 502.747 140.173 C 501.805 81.004 451.031 19.833 380.625 19.155 C 308.310 18.458 253.712 80.463 253.460 141.683 ');
 animation: arrow-path 20s infinite reverse linear;
}
          
@keyframes arrow-path {
  0% { offset-distance: 0%; }
  100% { offset-distance: 100%; }
}            
</style>

<!-- <path id='dash' fill="none" stroke="#A7A9AC" stroke-width="1.5" stroke-linecap="round" stroke-linejoin="round" d="M 179.865 254.982 C 165.056 260.791 148.526 263.913 130.766 263.922 C 113.088 263.932 96.625 260.766 81.868 254.907 C 67.112 249.048 54.062 240.496 43.209 229.733 C 32.357 218.971 23.703 205.997 17.737 191.294 C 11.771 176.592 8.495 160.160 8.398 142.482 C 8.301 124.717 11.420 108.149 17.264 93.285 C 23.108 78.421 31.677 65.262 42.478 54.314 C 53.280 43.366 66.315 34.630 81.090 28.613 C 95.865 22.596 112.382 19.297 130.147 19.224 C 147.743 19.152 164.275 22.975 179.164 29.700 C 194.052 36.425 207.297 46.053 218.317 57.590 C 229.337 69.127 238.132 82.574 244.120 96.938 M 263.003 190.223 C 269.609 205.026 279.279 218.281 291.300 229.371 C 303.322 240.462 317.695 249.388 333.708 255.533 C 349.722 261.679 367.376 265.044 385.958 265.012 C 403.569 264.981 419.758 260.776 434.120 253.593 C 448.482 246.410 461.017 236.251 471.320 224.314 C 481.623 212.376 489.695 198.661 495.130 184.367 M 511.866 96.782 C 517.766 82.546 526.467 69.135 537.421 57.573 C 548.376 46.011 561.582 36.297 576.492 29.455 C 591.403 22.613 608.016 18.643 625.784 18.568 C 643.829 18.491 660.706 21.667 675.864 27.602 C 691.023 33.537 704.463 42.231 715.634 53.190 C 726.805 64.150 735.708 77.375 741.792 92.371 C 747.877 107.367 751.142 124.135 751.039 142.180 C 750.936 160.270 747.467 177.043 741.190 192.008 C 734.914 206.974 725.831 220.131 714.499 230.987 C 703.168 241.844 689.588 250.401 674.320 256.165 C 659.051 261.930 642.094 264.903 624.006 264.591 C 606.194 264.285 589.765 259.904 575.128 252.618 C 560.490 245.332 547.644 235.141 536.996 223.214 C 526.348 211.287 517.899 197.624 512.055 183.394 M 493.169 96.397 C 487.176 82.331 478.541 69.117 467.735 57.730 C 456.929 46.343 443.952 36.784 429.277 30.029 C 414.601 23.275 398.227 19.324 380.625 19.155 C 362.546 18.981 345.575 22.725 330.283 29.397 C 314.991 36.068 301.379 45.667 290.019 57.200 C 278.659 68.733 269.551 82.202 263.267 96.613 M 244.153 191.304 C 238.187 206.153 229.519 219.168 218.641 229.924 C 207.763 240.679 194.674 249.174 179.865 254.982 "/> -->
<path id='dash' fill="none" stroke="#A7A9AC" stroke-width="1.5" stroke-linecap="round" stroke-linejoin="round" d="M 253.460 141.683 C 253.162 214.042 201.806 263.886 130.766 263.922 C 60.052 263.959 8.785 213.195 8.398 142.482 C 8.009 71.421 59.085 19.515 130.147 19.224 C 200.528 18.936 253.906 80.967 253.087 141.788 C 252.157 210.917 311.629 265.140 385.958 265.012 C 456.402 264.891 504.091 197.960 503.121 140.946 C 502.109 81.485 554.713 18.870 625.784 18.568 C 697.965 18.260 751.451 69.999 751.039 142.180 C 750.626 214.539 696.356 265.837 624.006 264.591 C 552.755 263.365 503.650 196.952 502.747 140.173 C 501.805 81.004 451.031 19.833 380.625 19.155 C 308.310 18.458 253.712 80.463 253.460 141.683 "/>

<path id='arrow-line' fill="none" stroke="#2dffb3" stroke-width="6" stroke-linecap="flat" stroke-linejoin="round" d="M 253.460 141.683 C 253.162 214.042 201.806 263.886 130.766 263.922 C 60.052 263.959 8.785 213.195 8.398 142.482 C 8.009 71.421 59.085 19.515 130.147 19.224 C 200.528 18.936 253.906 80.967 253.087 141.788 C 252.157 210.917 311.629 265.140 385.958 265.012 C 456.402 264.891 504.091 197.960 503.121 140.946 C 502.109 81.485 554.713 18.870 625.784 18.568 C 697.965 18.260 751.451 69.999 751.039 142.180 C 750.626 214.539 696.356 265.837 624.006 264.591 C 552.755 263.365 503.650 196.952 502.747 140.173 C 501.805 81.004 451.031 19.833 380.625 19.155 C 308.310 18.458 253.712 80.463 253.460 141.683 "/>
<path transform="translate(-20,-10)" id="arrow"  fill="#2dffb3" fill-rule="evenodd" stroke="#000000" stroke-width="0" stroke-linecap="round" stroke-linejoin="round" d="M 19.827 0.174 C 19.827 0.175 19.827 10.000 19.827 10.001 C 19.827 10.002 19.827 19.826 19.827 19.827 C 19.825 19.827 0.175 10.002 0.174 10.001 C 0.173 10.000 19.825 0.174 19.827 0.174 Z"/>

</svg>