<svg width="235" height="233" viewBox="0 0 235 233" fill="none" xmlns="http://www.w3.org/2000/svg">
<g filter="url(#filter0_d)">
<ellipse cx="117.5" cy="112.284" rx="97.5" ry="96.1282" fill="white"/>
</g>
<path d="M152.451 118.946C151.273 116.897 149.048 115.625 146.644 115.625C145.509 115.625 144.381 115.915 143.384 116.465L123.981 127.166C123.728 127.305 123.545 127.541 123.476 127.818C123.137 129.171 122.34 131.059 120.469 132.375C118.397 133.83 115.595 134.134 112.18 133.276C112.16 133.271 112.14 133.265 112.122 133.26L100.928 129.856C100.252 129.651 99.8721 128.944 100.082 128.281C100.251 127.751 100.744 127.395 101.309 127.395C101.438 127.395 101.567 127.415 101.691 127.452L112.826 130.838C112.844 130.843 112.862 130.848 112.88 130.853C115.506 131.502 117.557 131.321 118.97 130.329C120.755 129.075 121.069 126.871 121.106 126.547C121.107 126.536 121.109 126.526 121.109 126.516C121.11 126.51 121.11 126.507 121.111 126.507C121.111 126.503 121.111 126.5 121.111 126.497C121.111 126.494 121.111 126.492 121.112 126.49C121.324 123.771 119.533 121.261 116.849 120.519L116.8 120.505C116.718 120.478 108.481 117.844 103.232 116.377C102.649 116.215 101.043 115.836 98.7188 115.836C95.4689 115.836 90.6207 116.59 85.9705 120.19L66.6716 135.477C66.2302 135.827 66.1519 136.456 66.4945 136.899L76.9439 150.416C77.1133 150.635 77.3648 150.778 77.6426 150.815C77.6892 150.821 77.7357 150.824 77.7824 150.824C78.0131 150.824 78.2391 150.75 78.4239 150.61L91.8834 140.461C92.1858 140.234 92.5913 140.148 92.9629 140.234L114.702 145.265C116.314 145.638 118.056 145.397 119.498 144.601L149.917 127.824C153.115 126.06 154.252 122.077 152.451 118.946Z" fill="#5600E3"/>
<path d="M139.859 71.624H100.927C99.6622 71.624 98.6367 72.654 98.6367 73.9247V84.3935C98.6367 85.6641 99.6622 86.6941 100.927 86.6941H101.782V108.923C101.782 110.194 102.808 111.224 104.072 111.224H136.713C137.978 111.224 139.003 110.194 139.003 108.923V86.6939H139.859C141.124 86.6939 142.149 85.6639 142.149 84.3932V73.9247C142.149 72.654 141.124 71.624 139.859 71.624ZM125.21 92.1599H115.575C114.565 92.1599 113.743 91.3342 113.743 90.3194C113.743 89.3046 114.565 88.4789 115.575 88.4789H125.21C126.221 88.4789 127.042 89.3046 127.042 90.3194C127.042 91.3342 126.221 92.1599 125.21 92.1599ZM137.569 82.0926H136.713H104.072H103.217V76.2253H137.569V82.0926Z" fill="#2DFFB3"/>
<defs>
<filter id="filter0_d" x="0" y="0.155762" width="235" height="232.256" filterUnits="userSpaceOnUse" color-interpolation-filters="sRGB">
<feFlood flood-opacity="0" result="BackgroundImageFix"/>
<feColorMatrix in="SourceAlpha" type="matrix" values="0 0 0 0 0 0 0 0 0 0 0 0 0 0 0 0 0 0 127 0"/>
<feOffset dy="4"/>
<feGaussianBlur stdDeviation="10"/>
<feColorMatrix type="matrix" values="0 0 0 0 0 0 0 0 0 0 0 0 0 0 0 0 0 0 0.2 0"/>
<feBlend mode="normal" in2="BackgroundImageFix" result="effect1_dropShadow"/>
<feBlend mode="normal" in="SourceGraphic" in2="effect1_dropShadow" result="shape"/>
</filter>
</defs>
</svg>
