<svg width="235" height="233" viewBox="0 0 235 233" fill="none" xmlns="http://www.w3.org/2000/svg">
<g filter="url(#filter0_d)">
<ellipse cx="117.5" cy="112.284" rx="97.5" ry="96.1282" fill="white"/>
</g>
<g clip-path="url(#clip0)">
<path d="M86.5761 111.081L108.745 89.1906V94.5045H115.525V81.1361C115.525 79.2979 113.999 77.7939 112.135 77.7939H98.5759V84.4782H103.966L81.627 106.436L86.5761 111.081Z" fill="#2DFFB3"/>
<path d="M146.033 84.478H125.694C123.83 84.478 122.304 85.982 122.304 87.8201V101.189H105.356C103.491 101.189 101.966 102.693 101.966 104.531V117.899H85.0167C83.1524 117.899 81.627 119.403 81.627 121.241V141.294C81.627 143.132 83.1524 144.636 85.0167 144.636H146.033C147.897 144.636 149.423 143.132 149.423 141.294V87.8201C149.423 85.982 147.897 84.478 146.033 84.478Z" fill="#5600E3"/>
</g>
<defs>
<filter id="filter0_d" x="0" y="0.155762" width="235" height="232.256" filterUnits="userSpaceOnUse" color-interpolation-filters="sRGB">
<feFlood flood-opacity="0" result="BackgroundImageFix"/>
<feColorMatrix in="SourceAlpha" type="matrix" values="0 0 0 0 0 0 0 0 0 0 0 0 0 0 0 0 0 0 127 0"/>
<feOffset dy="4"/>
<feGaussianBlur stdDeviation="10"/>
<feColorMatrix type="matrix" values="0 0 0 0 0 0 0 0 0 0 0 0 0 0 0 0 0 0 0.2 0"/>
<feBlend mode="normal" in2="BackgroundImageFix" result="effect1_dropShadow"/>
<feBlend mode="normal" in="SourceGraphic" in2="effect1_dropShadow" result="shape"/>
</filter>
<clipPath id="clip0">
<rect width="67.7959" height="66.8423" fill="white" transform="translate(81.627 77.7939)"/>
</clipPath>
</defs>
</svg>
