<?xml version="1.0" encoding="utf-8"?>
<!-- Generator: Moho 13.0.2 build 610 -->
<!DOCTYPE svg PUBLIC "-//W3C//DTD SVG 1.1//EN" "http://www.w3.org/Graphics/SVG/1.1/DTD/svg11.dtd">
<svg version="1.1" id="Frame_0" xmlns="http://www.w3.org/2000/svg" xmlns:xlink="http://www.w3.org/1999/xlink" width="500px" height="500px">
<g id="Layer_1">
<path fill="#f7f4ff" fill-rule="evenodd" stroke="#000000" stroke-width="3" stroke-linecap="round" stroke-linejoin="round" d="M -154.023 -101.776 C -153.928 -101.776 795.648 -101.776 795.743 -101.776 C 795.743 -101.705 795.743 605.012 795.743 605.083 C 795.648 605.083 -153.928 605.083 -154.023 605.083 C -154.023 605.012 -154.023 -101.705 -154.023 -101.776 Z"/>
</g>
<g id="Group_355.svg">
<path fill="#e8ecfb" fill-rule="evenodd" stroke="none" d="M 87.330 123.796 C 23.621 144.821 43.852 232.236 71.683 274.430 C 89.205 300.994 113.368 321.463 143.135 332.686 C 182.151 347.389 225.568 349.160 266.764 346.936 C 339.539 343.003 426.598 324.161 459.603 249.699 C 476.249 212.138 476.799 136.625 426.699 124.908 C 414.190 121.984 401.069 123.364 388.539 126.164 C 355.390 133.577 324.687 142.576 290.357 143.503 C 254.499 144.471 218.722 140.105 183.454 133.845 C 164.975 130.550 147.556 122.787 128.954 120.089 C 115.385 118.113 100.655 119.389 87.330 123.796 Z"/>
<path fill="#e8ecfb" fill-rule="evenodd" stroke="none" d="M 273.495 465.337 C 342.644 465.337 398.698 452.136 398.698 435.852 C 398.698 419.567 342.644 406.366 273.495 406.366 C 204.348 406.366 148.292 419.567 148.292 435.852 C 148.292 452.136 204.348 465.337 273.495 465.337 Z"/>
<path fill="#e2a63b" fill-rule="evenodd" stroke="none" d="M 360.900 418.696 C 360.897 425.260 360.897 431.827 360.900 438.398 C 360.900 445.100 343.127 450.730 321.376 450.730 C 299.624 450.730 282.249 445.369 282.249 438.667 C 282.247 437.903 282.247 437.144 282.249 436.388 C 282.115 431.157 281.982 425.930 281.852 420.706 C 281.894 420.702 281.938 420.702 281.985 420.706 C 284.902 426.470 301.216 431.026 320.712 431.026 C 340.209 431.026 360.369 425.397 360.369 418.696 C 360.543 418.692 360.720 418.692 360.900 418.696 Z"/>
<path fill="#f4b844" fill-rule="evenodd" stroke="none" d="M 320.314 345.257 C 320.311 351.777 320.312 358.299 320.314 364.824 C 320.179 364.821 320.046 364.821 319.916 364.824 C 319.916 371.659 301.613 377.154 280.127 377.154 C 271.771 377.288 263.283 376.350 255.193 374.340 C 255.058 374.471 254.925 374.605 254.795 374.742 C 250.683 371.391 246.174 368.710 241.133 367.102 C 241.132 366.965 241.132 366.831 241.133 366.700 C 240.955 359.817 240.778 352.938 240.603 346.061 C 241.930 352.360 259.039 357.453 279.862 357.453 C 300.685 357.453 319.915 352.093 319.916 345.392 C 319.916 345.257 320.314 345.257 320.314 345.257 Z"/>
<path fill="#fedb41" fill-rule="evenodd" stroke="none" d="M 320.314 345.656 C 320.314 352.357 302.011 357.717 280.260 357.717 C 258.508 357.717 242.061 352.625 240.735 346.326 C 240.735 346.191 240.603 345.789 240.603 345.521 C 240.604 338.820 258.376 333.192 280.260 333.192 C 302.276 333.192 320.314 338.687 320.314 345.656 Z"/>
<path fill="#f4b844" fill-rule="evenodd" stroke="none" d="M 282.117 420.709 C 282.070 419.321 282.026 417.936 281.984 416.554 C 281.849 410.966 281.716 405.381 281.586 399.800 C 282.912 406.100 300.022 411.193 320.845 411.193 C 341.668 411.193 360.103 405.832 360.634 399.264 C 360.675 399.261 360.719 399.261 360.767 399.264 C 360.764 405.739 360.764 412.217 360.767 418.699 C 360.675 418.695 360.587 418.695 360.501 418.699 C 360.501 425.400 342.596 431.030 320.845 431.030 C 299.093 431.030 285.034 426.607 282.117 420.709 Z"/>
<path fill="#e2a63b" fill-rule="evenodd" stroke="none" d="M 255.722 433.305 C 260.763 428.615 264.609 422.720 266.599 416.155 C 266.906 416.152 267.215 416.152 267.527 416.155 C 271.638 416.557 275.617 416.691 280.126 416.691 C 280.743 416.688 281.362 416.688 281.983 416.691 C 281.981 418.072 281.981 419.456 281.983 420.844 C 282.114 426.066 282.246 431.291 282.381 436.520 C 281.716 436.517 281.053 436.517 280.392 436.520 C 272.302 436.655 264.344 435.716 256.386 433.975 C 256.163 433.748 255.942 433.524 255.722 433.305 Z"/>
<path fill="#f4b844" fill-rule="evenodd" stroke="none" d="M 282.116 398.324 C 282.113 398.634 282.113 398.946 282.116 399.263 C 282.246 405.024 282.379 410.788 282.514 416.557 C 281.893 416.553 281.274 416.553 280.657 416.557 C 276.015 416.557 271.770 416.423 267.791 416.021 C 267.480 416.017 267.171 416.017 266.863 416.021 C 268.189 412.132 268.720 407.977 268.720 403.955 C 268.720 401.139 268.322 398.592 267.791 395.911 C 268.099 395.907 268.409 395.907 268.720 395.911 C 272.566 396.313 276.413 396.447 280.657 396.447 C 281.230 396.757 281.804 397.069 282.381 397.386 C 282.116 397.788 282.116 398.190 282.116 398.324 Z"/>
<path fill="#e2a63b" fill-rule="evenodd" stroke="none" d="M 255.192 374.337 C 263.282 376.348 271.771 377.286 280.126 377.152 C 301.745 377.152 319.916 371.791 319.916 364.823 C 320.046 364.819 320.178 364.819 320.313 364.823 C 320.311 372.146 320.311 379.472 320.313 386.802 C 300.154 386.802 283.840 391.626 281.719 397.791 C 281.141 397.475 280.566 397.163 279.994 396.853 C 275.883 396.853 272.036 396.719 268.323 396.317 C 268.011 396.313 267.702 396.313 267.394 396.317 C 265.670 387.740 261.293 380.101 254.662 374.472 C 254.837 374.424 255.013 374.379 255.192 374.337 Z"/>
<path fill="#fedb41" fill-rule="evenodd" stroke="none" d="M 360.767 398.998 C 360.764 399.129 360.764 399.263 360.767 399.400 C 360.237 405.966 342.331 411.326 320.978 411.326 C 299.624 411.326 282.913 406.235 281.719 399.936 C 281.716 399.620 281.716 399.307 281.719 398.998 C 281.719 398.597 281.719 398.194 281.851 397.926 C 283.841 391.762 300.287 386.939 320.447 386.939 C 320.621 386.935 320.798 386.935 320.978 386.939 C 342.597 386.804 360.767 392.298 360.767 398.998 Z"/>
<path fill="#fedb41" fill-rule="evenodd" stroke="none" d="M 267.926 396.316 C 266.069 387.740 261.427 379.967 254.795 374.070 C 250.684 370.318 245.909 367.772 240.736 366.297 C 237.023 364.958 233.044 364.421 229.065 364.421 C 207.048 364.287 189.276 381.977 189.010 404.089 C 188.878 426.335 206.385 444.293 228.269 444.561 C 238.481 444.561 248.031 440.808 255.591 433.974 C 260.763 429.149 264.609 422.984 266.599 416.284 C 267.926 412.398 268.456 408.511 268.456 404.357 C 268.721 401.677 267.926 398.996 267.926 396.316 Z"/>
<path fill="#e2a63b" fill-rule="evenodd" stroke="none" d="M 229.198 399.538 C 225.883 399.538 223.097 396.723 223.097 393.372 C 223.097 390.021 225.883 387.207 229.198 387.207 C 232.514 387.207 235.299 390.021 235.299 393.372 C 235.299 395.383 237.024 397.125 239.013 397.125 C 241.003 397.125 242.727 395.383 242.727 393.372 C 242.727 387.341 238.615 381.979 232.912 380.371 C 232.910 379.877 232.910 379.386 232.912 378.898 C 232.912 376.887 231.188 375.144 229.198 375.144 C 227.209 375.144 225.485 376.887 225.485 378.898 C 225.483 379.386 225.483 379.877 225.485 380.371 C 219.516 381.846 215.537 387.207 215.670 393.372 C 215.670 400.878 221.771 407.043 229.198 407.043 C 232.514 407.043 235.299 409.858 235.299 413.209 C 235.299 416.560 232.514 419.374 229.198 419.374 C 225.883 419.374 223.097 416.560 223.097 413.209 C 223.097 411.199 221.373 409.456 219.384 409.456 C 217.394 409.456 215.670 411.199 215.670 413.209 C 215.670 419.374 219.782 424.602 225.485 426.210 C 225.483 427.189 225.483 428.172 225.485 429.159 C 225.485 431.169 227.209 432.912 229.198 432.912 C 231.188 432.912 232.912 431.169 232.912 429.159 C 232.910 428.172 232.910 427.189 232.912 426.210 C 240.074 424.200 244.185 416.560 241.930 409.188 C 240.206 403.559 235.034 399.538 229.198 399.538 Z"/>
<path fill="#5600e3" fill-rule="evenodd" stroke="none" d="M 339.599 121.974 C 338.049 123.537 336.502 125.100 334.958 126.664 C 304.318 157.531 273.681 188.399 243.045 219.268 C 240.302 246.158 237.561 273.050 234.822 299.944 C 224.342 306.107 213.864 312.271 203.388 318.439 C 193.086 324.556 182.785 330.676 172.485 336.799 C 169.610 297.575 166.737 258.354 163.864 219.134 C 133.226 188.309 102.589 157.486 71.951 126.664 C 70.404 125.100 68.856 123.537 67.309 121.974 C 73.410 118.176 79.511 114.379 85.612 110.582 C 163.244 110.582 240.876 110.582 318.511 110.582 C 325.538 114.379 332.567 118.176 339.599 121.974 Z"/>
<path fill="#5600e3" fill-rule="evenodd" stroke="none" d="M 339.599 121.974 C 338.049 123.536 336.502 125.100 334.958 126.664 C 304.318 157.531 273.680 188.397 243.044 219.266 C 240.301 246.156 237.561 273.047 234.822 299.941 C 224.342 306.103 213.864 312.268 203.388 318.435 C 203.387 249.149 203.386 179.865 203.388 110.582 C 241.760 110.582 280.134 110.582 318.511 110.582 C 325.538 114.379 332.567 118.176 339.599 121.974 Z"/>
<path fill="#2dffb3" fill-rule="evenodd" stroke="none" d="M 339.599 60.458 C 248.834 60.458 158.072 60.458 67.309 60.458 C 67.309 80.650 67.309 100.842 67.309 121.034 C 158.072 121.033 248.834 121.033 339.599 121.034 C 339.597 100.842 339.597 80.650 339.599 60.458 Z"/>
<path fill="#1ff5a8" fill-rule="evenodd" stroke="none" d="M 339.467 60.458 C 294.105 60.458 248.746 60.458 203.388 60.458 C 203.386 80.649 203.386 100.841 203.388 121.032 C 248.746 121.032 294.105 121.032 339.467 121.032 C 339.464 100.841 339.464 80.649 339.467 60.458 Z"/>
<path fill="#ffa6a4" fill-rule="evenodd" stroke="none" d="M 327.147 224.835 C 327.147 224.835 327.705 223.676 327.677 220.991 C 327.621 217.657 326.980 212.656 326.839 212.204 C 326.588 211.412 337.229 208.021 337.229 208.021 C 337.229 208.021 354.293 207.146 356.807 205.223 C 359.348 203.302 361.470 202.511 360.297 204.489 C 358.147 208.106 353.148 213.390 352.058 214.125 C 350.942 214.860 337.704 218.223 337.452 218.223 C 337.201 218.223 337.285 226.643 337.285 226.643 C 333.903 226.039 330.524 225.436 327.147 224.835 Z"/>
<path fill="#2dffb3" fill-rule="evenodd" stroke="none" d="M 338.205 221.245 C 338.205 221.245 327.174 219.352 326.950 220.454 C 322.483 245.179 321.728 253.345 321.253 253.599 C 319.578 254.475 295.532 233.141 291.566 231.728 C 289.666 231.050 287.600 231.163 285.617 231.219 C 280.897 231.361 282.489 231.246 280.004 231.361 C 279.864 231.361 279.780 231.389 279.780 231.389 C 279.788 232.885 279.797 234.383 279.808 235.882 C 285.143 240.714 297.319 314.097 298.352 314.069 C 299.497 314.012 323.572 320.144 323.153 318.082 C 323.096 317.742 306.814 304.292 302.206 284.852 C 300.670 278.324 299.888 271.316 299.050 265.156 C 304.413 267.869 325.303 278.267 328.599 276.911 C 338.932 272.673 338.205 221.245 338.205 221.245 Z"/>
<path fill="#ffa6a4" fill-rule="evenodd" stroke="none" d="M 379.680 351.538 C 379.680 351.538 402.079 369.283 402.833 372.448 C 403.922 376.968 424.421 371.034 419.478 370.102 C 418.333 369.876 414.702 368.943 414.395 368.802 C 412.803 367.926 392.862 343.626 392.862 343.626 C 388.465 346.260 384.071 348.897 379.680 351.538 Z"/>
<path fill="#2e3192" fill-rule="evenodd" stroke="none" d="M 429.112 370.103 C 424.342 369.704 419.576 369.309 414.813 368.916 C 414.813 368.916 410.736 372.335 402.860 372.505 C 402.860 372.505 401.603 376.150 402.190 380.389 C 402.301 381.124 402.413 383.328 403.139 383.271 C 405.792 383.102 412.830 381.322 420.845 379.682 C 420.845 379.682 431.626 377.366 437.854 373.607 C 444.081 369.848 429.112 370.103 429.112 370.103 Z"/>
<path fill="#2b2a71" fill-rule="evenodd" stroke="none" d="M 279.278 307.005 C 279.278 307.005 295.672 309.803 313.826 305.508 C 334.828 300.535 358.036 295.957 364.850 299.941 C 370.324 303.163 404.508 355.438 404.508 355.438 C 400.102 358.684 395.698 361.933 391.298 365.186 C 378.746 350.961 366.197 336.738 353.651 322.518 C 353.651 322.518 305.614 340.461 294.835 338.455 C 270.286 333.934 269.923 314.097 279.278 307.005 Z"/>
<path fill="#2e2d7a" fill-rule="evenodd" stroke="none" d="M 297.236 296.465 C 302.707 303.037 308.181 309.612 313.658 316.189 C 303.499 319.313 293.343 322.440 283.188 325.570 C 281.883 319.379 280.579 313.191 279.278 307.005 C 285.262 303.490 291.247 299.976 297.236 296.465 Z"/>
<path fill="#ffa6a4" fill-rule="evenodd" stroke="none" d="M 330.582 386.606 C 330.582 386.606 329.576 414.015 328.962 418.678 C 328.348 423.312 340.468 437.214 338.905 432.383 C 338.542 431.280 337.620 427.579 337.620 427.240 C 337.620 425.403 342.116 394.122 342.116 394.122 C 338.269 391.613 334.424 389.108 330.582 386.606 Z"/>
<path fill="#2e3192" fill-rule="evenodd" stroke="none" d="M 343.484 440.942 C 341.554 436.502 339.627 432.065 337.703 427.633 C 337.703 427.633 332.788 425.627 328.906 418.704 C 328.906 418.704 325.164 419.298 321.729 421.868 C 321.142 422.321 317.120 425.259 317.400 425.966 C 318.433 428.481 323.879 433.877 329.856 439.755 C 329.856 439.755 338.318 446.650 344.546 450.408 C 350.830 454.166 343.484 440.942 343.484 440.942 Z"/>
<path fill="#2b2a71" fill-rule="evenodd" stroke="none" d="M 357.197 332.550 C 351.445 324.807 305.140 317.461 305.140 317.461 C 300.837 309.085 296.536 300.711 292.237 292.340 C 282.721 298.272 273.207 304.206 263.695 310.142 C 263.695 310.142 266.544 333.115 268.693 339.275 C 271.542 347.469 290.729 347.865 302.458 347.752 C 313.239 347.639 332.928 349.871 332.928 349.871 C 330.701 369.686 328.475 389.503 326.253 409.323 C 326.253 409.323 339.351 412.347 343.038 411.839 C 343.456 411.810 364.319 342.185 357.197 332.550 Z"/>
<path fill="#5600e3" fill-rule="evenodd" stroke="none" d="M 279.948 231.446 C 274.575 231.746 269.204 232.048 263.834 232.351 C 263.834 232.351 263.471 232.492 263.359 232.492 C 262.046 232.746 263.247 280.217 264.420 297.963 C 265.593 315.708 267.967 323.140 267.967 323.140 C 267.967 323.140 289.807 319.212 296.510 316.584 C 299.302 315.482 306.033 306.977 306.033 306.977 C 306.033 306.977 299.163 297.624 295.699 282.422 C 293.019 270.695 289.724 249.927 287.852 245.575 C 283.496 235.628 279.948 231.446 279.948 231.446 Z"/>
<path fill="#f9a5a5" fill-rule="evenodd" stroke="none" d="M 264.309 217.968 C 264.158 222.761 264.009 227.555 263.862 232.351 C 263.862 232.351 274.279 250.520 279.641 248.005 C 284.137 245.886 280.144 232.041 280.144 232.041 C 280.144 232.041 279.362 228.875 278.301 225.231 C 277.546 222.687 276.932 219.918 276.960 217.912 C 277.072 212.995 264.309 217.968 264.309 217.968 Z"/>
<path fill="#0b0754" fill-rule="evenodd" stroke="none" d="M 276.765 185.160 C 276.765 185.160 282.071 193.270 282.463 200.080 C 282.854 206.890 281.429 211.553 281.429 211.553 C 275.739 204.675 270.051 197.799 264.365 190.925 C 268.496 189.002 272.630 187.081 276.765 185.160 Z"/>
<path fill="#ffa6a4" fill-rule="evenodd" stroke="none" d="M 282.199 203.277 C 283.564 203.136 284.476 201.084 284.236 198.693 C 283.995 196.302 282.692 194.478 281.326 194.619 C 279.961 194.760 279.049 196.813 279.290 199.204 C 279.531 201.595 280.833 203.418 282.199 203.277 Z"/>
<path fill="#ffa6a4" fill-rule="evenodd" stroke="none" d="M 258.891 194.232 C 258.501 194.147 258.528 214.012 264.225 218.674 C 269.923 223.337 279.810 223.760 282.714 219.041 C 285.898 213.842 282.882 192.904 274.420 188.468 C 265.930 184.059 258.891 194.232 258.891 194.232 Z"/>
<path fill="#2e2e7d" fill-rule="evenodd" stroke="none" d="M 257.438 181.942 C 253.110 185.785 250.987 188.610 248.054 195.448 C 244.452 203.869 251.602 212.600 257.606 216.048 C 263.611 219.523 264.113 223.761 264.113 223.761 C 264.195 222.874 264.279 221.989 264.365 221.106 C 264.616 219.042 264.001 217.884 263.443 216.640 C 262.941 215.539 261.293 211.752 260.650 210.735 C 258.946 208.107 258.639 207.513 259.449 205.027 C 260.092 203.105 259.338 198.839 260.343 195.645 C 263.041 195.060 265.740 194.476 268.442 193.893 C 268.442 193.893 273.497 192.651 276.067 189.684 C 283.412 181.122 268.889 171.571 257.438 181.942 Z"/>
<path fill="#ffa6a4" fill-rule="evenodd" stroke="none" d="M 260.923 212.229 C 262.168 211.645 262.370 209.405 261.372 207.224 C 260.373 205.043 258.555 203.748 257.309 204.331 C 256.064 204.915 255.863 207.156 256.861 209.337 C 257.858 211.518 259.677 212.813 260.923 212.229 Z"/>
<path fill="#ffa6a4" fill-rule="evenodd" stroke="none" d="M 206.274 152.441 C 207.195 156.255 208.843 162.303 208.843 162.303 C 208.704 163.970 208.229 170.864 207.642 179.341 C 211.746 177.682 215.852 176.025 219.959 174.368 C 219.959 174.368 219.819 160.579 220.349 159.731 C 220.825 159.025 221.607 159.901 225.376 154.447 C 226.466 152.865 226.661 150.068 226.661 150.068 C 226.661 150.068 226.885 146.592 226.103 146.281 C 225.321 145.970 224.455 146.478 224.175 147.072 C 223.897 147.666 223.981 149.078 223.701 149.672 C 223.422 150.265 221.634 151.000 220.880 150.944 C 220.126 150.915 220.964 140.686 220.964 140.686 C 220.964 140.686 221.383 137.776 221.607 136.843 C 221.774 136.024 222.528 133.678 222.528 133.678 C 222.528 133.678 223.366 130.203 222.333 129.948 C 221.718 129.807 220.126 132.576 219.037 135.543 C 217.864 138.736 217.194 142.127 216.858 142.071 C 216.077 141.958 216.495 136.363 216.495 136.363 C 216.495 136.363 217.277 133.791 217.250 132.576 C 217.976 131.107 218.478 128.338 217.166 128.112 C 216.915 128.083 215.211 131.559 215.211 131.559 C 215.211 131.559 214.540 134.017 214.150 135.176 C 213.451 137.211 213.340 140.404 212.977 141.816 C 212.669 143.003 212.390 142.495 212.279 142.551 C 212.195 142.579 212.362 140.969 212.530 138.736 C 212.614 137.606 212.502 136.306 212.809 135.035 C 213.088 133.848 213.256 132.153 213.340 131.135 C 213.592 128.281 211.776 128.592 211.161 131.248 C 210.910 132.266 210.687 133.368 210.436 134.470 C 209.458 138.821 209.486 143.003 209.039 143.032 C 208.424 143.088 208.843 135.459 208.843 135.459 C 208.843 135.459 207.922 131.248 207.000 135.148 C 205.939 139.697 206.051 143.399 206.051 143.568 C 206.134 144.670 205.352 148.627 206.274 152.441 Z"/>
<path fill="#2dffb3" fill-rule="evenodd" stroke="none" d="M 263.833 232.379 C 263.833 232.379 247.886 231.616 243.753 229.723 C 241.267 228.592 220.741 211.836 220.741 211.836 C 220.814 196.906 220.888 181.977 220.964 167.049 C 216.149 166.681 211.336 166.313 206.524 165.947 C 206.524 165.947 199.040 215.453 201.638 220.878 C 204.318 226.473 234.341 249.503 240.346 259.505 C 243.809 265.270 251.015 343.598 252.104 344.304 C 259.868 348.402 283.885 352.470 283.299 350.012 C 267.715 281.404 263.833 232.379 263.833 232.379 Z"/>
<path fill="#ffa6a4" fill-rule="evenodd" stroke="none" d="M 333.906 213.164 C 333.906 213.164 338.347 211.243 339.548 210.847 C 340.749 210.452 344.547 209.717 344.547 209.717 C 344.547 209.717 350.468 203.585 351.975 203.415 C 353.484 203.246 348.513 210.113 348.513 210.113 C 347.821 210.780 347.132 211.449 346.446 212.119 C 346.446 212.119 349.769 209.237 350.412 208.841 C 351.054 208.446 356.053 201.127 357.310 201.607 C 358.567 202.087 355.159 207.230 353.511 209.943 C 351.836 212.684 344.240 214.351 344.240 214.351 C 340.793 213.954 337.348 213.558 333.906 213.164 Z"/>
<path fill="#fedb41" fill-rule="evenodd" stroke="none" d="M 370.396 163.599 C 368.539 155.022 363.897 147.248 357.266 141.352 C 353.154 137.599 348.380 135.053 343.206 133.579 C 339.493 132.239 335.514 131.703 331.536 131.703 C 309.519 131.569 291.746 149.259 291.480 171.371 C 291.348 193.617 308.855 211.575 330.739 211.843 C 340.952 211.843 350.502 208.091 358.062 201.256 C 363.234 196.431 367.080 190.267 369.070 183.567 C 370.396 179.680 370.927 175.793 370.926 171.639 C 371.192 168.959 370.396 166.278 370.396 163.599 Z"/>
<path fill="#e2a63b" fill-rule="evenodd" stroke="none" d="M 331.667 166.815 C 328.351 166.815 325.566 164.001 325.566 160.650 C 325.566 157.300 328.351 154.486 331.667 154.486 C 334.983 154.486 337.768 157.300 337.768 160.650 C 337.768 162.660 339.492 164.402 341.481 164.402 C 343.471 164.402 345.195 162.660 345.195 160.650 C 345.195 154.619 341.084 149.259 335.381 147.651 C 335.378 147.159 335.378 146.667 335.381 146.177 C 335.381 144.167 333.656 142.424 331.667 142.424 C 329.678 142.424 327.953 144.167 327.953 146.177 C 327.950 146.667 327.950 147.159 327.953 147.651 C 321.985 149.125 318.006 154.486 318.139 160.650 C 318.139 168.155 324.239 174.319 331.667 174.319 C 334.983 174.319 337.768 177.134 337.768 180.484 C 337.768 183.834 334.983 186.649 331.667 186.649 C 328.351 186.649 325.566 183.834 325.566 180.484 C 325.566 178.474 323.842 176.732 321.853 176.732 C 319.863 176.732 318.139 178.474 318.139 180.484 C 318.139 186.649 322.250 191.875 327.953 193.484 C 327.950 194.465 327.950 195.448 327.953 196.432 C 327.953 198.442 329.678 200.185 331.667 200.185 C 333.656 200.185 335.381 198.442 335.381 196.432 C 335.378 195.448 335.378 194.465 335.381 193.484 C 342.543 191.473 346.654 183.834 344.400 176.464 C 342.676 170.835 337.502 166.815 331.667 166.815 Z"/>
</g>
</svg>
