<svg width="1222" height="769" viewBox="0 0 1222 769" fill="none" xmlns="http://www.w3.org/2000/svg">
<path opacity="0.03" d="M1199.67 162.488C1171.54 100.658 1117.77 47.5719 1052.12 19.5716C886.631 -51.035 776.735 87.4274 643.786 149.552C582.324 178.273 516.458 178.044 451.2 161.276C383.795 143.952 324.265 107.83 254.247 96.4988C187.951 85.7899 113.065 96.4006 69.715 146.932C27.0095 196.678 7.24974 260.473 1.91604 322.859C-5.17171 405.452 23.3941 485.327 82.1007 548.368C152.835 624.346 249.665 674.19 348.786 712.833C509.549 775.482 684.451 803.384 832.399 695.902C876.179 664.103 911.581 624.247 949.49 586.946C988.115 548.925 1030.71 521.219 1075.89 490.697C1158.36 434.992 1222.69 350.172 1220.97 253.366C1220.44 222.287 1212.85 191.438 1199.67 162.488Z" fill="url(#paint0_linear)"/>
<defs>
<linearGradient id="paint0_linear" x1="610.935" y1="-48.8278" x2="610.935" y2="725.067" gradientUnits="userSpaceOnUse">
<stop stop-color="#2680C1"/>
<stop offset="1" stop-color="#2680C1" stop-opacity="0"/>
</linearGradient>
</defs>
</svg>
