<svg id="e74khPosBMn1" xmlns="http://www.w3.org/2000/svg" xmlns:xlink="http://www.w3.org/1999/xlink" viewBox="0 0 240 240" shape-rendering="geometricPrecision" text-rendering="geometricPrecision"><style><![CDATA[#e74khPosBMn1{pointer-events: all}#e74khPosBMn1.hover #e74khPosBMn4_tk {animation: e74khPosBMn4_tk__tk 4000ms linear infinite normal forwards}@keyframes e74khPosBMn4_tk__tk { 0% {transform: translate(97.033503px,139.773000px) skewX(0deg) skewY(0deg)} 25% {transform: translate(97.033503px,139.773000px) skewX(-4deg) skewY(0deg)} 50% {transform: translate(97.033503px,139.773000px) skewX(0deg) skewY(0deg)} 75% {transform: translate(97.033503px,139.773000px) skewX(-4deg) skewY(0deg)} 100% {transform: translate(97.033503px,139.773000px) skewX(0deg) skewY(0deg)}} #e74khPosBMn1.hover #e74khPosBMn5_tr {animation: e74khPosBMn5_tr__tr 4000ms linear infinite normal forwards}@keyframes e74khPosBMn5_tr__tr { 0% {transform: translate(127.117671px,93.999760px) rotate(0deg)} 25% {transform: translate(127.117671px,93.999760px) rotate(-17.564668deg)} 50% {transform: translate(127.117671px,93.999760px) rotate(0deg)} 75% {transform: translate(127.117671px,93.999760px) rotate(-17.564668deg)} 100% {transform: translate(127.117671px,93.999760px) rotate(0deg)}}]]></style><g id="e74khPosBMn2" transform="matrix(1.20103538575441 0 0 1.20103538575441 -22.71305993917289 -9.85485766034606)"><path id="e74khPosBMn3" d="M151.377000,134.162000L141.879000,121.037000C141.309000,120.276000,140.359000,119.991000,139.505000,120.371000L132.951000,123.129000C132.571000,123.320000,132.286000,123.605000,132.001000,123.890000L125.638000,134.352000C125.353000,134.923000,124.783000,135.208000,124.118000,135.303000L111.106000,136.444000C110.631000,136.444000,110.251000,136.730000,109.871000,137.015000L104.932000,141.961000C104.552000,142.341000,104.172000,142.531000,103.697000,142.531000L92.109800,143.387000C91.444900,143.387000,90.875100,143.768000,90.495100,144.433000L88.595600,147.857000C87.835700,149.189000,88.785500,150.805000,90.305200,150.805000L149.762000,150.805000C150.807000,150.805000,151.757000,149.949000,151.757000,148.808000L151.757000,135.303000C151.757000,134.923000,151.662000,134.447000,151.377000,134.162000Z" fill="rgb(86,0,227)" stroke="none" stroke-width="1"/><g id="e74khPosBMn4_tk" transform="translate(97.033503,139.773000) skewX(0) skewY(0)"><g id="e74khPosBMn4" transform="translate(-97.033503,-139.773000)"><g id="e74khPosBMn5_tr" transform="translate(127.117671,93.999760) rotate(0)"><path id="e74khPosBMn5" d="M126.204000,98.506900L126.499000,99.163100C126.784000,99.828900,127.354000,100.209000,128.019000,100.209000C128.209000,100.209000,128.493000,100.209000,128.683000,100.114000C129.538000,99.733800,129.918000,98.782700,129.633000,97.926800L128.683000,95.644200L129.728000,94.407800C130.868000,92.981200,130.678000,90.984000,129.253000,89.842700C128.303000,89.081900,127.164000,88.986800,126.119000,89.367200L121.275000,77.954400L133.147000,73.008900C134.002000,72.628500,134.477000,71.677400,134.097000,70.726300L130.203000,61.405900C129.823000,60.454900,128.873000,60.074400,127.924000,60.454900L116.146000,65.400400L115.671000,64.354200C115.291000,63.498300,114.342000,63.117800,113.487000,63.403200C112.632000,63.783600,112.252000,64.734600,112.537000,65.590600L120.924000,86.029000L126.204000,98.506900Z" transform="translate(-126.449019,-93.502815)" fill="rgb(45,255,179)" stroke="none" stroke-width="1"/></g><path id="e74khPosBMn6" d="M108.132000,97.470100C112.017000,97.508200,115.189000,94.379200,115.217000,90.489300C115.255000,86.599500,112.130000,83.422900,108.246000,83.394400C104.361000,83.356300,101.189000,86.485300,101.160000,90.375200C101.132000,94.265000,104.247000,97.432100,108.132000,97.470100Z" fill="rgb(86,0,227)" stroke="none" stroke-width="1"/><path id="e74khPosBMn7" d="M90.779100,116.663000C91.823800,116.663000,92.868600,116.187000,93.438500,115.236000L95.338100,112.478000C96.857700,110.195000,99.042300,108.388000,101.512000,107.342000L101.512000,118.660000L100.087000,127.980000L95.148100,139.773000L102.936000,139.203000L103.601000,138.537000L107.021000,130.263000C107.116000,129.978000,107.211000,129.692000,107.211000,129.407000L108.350000,121.703000L116.044000,124.842000L115.284000,132.736000L122.787000,132.070000L123.737000,122.940000C123.927000,121.323000,122.977000,119.706000,121.457000,119.135000L115.189000,116.472000L115.189000,105.060000L115.569000,104.965000C119.187000,104.033000,122.512000,102.130000,125.200000,99.524500L122.388000,92.772000L121.647000,93.646900C119.653000,96.119700,116.898000,97.926700,113.764000,98.687600L113.004000,98.877800C111.770000,99.163100,110.630000,99.353300,109.300000,99.353300L107.590000,99.353300C105.501000,99.353300,103.316000,99.638600,101.227000,100.304000C96.667800,101.731000,92.583700,104.679000,89.829300,108.674000L87.929700,111.432000C86.884900,112.954000,87.359800,114.951000,88.784500,115.902000C89.544300,116.377000,90.114200,116.663000,90.779100,116.663000Z" fill="rgb(86,0,227)" stroke="none" stroke-width="1"/></g></g></g></svg>