<svg width="235" height="233" viewBox="0 0 235 233" fill="none" xmlns="http://www.w3.org/2000/svg">
<g filter="url(#filter0_d)">
<ellipse cx="117.5" cy="112.284" rx="97.5" ry="96.1282" fill="white"/>
</g>
<g clip-path="url(#clip0)">
<path d="M151.377 134.162L141.879 121.037C141.309 120.276 140.359 119.991 139.505 120.371L132.951 123.129C132.571 123.32 132.286 123.605 132.001 123.89L125.638 134.352C125.353 134.923 124.783 135.208 124.118 135.303L111.106 136.444C110.631 136.444 110.251 136.73 109.871 137.015L104.932 141.961C104.552 142.341 104.172 142.531 103.697 142.531L92.1098 143.387C91.4449 143.387 90.8751 143.768 90.4951 144.433L88.5956 147.857C87.8357 149.189 88.7855 150.805 90.3052 150.805H149.762C150.807 150.805 151.757 149.949 151.757 148.808V135.303C151.757 134.923 151.662 134.447 151.377 134.162Z" fill="#5600E3"/>
<path d="M108.132 97.4701C112.017 97.5082 115.189 94.3792 115.217 90.4893C115.255 86.5995 112.13 83.4229 108.246 83.3944C104.361 83.3563 101.189 86.4853 101.16 90.3752C101.132 94.265 104.247 97.4321 108.132 97.4701Z" fill="#5600E3"/>
<path d="M126.204 98.5069L126.499 99.1631C126.784 99.8289 127.354 100.209 128.019 100.209C128.209 100.209 128.493 100.209 128.683 100.114C129.538 99.7338 129.918 98.7827 129.633 97.9268L128.683 95.6442L129.728 94.4078C130.868 92.9812 130.678 90.984 129.253 89.8427C128.303 89.0819 127.164 88.9868 126.119 89.3672L121.275 77.9544L133.147 73.0089C134.002 72.6285 134.477 71.6774 134.097 70.7263L130.203 61.4059C129.823 60.4549 128.873 60.0744 127.924 60.4549L116.146 65.4004L115.671 64.3542C115.291 63.4983 114.342 63.1178 113.487 63.4032C112.632 63.7836 112.252 64.7346 112.537 65.5906L120.924 86.029L126.204 98.5069Z" fill="#2DFFB3"/>
<path d="M90.7791 116.663C91.8238 116.663 92.8686 116.187 93.4385 115.236L95.3381 112.478C96.8577 110.195 99.0423 108.388 101.512 107.342V118.66L100.087 127.98L95.1481 139.773L102.936 139.203L103.601 138.537L107.021 130.263C107.116 129.978 107.211 129.692 107.211 129.407L108.35 121.703L116.044 124.842L115.284 132.736L122.787 132.07L123.737 122.94C123.927 121.323 122.977 119.706 121.457 119.135L115.189 116.472V105.06L115.569 104.965C119.187 104.033 122.512 102.13 125.2 99.5245L122.388 92.772L121.647 93.6469C119.653 96.1197 116.898 97.9267 113.764 98.6876L113.004 98.8778C111.77 99.1631 110.63 99.3533 109.3 99.3533H107.59C105.501 99.3533 103.316 99.6386 101.227 100.304C96.6678 101.731 92.5837 104.679 89.8293 108.674L87.9297 111.432C86.8849 112.954 87.3598 114.951 88.7845 115.902C89.5443 116.377 90.1142 116.663 90.7791 116.663Z" fill="#5600E3"/>
</g>
<defs>
<filter id="filter0_d" x="0" y="0.155762" width="235" height="232.256" filterUnits="userSpaceOnUse" color-interpolation-filters="sRGB">
<feFlood flood-opacity="0" result="BackgroundImageFix"/>
<feColorMatrix in="SourceAlpha" type="matrix" values="0 0 0 0 0 0 0 0 0 0 0 0 0 0 0 0 0 0 127 0"/>
<feOffset dy="4"/>
<feGaussianBlur stdDeviation="10"/>
<feColorMatrix type="matrix" values="0 0 0 0 0 0 0 0 0 0 0 0 0 0 0 0 0 0 0.2 0"/>
<feBlend mode="normal" in2="BackgroundImageFix" result="effect1_dropShadow"/>
<feBlend mode="normal" in="SourceGraphic" in2="effect1_dropShadow" result="shape"/>
</filter>
<clipPath id="clip0">
<rect width="64.3866" height="90.4937" fill="white" transform="translate(87.3691 60.312)"/>
</clipPath>
</defs>
</svg>
