<svg id="eRxEActlus91" xmlns="http://www.w3.org/2000/svg" xmlns:xlink="http://www.w3.org/1999/xlink" viewBox="0 0 240 233" shape-rendering="geometricPrecision" text-rendering="geometricPrecision"><style><![CDATA[#eRxEActlus91{pointer-events: all}#eRxEActlus91.hover #eRxEActlus93_ts {animation: eRxEActlus93_ts__ts 4000ms linear infinite normal forwards}@keyframes eRxEActlus93_ts__ts { 0% {transform: translate(116.499969px,155.308916px) scale(1.197583,1.197583)} 25% {transform: translate(116.499969px,155.308916px) scale(1.197583,1.197583)} 30% {transform: translate(116.499969px,155.308916px) scale(1.260895,1.097785)} 35% {transform: translate(116.499969px,155.308916px) scale(1.079298,1.275930)} 40% {transform: translate(116.499969px,155.308916px) scale(1.197583,1.197583)} 75% {transform: translate(116.499969px,155.308916px) scale(1.197583,1.197583)} 80% {transform: translate(116.499969px,155.308916px) scale(1.260895,1.097785)} 85% {transform: translate(116.499969px,155.308916px) scale(1.079298,1.275930)} 90% {transform: translate(116.499969px,155.308916px) scale(1.197583,1.197583)} 100% {transform: translate(116.499969px,155.308916px) scale(1.197583,1.197583)}} #eRxEActlus91.hover #eRxEActlus98_to {animation: eRxEActlus98_to__to 4000ms linear infinite normal forwards}@keyframes eRxEActlus98_to__to { 0% {transform: translate(99.600934px,91.830770px)} 25% {transform: translate(99.600934px,83.121713px)} 50% {transform: translate(99.600934px,91.830770px)} 75% {transform: translate(99.600934px,83.121713px)} 100% {transform: translate(99.600934px,91.830770px)}}]]></style><g id="eRxEActlus92" transform="matrix(1 0 0 1 3.50003051000003 1.28499984500004)"><g id="eRxEActlus93_ts" transform="translate(116.499969,155.308916) scale(1.197583,1.197583)"><g id="eRxEActlus93" transform="translate(-116.499970,-148.694022)" clip-path="url(#eRxEActlus96)"><g id="eRxEActlus94"><path id="eRxEActlus95" d="M147,88.480000L126.690000,88.480000C124.834893,88.474382,123.321946,89.965014,123.300000,91.820000L123.300000,105.190000L106.360000,105.190000C104.502662,105.178904,102.986501,106.672702,102.970000,108.530000L102.970000,121.900000L86,121.900000C84.142662,121.888904,82.626501,123.382702,82.610000,125.240000L82.610000,145.240000C82.604661,146.141628,82.959784,147.008017,83.596403,147.646513C84.233021,148.285010,85.098360,148.642683,86,148.640000L147,148.640000C148.858966,148.645573,150.373509,147.148901,150.390000,145.290000L150.390000,91.820000C150.373499,89.962702,148.857338,88.468904,147,88.480000Z" transform="matrix(0.94307306542813 0 0 1.01696657016300 6.63369568564337 -2.52174132332581)" fill="rgb(86,0,227)" stroke="none" stroke-width="1"/></g><clipPath id="eRxEActlus96"><rect id="eRxEActlus97" width="67.800000" height="66.840000" rx="0" ry="0" transform="matrix(1 0 0 1 82.63000000000000 81.79000000000001)" fill="none" stroke="none" stroke-width="1"/></clipPath></g></g><g id="eRxEActlus98_to" transform="translate(99.600934,91.830770)"><path id="eRxEActlus98" d="M87.580000,115.080000L109.750000,93.190000L109.750000,98.500000L116.530000,98.500000L116.530000,85.140000C116.513509,83.281099,114.998966,81.784427,113.140000,81.790000L99.580000,81.790000L99.580000,88.480000L105,88.480000L82.660000,110.480000Z" transform="scale(1.066621,1.066621) translate(-99.595001,-98.434994)" fill="rgb(45,255,179)" stroke="none" stroke-width="1"/></g></g></svg>