<svg id="ewFC456Ijur1" xmlns="http://www.w3.org/2000/svg" xmlns:xlink="http://www.w3.org/1999/xlink" viewBox="0 0 570 420" shape-rendering="geometricPrecision" text-rendering="geometricPrecision"><style><![CDATA[#ewFC456Ijur6_tr {animation: ewFC456Ijur6_tr__tr 10000ms linear infinite normal forwards}@keyframes ewFC456Ijur6_tr__tr { 0% {transform: translate(456.580475px,133.999584px) rotate(-90deg)} 100% {transform: translate(456.580475px,133.999584px) rotate(270deg)}} #ewFC456Ijur9_ts {animation: ewFC456Ijur9_ts__ts 10000ms linear infinite normal forwards}@keyframes ewFC456Ijur9_ts__ts { 0% {transform: translate(241.592000px,289.229000px) scale(1,1)} 25% {transform: translate(241.592000px,289.229000px) scale(0.967089,1.036912)} 50% {transform: translate(241.592000px,289.229000px) scale(1,1)} 75% {transform: translate(241.592000px,289.229000px) scale(0.967089,1.036912)} 100% {transform: translate(241.592000px,289.229000px) scale(1,1)}} #ewFC456Ijur16_tr {animation: ewFC456Ijur16_tr__tr 10000ms linear infinite normal forwards}@keyframes ewFC456Ijur16_tr__tr { 0% {transform: translate(248.361053px,59.028154px) rotate(0deg)} 25% {transform: translate(248.361053px,59.028154px) rotate(-12.505248deg)} 50% {transform: translate(248.361053px,59.028154px) rotate(0deg)} 75% {transform: translate(248.361053px,59.028154px) rotate(-12.505248deg)} 100% {transform: translate(248.361053px,59.028154px) rotate(0deg)}} #ewFC456Ijur23_tr {animation: ewFC456Ijur23_tr__tr 10000ms linear infinite normal forwards}@keyframes ewFC456Ijur23_tr__tr { 0% {transform: translate(232.600000px,50.127346px) rotate(0deg)} 25% {transform: translate(232.600000px,50.127346px) rotate(-4.755232deg)} 50% {transform: translate(232.600000px,50.127346px) rotate(0deg)} 75% {transform: translate(232.600000px,50.127346px) rotate(-4.755232deg)} 100% {transform: translate(232.600000px,50.127346px) rotate(0deg)}} #ewFC456Ijur28_tr {animation: ewFC456Ijur28_tr__tr 10000ms linear infinite normal forwards}@keyframes ewFC456Ijur28_tr__tr { 0% {transform: translate(214.554337px,65.695883px) rotate(0deg)} 25% {transform: translate(214.554337px,65.695883px) rotate(-3.965827deg)} 50% {transform: translate(214.554337px,65.695883px) rotate(0deg)} 75% {transform: translate(214.554337px,65.695883px) rotate(-3.965827deg)} 100% {transform: translate(214.554337px,65.695883px) rotate(0deg)}} #ewFC456Ijur58_ts {animation: ewFC456Ijur58_ts__ts 10000ms linear infinite normal forwards}@keyframes ewFC456Ijur58_ts__ts { 0% {transform: translate(296.548109px,388.666479px) scale(1,1)} 47% {transform: translate(296.548109px,388.666479px) scale(1,1)} 49% {transform: translate(296.548109px,388.666479px) scale(1.035857,0.949715)} 51% {transform: translate(296.548109px,388.666479px) scale(0.950157,1.029153)} 53% {transform: translate(296.548109px,388.666479px) scale(1,1)} 100% {transform: translate(296.548109px,388.666479px) scale(1,1)}} #ewFC456Ijur61_ts {animation: ewFC456Ijur61_ts__ts 10000ms linear infinite normal forwards}@keyframes ewFC456Ijur61_ts__ts { 0% {transform: translate(94.039080px,308.663291px) scale(1,1)} 10% {transform: translate(94.039080px,308.663291px) scale(1,1)} 12% {transform: translate(94.039080px,308.663291px) scale(1.160488,0.857748)} 14% {transform: translate(94.039080px,308.663291px) scale(0.794203,1.208775)} 16% {transform: translate(94.039080px,308.663291px) scale(1,1)} 73% {transform: translate(94.039080px,308.663291px) scale(1,1)} 75% {transform: translate(94.039080px,308.663291px) scale(1.160488,0.857748)} 77% {transform: translate(94.039080px,308.663291px) scale(0.794203,1.208775)} 79% {transform: translate(94.039080px,308.663291px) scale(1,1)} 100% {transform: translate(94.039080px,308.663291px) scale(1,1)}} #ewFC456Ijur68_tk {animation: ewFC456Ijur68_tk__tk 10000ms linear infinite normal forwards}@keyframes ewFC456Ijur68_tk__tk { 0% {transform: translate(433.794256px,396.579773px) skewX(-5deg) skewY(0deg)} 25% {transform: translate(433.794256px,396.579773px) skewX(5deg) skewY(0deg)} 50% {transform: translate(433.794256px,396.579773px) skewX(-5deg) skewY(0deg)} 75% {transform: translate(433.794256px,396.579773px) skewX(5deg) skewY(0deg)} 100% {transform: translate(433.794256px,396.579773px) skewX(-5deg) skewY(0deg)}} #ewFC456Ijur73_ts {animation: ewFC456Ijur73_ts__ts 10000ms linear infinite normal forwards}@keyframes ewFC456Ijur73_ts__ts { 0% {transform: translate(360.480408px,148.773727px) scale(1,1)} 28.800000% {transform: translate(360.480408px,148.773727px) scale(1,1)} 30.800000% {transform: translate(360.480408px,148.773727px) scale(1.160488,0.857748)} 32.800000% {transform: translate(360.480408px,148.773727px) scale(0.794203,1.208775)} 34.800000% {transform: translate(360.480408px,148.773727px) scale(1,1)} 88% {transform: translate(360.480408px,148.773727px) scale(1,1)} 90% {transform: translate(360.480408px,148.773727px) scale(1.160488,0.857748)} 92% {transform: translate(360.480408px,148.773727px) scale(0.794203,1.208775)} 94% {transform: translate(360.480408px,148.773727px) scale(1,1)} 100% {transform: translate(360.480408px,148.773727px) scale(1,1)}} #ewFC456Ijur80_tr {animation: ewFC456Ijur80_tr__tr 10000ms linear infinite normal forwards}@keyframes ewFC456Ijur80_tr__tr { 0% {transform: translate(84.400860px,167.966019px) rotate(0deg)} 100% {transform: translate(84.400860px,167.966019px) rotate(-360deg)}} #ewFC456Ijur83_tk {animation: ewFC456Ijur83_tk__tk 10000ms linear infinite normal forwards}@keyframes ewFC456Ijur83_tk__tk { 0% {transform: translate(59.103607px,399.752506px) skewX(-4.600000deg) skewY(0deg)} 25% {transform: translate(59.103607px,399.752506px) skewX(-12deg) skewY(0deg)} 50% {transform: translate(59.103607px,399.752506px) skewX(-4.600000deg) skewY(0deg)} 75% {transform: translate(59.103607px,399.752506px) skewX(-12deg) skewY(0deg)} 100% {transform: translate(59.103607px,399.752506px) skewX(-4.600000deg) skewY(0deg)}}]]></style><defs><linearGradient id="ewFC456Ijur3-fill" x1="294.908000" y1="456.107000" x2="289.451000" y2="326.584000" spreadMethod="pad" gradientUnits="userSpaceOnUse"><stop id="ewFC456Ijur3-fill-0" offset="0%" stop-color="rgb(38,128,193)"/><stop id="ewFC456Ijur3-fill-1" offset="100%" stop-color="rgba(38,128,193,0)"/></linearGradient><linearGradient id="ewFC456Ijur5-fill" x1="223.631000" y1="90.500100" x2="309.982000" y2="357.524000" spreadMethod="pad" gradientUnits="userSpaceOnUse"><stop id="ewFC456Ijur5-fill-0" offset="0%" stop-color="rgb(206,191,245)"/><stop id="ewFC456Ijur5-fill-1" offset="100%" stop-color="rgba(38,128,193,0)"/></linearGradient><linearGradient id="ewFC456Ijur7-fill" x1="463.578000" y1="63.948500" x2="452.896000" y2="170.899000" spreadMethod="pad" gradientUnits="userSpaceOnUse"><stop id="ewFC456Ijur7-fill-0" offset="0%" stop-color="rgb(255,255,255)"/><stop id="ewFC456Ijur7-fill-1" offset="33.630000%" stop-color="rgb(242,244,248)"/><stop id="ewFC456Ijur7-fill-2" offset="89.770000%" stop-color="rgb(215,223,236)"/><stop id="ewFC456Ijur7-fill-3" offset="99.220000%" stop-color="rgb(210,219,234)"/></linearGradient><linearGradient id="ewFC456Ijur8-fill" x1="450.939000" y1="190.582000" x2="461.258000" y2="87.265100" spreadMethod="pad" gradientUnits="userSpaceOnUse"><stop id="ewFC456Ijur8-fill-0" offset="0%" stop-color="rgb(255,255,255)"/><stop id="ewFC456Ijur8-fill-1" offset="32.480000%" stop-color="rgb(242,244,248)"/><stop id="ewFC456Ijur8-fill-2" offset="86.690000%" stop-color="rgb(215,223,236)"/><stop id="ewFC456Ijur8-fill-3" offset="95.810000%" stop-color="rgb(210,219,234)"/></linearGradient><linearGradient id="ewFC456Ijur81-fill" x1="90.050100" y1="111.129000" x2="78.385300" y2="227.919000" spreadMethod="pad" gradientUnits="userSpaceOnUse"><stop id="ewFC456Ijur81-fill-0" offset="0%" stop-color="rgb(255,255,255)"/><stop id="ewFC456Ijur81-fill-1" offset="33.630000%" stop-color="rgb(242,244,248)"/><stop id="ewFC456Ijur81-fill-2" offset="89.770000%" stop-color="rgb(215,223,236)"/><stop id="ewFC456Ijur81-fill-3" offset="99.220000%" stop-color="rgb(210,219,234)"/></linearGradient><linearGradient id="ewFC456Ijur82-fill" x1="76.248200" y1="249.413000" x2="87.517000" y2="136.590000" spreadMethod="pad" gradientUnits="userSpaceOnUse"><stop id="ewFC456Ijur82-fill-0" offset="0%" stop-color="rgb(255,255,255)"/><stop id="ewFC456Ijur82-fill-1" offset="32.480000%" stop-color="rgb(242,244,248)"/><stop id="ewFC456Ijur82-fill-2" offset="86.690000%" stop-color="rgb(215,223,236)"/><stop id="ewFC456Ijur82-fill-3" offset="95.810000%" stop-color="rgb(210,219,234)"/></linearGradient></defs><g id="ewFC456Ijur2" transform="matrix(0.96293240279029 0 0 0.96293240279029 18.77678743600995 10.58868386997031)"><path id="ewFC456Ijur3" d="M290.501000,410C450.948000,410,581.002000,397.899000,581.002000,382.999000C581,368.101000,450.948000,356,290.501000,356C130.052000,356,0,368.101000,0,382.999000C0,397.899000,130.052000,410,290.501000,410Z" transform="matrix(0.95574776163788 0 0 0.95574776163788 -1.17434006738000 27.93773981308181)" opacity="0.14" fill="url(#ewFC456Ijur3-fill)" stroke="none" stroke-width="1"/><path id="ewFC456Ijur4" d="M290.501000,410C450.948000,410,581.002000,397.899000,581.002000,382.999000C581,368.101000,450.948000,356,290.501000,356C130.052000,356,0,368.101000,0,382.999000C0,397.899000,130.052000,410,290.501000,410Z" transform="matrix(0.82866144985185 0 0 0.82866144985185 36.39129876789767 66.52302385441322)" fill="rgb(255,255,255)" stroke="none" stroke-width="1"/><path id="ewFC456Ijur5" d="M66.497100,268.268000C74.311900,286.174000,87.412300,302.183000,104.271000,312.248000C124.090000,324.082000,147.272000,328.810000,168.181000,338.257000C188.660000,347.510000,206.669000,360.964000,228.024000,368.718000C251.890000,377.383000,277.454000,379.940000,302.449000,375.123000C337.242000,368.418000,369.117000,350.154000,395.626000,327.056000C442.738000,286.010000,486.366000,221.377000,459.859000,157.068000C444.072000,118.771000,408.488000,80.570800,363.388000,99.315000C338.071000,109.837000,320.450000,132.267000,297.987000,147.176000C279.014000,159.770000,257.979000,166.660000,235.090000,162.999000C185.576000,155.082000,134.826000,118.162000,89.875900,159.894000C71.871700,176.603000,61.054700,200.931000,59.349800,225.024000C58.307700,239.740000,60.551200,254.646000,66.497100,268.268000Z" opacity="0.14" fill="url(#ewFC456Ijur5-fill)" stroke="none" stroke-width="1"/><g id="ewFC456Ijur6_tr" transform="translate(456.580475,133.999584) rotate(-90)"><g id="ewFC456Ijur6" transform="translate(-456.580475,-133.999584)"><path id="ewFC456Ijur7" d="M488.379000,129.625000L483.909000,129.176000C482.897000,129.075000,482.070000,128.339000,481.818000,127.363000C481.656000,126.763000,481.478000,126.164000,481.279000,125.588000C480.953000,124.628000,481.227000,123.560000,482.019000,122.913000L485.494000,120.068000C486.520000,119.225000,486.675000,117.712000,485.834000,116.686000L479.354000,108.769000C478.511000,107.743000,476.998000,107.586000,475.972000,108.429000L472.497000,111.274000C471.705000,111.918000,470.612000,111.982000,469.731000,111.469000C469.202000,111.157000,468.652000,110.869000,468.092000,110.588000C467.176000,110.141000,466.624000,109.185000,466.724000,108.174000L467.174000,103.703000C467.305000,102.380000,466.343000,101.200000,465.019000,101.066000L454.842000,100.045000C453.519000,99.914000,452.338000,100.877000,452.205000,102.200000L451.755000,106.670000C451.654000,107.682000,450.919000,108.509000,449.943000,108.762000C449.345000,108.923000,448.744000,109.101000,448.167000,109.300000C447.207000,109.626000,446.139000,109.352000,445.493000,108.560000L442.650000,105.085000C441.807000,104.059000,440.294000,103.905000,439.268000,104.745000L431.351000,111.225000C430.325000,112.068000,430.170000,113.581000,431.011000,114.607000L433.856000,118.082000C434.500000,118.874000,434.564000,119.967000,434.051000,120.848000C433.739000,121.377000,433.451000,121.927000,433.170000,122.487000C432.723000,123.403000,431.767000,123.956000,430.756000,123.855000L426.285000,123.405000C424.962000,123.274000,423.782000,124.237000,423.648000,125.560000L422.627000,135.737000C422.496000,137.061000,423.459000,138.241000,424.782000,138.374000L429.252000,138.824000C430.264000,138.925000,431.091000,139.660000,431.344000,140.637000C431.505000,141.234000,431.683000,141.836000,431.882000,142.412000C432.208000,143.372000,431.934000,144.440000,431.142000,145.086000L427.667000,147.931000C426.641000,148.775000,426.487000,150.287000,427.327000,151.313000L433.807000,159.231000C434.650000,160.257000,436.163000,160.411000,437.189000,159.571000L440.664000,156.725000C441.456000,156.081000,442.549000,156.018000,443.430000,156.531000C443.959000,156.842000,444.509000,157.130000,445.069000,157.411000C445.985000,157.859000,446.538000,158.814000,446.437000,159.826000L445.987000,164.296000C445.856000,165.620000,446.819000,166.800000,448.142000,166.933000L458.319000,167.954000C459.643000,168.086000,460.823000,167.123000,460.956000,165.800000L461.406000,161.329000C461.507000,160.318000,462.242000,159.491000,463.219000,159.238000C463.818000,159.076000,464.418000,158.898000,464.994000,158.699000C465.954000,158.374000,467.022000,158.648000,467.668000,159.439000L470.513000,162.915000C471.356000,163.940000,472.869000,164.095000,473.895000,163.254000L481.813000,156.774000C482.839000,155.931000,482.993000,154.418000,482.152000,153.393000L479.307000,149.917000C478.663000,149.128000,478.600000,148.035000,479.113000,147.152000C479.424000,146.622000,479.712000,146.072000,479.993000,145.512000C480.440000,144.597000,481.396000,144.044000,482.408000,144.145000L486.878000,144.594000C488.201000,144.725000,489.382000,143.763000,489.513000,142.440000L490.534000,132.262000C490.665000,130.939000,489.696000,129.756000,488.379000,129.625000ZM455.544000,144.407000C449.802000,143.831000,445.608000,138.705000,446.182000,132.965000C446.758000,127.222000,451.875000,123.026000,457.624000,123.602000C463.366000,124.178000,467.563000,129.295000,466.987000,135.044000C466.413000,140.786000,461.286000,144.981000,455.544000,144.407000Z" fill="url(#ewFC456Ijur7-fill)" stroke="none" stroke-width="1"/><path id="ewFC456Ijur8" d="M458.975000,110.120000C445.788000,108.799000,434.023000,118.427000,432.709000,131.614000C431.388000,144.801000,441.016000,156.566000,454.203000,157.878000C467.390000,159.191000,479.155000,149.571000,480.469000,136.384000C481.783000,123.199000,472.162000,111.443000,458.975000,110.120000ZM455.233000,147.503000C447.779000,146.756000,442.339000,140.108000,443.079000,132.654000C443.817000,125.199000,450.474000,119.759000,457.931000,120.499000C465.385000,121.246000,470.825000,127.895000,470.085000,135.351000C469.336000,142.810000,462.697000,148.250000,455.233000,147.503000Z" fill="url(#ewFC456Ijur8-fill)" stroke="none" stroke-width="1"/></g></g><g id="ewFC456Ijur9_ts" transform="translate(241.592000,289.229000) scale(1,1)"><g id="ewFC456Ijur9" transform="translate(-241.592000,-282.200253)"><path id="ewFC456Ijur10" d="M176.054000,259.978000L170.352000,268.209000C170.352000,268.209000,171.574000,271.755000,176.124000,274.359000L182.958000,264.870000L176.054000,259.978000Z" fill="rgb(245,157,155)" stroke="none" stroke-width="1"/><path id="ewFC456Ijur11" d="M338.707000,233.241000L359.578000,244.610000C360.152000,244.943000,360.486000,245.561000,360.468000,246.217000C360.430000,247.170000,359.643000,247.922000,358.697000,247.924000L327.084000,247.889000C327.084000,247.889000,326.040000,247.842000,326.562000,243.697000C327.084000,239.552000,330.686000,232.908000,330.686000,232.908000L338.707000,233.241000Z" fill="rgb(51,51,51)" stroke="none" stroke-width="1"/><path id="ewFC456Ijur12" d="M179.993000,268.790000L196.115000,278.174000C196.693000,278.502000,197.033000,279.113000,197.021000,279.769000C196.993000,280.722000,196.216000,281.480000,195.269000,281.494000L163.657000,281.799000C163.657000,281.799000,162.612000,281.761000,163.090000,277.612000C163.568000,273.462000,170.874000,267.167000,170.874000,267.167000L179.993000,268.790000Z" fill="rgb(51,51,51)" stroke="none" stroke-width="1"/><path id="ewFC456Ijur13" d="M237.547000,155.994000C237.547000,155.994000,244.020000,204.398000,240.381000,214.702000C236.741000,225.008000,184.682000,265.466000,184.682000,265.466000C184.682000,265.466000,173.729000,267.766000,171.855000,262.427000C171.855000,262.427000,197.471000,232.343000,202.061000,226.004000C208.958000,216.500000,219.934000,207.498000,219.934000,207.498000L210.323000,152.842000L237.547000,155.994000Z" fill="rgb(10,10,114)" stroke="none" stroke-width="1"/><path id="ewFC456Ijur14" d="M324.146000,227.753000L329.643000,236.149000C329.643000,236.149000,333.390000,236.348000,337.516000,233.123000L331.301000,223.215000L324.146000,227.753000Z" fill="rgb(253,168,147)" stroke="none" stroke-width="1"/><path id="ewFC456Ijur15" d="M238.078000,139.288000C238.078000,139.288000,293.138000,158.206000,300.543000,166.224000C307.929000,174.259000,337.010000,231.302000,337.010000,231.302000C337.010000,231.302000,332.055000,237.014000,326.380000,235.789000C326.380000,235.789000,311.425000,213.520000,306.887000,206.818000C302.149000,199.809000,291.320000,191.629000,285.663000,176.369000C285.663000,176.369000,256.638000,176.404000,234.385000,173.631000C219.430000,171.758000,208.711000,161.470000,211.775000,146.714000C211.775000,146.679000,211.793000,146.642000,211.810000,146.606000C212.063000,145.705000,212.819000,145.021000,213.737000,144.806000L238.078000,139.288000Z" fill="rgb(26,15,146)" stroke="none" stroke-width="1"/><g id="ewFC456Ijur16_tr" transform="translate(248.361053,59.028154) rotate(0)"><g id="ewFC456Ijur16" transform="translate(-246.798264,-57.053533)"><path id="ewFC456Ijur17" d="M331.641000,71.724900C330.109000,70.842000,322.055000,72.769400,321.732000,72.753000C321.409000,72.736600,320.166000,71.924000,318.814000,71.383000C317.463000,70.842000,316.508000,71.076200,314.887000,72.680400C313.266000,74.284600,311.428000,77.310200,311.428000,77.310200C310.690000,77.418000,309.861000,77.509300,308.979000,77.617000C309.482000,80.050200,310.060000,82.464700,310.726000,84.841700C312.131000,84.445900,313.393000,84.104000,314.472000,83.778400C315.086000,84.211700,315.751000,84.499700,316.454000,84.516100C318.273000,84.551300,319.859000,84.462300,320.795000,84.408400C321.353000,84.354500,321.678000,84.319400,321.678000,84.319400L321.697000,84.338200C321.842000,84.445900,322.545000,84.986800,324.219000,84.968100C326.111000,84.933000,327.643000,83.958800,327.896000,83.094600C328.149000,82.230500,327.247000,81.474100,327.247000,81.474100C327.247000,81.474100,328.165000,81.024400,328.346000,80.087700C328.545000,79.150900,327.175000,77.853600,327.175000,77.853600C327.175000,77.853600,328.184000,77.097100,327.732000,75.998800C327.318000,74.935600,324.957000,75.204900,324.760000,75.223600C325.083000,75.111200,333.118000,72.589100,331.641000,71.724900Z" fill="rgb(245,157,155)" stroke="none" stroke-width="1"/><path id="ewFC456Ijur18" d="M316.955000,80.101600C316.810000,80.066400,316.686000,79.940000,316.648000,79.794800C316.613000,79.579300,316.737000,79.361500,316.972000,79.326400C316.990000,79.326400,319.585000,78.785400,320.377000,76.623900C320.449000,76.408400,320.683000,76.300700,320.899000,76.389700C321.114000,76.462300,321.222000,76.696500,321.133000,76.911900C320.196000,79.488000,317.260000,80.101600,317.133000,80.118000C317.082000,80.120300,317.028000,80.120300,316.955000,80.101600Z" fill="rgb(253,137,107)" stroke="none" stroke-width="1"/><path id="ewFC456Ijur19" d="M316.165000,76.589100C316.111000,76.570300,316.038000,76.535200,315.984000,76.500100C315.823000,76.354900,315.804000,76.104300,315.966000,75.924000L317.228000,74.537600C317.301000,74.448600,317.408000,74.411100,317.516000,74.411100C317.624000,74.411100,317.732000,74.465000,317.804000,74.537600C317.823000,74.556300,319.301000,76.141800,321.029000,76.141800C321.551000,76.141800,321.947000,76.015300,322.146000,75.781100C322.380000,75.511800,322.326000,75.167600,322.326000,75.151200C322.291000,74.935700,322.453000,74.736700,322.668000,74.701500C322.884000,74.666400,323.083000,74.809300,323.118000,75.024700C323.137000,75.097300,323.226000,75.746000,322.757000,76.287000C322.397000,76.720200,321.802000,76.935700,321.027000,76.935700C319.441000,76.935700,318.109000,75.907600,317.514000,75.385300L316.523000,76.467300C316.469000,76.589100,316.308000,76.624200,316.165000,76.589100Z" fill="rgb(253,137,107)" stroke="none" stroke-width="1"/><path id="ewFC456Ijur20" d="M321.676000,84.355000C321.657000,84.336300,321.657000,84.336300,321.657000,84.336300C321.657000,84.336300,321.334000,84.371400,320.775000,84.408900C320.287000,83.437000,320.486000,82.462800,320.629000,81.633800C320.775000,80.912500,320.882000,80.301300,320.629000,79.760300C320.360000,79.200600,320.323000,78.662000,320.414000,78.174900C320.503000,77.706500,320.702000,77.273200,320.901000,76.950100C320.974000,76.823600,321.046000,76.715900,321.116000,76.608100C321.297000,76.355200,321.458000,76.212400,321.477000,76.174900C321.639000,76.013300,321.892000,76.013300,322.053000,76.174900C322.215000,76.336500,322.215000,76.589400,322.053000,76.734600C322.053000,76.734600,322.034000,76.753300,321.981000,76.807200C321.819000,76.987500,321.405000,77.528500,321.243000,78.158500C321.154000,78.554200,321.154000,78.968700,321.351000,79.402000C321.730000,80.177100,321.566000,80.987400,321.423000,81.781300C321.243000,82.678300,321.081000,83.526000,321.676000,84.355000Z" fill="rgb(253,137,107)" stroke="none" stroke-width="1"/><path id="ewFC456Ijur21" d="M311.749000,85.003100C311.749000,85.003100,286.111000,91.850700,279.643000,90.949100C273.174000,90.047500,255.212000,81.328800,255.212000,81.328800C253.140000,80.499700,251.320000,79.654300,249.735000,78.806600C244.365000,75.942500,241.627000,72.987100,240.456000,69.888800C238.491000,64.718000,242.311000,55.313100,245.662000,51.168000C245.662000,51.168000,247.932000,58.537800,261.842000,66.427500C261.842000,66.427500,281.715000,77.310100,282.797000,77.886200C282.797000,77.886200,300.417000,77.797200,310.490000,76.696600C310.506000,76.715300,310.487000,83.399000,311.749000,85.003100Z" fill="rgb(31,238,163)" stroke="none" stroke-width="1"/></g></g><path id="ewFC456Ijur22" d="M256.382000,134.819000C256.167000,141.053000,260.188000,148.261000,260.188000,148.261000C251.701000,146.261000,237.050000,142.294000,226.366000,148.997000C217.683000,154.437000,208.294000,153.446000,208.294000,153.446000C208.294000,153.446000,205.845000,143.123000,206.962000,132.077000C208.079000,121.086000,208.763000,107.447000,208.927000,102.077000C209.072000,97.555400,209.215000,93.267400,209.395000,89.267500C209.503000,86.764100,209.629000,84.384800,209.756000,82.115500C210.493000,69.144000,210.025000,58.188700,211.791000,56.242700C216.727000,50.765100,229.069000,44.261700,229.069000,44.261700L238.151000,45.413900C238.151000,45.413900,248.527000,51.252200,249.214000,56.512000C255.213000,102.925000,254.024000,103.429000,255.195000,117.644000C255.518000,121.866000,256.616000,128.224000,256.382000,134.819000Z" fill="rgb(45,255,179)" stroke="none" stroke-width="1"/><g id="ewFC456Ijur23_tr" transform="translate(232.600000,50.127346) rotate(0)"><g id="ewFC456Ijur23" transform="translate(-232.600000,-50.127346)"><path id="ewFC456Ijur24" d="M241.592000,38.159100L240.620000,43.978600L240.006000,47.690500C239.899000,48.357900,239.177000,49.997200,238.510000,50.069800C234.402000,50.503000,231.374000,48.484400,229.484000,46.646000L229.449000,37.835900C229.449000,37.835900,231.629000,37.079500,234.259000,36.629900L241.592000,38.159100Z" fill="rgb(245,157,155)" stroke="none" stroke-width="1"/><path id="ewFC456Ijur25" d="M241.591000,38.159300L240.620000,43.978800C236.006000,42.140500,234.006000,37.925100,233.521000,36.772900C233.756000,36.719100,234.009000,36.684000,234.243000,36.646500L241.591000,38.159300Z" fill="rgb(245,157,155)" stroke="none" stroke-width="1"/><path id="ewFC456Ijur26" d="M246.951000,13.855500C248.005000,16.145900,248.183000,18.775800,248.675000,21.220700C249.255000,24.105800,249.731000,27.000400,249.913000,29.939400C250.155000,33.824600,251.429000,36.644100,249.731000,40.311500C247.733000,44.627500,242.412000,44.620500,239.014000,43.004600C234.347000,40.789200,228.673000,39.564400,225.898000,34.681700C225.879000,34.646500,225.863000,34.627800,225.844000,34.592700C225.844000,34.573900,225.844000,34.573900,225.844000,34.573900C223.970000,31.241500,222.619000,27.672500,221.771000,25.096400C220.907000,22.466500,221.518000,19.565000,223.338000,17.476000C228.293000,11.818100,235.284000,10.862600,240.148000,11.026600C242.881000,11.117900,245.436000,10.804100,246.822000,13.590900C246.867000,13.677500,246.909000,13.764200,246.951000,13.855500Z" fill="rgb(245,157,155)" stroke="none" stroke-width="1"/><path id="ewFC456Ijur27" d="M245.536000,2.286660C238.312000,2.214070,233.616000,0.434255,229.316000,0.975224C224.506000,1.579420,221.673000,3.382650,219.647000,5.232720C218.357000,6.410680,218.525000,8.665880,217.497000,9.738460C212.785000,14.656400,214.722000,20.930200,216.005000,23.532000C216.312000,24.162000,216.600000,24.721700,216.888000,25.279000C219.663000,30.630200,227.848000,40.800900,229.661000,39.311400C231.031000,36.032800,233.267000,31.403000,233.267000,31.403000C228.979000,31.456800,225.052000,26.719300,226.530000,23.691200C226.530000,23.691200,227.213000,22.609300,228.314000,22.340000C230.747000,21.745200,232.998000,22.916100,233.738000,24.393800C234.476000,25.871500,235.017000,26.951100,235.017000,26.951100L237.466000,26.789500C237.466000,26.789500,235.682000,22.970000,235.412000,21.527400C235.143000,20.087100,237.412000,20.283800,236.637000,17.581300C235.843000,14.878800,233.412000,14.897600,234.295000,13.670400C235.159000,12.445600,243.695000,12.244200,245.894000,13.092000C248.072000,13.939700,252.529000,-0.404130,245.536000,2.286660Z" fill="rgb(47,46,127)" stroke="none" stroke-width="1"/></g></g><g id="ewFC456Ijur28_tr" transform="translate(214.554337,65.695883) rotate(0)"><g id="ewFC456Ijur28" transform="translate(-214.554337,-65.695883)"><g id="ewFC456Ijur29"><path id="ewFC456Ijur30" d="M184.278000,158.022000L156.047000,153.023000L157.103000,147.063000C157.667000,143.882000,160.712000,141.754000,163.894000,142.316000L180.587000,145.273000C183.767000,145.838000,185.896000,148.882000,185.334000,152.062000L184.278000,158.022000ZM158.995000,150.957000L182.212000,155.069000L182.824000,151.617000C183.142000,149.819000,181.941000,148.095000,180.138000,147.774000L163.445000,144.817000C161.646000,144.498000,159.923000,145.700000,159.602000,147.503000L158.995000,150.957000Z" fill="rgb(214,206,206)" stroke="none" stroke-width="1"/><path id="ewFC456Ijur31" d="M160.291000,149.271000L155.846000,148.484000C155.389000,148.405000,154.956000,148.707000,154.874000,149.164000L154.603000,150.702000C154.523000,151.159000,154.825000,151.592000,155.282000,151.674000L159.727000,152.461000C160.183000,152.541000,160.616000,152.238000,160.698000,151.782000L160.970000,150.243000C161.052000,149.786000,160.748000,149.353000,160.291000,149.271000Z" fill="rgb(18,18,81)" stroke="none" stroke-width="1"/><path id="ewFC456Ijur32" d="M186.018000,153.828000L181.573000,153.041000C181.116000,152.961000,180.683000,153.264000,180.601000,153.720000L180.329000,155.259000C180.250000,155.715000,180.552000,156.149000,181.008000,156.231000L185.453000,157.017000C185.910000,157.097000,186.343000,156.795000,186.425000,156.338000L186.697000,154.800000C186.774000,154.343000,186.472000,153.910000,186.018000,153.828000Z" fill="rgb(18,18,81)" stroke="none" stroke-width="1"/><path id="ewFC456Ijur33" d="M193.023000,204.644000L130.013000,193.483000C129.137000,193.328000,128.554000,192.492000,128.708000,191.616000L136.615000,146.992000L202.795000,158.716000L194.889000,203.340000C194.735000,204.215000,193.899000,204.799000,193.023000,204.644000Z" fill="rgb(61,61,112)" stroke="none" stroke-width="1"/><path id="ewFC456Ijur34" d="M198.486000,181.921000L179.208000,180.739000C169.712000,180.158000,160.314000,178.493000,151.195000,175.776000L132.685000,170.266000C131.669000,169.961000,131.039000,168.945000,131.224000,167.898000L134.673000,148.421000C134.875000,147.285000,135.961000,146.526000,137.097000,146.728000L202.430000,158.301000C203.566000,158.503000,204.325000,159.589000,204.123000,160.725000L200.674000,180.202000C200.486000,181.247000,199.550000,181.987000,198.486000,181.921000Z" fill="rgb(80,191,165)" stroke="none" stroke-width="1"/><path id="ewFC456Ijur35" d="M198.388000,183.591000L202.551000,160.088000C202.418000,160.034000,202.280000,159.994000,202.135000,159.968000L136.804000,148.395000C136.659000,148.369000,136.516000,148.360000,136.373000,148.364000L132.209000,171.867000C132.268000,171.893000,132.331000,171.914000,132.392000,171.933000L150.902000,177.443000C160.021000,180.160000,169.419000,181.825000,178.915000,182.406000L198.193000,183.588000C198.256000,183.593000,198.324000,183.595000,198.388000,183.591000Z" fill="rgb(40,37,100)" stroke="none" stroke-width="1"/><path id="ewFC456Ijur36" d="M198.486000,181.921000L179.208000,180.739000C169.712000,180.158000,160.314000,178.493000,151.195000,175.776000L132.685000,170.266000C131.669000,169.961000,131.039000,168.945000,131.224000,167.898000L134.673000,148.421000C134.875000,147.285000,135.961000,146.526000,137.097000,146.728000L202.430000,158.301000C203.566000,158.503000,204.325000,159.589000,204.123000,160.725000L200.674000,180.202000C200.486000,181.247000,199.550000,181.987000,198.486000,181.921000Z" fill="rgb(61,61,112)" stroke="none" stroke-width="1"/><path id="ewFC456Ijur37" d="M168.967000,182.675000L160.148000,181.113000C159.665000,181.029000,159.349000,180.568000,159.434000,180.090000L160.131000,176.156000C160.216000,175.673000,160.677000,175.357000,161.155000,175.441000L169.974000,177.003000C170.457000,177.088000,170.773000,177.549000,170.688000,178.027000L169.991000,181.961000C169.904000,182.443000,169.450000,182.762000,168.967000,182.675000Z" fill="rgb(240,240,242)" stroke="none" stroke-width="1"/><path id="ewFC456Ijur38" d="M168.186000,181.619000L161.251000,180.392000C160.849000,180.321000,160.584000,179.942000,160.657000,179.539000L161.090000,177.099000C161.160000,176.701000,161.539000,176.431000,161.942000,176.504000L168.876000,177.731000C169.275000,177.801000,169.542000,178.185000,169.471000,178.584000L169.038000,181.024000C168.965000,181.422000,168.584000,181.689000,168.186000,181.619000Z" fill="rgb(214,206,206)" stroke="none" stroke-width="1"/><path id="ewFC456Ijur39" d="M202.430000,158.304000L137.100000,146.731000C135.964000,146.529000,134.877000,147.288000,134.676000,148.424000L134.064000,151.876000C134.266000,150.740000,135.352000,149.981000,136.488000,150.183000L201.824000,161.758000C202.960000,161.960000,203.718000,163.046000,203.517000,164.182000L204.128000,160.730000C204.325000,159.587000,203.568000,158.505000,202.430000,158.304000Z" fill="rgb(40,37,100)" stroke="none" stroke-width="1"/></g><path id="ewFC456Ijur40" d="M179.900000,135.414000L182.836000,143.487000L178.712000,152.332000L173.631000,152.116000L173.054000,149.901000L165.973000,148.566000L170.567000,134.225000L179.900000,135.414000Z" fill="rgb(245,157,155)" stroke="none" stroke-width="1"/><path id="ewFC456Ijur41" d="M202.332000,94.389100L217.648000,79.326200C217.648000,79.326200,219.901000,63.003500,211.702000,56.193400C211.702000,56.193400,196.332000,72.661300,188.873000,82.047500C188.873000,82.047500,177.614000,95.812900,174.965000,103.164000L170.352000,134.838000C170.352000,134.838000,177,138.170000,179.956000,136.568000C182.424000,126.695000,185.775000,112.623000,185.794000,108.389000L202.332000,94.389100Z" fill="rgb(31,238,163)" stroke="none" stroke-width="1"/></g></g></g></g><g id="ewFC456Ijur42"><g id="ewFC456Ijur43"><path id="ewFC456Ijur44" d="M203.088000,281.799000L147.221000,281.799000L147.221000,387.730000L203.088000,387.730000L203.088000,281.799000Z" fill="rgb(86,0,227)" stroke="none" stroke-width="1"/><path id="ewFC456Ijur45" d="M203.090000,281.799000L171.852000,281.799000L171.852000,387.730000L203.090000,387.730000L203.090000,281.799000Z" fill="rgb(70,8,191)" stroke="none" stroke-width="1"/></g><g id="ewFC456Ijur46" transform="matrix(1 0 0 1 2.46785228445323 0.01324463686473)"><path id="ewFC456Ijur47" d="M117.709000,335.320000L61.841800,335.320000L61.841800,387.733000L117.709000,387.733000L117.709000,335.320000Z" transform="matrix(1 0 0 1 1.31652521643940 -0.56874464231669)" fill="rgb(86,0,227)" stroke="none" stroke-width="1"/><path id="ewFC456Ijur48" d="M117.709000,335.320000L89.775400,335.320000L89.775400,387.733000L117.709000,387.733000L117.709000,335.320000Z" transform="matrix(1 0 0 1 1.31652521643940 -0.56874464231669)" fill="rgb(70,8,191)" stroke="none" stroke-width="1"/></g><g id="ewFC456Ijur49"><path id="ewFC456Ijur50" d="M373.848000,247.778000L317.980000,247.778000L317.980000,387.730000L373.848000,387.730000L373.848000,247.778000Z" fill="rgb(86,0,227)" stroke="none" stroke-width="1"/><path id="ewFC456Ijur51" d="M373.848000,247.778000L345.914000,247.778000L345.914000,387.730000L373.848000,387.730000L373.848000,247.778000Z" fill="rgb(70,8,191)" stroke="none" stroke-width="1"/></g><g id="ewFC456Ijur52"><path id="ewFC456Ijur53" d="M459.227000,190.727000L403.359000,190.727000L403.359000,387.731000L459.227000,387.731000L459.227000,190.727000Z" fill="rgb(86,0,227)" stroke="none" stroke-width="1"/><path id="ewFC456Ijur54" d="M459.227000,190.727000L431.293000,190.727000L431.293000,387.731000L459.227000,387.731000L459.227000,190.727000Z" fill="rgb(70,8,191)" stroke="none" stroke-width="1"/></g><g id="ewFC456Ijur55"><path id="ewFC456Ijur56" d="M288.467000,260.821000L232.600000,260.821000L232.600000,387.731000L288.467000,387.731000L288.467000,260.821000Z" fill="rgb(86,0,227)" stroke="none" stroke-width="1"/><path id="ewFC456Ijur57" d="M289.803000,260.821000L261.869000,260.821000L261.869000,387.731000L289.803000,387.731000L289.803000,260.821000Z" fill="rgb(70,8,191)" stroke="none" stroke-width="1"/></g><g id="ewFC456Ijur58_ts" transform="translate(296.548109,388.666479) scale(1,1)"><g id="ewFC456Ijur58" transform="translate(-297.350810,-387.733000)"><path id="ewFC456Ijur59" d="M396.118000,213.346000L420.988000,239.685000L329.780000,325.807000L256.588000,259.467000L106.451000,387.730000L172.068000,387.730000L255.754000,316.236000L330.373000,383.869000L450.250000,270.675000L474.554000,296.412000L489.083000,204.124000L396.118000,213.346000Z" fill="rgb(255,255,255)" stroke="none" stroke-width="1"/><path id="ewFC456Ijur60" d="M445.339000,214.349000L408.558000,217.997000L429.265000,239.924000L329.862000,333.784000L256.473000,267.265000L115.463000,387.731000L163.054000,387.731000L255.869000,308.438000L330.291000,375.893000L450.487000,262.399000L470.624000,283.724000L476.374000,247.212000L482.123000,210.700000L445.339000,214.349000Z" fill="rgb(45,255,179)" stroke="none" stroke-width="1"/></g></g></g><g id="ewFC456Ijur61_ts" transform="translate(94.039080,308.663291) scale(1,1)"><g id="ewFC456Ijur61" transform="translate(-94.015221,-325.149963)"><path id="ewFC456Ijur62" d="M94.716100,325.143000C113.659000,324.764000,128.708000,309.101000,128.329000,290.160000C127.950000,271.218000,112.287000,256.170000,93.343900,256.549000C74.401100,256.928000,59.352100,272.590000,59.731000,291.532000C60.109900,310.474000,75.773300,325.522000,94.716100,325.143000Z" fill="rgb(255,225,77)" stroke="none" stroke-width="1"/><path id="ewFC456Ijur63" d="M126.945000,281.197000C121.634000,263.039000,102.517000,252.613000,84.377000,257.929000L103.676000,323.765000C121.816000,318.452000,132.259000,299.356000,126.945000,281.197000Z" fill="rgb(255,187,51)" stroke="none" stroke-width="1"/><path id="ewFC456Ijur64" d="M101.368000,315.931000C87.534900,319.978000,73.003700,312.025000,68.935900,298.208000C64.889200,284.375000,72.842100,269.843000,86.659100,265.775000C100.478000,261.708000,115.024000,269.682000,119.091000,283.499000C123.143000,297.316000,115.206000,311.866000,101.368000,315.931000Z" fill="rgb(255,187,51)" stroke="none" stroke-width="1"/><path id="ewFC456Ijur65" d="M119.096000,283.501000C115.050000,269.668000,100.497000,261.729000,86.664100,265.778000L101.371000,315.933000C115.209000,311.866000,123.146000,297.316000,119.096000,283.501000Z" fill="rgb(230,138,46)" stroke="none" stroke-width="1"/><path id="ewFC456Ijur66" d="M95.425100,288.496000L93.198000,280.876000C95.582000,280.777000,97.626400,281.721000,98.108800,283.360000C98.422600,284.428000,99.535000,285.032000,100.601000,284.719000C101.668000,284.405000,102.273000,283.292000,101.959000,282.227000C100.861000,278.492000,96.626400,276.363000,92.022300,276.930000L91.404100,274.852000C91.090300,273.784000,89.977900,273.180000,88.912400,273.494000C87.844500,273.808000,87.240300,274.920000,87.554100,275.986000L88.172300,278.063000C83.989800,280.077000,81.573000,284.161000,82.673700,287.878000C83.774300,291.594000,88.006100,293.742000,92.610100,293.175000L94.837300,300.795000C92.453200,300.894000,90.408800,299.950000,89.926400,298.311000C89.612600,297.243000,88.500200,296.639000,87.434600,296.952000C86.366800,297.266000,85.762600,298.379000,86.076400,299.444000C87.174700,303.179000,91.408800,305.308000,96.012900,304.741000L96.628800,306.837000C96.942600,307.905000,98.055000,308.509000,99.120500,308.196000C100.188000,307.882000,100.793000,306.769000,100.479000,305.704000L99.862900,303.608000C104.045000,301.594000,106.462000,297.510000,105.362000,293.793000C104.261000,290.077000,100.031000,287.913000,95.425100,288.496000ZM86.523700,286.744000C86.041200,285.105000,87.256700,283.192000,89.329200,282.009000L91.453300,289.231000C89.069300,289.330000,87.008400,288.384000,86.523700,286.744000ZM98.706000,299.664000L96.581900,292.442000C98.966000,292.344000,101.010000,293.287000,101.493000,294.927000C101.978000,296.566000,100.762000,298.479000,98.706000,299.664000Z" fill="rgb(255,225,77)" stroke="none" stroke-width="1"/><path id="ewFC456Ijur67" d="M100.477000,305.723000L99.860700,303.628000C104.043000,301.614000,106.460000,297.529000,105.359000,293.813000C104.259000,290.096000,100.027000,287.949000,95.422900,288.515000L93.195800,280.895000C95.579800,280.797000,97.624200,281.740000,98.106600,283.380000C98.420400,284.448000,99.532800,285.052000,100.598000,284.738000C101.666000,284.424000,102.270000,283.312000,101.957000,282.246000C100.858000,278.511000,96.624200,276.382000,92.020100,276.949000L91.401900,274.872000C91.088100,273.804000,89.975700,273.200000,88.910200,273.514000L99.097200,308.253000C100.170000,307.901000,100.790000,306.791000,100.477000,305.723000ZM96.584400,292.443000C98.968400,292.344000,101.013000,293.288000,101.495000,294.928000C101.978000,296.567000,100.762000,298.480000,98.689800,299.663000L96.584400,292.443000Z" fill="rgb(255,187,51)" stroke="none" stroke-width="1"/></g></g><g id="ewFC456Ijur68_tk" transform="translate(433.794256,396.579773) skewX(-5) skewY(0)"><g id="ewFC456Ijur68" transform="translate(-433.794256,-396.579773)"><path id="ewFC456Ijur69" d="M497.292000,393.929000C497.292000,393.929000,527.846000,399.261000,525.746000,381.667000C524.252000,369.393000,495.974000,384.390000,497.159000,375.632000C498.344000,366.876000,513.128000,357.560000,503.358000,356.239000C493.587000,354.918000,516.971000,339.258000,501.006000,335.687000C485.042000,332.118000,482.197000,355.478000,474.787000,357.084000C467.375000,358.710000,476.124000,342.375000,461.813000,342.605000C447.418000,342.822000,444.760000,386.568000,444.760000,386.568000L497.292000,393.929000Z" fill="rgb(86,77,159)" stroke="none" stroke-width="1"/><path id="ewFC456Ijur70" d="M516.555000,393.779000C509.553000,390.664000,483.999000,383.044000,472.950000,386.681000C477.306000,381.845000,482.036000,375.943000,486.760000,369.178000C495.516000,356.839000,502.443000,344.504000,505.499000,338.715000C505.225000,338.258000,504.844000,337.975000,504.347000,337.591000C500.844000,344.204000,492.073000,359.906000,481.053000,374.527000C478.718000,370.951000,480.968000,356.658000,483.633000,345.808000C482.940000,346.893000,482.263000,348,481.671000,349.117000C481.554000,349.206000,481.554000,349.206000,481.540000,349.309000C481.395000,349.605000,481.261000,349.818000,481.116000,350.115000C479.130000,359.206000,477.053000,372.218000,480.130000,375.894000C478.001000,378.571000,475.933000,381.110000,473.741000,383.632000C472.083000,373.353000,474.109000,362.419000,475.369000,357.141000C475.266000,357.127000,475.254000,357.209000,475.151000,357.195000L475.039000,357.241000C474.936000,357.227000,474.936000,357.227000,474.936000,357.227000C474.833000,357.213000,474.833000,357.213000,474.833000,357.213000C474.730000,357.199000,474.730000,357.199000,474.730000,357.199000C474.627000,357.185000,474.627000,357.185000,474.627000,357.185000C474.524000,357.171000,474.524000,357.171000,474.524000,357.171000C474.383000,357.426000,474.280000,357.412000,474.177000,357.398000C474.074000,357.384000,474.074000,357.384000,474.074000,357.384000C472.744000,363.178000,470.903000,374.454000,472.877000,384.732000C471.233000,386.465000,469.582000,388.262000,467.945000,389.934000L469.866000,390.194000C470.247000,389.699000,470.601000,389.430000,470.990000,389.041000C480.758000,384.475000,502.719000,390.496000,512.996000,394.283000C514.438000,394.039000,515.778000,393.779000,516.555000,393.779000Z" fill="rgb(235,237,245)" stroke="none" stroke-width="1"/><path id="ewFC456Ijur71" d="M441.851000,348.231000C447.253000,351.824000,455.506000,348.187000,458.560000,356.234000C459.970000,359.957000,457.728000,364.554000,461.051000,367.655000C463.571000,370.015000,467.419000,369.863000,470.018000,372.107000C477.494000,378.566000,470.150000,389.940000,463.475000,393.727000C457.234000,397.256000,441.846000,399.235000,440.724000,389.029000C440.434000,386.509000,441.745000,383.509000,440.045000,381.303000C437.520000,378.039000,432.692000,377.973000,429.823000,374.936000C427.228000,372.186000,426.020000,368.533000,426.422000,364.779000C426.659000,362.561000,427.542000,360.072000,427.298000,357.831000C427.080000,355.866000,425.715000,354.147000,425.214000,352.248000C424.249000,348.646000,426.858000,344.604000,430.443000,343.597000C435.389000,342.206000,438.246000,345.810000,441.851000,348.231000Z" fill="rgb(80,188,141)" stroke="none" stroke-width="1"/><path id="ewFC456Ijur72" d="M431.746000,366.488000C437.224000,371.394000,443.460000,366.959000,444.493000,366.172000C444.563000,366.118000,444.610000,366.083000,444.633000,366.064000C447.411000,369.635000,450.118000,373.242000,452.734000,376.919000C454.642000,379.595000,456.507000,382.307000,458.279000,385.052000C456.567000,386.209000,450.835000,389.555000,446.334000,386.759000C446.235000,386.703000,446.085000,386.726000,446.027000,386.843000C445.970000,386.942000,445.994000,387.092000,446.111000,387.150000C450.849000,390.064000,456.738000,386.633000,458.544000,385.424000C459.464000,386.853000,460.364000,388.300000,461.237000,389.764000C462.059000,391.157000,462.855000,392.569000,463.588000,393.993000C463.951000,393.642000,464.370000,393.342000,464.804000,393.085000C464.043000,391.719000,463.256000,390.373000,462.427000,389.040000C462.275000,388.766000,462.099000,388.511000,461.926000,388.237000C462.565000,387.546000,463.783000,386.174000,464.860000,384.427000C466.911000,381.087000,467.464000,377.923000,466.455000,375.284000C466.408000,375.172000,466.267000,375.111000,466.155000,375.160000C466.043000,375.207000,465.982000,375.347000,466.031000,375.460000C467.970000,380.560000,463.281000,386.150000,461.684000,387.848000C459.150000,383.888000,456.406000,380.066000,453.591000,376.321000C453.090000,375.666000,452.572000,374.984000,452.073000,374.329000C453.352000,372.797000,457.010000,367.846000,454.633000,363.486000C454.586000,363.373000,454.443000,363.334000,454.329000,363.401000C454.216000,363.448000,454.176000,363.591000,454.244000,363.706000C456.453000,367.748000,453.064000,372.422000,451.785000,373.952000C449.247000,370.642000,446.638000,367.387000,444.001000,364.170000C442.629000,362.490000,441.235000,360.830000,439.840000,359.170000C439.910000,359.116000,439.980000,359.062000,440.074000,358.992000C440.566000,358.617000,441.348000,357.966000,442.053000,357.114000C443.582000,355.301000,444.031000,353.533000,443.359000,351.968000C443.312000,351.856000,443.172000,351.795000,443.060000,351.844000C442.947000,351.891000,442.886000,352.032000,442.935000,352.144000C444.214000,355.135000,440.484000,358.144000,439.528000,358.835000C437.697000,356.673000,435.842000,354.528000,433.961000,352.404000C433.903000,352.376000,433.840000,352.367000,433.793000,352.402000C433.765000,352.460000,433.755000,352.524000,433.791000,352.570000C435.619000,354.753000,437.425000,356.952000,439.207000,359.172000C439.203000,359.214000,439.193000,359.275000,439.228000,359.322000C439.282000,359.392000,439.341000,359.420000,439.404000,359.430000C440.772000,361.130000,442.156000,362.872000,443.502000,364.591000C443.809000,364.968000,444.092000,365.364000,444.397000,365.743000C444.376000,365.741000,442.713000,367.155000,440.362000,367.888000C437.263000,368.879000,434.479000,368.312000,432.095000,366.181000C431.999000,366.106000,431.854000,366.106000,431.777000,366.202000C431.711000,366.294000,431.711000,366.441000,431.746000,366.488000Z" fill="rgb(255,255,255)" stroke="none" stroke-width="1"/></g></g><g id="ewFC456Ijur73_ts" transform="translate(360.480408,148.773727) scale(1,1)"><g id="ewFC456Ijur73" transform="translate(-360.480408,-148.773727)"><path id="ewFC456Ijur74" d="M386.410000,171.240000C398.814000,156.919000,397.260000,135.255000,382.939000,122.851000C368.618000,110.448000,346.954000,112.002000,334.550000,126.323000C322.147000,140.644000,323.701000,162.308000,338.022000,174.711000C352.343000,187.115000,374.007000,185.561000,386.410000,171.240000Z" fill="rgb(255,225,77)" stroke="none" stroke-width="1"/><path id="ewFC456Ijur75" d="M394.777000,148.219000C394.484000,129.302000,378.831000,114.167000,359.930000,114.466000L361.023000,183.064000C379.924000,182.767000,395.067000,167.137000,394.777000,148.219000Z" fill="rgb(255,187,51)" stroke="none" stroke-width="1"/><path id="ewFC456Ijur76" d="M360.887000,174.901000C346.475000,175.123000,334.583000,163.592000,334.337000,149.189000C334.115000,134.777000,345.646000,122.885000,360.048000,122.640000C374.451000,122.394000,386.352000,133.948000,386.598000,148.351000C386.828000,162.746000,375.306000,174.662000,360.887000,174.901000Z" fill="rgb(255,187,51)" stroke="none" stroke-width="1"/><path id="ewFC456Ijur77" d="M386.597000,148.353000C386.374000,133.941000,374.459000,122.419000,360.047000,122.642000L360.885000,174.903000C375.304000,174.662000,386.826000,162.746000,386.597000,148.353000Z" fill="rgb(230,138,46)" stroke="none" stroke-width="1"/><path id="ewFC456Ijur78" d="M362.452000,146.872000L362.330000,138.933000C364.654000,139.472000,366.375000,140.926000,366.403000,142.636000C366.422000,143.748000,367.333000,144.627000,368.445000,144.608000C369.558000,144.589000,370.436000,143.678000,370.417000,142.566000C370.351000,138.674000,366.836000,135.493000,362.246000,134.816000L362.204000,132.648000C362.185000,131.536000,361.274000,130.657000,360.162000,130.676000C359.050000,130.695000,358.171000,131.606000,358.190000,132.718000L358.232000,134.887000C353.666000,135.716000,350.249000,139.011000,350.321000,142.887000C350.394000,146.762000,353.902000,149.959000,358.492000,150.636000L358.614000,158.575000C356.291000,158.036000,354.570000,156.582000,354.541000,154.872000C354.523000,153.760000,353.612000,152.882000,352.499000,152.900000C351.387000,152.919000,350.509000,153.830000,350.528000,154.942000C350.593000,158.835000,354.108000,162.015000,358.698000,162.692000L358.733000,164.877000C358.752000,165.989000,359.663000,166.867000,360.776000,166.848000C361.888000,166.830000,362.766000,165.919000,362.747000,164.806000L362.712000,162.621000C367.279000,161.792000,370.696000,158.497000,370.623000,154.622000C370.550000,150.746000,367.047000,147.535000,362.452000,146.872000ZM354.338000,142.816000C354.307000,141.107000,355.989000,139.587000,358.300000,138.997000L358.427000,146.523000C356.104000,145.985000,354.368000,144.523000,354.338000,142.816000ZM362.644000,158.511000L362.518000,150.985000C364.841000,151.523000,366.562000,152.978000,366.590000,154.687000C366.621000,156.394000,364.939000,157.914000,362.644000,158.511000Z" fill="rgb(255,225,77)" stroke="none" stroke-width="1"/><path id="ewFC456Ijur79" d="M362.742000,164.823000L362.707000,162.638000C367.273000,161.809000,370.690000,158.514000,370.617000,154.638000C370.545000,150.762000,367.037000,147.566000,362.447000,146.889000L362.325000,138.950000C364.648000,139.489000,366.369000,140.943000,366.397000,142.653000C366.416000,143.765000,367.327000,144.643000,368.439000,144.624000C369.552000,144.606000,370.430000,143.695000,370.411000,142.582000C370.346000,138.690000,366.831000,135.510000,362.241000,134.833000L362.198000,132.665000C362.180000,131.552000,361.269000,130.674000,360.156000,130.693000L360.737000,166.891000C361.866000,166.839000,362.760000,165.935000,362.742000,164.823000ZM362.519000,150.983000C364.842000,151.521000,366.564000,152.975000,366.592000,154.685000C366.622000,156.395000,364.941000,157.914000,362.629000,158.505000L362.519000,150.983000Z" fill="rgb(255,187,51)" stroke="none" stroke-width="1"/></g></g><g id="ewFC456Ijur80_tr" transform="translate(84.400860,167.966019) rotate(0)"><g id="ewFC456Ijur80" transform="translate(-82.408985,-187.625496)"><path id="ewFC456Ijur81" d="M117.133000,182.848000L112.250000,182.357000C111.145000,182.247000,110.243000,181.443000,109.967000,180.375000C109.791000,179.722000,109.597000,179.066000,109.379000,178.436000C109.023000,177.387000,109.323000,176.221000,110.187000,175.516000L113.983000,172.408000C115.103000,171.488000,115.274000,169.837000,114.353000,168.715000L107.279000,160.069000C106.358000,158.950000,104.707000,158.779000,103.585000,159.699000L99.789300,162.807000C98.925100,163.512000,97.730800,163.580000,96.770600,163.020000C96.192200,162.680000,95.590300,162.364000,94.979100,162.057000C93.979100,161.568000,93.374900,160.526000,93.485000,159.420000L93.976800,154.540000C94.122000,153.095000,93.068200,151.805000,91.623200,151.662000L80.508800,150.547000C79.063900,150.404000,77.773500,151.456000,77.630600,152.901000L77.138900,157.781000C77.028800,158.887000,76.225500,159.788000,75.157600,160.064000C74.504300,160.240000,73.848500,160.435000,73.218600,160.652000C72.169400,161.008000,71.003200,160.708000,70.298300,159.844000L67.190600,156.048000C66.270300,154.929000,64.619300,154.758000,63.497500,155.678000L54.851400,162.753000C53.732000,163.673000,53.561000,165.324000,54.481400,166.446000L57.589000,170.242000C58.293900,171.106000,58.361800,172.301000,57.802100,173.261000C57.462600,173.839000,57.146400,174.441000,56.839600,175.052000C56.350200,176.052000,55.308100,176.657000,54.202700,176.546000L49.322300,176.055000C47.877300,175.912000,46.587000,176.963000,46.444100,178.408000L45.329400,189.523000C45.186500,190.968000,46.238000,192.258000,47.683000,192.401000L52.563400,192.893000C53.668800,193.003000,54.570400,193.806000,54.846700,194.874000C55.022300,195.527000,55.216700,196.183000,55.434500,196.813000C55.790500,197.862000,55.490700,199.028000,54.626600,199.733000L50.830400,202.841000C49.711000,203.761000,49.540100,205.412000,50.460400,206.534000L57.535200,215.182000C58.455500,216.302000,60.106500,216.473000,61.228300,215.552000L65.024400,212.445000C65.888600,211.740000,67.082900,211.672000,68.043100,212.232000C68.621500,212.574000,69.223400,212.887000,69.834600,213.194000C70.834600,213.684000,71.438800,214.726000,71.328700,215.831000L70.836900,220.712000C70.694100,222.157000,71.745500,223.447000,73.190500,223.590000L84.304900,224.704000C85.749900,224.847000,87.040200,223.796000,87.183100,222.351000L87.674900,217.468000C87.784900,216.363000,88.588200,215.461000,89.656100,215.185000C90.309500,215.009000,90.965200,214.815000,91.595100,214.597000C92.644300,214.241000,93.810500,214.541000,94.515400,215.405000L97.623100,219.201000C98.543400,220.320000,100.194000,220.491000,101.316000,219.571000L109.962000,212.496000C111.082000,211.576000,111.253000,209.925000,110.332000,208.803000L107.225000,205.007000C106.522000,204.145000,106.452000,202.951000,107.014000,201.988000C107.353000,201.410000,107.670000,200.808000,107.976000,200.197000C108.466000,199.197000,109.508000,198.593000,110.613000,198.703000L115.496000,199.195000C116.941000,199.337000,118.231000,198.286000,118.374000,196.843000L119.489000,185.729000C119.630000,184.282000,118.569000,182.991000,117.133000,182.848000ZM81.276900,198.989000C75.007800,198.361000,70.424700,192.762000,71.052400,186.492000C71.680000,180.223000,77.270000,175.640000,83.548500,176.268000C89.817700,176.895000,94.400700,182.485000,93.770700,188.764000C93.145400,195.035000,87.548400,199.618000,81.276900,198.989000Z" fill="url(#ewFC456Ijur81-fill)" stroke="none" stroke-width="1"/><path id="ewFC456Ijur82" d="M85.024100,161.549000C70.624000,160.107000,57.776500,170.619000,56.343300,185.022000C54.900700,199.422000,65.413300,212.269000,79.815800,213.703000C94.215900,215.136000,107.063000,204.633000,108.497000,190.230000C109.930000,175.830000,99.424100,162.992000,85.024100,161.549000ZM80.937500,202.370000C72.797200,201.553000,66.858300,194.293000,67.663900,186.153000C68.469500,178.013000,75.740900,172.074000,83.881200,172.879000C92.021500,173.697000,97.960500,180.956000,97.154900,189.097000C96.337600,197.246000,89.087200,203.188000,80.937500,202.370000Z" fill="url(#ewFC456Ijur82-fill)" stroke="none" stroke-width="1"/></g></g><g id="ewFC456Ijur83_tk" transform="translate(59.103607,399.752506) skewX(-4.600000) skewY(0)"><g id="ewFC456Ijur83" transform="translate(-62.182099,-385.684000)" clip-path="url(#ewFC456Ijur89)"><g id="ewFC456Ijur84"><path id="ewFC456Ijur85" d="M72.073500,378.990000C66.800500,382.887000,56.585900,386.351000,50.371100,385.310000C45.760800,384.539000,40.756700,382.983000,37.856500,379.054000C35.587800,375.982000,35.064000,371.989000,39.410700,370.661000C40.876300,370.211000,42.449600,370.557000,43.979400,370.701000C47.118900,370.994000,50.662500,368.581000,47.823100,365.396000C46.216900,363.596000,42.602200,363.355000,40.385500,363.188000C35.544400,362.824000,29.596700,363.528000,26.923800,358.455000C26.132900,356.951000,26.056600,354.854000,27.359200,353.765000C28.576800,352.745000,30.366900,353.036000,31.948700,353.165000C37.409000,353.605000,36.727400,348.499000,33.135200,346.251000C31.230700,345.054000,28.993100,344.398000,27.267300,342.962000C24.754000,340.865000,24.042800,336.348000,26.603000,333.623000C29.312300,331.048000,33.825500,331.743000,35.926000,334.251000C37.367400,335.975000,38.035200,338.213000,39.233700,340.116000C41.493800,343.704000,46.595100,344.369000,46.131900,338.900000C45.996600,337.316000,45.701800,335.526000,46.711300,334.298000C47.793600,332.990000,49.887200,333.058000,51.389300,333.847000C56.462800,336.503000,55.782800,342.461000,56.167900,347.311000C56.343100,349.527000,56.598000,353.147000,58.400200,354.748000C61.591700,357.581000,63.983600,354.025000,63.685300,350.880000C63.537900,349.352000,63.185800,347.775000,63.629800,346.303000C64.939400,341.946000,68.927000,342.457000,72.005800,344.716000C75.941400,347.604000,77.514600,352.610000,78.302100,357.227000C79.363600,363.450000,75.944900,373.693000,72.073500,378.990000Z" fill="rgb(86,77,159)" stroke="none" stroke-width="1"/><path id="ewFC456Ijur86" d="M38.527700,344.686000C42.515400,347.775000,46.201300,351.327000,49.809100,354.935000C49.410100,352.094000,48.862000,349.099000,49.169000,346.290000C49.172500,346.270000,49.205500,346.266000,49.208900,346.287000C50.343300,349.303000,50.463000,352.836000,50.877500,356.014000C52.664100,357.806000,54.433300,359.606000,56.218100,361.360000C59.406200,364.489000,62.653200,367.578000,65.853400,370.709000C67.522000,366.805000,68.833300,362.690000,69.412600,358.474000C69.416100,358.442000,69.471600,358.437000,69.471600,358.474000C69.539300,362.907000,68.548800,367.295000,66.592300,371.294000C66.576700,371.325000,66.552400,371.349000,66.533300,371.373000C68.722300,373.526000,70.883500,375.699000,72.980600,377.926000C73.400300,378.376000,72.664900,379.102000,72.210400,378.686000C70.907800,377.494000,69.622500,376.273000,68.347600,375.045000C62.271600,375.802000,55.952700,377.319000,49.833400,377.099000C49.705000,377.096000,49.729300,376.919000,49.833400,376.891000C55.474000,375.406000,61.586500,374.799000,67.421400,374.150000C63.178800,370.017000,59.048900,365.752000,54.849600,361.592000C54.478400,361.225000,54.098500,360.857000,53.723900,360.487000C48.454400,359.575000,43.002800,358.935000,37.873800,357.391000C37.837400,357.379000,37.858200,357.332000,37.889400,357.332000C42.834600,357.560000,47.795300,358.609000,52.681400,359.469000C47.798800,354.727000,42.734000,350.002000,38.508700,344.705000C38.500000,344.689000,38.517300,344.674000,38.527700,344.686000Z" fill="rgb(255,255,255)" stroke="none" stroke-width="1"/><path id="ewFC456Ijur87" d="M61.014300,384.360000C61.014300,384.360000,52.450000,367.280000,57.630600,364.467000C62.811200,361.654000,65.763100,365.132000,67.844900,363.987000C69.927700,362.828000,61.758800,353.484000,67.740600,350.216000C73.744800,346.994000,75.893900,354.295000,79.283300,352.432000C82.745400,350.556000,83.509000,334.765000,92.057100,336.746000C100.603000,338.725000,86.966600,352.970000,90.224100,353.234000C93.481500,353.496000,97.345100,349.272000,100.121000,353.807000C102.900000,358.344000,81.274800,366.853000,90.454700,367.542000C99.730400,368.218000,97.207800,372.228000,94.544600,375.338000C91.882300,378.434000,78.040500,385.684000,78.040500,385.684000L61.014300,384.360000Z" fill="rgb(80,188,141)" stroke="none" stroke-width="1"/><path id="ewFC456Ijur88" d="M99.988500,353.591000C95.847800,356.664000,88.357800,361.741000,82.467100,363.433000C87.268400,351.579000,91.196000,340.165000,92.317600,336.806000C92.223300,336.754000,92.152700,336.768000,92.058400,336.717000C91.964300,336.667000,91.893600,336.679000,91.703600,336.642000C90.867900,339.148000,88.397000,346.310000,85.196700,354.776000C84.300400,351.922000,83.303100,348.533000,82.566100,345.982000C82.485200,346.308000,82.309100,346.598000,82.227500,346.942000C83.199200,350.440000,84.530000,354.721000,84.838300,355.671000C84.581300,356.288000,84.324500,356.906000,84.091100,357.586000L80.640700,350.720000C80.538000,350.951000,80.415800,351.119000,80.291500,351.286000L83.786000,358.264000C82.496800,361.632000,81.012500,365.117000,79.578600,368.604000C74.852300,365.481000,71.199400,354.880000,69.570700,349.368000C69.403100,349.377000,69.187400,349.447000,68.945600,349.533000C70.617700,355.204000,74.314000,365.966000,79.374300,369.053000C77.100600,374.342000,74.637600,379.546000,72.220700,383.984000C67.645200,381.447000,62.251800,369.197000,59.890400,363.422000C59.744500,363.495000,59.507100,363.501000,59.267300,363.587000C61.670000,369.520000,67.083500,381.927000,71.972500,384.383000C71.869900,384.614000,71.672300,384.842000,71.571600,385.073000L72.236500,385.129000C73.192600,383.363000,74.249800,381.430000,75.267300,379.274000C79.662000,378.201000,90.970300,372.953000,96.844600,370.164000C96.801300,370.006000,96.759800,369.846000,96.666400,369.750000C91.105400,372.393000,80.158900,377.499000,75.567500,378.816000C77.570400,374.693000,79.784900,369.824000,81.994400,364.267000C82.045300,364.159000,82.097900,363.989000,82.148800,363.882000C88.153400,362.335000,95.789300,357.184000,100.076000,354.009000C100.055000,353.898000,100.033000,353.851000,99.939300,353.753000C100.010000,353.686000,99.987700,353.638000,99.988500,353.591000Z" fill="rgb(255,255,255)" stroke="none" stroke-width="1"/></g><clipPath id="ewFC456Ijur89"><rect id="ewFC456Ijur90" width="84.404800" height="59.534300" rx="0" ry="0" transform="matrix(-1 0 0 1 103.40400000000000 326)" fill="rgb(255,255,255)" stroke="none" stroke-width="1"/></clipPath></g></g></g></svg>