<svg id="ePlXxnbCGOT1" xmlns="http://www.w3.org/2000/svg" xmlns:xlink="http://www.w3.org/1999/xlink" viewBox="0 0 420 243" shape-rendering="geometricPrecision" text-rendering="geometricPrecision"><style><![CDATA[#ePlXxnbCGOT5_ts {animation: ePlXxnbCGOT5_ts__ts 6000ms linear infinite normal forwards}@keyframes ePlXxnbCGOT5_ts__ts { 0% {transform: translate(202.590118px,247.009450px) scale(1,1)} 25% {transform: translate(202.590118px,247.009450px) scale(1,0.971299)} 50% {transform: translate(202.590118px,247.009450px) scale(1,1)} 75% {transform: translate(202.590118px,247.009450px) scale(1,1.016263)} 100% {transform: translate(202.590118px,247.009450px) scale(1,1)}} #ePlXxnbCGOT7_tr {animation: ePlXxnbCGOT7_tr__tr 6000ms linear infinite normal forwards}@keyframes ePlXxnbCGOT7_tr__tr { 0% {transform: translate(230.827000px,144.853475px) rotate(0deg)} 16.666667% {transform: translate(230.827000px,144.853475px) rotate(-2deg)} 33.333333% {transform: translate(230.827000px,144.853475px) rotate(2deg)} 50% {transform: translate(230.827000px,144.853475px) rotate(0deg)} 66.666667% {transform: translate(230.827000px,144.853475px) rotate(0deg)} 83.333333% {transform: translate(230.827000px,144.853475px) rotate(-2deg)} 100% {transform: translate(230.827000px,144.853475px) rotate(0deg)}} #ePlXxnbCGOT11_tr {animation: ePlXxnbCGOT11_tr__tr 6000ms linear infinite normal forwards}@keyframes ePlXxnbCGOT11_tr__tr { 0% {transform: translate(183.097580px,107.921410px) rotate(0deg)} 25% {transform: translate(183.097580px,107.921410px) rotate(-3.370000deg)} 50% {transform: translate(183.097580px,107.921410px) rotate(0deg)} 75% {transform: translate(183.097580px,107.921410px) rotate(-3.370000deg)} 100% {transform: translate(183.097580px,107.921410px) rotate(0deg)}} #ePlXxnbCGOT16_tr {animation: ePlXxnbCGOT16_tr__tr 6000ms linear infinite normal forwards}@keyframes ePlXxnbCGOT16_tr__tr { 0% {transform: translate(170.126361px,77.467000px) rotate(0deg)} 25% {transform: translate(170.126361px,77.467000px) rotate(-3deg)} 50% {transform: translate(170.126361px,77.467000px) rotate(0deg)} 75% {transform: translate(170.126361px,77.467000px) rotate(0deg)} 100% {transform: translate(170.126361px,77.467000px) rotate(0deg)}} #ePlXxnbCGOT19_tr {animation: ePlXxnbCGOT19_tr__tr 6000ms linear infinite normal forwards}@keyframes ePlXxnbCGOT19_tr__tr { 0% {transform: translate(67.774519px,215.125223px) rotate(0deg)} 20% {transform: translate(67.774519px,215.125223px) rotate(-3deg)} 40% {transform: translate(67.774519px,215.125223px) rotate(3deg)} 80% {transform: translate(67.774519px,215.125223px) rotate(-3deg)} 100% {transform: translate(67.774519px,215.125223px) rotate(0deg)}} #ePlXxnbCGOT26 {animation: ePlXxnbCGOT26_c_o 6000ms linear infinite normal forwards}@keyframes ePlXxnbCGOT26_c_o { 0% {opacity: 1} 25% {opacity: 0.200000} 50% {opacity: 1} 75% {opacity: 0.200000} 100% {opacity: 1}}]]></style><defs><linearGradient id="ePlXxnbCGOT3-fill" x1="215.525000" y1="-12.705300" x2="215.525000" y2="271.791000" spreadMethod="pad" gradientUnits="userSpaceOnUse"><stop id="ePlXxnbCGOT3-fill-0" offset="0%" stop-color="rgb(255,255,255)"/><stop id="ePlXxnbCGOT3-fill-1" offset="100%" stop-color="rgba(255,255,255,0.2)"/></linearGradient><linearGradient id="ePlXxnbCGOT4-fill" x1="140.533000" y1="416.601000" x2="145.685000" y2="241.489000" spreadMethod="pad" gradientUnits="userSpaceOnUse"><stop id="ePlXxnbCGOT4-fill-0" offset="0%" stop-color="rgb(86,0,227)"/><stop id="ePlXxnbCGOT4-fill-1" offset="100%" stop-color="rgb(9,0,86)"/></linearGradient><linearGradient id="ePlXxnbCGOT9-fill" x1="251.757000" y1="191.835000" x2="323.719000" y2="191.835000" spreadMethod="pad" gradientUnits="userSpaceOnUse"><stop id="ePlXxnbCGOT9-fill-0" offset="0%" stop-color="rgb(248,185,185)"/><stop id="ePlXxnbCGOT9-fill-1" offset="100%" stop-color="rgb(244,146,143)"/></linearGradient><linearGradient id="ePlXxnbCGOT12-fill" x1="214.533000" y1="69.808900" x2="199.312000" y2="96.979500" spreadMethod="pad" gradientUnits="userSpaceOnUse"><stop id="ePlXxnbCGOT12-fill-0" offset="0%" stop-color="rgb(248,185,185)"/><stop id="ePlXxnbCGOT12-fill-1" offset="100%" stop-color="rgb(244,146,143)"/></linearGradient><linearGradient id="ePlXxnbCGOT13-fill" x1="235.736000" y1="31.697200" x2="197.649000" y2="123.096000" spreadMethod="pad" gradientUnits="userSpaceOnUse"><stop id="ePlXxnbCGOT13-fill-0" offset="0%" stop-color="rgb(248,185,185)"/><stop id="ePlXxnbCGOT13-fill-1" offset="100%" stop-color="rgb(244,146,143)"/></linearGradient><linearGradient id="ePlXxnbCGOT14-fill" x1="196.356000" y1="61.543900" x2="265.396000" y2="43.732500" spreadMethod="pad" gradientUnits="userSpaceOnUse"><stop id="ePlXxnbCGOT14-fill-0" offset="0%" stop-color="rgb(37,33,89)"/><stop id="ePlXxnbCGOT14-fill-1" offset="100%" stop-color="rgb(48,48,131)"/></linearGradient><linearGradient id="ePlXxnbCGOT15-fill" x1="166.716000" y1="114.124000" x2="200.817000" y2="54.588900" spreadMethod="pad" gradientUnits="userSpaceOnUse"><stop id="ePlXxnbCGOT15-fill-0" offset="0%" stop-color="rgb(248,185,185)"/><stop id="ePlXxnbCGOT15-fill-1" offset="100%" stop-color="rgb(244,146,143)"/></linearGradient><linearGradient id="ePlXxnbCGOT19-fill" x1="218.878000" y1="192.531000" x2="50.082000" y2="203.394000" spreadMethod="pad" gradientUnits="userSpaceOnUse"><stop id="ePlXxnbCGOT19-fill-0" offset="0%" stop-color="rgb(248,185,185)"/><stop id="ePlXxnbCGOT19-fill-1" offset="100%" stop-color="rgb(244,146,143)"/></linearGradient><linearGradient id="ePlXxnbCGOT24-fill" x1="187.156000" y1="193.646000" x2="266.475000" y2="219.651000" spreadMethod="pad" gradientUnits="userSpaceOnUse"><stop id="ePlXxnbCGOT24-fill-0" offset="0%" stop-color="rgb(37,33,89)"/><stop id="ePlXxnbCGOT24-fill-1" offset="100%" stop-color="rgb(48,48,131)"/></linearGradient><linearGradient id="ePlXxnbCGOT25-fill" x1="296.170000" y1="141.648000" x2="353.288000" y2="201.997000" spreadMethod="pad" gradientUnits="userSpaceOnUse"><stop id="ePlXxnbCGOT25-fill-0" offset="0%" stop-color="rgb(37,33,89)"/><stop id="ePlXxnbCGOT25-fill-1" offset="100%" stop-color="rgb(48,48,131)"/></linearGradient></defs><g id="ePlXxnbCGOT2"><path id="ePlXxnbCGOT3" d="M187.940000,-44.973800C141.612000,-65.084600,81.338400,-56.206900,38.342700,-33.885700C-21.061700,-3.049140,-78.727400,89.388100,-65.289000,157.692000C-55.690100,206.393000,-6.862600,217.228000,24.542000,247.195000C54.244200,275.676000,64.241500,322.891000,102.311000,343.110000C132.267000,358.873000,168.127000,351.988000,199.785000,347.314000C249.953000,339.922000,300.338000,340.538000,350.759000,336.081000C384.880000,333.109000,419.907000,325.101000,447.146000,304.266000C505.935000,259.406000,516.149000,159.178000,467.105000,103.701000C450.841000,85.329700,426.789000,69.168600,402.267000,64.602900C375.173000,59.674800,347.934000,70.400600,320.803000,65.110200C296.281000,60.290800,277.047000,43.405000,261.399000,24.779900C246.004000,6.408380,232.675000,-14.064800,214.093000,-29.211300C206.051000,-35.733700,197.322000,-40.879200,187.940000,-44.973800Z" opacity="0.12" fill="url(#ePlXxnbCGOT3-fill)" stroke="none" stroke-width="1"/><path id="ePlXxnbCGOT4" d="M83.440200,222.699000C83.440200,222.699000,67.176500,266.255000,83.440200,279.481000C99.704000,292.707000,138.570000,307.636000,147.227000,334.015000C155.921000,360.395000,170.627000,411.668000,190.332000,429.822000C190.332000,429.822000,204.169000,428.482000,209.348000,422.974000C209.348000,422.974000,198.120000,346.444000,190.730000,326.804000C184.319000,309.810000,174.865000,285.242000,156.790000,271.545000C151.610000,267.631000,152.516000,261.399000,154.907000,255.348000L159.289000,244.332000L83.440200,222.699000Z" fill="url(#ePlXxnbCGOT4-fill)" stroke="none" stroke-width="1"/><g id="ePlXxnbCGOT5_ts" transform="translate(202.590118,247.009450) scale(1,1)"><g id="ePlXxnbCGOT5" transform="translate(-202.590118,-247.009450)"><g id="ePlXxnbCGOT6"><g id="ePlXxnbCGOT7_tr" transform="translate(230.827000,144.853475) rotate(0)"><g id="ePlXxnbCGOT7" transform="translate(-230.827000,-144.853475)"><path id="ePlXxnbCGOT8" d="M253.213000,188.566000C225.901000,190.196000,234.413000,146.568000,234.921000,144.865000L193.482000,174.107000C193.482000,174.107000,195.692000,197.443000,230.139000,209.691000C238.869000,212.771000,246.838000,212.916000,253.865000,211.394000C250.858000,202.625000,251.474000,194.762000,253.213000,188.566000Z" fill="rgb(31,238,163)" stroke="none" stroke-width="1"/><path id="ePlXxnbCGOT9" d="M306.025000,175.412000C295.847000,168.346000,284.328000,175.412000,284.328000,175.412000C270.708000,184.326000,260.675000,188.094000,253.249000,188.529000C251.474000,194.762000,250.895000,202.625000,253.865000,211.394000C269.115000,208.133000,280.018000,197.081000,284.726000,191.428000C286.429000,189.399000,289.435000,189.037000,291.536000,190.667000C293.637000,192.334000,295.702000,194.617000,295.340000,197.045000C294.615000,201.792000,300.121000,203.313000,300.519000,201.574000C300.918000,199.835000,298.636000,189.616000,298.636000,189.616000C298.636000,189.616000,309.684000,200.704000,313.958000,204.980000C318.268000,209.256000,323.665000,204.980000,323.665000,204.980000C323.665000,204.980000,316.167000,182.514000,306.025000,175.412000Z" fill="url(#ePlXxnbCGOT9-fill)" stroke="none" stroke-width="1"/></g></g><path id="ePlXxnbCGOT10" d="M125.928000,77.466800C125.928000,77.466800,165.627000,61.559300,239.557000,122.616000C239.557000,122.616000,245.714000,135.408000,239.013000,146.786000C232.276000,158.164000,168.090000,213.604000,159.288000,244.368000C159.288000,244.368000,121.074000,256.797000,81.519500,227.338000C81.519500,227.265000,84.996800,141.713000,125.928000,77.466800Z" transform="matrix(1 0 0 1 0 -2)" fill="rgb(45,255,179)" stroke="none" stroke-width="1"/></g><g id="ePlXxnbCGOT11_tr" transform="translate(183.097580,107.921410) rotate(0)"><g id="ePlXxnbCGOT11" transform="translate(-183.097580,-107.921410)"><path id="ePlXxnbCGOT12" d="M204.457000,63.262300L184.897000,86.960500C182.941000,89.315800,182.543000,92.577000,183.883000,95.330900C186.600000,100.875000,193.047000,108.919000,207.319000,107.832000C211.557000,107.506000,215.324000,104.933000,217.171000,101.092000L230.827000,72.828600L204.457000,63.262300Z" fill="url(#ePlXxnbCGOT12-fill)" stroke="none" stroke-width="1"/><path id="ePlXxnbCGOT13" d="M246.983000,28.439900C247.164000,29.200800,242.383000,81.017800,242.383000,81.017800L212.862000,77.647900L210.109000,27.860100C210.109000,27.860100,243.687000,15.684900,246.983000,28.439900Z" fill="url(#ePlXxnbCGOT13-fill)" stroke="none" stroke-width="1"/><path id="ePlXxnbCGOT14" d="M217.824000,38.187200L217.244000,64.530500C217.244000,64.856700,217.280000,65.182800,217.353000,65.508900C217.860000,67.501900,220.142000,74.278000,226.916000,71.524100C233.073000,69.023800,238.688000,66.849600,242.853000,67.646800C244.701000,68.009200,246.005000,69.712200,245.824000,71.596500C245.389000,76.307200,244.194000,86.888000,241.767000,95.946900C241.260000,97.794900,239.448000,98.918200,237.565000,98.592100C231.914000,97.613800,220.106000,95.186000,211.014000,90.982600C209.782000,90.402800,208.949000,89.243300,208.877000,87.902600C208.442000,81.307700,207.030000,61.305600,205.762000,55.797800C204.566000,50.616000,197.793000,48.188300,194.895000,47.354800C193.953000,47.101200,193.156000,46.448900,192.686000,45.579300C191.019000,42.463000,188.448000,35.179600,197.539000,31.048800C199.459000,30.179100,200.256000,27.932500,199.350000,26.048200C197.539000,22.316000,196.272000,16.409500,203.226000,12.351100C210.290000,8.220270,216.266000,11.554000,219.635000,14.452800C220.975000,15.612400,222.967000,15.612400,224.344000,14.489000C225.141000,13.836800,226.227000,13.546900,227.640000,14.235400C229.560000,15.141300,231.842000,14.126700,232.566000,12.133700C233.943000,8.292740,237.130000,3.980700,244.556000,4.415530C257.704000,5.212710,260.747000,19.344600,258.248000,28.113700C255.748000,36.882700,241.549000,35.215900,234.124000,31.737200C228.473000,29.092000,221.989000,33.222900,219.200000,35.360800C218.367000,36.049300,217.824000,37.063900,217.824000,38.187200Z" fill="url(#ePlXxnbCGOT14-fill)" stroke="none" stroke-width="1"/><path id="ePlXxnbCGOT15" d="M205.654000,65.364100C205.654000,65.364100,209.312000,49.927800,203.480000,46.884000C197.613000,43.840200,189.752000,46.630300,192.723000,57.211100C196.381000,70.328400,205.654000,65.364100,205.654000,65.364100Z" fill="url(#ePlXxnbCGOT15-fill)" stroke="none" stroke-width="1"/></g></g><g id="ePlXxnbCGOT16_tr" transform="translate(170.126361,77.467000) rotate(0)"><g id="ePlXxnbCGOT16" transform="translate(-130.126361,-77.467000)"><path id="ePlXxnbCGOT17" d="M95.175900,178.999000C90.575700,160.229000,137.266000,118.341000,137.266000,118.341000L125.928000,77.467000C125.928000,77.467000,25.086000,144.612000,50.803800,198.639000C54.498400,206.394000,59.388400,211.793000,65.039100,215.416000C73.152800,193.530000,86.120400,183.529000,95.175900,178.999000Z" fill="rgb(45,255,179)" stroke="none" stroke-width="1"/><path id="ePlXxnbCGOT18" d="M95.175500,176.282000C94.668300,176.282000,94.233700,175.956000,94.088800,175.448000C89.379900,156.243000,134.585000,115.442000,136.505000,113.703000C136.940000,113.304000,137.664000,113.340000,138.063000,113.775000C138.461000,114.246000,138.425000,114.935000,137.990000,115.333000C137.519000,115.732000,91.843000,156.968000,96.225900,174.905000C96.370800,175.485000,96.008600,176.101000,95.429000,176.246000C95.320300,176.246000,95.247900,176.282000,95.175500,176.282000Z" fill="rgb(143,239,196)" stroke="none" stroke-width="1"/><g id="ePlXxnbCGOT19_tr" transform="translate(67.774519,215.125223) rotate(0)"><path id="ePlXxnbCGOT19" d="M165.918000,177.369000C165.918000,177.369000,110.534000,198.857000,97.023200,182.695000C96.117700,181.608000,95.501900,180.340000,95.175900,178.999000C86.120400,183.529000,73.152800,193.530000,65.039100,215.416000C94.161700,234.041000,143.931000,205.053000,157.406000,196.537000C159.615000,195.124000,162.259000,194.653000,164.831000,195.161000C170.011000,196.248000,178.994000,197.806000,183.811000,197.081000C190.875000,195.994000,201.053000,220.960000,212.499000,213.242000C212.536000,213.242000,202.719000,169.832000,165.918000,177.369000Z" transform="translate(-65.774519,-213.125223)" fill="url(#ePlXxnbCGOT19-fill)" stroke="none" stroke-width="1"/></g></g></g></g></g><path id="ePlXxnbCGOT20" d="M399.478000,469.030000C400.130000,469.030000,400.781000,468.921000,401.397000,468.632000C403.860000,467.617000,405.019000,464.827000,403.969000,462.435000L301.569000,231.940000C300.519000,229.548000,297.621000,228.425000,295.158000,229.476000C292.695000,230.490000,291.535000,233.281000,292.586000,235.672000L394.986000,466.167000C395.783000,467.979000,397.594000,469.030000,399.478000,469.030000Z" fill="rgb(186,207,235)" stroke="none" stroke-width="1"/><path id="ePlXxnbCGOT21" d="M284.148000,469.030000C286.031000,469.030000,287.842000,467.943000,288.639000,466.167000L391.039000,235.672000C392.090000,233.280000,390.967000,230.490000,388.467000,229.475000C386.004000,228.461000,383.107000,229.548000,382.056000,231.939000L279.656000,462.435000C278.606000,464.826000,279.728000,467.616000,282.228000,468.631000C282.844000,468.921000,283.496000,469.030000,284.148000,469.030000Z" fill="rgb(186,207,235)" stroke="none" stroke-width="1"/><path id="ePlXxnbCGOT22" d="M-32.797200,469.030000C-30.913700,469.030000,-29.102600,467.943000,-28.305700,466.167000L74.094400,235.672000C75.144800,233.280000,74.021900,230.490000,71.522600,229.475000C69.059500,228.461000,66.161700,229.548000,65.111300,231.939000L-37.288800,462.435000C-38.339200,464.826000,-37.216300,467.616000,-34.717000,468.631000C-34.065000,468.921000,-33.413000,469.030000,-32.797200,469.030000Z" fill="rgb(186,207,235)" stroke="none" stroke-width="1"/><path id="ePlXxnbCGOT23" d="M32.023000,224.654000C31.824500,223.153000,32.108000,221.617000,32.788400,220.437000C33.468700,219.258000,34.489300,218.579000,35.566500,218.579000L400.093000,218.579000C401.510000,218.579000,402.814000,219.615000,403.579000,221.295000C404.345000,222.975000,404.458000,225.083000,403.863000,226.906000L399.923000,239.020000C399.015000,241.771000,397.059000,243.594000,394.905000,243.594000L38.061100,243.594000C36.048400,243.594000,34.319200,241.521000,33.950600,238.770000L32.023000,224.654000Z" fill="rgb(186,207,235)" stroke="none" stroke-width="1"/><path id="ePlXxnbCGOT24" d="M204.132000,220.127000C204.277000,220.127000,204.277000,220.127000,204.422000,220.127000L304.286000,220.055000C306.786000,220.055000,308.705000,218.025000,308.705000,215.670000C308.705000,213.170000,306.641000,211.141000,304.286000,211.249000L204.422000,211.394000C201.923000,211.394000,200.003000,213.423000,200.003000,215.779000C199.858000,218.098000,201.778000,220.127000,204.132000,220.127000Z" fill="url(#ePlXxnbCGOT24-fill)" stroke="none" stroke-width="1"/><path id="ePlXxnbCGOT25" d="M394.080000,129.538000L310.914000,129.538000C304.829000,129.538000,299.178000,133.089000,296.534000,138.633000L258.138000,220.127000L361.480000,220.127000C365.501000,220.127000,368.942000,217.772000,370.463000,214.039000L400.310000,138.633000C401.940000,134.212000,398.789000,129.538000,394.080000,129.538000Z" fill="url(#ePlXxnbCGOT25-fill)" stroke="none" stroke-width="1"/><path id="ePlXxnbCGOT26" d="M358.910000,171.027000C359.055000,169.650000,358.729000,168.418000,357.932000,167.295000C357.244000,166.317000,356.266000,165.809000,355.288000,165.411000C354.455000,165.121000,353.622000,165.048000,352.789000,165.048000C352.390000,165.048000,351.811000,165.048000,351.412000,165.048000C351.267000,165.048000,351.122000,165.048000,351.014000,165.048000C350.869000,165.048000,350.724000,165.085000,350.615000,165.230000C350.470000,165.230000,350.326000,165.048000,350.217000,165.411000C350.217000,165.411000,350.217000,165.411000,350.072000,165.411000C349.927000,165.411000,349.782000,165.411000,349.674000,165.411000C349.674000,165.411000,349.674000,165.411000,349.529000,165.411000C349.384000,165.411000,349.239000,165.519000,349.239000,165.519000C347.573000,166.353000,346.341000,167.730000,345.363000,169.397000C345.218000,169.687000,343.697000,173.383000,342.465000,178.093000C342.465000,178.238000,342.320000,178.492000,342.320000,178.637000C342.031000,179.470000,341.632000,180.449000,340.944000,180.992000C340.401000,181.536000,339.568000,181.826000,338.879000,181.971000C338.481000,181.971000,337.901000,181.971000,337.503000,181.826000C336.126000,181.427000,335.004000,180.304000,334.750000,178.927000C334.460000,177.405000,335.293000,176.028000,336.271000,174.796000C336.416000,174.651000,336.416000,174.506000,336.561000,174.397000C336.416000,174.397000,336.271000,174.252000,336.018000,174.252000C335.185000,173.854000,334.352000,173.274000,333.663000,172.585000C333.374000,172.296000,333.265000,172.042000,333.120000,171.752000C332.432000,170.520000,332.432000,168.708000,333.410000,167.621000C334.098000,166.788000,335.221000,166.534000,336.308000,166.534000C336.453000,166.534000,336.452000,166.534000,336.597000,166.534000C337.720000,166.534000,338.807000,167.367000,339.640000,168.201000C339.785000,168.346000,339.785000,168.346000,339.930000,168.491000L340.075000,168.636000C340.220000,168.781000,340.220000,168.781000,340.364000,168.926000L340.509000,169.071000C340.509000,169.216000,340.654000,169.216000,340.654000,169.360000L340.799000,169.505000C340.799000,169.650000,340.944000,169.650000,340.944000,169.795000C340.944000,169.940000,341.089000,169.940000,341.089000,170.085000C341.089000,170.085000,341.089000,170.230000,341.234000,170.230000C341.234000,170.375000,341.379000,170.375000,341.379000,170.520000L341.379000,170.665000C341.379000,170.810000,341.487000,170.955000,341.632000,171.064000C341.922000,171.607000,342.031000,172.296000,342.176000,172.984000C342.320000,173.383000,342.320000,173.673000,342.465000,174.107000C342.864000,172.730000,343.298000,171.208000,343.987000,169.976000C343.842000,169.687000,343.697000,169.433000,343.697000,169.143000C342.864000,167.476000,341.886000,165.882000,340.256000,164.940000C340.111000,164.940000,339.966000,164.867000,339.966000,164.867000C339.966000,164.867000,339.966000,164.867000,339.821000,164.867000C339.676000,164.867000,339.531000,164.505000,339.531000,164.505000C339.531000,164.505000,339.531000,164.505000,339.387000,164.505000C339.242000,164.505000,339.097000,164.396000,338.988000,164.396000C338.879000,164.396000,338.698000,164.287000,338.590000,164.287000C338.445000,164.287000,338.300000,164.142000,338.191000,164.142000C337.793000,163.998000,337.358000,163.998000,336.815000,163.998000C335.982000,163.853000,335.149000,163.853000,334.315000,164.142000C333.193000,164.432000,332.287000,164.976000,331.490000,165.809000C330.657000,166.788000,330.186000,168.020000,330.186000,169.397000C330.186000,169.542000,330.186000,169.542000,330.186000,169.687000C330.186000,169.687000,330.186000,169.687000,330.186000,169.832000L330.186000,169.976000C330.186000,170.121000,330.186000,170.121000,330.186000,170.266000L330.186000,170.411000C330.186000,170.556000,330.186000,170.701000,330.186000,170.701000C330.186000,170.701000,330.186000,170.701000,330.186000,170.846000C330.186000,170.991000,330.186000,171.136000,330.186000,171.245000C330.186000,171.390000,330.114000,171.535000,330.259000,171.643000C330.403000,172.187000,330.512000,172.767000,330.766000,173.165000C330.766000,173.165000,330.693000,173.310000,330.838000,173.310000C330.838000,173.455000,330.911000,173.455000,330.911000,173.600000C330.911000,173.600000,330.911000,173.600000,330.911000,173.745000C331.273000,174.035000,331.237000,174.289000,331.526000,174.578000C331.671000,174.723000,331.707000,174.723000,331.816000,174.868000C331.816000,174.868000,331.816000,174.868000,331.961000,175.013000C332.106000,175.158000,332.106000,175.158000,332.251000,175.303000C332.251000,175.303000,332.251000,175.303000,332.396000,175.448000C332.541000,175.593000,332.541000,175.593000,332.685000,175.738000C332.830000,175.883000,332.975000,176.028000,333.084000,176.028000C332.939000,176.426000,332.903000,176.861000,332.758000,177.260000C332.758000,177.405000,332.722000,177.658000,332.722000,177.803000C332.722000,177.803000,332.722000,177.803000,332.722000,177.948000L332.722000,178.093000L332.722000,178.238000L332.722000,178.383000L332.722000,178.528000C332.722000,178.673000,332.722000,178.673000,332.722000,178.818000C332.722000,178.963000,332.722000,178.963000,332.722000,179.108000C332.722000,179.108000,332.722000,179.108000,332.722000,179.253000L332.722000,179.398000C332.722000,179.398000,332.722000,179.398000,332.722000,179.543000C332.722000,179.688000,332.722000,179.688000,332.722000,179.833000C332.722000,179.978000,332.722000,179.978000,332.722000,180.122000C332.722000,180.122000,332.722000,180.122000,332.722000,180.267000C332.722000,180.412000,332.722000,180.412000,332.722000,180.557000C332.722000,180.557000,332.722000,180.557000,332.722000,180.702000C332.722000,180.847000,332.577000,180.847000,332.722000,180.992000C332.722000,181.137000,332.722000,181.137000,332.722000,181.282000C332.722000,181.282000,332.722000,181.282000,332.722000,181.427000C332.722000,181.572000,332.758000,181.572000,332.903000,181.717000C332.903000,181.862000,333.084000,181.862000,333.084000,182.007000C333.084000,182.152000,333.229000,182.152000,333.229000,182.297000C333.229000,182.442000,333.374000,182.442000,333.374000,182.587000C333.374000,182.731000,333.519000,182.731000,333.519000,182.876000C333.519000,183.021000,333.663000,183.021000,333.663000,183.166000C333.808000,183.311000,333.953000,183.456000,334.062000,183.565000L334.207000,183.710000C334.352000,183.855000,334.496000,184,334.605000,184.108000L334.750000,184.253000C334.895000,184.398000,335.040000,184.543000,335.148000,184.543000C335.293000,184.543000,335.293000,184.652000,335.438000,184.652000C335.583000,184.652000,335.583000,184.761000,335.728000,184.761000C335.728000,184.761000,335.728000,184.761000,335.873000,184.761000C336.018000,184.761000,336.018000,184.761000,336.163000,185.123000L336.308000,185.123000C336.453000,185.123000,336.452000,185.123000,336.597000,185.123000L336.742000,185.123000C336.887000,185.123000,337.032000,185.159000,337.032000,185.304000C337.177000,185.304000,337.177000,185.123000,337.322000,185.485000C337.322000,185.485000,337.322000,185.485000,337.467000,185.485000C337.612000,185.485000,337.612000,185.485000,337.757000,185.485000C337.901000,185.485000,338.046000,185.485000,338.046000,185.485000C338.191000,185.485000,338.191000,185.485000,338.336000,185.485000C338.336000,185.485000,338.336000,185.485000,338.481000,185.485000C338.626000,185.485000,338.626000,185.485000,338.771000,185.485000C340.002000,185.485000,341.379000,185.304000,342.502000,184.579000L342.646000,184.398000C342.791000,184.253000,342.936000,184.253000,343.045000,184.108000C344.276000,182.985000,344.965000,180.521000,345.399000,178.854000C345.544000,178.311000,345.544000,177.876000,345.689000,177.332000C345.689000,177.042000,345.834000,176.789000,345.834000,176.499000C345.979000,176.100000,345.979000,175.810000,346.124000,175.376000C346.269000,174.832000,346.414000,174.252000,346.667000,173.854000C346.957000,173.165000,347.210000,172.622000,347.464000,172.042000C347.609000,171.897000,347.718000,171.752000,347.718000,171.643000C347.718000,171.643000,347.718000,171.643000,347.718000,171.498000C347.718000,171.353000,347.862000,171.353000,347.862000,171.208000L348.007000,171.064000C348.007000,170.919000,348.152000,170.919000,348.152000,170.774000L348.297000,170.629000L348.442000,170.484000C348.442000,170.339000,348.587000,170.339000,348.587000,170.194000L348.732000,170.049000C348.877000,169.904000,348.877000,169.904000,349.022000,169.759000L349.166000,169.614000C349.311000,169.469000,349.311000,169.397000,349.456000,169.252000C350.434000,168.563000,351.521000,167.947000,352.644000,167.947000C352.789000,167.947000,352.789000,167.947000,352.934000,167.947000C354.056000,167.947000,355.143000,168.563000,355.686000,169.542000C356.520000,170.774000,356.230000,172.477000,355.397000,173.709000C355.252000,173.999000,354.998000,174.289000,354.708000,174.433000C354.020000,174.977000,353.042000,175.412000,352.209000,175.810000C352.064000,175.810000,351.919000,175.955000,351.666000,175.955000C351.811000,176.100000,351.811000,176.245000,351.956000,176.390000C352.644000,177.767000,353.332000,179.108000,352.934000,180.630000C352.535000,182.007000,351.267000,183.203000,349.891000,183.203000C349.492000,183.203000,348.913000,183.203000,348.514000,183.203000C347.681000,183.203000,346.993000,182.695000,346.595000,182.007000C346.450000,181.862000,346.305000,181.608000,346.196000,181.499000C345.798000,182.731000,345.218000,183.855000,344.675000,184.543000L344.820000,184.688000C345.798000,185.522000,347.174000,186.101000,348.406000,186.101000C348.551000,186.101000,348.551000,186.101000,348.696000,186.101000C348.696000,186.101000,348.696000,186.101000,348.840000,186.101000C348.985000,186.101000,348.985000,186.101000,349.130000,186.101000C349.275000,186.101000,349.420000,186.101000,349.529000,186.101000C349.637000,186.101000,349.674000,186.101000,349.818000,186.101000C349.818000,186.101000,349.818000,186.101000,349.963000,186.101000C350.108000,186.101000,350.108000,186.101000,350.253000,186.101000C350.398000,186.101000,350.543000,186.101000,350.543000,186.101000L350.688000,186.101000C350.833000,186.101000,350.833000,186.101000,350.978000,186.101000L351.122000,186.101000C351.267000,186.101000,351.267000,186.101000,351.412000,186.101000C351.412000,186.101000,351.412000,186.101000,351.557000,186.101000C351.702000,186.101000,351.702000,186.101000,351.847000,185.956000C351.992000,185.956000,351.992000,185.956000,352.137000,185.811000C352.282000,185.667000,352.535000,185.667000,352.680000,185.522000C352.825000,185.522000,352.825000,185.377000,352.970000,185.377000C353.115000,185.232000,353.260000,185.087000,353.368000,185.087000L353.513000,184.942000C353.658000,184.797000,353.803000,184.652000,353.912000,184.543000L354.056000,184.398000C354.056000,184.253000,354.201000,184.253000,354.201000,184.108000C354.201000,183.963000,354.346000,183.963000,354.346000,183.819000C354.346000,183.674000,354.491000,183.674000,354.491000,183.529000C354.491000,183.384000,354.672000,183.384000,354.672000,183.239000C354.672000,183.094000,354.853000,183.094000,354.853000,182.949000C354.853000,182.949000,354.853000,182.949000,354.853000,182.804000C354.853000,182.659000,354.890000,182.659000,355.034000,182.514000C355.034000,182.369000,355.216000,182.369000,355.216000,182.224000C355.216000,182.224000,355.216000,182.224000,355.216000,182.079000L355.216000,181.934000C355.216000,181.934000,355.216000,181.934000,355.216000,181.789000C355.216000,181.644000,355.216000,181.644000,355.216000,181.499000C355.216000,181.355000,355.216000,181.354000,355.216000,181.210000C355.216000,181.210000,355.216000,181.210000,355.216000,181.065000L355.216000,180.920000C355.216000,180.920000,355.216000,180.920000,355.216000,180.775000C355.216000,180.630000,355.216000,180.630000,355.216000,180.485000C355.216000,180.340000,355.216000,180.340000,355.216000,180.195000L355.216000,180.050000L355.216000,179.905000L355.216000,179.760000L355.216000,179.615000C355.216000,179.615000,355.216000,179.615000,355.216000,179.470000C355.216000,179.325000,355.216000,179.072000,355.216000,178.927000C355.216000,178.528000,355.071000,178.093000,354.926000,177.695000C355.071000,177.550000,355.179000,177.550000,355.324000,177.405000C355.469000,177.260000,355.469000,177.260000,355.614000,177.115000C355.614000,177.115000,355.614000,177.115000,355.759000,176.970000C355.904000,176.825000,355.904000,176.825000,356.049000,176.680000C356.049000,176.680000,356.049000,176.680000,356.194000,176.535000C356.338000,176.390000,356.338000,176.390000,356.483000,176.245000C356.773000,175.955000,357.063000,175.847000,357.063000,175.557000C357.063000,175.557000,357.063000,175.557000,357.063000,175.412000L357.172000,175.267000C357.172000,175.267000,357.172000,175.122000,357.316000,175.122000C357.606000,174.723000,357.860000,174.144000,358.150000,173.745000C358.150000,173.600000,358.331000,173.455000,358.331000,173.346000C358.331000,173.201000,358.512000,173.056000,358.512000,172.948000C358.512000,172.948000,358.512000,172.948000,358.512000,172.803000C358.512000,172.658000,358.512000,172.513000,358.512000,172.513000L358.512000,172.296000C358.512000,172.151000,358.512000,172.151000,358.512000,172.006000L358.512000,171.861000C358.512000,171.861000,358.512000,171.861000,358.512000,171.716000C358.946000,171.317000,358.910000,171.172000,358.910000,171.027000Z" fill="rgb(255,255,255)" stroke="none" stroke-width="1"/></g></svg>