<svg width="420" height="243" viewBox="0 0 420 243" fill="none" xmlns="http://www.w3.org/2000/svg">
<mask id="mask0" mask-type="alpha" maskUnits="userSpaceOnUse" x="-99" y="-61" width="619" height="304">
<rect x="-99" y="-61" width="618.017" height="303.457" fill="#C4C4C4"/>
</mask>
<g mask="url(#mask0)">
<g clip-path="url(#clip0)">
<path opacity="0.12" d="M187.94 -44.9738C141.612 -65.0846 81.3384 -56.2069 38.3427 -33.8857C-21.0617 -3.04914 -78.7274 89.3881 -65.289 157.692C-55.6901 206.393 -6.8626 217.228 24.542 247.195C54.2442 275.676 64.2415 322.891 102.311 343.11C132.267 358.873 168.127 351.988 199.785 347.314C249.953 339.922 300.338 340.538 350.759 336.081C384.88 333.109 419.907 325.101 447.146 304.266C505.935 259.406 516.149 159.178 467.105 103.701C450.841 85.3297 426.789 69.1686 402.267 64.6029C375.173 59.6748 347.934 70.4006 320.803 65.1102C296.281 60.2908 277.047 43.405 261.399 24.7799C246.004 6.40838 232.675 -14.0648 214.093 -29.2113C206.051 -35.7337 197.322 -40.8792 187.94 -44.9738Z" fill="url(#paint0_linear)"/>
<path d="M83.4402 222.699C83.4402 222.699 67.1765 266.255 83.4402 279.481C99.704 292.707 138.57 307.636 147.227 334.015C155.921 360.395 170.627 411.668 190.332 429.822C190.332 429.822 204.169 428.482 209.348 422.974C209.348 422.974 198.12 346.444 190.73 326.804C184.319 309.81 174.865 285.242 156.79 271.545C151.61 267.631 152.516 261.399 154.907 255.348L159.289 244.332L83.4402 222.699Z" fill="url(#paint1_linear)"/>
<path d="M253.213 188.566C225.901 190.196 234.413 146.568 234.921 144.865L193.482 174.107C193.482 174.107 195.692 197.443 230.139 209.691C238.869 212.771 246.838 212.916 253.865 211.394C250.858 202.625 251.474 194.762 253.213 188.566Z" fill="#1FEEA3"/>
<path d="M306.025 175.412C295.847 168.346 284.328 175.412 284.328 175.412C270.708 184.326 260.675 188.094 253.249 188.529C251.474 194.762 250.895 202.625 253.865 211.394C269.115 208.133 280.018 197.081 284.726 191.428C286.429 189.399 289.435 189.037 291.536 190.667C293.637 192.334 295.702 194.617 295.34 197.045C294.615 201.792 300.121 203.313 300.519 201.574C300.918 199.835 298.636 189.616 298.636 189.616C298.636 189.616 309.684 200.704 313.958 204.98C318.268 209.256 323.665 204.98 323.665 204.98C323.665 204.98 316.167 182.514 306.025 175.412Z" fill="url(#paint2_linear)"/>
<path d="M125.928 77.4668C125.928 77.4668 165.627 61.5593 239.557 122.616C239.557 122.616 245.714 135.408 239.013 146.786C232.276 158.164 168.09 213.604 159.288 244.368C159.288 244.368 121.074 256.797 81.5195 227.338C81.5195 227.265 84.9968 141.713 125.928 77.4668Z" fill="#2DFFB3"/>
<path d="M204.457 63.2623L184.897 86.9605C182.941 89.3158 182.543 92.577 183.883 95.3309C186.6 100.875 193.047 108.919 207.319 107.832C211.557 107.506 215.324 104.933 217.171 101.092L230.827 72.8286L204.457 63.2623Z" fill="url(#paint3_linear)"/>
<path d="M95.1759 178.999C90.5757 160.229 137.266 118.341 137.266 118.341L125.928 77.467C125.928 77.467 25.086 144.612 50.8038 198.639C54.4984 206.394 59.3884 211.793 65.0391 215.416C73.1528 193.53 86.1204 183.529 95.1759 178.999Z" fill="#2DFFB3"/>
<path d="M95.1755 176.282C94.6683 176.282 94.2337 175.956 94.0888 175.448C89.3799 156.243 134.585 115.442 136.505 113.703C136.94 113.304 137.664 113.34 138.063 113.775C138.461 114.246 138.425 114.935 137.99 115.333C137.519 115.732 91.843 156.968 96.2259 174.905C96.3708 175.485 96.0086 176.101 95.429 176.246C95.3203 176.246 95.2479 176.282 95.1755 176.282Z" fill="#8FEFC4"/>
<path d="M165.918 177.369C165.918 177.369 110.534 198.857 97.0232 182.695C96.1177 181.608 95.5019 180.34 95.1759 178.999C86.1204 183.529 73.1528 193.53 65.0391 215.416C94.1617 234.041 143.931 205.053 157.406 196.537C159.615 195.124 162.259 194.653 164.831 195.161C170.011 196.248 178.994 197.806 183.811 197.081C190.875 195.994 201.053 220.96 212.499 213.242C212.536 213.242 202.719 169.832 165.918 177.369Z" fill="url(#paint4_linear)"/>
<path d="M246.983 28.4399C247.164 29.2008 242.383 81.0178 242.383 81.0178L212.862 77.6479L210.109 27.8601C210.109 27.8601 243.687 15.6849 246.983 28.4399Z" fill="url(#paint5_linear)"/>
<path d="M217.824 38.1872L217.244 64.5305C217.244 64.8567 217.28 65.1828 217.353 65.5089C217.86 67.5019 220.142 74.278 226.916 71.5241C233.073 69.0238 238.688 66.8496 242.853 67.6468C244.701 68.0092 246.005 69.7122 245.824 71.5965C245.389 76.3072 244.194 86.888 241.767 95.9469C241.26 97.7949 239.448 98.9182 237.565 98.5921C231.914 97.6138 220.106 95.186 211.014 90.9826C209.782 90.4028 208.949 89.2433 208.877 87.9026C208.442 81.3077 207.03 61.3056 205.762 55.7978C204.566 50.616 197.793 48.1883 194.895 47.3548C193.953 47.1012 193.156 46.4489 192.686 45.5793C191.019 42.463 188.448 35.1796 197.539 31.0488C199.459 30.1791 200.256 27.9325 199.35 26.0482C197.539 22.316 196.272 16.4095 203.226 12.3511C210.29 8.22027 216.266 11.554 219.635 14.4528C220.975 15.6124 222.967 15.6124 224.344 14.489C225.141 13.8368 226.227 13.5469 227.64 14.2354C229.56 15.1413 231.842 14.1267 232.566 12.1337C233.943 8.29274 237.13 3.9807 244.556 4.41553C257.704 5.21271 260.747 19.3446 258.248 28.1137C255.748 36.8827 241.549 35.2159 234.124 31.7372C228.473 29.092 221.989 33.2229 219.2 35.3608C218.367 36.0493 217.824 37.0639 217.824 38.1872Z" fill="url(#paint6_linear)"/>
<path d="M205.654 65.3641C205.654 65.3641 209.312 49.9278 203.48 46.884C197.613 43.8402 189.752 46.6303 192.723 57.2111C196.381 70.3284 205.654 65.3641 205.654 65.3641Z" fill="url(#paint7_linear)"/>
<path d="M399.478 469.03C400.13 469.03 400.781 468.921 401.397 468.632C403.86 467.617 405.019 464.827 403.969 462.435L301.569 231.94C300.519 229.548 297.621 228.425 295.158 229.476C292.695 230.49 291.535 233.281 292.586 235.672L394.986 466.167C395.783 467.979 397.594 469.03 399.478 469.03Z" fill="#BACFEB"/>
<path d="M284.148 469.03C286.031 469.03 287.842 467.943 288.639 466.167L391.039 235.672C392.09 233.28 390.967 230.49 388.467 229.475C386.004 228.461 383.107 229.548 382.056 231.939L279.656 462.435C278.606 464.826 279.728 467.616 282.228 468.631C282.844 468.921 283.496 469.03 284.148 469.03Z" fill="#BACFEB"/>
<path d="M-32.7972 469.03C-30.9137 469.03 -29.1026 467.943 -28.3057 466.167L74.0944 235.672C75.1448 233.28 74.0219 230.49 71.5226 229.475C69.0595 228.461 66.1617 229.548 65.1113 231.939L-37.2888 462.435C-38.3392 464.826 -37.2163 467.616 -34.717 468.631C-34.065 468.921 -33.413 469.03 -32.7972 469.03Z" fill="#BACFEB"/>
<path d="M32.023 224.654C31.8245 223.153 32.108 221.617 32.7884 220.437C33.4687 219.258 34.4893 218.579 35.5665 218.579H400.093C401.51 218.579 402.814 219.615 403.579 221.295C404.345 222.975 404.458 225.083 403.863 226.906L399.923 239.02C399.015 241.771 397.059 243.594 394.905 243.594H38.0611C36.0484 243.594 34.3192 241.521 33.9506 238.77L32.023 224.654Z" fill="#BACFEB"/>
<path d="M204.132 220.127C204.277 220.127 204.277 220.127 204.422 220.127L304.286 220.055C306.786 220.055 308.705 218.025 308.705 215.67C308.705 213.17 306.641 211.141 304.286 211.249L204.422 211.394C201.923 211.394 200.003 213.423 200.003 215.779C199.858 218.098 201.778 220.127 204.132 220.127Z" fill="url(#paint8_linear)"/>
<path d="M394.08 129.538H310.914C304.829 129.538 299.178 133.089 296.534 138.633L258.138 220.127H361.48C365.501 220.127 368.942 217.772 370.463 214.039L400.31 138.633C401.94 134.212 398.789 129.538 394.08 129.538Z" fill="url(#paint9_linear)"/>
<path d="M358.91 171.027C359.055 169.65 358.729 168.418 357.932 167.295C357.244 166.317 356.266 165.809 355.288 165.411C354.455 165.121 353.622 165.048 352.789 165.048C352.39 165.048 351.811 165.048 351.412 165.048C351.267 165.048 351.122 165.048 351.014 165.048C350.869 165.048 350.724 165.085 350.615 165.23C350.47 165.23 350.326 165.048 350.217 165.411C350.217 165.411 350.217 165.411 350.072 165.411C349.927 165.411 349.782 165.411 349.674 165.411C349.674 165.411 349.674 165.411 349.529 165.411C349.384 165.411 349.239 165.519 349.239 165.519C347.573 166.353 346.341 167.73 345.363 169.397C345.218 169.687 343.697 173.383 342.465 178.093C342.465 178.238 342.32 178.492 342.32 178.637C342.031 179.47 341.632 180.449 340.944 180.992C340.401 181.536 339.568 181.826 338.879 181.971C338.481 181.971 337.901 181.971 337.503 181.826C336.126 181.427 335.004 180.304 334.75 178.927C334.46 177.405 335.293 176.028 336.271 174.796C336.416 174.651 336.416 174.506 336.561 174.397C336.416 174.397 336.271 174.252 336.018 174.252C335.185 173.854 334.352 173.274 333.663 172.585C333.374 172.296 333.265 172.042 333.12 171.752C332.432 170.52 332.432 168.708 333.41 167.621C334.098 166.788 335.221 166.534 336.308 166.534C336.453 166.534 336.452 166.534 336.597 166.534C337.72 166.534 338.807 167.367 339.64 168.201C339.785 168.346 339.785 168.346 339.93 168.491L340.075 168.636C340.22 168.781 340.22 168.781 340.364 168.926L340.509 169.071C340.509 169.216 340.654 169.216 340.654 169.36L340.799 169.505C340.799 169.65 340.944 169.65 340.944 169.795C340.944 169.94 341.089 169.94 341.089 170.085C341.089 170.085 341.089 170.23 341.234 170.23C341.234 170.375 341.379 170.375 341.379 170.52V170.665C341.379 170.81 341.487 170.955 341.632 171.064C341.922 171.607 342.031 172.296 342.176 172.984C342.32 173.383 342.32 173.673 342.465 174.107C342.864 172.73 343.298 171.208 343.987 169.976C343.842 169.687 343.697 169.433 343.697 169.143C342.864 167.476 341.886 165.882 340.256 164.94C340.111 164.94 339.966 164.867 339.966 164.867C339.966 164.867 339.966 164.867 339.821 164.867C339.676 164.867 339.531 164.505 339.531 164.505C339.531 164.505 339.531 164.505 339.387 164.505C339.242 164.505 339.097 164.396 338.988 164.396C338.879 164.396 338.698 164.287 338.59 164.287C338.445 164.287 338.3 164.142 338.191 164.142C337.793 163.998 337.358 163.998 336.815 163.998C335.982 163.853 335.149 163.853 334.315 164.142C333.193 164.432 332.287 164.976 331.49 165.809C330.657 166.788 330.186 168.02 330.186 169.397C330.186 169.542 330.186 169.542 330.186 169.687C330.186 169.687 330.186 169.687 330.186 169.832V169.976C330.186 170.121 330.186 170.121 330.186 170.266V170.411C330.186 170.556 330.186 170.701 330.186 170.701C330.186 170.701 330.186 170.701 330.186 170.846C330.186 170.991 330.186 171.136 330.186 171.245C330.186 171.39 330.114 171.535 330.259 171.643C330.403 172.187 330.512 172.767 330.766 173.165C330.766 173.165 330.693 173.31 330.838 173.31C330.838 173.455 330.911 173.455 330.911 173.6C330.911 173.6 330.911 173.6 330.911 173.745C331.273 174.035 331.237 174.289 331.526 174.578C331.671 174.723 331.707 174.723 331.816 174.868C331.816 174.868 331.816 174.868 331.961 175.013C332.106 175.158 332.106 175.158 332.251 175.303C332.251 175.303 332.251 175.303 332.396 175.448C332.541 175.593 332.541 175.593 332.685 175.738C332.83 175.883 332.975 176.028 333.084 176.028C332.939 176.426 332.903 176.861 332.758 177.26C332.758 177.405 332.722 177.658 332.722 177.803C332.722 177.803 332.722 177.803 332.722 177.948V178.093V178.238V178.383V178.528C332.722 178.673 332.722 178.673 332.722 178.818C332.722 178.963 332.722 178.963 332.722 179.108C332.722 179.108 332.722 179.108 332.722 179.253V179.398C332.722 179.398 332.722 179.398 332.722 179.543C332.722 179.688 332.722 179.688 332.722 179.833C332.722 179.978 332.722 179.978 332.722 180.122C332.722 180.122 332.722 180.122 332.722 180.267C332.722 180.412 332.722 180.412 332.722 180.557C332.722 180.557 332.722 180.557 332.722 180.702C332.722 180.847 332.577 180.847 332.722 180.992C332.722 181.137 332.722 181.137 332.722 181.282C332.722 181.282 332.722 181.282 332.722 181.427C332.722 181.572 332.758 181.572 332.903 181.717C332.903 181.862 333.084 181.862 333.084 182.007C333.084 182.152 333.229 182.152 333.229 182.297C333.229 182.442 333.374 182.442 333.374 182.587C333.374 182.731 333.519 182.731 333.519 182.876C333.519 183.021 333.663 183.021 333.663 183.166C333.808 183.311 333.953 183.456 334.062 183.565L334.207 183.71C334.352 183.855 334.496 184 334.605 184.108L334.75 184.253C334.895 184.398 335.04 184.543 335.148 184.543C335.293 184.543 335.293 184.652 335.438 184.652C335.583 184.652 335.583 184.761 335.728 184.761C335.728 184.761 335.728 184.761 335.873 184.761C336.018 184.761 336.018 184.761 336.163 185.123H336.308C336.453 185.123 336.452 185.123 336.597 185.123H336.742C336.887 185.123 337.032 185.159 337.032 185.304C337.177 185.304 337.177 185.123 337.322 185.485C337.322 185.485 337.322 185.485 337.467 185.485C337.612 185.485 337.612 185.485 337.757 185.485C337.901 185.485 338.046 185.485 338.046 185.485C338.191 185.485 338.191 185.485 338.336 185.485C338.336 185.485 338.336 185.485 338.481 185.485C338.626 185.485 338.626 185.485 338.771 185.485C340.002 185.485 341.379 185.304 342.502 184.579L342.646 184.398C342.791 184.253 342.936 184.253 343.045 184.108C344.276 182.985 344.965 180.521 345.399 178.854C345.544 178.311 345.544 177.876 345.689 177.332C345.689 177.042 345.834 176.789 345.834 176.499C345.979 176.1 345.979 175.81 346.124 175.376C346.269 174.832 346.414 174.252 346.667 173.854C346.957 173.165 347.21 172.622 347.464 172.042C347.609 171.897 347.718 171.752 347.718 171.643C347.718 171.643 347.718 171.643 347.718 171.498C347.718 171.353 347.862 171.353 347.862 171.208L348.007 171.064C348.007 170.919 348.152 170.919 348.152 170.774L348.297 170.629L348.442 170.484C348.442 170.339 348.587 170.339 348.587 170.194L348.732 170.049C348.877 169.904 348.877 169.904 349.022 169.759L349.166 169.614C349.311 169.469 349.311 169.397 349.456 169.252C350.434 168.563 351.521 167.947 352.644 167.947C352.789 167.947 352.789 167.947 352.934 167.947C354.056 167.947 355.143 168.563 355.686 169.542C356.52 170.774 356.23 172.477 355.397 173.709C355.252 173.999 354.998 174.289 354.708 174.433C354.02 174.977 353.042 175.412 352.209 175.81C352.064 175.81 351.919 175.955 351.666 175.955C351.811 176.1 351.811 176.245 351.956 176.39C352.644 177.767 353.332 179.108 352.934 180.63C352.535 182.007 351.267 183.203 349.891 183.203C349.492 183.203 348.913 183.203 348.514 183.203C347.681 183.203 346.993 182.695 346.595 182.007C346.45 181.862 346.305 181.608 346.196 181.499C345.798 182.731 345.218 183.855 344.675 184.543L344.82 184.688C345.798 185.522 347.174 186.101 348.406 186.101C348.551 186.101 348.551 186.101 348.696 186.101C348.696 186.101 348.696 186.101 348.84 186.101C348.985 186.101 348.985 186.101 349.13 186.101C349.275 186.101 349.42 186.101 349.529 186.101C349.637 186.101 349.674 186.101 349.818 186.101C349.818 186.101 349.818 186.101 349.963 186.101C350.108 186.101 350.108 186.101 350.253 186.101C350.398 186.101 350.543 186.101 350.543 186.101H350.688C350.833 186.101 350.833 186.101 350.978 186.101H351.122C351.267 186.101 351.267 186.101 351.412 186.101C351.412 186.101 351.412 186.101 351.557 186.101C351.702 186.101 351.702 186.101 351.847 185.956C351.992 185.956 351.992 185.956 352.137 185.811C352.282 185.667 352.535 185.667 352.68 185.522C352.825 185.522 352.825 185.377 352.97 185.377C353.115 185.232 353.26 185.087 353.368 185.087L353.513 184.942C353.658 184.797 353.803 184.652 353.912 184.543L354.056 184.398C354.056 184.253 354.201 184.253 354.201 184.108C354.201 183.963 354.346 183.963 354.346 183.819C354.346 183.674 354.491 183.674 354.491 183.529C354.491 183.384 354.672 183.384 354.672 183.239C354.672 183.094 354.853 183.094 354.853 182.949C354.853 182.949 354.853 182.949 354.853 182.804C354.853 182.659 354.89 182.659 355.034 182.514C355.034 182.369 355.216 182.369 355.216 182.224C355.216 182.224 355.216 182.224 355.216 182.079V181.934C355.216 181.934 355.216 181.934 355.216 181.789C355.216 181.644 355.216 181.644 355.216 181.499C355.216 181.355 355.216 181.354 355.216 181.21C355.216 181.21 355.216 181.21 355.216 181.065V180.92C355.216 180.92 355.216 180.92 355.216 180.775C355.216 180.63 355.216 180.63 355.216 180.485C355.216 180.34 355.216 180.34 355.216 180.195V180.05V179.905V179.76V179.615C355.216 179.615 355.216 179.615 355.216 179.47C355.216 179.325 355.216 179.072 355.216 178.927C355.216 178.528 355.071 178.093 354.926 177.695C355.071 177.55 355.179 177.55 355.324 177.405C355.469 177.26 355.469 177.26 355.614 177.115C355.614 177.115 355.614 177.115 355.759 176.97C355.904 176.825 355.904 176.825 356.049 176.68C356.049 176.68 356.049 176.68 356.194 176.535C356.338 176.39 356.338 176.39 356.483 176.245C356.773 175.955 357.063 175.847 357.063 175.557C357.063 175.557 357.063 175.557 357.063 175.412L357.172 175.267C357.172 175.267 357.172 175.122 357.316 175.122C357.606 174.723 357.86 174.144 358.15 173.745C358.15 173.6 358.331 173.455 358.331 173.346C358.331 173.201 358.512 173.056 358.512 172.948C358.512 172.948 358.512 172.948 358.512 172.803C358.512 172.658 358.512 172.513 358.512 172.513V172.296C358.512 172.151 358.512 172.151 358.512 172.006V171.861C358.512 171.861 358.512 171.861 358.512 171.716C358.946 171.317 358.91 171.172 358.91 171.027Z" fill="white"/>
</g>
</g>
<defs>
<linearGradient id="paint0_linear" x1="215.525" y1="-12.7053" x2="215.525" y2="271.791" gradientUnits="userSpaceOnUse">
<stop stop-color="white"/>
<stop offset="1" stop-color="white" stop-opacity="0.2"/>
</linearGradient>
<linearGradient id="paint1_linear" x1="140.533" y1="416.601" x2="145.685" y2="241.489" gradientUnits="userSpaceOnUse">
<stop stop-color="#5600E3"/>
<stop offset="1" stop-color="#090056"/>
</linearGradient>
<linearGradient id="paint2_linear" x1="251.757" y1="191.835" x2="323.719" y2="191.835" gradientUnits="userSpaceOnUse">
<stop stop-color="#F8B9B9"/>
<stop offset="1" stop-color="#F4928F"/>
</linearGradient>
<linearGradient id="paint3_linear" x1="214.533" y1="69.8089" x2="199.312" y2="96.9795" gradientUnits="userSpaceOnUse">
<stop stop-color="#F8B9B9"/>
<stop offset="1" stop-color="#F4928F"/>
</linearGradient>
<linearGradient id="paint4_linear" x1="218.878" y1="192.531" x2="50.082" y2="203.394" gradientUnits="userSpaceOnUse">
<stop stop-color="#F8B9B9"/>
<stop offset="1" stop-color="#F4928F"/>
</linearGradient>
<linearGradient id="paint5_linear" x1="235.736" y1="31.6972" x2="197.649" y2="123.096" gradientUnits="userSpaceOnUse">
<stop stop-color="#F8B9B9"/>
<stop offset="1" stop-color="#F4928F"/>
</linearGradient>
<linearGradient id="paint6_linear" x1="196.356" y1="61.5439" x2="265.396" y2="43.7325" gradientUnits="userSpaceOnUse">
<stop stop-color="#252159"/>
<stop offset="1" stop-color="#303083"/>
</linearGradient>
<linearGradient id="paint7_linear" x1="166.716" y1="114.124" x2="200.817" y2="54.5889" gradientUnits="userSpaceOnUse">
<stop stop-color="#F8B9B9"/>
<stop offset="1" stop-color="#F4928F"/>
</linearGradient>
<linearGradient id="paint8_linear" x1="187.156" y1="193.646" x2="266.475" y2="219.651" gradientUnits="userSpaceOnUse">
<stop stop-color="#252159"/>
<stop offset="1" stop-color="#303083"/>
</linearGradient>
<linearGradient id="paint9_linear" x1="296.17" y1="141.648" x2="353.288" y2="201.997" gradientUnits="userSpaceOnUse">
<stop stop-color="#252159"/>
<stop offset="1" stop-color="#303083"/>
</linearGradient>
<clipPath id="clip0">
<rect width="621.717" height="662.425" fill="white" transform="translate(-84.1963 -168.32)"/>
</clipPath>
</defs>
</svg>
