<svg width="192" height="107" viewBox="0 0 192 107" fill="none" xmlns="http://www.w3.org/2000/svg">
<g clip-path="url(#clip0)">
<path d="M58.3457 46.1576V75.5338C58.3457 76.6707 57.3557 77.5714 56.2251 77.4309C47.998 76.3897 41.6296 69.3571 41.6296 60.8425C41.6296 52.328 47.998 45.3017 56.2251 44.2605C57.3557 44.12 58.3457 45.0207 58.3457 46.1576Z" fill="#5600E3"/>
<path d="M63.4111 79.1363C61.9611 79.1363 60.7794 77.961 60.7794 76.5047V45.1804C60.7794 43.7304 61.9547 42.5487 63.4111 42.5487C64.8674 42.5487 66.0427 43.724 66.0427 45.1804V76.5047C66.0427 77.961 64.8674 79.1363 63.4111 79.1363Z" fill="#5600E3"/>
<path d="M139.097 43.2066C139.097 44.3116 139.052 45.3975 138.975 46.477H134.849C134.945 45.3975 134.989 44.3052 134.989 43.2066C134.989 39.7957 134.549 36.4933 133.725 33.3379H130.071C125.798 18.5572 112.16 7.73679 96.0001 7.73679C79.8397 7.73679 66.2024 18.5508 61.9228 33.3379H58.2691C57.4451 36.4869 57.0044 39.7957 57.0044 43.2066C57.0044 44.3116 57.0491 45.4039 57.1449 46.477H53.0186C52.9419 45.3911 52.8972 44.3052 52.8972 43.2066C52.9036 19.4068 72.2003 0.110107 96.0001 0.110107C119.8 0.110107 139.097 19.4068 139.097 43.2066Z" fill="#5600E3"/>
<path d="M133.648 46.1577V75.5338C133.648 76.6708 134.638 77.5714 135.769 77.4309C143.996 76.3897 150.364 69.3571 150.364 60.8489C150.364 52.3408 143.996 45.3081 135.769 44.267C134.644 44.1201 133.648 45.0207 133.648 46.1577Z" fill="#5600E3"/>
<path d="M128.583 79.1363C130.033 79.1363 131.214 77.961 131.214 76.5047V45.1804C131.214 43.7304 130.039 42.5487 128.583 42.5487C127.133 42.5487 125.951 43.724 125.951 45.1804V76.5047C125.951 77.961 127.133 79.1363 128.583 79.1363Z" fill="#5600E3"/>
<path d="M101.679 41.3798H90.3151C89.6445 41.3798 89.1079 40.8368 89.1079 40.1725C89.1079 39.5019 89.6508 38.9653 90.3151 38.9653H101.679C102.349 38.9653 102.886 39.5082 102.886 40.1725C102.886 40.8368 102.349 41.3798 101.679 41.3798Z" fill="#2DFFB3"/>
<path d="M99.0789 36.3783H92.9213C92.2507 36.3783 91.7141 35.8354 91.7141 35.1711C91.7141 34.5068 92.257 33.9639 92.9213 33.9639H99.0725C99.7432 33.9639 100.28 34.5068 100.28 35.1711C100.28 35.8354 99.7432 36.3783 99.0789 36.3783Z" fill="#2DFFB3"/>
<path d="M104.77 46.3811H87.2301C86.5594 46.3811 86.0228 45.8382 86.0228 45.1739C86.0228 44.5032 86.5658 43.9667 87.2301 43.9667H104.77C105.441 43.9667 105.977 44.5096 105.977 45.1739C105.977 45.8382 105.441 46.3811 104.77 46.3811Z" fill="#2DFFB3"/>
<path d="M104.77 51.5231H87.2301C86.5594 51.5231 86.0228 50.9802 86.0228 50.3159C86.0228 49.6452 86.5658 49.1086 87.2301 49.1086H104.77C105.441 49.1086 105.977 49.6516 105.977 50.3159C105.977 50.9802 105.441 51.5231 104.77 51.5231Z" fill="#2DFFB3"/>
</g>
<path d="M75.458 58.8303H72.6603C71.8235 58.8303 71.1528 58.1533 71.1528 57.3229C71.1528 56.4861 71.8299 55.8154 72.6603 55.8154H75.458C76.2948 55.8154 76.9655 56.4925 76.9655 57.3229C76.9718 58.1533 76.2948 58.8303 75.458 58.8303Z" fill="#5600E3"/>
<path d="M119.123 58.8303H116.325C115.489 58.8303 114.818 58.1533 114.818 57.3229C114.818 56.4861 115.495 55.8154 116.325 55.8154H119.123C119.96 55.8154 120.63 56.4925 120.63 57.3229C120.63 58.1533 119.953 58.8303 119.123 58.8303Z" fill="#5600E3"/>
<path d="M96.0001 30.0866C103.595 30.0866 109.778 36.2697 109.778 43.8645V67.8559C109.778 75.4507 103.595 81.6338 96.0001 81.6338C88.4053 81.6338 82.2222 75.4507 82.2222 67.8559V43.8645C82.2222 36.2634 88.4053 30.0866 96.0001 30.0866ZM96.0001 27.6658C87.0576 27.6658 79.8077 34.9156 79.8077 43.8581V67.8496C79.8077 76.7921 87.0576 84.0419 96.0001 84.0419C104.943 84.0419 112.192 76.7921 112.192 67.8496V43.8645C112.192 34.9156 104.943 27.6658 96.0001 27.6658Z" fill="#5600E3"/>
<path d="M96.0001 27.6658C87.0576 27.6658 79.8077 34.9156 79.8077 43.8581V67.8496C79.8077 76.7921 87.0576 84.0419 96.0001 84.0419C100.471 84.0419 104.521 82.2278 107.453 79.3024C110.385 76.3705 112.192 72.3272 112.192 67.8559V43.8645C112.192 34.9156 104.943 27.6658 96.0001 27.6658ZM109.778 67.8559C109.778 75.4507 103.595 81.6274 96.0001 81.6274C88.4053 81.6274 82.2222 75.4507 82.2222 67.8559V43.8645C82.2222 36.2697 88.4053 30.0866 96.0001 30.0866C103.595 30.0866 109.778 36.2697 109.778 43.8645V67.8559Z" fill="#5600E3"/>
<path d="M116.095 55.854V67.4857C116.095 78.568 107.076 87.5807 96.0001 87.5807C84.9242 87.5807 75.905 78.568 75.905 67.4857V55.854H72.5197V67.4857C72.5197 80.4331 83.0526 90.9597 96.0001 90.9597C108.948 90.9597 119.481 80.4331 119.481 67.4857V55.854H116.095Z" fill="#5600E3"/>
<path d="M112.192 55.8284V67.856C112.192 72.3273 110.378 76.377 107.453 79.3024C104.521 82.2343 100.471 84.042 96.0001 84.042C87.0576 84.042 79.8077 76.7922 79.8077 67.8496V55.8284H112.192Z" fill="#5600E3"/>
<path d="M99.0726 90.7617H92.9214V99.8511H99.0726V90.7617Z" fill="#5600E3"/>
<path d="M86.6233 103.856C86.6233 102.598 87.6389 101.582 88.8972 101.582H103.103C104.361 101.582 105.377 102.598 105.377 103.856C105.377 105.114 104.361 106.13 103.103 106.13H88.8972C87.6389 106.13 86.6233 105.114 86.6233 103.856Z" fill="#5600E3"/>
<path d="M16.4 86.9802C7.77959 79.9769 2.27441 69.2935 2.27441 57.32C2.27441 45.3525 7.77959 34.6691 16.4 27.6658" stroke="#2DFFB3" stroke-width="4" stroke-miterlimit="10" stroke-linecap="round"/>
<path d="M31.1645 81.0886C23.6023 75.8925 18.644 67.1889 18.644 57.32C18.644 47.6711 23.3882 39.1279 30.671 33.8962" stroke="#2DFFB3" stroke-width="4" stroke-miterlimit="10" stroke-linecap="round"/>
<path d="M175.6 86.9802C184.22 79.9769 189.725 69.2935 189.725 57.32C189.725 45.3525 184.22 34.6691 175.6 27.6658" stroke="#2DFFB3" stroke-width="4" stroke-miterlimit="10" stroke-linecap="round"/>
<path d="M160.835 81.0886C168.397 75.8925 173.356 67.1889 173.356 57.32C173.356 47.6711 168.612 39.1279 161.329 33.8962" stroke="#2DFFB3" stroke-width="4" stroke-miterlimit="10" stroke-linecap="round"/>
<defs>
<clipPath id="clip0">
<rect width="108.741" height="106.02" fill="white" transform="translate(41.6296 0.110107)"/>
</clipPath>
</defs>
</svg>
