<svg id="evwT1qmrLJC1" xmlns="http://www.w3.org/2000/svg" xmlns:xlink="http://www.w3.org/1999/xlink" viewBox="0 0 192 107" shape-rendering="geometricPrecision" text-rendering="geometricPrecision"><style><![CDATA[#evwT1qmrLJC2_tr {animation: evwT1qmrLJC2_tr__tr 10500ms linear infinite normal forwards}@keyframes evwT1qmrLJC2_tr__tr { 0% {transform: translate(95.996799px,39.623203px) rotate(0deg)} 9.523810% {transform: translate(95.996799px,39.623203px) rotate(5deg)} 19.047619% {transform: translate(95.996799px,39.623203px) rotate(-5deg)} 28.571429% {transform: translate(95.996799px,39.623203px) rotate(0deg)} 38.095238% {transform: translate(95.996799px,39.623203px) rotate(5deg)} 47.619048% {transform: translate(95.996799px,39.623203px) rotate(-5deg)} 57.142857% {transform: translate(95.996799px,39.623203px) rotate(0deg)} 100% {transform: translate(95.996799px,39.623203px) rotate(0deg)}} #evwT1qmrLJC8_tr {animation: evwT1qmrLJC8_tr__tr 10500ms linear infinite normal forwards}@keyframes evwT1qmrLJC8_tr__tr { 0% {transform: translate(95.891399px,73.387550px) rotate(0deg)} 9.523810% {transform: translate(95.891399px,73.387550px) rotate(1deg)} 19.047619% {transform: translate(95.891399px,73.387550px) rotate(-1deg)} 28.571429% {transform: translate(95.891399px,73.387550px) rotate(0deg)} 38.095238% {transform: translate(95.891399px,73.387550px) rotate(1deg)} 47.619048% {transform: translate(95.891399px,73.387550px) rotate(-1deg)} 57.142857% {transform: translate(95.891399px,73.387550px) rotate(0deg)} 100% {transform: translate(95.891399px,73.387550px) rotate(0deg)}} #evwT1qmrLJC12_tr {animation: evwT1qmrLJC12_tr__tr 10500ms linear infinite normal forwards}@keyframes evwT1qmrLJC12_tr__tr { 0% {transform: translate(95.999851px,55.853899px) rotate(0deg)} 9.523810% {transform: translate(95.999851px,55.853899px) rotate(3deg)} 19.047619% {transform: translate(95.999851px,55.853899px) rotate(-3deg)} 28.571429% {transform: translate(95.999851px,55.853899px) rotate(0deg)} 38.095238% {transform: translate(95.999851px,55.853899px) rotate(3deg)} 47.619048% {transform: translate(95.999851px,55.853899px) rotate(-3deg)} 57.142857% {transform: translate(95.999851px,55.853899px) rotate(0deg)} 100% {transform: translate(95.999851px,55.853899px) rotate(0deg)}} #evwT1qmrLJC14_ts {animation: evwT1qmrLJC14_ts__ts 10500ms linear infinite normal forwards}@keyframes evwT1qmrLJC14_ts__ts { 0% {transform: translate(89.107900px,40.218503px) scale(1.006168,1)} 4.761905% {transform: translate(89.107900px,40.218503px) scale(1.006168,1)} 9.523810% {transform: translate(89.107900px,40.218503px) scale(0.227415,1)} 14.285714% {transform: translate(89.107900px,40.218503px) scale(1.006168,1)} 28.571429% {transform: translate(89.107900px,40.218503px) scale(1.006168,1)} 33.333333% {transform: translate(89.107900px,40.218503px) scale(0.227415,1)} 38.095238% {transform: translate(89.107900px,40.218503px) scale(1.006168,1)} 100% {transform: translate(89.107900px,40.218503px) scale(1.006168,1)}} #evwT1qmrLJC15_ts {animation: evwT1qmrLJC15_ts__ts 10500ms linear infinite normal forwards}@keyframes evwT1qmrLJC15_ts__ts { 0% {transform: translate(91.714100px,35.171100px) scale(1.002915,1)} 4.761905% {transform: translate(91.714100px,35.171100px) scale(0.564269,1)} 9.523810% {transform: translate(91.714100px,35.171100px) scale(1.002915,1)} 23.809524% {transform: translate(91.714100px,35.171100px) scale(1.002915,1)} 28.571429% {transform: translate(91.714100px,35.171100px) scale(0.564269,1)} 33.333333% {transform: translate(91.714100px,35.171100px) scale(1.002915,1)} 100% {transform: translate(91.714100px,35.171100px) scale(1.002915,1)}} #evwT1qmrLJC16_ts {animation: evwT1qmrLJC16_ts__ts 10500ms linear infinite normal forwards}@keyframes evwT1qmrLJC16_ts__ts { 0% {transform: translate(85.992272px,45.173900px) scale(1,1)} 9.523810% {transform: translate(85.992272px,45.173900px) scale(1,1)} 14.285714% {transform: translate(85.992272px,45.173900px) scale(0.223404,1)} 19.047619% {transform: translate(85.992272px,45.173900px) scale(1,1)} 33.333333% {transform: translate(85.992272px,45.173900px) scale(0.223404,1)} 38.095238% {transform: translate(85.992272px,45.173900px) scale(1,1)} 42.857143% {transform: translate(85.992272px,45.173900px) scale(1,1)} 100% {transform: translate(85.992272px,45.173900px) scale(1,1)}} #evwT1qmrLJC17_ts {animation: evwT1qmrLJC17_ts__ts 10500ms linear infinite normal forwards}@keyframes evwT1qmrLJC17_ts__ts { 0% {transform: translate(85.999092px,50.315850px) scale(1,1)} 14.285714% {transform: translate(85.999092px,50.315850px) scale(1,1)} 19.047619% {transform: translate(85.999092px,50.315850px) scale(0.166974,1)} 23.809524% {transform: translate(85.999092px,50.315850px) scale(1,1)} 38.095238% {transform: translate(85.999092px,50.315850px) scale(1,1)} 42.857143% {transform: translate(85.999092px,50.315850px) scale(0.166974,1)} 47.619048% {transform: translate(85.999092px,50.315850px) scale(1,1)} 100% {transform: translate(85.999092px,50.315850px) scale(1,1)}} #evwT1qmrLJC24 {animation: evwT1qmrLJC24_c_o 10500ms linear infinite normal forwards}@keyframes evwT1qmrLJC24_c_o { 0% {opacity: 1} 14.285714% {opacity: 1} 28.571429% {opacity: 0} 42.857143% {opacity: 1} 57.142857% {opacity: 0} 71.428571% {opacity: 1} 85.714286% {opacity: 0} 100% {opacity: 1}} #evwT1qmrLJC25 {animation: evwT1qmrLJC25_c_o 10500ms linear infinite normal forwards}@keyframes evwT1qmrLJC25_c_o { 0% {opacity: 1} 14.285714% {opacity: 0} 28.571429% {opacity: 1} 42.857143% {opacity: 0} 57.142857% {opacity: 1} 71.428571% {opacity: 0} 85.714286% {opacity: 1} 100% {opacity: 1}} #evwT1qmrLJC27 {animation: evwT1qmrLJC27_c_o 10500ms linear infinite normal forwards}@keyframes evwT1qmrLJC27_c_o { 0% {opacity: 1} 14.285714% {opacity: 1} 28.571429% {opacity: 0} 42.857143% {opacity: 1} 57.142857% {opacity: 0} 71.428571% {opacity: 1} 85.714286% {opacity: 0} 100% {opacity: 1}} #evwT1qmrLJC28 {animation: evwT1qmrLJC28_c_o 10500ms linear infinite normal forwards}@keyframes evwT1qmrLJC28_c_o { 0% {opacity: 1} 14.285714% {opacity: 0} 28.571429% {opacity: 1} 42.857143% {opacity: 0} 57.142857% {opacity: 1} 71.428571% {opacity: 0} 85.714286% {opacity: 1} 100% {opacity: 1}}]]></style><g id="evwT1qmrLJC2_tr" transform="translate(95.996799,39.623203) rotate(0)"><g id="evwT1qmrLJC2" transform="translate(-95.996799,-39.623203)"><path id="evwT1qmrLJC3" d="M58.345700,46.157600L58.345700,75.533800C58.345700,76.670700,57.355700,77.571400,56.225100,77.430900C47.998000,76.389700,41.629600,69.357100,41.629600,60.842500C41.629600,52.328000,47.998000,45.301700,56.225100,44.260500C57.355700,44.120000,58.345700,45.020700,58.345700,46.157600Z" fill="rgb(86,0,227)" stroke="none" stroke-width="1"/><path id="evwT1qmrLJC4" d="M63.411100,79.136300C61.961100,79.136300,60.779400,77.961000,60.779400,76.504700L60.779400,45.180400C60.779400,43.730400,61.954700,42.548700,63.411100,42.548700C64.867400,42.548700,66.042700,43.724000,66.042700,45.180400L66.042700,76.504700C66.042700,77.961000,64.867400,79.136300,63.411100,79.136300Z" fill="rgb(86,0,227)" stroke="none" stroke-width="1"/><path id="evwT1qmrLJC5" d="M139.097000,43.206600C139.097000,44.311600,139.052000,45.397500,138.975000,46.477000L134.849000,46.477000C134.945000,45.397500,134.989000,44.305200,134.989000,43.206600C134.989000,39.795700,134.549000,36.493300,133.725000,33.337900L130.071000,33.337900C125.798000,18.557200,112.160000,7.736790,96.000100,7.736790C79.839700,7.736790,66.202400,18.550800,61.922800,33.337900L58.269100,33.337900C57.445100,36.486900,57.004400,39.795700,57.004400,43.206600C57.004400,44.311600,57.049100,45.403900,57.144900,46.477000L53.018600,46.477000C52.941900,45.391100,52.897200,44.305200,52.897200,43.206600C52.903600,19.406800,72.200300,0.110107,96.000100,0.110107C119.800000,0.110107,139.097000,19.406800,139.097000,43.206600Z" fill="rgb(86,0,227)" stroke="none" stroke-width="1"/><path id="evwT1qmrLJC6" d="M133.648000,46.157700L133.648000,75.533800C133.648000,76.670800,134.638000,77.571400,135.769000,77.430900C143.996000,76.389700,150.364000,69.357100,150.364000,60.848900C150.364000,52.340800,143.996000,45.308100,135.769000,44.267000C134.644000,44.120100,133.648000,45.020700,133.648000,46.157700Z" fill="rgb(86,0,227)" stroke="none" stroke-width="1"/><path id="evwT1qmrLJC7" d="M128.583000,79.136300C130.033000,79.136300,131.214000,77.961000,131.214000,76.504700L131.214000,45.180400C131.214000,43.730400,130.039000,42.548700,128.583000,42.548700C127.133000,42.548700,125.951000,43.724000,125.951000,45.180400L125.951000,76.504700C125.951000,77.961000,127.133000,79.136300,128.583000,79.136300Z" fill="rgb(86,0,227)" stroke="none" stroke-width="1"/></g></g><g id="evwT1qmrLJC8_tr" transform="translate(95.891399,73.387550) rotate(0)"><g id="evwT1qmrLJC8" transform="translate(-95.891399,-73.387550)"><path id="evwT1qmrLJC9" d="M75.458000,58.830300L72.660300,58.830300C71.823500,58.830300,71.152800,58.153300,71.152800,57.322900C71.152800,56.486100,71.829900,55.815400,72.660300,55.815400L75.458000,55.815400C76.294800,55.815400,76.965500,56.492500,76.965500,57.322900C76.971800,58.153300,76.294800,58.830300,75.458000,58.830300Z" fill="rgb(86,0,227)" stroke="none" stroke-width="1"/><path id="evwT1qmrLJC10" d="M119.123000,58.830300L116.325000,58.830300C115.489000,58.830300,114.818000,58.153300,114.818000,57.322900C114.818000,56.486100,115.495000,55.815400,116.325000,55.815400L119.123000,55.815400C119.960000,55.815400,120.630000,56.492500,120.630000,57.322900C120.630000,58.153300,119.953000,58.830300,119.123000,58.830300Z" fill="rgb(86,0,227)" stroke="none" stroke-width="1"/><path id="evwT1qmrLJC11" d="M116.095000,55.854000L116.095000,67.485700C116.095000,78.568000,107.076000,87.580700,96.000100,87.580700C84.924200,87.580700,75.905000,78.568000,75.905000,67.485700L75.905000,55.854000L72.519700,55.854000L72.519700,67.485700C72.519700,80.433100,83.052600,90.959700,96.000100,90.959700C108.948000,90.959700,119.481000,80.433100,119.481000,67.485700L119.481000,55.854000L116.095000,55.854000Z" fill="rgb(86,0,227)" stroke="none" stroke-width="1"/></g></g><g id="evwT1qmrLJC12_tr" transform="translate(95.999851,55.853899) rotate(0)"><g id="evwT1qmrLJC12" transform="translate(-95.999851,-55.853899)"><g id="evwT1qmrLJC13"><g id="evwT1qmrLJC14_ts" transform="translate(89.107900,40.218503) scale(1.006168,1)"><path id="evwT1qmrLJC14" d="M101.603659,41.379800L90.307865,41.379800C89.641284,41.379800,89.107900,40.836800,89.107900,40.172500C89.107900,39.501900,89.647546,38.965300,90.307865,38.965300L101.603659,38.965300C102.269643,38.965300,102.803425,39.508200,102.803425,40.172500C102.803425,40.836800,102.269643,41.379800,101.603659,41.379800Z" transform="translate(-89.107900,-40.218503)" fill="rgb(45,255,179)" stroke="none" stroke-width="1"/></g><g id="evwT1qmrLJC15_ts" transform="translate(91.714100,35.171100) scale(1.002915,1)"><path id="evwT1qmrLJC15" d="M99.061010,36.378300L92.918368,36.378300C92.249397,36.378300,91.714100,35.835400,91.714100,35.171100C91.714100,34.506800,92.255681,33.963900,92.918368,33.963900L99.054625,33.963900C99.723696,33.963900,100.259192,34.506800,100.259192,35.171100C100.259192,35.835400,99.723696,36.378300,99.061010,36.378300Z" transform="translate(-91.714100,-35.171100)" fill="rgb(45,255,179)" stroke="none" stroke-width="1"/></g><g id="evwT1qmrLJC16_ts" transform="translate(85.992272,45.173900) scale(1,1)"><path id="evwT1qmrLJC16" d="M104.770000,46.381100L87.230100,46.381100C86.559400,46.381100,86.022800,45.838200,86.022800,45.173900C86.022800,44.503200,86.565800,43.966700,87.230100,43.966700L104.770000,43.966700C105.441000,43.966700,105.977000,44.509600,105.977000,45.173900C105.977000,45.838200,105.441000,46.381100,104.770000,46.381100Z" transform="translate(-85.992272,-45.173900)" fill="rgb(45,255,179)" stroke="none" stroke-width="1"/></g><g id="evwT1qmrLJC17_ts" transform="translate(85.999092,50.315850) scale(1,1)"><path id="evwT1qmrLJC17" d="M104.770000,51.523100L87.230100,51.523100C86.559400,51.523100,86.022800,50.980200,86.022800,50.315900C86.022800,49.645200,86.565800,49.108600,87.230100,49.108600L104.770000,49.108600C105.441000,49.108600,105.977000,49.651600,105.977000,50.315900C105.977000,50.980200,105.441000,51.523100,104.770000,51.523100Z" transform="translate(-85.999092,-50.315850)" fill="rgb(45,255,179)" stroke="none" stroke-width="1"/></g></g><path id="evwT1qmrLJC18" d="M96.000100,30.086600C103.595000,30.086600,109.778000,36.269700,109.778000,43.864500L109.778000,67.855900C109.778000,75.450700,103.595000,81.633800,96.000100,81.633800C88.405300,81.633800,82.222200,75.450700,82.222200,67.855900L82.222200,43.864500C82.222200,36.263400,88.405300,30.086600,96.000100,30.086600ZM96.000100,27.665800C87.057600,27.665800,79.807700,34.915600,79.807700,43.858100L79.807700,67.849600C79.807700,76.792100,87.057600,84.041900,96.000100,84.041900C104.943000,84.041900,112.192000,76.792100,112.192000,67.849600L112.192000,43.864500C112.192000,34.915600,104.943000,27.665800,96.000100,27.665800Z" fill="rgb(86,0,227)" stroke="none" stroke-width="1"/><path id="evwT1qmrLJC19" d="M96.000100,27.665800C87.057600,27.665800,79.807700,34.915600,79.807700,43.858100L79.807700,67.849600C79.807700,76.792100,87.057600,84.041900,96.000100,84.041900C100.471000,84.041900,104.521000,82.227800,107.453000,79.302400C110.385000,76.370500,112.192000,72.327200,112.192000,67.855900L112.192000,43.864500C112.192000,34.915600,104.943000,27.665800,96.000100,27.665800ZM109.778000,67.855900C109.778000,75.450700,103.595000,81.627400,96.000100,81.627400C88.405300,81.627400,82.222200,75.450700,82.222200,67.855900L82.222200,43.864500C82.222200,36.269700,88.405300,30.086600,96.000100,30.086600C103.595000,30.086600,109.778000,36.269700,109.778000,43.864500L109.778000,67.855900Z" fill="rgb(86,0,227)" stroke="none" stroke-width="1"/><path id="evwT1qmrLJC20" d="M112.192000,55.828400L112.192000,67.856000C112.192000,72.327300,110.378000,76.377000,107.453000,79.302400C104.521000,82.234300,100.471000,84.042000,96.000100,84.042000C87.057600,84.042000,79.807700,76.792200,79.807700,67.849600L79.807700,55.828400L112.192000,55.828400Z" fill="rgb(86,0,227)" stroke="none" stroke-width="1"/></g></g><path id="evwT1qmrLJC21" d="M99.072600,90.761700L92.921400,90.761700L92.921400,99.851100L99.072600,99.851100L99.072600,90.761700Z" fill="rgb(86,0,227)" stroke="none" stroke-width="1"/><path id="evwT1qmrLJC22" d="M86.623300,103.856000C86.623300,102.598000,87.638900,101.582000,88.897200,101.582000L103.103000,101.582000C104.361000,101.582000,105.377000,102.598000,105.377000,103.856000C105.377000,105.114000,104.361000,106.130000,103.103000,106.130000L88.897200,106.130000C87.638900,106.130000,86.623300,105.114000,86.623300,103.856000Z" fill="rgb(86,0,227)" stroke="none" stroke-width="1"/><g id="evwT1qmrLJC23"><path id="evwT1qmrLJC24" d="M16.400000,86.980200C7.779590,79.976900,2.274410,69.293500,2.274410,57.320000C2.274410,45.352500,7.779590,34.669100,16.400000,27.665800" fill="none" stroke="rgb(45,255,179)" stroke-width="4" stroke-linecap="round" stroke-miterlimit="10"/><path id="evwT1qmrLJC25" d="M31.164500,81.088600C23.602300,75.892500,18.644000,67.188900,18.644000,57.320000C18.644000,47.671100,23.388200,39.127900,30.671000,33.896200" fill="none" stroke="rgb(45,255,179)" stroke-width="4" stroke-linecap="round" stroke-miterlimit="10"/></g><g id="evwT1qmrLJC26"><path id="evwT1qmrLJC27" d="M175.600000,86.980200C184.220000,79.976900,189.725000,69.293500,189.725000,57.320000C189.725000,45.352500,184.220000,34.669100,175.600000,27.665800" fill="none" stroke="rgb(45,255,179)" stroke-width="4" stroke-linecap="round" stroke-miterlimit="10"/><path id="evwT1qmrLJC28" d="M160.835000,81.088600C168.397000,75.892500,173.356000,67.188900,173.356000,57.320000C173.356000,47.671100,168.612000,39.127900,161.329000,33.896200" fill="none" stroke="rgb(45,255,179)" stroke-width="4" stroke-linecap="round" stroke-miterlimit="10"/></g></svg>