<svg id="epDNdfMgomI1" xmlns="http://www.w3.org/2000/svg" xmlns:xlink="http://www.w3.org/1999/xlink" viewBox="0 0 221 376" shape-rendering="geometricPrecision" text-rendering="geometricPrecision"><style><![CDATA[#epDNdfMgomI8_ts {animation: epDNdfMgomI8_ts__ts 10000ms linear infinite normal forwards}@keyframes epDNdfMgomI8_ts__ts { 0% {transform: translate(105.599829px,124.538000px) scale(1,1)} 27% {transform: translate(105.599829px,124.538000px) scale(1,1)} 29% {transform: translate(105.599829px,124.538000px) scale(1.137168,0.850244)} 31% {transform: translate(105.599829px,124.538000px) scale(0.786531,1.002421)} 33% {transform: translate(105.599829px,124.538000px) scale(1,1)} 100% {transform: translate(105.599829px,124.538000px) scale(1,1)}} #epDNdfMgomI36_tr {animation: epDNdfMgomI36_tr__tr 10000ms linear infinite normal forwards}@keyframes epDNdfMgomI36_tr__tr { 0% {transform: translate(117.819778px,293.476044px) rotate(0deg)} 25% {transform: translate(117.819778px,293.476044px) rotate(-7deg)} 50% {transform: translate(117.819778px,293.476044px) rotate(0deg)} 75% {transform: translate(117.819778px,293.476044px) rotate(-7deg)} 100% {transform: translate(117.819778px,293.476044px) rotate(0deg)}} #epDNdfMgomI37_tr {animation: epDNdfMgomI37_tr__tr 10000ms linear infinite normal forwards}@keyframes epDNdfMgomI37_tr__tr { 0% {transform: translate(95.136426px,359.993966px) rotate(0deg)} 25% {transform: translate(95.136426px,359.993966px) rotate(-7deg)} 50% {transform: translate(95.136426px,359.993966px) rotate(0deg)} 75% {transform: translate(95.136426px,359.993966px) rotate(-7deg)} 100% {transform: translate(95.136426px,359.993966px) rotate(0deg)}} #epDNdfMgomI45_ts {animation: epDNdfMgomI45_ts__ts 10000ms linear infinite normal forwards}@keyframes epDNdfMgomI45_ts__ts { 0% {transform: translate(146.614000px,273.632782px) scale(1,1)} 25% {transform: translate(146.614000px,273.632782px) scale(1,0.972933)} 50% {transform: translate(146.614000px,273.632782px) scale(1,1.014574)} 75% {transform: translate(146.614000px,273.632782px) scale(1,0.972933)} 100% {transform: translate(146.614000px,273.632782px) scale(1,1)}} #epDNdfMgomI46_tr {animation: epDNdfMgomI46_tr__tr 10000ms linear infinite normal forwards}@keyframes epDNdfMgomI46_tr__tr { 0% {transform: translate(154.994049px,204.090652px) rotate(0deg)} 25% {transform: translate(154.994049px,204.090652px) rotate(2deg)} 50% {transform: translate(154.994049px,204.090652px) rotate(0deg)} 75% {transform: translate(154.994049px,204.090652px) rotate(2deg)} 100% {transform: translate(154.994049px,204.090652px) rotate(0deg)}} #epDNdfMgomI53_tr {animation: epDNdfMgomI53_tr__tr 10000ms linear infinite normal forwards}@keyframes epDNdfMgomI53_tr__tr { 0% {transform: translate(172.718500px,185.536543px) rotate(0deg)} 25% {transform: translate(172.718500px,185.536543px) rotate(-4deg)} 50% {transform: translate(172.718500px,185.536543px) rotate(4deg)} 75% {transform: translate(172.718500px,185.536543px) rotate(-4deg)} 100% {transform: translate(172.718500px,185.536543px) rotate(0deg)}} #epDNdfMgomI62_tr {animation: epDNdfMgomI62_tr__tr 10000ms linear infinite normal forwards}@keyframes epDNdfMgomI62_tr__tr { 0% {transform: translate(186.694519px,196.037537px) rotate(0deg)} 25% {transform: translate(186.694519px,196.037537px) rotate(4.370000deg)} 50% {transform: translate(186.694519px,196.037537px) rotate(0deg)} 75% {transform: translate(186.694519px,196.037537px) rotate(4.370000deg)} 100% {transform: translate(186.694519px,196.037537px) rotate(0deg)}} #epDNdfMgomI67_ts {animation: epDNdfMgomI67_ts__ts 10000ms linear infinite normal forwards}@keyframes epDNdfMgomI67_ts__ts { 0% {transform: translate(64.542393px,283.758675px) scale(1,1)} 40% {transform: translate(64.542393px,283.758675px) scale(1,1)} 42% {transform: translate(64.542393px,283.758675px) scale(1.119822,0.845742)} 44% {transform: translate(64.542393px,283.758675px) scale(0.885874,1.150845)} 46% {transform: translate(64.542393px,283.758675px) scale(1,1)} 100% {transform: translate(64.542393px,283.758675px) scale(1,1)}} #epDNdfMgomI68_tk {animation: epDNdfMgomI68_tk__tk 10000ms linear infinite normal forwards}@keyframes epDNdfMgomI68_tk__tk { 0% {transform: translate(28.446098px,372.751000px) skewX(7deg) skewY(0deg)} 25% {transform: translate(28.446098px,372.751000px) skewX(-7deg) skewY(0deg)} 50% {transform: translate(28.446098px,372.751000px) skewX(7deg) skewY(0deg)} 75% {transform: translate(28.446098px,372.751000px) skewX(-7deg) skewY(0deg)} 100% {transform: translate(28.446098px,372.751000px) skewX(7deg) skewY(0deg)}}]]></style><defs><linearGradient id="epDNdfMgomI13-fill" x1="90.792000" y1="63.767300" x2="114.316000" y2="133.358000" spreadMethod="pad" gradientUnits="userSpaceOnUse"><stop id="epDNdfMgomI13-fill-0" offset="0%" stop-color="rgb(38,128,193)"/><stop id="epDNdfMgomI13-fill-1" offset="100%" stop-color="rgba(38,128,193,0)"/></linearGradient></defs><g id="epDNdfMgomI2" clip-path="url(#epDNdfMgomI11)"><g id="epDNdfMgomI3"><path id="epDNdfMgomI4" d="M0,0L0,199.778000L221,199.778000L221,0L0,0ZM215.864000,194.650000L5.127940,194.650000L5.127940,5.128490L215.864000,5.128490L215.864000,194.650000Z" fill="rgb(232,241,251)" stroke="none" stroke-width="1"/><path id="epDNdfMgomI5" d="M217.277000,9.350980L3.731690,9.350980L3.731690,13.806200L217.277000,13.806200L217.277000,9.350980Z" fill="rgb(232,241,251)" stroke="none" stroke-width="1"/><path id="epDNdfMgomI6" d="M217.277000,18.918100L3.731690,18.918100L3.731690,23.373300L217.277000,23.373300L217.277000,18.918100Z" fill="rgb(232,241,251)" stroke="none" stroke-width="1"/><path id="epDNdfMgomI7" d="M217.277000,28.485100L3.731690,28.485100L3.731690,32.940400L217.277000,32.940400L217.277000,28.485100Z" fill="rgb(232,241,251)" stroke="none" stroke-width="1"/><g id="epDNdfMgomI8_ts" transform="translate(105.599829,124.538000) scale(1,1)"><g id="epDNdfMgomI8" transform="translate(-105.599829,-124.538000)"><path id="epDNdfMgomI9" d="M146.657000,81.407500C146.657000,62.747100,128.323000,47.619300,105.709000,47.619300C83.094300,47.619300,64.751700,62.747100,64.751700,81.407500C64.751700,100.068000,83.086000,115.187000,105.709000,115.187000C106.822000,115.187000,107.919000,115.137000,109.017000,115.071000L116.746000,124.538000L115.848000,114.148000C133.559000,110.425000,146.657000,97.175300,146.657000,81.407500Z" fill="rgb(86,0,227)" stroke="none" stroke-width="1"/><path id="epDNdfMgomI10" d="M123.852000,75.921600C127.318000,75.921600,130.127000,78.731000,130.127000,82.197100C130.127000,85.663200,127.318000,88.472700,123.852000,88.472700C120.386000,88.472700,117.577000,85.663200,117.577000,82.197100C117.577000,78.731000,120.386000,75.921600,123.852000,75.921600ZM99.425600,82.197100C99.425600,85.663200,102.235000,88.472700,105.700000,88.472700C109.166000,88.472700,111.975000,85.663200,111.975000,82.197100C111.975000,78.731000,109.166000,75.921600,105.700000,75.921600C102.243000,75.921600,99.425600,78.731000,99.425600,82.197100ZM81.282500,82.197100C81.282500,85.663200,84.091600,88.472700,87.557300,88.472700C91.023100,88.472700,93.832200,85.663200,93.832200,82.197100C93.832200,78.731000,91.023100,75.921600,87.557300,75.921600C84.091600,75.921600,81.282500,78.731000,81.282500,82.197100Z" fill="rgb(255,255,255)" stroke="none" stroke-width="1"/></g></g></g><clipPath id="epDNdfMgomI11"><rect id="epDNdfMgomI12" width="221" height="199.778000" rx="0" ry="0" fill="rgb(255,255,255)" stroke="none" stroke-width="1"/></clipPath></g><path id="epDNdfMgomI13" d="M78.856100,59.006900C62.554900,59.035900,45.197000,67.323200,34.571600,76.998900C19.890800,90.366500,12.507000,118.057000,24.099300,132.756000C32.369800,143.234000,48.412000,140.764000,61.256800,144.590000C73.420600,148.241000,81.649100,158.329000,95.450200,159.175000C106.294000,159.805000,116.445000,154.497000,125.560000,150.142000C140.008000,143.243000,155.401000,138.208000,170.248000,131.974000C180.300000,127.766000,190.074000,122.280000,196.070000,114.574000C209.023000,97.968200,201.117000,73.322200,180.104000,65.304500C173.139000,62.651700,164.047000,61.320000,156.087000,62.766600C147.304000,64.392200,140.197000,69.718000,131.364000,71.262100C123.375000,72.648900,115.670000,70.651300,108.864000,67.875400C102.163000,65.133200,95.858900,61.684000,88.542700,60.028800C85.380100,59.320100,82.159500,59.006300,78.856100,59.006900Z" opacity="0.4" fill="url(#epDNdfMgomI13-fill)" fill-opacity="0.2" stroke="none" stroke-width="1"/><g id="epDNdfMgomI14"><path id="epDNdfMgomI15" d="M218.669000,376L10.567400,376C9.279420,376,8.236330,374.955000,8.236330,373.665000C8.236330,372.374000,9.279420,371.329000,10.567400,371.329000L218.669000,371.329000C219.957000,371.329000,221,372.374000,221,373.665000C221,374.955000,219.957000,376,218.669000,376Z" fill="rgb(128,146,201)" stroke="none" stroke-width="1"/><path id="epDNdfMgomI16" d="M141.716000,239.280000L21.225100,239.280000C18.939300,239.280000,17.089000,237.426000,17.089000,235.136000C17.089000,232.846000,18.939300,230.993000,21.225100,230.993000L141.716000,230.993000C144.002000,230.993000,145.852000,232.846000,145.852000,235.136000C145.852000,237.426000,144.002000,239.280000,141.716000,239.280000Z" fill="rgb(173,194,221)" stroke="none" stroke-width="1"/><path id="epDNdfMgomI17" d="M86.368500,239.280000L77.561200,239.280000L77.561200,371.338000L86.368500,371.338000L86.368500,239.280000Z" fill="rgb(171,194,225)" stroke="none" stroke-width="1"/><path id="epDNdfMgomI18" d="M131.657000,371.338000L35.447400,371.338000C35.447400,366.722000,39.184400,362.979000,43.792100,362.979000L123.321000,362.979000C127.920000,362.979000,131.657000,366.722000,131.657000,371.338000Z" fill="rgb(186,207,235)" stroke="none" stroke-width="1"/><path id="epDNdfMgomI19" d="M68.046400,195.954000L70.903600,194.891000C71.574800,194.636000,71.910400,193.891000,71.665500,193.219000C71.411500,192.546000,70.667700,192.210000,69.996500,192.456000L67.139400,193.519000C66.468100,193.773000,66.132500,194.518000,66.377400,195.191000C66.631400,195.863000,67.375200,196.208000,68.046400,195.954000Z" fill="rgb(42,69,75)" stroke="none" stroke-width="1"/><path id="epDNdfMgomI20" d="M73.905900,198.525000L93.933300,193.410000L88.536400,178.916000L69.987500,187.930000C69.153000,188.339000,68.763000,189.311000,69.089500,190.184000L71.783400,197.399000C72.091800,198.271000,73.007900,198.753000,73.905900,198.525000Z" fill="rgb(42,39,106)" stroke="none" stroke-width="1"/><path id="epDNdfMgomI21" d="M88.527300,178.925000L95.702000,176.245000C99.693000,174.754000,104.147000,176.781000,105.634000,180.788000C107.122000,184.786000,105.099000,189.248000,101.099000,190.738000L93.933300,193.419000L88.527300,178.925000Z" fill="rgb(45,255,179)" stroke="none" stroke-width="1"/><path id="epDNdfMgomI22" d="M99.357300,178.843000C99.792700,178.680000,100.010000,178.198000,99.856200,177.762000C99.692900,177.326000,99.212200,177.108000,98.776800,177.262000C98.341400,177.426000,98.123700,177.908000,98.277900,178.344000C98.441200,178.780000,98.921900,179.007000,99.357300,178.843000Z" fill="rgb(15,195,130)" stroke="none" stroke-width="1"/><path id="epDNdfMgomI23" d="M97.343800,179.598000C97.779100,179.434000,97.996800,178.953000,97.842600,178.516000C97.679400,178.080000,97.198600,177.862000,96.763300,178.017000C96.327900,178.180000,96.110200,178.662000,96.264400,179.098000C96.418600,179.534000,96.908400,179.761000,97.343800,179.598000Z" fill="rgb(15,195,130)" stroke="none" stroke-width="1"/><path id="epDNdfMgomI24" d="M95.357300,180.343000C95.792700,180.179000,96.010400,179.698000,95.856200,179.261000C95.692900,178.825000,95.212200,178.607000,94.776800,178.762000C94.341400,178.925000,94.123700,179.407000,94.277900,179.843000C94.432100,180.279000,94.921900,180.506000,95.357300,180.343000Z" fill="rgb(15,195,130)" stroke="none" stroke-width="1"/><path id="epDNdfMgomI25" d="M96.935600,181.878000C97.370900,181.715000,97.588600,181.233000,97.434400,180.797000C97.271200,180.361000,96.790400,180.143000,96.355100,180.297000C95.919700,180.461000,95.702000,180.943000,95.856200,181.379000C96.019500,181.815000,96.500200,182.042000,96.935600,181.878000Z" fill="rgb(15,195,130)" stroke="none" stroke-width="1"/><path id="epDNdfMgomI26" d="M99.003600,181.106000C99.438900,180.943000,99.656600,180.461000,99.502400,180.025000C99.339200,179.589000,98.858400,179.371000,98.423100,179.525000C97.987700,179.689000,97.770000,180.170000,97.924200,180.606000C98.078400,181.052000,98.568200,181.270000,99.003600,181.106000Z" fill="rgb(15,195,130)" stroke="none" stroke-width="1"/><path id="epDNdfMgomI27" d="M78.695000,231.002000L83.357200,231.002000L83.357200,190.229000C83.357200,188.957000,82.323100,187.921000,81.053300,187.921000L80.989800,187.921000C79.719900,187.921000,78.685900,188.957000,78.685900,190.229000L78.685900,231.002000L78.695000,231.002000Z" fill="rgb(75,100,106)" stroke="none" stroke-width="1"/><path id="epDNdfMgomI28" d="M74.610500,230.998000L87.245500,230.998000L87.245500,227.654000L74.610500,227.654000L74.610500,230.998000Z" fill="rgb(42,69,75)" stroke="none" stroke-width="1"/><path id="epDNdfMgomI29" d="M80.155400,190.493000C80.155400,190.974000,80.545400,191.365000,81.026100,191.365000C81.506900,191.365000,81.896900,190.974000,81.896900,190.493000C81.896900,190.011000,81.506900,189.620000,81.026100,189.620000C80.545400,189.611000,80.155400,190.011000,80.155400,190.493000Z" fill="rgb(53,78,84)" stroke="none" stroke-width="1"/><path id="epDNdfMgomI30" d="M205.127000,371.338000L196.474000,296C196.310000,294.455000,194.923000,293.337000,193.372000,293.501000C191.830000,293.664000,190.714000,295.055000,190.877000,296.609000L199.530000,371.947000C199.694000,373.383000,205.299000,372.883000,205.127000,371.338000Z" fill="rgb(128,146,201)" stroke="none" stroke-width="1"/><path id="epDNdfMgomI31" d="M158.097000,372.256000L166.850000,296.599000C167.013000,295.055000,165.897000,293.664000,164.356000,293.492000C162.804000,293.328000,161.426000,294.446000,161.253000,295.991000L152.501000,371.647000C152.337000,373.201000,157.934000,373.701000,158.097000,372.256000Z" fill="rgb(128,146,201)" stroke="none" stroke-width="1"/><path id="epDNdfMgomI32" d="M156.646000,348.140000C156.646000,343.460000,168.428000,341.797000,178.523000,341.797000C188.619000,341.797000,200.401000,343.460000,200.401000,348.140000C200.401000,352.820000,188.619000,354.482000,178.523000,354.482000C168.437000,354.482000,156.646000,352.820000,156.646000,348.140000ZM178.523000,346.041000C169.988000,346.041000,164.510000,347.268000,162.714000,348.140000C164.510000,349.012000,169.988000,350.239000,178.523000,350.239000C187.059000,350.239000,192.537000,349.012000,194.333000,348.140000C192.537000,347.277000,187.059000,346.041000,178.523000,346.041000Z" fill="rgb(128,146,201)" stroke="none" stroke-width="1"/><path id="epDNdfMgomI33" d="M181.335000,372.211000L181.335000,297.899000C181.335000,296.345000,180.075000,295.082000,178.523000,295.082000C176.972000,295.082000,175.712000,296.345000,175.712000,297.899000L175.712000,372.211000C175.712000,373.774000,181.335000,373.774000,181.335000,372.211000Z" fill="rgb(128,146,201)" stroke="none" stroke-width="1"/><path id="epDNdfMgomI34" d="M156.718000,297.908000L201.236000,297.908000C203.394000,297.908000,205.136000,296.154000,205.136000,294.001000C205.136000,291.838000,203.385000,290.093000,201.236000,290.093000L156.718000,290.093000C154.560000,290.093000,152.818000,291.847000,152.818000,294.001000C152.809000,296.154000,154.560000,297.908000,156.718000,297.908000Z" fill="rgb(128,146,201)" stroke="none" stroke-width="1"/><g id="epDNdfMgomI35"><g id="epDNdfMgomI36_tr" transform="translate(117.819778,293.476044) rotate(0)"><g id="epDNdfMgomI36" transform="translate(-117.819778,-293.476044)"><g id="epDNdfMgomI37_tr" transform="translate(95.136426,359.993966) rotate(0)"><g id="epDNdfMgomI37" transform="translate(-95.136426,-359.993966)"><path id="epDNdfMgomI38" d="M59.093900,345.904000L89.261900,370.539000L90.794800,368.076000L102.822000,348.812000L93.860600,342.152000L91.774400,340.598000C91.774400,340.598000,87.257400,350.457000,84.500000,350.366000C82.649600,350.302000,81.670000,348.776000,78.948900,346.586000C77.760700,345.623000,76.227800,344.551000,74.150700,343.415000L74.141600,343.406000C73.896700,343.269000,73.642700,343.142000,73.379700,342.997000C65.851300,339.117000,59.093900,345.904000,59.093900,345.904000Z" fill="rgb(37,37,47)" stroke="none" stroke-width="1"/><path id="epDNdfMgomI39" d="M59.093900,345.904000L89.261900,370.539000L90.794800,368.076000L73.352500,353.719000C73.352500,353.719000,75.910300,346.368000,74.150700,343.424000L74.141600,343.415000C73.896700,343.278000,73.642700,343.151000,73.379700,343.006000C65.851300,339.117000,59.093900,345.904000,59.093900,345.904000Z" fill="rgb(37,37,47)" stroke="none" stroke-width="1"/><path id="epDNdfMgomI40" d="M78.958000,346.595000L79.329900,348.858000C80.826500,350.730000,83.928600,354.192000,87.384400,351.702000C90.386700,349.548000,93.180300,343.578000,93.860600,342.152000L91.774400,340.598000C91.774400,340.598000,87.257400,350.457000,84.500000,350.366000C82.649600,350.302000,81.670000,348.776000,78.958000,346.595000Z" fill="rgb(37,37,47)" stroke="none" stroke-width="1"/></g></g><path id="epDNdfMgomI41" d="M158.097000,291.238000L128.283000,311.111000L96.998900,361.434000L84.509000,350.366000C84.509000,350.366000,104.310000,298.998000,118.777000,290.720000C133.235000,282.442000,158.097000,291.238000,158.097000,291.238000Z" fill="rgb(32,8,82)" stroke="none" stroke-width="1"/></g></g><path id="epDNdfMgomI42" d="M107.702000,374.492000L146.614000,373.728000L146.197000,370.857000L142.922000,348.376000L131.784000,349.103000L129.190000,349.276000C129.190000,349.276000,132.110000,359.726000,129.952000,361.443000C128.500000,362.597000,126.759000,362.061000,123.285000,362.161000C121.761000,362.197000,119.893000,362.370000,117.580000,362.851000L117.571000,362.851000C117.298000,362.906000,117.017000,362.970000,116.727000,363.033000C108.464000,364.941000,107.702000,374.492000,107.702000,374.492000Z" fill="rgb(37,37,47)" stroke="none" stroke-width="1"/><path id="epDNdfMgomI43" d="M107.702000,374.492000L146.614000,373.728000L146.197000,370.857000L123.630000,371.211000C123.630000,371.211000,120.836000,363.951000,117.589000,362.842000L117.580000,362.842000C117.308000,362.897000,117.026000,362.960000,116.736000,363.024000C108.464000,364.941000,107.702000,374.492000,107.702000,374.492000Z" fill="rgb(37,37,47)" stroke="none" stroke-width="1"/><path id="epDNdfMgomI44" d="M123.294000,362.143000L125.035000,363.624000C127.394000,364.087000,131.983000,364.714000,133.017000,360.571000C133.915000,356.981000,132.192000,350.621000,131.793000,349.094000L129.199000,349.267000C129.199000,349.267000,132.119000,359.716000,129.961000,361.434000C128.509000,362.579000,126.768000,362.052000,123.294000,362.143000Z" fill="rgb(37,37,47)" stroke="none" stroke-width="1"/><g id="epDNdfMgomI45_ts" transform="translate(146.614000,273.632782) scale(1,1)"><g id="epDNdfMgomI45" transform="translate(-146.614000,-273.632782)"><g id="epDNdfMgomI46_tr" transform="translate(154.994049,204.090652) rotate(0)"><g id="epDNdfMgomI46" transform="translate(-154.994049,-204.090652)"><g id="epDNdfMgomI47"><path id="epDNdfMgomI48" d="M85.334500,224.696000C85.334500,224.696000,84.980700,230.520000,85.951300,230.993000C86.921800,231.474000,87.892300,227.094000,87.438800,225.014000C86.985300,222.942000,85.334500,224.696000,85.334500,224.696000Z" fill="rgb(226,152,125)" stroke="none" stroke-width="1"/><path id="epDNdfMgomI49" d="M86.549900,224.941000C86.549900,224.941000,88.101000,230.556000,89.180300,230.702000C90.259700,230.838000,89.751800,226.377000,88.645200,224.568000C87.538600,222.742000,86.549900,224.941000,86.549900,224.941000Z" fill="rgb(226,152,125)" stroke="none" stroke-width="1"/><path id="epDNdfMgomI50" d="M88.735800,224.523000C88.735800,224.523000,90.286900,230.139000,91.366200,230.284000C92.445600,230.420000,91.937700,225.959000,90.831100,224.150000C89.733600,222.324000,88.735800,224.523000,88.735800,224.523000Z" fill="rgb(226,152,125)" stroke="none" stroke-width="1"/><path id="epDNdfMgomI51" d="M102.242000,220.979000L103.412000,229.402000C103.412000,229.402000,98.404900,230.693000,95.828900,231.002000C93.252900,231.302000,90.577100,231.447000,89.026100,230.620000C87.475000,229.793000,92.962600,228.139000,96.608900,228.430000L94.613400,225.604000C94.613400,225.604000,89.506800,225.277000,87.665500,225.459000C85.815200,225.641000,83.973900,230.666000,82.223300,230.720000C80.472700,230.766000,81.933000,226.967000,83.928500,224.050000C85.924000,221.133000,86.069100,221.079000,89.325400,220.688000C92.572600,220.298000,102.242000,220.979000,102.242000,220.979000Z" fill="rgb(248,179,178)" stroke="none" stroke-width="1"/></g><path id="epDNdfMgomI52" d="M161.190000,195.191000L146.269000,214.536000L106.233000,216.745000C104.001000,216.572000,102.278000,218.089000,101.879000,220.188000L99.520500,220.806000L100.627000,230.066000L103.294000,230.066000C104.019000,230.702000,104.954000,231.120000,105.997000,231.165000C118.124000,231.647000,152.673000,232.846000,158.786000,230.993000C166.224000,228.730000,167.403000,205.840000,167.403000,205.840000L161.190000,195.191000Z" fill="rgb(31,229,158)" stroke="none" stroke-width="1"/></g></g><g id="epDNdfMgomI53_tr" transform="translate(172.718500,185.536543) rotate(0)"><g id="epDNdfMgomI53" transform="translate(-172.718500,-185.536543)"><path id="epDNdfMgomI54" d="M178.641000,150.402000C178.641000,150.402000,175.430000,139.588000,166.242000,137.753000C157.063000,135.917000,150.170000,143.505000,150.859000,152.010000C151.548000,160.515000,146.387000,161.751000,146.387000,161.751000C146.387000,161.751000,145.925000,163.741000,149.135000,166.158000C149.135000,166.158000,148.328000,175.818000,157.172000,177.426000C166.006000,179.034000,183.685000,171.447000,178.641000,150.402000Z" fill="rgb(248,179,178)" stroke="none" stroke-width="1"/><path id="epDNdfMgomI55" d="M161.190000,173.628000C161.190000,173.628000,164.718000,184.441000,162.324000,189.611000L178.406000,185.013000C178.406000,185.013000,175.421000,171.101000,176.229000,163.514000L161.190000,173.628000Z" fill="rgb(248,179,178)" stroke="none" stroke-width="1"/><path id="epDNdfMgomI56" d="M159.648000,133.437000C159.648000,133.437000,150.451000,127.821000,145.852000,130.874000C141.444000,133.791000,148.120000,136.036000,148.120000,136.036000C148.120000,136.036000,140.927000,136.871000,140.246000,141.660000C139.566000,146.449000,146.369000,142.751000,146.369000,142.751000C146.369000,142.751000,143.067000,146.058000,144.818000,148.693000C146.568000,151.320000,148.510000,146.840000,148.510000,146.840000C148.510000,146.840000,148.083000,149.175000,150.822000,150.638000C150.822000,150.638000,151.131000,146.258000,152.981000,144.014000C152.981000,144.014000,159.993000,146.322000,164.129000,146.349000C164.129000,146.349000,163.775000,153.119000,167.421000,159.034000C171.068000,164.950000,176.374000,171.656000,176.374000,171.656000C176.374000,171.656000,183.793000,162.478000,186.224000,151.692000C188.655000,140.897000,183.113000,137.471000,183.113000,137.471000C183.113000,137.471000,181.861000,135.236000,176.800000,133.309000C168.265000,130.056000,159.648000,133.437000,159.648000,133.437000Z" fill="rgb(41,39,104)" stroke="none" stroke-width="1"/><path id="epDNdfMgomI57" d="M169.798000,151.692000C169.798000,151.692000,166.170000,135.790000,159.648000,133.437000C159.648000,133.437000,162.324000,130.820000,166.043000,131.883000C170.768000,133.237000,175.031000,149.293000,175.167000,151.692000L169.798000,151.692000Z" fill="rgb(86,0,227)" stroke="none" stroke-width="1"/><path id="epDNdfMgomI58" d="M164.120000,160.079000C164.120000,164.832000,167.965000,168.693000,172.718000,168.693000C177.462000,168.693000,181.317000,164.841000,181.317000,160.079000C181.317000,155.327000,177.471000,150.202000,172.718000,150.202000C167.965000,150.193000,164.120000,155.318000,164.120000,160.079000Z" fill="rgb(86,0,227)" stroke="none" stroke-width="1"/><path id="epDNdfMgomI59" d="M168.265000,159.416000C168.265000,162.224000,170.532000,164.495000,173.335000,164.495000C176.138000,164.495000,178.405000,162.224000,178.405000,159.416000C178.405000,156.608000,176.138000,153.582000,173.335000,153.582000C170.532000,153.582000,168.265000,156.608000,168.265000,159.416000Z" fill="rgb(209,209,209)" stroke="none" stroke-width="1"/></g></g><path id="epDNdfMgomI60" d="M185.408000,180.588000C185.408000,180.588000,195.567000,187.312000,198.669000,204.396000C201.081000,217.717000,206.261000,247.367000,208.419000,259.771000C209.027000,263.251000,207.222000,266.731000,203.993000,268.158000C183.004000,277.426000,159.648000,272.301000,159.648000,272.301000C159.648000,272.301000,155.049000,219.925000,154.995000,209.402000C154.941000,198.880000,156.600000,194.655000,162.913000,187.712000L185.408000,180.588000Z" fill="rgb(45,255,179)" stroke="none" stroke-width="1"/><path id="epDNdfMgomI61" d="M159.639000,187.939000C160.782000,185.613000,162.668000,183.750000,164.927000,182.496000C168.301000,180.625000,168.800000,179.861000,173,176.245000C179.186000,170.920000,181.490000,170.529000,184.075000,170.529000C186.669000,170.529000,188.483000,175.291000,187.703000,177.635000C187.703000,177.635000,193.208000,183.714000,190.034000,185.595000C179.004000,192.119000,159.204000,192.265000,159.204000,192.265000C159.204000,192.265000,158.034000,191.211000,159.639000,187.939000Z" fill="rgb(28,225,154)" stroke="none" stroke-width="1"/><g id="epDNdfMgomI62_tr" transform="translate(186.694519,196.037537) rotate(0)"><g id="epDNdfMgomI62" transform="translate(-186.694519,-196.037537)"><path id="epDNdfMgomI63" d="M185.626000,195.654000C180.183000,194.418000,174.796000,197.908000,173.662000,203.378000L168.265000,229.593000L140.138000,217.726000C137.217000,216.490000,133.979000,217.135000,131.757000,219.089000C130.360000,218.598000,128.165000,217.708000,128.165000,217.708000L124.600000,226.467000L127.475000,228.121000C126.986000,231.420000,128.591000,234.773000,131.639000,236.399000C143.067000,242.497000,167.040000,253.864000,177.081000,247.894000C186.487000,242.297000,191.267000,219.852000,193.281000,206.940000C194.088000,201.751000,190.741000,196.817000,185.626000,195.654000Z" fill="rgb(31,238,163)" stroke="none" stroke-width="1"/><path id="epDNdfMgomI64" d="M128.382000,218.298000C128.382000,218.298000,127.602000,213.482000,125.707000,211.583000C123.811000,209.684000,121.816000,208.712000,121.045000,209.393000C120.264000,210.075000,124.110000,214.118000,124.110000,214.118000L115.847000,212.719000C115.847000,212.719000,111.702000,210.184000,110.078000,210.184000C108.455000,210.184000,111.376000,213.301000,113.897000,214.536000C116.428000,215.772000,116.945000,215.899000,116.945000,215.899000L116.754000,216.481000C116.754000,216.481000,114.487000,215.963000,112.863000,215.054000C111.239000,214.146000,108.455000,212.001000,107.611000,212.910000C106.768000,213.819000,110.913000,217.617000,112.664000,218.008000C114.414000,218.398000,115.575000,219.007000,115.575000,219.007000L115.312000,219.525000L111.874000,218.944000C111.874000,218.944000,109.054000,216.608000,108.019000,216.608000C106.985000,216.608000,107.530000,218.362000,109.543000,220.179000C111.548000,221.997000,115.249000,222.260000,115.249000,222.260000L114.795000,223.560000L112.001000,222.742000C112.001000,222.742000,110.450000,220.988000,109.870000,221.497000C109.289000,221.997000,110.514000,224.205000,112.010000,225.313000C113.498000,226.413000,125.226000,226.858000,125.226000,226.858000C125.226000,226.858000,129.063000,219.798000,128.382000,218.298000Z" fill="rgb(248,179,178)" stroke="none" stroke-width="1"/></g></g></g></g><path id="epDNdfMgomI65" d="M204.900000,267.740000C204.900000,267.740000,207.222000,282.033000,197.236000,288.240000C191.548000,291.774000,166.179000,294.191000,145.389000,295.618000L146.614000,362.833000L127.158000,361.425000L117.861000,293.464000C117.317000,281.797000,122.015000,272.783000,133.634000,271.774000C154.188000,270.011000,185.335000,267.649000,204.900000,267.740000Z" fill="rgb(41,4,118)" stroke="none" stroke-width="1"/></g><g id="epDNdfMgomI66"><g id="epDNdfMgomI67_ts" transform="translate(64.542393,283.758675) scale(1,1)"><path id="epDNdfMgomI67" d="M24.819300,304.308000C26.516200,310.388000,31.707100,311.500000,32.053400,311.713000C40.596500,314.064000,88.482200,314.071000,97.153400,311.713000C103.092000,309.978000,104.183000,304.658000,104.388000,304.308000C106.649000,292.156000,106.798000,276.314000,104.284000,262.525000L104.388000,263.211000C102.691000,257.131000,97.499700,256.019000,97.153400,255.806000C88.724600,253.493000,40.714300,253.406000,32.053400,255.806000C26.114500,257.544000,25.023600,262.861000,24.819300,263.211000C22.398700,275.982000,22.277500,290.635000,24.819300,304.308000ZM56.283700,296.532000L56.283700,271.022000L77.982500,283.796000L56.283700,296.532000Z" transform="translate(-64.542393,-283.758675)" fill="rgb(229,57,53)" stroke="none" stroke-width="1"/></g></g><g id="epDNdfMgomI68_tk" transform="translate(28.446098,372.751000) skewX(7) skewY(0)"><g id="epDNdfMgomI68" transform="translate(-28.272603,-372.751000)"><path id="epDNdfMgomI69" d="M47.597200,372.646000C47.597200,372.646000,49.163500,351.411000,42.258900,350.366000C35.393400,349.321000,38.539000,357.762000,35.080200,356.495000C31.621400,355.240000,31.778000,343.806000,23.868400,344.486000C15.958800,345.165000,26.178600,354.234000,21.401500,354.234000C16.624400,354.234000,23.124400,359.683000,23.124400,363.983000C23.124400,368.282000,10.503000,359.213000,8.988940,365.028000C6.835330,373.365000,21.871400,372.790000,21.871400,372.790000L47.597200,372.646000Z" fill="rgb(86,77,159)" stroke="none" stroke-width="1"/><path id="epDNdfMgomI70" d="M14.288100,371.915000C19.469800,370.765000,30.420500,369.288000,34.819100,372.124000C34.975700,372.333000,35.132400,372.490000,35.289000,372.751000L36.228800,372.751000C35.550000,371.836000,34.871300,370.869000,34.192600,369.928000C35.811100,365.106000,35.654500,359.553000,35.393400,356.678000C35.393400,356.678000,35.393400,356.678000,35.341200,356.678000C35.289000,356.678000,35.236800,356.678000,35.184600,356.547000C35.184600,356.547000,35.184600,356.547000,35.132400,356.547000C35.132400,356.547000,35.132400,356.547000,35.080200,356.547000C35.080200,356.547000,35.080200,356.547000,35.028000,356.547000C35.028000,356.547000,35.028000,356.547000,34.975800,356.547000C34.975800,356.547000,34.975800,356.547000,34.923500,356.547000L34.871300,356.521000C34.819100,356.521000,34.819100,356.482000,34.766900,356.482000C35.028000,359.108000,35.289000,364.505000,33.827200,369.340000C32.939600,367.981000,32.104300,366.622000,31.255900,365.198000C32.978800,363.630000,32.822100,357.227000,32.456700,352.718000C32.404500,352.561000,32.352300,352.457000,32.300100,352.300000C32.300100,352.248000,32.300100,352.248000,32.247900,352.196000C32.039000,351.621000,31.778000,351.046000,31.516900,350.471000C32.091200,355.868000,32.247800,362.898000,30.890400,364.466000C26.544100,356.704000,23.346300,348.576000,22.093300,345.165000C21.832200,345.322000,21.623400,345.426000,21.466800,345.636000C22.563100,348.628000,25.082200,355.018000,28.488800,361.526000C30.316100,365.093000,32.208700,368.243000,33.983800,370.856000C28.906500,368.386000,16.128400,370.386000,12.565200,371.431000C12.969800,371.496000,13.596300,371.705000,14.288100,371.915000Z" fill="rgb(235,237,245)" stroke="none" stroke-width="1"/></g></g></g></svg>