<svg width="210" height="140" viewBox="0 0 210 140" fill="none" xmlns="http://www.w3.org/2000/svg">
<g clip-path="url(#clip0)">
<path d="M142.928 112.807L138.977 126.857L124.748 123.627L115.992 135.302L103.881 127.151L91.4943 134.875L83.1564 122.898L68.821 125.63L65.3683 111.445" stroke="#F7F4FF" stroke-width="4.8" stroke-miterlimit="10"/>
<path d="M44.8039 78.7783L47.4824 73.893L38.6373 62.2805L49.796 52.8659L45.7561 38.8418L59.5576 34.09L60.8568 19.5499L75.4414 20.1194L81.9018 7.02972L95.3029 12.8226L106.052 2.94531L116.455 13.1875L130.051 7.86618L136.049 21.1783L150.643 21.1249L151.435 35.7007L165.058 40.9241L160.529 54.8057L171.349 64.5941L162.113 75.9041L163.412 78.4935" stroke="#F7F4FF" stroke-width="4.8" stroke-miterlimit="10"/>
<path d="M174.686 117.069C128.637 108.286 81.35 108.286 35.3003 117.069C33.0757 105.394 30.8511 93.728 28.6175 82.0532C79.0809 72.425 130.906 72.425 181.36 82.0532C179.144 93.728 176.92 105.394 174.686 117.069Z" stroke="#F7F4FF" stroke-width="4.8" stroke-miterlimit="10"/>
<path d="M51.7359 112.842C51.896 119.178 51.9761 125.513 51.9672 131.84C38.4771 132.009 25.2629 133.762 12.5914 136.939C14.8427 130.915 17.3877 124.935 20.2263 119.008C15.4033 114.337 10.2333 109.852 4.71623 105.59C13.1609 103.329 21.8102 101.612 30.602 100.455" stroke="#F7F4FF" stroke-width="4.8" stroke-miterlimit="10"/>
<path d="M158.251 112.842C158.091 119.178 158.011 125.513 158.019 131.84C171.51 132.009 184.724 133.762 197.395 136.939C195.144 130.915 192.599 124.935 189.76 119.008C194.583 114.337 199.753 109.852 205.27 105.59C196.826 103.329 188.176 101.612 179.385 100.455" stroke="#F7F4FF" stroke-width="4.8" stroke-miterlimit="10"/>
<path d="M35.0333 117.842L51.2731 131.804" stroke="#F7F4FF" stroke-width="5.2" stroke-miterlimit="10"/>
<path d="M174.882 117.842L158.633 131.804" stroke="#F7F4FF" stroke-width="5.2" stroke-miterlimit="10"/>
</g>
<g clip-path="url(#clip1)">
<path d="M42.6279 103.363C40.9549 102.144 39.9494 100.445 39.638 98.2644C39.3265 96.0843 39.8159 94.1711 41.1418 92.5338C42.4588 90.9053 44.2296 89.9443 46.4275 89.6684C48.136 89.4549 49.7022 89.7129 51.1259 90.4248C52.5497 91.1456 53.6086 92.249 54.2938 93.744C52.8255 93.9041 51.3484 94.0732 49.8801 94.2512C49.1772 93.2367 48.1805 92.8096 46.908 92.9698C45.6356 93.13 44.6834 93.6461 44.0516 94.5092C43.4198 95.3813 43.1974 96.458 43.3753 97.7483C43.5444 99.0386 44.0516 100.017 44.8703 100.694C45.6889 101.37 46.7034 101.628 47.9047 101.477C48.7678 101.37 49.453 101.067 49.9513 100.578C50.4496 100.08 50.7433 99.4657 50.8501 98.7271C49.4352 98.8962 48.0203 99.0653 46.6055 99.2432C46.4898 98.3267 46.3741 97.419 46.2584 96.5025C48.9992 96.1554 51.7488 95.8262 54.4896 95.5326C54.5874 96.4491 54.6853 97.3567 54.7921 98.2733C54.6675 99.6526 54.0535 100.996 52.9679 102.295C52.4518 102.927 51.7844 103.461 50.9746 103.915C50.1649 104.369 49.275 104.654 48.314 104.769C46.1962 105.054 44.3008 104.582 42.6279 103.363Z" fill="#F7F4FF"/>
<path d="M57.0434 97.6152C56.7409 94.6698 56.4294 91.7155 56.1269 88.7701C57.3727 88.6366 58.6185 88.512 59.8731 88.3963C60.1579 91.3506 60.4426 94.296 60.7185 97.2503C60.8075 98.1402 61.0922 98.7987 61.5817 99.2347C62.0711 99.6707 62.7385 99.8487 63.5927 99.7775C64.447 99.6974 65.0788 99.4038 65.497 98.8877C65.9152 98.3716 66.0843 97.6686 66.0131 96.7787C65.7639 93.8244 65.5148 90.8701 65.2656 87.9158C66.5114 87.809 67.7661 87.7112 69.0119 87.6133C69.2344 90.5676 69.4657 93.5219 69.6882 96.4762C69.7861 97.7843 69.5636 98.9411 69.0208 99.9466C68.478 100.943 67.7483 101.708 66.8496 102.216C65.9419 102.732 64.9453 103.034 63.8419 103.141C62.1156 103.301 60.6117 102.901 59.3125 101.949C58.0045 101.006 57.2481 99.564 57.0434 97.6152Z" fill="#F7F4FF"/>
<path d="M82.7245 101.689C82.4041 100.871 82.0927 100.052 81.7723 99.2335C79.9748 99.3225 78.1773 99.4204 76.3887 99.536C76.1663 100.39 75.9349 101.236 75.7124 102.09C74.4222 102.17 73.1319 102.259 71.8416 102.357C73.212 97.2669 74.6357 92.177 76.1218 87.0959C77.6434 87.007 79.1651 86.918 80.6867 86.8379C82.7156 91.7232 84.6999 96.6173 86.6131 101.529C85.3139 101.565 84.0147 101.618 82.7245 101.689ZM77.1362 96.7152C78.3286 96.644 79.5121 96.5817 80.7045 96.5195C80.0193 94.7842 79.3252 93.049 78.6222 91.3227C78.1239 93.1113 77.6256 94.9177 77.1362 96.7152Z" fill="#F7F4FF"/>
<path d="M91.881 95.5406C91.9344 97.4715 91.9878 99.4025 92.0412 101.333C90.831 101.369 89.6119 101.405 88.4017 101.449C88.2238 96.4838 88.0458 91.5273 87.8678 86.562C89.8967 86.4908 91.9255 86.4285 93.9544 86.384C95.743 86.3395 97.14 86.7666 98.1456 87.6476C99.1511 88.5285 99.6583 89.5964 99.6672 90.8511C99.6761 91.7142 99.4181 92.5596 98.893 93.3871C98.368 94.2147 97.5049 94.802 96.3036 95.1668C97.5761 97.169 98.8308 99.1711 100.068 101.182C98.6528 101.2 97.229 101.218 95.8142 101.244C94.6574 99.3313 93.4828 97.427 92.2993 95.5317C92.1658 95.5317 92.0234 95.5406 91.881 95.5406ZM91.7031 89.1959C91.7387 90.3883 91.7654 91.5896 91.8009 92.782C92.5662 92.7642 93.3315 92.7375 94.0968 92.7286C94.6574 92.7197 95.1023 92.5418 95.4226 92.2125C95.743 91.8833 95.8943 91.4473 95.8854 90.9222C95.8765 90.3883 95.6985 89.9612 95.3603 89.6231C95.0222 89.2938 94.5684 89.1336 94.0167 89.1425C93.2514 89.1603 92.4772 89.1781 91.7031 89.1959Z" fill="#F7F4FF"/>
<path d="M112.107 101.227C111.84 100.391 111.582 99.5457 111.315 98.7092C109.518 98.6825 107.72 98.6647 105.923 98.6647C105.638 99.5012 105.362 100.329 105.086 101.165C103.796 101.165 102.506 101.165 101.216 101.174C102.906 96.182 104.659 91.1989 106.466 86.2246C107.987 86.2335 109.518 86.2424 111.039 86.2691C112.748 91.2701 114.403 96.2888 116.005 101.308C114.706 101.272 113.406 101.245 112.107 101.227ZM106.857 95.9062C108.05 95.9151 109.242 95.924 110.434 95.9418C109.865 94.1621 109.278 92.3913 108.699 90.6205C108.067 92.3735 107.462 94.1354 106.857 95.9062Z" fill="#F7F4FF"/>
<path d="M128.267 86.8204C129.522 86.8826 130.767 86.9538 132.022 87.025C131.728 91.9993 131.435 96.9646 131.141 101.939C129.931 101.868 128.721 101.805 127.502 101.743C125.633 98.513 123.72 95.2917 121.771 92.0794C121.655 95.2116 121.54 98.3439 121.424 101.476C120.214 101.432 118.995 101.387 117.785 101.352C117.927 96.3773 118.078 91.3942 118.221 86.4199C119.475 86.4555 120.73 86.5 121.976 86.5445C123.951 89.7569 125.891 92.9781 127.778 96.2083C127.947 93.0849 128.107 89.9526 128.267 86.8204Z" fill="#F7F4FF"/>
<path d="M134.078 89.9625C134.14 89.046 134.193 88.1294 134.256 87.2129C138.313 87.4709 142.362 87.7824 146.411 88.1472C146.331 89.0638 146.242 89.9803 146.162 90.8969C144.765 90.7723 143.377 90.6566 141.98 90.5409C141.65 94.5719 141.33 98.603 141.001 102.643C139.79 102.545 138.58 102.456 137.37 102.367C137.664 98.3271 137.957 94.2961 138.251 90.2562C136.863 90.1494 135.475 90.0515 134.078 89.9625Z" fill="#F7F4FF"/>
<path d="M157.952 89.2855C157.846 90.202 157.739 91.1097 157.641 92.0262C155.799 91.8126 153.957 91.6169 152.115 91.4211C152.008 92.48 151.892 93.5479 151.786 94.6068C153.396 94.7758 155.016 94.9449 156.626 95.1318C156.52 96.0483 156.422 96.956 156.315 97.8725C154.713 97.6946 153.112 97.5166 151.501 97.3564C151.385 98.5043 151.261 99.6522 151.145 100.8C152.951 100.987 154.758 101.183 156.555 101.387C156.448 102.304 156.342 103.212 156.244 104.128C153.245 103.781 150.237 103.47 147.239 103.185C147.71 98.2285 148.182 93.272 148.644 88.3066C151.75 88.6003 154.856 88.9206 157.952 89.2855Z" fill="#F7F4FF"/>
<path d="M170.446 90.8871C170.312 91.7947 170.188 92.7113 170.054 93.6189C168.221 93.3608 166.379 93.1028 164.537 92.8714C164.404 93.9303 164.261 94.9893 164.128 96.0482C165.739 96.2618 167.349 96.4753 168.96 96.7067C168.835 97.6143 168.702 98.5309 168.577 99.4385C166.975 99.2161 165.383 98.9936 163.781 98.7889C163.63 99.9279 163.487 101.076 163.336 102.215C165.133 102.446 166.94 102.695 168.737 102.953C168.604 103.861 168.479 104.778 168.346 105.685C165.356 105.258 162.357 104.867 159.358 104.502C159.963 99.5542 160.569 94.6155 161.165 89.668C164.261 90.0417 167.358 90.451 170.446 90.8871Z" fill="#F7F4FF"/>
</g>
<g clip-path="url(#clip2)">
<path d="M75.3927 37.3125C75.6686 39.8575 75.9444 42.4024 76.2203 44.9385C75.5974 45.0097 74.9745 45.072 74.3516 45.1521C74.1914 43.7105 74.0224 42.2779 73.8533 40.8452C73.4173 42.349 72.999 43.8529 72.5808 45.3567C72.1181 45.4101 71.6554 45.4724 71.1926 45.5347C70.4185 44.1821 69.6354 42.8296 68.8434 41.477C69.0303 42.9097 69.2261 44.3334 69.4218 45.7661C68.7989 45.8462 68.176 45.9351 67.562 46.0241C67.1972 43.497 66.8413 40.9609 66.4764 38.4248C67.2061 38.318 67.9358 38.2201 68.6744 38.1223C69.6621 39.7685 70.6409 41.4236 71.5931 43.0787C72.1092 41.2367 72.6431 39.3947 73.1859 37.5528C73.9245 37.4727 74.6541 37.3926 75.3927 37.3125Z" fill="#F7F4FF"/>
<path d="M78.4449 43.6564C77.6085 42.989 77.1279 42.0992 77.0034 40.9691C76.8877 39.839 77.1724 38.8601 77.8843 38.0504C78.5873 37.2406 79.5127 36.7779 80.6518 36.6711C81.7908 36.5732 82.7785 36.858 83.6061 37.5343C84.4336 38.2105 84.8874 39.1182 84.9764 40.2483C85.0565 41.3784 84.7451 42.3483 84.0421 43.1492C83.3391 43.9501 82.4403 44.395 81.3458 44.4929C80.2513 44.5997 79.2814 44.3238 78.4449 43.6564ZM82.6272 42.0547C82.9654 41.6276 83.1077 41.0759 83.0543 40.4085C83.001 39.7411 82.7696 39.225 82.3603 38.8512C81.9509 38.4864 81.4348 38.3262 80.803 38.3796C80.1712 38.433 79.6907 38.6822 79.3526 39.1182C79.0055 39.5631 78.8721 40.1059 78.9343 40.7733C78.9966 41.4407 79.2369 41.9568 79.6462 42.3216C80.0556 42.6865 80.5717 42.8378 81.1857 42.7844C81.8086 42.731 82.2891 42.4907 82.6272 42.0547Z" fill="#F7F4FF"/>
<path d="M91.0808 36.0304C91.7215 35.9948 92.3622 35.9681 93.0117 35.9414C93.1274 38.5042 93.2342 41.0669 93.3499 43.6297C92.727 43.6564 92.1041 43.6831 91.4812 43.7187C90.3511 42.1615 89.2121 40.6042 88.0464 39.0648C88.1443 40.6754 88.2511 42.286 88.3489 43.8967C87.726 43.9323 87.1031 43.9767 86.4803 44.0212C86.3023 41.4585 86.1243 38.9046 85.9463 36.3418C86.587 36.2973 87.2277 36.2529 87.8684 36.2173C89.043 37.7567 90.1998 39.3139 91.3388 40.8712C91.2498 39.2605 91.1698 37.641 91.0808 36.0304Z" fill="#F7F4FF"/>
<path d="M99.4898 35.7363C99.4987 36.2079 99.5076 36.6796 99.5165 37.1601C98.5644 37.1779 97.6212 37.2046 96.669 37.2313C96.6868 37.783 96.7046 38.3347 96.7224 38.8775C97.5589 38.8508 98.3864 38.833 99.2229 38.8152C99.2318 39.2868 99.2407 39.7584 99.2496 40.239C98.422 40.2568 97.5945 40.2746 96.7669 40.3013C96.7847 40.8975 96.8025 41.4848 96.8203 42.081C97.7546 42.0543 98.689 42.0276 99.6144 42.0098C99.6233 42.4814 99.6322 42.953 99.6411 43.4335C98.0839 43.4691 96.5355 43.5136 94.9872 43.567C94.8893 41.0042 94.7914 38.4415 94.6936 35.8787C96.2953 35.8075 97.897 35.763 99.4898 35.7363Z" fill="#F7F4FF"/>
<path d="M105.14 43.3717C104.517 43.3717 103.895 43.3717 103.263 43.3806C103.254 42.553 103.254 41.7344 103.245 40.9068C102.337 39.1805 101.412 37.4542 100.469 35.7368C101.198 35.7279 101.928 35.719 102.658 35.7101C103.174 36.858 103.69 38.0148 104.188 39.1627C104.687 38.0059 105.185 36.8491 105.692 35.7012C106.422 35.7012 107.151 35.7101 107.881 35.719C106.947 37.4453 106.039 39.1716 105.14 40.9068C105.14 41.7255 105.14 42.553 105.14 43.3717Z" fill="#F7F4FF"/>
<path d="M112.286 35.7988C113.434 35.8255 114.582 35.87 115.721 35.9145C116.522 35.9501 117.153 36.1637 117.616 36.5641C118.07 36.9645 118.292 37.4539 118.257 38.0412C118.212 38.9044 117.669 39.465 116.628 39.732C117.153 39.8298 117.563 40.0612 117.856 40.4349C118.15 40.8087 118.283 41.2358 118.257 41.7163C118.23 42.3303 117.972 42.8019 117.509 43.1401C117.047 43.4782 116.406 43.6295 115.605 43.6028C114.43 43.5583 113.256 43.5138 112.072 43.4871C112.143 40.9155 112.215 38.3527 112.286 35.7988ZM114.163 37.276C114.146 37.8277 114.128 38.3794 114.11 38.94C114.528 38.9578 114.938 38.9667 115.356 38.9845C115.632 38.9934 115.854 38.9311 116.032 38.8065C116.201 38.673 116.299 38.4773 116.308 38.2014C116.317 37.9256 116.246 37.7209 116.085 37.5696C115.916 37.4095 115.694 37.3294 115.418 37.3205C115 37.3027 114.582 37.2938 114.163 37.276ZM114.003 42.1079C114.475 42.1257 114.946 42.1435 115.427 42.1613C115.685 42.1701 115.899 42.1079 116.077 41.9566C116.255 41.8142 116.344 41.6006 116.352 41.3337C116.361 41.0667 116.29 40.8443 116.139 40.6752C115.988 40.5061 115.774 40.4171 115.516 40.4082C115.035 40.3905 114.546 40.3727 114.066 40.3549C114.039 40.9422 114.021 41.5206 114.003 42.1079Z" fill="#F7F4FF"/>
<path d="M124.343 44.0842C124.237 43.6481 124.121 43.2032 124.005 42.7672C123.08 42.7049 122.154 42.6426 121.238 42.5803C121.069 42.9985 120.9 43.4257 120.731 43.8439C120.063 43.8083 119.405 43.7638 118.737 43.7371C119.761 41.2188 120.811 38.7095 121.887 36.209C122.67 36.2535 123.445 36.3069 124.228 36.3603C124.957 38.9853 125.669 41.6104 126.345 44.2354C125.678 44.182 125.011 44.1286 124.343 44.0842ZM121.798 41.1921C122.412 41.2277 123.017 41.2722 123.631 41.3167C123.391 40.3824 123.142 39.4569 122.893 38.5315C122.528 39.4124 122.163 40.3023 121.798 41.1921Z" fill="#F7F4FF"/>
<path d="M128.045 43.3268C127.342 42.5259 127.04 41.556 127.129 40.4259C127.218 39.2958 127.689 38.3881 128.534 37.7207C129.38 37.0533 130.376 36.7686 131.507 36.8754C132.388 36.9644 133.144 37.2669 133.776 37.783C134.408 38.308 134.808 38.9754 134.986 39.803C134.23 39.7229 133.473 39.6339 132.717 39.5627C132.477 38.9754 132.032 38.6462 131.373 38.5839C130.715 38.5216 130.181 38.6729 129.771 39.0377C129.362 39.4026 129.122 39.9187 129.068 40.5861C129.006 41.2534 129.148 41.8051 129.478 42.2412C129.816 42.6772 130.296 42.9175 130.946 42.9797C131.587 43.0509 132.085 42.8196 132.432 42.2857C133.18 42.3658 133.927 42.4458 134.683 42.5259C134.327 43.2912 133.794 43.8607 133.091 44.2433C132.379 44.626 131.596 44.7683 130.75 44.6883C129.647 44.5815 128.748 44.1277 128.045 43.3268Z" fill="#F7F4FF"/>
<path d="M137.469 45.3641C136.846 45.284 136.223 45.2128 135.6 45.1416C135.894 42.5967 136.187 40.0606 136.481 37.5156C137.122 37.5868 137.762 37.6669 138.403 37.747C138.269 38.8593 138.127 39.9716 137.994 41.0839C138.99 40.0784 139.987 39.0729 141.001 38.0762C141.838 38.183 142.674 38.2987 143.511 38.4233C142.256 39.5356 141.01 40.6568 139.782 41.7869C140.681 43.1929 141.562 44.6077 142.434 46.0226C141.633 45.9069 140.841 45.8001 140.04 45.6933C139.328 44.4564 138.617 43.2285 137.887 42.0005C137.744 43.1217 137.611 44.2429 137.469 45.3641Z" fill="#F7F4FF"/>
</g>
<g clip-path="url(#clip3)">
<path d="M69.2349 56.5961C68.354 56.7118 67.9269 57.2279 67.9536 58.1355C66.9035 58.2779 65.8535 58.4203 64.8035 58.5627C64.6255 57.2902 64.9103 56.2402 65.6755 55.4215C66.4408 54.6028 67.5531 54.0956 68.9947 53.9177C70.4362 53.7397 71.593 53.9444 72.4651 54.5228C73.3371 55.1012 73.8266 55.9198 73.9333 56.952C74.0223 57.7707 73.8888 58.4559 73.5329 59.0165C73.177 59.5771 72.8032 59.9597 72.3939 60.1822C72.3939 60.2089 72.4028 60.2267 72.4028 60.2534C73.8711 60.6182 74.6897 61.5971 74.8588 63.1899C74.9834 64.3912 74.6808 65.37 73.9511 66.1531C73.2215 66.9362 72.1536 67.4078 70.7388 67.5858C69.3239 67.7637 68.1226 67.5591 67.126 66.9629C66.1294 66.3667 65.5243 65.3611 65.3285 63.9374C66.3607 63.795 67.3929 63.6526 68.4252 63.5102C68.5053 64.0441 68.7188 64.4446 69.057 64.7204C69.3951 64.9963 69.8222 65.0942 70.3472 65.0319C70.8723 64.9696 71.2549 64.7738 71.4863 64.4624C71.7176 64.1509 71.8066 63.7327 71.7443 63.2166C71.682 62.7005 71.4507 62.3356 71.0413 62.1221C70.632 61.9085 70.0091 61.8551 69.1548 61.9619C68.9591 61.9886 68.7544 62.0153 68.5586 62.042C68.4519 61.1966 68.3362 60.3513 68.2294 59.5059C68.4341 59.4792 68.6298 59.4525 68.8345 59.4258C70.2672 59.239 70.9345 58.6695 70.8189 57.6906C70.7744 57.2991 70.6053 57.0054 70.3206 56.8008C70.0269 56.6228 69.6621 56.5427 69.2349 56.5961Z" fill="#F7F4FF"/>
<path d="M78.694 53.7212C79.3792 53.3297 80.2068 53.0894 81.1856 53.0094C82.1644 52.9293 83.0276 53.0271 83.7662 53.3119C84.5047 53.5878 85.1009 54.0238 85.5548 54.6111C86.0086 55.1984 86.3556 55.8747 86.5959 56.6399C86.8361 57.4052 86.9874 58.2773 87.0497 59.265C87.112 60.2438 87.0764 61.1337 86.934 61.9256C86.8005 62.7176 86.5514 63.4295 86.1954 64.0702C85.8395 64.7109 85.3323 65.2181 84.6738 65.6007C84.0153 65.9834 83.2145 66.2058 82.2801 66.2859C81.3458 66.366 80.5271 66.2681 79.8152 66.0012C79.1033 65.7342 78.516 65.316 78.0622 64.7376C77.6084 64.1681 77.2436 63.5007 76.9855 62.7443C76.7185 61.9879 76.5406 61.1159 76.4427 60.1459C76.3448 59.1671 76.3537 58.2862 76.4605 57.4853C76.5762 56.6933 76.8075 55.9637 77.1546 55.3141C77.4927 54.6467 78.0177 54.1217 78.694 53.7212ZM82.4136 56.0793C82.1288 55.9637 81.7996 55.9192 81.4348 55.9459C81.061 55.9725 80.7496 56.0704 80.4826 56.2395C80.2246 56.4086 80.0288 56.5954 79.8953 56.8179C79.7707 57.0404 79.6728 57.3251 79.6195 57.6722C79.5572 58.0192 79.5305 58.3573 79.5394 58.6777C79.5394 58.998 79.5661 59.3807 79.6017 59.8167C79.6373 60.2527 79.6906 60.6354 79.744 60.9557C79.7974 61.2672 79.8864 61.5964 80.0021 61.9345C80.1178 62.2727 80.2602 62.5307 80.4203 62.7265C80.5805 62.9223 80.803 63.0824 81.0788 63.1981C81.3547 63.3138 81.675 63.3583 82.0398 63.3316C82.4047 63.3049 82.7072 63.207 82.9653 63.0469C83.2233 62.8867 83.4102 62.6909 83.5437 62.4773C83.6683 62.2549 83.7662 61.9701 83.8284 61.6231C83.8907 61.2761 83.9174 60.9379 83.9263 60.6176C83.9263 60.2972 83.9085 59.9146 83.8818 59.4786C83.8462 59.0336 83.8106 58.6599 83.7573 58.3395C83.7039 58.0192 83.6238 57.6989 83.5081 57.3607C83.3924 57.0226 83.2589 56.7556 83.0899 56.5598C82.9208 56.3552 82.6983 56.195 82.4136 56.0793Z" fill="#F7F4FF"/>
<path d="M99.5432 52.5023C101.714 52.4578 103.503 53.054 104.882 54.2464C106.27 55.4477 106.938 57.005 106.929 58.9181C106.911 60.8313 106.226 62.3796 104.891 63.5809C103.548 64.7822 101.857 65.3962 99.7923 65.4318C98.2707 65.4585 96.7491 65.503 95.2274 65.5564C95.0761 61.2495 94.9249 56.9338 94.7736 52.6269C96.3575 52.5735 97.9504 52.5379 99.5432 52.5023ZM98.3241 63.0737C98.7957 63.0648 99.2673 63.0559 99.7389 63.047C100.958 63.0203 101.91 62.6466 102.604 61.8991C103.298 61.1517 103.645 60.1639 103.636 58.927C103.628 57.6901 103.272 56.7024 102.551 55.9638C101.83 55.2342 100.842 54.8782 99.5877 54.896C99.0983 54.9049 98.6177 54.9138 98.1283 54.9316C98.1995 57.6456 98.2618 60.3597 98.3241 63.0737Z" fill="#F7F4FF"/>
<path d="M117.127 65.6548C116.922 64.9162 116.708 64.1865 116.495 63.448C114.929 63.3857 113.363 63.3323 111.805 63.2967C111.547 64.0175 111.289 64.7382 111.031 65.4501C109.91 65.4234 108.789 65.4056 107.668 65.3967C109.216 61.0899 110.827 56.7919 112.508 52.5117C113.852 52.5473 115.187 52.5918 116.53 52.6452C117.928 57.0322 119.253 61.4191 120.508 65.8239C119.378 65.7616 118.248 65.6993 117.127 65.6548ZM112.668 60.9208C113.71 60.9475 114.751 60.9831 115.783 61.0187C115.32 59.4614 114.849 57.9131 114.377 56.3559C113.799 57.8864 113.229 59.3992 112.668 60.9208Z" fill="#F7F4FF"/>
<path d="M128.579 66.3931C127.529 66.3041 126.479 66.224 125.429 66.144C125.527 64.7558 125.634 63.3765 125.731 61.9884C124.432 58.9629 123.08 55.9374 121.683 52.9297C122.928 53.0009 124.183 53.081 125.429 53.1699C126.168 55.1721 126.879 57.1832 127.573 59.1853C128.57 57.3077 129.585 55.4391 130.617 53.5793C131.863 53.6861 133.108 53.8106 134.354 53.9352C132.494 56.6849 130.688 59.4523 128.926 62.2375C128.819 63.6257 128.695 65.0049 128.579 66.3931Z" fill="#F7F4FF"/>
<path d="M140.396 56.9334C139.987 56.8889 139.64 56.9512 139.355 57.1202C139.07 57.2982 138.901 57.583 138.857 57.9745C138.812 58.366 138.892 58.6953 139.106 58.9622C139.319 59.2292 139.613 59.4427 139.978 59.6207C140.343 59.7987 140.761 59.9678 141.215 60.1457C141.669 60.3237 142.122 60.5195 142.567 60.7508C143.012 60.9733 143.404 61.2402 143.751 61.5339C144.098 61.8275 144.365 62.2191 144.534 62.6907C144.712 63.1712 144.748 63.714 144.659 64.3369C144.507 65.4225 143.92 66.2857 142.923 66.9353C141.927 67.5849 140.708 67.8162 139.257 67.6383C137.807 67.4603 136.677 66.9798 135.867 66.1789C135.048 65.3869 134.71 64.3458 134.843 63.0644C135.974 63.189 137.104 63.3136 138.243 63.4471C138.207 64.4793 138.679 65.0577 139.658 65.1823C140.111 65.2357 140.485 65.1645 140.779 64.9598C141.072 64.7552 141.242 64.4704 141.286 64.1056C141.33 63.7407 141.25 63.4293 141.046 63.1623C140.841 62.9043 140.556 62.6818 140.191 62.4949C139.827 62.317 139.417 62.139 138.963 61.961C138.51 61.792 138.056 61.5873 137.62 61.3648C137.175 61.1424 136.774 60.8843 136.419 60.6085C136.063 60.3237 135.787 59.95 135.6 59.4783C135.413 59.0067 135.342 58.4639 135.413 57.8588C135.538 56.6575 136.107 55.7499 137.122 55.1359C138.136 54.5219 139.373 54.2994 140.832 54.4774C142.292 54.6554 143.422 55.127 144.231 55.8745C145.041 56.6219 145.362 57.6808 145.21 59.0334C144.036 58.8643 142.861 58.7042 141.686 58.5529C141.695 58.0813 141.589 57.7075 141.357 57.4228C141.126 57.1558 140.805 56.9868 140.396 56.9334Z" fill="#F7F4FF"/>
</g>
<g clip-path="url(#clip4)">
<path d="M107.893 22.4474L110.116 22.7665C110.745 22.8586 110.995 23.638 110.543 24.0798L108.931 25.6631C108.748 25.8411 108.669 26.0988 108.711 26.3443L109.096 28.5659C109.206 29.198 108.547 29.6767 107.985 29.3821L105.994 28.3327C105.768 28.2161 105.505 28.2161 105.28 28.3327L103.295 29.3821C102.733 29.6828 102.074 29.198 102.177 28.572L102.556 26.3505C102.599 26.0989 102.513 25.8472 102.336 25.6693L100.73 24.0982C100.272 23.6502 100.523 22.877 101.152 22.7788L103.374 22.4535C103.619 22.4167 103.838 22.2572 103.948 22.0301L104.938 20.0049C105.218 19.428 106.031 19.428 106.318 20.0049L107.313 22.024C107.423 22.251 107.643 22.4106 107.893 22.4474Z" fill="#F7F4FF"/>
<path d="M92.9811 26.9159L94.3184 27.1123C94.697 27.1675 94.8497 27.6339 94.5749 27.9039L93.6101 28.849C93.5001 28.9533 93.4513 29.1067 93.4757 29.2602L93.7078 30.598C93.7749 30.9785 93.378 31.2669 93.0361 31.089L91.8392 30.4569C91.7048 30.3832 91.5461 30.3832 91.4117 30.4569L90.221 31.089C89.8851 31.2669 89.4882 30.9785 89.5493 30.598L89.7752 29.2602C89.7996 29.1067 89.7508 28.9533 89.6409 28.849L88.676 27.9039C88.4012 27.6339 88.5539 27.1675 88.9325 27.1123L90.2698 26.9159C90.4225 26.8913 90.5507 26.7993 90.6179 26.6643L91.2163 25.4492C91.3873 25.1055 91.8758 25.1055 92.0468 25.4492L92.6452 26.6643C92.7002 26.7993 92.8284 26.8975 92.9811 26.9159Z" fill="#F7F4FF"/>
<path d="M118.842 26.9159L120.179 27.1123C120.558 27.1675 120.711 27.6339 120.436 27.9039L119.471 28.849C119.361 28.9533 119.312 29.1067 119.337 29.2602L119.569 30.598C119.636 30.9785 119.239 31.2669 118.897 31.089L117.7 30.4569C117.566 30.3832 117.407 30.3832 117.273 30.4569L116.082 31.089C115.746 31.2669 115.349 30.9785 115.41 30.598L115.636 29.2602C115.661 29.1067 115.612 28.9533 115.502 28.849L114.537 27.9039C114.262 27.6339 114.415 27.1675 114.793 27.1123L116.131 26.9159C116.283 26.8913 116.412 26.7993 116.479 26.6643L117.077 25.4492C117.248 25.1055 117.737 25.1055 117.908 25.4492L118.506 26.6643C118.561 26.7993 118.689 26.8975 118.842 26.9159Z" fill="#F7F4FF"/>
</g>
<defs>
<clipPath id="clip0">
<rect width="209.996" height="140" fill="white"/>
</clipPath>
<clipPath id="clip1">
<rect width="130.897" height="19.4521" fill="white" transform="translate(39.549 86.2246)"/>
</clipPath>
<clipPath id="clip2">
<rect width="77.0432" height="10.3223" fill="white" transform="translate(66.4764 35.7012)"/>
</clipPath>
<clipPath id="clip3">
<rect width="80.4958" height="15.1986" fill="white" transform="translate(64.7501 52.502)"/>
</clipPath>
<clipPath id="clip4">
<rect width="32.0346" height="11.568" fill="white" transform="translate(88.5356 19.5762)"/>
</clipPath>
</defs>
</svg>
