<svg id="eN4ykOGteh21" xmlns="http://www.w3.org/2000/svg" xmlns:xlink="http://www.w3.org/1999/xlink" viewBox="0 0 231.160000 160.740000" shape-rendering="geometricPrecision" text-rendering="geometricPrecision"><style><![CDATA[#eN4ykOGteh24 {
           animation-name: eN4ykOGteh24_s_do, eN4ykOGteh24_s_da;
           animation-duration: 9500ms;
           animation-fill-mode: forwards;
           animation-timing-function: linear;
           animation-direction: normal;
           animation-iteration-count: infinite;  
        }@keyframes eN4ykOGteh24_s_do { 0% {stroke-dashoffset: 0} 20% {stroke-dashoffset: 0;animation-timing-function: step-end} 21.052632% {stroke-dashoffset: 116.760000} 31.578947% {stroke-dashoffset: 0} 100% {stroke-dashoffset: 0}}@keyframes eN4ykOGteh24_s_da { 0% {stroke-dasharray: 0} 20% {stroke-dasharray: 0;animation-timing-function: step-end} 21.052632% {stroke-dasharray: 116.760000} 31.578947% {stroke-dasharray: 116.760000} 100% {stroke-dasharray: 116.760000}} #eN4ykOGteh25 {
           animation-name: eN4ykOGteh25_s_do, eN4ykOGteh25_s_da;
           animation-duration: 9500ms;
           animation-fill-mode: forwards;
           animation-timing-function: linear;
           animation-direction: normal;
           animation-iteration-count: infinite;  
        }@keyframes eN4ykOGteh25_s_do { 0% {stroke-dashoffset: 0} 1.052632% {stroke-dashoffset: 271.120000} 21.052632% {stroke-dashoffset: 0} 100% {stroke-dashoffset: 0}}@keyframes eN4ykOGteh25_s_da { 0% {stroke-dasharray: 0} 1.052632% {stroke-dasharray: 271.120000} 21.052632% {stroke-dasharray: 271.120000} 100% {stroke-dasharray: 271.120000}} #eN4ykOGteh26_ts {animation: eN4ykOGteh26_ts__ts 9500ms linear infinite normal forwards}@keyframes eN4ykOGteh26_ts__ts { 0% {transform: translate(105.585001px,106.267483px) scale(1,1)} 69.473684% {transform: translate(105.585001px,106.267483px) scale(1,1)} 70.526316% {transform: translate(105.585001px,106.267483px) scale(0.844675,0.844675)} 72.631579% {transform: translate(105.585001px,106.267483px) scale(1.118846,1.118846)} 76.842105% {transform: translate(105.585001px,106.267483px) scale(1.000024,1.000024)} 82.105263% {transform: translate(105.585001px,106.267483px) scale(1,1)} 83.157895% {transform: translate(105.585001px,106.267483px) scale(0.844675,0.844675)} 85.263158% {transform: translate(105.585001px,106.267483px) scale(1.118846,1.118846)} 89.473684% {transform: translate(105.585001px,106.267483px) scale(1.000024,1.000024)} 100% {transform: translate(105.585001px,106.267483px) scale(1.000024,1.000024)}} #eN4ykOGteh212_ts {animation: eN4ykOGteh212_ts__ts 9500ms linear infinite normal forwards}@keyframes eN4ykOGteh212_ts__ts { 0% {transform: translate(105.577522px,96.320011px) scale(1,1)} 69.473684% {transform: translate(105.577522px,96.320011px) scale(1,1)} 70.526316% {transform: translate(105.577522px,96.320011px) scale(0.689098,0.689098)} 72.631579% {transform: translate(105.577522px,96.320011px) scale(1.187097,1.187097)} 76.842105% {transform: translate(105.577522px,96.320011px) scale(0.999968,0.999968)} 82.105263% {transform: translate(105.577522px,96.320011px) scale(1,1)} 83.157895% {transform: translate(105.577522px,96.320011px) scale(0.689098,0.689098)} 85.263158% {transform: translate(105.577522px,96.320011px) scale(1.187097,1.187097)} 89.473684% {transform: translate(105.577522px,96.320011px) scale(0.999968,0.999968)} 100% {transform: translate(105.577522px,96.320011px) scale(0.999968,0.999968)}} #eN4ykOGteh212 {animation: eN4ykOGteh212_c_o 9500ms linear infinite normal forwards}@keyframes eN4ykOGteh212_c_o { 0% {opacity: 0} 67.368421% {opacity: 0} 69.473684% {opacity: 1} 100% {opacity: 1}} #eN4ykOGteh222_ts {animation: eN4ykOGteh222_ts__ts 9500ms linear infinite normal forwards}@keyframes eN4ykOGteh222_ts__ts { 0% {transform: translate(105.579994px,41.239998px) scale(1,1)} 50.526316% {transform: translate(105.579994px,41.239998px) scale(1,1)} 52.631579% {transform: translate(105.579994px,41.239998px) scale(1.165719,1.165719)} 60% {transform: translate(105.579994px,41.239998px) scale(1.001066,1.001066)} 100% {transform: translate(105.579994px,41.239998px) scale(1.001066,1.001066)}} #eN4ykOGteh222 {animation: eN4ykOGteh222_c_o 9500ms linear infinite normal forwards}@keyframes eN4ykOGteh222_c_o { 0% {opacity: 0} 50.526316% {opacity: 0} 52.631579% {opacity: 1} 100% {opacity: 1}} #eN4ykOGteh232_ts {animation: eN4ykOGteh232_ts__ts 9500ms linear infinite normal forwards}@keyframes eN4ykOGteh232_ts__ts { 0% {transform: translate(105.641022px,60.484785px) scale(1,1)} 60% {transform: translate(105.641022px,60.484785px) scale(1,1)} 62.105263% {transform: translate(105.641022px,60.484785px) scale(1.130422,1.130422)} 67.368421% {transform: translate(105.641022px,60.484785px) scale(1,1)} 100% {transform: translate(105.641022px,60.484785px) scale(1,1)}} #eN4ykOGteh232 {animation: eN4ykOGteh232_c_o 9500ms linear infinite normal forwards}@keyframes eN4ykOGteh232_c_o { 0% {opacity: 0} 60% {opacity: 0} 62.105263% {opacity: 1} 100% {opacity: 1}} #eN4ykOGteh240_ts {animation: eN4ykOGteh240_ts__ts 9500ms linear infinite normal forwards}@keyframes eN4ykOGteh240_ts__ts { 0% {transform: translate(105.217740px,24.892155px) scale(1,1)} 37.894737% {transform: translate(105.217740px,24.892155px) scale(1,1)} 40% {transform: translate(105.217740px,24.892155px) scale(1.473173,1.473173)} 44.210526% {transform: translate(105.217740px,24.892155px) scale(0.999578,0.999578)} 100% {transform: translate(105.217740px,24.892155px) scale(0.999578,0.999578)}} #eN4ykOGteh240 {animation: eN4ykOGteh240_c_o 9500ms linear infinite normal forwards}@keyframes eN4ykOGteh240_c_o { 0% {opacity: 0} 37.894737% {opacity: 0} 40% {opacity: 1} 100% {opacity: 1}} #eN4ykOGteh241_ts {animation: eN4ykOGteh241_ts__ts 9500ms linear infinite normal forwards}@keyframes eN4ykOGteh241_ts__ts { 0% {transform: translate(92.194996px,28.567754px) scale(1,1)} 31.578947% {transform: translate(92.194996px,28.567754px) scale(1,1)} 33.684211% {transform: translate(92.194996px,28.567754px) scale(1.460471,1.460471)} 37.894737% {transform: translate(92.194996px,28.567754px) scale(1.000891,1.000891)} 100% {transform: translate(92.194996px,28.567754px) scale(1.000891,1.000891)}} #eN4ykOGteh241 {animation: eN4ykOGteh241_c_o 9500ms linear infinite normal forwards}@keyframes eN4ykOGteh241_c_o { 0% {opacity: 0} 31.578947% {opacity: 0} 33.684211% {opacity: 1} 100% {opacity: 1}} #eN4ykOGteh242_ts {animation: eN4ykOGteh242_ts__ts 9500ms linear infinite normal forwards}@keyframes eN4ykOGteh242_ts__ts { 0% {transform: translate(118.038750px,28.567754px) scale(1,1)} 44.210526% {transform: translate(118.038750px,28.567754px) scale(1,1)} 46.315789% {transform: translate(118.038750px,28.567754px) scale(1.425312,1.425312)} 50.526316% {transform: translate(118.038750px,28.567754px) scale(0.999945,0.999945)} 100% {transform: translate(118.038750px,28.567754px) scale(0.999945,0.999945)}} #eN4ykOGteh242 {animation: eN4ykOGteh242_c_o 9500ms linear infinite normal forwards}@keyframes eN4ykOGteh242_c_o { 0% {opacity: 0} 44.210526% {opacity: 0} 46.315789% {opacity: 1} 100% {opacity: 1}}]]></style><g id="eN4ykOGteh22" transform="matrix(1 0 0 1 9.99499854000000 10.02999889000000)"><g id="eN4ykOGteh23"><path id="eN4ykOGteh24" d="M142.930000,112.810000L138.930000,126.810000L124.700000,123.580000L116,135.300000L103.890000,127.150000L91.500000,134.880000L83.170000,122.880000L68.830000,125.610000L65.380000,111.420000" transform="matrix(1 0 0 1 0.59000000000000 0.37000000000000)" fill="none" stroke="rgb(247,244,255)" stroke-width="4.800000" stroke-miterlimit="10"/><path id="eN4ykOGteh25" d="M44.800000,78.780000L47.480000,73.890000L38.640000,62.280000L49.800000,52.870000L45.800000,38.870000L59.600000,34.120000L60.900000,19.580000L75.480000,20.150000L81.900000,7L95.300000,12.790000L106.050000,3L116.460000,13.240000L130.050000,7.920000L136.050000,21.230000L150.640000,21.170000L151.430000,35.750000L165.060000,40.970000L160.530000,54.860000L171.350000,64.640000L162.110000,75.900000L163.410000,78.490000" transform="matrix(1 0 0 1 0.59000000000000 0.37000000000000)" fill="none" stroke="rgb(247,244,255)" stroke-width="4.800000" stroke-miterlimit="10"/><g id="eN4ykOGteh26_ts" transform="translate(105.585001,106.267483) scale(1,1)"><g id="eN4ykOGteh26" transform="translate(-105.585001,-106.267483)"><path id="eN4ykOGteh27" d="M174.690000,117.070000C128.641436,108.290119,81.348564,108.290119,35.300000,117.070000Q31.970000,99.550000,28.620000,82.070000C79.078908,72.449961,130.901092,72.449961,181.360000,82.070000Q178,99.570000,174.690000,117.070000Z" transform="matrix(1 0 0 1 0.59000000000000 0.37000000000000)" fill="none" stroke="rgb(247,244,255)" stroke-width="4.800000" stroke-miterlimit="10"/><path id="eN4ykOGteh28" d="M51.740000,112.840000Q51.980000,122.350000,51.970000,131.840000C38.689590,132.001679,25.473463,133.713264,12.590000,136.940000Q15.970000,127.940000,20.230000,119.010000C15.310962,114.254586,10.133080,109.774432,4.720000,105.590000C13.224864,103.314442,21.870190,101.600743,30.600000,100.460000" transform="matrix(1 0 0 1 0.59000000000000 0.37000000000000)" fill="none" stroke="rgb(247,244,255)" stroke-width="4.800000" stroke-miterlimit="10"/><path id="eN4ykOGteh29" d="M158.250000,112.840000Q158.010000,122.350000,158.020000,131.840000C171.300365,132.002316,184.516419,133.713892,197.400000,136.940000Q194.010000,127.940000,189.760000,119.010000C194.674621,114.249759,199.852779,109.769367,205.270000,105.590000C196.761974,103.313505,188.113259,101.599797,179.380000,100.460000" transform="matrix(1 0 0 1 0.59000000000000 0.37000000000000)" fill="none" stroke="rgb(247,244,255)" stroke-width="4.800000" stroke-miterlimit="10"/><path id="eN4ykOGteh210" d="M35,117.840000L51.240000,131.840000" transform="matrix(1 0 0 1 0.59000000000000 0.37000000000000)" fill="none" stroke="rgb(247,244,255)" stroke-width="5.200000" stroke-miterlimit="10"/><path id="eN4ykOGteh211" d="M174.880000,117.840000L158.630000,131.840000" transform="matrix(1 0 0 1 0.59000000000000 0.37000000000000)" fill="none" stroke="rgb(247,244,255)" stroke-width="5.200000" stroke-miterlimit="10"/></g></g></g><g id="eN4ykOGteh212_ts" transform="translate(105.577522,96.320011) scale(1,1)"><g id="eN4ykOGteh212" transform="translate(-105.577522,-96.320011)" opacity="0"><path id="eN4ykOGteh213" d="M42.630000,103.360000C40.954985,102.159636,39.865337,100.307233,39.630000,98.260000C39.276821,96.222911,39.823984,94.132745,41.130000,92.530000C42.440181,90.907919,44.345276,89.877943,46.420000,89.670000C48.026475,89.437387,49.665703,89.698966,51.120000,90.420000C52.525799,91.127631,53.642611,92.300990,54.280000,93.740000C52.820000,93.900000,51.340000,94.070000,49.870000,94.250000C49.221860,93.254727,48.037003,92.749188,46.870000,92.970000C45.741764,93.055722,44.702613,93.615265,44.010000,94.510000C42.808443,96.509106,43.148690,99.073410,44.830000,100.690000C45.672079,101.368123,46.763150,101.655439,47.830000,101.480000C48.594572,101.416981,49.316139,101.100196,49.880000,100.580000C50.376700,100.080092,50.693274,99.429355,50.780000,98.730000L46.540000,99.240000C46.420000,98.330000,46.300000,97.420000,46.190000,96.500000C48.930000,96.160000,51.680000,95.830000,54.420000,95.500000L54.720000,98.240000C54.540497,99.729158,53.904778,101.126342,52.900000,102.240000C52.341247,102.903740,51.662824,103.456654,50.900000,103.870000C50.076995,104.323501,49.173479,104.612218,48.240000,104.720000C46.263913,105.022116,44.248363,104.533497,42.630000,103.360000Z" transform="matrix(1 0 0 1 0.59000000000000 0.37000000000000)" fill="rgb(247,244,255)" stroke="none" stroke-width="1"/><path id="eN4ykOGteh214" d="M57,97.620000C56.700000,94.620000,56.390000,91.720000,56.090000,88.770000C57.330000,88.640000,58.580000,88.510000,59.830000,88.400000Q60.260000,92.820000,60.680000,97.250000C60.696056,98.003054,61.004479,98.720316,61.540000,99.250000C62.099207,99.707303,62.825593,99.907059,63.540000,99.800000C64.271758,99.777734,64.962274,99.455976,65.450000,98.910000C65.907957,98.300748,66.105736,97.534806,66,96.780000Q65.630000,92.340000,65.260000,87.920000L69,87.610000C69.220000,90.610000,69.460000,93.520000,69.680000,96.480000C69.804315,97.694669,69.567790,98.919033,69,100C68.505260,100.946201,67.752967,101.733161,66.830000,102.270000C65.905233,102.782834,64.883281,103.096233,63.830000,103.190000C62.227260,103.376363,60.613191,102.951421,59.310000,102C57.923026,100.959521,57.075344,99.352229,57,97.620000Z" transform="matrix(1 0 0 1 0.59000000000000 0.37000000000000)" fill="rgb(247,244,255)" stroke="none" stroke-width="1"/><path id="eN4ykOGteh215" d="M82.720000,101.690000L81.720000,99.230000C79.920000,99.320000,78.130000,99.420000,76.340000,99.540000C76.120000,100.390000,75.880000,101.240000,75.660000,102.090000Q73.730000,102.210000,71.790000,102.360000Q73.840000,94.720000,76.070000,87.100000L80.640000,86.840000Q83.640000,94.160000,86.560000,101.530000C85.310000,101.570000,84,101.620000,82.720000,101.690000ZM77.140000,96.690000C78.330000,96.610000,79.510000,96.550000,80.700000,96.490000Q79.700000,93.880000,78.620000,91.290000C78.120000,93.110000,77.630000,94.920000,77.140000,96.720000Z" transform="matrix(1 0 0 1 0.59000000000000 0.37000000000000)" fill="rgb(247,244,255)" stroke="none" stroke-width="1"/><path id="eN4ykOGteh216" d="M91.880000,95.540000C91.930000,97.470000,91.990000,99.400000,92.040000,101.330000C90.830000,101.330000,89.610000,101.400000,88.400000,101.450000C88.220000,96.450000,88.050000,91.530000,87.870000,86.560000L94,86.380000C95.510132,86.257879,97.010556,86.711578,98.200000,87.650000C99.157101,88.437729,99.714136,89.610433,99.720000,90.850000C99.716703,91.755141,99.445278,92.639010,98.940000,93.390000C98.320576,94.277268,97.400325,94.909718,96.350000,95.170000C97.630000,97.170000,98.880000,99.170000,100.120000,101.170000L95.860000,101.230000C94.710000,99.320000,93.530000,97.420000,92.350000,95.520000ZM91.700000,89.200000C91.700000,90.390000,91.770000,91.590000,91.800000,92.780000L94.100000,92.780000C94.592429,92.793516,95.069095,92.605739,95.420000,92.260000C95.743849,91.910751,95.913278,91.445722,95.890000,90.970000C95.921512,90.464944,95.730312,89.971412,95.366765,89.619406C95.003218,89.267401,94.503777,89.092217,94,89.140000Z" transform="matrix(1 0 0 1 0.59000000000000 0.37000000000000)" fill="rgb(247,244,255)" stroke="none" stroke-width="1"/><path id="eN4ykOGteh217" d="M112.110000,101.230000C111.840000,100.390000,111.580000,99.550000,111.320000,98.710000C109.520000,98.710000,107.720000,98.710000,105.920000,98.710000C105.640000,99.550000,105.360000,100.380000,105.090000,101.220000L101.220000,101.220000Q103.750000,93.740000,106.470000,86.220000C107.990000,86.220000,109.470000,86.220000,111.040000,86.220000Q113.600000,93.720000,116.040000,101.220000C114.710000,101.270000,113.410000,101.250000,112.110000,101.230000ZM106.860000,95.910000L110.430000,95.910000Q109.570000,93.240000,108.700000,90.590000C108.070000,92.370000,107.460000,94.140000,106.860000,95.910000Z" transform="matrix(1 0 0 1 0.59000000000000 0.37000000000000)" fill="rgb(247,244,255)" stroke="none" stroke-width="1"/><path id="eN4ykOGteh218" d="M128.270000,86.820000Q130.150000,86.910000,132.020000,87.030000C131.730000,92.030000,131.430000,96.960000,131.140000,101.940000L127.500000,101.740000Q124.690000,96.900000,121.770000,92.080000C121.650000,95.210000,121.540000,98.340000,121.420000,101.480000L117.790000,101.350000C117.930000,96.350000,118.080000,91.350000,118.220000,86.420000L121.980000,86.540000Q124.980000,91.370000,127.780000,96.210000Q128,91.520000,128.270000,86.820000Z" transform="matrix(1 0 0 1 0.59000000000000 0.37000000000000)" fill="rgb(247,244,255)" stroke="none" stroke-width="1"/><path id="eN4ykOGteh219" d="M134.080000,90C134.140000,89.090000,134.190000,88.170000,134.260000,87.250000Q140.340000,87.640000,146.410000,88.190000C146.330000,89.100000,146.240000,90.020000,146.160000,90.940000L142,90.540000Q141.510000,96.540000,141,102.640000L137.370000,102.370000Q137.810000,96.310000,138.250000,90.260000C136.860000,90.150000,135.480000,90.050000,134.080000,90Z" transform="matrix(1 0 0 1 0.59000000000000 0.37000000000000)" fill="rgb(247,244,255)" stroke="none" stroke-width="1"/><path id="eN4ykOGteh220" d="M158,89.290000C157.900000,90.200000,157.790000,91.110000,157.690000,92.030000C155.850000,91.810000,154.010000,91.620000,152.170000,91.420000C152.060000,92.480000,151.940000,93.550000,151.840000,94.610000C153.450000,94.780000,155.070000,94.940000,156.680000,95.130000C156.570000,96.050000,156.470000,96.960000,156.370000,97.870000C154.760000,97.690000,153.160000,97.520000,151.550000,97.360000C151.430000,98.500000,151.310000,99.650000,151.200000,100.800000C153,100.990000,154.810000,101.180000,156.600000,101.390000C156.500000,102.300000,156.390000,103.210000,156.290000,104.130000C153.290000,103.780000,150.290000,103.470000,147.290000,103.180000Q147.990000,95.750000,148.690000,88.310000C151.750000,88.600000,154.860000,88.920000,158,89.290000Z" transform="matrix(1 0 0 1 0.59000000000000 0.37000000000000)" fill="rgb(247,244,255)" stroke="none" stroke-width="1"/><path id="eN4ykOGteh221" d="M170.450000,90.890000C170.310000,91.790000,170.190000,92.710000,170.050000,93.620000C168.220000,93.360000,166.380000,93.100000,164.540000,92.870000C164.400000,93.930000,164.260000,94.990000,164.130000,96.050000L168.960000,96.710000C168.840000,97.610000,168.700000,98.530000,168.580000,99.440000C166.980000,99.220000,165.380000,98.990000,163.780000,98.790000C163.630000,99.930000,163.490000,101.080000,163.340000,102.210000C165.130000,102.450000,166.940000,102.690000,168.740000,102.950000C168.600000,103.860000,168.480000,104.780000,168.350000,105.680000Q163.870000,105.050000,159.350000,104.500000C159.950000,99.500000,160.560000,94.620000,161.150000,89.670000Q165.810000,90.230000,170.450000,90.890000Z" transform="matrix(1 0 0 1 0.59000000000000 0.37000000000000)" fill="rgb(247,244,255)" stroke="none" stroke-width="1"/></g></g><g id="eN4ykOGteh222_ts" transform="translate(105.579994,41.239998) scale(1,1)"><g id="eN4ykOGteh222" transform="translate(-105.579994,-41.239998)" opacity="0"><path id="eN4ykOGteh223" d="M75.390000,37.310000C75.670000,39.860000,75.940000,42.400000,76.220000,44.940000C75.600000,45.010000,74.970000,45.070000,74.350000,45.150000C74.190000,43.710000,74.020000,42.280000,73.850000,40.850000C73.420000,42.350000,73,43.850000,72.580000,45.360000L71.190000,45.530000Q70.030000,43.530000,68.840000,41.480000C69.030000,42.910000,69.230000,44.330000,69.420000,45.770000L67.560000,46C67.200000,43.480000,66.840000,40.940000,66.480000,38.400000L68.670000,38.100000C69.670000,39.750000,70.670000,41.400000,71.590000,43.100000C72.110000,41.260000,72.590000,39.410000,73.190000,37.570000Z" transform="matrix(1 0 0 1 0.59000000000000 0.37000000000000)" fill="rgb(247,244,255)" stroke="none" stroke-width="1"/><path id="eN4ykOGteh224" d="M78.440000,43.660000C77.619920,43.004646,77.100391,42.044960,77,41C76.859904,39.945418,77.180519,38.881559,77.880000,38.080000C78.584249,37.271455,79.580393,36.775181,80.650000,36.700000C81.725194,36.568647,82.807691,36.878963,83.650000,37.560000C85.269411,39.017141,85.425008,41.502242,84,43.150000C83.320458,43.940801,82.350568,44.423943,81.310000,44.490000C80.281182,44.604141,79.249084,44.305660,78.440000,43.660000ZM82.630000,42.050000C82.983149,41.581240,83.134358,40.990805,83.050000,40.410000C83.035829,39.819106,82.787651,39.258009,82.360000,38.850000C81.930272,38.479030,81.363138,38.308163,80.800000,38.380000C80.231194,38.400786,79.700569,38.671588,79.350000,39.120000C79.000255,39.594217,78.849548,40.186278,78.930000,40.770000C78.960985,41.360221,79.218970,41.915606,79.650000,42.320000C80.559802,43.051705,81.885467,42.932395,82.650000,42.050000Z" transform="matrix(1 0 0 1 0.59000000000000 0.37000000000000)" fill="rgb(247,244,255)" stroke="none" stroke-width="1"/><path id="eN4ykOGteh225" d="M91.080000,36C91.720000,36,92.360000,35.940000,93.010000,35.910000C93.130000,38.470000,93.230000,41.040000,93.350000,43.600000C92.730000,43.600000,92.100000,43.600000,91.480000,43.690000C90.350000,42.130000,89.210000,40.570000,88.050000,39.030000C88.140000,40.650000,88.250000,42.260000,88.350000,43.870000L86.480000,44Q86.210000,40.160000,85.950000,36.320000L87.870000,36.200000Q89.620000,38.510000,91.340000,40.850000C91.250000,39.260000,91.170000,37.640000,91.080000,36Z" transform="matrix(1 0 0 1 0.59000000000000 0.37000000000000)" fill="rgb(247,244,255)" stroke="none" stroke-width="1"/><path id="eN4ykOGteh226" d="M99.490000,35.740000L99.490000,37.160000L96.640000,37.230000C96.640000,37.780000,96.640000,38.330000,96.640000,38.880000L99.140000,38.820000L99.140000,40.240000C98.310000,40.240000,97.480000,40.240000,96.660000,40.300000C96.660000,40.900000,96.660000,41.480000,96.660000,42.080000L99.610000,42L99.610000,43.420000C98.050000,43.420000,96.510000,43.500000,94.960000,43.560000L94.660000,35.870000C96.300000,35.810000,97.900000,35.760000,99.490000,35.740000Z" transform="matrix(1 0 0 1 0.59000000000000 0.37000000000000)" fill="rgb(247,244,255)" stroke="none" stroke-width="1"/><path id="eN4ykOGteh227" d="M105.140000,43.370000L103.260000,43.370000C103.260000,42.540000,103.260000,41.720000,103.260000,40.900000C102.350000,39.170000,101.420000,37.440000,100.480000,35.730000L102.670000,35.730000C103.180000,36.880000,103.670000,38.030000,104.200000,39.180000C104.700000,38.030000,105.200000,36.870000,105.700000,35.720000L107.890000,35.720000C106.960000,37.450000,106.050000,39.170000,105.150000,40.910000Z" transform="matrix(1 0 0 1 0.59000000000000 0.37000000000000)" fill="rgb(247,244,255)" stroke="none" stroke-width="1"/><path id="eN4ykOGteh228" d="M112.290000,35.800000L115.720000,35.910000C116.408291,35.907550,117.077439,36.136469,117.620000,36.560000C118.057362,36.922880,118.295159,37.472787,118.260000,38.040000C118.210000,38.900000,117.670000,39.470000,116.630000,39.730000C117.111612,39.805625,117.549018,40.054555,117.860000,40.430000C118.144347,40.797791,118.286383,41.255859,118.260000,41.720000C118.248265,42.285211,117.970211,42.811660,117.510000,43.140000C116.945790,43.501170,116.276929,43.663105,115.610000,43.600000C114.430000,43.600000,113.260000,43.510000,112.070000,43.490000C112.140000,40.920000,112.210000,38.350000,112.290000,35.800000ZM114.160000,37.280000C114.160000,37.830000,114.160000,38.380000,114.160000,38.940000L115.410000,38.940000C115.645798,38.956799,115.880736,38.897188,116.080000,38.770000C116.261706,38.620184,116.364861,38.395453,116.360000,38.160000C116.386728,37.925509,116.301520,37.692115,116.130000,37.530000C115.947696,37.369222,115.713072,37.280350,115.470000,37.280000ZM114,42.110000L115.430000,42.110000C115.664259,42.128801,115.896831,42.057240,116.080000,41.910000C116.255481,41.747941,116.353668,41.518837,116.350000,41.280000C116.370377,41.043896,116.294666,40.809552,116.140000,40.630000C115.979569,40.458126,115.755114,40.360379,115.520000,40.360000L114.070000,40.300000C114,40.940000,114,41.520000,114,42.110000Z" transform="matrix(1 0 0 1 0.59000000000000 0.37000000000000)" fill="rgb(247,244,255)" stroke="none" stroke-width="1"/><path id="eN4ykOGteh229" d="M124.340000,44.080000C124.240000,43.650000,124.120000,43.200000,124,42.770000L121.240000,42.580000C121.070000,43,120.900000,43.430000,120.730000,43.840000C120.060000,43.840000,119.400000,43.760000,118.730000,43.740000Q120.260000,39.960000,121.880000,36.210000L124.220000,36.360000C124.950000,38.990000,125.660000,41.610000,126.340000,44.240000ZM121.800000,41.190000L123.630000,41.320000C123.390000,40.380000,123.140000,39.460000,122.890000,38.530000C122.530000,39.410000,122.160000,40.300000,121.800000,41.190000Z" transform="matrix(1 0 0 1 0.59000000000000 0.37000000000000)" fill="rgb(247,244,255)" stroke="none" stroke-width="1"/><path id="eN4ykOGteh230" d="M128,43.330000C127.303172,42.533852,126.972961,41.481533,127.090000,40.430000C127.145283,39.367383,127.655369,38.380002,128.490000,37.720000C129.335389,37.046081,130.417573,36.743069,131.490000,36.880000C132.319662,36.946165,133.110402,37.259674,133.760000,37.780000C134.377549,38.290953,134.804013,38.995852,134.970000,39.780000L132.700000,39.540000C132.489627,38.967320,131.959130,38.574359,131.350000,38.540000C130.775160,38.453524,130.191139,38.621430,129.750000,39C129.317383,39.401267,129.064994,39.960129,129.050000,40.550000C128.970907,41.132179,129.117606,41.722554,129.460000,42.200000C129.824877,42.687086,130.391685,42.981532,131,43C131.588261,43.096053,132.175377,42.822330,132.480000,42.310000L134.730000,42.550000C134.403428,43.279977,133.844330,43.881271,133.140000,44.260000C132.423830,44.644242,131.607603,44.801209,130.800000,44.710000C129.718286,44.648202,128.707914,44.150233,128,43.330000Z" transform="matrix(1 0 0 1 0.59000000000000 0.37000000000000)" fill="rgb(247,244,255)" stroke="none" stroke-width="1"/><path id="eN4ykOGteh231" d="M137.470000,45.360000L135.600000,45.140000C135.890000,42.600000,136.190000,40.060000,136.480000,37.520000L138.400000,37.750000C138.270000,38.860000,138.130000,39.970000,137.990000,41.080000C138.990000,40.080000,139.990000,39.080000,140.990000,38.080000C141.830000,38.180000,142.660000,38.300000,143.500000,38.420000C142.250000,39.540000,141,40.660000,139.770000,41.790000C140.670000,43.190000,141.550000,44.610000,142.420000,46.020000L140,45.690000C139.290000,44.460000,138.580000,43.230000,137.850000,42C137.740000,43.120000,137.610000,44.240000,137.470000,45.360000Z" transform="matrix(1 0 0 1 0.59000000000000 0.37000000000000)" fill="rgb(247,244,255)" stroke="none" stroke-width="1"/></g></g><g id="eN4ykOGteh232_ts" transform="translate(105.641022,60.484785) scale(1,1)"><g id="eN4ykOGteh232" transform="translate(-105.641022,-60.484785)" opacity="0"><path id="eN4ykOGteh233" d="M69.230000,56.600000C68.856520,56.626400,68.511117,56.807851,68.277456,57.100403C68.043794,57.392955,67.943186,57.769923,68,58.140000L64.850000,58.560000C64.631864,57.433130,64.958010,56.269383,65.730000,55.420000C66.608323,54.549040,67.766914,54.017576,69,53.920000C70.194366,53.690072,71.431590,53.903386,72.480000,54.520000C73.331672,55.067647,73.870482,55.989199,73.930000,57C74.042600,57.715542,73.901077,58.447923,73.530000,59.070000C73.257719,59.549509,72.864702,59.949422,72.390000,60.230000C71.915298,60.510578,72.390000,60.230000,72.390000,60.300000C73.794259,60.588114,74.814092,61.806939,74.850000,63.240000C75.022385,64.326611,74.687002,65.432270,73.940000,66.240000C73.076181,67.087763,71.937580,67.598537,70.730000,67.680000C69.487579,67.869779,68.217594,67.629893,67.130000,67C66.086435,66.343762,65.417944,65.229611,65.330000,64L68.430000,63.570000C68.478195,64.038861,68.703529,64.471647,69.060000,64.780000C69.426592,65.061573,69.895496,65.174255,70.350000,65.090000C70.792230,65.064907,71.204588,64.858728,71.490000,64.520000C71.734754,64.156291,71.824705,63.710132,71.740000,63.280000C71.714725,62.816266,71.449384,62.399301,71.040000,62.180000C70.439485,61.943365,69.784387,61.880975,69.150000,62L68.560000,62.080000L68.230000,59.550000L68.830000,59.470000C70.270000,59.280000,70.930000,58.710000,70.830000,57.730000C70.801428,57.374513,70.618739,57.049326,70.330000,56.840000C70.004166,56.630224,69.613601,56.545009,69.230000,56.600000Z" transform="matrix(1 0 0 1 0.59000000000000 0.37000000000000)" fill="rgb(247,244,255)" stroke="none" stroke-width="1"/><path id="eN4ykOGteh234" d="M78.690000,53.720000C79.461455,53.303531,80.314803,53.061180,81.190000,53.010000C82.061606,52.917444,82.942887,53.019919,83.770000,53.310000C84.473373,53.568079,85.090125,54.018516,85.550000,54.610000C85.999740,55.211818,86.338390,55.889117,86.550000,56.610000C86.804698,57.462087,86.955787,58.341761,87,59.230000C87.068673,60.121569,87.028376,61.018186,86.880000,61.900000C86.760038,62.649632,86.513169,63.373331,86.150000,64.040000C85.790243,64.680874,85.260874,65.210243,84.620000,65.570000C83.883977,65.973464,83.067808,66.209094,82.230000,66.260000C81.417324,66.352630,80.594219,66.263831,79.820000,66C79.128685,65.749730,78.519720,65.313767,78.060000,64.740000C77.588696,64.141312,77.226499,63.464308,76.990000,62.740000C76.703052,61.901961,76.518381,61.032329,76.440000,60.150000C76.334049,59.266498,76.334049,58.373502,76.440000,57.490000C76.546789,56.729932,76.780010,55.993091,77.130000,55.310000C77.488963,54.642984,78.029941,54.091602,78.690000,53.720000ZM82.410000,56.080000C82.092691,55.954079,81.748958,55.909394,81.410000,55.950000C81.056394,55.953230,80.710471,56.053547,80.410000,56.240000C80.174150,56.385545,79.975545,56.584150,79.830000,56.820000C79.683308,57.082882,79.588266,57.371402,79.550000,57.670000C79.490405,57.999877,79.463608,58.334844,79.470000,58.670000C79.470000,58.990000,79.470000,59.370000,79.530000,59.810000C79.590000,60.250000,79.620000,60.630000,79.670000,60.950000C79.734469,61.288714,79.821326,61.622780,79.930000,61.950000C80.024245,62.238291,80.166218,62.508716,80.350000,62.750000C80.530203,62.956141,80.756262,63.117122,81.010000,63.220000C81.327827,63.343911,81.671056,63.388531,82.010000,63.350000C82.337752,63.331364,82.656439,63.235415,82.940000,63.070000C83.170217,62.924994,83.364994,62.730217,83.510000,62.500000C83.655772,62.232305,83.753900,61.941306,83.800000,61.640000C83.857046,61.309465,83.890464,60.975286,83.900000,60.640000C83.900000,60.320000,83.900000,59.930000,83.850000,59.500000C83.800000,59.070000,83.780000,58.680000,83.730000,58.360000C83.668693,58.021543,83.585180,57.687488,83.480000,57.360000C83.389959,57.069951,83.247616,56.798822,83.060000,56.560000C82.886757,56.348293,82.663308,56.183285,82.410000,56.080000Z" transform="matrix(1 0 0 1 0.59000000000000 0.37000000000000)" fill="rgb(247,244,255)" stroke="none" stroke-width="1"/><path id="eN4ykOGteh235" d="M99.540000,52.500000C101.477682,52.383759,103.386956,53.009457,104.880000,54.250000C106.244097,55.409356,106.999917,57.131151,106.930000,58.920000C106.977905,60.691263,106.246905,62.394493,104.930000,63.580000C103.519410,64.809764,101.700971,65.469394,99.830000,65.430000C98.310000,65.430000,96.830000,65.500000,95.270000,65.560000C95.120000,61.250000,94.960000,56.930000,94.810000,52.630000C96.360000,52.570000,98,52.540000,99.540000,52.500000ZM98.320000,63.070000L99.740000,63.070000C100.812765,63.106655,101.851224,62.689093,102.600000,61.920000C103.314281,61.090077,103.673471,60.012507,103.600000,58.920000C103.654526,57.814163,103.261674,56.732918,102.510000,55.920000C101.707519,55.154039,100.615552,54.768211,99.510000,54.860000C99.020000,54.860000,98.510000,54.860000,98.050000,54.860000Q98.240000,59,98.320000,63.070000Z" transform="matrix(1 0 0 1 0.59000000000000 0.37000000000000)" fill="rgb(247,244,255)" stroke="none" stroke-width="1"/><path id="eN4ykOGteh236" d="M117.130000,65.650000L116.500000,63.450000C114.930000,63.390000,113.360000,63.330000,111.810000,63.300000L111,65.450000C109.880000,65.450000,108.760000,65.450000,107.640000,65.450000Q109.970000,58.980000,112.480000,52.560000C113.820000,52.560000,115.160000,52.640000,116.480000,52.700000Q118.580000,59.270000,120.480000,65.870000ZM112.670000,60.920000L115.780000,61.020000Q115.090000,58.680000,114.380000,56.360000C113.800000,57.890000,113.230000,59.400000,112.670000,60.920000Z" transform="matrix(1 0 0 1 0.59000000000000 0.37000000000000)" fill="rgb(247,244,255)" stroke="none" stroke-width="1"/><path id="eN4ykOGteh237" d="M128.580000,66.390000L125.430000,66.140000L125.730000,61.990000Q123.730000,57.440000,121.730000,52.930000Q123.610000,53.030000,125.480000,53.170000Q126.590000,56.170000,127.620000,59.170000Q129.120000,56.350000,130.670000,53.560000C131.910000,53.670000,133.160000,53.790000,134.400000,53.920000Q131.610000,58.030000,128.980000,62.220000C128.820000,63.630000,128.700000,65,128.580000,66.390000Z" transform="matrix(1 0 0 1 0.59000000000000 0.37000000000000)" fill="rgb(247,244,255)" stroke="none" stroke-width="1"/><path id="eN4ykOGteh238" d="M140.400000,56.930000C140.038679,56.879002,139.670538,56.945618,139.350000,57.120000C139.059969,57.308513,138.877785,57.624545,138.860000,57.970000C138.792906,58.323859,138.884278,58.689345,139.110000,58.970000C139.345180,59.254192,139.642952,59.480088,139.980000,59.630000C140.340000,59.810000,140.760000,59.980000,141.210000,60.160000C141.674825,60.332866,142.128960,60.533220,142.570000,60.760000C142.991845,60.974057,143.387763,61.235766,143.750000,61.540000C144.109879,61.849227,144.379399,62.250052,144.530000,62.700000C144.713231,63.229936,144.757980,63.797908,144.660000,64.350000C144.502391,65.434958,143.862871,66.390563,142.920000,66.950000C141.823631,67.615241,140.524475,67.863713,139.260000,67.650000C137.998417,67.556568,136.804688,67.042454,135.870000,66.190000C135.053865,65.371608,134.681663,64.210338,134.870000,63.070000L138.270000,63.460000C138.197290,63.883375,138.312119,64.317453,138.584663,64.649496C138.857208,64.981539,139.260573,65.178783,139.690000,65.190000C140.077713,65.259778,140.477489,65.181251,140.810000,64.970000C141.095533,64.774326,141.281715,64.464023,141.320000,64.120000C141.382070,63.767810,141.295153,63.405657,141.080000,63.120000C140.843903,62.838401,140.550794,62.610049,140.220000,62.450000C139.860000,62.280000,139.450000,62.100000,138.990000,61.920000C138.531711,61.747038,138.084237,61.546676,137.650000,61.320000C137.227020,61.108801,136.825193,60.857659,136.450000,60.570000C136.082665,60.271416,135.799949,59.881820,135.630000,59.440000C135.431689,58.924509,135.366348,58.367388,135.440000,57.820000C135.527284,56.687052,136.166847,55.669736,137.150000,55.100000C138.273863,54.459605,139.584230,54.226493,140.860000,54.440000C142.110777,54.536500,143.299847,55.022620,144.260000,55.830000C145.097860,56.651636,145.472636,57.835928,145.260000,58.990000C144.090000,58.820000,142.910000,58.660000,141.740000,58.510000C141.768981,58.105957,141.651872,57.704945,141.410000,57.380000C141.139568,57.111716,140.780317,56.951654,140.400000,56.930000Z" transform="matrix(1 0 0 1 0.59000000000000 0.37000000000000)" fill="rgb(247,244,255)" stroke="none" stroke-width="1"/></g></g><g id="eN4ykOGteh239"><g id="eN4ykOGteh240_ts" transform="translate(105.217740,24.892155) scale(1,1)"><path id="eN4ykOGteh240" d="M107.890000,22.450000L110.120000,22.770000C110.407428,22.815178,110.644845,23.018512,110.733675,23.295577C110.822505,23.572643,110.747577,23.876118,110.540000,24.080000L108.930000,25.660000C108.752466,25.838640,108.670748,26.091224,108.710000,26.340000L109.100000,28.570000C109.155127,28.858667,109.038884,29.153247,108.801487,29.326482C108.564090,29.499718,108.248092,29.520558,107.990000,29.380000L105.990000,28.330000C105.765941,28.220750,105.504059,28.220750,105.280000,28.330000L103.280000,29.380000C103.021908,29.520558,102.705910,29.499718,102.468513,29.326482C102.231116,29.153247,102.114873,28.858667,102.170000,28.570000L102.550000,26.350000C102.586037,26.101486,102.504775,25.850311,102.330000,25.670000L100.720000,24.100000C100.506349,23.896829,100.427467,23.589499,100.516861,23.308547C100.606255,23.027595,100.848227,22.822354,101.140000,22.780000L103.360000,22.450000C103.640869,22.431966,103.887999,22.258202,104,22L105,20C105.129913,19.737712,105.397301,19.571760,105.690000,19.571760C105.982699,19.571760,106.250087,19.737712,106.380000,20L107.380000,22C107.472205,22.220123,107.660109,22.385920,107.890000,22.450000Z" transform="translate(-105.625530,-24.522155)" opacity="0" fill="rgb(247,244,255)" stroke="none" stroke-width="1"/></g><g id="eN4ykOGteh241_ts" transform="translate(92.194996,28.567754) scale(1,1)"><path id="eN4ykOGteh241" d="M93,26.920000L94.340000,27.110000C94.514780,27.135167,94.659727,27.258164,94.713003,27.426518C94.766280,27.594872,94.718482,27.778864,94.590000,27.900000L93.590000,28.900000C93.478269,29.004731,93.429031,29.160023,93.460000,29.310000L93.690000,30.650000C93.722696,30.824143,93.652465,31.001585,93.509446,31.106181C93.366427,31.210778,93.176046,31.223932,93.020000,31.140000L91.820000,30.510000C91.687535,30.431064,91.522465,30.431064,91.390000,30.510000L90.200000,31.140000C90.043954,31.223932,89.853573,31.210778,89.710554,31.106181C89.567535,31.001585,89.497304,30.824143,89.530000,30.650000L89.760000,29.310000C89.781172,29.158848,89.729197,29.006636,89.620000,28.900000L88.620000,27.900000C88.491518,27.778864,88.443720,27.594872,88.496997,27.426518C88.550273,27.258164,88.695220,27.135167,88.870000,27.110000L90.210000,26.920000C90.360922,26.892872,90.490442,26.796657,90.560000,26.660000L91.160000,25.450000C91.241585,25.296537,91.401199,25.200624,91.575000,25.200624C91.748801,25.200624,91.908415,25.296537,91.990000,25.450000L92.590000,26.660000C92.655150,26.826963,92.821196,26.932261,93,26.920000Z" transform="translate(-91.604996,-28.197754)" opacity="0" fill="rgb(247,244,255)" stroke="none" stroke-width="1"/></g><g id="eN4ykOGteh242_ts" transform="translate(118.038750,28.567754) scale(1,1)"><path id="eN4ykOGteh242" d="M118.840000,26.920000L120.180000,27.110000C120.352026,27.138971,120.493854,27.260838,120.548389,27.426543C120.602925,27.592247,120.561196,27.774526,120.440000,27.900000L119.440000,28.900000C119.328269,29.004731,119.279031,29.160023,119.310000,29.310000L119.540000,30.650000C119.572696,30.824143,119.502465,31.001585,119.359446,31.106181C119.216427,31.210778,119.026046,31.223932,118.870000,31.140000L117.670000,30.510000C117.537535,30.431064,117.372465,30.431064,117.240000,30.510000L116.050000,31.140000C115.893954,31.223932,115.703573,31.210778,115.560554,31.106181C115.417535,31.001585,115.347304,30.824143,115.380000,30.650000L115.610000,29.310000C115.631172,29.158848,115.579197,29.006636,115.470000,28.900000L114.470000,27.900000C114.341518,27.778864,114.293720,27.594872,114.346997,27.426518C114.400273,27.258164,114.545220,27.135167,114.720000,27.110000L116.060000,26.920000C116.210922,26.892872,116.340442,26.796657,116.410000,26.660000L117.010000,25.450000C117.091585,25.296537,117.251199,25.200624,117.425000,25.200624C117.598801,25.200624,117.758415,25.296537,117.840000,25.450000L118.440000,26.660000C118.503995,26.823304,118.664779,26.927813,118.840000,26.920000Z" transform="translate(-117.448750,-28.197754)" opacity="0" fill="rgb(247,244,255)" stroke="none" stroke-width="1"/></g></g></g></svg>