<svg id="ec0N3KITw8g1" xmlns="http://www.w3.org/2000/svg" xmlns:xlink="http://www.w3.org/1999/xlink" viewBox="0 0 210 140" shape-rendering="geometricPrecision" text-rendering="geometricPrecision"><style><![CDATA[#ec0N3KITw8g3_ts {animation: ec0N3KITw8g3_ts__ts 4000ms linear infinite normal forwards}@keyframes ec0N3KITw8g3_ts__ts { 0% {transform: translate(104.867001px,69.872502px) rotate(-1.781024deg) scale(1,1)} 55% {transform: translate(104.867001px,69.872502px) rotate(-1.781024deg) scale(1,1)} 60% {transform: translate(104.867001px,69.872502px) rotate(-1.781024deg) scale(1.015485,0.934896)} 65% {transform: translate(104.867001px,69.872502px) rotate(-1.781024deg) scale(0.979668,1.067295)} 70% {transform: translate(104.867001px,69.872502px) rotate(-1.781024deg) scale(1,1)} 100% {transform: translate(104.867001px,69.872502px) rotate(-1.781024deg) scale(1,1)}} #ec0N3KITw8g22_ts {animation: ec0N3KITw8g22_ts__ts 4000ms linear infinite normal forwards}@keyframes ec0N3KITw8g22_ts__ts { 0% {transform: translate(92.022320px,31.838030px) scale(1,1)} 7.500000% {transform: translate(92.022320px,31.838030px) scale(1.744699,1.693269)} 15% {transform: translate(92.022320px,31.838030px) scale(1,1)} 100% {transform: translate(92.022320px,31.838030px) scale(1,1)}} #ec0N3KITw8g23_ts {animation: ec0N3KITw8g23_ts__ts 4000ms linear infinite normal forwards}@keyframes ec0N3KITw8g23_ts__ts { 0% {transform: translate(105.330985px,28.233398px) scale(1,1)} 15% {transform: translate(105.330985px,28.233398px) scale(1,1)} 22.500000% {transform: translate(105.330985px,28.233398px) scale(1.744699,1.693269)} 30% {transform: translate(105.330985px,28.233398px) scale(1,1)} 100% {transform: translate(105.330985px,28.233398px) scale(1,1)}} #ec0N3KITw8g24_ts {animation: ec0N3KITw8g24_ts__ts 4000ms linear infinite normal forwards}@keyframes ec0N3KITw8g24_ts__ts { 0% {transform: translate(118.299660px,32.015217px) scale(1,1)} 30% {transform: translate(118.299660px,32.015217px) scale(1,1)} 37.500000% {transform: translate(118.299660px,32.015217px) scale(1.744699,1.693269)} 45% {transform: translate(118.299660px,32.015217px) scale(1,1)} 100% {transform: translate(118.299660px,32.015217px) scale(1,1)}} #ec0N3KITw8g25_ts {animation: ec0N3KITw8g25_ts__ts 4000ms linear infinite normal forwards}@keyframes ec0N3KITw8g25_ts__ts { 0% {transform: translate(105.392497px,107.487267px) scale(1,1)} 70% {transform: translate(105.392497px,107.487267px) scale(1,1)} 75% {transform: translate(105.392497px,107.487267px) scale(1.015485,0.934896)} 80% {transform: translate(105.392497px,107.487267px) scale(0.979668,1.067295)} 85% {transform: translate(105.392497px,107.487267px) scale(1,1)} 100% {transform: translate(105.392497px,107.487267px) scale(1,1)}}]]></style><g id="ec0N3KITw8g2" transform="matrix(0.93830513543536 0 0 0.93830513543536 6.50217581770228 4.32878944230164)"><g id="ec0N3KITw8g3_ts" transform="translate(104.867001,69.872502) rotate(-1.781024) scale(1,1)"><g id="ec0N3KITw8g3" transform="translate(-104.867001,-69.872502)"><g id="ec0N3KITw8g4" transform="matrix(0.99995135712718 0.00986323372468 -0.00986323372468 0.99995135712718 0.69426985116488 -1.03092893749469)"><path id="ec0N3KITw8g5" d="M119.786000,136.682000C119.787000,136.680000,128.296000,121.465000,128.296000,121.463000C128.298000,121.463000,145.398000,124.853000,145.400000,124.854000C145.400000,124.852000,146.984000,107.491000,146.984000,107.489000C146.986000,107.489000,163.986000,103.630000,163.988000,103.630000C163.987000,103.628000,158.373000,87.124000,158.372000,87.123000C158.374000,87.122000,172.335000,76.682000,172.337000,76.681000C172.336000,76.680000,160.494000,63.886000,160.492000,63.885000C160.493000,63.883000,169.002000,48.667000,169.002000,48.666000C169.001000,48.665000,152.979000,41.794000,152.977000,41.793000C152.978000,41.792000,154.561000,24.431000,154.562000,24.429000C154.560000,24.429000,137.129000,24.669000,137.127000,24.669000C137.126000,24.667000,131.512000,8.163000,131.511000,8.161000C131.510000,8.162000,115.683000,15.471000,115.681000,15.471000C115.680000,15.470000,103.838000,2.676000,103.837000,2.675000C103.836000,2.676000,92.350000,15.791000,92.349000,15.792000C92.347000,15.791000,76.325000,8.920000,76.324000,8.920000C76.323000,8.921000,71.165000,25.573000,71.164000,25.575000C71.162000,25.575000,53.731000,25.815000,53.729000,25.815000C53.729000,25.816000,55.790000,43.127000,55.790000,43.129000C55.788000,43.130000,39.962000,50.439000,39.960000,50.439000C39.961000,50.441000,48.884000,65.417000,48.885000,65.419000C48.884000,65.420000,37.398000,78.534000,37.397000,78.535000C37.398000,78.536000,51.641000,88.588000,51.643000,88.589000C51.642000,88.591000,46.483000,105.243000,46.483000,105.245000C46.485000,105.245000,63.585000,108.635000,63.587000,108.635000C63.587000,108.637000,65.647000,125.948000,65.647000,125.950000C65.649000,125.949000,82.650000,122.091000,82.651000,122.091000C82.652000,122.092000,91.575000,137.068000,91.576000,137.070000C91.578000,137.069000,105.539000,126.629000,105.541000,126.628000C105.542000,126.629000,119.785000,136.681000,119.786000,136.682000Z" fill="rgb(86,0,227)" fill-rule="evenodd" stroke="rgb(247,244,255)" stroke-width="4" stroke-linecap="round" stroke-linejoin="round"/></g><path id="ec0N3KITw8g6" d="M75.461000,41.014000C75.724000,43.602000,75.987000,46.190000,76.250000,48.768000C75.616000,48.836000,74.983000,48.895000,74.350000,48.973000C74.197000,47.507000,74.035000,46.050000,73.873000,44.593000C73.420000,46.118000,72.984000,47.643000,72.549000,49.168000C72.078000,49.219000,71.608000,49.279000,71.137000,49.340000C70.360000,47.960000,69.573000,46.580000,68.778000,45.200000C68.958000,46.658000,69.147000,48.106000,69.336000,49.563000C68.703000,49.640000,68.069000,49.726000,67.445000,49.812000C67.091000,47.242000,66.747000,44.662000,66.394000,42.083000C67.136000,41.979000,67.878000,41.885000,68.629000,41.791000C69.622000,43.470000,70.605000,45.159000,71.561000,46.847000C72.098000,44.979000,72.653000,43.111000,73.217000,41.243000C73.968000,41.167000,74.710000,41.090000,75.461000,41.014000Z" fill="rgb(247,244,255)" fill-rule="evenodd" stroke="none" stroke-width="1"/><path id="ec0N3KITw8g7" d="M81.310000,46.614000C81.943000,46.564000,82.433000,46.323000,82.780000,45.882000C83.126000,45.450000,83.275000,44.891000,83.225000,44.212000C83.176000,43.534000,82.944000,43.008000,82.530000,42.625000C82.117000,42.252000,81.594000,42.085000,80.951000,42.135000C80.309000,42.185000,79.819000,42.435000,79.473000,42.876000C79.117000,43.325000,78.978000,43.876000,79.036000,44.555000C79.095000,45.233000,79.336000,45.759000,79.749000,46.133000C80.162000,46.506000,80.686000,46.664000,81.310000,46.614000M81.461000,48.351000C80.348000,48.452000,79.365000,48.165000,78.519000,47.481000C77.674000,46.797000,77.192000,45.889000,77.073000,44.740000C76.963000,43.591000,77.259000,42.599000,77.988000,41.781000C78.708000,40.963000,79.651000,40.499000,80.809000,40.398000C81.967000,40.306000,82.969000,40.603000,83.805000,41.296000C84.642000,41.988000,85.097000,42.914000,85.179000,44.063000C85.253000,45.211000,84.930000,46.195000,84.210000,47.004000C83.490000,47.813000,82.574000,48.259000,81.461000,48.351000Z" fill="rgb(247,244,255)" fill-rule="evenodd" stroke="none" stroke-width="1"/><path id="ec0N3KITw8g8" d="M91.411000,39.819000C92.062000,39.787000,92.713000,39.764000,93.373000,39.741000C93.473000,42.346000,93.564000,44.951000,93.664000,47.556000C93.031000,47.579000,92.398000,47.602000,91.765000,47.634000C90.627000,46.044000,89.481000,44.453000,88.307000,42.881000C88.395000,44.518000,88.493000,46.156000,88.581000,47.793000C87.948000,47.825000,87.315000,47.866000,86.681000,47.907000C86.518000,45.301000,86.355000,42.705000,86.192000,40.100000C86.843000,40.059000,87.494000,40.018000,88.145000,39.987000C89.328000,41.559000,90.493000,43.149000,91.640000,44.739000C91.560000,43.102000,91.490000,41.456000,91.411000,39.819000Z" fill="rgb(247,244,255)" fill-rule="evenodd" stroke="none" stroke-width="1"/><path id="ec0N3KITw8g9" d="M99.957000,39.577000C99.963000,40.057000,99.969000,40.536000,99.975000,41.024000C99.007000,41.036000,98.048000,41.057000,97.081000,41.077000C97.095000,41.638000,97.109000,42.199000,97.124000,42.750000C97.974000,42.729000,98.815000,42.716000,99.665000,42.704000C99.671000,43.183000,99.676000,43.663000,99.682000,44.151000C98.841000,44.163000,98,44.176000,97.159000,44.197000C97.173000,44.803000,97.187000,45.400000,97.201000,46.006000C98.151000,45.985000,99.100000,45.965000,100.041000,45.953000C100.047000,46.432000,100.052000,46.911000,100.058000,47.400000C98.476000,47.425000,96.902000,47.460000,95.328000,47.503000C95.247000,44.899000,95.165000,42.294000,95.083000,39.689000C96.711000,39.628000,98.339000,39.594000,99.957000,39.577000Z" fill="rgb(247,244,255)" fill-rule="evenodd" stroke="none" stroke-width="1"/><path id="ec0N3KITw8g10" d="M105.646000,47.375000C105.013000,47.370000,104.381000,47.366000,103.739000,47.371000C103.735000,46.530000,103.741000,45.698000,103.737000,44.857000C102.827000,43.097000,101.899000,41.336000,100.952000,39.585000C101.693000,39.581000,102.435000,39.577000,103.177000,39.573000C103.693000,40.743000,104.209000,41.921000,104.708000,43.091000C105.223000,41.919000,105.737000,40.747000,106.260000,39.584000C107.001000,39.589000,107.742000,39.603000,108.484000,39.617000C107.523000,41.365000,106.588000,43.113000,105.663000,44.870000C105.657000,45.702000,105.652000,46.543000,105.646000,47.375000Z" fill="rgb(247,244,255)" fill-rule="evenodd" stroke="none" stroke-width="1"/><path id="ec0N3KITw8g11" d="M114.737000,44.370000C114.705000,44.967000,114.683000,45.555000,114.660000,46.151000C115.140000,46.172000,115.618000,46.194000,116.107000,46.215000C116.369000,46.226000,116.587000,46.164000,116.769000,46.012000C116.951000,45.868000,117.043000,45.652000,117.053000,45.380000C117.064000,45.109000,116.993000,44.883000,116.841000,44.710000C116.688000,44.537000,116.472000,44.445000,116.209000,44.434000C115.721000,44.413000,115.224000,44.392000,114.737000,44.370000M116.131000,41.296000C115.706000,41.275000,115.282000,41.263000,114.856000,41.242000C114.835000,41.803000,114.813000,42.363000,114.791000,42.933000C115.216000,42.954000,115.632000,42.966000,116.057000,42.987000C116.337000,42.998000,116.563000,42.936000,116.745000,42.810000C116.917000,42.676000,117.018000,42.478000,117.029000,42.197000C117.040000,41.917000,116.970000,41.709000,116.807000,41.554000C116.636000,41.390000,116.411000,41.307000,116.131000,41.296000M112.689000,47.539000C112.779000,44.927000,112.869000,42.323000,112.959000,39.729000C114.125000,39.764000,115.292000,39.817000,116.449000,39.870000C117.262000,39.911000,117.902000,40.133000,118.370000,40.543000C118.828000,40.953000,119.050000,41.452000,119.011000,42.048000C118.959000,42.925000,118.404000,43.491000,117.344000,43.755000C117.877000,43.858000,118.292000,44.096000,118.587000,44.478000C118.883000,44.859000,119.015000,45.294000,118.986000,45.782000C118.954000,46.406000,118.689000,46.884000,118.216000,47.224000C117.744000,47.564000,117.092000,47.714000,116.278000,47.681000C115.084000,47.628000,113.892000,47.575000,112.689000,47.539000Z" fill="rgb(247,244,255)" fill-rule="evenodd" stroke="none" stroke-width="1"/><path id="ec0N3KITw8g12" d="M123.718000,42.578000C123.341000,43.471000,122.964000,44.372000,122.587000,45.274000C123.211000,45.314000,123.825000,45.364000,124.449000,45.413000C124.212000,44.462000,123.965000,43.520000,123.718000,42.578000M127.187000,48.397000C126.509000,48.339000,125.832000,48.280000,125.153000,48.230000C125.049000,47.786000,124.934000,47.333000,124.819000,46.890000C123.880000,46.820000,122.939000,46.750000,122.009000,46.681000C121.834000,47.104000,121.660000,47.537000,121.485000,47.961000C120.806000,47.921000,120.138000,47.871000,119.460000,47.839000C120.517000,45.287000,121.601000,42.745000,122.712000,40.211000C123.507000,40.262000,124.294000,40.321000,125.089000,40.381000C125.812000,43.053000,126.518000,45.726000,127.187000,48.397000Z" fill="rgb(247,244,255)" fill-rule="evenodd" stroke="none" stroke-width="1"/><path id="ec0N3KITw8g13" d="M128.920000,47.486000C128.211000,46.667000,127.911000,45.680000,128.009000,44.532000C128.108000,43.384000,128.592000,42.465000,129.456000,41.793000C130.320000,41.120000,131.334000,40.838000,132.482000,40.954000C133.377000,41.051000,134.143000,41.363000,134.782000,41.892000C135.420000,42.430000,135.822000,43.111000,135.997000,43.953000C135.230000,43.866000,134.461000,43.771000,133.693000,43.693000C133.453000,43.095000,133.004000,42.757000,132.334000,42.689000C131.666000,42.622000,131.123000,42.772000,130.704000,43.140000C130.285000,43.508000,130.038000,44.030000,129.979000,44.708000C129.911000,45.386000,130.052000,45.947000,130.384000,46.393000C130.724000,46.838000,131.210000,47.085000,131.870000,47.153000C132.521000,47.230000,133.029000,46.998000,133.385000,46.458000C134.145000,46.545000,134.903000,46.631000,135.671000,46.718000C135.304000,47.493000,134.758000,48.068000,134.041000,48.452000C133.315000,48.836000,132.519000,48.975000,131.659000,48.888000C130.539000,48.772000,129.629000,48.305000,128.920000,47.486000Z" fill="rgb(247,244,255)" fill-rule="evenodd" stroke="none" stroke-width="1"/><path id="ec0N3KITw8g14" d="M138.482000,49.621000C137.850000,49.535000,137.217000,49.458000,136.585000,49.382000C136.901000,46.798000,137.216000,44.223000,137.532000,41.639000C138.183000,41.716000,138.833000,41.801000,139.483000,41.887000C139.340000,43.016000,139.188000,44.146000,139.045000,45.275000C140.064000,44.260000,141.084000,43.245000,142.121000,42.239000C142.971000,42.354000,143.819000,42.477000,144.669000,42.609000C143.386000,43.731000,142.112000,44.862000,140.857000,46.002000C141.761000,47.436000,142.646000,48.880000,143.522000,50.324000C142.709000,50.201000,141.905000,50.087000,141.092000,49.973000C140.377000,48.711000,139.663000,47.459000,138.930000,46.206000C138.777000,47.344000,138.634000,48.482000,138.482000,49.621000Z" fill="rgb(247,244,255)" fill-rule="evenodd" stroke="none" stroke-width="1"/><path id="ec0N3KITw8g15" d="M69.072000,60.566000C68.176000,60.677000,67.739000,61.199000,67.760000,62.121000C66.692000,62.259000,65.624000,62.396000,64.556000,62.534000C64.384000,61.239000,64.680000,60.174000,65.463000,59.348000C66.247000,58.521000,67.380000,58.014000,68.846000,57.843000C70.312000,57.672000,71.486000,57.888000,72.369000,58.481000C73.251000,59.075000,73.742000,59.910000,73.844000,60.960000C73.929000,61.792000,73.788000,62.487000,73.423000,63.055000C73.057000,63.622000,72.675000,64.008000,72.257000,64.231000C72.257000,64.258000,72.266000,64.277000,72.266000,64.304000C73.755000,64.685000,74.581000,65.685000,74.741000,67.304000C74.860000,68.526000,74.546000,69.518000,73.799000,70.309000C73.052000,71.100000,71.964000,71.572000,70.525000,71.743000C69.086000,71.914000,67.867000,71.698000,66.858000,71.085000C65.850000,70.473000,65.242000,69.447000,65.052000,67.998000C66.102000,67.861000,67.152000,67.723000,68.202000,67.586000C68.280000,68.129000,68.494000,68.537000,68.836000,68.820000C69.177000,69.102000,69.611000,69.205000,70.144000,69.145000C70.678000,69.085000,71.069000,68.889000,71.306000,68.574000C71.543000,68.259000,71.636000,67.835000,71.577000,67.310000C71.517000,66.785000,71.284000,66.413000,70.870000,66.193000C70.455000,65.973000,69.823000,65.915000,68.954000,66.018000C68.755000,66.043000,68.547000,66.069000,68.348000,66.095000C68.245000,65.235000,68.133000,64.375000,68.030000,63.516000C68.239000,63.490000,68.438000,63.464000,68.646000,63.438000C70.103000,63.258000,70.785000,62.684000,70.674000,61.689000C70.632000,61.291000,70.462000,60.991000,70.174000,60.781000C69.877000,60.598000,69.507000,60.514000,69.072000,60.566000Z" fill="rgb(247,244,255)" fill-rule="evenodd" stroke="none" stroke-width="1"/><path id="ec0N3KITw8g16" d="M83.151000,60.624000C82.980000,60.415000,82.755000,60.251000,82.467000,60.131000C82.178000,60.012000,81.844000,59.964000,81.473000,59.989000C81.093000,60.013000,80.776000,60.111000,80.503000,60.281000C80.240000,60.451000,80.040000,60.639000,79.903000,60.864000C79.775000,61.089000,79.673000,61.378000,79.616000,61.730000C79.551000,62.083000,79.522000,62.426000,79.528000,62.751000C79.526000,63.077000,79.551000,63.466000,79.584000,63.909000C79.617000,64.353000,79.668000,64.742000,79.721000,65.068000C79.773000,65.385000,79.861000,65.720000,79.976000,66.064000C80.091000,66.408000,80.234000,66.672000,80.396000,66.872000C80.557000,67.072000,80.782000,67.236000,81.062000,67.355000C81.341000,67.475000,81.666000,67.522000,82.037000,67.497000C82.408000,67.473000,82.716000,67.375000,82.979000,67.215000C83.243000,67.054000,83.434000,66.856000,83.571000,66.640000C83.699000,66.415000,83.801000,66.126000,83.866000,65.774000C83.932000,65.422000,83.961000,65.078000,83.973000,64.753000C83.975000,64.427000,83.959000,64.038000,83.935000,63.595000C83.902000,63.143000,83.868000,62.763000,83.816000,62.437000C83.764000,62.111000,83.685000,61.785000,83.570000,61.441000C83.455000,61.096000,83.321000,60.824000,83.151000,60.624000M77.128000,59.317000C77.476000,58.642000,78.013000,58.112000,78.703000,57.709000C79.402000,57.316000,80.245000,57.078000,81.240000,57.003000C82.235000,56.929000,83.111000,57.034000,83.860000,57.328000C84.608000,57.614000,85.211000,58.061000,85.669000,58.661000C86.126000,59.261000,86.474000,59.950000,86.712000,60.729000C86.951000,61.509000,87.099000,62.396000,87.155000,63.400000C87.212000,64.395000,87.170000,65.299000,87.020000,66.102000C86.879000,66.906000,86.621000,67.628000,86.255000,68.277000C85.889000,68.925000,85.370000,69.437000,84.698000,69.821000C84.026000,70.206000,83.211000,70.426000,82.261000,70.501000C81.311000,70.576000,80.480000,70.471000,79.758000,70.195000C79.037000,69.919000,78.443000,69.490000,77.986000,68.899000C77.529000,68.317000,77.162000,67.636000,76.905000,66.866000C76.639000,66.096000,76.464000,65.208000,76.372000,64.222000C76.279000,63.227000,76.294000,62.332000,76.408000,61.519000C76.531000,60.715000,76.771000,59.975000,77.128000,59.317000Z" fill="rgb(247,244,255)" fill-rule="evenodd" stroke="none" stroke-width="1"/><path id="ec0N3KITw8g17" d="M98.442000,59.072000C98.496000,61.831000,98.541000,64.589000,98.585000,67.347000C99.065000,67.341000,99.544000,67.335000,100.023000,67.330000C101.262000,67.311000,102.232000,66.938000,102.942000,66.183000C103.653000,65.428000,104.012000,64.427000,104.011000,63.170000C104.012000,61.913000,103.657000,60.907000,102.929000,60.152000C102.201000,59.405000,101.200000,59.037000,99.925000,59.046000C99.428000,59.052000,98.940000,59.058000,98.442000,59.072000M95.049000,56.708000C96.659000,56.664000,98.278000,56.639000,99.897000,56.614000C102.103000,56.583000,103.916000,57.202000,105.309000,58.423000C106.712000,59.653000,107.379000,61.240000,107.357000,63.184000C107.326000,65.127000,106.619000,66.696000,105.255000,67.908000C103.882000,69.119000,102.159000,69.731000,100.061000,69.753000C98.515000,69.770000,96.968000,69.805000,95.422000,69.849000C95.298000,65.471000,95.174000,61.085000,95.049000,56.708000Z" fill="rgb(247,244,255)" fill-rule="evenodd" stroke="none" stroke-width="1"/><path id="ec0N3KITw8g18" d="M114.943000,60.631000C114.345000,62.182000,113.755000,63.716000,113.175000,65.258000C114.234000,65.292000,115.291000,65.335000,116.339000,65.379000C115.880000,63.793000,115.412000,62.217000,114.943000,60.631000M121.108000,70.294000C119.960000,70.223000,118.812000,70.151000,117.673000,70.099000C117.470000,69.347000,117.258000,68.604000,117.046000,67.852000C115.455000,67.778000,113.865000,67.713000,112.282000,67.666000C112.015000,68.397000,111.748000,69.127000,111.481000,69.849000C110.342000,69.814000,109.203000,69.788000,108.064000,69.772000C109.666000,65.406000,111.333000,61.050000,113.070000,56.712000C114.435000,56.758000,115.792000,56.812000,117.156000,56.875000C118.546000,61.343000,119.863000,65.809000,121.108000,70.294000Z" fill="rgb(247,244,255)" fill-rule="evenodd" stroke="none" stroke-width="1"/><path id="ec0N3KITw8g19" d="M129.305000,70.927000C128.239000,70.830000,127.172000,70.741000,126.106000,70.653000C126.215000,69.243000,126.333000,67.842000,126.441000,66.432000C125.142000,63.349000,123.789000,60.266000,122.390000,57.200000C123.655000,57.281000,124.929000,57.371000,126.195000,57.470000C126.932000,59.509000,127.640000,61.557000,128.332000,63.597000C129.358000,61.696000,130.402000,59.804000,131.463000,57.921000C132.729000,58.038000,133.993000,58.173000,135.258000,58.308000C133.349000,61.090000,131.495000,63.889000,129.686000,66.707000C129.568000,68.117000,129.432000,69.518000,129.305000,70.927000Z" fill="rgb(247,244,255)" fill-rule="evenodd" stroke="none" stroke-width="1"/><path id="ec0N3KITw8g20" d="M141.377000,61.396000C140.962000,61.348000,140.609000,61.409000,140.318000,61.579000C140.027000,61.758000,139.853000,62.046000,139.806000,62.444000C139.758000,62.841000,139.837000,63.176000,140.052000,63.449000C140.267000,63.722000,140.564000,63.941000,140.934000,64.124000C141.303000,64.307000,141.727000,64.482000,142.187000,64.666000C142.647000,64.850000,143.106000,65.052000,143.557000,65.290000C144.007000,65.519000,144.404000,65.793000,144.755000,66.094000C145.105000,66.395000,145.374000,66.794000,145.542000,67.275000C145.720000,67.764000,145.753000,68.316000,145.658000,68.948000C145.496000,70.050000,144.894000,70.923000,143.876000,71.577000C142.860000,72.230000,141.619000,72.456000,140.146000,72.266000C138.674000,72.075000,137.529000,71.579000,136.712000,70.760000C135.885000,69.949000,135.549000,68.889000,135.692000,67.588000C136.841000,67.722000,137.988000,67.857000,139.145000,68C139.101000,69.049000,139.577000,69.640000,140.571000,69.773000C141.030000,69.830000,141.411000,69.761000,141.711000,69.555000C142.010000,69.349000,142.185000,69.060000,142.232000,68.690000C142.279000,68.320000,142.200000,68.003000,141.995000,67.730000C141.788000,67.466000,141.500000,67.238000,141.130000,67.046000C140.762000,66.863000,140.346000,66.679000,139.886000,66.495000C139.427000,66.320000,138.967000,66.109000,138.526000,65.880000C138.075000,65.651000,137.669000,65.386000,137.311000,65.103000C136.951000,64.812000,136.673000,64.430000,136.486000,63.949000C136.300000,63.469000,136.231000,62.917000,136.307000,62.302000C136.443000,61.083000,137.027000,60.164000,138.062000,59.547000C139.097000,58.930000,140.355000,58.713000,141.837000,58.904000C143.319000,59.095000,144.464000,59.582000,145.281000,60.347000C146.099000,61.112000,146.418000,62.190000,146.254000,63.563000C145.062000,63.383000,143.869000,63.213000,142.677000,63.051000C142.689000,62.572000,142.584000,62.191000,142.350000,61.900000C142.117000,61.627000,141.792000,61.453000,141.377000,61.396000Z" fill="rgb(247,244,255)" fill-rule="evenodd" stroke="none" stroke-width="1"/><g id="ec0N3KITw8g21"><g id="ec0N3KITw8g22_ts" transform="translate(92.022320,31.838030) scale(1,1)"><path id="ec0N3KITw8g22" d="M93.404000,30.570000C93.856000,30.640000,94.308000,30.709000,94.762000,30.779000C95.146000,30.838000,95.298000,31.313000,95.017000,31.585000C94.687000,31.903000,94.358000,32.221000,94.030000,32.539000C93.918000,32.644000,93.867000,32.800000,93.891000,32.956000C93.965000,33.409000,94.041000,33.863000,94.117000,34.317000C94.183000,34.704000,93.778000,34.994000,93.431000,34.811000C93.027000,34.594000,92.623000,34.377000,92.220000,34.161000C92.084000,34.085000,91.922000,34.084000,91.785000,34.158000C91.380000,34.369000,90.975000,34.580000,90.571000,34.792000C90.229000,34.970000,89.827000,34.675000,89.892000,34.288000C89.970000,33.835000,90.050000,33.383000,90.131000,32.930000C90.156000,32.775000,90.108000,32.618000,89.997000,32.512000C89.671000,32.189000,89.347000,31.867000,89.023000,31.545000C88.746000,31.268000,88.904000,30.796000,89.289000,30.742000C89.741000,30.679000,90.195000,30.615000,90.649000,30.552000C90.805000,30.528000,90.935000,30.435000,91.005000,30.298000C91.209000,29.888000,91.415000,29.478000,91.621000,29.068000C91.797000,28.720000,92.294000,28.723000,92.465000,29.074000C92.664000,29.486000,92.864000,29.899000,93.065000,30.312000C93.120000,30.450000,93.249000,30.551000,93.404000,30.570000Z" transform="translate(-92.022320,-31.838030)" fill="rgb(247,244,255)" fill-rule="evenodd" stroke="none" stroke-width="1"/></g><g id="ec0N3KITw8g23_ts" transform="translate(105.330985,28.233398) scale(1,1)"><path id="ec0N3KITw8g23" d="M108.587000,26.132000C109.338000,26.245000,110.090000,26.358000,110.843000,26.472000C111.482000,26.569000,111.731000,27.363000,111.268000,27.809000C110.718000,28.341000,110.168000,28.874000,109.619000,29.407000C109.432000,29.586000,109.350000,29.848000,109.391000,30.097000C109.516000,30.850000,109.641000,31.604000,109.767000,32.357000C109.875000,33,109.202000,33.482000,108.633000,33.179000C107.960000,32.819000,107.288000,32.459000,106.617000,32.099000C106.388000,31.979000,106.121000,31.977000,105.891000,32.094000C105.216000,32.445000,104.541000,32.796000,103.867000,33.147000C103.294000,33.449000,102.628000,32.952000,102.737000,32.316000C102.869000,31.564000,103.003000,30.813000,103.137000,30.061000C103.183000,29.806000,103.097000,29.550000,102.918000,29.368000C102.377000,28.832000,101.836000,28.296000,101.297000,27.760000C100.835000,27.302000,101.095000,26.518000,101.735000,26.423000C102.487000,26.317000,103.241000,26.212000,103.995000,26.107000C104.244000,26.072000,104.468000,25.911000,104.581000,25.681000C104.920000,24.997000,105.260000,24.313000,105.601000,23.630000C105.889000,23.046000,106.715000,23.051000,107.003000,23.639000C107.335000,24.325000,107.667000,25.012000,108.001000,25.698000C108.111000,25.929000,108.333000,26.093000,108.587000,26.132000Z" transform="translate(-106.284443,-28.233398)" fill="rgb(247,244,255)" fill-rule="evenodd" stroke="none" stroke-width="1"/></g><g id="ec0N3KITw8g24_ts" transform="translate(118.299660,32.015217) scale(1,1)"><path id="ec0N3KITw8g24" d="M119.682000,30.748000C120.133000,30.817000,120.585000,30.887000,121.039000,30.956000C121.423000,31.015000,121.576000,31.490000,121.294000,31.762000C120.964000,32.080000,120.635000,32.398000,120.307000,32.716000C120.195000,32.821000,120.144000,32.977000,120.168000,33.133000C120.243000,33.586000,120.318000,34.040000,120.395000,34.494000C120.460000,34.881000,120.055000,35.171000,119.709000,34.988000C119.304000,34.771000,118.900000,34.554000,118.497000,34.338000C118.361000,34.262000,118.200000,34.261000,118.063000,34.335000C117.657000,34.546000,117.252000,34.757000,116.849000,34.969000C116.506000,35.148000,116.104000,34.852000,116.169000,34.466000C116.247000,34.013000,116.327000,33.560000,116.408000,33.108000C116.434000,32.952000,116.386000,32.796000,116.275000,32.689000C115.949000,32.366000,115.624000,32.044000,115.300000,31.722000C115.023000,31.446000,115.182000,30.973000,115.566000,30.920000C116.018000,30.856000,116.472000,30.792000,116.927000,30.729000C117.082000,30.705000,117.213000,30.612000,117.282000,30.476000C117.486000,30.065000,117.692000,29.655000,117.898000,29.245000C118.074000,28.897000,118.571000,28.901000,118.743000,29.251000C118.941000,29.664000,119.141000,30.076000,119.342000,30.490000C119.397000,30.627000,119.526000,30.728000,119.682000,30.748000Z" transform="translate(-118.299660,-32.015217)" fill="rgb(247,244,255)" fill-rule="evenodd" stroke="none" stroke-width="1"/></g></g></g></g><g id="ec0N3KITw8g25_ts" transform="translate(105.392497,107.487267) scale(1,1)"><g id="ec0N3KITw8g25" transform="translate(-105.392497,-107.487267)"><path id="ec0N3KITw8g26" d="M160.174000,132.281000C165.686000,127.842000,171.200000,123.404000,176.715000,118.968000C171.200000,123.404000,165.686000,127.842000,160.174000,132.281000M180.191000,101.447000C173.175000,106.010000,166.903000,111.646000,159.917000,116.249000C160.062000,121.608000,159.621000,126.965000,159.547000,132.317000C173.289000,132.696000,186.719000,134.204000,199.726000,137.025000C197.380000,131.312000,194.628000,125.714000,191.895000,120.024000C196.668000,115.390000,202.060000,111.243000,207.683000,107.230000C198.792000,104.484000,189.597000,102.241000,180.191000,101.447000Z" fill="rgb(86,0,227)" fill-rule="evenodd" stroke="none" stroke-width="1"/><path id="ec0N3KITw8g27" d="M50.658000,132.647000C45.124000,128.245000,39.591000,123.844000,34.058000,119.444000C39.591000,123.844000,45.124000,128.245000,50.658000,132.647000M30.411000,102.946000C37.101000,107.324000,43.263000,112.507000,50.121000,116.621000C50.203000,121.993000,51.109000,127.321000,51.366000,132.678000C37.644000,133.527000,24.205000,134.756000,11.212000,137.654000C13.526000,131.924000,16.255000,126.310000,18.956000,120.602000C14.159000,115.999000,8.680000,111.980000,3.102000,107.913000C11.914000,105.289000,21.115000,103.705000,30.411000,102.946000Z" fill="rgb(86,0,227)" fill-rule="evenodd" stroke="none" stroke-width="1"/><path id="ec0N3KITw8g28" d="M34.058000,119.444000C39.591000,123.844000,45.124000,128.245000,50.658000,132.647000M50.121000,116.621000C50.203000,121.993000,51.109000,127.321000,51.366000,132.678000C37.644000,133.527000,24.205000,134.756000,11.212000,137.654000C13.526000,131.924000,16.255000,126.310000,18.956000,120.602000C14.159000,115.999000,8.680000,111.980000,3.102000,107.913000C11.914000,105.289000,21.115000,103.705000,30.411000,102.946000" fill="none" stroke="rgb(0,0,0)" stroke-width="1" stroke-linecap="round" stroke-linejoin="round"/><path id="ec0N3KITw8g29" d="M176.513000,118.234000C129.555000,109.194000,81.234000,109.397000,34.328000,118.709000C32.127000,107.611000,29.737000,96.559000,27.426000,85.482000C78.732000,74.803000,131.879000,74.577000,183.236000,84.962000C181.004000,96.056000,178.660000,107.120000,176.513000,118.234000Z" fill="rgb(86,0,227)" fill-rule="evenodd" stroke="rgb(0,0,0)" stroke-width="1" stroke-linecap="round" stroke-linejoin="round"/><path id="ec0N3KITw8g30" d="M183.236000,84.962000C181.004000,96.056000,178.660000,107.120000,176.513000,118.234000C129.555000,109.194000,81.234000,109.397000,34.328000,118.709000C32.127000,107.611000,29.737000,96.559000,27.426000,85.482000C78.732000,74.803000,131.879000,74.577000,183.236000,84.962000" fill="none" stroke="rgb(247,244,255)" stroke-width="4" stroke-linecap="round" stroke-linejoin="round"/><path id="ec0N3KITw8g31" d="M50.121000,116.621000C50.203000,121.993000,51.109000,127.321000,51.366000,132.678000C37.644000,133.527000,24.205000,134.756000,11.212000,137.654000C13.526000,131.924000,16.255000,126.310000,18.956000,120.602000C14.159000,115.999000,8.680000,111.980000,3.102000,107.913000C11.914000,105.289000,21.115000,103.705000,30.411000,102.946000" fill="none" stroke="rgb(247,244,255)" stroke-width="4" stroke-linecap="round" stroke-linejoin="round"/><path id="ec0N3KITw8g32" d="M159.917000,116.249000C160.062000,121.608000,159.621000,126.965000,159.547000,132.317000C173.289000,132.696000,186.719000,134.204000,199.726000,137.025000C197.380000,131.312000,194.628000,125.714000,191.895000,120.024000C196.668000,115.390000,202.060000,111.243000,207.683000,107.230000C198.792000,104.484000,189.597000,102.241000,180.191000,101.447000" fill="none" stroke="rgb(247,244,255)" stroke-width="4" stroke-linecap="round" stroke-linejoin="round"/><path id="ec0N3KITw8g33" d="M34.058000,119.444000C39.591000,123.844000,45.124000,128.245000,50.658000,132.647000" fill="none" stroke="rgb(0,0,0)" stroke-width="1" stroke-linejoin="round"/><path id="ec0N3KITw8g34" d="M50.658000,132.647000C45.124000,128.245000,39.591000,123.844000,34.058000,119.444000" fill="none" stroke="rgb(0,0,0)" stroke-width="1" stroke-linejoin="round"/><path id="ec0N3KITw8g35" d="M34.058000,119.444000C39.591000,123.844000,45.124000,128.245000,50.658000,132.647000C45.124000,128.245000,39.591000,123.844000,34.058000,119.444000Z" fill="rgb(0,0,0)" fill-rule="evenodd" stroke="none" stroke-width="1"/><path id="ec0N3KITw8g36" d="M34.058000,119.444000C39.591000,123.844000,45.124000,128.245000,50.658000,132.647000" fill="none" stroke="rgb(247,244,255)" stroke-width="4" stroke-linecap="round" stroke-linejoin="round"/><path id="ec0N3KITw8g37" d="M176.715000,118.968000C171.200000,123.404000,165.686000,127.842000,160.174000,132.281000" fill="none" stroke="rgb(0,0,0)" stroke-width="1" stroke-linejoin="round"/><path id="ec0N3KITw8g38" d="M160.174000,132.281000C165.686000,127.842000,171.200000,123.404000,176.715000,118.968000" fill="none" stroke="rgb(0,0,0)" stroke-width="1" stroke-linejoin="round"/><path id="ec0N3KITw8g39" d="M176.715000,118.968000C171.200000,123.404000,165.686000,127.842000,160.174000,132.281000C165.686000,127.842000,171.200000,123.404000,176.715000,118.968000Z" fill="rgb(0,0,0)" fill-rule="evenodd" stroke="none" stroke-width="1"/><path id="ec0N3KITw8g40" d="M176.715000,118.968000C171.200000,123.404000,165.686000,127.842000,160.174000,132.281000" fill="none" stroke="rgb(247,244,255)" stroke-width="4" stroke-linecap="round" stroke-linejoin="round"/><path id="ec0N3KITw8g41" d="M41.054000,105.672000C39.406000,104.533000,38.312000,102.948000,37.992000,100.841000C37.676000,98.763000,38.218000,96.933000,39.512000,95.394000C40.866000,93.783000,42.687000,92.921000,44.897000,92.655000C46.638000,92.447000,48.224000,92.670000,49.691000,93.357000C51.109000,94.030000,52.222000,95.045000,52.931000,96.498000C51.439000,96.698000,49.924000,96.795000,48.430000,96.995000C47.708000,95.980000,46.679000,95.625000,45.395000,95.788000C44.117000,95.951000,43.134000,96.403000,42.485000,97.260000C41.869000,98.081000,41.622000,99.110000,41.803000,100.338000C41.978000,101.580000,42.531000,102.496000,43.335000,103.130000C44.183000,103.796000,45.212000,104.014000,46.433000,103.863000C47.304000,103.757000,48.004000,103.485000,48.518000,103.002000C49.009000,102.534000,49.308000,101.951000,49.430000,101.242000C47.984000,101.374000,46.544000,101.568000,45.102000,101.746000C44.994000,100.875000,44.860000,100.015000,44.741000,99.145000C47.531000,98.762000,50.341000,98.494000,53.135000,98.196000C53.228000,99.067000,53.354000,99.926000,53.450000,100.797000C53.323000,102.124000,52.678000,103.402000,51.599000,104.622000C51.070000,105.236000,50.385000,105.736000,49.570000,106.168000C48.738000,106.608000,47.832000,106.871000,46.858000,106.988000C44.706000,107.277000,42.784000,106.868000,41.054000,105.672000Z" fill="rgb(247,244,255)" fill-rule="evenodd" stroke="none" stroke-width="1"/><path id="ec0N3KITw8g42" d="M55.745000,100.165000C55.397000,97.373000,55.099000,94.565000,54.789000,91.769000C56.058000,91.622000,57.330000,91.514000,58.609000,91.401000C58.869000,94.209000,59.173000,97.005000,59.493000,99.806000C59.597000,100.659000,59.899000,101.279000,60.379000,101.687000C60.885000,102.119000,61.564000,102.267000,62.431000,102.196000C63.293000,102.116000,63.942000,101.858000,64.372000,101.344000C64.779000,100.859000,64.957000,100.189000,64.893000,99.340000C64.668000,96.532000,64.369000,93.731000,64.109000,90.927000C65.378000,90.807000,66.659000,90.722000,67.930000,90.627000C68.131000,93.434000,68.436000,96.233000,68.641000,99.040000C68.732000,100.286000,68.506000,101.391000,67.969000,102.338000C67.414000,103.307000,66.656000,104.021000,65.760000,104.500000C64.827000,105.002000,63.813000,105.279000,62.694000,105.389000C60.941000,105.554000,59.413000,105.207000,58.071000,104.272000C56.787000,103.394000,55.984000,102.041000,55.745000,100.165000Z" fill="rgb(247,244,255)" fill-rule="evenodd" stroke="none" stroke-width="1"/><path id="ec0N3KITw8g43" d="M77.742000,94.116000C77.279000,95.828000,76.735000,97.533000,76.240000,99.242000C77.457000,99.189000,78.664000,99.132000,79.879000,99.044000C79.188000,97.393000,78.428000,95.768000,77.742000,94.116000M85.918000,103.781000C84.594000,103.837000,83.267000,103.859000,81.952000,103.946000C81.637000,103.165000,81.291000,102.399000,80.975000,101.617000C79.143000,101.729000,77.309000,101.814000,75.484000,101.923000C75.268000,102.737000,75.016000,103.536000,74.800000,104.350000C73.484000,104.426000,72.169000,104.533000,70.852000,104.617000C72.220000,99.772000,73.743000,94.958000,75.181000,90.111000C76.734000,90.027000,78.286000,89.945000,79.837000,89.851000C81.823000,94.521000,84.013000,99.096000,85.918000,103.781000Z" fill="rgb(247,244,255)" fill-rule="evenodd" stroke="none" stroke-width="1"/><path id="ec0N3KITw8g44" d="M93.440000,91.994000C92.660000,92.023000,91.870000,92.026000,91.081000,92.052000C91.126000,93.184000,91.160000,94.325000,91.189000,95.457000C91.970000,95.442000,92.750000,95.400000,93.531000,95.399000C94.098000,95.395000,94.552000,95.231000,94.882000,94.904000C95.195000,94.594000,95.361000,94.180000,95.351000,93.677000C95.341000,93.165000,95.145000,92.762000,94.812000,92.445000C94.462000,92.121000,93.999000,91.977000,93.440000,91.994000M91.704000,98.066000C91.568000,98.068000,91.423000,98.076000,91.278000,98.076000C91.337000,99.910000,91.387000,101.743000,91.455000,103.576000C90.221000,103.625000,88.977000,103.656000,87.743000,103.698000C87.583000,98.983000,87.373000,94.278000,87.162000,89.564000C89.231000,89.473000,91.301000,89.445000,93.370000,89.374000C95.184000,89.307000,96.607000,89.692000,97.649000,90.560000C98.637000,91.384000,99.193000,92.389000,99.209000,93.597000C99.222000,94.422000,98.945000,95.228000,98.425000,96.007000C97.883000,96.822000,96.987000,97.342000,95.788000,97.706000C97.023000,99.647000,98.396000,101.485000,99.643000,103.405000C98.200000,103.459000,96.746000,103.430000,95.304000,103.479000C94.155000,101.642000,92.877000,99.887000,91.704000,98.066000Z" fill="rgb(247,244,255)" fill-rule="evenodd" stroke="none" stroke-width="1"/><path id="ec0N3KITw8g45" d="M108.421000,93.347000C107.819000,95.027000,107.160000,96.686000,106.555000,98.373000C107.772000,98.400000,108.988000,98.402000,110.204000,98.394000C109.623000,96.704000,108.978000,95.040000,108.421000,93.347000M115.900000,103.471000C114.575000,103.456000,113.249000,103.412000,111.924000,103.407000C111.660000,102.611000,111.373000,101.816000,111.109000,101.019000C109.276000,101.011000,107.442000,101.004000,105.609000,100.995000C105.332000,101.794000,105.029000,102.573000,104.761000,103.372000C103.446000,103.366000,102.130000,103.398000,100.814000,103.394000C102.480000,98.629000,104.387000,93.940000,106.133000,89.180000C107.684000,89.194000,109.246000,89.195000,110.798000,89.207000C112.477000,93.975000,114.286000,98.697000,115.900000,103.471000Z" fill="rgb(247,244,255)" fill-rule="evenodd" stroke="none" stroke-width="1"/><path id="ec0N3KITw8g46" d="M128.373000,89.672000C129.653000,89.723000,130.924000,89.780000,132.204000,89.853000C131.920000,94.578000,131.582000,99.291000,131.342000,104.018000C130.107000,103.956000,128.873000,103.887000,127.629000,103.845000C125.767000,100.749000,123.707000,97.760000,121.759000,94.688000C121.708000,97.664000,121.512000,100.636000,121.428000,103.612000C120.194000,103.578000,118.950000,103.543000,117.716000,103.506000C117.855000,98.782000,118.027000,94.051000,118.124000,89.326000C119.404000,89.352000,120.684000,89.407000,121.955000,89.431000C123.918000,92.511000,126.010000,95.495000,127.897000,98.588000C128.001000,95.619000,128.249000,92.648000,128.373000,89.672000Z" fill="rgb(247,244,255)" fill-rule="evenodd" stroke="none" stroke-width="1"/><path id="ec0N3KITw8g47" d="M134.308000,92.636000C134.371000,91.766000,134.429000,90.895000,134.483000,90.024000C138.621000,90.263000,142.757000,90.484000,146.885000,90.870000C146.805000,91.741000,146.706000,92.610000,146.637000,93.482000C145.212000,93.367000,143.796000,93.263000,142.370000,93.158000C142.093000,96.991000,141.680000,100.812000,141.401000,104.653000C140.166000,104.564000,138.930000,104.495000,137.697000,104.403000C137.980000,100.566000,138.280000,96.738000,138.566000,92.901000C137.151000,92.789000,135.733000,92.733000,134.308000,92.636000Z" fill="rgb(247,244,255)" fill-rule="evenodd" stroke="none" stroke-width="1"/><path id="ec0N3KITw8g48" d="M158.660000,91.912000C158.556000,92.782000,158.436000,93.643000,158.350000,94.515000C156.471000,94.311000,154.590000,94.143000,152.711000,93.959000C152.618000,94.967000,152.489000,95.980000,152.383000,96.985000C154.023000,97.165000,155.682000,97.269000,157.322000,97.468000C157.217000,98.338000,157.106000,99.199000,157.011000,100.071000C155.377000,99.903000,153.743000,99.746000,152.099000,99.597000C151.999000,100.689000,151.860000,101.778000,151.745000,102.869000C153.584000,103.067000,155.434000,103.191000,157.265000,103.408000C157.159000,104.279000,157.042000,105.140000,156.954000,106.011000C153.895000,105.674000,150.821000,105.446000,147.766000,105.147000C148.227000,100.438000,148.773000,95.737000,149.163000,91.014000C152.332000,91.280000,155.506000,91.526000,158.660000,91.912000Z" fill="rgb(247,244,255)" fill-rule="evenodd" stroke="none" stroke-width="1"/><path id="ec0N3KITw8g49" d="M171.409000,93.390000C171.277000,94.253000,171.137000,95.121000,171.016000,95.985000C169.147000,95.735000,167.265000,95.515000,165.386000,95.294000C165.268000,96.302000,165.111000,97.306000,164.977000,98.312000C166.572000,98.536000,168.171000,98.723000,169.766000,98.965000C169.640000,99.828000,169.502000,100.699000,169.382000,101.563000C167.795000,101.341000,166.217000,101.119000,164.629000,100.916000C164.486000,101.999000,164.332000,103.088000,164.184000,104.171000C166.013000,104.414000,167.866000,104.581000,169.695000,104.853000C169.564000,105.716000,169.425000,106.585000,169.303000,107.449000C166.255000,107.028000,163.186000,106.736000,160.132000,106.356000C160.719000,101.653000,161.421000,96.973000,161.939000,92.264000C165.097000,92.612000,168.265000,92.930000,171.409000,93.390000Z" fill="rgb(247,244,255)" fill-rule="evenodd" stroke="none" stroke-width="1"/></g></g></g></svg>