<svg width="790" height="740" viewBox="0 0 790 740" fill="none" xmlns="http://www.w3.org/2000/svg">
<path d="M651.711 164.282L720.318 361.653C735.33 405.048 726.224 453.569 696.409 489.056L560.492 650.344C530.73 685.547 484.685 702.634 439.858 694.725L235.334 658.643C190.507 650.734 153.621 619.016 138.276 575.855L69.7217 378.201C54.71 334.806 63.8158 286.285 93.6313 250.798L229.548 89.5105C259.363 54.0237 305.355 37.2205 350.462 45.1784L554.986 81.2609C599.813 89.1694 636.699 120.887 651.711 164.282Z" fill="url(#paint0_linear)"/>
<path d="M624.355 226.063L669.423 379.749C679.274 413.535 669.538 449.762 643.86 474.87L526.826 588.962C501.205 613.858 463.444 624.05 427.915 615.372L265.814 575.777C230.285 567.099 202.317 540.853 192.187 507.224L147.176 353.326C137.326 319.54 147.062 283.313 172.74 258.205L289.773 144.113C315.452 119.005 353.156 109.025 388.907 117.758L551.008 157.352C586.537 166.03 614.505 192.277 624.355 226.063Z" fill="url(#paint1_linear)"/>
<defs>
<linearGradient id="paint0_linear" x1="103.559" y1="53.0456" x2="497.603" y2="472.127" gradientUnits="userSpaceOnUse">
<stop stop-color="#5600E3"/>
<stop offset="1" stop-color="white" stop-opacity="0"/>
</linearGradient>
<linearGradient id="paint1_linear" x1="190.633" y1="108.933" x2="465.055" y2="465.764" gradientUnits="userSpaceOnUse">
<stop stop-color="#2DFFB3"/>
<stop offset="1" stop-color="white" stop-opacity="0"/>
</linearGradient>
</defs>
</svg>
