<svg cache-id="0f545dbc21224fd08a96411ad3759f0d" id="etqL43NQACM1" xmlns="http://www.w3.org/2000/svg" xmlns:xlink="http://www.w3.org/1999/xlink" viewBox="0 0 720 720" shape-rendering="geometricPrecision" text-rendering="geometricPrecision"><style><![CDATA[#etqL43NQACM2_tr {animation: etqL43NQACM2_tr__tr 20000ms linear infinite normal forwards}@keyframes etqL43NQACM2_tr__tr { 0% {transform: translate(329.263422px,317.332848px) rotate(0deg)} 50% {transform: translate(329.263422px,317.332848px) rotate(22.239620deg)} 100% {transform: translate(329.263422px,317.332848px) rotate(0deg)}} #etqL43NQACM4_to {animation: etqL43NQACM4_to__to 20000ms linear infinite normal forwards}@keyframes etqL43NQACM4_to__to { 0% {transform: translate(574.953278px,133.816107px)} 50% {transform: translate(475.896236px,133.816107px)} 100% {transform: translate(574.953278px,133.816107px)}} #etqL43NQACM82_to {animation: etqL43NQACM82_to__to 20000ms linear infinite normal forwards}@keyframes etqL43NQACM82_to__to { 0% {transform: translate(151.841993px,580.970495px)} 50% {transform: translate(272.967680px,580.970495px)} 100% {transform: translate(151.841993px,580.970495px)}}]]></style><defs><linearGradient id="etqL43NQACM3-fill" x1="0.809700" y1="0.891500" x2="0.276300" y2="0.025600" spreadMethod="pad" gradientUnits="objectBoundingBox"><stop id="etqL43NQACM3-fill-0" offset="2.750000%" stop-color="rgba(255,255,255,0)"/><stop id="etqL43NQACM3-fill-1" offset="100%" stop-color="rgb(159,109,240)"/></linearGradient></defs><g id="etqL43NQACM2_tr" transform="translate(329.263422,317.332848) rotate(0)"><g id="etqL43NQACM2" transform="scale(1.011831,1.011831) translate(-341.207497,-320.171921)"><path id="etqL43NQACM3" d="M567.200000,129.483000C592.950000,188.394000,618.706000,247.307000,644.468000,306.224000C661.389000,345.084000,656.082000,389.052000,630.534000,421.669000C591.697000,471.083000,552.867000,520.501000,514.041000,569.925000C488.525000,602.285000,446.572000,618.621000,404.105000,612.378000C339.514000,602.877000,274.928000,593.381000,210.343000,583.892000C167.875000,577.648000,131.260000,549.760000,114.043000,511.118000C88.297000,452.114000,61.773000,393.448000,36.806000,334.118000C20.536000,295.367000,27.923000,252.224000,53.428000,220.017000C92.400000,170.957000,128.892000,119.973000,167.233000,70.419000C192.535000,37.610000,234.702000,21.721000,277.435000,28.004000C342.019000,37.499000,406.606000,46.994000,471.197000,56.490000C513.666000,62.734000,550.279000,90.622000,567.200000,129.483000Z" transform="matrix(1 0 0 1 0 8.42473663316849)" fill="url(#etqL43NQACM3-fill)" fill-rule="evenodd" stroke="none" stroke-width="1"/></g></g><g id="etqL43NQACM4_to" transform="translate(574.953278,133.816107)"><g id="etqL43NQACM4" transform="scale(0.944847,0.944847) translate(-1123.662506,-151.540501)"><path id="etqL43NQACM5" d="M990.347000,34.375000C992.841000,34.375000,994.862000,32.355000,994.862000,29.864000C994.862000,27.372000,992.841000,25.353000,990.347000,25.353000C987.854000,25.353000,985.832000,27.372000,985.832000,29.864000C985.832000,32.355000,987.854000,34.375000,990.347000,34.375000Z" fill="rgb(86,0,227)" fill-opacity="0.701961" fill-rule="evenodd" stroke="none" stroke-width="1"/><path id="etqL43NQACM6" d="M990.347000,58.685000C992.841000,58.685000,994.862000,56.665000,994.862000,54.174000C994.862000,51.683000,992.841000,49.663000,990.347000,49.663000C987.854000,49.663000,985.832000,51.683000,985.832000,54.174000C985.832000,56.665000,987.854000,58.685000,990.347000,58.685000Z" fill="rgb(86,0,227)" fill-opacity="0.701961" fill-rule="evenodd" stroke="none" stroke-width="1"/><path id="etqL43NQACM7" d="M990.347000,82.996000C992.841000,82.996000,994.862000,80.976000,994.862000,78.484000C994.862000,75.993000,992.841000,73.973000,990.347000,73.973000C987.854000,73.973000,985.832000,75.993000,985.832000,78.484000C985.832000,80.976000,987.854000,82.996000,990.347000,82.996000Z" fill="rgb(86,0,227)" fill-opacity="0.701961" fill-rule="evenodd" stroke="none" stroke-width="1"/><path id="etqL43NQACM8" d="M990.347000,107.306000C992.841000,107.306000,994.862000,105.286000,994.862000,102.795000C994.862000,100.303000,992.841000,98.283000,990.347000,98.283000C987.854000,98.283000,985.832000,100.303000,985.832000,102.795000C985.832000,105.286000,987.854000,107.306000,990.347000,107.306000Z" fill="rgb(86,0,227)" fill-opacity="0.701961" fill-rule="evenodd" stroke="none" stroke-width="1"/><path id="etqL43NQACM9" d="M990.347000,131.616000C992.841000,131.616000,994.862000,129.596000,994.862000,127.105000C994.862000,124.613000,992.841000,122.594000,990.347000,122.594000C987.854000,122.594000,985.832000,124.613000,985.832000,127.105000C985.832000,129.596000,987.854000,131.616000,990.347000,131.616000Z" fill="rgb(86,0,227)" fill-opacity="0.701961" fill-rule="evenodd" stroke="none" stroke-width="1"/><path id="etqL43NQACM10" d="M990.347000,155.926000C992.841000,155.926000,994.862000,153.907000,994.862000,151.415000C994.862000,148.924000,992.841000,146.904000,990.347000,146.904000C987.854000,146.904000,985.832000,148.924000,985.832000,151.415000C985.832000,153.907000,987.854000,155.926000,990.347000,155.926000Z" fill="rgb(86,0,227)" fill-opacity="0.701961" fill-rule="evenodd" stroke="none" stroke-width="1"/><path id="etqL43NQACM11" d="M990.347000,180.237000C992.841000,180.237000,994.862000,178.217000,994.862000,175.726000C994.862000,173.234000,992.841000,171.214000,990.347000,171.214000C987.854000,171.214000,985.832000,173.234000,985.832000,175.726000C985.832000,178.217000,987.854000,180.237000,990.347000,180.237000Z" fill="rgb(86,0,227)" fill-opacity="0.701961" fill-rule="evenodd" stroke="none" stroke-width="1"/><path id="etqL43NQACM12" d="M990.347000,204.797000C992.841000,204.797000,994.862000,202.778000,994.862000,200.286000C994.862000,197.795000,992.841000,195.775000,990.347000,195.775000C987.854000,195.775000,985.832000,197.795000,985.832000,200.286000C985.832000,202.778000,987.854000,204.797000,990.347000,204.797000Z" fill="rgb(86,0,227)" fill-opacity="0.701961" fill-rule="evenodd" stroke="none" stroke-width="1"/><path id="etqL43NQACM13" d="M990.347000,229.107000C992.841000,229.107000,994.862000,227.088000,994.862000,224.596000C994.862000,222.105000,992.841000,220.085000,990.347000,220.085000C987.854000,220.085000,985.832000,222.105000,985.832000,224.596000C985.832000,227.088000,987.854000,229.107000,990.347000,229.107000Z" fill="rgb(86,0,227)" fill-opacity="0.701961" fill-rule="evenodd" stroke="none" stroke-width="1"/><path id="etqL43NQACM14" d="M990.347000,253.419000C992.841000,253.419000,994.862000,251.398000,994.862000,248.907000C994.862000,246.415000,992.841000,244.395000,990.347000,244.395000C987.854000,244.395000,985.832000,246.415000,985.832000,248.907000C985.832000,251.398000,987.854000,253.419000,990.347000,253.419000Z" fill="rgb(86,0,227)" fill-opacity="0.701961" fill-rule="evenodd" stroke="none" stroke-width="1"/><path id="etqL43NQACM15" d="M990.347000,277.728000C992.841000,277.728000,994.862000,275.709000,994.862000,273.216000C994.862000,270.726000,992.841000,268.707000,990.347000,268.707000C987.854000,268.707000,985.832000,270.726000,985.832000,273.216000C985.832000,275.709000,987.854000,277.728000,990.347000,277.728000Z" fill="rgb(86,0,227)" fill-opacity="0.701961" fill-rule="evenodd" stroke="none" stroke-width="1"/><path id="etqL43NQACM16" d="M1212.579000,34.375000C1215.074000,34.375000,1217.095000,32.355000,1217.095000,29.864000C1217.095000,27.372000,1215.074000,25.353000,1212.579000,25.353000C1210.087000,25.353000,1208.066000,27.372000,1208.066000,29.864000C1208.066000,32.355000,1210.087000,34.375000,1212.579000,34.375000Z" fill="rgb(86,0,227)" fill-opacity="0.701961" fill-rule="evenodd" stroke="none" stroke-width="1"/><path id="etqL43NQACM17" d="M1212.579000,58.685000C1215.074000,58.685000,1217.095000,56.665000,1217.095000,54.174000C1217.095000,51.683000,1215.074000,49.663000,1212.579000,49.663000C1210.087000,49.663000,1208.066000,51.683000,1208.066000,54.174000C1208.066000,56.665000,1210.087000,58.685000,1212.579000,58.685000Z" fill="rgb(86,0,227)" fill-opacity="0.701961" fill-rule="evenodd" stroke="none" stroke-width="1"/><path id="etqL43NQACM18" d="M1212.579000,82.996000C1215.074000,82.996000,1217.095000,80.976000,1217.095000,78.484000C1217.095000,75.993000,1215.074000,73.973000,1212.579000,73.973000C1210.087000,73.973000,1208.066000,75.993000,1208.066000,78.484000C1208.066000,80.976000,1210.087000,82.996000,1212.579000,82.996000Z" fill="rgb(86,0,227)" fill-opacity="0.701961" fill-rule="evenodd" stroke="none" stroke-width="1"/><path id="etqL43NQACM19" d="M1212.579000,107.306000C1215.074000,107.306000,1217.095000,105.286000,1217.095000,102.795000C1217.095000,100.303000,1215.074000,98.283000,1212.579000,98.283000C1210.087000,98.283000,1208.066000,100.303000,1208.066000,102.795000C1208.066000,105.286000,1210.087000,107.306000,1212.579000,107.306000Z" fill="rgb(86,0,227)" fill-opacity="0.701961" fill-rule="evenodd" stroke="none" stroke-width="1"/><path id="etqL43NQACM20" d="M1212.579000,131.616000C1215.074000,131.616000,1217.095000,129.596000,1217.095000,127.105000C1217.095000,124.613000,1215.074000,122.594000,1212.579000,122.594000C1210.087000,122.594000,1208.066000,124.613000,1208.066000,127.105000C1208.066000,129.596000,1210.087000,131.616000,1212.579000,131.616000Z" fill="rgb(86,0,227)" fill-opacity="0.701961" fill-rule="evenodd" stroke="none" stroke-width="1"/><path id="etqL43NQACM21" d="M1212.579000,155.926000C1215.074000,155.926000,1217.095000,153.907000,1217.095000,151.415000C1217.095000,148.924000,1215.074000,146.904000,1212.579000,146.904000C1210.087000,146.904000,1208.066000,148.924000,1208.066000,151.415000C1208.066000,153.907000,1210.087000,155.926000,1212.579000,155.926000Z" fill="rgb(86,0,227)" fill-opacity="0.701961" fill-rule="evenodd" stroke="none" stroke-width="1"/><path id="etqL43NQACM22" d="M1212.579000,180.237000C1215.074000,180.237000,1217.095000,178.217000,1217.095000,175.726000C1217.095000,173.234000,1215.074000,171.214000,1212.579000,171.214000C1210.087000,171.214000,1208.066000,173.234000,1208.066000,175.726000C1208.066000,178.217000,1210.087000,180.237000,1212.579000,180.237000Z" fill="rgb(86,0,227)" fill-opacity="0.701961" fill-rule="evenodd" stroke="none" stroke-width="1"/><path id="etqL43NQACM23" d="M1212.579000,204.797000C1215.074000,204.797000,1217.095000,202.778000,1217.095000,200.286000C1217.095000,197.795000,1215.074000,195.775000,1212.579000,195.775000C1210.087000,195.775000,1208.066000,197.795000,1208.066000,200.286000C1208.066000,202.778000,1210.087000,204.797000,1212.579000,204.797000Z" fill="rgb(86,0,227)" fill-opacity="0.701961" fill-rule="evenodd" stroke="none" stroke-width="1"/><path id="etqL43NQACM24" d="M1212.579000,229.107000C1215.074000,229.107000,1217.095000,227.088000,1217.095000,224.596000C1217.095000,222.105000,1215.074000,220.085000,1212.579000,220.085000C1210.087000,220.085000,1208.066000,222.105000,1208.066000,224.596000C1208.066000,227.088000,1210.087000,229.107000,1212.579000,229.107000Z" fill="rgb(86,0,227)" fill-opacity="0.701961" fill-rule="evenodd" stroke="none" stroke-width="1"/><path id="etqL43NQACM25" d="M1212.579000,253.419000C1215.074000,253.419000,1217.095000,251.397000,1217.095000,248.907000C1217.095000,246.415000,1215.074000,244.395000,1212.579000,244.395000C1210.087000,244.395000,1208.066000,246.415000,1208.066000,248.907000C1208.066000,251.398000,1210.087000,253.419000,1212.579000,253.419000Z" fill="rgb(86,0,227)" fill-opacity="0.701961" fill-rule="evenodd" stroke="none" stroke-width="1"/><path id="etqL43NQACM26" d="M1212.579000,277.728000C1215.074000,277.728000,1217.095000,275.709000,1217.095000,273.216000C1217.095000,270.726000,1215.074000,268.707000,1212.579000,268.707000C1210.087000,268.707000,1208.066000,270.726000,1208.066000,273.216000C1208.066000,275.709000,1210.087000,277.728000,1212.579000,277.728000Z" fill="rgb(86,0,227)" fill-opacity="0.701961" fill-rule="evenodd" stroke="none" stroke-width="1"/><path id="etqL43NQACM27" d="M1168.184000,34.375000C1170.677000,34.375000,1172.699000,32.355000,1172.699000,29.864000C1172.699000,27.372000,1170.677000,25.353000,1168.184000,25.353000C1165.690000,25.353000,1163.669000,27.372000,1163.669000,29.864000C1163.669000,32.355000,1165.690000,34.375000,1168.184000,34.375000Z" fill="rgb(86,0,227)" fill-opacity="0.701961" fill-rule="evenodd" stroke="none" stroke-width="1"/><path id="etqL43NQACM28" d="M1168.184000,58.685000C1170.677000,58.685000,1172.699000,56.665000,1172.699000,54.174000C1172.699000,51.683000,1170.677000,49.663000,1168.184000,49.663000C1165.690000,49.663000,1163.669000,51.683000,1163.669000,54.174000C1163.669000,56.665000,1165.690000,58.685000,1168.184000,58.685000Z" fill="rgb(86,0,227)" fill-opacity="0.701961" fill-rule="evenodd" stroke="none" stroke-width="1"/><path id="etqL43NQACM29" d="M1168.184000,82.996000C1170.677000,82.996000,1172.699000,80.976000,1172.699000,78.484000C1172.699000,75.993000,1170.677000,73.973000,1168.184000,73.973000C1165.690000,73.973000,1163.669000,75.993000,1163.669000,78.484000C1163.669000,80.976000,1165.690000,82.996000,1168.184000,82.996000Z" fill="rgb(86,0,227)" fill-opacity="0.701961" fill-rule="evenodd" stroke="none" stroke-width="1"/><path id="etqL43NQACM30" d="M1168.184000,107.306000C1170.677000,107.306000,1172.699000,105.286000,1172.699000,102.795000C1172.699000,100.303000,1170.677000,98.283000,1168.184000,98.283000C1165.690000,98.283000,1163.669000,100.303000,1163.669000,102.795000C1163.669000,105.286000,1165.690000,107.306000,1168.184000,107.306000Z" fill="rgb(86,0,227)" fill-opacity="0.701961" fill-rule="evenodd" stroke="none" stroke-width="1"/><path id="etqL43NQACM31" d="M1168.184000,131.616000C1170.677000,131.616000,1172.699000,129.596000,1172.699000,127.105000C1172.699000,124.613000,1170.677000,122.594000,1168.184000,122.594000C1165.690000,122.594000,1163.669000,124.613000,1163.669000,127.105000C1163.669000,129.596000,1165.690000,131.616000,1168.184000,131.616000Z" fill="rgb(86,0,227)" fill-opacity="0.701961" fill-rule="evenodd" stroke="none" stroke-width="1"/><path id="etqL43NQACM32" d="M1168.184000,155.926000C1170.677000,155.926000,1172.699000,153.907000,1172.699000,151.415000C1172.699000,148.924000,1170.677000,146.904000,1168.184000,146.904000C1165.690000,146.904000,1163.669000,148.924000,1163.669000,151.415000C1163.669000,153.907000,1165.690000,155.926000,1168.184000,155.926000Z" fill="rgb(86,0,227)" fill-opacity="0.701961" fill-rule="evenodd" stroke="none" stroke-width="1"/><path id="etqL43NQACM33" d="M1168.184000,180.237000C1170.677000,180.237000,1172.699000,178.217000,1172.699000,175.726000C1172.699000,173.234000,1170.677000,171.214000,1168.184000,171.214000C1165.690000,171.214000,1163.669000,173.234000,1163.669000,175.726000C1163.669000,178.217000,1165.690000,180.237000,1168.184000,180.237000Z" fill="rgb(86,0,227)" fill-opacity="0.701961" fill-rule="evenodd" stroke="none" stroke-width="1"/><path id="etqL43NQACM34" d="M1168.184000,204.797000C1170.677000,204.797000,1172.699000,202.778000,1172.699000,200.286000C1172.699000,197.795000,1170.677000,195.775000,1168.184000,195.775000C1165.690000,195.775000,1163.669000,197.795000,1163.669000,200.286000C1163.669000,202.778000,1165.690000,204.797000,1168.184000,204.797000Z" fill="rgb(86,0,227)" fill-opacity="0.701961" fill-rule="evenodd" stroke="none" stroke-width="1"/><path id="etqL43NQACM35" d="M1168.184000,229.107000C1170.677000,229.107000,1172.699000,227.088000,1172.699000,224.596000C1172.699000,222.105000,1170.677000,220.085000,1168.184000,220.085000C1165.690000,220.085000,1163.669000,222.105000,1163.669000,224.596000C1163.669000,227.088000,1165.690000,229.107000,1168.184000,229.107000Z" fill="rgb(86,0,227)" fill-opacity="0.701961" fill-rule="evenodd" stroke="none" stroke-width="1"/><path id="etqL43NQACM36" d="M1168.184000,253.419000C1170.677000,253.419000,1172.699000,251.398000,1172.699000,248.907000C1172.699000,246.415000,1170.677000,244.395000,1168.184000,244.395000C1165.690000,244.395000,1163.669000,246.415000,1163.669000,248.907000C1163.669000,251.398000,1165.690000,253.419000,1168.184000,253.419000Z" fill="rgb(86,0,227)" fill-opacity="0.701961" fill-rule="evenodd" stroke="none" stroke-width="1"/><path id="etqL43NQACM37" d="M1168.184000,277.728000C1170.677000,277.728000,1172.699000,275.709000,1172.699000,273.216000C1172.699000,270.726000,1170.677000,268.707000,1168.184000,268.707000C1165.690000,268.707000,1163.669000,270.726000,1163.669000,273.216000C1163.669000,275.709000,1165.690000,277.728000,1168.184000,277.728000Z" fill="rgb(86,0,227)" fill-opacity="0.701961" fill-rule="evenodd" stroke="none" stroke-width="1"/><path id="etqL43NQACM38" d="M1256.977000,34.375000C1259.471000,34.375000,1261.493000,32.355000,1261.493000,29.864000C1261.493000,27.372000,1259.471000,25.353000,1256.977000,25.353000C1254.484000,25.353000,1252.463000,27.372000,1252.463000,29.864000C1252.463000,32.355000,1254.484000,34.375000,1256.977000,34.375000Z" fill="rgb(86,0,227)" fill-opacity="0.701961" fill-rule="evenodd" stroke="none" stroke-width="1"/><path id="etqL43NQACM39" d="M1256.977000,58.685000C1259.471000,58.685000,1261.493000,56.665000,1261.493000,54.174000C1261.493000,51.683000,1259.471000,49.663000,1256.977000,49.663000C1254.484000,49.663000,1252.463000,51.683000,1252.463000,54.174000C1252.463000,56.665000,1254.484000,58.685000,1256.977000,58.685000Z" fill="rgb(86,0,227)" fill-opacity="0.701961" fill-rule="evenodd" stroke="none" stroke-width="1"/><path id="etqL43NQACM40" d="M1256.977000,82.996000C1259.471000,82.996000,1261.493000,80.976000,1261.493000,78.484000C1261.493000,75.993000,1259.471000,73.973000,1256.977000,73.973000C1254.484000,73.973000,1252.463000,75.993000,1252.463000,78.484000C1252.463000,80.976000,1254.484000,82.996000,1256.977000,82.996000Z" fill="rgb(86,0,227)" fill-opacity="0.701961" fill-rule="evenodd" stroke="none" stroke-width="1"/><path id="etqL43NQACM41" d="M1256.977000,107.306000C1259.471000,107.306000,1261.493000,105.286000,1261.493000,102.795000C1261.493000,100.303000,1259.471000,98.283000,1256.977000,98.283000C1254.484000,98.283000,1252.463000,100.303000,1252.463000,102.795000C1252.463000,105.286000,1254.484000,107.306000,1256.977000,107.306000Z" fill="rgb(86,0,227)" fill-opacity="0.701961" fill-rule="evenodd" stroke="none" stroke-width="1"/><path id="etqL43NQACM42" d="M1256.977000,131.616000C1259.471000,131.616000,1261.493000,129.596000,1261.493000,127.105000C1261.493000,124.613000,1259.471000,122.594000,1256.977000,122.594000C1254.484000,122.594000,1252.463000,124.613000,1252.463000,127.105000C1252.463000,129.596000,1254.484000,131.616000,1256.977000,131.616000Z" fill="rgb(86,0,227)" fill-opacity="0.701961" fill-rule="evenodd" stroke="none" stroke-width="1"/><path id="etqL43NQACM43" d="M1256.977000,155.926000C1259.471000,155.926000,1261.493000,153.907000,1261.493000,151.415000C1261.493000,148.924000,1259.471000,146.904000,1256.977000,146.904000C1254.484000,146.904000,1252.463000,148.924000,1252.463000,151.415000C1252.463000,153.907000,1254.484000,155.926000,1256.977000,155.926000Z" fill="rgb(86,0,227)" fill-opacity="0.701961" fill-rule="evenodd" stroke="none" stroke-width="1"/><path id="etqL43NQACM44" d="M1256.977000,180.237000C1259.471000,180.237000,1261.493000,178.217000,1261.493000,175.726000C1261.493000,173.234000,1259.471000,171.214000,1256.977000,171.214000C1254.484000,171.214000,1252.463000,173.234000,1252.463000,175.726000C1252.463000,178.217000,1254.484000,180.237000,1256.977000,180.237000Z" fill="rgb(86,0,227)" fill-opacity="0.701961" fill-rule="evenodd" stroke="none" stroke-width="1"/><path id="etqL43NQACM45" d="M1256.977000,204.797000C1259.471000,204.797000,1261.493000,202.778000,1261.493000,200.286000C1261.493000,197.795000,1259.471000,195.775000,1256.977000,195.775000C1254.484000,195.775000,1252.463000,197.795000,1252.463000,200.286000C1252.463000,202.778000,1254.484000,204.797000,1256.977000,204.797000Z" fill="rgb(86,0,227)" fill-opacity="0.701961" fill-rule="evenodd" stroke="none" stroke-width="1"/><path id="etqL43NQACM46" d="M1256.977000,229.107000C1259.471000,229.107000,1261.493000,227.088000,1261.493000,224.596000C1261.493000,222.105000,1259.471000,220.085000,1256.977000,220.085000C1254.484000,220.085000,1252.463000,222.105000,1252.463000,224.596000C1252.463000,227.088000,1254.484000,229.107000,1256.977000,229.107000Z" fill="rgb(86,0,227)" fill-opacity="0.701961" fill-rule="evenodd" stroke="none" stroke-width="1"/><path id="etqL43NQACM47" d="M1256.977000,253.419000C1259.471000,253.419000,1261.493000,251.398000,1261.493000,248.907000C1261.492000,246.415000,1259.471000,244.395000,1256.977000,244.395000C1254.484000,244.395000,1252.463000,246.415000,1252.463000,248.907000C1252.463000,251.398000,1254.484000,253.419000,1256.977000,253.419000Z" fill="rgb(86,0,227)" fill-opacity="0.701961" fill-rule="evenodd" stroke="none" stroke-width="1"/><path id="etqL43NQACM48" d="M1256.977000,277.728000C1259.471000,277.728000,1261.493000,275.709000,1261.493000,273.216000C1261.492000,270.726000,1259.471000,268.707000,1256.977000,268.707000C1254.484000,268.707000,1252.463000,270.726000,1252.463000,273.216000C1252.463000,275.709000,1254.484000,277.728000,1256.977000,277.728000Z" fill="rgb(86,0,227)" fill-opacity="0.701961" fill-rule="evenodd" stroke="none" stroke-width="1"/><path id="etqL43NQACM49" d="M1123.537000,34.375000C1126.030000,34.375000,1128.052000,32.355000,1128.052000,29.864000C1128.052000,27.372000,1126.030000,25.353000,1123.537000,25.353000C1121.043000,25.352000,1119.022000,27.372000,1119.022000,29.864000C1119.022000,32.355000,1121.043000,34.375000,1123.537000,34.375000Z" fill="rgb(86,0,227)" fill-opacity="0.701961" fill-rule="evenodd" stroke="none" stroke-width="1"/><path id="etqL43NQACM50" d="M1123.537000,58.685000C1126.030000,58.685000,1128.052000,56.665000,1128.052000,54.174000C1128.052000,51.683000,1126.030000,49.663000,1123.537000,49.663000C1121.043000,49.663000,1119.022000,51.683000,1119.022000,54.174000C1119.022000,56.665000,1121.043000,58.685000,1123.537000,58.685000Z" fill="rgb(86,0,227)" fill-opacity="0.701961" fill-rule="evenodd" stroke="none" stroke-width="1"/><path id="etqL43NQACM51" d="M1123.537000,82.996000C1126.030000,82.995000,1128.052000,80.976000,1128.052000,78.484000C1128.052000,75.993000,1126.030000,73.973000,1123.537000,73.973000C1121.043000,73.973000,1119.022000,75.993000,1119.022000,78.484000C1119.022000,80.976000,1121.043000,82.996000,1123.537000,82.996000Z" fill="rgb(86,0,227)" fill-opacity="0.701961" fill-rule="evenodd" stroke="none" stroke-width="1"/><path id="etqL43NQACM52" d="M1123.537000,107.306000C1126.030000,107.306000,1128.052000,105.286000,1128.052000,102.795000C1128.052000,100.303000,1126.030000,98.283000,1123.537000,98.283000C1121.043000,98.283000,1119.022000,100.303000,1119.022000,102.795000C1119.022000,105.286000,1121.043000,107.306000,1123.537000,107.306000Z" fill="rgb(86,0,227)" fill-opacity="0.701961" fill-rule="evenodd" stroke="none" stroke-width="1"/><path id="etqL43NQACM53" d="M1123.537000,131.616000C1126.030000,131.616000,1128.052000,129.596000,1128.052000,127.105000C1128.052000,124.613000,1126.030000,122.594000,1123.537000,122.594000C1121.043000,122.594000,1119.022000,124.613000,1119.022000,127.105000C1119.022000,129.596000,1121.043000,131.616000,1123.537000,131.616000Z" fill="rgb(86,0,227)" fill-opacity="0.701961" fill-rule="evenodd" stroke="none" stroke-width="1"/><path id="etqL43NQACM54" d="M1123.537000,155.926000C1126.030000,155.926000,1128.052000,153.907000,1128.052000,151.415000C1128.052000,148.924000,1126.030000,146.904000,1123.537000,146.904000C1121.043000,146.904000,1119.022000,148.924000,1119.022000,151.415000C1119.022000,153.907000,1121.043000,155.926000,1123.537000,155.926000Z" fill="rgb(86,0,227)" fill-opacity="0.701961" fill-rule="evenodd" stroke="none" stroke-width="1"/><path id="etqL43NQACM55" d="M1123.537000,180.237000C1126.030000,180.237000,1128.052000,178.217000,1128.052000,175.726000C1128.052000,173.234000,1126.030000,171.214000,1123.537000,171.214000C1121.043000,171.214000,1119.022000,173.234000,1119.022000,175.726000C1119.022000,178.217000,1121.043000,180.237000,1123.537000,180.237000Z" fill="rgb(86,0,227)" fill-opacity="0.701961" fill-rule="evenodd" stroke="none" stroke-width="1"/><path id="etqL43NQACM56" d="M1123.537000,204.797000C1126.030000,204.797000,1128.052000,202.778000,1128.052000,200.286000C1128.052000,197.795000,1126.030000,195.775000,1123.537000,195.775000C1121.043000,195.775000,1119.022000,197.795000,1119.022000,200.286000C1119.022000,202.778000,1121.043000,204.797000,1123.537000,204.797000Z" fill="rgb(86,0,227)" fill-opacity="0.701961" fill-rule="evenodd" stroke="none" stroke-width="1"/><path id="etqL43NQACM57" d="M1123.537000,229.107000C1126.030000,229.107000,1128.052000,227.088000,1128.052000,224.596000C1128.052000,222.105000,1126.030000,220.085000,1123.537000,220.085000C1121.043000,220.085000,1119.022000,222.105000,1119.022000,224.596000C1119.022000,227.088000,1121.043000,229.107000,1123.537000,229.107000Z" fill="rgb(86,0,227)" fill-opacity="0.701961" fill-rule="evenodd" stroke="none" stroke-width="1"/><path id="etqL43NQACM58" d="M1123.537000,253.419000C1126.030000,253.419000,1128.052000,251.398000,1128.052000,248.907000C1128.052000,246.415000,1126.030000,244.395000,1123.537000,244.395000C1121.043000,244.395000,1119.022000,246.415000,1119.022000,248.907000C1119.022000,251.398000,1121.043000,253.419000,1123.537000,253.419000Z" fill="rgb(86,0,227)" fill-opacity="0.701961" fill-rule="evenodd" stroke="none" stroke-width="1"/><path id="etqL43NQACM59" d="M1123.537000,277.728000C1126.030000,277.728000,1128.052000,275.709000,1128.052000,273.216000C1128.052000,270.726000,1126.030000,268.707000,1123.537000,268.707000C1121.043000,268.707000,1119.022000,270.726000,1119.022000,273.216000C1119.022000,275.709000,1121.043000,277.728000,1123.537000,277.728000Z" fill="rgb(86,0,227)" fill-opacity="0.701961" fill-rule="evenodd" stroke="none" stroke-width="1"/><path id="etqL43NQACM60" d="M1079.140000,34.375000C1081.633000,34.375000,1083.654000,32.355000,1083.654000,29.864000C1083.654000,27.372000,1081.633000,25.353000,1079.140000,25.353000C1076.646000,25.353000,1074.625000,27.372000,1074.625000,29.864000C1074.625000,32.355000,1076.646000,34.375000,1079.140000,34.375000Z" fill="rgb(86,0,227)" fill-opacity="0.701961" fill-rule="evenodd" stroke="none" stroke-width="1"/><path id="etqL43NQACM61" d="M1079.140000,58.685000C1081.633000,58.685000,1083.654000,56.665000,1083.654000,54.174000C1083.654000,51.683000,1081.633000,49.663000,1079.140000,49.663000C1076.646000,49.663000,1074.625000,51.683000,1074.625000,54.174000C1074.625000,56.665000,1076.646000,58.685000,1079.140000,58.685000Z" fill="rgb(86,0,227)" fill-opacity="0.701961" fill-rule="evenodd" stroke="none" stroke-width="1"/><path id="etqL43NQACM62" d="M1079.140000,82.996000C1081.633000,82.996000,1083.654000,80.976000,1083.654000,78.484000C1083.654000,75.993000,1081.633000,73.973000,1079.140000,73.973000C1076.646000,73.973000,1074.625000,75.993000,1074.625000,78.484000C1074.625000,80.976000,1076.646000,82.996000,1079.140000,82.996000Z" fill="rgb(86,0,227)" fill-opacity="0.701961" fill-rule="evenodd" stroke="none" stroke-width="1"/><path id="etqL43NQACM63" d="M1079.140000,107.306000C1081.633000,107.306000,1083.654000,105.286000,1083.654000,102.795000C1083.654000,100.303000,1081.633000,98.283000,1079.140000,98.283000C1076.646000,98.283000,1074.625000,100.303000,1074.625000,102.795000C1074.625000,105.286000,1076.646000,107.306000,1079.140000,107.306000Z" fill="rgb(86,0,227)" fill-opacity="0.701961" fill-rule="evenodd" stroke="none" stroke-width="1"/><path id="etqL43NQACM64" d="M1079.140000,131.616000C1081.633000,131.616000,1083.654000,129.596000,1083.654000,127.105000C1083.654000,124.613000,1081.633000,122.594000,1079.140000,122.594000C1076.646000,122.594000,1074.625000,124.613000,1074.625000,127.105000C1074.625000,129.596000,1076.646000,131.616000,1079.140000,131.616000Z" fill="rgb(86,0,227)" fill-opacity="0.701961" fill-rule="evenodd" stroke="none" stroke-width="1"/><path id="etqL43NQACM65" d="M1079.140000,155.926000C1081.633000,155.926000,1083.654000,153.907000,1083.654000,151.415000C1083.654000,148.924000,1081.633000,146.904000,1079.140000,146.904000C1076.646000,146.904000,1074.625000,148.924000,1074.625000,151.415000C1074.625000,153.907000,1076.646000,155.926000,1079.140000,155.926000Z" fill="rgb(86,0,227)" fill-opacity="0.701961" fill-rule="evenodd" stroke="none" stroke-width="1"/><path id="etqL43NQACM66" d="M1079.140000,180.237000C1081.633000,180.237000,1083.654000,178.217000,1083.654000,175.726000C1083.654000,173.234000,1081.633000,171.214000,1079.140000,171.214000C1076.646000,171.214000,1074.625000,173.234000,1074.625000,175.726000C1074.625000,178.217000,1076.646000,180.237000,1079.140000,180.237000Z" fill="rgb(86,0,227)" fill-opacity="0.701961" fill-rule="evenodd" stroke="none" stroke-width="1"/><path id="etqL43NQACM67" d="M1079.140000,204.797000C1081.633000,204.797000,1083.654000,202.778000,1083.654000,200.286000C1083.654000,197.795000,1081.633000,195.775000,1079.140000,195.775000C1076.646000,195.775000,1074.625000,197.795000,1074.625000,200.286000C1074.625000,202.778000,1076.646000,204.797000,1079.140000,204.797000Z" fill="rgb(86,0,227)" fill-opacity="0.701961" fill-rule="evenodd" stroke="none" stroke-width="1"/><path id="etqL43NQACM68" d="M1079.140000,229.107000C1081.633000,229.107000,1083.654000,227.088000,1083.654000,224.596000C1083.654000,222.105000,1081.633000,220.085000,1079.140000,220.085000C1076.646000,220.085000,1074.625000,222.105000,1074.625000,224.596000C1074.625000,227.088000,1076.646000,229.107000,1079.140000,229.107000Z" fill="rgb(86,0,227)" fill-opacity="0.701961" fill-rule="evenodd" stroke="none" stroke-width="1"/><path id="etqL43NQACM69" d="M1079.140000,253.419000C1081.633000,253.419000,1083.654000,251.398000,1083.654000,248.907000C1083.654000,246.415000,1081.633000,244.395000,1079.140000,244.395000C1076.646000,244.395000,1074.625000,246.415000,1074.625000,248.907000C1074.625000,251.398000,1076.646000,253.419000,1079.140000,253.419000Z" fill="rgb(86,0,227)" fill-opacity="0.701961" fill-rule="evenodd" stroke="none" stroke-width="1"/><path id="etqL43NQACM70" d="M1079.140000,277.728000C1081.633000,277.728000,1083.654000,275.709000,1083.654000,273.216000C1083.654000,270.726000,1081.633000,268.707000,1079.140000,268.707000C1076.646000,268.707000,1074.625000,270.726000,1074.625000,273.216000C1074.625000,275.709000,1076.646000,277.728000,1079.140000,277.728000Z" fill="rgb(86,0,227)" fill-opacity="0.701961" fill-rule="evenodd" stroke="none" stroke-width="1"/><path id="etqL43NQACM71" d="M1034.743000,34.375000C1037.237000,34.375000,1039.258000,32.355000,1039.258000,29.864000C1039.258000,27.372000,1037.237000,25.353000,1034.743000,25.353000C1032.250000,25.353000,1030.228000,27.372000,1030.228000,29.864000C1030.228000,32.355000,1032.250000,34.375000,1034.743000,34.375000Z" fill="rgb(86,0,227)" fill-opacity="0.701961" fill-rule="evenodd" stroke="none" stroke-width="1"/><path id="etqL43NQACM72" d="M1034.743000,58.685000C1037.237000,58.685000,1039.258000,56.665000,1039.258000,54.174000C1039.258000,51.683000,1037.237000,49.663000,1034.743000,49.663000C1032.250000,49.663000,1030.228000,51.683000,1030.228000,54.174000C1030.228000,56.665000,1032.250000,58.685000,1034.743000,58.685000Z" fill="rgb(86,0,227)" fill-opacity="0.701961" fill-rule="evenodd" stroke="none" stroke-width="1"/><path id="etqL43NQACM73" d="M1034.743000,82.996000C1037.237000,82.996000,1039.258000,80.976000,1039.258000,78.484000C1039.258000,75.993000,1037.237000,73.973000,1034.743000,73.973000C1032.250000,73.973000,1030.228000,75.993000,1030.228000,78.484000C1030.228000,80.976000,1032.250000,82.996000,1034.743000,82.996000Z" fill="rgb(86,0,227)" fill-opacity="0.701961" fill-rule="evenodd" stroke="none" stroke-width="1"/><path id="etqL43NQACM74" d="M1034.743000,107.306000C1037.237000,107.306000,1039.258000,105.286000,1039.258000,102.795000C1039.258000,100.303000,1037.237000,98.283000,1034.743000,98.283000C1032.250000,98.283000,1030.228000,100.303000,1030.228000,102.795000C1030.228000,105.286000,1032.250000,107.306000,1034.743000,107.306000Z" fill="rgb(86,0,227)" fill-opacity="0.701961" fill-rule="evenodd" stroke="none" stroke-width="1"/><path id="etqL43NQACM75" d="M1034.743000,131.616000C1037.237000,131.616000,1039.258000,129.596000,1039.258000,127.105000C1039.258000,124.613000,1037.237000,122.594000,1034.743000,122.594000C1032.250000,122.594000,1030.228000,124.613000,1030.228000,127.105000C1030.228000,129.596000,1032.250000,131.616000,1034.743000,131.616000Z" fill="rgb(86,0,227)" fill-opacity="0.701961" fill-rule="evenodd" stroke="none" stroke-width="1"/><path id="etqL43NQACM76" d="M1034.743000,155.926000C1037.237000,155.926000,1039.258000,153.907000,1039.258000,151.415000C1039.258000,148.924000,1037.237000,146.904000,1034.743000,146.904000C1032.250000,146.904000,1030.228000,148.924000,1030.228000,151.415000C1030.228000,153.907000,1032.250000,155.926000,1034.743000,155.926000Z" fill="rgb(86,0,227)" fill-opacity="0.701961" fill-rule="evenodd" stroke="none" stroke-width="1"/><path id="etqL43NQACM77" d="M1034.743000,180.237000C1037.237000,180.237000,1039.258000,178.217000,1039.258000,175.726000C1039.258000,173.234000,1037.237000,171.214000,1034.743000,171.214000C1032.250000,171.214000,1030.228000,173.234000,1030.228000,175.726000C1030.228000,178.217000,1032.250000,180.237000,1034.743000,180.237000Z" fill="rgb(86,0,227)" fill-opacity="0.701961" fill-rule="evenodd" stroke="none" stroke-width="1"/><path id="etqL43NQACM78" d="M1034.743000,204.797000C1037.237000,204.797000,1039.258000,202.778000,1039.258000,200.286000C1039.258000,197.795000,1037.237000,195.775000,1034.743000,195.775000C1032.250000,195.775000,1030.228000,197.795000,1030.228000,200.286000C1030.228000,202.778000,1032.250000,204.797000,1034.743000,204.797000Z" fill="rgb(86,0,227)" fill-opacity="0.701961" fill-rule="evenodd" stroke="none" stroke-width="1"/><path id="etqL43NQACM79" d="M1034.743000,229.107000C1037.237000,229.107000,1039.258000,227.088000,1039.258000,224.596000C1039.258000,222.105000,1037.237000,220.085000,1034.743000,220.085000C1032.250000,220.085000,1030.228000,222.105000,1030.228000,224.596000C1030.228000,227.088000,1032.250000,229.107000,1034.743000,229.107000Z" fill="rgb(86,0,227)" fill-opacity="0.701961" fill-rule="evenodd" stroke="none" stroke-width="1"/><path id="etqL43NQACM80" d="M1034.743000,253.419000C1037.237000,253.419000,1039.258000,251.398000,1039.258000,248.907000C1039.258000,246.415000,1037.237000,244.395000,1034.743000,244.395000C1032.250000,244.395000,1030.228000,246.415000,1030.228000,248.907000C1030.228000,251.398000,1032.250000,253.419000,1034.743000,253.419000Z" fill="rgb(86,0,227)" fill-opacity="0.701961" fill-rule="evenodd" stroke="none" stroke-width="1"/><path id="etqL43NQACM81" d="M1034.743000,277.728000C1037.237000,277.728000,1039.258000,275.709000,1039.258000,273.216000C1039.258000,270.726000,1037.237000,268.707000,1034.743000,268.707000C1032.250000,268.707000,1030.228000,270.726000,1030.228000,273.216000C1030.228000,275.709000,1032.250000,277.728000,1034.743000,277.728000Z" fill="rgb(86,0,227)" fill-opacity="0.701961" fill-rule="evenodd" stroke="none" stroke-width="1"/></g></g><g id="etqL43NQACM82_to" transform="translate(151.841993,580.970495)"><g id="etqL43NQACM82" transform="scale(0.926503,0.926503) translate(-172.989002,-559.823486)"><path id="etqL43NQACM83" d="M39.673000,442.658000C42.167000,442.658000,44.188000,440.638000,44.188000,438.147000C44.188000,435.656000,42.167000,433.636000,39.673000,433.636000C37.180000,433.636000,35.159000,435.656000,35.159000,438.147000C35.159000,440.638000,37.180000,442.658000,39.673000,442.658000Z" fill="rgb(86,0,227)" fill-opacity="0.701961" fill-rule="evenodd" stroke="none" stroke-width="1"/><path id="etqL43NQACM84" d="M39.673000,466.968000C42.167000,466.968000,44.188000,464.949000,44.188000,462.457000C44.188000,459.966000,42.167000,457.946000,39.673000,457.946000C37.180000,457.946000,35.159000,459.966000,35.159000,462.457000C35.159000,464.949000,37.180000,466.968000,39.673000,466.968000Z" fill="rgb(86,0,227)" fill-opacity="0.701961" fill-rule="evenodd" stroke="none" stroke-width="1"/><path id="etqL43NQACM85" d="M39.673000,491.279000C42.167000,491.279000,44.188000,489.259000,44.188000,486.767000C44.188000,484.276000,42.167000,482.256000,39.673000,482.256000C37.180000,482.256000,35.159000,484.276000,35.159000,486.767000C35.159000,489.259000,37.180000,491.279000,39.673000,491.279000Z" fill="rgb(86,0,227)" fill-opacity="0.701961" fill-rule="evenodd" stroke="none" stroke-width="1"/><path id="etqL43NQACM86" d="M39.673000,515.589000C42.167000,515.589000,44.188000,513.569000,44.188000,511.078000C44.188000,508.586000,42.167000,506.566000,39.673000,506.566000C37.180000,506.566000,35.159000,508.586000,35.159000,511.078000C35.159000,513.569000,37.180000,515.589000,39.673000,515.589000Z" fill="rgb(86,0,227)" fill-opacity="0.701961" fill-rule="evenodd" stroke="none" stroke-width="1"/><path id="etqL43NQACM87" d="M39.673000,539.899000C42.167000,539.899000,44.188000,537.879000,44.188000,535.388000C44.188000,532.897000,42.167000,530.877000,39.673000,530.877000C37.180000,530.877000,35.159000,532.897000,35.159000,535.388000C35.159000,537.879000,37.180000,539.899000,39.673000,539.899000Z" fill="rgb(86,0,227)" fill-opacity="0.701961" fill-rule="evenodd" stroke="none" stroke-width="1"/><path id="etqL43NQACM88" d="M39.673000,564.210000C42.167000,564.210000,44.188000,562.190000,44.188000,559.698000C44.188000,557.207000,42.167000,555.187000,39.673000,555.187000C37.180000,555.187000,35.159000,557.207000,35.159000,559.698000C35.159000,562.190000,37.180000,564.210000,39.673000,564.210000Z" fill="rgb(86,0,227)" fill-opacity="0.701961" fill-rule="evenodd" stroke="none" stroke-width="1"/><path id="etqL43NQACM89" d="M39.673000,588.519000C42.167000,588.519000,44.188000,586.500000,44.188000,584.009000C44.188000,581.517000,42.167000,579.497000,39.673000,579.497000C37.180000,579.497000,35.159000,581.517000,35.159000,584.009000C35.159000,586.500000,37.180000,588.519000,39.673000,588.519000Z" fill="rgb(86,0,227)" fill-opacity="0.701961" fill-rule="evenodd" stroke="none" stroke-width="1"/><path id="etqL43NQACM90" d="M39.673000,613.080000C42.167000,613.080000,44.188000,611.061000,44.188000,608.570000C44.188000,606.078000,42.167000,604.058000,39.673000,604.058000C37.180000,604.058000,35.159000,606.078000,35.159000,608.570000C35.159000,611.061000,37.180000,613.080000,39.673000,613.080000Z" fill="rgb(86,0,227)" fill-opacity="0.701961" fill-rule="evenodd" stroke="none" stroke-width="1"/><path id="etqL43NQACM91" d="M39.673000,637.391000C42.167000,637.391000,44.188000,635.371000,44.188000,632.879000C44.188000,630.388000,42.167000,628.369000,39.673000,628.369000C37.180000,628.369000,35.159000,630.388000,35.159000,632.879000C35.158000,635.371000,37.180000,637.391000,39.673000,637.391000Z" fill="rgb(86,0,227)" fill-opacity="0.701961" fill-rule="evenodd" stroke="none" stroke-width="1"/><path id="etqL43NQACM92" d="M39.673000,661.702000C42.167000,661.702000,44.188000,659.680000,44.188000,657.190000C44.188000,654.698000,42.167000,652.679000,39.673000,652.679000C37.180000,652.679000,35.159000,654.698000,35.159000,657.190000C35.159000,659.680000,37.180000,661.702000,39.673000,661.702000Z" fill="rgb(86,0,227)" fill-opacity="0.701961" fill-rule="evenodd" stroke="none" stroke-width="1"/><path id="etqL43NQACM93" d="M39.673000,686.011000C42.167000,686.011000,44.188000,683.992000,44.188000,681.499000C44.188000,679.009000,42.167000,676.990000,39.673000,676.990000C37.180000,676.990000,35.159000,679.009000,35.159000,681.499000C35.159000,683.992000,37.180000,686.011000,39.673000,686.011000Z" fill="rgb(86,0,227)" fill-opacity="0.701961" fill-rule="evenodd" stroke="none" stroke-width="1"/><path id="etqL43NQACM94" d="M261.906000,442.658000C264.400000,442.658000,266.422000,440.638000,266.422000,438.147000C266.422000,435.656000,264.400000,433.636000,261.906000,433.636000C259.413000,433.636000,257.392000,435.656000,257.392000,438.147000C257.392000,440.638000,259.413000,442.658000,261.906000,442.658000Z" fill="rgb(86,0,227)" fill-opacity="0.701961" fill-rule="evenodd" stroke="none" stroke-width="1"/><path id="etqL43NQACM95" d="M261.906000,466.968000C264.400000,466.968000,266.422000,464.949000,266.422000,462.457000C266.422000,459.966000,264.400000,457.946000,261.906000,457.946000C259.413000,457.946000,257.392000,459.966000,257.392000,462.457000C257.392000,464.949000,259.413000,466.968000,261.906000,466.968000Z" fill="rgb(86,0,227)" fill-opacity="0.701961" fill-rule="evenodd" stroke="none" stroke-width="1"/><path id="etqL43NQACM96" d="M261.906000,491.279000C264.400000,491.279000,266.422000,489.259000,266.422000,486.767000C266.421000,484.276000,264.400000,482.256000,261.906000,482.256000C259.413000,482.256000,257.392000,484.276000,257.392000,486.767000C257.392000,489.259000,259.413000,491.279000,261.906000,491.279000Z" fill="rgb(86,0,227)" fill-opacity="0.701961" fill-rule="evenodd" stroke="none" stroke-width="1"/><path id="etqL43NQACM97" d="M261.906000,515.589000C264.400000,515.589000,266.421000,513.569000,266.422000,511.078000C266.422000,508.586000,264.400000,506.566000,261.906000,506.566000C259.413000,506.566000,257.392000,508.586000,257.392000,511.078000C257.392000,513.569000,259.413000,515.589000,261.906000,515.589000Z" fill="rgb(86,0,227)" fill-opacity="0.701961" fill-rule="evenodd" stroke="none" stroke-width="1"/><path id="etqL43NQACM98" d="M261.906000,539.899000C264.400000,539.899000,266.422000,537.880000,266.422000,535.388000C266.422000,532.897000,264.400000,530.877000,261.906000,530.877000C259.413000,530.877000,257.392000,532.897000,257.392000,535.388000C257.392000,537.879000,259.413000,539.899000,261.906000,539.899000Z" fill="rgb(86,0,227)" fill-opacity="0.701961" fill-rule="evenodd" stroke="none" stroke-width="1"/><path id="etqL43NQACM99" d="M261.906000,564.210000C264.400000,564.210000,266.422000,562.190000,266.422000,559.698000C266.422000,557.207000,264.400000,555.187000,261.906000,555.187000C259.413000,555.187000,257.392000,557.207000,257.392000,559.698000C257.392000,562.190000,259.413000,564.210000,261.906000,564.210000Z" fill="rgb(86,0,227)" fill-opacity="0.701961" fill-rule="evenodd" stroke="none" stroke-width="1"/><path id="etqL43NQACM100" d="M261.906000,588.519000C264.400000,588.519000,266.421000,586.500000,266.422000,584.009000C266.422000,581.517000,264.400000,579.497000,261.906000,579.497000C259.413000,579.497000,257.392000,581.517000,257.392000,584.009000C257.392000,586.500000,259.413000,588.519000,261.906000,588.519000Z" fill="rgb(86,0,227)" fill-opacity="0.701961" fill-rule="evenodd" stroke="none" stroke-width="1"/><path id="etqL43NQACM101" d="M261.906000,613.080000C264.400000,613.080000,266.422000,611.061000,266.422000,608.570000C266.422000,606.078000,264.400000,604.058000,261.906000,604.058000C259.413000,604.058000,257.392000,606.078000,257.392000,608.570000C257.392000,611.061000,259.413000,613.080000,261.906000,613.080000Z" fill="rgb(86,0,227)" fill-opacity="0.701961" fill-rule="evenodd" stroke="none" stroke-width="1"/><path id="etqL43NQACM102" d="M261.906000,637.391000C264.400000,637.391000,266.422000,635.371000,266.422000,632.879000C266.421000,630.388000,264.400000,628.369000,261.906000,628.369000C259.413000,628.369000,257.392000,630.388000,257.392000,632.879000C257.392000,635.371000,259.413000,637.391000,261.906000,637.391000Z" fill="rgb(86,0,227)" fill-opacity="0.701961" fill-rule="evenodd" stroke="none" stroke-width="1"/><path id="etqL43NQACM103" d="M261.906000,661.702000C264.400000,661.702000,266.422000,659.681000,266.422000,657.190000C266.422000,654.698000,264.400000,652.679000,261.906000,652.679000C259.413000,652.679000,257.392000,654.698000,257.392000,657.190000C257.392000,659.681000,259.413000,661.702000,261.906000,661.702000Z" fill="rgb(86,0,227)" fill-opacity="0.701961" fill-rule="evenodd" stroke="none" stroke-width="1"/><path id="etqL43NQACM104" d="M261.906000,686.011000C264.400000,686.011000,266.422000,683.992000,266.422000,681.499000C266.422000,679.009000,264.400000,676.990000,261.906000,676.990000C259.413000,676.990000,257.392000,679.009000,257.392000,681.499000C257.392000,683.992000,259.413000,686.011000,261.906000,686.011000Z" fill="rgb(86,0,227)" fill-opacity="0.701961" fill-rule="evenodd" stroke="none" stroke-width="1"/><path id="etqL43NQACM105" d="M217.510000,442.658000C220.003000,442.658000,222.025000,440.638000,222.025000,438.147000C222.025000,435.656000,220.004000,433.636000,217.510000,433.636000C215.017000,433.636000,212.995000,435.656000,212.995000,438.147000C212.995000,440.638000,215.017000,442.658000,217.510000,442.658000Z" fill="rgb(86,0,227)" fill-opacity="0.701961" fill-rule="evenodd" stroke="none" stroke-width="1"/><path id="etqL43NQACM106" d="M217.510000,466.968000C220.004000,466.968000,222.025000,464.949000,222.025000,462.457000C222.025000,459.966000,220.004000,457.946000,217.510000,457.946000C215.017000,457.946000,212.995000,459.966000,212.995000,462.457000C212.995000,464.949000,215.017000,466.968000,217.510000,466.968000Z" fill="rgb(86,0,227)" fill-opacity="0.701961" fill-rule="evenodd" stroke="none" stroke-width="1"/><path id="etqL43NQACM107" d="M217.510000,491.279000C220.004000,491.279000,222.025000,489.259000,222.025000,486.767000C222.025000,484.276000,220.004000,482.256000,217.510000,482.256000C215.017000,482.256000,212.995000,484.276000,212.995000,486.767000C212.995000,489.259000,215.017000,491.279000,217.510000,491.279000Z" fill="rgb(86,0,227)" fill-opacity="0.701961" fill-rule="evenodd" stroke="none" stroke-width="1"/><path id="etqL43NQACM108" d="M217.510000,515.589000C220.004000,515.589000,222.025000,513.569000,222.025000,511.078000C222.025000,508.586000,220.004000,506.566000,217.510000,506.566000C215.017000,506.566000,212.995000,508.586000,212.995000,511.078000C212.995000,513.569000,215.017000,515.589000,217.510000,515.589000Z" fill="rgb(86,0,227)" fill-opacity="0.701961" fill-rule="evenodd" stroke="none" stroke-width="1"/><path id="etqL43NQACM109" d="M217.510000,539.899000C220.004000,539.899000,222.025000,537.879000,222.025000,535.388000C222.025000,532.897000,220.004000,530.877000,217.510000,530.877000C215.017000,530.877000,212.995000,532.897000,212.995000,535.388000C212.995000,537.879000,215.017000,539.899000,217.510000,539.899000Z" fill="rgb(86,0,227)" fill-opacity="0.701961" fill-rule="evenodd" stroke="none" stroke-width="1"/><path id="etqL43NQACM110" d="M217.510000,564.210000C220.004000,564.210000,222.025000,562.190000,222.025000,559.698000C222.025000,557.207000,220.004000,555.187000,217.510000,555.187000C215.017000,555.187000,212.995000,557.207000,212.995000,559.698000C212.995000,562.190000,215.017000,564.210000,217.510000,564.210000Z" fill="rgb(86,0,227)" fill-opacity="0.701961" fill-rule="evenodd" stroke="none" stroke-width="1"/><path id="etqL43NQACM111" d="M217.510000,588.519000C220.003000,588.519000,222.025000,586.500000,222.025000,584.009000C222.025000,581.517000,220.004000,579.497000,217.510000,579.497000C215.017000,579.497000,212.995000,581.517000,212.995000,584.009000C212.996000,586.500000,215.017000,588.519000,217.510000,588.519000Z" fill="rgb(86,0,227)" fill-opacity="0.701961" fill-rule="evenodd" stroke="none" stroke-width="1"/><path id="etqL43NQACM112" d="M217.510000,613.080000C220.003000,613.080000,222.025000,611.061000,222.025000,608.570000C222.025000,606.078000,220.004000,604.058000,217.510000,604.058000C215.017000,604.058000,212.995000,606.078000,212.995000,608.570000C212.995000,611.061000,215.017000,613.080000,217.510000,613.080000Z" fill="rgb(86,0,227)" fill-opacity="0.701961" fill-rule="evenodd" stroke="none" stroke-width="1"/><path id="etqL43NQACM113" d="M217.510000,637.391000C220.004000,637.391000,222.025000,635.371000,222.025000,632.879000C222.025000,630.388000,220.003000,628.369000,217.510000,628.369000C215.017000,628.369000,212.996000,630.388000,212.995000,632.879000C212.995000,635.371000,215.017000,637.391000,217.510000,637.391000Z" fill="rgb(86,0,227)" fill-opacity="0.701961" fill-rule="evenodd" stroke="none" stroke-width="1"/><path id="etqL43NQACM114" d="M217.510000,661.702000C220.004000,661.702000,222.025000,659.680000,222.025000,657.190000C222.025000,654.698000,220.004000,652.679000,217.510000,652.679000C215.017000,652.679000,212.995000,654.698000,212.995000,657.190000C212.995000,659.680000,215.017000,661.702000,217.510000,661.702000Z" fill="rgb(86,0,227)" fill-opacity="0.701961" fill-rule="evenodd" stroke="none" stroke-width="1"/><path id="etqL43NQACM115" d="M217.510000,686.011000C220.004000,686.011000,222.025000,683.992000,222.025000,681.499000C222.025000,679.009000,220.004000,676.990000,217.510000,676.990000C215.017000,676.990000,212.995000,679.009000,212.995000,681.499000C212.995000,683.992000,215.017000,686.011000,217.510000,686.011000Z" fill="rgb(86,0,227)" fill-opacity="0.701961" fill-rule="evenodd" stroke="none" stroke-width="1"/><path id="etqL43NQACM116" d="M306.303000,442.658000C308.798000,442.658000,310.819000,440.638000,310.819000,438.147000C310.819000,435.656000,308.798000,433.636000,306.303000,433.636000C303.811000,433.636000,301.789000,435.656000,301.789000,438.147000C301.789000,440.638000,303.811000,442.658000,306.303000,442.658000Z" fill="rgb(86,0,227)" fill-opacity="0.701961" fill-rule="evenodd" stroke="none" stroke-width="1"/><path id="etqL43NQACM117" d="M306.303000,466.968000C308.798000,466.968000,310.819000,464.949000,310.819000,462.457000C310.819000,459.966000,308.798000,457.946000,306.303000,457.946000C303.811000,457.946000,301.789000,459.966000,301.789000,462.457000C301.789000,464.949000,303.811000,466.968000,306.303000,466.968000Z" fill="rgb(86,0,227)" fill-opacity="0.701961" fill-rule="evenodd" stroke="none" stroke-width="1"/><path id="etqL43NQACM118" d="M306.303000,491.279000C308.798000,491.279000,310.819000,489.259000,310.819000,486.767000C310.819000,484.276000,308.798000,482.256000,306.303000,482.256000C303.811000,482.256000,301.789000,484.276000,301.789000,486.767000C301.789000,489.259000,303.811000,491.279000,306.303000,491.279000Z" fill="rgb(86,0,227)" fill-opacity="0.701961" fill-rule="evenodd" stroke="none" stroke-width="1"/><path id="etqL43NQACM119" d="M306.303000,515.589000C308.798000,515.589000,310.819000,513.569000,310.819000,511.078000C310.819000,508.586000,308.798000,506.566000,306.303000,506.566000C303.811000,506.566000,301.789000,508.586000,301.789000,511.078000C301.789000,513.569000,303.811000,515.589000,306.303000,515.589000Z" fill="rgb(86,0,227)" fill-opacity="0.701961" fill-rule="evenodd" stroke="none" stroke-width="1"/><path id="etqL43NQACM120" d="M306.303000,539.899000C308.798000,539.899000,310.819000,537.880000,310.819000,535.388000C310.819000,532.897000,308.798000,530.877000,306.303000,530.877000C303.811000,530.877000,301.789000,532.897000,301.789000,535.388000C301.789000,537.879000,303.811000,539.899000,306.303000,539.899000Z" fill="rgb(86,0,227)" fill-opacity="0.701961" fill-rule="evenodd" stroke="none" stroke-width="1"/><path id="etqL43NQACM121" d="M306.303000,564.210000C308.798000,564.210000,310.819000,562.190000,310.819000,559.698000C310.819000,557.207000,308.798000,555.187000,306.303000,555.187000C303.811000,555.187000,301.789000,557.207000,301.789000,559.698000C301.789000,562.190000,303.811000,564.210000,306.303000,564.210000Z" fill="rgb(86,0,227)" fill-opacity="0.701961" fill-rule="evenodd" stroke="none" stroke-width="1"/><path id="etqL43NQACM122" d="M306.303000,588.519000C308.797000,588.519000,310.819000,586.500000,310.819000,584.009000C310.819000,581.517000,308.798000,579.497000,306.303000,579.497000C303.811000,579.497000,301.789000,581.517000,301.789000,584.009000C301.790000,586.500000,303.811000,588.519000,306.303000,588.519000Z" fill="rgb(86,0,227)" fill-opacity="0.701961" fill-rule="evenodd" stroke="none" stroke-width="1"/><path id="etqL43NQACM123" d="M306.303000,613.080000C308.798000,613.080000,310.819000,611.061000,310.819000,608.570000C310.819000,606.078000,308.798000,604.058000,306.303000,604.058000C303.811000,604.058000,301.789000,606.078000,301.789000,608.570000C301.789000,611.061000,303.811000,613.080000,306.303000,613.080000Z" fill="rgb(86,0,227)" fill-opacity="0.701961" fill-rule="evenodd" stroke="none" stroke-width="1"/><path id="etqL43NQACM124" d="M306.303000,637.391000C308.798000,637.391000,310.819000,635.371000,310.819000,632.879000C310.819000,630.388000,308.797000,628.368000,306.303000,628.369000C303.811000,628.369000,301.790000,630.388000,301.789000,632.879000C301.789000,635.371000,303.810000,637.391000,306.303000,637.391000Z" fill="rgb(86,0,227)" fill-opacity="0.701961" fill-rule="evenodd" stroke="none" stroke-width="1"/><path id="etqL43NQACM125" d="M306.303000,661.702000C308.798000,661.702000,310.819000,659.681000,310.819000,657.190000C310.819000,654.698000,308.798000,652.679000,306.303000,652.679000C303.811000,652.679000,301.789000,654.698000,301.789000,657.190000C301.789000,659.681000,303.811000,661.702000,306.303000,661.702000Z" fill="rgb(86,0,227)" fill-opacity="0.701961" fill-rule="evenodd" stroke="none" stroke-width="1"/><path id="etqL43NQACM126" d="M306.303000,686.011000C308.798000,686.011000,310.819000,683.992000,310.819000,681.499000C310.819000,679.009000,308.798000,676.990000,306.303000,676.990000C303.811000,676.990000,301.789000,679.009000,301.789000,681.499000C301.789000,683.992000,303.811000,686.011000,306.303000,686.011000Z" fill="rgb(86,0,227)" fill-opacity="0.701961" fill-rule="evenodd" stroke="none" stroke-width="1"/><path id="etqL43NQACM127" d="M172.863000,442.658000C175.357000,442.658000,177.378000,440.638000,177.378000,438.147000C177.378000,435.656000,175.357000,433.636000,172.863000,433.636000C170.370000,433.636000,168.348000,435.655000,168.348000,438.147000C168.348000,440.638000,170.370000,442.658000,172.863000,442.658000Z" fill="rgb(86,0,227)" fill-opacity="0.701961" fill-rule="evenodd" stroke="none" stroke-width="1"/><path id="etqL43NQACM128" d="M172.863000,466.968000C175.357000,466.968000,177.378000,464.949000,177.378000,462.457000C177.378000,459.966000,175.357000,457.946000,172.863000,457.946000C170.370000,457.946000,168.348000,459.966000,168.348000,462.457000C168.348000,464.949000,170.370000,466.968000,172.863000,466.968000Z" fill="rgb(86,0,227)" fill-opacity="0.701961" fill-rule="evenodd" stroke="none" stroke-width="1"/><path id="etqL43NQACM129" d="M172.863000,491.279000C175.357000,491.279000,177.378000,489.259000,177.378000,486.767000C177.378000,484.276000,175.357000,482.256000,172.863000,482.256000C170.370000,482.256000,168.348000,484.276000,168.348000,486.767000C168.348000,489.259000,170.370000,491.279000,172.863000,491.279000Z" fill="rgb(86,0,227)" fill-opacity="0.701961" fill-rule="evenodd" stroke="none" stroke-width="1"/><path id="etqL43NQACM130" d="M172.863000,515.589000C175.357000,515.589000,177.378000,513.569000,177.378000,511.078000C177.378000,508.586000,175.357000,506.567000,172.863000,506.566000C170.370000,506.566000,168.348000,508.586000,168.348000,511.078000C168.348000,513.569000,170.370000,515.589000,172.863000,515.589000Z" fill="rgb(86,0,227)" fill-opacity="0.701961" fill-rule="evenodd" stroke="none" stroke-width="1"/><path id="etqL43NQACM131" d="M172.863000,539.899000C175.357000,539.899000,177.378000,537.879000,177.378000,535.388000C177.378000,532.897000,175.357000,530.877000,172.863000,530.877000C170.370000,530.877000,168.348000,532.897000,168.348000,535.388000C168.348000,537.880000,170.370000,539.899000,172.863000,539.899000Z" fill="rgb(86,0,227)" fill-opacity="0.701961" fill-rule="evenodd" stroke="none" stroke-width="1"/><path id="etqL43NQACM132" d="M172.863000,564.210000C175.357000,564.210000,177.378000,562.190000,177.378000,559.698000C177.378000,557.207000,175.357000,555.187000,172.863000,555.187000C170.370000,555.187000,168.348000,557.207000,168.348000,559.698000C168.348000,562.190000,170.370000,564.210000,172.863000,564.210000Z" fill="rgb(86,0,227)" fill-opacity="0.701961" fill-rule="evenodd" stroke="none" stroke-width="1"/><path id="etqL43NQACM133" d="M172.863000,588.519000C175.357000,588.519000,177.378000,586.500000,177.378000,584.009000C177.378000,581.517000,175.357000,579.497000,172.863000,579.497000C170.370000,579.497000,168.348000,581.517000,168.348000,584.009000C168.348000,586.500000,170.370000,588.519000,172.863000,588.519000Z" fill="rgb(86,0,227)" fill-opacity="0.701961" fill-rule="evenodd" stroke="none" stroke-width="1"/><path id="etqL43NQACM134" d="M172.863000,613.080000C175.357000,613.080000,177.378000,611.061000,177.378000,608.570000C177.378000,606.078000,175.357000,604.058000,172.863000,604.058000C170.370000,604.058000,168.348000,606.078000,168.348000,608.570000C168.348000,611.061000,170.370000,613.080000,172.863000,613.080000Z" fill="rgb(86,0,227)" fill-opacity="0.701961" fill-rule="evenodd" stroke="none" stroke-width="1"/><path id="etqL43NQACM135" d="M172.863000,637.391000C175.357000,637.391000,177.378000,635.371000,177.378000,632.879000C177.378000,630.388000,175.357000,628.369000,172.863000,628.369000C170.370000,628.368000,168.348000,630.388000,168.348000,632.879000C168.348000,635.371000,170.370000,637.391000,172.863000,637.391000Z" fill="rgb(86,0,227)" fill-opacity="0.701961" fill-rule="evenodd" stroke="none" stroke-width="1"/><path id="etqL43NQACM136" d="M172.863000,661.702000C175.357000,661.702000,177.378000,659.680000,177.378000,657.190000C177.378000,654.698000,175.357000,652.679000,172.863000,652.679000C170.370000,652.679000,168.348000,654.698000,168.348000,657.190000C168.348000,659.681000,170.370000,661.702000,172.863000,661.702000Z" fill="rgb(86,0,227)" fill-opacity="0.701961" fill-rule="evenodd" stroke="none" stroke-width="1"/><path id="etqL43NQACM137" d="M172.863000,686.011000C175.357000,686.011000,177.378000,683.992000,177.378000,681.499000C177.378000,679.009000,175.357000,676.990000,172.863000,676.990000C170.370000,676.990000,168.348000,679.009000,168.348000,681.499000C168.348000,683.992000,170.370000,686.011000,172.863000,686.011000Z" fill="rgb(86,0,227)" fill-opacity="0.701961" fill-rule="evenodd" stroke="none" stroke-width="1"/><path id="etqL43NQACM138" d="M128.466000,442.658000C130.959000,442.658000,132.981000,440.638000,132.981000,438.147000C132.981000,435.656000,130.959000,433.636000,128.466000,433.636000C125.972000,433.636000,123.951000,435.655000,123.951000,438.147000C123.951000,440.638000,125.973000,442.658000,128.466000,442.658000Z" fill="rgb(86,0,227)" fill-opacity="0.701961" fill-rule="evenodd" stroke="none" stroke-width="1"/><path id="etqL43NQACM139" d="M128.466000,466.968000C130.959000,466.968000,132.981000,464.949000,132.981000,462.457000C132.981000,459.966000,130.959000,457.946000,128.466000,457.946000C125.972000,457.946000,123.951000,459.966000,123.951000,462.457000C123.951000,464.949000,125.972000,466.968000,128.466000,466.968000Z" fill="rgb(86,0,227)" fill-opacity="0.701961" fill-rule="evenodd" stroke="none" stroke-width="1"/><path id="etqL43NQACM140" d="M128.466000,491.279000C130.960000,491.279000,132.981000,489.259000,132.981000,486.767000C132.981000,484.276000,130.959000,482.256000,128.466000,482.256000C125.972000,482.256000,123.951000,484.276000,123.951000,486.767000C123.951000,489.259000,125.972000,491.279000,128.466000,491.279000Z" fill="rgb(86,0,227)" fill-opacity="0.701961" fill-rule="evenodd" stroke="none" stroke-width="1"/><path id="etqL43NQACM141" d="M128.466000,515.589000C130.959000,515.589000,132.981000,513.569000,132.981000,511.078000C132.981000,508.586000,130.960000,506.567000,128.466000,506.566000C125.972000,506.566000,123.951000,508.586000,123.951000,511.078000C123.951000,513.569000,125.972000,515.589000,128.466000,515.589000Z" fill="rgb(86,0,227)" fill-opacity="0.701961" fill-rule="evenodd" stroke="none" stroke-width="1"/><path id="etqL43NQACM142" d="M128.466000,539.899000C130.959000,539.899000,132.981000,537.879000,132.981000,535.388000C132.981000,532.897000,130.959000,530.877000,128.466000,530.877000C125.972000,530.877000,123.951000,532.897000,123.951000,535.388000C123.951000,537.880000,125.972000,539.899000,128.466000,539.899000Z" fill="rgb(86,0,227)" fill-opacity="0.701961" fill-rule="evenodd" stroke="none" stroke-width="1"/><path id="etqL43NQACM143" d="M128.466000,564.210000C130.960000,564.210000,132.981000,562.190000,132.981000,559.698000C132.981000,557.207000,130.960000,555.187000,128.466000,555.187000C125.972000,555.187000,123.951000,557.207000,123.951000,559.698000C123.951000,562.190000,125.972000,564.210000,128.466000,564.210000Z" fill="rgb(86,0,227)" fill-opacity="0.701961" fill-rule="evenodd" stroke="none" stroke-width="1"/><path id="etqL43NQACM144" d="M128.466000,588.519000C130.959000,588.519000,132.981000,586.500000,132.981000,584.009000C132.981000,581.517000,130.960000,579.497000,128.466000,579.497000C125.972000,579.497000,123.951000,581.517000,123.951000,584.009000C123.951000,586.500000,125.973000,588.519000,128.466000,588.519000Z" fill="rgb(86,0,227)" fill-opacity="0.701961" fill-rule="evenodd" stroke="none" stroke-width="1"/><path id="etqL43NQACM145" d="M128.466000,613.080000C130.959000,613.080000,132.981000,611.061000,132.981000,608.570000C132.981000,606.078000,130.959000,604.058000,128.466000,604.058000C125.972000,604.058000,123.951000,606.078000,123.951000,608.570000C123.951000,611.061000,125.973000,613.080000,128.466000,613.080000Z" fill="rgb(86,0,227)" fill-opacity="0.701961" fill-rule="evenodd" stroke="none" stroke-width="1"/><path id="etqL43NQACM146" d="M128.466000,637.391000C130.960000,637.391000,132.981000,635.371000,132.981000,632.879000C132.981000,630.388000,130.959000,628.369000,128.466000,628.369000C125.973000,628.368000,123.951000,630.388000,123.951000,632.879000C123.951000,635.371000,125.972000,637.391000,128.466000,637.391000Z" fill="rgb(86,0,227)" fill-opacity="0.701961" fill-rule="evenodd" stroke="none" stroke-width="1"/><path id="etqL43NQACM147" d="M128.466000,661.702000C130.959000,661.702000,132.981000,659.680000,132.981000,657.190000C132.981000,654.698000,130.959000,652.679000,128.466000,652.679000C125.972000,652.679000,123.951000,654.698000,123.951000,657.190000C123.951000,659.681000,125.972000,661.702000,128.466000,661.702000Z" fill="rgb(86,0,227)" fill-opacity="0.701961" fill-rule="evenodd" stroke="none" stroke-width="1"/><path id="etqL43NQACM148" d="M128.466000,686.011000C130.959000,686.011000,132.981000,683.992000,132.981000,681.499000C132.981000,679.009000,130.959000,676.990000,128.466000,676.990000C125.972000,676.990000,123.951000,679.009000,123.951000,681.499000C123.951000,683.992000,125.972000,686.011000,128.466000,686.011000Z" fill="rgb(86,0,227)" fill-opacity="0.701961" fill-rule="evenodd" stroke="none" stroke-width="1"/><path id="etqL43NQACM149" d="M84.070000,442.658000C86.563000,442.658000,88.584000,440.638000,88.584000,438.147000C88.584000,435.656000,86.563000,433.636000,84.070000,433.636000C81.576000,433.636000,79.555000,435.655000,79.555000,438.147000C79.555000,440.638000,81.576000,442.658000,84.070000,442.658000Z" fill="rgb(86,0,227)" fill-opacity="0.701961" fill-rule="evenodd" stroke="none" stroke-width="1"/><path id="etqL43NQACM150" d="M84.070000,466.968000C86.563000,466.968000,88.584000,464.949000,88.584000,462.457000C88.584000,459.966000,86.563000,457.946000,84.070000,457.946000C81.576000,457.946000,79.555000,459.966000,79.555000,462.457000C79.555000,464.949000,81.576000,466.968000,84.070000,466.968000Z" fill="rgb(86,0,227)" fill-opacity="0.701961" fill-rule="evenodd" stroke="none" stroke-width="1"/><path id="etqL43NQACM151" d="M84.070000,491.279000C86.563000,491.279000,88.584000,489.259000,88.584000,486.767000C88.584000,484.276000,86.563000,482.256000,84.070000,482.256000C81.576000,482.256000,79.555000,484.276000,79.555000,486.767000C79.554000,489.259000,81.576000,491.279000,84.070000,491.279000Z" fill="rgb(86,0,227)" fill-opacity="0.701961" fill-rule="evenodd" stroke="none" stroke-width="1"/><path id="etqL43NQACM152" d="M84.070000,515.589000C86.563000,515.589000,88.584000,513.569000,88.584000,511.078000C88.584000,508.586000,86.563000,506.567000,84.070000,506.566000C81.576000,506.566000,79.554000,508.586000,79.555000,511.078000C79.555000,513.569000,81.576000,515.589000,84.070000,515.589000Z" fill="rgb(86,0,227)" fill-opacity="0.701961" fill-rule="evenodd" stroke="none" stroke-width="1"/><path id="etqL43NQACM153" d="M84.070000,539.899000C86.563000,539.899000,88.584000,537.879000,88.584000,535.388000C88.584000,532.897000,86.563000,530.877000,84.070000,530.877000C81.576000,530.877000,79.555000,532.897000,79.555000,535.388000C79.555000,537.880000,81.576000,539.899000,84.070000,539.899000Z" fill="rgb(86,0,227)" fill-opacity="0.701961" fill-rule="evenodd" stroke="none" stroke-width="1"/><path id="etqL43NQACM154" d="M84.070000,564.210000C86.563000,564.210000,88.584000,562.190000,88.584000,559.698000C88.584000,557.207000,86.563000,555.187000,84.070000,555.187000C81.576000,555.187000,79.555000,557.207000,79.555000,559.698000C79.555000,562.190000,81.576000,564.210000,84.070000,564.210000Z" fill="rgb(86,0,227)" fill-opacity="0.701961" fill-rule="evenodd" stroke="none" stroke-width="1"/><path id="etqL43NQACM155" d="M84.070000,588.519000C86.563000,588.519000,88.584000,586.500000,88.584000,584.009000C88.585000,581.517000,86.563000,579.497000,84.070000,579.497000C81.576000,579.497000,79.554000,581.517000,79.555000,584.009000C79.555000,586.500000,81.576000,588.519000,84.070000,588.519000Z" fill="rgb(86,0,227)" fill-opacity="0.701961" fill-rule="evenodd" stroke="none" stroke-width="1"/><path id="etqL43NQACM156" d="M84.070000,613.080000C86.563000,613.080000,88.584000,611.061000,88.584000,608.570000C88.584000,606.078000,86.563000,604.058000,84.070000,604.058000C81.576000,604.058000,79.555000,606.078000,79.555000,608.570000C79.555000,611.061000,81.576000,613.080000,84.070000,613.080000Z" fill="rgb(86,0,227)" fill-opacity="0.701961" fill-rule="evenodd" stroke="none" stroke-width="1"/><path id="etqL43NQACM157" d="M84.070000,637.391000C86.563000,637.391000,88.585000,635.371000,88.584000,632.879000C88.584000,630.388000,86.563000,628.369000,84.070000,628.369000C81.576000,628.368000,79.555000,630.388000,79.555000,632.879000C79.554000,635.371000,81.576000,637.391000,84.070000,637.391000Z" fill="rgb(86,0,227)" fill-opacity="0.701961" fill-rule="evenodd" stroke="none" stroke-width="1"/><path id="etqL43NQACM158" d="M84.070000,661.702000C86.563000,661.702000,88.584000,659.680000,88.584000,657.190000C88.584000,654.698000,86.563000,652.679000,84.070000,652.679000C81.576000,652.679000,79.555000,654.698000,79.555000,657.190000C79.555000,659.681000,81.576000,661.702000,84.070000,661.702000Z" fill="rgb(86,0,227)" fill-opacity="0.701961" fill-rule="evenodd" stroke="none" stroke-width="1"/><path id="etqL43NQACM159" d="M84.070000,686.011000C86.563000,686.011000,88.584000,683.992000,88.584000,681.499000C88.584000,679.009000,86.563000,676.990000,84.070000,676.990000C81.576000,676.990000,79.555000,679.009000,79.555000,681.499000C79.555000,683.992000,81.576000,686.011000,84.070000,686.011000Z" fill="rgb(86,0,227)" fill-opacity="0.701961" fill-rule="evenodd" stroke="none" stroke-width="1"/></g></g></svg>