<svg id="egpbEroAm4y1" xmlns="http://www.w3.org/2000/svg" xmlns:xlink="http://www.w3.org/1999/xlink" viewBox="0 0 1279.990000 720" shape-rendering="geometricPrecision" text-rendering="geometricPrecision"><style><![CDATA[#egpbEroAm4y2_tr {animation: egpbEroAm4y2_tr__tr 20000ms linear infinite normal forwards}@keyframes egpbEroAm4y2_tr__tr { 0% {transform: translate(313.018715px,296.690838px) rotate(0deg)} 45% {transform: translate(313.018715px,296.690838px) rotate(34.300000deg)} 100% {transform: translate(313.018715px,296.690838px) rotate(0deg)}} #egpbEroAm4y4_to {animation: egpbEroAm4y4_to__to 20000ms linear infinite normal forwards}@keyframes egpbEroAm4y4_to__to { 0% {transform: translate(1122.074951px,148.714997px)} 45% {transform: translate(992.669229px,148.714997px)} 100% {transform: translate(1122.074951px,148.714997px)}} #egpbEroAm4y82_to {animation: egpbEroAm4y82_to__to 20000ms linear infinite normal forwards}@keyframes egpbEroAm4y82_to__to { 0% {transform: translate(172.570000px,559.790000px)} 45% {transform: translate(305.652644px,559.790000px)} 100% {transform: translate(172.570000px,559.790000px)}}]]></style><defs><linearGradient id="egpbEroAm4y3-fill" x1="480.012000" y1="542.092800" x2="141.934200" y2="37.238400" spreadMethod="pad" gradientUnits="userSpaceOnUse"><stop id="egpbEroAm4y3-fill-0" offset="0%" stop-color="rgba(255,255,255,0)"/><stop id="egpbEroAm4y3-fill-1" offset="100%" stop-color="rgb(209,209,209)"/></linearGradient></defs><g id="egpbEroAm4y2_tr" transform="translate(313.018715,296.690838) rotate(0)"><g id="egpbEroAm4y2" display="none" transform="translate(-313.018715,-296.690838)"><path id="egpbEroAm4y3" d="M539,106Q577.630000,194.370000,616.260000,282.740000C633.190000,321.600000,627.880000,365.570000,602.330000,398.190000Q544.100000,472.310000,485.870000,546.440000C460.350000,578.800000,418.400000,595.140000,375.930000,588.900000L182.170000,560.410000C139.779666,554.117674,103.498195,526.701240,85.870000,487.640000C60.120000,428.640000,33.600000,369.970000,8.630000,310.640000C-7.640000,271.890000,-0.250000,228.740000,25.250000,196.540000C64.250000,147.480000,100.720000,96.540000,139.060000,46.940000C164.360000,14.130000,206.530000,-1.760000,249.260000,4.520000L443,33C485.490000,39.250000,522.110000,67.140000,539,106Z" transform="matrix(1 0 0 1 28.19128509521482 23.48508361989263)" fill="url(#egpbEroAm4y3-fill)" fill-rule="evenodd" stroke="none" stroke-width="1"/></g></g><g id="egpbEroAm4y4_to" transform="translate(1122.074951,148.714997)"><g id="egpbEroAm4y4" transform="translate(-1096.074951,-127.714997)" opacity="0.7"><path id="egpbEroAm4y5" d="M961.150000,9.130000C962.999302,9.129996,964.666319,8.015466,965.373078,6.306546C966.079837,4.597626,965.687011,2.631205,964.377926,1.324985C963.068841,0.018764,961.101564,-0.369754,959.394197,0.340747C957.686829,1.051248,956.575953,2.720703,956.580000,4.570000C956.585514,7.090035,958.629959,9.130006,961.150000,9.130000Z" fill="rgb(209,209,209)" stroke="none" stroke-width="1"/><path id="egpbEroAm4y6" d="M961.150000,33.740000C963.673941,33.740000,965.720000,31.693941,965.720000,29.170000C965.720000,26.646059,963.673941,24.600000,961.150000,24.600000C958.626059,24.600000,956.580000,26.646059,956.580000,29.170000C956.585500,31.691660,958.628340,33.734500,961.150000,33.740000Z" fill="rgb(209,209,209)" stroke="none" stroke-width="1"/><path id="egpbEroAm4y7" d="M961.150000,58.340000C962.999302,58.339996,964.666319,57.225466,965.373078,55.516546C966.079837,53.807626,965.687011,51.841205,964.377926,50.534985C963.068841,49.228764,961.101564,48.840246,959.394197,49.550747C957.686829,50.261248,956.575953,51.930703,956.580000,53.780000C956.585514,56.300035,958.629959,58.340006,961.150000,58.340000Z" fill="rgb(209,209,209)" stroke="none" stroke-width="1"/><path id="egpbEroAm4y8" d="M961.150000,83C963.673941,83,965.720000,80.953941,965.720000,78.430000C965.720000,75.906059,963.673941,73.860000,961.150000,73.860000C958.626059,73.860000,956.580000,75.906059,956.580000,78.430000C956.585500,80.951660,958.628340,82.994500,961.150000,83Z" fill="rgb(209,209,209)" stroke="none" stroke-width="1"/><path id="egpbEroAm4y9" d="M961.150000,107.560000C963.673941,107.560000,965.720000,105.513941,965.720000,102.990000C965.720000,100.466059,963.673941,98.420000,961.150000,98.420000C958.626059,98.420000,956.580000,100.466059,956.580000,102.990000C956.585500,105.511660,958.628340,107.554500,961.150000,107.560000Z" fill="rgb(209,209,209)" stroke="none" stroke-width="1"/><path id="egpbEroAm4y10" d="M961.150000,132.160000C963.673941,132.160000,965.720000,130.113941,965.720000,127.590000C965.720000,125.066059,963.673941,123.020000,961.150000,123.020000C958.626059,123.020000,956.580000,125.066059,956.580000,127.590000C956.585500,130.111660,958.628340,132.154500,961.150000,132.160000Z" fill="rgb(209,209,209)" stroke="none" stroke-width="1"/><path id="egpbEroAm4y11" d="M961.150000,156.760000C962.999302,156.759996,964.666319,155.645466,965.373078,153.936546C966.079837,152.227626,965.687011,150.261205,964.377926,148.954985C963.068841,147.648764,961.101564,147.260246,959.394197,147.970747C957.686829,148.681248,956.575953,150.350703,956.580000,152.200000C956.585514,154.720035,958.629959,156.760006,961.150000,156.760000Z" fill="rgb(209,209,209)" stroke="none" stroke-width="1"/><path id="egpbEroAm4y12" d="M961.150000,181.620000C962.999302,181.619996,964.666319,180.505466,965.373078,178.796546C966.079837,177.087626,965.687011,175.121205,964.377926,173.814985C963.068841,172.508764,961.101564,172.120246,959.394197,172.830747C957.686829,173.541248,956.575953,175.210703,956.580000,177.060000C956.585514,179.580035,958.629959,181.620006,961.150000,181.620000Z" fill="rgb(209,209,209)" stroke="none" stroke-width="1"/><path id="egpbEroAm4y13" d="M961.150000,206.230000C963.673941,206.230000,965.720000,204.183941,965.720000,201.660000C965.720000,199.136059,963.673941,197.090000,961.150000,197.090000C958.626059,197.090000,956.580000,199.136059,956.580000,201.660000C956.585500,204.181660,958.628340,206.224500,961.150000,206.230000Z" fill="rgb(209,209,209)" stroke="none" stroke-width="1"/><path id="egpbEroAm4y14" d="M961.150000,230.840000C963.673941,230.840000,965.720000,228.793941,965.720000,226.270000C965.720000,223.746059,963.673941,221.700000,961.150000,221.700000C958.626059,221.700000,956.580000,223.746059,956.580000,226.270000C956.585500,228.791660,958.628340,230.834500,961.150000,230.840000Z" fill="rgb(209,209,209)" stroke="none" stroke-width="1"/><path id="egpbEroAm4y15" d="M961.150000,255.440000C963.673941,255.440000,965.720000,253.393941,965.720000,250.870000C965.720000,248.346059,963.673941,246.300000,961.150000,246.300000C958.626059,246.300000,956.580000,248.346059,956.580000,250.870000C956.585500,253.391660,958.628340,255.434500,961.150000,255.440000Z" fill="rgb(209,209,209)" stroke="none" stroke-width="1"/><path id="egpbEroAm4y16" d="M1186.080000,9.130000C1187.929302,9.129996,1189.596319,8.015466,1190.303078,6.306546C1191.009837,4.597626,1190.617011,2.631205,1189.307926,1.324985C1187.998841,0.018764,1186.031564,-0.369754,1184.324197,0.340747C1182.616829,1.051248,1181.505953,2.720703,1181.510000,4.570000C1181.515514,7.090035,1183.559959,9.130006,1186.080000,9.130000Z" fill="rgb(209,209,209)" stroke="none" stroke-width="1"/><path id="egpbEroAm4y17" d="M1186.080000,33.740000C1187.928392,33.740000,1189.594780,32.626555,1190.302129,30.918863C1191.009479,29.211171,1190.618489,27.245533,1189.311478,25.938522C1188.004467,24.631511,1186.038829,24.240521,1184.331137,24.947871C1182.623445,25.655220,1181.510000,27.321608,1181.510000,29.170000C1181.515500,31.691660,1183.558340,33.734500,1186.080000,33.740000Z" fill="rgb(209,209,209)" stroke="none" stroke-width="1"/><path id="egpbEroAm4y18" d="M1186.080000,58.340000C1187.929302,58.339996,1189.596319,57.225466,1190.303078,55.516546C1191.009837,53.807626,1190.617011,51.841205,1189.307926,50.534985C1187.998841,49.228764,1186.031564,48.840246,1184.324197,49.550747C1182.616829,50.261248,1181.505953,51.930703,1181.510000,53.780000C1181.515514,56.300035,1183.559959,58.340006,1186.080000,58.340000Z" fill="rgb(209,209,209)" stroke="none" stroke-width="1"/><path id="egpbEroAm4y19" d="M1186.080000,83C1187.928392,83,1189.594780,81.886555,1190.302129,80.178863C1191.009479,78.471171,1190.618489,76.505533,1189.311478,75.198522C1188.004467,73.891511,1186.038829,73.500521,1184.331137,74.207871C1182.623445,74.915220,1181.510000,76.581608,1181.510000,78.430000C1181.515500,80.951660,1183.558340,82.994500,1186.080000,83Z" fill="rgb(209,209,209)" stroke="none" stroke-width="1"/><path id="egpbEroAm4y20" d="M1186.080000,107.560000C1187.928392,107.560000,1189.594780,106.446555,1190.302129,104.738863C1191.009479,103.031171,1190.618489,101.065533,1189.311478,99.758522C1188.004467,98.451511,1186.038829,98.060521,1184.331137,98.767871C1182.623445,99.475220,1181.510000,101.141608,1181.510000,102.990000C1181.515500,105.511660,1183.558340,107.554500,1186.080000,107.560000Z" fill="rgb(209,209,209)" stroke="none" stroke-width="1"/><path id="egpbEroAm4y21" d="M1186.080000,132.160000C1187.928392,132.160000,1189.594780,131.046555,1190.302129,129.338863C1191.009479,127.631171,1190.618489,125.665533,1189.311478,124.358522C1188.004467,123.051511,1186.038829,122.660521,1184.331137,123.367871C1182.623445,124.075220,1181.510000,125.741608,1181.510000,127.590000C1181.515500,130.111660,1183.558340,132.154500,1186.080000,132.160000Z" fill="rgb(209,209,209)" stroke="none" stroke-width="1"/><path id="egpbEroAm4y22" d="M1186.080000,156.760000C1187.929302,156.759996,1189.596319,155.645466,1190.303078,153.936546C1191.009837,152.227626,1190.617011,150.261205,1189.307926,148.954985C1187.998841,147.648764,1186.031564,147.260246,1184.324197,147.970747C1182.616829,148.681248,1181.505953,150.350703,1181.510000,152.200000C1181.515514,154.720035,1183.559959,156.760006,1186.080000,156.760000Z" fill="rgb(209,209,209)" stroke="none" stroke-width="1"/><path id="egpbEroAm4y23" d="M1186.080000,181.620000C1187.929302,181.619996,1189.596319,180.505466,1190.303078,178.796546C1191.009837,177.087626,1190.617011,175.121205,1189.307926,173.814985C1187.998841,172.508764,1186.031564,172.120246,1184.324197,172.830747C1182.616829,173.541248,1181.505953,175.210703,1181.510000,177.060000C1181.515514,179.580035,1183.559959,181.620006,1186.080000,181.620000Z" fill="rgb(209,209,209)" stroke="none" stroke-width="1"/><path id="egpbEroAm4y24" d="M1186.080000,206.230000C1187.928392,206.230000,1189.594780,205.116555,1190.302129,203.408863C1191.009479,201.701171,1190.618489,199.735533,1189.311478,198.428522C1188.004467,197.121511,1186.038829,196.730521,1184.331137,197.437871C1182.623445,198.145220,1181.510000,199.811608,1181.510000,201.660000C1181.515500,204.181660,1183.558340,206.224500,1186.080000,206.230000Z" fill="rgb(209,209,209)" stroke="none" stroke-width="1"/><path id="egpbEroAm4y25" d="M1186.080000,230.840000C1187.928392,230.840000,1189.594780,229.726555,1190.302129,228.018863C1191.009479,226.311171,1190.618489,224.345533,1189.311478,223.038522C1188.004467,221.731511,1186.038829,221.340521,1184.331137,222.047871C1182.623445,222.755220,1181.510000,224.421608,1181.510000,226.270000C1181.515500,228.791660,1183.558340,230.834500,1186.080000,230.840000Z" fill="rgb(209,209,209)" stroke="none" stroke-width="1"/><path id="egpbEroAm4y26" d="M1186.080000,255.440000C1187.928392,255.440000,1189.594780,254.326555,1190.302129,252.618863C1191.009479,250.911171,1190.618489,248.945533,1189.311478,247.638522C1188.004467,246.331511,1186.038829,245.940521,1184.331137,246.647871C1182.623445,247.355220,1181.510000,249.021608,1181.510000,250.870000C1181.515500,253.391660,1183.558340,255.434500,1186.080000,255.440000Z" fill="rgb(209,209,209)" stroke="none" stroke-width="1"/><path id="egpbEroAm4y27" d="M1141.140000,9.130000C1142.989302,9.129996,1144.656319,8.015466,1145.363078,6.306546C1146.069837,4.597626,1145.677011,2.631205,1144.367926,1.324985C1143.058841,0.018764,1141.091564,-0.369754,1139.384197,0.340747C1137.676829,1.051248,1136.565953,2.720703,1136.570000,4.570000C1136.569997,5.781122,1137.051797,6.942494,1137.909127,7.797948C1138.766457,8.653402,1139.928881,9.132656,1141.140000,9.130000Z" fill="rgb(209,209,209)" stroke="none" stroke-width="1"/><path id="egpbEroAm4y28" d="M1141.140000,33.740000C1142.988392,33.740000,1144.654780,32.626555,1145.362129,30.918863C1146.069479,29.211171,1145.678489,27.245533,1144.371478,25.938522C1143.064467,24.631511,1141.098829,24.240521,1139.391137,24.947871C1137.683445,25.655220,1136.570000,27.321608,1136.570000,29.170000C1136.570000,31.693941,1138.616059,33.740000,1141.140000,33.740000Z" fill="rgb(209,209,209)" stroke="none" stroke-width="1"/><path id="egpbEroAm4y29" d="M1141.140000,58.340000C1142.989302,58.339996,1144.656319,57.225466,1145.363078,55.516546C1146.069837,53.807626,1145.677011,51.841205,1144.367926,50.534985C1143.058841,49.228764,1141.091564,48.840246,1139.384197,49.550747C1137.676829,50.261248,1136.565953,51.930703,1136.570000,53.780000C1136.569997,54.991122,1137.051797,56.152494,1137.909127,57.007948C1138.766457,57.863402,1139.928881,58.342656,1141.140000,58.340000Z" fill="rgb(209,209,209)" stroke="none" stroke-width="1"/><path id="egpbEroAm4y30" d="M1141.140000,83C1142.988392,83,1144.654780,81.886555,1145.362129,80.178863C1146.069479,78.471171,1145.678489,76.505533,1144.371478,75.198522C1143.064467,73.891511,1141.098829,73.500521,1139.391137,74.207871C1137.683445,74.915220,1136.570000,76.581608,1136.570000,78.430000C1136.570000,80.953941,1138.616059,83,1141.140000,83Z" fill="rgb(209,209,209)" stroke="none" stroke-width="1"/><path id="egpbEroAm4y31" d="M1141.140000,107.560000C1142.988392,107.560000,1144.654780,106.446555,1145.362129,104.738863C1146.069479,103.031171,1145.678489,101.065533,1144.371478,99.758522C1143.064467,98.451511,1141.098829,98.060521,1139.391137,98.767871C1137.683445,99.475220,1136.570000,101.141608,1136.570000,102.990000C1136.570000,105.513941,1138.616059,107.560000,1141.140000,107.560000Z" fill="rgb(209,209,209)" stroke="none" stroke-width="1"/><path id="egpbEroAm4y32" d="M1141.140000,132.160000C1142.988392,132.160000,1144.654780,131.046555,1145.362129,129.338863C1146.069479,127.631171,1145.678489,125.665533,1144.371478,124.358522C1143.064467,123.051511,1141.098829,122.660521,1139.391137,123.367871C1137.683445,124.075220,1136.570000,125.741608,1136.570000,127.590000C1136.570000,130.113941,1138.616059,132.160000,1141.140000,132.160000Z" fill="rgb(209,209,209)" stroke="none" stroke-width="1"/><path id="egpbEroAm4y33" d="M1141.140000,156.760000C1142.989302,156.759996,1144.656319,155.645466,1145.363078,153.936546C1146.069837,152.227626,1145.677011,150.261205,1144.367926,148.954985C1143.058841,147.648764,1141.091564,147.260246,1139.384197,147.970747C1137.676829,148.681248,1136.565953,150.350703,1136.570000,152.200000C1136.569997,153.411122,1137.051797,154.572494,1137.909127,155.427948C1138.766457,156.283402,1139.928881,156.762656,1141.140000,156.760000Z" fill="rgb(209,209,209)" stroke="none" stroke-width="1"/><path id="egpbEroAm4y34" d="M1141.140000,181.620000C1142.989302,181.619996,1144.656319,180.505466,1145.363078,178.796546C1146.069837,177.087626,1145.677011,175.121205,1144.367926,173.814985C1143.058841,172.508764,1141.091564,172.120246,1139.384197,172.830747C1137.676829,173.541248,1136.565953,175.210703,1136.570000,177.060000C1136.569997,178.271122,1137.051797,179.432494,1137.909127,180.287948C1138.766457,181.143402,1139.928881,181.622656,1141.140000,181.620000Z" fill="rgb(209,209,209)" stroke="none" stroke-width="1"/><path id="egpbEroAm4y35" d="M1141.140000,206.230000C1142.988392,206.230000,1144.654780,205.116555,1145.362129,203.408863C1146.069479,201.701171,1145.678489,199.735533,1144.371478,198.428522C1143.064467,197.121511,1141.098829,196.730521,1139.391137,197.437871C1137.683445,198.145220,1136.570000,199.811608,1136.570000,201.660000C1136.570000,204.183941,1138.616059,206.230000,1141.140000,206.230000Z" fill="rgb(209,209,209)" stroke="none" stroke-width="1"/><path id="egpbEroAm4y36" d="M1141.140000,230.840000C1142.988392,230.840000,1144.654780,229.726555,1145.362129,228.018863C1146.069479,226.311171,1145.678489,224.345533,1144.371478,223.038522C1143.064467,221.731511,1141.098829,221.340521,1139.391137,222.047871C1137.683445,222.755220,1136.570000,224.421608,1136.570000,226.270000C1136.570000,228.793941,1138.616059,230.840000,1141.140000,230.840000Z" fill="rgb(209,209,209)" stroke="none" stroke-width="1"/><path id="egpbEroAm4y37" d="M1141.140000,255.440000C1142.988392,255.440000,1144.654780,254.326555,1145.362129,252.618863C1146.069479,250.911171,1145.678489,248.945533,1144.371478,247.638522C1143.064467,246.331511,1141.098829,245.940521,1139.391137,246.647871C1137.683445,247.355220,1136.570000,249.021608,1136.570000,250.870000C1136.570000,253.393941,1138.616059,255.440000,1141.140000,255.440000Z" fill="rgb(209,209,209)" stroke="none" stroke-width="1"/><path id="egpbEroAm4y38" d="M1231,9.130000C1232.849302,9.129996,1234.516319,8.015466,1235.223078,6.306546C1235.929837,4.597626,1235.537011,2.631205,1234.227926,1.324985C1232.918841,0.018764,1230.951564,-0.369754,1229.244197,0.340747C1227.536829,1.051248,1226.425953,2.720703,1226.430000,4.570000C1226.435514,7.090035,1228.479959,9.130006,1231,9.130000Z" fill="rgb(209,209,209)" stroke="none" stroke-width="1"/><path id="egpbEroAm4y39" d="M1231,33.740000C1232.848392,33.740000,1234.514780,32.626555,1235.222129,30.918863C1235.929479,29.211171,1235.538489,27.245533,1234.231478,25.938522C1232.924467,24.631511,1230.958829,24.240521,1229.251137,24.947871C1227.543445,25.655220,1226.430000,27.321608,1226.430000,29.170000C1226.435500,31.691660,1228.478340,33.734500,1231,33.740000Z" fill="rgb(209,209,209)" stroke="none" stroke-width="1"/><path id="egpbEroAm4y40" d="M1231,58.340000C1232.849302,58.339996,1234.516319,57.225466,1235.223078,55.516546C1235.929837,53.807626,1235.537011,51.841205,1234.227926,50.534985C1232.918841,49.228764,1230.951564,48.840246,1229.244197,49.550747C1227.536829,50.261248,1226.425953,51.930703,1226.430000,53.780000C1226.435514,56.300035,1228.479959,58.340006,1231,58.340000Z" fill="rgb(209,209,209)" stroke="none" stroke-width="1"/><path id="egpbEroAm4y41" d="M1231,83C1232.848392,83,1234.514780,81.886555,1235.222129,80.178863C1235.929479,78.471171,1235.538489,76.505533,1234.231478,75.198522C1232.924467,73.891511,1230.958829,73.500521,1229.251137,74.207871C1227.543445,74.915220,1226.430000,76.581608,1226.430000,78.430000C1226.435500,80.951660,1228.478340,82.994500,1231,83Z" fill="rgb(209,209,209)" stroke="none" stroke-width="1"/><path id="egpbEroAm4y42" d="M1231,107.560000C1232.848392,107.560000,1234.514780,106.446555,1235.222129,104.738863C1235.929479,103.031171,1235.538489,101.065533,1234.231478,99.758522C1232.924467,98.451511,1230.958829,98.060521,1229.251137,98.767871C1227.543445,99.475220,1226.430000,101.141608,1226.430000,102.990000C1226.435500,105.511660,1228.478340,107.554500,1231,107.560000Z" fill="rgb(209,209,209)" stroke="none" stroke-width="1"/><path id="egpbEroAm4y43" d="M1231,132.160000C1232.848392,132.160000,1234.514780,131.046555,1235.222129,129.338863C1235.929479,127.631171,1235.538489,125.665533,1234.231478,124.358522C1232.924467,123.051511,1230.958829,122.660521,1229.251137,123.367871C1227.543445,124.075220,1226.430000,125.741608,1226.430000,127.590000C1226.435500,130.111660,1228.478340,132.154500,1231,132.160000Z" fill="rgb(209,209,209)" stroke="none" stroke-width="1"/><path id="egpbEroAm4y44" d="M1231,156.760000C1232.849302,156.759996,1234.516319,155.645466,1235.223078,153.936546C1235.929837,152.227626,1235.537011,150.261205,1234.227926,148.954985C1232.918841,147.648764,1230.951564,147.260246,1229.244197,147.970747C1227.536829,148.681248,1226.425953,150.350703,1226.430000,152.200000C1226.435514,154.720035,1228.479959,156.760006,1231,156.760000Z" fill="rgb(209,209,209)" stroke="none" stroke-width="1"/><path id="egpbEroAm4y45" d="M1231,181.620000C1232.849302,181.619996,1234.516319,180.505466,1235.223078,178.796546C1235.929837,177.087626,1235.537011,175.121205,1234.227926,173.814985C1232.918841,172.508764,1230.951564,172.120246,1229.244197,172.830747C1227.536829,173.541248,1226.425953,175.210703,1226.430000,177.060000C1226.435514,179.580035,1228.479959,181.620006,1231,181.620000Z" fill="rgb(209,209,209)" stroke="none" stroke-width="1"/><path id="egpbEroAm4y46" d="M1231,206.230000C1232.848392,206.230000,1234.514780,205.116555,1235.222129,203.408863C1235.929479,201.701171,1235.538489,199.735533,1234.231478,198.428522C1232.924467,197.121511,1230.958829,196.730521,1229.251137,197.437871C1227.543445,198.145220,1226.430000,199.811608,1226.430000,201.660000C1226.435500,204.181660,1228.478340,206.224500,1231,206.230000Z" fill="rgb(209,209,209)" stroke="none" stroke-width="1"/><path id="egpbEroAm4y47" d="M1231,230.840000C1232.848392,230.840000,1234.514780,229.726555,1235.222129,228.018863C1235.929479,226.311171,1235.538489,224.345533,1234.231478,223.038522C1232.924467,221.731511,1230.958829,221.340521,1229.251137,222.047871C1227.543445,222.755220,1226.430000,224.421608,1226.430000,226.270000C1226.435500,228.791660,1228.478340,230.834500,1231,230.840000Z" fill="rgb(209,209,209)" stroke="none" stroke-width="1"/><path id="egpbEroAm4y48" d="M1231,255.440000C1232.848392,255.440000,1234.514780,254.326555,1235.222129,252.618863C1235.929479,250.911171,1235.538489,248.945533,1234.231478,247.638522C1232.924467,246.331511,1230.958829,245.940521,1229.251137,246.647871C1227.543445,247.355220,1226.430000,249.021608,1226.430000,250.870000C1226.435500,253.391660,1228.478340,255.434500,1231,255.440000Z" fill="rgb(209,209,209)" stroke="none" stroke-width="1"/><path id="egpbEroAm4y49" d="M1096,9.130000C1097.849302,9.129996,1099.516319,8.015466,1100.223078,6.306546C1100.929837,4.597626,1100.537011,2.631205,1099.227926,1.324985C1097.918841,0.018764,1095.951564,-0.369754,1094.244197,0.340747C1092.536829,1.051248,1091.425953,2.720703,1091.430000,4.570000C1091.435514,7.090035,1093.479959,9.130006,1096,9.130000Z" fill="rgb(209,209,209)" stroke="none" stroke-width="1"/><path id="egpbEroAm4y50" d="M1096,33.740000C1097.848392,33.740000,1099.514780,32.626555,1100.222129,30.918863C1100.929479,29.211171,1100.538489,27.245533,1099.231478,25.938522C1097.924467,24.631511,1095.958829,24.240521,1094.251137,24.947871C1092.543445,25.655220,1091.430000,27.321608,1091.430000,29.170000C1091.435500,31.691660,1093.478340,33.734500,1096,33.740000Z" fill="rgb(209,209,209)" stroke="none" stroke-width="1"/><path id="egpbEroAm4y51" d="M1096,58.340000C1097.849302,58.339996,1099.516319,57.225466,1100.223078,55.516546C1100.929837,53.807626,1100.537011,51.841205,1099.227926,50.534985C1097.918841,49.228764,1095.951564,48.840246,1094.244197,49.550747C1092.536829,50.261248,1091.425953,51.930703,1091.430000,53.780000C1091.435514,56.300035,1093.479959,58.340006,1096,58.340000Z" fill="rgb(209,209,209)" stroke="none" stroke-width="1"/><path id="egpbEroAm4y52" d="M1096,83C1097.848392,83,1099.514780,81.886555,1100.222129,80.178863C1100.929479,78.471171,1100.538489,76.505533,1099.231478,75.198522C1097.924467,73.891511,1095.958829,73.500521,1094.251137,74.207871C1092.543445,74.915220,1091.430000,76.581608,1091.430000,78.430000C1091.435500,80.951660,1093.478340,82.994500,1096,83Z" fill="rgb(209,209,209)" stroke="none" stroke-width="1"/><path id="egpbEroAm4y53" d="M1096,107.560000C1097.848392,107.560000,1099.514780,106.446555,1100.222129,104.738863C1100.929479,103.031171,1100.538489,101.065533,1099.231478,99.758522C1097.924467,98.451511,1095.958829,98.060521,1094.251137,98.767871C1092.543445,99.475220,1091.430000,101.141608,1091.430000,102.990000C1091.435500,105.511660,1093.478340,107.554500,1096,107.560000Z" fill="rgb(209,209,209)" stroke="none" stroke-width="1"/><path id="egpbEroAm4y54" d="M1096,132.160000C1097.848392,132.160000,1099.514780,131.046555,1100.222129,129.338863C1100.929479,127.631171,1100.538489,125.665533,1099.231478,124.358522C1097.924467,123.051511,1095.958829,122.660521,1094.251137,123.367871C1092.543445,124.075220,1091.430000,125.741608,1091.430000,127.590000C1091.435500,130.111660,1093.478340,132.154500,1096,132.160000Z" fill="rgb(209,209,209)" stroke="none" stroke-width="1"/><path id="egpbEroAm4y55" d="M1096,156.760000C1097.849302,156.759996,1099.516319,155.645466,1100.223078,153.936546C1100.929837,152.227626,1100.537011,150.261205,1099.227926,148.954985C1097.918841,147.648764,1095.951564,147.260246,1094.244197,147.970747C1092.536829,148.681248,1091.425953,150.350703,1091.430000,152.200000C1091.435514,154.720035,1093.479959,156.760006,1096,156.760000Z" fill="rgb(209,209,209)" stroke="none" stroke-width="1"/><path id="egpbEroAm4y56" d="M1096,181.620000C1097.849302,181.619996,1099.516319,180.505466,1100.223078,178.796546C1100.929837,177.087626,1100.537011,175.121205,1099.227926,173.814985C1097.918841,172.508764,1095.951564,172.120246,1094.244197,172.830747C1092.536829,173.541248,1091.425953,175.210703,1091.430000,177.060000C1091.435514,179.580035,1093.479959,181.620006,1096,181.620000Z" fill="rgb(209,209,209)" stroke="none" stroke-width="1"/><path id="egpbEroAm4y57" d="M1096,206.230000C1097.848392,206.230000,1099.514780,205.116555,1100.222129,203.408863C1100.929479,201.701171,1100.538489,199.735533,1099.231478,198.428522C1097.924467,197.121511,1095.958829,196.730521,1094.251137,197.437871C1092.543445,198.145220,1091.430000,199.811608,1091.430000,201.660000C1091.435500,204.181660,1093.478340,206.224500,1096,206.230000Z" fill="rgb(209,209,209)" stroke="none" stroke-width="1"/><path id="egpbEroAm4y58" d="M1096,230.840000C1097.848392,230.840000,1099.514780,229.726555,1100.222129,228.018863C1100.929479,226.311171,1100.538489,224.345533,1099.231478,223.038522C1097.924467,221.731511,1095.958829,221.340521,1094.251137,222.047871C1092.543445,222.755220,1091.430000,224.421608,1091.430000,226.270000C1091.435500,228.791660,1093.478340,230.834500,1096,230.840000Z" fill="rgb(209,209,209)" stroke="none" stroke-width="1"/><path id="egpbEroAm4y59" d="M1096,255.440000C1097.848392,255.440000,1099.514780,254.326555,1100.222129,252.618863C1100.929479,250.911171,1100.538489,248.945533,1099.231478,247.638522C1097.924467,246.331511,1095.958829,245.940521,1094.251137,246.647871C1092.543445,247.355220,1091.430000,249.021608,1091.430000,250.870000C1091.435500,253.391660,1093.478340,255.434500,1096,255.440000Z" fill="rgb(209,209,209)" stroke="none" stroke-width="1"/><path id="egpbEroAm4y60" d="M1051,9.130000C1052.849302,9.129996,1054.516319,8.015466,1055.223078,6.306546C1055.929837,4.597626,1055.537011,2.631205,1054.227926,1.324985C1052.918841,0.018764,1050.951564,-0.369754,1049.244197,0.340747C1047.536829,1.051248,1046.425953,2.720703,1046.430000,4.570000C1046.429997,5.781122,1046.911797,6.942494,1047.769127,7.797948C1048.626457,8.653402,1049.788881,9.132656,1051,9.130000Z" fill="rgb(209,209,209)" stroke="none" stroke-width="1"/><path id="egpbEroAm4y61" d="M1051,33.740000C1052.848392,33.740000,1054.514780,32.626555,1055.222129,30.918863C1055.929479,29.211171,1055.538489,27.245533,1054.231478,25.938522C1052.924467,24.631511,1050.958829,24.240521,1049.251137,24.947871C1047.543445,25.655220,1046.430000,27.321608,1046.430000,29.170000C1046.430000,31.693941,1048.476059,33.740000,1051,33.740000Z" fill="rgb(209,209,209)" stroke="none" stroke-width="1"/><path id="egpbEroAm4y62" d="M1051,58.340000C1052.849302,58.339996,1054.516319,57.225466,1055.223078,55.516546C1055.929837,53.807626,1055.537011,51.841205,1054.227926,50.534985C1052.918841,49.228764,1050.951564,48.840246,1049.244197,49.550747C1047.536829,50.261248,1046.425953,51.930703,1046.430000,53.780000C1046.429997,54.991122,1046.911797,56.152494,1047.769127,57.007948C1048.626457,57.863402,1049.788881,58.342656,1051,58.340000Z" fill="rgb(209,209,209)" stroke="none" stroke-width="1"/><path id="egpbEroAm4y63" d="M1051,83C1052.848392,83,1054.514780,81.886555,1055.222129,80.178863C1055.929479,78.471171,1055.538489,76.505533,1054.231478,75.198522C1052.924467,73.891511,1050.958829,73.500521,1049.251137,74.207871C1047.543445,74.915220,1046.430000,76.581608,1046.430000,78.430000C1046.430000,80.953941,1048.476059,83,1051,83Z" fill="rgb(209,209,209)" stroke="none" stroke-width="1"/><path id="egpbEroAm4y64" d="M1051,107.560000C1052.848392,107.560000,1054.514780,106.446555,1055.222129,104.738863C1055.929479,103.031171,1055.538489,101.065533,1054.231478,99.758522C1052.924467,98.451511,1050.958829,98.060521,1049.251137,98.767871C1047.543445,99.475220,1046.430000,101.141608,1046.430000,102.990000C1046.430000,105.513941,1048.476059,107.560000,1051,107.560000Z" fill="rgb(209,209,209)" stroke="none" stroke-width="1"/><path id="egpbEroAm4y65" d="M1051,132.160000C1052.848392,132.160000,1054.514780,131.046555,1055.222129,129.338863C1055.929479,127.631171,1055.538489,125.665533,1054.231478,124.358522C1052.924467,123.051511,1050.958829,122.660521,1049.251137,123.367871C1047.543445,124.075220,1046.430000,125.741608,1046.430000,127.590000C1046.430000,130.113941,1048.476059,132.160000,1051,132.160000Z" fill="rgb(209,209,209)" stroke="none" stroke-width="1"/><path id="egpbEroAm4y66" d="M1051,156.760000C1052.849302,156.759996,1054.516319,155.645466,1055.223078,153.936546C1055.929837,152.227626,1055.537011,150.261205,1054.227926,148.954985C1052.918841,147.648764,1050.951564,147.260246,1049.244197,147.970747C1047.536829,148.681248,1046.425953,150.350703,1046.430000,152.200000C1046.429997,153.411122,1046.911797,154.572494,1047.769127,155.427948C1048.626457,156.283402,1049.788881,156.762656,1051,156.760000Z" fill="rgb(209,209,209)" stroke="none" stroke-width="1"/><path id="egpbEroAm4y67" d="M1051,181.620000C1052.849302,181.619996,1054.516319,180.505466,1055.223078,178.796546C1055.929837,177.087626,1055.537011,175.121205,1054.227926,173.814985C1052.918841,172.508764,1050.951564,172.120246,1049.244197,172.830747C1047.536829,173.541248,1046.425953,175.210703,1046.430000,177.060000C1046.429997,178.271122,1046.911797,179.432494,1047.769127,180.287948C1048.626457,181.143402,1049.788881,181.622656,1051,181.620000Z" fill="rgb(209,209,209)" stroke="none" stroke-width="1"/><path id="egpbEroAm4y68" d="M1051,206.230000C1052.848392,206.230000,1054.514780,205.116555,1055.222129,203.408863C1055.929479,201.701171,1055.538489,199.735533,1054.231478,198.428522C1052.924467,197.121511,1050.958829,196.730521,1049.251137,197.437871C1047.543445,198.145220,1046.430000,199.811608,1046.430000,201.660000C1046.430000,204.183941,1048.476059,206.230000,1051,206.230000Z" fill="rgb(209,209,209)" stroke="none" stroke-width="1"/><path id="egpbEroAm4y69" d="M1051,230.840000C1052.848392,230.840000,1054.514780,229.726555,1055.222129,228.018863C1055.929479,226.311171,1055.538489,224.345533,1054.231478,223.038522C1052.924467,221.731511,1050.958829,221.340521,1049.251137,222.047871C1047.543445,222.755220,1046.430000,224.421608,1046.430000,226.270000C1046.430000,228.793941,1048.476059,230.840000,1051,230.840000Z" fill="rgb(209,209,209)" stroke="none" stroke-width="1"/><path id="egpbEroAm4y70" d="M1051,255.440000C1052.848392,255.440000,1054.514780,254.326555,1055.222129,252.618863C1055.929479,250.911171,1055.538489,248.945533,1054.231478,247.638522C1052.924467,246.331511,1050.958829,245.940521,1049.251137,246.647871C1047.543445,247.355220,1046.430000,249.021608,1046.430000,250.870000C1046.430000,253.393941,1048.476059,255.440000,1051,255.440000Z" fill="rgb(209,209,209)" stroke="none" stroke-width="1"/><path id="egpbEroAm4y71" d="M1006.080000,9.130000C1007.929302,9.129996,1009.596319,8.015466,1010.303078,6.306546C1011.009837,4.597626,1010.617011,2.631205,1009.307926,1.324985C1007.998841,0.018764,1006.031564,-0.369754,1004.324197,0.340747C1002.616829,1.051248,1001.505953,2.720703,1001.510000,4.570000C1001.509997,5.781122,1001.991797,6.942494,1002.849127,7.797948C1003.706457,8.653402,1004.868881,9.132656,1006.080000,9.130000Z" fill="rgb(209,209,209)" stroke="none" stroke-width="1"/><path id="egpbEroAm4y72" d="M1006.080000,33.740000C1008.603941,33.740000,1010.650000,31.693941,1010.650000,29.170000C1010.650000,26.646059,1008.603941,24.600000,1006.080000,24.600000C1003.556059,24.600000,1001.510000,26.646059,1001.510000,29.170000C1001.510000,30.382039,1001.991481,31.544437,1002.848522,32.401478C1003.705563,33.258519,1004.867961,33.740000,1006.080000,33.740000Z" fill="rgb(209,209,209)" stroke="none" stroke-width="1"/><path id="egpbEroAm4y73" d="M1006.080000,58.340000C1007.929302,58.339996,1009.596319,57.225466,1010.303078,55.516546C1011.009837,53.807626,1010.617011,51.841205,1009.307926,50.534985C1007.998841,49.228764,1006.031564,48.840246,1004.324197,49.550747C1002.616829,50.261248,1001.505953,51.930703,1001.510000,53.780000C1001.509997,54.991122,1001.991797,56.152494,1002.849127,57.007948C1003.706457,57.863402,1004.868881,58.342656,1006.080000,58.340000Z" fill="rgb(209,209,209)" stroke="none" stroke-width="1"/><path id="egpbEroAm4y74" d="M1006.080000,83C1008.603941,83,1010.650000,80.953941,1010.650000,78.430000C1010.650000,75.906059,1008.603941,73.860000,1006.080000,73.860000C1003.556059,73.860000,1001.510000,75.906059,1001.510000,78.430000C1001.510000,79.642039,1001.991481,80.804437,1002.848522,81.661478C1003.705563,82.518519,1004.867961,83,1006.080000,83Z" fill="rgb(209,209,209)" stroke="none" stroke-width="1"/><path id="egpbEroAm4y75" d="M1006.080000,107.560000C1008.603941,107.560000,1010.650000,105.513941,1010.650000,102.990000C1010.650000,100.466059,1008.603941,98.420000,1006.080000,98.420000C1003.556059,98.420000,1001.510000,100.466059,1001.510000,102.990000C1001.510000,104.202039,1001.991481,105.364437,1002.848522,106.221478C1003.705563,107.078519,1004.867961,107.560000,1006.080000,107.560000Z" fill="rgb(209,209,209)" stroke="none" stroke-width="1"/><path id="egpbEroAm4y76" d="M1006.080000,132.160000C1008.603941,132.160000,1010.650000,130.113941,1010.650000,127.590000C1010.650000,125.066059,1008.603941,123.020000,1006.080000,123.020000C1003.556059,123.020000,1001.510000,125.066059,1001.510000,127.590000C1001.510000,128.802039,1001.991481,129.964437,1002.848522,130.821478C1003.705563,131.678519,1004.867961,132.160000,1006.080000,132.160000Z" fill="rgb(209,209,209)" stroke="none" stroke-width="1"/><path id="egpbEroAm4y77" d="M1006.080000,156.760000C1007.929302,156.759996,1009.596319,155.645466,1010.303078,153.936546C1011.009837,152.227626,1010.617011,150.261205,1009.307926,148.954985C1007.998841,147.648764,1006.031564,147.260246,1004.324197,147.970747C1002.616829,148.681248,1001.505953,150.350703,1001.510000,152.200000C1001.509997,153.411122,1001.991797,154.572494,1002.849127,155.427948C1003.706457,156.283402,1004.868881,156.762656,1006.080000,156.760000Z" fill="rgb(209,209,209)" stroke="none" stroke-width="1"/><path id="egpbEroAm4y78" d="M1006.080000,181.620000C1007.929302,181.619996,1009.596319,180.505466,1010.303078,178.796546C1011.009837,177.087626,1010.617011,175.121205,1009.307926,173.814985C1007.998841,172.508764,1006.031564,172.120246,1004.324197,172.830747C1002.616829,173.541248,1001.505953,175.210703,1001.510000,177.060000C1001.509997,178.271122,1001.991797,179.432494,1002.849127,180.287948C1003.706457,181.143402,1004.868881,181.622656,1006.080000,181.620000Z" fill="rgb(209,209,209)" stroke="none" stroke-width="1"/><path id="egpbEroAm4y79" d="M1006.080000,206.230000C1008.603941,206.230000,1010.650000,204.183941,1010.650000,201.660000C1010.650000,199.136059,1008.603941,197.090000,1006.080000,197.090000C1003.556059,197.090000,1001.510000,199.136059,1001.510000,201.660000C1001.510000,202.872039,1001.991481,204.034437,1002.848522,204.891478C1003.705563,205.748519,1004.867961,206.230000,1006.080000,206.230000Z" fill="rgb(209,209,209)" stroke="none" stroke-width="1"/><path id="egpbEroAm4y80" d="M1006.080000,230.840000C1008.603941,230.840000,1010.650000,228.793941,1010.650000,226.270000C1010.650000,223.746059,1008.603941,221.700000,1006.080000,221.700000C1003.556059,221.700000,1001.510000,223.746059,1001.510000,226.270000C1001.510000,227.482039,1001.991481,228.644437,1002.848522,229.501478C1003.705563,230.358519,1004.867961,230.840000,1006.080000,230.840000Z" fill="rgb(209,209,209)" stroke="none" stroke-width="1"/><path id="egpbEroAm4y81" d="M1006.080000,255.440000C1008.603941,255.440000,1010.650000,253.393941,1010.650000,250.870000C1010.650000,248.346059,1008.603941,246.300000,1006.080000,246.300000C1003.556059,246.300000,1001.510000,248.346059,1001.510000,250.870000C1001.510000,252.082039,1001.991481,253.244437,1002.848522,254.101478C1003.705563,254.958519,1004.867961,255.440000,1006.080000,255.440000Z" fill="rgb(209,209,209)" stroke="none" stroke-width="1"/></g></g><g id="egpbEroAm4y82_to" transform="translate(172.570000,559.790000)"><g id="egpbEroAm4y82" display="none" transform="translate(-145.574870,-535.794968)" opacity="0.7"><path id="egpbEroAm4y83" d="M10.640000,417.210000C12.489302,417.209996,14.156319,416.095466,14.863078,414.386546C15.569837,412.677626,15.177011,410.711205,13.867926,409.404985C12.558841,408.098764,10.591564,407.710246,8.884197,408.420747C7.176829,409.131248,6.065953,410.800703,6.070000,412.650000C6.075514,415.170035,8.119959,417.210006,10.640000,417.210000Z" fill="rgb(209,209,209)" stroke="none" stroke-width="1"/><path id="egpbEroAm4y84" d="M10.640000,441.820000C12.488392,441.820000,14.154780,440.706555,14.862129,438.998863C15.569479,437.291171,15.178489,435.325533,13.871478,434.018522C12.564467,432.711511,10.598829,432.320521,8.891137,433.027871C7.183445,433.735220,6.070000,435.401608,6.070000,437.250000C6.075500,439.771660,8.118340,441.814500,10.640000,441.820000Z" fill="rgb(209,209,209)" stroke="none" stroke-width="1"/><path id="egpbEroAm4y85" d="M10.640000,466.420000C12.489302,466.419996,14.156319,465.305466,14.863078,463.596546C15.569837,461.887626,15.177011,459.921205,13.867926,458.614985C12.558841,457.308764,10.591564,456.920246,8.884197,457.630747C7.176829,458.341248,6.065953,460.010703,6.070000,461.860000C6.075514,464.380035,8.119959,466.420006,10.640000,466.420000Z" fill="rgb(209,209,209)" stroke="none" stroke-width="1"/><path id="egpbEroAm4y86" d="M10.640000,491C12.488392,491,14.154780,489.886555,14.862129,488.178863C15.569479,486.471171,15.178489,484.505533,13.871478,483.198522C12.564467,481.891511,10.598829,481.500521,8.891137,482.207871C7.183445,482.915220,6.070000,484.581608,6.070000,486.430000C6.075500,488.951660,8.118340,490.994500,10.640000,491Z" fill="rgb(209,209,209)" stroke="none" stroke-width="1"/><path id="egpbEroAm4y87" d="M10.640000,515.640000C12.488392,515.640000,14.154780,514.526555,14.862129,512.818863C15.569479,511.111171,15.178489,509.145533,13.871478,507.838522C12.564467,506.531511,10.598829,506.140521,8.891137,506.847871C7.183445,507.555220,6.070000,509.221608,6.070000,511.070000C6.075500,513.591660,8.118340,515.634500,10.640000,515.640000Z" fill="rgb(209,209,209)" stroke="none" stroke-width="1"/><path id="egpbEroAm4y88" d="M10.640000,540.240000C13.163941,540.240000,15.210000,538.193941,15.210000,535.670000C15.210000,533.146059,13.163941,531.100000,10.640000,531.100000C8.116059,531.100000,6.070000,533.146059,6.070000,535.670000C6.075500,538.191660,8.118340,540.234500,10.640000,540.240000Z" fill="rgb(209,209,209)" stroke="none" stroke-width="1"/><path id="egpbEroAm4y89" d="M10.640000,564.840000C12.489302,564.839996,14.156319,563.725466,14.863078,562.016546C15.569837,560.307626,15.177011,558.341205,13.867926,557.034985C12.558841,555.728764,10.591564,555.340246,8.884197,556.050747C7.176829,556.761248,6.065953,558.430703,6.070000,560.280000C6.075514,562.800035,8.119959,564.840006,10.640000,564.840000Z" fill="rgb(209,209,209)" stroke="none" stroke-width="1"/><path id="egpbEroAm4y90" d="M10.640000,589.700000C12.489302,589.699996,14.156319,588.585466,14.863078,586.876546C15.569837,585.167626,15.177011,583.201205,13.867926,581.894985C12.558841,580.588764,10.591564,580.200246,8.884197,580.910747C7.176829,581.621248,6.065953,583.290703,6.070000,585.140000C6.075514,587.660035,8.119959,589.700006,10.640000,589.700000Z" fill="rgb(209,209,209)" stroke="none" stroke-width="1"/><path id="egpbEroAm4y91" d="M10.640000,614.310000C13.163941,614.310000,15.210000,612.263941,15.210000,609.740000C15.210000,607.216059,13.163941,605.170000,10.640000,605.170000C8.116059,605.170000,6.070000,607.216059,6.070000,609.740000C6.075500,612.261660,8.118340,614.304500,10.640000,614.310000Z" fill="rgb(209,209,209)" stroke="none" stroke-width="1"/><path id="egpbEroAm4y92" d="M10.640000,638.920000C13.163941,638.920000,15.210000,636.873941,15.210000,634.350000C15.210000,631.826059,13.163941,629.780000,10.640000,629.780000C8.116059,629.780000,6.070000,631.826059,6.070000,634.350000C6.075500,636.871660,8.118340,638.914500,10.640000,638.920000Z" fill="rgb(209,209,209)" stroke="none" stroke-width="1"/><path id="egpbEroAm4y93" d="M10.640000,663.520000C12.492919,663.519889,14.162383,662.400957,14.866702,660.687118C15.571021,658.973280,15.170779,657.003781,13.853381,655.700796C12.535983,654.397812,10.562200,654.019260,8.856213,654.742390C7.150227,655.465520,6.049727,657.147192,6.070000,659C6.102776,661.502112,8.137679,663.514751,10.640000,663.520000Z" fill="rgb(209,209,209)" stroke="none" stroke-width="1"/><path id="egpbEroAm4y94" d="M235.570000,417.210000C237.419302,417.209996,239.086319,416.095466,239.793078,414.386546C240.499837,412.677626,240.107011,410.711205,238.797926,409.404985C237.488841,408.098764,235.521564,407.710246,233.814197,408.420747C232.106829,409.131248,230.995953,410.800703,231,412.650000C231.005514,415.170035,233.049959,417.210006,235.570000,417.210000Z" fill="rgb(209,209,209)" stroke="none" stroke-width="1"/><path id="egpbEroAm4y95" d="M235.570000,441.820000C237.418392,441.820000,239.084780,440.706555,239.792129,438.998863C240.499479,437.291171,240.108489,435.325533,238.801478,434.018522C237.494467,432.711511,235.528829,432.320521,233.821137,433.027871C232.113445,433.735220,231,435.401608,231,437.250000C231.005500,439.771660,233.048340,441.814500,235.570000,441.820000Z" fill="rgb(209,209,209)" stroke="none" stroke-width="1"/><path id="egpbEroAm4y96" d="M235.570000,466.420000C237.419302,466.419996,239.086319,465.305466,239.793078,463.596546C240.499837,461.887626,240.107011,459.921205,238.797926,458.614985C237.488841,457.308764,235.521564,456.920246,233.814197,457.630747C232.106829,458.341248,230.995953,460.010703,231,461.860000C231.005514,464.380035,233.049959,466.420006,235.570000,466.420000Z" fill="rgb(209,209,209)" stroke="none" stroke-width="1"/><path id="egpbEroAm4y97" d="M235.570000,491C237.418392,491,239.084780,489.886555,239.792129,488.178863C240.499479,486.471171,240.108489,484.505533,238.801478,483.198522C237.494467,481.891511,235.528829,481.500521,233.821137,482.207871C232.113445,482.915220,231,484.581608,231,486.430000C231.005500,488.951660,233.048340,490.994500,235.570000,491Z" fill="rgb(209,209,209)" stroke="none" stroke-width="1"/><path id="egpbEroAm4y98" d="M235.570000,515.640000C237.418392,515.640000,239.084780,514.526555,239.792129,512.818863C240.499479,511.111171,240.108489,509.145533,238.801478,507.838522C237.494467,506.531511,235.528829,506.140521,233.821137,506.847871C232.113445,507.555220,231,509.221608,231,511.070000C231.005500,513.591660,233.048340,515.634500,235.570000,515.640000Z" fill="rgb(209,209,209)" stroke="none" stroke-width="1"/><path id="egpbEroAm4y99" d="M235.570000,540.240000C238.093941,540.240000,240.140000,538.193941,240.140000,535.670000C240.140000,533.146059,238.093941,531.100000,235.570000,531.100000C233.046059,531.100000,231,533.146059,231,535.670000C231.005500,538.191660,233.048340,540.234500,235.570000,540.240000Z" fill="rgb(209,209,209)" stroke="none" stroke-width="1"/><path id="egpbEroAm4y100" d="M235.570000,564.840000C237.419302,564.839996,239.086319,563.725466,239.793078,562.016546C240.499837,560.307626,240.107011,558.341205,238.797926,557.034985C237.488841,555.728764,235.521564,555.340246,233.814197,556.050747C232.106829,556.761248,230.995953,558.430703,231,560.280000C231.005514,562.800035,233.049959,564.840006,235.570000,564.840000Z" fill="rgb(209,209,209)" stroke="none" stroke-width="1"/><path id="egpbEroAm4y101" d="M235.570000,589.700000C237.419302,589.699996,239.086319,588.585466,239.793078,586.876546C240.499837,585.167626,240.107011,583.201205,238.797926,581.894985C237.488841,580.588764,235.521564,580.200246,233.814197,580.910747C232.106829,581.621248,230.995953,583.290703,231,585.140000C231.005514,587.660035,233.049959,589.700006,235.570000,589.700000Z" fill="rgb(209,209,209)" stroke="none" stroke-width="1"/><path id="egpbEroAm4y102" d="M235.570000,614.310000C238.093941,614.310000,240.140000,612.263941,240.140000,609.740000C240.140000,607.216059,238.093941,605.170000,235.570000,605.170000C233.046059,605.170000,231,607.216059,231,609.740000C231.005500,612.261660,233.048340,614.304500,235.570000,614.310000Z" fill="rgb(209,209,209)" stroke="none" stroke-width="1"/><path id="egpbEroAm4y103" d="M235.570000,638.920000C238.093941,638.920000,240.140000,636.873941,240.140000,634.350000C240.140000,631.826059,238.093941,629.780000,235.570000,629.780000C233.046059,629.780000,231,631.826059,231,634.350000C231.005500,636.871660,233.048340,638.914500,235.570000,638.920000Z" fill="rgb(209,209,209)" stroke="none" stroke-width="1"/><path id="egpbEroAm4y104" d="M235.570000,663.520000C237.422919,663.519889,239.092383,662.400957,239.796702,660.687118C240.501021,658.973280,240.100779,657.003781,238.783381,655.700796C237.465983,654.397812,235.492200,654.019260,233.786213,654.742390C232.080227,655.465520,230.979727,657.147192,231,659C231.032776,661.502112,233.067679,663.514751,235.570000,663.520000Z" fill="rgb(209,209,209)" stroke="none" stroke-width="1"/><path id="egpbEroAm4y105" d="M190.630000,417.210000C192.479302,417.209996,194.146319,416.095466,194.853078,414.386546C195.559837,412.677626,195.167011,410.711205,193.857926,409.404985C192.548841,408.098764,190.581564,407.710246,188.874197,408.420747C187.166829,409.131248,186.055953,410.800703,186.060000,412.650000C186.059997,413.861122,186.541797,415.022494,187.399127,415.877948C188.256457,416.733402,189.418881,417.212656,190.630000,417.210000Z" fill="rgb(209,209,209)" stroke="none" stroke-width="1"/><path id="egpbEroAm4y106" d="M190.630000,441.820000C192.478392,441.820000,194.144780,440.706555,194.852129,438.998863C195.559479,437.291171,195.168489,435.325533,193.861478,434.018522C192.554467,432.711511,190.588829,432.320521,188.881137,433.027871C187.173445,433.735220,186.060000,435.401608,186.060000,437.250000C186.060000,439.773941,188.106059,441.820000,190.630000,441.820000Z" fill="rgb(209,209,209)" stroke="none" stroke-width="1"/><path id="egpbEroAm4y107" d="M190.630000,466.420000C192.479302,466.419996,194.146319,465.305466,194.853078,463.596546C195.559837,461.887626,195.167011,459.921205,193.857926,458.614985C192.548841,457.308764,190.581564,456.920246,188.874197,457.630747C187.166829,458.341248,186.055953,460.010703,186.060000,461.860000C186.059997,463.071122,186.541797,464.232494,187.399127,465.087948C188.256457,465.943402,189.418881,466.422656,190.630000,466.420000Z" fill="rgb(209,209,209)" stroke="none" stroke-width="1"/><path id="egpbEroAm4y108" d="M190.630000,491C192.478392,491,194.144780,489.886555,194.852129,488.178863C195.559479,486.471171,195.168489,484.505533,193.861478,483.198522C192.554467,481.891511,190.588829,481.500521,188.881137,482.207871C187.173445,482.915220,186.060000,484.581608,186.060000,486.430000C186.060000,488.953941,188.106059,491,190.630000,491Z" fill="rgb(209,209,209)" stroke="none" stroke-width="1"/><path id="egpbEroAm4y109" d="M190.630000,515.640000C192.478392,515.640000,194.144780,514.526555,194.852129,512.818863C195.559479,511.111171,195.168489,509.145533,193.861478,507.838522C192.554467,506.531511,190.588829,506.140521,188.881137,506.847871C187.173445,507.555220,186.060000,509.221608,186.060000,511.070000C186.060000,513.593941,188.106059,515.640000,190.630000,515.640000Z" fill="rgb(209,209,209)" stroke="none" stroke-width="1"/><path id="egpbEroAm4y110" d="M190.630000,540.240000C193.153941,540.240000,195.200000,538.193941,195.200000,535.670000C195.200000,533.146059,193.153941,531.100000,190.630000,531.100000C188.106059,531.100000,186.060000,533.146059,186.060000,535.670000C186.060000,536.882039,186.541481,538.044437,187.398522,538.901478C188.255563,539.758519,189.417961,540.240000,190.630000,540.240000Z" fill="rgb(209,209,209)" stroke="none" stroke-width="1"/><path id="egpbEroAm4y111" d="M190.630000,564.840000C192.479302,564.839996,194.146319,563.725466,194.853078,562.016546C195.559837,560.307626,195.167011,558.341205,193.857926,557.034985C192.548841,555.728764,190.581564,555.340246,188.874197,556.050747C187.166829,556.761248,186.055953,558.430703,186.060000,560.280000C186.059997,561.491122,186.541797,562.652494,187.399127,563.507948C188.256457,564.363402,189.418881,564.842656,190.630000,564.840000Z" fill="rgb(209,209,209)" stroke="none" stroke-width="1"/><path id="egpbEroAm4y112" d="M190.630000,589.700000C192.479302,589.699996,194.146319,588.585466,194.853078,586.876546C195.559837,585.167626,195.167011,583.201205,193.857926,581.894985C192.548841,580.588764,190.581564,580.200246,188.874197,580.910747C187.166829,581.621248,186.055953,583.290703,186.060000,585.140000C186.059997,586.351122,186.541797,587.512494,187.399127,588.367948C188.256457,589.223402,189.418881,589.702656,190.630000,589.700000Z" fill="rgb(209,209,209)" stroke="none" stroke-width="1"/><path id="egpbEroAm4y113" d="M190.630000,614.310000C193.153941,614.310000,195.200000,612.263941,195.200000,609.740000C195.200000,607.216059,193.153941,605.170000,190.630000,605.170000C188.106059,605.170000,186.060000,607.216059,186.060000,609.740000C186.060000,610.952039,186.541481,612.114437,187.398522,612.971478C188.255563,613.828519,189.417961,614.310000,190.630000,614.310000Z" fill="rgb(209,209,209)" stroke="none" stroke-width="1"/><path id="egpbEroAm4y114" d="M190.630000,638.920000C193.153941,638.920000,195.200000,636.873941,195.200000,634.350000C195.200000,631.826059,193.153941,629.780000,190.630000,629.780000C188.106059,629.780000,186.060000,631.826059,186.060000,634.350000C186.060000,635.562039,186.541481,636.724437,187.398522,637.581478C188.255563,638.438519,189.417961,638.920000,190.630000,638.920000Z" fill="rgb(209,209,209)" stroke="none" stroke-width="1"/><path id="egpbEroAm4y115" d="M190.630000,663.520000C193.153941,663.520000,195.200000,661.473941,195.200000,658.950000C195.200000,656.426059,193.153941,654.380000,190.630000,654.380000C188.106059,654.380000,186.060000,656.426059,186.060000,658.950000C186.060000,660.162039,186.541481,661.324437,187.398522,662.181478C188.255563,663.038519,189.417961,663.520000,190.630000,663.520000Z" fill="rgb(209,209,209)" stroke="none" stroke-width="1"/><path id="egpbEroAm4y116" d="M280.500000,417.210000C282.350206,417.214044,284.020292,416.102084,284.730205,414.393488C285.440117,412.684891,285.049764,410.716829,283.741467,409.408533C282.433171,408.100236,280.465109,407.709883,278.756512,408.419795C277.047916,409.129708,275.935956,410.799794,275.940000,412.650000C275.940000,413.859387,276.420427,415.019241,277.275593,415.874407C278.130759,416.729573,279.290613,417.210000,280.500000,417.210000Z" fill="rgb(209,209,209)" stroke="none" stroke-width="1"/><path id="egpbEroAm4y117" d="M280.500000,441.820000C282.349297,441.824047,284.018752,440.713171,284.729253,439.005803C285.439754,437.298436,285.051236,435.331159,283.745015,434.022074C282.438795,432.712989,280.472374,432.320163,278.763454,433.026922C277.054534,433.733681,275.940004,435.400698,275.940000,437.250000C275.939994,439.770041,277.979965,441.814486,280.500000,441.820000Z" fill="rgb(209,209,209)" stroke="none" stroke-width="1"/><path id="egpbEroAm4y118" d="M280.500000,466.420000C282.350206,466.424044,284.020292,465.312084,284.730205,463.603488C285.440117,461.894891,285.049764,459.926829,283.741467,458.618533C282.433171,457.310236,280.465109,456.919883,278.756512,457.629795C277.047916,458.339708,275.935956,460.009794,275.940000,461.860000C275.940000,463.069387,276.420427,464.229241,277.275593,465.084407C278.130759,465.939573,279.290613,466.420000,280.500000,466.420000Z" fill="rgb(209,209,209)" stroke="none" stroke-width="1"/><path id="egpbEroAm4y119" d="M280.500000,491C282.349297,491.004047,284.018752,489.893171,284.729253,488.185803C285.439754,486.478436,285.051236,484.511159,283.745015,483.202074C282.438795,481.892989,280.472374,481.500163,278.763454,482.206922C277.054534,482.913681,275.940004,484.580698,275.940000,486.430000C275.939994,488.950041,277.979965,490.994486,280.500000,491Z" fill="rgb(209,209,209)" stroke="none" stroke-width="1"/><path id="egpbEroAm4y120" d="M280.500000,515.640000C282.349297,515.644047,284.018752,514.533171,284.729253,512.825803C285.439754,511.118436,285.051236,509.151159,283.745015,507.842074C282.438795,506.532989,280.472374,506.140163,278.763454,506.846922C277.054534,507.553681,275.940004,509.220698,275.940000,511.070000C275.939994,513.590041,277.979965,515.634486,280.500000,515.640000Z" fill="rgb(209,209,209)" stroke="none" stroke-width="1"/><path id="egpbEroAm4y121" d="M280.500000,540.240000C282.349297,540.244047,284.018752,539.133171,284.729253,537.425803C285.439754,535.718436,285.051236,533.751159,283.745015,532.442074C282.438795,531.132989,280.472374,530.740163,278.763454,531.446922C277.054534,532.153681,275.940004,533.820698,275.940000,535.670000C275.939994,538.190041,277.979965,540.234486,280.500000,540.240000Z" fill="rgb(209,209,209)" stroke="none" stroke-width="1"/><path id="egpbEroAm4y122" d="M280.500000,564.840000C282.350206,564.844044,284.020292,563.732084,284.730205,562.023488C285.440117,560.314891,285.049764,558.346829,283.741467,557.038533C282.433171,555.730236,280.465109,555.339883,278.756512,556.049795C277.047916,556.759708,275.935956,558.429794,275.940000,560.280000C275.940000,562.798418,277.981582,564.840000,280.500000,564.840000Z" fill="rgb(209,209,209)" stroke="none" stroke-width="1"/><path id="egpbEroAm4y123" d="M280.500000,589.700000C282.350206,589.704044,284.020292,588.592084,284.730205,586.883488C285.440117,585.174891,285.049764,583.206829,283.741467,581.898533C282.433171,580.590236,280.465109,580.199883,278.756512,580.909795C277.047916,581.619708,275.935956,583.289794,275.940000,585.140000C275.940000,587.658418,277.981582,589.700000,280.500000,589.700000Z" fill="rgb(209,209,209)" stroke="none" stroke-width="1"/><path id="egpbEroAm4y124" d="M280.500000,614.310000C282.349297,614.314047,284.018752,613.203171,284.729253,611.495803C285.439754,609.788436,285.051236,607.821159,283.745015,606.512074C282.438795,605.202989,280.472374,604.810163,278.763454,605.516922C277.054534,606.223681,275.940004,607.890698,275.940000,609.740000C275.939994,612.260041,277.979965,614.304486,280.500000,614.310000Z" fill="rgb(209,209,209)" stroke="none" stroke-width="1"/><path id="egpbEroAm4y125" d="M280.500000,638.920000C282.349297,638.924047,284.018752,637.813171,284.729253,636.105803C285.439754,634.398436,285.051236,632.431159,283.745015,631.122074C282.438795,629.812989,280.472374,629.420163,278.763454,630.126922C277.054534,630.833681,275.940004,632.500698,275.940000,634.350000C275.939994,636.870041,277.979965,638.914486,280.500000,638.920000Z" fill="rgb(209,209,209)" stroke="none" stroke-width="1"/><path id="egpbEroAm4y126" d="M280.500000,663.520000C282.349297,663.524047,284.018752,662.413171,284.729253,660.705803C285.439754,658.998436,285.051236,657.031159,283.745015,655.722074C282.438795,654.412989,280.472374,654.020163,278.763454,654.726922C277.054534,655.433681,275.940004,657.100698,275.940000,658.950000C275.939994,661.470041,277.979965,663.514486,280.500000,663.520000Z" fill="rgb(209,209,209)" stroke="none" stroke-width="1"/><path id="egpbEroAm4y127" d="M145.440000,417.210000C147.289302,417.209996,148.956319,416.095466,149.663078,414.386546C150.369837,412.677626,149.977011,410.711205,148.667926,409.404985C147.358841,408.098764,145.391564,407.710246,143.684197,408.420747C141.976829,409.131248,140.865953,410.800703,140.870000,412.650000C140.869997,413.861122,141.351797,415.022494,142.209127,415.877948C143.066457,416.733402,144.228881,417.212656,145.440000,417.210000Z" fill="rgb(209,209,209)" stroke="none" stroke-width="1"/><path id="egpbEroAm4y128" d="M145.440000,441.820000C147.288392,441.820000,148.954780,440.706555,149.662129,438.998863C150.369479,437.291171,149.978489,435.325533,148.671478,434.018522C147.364467,432.711511,145.398829,432.320521,143.691137,433.027871C141.983445,433.735220,140.870000,435.401608,140.870000,437.250000C140.870000,439.773941,142.916059,441.820000,145.440000,441.820000Z" fill="rgb(209,209,209)" stroke="none" stroke-width="1"/><path id="egpbEroAm4y129" d="M145.440000,466.420000C147.289302,466.419996,148.956319,465.305466,149.663078,463.596546C150.369837,461.887626,149.977011,459.921205,148.667926,458.614985C147.358841,457.308764,145.391564,456.920246,143.684197,457.630747C141.976829,458.341248,140.865953,460.010703,140.870000,461.860000C140.869997,463.071122,141.351797,464.232494,142.209127,465.087948C143.066457,465.943402,144.228881,466.422656,145.440000,466.420000Z" fill="rgb(209,209,209)" stroke="none" stroke-width="1"/><path id="egpbEroAm4y130" d="M145.440000,491C147.288392,491,148.954780,489.886555,149.662129,488.178863C150.369479,486.471171,149.978489,484.505533,148.671478,483.198522C147.364467,481.891511,145.398829,481.500521,143.691137,482.207871C141.983445,482.915220,140.870000,484.581608,140.870000,486.430000C140.870000,488.953941,142.916059,491,145.440000,491Z" fill="rgb(209,209,209)" stroke="none" stroke-width="1"/><path id="egpbEroAm4y131" d="M145.440000,515.640000C147.288392,515.640000,148.954780,514.526555,149.662129,512.818863C150.369479,511.111171,149.978489,509.145533,148.671478,507.838522C147.364467,506.531511,145.398829,506.140521,143.691137,506.847871C141.983445,507.555220,140.870000,509.221608,140.870000,511.070000C140.870000,513.593941,142.916059,515.640000,145.440000,515.640000Z" fill="rgb(209,209,209)" stroke="none" stroke-width="1"/><path id="egpbEroAm4y132" d="M145.440000,540.240000C147.963941,540.240000,150.010000,538.193941,150.010000,535.670000C150.010000,533.146059,147.963941,531.100000,145.440000,531.100000C142.916059,531.100000,140.870000,533.146059,140.870000,535.670000C140.870000,536.882039,141.351481,538.044437,142.208522,538.901478C143.065563,539.758519,144.227961,540.240000,145.440000,540.240000Z" fill="rgb(209,209,209)" stroke="none" stroke-width="1"/><path id="egpbEroAm4y133" d="M145.440000,564.840000C147.289302,564.839996,148.956319,563.725466,149.663078,562.016546C150.369837,560.307626,149.977011,558.341205,148.667926,557.034985C147.358841,555.728764,145.391564,555.340246,143.684197,556.050747C141.976829,556.761248,140.865953,558.430703,140.870000,560.280000C140.869997,561.491122,141.351797,562.652494,142.209127,563.507948C143.066457,564.363402,144.228881,564.842656,145.440000,564.840000Z" fill="rgb(209,209,209)" stroke="none" stroke-width="1"/><path id="egpbEroAm4y134" d="M145.440000,589.700000C147.289302,589.699996,148.956319,588.585466,149.663078,586.876546C150.369837,585.167626,149.977011,583.201205,148.667926,581.894985C147.358841,580.588764,145.391564,580.200246,143.684197,580.910747C141.976829,581.621248,140.865953,583.290703,140.870000,585.140000C140.869997,586.351122,141.351797,587.512494,142.209127,588.367948C143.066457,589.223402,144.228881,589.702656,145.440000,589.700000Z" fill="rgb(209,209,209)" stroke="none" stroke-width="1"/><path id="egpbEroAm4y135" d="M145.440000,614.310000C147.963941,614.310000,150.010000,612.263941,150.010000,609.740000C150.010000,607.216059,147.963941,605.170000,145.440000,605.170000C142.916059,605.170000,140.870000,607.216059,140.870000,609.740000C140.870000,610.952039,141.351481,612.114437,142.208522,612.971478C143.065563,613.828519,144.227961,614.310000,145.440000,614.310000Z" fill="rgb(209,209,209)" stroke="none" stroke-width="1"/><path id="egpbEroAm4y136" d="M145.440000,638.920000C147.963941,638.920000,150.010000,636.873941,150.010000,634.350000C150.010000,631.826059,147.963941,629.780000,145.440000,629.780000C142.916059,629.780000,140.870000,631.826059,140.870000,634.350000C140.870000,635.562039,141.351481,636.724437,142.208522,637.581478C143.065563,638.438519,144.227961,638.920000,145.440000,638.920000Z" fill="rgb(209,209,209)" stroke="none" stroke-width="1"/><path id="egpbEroAm4y137" d="M145.440000,663.520000C147.963941,663.520000,150.010000,661.473941,150.010000,658.950000C150.010000,656.426059,147.963941,654.380000,145.440000,654.380000C142.916059,654.380000,140.870000,656.426059,140.870000,658.950000C140.870000,660.162039,141.351481,661.324437,142.208522,662.181478C143.065563,663.038519,144.227961,663.520000,145.440000,663.520000Z" fill="rgb(209,209,209)" stroke="none" stroke-width="1"/><path id="egpbEroAm4y138" d="M100.510000,417.210000C102.359302,417.209996,104.026319,416.095466,104.733078,414.386546C105.439837,412.677626,105.047011,410.711205,103.737926,409.404985C102.428841,408.098764,100.461564,407.710246,98.754197,408.420747C97.046829,409.131248,95.935953,410.800703,95.940000,412.650000C95.945514,415.170035,97.989959,417.210006,100.510000,417.210000Z" fill="rgb(209,209,209)" stroke="none" stroke-width="1"/><path id="egpbEroAm4y139" d="M100.510000,441.820000C103.033941,441.820000,105.080000,439.773941,105.080000,437.250000C105.080000,434.726059,103.033941,432.680000,100.510000,432.680000C97.986059,432.680000,95.940000,434.726059,95.940000,437.250000C95.945500,439.771660,97.988340,441.814500,100.510000,441.820000Z" fill="rgb(209,209,209)" stroke="none" stroke-width="1"/><path id="egpbEroAm4y140" d="M100.510000,466.420000C102.359302,466.419996,104.026319,465.305466,104.733078,463.596546C105.439837,461.887626,105.047011,459.921205,103.737926,458.614985C102.428841,457.308764,100.461564,456.920246,98.754197,457.630747C97.046829,458.341248,95.935953,460.010703,95.940000,461.860000C95.945514,464.380035,97.989959,466.420006,100.510000,466.420000Z" fill="rgb(209,209,209)" stroke="none" stroke-width="1"/><path id="egpbEroAm4y141" d="M100.510000,491C103.033941,491,105.080000,488.953941,105.080000,486.430000C105.080000,483.906059,103.033941,481.860000,100.510000,481.860000C97.986059,481.860000,95.940000,483.906059,95.940000,486.430000C95.945500,488.951660,97.988340,490.994500,100.510000,491Z" fill="rgb(209,209,209)" stroke="none" stroke-width="1"/><path id="egpbEroAm4y142" d="M100.510000,515.640000C103.033941,515.640000,105.080000,513.593941,105.080000,511.070000C105.080000,508.546059,103.033941,506.500000,100.510000,506.500000C97.986059,506.500000,95.940000,508.546059,95.940000,511.070000C95.945500,513.591660,97.988340,515.634500,100.510000,515.640000Z" fill="rgb(209,209,209)" stroke="none" stroke-width="1"/><path id="egpbEroAm4y143" d="M100.510000,540.240000C103.033941,540.240000,105.080000,538.193941,105.080000,535.670000C105.080000,533.146059,103.033941,531.100000,100.510000,531.100000C97.986059,531.100000,95.940000,533.146059,95.940000,535.670000C95.945500,538.191660,97.988340,540.234500,100.510000,540.240000Z" fill="rgb(209,209,209)" stroke="none" stroke-width="1"/><path id="egpbEroAm4y144" d="M100.510000,564.840000C102.359302,564.839996,104.026319,563.725466,104.733078,562.016546C105.439837,560.307626,105.047011,558.341205,103.737926,557.034985C102.428841,555.728764,100.461564,555.340246,98.754197,556.050747C97.046829,556.761248,95.935953,558.430703,95.940000,560.280000C95.945514,562.800035,97.989959,564.840006,100.510000,564.840000Z" fill="rgb(209,209,209)" stroke="none" stroke-width="1"/><path id="egpbEroAm4y145" d="M100.510000,589.700000C102.359302,589.699996,104.026319,588.585466,104.733078,586.876546C105.439837,585.167626,105.047011,583.201205,103.737926,581.894985C102.428841,580.588764,100.461564,580.200246,98.754197,580.910747C97.046829,581.621248,95.935953,583.290703,95.940000,585.140000C95.945514,587.660035,97.989959,589.700006,100.510000,589.700000Z" fill="rgb(209,209,209)" stroke="none" stroke-width="1"/><path id="egpbEroAm4y146" d="M100.510000,614.310000C103.033941,614.310000,105.080000,612.263941,105.080000,609.740000C105.080000,607.216059,103.033941,605.170000,100.510000,605.170000C97.986059,605.170000,95.940000,607.216059,95.940000,609.740000C95.945500,612.261660,97.988340,614.304500,100.510000,614.310000Z" fill="rgb(209,209,209)" stroke="none" stroke-width="1"/><path id="egpbEroAm4y147" d="M100.510000,638.920000C103.033941,638.920000,105.080000,636.873941,105.080000,634.350000C105.080000,631.826059,103.033941,629.780000,100.510000,629.780000C97.986059,629.780000,95.940000,631.826059,95.940000,634.350000C95.945500,636.871660,97.988340,638.914500,100.510000,638.920000Z" fill="rgb(209,209,209)" stroke="none" stroke-width="1"/><path id="egpbEroAm4y148" d="M100.510000,663.520000C102.362919,663.519889,104.032383,662.400957,104.736702,660.687118C105.441021,658.973280,105.040779,657.003781,103.723381,655.700796C102.405983,654.397812,100.432200,654.019260,98.726213,654.742390C97.020227,655.465520,95.919727,657.147192,95.940000,659C95.972776,661.502112,98.007679,663.514751,100.510000,663.520000Z" fill="rgb(209,209,209)" stroke="none" stroke-width="1"/><path id="egpbEroAm4y149" d="M55.570000,417.210000C57.419302,417.209996,59.086319,416.095466,59.793078,414.386546C60.499837,412.677626,60.107011,410.711205,58.797926,409.404985C57.488841,408.098764,55.521564,407.710246,53.814197,408.420747C52.106829,409.131248,50.995953,410.800703,51,412.650000C50.999997,413.861122,51.481797,415.022494,52.339127,415.877948C53.196457,416.733402,54.358881,417.212656,55.570000,417.210000Z" fill="rgb(209,209,209)" stroke="none" stroke-width="1"/><path id="egpbEroAm4y150" d="M55.570000,441.820000C57.418392,441.820000,59.084780,440.706555,59.792129,438.998863C60.499479,437.291171,60.108489,435.325533,58.801478,434.018522C57.494467,432.711511,55.528829,432.320521,53.821137,433.027871C52.113445,433.735220,51,435.401608,51,437.250000C51,439.773941,53.046059,441.820000,55.570000,441.820000Z" fill="rgb(209,209,209)" stroke="none" stroke-width="1"/><path id="egpbEroAm4y151" d="M55.570000,466.420000C57.419302,466.419996,59.086319,465.305466,59.793078,463.596546C60.499837,461.887626,60.107011,459.921205,58.797926,458.614985C57.488841,457.308764,55.521564,456.920246,53.814197,457.630747C52.106829,458.341248,50.995953,460.010703,51,461.860000C50.999997,463.071122,51.481797,464.232494,52.339127,465.087948C53.196457,465.943402,54.358881,466.422656,55.570000,466.420000Z" fill="rgb(209,209,209)" stroke="none" stroke-width="1"/><path id="egpbEroAm4y152" d="M55.570000,491C57.421114,490.999960,59.089368,489.883241,59.794924,488.171864C60.500479,486.460486,60.103959,484.492516,58.790721,483.187898C57.477482,481.883280,55.506943,481.499730,53.800249,482.216542C52.093555,482.933353,50.987848,484.608926,51,486.460000C51.016492,488.972218,53.057728,491.000054,55.570000,491Z" fill="rgb(209,209,209)" stroke="none" stroke-width="1"/><path id="egpbEroAm4y153" d="M55.570000,515.640000C57.418392,515.640000,59.084780,514.526555,59.792129,512.818863C60.499479,511.111171,60.108489,509.145533,58.801478,507.838522C57.494467,506.531511,55.528829,506.140521,53.821137,506.847871C52.113445,507.555220,51,509.221608,51,511.070000C51,513.593941,53.046059,515.640000,55.570000,515.640000Z" fill="rgb(209,209,209)" stroke="none" stroke-width="1"/><path id="egpbEroAm4y154" d="M55.570000,540.240000C58.093941,540.240000,60.140000,538.193941,60.140000,535.670000C60.140000,533.146059,58.093941,531.100000,55.570000,531.100000C53.046059,531.100000,51,533.146059,51,535.670000C51,536.882039,51.481481,538.044437,52.338522,538.901478C53.195563,539.758519,54.357961,540.240000,55.570000,540.240000Z" fill="rgb(209,209,209)" stroke="none" stroke-width="1"/><path id="egpbEroAm4y155" d="M55.570000,564.840000C57.419302,564.839996,59.086319,563.725466,59.793078,562.016546C60.499837,560.307626,60.107011,558.341205,58.797926,557.034985C57.488841,555.728764,55.521564,555.340246,53.814197,556.050747C52.106829,556.761248,50.995953,558.430703,51,560.280000C50.999997,561.491122,51.481797,562.652494,52.339127,563.507948C53.196457,564.363402,54.358881,564.842656,55.570000,564.840000Z" fill="rgb(209,209,209)" stroke="none" stroke-width="1"/><path id="egpbEroAm4y156" d="M55.570000,589.700000C57.419302,589.699996,59.086319,588.585466,59.793078,586.876546C60.499837,585.167626,60.107011,583.201205,58.797926,581.894985C57.488841,580.588764,55.521564,580.200246,53.814197,580.910747C52.106829,581.621248,50.995953,583.290703,51,585.140000C50.999997,586.351122,51.481797,587.512494,52.339127,588.367948C53.196457,589.223402,54.358881,589.702656,55.570000,589.700000Z" fill="rgb(209,209,209)" stroke="none" stroke-width="1"/><path id="egpbEroAm4y157" d="M55.570000,614.310000C57.418392,614.310000,59.084780,613.196555,59.792129,611.488863C60.499479,609.781171,60.108489,607.815533,58.801478,606.508522C57.494467,605.201511,55.528829,604.810521,53.821137,605.517871C52.113445,606.225220,51,607.891608,51,609.740000C51,612.263941,53.046059,614.310000,55.570000,614.310000Z" fill="rgb(209,209,209)" stroke="none" stroke-width="1"/><path id="egpbEroAm4y158" d="M55.570000,638.920000C57.418392,638.920000,59.084780,637.806555,59.792129,636.098863C60.499479,634.391171,60.108489,632.425533,58.801478,631.118522C57.494467,629.811511,55.528829,629.420521,53.821137,630.127871C52.113445,630.835220,51,632.501608,51,634.350000C51,636.873941,53.046059,638.920000,55.570000,638.920000Z" fill="rgb(209,209,209)" stroke="none" stroke-width="1"/><path id="egpbEroAm4y159" d="M55.570000,663.520000C57.422919,663.519889,59.092383,662.400957,59.796702,660.687118C60.501021,658.973280,60.100779,657.003781,58.783381,655.700796C57.465983,654.397812,55.492200,654.019260,53.786213,654.742390C52.080227,655.465520,50.979727,657.147192,51,659C51.027402,661.504393,53.065457,663.520150,55.570000,663.520000Z" fill="rgb(209,209,209)" stroke="none" stroke-width="1"/></g></g></svg>