<svg width="142" height="133" viewBox="0 0 142 133" fill="none" xmlns="http://www.w3.org/2000/svg">
<g opacity="0.7">
<path d="M4.81538 8.38882C6.0429 8.38882 7.03799 7.39455 7.03799 6.16804C7.03799 4.94154 6.0429 3.94727 4.81538 3.94727C3.58787 3.94727 2.59277 4.94154 2.59277 6.16804C2.59277 7.39455 3.58787 8.38882 4.81538 8.38882Z" fill="#D1D1D1"/>
<path d="M4.81538 20.3556C6.0429 20.3556 7.03799 19.3613 7.03799 18.1348C7.03799 16.9083 6.0429 15.9141 4.81538 15.9141C3.58787 15.9141 2.59277 16.9083 2.59277 18.1348C2.59277 19.3613 3.58787 20.3556 4.81538 20.3556Z" fill="#D1D1D1"/>
<path d="M4.81538 32.3244C6.0429 32.3244 7.03799 31.3301 7.03799 30.1036C7.03799 28.8771 6.0429 27.8828 4.81538 27.8828C3.58787 27.8828 2.59277 28.8771 2.59277 30.1036C2.59277 31.3301 3.58787 32.3244 4.81538 32.3244Z" fill="#D1D1D1"/>
<path d="M4.81538 44.2912C6.0429 44.2912 7.03799 43.2969 7.03799 42.0704C7.03799 40.8439 6.0429 39.8496 4.81538 39.8496C3.58787 39.8496 2.59277 40.8439 2.59277 42.0704C2.59277 43.2969 3.58787 44.2912 4.81538 44.2912Z" fill="#D1D1D1"/>
<path d="M4.81538 56.2599C6.0429 56.2599 7.03799 55.2656 7.03799 54.0391C7.03799 52.8126 6.0429 51.8184 4.81538 51.8184C3.58787 51.8184 2.59277 52.8126 2.59277 54.0391C2.59277 55.2656 3.58787 56.2599 4.81538 56.2599Z" fill="#D1D1D1"/>
<path d="M4.81538 68.2267C6.0429 68.2267 7.03799 67.2324 7.03799 66.0059C7.03799 64.7794 6.0429 63.7852 4.81538 63.7852C3.58787 63.7852 2.59277 64.7794 2.59277 66.0059C2.59277 67.2324 3.58787 68.2267 4.81538 68.2267Z" fill="#D1D1D1"/>
<path d="M4.81538 80.1935C6.0429 80.1935 7.03799 79.1992 7.03799 77.9727C7.03799 76.7462 6.0429 75.752 4.81538 75.752C3.58787 75.752 2.59277 76.7462 2.59277 77.9727C2.59277 79.1992 3.58787 80.1935 4.81538 80.1935Z" fill="#D1D1D1"/>
<path d="M4.81538 92.2853C6.0429 92.2853 7.03799 91.291 7.03799 90.0645C7.03799 88.838 6.0429 87.8438 4.81538 87.8438C3.58787 87.8438 2.59277 88.838 2.59277 90.0645C2.59277 91.291 3.58787 92.2853 4.81538 92.2853Z" fill="#D1D1D1"/>
<path d="M4.81538 104.252C6.0429 104.252 7.03799 103.258 7.03799 102.031C7.03799 100.805 6.0429 99.8105 4.81538 99.8105C3.58787 99.8105 2.59277 100.805 2.59277 102.031C2.59277 103.258 3.58787 104.252 4.81538 104.252Z" fill="#D1D1D1"/>
<path d="M4.81538 116.221C6.0429 116.221 7.03799 115.227 7.03799 114C7.03799 112.774 6.0429 111.779 4.81538 111.779C3.58787 111.779 2.59277 112.774 2.59277 114C2.59277 115.227 3.58787 116.221 4.81538 116.221Z" fill="#D1D1D1"/>
<path d="M4.81538 128.188C6.0429 128.188 7.03799 127.193 7.03799 125.967C7.03799 124.74 6.0429 123.746 4.81538 123.746C3.58787 123.746 2.59277 124.74 2.59277 125.967C2.59277 127.193 3.58787 128.188 4.81538 128.188Z" fill="#D1D1D1"/>
<path d="M114.218 8.38882C115.445 8.38882 116.44 7.39455 116.44 6.16804C116.44 4.94154 115.445 3.94727 114.218 3.94727C112.99 3.94727 111.995 4.94154 111.995 6.16804C111.995 7.39455 112.99 8.38882 114.218 8.38882Z" fill="#D1D1D1"/>
<path d="M114.218 20.3556C115.445 20.3556 116.44 19.3613 116.44 18.1348C116.44 16.9083 115.445 15.9141 114.218 15.9141C112.99 15.9141 111.995 16.9083 111.995 18.1348C111.995 19.3613 112.99 20.3556 114.218 20.3556Z" fill="#D1D1D1"/>
<path d="M114.218 32.3244C115.445 32.3244 116.44 31.3301 116.44 30.1036C116.44 28.8771 115.445 27.8828 114.218 27.8828C112.99 27.8828 111.995 28.8771 111.995 30.1036C111.995 31.3301 112.99 32.3244 114.218 32.3244Z" fill="#D1D1D1"/>
<path d="M114.218 44.2912C115.445 44.2912 116.44 43.2969 116.44 42.0704C116.44 40.8439 115.445 39.8496 114.218 39.8496C112.99 39.8496 111.995 40.8439 111.995 42.0704C111.995 43.2969 112.99 44.2912 114.218 44.2912Z" fill="#D1D1D1"/>
<path d="M114.218 56.2599C115.445 56.2599 116.44 55.2656 116.44 54.0391C116.44 52.8126 115.445 51.8184 114.218 51.8184C112.99 51.8184 111.995 52.8126 111.995 54.0391C111.995 55.2656 112.99 56.2599 114.218 56.2599Z" fill="#D1D1D1"/>
<path d="M114.218 68.2267C115.445 68.2267 116.44 67.2324 116.44 66.0059C116.44 64.7794 115.445 63.7852 114.218 63.7852C112.99 63.7852 111.995 64.7794 111.995 66.0059C111.995 67.2324 112.99 68.2267 114.218 68.2267Z" fill="#D1D1D1"/>
<path d="M114.218 80.1935C115.445 80.1935 116.44 79.1992 116.44 77.9727C116.44 76.7462 115.445 75.752 114.218 75.752C112.99 75.752 111.995 76.7462 111.995 77.9727C111.995 79.1992 112.99 80.1935 114.218 80.1935Z" fill="#D1D1D1"/>
<path d="M114.218 92.2853C115.445 92.2853 116.44 91.291 116.44 90.0645C116.44 88.838 115.445 87.8438 114.218 87.8438C112.99 87.8438 111.995 88.838 111.995 90.0645C111.995 91.291 112.99 92.2853 114.218 92.2853Z" fill="#D1D1D1"/>
<path d="M114.218 104.252C115.445 104.252 116.44 103.258 116.44 102.031C116.44 100.805 115.445 99.8105 114.218 99.8105C112.99 99.8105 111.995 100.805 111.995 102.031C111.995 103.258 112.99 104.252 114.218 104.252Z" fill="#D1D1D1"/>
<path d="M114.218 116.221C115.445 116.221 116.44 115.227 116.44 114C116.44 112.774 115.445 111.779 114.218 111.779C112.99 111.779 111.995 112.774 111.995 114C111.995 115.227 112.99 116.221 114.218 116.221Z" fill="#D1D1D1"/>
<path d="M114.218 128.188C115.445 128.188 116.44 127.193 116.44 125.967C116.44 124.74 115.445 123.746 114.218 123.746C112.99 123.746 111.995 124.74 111.995 125.967C111.995 127.193 112.99 128.188 114.218 128.188Z" fill="#D1D1D1"/>
<path d="M92.3613 8.38882C93.5888 8.38882 94.5839 7.39455 94.5839 6.16804C94.5839 4.94154 93.5888 3.94727 92.3613 3.94727C91.1338 3.94727 90.1387 4.94154 90.1387 6.16804C90.1387 7.39455 91.1338 8.38882 92.3613 8.38882Z" fill="#D1D1D1"/>
<path d="M92.3613 20.3556C93.5888 20.3556 94.5839 19.3613 94.5839 18.1348C94.5839 16.9083 93.5888 15.9141 92.3613 15.9141C91.1338 15.9141 90.1387 16.9083 90.1387 18.1348C90.1387 19.3613 91.1338 20.3556 92.3613 20.3556Z" fill="#D1D1D1"/>
<path d="M92.3613 32.3244C93.5888 32.3244 94.5839 31.3301 94.5839 30.1036C94.5839 28.8771 93.5888 27.8828 92.3613 27.8828C91.1338 27.8828 90.1387 28.8771 90.1387 30.1036C90.1387 31.3301 91.1338 32.3244 92.3613 32.3244Z" fill="#D1D1D1"/>
<path d="M92.3613 44.2912C93.5888 44.2912 94.5839 43.2969 94.5839 42.0704C94.5839 40.8439 93.5888 39.8496 92.3613 39.8496C91.1338 39.8496 90.1387 40.8439 90.1387 42.0704C90.1387 43.2969 91.1338 44.2912 92.3613 44.2912Z" fill="#D1D1D1"/>
<path d="M92.3613 56.2599C93.5888 56.2599 94.5839 55.2656 94.5839 54.0391C94.5839 52.8126 93.5888 51.8184 92.3613 51.8184C91.1338 51.8184 90.1387 52.8126 90.1387 54.0391C90.1387 55.2656 91.1338 56.2599 92.3613 56.2599Z" fill="#D1D1D1"/>
<path d="M92.3613 68.2267C93.5888 68.2267 94.5839 67.2324 94.5839 66.0059C94.5839 64.7794 93.5888 63.7852 92.3613 63.7852C91.1338 63.7852 90.1387 64.7794 90.1387 66.0059C90.1387 67.2324 91.1338 68.2267 92.3613 68.2267Z" fill="#D1D1D1"/>
<path d="M92.3613 80.1935C93.5888 80.1935 94.5839 79.1992 94.5839 77.9727C94.5839 76.7462 93.5888 75.752 92.3613 75.752C91.1338 75.752 90.1387 76.7462 90.1387 77.9727C90.1387 79.1992 91.1338 80.1935 92.3613 80.1935Z" fill="#D1D1D1"/>
<path d="M92.3613 92.2853C93.5888 92.2853 94.5839 91.291 94.5839 90.0645C94.5839 88.838 93.5888 87.8438 92.3613 87.8438C91.1338 87.8438 90.1387 88.838 90.1387 90.0645C90.1387 91.291 91.1338 92.2853 92.3613 92.2853Z" fill="#D1D1D1"/>
<path d="M92.3613 104.252C93.5888 104.252 94.5839 103.258 94.5839 102.031C94.5839 100.805 93.5888 99.8105 92.3613 99.8105C91.1338 99.8105 90.1387 100.805 90.1387 102.031C90.1387 103.258 91.1338 104.252 92.3613 104.252Z" fill="#D1D1D1"/>
<path d="M92.3613 116.221C93.5888 116.221 94.5839 115.227 94.5839 114C94.5839 112.774 93.5888 111.779 92.3613 111.779C91.1338 111.779 90.1387 112.774 90.1387 114C90.1387 115.227 91.1338 116.221 92.3613 116.221Z" fill="#D1D1D1"/>
<path d="M92.3613 128.188C93.5888 128.188 94.5839 127.193 94.5839 125.967C94.5839 124.74 93.5888 123.746 92.3613 123.746C91.1338 123.746 90.1387 124.74 90.1387 125.967C90.1387 127.193 91.1338 128.188 92.3613 128.188Z" fill="#D1D1D1"/>
<path d="M136.073 8.38882C137.301 8.38882 138.296 7.39455 138.296 6.16804C138.296 4.94154 137.301 3.94727 136.073 3.94727C134.846 3.94727 133.851 4.94154 133.851 6.16804C133.851 7.39455 134.846 8.38882 136.073 8.38882Z" fill="#D1D1D1"/>
<path d="M136.073 20.3556C137.301 20.3556 138.296 19.3613 138.296 18.1348C138.296 16.9083 137.301 15.9141 136.073 15.9141C134.846 15.9141 133.851 16.9083 133.851 18.1348C133.851 19.3613 134.846 20.3556 136.073 20.3556Z" fill="#D1D1D1"/>
<path d="M136.073 32.3244C137.301 32.3244 138.296 31.3301 138.296 30.1036C138.296 28.8771 137.301 27.8828 136.073 27.8828C134.846 27.8828 133.851 28.8771 133.851 30.1036C133.851 31.3301 134.846 32.3244 136.073 32.3244Z" fill="#D1D1D1"/>
<path d="M136.073 44.2912C137.301 44.2912 138.296 43.2969 138.296 42.0704C138.296 40.8439 137.301 39.8496 136.073 39.8496C134.846 39.8496 133.851 40.8439 133.851 42.0704C133.851 43.2969 134.846 44.2912 136.073 44.2912Z" fill="#D1D1D1"/>
<path d="M136.073 56.2599C137.301 56.2599 138.296 55.2656 138.296 54.0391C138.296 52.8126 137.301 51.8184 136.073 51.8184C134.846 51.8184 133.851 52.8126 133.851 54.0391C133.851 55.2656 134.846 56.2599 136.073 56.2599Z" fill="#D1D1D1"/>
<path d="M136.073 68.2267C137.301 68.2267 138.296 67.2324 138.296 66.0059C138.296 64.7794 137.301 63.7852 136.073 63.7852C134.846 63.7852 133.851 64.7794 133.851 66.0059C133.851 67.2324 134.846 68.2267 136.073 68.2267Z" fill="#D1D1D1"/>
<path d="M136.073 80.1935C137.301 80.1935 138.296 79.1992 138.296 77.9727C138.296 76.7462 137.301 75.752 136.073 75.752C134.846 75.752 133.851 76.7462 133.851 77.9727C133.851 79.1992 134.846 80.1935 136.073 80.1935Z" fill="#D1D1D1"/>
<path d="M136.073 92.2853C137.301 92.2853 138.296 91.291 138.296 90.0645C138.296 88.838 137.301 87.8438 136.073 87.8438C134.846 87.8438 133.851 88.838 133.851 90.0645C133.851 91.291 134.846 92.2853 136.073 92.2853Z" fill="#D1D1D1"/>
<path d="M136.073 104.252C137.301 104.252 138.296 103.258 138.296 102.031C138.296 100.805 137.301 99.8105 136.073 99.8105C134.846 99.8105 133.851 100.805 133.851 102.031C133.851 103.258 134.846 104.252 136.073 104.252Z" fill="#D1D1D1"/>
<path d="M136.073 116.221C137.301 116.221 138.296 115.227 138.296 114C138.296 112.774 137.301 111.779 136.073 111.779C134.846 111.779 133.851 112.774 133.851 114C133.851 115.227 134.846 116.221 136.073 116.221Z" fill="#D1D1D1"/>
<path d="M136.073 128.188C137.301 128.188 138.296 127.193 138.296 125.967C138.296 124.74 137.301 123.746 136.073 123.746C134.846 123.746 133.851 124.74 133.851 125.967C133.851 127.193 134.846 128.188 136.073 128.188Z" fill="#D1D1D1"/>
<path d="M70.3828 8.38882C71.6103 8.38882 72.6054 7.39455 72.6054 6.16804C72.6054 4.94154 71.6103 3.94727 70.3828 3.94727C69.1553 3.94727 68.1602 4.94154 68.1602 6.16804C68.1602 7.39455 69.1553 8.38882 70.3828 8.38882Z" fill="#D1D1D1"/>
<path d="M70.3828 20.3556C71.6103 20.3556 72.6054 19.3613 72.6054 18.1348C72.6054 16.9083 71.6103 15.9141 70.3828 15.9141C69.1553 15.9141 68.1602 16.9083 68.1602 18.1348C68.1602 19.3613 69.1553 20.3556 70.3828 20.3556Z" fill="#D1D1D1"/>
<path d="M70.3828 32.3244C71.6103 32.3244 72.6054 31.3301 72.6054 30.1036C72.6054 28.8771 71.6103 27.8828 70.3828 27.8828C69.1553 27.8828 68.1602 28.8771 68.1602 30.1036C68.1602 31.3301 69.1553 32.3244 70.3828 32.3244Z" fill="#D1D1D1"/>
<path d="M70.3828 44.2912C71.6103 44.2912 72.6054 43.2969 72.6054 42.0704C72.6054 40.8439 71.6103 39.8496 70.3828 39.8496C69.1553 39.8496 68.1602 40.8439 68.1602 42.0704C68.1602 43.2969 69.1553 44.2912 70.3828 44.2912Z" fill="#D1D1D1"/>
<path d="M70.3828 56.2599C71.6103 56.2599 72.6054 55.2656 72.6054 54.0391C72.6054 52.8126 71.6103 51.8184 70.3828 51.8184C69.1553 51.8184 68.1602 52.8126 68.1602 54.0391C68.1602 55.2656 69.1553 56.2599 70.3828 56.2599Z" fill="#D1D1D1"/>
<path d="M70.3828 68.2267C71.6103 68.2267 72.6054 67.2324 72.6054 66.0059C72.6054 64.7794 71.6103 63.7852 70.3828 63.7852C69.1553 63.7852 68.1602 64.7794 68.1602 66.0059C68.1602 67.2324 69.1553 68.2267 70.3828 68.2267Z" fill="#D1D1D1"/>
<path d="M70.3828 80.1935C71.6103 80.1935 72.6054 79.1992 72.6054 77.9727C72.6054 76.7462 71.6103 75.752 70.3828 75.752C69.1553 75.752 68.1602 76.7462 68.1602 77.9727C68.1602 79.1992 69.1553 80.1935 70.3828 80.1935Z" fill="#D1D1D1"/>
<path d="M70.3828 92.2853C71.6103 92.2853 72.6054 91.291 72.6054 90.0645C72.6054 88.838 71.6103 87.8438 70.3828 87.8438C69.1553 87.8438 68.1602 88.838 68.1602 90.0645C68.1602 91.291 69.1553 92.2853 70.3828 92.2853Z" fill="#D1D1D1"/>
<path d="M70.3828 104.252C71.6103 104.252 72.6054 103.258 72.6054 102.031C72.6054 100.805 71.6103 99.8105 70.3828 99.8105C69.1553 99.8105 68.1602 100.805 68.1602 102.031C68.1602 103.258 69.1553 104.252 70.3828 104.252Z" fill="#D1D1D1"/>
<path d="M70.3828 116.221C71.6103 116.221 72.6054 115.227 72.6054 114C72.6054 112.774 71.6103 111.779 70.3828 111.779C69.1553 111.779 68.1602 112.774 68.1602 114C68.1602 115.227 69.1553 116.221 70.3828 116.221Z" fill="#D1D1D1"/>
<path d="M70.3828 128.188C71.6103 128.188 72.6054 127.193 72.6054 125.967C72.6054 124.74 71.6103 123.746 70.3828 123.746C69.1553 123.746 68.1602 124.74 68.1602 125.967C68.1602 127.193 69.1553 128.188 70.3828 128.188Z" fill="#D1D1D1"/>
<path d="M48.5273 8.38882C49.7548 8.38882 50.7499 7.39455 50.7499 6.16804C50.7499 4.94154 49.7548 3.94727 48.5273 3.94727C47.2998 3.94727 46.3047 4.94154 46.3047 6.16804C46.3047 7.39455 47.2998 8.38882 48.5273 8.38882Z" fill="#D1D1D1"/>
<path d="M48.5273 20.3556C49.7548 20.3556 50.7499 19.3613 50.7499 18.1348C50.7499 16.9083 49.7548 15.9141 48.5273 15.9141C47.2998 15.9141 46.3047 16.9083 46.3047 18.1348C46.3047 19.3613 47.2998 20.3556 48.5273 20.3556Z" fill="#D1D1D1"/>
<path d="M48.5273 32.3244C49.7548 32.3244 50.7499 31.3301 50.7499 30.1036C50.7499 28.8771 49.7548 27.8828 48.5273 27.8828C47.2998 27.8828 46.3047 28.8771 46.3047 30.1036C46.3047 31.3301 47.2998 32.3244 48.5273 32.3244Z" fill="#D1D1D1"/>
<path d="M48.5273 44.2912C49.7548 44.2912 50.7499 43.2969 50.7499 42.0704C50.7499 40.8439 49.7548 39.8496 48.5273 39.8496C47.2998 39.8496 46.3047 40.8439 46.3047 42.0704C46.3047 43.2969 47.2998 44.2912 48.5273 44.2912Z" fill="#D1D1D1"/>
<path d="M48.5273 56.2599C49.7548 56.2599 50.7499 55.2656 50.7499 54.0391C50.7499 52.8126 49.7548 51.8184 48.5273 51.8184C47.2998 51.8184 46.3047 52.8126 46.3047 54.0391C46.3047 55.2656 47.2998 56.2599 48.5273 56.2599Z" fill="#D1D1D1"/>
<path d="M48.5273 68.2267C49.7548 68.2267 50.7499 67.2324 50.7499 66.0059C50.7499 64.7794 49.7548 63.7852 48.5273 63.7852C47.2998 63.7852 46.3047 64.7794 46.3047 66.0059C46.3047 67.2324 47.2998 68.2267 48.5273 68.2267Z" fill="#D1D1D1"/>
<path d="M48.5273 80.1935C49.7548 80.1935 50.7499 79.1992 50.7499 77.9727C50.7499 76.7462 49.7548 75.752 48.5273 75.752C47.2998 75.752 46.3047 76.7462 46.3047 77.9727C46.3047 79.1992 47.2998 80.1935 48.5273 80.1935Z" fill="#D1D1D1"/>
<path d="M48.5273 92.2853C49.7548 92.2853 50.7499 91.291 50.7499 90.0645C50.7499 88.838 49.7548 87.8438 48.5273 87.8438C47.2998 87.8438 46.3047 88.838 46.3047 90.0645C46.3047 91.291 47.2998 92.2853 48.5273 92.2853Z" fill="#D1D1D1"/>
<path d="M48.5273 104.252C49.7548 104.252 50.7499 103.258 50.7499 102.031C50.7499 100.805 49.7548 99.8105 48.5273 99.8105C47.2998 99.8105 46.3047 100.805 46.3047 102.031C46.3047 103.258 47.2998 104.252 48.5273 104.252Z" fill="#D1D1D1"/>
<path d="M48.5273 116.221C49.7548 116.221 50.7499 115.227 50.7499 114C50.7499 112.774 49.7548 111.779 48.5273 111.779C47.2998 111.779 46.3047 112.774 46.3047 114C46.3047 115.227 47.2998 116.221 48.5273 116.221Z" fill="#D1D1D1"/>
<path d="M48.5273 128.188C49.7548 128.188 50.7499 127.193 50.7499 125.967C50.7499 124.74 49.7548 123.746 48.5273 123.746C47.2998 123.746 46.3047 124.74 46.3047 125.967C46.3047 127.193 47.2998 128.188 48.5273 128.188Z" fill="#D1D1D1"/>
<path d="M26.6709 8.38882C27.8984 8.38882 28.8935 7.39455 28.8935 6.16804C28.8935 4.94154 27.8984 3.94727 26.6709 3.94727C25.4433 3.94727 24.4482 4.94154 24.4482 6.16804C24.4482 7.39455 25.4433 8.38882 26.6709 8.38882Z" fill="#D1D1D1"/>
<path d="M26.6709 20.3556C27.8984 20.3556 28.8935 19.3613 28.8935 18.1348C28.8935 16.9083 27.8984 15.9141 26.6709 15.9141C25.4433 15.9141 24.4482 16.9083 24.4482 18.1348C24.4482 19.3613 25.4433 20.3556 26.6709 20.3556Z" fill="#D1D1D1"/>
<path d="M26.6709 32.3244C27.8984 32.3244 28.8935 31.3301 28.8935 30.1036C28.8935 28.8771 27.8984 27.8828 26.6709 27.8828C25.4433 27.8828 24.4482 28.8771 24.4482 30.1036C24.4482 31.3301 25.4433 32.3244 26.6709 32.3244Z" fill="#D1D1D1"/>
<path d="M26.6709 44.2912C27.8984 44.2912 28.8935 43.2969 28.8935 42.0704C28.8935 40.8439 27.8984 39.8496 26.6709 39.8496C25.4433 39.8496 24.4482 40.8439 24.4482 42.0704C24.4482 43.2969 25.4433 44.2912 26.6709 44.2912Z" fill="#D1D1D1"/>
<path d="M26.6709 56.2599C27.8984 56.2599 28.8935 55.2656 28.8935 54.0391C28.8935 52.8126 27.8984 51.8184 26.6709 51.8184C25.4433 51.8184 24.4482 52.8126 24.4482 54.0391C24.4482 55.2656 25.4433 56.2599 26.6709 56.2599Z" fill="#D1D1D1"/>
<path d="M26.6709 68.2267C27.8984 68.2267 28.8935 67.2324 28.8935 66.0059C28.8935 64.7794 27.8984 63.7852 26.6709 63.7852C25.4433 63.7852 24.4482 64.7794 24.4482 66.0059C24.4482 67.2324 25.4433 68.2267 26.6709 68.2267Z" fill="#D1D1D1"/>
<path d="M26.6709 80.1935C27.8984 80.1935 28.8935 79.1992 28.8935 77.9727C28.8935 76.7462 27.8984 75.752 26.6709 75.752C25.4433 75.752 24.4482 76.7462 24.4482 77.9727C24.4482 79.1992 25.4433 80.1935 26.6709 80.1935Z" fill="#D1D1D1"/>
<path d="M26.6709 92.2853C27.8984 92.2853 28.8935 91.291 28.8935 90.0645C28.8935 88.838 27.8984 87.8438 26.6709 87.8438C25.4433 87.8438 24.4482 88.838 24.4482 90.0645C24.4482 91.291 25.4433 92.2853 26.6709 92.2853Z" fill="#D1D1D1"/>
<path d="M26.6709 104.252C27.8984 104.252 28.8935 103.258 28.8935 102.031C28.8935 100.805 27.8984 99.8105 26.6709 99.8105C25.4433 99.8105 24.4482 100.805 24.4482 102.031C24.4482 103.258 25.4433 104.252 26.6709 104.252Z" fill="#D1D1D1"/>
<path d="M26.6709 116.221C27.8984 116.221 28.8935 115.227 28.8935 114C28.8935 112.774 27.8984 111.779 26.6709 111.779C25.4433 111.779 24.4482 112.774 24.4482 114C24.4482 115.227 25.4433 116.221 26.6709 116.221Z" fill="#D1D1D1"/>
<path d="M26.6709 128.188C27.8984 128.188 28.8935 127.193 28.8935 125.967C28.8935 124.74 27.8984 123.746 26.6709 123.746C25.4433 123.746 24.4482 124.74 24.4482 125.967C24.4482 127.193 25.4433 128.188 26.6709 128.188Z" fill="#D1D1D1"/>
</g>
</svg>
