<svg id="e9YOleaINPC1" xmlns="http://www.w3.org/2000/svg" xmlns:xlink="http://www.w3.org/1999/xlink" viewBox="0 0 1279.990000 720" shape-rendering="geometricPrecision" text-rendering="geometricPrecision"><style><![CDATA[#e9YOleaINPC2_to {animation: e9YOleaINPC2_to__to 20000ms linear infinite normal forwards}@keyframes e9YOleaINPC2_to__to { 0% {transform: translate(146.444529px,134.068617px)} 50% {transform: translate(288.445082px,134.068617px)} 100% {transform: translate(146.444529px,134.068617px)}} #e9YOleaINPC80_to {animation: e9YOleaINPC80_to__to 20000ms linear infinite normal forwards}@keyframes e9YOleaINPC80_to__to { 0% {transform: translate(1133.659323px,585.644719px)} 50% {transform: translate(986.308025px,585.644719px)} 100% {transform: translate(1133.659323px,585.644719px)}}]]></style><g id="e9YOleaINPC2_to" transform="translate(146.444529,134.068617)"><g id="e9YOleaINPC2" display="none" transform="scale(2.053961,2.053961) translate(-70.444529,-66.068617)" opacity="0.7"><path id="e9YOleaINPC3" d="M4.815660,8.389800C6.043170,8.389800,7.038270,7.395520,7.038270,6.169020C7.038270,4.942520,6.043170,3.948240,4.815660,3.948240C3.588140,3.948240,2.593050,4.942520,2.593050,6.169020C2.593050,7.395520,3.588140,8.389800,4.815660,8.389800Z" fill="rgb(209,209,209)" stroke="none" stroke-width="1"/><path id="e9YOleaINPC4" d="M4.815660,20.357600C6.043170,20.357600,7.038270,19.363300,7.038270,18.136800C7.038270,16.910300,6.043170,15.916000,4.815660,15.916000C3.588140,15.916000,2.593050,16.910300,2.593050,18.136800C2.593050,19.363300,3.588140,20.357600,4.815660,20.357600Z" fill="rgb(209,209,209)" stroke="none" stroke-width="1"/><path id="e9YOleaINPC5" d="M4.815660,32.324900C6.043170,32.324900,7.038270,31.330600,7.038270,30.104100C7.038270,28.877600,6.043170,27.883300,4.815660,27.883300C3.588140,27.883300,2.593050,28.877600,2.593050,30.104100C2.593050,31.330600,3.588140,32.324900,4.815660,32.324900Z" fill="rgb(209,209,209)" stroke="none" stroke-width="1"/><path id="e9YOleaINPC6" d="M4.815660,44.292600C6.043170,44.292600,7.038270,43.298400,7.038270,42.071900C7.038270,40.845400,6.043170,39.851100,4.815660,39.851100C3.588140,39.851100,2.593050,40.845400,2.593050,42.071900C2.593050,43.298400,3.588140,44.292600,4.815660,44.292600Z" fill="rgb(209,209,209)" stroke="none" stroke-width="1"/><path id="e9YOleaINPC7" d="M4.815660,56.259900C6.043170,56.259900,7.038270,55.265600,7.038270,54.039100C7.038270,52.812600,6.043170,51.818400,4.815660,51.818400C3.588140,51.818400,2.593050,52.812600,2.593050,54.039100C2.593050,55.265600,3.588140,56.259900,4.815660,56.259900Z" fill="rgb(209,209,209)" stroke="none" stroke-width="1"/><path id="e9YOleaINPC8" d="M4.815660,68.227700C6.043170,68.227700,7.038270,67.233400,7.038270,66.006900C7.038270,64.780400,6.043170,63.786100,4.815660,63.786100C3.588140,63.786100,2.593050,64.780400,2.593050,66.006900C2.593050,67.233400,3.588140,68.227700,4.815660,68.227700Z" fill="rgb(209,209,209)" stroke="none" stroke-width="1"/><path id="e9YOleaINPC9" d="M4.815660,80.195000C6.043170,80.195000,7.038270,79.200700,7.038270,77.974200C7.038270,76.747700,6.043170,75.753400,4.815660,75.753400C3.588140,75.753400,2.593050,76.747700,2.593050,77.974200C2.593050,79.200700,3.588140,80.195000,4.815660,80.195000Z" fill="rgb(209,209,209)" stroke="none" stroke-width="1"/><path id="e9YOleaINPC10" d="M4.815660,92.285800C6.043170,92.285800,7.038270,91.291500,7.038270,90.065000C7.038270,88.838500,6.043170,87.844200,4.815660,87.844200C3.588140,87.844200,2.593050,88.838500,2.593050,90.065000C2.593050,91.291500,3.588140,92.285800,4.815660,92.285800Z" fill="rgb(209,209,209)" stroke="none" stroke-width="1"/><path id="e9YOleaINPC11" d="M4.815660,104.254000C6.043170,104.254000,7.038270,103.259000,7.038270,102.033000C7.038270,100.806000,6.043170,99.812000,4.815660,99.812000C3.588140,99.812000,2.593050,100.806000,2.593050,102.033000C2.593050,103.259000,3.588140,104.254000,4.815660,104.254000Z" fill="rgb(209,209,209)" stroke="none" stroke-width="1"/><path id="e9YOleaINPC12" d="M4.815660,116.221000C6.043170,116.221000,7.038270,115.227000,7.038270,114C7.038270,112.774000,6.043170,111.779000,4.815660,111.779000C3.588140,111.779000,2.593050,112.774000,2.593050,114C2.593050,115.227000,3.588140,116.221000,4.815660,116.221000Z" fill="rgb(209,209,209)" stroke="none" stroke-width="1"/><path id="e9YOleaINPC13" d="M4.815660,128.189000C6.043170,128.189000,7.038270,127.194000,7.038270,125.968000C7.038270,124.741000,6.043170,123.747000,4.815660,123.747000C3.588140,123.747000,2.593050,124.741000,2.593050,125.968000C2.593050,127.194000,3.588140,128.189000,4.815660,128.189000Z" fill="rgb(209,209,209)" stroke="none" stroke-width="1"/><path id="e9YOleaINPC14" d="M114.217000,8.389800C115.445000,8.389800,116.440000,7.395520,116.440000,6.169020C116.440000,4.942520,115.445000,3.948240,114.217000,3.948240C112.990000,3.948240,111.995000,4.942520,111.995000,6.169020C111.995000,7.395520,112.990000,8.389800,114.217000,8.389800Z" fill="rgb(209,209,209)" stroke="none" stroke-width="1"/><path id="e9YOleaINPC15" d="M114.217000,20.357600C115.445000,20.357600,116.440000,19.363300,116.440000,18.136800C116.440000,16.910300,115.445000,15.916000,114.217000,15.916000C112.990000,15.916000,111.995000,16.910300,111.995000,18.136800C111.995000,19.363300,112.990000,20.357600,114.217000,20.357600Z" fill="rgb(209,209,209)" stroke="none" stroke-width="1"/><path id="e9YOleaINPC16" d="M114.217000,32.324900C115.445000,32.324900,116.440000,31.330600,116.440000,30.104100C116.440000,28.877600,115.445000,27.883300,114.217000,27.883300C112.990000,27.883300,111.995000,28.877600,111.995000,30.104100C111.995000,31.330600,112.990000,32.324900,114.217000,32.324900Z" fill="rgb(209,209,209)" stroke="none" stroke-width="1"/><path id="e9YOleaINPC17" d="M114.217000,44.292600C115.445000,44.292600,116.440000,43.298400,116.440000,42.071900C116.440000,40.845400,115.445000,39.851100,114.217000,39.851100C112.990000,39.851100,111.995000,40.845400,111.995000,42.071900C111.995000,43.298400,112.990000,44.292600,114.217000,44.292600Z" fill="rgb(209,209,209)" stroke="none" stroke-width="1"/><path id="e9YOleaINPC18" d="M114.217000,56.259900C115.445000,56.259900,116.440000,55.265600,116.440000,54.039100C116.440000,52.812600,115.445000,51.818400,114.217000,51.818400C112.990000,51.818400,111.995000,52.812600,111.995000,54.039100C111.995000,55.265600,112.990000,56.259900,114.217000,56.259900Z" fill="rgb(209,209,209)" stroke="none" stroke-width="1"/><path id="e9YOleaINPC19" d="M114.217000,68.227700C115.445000,68.227700,116.440000,67.233400,116.440000,66.006900C116.440000,64.780400,115.445000,63.786100,114.217000,63.786100C112.990000,63.786100,111.995000,64.780400,111.995000,66.006900C111.995000,67.233400,112.990000,68.227700,114.217000,68.227700Z" fill="rgb(209,209,209)" stroke="none" stroke-width="1"/><path id="e9YOleaINPC20" d="M114.217000,80.195000C115.445000,80.195000,116.440000,79.200700,116.440000,77.974200C116.440000,76.747700,115.445000,75.753400,114.217000,75.753400C112.990000,75.753400,111.995000,76.747700,111.995000,77.974200C111.995000,79.200700,112.990000,80.195000,114.217000,80.195000Z" fill="rgb(209,209,209)" stroke="none" stroke-width="1"/><path id="e9YOleaINPC21" d="M114.217000,92.285800C115.445000,92.285800,116.440000,91.291500,116.440000,90.065000C116.440000,88.838500,115.445000,87.844200,114.217000,87.844200C112.990000,87.844200,111.995000,88.838500,111.995000,90.065000C111.995000,91.291500,112.990000,92.285800,114.217000,92.285800Z" fill="rgb(209,209,209)" stroke="none" stroke-width="1"/><path id="e9YOleaINPC22" d="M114.217000,104.254000C115.445000,104.254000,116.440000,103.259000,116.440000,102.033000C116.440000,100.806000,115.445000,99.812000,114.217000,99.812000C112.990000,99.812000,111.995000,100.806000,111.995000,102.033000C111.995000,103.259000,112.990000,104.254000,114.217000,104.254000Z" fill="rgb(209,209,209)" stroke="none" stroke-width="1"/><path id="e9YOleaINPC23" d="M114.217000,116.221000C115.445000,116.221000,116.440000,115.227000,116.440000,114C116.440000,112.774000,115.445000,111.779000,114.217000,111.779000C112.990000,111.779000,111.995000,112.774000,111.995000,114C111.995000,115.227000,112.990000,116.221000,114.217000,116.221000Z" fill="rgb(209,209,209)" stroke="none" stroke-width="1"/><path id="e9YOleaINPC24" d="M114.217000,128.189000C115.445000,128.189000,116.440000,127.194000,116.440000,125.968000C116.440000,124.741000,115.445000,123.747000,114.217000,123.747000C112.990000,123.747000,111.995000,124.741000,111.995000,125.968000C111.995000,127.194000,112.990000,128.189000,114.217000,128.189000Z" fill="rgb(209,209,209)" stroke="none" stroke-width="1"/><path id="e9YOleaINPC25" d="M92.361700,8.389800C93.589300,8.389800,94.584400,7.395520,94.584400,6.169020C94.584400,4.942520,93.589300,3.948240,92.361700,3.948240C91.134200,3.948240,90.139100,4.942520,90.139100,6.169020C90.139100,7.395520,91.134200,8.389800,92.361700,8.389800Z" fill="rgb(209,209,209)" stroke="none" stroke-width="1"/><path id="e9YOleaINPC26" d="M92.361700,20.357600C93.589300,20.357600,94.584400,19.363300,94.584400,18.136800C94.584400,16.910300,93.589300,15.916000,92.361700,15.916000C91.134200,15.916000,90.139100,16.910300,90.139100,18.136800C90.139100,19.363300,91.134200,20.357600,92.361700,20.357600Z" fill="rgb(209,209,209)" stroke="none" stroke-width="1"/><path id="e9YOleaINPC27" d="M92.361700,32.324900C93.589300,32.324900,94.584400,31.330600,94.584400,30.104100C94.584400,28.877600,93.589300,27.883300,92.361700,27.883300C91.134200,27.883300,90.139100,28.877600,90.139100,30.104100C90.139100,31.330600,91.134200,32.324900,92.361700,32.324900Z" fill="rgb(209,209,209)" stroke="none" stroke-width="1"/><path id="e9YOleaINPC28" d="M92.361700,44.292600C93.589300,44.292600,94.584400,43.298400,94.584400,42.071900C94.584400,40.845400,93.589300,39.851100,92.361700,39.851100C91.134200,39.851100,90.139100,40.845400,90.139100,42.071900C90.139100,43.298400,91.134200,44.292600,92.361700,44.292600Z" fill="rgb(209,209,209)" stroke="none" stroke-width="1"/><path id="e9YOleaINPC29" d="M92.361700,56.259900C93.589300,56.259900,94.584400,55.265600,94.584400,54.039100C94.584400,52.812600,93.589300,51.818400,92.361700,51.818400C91.134200,51.818400,90.139100,52.812600,90.139100,54.039100C90.139100,55.265600,91.134200,56.259900,92.361700,56.259900Z" fill="rgb(209,209,209)" stroke="none" stroke-width="1"/><path id="e9YOleaINPC30" d="M92.361700,68.227700C93.589300,68.227700,94.584400,67.233400,94.584400,66.006900C94.584400,64.780400,93.589300,63.786100,92.361700,63.786100C91.134200,63.786100,90.139100,64.780400,90.139100,66.006900C90.139100,67.233400,91.134200,68.227700,92.361700,68.227700Z" fill="rgb(209,209,209)" stroke="none" stroke-width="1"/><path id="e9YOleaINPC31" d="M92.361700,80.195000C93.589300,80.195000,94.584400,79.200700,94.584400,77.974200C94.584400,76.747700,93.589300,75.753400,92.361700,75.753400C91.134200,75.753400,90.139100,76.747700,90.139100,77.974200C90.139100,79.200700,91.134200,80.195000,92.361700,80.195000Z" fill="rgb(209,209,209)" stroke="none" stroke-width="1"/><path id="e9YOleaINPC32" d="M92.361700,92.285800C93.589300,92.285800,94.584400,91.291500,94.584400,90.065000C94.584400,88.838500,93.589300,87.844200,92.361700,87.844200C91.134200,87.844200,90.139100,88.838500,90.139100,90.065000C90.139100,91.291500,91.134200,92.285800,92.361700,92.285800Z" fill="rgb(209,209,209)" stroke="none" stroke-width="1"/><path id="e9YOleaINPC33" d="M92.361700,104.254000C93.589300,104.254000,94.584400,103.259000,94.584400,102.033000C94.584400,100.806000,93.589300,99.812000,92.361700,99.812000C91.134200,99.812000,90.139100,100.806000,90.139100,102.033000C90.139100,103.259000,91.134200,104.254000,92.361700,104.254000Z" fill="rgb(209,209,209)" stroke="none" stroke-width="1"/><path id="e9YOleaINPC34" d="M92.361700,116.221000C93.589300,116.221000,94.584400,115.227000,94.584400,114C94.584400,112.774000,93.589300,111.779000,92.361700,111.779000C91.134200,111.779000,90.139100,112.774000,90.139100,114C90.139100,115.227000,91.134200,116.221000,92.361700,116.221000Z" fill="rgb(209,209,209)" stroke="none" stroke-width="1"/><path id="e9YOleaINPC35" d="M92.361700,128.189000C93.589300,128.189000,94.584400,127.194000,94.584400,125.968000C94.584400,124.741000,93.589300,123.747000,92.361700,123.747000C91.134200,123.747000,90.139100,124.741000,90.139100,125.968000C90.139100,127.194000,91.134200,128.189000,92.361700,128.189000Z" fill="rgb(209,209,209)" stroke="none" stroke-width="1"/><path id="e9YOleaINPC36" d="M136.073000,8.389800C137.301000,8.389800,138.296000,7.395520,138.296000,6.169020C138.296000,4.942520,137.301000,3.948240,136.073000,3.948240C134.846000,3.948240,133.850000,4.942520,133.850000,6.169020C133.850000,7.395520,134.846000,8.389800,136.073000,8.389800Z" fill="rgb(209,209,209)" stroke="none" stroke-width="1"/><path id="e9YOleaINPC37" d="M136.073000,20.357600C137.301000,20.357600,138.296000,19.363300,138.296000,18.136800C138.296000,16.910300,137.301000,15.916000,136.073000,15.916000C134.846000,15.916000,133.850000,16.910300,133.850000,18.136800C133.850000,19.363300,134.846000,20.357600,136.073000,20.357600Z" fill="rgb(209,209,209)" stroke="none" stroke-width="1"/><path id="e9YOleaINPC38" d="M136.073000,32.324900C137.301000,32.324900,138.296000,31.330600,138.296000,30.104100C138.296000,28.877600,137.301000,27.883300,136.073000,27.883300C134.846000,27.883300,133.850000,28.877600,133.850000,30.104100C133.850000,31.330600,134.846000,32.324900,136.073000,32.324900Z" fill="rgb(209,209,209)" stroke="none" stroke-width="1"/><path id="e9YOleaINPC39" d="M136.073000,44.292600C137.301000,44.292600,138.296000,43.298400,138.296000,42.071900C138.296000,40.845400,137.301000,39.851100,136.073000,39.851100C134.846000,39.851100,133.850000,40.845400,133.850000,42.071900C133.850000,43.298400,134.846000,44.292600,136.073000,44.292600Z" fill="rgb(209,209,209)" stroke="none" stroke-width="1"/><path id="e9YOleaINPC40" d="M136.073000,56.259900C137.301000,56.259900,138.296000,55.265600,138.296000,54.039100C138.296000,52.812600,137.301000,51.818400,136.073000,51.818400C134.846000,51.818400,133.850000,52.812600,133.850000,54.039100C133.850000,55.265600,134.846000,56.259900,136.073000,56.259900Z" fill="rgb(209,209,209)" stroke="none" stroke-width="1"/><path id="e9YOleaINPC41" d="M136.073000,68.227700C137.301000,68.227700,138.296000,67.233400,138.296000,66.006900C138.296000,64.780400,137.301000,63.786100,136.073000,63.786100C134.846000,63.786100,133.850000,64.780400,133.850000,66.006900C133.850000,67.233400,134.846000,68.227700,136.073000,68.227700Z" fill="rgb(209,209,209)" stroke="none" stroke-width="1"/><path id="e9YOleaINPC42" d="M136.073000,80.195000C137.301000,80.195000,138.296000,79.200700,138.296000,77.974200C138.296000,76.747700,137.301000,75.753400,136.073000,75.753400C134.846000,75.753400,133.850000,76.747700,133.850000,77.974200C133.850000,79.200700,134.846000,80.195000,136.073000,80.195000Z" fill="rgb(209,209,209)" stroke="none" stroke-width="1"/><path id="e9YOleaINPC43" d="M136.073000,92.285800C137.301000,92.285800,138.296000,91.291500,138.296000,90.065000C138.296000,88.838500,137.301000,87.844200,136.073000,87.844200C134.846000,87.844200,133.850000,88.838500,133.850000,90.065000C133.850000,91.291500,134.846000,92.285800,136.073000,92.285800Z" fill="rgb(209,209,209)" stroke="none" stroke-width="1"/><path id="e9YOleaINPC44" d="M136.073000,104.254000C137.301000,104.254000,138.296000,103.259000,138.296000,102.033000C138.296000,100.806000,137.301000,99.812000,136.073000,99.812000C134.846000,99.812000,133.850000,100.806000,133.850000,102.033000C133.850000,103.259000,134.846000,104.254000,136.073000,104.254000Z" fill="rgb(209,209,209)" stroke="none" stroke-width="1"/><path id="e9YOleaINPC45" d="M136.073000,116.221000C137.301000,116.221000,138.296000,115.227000,138.296000,114C138.296000,112.774000,137.301000,111.779000,136.073000,111.779000C134.846000,111.779000,133.850000,112.774000,133.850000,114C133.850000,115.227000,134.846000,116.221000,136.073000,116.221000Z" fill="rgb(209,209,209)" stroke="none" stroke-width="1"/><path id="e9YOleaINPC46" d="M136.073000,128.189000C137.301000,128.189000,138.296000,127.194000,138.296000,125.968000C138.296000,124.741000,137.301000,123.747000,136.073000,123.747000C134.846000,123.747000,133.850000,124.741000,133.850000,125.968000C133.850000,127.194000,134.846000,128.189000,136.073000,128.189000Z" fill="rgb(209,209,209)" stroke="none" stroke-width="1"/><path id="e9YOleaINPC47" d="M70.382600,8.389800C71.610100,8.389800,72.605200,7.395520,72.605200,6.169020C72.605200,4.942520,71.610100,3.948240,70.382600,3.948240C69.155100,3.948240,68.160000,4.942520,68.160000,6.169020C68.160000,7.395520,69.155100,8.389800,70.382600,8.389800Z" fill="rgb(209,209,209)" stroke="none" stroke-width="1"/><path id="e9YOleaINPC48" d="M70.382600,20.357600C71.610100,20.357600,72.605200,19.363300,72.605200,18.136800C72.605200,16.910300,71.610100,15.916000,70.382600,15.916000C69.155100,15.916000,68.160000,16.910300,68.160000,18.136800C68.160000,19.363300,69.155100,20.357600,70.382600,20.357600Z" fill="rgb(209,209,209)" stroke="none" stroke-width="1"/><path id="e9YOleaINPC49" d="M70.382600,32.324900C71.610100,32.324900,72.605200,31.330600,72.605200,30.104100C72.605200,28.877600,71.610100,27.883300,70.382600,27.883300C69.155100,27.883300,68.160000,28.877600,68.160000,30.104100C68.160000,31.330600,69.155100,32.324900,70.382600,32.324900Z" fill="rgb(209,209,209)" stroke="none" stroke-width="1"/><path id="e9YOleaINPC50" d="M70.382600,44.292600C71.610100,44.292600,72.605200,43.298400,72.605200,42.071900C72.605200,40.845400,71.610100,39.851100,70.382600,39.851100C69.155100,39.851100,68.160000,40.845400,68.160000,42.071900C68.160000,43.298400,69.155100,44.292600,70.382600,44.292600Z" fill="rgb(209,209,209)" stroke="none" stroke-width="1"/><path id="e9YOleaINPC51" d="M70.382600,56.259900C71.610100,56.259900,72.605200,55.265600,72.605200,54.039100C72.605200,52.812600,71.610100,51.818400,70.382600,51.818400C69.155100,51.818400,68.160000,52.812600,68.160000,54.039100C68.160000,55.265600,69.155100,56.259900,70.382600,56.259900Z" fill="rgb(209,209,209)" stroke="none" stroke-width="1"/><path id="e9YOleaINPC52" d="M70.382600,68.227700C71.610100,68.227700,72.605200,67.233400,72.605200,66.006900C72.605200,64.780400,71.610100,63.786100,70.382600,63.786100C69.155100,63.786100,68.160000,64.780400,68.160000,66.006900C68.160000,67.233400,69.155100,68.227700,70.382600,68.227700Z" fill="rgb(209,209,209)" stroke="none" stroke-width="1"/><path id="e9YOleaINPC53" d="M70.382600,80.195000C71.610100,80.195000,72.605200,79.200700,72.605200,77.974200C72.605200,76.747700,71.610100,75.753400,70.382600,75.753400C69.155100,75.753400,68.160000,76.747700,68.160000,77.974200C68.160000,79.200700,69.155100,80.195000,70.382600,80.195000Z" fill="rgb(209,209,209)" stroke="none" stroke-width="1"/><path id="e9YOleaINPC54" d="M70.382600,92.285800C71.610100,92.285800,72.605200,91.291500,72.605200,90.065000C72.605200,88.838500,71.610100,87.844200,70.382600,87.844200C69.155100,87.844200,68.160000,88.838500,68.160000,90.065000C68.160000,91.291500,69.155100,92.285800,70.382600,92.285800Z" fill="rgb(209,209,209)" stroke="none" stroke-width="1"/><path id="e9YOleaINPC55" d="M70.382600,104.254000C71.610100,104.254000,72.605200,103.259000,72.605200,102.033000C72.605200,100.806000,71.610100,99.812000,70.382600,99.812000C69.155100,99.812000,68.160000,100.806000,68.160000,102.033000C68.160000,103.259000,69.155100,104.254000,70.382600,104.254000Z" fill="rgb(209,209,209)" stroke="none" stroke-width="1"/><path id="e9YOleaINPC56" d="M70.382600,116.221000C71.610100,116.221000,72.605200,115.227000,72.605200,114C72.605200,112.774000,71.610100,111.779000,70.382600,111.779000C69.155100,111.779000,68.160000,112.774000,68.160000,114C68.160000,115.227000,69.155100,116.221000,70.382600,116.221000Z" fill="rgb(209,209,209)" stroke="none" stroke-width="1"/><path id="e9YOleaINPC57" d="M70.382600,128.189000C71.610100,128.189000,72.605200,127.194000,72.605200,125.968000C72.605200,124.741000,71.610100,123.747000,70.382600,123.747000C69.155100,123.747000,68.160000,124.741000,68.160000,125.968000C68.160000,127.194000,69.155100,128.189000,70.382600,128.189000Z" fill="rgb(209,209,209)" stroke="none" stroke-width="1"/><path id="e9YOleaINPC58" d="M48.527000,8.389800C49.754500,8.389800,50.749600,7.395520,50.749600,6.169020C50.749600,4.942520,49.754500,3.948240,48.527000,3.948240C47.299400,3.948240,46.304400,4.942520,46.304400,6.169020C46.304400,7.395520,47.299400,8.389800,48.527000,8.389800Z" fill="rgb(209,209,209)" stroke="none" stroke-width="1"/><path id="e9YOleaINPC59" d="M48.527000,20.357600C49.754500,20.357600,50.749600,19.363300,50.749600,18.136800C50.749600,16.910300,49.754500,15.916000,48.527000,15.916000C47.299400,15.916000,46.304400,16.910300,46.304400,18.136800C46.304400,19.363300,47.299400,20.357600,48.527000,20.357600Z" fill="rgb(209,209,209)" stroke="none" stroke-width="1"/><path id="e9YOleaINPC60" d="M48.527000,32.324900C49.754500,32.324900,50.749600,31.330600,50.749600,30.104100C50.749600,28.877600,49.754500,27.883300,48.527000,27.883300C47.299400,27.883300,46.304400,28.877600,46.304400,30.104100C46.304400,31.330600,47.299400,32.324900,48.527000,32.324900Z" fill="rgb(209,209,209)" stroke="none" stroke-width="1"/><path id="e9YOleaINPC61" d="M48.527000,44.292600C49.754500,44.292600,50.749600,43.298400,50.749600,42.071900C50.749600,40.845400,49.754500,39.851100,48.527000,39.851100C47.299400,39.851100,46.304400,40.845400,46.304400,42.071900C46.304400,43.298400,47.299400,44.292600,48.527000,44.292600Z" fill="rgb(209,209,209)" stroke="none" stroke-width="1"/><path id="e9YOleaINPC62" d="M48.527000,56.259900C49.754500,56.259900,50.749600,55.265600,50.749600,54.039100C50.749600,52.812600,49.754500,51.818400,48.527000,51.818400C47.299400,51.818400,46.304400,52.812600,46.304400,54.039100C46.304400,55.265600,47.299400,56.259900,48.527000,56.259900Z" fill="rgb(209,209,209)" stroke="none" stroke-width="1"/><path id="e9YOleaINPC63" d="M48.527000,68.227700C49.754500,68.227700,50.749600,67.233400,50.749600,66.006900C50.749600,64.780400,49.754500,63.786100,48.527000,63.786100C47.299400,63.786100,46.304400,64.780400,46.304400,66.006900C46.304400,67.233400,47.299400,68.227700,48.527000,68.227700Z" fill="rgb(209,209,209)" stroke="none" stroke-width="1"/><path id="e9YOleaINPC64" d="M48.527000,80.195000C49.754500,80.195000,50.749600,79.200700,50.749600,77.974200C50.749600,76.747700,49.754500,75.753400,48.527000,75.753400C47.299400,75.753400,46.304400,76.747700,46.304400,77.974200C46.304400,79.200700,47.299400,80.195000,48.527000,80.195000Z" fill="rgb(209,209,209)" stroke="none" stroke-width="1"/><path id="e9YOleaINPC65" d="M48.527000,92.285800C49.754500,92.285800,50.749600,91.291500,50.749600,90.065000C50.749600,88.838500,49.754500,87.844200,48.527000,87.844200C47.299400,87.844200,46.304400,88.838500,46.304400,90.065000C46.304400,91.291500,47.299400,92.285800,48.527000,92.285800Z" fill="rgb(209,209,209)" stroke="none" stroke-width="1"/><path id="e9YOleaINPC66" d="M48.527000,104.254000C49.754500,104.254000,50.749600,103.259000,50.749600,102.033000C50.749600,100.806000,49.754500,99.812000,48.527000,99.812000C47.299400,99.812000,46.304400,100.806000,46.304400,102.033000C46.304400,103.259000,47.299400,104.254000,48.527000,104.254000Z" fill="rgb(209,209,209)" stroke="none" stroke-width="1"/><path id="e9YOleaINPC67" d="M48.527000,116.221000C49.754500,116.221000,50.749600,115.227000,50.749600,114C50.749600,112.774000,49.754500,111.779000,48.527000,111.779000C47.299400,111.779000,46.304400,112.774000,46.304400,114C46.304400,115.227000,47.299400,116.221000,48.527000,116.221000Z" fill="rgb(209,209,209)" stroke="none" stroke-width="1"/><path id="e9YOleaINPC68" d="M48.527000,128.189000C49.754500,128.189000,50.749600,127.194000,50.749600,125.968000C50.749600,124.741000,49.754500,123.747000,48.527000,123.747000C47.299400,123.747000,46.304400,124.741000,46.304400,125.968000C46.304400,127.194000,47.299400,128.189000,48.527000,128.189000Z" fill="rgb(209,209,209)" stroke="none" stroke-width="1"/><path id="e9YOleaINPC69" d="M26.671300,8.389800C27.898800,8.389800,28.893900,7.395520,28.893900,6.169020C28.893900,4.942520,27.898800,3.948240,26.671300,3.948240C25.443800,3.948240,24.448700,4.942520,24.448700,6.169020C24.448700,7.395520,25.443800,8.389800,26.671300,8.389800Z" fill="rgb(209,209,209)" stroke="none" stroke-width="1"/><path id="e9YOleaINPC70" d="M26.671300,20.357600C27.898800,20.357600,28.893900,19.363300,28.893900,18.136800C28.893900,16.910300,27.898800,15.916000,26.671300,15.916000C25.443800,15.916000,24.448700,16.910300,24.448700,18.136800C24.448700,19.363300,25.443800,20.357600,26.671300,20.357600Z" fill="rgb(209,209,209)" stroke="none" stroke-width="1"/><path id="e9YOleaINPC71" d="M26.671300,32.324900C27.898800,32.324900,28.893900,31.330600,28.893900,30.104100C28.893900,28.877600,27.898800,27.883300,26.671300,27.883300C25.443800,27.883300,24.448700,28.877600,24.448700,30.104100C24.448700,31.330600,25.443800,32.324900,26.671300,32.324900Z" fill="rgb(209,209,209)" stroke="none" stroke-width="1"/><path id="e9YOleaINPC72" d="M26.671300,44.292600C27.898800,44.292600,28.893900,43.298400,28.893900,42.071900C28.893900,40.845400,27.898800,39.851100,26.671300,39.851100C25.443800,39.851100,24.448700,40.845400,24.448700,42.071900C24.448700,43.298400,25.443800,44.292600,26.671300,44.292600Z" fill="rgb(209,209,209)" stroke="none" stroke-width="1"/><path id="e9YOleaINPC73" d="M26.671300,56.259900C27.898800,56.259900,28.893900,55.265600,28.893900,54.039100C28.893900,52.812600,27.898800,51.818400,26.671300,51.818400C25.443800,51.818400,24.448700,52.812600,24.448700,54.039100C24.448700,55.265600,25.443800,56.259900,26.671300,56.259900Z" fill="rgb(209,209,209)" stroke="none" stroke-width="1"/><path id="e9YOleaINPC74" d="M26.671300,68.227700C27.898800,68.227700,28.893900,67.233400,28.893900,66.006900C28.893900,64.780400,27.898800,63.786100,26.671300,63.786100C25.443800,63.786100,24.448700,64.780400,24.448700,66.006900C24.448700,67.233400,25.443800,68.227700,26.671300,68.227700Z" fill="rgb(209,209,209)" stroke="none" stroke-width="1"/><path id="e9YOleaINPC75" d="M26.671300,80.195000C27.898800,80.195000,28.893900,79.200700,28.893900,77.974200C28.893900,76.747700,27.898800,75.753400,26.671300,75.753400C25.443800,75.753400,24.448700,76.747700,24.448700,77.974200C24.448700,79.200700,25.443800,80.195000,26.671300,80.195000Z" fill="rgb(209,209,209)" stroke="none" stroke-width="1"/><path id="e9YOleaINPC76" d="M26.671300,92.285800C27.898800,92.285800,28.893900,91.291500,28.893900,90.065000C28.893900,88.838500,27.898800,87.844200,26.671300,87.844200C25.443800,87.844200,24.448700,88.838500,24.448700,90.065000C24.448700,91.291500,25.443800,92.285800,26.671300,92.285800Z" fill="rgb(209,209,209)" stroke="none" stroke-width="1"/><path id="e9YOleaINPC77" d="M26.671300,104.254000C27.898800,104.254000,28.893900,103.259000,28.893900,102.033000C28.893900,100.806000,27.898800,99.812000,26.671300,99.812000C25.443800,99.812000,24.448700,100.806000,24.448700,102.033000C24.448700,103.259000,25.443800,104.254000,26.671300,104.254000Z" fill="rgb(209,209,209)" stroke="none" stroke-width="1"/><path id="e9YOleaINPC78" d="M26.671300,116.221000C27.898800,116.221000,28.893900,115.227000,28.893900,114C28.893900,112.774000,27.898800,111.779000,26.671300,111.779000C25.443800,111.779000,24.448700,112.774000,24.448700,114C24.448700,115.227000,25.443800,116.221000,26.671300,116.221000Z" fill="rgb(209,209,209)" stroke="none" stroke-width="1"/><path id="e9YOleaINPC79" d="M26.671300,128.189000C27.898800,128.189000,28.893900,127.194000,28.893900,125.968000C28.893900,124.741000,27.898800,123.747000,26.671300,123.747000C25.443800,123.747000,24.448700,124.741000,24.448700,125.968000C24.448700,127.194000,25.443800,128.189000,26.671300,128.189000Z" fill="rgb(209,209,209)" stroke="none" stroke-width="1"/></g></g><g id="e9YOleaINPC80_to" transform="translate(1133.659323,585.644719)"><g id="e9YOleaINPC80" transform="scale(2.053961,2.053961) translate(-70.444529,-66.068617)" opacity="0.7"><path id="e9YOleaINPC81" d="M4.815660,8.389800C6.043170,8.389800,7.038270,7.395520,7.038270,6.169020C7.038270,4.942520,6.043170,3.948240,4.815660,3.948240C3.588140,3.948240,2.593050,4.942520,2.593050,6.169020C2.593050,7.395520,3.588140,8.389800,4.815660,8.389800Z" fill="rgb(209,209,209)" stroke="none" stroke-width="1"/><path id="e9YOleaINPC82" d="M4.815660,20.357600C6.043170,20.357600,7.038270,19.363300,7.038270,18.136800C7.038270,16.910300,6.043170,15.916000,4.815660,15.916000C3.588140,15.916000,2.593050,16.910300,2.593050,18.136800C2.593050,19.363300,3.588140,20.357600,4.815660,20.357600Z" fill="rgb(209,209,209)" stroke="none" stroke-width="1"/><path id="e9YOleaINPC83" d="M4.815660,32.324900C6.043170,32.324900,7.038270,31.330600,7.038270,30.104100C7.038270,28.877600,6.043170,27.883300,4.815660,27.883300C3.588140,27.883300,2.593050,28.877600,2.593050,30.104100C2.593050,31.330600,3.588140,32.324900,4.815660,32.324900Z" fill="rgb(209,209,209)" stroke="none" stroke-width="1"/><path id="e9YOleaINPC84" d="M4.815660,44.292600C6.043170,44.292600,7.038270,43.298400,7.038270,42.071900C7.038270,40.845400,6.043170,39.851100,4.815660,39.851100C3.588140,39.851100,2.593050,40.845400,2.593050,42.071900C2.593050,43.298400,3.588140,44.292600,4.815660,44.292600Z" fill="rgb(209,209,209)" stroke="none" stroke-width="1"/><path id="e9YOleaINPC85" d="M4.815660,56.259900C6.043170,56.259900,7.038270,55.265600,7.038270,54.039100C7.038270,52.812600,6.043170,51.818400,4.815660,51.818400C3.588140,51.818400,2.593050,52.812600,2.593050,54.039100C2.593050,55.265600,3.588140,56.259900,4.815660,56.259900Z" fill="rgb(209,209,209)" stroke="none" stroke-width="1"/><path id="e9YOleaINPC86" d="M4.815660,68.227700C6.043170,68.227700,7.038270,67.233400,7.038270,66.006900C7.038270,64.780400,6.043170,63.786100,4.815660,63.786100C3.588140,63.786100,2.593050,64.780400,2.593050,66.006900C2.593050,67.233400,3.588140,68.227700,4.815660,68.227700Z" fill="rgb(209,209,209)" stroke="none" stroke-width="1"/><path id="e9YOleaINPC87" d="M4.815660,80.195000C6.043170,80.195000,7.038270,79.200700,7.038270,77.974200C7.038270,76.747700,6.043170,75.753400,4.815660,75.753400C3.588140,75.753400,2.593050,76.747700,2.593050,77.974200C2.593050,79.200700,3.588140,80.195000,4.815660,80.195000Z" fill="rgb(209,209,209)" stroke="none" stroke-width="1"/><path id="e9YOleaINPC88" d="M4.815660,92.285800C6.043170,92.285800,7.038270,91.291500,7.038270,90.065000C7.038270,88.838500,6.043170,87.844200,4.815660,87.844200C3.588140,87.844200,2.593050,88.838500,2.593050,90.065000C2.593050,91.291500,3.588140,92.285800,4.815660,92.285800Z" fill="rgb(209,209,209)" stroke="none" stroke-width="1"/><path id="e9YOleaINPC89" d="M4.815660,104.254000C6.043170,104.254000,7.038270,103.259000,7.038270,102.033000C7.038270,100.806000,6.043170,99.812000,4.815660,99.812000C3.588140,99.812000,2.593050,100.806000,2.593050,102.033000C2.593050,103.259000,3.588140,104.254000,4.815660,104.254000Z" fill="rgb(209,209,209)" stroke="none" stroke-width="1"/><path id="e9YOleaINPC90" d="M4.815660,116.221000C6.043170,116.221000,7.038270,115.227000,7.038270,114C7.038270,112.774000,6.043170,111.779000,4.815660,111.779000C3.588140,111.779000,2.593050,112.774000,2.593050,114C2.593050,115.227000,3.588140,116.221000,4.815660,116.221000Z" fill="rgb(209,209,209)" stroke="none" stroke-width="1"/><path id="e9YOleaINPC91" d="M4.815660,128.189000C6.043170,128.189000,7.038270,127.194000,7.038270,125.968000C7.038270,124.741000,6.043170,123.747000,4.815660,123.747000C3.588140,123.747000,2.593050,124.741000,2.593050,125.968000C2.593050,127.194000,3.588140,128.189000,4.815660,128.189000Z" fill="rgb(209,209,209)" stroke="none" stroke-width="1"/><path id="e9YOleaINPC92" d="M114.217000,8.389800C115.445000,8.389800,116.440000,7.395520,116.440000,6.169020C116.440000,4.942520,115.445000,3.948240,114.217000,3.948240C112.990000,3.948240,111.995000,4.942520,111.995000,6.169020C111.995000,7.395520,112.990000,8.389800,114.217000,8.389800Z" fill="rgb(209,209,209)" stroke="none" stroke-width="1"/><path id="e9YOleaINPC93" d="M114.217000,20.357600C115.445000,20.357600,116.440000,19.363300,116.440000,18.136800C116.440000,16.910300,115.445000,15.916000,114.217000,15.916000C112.990000,15.916000,111.995000,16.910300,111.995000,18.136800C111.995000,19.363300,112.990000,20.357600,114.217000,20.357600Z" fill="rgb(209,209,209)" stroke="none" stroke-width="1"/><path id="e9YOleaINPC94" d="M114.217000,32.324900C115.445000,32.324900,116.440000,31.330600,116.440000,30.104100C116.440000,28.877600,115.445000,27.883300,114.217000,27.883300C112.990000,27.883300,111.995000,28.877600,111.995000,30.104100C111.995000,31.330600,112.990000,32.324900,114.217000,32.324900Z" fill="rgb(209,209,209)" stroke="none" stroke-width="1"/><path id="e9YOleaINPC95" d="M114.217000,44.292600C115.445000,44.292600,116.440000,43.298400,116.440000,42.071900C116.440000,40.845400,115.445000,39.851100,114.217000,39.851100C112.990000,39.851100,111.995000,40.845400,111.995000,42.071900C111.995000,43.298400,112.990000,44.292600,114.217000,44.292600Z" fill="rgb(209,209,209)" stroke="none" stroke-width="1"/><path id="e9YOleaINPC96" d="M114.217000,56.259900C115.445000,56.259900,116.440000,55.265600,116.440000,54.039100C116.440000,52.812600,115.445000,51.818400,114.217000,51.818400C112.990000,51.818400,111.995000,52.812600,111.995000,54.039100C111.995000,55.265600,112.990000,56.259900,114.217000,56.259900Z" fill="rgb(209,209,209)" stroke="none" stroke-width="1"/><path id="e9YOleaINPC97" d="M114.217000,68.227700C115.445000,68.227700,116.440000,67.233400,116.440000,66.006900C116.440000,64.780400,115.445000,63.786100,114.217000,63.786100C112.990000,63.786100,111.995000,64.780400,111.995000,66.006900C111.995000,67.233400,112.990000,68.227700,114.217000,68.227700Z" fill="rgb(209,209,209)" stroke="none" stroke-width="1"/><path id="e9YOleaINPC98" d="M114.217000,80.195000C115.445000,80.195000,116.440000,79.200700,116.440000,77.974200C116.440000,76.747700,115.445000,75.753400,114.217000,75.753400C112.990000,75.753400,111.995000,76.747700,111.995000,77.974200C111.995000,79.200700,112.990000,80.195000,114.217000,80.195000Z" fill="rgb(209,209,209)" stroke="none" stroke-width="1"/><path id="e9YOleaINPC99" d="M114.217000,92.285800C115.445000,92.285800,116.440000,91.291500,116.440000,90.065000C116.440000,88.838500,115.445000,87.844200,114.217000,87.844200C112.990000,87.844200,111.995000,88.838500,111.995000,90.065000C111.995000,91.291500,112.990000,92.285800,114.217000,92.285800Z" fill="rgb(209,209,209)" stroke="none" stroke-width="1"/><path id="e9YOleaINPC100" d="M114.217000,104.254000C115.445000,104.254000,116.440000,103.259000,116.440000,102.033000C116.440000,100.806000,115.445000,99.812000,114.217000,99.812000C112.990000,99.812000,111.995000,100.806000,111.995000,102.033000C111.995000,103.259000,112.990000,104.254000,114.217000,104.254000Z" fill="rgb(209,209,209)" stroke="none" stroke-width="1"/><path id="e9YOleaINPC101" d="M114.217000,116.221000C115.445000,116.221000,116.440000,115.227000,116.440000,114C116.440000,112.774000,115.445000,111.779000,114.217000,111.779000C112.990000,111.779000,111.995000,112.774000,111.995000,114C111.995000,115.227000,112.990000,116.221000,114.217000,116.221000Z" fill="rgb(209,209,209)" stroke="none" stroke-width="1"/><path id="e9YOleaINPC102" d="M114.217000,128.189000C115.445000,128.189000,116.440000,127.194000,116.440000,125.968000C116.440000,124.741000,115.445000,123.747000,114.217000,123.747000C112.990000,123.747000,111.995000,124.741000,111.995000,125.968000C111.995000,127.194000,112.990000,128.189000,114.217000,128.189000Z" fill="rgb(209,209,209)" stroke="none" stroke-width="1"/><path id="e9YOleaINPC103" d="M92.361700,8.389800C93.589300,8.389800,94.584400,7.395520,94.584400,6.169020C94.584400,4.942520,93.589300,3.948240,92.361700,3.948240C91.134200,3.948240,90.139100,4.942520,90.139100,6.169020C90.139100,7.395520,91.134200,8.389800,92.361700,8.389800Z" fill="rgb(209,209,209)" stroke="none" stroke-width="1"/><path id="e9YOleaINPC104" d="M92.361700,20.357600C93.589300,20.357600,94.584400,19.363300,94.584400,18.136800C94.584400,16.910300,93.589300,15.916000,92.361700,15.916000C91.134200,15.916000,90.139100,16.910300,90.139100,18.136800C90.139100,19.363300,91.134200,20.357600,92.361700,20.357600Z" fill="rgb(209,209,209)" stroke="none" stroke-width="1"/><path id="e9YOleaINPC105" d="M92.361700,32.324900C93.589300,32.324900,94.584400,31.330600,94.584400,30.104100C94.584400,28.877600,93.589300,27.883300,92.361700,27.883300C91.134200,27.883300,90.139100,28.877600,90.139100,30.104100C90.139100,31.330600,91.134200,32.324900,92.361700,32.324900Z" fill="rgb(209,209,209)" stroke="none" stroke-width="1"/><path id="e9YOleaINPC106" d="M92.361700,44.292600C93.589300,44.292600,94.584400,43.298400,94.584400,42.071900C94.584400,40.845400,93.589300,39.851100,92.361700,39.851100C91.134200,39.851100,90.139100,40.845400,90.139100,42.071900C90.139100,43.298400,91.134200,44.292600,92.361700,44.292600Z" fill="rgb(209,209,209)" stroke="none" stroke-width="1"/><path id="e9YOleaINPC107" d="M92.361700,56.259900C93.589300,56.259900,94.584400,55.265600,94.584400,54.039100C94.584400,52.812600,93.589300,51.818400,92.361700,51.818400C91.134200,51.818400,90.139100,52.812600,90.139100,54.039100C90.139100,55.265600,91.134200,56.259900,92.361700,56.259900Z" fill="rgb(209,209,209)" stroke="none" stroke-width="1"/><path id="e9YOleaINPC108" d="M92.361700,68.227700C93.589300,68.227700,94.584400,67.233400,94.584400,66.006900C94.584400,64.780400,93.589300,63.786100,92.361700,63.786100C91.134200,63.786100,90.139100,64.780400,90.139100,66.006900C90.139100,67.233400,91.134200,68.227700,92.361700,68.227700Z" fill="rgb(209,209,209)" stroke="none" stroke-width="1"/><path id="e9YOleaINPC109" d="M92.361700,80.195000C93.589300,80.195000,94.584400,79.200700,94.584400,77.974200C94.584400,76.747700,93.589300,75.753400,92.361700,75.753400C91.134200,75.753400,90.139100,76.747700,90.139100,77.974200C90.139100,79.200700,91.134200,80.195000,92.361700,80.195000Z" fill="rgb(209,209,209)" stroke="none" stroke-width="1"/><path id="e9YOleaINPC110" d="M92.361700,92.285800C93.589300,92.285800,94.584400,91.291500,94.584400,90.065000C94.584400,88.838500,93.589300,87.844200,92.361700,87.844200C91.134200,87.844200,90.139100,88.838500,90.139100,90.065000C90.139100,91.291500,91.134200,92.285800,92.361700,92.285800Z" fill="rgb(209,209,209)" stroke="none" stroke-width="1"/><path id="e9YOleaINPC111" d="M92.361700,104.254000C93.589300,104.254000,94.584400,103.259000,94.584400,102.033000C94.584400,100.806000,93.589300,99.812000,92.361700,99.812000C91.134200,99.812000,90.139100,100.806000,90.139100,102.033000C90.139100,103.259000,91.134200,104.254000,92.361700,104.254000Z" fill="rgb(209,209,209)" stroke="none" stroke-width="1"/><path id="e9YOleaINPC112" d="M92.361700,116.221000C93.589300,116.221000,94.584400,115.227000,94.584400,114C94.584400,112.774000,93.589300,111.779000,92.361700,111.779000C91.134200,111.779000,90.139100,112.774000,90.139100,114C90.139100,115.227000,91.134200,116.221000,92.361700,116.221000Z" fill="rgb(209,209,209)" stroke="none" stroke-width="1"/><path id="e9YOleaINPC113" d="M92.361700,128.189000C93.589300,128.189000,94.584400,127.194000,94.584400,125.968000C94.584400,124.741000,93.589300,123.747000,92.361700,123.747000C91.134200,123.747000,90.139100,124.741000,90.139100,125.968000C90.139100,127.194000,91.134200,128.189000,92.361700,128.189000Z" fill="rgb(209,209,209)" stroke="none" stroke-width="1"/><path id="e9YOleaINPC114" d="M136.073000,8.389800C137.301000,8.389800,138.296000,7.395520,138.296000,6.169020C138.296000,4.942520,137.301000,3.948240,136.073000,3.948240C134.846000,3.948240,133.850000,4.942520,133.850000,6.169020C133.850000,7.395520,134.846000,8.389800,136.073000,8.389800Z" fill="rgb(209,209,209)" stroke="none" stroke-width="1"/><path id="e9YOleaINPC115" d="M136.073000,20.357600C137.301000,20.357600,138.296000,19.363300,138.296000,18.136800C138.296000,16.910300,137.301000,15.916000,136.073000,15.916000C134.846000,15.916000,133.850000,16.910300,133.850000,18.136800C133.850000,19.363300,134.846000,20.357600,136.073000,20.357600Z" fill="rgb(209,209,209)" stroke="none" stroke-width="1"/><path id="e9YOleaINPC116" d="M136.073000,32.324900C137.301000,32.324900,138.296000,31.330600,138.296000,30.104100C138.296000,28.877600,137.301000,27.883300,136.073000,27.883300C134.846000,27.883300,133.850000,28.877600,133.850000,30.104100C133.850000,31.330600,134.846000,32.324900,136.073000,32.324900Z" fill="rgb(209,209,209)" stroke="none" stroke-width="1"/><path id="e9YOleaINPC117" d="M136.073000,44.292600C137.301000,44.292600,138.296000,43.298400,138.296000,42.071900C138.296000,40.845400,137.301000,39.851100,136.073000,39.851100C134.846000,39.851100,133.850000,40.845400,133.850000,42.071900C133.850000,43.298400,134.846000,44.292600,136.073000,44.292600Z" fill="rgb(209,209,209)" stroke="none" stroke-width="1"/><path id="e9YOleaINPC118" d="M136.073000,56.259900C137.301000,56.259900,138.296000,55.265600,138.296000,54.039100C138.296000,52.812600,137.301000,51.818400,136.073000,51.818400C134.846000,51.818400,133.850000,52.812600,133.850000,54.039100C133.850000,55.265600,134.846000,56.259900,136.073000,56.259900Z" fill="rgb(209,209,209)" stroke="none" stroke-width="1"/><path id="e9YOleaINPC119" d="M136.073000,68.227700C137.301000,68.227700,138.296000,67.233400,138.296000,66.006900C138.296000,64.780400,137.301000,63.786100,136.073000,63.786100C134.846000,63.786100,133.850000,64.780400,133.850000,66.006900C133.850000,67.233400,134.846000,68.227700,136.073000,68.227700Z" fill="rgb(209,209,209)" stroke="none" stroke-width="1"/><path id="e9YOleaINPC120" d="M136.073000,80.195000C137.301000,80.195000,138.296000,79.200700,138.296000,77.974200C138.296000,76.747700,137.301000,75.753400,136.073000,75.753400C134.846000,75.753400,133.850000,76.747700,133.850000,77.974200C133.850000,79.200700,134.846000,80.195000,136.073000,80.195000Z" fill="rgb(209,209,209)" stroke="none" stroke-width="1"/><path id="e9YOleaINPC121" d="M136.073000,92.285800C137.301000,92.285800,138.296000,91.291500,138.296000,90.065000C138.296000,88.838500,137.301000,87.844200,136.073000,87.844200C134.846000,87.844200,133.850000,88.838500,133.850000,90.065000C133.850000,91.291500,134.846000,92.285800,136.073000,92.285800Z" fill="rgb(209,209,209)" stroke="none" stroke-width="1"/><path id="e9YOleaINPC122" d="M136.073000,104.254000C137.301000,104.254000,138.296000,103.259000,138.296000,102.033000C138.296000,100.806000,137.301000,99.812000,136.073000,99.812000C134.846000,99.812000,133.850000,100.806000,133.850000,102.033000C133.850000,103.259000,134.846000,104.254000,136.073000,104.254000Z" fill="rgb(209,209,209)" stroke="none" stroke-width="1"/><path id="e9YOleaINPC123" d="M136.073000,116.221000C137.301000,116.221000,138.296000,115.227000,138.296000,114C138.296000,112.774000,137.301000,111.779000,136.073000,111.779000C134.846000,111.779000,133.850000,112.774000,133.850000,114C133.850000,115.227000,134.846000,116.221000,136.073000,116.221000Z" fill="rgb(209,209,209)" stroke="none" stroke-width="1"/><path id="e9YOleaINPC124" d="M136.073000,128.189000C137.301000,128.189000,138.296000,127.194000,138.296000,125.968000C138.296000,124.741000,137.301000,123.747000,136.073000,123.747000C134.846000,123.747000,133.850000,124.741000,133.850000,125.968000C133.850000,127.194000,134.846000,128.189000,136.073000,128.189000Z" fill="rgb(209,209,209)" stroke="none" stroke-width="1"/><path id="e9YOleaINPC125" d="M70.382600,8.389800C71.610100,8.389800,72.605200,7.395520,72.605200,6.169020C72.605200,4.942520,71.610100,3.948240,70.382600,3.948240C69.155100,3.948240,68.160000,4.942520,68.160000,6.169020C68.160000,7.395520,69.155100,8.389800,70.382600,8.389800Z" fill="rgb(209,209,209)" stroke="none" stroke-width="1"/><path id="e9YOleaINPC126" d="M70.382600,20.357600C71.610100,20.357600,72.605200,19.363300,72.605200,18.136800C72.605200,16.910300,71.610100,15.916000,70.382600,15.916000C69.155100,15.916000,68.160000,16.910300,68.160000,18.136800C68.160000,19.363300,69.155100,20.357600,70.382600,20.357600Z" fill="rgb(209,209,209)" stroke="none" stroke-width="1"/><path id="e9YOleaINPC127" d="M70.382600,32.324900C71.610100,32.324900,72.605200,31.330600,72.605200,30.104100C72.605200,28.877600,71.610100,27.883300,70.382600,27.883300C69.155100,27.883300,68.160000,28.877600,68.160000,30.104100C68.160000,31.330600,69.155100,32.324900,70.382600,32.324900Z" fill="rgb(209,209,209)" stroke="none" stroke-width="1"/><path id="e9YOleaINPC128" d="M70.382600,44.292600C71.610100,44.292600,72.605200,43.298400,72.605200,42.071900C72.605200,40.845400,71.610100,39.851100,70.382600,39.851100C69.155100,39.851100,68.160000,40.845400,68.160000,42.071900C68.160000,43.298400,69.155100,44.292600,70.382600,44.292600Z" fill="rgb(209,209,209)" stroke="none" stroke-width="1"/><path id="e9YOleaINPC129" d="M70.382600,56.259900C71.610100,56.259900,72.605200,55.265600,72.605200,54.039100C72.605200,52.812600,71.610100,51.818400,70.382600,51.818400C69.155100,51.818400,68.160000,52.812600,68.160000,54.039100C68.160000,55.265600,69.155100,56.259900,70.382600,56.259900Z" fill="rgb(209,209,209)" stroke="none" stroke-width="1"/><path id="e9YOleaINPC130" d="M70.382600,68.227700C71.610100,68.227700,72.605200,67.233400,72.605200,66.006900C72.605200,64.780400,71.610100,63.786100,70.382600,63.786100C69.155100,63.786100,68.160000,64.780400,68.160000,66.006900C68.160000,67.233400,69.155100,68.227700,70.382600,68.227700Z" fill="rgb(209,209,209)" stroke="none" stroke-width="1"/><path id="e9YOleaINPC131" d="M70.382600,80.195000C71.610100,80.195000,72.605200,79.200700,72.605200,77.974200C72.605200,76.747700,71.610100,75.753400,70.382600,75.753400C69.155100,75.753400,68.160000,76.747700,68.160000,77.974200C68.160000,79.200700,69.155100,80.195000,70.382600,80.195000Z" fill="rgb(209,209,209)" stroke="none" stroke-width="1"/><path id="e9YOleaINPC132" d="M70.382600,92.285800C71.610100,92.285800,72.605200,91.291500,72.605200,90.065000C72.605200,88.838500,71.610100,87.844200,70.382600,87.844200C69.155100,87.844200,68.160000,88.838500,68.160000,90.065000C68.160000,91.291500,69.155100,92.285800,70.382600,92.285800Z" fill="rgb(209,209,209)" stroke="none" stroke-width="1"/><path id="e9YOleaINPC133" d="M70.382600,104.254000C71.610100,104.254000,72.605200,103.259000,72.605200,102.033000C72.605200,100.806000,71.610100,99.812000,70.382600,99.812000C69.155100,99.812000,68.160000,100.806000,68.160000,102.033000C68.160000,103.259000,69.155100,104.254000,70.382600,104.254000Z" fill="rgb(209,209,209)" stroke="none" stroke-width="1"/><path id="e9YOleaINPC134" d="M70.382600,116.221000C71.610100,116.221000,72.605200,115.227000,72.605200,114C72.605200,112.774000,71.610100,111.779000,70.382600,111.779000C69.155100,111.779000,68.160000,112.774000,68.160000,114C68.160000,115.227000,69.155100,116.221000,70.382600,116.221000Z" fill="rgb(209,209,209)" stroke="none" stroke-width="1"/><path id="e9YOleaINPC135" d="M70.382600,128.189000C71.610100,128.189000,72.605200,127.194000,72.605200,125.968000C72.605200,124.741000,71.610100,123.747000,70.382600,123.747000C69.155100,123.747000,68.160000,124.741000,68.160000,125.968000C68.160000,127.194000,69.155100,128.189000,70.382600,128.189000Z" fill="rgb(209,209,209)" stroke="none" stroke-width="1"/><path id="e9YOleaINPC136" d="M48.527000,8.389800C49.754500,8.389800,50.749600,7.395520,50.749600,6.169020C50.749600,4.942520,49.754500,3.948240,48.527000,3.948240C47.299400,3.948240,46.304400,4.942520,46.304400,6.169020C46.304400,7.395520,47.299400,8.389800,48.527000,8.389800Z" fill="rgb(209,209,209)" stroke="none" stroke-width="1"/><path id="e9YOleaINPC137" d="M48.527000,20.357600C49.754500,20.357600,50.749600,19.363300,50.749600,18.136800C50.749600,16.910300,49.754500,15.916000,48.527000,15.916000C47.299400,15.916000,46.304400,16.910300,46.304400,18.136800C46.304400,19.363300,47.299400,20.357600,48.527000,20.357600Z" fill="rgb(209,209,209)" stroke="none" stroke-width="1"/><path id="e9YOleaINPC138" d="M48.527000,32.324900C49.754500,32.324900,50.749600,31.330600,50.749600,30.104100C50.749600,28.877600,49.754500,27.883300,48.527000,27.883300C47.299400,27.883300,46.304400,28.877600,46.304400,30.104100C46.304400,31.330600,47.299400,32.324900,48.527000,32.324900Z" fill="rgb(209,209,209)" stroke="none" stroke-width="1"/><path id="e9YOleaINPC139" d="M48.527000,44.292600C49.754500,44.292600,50.749600,43.298400,50.749600,42.071900C50.749600,40.845400,49.754500,39.851100,48.527000,39.851100C47.299400,39.851100,46.304400,40.845400,46.304400,42.071900C46.304400,43.298400,47.299400,44.292600,48.527000,44.292600Z" fill="rgb(209,209,209)" stroke="none" stroke-width="1"/><path id="e9YOleaINPC140" d="M48.527000,56.259900C49.754500,56.259900,50.749600,55.265600,50.749600,54.039100C50.749600,52.812600,49.754500,51.818400,48.527000,51.818400C47.299400,51.818400,46.304400,52.812600,46.304400,54.039100C46.304400,55.265600,47.299400,56.259900,48.527000,56.259900Z" fill="rgb(209,209,209)" stroke="none" stroke-width="1"/><path id="e9YOleaINPC141" d="M48.527000,68.227700C49.754500,68.227700,50.749600,67.233400,50.749600,66.006900C50.749600,64.780400,49.754500,63.786100,48.527000,63.786100C47.299400,63.786100,46.304400,64.780400,46.304400,66.006900C46.304400,67.233400,47.299400,68.227700,48.527000,68.227700Z" fill="rgb(209,209,209)" stroke="none" stroke-width="1"/><path id="e9YOleaINPC142" d="M48.527000,80.195000C49.754500,80.195000,50.749600,79.200700,50.749600,77.974200C50.749600,76.747700,49.754500,75.753400,48.527000,75.753400C47.299400,75.753400,46.304400,76.747700,46.304400,77.974200C46.304400,79.200700,47.299400,80.195000,48.527000,80.195000Z" fill="rgb(209,209,209)" stroke="none" stroke-width="1"/><path id="e9YOleaINPC143" d="M48.527000,92.285800C49.754500,92.285800,50.749600,91.291500,50.749600,90.065000C50.749600,88.838500,49.754500,87.844200,48.527000,87.844200C47.299400,87.844200,46.304400,88.838500,46.304400,90.065000C46.304400,91.291500,47.299400,92.285800,48.527000,92.285800Z" fill="rgb(209,209,209)" stroke="none" stroke-width="1"/><path id="e9YOleaINPC144" d="M48.527000,104.254000C49.754500,104.254000,50.749600,103.259000,50.749600,102.033000C50.749600,100.806000,49.754500,99.812000,48.527000,99.812000C47.299400,99.812000,46.304400,100.806000,46.304400,102.033000C46.304400,103.259000,47.299400,104.254000,48.527000,104.254000Z" fill="rgb(209,209,209)" stroke="none" stroke-width="1"/><path id="e9YOleaINPC145" d="M48.527000,116.221000C49.754500,116.221000,50.749600,115.227000,50.749600,114C50.749600,112.774000,49.754500,111.779000,48.527000,111.779000C47.299400,111.779000,46.304400,112.774000,46.304400,114C46.304400,115.227000,47.299400,116.221000,48.527000,116.221000Z" fill="rgb(209,209,209)" stroke="none" stroke-width="1"/><path id="e9YOleaINPC146" d="M48.527000,128.189000C49.754500,128.189000,50.749600,127.194000,50.749600,125.968000C50.749600,124.741000,49.754500,123.747000,48.527000,123.747000C47.299400,123.747000,46.304400,124.741000,46.304400,125.968000C46.304400,127.194000,47.299400,128.189000,48.527000,128.189000Z" fill="rgb(209,209,209)" stroke="none" stroke-width="1"/><path id="e9YOleaINPC147" d="M26.671300,8.389800C27.898800,8.389800,28.893900,7.395520,28.893900,6.169020C28.893900,4.942520,27.898800,3.948240,26.671300,3.948240C25.443800,3.948240,24.448700,4.942520,24.448700,6.169020C24.448700,7.395520,25.443800,8.389800,26.671300,8.389800Z" fill="rgb(209,209,209)" stroke="none" stroke-width="1"/><path id="e9YOleaINPC148" d="M26.671300,20.357600C27.898800,20.357600,28.893900,19.363300,28.893900,18.136800C28.893900,16.910300,27.898800,15.916000,26.671300,15.916000C25.443800,15.916000,24.448700,16.910300,24.448700,18.136800C24.448700,19.363300,25.443800,20.357600,26.671300,20.357600Z" fill="rgb(209,209,209)" stroke="none" stroke-width="1"/><path id="e9YOleaINPC149" d="M26.671300,32.324900C27.898800,32.324900,28.893900,31.330600,28.893900,30.104100C28.893900,28.877600,27.898800,27.883300,26.671300,27.883300C25.443800,27.883300,24.448700,28.877600,24.448700,30.104100C24.448700,31.330600,25.443800,32.324900,26.671300,32.324900Z" fill="rgb(209,209,209)" stroke="none" stroke-width="1"/><path id="e9YOleaINPC150" d="M26.671300,44.292600C27.898800,44.292600,28.893900,43.298400,28.893900,42.071900C28.893900,40.845400,27.898800,39.851100,26.671300,39.851100C25.443800,39.851100,24.448700,40.845400,24.448700,42.071900C24.448700,43.298400,25.443800,44.292600,26.671300,44.292600Z" fill="rgb(209,209,209)" stroke="none" stroke-width="1"/><path id="e9YOleaINPC151" d="M26.671300,56.259900C27.898800,56.259900,28.893900,55.265600,28.893900,54.039100C28.893900,52.812600,27.898800,51.818400,26.671300,51.818400C25.443800,51.818400,24.448700,52.812600,24.448700,54.039100C24.448700,55.265600,25.443800,56.259900,26.671300,56.259900Z" fill="rgb(209,209,209)" stroke="none" stroke-width="1"/><path id="e9YOleaINPC152" d="M26.671300,68.227700C27.898800,68.227700,28.893900,67.233400,28.893900,66.006900C28.893900,64.780400,27.898800,63.786100,26.671300,63.786100C25.443800,63.786100,24.448700,64.780400,24.448700,66.006900C24.448700,67.233400,25.443800,68.227700,26.671300,68.227700Z" fill="rgb(209,209,209)" stroke="none" stroke-width="1"/><path id="e9YOleaINPC153" d="M26.671300,80.195000C27.898800,80.195000,28.893900,79.200700,28.893900,77.974200C28.893900,76.747700,27.898800,75.753400,26.671300,75.753400C25.443800,75.753400,24.448700,76.747700,24.448700,77.974200C24.448700,79.200700,25.443800,80.195000,26.671300,80.195000Z" fill="rgb(209,209,209)" stroke="none" stroke-width="1"/><path id="e9YOleaINPC154" d="M26.671300,92.285800C27.898800,92.285800,28.893900,91.291500,28.893900,90.065000C28.893900,88.838500,27.898800,87.844200,26.671300,87.844200C25.443800,87.844200,24.448700,88.838500,24.448700,90.065000C24.448700,91.291500,25.443800,92.285800,26.671300,92.285800Z" fill="rgb(209,209,209)" stroke="none" stroke-width="1"/><path id="e9YOleaINPC155" d="M26.671300,104.254000C27.898800,104.254000,28.893900,103.259000,28.893900,102.033000C28.893900,100.806000,27.898800,99.812000,26.671300,99.812000C25.443800,99.812000,24.448700,100.806000,24.448700,102.033000C24.448700,103.259000,25.443800,104.254000,26.671300,104.254000Z" fill="rgb(209,209,209)" stroke="none" stroke-width="1"/><path id="e9YOleaINPC156" d="M26.671300,116.221000C27.898800,116.221000,28.893900,115.227000,28.893900,114C28.893900,112.774000,27.898800,111.779000,26.671300,111.779000C25.443800,111.779000,24.448700,112.774000,24.448700,114C24.448700,115.227000,25.443800,116.221000,26.671300,116.221000Z" fill="rgb(209,209,209)" stroke="none" stroke-width="1"/><path id="e9YOleaINPC157" d="M26.671300,128.189000C27.898800,128.189000,28.893900,127.194000,28.893900,125.968000C28.893900,124.741000,27.898800,123.747000,26.671300,123.747000C25.443800,123.747000,24.448700,124.741000,24.448700,125.968000C24.448700,127.194000,25.443800,128.189000,26.671300,128.189000Z" fill="rgb(209,209,209)" stroke="none" stroke-width="1"/></g></g></svg>