<svg width="142" height="133" viewBox="0 0 142 133" fill="none" xmlns="http://www.w3.org/2000/svg">
<g opacity="0.7">
<path d="M4.81587 8.38956C6.04338 8.38956 7.03848 7.39528 7.03848 6.16878C7.03848 4.94227 6.04338 3.948 4.81587 3.948C3.58836 3.948 2.59326 4.94227 2.59326 6.16878C2.59326 7.39528 3.58836 8.38956 4.81587 8.38956Z" fill="#5600E3"/>
<path d="M4.81587 20.3571C6.04338 20.3571 7.03848 19.3628 7.03848 18.1363C7.03848 16.9098 6.04338 15.9155 4.81587 15.9155C3.58836 15.9155 2.59326 16.9098 2.59326 18.1363C2.59326 19.3628 3.58836 20.3571 4.81587 20.3571Z" fill="#5600E3"/>
<path d="M4.81587 32.3246C6.04338 32.3246 7.03848 31.3303 7.03848 30.1038C7.03848 28.8773 6.04338 27.8831 4.81587 27.8831C3.58836 27.8831 2.59326 28.8773 2.59326 30.1038C2.59326 31.3303 3.58836 32.3246 4.81587 32.3246Z" fill="#5600E3"/>
<path d="M4.81587 44.2921C6.04338 44.2921 7.03848 43.2979 7.03848 42.0714C7.03848 40.8449 6.04338 39.8506 4.81587 39.8506C3.58836 39.8506 2.59326 40.8449 2.59326 42.0714C2.59326 43.2979 3.58836 44.2921 4.81587 44.2921Z" fill="#5600E3"/>
<path d="M4.81587 56.2597C6.04338 56.2597 7.03848 55.2654 7.03848 54.0389C7.03848 52.8124 6.04338 51.8181 4.81587 51.8181C3.58836 51.8181 2.59326 52.8124 2.59326 54.0389C2.59326 55.2654 3.58836 56.2597 4.81587 56.2597Z" fill="#5600E3"/>
<path d="M4.81587 68.2272C6.04338 68.2272 7.03848 67.2329 7.03848 66.0064C7.03848 64.7799 6.04338 63.7856 4.81587 63.7856C3.58836 63.7856 2.59326 64.7799 2.59326 66.0064C2.59326 67.2329 3.58836 68.2272 4.81587 68.2272Z" fill="#5600E3"/>
<path d="M4.81587 80.1947C6.04338 80.1947 7.03848 79.2005 7.03848 77.974C7.03848 76.7475 6.04338 75.7532 4.81587 75.7532C3.58836 75.7532 2.59326 76.7475 2.59326 77.974C2.59326 79.2005 3.58836 80.1947 4.81587 80.1947Z" fill="#5600E3"/>
<path d="M4.81587 92.2856C6.04338 92.2856 7.03848 91.2913 7.03848 90.0648C7.03848 88.8383 6.04338 87.844 4.81587 87.844C3.58836 87.844 2.59326 88.8383 2.59326 90.0648C2.59326 91.2913 3.58836 92.2856 4.81587 92.2856Z" fill="#5600E3"/>
<path d="M4.81587 104.253C6.04338 104.253 7.03848 103.259 7.03848 102.032C7.03848 100.806 6.04338 99.8115 4.81587 99.8115C3.58836 99.8115 2.59326 100.806 2.59326 102.032C2.59326 103.259 3.58836 104.253 4.81587 104.253Z" fill="#5600E3"/>
<path d="M4.81587 116.221C6.04338 116.221 7.03848 115.226 7.03848 114C7.03848 112.773 6.04338 111.779 4.81587 111.779C3.58836 111.779 2.59326 112.773 2.59326 114C2.59326 115.226 3.58836 116.221 4.81587 116.221Z" fill="#5600E3"/>
<path d="M4.81587 128.188C6.04338 128.188 7.03848 127.194 7.03848 125.967C7.03848 124.741 6.04338 123.747 4.81587 123.747C3.58836 123.747 2.59326 124.741 2.59326 125.967C2.59326 127.194 3.58836 128.188 4.81587 128.188Z" fill="#5600E3"/>
<path d="M114.217 8.38956C115.445 8.38956 116.44 7.39528 116.44 6.16878C116.44 4.94227 115.445 3.948 114.217 3.948C112.99 3.948 111.995 4.94227 111.995 6.16878C111.995 7.39528 112.99 8.38956 114.217 8.38956Z" fill="#5600E3"/>
<path d="M114.217 20.3571C115.445 20.3571 116.44 19.3628 116.44 18.1363C116.44 16.9098 115.445 15.9155 114.217 15.9155C112.99 15.9155 111.995 16.9098 111.995 18.1363C111.995 19.3628 112.99 20.3571 114.217 20.3571Z" fill="#5600E3"/>
<path d="M114.217 32.3246C115.445 32.3246 116.44 31.3303 116.44 30.1038C116.44 28.8773 115.445 27.8831 114.217 27.8831C112.99 27.8831 111.995 28.8773 111.995 30.1038C111.995 31.3303 112.99 32.3246 114.217 32.3246Z" fill="#5600E3"/>
<path d="M114.217 44.2921C115.445 44.2921 116.44 43.2979 116.44 42.0714C116.44 40.8449 115.445 39.8506 114.217 39.8506C112.99 39.8506 111.995 40.8449 111.995 42.0714C111.995 43.2979 112.99 44.2921 114.217 44.2921Z" fill="#5600E3"/>
<path d="M114.217 56.2597C115.445 56.2597 116.44 55.2654 116.44 54.0389C116.44 52.8124 115.445 51.8181 114.217 51.8181C112.99 51.8181 111.995 52.8124 111.995 54.0389C111.995 55.2654 112.99 56.2597 114.217 56.2597Z" fill="#5600E3"/>
<path d="M114.217 68.2272C115.445 68.2272 116.44 67.2329 116.44 66.0064C116.44 64.7799 115.445 63.7856 114.217 63.7856C112.99 63.7856 111.995 64.7799 111.995 66.0064C111.995 67.2329 112.99 68.2272 114.217 68.2272Z" fill="#5600E3"/>
<path d="M114.217 80.1947C115.445 80.1947 116.44 79.2005 116.44 77.974C116.44 76.7475 115.445 75.7532 114.217 75.7532C112.99 75.7532 111.995 76.7475 111.995 77.974C111.995 79.2005 112.99 80.1947 114.217 80.1947Z" fill="#5600E3"/>
<path d="M114.217 92.2856C115.445 92.2856 116.44 91.2913 116.44 90.0648C116.44 88.8383 115.445 87.844 114.217 87.844C112.99 87.844 111.995 88.8383 111.995 90.0648C111.995 91.2913 112.99 92.2856 114.217 92.2856Z" fill="#5600E3"/>
<path d="M114.217 104.253C115.445 104.253 116.44 103.259 116.44 102.032C116.44 100.806 115.445 99.8115 114.217 99.8115C112.99 99.8115 111.995 100.806 111.995 102.032C111.995 103.259 112.99 104.253 114.217 104.253Z" fill="#5600E3"/>
<path d="M114.217 116.221C115.445 116.221 116.44 115.226 116.44 114C116.44 112.773 115.445 111.779 114.217 111.779C112.99 111.779 111.995 112.773 111.995 114C111.995 115.226 112.99 116.221 114.217 116.221Z" fill="#5600E3"/>
<path d="M114.217 128.188C115.445 128.188 116.44 127.194 116.44 125.967C116.44 124.741 115.445 123.747 114.217 123.747C112.99 123.747 111.995 124.741 111.995 125.967C111.995 127.194 112.99 128.188 114.217 128.188Z" fill="#5600E3"/>
<path d="M92.3618 8.38956C93.5893 8.38956 94.5844 7.39528 94.5844 6.16878C94.5844 4.94227 93.5893 3.948 92.3618 3.948C91.1343 3.948 90.1392 4.94227 90.1392 6.16878C90.1392 7.39528 91.1343 8.38956 92.3618 8.38956Z" fill="#5600E3"/>
<path d="M92.3618 20.3571C93.5893 20.3571 94.5844 19.3628 94.5844 18.1363C94.5844 16.9098 93.5893 15.9155 92.3618 15.9155C91.1343 15.9155 90.1392 16.9098 90.1392 18.1363C90.1392 19.3628 91.1343 20.3571 92.3618 20.3571Z" fill="#5600E3"/>
<path d="M92.3618 32.3246C93.5893 32.3246 94.5844 31.3303 94.5844 30.1038C94.5844 28.8773 93.5893 27.8831 92.3618 27.8831C91.1343 27.8831 90.1392 28.8773 90.1392 30.1038C90.1392 31.3303 91.1343 32.3246 92.3618 32.3246Z" fill="#5600E3"/>
<path d="M92.3618 44.2921C93.5893 44.2921 94.5844 43.2979 94.5844 42.0714C94.5844 40.8449 93.5893 39.8506 92.3618 39.8506C91.1343 39.8506 90.1392 40.8449 90.1392 42.0714C90.1392 43.2979 91.1343 44.2921 92.3618 44.2921Z" fill="#5600E3"/>
<path d="M92.3618 56.2597C93.5893 56.2597 94.5844 55.2654 94.5844 54.0389C94.5844 52.8124 93.5893 51.8181 92.3618 51.8181C91.1343 51.8181 90.1392 52.8124 90.1392 54.0389C90.1392 55.2654 91.1343 56.2597 92.3618 56.2597Z" fill="#5600E3"/>
<path d="M92.3618 68.2272C93.5893 68.2272 94.5844 67.2329 94.5844 66.0064C94.5844 64.7799 93.5893 63.7856 92.3618 63.7856C91.1343 63.7856 90.1392 64.7799 90.1392 66.0064C90.1392 67.2329 91.1343 68.2272 92.3618 68.2272Z" fill="#5600E3"/>
<path d="M92.3618 80.1947C93.5893 80.1947 94.5844 79.2005 94.5844 77.974C94.5844 76.7475 93.5893 75.7532 92.3618 75.7532C91.1343 75.7532 90.1392 76.7475 90.1392 77.974C90.1392 79.2005 91.1343 80.1947 92.3618 80.1947Z" fill="#5600E3"/>
<path d="M92.3618 92.2856C93.5893 92.2856 94.5844 91.2913 94.5844 90.0648C94.5844 88.8383 93.5893 87.844 92.3618 87.844C91.1343 87.844 90.1392 88.8383 90.1392 90.0648C90.1392 91.2913 91.1343 92.2856 92.3618 92.2856Z" fill="#5600E3"/>
<path d="M92.3618 104.253C93.5893 104.253 94.5844 103.259 94.5844 102.032C94.5844 100.806 93.5893 99.8115 92.3618 99.8115C91.1343 99.8115 90.1392 100.806 90.1392 102.032C90.1392 103.259 91.1343 104.253 92.3618 104.253Z" fill="#5600E3"/>
<path d="M92.3618 116.221C93.5893 116.221 94.5844 115.226 94.5844 114C94.5844 112.773 93.5893 111.779 92.3618 111.779C91.1343 111.779 90.1392 112.773 90.1392 114C90.1392 115.226 91.1343 116.221 92.3618 116.221Z" fill="#5600E3"/>
<path d="M92.3618 128.188C93.5893 128.188 94.5844 127.194 94.5844 125.967C94.5844 124.741 93.5893 123.747 92.3618 123.747C91.1343 123.747 90.1392 124.741 90.1392 125.967C90.1392 127.194 91.1343 128.188 92.3618 128.188Z" fill="#5600E3"/>
<path d="M136.073 8.38956C137.301 8.38956 138.296 7.39528 138.296 6.16878C138.296 4.94227 137.301 3.948 136.073 3.948C134.846 3.948 133.851 4.94227 133.851 6.16878C133.851 7.39528 134.846 8.38956 136.073 8.38956Z" fill="#5600E3"/>
<path d="M136.073 20.3571C137.301 20.3571 138.296 19.3628 138.296 18.1363C138.296 16.9098 137.301 15.9155 136.073 15.9155C134.846 15.9155 133.851 16.9098 133.851 18.1363C133.851 19.3628 134.846 20.3571 136.073 20.3571Z" fill="#5600E3"/>
<path d="M136.073 32.3246C137.301 32.3246 138.296 31.3303 138.296 30.1038C138.296 28.8773 137.301 27.8831 136.073 27.8831C134.846 27.8831 133.851 28.8773 133.851 30.1038C133.851 31.3303 134.846 32.3246 136.073 32.3246Z" fill="#5600E3"/>
<path d="M136.073 44.2921C137.301 44.2921 138.296 43.2979 138.296 42.0714C138.296 40.8449 137.301 39.8506 136.073 39.8506C134.846 39.8506 133.851 40.8449 133.851 42.0714C133.851 43.2979 134.846 44.2921 136.073 44.2921Z" fill="#5600E3"/>
<path d="M136.073 56.2597C137.301 56.2597 138.296 55.2654 138.296 54.0389C138.296 52.8124 137.301 51.8181 136.073 51.8181C134.846 51.8181 133.851 52.8124 133.851 54.0389C133.851 55.2654 134.846 56.2597 136.073 56.2597Z" fill="#5600E3"/>
<path d="M136.073 68.2272C137.301 68.2272 138.296 67.2329 138.296 66.0064C138.296 64.7799 137.301 63.7856 136.073 63.7856C134.846 63.7856 133.851 64.7799 133.851 66.0064C133.851 67.2329 134.846 68.2272 136.073 68.2272Z" fill="#5600E3"/>
<path d="M136.073 80.1947C137.301 80.1947 138.296 79.2005 138.296 77.974C138.296 76.7475 137.301 75.7532 136.073 75.7532C134.846 75.7532 133.851 76.7475 133.851 77.974C133.851 79.2005 134.846 80.1947 136.073 80.1947Z" fill="#5600E3"/>
<path d="M136.073 92.2856C137.301 92.2856 138.296 91.2913 138.296 90.0648C138.296 88.8383 137.301 87.844 136.073 87.844C134.846 87.844 133.851 88.8383 133.851 90.0648C133.851 91.2913 134.846 92.2856 136.073 92.2856Z" fill="#5600E3"/>
<path d="M136.073 104.253C137.301 104.253 138.296 103.259 138.296 102.032C138.296 100.806 137.301 99.8115 136.073 99.8115C134.846 99.8115 133.851 100.806 133.851 102.032C133.851 103.259 134.846 104.253 136.073 104.253Z" fill="#5600E3"/>
<path d="M136.073 116.221C137.301 116.221 138.296 115.226 138.296 114C138.296 112.773 137.301 111.779 136.073 111.779C134.846 111.779 133.851 112.773 133.851 114C133.851 115.226 134.846 116.221 136.073 116.221Z" fill="#5600E3"/>
<path d="M136.073 128.188C137.301 128.188 138.296 127.194 138.296 125.967C138.296 124.741 137.301 123.747 136.073 123.747C134.846 123.747 133.851 124.741 133.851 125.967C133.851 127.194 134.846 128.188 136.073 128.188Z" fill="#5600E3"/>
<path d="M70.3828 8.38956C71.6103 8.38956 72.6054 7.39528 72.6054 6.16878C72.6054 4.94227 71.6103 3.948 70.3828 3.948C69.1553 3.948 68.1602 4.94227 68.1602 6.16878C68.1602 7.39528 69.1553 8.38956 70.3828 8.38956Z" fill="#5600E3"/>
<path d="M70.3828 20.3571C71.6103 20.3571 72.6054 19.3628 72.6054 18.1363C72.6054 16.9098 71.6103 15.9155 70.3828 15.9155C69.1553 15.9155 68.1602 16.9098 68.1602 18.1363C68.1602 19.3628 69.1553 20.3571 70.3828 20.3571Z" fill="#5600E3"/>
<path d="M70.3828 32.3246C71.6103 32.3246 72.6054 31.3303 72.6054 30.1038C72.6054 28.8773 71.6103 27.8831 70.3828 27.8831C69.1553 27.8831 68.1602 28.8773 68.1602 30.1038C68.1602 31.3303 69.1553 32.3246 70.3828 32.3246Z" fill="#5600E3"/>
<path d="M70.3828 44.2921C71.6103 44.2921 72.6054 43.2979 72.6054 42.0714C72.6054 40.8449 71.6103 39.8506 70.3828 39.8506C69.1553 39.8506 68.1602 40.8449 68.1602 42.0714C68.1602 43.2979 69.1553 44.2921 70.3828 44.2921Z" fill="#5600E3"/>
<path d="M70.3828 56.2597C71.6103 56.2597 72.6054 55.2654 72.6054 54.0389C72.6054 52.8124 71.6103 51.8181 70.3828 51.8181C69.1553 51.8181 68.1602 52.8124 68.1602 54.0389C68.1602 55.2654 69.1553 56.2597 70.3828 56.2597Z" fill="#5600E3"/>
<path d="M70.3828 68.2272C71.6103 68.2272 72.6054 67.2329 72.6054 66.0064C72.6054 64.7799 71.6103 63.7856 70.3828 63.7856C69.1553 63.7856 68.1602 64.7799 68.1602 66.0064C68.1602 67.2329 69.1553 68.2272 70.3828 68.2272Z" fill="#5600E3"/>
<path d="M70.3828 80.1947C71.6103 80.1947 72.6054 79.2005 72.6054 77.974C72.6054 76.7475 71.6103 75.7532 70.3828 75.7532C69.1553 75.7532 68.1602 76.7475 68.1602 77.974C68.1602 79.2005 69.1553 80.1947 70.3828 80.1947Z" fill="#5600E3"/>
<path d="M70.3828 92.2856C71.6103 92.2856 72.6054 91.2913 72.6054 90.0648C72.6054 88.8383 71.6103 87.844 70.3828 87.844C69.1553 87.844 68.1602 88.8383 68.1602 90.0648C68.1602 91.2913 69.1553 92.2856 70.3828 92.2856Z" fill="#5600E3"/>
<path d="M70.3828 104.253C71.6103 104.253 72.6054 103.259 72.6054 102.032C72.6054 100.806 71.6103 99.8115 70.3828 99.8115C69.1553 99.8115 68.1602 100.806 68.1602 102.032C68.1602 103.259 69.1553 104.253 70.3828 104.253Z" fill="#5600E3"/>
<path d="M70.3828 116.221C71.6103 116.221 72.6054 115.226 72.6054 114C72.6054 112.773 71.6103 111.779 70.3828 111.779C69.1553 111.779 68.1602 112.773 68.1602 114C68.1602 115.226 69.1553 116.221 70.3828 116.221Z" fill="#5600E3"/>
<path d="M70.3828 128.188C71.6103 128.188 72.6054 127.194 72.6054 125.967C72.6054 124.741 71.6103 123.747 70.3828 123.747C69.1553 123.747 68.1602 124.741 68.1602 125.967C68.1602 127.194 69.1553 128.188 70.3828 128.188Z" fill="#5600E3"/>
<path d="M48.5268 8.38956C49.7543 8.38956 50.7494 7.39528 50.7494 6.16878C50.7494 4.94227 49.7543 3.948 48.5268 3.948C47.2993 3.948 46.3042 4.94227 46.3042 6.16878C46.3042 7.39528 47.2993 8.38956 48.5268 8.38956Z" fill="#5600E3"/>
<path d="M48.5268 20.3571C49.7543 20.3571 50.7494 19.3628 50.7494 18.1363C50.7494 16.9098 49.7543 15.9155 48.5268 15.9155C47.2993 15.9155 46.3042 16.9098 46.3042 18.1363C46.3042 19.3628 47.2993 20.3571 48.5268 20.3571Z" fill="#5600E3"/>
<path d="M48.5268 32.3246C49.7543 32.3246 50.7494 31.3303 50.7494 30.1038C50.7494 28.8773 49.7543 27.8831 48.5268 27.8831C47.2993 27.8831 46.3042 28.8773 46.3042 30.1038C46.3042 31.3303 47.2993 32.3246 48.5268 32.3246Z" fill="#5600E3"/>
<path d="M48.5268 44.2921C49.7543 44.2921 50.7494 43.2979 50.7494 42.0714C50.7494 40.8449 49.7543 39.8506 48.5268 39.8506C47.2993 39.8506 46.3042 40.8449 46.3042 42.0714C46.3042 43.2979 47.2993 44.2921 48.5268 44.2921Z" fill="#5600E3"/>
<path d="M48.5268 56.2597C49.7543 56.2597 50.7494 55.2654 50.7494 54.0389C50.7494 52.8124 49.7543 51.8181 48.5268 51.8181C47.2993 51.8181 46.3042 52.8124 46.3042 54.0389C46.3042 55.2654 47.2993 56.2597 48.5268 56.2597Z" fill="#5600E3"/>
<path d="M48.5268 68.2272C49.7543 68.2272 50.7494 67.2329 50.7494 66.0064C50.7494 64.7799 49.7543 63.7856 48.5268 63.7856C47.2993 63.7856 46.3042 64.7799 46.3042 66.0064C46.3042 67.2329 47.2993 68.2272 48.5268 68.2272Z" fill="#5600E3"/>
<path d="M48.5268 80.1947C49.7543 80.1947 50.7494 79.2005 50.7494 77.974C50.7494 76.7475 49.7543 75.7532 48.5268 75.7532C47.2993 75.7532 46.3042 76.7475 46.3042 77.974C46.3042 79.2005 47.2993 80.1947 48.5268 80.1947Z" fill="#5600E3"/>
<path d="M48.5268 92.2856C49.7543 92.2856 50.7494 91.2913 50.7494 90.0648C50.7494 88.8383 49.7543 87.844 48.5268 87.844C47.2993 87.844 46.3042 88.8383 46.3042 90.0648C46.3042 91.2913 47.2993 92.2856 48.5268 92.2856Z" fill="#5600E3"/>
<path d="M48.5268 104.253C49.7543 104.253 50.7494 103.259 50.7494 102.032C50.7494 100.806 49.7543 99.8115 48.5268 99.8115C47.2993 99.8115 46.3042 100.806 46.3042 102.032C46.3042 103.259 47.2993 104.253 48.5268 104.253Z" fill="#5600E3"/>
<path d="M48.5268 116.221C49.7543 116.221 50.7494 115.226 50.7494 114C50.7494 112.773 49.7543 111.779 48.5268 111.779C47.2993 111.779 46.3042 112.773 46.3042 114C46.3042 115.226 47.2993 116.221 48.5268 116.221Z" fill="#5600E3"/>
<path d="M48.5268 128.188C49.7543 128.188 50.7494 127.194 50.7494 125.967C50.7494 124.741 49.7543 123.747 48.5268 123.747C47.2993 123.747 46.3042 124.741 46.3042 125.967C46.3042 127.194 47.2993 128.188 48.5268 128.188Z" fill="#5600E3"/>
<path d="M26.6713 8.38956C27.8989 8.38956 28.8939 7.39528 28.8939 6.16878C28.8939 4.94227 27.8989 3.948 26.6713 3.948C25.4438 3.948 24.4487 4.94227 24.4487 6.16878C24.4487 7.39528 25.4438 8.38956 26.6713 8.38956Z" fill="#5600E3"/>
<path d="M26.6713 20.3571C27.8989 20.3571 28.8939 19.3628 28.8939 18.1363C28.8939 16.9098 27.8989 15.9155 26.6713 15.9155C25.4438 15.9155 24.4487 16.9098 24.4487 18.1363C24.4487 19.3628 25.4438 20.3571 26.6713 20.3571Z" fill="#5600E3"/>
<path d="M26.6713 32.3246C27.8989 32.3246 28.8939 31.3303 28.8939 30.1038C28.8939 28.8773 27.8989 27.8831 26.6713 27.8831C25.4438 27.8831 24.4487 28.8773 24.4487 30.1038C24.4487 31.3303 25.4438 32.3246 26.6713 32.3246Z" fill="#5600E3"/>
<path d="M26.6713 44.2921C27.8989 44.2921 28.8939 43.2979 28.8939 42.0714C28.8939 40.8449 27.8989 39.8506 26.6713 39.8506C25.4438 39.8506 24.4487 40.8449 24.4487 42.0714C24.4487 43.2979 25.4438 44.2921 26.6713 44.2921Z" fill="#5600E3"/>
<path d="M26.6713 56.2597C27.8989 56.2597 28.8939 55.2654 28.8939 54.0389C28.8939 52.8124 27.8989 51.8181 26.6713 51.8181C25.4438 51.8181 24.4487 52.8124 24.4487 54.0389C24.4487 55.2654 25.4438 56.2597 26.6713 56.2597Z" fill="#5600E3"/>
<path d="M26.6713 68.2272C27.8989 68.2272 28.8939 67.2329 28.8939 66.0064C28.8939 64.7799 27.8989 63.7856 26.6713 63.7856C25.4438 63.7856 24.4487 64.7799 24.4487 66.0064C24.4487 67.2329 25.4438 68.2272 26.6713 68.2272Z" fill="#5600E3"/>
<path d="M26.6713 80.1947C27.8989 80.1947 28.8939 79.2005 28.8939 77.974C28.8939 76.7475 27.8989 75.7532 26.6713 75.7532C25.4438 75.7532 24.4487 76.7475 24.4487 77.974C24.4487 79.2005 25.4438 80.1947 26.6713 80.1947Z" fill="#5600E3"/>
<path d="M26.6713 92.2856C27.8989 92.2856 28.8939 91.2913 28.8939 90.0648C28.8939 88.8383 27.8989 87.844 26.6713 87.844C25.4438 87.844 24.4487 88.8383 24.4487 90.0648C24.4487 91.2913 25.4438 92.2856 26.6713 92.2856Z" fill="#5600E3"/>
<path d="M26.6713 104.253C27.8989 104.253 28.8939 103.259 28.8939 102.032C28.8939 100.806 27.8989 99.8115 26.6713 99.8115C25.4438 99.8115 24.4487 100.806 24.4487 102.032C24.4487 103.259 25.4438 104.253 26.6713 104.253Z" fill="#5600E3"/>
<path d="M26.6713 116.221C27.8989 116.221 28.8939 115.226 28.8939 114C28.8939 112.773 27.8989 111.779 26.6713 111.779C25.4438 111.779 24.4487 112.773 24.4487 114C24.4487 115.226 25.4438 116.221 26.6713 116.221Z" fill="#5600E3"/>
<path d="M26.6713 128.188C27.8989 128.188 28.8939 127.194 28.8939 125.967C28.8939 124.741 27.8989 123.747 26.6713 123.747C25.4438 123.747 24.4487 124.741 24.4487 125.967C24.4487 127.194 25.4438 128.188 26.6713 128.188Z" fill="#5600E3"/>
</g>
</svg>
