<svg width="127" height="119" viewBox="0 0 127 119" fill="none" xmlns="http://www.w3.org/2000/svg">
<g opacity="0.7">
<path d="M4.28381 7.46316C5.37577 7.46316 6.26098 6.57868 6.26098 5.48762C6.26098 4.39656 5.37577 3.51208 4.28381 3.51208C3.19185 3.51208 2.30664 4.39656 2.30664 5.48762C2.30664 6.57868 3.19185 7.46316 4.28381 7.46316Z" fill="#F8F1F1"/>
<path d="M4.28381 18.1092C5.37577 18.1092 6.26098 17.2247 6.26098 16.1336C6.26098 15.0426 5.37577 14.1581 4.28381 14.1581C3.19185 14.1581 2.30664 15.0426 2.30664 16.1336C2.30664 17.2247 3.19185 18.1092 4.28381 18.1092Z" fill="#F8F1F1"/>
<path d="M4.28381 28.755C5.37577 28.755 6.26098 27.8706 6.26098 26.7795C6.26098 25.6884 5.37577 24.804 4.28381 24.804C3.19185 24.804 2.30664 25.6884 2.30664 26.7795C2.30664 27.8706 3.19185 28.755 4.28381 28.755Z" fill="#F8F1F1"/>
<path d="M4.28381 39.401C5.37577 39.401 6.26098 38.5166 6.26098 37.4255C6.26098 36.3344 5.37577 35.45 4.28381 35.45C3.19185 35.45 2.30664 36.3344 2.30664 37.4255C2.30664 38.5166 3.19185 39.401 4.28381 39.401Z" fill="#F8F1F1"/>
<path d="M4.28381 50.047C5.37577 50.047 6.26098 49.1625 6.26098 48.0715C6.26098 46.9804 5.37577 46.0959 4.28381 46.0959C3.19185 46.0959 2.30664 46.9804 2.30664 48.0715C2.30664 49.1625 3.19185 50.047 4.28381 50.047Z" fill="#F8F1F1"/>
<path d="M4.28381 60.693C5.37577 60.693 6.26098 59.8085 6.26098 58.7175C6.26098 57.6264 5.37577 56.7419 4.28381 56.7419C3.19185 56.7419 2.30664 57.6264 2.30664 58.7175C2.30664 59.8085 3.19185 60.693 4.28381 60.693Z" fill="#F8F1F1"/>
<path d="M4.28381 71.3389C5.37577 71.3389 6.26098 70.4544 6.26098 69.3634C6.26098 68.2723 5.37577 67.3878 4.28381 67.3878C3.19185 67.3878 2.30664 68.2723 2.30664 69.3634C2.30664 70.4544 3.19185 71.3389 4.28381 71.3389Z" fill="#F8F1F1"/>
<path d="M4.28381 82.0947C5.37577 82.0947 6.26098 81.2102 6.26098 80.1191C6.26098 79.028 5.37577 78.1436 4.28381 78.1436C3.19185 78.1436 2.30664 79.028 2.30664 80.1191C2.30664 81.2102 3.19185 82.0947 4.28381 82.0947Z" fill="#F8F1F1"/>
<path d="M4.28381 92.7406C5.37577 92.7406 6.26098 91.8562 6.26098 90.7651C6.26098 89.674 5.37577 88.7896 4.28381 88.7896C3.19185 88.7896 2.30664 89.674 2.30664 90.7651C2.30664 91.8562 3.19185 92.7406 4.28381 92.7406Z" fill="#F8F1F1"/>
<path d="M4.28381 103.387C5.37577 103.387 6.26098 102.502 6.26098 101.411C6.26098 100.32 5.37577 99.4355 4.28381 99.4355C3.19185 99.4355 2.30664 100.32 2.30664 101.411C2.30664 102.502 3.19185 103.387 4.28381 103.387Z" fill="#F8F1F1"/>
<path d="M4.28381 114.033C5.37577 114.033 6.26098 113.148 6.26098 112.057C6.26098 110.966 5.37577 110.082 4.28381 110.082C3.19185 110.082 2.30664 110.966 2.30664 112.057C2.30664 113.148 3.19185 114.033 4.28381 114.033Z" fill="#F8F1F1"/>
<path d="M101.604 7.46316C102.696 7.46316 103.581 6.57868 103.581 5.48762C103.581 4.39656 102.696 3.51208 101.604 3.51208C100.512 3.51208 99.627 4.39656 99.627 5.48762C99.627 6.57868 100.512 7.46316 101.604 7.46316Z" fill="#F8F1F1"/>
<path d="M101.604 18.1092C102.696 18.1092 103.581 17.2247 103.581 16.1336C103.581 15.0426 102.696 14.1581 101.604 14.1581C100.512 14.1581 99.627 15.0426 99.627 16.1336C99.627 17.2247 100.512 18.1092 101.604 18.1092Z" fill="#F8F1F1"/>
<path d="M101.604 28.755C102.696 28.755 103.581 27.8706 103.581 26.7795C103.581 25.6884 102.696 24.804 101.604 24.804C100.512 24.804 99.627 25.6884 99.627 26.7795C99.627 27.8706 100.512 28.755 101.604 28.755Z" fill="#F8F1F1"/>
<path d="M101.604 39.401C102.696 39.401 103.581 38.5166 103.581 37.4255C103.581 36.3344 102.696 35.45 101.604 35.45C100.512 35.45 99.627 36.3344 99.627 37.4255C99.627 38.5166 100.512 39.401 101.604 39.401Z" fill="#F8F1F1"/>
<path d="M101.604 50.047C102.696 50.047 103.581 49.1625 103.581 48.0715C103.581 46.9804 102.696 46.0959 101.604 46.0959C100.512 46.0959 99.627 46.9804 99.627 48.0715C99.627 49.1625 100.512 50.047 101.604 50.047Z" fill="#F8F1F1"/>
<path d="M101.604 60.693C102.696 60.693 103.581 59.8085 103.581 58.7175C103.581 57.6264 102.696 56.7419 101.604 56.7419C100.512 56.7419 99.627 57.6264 99.627 58.7175C99.627 59.8085 100.512 60.693 101.604 60.693Z" fill="#F8F1F1"/>
<path d="M101.604 71.3389C102.696 71.3389 103.581 70.4544 103.581 69.3634C103.581 68.2723 102.696 67.3878 101.604 67.3878C100.512 67.3878 99.627 68.2723 99.627 69.3634C99.627 70.4544 100.512 71.3389 101.604 71.3389Z" fill="#F8F1F1"/>
<path d="M101.604 82.0947C102.696 82.0947 103.581 81.2102 103.581 80.1191C103.581 79.028 102.696 78.1436 101.604 78.1436C100.512 78.1436 99.627 79.028 99.627 80.1191C99.627 81.2102 100.512 82.0947 101.604 82.0947Z" fill="#F8F1F1"/>
<path d="M101.604 92.7406C102.696 92.7406 103.581 91.8562 103.581 90.7651C103.581 89.674 102.696 88.7896 101.604 88.7896C100.512 88.7896 99.627 89.674 99.627 90.7651C99.627 91.8562 100.512 92.7406 101.604 92.7406Z" fill="#F8F1F1"/>
<path d="M101.604 103.387C102.696 103.387 103.581 102.502 103.581 101.411C103.581 100.32 102.696 99.4355 101.604 99.4355C100.512 99.4355 99.627 100.32 99.627 101.411C99.627 102.502 100.512 103.387 101.604 103.387Z" fill="#F8F1F1"/>
<path d="M101.604 114.033C102.696 114.033 103.581 113.148 103.581 112.057C103.581 110.966 102.696 110.082 101.604 110.082C100.512 110.082 99.627 110.966 99.627 112.057C99.627 113.148 100.512 114.033 101.604 114.033Z" fill="#F8F1F1"/>
<path d="M82.1627 7.46316C83.2547 7.46316 84.1399 6.57868 84.1399 5.48762C84.1399 4.39656 83.2547 3.51208 82.1627 3.51208C81.0708 3.51208 80.1855 4.39656 80.1855 5.48762C80.1855 6.57868 81.0708 7.46316 82.1627 7.46316Z" fill="#F8F1F1"/>
<path d="M82.1627 18.1092C83.2547 18.1092 84.1399 17.2247 84.1399 16.1336C84.1399 15.0426 83.2547 14.1581 82.1627 14.1581C81.0708 14.1581 80.1855 15.0426 80.1855 16.1336C80.1855 17.2247 81.0708 18.1092 82.1627 18.1092Z" fill="#F8F1F1"/>
<path d="M82.1627 28.755C83.2547 28.755 84.1399 27.8706 84.1399 26.7795C84.1399 25.6884 83.2547 24.804 82.1627 24.804C81.0708 24.804 80.1855 25.6884 80.1855 26.7795C80.1855 27.8706 81.0708 28.755 82.1627 28.755Z" fill="#F8F1F1"/>
<path d="M82.1627 39.401C83.2547 39.401 84.1399 38.5166 84.1399 37.4255C84.1399 36.3344 83.2547 35.45 82.1627 35.45C81.0708 35.45 80.1855 36.3344 80.1855 37.4255C80.1855 38.5166 81.0708 39.401 82.1627 39.401Z" fill="#F8F1F1"/>
<path d="M82.1627 50.047C83.2547 50.047 84.1399 49.1625 84.1399 48.0715C84.1399 46.9804 83.2547 46.0959 82.1627 46.0959C81.0708 46.0959 80.1855 46.9804 80.1855 48.0715C80.1855 49.1625 81.0708 50.047 82.1627 50.047Z" fill="#F8F1F1"/>
<path d="M82.1627 60.693C83.2547 60.693 84.1399 59.8085 84.1399 58.7175C84.1399 57.6264 83.2547 56.7419 82.1627 56.7419C81.0708 56.7419 80.1855 57.6264 80.1855 58.7175C80.1855 59.8085 81.0708 60.693 82.1627 60.693Z" fill="#F8F1F1"/>
<path d="M82.1627 71.3389C83.2547 71.3389 84.1399 70.4544 84.1399 69.3634C84.1399 68.2723 83.2547 67.3878 82.1627 67.3878C81.0708 67.3878 80.1855 68.2723 80.1855 69.3634C80.1855 70.4544 81.0708 71.3389 82.1627 71.3389Z" fill="#F8F1F1"/>
<path d="M82.1627 82.0947C83.2547 82.0947 84.1399 81.2102 84.1399 80.1191C84.1399 79.028 83.2547 78.1436 82.1627 78.1436C81.0708 78.1436 80.1855 79.028 80.1855 80.1191C80.1855 81.2102 81.0708 82.0947 82.1627 82.0947Z" fill="#F8F1F1"/>
<path d="M82.1627 92.7406C83.2547 92.7406 84.1399 91.8562 84.1399 90.7651C84.1399 89.674 83.2547 88.7896 82.1627 88.7896C81.0708 88.7896 80.1855 89.674 80.1855 90.7651C80.1855 91.8562 81.0708 92.7406 82.1627 92.7406Z" fill="#F8F1F1"/>
<path d="M82.1627 103.387C83.2547 103.387 84.1399 102.502 84.1399 101.411C84.1399 100.32 83.2547 99.4355 82.1627 99.4355C81.0708 99.4355 80.1855 100.32 80.1855 101.411C80.1855 102.502 81.0708 103.387 82.1627 103.387Z" fill="#F8F1F1"/>
<path d="M82.1627 114.033C83.2547 114.033 84.1399 113.148 84.1399 112.057C84.1399 110.966 83.2547 110.082 82.1627 110.082C81.0708 110.082 80.1855 110.966 80.1855 112.057C80.1855 113.148 81.0708 114.033 82.1627 114.033Z" fill="#F8F1F1"/>
<path d="M121.047 7.46316C122.139 7.46316 123.025 6.57868 123.025 5.48762C123.025 4.39656 122.139 3.51208 121.047 3.51208C119.956 3.51208 119.07 4.39656 119.07 5.48762C119.07 6.57868 119.956 7.46316 121.047 7.46316Z" fill="#F8F1F1"/>
<path d="M121.047 18.1092C122.139 18.1092 123.025 17.2247 123.025 16.1336C123.025 15.0426 122.139 14.1581 121.047 14.1581C119.956 14.1581 119.07 15.0426 119.07 16.1336C119.07 17.2247 119.956 18.1092 121.047 18.1092Z" fill="#F8F1F1"/>
<path d="M121.047 28.755C122.139 28.755 123.025 27.8706 123.025 26.7795C123.025 25.6884 122.139 24.804 121.047 24.804C119.956 24.804 119.07 25.6884 119.07 26.7795C119.07 27.8706 119.956 28.755 121.047 28.755Z" fill="#F8F1F1"/>
<path d="M121.047 39.401C122.139 39.401 123.025 38.5166 123.025 37.4255C123.025 36.3344 122.139 35.45 121.047 35.45C119.956 35.45 119.07 36.3344 119.07 37.4255C119.07 38.5166 119.956 39.401 121.047 39.401Z" fill="#F8F1F1"/>
<path d="M121.047 50.047C122.139 50.047 123.025 49.1625 123.025 48.0715C123.025 46.9804 122.139 46.0959 121.047 46.0959C119.956 46.0959 119.07 46.9804 119.07 48.0715C119.07 49.1625 119.956 50.047 121.047 50.047Z" fill="#F8F1F1"/>
<path d="M121.047 60.693C122.139 60.693 123.025 59.8085 123.025 58.7175C123.025 57.6264 122.139 56.7419 121.047 56.7419C119.956 56.7419 119.07 57.6264 119.07 58.7175C119.07 59.8085 119.956 60.693 121.047 60.693Z" fill="#F8F1F1"/>
<path d="M121.047 71.3389C122.139 71.3389 123.025 70.4544 123.025 69.3634C123.025 68.2723 122.139 67.3878 121.047 67.3878C119.956 67.3878 119.07 68.2723 119.07 69.3634C119.07 70.4544 119.956 71.3389 121.047 71.3389Z" fill="#F8F1F1"/>
<path d="M121.047 82.0947C122.139 82.0947 123.025 81.2102 123.025 80.1191C123.025 79.028 122.139 78.1436 121.047 78.1436C119.956 78.1436 119.07 79.028 119.07 80.1191C119.07 81.2102 119.956 82.0947 121.047 82.0947Z" fill="#F8F1F1"/>
<path d="M121.047 92.7406C122.139 92.7406 123.025 91.8562 123.025 90.7651C123.025 89.674 122.139 88.7896 121.047 88.7896C119.956 88.7896 119.07 89.674 119.07 90.7651C119.07 91.8562 119.956 92.7406 121.047 92.7406Z" fill="#F8F1F1"/>
<path d="M121.047 103.387C122.139 103.387 123.025 102.502 123.025 101.411C123.025 100.32 122.139 99.4355 121.047 99.4355C119.956 99.4355 119.07 100.32 119.07 101.411C119.07 102.502 119.956 103.387 121.047 103.387Z" fill="#F8F1F1"/>
<path d="M121.047 114.033C122.139 114.033 123.025 113.148 123.025 112.057C123.025 110.966 122.139 110.082 121.047 110.082C119.956 110.082 119.07 110.966 119.07 112.057C119.07 113.148 119.956 114.033 121.047 114.033Z" fill="#F8F1F1"/>
<path d="M62.61 7.46316C63.7019 7.46316 64.5872 6.57868 64.5872 5.48762C64.5872 4.39656 63.7019 3.51208 62.61 3.51208C61.518 3.51208 60.6328 4.39656 60.6328 5.48762C60.6328 6.57868 61.518 7.46316 62.61 7.46316Z" fill="#F8F1F1"/>
<path d="M62.61 18.1092C63.7019 18.1092 64.5872 17.2247 64.5872 16.1336C64.5872 15.0426 63.7019 14.1581 62.61 14.1581C61.518 14.1581 60.6328 15.0426 60.6328 16.1336C60.6328 17.2247 61.518 18.1092 62.61 18.1092Z" fill="#F8F1F1"/>
<path d="M62.61 28.755C63.7019 28.755 64.5872 27.8706 64.5872 26.7795C64.5872 25.6884 63.7019 24.804 62.61 24.804C61.518 24.804 60.6328 25.6884 60.6328 26.7795C60.6328 27.8706 61.518 28.755 62.61 28.755Z" fill="#F8F1F1"/>
<path d="M62.61 39.401C63.7019 39.401 64.5872 38.5166 64.5872 37.4255C64.5872 36.3344 63.7019 35.45 62.61 35.45C61.518 35.45 60.6328 36.3344 60.6328 37.4255C60.6328 38.5166 61.518 39.401 62.61 39.401Z" fill="#F8F1F1"/>
<path d="M62.61 50.047C63.7019 50.047 64.5872 49.1625 64.5872 48.0715C64.5872 46.9804 63.7019 46.0959 62.61 46.0959C61.518 46.0959 60.6328 46.9804 60.6328 48.0715C60.6328 49.1625 61.518 50.047 62.61 50.047Z" fill="#F8F1F1"/>
<path d="M62.61 60.693C63.7019 60.693 64.5872 59.8085 64.5872 58.7175C64.5872 57.6264 63.7019 56.7419 62.61 56.7419C61.518 56.7419 60.6328 57.6264 60.6328 58.7175C60.6328 59.8085 61.518 60.693 62.61 60.693Z" fill="#F8F1F1"/>
<path d="M62.61 71.3389C63.7019 71.3389 64.5872 70.4544 64.5872 69.3634C64.5872 68.2723 63.7019 67.3878 62.61 67.3878C61.518 67.3878 60.6328 68.2723 60.6328 69.3634C60.6328 70.4544 61.518 71.3389 62.61 71.3389Z" fill="#F8F1F1"/>
<path d="M62.61 82.0947C63.7019 82.0947 64.5872 81.2102 64.5872 80.1191C64.5872 79.028 63.7019 78.1436 62.61 78.1436C61.518 78.1436 60.6328 79.028 60.6328 80.1191C60.6328 81.2102 61.518 82.0947 62.61 82.0947Z" fill="#F8F1F1"/>
<path d="M62.61 92.7406C63.7019 92.7406 64.5872 91.8562 64.5872 90.7651C64.5872 89.674 63.7019 88.7896 62.61 88.7896C61.518 88.7896 60.6328 89.674 60.6328 90.7651C60.6328 91.8562 61.518 92.7406 62.61 92.7406Z" fill="#F8F1F1"/>
<path d="M62.61 103.387C63.7019 103.387 64.5872 102.502 64.5872 101.411C64.5872 100.32 63.7019 99.4355 62.61 99.4355C61.518 99.4355 60.6328 100.32 60.6328 101.411C60.6328 102.502 61.518 103.387 62.61 103.387Z" fill="#F8F1F1"/>
<path d="M62.61 114.033C63.7019 114.033 64.5872 113.148 64.5872 112.057C64.5872 110.966 63.7019 110.082 62.61 110.082C61.518 110.082 60.6328 110.966 60.6328 112.057C60.6328 113.148 61.518 114.033 62.61 114.033Z" fill="#F8F1F1"/>
<path d="M43.1686 7.46316C44.2605 7.46316 45.1457 6.57868 45.1457 5.48762C45.1457 4.39656 44.2605 3.51208 43.1686 3.51208C42.0766 3.51208 41.1914 4.39656 41.1914 5.48762C41.1914 6.57868 42.0766 7.46316 43.1686 7.46316Z" fill="#F8F1F1"/>
<path d="M43.1686 18.1092C44.2605 18.1092 45.1457 17.2247 45.1457 16.1336C45.1457 15.0426 44.2605 14.1581 43.1686 14.1581C42.0766 14.1581 41.1914 15.0426 41.1914 16.1336C41.1914 17.2247 42.0766 18.1092 43.1686 18.1092Z" fill="#F8F1F1"/>
<path d="M43.1686 28.755C44.2605 28.755 45.1457 27.8706 45.1457 26.7795C45.1457 25.6884 44.2605 24.804 43.1686 24.804C42.0766 24.804 41.1914 25.6884 41.1914 26.7795C41.1914 27.8706 42.0766 28.755 43.1686 28.755Z" fill="#F8F1F1"/>
<path d="M43.1686 39.401C44.2605 39.401 45.1457 38.5166 45.1457 37.4255C45.1457 36.3344 44.2605 35.45 43.1686 35.45C42.0766 35.45 41.1914 36.3344 41.1914 37.4255C41.1914 38.5166 42.0766 39.401 43.1686 39.401Z" fill="#F8F1F1"/>
<path d="M43.1686 50.047C44.2605 50.047 45.1457 49.1625 45.1457 48.0715C45.1457 46.9804 44.2605 46.0959 43.1686 46.0959C42.0766 46.0959 41.1914 46.9804 41.1914 48.0715C41.1914 49.1625 42.0766 50.047 43.1686 50.047Z" fill="#F8F1F1"/>
<path d="M43.1686 60.693C44.2605 60.693 45.1457 59.8085 45.1457 58.7175C45.1457 57.6264 44.2605 56.7419 43.1686 56.7419C42.0766 56.7419 41.1914 57.6264 41.1914 58.7175C41.1914 59.8085 42.0766 60.693 43.1686 60.693Z" fill="#F8F1F1"/>
<path d="M43.1686 71.3389C44.2605 71.3389 45.1457 70.4544 45.1457 69.3634C45.1457 68.2723 44.2605 67.3878 43.1686 67.3878C42.0766 67.3878 41.1914 68.2723 41.1914 69.3634C41.1914 70.4544 42.0766 71.3389 43.1686 71.3389Z" fill="#F8F1F1"/>
<path d="M43.1686 82.0947C44.2605 82.0947 45.1457 81.2102 45.1457 80.1191C45.1457 79.028 44.2605 78.1436 43.1686 78.1436C42.0766 78.1436 41.1914 79.028 41.1914 80.1191C41.1914 81.2102 42.0766 82.0947 43.1686 82.0947Z" fill="#F8F1F1"/>
<path d="M43.1686 92.7406C44.2605 92.7406 45.1457 91.8562 45.1457 90.7651C45.1457 89.674 44.2605 88.7896 43.1686 88.7896C42.0766 88.7896 41.1914 89.674 41.1914 90.7651C41.1914 91.8562 42.0766 92.7406 43.1686 92.7406Z" fill="#F8F1F1"/>
<path d="M43.1686 103.387C44.2605 103.387 45.1457 102.502 45.1457 101.411C45.1457 100.32 44.2605 99.4355 43.1686 99.4355C42.0766 99.4355 41.1914 100.32 41.1914 101.411C41.1914 102.502 42.0766 103.387 43.1686 103.387Z" fill="#F8F1F1"/>
<path d="M43.1686 114.033C44.2605 114.033 45.1457 113.148 45.1457 112.057C45.1457 110.966 44.2605 110.082 43.1686 110.082C42.0766 110.082 41.1914 110.966 41.1914 112.057C41.1914 113.148 42.0766 114.033 43.1686 114.033Z" fill="#F8F1F1"/>
<path d="M23.7252 7.46316C24.8172 7.46316 25.7024 6.57868 25.7024 5.48762C25.7024 4.39656 24.8172 3.51208 23.7252 3.51208C22.6333 3.51208 21.748 4.39656 21.748 5.48762C21.748 6.57868 22.6333 7.46316 23.7252 7.46316Z" fill="#F8F1F1"/>
<path d="M23.7252 18.1092C24.8172 18.1092 25.7024 17.2247 25.7024 16.1336C25.7024 15.0426 24.8172 14.1581 23.7252 14.1581C22.6333 14.1581 21.748 15.0426 21.748 16.1336C21.748 17.2247 22.6333 18.1092 23.7252 18.1092Z" fill="#F8F1F1"/>
<path d="M23.7252 28.755C24.8172 28.755 25.7024 27.8706 25.7024 26.7795C25.7024 25.6884 24.8172 24.804 23.7252 24.804C22.6333 24.804 21.748 25.6884 21.748 26.7795C21.748 27.8706 22.6333 28.755 23.7252 28.755Z" fill="#F8F1F1"/>
<path d="M23.7252 39.401C24.8172 39.401 25.7024 38.5166 25.7024 37.4255C25.7024 36.3344 24.8172 35.45 23.7252 35.45C22.6333 35.45 21.748 36.3344 21.748 37.4255C21.748 38.5166 22.6333 39.401 23.7252 39.401Z" fill="#F8F1F1"/>
<path d="M23.7252 50.047C24.8172 50.047 25.7024 49.1625 25.7024 48.0715C25.7024 46.9804 24.8172 46.0959 23.7252 46.0959C22.6333 46.0959 21.748 46.9804 21.748 48.0715C21.748 49.1625 22.6333 50.047 23.7252 50.047Z" fill="#F8F1F1"/>
<path d="M23.7252 60.693C24.8172 60.693 25.7024 59.8085 25.7024 58.7175C25.7024 57.6264 24.8172 56.7419 23.7252 56.7419C22.6333 56.7419 21.748 57.6264 21.748 58.7175C21.748 59.8085 22.6333 60.693 23.7252 60.693Z" fill="#F8F1F1"/>
<path d="M23.7252 71.3389C24.8172 71.3389 25.7024 70.4544 25.7024 69.3634C25.7024 68.2723 24.8172 67.3878 23.7252 67.3878C22.6333 67.3878 21.748 68.2723 21.748 69.3634C21.748 70.4544 22.6333 71.3389 23.7252 71.3389Z" fill="#F8F1F1"/>
<path d="M23.7252 82.0947C24.8172 82.0947 25.7024 81.2102 25.7024 80.1191C25.7024 79.028 24.8172 78.1436 23.7252 78.1436C22.6333 78.1436 21.748 79.028 21.748 80.1191C21.748 81.2102 22.6333 82.0947 23.7252 82.0947Z" fill="#F8F1F1"/>
<path d="M23.7252 92.7406C24.8172 92.7406 25.7024 91.8562 25.7024 90.7651C25.7024 89.674 24.8172 88.7896 23.7252 88.7896C22.6333 88.7896 21.748 89.674 21.748 90.7651C21.748 91.8562 22.6333 92.7406 23.7252 92.7406Z" fill="#F8F1F1"/>
<path d="M23.7252 103.387C24.8172 103.387 25.7024 102.502 25.7024 101.411C25.7024 100.32 24.8172 99.4355 23.7252 99.4355C22.6333 99.4355 21.748 100.32 21.748 101.411C21.748 102.502 22.6333 103.387 23.7252 103.387Z" fill="#F8F1F1"/>
<path d="M23.7252 114.033C24.8172 114.033 25.7024 113.148 25.7024 112.057C25.7024 110.966 24.8172 110.082 23.7252 110.082C22.6333 110.082 21.748 110.966 21.748 112.057C21.748 113.148 22.6333 114.033 23.7252 114.033Z" fill="#F8F1F1"/>
</g>
</svg>
