<svg id="eEu6IlTUxpH1" xmlns="http://www.w3.org/2000/svg" xmlns:xlink="http://www.w3.org/1999/xlink" viewBox="0 0 1279.990000 720" shape-rendering="geometricPrecision" text-rendering="geometricPrecision"><style><![CDATA[#eEu6IlTUxpH4_tr {animation: eEu6IlTUxpH4_tr__tr 20000ms linear infinite normal forwards}@keyframes eEu6IlTUxpH4_tr__tr { 0% {transform: translate(907.396149px,300.719888px) rotate(0deg)} 45% {transform: translate(907.396149px,300.719888px) rotate(-34.300000deg)} 100% {transform: translate(907.396149px,300.719888px) rotate(0deg)}} #eEu6IlTUxpH5_to {animation: eEu6IlTUxpH5_to__to 20000ms linear infinite normal forwards}@keyframes eEu6IlTUxpH5_to__to { 0% {transform: translate(139.504922px,127.715005px)} 45% {transform: translate(270.392388px,126.891814px)} 100% {transform: translate(139.504922px,127.715005px)}} #eEu6IlTUxpH83_to {animation: eEu6IlTUxpH83_to__to 20000ms linear infinite normal forwards}@keyframes eEu6IlTUxpH83_to__to { 0% {transform: translate(120.692273px,549.656958px)} 45% {transform: translate(252.888838px,549.535277px)} 100% {transform: translate(121.138879px,549.535131px)}}]]></style><defs><linearGradient id="eEu6IlTUxpH4-fill" x1="732.592500" y1="544.732900" x2="1086.087100" y2="48.770100" spreadMethod="pad" gradientUnits="userSpaceOnUse"><stop id="eEu6IlTUxpH4-fill-0" offset="3%" stop-color="rgba(255,255,255,0)"/><stop id="eEu6IlTUxpH4-fill-1" offset="100%" stop-color="rgb(209,209,209)"/></linearGradient></defs><g id="eEu6IlTUxpH2" transform="matrix(1 0 0 1 28.24505292999993 28.24505710499994)"><g id="eEu6IlTUxpH3" display="none"><g id="eEu6IlTUxpH4_tr" transform="translate(907.396149,300.719888) rotate(0)"><path id="eEu6IlTUxpH4" d="M789,31.660000L983.770000,11.540000C1026.770000,7.100000,1068.180000,24.790000,1092.040000,58.660000C1128.210000,109.820000,1162.480000,162.330000,1199.300000,213.020000C1223.400000,246.290000,1228.920000,289.710000,1211,327.730000C1183.500000,385.930000,1154.470000,443.400000,1126.210000,501.240000C1106.920916,539.508915,1069.492636,565.340231,1026.870000,569.800000L832.060000,589.920000C789.360000,594.330000,748.150000,576.200000,724.060000,542.770000Q669.060000,466.200000,614.060000,389.640000C589.930000,356,586.520000,311.800000,605.100000,273.700000Q647.500000,187.080000,689.900000,100.450000C708.480000,62.350000,746.260000,36.070000,789,31.660000Z" transform="translate(-907.396149,-300.719888)" fill="url(#eEu6IlTUxpH4-fill)" fill-rule="evenodd" stroke="none" stroke-width="1"/></g></g><g id="eEu6IlTUxpH5_to" transform="translate(139.504922,127.715005)"><g id="eEu6IlTUxpH5" display="none" transform="translate(-139.504922,-127.715005)" opacity="0.7"><path id="eEu6IlTUxpH6" d="M4.570000,9.130000C6.419302,9.129996,8.086319,8.015466,8.793078,6.306546C9.499837,4.597626,9.107011,2.631205,7.797926,1.324985C6.488841,0.018764,4.521564,-0.369754,2.814197,0.340747C1.106829,1.051248,-0.004047,2.720703,0,4.570000C0.005514,7.090035,2.049959,9.130006,4.570000,9.130000Z" fill="rgb(209,209,209)" stroke="none" stroke-width="1"/><path id="eEu6IlTUxpH7" d="M4.570000,33.740000C7.093941,33.740000,9.140000,31.693941,9.140000,29.170000C9.140000,26.646059,7.093941,24.600000,4.570000,24.600000C2.046059,24.600000,0,26.646059,0,29.170000C0.005500,31.691660,2.048340,33.734500,4.570000,33.740000Z" fill="rgb(209,209,209)" stroke="none" stroke-width="1"/><path id="eEu6IlTUxpH8" d="M4.570000,58.340000C6.419302,58.339996,8.086319,57.225466,8.793078,55.516546C9.499837,53.807626,9.107011,51.841205,7.797926,50.534985C6.488841,49.228764,4.521564,48.840246,2.814197,49.550747C1.106829,50.261248,-0.004047,51.930703,0,53.780000C0.005514,56.300035,2.049959,58.340006,4.570000,58.340000Z" fill="rgb(209,209,209)" stroke="none" stroke-width="1"/><path id="eEu6IlTUxpH9" d="M4.570000,83C7.087399,82.999849,9.130616,80.963868,9.139697,78.446485C9.148777,75.929102,7.120302,73.878433,4.602969,73.860121C2.085636,73.841809,0.027543,75.862751,0,78.380000C-0.010657,79.599876,0.465795,80.773596,1.323704,81.640892C2.181614,82.508188,3.350080,82.997383,4.570000,83Z" fill="rgb(209,209,209)" stroke="none" stroke-width="1"/><path id="eEu6IlTUxpH10" d="M4.570000,107.560000C6.419302,107.559996,8.086319,106.445466,8.793078,104.736546C9.499837,103.027626,9.107011,101.061205,7.797926,99.754985C6.488841,98.448764,4.521564,98.060246,2.814197,98.770747C1.106829,99.481248,-0.004047,101.150703,0,103C0.010989,105.517754,2.052228,107.554527,4.570000,107.560000Z" fill="rgb(209,209,209)" stroke="none" stroke-width="1"/><path id="eEu6IlTUxpH11" d="M4.570000,132.160000C6.418392,132.160000,8.084780,131.046555,8.792129,129.338863C9.499479,127.631171,9.108489,125.665533,7.801478,124.358522C6.494467,123.051511,4.528829,122.660521,2.821137,123.367871C1.113445,124.075220,-0,125.741608,0,127.590000C0.005500,130.111660,2.048340,132.154500,4.570000,132.160000Z" fill="rgb(209,209,209)" stroke="none" stroke-width="1"/><path id="eEu6IlTUxpH12" d="M4.570000,156.760000C6.419302,156.759996,8.086319,155.645466,8.793078,153.936546C9.499837,152.227626,9.107011,150.261205,7.797926,148.954985C6.488841,147.648764,4.521564,147.260246,2.814197,147.970747C1.106829,148.681248,-0.004047,150.350703,0,152.200000C0.005514,154.720035,2.049959,156.760006,4.570000,156.760000Z" fill="rgb(209,209,209)" stroke="none" stroke-width="1"/><path id="eEu6IlTUxpH13" d="M4.570000,181.620000C6.419302,181.619996,8.086319,180.505466,8.793078,178.796546C9.499837,177.087626,9.107011,175.121205,7.797926,173.814985C6.488841,172.508764,4.521564,172.120246,2.814197,172.830747C1.106829,173.541248,-0.004047,175.210703,0,177.060000C0.005514,179.580035,2.049959,181.620006,4.570000,181.620000Z" fill="rgb(209,209,209)" stroke="none" stroke-width="1"/><path id="eEu6IlTUxpH14" d="M4.570000,206.230000C6.418392,206.230000,8.084780,205.116555,8.792129,203.408863C9.499479,201.701171,9.108489,199.735533,7.801478,198.428522C6.494467,197.121511,4.528829,196.730521,2.821137,197.437871C1.113445,198.145220,-0,199.811608,0,201.660000C0.005500,204.181660,2.048340,206.224500,4.570000,206.230000Z" fill="rgb(209,209,209)" stroke="none" stroke-width="1"/><path id="eEu6IlTUxpH15" d="M4.570000,230.840000C6.418392,230.840000,8.084780,229.726555,8.792129,228.018863C9.499479,226.311171,9.108489,224.345533,7.801478,223.038522C6.494467,221.731511,4.528829,221.340521,2.821137,222.047871C1.113445,222.755220,-0,224.421608,0,226.270000C0.005500,228.791660,2.048340,230.834500,4.570000,230.840000Z" fill="rgb(209,209,209)" stroke="none" stroke-width="1"/><path id="eEu6IlTUxpH16" d="M4.570000,255.440000C6.418392,255.440000,8.084780,254.326555,8.792129,252.618863C9.499479,250.911171,9.108489,248.945533,7.801478,247.638522C6.494467,246.331511,4.528829,245.940521,2.821137,246.647871C1.113445,247.355220,-0,249.021608,0,250.870000C0.005500,253.391660,2.048340,255.434500,4.570000,255.440000Z" fill="rgb(209,209,209)" stroke="none" stroke-width="1"/><path id="eEu6IlTUxpH17" d="M229.500000,9.130000C231.349302,9.129996,233.016319,8.015466,233.723078,6.306546C234.429837,4.597626,234.037011,2.631205,232.727926,1.324985C231.418841,0.018764,229.451564,-0.369754,227.744197,0.340747C226.036829,1.051248,224.925953,2.720703,224.930000,4.570000C224.929997,5.781122,225.411797,6.942494,226.269127,7.797948C227.126457,8.653402,228.288881,9.132656,229.500000,9.130000Z" fill="rgb(209,209,209)" stroke="none" stroke-width="1"/><path id="eEu6IlTUxpH18" d="M229.500000,33.740000C231.348392,33.740000,233.014780,32.626555,233.722129,30.918863C234.429479,29.211171,234.038489,27.245533,232.731478,25.938522C231.424467,24.631511,229.458829,24.240521,227.751137,24.947871C226.043445,25.655220,224.930000,27.321608,224.930000,29.170000C224.930000,31.693941,226.976059,33.740000,229.500000,33.740000Z" fill="rgb(209,209,209)" stroke="none" stroke-width="1"/><path id="eEu6IlTUxpH19" d="M229.500000,58.340000C231.349302,58.339996,233.016319,57.225466,233.723078,55.516546C234.429837,53.807626,234.037011,51.841205,232.727926,50.534985C231.418841,49.228764,229.451564,48.840246,227.744197,49.550747C226.036829,50.261248,224.925953,51.930703,224.930000,53.780000C224.929997,54.991122,225.411797,56.152494,226.269127,57.007948C227.126457,57.863402,228.288881,58.342656,229.500000,58.340000Z" fill="rgb(209,209,209)" stroke="none" stroke-width="1"/><path id="eEu6IlTUxpH20" d="M229.500000,83C231.348392,83,233.014780,81.886555,233.722129,80.178863C234.429479,78.471171,234.038489,76.505533,232.731478,75.198522C231.424467,73.891511,229.458829,73.500521,227.751137,74.207871C226.043445,74.915220,224.930000,76.581608,224.930000,78.430000C224.930000,80.953941,226.976059,83,229.500000,83Z" fill="rgb(209,209,209)" stroke="none" stroke-width="1"/><path id="eEu6IlTUxpH21" d="M229.500000,107.560000C231.348392,107.560000,233.014780,106.446555,233.722129,104.738863C234.429479,103.031171,234.038489,101.065533,232.731478,99.758522C231.424467,98.451511,229.458829,98.060521,227.751137,98.767871C226.043445,99.475220,224.930000,101.141608,224.930000,102.990000C224.930000,105.513941,226.976059,107.560000,229.500000,107.560000Z" fill="rgb(209,209,209)" stroke="none" stroke-width="1"/><path id="eEu6IlTUxpH22" d="M229.500000,132.160000C231.348392,132.160000,233.014780,131.046555,233.722129,129.338863C234.429479,127.631171,234.038489,125.665533,232.731478,124.358522C231.424467,123.051511,229.458829,122.660521,227.751137,123.367871C226.043445,124.075220,224.930000,125.741608,224.930000,127.590000C224.930000,130.113941,226.976059,132.160000,229.500000,132.160000Z" fill="rgb(209,209,209)" stroke="none" stroke-width="1"/><path id="eEu6IlTUxpH23" d="M229.500000,156.760000C231.349302,156.759996,233.016319,155.645466,233.723078,153.936546C234.429837,152.227626,234.037011,150.261205,232.727926,148.954985C231.418841,147.648764,229.451564,147.260246,227.744197,147.970747C226.036829,148.681248,224.925953,150.350703,224.930000,152.200000C224.929997,153.411122,225.411797,154.572494,226.269127,155.427948C227.126457,156.283402,228.288881,156.762656,229.500000,156.760000Z" fill="rgb(209,209,209)" stroke="none" stroke-width="1"/><path id="eEu6IlTUxpH24" d="M229.500000,181.620000C231.349302,181.619996,233.016319,180.505466,233.723078,178.796546C234.429837,177.087626,234.037011,175.121205,232.727926,173.814985C231.418841,172.508764,229.451564,172.120246,227.744197,172.830747C226.036829,173.541248,224.925953,175.210703,224.930000,177.060000C224.929997,178.271122,225.411797,179.432494,226.269127,180.287948C227.126457,181.143402,228.288881,181.622656,229.500000,181.620000Z" fill="rgb(209,209,209)" stroke="none" stroke-width="1"/><path id="eEu6IlTUxpH25" d="M229.500000,206.230000C231.348392,206.230000,233.014780,205.116555,233.722129,203.408863C234.429479,201.701171,234.038489,199.735533,232.731478,198.428522C231.424467,197.121511,229.458829,196.730521,227.751137,197.437871C226.043445,198.145220,224.930000,199.811608,224.930000,201.660000C224.930000,204.183941,226.976059,206.230000,229.500000,206.230000Z" fill="rgb(209,209,209)" stroke="none" stroke-width="1"/><path id="eEu6IlTUxpH26" d="M229.500000,230.840000C231.348392,230.840000,233.014780,229.726555,233.722129,228.018863C234.429479,226.311171,234.038489,224.345533,232.731478,223.038522C231.424467,221.731511,229.458829,221.340521,227.751137,222.047871C226.043445,222.755220,224.930000,224.421608,224.930000,226.270000C224.930000,228.793941,226.976059,230.840000,229.500000,230.840000Z" fill="rgb(209,209,209)" stroke="none" stroke-width="1"/><path id="eEu6IlTUxpH27" d="M229.500000,255.440000C231.348392,255.440000,233.014780,254.326555,233.722129,252.618863C234.429479,250.911171,234.038489,248.945533,232.731478,247.638522C231.424467,246.331511,229.458829,245.940521,227.751137,246.647871C226.043445,247.355220,224.930000,249.021608,224.930000,250.870000C224.930000,253.393941,226.976059,255.440000,229.500000,255.440000Z" fill="rgb(209,209,209)" stroke="none" stroke-width="1"/><path id="eEu6IlTUxpH28" d="M184.560000,9.130000C186.410206,9.134044,188.080292,8.022084,188.790205,6.313488C189.500117,4.604891,189.109764,2.636829,187.801467,1.328533C186.493171,0.020236,184.525109,-0.370117,182.816512,0.339795C181.107916,1.049708,179.995956,2.719794,180,4.570000C180,5.779387,180.480427,6.939241,181.335593,7.794407C182.190759,8.649573,183.350613,9.130000,184.560000,9.130000Z" fill="rgb(209,209,209)" stroke="none" stroke-width="1"/><path id="eEu6IlTUxpH29" d="M184.560000,33.740000C186.409297,33.744047,188.078752,32.633171,188.789253,30.925803C189.499754,29.218436,189.111236,27.251159,187.805015,25.942074C186.498795,24.632989,184.532374,24.240163,182.823454,24.946922C181.114534,25.653681,180.000004,27.320698,180,29.170000C179.999994,31.690041,182.039965,33.734486,184.560000,33.740000Z" fill="rgb(209,209,209)" stroke="none" stroke-width="1"/><path id="eEu6IlTUxpH30" d="M184.560000,58.340000C186.410206,58.344044,188.080292,57.232084,188.790205,55.523488C189.500117,53.814891,189.109764,51.846829,187.801467,50.538533C186.493171,49.230236,184.525109,48.839883,182.816512,49.549795C181.107916,50.259708,179.995956,51.929794,180,53.780000C180,54.989387,180.480427,56.149241,181.335593,57.004407C182.190759,57.859573,183.350613,58.340000,184.560000,58.340000Z" fill="rgb(209,209,209)" stroke="none" stroke-width="1"/><path id="eEu6IlTUxpH31" d="M184.560000,83C187.078693,83.005361,189.126906,80.971831,189.139668,78.453165C189.152429,75.934498,187.124927,73.880319,184.606309,73.860157C182.087691,73.839995,180.027563,75.861452,180,78.380000C179.986660,79.598948,180.460871,80.772706,181.317197,81.640299C182.173523,82.507892,183.340982,82.997406,184.560000,83Z" fill="rgb(209,209,209)" stroke="none" stroke-width="1"/><path id="eEu6IlTUxpH32" d="M184.560000,107.560000C186.410206,107.564044,188.080292,106.452084,188.790205,104.743488C189.500117,103.034891,189.109764,101.066829,187.801467,99.758533C186.493171,98.450236,184.525109,98.059883,182.816512,98.769795C181.107916,99.479708,179.995956,101.149794,180,103C180.005500,105.516137,182.043863,107.554500,184.560000,107.560000Z" fill="rgb(209,209,209)" stroke="none" stroke-width="1"/><path id="eEu6IlTUxpH33" d="M184.560000,132.160000C186.409297,132.164047,188.078752,131.053171,188.789253,129.345803C189.499754,127.638436,189.111236,125.671159,187.805015,124.362074C186.498795,123.052989,184.532374,122.660163,182.823454,123.366922C181.114534,124.073681,180.000004,125.740698,180,127.590000C179.999994,130.110041,182.039965,132.154486,184.560000,132.160000Z" fill="rgb(209,209,209)" stroke="none" stroke-width="1"/><path id="eEu6IlTUxpH34" d="M184.560000,156.760000C186.410206,156.764044,188.080292,155.652084,188.790205,153.943488C189.500117,152.234891,189.109764,150.266829,187.801467,148.958533C186.493171,147.650236,184.525109,147.259883,182.816512,147.969795C181.107916,148.679708,179.995956,150.349794,180,152.200000C180,153.409387,180.480427,154.569241,181.335593,155.424407C182.190759,156.279573,183.350613,156.760000,184.560000,156.760000Z" fill="rgb(209,209,209)" stroke="none" stroke-width="1"/><path id="eEu6IlTUxpH35" d="M184.560000,181.620000C186.410206,181.624044,188.080292,180.512084,188.790205,178.803488C189.500117,177.094891,189.109764,175.126829,187.801467,173.818533C186.493171,172.510236,184.525109,172.119883,182.816512,172.829795C181.107916,173.539708,179.995956,175.209794,180,177.060000C180,178.269387,180.480427,179.429241,181.335593,180.284407C182.190759,181.139573,183.350613,181.620000,184.560000,181.620000Z" fill="rgb(209,209,209)" stroke="none" stroke-width="1"/><path id="eEu6IlTUxpH36" d="M184.560000,206.230000C186.409297,206.234047,188.078752,205.123171,188.789253,203.415803C189.499754,201.708436,189.111236,199.741159,187.805015,198.432074C186.498795,197.122989,184.532374,196.730163,182.823454,197.436922C181.114534,198.143681,180.000004,199.810698,180,201.660000C179.999994,204.180041,182.039965,206.224486,184.560000,206.230000Z" fill="rgb(209,209,209)" stroke="none" stroke-width="1"/><path id="eEu6IlTUxpH37" d="M184.560000,230.840000C186.409297,230.844047,188.078752,229.733171,188.789253,228.025803C189.499754,226.318436,189.111236,224.351159,187.805015,223.042074C186.498795,221.732989,184.532374,221.340163,182.823454,222.046922C181.114534,222.753681,180.000004,224.420698,180,226.270000C179.999994,228.790041,182.039965,230.834486,184.560000,230.840000Z" fill="rgb(209,209,209)" stroke="none" stroke-width="1"/><path id="eEu6IlTUxpH38" d="M184.560000,255.440000C186.409297,255.444047,188.078752,254.333171,188.789253,252.625803C189.499754,250.918436,189.111236,248.951159,187.805015,247.642074C186.498795,246.332989,184.532374,245.940163,182.823454,246.646922C181.114534,247.353681,180.000004,249.020698,180,250.870000C179.999994,253.390041,182.039965,255.434486,184.560000,255.440000Z" fill="rgb(209,209,209)" stroke="none" stroke-width="1"/><path id="eEu6IlTUxpH39" d="M274.440000,9.130000C276.289302,9.129996,277.956319,8.015466,278.663078,6.306546C279.369837,4.597626,278.977011,2.631205,277.667926,1.324985C276.358841,0.018764,274.391564,-0.369754,272.684197,0.340747C270.976829,1.051248,269.865953,2.720703,269.870000,4.570000C269.875514,7.090035,271.919959,9.130006,274.440000,9.130000Z" fill="rgb(209,209,209)" stroke="none" stroke-width="1"/><path id="eEu6IlTUxpH40" d="M274.440000,33.740000C276.288392,33.740000,277.954780,32.626555,278.662129,30.918863C279.369479,29.211171,278.978489,27.245533,277.671478,25.938522C276.364467,24.631511,274.398829,24.240521,272.691137,24.947871C270.983445,25.655220,269.870000,27.321608,269.870000,29.170000C269.875500,31.691660,271.918340,33.734500,274.440000,33.740000Z" fill="rgb(209,209,209)" stroke="none" stroke-width="1"/><path id="eEu6IlTUxpH41" d="M274.440000,58.340000C276.289302,58.339996,277.956319,57.225466,278.663078,55.516546C279.369837,53.807626,278.977011,51.841205,277.667926,50.534985C276.358841,49.228764,274.391564,48.840246,272.684197,49.550747C270.976829,50.261248,269.865953,51.930703,269.870000,53.780000C269.875514,56.300035,271.919959,58.340006,274.440000,58.340000Z" fill="rgb(209,209,209)" stroke="none" stroke-width="1"/><path id="eEu6IlTUxpH42" d="M274.440000,83C276.288392,83,277.954780,81.886555,278.662129,80.178863C279.369479,78.471171,278.978489,76.505533,277.671478,75.198522C276.364467,73.891511,274.398829,73.500521,272.691137,74.207871C270.983445,74.915220,269.870000,76.581608,269.870000,78.430000C269.875500,80.951660,271.918340,82.994500,274.440000,83Z" fill="rgb(209,209,209)" stroke="none" stroke-width="1"/><path id="eEu6IlTUxpH43" d="M274.440000,107.560000C276.288392,107.560000,277.954780,106.446555,278.662129,104.738863C279.369479,103.031171,278.978489,101.065533,277.671478,99.758522C276.364467,98.451511,274.398829,98.060521,272.691137,98.767871C270.983445,99.475220,269.870000,101.141608,269.870000,102.990000C269.875500,105.511660,271.918340,107.554500,274.440000,107.560000Z" fill="rgb(209,209,209)" stroke="none" stroke-width="1"/><path id="eEu6IlTUxpH44" d="M274.440000,132.160000C276.288392,132.160000,277.954780,131.046555,278.662129,129.338863C279.369479,127.631171,278.978489,125.665533,277.671478,124.358522C276.364467,123.051511,274.398829,122.660521,272.691137,123.367871C270.983445,124.075220,269.870000,125.741608,269.870000,127.590000C269.875500,130.111660,271.918340,132.154500,274.440000,132.160000Z" fill="rgb(209,209,209)" stroke="none" stroke-width="1"/><path id="eEu6IlTUxpH45" d="M274.440000,156.760000C276.289302,156.759996,277.956319,155.645466,278.663078,153.936546C279.369837,152.227626,278.977011,150.261205,277.667926,148.954985C276.358841,147.648764,274.391564,147.260246,272.684197,147.970747C270.976829,148.681248,269.865953,150.350703,269.870000,152.200000C269.875514,154.720035,271.919959,156.760006,274.440000,156.760000Z" fill="rgb(209,209,209)" stroke="none" stroke-width="1"/><path id="eEu6IlTUxpH46" d="M274.440000,181.620000C276.289302,181.619996,277.956319,180.505466,278.663078,178.796546C279.369837,177.087626,278.977011,175.121205,277.667926,173.814985C276.358841,172.508764,274.391564,172.120246,272.684197,172.830747C270.976829,173.541248,269.865953,175.210703,269.870000,177.060000C269.875514,179.580035,271.919959,181.620006,274.440000,181.620000Z" fill="rgb(209,209,209)" stroke="none" stroke-width="1"/><path id="eEu6IlTUxpH47" d="M274.440000,206.230000C276.288392,206.230000,277.954780,205.116555,278.662129,203.408863C279.369479,201.701171,278.978489,199.735533,277.671478,198.428522C276.364467,197.121511,274.398829,196.730521,272.691137,197.437871C270.983445,198.145220,269.870000,199.811608,269.870000,201.660000C269.875500,204.181660,271.918340,206.224500,274.440000,206.230000Z" fill="rgb(209,209,209)" stroke="none" stroke-width="1"/><path id="eEu6IlTUxpH48" d="M274.440000,230.840000C276.288392,230.840000,277.954780,229.726555,278.662129,228.018863C279.369479,226.311171,278.978489,224.345533,277.671478,223.038522C276.364467,221.731511,274.398829,221.340521,272.691137,222.047871C270.983445,222.755220,269.870000,224.421608,269.870000,226.270000C269.875500,228.791660,271.918340,230.834500,274.440000,230.840000Z" fill="rgb(209,209,209)" stroke="none" stroke-width="1"/><path id="eEu6IlTUxpH49" d="M274.440000,255.440000C276.288392,255.440000,277.954780,254.326555,278.662129,252.618863C279.369479,250.911171,278.978489,248.945533,277.671478,247.638522C276.364467,246.331511,274.398829,245.940521,272.691137,246.647871C270.983445,247.355220,269.870000,249.021608,269.870000,250.870000C269.875500,253.391660,271.918340,255.434500,274.440000,255.440000Z" fill="rgb(209,209,209)" stroke="none" stroke-width="1"/><path id="eEu6IlTUxpH50" d="M139.380000,9.130000C141.229302,9.129996,142.896319,8.015466,143.603078,6.306546C144.309837,4.597626,143.917011,2.631205,142.607926,1.324985C141.298841,0.018764,139.331564,-0.369754,137.624197,0.340747C135.916829,1.051248,134.805953,2.720703,134.810000,4.570000C134.815514,7.090035,136.859959,9.130006,139.380000,9.130000Z" fill="rgb(209,209,209)" stroke="none" stroke-width="1"/><path id="eEu6IlTUxpH51" d="M139.380000,33.740000C141.228392,33.740000,142.894780,32.626555,143.602129,30.918863C144.309479,29.211171,143.918489,27.245533,142.611478,25.938522C141.304467,24.631511,139.338829,24.240521,137.631137,24.947871C135.923445,25.655220,134.810000,27.321608,134.810000,29.170000C134.815500,31.691660,136.858340,33.734500,139.380000,33.740000Z" fill="rgb(209,209,209)" stroke="none" stroke-width="1"/><path id="eEu6IlTUxpH52" d="M139.380000,58.340000C141.229302,58.339996,142.896319,57.225466,143.603078,55.516546C144.309837,53.807626,143.917011,51.841205,142.607926,50.534985C141.298841,49.228764,139.331564,48.840246,137.624197,49.550747C135.916829,50.261248,134.805953,51.930703,134.810000,53.780000C134.815514,56.300035,136.859959,58.340006,139.380000,58.340000Z" fill="rgb(209,209,209)" stroke="none" stroke-width="1"/><path id="eEu6IlTUxpH53" d="M139.380000,83C141.228392,83,142.894780,81.886555,143.602129,80.178863C144.309479,78.471171,143.918489,76.505533,142.611478,75.198522C141.304467,73.891511,139.338829,73.500521,137.631137,74.207871C135.923445,74.915220,134.810000,76.581608,134.810000,78.430000C134.815500,80.951660,136.858340,82.994500,139.380000,83Z" fill="rgb(209,209,209)" stroke="none" stroke-width="1"/><path id="eEu6IlTUxpH54" d="M139.380000,107.560000C141.228392,107.560000,142.894780,106.446555,143.602129,104.738863C144.309479,103.031171,143.918489,101.065533,142.611478,99.758522C141.304467,98.451511,139.338829,98.060521,137.631137,98.767871C135.923445,99.475220,134.810000,101.141608,134.810000,102.990000C134.815500,105.511660,136.858340,107.554500,139.380000,107.560000Z" fill="rgb(209,209,209)" stroke="none" stroke-width="1"/><path id="eEu6IlTUxpH55" d="M139.380000,132.160000C141.228392,132.160000,142.894780,131.046555,143.602129,129.338863C144.309479,127.631171,143.918489,125.665533,142.611478,124.358522C141.304467,123.051511,139.338829,122.660521,137.631137,123.367871C135.923445,124.075220,134.810000,125.741608,134.810000,127.590000C134.815500,130.111660,136.858340,132.154500,139.380000,132.160000Z" fill="rgb(209,209,209)" stroke="none" stroke-width="1"/><path id="eEu6IlTUxpH56" d="M139.380000,156.760000C141.229302,156.759996,142.896319,155.645466,143.603078,153.936546C144.309837,152.227626,143.917011,150.261205,142.607926,148.954985C141.298841,147.648764,139.331564,147.260246,137.624197,147.970747C135.916829,148.681248,134.805953,150.350703,134.810000,152.200000C134.815514,154.720035,136.859959,156.760006,139.380000,156.760000Z" fill="rgb(209,209,209)" stroke="none" stroke-width="1"/><path id="eEu6IlTUxpH57" d="M139.380000,181.620000C141.229302,181.619996,142.896319,180.505466,143.603078,178.796546C144.309837,177.087626,143.917011,175.121205,142.607926,173.814985C141.298841,172.508764,139.331564,172.120246,137.624197,172.830747C135.916829,173.541248,134.805953,175.210703,134.810000,177.060000C134.815514,179.580035,136.859959,181.620006,139.380000,181.620000Z" fill="rgb(209,209,209)" stroke="none" stroke-width="1"/><path id="eEu6IlTUxpH58" d="M139.380000,206.230000C141.228392,206.230000,142.894780,205.116555,143.602129,203.408863C144.309479,201.701171,143.918489,199.735533,142.611478,198.428522C141.304467,197.121511,139.338829,196.730521,137.631137,197.437871C135.923445,198.145220,134.810000,199.811608,134.810000,201.660000C134.815500,204.181660,136.858340,206.224500,139.380000,206.230000Z" fill="rgb(209,209,209)" stroke="none" stroke-width="1"/><path id="eEu6IlTUxpH59" d="M139.380000,230.840000C141.228392,230.840000,142.894780,229.726555,143.602129,228.018863C144.309479,226.311171,143.918489,224.345533,142.611478,223.038522C141.304467,221.731511,139.338829,221.340521,137.631137,222.047871C135.923445,222.755220,134.810000,224.421608,134.810000,226.270000C134.815500,228.791660,136.858340,230.834500,139.380000,230.840000Z" fill="rgb(209,209,209)" stroke="none" stroke-width="1"/><path id="eEu6IlTUxpH60" d="M139.380000,255.440000C141.228392,255.440000,142.894780,254.326555,143.602129,252.618863C144.309479,250.911171,143.918489,248.945533,142.611478,247.638522C141.304467,246.331511,139.338829,245.940521,137.631137,246.647871C135.923445,247.355220,134.810000,249.021608,134.810000,250.870000C134.815500,253.391660,136.858340,255.434500,139.380000,255.440000Z" fill="rgb(209,209,209)" stroke="none" stroke-width="1"/><path id="eEu6IlTUxpH61" d="M94.440000,9.130000C96.289302,9.129996,97.956319,8.015466,98.663078,6.306546C99.369837,4.597626,98.977011,2.631205,97.667926,1.324985C96.358841,0.018764,94.391564,-0.369754,92.684197,0.340747C90.976829,1.051248,89.865953,2.720703,89.870000,4.570000C89.869997,5.781122,90.351797,6.942494,91.209127,7.797948C92.066457,8.653402,93.228881,9.132656,94.440000,9.130000Z" fill="rgb(209,209,209)" stroke="none" stroke-width="1"/><path id="eEu6IlTUxpH62" d="M94.440000,33.740000C96.288392,33.740000,97.954780,32.626555,98.662129,30.918863C99.369479,29.211171,98.978489,27.245533,97.671478,25.938522C96.364467,24.631511,94.398829,24.240521,92.691137,24.947871C90.983445,25.655220,89.870000,27.321608,89.870000,29.170000C89.870000,31.693941,91.916059,33.740000,94.440000,33.740000Z" fill="rgb(209,209,209)" stroke="none" stroke-width="1"/><path id="eEu6IlTUxpH63" d="M94.440000,58.340000C96.289302,58.339996,97.956319,57.225466,98.663078,55.516546C99.369837,53.807626,98.977011,51.841205,97.667926,50.534985C96.358841,49.228764,94.391564,48.840246,92.684197,49.550747C90.976829,50.261248,89.865953,51.930703,89.870000,53.780000C89.869997,54.991122,90.351797,56.152494,91.209127,57.007948C92.066457,57.863402,93.228881,58.342656,94.440000,58.340000Z" fill="rgb(209,209,209)" stroke="none" stroke-width="1"/><path id="eEu6IlTUxpH64" d="M94.440000,83C96.288392,83,97.954780,81.886555,98.662129,80.178863C99.369479,78.471171,98.978489,76.505533,97.671478,75.198522C96.364467,73.891511,94.398829,73.500521,92.691137,74.207871C90.983445,74.915220,89.870000,76.581608,89.870000,78.430000C89.870000,80.953941,91.916059,83,94.440000,83Z" fill="rgb(209,209,209)" stroke="none" stroke-width="1"/><path id="eEu6IlTUxpH65" d="M94.440000,107.560000C96.289302,107.559996,97.956319,106.445466,98.663078,104.736546C99.369837,103.027626,98.977011,101.061205,97.667926,99.754985C96.358841,98.448764,94.391564,98.060246,92.684197,98.770747C90.976829,99.481248,89.865953,101.150703,89.870000,103C89.875514,105.520035,91.919959,107.560006,94.440000,107.560000Z" fill="rgb(209,209,209)" stroke="none" stroke-width="1"/><path id="eEu6IlTUxpH66" d="M94.440000,132.160000C96.288392,132.160000,97.954780,131.046555,98.662129,129.338863C99.369479,127.631171,98.978489,125.665533,97.671478,124.358522C96.364467,123.051511,94.398829,122.660521,92.691137,123.367871C90.983445,124.075220,89.870000,125.741608,89.870000,127.590000C89.870000,130.113941,91.916059,132.160000,94.440000,132.160000Z" fill="rgb(209,209,209)" stroke="none" stroke-width="1"/><path id="eEu6IlTUxpH67" d="M94.440000,156.760000C96.289302,156.759996,97.956319,155.645466,98.663078,153.936546C99.369837,152.227626,98.977011,150.261205,97.667926,148.954985C96.358841,147.648764,94.391564,147.260246,92.684197,147.970747C90.976829,148.681248,89.865953,150.350703,89.870000,152.200000C89.869997,153.411122,90.351797,154.572494,91.209127,155.427948C92.066457,156.283402,93.228881,156.762656,94.440000,156.760000Z" fill="rgb(209,209,209)" stroke="none" stroke-width="1"/><path id="eEu6IlTUxpH68" d="M94.440000,181.620000C96.289302,181.619996,97.956319,180.505466,98.663078,178.796546C99.369837,177.087626,98.977011,175.121205,97.667926,173.814985C96.358841,172.508764,94.391564,172.120246,92.684197,172.830747C90.976829,173.541248,89.865953,175.210703,89.870000,177.060000C89.869997,178.271122,90.351797,179.432494,91.209127,180.287948C92.066457,181.143402,93.228881,181.622656,94.440000,181.620000Z" fill="rgb(209,209,209)" stroke="none" stroke-width="1"/><path id="eEu6IlTUxpH69" d="M94.440000,206.230000C96.288392,206.230000,97.954780,205.116555,98.662129,203.408863C99.369479,201.701171,98.978489,199.735533,97.671478,198.428522C96.364467,197.121511,94.398829,196.730521,92.691137,197.437871C90.983445,198.145220,89.870000,199.811608,89.870000,201.660000C89.870000,204.183941,91.916059,206.230000,94.440000,206.230000Z" fill="rgb(209,209,209)" stroke="none" stroke-width="1"/><path id="eEu6IlTUxpH70" d="M94.440000,230.840000C96.288392,230.840000,97.954780,229.726555,98.662129,228.018863C99.369479,226.311171,98.978489,224.345533,97.671478,223.038522C96.364467,221.731511,94.398829,221.340521,92.691137,222.047871C90.983445,222.755220,89.870000,224.421608,89.870000,226.270000C89.870000,228.793941,91.916059,230.840000,94.440000,230.840000Z" fill="rgb(209,209,209)" stroke="none" stroke-width="1"/><path id="eEu6IlTUxpH71" d="M94.440000,255.440000C96.288392,255.440000,97.954780,254.326555,98.662129,252.618863C99.369479,250.911171,98.978489,248.945533,97.671478,247.638522C96.364467,246.331511,94.398829,245.940521,92.691137,246.647871C90.983445,247.355220,89.870000,249.021608,89.870000,250.870000C89.870000,253.393941,91.916059,255.440000,94.440000,255.440000Z" fill="rgb(209,209,209)" stroke="none" stroke-width="1"/><path id="eEu6IlTUxpH72" d="M49.500000,9.130000C51.349302,9.129996,53.016319,8.015466,53.723078,6.306546C54.429837,4.597626,54.037011,2.631205,52.727926,1.324985C51.418841,0.018764,49.451564,-0.369754,47.744197,0.340747C46.036829,1.051248,44.925953,2.720703,44.930000,4.570000C44.929997,5.781122,45.411797,6.942494,46.269127,7.797948C47.126457,8.653402,48.288881,9.132656,49.500000,9.130000Z" fill="rgb(209,209,209)" stroke="none" stroke-width="1"/><path id="eEu6IlTUxpH73" d="M49.500000,33.740000C52.023941,33.740000,54.070000,31.693941,54.070000,29.170000C54.070000,26.646059,52.023941,24.600000,49.500000,24.600000C46.976059,24.600000,44.930000,26.646059,44.930000,29.170000C44.930000,31.693941,46.976059,33.740000,49.500000,33.740000Z" fill="rgb(209,209,209)" stroke="none" stroke-width="1"/><path id="eEu6IlTUxpH74" d="M49.500000,58.340000C51.349302,58.339996,53.016319,57.225466,53.723078,55.516546C54.429837,53.807626,54.037011,51.841205,52.727926,50.534985C51.418841,49.228764,49.451564,48.840246,47.744197,49.550747C46.036829,50.261248,44.925953,51.930703,44.930000,53.780000C44.929997,54.991122,45.411797,56.152494,46.269127,57.007948C47.126457,57.863402,48.288881,58.342656,49.500000,58.340000Z" fill="rgb(209,209,209)" stroke="none" stroke-width="1"/><path id="eEu6IlTUxpH75" d="M49.500000,83C51.348392,83,53.014780,81.886555,53.722129,80.178863C54.429479,78.471171,54.038489,76.505533,52.731478,75.198522C51.424467,73.891511,49.458829,73.500521,47.751137,74.207871C46.043445,74.915220,44.930000,76.581608,44.930000,78.430000C44.930000,80.953941,46.976059,83,49.500000,83Z" fill="rgb(209,209,209)" stroke="none" stroke-width="1"/><path id="eEu6IlTUxpH76" d="M49.500000,107.560000C51.349302,107.559996,53.016319,106.445466,53.723078,104.736546C54.429837,103.027626,54.037011,101.061205,52.727926,99.754985C51.418841,98.448764,49.451564,98.060246,47.744197,98.770747C46.036829,99.481248,44.925953,101.150703,44.930000,103C44.935514,105.520035,46.979959,107.560006,49.500000,107.560000Z" fill="rgb(209,209,209)" stroke="none" stroke-width="1"/><path id="eEu6IlTUxpH77" d="M49.500000,132.160000C51.348392,132.160000,53.014780,131.046555,53.722129,129.338863C54.429479,127.631171,54.038489,125.665533,52.731478,124.358522C51.424467,123.051511,49.458829,122.660521,47.751137,123.367871C46.043445,124.075220,44.930000,125.741608,44.930000,127.590000C44.930000,130.113941,46.976059,132.160000,49.500000,132.160000Z" fill="rgb(209,209,209)" stroke="none" stroke-width="1"/><path id="eEu6IlTUxpH78" d="M49.500000,156.760000C51.349302,156.759996,53.016319,155.645466,53.723078,153.936546C54.429837,152.227626,54.037011,150.261205,52.727926,148.954985C51.418841,147.648764,49.451564,147.260246,47.744197,147.970747C46.036829,148.681248,44.925953,150.350703,44.930000,152.200000C44.929997,153.411122,45.411797,154.572494,46.269127,155.427948C47.126457,156.283402,48.288881,156.762656,49.500000,156.760000Z" fill="rgb(209,209,209)" stroke="none" stroke-width="1"/><path id="eEu6IlTUxpH79" d="M49.500000,181.620000C51.349302,181.619996,53.016319,180.505466,53.723078,178.796546C54.429837,177.087626,54.037011,175.121205,52.727926,173.814985C51.418841,172.508764,49.451564,172.120246,47.744197,172.830747C46.036829,173.541248,44.925953,175.210703,44.930000,177.060000C44.929997,178.271122,45.411797,179.432494,46.269127,180.287948C47.126457,181.143402,48.288881,181.622656,49.500000,181.620000Z" fill="rgb(209,209,209)" stroke="none" stroke-width="1"/><path id="eEu6IlTUxpH80" d="M49.500000,206.230000C51.348392,206.230000,53.014780,205.116555,53.722129,203.408863C54.429479,201.701171,54.038489,199.735533,52.731478,198.428522C51.424467,197.121511,49.458829,196.730521,47.751137,197.437871C46.043445,198.145220,44.930000,199.811608,44.930000,201.660000C44.930000,204.183941,46.976059,206.230000,49.500000,206.230000Z" fill="rgb(209,209,209)" stroke="none" stroke-width="1"/><path id="eEu6IlTUxpH81" d="M49.500000,230.840000C51.348392,230.840000,53.014780,229.726555,53.722129,228.018863C54.429479,226.311171,54.038489,224.345533,52.731478,223.038522C51.424467,221.731511,49.458829,221.340521,47.751137,222.047871C46.043445,222.755220,44.930000,224.421608,44.930000,226.270000C44.930000,228.793941,46.976059,230.840000,49.500000,230.840000Z" fill="rgb(209,209,209)" stroke="none" stroke-width="1"/><path id="eEu6IlTUxpH82" d="M49.500000,255.440000C51.348392,255.440000,53.014780,254.326555,53.722129,252.618863C54.429479,250.911171,54.038489,248.945533,52.731478,247.638522C51.424467,246.331511,49.458829,245.940521,47.751137,246.647871C46.043445,247.355220,44.930000,249.021608,44.930000,250.870000C44.930000,253.393941,46.976059,255.440000,49.500000,255.440000Z" fill="rgb(209,209,209)" stroke="none" stroke-width="1"/></g></g><g id="eEu6IlTUxpH83_to" transform="translate(120.692273,549.656958)"><g id="eEu6IlTUxpH83" transform="translate(-1083.995087,-535.794968)" opacity="0.7"><path id="eEu6IlTUxpH84" d="M949.060000,417.210000C950.909302,417.209996,952.576319,416.095466,953.283078,414.386546C953.989837,412.677626,953.597011,410.711205,952.287926,409.404985C950.978841,408.098764,949.011564,407.710246,947.304197,408.420747C945.596829,409.131248,944.485953,410.800703,944.490000,412.650000C944.495514,415.170035,946.539959,417.210006,949.060000,417.210000Z" fill="rgb(209,209,209)" stroke="none" stroke-width="1"/><path id="eEu6IlTUxpH85" d="M949.060000,441.820000C951.583941,441.820000,953.630000,439.773941,953.630000,437.250000C953.630000,434.726059,951.583941,432.680000,949.060000,432.680000C946.536059,432.680000,944.490000,434.726059,944.490000,437.250000C944.495500,439.771660,946.538340,441.814500,949.060000,441.820000Z" fill="rgb(209,209,209)" stroke="none" stroke-width="1"/><path id="eEu6IlTUxpH86" d="M949.060000,466.420000C950.909302,466.419996,952.576319,465.305466,953.283078,463.596546C953.989837,461.887626,953.597011,459.921205,952.287926,458.614985C950.978841,457.308764,949.011564,456.920246,947.304197,457.630747C945.596829,458.341248,944.485953,460.010703,944.490000,461.860000C944.495514,464.380035,946.539959,466.420006,949.060000,466.420000Z" fill="rgb(209,209,209)" stroke="none" stroke-width="1"/><path id="eEu6IlTUxpH87" d="M949.060000,491C951.583941,491,953.630000,488.953941,953.630000,486.430000C953.630000,483.906059,951.583941,481.860000,949.060000,481.860000C946.536059,481.860000,944.490000,483.906059,944.490000,486.430000C944.495500,488.951660,946.538340,490.994500,949.060000,491Z" fill="rgb(209,209,209)" stroke="none" stroke-width="1"/><path id="eEu6IlTUxpH88" d="M949.060000,515.640000C951.583941,515.640000,953.630000,513.593941,953.630000,511.070000C953.630000,508.546059,951.583941,506.500000,949.060000,506.500000C946.536059,506.500000,944.490000,508.546059,944.490000,511.070000C944.495500,513.591660,946.538340,515.634500,949.060000,515.640000Z" fill="rgb(209,209,209)" stroke="none" stroke-width="1"/><path id="eEu6IlTUxpH89" d="M949.060000,540.240000C951.583941,540.240000,953.630000,538.193941,953.630000,535.670000C953.630000,533.146059,951.583941,531.100000,949.060000,531.100000C946.536059,531.100000,944.490000,533.146059,944.490000,535.670000C944.495500,538.191660,946.538340,540.234500,949.060000,540.240000Z" fill="rgb(209,209,209)" stroke="none" stroke-width="1"/><path id="eEu6IlTUxpH90" d="M949.060000,564.840000C950.909302,564.839996,952.576319,563.725466,953.283078,562.016546C953.989837,560.307626,953.597011,558.341205,952.287926,557.034985C950.978841,555.728764,949.011564,555.340246,947.304197,556.050747C945.596829,556.761248,944.485953,558.430703,944.490000,560.280000C944.495514,562.800035,946.539959,564.840006,949.060000,564.840000Z" fill="rgb(209,209,209)" stroke="none" stroke-width="1"/><path id="eEu6IlTUxpH91" d="M949.060000,589.700000C950.909302,589.699996,952.576319,588.585466,953.283078,586.876546C953.989837,585.167626,953.597011,583.201205,952.287926,581.894985C950.978841,580.588764,949.011564,580.200246,947.304197,580.910747C945.596829,581.621248,944.485953,583.290703,944.490000,585.140000C944.495514,587.660035,946.539959,589.700006,949.060000,589.700000Z" fill="rgb(209,209,209)" stroke="none" stroke-width="1"/><path id="eEu6IlTUxpH92" d="M949.060000,614.310000C951.583941,614.310000,953.630000,612.263941,953.630000,609.740000C953.630000,607.216059,951.583941,605.170000,949.060000,605.170000C946.536059,605.170000,944.490000,607.216059,944.490000,609.740000C944.495500,612.261660,946.538340,614.304500,949.060000,614.310000Z" fill="rgb(209,209,209)" stroke="none" stroke-width="1"/><path id="eEu6IlTUxpH93" d="M949.060000,638.920000C951.583941,638.920000,953.630000,636.873941,953.630000,634.350000C953.630000,631.826059,951.583941,629.780000,949.060000,629.780000C946.536059,629.780000,944.490000,631.826059,944.490000,634.350000C944.495500,636.871660,946.538340,638.914500,949.060000,638.920000Z" fill="rgb(209,209,209)" stroke="none" stroke-width="1"/><path id="eEu6IlTUxpH94" d="M949.060000,663.520000C951.583941,663.520000,953.630000,661.473941,953.630000,658.950000C953.630000,656.426059,951.583941,654.380000,949.060000,654.380000C946.536059,654.380000,944.490000,656.426059,944.490000,658.950000C944.495500,661.471660,946.538340,663.514500,949.060000,663.520000Z" fill="rgb(209,209,209)" stroke="none" stroke-width="1"/><path id="eEu6IlTUxpH95" d="M1174,417.210000C1175.849302,417.209996,1177.516319,416.095466,1178.223078,414.386546C1178.929837,412.677626,1178.537011,410.711205,1177.227926,409.404985C1175.918841,408.098764,1173.951564,407.710246,1172.244197,408.420747C1170.536829,409.131248,1169.425953,410.800703,1169.430000,412.650000C1169.435514,415.170035,1171.479959,417.210006,1174,417.210000Z" fill="rgb(209,209,209)" stroke="none" stroke-width="1"/><path id="eEu6IlTUxpH96" d="M1174,441.820000C1175.848392,441.820000,1177.514780,440.706555,1178.222129,438.998863C1178.929479,437.291171,1178.538489,435.325533,1177.231478,434.018522C1175.924467,432.711511,1173.958829,432.320521,1172.251137,433.027871C1170.543445,433.735220,1169.430000,435.401608,1169.430000,437.250000C1169.435500,439.771660,1171.478340,441.814500,1174,441.820000Z" fill="rgb(209,209,209)" stroke="none" stroke-width="1"/><path id="eEu6IlTUxpH97" d="M1174,466.420000C1175.849302,466.419996,1177.516319,465.305466,1178.223078,463.596546C1178.929837,461.887626,1178.537011,459.921205,1177.227926,458.614985C1175.918841,457.308764,1173.951564,456.920246,1172.244197,457.630747C1170.536829,458.341248,1169.425953,460.010703,1169.430000,461.860000C1169.435514,464.380035,1171.479959,466.420006,1174,466.420000Z" fill="rgb(209,209,209)" stroke="none" stroke-width="1"/><path id="eEu6IlTUxpH98" d="M1174,491C1175.848392,491,1177.514780,489.886555,1178.222129,488.178863C1178.929479,486.471171,1178.538489,484.505533,1177.231478,483.198522C1175.924467,481.891511,1173.958829,481.500521,1172.251137,482.207871C1170.543445,482.915220,1169.430000,484.581608,1169.430000,486.430000C1169.435500,488.951660,1171.478340,490.994500,1174,491Z" fill="rgb(209,209,209)" stroke="none" stroke-width="1"/><path id="eEu6IlTUxpH99" d="M1174,515.640000C1175.848392,515.640000,1177.514780,514.526555,1178.222129,512.818863C1178.929479,511.111171,1178.538489,509.145533,1177.231478,507.838522C1175.924467,506.531511,1173.958829,506.140521,1172.251137,506.847871C1170.543445,507.555220,1169.430000,509.221608,1169.430000,511.070000C1169.435500,513.591660,1171.478340,515.634500,1174,515.640000Z" fill="rgb(209,209,209)" stroke="none" stroke-width="1"/><path id="eEu6IlTUxpH100" d="M1174,540.240000C1175.848392,540.240000,1177.514780,539.126555,1178.222129,537.418863C1178.929479,535.711171,1178.538489,533.745533,1177.231478,532.438522C1175.924467,531.131511,1173.958829,530.740521,1172.251137,531.447871C1170.543445,532.155220,1169.430000,533.821608,1169.430000,535.670000C1169.435500,538.191660,1171.478340,540.234500,1174,540.240000Z" fill="rgb(209,209,209)" stroke="none" stroke-width="1"/><path id="eEu6IlTUxpH101" d="M1174,564.840000C1175.849302,564.839996,1177.516319,563.725466,1178.223078,562.016546C1178.929837,560.307626,1178.537011,558.341205,1177.227926,557.034985C1175.918841,555.728764,1173.951564,555.340246,1172.244197,556.050747C1170.536829,556.761248,1169.425953,558.430703,1169.430000,560.280000C1169.435514,562.800035,1171.479959,564.840006,1174,564.840000Z" fill="rgb(209,209,209)" stroke="none" stroke-width="1"/><path id="eEu6IlTUxpH102" d="M1174,589.700000C1175.849302,589.699996,1177.516319,588.585466,1178.223078,586.876546C1178.929837,585.167626,1178.537011,583.201205,1177.227926,581.894985C1175.918841,580.588764,1173.951564,580.200246,1172.244197,580.910747C1170.536829,581.621248,1169.425953,583.290703,1169.430000,585.140000C1169.435514,587.660035,1171.479959,589.700006,1174,589.700000Z" fill="rgb(209,209,209)" stroke="none" stroke-width="1"/><path id="eEu6IlTUxpH103" d="M1174,614.310000C1175.848392,614.310000,1177.514780,613.196555,1178.222129,611.488863C1178.929479,609.781171,1178.538489,607.815533,1177.231478,606.508522C1175.924467,605.201511,1173.958829,604.810521,1172.251137,605.517871C1170.543445,606.225220,1169.430000,607.891608,1169.430000,609.740000C1169.435500,612.261660,1171.478340,614.304500,1174,614.310000Z" fill="rgb(209,209,209)" stroke="none" stroke-width="1"/><path id="eEu6IlTUxpH104" d="M1174,638.920000C1175.848392,638.920000,1177.514780,637.806555,1178.222129,636.098863C1178.929479,634.391171,1178.538489,632.425533,1177.231478,631.118522C1175.924467,629.811511,1173.958829,629.420521,1172.251137,630.127871C1170.543445,630.835220,1169.430000,632.501608,1169.430000,634.350000C1169.435500,636.871660,1171.478340,638.914500,1174,638.920000Z" fill="rgb(209,209,209)" stroke="none" stroke-width="1"/><path id="eEu6IlTUxpH105" d="M1174,663.520000C1175.848392,663.520000,1177.514780,662.406555,1178.222129,660.698863C1178.929479,658.991171,1178.538489,657.025533,1177.231478,655.718522C1175.924467,654.411511,1173.958829,654.020521,1172.251137,654.727871C1170.543445,655.435220,1169.430000,657.101608,1169.430000,658.950000C1169.435500,661.471660,1171.478340,663.514500,1174,663.520000Z" fill="rgb(209,209,209)" stroke="none" stroke-width="1"/><path id="eEu6IlTUxpH106" d="M1129.050000,417.210000C1130.899302,417.209996,1132.566319,416.095466,1133.273078,414.386546C1133.979837,412.677626,1133.587011,410.711205,1132.277926,409.404985C1130.968841,408.098764,1129.001564,407.710246,1127.294197,408.420747C1125.586829,409.131248,1124.475953,410.800703,1124.480000,412.650000C1124.479997,413.861122,1124.961797,415.022494,1125.819127,415.877948C1126.676457,416.733402,1127.838881,417.212656,1129.050000,417.210000Z" fill="rgb(209,209,209)" stroke="none" stroke-width="1"/><path id="eEu6IlTUxpH107" d="M1129.050000,441.820000C1130.898392,441.820000,1132.564780,440.706555,1133.272129,438.998863C1133.979479,437.291171,1133.588489,435.325533,1132.281478,434.018522C1130.974467,432.711511,1129.008829,432.320521,1127.301137,433.027871C1125.593445,433.735220,1124.480000,435.401608,1124.480000,437.250000C1124.480000,439.773941,1126.526059,441.820000,1129.050000,441.820000Z" fill="rgb(209,209,209)" stroke="none" stroke-width="1"/><path id="eEu6IlTUxpH108" d="M1129.050000,466.420000C1130.899302,466.419996,1132.566319,465.305466,1133.273078,463.596546C1133.979837,461.887626,1133.587011,459.921205,1132.277926,458.614985C1130.968841,457.308764,1129.001564,456.920246,1127.294197,457.630747C1125.586829,458.341248,1124.475953,460.010703,1124.480000,461.860000C1124.479997,463.071122,1124.961797,464.232494,1125.819127,465.087948C1126.676457,465.943402,1127.838881,466.422656,1129.050000,466.420000Z" fill="rgb(209,209,209)" stroke="none" stroke-width="1"/><path id="eEu6IlTUxpH109" d="M1129.050000,491C1130.898392,491,1132.564780,489.886555,1133.272129,488.178863C1133.979479,486.471171,1133.588489,484.505533,1132.281478,483.198522C1130.974467,481.891511,1129.008829,481.500521,1127.301137,482.207871C1125.593445,482.915220,1124.480000,484.581608,1124.480000,486.430000C1124.480000,488.953941,1126.526059,491,1129.050000,491Z" fill="rgb(209,209,209)" stroke="none" stroke-width="1"/><path id="eEu6IlTUxpH110" d="M1129.050000,515.640000C1130.898392,515.640000,1132.564780,514.526555,1133.272129,512.818863C1133.979479,511.111171,1133.588489,509.145533,1132.281478,507.838522C1130.974467,506.531511,1129.008829,506.140521,1127.301137,506.847871C1125.593445,507.555220,1124.480000,509.221608,1124.480000,511.070000C1124.480000,513.593941,1126.526059,515.640000,1129.050000,515.640000Z" fill="rgb(209,209,209)" stroke="none" stroke-width="1"/><path id="eEu6IlTUxpH111" d="M1129.050000,540.240000C1130.898392,540.240000,1132.564780,539.126555,1133.272129,537.418863C1133.979479,535.711171,1133.588489,533.745533,1132.281478,532.438522C1130.974467,531.131511,1129.008829,530.740521,1127.301137,531.447871C1125.593445,532.155220,1124.480000,533.821608,1124.480000,535.670000C1124.480000,538.193941,1126.526059,540.240000,1129.050000,540.240000Z" fill="rgb(209,209,209)" stroke="none" stroke-width="1"/><path id="eEu6IlTUxpH112" d="M1129.050000,564.840000C1130.899302,564.839996,1132.566319,563.725466,1133.273078,562.016546C1133.979837,560.307626,1133.587011,558.341205,1132.277926,557.034985C1130.968841,555.728764,1129.001564,555.340246,1127.294197,556.050747C1125.586829,556.761248,1124.475953,558.430703,1124.480000,560.280000C1124.479997,561.491122,1124.961797,562.652494,1125.819127,563.507948C1126.676457,564.363402,1127.838881,564.842656,1129.050000,564.840000Z" fill="rgb(209,209,209)" stroke="none" stroke-width="1"/><path id="eEu6IlTUxpH113" d="M1129.050000,589.700000C1130.899302,589.699996,1132.566319,588.585466,1133.273078,586.876546C1133.979837,585.167626,1133.587011,583.201205,1132.277926,581.894985C1130.968841,580.588764,1129.001564,580.200246,1127.294197,580.910747C1125.586829,581.621248,1124.475953,583.290703,1124.480000,585.140000C1124.479997,586.351122,1124.961797,587.512494,1125.819127,588.367948C1126.676457,589.223402,1127.838881,589.702656,1129.050000,589.700000Z" fill="rgb(209,209,209)" stroke="none" stroke-width="1"/><path id="eEu6IlTUxpH114" d="M1129.050000,614.310000C1130.898392,614.310000,1132.564780,613.196555,1133.272129,611.488863C1133.979479,609.781171,1133.588489,607.815533,1132.281478,606.508522C1130.974467,605.201511,1129.008829,604.810521,1127.301137,605.517871C1125.593445,606.225220,1124.480000,607.891608,1124.480000,609.740000C1124.480000,612.263941,1126.526059,614.310000,1129.050000,614.310000Z" fill="rgb(209,209,209)" stroke="none" stroke-width="1"/><path id="eEu6IlTUxpH115" d="M1129.050000,638.920000C1130.898392,638.920000,1132.564780,637.806555,1133.272129,636.098863C1133.979479,634.391171,1133.588489,632.425533,1132.281478,631.118522C1130.974467,629.811511,1129.008829,629.420521,1127.301137,630.127871C1125.593445,630.835220,1124.480000,632.501608,1124.480000,634.350000C1124.480000,636.873941,1126.526059,638.920000,1129.050000,638.920000Z" fill="rgb(209,209,209)" stroke="none" stroke-width="1"/><path id="eEu6IlTUxpH116" d="M1129.050000,663.520000C1130.898392,663.520000,1132.564780,662.406555,1133.272129,660.698863C1133.979479,658.991171,1133.588489,657.025533,1132.281478,655.718522C1130.974467,654.411511,1129.008829,654.020521,1127.301137,654.727871C1125.593445,655.435220,1124.480000,657.101608,1124.480000,658.950000C1124.480000,661.473941,1126.526059,663.520000,1129.050000,663.520000Z" fill="rgb(209,209,209)" stroke="none" stroke-width="1"/><path id="eEu6IlTUxpH117" d="M1218.920000,417.210000C1220.770206,417.214044,1222.440292,416.102084,1223.150205,414.393488C1223.860117,412.684891,1223.469764,410.716829,1222.161467,409.408533C1220.853171,408.100236,1218.885109,407.709883,1217.176512,408.419795C1215.467916,409.129708,1214.355956,410.799794,1214.360000,412.650000C1214.360000,415.168418,1216.401582,417.210000,1218.920000,417.210000Z" fill="rgb(209,209,209)" stroke="none" stroke-width="1"/><path id="eEu6IlTUxpH118" d="M1218.920000,441.820000C1220.769297,441.824047,1222.438752,440.713171,1223.149253,439.005803C1223.859754,437.298436,1223.471236,435.331159,1222.165015,434.022074C1220.858795,432.712989,1218.892374,432.320163,1217.183454,433.026922C1215.474534,433.733681,1214.360004,435.400698,1214.360000,437.250000C1214.359994,439.770041,1216.399965,441.814486,1218.920000,441.820000Z" fill="rgb(209,209,209)" stroke="none" stroke-width="1"/><path id="eEu6IlTUxpH119" d="M1218.920000,466.420000C1220.770206,466.424044,1222.440292,465.312084,1223.150205,463.603488C1223.860117,461.894891,1223.469764,459.926829,1222.161467,458.618533C1220.853171,457.310236,1218.885109,456.919883,1217.176512,457.629795C1215.467916,458.339708,1214.355956,460.009794,1214.360000,461.860000C1214.360000,464.378418,1216.401582,466.420000,1218.920000,466.420000Z" fill="rgb(209,209,209)" stroke="none" stroke-width="1"/><path id="eEu6IlTUxpH120" d="M1218.920000,491C1220.769297,491.004047,1222.438752,489.893171,1223.149253,488.185803C1223.859754,486.478436,1223.471236,484.511159,1222.165015,483.202074C1220.858795,481.892989,1218.892374,481.500163,1217.183454,482.206922C1215.474534,482.913681,1214.360004,484.580698,1214.360000,486.430000C1214.359994,488.950041,1216.399965,490.994486,1218.920000,491Z" fill="rgb(209,209,209)" stroke="none" stroke-width="1"/><path id="eEu6IlTUxpH121" d="M1218.920000,515.640000C1220.769297,515.644047,1222.438752,514.533171,1223.149253,512.825803C1223.859754,511.118436,1223.471236,509.151159,1222.165015,507.842074C1220.858795,506.532989,1218.892374,506.140163,1217.183454,506.846922C1215.474534,507.553681,1214.360004,509.220698,1214.360000,511.070000C1214.359994,513.590041,1216.399965,515.634486,1218.920000,515.640000Z" fill="rgb(209,209,209)" stroke="none" stroke-width="1"/><path id="eEu6IlTUxpH122" d="M1218.920000,540.240000C1220.769297,540.244047,1222.438752,539.133171,1223.149253,537.425803C1223.859754,535.718436,1223.471236,533.751159,1222.165015,532.442074C1220.858795,531.132989,1218.892374,530.740163,1217.183454,531.446922C1215.474534,532.153681,1214.360004,533.820698,1214.360000,535.670000C1214.359994,538.190041,1216.399965,540.234486,1218.920000,540.240000Z" fill="rgb(209,209,209)" stroke="none" stroke-width="1"/><path id="eEu6IlTUxpH123" d="M1218.920000,564.840000C1220.770206,564.844044,1222.440292,563.732084,1223.150205,562.023488C1223.860117,560.314891,1223.469764,558.346829,1222.161467,557.038533C1220.853171,555.730236,1218.885109,555.339883,1217.176512,556.049795C1215.467916,556.759708,1214.355956,558.429794,1214.360000,560.280000C1214.360000,562.798418,1216.401582,564.840000,1218.920000,564.840000Z" fill="rgb(209,209,209)" stroke="none" stroke-width="1"/><path id="eEu6IlTUxpH124" d="M1218.920000,589.700000C1220.770206,589.704044,1222.440292,588.592084,1223.150205,586.883488C1223.860117,585.174891,1223.469764,583.206829,1222.161467,581.898533C1220.853171,580.590236,1218.885109,580.199883,1217.176512,580.909795C1215.467916,581.619708,1214.355956,583.289794,1214.360000,585.140000C1214.360000,587.658418,1216.401582,589.700000,1218.920000,589.700000Z" fill="rgb(209,209,209)" stroke="none" stroke-width="1"/><path id="eEu6IlTUxpH125" d="M1218.920000,614.310000C1220.769297,614.314047,1222.438752,613.203171,1223.149253,611.495803C1223.859754,609.788436,1223.471236,607.821159,1222.165015,606.512074C1220.858795,605.202989,1218.892374,604.810163,1217.183454,605.516922C1215.474534,606.223681,1214.360004,607.890698,1214.360000,609.740000C1214.359994,612.260041,1216.399965,614.304486,1218.920000,614.310000Z" fill="rgb(209,209,209)" stroke="none" stroke-width="1"/><path id="eEu6IlTUxpH126" d="M1218.920000,638.920000C1220.769297,638.924047,1222.438752,637.813171,1223.149253,636.105803C1223.859754,634.398436,1223.471236,632.431159,1222.165015,631.122074C1220.858795,629.812989,1218.892374,629.420163,1217.183454,630.126922C1215.474534,630.833681,1214.360004,632.500698,1214.360000,634.350000C1214.359994,636.870041,1216.399965,638.914486,1218.920000,638.920000Z" fill="rgb(209,209,209)" stroke="none" stroke-width="1"/><path id="eEu6IlTUxpH127" d="M1218.920000,663.520000C1220.769297,663.524047,1222.438752,662.413171,1223.149253,660.705803C1223.859754,658.998436,1223.471236,657.031159,1222.165015,655.722074C1220.858795,654.412989,1218.892374,654.020163,1217.183454,654.726922C1215.474534,655.433681,1214.360004,657.100698,1214.360000,658.950000C1214.359994,661.470041,1216.399965,663.514486,1218.920000,663.520000Z" fill="rgb(209,209,209)" stroke="none" stroke-width="1"/><path id="eEu6IlTUxpH128" d="M1083.860000,417.210000C1085.710206,417.214044,1087.380292,416.102084,1088.090205,414.393488C1088.800117,412.684891,1088.409764,410.716829,1087.101467,409.408533C1085.793171,408.100236,1083.825109,407.709883,1082.116512,408.419795C1080.407916,409.129708,1079.295956,410.799794,1079.300000,412.650000C1079.300000,415.168418,1081.341582,417.210000,1083.860000,417.210000Z" fill="rgb(209,209,209)" stroke="none" stroke-width="1"/><path id="eEu6IlTUxpH129" d="M1083.860000,441.820000C1085.709297,441.824047,1087.378752,440.713171,1088.089253,439.005803C1088.799754,437.298436,1088.411236,435.331159,1087.105015,434.022074C1085.798795,432.712989,1083.832374,432.320163,1082.123454,433.026922C1080.414534,433.733681,1079.300004,435.400698,1079.300000,437.250000C1079.299994,439.770041,1081.339965,441.814486,1083.860000,441.820000Z" fill="rgb(209,209,209)" stroke="none" stroke-width="1"/><path id="eEu6IlTUxpH130" d="M1083.860000,466.420000C1085.710206,466.424044,1087.380292,465.312084,1088.090205,463.603488C1088.800117,461.894891,1088.409764,459.926829,1087.101467,458.618533C1085.793171,457.310236,1083.825109,456.919883,1082.116512,457.629795C1080.407916,458.339708,1079.295956,460.009794,1079.300000,461.860000C1079.300000,464.378418,1081.341582,466.420000,1083.860000,466.420000Z" fill="rgb(209,209,209)" stroke="none" stroke-width="1"/><path id="eEu6IlTUxpH131" d="M1083.860000,491C1085.709297,491.004047,1087.378752,489.893171,1088.089253,488.185803C1088.799754,486.478436,1088.411236,484.511159,1087.105015,483.202074C1085.798795,481.892989,1083.832374,481.500163,1082.123454,482.206922C1080.414534,482.913681,1079.300004,484.580698,1079.300000,486.430000C1079.299994,488.950041,1081.339965,490.994486,1083.860000,491Z" fill="rgb(209,209,209)" stroke="none" stroke-width="1"/><path id="eEu6IlTUxpH132" d="M1083.860000,515.640000C1085.709297,515.644047,1087.378752,514.533171,1088.089253,512.825803C1088.799754,511.118436,1088.411236,509.151159,1087.105015,507.842074C1085.798795,506.532989,1083.832374,506.140163,1082.123454,506.846922C1080.414534,507.553681,1079.300004,509.220698,1079.300000,511.070000C1079.299994,513.590041,1081.339965,515.634486,1083.860000,515.640000Z" fill="rgb(209,209,209)" stroke="none" stroke-width="1"/><path id="eEu6IlTUxpH133" d="M1083.860000,540.240000C1085.709297,540.244047,1087.378752,539.133171,1088.089253,537.425803C1088.799754,535.718436,1088.411236,533.751159,1087.105015,532.442074C1085.798795,531.132989,1083.832374,530.740163,1082.123454,531.446922C1080.414534,532.153681,1079.300004,533.820698,1079.300000,535.670000C1079.299994,538.190041,1081.339965,540.234486,1083.860000,540.240000Z" fill="rgb(209,209,209)" stroke="none" stroke-width="1"/><path id="eEu6IlTUxpH134" d="M1083.860000,564.840000C1085.710206,564.844044,1087.380292,563.732084,1088.090205,562.023488C1088.800117,560.314891,1088.409764,558.346829,1087.101467,557.038533C1085.793171,555.730236,1083.825109,555.339883,1082.116512,556.049795C1080.407916,556.759708,1079.295956,558.429794,1079.300000,560.280000C1079.300000,562.798418,1081.341582,564.840000,1083.860000,564.840000Z" fill="rgb(209,209,209)" stroke="none" stroke-width="1"/><path id="eEu6IlTUxpH135" d="M1083.860000,589.700000C1085.710206,589.704044,1087.380292,588.592084,1088.090205,586.883488C1088.800117,585.174891,1088.409764,583.206829,1087.101467,581.898533C1085.793171,580.590236,1083.825109,580.199883,1082.116512,580.909795C1080.407916,581.619708,1079.295956,583.289794,1079.300000,585.140000C1079.300000,587.658418,1081.341582,589.700000,1083.860000,589.700000Z" fill="rgb(209,209,209)" stroke="none" stroke-width="1"/><path id="eEu6IlTUxpH136" d="M1083.860000,614.310000C1085.709297,614.314047,1087.378752,613.203171,1088.089253,611.495803C1088.799754,609.788436,1088.411236,607.821159,1087.105015,606.512074C1085.798795,605.202989,1083.832374,604.810163,1082.123454,605.516922C1080.414534,606.223681,1079.300004,607.890698,1079.300000,609.740000C1079.299994,612.260041,1081.339965,614.304486,1083.860000,614.310000Z" fill="rgb(209,209,209)" stroke="none" stroke-width="1"/><path id="eEu6IlTUxpH137" d="M1083.860000,638.920000C1085.709297,638.924047,1087.378752,637.813171,1088.089253,636.105803C1088.799754,634.398436,1088.411236,632.431159,1087.105015,631.122074C1085.798795,629.812989,1083.832374,629.420163,1082.123454,630.126922C1080.414534,630.833681,1079.300004,632.500698,1079.300000,634.350000C1079.299994,636.870041,1081.339965,638.914486,1083.860000,638.920000Z" fill="rgb(209,209,209)" stroke="none" stroke-width="1"/><path id="eEu6IlTUxpH138" d="M1083.860000,663.520000C1085.709297,663.524047,1087.378752,662.413171,1088.089253,660.705803C1088.799754,658.998436,1088.411236,657.031159,1087.105015,655.722074C1085.798795,654.412989,1083.832374,654.020163,1082.123454,654.726922C1080.414534,655.433681,1079.300004,657.100698,1079.300000,658.950000C1079.299994,661.470041,1081.339965,663.514486,1083.860000,663.520000Z" fill="rgb(209,209,209)" stroke="none" stroke-width="1"/><path id="eEu6IlTUxpH139" d="M1038.930000,417.210000C1040.779302,417.209996,1042.446319,416.095466,1043.153078,414.386546C1043.859837,412.677626,1043.467011,410.711205,1042.157926,409.404985C1040.848841,408.098764,1038.881564,407.710246,1037.174197,408.420747C1035.466829,409.131248,1034.355953,410.800703,1034.360000,412.650000C1034.365514,415.170035,1036.409959,417.210006,1038.930000,417.210000Z" fill="rgb(209,209,209)" stroke="none" stroke-width="1"/><path id="eEu6IlTUxpH140" d="M1038.930000,441.820000C1040.778392,441.820000,1042.444780,440.706555,1043.152129,438.998863C1043.859479,437.291171,1043.468489,435.325533,1042.161478,434.018522C1040.854467,432.711511,1038.888829,432.320521,1037.181137,433.027871C1035.473445,433.735220,1034.360000,435.401608,1034.360000,437.250000C1034.365500,439.771660,1036.408340,441.814500,1038.930000,441.820000Z" fill="rgb(209,209,209)" stroke="none" stroke-width="1"/><path id="eEu6IlTUxpH141" d="M1038.930000,466.420000C1040.779302,466.419996,1042.446319,465.305466,1043.153078,463.596546C1043.859837,461.887626,1043.467011,459.921205,1042.157926,458.614985C1040.848841,457.308764,1038.881564,456.920246,1037.174197,457.630747C1035.466829,458.341248,1034.355953,460.010703,1034.360000,461.860000C1034.365514,464.380035,1036.409959,466.420006,1038.930000,466.420000Z" fill="rgb(209,209,209)" stroke="none" stroke-width="1"/><path id="eEu6IlTUxpH142" d="M1038.930000,491C1040.778392,491,1042.444780,489.886555,1043.152129,488.178863C1043.859479,486.471171,1043.468489,484.505533,1042.161478,483.198522C1040.854467,481.891511,1038.888829,481.500521,1037.181137,482.207871C1035.473445,482.915220,1034.360000,484.581608,1034.360000,486.430000C1034.365500,488.951660,1036.408340,490.994500,1038.930000,491Z" fill="rgb(209,209,209)" stroke="none" stroke-width="1"/><path id="eEu6IlTUxpH143" d="M1038.930000,515.640000C1040.778392,515.640000,1042.444780,514.526555,1043.152129,512.818863C1043.859479,511.111171,1043.468489,509.145533,1042.161478,507.838522C1040.854467,506.531511,1038.888829,506.140521,1037.181137,506.847871C1035.473445,507.555220,1034.360000,509.221608,1034.360000,511.070000C1034.365500,513.591660,1036.408340,515.634500,1038.930000,515.640000Z" fill="rgb(209,209,209)" stroke="none" stroke-width="1"/><path id="eEu6IlTUxpH144" d="M1038.930000,540.240000C1040.778392,540.240000,1042.444780,539.126555,1043.152129,537.418863C1043.859479,535.711171,1043.468489,533.745533,1042.161478,532.438522C1040.854467,531.131511,1038.888829,530.740521,1037.181137,531.447871C1035.473445,532.155220,1034.360000,533.821608,1034.360000,535.670000C1034.365500,538.191660,1036.408340,540.234500,1038.930000,540.240000Z" fill="rgb(209,209,209)" stroke="none" stroke-width="1"/><path id="eEu6IlTUxpH145" d="M1038.930000,564.840000C1040.779302,564.839996,1042.446319,563.725466,1043.153078,562.016546C1043.859837,560.307626,1043.467011,558.341205,1042.157926,557.034985C1040.848841,555.728764,1038.881564,555.340246,1037.174197,556.050747C1035.466829,556.761248,1034.355953,558.430703,1034.360000,560.280000C1034.365514,562.800035,1036.409959,564.840006,1038.930000,564.840000Z" fill="rgb(209,209,209)" stroke="none" stroke-width="1"/><path id="eEu6IlTUxpH146" d="M1038.930000,589.700000C1040.779302,589.699996,1042.446319,588.585466,1043.153078,586.876546C1043.859837,585.167626,1043.467011,583.201205,1042.157926,581.894985C1040.848841,580.588764,1038.881564,580.200246,1037.174197,580.910747C1035.466829,581.621248,1034.355953,583.290703,1034.360000,585.140000C1034.365514,587.660035,1036.409959,589.700006,1038.930000,589.700000Z" fill="rgb(209,209,209)" stroke="none" stroke-width="1"/><path id="eEu6IlTUxpH147" d="M1038.930000,614.310000C1040.778392,614.310000,1042.444780,613.196555,1043.152129,611.488863C1043.859479,609.781171,1043.468489,607.815533,1042.161478,606.508522C1040.854467,605.201511,1038.888829,604.810521,1037.181137,605.517871C1035.473445,606.225220,1034.360000,607.891608,1034.360000,609.740000C1034.365500,612.261660,1036.408340,614.304500,1038.930000,614.310000Z" fill="rgb(209,209,209)" stroke="none" stroke-width="1"/><path id="eEu6IlTUxpH148" d="M1038.930000,638.920000C1040.778392,638.920000,1042.444780,637.806555,1043.152129,636.098863C1043.859479,634.391171,1043.468489,632.425533,1042.161478,631.118522C1040.854467,629.811511,1038.888829,629.420521,1037.181137,630.127871C1035.473445,630.835220,1034.360000,632.501608,1034.360000,634.350000C1034.365500,636.871660,1036.408340,638.914500,1038.930000,638.920000Z" fill="rgb(209,209,209)" stroke="none" stroke-width="1"/><path id="eEu6IlTUxpH149" d="M1038.930000,663.520000C1040.778392,663.520000,1042.444780,662.406555,1043.152129,660.698863C1043.859479,658.991171,1043.468489,657.025533,1042.161478,655.718522C1040.854467,654.411511,1038.888829,654.020521,1037.181137,654.727871C1035.473445,655.435220,1034.360000,657.101608,1034.360000,658.950000C1034.365500,661.471660,1036.408340,663.514500,1038.930000,663.520000Z" fill="rgb(209,209,209)" stroke="none" stroke-width="1"/><path id="eEu6IlTUxpH150" d="M994,417.210000C995.849302,417.209996,997.516319,416.095466,998.223078,414.386546C998.929837,412.677626,998.537011,410.711205,997.227926,409.404985C995.918841,408.098764,993.951564,407.710246,992.244197,408.420747C990.536829,409.131248,989.425953,410.800703,989.430000,412.650000C989.429997,413.861122,989.911797,415.022494,990.769127,415.877948C991.626457,416.733402,992.788881,417.212656,994,417.210000Z" fill="rgb(209,209,209)" stroke="none" stroke-width="1"/><path id="eEu6IlTUxpH151" d="M994,441.820000C996.523941,441.820000,998.570000,439.773941,998.570000,437.250000C998.570000,434.726059,996.523941,432.680000,994,432.680000C991.476059,432.680000,989.430000,434.726059,989.430000,437.250000C989.430000,438.462039,989.911481,439.624437,990.768522,440.481478C991.625563,441.338519,992.787961,441.820000,994,441.820000Z" fill="rgb(209,209,209)" stroke="none" stroke-width="1"/><path id="eEu6IlTUxpH152" d="M994,466.420000C995.849302,466.419996,997.516319,465.305466,998.223078,463.596546C998.929837,461.887626,998.537011,459.921205,997.227926,458.614985C995.918841,457.308764,993.951564,456.920246,992.244197,457.630747C990.536829,458.341248,989.425953,460.010703,989.430000,461.860000C989.429997,463.071122,989.911797,464.232494,990.769127,465.087948C991.626457,465.943402,992.788881,466.422656,994,466.420000Z" fill="rgb(209,209,209)" stroke="none" stroke-width="1"/><path id="eEu6IlTUxpH153" d="M994,491C996.523941,491,998.570000,488.953941,998.570000,486.430000C998.570000,483.906059,996.523941,481.860000,994,481.860000C991.476059,481.860000,989.430000,483.906059,989.430000,486.430000C989.430000,487.642039,989.911481,488.804437,990.768522,489.661478C991.625563,490.518519,992.787961,491,994,491Z" fill="rgb(209,209,209)" stroke="none" stroke-width="1"/><path id="eEu6IlTUxpH154" d="M994,515.640000C996.523941,515.640000,998.570000,513.593941,998.570000,511.070000C998.570000,508.546059,996.523941,506.500000,994,506.500000C991.476059,506.500000,989.430000,508.546059,989.430000,511.070000C989.430000,512.282039,989.911481,513.444437,990.768522,514.301478C991.625563,515.158519,992.787961,515.640000,994,515.640000Z" fill="rgb(209,209,209)" stroke="none" stroke-width="1"/><path id="eEu6IlTUxpH155" d="M994,540.240000C996.523941,540.240000,998.570000,538.193941,998.570000,535.670000C998.570000,533.146059,996.523941,531.100000,994,531.100000C991.476059,531.100000,989.430000,533.146059,989.430000,535.670000C989.430000,536.882039,989.911481,538.044437,990.768522,538.901478C991.625563,539.758519,992.787961,540.240000,994,540.240000Z" fill="rgb(209,209,209)" stroke="none" stroke-width="1"/><path id="eEu6IlTUxpH156" d="M994,564.840000C995.849302,564.839996,997.516319,563.725466,998.223078,562.016546C998.929837,560.307626,998.537011,558.341205,997.227926,557.034985C995.918841,555.728764,993.951564,555.340246,992.244197,556.050747C990.536829,556.761248,989.425953,558.430703,989.430000,560.280000C989.429997,561.491122,989.911797,562.652494,990.769127,563.507948C991.626457,564.363402,992.788881,564.842656,994,564.840000Z" fill="rgb(209,209,209)" stroke="none" stroke-width="1"/><path id="eEu6IlTUxpH157" d="M994,589.700000C995.849302,589.699996,997.516319,588.585466,998.223078,586.876546C998.929837,585.167626,998.537011,583.201205,997.227926,581.894985C995.918841,580.588764,993.951564,580.200246,992.244197,580.910747C990.536829,581.621248,989.425953,583.290703,989.430000,585.140000C989.429997,586.351122,989.911797,587.512494,990.769127,588.367948C991.626457,589.223402,992.788881,589.702656,994,589.700000Z" fill="rgb(209,209,209)" stroke="none" stroke-width="1"/><path id="eEu6IlTUxpH158" d="M994,614.310000C996.523941,614.310000,998.570000,612.263941,998.570000,609.740000C998.570000,607.216059,996.523941,605.170000,994,605.170000C991.476059,605.170000,989.430000,607.216059,989.430000,609.740000C989.430000,610.952039,989.911481,612.114437,990.768522,612.971478C991.625563,613.828519,992.787961,614.310000,994,614.310000Z" fill="rgb(209,209,209)" stroke="none" stroke-width="1"/><path id="eEu6IlTUxpH159" d="M994,638.920000C996.523941,638.920000,998.570000,636.873941,998.570000,634.350000C998.570000,631.826059,996.523941,629.780000,994,629.780000C991.476059,629.780000,989.430000,631.826059,989.430000,634.350000C989.430000,635.562039,989.911481,636.724437,990.768522,637.581478C991.625563,638.438519,992.787961,638.920000,994,638.920000Z" fill="rgb(209,209,209)" stroke="none" stroke-width="1"/><path id="eEu6IlTUxpH160" d="M994,663.520000C996.523941,663.520000,998.570000,661.473941,998.570000,658.950000C998.570000,656.426059,996.523941,654.380000,994,654.380000C991.476059,654.380000,989.430000,656.426059,989.430000,658.950000C989.430000,660.162039,989.911481,661.324437,990.768522,662.181478C991.625563,663.038519,992.787961,663.520000,994,663.520000Z" fill="rgb(209,209,209)" stroke="none" stroke-width="1"/></g></g></g></svg>