<svg width="302" height="317" viewBox="0 0 302 317" fill="none" xmlns="http://www.w3.org/2000/svg">
<path d="M265.352 217.845L205.745 275.14C192.628 287.711 173.825 292.338 156.372 287.29L76.9844 264.196C59.6416 259.12 46.1743 245.149 41.8387 227.529L22.0574 147.14C17.7218 129.52 23.1682 110.895 36.1483 98.241L95.8645 40.9183C108.982 28.3473 127.785 23.7204 145.238 28.769L224.626 51.8628C242.078 56.9115 255.436 70.9097 259.798 88.6394L279.58 169.029C283.915 186.649 278.469 205.274 265.352 217.845Z" fill="url(#paint0_linear)"/>
<path d="M219.978 190.114L184.735 223.925C176.98 231.344 165.866 234.079 155.554 231.106L108.646 217.509C98.3984 214.52 90.4439 206.284 87.887 195.893L76.2211 148.484C73.6642 138.093 76.8884 127.105 84.563 119.638L119.87 85.8102C127.626 78.3917 138.739 75.657 149.052 78.6296L195.96 92.2269C206.272 95.1994 214.162 103.452 216.735 113.908L228.401 161.317C230.957 171.708 227.733 182.695 219.978 190.114Z" fill="url(#paint1_linear)"/>
<defs>
<linearGradient id="paint0_linear" x1="217.531" y1="0.0113111" x2="128.081" y2="211.027" gradientUnits="userSpaceOnUse">
<stop stop-color="#5600E3"/>
<stop offset="1" stop-color="white" stop-opacity="0"/>
</linearGradient>
<linearGradient id="paint1_linear" x1="191.783" y1="61.6461" x2="139.119" y2="186.244" gradientUnits="userSpaceOnUse">
<stop stop-color="white"/>
<stop offset="1" stop-color="white" stop-opacity="0"/>
</linearGradient>
</defs>
</svg>
