<svg width="560" height="560" viewBox="0 0 560 560" fill="none" xmlns="http://www.w3.org/2000/svg">
<path d="M334.102 558.077L94.1023 493.718C80.5126 490.128 69.8716 479.487 66.1536 465.769L1.92284 225.897C-1.6669 212.307 2.17925 197.82 12.1793 187.82L187.82 12.1793C197.82 2.17925 212.307 -1.6669 225.897 1.92284L465.769 66.1536C479.359 69.7434 490 80.3844 493.718 94.1023L557.948 333.974C561.538 347.564 557.692 362.051 547.692 372.051L372.051 547.692C362.179 557.82 347.692 561.666 334.102 558.077Z" stroke="#CACACA" stroke-miterlimit="10"/>
<path d="M331.795 546.026L102.179 484.615C89.1026 481.154 78.9744 470.897 75.5128 457.949L13.9744 228.205C10.5128 215.128 14.2308 201.282 23.718 191.795L191.795 23.718C201.282 14.2308 215.256 10.5128 228.205 13.9744L457.821 75.5128C470.897 78.9744 481.026 89.2308 484.487 102.179L546.026 331.795C549.487 344.872 545.769 358.718 536.282 368.205L368.205 536.282C358.718 545.897 344.744 549.615 331.795 546.026Z" stroke="#CACACA" stroke-miterlimit="10"/>
<path d="M329.486 534.102L110.256 475.384C97.8198 472.051 88.0762 462.307 84.7429 449.871L26.0249 230.641C22.6916 218.205 26.2813 204.871 35.3839 195.769L195.768 35.256C204.871 26.1534 218.204 22.5637 230.64 25.897L449.871 84.6149C462.307 87.9483 472.051 97.6919 475.384 110.128L534.102 329.359C537.435 341.794 533.845 355.128 524.743 364.23L364.23 524.743C355.127 533.846 341.922 537.435 329.486 534.102Z" stroke="#CACACA" stroke-miterlimit="10"/>
<path d="M327.179 522.18L118.205 466.154C106.41 462.949 97.0511 453.718 93.9742 441.923L37.9485 232.949C34.7434 221.154 38.2049 208.462 46.7947 199.744L199.743 46.795C208.461 38.0771 221.025 34.7437 232.949 37.9489L441.923 93.9745C453.718 97.1796 463.077 106.41 466.154 118.205L522.179 327.18C525.384 338.974 521.923 351.667 513.333 360.385L360.256 513.333C351.667 521.923 338.974 525.385 327.179 522.18Z" stroke="#CACACA" stroke-miterlimit="10"/>
<path d="M324.743 510.257L126.025 457.052C114.743 453.975 105.897 445.257 102.948 433.975L49.8711 235.257C46.7942 223.975 50.1276 211.923 58.3327 203.718L203.717 58.3336C211.922 50.1284 223.974 46.9233 235.256 49.872L433.974 103.077C445.256 106.154 454.102 114.872 457.051 126.154L510.256 324.744C513.333 336.026 509.999 348.077 501.794 356.282L356.281 501.795C348.076 510 336.025 513.205 324.743 510.257Z" stroke="#CACACA" stroke-miterlimit="10"/>
<path d="M322.436 498.205L134.102 447.693C123.461 444.872 115.128 436.539 112.179 425.77L61.7948 237.564C58.9742 226.923 61.923 215.513 69.7435 207.693L207.692 69.7439C215.513 61.9234 226.923 58.8464 237.564 61.7952L425.897 112.308C436.538 115.128 444.872 123.462 447.82 134.231L498.333 322.564C501.154 333.205 498.205 344.616 490.385 352.436L352.308 490.257C344.487 498.077 333.205 501.154 322.436 498.205Z" stroke="#CACACA" stroke-miterlimit="10"/>
<path d="M320.128 486.281L142.051 438.589C131.923 435.897 124.102 427.948 121.41 417.948L73.7174 239.871C71.0251 229.743 73.8456 218.974 81.2815 211.666L211.666 81.2815C219.102 73.8456 229.871 71.0251 239.871 73.7174L417.948 121.41C428.076 124.102 435.897 132.051 438.589 142.051L486.281 319.999C488.974 330.128 486.153 340.897 478.717 348.205L348.461 478.717C341.025 486.153 330.256 488.974 320.128 486.281Z" stroke="#CACACA" stroke-miterlimit="10"/>
<path d="M317.82 474.359L150.128 429.487C140.641 426.923 133.205 419.487 130.641 410L85.641 242.18C83.0769 232.692 85.7692 222.564 92.8205 215.513L215.641 92.6924C222.564 85.7694 232.692 82.9488 242.308 85.5129L410 130.385C419.487 132.949 426.923 140.385 429.487 149.872L474.359 317.821C476.923 327.308 474.231 337.436 467.179 344.487L344.359 467.308C337.436 474.103 327.308 476.923 317.82 474.359Z" stroke="#CACACA" stroke-miterlimit="10"/>
<path d="M315.513 462.307L158.077 420.128C149.103 417.692 142.18 410.769 139.744 401.794L97.6926 244.487C95.2567 235.512 97.8208 226.025 104.359 219.487L219.616 104.23C226.154 97.6919 235.641 95.1278 244.616 97.5637L402.052 139.743C411.026 142.179 417.949 149.102 420.385 158.076L462.564 315.384C465 324.359 462.436 333.846 455.898 340.384L340.641 455.641C333.975 462.179 324.359 464.743 315.513 462.307Z" stroke="#CACACA" stroke-miterlimit="10"/>
<path d="M313.205 450.384L166.153 411.025C157.82 408.846 151.282 402.307 149.102 393.974L109.615 246.923C107.435 238.589 109.743 229.743 115.897 223.589L223.589 115.897C229.743 109.743 238.589 107.435 246.923 109.615L393.974 148.974C402.307 151.153 408.846 157.692 411.025 166.025L450.384 313.076C452.564 321.41 450.256 330.256 444.102 336.41L336.41 444.102C330.384 450.256 321.538 452.692 313.205 450.384Z" stroke="#CACACA" stroke-miterlimit="10"/>
<path d="M310.898 438.462L174.103 401.795C166.282 399.744 160.256 393.718 158.205 385.898L121.539 249.231C119.487 241.539 121.667 233.205 127.308 227.564L227.436 127.436C233.077 121.795 241.41 119.487 249.103 121.667L385.898 158.205C393.718 160.257 399.744 166.282 401.795 174.103L438.462 310.769C440.513 318.462 438.333 326.795 432.692 332.436L332.564 432.564C326.923 438.333 318.59 440.513 310.898 438.462Z" stroke="#CACACA" stroke-miterlimit="10"/>
<path d="M308.461 426.538L182.051 392.564C174.871 390.641 169.23 385 167.307 377.82L133.461 251.41C131.538 244.231 133.589 236.538 138.846 231.282L231.41 138.718C236.666 133.461 244.359 131.41 251.538 133.333L377.948 167.179C385.128 169.102 390.769 174.743 392.692 181.923L426.538 308.333C428.461 315.513 426.41 323.205 421.153 328.461L328.589 421.025C323.333 426.41 315.641 428.461 308.461 426.538Z" stroke="#CACACA" stroke-miterlimit="10"/>
<path d="M306.154 414.487L190 383.333C183.461 381.539 178.333 376.41 176.538 369.872L145.513 253.846C143.718 247.308 145.641 240.256 150.513 235.385L235.513 150.385C240.384 145.513 247.308 143.718 253.974 145.385L370.128 176.539C376.666 178.333 381.795 183.462 383.59 190L414.743 306.154C416.538 312.692 414.615 319.744 409.743 324.615L324.743 409.615C319.743 414.359 312.82 416.282 306.154 414.487Z" stroke="#CACACA" stroke-miterlimit="10"/>
<path d="M303.846 402.564L198.076 374.23C192.051 372.564 187.435 367.948 185.769 361.922L157.435 256.153C155.769 250.128 157.564 243.717 161.922 239.358L239.358 161.922C243.717 157.564 250.128 155.769 256.153 157.435L361.922 185.769C367.948 187.435 372.564 192.051 374.23 198.076L402.564 303.846C404.23 309.871 402.435 316.281 398.076 320.64L320.64 398.076C316.281 402.435 309.871 404.23 303.846 402.564Z" stroke="#CACACA" stroke-miterlimit="10"/>
<path d="M301.539 390.641L206.026 365.128C200.641 363.718 196.41 359.487 194.872 353.974L169.231 258.461C167.821 253.077 169.359 247.308 173.333 243.333L243.205 173.461C247.18 169.487 252.949 167.949 258.333 169.359L353.846 194.872C359.231 196.282 363.462 200.513 365 206.025L390.641 301.538C392.051 306.923 390.513 312.692 386.539 316.667L316.667 386.538C312.692 390.513 306.923 392.051 301.539 390.641Z" stroke="#CACACA" stroke-miterlimit="10"/>
<path d="M299.231 378.718L214.103 355.898C209.231 354.615 205.513 350.769 204.231 346.026L181.41 260.898C180.128 256.026 181.538 250.898 185 247.436L247.308 185.128C250.897 181.539 256.026 180.257 260.769 181.539L345.897 204.359C350.769 205.641 354.487 209.487 355.769 214.231L378.59 299.359C379.872 304.231 378.462 309.359 375 312.821L312.692 375.128C309.231 378.59 304.103 380 299.231 378.718Z" stroke="#CACACA" stroke-miterlimit="10"/>
<path d="M296.923 366.667L222.051 346.667C217.82 345.513 214.487 342.179 213.333 337.949L193.333 263.077C192.179 258.846 193.461 254.359 196.538 251.154L251.282 196.41C254.359 193.333 258.974 192.051 263.205 193.205L338.077 213.205C342.307 214.359 345.641 217.692 346.794 221.923L366.794 296.795C367.948 301.026 366.666 305.513 363.589 308.718L308.846 363.461C305.641 366.667 301.153 367.82 296.923 366.667Z" stroke="#CACACA" stroke-miterlimit="10"/>
<path d="M294.615 354.743L230.128 337.435C226.41 336.41 223.59 333.589 222.692 329.999L205.384 265.512C204.359 261.794 205.513 257.948 208.077 255.256L255.256 208.076C257.949 205.384 261.795 204.358 265.513 205.384L330 222.692C333.718 223.717 336.538 226.538 337.436 230.128L354.743 294.615C355.769 298.333 354.615 302.179 352.051 304.871L304.872 352.051C302.179 354.615 298.205 355.769 294.615 354.743Z" stroke="#CACACA" stroke-miterlimit="10"/>
<path d="M292.179 342.821L237.948 328.334C234.871 327.564 232.436 325.129 231.666 322.052L217.179 267.821C216.41 264.744 217.179 261.411 219.487 259.231L259.102 219.616C261.41 217.308 264.615 216.539 267.692 217.308L321.923 231.795C325 232.564 327.436 235 328.205 238.077L342.692 292.308C343.461 295.385 342.692 298.718 340.384 300.898L300.769 340.513C298.589 342.693 295.256 343.59 292.179 342.821Z" stroke="#CACACA" stroke-miterlimit="10"/>
<path d="M289.871 330.769L246.025 318.974C243.589 318.333 241.538 316.41 240.897 313.846L229.102 270C228.461 267.564 229.102 264.871 231.025 263.077L263.076 231.025C264.871 229.23 267.563 228.461 269.999 229.102L313.845 240.897C316.281 241.538 318.332 243.461 318.974 246.025L330.768 289.871C331.409 292.307 330.768 295 328.845 296.794L296.794 328.846C294.999 330.769 292.435 331.538 289.871 330.769Z" stroke="#CACACA" stroke-miterlimit="10"/>
<path d="M287.564 318.846L253.974 309.871C252.051 309.358 250.641 307.82 250.128 306.025L241.153 272.435C240.641 270.512 241.153 268.461 242.564 267.051L267.051 242.564C268.461 241.153 270.512 240.641 272.435 241.153L306.025 250.128C307.948 250.641 309.358 252.179 309.871 253.974L318.846 287.564C319.358 289.487 318.846 291.538 317.435 292.948L292.948 317.435C291.538 318.846 289.487 319.358 287.564 318.846Z" stroke="#CACACA" stroke-miterlimit="10"/>
<path d="M285.256 306.922L262.05 300.64C260.768 300.256 259.743 299.23 259.358 297.948L253.076 274.743C252.691 273.461 253.076 272.051 254.102 271.025L271.153 253.974C272.179 252.948 273.461 252.692 274.871 252.948L298.076 259.23C299.358 259.615 300.384 260.64 300.768 261.922L307.05 285.127C307.435 286.409 307.05 287.82 306.025 288.845L288.973 305.897C287.948 306.922 286.538 307.307 285.256 306.922Z" stroke="#CACACA" stroke-miterlimit="10"/>
</svg>
