<?xml version="1.0" encoding="utf-8"?>
<!-- Generator: Moho 13.0.2 build 610 -->
<!DOCTYPE svg PUBLIC "-//W3C//DTD SVG 1.1//EN" "http://www.w3.org/Graphics/SVG/1.1/DTD/svg11.dtd">
<svg version="1.1" id="Frame_0" xmlns="http://www.w3.org/2000/svg" xmlns:xlink="http://www.w3.org/1999/xlink" width="500px" height="400px">
<g id="background">
<path fill="#f1f7fb" fill-rule="evenodd" stroke="none" d="M 483.070 92.803 C 471.923 65.284 450.619 41.656 424.606 29.194 C 359.036 -2.231 315.493 59.395 262.815 87.045 C 238.462 99.828 212.364 99.726 186.507 92.263 C 159.800 84.553 136.212 68.476 108.469 63.432 C 82.202 58.666 52.530 63.389 35.353 85.879 C 18.432 108.020 10.603 136.413 8.490 164.180 C 5.681 200.940 17.000 236.490 40.261 264.549 C 68.287 298.365 106.653 320.549 145.928 337.748 C 209.626 365.631 278.927 378.050 337.547 330.212 C 354.894 316.060 368.922 298.320 383.942 281.719 C 399.246 264.796 416.125 252.465 434.024 238.881 C 466.703 214.088 492.191 176.336 491.510 133.250 C 491.297 119.418 488.290 105.688 483.070 92.803 Z"/>
</g>
</svg>
