<?xml version="1.0" encoding="utf-8"?>
<!-- Generator: Moho 13.0.2 build 610 -->
<!DOCTYPE svg PUBLIC "-//W3C//DTD SVG 1.1//EN" "http://www.w3.org/Graphics/SVG/1.1/DTD/svg11.dtd">
<svg version="1.1" id="Frame_0" xmlns="http://www.w3.org/2000/svg" xmlns:xlink="http://www.w3.org/1999/xlink" width="500px" height="400px">
<g id="page">
<path fill="#eaeced" fill-rule="evenodd" stroke="none" d="M 103.459 17.903 C 103.459 13.114 107.342 9.231 112.131 9.231 C 202.381 9.231 292.633 9.231 382.888 9.231 C 387.678 9.231 391.560 13.114 391.560 17.903 C 391.556 22.329 391.556 26.755 391.560 31.182 C 295.523 31.181 199.491 31.181 103.459 31.182 C 103.458 26.755 103.458 22.329 103.459 17.903 Z"/>
<path fill="#ffffff" fill-rule="evenodd" stroke="none" d="M 159.250 15.158 C 218.258 15.158 277.267 15.158 336.279 15.158 C 336.276 18.846 336.276 22.534 336.279 26.223 C 277.267 26.222 218.258 26.222 159.250 26.223 C 159.249 22.534 159.249 18.846 159.250 15.158 Z"/>
<path fill="#ed696e" fill-rule="evenodd" stroke="none" d="M 116.202 22.568 C 117.480 22.568 118.474 21.574 118.474 20.295 C 118.474 19.017 117.480 18.023 116.202 18.023 C 114.924 18.023 113.930 19.017 113.930 20.295 C 113.930 21.574 114.924 22.568 116.202 22.568 Z"/>
<path fill="#f0e56c" fill-rule="evenodd" stroke="none" d="M 124.105 22.568 C 125.384 22.568 126.378 21.574 126.378 20.295 C 126.378 19.017 125.383 18.023 124.105 18.023 C 122.827 18.023 121.833 19.017 121.833 20.295 C 121.833 21.573 122.827 22.568 124.105 22.568 Z"/>
<path fill="#b5edad" fill-rule="evenodd" stroke="none" d="M 132.009 22.568 C 133.287 22.568 134.281 21.573 134.281 20.295 C 134.281 19.017 133.287 18.023 132.009 18.023 C 130.731 18.023 129.737 19.017 129.737 20.295 C 129.737 21.574 130.731 22.568 132.009 22.568 Z"/>
<path fill="#ffffff" fill-rule="evenodd" stroke="none" d="M 103.459 31.182 C 199.491 31.181 295.523 31.181 391.560 31.182 C 391.556 122.641 391.556 214.101 391.560 305.564 C 295.523 305.560 199.491 305.560 103.459 305.564 C 103.458 214.101 103.458 122.641 103.459 31.182 Z"/>
<path fill="#000000" fill-rule="evenodd" stroke="none" d="M 278.542 192.166 C 280.630 192.163 282.720 192.163 284.814 192.166 C 284.799 191.307 284.489 190.623 283.884 190.115 C 283.280 189.590 282.541 189.328 281.666 189.328 C 280.840 189.328 280.140 189.582 279.568 190.091 C 279.011 190.584 278.670 191.276 278.542 192.166 M 287.437 189.709 C 287.994 190.695 288.272 191.832 288.272 193.119 C 288.272 193.596 288.240 194.026 288.176 194.407 C 284.954 194.405 281.735 194.405 278.518 194.407 C 278.598 195.361 278.932 196.108 279.520 196.649 C 280.108 197.190 280.831 197.460 281.690 197.460 C 282.930 197.460 283.812 196.928 284.337 195.862 C 285.534 195.860 286.735 195.860 287.938 195.862 C 287.556 197.133 286.826 198.183 285.744 199.010 C 284.663 199.821 283.335 200.226 281.762 200.226 C 280.490 200.226 279.345 199.948 278.327 199.391 C 277.326 198.819 276.539 198.016 275.967 196.983 C 275.410 195.950 275.132 194.757 275.132 193.406 C 275.132 192.039 275.410 190.838 275.967 189.805 C 276.524 188.772 277.302 187.976 278.304 187.420 C 279.305 186.864 280.459 186.585 281.762 186.585 C 283.018 186.585 284.139 186.855 285.124 187.396 C 286.126 187.937 286.897 188.708 287.437 189.709 M 264.739 187.301 C 265.565 186.840 266.456 186.609 267.410 186.609 C 269.031 186.609 270.334 187.110 271.321 188.111 C 272.322 189.097 272.823 190.480 272.823 192.261 C 272.820 194.842 272.820 197.426 272.823 200.011 C 271.707 200.009 270.594 200.009 269.484 200.011 C 269.482 197.577 269.482 195.144 269.484 192.714 C 269.484 191.681 269.222 190.894 268.697 190.353 C 268.173 189.797 267.457 189.518 266.551 189.518 C 265.645 189.518 264.921 189.797 264.381 190.353 C 263.856 190.894 263.594 191.681 263.594 192.714 C 263.591 195.144 263.591 197.577 263.594 200.011 C 262.478 200.009 261.366 200.009 260.255 200.011 C 260.253 197.577 260.253 195.144 260.255 192.714 C 260.255 191.681 259.993 190.894 259.468 190.353 C 258.944 189.797 258.228 189.518 257.322 189.518 C 256.400 189.518 255.668 189.797 255.128 190.353 C 254.604 190.894 254.341 191.681 254.341 192.714 C 254.339 195.144 254.339 197.577 254.341 200.011 C 253.226 200.009 252.113 200.009 251.003 200.011 C 251.000 195.605 251.000 191.201 251.003 186.800 C 252.113 186.798 253.226 186.798 254.341 186.800 C 254.339 187.330 254.339 187.863 254.341 188.398 C 254.770 187.842 255.319 187.404 255.987 187.086 C 256.670 186.768 257.418 186.609 258.228 186.609 C 259.261 186.609 260.184 186.831 260.995 187.277 C 261.805 187.706 262.433 188.326 262.879 189.137 C 263.308 188.374 263.928 187.761 264.739 187.301 M 238.836 192.166 C 240.924 192.163 243.015 192.163 245.108 192.166 C 245.092 191.307 244.782 190.623 244.178 190.115 C 243.573 189.590 242.834 189.328 241.960 189.328 C 241.133 189.328 240.434 189.582 239.861 190.091 C 239.304 190.584 238.963 191.276 238.836 192.166 M 247.731 189.709 C 248.287 190.695 248.566 191.832 248.566 193.119 C 248.566 193.596 248.533 194.026 248.470 194.407 C 245.248 194.405 242.029 194.405 238.812 194.407 C 238.891 195.361 239.225 196.108 239.814 196.649 C 240.401 197.190 241.125 197.460 241.984 197.460 C 243.224 197.460 244.106 196.928 244.631 195.862 C 245.829 195.860 247.029 195.860 248.232 195.862 C 247.850 197.133 247.119 198.183 246.038 199.010 C 244.956 199.821 243.629 200.226 242.055 200.226 C 240.783 200.226 239.638 199.947 238.621 199.391 C 237.620 198.819 236.833 198.016 236.260 196.983 C 235.703 195.950 235.426 194.757 235.426 193.406 C 235.426 192.039 235.703 190.838 236.260 189.805 C 236.816 188.772 237.596 187.976 238.597 187.420 C 239.599 186.864 240.751 186.585 242.055 186.585 C 243.311 186.585 244.431 186.855 245.418 187.396 C 246.419 187.937 247.190 188.708 247.731 189.709 M 225.573 187.110 C 226.289 186.776 227.083 186.609 227.958 186.609 C 228.960 186.609 229.850 186.831 230.629 187.277 C 231.407 187.706 232.012 188.350 232.442 189.208 C 232.886 190.051 233.109 191.069 233.109 192.261 C 233.107 194.842 233.107 197.426 233.109 200.011 C 231.994 200.009 230.881 200.009 229.771 200.011 C 229.768 197.577 229.768 195.144 229.771 192.714 C 229.771 191.665 229.508 190.861 228.984 190.305 C 228.459 189.733 227.744 189.447 226.837 189.447 C 225.915 189.447 225.183 189.733 224.643 190.305 C 224.119 190.861 223.856 191.665 223.856 192.714 C 223.854 195.144 223.854 197.577 223.856 200.011 C 222.741 200.009 221.628 200.009 220.518 200.011 C 220.516 194.127 220.516 188.244 220.518 182.364 C 221.628 182.362 222.741 182.362 223.856 182.364 C 223.854 184.389 223.854 186.416 223.856 188.445 C 224.286 187.873 224.858 187.427 225.573 187.110 M 205.871 183.366 C 209.939 183.364 214.009 183.364 218.081 183.366 C 218.079 184.262 218.079 185.160 218.081 186.061 C 216.600 186.058 215.122 186.058 213.645 186.061 C 213.643 190.709 213.643 195.359 213.645 200.011 C 212.530 200.009 211.417 200.009 210.307 200.011 C 210.305 195.359 210.305 190.709 210.307 186.061 C 208.826 186.058 207.347 186.058 205.871 186.061 C 205.869 185.160 205.869 184.262 205.871 183.366 M 315.003 155.364 C 316.184 155.363 317.368 155.363 318.556 155.364 C 315.826 161.849 313.100 168.335 310.376 174.824 C 309.189 174.822 308.004 174.822 306.823 174.824 C 307.774 172.628 308.728 170.434 309.685 168.242 C 307.917 163.948 306.152 159.655 304.391 155.364 C 305.635 155.363 306.883 155.363 308.135 155.364 C 309.268 158.439 310.405 161.515 311.545 164.593 C 312.694 161.515 313.847 158.439 315.003 155.364 M 303.753 155.364 C 303.750 156.277 303.750 157.191 303.753 158.107 C 302.979 158.105 302.208 158.105 301.440 158.107 C 301.437 161.595 301.437 165.084 301.440 168.576 C 300.308 168.574 299.179 168.574 298.054 168.576 C 298.051 165.084 298.051 161.595 298.054 158.107 C 297.550 158.105 297.049 158.105 296.551 158.107 C 296.548 157.191 296.548 156.277 296.551 155.364 C 297.049 155.363 297.550 155.363 298.054 155.364 C 298.051 155.140 298.051 154.917 298.054 154.697 C 298.054 153.075 298.514 151.883 299.437 151.120 C 300.359 150.356 301.750 149.999 303.610 150.046 C 303.607 150.983 303.607 151.921 303.610 152.860 C 302.799 152.844 302.235 152.980 301.917 153.266 C 301.599 153.552 301.440 154.069 301.440 154.816 C 301.437 154.997 301.437 155.180 301.440 155.364 C 302.208 155.363 302.979 155.363 303.753 155.364 M 291.059 155.364 C 292.169 155.363 293.282 155.363 294.397 155.364 C 294.394 159.766 294.394 164.170 294.397 168.576 C 293.282 168.574 292.169 168.574 291.059 168.576 C 291.056 164.170 291.056 159.766 291.059 155.364 M 294.207 153.242 C 293.825 153.607 293.341 153.791 292.752 153.791 C 292.163 153.791 291.671 153.607 291.273 153.242 C 290.892 152.860 290.701 152.391 290.701 151.835 C 290.701 151.279 290.892 150.817 291.273 150.452 C 291.671 150.070 292.163 149.880 292.752 149.880 C 293.341 149.880 293.825 150.070 294.207 150.452 C 294.604 150.817 294.803 151.279 294.803 151.835 C 294.803 152.391 294.604 152.860 294.207 153.242 M 284.722 164.021 C 285.056 163.433 285.223 162.733 285.223 161.923 C 285.223 161.128 285.056 160.444 284.722 159.872 C 284.403 159.283 283.974 158.839 283.434 158.536 C 282.909 158.234 282.337 158.083 281.717 158.083 C 281.112 158.083 280.540 158.242 280.000 158.560 C 279.475 158.862 279.046 159.307 278.712 159.896 C 278.394 160.484 278.235 161.176 278.235 161.970 C 278.235 162.765 278.393 163.456 278.712 164.045 C 279.046 164.634 279.475 165.087 280.000 165.404 C 280.540 165.707 281.112 165.857 281.717 165.857 C 282.337 165.857 282.909 165.698 283.434 165.380 C 283.974 165.063 284.403 164.610 284.722 164.021 M 278.235 155.364 C 278.232 155.998 278.232 156.634 278.235 157.272 C 278.664 156.668 279.252 156.168 280.000 155.770 C 280.763 155.357 281.629 155.150 282.599 155.150 C 283.728 155.150 284.746 155.429 285.652 155.985 C 286.573 156.541 287.297 157.336 287.822 158.369 C 288.362 159.387 288.633 160.571 288.633 161.923 C 288.633 163.274 288.362 164.474 287.822 165.524 C 287.297 166.557 286.573 167.360 285.652 167.932 C 284.746 168.504 283.728 168.791 282.599 168.791 C 281.629 168.791 280.771 168.592 280.024 168.194 C 279.292 167.797 278.696 167.296 278.235 166.692 C 278.232 169.417 278.232 172.143 278.235 174.872 C 277.120 174.870 276.007 174.870 274.897 174.872 C 274.894 168.367 274.894 161.865 274.897 155.364 C 276.007 155.363 277.120 155.363 278.235 155.364 M 263.170 164.880 C 263.806 165.547 264.601 165.881 265.555 165.881 C 266.160 165.881 266.724 165.738 267.248 165.452 C 267.789 165.150 268.218 164.705 268.536 164.117 C 268.855 163.528 269.013 162.813 269.013 161.970 C 269.013 160.714 268.679 159.752 268.011 159.085 C 267.360 158.401 266.556 158.059 265.603 158.059 C 264.649 158.059 263.847 158.401 263.194 159.085 C 262.559 159.752 262.240 160.714 262.240 161.970 C 262.240 163.227 262.550 164.196 263.170 164.880 M 269.037 167.956 C 268.004 168.512 266.843 168.791 265.555 168.791 C 264.283 168.791 263.139 168.512 262.121 167.956 C 261.104 167.384 260.301 166.580 259.712 165.547 C 259.140 164.514 258.854 163.322 258.854 161.970 C 258.854 160.618 259.149 159.426 259.736 158.393 C 260.341 157.360 261.159 156.565 262.192 156.008 C 263.227 155.436 264.379 155.150 265.650 155.150 C 266.923 155.150 268.075 155.436 269.108 156.008 C 270.142 156.565 270.953 157.360 271.541 158.393 C 272.145 159.426 272.447 160.619 272.447 161.970 C 272.447 163.322 272.137 164.514 271.517 165.547 C 270.913 166.580 270.086 167.384 269.037 167.956 M 248.978 155.675 C 249.693 155.341 250.489 155.174 251.362 155.174 C 252.364 155.174 253.255 155.396 254.033 155.841 C 254.813 156.271 255.417 156.915 255.846 157.773 C 256.291 158.615 256.513 159.633 256.513 160.826 C 256.511 163.407 256.511 165.991 256.513 168.576 C 255.398 168.574 254.285 168.574 253.175 168.576 C 253.172 166.142 253.172 163.709 253.175 161.279 C 253.175 160.229 252.912 159.426 252.388 158.870 C 251.863 158.298 251.148 158.012 250.242 158.012 C 249.320 158.012 248.589 158.298 248.048 158.870 C 247.523 159.426 247.261 160.229 247.261 161.279 C 247.258 163.709 247.258 166.142 247.261 168.576 C 246.145 168.574 245.032 168.574 243.922 168.576 C 243.919 162.692 243.919 156.809 243.922 150.929 C 245.032 150.927 246.145 150.927 247.261 150.929 C 247.258 152.954 247.258 154.981 247.261 157.010 C 247.690 156.438 248.262 155.992 248.978 155.675 M 238.309 168.075 C 237.419 168.521 236.362 168.743 235.137 168.743 C 233.978 168.743 232.928 168.545 231.990 168.147 C 231.068 167.749 230.337 167.177 229.796 166.430 C 229.256 165.683 228.977 164.801 228.961 163.783 C 230.151 163.781 231.343 163.781 232.538 163.783 C 232.586 164.467 232.824 165.006 233.253 165.404 C 233.699 165.802 234.303 166.000 235.066 166.000 C 235.845 166.000 236.458 165.817 236.902 165.452 C 237.348 165.070 237.570 164.577 237.570 163.973 C 237.570 163.480 237.419 163.075 237.117 162.757 C 236.815 162.440 236.434 162.193 235.972 162.018 C 235.528 161.827 234.908 161.620 234.112 161.398 C 233.031 161.080 232.149 160.770 231.465 160.468 C 230.797 160.150 230.217 159.681 229.724 159.061 C 229.247 158.424 229.009 157.582 229.009 156.533 C 229.009 155.548 229.256 154.689 229.748 153.957 C 230.241 153.226 230.933 152.670 231.823 152.288 C 232.714 151.890 233.730 151.692 234.875 151.692 C 236.592 151.692 237.984 152.114 239.048 152.956 C 240.130 153.783 240.726 154.943 240.837 156.438 C 239.610 156.436 238.386 156.436 237.164 156.438 C 237.133 155.865 236.887 155.396 236.425 155.031 C 235.981 154.649 235.385 154.458 234.637 154.458 C 233.985 154.458 233.460 154.625 233.063 154.959 C 232.681 155.293 232.490 155.777 232.490 156.414 C 232.490 156.859 232.633 157.232 232.920 157.535 C 233.222 157.821 233.587 158.059 234.017 158.250 C 234.462 158.424 235.082 158.632 235.877 158.870 C 236.958 159.188 237.841 159.506 238.524 159.824 C 239.208 160.142 239.796 160.619 240.288 161.255 C 240.782 161.891 241.028 162.726 241.028 163.759 C 241.028 164.649 240.798 165.476 240.336 166.239 C 239.876 167.002 239.200 167.615 238.309 168.075 M 221.307 158.107 C 220.319 158.105 219.333 158.105 218.350 158.107 C 218.348 160.235 218.348 162.366 218.350 164.498 C 218.350 164.944 218.453 165.269 218.660 165.476 C 218.882 165.667 219.247 165.762 219.757 165.762 C 220.271 165.760 220.788 165.760 221.307 165.762 C 221.305 166.698 221.305 167.636 221.307 168.576 C 220.605 168.574 219.906 168.574 219.208 168.576 C 216.394 168.576 214.987 167.209 214.987 164.474 C 214.985 162.350 214.985 160.227 214.987 158.107 C 214.461 158.105 213.936 158.105 213.413 158.107 C 213.411 157.191 213.411 156.277 213.413 155.364 C 213.936 155.363 214.461 155.363 214.987 155.364 C 214.985 154.274 214.985 153.185 214.987 152.097 C 216.106 152.096 217.227 152.096 218.350 152.097 C 218.348 153.185 218.348 154.274 218.350 155.364 C 219.333 155.363 220.319 155.363 221.307 155.364 C 221.305 156.277 221.305 157.191 221.307 158.107 M 209.265 168.290 C 208.487 168.624 207.572 168.791 206.523 168.791 C 205.442 168.791 204.472 168.600 203.613 168.218 C 202.755 167.820 202.072 167.288 201.562 166.621 C 201.070 165.953 200.799 165.213 200.751 164.403 C 201.870 164.401 202.991 164.401 204.114 164.403 C 204.178 164.911 204.424 165.333 204.853 165.667 C 205.299 166.000 205.847 166.167 206.499 166.167 C 207.135 166.167 207.628 166.041 207.977 165.786 C 208.344 165.531 208.526 165.206 208.526 164.808 C 208.526 164.379 208.304 164.061 207.858 163.854 C 207.429 163.632 206.737 163.394 205.783 163.139 C 204.798 162.900 203.987 162.654 203.351 162.400 C 202.731 162.145 202.191 161.756 201.729 161.231 C 201.285 160.706 201.061 159.999 201.061 159.109 C 201.061 158.377 201.268 157.709 201.681 157.105 C 202.111 156.502 202.716 156.025 203.494 155.675 C 204.290 155.324 205.220 155.150 206.284 155.150 C 207.858 155.150 209.114 155.548 210.052 156.342 C 210.991 157.122 211.507 158.179 211.602 159.514 C 210.535 159.512 209.469 159.512 208.406 159.514 C 208.359 158.989 208.137 158.576 207.739 158.274 C 207.357 157.956 206.841 157.797 206.189 157.797 C 205.585 157.797 205.115 157.909 204.782 158.131 C 204.464 158.353 204.305 158.663 204.305 159.061 C 204.305 159.506 204.528 159.848 204.972 160.086 C 205.418 160.308 206.110 160.539 207.047 160.778 C 208.001 161.016 208.788 161.262 209.408 161.517 C 210.028 161.772 210.561 162.169 211.006 162.710 C 211.468 163.234 211.706 163.933 211.721 164.808 C 211.721 165.571 211.507 166.255 211.077 166.859 C 210.664 167.463 210.061 167.940 209.265 168.290 M 189.300 160.730 C 191.389 160.728 193.480 160.728 195.572 160.730 C 195.557 159.872 195.247 159.188 194.642 158.679 C 194.038 158.155 193.299 157.892 192.424 157.892 C 191.598 157.892 190.898 158.147 190.326 158.655 C 189.770 159.149 189.428 159.840 189.300 160.730 M 198.195 158.274 C 198.753 159.259 199.030 160.396 199.030 161.684 C 199.030 162.161 198.999 162.590 198.935 162.972 C 195.713 162.970 192.494 162.970 189.276 162.972 C 189.357 163.926 189.690 164.673 190.278 165.214 C 190.867 165.755 191.590 166.024 192.448 166.024 C 193.688 166.024 194.571 165.492 195.095 164.427 C 196.294 164.425 197.494 164.425 198.696 164.427 C 198.315 165.698 197.584 166.747 196.502 167.574 C 195.421 168.385 194.094 168.791 192.520 168.791 C 191.248 168.791 190.103 168.512 189.086 167.956 C 188.084 167.384 187.297 166.580 186.725 165.547 C 186.169 164.514 185.890 163.322 185.890 161.970 C 185.890 160.603 186.169 159.402 186.725 158.369 C 187.282 157.336 188.060 156.541 189.062 155.985 C 190.063 155.429 191.217 155.150 192.520 155.150 C 193.776 155.150 194.897 155.420 195.882 155.961 C 196.884 156.501 197.656 157.272 198.195 158.274 M 174.764 165.857 C 175.883 165.855 177.004 165.855 178.127 165.857 C 178.937 165.857 179.565 165.667 180.011 165.285 C 180.471 164.903 180.702 164.363 180.702 163.663 C 180.702 162.948 180.464 162.392 179.987 161.994 C 179.510 161.581 178.866 161.374 178.055 161.374 C 176.956 161.372 175.859 161.372 174.764 161.374 C 174.762 162.866 174.762 164.361 174.764 165.857 M 174.764 154.625 C 174.762 156.014 174.762 157.406 174.764 158.799 C 175.780 158.797 176.797 158.797 177.817 158.799 C 178.611 158.799 179.224 158.624 179.653 158.274 C 180.082 157.909 180.297 157.392 180.297 156.724 C 180.297 156.056 180.082 155.539 179.653 155.174 C 179.224 154.809 178.611 154.625 177.817 154.625 C 176.797 154.623 175.780 154.623 174.764 154.625 M 182.920 158.655 C 182.411 159.307 181.728 159.769 180.869 160.039 C 181.807 160.213 182.578 160.682 183.182 161.446 C 183.786 162.209 184.089 163.083 184.089 164.069 C 184.089 164.959 183.865 165.746 183.421 166.430 C 182.992 167.097 182.363 167.622 181.537 168.004 C 180.710 168.385 179.732 168.576 178.604 168.576 C 176.209 168.574 173.816 168.574 171.425 168.576 C 171.424 163.025 171.424 157.477 171.425 151.930 C 173.713 151.929 176.002 151.928 178.294 151.930 C 179.422 151.930 180.392 152.114 181.203 152.479 C 182.029 152.844 182.649 153.354 183.063 154.005 C 183.492 154.657 183.707 155.396 183.707 156.223 C 183.707 157.193 183.445 158.004 182.920 158.655 Z"/>
<path fill="#6c757d" fill-rule="evenodd" stroke="none" d="M 323.172 281.984 C 322.443 282.348 321.578 282.530 320.577 282.530 C 319.627 282.530 318.768 282.368 318.001 282.043 C 317.247 281.717 316.648 281.249 316.206 280.638 C 315.764 280.026 315.536 279.304 315.523 278.472 C 316.495 278.469 317.471 278.469 318.450 278.472 C 318.489 279.031 318.684 279.474 319.035 279.799 C 319.399 280.124 319.894 280.287 320.518 280.287 C 321.155 280.287 321.656 280.137 322.020 279.838 C 322.385 279.526 322.567 279.122 322.567 278.628 C 322.567 278.225 322.443 277.893 322.196 277.633 C 321.949 277.373 321.637 277.171 321.259 277.028 C 320.895 276.872 320.388 276.703 319.738 276.521 C 318.853 276.261 318.131 276.007 317.572 275.760 C 317.025 275.500 316.551 275.116 316.147 274.609 C 315.757 274.088 315.562 273.399 315.562 272.540 C 315.562 271.734 315.764 271.032 316.167 270.433 C 316.570 269.835 317.136 269.380 317.864 269.067 C 318.593 268.742 319.425 268.580 320.362 268.580 C 321.767 268.580 322.905 268.924 323.776 269.614 C 324.661 270.290 325.149 271.240 325.240 272.462 C 324.235 272.459 323.233 272.459 322.235 272.462 C 322.209 271.994 322.007 271.610 321.630 271.311 C 321.266 270.999 320.778 270.843 320.167 270.843 C 319.634 270.843 319.204 270.979 318.879 271.253 C 318.567 271.526 318.411 271.922 318.411 272.443 C 318.411 272.807 318.528 273.113 318.762 273.360 C 319.009 273.594 319.308 273.789 319.660 273.945 C 320.024 274.088 320.531 274.257 321.181 274.453 C 322.066 274.713 322.788 274.973 323.347 275.233 C 323.906 275.493 324.388 275.883 324.791 276.404 C 325.194 276.924 325.396 277.607 325.396 278.452 C 325.396 279.181 325.207 279.857 324.830 280.482 C 324.453 281.106 323.900 281.607 323.172 281.984 M 311.144 268.775 C 312.123 268.772 313.105 268.772 314.090 268.775 C 312.819 273.311 311.550 277.851 310.285 282.394 C 309.209 282.391 308.136 282.391 307.066 282.394 C 306.211 279.158 305.359 275.926 304.510 272.696 C 303.616 275.926 302.725 279.158 301.837 282.394 C 300.767 282.397 299.700 282.404 298.637 282.413 C 297.411 277.864 296.188 273.318 294.969 268.775 C 295.941 268.772 296.917 268.772 297.895 268.775 C 298.692 272.297 299.492 275.822 300.295 279.350 C 301.216 275.822 302.139 272.297 303.066 268.775 C 304.077 268.772 305.092 268.772 306.110 268.775 C 306.978 272.277 307.850 275.783 308.724 279.291 C 309.528 275.783 310.334 272.277 311.144 268.775 M 293.403 270.979 C 291.677 270.976 289.953 270.976 288.233 270.979 C 288.230 272.115 288.230 273.253 288.233 274.394 C 289.758 274.391 291.287 274.391 292.818 274.394 C 292.815 275.113 292.815 275.835 292.818 276.560 C 291.287 276.557 289.758 276.557 288.233 276.560 C 288.230 277.760 288.230 278.963 288.233 280.169 C 289.953 280.166 291.677 280.166 293.403 280.169 C 293.400 280.908 293.400 281.649 293.403 282.394 C 290.766 282.391 288.132 282.391 285.501 282.394 C 285.498 277.844 285.498 273.298 285.501 268.755 C 288.132 268.752 290.766 268.752 293.403 268.755 C 293.400 269.494 293.400 270.235 293.403 270.979 M 280.072 268.775 C 280.979 268.772 281.890 268.772 282.803 268.775 C 282.800 273.311 282.800 277.851 282.803 282.394 C 281.890 282.391 280.979 282.391 280.072 282.394 C 280.069 277.851 280.069 273.311 280.072 268.775 M 275.526 268.775 C 276.493 268.772 277.462 268.772 278.434 268.775 C 276.766 273.311 275.101 277.851 273.439 282.394 C 272.330 282.391 271.225 282.391 270.122 282.394 C 268.454 277.851 266.789 273.311 265.127 268.775 C 266.100 268.772 267.075 268.772 268.053 268.775 C 269.299 272.381 270.548 275.991 271.800 279.604 C 273.039 275.991 274.281 272.381 275.526 268.775 M 263.718 270.979 C 261.991 270.976 260.268 270.976 258.547 270.979 C 258.544 272.115 258.544 273.253 258.547 274.394 C 260.073 274.391 261.601 274.391 263.132 274.394 C 263.130 275.113 263.130 275.835 263.132 276.560 C 261.601 276.557 260.073 276.557 258.547 276.560 C 258.544 277.760 258.544 278.963 258.547 280.169 C 260.268 280.166 261.991 280.166 263.718 280.169 C 263.715 280.908 263.715 281.649 263.718 282.394 C 261.081 282.391 258.447 282.391 255.815 282.394 C 255.813 277.844 255.813 273.298 255.815 268.755 C 258.447 268.752 261.081 268.752 263.718 268.755 C 263.715 269.494 263.715 270.235 263.718 270.979 M 246.047 271.038 C 246.044 272.368 246.044 273.701 246.047 275.038 C 246.805 275.035 247.566 275.035 248.329 275.038 C 249.071 275.038 249.624 274.862 249.988 274.511 C 250.352 274.147 250.534 273.646 250.534 273.009 C 250.534 272.384 250.352 271.903 249.988 271.565 C 249.624 271.214 249.071 271.038 248.329 271.038 C 247.566 271.035 246.805 271.035 246.047 271.038 M 253.500 282.394 C 252.444 282.391 251.390 282.391 250.339 282.394 C 249.335 280.622 248.333 278.853 247.334 277.087 C 246.903 277.083 246.473 277.083 246.047 277.087 C 246.044 278.853 246.044 280.622 246.047 282.394 C 245.134 282.391 244.223 282.391 243.315 282.394 C 243.313 277.851 243.313 273.311 243.315 268.775 C 245.016 268.772 246.720 268.771 248.427 268.775 C 249.481 268.775 250.378 268.963 251.120 269.341 C 251.861 269.705 252.414 270.206 252.778 270.843 C 253.155 271.467 253.344 272.170 253.344 272.950 C 253.344 273.848 253.084 274.661 252.563 275.389 C 252.043 276.104 251.269 276.599 250.242 276.872 C 251.325 278.709 252.411 280.550 253.500 282.394 M 235.723 274.257 C 235.720 275.048 235.720 275.841 235.723 276.638 C 234.491 276.635 233.262 276.635 232.035 276.638 C 232.033 277.896 232.033 279.158 232.035 280.423 C 231.174 280.420 230.316 280.420 229.460 280.423 C 229.457 279.158 229.457 277.896 229.460 276.638 C 228.228 276.635 226.999 276.635 225.772 276.638 C 225.769 275.841 225.769 275.048 225.772 274.257 C 226.999 274.254 228.228 274.254 229.460 274.257 C 229.457 272.993 229.457 271.731 229.460 270.472 C 230.316 270.469 231.174 270.469 232.035 270.472 C 232.033 271.731 232.033 272.993 232.035 274.257 C 233.262 274.254 234.491 274.254 235.723 274.257 M 220.261 277.594 C 220.378 276.917 220.436 276.085 220.436 275.096 C 220.436 274.134 220.371 273.327 220.241 272.677 C 220.124 272.014 219.877 271.474 219.500 271.057 C 219.136 270.641 218.589 270.433 217.861 270.433 C 217.133 270.433 216.580 270.641 216.202 271.057 C 215.838 271.474 215.591 272.014 215.461 272.677 C 215.344 273.327 215.285 274.134 215.285 275.096 C 215.285 276.085 215.344 276.917 215.461 277.594 C 215.578 278.257 215.825 278.797 216.202 279.213 C 216.580 279.617 217.133 279.818 217.861 279.818 C 218.589 279.818 219.142 279.617 219.519 279.213 C 219.897 278.797 220.144 278.257 220.261 277.594 M 213.803 280.423 C 212.996 279.135 212.593 277.360 212.593 275.096 C 212.593 272.846 212.996 271.084 213.803 269.809 C 214.622 268.534 215.975 267.897 217.861 267.897 C 219.747 267.897 221.093 268.534 221.900 269.809 C 222.719 271.084 223.129 272.846 223.129 275.096 C 223.129 277.360 222.719 279.135 221.900 280.423 C 221.093 281.711 219.747 282.355 217.861 282.355 C 215.975 282.355 214.622 281.711 213.803 280.423 M 207.647 277.594 C 207.764 276.917 207.822 276.085 207.822 275.096 C 207.822 274.134 207.757 273.327 207.627 272.677 C 207.510 272.014 207.263 271.474 206.886 271.057 C 206.521 270.641 205.975 270.433 205.247 270.433 C 204.518 270.433 203.965 270.641 203.588 271.057 C 203.224 271.474 202.977 272.014 202.847 272.677 C 202.730 273.327 202.671 274.134 202.671 275.096 C 202.671 276.085 202.730 276.917 202.847 277.594 C 202.964 278.257 203.211 278.797 203.588 279.213 C 203.965 279.617 204.518 279.818 205.247 279.818 C 205.975 279.818 206.528 279.617 206.905 279.213 C 207.282 278.797 207.530 278.257 207.647 277.594 M 201.188 280.423 C 200.382 279.135 199.979 277.360 199.979 275.096 C 199.979 272.846 200.382 271.084 201.188 269.809 C 202.008 268.534 203.360 267.897 205.247 267.897 C 207.133 267.897 208.479 268.534 209.286 269.809 C 210.105 271.084 210.515 272.846 210.515 275.096 C 210.515 277.360 210.105 279.135 209.286 280.423 C 208.479 281.711 207.133 282.355 205.247 282.355 C 203.360 282.355 202.008 281.711 201.188 280.423 M 195.032 277.594 C 195.149 276.917 195.208 276.085 195.208 275.096 C 195.208 274.134 195.143 273.327 195.013 272.677 C 194.896 272.014 194.649 271.474 194.271 271.057 C 193.907 270.641 193.361 270.433 192.632 270.433 C 191.904 270.433 191.351 270.641 190.974 271.057 C 190.610 271.474 190.363 272.014 190.232 272.677 C 190.115 273.327 190.057 274.134 190.057 275.096 C 190.057 276.085 190.115 276.917 190.232 277.594 C 190.349 278.257 190.597 278.797 190.974 279.213 C 191.351 279.617 191.904 279.818 192.632 279.818 C 193.361 279.818 193.914 279.617 194.291 279.213 C 194.668 278.797 194.915 278.257 195.032 277.594 M 188.574 280.423 C 187.768 279.135 187.364 277.360 187.364 275.096 C 187.364 272.846 187.768 271.084 188.574 269.809 C 189.393 268.534 190.746 267.897 192.632 267.897 C 194.519 267.897 195.865 268.534 196.671 269.809 C 197.491 271.084 197.901 272.846 197.901 275.096 C 197.901 277.360 197.491 279.135 196.671 280.423 C 195.865 281.711 194.519 282.355 192.632 282.355 C 190.746 282.355 189.393 281.711 188.574 280.423 M 182.937 279.526 C 183.859 279.522 184.783 279.522 185.708 279.526 C 184.945 281.350 184.184 283.178 183.425 285.008 C 182.838 285.005 182.253 285.005 181.669 285.008 C 182.090 283.178 182.513 281.350 182.937 279.526 M 176.896 276.638 C 176.441 276.247 175.843 276.052 175.101 276.052 C 174.360 276.052 173.755 276.241 173.287 276.618 C 172.831 276.996 172.604 277.535 172.604 278.238 C 172.604 278.888 172.825 279.422 173.267 279.838 C 173.722 280.241 174.334 280.443 175.101 280.443 C 175.869 280.443 176.474 280.234 176.916 279.818 C 177.358 279.402 177.579 278.875 177.579 278.238 C 177.579 277.548 177.352 277.015 176.896 276.638 M 176.643 273.535 C 177.046 273.171 177.248 272.697 177.248 272.111 C 177.248 271.474 177.052 270.979 176.662 270.628 C 176.285 270.277 175.765 270.101 175.101 270.101 C 174.451 270.101 173.931 270.277 173.540 270.628 C 173.163 270.979 172.974 271.480 172.974 272.131 C 172.974 272.716 173.170 273.184 173.560 273.535 C 173.963 273.887 174.477 274.062 175.101 274.062 C 175.726 274.062 176.239 273.887 176.643 273.535 M 170.575 276.228 C 170.978 275.617 171.537 275.161 172.253 274.862 C 170.952 274.186 170.301 273.139 170.301 271.721 C 170.301 271.018 170.477 270.381 170.828 269.809 C 171.192 269.223 171.732 268.762 172.448 268.423 C 173.176 268.072 174.061 267.897 175.101 267.897 C 176.142 267.897 177.020 268.072 177.735 268.423 C 178.464 268.762 179.004 269.223 179.355 269.809 C 179.719 270.381 179.901 271.018 179.901 271.721 C 179.901 272.436 179.725 273.067 179.374 273.614 C 179.023 274.147 178.555 274.563 177.969 274.862 C 178.685 275.174 179.244 275.630 179.647 276.228 C 180.051 276.827 180.252 277.535 180.252 278.355 C 180.252 279.239 180.025 280.013 179.569 280.677 C 179.127 281.327 178.516 281.828 177.735 282.179 C 176.955 282.530 176.077 282.706 175.101 282.706 C 174.126 282.706 173.248 282.530 172.467 282.179 C 171.700 281.828 171.088 281.327 170.633 280.677 C 170.191 280.013 169.970 279.239 169.970 278.355 C 169.970 277.535 170.171 276.827 170.575 276.228 Z"/>
<path fill="#5600e3" fill-rule="evenodd" stroke="none" d="M 285.359 67.990 C 272.491 64.561 259.544 59.219 247.925 52.550 C 247.405 52.248 246.767 52.248 246.247 52.550 C 234.292 59.414 222.042 64.466 208.806 67.990 C 208.053 68.191 207.521 68.896 207.521 69.701 C 207.519 76.205 207.519 82.710 207.521 89.217 C 207.521 109.287 217.034 122.561 225.011 130.168 C 233.569 138.322 243.493 142.833 247.086 142.833 C 250.673 142.833 260.603 138.322 269.161 130.168 C 277.138 122.561 286.651 109.287 286.651 89.217 C 286.648 82.710 286.648 76.205 286.651 69.701 C 286.645 68.896 286.119 68.191 285.359 67.990 Z"/>
<path fill="#f8cb2c" fill-rule="evenodd" stroke="none" d="M 172.345 222.696 C 172.669 221.697 174.082 221.697 174.406 222.696 C 175.237 225.256 176.070 227.818 176.904 230.383 C 177.049 230.830 177.465 231.132 177.936 231.132 C 180.628 231.130 183.323 231.130 186.019 231.132 C 187.068 231.132 187.505 232.477 186.655 233.093 C 184.474 234.674 182.294 236.258 180.116 237.844 C 179.736 238.121 179.577 238.610 179.722 239.057 C 180.553 241.617 181.386 244.180 182.221 246.745 C 182.545 247.743 181.401 248.574 180.553 247.957 C 178.371 246.370 176.191 244.787 174.013 243.206 C 173.633 242.929 173.119 242.929 172.738 243.206 C 170.557 244.787 168.377 246.370 166.199 247.957 C 165.350 248.574 164.206 247.743 164.530 246.745 C 165.361 244.180 166.194 241.617 167.029 239.057 C 167.174 238.610 167.015 238.121 166.635 237.844 C 164.454 236.258 162.274 234.674 160.096 233.093 C 159.246 232.477 159.683 231.132 160.732 231.132 C 163.425 231.130 166.119 231.130 168.815 231.132 C 169.286 231.132 169.702 230.830 169.847 230.383 C 170.678 227.818 171.510 225.256 172.345 222.696 Z"/>
<path fill="#f8cb2c" fill-rule="evenodd" stroke="none" d="M 209.200 222.696 C 209.524 221.698 210.937 221.698 211.262 222.696 C 212.092 225.256 212.924 227.818 213.759 230.383 C 213.904 230.830 214.321 231.132 214.791 231.132 C 217.483 231.130 220.178 231.130 222.874 231.132 C 223.924 231.132 224.360 232.477 223.511 233.093 C 221.328 234.674 219.149 236.258 216.971 237.844 C 216.592 238.121 216.432 238.610 216.578 239.057 C 217.408 241.617 218.241 244.180 219.076 246.745 C 219.400 247.743 218.257 248.574 217.408 247.957 C 215.226 246.370 213.046 244.787 210.868 243.206 C 210.488 242.929 209.974 242.929 209.593 243.206 C 207.411 244.787 205.232 246.370 203.054 247.957 C 202.205 248.574 201.062 247.743 201.386 246.745 C 202.216 244.180 203.049 241.617 203.884 239.057 C 204.029 238.610 203.870 238.121 203.491 237.844 C 201.309 236.258 199.129 234.674 196.951 233.093 C 196.101 232.477 196.538 231.132 197.587 231.132 C 200.280 231.130 202.974 231.130 205.671 231.132 C 206.141 231.132 206.557 230.830 206.702 230.383 C 207.533 227.818 208.365 225.256 209.200 222.696 Z"/>
<path fill="#f8cb2c" fill-rule="evenodd" stroke="none" d="M 246.055 222.696 C 246.379 221.697 247.793 221.697 248.117 222.696 C 248.947 225.256 249.779 227.818 250.614 230.383 C 250.760 230.830 251.176 231.132 251.646 231.132 C 254.338 231.130 257.033 231.130 259.730 231.132 C 260.779 231.132 261.216 232.477 260.366 233.093 C 258.183 234.674 256.003 236.258 253.826 237.844 C 253.447 238.121 253.288 238.610 253.433 239.057 C 254.263 241.617 255.096 244.180 255.931 246.745 C 256.255 247.743 255.112 248.574 254.263 247.957 C 252.081 246.370 249.901 244.787 247.723 243.206 C 247.343 242.929 246.829 242.929 246.449 243.206 C 244.266 244.787 242.086 246.370 239.909 247.957 C 239.060 248.574 237.917 247.743 238.241 246.745 C 239.071 244.180 239.904 241.617 240.739 239.057 C 240.885 238.610 240.725 238.121 240.346 237.844 C 238.164 236.258 235.984 234.674 233.806 233.093 C 232.956 232.477 233.393 231.132 234.443 231.132 C 237.135 231.130 239.829 231.130 242.526 231.132 C 242.996 231.132 243.413 230.830 243.558 230.383 C 244.388 227.818 245.220 225.256 246.055 222.696 Z"/>
<path fill="#f8cb2c" fill-rule="evenodd" stroke="none" d="M 282.911 222.696 C 283.235 221.698 284.648 221.698 284.972 222.696 C 285.802 225.256 286.634 227.818 287.470 230.383 C 287.615 230.830 288.031 231.132 288.502 231.132 C 291.193 231.130 293.887 231.130 296.585 231.132 C 297.634 231.132 298.071 232.477 297.221 233.093 C 295.038 234.674 292.859 236.258 290.682 237.844 C 290.302 238.121 290.143 238.610 290.288 239.057 C 291.118 241.617 291.951 244.180 292.787 246.745 C 293.111 247.743 291.967 248.574 291.118 247.957 C 288.936 246.370 286.756 244.787 284.579 243.206 C 284.198 242.929 283.685 242.929 283.304 243.206 C 281.121 244.787 278.941 246.370 276.764 247.957 C 275.916 248.574 274.772 247.743 275.096 246.745 C 275.926 244.180 276.759 241.617 277.595 239.057 C 277.740 238.610 277.581 238.121 277.201 237.844 C 275.019 236.258 272.839 234.674 270.662 233.093 C 269.812 232.477 270.248 231.132 271.298 231.132 C 273.989 231.130 276.684 231.130 279.381 231.132 C 279.851 231.132 280.268 230.830 280.413 230.383 C 281.243 227.818 282.075 225.256 282.911 222.696 Z"/>
<path fill="#f8cb2c" fill-rule="evenodd" stroke="none" d="M 319.766 222.696 C 320.090 221.698 321.503 221.698 321.827 222.696 C 322.657 225.256 323.489 227.818 324.325 230.383 C 324.470 230.830 324.887 231.132 325.357 231.132 C 328.048 231.130 330.742 231.130 333.440 231.132 C 334.490 231.132 334.926 232.477 334.076 233.093 C 331.893 234.674 329.713 236.258 327.537 237.844 C 327.157 238.121 326.998 238.610 327.143 239.057 C 327.973 241.617 328.806 244.180 329.642 246.745 C 329.966 247.743 328.822 248.574 327.974 247.957 C 325.790 246.370 323.611 244.787 321.434 243.206 C 321.053 242.929 320.540 242.929 320.159 243.206 C 317.976 244.787 315.796 246.370 313.620 247.957 C 312.771 248.574 311.627 247.743 311.951 246.745 C 312.781 244.180 313.614 241.617 314.450 239.057 C 314.595 238.610 314.436 238.121 314.056 237.844 C 311.873 236.258 309.693 234.674 307.517 233.093 C 306.667 232.477 307.104 231.132 308.153 231.132 C 310.844 231.130 313.539 231.130 316.236 231.132 C 316.707 231.132 317.123 230.830 317.268 230.383 C 318.097 227.818 318.930 225.256 319.766 222.696 Z"/>
<path fill="#ffffff" fill-rule="evenodd" stroke="#000000" stroke-width="0" stroke-linecap="round" stroke-linejoin="round" d="M 229.549 111.609 C 225.769 108.257 228.429 99.993 228.429 99.991 C 228.428 99.990 218.949 92.441 223.619 84.431 C 228.319 76.368 235.348 78.548 239.640 80.950 C 242.140 82.349 246.098 88.995 246.098 88.996 C 246.098 88.996 244.065 96.541 244.065 96.542 C 244.064 96.541 239.894 83.425 233.070 83.996 C 229.503 84.295 227.324 87.027 227.555 91.072 C 227.804 95.402 234.367 97.840 234.367 97.840 C 234.367 97.841 229.009 106.429 234.036 109.279 C 244.727 115.339 245.489 101.449 246.903 94.579 C 247.916 89.657 251.283 82.430 255.845 80.188 C 259.122 78.577 265.134 78.671 267.994 80.942 C 270.802 83.173 272.534 87.055 271.446 92.387 C 270.595 96.558 266.266 99.980 266.266 99.980 C 266.266 99.982 268.701 107.843 264.544 111.841 C 257.258 118.850 249.259 113.229 249.258 113.229 C 249.258 113.228 251.330 107.846 251.330 107.845 C 251.331 107.845 256.446 112.382 260.344 109.096 C 265.325 104.897 260.049 97.473 260.049 97.472 C 260.050 97.471 266.123 95.211 266.804 91.411 C 268.378 82.623 259.806 82.513 255.394 85.928 C 252.003 88.552 250.228 94.930 250.136 99.217 C 250.047 103.346 249.097 108.737 246.970 111.366 C 243.937 115.117 236.802 118.040 229.549 111.609 Z"/>
</g>
</svg>
