<?xml version="1.0" encoding="utf-8"?>
<!-- Generator: Moho 13.0.2 build 610 -->
<!DOCTYPE svg PUBLIC "-//W3C//DTD SVG 1.1//EN" "http://www.w3.org/Graphics/SVG/1.1/DTD/svg11.dtd">
<svg version="1.1" id="Frame_0" xmlns="http://www.w3.org/2000/svg" xmlns:xlink="http://www.w3.org/1999/xlink" width="500px" height="400px">
<g id="screen">
<path fill="#e2e1e1" fill-rule="evenodd" stroke="none" d="M 300.584 386.665 C 265.793 386.661 231.005 386.661 196.219 386.665 C 200.718 373.938 205.219 361.216 209.722 348.498 C 235.459 348.494 261.199 348.494 286.941 348.498 C 291.485 361.216 296.033 373.938 300.584 386.665 Z"/>
<path fill="#dadada" fill-rule="evenodd" stroke="none" d="M 286.941 348.498 C 261.199 348.494 235.459 348.494 209.722 348.498 C 207.939 353.423 206.157 358.352 204.377 363.286 C 233.677 363.282 262.980 363.282 292.285 363.286 C 290.500 358.352 288.719 353.423 286.941 348.498 Z"/>
<path fill="#cbcbcb" fill-rule="evenodd" stroke="none" d="M 185.530 391.876 C 227.395 391.871 269.263 391.871 311.133 391.876 C 311.130 390.745 311.130 389.618 311.133 388.496 C 311.133 384.975 308.320 382.158 304.804 382.158 C 267.153 382.154 229.505 382.154 191.860 382.158 C 188.343 382.158 185.530 384.975 185.530 388.496 C 185.528 389.618 185.528 390.745 185.530 391.876 Z"/>
<path fill="#212529" fill-rule="evenodd" stroke="none" d="M 423.233 109.924 C 423.233 104.291 418.591 99.643 412.965 99.643 C 302.737 99.642 192.514 99.641 82.291 99.643 C 76.665 99.643 72.024 104.291 72.024 109.924 C 72.023 180.809 72.023 251.695 72.024 322.584 C 189.091 322.581 306.160 322.581 423.233 322.584 C 423.228 251.695 423.229 180.809 423.233 109.924 Z"/>
<path fill="#e2e1e1" fill-rule="evenodd" stroke="none" d="M 72.024 322.584 C 72.023 329.529 72.023 336.477 72.024 343.428 C 72.024 349.062 76.665 353.710 82.291 353.710 C 192.561 353.706 302.831 353.706 413.106 353.710 C 418.732 353.710 423.374 349.062 423.374 343.428 C 423.369 336.477 423.369 329.529 423.374 322.584 C 306.254 322.581 189.138 322.581 72.024 322.584 Z"/>
<path fill="#96d6f7" fill-rule="evenodd" stroke="none" d="M 406.636 114.430 C 300.440 114.429 194.248 114.429 88.058 114.430 C 88.057 178.226 88.057 242.024 88.058 305.825 C 194.248 305.822 300.440 305.822 406.636 305.825 C 406.632 242.024 406.632 178.226 406.636 114.430 Z"/>
<path fill="#d6eefd" fill-rule="evenodd" stroke="none" d="M 402.416 116.966 C 299.033 116.964 195.655 116.964 92.277 116.966 C 92.276 179.072 92.276 241.180 92.277 303.291 C 195.655 303.287 299.033 303.287 402.416 303.291 C 402.412 241.180 402.412 179.072 402.416 116.966 Z"/>
<path fill="#ffffff" fill-rule="evenodd" fill-opacity="0.368627" stroke="none" d="M 423.233 109.924 C 423.233 104.291 418.591 99.643 412.965 99.643 C 318.162 99.642 223.363 99.641 128.566 99.643 C 226.833 169.401 325.101 239.161 423.374 308.924 C 423.369 242.588 423.369 176.255 423.374 109.924 C 423.322 109.923 423.275 109.923 423.233 109.924 Z"/>
</g>
</svg>
