<svg width="183" height="126" viewBox="0 0 183 126" fill="none" xmlns="http://www.w3.org/2000/svg">
<path opacity="0.14" d="M179.562 26.6501C175.347 16.5092 167.294 7.80241 157.461 3.21C132.674 -8.3704 116.213 14.3392 96.2998 24.5285C87.0938 29.239 77.2282 29.2014 67.4538 26.4514C57.3578 23.61 48.4413 17.6855 37.9538 15.827C28.0239 14.0706 16.8073 15.8109 10.3142 24.0988C3.91774 32.2577 0.958084 42.7209 0.159195 52.9531C-0.90242 66.4993 3.37621 79.5998 12.1694 89.9394C22.7641 102.401 37.2675 110.576 52.114 116.914C76.1934 127.189 102.391 131.765 124.551 114.137C131.108 108.921 136.411 102.385 142.089 96.2668C147.874 90.0307 154.254 85.4867 161.021 80.4807C173.374 71.3442 183.009 57.4327 182.752 41.5553C182.671 36.458 181.535 31.3983 179.562 26.6501Z" fill="url(#paint0_linear)"/>
<ellipse opacity="0.1" cx="91.5339" cy="106.66" rx="60.8854" ry="5.37225" fill="#060606"/>
<g clip-path="url(#clip0)">
<path d="M44.9746 49.0698L89.8009 77.601C90.3045 77.9862 90.9267 78.1639 91.5193 78.1639C92.1118 78.1639 92.734 77.9862 93.2377 77.601L138.064 49.0698L93.2969 14.7317C92.26 13.9614 90.8378 13.9614 89.8009 14.7317L44.9746 49.0698Z" fill="#2DFFB3"/>
<path d="M62.4251 14.6379H120.643C123.567 14.6379 125.95 17.0213 125.95 19.9449V83.9697C125.95 85.2935 124.87 86.3732 123.546 86.3732H59.5216C58.1979 86.3732 57.1182 85.2935 57.1182 83.9697V19.9449C57.1182 17.0213 59.5015 14.6379 62.4251 14.6379Z" fill="#5600E3" stroke="white"/>
<path d="M93.2673 77.5998C92.7636 77.985 92.1414 78.1627 91.5489 78.1627C90.9563 78.1627 90.3342 77.985 89.8305 77.5998L44.9746 49.0686V101.45C44.9746 104.65 47.5818 107.257 50.7816 107.257H132.257C135.457 107.257 138.064 104.65 138.064 101.45V49.0686L93.2673 77.5998Z" fill="#1FEEA3"/>
<path d="M132.286 107.257H50.8109C47.5519 107.257 45.0039 104.709 45.0039 101.45C45.0039 100.531 45.4483 99.6426 46.189 99.1093L89.8302 70.0152C90.3338 69.63 90.956 69.4523 91.5486 69.4523C92.1411 69.4523 92.7633 69.63 93.2669 70.0152L136.908 99.1093C137.649 99.6426 138.093 100.531 138.093 101.45C138.093 104.709 135.545 107.257 132.286 107.257Z" fill="#2DFFB3"/>
<path d="M115.606 36.6251C115.636 34.4031 115.073 32.1514 113.681 30.433C112.525 28.9813 110.836 27.9739 109.059 27.411C107.696 26.9962 106.303 26.8481 104.881 26.937C104.111 26.937 103.341 26.9962 102.6 27.1147C102.57 27.1147 102.57 27.1147 102.541 27.1147C102.304 27.1444 102.067 27.2036 101.83 27.2629C101.8 27.2629 101.77 27.2629 101.741 27.2925C101.504 27.3518 101.296 27.411 101.059 27.4703C100.852 27.5295 100.615 27.6184 100.408 27.7073C100.348 27.7369 100.319 27.7369 100.259 27.7665C100.052 27.8554 99.8742 27.9147 99.6668 28.0036C99.6076 28.0332 99.578 28.0628 99.5187 28.0628C99.3409 28.1517 99.1632 28.2406 98.9558 28.3295C98.9262 28.3295 98.9262 28.3591 98.8965 28.3591C96.1708 29.8701 94.1858 32.4477 92.734 35.203C92.497 35.677 90.275 42.2247 88.6751 50.2537V50.2834C88.6158 50.6389 88.5566 50.9648 88.4677 51.3203C88.1122 52.8609 87.49 54.3127 86.4234 55.4681C85.5049 56.4459 84.2606 57.068 82.957 57.3347C82.1867 57.4236 81.3867 57.3643 80.6164 57.2162C78.2759 56.7125 76.2019 54.9052 75.6983 52.5647C75.1946 50.1056 76.4093 47.7058 77.7722 45.543C77.9203 45.3356 78.0388 45.0986 78.187 44.8912C77.8907 44.8023 77.6241 44.7134 77.3574 44.5949C75.876 43.9727 74.4243 43.1432 73.2688 42.0469C72.8837 41.6618 72.5281 41.2174 72.2319 40.7433C70.8986 38.6694 70.6912 35.7659 72.1726 33.7809C73.2688 32.2995 75.165 31.5588 77.0315 31.5885C77.15 31.5885 77.2685 31.5885 77.387 31.6181C79.3424 31.7662 81.1793 32.7439 82.6607 34.0475C82.6903 34.0772 82.72 34.1068 82.7496 34.1364C82.8977 34.2846 83.0459 34.4031 83.194 34.5512C83.2533 34.6105 83.3125 34.6697 83.3718 34.729C83.5199 34.8771 83.6384 34.9956 83.7569 35.1438C83.8162 35.2326 83.9051 35.2919 83.9643 35.3808C84.0828 35.4993 84.1717 35.6474 84.2902 35.7659C84.3495 35.8548 84.4087 35.9437 84.4976 36.0326C84.5865 36.1511 84.6754 36.2696 84.7643 36.3881C84.8828 36.5362 84.9717 36.6844 85.0605 36.8325C85.1198 36.9214 85.179 37.0103 85.2383 37.0992C85.3272 37.2177 85.3864 37.3362 85.4457 37.4547C85.4753 37.5139 85.5049 37.5732 85.5346 37.6325C85.6827 37.8991 85.8308 38.1657 85.9494 38.4324C85.979 38.462 85.979 38.4917 86.0086 38.5213C86.5123 39.5286 86.8974 40.5952 87.2233 41.6618C87.4011 42.284 87.5789 42.8765 87.6974 43.4987C88.201 41.1285 88.9121 38.462 89.8602 36.4474C89.6528 36.003 89.4454 35.5882 89.2084 35.1438C87.7566 32.3884 85.7716 29.8108 83.0459 28.2998C83.0162 28.2998 83.0162 28.2702 82.9866 28.2702C82.8089 28.1813 82.6311 28.0924 82.4237 28.0036C82.3644 27.9739 82.3348 27.9443 82.2756 27.9443C82.0682 27.8554 81.8904 27.7665 81.683 27.7073C81.6238 27.6777 81.5941 27.6777 81.5349 27.648C81.3275 27.5591 81.1201 27.4999 80.8831 27.411C80.6461 27.3517 80.4387 27.2925 80.2016 27.2332C80.172 27.2332 80.1424 27.2332 80.1128 27.2036C79.8757 27.1444 79.6387 27.0851 79.4017 27.0555C79.3721 27.0555 79.3721 27.0555 79.3424 27.0555C78.6018 26.937 77.8314 26.8481 77.0611 26.8777C75.6686 26.7888 74.2465 26.937 72.8837 27.3517C71.106 27.9147 69.4173 28.922 68.2618 30.3737C66.8989 32.0921 66.3064 34.3142 66.336 36.5362C66.336 36.5362 66.336 36.5362 66.336 36.5659C66.336 36.714 66.336 36.8621 66.336 37.0399C66.336 37.0992 66.336 37.1288 66.336 37.188C66.336 37.2769 66.336 37.3658 66.336 37.4251C66.336 37.5732 66.3656 37.7213 66.3656 37.8695C66.3656 37.9287 66.3656 38.0176 66.3953 38.0769C66.4249 38.2546 66.4545 38.4324 66.4842 38.6102C66.4842 38.6398 66.4842 38.699 66.5138 38.7287C66.5434 38.9657 66.6027 39.1731 66.6619 39.4101C66.7212 39.6175 66.7804 39.8249 66.8397 40.0323V40.0619C67.1063 40.9507 67.4915 41.7803 67.9655 42.5802C67.9655 42.5802 67.9655 42.5802 67.9655 42.6099C68.0248 42.6987 68.0544 42.758 68.1137 42.8469C68.1729 42.9654 68.2618 43.0839 68.3507 43.2024C68.3803 43.232 68.4099 43.2913 68.4396 43.3209C68.7358 43.7653 69.0617 44.1801 69.3876 44.5653C69.4173 44.5949 69.4469 44.6245 69.4765 44.6838C69.6247 44.8319 69.7432 45.0097 69.8913 45.1578C69.9506 45.2171 69.9802 45.2467 70.0394 45.306C70.1876 45.4541 70.3061 45.5726 70.4542 45.7207C70.5135 45.78 70.5431 45.8096 70.6024 45.8689C70.7505 46.017 70.9283 46.1651 71.0764 46.2837C71.106 46.3133 71.1357 46.3429 71.1653 46.3725C71.3727 46.5503 71.5801 46.6984 71.7875 46.8762C71.5208 47.5576 71.343 48.2391 71.2245 48.9501C71.1653 49.2464 71.1357 49.5723 71.106 49.8686C71.106 49.9278 71.106 49.9575 71.106 50.0167C71.106 50.1056 71.106 50.2241 71.106 50.313C71.106 50.4019 71.106 50.4907 71.106 50.5796C71.106 50.6685 71.106 50.7278 71.106 50.8166C71.106 50.9352 71.106 51.024 71.106 51.1425C71.106 51.1722 71.106 51.1722 71.106 51.2018C71.106 51.3499 71.106 51.4684 71.1357 51.6166C71.1357 51.6462 71.1357 51.6758 71.1357 51.7055C71.1357 51.824 71.1653 51.9721 71.1653 52.0906C71.1653 52.1499 71.1653 52.2091 71.1949 52.2684C71.1949 52.3869 71.2245 52.5054 71.2542 52.5943C71.2542 52.6535 71.2838 52.6832 71.2838 52.7424C71.3134 52.8906 71.343 53.0387 71.3727 53.2165C71.3727 53.2461 71.4023 53.2757 71.4023 53.3053C71.4319 53.4239 71.4616 53.572 71.4912 53.6905C71.4912 53.7498 71.5208 53.7794 71.5208 53.8386C71.5504 53.9571 71.5801 54.0757 71.6097 54.1942C71.6097 54.2238 71.6393 54.2831 71.6393 54.3127C71.6986 54.4608 71.7282 54.609 71.7875 54.7867C71.7875 54.8163 71.8171 54.846 71.8171 54.8756C71.8763 54.9941 71.906 55.1422 71.9652 55.2608C71.9949 55.2904 71.9949 55.3496 72.0245 55.3793C72.0837 55.4978 72.143 55.6163 72.1726 55.7644C72.1726 55.794 72.2022 55.8237 72.2022 55.8237C72.2615 55.9718 72.3504 56.1199 72.4096 56.2681C72.4096 56.2977 72.4393 56.2977 72.4393 56.3273C72.4985 56.4458 72.5874 56.594 72.6467 56.7125C72.6763 56.7421 72.6763 56.7718 72.7059 56.8014C72.7948 56.9199 72.854 57.068 72.9429 57.1865C72.9429 57.1865 72.9429 57.2162 72.9726 57.2162C73.0614 57.3643 73.1503 57.5124 73.2688 57.6309L73.2985 57.6606C73.3873 57.7791 73.4762 57.8976 73.5651 58.0161C73.5947 58.0457 73.5947 58.0457 73.6244 58.0754C73.8317 58.342 74.0391 58.579 74.2762 58.816L74.3058 58.8457C74.3947 58.9642 74.5132 59.0531 74.6317 59.1716C74.6613 59.2012 74.6613 59.2012 74.6909 59.2308C74.928 59.4678 75.165 59.6752 75.4316 59.853C75.4613 59.853 75.4613 59.8826 75.4909 59.8826C75.6094 59.9715 75.7279 60.0604 75.8464 60.1196C75.876 60.1196 75.876 60.1493 75.9057 60.1493C76.1723 60.327 76.439 60.4752 76.7352 60.6233C76.7649 60.6233 76.7945 60.6529 76.7945 60.6529C76.913 60.7122 77.0315 60.7715 77.15 60.8307C77.1796 60.8307 77.2093 60.8603 77.2389 60.8603C77.387 60.9196 77.5352 60.9788 77.6833 61.0381C77.7129 61.0381 77.7722 61.0677 77.8018 61.0677C77.95 61.127 78.0685 61.1566 78.2166 61.1862C78.2759 61.2159 78.3647 61.2159 78.424 61.2455C78.5425 61.2751 78.661 61.3047 78.7795 61.364C78.8388 61.3936 78.898 61.3936 78.9573 61.4233C79.1351 61.4825 79.3128 61.5121 79.4906 61.5714C79.5202 61.5714 79.5498 61.5714 79.5795 61.601C79.7276 61.6306 79.9054 61.6603 80.0535 61.6899C80.1128 61.6899 80.172 61.7195 80.2016 61.7195C80.3498 61.7492 80.4979 61.7788 80.6757 61.8084C80.7053 61.8084 80.7646 61.8084 80.7942 61.838C81.0016 61.8677 81.1793 61.8973 81.3867 61.8973C81.4164 61.8973 81.446 61.8973 81.4756 61.8973C81.6238 61.8973 81.8015 61.9269 81.9497 61.9269C82.0089 61.9269 82.0385 61.9269 82.0978 61.9269C82.2756 61.9269 82.4237 61.9269 82.6015 61.9269C82.6311 61.9269 82.6311 61.9269 82.6607 61.9269H82.6903C82.72 61.9269 82.7496 61.9269 82.7792 61.9269C84.9124 61.8677 87.1641 61.3344 88.9121 60.0604C89.001 60.0011 89.1195 59.9123 89.2084 59.8234C89.4454 59.6456 89.6528 59.4678 89.8305 59.2901C91.8156 57.2162 92.7637 53.0091 93.1784 50.2834C93.297 49.4242 93.3858 48.565 93.5043 47.7058C93.5636 47.2317 93.6229 46.7577 93.6821 46.2837C93.771 45.6615 93.8895 45.0097 94.008 44.3875C94.1858 43.4987 94.3932 42.6099 94.6598 41.721C94.9857 40.6248 95.4005 39.5879 95.8745 38.5805C95.9042 38.5509 95.9042 38.5213 95.9338 38.4916C96.0523 38.225 96.2004 37.9584 96.3486 37.6917C96.3782 37.6325 96.4078 37.5732 96.4375 37.5139C96.4967 37.3954 96.5856 37.2769 96.6448 37.1584C96.7041 37.0695 96.7634 36.9807 96.8226 36.8918C96.9115 36.7436 97.03 36.5955 97.1189 36.4474C97.2078 36.3289 97.2966 36.2103 97.3855 36.0918C97.4448 36.0029 97.504 35.9141 97.5929 35.8252C97.6818 35.7067 97.8003 35.5585 97.9188 35.44C97.9781 35.3511 98.067 35.2919 98.1262 35.203C98.2447 35.0549 98.3929 34.9067 98.5114 34.7882C98.5706 34.729 98.6299 34.6697 98.6891 34.6105C98.8373 34.4623 98.9854 34.3142 99.1335 34.1957C99.1632 34.166 99.1928 34.1364 99.2224 34.1068C100.704 32.8032 102.511 31.8255 104.496 31.6773C104.615 31.6773 104.733 31.6477 104.852 31.6477C106.689 31.6181 108.585 32.3588 109.711 33.8401C111.192 35.8252 110.985 38.7287 109.651 40.8026C109.355 41.2766 108.999 41.6914 108.614 42.1062C107.459 43.2024 106.007 44.0023 104.526 44.6541C104.259 44.7727 103.963 44.8615 103.696 44.9504C103.844 45.1578 103.963 45.3948 104.111 45.6022C105.474 47.765 106.689 50.1648 106.185 52.6239C105.711 54.9645 103.607 56.7718 101.267 57.2754C100.496 57.4532 99.7261 57.4828 98.9262 57.3939C97.6226 57.1273 96.3782 56.5051 95.4597 55.5274C95.1931 55.2608 94.9857 54.9645 94.7783 54.6682C94.1858 56.7125 93.3266 58.6383 92.6451 59.9715C92.734 60.0308 92.8229 60.09 92.9118 60.1493C94.6894 61.4233 96.9115 61.9565 99.0447 62.0158C99.0743 62.0158 99.1039 62.0158 99.1335 62.0158H99.1632C99.1928 62.0158 99.1928 62.0158 99.2224 62.0158C99.4002 62.0158 99.5483 62.0158 99.7261 62.0158C99.7854 62.0158 99.815 62.0158 99.8742 62.0158C100.022 62.0158 100.2 61.9862 100.348 61.9862C100.378 61.9862 100.408 61.9862 100.437 61.9862C100.645 61.9565 100.822 61.9565 101.03 61.9269C101.059 61.9269 101.119 61.9269 101.148 61.8973C101.296 61.8677 101.444 61.838 101.622 61.8084C101.682 61.8084 101.741 61.7788 101.77 61.7788C101.919 61.7492 102.096 61.7195 102.244 61.6899C102.274 61.6899 102.304 61.6899 102.333 61.6603C102.511 61.6306 102.689 61.5714 102.867 61.5121C102.926 61.4825 102.985 61.4825 103.044 61.4529C103.163 61.4233 103.281 61.3936 103.4 61.3344C103.459 61.3047 103.548 61.3047 103.607 61.2751C103.755 61.2455 103.874 61.1862 104.022 61.1566C104.052 61.1566 104.111 61.127 104.141 61.127C104.289 61.0677 104.437 61.0085 104.585 60.9492C104.615 60.9492 104.644 60.9196 104.674 60.9196C104.792 60.8603 104.911 60.8011 105.029 60.7418C105.059 60.7418 105.089 60.7122 105.089 60.7122C105.385 60.5641 105.652 60.4159 105.918 60.2382C105.948 60.2382 105.948 60.2085 105.977 60.2085C106.096 60.1196 106.215 60.0604 106.333 59.9715C106.363 59.9715 106.363 59.9419 106.392 59.9419C106.659 59.7345 106.896 59.5271 107.133 59.3197C107.163 59.2901 107.163 59.2901 107.192 59.2605C107.311 59.1716 107.4 59.0531 107.518 58.9346L107.548 58.9049C107.785 58.6679 107.992 58.4309 108.2 58.1642C108.229 58.1346 108.229 58.1346 108.259 58.105C108.348 57.9865 108.437 57.868 108.525 57.7495L108.555 57.7198C108.644 57.5717 108.733 57.4532 108.851 57.305C108.851 57.305 108.851 57.2754 108.881 57.2754C108.97 57.1569 109.029 57.0088 109.118 56.8903C109.148 56.8606 109.148 56.831 109.177 56.8014C109.236 56.6829 109.325 56.5347 109.385 56.4162C109.385 56.3866 109.414 56.3866 109.414 56.357C109.503 56.2088 109.562 56.0607 109.622 55.9126C109.622 55.8829 109.651 55.8533 109.651 55.8533C109.711 55.7348 109.77 55.6163 109.799 55.4681C109.829 55.4385 109.829 55.3793 109.859 55.3496C109.918 55.2311 109.948 55.083 110.007 54.9645C110.007 54.9349 110.036 54.9052 110.036 54.8756C110.096 54.7275 110.155 54.5793 110.185 54.4016C110.185 54.3719 110.214 54.3127 110.214 54.2831C110.244 54.1645 110.273 54.046 110.303 53.9275C110.303 53.8683 110.333 53.8386 110.333 53.7794C110.362 53.6609 110.392 53.5424 110.422 53.3942C110.422 53.3646 110.451 53.335 110.451 53.3053C110.481 53.1572 110.51 53.0091 110.54 52.8313C110.54 52.7721 110.57 52.7424 110.57 52.6832C110.599 52.5647 110.599 52.4758 110.629 52.3573C110.629 52.298 110.629 52.2388 110.659 52.1795C110.659 52.061 110.688 51.9129 110.688 51.7943C110.688 51.7647 110.688 51.7351 110.688 51.7055C110.688 51.5573 110.718 51.4388 110.718 51.2907C110.718 51.2611 110.718 51.2611 110.718 51.2314C110.718 51.1129 110.718 51.024 110.718 50.9055C110.718 50.8166 110.718 50.7574 110.718 50.6685C110.718 50.5796 110.718 50.4907 110.718 50.4019C110.718 50.313 110.718 50.1945 110.718 50.1056C110.718 50.0463 110.718 50.0167 110.718 49.9575C110.688 49.6315 110.659 49.3353 110.599 49.039C110.481 48.3279 110.303 47.6169 110.036 46.9651C110.244 46.8169 110.451 46.6392 110.659 46.4614C110.688 46.4318 110.718 46.4022 110.747 46.3725C110.896 46.2244 111.073 46.1059 111.222 45.9578C111.281 45.8985 111.31 45.8689 111.37 45.8096C111.518 45.6615 111.636 45.543 111.784 45.3948C111.844 45.3356 111.873 45.306 111.933 45.2467C112.081 45.0986 112.229 44.9504 112.347 44.7727C112.377 44.743 112.407 44.7134 112.436 44.6541C112.792 44.269 113.088 43.8542 113.384 43.4098C113.414 43.3802 113.444 43.3209 113.473 43.2913C113.562 43.1728 113.621 43.0543 113.71 42.9358C113.769 42.8469 113.799 42.7876 113.858 42.6987C113.858 42.6987 113.858 42.6987 113.858 42.6691C114.332 41.8692 114.718 41.0396 114.984 40.1508V40.1212C115.043 39.9138 115.103 39.7064 115.162 39.499C115.221 39.262 115.28 39.0546 115.31 38.8176C115.31 38.7879 115.31 38.7287 115.34 38.699C115.369 38.5213 115.399 38.3435 115.429 38.1657C115.429 38.1065 115.458 38.0176 115.458 37.9584C115.488 37.8102 115.488 37.6621 115.488 37.5139C115.488 37.4251 115.488 37.3362 115.488 37.2769C115.488 37.2177 115.488 37.188 115.488 37.1288C115.606 36.951 115.606 36.7733 115.606 36.6251Z" fill="white"/>
</g>
<circle cx="121.976" cy="17.1227" r="11.3414" fill="#2DFFB3"/>
<defs>
<linearGradient id="paint0_linear" x1="91.3792" y1="-8.00839" x2="91.3792" y2="118.92" gradientUnits="userSpaceOnUse">
<stop stop-color="#CEBFF5"/>
<stop offset="1" stop-color="#2680C1" stop-opacity="0"/>
</linearGradient>
<clipPath id="clip0">
<rect width="93.1189" height="93.1189" fill="white" transform="translate(44.9746 14.1379)"/>
</clipPath>
</defs>
</svg>
