<svg id="e3XIbLQ0fNF1" xmlns="http://www.w3.org/2000/svg" xmlns:xlink="http://www.w3.org/1999/xlink" viewBox="0 0 84 58" shape-rendering="geometricPrecision" text-rendering="geometricPrecision"><style><![CDATA[#e3XIbLQ0fNF2 {animation: e3XIbLQ0fNF2_c_o 2666.6666666666665ms linear infinite normal forwards}@keyframes e3XIbLQ0fNF2_c_o { 0% {opacity: 0.140000} 50% {opacity: 0.440000} 100% {opacity: 0.140000}} #e3XIbLQ0fNF6_to {animation: e3XIbLQ0fNF6_to__to 2666.6666666666665ms linear infinite normal forwards}@keyframes e3XIbLQ0fNF6_to__to { 0% {transform: translate(41.863350px,21.248734px)} 50% {transform: translate(41.863350px,18.248734px)} 100% {transform: translate(41.863350px,21.248734px)}} #e3XIbLQ0fNF7_to {animation: e3XIbLQ0fNF7_to__to 2666.6666666666665ms linear infinite normal forwards}@keyframes e3XIbLQ0fNF7_to__to { 0% {transform: translate(41.870199px,23.248635px)} 50% {transform: translate(41.870199px,26.248635px)} 100% {transform: translate(41.870199px,23.248635px)}} #e3XIbLQ0fNF8_to {animation: e3XIbLQ0fNF8_to__to 2666.6666666666665ms linear infinite normal forwards}@keyframes e3XIbLQ0fNF8_to__to { 0% {transform: translate(41.863350px,35.979700px)} 50% {transform: translate(41.863350px,32.979700px)} 100% {transform: translate(41.863350px,35.979700px)}} #e3XIbLQ0fNF9_to {animation: e3XIbLQ0fNF9_to__to 2666.6666666666665ms linear infinite normal forwards}@keyframes e3XIbLQ0fNF9_to__to { 0% {transform: translate(41.876751px,40.671150px)} 50% {transform: translate(41.876751px,37.671150px)} 100% {transform: translate(41.876751px,40.671150px)}} #e3XIbLQ0fNF10_to {animation: e3XIbLQ0fNF10_to__to 2666.6666666666665ms linear infinite normal forwards}@keyframes e3XIbLQ0fNF10_to__to { 0% {transform: translate(41.612709px,20.453972px)} 50% {transform: translate(41.612709px,22.453972px)} 100% {transform: translate(41.612709px,20.453972px)}} #e3XIbLQ0fNF10_ts {animation: e3XIbLQ0fNF10_ts__ts 2666.6666666666665ms linear infinite normal forwards}@keyframes e3XIbLQ0fNF10_ts__ts { 0% {transform: scale(1,1)} 50% {transform: scale(0.750000,0.750000)} 100% {transform: scale(1,1)}} #e3XIbLQ0fNF13_to {animation: e3XIbLQ0fNF13_to__to 2666.6666666666665ms linear infinite normal forwards}@keyframes e3XIbLQ0fNF13_to__to { 0% {transform: translate(55.794498px,7.881900px)} 50% {transform: translate(55.794498px,10.881900px)} 100% {transform: translate(55.794498px,7.881900px)}} #e3XIbLQ0fNF13 {animation: e3XIbLQ0fNF13_c_o 2666.6666666666665ms linear infinite normal forwards}@keyframes e3XIbLQ0fNF13_c_o { 0% {opacity: 1} 50% {opacity: 0.500000} 100% {opacity: 1}}]]></style><defs><linearGradient id="e3XIbLQ0fNF2-fill" x1="41.798700" y1="-3.686400" x2="41.798700" y2="54.741100" spreadMethod="pad" gradientUnits="userSpaceOnUse"><stop id="e3XIbLQ0fNF2-fill-0" offset="0%" stop-color="rgb(206,191,245)"/><stop id="e3XIbLQ0fNF2-fill-1" offset="100%" stop-color="rgba(38,128,193,0)"/></linearGradient></defs><path id="e3XIbLQ0fNF2" d="M82.135300,12.384127C80.207600,7.716097,76.523900,3.708207,72.025900,1.594247C60.687700,-3.736413,53.158300,6.717217,44.049500,11.407527C39.838500,13.575827,35.325800,13.558527,30.854800,12.292627C26.236600,10.984727,22.158000,8.257567,17.360800,7.402087C12.818600,6.593587,7.687870,7.394677,4.717830,11.209727C1.791920,14.965427,0.438103,19.781827,0.072670,24.491827C-0.412933,30.727427,1.544200,36.757827,5.566410,41.517327C10.412700,47.253427,17.046800,51.016527,23.838000,53.934127C34.852400,58.663927,46.835600,60.770527,56.972100,52.655827C59.971600,50.255027,62.397100,47.246027,64.994400,44.429927C67.640700,41.559327,70.559300,39.467627,73.654400,37.163327C79.305100,32.957627,83.712300,26.553927,83.594600,19.245227C83.557800,16.898827,83.037900,14.569827,82.135300,12.384127Z" transform="matrix(1 0 0 1 0 -0.00495514000000)" opacity="0.14" fill="url(#e3XIbLQ0fNF2-fill)" stroke="none" stroke-width="1"/><ellipse id="e3XIbLQ0fNF3" rx="27.850400" ry="2.472930" transform="matrix(1 0 0 1 41.86990000000000 49.09740000000000)" opacity="0.1" fill="rgb(6,6,6)" stroke="none" stroke-width="1"/><g id="e3XIbLQ0fNF4" clip-path="url(#e3XIbLQ0fNF11)"><g id="e3XIbLQ0fNF5"><g id="e3XIbLQ0fNF6_to" transform="translate(41.863350,21.248734)"><path id="e3XIbLQ0fNF6" d="M20.572800,22.588700L41.077300,35.722000C41.307700,35.899300,41.592300,35.981200,41.863300,35.981200C42.134400,35.981200,42.419000,35.899300,42.649300,35.722000L63.153900,22.588700L42.676500,6.782210C42.202100,6.427620,41.551600,6.427620,41.077300,6.782210L20.572800,22.588700Z" transform="translate(-41.863350,-21.248734)" fill="rgb(45,255,179)" stroke="none" stroke-width="1"/></g><g id="e3XIbLQ0fNF7_to" transform="translate(41.870199,23.248635)"><path id="e3XIbLQ0fNF7" d="M28.555200,7.007970L55.185300,7.007970C56.369800,7.007970,57.341500,7.981270,57.341500,9.181020L57.341500,38.652800C57.341500,39.116000,56.966100,39.489300,56.513400,39.489300L27.227000,39.489300C26.774300,39.489300,26.398900,39.116000,26.398900,38.652800L26.398900,9.181020C26.398900,7.981270,27.370600,7.007970,28.555200,7.007970Z" transform="translate(-41.870199,-23.248635)" fill="rgb(86,0,227)" stroke="rgb(255,255,255)" stroke-width="1"/></g><g id="e3XIbLQ0fNF8_to" transform="translate(41.863350,35.979700)"><path id="e3XIbLQ0fNF8" d="M42.662900,35.720600C42.432500,35.897900,42.147900,35.979700,41.876900,35.979700C41.605800,35.979700,41.321200,35.897900,41.090800,35.720600L20.572800,22.587200L20.572800,46.699200C20.572800,48.172100,21.765400,49.372200,23.229000,49.372200L60.497600,49.372200C61.961300,49.372200,63.153900,48.172100,63.153900,46.699200L63.153900,22.587200L42.662900,35.720600Z" transform="translate(-41.863350,-35.979700)" fill="rgb(31,238,163)" stroke="none" stroke-width="1"/></g><g id="e3XIbLQ0fNF9_to" transform="translate(41.876751,40.671150)"><path id="e3XIbLQ0fNF9" d="M60.511100,49.372200L23.242400,49.372200C21.751700,49.372200,20.586200,48.199300,20.586200,46.699100C20.586200,46.276400,20.789500,45.867200,21.128300,45.621700L41.090700,32.229200C41.321100,32.051900,41.605700,31.970100,41.876700,31.970100C42.147800,31.970100,42.432400,32.051900,42.662800,32.229200L62.625200,45.621700C62.964000,45.867200,63.167300,46.276400,63.167300,46.699100C63.167300,48.199300,62.001800,49.372200,60.511100,49.372200Z" transform="translate(-41.876751,-40.671150)" fill="rgb(45,255,179)" stroke="none" stroke-width="1"/></g><g id="e3XIbLQ0fNF10_to" transform="translate(41.612709,20.453972)"><g id="e3XIbLQ0fNF10_ts" transform="scale(1,1)"><path id="e3XIbLQ0fNF10" d="M52.881400,16.859300C52.894900,15.836400,52.637400,14.799900,52.000500,14.008900C51.471900,13.340600,50.699400,12.877000,49.886300,12.617800C49.262900,12.426900,48.626000,12.358700,47.975400,12.399600C47.623100,12.399600,47.270700,12.426900,46.931900,12.481500C46.918400,12.481500,46.918400,12.481500,46.904800,12.481500C46.796400,12.495100,46.688000,12.522400,46.579600,12.549600C46.566000,12.549600,46.552500,12.549600,46.538900,12.563300C46.430500,12.590600,46.335600,12.617800,46.227200,12.645100C46.132300,12.672400,46.023900,12.713300,45.929100,12.754200C45.902000,12.767900,45.888400,12.767900,45.861300,12.781500C45.766400,12.822400,45.685100,12.849700,45.590300,12.890600C45.563100,12.904200,45.549600,12.917900,45.522500,12.917900C45.441200,12.958800,45.359900,12.999700,45.265000,13.040600C45.251400,13.040600,45.251400,13.054300,45.237900,13.054300C43.991100,13.749800,43.083100,14.936300,42.419000,16.204600C42.310600,16.422800,41.294200,19.436800,40.562400,23.132700L40.562400,23.146400C40.535300,23.310000,40.508200,23.460000,40.467500,23.623700C40.304900,24.332900,40.020300,25.001100,39.532400,25.533000C39.112300,25.983100,38.543100,26.269500,37.946800,26.392200C37.594400,26.433100,37.228500,26.405900,36.876200,26.337700C35.805500,26.105800,34.856900,25.273900,34.626500,24.196500C34.396100,23.064500,34.951700,21.959900,35.575200,20.964300C35.642900,20.868800,35.697100,20.759700,35.764900,20.664300C35.629400,20.623300,35.507400,20.582400,35.385400,20.527900C34.707800,20.241500,34.043700,19.859600,33.515200,19.355000C33.339000,19.177700,33.176400,18.973100,33.040900,18.754900C32.431000,17.800300,32.336200,16.463800,33.013800,15.550000C33.515200,14.868100,34.382600,14.527200,35.236300,14.540800C35.290600,14.540800,35.344800,14.540800,35.399000,14.554400C36.293400,14.622600,37.133700,15.072700,37.811300,15.672700C37.824800,15.686400,37.838400,15.700000,37.851900,15.713700C37.919700,15.781900,37.987400,15.836400,38.055200,15.904600C38.082300,15.931900,38.109400,15.959100,38.136500,15.986400C38.204300,16.054600,38.258500,16.109200,38.312700,16.177400C38.339800,16.218300,38.380500,16.245500,38.407600,16.286500C38.461800,16.341000,38.502400,16.409200,38.556600,16.463800C38.583700,16.504700,38.610900,16.545600,38.651500,16.586500C38.692200,16.641000,38.732800,16.695600,38.773500,16.750100C38.827700,16.818300,38.868300,16.886500,38.909000,16.954700C38.936100,16.995600,38.963200,17.036500,38.990300,17.077500C39.031000,17.132000,39.058100,17.186600,39.085200,17.241100C39.098700,17.268400,39.112300,17.295700,39.125800,17.322900C39.193600,17.445700,39.261400,17.568400,39.315600,17.691200C39.329100,17.704800,39.329100,17.718400,39.342700,17.732100C39.573100,18.195800,39.749200,18.686700,39.898300,19.177700C39.979600,19.464100,40.060900,19.736900,40.115200,20.023300C40.345500,18.932200,40.670800,17.704800,41.104500,16.777400C41.009600,16.572900,40.914700,16.381900,40.806300,16.177400C40.142300,14.909000,39.234300,13.722500,37.987400,13.027000C37.973900,13.027000,37.973900,13.013300,37.960300,13.013300C37.879000,12.972400,37.797700,12.931500,37.702900,12.890600C37.675700,12.877000,37.662200,12.863300,37.635100,12.863300C37.540200,12.822400,37.458900,12.781500,37.364000,12.754200C37.336900,12.740600,37.323400,12.740600,37.296300,12.726900C37.201400,12.686000,37.106600,12.658700,36.998100,12.617800C36.889700,12.590600,36.794900,12.563300,36.686400,12.536000C36.672900,12.536000,36.659300,12.536000,36.645800,12.522400C36.537400,12.495100,36.428900,12.467800,36.320500,12.454200C36.307000,12.454200,36.307000,12.454200,36.293400,12.454200C35.954600,12.399600,35.602300,12.358700,35.249900,12.372400C34.612900,12.331400,33.962400,12.399600,33.339000,12.590600C32.525900,12.849700,31.753400,13.313400,31.224900,13.981600C30.601500,14.772600,30.330400,15.795500,30.344000,16.818300C30.344000,16.818300,30.344000,16.818300,30.344000,16.832000C30.344000,16.900200,30.344000,16.968400,30.344000,17.050200C30.344000,17.077500,30.344000,17.091100,30.344000,17.118400C30.344000,17.159300,30.344000,17.200200,30.344000,17.227500C30.344000,17.295700,30.357500,17.363900,30.357500,17.432000C30.357500,17.459300,30.357500,17.500200,30.371100,17.527500C30.384600,17.609300,30.398200,17.691200,30.411800,17.773000C30.411800,17.786600,30.411700,17.813900,30.425300,17.827600C30.438900,17.936700,30.466000,18.032100,30.493100,18.141200C30.520200,18.236700,30.547300,18.332200,30.574400,18.427600L30.574400,18.441300C30.696300,18.850400,30.872500,19.232300,31.089400,19.600500C31.089400,19.600500,31.089400,19.600500,31.089400,19.614100C31.116500,19.655000,31.130000,19.682300,31.157100,19.723200C31.184200,19.777800,31.224900,19.832300,31.265500,19.886900C31.279100,19.900500,31.292600,19.927800,31.306200,19.941400C31.441700,20.146000,31.590800,20.336900,31.739900,20.514200C31.753400,20.527900,31.767000,20.541500,31.780500,20.568800C31.848300,20.637000,31.902500,20.718800,31.970300,20.787000C31.997400,20.814300,32.010900,20.827900,32.038000,20.855200C32.105800,20.923400,32.160000,20.977900,32.227700,21.046100C32.254900,21.073400,32.268400,21.087000,32.295500,21.114300C32.363300,21.182500,32.444600,21.250700,32.512300,21.305200C32.525900,21.318900,32.539500,21.332500,32.553000,21.346200C32.647900,21.428000,32.742700,21.496200,32.837600,21.578000C32.715600,21.891700,32.634300,22.205400,32.580100,22.532700C32.553000,22.669000,32.539500,22.819100,32.525900,22.955400C32.525900,22.982700,32.525900,22.996400,32.525900,23.023600C32.525900,23.064500,32.525900,23.119100,32.525900,23.160000C32.525900,23.200900,32.525900,23.241800,32.525900,23.282800C32.525900,23.323700,32.525900,23.350900,32.525900,23.391900C32.525900,23.446400,32.525900,23.487300,32.525900,23.541900C32.525900,23.555500,32.525900,23.555500,32.525900,23.569200C32.525900,23.637300,32.525900,23.691900,32.539500,23.760100C32.539500,23.773700,32.539500,23.787400,32.539500,23.801000C32.539500,23.855500,32.553000,23.923700,32.553000,23.978300C32.553000,24.005600,32.553000,24.032800,32.566600,24.060100C32.566600,24.114700,32.580100,24.169200,32.593700,24.210100C32.593700,24.237400,32.607200,24.251100,32.607200,24.278300C32.620800,24.346500,32.634300,24.414700,32.647900,24.496500C32.647900,24.510200,32.661400,24.523800,32.661400,24.537400C32.675000,24.592000,32.688500,24.660200,32.702100,24.714700C32.702100,24.742000,32.715600,24.755700,32.715600,24.782900C32.729200,24.837500,32.742700,24.892000,32.756300,24.946600C32.756300,24.960200,32.769800,24.987500,32.769800,25.001100C32.796900,25.069300,32.810500,25.137500,32.837600,25.219300C32.837600,25.233000,32.851200,25.246600,32.851200,25.260300C32.878300,25.314800,32.891800,25.383000,32.918900,25.437600C32.932500,25.451200,32.932500,25.478500,32.946000,25.492100C32.973100,25.546700,33.000200,25.601200,33.013800,25.669400C33.013800,25.683000,33.027300,25.696700,33.027300,25.696700C33.054400,25.764900,33.095100,25.833100,33.122200,25.901200C33.122200,25.914900,33.135700,25.914900,33.135700,25.928500C33.162900,25.983100,33.203500,26.051300,33.230600,26.105800C33.244200,26.119500,33.244200,26.133100,33.257700,26.146700C33.298400,26.201300,33.325500,26.269500,33.366100,26.324000C33.366100,26.324000,33.366100,26.337700,33.379700,26.337700C33.420300,26.405900,33.461000,26.474000,33.515200,26.528600L33.528800,26.542200C33.569400,26.596800,33.610100,26.651300,33.650700,26.705900C33.664300,26.719500,33.664300,26.719500,33.677800,26.733200C33.772700,26.855900,33.867600,26.965000,33.976000,27.074100L33.989500,27.087800C34.030200,27.142300,34.084400,27.183200,34.138600,27.237800C34.152200,27.251400,34.152200,27.251400,34.165700,27.265100C34.274100,27.374200,34.382600,27.469600,34.504500,27.551400C34.518100,27.551400,34.518100,27.565100,34.531600,27.565100C34.585800,27.606000,34.640000,27.646900,34.694300,27.674200C34.707800,27.674200,34.707800,27.687800,34.721400,27.687800C34.843300,27.769700,34.965300,27.837800,35.100800,27.906000C35.114400,27.906000,35.127900,27.919700,35.127900,27.919700C35.182100,27.947000,35.236300,27.974200,35.290600,28.001500C35.304100,28.001500,35.317700,28.015100,35.331200,28.015100C35.399000,28.042400,35.466700,28.069700,35.534500,28.097000C35.548000,28.097000,35.575200,28.110600,35.588700,28.110600C35.656500,28.137900,35.710700,28.151500,35.778400,28.165200C35.805500,28.178800,35.846200,28.178800,35.873300,28.192400C35.927500,28.206100,35.981700,28.219700,36.035900,28.247000C36.063000,28.260600,36.090100,28.260600,36.117200,28.274300C36.198600,28.301500,36.279900,28.315200,36.361200,28.342500C36.374700,28.342500,36.388300,28.342500,36.401800,28.356100C36.469600,28.369700,36.550900,28.383400,36.618700,28.397000C36.645800,28.397000,36.672900,28.410600,36.686400,28.410600C36.754200,28.424300,36.822000,28.437900,36.903300,28.451600C36.916800,28.451600,36.943900,28.451600,36.957500,28.465200C37.052300,28.478800,37.133700,28.492500,37.228500,28.492500C37.242100,28.492500,37.255600,28.492500,37.269200,28.492500C37.336900,28.492500,37.418300,28.506100,37.486000,28.506100C37.513100,28.506100,37.526700,28.506100,37.553800,28.506100C37.635100,28.506100,37.702900,28.506100,37.784200,28.506100C37.797700,28.506100,37.797700,28.506100,37.811300,28.506100L37.824800,28.506100C37.838400,28.506100,37.851900,28.506100,37.865500,28.506100C38.841200,28.478800,39.871200,28.233300,40.670800,27.646900C40.711400,27.619600,40.765700,27.578700,40.806300,27.537800C40.914700,27.456000,41.009600,27.374200,41.090900,27.292300C41.998900,26.337700,42.432600,24.401100,42.622300,23.146400C42.676500,22.750900,42.717200,22.355400,42.771400,21.959900C42.798500,21.741700,42.825600,21.523500,42.852700,21.305200C42.893400,21.018800,42.947600,20.718800,43.001800,20.432400C43.083100,20.023300,43.178000,19.614100,43.299900,19.205000C43.449000,18.700400,43.638700,18.223100,43.855600,17.759400C43.869100,17.745700,43.869100,17.732100,43.882700,17.718400C43.936900,17.595700,44.004600,17.473000,44.072400,17.350200C44.086000,17.322900,44.099500,17.295700,44.113100,17.268400C44.140200,17.213800,44.180800,17.159300,44.207900,17.104700C44.235000,17.063800,44.262100,17.022900,44.289200,16.982000C44.329900,16.913800,44.384100,16.845600,44.424800,16.777400C44.465400,16.722900,44.506100,16.668300,44.546700,16.613800C44.573800,16.572900,44.600900,16.531900,44.641600,16.491000C44.682300,16.436500,44.736500,16.368300,44.790700,16.313700C44.817800,16.272800,44.858400,16.245500,44.885500,16.204600C44.939700,16.136400,45.007500,16.068200,45.061700,16.013700C45.088800,15.986400,45.115900,15.959100,45.143000,15.931900C45.210800,15.863700,45.278600,15.795500,45.346300,15.740900C45.359900,15.727300,45.373400,15.713700,45.387000,15.700000C46.064600,15.100000,46.891300,14.649900,47.799300,14.581700C47.853500,14.581700,47.907700,14.568100,47.961900,14.568100C48.802100,14.554400,49.669500,14.895400,50.184500,15.577300C50.862100,16.491000,50.767200,17.827600,50.157400,18.782200C50.021800,19.000400,49.859200,19.191400,49.683000,19.382300C49.154500,19.886900,48.490400,20.255100,47.812800,20.555200C47.690800,20.609700,47.555300,20.650600,47.433400,20.691500C47.501100,20.787000,47.555300,20.896100,47.623100,20.991600C48.246500,21.987100,48.802100,23.091800,48.571700,24.223800C48.354900,25.301200,47.392700,26.133100,46.322100,26.364900C45.969700,26.446800,45.617400,26.460400,45.251400,26.419500C44.655200,26.296800,44.086000,26.010400,43.665800,25.560300C43.543900,25.437600,43.449000,25.301200,43.354100,25.164800C43.083100,26.105800,42.690100,26.992300,42.378400,27.606000C42.419000,27.633300,42.459700,27.660600,42.500300,27.687800C43.313500,28.274300,44.329900,28.519700,45.305700,28.547000C45.319200,28.547000,45.332800,28.547000,45.346300,28.547000L45.359900,28.547000C45.373400,28.547000,45.373400,28.547000,45.387000,28.547000C45.468300,28.547000,45.536000,28.547000,45.617400,28.547000C45.644500,28.547000,45.658000,28.547000,45.685100,28.547000C45.752900,28.547000,45.834200,28.533400,45.902000,28.533400C45.915500,28.533400,45.929100,28.533400,45.942600,28.533400C46.037500,28.519700,46.118800,28.519700,46.213700,28.506100C46.227200,28.506100,46.254300,28.506100,46.267900,28.492500C46.335600,28.478800,46.403400,28.465200,46.484700,28.451600C46.511800,28.451600,46.538900,28.437900,46.552500,28.437900C46.620200,28.424300,46.701500,28.410600,46.769300,28.397000C46.782900,28.397000,46.796400,28.397000,46.810000,28.383400C46.891300,28.369700,46.972600,28.342500,47.053900,28.315200C47.081000,28.301500,47.108100,28.301500,47.135200,28.287900C47.189400,28.274300,47.243600,28.260600,47.297800,28.233300C47.324900,28.219700,47.365600,28.219700,47.392700,28.206100C47.460500,28.192400,47.514700,28.165200,47.582400,28.151500C47.596000,28.151500,47.623100,28.137900,47.636600,28.137900C47.704400,28.110600,47.772200,28.083300,47.839900,28.056100C47.853500,28.056100,47.867000,28.042400,47.880600,28.042400C47.934800,28.015100,47.989000,27.987900,48.043200,27.960600C48.056800,27.960600,48.070300,27.947000,48.070300,27.947000C48.205800,27.878800,48.327800,27.810600,48.449800,27.728700C48.463300,27.728700,48.463300,27.715100,48.476900,27.715100C48.531100,27.674200,48.585300,27.646900,48.639500,27.606000C48.653100,27.606000,48.653100,27.592400,48.666600,27.592400C48.788600,27.496900,48.897000,27.401400,49.005400,27.306000C49.019000,27.292300,49.019000,27.292300,49.032500,27.278700C49.086700,27.237800,49.127400,27.183200,49.181600,27.128700L49.195100,27.115000C49.303600,27.005900,49.398400,26.896800,49.493300,26.774100C49.506800,26.760400,49.506800,26.760400,49.520400,26.746800C49.561100,26.692300,49.601700,26.637700,49.642400,26.583100L49.655900,26.569500C49.696600,26.501300,49.737200,26.446800,49.791400,26.378600C49.791400,26.378600,49.791400,26.364900,49.805000,26.364900C49.845700,26.310400,49.872800,26.242200,49.913400,26.187600C49.927000,26.174000,49.927000,26.160400,49.940500,26.146700C49.967600,26.092200,50.008300,26.024000,50.035400,25.969400C50.035400,25.955800,50.048900,25.955800,50.048900,25.942200C50.089600,25.874000,50.116700,25.805800,50.143800,25.737600C50.143800,25.724000,50.157400,25.710300,50.157400,25.710300C50.184500,25.655800,50.211600,25.601200,50.225100,25.533000C50.238700,25.519400,50.238700,25.492100,50.252200,25.478500C50.279300,25.423900,50.292900,25.355700,50.320000,25.301200C50.320000,25.287500,50.333500,25.273900,50.333500,25.260300C50.360600,25.192100,50.387700,25.123900,50.401300,25.042100C50.401300,25.028400,50.414800,25.001100,50.414800,24.987500C50.428400,24.933000,50.442000,24.878400,50.455500,24.823800C50.455500,24.796600,50.469100,24.782900,50.469100,24.755700C50.482600,24.701100,50.496200,24.646600,50.509700,24.578400C50.509700,24.564700,50.523300,24.551100,50.523300,24.537400C50.536800,24.469300,50.550400,24.401100,50.563900,24.319200C50.563900,24.292000,50.577500,24.278300,50.577500,24.251100C50.591000,24.196500,50.591000,24.155600,50.604600,24.101000C50.604600,24.073800,50.604600,24.046500,50.618100,24.019200C50.618100,23.964700,50.631700,23.896500,50.631700,23.841900C50.631700,23.828300,50.631700,23.814600,50.631700,23.801000C50.631700,23.732800,50.645200,23.678300,50.645200,23.610100C50.645200,23.596400,50.645200,23.596400,50.645200,23.582800C50.645200,23.528200,50.645200,23.487300,50.645200,23.432800C50.645200,23.391900,50.645200,23.364600,50.645200,23.323700C50.645200,23.282800,50.645200,23.241800,50.645200,23.200900C50.645200,23.160000,50.645200,23.105500,50.645200,23.064500C50.645200,23.037300,50.645200,23.023600,50.645200,22.996400C50.631700,22.846300,50.618100,22.710000,50.591000,22.573600C50.536800,22.246300,50.455500,21.919000,50.333500,21.618900C50.428400,21.550700,50.523300,21.468900,50.618100,21.387100C50.631700,21.373400,50.645200,21.359800,50.658800,21.346200C50.726600,21.278000,50.807900,21.223400,50.875600,21.155200C50.902700,21.127900,50.916300,21.114300,50.943400,21.087000C51.011100,21.018800,51.065400,20.964300,51.133100,20.896100C51.160200,20.868800,51.173800,20.855200,51.200900,20.827900C51.268600,20.759700,51.336400,20.691500,51.390600,20.609700C51.404200,20.596100,51.417700,20.582400,51.431300,20.555200C51.593900,20.377900,51.729400,20.186900,51.864900,19.982400C51.878500,19.968700,51.892000,19.941400,51.905600,19.927800C51.946300,19.873300,51.973400,19.818700,52.014000,19.764100C52.041100,19.723200,52.054700,19.696000,52.081800,19.655000C52.081800,19.655000,52.081800,19.655000,52.081800,19.641400C52.298600,19.273200,52.474800,18.891300,52.596800,18.482200L52.596800,18.468500C52.623900,18.373100,52.651000,18.277600,52.678100,18.182100C52.705200,18.073000,52.732300,17.977600,52.745800,17.868500C52.745800,17.854800,52.745800,17.827600,52.759400,17.813900C52.772900,17.732100,52.786500,17.650300,52.800000,17.568400C52.800000,17.541200,52.813600,17.500200,52.813600,17.473000C52.827100,17.404800,52.827100,17.336600,52.827100,17.268400C52.827100,17.227500,52.827100,17.186600,52.827100,17.159300C52.827100,17.132000,52.827100,17.118400,52.827100,17.091100C52.881400,17.009300,52.881400,16.927400,52.881400,16.859300Z" transform="translate(-41.612709,-20.453972)" fill="rgb(255,255,255)" fill-rule="evenodd" stroke="rgb(255,255,255)" stroke-width="1" stroke-dashoffset="146.590000" stroke-dasharray="146.590000"/></g></g></g><clipPath id="e3XIbLQ0fNF11"><rect id="e3XIbLQ0fNF12" width="42.594700" height="42.864300" rx="0" ry="0" transform="matrix(1 0 0 1 20.57280000000000 6.50797000000000)" fill="rgb(255,255,255)" stroke="none" stroke-width="1"/></clipPath></g><g id="e3XIbLQ0fNF13_to" transform="translate(55.794498,7.881900)"><ellipse id="e3XIbLQ0fNF13" rx="5.187810" ry="5.220650" transform="translate(0.000002,-0)" fill="rgb(45,255,179)" stroke="none" stroke-width="1"/></g></svg>