<svg id="eDAoqJtMwhG1" xmlns="http://www.w3.org/2000/svg" xmlns:xlink="http://www.w3.org/1999/xlink" viewBox="0 0 193 136" shape-rendering="geometricPrecision" text-rendering="geometricPrecision"><style><![CDATA[#eDAoqJtMwhG3_ts {animation: eDAoqJtMwhG3_ts__ts 4500ms linear infinite normal forwards}@keyframes eDAoqJtMwhG3_ts__ts { 0% {transform: translate(91.378555px,62.999965px) scale(0.734482,0.734482)} 33.333333% {transform: translate(91.378555px,62.999965px) scale(1.041551,1.041551)} 66.666667% {transform: translate(91.378555px,62.999965px) scale(1,1)} 88.888889% {transform: translate(91.378555px,62.999965px) scale(1,1)} 100% {transform: translate(91.378555px,62.999965px) scale(1,1)}} #eDAoqJtMwhG3 {animation: eDAoqJtMwhG3_c_o 4500ms linear infinite normal forwards}@keyframes eDAoqJtMwhG3_c_o { 0% {opacity: 0.140000} 33.333333% {opacity: 0.440000} 66.666667% {opacity: 0.140000} 88.888889% {opacity: 0.140000} 100% {opacity: 0.140000}} #eDAoqJtMwhG4_ts {animation: eDAoqJtMwhG4_ts__ts 4500ms linear infinite normal forwards}@keyframes eDAoqJtMwhG4_ts__ts { 0% {transform: translate(91.533897px,58.906773px) scale(1,1);animation-timing-function: step-end} 2.222222% {transform: translate(91.533897px,58.906773px) scale(0.040025,0.040025)} 6.666667% {transform: translate(91.533897px,58.906773px) scale(1.184329,1.184329)} 15.555556% {transform: translate(91.533897px,58.906773px) scale(1,1)} 88.888889% {transform: translate(91.533897px,58.906773px) scale(1,1)} 100% {transform: translate(91.533897px,58.906773px) scale(1,1)}} #eDAoqJtMwhG7_ts {animation: eDAoqJtMwhG7_ts__ts 4500ms linear infinite normal forwards}@keyframes eDAoqJtMwhG7_ts__ts { 0% {transform: translate(91.548450px,86.373200px) scale(1,0.008822)} 15.555556% {transform: translate(91.548450px,86.373200px) scale(1,0.008822)} 20% {transform: translate(91.548450px,86.373200px) scale(0.758694,1.118335)} 26.666667% {transform: translate(91.548450px,86.373200px) scale(1,1)} 88.888889% {transform: translate(91.548450px,86.373200px) scale(1,1)} 100% {transform: translate(91.548450px,86.373200px) scale(1,1)}} #eDAoqJtMwhG7 {animation: eDAoqJtMwhG7_c_o 4500ms linear infinite normal forwards}@keyframes eDAoqJtMwhG7_c_o { 0% {opacity: 0} 15.555556% {opacity: 0} 20% {opacity: 1} 88.888889% {opacity: 1} 100% {opacity: 1}} #eDAoqJtMwhG10_to {animation: eDAoqJtMwhG10_to__to 4500ms linear infinite normal forwards}@keyframes eDAoqJtMwhG10_to__to { 0% {transform: translate(90.971043px,70.773197px)} 26.666667% {transform: translate(90.971043px,70.773197px)} 28.888889% {transform: translate(90.971043px,61.993580px)} 33.333333% {transform: translate(91.378570px,38.859482px)} 42.222222% {transform: translate(90.971043px,44.434347px)} 88.888889% {transform: translate(90.971043px,44.434347px)} 100% {transform: translate(90.971043px,44.434347px)}} #eDAoqJtMwhG10_ts {animation: eDAoqJtMwhG10_ts__ts 4500ms linear infinite normal forwards}@keyframes eDAoqJtMwhG10_ts__ts { 0% {transform: scale(0.013851,0.013851)} 26.666667% {transform: scale(0.013851,0.013851)} 28.888889% {transform: scale(0.181373,0.181373)} 33.333333% {transform: scale(1.280159,1.280159)} 42.222222% {transform: scale(1,1)} 88.888889% {transform: scale(1,1)} 100% {transform: scale(1,1)}} #eDAoqJtMwhG10 {animation: eDAoqJtMwhG10_c_o 4500ms linear infinite normal forwards}@keyframes eDAoqJtMwhG10_c_o { 0% {opacity: 0} 26.666667% {opacity: 0} 28.888889% {opacity: 1} 88.888889% {opacity: 1} 100% {opacity: 1}} #eDAoqJtMwhG11_ts {animation: eDAoqJtMwhG11_ts__ts 4500ms linear infinite normal forwards}@keyframes eDAoqJtMwhG11_ts__ts { 0% {transform: translate(121.975998px,17.122700px) rotate(90.317562deg) scale(0.336409,0.336409)} 42.222222% {transform: translate(121.975998px,17.122700px) rotate(90.317562deg) scale(0.336409,0.336409)} 44.444444% {transform: translate(121.975998px,17.122700px) rotate(90.317562deg) scale(1.357971,1.357971)} 55.555556% {transform: translate(121.975998px,17.122700px) rotate(90.317562deg) scale(1,1)} 88.888889% {transform: translate(121.975998px,17.122700px) rotate(90.317562deg) scale(1,1)} 100% {transform: translate(121.975998px,17.122700px) rotate(90.317562deg) scale(1,1)}} #eDAoqJtMwhG11 {animation: eDAoqJtMwhG11_c_o 4500ms linear infinite normal forwards}@keyframes eDAoqJtMwhG11_c_o { 0% {opacity: 0} 42.222222% {opacity: 0} 44.444444% {opacity: 1} 88.888889% {opacity: 1} 100% {opacity: 1}}]]></style><defs><linearGradient id="eDAoqJtMwhG3-fill" x1="91.379200" y1="-8.008390" x2="91.379200" y2="118.920000" spreadMethod="pad" gradientUnits="userSpaceOnUse"><stop id="eDAoqJtMwhG3-fill-0" offset="0%" stop-color="rgb(206,191,245)"/><stop id="eDAoqJtMwhG3-fill-1" offset="100%" stop-color="rgba(38,128,193,0)"/></linearGradient></defs><g id="eDAoqJtMwhG2" transform="matrix(1 0 0 1 5.12144458500001 5.00003457000000)"><g id="eDAoqJtMwhG3_ts" transform="translate(91.378555,62.999965) scale(0.734482,0.734482)"><path id="eDAoqJtMwhG3" d="M179.562000,26.650100C175.347000,16.509200,167.294000,7.802410,157.461000,3.210000C132.674000,-8.370400,116.213000,14.339200,96.299800,24.528500C87.093800,29.239000,77.228200,29.201400,67.453800,26.451400C57.357800,23.610000,48.441300,17.685500,37.953800,15.827000C28.023900,14.070600,16.807300,15.810900,10.314200,24.098800C3.917740,32.257700,0.958084,42.720900,0.159195,52.953100C-0.902420,66.499300,3.376210,79.599800,12.169400,89.939400C22.764100,102.401000,37.267500,110.576000,52.114000,116.914000C76.193400,127.189000,102.391000,131.765000,124.551000,114.137000C131.108000,108.921000,136.411000,102.385000,142.089000,96.266800C147.874000,90.030700,154.254000,85.486700,161.021000,80.480700C173.374000,71.344200,183.009000,57.432700,182.752000,41.555300C182.671000,36.458000,181.535000,31.398300,179.562000,26.650100Z" transform="translate(-91.378555,-62.999965)" opacity="0.14" fill="url(#eDAoqJtMwhG3-fill)" stroke="none" stroke-width="1"/></g><g id="eDAoqJtMwhG4_ts" transform="translate(91.533897,58.906773) scale(1,1)"><g id="eDAoqJtMwhG4" transform="translate(-91.533897,-58.906773)"><ellipse id="eDAoqJtMwhG5" rx="60.885400" ry="5.372250" transform="matrix(1 0 0 1 91.53390000000000 106.66000000000000)" opacity="0.1" fill="rgb(6,6,6)" stroke="none" stroke-width="1"/><path id="eDAoqJtMwhG6" d="M44.974600,49.069800L89.800900,77.601000C90.304500,77.986200,90.926700,78.163900,91.519300,78.163900C92.111800,78.163900,92.734000,77.986200,93.237700,77.601000L138.064000,49.069800L93.296900,14.731700C92.260000,13.961400,90.837800,13.961400,89.800900,14.731700L44.974600,49.069800Z" fill="rgb(45,255,179)" stroke="none" stroke-width="1"/><g id="eDAoqJtMwhG7_ts" transform="translate(91.548450,86.373200) scale(1,0.008822)"><path id="eDAoqJtMwhG7" d="M62.425100,14.637900L120.643000,14.637900C123.567000,14.637900,125.950000,17.021300,125.950000,19.944900L125.950000,83.969700C125.950000,85.293500,124.870000,86.373200,123.546000,86.373200L59.521600,86.373200C58.197900,86.373200,57.118200,85.293500,57.118200,83.969700L57.118200,19.944900C57.118200,17.021300,59.501500,14.637900,62.425100,14.637900Z" transform="translate(-91.548450,-86.373200)" opacity="0" fill="rgb(86,0,227)" stroke="rgb(255,255,255)" stroke-width="1"/></g><path id="eDAoqJtMwhG8" d="M93.267300,77.599800C92.763600,77.985000,92.141400,78.162700,91.548900,78.162700C90.956300,78.162700,90.334200,77.985000,89.830500,77.599800L44.974600,49.068600L44.974600,101.450000C44.974600,104.650000,47.581800,107.257000,50.781600,107.257000L132.257000,107.257000C135.457000,107.257000,138.064000,104.650000,138.064000,101.450000L138.064000,49.068600L93.267300,77.599800Z" fill="rgb(31,238,163)" stroke="none" stroke-width="1"/><path id="eDAoqJtMwhG9" d="M132.286000,107.257000L50.810900,107.257000C47.551900,107.257000,45.003900,104.709000,45.003900,101.450000C45.003900,100.531000,45.448300,99.642600,46.189000,99.109300L89.830200,70.015200C90.333800,69.630000,90.956000,69.452300,91.548600,69.452300C92.141100,69.452300,92.763300,69.630000,93.266900,70.015200L136.908000,99.109300C137.649000,99.642600,138.093000,100.531000,138.093000,101.450000C138.093000,104.709000,135.545000,107.257000,132.286000,107.257000Z" fill="rgb(45,255,179)" stroke="none" stroke-width="1"/><g id="eDAoqJtMwhG10_to" transform="translate(90.971043,70.773197)"><g id="eDAoqJtMwhG10_ts" transform="scale(0.013851,0.013851)"><path id="eDAoqJtMwhG10" d="M115.606000,36.625100C115.636000,34.403100,115.073000,32.151400,113.681000,30.433000C112.525000,28.981300,110.836000,27.973900,109.059000,27.411000C107.696000,26.996200,106.303000,26.848100,104.881000,26.937000C104.111000,26.937000,103.341000,26.996200,102.600000,27.114700C102.570000,27.114700,102.570000,27.114700,102.541000,27.114700C102.304000,27.144400,102.067000,27.203600,101.830000,27.262900C101.800000,27.262900,101.770000,27.262900,101.741000,27.292500C101.504000,27.351800,101.296000,27.411000,101.059000,27.470300C100.852000,27.529500,100.615000,27.618400,100.408000,27.707300C100.348000,27.736900,100.319000,27.736900,100.259000,27.766500C100.052000,27.855400,99.874200,27.914700,99.666800,28.003600C99.607600,28.033200,99.578000,28.062800,99.518700,28.062800C99.340900,28.151700,99.163200,28.240600,98.955800,28.329500C98.926200,28.329500,98.926200,28.359100,98.896500,28.359100C96.170800,29.870100,94.185800,32.447700,92.734000,35.203000C92.497000,35.677000,90.275000,42.224700,88.675100,50.253700L88.675100,50.283400C88.615800,50.638900,88.556600,50.964800,88.467700,51.320300C88.112200,52.860900,87.490000,54.312700,86.423400,55.468100C85.504900,56.445900,84.260600,57.068000,82.957000,57.334700C82.186700,57.423600,81.386700,57.364300,80.616400,57.216200C78.275900,56.712500,76.201900,54.905200,75.698300,52.564700C75.194600,50.105600,76.409300,47.705800,77.772200,45.543000C77.920300,45.335600,78.038800,45.098600,78.187000,44.891200C77.890700,44.802300,77.624100,44.713400,77.357400,44.594900C75.876000,43.972700,74.424300,43.143200,73.268800,42.046900C72.883700,41.661800,72.528100,41.217400,72.231900,40.743300C70.898600,38.669400,70.691200,35.765900,72.172600,33.780900C73.268800,32.299500,75.165000,31.558800,77.031500,31.588500C77.150000,31.588500,77.268500,31.588500,77.387000,31.618100C79.342400,31.766200,81.179300,32.743900,82.660700,34.047500C82.690300,34.077200,82.720000,34.106800,82.749600,34.136400C82.897700,34.284600,83.045900,34.403100,83.194000,34.551200C83.253300,34.610500,83.312500,34.669700,83.371800,34.729000C83.519900,34.877100,83.638400,34.995600,83.756900,35.143800C83.816200,35.232600,83.905100,35.291900,83.964300,35.380800C84.082800,35.499300,84.171700,35.647400,84.290200,35.765900C84.349500,35.854800,84.408700,35.943700,84.497600,36.032600C84.586500,36.151100,84.675400,36.269600,84.764300,36.388100C84.882800,36.536200,84.971700,36.684400,85.060500,36.832500C85.119800,36.921400,85.179000,37.010300,85.238300,37.099200C85.327200,37.217700,85.386400,37.336200,85.445700,37.454700C85.475300,37.513900,85.504900,37.573200,85.534600,37.632500C85.682700,37.899100,85.830800,38.165700,85.949400,38.432400C85.979000,38.462000,85.979000,38.491700,86.008600,38.521300C86.512300,39.528600,86.897400,40.595200,87.223300,41.661800C87.401100,42.284000,87.578900,42.876500,87.697400,43.498700C88.201000,41.128500,88.912100,38.462000,89.860200,36.447400C89.652800,36.003000,89.445400,35.588200,89.208400,35.143800C87.756600,32.388400,85.771600,29.810800,83.045900,28.299800C83.016200,28.299800,83.016200,28.270200,82.986600,28.270200C82.808900,28.181300,82.631100,28.092400,82.423700,28.003600C82.364400,27.973900,82.334800,27.944300,82.275600,27.944300C82.068200,27.855400,81.890400,27.766500,81.683000,27.707300C81.623800,27.677700,81.594100,27.677700,81.534900,27.648000C81.327500,27.559100,81.120100,27.499900,80.883100,27.411000C80.646100,27.351700,80.438700,27.292500,80.201600,27.233200C80.172000,27.233200,80.142400,27.233200,80.112800,27.203600C79.875700,27.144400,79.638700,27.085100,79.401700,27.055500C79.372100,27.055500,79.372100,27.055500,79.342400,27.055500C78.601800,26.937000,77.831400,26.848100,77.061100,26.877700C75.668600,26.788800,74.246500,26.937000,72.883700,27.351700C71.106000,27.914700,69.417300,28.922000,68.261800,30.373700C66.898900,32.092100,66.306400,34.314200,66.336000,36.536200C66.336000,36.536200,66.336000,36.536200,66.336000,36.565900C66.336000,36.714000,66.336000,36.862100,66.336000,37.039900C66.336000,37.099200,66.336000,37.128800,66.336000,37.188000C66.336000,37.276900,66.336000,37.365800,66.336000,37.425100C66.336000,37.573200,66.365600,37.721300,66.365600,37.869500C66.365600,37.928700,66.365600,38.017600,66.395300,38.076900C66.424900,38.254600,66.454500,38.432400,66.484200,38.610200C66.484200,38.639800,66.484200,38.699000,66.513800,38.728700C66.543400,38.965700,66.602700,39.173100,66.661900,39.410100C66.721200,39.617500,66.780400,39.824900,66.839700,40.032300L66.839700,40.061900C67.106300,40.950700,67.491500,41.780300,67.965500,42.580200C67.965500,42.580200,67.965500,42.580200,67.965500,42.609900C68.024800,42.698700,68.054400,42.758000,68.113700,42.846900C68.172900,42.965400,68.261800,43.083900,68.350700,43.202400C68.380300,43.232000,68.409900,43.291300,68.439600,43.320900C68.735800,43.765300,69.061700,44.180100,69.387600,44.565300C69.417300,44.594900,69.446900,44.624500,69.476500,44.683800C69.624700,44.831900,69.743200,45.009700,69.891300,45.157800C69.950600,45.217100,69.980200,45.246700,70.039400,45.306000C70.187600,45.454100,70.306100,45.572600,70.454200,45.720700C70.513500,45.780000,70.543100,45.809600,70.602400,45.868900C70.750500,46.017000,70.928300,46.165100,71.076400,46.283700C71.106000,46.313300,71.135700,46.342900,71.165300,46.372500C71.372700,46.550300,71.580100,46.698400,71.787500,46.876200C71.520800,47.557600,71.343000,48.239100,71.224500,48.950100C71.165300,49.246400,71.135700,49.572300,71.106000,49.868600C71.106000,49.927800,71.106000,49.957500,71.106000,50.016700C71.106000,50.105600,71.106000,50.224100,71.106000,50.313000C71.106000,50.401900,71.106000,50.490700,71.106000,50.579600C71.106000,50.668500,71.106000,50.727800,71.106000,50.816600C71.106000,50.935200,71.106000,51.024000,71.106000,51.142500C71.106000,51.172200,71.106000,51.172200,71.106000,51.201800C71.106000,51.349900,71.106000,51.468400,71.135700,51.616600C71.135700,51.646200,71.135700,51.675800,71.135700,51.705500C71.135700,51.824000,71.165300,51.972100,71.165300,52.090600C71.165300,52.149900,71.165300,52.209100,71.194900,52.268400C71.194900,52.386900,71.224500,52.505400,71.254200,52.594300C71.254200,52.653500,71.283800,52.683200,71.283800,52.742400C71.313400,52.890600,71.343000,53.038700,71.372700,53.216500C71.372700,53.246100,71.402300,53.275700,71.402300,53.305300C71.431900,53.423900,71.461600,53.572000,71.491200,53.690500C71.491200,53.749800,71.520800,53.779400,71.520800,53.838600C71.550400,53.957100,71.580100,54.075700,71.609700,54.194200C71.609700,54.223800,71.639300,54.283100,71.639300,54.312700C71.698600,54.460800,71.728200,54.609000,71.787500,54.786700C71.787500,54.816300,71.817100,54.846000,71.817100,54.875600C71.876300,54.994100,71.906000,55.142200,71.965200,55.260800C71.994900,55.290400,71.994900,55.349600,72.024500,55.379300C72.083700,55.497800,72.143000,55.616300,72.172600,55.764400C72.172600,55.794000,72.202200,55.823700,72.202200,55.823700C72.261500,55.971800,72.350400,56.119900,72.409600,56.268100C72.409600,56.297700,72.439300,56.297700,72.439300,56.327300C72.498500,56.445800,72.587400,56.594000,72.646700,56.712500C72.676300,56.742100,72.676300,56.771800,72.705900,56.801400C72.794800,56.919900,72.854000,57.068000,72.942900,57.186500C72.942900,57.186500,72.942900,57.216200,72.972600,57.216200C73.061400,57.364300,73.150300,57.512400,73.268800,57.630900L73.298500,57.660600C73.387300,57.779100,73.476200,57.897600,73.565100,58.016100C73.594700,58.045700,73.594700,58.045700,73.624400,58.075400C73.831700,58.342000,74.039100,58.579000,74.276200,58.816000L74.305800,58.845700C74.394700,58.964200,74.513200,59.053100,74.631700,59.171600C74.661300,59.201200,74.661300,59.201200,74.690900,59.230800C74.928000,59.467800,75.165000,59.675200,75.431600,59.853000C75.461300,59.853000,75.461300,59.882600,75.490900,59.882600C75.609400,59.971500,75.727900,60.060400,75.846400,60.119600C75.876000,60.119600,75.876000,60.149300,75.905700,60.149300C76.172300,60.327000,76.439000,60.475200,76.735200,60.623300C76.764900,60.623300,76.794500,60.652900,76.794500,60.652900C76.913000,60.712200,77.031500,60.771500,77.150000,60.830700C77.179600,60.830700,77.209300,60.860300,77.238900,60.860300C77.387000,60.919600,77.535200,60.978800,77.683300,61.038100C77.712900,61.038100,77.772200,61.067700,77.801800,61.067700C77.950000,61.127000,78.068500,61.156600,78.216600,61.186200C78.275900,61.215900,78.364700,61.215900,78.424000,61.245500C78.542500,61.275100,78.661000,61.304700,78.779500,61.364000C78.838800,61.393600,78.898000,61.393600,78.957300,61.423300C79.135100,61.482500,79.312800,61.512100,79.490600,61.571400C79.520200,61.571400,79.549800,61.571400,79.579500,61.601000C79.727600,61.630600,79.905400,61.660300,80.053500,61.689900C80.112800,61.689900,80.172000,61.719500,80.201600,61.719500C80.349800,61.749200,80.497900,61.778800,80.675700,61.808400C80.705300,61.808400,80.764600,61.808400,80.794200,61.838000C81.001600,61.867700,81.179300,61.897300,81.386700,61.897300C81.416400,61.897300,81.446000,61.897300,81.475600,61.897300C81.623800,61.897300,81.801500,61.926900,81.949700,61.926900C82.008900,61.926900,82.038500,61.926900,82.097800,61.926900C82.275600,61.926900,82.423700,61.926900,82.601500,61.926900C82.631100,61.926900,82.631100,61.926900,82.660700,61.926900L82.690300,61.926900C82.720000,61.926900,82.749600,61.926900,82.779200,61.926900C84.912400,61.867700,87.164100,61.334400,88.912100,60.060400C89.001000,60.001100,89.119500,59.912300,89.208400,59.823400C89.445400,59.645600,89.652800,59.467800,89.830500,59.290100C91.815600,57.216200,92.763700,53.009100,93.178400,50.283400C93.297000,49.424200,93.385800,48.565000,93.504300,47.705800C93.563600,47.231700,93.622900,46.757700,93.682100,46.283700C93.771000,45.661500,93.889500,45.009700,94.008000,44.387500C94.185800,43.498700,94.393200,42.609900,94.659800,41.721000C94.985700,40.624800,95.400500,39.587900,95.874500,38.580500C95.904200,38.550900,95.904200,38.521300,95.933800,38.491600C96.052300,38.225000,96.200400,37.958400,96.348600,37.691700C96.378200,37.632500,96.407800,37.573200,96.437500,37.513900C96.496700,37.395400,96.585600,37.276900,96.644800,37.158400C96.704100,37.069500,96.763400,36.980700,96.822600,36.891800C96.911500,36.743600,97.030000,36.595500,97.118900,36.447400C97.207800,36.328900,97.296600,36.210300,97.385500,36.091800C97.444800,36.002900,97.504000,35.914100,97.592900,35.825200C97.681800,35.706700,97.800300,35.558500,97.918800,35.440000C97.978100,35.351100,98.067000,35.291900,98.126200,35.203000C98.244700,35.054900,98.392900,34.906700,98.511400,34.788200C98.570600,34.729000,98.629900,34.669700,98.689100,34.610500C98.837300,34.462300,98.985400,34.314200,99.133500,34.195700C99.163200,34.166000,99.192800,34.136400,99.222400,34.106800C100.704000,32.803200,102.511000,31.825500,104.496000,31.677300C104.615000,31.677300,104.733000,31.647700,104.852000,31.647700C106.689000,31.618100,108.585000,32.358800,109.711000,33.840100C111.192000,35.825200,110.985000,38.728700,109.651000,40.802600C109.355000,41.276600,108.999000,41.691400,108.614000,42.106200C107.459000,43.202400,106.007000,44.002300,104.526000,44.654100C104.259000,44.772700,103.963000,44.861500,103.696000,44.950400C103.844000,45.157800,103.963000,45.394800,104.111000,45.602200C105.474000,47.765000,106.689000,50.164800,106.185000,52.623900C105.711000,54.964500,103.607000,56.771800,101.267000,57.275400C100.496000,57.453200,99.726100,57.482800,98.926200,57.393900C97.622600,57.127300,96.378200,56.505100,95.459700,55.527400C95.193100,55.260800,94.985700,54.964500,94.778300,54.668200C94.185800,56.712500,93.326600,58.638300,92.645100,59.971500C92.734000,60.030800,92.822900,60.090000,92.911800,60.149300C94.689400,61.423300,96.911500,61.956500,99.044700,62.015800C99.074300,62.015800,99.103900,62.015800,99.133500,62.015800L99.163200,62.015800C99.192800,62.015800,99.192800,62.015800,99.222400,62.015800C99.400200,62.015800,99.548300,62.015800,99.726100,62.015800C99.785400,62.015800,99.815000,62.015800,99.874200,62.015800C100.022000,62.015800,100.200000,61.986200,100.348000,61.986200C100.378000,61.986200,100.408000,61.986200,100.437000,61.986200C100.645000,61.956500,100.822000,61.956500,101.030000,61.926900C101.059000,61.926900,101.119000,61.926900,101.148000,61.897300C101.296000,61.867700,101.444000,61.838000,101.622000,61.808400C101.682000,61.808400,101.741000,61.778800,101.770000,61.778800C101.919000,61.749200,102.096000,61.719500,102.244000,61.689900C102.274000,61.689900,102.304000,61.689900,102.333000,61.660300C102.511000,61.630600,102.689000,61.571400,102.867000,61.512100C102.926000,61.482500,102.985000,61.482500,103.044000,61.452900C103.163000,61.423300,103.281000,61.393600,103.400000,61.334400C103.459000,61.304700,103.548000,61.304700,103.607000,61.275100C103.755000,61.245500,103.874000,61.186200,104.022000,61.156600C104.052000,61.156600,104.111000,61.127000,104.141000,61.127000C104.289000,61.067700,104.437000,61.008500,104.585000,60.949200C104.615000,60.949200,104.644000,60.919600,104.674000,60.919600C104.792000,60.860300,104.911000,60.801100,105.029000,60.741800C105.059000,60.741800,105.089000,60.712200,105.089000,60.712200C105.385000,60.564100,105.652000,60.415900,105.918000,60.238200C105.948000,60.238200,105.948000,60.208500,105.977000,60.208500C106.096000,60.119600,106.215000,60.060400,106.333000,59.971500C106.363000,59.971500,106.363000,59.941900,106.392000,59.941900C106.659000,59.734500,106.896000,59.527100,107.133000,59.319700C107.163000,59.290100,107.163000,59.290100,107.192000,59.260500C107.311000,59.171600,107.400000,59.053100,107.518000,58.934600L107.548000,58.904900C107.785000,58.667900,107.992000,58.430900,108.200000,58.164200C108.229000,58.134600,108.229000,58.134600,108.259000,58.105000C108.348000,57.986500,108.437000,57.868000,108.525000,57.749500L108.555000,57.719800C108.644000,57.571700,108.733000,57.453200,108.851000,57.305000C108.851000,57.305000,108.851000,57.275400,108.881000,57.275400C108.970000,57.156900,109.029000,57.008800,109.118000,56.890300C109.148000,56.860600,109.148000,56.831000,109.177000,56.801400C109.236000,56.682900,109.325000,56.534700,109.385000,56.416200C109.385000,56.386600,109.414000,56.386600,109.414000,56.357000C109.503000,56.208800,109.562000,56.060700,109.622000,55.912600C109.622000,55.882900,109.651000,55.853300,109.651000,55.853300C109.711000,55.734800,109.770000,55.616300,109.799000,55.468100C109.829000,55.438500,109.829000,55.379300,109.859000,55.349600C109.918000,55.231100,109.948000,55.083000,110.007000,54.964500C110.007000,54.934900,110.036000,54.905200,110.036000,54.875600C110.096000,54.727500,110.155000,54.579300,110.185000,54.401600C110.185000,54.371900,110.214000,54.312700,110.214000,54.283100C110.244000,54.164500,110.273000,54.046000,110.303000,53.927500C110.303000,53.868300,110.333000,53.838600,110.333000,53.779400C110.362000,53.660900,110.392000,53.542400,110.422000,53.394200C110.422000,53.364600,110.451000,53.335000,110.451000,53.305300C110.481000,53.157200,110.510000,53.009100,110.540000,52.831300C110.540000,52.772100,110.570000,52.742400,110.570000,52.683200C110.599000,52.564700,110.599000,52.475800,110.629000,52.357300C110.629000,52.298000,110.629000,52.238800,110.659000,52.179500C110.659000,52.061000,110.688000,51.912900,110.688000,51.794300C110.688000,51.764700,110.688000,51.735100,110.688000,51.705500C110.688000,51.557300,110.718000,51.438800,110.718000,51.290700C110.718000,51.261100,110.718000,51.261100,110.718000,51.231400C110.718000,51.112900,110.718000,51.024000,110.718000,50.905500C110.718000,50.816600,110.718000,50.757400,110.718000,50.668500C110.718000,50.579600,110.718000,50.490700,110.718000,50.401900C110.718000,50.313000,110.718000,50.194500,110.718000,50.105600C110.718000,50.046300,110.718000,50.016700,110.718000,49.957500C110.688000,49.631500,110.659000,49.335300,110.599000,49.039000C110.481000,48.327900,110.303000,47.616900,110.036000,46.965100C110.244000,46.816900,110.451000,46.639200,110.659000,46.461400C110.688000,46.431800,110.718000,46.402200,110.747000,46.372500C110.896000,46.224400,111.073000,46.105900,111.222000,45.957800C111.281000,45.898500,111.310000,45.868900,111.370000,45.809600C111.518000,45.661500,111.636000,45.543000,111.784000,45.394800C111.844000,45.335600,111.873000,45.306000,111.933000,45.246700C112.081000,45.098600,112.229000,44.950400,112.347000,44.772700C112.377000,44.743000,112.407000,44.713400,112.436000,44.654100C112.792000,44.269000,113.088000,43.854200,113.384000,43.409800C113.414000,43.380200,113.444000,43.320900,113.473000,43.291300C113.562000,43.172800,113.621000,43.054300,113.710000,42.935800C113.769000,42.846900,113.799000,42.787600,113.858000,42.698700C113.858000,42.698700,113.858000,42.698700,113.858000,42.669100C114.332000,41.869200,114.718000,41.039600,114.984000,40.150800L114.984000,40.121200C115.043000,39.913800,115.103000,39.706400,115.162000,39.499000C115.221000,39.262000,115.280000,39.054600,115.310000,38.817600C115.310000,38.787900,115.310000,38.728700,115.340000,38.699000C115.369000,38.521300,115.399000,38.343500,115.429000,38.165700C115.429000,38.106500,115.458000,38.017600,115.458000,37.958400C115.488000,37.810200,115.488000,37.662100,115.488000,37.513900C115.488000,37.425100,115.488000,37.336200,115.488000,37.276900C115.488000,37.217700,115.488000,37.188000,115.488000,37.128800C115.606000,36.951000,115.606000,36.773300,115.606000,36.625100Z" transform="translate(-90.971043,-44.434347)" opacity="0" fill="rgb(255,255,255)" stroke="none" stroke-width="1"/></g></g><g id="eDAoqJtMwhG11_ts" transform="translate(121.975998,17.122700) rotate(90.317562) scale(0.336409,0.336409)"><circle id="eDAoqJtMwhG11" r="11.341400" transform="translate(0.000002,0)" opacity="0" fill="rgb(45,255,179)" stroke="none" stroke-width="1"/></g></g></g></g></svg>