<svg id="eJpsfv3VUGi1" xmlns="http://www.w3.org/2000/svg" xmlns:xlink="http://www.w3.org/1999/xlink" viewBox="0 0 335 244" shape-rendering="geometricPrecision" text-rendering="geometricPrecision"><style><![CDATA[#eJpsfv3VUGi2_tk {animation: eJpsfv3VUGi2_tk__tk 11111.111111111111ms linear infinite normal forwards}@keyframes eJpsfv3VUGi2_tk__tk { 0% {transform: translate(179.657514px,230.917252px) skewX(0deg) skewY(0deg)} 19% {transform: translate(179.657514px,230.917252px) skewX(2deg) skewY(0deg)} 44% {transform: translate(179.657514px,230.917252px) skewX(-2deg) skewY(0deg)} 70% {transform: translate(179.657514px,230.917252px) skewX(2deg) skewY(0deg)} 99% {transform: translate(179.657514px,230.917252px) skewX(0deg) skewY(0deg)} 100% {transform: translate(179.657514px,230.917252px) skewX(0deg) skewY(0deg)}} #eJpsfv3VUGi3_to {animation: eJpsfv3VUGi3_to__to 11111.111111111111ms linear infinite normal forwards}@keyframes eJpsfv3VUGi3_to__to { 0% {transform: translate(174.242354px,119.203502px)} 40% {transform: translate(174.242354px,119.203502px)} 42% {transform: translate(175.130363px,33.083662px)} 84% {transform: translate(175.130363px,33.083662px)} 88% {transform: translate(174.242354px,119.203502px)} 100% {transform: translate(174.242354px,119.203502px)}} #eJpsfv3VUGi3_tr {animation: eJpsfv3VUGi3_tr__tr 11111.111111111111ms linear infinite normal forwards}@keyframes eJpsfv3VUGi3_tr__tr { 0% {transform: rotate(-40.142943deg)} 40% {transform: rotate(-40.142943deg)} 42% {transform: rotate(0deg)} 84% {transform: rotate(0deg)} 88% {transform: rotate(-40.142943deg)} 100% {transform: rotate(-40.142943deg)}} #eJpsfv3VUGi12_to {animation: eJpsfv3VUGi12_to__to 11111.111111111111ms linear infinite normal forwards}@keyframes eJpsfv3VUGi12_to__to { 0% {transform: translate(200.109483px,142.785422px)} 58% {transform: translate(200.109483px,142.785422px)} 60% {transform: translate(283.353350px,82.509404px)} 84% {transform: translate(283.353350px,82.509404px)} 88% {transform: translate(200.109483px,142.785422px)} 89% {transform: translate(184.073344px,134.834060px)} 100% {transform: translate(184.073344px,134.834060px)}} #eJpsfv3VUGi12_tr {animation: eJpsfv3VUGi12_tr__tr 11111.111111111111ms linear infinite normal forwards}@keyframes eJpsfv3VUGi12_tr__tr { 0% {transform: rotate(40.870900deg)} 58% {transform: rotate(40.870900deg)} 60% {transform: rotate(-9.393973deg)} 84% {transform: rotate(-9.393973deg)} 88% {transform: rotate(40.870900deg)} 100% {transform: rotate(40.870900deg)}} #eJpsfv3VUGi23_to {animation: eJpsfv3VUGi23_to__to 11111.111111111111ms linear infinite normal forwards}@keyframes eJpsfv3VUGi23_to__to { 0% {transform: translate(132.156203px,153.436595px)} 21% {transform: translate(132.156203px,153.436595px)} 23% {transform: translate(42.749353px,171.139267px)} 85% {transform: translate(42.749353px,171.139267px)} 88% {transform: translate(150.071607px,150.540058px)} 100% {transform: translate(150.071607px,150.540058px)}} #eJpsfv3VUGi23_tr {animation: eJpsfv3VUGi23_tr__tr 11111.111111111111ms linear infinite normal forwards}@keyframes eJpsfv3VUGi23_tr__tr { 0% {transform: rotate(73.599371deg)} 21% {transform: rotate(73.599371deg)} 23% {transform: rotate(0deg)} 85% {transform: rotate(0deg)} 88% {transform: rotate(73.599371deg)} 100% {transform: rotate(73.599371deg)}} #eJpsfv3VUGi28_to {animation: eJpsfv3VUGi28_to__to 11111.111111111111ms linear infinite normal forwards}@keyframes eJpsfv3VUGi28_to__to { 0% {transform: translate(132.954758px,139.217838px)} 5% {transform: translate(132.954758px,139.217838px)} 7% {transform: translate(64.218462px,68.207420px)} 85% {transform: translate(64.218462px,68.207420px)} 88% {transform: translate(142.014335px,136.940247px)} 100% {transform: translate(142.014335px,136.940247px)}} #eJpsfv3VUGi28_tr {animation: eJpsfv3VUGi28_tr__tr 11111.111111111111ms linear infinite normal forwards}@keyframes eJpsfv3VUGi28_tr__tr { 0% {transform: rotate(51.636380deg)} 5% {transform: rotate(51.636380deg)} 7% {transform: rotate(0deg)} 85% {transform: rotate(0deg)} 88% {transform: rotate(51.636380deg)} 100% {transform: rotate(51.636380deg)}} #eJpsfv3VUGi34_tk {animation: eJpsfv3VUGi34_tk__tk 11111.111111111111ms linear infinite normal forwards}@keyframes eJpsfv3VUGi34_tk__tk { 0% {transform: translate(230.636887px,202.200409px) skewX(0deg) skewY(0deg)} 18% {transform: translate(230.636887px,202.200409px) skewX(-5deg) skewY(0deg)} 44% {transform: translate(230.636887px,202.200409px) skewX(0deg) skewY(0deg)} 70% {transform: translate(230.636887px,202.200409px) skewX(-5deg) skewY(0deg)} 99% {transform: translate(230.636887px,202.200409px) skewX(0deg) skewY(0deg)} 100% {transform: translate(230.636887px,202.200409px) skewX(0deg) skewY(0deg)}} #eJpsfv3VUGi41_to {animation: eJpsfv3VUGi41_to__to 11111.111111111111ms linear infinite normal forwards}@keyframes eJpsfv3VUGi41_to__to { 0% {transform: translate(165.857000px,226.175068px)} 81% {transform: translate(165.857000px,226.175068px)} 84% {transform: translate(166.741076px,184.171798px)} 94% {transform: translate(166.741076px,184.171798px)} 99% {transform: translate(165.857000px,226.175068px)} 100% {transform: translate(165.857000px,226.175068px)}} #eJpsfv3VUGi41_tr {animation: eJpsfv3VUGi41_tr__tr 11111.111111111111ms linear infinite normal forwards}@keyframes eJpsfv3VUGi41_tr__tr { 0% {transform: rotate(0deg)} 84.800000% {transform: rotate(0deg)} 87% {transform: rotate(6.265747deg)} 89% {transform: rotate(-4.882602deg)} 91% {transform: rotate(0deg)} 100% {transform: rotate(0deg)}} #eJpsfv3VUGi41_ts {animation: eJpsfv3VUGi41_ts__ts 11111.111111111111ms linear infinite normal forwards}@keyframes eJpsfv3VUGi41_ts__ts { 0% {transform: scale(1,1)} 5% {transform: scale(1,1)} 6% {transform: scale(1.047957,0.914201)} 7% {transform: scale(0.958610,1.073412)} 9% {transform: scale(1,1)} 20% {transform: scale(1,1)} 21% {transform: scale(1.047957,0.914201)} 22% {transform: scale(0.958610,1.073412)} 24% {transform: scale(1,1)} 39% {transform: scale(1,1)} 40% {transform: scale(1.047957,0.914201)} 41% {transform: scale(0.958610,1.073412)} 43% {transform: scale(1,1)} 57% {transform: scale(1,1)} 58% {transform: scale(1.047957,0.914201)} 59% {transform: scale(0.958610,1.073412)} 61% {transform: scale(1,1)} 80% {transform: scale(1,1)} 81% {transform: scale(1.047957,0.914201)} 82% {transform: scale(0.958610,1.073412)} 84% {transform: scale(1,1)} 88% {transform: scale(1,1)} 100% {transform: scale(1,1)}} #eJpsfv3VUGi45_tk {animation: eJpsfv3VUGi45_tk__tk 11111.111111111111ms linear infinite normal forwards}@keyframes eJpsfv3VUGi45_tk__tk { 0% {transform: translate(129.522003px,230.917252px) skewX(0deg) skewY(0deg)} 14% {transform: translate(129.522003px,230.917252px) skewX(-6deg) skewY(0deg)} 44% {transform: translate(129.522003px,230.917252px) skewX(5deg) skewY(0deg)} 70% {transform: translate(129.522003px,230.917252px) skewX(-6deg) skewY(0deg)} 99% {transform: translate(129.522003px,230.917252px) skewX(0deg) skewY(0deg)} 100% {transform: translate(129.522003px,230.917252px) skewX(0deg) skewY(0deg)}}]]></style><defs><linearGradient id="eJpsfv3VUGi2-fill" x1="185.715000" y1="10.160200" x2="168.472000" y2="219.074000" spreadMethod="pad" gradientUnits="userSpaceOnUse"><stop id="eJpsfv3VUGi2-fill-0" offset="0%" stop-color="rgb(223,224,224)"/><stop id="eJpsfv3VUGi2-fill-1" offset="100%" stop-color="rgba(38,128,193,0)"/></linearGradient></defs><g id="eJpsfv3VUGi2_tk" transform="translate(179.657514,230.917252) skewX(0) skewY(0)"><path id="eJpsfv3VUGi2" d="M325.287000,79.114300C319.770000,61.851900,307.778000,46.435600,292.309000,37.546900C253.326000,15.141700,223.312000,50.293700,189.345000,64.377500C173.645000,70.888600,157.506000,69.493400,141.887000,63.649700C125.756000,57.608800,111.969000,46.656200,95.066800,42.180800C79.059700,37.945500,60.470900,39.296500,48.717800,52.058900C37.145800,64.624000,30.879200,81.447300,28.184700,98.181000C24.605300,120.331000,29.827500,142.474000,42.811000,160.680000C58.453800,182.621000,81.071100,198.037000,104.503000,210.474000C142.505000,230.635000,184.743000,241.705000,223.396000,215.687000C234.833000,207.986000,244.395000,197.946000,254.521000,188.640000C264.832000,179.154000,275.890000,172.541000,287.644000,165.217000C309.095000,151.844000,326.751000,130.253000,328.490000,104.085000C329.042000,95.675000,327.871000,87.197800,325.287000,79.114300Z" transform="translate(-179.657514,-230.917252)" opacity="0.19" fill="url(#eJpsfv3VUGi2-fill)" stroke="none" stroke-width="1"/></g><g id="eJpsfv3VUGi3_to" transform="translate(174.242354,119.203502)"><g id="eJpsfv3VUGi3_tr" transform="rotate(-40.142943)"><g id="eJpsfv3VUGi3" transform="translate(-175.130363,-33.083662)"><g id="eJpsfv3VUGi4" clip-path="url(#eJpsfv3VUGi7)"><g id="eJpsfv3VUGi5"><path id="eJpsfv3VUGi6" d="M183.971000,32.626500L178.370000,19.361500L176.258000,25.353200L174.315000,24.668200C168.289000,22.544000,161.679000,25.716500,159.550000,31.754300L158.431000,34.929600L159.628000,34.286100C163.699000,32.098800,168.499000,31.726900,172.852000,33.261500L173.402000,33.455400L171.290000,39.447200L183.971000,32.626500Z" fill="rgb(86,0,227)" stroke="none" stroke-width="1"/></g><clipPath id="eJpsfv3VUGi7"><rect id="eJpsfv3VUGi8" width="23.321500" height="23.321500" rx="0" ry="0" transform="matrix(0.94312000000000 0.33245200000000 -0.33245200000000 0.94312000000000 165.85700000000000 13.86180000000000)" fill="rgb(255,255,255)" stroke="none" stroke-width="1"/></clipPath></g><path id="eJpsfv3VUGi9" d="M153.866000,7.665670L144.245000,34.888000C143.737000,36.326900,144.484000,37.902100,145.915000,38.407900L173.646000,48.208600L180.832000,59.412900C181.444000,60.339700,182.687000,60.595800,183.612000,59.977900C183.975000,59.732800,184.254000,59.377200,184.401000,58.960500L186.585000,52.781600L188.133000,53.328700C189.564000,53.834500,191.135000,53.078700,191.643000,51.639800L201.267000,24.411000C201.762000,22.989300,201.018000,21.444800,199.604000,20.952300C199.598000,20.950000,199.585000,20.945400,199.579000,20.943100L157.316000,6.006370C155.910000,5.509690,154.366000,6.252790,153.866000,7.665670Z" fill="none" stroke="rgb(112,133,202)" stroke-width="1" stroke-miterlimit="10"/><path id="eJpsfv3VUGi10" d="M182.095000,10.449900L187.386000,12.319800L187.156000,12.970900L181.865000,11.101000L182.095000,10.449900Z" fill="rgb(112,133,202)" stroke="none" stroke-width="1"/><path id="eJpsfv3VUGi11" d="M204.123000,26.863100L204.770000,27.092000L205.905000,23.882000C206.770000,21.412100,205.489000,18.710600,203.034000,17.843100L191.228000,13.670600L190.998000,14.321700L202.817000,18.498800C204.913000,19.246900,206.009000,21.545900,205.270000,23.657700L204.123000,26.863100Z" fill="rgb(112,133,202)" stroke="none" stroke-width="1"/></g></g></g><g id="eJpsfv3VUGi12_to" transform="translate(200.109483,142.785422)"><g id="eJpsfv3VUGi12_tr" transform="rotate(40.870900)"><g id="eJpsfv3VUGi12" transform="translate(-295.564713,-71.080412)"><g id="eJpsfv3VUGi13" clip-path="url(#eJpsfv3VUGi18)"><g id="eJpsfv3VUGi14"><path id="eJpsfv3VUGi15" d="M300.335000,75.978300L301.451000,74.536800C303.078000,72.434000,303.060000,69.570000,301.595000,67.505900L302.100000,66.853200C302.678000,66.105900,302.541000,65.027500,301.794000,64.449200C301.046000,63.870900,299.968000,64.008400,299.389000,64.755700L298.884000,65.408300C296.519000,64.508500,293.742000,65.209100,292.115000,67.312000L290.999000,68.753500C289.570000,70.600600,287.510000,71.807300,285.200000,72.151200C284.974000,72.184900,284.789000,72.350400,284.731000,72.571900C284.674000,72.793300,284.754000,73.027900,284.935000,73.168000L289.046000,76.349400C288.459000,77.541600,288.770000,79.025100,289.861000,79.869300C290.952000,80.713400,292.466000,80.642300,293.473000,79.775000L297.584000,82.956500C297.765000,83.096500,298.012000,83.115000,298.212000,83.003500C298.412000,82.892000,298.526000,82.672000,298.501000,82.444400C298.255000,80.121800,298.906000,77.825400,300.335000,75.978300ZM300.293000,65.454900C300.486000,65.205800,300.845000,65.160000,301.094000,65.352700C301.343000,65.545500,301.389000,65.905000,301.197000,66.154100L300.830000,66.627800C300.692000,66.498400,300.548000,66.374200,300.395000,66.256200C300.243000,66.138300,300.086000,66.029300,299.926000,65.928600L300.293000,65.454900Z" fill="rgb(86,0,227)" stroke="none" stroke-width="1"/><path id="eJpsfv3VUGi16" d="M302.656000,75.469000C302.463000,75.718500,302.508000,76.077300,302.758000,76.270400C303.007000,76.463500,303.366000,76.417700,303.559000,76.168200C304.960000,74.358200,305.572000,72.111000,305.282000,69.840700C305.242000,69.527800,304.956000,69.306400,304.643000,69.346300C304.331000,69.386200,304.109000,69.672200,304.149000,69.985200C304.400000,71.952800,303.870000,73.900300,302.656000,75.469000Z" fill="rgb(86,0,227)" stroke="none" stroke-width="1"/><path id="eJpsfv3VUGi17" d="M290.108000,66.481900C290.358000,66.675000,290.717000,66.629200,290.910000,66.379700C292.124000,64.811000,293.876000,63.809000,295.844000,63.558100C296.156000,63.518200,296.378000,63.232100,296.338000,62.919200C296.298000,62.606300,296.012000,62.384900,295.699000,62.424800C293.429000,62.714300,291.407000,63.870500,290.006000,65.680500C289.813000,65.930000,289.859000,66.288800,290.108000,66.481900Z" fill="rgb(86,0,227)" stroke="none" stroke-width="1"/></g><clipPath id="eJpsfv3VUGi18"><rect id="eJpsfv3VUGi19" width="19.497900" height="19.497900" rx="0" ry="0" transform="matrix(0.79085800000000 0.61199900000000 -0.61199900000000 0.79085800000000 294.08300000000003 58.48290000000000)" fill="rgb(255,255,255)" stroke="none" stroke-width="1"/></clipPath></g><path id="eJpsfv3VUGi20" d="M325.093000,71.683300L312.065000,98.048400C311.376000,99.442100,309.696000,100.016000,308.310000,99.331100L281.452000,86.059900L268.170000,88.777900C267.058000,88.989700,265.988000,88.264900,265.782000,87.150800C265.703000,86.711400,265.764000,86.255400,265.963000,85.851800L268.921000,79.867500L267.421000,79.126700C266.035000,78.441800,265.470000,76.758300,266.159000,75.364600L279.190000,48.993200C279.876000,47.621600,281.531000,47.066600,282.895000,47.748600C282.902000,47.751700,282.914000,47.757900,282.920000,47.761000L323.852000,67.987000C325.214000,68.659600,325.769000,70.314900,325.093000,71.683300Z" fill="none" stroke="rgb(112,133,202)" stroke-width="1" stroke-miterlimit="10"/><path id="eJpsfv3VUGi21" d="M303.002000,53.062600L297.877000,50.530500L297.566000,51.161100L302.690000,53.693200L303.002000,53.062600Z" fill="rgb(112,133,202)" stroke="none" stroke-width="1"/><path id="eJpsfv3VUGi22" d="M275.371000,48.651900L274.744000,48.341900L276.280000,45.233100C277.468000,42.846300,280.350000,41.861800,282.727000,43.036400L294.161000,48.686500L293.849000,49.317100L282.403000,43.660800C280.367000,42.663000,277.911000,43.496800,276.895000,45.536800L275.371000,48.651900Z" fill="rgb(112,133,202)" stroke="none" stroke-width="1"/></g></g></g><g id="eJpsfv3VUGi23_to" transform="translate(132.156203,153.436595)"><g id="eJpsfv3VUGi23_tr" transform="rotate(73.599371)"><g id="eJpsfv3VUGi23" transform="translate(-42.749353,-171.139267)"><path id="eJpsfv3VUGi24" d="M40.236900,162.825000C37.641200,163.127000,35.781900,165.476000,36.083900,168.072000L36.254600,169.538000C36.295300,169.887000,36.044800,170.204000,35.695200,170.244000L34.252400,170.412000C31.656800,170.714000,29.797400,173.064000,30.099500,175.659000C30.401600,178.255000,32.750700,180.114000,35.346400,179.812000L46.189900,178.550000C46.539500,178.510000,46.789900,178.193000,46.749300,177.844000L45.483700,166.978000C45.181700,164.382000,42.832600,162.523000,40.236900,162.825000Z" fill="rgb(86,0,227)" stroke="none" stroke-width="1"/><path id="eJpsfv3VUGi25" d="M15.251700,184.599000L37.380100,200.954000C38.549800,201.818000,40.193600,201.576000,41.053500,200.413000L57.714200,177.871000L69.928300,174.445000C70.943600,174.145000,71.523400,173.084000,71.218000,172.069000C71.096000,171.669000,70.849500,171.316000,70.510800,171.066000L65.488100,167.354000L66.418000,166.095000C67.277900,164.932000,67.027000,163.289000,65.857300,162.425000L43.723600,146.066000C42.566000,145.218000,40.951100,145.465000,40.108200,146.617000C40.104300,146.622000,40.096500,146.633000,40.092600,146.638000L14.700800,180.992000C13.856500,182.135000,14.103200,183.750000,15.251700,184.599000Z" fill="none" stroke="rgb(112,133,202)" stroke-width="1" stroke-miterlimit="10"/><path id="eJpsfv3VUGi26" d="M25.656600,159.648000L28.835400,155.347000L29.364700,155.738000L26.185900,160.039000L25.656600,159.648000Z" fill="rgb(112,133,202)" stroke="none" stroke-width="1"/><path id="eJpsfv3VUGi27" d="M46.754500,144.146000L47.143600,143.620000L44.534300,141.691000C42.524500,140.214000,39.705200,140.629000,38.230500,142.624000L31.137500,152.221000L31.666800,152.612000L38.767600,143.005000C40.033500,141.303000,42.434300,140.945000,44.153000,142.207000L46.754500,144.146000Z" fill="rgb(112,133,202)" stroke="none" stroke-width="1"/></g></g></g><g id="eJpsfv3VUGi28_to" transform="translate(132.954758,139.217838)"><g id="eJpsfv3VUGi28_tr" transform="rotate(51.636380)"><g id="eJpsfv3VUGi28" transform="translate(-64.218462,-68.207420)"><path id="eJpsfv3VUGi29" d="M34.916200,63.185800L43.065100,92.162900C43.495800,93.694600,45.078700,94.588100,46.602100,94.159700L76.120100,85.858600L88.972900,91.091500C90.051200,91.513700,91.264000,90.985700,91.681300,89.903600C91.843800,89.476500,91.867700,89.006100,91.743000,88.562500L89.893400,81.985300L91.540900,81.522000C93.064400,81.093600,93.949400,79.506000,93.518700,77.974300L85.367800,48.990300C84.936000,47.481300,83.374800,46.611600,81.873900,47.041200C81.867000,47.043100,81.853300,47.047000,81.846400,47.048900L36.859300,59.700200C35.363400,60.120900,34.493200,61.681900,34.916200,63.185800Z" fill="none" stroke="rgb(112,133,202)" stroke-width="1" stroke-miterlimit="10"/><path id="eJpsfv3VUGi30" d="M60.645100,48.606300L66.277100,47.022500L66.472000,47.715500L60.840000,49.299400L60.645100,48.606300Z" fill="rgb(112,133,202)" stroke="none" stroke-width="1"/><path id="eJpsfv3VUGi31" d="M89.274300,49.365100L89.963700,49.171200L89.002800,45.754400C88.257200,43.129700,85.542600,41.597100,82.929900,42.331800L70.363100,45.865900L70.558000,46.558900L83.138600,43.021000C85.374100,42.399800,87.688900,43.700800,88.327300,45.944400L89.274300,49.365100Z" fill="rgb(112,133,202)" stroke="none" stroke-width="1"/><path id="eJpsfv3VUGi32" d="M77.655900,78.315300L57.556200,83.967700C56.970300,84.132500,56.360200,83.788000,56.196500,83.205900L50.520900,63.023800C50.357100,62.441600,50.698300,61.829600,51.284200,61.664900L71.383900,56.012400C71.969800,55.847600,72.573000,56.194000,72.736700,56.776200L78.412300,76.958300C78.578000,77.547400,78.234900,78.152400,77.655900,78.315300Z" fill="rgb(85,54,227)" stroke="none" stroke-width="1"/><path id="eJpsfv3VUGi33" d="M70.364700,63.576000C69.548700,62.975300,68.488500,62.802300,67.447600,63.095000C66.530900,63.352900,65.768800,63.896200,65.189000,64.717400C64.715800,65.389000,64.366200,66.235100,64.163800,67.234400C64.157800,67.266000,64.151800,67.297600,64.145800,67.329200C64.079900,67.676800,64.034700,68.018600,64.003300,68.356500C63.869200,69.889900,64.063000,71.346100,64.318400,72.254100C64.464500,72.773900,64.412900,73.304400,64.199100,73.760900C63.941800,74.326900,63.451500,74.778900,62.803600,74.961100C61.645600,75.286700,60.427300,74.604700,60.099900,73.440400C59.977100,73.003700,59.991100,72.551100,60.139900,72.127800L60.430500,71.283300L59.555200,71.133100C59.345700,71.102200,59.142100,71.039800,58.939700,70.954600C57.711100,70.447500,57.054300,69.196300,57.473300,68.173600C57.685300,67.657800,58.131000,67.285600,58.730700,67.117000C60.143800,66.719600,61.382000,67.657700,62.179600,68.510400C62.564200,68.925700,62.912200,69.396200,63.210000,69.873400C63.180500,69.133800,63.212200,68.347100,63.339300,67.556000C63.317700,67.532200,63.296100,67.508300,63.274600,67.484500C62.580900,66.737200,61.841500,66.197300,61.087700,65.870800C60.166800,65.479100,59.231300,65.405700,58.314500,65.663500C57.280600,65.954200,56.467900,66.661400,56.077600,67.601300C55.710200,68.489900,55.764600,69.476800,56.212800,70.382800C56.651200,71.254200,57.407900,71.961300,58.356400,72.345200C58.416300,72.373200,58.472400,72.387400,58.532300,72.415400C58.473900,72.895500,58.517900,73.369200,58.650400,73.840500C59.204000,75.808800,61.251400,76.953200,63.202100,76.404600C64.091300,76.154500,64.818000,75.591200,65.284400,74.869200C65.423700,74.650500,65.540400,74.430700,65.628600,74.189000C65.914000,73.458100,65.974300,72.641000,65.746200,71.830100C65.561100,71.171700,65.429800,70.228900,65.446300,69.229500C65.451800,68.667100,65.503500,68.084100,65.615300,67.529200C65.849600,66.378900,66.426200,64.937900,67.832300,64.542400C68.432000,64.373800,69.006400,64.459100,69.456200,64.788800C70.346800,65.443200,70.436500,66.846500,69.654300,67.926500C69.525900,68.104700,69.384700,68.264100,69.222000,68.399600L68.553300,68.984000L69.248400,69.551400C69.589000,69.837000,69.843900,70.214100,69.966600,70.650700C70.294100,71.815000,69.616800,73.030100,68.451900,73.357700C67.810800,73.538000,67.150000,73.409700,66.635300,73.060800C66.606300,73.592500,66.482900,74.105900,66.283800,74.588100C67.065100,74.959300,67.972000,75.063200,68.861200,74.813100C70.818800,74.262600,71.960800,72.213900,71.409200,70.252500C71.276700,69.781200,71.058400,69.349000,70.767200,68.974700C70.805700,68.926400,70.844200,68.878200,70.880800,68.823100C71.479300,67.989100,71.774200,67.001300,71.687300,66.031000C71.609400,65.013400,71.134600,64.144800,70.364700,63.576000Z" fill="rgb(255,255,255)" stroke="none" stroke-width="1"/></g></g></g><g id="eJpsfv3VUGi34_tk" transform="translate(230.636887,202.200409) skewX(0) skewY(0)"><g id="eJpsfv3VUGi34" transform="translate(-230.636887,-202.200409)"><g id="eJpsfv3VUGi35" transform="matrix(1 0 0 1 -10.37457274999986 -2.72061156500004)"><path id="eJpsfv3VUGi36" d="M269.247000,201.347000C269.247000,201.347000,265.190000,179.554000,269.608000,176.352000C274.026000,173.151000,275.783000,177.660000,277.561000,176.357000C279.342000,175.035000,274.435000,162.908000,279.538000,159.187000C284.652000,155.526000,285.219000,164.752000,288.113000,162.631000C291.065000,160.498000,294.014000,140.861000,300.313000,143.833000C306.612000,146.805000,293.961000,163.755000,296.435000,164.274000C298.910000,164.794000,302.522000,159.756000,303.987000,165.574000C305.452000,171.392000,287.496000,180.724000,294.477000,182.123000C301.533000,183.512000,298.987000,188.361000,296.467000,192.081000C293.950000,195.783000,282.187000,204.004000,282.187000,204.004000L269.247000,201.347000Z" fill="rgb(45,255,179)" stroke="none" stroke-width="1"/><path id="eJpsfv3VUGi37" d="M303.912000,165.306000C300.259000,168.890000,293.724000,174.776000,288.928000,176.536000C294.401000,162.050000,299.136000,148.057000,300.503000,143.939000C300.438000,143.871000,300.380000,143.883000,300.315000,143.814000C300.250000,143.746000,300.193000,143.758000,300.053000,143.699000C299.034000,146.773000,296.058000,155.551000,292.326000,165.911000C292.061000,162.303000,291.797000,158.019000,291.609000,154.799000C291.498000,155.200000,291.319000,155.552000,291.206000,155.973000C291.433000,160.390000,291.820000,165.802000,291.915000,167.005000C291.625000,167.759000,291.335000,168.513000,291.053000,169.347000L289.417000,160.589000C289.304000,160.871000,289.183000,161.072000,289.062000,161.274000L290.716000,170.174000C289.219000,174.294000,287.554000,178.549000,285.926000,182.810000C282.747000,178.641000,281.513000,165.214000,281.080000,158.249000C280.949000,158.250000,280.772000,158.325000,280.573000,158.417000C281.016000,165.582000,282.260000,179.209000,285.702000,183.354000C283.158000,189.810000,280.482000,196.149000,277.955000,201.536000C274.804000,198.105000,272.474000,182.523000,271.515000,175.187000C271.393000,175.269000,271.208000,175.264000,271.009000,175.355000C271.977000,182.891000,274.299000,198.670000,277.703000,202.017000C277.590000,202.299000,277.404000,202.571000,277.290000,202.853000L277.796000,202.962000C278.798000,200.818000,279.902000,198.470000,281.007000,195.844000C284.557000,194.766000,294.063000,188.893000,299.011000,185.765000C299.001000,185.565000,298.991000,185.365000,298.934000,185.238000C294.251000,188.204000,285.045000,193.920000,281.306000,195.290000C283.467000,190.270000,285.902000,184.334000,288.437000,177.540000C288.492000,177.409000,288.558000,177.199000,288.613000,177.068000C293.476000,175.496000,300.134000,169.528000,303.916000,165.822000C303.916000,165.683000,303.906000,165.622000,303.849000,165.495000C303.915000,165.425000,303.904000,165.364000,303.912000,165.306000Z" fill="rgb(95,187,23)" stroke="none" stroke-width="1"/></g><g id="eJpsfv3VUGi38" transform="matrix(1 0 0 1 -10.37457274999986 -2.72061156500004)"><path id="eJpsfv3VUGi39" d="M241.203000,204.725000C241.203000,204.725000,239.121000,176.311000,248.300000,174.910000C257.427000,173.509000,253.246000,184.805000,257.848000,183.110000C262.451000,181.432000,262.236000,166.131000,272.756000,167.039000C283.277000,167.947000,269.685000,180.082000,276.034000,180.082000C282.382000,180.082000,273.746000,187.374000,273.746000,193.126000C273.746000,198.878000,290.529000,186.742000,292.542000,194.527000C295.406000,205.685000,275.414000,204.915000,275.414000,204.915000L241.203000,204.725000Z" fill="rgb(86,77,159)" stroke="none" stroke-width="1"/><path id="eJpsfv3VUGi40" d="M285.488000,203.747000C278.598000,202.208000,264.042000,200.236000,258.193000,204.024000C257.986000,204.301000,257.780000,204.517000,257.565000,204.863000L256.317000,204.863000C257.221000,203.644000,258.124000,202.346000,259.027000,201.083000C256.877000,194.631000,257.083000,187.201000,257.427000,183.352000C257.427000,183.352000,257.427000,183.352000,257.496000,183.352000C257.565000,183.352000,257.634000,183.352000,257.702000,183.179000C257.702000,183.179000,257.702000,183.179000,257.771000,183.179000C257.771000,183.179000,257.771000,183.179000,257.840000,183.179000C257.840000,183.179000,257.840000,183.179000,257.909000,183.179000C257.909000,183.179000,257.909000,183.179000,257.978000,183.179000C257.978000,183.179000,257.978000,183.179000,258.046000,183.179000L258.115000,183.144000C258.184000,183.144000,258.184000,183.092000,258.253000,183.092000C257.909000,186.604000,257.556000,193.826000,259.500000,200.296000C260.679000,198.480000,261.789000,196.663000,262.915000,194.752000C260.627000,192.650000,260.834000,184.087000,261.315000,178.050000C261.384000,177.842000,261.453000,177.704000,261.522000,177.488000C261.522000,177.418000,261.522000,177.418000,261.591000,177.349000C261.866000,176.579000,262.219000,175.809000,262.563000,175.040000C261.797000,182.262000,261.591000,191.673000,263.397000,193.766000C269.178000,183.378000,273.428000,172.505000,275.096000,167.938000C275.440000,168.146000,275.724000,168.284000,275.931000,168.570000C274.477000,172.575000,271.122000,181.129000,266.597000,189.830000C264.171000,194.605000,261.651000,198.817000,259.294000,202.312000C266.047000,199.007000,283.036000,201.680000,287.768000,203.081000C287.226000,203.185000,286.391000,203.462000,285.488000,203.747000Z" fill="rgb(235,237,245)" stroke="none" stroke-width="1"/></g></g></g><g id="eJpsfv3VUGi41_to" transform="translate(165.857000,226.175068)"><g id="eJpsfv3VUGi41_tr" transform="rotate(0)"><g id="eJpsfv3VUGi41_ts" transform="scale(1,1)"><g id="eJpsfv3VUGi41" transform="translate(-173.540153,-231.372213)"><path id="eJpsfv3VUGi42" d="M236.060000,207.813000L164.391000,234.855000C147.969000,241.085000,129.182000,233.264000,122.642000,217.622000L94.252200,149.355000C87.711500,133.713000,95.922200,115.685000,112.343000,109.455000L184.013000,82.412600C200.434000,76.182400,219.221000,84.003300,225.762000,99.645200L254.151000,167.913000C260.692000,183.687000,252.620000,201.582000,236.060000,207.813000Z" fill="rgb(199,74,84)" stroke="none" stroke-width="1"/><path id="eJpsfv3VUGi43" d="M243.714000,196.545000L172.045000,223.587000C155.623000,229.817000,136.836000,221.997000,130.296000,206.355000L101.906000,138.087000C95.365600,122.445000,103.576000,104.417000,119.998000,98.187200L191.667000,71.145300C208.088000,64.915100,226.875000,72.736000,233.416000,88.377900L261.805000,156.645000C268.207000,172.420000,260.135000,190.315000,243.714000,196.545000Z" fill="rgb(240,98,102)" stroke="none" stroke-width="1"/><path id="eJpsfv3VUGi44" d="M211.567000,118.071000C208.088000,109.852000,198.903000,106.406000,190.832000,110.250000L153.119000,128.410000C145.047000,132.255000,141.429000,142.064000,144.769000,150.150000L152.284000,168.045000C155.763000,176.264000,164.947000,179.711000,173.019000,175.866000L210.732000,157.706000C218.804000,153.862000,222.422000,144.052000,219.082000,135.966000L211.567000,118.071000ZM191.945000,139.413000L180.395000,155.055000C179.838000,155.717000,179.142000,155.585000,178.725000,154.790000L171.488000,137.557000C171.210000,136.762000,171.627000,135.966000,172.323000,136.099000L191.110000,137.690000C192.223000,137.690000,192.502000,138.617000,191.945000,139.413000Z" fill="rgb(255,255,255)" stroke="none" stroke-width="1"/></g></g></g></g><g id="eJpsfv3VUGi45_tk" transform="translate(129.522003,230.917252) skewX(0) skewY(0)"><g id="eJpsfv3VUGi45" transform="translate(-129.522003,-230.917252)"><g id="eJpsfv3VUGi46"><path id="eJpsfv3VUGi47" d="M106.866000,231.370000C106.866000,231.370000,113.656000,210.335000,109.832000,206.561000C106.008000,202.787000,103.721000,207.013000,102.185000,205.480000C100.648000,203.927000,106.973000,192.584000,102.560000,188.200000C98.128500,183.875000,96.359600,192.937000,93.858000,190.441000C91.302900,187.924000,91.070600,168.069000,84.620200,170.153000C78.169900,172.237000,88.086600,190.755000,85.638700,190.932000C83.190800,191.109000,80.385500,185.624000,78.205600,191.188000C76.025700,196.751000,92.053300,208.448000,85.156300,208.881000C78.187700,209.294000,79.992400,214.444000,81.922200,218.474000C83.851900,222.485000,94.072400,232.235000,94.072400,232.235000L106.866000,231.370000Z" fill="rgb(45,255,179)" stroke="none" stroke-width="1"/><path id="eJpsfv3VUGi48" d="M78.313000,190.933000C81.350500,194.983000,86.853900,201.706000,91.231600,204.104000C87.890200,189.006000,85.192200,174.498000,84.423800,170.232000C84.495300,170.173000,84.548900,170.193000,84.620400,170.134000C84.691800,170.075000,84.745400,170.094000,84.888400,170.055000C85.460200,173.240000,87.157700,182.342000,89.373300,193.115000C90.105900,189.576000,90.927800,185.369000,91.535300,182.204000C91.588900,182.617000,91.714000,182.991000,91.767600,183.423000C90.963500,187.768000,89.873600,193.076000,89.623400,194.255000C89.802100,195.042000,89.980800,195.828000,90.141600,196.693000L92.875400,188.240000C92.946900,188.534000,93.036200,188.751000,93.125600,188.967000L90.356000,197.558000C91.249400,201.843000,92.285800,206.286000,93.286400,210.729000C96.895700,207.033000,99.861800,193.901000,101.202000,187.060000C101.327000,187.080000,101.488000,187.178000,101.667000,187.296000C100.291000,194.334000,97.288800,207.662000,93.429300,211.299000C95.019600,218.042000,96.752800,224.687000,98.468100,230.368000C101.952000,227.400000,106.259000,212.282000,108.153000,205.146000C108.260000,205.244000,108.439000,205.264000,108.617000,205.382000C106.687000,212.715000,102.363000,228.029000,98.646800,230.879000C98.718300,231.174000,98.861200,231.469000,98.932700,231.764000L98.432400,231.803000C97.753400,229.543000,97.002900,227.066000,96.288200,224.313000C93.018400,222.760000,84.656100,215.644000,80.314200,211.869000C80.349900,211.673000,80.385600,211.476000,80.457100,211.358000C84.566800,214.936000,92.661000,221.856000,96.073800,223.724000C94.662200,218.455000,93.107700,212.243000,91.571100,205.166000C91.535300,205.028000,91.499600,204.812000,91.463800,204.674000C86.996800,202.453000,81.386300,195.631000,78.241500,191.444000C78.259300,191.306000,78.277200,191.247000,78.348700,191.129000C78.295100,191.051000,78.313000,190.992000,78.313000,190.933000Z" fill="rgb(95,187,23)" stroke="none" stroke-width="1"/></g><g id="eJpsfv3VUGi49" transform="matrix(1 0 0 1 1.44190978000002 0)"><g id="eJpsfv3VUGi50"><g id="eJpsfv3VUGi51"><g id="eJpsfv3VUGi52"><path id="eJpsfv3VUGi53" d="M127.943000,231.824000C127.943000,231.824000,129.433000,211.618000,122.862000,210.623000C116.329000,209.628000,119.322000,217.661000,116.031000,216.455000C112.739000,215.261000,112.888000,204.381000,105.361000,205.028000C97.833800,205.674000,107.560000,214.304000,103.013000,214.304000C98.467300,214.304000,104.653000,219.489000,104.653000,223.580000C104.653000,227.671000,92.641800,219.041000,91.200900,224.575000C89.151400,232.508000,103.461000,231.961000,103.461000,231.961000L127.943000,231.824000Z" fill="rgb(86,77,159)" stroke="none" stroke-width="1"/><path id="eJpsfv3VUGi54" d="M96.243800,231.128000C101.175000,230.034000,111.596000,228.628000,115.782000,231.327000C115.931000,231.526000,116.080000,231.675000,116.229000,231.924000L117.124000,231.924000C116.478000,231.053000,115.832000,230.133000,115.186000,229.238000C116.726000,224.649000,116.577000,219.365000,116.329000,216.629000C116.329000,216.629000,116.329000,216.629000,116.279000,216.629000C116.229000,216.629000,116.180000,216.629000,116.130000,216.505000C116.130000,216.505000,116.130000,216.505000,116.080000,216.505000C116.080000,216.505000,116.080000,216.505000,116.031000,216.505000C116.031000,216.505000,116.031000,216.505000,115.981000,216.505000C115.981000,216.505000,115.981000,216.505000,115.931000,216.505000C115.931000,216.505000,115.931000,216.505000,115.882000,216.505000L115.832000,216.480000C115.782000,216.480000,115.782000,216.443000,115.733000,216.443000C115.981000,218.942000,116.229000,224.077000,114.838000,228.678000C113.994000,227.385000,113.199000,226.092000,112.391000,224.736000C114.031000,223.244000,113.882000,217.151000,113.534000,212.861000C113.484000,212.712000,113.435000,212.613000,113.385000,212.464000C113.385000,212.414000,113.385000,212.414000,113.335000,212.364000C113.137000,211.817000,112.888000,211.270000,112.640000,210.723000C113.186000,215.858000,113.335000,222.548000,112.044000,224.040000C107.907000,216.654000,104.864000,208.920000,103.672000,205.674000C103.423000,205.824000,103.224000,205.923000,103.075000,206.122000C104.119000,208.969000,106.516000,215.050000,109.758000,221.242000C111.497000,224.637000,113.298000,227.634000,114.987000,230.121000C110.156000,227.771000,97.995200,229.673000,94.604200,230.668000C94.989200,230.730000,95.585500,230.929000,96.243800,231.128000Z" fill="rgb(235,237,245)" stroke="none" stroke-width="1"/></g></g></g></g></g></g></svg>