<svg width="221" height="376" viewBox="0 0 221 376" fill="none" xmlns="http://www.w3.org/2000/svg">
<g clip-path="url(#clip0)">
<path d="M0 0V199.778H221V0H0ZM215.864 194.65H5.12794V5.12849H215.864V194.65Z" fill="#E8F1FB"/>
<path d="M217.277 9.35098H3.73169V13.8062H217.277V9.35098Z" fill="#E8F1FB"/>
<path d="M217.277 18.9181H3.73169V23.3733H217.277V18.9181Z" fill="#E8F1FB"/>
<path d="M217.277 28.4851H3.73169V32.9404H217.277V28.4851Z" fill="#E8F1FB"/>
<g clip-path="url(#clip1)">
<path d="M146.657 81.4075C146.657 62.7471 128.323 47.6193 105.709 47.6193C83.0943 47.6193 64.7517 62.7471 64.7517 81.4075C64.7517 100.068 83.086 115.187 105.709 115.187C106.822 115.187 107.919 115.137 109.017 115.071L116.746 124.538L115.848 114.148C133.559 110.425 146.657 97.1753 146.657 81.4075Z" fill="#5600E3"/>
<path d="M123.852 75.9216C127.318 75.9216 130.127 78.731 130.127 82.1971C130.127 85.6632 127.318 88.4727 123.852 88.4727C120.386 88.4727 117.577 85.6632 117.577 82.1971C117.577 78.731 120.386 75.9216 123.852 75.9216ZM99.4256 82.1971C99.4256 85.6632 102.235 88.4727 105.7 88.4727C109.166 88.4727 111.975 85.6632 111.975 82.1971C111.975 78.731 109.166 75.9216 105.7 75.9216C102.243 75.9216 99.4256 78.731 99.4256 82.1971ZM81.2825 82.1971C81.2825 85.6632 84.0916 88.4727 87.5573 88.4727C91.0231 88.4727 93.8322 85.6632 93.8322 82.1971C93.8322 78.731 91.0231 75.9216 87.5573 75.9216C84.0916 75.9216 81.2825 78.731 81.2825 82.1971Z" fill="white"/>
</g>
</g>
<path opacity="0.4" d="M78.8561 59.0069C62.5549 59.0359 45.197 67.3232 34.5716 76.9989C19.8908 90.3665 12.507 118.057 24.0993 132.756C32.3698 143.234 48.412 140.764 61.2568 144.59C73.4206 148.241 81.6491 158.329 95.4502 159.175C106.294 159.805 116.445 154.497 125.56 150.142C140.008 143.243 155.401 138.208 170.248 131.974C180.3 127.766 190.074 122.28 196.07 114.574C209.023 97.9682 201.117 73.3222 180.104 65.3045C173.139 62.6517 164.047 61.32 156.087 62.7666C147.304 64.3922 140.197 69.718 131.364 71.2621C123.375 72.6489 115.67 70.6513 108.864 67.8754C102.163 65.1332 95.8589 61.684 88.5427 60.0288C85.3801 59.3201 82.1595 59.0063 78.8561 59.0069Z" fill="url(#paint0_linear)" fill-opacity="0.2"/>
<g clip-path="url(#clip2)">
<path d="M218.669 376H10.5674C9.27942 376 8.23633 374.955 8.23633 373.665C8.23633 372.374 9.27942 371.329 10.5674 371.329H218.669C219.957 371.329 221 372.374 221 373.665C221 374.955 219.957 376 218.669 376Z" fill="#8092C9"/>
<path d="M141.716 239.28H21.2251C18.9393 239.28 17.089 237.426 17.089 235.136C17.089 232.846 18.9393 230.993 21.2251 230.993H141.716C144.002 230.993 145.852 232.846 145.852 235.136C145.852 237.426 144.002 239.28 141.716 239.28Z" fill="#ADC2DD"/>
<path d="M86.3685 239.28H77.5612V371.338H86.3685V239.28Z" fill="#ABC2E1"/>
<path d="M131.657 371.338H35.4474C35.4474 366.722 39.1844 362.979 43.7921 362.979H123.321C127.92 362.979 131.657 366.722 131.657 371.338Z" fill="#BACFEB"/>
<path d="M68.0464 195.954L70.9036 194.891C71.5748 194.636 71.9104 193.891 71.6655 193.219C71.4115 192.546 70.6677 192.21 69.9965 192.456L67.1394 193.519C66.4681 193.773 66.1325 194.518 66.3774 195.191C66.6314 195.863 67.3752 196.208 68.0464 195.954Z" fill="#2A454B"/>
<path d="M73.9059 198.525L93.9333 193.41L88.5364 178.916L69.9875 187.93C69.153 188.339 68.763 189.311 69.0895 190.184L71.7834 197.399C72.0918 198.271 73.0079 198.753 73.9059 198.525Z" fill="#2A276A"/>
<path d="M88.5273 178.925L95.702 176.245C99.693 174.754 104.147 176.781 105.634 180.788C107.122 184.786 105.099 189.248 101.099 190.738L93.9333 193.419L88.5273 178.925Z" fill="#2DFFB3"/>
<path d="M99.3573 178.843C99.7927 178.68 100.01 178.198 99.8562 177.762C99.6929 177.326 99.2122 177.108 98.7768 177.262C98.3414 177.426 98.1237 177.908 98.2779 178.344C98.4412 178.78 98.9219 179.007 99.3573 178.843Z" fill="#0FC382"/>
<path d="M97.3438 179.598C97.7791 179.434 97.9968 178.953 97.8426 178.516C97.6794 178.08 97.1986 177.862 96.7633 178.017C96.3279 178.18 96.1102 178.662 96.2644 179.098C96.4186 179.534 96.9084 179.761 97.3438 179.598Z" fill="#0FC382"/>
<path d="M95.3573 180.343C95.7927 180.179 96.0104 179.698 95.8562 179.261C95.6929 178.825 95.2122 178.607 94.7768 178.762C94.3414 178.925 94.1237 179.407 94.2779 179.843C94.4321 180.279 94.9219 180.506 95.3573 180.343Z" fill="#0FC382"/>
<path d="M96.9356 181.878C97.3709 181.715 97.5886 181.233 97.4344 180.797C97.2712 180.361 96.7904 180.143 96.3551 180.297C95.9197 180.461 95.702 180.943 95.8562 181.379C96.0195 181.815 96.5002 182.042 96.9356 181.878Z" fill="#0FC382"/>
<path d="M99.0036 181.106C99.4389 180.943 99.6566 180.461 99.5024 180.025C99.3392 179.589 98.8584 179.371 98.4231 179.525C97.9877 179.689 97.77 180.17 97.9242 180.606C98.0784 181.052 98.5682 181.27 99.0036 181.106Z" fill="#0FC382"/>
<path d="M78.695 231.002H83.3572V190.229C83.3572 188.957 82.3231 187.921 81.0533 187.921H80.9898C79.7199 187.921 78.6859 188.957 78.6859 190.229V231.002H78.695Z" fill="#4B646A"/>
<path d="M74.6105 230.998H87.2455V227.654H74.6105V230.998Z" fill="#2A454B"/>
<path d="M80.1554 190.493C80.1554 190.974 80.5454 191.365 81.0261 191.365C81.5069 191.365 81.8969 190.974 81.8969 190.493C81.8969 190.011 81.5069 189.62 81.0261 189.62C80.5454 189.611 80.1554 190.011 80.1554 190.493Z" fill="#354E54"/>
<path d="M85.3345 224.696C85.3345 224.696 84.9807 230.52 85.9513 230.993C86.9218 231.474 87.8923 227.094 87.4388 225.014C86.9853 222.942 85.3345 224.696 85.3345 224.696Z" fill="#E2987D"/>
<path d="M86.5499 224.941C86.5499 224.941 88.101 230.556 89.1803 230.702C90.2597 230.838 89.7518 226.377 88.6452 224.568C87.5386 222.742 86.5499 224.941 86.5499 224.941Z" fill="#E2987D"/>
<path d="M88.7358 224.523C88.7358 224.523 90.2869 230.139 91.3662 230.284C92.4456 230.42 91.9377 225.959 90.8311 224.15C89.7336 222.324 88.7358 224.523 88.7358 224.523Z" fill="#E2987D"/>
<path d="M102.242 220.979L103.412 229.402C103.412 229.402 98.4049 230.693 95.8289 231.002C93.2529 231.302 90.5771 231.447 89.0261 230.62C87.475 229.793 92.9626 228.139 96.6089 228.43L94.6134 225.604C94.6134 225.604 89.5068 225.277 87.6655 225.459C85.8152 225.641 83.9739 230.666 82.2233 230.72C80.4727 230.766 81.933 226.967 83.9285 224.05C85.924 221.133 86.0691 221.079 89.3254 220.688C92.5726 220.298 102.242 220.979 102.242 220.979Z" fill="#F8B3B2"/>
<path d="M205.127 371.338L196.474 296C196.31 294.455 194.923 293.337 193.372 293.501C191.83 293.664 190.714 295.055 190.877 296.609L199.53 371.947C199.694 373.383 205.299 372.883 205.127 371.338Z" fill="#8092C9"/>
<path d="M158.097 372.256L166.85 296.599C167.013 295.055 165.897 293.664 164.356 293.492C162.804 293.328 161.426 294.446 161.253 295.991L152.501 371.647C152.337 373.201 157.934 373.701 158.097 372.256Z" fill="#8092C9"/>
<path d="M156.646 348.14C156.646 343.46 168.428 341.797 178.523 341.797C188.619 341.797 200.401 343.46 200.401 348.14C200.401 352.82 188.619 354.482 178.523 354.482C168.437 354.482 156.646 352.82 156.646 348.14ZM178.523 346.041C169.988 346.041 164.51 347.268 162.714 348.14C164.51 349.012 169.988 350.239 178.523 350.239C187.059 350.239 192.537 349.012 194.333 348.14C192.537 347.277 187.059 346.041 178.523 346.041Z" fill="#8092C9"/>
<path d="M181.335 372.211V297.899C181.335 296.345 180.075 295.082 178.523 295.082C176.972 295.082 175.712 296.345 175.712 297.899V372.211C175.712 373.774 181.335 373.774 181.335 372.211Z" fill="#8092C9"/>
<path d="M156.718 297.908H201.236C203.394 297.908 205.136 296.154 205.136 294.001C205.136 291.838 203.385 290.093 201.236 290.093H156.718C154.56 290.093 152.818 291.847 152.818 294.001C152.809 296.154 154.56 297.908 156.718 297.908Z" fill="#8092C9"/>
<path d="M59.0939 345.904L89.2619 370.539L90.7948 368.076L102.822 348.812L93.8606 342.152L91.7744 340.598C91.7744 340.598 87.2574 350.457 84.5 350.366C82.6496 350.302 81.67 348.776 78.9489 346.586C77.7607 345.623 76.2278 344.551 74.1507 343.415L74.1416 343.406C73.8967 343.269 73.6427 343.142 73.3797 342.997C65.8513 339.117 59.0939 345.904 59.0939 345.904Z" fill="#25252F"/>
<path d="M59.0939 345.904L89.2619 370.539L90.7948 368.076L73.3525 353.719C73.3525 353.719 75.9103 346.368 74.1507 343.424L74.1416 343.415C73.8967 343.278 73.6427 343.151 73.3797 343.006C65.8513 339.117 59.0939 345.904 59.0939 345.904Z" fill="#25252F"/>
<path d="M78.958 346.595L79.3299 348.858C80.8265 350.73 83.9286 354.192 87.3844 351.702C90.3867 349.548 93.1803 343.578 93.8606 342.152L91.7744 340.598C91.7744 340.598 87.2574 350.457 84.5 350.366C82.6496 350.302 81.67 348.776 78.958 346.595Z" fill="#25252F"/>
<path d="M158.097 291.238L128.283 311.111L96.9989 361.434L84.509 350.366C84.509 350.366 104.31 298.998 118.777 290.72C133.235 282.442 158.097 291.238 158.097 291.238Z" fill="#200852"/>
<path d="M107.702 374.492L146.614 373.728L146.197 370.857L142.922 348.376L131.784 349.103L129.19 349.276C129.19 349.276 132.11 359.726 129.952 361.443C128.5 362.597 126.759 362.061 123.285 362.161C121.761 362.197 119.893 362.37 117.58 362.851H117.571C117.298 362.906 117.017 362.97 116.727 363.033C108.464 364.941 107.702 374.492 107.702 374.492Z" fill="#25252F"/>
<path d="M107.702 374.492L146.614 373.728L146.197 370.857L123.63 371.211C123.63 371.211 120.836 363.951 117.589 362.842H117.58C117.308 362.897 117.026 362.96 116.736 363.024C108.464 364.941 107.702 374.492 107.702 374.492Z" fill="#25252F"/>
<path d="M123.294 362.143L125.035 363.624C127.394 364.087 131.983 364.714 133.017 360.571C133.915 356.981 132.192 350.621 131.793 349.094L129.199 349.267C129.199 349.267 132.119 359.716 129.961 361.434C128.509 362.579 126.768 362.052 123.294 362.143Z" fill="#25252F"/>
<path d="M178.641 150.402C178.641 150.402 175.43 139.588 166.242 137.753C157.063 135.917 150.17 143.505 150.859 152.01C151.548 160.515 146.387 161.751 146.387 161.751C146.387 161.751 145.925 163.741 149.135 166.158C149.135 166.158 148.328 175.818 157.172 177.426C166.006 179.034 183.685 171.447 178.641 150.402Z" fill="#F8B3B2"/>
<path d="M161.19 173.628C161.19 173.628 164.718 184.441 162.324 189.611L178.406 185.013C178.406 185.013 175.421 171.101 176.229 163.514L161.19 173.628Z" fill="#F8B3B2"/>
<path d="M161.19 195.191L146.269 214.536L106.233 216.745C104.001 216.572 102.278 218.089 101.879 220.188L99.5205 220.806L100.627 230.066H103.294C104.019 230.702 104.954 231.12 105.997 231.165C118.124 231.647 152.673 232.846 158.786 230.993C166.224 228.73 167.403 205.84 167.403 205.84L161.19 195.191Z" fill="#1FE59E"/>
<path d="M159.648 133.437C159.648 133.437 150.451 127.821 145.852 130.874C141.444 133.791 148.12 136.036 148.12 136.036C148.12 136.036 140.927 136.871 140.246 141.66C139.566 146.449 146.369 142.751 146.369 142.751C146.369 142.751 143.067 146.058 144.818 148.693C146.568 151.32 148.51 146.84 148.51 146.84C148.51 146.84 148.083 149.175 150.822 150.638C150.822 150.638 151.131 146.258 152.981 144.014C152.981 144.014 159.993 146.322 164.129 146.349C164.129 146.349 163.775 153.119 167.421 159.034C171.068 164.95 176.374 171.656 176.374 171.656C176.374 171.656 183.793 162.478 186.224 151.692C188.655 140.897 183.113 137.471 183.113 137.471C183.113 137.471 181.861 135.236 176.8 133.309C168.265 130.056 159.648 133.437 159.648 133.437Z" fill="#292768"/>
<path d="M185.408 180.588C185.408 180.588 195.567 187.312 198.669 204.396C201.081 217.717 206.261 247.367 208.419 259.771C209.027 263.251 207.222 266.731 203.993 268.158C183.004 277.426 159.648 272.301 159.648 272.301C159.648 272.301 155.049 219.925 154.995 209.402C154.941 198.88 156.6 194.655 162.913 187.712L185.408 180.588Z" fill="#2DFFB3"/>
<path d="M169.798 151.692C169.798 151.692 166.17 135.79 159.648 133.437C159.648 133.437 162.324 130.82 166.043 131.883C170.768 133.237 175.031 149.293 175.167 151.692H169.798Z" fill="#5600E3"/>
<path d="M164.12 160.079C164.12 164.832 167.965 168.693 172.718 168.693C177.462 168.693 181.317 164.841 181.317 160.079C181.317 155.327 177.471 150.202 172.718 150.202C167.965 150.193 164.12 155.318 164.12 160.079Z" fill="#5600E3"/>
<path d="M168.265 159.416C168.265 162.224 170.532 164.495 173.335 164.495C176.138 164.495 178.405 162.224 178.405 159.416C178.405 156.608 176.138 153.582 173.335 153.582C170.532 153.582 168.265 156.608 168.265 159.416Z" fill="#D1D1D1"/>
<path d="M204.9 267.74C204.9 267.74 207.222 282.033 197.236 288.24C191.548 291.774 166.179 294.191 145.389 295.618L146.614 362.833L127.158 361.425L117.861 293.464C117.317 281.797 122.015 272.783 133.634 271.774C154.188 270.011 185.335 267.649 204.9 267.74Z" fill="#290476"/>
<path d="M159.639 187.939C160.782 185.613 162.668 183.75 164.927 182.496C168.301 180.625 168.8 179.861 173 176.245C179.186 170.92 181.49 170.529 184.075 170.529C186.669 170.529 188.483 175.291 187.703 177.635C187.703 177.635 193.208 183.714 190.034 185.595C179.004 192.119 159.204 192.265 159.204 192.265C159.204 192.265 158.034 191.211 159.639 187.939Z" fill="#1CE19A"/>
<path d="M185.626 195.654C180.183 194.418 174.796 197.908 173.662 203.378L168.265 229.593L140.138 217.726C137.217 216.49 133.979 217.135 131.757 219.089C130.36 218.598 128.165 217.708 128.165 217.708L124.6 226.467L127.475 228.121C126.986 231.42 128.591 234.773 131.639 236.399C143.067 242.497 167.04 253.864 177.081 247.894C186.487 242.297 191.267 219.852 193.281 206.94C194.088 201.751 190.741 196.817 185.626 195.654Z" fill="#1FEEA3"/>
<path d="M128.382 218.298C128.382 218.298 127.602 213.482 125.707 211.583C123.811 209.684 121.816 208.712 121.045 209.393C120.264 210.075 124.11 214.118 124.11 214.118L115.847 212.719C115.847 212.719 111.702 210.184 110.078 210.184C108.455 210.184 111.376 213.301 113.897 214.536C116.428 215.772 116.945 215.899 116.945 215.899L116.754 216.481C116.754 216.481 114.487 215.963 112.863 215.054C111.239 214.146 108.455 212.001 107.611 212.91C106.768 213.819 110.913 217.617 112.664 218.008C114.414 218.398 115.575 219.007 115.575 219.007L115.312 219.525L111.874 218.944C111.874 218.944 109.054 216.608 108.019 216.608C106.985 216.608 107.53 218.362 109.543 220.179C111.548 221.997 115.249 222.26 115.249 222.26L114.795 223.56L112.001 222.742C112.001 222.742 110.45 220.988 109.87 221.497C109.289 221.997 110.514 224.205 112.01 225.313C113.498 226.413 125.226 226.858 125.226 226.858C125.226 226.858 129.063 219.798 128.382 218.298Z" fill="#F8B3B2"/>
<g clip-path="url(#clip3)">
<path d="M24.8193 304.308C26.5162 310.388 31.7071 311.5 32.0534 311.713C40.5965 314.064 88.4822 314.071 97.1534 311.713C103.092 309.978 104.183 304.658 104.388 304.308C106.649 292.156 106.798 276.314 104.284 262.525L104.388 263.211C102.691 257.131 97.4997 256.019 97.1534 255.806C88.7246 253.493 40.7143 253.406 32.0534 255.806C26.1145 257.544 25.0236 262.861 24.8193 263.211C22.3987 275.982 22.2775 290.635 24.8193 304.308ZM56.2837 296.532V271.022L77.9825 283.796L56.2837 296.532Z" fill="#E53935"/>
</g>
<path d="M47.5972 372.646C47.5972 372.646 49.1635 351.411 42.2589 350.366C35.3934 349.321 38.539 357.762 35.0802 356.495C31.6214 355.24 31.778 343.806 23.8684 344.486C15.9588 345.165 26.1786 354.234 21.4015 354.234C16.6244 354.234 23.1244 359.683 23.1244 363.983C23.1244 368.282 10.503 359.213 8.98894 365.028C6.83533 373.365 21.8714 372.79 21.8714 372.79L47.5972 372.646Z" fill="#564D9F"/>
<path d="M14.2881 371.915C19.4698 370.765 30.4205 369.288 34.8191 372.124C34.9757 372.333 35.1324 372.49 35.289 372.751H36.2288C35.55 371.836 34.8713 370.869 34.1926 369.928C35.8111 365.106 35.6545 359.553 35.3934 356.678C35.3934 356.678 35.3934 356.678 35.3412 356.678C35.289 356.678 35.2368 356.678 35.1846 356.547C35.1846 356.547 35.1846 356.547 35.1324 356.547C35.1324 356.547 35.1324 356.547 35.0802 356.547C35.0802 356.547 35.0802 356.547 35.028 356.547C35.028 356.547 35.028 356.547 34.9758 356.547C34.9758 356.547 34.9758 356.547 34.9235 356.547L34.8713 356.521C34.8191 356.521 34.8191 356.482 34.7669 356.482C35.028 359.108 35.289 364.505 33.8272 369.34C32.9396 367.981 32.1043 366.622 31.2559 365.198C32.9788 363.63 32.8221 357.227 32.4567 352.718C32.4045 352.561 32.3523 352.457 32.3001 352.3C32.3001 352.248 32.3001 352.248 32.2479 352.196C32.039 351.621 31.778 351.046 31.5169 350.471C32.0912 355.868 32.2478 362.898 30.8904 364.466C26.5441 356.704 23.3463 348.576 22.0933 345.165C21.8322 345.322 21.6234 345.426 21.4668 345.636C22.5631 348.628 25.0822 355.018 28.4888 361.526C30.3161 365.093 32.2087 368.243 33.9838 370.856C28.9065 368.386 16.1284 370.386 12.5652 371.431C12.9698 371.496 13.5963 371.705 14.2881 371.915Z" fill="#EBEDF5"/>
</g>
<defs>
<linearGradient id="paint0_linear" x1="90.792" y1="63.7673" x2="114.316" y2="133.358" gradientUnits="userSpaceOnUse">
<stop stop-color="#2680C1"/>
<stop offset="1" stop-color="#2680C1" stop-opacity="0"/>
</linearGradient>
<clipPath id="clip0">
<rect width="221" height="199.778" fill="white"/>
</clipPath>
<clipPath id="clip1">
<rect width="81.9057" height="76.919" fill="white" transform="translate(64.7517 47.6193)"/>
</clipPath>
<clipPath id="clip2">
<rect width="212.764" height="246.034" fill="white" transform="translate(8.23633 129.966)"/>
</clipPath>
<clipPath id="clip3">
<rect width="83.1108" height="83.951" fill="white" transform="translate(23.0116 241.786)"/>
</clipPath>
</defs>
</svg>
