<svg width="335" height="244" viewBox="0 0 335 244" fill="none" xmlns="http://www.w3.org/2000/svg">
<path opacity="0.19" d="M325.287 79.1143C319.77 61.8519 307.778 46.4356 292.309 37.5469C253.326 15.1417 223.312 50.2937 189.345 64.3775C173.645 70.8886 157.506 69.4934 141.887 63.6497C125.756 57.6088 111.969 46.6562 95.0668 42.1808C79.0597 37.9455 60.4709 39.2965 48.7178 52.0589C37.1458 64.624 30.8792 81.4473 28.1847 98.181C24.6053 120.331 29.8275 142.474 42.811 160.68C58.4538 182.621 81.0711 198.037 104.503 210.474C142.505 230.635 184.743 241.705 223.396 215.687C234.833 207.986 244.395 197.946 254.521 188.64C264.832 179.154 275.89 172.541 287.644 165.217C309.095 151.844 326.751 130.253 328.49 104.085C329.042 95.675 327.871 87.1978 325.287 79.1143Z" fill="url(#paint0_linear)"/>
<g clip-path="url(#clip0)">
<path d="M183.971 32.6265L178.37 19.3615L176.258 25.3532L174.315 24.6682C168.289 22.544 161.679 25.7165 159.55 31.7543L158.431 34.9296L159.628 34.2861C163.699 32.0988 168.499 31.7269 172.852 33.2615L173.402 33.4554L171.29 39.4472L183.971 32.6265Z" fill="#5600E3"/>
</g>
<path d="M153.866 7.66567L144.245 34.888C143.737 36.3269 144.484 37.9021 145.915 38.4079L173.646 48.2086L180.832 59.4129C181.444 60.3397 182.687 60.5958 183.612 59.9779C183.975 59.7328 184.254 59.3772 184.401 58.9605L186.585 52.7816L188.133 53.3287C189.564 53.8345 191.135 53.0787 191.643 51.6398L201.267 24.411C201.762 22.9893 201.018 21.4448 199.604 20.9523C199.598 20.95 199.585 20.9454 199.579 20.9431L157.316 6.00637C155.91 5.50969 154.366 6.25279 153.866 7.66567Z" stroke="#7085CA" stroke-miterlimit="10"/>
<path d="M182.095 10.4499L187.386 12.3198L187.156 12.9709L181.865 11.101L182.095 10.4499Z" fill="#7085CA"/>
<path d="M204.123 26.8631L204.77 27.092L205.905 23.882C206.77 21.4121 205.489 18.7106 203.034 17.8431L191.228 13.6706L190.998 14.3217L202.817 18.4988C204.913 19.2469 206.009 21.5459 205.27 23.6577L204.123 26.8631Z" fill="#7085CA"/>
<g clip-path="url(#clip1)">
<path d="M300.335 75.9783L301.451 74.5368C303.078 72.434 303.06 69.57 301.595 67.5059L302.1 66.8532C302.678 66.1059 302.541 65.0275 301.794 64.4492C301.046 63.8709 299.968 64.0084 299.389 64.7557L298.884 65.4083C296.519 64.5085 293.742 65.2091 292.115 67.312L290.999 68.7535C289.57 70.6006 287.51 71.8073 285.2 72.1512C284.974 72.1849 284.789 72.3504 284.731 72.5719C284.674 72.7933 284.754 73.0279 284.935 73.168L289.046 76.3494C288.459 77.5416 288.77 79.0251 289.861 79.8693C290.952 80.7134 292.466 80.6423 293.473 79.775L297.584 82.9565C297.765 83.0965 298.012 83.115 298.212 83.0035C298.412 82.892 298.526 82.672 298.501 82.4444C298.255 80.1218 298.906 77.8254 300.335 75.9783ZM300.293 65.4549C300.486 65.2058 300.845 65.16 301.094 65.3527C301.343 65.5455 301.389 65.905 301.197 66.1541L300.83 66.6278C300.692 66.4984 300.548 66.3742 300.395 66.2562C300.243 66.1383 300.086 66.0293 299.926 65.9286L300.293 65.4549Z" fill="#5600E3"/>
<path d="M302.656 75.469C302.463 75.7185 302.508 76.0773 302.758 76.2704C303.007 76.4635 303.366 76.4177 303.559 76.1682C304.96 74.3582 305.572 72.111 305.282 69.8407C305.242 69.5278 304.956 69.3064 304.643 69.3463C304.331 69.3862 304.109 69.6722 304.149 69.9852C304.4 71.9528 303.87 73.9003 302.656 75.469Z" fill="#5600E3"/>
<path d="M290.108 66.4819C290.358 66.675 290.717 66.6292 290.91 66.3797C292.124 64.811 293.876 63.809 295.844 63.5581C296.156 63.5182 296.378 63.2321 296.338 62.9192C296.298 62.6063 296.012 62.3849 295.699 62.4248C293.429 62.7143 291.407 63.8705 290.006 65.6805C289.813 65.93 289.859 66.2888 290.108 66.4819Z" fill="#5600E3"/>
</g>
<path d="M325.093 71.6833L312.065 98.0484C311.376 99.4421 309.696 100.016 308.31 99.3311L281.452 86.0599L268.17 88.7779C267.058 88.9897 265.988 88.2649 265.782 87.1508C265.703 86.7114 265.764 86.2554 265.963 85.8518L268.921 79.8675L267.421 79.1267C266.035 78.4418 265.47 76.7583 266.159 75.3646L279.19 48.9932C279.876 47.6216 281.531 47.0666 282.895 47.7486C282.902 47.7517 282.914 47.7579 282.92 47.761L323.852 67.987C325.214 68.6596 325.769 70.3149 325.093 71.6833Z" stroke="#7085CA" stroke-miterlimit="10"/>
<path d="M303.002 53.0626L297.877 50.5305L297.566 51.1611L302.69 53.6932L303.002 53.0626Z" fill="#7085CA"/>
<path d="M275.371 48.6519L274.744 48.3419L276.28 45.2331C277.468 42.8463 280.35 41.8618 282.727 43.0364L294.161 48.6865L293.849 49.3171L282.403 43.6608C280.367 42.663 277.911 43.4968 276.895 45.5368L275.371 48.6519Z" fill="#7085CA"/>
<path d="M40.2369 162.825C37.6412 163.127 35.7819 165.476 36.0839 168.072L36.2546 169.538C36.2953 169.887 36.0448 170.204 35.6952 170.244L34.2524 170.412C31.6568 170.714 29.7974 173.064 30.0995 175.659C30.4016 178.255 32.7507 180.114 35.3464 179.812L46.1899 178.55C46.5395 178.51 46.7899 178.193 46.7493 177.844L45.4837 166.978C45.1817 164.382 42.8326 162.523 40.2369 162.825Z" fill="#5600E3"/>
<path d="M15.2517 184.599L37.3801 200.954C38.5498 201.818 40.1936 201.576 41.0535 200.413L57.7142 177.871L69.9283 174.445C70.9436 174.145 71.5234 173.084 71.218 172.069C71.096 171.669 70.8495 171.316 70.5108 171.066L65.4881 167.354L66.418 166.095C67.2779 164.932 67.027 163.289 65.8573 162.425L43.7236 146.066C42.566 145.218 40.9511 145.465 40.1082 146.617C40.1043 146.622 40.0965 146.633 40.0926 146.638L14.7008 180.992C13.8565 182.135 14.1032 183.75 15.2517 184.599Z" stroke="#7085CA" stroke-miterlimit="10"/>
<path d="M25.6566 159.648L28.8354 155.347L29.3647 155.738L26.1859 160.039L25.6566 159.648Z" fill="#7085CA"/>
<path d="M46.7545 144.146L47.1436 143.62L44.5343 141.691C42.5245 140.214 39.7052 140.629 38.2305 142.624L31.1375 152.221L31.6668 152.612L38.7676 143.005C40.0335 141.303 42.4343 140.945 44.153 142.207L46.7545 144.146Z" fill="#7085CA"/>
<path d="M34.9162 63.1858L43.0651 92.1629C43.4958 93.6946 45.0787 94.5881 46.6021 94.1597L76.1201 85.8586L88.9729 91.0915C90.0512 91.5137 91.264 90.9857 91.6813 89.9036C91.8438 89.4765 91.8677 89.0061 91.743 88.5625L89.8934 81.9853L91.5409 81.522C93.0644 81.0936 93.9494 79.506 93.5187 77.9743L85.3678 48.9903C84.936 47.4813 83.3748 46.6116 81.8739 47.0412C81.867 47.0431 81.8533 47.047 81.8464 47.0489L36.8593 59.7002C35.3634 60.1209 34.4932 61.6819 34.9162 63.1858Z" stroke="#7085CA" stroke-miterlimit="10"/>
<path d="M60.6451 48.6063L66.2771 47.0225L66.472 47.7155L60.84 49.2994L60.6451 48.6063Z" fill="#7085CA"/>
<path d="M89.2743 49.3651L89.9637 49.1712L89.0028 45.7544C88.2572 43.1297 85.5426 41.5971 82.9299 42.3318L70.3631 45.8659L70.558 46.5589L83.1386 43.021C85.3741 42.3998 87.6889 43.7008 88.3273 45.9444L89.2743 49.3651Z" fill="#7085CA"/>
<path d="M77.6559 78.3153L57.5562 83.9677C56.9703 84.1325 56.3602 83.788 56.1965 83.2059L50.5209 63.0238C50.3571 62.4416 50.6983 61.8296 51.2842 61.6649L71.3839 56.0124C71.9698 55.8476 72.573 56.194 72.7367 56.7762L78.4123 76.9583C78.578 77.5474 78.2349 78.1524 77.6559 78.3153Z" fill="#5536E3"/>
<path d="M70.3647 63.576C69.5487 62.9753 68.4885 62.8023 67.4476 63.095C66.5309 63.3529 65.7688 63.8962 65.189 64.7174C64.7158 65.389 64.3662 66.2351 64.1638 67.2344C64.1578 67.266 64.1518 67.2976 64.1458 67.3292C64.0799 67.6768 64.0347 68.0186 64.0033 68.3565C63.8692 69.8899 64.063 71.3461 64.3184 72.2541C64.4645 72.7739 64.4129 73.3044 64.1991 73.7609C63.9418 74.3269 63.4515 74.7789 62.8036 74.9611C61.6456 75.2867 60.4273 74.6047 60.0999 73.4404C59.9771 73.0037 59.9911 72.5511 60.1399 72.1278L60.4305 71.2833L59.5552 71.1331C59.3457 71.1022 59.1421 71.0398 58.9397 70.9546C57.7111 70.4475 57.0543 69.1963 57.4733 68.1736C57.6853 67.6578 58.131 67.2856 58.7307 67.117C60.1438 66.7196 61.382 67.6577 62.1796 68.5104C62.5642 68.9257 62.9122 69.3962 63.21 69.8734C63.1805 69.1338 63.2122 68.3471 63.3393 67.556C63.3177 67.5322 63.2961 67.5083 63.2746 67.4845C62.5809 66.7372 61.8415 66.1973 61.0877 65.8708C60.1668 65.4791 59.2313 65.4057 58.3145 65.6635C57.2806 65.9542 56.4679 66.6614 56.0776 67.6013C55.7102 68.4899 55.7646 69.4768 56.2128 70.3828C56.6512 71.2542 57.4079 71.9613 58.3564 72.3452C58.4163 72.3732 58.4724 72.3874 58.5323 72.4154C58.4739 72.8955 58.5179 73.3692 58.6504 73.8405C59.204 75.8088 61.2514 76.9532 63.2021 76.4046C64.0913 76.1545 64.818 75.5912 65.2844 74.8692C65.4237 74.6505 65.5404 74.4307 65.6286 74.189C65.914 73.4581 65.9743 72.641 65.7462 71.8301C65.5611 71.1717 65.4298 70.2289 65.4463 69.2295C65.4518 68.6671 65.5035 68.0841 65.6153 67.5292C65.8496 66.3789 66.4262 64.9379 67.8323 64.5424C68.432 64.3738 69.0064 64.4591 69.4562 64.7888C70.3468 65.4432 70.4365 66.8465 69.6543 67.9265C69.5259 68.1047 69.3847 68.2641 69.222 68.3996L68.5533 68.984L69.2484 69.5514C69.589 69.837 69.8439 70.2141 69.9666 70.6507C70.2941 71.815 69.6168 73.0301 68.4519 73.3577C67.8108 73.538 67.15 73.4097 66.6353 73.0608C66.6063 73.5925 66.4829 74.1059 66.2838 74.5881C67.0651 74.9593 67.972 75.0632 68.8612 74.8131C70.8188 74.2626 71.9608 72.2139 71.4092 70.2525C71.2767 69.7812 71.0584 69.349 70.7672 68.9747C70.8057 68.9264 70.8442 68.8782 70.8808 68.8231C71.4793 67.9891 71.7742 67.0013 71.6873 66.031C71.6094 65.0134 71.1346 64.1448 70.3647 63.576Z" fill="white"/>
<path d="M106.866 231.37C106.866 231.37 113.656 210.335 109.832 206.561C106.008 202.787 103.721 207.013 102.185 205.48C100.648 203.927 106.973 192.584 102.56 188.2C98.1285 183.875 96.3596 192.937 93.858 190.441C91.3029 187.924 91.0706 168.069 84.6202 170.153C78.1699 172.237 88.0866 190.755 85.6387 190.932C83.1908 191.109 80.3855 185.624 78.2056 191.188C76.0257 196.751 92.0533 208.448 85.1563 208.881C78.1877 209.294 79.9924 214.444 81.9222 218.474C83.8519 222.485 94.0724 232.235 94.0724 232.235L106.866 231.37Z" fill="#2DFFB3"/>
<path d="M78.313 190.933C81.3505 194.983 86.8539 201.706 91.2316 204.104C87.8902 189.006 85.1922 174.498 84.4238 170.232C84.4953 170.173 84.5489 170.193 84.6204 170.134C84.6918 170.075 84.7454 170.094 84.8884 170.055C85.4602 173.24 87.1577 182.342 89.3733 193.115C90.1059 189.576 90.9278 185.369 91.5353 182.204C91.5889 182.617 91.714 182.991 91.7676 183.423C90.9635 187.768 89.8736 193.076 89.6234 194.255C89.8021 195.042 89.9808 195.828 90.1416 196.693L92.8754 188.24C92.9469 188.534 93.0362 188.751 93.1256 188.967L90.356 197.558C91.2494 201.843 92.2858 206.286 93.2864 210.729C96.8957 207.033 99.8618 193.901 101.202 187.06C101.327 187.08 101.488 187.178 101.667 187.296C100.291 194.334 97.2888 207.662 93.4293 211.299C95.0196 218.042 96.7528 224.687 98.4681 230.368C101.952 227.4 106.259 212.282 108.153 205.146C108.26 205.244 108.439 205.264 108.617 205.382C106.687 212.715 102.363 228.029 98.6468 230.879C98.7183 231.174 98.8612 231.469 98.9327 231.764L98.4324 231.803C97.7534 229.543 97.0029 227.066 96.2882 224.313C93.0184 222.76 84.6561 215.644 80.3142 211.869C80.3499 211.673 80.3856 211.476 80.4571 211.358C84.5668 214.936 92.661 221.856 96.0738 223.724C94.6622 218.455 93.1077 212.243 91.5711 205.166C91.5353 205.028 91.4996 204.812 91.4638 204.674C86.9968 202.453 81.3863 195.631 78.2415 191.444C78.2593 191.306 78.2772 191.247 78.3487 191.129C78.2951 191.051 78.313 190.992 78.313 190.933Z" fill="#5FBB17"/>
<path d="M269.247 201.347C269.247 201.347 265.19 179.554 269.608 176.352C274.026 173.151 275.783 177.66 277.561 176.357C279.342 175.035 274.435 162.908 279.538 159.187C284.652 155.526 285.219 164.752 288.113 162.631C291.065 160.498 294.014 140.861 300.313 143.833C306.612 146.805 293.961 163.755 296.435 164.274C298.91 164.794 302.522 159.756 303.987 165.574C305.452 171.392 287.496 180.724 294.477 182.123C301.533 183.512 298.987 188.361 296.467 192.081C293.95 195.783 282.187 204.004 282.187 204.004L269.247 201.347Z" fill="#2DFFB3"/>
<path d="M303.912 165.306C300.259 168.89 293.724 174.776 288.928 176.536C294.401 162.05 299.136 148.057 300.503 143.939C300.438 143.871 300.38 143.883 300.315 143.814C300.25 143.746 300.193 143.758 300.053 143.699C299.034 146.773 296.058 155.551 292.326 165.911C292.061 162.303 291.797 158.019 291.609 154.799C291.498 155.2 291.319 155.552 291.206 155.973C291.433 160.39 291.82 165.802 291.915 167.005C291.625 167.759 291.335 168.513 291.053 169.347L289.417 160.589C289.304 160.871 289.183 161.072 289.062 161.274L290.716 170.174C289.219 174.294 287.554 178.549 285.926 182.81C282.747 178.641 281.513 165.214 281.08 158.249C280.949 158.25 280.772 158.325 280.573 158.417C281.016 165.582 282.26 179.209 285.702 183.354C283.158 189.81 280.482 196.149 277.955 201.536C274.804 198.105 272.474 182.523 271.515 175.187C271.393 175.269 271.208 175.264 271.009 175.355C271.977 182.891 274.299 198.67 277.703 202.017C277.59 202.299 277.404 202.571 277.29 202.853L277.796 202.962C278.798 200.818 279.902 198.47 281.007 195.844C284.557 194.766 294.063 188.893 299.011 185.765C299.001 185.565 298.991 185.365 298.934 185.238C294.251 188.204 285.045 193.92 281.306 195.29C283.467 190.27 285.902 184.334 288.437 177.54C288.492 177.409 288.558 177.199 288.613 177.068C293.476 175.496 300.134 169.528 303.916 165.822C303.916 165.683 303.906 165.622 303.849 165.495C303.915 165.425 303.904 165.364 303.912 165.306Z" fill="#5FBB17"/>
<path d="M127.943 231.824C127.943 231.824 129.433 211.618 122.862 210.623C116.329 209.628 119.322 217.661 116.031 216.455C112.739 215.261 112.888 204.381 105.361 205.028C97.8338 205.674 107.56 214.304 103.013 214.304C98.4673 214.304 104.653 219.489 104.653 223.58C104.653 227.671 92.6418 219.041 91.2009 224.575C89.1514 232.508 103.461 231.961 103.461 231.961L127.943 231.824Z" fill="#564D9F"/>
<path d="M96.2438 231.128C101.175 230.034 111.596 228.628 115.782 231.327C115.931 231.526 116.08 231.675 116.229 231.924H117.124C116.478 231.053 115.832 230.133 115.186 229.238C116.726 224.649 116.577 219.365 116.329 216.629C116.329 216.629 116.329 216.629 116.279 216.629C116.229 216.629 116.18 216.629 116.13 216.505C116.13 216.505 116.13 216.505 116.08 216.505C116.08 216.505 116.08 216.505 116.031 216.505C116.031 216.505 116.031 216.505 115.981 216.505C115.981 216.505 115.981 216.505 115.931 216.505C115.931 216.505 115.931 216.505 115.882 216.505L115.832 216.48C115.782 216.48 115.782 216.443 115.733 216.443C115.981 218.942 116.229 224.077 114.838 228.678C113.994 227.385 113.199 226.092 112.391 224.736C114.031 223.244 113.882 217.151 113.534 212.861C113.484 212.712 113.435 212.613 113.385 212.464C113.385 212.414 113.385 212.414 113.335 212.364C113.137 211.817 112.888 211.27 112.64 210.723C113.186 215.858 113.335 222.548 112.044 224.04C107.907 216.654 104.864 208.92 103.672 205.674C103.423 205.824 103.224 205.923 103.075 206.122C104.119 208.969 106.516 215.05 109.758 221.242C111.497 224.637 113.298 227.634 114.987 230.121C110.156 227.771 97.9952 229.673 94.6042 230.668C94.9892 230.73 95.5855 230.929 96.2438 231.128Z" fill="#EBEDF5"/>
<path d="M241.203 204.725C241.203 204.725 239.121 176.311 248.3 174.91C257.427 173.509 253.246 184.805 257.848 183.11C262.451 181.432 262.236 166.131 272.756 167.039C283.277 167.947 269.685 180.082 276.034 180.082C282.382 180.082 273.746 187.374 273.746 193.126C273.746 198.878 290.529 186.742 292.542 194.527C295.406 205.685 275.414 204.915 275.414 204.915L241.203 204.725Z" fill="#564D9F"/>
<path d="M285.488 203.747C278.598 202.208 264.042 200.236 258.193 204.024C257.986 204.301 257.78 204.517 257.565 204.863H256.317C257.221 203.644 258.124 202.346 259.027 201.083C256.877 194.631 257.083 187.201 257.427 183.352C257.427 183.352 257.427 183.352 257.496 183.352C257.565 183.352 257.634 183.352 257.702 183.179C257.702 183.179 257.702 183.179 257.771 183.179C257.771 183.179 257.771 183.179 257.84 183.179C257.84 183.179 257.84 183.179 257.909 183.179C257.909 183.179 257.909 183.179 257.978 183.179C257.978 183.179 257.978 183.179 258.046 183.179L258.115 183.144C258.184 183.144 258.184 183.092 258.253 183.092C257.909 186.604 257.556 193.826 259.5 200.296C260.679 198.48 261.789 196.663 262.915 194.752C260.627 192.65 260.834 184.087 261.315 178.05C261.384 177.842 261.453 177.704 261.522 177.488C261.522 177.418 261.522 177.418 261.591 177.349C261.866 176.579 262.219 175.809 262.563 175.04C261.797 182.262 261.591 191.673 263.397 193.766C269.178 183.378 273.428 172.505 275.096 167.938C275.44 168.146 275.724 168.284 275.931 168.57C274.477 172.575 271.122 181.129 266.597 189.83C264.171 194.605 261.651 198.817 259.294 202.312C266.047 199.007 283.036 201.68 287.768 203.081C287.226 203.185 286.391 203.462 285.488 203.747Z" fill="#EBEDF5"/>
<path d="M236.06 207.813L164.391 234.855C147.969 241.085 129.182 233.264 122.642 217.622L94.2522 149.355C87.7115 133.713 95.9222 115.685 112.343 109.455L184.013 82.4126C200.434 76.1824 219.221 84.0033 225.762 99.6452L254.151 167.913C260.692 183.687 252.62 201.582 236.06 207.813Z" fill="#C74A54"/>
<path d="M243.714 196.545L172.045 223.587C155.623 229.817 136.836 221.997 130.296 206.355L101.906 138.087C95.3656 122.445 103.576 104.417 119.998 98.1872L191.667 71.1453C208.088 64.9151 226.875 72.736 233.416 88.3779L261.805 156.645C268.207 172.42 260.135 190.315 243.714 196.545Z" fill="#F06266"/>
<path d="M211.567 118.071C208.088 109.852 198.903 106.406 190.832 110.25L153.119 128.41C145.047 132.255 141.429 142.064 144.769 150.15L152.284 168.045C155.763 176.264 164.947 179.711 173.019 175.866L210.732 157.706C218.804 153.862 222.422 144.052 219.082 135.966L211.567 118.071ZM191.945 139.413L180.395 155.055C179.838 155.717 179.142 155.585 178.725 154.79L171.488 137.557C171.21 136.762 171.627 135.966 172.323 136.099L191.11 137.69C192.223 137.69 192.502 138.617 191.945 139.413Z" fill="white"/>
<defs>
<linearGradient id="paint0_linear" x1="185.715" y1="10.1602" x2="168.472" y2="219.074" gradientUnits="userSpaceOnUse">
<stop stop-color="#DFE0E0"/>
<stop offset="1" stop-color="#2680C1" stop-opacity="0"/>
</linearGradient>
<clipPath id="clip0">
<rect width="23.3215" height="23.3215" fill="white" transform="translate(165.857 13.8618) rotate(19.4177)"/>
</clipPath>
<clipPath id="clip1">
<rect width="19.4979" height="19.4979" fill="white" transform="translate(294.083 58.4829) rotate(37.7342)"/>
</clipPath>
</defs>
</svg>
