<svg width="554" height="436" viewBox="0 0 554 436" fill="none" xmlns="http://www.w3.org/2000/svg">
<path opacity="0.14" d="M530.142 170.173C524.627 140.968 508.161 113.434 484.701 95.8138C425.568 51.3874 369.415 102.43 311.082 118.385C284.115 125.761 258.04 120.191 233.713 107.485C208.586 94.3586 188.291 73.7176 161.582 62.9785C136.292 52.819 105.656 51.2104 83.8781 69.5689C62.4271 87.6393 48.7872 113.72 40.991 140.388C30.6593 175.69 34.7009 212.772 52.2174 245.043C73.3208 283.934 107.144 313.636 142.895 338.661C200.881 379.236 267.634 405.887 336.041 371.468C356.283 361.285 373.94 346.906 392.357 333.845C411.123 320.531 430.524 312.029 451.202 302.517C488.953 285.16 522.165 253.643 530.302 211.433C532.921 197.883 532.724 183.847 530.142 170.173Z" fill="url(#paint0_linear)"/>
<g clip-path="url(#clip0)">
<path d="M353.599 134.923H199.749V102.443C199.749 85.1044 213.856 71.0001 231.192 71.0001H322.156C339.495 71.0001 353.599 85.1064 353.599 102.443V134.923ZM213.414 121.258H339.936V102.441C339.936 92.6377 331.961 84.6607 322.156 84.6607H231.192C221.389 84.6607 213.412 92.6357 213.412 102.441V121.258H213.414Z" fill="#D6CECE"/>
<path d="M218.685 111.142H194.478C192.001 111.142 189.992 113.149 189.992 115.628V124.011C189.992 126.488 192.001 128.498 194.478 128.498H218.685C221.162 128.498 223.172 126.488 223.172 124.011V115.628C223.172 113.149 221.162 111.142 218.685 111.142Z" fill="#121251"/>
<path d="M358.87 111.142H334.663C332.186 111.142 330.177 113.149 330.177 115.628V124.011C330.177 126.488 332.186 128.498 334.663 128.498H358.87C361.347 128.498 363.357 126.488 363.357 124.011V115.628C363.357 113.149 361.349 111.142 358.87 111.142Z" fill="#121251"/>
<path d="M443.451 373.067H100.075C95.3044 373.067 91.4372 369.199 91.4372 364.429V121.258H452.09V364.429C452.088 369.199 448.221 373.067 443.451 373.067Z" fill="#3D3D70"/>
<path d="M451.055 247.909L348.091 259.71C297.371 265.524 246.154 265.524 195.437 259.71L92.4725 247.909C86.8087 247.26 82.5313 242.466 82.5313 236.763V130.632C82.5313 124.435 87.5542 119.413 93.7504 119.413H449.781C455.977 119.413 461 124.435 461 130.632V236.765C460.996 242.466 456.719 247.26 451.055 247.909Z" fill="#50BFA5"/>
<path d="M452.088 256.825V128.737C451.343 128.581 450.57 128.498 449.777 128.498H93.7485C92.9557 128.498 92.1826 128.581 91.4372 128.737V256.827C91.7764 256.898 92.1215 256.955 92.4706 256.994L195.435 268.795C246.154 274.609 297.371 274.609 348.089 268.795L451.053 256.994C451.404 256.953 451.749 256.896 452.088 256.825Z" fill="#282564"/>
<path d="M451.055 247.909L348.091 259.71C297.371 265.524 246.154 265.524 195.437 259.71L92.4725 247.909C86.8087 247.26 82.5313 242.466 82.5313 236.763V130.632C82.5313 124.435 87.5542 119.413 93.7504 119.413H449.781C455.977 119.413 461 124.435 461 130.632V236.765C460.996 242.466 456.719 247.26 451.055 247.909Z" fill="#3D3D70"/>
<path d="M295.789 279.521H247.736C245.123 279.521 243.003 277.401 243.003 274.788V253.354C243.003 250.741 245.123 248.621 247.736 248.621H295.789C298.402 248.621 300.522 250.741 300.522 253.354V274.788C300.522 277.401 298.402 279.521 295.789 279.521Z" fill="#F0F0F2"/>
<path d="M290.656 274.662H252.867C250.688 274.662 248.923 272.897 248.923 270.718V257.422C248.923 255.245 250.688 253.478 252.867 253.478H290.656C292.833 253.478 294.6 255.245 294.6 257.422V270.718C294.6 272.897 292.835 274.662 290.656 274.662Z" fill="#D6CECE"/>
<path d="M449.777 119.415H93.7485C87.5522 119.415 82.5293 124.437 82.5293 130.634V149.445C82.5293 143.249 87.5522 138.226 93.7485 138.226H449.779C455.975 138.226 460.998 143.249 460.998 149.445V130.634C460.996 124.435 455.973 119.415 449.777 119.415Z" fill="#282564"/>
</g>
<g clip-path="url(#clip1)">
<path d="M181.815 226.92C197.14 234.943 203.703 221.46 203.268 221.789C203.607 221.501 206.115 220.722 207.726 220.142C214.443 217.732 219.034 211.008 219.614 203.833C229.358 199.309 230.328 191.161 224.672 184.142C227.333 177.242 225.601 165.786 219.466 161.532C215.394 152.674 202.613 154.997 195.253 160.881C191.52 163.863 189.063 168.537 188.623 173.402C180.423 175.784 175.444 183.834 176.368 192.553C164.873 200.007 166.175 218.738 181.815 226.92Z" fill="#2F2E7F"/>
<path d="M379.186 380.204C379.186 380.204 381.677 387.244 381.683 387.264C381.868 388.38 382.598 391.135 382.598 392.15C382.598 395.958 365.419 388.918 369.269 387.23C369.618 387.076 370.711 385.856 370.825 384.56C371.002 382.562 369.377 380.058 369.377 380.058L379.186 380.204Z" fill="#F7A491"/>
<path d="M383.574 393.405L381.606 387.191C381.606 387.191 377.475 388.94 375.41 388.646C373.345 388.354 369.31 387.191 369.31 387.191C361.063 389.906 354.311 391.221 355.539 393.405H383.574Z" fill="#0C0266"/>
<path d="M344.519 380.204C344.519 380.204 347.01 387.244 347.016 387.264C347.201 388.38 347.931 391.135 347.931 392.15C347.931 395.958 330.752 388.918 334.602 387.23C334.951 387.076 336.043 385.856 336.158 384.56C336.335 382.562 334.71 380.058 334.71 380.058L344.519 380.204Z" fill="#F7A491"/>
<path d="M317.571 249.108C317.571 249.108 316.319 261.729 316.319 261.917C316.319 282.333 312.272 322.211 313.041 326.05C314.921 335.412 335.126 383.171 335.126 383.171L346.048 381.868L331.815 324.688L337.053 301.674L344.464 256.178L317.571 249.108Z" fill="#0A0A72"/>
<path d="M354.224 260.272L356.295 272.234L361.901 321.463L380.543 381.089C380.543 381.089 373.134 382.773 368.703 383.757L341.837 328.162L329.311 260.112L321.466 250.91L354.224 260.272Z" fill="#1A0F92"/>
<path d="M348.907 393.405L346.939 387.191C346.939 387.191 342.808 388.94 340.743 388.646C338.678 388.354 334.643 387.191 334.643 387.191C326.396 389.906 319.644 391.222 320.872 393.405H348.907Z" fill="#0C0266"/>
<path d="M170.632 370.176C170.632 370.176 169.468 378.013 167.469 380.543C166.796 381.393 165.571 382.465 164.765 384.002C163.513 386.39 164.203 389.946 165.13 391.904C165.605 392.91 165.098 392.908 166.177 393.229C169.378 394.189 172.781 392.572 174.144 389.596C174.905 387.932 175.572 385.713 175.706 382.919C176.049 375.804 178.325 372.185 178.325 372.185L170.632 370.176Z" fill="#F59D9B"/>
<path d="M205.63 373.761C205.63 373.761 206.348 382.6 205.764 385.471C205.453 387.009 203.715 390.174 204.512 391.622C205.309 393.069 206.22 393.43 206.22 393.43L226.879 393.754C228.003 393.771 227.26 393.067 226.353 392.419C224.868 391.358 223.669 390.655 218.926 388.425C218.616 388.279 217.49 387.585 217.084 387.342C216.055 386.731 215.019 385.769 214.128 384.804C212.643 383.199 212.517 375.415 212.517 375.415L205.63 373.761Z" fill="#F59D9B"/>
<path d="M221.316 253.691C221.316 253.691 224.381 269.734 222.671 279.141C220.963 288.547 212.765 375.749 212.765 375.749L203.654 376.249C203.654 376.249 201.745 339.823 202.086 334.757C202.429 329.691 205.131 321.215 205.131 321.215L204.226 291.807L215.723 253.17L221.316 253.691Z" fill="#0A0A72"/>
<path d="M194.999 252.364C194.999 252.364 187.824 262.857 186.116 271.54C184.409 280.223 187.371 306.911 184.083 318.29C182.304 324.451 175.564 333.964 174.538 341.924C173.513 349.885 169.492 370.734 169.492 370.734L178.599 372.489L199.763 320.414L216.364 273.347L220.618 249.106L194.999 252.364Z" fill="#1A0F92"/>
<path d="M174.763 388.027C169.8 388.906 166.498 386.086 164.779 383.972C163.518 386.364 162.903 389.936 163.83 391.9C164.646 393.631 167.035 393.582 168.916 393.649C170.906 393.72 172.444 392.647 173.43 390.965C173.892 390.182 174.365 389.202 174.763 388.027Z" fill="#0C0266"/>
<path d="M217.082 387.342C211.617 388.705 207.579 387.778 205.321 386.895C204.737 388.5 203.966 390.514 204.376 391.673C204.877 393.095 205.591 393.414 206.222 393.432C211.211 393.56 224.503 393.734 228.307 393.781C228.838 393.787 229.133 393.186 228.79 392.789C227.846 391.691 217.488 387.585 217.082 387.342Z" fill="#0C0266"/>
<path d="M258.959 195.71C258.91 194.827 254.895 195.751 254.372 195.053C253.849 194.353 258.77 192.253 258.665 191.494C258.47 190.094 253.133 193.464 253.003 192.825C252.873 192.186 258.204 188.441 257.151 187.688C256.097 186.934 252.029 192.148 251.581 191.525C251.138 190.904 255.802 187.017 255.082 185.546C254.699 184.759 247.951 193.2 246.758 193.178C245.565 193.156 246.101 188.496 245.064 188.263C244.026 188.031 245.121 197.264 244.677 197.769C244.235 198.274 235.207 209.883 231.447 212.686C230.356 211.491 223.613 205.541 222.616 204.395C220.949 207.045 218.366 208.538 216.563 211.07C220.147 214.76 230.687 223.14 232.145 223.187C236.58 223.335 246.093 205.377 248.134 202.133C250.175 198.887 252.104 198.871 253.79 197.416C255.474 195.964 259.006 196.593 258.959 195.71Z" fill="#F48C7F"/>
<path d="M221.403 218.2C221.403 218.2 206.429 206.677 203.617 201.492C200.804 196.306 207.444 192.624 212.668 192.565C217.887 192.507 228.938 208.041 228.938 208.041L221.403 218.2Z" fill="#2DFFB3"/>
<path d="M263.757 216.235L264.883 216.916C264.883 216.916 265.978 217.829 266.26 217.894C266.542 217.959 274.243 217.789 274.243 217.789C274.243 217.789 274.27 220.351 274.221 220.351C274.172 220.351 270.172 223.609 270.172 223.609L269.318 223.999L264.073 222.434L259.282 221.834C259.282 221.834 255.884 221.44 255.884 221.357C255.884 221.274 255.985 218.59 256.117 218.456C256.249 218.324 258.172 216.352 258.172 216.352C258.172 216.352 259.647 216.021 259.697 216.021C259.746 216.021 261.172 215.738 261.221 215.721C261.27 215.703 263.507 216.052 263.507 216.052L263.757 216.235Z" fill="#F48C7F"/>
<path d="M201.461 191.6C201.461 191.6 192.33 191.017 188.72 194.963C185.107 198.909 196.732 230.123 197.389 235.146C198.046 240.169 194.042 253.522 194.042 253.522C194.042 253.522 215.491 257.846 221.62 253.782C221.62 253.782 222.276 217.667 221.62 214.082C220.963 210.495 214.581 194.369 213.27 192.933C211.955 191.496 201.461 191.6 201.461 191.6Z" fill="#2DFFB3"/>
<path d="M204.502 179.371C204.502 179.371 204.455 179.64 204.37 180.099C203.962 182.298 202.396 189.599 201.337 191.604C200.057 194.028 205.719 201.762 211.168 200.82C212.791 200.538 209.797 193.714 209.941 192.991C210.217 191.606 210.59 189.719 210.972 187.784C211.187 186.692 211.406 185.585 211.611 184.544C212.195 181.586 212.668 179.168 212.668 179.168L204.502 179.371Z" fill="#F59D9B"/>
<path d="M204.37 180.099C204.455 179.64 204.502 179.371 204.502 179.371L212.668 179.168C212.668 179.168 212.193 181.586 211.611 184.544C211.408 185.58 211.191 186.68 210.976 187.767C209.716 187.581 208.399 186.968 207.078 185.808C205.636 184.544 204.693 183.026 204.123 181.405C204.222 180.886 204.307 180.442 204.37 180.099Z" fill="#D38C8C"/>
<path d="M209.996 160.771C209.996 160.771 206.149 160.325 203.735 163.453C201.323 166.579 198.724 176.252 204.715 181.507C210.708 186.767 216.63 180.813 217.508 174.502C218.386 168.194 218.729 160.542 209.996 160.771Z" fill="#F59D9B"/>
<path d="M210.428 159.736C210.428 159.736 205.287 168.931 201.607 169.357C197.927 169.781 197.448 174.668 197.448 174.668C197.448 174.668 198.763 163.408 202.406 161.236C206.044 159.067 210.428 159.736 210.428 159.736Z" fill="#2F2E7F"/>
<path d="M252.37 222.053C252.37 222.053 253.928 222.252 254.756 222.584C255.585 222.915 262.15 227.888 262.15 227.888C262.15 227.888 263.027 228.37 263.493 227.989C263.956 227.608 263.925 227.159 263.925 227.159C263.925 227.159 264.706 227.591 265.234 227.291C265.765 226.991 265.747 226.496 265.682 226.246C265.682 226.246 266.445 226.461 266.891 226.08C267.338 225.699 267.106 224.721 267.106 224.721C267.106 224.721 268.514 225.583 269.062 225.003C269.608 224.424 269.375 223.81 268.829 223.347C268.283 222.883 265.033 220.728 264.652 220.479C264.272 220.233 263.195 219.089 262.862 218.939C262.53 218.789 261.718 218.344 261.718 218.344C261.718 218.344 260.359 218.493 260.274 218.543C260.192 218.592 259.811 219.537 259.131 219.787C258.45 220.038 257.655 219.687 257.622 219.588C257.59 219.487 257.573 219.274 257.604 219.075C257.636 218.876 258.135 218.148 258.249 217.567C258.365 216.987 258.513 216.821 258.73 216.689C258.945 216.557 260.123 216.208 260.702 215.977C261.282 215.744 263.718 216.425 263.718 216.425L264.877 216.922C264.877 216.922 264.662 216.064 263.933 215.93C263.203 215.796 262.292 215.596 261.779 215.547C261.266 215.498 260.071 215.861 259.525 215.896C258.979 215.928 257.949 216.013 257.336 216.245C256.723 216.478 253.011 216.245 252.777 216.214C252.784 216.2 251.177 220.56 252.37 222.053Z" fill="#F8A492"/>
<path d="M253.638 216.241C252.076 216.206 234.046 216.052 227.27 215.997C225.617 215.983 224.014 215.421 222.712 214.398L207.644 202.541L201.045 210.146L219.752 223.66C221.002 224.564 222.541 224.978 224.077 224.822C231.192 224.102 251.919 222.041 253.731 222.29L253.638 216.241Z" fill="#F8A492"/>
<path d="M267.261 217.898C268.823 217.862 287.818 217.588 294.594 217.529C296.247 217.515 297.85 216.953 299.152 215.93L314.22 204.074L320.817 211.678L302.11 225.191C300.86 226.094 299.321 226.508 297.785 226.352C290.67 225.632 271.182 223.725 269.372 223.974L267.261 217.898Z" fill="#F59D9B"/>
<path d="M218.33 208.69C218.33 208.69 205.715 195.422 201.154 192.072C196.59 188.721 187.412 191.569 188.14 197.321C188.883 203.188 209.489 218.042 209.489 218.042L218.33 208.69Z" fill="#1FEEA3"/>
<path d="M306.732 208.69C306.732 208.69 319.348 195.422 323.909 192.072C328.473 188.721 337.651 191.569 336.923 197.321C336.179 203.188 315.573 218.042 315.573 218.042L306.732 208.69Z" fill="#1FEEA3"/>
<path d="M321.373 203.89C321.079 205.923 315.68 271.43 315.68 271.43C341.258 283.785 355.374 263.368 355.374 263.368C355.374 263.368 354.538 224.573 355.541 219.294C356.204 215.802 355.587 192.253 353.323 191.604C350.418 190.77 348.533 190.218 344.9 189.841C341.802 189.52 329.76 189.334 327.607 190.056C327.607 190.054 322.61 195.343 321.373 203.89Z" fill="#2DFFB3"/>
<path d="M341.496 178.496L343.379 190.001C343.379 190.001 336.491 204.642 332.375 203.409C328.922 202.376 331.048 189.8 331.048 189.8C331.048 189.8 332.931 183.045 332.365 179.669C331.799 176.289 341.496 178.496 341.496 178.496Z" fill="#F59D9B"/>
<path d="M332.362 179.667C331.796 176.287 341.496 178.494 341.496 178.494L341.652 179.484C341.368 180.147 341.021 180.713 340.601 181.148C338.434 183.385 335.048 184.728 332.121 184.83C332.415 183.006 332.594 181.054 332.362 179.667Z" fill="#F47458"/>
<path d="M344.969 159.377C345.977 160.14 347.519 174.611 343.283 178.831C339.047 183.051 330.792 184.434 327.832 181.109C324.556 177.433 324.72 160.944 331.308 156.6C337.895 152.259 344.969 159.377 344.969 159.377Z" fill="#F59D9B"/>
<path d="M353.137 272.877C353.224 272.785 353.297 272.682 353.358 272.574C355.35 269.032 373.696 237.97 374.059 236.463C374.386 235.102 366.486 214.632 366.486 214.632L358.732 220.957L363.658 237.226C363.221 238.419 352.416 261.254 352.416 261.254C352.416 261.254 350.897 265.291 349.858 267.616C349.333 267.985 348.83 268.328 348.406 268.602C347.442 269.146 346.507 269.491 345.691 269.761C344.663 270.101 342.699 271.039 342.303 271.381C341.839 271.775 340.911 272.623 340.356 273.138C339.802 273.652 339.136 274.238 338.875 274.544C338.718 274.731 338.232 274.987 337.876 275.155C337.345 275.411 337.402 276.188 337.966 276.356C338.499 276.514 339.224 276.192 339.674 275.987C340.944 275.413 342.51 273.84 342.589 274.037C342.668 274.232 341.053 277.632 340.893 278.03C340.733 278.433 338.877 282.391 338.771 283.278C338.666 284.165 339.199 284.378 339.605 284.059C339.954 283.785 342.922 278.506 342.922 278.506C342.922 278.506 343.303 277.833 343.441 278.224C343.579 278.614 340.891 283.412 340.627 284.203C340.358 284.994 340.552 285.646 341.293 285.38C342.192 285.055 344.744 279.756 344.744 279.756C344.744 279.756 345.076 279.097 345.292 279.332C345.509 279.567 343.155 283.611 343.123 284.081C343.092 284.55 343.51 285.021 344.133 284.637C344.87 284.185 347.107 279.434 347.107 279.434C347.107 279.434 347.379 279.123 347.46 279.346C347.541 279.569 345.78 283.16 345.9 283.692C346 284.138 346.403 284.055 346.403 284.055C347.296 284.067 348.523 280.338 349.605 278.813C350.688 277.289 351.179 275.07 352.666 273.396C352.755 273.291 352.989 273.035 353.137 272.877Z" fill="#F59D9B"/>
<path d="M369.924 218.042L357.655 227.19C357.655 227.19 352.295 214.157 348.404 210.317C343.529 205.507 350.181 190.77 353.321 191.602C360.343 193.468 369.924 218.042 369.924 218.042Z" fill="#2DFFB3"/>
<path d="M198.913 172.773C199.684 174.297 201.152 175.055 202.187 174.465C203.222 173.873 203.437 172.158 202.666 170.631C201.895 169.107 200.428 168.348 199.392 168.939C198.355 169.533 198.14 171.249 198.913 172.773Z" fill="#F59D9B"/>
<path d="M346.647 156.381C345.878 155.74 345.381 154.823 344.719 154.066C343.733 152.944 342.376 152.186 340.942 151.768C336.44 150.453 331.308 152.011 326.885 153.017C325.735 153.277 324.702 153.602 324.17 154.758C323.82 155.515 323.775 156.379 323.86 157.209C324.122 159.739 326.144 161.1 327.995 162.556C329.179 163.486 331.295 163.51 332.795 163.382C334.734 163.218 336.343 161.483 338.242 161.514C339.246 161.532 339.617 162.36 339.698 163.24C339.834 164.711 339.917 166.174 340.268 167.616C340.518 168.639 340.565 169.801 341.542 170.416C341.585 170.444 341.636 170.47 341.684 170.452C341.713 170.44 341.733 170.41 341.749 170.383C341.985 169.978 341.91 169.454 341.926 169.006C341.948 168.373 341.999 167.898 342.455 167.421C342.987 166.863 343.681 166.561 344.383 167.05C344.726 167.289 344.971 167.644 345.18 168.006C345.476 168.517 345.75 169.081 345.872 169.661C345.967 170.118 345.949 170.566 345.699 170.972C345.525 171.256 345.292 171.499 345.097 171.767C344.103 173.136 344.529 174.723 344.864 176.216C345.395 174.536 345.823 174.252 346.446 172.603C347.203 170.6 348.128 168.503 348.925 166.51C349.848 164.204 350.501 161.079 349.298 158.761C348.704 157.618 347.803 157.243 346.821 156.517C346.76 156.472 346.702 156.426 346.647 156.381Z" fill="#2F2E7F"/>
</g>
<g clip-path="url(#clip2)">
<path d="M122.161 376.538C122.161 376.538 125.216 335.191 111.749 333.156C98.3584 331.119 104.494 347.556 97.7471 345.089C90.9987 342.648 91.3043 320.385 75.8748 321.708C60.4453 323.032 80.381 340.69 71.063 340.69C61.7449 340.69 74.4234 351.299 74.4234 359.671C74.4234 368.042 49.804 350.384 46.8498 361.706C42.6493 377.938 71.978 376.82 71.978 376.82L122.161 376.538Z" fill="#564D9F"/>
<path d="M57.1921 375.108C67.299 372.868 88.6605 369.992 97.2391 375.514C97.5447 375.922 97.8504 376.226 98.1561 376.737H99.9901C98.6668 374.956 97.3416 373.073 96.0183 371.241C99.1756 361.852 98.87 351.039 98.3612 345.442C98.3612 345.442 98.3612 345.442 98.2586 345.442C98.1561 345.442 98.0555 345.442 97.9529 345.188C97.9529 345.188 97.953 345.188 97.8504 345.188C97.8504 345.188 97.8504 345.188 97.7479 345.188C97.7479 345.188 97.7479 345.188 97.6473 345.188C97.6473 345.188 97.6473 345.188 97.5447 345.188C97.5447 345.188 97.5447 345.188 97.4422 345.188L97.3396 345.136C97.2371 345.136 97.2371 345.059 97.1365 345.059C97.6453 350.173 98.1541 360.682 95.3025 370.095C93.571 367.448 91.9421 364.804 90.2855 362.029C93.6459 358.976 93.3422 346.509 92.6283 337.731C92.5258 337.425 92.4252 337.222 92.3227 336.917C92.3227 336.814 92.3227 336.814 92.2201 336.714C91.8119 335.593 91.3031 334.475 90.7943 333.355C91.9145 343.862 92.2201 357.552 89.5716 360.605C81.0937 345.491 74.856 329.667 72.4126 323.025C71.9038 323.331 71.4956 323.534 71.1899 323.94C73.3277 329.768 78.2421 342.21 84.888 354.88C88.4515 361.826 92.1452 367.957 95.6062 373.047C85.7024 368.239 60.7774 372.13 53.8278 374.167C54.6462 374.293 55.8689 374.702 57.1921 375.108Z" fill="#EBEDF5"/>
<path d="M141.025 338.051C144.255 339.447 146.186 343.566 144.821 346.832C144.101 348.554 142.605 349.991 142.151 351.812C141.634 353.876 142.147 356.328 142.088 358.44C141.987 362.011 140.392 365.289 137.617 367.527C134.539 370.014 129.995 369.458 127.226 372.197C125.361 374.045 126.193 377.021 125.615 379.346C123.261 388.774 109.091 384.972 103.688 380.86C97.9096 376.463 92.4726 364.861 100.292 359.759C103.005 357.988 106.604 358.607 109.263 356.726C112.769 354.243 111.253 349.65 113.051 346.329C116.928 339.165 124.211 343.626 129.731 340.948C133.427 339.155 136.572 336.126 141.025 338.051Z" fill="#50BC8D"/>
<path d="M136.897 359.087C136.828 358.984 136.7 358.961 136.6 359.03C134.105 360.718 131.419 360.907 128.623 359.582C126.518 358.59 125.134 357.067 125.116 357.05C125.116 357.05 125.112 357.05 125.112 357.046C125.44 356.724 125.763 356.403 126.091 356.085C127.577 354.636 129.078 353.194 130.585 351.766C130.646 351.77 130.711 351.747 130.754 351.697C130.79 351.656 130.802 351.607 130.802 351.559C132.756 349.708 134.728 347.872 136.72 346.065C136.763 346.024 136.767 345.959 136.732 345.913C136.692 345.868 136.627 345.864 136.582 345.901C134.555 347.653 132.547 349.431 130.555 351.222C129.757 350.449 126.621 347.16 128.205 344.521C128.266 344.418 128.232 344.284 128.132 344.223C128.031 344.162 127.897 344.196 127.836 344.296C127.008 345.673 127.207 347.402 128.406 349.291C128.968 350.175 129.619 350.893 130.029 351.311C130.106 351.388 130.175 351.453 130.23 351.51C128.707 352.887 127.193 354.267 125.69 355.663C122.805 358.343 119.955 361.067 117.155 363.843C116.157 362.246 113.574 357.442 116.157 353.93C116.23 353.831 116.208 353.699 116.112 353.628C116.015 353.559 115.881 353.575 115.814 353.673C113.028 357.456 115.842 362.573 116.843 364.157C116.281 364.715 115.715 365.273 115.159 365.839C112.045 368.998 108.993 372.227 106.104 375.623C104.82 373.818 101.14 367.993 103.595 363.459C103.652 363.352 103.615 363.222 103.51 363.165C103.406 363.108 103.276 363.145 103.218 363.25C101.942 365.602 102.055 368.636 103.546 372.024C104.325 373.794 105.295 375.244 105.816 375.964C105.622 376.193 105.423 376.419 105.234 376.652C104.293 377.792 103.372 378.953 102.483 380.147C102.863 380.44 103.207 380.774 103.504 381.148C104.376 379.902 105.297 378.685 106.24 377.484C107.241 376.222 108.267 374.982 109.318 373.751C110.852 375.102 115.954 379.076 120.756 376.938C120.865 376.889 120.914 376.762 120.865 376.652C120.817 376.542 120.691 376.494 120.583 376.542C115.999 378.585 111.067 374.723 109.596 373.424C111.616 371.071 113.708 368.77 115.832 366.506C118.756 363.396 121.752 360.359 124.797 357.363C124.813 357.379 124.85 357.42 124.911 357.48C125.771 358.351 131.062 363.301 136.828 359.396C136.937 359.317 136.963 359.183 136.897 359.087Z" fill="white"/>
</g>
<g clip-path="url(#clip3)">
<path d="M433.661 372.925C439.525 377.259 450.885 381.111 457.797 379.954C462.924 379.096 468.489 377.365 471.714 372.996C474.237 369.58 474.82 365.139 469.986 363.662C468.356 363.162 466.606 363.546 464.905 363.706C461.413 364.032 457.472 361.349 460.63 357.807C462.416 355.805 466.436 355.537 468.902 355.352C474.286 354.947 480.9 355.73 483.873 350.088C484.752 348.415 484.837 346.083 483.388 344.872C482.034 343.737 480.044 344.061 478.284 344.204C472.212 344.694 472.97 339.015 476.965 336.515C479.083 335.184 481.571 334.455 483.491 332.858C486.286 330.526 487.077 325.503 484.229 322.472C481.216 319.608 476.197 320.381 473.861 323.17C472.258 325.088 471.516 327.576 470.183 329.692C467.669 333.683 461.996 334.422 462.511 328.34C462.661 326.579 462.989 324.588 461.867 323.223C460.663 321.768 458.335 321.843 456.664 322.721C451.022 325.674 451.778 332.3 451.35 337.694C451.155 340.159 450.871 344.185 448.867 345.965C445.318 349.115 442.658 345.161 442.99 341.664C443.154 339.964 443.545 338.211 443.051 336.573C441.595 331.727 437.16 332.297 433.736 334.808C429.359 338.02 427.61 343.587 426.734 348.722C425.554 355.643 429.356 367.034 433.661 372.925Z" fill="#564D9F"/>
<path d="M470.966 334.775C466.531 338.211 462.432 342.161 458.42 346.174C458.863 343.014 459.473 339.683 459.131 336.56C459.128 336.536 459.091 336.533 459.087 336.556C457.825 339.91 457.692 343.84 457.231 347.374C455.244 349.366 453.277 351.368 451.292 353.319C447.747 356.799 444.135 360.234 440.576 363.716C438.721 359.374 437.262 354.798 436.618 350.109C436.614 350.074 436.553 350.068 436.553 350.109C436.477 355.039 437.579 359.92 439.755 364.366C439.772 364.401 439.799 364.428 439.82 364.455C437.386 366.849 434.982 369.266 432.65 371.742C432.183 372.242 433.001 373.05 433.507 372.587C434.955 371.262 436.385 369.904 437.803 368.538C444.56 369.379 451.587 371.067 458.393 370.822C458.535 370.818 458.508 370.622 458.393 370.591C452.12 368.94 445.322 368.264 438.833 367.543C443.551 362.946 448.144 358.203 452.814 353.577C453.227 353.168 453.649 352.759 454.066 352.348C459.926 351.334 465.989 350.622 471.693 348.905C471.733 348.892 471.71 348.84 471.676 348.84C466.176 349.092 460.659 350.259 455.225 351.216C460.655 345.942 466.288 340.688 470.987 334.797C470.997 334.779 470.977 334.762 470.966 334.775Z" fill="white"/>
<path d="M442.843 377.753C442.843 377.753 450.262 360.145 444.907 357.68C439.552 355.215 436.836 358.88 434.683 357.875C432.529 356.856 440.063 346.993 433.879 344.127C427.675 341.309 426.013 348.735 422.508 347.099C418.929 345.456 417.126 329.75 408.727 332.291C400.33 334.829 414.877 348.143 411.644 348.621C408.411 349.098 404.277 345.138 401.806 349.846C399.333 354.557 421.472 361.621 412.357 362.913C403.146 364.2 405.928 368.035 408.791 370.963C411.651 373.876 425.941 380.197 425.941 380.197L442.843 377.753Z" fill="#50BC8D"/>
<path d="M401.923 349.623C406.258 352.416 414.066 356.988 420.056 358.288C414.483 346.776 409.811 335.645 408.47 332.368C408.561 332.31 408.632 332.32 408.723 332.262C408.814 332.206 408.885 332.214 409.072 332.163C410.071 334.609 413.009 341.592 416.761 349.829C417.467 346.922 418.239 343.475 418.806 340.881C418.908 341.201 419.103 341.479 419.207 341.816C418.468 345.371 417.423 349.731 417.178 350.699C417.475 351.297 417.772 351.897 418.05 352.561L421.04 345.481C421.157 345.705 421.29 345.865 421.426 346.023L418.399 353.216C419.907 356.492 421.618 359.871 423.279 363.257C427.789 359.829 430.735 349.009 431.996 343.402C432.164 343.4 432.384 343.456 432.631 343.525C431.337 349.295 428.358 360.277 423.513 363.691C426.13 368.818 428.931 373.849 431.636 378.118C436.034 375.284 440.607 362.705 442.583 356.787C442.733 356.851 442.97 356.841 443.215 356.91C441.209 362.989 436.626 375.726 431.91 378.5C432.027 378.723 432.239 378.938 432.355 379.161L431.695 379.262C430.625 377.562 429.442 375.703 428.285 373.619C423.829 372.838 412.199 368.347 406.154 365.952C406.187 365.791 406.217 365.629 406.304 365.527C412.027 367.798 423.287 372.171 427.955 373.181C425.685 369.2 423.154 364.487 420.583 359.088C420.525 358.984 420.461 358.818 420.403 358.714C414.309 357.566 406.35 352.931 401.864 350.045C401.877 349.933 401.896 349.885 401.983 349.781C401.908 349.719 401.927 349.669 401.923 349.623Z" fill="white"/>
</g>
<g clip-path="url(#clip4)">
<path opacity="0.14" d="M273.501 406.917C406.425 406.917 514.169 394.925 514.169 380.158C514.167 365.393 406.425 353.401 273.501 353.401C140.575 353.401 32.833 365.393 32.833 380.158C32.833 394.925 140.575 406.917 273.501 406.917Z" fill="url(#paint1_linear)"/>
</g>
<circle cx="449.927" cy="140.023" r="55.6125" fill="#364084"/>
<circle cx="449.927" cy="140.023" r="48.1056" fill="#424D9C"/>
<path d="M431.856 132.711H421.102V137.468C421.561 136.962 422.205 136.549 423.032 136.227C423.859 135.905 424.755 135.745 425.721 135.745C427.444 135.745 428.869 136.135 429.995 136.917C431.144 137.698 431.983 138.709 432.511 139.95C433.04 141.191 433.304 142.535 433.304 143.983C433.304 146.672 432.546 148.809 431.029 150.395C429.512 151.957 427.375 152.739 424.618 152.739C422.779 152.739 421.182 152.428 419.826 151.808C418.47 151.164 417.425 150.28 416.689 149.154C415.954 148.028 415.552 146.729 415.483 145.258H421.239C421.377 145.971 421.71 146.568 422.239 147.051C422.768 147.51 423.491 147.74 424.411 147.74C425.491 147.74 426.295 147.396 426.824 146.706C427.352 146.017 427.616 145.098 427.616 143.949C427.616 142.822 427.341 141.961 426.789 141.363C426.238 140.766 425.433 140.467 424.376 140.467C423.595 140.467 422.951 140.662 422.446 141.053C421.94 141.421 421.607 141.915 421.446 142.535H415.759V127.541H431.856V132.711Z" fill="white"/>
<path d="M454.276 132.711H443.521V137.468C443.98 136.962 444.624 136.549 445.451 136.227C446.278 135.905 447.175 135.745 448.14 135.745C449.863 135.745 451.288 136.135 452.414 136.917C453.563 137.698 454.402 138.709 454.931 139.95C455.459 141.191 455.723 142.535 455.723 143.983C455.723 146.672 454.965 148.809 453.448 150.395C451.932 151.957 449.794 152.739 447.037 152.739C445.198 152.739 443.601 152.428 442.245 151.808C440.89 151.164 439.844 150.28 439.109 149.154C438.373 148.028 437.971 146.729 437.902 145.258H443.659C443.797 145.971 444.13 146.568 444.658 147.051C445.187 147.51 445.911 147.74 446.83 147.74C447.91 147.74 448.714 147.396 449.243 146.706C449.771 146.017 450.036 145.098 450.036 143.949C450.036 142.822 449.76 141.961 449.208 141.363C448.657 140.766 447.853 140.467 446.796 140.467C446.014 140.467 445.371 140.662 444.865 141.053C444.36 141.421 444.026 141.915 443.866 142.535H438.178V127.541H454.276V132.711Z" fill="white"/>
<path d="M458.495 133.918C458.495 132.056 459.023 130.62 460.08 129.609C461.16 128.598 462.551 128.092 464.251 128.092C465.952 128.092 467.33 128.598 468.388 129.609C469.445 130.62 469.973 132.056 469.973 133.918C469.973 135.779 469.445 137.215 468.388 138.226C467.33 139.238 465.952 139.743 464.251 139.743C462.551 139.743 461.16 139.238 460.08 138.226C459.023 137.215 458.495 135.779 458.495 133.918ZM481.9 128.471L468.629 152.739H462.941L476.212 128.471H481.9ZM464.217 131.539C463.114 131.539 462.562 132.332 462.562 133.918C462.562 135.48 463.114 136.262 464.217 136.262C464.745 136.262 465.159 136.066 465.458 135.676C465.756 135.285 465.906 134.699 465.906 133.918C465.906 132.332 465.343 131.539 464.217 131.539ZM474.903 147.292C474.903 145.431 475.431 143.994 476.488 142.983C477.545 141.972 478.924 141.467 480.625 141.467C482.325 141.467 483.704 141.972 484.761 142.983C485.818 143.994 486.347 145.431 486.347 147.292C486.347 149.154 485.818 150.59 484.761 151.601C483.704 152.612 482.325 153.118 480.625 153.118C478.924 153.118 477.545 152.612 476.488 151.601C475.431 150.59 474.903 149.154 474.903 147.292ZM480.59 144.914C480.062 144.914 479.648 145.109 479.349 145.5C479.073 145.89 478.936 146.488 478.936 147.292C478.936 148.855 479.487 149.636 480.59 149.636C481.119 149.636 481.532 149.441 481.831 149.05C482.13 148.659 482.279 148.073 482.279 147.292C482.279 146.511 482.13 145.925 481.831 145.534C481.532 145.121 481.119 144.914 480.59 144.914Z" fill="white"/>
<g clip-path="url(#clip5)">
<path d="M475.38 268.419C490.044 253.755 490.044 229.981 475.38 215.318C460.717 200.655 436.943 200.655 422.279 215.318C407.616 229.981 407.616 253.755 422.279 268.419C436.943 283.082 460.717 283.082 475.38 268.419Z" fill="#FFE14D"/>
<path d="M485.647 249.244C489.713 228.944 476.506 209.118 456.204 205.052L441.453 278.687C461.755 282.752 481.58 269.545 485.647 249.244Z" fill="#FFBB33"/>
<path d="M443.212 269.913C427.749 266.815 417.687 251.713 420.785 236.25C423.884 220.787 438.984 210.725 454.449 213.824C469.914 216.922 479.973 232.022 476.875 247.485C473.777 262.95 458.675 273.009 443.212 269.913Z" fill="#FFBB33"/>
<path d="M476.875 247.487C479.973 232.024 469.912 216.922 454.449 213.826L443.214 269.915C458.675 273.01 473.777 262.95 476.875 247.487Z" fill="#E68A2E"/>
<path d="M451.388 240.297L453.096 231.768C455.454 232.874 456.969 234.836 456.6 236.672C456.362 237.865 457.133 239.023 458.326 239.261C459.519 239.5 460.677 238.729 460.915 237.536C461.749 233.367 458.738 229.139 453.979 227.352L454.447 225.021C454.685 223.828 453.914 222.67 452.721 222.432C451.528 222.193 450.37 222.964 450.132 224.157L449.664 226.488C444.586 226.305 440.177 229.046 439.343 233.215C438.508 237.384 441.52 241.612 446.278 243.399L444.571 251.928C442.212 250.822 440.697 248.86 441.066 247.024C441.305 245.83 440.534 244.673 439.341 244.434C438.148 244.196 436.99 244.967 436.751 246.16C435.917 250.329 438.928 254.557 443.687 256.344L443.216 258.696C442.977 259.889 443.748 261.047 444.941 261.286C446.134 261.524 447.292 260.753 447.531 259.56L448.002 257.207C453.08 257.391 457.49 254.65 458.324 250.481C459.16 246.312 456.147 242.083 451.388 240.297ZM443.659 234.079C444.026 232.245 446.18 231.014 448.783 230.904L447.164 238.983C444.805 237.877 443.291 235.915 443.659 234.079ZM448.885 252.792L450.505 244.712C452.863 245.819 454.378 247.781 454.009 249.617C453.64 251.453 451.489 252.679 448.885 252.792Z" fill="#FFE14D"/>
<path d="M447.531 259.558L448.002 257.205C453.08 257.389 457.49 254.648 458.324 250.479C459.158 246.31 456.147 242.082 451.388 240.295L453.096 231.766C455.454 232.872 456.969 234.834 456.6 236.67C456.362 237.863 457.133 239.021 458.326 239.259C459.519 239.498 460.677 238.727 460.915 237.534C461.749 233.365 458.738 229.137 453.979 227.35L454.447 225.019C454.685 223.826 453.914 222.668 452.721 222.43L444.939 261.282C446.132 261.522 447.292 260.751 447.531 259.558ZM450.505 244.71C452.863 245.817 454.378 247.779 454.009 249.615C453.642 251.449 451.489 252.679 448.885 252.79L450.505 244.71Z" fill="#FFBB33"/>
</g>
<g clip-path="url(#clip6)">
<path d="M126.108 170.108C140.772 155.445 140.772 131.671 126.108 117.007C111.445 102.344 87.6707 102.344 73.0073 117.007C58.344 131.671 58.344 155.445 73.0073 170.108C87.6707 184.772 111.445 184.772 126.108 170.108Z" fill="#FFE14D"/>
<path d="M133.626 127.77C124.921 108.984 102.554 100.784 83.7698 109.489L115.347 177.626C134.131 168.921 142.333 146.556 133.626 127.77Z" fill="#FFBB33"/>
<path d="M111.584 169.509C97.2745 176.139 80.2377 169.893 73.6076 155.584C66.9775 141.274 73.2231 124.238 87.5324 117.608C101.842 110.978 118.879 117.223 125.509 131.532C132.139 145.842 125.893 162.877 111.584 169.509Z" fill="#FFBB33"/>
<path d="M125.509 131.532C118.877 117.223 101.84 110.976 87.5325 117.608L111.584 169.509C125.893 162.877 132.139 145.84 125.509 131.532Z" fill="#E68A2E"/>
<path d="M100.694 140.78L97.0359 132.887C99.5937 132.386 101.974 133.079 102.761 134.777C103.272 135.879 104.579 136.358 105.681 135.847C106.784 135.337 107.263 134.029 106.752 132.927C104.966 129.069 100.037 127.436 95.1427 128.803L94.1448 126.644C93.6341 125.541 92.3266 125.062 91.2242 125.573C90.1218 126.084 89.6426 127.391 90.1533 128.493L91.1532 130.651C86.9448 133.503 85.0062 138.318 86.7929 142.174C88.5796 146.029 93.5078 147.664 98.4025 146.297L102.061 154.19C99.503 154.691 97.1227 153.998 96.3358 152.3C95.825 151.198 94.5176 150.719 93.4152 151.23C92.3128 151.74 91.8336 153.048 92.3443 154.15C94.131 158.008 99.0592 159.64 103.954 158.274L104.964 160.451C105.474 161.553 106.782 162.033 107.884 161.522C108.987 161.011 109.466 159.704 108.955 158.601L107.945 156.424C112.154 153.572 114.092 148.757 112.306 144.901C110.517 141.044 105.589 139.411 100.694 140.78ZM90.7844 140.326C89.9976 138.628 91.0092 136.364 93.0444 134.737L96.5093 142.213C93.9535 142.714 91.5713 142.024 90.7844 140.326ZM106.052 152.34L102.587 144.864C105.145 144.363 107.525 145.055 108.312 146.753C109.099 148.449 108.087 150.713 106.052 152.34Z" fill="#FFE14D"/>
<path d="M108.955 158.603L107.945 156.426C112.154 153.574 114.092 148.759 112.306 144.903C110.519 141.046 105.591 139.413 100.696 140.78L97.0379 132.887C99.5957 132.386 101.976 133.079 102.763 134.777C103.274 135.879 104.581 136.358 105.683 135.847C106.786 135.337 107.265 134.029 106.754 132.927C104.968 129.069 100.039 127.436 95.1447 128.803L94.1448 126.644C93.6341 125.541 92.3266 125.062 91.2242 125.573L107.884 161.524C108.987 161.013 109.466 159.705 108.955 158.603ZM102.587 144.864C105.145 144.363 107.525 145.055 108.312 146.753C109.099 148.451 108.087 150.715 106.052 152.342L102.587 144.864Z" fill="#FFBB33"/>
</g>
<defs>
<linearGradient id="paint0_linear" x1="316.138" y1="29.4496" x2="245.642" y2="365.749" gradientUnits="userSpaceOnUse">
<stop stop-color="#CEBFF5"/>
<stop offset="1" stop-color="#2680C1" stop-opacity="0"/>
</linearGradient>
<linearGradient id="paint1_linear" x1="277.152" y1="452.611" x2="270.688" y2="324.347" gradientUnits="userSpaceOnUse">
<stop stop-color="#2680C1"/>
<stop offset="1" stop-color="#2680C1" stop-opacity="0"/>
</linearGradient>
<clipPath id="clip0">
<rect width="378.471" height="302.067" fill="white" transform="translate(82.5293 71.0001)"/>
</clipPath>
<clipPath id="clip1">
<rect width="220.19" height="242.516" fill="white" transform="translate(163.384 151.264)"/>
</clipPath>
<clipPath id="clip2">
<rect width="98.8246" height="63.5659" fill="white" transform="translate(46.4404 321.651)"/>
</clipPath>
<clipPath id="clip3">
<rect width="84.4048" height="59.5343" fill="white" transform="translate(401.611 320.665)"/>
</clipPath>
<clipPath id="clip4">
<rect width="481.334" height="53.5162" fill="white" transform="translate(32.833 353.401)"/>
</clipPath>
<clipPath id="clip5">
<rect width="75.1124" height="75.1124" fill="white" transform="translate(411.274 204.312)"/>
</clipPath>
<clipPath id="clip6">
<rect width="75.1163" height="75.1163" fill="white" transform="translate(62 106)"/>
</clipPath>
</defs>
</svg>
