<svg width="352" height="243" viewBox="0 0 352 243" fill="none" xmlns="http://www.w3.org/2000/svg">
<path opacity="0.14" d="M345.858 51.5851C337.756 32.0906 322.275 15.353 303.372 6.52477C255.722 -15.7369 224.079 27.9191 185.798 47.5065C168.101 56.562 149.136 56.4897 130.346 51.203C110.938 45.7409 93.7971 34.3519 73.6364 30.7793C54.5476 27.4029 32.9851 30.7483 20.5032 46.6805C8.20682 62.3649 2.51727 82.4789 0.981506 102.149C-1.0593 128.19 7.16577 153.373 24.0695 173.25C44.4363 197.205 72.317 212.92 100.857 225.104C147.147 244.857 197.507 253.654 240.107 219.766C252.712 209.74 262.906 197.174 273.821 185.413C284.943 173.426 297.208 164.69 310.216 155.067C333.963 137.503 352.485 110.76 351.99 80.2382C351.836 70.4394 349.651 60.7128 345.858 51.5851Z" fill="url(#paint0_linear)"/>
<ellipse opacity="0.1" cx="176.638" cy="205.393" rx="117.044" ry="10.3274" fill="#060606"/>
<g clip-path="url(#clip0)">
<path d="M87.1347 94.6849L173.307 149.532C174.275 150.273 175.471 150.614 176.61 150.614C177.749 150.614 178.945 150.273 179.914 149.532L266.086 94.6849L180.028 28.6746C178.034 27.1938 175.3 27.1938 173.307 28.6746L87.1347 94.6849Z" fill="#2DFFB3"/>
<path d="M120.681 28.0325H232.597C238.472 28.0325 243.26 32.8206 243.26 38.6956V161.774C243.26 164.574 240.978 166.856 238.178 166.856H115.1C112.3 166.856 110.018 164.574 110.018 161.774V38.6956C110.018 32.8206 114.806 28.0325 120.681 28.0325Z" fill="#5600E3" stroke="white"/>
<path d="M179.971 149.529C179.002 150.27 177.806 150.611 176.667 150.611C175.528 150.611 174.332 150.27 173.364 149.529L87.1347 94.6819V195.378C87.1347 201.529 92.1467 206.541 98.2978 206.541H254.923C261.074 206.541 266.086 201.529 266.086 195.378V94.6819L179.971 149.529Z" fill="#1FEEA3"/>
<path d="M254.979 206.541H98.354C92.089 206.541 87.1909 201.643 87.1909 195.378C87.1909 193.612 88.0453 191.903 89.4691 190.878L173.363 134.949C174.331 134.208 175.527 133.867 176.667 133.867C177.806 133.867 179.002 134.208 179.97 134.949L263.864 190.878C265.288 191.903 266.142 193.612 266.142 195.378C266.142 201.643 261.244 206.541 254.979 206.541Z" fill="#2DFFB3"/>
<path d="M222.915 70.7611C222.972 66.4895 221.89 62.1609 219.213 58.8576C216.991 56.0668 213.745 54.1303 210.328 53.0482C207.708 52.2508 205.031 51.9661 202.297 52.1369C200.816 52.1369 199.336 52.2508 197.912 52.4787C197.855 52.4787 197.855 52.4787 197.798 52.4787C197.342 52.5356 196.887 52.6495 196.431 52.7634C196.374 52.7634 196.317 52.7634 196.26 52.8204C195.804 52.9343 195.406 53.0482 194.95 53.1621C194.551 53.276 194.096 53.4469 193.697 53.6178C193.583 53.6747 193.526 53.6747 193.412 53.7317C193.014 53.9025 192.672 54.0164 192.273 54.1873C192.159 54.2443 192.102 54.3012 191.988 54.3012C191.647 54.4721 191.305 54.6429 190.906 54.8138C190.849 54.8138 190.849 54.8708 190.792 54.8708C185.553 57.7754 181.737 62.7305 178.946 68.0273C178.49 68.9385 174.219 81.5255 171.143 96.9602V97.0171C171.029 97.7006 170.915 98.3271 170.744 99.0105C170.061 101.972 168.865 104.763 166.815 106.984C165.049 108.864 162.657 110.06 160.151 110.572C158.67 110.743 157.132 110.629 155.651 110.344C151.152 109.376 147.165 105.902 146.197 101.403C145.229 96.6754 147.564 92.0621 150.184 87.9044C150.469 87.5057 150.696 87.0501 150.981 86.6514C150.412 86.4805 149.899 86.3097 149.386 86.0818C146.539 84.8858 143.748 83.2911 141.527 81.1837C140.786 80.4433 140.103 79.589 139.533 78.6778C136.97 74.6909 136.572 69.1094 139.419 65.2934C141.527 62.4457 145.172 61.0218 148.76 61.0788C148.988 61.0788 149.216 61.0788 149.443 61.1358C153.202 61.4205 156.734 63.3 159.581 65.806C159.638 65.863 159.695 65.9199 159.752 65.9769C160.037 66.2617 160.322 66.4895 160.607 66.7743C160.72 66.8882 160.834 67.0021 160.948 67.116C161.233 67.4008 161.461 67.6286 161.689 67.9133C161.803 68.0842 161.973 68.1981 162.087 68.369C162.315 68.5968 162.486 68.8816 162.714 69.1094C162.828 69.2803 162.942 69.4511 163.113 69.622C163.283 69.8498 163.454 70.0776 163.625 70.3054C163.853 70.5902 164.024 70.875 164.195 71.1598C164.309 71.3306 164.422 71.5015 164.536 71.6723C164.707 71.9002 164.821 72.128 164.935 72.3558C164.992 72.4697 165.049 72.5836 165.106 72.6975C165.391 73.2101 165.675 73.7227 165.903 74.2353C165.96 74.2923 165.96 74.3492 166.017 74.4062C166.985 76.3426 167.726 78.393 168.352 80.4433C168.694 81.6394 169.036 82.7785 169.264 83.9745C170.232 79.4182 171.599 74.2923 173.421 70.4193C173.023 69.565 172.624 68.7677 172.168 67.9133C169.378 62.6166 165.562 57.6615 160.322 54.7568C160.265 54.7568 160.265 54.6999 160.208 54.6999C159.866 54.529 159.524 54.3582 159.126 54.1873C159.012 54.1303 158.955 54.0734 158.841 54.0734C158.442 53.9025 158.101 53.7317 157.702 53.6178C157.588 53.5608 157.531 53.5608 157.417 53.5038C157.018 53.333 156.62 53.2191 156.164 53.0482C155.708 52.9343 155.31 52.8204 154.854 52.7065C154.797 52.7065 154.74 52.7065 154.683 52.6495C154.228 52.5356 153.772 52.4217 153.316 52.3648C153.259 52.3648 153.259 52.3648 153.202 52.3648C151.779 52.1369 150.298 51.9661 148.817 52.023C146.14 51.8522 143.406 52.1369 140.786 52.9343C137.369 54.0164 134.123 55.9529 131.901 58.7437C129.282 62.047 128.142 66.3186 128.199 70.5902C128.199 70.5902 128.199 70.5902 128.199 70.6472C128.199 70.9319 128.199 71.2167 128.199 71.5584C128.199 71.6723 128.199 71.7293 128.199 71.8432C128.199 72.0141 128.199 72.1849 128.199 72.2988C128.199 72.5836 128.256 72.8684 128.256 73.1532C128.256 73.2671 128.256 73.4379 128.313 73.5518C128.37 73.8936 128.427 74.2353 128.484 74.577C128.484 74.634 128.484 74.7479 128.541 74.8048C128.598 75.2605 128.712 75.6592 128.826 76.1148C128.94 76.5135 129.054 76.9122 129.168 77.3108V77.3678C129.68 79.0764 130.421 80.6712 131.332 82.2089C131.332 82.2089 131.332 82.2089 131.332 82.2659C131.446 82.4367 131.503 82.5507 131.617 82.7215C131.731 82.9493 131.901 83.1772 132.072 83.405C132.129 83.4619 132.186 83.5758 132.243 83.6328C132.813 84.4871 133.439 85.2845 134.066 86.0249C134.123 86.0818 134.18 86.1388 134.237 86.2527C134.521 86.5375 134.749 86.8792 135.034 87.164C135.148 87.2779 135.205 87.3348 135.319 87.4487C135.603 87.7335 135.831 87.9613 136.116 88.2461C136.23 88.36 136.287 88.417 136.401 88.5309C136.686 88.8157 137.027 89.1004 137.312 89.3282C137.369 89.3852 137.426 89.4422 137.483 89.4991C137.882 89.8408 138.28 90.1256 138.679 90.4673C138.166 91.7773 137.825 93.0872 137.597 94.4542C137.483 95.0237 137.426 95.6502 137.369 96.2197C137.369 96.3337 137.369 96.3906 137.369 96.5045C137.369 96.6754 137.369 96.9032 137.369 97.0741C137.369 97.2449 137.369 97.4158 137.369 97.5867C137.369 97.7575 137.369 97.8714 137.369 98.0423C137.369 98.2701 137.369 98.441 137.369 98.6688C137.369 98.7257 137.369 98.7257 137.369 98.7827C137.369 99.0675 137.369 99.2953 137.426 99.5801C137.426 99.637 137.426 99.694 137.426 99.7509C137.426 99.9787 137.483 100.264 137.483 100.491C137.483 100.605 137.483 100.719 137.54 100.833C137.54 101.061 137.597 101.289 137.654 101.46C137.654 101.573 137.711 101.63 137.711 101.744C137.768 102.029 137.825 102.314 137.882 102.656C137.882 102.713 137.939 102.77 137.939 102.826C137.996 103.054 138.053 103.339 138.109 103.567C138.109 103.681 138.166 103.738 138.166 103.852C138.223 104.079 138.28 104.307 138.337 104.535C138.337 104.592 138.394 104.706 138.394 104.763C138.508 105.048 138.565 105.332 138.679 105.674C138.679 105.731 138.736 105.788 138.736 105.845C138.85 106.073 138.907 106.358 139.021 106.585C139.078 106.642 139.078 106.756 139.135 106.813C139.249 107.041 139.362 107.269 139.419 107.554C139.419 107.611 139.476 107.668 139.476 107.668C139.59 107.952 139.761 108.237 139.875 108.522C139.875 108.579 139.932 108.579 139.932 108.636C140.046 108.864 140.217 109.148 140.331 109.376C140.388 109.433 140.388 109.49 140.445 109.547C140.615 109.775 140.729 110.06 140.9 110.288C140.9 110.288 140.9 110.344 140.957 110.344C141.128 110.629 141.299 110.914 141.527 111.142L141.584 111.199C141.755 111.427 141.925 111.654 142.096 111.882C142.153 111.939 142.153 111.939 142.21 111.996C142.609 112.509 143.008 112.964 143.463 113.42L143.52 113.477C143.691 113.705 143.919 113.876 144.147 114.103C144.204 114.16 144.204 114.16 144.261 114.217C144.716 114.673 145.172 115.072 145.684 115.413C145.741 115.413 145.741 115.47 145.798 115.47C146.026 115.641 146.254 115.812 146.482 115.926C146.539 115.926 146.539 115.983 146.596 115.983C147.108 116.325 147.621 116.609 148.19 116.894C148.247 116.894 148.304 116.951 148.304 116.951C148.532 117.065 148.76 117.179 148.988 117.293C149.045 117.293 149.102 117.35 149.159 117.35C149.443 117.464 149.728 117.578 150.013 117.692C150.07 117.692 150.184 117.749 150.241 117.749C150.526 117.862 150.753 117.919 151.038 117.976C151.152 118.033 151.323 118.033 151.437 118.09C151.665 118.147 151.892 118.204 152.12 118.318C152.234 118.375 152.348 118.375 152.462 118.432C152.804 118.546 153.145 118.603 153.487 118.717C153.544 118.717 153.601 118.717 153.658 118.774C153.943 118.831 154.285 118.888 154.569 118.945C154.683 118.945 154.797 119.002 154.854 119.002C155.139 119.059 155.424 119.115 155.765 119.172C155.822 119.172 155.936 119.172 155.993 119.229C156.392 119.286 156.734 119.343 157.132 119.343C157.189 119.343 157.246 119.343 157.303 119.343C157.588 119.343 157.93 119.4 158.214 119.4C158.328 119.4 158.385 119.4 158.499 119.4C158.841 119.4 159.126 119.4 159.467 119.4C159.524 119.4 159.524 119.4 159.581 119.4H159.638C159.695 119.4 159.752 119.4 159.809 119.4C163.91 119.286 168.238 118.261 171.599 115.812C171.77 115.698 171.997 115.527 172.168 115.356C172.624 115.015 173.023 114.673 173.364 114.331C177.18 110.344 179.003 102.257 179.8 97.0171C180.028 95.3654 180.199 93.7137 180.427 92.0621C180.541 91.1508 180.654 90.2395 180.768 89.3282C180.939 88.1322 181.167 86.8792 181.395 85.6832C181.737 83.9745 182.135 82.2659 182.648 80.5572C183.274 78.4499 184.072 76.4565 184.983 74.5201C185.04 74.4631 185.04 74.4062 185.097 74.3492C185.325 73.8366 185.61 73.324 185.894 72.8114C185.951 72.6975 186.008 72.5836 186.065 72.4697C186.179 72.2419 186.35 72.0141 186.464 71.7863C186.578 71.6154 186.692 71.4445 186.806 71.2737C186.976 70.9889 187.204 70.7041 187.375 70.4193C187.546 70.1915 187.717 69.9637 187.888 69.7359C188.002 69.565 188.116 69.3942 188.286 69.2233C188.457 68.9955 188.685 68.7107 188.913 68.4829C189.027 68.312 189.198 68.1981 189.312 68.0273C189.539 67.7425 189.824 67.4577 190.052 67.2299C190.166 67.116 190.28 67.0021 190.394 66.8882C190.678 66.6034 190.963 66.3186 191.248 66.0908C191.305 66.0338 191.362 65.9769 191.419 65.9199C194.267 63.4139 197.741 61.5344 201.557 61.2497C201.785 61.2497 202.012 61.1927 202.24 61.1927C205.771 61.1358 209.417 62.5596 211.581 65.4073C214.429 69.2233 214.03 74.8048 211.467 78.7917C210.897 79.7029 210.214 80.5003 209.473 81.2977C207.252 83.405 204.461 84.9427 201.614 86.1957C201.101 86.4236 200.532 86.5944 200.019 86.7653C200.304 87.164 200.532 87.6196 200.816 88.0183C203.436 92.176 205.771 96.7893 204.803 101.517C203.892 106.016 199.848 109.49 195.349 110.458C193.868 110.8 192.387 110.857 190.849 110.686C188.343 110.174 185.951 108.978 184.186 107.098C183.673 106.585 183.274 106.016 182.876 105.446C181.737 109.376 180.085 113.078 178.775 115.641C178.946 115.755 179.117 115.869 179.288 115.983C182.705 118.432 186.976 119.457 191.077 119.571C191.134 119.571 191.191 119.571 191.248 119.571H191.305C191.362 119.571 191.362 119.571 191.419 119.571C191.761 119.571 192.045 119.571 192.387 119.571C192.501 119.571 192.558 119.571 192.672 119.571C192.957 119.571 193.298 119.514 193.583 119.514C193.64 119.514 193.697 119.514 193.754 119.514C194.153 119.457 194.494 119.457 194.893 119.4C194.95 119.4 195.064 119.4 195.121 119.343C195.406 119.286 195.69 119.229 196.032 119.172C196.146 119.172 196.26 119.115 196.317 119.115C196.602 119.059 196.943 119.002 197.228 118.945C197.285 118.945 197.342 118.945 197.399 118.888C197.741 118.831 198.083 118.717 198.424 118.603C198.538 118.546 198.652 118.546 198.766 118.489C198.994 118.432 199.222 118.375 199.449 118.261C199.563 118.204 199.734 118.204 199.848 118.147C200.133 118.09 200.361 117.976 200.646 117.919C200.702 117.919 200.816 117.862 200.873 117.862C201.158 117.749 201.443 117.635 201.728 117.521C201.785 117.521 201.842 117.464 201.899 117.464C202.126 117.35 202.354 117.236 202.582 117.122C202.639 117.122 202.696 117.065 202.696 117.065C203.265 116.78 203.778 116.496 204.291 116.154C204.348 116.154 204.348 116.097 204.405 116.097C204.632 115.926 204.86 115.812 205.088 115.641C205.145 115.641 205.145 115.584 205.202 115.584C205.714 115.186 206.17 114.787 206.626 114.388C206.683 114.331 206.683 114.331 206.74 114.274C206.967 114.103 207.138 113.876 207.366 113.648L207.423 113.591C207.879 113.135 208.277 112.68 208.676 112.167C208.733 112.11 208.733 112.11 208.79 112.053C208.961 111.825 209.132 111.597 209.303 111.37L209.36 111.313C209.53 111.028 209.701 110.8 209.929 110.515C209.929 110.515 209.929 110.458 209.986 110.458C210.157 110.231 210.271 109.946 210.442 109.718C210.499 109.661 210.499 109.604 210.556 109.547C210.67 109.319 210.84 109.035 210.954 108.807C210.954 108.75 211.011 108.75 211.011 108.693C211.182 108.408 211.296 108.123 211.41 107.838C211.41 107.782 211.467 107.725 211.467 107.725C211.581 107.497 211.695 107.269 211.752 106.984C211.809 106.927 211.809 106.813 211.866 106.756C211.979 106.529 212.036 106.244 212.15 106.016C212.15 105.959 212.207 105.902 212.207 105.845C212.321 105.56 212.435 105.276 212.492 104.934C212.492 104.877 212.549 104.763 212.549 104.706C212.606 104.478 212.663 104.25 212.72 104.023C212.72 103.909 212.777 103.852 212.777 103.738C212.834 103.51 212.891 103.282 212.948 102.997C212.948 102.94 213.005 102.883 213.005 102.826C213.062 102.542 213.119 102.257 213.176 101.915C213.176 101.801 213.232 101.744 213.232 101.63C213.289 101.403 213.289 101.232 213.346 101.004C213.346 100.89 213.346 100.776 213.403 100.662C213.403 100.434 213.46 100.15 213.46 99.9218C213.46 99.8648 213.46 99.8079 213.46 99.7509C213.46 99.4662 213.517 99.2383 213.517 98.9536C213.517 98.8966 213.517 98.8966 213.517 98.8397C213.517 98.6118 213.517 98.441 213.517 98.2132C213.517 98.0423 213.517 97.9284 213.517 97.7575C213.517 97.5867 213.517 97.4158 213.517 97.2449C213.517 97.0741 213.517 96.8462 213.517 96.6754C213.517 96.5615 213.517 96.5045 213.517 96.3906C213.46 95.7641 213.403 95.1946 213.289 94.625C213.062 93.2581 212.72 91.8912 212.207 90.6382C212.606 90.3534 213.005 90.0117 213.403 89.67C213.46 89.613 213.517 89.5561 213.574 89.4991C213.859 89.2143 214.201 88.9865 214.485 88.7017C214.599 88.5878 214.656 88.5309 214.77 88.417C215.055 88.1322 215.283 87.9044 215.568 87.6196C215.682 87.5057 215.738 87.4487 215.852 87.3348C216.137 87.0501 216.422 86.7653 216.65 86.4236C216.707 86.3666 216.764 86.3097 216.821 86.1957C217.504 85.4553 218.074 84.658 218.643 83.8037C218.7 83.7467 218.757 83.6328 218.814 83.5758C218.985 83.348 219.099 83.1202 219.27 82.8924C219.384 82.7215 219.441 82.6076 219.554 82.4368C219.554 82.4368 219.554 82.4368 219.554 82.3798C220.466 80.842 221.206 79.2473 221.719 77.5387V77.4817C221.833 77.083 221.947 76.6843 222.06 76.2857C222.174 75.83 222.288 75.4313 222.345 74.9757C222.345 74.9188 222.345 74.8048 222.402 74.7479C222.459 74.4062 222.516 74.0644 222.573 73.7227C222.573 73.6088 222.63 73.4379 222.63 73.324C222.687 73.0393 222.687 72.7545 222.687 72.4697C222.687 72.2988 222.687 72.128 222.687 72.0141C222.687 71.9002 222.687 71.8432 222.687 71.7293C222.915 71.3876 222.915 71.0458 222.915 70.7611Z" fill="white"/>
</g>
<circle cx="235.158" cy="33.27" r="21.8023" fill="#2DFFB3"/>
<defs>
<linearGradient id="paint0_linear" x1="176.339" y1="-15.041" x2="176.339" y2="228.962" gradientUnits="userSpaceOnUse">
<stop stop-color="#CEBFF5"/>
<stop offset="1" stop-color="#2680C1" stop-opacity="0"/>
</linearGradient>
<clipPath id="clip0">
<rect width="179.008" height="179.008" fill="white" transform="translate(87.1347 27.5325)"/>
</clipPath>
</defs>
</svg>
