<svg width="44" height="44" viewBox="0 0 44 44" fill="none" xmlns="http://www.w3.org/2000/svg">
<path d="M22 44C34.1503 44 44 34.1503 44 22C44 9.84974 34.1503 0 22 0C9.84974 0 0 9.84974 0 22C0 34.1503 9.84974 44 22 44Z" fill="#5600E3"/>
<path d="M34.6484 14.2211C33.5831 12.8653 31.92 12.0863 30.0842 12.0863C28.4589 12.0863 26.96 12.6295 25.6316 13.699C24.5347 14.5811 23.5768 15.8084 22.7831 17.3453C22.7579 17.3937 22.7347 17.44 22.7116 17.4884C22.4442 18.019 22.2084 18.5621 22 19.1074C21.0695 21.5516 20.72 24.0295 20.72 25.619C20.72 26.5369 20.3852 27.379 19.8316 28.0316C19.1473 28.8379 18.1263 29.3516 16.9873 29.3516C14.9284 29.3516 13.2547 27.6779 13.2547 25.6211C13.2547 24.8548 13.4863 24.1179 13.9221 23.4926L14.7895 22.2484L13.4168 21.6021C13.0905 21.4484 12.7789 21.2548 12.4884 21.0274C10.7073 19.6295 10.2042 17.2884 11.3663 15.8063C11.9516 15.0632 12.8568 14.6526 13.9158 14.6526C16.4147 14.6526 18.0273 16.7579 18.9389 18.5242C19.3831 19.3832 19.7368 20.3095 20.0105 21.2274C20.3031 20.0105 20.72 18.7284 21.2884 17.4905C21.2631 17.4421 21.24 17.3958 21.2147 17.3474C20.421 15.8105 19.461 14.5832 18.3663 13.7011C17.0379 12.6316 15.5389 12.0884 13.9137 12.0884C12.0779 12.0884 10.4126 12.8653 9.34735 14.2232C8.34103 15.5053 7.96419 17.1453 8.2884 18.84C8.59998 20.4695 9.5284 21.9621 10.901 23.0421C10.9852 23.1074 11.0695 23.1726 11.1558 23.2337C10.8463 23.9853 10.6863 24.7937 10.6863 25.6211C10.6863 29.0926 13.5116 31.9158 16.981 31.9158C18.5579 31.9158 20.0021 31.3326 21.1095 30.3684C21.4358 30.0842 21.7326 29.7663 21.9937 29.4211C22.7979 28.3642 23.2758 27.0463 23.2758 25.6211C23.2758 24.459 23.501 22.8548 23.9831 21.2274C24.2547 20.3095 24.6105 19.3811 25.0526 18.5242C25.9663 16.7579 27.5789 14.6526 30.0779 14.6526C31.1368 14.6526 32.0421 15.0632 32.6273 15.8063C33.7895 17.2863 33.2863 19.6274 31.5052 21.0274C31.2147 21.2548 30.9031 21.4484 30.5768 21.6021L29.2042 22.2484L30.0716 23.4926C30.5073 24.1179 30.7389 24.8548 30.7389 25.6211C30.7389 27.6779 29.0652 29.3516 27.0063 29.3516C25.8673 29.3516 24.8484 28.8379 24.1621 28.0316C23.8737 28.8884 23.4358 29.6779 22.88 30.3663C23.9852 31.3284 25.4295 31.9137 27.0084 31.9137C30.48 31.9137 33.3031 29.0905 33.3031 25.619C33.3031 24.7895 33.1431 23.9811 32.8358 23.2316C32.9221 23.1705 33.0063 23.1053 33.0905 23.04C34.4652 21.96 35.3937 20.4674 35.7031 18.8379C36.0316 17.1432 35.6547 15.5032 34.6484 14.2211Z" fill="white"/>
</svg>
