<svg width="491" height="359" viewBox="0 0 491 359" fill="none" xmlns="http://www.w3.org/2000/svg">
<g opacity="0.7">
<path d="M43.8824 9.48393C45.1513 9.48393 46.18 8.47323 46.18 7.22646C46.18 5.9797 45.1513 4.96899 43.8824 4.96899C42.6134 4.96899 41.5847 5.9797 41.5847 7.22646C41.5847 8.47323 42.6134 9.48393 43.8824 9.48393Z" fill="#C8E7FE"/>
<path d="M43.8824 21.6492C45.1513 21.6492 46.18 20.6385 46.18 19.3917C46.18 18.145 45.1513 17.1343 43.8824 17.1343C42.6134 17.1343 41.5847 18.145 41.5847 19.3917C41.5847 20.6385 42.6134 21.6492 43.8824 21.6492Z" fill="#C8E7FE"/>
<path d="M43.8824 33.8145C45.1513 33.8145 46.18 32.8038 46.18 31.557C46.18 30.3103 45.1513 29.2996 43.8824 29.2996C42.6134 29.2996 41.5847 30.3103 41.5847 31.557C41.5847 32.8038 42.6134 33.8145 43.8824 33.8145Z" fill="#C8E7FE"/>
<path d="M43.8824 45.9798C45.1513 45.9798 46.18 44.9691 46.18 43.7223C46.18 42.4755 45.1513 41.4648 43.8824 41.4648C42.6134 41.4648 41.5847 42.4755 41.5847 43.7223C41.5847 44.9691 42.6134 45.9798 43.8824 45.9798Z" fill="#C8E7FE"/>
<path d="M43.8824 58.1448C45.1513 58.1448 46.18 57.1341 46.18 55.8873C46.18 54.6406 45.1513 53.6299 43.8824 53.6299C42.6134 53.6299 41.5847 54.6406 41.5847 55.8873C41.5847 57.1341 42.6134 58.1448 43.8824 58.1448Z" fill="#C8E7FE"/>
<path d="M43.8824 70.3101C45.1513 70.3101 46.18 69.2994 46.18 68.0526C46.18 66.8059 45.1513 65.7952 43.8824 65.7952C42.6134 65.7952 41.5847 66.8059 41.5847 68.0526C41.5847 69.2994 42.6134 70.3101 43.8824 70.3101Z" fill="#C8E7FE"/>
<path d="M43.8824 82.4754C45.1513 82.4754 46.18 81.4647 46.18 80.2179C46.18 78.9711 45.1513 77.9604 43.8824 77.9604C42.6134 77.9604 41.5847 78.9711 41.5847 80.2179C41.5847 81.4647 42.6134 82.4754 43.8824 82.4754Z" fill="#C8E7FE"/>
<path d="M43.8824 94.7659C45.1513 94.7659 46.18 93.7552 46.18 92.5084C46.18 91.2617 45.1513 90.251 43.8824 90.251C42.6134 90.251 41.5847 91.2617 41.5847 92.5084C41.5847 93.7552 42.6134 94.7659 43.8824 94.7659Z" fill="#C8E7FE"/>
<path d="M43.8824 106.931C45.1513 106.931 46.18 105.92 46.18 104.674C46.18 103.427 45.1513 102.416 43.8824 102.416C42.6134 102.416 41.5847 103.427 41.5847 104.674C41.5847 105.92 42.6134 106.931 43.8824 106.931Z" fill="#C8E7FE"/>
<path d="M43.8824 119.096C45.1513 119.096 46.18 118.086 46.18 116.839C46.18 115.592 45.1513 114.582 43.8824 114.582C42.6134 114.582 41.5847 115.592 41.5847 116.839C41.5847 118.086 42.6134 119.096 43.8824 119.096Z" fill="#C8E7FE"/>
<path d="M43.8824 131.262C45.1513 131.262 46.18 130.251 46.18 129.004C46.18 127.758 45.1513 126.747 43.8824 126.747C42.6134 126.747 41.5847 127.758 41.5847 129.004C41.5847 130.251 42.6134 131.262 43.8824 131.262Z" fill="#C8E7FE"/>
<path d="M156.977 9.48393C158.246 9.48393 159.275 8.47323 159.275 7.22646C159.275 5.9797 158.246 4.96899 156.977 4.96899C155.708 4.96899 154.68 5.9797 154.68 7.22646C154.68 8.47323 155.708 9.48393 156.977 9.48393Z" fill="#C8E7FE"/>
<path d="M156.977 21.6492C158.246 21.6492 159.275 20.6385 159.275 19.3917C159.275 18.145 158.246 17.1343 156.977 17.1343C155.708 17.1343 154.68 18.145 154.68 19.3917C154.68 20.6385 155.708 21.6492 156.977 21.6492Z" fill="#C8E7FE"/>
<path d="M156.977 33.8145C158.246 33.8145 159.275 32.8038 159.275 31.557C159.275 30.3103 158.246 29.2996 156.977 29.2996C155.708 29.2996 154.68 30.3103 154.68 31.557C154.68 32.8038 155.708 33.8145 156.977 33.8145Z" fill="#C8E7FE"/>
<path d="M156.977 45.9798C158.246 45.9798 159.275 44.9691 159.275 43.7223C159.275 42.4755 158.246 41.4648 156.977 41.4648C155.708 41.4648 154.68 42.4755 154.68 43.7223C154.68 44.9691 155.708 45.9798 156.977 45.9798Z" fill="#C8E7FE"/>
<path d="M156.977 58.1448C158.246 58.1448 159.275 57.1341 159.275 55.8873C159.275 54.6406 158.246 53.6299 156.977 53.6299C155.708 53.6299 154.68 54.6406 154.68 55.8873C154.68 57.1341 155.708 58.1448 156.977 58.1448Z" fill="#C8E7FE"/>
<path d="M156.977 70.3101C158.246 70.3101 159.275 69.2994 159.275 68.0526C159.275 66.8059 158.246 65.7952 156.977 65.7952C155.708 65.7952 154.68 66.8059 154.68 68.0526C154.68 69.2994 155.708 70.3101 156.977 70.3101Z" fill="#C8E7FE"/>
<path d="M156.977 82.4754C158.246 82.4754 159.275 81.4647 159.275 80.2179C159.275 78.9711 158.246 77.9604 156.977 77.9604C155.708 77.9604 154.68 78.9711 154.68 80.2179C154.68 81.4647 155.708 82.4754 156.977 82.4754Z" fill="#C8E7FE"/>
<path d="M156.977 94.7659C158.246 94.7659 159.275 93.7552 159.275 92.5084C159.275 91.2617 158.246 90.251 156.977 90.251C155.708 90.251 154.68 91.2617 154.68 92.5084C154.68 93.7552 155.708 94.7659 156.977 94.7659Z" fill="#C8E7FE"/>
<path d="M156.977 106.931C158.246 106.931 159.275 105.92 159.275 104.674C159.275 103.427 158.246 102.416 156.977 102.416C155.708 102.416 154.68 103.427 154.68 104.674C154.68 105.92 155.708 106.931 156.977 106.931Z" fill="#C8E7FE"/>
<path d="M156.977 119.096C158.246 119.096 159.275 118.086 159.275 116.839C159.275 115.592 158.246 114.582 156.977 114.582C155.708 114.582 154.68 115.592 154.68 116.839C154.68 118.086 155.708 119.096 156.977 119.096Z" fill="#C8E7FE"/>
<path d="M156.977 131.262C158.246 131.262 159.275 130.251 159.275 129.004C159.275 127.758 158.246 126.747 156.977 126.747C155.708 126.747 154.68 127.758 154.68 129.004C154.68 130.251 155.708 131.262 156.977 131.262Z" fill="#C8E7FE"/>
<path d="M134.384 9.48393C135.653 9.48393 136.681 8.47323 136.681 7.22646C136.681 5.9797 135.653 4.96899 134.384 4.96899C133.115 4.96899 132.086 5.9797 132.086 7.22646C132.086 8.47323 133.115 9.48393 134.384 9.48393Z" fill="#C8E7FE"/>
<path d="M134.384 21.6492C135.653 21.6492 136.681 20.6385 136.681 19.3917C136.681 18.145 135.653 17.1343 134.384 17.1343C133.115 17.1343 132.086 18.145 132.086 19.3917C132.086 20.6385 133.115 21.6492 134.384 21.6492Z" fill="#C8E7FE"/>
<path d="M134.384 33.8145C135.653 33.8145 136.681 32.8038 136.681 31.557C136.681 30.3103 135.653 29.2996 134.384 29.2996C133.115 29.2996 132.086 30.3103 132.086 31.557C132.086 32.8038 133.115 33.8145 134.384 33.8145Z" fill="#C8E7FE"/>
<path d="M134.384 45.9798C135.653 45.9798 136.681 44.9691 136.681 43.7223C136.681 42.4755 135.653 41.4648 134.384 41.4648C133.115 41.4648 132.086 42.4755 132.086 43.7223C132.086 44.9691 133.115 45.9798 134.384 45.9798Z" fill="#C8E7FE"/>
<path d="M134.384 58.1448C135.653 58.1448 136.681 57.1341 136.681 55.8873C136.681 54.6406 135.653 53.6299 134.384 53.6299C133.115 53.6299 132.086 54.6406 132.086 55.8873C132.086 57.1341 133.115 58.1448 134.384 58.1448Z" fill="#C8E7FE"/>
<path d="M134.384 70.3101C135.653 70.3101 136.681 69.2994 136.681 68.0526C136.681 66.8059 135.653 65.7952 134.384 65.7952C133.115 65.7952 132.086 66.8059 132.086 68.0526C132.086 69.2994 133.115 70.3101 134.384 70.3101Z" fill="#C8E7FE"/>
<path d="M134.384 82.4754C135.653 82.4754 136.681 81.4647 136.681 80.2179C136.681 78.9711 135.653 77.9604 134.384 77.9604C133.115 77.9604 132.086 78.9711 132.086 80.2179C132.086 81.4647 133.115 82.4754 134.384 82.4754Z" fill="#C8E7FE"/>
<path d="M134.384 94.7659C135.653 94.7659 136.681 93.7552 136.681 92.5084C136.681 91.2617 135.653 90.251 134.384 90.251C133.115 90.251 132.086 91.2617 132.086 92.5084C132.086 93.7552 133.115 94.7659 134.384 94.7659Z" fill="#C8E7FE"/>
<path d="M134.384 106.931C135.653 106.931 136.681 105.92 136.681 104.674C136.681 103.427 135.653 102.416 134.384 102.416C133.115 102.416 132.086 103.427 132.086 104.674C132.086 105.92 133.115 106.931 134.384 106.931Z" fill="#C8E7FE"/>
<path d="M134.384 119.096C135.653 119.096 136.681 118.086 136.681 116.839C136.681 115.592 135.653 114.582 134.384 114.582C133.115 114.582 132.086 115.592 132.086 116.839C132.086 118.086 133.115 119.096 134.384 119.096Z" fill="#C8E7FE"/>
<path d="M134.384 131.262C135.653 131.262 136.681 130.251 136.681 129.004C136.681 127.758 135.653 126.747 134.384 126.747C133.115 126.747 132.086 127.758 132.086 129.004C132.086 130.251 133.115 131.262 134.384 131.262Z" fill="#C8E7FE"/>
<path d="M179.571 9.48393C180.84 9.48393 181.868 8.47323 181.868 7.22646C181.868 5.9797 180.84 4.96899 179.571 4.96899C178.302 4.96899 177.273 5.9797 177.273 7.22646C177.273 8.47323 178.302 9.48393 179.571 9.48393Z" fill="#C8E7FE"/>
<path d="M179.571 21.6492C180.84 21.6492 181.868 20.6385 181.868 19.3917C181.868 18.145 180.84 17.1343 179.571 17.1343C178.302 17.1343 177.273 18.145 177.273 19.3917C177.273 20.6385 178.302 21.6492 179.571 21.6492Z" fill="#C8E7FE"/>
<path d="M179.571 33.8145C180.84 33.8145 181.868 32.8038 181.868 31.557C181.868 30.3103 180.84 29.2996 179.571 29.2996C178.302 29.2996 177.273 30.3103 177.273 31.557C177.273 32.8038 178.302 33.8145 179.571 33.8145Z" fill="#C8E7FE"/>
<path d="M179.571 45.9798C180.84 45.9798 181.868 44.9691 181.868 43.7223C181.868 42.4755 180.84 41.4648 179.571 41.4648C178.302 41.4648 177.273 42.4755 177.273 43.7223C177.273 44.9691 178.302 45.9798 179.571 45.9798Z" fill="#C8E7FE"/>
<path d="M179.571 58.1448C180.84 58.1448 181.868 57.1341 181.868 55.8873C181.868 54.6406 180.84 53.6299 179.571 53.6299C178.302 53.6299 177.273 54.6406 177.273 55.8873C177.273 57.1341 178.302 58.1448 179.571 58.1448Z" fill="#C8E7FE"/>
<path d="M179.571 70.3101C180.84 70.3101 181.868 69.2994 181.868 68.0526C181.868 66.8059 180.84 65.7952 179.571 65.7952C178.302 65.7952 177.273 66.8059 177.273 68.0526C177.273 69.2994 178.302 70.3101 179.571 70.3101Z" fill="#C8E7FE"/>
<path d="M179.571 82.4754C180.84 82.4754 181.868 81.4647 181.868 80.2179C181.868 78.9711 180.84 77.9604 179.571 77.9604C178.302 77.9604 177.273 78.9711 177.273 80.2179C177.273 81.4647 178.302 82.4754 179.571 82.4754Z" fill="#C8E7FE"/>
<path d="M179.571 94.7659C180.84 94.7659 181.868 93.7552 181.868 92.5084C181.868 91.2617 180.84 90.251 179.571 90.251C178.302 90.251 177.273 91.2617 177.273 92.5084C177.273 93.7552 178.302 94.7659 179.571 94.7659Z" fill="#C8E7FE"/>
<path d="M179.571 106.931C180.84 106.931 181.868 105.92 181.868 104.674C181.868 103.427 180.84 102.416 179.571 102.416C178.302 102.416 177.273 103.427 177.273 104.674C177.273 105.92 178.302 106.931 179.571 106.931Z" fill="#C8E7FE"/>
<path d="M179.571 119.096C180.84 119.096 181.868 118.086 181.868 116.839C181.868 115.592 180.84 114.582 179.571 114.582C178.302 114.582 177.273 115.592 177.273 116.839C177.273 118.086 178.302 119.096 179.571 119.096Z" fill="#C8E7FE"/>
<path d="M179.571 131.262C180.84 131.262 181.868 130.251 181.868 129.004C181.868 127.758 180.84 126.747 179.571 126.747C178.302 126.747 177.273 127.758 177.273 129.004C177.273 130.251 178.302 131.262 179.571 131.262Z" fill="#C8E7FE"/>
<path d="M111.663 9.48393C112.932 9.48393 113.96 8.47323 113.96 7.22646C113.96 5.9797 112.932 4.96899 111.663 4.96899C110.394 4.96899 109.365 5.9797 109.365 7.22646C109.365 8.47323 110.394 9.48393 111.663 9.48393Z" fill="#C8E7FE"/>
<path d="M111.663 21.6492C112.932 21.6492 113.96 20.6385 113.96 19.3917C113.96 18.145 112.932 17.1343 111.663 17.1343C110.394 17.1343 109.365 18.145 109.365 19.3917C109.365 20.6385 110.394 21.6492 111.663 21.6492Z" fill="#C8E7FE"/>
<path d="M111.663 33.8145C112.932 33.8145 113.96 32.8038 113.96 31.557C113.96 30.3103 112.932 29.2996 111.663 29.2996C110.394 29.2996 109.365 30.3103 109.365 31.557C109.365 32.8038 110.394 33.8145 111.663 33.8145Z" fill="#C8E7FE"/>
<path d="M111.663 45.9798C112.932 45.9798 113.96 44.9691 113.96 43.7223C113.96 42.4755 112.932 41.4648 111.663 41.4648C110.394 41.4648 109.365 42.4755 109.365 43.7223C109.365 44.9691 110.394 45.9798 111.663 45.9798Z" fill="#C8E7FE"/>
<path d="M111.663 58.1448C112.932 58.1448 113.96 57.1341 113.96 55.8873C113.96 54.6406 112.932 53.6299 111.663 53.6299C110.394 53.6299 109.365 54.6406 109.365 55.8873C109.365 57.1341 110.394 58.1448 111.663 58.1448Z" fill="#C8E7FE"/>
<path d="M111.663 70.3101C112.932 70.3101 113.96 69.2994 113.96 68.0526C113.96 66.8059 112.932 65.7952 111.663 65.7952C110.394 65.7952 109.365 66.8059 109.365 68.0526C109.365 69.2994 110.394 70.3101 111.663 70.3101Z" fill="#C8E7FE"/>
<path d="M111.663 82.4754C112.932 82.4754 113.96 81.4647 113.96 80.2179C113.96 78.9711 112.932 77.9604 111.663 77.9604C110.394 77.9604 109.365 78.9711 109.365 80.2179C109.365 81.4647 110.394 82.4754 111.663 82.4754Z" fill="#C8E7FE"/>
<path d="M111.663 94.7659C112.932 94.7659 113.96 93.7552 113.96 92.5084C113.96 91.2617 112.932 90.251 111.663 90.251C110.394 90.251 109.365 91.2617 109.365 92.5084C109.365 93.7552 110.394 94.7659 111.663 94.7659Z" fill="#C8E7FE"/>
<path d="M111.663 106.931C112.932 106.931 113.96 105.92 113.96 104.674C113.96 103.427 112.932 102.416 111.663 102.416C110.394 102.416 109.365 103.427 109.365 104.674C109.365 105.92 110.394 106.931 111.663 106.931Z" fill="#C8E7FE"/>
<path d="M111.663 119.096C112.932 119.096 113.96 118.086 113.96 116.839C113.96 115.592 112.932 114.582 111.663 114.582C110.394 114.582 109.365 115.592 109.365 116.839C109.365 118.086 110.394 119.096 111.663 119.096Z" fill="#C8E7FE"/>
<path d="M111.663 131.262C112.932 131.262 113.96 130.251 113.96 129.004C113.96 127.758 112.932 126.747 111.663 126.747C110.394 126.747 109.365 127.758 109.365 129.004C109.365 130.251 110.394 131.262 111.663 131.262Z" fill="#C8E7FE"/>
<path d="M89.0692 9.48393C90.3382 9.48393 91.3669 8.47323 91.3669 7.22646C91.3669 5.9797 90.3382 4.96899 89.0692 4.96899C87.8003 4.96899 86.7716 5.9797 86.7716 7.22646C86.7716 8.47323 87.8003 9.48393 89.0692 9.48393Z" fill="#C8E7FE"/>
<path d="M89.0692 21.6492C90.3382 21.6492 91.3669 20.6385 91.3669 19.3917C91.3669 18.145 90.3382 17.1343 89.0692 17.1343C87.8003 17.1343 86.7716 18.145 86.7716 19.3917C86.7716 20.6385 87.8003 21.6492 89.0692 21.6492Z" fill="#C8E7FE"/>
<path d="M89.0692 33.8145C90.3382 33.8145 91.3669 32.8038 91.3669 31.557C91.3669 30.3103 90.3382 29.2996 89.0692 29.2996C87.8003 29.2996 86.7716 30.3103 86.7716 31.557C86.7716 32.8038 87.8003 33.8145 89.0692 33.8145Z" fill="#C8E7FE"/>
<path d="M89.0692 45.9798C90.3382 45.9798 91.3669 44.9691 91.3669 43.7223C91.3669 42.4755 90.3382 41.4648 89.0692 41.4648C87.8003 41.4648 86.7716 42.4755 86.7716 43.7223C86.7716 44.9691 87.8003 45.9798 89.0692 45.9798Z" fill="#C8E7FE"/>
<path d="M89.0692 58.1448C90.3382 58.1448 91.3669 57.1341 91.3669 55.8873C91.3669 54.6406 90.3382 53.6299 89.0692 53.6299C87.8003 53.6299 86.7716 54.6406 86.7716 55.8873C86.7716 57.1341 87.8003 58.1448 89.0692 58.1448Z" fill="#C8E7FE"/>
<path d="M89.0692 70.3101C90.3382 70.3101 91.3669 69.2994 91.3669 68.0526C91.3669 66.8059 90.3382 65.7952 89.0692 65.7952C87.8003 65.7952 86.7716 66.8059 86.7716 68.0526C86.7716 69.2994 87.8003 70.3101 89.0692 70.3101Z" fill="#C8E7FE"/>
<path d="M89.0692 82.4754C90.3382 82.4754 91.3669 81.4647 91.3669 80.2179C91.3669 78.9711 90.3382 77.9604 89.0692 77.9604C87.8003 77.9604 86.7716 78.9711 86.7716 80.2179C86.7716 81.4647 87.8003 82.4754 89.0692 82.4754Z" fill="#C8E7FE"/>
<path d="M89.0692 94.7659C90.3382 94.7659 91.3669 93.7552 91.3669 92.5084C91.3669 91.2617 90.3382 90.251 89.0692 90.251C87.8003 90.251 86.7716 91.2617 86.7716 92.5084C86.7716 93.7552 87.8003 94.7659 89.0692 94.7659Z" fill="#C8E7FE"/>
<path d="M89.0692 106.931C90.3382 106.931 91.3669 105.92 91.3669 104.674C91.3669 103.427 90.3382 102.416 89.0692 102.416C87.8003 102.416 86.7716 103.427 86.7716 104.674C86.7716 105.92 87.8003 106.931 89.0692 106.931Z" fill="#C8E7FE"/>
<path d="M89.0692 119.096C90.3382 119.096 91.3669 118.086 91.3669 116.839C91.3669 115.592 90.3382 114.582 89.0692 114.582C87.8003 114.582 86.7716 115.592 86.7716 116.839C86.7716 118.086 87.8003 119.096 89.0692 119.096Z" fill="#C8E7FE"/>
<path d="M89.0692 131.262C90.3382 131.262 91.3669 130.251 91.3669 129.004C91.3669 127.758 90.3382 126.747 89.0692 126.747C87.8003 126.747 86.7716 127.758 86.7716 129.004C86.7716 130.251 87.8003 131.262 89.0692 131.262Z" fill="#C8E7FE"/>
<path d="M66.4758 9.48393C67.7447 9.48393 68.7734 8.47323 68.7734 7.22646C68.7734 5.9797 67.7447 4.96899 66.4758 4.96899C65.2068 4.96899 64.1782 5.9797 64.1782 7.22646C64.1782 8.47323 65.2068 9.48393 66.4758 9.48393Z" fill="#C8E7FE"/>
<path d="M66.4758 21.6492C67.7447 21.6492 68.7734 20.6385 68.7734 19.3917C68.7734 18.145 67.7447 17.1343 66.4758 17.1343C65.2068 17.1343 64.1782 18.145 64.1782 19.3917C64.1782 20.6385 65.2068 21.6492 66.4758 21.6492Z" fill="#C8E7FE"/>
<path d="M66.4758 33.8145C67.7447 33.8145 68.7734 32.8038 68.7734 31.557C68.7734 30.3103 67.7447 29.2996 66.4758 29.2996C65.2068 29.2996 64.1782 30.3103 64.1782 31.557C64.1782 32.8038 65.2068 33.8145 66.4758 33.8145Z" fill="#C8E7FE"/>
<path d="M66.4758 45.9798C67.7447 45.9798 68.7734 44.9691 68.7734 43.7223C68.7734 42.4755 67.7447 41.4648 66.4758 41.4648C65.2068 41.4648 64.1782 42.4755 64.1782 43.7223C64.1782 44.9691 65.2068 45.9798 66.4758 45.9798Z" fill="#C8E7FE"/>
<path d="M66.4758 58.1448C67.7447 58.1448 68.7734 57.1341 68.7734 55.8873C68.7734 54.6406 67.7447 53.6299 66.4758 53.6299C65.2068 53.6299 64.1782 54.6406 64.1782 55.8873C64.1782 57.1341 65.2068 58.1448 66.4758 58.1448Z" fill="#C8E7FE"/>
<path d="M66.4758 70.3101C67.7447 70.3101 68.7734 69.2994 68.7734 68.0526C68.7734 66.8059 67.7447 65.7952 66.4758 65.7952C65.2068 65.7952 64.1782 66.8059 64.1782 68.0526C64.1782 69.2994 65.2068 70.3101 66.4758 70.3101Z" fill="#C8E7FE"/>
<path d="M66.4758 82.4754C67.7447 82.4754 68.7734 81.4647 68.7734 80.2179C68.7734 78.9711 67.7447 77.9604 66.4758 77.9604C65.2068 77.9604 64.1782 78.9711 64.1782 80.2179C64.1782 81.4647 65.2068 82.4754 66.4758 82.4754Z" fill="#C8E7FE"/>
<path d="M66.4758 94.7659C67.7447 94.7659 68.7734 93.7552 68.7734 92.5084C68.7734 91.2617 67.7447 90.251 66.4758 90.251C65.2068 90.251 64.1782 91.2617 64.1782 92.5084C64.1782 93.7552 65.2068 94.7659 66.4758 94.7659Z" fill="#C8E7FE"/>
<path d="M66.4758 106.931C67.7447 106.931 68.7734 105.92 68.7734 104.674C68.7734 103.427 67.7447 102.416 66.4758 102.416C65.2068 102.416 64.1782 103.427 64.1782 104.674C64.1782 105.92 65.2068 106.931 66.4758 106.931Z" fill="#C8E7FE"/>
<path d="M66.4758 119.096C67.7447 119.096 68.7734 118.086 68.7734 116.839C68.7734 115.592 67.7447 114.582 66.4758 114.582C65.2068 114.582 64.1782 115.592 64.1782 116.839C64.1782 118.086 65.2068 119.096 66.4758 119.096Z" fill="#C8E7FE"/>
<path d="M66.4758 131.262C67.7447 131.262 68.7734 130.251 68.7734 129.004C68.7734 127.758 67.7447 126.747 66.4758 126.747C65.2068 126.747 64.1782 127.758 64.1782 129.004C64.1782 130.251 65.2068 131.262 66.4758 131.262Z" fill="#C8E7FE"/>
</g>
<path opacity="0.3" d="M38.9736 205.218C47.5205 224.124 61.8365 240.893 81.1738 252.642C112.583 271.655 147.839 282.55 180.745 298.465C216.535 315.661 247.944 328.265 288.969 320.361C326.148 313.205 360.229 293.658 388.54 268.985C446.872 218.249 486.722 130.663 441.531 58.3515C426.787 34.746 399.651 17.1221 371.98 20.4332C334.695 24.8125 311.298 61.9831 278.82 80.782C207.347 122.225 125.404 31.4349 61.8365 90.3951C27.7559 122.118 22.0936 167.834 38.9736 205.218Z" fill="url(#paint0_linear)"/>
<g filter="url(#filter0_d)">
<rect x="81.5365" y="28.5417" width="341.171" height="228.34" rx="8" fill="white"/>
<rect x="82.5365" y="29.5417" width="339.171" height="226.34" rx="7" stroke="#C8E7FE" stroke-width="2"/>
</g>
<path d="M230.668 100.919C230.668 101.405 230.551 101.86 230.317 102.284C230.091 102.709 229.732 103.051 229.238 103.311C228.752 103.571 228.137 103.701 227.392 103.701H225.871V107.185H224.051V98.1113H227.392C228.094 98.1113 228.692 98.2326 229.186 98.4753C229.68 98.718 230.048 99.0516 230.291 99.4763C230.542 99.901 230.668 100.382 230.668 100.919ZM227.314 102.232C227.816 102.232 228.189 102.12 228.432 101.894C228.674 101.66 228.796 101.335 228.796 100.919C228.796 100.035 228.302 99.5933 227.314 99.5933H225.871V102.232H227.314ZM233.78 101.101C234.014 100.72 234.317 100.421 234.69 100.204C235.071 99.9876 235.505 99.8793 235.99 99.8793V101.79H235.509C234.937 101.79 234.504 101.925 234.209 102.193C233.923 102.462 233.78 102.93 233.78 103.597V107.185H231.96V99.9833H233.78V101.101ZM240.414 107.302C239.72 107.302 239.096 107.151 238.542 106.847C237.987 106.535 237.549 106.098 237.229 105.534C236.917 104.971 236.761 104.321 236.761 103.584C236.761 102.848 236.921 102.198 237.242 101.634C237.571 101.071 238.017 100.638 238.581 100.334C239.144 100.022 239.772 99.8663 240.466 99.8663C241.159 99.8663 241.787 100.022 242.351 100.334C242.914 100.638 243.356 101.071 243.677 101.634C244.006 102.198 244.171 102.848 244.171 103.584C244.171 104.321 244.002 104.971 243.664 105.534C243.334 106.098 242.884 106.535 242.312 106.847C241.748 107.151 241.116 107.302 240.414 107.302ZM240.414 105.716C240.743 105.716 241.051 105.638 241.337 105.482C241.631 105.318 241.865 105.075 242.039 104.754C242.212 104.434 242.299 104.044 242.299 103.584C242.299 102.9 242.117 102.375 241.753 102.011C241.397 101.639 240.96 101.452 240.44 101.452C239.92 101.452 239.482 101.639 239.127 102.011C238.78 102.375 238.607 102.9 238.607 103.584C238.607 104.269 238.776 104.798 239.114 105.17C239.46 105.534 239.894 105.716 240.414 105.716ZM245.038 103.558C245.038 102.83 245.181 102.185 245.467 101.621C245.762 101.058 246.16 100.625 246.663 100.321C247.166 100.018 247.725 99.8663 248.34 99.8663C248.808 99.8663 249.254 99.9703 249.679 100.178C250.104 100.378 250.442 100.646 250.693 100.984V97.5653H252.539V107.185H250.693V106.119C250.468 106.475 250.151 106.761 249.744 106.977C249.337 107.194 248.864 107.302 248.327 107.302C247.72 107.302 247.166 107.146 246.663 106.834C246.16 106.522 245.762 106.085 245.467 105.521C245.181 104.949 245.038 104.295 245.038 103.558ZM250.706 103.584C250.706 103.142 250.619 102.765 250.446 102.453C250.273 102.133 250.039 101.89 249.744 101.725C249.449 101.552 249.133 101.465 248.795 101.465C248.457 101.465 248.145 101.548 247.859 101.712C247.573 101.877 247.339 102.12 247.157 102.44C246.984 102.752 246.897 103.125 246.897 103.558C246.897 103.992 246.984 104.373 247.157 104.702C247.339 105.023 247.573 105.27 247.859 105.443C248.154 105.617 248.466 105.703 248.795 105.703C249.133 105.703 249.449 105.621 249.744 105.456C250.039 105.283 250.273 105.04 250.446 104.728C250.619 104.408 250.706 104.026 250.706 103.584ZM261.115 99.9833V107.185H259.282V106.275C259.048 106.587 258.741 106.834 258.359 107.016C257.987 107.19 257.579 107.276 257.137 107.276C256.574 107.276 256.076 107.159 255.642 106.925C255.209 106.683 254.867 106.332 254.615 105.872C254.373 105.404 254.251 104.85 254.251 104.208V99.9833H256.071V103.948C256.071 104.52 256.214 104.962 256.5 105.274C256.786 105.578 257.176 105.729 257.67 105.729C258.173 105.729 258.567 105.578 258.853 105.274C259.139 104.962 259.282 104.52 259.282 103.948V99.9833H261.115ZM262.443 103.584C262.443 102.839 262.595 102.189 262.898 101.634C263.201 101.071 263.622 100.638 264.159 100.334C264.696 100.022 265.312 99.8663 266.005 99.8663C266.898 99.8663 267.634 100.092 268.215 100.542C268.804 100.984 269.199 101.608 269.398 102.414H267.435C267.331 102.102 267.153 101.86 266.902 101.686C266.659 101.504 266.356 101.413 265.992 101.413C265.472 101.413 265.06 101.604 264.757 101.985C264.454 102.358 264.302 102.891 264.302 103.584C264.302 104.269 264.454 104.802 264.757 105.183C265.06 105.556 265.472 105.742 265.992 105.742C266.729 105.742 267.21 105.413 267.435 104.754H269.398C269.199 105.534 268.804 106.154 268.215 106.613C267.626 107.073 266.889 107.302 266.005 107.302C265.312 107.302 264.696 107.151 264.159 106.847C263.622 106.535 263.201 106.102 262.898 105.547C262.595 104.984 262.443 104.33 262.443 103.584ZM272.85 101.478V104.962C272.85 105.205 272.907 105.383 273.019 105.495C273.141 105.599 273.34 105.651 273.617 105.651H274.462V107.185H273.318C271.784 107.185 271.017 106.44 271.017 104.949V101.478H270.159V99.9833H271.017V98.2023H272.85V99.9833H274.462V101.478H272.85ZM278.527 107.302C277.938 107.302 277.409 107.198 276.941 106.99C276.473 106.774 276.101 106.483 275.823 106.119C275.555 105.755 275.407 105.352 275.381 104.91H277.214C277.249 105.188 277.383 105.417 277.617 105.599C277.86 105.781 278.159 105.872 278.514 105.872C278.861 105.872 279.13 105.803 279.32 105.664C279.52 105.526 279.619 105.348 279.619 105.131C279.619 104.897 279.498 104.724 279.255 104.611C279.021 104.49 278.644 104.36 278.124 104.221C277.587 104.091 277.145 103.957 276.798 103.818C276.46 103.68 276.166 103.467 275.914 103.181C275.672 102.895 275.55 102.51 275.55 102.024C275.55 101.626 275.663 101.262 275.888 100.932C276.122 100.603 276.452 100.343 276.876 100.152C277.31 99.9616 277.817 99.8663 278.397 99.8663C279.255 99.8663 279.94 100.083 280.451 100.516C280.963 100.941 281.244 101.517 281.296 102.245H279.554C279.528 101.959 279.407 101.734 279.19 101.569C278.982 101.396 278.701 101.309 278.345 101.309C278.016 101.309 277.76 101.37 277.578 101.491C277.405 101.613 277.318 101.782 277.318 101.998C277.318 102.241 277.44 102.427 277.682 102.557C277.925 102.679 278.302 102.804 278.813 102.934C279.333 103.064 279.762 103.199 280.1 103.337C280.438 103.476 280.729 103.693 280.971 103.987C281.223 104.273 281.353 104.655 281.361 105.131C281.361 105.547 281.244 105.92 281.01 106.249C280.785 106.579 280.456 106.839 280.022 107.029C279.598 107.211 279.099 107.302 278.527 107.302Z" fill="#212529"/>
<g filter="url(#filter1_d)">
<rect x="96.2946" y="42.4331" width="311.655" height="33.8603" rx="16.9301" fill="#EEF3FB"/>
<rect x="97.2946" y="43.4331" width="309.655" height="31.8603" rx="15.9301" stroke="#C8E7FE" stroke-width="2"/>
</g>
<rect x="104.108" y="127.518" width="68.5815" height="105.054" rx="7" fill="#F7F7F7"/>
<rect x="108.448" y="188.293" width="60.7684" height="15.6278" rx="3" fill="#EEEEEE"/>
<rect x="108.448" y="209.999" width="60.7684" height="5.20927" rx="2.60464" fill="#EEEEEE"/>
<rect x="108.448" y="218.68" width="60.7684" height="5.20926" rx="2.60463" fill="#EEEEEE"/>
<rect x="338.5" y="127.518" width="68.5815" height="105.054" rx="7" fill="#F7F7F7"/>
<rect x="342.84" y="188.293" width="60.7684" height="15.6278" rx="3" fill="#EEEEEE"/>
<rect x="342.84" y="209.999" width="60.7684" height="5.20927" rx="2.60464" fill="#EEEEEE"/>
<rect x="342.84" y="218.68" width="60.7684" height="5.20926" rx="2.60463" fill="#EEEEEE"/>
<rect x="260.369" y="127.518" width="68.5815" height="105.054" rx="7" fill="#F7F7F7"/>
<rect x="264.71" y="188.293" width="60.7684" height="15.6278" rx="3" fill="#EEEEEE"/>
<rect x="264.71" y="209.999" width="60.7684" height="5.20927" rx="2.60464" fill="#EEEEEE"/>
<rect x="264.71" y="218.68" width="60.7684" height="5.20926" rx="2.60463" fill="#EEEEEE"/>
<rect x="182.238" y="127.518" width="68.5815" height="105.054" rx="7" fill="#F7F7F7"/>
<rect x="186.579" y="188.293" width="60.7684" height="15.6278" rx="3" fill="#EEEEEE"/>
<rect x="186.579" y="209.999" width="60.7684" height="5.20927" rx="2.60464" fill="#EEEEEE"/>
<rect x="186.579" y="218.68" width="60.7684" height="5.20926" rx="2.60463" fill="#EEEEEE"/>
<path d="M132.557 155.757L127.784 152.078C127.344 151.739 126.738 151.745 126.305 152.093C125.133 153.033 124.59 154.581 124.908 156.073L125.241 157.633" fill="#333F61"/>
<path d="M157.063 169.905V169.857C157.063 167.625 155.516 165.697 153.35 165.23L148.349 164.151C142.396 162.866 136.887 160.011 132.387 155.877C131.308 155.655 129.721 155.515 128.188 156.239C126.082 157.233 126.225 158.847 124.068 160.174C122.372 161.217 119.337 162.032 117.487 160.794C116.641 160.227 116.002 159.203 114.135 158.346C113.772 158.179 113.464 158.066 113.267 157.997L113.151 158.05L112.436 160.697C112.094 161.965 111.921 163.273 111.921 164.586V169.905L112.513 173.112H156.243L157.063 169.905Z" fill="#7292CC"/>
<path d="M152.461 165.59C152.461 167.033 151.413 168.267 149.975 168.52L147.296 168.991C145.858 169.244 144.81 170.479 144.81 171.921V172.238L156.27 172.467L157.063 169.428V169.382C157.063 167.23 155.54 165.37 153.407 164.919L152.499 164.727L152.461 164.733L152.461 165.59Z" fill="#466FBA"/>
<path d="M129.333 169.483L129.331 169.471C128.92 165.495 126.789 161.861 123.448 159.439L123.272 159.311L123.269 159.31C120.774 160.29 117.801 159.874 115.695 158.012L115.078 157.332C114.533 156.731 113.502 156.953 113.283 157.72L112.445 160.646C112.097 161.862 111.921 163.118 111.921 164.378V169.483V170.532L129.333 169.483Z" fill="#97B4E8"/>
<path d="M118.255 169.483V164.378C118.255 163.118 118.424 161.862 118.759 160.646L119.014 159.719C117.761 159.499 116.555 158.933 115.553 158.012L114.959 157.332C114.434 156.731 113.442 156.953 113.231 157.72L112.425 160.646C112.09 161.862 111.921 163.118 111.921 164.378V169.483V170.532L118.255 170.135V169.483Z" fill="#6F98D7"/>
<path d="M150.685 175.692H115.869C113.688 175.692 111.921 174.08 111.921 172.091V169.887H129.039C129.911 169.887 130.618 170.532 130.618 171.327C130.618 172.131 131.34 172.493 132.221 172.481H152.657C153.866 172.464 154.946 171.792 155.405 170.772C155.537 170.477 155.807 170.25 156.14 170.154L157.063 169.887L156.94 171.868C155.898 174.181 153.427 175.692 150.685 175.692Z" fill="#333F61"/>
<path d="M118.356 172.091V169.887H111.921V172.091C111.921 174.08 113.659 175.692 115.804 175.692H122.239C120.094 175.692 118.356 174.08 118.356 172.091Z" fill="#12192E"/>
<path d="M122.413 172.467H111.921C112.054 174.267 113.769 175.692 115.865 175.692H126.108C126.108 173.911 124.454 172.467 122.413 172.467Z" fill="#333F61"/>
<path d="M118.361 172.467H111.921C112.052 174.267 113.737 175.692 115.798 175.692H122.239C120.178 175.692 118.493 174.267 118.361 172.467Z" fill="#253551"/>
<path d="M137.55 163.472C138.303 163.836 138.956 164.134 139.521 164.376C141.42 165.19 143.626 164.551 144.81 162.848C140.237 161.305 136.018 158.816 132.432 155.526C130.916 154 128.478 154.041 127.014 155.618L126.753 155.899C129.075 157.817 134.072 161.792 137.55 163.472Z" fill="#3A74A9"/>
<path d="M115.078 159.164C115.329 159.398 115.58 159.632 115.831 159.866C116.374 160.291 118.161 161.578 120.72 161.499C123.295 161.419 125.019 160.008 125.535 159.55L126.927 157.93C128.38 156.24 130.812 156.134 132.384 157.693C134.173 159.466 136.198 160.076 138.361 160.258C136.226 158.92 134.221 157.331 132.384 155.511C130.812 153.952 128.38 154.058 126.927 155.748L125.535 157.368C122.908 160.425 118.501 160.593 115.683 157.744L115.078 156.982C114.543 156.308 113.533 156.557 113.318 157.416L113.21 157.847C113.999 158.252 114.816 158.833 115.078 159.164Z" fill="#466FBA"/>
<path d="M134.261 156.373C134.223 155.976 133.864 155.69 133.463 155.698C133.358 155.701 133.252 155.708 133.147 155.713C132.614 155.738 132.082 155.763 131.549 155.787C131.328 155.798 131.107 155.808 130.887 155.818C130.723 155.826 130.562 155.828 130.41 155.899C130.045 156.07 129.878 156.505 130.039 156.868C130.171 157.163 130.475 157.327 130.798 157.315C131.262 157.296 131.725 157.272 132.189 157.25C132.377 157.241 132.579 157.211 132.767 157.223C132.813 157.226 132.795 157.213 132.81 157.245C132.835 157.302 132.825 157.404 132.831 157.464C132.876 157.929 132.92 158.394 132.966 158.858C132.996 159.162 133.179 159.428 133.484 159.529C133.875 159.659 134.313 159.452 134.451 159.073C134.513 158.905 134.49 158.739 134.474 158.568C134.452 158.34 134.43 158.113 134.408 157.885C134.361 157.41 134.315 156.936 134.269 156.461C134.266 156.432 134.264 156.402 134.261 156.373Z" fill="#333F61"/>
<path d="M139.638 162.543C139.502 161.785 139.366 161.027 139.23 160.268C139.198 160.088 139.148 159.919 139.023 159.784C138.853 159.6 138.618 159.536 138.386 159.582C138.032 159.65 137.679 159.73 137.327 159.805C136.999 159.874 136.671 159.937 136.345 160.012C136.048 160.079 135.816 160.341 135.785 160.674C135.75 161.048 135.984 161.401 136.322 161.484C136.491 161.525 136.657 161.477 136.824 161.442C137.05 161.394 137.275 161.346 137.501 161.299C137.604 161.277 137.706 161.256 137.808 161.234C137.846 161.226 137.938 161.186 137.976 161.199C138.017 161.213 138.03 161.427 138.039 161.478C138.117 161.912 138.195 162.347 138.273 162.782C138.321 163.046 138.457 163.272 138.691 163.38C139.013 163.527 139.396 163.382 139.565 163.051C139.643 162.897 139.669 162.716 139.638 162.543Z" fill="#333F61"/>
<ellipse cx="111.691" cy="59.5679" rx="4.11112" ry="4.11156" fill="#F5386C"/>
<ellipse cx="125.853" cy="59.5683" rx="3.65433" ry="4.11156" fill="#FBD854"/>
<ellipse cx="140.013" cy="59.5683" rx="4.11112" ry="4.11156" fill="#02CFA2"/>
<path d="M236.735 171.893V169.454C236.735 167.815 235.609 166.397 234.027 166.041L221.169 163.153L204.739 152.665L202.018 155.14C198.627 158.222 193.501 158.285 190.038 155.287L189.673 156.025C187.638 160.137 186.579 164.673 186.579 169.271H201.28L214.251 171.893H236.735Z" fill="#7292CC"/>
<path d="M201.298 169.318C201.776 169.318 202.163 168.941 202.163 168.476C202.164 168.374 202.145 168.273 202.108 168.178C201.995 167.885 199.233 160.989 188.544 158.382C188.085 158.254 187.607 158.514 187.476 158.962C187.345 159.41 187.611 159.876 188.07 160.004C188.088 160.009 188.106 160.013 188.124 160.017C197.942 162.411 200.465 168.707 200.488 168.771C200.615 169.1 200.938 169.318 201.298 169.318Z" fill="#466FBA"/>
<path d="M203.172 168.85C205.445 165.496 209.598 163.851 213.624 164.708L218.917 165.815L219.32 164.833C219.779 163.712 219.363 162.431 218.325 161.773C217.884 161.494 204.54 153.287 204.123 153.023L205.315 151.828C205.735 152.094 218.818 160.075 219.265 160.358C220.995 161.455 221.69 163.59 220.926 165.46L219.981 167.762L213.263 166.357C209.93 165.65 206.495 167.012 204.611 169.785C204.347 170.173 203.81 170.278 203.412 170.02C203.015 169.761 202.908 169.238 203.172 168.85Z" fill="#466FBA"/>
<path d="M219.327 158.3L217.866 157.4L215.097 161.675L216.557 162.575L219.327 158.3Z" fill="#333F61"/>
<path d="M216.393 156.508L214.931 155.607L212.161 159.885L213.623 160.786L216.393 156.508Z" fill="#333F61"/>
<path d="M213.469 154.707L212.008 153.806L209.238 158.083L210.7 158.984L213.469 154.707Z" fill="#333F61"/>
<path d="M210.55 152.905L209.088 152.004L206.318 156.282L207.781 157.183L210.55 152.905Z" fill="#333F61"/>
<path d="M201.299 168.475H186.606V174.377H201.299V168.475Z" fill="#333F61"/>
<path d="M201.299 171.848L214.263 174.377H236.735V171.005H214.263L201.299 168.475V171.848Z" fill="#333F61"/>
<path d="M307.925 162.477C305.985 162.042 304.11 161.36 302.347 160.445L291.818 154.866C289.387 153.615 286.419 154.104 284.525 156.069C283.162 157.491 281.238 158.24 279.267 158.116C277.126 158.279 275.043 157.371 273.713 155.692C273.069 154.729 271.983 154.151 270.82 154.152H268.31C267.76 154.152 267.314 154.596 267.314 155.143V163.072C267.314 163.619 267.76 164.063 268.31 164.063C272.161 164.063 275.283 167.169 275.283 171C275.283 171.548 275.729 171.992 276.279 171.992H300.185C300.526 171.991 300.843 171.818 301.026 171.532C303.204 168.12 306.373 164.44 307.696 164.44C308.246 164.437 308.69 163.991 308.687 163.444C308.685 162.988 308.37 162.592 307.925 162.485L307.925 162.477Z" fill="#7292CC"/>
<path d="M307.865 162.51C307.791 162.492 307.716 162.484 307.64 162.484C304.64 162.484 300.498 168.64 299.3 170.526C299.006 170.99 299.143 171.605 299.607 171.899C299.766 172 299.951 172.054 300.14 172.054H314.066C314.613 172.054 315.057 171.612 315.061 171.065C314.839 166.927 311.903 163.437 307.865 162.51Z" fill="#466FBA"/>
<path d="M268.309 162.111C267.76 162.111 267.314 162.557 267.314 163.106V171.065C267.314 171.614 267.76 172.059 268.309 172.059H276.267C276.816 172.059 277.261 171.614 277.261 171.065C277.261 166.12 273.253 162.111 268.309 162.111Z" fill="#333F61"/>
<path d="M292.615 159.448C292.066 159.422 291.643 158.955 291.669 158.406C291.679 158.211 291.746 158.022 291.862 157.864L293.992 154.979C294.319 154.537 294.942 154.443 295.384 154.77C295.826 155.096 295.919 155.719 295.593 156.161L293.463 159.047C293.265 159.314 292.947 159.464 292.615 159.448Z" fill="#333F61"/>
<path d="M296.494 161.627C295.945 161.601 295.522 161.134 295.548 160.585C295.558 160.39 295.625 160.201 295.741 160.043L297.871 157.158C298.198 156.716 298.821 156.622 299.263 156.949C299.705 157.275 299.798 157.898 299.472 158.34L297.341 161.226C297.144 161.493 296.826 161.643 296.494 161.627Z" fill="#333F61"/>
<path d="M300.373 163.805C299.824 163.778 299.401 163.312 299.427 162.763C299.437 162.568 299.504 162.379 299.62 162.221L301.75 159.336C302.077 158.894 302.7 158.8 303.142 159.127C303.584 159.453 303.677 160.076 303.351 160.518L301.22 163.404C301.023 163.671 300.704 163.821 300.373 163.805Z" fill="#333F61"/>
<path d="M314.954 170.303H267.314V171.918C267.314 172.81 268.647 173.533 270.292 173.533H311.977C313.621 173.533 314.954 172.81 314.954 171.918V170.303Z" fill="#333F61"/>
<g clip-path="url(#clip0)">
<path d="M355.769 168.193C358.162 168.482 359.606 167.5 361 167.071C362.412 166.542 363.963 166.584 365.349 167.17C368.287 168.424 373.791 170.479 378.33 170.496C384.082 170.52 390.609 169.926 393.01 164.57C392.325 162.243 390.106 160.625 387.589 160.691C384.42 160.765 379.007 160.666 377.892 159.172C376.539 157.357 371.522 151.538 367.701 149.467C366.76 148.955 365.589 149.36 365.143 150.334C364.144 152.529 361.941 156.317 358.5 156.936C355.199 157.53 351.18 155.97 348.895 154.881C348.003 154.452 346.964 155.038 346.865 156.012L345.759 166.996L355.769 168.193Z" fill="#7292CC"/>
<path d="M348.886 154.873C348.003 154.452 346.963 155.038 346.864 156.012L345.759 166.996L347.962 167.26L349.026 156.713C349.093 156.045 349.604 155.558 350.207 155.459C349.72 155.261 349.274 155.062 348.886 154.873Z" fill="#678ACA"/>
<path d="M378.305 170.091C373.841 170.075 368.419 168.053 365.522 166.815C364.161 166.237 362.626 166.196 361.24 166.716C359.903 167.12 358.442 168.102 356.09 167.821L345.833 166.592L345.8 166.617L345.453 170.025C345.338 171.164 346.147 172.179 347.277 172.336L357.246 173.681C358.104 173.797 358.954 173.4 359.416 172.666L360.266 171.329C360.711 170.627 361.487 170.207 362.312 170.24C363.253 170.273 364.615 170.487 366.232 171.246C369.046 172.567 372.066 173.392 375.161 173.599C379.898 173.912 386.177 173.623 390.122 170.677C393.373 168.251 393.571 165.907 392.837 164.099C390.526 169.522 384.024 170.116 378.305 170.091Z" fill="#333F61"/>
<path d="M345.833 166.592L345.8 166.617L345.453 170.025C345.338 171.164 346.147 172.179 347.277 172.336L348.251 172.468C347.797 172.031 347.549 171.404 347.615 170.735C347.681 170.067 347.954 167.417 348.003 166.856L345.833 166.592Z" fill="#27304A"/>
<path d="M358.492 156.928C355.191 157.522 351.172 155.962 348.886 154.873C348.003 154.452 346.963 155.038 346.864 156.012L346.749 157.192C346.749 157.192 356.437 162.828 361.867 155.128C360.918 156.012 359.795 156.697 358.492 156.928Z" fill="#466FBA"/>
<path d="M348.886 154.873C348.003 154.452 346.963 155.038 346.864 156.012L346.749 157.192C346.749 157.192 347.574 157.67 348.878 158.157L349.026 156.721C349.092 156.053 349.604 155.566 350.207 155.467C349.72 155.261 349.274 155.062 348.886 154.873Z" fill="#365A9B"/>
<path d="M365.762 156.449C365.498 156.218 365.473 155.813 365.704 155.549L369.846 150.862C370.077 150.598 370.482 150.573 370.746 150.804C371.01 151.035 371.035 151.439 370.804 151.703L366.661 156.391C366.43 156.663 366.026 156.688 365.762 156.449Z" fill="#333F61"/>
<path d="M368.155 158.199C367.891 157.967 367.866 157.563 368.097 157.299L372.008 152.884C372.239 152.619 372.644 152.595 372.908 152.826C373.172 153.057 373.197 153.461 372.966 153.725L369.054 158.141C368.823 158.405 368.419 158.43 368.155 158.199Z" fill="#333F61"/>
<path d="M370.556 159.948C370.292 159.717 370.267 159.313 370.498 159.049L374.005 155.087C374.236 154.823 374.641 154.799 374.905 155.03C375.169 155.261 375.194 155.665 374.963 155.929L371.456 159.891C371.224 160.155 370.82 160.18 370.556 159.948Z" fill="#333F61"/>
<path d="M372.949 161.698C372.685 161.467 372.66 161.062 372.892 160.798L376.077 157.2C376.308 156.936 376.712 156.911 376.976 157.142C377.24 157.373 377.265 157.778 377.034 158.042L373.849 161.64C373.618 161.904 373.213 161.929 372.949 161.698Z" fill="#333F61"/>
<path d="M365.341 167.178C368.279 168.432 373.783 170.487 378.321 170.504C384.073 170.528 390.6 169.934 393.002 164.578C392.754 163.72 392.276 162.936 391.632 162.292C390.477 164.397 388.092 165.676 388.092 165.676C381.036 169.588 371.225 166.055 366.438 163.86C364.738 163.084 362.816 162.977 361.033 163.53C354.671 165.511 346.113 163.423 346.113 163.423L345.75 166.996L355.76 168.193C358.153 168.482 359.597 167.5 360.992 167.07C362.403 166.551 363.963 166.584 365.341 167.178Z" fill="#466FBA"/>
<path d="M348.309 163.844C346.963 163.621 346.122 163.423 346.122 163.423L345.759 166.996L347.962 167.26L348.309 163.844Z" fill="#4369AD"/>
</g>
<path d="M363.351 63.8571H371.711C372.263 63.8571 372.714 63.383 372.714 62.8036C372.714 60.7844 371.627 58.9409 369.955 57.9927C370.323 57.466 370.54 56.8339 370.54 56.1316C370.54 54.3934 369.186 52.9712 367.531 52.9712C365.876 52.9712 364.521 54.3934 364.521 56.1316C364.521 56.8339 364.739 57.466 365.106 57.9927C363.434 58.9233 362.348 60.7669 362.348 62.8036C362.348 63.383 362.799 63.8571 363.351 63.8571ZM367.531 54.0247C368.634 54.0247 369.537 54.9728 369.537 56.1316C369.537 57.2904 368.634 58.2385 367.531 58.2385C366.427 58.2385 365.524 57.2904 365.524 56.1316C365.524 54.9728 366.427 54.0247 367.531 54.0247ZM365.876 58.7653C366.344 59.0989 366.929 59.292 367.531 59.292C368.149 59.292 368.718 59.0989 369.186 58.7653C370.708 59.4676 371.711 61.0478 371.711 62.8036H363.351C363.351 61.0478 364.354 59.4676 365.876 58.7653Z" fill="#6C757D"/>
<g clip-path="url(#clip1)">
<path d="M352.561 60.589L352.687 60.4024C353.187 59.667 353.456 58.7999 353.456 57.9053C353.456 55.4576 351.464 53.4653 349.016 53.4653C346.569 53.4653 344.577 55.4576 344.577 57.9053C344.577 60.353 346.569 62.3453 349.016 62.3453C349.911 62.3453 350.772 62.0818 351.513 61.5769L351.7 61.4507L354.581 64.332L355.442 63.4703L352.561 60.589ZM349.016 61.1269C347.238 61.1269 345.795 59.6835 345.795 57.9053C345.795 56.1271 347.238 54.6837 349.016 54.6837C350.794 54.6837 352.237 56.1271 352.237 57.9053C352.237 59.6835 350.794 61.1269 349.016 61.1269Z" fill="#6C757D"/>
</g>
<g clip-path="url(#clip2)">
<path d="M389.725 54.3998H388.406V54.2872C388.406 53.0183 387.345 51.9839 386.041 51.9839C384.737 51.9839 383.676 53.0183 383.676 54.2872V54.3998H382.36C381.669 54.3998 381.106 54.9487 381.106 55.6242V62.8391C381.106 63.1159 381.337 63.3411 381.621 63.3411H386.053C386.337 63.3411 386.568 63.1159 386.568 62.8391C386.568 62.5624 386.337 62.3372 386.053 62.3372H382.136V55.6242C382.136 55.5022 382.237 55.4037 382.362 55.4037H389.727C389.852 55.4037 389.954 55.5022 389.954 55.6242V57.7305C389.954 58.0073 390.185 58.2325 390.468 58.2325C390.752 58.2325 390.983 58.0073 390.983 57.7305V55.6242C390.979 54.9487 390.416 54.3998 389.725 54.3998ZM386.043 52.9878C386.78 52.9878 387.379 53.5718 387.379 54.2872V54.3998H384.708V54.2872C384.708 53.5695 385.307 52.9878 386.043 52.9878Z" fill="#6C757D"/>
</g>
<ellipse cx="391.226" cy="63.0916" rx="3.70227" ry="3.70267" fill="#4764BF"/>
<path d="M391.512 64.8192H390.697V62.2254L389.897 62.4592V61.8421L391.437 61.3093H391.512V64.8192Z" fill="white"/>
<g clip-path="url(#clip3)">
<path d="M112.562 249.915C112.562 249.846 112.148 242.863 109.175 240.582C108.484 240.028 107.723 239.821 106.825 239.89C101.709 240.374 101.571 249.846 101.571 249.915H100.603C100.603 249.5 100.741 239.614 106.686 239.061C107.792 238.922 108.829 239.268 109.728 239.89C113.046 242.379 113.461 249.5 113.461 249.846L112.562 249.915Z" fill="#6020BF"/>
<path d="M97.354 249.085L120.028 249.016L124.591 284.068L92.6533 284.206L97.354 249.085Z" fill="#564CA0"/>
<path d="M113.254 249.638C113.254 249.569 112.839 242.586 109.866 240.305C109.175 239.752 108.415 239.544 107.516 239.614C102.4 240.098 102.262 249.569 102.262 249.638H101.294C101.294 249.223 101.433 239.337 107.378 238.784C108.484 238.646 109.521 238.991 110.419 239.614C113.738 242.102 114.152 249.223 114.152 249.569L113.254 249.638Z" fill="#564CA0"/>
<path d="M92.6533 284.206L90.0955 281.648L95.2802 250.537L97.354 249.085L92.6533 284.206Z" fill="#695DC3"/>
<path d="M247.92 258.266L289.364 272.525L300.203 241.014L258.759 226.756L247.92 258.266Z" fill="#2DF8B4"/>
<path d="M256.122 229.985L300.311 245.188L302.11 239.958L257.921 224.755L256.122 229.985Z" fill="#0DB570"/>
<path d="M256.498 233.316L297.941 247.575L298.93 244.698L257.487 230.44L256.498 233.316Z" fill="#15CC86"/>
<path d="M266.801 264.763L270.462 266.022L281.841 232.942L278.18 231.683L266.801 264.763Z" fill="white"/>
<path d="M275.451 239.595L266.793 264.765L270.454 266.024L279.111 240.855L275.451 239.595Z" fill="white"/>
<path d="M276.369 236.934L275.379 239.81L279.04 241.069L280.029 238.193L276.369 236.934Z" fill="#D8D8D8"/>
<path d="M282.55 233.322L291.882 236.503C293.887 237.194 295.615 235.742 296.237 233.945C296.859 232.147 296.444 230.004 293.748 229.036C289.117 227.446 283.725 230.073 283.725 230.073L282.55 233.322Z" fill="#C4DAFC"/>
<path d="M282.55 233.322L291.882 236.503C293.887 237.194 295.615 235.742 296.237 233.945C296.859 232.147 296.444 230.004 293.748 229.036C289.117 227.446 283.725 230.073 283.725 230.073L282.55 233.322Z" fill="#0FB572"/>
<path d="M277.365 231.525L268.033 228.344C266.028 227.653 265.544 225.441 266.166 223.643C266.788 221.846 268.447 220.394 271.143 221.293C275.775 222.883 278.402 228.275 278.402 228.275L277.365 231.525Z" fill="#0FB572"/>
<path d="M266.097 226.201C266.373 227.169 266.996 227.93 268.102 228.344L277.434 231.525L278.54 228.275C278.54 228.275 278.264 227.722 277.711 226.893L277.158 228.414C277.088 228.344 276.95 228.275 276.881 228.206C276.674 228.068 276.328 228.137 276.19 228.344C276.052 228.552 276.121 228.897 276.328 229.036C276.466 229.174 276.674 229.243 276.812 229.381C276.605 229.589 276.328 229.658 276.052 229.589L266.097 226.201Z" fill="#049959"/>
<path d="M285.176 229.52C284.209 229.865 283.656 230.142 283.656 230.142L282.55 233.391L291.882 236.572C292.988 236.917 293.956 236.71 294.716 236.088L284.831 232.7C284.554 232.631 284.416 232.354 284.347 232.078C284.554 232.078 284.762 232.078 284.969 232.078C285.246 232.078 285.522 231.87 285.522 231.594C285.522 231.317 285.315 231.041 285.038 231.041C284.9 231.041 284.831 231.041 284.693 231.041L285.176 229.52Z" fill="#049959"/>
<path d="M278.54 228.275C278.678 227.791 279.231 227.515 279.715 227.722L283.172 228.898C283.656 229.036 283.932 229.589 283.725 230.073L282.619 233.322L277.434 231.525L278.54 228.275Z" fill="#F1F1F1"/>
<path d="M282.55 233.322L277.365 231.525L277.78 230.211L282.964 232.009L282.55 233.322Z" fill="#D8D8D8"/>
<path d="M231.083 302.702L274.911 302.501L274.757 269.177L230.93 269.379L231.083 302.702Z" fill="#443A8F"/>
<path d="M229.493 273.281L276.224 273.066L276.199 267.535L229.468 267.75L229.493 273.281Z" fill="#443A8F"/>
<g style="mix-blend-mode:multiply">
<path d="M230.979 276.328L274.807 276.126L274.793 273.084L230.965 273.286L230.979 276.328Z" fill="#6020BF"/>
</g>
<path d="M251.057 302.635L254.929 302.617L254.768 267.635L250.897 267.652L251.057 302.635Z" fill="white"/>
<path d="M254.838 275.972L250.967 275.99L251.09 302.607L254.961 302.589L254.838 275.972Z" fill="#F1F1F1"/>
<path d="M254.824 273.137L250.952 273.155L250.966 276.197L254.838 276.179L254.824 273.137Z" fill="#D8D8D8"/>
<path d="M202.775 247.841H212.591L213.905 252.68C213.905 252.75 213.905 252.75 213.905 252.819L216.601 262.498L217.016 264.019L220.403 276.187L221.232 279.16L224.551 290.982L225.38 293.955L228.353 304.602C228.353 304.671 228.422 304.74 228.422 304.809L230.98 313.935C232.293 318.705 236.717 322.024 241.625 322.024H287.043C287.872 322.024 288.495 321.333 288.495 320.572C288.495 319.742 287.803 319.12 287.043 319.12H241.625C238.031 319.12 234.782 316.7 233.814 313.174L231.74 305.708H295.477C296.237 305.708 296.859 305.155 296.928 304.394L298.38 293.955L298.795 290.982L300.454 279.16L300.869 276.187L302.597 263.673C302.735 263.466 302.804 263.189 302.804 262.913C302.804 262.774 302.804 262.636 302.735 262.567L304.118 252.68C304.187 252.266 304.049 251.851 303.772 251.505C303.496 251.159 303.081 251.021 302.666 251.021H216.532L215.149 246.043C214.942 245.421 214.389 244.937 213.697 244.937H201.669C201.462 245.283 201.254 245.559 201.047 245.836C201.6 246.527 202.153 247.219 202.775 247.841ZM228.422 293.955H295.408L294.163 302.735H230.911L228.906 295.407C228.906 295.337 228.837 295.268 228.837 295.199L228.422 293.955ZM224.343 279.229H297.481L295.822 291.051H227.661L224.343 279.229ZM220.196 264.434H299.486L297.827 276.256H223.514L220.196 264.434ZM217.292 253.925H300.938L299.901 261.461H219.366L217.292 253.925Z" fill="#313C98"/>
<path d="M187.152 248.809H204.711C206.024 248.809 207.061 247.772 207.061 246.458C207.061 245.144 206.024 244.107 204.711 244.107H187.152C185.839 244.107 184.802 245.144 184.802 246.458C184.802 247.772 185.839 248.809 187.152 248.809Z" fill="#1A0F92"/>
<path d="M117.678 331.91C118.715 332.118 119.821 332.048 120.789 331.703C120.996 333.086 121.273 334.537 121.273 334.537L134.2 340.69H111.664C111.595 338.271 113.254 333.915 113.323 331.081C114.774 331.426 116.226 331.703 117.678 331.91Z" fill="#002E4F"/>
<path d="M162.266 333.362C162.266 333.362 162.404 330.113 162.128 328.592C159.362 329.56 157.703 328.592 154.869 328.592C155.284 331.288 155.007 336.404 155.215 339.377H178.373L162.266 333.362Z" fill="#002E4F"/>
<path d="M160.538 211.406C159.708 209.125 159.915 206.912 159.915 204.562C163.234 203.248 162.197 201.727 168.764 203.317C175.124 221.638 193.512 240.374 193.512 240.374L188.88 243.278C188.811 243.278 167.45 230.073 160.538 211.406Z" fill="#F59D9B"/>
<path d="M153.901 176.078C153.901 176.078 168.764 196.957 172.013 202.833C172.013 202.833 164.893 208.364 160.399 208.502C160.468 208.502 153.21 184.236 153.901 176.078Z" fill="#1EE09A"/>
<path d="M136.826 247.564C136.826 247.564 140.836 261.322 157.703 285.313L153.003 333.984L164.685 332.809C164.685 332.809 183.212 278.053 156.113 240.374C128.946 202.626 136.826 247.564 136.826 247.564Z" fill="#0A0A72"/>
<path d="M126.112 241.411C126.112 241.411 120.028 259.94 131.504 286.903C131.504 286.903 124.245 299.969 118.715 311.93C113.668 322.784 112.562 335.989 112.562 335.989L121.342 334.676C121.342 334.676 157.911 284.414 145.951 239.545C133.923 194.537 126.112 241.411 126.112 241.411Z" fill="#1A0F92"/>
<path d="M114.221 190.112C115.881 188.315 117.816 186.448 119.821 185.342C122.586 187.623 123.623 189.697 125.42 196.265C109.106 203.663 110.143 235.396 110.143 235.396L104.889 234.636C104.889 234.636 101.986 203.248 114.221 190.112Z" fill="#F59D9B"/>
<path d="M150.514 174.211L150.652 174.142C150.652 174.142 161.367 177.668 163.925 191.357C166.828 212.996 160.952 244.591 160.952 244.591C157.772 243.416 150.86 243.831 139.937 242.863C130.674 242.033 122.655 235.12 122.655 235.12C133.232 230.557 129.153 193.5 129.153 193.5C127.01 194.744 126.388 196.611 123.83 198.409C121.687 195.297 119.613 188.176 117.401 185.342C132.679 171.584 150.514 174.211 150.514 174.211Z" fill="#2DF8B4"/>
<path d="M155.768 147.87L157.15 152.986C157.15 152.986 162.473 169.51 152.588 169.026C149.062 168.819 152.035 177.046 152.035 177.046C152.035 177.046 145.468 181.609 142.288 175.317C142.288 175.317 143.463 164.739 141.735 162.735C140.006 160.73 143.463 150.152 143.463 150.152C143.463 150.152 152.311 144.137 155.768 147.87Z" fill="#F59D9B"/>
<path d="M149.754 160.453C149.754 160.453 152.726 166.952 158.602 162.665C158.602 162.665 161.367 167.643 159.432 170.478C155.284 176.492 149.339 172.275 147.749 165.638C146.159 158.586 146.919 156.512 144.915 155.613C142.91 154.784 140.905 161.628 145.191 162.458C145.191 162.458 145.191 164.739 142.633 165.292C142.633 165.292 139.177 163.564 140.076 159.831C140.905 156.097 133.439 151.189 140.076 147.524C140.076 147.524 140.076 139.781 145.26 142.339C150.445 144.897 157.358 137.292 161.367 142.132C165.377 146.971 161.575 150.359 157.289 152.917L156.113 150.082C156.113 150.082 150.652 148.354 148.371 152.364C146.021 156.443 149.754 160.453 149.754 160.453Z" fill="#2F2E7F"/>
<path d="M110.005 235.12C110.419 236.295 113.254 241.204 110.834 242.448C107.862 243.9 106.756 245.629 103.161 241.826C101.986 240.582 104.889 234.705 104.889 234.705L110.005 235.12Z" fill="#F59D9B"/>
<path d="M198.627 250.399C199.111 250.814 199.872 250.883 200.425 250.468C201.047 250.053 201.254 249.293 200.978 248.601L198.835 243.554C199.319 242.379 198.627 241.066 197.314 240.789L192.406 239.752C192.406 239.752 188.811 240.098 188.12 241.48C187.705 242.379 188.88 244.661 189.848 246.251C189.572 246.873 189.572 247.633 189.848 248.325L191.162 251.229C191.576 252.058 192.613 252.404 193.374 251.851C193.512 251.713 193.65 251.574 193.788 251.436V251.505C194.203 252.335 195.24 252.68 196.001 252.127C196.07 252.058 196.208 251.989 196.277 251.92C196.761 252.196 197.383 252.196 197.936 251.851C198.489 251.574 198.697 250.952 198.627 250.399Z" fill="#F59D9B"/>
<path d="M193.097 241.55C193.097 241.55 194.618 242.932 195.448 242.794C195.448 242.794 194.618 243.693 194.825 244.522C194.825 244.522 193.996 244.177 193.374 244.868C193.374 244.868 192.337 244.799 191.991 245.49C191.991 245.49 190.747 245.214 190.263 245.836C190.263 245.836 190.055 244.592 191.853 244.384C193.581 244.246 194.272 243.554 193.788 242.863C193.305 242.241 193.097 241.55 193.097 241.55Z" fill="#DD8E8E"/>
<path d="M275.706 332.878C278.951 332.878 281.582 330.247 281.582 327.002C281.582 323.756 278.951 321.125 275.706 321.125C272.461 321.125 269.83 323.756 269.83 327.002C269.83 330.247 272.461 332.878 275.706 332.878Z" fill="#1A136B"/>
<path d="M275.706 330.596C277.711 330.596 279.37 328.937 279.37 326.932C279.37 324.927 277.711 323.268 275.706 323.268C273.701 323.268 272.042 324.927 272.042 326.932C272.042 329.006 273.701 330.596 275.706 330.596Z" fill="#464181"/>
<path d="M247.017 332.878C250.263 332.878 252.893 330.247 252.893 327.002C252.893 323.756 250.263 321.125 247.017 321.125C243.772 321.125 241.142 323.756 241.142 327.002C241.142 330.247 243.772 332.878 247.017 332.878Z" fill="#1A136B"/>
<path d="M247.018 330.596C249.022 330.596 250.681 328.937 250.681 326.932C250.681 324.927 249.022 323.268 247.018 323.268C245.013 323.268 243.354 324.927 243.354 326.932C243.354 329.006 245.013 330.596 247.018 330.596Z" fill="#464180"/>
<path d="M187.843 244.107H194.825L194.895 244.522C194.895 244.522 193.927 244.315 193.443 244.868C193.443 244.868 192.406 244.868 192.06 245.49C192.06 245.49 190.678 245.006 189.848 246.389L187.843 244.107Z" fill="#1A0F92"/>
<g clip-path="url(#clip4)">
<path d="M237.236 333.724C237.236 333.724 242.7 335.213 244.474 332.037C246.241 328.772 242.739 326.314 245.028 324.472C247.316 322.63 252.34 321.044 252.378 316.815C252.416 312.586 247.721 311.253 250.56 307.007C252.808 303.656 253.227 300.24 249.915 298.433C246.842 296.827 243.189 297.274 239.232 301.971C234.857 306.972 232.481 302.594 229.372 306.285C226.175 309.983 229.195 312.527 228.157 315.996C227.675 317.639 222.813 320.59 226.554 324.807L237.195 333.772L237.236 333.724Z" fill="#50BC8D"/>
<path d="M232.869 306.607C235.266 308.626 236.103 314.248 236.249 316.994C240.824 307.572 247.486 301.22 247.607 301.076C247.728 300.932 247.952 300.958 248.056 301.127C248.2 301.248 248.174 301.472 248.005 301.576C247.925 301.672 241.594 307.729 237.029 316.749C240.705 313.454 244.943 314.648 246.498 315.138C246.634 315.171 246.818 315.244 246.906 315.236C246.995 315.229 247.083 315.221 247.179 315.302C247.323 315.423 247.338 315.6 247.217 315.744C247.055 315.935 246.871 315.862 246.326 315.731C244.683 315.249 239.756 313.802 236.128 318.694C234.934 321.376 233.892 324.268 233.266 327.346C235.756 326.822 239.134 328.356 240.998 329.353C241.183 329.426 241.198 329.603 241.124 329.787C241.051 329.971 240.875 329.987 240.691 329.913C239.242 329.103 235.529 327.286 233.142 327.979C233.001 328.926 232.819 329.92 232.718 330.818C232.733 330.995 232.564 331.098 232.387 331.113C232.299 331.121 232.251 331.08 232.203 331.04C232.107 330.959 232.1 330.871 232.092 330.783C232.261 329.122 232.574 327.583 232.928 325.996L230.027 316.014C230.012 315.837 230.085 315.653 230.262 315.638C230.439 315.623 230.623 315.696 230.638 315.872L233.231 324.858C233.804 322.719 234.561 320.652 235.421 318.755C235.414 318.666 235.406 318.578 235.446 318.53C235.487 318.482 235.568 318.386 235.608 318.338C235.648 318.291 235.648 318.291 235.641 318.202C235.704 316.862 235.19 309.3 232.458 306.998C232.314 306.877 232.299 306.701 232.42 306.557C232.541 306.413 232.725 306.486 232.869 306.607Z" fill="white"/>
</g>
<path d="M238.687 334.961C238.687 334.961 240.423 314.605 233.828 313.421C227.231 312.278 230.084 320.465 226.774 319.241C223.423 317.976 223.727 306.976 216.081 307.612C208.437 308.168 218.18 317.013 213.623 316.956C208.984 316.897 215.198 322.233 215.146 326.349C215.094 330.465 203.012 321.59 201.504 327.155C199.35 335.156 213.89 334.77 213.89 334.77L238.687 334.961Z" fill="#564CA0"/>
<path d="M206.552 333.821C211.575 332.743 222.185 331.451 226.378 334.276C226.499 334.481 226.66 334.687 226.781 334.851L227.725 334.863C227.038 333.999 226.393 333.053 225.749 332.067C227.368 327.4 227.312 322.142 227.061 319.286C226.978 319.284 226.978 319.284 226.938 319.202C226.938 319.202 226.938 319.202 226.856 319.201C226.856 319.201 226.774 319.2 226.775 319.119C226.693 319.118 226.694 319.036 226.653 319.036C226.826 321.606 227.049 326.703 225.553 331.371C224.706 330.097 223.944 328.702 223.181 327.347C224.843 325.819 224.756 319.705 224.483 315.34C224.402 315.217 224.363 315.053 224.364 314.972C224.364 314.972 224.365 314.89 224.283 314.889C224.085 314.316 223.887 313.743 223.606 313.25C224.033 318.432 224.152 325.281 222.778 326.731C218.643 319.342 215.622 311.478 214.514 308.204C214.307 308.323 214.1 308.484 213.934 308.604C214.964 311.552 217.309 317.695 220.514 323.971C222.236 327.417 224.003 330.496 225.737 333.045C220.84 330.619 208.501 332.337 205.04 333.272C205.284 333.479 205.897 333.69 206.552 333.821Z" fill="#ECEEF6"/>
</g>
<g clip-path="url(#clip5)">
<path d="M91.2604 184.026C93.2842 197.925 105.495 212.768 105.495 212.768C111.229 221.134 131.738 226.937 131.738 226.937L133.492 224.98C124.587 222.011 110.352 208.99 110.352 208.99L100.638 186.657L97.6018 182.474C97.6018 182.474 89.2365 170.127 91.2604 184.026Z" fill="#F59D9B"/>
<path d="M127.69 217.761C127.69 217.626 127.825 217.558 127.892 217.491C128.297 217.221 128.77 217.356 129.04 217.693C129.31 218.098 129.175 218.571 128.837 218.841C128.702 218.908 128.635 218.976 128.5 218.976C128.162 219.043 127.892 218.908 127.69 218.638C127.487 218.368 127.487 218.031 127.69 217.761Z" fill="#FED159"/>
<path d="M127.622 217.761C127.96 217.693 128.23 217.828 128.432 218.098C128.635 218.368 128.635 218.706 128.5 218.976C128.162 219.043 127.892 218.908 127.69 218.638C127.487 218.368 127.487 218.031 127.622 217.761Z" fill="#F6C454"/>
<path d="M127.353 219.651C127.763 219.651 128.095 219.318 128.095 218.908C128.095 218.498 127.763 218.166 127.353 218.166C126.943 218.166 126.61 218.498 126.61 218.908C126.61 219.318 126.943 219.651 127.353 219.651Z" fill="#FED159"/>
<path d="M127.96 226.936L127.555 226.329C126.003 224.103 126.543 221.067 128.702 219.515C130.928 217.963 133.964 218.503 135.515 220.662L135.92 221.269C136.392 221.876 136.19 222.753 135.583 223.226L129.916 227.274C129.241 227.746 128.364 227.611 127.96 226.936Z" fill="#1A0F92"/>
<path d="M134.773 223.833L135.515 223.293C136.123 222.821 136.325 221.944 135.853 221.337L135.448 220.729C133.896 218.503 130.793 218.031 128.634 219.582C130.253 218.435 132.817 219.313 134.369 221.472L134.773 222.079C135.246 222.753 135.246 223.496 134.773 223.833Z" fill="#1A0F92"/>
<path d="M125.801 222.484C126.071 220.999 126.88 219.717 128.095 218.84C129.241 217.963 130.726 217.626 132.21 217.828C133.087 217.963 133.896 218.3 134.571 218.773C134.841 218.975 134.841 219.447 134.571 219.65L134.504 219.717C132.884 218.368 130.388 218.233 128.567 219.515C127.487 220.325 126.813 221.472 126.61 222.686C126.476 223.563 126.543 224.44 126.88 225.25L126.813 225.317C126.543 225.52 126.071 225.385 126.003 225.047C125.801 224.238 125.733 223.428 125.801 222.484Z" fill="#FFF2D4"/>
<path d="M126.948 219.11C127.097 219.11 127.218 218.989 127.218 218.84C127.218 218.691 127.097 218.57 126.948 218.57C126.799 218.57 126.678 218.691 126.678 218.84C126.678 218.989 126.799 219.11 126.948 219.11Z" fill="#FFE4A9"/>
<path d="M130.456 224.643C129.714 223.563 130.456 222.888 131.94 222.011C133.357 221.134 134.638 223.833 134.638 223.833C134.638 223.833 134.166 225.047 132.615 226.194C131.063 227.341 131.603 226.667 131.333 226.599C131.333 226.599 131.13 225.655 130.456 224.643Z" fill="#F59D9B"/>
<path d="M56.7198 324.564C56.7198 324.564 55.7079 331.244 54.0213 333.403C53.4816 334.145 52.4022 335.022 51.7276 336.372C50.6482 338.396 51.2554 341.432 52.0649 343.118C52.4697 343.996 52.0649 343.996 52.9419 344.265C55.6404 345.075 58.5413 343.726 59.7556 341.162C60.4302 339.745 60.9699 337.856 61.1048 335.494C61.3747 329.422 63.3311 326.319 63.3311 326.319L56.7198 324.564Z" fill="#F59D9B"/>
<path d="M86.538 327.601C86.538 327.601 87.1452 336.102 86.6729 338.868C86.4031 340.352 84.9189 343.388 85.5936 344.805C86.2682 346.222 87.0777 346.559 87.0777 346.559L104.753 346.897C105.697 346.897 105.09 346.222 104.281 345.615C102.999 344.603 101.987 343.928 97.9391 341.769C97.6693 341.634 96.7248 340.959 96.3875 340.757C95.5105 340.15 94.6335 339.273 93.8914 338.328C92.6096 336.776 92.5421 329.287 92.5421 329.287L86.538 327.601Z" fill="#F59D9B"/>
<path d="M100.3 227.409C100.3 227.409 102.526 239.621 101.042 247.649C99.6256 255.678 92.677 330.097 92.677 330.097L84.9189 330.502C84.9189 330.502 83.2998 299.466 83.5697 295.08C83.8395 290.762 86.1332 283.543 86.1332 283.543L85.3911 258.445L95.1731 225.52L100.3 227.409Z" fill="#0A0A72"/>
<path d="M77.4981 224.845C77.4981 224.845 71.3591 233.818 69.9424 241.172C68.4582 248.594 71.0218 271.331 68.1884 281.047C66.7042 286.309 60.9025 294.406 60.0255 301.22C59.1484 308.034 55.7079 325.779 55.7079 325.779L63.466 327.263L81.4784 282.868L95.6454 242.724L99.2883 222.079L77.4981 224.845Z" fill="#1A0F92"/>
<path d="M82.4228 173.906C82.4228 173.906 74.3274 173.433 71.1567 176.807C67.9859 180.18 78.2402 207.033 78.8473 211.351C79.4545 215.669 75.879 227.139 75.879 227.139C75.879 227.139 94.9033 230.85 100.3 227.341C99.1534 221.134 98.6812 214.59 99.0859 208.315C99.3558 203.862 100.772 200.151 102.122 195.968C102.864 193.742 103.134 191.515 102.324 189.221C101.515 186.995 100.03 185.173 98.7486 183.216C97.197 180.855 95.5779 178.359 93.6215 176.267C92.5421 175.12 82.4228 173.906 82.4228 173.906Z" fill="#2DF8B4"/>
<path d="M85.1213 163.38C85.1213 163.38 85.0538 163.583 84.9864 163.988C84.6491 165.877 83.2324 172.151 82.2879 173.906C81.141 175.997 86.2007 182.677 90.9905 181.799C92.4072 181.53 89.7762 175.66 89.9111 175.053C90.1135 174.175 90.3159 173.028 90.5857 171.882C90.6532 171.477 90.7881 171.004 90.8556 170.6C91.058 169.655 91.2604 168.71 91.3953 167.833C91.935 165.27 92.3397 163.178 92.3397 163.178L85.1213 163.38Z" fill="#F59D9B"/>
<path d="M83.7046 170.532C83.7046 170.532 89.5063 174.783 90.6532 171.949L83.3673 164.932L83.7046 170.532Z" fill="#ED8A8A"/>
<path d="M60.2279 339.745C55.9778 340.487 53.2118 338.058 51.7276 336.304C50.6483 338.328 50.1086 341.364 50.9181 343.051C51.5927 344.535 53.684 344.468 55.2357 344.535C56.9222 344.603 58.2715 343.658 59.081 342.241C59.4858 341.634 59.8905 340.757 60.2279 339.745Z" fill="#0A0A72"/>
<path d="M96.5224 340.757C91.935 341.972 87.9547 341.364 86.0658 340.555C85.5935 341.972 84.9189 343.793 85.2562 344.873C85.661 346.155 86.2682 346.425 86.8079 346.425C90.9905 346.559 102.054 346.694 105.225 346.762C105.697 346.762 105.9 346.222 105.63 345.885C104.82 344.94 96.8597 341.027 96.5224 340.757Z" fill="#0A0A72"/>
<path d="M98.4788 220.257C97.8041 219.582 96.7247 219.043 95.7128 218.705C95.5779 218.638 95.3755 218.57 95.308 218.503C94.566 218.098 93.6215 217.828 91.7326 217.828C91.6651 217.828 91.6651 217.828 91.6651 217.828C90.7206 217.828 88.8317 218.773 87.2801 218.975C84.1768 218.84 70.2122 216.614 64.9501 216.951L70.482 202.04L64.1406 198.937C64.0731 198.802 53.5491 219.245 58.946 222.416C65.0851 226.059 87.8872 222.551 87.8872 222.551H88.0221L90.3833 223.968C90.3833 223.968 90.7206 224.035 91.1929 224.17C92.6096 224.508 95.5104 225.115 96.1176 224.912C96.9271 225.182 98.2764 225.385 99.3558 225.385C99.5581 225.52 99.7605 225.52 99.828 225.52C99.8955 225.52 99.8955 225.452 99.828 225.385C100.3 225.385 100.705 225.25 100.84 225.115C101.649 224.373 100.503 222.214 98.4788 220.257Z" fill="#F59D9B"/>
<path d="M78.1053 160.547C78.1053 160.547 86.9428 175.997 93.4192 170.802C99.8955 165.607 92.3398 149.887 92.3398 149.887C82.9625 147.39 78.1053 160.547 78.1053 160.547Z" fill="#F59D9B"/>
<path d="M93.4836 153.932C93.4836 153.932 91.1224 149.344 88.6263 150.829C88.6263 150.829 86.3326 149.817 85.3207 152.043C85.0509 152.718 87.0073 157.441 83.5667 160.612C82.8921 161.286 84.2413 164.727 84.4437 165.739C87.0747 176.13 83.9715 193.604 77.4951 199.609C62.1812 213.845 45.9229 194.414 47.8118 186.25C49.7008 178.086 60.832 181.257 58.7407 175.05C56.9192 169.787 59.2804 165.739 66.094 164.862C74.7966 163.715 75.2014 162.636 74.2569 156.766C73.245 150.963 79.9237 142.26 88.2216 147.792C88.2216 147.792 90.7851 145.566 93.0788 146.645C95.3051 147.657 93.4836 153.932 93.4836 153.932Z" fill="#2F2E7F"/>
<path d="M82.2204 157.173C81.3434 157.511 81.2085 158.995 81.8831 160.479C82.5578 161.963 83.7046 162.841 84.5816 162.436C85.4586 162.098 85.5935 160.614 84.9189 159.13C84.2443 157.645 83.0974 156.768 82.2204 157.173Z" fill="#F59D9B"/>
<path d="M81.5458 218.301C81.6133 218.301 81.6133 218.301 81.6807 218.301C81.8157 218.301 81.9506 218.301 82.0181 218.368C81.3434 217.491 80.4664 216.884 79.387 216.816C77.7679 216.681 76.4187 217.086 75.4068 218.098C73.1805 220.257 72.5734 224.778 72.371 228.961C72.371 229.096 72.371 229.163 72.5734 229.163C72.6408 229.163 72.7757 229.096 72.7757 229.028C73.0456 224.912 73.5178 220.527 75.6766 218.503C76.6885 217.558 77.9029 217.154 79.4545 217.356C80.264 217.288 80.9387 217.626 81.5458 218.301Z" fill="#2B2B2B"/>
<path d="M83.5697 223.023C83.4348 223.091 83.2998 223.091 83.1649 223.091C83.5022 225.992 83.1649 228.961 83.0974 229.703C83.0974 229.77 83.1649 229.838 83.2998 229.905C83.3673 229.905 83.4348 229.838 83.5022 229.77C83.5697 229.231 83.7721 227.544 83.7046 225.52C83.7046 224.575 83.6371 223.766 83.5697 223.023Z" fill="#2B2B2B"/>
<path d="M64.0732 256.353C63.7359 256.556 60.0254 256.691 60.0254 256.691L58.4738 258.985L62.589 260.266L64.0732 256.353Z" fill="#36217F"/>
<path d="M64.1406 225.385L63.0613 223.496L58.6088 258.984L61.0374 257.972L62.7239 260.266L64.1406 225.385Z" fill="#5233A8"/>
<path d="M90.7881 225.385L63.0612 223.496L62.7239 260.266L89.4389 262.223L90.7881 225.385Z" fill="#6D47BF"/>
<path d="M83.0976 230.311C83.3001 230.378 83.57 230.176 83.6375 229.906C83.705 229.568 83.6375 229.298 83.435 229.231C83.2326 229.163 82.9626 229.366 82.8951 229.636C82.7601 229.906 82.8951 230.243 83.0976 230.311Z" fill="#F0F0F0"/>
<path d="M72.5061 229.636C72.7086 229.703 72.9111 229.433 72.9786 229.096C73.046 228.758 72.8436 228.556 72.6411 228.488C72.4386 228.421 72.2361 228.691 72.1686 229.028C72.1011 229.366 72.3036 229.636 72.5061 229.636Z" fill="#F0F0F0"/>
<path d="M81.5458 218.301C81.6133 218.301 81.6133 218.301 81.6807 218.301C81.8157 218.301 81.9506 218.301 82.0181 218.368C81.3434 217.491 80.4664 216.884 79.387 216.816C77.7679 216.681 76.4187 217.086 75.4068 218.098C73.1805 220.257 72.5734 224.778 72.371 228.961C72.371 229.096 72.371 229.163 72.5734 229.163C72.6408 229.163 72.7757 229.096 72.7757 229.028C73.0456 224.912 73.5178 220.527 75.6766 218.503C76.6885 217.558 77.9029 217.154 79.4545 217.356C80.264 217.288 80.9387 217.626 81.5458 218.301Z" fill="#5233A8"/>
<path d="M83.5697 223.023C83.4348 223.091 83.2998 223.091 83.1649 223.091C83.5022 225.992 83.1649 228.961 83.0974 229.703C83.0974 229.77 83.1649 229.838 83.2998 229.905C83.3673 229.905 83.4348 229.838 83.5022 229.77C83.5697 229.231 83.7721 227.544 83.7046 225.52C83.7046 224.575 83.6371 223.766 83.5697 223.023Z" fill="#5233A8"/>
</g>
<g filter="url(#filter2_d)">
<rect x="308.524" y="91.1743" width="151.921" height="228.34" rx="8" fill="#FBFBFB"/>
<rect x="309.524" y="92.1743" width="149.921" height="226.34" rx="7" stroke="#C8E7FE" stroke-width="2"/>
</g>
<rect x="322.414" y="106.802" width="91.1526" height="15.6278" rx="3" fill="#EDEFF0"/>
<rect x="322.414" y="128.508" width="79.867" height="5.20927" rx="2.60464" fill="#EDEFF0"/>
<rect x="322.414" y="137.19" width="59.0321" height="5.20929" rx="2.60464" fill="#EDEFF0"/>
<rect x="322.414" y="145.873" width="39.9335" height="5.20927" rx="2.60464" fill="#EDEFF0"/>
<ellipse cx="326.32" cy="158.461" rx="3.03842" ry="3.03874" fill="#EDEFF0"/>
<ellipse cx="335.001" cy="158.461" rx="3.03841" ry="3.03874" fill="#EDEFF0"/>
<ellipse cx="343.683" cy="158.461" rx="3.03842" ry="3.03874" fill="#EDEFF0"/>
<rect x="322.414" y="173.655" width="125.009" height="23.4417" rx="11.7209" fill="#7292CC"/>
<rect x="322.414" y="205.778" width="125.009" height="27.7828" rx="4" fill="#EDEFF0"/>
<path d="M359.289 188.458H356.787L356.373 189.655H355.05L357.309 183.364H358.776L361.035 189.655H359.703L359.289 188.458ZM358.947 187.45L358.038 184.822L357.129 187.45H358.947ZM364.075 183.373C364.735 183.373 365.314 183.502 365.812 183.76C366.316 184.018 366.703 184.387 366.973 184.867C367.249 185.341 367.387 185.893 367.387 186.523C367.387 187.153 367.249 187.705 366.973 188.179C366.703 188.647 366.316 189.01 365.812 189.268C365.314 189.526 364.735 189.655 364.075 189.655H361.879V183.373H364.075ZM364.03 188.584C364.69 188.584 365.2 188.404 365.56 188.044C365.92 187.684 366.1 187.177 366.1 186.523C366.1 185.869 365.92 185.359 365.56 184.993C365.2 184.621 364.69 184.435 364.03 184.435H363.139V188.584H364.03ZM370.526 183.373C371.186 183.373 371.765 183.502 372.263 183.76C372.767 184.018 373.154 184.387 373.424 184.867C373.7 185.341 373.838 185.893 373.838 186.523C373.838 187.153 373.7 187.705 373.424 188.179C373.154 188.647 372.767 189.01 372.263 189.268C371.765 189.526 371.186 189.655 370.526 189.655H368.33V183.373H370.526ZM370.481 188.584C371.141 188.584 371.651 188.404 372.011 188.044C372.371 187.684 372.551 187.177 372.551 186.523C372.551 185.869 372.371 185.359 372.011 184.993C371.651 184.621 371.141 184.435 370.481 184.435H369.59V188.584H370.481ZM381.201 183.373V184.39H379.527V189.655H378.267V184.39H376.593V183.373H381.201ZM385.036 189.718C384.448 189.718 383.908 189.58 383.416 189.304C382.924 189.028 382.534 188.647 382.246 188.161C381.958 187.669 381.814 187.114 381.814 186.496C381.814 185.884 381.958 185.335 382.246 184.849C382.534 184.357 382.924 183.973 383.416 183.697C383.908 183.421 384.448 183.283 385.036 183.283C385.63 183.283 386.17 183.421 386.656 183.697C387.148 183.973 387.535 184.357 387.817 184.849C388.105 185.335 388.249 185.884 388.249 186.496C388.249 187.114 388.105 187.669 387.817 188.161C387.535 188.647 387.148 189.028 386.656 189.304C386.164 189.58 385.624 189.718 385.036 189.718ZM385.036 188.593C385.414 188.593 385.747 188.509 386.035 188.341C386.323 188.167 386.548 187.921 386.71 187.603C386.872 187.285 386.953 186.916 386.953 186.496C386.953 186.076 386.872 185.71 386.71 185.398C386.548 185.08 386.323 184.837 386.035 184.669C385.747 184.501 385.414 184.417 385.036 184.417C384.658 184.417 384.322 184.501 384.028 184.669C383.74 184.837 383.515 185.08 383.353 185.398C383.191 185.71 383.11 186.076 383.11 186.496C383.11 186.916 383.191 187.285 383.353 187.603C383.515 187.921 383.74 188.167 384.028 188.341C384.322 188.509 384.658 188.593 385.036 188.593ZM391.025 186.505C391.025 185.887 391.163 185.335 391.439 184.849C391.721 184.357 392.102 183.976 392.582 183.706C393.068 183.43 393.611 183.292 394.211 183.292C394.913 183.292 395.528 183.472 396.056 183.832C396.584 184.192 396.953 184.69 397.163 185.326H395.714C395.57 185.026 395.366 184.801 395.102 184.651C394.844 184.501 394.544 184.426 394.202 184.426C393.836 184.426 393.509 184.513 393.221 184.687C392.939 184.855 392.717 185.095 392.555 185.407C392.399 185.719 392.321 186.085 392.321 186.505C392.321 186.919 392.399 187.285 392.555 187.603C392.717 187.915 392.939 188.158 393.221 188.332C393.509 188.5 393.836 188.584 394.202 188.584C394.544 188.584 394.844 188.509 395.102 188.359C395.366 188.203 395.57 187.975 395.714 187.675H397.163C396.953 188.317 396.584 188.818 396.056 189.178C395.534 189.532 394.919 189.709 394.211 189.709C393.611 189.709 393.068 189.574 392.582 189.304C392.102 189.028 391.721 188.647 391.439 188.161C391.163 187.675 391.025 187.123 391.025 186.505ZM402.092 188.458H399.59L399.176 189.655H397.853L400.112 183.364H401.579L403.838 189.655H402.506L402.092 188.458ZM401.75 187.45L400.841 184.822L399.932 187.45H401.75ZM407.922 189.655L406.536 187.207H405.942V189.655H404.682V183.373H407.04C407.526 183.373 407.94 183.46 408.282 183.634C408.624 183.802 408.879 184.033 409.047 184.327C409.221 184.615 409.308 184.939 409.308 185.299C409.308 185.713 409.188 186.088 408.948 186.424C408.708 186.754 408.351 186.982 407.877 187.108L409.38 189.655H407.922ZM405.942 186.262H406.995C407.337 186.262 407.592 186.181 407.76 186.019C407.928 185.851 408.012 185.62 408.012 185.326C408.012 185.038 407.928 184.816 407.76 184.66C407.592 184.498 407.337 184.417 406.995 184.417H405.942V186.262ZM414.723 183.373V184.39H413.049V189.655H411.789V184.39H410.115V183.373H414.723Z" fill="white"/>
<rect x="343.249" y="212.6" width="13.493" height="7.93794" rx="1" fill="#E2E4E6"/>
<rect x="360.71" y="212.6" width="13.493" height="7.93794" rx="1" fill="#E2E4E6"/>
<rect x="378.172" y="212.6" width="13.4931" height="7.93794" rx="1" fill="#E2E4E6"/>
<rect x="395.633" y="212.6" width="13.4931" height="7.93794" rx="1" fill="#E2E4E6"/>
<rect x="413.095" y="212.6" width="13.493" height="7.93794" rx="1" fill="#E2E4E6"/>
<g filter="url(#filter3_d)">
<rect x="257.021" y="244.808" width="174.991" height="62.2073" rx="8" fill="#FBFBFB"/>
<rect x="257.921" y="245.708" width="173.191" height="60.4073" rx="7.1" stroke="#C8E7FE" stroke-width="1.8"/>
</g>
<ellipse cx="294.341" cy="276.742" rx="20.7335" ry="21.1505" fill="#7292CC"/>
<path d="M283.656 273.55V271.324H287.534V281.544H285.042V273.55H283.656ZM289.088 279.626C289.405 279.374 289.55 279.258 289.522 279.276C290.437 278.52 291.155 277.9 291.678 277.414C292.21 276.929 292.658 276.42 293.022 275.888C293.386 275.356 293.568 274.838 293.568 274.334C293.568 273.952 293.479 273.653 293.302 273.438C293.125 273.224 292.859 273.116 292.504 273.116C292.149 273.116 291.869 273.252 291.664 273.522C291.468 273.784 291.37 274.157 291.37 274.642H289.06C289.079 273.849 289.247 273.186 289.564 272.654C289.891 272.122 290.315 271.73 290.838 271.478C291.37 271.226 291.958 271.1 292.602 271.1C293.713 271.1 294.548 271.385 295.108 271.954C295.677 272.524 295.962 273.266 295.962 274.18C295.962 275.179 295.621 276.108 294.94 276.966C294.259 277.816 293.391 278.646 292.336 279.458H296.116V281.404H289.088V279.626ZM296.974 273.9C296.974 273.144 297.189 272.561 297.618 272.15C298.057 271.74 298.622 271.534 299.312 271.534C300.003 271.534 300.563 271.74 300.992 272.15C301.422 272.561 301.636 273.144 301.636 273.9C301.636 274.656 301.422 275.24 300.992 275.65C300.563 276.061 300.003 276.266 299.312 276.266C298.622 276.266 298.057 276.061 297.618 275.65C297.189 275.24 296.974 274.656 296.974 273.9ZM306.48 271.688L301.09 281.544H298.78L304.17 271.688H306.48ZM299.298 272.934C298.85 272.934 298.626 273.256 298.626 273.9C298.626 274.535 298.85 274.852 299.298 274.852C299.513 274.852 299.681 274.773 299.802 274.614C299.924 274.456 299.984 274.218 299.984 273.9C299.984 273.256 299.756 272.934 299.298 272.934ZM303.638 279.332C303.638 278.576 303.853 277.993 304.282 277.582C304.712 277.172 305.272 276.966 305.962 276.966C306.653 276.966 307.213 277.172 307.642 277.582C308.072 277.993 308.286 278.576 308.286 279.332C308.286 280.088 308.072 280.672 307.642 281.082C307.213 281.493 306.653 281.698 305.962 281.698C305.272 281.698 304.712 281.493 304.282 281.082C303.853 280.672 303.638 280.088 303.638 279.332ZM305.948 278.366C305.734 278.366 305.566 278.446 305.444 278.604C305.332 278.763 305.276 279.006 305.276 279.332C305.276 279.967 305.5 280.284 305.948 280.284C306.163 280.284 306.331 280.205 306.452 280.046C306.574 279.888 306.634 279.65 306.634 279.332C306.634 279.015 306.574 278.777 306.452 278.618C306.331 278.45 306.163 278.366 305.948 278.366Z" fill="#FAF8FF"/>
<rect x="339.126" y="225.731" width="92.0569" height="2.4883" rx="1.24415" fill="#E2E4E5"/>
<path d="M324.814 279.275C324.814 278.304 325.024 277.441 325.444 276.685C325.864 275.92 326.448 275.327 327.194 274.907C327.95 274.478 328.804 274.263 329.756 274.263C330.923 274.263 331.922 274.571 332.752 275.187C333.583 275.803 334.138 276.643 334.418 277.707H331.786C331.59 277.296 331.31 276.984 330.946 276.769C330.592 276.554 330.186 276.447 329.728 276.447C328.991 276.447 328.394 276.704 327.936 277.217C327.479 277.73 327.25 278.416 327.25 279.275C327.25 280.134 327.479 280.82 327.936 281.333C328.394 281.846 328.991 282.103 329.728 282.103C330.186 282.103 330.592 281.996 330.946 281.781C331.31 281.566 331.59 281.254 331.786 280.843H334.418C334.138 281.907 333.583 282.747 332.752 283.363C331.922 283.97 330.923 284.273 329.756 284.273C328.804 284.273 327.95 284.063 327.194 283.643C326.448 283.214 325.864 282.621 325.444 281.865C325.024 281.109 324.814 280.246 324.814 279.275ZM340.533 284.301C339.609 284.301 338.759 284.086 337.985 283.657C337.219 283.228 336.608 282.63 336.151 281.865C335.703 281.09 335.479 280.222 335.479 279.261C335.479 278.3 335.703 277.436 336.151 276.671C336.608 275.906 337.219 275.308 337.985 274.879C338.759 274.45 339.609 274.235 340.533 274.235C341.457 274.235 342.301 274.45 343.067 274.879C343.841 275.308 344.448 275.906 344.887 276.671C345.335 277.436 345.559 278.3 345.559 279.261C345.559 280.222 345.335 281.09 344.887 281.865C344.439 282.63 343.832 283.228 343.067 283.657C342.301 284.086 341.457 284.301 340.533 284.301ZM340.533 282.117C341.317 282.117 341.942 281.856 342.409 281.333C342.885 280.81 343.123 280.12 343.123 279.261C343.123 278.393 342.885 277.702 342.409 277.189C341.942 276.666 341.317 276.405 340.533 276.405C339.739 276.405 339.105 276.662 338.629 277.175C338.162 277.688 337.929 278.384 337.929 279.261C337.929 280.129 338.162 280.824 338.629 281.347C339.105 281.86 339.739 282.117 340.533 282.117ZM355.682 284.203H353.288L349.284 278.141V284.203H346.89V274.375H349.284L353.288 280.465V274.375H355.682V284.203ZM366.644 274.375L363.158 284.203H360.162L356.676 274.375H359.224L361.66 281.795L364.11 274.375H366.644ZM370.038 276.293V278.281H373.244V280.129H370.038V282.285H373.664V284.203H367.644V274.375H373.664V276.293H370.038ZM380.231 284.203L378.187 280.493H377.613V284.203H375.219V274.375H379.237C380.011 274.375 380.669 274.51 381.211 274.781C381.761 275.052 382.172 275.425 382.443 275.901C382.713 276.368 382.849 276.89 382.849 277.469C382.849 278.122 382.662 278.706 382.289 279.219C381.925 279.732 381.383 280.096 380.665 280.311L382.933 284.203H380.231ZM377.613 278.799H379.097C379.535 278.799 379.862 278.692 380.077 278.477C380.301 278.262 380.413 277.959 380.413 277.567C380.413 277.194 380.301 276.9 380.077 276.685C379.862 276.47 379.535 276.363 379.097 276.363H377.613V278.799ZM387.907 284.301C387.189 284.301 386.545 284.184 385.975 283.951C385.406 283.718 384.949 283.372 384.603 282.915C384.267 282.458 384.09 281.907 384.071 281.263H386.619C386.657 281.627 386.783 281.907 386.997 282.103C387.212 282.29 387.492 282.383 387.837 282.383C388.192 282.383 388.472 282.304 388.677 282.145C388.883 281.977 388.985 281.748 388.985 281.459C388.985 281.216 388.901 281.016 388.733 280.857C388.575 280.698 388.374 280.568 388.131 280.465C387.898 280.362 387.562 280.246 387.123 280.115C386.489 279.919 385.971 279.723 385.569 279.527C385.168 279.331 384.823 279.042 384.533 278.659C384.244 278.276 384.099 277.777 384.099 277.161C384.099 276.246 384.431 275.532 385.093 275.019C385.756 274.496 386.619 274.235 387.683 274.235C388.766 274.235 389.639 274.496 390.301 275.019C390.964 275.532 391.319 276.251 391.365 277.175H388.775C388.757 276.858 388.64 276.61 388.425 276.433C388.211 276.246 387.935 276.153 387.599 276.153C387.31 276.153 387.077 276.232 386.899 276.391C386.722 276.54 386.633 276.76 386.633 277.049C386.633 277.366 386.783 277.614 387.081 277.791C387.38 277.968 387.847 278.16 388.481 278.365C389.116 278.58 389.629 278.785 390.021 278.981C390.423 279.177 390.768 279.462 391.057 279.835C391.347 280.208 391.491 280.689 391.491 281.277C391.491 281.837 391.347 282.346 391.057 282.803C390.777 283.26 390.367 283.624 389.825 283.895C389.284 284.166 388.645 284.301 387.907 284.301ZM395.359 274.375V284.203H392.965V274.375H395.359ZM401.742 284.301C400.818 284.301 399.968 284.086 399.194 283.657C398.428 283.228 397.817 282.63 397.36 281.865C396.912 281.09 396.688 280.222 396.688 279.261C396.688 278.3 396.912 277.436 397.36 276.671C397.817 275.906 398.428 275.308 399.194 274.879C399.968 274.45 400.818 274.235 401.742 274.235C402.666 274.235 403.51 274.45 404.276 274.879C405.05 275.308 405.657 275.906 406.096 276.671C406.544 277.436 406.768 278.3 406.768 279.261C406.768 280.222 406.544 281.09 406.096 281.865C405.648 282.63 405.041 283.228 404.276 283.657C403.51 284.086 402.666 284.301 401.742 284.301ZM401.742 282.117C402.526 282.117 403.151 281.856 403.618 281.333C404.094 280.81 404.332 280.12 404.332 279.261C404.332 278.393 404.094 277.702 403.618 277.189C403.151 276.666 402.526 276.405 401.742 276.405C400.948 276.405 400.314 276.662 399.838 277.175C399.371 277.688 399.138 278.384 399.138 279.261C399.138 280.129 399.371 280.824 399.838 281.347C400.314 281.86 400.948 282.117 401.742 282.117ZM416.891 284.203H414.497L410.493 278.141V284.203H408.099V274.375H410.493L414.497 280.465V274.375H416.891V284.203Z" fill="#7292CC"/>
<g filter="url(#filter4_d)">
<rect x="30.7326" y="82.7625" width="159.791" height="51.3669" rx="8" fill="white"/>
<rect x="31.7326" y="83.7625" width="157.791" height="49.3669" rx="7" stroke="#C8E7FE" stroke-width="2"/>
</g>
<rect x="38.3417" y="89.4214" width="48.508" height="39.0008" rx="4" fill="#F6F6F6"/>
<rect x="93.5077" y="92.2749" width="69.433" height="11.4149" rx="2" fill="#EDEFF0"/>
<rect x="93.5077" y="109.398" width="86.5534" height="5.70744" rx="2" fill="#EDEFF0"/>
<rect x="93.5077" y="118.91" width="86.5534" height="5.70744" rx="2" fill="#EDEFF0"/>
<path d="M65.8377 105.492L70.1277 107.969L72.3668 104.09L68.0768 101.613L65.8377 105.492Z" fill="#343F61"/>
<path d="M44.9997 111.615V116.659H61.6782L63.494 114.301L61.6782 111.615H44.9997Z" fill="#455481"/>
<path d="M78.2894 111.615H61.6445V116.659H78.2894V111.615Z" fill="#4F5F8D"/>
<path d="M57.7245 103.978L44.9996 107.229V112.623H61.7082L63.662 106.8L61.7082 100.517L57.7245 103.978Z" fill="#7292CC"/>
<path d="M78.2894 100.415H74.7902L70.1478 106.153C69.62 106.805 68.6942 106.95 67.9945 106.489C67.3235 106.047 67.0728 105.163 67.4112 104.432L69.485 99.9798V98.3306H64.208L61.6445 100.564V112.623H78.2894V100.415Z" fill="#7292CC"/>
<g clip-path="url(#clip6)">
<path d="M432.142 328.621C435.821 331.34 442.946 333.757 447.281 333.031C450.497 332.493 453.989 331.407 456.012 328.666C457.594 326.522 457.959 323.737 454.928 322.81C453.905 322.497 452.807 322.737 451.74 322.838C449.55 323.042 447.078 321.359 449.059 319.137C450.179 317.881 452.701 317.713 454.248 317.596C457.625 317.342 461.774 317.833 463.638 314.294C464.19 313.245 464.243 311.782 463.335 311.023C462.485 310.311 461.236 310.515 460.133 310.604C456.324 310.911 456.8 307.35 459.305 305.781C460.634 304.946 462.195 304.489 463.399 303.487C465.151 302.024 465.647 298.873 463.861 296.972C461.972 295.174 458.823 295.66 457.358 297.41C456.352 298.613 455.886 300.173 455.05 301.502C453.473 304.006 449.915 304.469 450.238 300.653C450.333 299.548 450.539 298.301 449.834 297.444C449.079 296.531 447.619 296.578 446.571 297.128C443.032 298.982 443.506 303.138 443.238 306.521C443.116 308.067 442.937 310.593 441.681 311.709C439.454 313.686 437.785 311.204 437.994 309.01C438.097 307.944 438.342 306.844 438.033 305.817C437.119 302.778 434.338 303.135 432.19 304.709C429.445 306.724 428.347 310.216 427.798 313.437C427.057 317.78 429.442 324.926 432.142 328.621Z" fill="#564D9F"/>
<path d="M455.542 304.69C452.761 306.845 450.189 309.324 447.673 311.841C447.951 309.86 448.333 307.769 448.118 305.809C448.116 305.796 448.093 305.793 448.091 305.807C447.299 307.911 447.216 310.376 446.926 312.592C445.68 313.843 444.446 315.099 443.2 316.321C440.977 318.504 438.711 320.659 436.479 322.844C435.314 320.12 434.4 317.251 433.996 314.309C433.994 314.286 433.955 314.284 433.955 314.309C433.907 317.401 434.598 320.463 435.964 323.252C435.975 323.274 435.991 323.291 436.005 323.308C434.478 324.809 432.971 326.325 431.508 327.879C431.215 328.192 431.728 328.7 432.046 328.41C432.954 327.578 433.851 326.727 434.74 325.87C438.979 326.397 443.387 327.455 447.656 327.302C447.745 327.299 447.728 327.176 447.656 327.157C443.721 326.121 439.458 325.697 435.387 325.245C438.346 322.361 441.227 319.386 444.156 316.483C444.415 316.226 444.68 315.969 444.942 315.713C448.617 315.076 452.421 314.63 455.999 313.552C456.024 313.544 456.01 313.51 455.988 313.51C452.538 313.669 449.077 314.401 445.669 315.001C449.074 311.693 452.608 308.397 455.556 304.701C455.561 304.693 455.55 304.682 455.542 304.69Z" fill="white"/>
</g>
<path d="M434.318 331.464C434.318 331.464 439.633 318.849 435.797 317.082C431.96 315.316 430.015 317.942 428.472 317.223C426.928 316.492 432.326 309.427 427.896 307.372C423.452 305.353 422.261 310.674 419.749 309.503C417.186 308.326 415.893 297.073 409.877 298.893C403.861 300.712 414.283 310.251 411.966 310.593C409.65 310.935 406.689 308.096 404.918 311.471C403.147 314.845 419.007 319.907 412.477 320.833C405.878 321.755 407.871 324.502 409.922 326.6C411.972 328.687 422.209 333.217 422.209 333.217L434.318 331.464Z" fill="#50BC8D"/>
<path d="M405.002 311.308C408.108 313.309 413.702 316.586 417.992 317.516C414.001 309.269 410.653 301.294 409.692 298.946C409.757 298.906 409.809 298.912 409.874 298.871C409.938 298.831 409.99 298.836 410.124 298.8C410.84 300.553 412.945 305.556 415.632 311.457C416.138 309.375 416.692 306.904 417.098 305.046C417.171 305.275 417.31 305.475 417.385 305.715C416.855 308.263 416.106 311.385 415.932 312.08C416.144 312.509 416.356 312.938 416.556 313.414L418.698 308.342C418.782 308.503 418.878 308.617 418.975 308.731L416.806 313.884C417.887 316.23 419.112 318.652 420.303 321.077C423.534 318.622 425.644 310.869 426.548 306.851C426.668 306.85 426.826 306.889 427.002 306.939C426.075 311.073 423.942 318.94 420.47 321.387C422.345 325.06 424.352 328.664 426.289 331.722C429.44 329.692 432.717 320.68 434.131 316.439C434.239 316.484 434.409 316.478 434.586 316.527C433.148 320.883 429.865 330.009 426.486 331.995C426.57 332.155 426.722 332.309 426.806 332.469L426.332 332.541C425.565 331.324 424.718 329.99 423.89 328.498C420.698 327.938 412.366 324.72 408.035 323.004C408.058 322.889 408.082 322.774 408.143 322.7C412.243 324.327 420.31 327.459 423.654 328.184C422.028 325.33 420.215 321.955 418.372 318.086C418.331 318.011 418.285 317.892 418.244 317.817C413.878 316.996 408.177 313.674 404.962 311.606C404.971 311.526 404.985 311.491 405.047 311.417C404.991 311.377 405.005 311.342 405.002 311.308Z" fill="white"/>
<path opacity="0.14" d="M249.142 358.44C376.254 358.44 479.285 347.104 479.285 333.143C479.285 319.182 376.254 307.845 249.142 307.845C122.03 307.845 19 319.182 19 333.143C19 347.104 122.03 358.44 249.142 358.44Z" fill="url(#paint1_linear)"/>
<defs>
<filter id="filter0_d" x="51.5365" y="2.54175" width="401.171" height="288.34" filterUnits="userSpaceOnUse" color-interpolation-filters="sRGB">
<feFlood flood-opacity="0" result="BackgroundImageFix"/>
<feColorMatrix in="SourceAlpha" type="matrix" values="0 0 0 0 0 0 0 0 0 0 0 0 0 0 0 0 0 0 127 0"/>
<feMorphology radius="10" operator="dilate" in="SourceAlpha" result="effect1_dropShadow"/>
<feOffset dy="4"/>
<feGaussianBlur stdDeviation="10"/>
<feColorMatrix type="matrix" values="0 0 0 0 0.440052 0 0 0 0 0.469058 0 0 0 0 0.495833 0 0 0 0.05 0"/>
<feBlend mode="normal" in2="BackgroundImageFix" result="effect1_dropShadow"/>
<feBlend mode="normal" in="SourceGraphic" in2="effect1_dropShadow" result="shape"/>
</filter>
<filter id="filter1_d" x="66.2946" y="16.4331" width="371.655" height="93.8603" filterUnits="userSpaceOnUse" color-interpolation-filters="sRGB">
<feFlood flood-opacity="0" result="BackgroundImageFix"/>
<feColorMatrix in="SourceAlpha" type="matrix" values="0 0 0 0 0 0 0 0 0 0 0 0 0 0 0 0 0 0 127 0"/>
<feMorphology radius="10" operator="dilate" in="SourceAlpha" result="effect1_dropShadow"/>
<feOffset dy="4"/>
<feGaussianBlur stdDeviation="10"/>
<feColorMatrix type="matrix" values="0 0 0 0 0.440052 0 0 0 0 0.469058 0 0 0 0 0.495833 0 0 0 0.05 0"/>
<feBlend mode="normal" in2="BackgroundImageFix" result="effect1_dropShadow"/>
<feBlend mode="normal" in="SourceGraphic" in2="effect1_dropShadow" result="shape"/>
</filter>
<filter id="filter2_d" x="278.524" y="65.1743" width="211.921" height="288.34" filterUnits="userSpaceOnUse" color-interpolation-filters="sRGB">
<feFlood flood-opacity="0" result="BackgroundImageFix"/>
<feColorMatrix in="SourceAlpha" type="matrix" values="0 0 0 0 0 0 0 0 0 0 0 0 0 0 0 0 0 0 127 0"/>
<feMorphology radius="10" operator="dilate" in="SourceAlpha" result="effect1_dropShadow"/>
<feOffset dy="4"/>
<feGaussianBlur stdDeviation="10"/>
<feColorMatrix type="matrix" values="0 0 0 0 0.440052 0 0 0 0 0.469058 0 0 0 0 0.495833 0 0 0 0.05 0"/>
<feBlend mode="normal" in2="BackgroundImageFix" result="effect1_dropShadow"/>
<feBlend mode="normal" in="SourceGraphic" in2="effect1_dropShadow" result="shape"/>
</filter>
<filter id="filter3_d" x="227.021" y="218.808" width="234.991" height="122.207" filterUnits="userSpaceOnUse" color-interpolation-filters="sRGB">
<feFlood flood-opacity="0" result="BackgroundImageFix"/>
<feColorMatrix in="SourceAlpha" type="matrix" values="0 0 0 0 0 0 0 0 0 0 0 0 0 0 0 0 0 0 127 0"/>
<feMorphology radius="10" operator="dilate" in="SourceAlpha" result="effect1_dropShadow"/>
<feOffset dy="4"/>
<feGaussianBlur stdDeviation="10"/>
<feColorMatrix type="matrix" values="0 0 0 0 0.440052 0 0 0 0 0.469058 0 0 0 0 0.495833 0 0 0 0.05 0"/>
<feBlend mode="normal" in2="BackgroundImageFix" result="effect1_dropShadow"/>
<feBlend mode="normal" in="SourceGraphic" in2="effect1_dropShadow" result="shape"/>
</filter>
<filter id="filter4_d" x="0.732605" y="56.7625" width="219.791" height="111.367" filterUnits="userSpaceOnUse" color-interpolation-filters="sRGB">
<feFlood flood-opacity="0" result="BackgroundImageFix"/>
<feColorMatrix in="SourceAlpha" type="matrix" values="0 0 0 0 0 0 0 0 0 0 0 0 0 0 0 0 0 0 127 0"/>
<feMorphology radius="10" operator="dilate" in="SourceAlpha" result="effect1_dropShadow"/>
<feOffset dy="4"/>
<feGaussianBlur stdDeviation="10"/>
<feColorMatrix type="matrix" values="0 0 0 0 0.440052 0 0 0 0 0.469058 0 0 0 0 0.495833 0 0 0 0.05 0"/>
<feBlend mode="normal" in2="BackgroundImageFix" result="effect1_dropShadow"/>
<feBlend mode="normal" in="SourceGraphic" in2="effect1_dropShadow" result="shape"/>
</filter>
<linearGradient id="paint0_linear" x1="319.84" y1="247.622" x2="311.297" y2="-34.8955" gradientUnits="userSpaceOnUse">
<stop offset="0.21875" stop-color="#2680C1" stop-opacity="0"/>
<stop offset="1" stop-color="#F7F4FC"/>
</linearGradient>
<linearGradient id="paint1_linear" x1="252.641" y1="401.642" x2="246.599" y2="280.369" gradientUnits="userSpaceOnUse">
<stop stop-color="#2680C1"/>
<stop offset="1" stop-color="#2680C1" stop-opacity="0"/>
</linearGradient>
<clipPath id="clip0">
<rect width="47.7466" height="24.4618" fill="white" transform="translate(345.445 149.244)"/>
</clipPath>
<clipPath id="clip1">
<rect width="10.86" height="10.8612" fill="white" transform="translate(344.577 53.4653)"/>
</clipPath>
<clipPath id="clip2">
<rect width="9.87274" height="11.3549" fill="white" transform="translate(381.106 51.9839)"/>
</clipPath>
<clipPath id="clip3">
<rect width="214.091" height="200.218" fill="white" transform="translate(90.0955 140.542)"/>
</clipPath>
<clipPath id="clip4">
<rect width="28.2028" height="36.4759" fill="white" transform="matrix(-0.764803 -0.644283 -0.644185 0.764854 263.377 309.69)"/>
</clipPath>
<clipPath id="clip5">
<rect width="88.5101" height="200.789" fill="white" transform="translate(47.6799 146.041)"/>
</clipPath>
<clipPath id="clip6">
<rect width="37.3199" height="37.3239" fill="white" transform="matrix(-1 0 0 1 464.982 295.839)"/>
</clipPath>
</defs>
</svg>
