<svg width="126" height="84" viewBox="0 0 126 84" fill="none" xmlns="http://www.w3.org/2000/svg">
<path d="M30.7655 69.9999H42.6414V41.1585L25.6758 28.4343V64.9102C25.6758 67.7223 27.9535 69.9999 30.7655 69.9999Z" fill="#4285F4"/>
<path d="M83.3586 69.9999H95.2345C98.0465 69.9999 100.324 67.7223 100.324 64.9102V28.4343L83.3586 41.1585V69.9999Z" fill="#34A853"/>
<path d="M83.3586 19.1035V41.1587L100.324 28.4345V21.6483C100.324 15.3584 93.1435 11.7659 88.109 15.5407L83.3586 19.1035Z" fill="#FBBC04"/>
<path d="M42.6414 41.1587V19.1035L63 34.3725L83.3586 19.1035V41.1587L63 56.4277L42.6414 41.1587Z" fill="#EA4335"/>
<path d="M25.6758 21.6483V28.4345L42.6414 41.1587V19.1035L37.891 15.5407C32.8565 11.7659 25.6758 15.3584 25.6758 21.6483Z" fill="#C5221F"/>
</svg>
