<svg width="31" height="31" viewBox="0 0 31 31" fill="none" xmlns="http://www.w3.org/2000/svg">
<path d="M18.3704 15.5C18.3704 17.0853 17.0853 18.3704 15.5 18.3704C13.9147 18.3704 12.6297 17.0853 12.6297 15.5C12.6297 13.9147 13.9147 12.6296 15.5 12.6296C17.0853 12.6296 18.3704 13.9147 18.3704 15.5Z" fill="#5600E3"/>
<path d="M22.3782 10.2963C22.2368 9.91319 22.0112 9.56643 21.7182 9.2818C21.4335 8.98873 21.087 8.76318 20.7037 8.6218C20.3928 8.50106 19.9257 8.35734 19.0655 8.31818C18.135 8.27575 17.856 8.2666 15.5001 8.2666C13.1441 8.2666 12.8651 8.27551 11.9348 8.31795C11.0745 8.35734 10.6073 8.50106 10.2966 8.6218C9.91328 8.76318 9.56652 8.98873 9.28212 9.2818C8.98905 9.56643 8.76351 9.91295 8.62189 10.2963C8.50115 10.6072 8.35743 11.0745 8.31827 11.9347C8.27584 12.865 8.26669 13.144 8.26669 15.5001C8.26669 17.8559 8.27584 18.1349 8.31827 19.0654C8.35743 19.9257 8.50115 20.3927 8.62189 20.7036C8.76351 21.0869 8.98882 21.4334 9.28189 21.7181C9.56652 22.0111 9.91305 22.2367 10.2964 22.3781C10.6073 22.499 11.0745 22.6428 11.9348 22.6819C12.8651 22.7244 13.1439 22.7333 15.4999 22.7333C17.8562 22.7333 18.1352 22.7244 19.0653 22.6819C19.9255 22.6428 20.3928 22.499 20.7037 22.3781C21.4732 22.0812 22.0813 21.4731 22.3782 20.7036C22.4989 20.3927 22.6426 19.9257 22.682 19.0654C22.7245 18.1349 22.7334 17.8559 22.7334 15.5001C22.7334 13.144 22.7245 12.865 22.682 11.9347C22.6429 11.0745 22.4991 10.6072 22.3782 10.2963ZM15.5001 20.0305C12.9978 20.0305 10.9693 18.0022 10.9693 15.4998C10.9693 12.9975 12.9978 10.9692 15.5001 10.9692C18.0023 10.9692 20.0308 12.9975 20.0308 15.4998C20.0308 18.0022 18.0023 20.0305 15.5001 20.0305ZM20.2099 11.8489C19.6252 11.8489 19.1511 11.3748 19.1511 10.7901C19.1511 10.2053 19.6252 9.73125 20.2099 9.73125C20.7946 9.73125 21.2687 10.2053 21.2687 10.7901C21.2685 11.3748 20.7946 11.8489 20.2099 11.8489Z" fill="#5600E3"/>
<path d="M15.5 0C6.9409 0 0 6.9409 0 15.5C0 24.0591 6.9409 31 15.5 31C24.0591 31 31 24.0591 31 15.5C31 6.9409 24.0591 0 15.5 0ZM24.3467 19.1695C24.3037 20.1169 24.153 20.7638 23.933 21.33C23.4707 22.5256 22.5256 23.4707 21.33 23.933C20.764 24.153 20.1169 24.3034 19.1697 24.3467C18.2206 24.39 17.9174 24.4004 15.5002 24.4004C13.0829 24.4004 12.7799 24.39 11.8305 24.3467C10.8833 24.3034 10.2362 24.153 9.67023 23.933C9.07612 23.7095 8.53829 23.3593 8.09365 22.9063C7.64097 22.4619 7.2907 21.9239 7.06719 21.33C6.84724 20.764 6.69658 20.1169 6.65353 19.1697C6.60978 18.2204 6.59961 17.9171 6.59961 15.5C6.59961 13.0829 6.60978 12.7796 6.6533 11.8305C6.69634 10.8831 6.84676 10.2362 7.06672 9.67C7.29022 9.07612 7.64073 8.53806 8.09365 8.09365C8.53806 7.64073 9.07612 7.29046 9.67 7.06696C10.2362 6.847 10.8831 6.69658 11.8305 6.6533C12.7796 6.61002 13.0829 6.59961 15.5 6.59961C17.9171 6.59961 18.2204 6.61002 19.1695 6.65353C20.1169 6.69658 20.7638 6.847 21.33 7.06672C21.9239 7.29022 22.4619 7.64073 22.9066 8.09365C23.3593 8.53829 23.7098 9.07612 23.933 9.67C24.1532 10.2362 24.3037 10.8831 24.3469 11.8305C24.3902 12.7796 24.4004 13.0829 24.4004 15.5C24.4004 17.9171 24.3902 18.2204 24.3467 19.1695Z" fill="#5600E3"/>
</svg>
