<svg id="eR3UlE7DIr91" xmlns="http://www.w3.org/2000/svg" xmlns:xlink="http://www.w3.org/1999/xlink" viewBox="0 0 554 436" shape-rendering="geometricPrecision" text-rendering="geometricPrecision"><style><![CDATA[#eR3UlE7DIr93_ts {animation: eR3UlE7DIr93_ts__ts 10000ms linear infinite normal forwards}@keyframes eR3UlE7DIr93_ts__ts { 0% {transform: translate(271.761500px,372.447763px) scale(1,1)} 2% {transform: translate(271.761500px,372.447763px) scale(1.042910,0.968397)} 4% {transform: translate(271.761500px,372.447763px) scale(0.972955,1.004499)} 6% {transform: translate(271.761500px,372.447763px) scale(1,1)} 100% {transform: translate(271.761500px,372.447763px) scale(1,1)}} #eR3UlE7DIr919_ts {animation: eR3UlE7DIr919_ts__ts 10000ms linear infinite normal forwards}@keyframes eR3UlE7DIr919_ts__ts { 0% {transform: translate(320.817000px,393.188843px) scale(1,1)} 25% {transform: translate(320.817000px,393.188843px) scale(1,0.978638)} 50% {transform: translate(320.817000px,393.188843px) scale(1,1)} 75% {transform: translate(320.817000px,393.188843px) scale(1,0.978638)} 100% {transform: translate(320.817000px,393.188843px) scale(1,1)}} #eR3UlE7DIr927_tr {animation: eR3UlE7DIr927_tr__tr 10000ms linear infinite normal forwards}@keyframes eR3UlE7DIr927_tr__tr { 0% {transform: translate(315.680000px,209.396000px) rotate(0deg)} 25% {transform: translate(315.680000px,209.396000px) rotate(5.970000deg)} 50% {transform: translate(315.680000px,209.396000px) rotate(0deg)} 75% {transform: translate(315.680000px,209.396000px) rotate(5.970000deg)} 100% {transform: translate(315.680000px,209.396000px) rotate(0deg)}} #eR3UlE7DIr932_tr {animation: eR3UlE7DIr932_tr__tr 10000ms linear infinite normal forwards}@keyframes eR3UlE7DIr932_tr__tr { 0% {transform: translate(336.963776px,203.471451px) rotate(0deg)} 25% {transform: translate(336.963776px,203.471451px) rotate(4.370000deg)} 50% {transform: translate(336.963776px,203.471451px) rotate(-4.370000deg)} 75% {transform: translate(336.963776px,203.471451px) rotate(-4.370000deg)} 100% {transform: translate(336.963776px,203.471451px) rotate(0deg)}} #eR3UlE7DIr937_tr {animation: eR3UlE7DIr937_tr__tr 10000ms linear infinite normal forwards}@keyframes eR3UlE7DIr937_tr__tr { 0% {transform: translate(355.539000px,192.564926px) rotate(0deg)} 25% {transform: translate(355.539000px,192.564926px) rotate(4.370000deg)} 50% {transform: translate(355.539000px,192.564926px) rotate(0deg)} 75% {transform: translate(355.539000px,192.564926px) rotate(4.370000deg)} 100% {transform: translate(355.539000px,192.564926px) rotate(0deg)}} #eR3UlE7DIr940_ts {animation: eR3UlE7DIr940_ts__ts 10000ms linear infinite normal forwards}@keyframes eR3UlE7DIr940_ts__ts { 0% {transform: translate(215.859642px,393.188843px) scale(1,1)} 25% {transform: translate(215.859642px,393.188843px) scale(1,1.024902)} 50% {transform: translate(215.859642px,393.188843px) scale(1,1)} 75% {transform: translate(215.859642px,393.188843px) scale(1,1.024902)} 100% {transform: translate(215.859642px,393.188843px) scale(1,1)}} #eR3UlE7DIr948_tr {animation: eR3UlE7DIr948_tr__tr 10000ms linear infinite normal forwards}@keyframes eR3UlE7DIr948_tr__tr { 0% {transform: translate(215.859642px,195.635500px) rotate(0deg)} 25% {transform: translate(215.859642px,195.635500px) rotate(-4.370000deg)} 50% {transform: translate(215.859642px,195.635500px) rotate(0deg)} 75% {transform: translate(215.859642px,195.635500px) rotate(-4.370000deg)} 100% {transform: translate(215.859642px,195.635500px) rotate(0deg)}} #eR3UlE7DIr957_tr {animation: eR3UlE7DIr957_tr__tr 10000ms linear infinite normal forwards}@keyframes eR3UlE7DIr957_tr__tr { 0% {transform: translate(212.668000px,213.264008px) rotate(0deg)} 25% {transform: translate(212.668000px,213.264008px) rotate(3.370000deg)} 50% {transform: translate(212.668000px,213.264008px) rotate(0deg)} 75% {transform: translate(212.668000px,213.264008px) rotate(3.370000deg)} 100% {transform: translate(212.668000px,213.264008px) rotate(0deg)}} #eR3UlE7DIr964_tr {animation: eR3UlE7DIr964_tr__tr 10000ms linear infinite normal forwards}@keyframes eR3UlE7DIr964_tr__tr { 0% {transform: translate(95.852700px,385.213257px) rotate(0deg)} 25% {transform: translate(95.852700px,385.213257px) rotate(-7deg)} 50% {transform: translate(95.852700px,385.213257px) rotate(7deg)} 75% {transform: translate(95.852700px,385.213257px) rotate(-7deg)} 100% {transform: translate(95.852700px,385.213257px) rotate(0deg)}} #eR3UlE7DIr972_tr {animation: eR3UlE7DIr972_tr__tr 10000ms linear infinite normal forwards}@keyframes eR3UlE7DIr972_tr__tr { 0% {transform: translate(443.214000px,379.262000px) rotate(0deg)} 25% {transform: translate(443.214000px,379.262000px) rotate(7deg)} 50% {transform: translate(443.214000px,379.262000px) rotate(-7deg)} 75% {transform: translate(443.214000px,379.262000px) rotate(7deg)} 100% {transform: translate(443.214000px,379.262000px) rotate(0deg)}} #eR3UlE7DIr985_ts {animation: eR3UlE7DIr985_ts__ts 10000ms linear infinite normal forwards}@keyframes eR3UlE7DIr985_ts__ts { 0% {transform: translate(449.927017px,140.022995px) scale(1,1)} 25% {transform: translate(449.927017px,140.022995px) scale(1,1)} 27% {transform: translate(449.927017px,140.022995px) scale(1.092295,0.913161)} 29% {transform: translate(449.927017px,140.022995px) scale(0.914548,1.092628)} 31% {transform: translate(449.927017px,140.022995px) scale(1,1)} 75% {transform: translate(449.927017px,140.022995px) scale(1,1)} 77% {transform: translate(449.927017px,140.022995px) scale(1.092295,0.913161)} 79% {transform: translate(449.927017px,140.022995px) scale(0.914548,1.092628)} 81% {transform: translate(449.927017px,140.022995px) scale(1,1)} 100% {transform: translate(449.927017px,140.022995px) scale(1,1)}} #eR3UlE7DIr991_ts {animation: eR3UlE7DIr991_ts__ts 10000ms linear infinite normal forwards}@keyframes eR3UlE7DIr991_ts__ts { 0% {transform: translate(448.832977px,279.521000px) scale(1,1)} 10% {transform: translate(448.832977px,279.521000px) scale(1,1)} 12% {transform: translate(448.832977px,279.521000px) scale(1.134066,0.866275)} 14% {transform: translate(448.832977px,279.521000px) scale(0.865934,1.008174)} 16% {transform: translate(448.832977px,279.521000px) scale(1,1)} 60% {transform: translate(448.832977px,279.521000px) scale(1,1)} 62% {transform: translate(448.832977px,279.521000px) scale(1.134066,0.866275)} 64% {transform: translate(448.832977px,279.521000px) scale(0.865934,1.008174)} 66% {transform: translate(448.832977px,279.521000px) scale(1,1)} 100% {transform: translate(448.832977px,279.521000px) scale(1,1)}} #eR3UlE7DIr9101_ts {animation: eR3UlE7DIr9101_ts__ts 10000ms linear infinite normal forwards}@keyframes eR3UlE7DIr9101_ts__ts { 0% {transform: translate(99.549294px,181.106003px) scale(1,1)} 40% {transform: translate(99.549294px,181.106003px) scale(1,1)} 42% {transform: translate(99.549294px,181.106003px) scale(1.138909,0.866274)} 44% {transform: translate(99.549294px,181.106003px) scale(0.873083,1.139400)} 46% {transform: translate(99.549294px,181.106003px) scale(1,1)} 88% {transform: translate(99.549294px,181.106003px) scale(1,1)} 90% {transform: translate(99.549294px,181.106003px) scale(1.138909,0.866274)} 92% {transform: translate(99.549294px,181.106003px) scale(0.873083,1.139400)} 94% {transform: translate(99.549294px,181.106003px) scale(1,1)} 100% {transform: translate(99.549294px,181.106003px) scale(1,1)}}]]></style><defs><linearGradient id="eR3UlE7DIr92-fill" x1="316.138000" y1="29.449600" x2="245.642000" y2="365.749000" spreadMethod="pad" gradientUnits="userSpaceOnUse"><stop id="eR3UlE7DIr92-fill-0" offset="0%" stop-color="rgb(206,191,245)"/><stop id="eR3UlE7DIr92-fill-1" offset="100%" stop-color="rgba(38,128,193,0)"/></linearGradient><linearGradient id="eR3UlE7DIr982-fill" x1="277.152000" y1="452.611000" x2="270.688000" y2="324.347000" spreadMethod="pad" gradientUnits="userSpaceOnUse"><stop id="eR3UlE7DIr982-fill-0" offset="0%" stop-color="rgb(38,128,193)"/><stop id="eR3UlE7DIr982-fill-1" offset="100%" stop-color="rgba(38,128,193,0)"/></linearGradient></defs><path id="eR3UlE7DIr92" d="M530.142000,170.173000C524.627000,140.968000,508.161000,113.434000,484.701000,95.813800C425.568000,51.387400,369.415000,102.430000,311.082000,118.385000C284.115000,125.761000,258.040000,120.191000,233.713000,107.485000C208.586000,94.358600,188.291000,73.717600,161.582000,62.978500C136.292000,52.819000,105.656000,51.210400,83.878100,69.568900C62.427100,87.639300,48.787200,113.720000,40.991000,140.388000C30.659300,175.690000,34.700900,212.772000,52.217400,245.043000C73.320800,283.934000,107.144000,313.636000,142.895000,338.661000C200.881000,379.236000,267.634000,405.887000,336.041000,371.468000C356.283000,361.285000,373.940000,346.906000,392.357000,333.845000C411.123000,320.531000,430.524000,312.029000,451.202000,302.517000C488.953000,285.160000,522.165000,253.643000,530.302000,211.433000C532.921000,197.883000,532.724000,183.847000,530.142000,170.173000Z" opacity="0.14" fill="url(#eR3UlE7DIr92-fill)" stroke="none" stroke-width="1" stroke-miterlimit="1"/><g id="eR3UlE7DIr93_ts" transform="translate(271.761500,372.447763) scale(1,1)"><g id="eR3UlE7DIr93" transform="translate(-271.761500,-372.447763)" clip-path="url(#eR3UlE7DIr915)"><g id="eR3UlE7DIr94"><path id="eR3UlE7DIr95" d="M353.599000,134.923000L199.749000,134.923000L199.749000,102.443000C199.749000,85.104400,213.856000,71.000100,231.192000,71.000100L322.156000,71.000100C339.495000,71.000100,353.599000,85.106400,353.599000,102.443000L353.599000,134.923000ZM213.414000,121.258000L339.936000,121.258000L339.936000,102.441000C339.936000,92.637700,331.961000,84.660700,322.156000,84.660700L231.192000,84.660700C221.389000,84.660700,213.412000,92.635700,213.412000,102.441000L213.412000,121.258000L213.414000,121.258000Z" fill="rgb(214,206,206)" stroke="none" stroke-width="1" stroke-miterlimit="1"/><path id="eR3UlE7DIr96" d="M218.685000,111.142000L194.478000,111.142000C192.001000,111.142000,189.992000,113.149000,189.992000,115.628000L189.992000,124.011000C189.992000,126.488000,192.001000,128.498000,194.478000,128.498000L218.685000,128.498000C221.162000,128.498000,223.172000,126.488000,223.172000,124.011000L223.172000,115.628000C223.172000,113.149000,221.162000,111.142000,218.685000,111.142000Z" fill="rgb(18,18,81)" stroke="none" stroke-width="1" stroke-miterlimit="1"/><path id="eR3UlE7DIr97" d="M358.870000,111.142000L334.663000,111.142000C332.186000,111.142000,330.177000,113.149000,330.177000,115.628000L330.177000,124.011000C330.177000,126.488000,332.186000,128.498000,334.663000,128.498000L358.870000,128.498000C361.347000,128.498000,363.357000,126.488000,363.357000,124.011000L363.357000,115.628000C363.357000,113.149000,361.349000,111.142000,358.870000,111.142000Z" fill="rgb(18,18,81)" stroke="none" stroke-width="1" stroke-miterlimit="1"/><path id="eR3UlE7DIr98" d="M443.451000,373.067000L100.075000,373.067000C95.304400,373.067000,91.437200,369.199000,91.437200,364.429000L91.437200,121.258000L452.090000,121.258000L452.090000,364.429000C452.088000,369.199000,448.221000,373.067000,443.451000,373.067000Z" fill="rgb(61,61,112)" stroke="none" stroke-width="1" stroke-miterlimit="1"/><path id="eR3UlE7DIr99" d="M451.055000,247.909000L348.091000,259.710000C297.371000,265.524000,246.154000,265.524000,195.437000,259.710000L92.472500,247.909000C86.808700,247.260000,82.531300,242.466000,82.531300,236.763000L82.531300,130.632000C82.531300,124.435000,87.554200,119.413000,93.750400,119.413000L449.781000,119.413000C455.977000,119.413000,461,124.435000,461,130.632000L461,236.765000C460.996000,242.466000,456.719000,247.260000,451.055000,247.909000Z" fill="rgb(80,191,165)" stroke="none" stroke-width="1" stroke-miterlimit="1"/><path id="eR3UlE7DIr910" d="M452.088000,256.825000L452.088000,128.737000C451.343000,128.581000,450.570000,128.498000,449.777000,128.498000L93.748500,128.498000C92.955700,128.498000,92.182600,128.581000,91.437200,128.737000L91.437200,256.827000C91.776400,256.898000,92.121500,256.955000,92.470600,256.994000L195.435000,268.795000C246.154000,274.609000,297.371000,274.609000,348.089000,268.795000L451.053000,256.994000C451.404000,256.953000,451.749000,256.896000,452.088000,256.825000Z" fill="rgb(40,37,100)" stroke="none" stroke-width="1" stroke-miterlimit="1"/><path id="eR3UlE7DIr911" d="M451.055000,247.909000L348.091000,259.710000C297.371000,265.524000,246.154000,265.524000,195.437000,259.710000L92.472500,247.909000C86.808700,247.260000,82.531300,242.466000,82.531300,236.763000L82.531300,130.632000C82.531300,124.435000,87.554200,119.413000,93.750400,119.413000L449.781000,119.413000C455.977000,119.413000,461,124.435000,461,130.632000L461,236.765000C460.996000,242.466000,456.719000,247.260000,451.055000,247.909000Z" fill="rgb(61,61,112)" stroke="none" stroke-width="1" stroke-miterlimit="1"/><path id="eR3UlE7DIr912" d="M295.789000,279.521000L247.736000,279.521000C245.123000,279.521000,243.003000,277.401000,243.003000,274.788000L243.003000,253.354000C243.003000,250.741000,245.123000,248.621000,247.736000,248.621000L295.789000,248.621000C298.402000,248.621000,300.522000,250.741000,300.522000,253.354000L300.522000,274.788000C300.522000,277.401000,298.402000,279.521000,295.789000,279.521000Z" fill="rgb(240,240,242)" stroke="none" stroke-width="1" stroke-miterlimit="1"/><path id="eR3UlE7DIr913" d="M290.656000,274.662000L252.867000,274.662000C250.688000,274.662000,248.923000,272.897000,248.923000,270.718000L248.923000,257.422000C248.923000,255.245000,250.688000,253.478000,252.867000,253.478000L290.656000,253.478000C292.833000,253.478000,294.600000,255.245000,294.600000,257.422000L294.600000,270.718000C294.600000,272.897000,292.835000,274.662000,290.656000,274.662000Z" fill="rgb(214,206,206)" stroke="none" stroke-width="1" stroke-miterlimit="1"/><path id="eR3UlE7DIr914" d="M449.777000,119.415000L93.748500,119.415000C87.552200,119.415000,82.529300,124.437000,82.529300,130.634000L82.529300,149.445000C82.529300,143.249000,87.552200,138.226000,93.748500,138.226000L449.779000,138.226000C455.975000,138.226000,460.998000,143.249000,460.998000,149.445000L460.998000,130.634000C460.996000,124.435000,455.973000,119.415000,449.777000,119.415000Z" fill="rgb(40,37,100)" stroke="none" stroke-width="1" stroke-miterlimit="1"/></g><clipPath id="eR3UlE7DIr915"><rect id="eR3UlE7DIr916" width="378.471000" height="302.067000" rx="0" ry="0" transform="matrix(1 0 0 1 82.52930000000001 71.00010000000000)" fill="rgb(255,255,255)" stroke="none" stroke-width="1" stroke-miterlimit="1"/></clipPath></g></g><g id="eR3UlE7DIr917" clip-path="url(#eR3UlE7DIr962)"><g id="eR3UlE7DIr918"><g id="eR3UlE7DIr919_ts" transform="translate(320.817000,393.188843) scale(1,1)"><g id="eR3UlE7DIr919" transform="translate(-320.817000,-393.188843)"><path id="eR3UlE7DIr920" d="M379.186000,380.204000C379.186000,380.204000,381.677000,387.244000,381.683000,387.264000C381.868000,388.380000,382.598000,391.135000,382.598000,392.150000C382.598000,395.958000,365.419000,388.918000,369.269000,387.230000C369.618000,387.076000,370.711000,385.856000,370.825000,384.560000C371.002000,382.562000,369.377000,380.058000,369.377000,380.058000L379.186000,380.204000Z" fill="rgb(247,164,145)" stroke="none" stroke-width="1" stroke-miterlimit="1"/><path id="eR3UlE7DIr921" d="M383.574000,393.405000L381.606000,387.191000C381.606000,387.191000,377.475000,388.940000,375.410000,388.646000C373.345000,388.354000,369.310000,387.191000,369.310000,387.191000C361.063000,389.906000,354.311000,391.221000,355.539000,393.405000L383.574000,393.405000Z" fill="rgb(12,2,102)" stroke="none" stroke-width="1" stroke-miterlimit="1"/><path id="eR3UlE7DIr922" d="M344.519000,380.204000C344.519000,380.204000,347.010000,387.244000,347.016000,387.264000C347.201000,388.380000,347.931000,391.135000,347.931000,392.150000C347.931000,395.958000,330.752000,388.918000,334.602000,387.230000C334.951000,387.076000,336.043000,385.856000,336.158000,384.560000C336.335000,382.562000,334.710000,380.058000,334.710000,380.058000L344.519000,380.204000Z" fill="rgb(247,164,145)" stroke="none" stroke-width="1" stroke-miterlimit="1"/><path id="eR3UlE7DIr923" d="M317.571000,249.108000C317.571000,249.108000,316.319000,261.729000,316.319000,261.917000C316.319000,282.333000,312.272000,322.211000,313.041000,326.050000C314.921000,335.412000,335.126000,383.171000,335.126000,383.171000L346.048000,381.868000L331.815000,324.688000L337.053000,301.674000L344.464000,256.178000L317.571000,249.108000Z" fill="rgb(10,10,114)" stroke="none" stroke-width="1" stroke-miterlimit="1"/><path id="eR3UlE7DIr924" d="M354.224000,260.272000L356.295000,272.234000L361.901000,321.463000L380.543000,381.089000C380.543000,381.089000,373.134000,382.773000,368.703000,383.757000L341.837000,328.162000L329.311000,260.112000L321.466000,250.910000L354.224000,260.272000Z" fill="rgb(26,15,146)" stroke="none" stroke-width="1" stroke-miterlimit="1"/><path id="eR3UlE7DIr925" d="M348.907000,393.405000L346.939000,387.191000C346.939000,387.191000,342.808000,388.940000,340.743000,388.646000C338.678000,388.354000,334.643000,387.191000,334.643000,387.191000C326.396000,389.906000,319.644000,391.222000,320.872000,393.405000L348.907000,393.405000Z" fill="rgb(12,2,102)" stroke="none" stroke-width="1" stroke-miterlimit="1"/><g id="eR3UlE7DIr926"><g id="eR3UlE7DIr927_tr" transform="translate(315.680000,209.396000) rotate(0)"><g id="eR3UlE7DIr927" transform="translate(-315.680000,-209.396000)"><path id="eR3UlE7DIr928" d="M263.757000,216.235000L264.883000,216.916000C264.883000,216.916000,265.978000,217.829000,266.260000,217.894000C266.542000,217.959000,274.243000,217.789000,274.243000,217.789000C274.243000,217.789000,274.270000,220.351000,274.221000,220.351000C274.172000,220.351000,270.172000,223.609000,270.172000,223.609000L269.318000,223.999000L264.073000,222.434000L259.282000,221.834000C259.282000,221.834000,255.884000,221.440000,255.884000,221.357000C255.884000,221.274000,255.985000,218.590000,256.117000,218.456000C256.249000,218.324000,258.172000,216.352000,258.172000,216.352000C258.172000,216.352000,259.647000,216.021000,259.697000,216.021000C259.746000,216.021000,261.172000,215.738000,261.221000,215.721000C261.270000,215.703000,263.507000,216.052000,263.507000,216.052000L263.757000,216.235000Z" fill="rgb(244,140,127)" stroke="none" stroke-width="1" stroke-miterlimit="1"/><path id="eR3UlE7DIr929" d="M267.261000,217.898000C268.823000,217.862000,287.818000,217.588000,294.594000,217.529000C296.247000,217.515000,297.850000,216.953000,299.152000,215.930000L314.220000,204.074000L320.817000,211.678000L302.110000,225.191000C300.860000,226.094000,299.321000,226.508000,297.785000,226.352000C290.670000,225.632000,271.182000,223.725000,269.372000,223.974000L267.261000,217.898000Z" fill="rgb(245,157,155)" stroke="none" stroke-width="1" stroke-miterlimit="1"/></g></g><path id="eR3UlE7DIr930" d="M306.732000,208.690000C306.732000,208.690000,319.348000,195.422000,323.909000,192.072000C328.473000,188.721000,337.651000,191.569000,336.923000,197.321000C336.179000,203.188000,315.573000,218.042000,315.573000,218.042000L306.732000,208.690000Z" fill="rgb(31,238,163)" stroke="none" stroke-width="1" stroke-miterlimit="1"/></g><path id="eR3UlE7DIr931" d="M321.373000,203.890000C321.079000,205.923000,315.680000,271.430000,315.680000,271.430000C341.258000,283.785000,355.374000,263.368000,355.374000,263.368000C355.374000,263.368000,354.538000,224.573000,355.541000,219.294000C356.204000,215.802000,355.587000,192.253000,353.323000,191.604000C350.418000,190.770000,348.533000,190.218000,344.900000,189.841000C341.802000,189.520000,329.760000,189.334000,327.607000,190.056000C327.607000,190.054000,322.610000,195.343000,321.373000,203.890000Z" fill="rgb(45,255,179)" stroke="none" stroke-width="1" stroke-miterlimit="1"/><g id="eR3UlE7DIr932_tr" transform="translate(336.963776,203.471451) rotate(0)"><g id="eR3UlE7DIr932" transform="translate(-336.963776,-203.471451)"><path id="eR3UlE7DIr933" d="M341.496000,178.496000L343.379000,190.001000C343.379000,190.001000,336.491000,204.642000,332.375000,203.409000C328.922000,202.376000,331.048000,189.800000,331.048000,189.800000C331.048000,189.800000,332.931000,183.045000,332.365000,179.669000C331.799000,176.289000,341.496000,178.496000,341.496000,178.496000Z" fill="rgb(245,157,155)" stroke="none" stroke-width="1" stroke-miterlimit="1"/><path id="eR3UlE7DIr934" d="M332.362000,179.667000C331.796000,176.287000,341.496000,178.494000,341.496000,178.494000L341.652000,179.484000C341.368000,180.147000,341.021000,180.713000,340.601000,181.148000C338.434000,183.385000,335.048000,184.728000,332.121000,184.830000C332.415000,183.006000,332.594000,181.054000,332.362000,179.667000Z" fill="rgb(244,116,88)" stroke="none" stroke-width="1" stroke-miterlimit="1"/><path id="eR3UlE7DIr935" d="M344.969000,159.377000C345.977000,160.140000,347.519000,174.611000,343.283000,178.831000C339.047000,183.051000,330.792000,184.434000,327.832000,181.109000C324.556000,177.433000,324.720000,160.944000,331.308000,156.600000C337.895000,152.259000,344.969000,159.377000,344.969000,159.377000Z" fill="rgb(245,157,155)" stroke="none" stroke-width="1" stroke-miterlimit="1"/><path id="eR3UlE7DIr936" d="M346.647000,156.381000C345.878000,155.740000,345.381000,154.823000,344.719000,154.066000C343.733000,152.944000,342.376000,152.186000,340.942000,151.768000C336.440000,150.453000,331.308000,152.011000,326.885000,153.017000C325.735000,153.277000,324.702000,153.602000,324.170000,154.758000C323.820000,155.515000,323.775000,156.379000,323.860000,157.209000C324.122000,159.739000,326.144000,161.100000,327.995000,162.556000C329.179000,163.486000,331.295000,163.510000,332.795000,163.382000C334.734000,163.218000,336.343000,161.483000,338.242000,161.514000C339.246000,161.532000,339.617000,162.360000,339.698000,163.240000C339.834000,164.711000,339.917000,166.174000,340.268000,167.616000C340.518000,168.639000,340.565000,169.801000,341.542000,170.416000C341.585000,170.444000,341.636000,170.470000,341.684000,170.452000C341.713000,170.440000,341.733000,170.410000,341.749000,170.383000C341.985000,169.978000,341.910000,169.454000,341.926000,169.006000C341.948000,168.373000,341.999000,167.898000,342.455000,167.421000C342.987000,166.863000,343.681000,166.561000,344.383000,167.050000C344.726000,167.289000,344.971000,167.644000,345.180000,168.006000C345.476000,168.517000,345.750000,169.081000,345.872000,169.661000C345.967000,170.118000,345.949000,170.566000,345.699000,170.972000C345.525000,171.256000,345.292000,171.499000,345.097000,171.767000C344.103000,173.136000,344.529000,174.723000,344.864000,176.216000C345.395000,174.536000,345.823000,174.252000,346.446000,172.603000C347.203000,170.600000,348.128000,168.503000,348.925000,166.510000C349.848000,164.204000,350.501000,161.079000,349.298000,158.761000C348.704000,157.618000,347.803000,157.243000,346.821000,156.517000C346.760000,156.472000,346.702000,156.426000,346.647000,156.381000Z" fill="rgb(47,46,127)" stroke="none" stroke-width="1" stroke-miterlimit="1"/></g></g><g id="eR3UlE7DIr937_tr" transform="translate(355.539000,192.564926) rotate(0)"><g id="eR3UlE7DIr937" transform="translate(-355.539000,-192.564926)"><path id="eR3UlE7DIr938" d="M353.137000,272.877000C353.224000,272.785000,353.297000,272.682000,353.358000,272.574000C355.350000,269.032000,373.696000,237.970000,374.059000,236.463000C374.386000,235.102000,366.486000,214.632000,366.486000,214.632000L358.732000,220.957000L363.658000,237.226000C363.221000,238.419000,352.416000,261.254000,352.416000,261.254000C352.416000,261.254000,350.897000,265.291000,349.858000,267.616000C349.333000,267.985000,348.830000,268.328000,348.406000,268.602000C347.442000,269.146000,346.507000,269.491000,345.691000,269.761000C344.663000,270.101000,342.699000,271.039000,342.303000,271.381000C341.839000,271.775000,340.911000,272.623000,340.356000,273.138000C339.802000,273.652000,339.136000,274.238000,338.875000,274.544000C338.718000,274.731000,338.232000,274.987000,337.876000,275.155000C337.345000,275.411000,337.402000,276.188000,337.966000,276.356000C338.499000,276.514000,339.224000,276.192000,339.674000,275.987000C340.944000,275.413000,342.510000,273.840000,342.589000,274.037000C342.668000,274.232000,341.053000,277.632000,340.893000,278.030000C340.733000,278.433000,338.877000,282.391000,338.771000,283.278000C338.666000,284.165000,339.199000,284.378000,339.605000,284.059000C339.954000,283.785000,342.922000,278.506000,342.922000,278.506000C342.922000,278.506000,343.303000,277.833000,343.441000,278.224000C343.579000,278.614000,340.891000,283.412000,340.627000,284.203000C340.358000,284.994000,340.552000,285.646000,341.293000,285.380000C342.192000,285.055000,344.744000,279.756000,344.744000,279.756000C344.744000,279.756000,345.076000,279.097000,345.292000,279.332000C345.509000,279.567000,343.155000,283.611000,343.123000,284.081000C343.092000,284.550000,343.510000,285.021000,344.133000,284.637000C344.870000,284.185000,347.107000,279.434000,347.107000,279.434000C347.107000,279.434000,347.379000,279.123000,347.460000,279.346000C347.541000,279.569000,345.780000,283.160000,345.900000,283.692000C346,284.138000,346.403000,284.055000,346.403000,284.055000C347.296000,284.067000,348.523000,280.338000,349.605000,278.813000C350.688000,277.289000,351.179000,275.070000,352.666000,273.396000C352.755000,273.291000,352.989000,273.035000,353.137000,272.877000Z" fill="rgb(245,157,155)" stroke="none" stroke-width="1" stroke-miterlimit="1"/><path id="eR3UlE7DIr939" d="M369.924000,218.042000L357.655000,227.190000C357.655000,227.190000,352.295000,214.157000,348.404000,210.317000C343.529000,205.507000,350.181000,190.770000,353.321000,191.602000C360.343000,193.468000,369.924000,218.042000,369.924000,218.042000Z" fill="rgb(45,255,179)" stroke="none" stroke-width="1" stroke-miterlimit="1"/></g></g></g></g><g id="eR3UlE7DIr940_ts" transform="translate(215.859642,393.188843) scale(1,1)"><g id="eR3UlE7DIr940" transform="translate(-215.859642,-393.188843)"><path id="eR3UlE7DIr941" d="M181.815000,226.920000C197.140000,234.943000,203.703000,221.460000,203.268000,221.789000C203.607000,221.501000,206.115000,220.722000,207.726000,220.142000C214.443000,217.732000,219.034000,211.008000,219.614000,203.833000C229.358000,199.309000,230.328000,191.161000,224.672000,184.142000C227.333000,177.242000,225.601000,165.786000,219.466000,161.532000C215.394000,152.674000,202.613000,154.997000,195.253000,160.881000C191.520000,163.863000,189.063000,168.537000,188.623000,173.402000C180.423000,175.784000,175.444000,183.834000,176.368000,192.553000C164.873000,200.007000,166.175000,218.738000,181.815000,226.920000Z" fill="rgb(47,46,127)" stroke="none" stroke-width="1" stroke-miterlimit="1"/><path id="eR3UlE7DIr942" d="M170.632000,370.176000C170.632000,370.176000,169.468000,378.013000,167.469000,380.543000C166.796000,381.393000,165.571000,382.465000,164.765000,384.002000C163.513000,386.390000,164.203000,389.946000,165.130000,391.904000C165.605000,392.910000,165.098000,392.908000,166.177000,393.229000C169.378000,394.189000,172.781000,392.572000,174.144000,389.596000C174.905000,387.932000,175.572000,385.713000,175.706000,382.919000C176.049000,375.804000,178.325000,372.185000,178.325000,372.185000L170.632000,370.176000Z" fill="rgb(245,157,155)" stroke="none" stroke-width="1" stroke-miterlimit="1"/><path id="eR3UlE7DIr943" d="M205.630000,373.761000C205.630000,373.761000,206.348000,382.600000,205.764000,385.471000C205.453000,387.009000,203.715000,390.174000,204.512000,391.622000C205.309000,393.069000,206.220000,393.430000,206.220000,393.430000L226.879000,393.754000C228.003000,393.771000,227.260000,393.067000,226.353000,392.419000C224.868000,391.358000,223.669000,390.655000,218.926000,388.425000C218.616000,388.279000,217.490000,387.585000,217.084000,387.342000C216.055000,386.731000,215.019000,385.769000,214.128000,384.804000C212.643000,383.199000,212.517000,375.415000,212.517000,375.415000L205.630000,373.761000Z" fill="rgb(245,157,155)" stroke="none" stroke-width="1" stroke-miterlimit="1"/><path id="eR3UlE7DIr944" d="M221.316000,253.691000C221.316000,253.691000,224.381000,269.734000,222.671000,279.141000C220.963000,288.547000,212.765000,375.749000,212.765000,375.749000L203.654000,376.249000C203.654000,376.249000,201.745000,339.823000,202.086000,334.757000C202.429000,329.691000,205.131000,321.215000,205.131000,321.215000L204.226000,291.807000L215.723000,253.170000L221.316000,253.691000Z" fill="rgb(10,10,114)" stroke="none" stroke-width="1" stroke-miterlimit="1"/><path id="eR3UlE7DIr945" d="M194.999000,252.364000C194.999000,252.364000,187.824000,262.857000,186.116000,271.540000C184.409000,280.223000,187.371000,306.911000,184.083000,318.290000C182.304000,324.451000,175.564000,333.964000,174.538000,341.924000C173.513000,349.885000,169.492000,370.734000,169.492000,370.734000L178.599000,372.489000L199.763000,320.414000L216.364000,273.347000L220.618000,249.106000L194.999000,252.364000Z" fill="rgb(26,15,146)" stroke="none" stroke-width="1" stroke-miterlimit="1"/><path id="eR3UlE7DIr946" d="M174.763000,388.027000C169.800000,388.906000,166.498000,386.086000,164.779000,383.972000C163.518000,386.364000,162.903000,389.936000,163.830000,391.900000C164.646000,393.631000,167.035000,393.582000,168.916000,393.649000C170.906000,393.720000,172.444000,392.647000,173.430000,390.965000C173.892000,390.182000,174.365000,389.202000,174.763000,388.027000Z" fill="rgb(12,2,102)" stroke="none" stroke-width="1" stroke-miterlimit="1"/><path id="eR3UlE7DIr947" d="M217.082000,387.342000C211.617000,388.705000,207.579000,387.778000,205.321000,386.895000C204.737000,388.500000,203.966000,390.514000,204.376000,391.673000C204.877000,393.095000,205.591000,393.414000,206.222000,393.432000C211.211000,393.560000,224.503000,393.734000,228.307000,393.781000C228.838000,393.787000,229.133000,393.186000,228.790000,392.789000C227.846000,391.691000,217.488000,387.585000,217.082000,387.342000Z" fill="rgb(12,2,102)" stroke="none" stroke-width="1" stroke-miterlimit="1"/><g id="eR3UlE7DIr948_tr" transform="translate(215.859642,195.635500) rotate(0)"><g id="eR3UlE7DIr948" transform="translate(-215.859642,-195.635500)"><path id="eR3UlE7DIr949" d="M258.959000,195.710000C258.910000,194.827000,254.895000,195.751000,254.372000,195.053000C253.849000,194.353000,258.770000,192.253000,258.665000,191.494000C258.470000,190.094000,253.133000,193.464000,253.003000,192.825000C252.873000,192.186000,258.204000,188.441000,257.151000,187.688000C256.097000,186.934000,252.029000,192.148000,251.581000,191.525000C251.138000,190.904000,255.802000,187.017000,255.082000,185.546000C254.699000,184.759000,247.951000,193.200000,246.758000,193.178000C245.565000,193.156000,246.101000,188.496000,245.064000,188.263000C244.026000,188.031000,245.121000,197.264000,244.677000,197.769000C244.235000,198.274000,235.207000,209.883000,231.447000,212.686000C230.356000,211.491000,223.613000,205.541000,222.616000,204.395000C220.949000,207.045000,218.366000,208.538000,216.563000,211.070000C220.147000,214.760000,230.687000,223.140000,232.145000,223.187000C236.580000,223.335000,246.093000,205.377000,248.134000,202.133000C250.175000,198.887000,252.104000,198.871000,253.790000,197.416000C255.474000,195.964000,259.006000,196.593000,258.959000,195.710000Z" fill="rgb(244,140,127)" stroke="none" stroke-width="1" stroke-miterlimit="1"/><path id="eR3UlE7DIr950" d="M221.403000,218.200000C221.403000,218.200000,206.429000,206.677000,203.617000,201.492000C200.804000,196.306000,207.444000,192.624000,212.668000,192.565000C217.887000,192.507000,228.938000,208.041000,228.938000,208.041000L221.403000,218.200000Z" fill="rgb(45,255,179)" stroke="none" stroke-width="1" stroke-miterlimit="1"/></g></g><path id="eR3UlE7DIr951" d="M201.461000,191.600000C201.461000,191.600000,192.330000,191.017000,188.720000,194.963000C185.107000,198.909000,196.732000,230.123000,197.389000,235.146000C198.046000,240.169000,194.042000,253.522000,194.042000,253.522000C194.042000,253.522000,215.491000,257.846000,221.620000,253.782000C221.620000,253.782000,222.276000,217.667000,221.620000,214.082000C220.963000,210.495000,214.581000,194.369000,213.270000,192.933000C211.955000,191.496000,201.461000,191.600000,201.461000,191.600000Z" fill="rgb(45,255,179)" stroke="none" stroke-width="1" stroke-miterlimit="1"/><path id="eR3UlE7DIr952" d="M204.502000,179.371000C204.502000,179.371000,204.455000,179.640000,204.370000,180.099000C203.962000,182.298000,202.396000,189.599000,201.337000,191.604000C200.057000,194.028000,205.719000,201.762000,211.168000,200.820000C212.791000,200.538000,209.797000,193.714000,209.941000,192.991000C210.217000,191.606000,210.590000,189.719000,210.972000,187.784000C211.187000,186.692000,211.406000,185.585000,211.611000,184.544000C212.195000,181.586000,212.668000,179.168000,212.668000,179.168000L204.502000,179.371000Z" fill="rgb(245,157,155)" stroke="none" stroke-width="1" stroke-miterlimit="1"/><path id="eR3UlE7DIr953" d="M204.370000,180.099000C204.455000,179.640000,204.502000,179.371000,204.502000,179.371000L212.668000,179.168000C212.668000,179.168000,212.193000,181.586000,211.611000,184.544000C211.408000,185.580000,211.191000,186.680000,210.976000,187.767000C209.716000,187.581000,208.399000,186.968000,207.078000,185.808000C205.636000,184.544000,204.693000,183.026000,204.123000,181.405000C204.222000,180.886000,204.307000,180.442000,204.370000,180.099000Z" fill="rgb(211,140,140)" stroke="none" stroke-width="1" stroke-miterlimit="1"/><path id="eR3UlE7DIr954" d="M209.996000,160.771000C209.996000,160.771000,206.149000,160.325000,203.735000,163.453000C201.323000,166.579000,198.724000,176.252000,204.715000,181.507000C210.708000,186.767000,216.630000,180.813000,217.508000,174.502000C218.386000,168.194000,218.729000,160.542000,209.996000,160.771000Z" fill="rgb(245,157,155)" stroke="none" stroke-width="1" stroke-miterlimit="1"/><path id="eR3UlE7DIr955" d="M210.428000,159.736000C210.428000,159.736000,205.287000,168.931000,201.607000,169.357000C197.927000,169.781000,197.448000,174.668000,197.448000,174.668000C197.448000,174.668000,198.763000,163.408000,202.406000,161.236000C206.044000,159.067000,210.428000,159.736000,210.428000,159.736000Z" fill="rgb(47,46,127)" stroke="none" stroke-width="1" stroke-miterlimit="1"/><g id="eR3UlE7DIr956"><g id="eR3UlE7DIr957_tr" transform="translate(212.668000,213.264008) rotate(0)"><g id="eR3UlE7DIr957" transform="translate(-212.668000,-213.264008)"><path id="eR3UlE7DIr958" d="M252.370000,222.053000C252.370000,222.053000,253.928000,222.252000,254.756000,222.584000C255.585000,222.915000,262.150000,227.888000,262.150000,227.888000C262.150000,227.888000,263.027000,228.370000,263.493000,227.989000C263.956000,227.608000,263.925000,227.159000,263.925000,227.159000C263.925000,227.159000,264.706000,227.591000,265.234000,227.291000C265.765000,226.991000,265.747000,226.496000,265.682000,226.246000C265.682000,226.246000,266.445000,226.461000,266.891000,226.080000C267.338000,225.699000,267.106000,224.721000,267.106000,224.721000C267.106000,224.721000,268.514000,225.583000,269.062000,225.003000C269.608000,224.424000,269.375000,223.810000,268.829000,223.347000C268.283000,222.883000,265.033000,220.728000,264.652000,220.479000C264.272000,220.233000,263.195000,219.089000,262.862000,218.939000C262.530000,218.789000,261.718000,218.344000,261.718000,218.344000C261.718000,218.344000,260.359000,218.493000,260.274000,218.543000C260.192000,218.592000,259.811000,219.537000,259.131000,219.787000C258.450000,220.038000,257.655000,219.687000,257.622000,219.588000C257.590000,219.487000,257.573000,219.274000,257.604000,219.075000C257.636000,218.876000,258.135000,218.148000,258.249000,217.567000C258.365000,216.987000,258.513000,216.821000,258.730000,216.689000C258.945000,216.557000,260.123000,216.208000,260.702000,215.977000C261.282000,215.744000,263.718000,216.425000,263.718000,216.425000L264.877000,216.922000C264.877000,216.922000,264.662000,216.064000,263.933000,215.930000C263.203000,215.796000,262.292000,215.596000,261.779000,215.547000C261.266000,215.498000,260.071000,215.861000,259.525000,215.896000C258.979000,215.928000,257.949000,216.013000,257.336000,216.245000C256.723000,216.478000,253.011000,216.245000,252.777000,216.214000C252.784000,216.200000,251.177000,220.560000,252.370000,222.053000Z" fill="rgb(248,164,146)" stroke="none" stroke-width="1" stroke-miterlimit="1"/><path id="eR3UlE7DIr959" d="M253.638000,216.241000C252.076000,216.206000,234.046000,216.052000,227.270000,215.997000C225.617000,215.983000,224.014000,215.421000,222.712000,214.398000L207.644000,202.541000L201.045000,210.146000L219.752000,223.660000C221.002000,224.564000,222.541000,224.978000,224.077000,224.822000C231.192000,224.102000,251.919000,222.041000,253.731000,222.290000L253.638000,216.241000Z" fill="rgb(248,164,146)" stroke="none" stroke-width="1" stroke-miterlimit="1"/></g></g><path id="eR3UlE7DIr960" d="M218.330000,208.690000C218.330000,208.690000,205.715000,195.422000,201.154000,192.072000C196.590000,188.721000,187.412000,191.569000,188.140000,197.321000C188.883000,203.188000,209.489000,218.042000,209.489000,218.042000L218.330000,208.690000Z" fill="rgb(31,238,163)" stroke="none" stroke-width="1" stroke-miterlimit="1"/></g><path id="eR3UlE7DIr961" d="M198.913000,172.773000C199.684000,174.297000,201.152000,175.055000,202.187000,174.465000C203.222000,173.873000,203.437000,172.158000,202.666000,170.631000C201.895000,169.107000,200.428000,168.348000,199.392000,168.939000C198.355000,169.533000,198.140000,171.249000,198.913000,172.773000Z" fill="rgb(245,157,155)" stroke="none" stroke-width="1" stroke-miterlimit="1"/></g></g></g><clipPath id="eR3UlE7DIr962"><rect id="eR3UlE7DIr963" width="220.190000" height="242.516000" rx="0" ry="0" transform="matrix(1 0 0 1 163.38399999999999 151.26400000000001)" fill="rgb(255,255,255)" stroke="none" stroke-width="1" stroke-miterlimit="1"/></clipPath></g><g id="eR3UlE7DIr964_tr" transform="translate(95.852700,385.213257) rotate(0)"><g id="eR3UlE7DIr964" transform="translate(-95.852700,-385.213257)" clip-path="url(#eR3UlE7DIr970)"><g id="eR3UlE7DIr965"><path id="eR3UlE7DIr966" d="M122.161000,376.538000C122.161000,376.538000,125.216000,335.191000,111.749000,333.156000C98.358400,331.119000,104.494000,347.556000,97.747100,345.089000C90.998700,342.648000,91.304300,320.385000,75.874800,321.708000C60.445300,323.032000,80.381000,340.690000,71.063000,340.690000C61.744900,340.690000,74.423400,351.299000,74.423400,359.671000C74.423400,368.042000,49.804000,350.384000,46.849800,361.706000C42.649300,377.938000,71.978000,376.820000,71.978000,376.820000L122.161000,376.538000Z" fill="rgb(86,77,159)" stroke="none" stroke-width="1" stroke-miterlimit="1"/><path id="eR3UlE7DIr967" d="M57.192100,375.108000C67.299000,372.868000,88.660500,369.992000,97.239100,375.514000C97.544700,375.922000,97.850400,376.226000,98.156100,376.737000L99.990100,376.737000C98.666800,374.956000,97.341600,373.073000,96.018300,371.241000C99.175600,361.852000,98.870000,351.039000,98.361200,345.442000C98.361200,345.442000,98.361200,345.442000,98.258600,345.442000C98.156100,345.442000,98.055500,345.442000,97.952900,345.188000C97.952900,345.188000,97.953000,345.188000,97.850400,345.188000C97.850400,345.188000,97.850400,345.188000,97.747900,345.188000C97.747900,345.188000,97.747900,345.188000,97.647300,345.188000C97.647300,345.188000,97.647300,345.188000,97.544700,345.188000C97.544700,345.188000,97.544700,345.188000,97.442200,345.188000L97.339600,345.136000C97.237100,345.136000,97.237100,345.059000,97.136500,345.059000C97.645300,350.173000,98.154100,360.682000,95.302500,370.095000C93.571000,367.448000,91.942100,364.804000,90.285500,362.029000C93.645900,358.976000,93.342200,346.509000,92.628300,337.731000C92.525800,337.425000,92.425200,337.222000,92.322700,336.917000C92.322700,336.814000,92.322700,336.814000,92.220100,336.714000C91.811900,335.593000,91.303100,334.475000,90.794300,333.355000C91.914500,343.862000,92.220100,357.552000,89.571600,360.605000C81.093700,345.491000,74.856000,329.667000,72.412600,323.025000C71.903800,323.331000,71.495600,323.534000,71.189900,323.940000C73.327700,329.768000,78.242100,342.210000,84.888000,354.880000C88.451500,361.826000,92.145200,367.957000,95.606200,373.047000C85.702400,368.239000,60.777400,372.130000,53.827800,374.167000C54.646200,374.293000,55.868900,374.702000,57.192100,375.108000Z" fill="rgb(235,237,245)" stroke="none" stroke-width="1" stroke-miterlimit="1"/><path id="eR3UlE7DIr968" d="M141.025000,338.051000C144.255000,339.447000,146.186000,343.566000,144.821000,346.832000C144.101000,348.554000,142.605000,349.991000,142.151000,351.812000C141.634000,353.876000,142.147000,356.328000,142.088000,358.440000C141.987000,362.011000,140.392000,365.289000,137.617000,367.527000C134.539000,370.014000,129.995000,369.458000,127.226000,372.197000C125.361000,374.045000,126.193000,377.021000,125.615000,379.346000C123.261000,388.774000,109.091000,384.972000,103.688000,380.860000C97.909600,376.463000,92.472600,364.861000,100.292000,359.759000C103.005000,357.988000,106.604000,358.607000,109.263000,356.726000C112.769000,354.243000,111.253000,349.650000,113.051000,346.329000C116.928000,339.165000,124.211000,343.626000,129.731000,340.948000C133.427000,339.155000,136.572000,336.126000,141.025000,338.051000Z" fill="rgb(80,188,141)" stroke="none" stroke-width="1" stroke-miterlimit="1"/><path id="eR3UlE7DIr969" d="M136.897000,359.087000C136.828000,358.984000,136.700000,358.961000,136.600000,359.030000C134.105000,360.718000,131.419000,360.907000,128.623000,359.582000C126.518000,358.590000,125.134000,357.067000,125.116000,357.050000C125.116000,357.050000,125.112000,357.050000,125.112000,357.046000C125.440000,356.724000,125.763000,356.403000,126.091000,356.085000C127.577000,354.636000,129.078000,353.194000,130.585000,351.766000C130.646000,351.770000,130.711000,351.747000,130.754000,351.697000C130.790000,351.656000,130.802000,351.607000,130.802000,351.559000C132.756000,349.708000,134.728000,347.872000,136.720000,346.065000C136.763000,346.024000,136.767000,345.959000,136.732000,345.913000C136.692000,345.868000,136.627000,345.864000,136.582000,345.901000C134.555000,347.653000,132.547000,349.431000,130.555000,351.222000C129.757000,350.449000,126.621000,347.160000,128.205000,344.521000C128.266000,344.418000,128.232000,344.284000,128.132000,344.223000C128.031000,344.162000,127.897000,344.196000,127.836000,344.296000C127.008000,345.673000,127.207000,347.402000,128.406000,349.291000C128.968000,350.175000,129.619000,350.893000,130.029000,351.311000C130.106000,351.388000,130.175000,351.453000,130.230000,351.510000C128.707000,352.887000,127.193000,354.267000,125.690000,355.663000C122.805000,358.343000,119.955000,361.067000,117.155000,363.843000C116.157000,362.246000,113.574000,357.442000,116.157000,353.930000C116.230000,353.831000,116.208000,353.699000,116.112000,353.628000C116.015000,353.559000,115.881000,353.575000,115.814000,353.673000C113.028000,357.456000,115.842000,362.573000,116.843000,364.157000C116.281000,364.715000,115.715000,365.273000,115.159000,365.839000C112.045000,368.998000,108.993000,372.227000,106.104000,375.623000C104.820000,373.818000,101.140000,367.993000,103.595000,363.459000C103.652000,363.352000,103.615000,363.222000,103.510000,363.165000C103.406000,363.108000,103.276000,363.145000,103.218000,363.250000C101.942000,365.602000,102.055000,368.636000,103.546000,372.024000C104.325000,373.794000,105.295000,375.244000,105.816000,375.964000C105.622000,376.193000,105.423000,376.419000,105.234000,376.652000C104.293000,377.792000,103.372000,378.953000,102.483000,380.147000C102.863000,380.440000,103.207000,380.774000,103.504000,381.148000C104.376000,379.902000,105.297000,378.685000,106.240000,377.484000C107.241000,376.222000,108.267000,374.982000,109.318000,373.751000C110.852000,375.102000,115.954000,379.076000,120.756000,376.938000C120.865000,376.889000,120.914000,376.762000,120.865000,376.652000C120.817000,376.542000,120.691000,376.494000,120.583000,376.542000C115.999000,378.585000,111.067000,374.723000,109.596000,373.424000C111.616000,371.071000,113.708000,368.770000,115.832000,366.506000C118.756000,363.396000,121.752000,360.359000,124.797000,357.363000C124.813000,357.379000,124.850000,357.420000,124.911000,357.480000C125.771000,358.351000,131.062000,363.301000,136.828000,359.396000C136.937000,359.317000,136.963000,359.183000,136.897000,359.087000Z" fill="rgb(255,255,255)" stroke="none" stroke-width="1" stroke-miterlimit="1"/></g><clipPath id="eR3UlE7DIr970"><rect id="eR3UlE7DIr971" width="98.824600" height="63.565900" rx="0" ry="0" transform="matrix(1 0 0 1 46.44040000000000 321.65100000000001)" fill="rgb(255,255,255)" stroke="none" stroke-width="1" stroke-miterlimit="1"/></clipPath></g></g><g id="eR3UlE7DIr972_tr" transform="translate(443.214000,379.262000) rotate(0)"><g id="eR3UlE7DIr972" transform="translate(-443.214000,-379.262000)" clip-path="url(#eR3UlE7DIr978)"><g id="eR3UlE7DIr973"><path id="eR3UlE7DIr974" d="M433.661000,372.925000C439.525000,377.259000,450.885000,381.111000,457.797000,379.954000C462.924000,379.096000,468.489000,377.365000,471.714000,372.996000C474.237000,369.580000,474.820000,365.139000,469.986000,363.662000C468.356000,363.162000,466.606000,363.546000,464.905000,363.706000C461.413000,364.032000,457.472000,361.349000,460.630000,357.807000C462.416000,355.805000,466.436000,355.537000,468.902000,355.352000C474.286000,354.947000,480.900000,355.730000,483.873000,350.088000C484.752000,348.415000,484.837000,346.083000,483.388000,344.872000C482.034000,343.737000,480.044000,344.061000,478.284000,344.204000C472.212000,344.694000,472.970000,339.015000,476.965000,336.515000C479.083000,335.184000,481.571000,334.455000,483.491000,332.858000C486.286000,330.526000,487.077000,325.503000,484.229000,322.472000C481.216000,319.608000,476.197000,320.381000,473.861000,323.170000C472.258000,325.088000,471.516000,327.576000,470.183000,329.692000C467.669000,333.683000,461.996000,334.422000,462.511000,328.340000C462.661000,326.579000,462.989000,324.588000,461.867000,323.223000C460.663000,321.768000,458.335000,321.843000,456.664000,322.721000C451.022000,325.674000,451.778000,332.300000,451.350000,337.694000C451.155000,340.159000,450.871000,344.185000,448.867000,345.965000C445.318000,349.115000,442.658000,345.161000,442.990000,341.664000C443.154000,339.964000,443.545000,338.211000,443.051000,336.573000C441.595000,331.727000,437.160000,332.297000,433.736000,334.808000C429.359000,338.020000,427.610000,343.587000,426.734000,348.722000C425.554000,355.643000,429.356000,367.034000,433.661000,372.925000Z" fill="rgb(86,77,159)" stroke="none" stroke-width="1" stroke-miterlimit="1"/><path id="eR3UlE7DIr975" d="M470.966000,334.775000C466.531000,338.211000,462.432000,342.161000,458.420000,346.174000C458.863000,343.014000,459.473000,339.683000,459.131000,336.560000C459.128000,336.536000,459.091000,336.533000,459.087000,336.556000C457.825000,339.910000,457.692000,343.840000,457.231000,347.374000C455.244000,349.366000,453.277000,351.368000,451.292000,353.319000C447.747000,356.799000,444.135000,360.234000,440.576000,363.716000C438.721000,359.374000,437.262000,354.798000,436.618000,350.109000C436.614000,350.074000,436.553000,350.068000,436.553000,350.109000C436.477000,355.039000,437.579000,359.920000,439.755000,364.366000C439.772000,364.401000,439.799000,364.428000,439.820000,364.455000C437.386000,366.849000,434.982000,369.266000,432.650000,371.742000C432.183000,372.242000,433.001000,373.050000,433.507000,372.587000C434.955000,371.262000,436.385000,369.904000,437.803000,368.538000C444.560000,369.379000,451.587000,371.067000,458.393000,370.822000C458.535000,370.818000,458.508000,370.622000,458.393000,370.591000C452.120000,368.940000,445.322000,368.264000,438.833000,367.543000C443.551000,362.946000,448.144000,358.203000,452.814000,353.577000C453.227000,353.168000,453.649000,352.759000,454.066000,352.348000C459.926000,351.334000,465.989000,350.622000,471.693000,348.905000C471.733000,348.892000,471.710000,348.840000,471.676000,348.840000C466.176000,349.092000,460.659000,350.259000,455.225000,351.216000C460.655000,345.942000,466.288000,340.688000,470.987000,334.797000C470.997000,334.779000,470.977000,334.762000,470.966000,334.775000Z" fill="rgb(255,255,255)" stroke="none" stroke-width="1" stroke-miterlimit="1"/><path id="eR3UlE7DIr976" d="M442.843000,377.753000C442.843000,377.753000,450.262000,360.145000,444.907000,357.680000C439.552000,355.215000,436.836000,358.880000,434.683000,357.875000C432.529000,356.856000,440.063000,346.993000,433.879000,344.127000C427.675000,341.309000,426.013000,348.735000,422.508000,347.099000C418.929000,345.456000,417.126000,329.750000,408.727000,332.291000C400.330000,334.829000,414.877000,348.143000,411.644000,348.621000C408.411000,349.098000,404.277000,345.138000,401.806000,349.846000C399.333000,354.557000,421.472000,361.621000,412.357000,362.913000C403.146000,364.200000,405.928000,368.035000,408.791000,370.963000C411.651000,373.876000,425.941000,380.197000,425.941000,380.197000L442.843000,377.753000Z" fill="rgb(80,188,141)" stroke="none" stroke-width="1" stroke-miterlimit="1"/><path id="eR3UlE7DIr977" d="M401.923000,349.623000C406.258000,352.416000,414.066000,356.988000,420.056000,358.288000C414.483000,346.776000,409.811000,335.645000,408.470000,332.368000C408.561000,332.310000,408.632000,332.320000,408.723000,332.262000C408.814000,332.206000,408.885000,332.214000,409.072000,332.163000C410.071000,334.609000,413.009000,341.592000,416.761000,349.829000C417.467000,346.922000,418.239000,343.475000,418.806000,340.881000C418.908000,341.201000,419.103000,341.479000,419.207000,341.816000C418.468000,345.371000,417.423000,349.731000,417.178000,350.699000C417.475000,351.297000,417.772000,351.897000,418.050000,352.561000L421.040000,345.481000C421.157000,345.705000,421.290000,345.865000,421.426000,346.023000L418.399000,353.216000C419.907000,356.492000,421.618000,359.871000,423.279000,363.257000C427.789000,359.829000,430.735000,349.009000,431.996000,343.402000C432.164000,343.400000,432.384000,343.456000,432.631000,343.525000C431.337000,349.295000,428.358000,360.277000,423.513000,363.691000C426.130000,368.818000,428.931000,373.849000,431.636000,378.118000C436.034000,375.284000,440.607000,362.705000,442.583000,356.787000C442.733000,356.851000,442.970000,356.841000,443.215000,356.910000C441.209000,362.989000,436.626000,375.726000,431.910000,378.500000C432.027000,378.723000,432.239000,378.938000,432.355000,379.161000L431.695000,379.262000C430.625000,377.562000,429.442000,375.703000,428.285000,373.619000C423.829000,372.838000,412.199000,368.347000,406.154000,365.952000C406.187000,365.791000,406.217000,365.629000,406.304000,365.527000C412.027000,367.798000,423.287000,372.171000,427.955000,373.181000C425.685000,369.200000,423.154000,364.487000,420.583000,359.088000C420.525000,358.984000,420.461000,358.818000,420.403000,358.714000C414.309000,357.566000,406.350000,352.931000,401.864000,350.045000C401.877000,349.933000,401.896000,349.885000,401.983000,349.781000C401.908000,349.719000,401.927000,349.669000,401.923000,349.623000Z" fill="rgb(255,255,255)" stroke="none" stroke-width="1" stroke-miterlimit="1"/></g><clipPath id="eR3UlE7DIr978"><rect id="eR3UlE7DIr979" width="84.404800" height="59.534300" rx="0" ry="0" transform="matrix(1 0 0 1 401.61099999999999 320.66500000000002)" fill="rgb(255,255,255)" stroke="none" stroke-width="1" stroke-miterlimit="1"/></clipPath></g></g><g id="eR3UlE7DIr980" clip-path="url(#eR3UlE7DIr983)"><g id="eR3UlE7DIr981"><path id="eR3UlE7DIr982" d="M273.501000,406.917000C406.425000,406.917000,514.169000,394.925000,514.169000,380.158000C514.167000,365.393000,406.425000,353.401000,273.501000,353.401000C140.575000,353.401000,32.833000,365.393000,32.833000,380.158000C32.833000,394.925000,140.575000,406.917000,273.501000,406.917000Z" opacity="0.14" fill="url(#eR3UlE7DIr982-fill)" stroke="none" stroke-width="1" stroke-miterlimit="1"/></g><clipPath id="eR3UlE7DIr983"><rect id="eR3UlE7DIr984" width="481.334000" height="53.516200" rx="0" ry="0" transform="matrix(1 0 0 1 32.83300000000000 353.40100000000001)" fill="rgb(255,255,255)" stroke="none" stroke-width="1" stroke-miterlimit="1"/></clipPath></g><g id="eR3UlE7DIr985_ts" transform="translate(449.927017,140.022995) scale(1,1)"><g id="eR3UlE7DIr985" transform="translate(-449.927017,-140.022995)"><circle id="eR3UlE7DIr986" r="55.612500" transform="matrix(1 0 0 1 449.92700000000002 140.02300000000000)" fill="rgb(54,64,132)" stroke="none" stroke-width="1" stroke-miterlimit="1"/><circle id="eR3UlE7DIr987" r="48.105600" transform="matrix(1 0 0 1 449.92700000000002 140.02300000000000)" fill="rgb(66,77,156)" stroke="none" stroke-width="1" stroke-miterlimit="1"/><path id="eR3UlE7DIr988" d="M431.856000,132.711000L421.102000,132.711000L421.102000,137.468000C421.561000,136.962000,422.205000,136.549000,423.032000,136.227000C423.859000,135.905000,424.755000,135.745000,425.721000,135.745000C427.444000,135.745000,428.869000,136.135000,429.995000,136.917000C431.144000,137.698000,431.983000,138.709000,432.511000,139.950000C433.040000,141.191000,433.304000,142.535000,433.304000,143.983000C433.304000,146.672000,432.546000,148.809000,431.029000,150.395000C429.512000,151.957000,427.375000,152.739000,424.618000,152.739000C422.779000,152.739000,421.182000,152.428000,419.826000,151.808000C418.470000,151.164000,417.425000,150.280000,416.689000,149.154000C415.954000,148.028000,415.552000,146.729000,415.483000,145.258000L421.239000,145.258000C421.377000,145.971000,421.710000,146.568000,422.239000,147.051000C422.768000,147.510000,423.491000,147.740000,424.411000,147.740000C425.491000,147.740000,426.295000,147.396000,426.824000,146.706000C427.352000,146.017000,427.616000,145.098000,427.616000,143.949000C427.616000,142.822000,427.341000,141.961000,426.789000,141.363000C426.238000,140.766000,425.433000,140.467000,424.376000,140.467000C423.595000,140.467000,422.951000,140.662000,422.446000,141.053000C421.940000,141.421000,421.607000,141.915000,421.446000,142.535000L415.759000,142.535000L415.759000,127.541000L431.856000,127.541000L431.856000,132.711000Z" fill="rgb(255,255,255)" stroke="none" stroke-width="1" stroke-miterlimit="1"/><path id="eR3UlE7DIr989" d="M454.276000,132.711000L443.521000,132.711000L443.521000,137.468000C443.980000,136.962000,444.624000,136.549000,445.451000,136.227000C446.278000,135.905000,447.175000,135.745000,448.140000,135.745000C449.863000,135.745000,451.288000,136.135000,452.414000,136.917000C453.563000,137.698000,454.402000,138.709000,454.931000,139.950000C455.459000,141.191000,455.723000,142.535000,455.723000,143.983000C455.723000,146.672000,454.965000,148.809000,453.448000,150.395000C451.932000,151.957000,449.794000,152.739000,447.037000,152.739000C445.198000,152.739000,443.601000,152.428000,442.245000,151.808000C440.890000,151.164000,439.844000,150.280000,439.109000,149.154000C438.373000,148.028000,437.971000,146.729000,437.902000,145.258000L443.659000,145.258000C443.797000,145.971000,444.130000,146.568000,444.658000,147.051000C445.187000,147.510000,445.911000,147.740000,446.830000,147.740000C447.910000,147.740000,448.714000,147.396000,449.243000,146.706000C449.771000,146.017000,450.036000,145.098000,450.036000,143.949000C450.036000,142.822000,449.760000,141.961000,449.208000,141.363000C448.657000,140.766000,447.853000,140.467000,446.796000,140.467000C446.014000,140.467000,445.371000,140.662000,444.865000,141.053000C444.360000,141.421000,444.026000,141.915000,443.866000,142.535000L438.178000,142.535000L438.178000,127.541000L454.276000,127.541000L454.276000,132.711000Z" fill="rgb(255,255,255)" stroke="none" stroke-width="1" stroke-miterlimit="1"/><path id="eR3UlE7DIr990" d="M458.495000,133.918000C458.495000,132.056000,459.023000,130.620000,460.080000,129.609000C461.160000,128.598000,462.551000,128.092000,464.251000,128.092000C465.952000,128.092000,467.330000,128.598000,468.388000,129.609000C469.445000,130.620000,469.973000,132.056000,469.973000,133.918000C469.973000,135.779000,469.445000,137.215000,468.388000,138.226000C467.330000,139.238000,465.952000,139.743000,464.251000,139.743000C462.551000,139.743000,461.160000,139.238000,460.080000,138.226000C459.023000,137.215000,458.495000,135.779000,458.495000,133.918000ZM481.900000,128.471000L468.629000,152.739000L462.941000,152.739000L476.212000,128.471000L481.900000,128.471000ZM464.217000,131.539000C463.114000,131.539000,462.562000,132.332000,462.562000,133.918000C462.562000,135.480000,463.114000,136.262000,464.217000,136.262000C464.745000,136.262000,465.159000,136.066000,465.458000,135.676000C465.756000,135.285000,465.906000,134.699000,465.906000,133.918000C465.906000,132.332000,465.343000,131.539000,464.217000,131.539000ZM474.903000,147.292000C474.903000,145.431000,475.431000,143.994000,476.488000,142.983000C477.545000,141.972000,478.924000,141.467000,480.625000,141.467000C482.325000,141.467000,483.704000,141.972000,484.761000,142.983000C485.818000,143.994000,486.347000,145.431000,486.347000,147.292000C486.347000,149.154000,485.818000,150.590000,484.761000,151.601000C483.704000,152.612000,482.325000,153.118000,480.625000,153.118000C478.924000,153.118000,477.545000,152.612000,476.488000,151.601000C475.431000,150.590000,474.903000,149.154000,474.903000,147.292000ZM480.590000,144.914000C480.062000,144.914000,479.648000,145.109000,479.349000,145.500000C479.073000,145.890000,478.936000,146.488000,478.936000,147.292000C478.936000,148.855000,479.487000,149.636000,480.590000,149.636000C481.119000,149.636000,481.532000,149.441000,481.831000,149.050000C482.130000,148.659000,482.279000,148.073000,482.279000,147.292000C482.279000,146.511000,482.130000,145.925000,481.831000,145.534000C481.532000,145.121000,481.119000,144.914000,480.590000,144.914000Z" fill="rgb(255,255,255)" stroke="none" stroke-width="1" stroke-miterlimit="1"/></g></g><g id="eR3UlE7DIr991_ts" transform="translate(448.832977,279.521000) scale(1,1)"><g id="eR3UlE7DIr991" transform="translate(-448.832977,-279.521000)" clip-path="url(#eR3UlE7DIr999)"><g id="eR3UlE7DIr992"><path id="eR3UlE7DIr993" d="M475.380000,268.419000C490.044000,253.755000,490.044000,229.981000,475.380000,215.318000C460.717000,200.655000,436.943000,200.655000,422.279000,215.318000C407.616000,229.981000,407.616000,253.755000,422.279000,268.419000C436.943000,283.082000,460.717000,283.082000,475.380000,268.419000Z" fill="rgb(255,225,77)" stroke="none" stroke-width="1" stroke-miterlimit="1"/><path id="eR3UlE7DIr994" d="M485.647000,249.244000C489.713000,228.944000,476.506000,209.118000,456.204000,205.052000L441.453000,278.687000C461.755000,282.752000,481.580000,269.545000,485.647000,249.244000Z" fill="rgb(255,187,51)" stroke="none" stroke-width="1" stroke-miterlimit="1"/><path id="eR3UlE7DIr995" d="M443.212000,269.913000C427.749000,266.815000,417.687000,251.713000,420.785000,236.250000C423.884000,220.787000,438.984000,210.725000,454.449000,213.824000C469.914000,216.922000,479.973000,232.022000,476.875000,247.485000C473.777000,262.950000,458.675000,273.009000,443.212000,269.913000Z" fill="rgb(255,187,51)" stroke="none" stroke-width="1" stroke-miterlimit="1"/><path id="eR3UlE7DIr996" d="M476.875000,247.487000C479.973000,232.024000,469.912000,216.922000,454.449000,213.826000L443.214000,269.915000C458.675000,273.010000,473.777000,262.950000,476.875000,247.487000Z" fill="rgb(230,138,46)" stroke="none" stroke-width="1" stroke-miterlimit="1"/><path id="eR3UlE7DIr997" d="M451.388000,240.297000L453.096000,231.768000C455.454000,232.874000,456.969000,234.836000,456.600000,236.672000C456.362000,237.865000,457.133000,239.023000,458.326000,239.261000C459.519000,239.500000,460.677000,238.729000,460.915000,237.536000C461.749000,233.367000,458.738000,229.139000,453.979000,227.352000L454.447000,225.021000C454.685000,223.828000,453.914000,222.670000,452.721000,222.432000C451.528000,222.193000,450.370000,222.964000,450.132000,224.157000L449.664000,226.488000C444.586000,226.305000,440.177000,229.046000,439.343000,233.215000C438.508000,237.384000,441.520000,241.612000,446.278000,243.399000L444.571000,251.928000C442.212000,250.822000,440.697000,248.860000,441.066000,247.024000C441.305000,245.830000,440.534000,244.673000,439.341000,244.434000C438.148000,244.196000,436.990000,244.967000,436.751000,246.160000C435.917000,250.329000,438.928000,254.557000,443.687000,256.344000L443.216000,258.696000C442.977000,259.889000,443.748000,261.047000,444.941000,261.286000C446.134000,261.524000,447.292000,260.753000,447.531000,259.560000L448.002000,257.207000C453.080000,257.391000,457.490000,254.650000,458.324000,250.481000C459.160000,246.312000,456.147000,242.083000,451.388000,240.297000ZM443.659000,234.079000C444.026000,232.245000,446.180000,231.014000,448.783000,230.904000L447.164000,238.983000C444.805000,237.877000,443.291000,235.915000,443.659000,234.079000ZM448.885000,252.792000L450.505000,244.712000C452.863000,245.819000,454.378000,247.781000,454.009000,249.617000C453.640000,251.453000,451.489000,252.679000,448.885000,252.792000Z" fill="rgb(255,225,77)" stroke="none" stroke-width="1" stroke-miterlimit="1"/><path id="eR3UlE7DIr998" d="M447.531000,259.558000L448.002000,257.205000C453.080000,257.389000,457.490000,254.648000,458.324000,250.479000C459.158000,246.310000,456.147000,242.082000,451.388000,240.295000L453.096000,231.766000C455.454000,232.872000,456.969000,234.834000,456.600000,236.670000C456.362000,237.863000,457.133000,239.021000,458.326000,239.259000C459.519000,239.498000,460.677000,238.727000,460.915000,237.534000C461.749000,233.365000,458.738000,229.137000,453.979000,227.350000L454.447000,225.019000C454.685000,223.826000,453.914000,222.668000,452.721000,222.430000L444.939000,261.282000C446.132000,261.522000,447.292000,260.751000,447.531000,259.558000ZM450.505000,244.710000C452.863000,245.817000,454.378000,247.779000,454.009000,249.615000C453.642000,251.449000,451.489000,252.679000,448.885000,252.790000L450.505000,244.710000Z" fill="rgb(255,187,51)" stroke="none" stroke-width="1" stroke-miterlimit="1"/></g><clipPath id="eR3UlE7DIr999"><rect id="eR3UlE7DIr9100" width="75.112400" height="75.112400" rx="0" ry="0" transform="matrix(1 0 0 1 411.27400000000000 204.31200000000001)" fill="rgb(255,255,255)" stroke="none" stroke-width="1" stroke-miterlimit="1"/></clipPath></g></g><g id="eR3UlE7DIr9101_ts" transform="translate(99.549294,181.106003) scale(1,1)"><g id="eR3UlE7DIr9101" transform="translate(-99.549294,-181.106003)" clip-path="url(#eR3UlE7DIr9109)"><g id="eR3UlE7DIr9102"><path id="eR3UlE7DIr9103" d="M126.108000,170.108000C140.772000,155.445000,140.772000,131.671000,126.108000,117.007000C111.445000,102.344000,87.670700,102.344000,73.007300,117.007000C58.344000,131.671000,58.344000,155.445000,73.007300,170.108000C87.670700,184.772000,111.445000,184.772000,126.108000,170.108000Z" fill="rgb(255,225,77)" stroke="none" stroke-width="1" stroke-miterlimit="1"/><path id="eR3UlE7DIr9104" d="M133.626000,127.770000C124.921000,108.984000,102.554000,100.784000,83.769800,109.489000L115.347000,177.626000C134.131000,168.921000,142.333000,146.556000,133.626000,127.770000Z" fill="rgb(255,187,51)" stroke="none" stroke-width="1" stroke-miterlimit="1"/><path id="eR3UlE7DIr9105" d="M111.584000,169.509000C97.274500,176.139000,80.237700,169.893000,73.607600,155.584000C66.977500,141.274000,73.223100,124.238000,87.532400,117.608000C101.842000,110.978000,118.879000,117.223000,125.509000,131.532000C132.139000,145.842000,125.893000,162.877000,111.584000,169.509000Z" fill="rgb(255,187,51)" stroke="none" stroke-width="1" stroke-miterlimit="1"/><path id="eR3UlE7DIr9106" d="M125.509000,131.532000C118.877000,117.223000,101.840000,110.976000,87.532500,117.608000L111.584000,169.509000C125.893000,162.877000,132.139000,145.840000,125.509000,131.532000Z" fill="rgb(230,138,46)" stroke="none" stroke-width="1" stroke-miterlimit="1"/><path id="eR3UlE7DIr9107" d="M100.694000,140.780000L97.035900,132.887000C99.593700,132.386000,101.974000,133.079000,102.761000,134.777000C103.272000,135.879000,104.579000,136.358000,105.681000,135.847000C106.784000,135.337000,107.263000,134.029000,106.752000,132.927000C104.966000,129.069000,100.037000,127.436000,95.142700,128.803000L94.144800,126.644000C93.634100,125.541000,92.326600,125.062000,91.224200,125.573000C90.121800,126.084000,89.642600,127.391000,90.153300,128.493000L91.153200,130.651000C86.944800,133.503000,85.006200,138.318000,86.792900,142.174000C88.579600,146.029000,93.507800,147.664000,98.402500,146.297000L102.061000,154.190000C99.503000,154.691000,97.122700,153.998000,96.335800,152.300000C95.825000,151.198000,94.517600,150.719000,93.415200,151.230000C92.312800,151.740000,91.833600,153.048000,92.344300,154.150000C94.131000,158.008000,99.059200,159.640000,103.954000,158.274000L104.964000,160.451000C105.474000,161.553000,106.782000,162.033000,107.884000,161.522000C108.987000,161.011000,109.466000,159.704000,108.955000,158.601000L107.945000,156.424000C112.154000,153.572000,114.092000,148.757000,112.306000,144.901000C110.517000,141.044000,105.589000,139.411000,100.694000,140.780000ZM90.784400,140.326000C89.997600,138.628000,91.009200,136.364000,93.044400,134.737000L96.509300,142.213000C93.953500,142.714000,91.571300,142.024000,90.784400,140.326000ZM106.052000,152.340000L102.587000,144.864000C105.145000,144.363000,107.525000,145.055000,108.312000,146.753000C109.099000,148.449000,108.087000,150.713000,106.052000,152.340000Z" fill="rgb(255,225,77)" stroke="none" stroke-width="1" stroke-miterlimit="1"/><path id="eR3UlE7DIr9108" d="M108.955000,158.603000L107.945000,156.426000C112.154000,153.574000,114.092000,148.759000,112.306000,144.903000C110.519000,141.046000,105.591000,139.413000,100.696000,140.780000L97.037900,132.887000C99.595700,132.386000,101.976000,133.079000,102.763000,134.777000C103.274000,135.879000,104.581000,136.358000,105.683000,135.847000C106.786000,135.337000,107.265000,134.029000,106.754000,132.927000C104.968000,129.069000,100.039000,127.436000,95.144700,128.803000L94.144800,126.644000C93.634100,125.541000,92.326600,125.062000,91.224200,125.573000L107.884000,161.524000C108.987000,161.013000,109.466000,159.705000,108.955000,158.603000ZM102.587000,144.864000C105.145000,144.363000,107.525000,145.055000,108.312000,146.753000C109.099000,148.451000,108.087000,150.715000,106.052000,152.342000L102.587000,144.864000Z" fill="rgb(255,187,51)" stroke="none" stroke-width="1" stroke-miterlimit="1"/></g><clipPath id="eR3UlE7DIr9109"><rect id="eR3UlE7DIr9110" width="75.116300" height="75.116300" rx="0" ry="0" transform="matrix(1 0 0 1 62 106)" fill="rgb(255,255,255)" stroke="none" stroke-width="1" stroke-miterlimit="1"/></clipPath></g></g></svg>