<svg cache-id="f7f19e190e67485881313aab3f49a9ce" id="eZiUKn7XM6g1" xmlns="http://www.w3.org/2000/svg" xmlns:xlink="http://www.w3.org/1999/xlink" viewBox="0 0 352 243" shape-rendering="geometricPrecision" text-rendering="geometricPrecision"><style><![CDATA[#eZiUKn7XM6g4_ts {animation: eZiUKn7XM6g4_ts__ts 4000ms linear infinite normal forwards}@keyframes eZiUKn7XM6g4_ts__ts { 0% {transform: translate(176.666450px,206.541000px) scale(1,1)} 12.500000% {transform: translate(176.666450px,206.541000px) scale(1,1)} 17.500000% {transform: translate(176.666450px,206.541000px) scale(1.059704,0.926905)} 22.500000% {transform: translate(176.666450px,206.541000px) scale(0.949219,1.038982)} 27.500000% {transform: translate(176.666450px,206.541000px) scale(1,1)} 100% {transform: translate(176.666450px,206.541000px) scale(1,1)}} #eZiUKn7XM6g9_ts {animation: eZiUKn7XM6g9_ts__ts 4000ms linear infinite normal forwards}@keyframes eZiUKn7XM6g9_ts__ts { 0% {transform: translate(175.557053px,85.773167px) scale(1,1)} 32.500000% {transform: translate(175.557053px,85.773167px) scale(1,1)} 37.500000% {transform: translate(175.557053px,85.773167px) scale(0.523953,0.523953)} 42.500000% {transform: translate(175.557053px,85.773167px) scale(1.129958,1.129958)} 47.500000% {transform: translate(175.557053px,85.773167px) scale(1,1)} 100% {transform: translate(175.557053px,85.773167px) scale(1,1)}} #eZiUKn7XM6g12_ts {animation: eZiUKn7XM6g12_ts__ts 4000ms linear infinite normal forwards}@keyframes eZiUKn7XM6g12_ts__ts { 0% {transform: translate(235.158020px,33.270000px) scale(1,1)} 52.500000% {transform: translate(235.158020px,33.270000px) scale(1,1)} 57.500000% {transform: translate(235.158020px,33.270000px) scale(0.067890,0.067890)} 62.500000% {transform: translate(235.158020px,33.270000px) scale(1.066173,1.066173)} 67.500000% {transform: translate(235.158020px,33.270000px) scale(1,1)} 100% {transform: translate(235.158020px,33.270000px) scale(1,1)}}]]></style><defs><linearGradient id="eZiUKn7XM6g2-fill" x1="176.339000" y1="-15.041000" x2="176.339000" y2="228.962000" spreadMethod="pad" gradientUnits="userSpaceOnUse"><stop id="eZiUKn7XM6g2-fill-0" offset="0%" stop-color="rgb(206,191,245)"/><stop id="eZiUKn7XM6g2-fill-1" offset="100%" stop-color="rgba(38,128,193,0)"/></linearGradient></defs><path id="eZiUKn7XM6g2" d="M345.858000,51.585100C337.756000,32.090600,322.275000,15.353000,303.372000,6.524770C255.722000,-15.736900,224.079000,27.919100,185.798000,47.506500C168.101000,56.562000,149.136000,56.489700,130.346000,51.203000C110.938000,45.740900,93.797100,34.351900,73.636400,30.779300C54.547600,27.402900,32.985100,30.748300,20.503200,46.680500C8.206820,62.364900,2.517270,82.478900,0.981506,102.149000C-1.059300,128.190000,7.165770,153.373000,24.069500,173.250000C44.436300,197.205000,72.317000,212.920000,100.857000,225.104000C147.147000,244.857000,197.507000,253.654000,240.107000,219.766000C252.712000,209.740000,262.906000,197.174000,273.821000,185.413000C284.943000,173.426000,297.208000,164.690000,310.216000,155.067000C333.963000,137.503000,352.485000,110.760000,351.990000,80.238200C351.836000,70.439400,349.651000,60.712800,345.858000,51.585100Z" opacity="0.14" fill="url(#eZiUKn7XM6g2-fill)" stroke="none" stroke-width="1" stroke-miterlimit="1"/><ellipse id="eZiUKn7XM6g3" rx="117.044000" ry="10.327400" transform="matrix(1 0 0 1 176.63800000000001 205.39300000000000)" opacity="0.1" fill="rgb(6,6,6)" stroke="none" stroke-width="1" stroke-miterlimit="1"/><g id="eZiUKn7XM6g4_ts" transform="translate(176.666450,206.541000) scale(1,1)"><g id="eZiUKn7XM6g4" transform="translate(-176.666450,-206.541000)"><g id="eZiUKn7XM6g5"><path id="eZiUKn7XM6g6" d="M87.134700,94.684900L173.307000,149.532000C174.275000,150.273000,175.471000,150.614000,176.610000,150.614000C177.749000,150.614000,178.945000,150.273000,179.914000,149.532000L266.086000,94.684900L180.028000,28.674600C178.034000,27.193800,175.300000,27.193800,173.307000,28.674600L87.134700,94.684900Z" fill="rgb(45,255,179)" stroke="none" stroke-width="1" stroke-miterlimit="1"/><g id="eZiUKn7XM6g7"><path id="eZiUKn7XM6g8" d="M120.681000,28.032500L232.597000,28.032500C238.472000,28.032500,243.260000,32.820600,243.260000,38.695600L243.260000,161.774000C243.260000,164.574000,240.978000,166.856000,238.178000,166.856000L115.100000,166.856000C112.300000,166.856000,110.018000,164.574000,110.018000,161.774000L110.018000,38.695600C110.018000,32.820600,114.806000,28.032500,120.681000,28.032500Z" fill="rgb(86,0,227)" stroke="rgb(255,255,255)" stroke-width="1" stroke-miterlimit="1"/><g id="eZiUKn7XM6g9_ts" transform="translate(175.557053,85.773167) scale(1,1)"><path id="eZiUKn7XM6g9" d="M222.915000,70.761100C222.972000,66.489500,221.890000,62.160900,219.213000,58.857600C216.991000,56.066800,213.745000,54.130300,210.328000,53.048200C207.708000,52.250800,205.031000,51.966100,202.297000,52.136900C200.816000,52.136900,199.336000,52.250800,197.912000,52.478700C197.855000,52.478700,197.855000,52.478700,197.798000,52.478700C197.342000,52.535600,196.887000,52.649500,196.431000,52.763400C196.374000,52.763400,196.317000,52.763400,196.260000,52.820400C195.804000,52.934300,195.406000,53.048200,194.950000,53.162100C194.551000,53.276000,194.096000,53.446900,193.697000,53.617800C193.583000,53.674700,193.526000,53.674700,193.412000,53.731700C193.014000,53.902500,192.672000,54.016400,192.273000,54.187300C192.159000,54.244300,192.102000,54.301200,191.988000,54.301200C191.647000,54.472100,191.305000,54.642900,190.906000,54.813800C190.849000,54.813800,190.849000,54.870800,190.792000,54.870800C185.553000,57.775400,181.737000,62.730500,178.946000,68.027300C178.490000,68.938500,174.219000,81.525500,171.143000,96.960200L171.143000,97.017100C171.029000,97.700600,170.915000,98.327100,170.744000,99.010500C170.061000,101.972000,168.865000,104.763000,166.815000,106.984000C165.049000,108.864000,162.657000,110.060000,160.151000,110.572000C158.670000,110.743000,157.132000,110.629000,155.651000,110.344000C151.152000,109.376000,147.165000,105.902000,146.197000,101.403000C145.229000,96.675400,147.564000,92.062100,150.184000,87.904400C150.469000,87.505700,150.696000,87.050100,150.981000,86.651400C150.412000,86.480500,149.899000,86.309700,149.386000,86.081800C146.539000,84.885800,143.748000,83.291100,141.527000,81.183700C140.786000,80.443300,140.103000,79.589000,139.533000,78.677800C136.970000,74.690900,136.572000,69.109400,139.419000,65.293400C141.527000,62.445700,145.172000,61.021800,148.760000,61.078800C148.988000,61.078800,149.216000,61.078800,149.443000,61.135800C153.202000,61.420500,156.734000,63.300000,159.581000,65.806000C159.638000,65.863000,159.695000,65.919900,159.752000,65.976900C160.037000,66.261700,160.322000,66.489500,160.607000,66.774300C160.720000,66.888200,160.834000,67.002100,160.948000,67.116000C161.233000,67.400800,161.461000,67.628600,161.689000,67.913300C161.803000,68.084200,161.973000,68.198100,162.087000,68.369000C162.315000,68.596800,162.486000,68.881600,162.714000,69.109400C162.828000,69.280300,162.942000,69.451100,163.113000,69.622000C163.283000,69.849800,163.454000,70.077600,163.625000,70.305400C163.853000,70.590200,164.024000,70.875000,164.195000,71.159800C164.309000,71.330600,164.422000,71.501500,164.536000,71.672300C164.707000,71.900200,164.821000,72.128000,164.935000,72.355800C164.992000,72.469700,165.049000,72.583600,165.106000,72.697500C165.391000,73.210100,165.675000,73.722700,165.903000,74.235300C165.960000,74.292300,165.960000,74.349200,166.017000,74.406200C166.985000,76.342600,167.726000,78.393000,168.352000,80.443300C168.694000,81.639400,169.036000,82.778500,169.264000,83.974500C170.232000,79.418200,171.599000,74.292300,173.421000,70.419300C173.023000,69.565000,172.624000,68.767700,172.168000,67.913300C169.378000,62.616600,165.562000,57.661500,160.322000,54.756800C160.265000,54.756800,160.265000,54.699900,160.208000,54.699900C159.866000,54.529000,159.524000,54.358200,159.126000,54.187300C159.012000,54.130300,158.955000,54.073400,158.841000,54.073400C158.442000,53.902500,158.101000,53.731700,157.702000,53.617800C157.588000,53.560800,157.531000,53.560800,157.417000,53.503800C157.018000,53.333000,156.620000,53.219100,156.164000,53.048200C155.708000,52.934300,155.310000,52.820400,154.854000,52.706500C154.797000,52.706500,154.740000,52.706500,154.683000,52.649500C154.228000,52.535600,153.772000,52.421700,153.316000,52.364800C153.259000,52.364800,153.259000,52.364800,153.202000,52.364800C151.779000,52.136900,150.298000,51.966100,148.817000,52.023000C146.140000,51.852200,143.406000,52.136900,140.786000,52.934300C137.369000,54.016400,134.123000,55.952900,131.901000,58.743700C129.282000,62.047000,128.142000,66.318600,128.199000,70.590200C128.199000,70.590200,128.199000,70.590200,128.199000,70.647200C128.199000,70.931900,128.199000,71.216700,128.199000,71.558400C128.199000,71.672300,128.199000,71.729300,128.199000,71.843200C128.199000,72.014100,128.199000,72.184900,128.199000,72.298800C128.199000,72.583600,128.256000,72.868400,128.256000,73.153200C128.256000,73.267100,128.256000,73.437900,128.313000,73.551800C128.370000,73.893600,128.427000,74.235300,128.484000,74.577000C128.484000,74.634000,128.484000,74.747900,128.541000,74.804800C128.598000,75.260500,128.712000,75.659200,128.826000,76.114800C128.940000,76.513500,129.054000,76.912200,129.168000,77.310800L129.168000,77.367800C129.680000,79.076400,130.421000,80.671200,131.332000,82.208900C131.332000,82.208900,131.332000,82.208900,131.332000,82.265900C131.446000,82.436700,131.503000,82.550700,131.617000,82.721500C131.731000,82.949300,131.901000,83.177200,132.072000,83.405000C132.129000,83.461900,132.186000,83.575800,132.243000,83.632800C132.813000,84.487100,133.439000,85.284500,134.066000,86.024900C134.123000,86.081800,134.180000,86.138800,134.237000,86.252700C134.521000,86.537500,134.749000,86.879200,135.034000,87.164000C135.148000,87.277900,135.205000,87.334800,135.319000,87.448700C135.603000,87.733500,135.831000,87.961300,136.116000,88.246100C136.230000,88.360000,136.287000,88.417000,136.401000,88.530900C136.686000,88.815700,137.027000,89.100400,137.312000,89.328200C137.369000,89.385200,137.426000,89.442200,137.483000,89.499100C137.882000,89.840800,138.280000,90.125600,138.679000,90.467300C138.166000,91.777300,137.825000,93.087200,137.597000,94.454200C137.483000,95.023700,137.426000,95.650200,137.369000,96.219700C137.369000,96.333700,137.369000,96.390600,137.369000,96.504500C137.369000,96.675400,137.369000,96.903200,137.369000,97.074100C137.369000,97.244900,137.369000,97.415800,137.369000,97.586700C137.369000,97.757500,137.369000,97.871400,137.369000,98.042300C137.369000,98.270100,137.369000,98.441000,137.369000,98.668800C137.369000,98.725700,137.369000,98.725700,137.369000,98.782700C137.369000,99.067500,137.369000,99.295300,137.426000,99.580100C137.426000,99.637000,137.426000,99.694000,137.426000,99.750900C137.426000,99.978700,137.483000,100.264000,137.483000,100.491000C137.483000,100.605000,137.483000,100.719000,137.540000,100.833000C137.540000,101.061000,137.597000,101.289000,137.654000,101.460000C137.654000,101.573000,137.711000,101.630000,137.711000,101.744000C137.768000,102.029000,137.825000,102.314000,137.882000,102.656000C137.882000,102.713000,137.939000,102.770000,137.939000,102.826000C137.996000,103.054000,138.053000,103.339000,138.109000,103.567000C138.109000,103.681000,138.166000,103.738000,138.166000,103.852000C138.223000,104.079000,138.280000,104.307000,138.337000,104.535000C138.337000,104.592000,138.394000,104.706000,138.394000,104.763000C138.508000,105.048000,138.565000,105.332000,138.679000,105.674000C138.679000,105.731000,138.736000,105.788000,138.736000,105.845000C138.850000,106.073000,138.907000,106.358000,139.021000,106.585000C139.078000,106.642000,139.078000,106.756000,139.135000,106.813000C139.249000,107.041000,139.362000,107.269000,139.419000,107.554000C139.419000,107.611000,139.476000,107.668000,139.476000,107.668000C139.590000,107.952000,139.761000,108.237000,139.875000,108.522000C139.875000,108.579000,139.932000,108.579000,139.932000,108.636000C140.046000,108.864000,140.217000,109.148000,140.331000,109.376000C140.388000,109.433000,140.388000,109.490000,140.445000,109.547000C140.615000,109.775000,140.729000,110.060000,140.900000,110.288000C140.900000,110.288000,140.900000,110.344000,140.957000,110.344000C141.128000,110.629000,141.299000,110.914000,141.527000,111.142000L141.584000,111.199000C141.755000,111.427000,141.925000,111.654000,142.096000,111.882000C142.153000,111.939000,142.153000,111.939000,142.210000,111.996000C142.609000,112.509000,143.008000,112.964000,143.463000,113.420000L143.520000,113.477000C143.691000,113.705000,143.919000,113.876000,144.147000,114.103000C144.204000,114.160000,144.204000,114.160000,144.261000,114.217000C144.716000,114.673000,145.172000,115.072000,145.684000,115.413000C145.741000,115.413000,145.741000,115.470000,145.798000,115.470000C146.026000,115.641000,146.254000,115.812000,146.482000,115.926000C146.539000,115.926000,146.539000,115.983000,146.596000,115.983000C147.108000,116.325000,147.621000,116.609000,148.190000,116.894000C148.247000,116.894000,148.304000,116.951000,148.304000,116.951000C148.532000,117.065000,148.760000,117.179000,148.988000,117.293000C149.045000,117.293000,149.102000,117.350000,149.159000,117.350000C149.443000,117.464000,149.728000,117.578000,150.013000,117.692000C150.070000,117.692000,150.184000,117.749000,150.241000,117.749000C150.526000,117.862000,150.753000,117.919000,151.038000,117.976000C151.152000,118.033000,151.323000,118.033000,151.437000,118.090000C151.665000,118.147000,151.892000,118.204000,152.120000,118.318000C152.234000,118.375000,152.348000,118.375000,152.462000,118.432000C152.804000,118.546000,153.145000,118.603000,153.487000,118.717000C153.544000,118.717000,153.601000,118.717000,153.658000,118.774000C153.943000,118.831000,154.285000,118.888000,154.569000,118.945000C154.683000,118.945000,154.797000,119.002000,154.854000,119.002000C155.139000,119.059000,155.424000,119.115000,155.765000,119.172000C155.822000,119.172000,155.936000,119.172000,155.993000,119.229000C156.392000,119.286000,156.734000,119.343000,157.132000,119.343000C157.189000,119.343000,157.246000,119.343000,157.303000,119.343000C157.588000,119.343000,157.930000,119.400000,158.214000,119.400000C158.328000,119.400000,158.385000,119.400000,158.499000,119.400000C158.841000,119.400000,159.126000,119.400000,159.467000,119.400000C159.524000,119.400000,159.524000,119.400000,159.581000,119.400000L159.638000,119.400000C159.695000,119.400000,159.752000,119.400000,159.809000,119.400000C163.910000,119.286000,168.238000,118.261000,171.599000,115.812000C171.770000,115.698000,171.997000,115.527000,172.168000,115.356000C172.624000,115.015000,173.023000,114.673000,173.364000,114.331000C177.180000,110.344000,179.003000,102.257000,179.800000,97.017100C180.028000,95.365400,180.199000,93.713700,180.427000,92.062100C180.541000,91.150800,180.654000,90.239500,180.768000,89.328200C180.939000,88.132200,181.167000,86.879200,181.395000,85.683200C181.737000,83.974500,182.135000,82.265900,182.648000,80.557200C183.274000,78.449900,184.072000,76.456500,184.983000,74.520100C185.040000,74.463100,185.040000,74.406200,185.097000,74.349200C185.325000,73.836600,185.610000,73.324000,185.894000,72.811400C185.951000,72.697500,186.008000,72.583600,186.065000,72.469700C186.179000,72.241900,186.350000,72.014100,186.464000,71.786300C186.578000,71.615400,186.692000,71.444500,186.806000,71.273700C186.976000,70.988900,187.204000,70.704100,187.375000,70.419300C187.546000,70.191500,187.717000,69.963700,187.888000,69.735900C188.002000,69.565000,188.116000,69.394200,188.286000,69.223300C188.457000,68.995500,188.685000,68.710700,188.913000,68.482900C189.027000,68.312000,189.198000,68.198100,189.312000,68.027300C189.539000,67.742500,189.824000,67.457700,190.052000,67.229900C190.166000,67.116000,190.280000,67.002100,190.394000,66.888200C190.678000,66.603400,190.963000,66.318600,191.248000,66.090800C191.305000,66.033800,191.362000,65.976900,191.419000,65.919900C194.267000,63.413900,197.741000,61.534400,201.557000,61.249700C201.785000,61.249700,202.012000,61.192700,202.240000,61.192700C205.771000,61.135800,209.417000,62.559600,211.581000,65.407300C214.429000,69.223300,214.030000,74.804800,211.467000,78.791700C210.897000,79.702900,210.214000,80.500300,209.473000,81.297700C207.252000,83.405000,204.461000,84.942700,201.614000,86.195700C201.101000,86.423600,200.532000,86.594400,200.019000,86.765300C200.304000,87.164000,200.532000,87.619600,200.816000,88.018300C203.436000,92.176000,205.771000,96.789300,204.803000,101.517000C203.892000,106.016000,199.848000,109.490000,195.349000,110.458000C193.868000,110.800000,192.387000,110.857000,190.849000,110.686000C188.343000,110.174000,185.951000,108.978000,184.186000,107.098000C183.673000,106.585000,183.274000,106.016000,182.876000,105.446000C181.737000,109.376000,180.085000,113.078000,178.775000,115.641000C178.946000,115.755000,179.117000,115.869000,179.288000,115.983000C182.705000,118.432000,186.976000,119.457000,191.077000,119.571000C191.134000,119.571000,191.191000,119.571000,191.248000,119.571000L191.305000,119.571000C191.362000,119.571000,191.362000,119.571000,191.419000,119.571000C191.761000,119.571000,192.045000,119.571000,192.387000,119.571000C192.501000,119.571000,192.558000,119.571000,192.672000,119.571000C192.957000,119.571000,193.298000,119.514000,193.583000,119.514000C193.640000,119.514000,193.697000,119.514000,193.754000,119.514000C194.153000,119.457000,194.494000,119.457000,194.893000,119.400000C194.950000,119.400000,195.064000,119.400000,195.121000,119.343000C195.406000,119.286000,195.690000,119.229000,196.032000,119.172000C196.146000,119.172000,196.260000,119.115000,196.317000,119.115000C196.602000,119.059000,196.943000,119.002000,197.228000,118.945000C197.285000,118.945000,197.342000,118.945000,197.399000,118.888000C197.741000,118.831000,198.083000,118.717000,198.424000,118.603000C198.538000,118.546000,198.652000,118.546000,198.766000,118.489000C198.994000,118.432000,199.222000,118.375000,199.449000,118.261000C199.563000,118.204000,199.734000,118.204000,199.848000,118.147000C200.133000,118.090000,200.361000,117.976000,200.646000,117.919000C200.702000,117.919000,200.816000,117.862000,200.873000,117.862000C201.158000,117.749000,201.443000,117.635000,201.728000,117.521000C201.785000,117.521000,201.842000,117.464000,201.899000,117.464000C202.126000,117.350000,202.354000,117.236000,202.582000,117.122000C202.639000,117.122000,202.696000,117.065000,202.696000,117.065000C203.265000,116.780000,203.778000,116.496000,204.291000,116.154000C204.348000,116.154000,204.348000,116.097000,204.405000,116.097000C204.632000,115.926000,204.860000,115.812000,205.088000,115.641000C205.145000,115.641000,205.145000,115.584000,205.202000,115.584000C205.714000,115.186000,206.170000,114.787000,206.626000,114.388000C206.683000,114.331000,206.683000,114.331000,206.740000,114.274000C206.967000,114.103000,207.138000,113.876000,207.366000,113.648000L207.423000,113.591000C207.879000,113.135000,208.277000,112.680000,208.676000,112.167000C208.733000,112.110000,208.733000,112.110000,208.790000,112.053000C208.961000,111.825000,209.132000,111.597000,209.303000,111.370000L209.360000,111.313000C209.530000,111.028000,209.701000,110.800000,209.929000,110.515000C209.929000,110.515000,209.929000,110.458000,209.986000,110.458000C210.157000,110.231000,210.271000,109.946000,210.442000,109.718000C210.499000,109.661000,210.499000,109.604000,210.556000,109.547000C210.670000,109.319000,210.840000,109.035000,210.954000,108.807000C210.954000,108.750000,211.011000,108.750000,211.011000,108.693000C211.182000,108.408000,211.296000,108.123000,211.410000,107.838000C211.410000,107.782000,211.467000,107.725000,211.467000,107.725000C211.581000,107.497000,211.695000,107.269000,211.752000,106.984000C211.809000,106.927000,211.809000,106.813000,211.866000,106.756000C211.979000,106.529000,212.036000,106.244000,212.150000,106.016000C212.150000,105.959000,212.207000,105.902000,212.207000,105.845000C212.321000,105.560000,212.435000,105.276000,212.492000,104.934000C212.492000,104.877000,212.549000,104.763000,212.549000,104.706000C212.606000,104.478000,212.663000,104.250000,212.720000,104.023000C212.720000,103.909000,212.777000,103.852000,212.777000,103.738000C212.834000,103.510000,212.891000,103.282000,212.948000,102.997000C212.948000,102.940000,213.005000,102.883000,213.005000,102.826000C213.062000,102.542000,213.119000,102.257000,213.176000,101.915000C213.176000,101.801000,213.232000,101.744000,213.232000,101.630000C213.289000,101.403000,213.289000,101.232000,213.346000,101.004000C213.346000,100.890000,213.346000,100.776000,213.403000,100.662000C213.403000,100.434000,213.460000,100.150000,213.460000,99.921800C213.460000,99.864800,213.460000,99.807900,213.460000,99.750900C213.460000,99.466200,213.517000,99.238300,213.517000,98.953600C213.517000,98.896600,213.517000,98.896600,213.517000,98.839700C213.517000,98.611800,213.517000,98.441000,213.517000,98.213200C213.517000,98.042300,213.517000,97.928400,213.517000,97.757500C213.517000,97.586700,213.517000,97.415800,213.517000,97.244900C213.517000,97.074100,213.517000,96.846200,213.517000,96.675400C213.517000,96.561500,213.517000,96.504500,213.517000,96.390600C213.460000,95.764100,213.403000,95.194600,213.289000,94.625000C213.062000,93.258100,212.720000,91.891200,212.207000,90.638200C212.606000,90.353400,213.005000,90.011700,213.403000,89.670000C213.460000,89.613000,213.517000,89.556100,213.574000,89.499100C213.859000,89.214300,214.201000,88.986500,214.485000,88.701700C214.599000,88.587800,214.656000,88.530900,214.770000,88.417000C215.055000,88.132200,215.283000,87.904400,215.568000,87.619600C215.682000,87.505700,215.738000,87.448700,215.852000,87.334800C216.137000,87.050100,216.422000,86.765300,216.650000,86.423600C216.707000,86.366600,216.764000,86.309700,216.821000,86.195700C217.504000,85.455300,218.074000,84.658000,218.643000,83.803700C218.700000,83.746700,218.757000,83.632800,218.814000,83.575800C218.985000,83.348000,219.099000,83.120200,219.270000,82.892400C219.384000,82.721500,219.441000,82.607600,219.554000,82.436800C219.554000,82.436800,219.554000,82.436800,219.554000,82.379800C220.466000,80.842000,221.206000,79.247300,221.719000,77.538700L221.719000,77.481700C221.833000,77.083000,221.947000,76.684300,222.060000,76.285700C222.174000,75.830000,222.288000,75.431300,222.345000,74.975700C222.345000,74.918800,222.345000,74.804800,222.402000,74.747900C222.459000,74.406200,222.516000,74.064400,222.573000,73.722700C222.573000,73.608800,222.630000,73.437900,222.630000,73.324000C222.687000,73.039300,222.687000,72.754500,222.687000,72.469700C222.687000,72.298800,222.687000,72.128000,222.687000,72.014100C222.687000,71.900200,222.687000,71.843200,222.687000,71.729300C222.915000,71.387600,222.915000,71.045800,222.915000,70.761100Z" transform="translate(-175.557053,-85.773167)" fill="rgb(255,255,255)" stroke="none" stroke-width="1" stroke-miterlimit="1"/></g></g><path id="eZiUKn7XM6g10" d="M179.971000,149.529000C179.002000,150.270000,177.806000,150.611000,176.667000,150.611000C175.528000,150.611000,174.332000,150.270000,173.364000,149.529000L87.134700,94.681900L87.134700,195.378000C87.134700,201.529000,92.146700,206.541000,98.297800,206.541000L254.923000,206.541000C261.074000,206.541000,266.086000,201.529000,266.086000,195.378000L266.086000,94.681900L179.971000,149.529000Z" fill="rgb(31,238,163)" stroke="none" stroke-width="1" stroke-miterlimit="1"/><path id="eZiUKn7XM6g11" d="M254.979000,206.541000L98.354000,206.541000C92.089000,206.541000,87.190900,201.643000,87.190900,195.378000C87.190900,193.612000,88.045300,191.903000,89.469100,190.878000L173.363000,134.949000C174.331000,134.208000,175.527000,133.867000,176.667000,133.867000C177.806000,133.867000,179.002000,134.208000,179.970000,134.949000L263.864000,190.878000C265.288000,191.903000,266.142000,193.612000,266.142000,195.378000C266.142000,201.643000,261.244000,206.541000,254.979000,206.541000Z" fill="rgb(45,255,179)" stroke="none" stroke-width="1" stroke-miterlimit="1"/></g><g id="eZiUKn7XM6g12_ts" transform="translate(235.158020,33.270000) scale(1,1)"><circle id="eZiUKn7XM6g12" r="21.802300" transform="translate(-0.000020,-0)" fill="rgb(45,255,179)" stroke="none" stroke-width="1" stroke-miterlimit="1"/></g></g></g></svg>